<svg width="22" height="22" viewBox="0 0 22 22" fill="none" xmlns="http://www.w3.org/2000/svg">
<g clip-path="url(#clip0_32_10846)">
<path d="M16.5 0H5.5C2.46243 0 0 2.46243 0 5.5V16.5C0 19.5376 2.46243 22 5.5 22H16.5C19.5376 22 22 19.5376 22 16.5V5.5C22 2.46243 19.5376 0 16.5 0Z" fill="url(#paint0_linear_32_10846)"/>
<path d="M16.5 0H5.5C2.46243 0 0 2.46243 0 5.5V16.5C0 19.5376 2.46243 22 5.5 22H16.5C19.5376 22 22 19.5376 22 16.5V5.5C22 2.46243 19.5376 0 16.5 0Z" fill="url(#paint1_linear_32_10846)"/>
<g filter="url(#filter0_i_32_10846)">
<path d="M16.5 1.375H5.5C3.22183 1.375 1.375 3.22183 1.375 5.5V16.5C1.375 18.7782 3.22183 20.625 5.5 20.625H16.5C18.7782 20.625 20.625 18.7782 20.625 16.5V5.5C20.625 3.22183 18.7782 1.375 16.5 1.375Z" fill="black" fill-opacity="0.7"/>
<mask id="mask0_32_10846" style="mask-type:luminance" maskUnits="userSpaceOnUse" x="2" y="2" width="18" height="18">
<path d="M19.25 2.75H2.75V19.25H19.25V2.75Z" fill="white"/>
</mask>
<g mask="url(#mask0_32_10846)">
<g filter="url(#filter1_d_32_10846)">
<path d="M14.9854 18.5429L18.5431 9.13626L15.7145 8.49512L14.9854 18.5429Z" fill="#087CFA"/>
</g>
<g filter="url(#filter2_d_32_10846)">
<path d="M18.4989 15.5571L14.9851 18.5429L9.9707 17.2511L18.4989 15.5571Z" fill="#087CFA"/>
</g>
<g filter="url(#filter3_d_32_10846)">
<path d="M5.33528 10.3683L3.73242 5.78286L11.7357 3.45715L5.33528 10.3683Z" fill="#07C3F2"/>
</g>
<g filter="url(#filter4_d_32_10846)">
<path d="M16.6193 12.1912L14.3737 8.35843L14.4162 8.33172L11.7353 3.45715L3.45703 12.397V18.5429L18.4988 15.5572L16.6193 12.1912Z" fill="url(#paint2_linear_32_10846)"/>
</g>
<g filter="url(#filter5_d_32_10846)">
<path d="M6.28516 6.28577H15.7137V15.7143H6.28516V6.28577Z" fill="black"/>
</g>
<path d="M7.46094 13.9323H10.9966V14.5215H7.46094V13.9323Z" fill="white"/>
<path d="M8.72104 7.46436H9.42819L10.9336 11.0048H10.1259L9.8116 10.2191H8.31875L8.00446 11.0048H7.21875L8.72104 7.46436ZM9.53504 9.53392L9.0636 8.39306L8.59219 9.53392H9.53504Z" fill="white"/>
<path d="M10.8099 9.25102V9.24158C10.8055 8.997 10.8508 8.75408 10.9429 8.52744C11.035 8.30081 11.172 8.09518 11.3457 7.92294C11.5194 7.7507 11.7262 7.61542 11.9536 7.52525C12.181 7.43509 12.4243 7.3919 12.6689 7.39831C12.9287 7.38528 13.1884 7.42742 13.4308 7.52194C13.6732 7.61647 13.8928 7.76124 14.0753 7.94673L13.5756 8.52345C13.3364 8.27489 13.009 8.13039 12.6641 8.12116C12.0639 8.12116 11.6301 8.61931 11.6301 9.23058V9.24158C11.6301 9.85287 12.0529 10.362 12.6641 10.362C13.0711 10.362 13.321 10.2049 13.607 9.94402L14.1004 10.45C13.92 10.6582 13.6948 10.8228 13.4417 10.9317C13.1886 11.0405 12.9142 11.0907 12.639 11.0786C12.3978 11.0826 12.1583 11.0381 11.9346 10.9477C11.711 10.8573 11.5078 10.7229 11.3372 10.5524C11.1665 10.3819 11.0319 10.1788 10.9413 9.95526C10.8507 9.7317 10.806 9.49221 10.8099 9.25102Z" fill="white"/>
</g>
</g>
</g>
<defs>
<filter id="filter0_i_32_10846" x="1.375" y="1.375" width="19.25" height="23.25" filterUnits="userSpaceOnUse" color-interpolation-filters="sRGB">
<feFlood flood-opacity="0" result="BackgroundImageFix"/>
<feBlend mode="normal" in="SourceGraphic" in2="BackgroundImageFix" result="shape"/>
<feColorMatrix in="SourceAlpha" type="matrix" values="0 0 0 0 0 0 0 0 0 0 0 0 0 0 0 0 0 0 127 0" result="hardAlpha"/>
<feOffset dy="4"/>
<feGaussianBlur stdDeviation="2"/>
<feComposite in2="hardAlpha" operator="arithmetic" k2="-1" k3="1"/>
<feColorMatrix type="matrix" values="0 0 0 0 0 0 0 0 0 0 0 0 0 0 0 0 0 0 0.25 0"/>
<feBlend mode="normal" in2="shape" result="effect1_innerShadow_32_10846"/>
</filter>
<filter id="filter1_d_32_10846" x="10.9854" y="6.49512" width="11.5576" height="18.0477" filterUnits="userSpaceOnUse" color-interpolation-filters="sRGB">
<feFlood flood-opacity="0" result="BackgroundImageFix"/>
<feColorMatrix in="SourceAlpha" type="matrix" values="0 0 0 0 0 0 0 0 0 0 0 0 0 0 0 0 0 0 127 0" result="hardAlpha"/>
<feOffset dy="2"/>
<feGaussianBlur stdDeviation="2"/>
<feComposite in2="hardAlpha" operator="out"/>
<feColorMatrix type="matrix" values="0 0 0 0 0 0 0 0 0 0 0 0 0 0 0 0 0 0 0.25 0"/>
<feBlend mode="normal" in2="BackgroundImageFix" result="effect1_dropShadow_32_10846"/>
<feBlend mode="normal" in="SourceGraphic" in2="effect1_dropShadow_32_10846" result="shape"/>
</filter>
<filter id="filter2_d_32_10846" x="5.9707" y="13.5571" width="16.5283" height="10.9857" filterUnits="userSpaceOnUse" color-interpolation-filters="sRGB">
<feFlood flood-opacity="0" result="BackgroundImageFix"/>
<feColorMatrix in="SourceAlpha" type="matrix" values="0 0 0 0 0 0 0 0 0 0 0 0 0 0 0 0 0 0 127 0" result="hardAlpha"/>
<feOffset dy="2"/>
<feGaussianBlur stdDeviation="2"/>
<feComposite in2="hardAlpha" operator="out"/>
<feColorMatrix type="matrix" values="0 0 0 0 0 0 0 0 0 0 0 0 0 0 0 0 0 0 0.25 0"/>
<feBlend mode="normal" in2="BackgroundImageFix" result="effect1_dropShadow_32_10846"/>
<feBlend mode="normal" in="SourceGraphic" in2="effect1_dropShadow_32_10846" result="shape"/>
</filter>
<filter id="filter3_d_32_10846" x="-0.267578" y="1.45715" width="16.0029" height="14.9111" filterUnits="userSpaceOnUse" color-interpolation-filters="sRGB">
<feFlood flood-opacity="0" result="BackgroundImageFix"/>
<feColorMatrix in="SourceAlpha" type="matrix" values="0 0 0 0 0 0 0 0 0 0 0 0 0 0 0 0 0 0 127 0" result="hardAlpha"/>
<feOffset dy="2"/>
<feGaussianBlur stdDeviation="2"/>
<feComposite in2="hardAlpha" operator="out"/>
<feColorMatrix type="matrix" values="0 0 0 0 0 0 0 0 0 0 0 0 0 0 0 0 0 0 0.25 0"/>
<feBlend mode="normal" in2="BackgroundImageFix" result="effect1_dropShadow_32_10846"/>
<feBlend mode="normal" in="SourceGraphic" in2="effect1_dropShadow_32_10846" result="shape"/>
</filter>
<filter id="filter4_d_32_10846" x="-0.542969" y="1.45715" width="23.042" height="23.0858" filterUnits="userSpaceOnUse" color-interpolation-filters="sRGB">
<feFlood flood-opacity="0" result="BackgroundImageFix"/>
<feColorMatrix in="SourceAlpha" type="matrix" values="0 0 0 0 0 0 0 0 0 0 0 0 0 0 0 0 0 0 127 0" result="hardAlpha"/>
<feOffset dy="2"/>
<feGaussianBlur stdDeviation="2"/>
<feComposite in2="hardAlpha" operator="out"/>
<feColorMatrix type="matrix" values="0 0 0 0 0 0 0 0 0 0 0 0 0 0 0 0 0 0 0.25 0"/>
<feBlend mode="normal" in2="BackgroundImageFix" result="effect1_dropShadow_32_10846"/>
<feBlend mode="normal" in="SourceGraphic" in2="effect1_dropShadow_32_10846" result="shape"/>
</filter>
<filter id="filter5_d_32_10846" x="2.28516" y="4.28577" width="17.4287" height="17.4286" filterUnits="userSpaceOnUse" color-interpolation-filters="sRGB">
<feFlood flood-opacity="0" result="BackgroundImageFix"/>
<feColorMatrix in="SourceAlpha" type="matrix" values="0 0 0 0 0 0 0 0 0 0 0 0 0 0 0 0 0 0 127 0" result="hardAlpha"/>
<feOffset dy="2"/>
<feGaussianBlur stdDeviation="2"/>
<feComposite in2="hardAlpha" operator="out"/>
<feColorMatrix type="matrix" values="0 0 0 0 0 0 0 0 0 0 0 0 0 0 0 0 0 0 0.25 0"/>
<feBlend mode="normal" in2="BackgroundImageFix" result="effect1_dropShadow_32_10846"/>
<feBlend mode="normal" in="SourceGraphic" in2="effect1_dropShadow_32_10846" result="shape"/>
</filter>
<linearGradient id="paint0_linear_32_10846" x1="11" y1="0" x2="11" y2="22" gradientUnits="userSpaceOnUse">
<stop stop-color="#FCF84A"/>
<stop offset="0.244792" stop-color="#9AF156"/>
<stop offset="0.510417" stop-color="#7AE36F"/>
<stop offset="0.744792" stop-color="#21D789"/>
<stop offset="1" stop-color="#07C3F2"/>
</linearGradient>
<linearGradient id="paint1_linear_32_10846" x1="14.4613" y1="22.699" x2="3.57246" y2="7.45676" gradientUnits="userSpaceOnUse">
<stop offset="0.09" stop-color="#21D789"/>
<stop offset="0.48" stop-color="#07C3F2"/>
<stop offset="0.9" stop-color="#087CFA"/>
</linearGradient>
<linearGradient id="paint2_linear_32_10846" x1="13.3445" y1="19.0221" x2="5.87074" y2="8.59101" gradientUnits="userSpaceOnUse">
<stop offset="0.09" stop-color="#21D789"/>
<stop offset="0.48" stop-color="#07C3F2"/>
<stop offset="0.9" stop-color="#087CFA"/>
</linearGradient>
<clipPath id="clip0_32_10846">
<rect width="22" height="22" fill="white"/>
</clipPath>
</defs>
</svg>
