<svg width="22" height="22" viewBox="0 0 22 22" fill="none" xmlns="http://www.w3.org/2000/svg">
<g clip-path="url(#clip0_32_10894)">
<path d="M16.5 0H5.5C2.46243 0 0 2.46243 0 5.5V16.5C0 19.5376 2.46243 22 5.5 22H16.5C19.5376 22 22 19.5376 22 16.5V5.5C22 2.46243 19.5376 0 16.5 0Z" fill="url(#paint0_linear_32_10894)"/>
<g filter="url(#filter0_i_32_10894)">
<path d="M16.5 1.375H5.5C3.22183 1.375 1.375 3.22183 1.375 5.5V16.5C1.375 18.7782 3.22183 20.625 5.5 20.625H16.5C18.7782 20.625 20.625 18.7782 20.625 16.5V5.5C20.625 3.22183 18.7782 1.375 16.5 1.375Z" fill="black" fill-opacity="0.7"/>
<mask id="mask0_32_10894" style="mask-type:luminance" maskUnits="userSpaceOnUse" x="3" y="3" width="16" height="16">
<path d="M3.53613 3.53577H18.6219V18.6215H3.53613V3.53577Z" fill="white"/>
</mask>
<g mask="url(#mask0_32_10894)">
<g filter="url(#filter1_d_32_10894)">
<path d="M10.6661 8.95368L4.28589 7.39441L3.53613 9.16826L5.83601 16.5246L11.9467 18.6214L10.6661 8.95368Z" fill="url(#paint1_linear_32_10894)"/>
</g>
<g filter="url(#filter2_d_32_10894)">
<path d="M18.6218 7.8511L17.0884 4.84872L9.26409 3.53577L5.83594 16.5247L11.9466 18.6215L12.274 18.0841L18.6218 7.8511Z" fill="url(#paint2_linear_32_10894)"/>
</g>
<g filter="url(#filter3_d_32_10894)">
<path d="M15.825 6.36438H6.39648V15.7929H15.825V6.36438Z" fill="black"/>
</g>
<path d="M12.719 7.51453H13.4388L14.9595 11.0882H14.1434L13.819 10.2924H12.3185L11.9941 11.0882H11.1982L12.719 7.51453ZM13.5402 9.60298L13.0688 8.45228L12.5973 9.60298H13.5402Z" fill="white"/>
<path d="M10.5782 11.1948L10.1879 10.845C9.88882 11.0376 9.52893 11.1491 9.13353 11.1491C8.03862 11.1491 7.25293 10.333 7.25293 9.32427V9.31413C7.25293 8.30538 8.04876 7.47913 9.14369 7.47913C10.2386 7.47913 11.0243 8.29526 11.0243 9.30399V9.31413C11.0243 9.68925 10.9077 10.039 10.71 10.333L11.075 10.6422L10.5782 11.1948ZM9.61004 10.333L9.03218 9.84132L9.52893 9.28373L10.1119 9.8109C10.1727 9.66899 10.2082 9.50168 10.2082 9.32427V9.31413C10.2082 8.70585 9.76212 8.19894 9.13353 8.19894C8.50497 8.19894 8.06904 8.69573 8.06904 9.30399V9.31413C8.06904 9.92243 8.51513 10.4293 9.14369 10.4293C9.31603 10.4293 9.47318 10.3989 9.61004 10.333Z" fill="white"/>
<path d="M10.8159 14.0249H7.28027V14.6141H10.8159V14.0249Z" fill="white"/>
</g>
</g>
</g>
<defs>
<filter id="filter0_i_32_10894" x="1.375" y="1.375" width="19.25" height="23.25" filterUnits="userSpaceOnUse" color-interpolation-filters="sRGB">
<feFlood flood-opacity="0" result="BackgroundImageFix"/>
<feBlend mode="normal" in="SourceGraphic" in2="BackgroundImageFix" result="shape"/>
<feColorMatrix in="SourceAlpha" type="matrix" values="0 0 0 0 0 0 0 0 0 0 0 0 0 0 0 0 0 0 127 0" result="hardAlpha"/>
<feOffset dy="4"/>
<feGaussianBlur stdDeviation="2"/>
<feComposite in2="hardAlpha" operator="arithmetic" k2="-1" k3="1"/>
<feColorMatrix type="matrix" values="0 0 0 0 0 0 0 0 0 0 0 0 0 0 0 0 0 0 0.25 0"/>
<feBlend mode="normal" in2="shape" result="effect1_innerShadow_32_10894"/>
</filter>
<filter id="filter1_d_32_10894" x="-0.463867" y="5.39441" width="16.4102" height="19.2269" filterUnits="userSpaceOnUse" color-interpolation-filters="sRGB">
<feFlood flood-opacity="0" result="BackgroundImageFix"/>
<feColorMatrix in="SourceAlpha" type="matrix" values="0 0 0 0 0 0 0 0 0 0 0 0 0 0 0 0 0 0 127 0" result="hardAlpha"/>
<feOffset dy="2"/>
<feGaussianBlur stdDeviation="2"/>
<feComposite in2="hardAlpha" operator="out"/>
<feColorMatrix type="matrix" values="0 0 0 0 0 0 0 0 0 0 0 0 0 0 0 0 0 0 0.25 0"/>
<feBlend mode="normal" in2="BackgroundImageFix" result="effect1_dropShadow_32_10894"/>
<feBlend mode="normal" in="SourceGraphic" in2="effect1_dropShadow_32_10894" result="shape"/>
</filter>
<filter id="filter2_d_32_10894" x="1.83594" y="1.53577" width="20.7861" height="23.0857" filterUnits="userSpaceOnUse" color-interpolation-filters="sRGB">
<feFlood flood-opacity="0" result="BackgroundImageFix"/>
<feColorMatrix in="SourceAlpha" type="matrix" values="0 0 0 0 0 0 0 0 0 0 0 0 0 0 0 0 0 0 127 0" result="hardAlpha"/>
<feOffset dy="2"/>
<feGaussianBlur stdDeviation="2"/>
<feComposite in2="hardAlpha" operator="out"/>
<feColorMatrix type="matrix" values="0 0 0 0 0 0 0 0 0 0 0 0 0 0 0 0 0 0 0.25 0"/>
<feBlend mode="normal" in2="BackgroundImageFix" result="effect1_dropShadow_32_10894"/>
<feBlend mode="normal" in="SourceGraphic" in2="effect1_dropShadow_32_10894" result="shape"/>
</filter>
<filter id="filter3_d_32_10894" x="2.39648" y="4.36438" width="17.4287" height="17.4286" filterUnits="userSpaceOnUse" color-interpolation-filters="sRGB">
<feFlood flood-opacity="0" result="BackgroundImageFix"/>
<feColorMatrix in="SourceAlpha" type="matrix" values="0 0 0 0 0 0 0 0 0 0 0 0 0 0 0 0 0 0 127 0" result="hardAlpha"/>
<feOffset dy="2"/>
<feGaussianBlur stdDeviation="2"/>
<feComposite in2="hardAlpha" operator="out"/>
<feColorMatrix type="matrix" values="0 0 0 0 0 0 0 0 0 0 0 0 0 0 0 0 0 0 0.25 0"/>
<feBlend mode="normal" in2="BackgroundImageFix" result="effect1_dropShadow_32_10894"/>
<feBlend mode="normal" in="SourceGraphic" in2="effect1_dropShadow_32_10894" result="shape"/>
</filter>
<linearGradient id="paint0_linear_32_10894" x1="11" y1="0" x2="11" y2="22" gradientUnits="userSpaceOnUse">
<stop stop-color="#3BEA62"/>
<stop offset="0.510417" stop-color="#087DF7"/>
<stop offset="1" stop-color="#6B57FF"/>
</linearGradient>
<linearGradient id="paint1_linear_32_10894" x1="9.06539" y1="16.1495" x2="7.0792" y2="8.98195" gradientUnits="userSpaceOnUse">
<stop stop-color="#087CFA"/>
<stop offset="1" stop-color="#6B57FF"/>
</linearGradient>
<linearGradient id="paint2_linear_32_10894" x1="6.33817" y1="17.2171" x2="13.7329" y2="6.57962" gradientUnits="userSpaceOnUse">
<stop stop-color="#087CFA"/>
<stop offset="0.387317" stop-color="#097FF6"/>
<stop offset="0.960121" stop-color="#3BEA62"/>
</linearGradient>
<clipPath id="clip0_32_10894">
<rect width="22" height="22" fill="white"/>
</clipPath>
</defs>
</svg>
