<svg width="22" height="22" viewBox="0 0 22 22" fill="none" xmlns="http://www.w3.org/2000/svg">
<g clip-path="url(#clip0_32_10911)">
<path d="M16.5 0H5.5C2.46243 0 0 2.46243 0 5.5V16.5C0 19.5376 2.46243 22 5.5 22H16.5C19.5376 22 22 19.5376 22 16.5V5.5C22 2.46243 19.5376 0 16.5 0Z" fill="url(#paint0_linear_32_10911)"/>
<g filter="url(#filter0_i_32_10911)">
<path d="M16.5 1.375H5.5C3.22183 1.375 1.375 3.22183 1.375 5.5V16.5C1.375 18.7782 3.22183 20.625 5.5 20.625H16.5C18.7782 20.625 20.625 18.7782 20.625 16.5V5.5C20.625 3.22183 18.7782 1.375 16.5 1.375Z" fill="black" fill-opacity="0.7"/>
<mask id="mask0_32_10911" style="mask-type:luminance" maskUnits="userSpaceOnUse" x="2" y="2" width="18" height="18">
<path d="M19.25 2.75H2.75V19.25H19.25V2.75Z" fill="white"/>
</mask>
<g mask="url(#mask0_32_10911)">
<g filter="url(#filter1_d_32_10911)">
<path fill-rule="evenodd" clip-rule="evenodd" d="M10.6339 8.23128C10.3381 8.97149 10.0533 10.1964 9.7092 8.78724C9.45118 7.78633 8.89984 9.41447 8.49889 9.69356C7.69023 10.3083 7.24269 11.1745 6.88354 12.1025C5.93248 11.2938 6.28921 12.5917 6.23094 13.2264C6.28278 14.1778 6.12775 15.2183 6.30748 16.1147C7.0622 16.7723 7.60813 17.8103 8.73118 17.7969C9.49939 18.0638 9.40317 16.9023 10.0997 17.8662C10.7408 18.7448 11.1367 18.2311 11.5551 17.799C12.1665 18.7348 12.3538 16.679 12.8696 17.6011C13.6668 17.9114 14.3816 18.059 14.5124 17.0068C14.6761 16.1759 16.1048 16.159 15.77 15.16C15.7233 14.1234 15.8627 13.0129 15.7015 12.0219C15.1604 11.5996 14.743 10.6244 14.1265 10.5395C13.3637 10.9097 13.6576 9.27755 13.3436 8.79714C13.241 7.53569 12.9708 8.10607 12.6771 8.97115C12.5145 10.2165 11.8313 9.62285 11.4822 8.80777C11.1718 8.54676 10.818 7.16763 10.6339 8.23128Z" fill="#F3E517"/>
</g>
<mask id="mask1_32_10911" style="mask-type:luminance" maskUnits="userSpaceOnUse" x="6" y="8" width="10" height="10">
<path d="M6.61719 14.9022L6.875 15.16L7.26172 16.4491L7.39062 14.9022L7.77734 16.8358V14.3866L8.03516 15.0311L8.42188 16.8358V14.3866L8.67969 14.6444L9.06641 16.8358L9.45312 13.8709L10.3059 17.2122L10.3555 15.16L10.6133 14.3866L10.8711 17.6092L11.6445 14.3866L11.9023 17.0936L12.5469 14.2577L13.1914 17.3514L13.3203 15.0311L13.707 14.2577L13.8359 17.2225L14.4805 14.3866L14.8672 15.6756L14.9961 14.5155L15.3828 15.2889V12.8397L14.9961 13.8709L14.8672 11.6795L14.6094 13.3553L14.3516 12.8397L14.2227 11.035L13.5781 13.4842L13.4492 12.9686L13.0625 9.10141L12.6758 12.453L12.418 13.4842L11.9023 10.0038L11.3867 12.9686L11.1289 13.742L11 8.4176L10.2266 14.3866L9.45312 8.9725L9.06641 13.6131L8.80859 13.0975L8.55078 10.0038L8.42188 13.0975L8.03516 13.9998L7.77734 10.9061L7.51953 13.3553L7.13281 12.7108V14.5155L6.61719 12.5819V14.9022Z" fill="white"/>
</mask>
<g mask="url(#mask1_32_10911)">
<path fill-rule="evenodd" clip-rule="evenodd" d="M6.35938 17.7382V8.328H15.6406V17.7382H6.35938Z" fill="#FF7901"/>
<g filter="url(#filter2_d_32_10911)">
<path fill-rule="evenodd" clip-rule="evenodd" d="M6.48828 13.0975L7.51953 13.7421L7.90625 12.5819L8.55078 13.3553L9.32422 12.0663L9.58203 13.6132L9.83984 12.5819L10.2266 13.3553L10.3555 12.5819C10.3555 12.5819 10.7422 13.6132 10.7422 13.4843C10.7422 13.3553 11.2578 11.5507 11.2578 11.5507L11.7734 13.2264L12.5469 11.6796L12.9336 13.3553L13.5781 12.1952L13.9648 13.3553L14.6094 12.7108L15.3828 13.4843V14.5155L14.8672 14.9022L14.0938 14.6444L13.5781 14.3866L13.4492 15.6757L13.1914 14.3866L12.6758 15.5468L11.9023 14.3866L11.6445 15.5468L11.1289 14.7733L10.4844 16.4491L10.0977 14.5155L9.32422 14.9022L8.80859 14.1288L8.55078 15.4178L8.03516 14.7733L7.51953 15.4178L7.26172 15.0311L6.48828 15.16V13.0975Z" fill="#FF0101"/>
</g>
</g>
<g filter="url(#filter3_d_32_10911)">
<path d="M11 3.67126C9.29031 3.67126 7.73111 4.20504 6.58094 5.10133C5.43075 5.99761 4.68359 7.28002 4.68359 8.70667V9.22229C3.54164 9.80089 2.75 11.3186 2.75 13.0975C2.75 15.3745 4.04544 17.2226 5.71484 17.2226V8.70667C5.71484 7.63828 6.26783 6.655 7.21741 5.91504C8.16698 5.17508 9.50787 4.70251 11 4.70251C12.4921 4.70251 13.833 5.17508 14.7826 5.91504C15.7322 6.655 16.2852 7.63828 16.2852 8.70667V17.2226C17.9546 17.2226 19.25 15.3745 19.25 13.0975C19.25 11.3186 18.4583 9.80089 17.3164 9.22229V8.70667C17.3164 7.28002 16.5692 5.99761 15.4191 5.10133C14.2689 4.20504 12.7097 3.67126 11 3.67126ZM6.10156 9.10145V17.2226C6.35938 17.2226 6.61719 17.0936 6.74609 16.8358V9.35926C6.61719 9.23036 6.35938 9.10145 6.10156 9.10145ZM15.8984 9.10145C15.6406 9.10145 15.3828 9.23036 15.2539 9.35926V16.8358C15.3828 17.0936 15.6406 17.2226 15.8984 17.2226V9.10145Z" fill="#0077CC"/>
</g>
</g>
</g>
</g>
<defs>
<filter id="filter0_i_32_10911" x="1.375" y="1.375" width="19.25" height="23.25" filterUnits="userSpaceOnUse" color-interpolation-filters="sRGB">
<feFlood flood-opacity="0" result="BackgroundImageFix"/>
<feBlend mode="normal" in="SourceGraphic" in2="BackgroundImageFix" result="shape"/>
<feColorMatrix in="SourceAlpha" type="matrix" values="0 0 0 0 0 0 0 0 0 0 0 0 0 0 0 0 0 0 127 0" result="hardAlpha"/>
<feOffset dy="4"/>
<feGaussianBlur stdDeviation="2"/>
<feComposite in2="hardAlpha" operator="arithmetic" k2="-1" k3="1"/>
<feColorMatrix type="matrix" values="0 0 0 0 0 0 0 0 0 0 0 0 0 0 0 0 0 0 0.25 0"/>
<feBlend mode="normal" in2="shape" result="effect1_innerShadow_32_10911"/>
</filter>
<filter id="filter1_d_32_10911" x="2.21191" y="5.83386" width="17.6084" height="18.5127" filterUnits="userSpaceOnUse" color-interpolation-filters="sRGB">
<feFlood flood-opacity="0" result="BackgroundImageFix"/>
<feColorMatrix in="SourceAlpha" type="matrix" values="0 0 0 0 0 0 0 0 0 0 0 0 0 0 0 0 0 0 127 0" result="hardAlpha"/>
<feOffset dy="2"/>
<feGaussianBlur stdDeviation="2"/>
<feComposite in2="hardAlpha" operator="out"/>
<feColorMatrix type="matrix" values="0 0 0 0 0 0 0 0 0 0 0 0 0 0 0 0 0 0 0.25 0"/>
<feBlend mode="normal" in2="BackgroundImageFix" result="effect1_dropShadow_32_10911"/>
<feBlend mode="normal" in="SourceGraphic" in2="effect1_dropShadow_32_10911" result="shape"/>
</filter>
<filter id="filter2_d_32_10911" x="2.48828" y="9.55066" width="16.8945" height="12.8984" filterUnits="userSpaceOnUse" color-interpolation-filters="sRGB">
<feFlood flood-opacity="0" result="BackgroundImageFix"/>
<feColorMatrix in="SourceAlpha" type="matrix" values="0 0 0 0 0 0 0 0 0 0 0 0 0 0 0 0 0 0 127 0" result="hardAlpha"/>
<feOffset dy="2"/>
<feGaussianBlur stdDeviation="2"/>
<feComposite in2="hardAlpha" operator="out"/>
<feColorMatrix type="matrix" values="0 0 0 0 0 0 0 0 0 0 0 0 0 0 0 0 0 0 0.25 0"/>
<feBlend mode="normal" in2="BackgroundImageFix" result="effect1_dropShadow_32_10911"/>
<feBlend mode="normal" in="SourceGraphic" in2="effect1_dropShadow_32_10911" result="shape"/>
</filter>
<filter id="filter3_d_32_10911" x="-1.25" y="1.67126" width="24.5" height="21.5513" filterUnits="userSpaceOnUse" color-interpolation-filters="sRGB">
<feFlood flood-opacity="0" result="BackgroundImageFix"/>
<feColorMatrix in="SourceAlpha" type="matrix" values="0 0 0 0 0 0 0 0 0 0 0 0 0 0 0 0 0 0 127 0" result="hardAlpha"/>
<feOffset dy="2"/>
<feGaussianBlur stdDeviation="2"/>
<feComposite in2="hardAlpha" operator="out"/>
<feColorMatrix type="matrix" values="0 0 0 0 0 0 0 0 0 0 0 0 0 0 0 0 0 0 0.25 0"/>
<feBlend mode="normal" in2="BackgroundImageFix" result="effect1_dropShadow_32_10911"/>
<feBlend mode="normal" in="SourceGraphic" in2="effect1_dropShadow_32_10911" result="shape"/>
</filter>
<linearGradient id="paint0_linear_32_10911" x1="11" y1="0" x2="11" y2="22" gradientUnits="userSpaceOnUse">
<stop stop-color="#0077CC"/>
<stop offset="1" stop-color="#0044CC"/>
</linearGradient>
<clipPath id="clip0_32_10911">
<rect width="22" height="22" fill="white"/>
</clipPath>
</defs>
</svg>
