<svg width="22" height="22" viewBox="0 0 22 22" fill="none" xmlns="http://www.w3.org/2000/svg">
<g clip-path="url(#clip0_32_10930)">
<path d="M16.5 0H5.5C2.46243 0 0 2.46243 0 5.5V16.5C0 19.5376 2.46243 22 5.5 22H16.5C19.5376 22 22 19.5376 22 16.5V5.5C22 2.46243 19.5376 0 16.5 0Z" fill="url(#paint0_linear_32_10930)"/>
<g filter="url(#filter0_i_32_10930)">
<path d="M16.5 1.375H5.5C3.22183 1.375 1.375 3.22183 1.375 5.5V16.5C1.375 18.7782 3.22183 20.625 5.5 20.625H16.5C18.7782 20.625 20.625 18.7782 20.625 16.5V5.5C20.625 3.22183 18.7782 1.375 16.5 1.375Z" fill="black" fill-opacity="0.7"/>
<g filter="url(#filter1_d_32_10930)">
<path fill-rule="evenodd" clip-rule="evenodd" d="M16.414 7.41666L16.7348 6.62676C16.7348 6.62676 16.3265 6.18795 15.8307 5.69059C15.3349 5.19325 14.2849 5.4858 14.2849 5.4858L13.0892 4.125H10.9893H8.88939L7.69362 5.4858C7.69362 5.4858 6.64367 5.19325 6.14787 5.69059C5.65206 6.18795 5.24375 6.62676 5.24375 6.62676L5.56456 7.41666L5.15625 8.58687C5.15625 8.58687 6.35712 13.1494 6.49785 13.7066C6.77492 14.8036 6.9645 15.2278 7.75194 15.7837C8.5394 16.3395 9.96849 17.3049 10.2018 17.4512C10.4351 17.5976 10.7268 17.8466 10.9893 17.8466C11.2518 17.8466 11.5434 17.5976 11.7767 17.4512C12.0101 17.3049 13.4391 16.3395 14.2266 15.7837C15.0141 15.2278 15.2036 14.8036 15.4807 13.7066C15.6214 13.1494 16.8223 8.58687 16.8223 8.58687L16.414 7.41666Z" fill="#FF5500"/>
<path fill-rule="evenodd" clip-rule="evenodd" d="M13.9498 6.34881C13.9498 6.34881 15.4878 8.21384 15.4878 8.61245C15.4878 9.01105 15.2944 9.11625 15.0998 9.32346C14.9053 9.53068 14.0557 10.4357 13.9466 10.5519C13.8375 10.6681 13.6103 10.8443 13.7439 11.1615C13.8776 11.4786 14.0746 11.8822 13.8555 12.2915C13.6363 12.7009 13.2608 12.9741 13.0202 12.9289C12.7795 12.8837 12.2145 12.5875 12.0067 12.4522C11.7989 12.3169 11.1403 11.772 11.1403 11.5636C11.1403 11.3551 11.8211 10.9808 11.9468 10.8958C12.0726 10.8108 12.6463 10.4816 12.6581 10.3524C12.6698 10.2232 12.6653 10.1853 12.496 9.86609C12.3267 9.54683 12.0218 9.12081 12.0726 8.83735C12.1233 8.55393 12.615 8.40655 12.966 8.2736C13.3168 8.14071 13.9924 7.88967 14.0768 7.85063C14.1612 7.81158 14.1394 7.77439 13.8837 7.75009C13.6281 7.72577 12.9026 7.62917 12.5755 7.72063C12.2484 7.81208 11.6896 7.95121 11.6444 8.025C11.5991 8.09879 11.5592 8.10126 11.6056 8.35579C11.6521 8.6103 11.8914 9.8316 11.9146 10.0485C11.9379 10.2655 11.9833 10.4089 11.7502 10.4623C11.517 10.5158 11.1244 10.6087 10.9895 10.6087C10.8546 10.6087 10.4621 10.5158 10.2289 10.4623C9.99569 10.4089 10.0411 10.2655 10.0644 10.0485C10.0876 9.8316 10.3269 8.6103 10.3734 8.35579C10.4199 8.10126 10.38 8.09879 10.3347 8.025C10.2894 7.95121 9.73061 7.81208 9.40353 7.72063C9.07643 7.62917 8.35097 7.72577 8.0953 7.75009C7.83964 7.77439 7.81783 7.81158 7.90222 7.85063C7.98663 7.88967 8.66223 8.14071 9.0131 8.2736C9.36398 8.40655 9.85573 8.55393 9.90649 8.83735C9.95723 9.12081 9.6523 9.54683 9.48304 9.86609C9.31373 10.1853 9.30924 10.2232 9.321 10.3524C9.33272 10.4816 9.90642 10.8108 10.0322 10.8958C10.158 10.9808 10.8388 11.3551 10.8388 11.5636C10.8388 11.772 10.1802 12.3169 9.9724 12.4522C9.76459 12.5875 9.19951 12.8837 8.95891 12.9289C8.7183 12.9741 8.34279 12.7009 8.12359 12.2915C7.90442 11.8822 8.10151 11.4786 8.23509 11.1615C8.36869 10.8443 8.14159 10.6681 8.03245 10.5519C7.92338 10.4357 7.07373 9.53068 6.8792 9.32346C6.68467 9.11625 6.49121 9.01105 6.49121 8.61245C6.49121 8.21384 8.02927 6.34881 8.02927 6.34881C8.02927 6.34881 9.32711 6.59748 9.5021 6.59748C9.6771 6.59748 10.0562 6.45121 10.4062 6.33418C10.7562 6.21717 10.9895 6.21631 10.9895 6.21631C10.9895 6.21631 11.2228 6.21717 11.5728 6.33418C11.9228 6.45121 12.302 6.59748 12.4769 6.59748C12.652 6.59748 13.9498 6.34881 13.9498 6.34881ZM12.7968 13.4829C12.892 13.5427 12.8339 13.6554 12.7472 13.7169C12.6605 13.7784 11.495 14.6837 11.3819 14.7837C11.2688 14.8838 11.1025 15.0491 10.9895 15.0491C10.8765 15.0491 10.7103 14.8838 10.5972 14.7837C10.484 14.6837 9.31859 13.7784 9.23186 13.7169C9.14512 13.6554 9.08707 13.5427 9.18228 13.4829C9.27749 13.4231 9.57537 13.2723 9.98639 13.0589C10.3974 12.8456 10.9096 12.6642 10.9895 12.6642C11.0695 12.6642 11.5817 12.8456 11.9927 13.0589C12.4037 13.2723 12.7016 13.4231 12.7968 13.4829Z" fill="white"/>
<path d="M14.2845 5.48593L13.0888 4.12512H10.9889H8.88899L7.69322 5.48593C7.69322 5.48593 6.64327 5.19338 6.14746 5.69072C6.14746 5.69072 7.54738 5.56396 8.02862 6.34896C8.02862 6.34896 9.32646 6.59763 9.50145 6.59763C9.67643 6.59763 10.0556 6.45135 10.4056 6.33434C10.7556 6.21731 10.9889 6.21646 10.9889 6.21646C10.9889 6.21646 11.2222 6.21731 11.5722 6.33434C11.9222 6.45135 12.3013 6.59763 12.4763 6.59763C12.6513 6.59763 13.9491 6.34896 13.9491 6.34896C14.4304 5.56396 15.8303 5.69072 15.8303 5.69072C15.3345 5.19338 14.2845 5.48593 14.2845 5.48593Z" fill="#FF2000"/>
<path d="M14.2845 5.48593L13.0888 4.12512H10.9889H8.88899L7.69322 5.48593C7.69322 5.48593 6.64327 5.19338 6.14746 5.69072C6.14746 5.69072 7.54738 5.56396 8.02862 6.34896C8.02862 6.34896 9.32646 6.59763 9.50145 6.59763C9.67643 6.59763 10.0556 6.45135 10.4056 6.33434C10.7556 6.21731 10.9889 6.21646 10.9889 6.21646C10.9889 6.21646 11.2222 6.21731 11.5722 6.33434C11.9222 6.45135 12.3013 6.59763 12.4763 6.59763C12.6513 6.59763 13.9491 6.34896 13.9491 6.34896C14.4304 5.56396 15.8303 5.69072 15.8303 5.69072C15.3345 5.19338 14.2845 5.48593 14.2845 5.48593Z" fill="black" fill-opacity="0.1"/>
</g>
</g>
</g>
<defs>
<filter id="filter0_i_32_10930" x="1.375" y="1.375" width="19.25" height="23.25" filterUnits="userSpaceOnUse" color-interpolation-filters="sRGB">
<feFlood flood-opacity="0" result="BackgroundImageFix"/>
<feBlend mode="normal" in="SourceGraphic" in2="BackgroundImageFix" result="shape"/>
<feColorMatrix in="SourceAlpha" type="matrix" values="0 0 0 0 0 0 0 0 0 0 0 0 0 0 0 0 0 0 127 0" result="hardAlpha"/>
<feOffset dy="4"/>
<feGaussianBlur stdDeviation="2"/>
<feComposite in2="hardAlpha" operator="arithmetic" k2="-1" k3="1"/>
<feColorMatrix type="matrix" values="0 0 0 0 0 0 0 0 0 0 0 0 0 0 0 0 0 0 0.25 0"/>
<feBlend mode="normal" in2="shape" result="effect1_innerShadow_32_10930"/>
</filter>
<filter id="filter1_d_32_10930" x="1.15625" y="2.125" width="19.666" height="21.7217" filterUnits="userSpaceOnUse" color-interpolation-filters="sRGB">
<feFlood flood-opacity="0" result="BackgroundImageFix"/>
<feColorMatrix in="SourceAlpha" type="matrix" values="0 0 0 0 0 0 0 0 0 0 0 0 0 0 0 0 0 0 127 0" result="hardAlpha"/>
<feOffset dy="2"/>
<feGaussianBlur stdDeviation="2"/>
<feComposite in2="hardAlpha" operator="out"/>
<feColorMatrix type="matrix" values="0 0 0 0 0 0 0 0 0 0 0 0 0 0 0 0 0 0 0.25 0"/>
<feBlend mode="normal" in2="BackgroundImageFix" result="effect1_dropShadow_32_10930"/>
<feBlend mode="normal" in="SourceGraphic" in2="effect1_dropShadow_32_10930" result="shape"/>
</filter>
<linearGradient id="paint0_linear_32_10930" x1="0" y1="1115.52" x2="2200" y2="1115.52" gradientUnits="userSpaceOnUse">
<stop stop-color="#FF5500"/>
<stop offset="0.409877" stop-color="#FF5500"/>
<stop offset="0.581981" stop-color="#FF2000"/>
<stop offset="1" stop-color="#FF2000"/>
</linearGradient>
<clipPath id="clip0_32_10930">
<rect width="22" height="22" fill="white"/>
</clipPath>
</defs>
</svg>
