<svg width="22" height="22" viewBox="0 0 22 22" fill="none" xmlns="http://www.w3.org/2000/svg">
<g clip-path="url(#clip0_32_10953)">
<path d="M16.5 0H5.5C2.46243 0 0 2.46243 0 5.5V16.5C0 19.5376 2.46243 22 5.5 22H16.5C19.5376 22 22 19.5376 22 16.5V5.5C22 2.46243 19.5376 0 16.5 0Z" fill="url(#paint0_linear_32_10953)"/>
<g filter="url(#filter0_i_32_10953)">
<path d="M16.5 1.375H5.5C3.22183 1.375 1.375 3.22183 1.375 5.5V16.5C1.375 18.7782 3.22183 20.625 5.5 20.625H16.5C18.7782 20.625 20.625 18.7782 20.625 16.5V5.5C20.625 3.22183 18.7782 1.375 16.5 1.375Z" fill="black" fill-opacity="0.7"/>
<mask id="mask0_32_10953" style="mask-type:luminance" maskUnits="userSpaceOnUse" x="4" y="4" width="14" height="14">
<path d="M17.875 4.125H4.125V17.875H17.875V4.125Z" fill="white"/>
</mask>
<g mask="url(#mask0_32_10953)">
<g filter="url(#filter1_d_32_10953)">
<path d="M11.0001 11L13.9771 12.7187L11.0001 17.875C14.797 17.875 17.875 14.797 17.875 11C17.875 9.74741 17.5383 8.57405 16.953 7.5625H11L11.0001 11Z" fill="url(#paint1_linear_32_10953)"/>
<path d="M11.0003 4.125C8.45569 4.125 6.23567 5.50846 5.04688 7.56334L8.0233 12.7188L11.0003 11.0001V7.56252H16.9534C15.7644 5.50815 13.5447 4.125 11.0003 4.125Z" fill="url(#paint2_linear_32_10953)"/>
<path d="M4.12503 11.0001C4.12503 14.797 7.20295 17.875 11 17.875L13.977 12.7188L11 11.0001L8.02299 12.7188L5.04658 7.56335C4.46155 8.57462 4.12503 9.74764 4.12503 11.0001Z" fill="url(#paint3_linear_32_10953)"/>
<path d="M14.4376 11C14.4376 12.8985 12.8985 14.4376 11 14.4376C9.10155 14.4376 7.5625 12.8985 7.5625 11C7.5625 9.10155 9.10155 7.5625 11 7.5625C12.8985 7.5625 14.4376 9.10155 14.4376 11Z" fill="white"/>
<path d="M13.7931 11C13.7931 12.5425 12.5426 13.793 11 13.793C9.45752 13.793 8.20703 12.5425 8.20703 11C8.20703 9.45752 9.45752 8.20703 11 8.20703C12.5426 8.20703 13.7931 9.45752 13.7931 11Z" fill="url(#paint4_linear_32_10953)"/>
</g>
</g>
</g>
</g>
<defs>
<filter id="filter0_i_32_10953" x="1.375" y="1.375" width="19.25" height="23.25" filterUnits="userSpaceOnUse" color-interpolation-filters="sRGB">
<feFlood flood-opacity="0" result="BackgroundImageFix"/>
<feBlend mode="normal" in="SourceGraphic" in2="BackgroundImageFix" result="shape"/>
<feColorMatrix in="SourceAlpha" type="matrix" values="0 0 0 0 0 0 0 0 0 0 0 0 0 0 0 0 0 0 127 0" result="hardAlpha"/>
<feOffset dy="4"/>
<feGaussianBlur stdDeviation="2"/>
<feComposite in2="hardAlpha" operator="arithmetic" k2="-1" k3="1"/>
<feColorMatrix type="matrix" values="0 0 0 0 0 0 0 0 0 0 0 0 0 0 0 0 0 0 0.25 0"/>
<feBlend mode="normal" in2="shape" result="effect1_innerShadow_32_10953"/>
</filter>
<filter id="filter1_d_32_10953" x="0.125" y="2.125" width="21.75" height="21.75" filterUnits="userSpaceOnUse" color-interpolation-filters="sRGB">
<feFlood flood-opacity="0" result="BackgroundImageFix"/>
<feColorMatrix in="SourceAlpha" type="matrix" values="0 0 0 0 0 0 0 0 0 0 0 0 0 0 0 0 0 0 127 0" result="hardAlpha"/>
<feOffset dy="2"/>
<feGaussianBlur stdDeviation="2"/>
<feComposite in2="hardAlpha" operator="out"/>
<feColorMatrix type="matrix" values="0 0 0 0 0 0 0 0 0 0 0 0 0 0 0 0 0 0 0.25 0"/>
<feBlend mode="normal" in2="BackgroundImageFix" result="effect1_dropShadow_32_10953"/>
<feBlend mode="normal" in="SourceGraphic" in2="effect1_dropShadow_32_10953" result="shape"/>
</filter>
<linearGradient id="paint0_linear_32_10953" x1="22" y1="0" x2="0" y2="22" gradientUnits="userSpaceOnUse">
<stop stop-color="#1971E5"/>
<stop offset="0.536458" stop-color="#4C8CF4"/>
<stop offset="1" stop-color="#9FC2FA"/>
</linearGradient>
<linearGradient id="paint1_linear_32_10953" x1="14.4522" y1="7.54832" x2="14.4375" y2="17.875" gradientUnits="userSpaceOnUse">
<stop stop-color="#AFCCFB"/>
<stop offset="1" stop-color="#8BB5F8"/>
</linearGradient>
<linearGradient id="paint2_linear_32_10953" x1="10.0033" y1="4.22974" x2="10.5715" y2="13.4686" gradientUnits="userSpaceOnUse">
<stop stop-color="#1972E7"/>
<stop offset="1" stop-color="#1969D5"/>
</linearGradient>
<linearGradient id="paint3_linear_32_10953" x1="9.05102" y1="7.56335" x2="9.05102" y2="17.875" gradientUnits="userSpaceOnUse">
<stop stop-color="#659CF6"/>
<stop offset="1" stop-color="#4285F4"/>
</linearGradient>
<linearGradient id="paint4_linear_32_10953" x1="10.9716" y1="8.21765" x2="11" y2="13.793" gradientUnits="userSpaceOnUse">
<stop stop-color="#3680F0"/>
<stop offset="1" stop-color="#2678EC"/>
</linearGradient>
<clipPath id="clip0_32_10953">
<rect width="22" height="22" fill="white"/>
</clipPath>
</defs>
</svg>
