<svg width="22" height="22" viewBox="0 0 22 22" fill="none" xmlns="http://www.w3.org/2000/svg">
<g clip-path="url(#clip0_32_10939)">
<path d="M16.5 0H5.5C2.46243 0 0 2.46243 0 5.5V16.5C0 19.5376 2.46243 22 5.5 22H16.5C19.5376 22 22 19.5376 22 16.5V5.5C22 2.46243 19.5376 0 16.5 0Z" fill="url(#paint0_radial_32_10939)"/>
<path d="M16.5 0H5.5C2.46243 0 0 2.46243 0 5.5V16.5C0 19.5376 2.46243 22 5.5 22H16.5C19.5376 22 22 19.5376 22 16.5V5.5C22 2.46243 19.5376 0 16.5 0Z" fill="url(#paint1_linear_32_10939)"/>
<g filter="url(#filter0_i_32_10939)">
<path d="M16.5 1.375H5.5C3.22183 1.375 1.375 3.22183 1.375 5.5V16.5C1.375 18.7782 3.22183 20.625 5.5 20.625H16.5C18.7782 20.625 20.625 18.7782 20.625 16.5V5.5C20.625 3.22183 18.7782 1.375 16.5 1.375Z" fill="black" fill-opacity="0.7"/>
<mask id="mask0_32_10939" style="mask-type:luminance" maskUnits="userSpaceOnUse" x="4" y="4" width="14" height="14">
<path d="M17.875 4.125H4.125V17.875H17.875V4.125Z" fill="white"/>
</mask>
<g mask="url(#mask0_32_10939)">
<g filter="url(#filter1_d_32_10939)">
<path d="M10.9993 7.56201H16.9522C16.349 6.51684 15.4812 5.64891 14.4362 5.04549C13.3911 4.44207 12.2056 4.12444 10.9988 4.12451C9.79207 4.1246 8.6066 4.44241 7.56162 5.04597C6.51663 5.64954 5.64899 6.5176 5.0459 7.56285L8.02238 12.7183L8.02503 12.7176C7.72225 12.1954 7.56246 11.6027 7.56179 10.9991C7.5611 10.3955 7.71955 9.80245 8.02118 9.27965C8.32278 8.75682 8.7569 8.32277 9.27975 8.02121C9.80259 7.71966 10.3957 7.56127 10.9993 7.56201Z" fill="url(#paint2_linear_32_10939)"/>
<path d="M13.9777 12.7181L11.0012 17.8735C12.208 17.8736 13.3935 17.5562 14.4387 16.9528C15.4838 16.3494 16.3516 15.4816 16.9549 14.4364C17.5582 13.3913 17.8758 12.2058 17.8755 10.999C17.8753 9.79224 17.5573 8.6068 16.9537 7.56189L11.0007 7.56191L11 7.56454C11.6036 7.56338 12.1968 7.72137 12.7199 8.02257C13.2429 8.32378 13.6773 8.75754 13.9793 9.28016C14.2812 9.80276 14.4401 10.3957 14.4398 10.9993C14.4395 11.6029 14.2802 12.1958 13.9777 12.7181Z" fill="url(#paint3_linear_32_10939)"/>
<path d="M8.02379 12.7196L5.04731 7.56421C4.44379 8.60921 4.12601 9.7947 4.12598 11.0015C4.12593 12.2082 4.4436 13.3937 5.04705 14.4388C5.65051 15.4838 6.51848 16.3516 7.56367 16.9548C8.60885 17.5579 9.79445 17.8753 11.0012 17.875L13.9777 12.7196L13.9758 12.7176C13.675 13.2409 13.2415 13.6757 12.7192 13.978C12.1968 14.2804 11.6039 14.4397 11.0004 14.4399C10.3968 14.4401 9.80382 14.2812 9.28123 13.9792C8.75866 13.6772 8.32493 13.2427 8.02379 12.7196Z" fill="url(#paint4_linear_32_10939)"/>
<path d="M11 14.4375C12.8985 14.4375 14.4375 12.8985 14.4375 11C14.4375 9.10152 12.8985 7.5625 11 7.5625C9.10152 7.5625 7.5625 9.10152 7.5625 11C7.5625 12.8985 9.10152 14.4375 11 14.4375Z" fill="white"/>
<path d="M11.0007 13.7214C12.5036 13.7214 13.722 12.503 13.722 11C13.722 9.49707 12.5036 8.27869 11.0007 8.27869C9.4977 8.27869 8.2793 9.49707 8.2793 11C8.2793 12.503 9.4977 13.7214 11.0007 13.7214Z" fill="#1A73E8"/>
</g>
</g>
</g>
</g>
<defs>
<filter id="filter0_i_32_10939" x="1.375" y="1.375" width="19.25" height="23.25" filterUnits="userSpaceOnUse" color-interpolation-filters="sRGB">
<feFlood flood-opacity="0" result="BackgroundImageFix"/>
<feBlend mode="normal" in="SourceGraphic" in2="BackgroundImageFix" result="shape"/>
<feColorMatrix in="SourceAlpha" type="matrix" values="0 0 0 0 0 0 0 0 0 0 0 0 0 0 0 0 0 0 127 0" result="hardAlpha"/>
<feOffset dy="4"/>
<feGaussianBlur stdDeviation="2"/>
<feComposite in2="hardAlpha" operator="arithmetic" k2="-1" k3="1"/>
<feColorMatrix type="matrix" values="0 0 0 0 0 0 0 0 0 0 0 0 0 0 0 0 0 0 0.25 0"/>
<feBlend mode="normal" in2="shape" result="effect1_innerShadow_32_10939"/>
</filter>
<filter id="filter1_d_32_10939" x="0.125977" y="2.12451" width="21.749" height="21.7505" filterUnits="userSpaceOnUse" color-interpolation-filters="sRGB">
<feFlood flood-opacity="0" result="BackgroundImageFix"/>
<feColorMatrix in="SourceAlpha" type="matrix" values="0 0 0 0 0 0 0 0 0 0 0 0 0 0 0 0 0 0 127 0" result="hardAlpha"/>
<feOffset dy="2"/>
<feGaussianBlur stdDeviation="2"/>
<feComposite in2="hardAlpha" operator="out"/>
<feColorMatrix type="matrix" values="0 0 0 0 0 0 0 0 0 0 0 0 0 0 0 0 0 0 0.25 0"/>
<feBlend mode="normal" in2="BackgroundImageFix" result="effect1_dropShadow_32_10939"/>
<feBlend mode="normal" in="SourceGraphic" in2="effect1_dropShadow_32_10939" result="shape"/>
</filter>
<radialGradient id="paint0_radial_32_10939" cx="0" cy="0" r="1" gradientUnits="userSpaceOnUse" gradientTransform="translate(11 11) rotate(135) scale(15.5564)">
<stop offset="0.140003" stop-color="#1A73E8"/>
<stop offset="0.373259" stop-color="#DB3327"/>
<stop offset="0.638316" stop-color="#FCC72D"/>
<stop offset="0.896201" stop-color="#209140"/>
</radialGradient>
<linearGradient id="paint1_linear_32_10939" x1="22" y1="0" x2="0" y2="22" gradientUnits="userSpaceOnUse">
<stop stop-color="#1971E5"/>
<stop offset="0.536458" stop-color="#4C8CF4"/>
<stop offset="1" stop-color="#9FC2FA"/>
</linearGradient>
<linearGradient id="paint2_linear_32_10939" x1="16.2096" y1="7.13301" x2="10.2564" y2="17.4442" gradientUnits="userSpaceOnUse">
<stop stop-color="#D93025"/>
<stop offset="1" stop-color="#EA4335"/>
</linearGradient>
<linearGradient id="paint3_linear_32_10939" x1="17.344" y1="8.42171" x2="5.43763" y2="8.42169" gradientUnits="userSpaceOnUse">
<stop stop-color="#FCC934"/>
<stop offset="1" stop-color="#FBBC04"/>
</linearGradient>
<linearGradient id="paint4_linear_32_10939" x1="11.7447" y1="17.4458" x2="5.79157" y2="7.13452" gradientUnits="userSpaceOnUse">
<stop stop-color="#1E8E3E"/>
<stop offset="1" stop-color="#34A853"/>
</linearGradient>
<clipPath id="clip0_32_10939">
<rect width="22" height="22" fill="white"/>
</clipPath>
</defs>
</svg>
