<svg width="22" height="22" viewBox="0 0 22 22" fill="none" xmlns="http://www.w3.org/2000/svg">
<g clip-path="url(#clip0_32_10972)">
<path d="M16.5 0H5.5C2.46243 0 0 2.46243 0 5.5V16.5C0 19.5376 2.46243 22 5.5 22H16.5C19.5376 22 22 19.5376 22 16.5V5.5C22 2.46243 19.5376 0 16.5 0Z" fill="#D3B9FF"/>
<path d="M16.5 0H5.5C2.46243 0 0 2.46243 0 5.5V16.5C0 19.5376 2.46243 22 5.5 22H16.5C19.5376 22 22 19.5376 22 16.5V5.5C22 2.46243 19.5376 0 16.5 0Z" fill="url(#paint0_linear_32_10972)"/>
<g filter="url(#filter0_i_32_10972)">
<path d="M16.5 1.375H5.5C3.22183 1.375 1.375 3.22183 1.375 5.5V16.5C1.375 18.7782 3.22183 20.625 5.5 20.625H16.5C18.7782 20.625 20.625 18.7782 20.625 16.5V5.5C20.625 3.22183 18.7782 1.375 16.5 1.375Z" fill="black" fill-opacity="0.7"/>
<g filter="url(#filter1_d_32_10972)">
<path d="M6.1875 14.6094V15.9844C6.1875 16.7438 6.8031 17.3594 7.5625 17.3594H16.5C17.2593 17.3594 17.875 16.7438 17.875 15.9844V10.1406C17.875 9.38123 17.2593 8.76562 16.5 8.76562" stroke="#8B00E7" stroke-width="2"/>
</g>
<g filter="url(#filter2_d_32_10972)">
<g filter="url(#filter3_d_32_10972)">
<path d="M8.42188 6.53125H6.53125C6.15155 6.53125 5.84375 6.83905 5.84375 7.21875V9.45312C5.84375 9.83282 6.15155 10.1406 6.53125 10.1406H8.42188C8.80157 10.1406 9.10938 9.83282 9.10938 9.45312V7.21875C9.10938 6.83905 8.80157 6.53125 8.42188 6.53125Z" fill="#D404FF"/>
</g>
<g filter="url(#filter4_d_32_10972)">
<path d="M13.4062 7.39062H11C10.6203 7.39062 10.3125 7.69843 10.3125 8.07812V11.5156C10.3125 11.8953 10.6203 12.2031 11 12.2031H13.4062C13.7859 12.2031 14.0938 11.8953 14.0938 11.5156V8.07812C14.0938 7.69843 13.7859 7.39062 13.4062 7.39062Z" fill="#D404FF"/>
</g>
<path d="M14.4375 4.64062H6.1875C5.04841 4.64062 4.125 5.56404 4.125 6.70312V12.5469C4.125 13.686 5.04841 14.6094 6.1875 14.6094H14.4375C15.5766 14.6094 16.5 13.686 16.5 12.5469V6.70312C16.5 5.56404 15.5766 4.64062 14.4375 4.64062Z" stroke="#D404FF" stroke-width="2"/>
</g>
</g>
</g>
<defs>
<filter id="filter0_i_32_10972" x="1.375" y="1.375" width="19.25" height="21.25" filterUnits="userSpaceOnUse" color-interpolation-filters="sRGB">
<feFlood flood-opacity="0" result="BackgroundImageFix"/>
<feBlend mode="normal" in="SourceGraphic" in2="BackgroundImageFix" result="shape"/>
<feColorMatrix in="SourceAlpha" type="matrix" values="0 0 0 0 0 0 0 0 0 0 0 0 0 0 0 0 0 0 127 0" result="hardAlpha"/>
<feOffset dy="2"/>
<feGaussianBlur stdDeviation="2"/>
<feComposite in2="hardAlpha" operator="arithmetic" k2="-1" k3="1"/>
<feColorMatrix type="matrix" values="0 0 0 0 0 0 0 0 0 0 0 0 0 0 0 0 0 0 0.25 0"/>
<feBlend mode="normal" in2="shape" result="effect1_innerShadow_32_10972"/>
</filter>
<filter id="filter1_d_32_10972" x="1.1875" y="5.76562" width="21.6875" height="18.5938" filterUnits="userSpaceOnUse" color-interpolation-filters="sRGB">
<feFlood flood-opacity="0" result="BackgroundImageFix"/>
<feColorMatrix in="SourceAlpha" type="matrix" values="0 0 0 0 0 0 0 0 0 0 0 0 0 0 0 0 0 0 127 0" result="hardAlpha"/>
<feOffset dy="2"/>
<feGaussianBlur stdDeviation="2"/>
<feComposite in2="hardAlpha" operator="out"/>
<feColorMatrix type="matrix" values="0 0 0 0 0 0 0 0 0 0 0 0 0 0 0 0 0 0 0.25 0"/>
<feBlend mode="normal" in2="BackgroundImageFix" result="effect1_dropShadow_32_10972"/>
<feBlend mode="normal" in="SourceGraphic" in2="effect1_dropShadow_32_10972" result="shape"/>
</filter>
<filter id="filter2_d_32_10972" x="-0.875" y="1.64062" width="22.375" height="19.9688" filterUnits="userSpaceOnUse" color-interpolation-filters="sRGB">
<feFlood flood-opacity="0" result="BackgroundImageFix"/>
<feColorMatrix in="SourceAlpha" type="matrix" values="0 0 0 0 0 0 0 0 0 0 0 0 0 0 0 0 0 0 127 0" result="hardAlpha"/>
<feOffset dy="2"/>
<feGaussianBlur stdDeviation="2"/>
<feComposite in2="hardAlpha" operator="out"/>
<feColorMatrix type="matrix" values="0 0 0 0 0 0 0 0 0 0 0 0 0 0 0 0 0 0 0.25 0"/>
<feBlend mode="normal" in2="BackgroundImageFix" result="effect1_dropShadow_32_10972"/>
<feBlend mode="normal" in="SourceGraphic" in2="effect1_dropShadow_32_10972" result="shape"/>
</filter>
<filter id="filter3_d_32_10972" x="1.84375" y="4.53125" width="11.2656" height="11.6094" filterUnits="userSpaceOnUse" color-interpolation-filters="sRGB">
<feFlood flood-opacity="0" result="BackgroundImageFix"/>
<feColorMatrix in="SourceAlpha" type="matrix" values="0 0 0 0 0 0 0 0 0 0 0 0 0 0 0 0 0 0 127 0" result="hardAlpha"/>
<feOffset dy="2"/>
<feGaussianBlur stdDeviation="2"/>
<feComposite in2="hardAlpha" operator="out"/>
<feColorMatrix type="matrix" values="0 0 0 0 0 0 0 0 0 0 0 0 0 0 0 0 0 0 0.25 0"/>
<feBlend mode="normal" in2="BackgroundImageFix" result="effect1_dropShadow_32_10972"/>
<feBlend mode="normal" in="SourceGraphic" in2="effect1_dropShadow_32_10972" result="shape"/>
</filter>
<filter id="filter4_d_32_10972" x="6.3125" y="5.39062" width="11.7812" height="12.8125" filterUnits="userSpaceOnUse" color-interpolation-filters="sRGB">
<feFlood flood-opacity="0" result="BackgroundImageFix"/>
<feColorMatrix in="SourceAlpha" type="matrix" values="0 0 0 0 0 0 0 0 0 0 0 0 0 0 0 0 0 0 127 0" result="hardAlpha"/>
<feOffset dy="2"/>
<feGaussianBlur stdDeviation="2"/>
<feComposite in2="hardAlpha" operator="out"/>
<feColorMatrix type="matrix" values="0 0 0 0 0 0 0 0 0 0 0 0 0 0 0 0 0 0 0.25 0"/>
<feBlend mode="normal" in2="BackgroundImageFix" result="effect1_dropShadow_32_10972"/>
<feBlend mode="normal" in="SourceGraphic" in2="effect1_dropShadow_32_10972" result="shape"/>
</filter>
<linearGradient id="paint0_linear_32_10972" x1="11" y1="0" x2="11" y2="22" gradientUnits="userSpaceOnUse">
<stop stop-color="#CB02C5"/>
<stop offset="0.244792" stop-color="#C101DA"/>
<stop offset="0.510417" stop-color="#B600F0"/>
<stop offset="0.744792" stop-color="#8900D9"/>
<stop offset="1" stop-color="#5800BF"/>
</linearGradient>
<clipPath id="clip0_32_10972">
<rect width="22" height="22" fill="white"/>
</clipPath>
</defs>
</svg>
