<svg width="22" height="22" viewBox="0 0 22 22" fill="none" xmlns="http://www.w3.org/2000/svg">
<g clip-path="url(#clip0_32_11054)">
<path d="M16.5 0H5.5C2.46243 0 0 2.46243 0 5.5V16.5C0 19.5376 2.46243 22 5.5 22H16.5C19.5376 22 22 19.5376 22 16.5V5.5C22 2.46243 19.5376 0 16.5 0Z" fill="url(#paint0_linear_32_11054)"/>
<path d="M16.5 0H5.5C2.46243 0 0 2.46243 0 5.5V16.5C0 19.5376 2.46243 22 5.5 22H16.5C19.5376 22 22 19.5376 22 16.5V5.5C22 2.46243 19.5376 0 16.5 0Z" fill="url(#paint1_linear_32_11054)"/>
<g filter="url(#filter0_i_32_11054)">
<path d="M16.5 1.375H5.5C3.22183 1.375 1.375 3.22183 1.375 5.5V16.5C1.375 18.7782 3.22183 20.625 5.5 20.625H16.5C18.7782 20.625 20.625 18.7782 20.625 16.5V5.5C20.625 3.22183 18.7782 1.375 16.5 1.375Z" fill="black" fill-opacity="0.7"/>
<mask id="mask0_32_11054" style="mask-type:luminance" maskUnits="userSpaceOnUse" x="2" y="2" width="18" height="18">
<path d="M19.25 2.75H2.75V19.25H19.25V2.75Z" fill="white"/>
</mask>
<g mask="url(#mask0_32_11054)">
<g filter="url(#filter1_d_32_11054)">
<path d="M17.9629 6.91115L12.8856 3.45715L3.45703 10.153L5.8456 18.5429L16.151 16.4529L17.9629 6.91115Z" fill="url(#paint2_linear_32_11054)"/>
</g>
<g filter="url(#filter2_d_32_11054)">
<path d="M17.9633 6.91115L12.886 3.45715L11.6367 6.84515V13.7516H18.5431L17.9633 6.91115Z" fill="url(#paint3_linear_32_11054)"/>
</g>
<g filter="url(#filter3_d_32_11054)">
<path d="M6.28516 6.28571H15.7137V15.7143H6.28516V6.28571Z" fill="black"/>
</g>
<path d="M7.46094 13.9323H10.9966V14.5215H7.46094V13.9323Z" fill="white"/>
<path d="M7.46387 7.45172H8.84672C9.96087 7.45172 10.7324 8.21701 10.7324 9.21487V9.22587C10.7324 10.2237 9.96245 10.9984 8.84672 10.9984H7.46387V7.45172ZM8.24959 8.15572V10.2929H8.85301C8.99472 10.3012 9.13659 10.2796 9.26938 10.2295C9.40217 10.1793 9.52291 10.1018 9.62372 10.0018C9.72454 9.9019 9.80317 9.78187 9.85449 9.64952C9.90582 9.51718 9.92868 9.3755 9.92158 9.23372V9.2243C9.92878 9.08201 9.90609 8.93978 9.85494 8.80678C9.80381 8.67379 9.72538 8.55299 9.62471 8.45217C9.52403 8.35135 9.40334 8.27273 9.27043 8.22141C9.13752 8.17007 8.99533 8.14716 8.85301 8.15416L8.24959 8.15572Z" fill="white"/>
<path d="M12.1928 8.16673H11.1133V7.44702H14.0534V8.16831L12.9738 8.16673V10.9969H12.1928V8.16673Z" fill="white"/>
</g>
</g>
</g>
<defs>
<filter id="filter0_i_32_11054" x="1.375" y="1.375" width="19.25" height="23.25" filterUnits="userSpaceOnUse" color-interpolation-filters="sRGB">
<feFlood flood-opacity="0" result="BackgroundImageFix"/>
<feBlend mode="normal" in="SourceGraphic" in2="BackgroundImageFix" result="shape"/>
<feColorMatrix in="SourceAlpha" type="matrix" values="0 0 0 0 0 0 0 0 0 0 0 0 0 0 0 0 0 0 127 0" result="hardAlpha"/>
<feOffset dy="4"/>
<feGaussianBlur stdDeviation="2"/>
<feComposite in2="hardAlpha" operator="arithmetic" k2="-1" k3="1"/>
<feColorMatrix type="matrix" values="0 0 0 0 0 0 0 0 0 0 0 0 0 0 0 0 0 0 0.25 0"/>
<feBlend mode="normal" in2="shape" result="effect1_innerShadow_32_11054"/>
</filter>
<filter id="filter1_d_32_11054" x="-0.542969" y="1.45715" width="22.5059" height="23.0858" filterUnits="userSpaceOnUse" color-interpolation-filters="sRGB">
<feFlood flood-opacity="0" result="BackgroundImageFix"/>
<feColorMatrix in="SourceAlpha" type="matrix" values="0 0 0 0 0 0 0 0 0 0 0 0 0 0 0 0 0 0 127 0" result="hardAlpha"/>
<feOffset dy="2"/>
<feGaussianBlur stdDeviation="2"/>
<feComposite in2="hardAlpha" operator="out"/>
<feColorMatrix type="matrix" values="0 0 0 0 0 0 0 0 0 0 0 0 0 0 0 0 0 0 0.25 0"/>
<feBlend mode="normal" in2="BackgroundImageFix" result="effect1_dropShadow_32_11054"/>
<feBlend mode="normal" in="SourceGraphic" in2="effect1_dropShadow_32_11054" result="shape"/>
</filter>
<filter id="filter2_d_32_11054" x="7.63672" y="1.45715" width="14.9062" height="18.2944" filterUnits="userSpaceOnUse" color-interpolation-filters="sRGB">
<feFlood flood-opacity="0" result="BackgroundImageFix"/>
<feColorMatrix in="SourceAlpha" type="matrix" values="0 0 0 0 0 0 0 0 0 0 0 0 0 0 0 0 0 0 127 0" result="hardAlpha"/>
<feOffset dy="2"/>
<feGaussianBlur stdDeviation="2"/>
<feComposite in2="hardAlpha" operator="out"/>
<feColorMatrix type="matrix" values="0 0 0 0 0 0 0 0 0 0 0 0 0 0 0 0 0 0 0.25 0"/>
<feBlend mode="normal" in2="BackgroundImageFix" result="effect1_dropShadow_32_11054"/>
<feBlend mode="normal" in="SourceGraphic" in2="effect1_dropShadow_32_11054" result="shape"/>
</filter>
<filter id="filter3_d_32_11054" x="2.28516" y="4.28571" width="17.4287" height="17.4286" filterUnits="userSpaceOnUse" color-interpolation-filters="sRGB">
<feFlood flood-opacity="0" result="BackgroundImageFix"/>
<feColorMatrix in="SourceAlpha" type="matrix" values="0 0 0 0 0 0 0 0 0 0 0 0 0 0 0 0 0 0 127 0" result="hardAlpha"/>
<feOffset dy="2"/>
<feGaussianBlur stdDeviation="2"/>
<feComposite in2="hardAlpha" operator="out"/>
<feColorMatrix type="matrix" values="0 0 0 0 0 0 0 0 0 0 0 0 0 0 0 0 0 0 0.25 0"/>
<feBlend mode="normal" in2="BackgroundImageFix" result="effect1_dropShadow_32_11054"/>
<feBlend mode="normal" in="SourceGraphic" in2="effect1_dropShadow_32_11054" result="shape"/>
</filter>
<linearGradient id="paint0_linear_32_11054" x1="11" y1="0" x2="11" y2="22" gradientUnits="userSpaceOnUse">
<stop stop-color="#3BEA62"/>
<stop offset="0.510417" stop-color="#087DF7"/>
<stop offset="1" stop-color="#6B57FF"/>
</linearGradient>
<linearGradient id="paint1_linear_32_11054" x1="-0.43614" y1="13.7454" x2="21.7987" y2="7.78018" gradientUnits="userSpaceOnUse">
<stop offset="0.12" stop-color="#6B57FF"/>
<stop offset="0.54" stop-color="#FF45ED"/>
<stop offset="0.85" stop-color="#DD1265"/>
</linearGradient>
<linearGradient id="paint2_linear_32_11054" x1="3.16945" y1="12.8826" x2="17.9048" y2="9.08128" gradientUnits="userSpaceOnUse">
<stop offset="0.12" stop-color="#6B57FF"/>
<stop offset="0.54" stop-color="#FF45ED"/>
<stop offset="0.85" stop-color="#DD1265"/>
</linearGradient>
<linearGradient id="paint3_linear_32_11054" x1="13.3527" y1="11.8423" x2="18.0388" y2="5.41828" gradientUnits="userSpaceOnUse">
<stop offset="0.19" stop-color="#DD1265"/>
<stop offset="0.29" stop-color="#DE146A"/>
<stop offset="0.41" stop-color="#E21977"/>
<stop offset="0.53" stop-color="#E7218E"/>
<stop offset="0.66" stop-color="#EF2DAD"/>
<stop offset="0.79" stop-color="#F93CD5"/>
<stop offset="0.85" stop-color="#FF45ED"/>
</linearGradient>
<clipPath id="clip0_32_11054">
<rect width="22" height="22" fill="white"/>
</clipPath>
</defs>
</svg>
