<svg width="22" height="22" viewBox="0 0 22 22" fill="none" xmlns="http://www.w3.org/2000/svg">
<g clip-path="url(#clip0_32_11072)">
<path d="M16.5 0H5.5C2.46243 0 0 2.46243 0 5.5V16.5C0 19.5376 2.46243 22 5.5 22H16.5C19.5376 22 22 19.5376 22 16.5V5.5C22 2.46243 19.5376 0 16.5 0Z" fill="url(#paint0_linear_32_11072)"/>
<g filter="url(#filter0_i_32_11072)">
<path d="M16.5 1.375H5.5C3.22183 1.375 1.375 3.22183 1.375 5.5V16.5C1.375 18.7782 3.22183 20.625 5.5 20.625H16.5C18.7782 20.625 20.625 18.7782 20.625 16.5V5.5C20.625 3.22183 18.7782 1.375 16.5 1.375Z" fill="black" fill-opacity="0.7"/>
<g filter="url(#filter1_d_32_11072)">
<path fill-rule="evenodd" clip-rule="evenodd" d="M9.28125 5.15625C9.96875 4.125 11.3438 4.125 11.3438 4.125C11.3438 4.125 11.4151 4.27156 11.3438 4.46875C11.9413 4.20037 12.7188 4.46875 12.7188 4.46875C12.7188 4.46875 12.6099 4.69819 12.375 4.8125C12.9673 5.02887 13.4062 5.5 13.4062 5.5C13.4062 5.5 13.2974 5.70795 13.0625 5.84375C13.6494 5.89899 14.0938 6.53125 14.0938 6.53125C14.0938 6.53125 13.938 6.79843 13.75 6.875C14.2388 7.08584 14.4375 7.15737 14.4375 7.56248C14.4375 7.96761 13.4062 8.59373 13.4062 8.59373C13.4062 8.59373 12.8048 7.04624 12.375 6.53125C11.9452 6.01626 11.5282 5.73616 11 5.5C10.4718 5.26384 9.28125 5.15625 9.28125 5.15625Z" fill="url(#paint1_linear_32_11072)"/>
<path fill-rule="evenodd" clip-rule="evenodd" d="M11.3438 5.84375C11.3438 5.84375 11.3438 7.90623 10.3125 8.59373C9.28125 9.28123 7.21875 9.62498 5.84375 10.3125C4.46875 11 4.125 12.0312 4.125 12.0312C4.125 12.0312 5.5 11.3437 6.1875 11.3437C6.875 11.3437 7.90625 11.6875 7.90625 11.6875C7.90625 11.6875 8.59375 11 9.625 11C10.6562 11 11.6875 11.3437 11.6875 11.3437L12.0312 7.56248L11.3438 5.84375Z" fill="url(#paint2_linear_32_11072)"/>
<path fill-rule="evenodd" clip-rule="evenodd" d="M11.6875 6.875C11.6875 6.875 11.752 8.07811 10.7207 8.76561C9.68945 9.45311 7.03534 9.87917 5.73633 10.5918C4.78557 11.1134 4.125 12.0312 4.125 12.0312C4.125 12.0312 5.5 11.3437 6.1875 11.3437C6.875 11.3437 7.90625 11.6875 7.90625 11.6875C7.90625 11.6875 8.59375 11 9.625 11C10.6562 11 11.6875 11.3437 11.6875 11.3437L12.0312 7.56248L11.6875 6.875Z" fill="url(#paint3_linear_32_11072)"/>
<path fill-rule="evenodd" clip-rule="evenodd" d="M10.6562 4.68357C10.3125 4.72654 10.3125 5.15622 10.3125 5.15622L11.3438 7.21872C12.0312 8.59372 11.6875 11.6875 9.28125 13.0625C9.28125 13.0625 9.44518 13.1428 9.70625 13.2431C8.64786 14.1104 7.07529 15.125 5.5 15.125H11.5962C12.0306 14.672 12.4034 14.1641 12.7288 13.6614C12.7484 13.5224 12.8154 13.2129 13.0625 12.7187C13.4062 12.0312 13.75 10.6562 13.75 10.6562C13.75 10.6562 14.0938 10.6562 14.4375 11C14.7247 11.2871 13.3937 12.9381 12.9275 13.4989C13.2159 13.4035 13.4949 13.2665 13.75 13.0625C15.4688 11.6875 14.5248 8.17632 13.0625 6.53122C11.6875 4.98435 11 4.6406 10.6562 4.68357Z" fill="url(#paint4_linear_32_11072)"/>
<path opacity="0.2" fill-rule="evenodd" clip-rule="evenodd" d="M11 4.8125L10.4844 5.5L11.3438 7.21875C11.5014 7.53412 11.6018 7.94231 11.6385 8.39704L13.4062 7.21875L11 4.8125Z" fill="url(#paint5_linear_32_11072)"/>
<path fill-rule="evenodd" clip-rule="evenodd" d="M11.2649 12.4935C10.5963 13.3279 10.6316 13.4243 9.69342 14.128C9.6883 14.1318 9.68245 14.1355 9.6773 14.1394L10.634 15.0813C14.0803 12.2022 11.2649 12.4935 11.2649 12.4935ZM9.39398 14.3435C9.00483 14.6194 8.57455 14.891 8.1123 15.125H10.1882L9.39398 14.3435Z" fill="#2980B9"/>
<path opacity="0.2" fill-rule="evenodd" clip-rule="evenodd" d="M9.70625 13.2431C8.64786 14.1104 7.0753 15.125 5.5 15.125H11.5962C12.0662 14.6349 12.4667 14.0804 12.81 13.5378C13.1402 13.4426 9.44518 13.1428 9.70625 13.2431Z" fill="url(#paint6_linear_32_11072)"/>
<path d="M5.5 15.125V17.875H16.5V15.125H5.5Z" fill="url(#paint7_linear_32_11072)"/>
<path d="M5.5 15.8125V17.1875H7.21875V15.8125H5.5ZM7.5625 15.8125V17.1875H9.625V15.8125H7.5625ZM9.96875 15.8125V17.1875H12.0312V15.8125H9.96875ZM12.375 15.8125V17.1875H14.4375V15.8125H12.375ZM14.7812 15.8125V17.1875H16.5V15.8125H14.7812Z" fill="url(#paint8_linear_32_11072)"/>
<path fill-rule="evenodd" clip-rule="evenodd" d="M15.4688 5.15625C15.125 5.15625 15.125 6.18748 14.0938 7.21873C13.0625 8.24998 12.7188 8.24998 12.7188 8.24998C12.7188 8.24998 13.75 8.93748 13.75 10.3125C14.7812 11 14.7812 12.375 14.7812 12.375L16.1562 8.59373L15.8125 5.84375L15.4688 5.15625Z" fill="url(#paint9_linear_32_11072)"/>
<path fill-rule="evenodd" clip-rule="evenodd" d="M15.4688 5.15625C15.125 5.15625 15.125 6.18748 14.0938 7.21873C13.0625 8.24998 12.7188 8.24998 12.7188 8.24998C12.7188 8.24998 13.75 8.93748 13.75 10.3125C13.75 11.6875 13.0625 12.7187 13.0625 12.7187L16.1562 8.59373L15.8125 5.84375L15.4688 5.15625Z" fill="url(#paint10_linear_32_11072)"/>
<path fill-rule="evenodd" clip-rule="evenodd" d="M15.4691 5.15625C14.7816 9.79688 12.9555 10.0976 12.7406 11.4297C12.5217 12.7871 13.0629 12.7187 13.0629 12.7187L16.1566 8.59373L15.8129 5.84375L15.4691 5.15625Z" fill="url(#paint11_linear_32_11072)"/>
<path fill-rule="evenodd" clip-rule="evenodd" d="M15.4688 5.15625C15.8125 5.15625 16.8438 7.21873 16.5 10.3125C16.1563 13.4062 14.4375 14.0937 14.4375 14.0937C14.4375 14.0937 12.0313 13.75 11.3438 13.75C10.6563 13.75 10.3125 14.0937 10.3125 14.0937C10.3125 14.0937 9.28125 13.4062 7.90625 13.4062C6.53125 13.4062 4.8125 14.7812 4.8125 14.7812C4.8125 14.7812 5.15625 13.4062 7.21875 12.7187C9.28125 12.0312 12.6497 12.6641 13.75 11.3437C17.1875 7.21873 15.125 5.15625 15.4688 5.15625Z" fill="url(#paint12_linear_32_11072)"/>
<path fill-rule="evenodd" clip-rule="evenodd" d="M10.3129 6.53127C9.58372 6.77434 8.59418 6.53127 8.25043 6.87502L7.90668 7.21876C7.90668 7.21876 7.56293 6.53127 7.90668 6.18752C8.25043 5.84377 8.93793 5.84377 9.28168 5.15627C9.62543 4.46877 10.6567 4.46877 11.0004 4.81252C11.6879 5.50002 11.3442 6.18752 10.3129 6.53127Z" fill="url(#paint13_linear_32_11072)"/>
<path fill-rule="evenodd" clip-rule="evenodd" d="M10.7207 8.7656C9.68945 9.4531 7.03534 9.87915 5.73633 10.5918C4.78557 11.1133 4.125 12.0312 4.125 12.0312C4.125 12.0312 5.5 11.3437 6.1875 11.3437C6.875 11.3437 7.90625 11.6875 7.90625 11.6875C7.90625 11.6875 11.752 8.0781 10.7207 8.7656Z" fill="url(#paint14_linear_32_11072)"/>
</g>
</g>
</g>
<defs>
<filter id="filter0_i_32_11072" x="1.375" y="1.375" width="19.25" height="23.25" filterUnits="userSpaceOnUse" color-interpolation-filters="sRGB">
<feFlood flood-opacity="0" result="BackgroundImageFix"/>
<feBlend mode="normal" in="SourceGraphic" in2="BackgroundImageFix" result="shape"/>
<feColorMatrix in="SourceAlpha" type="matrix" values="0 0 0 0 0 0 0 0 0 0 0 0 0 0 0 0 0 0 127 0" result="hardAlpha"/>
<feOffset dy="4"/>
<feGaussianBlur stdDeviation="2"/>
<feComposite in2="hardAlpha" operator="arithmetic" k2="-1" k3="1"/>
<feColorMatrix type="matrix" values="0 0 0 0 0 0 0 0 0 0 0 0 0 0 0 0 0 0 0.25 0"/>
<feBlend mode="normal" in2="shape" result="effect1_innerShadow_32_11072"/>
</filter>
<filter id="filter1_d_32_11072" x="0.125" y="2.125" width="20.4443" height="21.75" filterUnits="userSpaceOnUse" color-interpolation-filters="sRGB">
<feFlood flood-opacity="0" result="BackgroundImageFix"/>
<feColorMatrix in="SourceAlpha" type="matrix" values="0 0 0 0 0 0 0 0 0 0 0 0 0 0 0 0 0 0 127 0" result="hardAlpha"/>
<feOffset dy="2"/>
<feGaussianBlur stdDeviation="2"/>
<feComposite in2="hardAlpha" operator="out"/>
<feColorMatrix type="matrix" values="0 0 0 0 0 0 0 0 0 0 0 0 0 0 0 0 0 0 0.25 0"/>
<feBlend mode="normal" in2="BackgroundImageFix" result="effect1_dropShadow_32_11072"/>
<feBlend mode="normal" in="SourceGraphic" in2="effect1_dropShadow_32_11072" result="shape"/>
</filter>
<linearGradient id="paint0_linear_32_11072" x1="22" y1="-1470.69" x2="11" y2="-1470.69" gradientUnits="userSpaceOnUse">
<stop stop-color="#2F3943"/>
<stop offset="1" stop-color="#808C9B"/>
</linearGradient>
<linearGradient id="paint1_linear_32_11072" x1="13.8388" y1="7.66585" x2="13.75" y2="4.125" gradientUnits="userSpaceOnUse">
<stop stop-color="#197CF1"/>
<stop offset="1" stop-color="#21C9FB"/>
</linearGradient>
<linearGradient id="paint2_linear_32_11072" x1="11.7361" y1="7.29678" x2="5.34689" y2="11.0947" gradientUnits="userSpaceOnUse">
<stop stop-color="#197CF1"/>
<stop offset="1" stop-color="#21C9FB"/>
</linearGradient>
<linearGradient id="paint3_linear_32_11072" x1="10.3984" y1="9.25975" x2="12.0957" y2="10.957" gradientUnits="userSpaceOnUse">
<stop stop-color="#18222A"/>
<stop offset="1" stop-color="#566069"/>
</linearGradient>
<linearGradient id="paint4_linear_32_11072" x1="-129.446" y1="12.7187" x2="-129.446" y2="3.78122" gradientUnits="userSpaceOnUse">
<stop stop-color="#2F3943"/>
<stop offset="1" stop-color="#808C9B"/>
</linearGradient>
<linearGradient id="paint5_linear_32_11072" x1="10.6563" y1="5.84375" x2="12.0313" y2="7.90625" gradientUnits="userSpaceOnUse">
<stop/>
<stop offset="1" stop-opacity="0"/>
</linearGradient>
<linearGradient id="paint6_linear_32_11072" x1="9.28125" y1="13.4062" x2="11.3438" y2="15.4687" gradientUnits="userSpaceOnUse">
<stop/>
<stop offset="1" stop-opacity="0"/>
</linearGradient>
<linearGradient id="paint7_linear_32_11072" x1="16.5" y1="-168.712" x2="11" y2="-168.712" gradientUnits="userSpaceOnUse">
<stop stop-color="#2F3943"/>
<stop offset="1" stop-color="#808C9B"/>
</linearGradient>
<linearGradient id="paint8_linear_32_11072" x1="16.5" y1="3.09375" x2="11" y2="3.09375" gradientUnits="userSpaceOnUse">
<stop stop-color="#197CF1"/>
<stop offset="1" stop-color="#21C9FB"/>
</linearGradient>
<linearGradient id="paint9_linear_32_11072" x1="-129.446" y1="12.7187" x2="-129.446" y2="3.78125" gradientUnits="userSpaceOnUse">
<stop stop-color="#2F3943"/>
<stop offset="1" stop-color="#808C9B"/>
</linearGradient>
<linearGradient id="paint10_linear_32_11072" x1="15.4687" y1="5.15625" x2="13.0625" y2="8.59373" gradientUnits="userSpaceOnUse">
<stop stop-color="#18222A"/>
<stop offset="1" stop-color="#18222A" stop-opacity="0"/>
</linearGradient>
<linearGradient id="paint11_linear_32_11072" x1="15.2543" y1="6.12305" x2="16.5971" y2="7.4658" gradientUnits="userSpaceOnUse">
<stop stop-color="#18222A"/>
<stop offset="1" stop-color="#18222A" stop-opacity="0"/>
</linearGradient>
<linearGradient id="paint12_linear_32_11072" x1="16.1563" y1="12.375" x2="12.0313" y2="9.45311" gradientUnits="userSpaceOnUse">
<stop stop-color="#197CF1"/>
<stop offset="1" stop-color="#21C9FB"/>
</linearGradient>
<linearGradient id="paint13_linear_32_11072" x1="-129.446" y1="7.21876" x2="-129.446" y2="3.43752" gradientUnits="userSpaceOnUse">
<stop stop-color="#2F3943"/>
<stop offset="1" stop-color="#808C9B"/>
</linearGradient>
<linearGradient id="paint14_linear_32_11072" x1="8.07812" y1="9.45309" x2="9.85059" y2="11.2255" gradientUnits="userSpaceOnUse">
<stop stop-color="#18222A"/>
<stop offset="1" stop-color="#566069"/>
</linearGradient>
<clipPath id="clip0_32_11072">
<rect width="22" height="22" fill="white"/>
</clipPath>
</defs>
</svg>
