<svg width="22" height="22" viewBox="0 0 22 22" fill="none" xmlns="http://www.w3.org/2000/svg">
<g clip-path="url(#clip0_32_11092)">
<path d="M16.5 0H5.5C2.46243 0 0 2.46243 0 5.5V16.5C0 19.5376 2.46243 22 5.5 22H16.5C19.5376 22 22 19.5376 22 16.5V5.5C22 2.46243 19.5376 0 16.5 0Z" fill="url(#paint0_linear_32_11092)"/>
<g filter="url(#filter0_i_32_11092)">
<path d="M16.5 1.375H5.5C3.22183 1.375 1.375 3.22183 1.375 5.5V16.5C1.375 18.7782 3.22183 20.625 5.5 20.625H16.5C18.7782 20.625 20.625 18.7782 20.625 16.5V5.5C20.625 3.22183 18.7782 1.375 16.5 1.375Z" fill="black" fill-opacity="0.7"/>
<g filter="url(#filter1_d_32_11092)">
<path d="M5.15623 5.5C4.53771 5.5 4.125 5.91334 4.125 6.53123V15.4686C4.125 16.0865 4.54039 16.4999 5.15623 16.4999H16.8436C17.2177 16.4999 17.8748 16.0874 17.8748 15.4686V6.53123C17.8748 5.91241 17.4608 5.5 16.8436 5.5H5.15623ZM7.9062 9.62495C8.47576 9.62495 8.93743 10.0866 8.93743 10.6562C8.93743 11.2257 8.47576 11.6874 7.9062 11.6874C7.33666 11.6874 6.87497 11.2257 6.87497 10.6562C6.87497 10.0866 7.33666 9.62495 7.9062 9.62495ZM14.0936 9.62495C14.6632 9.62495 15.1249 10.0866 15.1249 10.6562C15.1249 11.2257 14.6632 11.6874 14.0936 11.6874C13.5241 11.6874 13.0624 11.2257 13.0624 10.6562C13.0624 10.0866 13.5241 9.62495 14.0936 9.62495Z" fill="#141414"/>
<path d="M5.15527 7.22675L5.15529 13.0705C5.15529 13.414 5.49908 13.758 5.84277 13.758H16.1553C16.4992 13.758 16.8428 13.4157 16.8428 13.0705V7.22675C16.8428 6.88344 16.5006 6.53925 16.1553 6.53925H5.84277C5.49859 6.53925 5.15527 6.88167 5.15527 7.22675ZM7.90532 9.63301C8.47487 9.63301 8.93657 10.0947 8.93657 10.6643C8.93657 11.2338 8.47487 11.6955 7.90532 11.6955C7.33577 11.6955 6.87407 11.2338 6.87407 10.6643C6.87407 10.0947 7.33577 9.63301 7.90532 9.63301ZM14.0928 9.63301C14.6624 9.63301 15.1241 10.0947 15.1241 10.6643C15.1241 11.2338 14.6624 11.6955 14.0928 11.6955C13.5233 11.6955 13.0616 11.2338 13.0616 10.6643C13.0616 10.0947 13.5233 9.63301 14.0928 9.63301Z" fill="#58BEB1"/>
<path d="M5.15625 16.5087L6.53122 14.1024H15.4687L16.8437 16.5087H5.15625Z" fill="#3F3F3F"/>
<path d="M7.90625 15.819C8.28594 15.819 8.59375 15.5113 8.59375 15.1315C8.59375 14.7519 8.28594 14.444 7.90625 14.444C7.52654 14.444 7.21875 14.7519 7.21875 15.1315C7.21875 15.5113 7.52654 15.819 7.90625 15.819Z" fill="#141414"/>
<path d="M14.0938 15.819C14.4735 15.819 14.7812 15.5113 14.7812 15.1315C14.7812 14.7519 14.4735 14.444 14.0938 14.444C13.7141 14.444 13.4062 14.7519 13.4062 15.1315C13.4062 15.5113 13.7141 15.819 14.0938 15.819Z" fill="#141414"/>
<path d="M7.90634 9.28511C7.14959 9.28511 6.53125 9.90434 6.53125 10.6591C6.53125 11.4157 7.1484 12.0341 7.90634 12.0341H14.0938C14.8484 12.0341 15.4688 11.4163 15.4688 10.6611V10.6585C15.4688 9.90324 14.8484 9.28339 14.0938 9.28351L7.90634 9.28511ZM7.90634 9.62784C8.47588 9.62784 8.93759 10.0896 8.93759 10.6591C8.93759 11.2286 8.47588 11.6903 7.90634 11.6903C7.33678 11.6903 6.87507 11.2286 6.87507 10.6591C6.87507 10.0896 7.33678 9.62784 7.90634 9.62784ZM14.0938 9.62784C14.6634 9.62784 15.1251 10.0896 15.1251 10.6591C15.1251 11.2286 14.6634 11.6903 14.0938 11.6903C13.5243 11.6903 13.0626 11.2286 13.0626 10.6591C13.0626 10.0896 13.5243 9.62784 14.0938 9.62784Z" fill="#141414"/>
<path d="M12.7187 9.97363H9.28125V11.3486H12.7187V9.97363Z" fill="#DBE2E3"/>
</g>
</g>
</g>
<defs>
<filter id="filter0_i_32_11092" x="1.375" y="1.375" width="19.25" height="23.25" filterUnits="userSpaceOnUse" color-interpolation-filters="sRGB">
<feFlood flood-opacity="0" result="BackgroundImageFix"/>
<feBlend mode="normal" in="SourceGraphic" in2="BackgroundImageFix" result="shape"/>
<feColorMatrix in="SourceAlpha" type="matrix" values="0 0 0 0 0 0 0 0 0 0 0 0 0 0 0 0 0 0 127 0" result="hardAlpha"/>
<feOffset dy="4"/>
<feGaussianBlur stdDeviation="2"/>
<feComposite in2="hardAlpha" operator="arithmetic" k2="-1" k3="1"/>
<feColorMatrix type="matrix" values="0 0 0 0 0 0 0 0 0 0 0 0 0 0 0 0 0 0 0.25 0"/>
<feBlend mode="normal" in2="shape" result="effect1_innerShadow_32_11092"/>
</filter>
<filter id="filter1_d_32_11092" x="0.125" y="3.5" width="21.75" height="19.0087" filterUnits="userSpaceOnUse" color-interpolation-filters="sRGB">
<feFlood flood-opacity="0" result="BackgroundImageFix"/>
<feColorMatrix in="SourceAlpha" type="matrix" values="0 0 0 0 0 0 0 0 0 0 0 0 0 0 0 0 0 0 127 0" result="hardAlpha"/>
<feOffset dy="2"/>
<feGaussianBlur stdDeviation="2"/>
<feComposite in2="hardAlpha" operator="out"/>
<feColorMatrix type="matrix" values="0 0 0 0 0 0 0 0 0 0 0 0 0 0 0 0 0 0 0.25 0"/>
<feBlend mode="normal" in2="BackgroundImageFix" result="effect1_dropShadow_32_11092"/>
<feBlend mode="normal" in="SourceGraphic" in2="effect1_dropShadow_32_11092" result="shape"/>
</filter>
<linearGradient id="paint0_linear_32_11092" x1="10.9331" y1="22.0168" x2="10.9331" y2="-0.014249" gradientUnits="userSpaceOnUse">
<stop stop-color="#2CA0B9"/>
<stop offset="1" stop-color="#87DEAA"/>
</linearGradient>
<clipPath id="clip0_32_11092">
<rect width="22" height="22" fill="white"/>
</clipPath>
</defs>
</svg>
