<svg width="22" height="22" viewBox="0 0 22 22" fill="none" xmlns="http://www.w3.org/2000/svg">
<g clip-path="url(#clip0_32_11110)">
<path d="M16.5 0H5.5C2.46243 0 0 2.46243 0 5.5V16.5C0 19.5376 2.46243 22 5.5 22H16.5C19.5376 22 22 19.5376 22 16.5V5.5C22 2.46243 19.5376 0 16.5 0Z" fill="url(#paint0_linear_32_11110)"/>
<g filter="url(#filter0_i_32_11110)">
<path d="M16.5 1.375H5.5C3.22183 1.375 1.375 3.22183 1.375 5.5V16.5C1.375 18.7782 3.22183 20.625 5.5 20.625H16.5C18.7782 20.625 20.625 18.7782 20.625 16.5V5.5C20.625 3.22183 18.7782 1.375 16.5 1.375Z" fill="black" fill-opacity="0.7"/>
<path d="M11.0772 17.6832C14.8219 17.6832 17.8576 14.6481 17.8576 10.9041C17.8576 7.16011 14.8219 4.125 11.0772 4.125C7.33255 4.125 4.29688 7.16011 4.29688 10.9041C4.29688 14.6481 7.33255 17.6832 11.0772 17.6832Z" fill="url(#paint1_linear_32_11110)"/>
<path opacity="0.4" d="M16.2386 9.35243L10.3079 6.77911L7.33162 6.94549L8.95116 8.58174L6.08008 12.4249L6.61495 12.9666L7.25531 13.9979L7.09692 16.3838C7.18551 16.4487 7.27564 16.5114 7.36723 16.5719L15.4066 16.1112L15.408 16.1126C16.9336 14.8449 17.8272 12.9728 17.8537 10.9894L16.2386 9.35243Z" fill="url(#paint2_linear_32_11110)"/>
<path fill-rule="evenodd" clip-rule="evenodd" d="M6.66575 17.5316C6.66575 17.5316 8.78456 9.9818 17.0325 10.9419C17.0325 10.9419 11.7906 7.7732 6.70205 12.045C5.19884 15.5897 6.66575 17.5316 6.66575 17.5316Z" fill="url(#paint3_linear_32_11110)"/>
<path fill-rule="evenodd" clip-rule="evenodd" d="M7.29688 16.5767C7.29688 16.5767 9.5076 11.1489 15.4092 11.0536C10.9233 12.1664 15.4166 16.1116 15.4166 16.1116C15.4166 16.1116 11.8682 19.3851 7.29688 16.5767Z" fill="url(#paint4_linear_32_11110)"/>
<path fill-rule="evenodd" clip-rule="evenodd" d="M6.06543 12.4159C6.06543 12.4159 10.4814 7.47001 17.0759 10.8872C16.9579 9.95773 16.1778 8.9086 14.7797 8.60885C14.4704 8.45898 12.2037 4.89189 7.33155 6.9451C8.83035 7.06404 9.47342 7.27785 9.51004 7.4401C6.91776 6.98635 6.14953 10.7422 6.06543 12.4159Z" fill="url(#paint5_linear_32_11110)"/>
<path fill-rule="evenodd" clip-rule="evenodd" d="M12.3984 8.2201C12.3984 8.2201 13.5282 7.80828 13.6754 9.03375C12.5612 9.14032 12.3984 8.2201 12.3984 8.2201Z" fill="#202020"/>
<path fill-rule="evenodd" clip-rule="evenodd" d="M6.63668 17.5557C6.63668 17.5557 8.56792 11.1406 15.0257 10.8921C15.0257 10.8921 9.78555 9.91858 6.08451 15.8881C6.06416 16.7327 6.63668 17.556 6.63668 17.556V17.5557Z" fill="#FDD664"/>
<path fill-rule="evenodd" clip-rule="evenodd" d="M7.33691 6.94579C7.33691 6.94579 8.94798 7.04135 9.52287 7.44423C9.76302 7.3937 9.9672 7.22629 10.0015 6.99839C9.79557 6.91142 7.90979 6.75535 7.33726 6.94579H7.33691Z" fill="url(#paint6_linear_32_11110)"/>
<path fill-rule="evenodd" clip-rule="evenodd" d="M7.33691 6.94579C7.33691 6.94579 8.94798 7.04135 9.52287 7.44423C9.76302 7.3937 9.9672 7.22629 10.0015 6.99839C9.79557 6.91142 7.90979 6.75535 7.33726 6.94579H7.33691Z" fill="#FDD664"/>
<path fill-rule="evenodd" clip-rule="evenodd" d="M6.08032 12.4245C6.08032 12.4245 8.09703 9.95811 12.1678 9.66351C12.1678 9.66351 6.62569 9.91858 6.16103 11.5119C6.03147 11.8951 6.08032 12.4245 6.08032 12.4245Z" fill="#FDD664"/>
</g>
</g>
<defs>
<filter id="filter0_i_32_11110" x="1.375" y="1.375" width="19.25" height="23.25" filterUnits="userSpaceOnUse" color-interpolation-filters="sRGB">
<feFlood flood-opacity="0" result="BackgroundImageFix"/>
<feBlend mode="normal" in="SourceGraphic" in2="BackgroundImageFix" result="shape"/>
<feColorMatrix in="SourceAlpha" type="matrix" values="0 0 0 0 0 0 0 0 0 0 0 0 0 0 0 0 0 0 127 0" result="hardAlpha"/>
<feOffset dy="4"/>
<feGaussianBlur stdDeviation="2"/>
<feComposite in2="hardAlpha" operator="arithmetic" k2="-1" k3="1"/>
<feColorMatrix type="matrix" values="0 0 0 0 0 0 0 0 0 0 0 0 0 0 0 0 0 0 0.25 0"/>
<feBlend mode="normal" in2="shape" result="effect1_innerShadow_32_11110"/>
</filter>
<linearGradient id="paint0_linear_32_11110" x1="33.0344" y1="-6.08119" x2="-4.87432" y2="21.9909" gradientUnits="userSpaceOnUse">
<stop stop-color="#D446FF"/>
<stop offset="1" stop-color="#A0D8FF"/>
</linearGradient>
<linearGradient id="paint1_linear_32_11110" x1="24.6593" y1="0.377277" x2="1.29548" y2="17.6818" gradientUnits="userSpaceOnUse">
<stop stop-color="#D446FF"/>
<stop offset="1" stop-color="#A0D8FF"/>
</linearGradient>
<linearGradient id="paint2_linear_32_11110" x1="10.9862" y1="10.9041" x2="17.8606" y2="17.687" gradientUnits="userSpaceOnUse">
<stop stop-color="#292C2F"/>
<stop offset="1" stop-opacity="0"/>
</linearGradient>
<linearGradient id="paint3_linear_32_11110" x1="10.6266" y1="11.4221" x2="15.4212" y2="7.71342" gradientUnits="userSpaceOnUse">
<stop stop-color="white"/>
<stop offset="1" stop-color="#DADADA"/>
</linearGradient>
<linearGradient id="paint4_linear_32_11110" x1="11.5417" y1="15.7532" x2="8.42049" y2="11.0434" gradientUnits="userSpaceOnUse">
<stop stop-color="white"/>
<stop offset="1" stop-color="#DADADA"/>
</linearGradient>
<linearGradient id="paint5_linear_32_11110" x1="16.9308" y1="7.10368" x2="11.8131" y2="11.1584" gradientUnits="userSpaceOnUse">
<stop stop-color="#D0D0D0"/>
<stop offset="1" stop-color="white"/>
</linearGradient>
<linearGradient id="paint6_linear_32_11110" x1="9.88716" y1="6.86922" x2="8.82172" y2="8.33947" gradientUnits="userSpaceOnUse">
<stop stop-color="#FFDC68"/>
<stop offset="1" stop-color="#CE4300"/>
</linearGradient>
<clipPath id="clip0_32_11110">
<rect width="22" height="22" fill="white"/>
</clipPath>
</defs>
</svg>
