<svg width="22" height="22" viewBox="0 0 22 22" fill="none" xmlns="http://www.w3.org/2000/svg">
<g clip-path="url(#clip0_32_11124)">
<path d="M16.5 0H5.5C2.46243 0 0 2.46243 0 5.5V16.5C0 19.5376 2.46243 22 5.5 22H16.5C19.5376 22 22 19.5376 22 16.5V5.5C22 2.46243 19.5376 0 16.5 0Z" fill="url(#paint0_linear_32_11124)"/>
<g filter="url(#filter0_i_32_11124)">
<path d="M16.5 1.375H5.5C3.22183 1.375 1.375 3.22183 1.375 5.5V16.5C1.375 18.7782 3.22183 20.625 5.5 20.625H16.5C18.7782 20.625 20.625 18.7782 20.625 16.5V5.5C20.625 3.22183 18.7782 1.375 16.5 1.375Z" fill="black" fill-opacity="0.7"/>
<g filter="url(#filter1_d_32_11124)">
<path d="M17.1059 8.77881C16.8195 8.09466 16.2387 7.35598 15.7838 7.12247C16.1082 7.74615 16.3333 8.41595 16.4512 9.10805L16.4524 9.11902C15.7073 7.27528 14.4442 6.53068 13.4121 4.91148C13.3599 4.8296 13.3076 4.74755 13.2568 4.66092C13.2277 4.61146 13.2044 4.56687 13.1842 4.52585C13.1414 4.44355 13.1084 4.35657 13.0859 4.26668C13.0859 4.26254 13.0844 4.25851 13.0817 4.2554C13.0789 4.25229 13.0751 4.2503 13.0709 4.2498C13.0669 4.24868 13.0626 4.24868 13.0585 4.2498C13.0577 4.2498 13.0563 4.25131 13.0553 4.25166C13.0543 4.252 13.0521 4.25351 13.0505 4.25418L13.0531 4.2498C11.3977 5.2122 10.8357 6.99347 10.7847 7.88496C10.1234 7.92999 9.49112 8.17187 8.97035 8.57907C8.91604 8.53339 8.85929 8.49066 8.80032 8.4511C8.65017 7.92918 8.64376 7.37684 8.78177 6.85164C8.17385 7.14406 7.63368 7.55858 7.19545 8.069H7.19239C6.93119 7.74027 6.94957 6.65631 6.96454 6.42988C6.88726 6.46071 6.81351 6.49959 6.7445 6.54588C6.51392 6.70928 6.29837 6.89262 6.10037 7.09376C5.87475 7.32091 5.66867 7.56642 5.4843 7.82772C5.06064 8.42401 4.76012 9.09753 4.60009 9.80977L4.59124 9.85298C4.57883 9.91055 4.5341 10.1989 4.52646 10.2616C4.52646 10.2665 4.52544 10.271 4.52493 10.2759C4.46723 10.5737 4.4315 10.8752 4.41797 11.178V11.2118C4.42087 12.8493 5.04196 14.4263 6.15858 15.6313C7.27522 16.8364 8.80626 17.582 10.4495 17.721C12.0927 17.8599 13.7287 17.3822 15.0345 16.382C16.3403 15.3818 17.221 13.9319 17.5028 12.3184C17.5138 12.234 17.5228 12.1504 17.5328 12.0651C17.6684 10.9511 17.5214 9.82106 17.1052 8.7778L17.1059 8.77881ZM9.51007 13.9015C9.54086 13.9162 9.56975 13.932 9.60139 13.946L9.60598 13.9489C9.57401 13.9337 9.54204 13.9179 9.51007 13.9015ZM16.4526 9.12089V9.11464L16.4538 9.12156L16.4526 9.12089Z" fill="url(#paint1_linear_32_11124)"/>
</g>
<path d="M17.1065 8.77878C16.8201 8.09463 16.2393 7.35595 15.7844 7.12244C16.1088 7.74612 16.3339 8.41592 16.4518 9.10802V9.11426L16.453 9.12119C16.9611 10.5646 16.8876 12.1472 16.2479 13.5381C15.4926 15.1473 13.665 16.7967 10.8032 16.7157C7.71177 16.6287 4.98769 14.3502 4.47927 11.3668C4.3866 10.8962 4.47927 10.6576 4.52587 10.2752C4.46231 10.5723 4.42683 10.8746 4.41992 11.1782V11.212C4.42283 12.8495 5.04391 14.4264 6.16053 15.6315C7.27717 16.8365 8.80822 17.5821 10.4514 17.7211C12.0947 17.86 13.7306 17.3824 15.0365 16.3821C16.3422 15.3819 17.223 13.932 17.5047 12.3185C17.5158 12.2341 17.5248 12.1506 17.5347 12.0653C17.6703 10.9512 17.5234 9.8212 17.1072 8.77794L17.1065 8.77878Z" fill="url(#paint2_radial_32_11124)"/>
<path d="M13.9031 9.54703C13.9174 9.557 13.9307 9.56695 13.9441 9.57692C13.7786 9.28544 13.5725 9.01859 13.3319 8.7842C11.2829 6.74966 12.7951 4.37406 13.05 4.25249L13.0526 4.24878C11.3972 5.21118 10.8352 6.99245 10.7842 7.88394C10.861 7.87871 10.9372 7.87228 11.0158 7.87228C11.6031 7.87342 12.1796 8.02895 12.6868 8.32304C13.1939 8.61714 13.6136 9.03933 13.9031 9.54669V9.54703Z" fill="#FF980E"/>
<path d="M11.0187 9.95394C11.0078 10.1167 10.4286 10.6781 10.2261 10.6781C8.35222 10.6781 8.04785 11.8038 8.04785 11.8038C8.13083 12.7516 8.79604 13.5327 9.60018 13.9447C9.6369 13.9636 9.67415 13.9806 9.71138 13.9974C9.77588 14.0257 9.84039 14.052 9.90489 14.076C10.1809 14.173 10.4699 14.2284 10.7624 14.2403C14.0476 14.3933 14.6836 10.3401 12.3131 9.16325C12.8722 9.09101 13.4385 9.22753 13.9021 9.54635C13.6126 9.03898 13.1929 8.61679 12.6857 8.32269C12.1786 8.0286 11.6021 7.87307 11.0148 7.87195C10.9365 7.87195 10.86 7.87836 10.7832 7.8836C10.1219 7.92862 9.48957 8.1705 8.96881 8.5777C9.0693 8.66213 9.18273 8.77491 9.42163 9.00876C9.86885 9.44622 11.0158 9.8994 11.0183 9.95258L11.0187 9.95394Z" fill="#6B3DD7"/>
<path d="M8.6622 8.36177C8.71559 8.39555 8.75962 8.42492 8.79823 8.45142C8.64808 7.92953 8.64168 7.37719 8.7797 6.85199C8.17177 7.14438 7.63159 7.55891 7.19336 8.06935C7.2255 8.06849 8.18149 8.05144 8.6622 8.36177Z" fill="#FF7139"/>
<path d="M17.1065 8.77878C16.8201 8.09463 16.2393 7.35595 15.7844 7.12244C16.1088 7.74612 16.3339 8.41592 16.4518 9.10802V9.11426L16.453 9.12119C16.9611 10.5646 16.8876 12.1472 16.2479 13.5381C15.4926 15.1473 13.665 16.7967 10.8032 16.7157C7.71177 16.6287 4.98769 14.3502 4.47927 11.3668C4.3866 10.8962 4.47927 10.6576 4.52587 10.2752C4.46231 10.5723 4.42683 10.8746 4.41992 11.1782V11.212C4.42283 12.8495 5.04391 14.4264 6.16053 15.6315C7.27717 16.8365 8.80822 17.5821 10.4514 17.7211C12.0947 17.86 13.7306 17.3824 15.0365 16.3821C16.3422 15.3819 17.223 13.932 17.5047 12.3185C17.5158 12.2341 17.5248 12.1506 17.5347 12.0653C17.6703 10.9512 17.5234 9.82118 17.1072 8.77794L17.1065 8.77878Z" fill="#FF3647"/>
<path d="M17.1065 8.77878C16.8201 8.09463 16.2393 7.35595 15.7844 7.12244C16.1088 7.74612 16.3339 8.41592 16.4518 9.10802V9.11426L16.453 9.12119C16.9611 10.5646 16.8876 12.1472 16.2479 13.5381C15.4926 15.1473 13.665 16.7967 10.8032 16.7157C7.71177 16.6287 4.98769 14.3502 4.47927 11.3668C4.3866 10.8962 4.47927 10.6576 4.52587 10.2752C4.46231 10.5723 4.42683 10.8746 4.41992 11.1782V11.212C4.42283 12.8495 5.04391 14.4264 6.16053 15.6315C7.27717 16.8365 8.80822 17.5821 10.4514 17.7211C12.0947 17.86 13.7306 17.3824 15.0365 16.3821C16.3422 15.3819 17.223 13.932 17.5047 12.3185C17.5158 12.2341 17.5248 12.1506 17.5347 12.0653C17.6703 10.9512 17.5234 9.82118 17.1072 8.77794L17.1065 8.77878Z" fill="black" fill-opacity="0.2"/>
<path d="M17.1065 8.77878C16.8201 8.09463 16.2393 7.35595 15.7844 7.12244C16.1088 7.74612 16.3339 8.41592 16.4518 9.10802V9.11426L16.453 9.12119C16.9611 10.5646 16.8876 12.1472 16.2479 13.5381C15.4926 15.1473 13.665 16.7967 10.8032 16.7157C7.71177 16.6287 4.98769 14.3502 4.47927 11.3668C4.3866 10.8962 4.47927 10.6576 4.52587 10.2752C4.46231 10.5723 4.42683 10.8746 4.41992 11.1782V11.212C4.42283 12.8495 5.04391 14.4264 6.16053 15.6315C7.27717 16.8365 8.80822 17.5821 10.4514 17.7211C12.0947 17.86 13.7306 17.3824 15.0365 16.3821C16.3422 15.3819 17.223 13.932 17.5047 12.3185C17.5158 12.2341 17.5248 12.1506 17.5347 12.0653C17.6703 10.9512 17.5234 9.82118 17.1072 8.77794L17.1065 8.77878Z" fill="#FF5634"/>
<path d="M4.47751 11.3672C4.9861 14.3506 7.71001 16.63 10.8014 16.7161C13.6632 16.7965 15.4912 15.1469 16.2462 13.5385C16.8858 12.1476 16.9593 10.565 16.4512 9.12159V9.11533C16.4512 9.11044 16.4502 9.10756 16.4512 9.10909L16.4524 9.12006C16.6862 10.6358 15.9098 12.1035 14.6959 13.098L14.6922 13.1064C12.3268 15.0194 10.0636 14.2603 9.60617 13.9506C9.5742 13.9354 9.54223 13.9196 9.51026 13.9032C8.13138 13.2488 7.56156 12.002 7.68401 10.9316C7.35669 10.9364 7.03499 10.8468 6.75791 10.6737C6.48081 10.5007 6.26021 10.2515 6.12283 9.95651C6.48482 9.73634 6.89756 9.61185 7.32173 9.59495C7.7459 9.57804 8.16735 9.66927 8.54594 9.85993C9.32632 10.2116 10.2143 10.2463 11.0201 9.95651C11.0175 9.90333 9.87058 9.44997 9.42336 9.01267C9.18446 8.77884 9.07104 8.66622 8.97054 8.58163C8.91623 8.53594 8.85948 8.49323 8.80051 8.45365C8.76139 8.42713 8.71735 8.39843 8.66447 8.36398C8.18375 8.05366 7.22778 8.07071 7.19614 8.07155H7.19308C6.9319 7.74283 6.95027 6.65886 6.96522 6.43243C6.88797 6.46327 6.8142 6.50215 6.74519 6.54843C6.51462 6.71183 6.29907 6.89517 6.10107 7.09632C5.87463 7.32283 5.66771 7.56777 5.48246 7.82859C5.05879 8.42488 4.75828 9.0984 4.59823 9.81062C4.595 9.82396 4.36085 10.8404 4.4763 11.3675L4.47751 11.3672Z" fill="#FF5634"/>
<path d="M13.3309 8.78391C13.5715 9.01853 13.7776 9.2857 13.9431 9.57746C13.9793 9.60465 14.0131 9.63166 14.0419 9.65782C15.536 11.0255 14.7532 12.9587 14.6948 13.0954C15.9086 12.1025 16.6843 10.6337 16.4514 9.11753C15.7059 7.2721 14.4415 6.5275 13.411 4.9083C13.3588 4.82642 13.3066 4.74436 13.2558 4.65774C13.2267 4.60827 13.2034 4.56371 13.1831 4.52266C13.1403 4.44037 13.1074 4.35338 13.0849 4.26349C13.0849 4.25935 13.0834 4.25534 13.0806 4.25222C13.0779 4.24911 13.074 4.24711 13.0699 4.24661C13.0658 4.24551 13.0615 4.24551 13.0575 4.24661C13.0566 4.24661 13.0553 4.24813 13.0543 4.24847C13.0532 4.24881 13.051 4.25033 13.0495 4.251C12.7946 4.37105 11.2827 6.74817 13.3318 8.78104L13.3309 8.78391Z" fill="#FFF44F"/>
<path d="M14.0423 9.6585C14.0135 9.63232 13.9797 9.6053 13.9435 9.57813C13.93 9.56816 13.9168 9.55819 13.9025 9.54824C13.439 9.22941 12.8727 9.09289 12.3135 9.16513C14.6839 10.342 14.0479 14.3942 10.7628 14.2422C10.4703 14.2303 10.1813 14.1749 9.9053 14.0779C9.8408 14.0539 9.77631 14.0277 9.71181 13.9992C9.67456 13.9824 9.63732 13.9655 9.60059 13.9466L9.60517 13.9494C10.0633 14.2599 12.3259 15.0185 14.6912 13.1052L14.6949 13.0968C14.7539 12.96 15.5368 11.0268 14.0419 9.65917L14.0423 9.6585Z" fill="#FF980E"/>
<path d="M8.0485 11.8027C8.0485 11.8027 8.3527 10.6771 10.2267 10.6771C10.4293 10.6771 11.0089 10.1157 11.0193 9.9529C10.2135 10.2427 9.32556 10.208 8.5452 9.85632C8.16659 9.66566 7.74514 9.57444 7.32097 9.59134C6.8968 9.60825 6.48407 9.73272 6.12207 9.9529C6.25945 10.2479 6.48005 10.4971 6.75715 10.6701C7.03423 10.8432 7.35593 10.9328 7.68324 10.928C7.56114 11.9979 8.13079 13.2445 9.5095 13.8996C9.54029 13.9143 9.56919 13.9301 9.60082 13.9442C8.796 13.5313 8.13148 12.7506 8.0485 11.8033V11.8027Z" fill="#FF980E"/>
</g>
</g>
<defs>
<filter id="filter0_i_32_11124" x="1.375" y="1.375" width="19.25" height="23.25" filterUnits="userSpaceOnUse" color-interpolation-filters="sRGB">
<feFlood flood-opacity="0" result="BackgroundImageFix"/>
<feBlend mode="normal" in="SourceGraphic" in2="BackgroundImageFix" result="shape"/>
<feColorMatrix in="SourceAlpha" type="matrix" values="0 0 0 0 0 0 0 0 0 0 0 0 0 0 0 0 0 0 127 0" result="hardAlpha"/>
<feOffset dy="4"/>
<feGaussianBlur stdDeviation="2"/>
<feComposite in2="hardAlpha" operator="arithmetic" k2="-1" k3="1"/>
<feColorMatrix type="matrix" values="0 0 0 0 0 0 0 0 0 0 0 0 0 0 0 0 0 0 0.25 0"/>
<feBlend mode="normal" in2="shape" result="effect1_innerShadow_32_11124"/>
</filter>
<filter id="filter1_d_32_11124" x="0.417969" y="2.24896" width="21.1641" height="21.4956" filterUnits="userSpaceOnUse" color-interpolation-filters="sRGB">
<feFlood flood-opacity="0" result="BackgroundImageFix"/>
<feColorMatrix in="SourceAlpha" type="matrix" values="0 0 0 0 0 0 0 0 0 0 0 0 0 0 0 0 0 0 127 0" result="hardAlpha"/>
<feOffset dy="2"/>
<feGaussianBlur stdDeviation="2"/>
<feComposite in2="hardAlpha" operator="out"/>
<feColorMatrix type="matrix" values="0 0 0 0 0 0 0 0 0 0 0 0 0 0 0 0 0 0 0.25 0"/>
<feBlend mode="normal" in2="BackgroundImageFix" result="effect1_dropShadow_32_11124"/>
<feBlend mode="normal" in="SourceGraphic" in2="effect1_dropShadow_32_11124" result="shape"/>
</filter>
<linearGradient id="paint0_linear_32_11124" x1="22" y1="0" x2="0.72503" y2="22.6801" gradientUnits="userSpaceOnUse">
<stop offset="0.169646" stop-color="#FF8B16"/>
<stop offset="0.35725" stop-color="#FF672A"/>
<stop offset="0.597842" stop-color="#FF3647"/>
<stop offset="0.825545" stop-color="#E31587"/>
</linearGradient>
<linearGradient id="paint1_linear_32_11124" x1="16.2336" y1="6.34004" x2="5.3673" y2="16.8987" gradientUnits="userSpaceOnUse">
<stop offset="0.048" stop-color="#FFF44F"/>
<stop offset="0.111" stop-color="#FFE847"/>
<stop offset="0.225" stop-color="#FFC830"/>
<stop offset="0.368" stop-color="#FF980E"/>
<stop offset="0.401" stop-color="#FF8B16"/>
<stop offset="0.462" stop-color="#FF672A"/>
<stop offset="0.534" stop-color="#FF3647"/>
<stop offset="0.705" stop-color="#E31587"/>
</linearGradient>
<radialGradient id="paint2_radial_32_11124" cx="0" cy="0" r="1" gradientUnits="userSpaceOnUse" gradientTransform="translate(15.8108 5.76832) scale(13.7395 13.6424)">
<stop offset="0.129" stop-color="#FFBD4F"/>
<stop offset="0.186" stop-color="#FFAC31"/>
<stop offset="0.247" stop-color="#FF9D17"/>
<stop offset="0.283" stop-color="#FF980E"/>
<stop offset="0.403" stop-color="#FF563B"/>
<stop offset="0.467" stop-color="#FF3750"/>
<stop offset="0.71" stop-color="#F5156C"/>
<stop offset="0.782" stop-color="#EB0878"/>
<stop offset="0.86" stop-color="#E50080"/>
</radialGradient>
<clipPath id="clip0_32_11124">
<rect width="22" height="22" fill="white"/>
</clipPath>
</defs>
</svg>
