<svg width="22" height="22" viewBox="0 0 22 22" fill="none" xmlns="http://www.w3.org/2000/svg">
<g clip-path="url(#clip0_32_11141)">
<path d="M16.5 0H5.5C2.46243 0 0 2.46243 0 5.5V16.5C0 19.5376 2.46243 22 5.5 22H16.5C19.5376 22 22 19.5376 22 16.5V5.5C22 2.46243 19.5376 0 16.5 0Z" fill="url(#paint0_linear_32_11141)"/>
<g filter="url(#filter0_i_32_11141)">
<path d="M16.5 1.375H5.5C3.22183 1.375 1.375 3.22183 1.375 5.5V16.5C1.375 18.7782 3.22183 20.625 5.5 20.625H16.5C18.7782 20.625 20.625 18.7782 20.625 16.5V5.5C20.625 3.22183 18.7782 1.375 16.5 1.375Z" fill="black" fill-opacity="0.7"/>
<g filter="url(#filter1_d_32_11141)">
<path d="M7.39062 17.3595H8.42188V5.32825C8.42188 4.94854 8.11408 4.64075 7.73438 4.64075H5.32812C4.94842 4.64075 4.64062 4.94854 4.64062 5.32825V14.6095C4.64062 16.1283 5.87183 17.3595 7.39062 17.3595Z" fill="#FF3636"/>
<path d="M9.10938 5.32806V7.73431C9.10938 8.11402 9.41717 8.42181 9.79688 8.42181H14.6094C16.1282 8.42181 17.3594 7.1906 17.3594 5.67181V4.64056H9.79688C9.41717 4.64056 9.10938 4.94836 9.10938 5.32806Z" fill="#FF3636"/>
<path d="M13.3745 10.9734L9.59853 9.14205C9.37063 9.03566 9.10938 9.20204 9.10938 9.45352V13.1161C9.10938 13.3677 9.37063 13.534 9.59853 13.4276L13.3745 11.5963C13.639 11.4728 13.639 11.0968 13.3745 10.9734Z" fill="#2CACE1"/>
</g>
</g>
</g>
<defs>
<filter id="filter0_i_32_11141" x="1.375" y="1.375" width="19.25" height="23.25" filterUnits="userSpaceOnUse" color-interpolation-filters="sRGB">
<feFlood flood-opacity="0" result="BackgroundImageFix"/>
<feBlend mode="normal" in="SourceGraphic" in2="BackgroundImageFix" result="shape"/>
<feColorMatrix in="SourceAlpha" type="matrix" values="0 0 0 0 0 0 0 0 0 0 0 0 0 0 0 0 0 0 127 0" result="hardAlpha"/>
<feOffset dy="4"/>
<feGaussianBlur stdDeviation="2"/>
<feComposite in2="hardAlpha" operator="arithmetic" k2="-1" k3="1"/>
<feColorMatrix type="matrix" values="0 0 0 0 0 0 0 0 0 0 0 0 0 0 0 0 0 0 0.25 0"/>
<feBlend mode="normal" in2="shape" result="effect1_innerShadow_32_11141"/>
</filter>
<filter id="filter1_d_32_11141" x="0.640625" y="2.64056" width="20.7188" height="20.7189" filterUnits="userSpaceOnUse" color-interpolation-filters="sRGB">
<feFlood flood-opacity="0" result="BackgroundImageFix"/>
<feColorMatrix in="SourceAlpha" type="matrix" values="0 0 0 0 0 0 0 0 0 0 0 0 0 0 0 0 0 0 127 0" result="hardAlpha"/>
<feOffset dy="2"/>
<feGaussianBlur stdDeviation="2"/>
<feComposite in2="hardAlpha" operator="out"/>
<feColorMatrix type="matrix" values="0 0 0 0 0 0 0 0 0 0 0 0 0 0 0 0 0 0 0.25 0"/>
<feBlend mode="normal" in2="BackgroundImageFix" result="effect1_dropShadow_32_11141"/>
<feBlend mode="normal" in="SourceGraphic" in2="effect1_dropShadow_32_11141" result="shape"/>
</filter>
<linearGradient id="paint0_linear_32_11141" x1="11" y1="0" x2="11" y2="22" gradientUnits="userSpaceOnUse">
<stop stop-color="#FF3636"/>
<stop offset="0.0001" stop-color="#FF3636"/>
<stop offset="1" stop-color="#FF2020"/>
</linearGradient>
<clipPath id="clip0_32_11141">
<rect width="22" height="22" fill="white"/>
</clipPath>
</defs>
</svg>
