<svg width="22" height="22" viewBox="0 0 22 22" fill="none" xmlns="http://www.w3.org/2000/svg">
<g clip-path="url(#clip0_32_11149)">
<path d="M16.5 0H5.5C2.46243 0 0 2.46243 0 5.5V16.5C0 19.5376 2.46243 22 5.5 22H16.5C19.5376 22 22 19.5376 22 16.5V5.5C22 2.46243 19.5376 0 16.5 0Z" fill="url(#paint0_linear_32_11149)"/>
<path d="M16.5 0H5.5C2.46243 0 0 2.46243 0 5.5V16.5C0 19.5376 2.46243 22 5.5 22H16.5C19.5376 22 22 19.5376 22 16.5V5.5C22 2.46243 19.5376 0 16.5 0Z" fill="url(#paint1_linear_32_11149)"/>
<g filter="url(#filter0_i_32_11149)">
<path d="M16.5 1.375H5.5C3.22183 1.375 1.375 3.22183 1.375 5.5V16.5C1.375 18.7782 3.22183 20.625 5.5 20.625H16.5C18.7782 20.625 20.625 18.7782 20.625 16.5V5.5C20.625 3.22183 18.7782 1.375 16.5 1.375Z" fill="black" fill-opacity="0.7"/>
<mask id="mask0_32_11149" style="mask-type:luminance" maskUnits="userSpaceOnUse" x="2" y="2" width="18" height="18">
<path d="M19.25 2.75H2.75V19.25H19.25V2.75Z" fill="white"/>
</mask>
<g mask="url(#mask0_32_11149)">
<path fill-rule="evenodd" clip-rule="evenodd" d="M16.9727 13.7285C16.9727 14.0868 16.8104 14.4416 16.4951 14.7727C16.1798 15.1037 15.7177 15.4045 15.1352 15.6579C14.5527 15.9112 13.8611 16.1122 13.1 16.2493C12.3388 16.3864 11.5231 16.457 10.6992 16.457C9.87539 16.457 9.0596 16.3864 8.29849 16.2493C7.53735 16.1122 6.84576 15.9112 6.26323 15.6579C5.68069 15.4045 5.21859 15.1037 4.90332 14.7727C4.58805 14.4416 4.42578 14.0868 4.42578 13.7285C4.42578 13.3702 4.58805 13.0154 4.90332 12.6844C5.21859 12.3533 5.68069 12.0525 6.26323 11.7992C6.84576 11.5458 7.53735 11.3448 8.29849 11.2077C9.0596 11.0706 9.87539 11 10.6992 11C11.5231 11 12.3388 11.0706 13.1 11.2077C13.8611 11.3448 14.5527 11.5458 15.1352 11.7992C15.7177 12.0525 16.1798 12.3533 16.4951 12.6844C16.8104 13.0154 16.9727 13.3702 16.9727 13.7285Z" fill="url(#paint2_radial_32_11149)"/>
<path fill-rule="evenodd" clip-rule="evenodd" d="M6.31564 7.03582C6.31564 7.03582 7.30375 9.07343 9.61538 9.01596C14.4597 8.89443 15.3092 6.36738 15.4307 6.00277C15.5522 5.63817 15.7382 5.69339 15.7812 6.03037C17.361 20.3713 4.81659 14.2182 4.37109 11.7756C6.86253 11.0464 6.25486 9.6488 6.25486 9.6488L6.31564 7.03582Z" fill="#857C63" stroke="#2E3436" stroke-width="2" stroke-miterlimit="10"/>
<path fill-rule="evenodd" clip-rule="evenodd" d="M8.15918 13.0852C10.4757 13.5485 11.6554 13.1189 12.3458 12.5858C12.1635 12.3503 11.852 12.092 11.852 12.092C11.852 12.092 12.661 12.3168 12.9458 12.6845C13.2299 13.0512 13.0513 13.2771 12.977 13.7461C12.8115 13.3341 12.5026 13.1796 12.4608 13.0159C11.8399 13.8742 10.2929 13.8386 8.15918 13.0852Z" fill="url(#paint3_linear_32_11149)"/>
<path fill-rule="evenodd" clip-rule="evenodd" d="M8.83728 10.1045C8.83732 10.2881 8.8012 10.4699 8.73099 10.6395C8.66077 10.8091 8.55783 10.9632 8.42805 11.093C8.29825 11.2229 8.14416 11.3258 7.97457 11.3961C7.80498 11.4664 7.62321 11.5025 7.43963 11.5025C7.25607 11.5025 7.07429 11.4664 6.9047 11.3961C6.73511 11.3258 6.58101 11.2229 6.45123 11.093C6.32144 10.9632 6.21851 10.8091 6.14828 10.6395C6.07807 10.4699 6.04194 10.2881 6.04199 10.1045C6.04194 9.92096 6.07807 9.73917 6.14828 9.56956C6.21851 9.39996 6.32144 9.24583 6.45123 9.11602C6.58101 8.9862 6.73511 8.88321 6.9047 8.81297C7.07429 8.74271 7.25607 8.70654 7.43963 8.70654C7.62321 8.70654 7.80498 8.74271 7.97457 8.81297C8.14416 8.88321 8.29825 8.9862 8.42805 9.11602C8.55783 9.24583 8.66077 9.39996 8.73099 9.56956C8.8012 9.73917 8.83732 9.92096 8.83728 10.1045Z" fill="#DBDBD7" stroke="#888A85" stroke-width="2" stroke-miterlimit="10"/>
<path fill-rule="evenodd" clip-rule="evenodd" d="M6.05351 10.6312C6.37882 11.0821 6.5636 11.6063 6.56719 12.0885C6.5708 12.5707 6.39293 12.9714 6.07271 13.2024C5.75249 13.4334 5.31615 13.4758 4.8597 13.3203C4.40324 13.1648 3.96406 12.8242 3.63875 12.3732C3.31345 11.9223 3.12866 11.3981 3.12505 10.9159C3.12146 10.4337 3.29933 10.033 3.61955 9.80201C3.93978 9.57099 4.37611 9.52856 4.83256 9.68405C5.28901 9.83955 5.7282 10.1802 6.05351 10.6312Z" fill="url(#paint4_radial_32_11149)" stroke="black" stroke-width="2" stroke-miterlimit="10"/>
<path fill-rule="evenodd" clip-rule="evenodd" d="M8.43962 10.3116C8.43965 10.4 8.42226 10.4875 8.38845 10.5692C8.35464 10.6509 8.30509 10.7251 8.2426 10.7876C8.1801 10.8501 8.1059 10.8997 8.02425 10.9335C7.94259 10.9673 7.85507 10.9848 7.76669 10.9848C7.6783 10.9848 7.59078 10.9673 7.50912 10.9335C7.42746 10.8997 7.35326 10.8501 7.29077 10.7876C7.22828 10.7251 7.17872 10.6509 7.14492 10.5692C7.11111 10.4875 7.09372 10.4 7.09375 10.3116C7.09372 10.2232 7.11111 10.1357 7.14492 10.054C7.17872 9.97237 7.22828 9.89816 7.29077 9.83566C7.35326 9.77315 7.42746 9.72357 7.50912 9.68972C7.59078 9.6559 7.6783 9.63849 7.76669 9.63849C7.85507 9.63849 7.94259 9.6559 8.02425 9.68972C8.1059 9.72357 8.1801 9.77315 8.2426 9.83566C8.30509 9.89816 8.35464 9.97237 8.38845 10.054C8.42226 10.1357 8.43965 10.2232 8.43962 10.3116Z" fill="#2E3436" stroke="black" stroke-width="2" stroke-miterlimit="10"/>
<path opacity="0.280899" fill-rule="evenodd" clip-rule="evenodd" d="M3.74161 10.1091C3.52199 10.2736 3.40623 10.5519 3.41666 10.9296C3.4271 11.3073 3.57615 11.7697 3.88207 12.1781C4.18799 12.5866 4.58983 12.8597 4.94933 12.9759C5.30884 13.0921 5.60847 13.0593 5.82809 12.8948C6.04771 12.7303 6.16388 12.4387 6.1552 12.0593C6.1465 11.6799 6.00149 11.2269 5.69622 10.8193C5.39097 10.4118 4.99709 10.1452 4.63541 10.0302C4.27375 9.91513 3.96123 9.9446 3.74161 10.1091Z" stroke="url(#paint5_linear_32_11149)" stroke-width="2" stroke-miterlimit="10"/>
<path fill-rule="evenodd" clip-rule="evenodd" d="M4.75537 10.7426C4.7554 10.8384 4.73969 10.9332 4.70917 11.0217C4.67862 11.1102 4.63387 11.1906 4.57744 11.2584C4.52102 11.3261 4.45402 11.3798 4.38028 11.4165C4.30655 11.4531 4.22752 11.472 4.1477 11.472C4.0679 11.472 3.98886 11.4531 3.91512 11.4165C3.84139 11.3798 3.77439 11.3261 3.71796 11.2584C3.66154 11.1906 3.61678 11.1102 3.58626 11.0217C3.55571 10.9332 3.54002 10.8384 3.54004 10.7426C3.54002 10.6468 3.55571 10.552 3.58626 10.4635C3.61678 10.375 3.66154 10.2946 3.71796 10.2269C3.77439 10.1591 3.84139 10.1054 3.91512 10.0688C3.98886 10.0321 4.0679 10.0132 4.1477 10.0132C4.22752 10.0132 4.30655 10.0321 4.38028 10.0688C4.45402 10.1054 4.52102 10.1591 4.57744 10.2269C4.63387 10.2946 4.67862 10.375 4.70917 10.4635C4.73969 10.552 4.7554 10.6468 4.75537 10.7426Z" fill="white"/>
<path fill-rule="evenodd" clip-rule="evenodd" d="M7.97376 10.001C7.97376 10.1246 7.92467 10.2431 7.83729 10.3305C7.74993 10.4178 7.63144 10.4669 7.50788 10.4669C7.38432 10.4669 7.26581 10.4178 7.17844 10.3305C7.09108 10.2431 7.04199 10.1246 7.04199 10.001C7.04199 9.87746 7.09108 9.75897 7.17844 9.67161C7.26581 9.58423 7.38432 9.53516 7.50788 9.53516C7.63144 9.53516 7.74993 9.58423 7.83729 9.67161C7.92467 9.75897 7.97376 9.87746 7.97376 10.001Z" fill="white"/>
<path fill-rule="evenodd" clip-rule="evenodd" d="M11.967 10.2565C11.967 10.472 11.9246 10.6854 11.8422 10.8845C11.7598 11.0836 11.6389 11.2645 11.4866 11.4169C11.3342 11.5693 11.1533 11.6902 10.9542 11.7727C10.7551 11.8551 10.5417 11.8976 10.3262 11.8976C10.1108 11.8976 9.89739 11.8551 9.69829 11.7727C9.4992 11.6902 9.31832 11.5693 9.16595 11.4169C9.01359 11.2645 8.89276 11.0836 8.81033 10.8845C8.7279 10.6854 8.6855 10.472 8.68555 10.2565C8.6855 10.041 8.7279 9.82757 8.81033 9.62847C8.89276 9.42936 9.01359 9.24844 9.16595 9.09606C9.31832 8.94365 9.4992 8.82276 9.69829 8.74028C9.89739 8.65781 10.1108 8.61536 10.3262 8.61536C10.5417 8.61536 10.7551 8.65781 10.9542 8.74028C11.1533 8.82276 11.3342 8.94365 11.4866 9.09606C11.6389 9.24844 11.7598 9.42936 11.8422 9.62847C11.9246 9.82757 11.967 10.041 11.967 10.2565Z" fill="#DBDBD7" stroke="#888A85" stroke-width="2" stroke-miterlimit="10"/>
<path fill-rule="evenodd" clip-rule="evenodd" d="M11.4999 10.4995C11.4999 10.6033 11.4795 10.7061 11.4398 10.8019C11.4001 10.8978 11.3419 10.9849 11.2686 11.0583C11.1952 11.1317 11.1081 11.1899 11.0123 11.2296C10.9164 11.2693 10.8137 11.2898 10.7099 11.2898C10.6061 11.2898 10.5034 11.2693 10.4075 11.2296C10.3117 11.1899 10.2246 11.1317 10.1512 11.0583C10.0779 10.9849 10.0197 10.8978 9.97999 10.8019C9.94031 10.7061 9.91989 10.6033 9.91992 10.4995C9.91989 10.3958 9.94031 10.293 9.97999 10.1972C10.0197 10.1013 10.0779 10.0142 10.1512 9.9408C10.2246 9.86742 10.3117 9.80921 10.4075 9.76949C10.5034 9.72979 10.6061 9.70935 10.7099 9.70935C10.8137 9.70935 10.9164 9.72979 11.0123 9.76949C11.1081 9.80921 11.1952 9.86742 11.2686 9.9408C11.3419 10.0142 11.4001 10.1013 11.4398 10.1972C11.4795 10.293 11.4999 10.3958 11.4999 10.4995Z" fill="#2E3436" stroke="black" stroke-width="2" stroke-miterlimit="10"/>
<path fill-rule="evenodd" clip-rule="evenodd" d="M10.9532 10.1349C10.9532 10.28 10.8956 10.4191 10.793 10.5216C10.6904 10.6242 10.5513 10.6818 10.4063 10.6818C10.2612 10.6818 10.1221 10.6242 10.0196 10.5216C9.917 10.4191 9.85938 10.28 9.85938 10.1349C9.85938 9.98987 9.917 9.85076 10.0196 9.7482C10.1221 9.64563 10.2612 9.58801 10.4063 9.58801C10.5513 9.58801 10.6904 9.64563 10.793 9.7482C10.8956 9.85076 10.9532 9.98987 10.9532 10.1349Z" fill="white"/>
<path d="M15.3268 15.1564L15.6453 14.5223C14.4606 13.6555 12.2767 13.0249 12.2767 13.0249C11.8982 12.8486 11.7787 13.1886 12.0409 13.4097C12.0409 13.4097 13.9085 14.7486 15.3268 15.1564Z" fill="url(#paint6_linear_32_11149)" stroke="#673907" stroke-width="2" stroke-linecap="round"/>
<path d="M16.8455 15.741L17.0159 15.3636L15.6933 14.5163L15.5879 14.5073L15.5423 14.3613C15.3502 14.4816 15.071 14.9286 15.145 15.1799L15.2879 15.1258L15.3652 15.2006L16.8455 15.741Z" fill="url(#paint7_linear_32_11149)" stroke="#888A85" stroke-width="2" stroke-linecap="round"/>
<path d="M15.9883 15.0251L16.8664 15.4022" stroke="white" stroke-width="2" stroke-linecap="round" stroke-linejoin="round"/>
<path d="M18.7678 17.3435C18.3555 15.9439 18.2092 14.8326 17.1316 14.9315C16.2633 15.0112 16.2025 16.2554 17.0998 16.5987C17.9643 16.9295 18.7678 17.3435 18.7678 17.3435Z" fill="url(#paint8_radial_32_11149)"/>
<path opacity="0.527778" d="M17.1959 15.0449C17.2415 15.0315 17.2893 15.0272 17.3364 15.0322C17.3836 15.0372 17.4294 15.0515 17.4711 15.0742C17.5129 15.0969 17.5497 15.1276 17.5794 15.1645C17.6093 15.2015 17.6315 15.2439 17.6449 15.2895C17.6583 15.335 17.6628 15.3828 17.6576 15.43C17.6526 15.4772 17.6384 15.5229 17.6157 15.5646C17.5928 15.6063 17.5622 15.6431 17.5253 15.673C17.4883 15.7028 17.4459 15.725 17.4003 15.7384C17.3548 15.7518 17.307 15.7562 17.2597 15.7511C17.2126 15.7461 17.1668 15.7319 17.1251 15.7091C17.0834 15.6864 17.0466 15.6557 17.0168 15.6188C16.9869 15.5818 16.9647 15.5394 16.9513 15.4938C16.9378 15.4483 16.9335 15.4006 16.9386 15.3534C16.9436 15.3061 16.9579 15.2604 16.9806 15.2187C17.0033 15.177 17.0341 15.1402 17.071 15.1104C17.1079 15.0806 17.1504 15.0583 17.1959 15.0449Z" fill="white"/>
<path d="M15.6194 14.5305C15.6501 14.5214 15.6823 14.5185 15.7142 14.5219C15.746 14.5253 15.7769 14.5349 15.8051 14.5502C15.8332 14.5655 15.858 14.5863 15.8782 14.6112C15.8983 14.6361 15.9133 14.6648 15.9223 14.6955C15.9314 14.7262 15.9343 14.7584 15.9309 14.7903C15.9275 14.8221 15.9179 14.853 15.9025 14.8811C15.8872 14.9093 15.8665 14.9341 15.8415 14.9542C15.8166 14.9744 15.788 14.9894 15.7572 14.9984C15.7265 15.0075 15.6943 15.0104 15.6624 15.007C15.6306 15.0036 15.5997 14.994 15.5716 14.9787C15.5434 14.9633 15.5186 14.9426 15.4985 14.9177C15.4783 14.8927 15.4633 14.8641 15.4543 14.8334C15.4452 14.8027 15.4423 14.7704 15.4457 14.7386C15.4491 14.7067 15.4587 14.6758 15.4741 14.6477C15.4894 14.6196 15.5101 14.5948 15.5351 14.5746C15.56 14.5545 15.5886 14.5395 15.6194 14.5305Z" fill="white"/>
<path opacity="0.427778" d="M18.2496 16.5061C18.2496 16.5061 18.1151 16.0036 17.8188 15.7421C17.7138 15.6496 17.846 15.5133 17.945 15.633C18.1588 15.8915 18.2496 16.5061 18.2496 16.5061Z" fill="url(#paint9_linear_32_11149)"/>
<path fill-rule="evenodd" clip-rule="evenodd" d="M10.6572 13.6594C11.172 13.7086 11.6368 13.5658 11.8301 13.4965C11.8638 13.3056 12.0145 12.9392 12.5334 12.915L12.3511 12.596C12.3511 12.596 11.6751 13.0593 10.9535 13.1961L10.6572 13.6594Z" fill="url(#paint10_linear_32_11149)"/>
</g>
</g>
</g>
<defs>
<filter id="filter0_i_32_11149" x="1.375" y="1.375" width="19.25" height="23.25" filterUnits="userSpaceOnUse" color-interpolation-filters="sRGB">
<feFlood flood-opacity="0" result="BackgroundImageFix"/>
<feBlend mode="normal" in="SourceGraphic" in2="BackgroundImageFix" result="shape"/>
<feColorMatrix in="SourceAlpha" type="matrix" values="0 0 0 0 0 0 0 0 0 0 0 0 0 0 0 0 0 0 127 0" result="hardAlpha"/>
<feOffset dy="4"/>
<feGaussianBlur stdDeviation="2"/>
<feComposite in2="hardAlpha" operator="arithmetic" k2="-1" k3="1"/>
<feColorMatrix type="matrix" values="0 0 0 0 0 0 0 0 0 0 0 0 0 0 0 0 0 0 0.25 0"/>
<feBlend mode="normal" in2="shape" result="effect1_innerShadow_32_11149"/>
</filter>
<linearGradient id="paint0_linear_32_11149" x1="10.9331" y1="22.0168" x2="10.9331" y2="-0.014249" gradientUnits="userSpaceOnUse">
<stop stop-color="#2CA0B9"/>
<stop offset="1" stop-color="#87DEAA"/>
</linearGradient>
<linearGradient id="paint1_linear_32_11149" x1="11" y1="0" x2="11" y2="22" gradientUnits="userSpaceOnUse">
<stop stop-color="#857C63"/>
<stop offset="1" stop-color="#3E382D"/>
</linearGradient>
<radialGradient id="paint2_radial_32_11149" cx="0" cy="0" r="1" gradientUnits="userSpaceOnUse" gradientTransform="translate(10.6992 13.7285) scale(6.27344 2.72852)">
<stop/>
<stop offset="1" stop-opacity="0"/>
</radialGradient>
<linearGradient id="paint3_linear_32_11149" x1="12.5509" y1="12.5225" x2="8.72253" y2="13.2821" gradientUnits="userSpaceOnUse">
<stop/>
<stop offset="1" stop-opacity="0"/>
</linearGradient>
<radialGradient id="paint4_radial_32_11149" cx="0" cy="0" r="1" gradientUnits="userSpaceOnUse" gradientTransform="translate(4.28753 10.7717) rotate(-30) scale(1.52929 1.78492)">
<stop stop-color="#5B676B"/>
<stop offset="1" stop-color="#141718"/>
</radialGradient>
<linearGradient id="paint5_linear_32_11149" x1="4.04834" y1="10.3974" x2="5.6515" y2="12.7216" gradientUnits="userSpaceOnUse">
<stop stop-color="white"/>
<stop offset="1" stop-color="white" stop-opacity="0"/>
</linearGradient>
<linearGradient id="paint6_linear_32_11149" x1="14.5611" y1="13.7687" x2="13.847" y2="15.3283" gradientUnits="userSpaceOnUse">
<stop stop-color="#6E3D09"/>
<stop offset="0.242424" stop-color="#EA8113"/>
<stop offset="0.621212" stop-color="#5C3307"/>
<stop offset="1" stop-color="#E07C12"/>
</linearGradient>
<linearGradient id="paint7_linear_32_11149" x1="16.0912" y1="15.4625" x2="16.4052" y2="14.829" gradientUnits="userSpaceOnUse">
<stop stop-color="#BDBDBD"/>
<stop offset="0.333333" stop-color="#E2E2E2"/>
<stop offset="0.666667" stop-color="#A3A3A3"/>
<stop offset="1" stop-color="#DDDDDD"/>
</linearGradient>
<radialGradient id="paint8_radial_32_11149" cx="0" cy="0" r="1" gradientUnits="userSpaceOnUse" gradientTransform="translate(16.8744 15.8306) rotate(-106.415) scale(1.6653 1.62289)">
<stop stop-color="#696969"/>
<stop offset="1"/>
</radialGradient>
<linearGradient id="paint9_linear_32_11149" x1="17.8597" y1="15.4981" x2="18.2619" y2="16.2434" gradientUnits="userSpaceOnUse">
<stop stop-color="white"/>
<stop offset="1" stop-color="white" stop-opacity="0"/>
</linearGradient>
<linearGradient id="paint10_linear_32_11149" x1="11.7434" y1="13.2493" x2="11.113" y2="13.4012" gradientUnits="userSpaceOnUse">
<stop/>
<stop offset="1" stop-opacity="0"/>
</linearGradient>
<clipPath id="clip0_32_11149">
<rect width="22" height="22" fill="white"/>
</clipPath>
</defs>
</svg>
