<svg width="22" height="22" viewBox="0 0 22 22" fill="none" xmlns="http://www.w3.org/2000/svg">
<g clip-path="url(#clip0_32_11178)">
<path d="M16.5 0H5.5C2.46243 0 0 2.46243 0 5.5V16.5C0 19.5376 2.46243 22 5.5 22H16.5C19.5376 22 22 19.5376 22 16.5V5.5C22 2.46243 19.5376 0 16.5 0Z" fill="url(#paint0_linear_32_11178)"/>
<g filter="url(#filter0_i_32_11178)">
<path d="M16.5 1.375H5.5C3.22183 1.375 1.375 3.22183 1.375 5.5V16.5C1.375 18.7782 3.22183 20.625 5.5 20.625H16.5C18.7782 20.625 20.625 18.7782 20.625 16.5V5.5C20.625 3.22183 18.7782 1.375 16.5 1.375Z" fill="black" fill-opacity="0.7"/>
<path d="M11 4.66211C14.5596 4.66211 17.4453 7.54782 17.4453 11.1074C17.4453 14.667 14.5596 17.5527 11 17.5527C7.4404 17.5527 4.55469 14.667 4.55469 11.1074C4.55469 7.54782 7.4404 4.66211 11 4.66211Z" fill="url(#paint1_linear_32_11178)"/>
<path d="M11 4.66211C7.4404 4.66211 4.55469 7.54782 4.55469 11.1074C4.55469 14.667 7.4404 17.5527 11 17.5527V4.66211Z" fill="url(#paint2_linear_32_11178)"/>
<path d="M17.4453 10.8926C17.4453 14.4522 14.5596 17.3379 11 17.3379C7.4404 17.3379 4.55469 14.4522 4.55469 10.8926C4.55469 7.33298 7.4404 4.44727 11 4.44727C14.5596 4.44727 17.4453 7.33298 17.4453 10.8926Z" fill="#40A1C8"/>
<path d="M7.13336 11C7.1468 12.4947 7.44304 13.9398 7.97512 15.1089C7.55172 15.3254 7.19295 15.586 6.91559 15.878C5.45029 14.6779 4.58713 12.8937 4.55566 11H7.13336Z" fill="#49BBB0"/>
<path d="M11.0002 14.4375V17.3379C10.5168 17.3379 10.0346 17.2834 9.56342 17.1755C8.94029 16.7395 8.3931 16.027 7.97559 15.1089C8.82448 14.675 9.89491 14.4375 11.0002 14.4375Z" fill="#378BDE"/>
<path d="M14.8666 11C14.8531 12.4947 14.5569 13.9398 14.0244 15.1089C14.4482 15.3254 14.8066 15.586 15.0839 15.878C16.5492 14.6779 17.4125 12.8937 17.4443 11H14.8666Z" fill="#266EC6"/>
<path d="M11 11V17.3379C11.4834 17.3379 11.9655 17.2834 12.4368 17.1755C13.884 16.1621 14.842 13.7275 14.8668 11H11Z" fill="#378BDE"/>
<path d="M11 14.4375V17.3379C11.4834 17.3379 11.9655 17.2834 12.4368 17.1755C13.0599 16.7395 13.6071 16.027 14.0246 15.1089C13.1757 14.675 12.1053 14.4375 11 14.4375Z" fill="#266EC6"/>
<path d="M14.0253 15.1089C13.6074 16.027 13.0602 16.7391 12.4375 17.1755C13.4081 16.9535 14.3144 16.5092 15.0849 15.878C14.8075 15.586 14.4487 15.3254 14.0253 15.1089Z" fill="#1E62B5"/>
<path d="M11 4.44727C7.4404 4.44727 4.55469 7.33298 4.55469 10.8926C4.55469 10.9282 4.5551 10.9643 4.55553 11H11V4.44727Z" fill="#53D795"/>
<path d="M9.56281 4.60925C8.59182 4.83164 7.68545 5.2756 6.91504 5.9067C7.19239 6.19918 7.55117 6.45933 7.97498 6.67629C8.39292 5.75774 8.9401 5.04564 9.56281 4.60925Z" fill="#72E99A"/>
<path d="M11 4.44727C10.5166 4.44727 10.0349 4.50182 9.56323 4.60924C8.09542 5.63729 7.13281 8.12563 7.13281 10.8926C7.13281 10.9282 7.13281 10.9643 7.13322 11H11V4.44727Z" fill="#49BBB0"/>
<path d="M11.0002 4.44727C10.5168 4.44727 10.0351 4.50182 9.56342 4.60924C8.94072 5.04563 8.39353 5.75773 7.97559 6.67628C8.82491 7.11016 9.89491 7.34766 11.0002 7.34766V4.44727Z" fill="#53D795"/>
<path d="M11 4.44727C14.5596 4.44727 17.4453 7.33298 17.4453 10.8926C17.4453 10.9282 17.445 10.9643 17.4445 11H11V4.44727Z" fill="#378BDE"/>
<path d="M12.4365 4.60925C13.4075 4.83164 14.3139 5.2756 15.0843 5.9067C14.8069 6.19918 14.4482 6.45933 14.0248 6.67586C13.6064 5.75774 13.0592 5.04564 12.4365 4.60925Z" fill="#40A1C8"/>
<path d="M11 4.44727C11.4834 4.44727 11.9655 4.50182 12.4368 4.60924C13.9046 5.63729 14.8672 8.12563 14.8672 10.8926C14.8672 10.9282 14.8672 10.9643 14.8668 11H11V4.44727Z" fill="#40A1C8"/>
<path d="M11 4.44727C11.4834 4.44727 11.9655 4.50182 12.4368 4.60924C13.0595 5.04563 13.6067 5.75773 14.0246 6.67585C13.1753 7.11016 12.1053 7.34766 11 7.34766V4.44727Z" fill="#49BBB0"/>
</g>
</g>
<defs>
<filter id="filter0_i_32_11178" x="1.375" y="1.375" width="19.25" height="23.25" filterUnits="userSpaceOnUse" color-interpolation-filters="sRGB">
<feFlood flood-opacity="0" result="BackgroundImageFix"/>
<feBlend mode="normal" in="SourceGraphic" in2="BackgroundImageFix" result="shape"/>
<feColorMatrix in="SourceAlpha" type="matrix" values="0 0 0 0 0 0 0 0 0 0 0 0 0 0 0 0 0 0 127 0" result="hardAlpha"/>
<feOffset dy="4"/>
<feGaussianBlur stdDeviation="2"/>
<feComposite in2="hardAlpha" operator="arithmetic" k2="-1" k3="1"/>
<feColorMatrix type="matrix" values="0 0 0 0 0 0 0 0 0 0 0 0 0 0 0 0 0 0 0.25 0"/>
<feBlend mode="normal" in2="shape" result="effect1_innerShadow_32_11178"/>
</filter>
<linearGradient id="paint0_linear_32_11178" x1="11" y1="0" x2="11" y2="22" gradientUnits="userSpaceOnUse">
<stop stop-color="#72E99A"/>
<stop offset="0.3" stop-color="#49BBB0"/>
<stop offset="0.614" stop-color="#378BDE"/>
<stop offset="1" stop-color="#1E62B5"/>
</linearGradient>
<linearGradient id="paint1_linear_32_11178" x1="14.6523" y1="16.1562" x2="15.7266" y2="16.1562" gradientUnits="userSpaceOnUse">
<stop stop-color="#16529C"/>
<stop offset="1" stop-color="#236AC0"/>
</linearGradient>
<linearGradient id="paint2_linear_32_11178" x1="10.3555" y1="17.0156" x2="5.62891" y2="17.0156" gradientUnits="userSpaceOnUse">
<stop stop-color="#2166BB"/>
<stop offset="1" stop-color="#89EDA9"/>
</linearGradient>
<clipPath id="clip0_32_11178">
<rect width="22" height="22" fill="white"/>
</clipPath>
</defs>
</svg>
