<svg width="22" height="22" viewBox="0 0 22 22" fill="none" xmlns="http://www.w3.org/2000/svg">
<g clip-path="url(#clip0_32_11220)">
<path d="M16.5 0H5.5C2.46243 0 0 2.46243 0 5.5V16.5C0 19.5376 2.46243 22 5.5 22H16.5C19.5376 22 22 19.5376 22 16.5V5.5C22 2.46243 19.5376 0 16.5 0Z" fill="#FF0045"/>
<path d="M16.5 0H5.5C2.46243 0 0 2.46243 0 5.5V16.5C0 19.5376 2.46243 22 5.5 22H16.5C19.5376 22 22 19.5376 22 16.5V5.5C22 2.46243 19.5376 0 16.5 0Z" fill="url(#paint0_radial_32_11220)"/>
<path d="M16.5 0H5.5C2.46243 0 0 2.46243 0 5.5V16.5C0 19.5376 2.46243 22 5.5 22H16.5C19.5376 22 22 19.5376 22 16.5V5.5C22 2.46243 19.5376 0 16.5 0Z" fill="url(#paint1_radial_32_11220)"/>
<g filter="url(#filter0_i_32_11220)">
<path d="M16.5 1.375H5.5C3.22183 1.375 1.375 3.22183 1.375 5.5V16.5C1.375 18.7782 3.22183 20.625 5.5 20.625H16.5C18.7782 20.625 20.625 18.7782 20.625 16.5V5.5C20.625 3.22183 18.7782 1.375 16.5 1.375Z" fill="black" fill-opacity="0.7"/>
<mask id="mask0_32_11220" style="mask-type:luminance" maskUnits="userSpaceOnUse" x="4" y="4" width="14" height="14">
<path d="M17.875 4.125H4.125V17.875H17.875V4.125Z" fill="white"/>
</mask>
<g mask="url(#mask0_32_11220)">
<g filter="url(#filter1_d_32_11220)">
<path d="M11 5.36422C12.8356 5.36422 13.0533 5.37109 13.7787 5.40432C15.6418 5.48912 16.512 6.37312 16.5968 8.2225C16.6301 8.94725 16.6363 9.16494 16.6363 11.0006C16.6363 12.8368 16.6295 13.0539 16.5968 13.7787C16.5115 15.6263 15.6435 16.512 13.7787 16.5968C13.0533 16.6301 12.8368 16.6369 11 16.6369C9.16437 16.6369 8.94666 16.6301 8.22193 16.5968C6.35422 16.5115 5.48854 15.6234 5.40375 13.7781C5.37053 13.0533 5.36365 12.8362 5.36365 11C5.36365 9.16437 5.37109 8.94725 5.40375 8.22193C5.48912 6.37313 6.35709 5.48854 8.22193 5.40375C8.94725 5.37109 9.16437 5.36422 11 5.36422ZM11 4.125C9.13287 4.125 8.89912 4.13303 8.16578 4.16625C5.669 4.28084 4.28141 5.66615 4.16682 8.16521C4.13303 8.89912 4.125 9.13287 4.125 11C4.125 12.8671 4.13303 13.1015 4.16625 13.8348C4.28084 16.3316 5.66615 17.7191 8.16521 17.8338C8.89912 17.8669 9.13287 17.875 11 17.875C12.8671 17.875 13.1015 17.8669 13.8348 17.8338C16.3293 17.7191 17.7203 16.3338 17.8332 13.8348C17.8669 13.1015 17.875 12.8671 17.875 11C17.875 9.13287 17.8669 8.89912 17.8338 8.16578C17.7215 5.67131 16.3344 4.28141 13.8354 4.16682C13.1015 4.13303 12.8671 4.125 11 4.125ZM11 7.46969C9.05037 7.46969 7.46969 9.05037 7.46969 11C7.46969 12.9496 9.05037 14.5309 11 14.5309C12.9496 14.5309 14.5303 12.9502 14.5303 11C14.5303 9.05037 12.9496 7.46969 11 7.46969ZM11 13.2917C9.73443 13.2917 8.70834 12.2662 8.70834 11C8.70834 9.73443 9.73443 8.70834 11 8.70834C12.2656 8.70834 13.2917 9.73443 13.2917 11C13.2917 12.2662 12.2656 13.2917 11 13.2917ZM14.6701 6.50547C14.2141 6.50547 13.8445 6.875 13.8445 7.33047C13.8445 7.78594 14.2141 8.15547 14.6701 8.15547C15.1256 8.15547 15.4945 7.78594 15.4945 7.33047C15.4945 6.875 15.1256 6.50547 14.6701 6.50547Z" fill="white"/>
<path d="M11 5.36422C12.8356 5.36422 13.0533 5.37109 13.7787 5.40432C15.6418 5.48912 16.512 6.37312 16.5968 8.2225C16.6301 8.94725 16.6363 9.16494 16.6363 11.0006C16.6363 12.8368 16.6295 13.0539 16.5968 13.7787C16.5115 15.6263 15.6435 16.512 13.7787 16.5968C13.0533 16.6301 12.8368 16.6369 11 16.6369C9.16437 16.6369 8.94666 16.6301 8.22193 16.5968C6.35422 16.5115 5.48854 15.6234 5.40375 13.7781C5.37053 13.0533 5.36365 12.8362 5.36365 11C5.36365 9.16437 5.37109 8.94725 5.40375 8.22193C5.48912 6.37313 6.35709 5.48854 8.22193 5.40375C8.94725 5.37109 9.16437 5.36422 11 5.36422ZM11 4.125C9.13287 4.125 8.89912 4.13303 8.16578 4.16625C5.669 4.28084 4.28141 5.66615 4.16682 8.16521C4.13303 8.89912 4.125 9.13287 4.125 11C4.125 12.8671 4.13303 13.1015 4.16625 13.8348C4.28084 16.3316 5.66615 17.7191 8.16521 17.8338C8.89912 17.8669 9.13287 17.875 11 17.875C12.8671 17.875 13.1015 17.8669 13.8348 17.8338C16.3293 17.7191 17.7203 16.3338 17.8332 13.8348C17.8669 13.1015 17.875 12.8671 17.875 11C17.875 9.13287 17.8669 8.89912 17.8338 8.16578C17.7215 5.67131 16.3344 4.28141 13.8354 4.16682C13.1015 4.13303 12.8671 4.125 11 4.125ZM11 7.46969C9.05037 7.46969 7.46969 9.05037 7.46969 11C7.46969 12.9496 9.05037 14.5309 11 14.5309C12.9496 14.5309 14.5303 12.9502 14.5303 11C14.5303 9.05037 12.9496 7.46969 11 7.46969ZM11 13.2917C9.73443 13.2917 8.70834 12.2662 8.70834 11C8.70834 9.73443 9.73443 8.70834 11 8.70834C12.2656 8.70834 13.2917 9.73443 13.2917 11C13.2917 12.2662 12.2656 13.2917 11 13.2917ZM14.6701 6.50547C14.2141 6.50547 13.8445 6.875 13.8445 7.33047C13.8445 7.78594 14.2141 8.15547 14.6701 8.15547C15.1256 8.15547 15.4945 7.78594 15.4945 7.33047C15.4945 6.875 15.1256 6.50547 14.6701 6.50547Z" fill="#FF0045"/>
<path d="M11 5.36422C12.8356 5.36422 13.0533 5.37109 13.7787 5.40432C15.6418 5.48912 16.512 6.37312 16.5968 8.2225C16.6301 8.94725 16.6363 9.16494 16.6363 11.0006C16.6363 12.8368 16.6295 13.0539 16.5968 13.7787C16.5115 15.6263 15.6435 16.512 13.7787 16.5968C13.0533 16.6301 12.8368 16.6369 11 16.6369C9.16437 16.6369 8.94666 16.6301 8.22193 16.5968C6.35422 16.5115 5.48854 15.6234 5.40375 13.7781C5.37053 13.0533 5.36365 12.8362 5.36365 11C5.36365 9.16437 5.37109 8.94725 5.40375 8.22193C5.48912 6.37313 6.35709 5.48854 8.22193 5.40375C8.94725 5.37109 9.16437 5.36422 11 5.36422ZM11 4.125C9.13287 4.125 8.89912 4.13303 8.16578 4.16625C5.669 4.28084 4.28141 5.66615 4.16682 8.16521C4.13303 8.89912 4.125 9.13287 4.125 11C4.125 12.8671 4.13303 13.1015 4.16625 13.8348C4.28084 16.3316 5.66615 17.7191 8.16521 17.8338C8.89912 17.8669 9.13287 17.875 11 17.875C12.8671 17.875 13.1015 17.8669 13.8348 17.8338C16.3293 17.7191 17.7203 16.3338 17.8332 13.8348C17.8669 13.1015 17.875 12.8671 17.875 11C17.875 9.13287 17.8669 8.89912 17.8338 8.16578C17.7215 5.67131 16.3344 4.28141 13.8354 4.16682C13.1015 4.13303 12.8671 4.125 11 4.125ZM11 7.46969C9.05037 7.46969 7.46969 9.05037 7.46969 11C7.46969 12.9496 9.05037 14.5309 11 14.5309C12.9496 14.5309 14.5303 12.9502 14.5303 11C14.5303 9.05037 12.9496 7.46969 11 7.46969ZM11 13.2917C9.73443 13.2917 8.70834 12.2662 8.70834 11C8.70834 9.73443 9.73443 8.70834 11 8.70834C12.2656 8.70834 13.2917 9.73443 13.2917 11C13.2917 12.2662 12.2656 13.2917 11 13.2917ZM14.6701 6.50547C14.2141 6.50547 13.8445 6.875 13.8445 7.33047C13.8445 7.78594 14.2141 8.15547 14.6701 8.15547C15.1256 8.15547 15.4945 7.78594 15.4945 7.33047C15.4945 6.875 15.1256 6.50547 14.6701 6.50547Z" fill="url(#paint2_radial_32_11220)"/>
<path d="M11 5.36422C12.8356 5.36422 13.0533 5.37109 13.7787 5.40432C15.6418 5.48912 16.512 6.37312 16.5968 8.2225C16.6301 8.94725 16.6363 9.16494 16.6363 11.0006C16.6363 12.8368 16.6295 13.0539 16.5968 13.7787C16.5115 15.6263 15.6435 16.512 13.7787 16.5968C13.0533 16.6301 12.8368 16.6369 11 16.6369C9.16437 16.6369 8.94666 16.6301 8.22193 16.5968C6.35422 16.5115 5.48854 15.6234 5.40375 13.7781C5.37053 13.0533 5.36365 12.8362 5.36365 11C5.36365 9.16437 5.37109 8.94725 5.40375 8.22193C5.48912 6.37313 6.35709 5.48854 8.22193 5.40375C8.94725 5.37109 9.16437 5.36422 11 5.36422ZM11 4.125C9.13287 4.125 8.89912 4.13303 8.16578 4.16625C5.669 4.28084 4.28141 5.66615 4.16682 8.16521C4.13303 8.89912 4.125 9.13287 4.125 11C4.125 12.8671 4.13303 13.1015 4.16625 13.8348C4.28084 16.3316 5.66615 17.7191 8.16521 17.8338C8.89912 17.8669 9.13287 17.875 11 17.875C12.8671 17.875 13.1015 17.8669 13.8348 17.8338C16.3293 17.7191 17.7203 16.3338 17.8332 13.8348C17.8669 13.1015 17.875 12.8671 17.875 11C17.875 9.13287 17.8669 8.89912 17.8338 8.16578C17.7215 5.67131 16.3344 4.28141 13.8354 4.16682C13.1015 4.13303 12.8671 4.125 11 4.125ZM11 7.46969C9.05037 7.46969 7.46969 9.05037 7.46969 11C7.46969 12.9496 9.05037 14.5309 11 14.5309C12.9496 14.5309 14.5303 12.9502 14.5303 11C14.5303 9.05037 12.9496 7.46969 11 7.46969ZM11 13.2917C9.73443 13.2917 8.70834 12.2662 8.70834 11C8.70834 9.73443 9.73443 8.70834 11 8.70834C12.2656 8.70834 13.2917 9.73443 13.2917 11C13.2917 12.2662 12.2656 13.2917 11 13.2917ZM14.6701 6.50547C14.2141 6.50547 13.8445 6.875 13.8445 7.33047C13.8445 7.78594 14.2141 8.15547 14.6701 8.15547C15.1256 8.15547 15.4945 7.78594 15.4945 7.33047C15.4945 6.875 15.1256 6.50547 14.6701 6.50547Z" fill="url(#paint3_radial_32_11220)"/>
</g>
</g>
</g>
</g>
<defs>
<filter id="filter0_i_32_11220" x="1.375" y="1.375" width="19.25" height="23.25" filterUnits="userSpaceOnUse" color-interpolation-filters="sRGB">
<feFlood flood-opacity="0" result="BackgroundImageFix"/>
<feBlend mode="normal" in="SourceGraphic" in2="BackgroundImageFix" result="shape"/>
<feColorMatrix in="SourceAlpha" type="matrix" values="0 0 0 0 0 0 0 0 0 0 0 0 0 0 0 0 0 0 127 0" result="hardAlpha"/>
<feOffset dy="4"/>
<feGaussianBlur stdDeviation="2"/>
<feComposite in2="hardAlpha" operator="arithmetic" k2="-1" k3="1"/>
<feColorMatrix type="matrix" values="0 0 0 0 0 0 0 0 0 0 0 0 0 0 0 0 0 0 0.25 0"/>
<feBlend mode="normal" in2="shape" result="effect1_innerShadow_32_11220"/>
</filter>
<filter id="filter1_d_32_11220" x="0.125" y="2.125" width="21.75" height="21.75" filterUnits="userSpaceOnUse" color-interpolation-filters="sRGB">
<feFlood flood-opacity="0" result="BackgroundImageFix"/>
<feColorMatrix in="SourceAlpha" type="matrix" values="0 0 0 0 0 0 0 0 0 0 0 0 0 0 0 0 0 0 127 0" result="hardAlpha"/>
<feOffset dy="2"/>
<feGaussianBlur stdDeviation="2"/>
<feComposite in2="hardAlpha" operator="out"/>
<feColorMatrix type="matrix" values="0 0 0 0 0 0 0 0 0 0 0 0 0 0 0 0 0 0 0.25 0"/>
<feBlend mode="normal" in2="BackgroundImageFix" result="effect1_dropShadow_32_11220"/>
<feBlend mode="normal" in="SourceGraphic" in2="effect1_dropShadow_32_11220" result="shape"/>
</filter>
<radialGradient id="paint0_radial_32_11220" cx="0" cy="0" r="1" gradientUnits="userSpaceOnUse" gradientTransform="translate(22) rotate(135) scale(31.1126)">
<stop stop-color="#B000FF"/>
<stop offset="1" stop-color="#DFDFDF" stop-opacity="0"/>
</radialGradient>
<radialGradient id="paint1_radial_32_11220" cx="0" cy="0" r="1" gradientUnits="userSpaceOnUse" gradientTransform="translate(-6.55649e-07 22) rotate(-63.4349) scale(24.5967)">
<stop stop-color="#FFB000"/>
<stop offset="1" stop-color="#DFDFDF" stop-opacity="0"/>
</radialGradient>
<radialGradient id="paint2_radial_32_11220" cx="0" cy="0" r="1" gradientUnits="userSpaceOnUse" gradientTransform="translate(17.875 4.125) rotate(135) scale(19.4454)">
<stop stop-color="#B000FF"/>
<stop offset="1" stop-color="#DFDFDF" stop-opacity="0"/>
</radialGradient>
<radialGradient id="paint3_radial_32_11220" cx="0" cy="0" r="1" gradientUnits="userSpaceOnUse" gradientTransform="translate(4.125 17.875) rotate(-63.4349) scale(15.373)">
<stop stop-color="#FFB000"/>
<stop offset="1" stop-color="#DFDFDF" stop-opacity="0"/>
</radialGradient>
<clipPath id="clip0_32_11220">
<rect width="22" height="22" fill="white"/>
</clipPath>
</defs>
</svg>
