<svg width="22" height="22" viewBox="0 0 22 22" fill="none" xmlns="http://www.w3.org/2000/svg">
<g clip-path="url(#clip0_32_11243)">
<path d="M16.5 0H5.5C2.46243 0 0 2.46243 0 5.5V16.5C0 19.5376 2.46243 22 5.5 22H16.5C19.5376 22 22 19.5376 22 16.5V5.5C22 2.46243 19.5376 0 16.5 0Z" fill="url(#paint0_linear_32_11243)"/>
<g filter="url(#filter0_i_32_11243)">
<path d="M16.5 1.375H5.5C3.22183 1.375 1.375 3.22183 1.375 5.5V16.5C1.375 18.7782 3.22183 20.625 5.5 20.625H16.5C18.7782 20.625 20.625 18.7782 20.625 16.5V5.5C20.625 3.22183 18.7782 1.375 16.5 1.375Z" fill="black" fill-opacity="0.7"/>
<mask id="mask0_32_11243" style="mask-type:luminance" maskUnits="userSpaceOnUse" x="2" y="2" width="18" height="18">
<path d="M19.25 2.75H2.75V19.25H19.25V2.75Z" fill="white"/>
</mask>
<g mask="url(#mask0_32_11243)">
<path d="M5.77842 14.0973L3.55957 12.3451L4.86543 9.9267L6.82813 10.5836L5.77842 14.0973Z" fill="#FC801D"/>
<g filter="url(#filter1_d_32_11243)">
<path d="M18.4753 7.47845L18.2036 16.2156L12.3924 18.5429L9.22754 16.5L18.4753 7.47845Z" fill="#087CFA"/>
</g>
<g filter="url(#filter2_d_32_11243)">
<path d="M18.4759 7.47844L15.6001 10.2834L11.9072 5.753L13.7301 3.70386L18.4759 7.47844Z" fill="#7557B2"/>
</g>
<g filter="url(#filter3_d_32_11243)">
<path fill-rule="evenodd" clip-rule="evenodd" d="M3.38965 9.43328L6.82794 10.5836L15.5996 10.2834L10.5114 4.04015L5.57394 3.45715L3.38965 9.43328Z" fill="url(#paint1_linear_32_11243)"/>
</g>
<g filter="url(#filter4_d_32_11243)">
<path d="M4.60547 18.1705L9.22703 16.5L15.5992 10.2834L6.82747 10.5836L5.57347 14.7809L4.60547 18.1705Z" fill="#FF318C"/>
</g>
<g filter="url(#filter5_d_32_11243)">
<path d="M6.28613 6.28571H15.7147V15.7143H6.28613V6.28571Z" fill="black"/>
</g>
<path d="M7.46094 13.9323H10.9966V14.5215H7.46094V13.9323Z" fill="white"/>
<path d="M9.22621 8.11176V7.46747H7.46777V8.11176H7.96121V10.3369H7.46777V10.9812H9.22621V10.3369H8.73435V8.11176H9.22621Z" fill="white"/>
<path d="M10.9124 11.0314C10.6728 11.0392 10.4352 10.9851 10.2225 10.8743C10.0479 10.7803 9.89225 10.6545 9.76367 10.5034L10.2492 9.96129C10.338 10.0614 10.4406 10.1482 10.5541 10.219C10.6555 10.2819 10.7727 10.3146 10.892 10.3133C10.9557 10.3164 11.0195 10.3057 11.0788 10.2822C11.1382 10.2586 11.1918 10.2226 11.2361 10.1766C11.3308 10.0486 11.3754 9.89046 11.3618 9.73186V7.46429H12.1475V9.76644C12.151 9.95289 12.1218 10.1385 12.0611 10.3149C12.0094 10.4615 11.9249 10.5943 11.8141 10.7032C11.7033 10.8122 11.569 10.8943 11.4215 10.9434C11.2541 11.0001 11.0782 11.0278 10.9014 11.0251" fill="white"/>
</g>
</g>
</g>
<defs>
<filter id="filter0_i_32_11243" x="1.375" y="1.375" width="19.25" height="23.25" filterUnits="userSpaceOnUse" color-interpolation-filters="sRGB">
<feFlood flood-opacity="0" result="BackgroundImageFix"/>
<feBlend mode="normal" in="SourceGraphic" in2="BackgroundImageFix" result="shape"/>
<feColorMatrix in="SourceAlpha" type="matrix" values="0 0 0 0 0 0 0 0 0 0 0 0 0 0 0 0 0 0 127 0" result="hardAlpha"/>
<feOffset dy="4"/>
<feGaussianBlur stdDeviation="2"/>
<feComposite in2="hardAlpha" operator="arithmetic" k2="-1" k3="1"/>
<feColorMatrix type="matrix" values="0 0 0 0 0 0 0 0 0 0 0 0 0 0 0 0 0 0 0.25 0"/>
<feBlend mode="normal" in2="shape" result="effect1_innerShadow_32_11243"/>
</filter>
<filter id="filter1_d_32_11243" x="5.22754" y="5.47845" width="17.248" height="19.0645" filterUnits="userSpaceOnUse" color-interpolation-filters="sRGB">
<feFlood flood-opacity="0" result="BackgroundImageFix"/>
<feColorMatrix in="SourceAlpha" type="matrix" values="0 0 0 0 0 0 0 0 0 0 0 0 0 0 0 0 0 0 127 0" result="hardAlpha"/>
<feOffset dy="2"/>
<feGaussianBlur stdDeviation="2"/>
<feComposite in2="hardAlpha" operator="out"/>
<feColorMatrix type="matrix" values="0 0 0 0 0 0 0 0 0 0 0 0 0 0 0 0 0 0 0.25 0"/>
<feBlend mode="normal" in2="BackgroundImageFix" result="effect1_dropShadow_32_11243"/>
<feBlend mode="normal" in="SourceGraphic" in2="effect1_dropShadow_32_11243" result="shape"/>
</filter>
<filter id="filter2_d_32_11243" x="7.90723" y="1.70386" width="14.5684" height="14.5796" filterUnits="userSpaceOnUse" color-interpolation-filters="sRGB">
<feFlood flood-opacity="0" result="BackgroundImageFix"/>
<feColorMatrix in="SourceAlpha" type="matrix" values="0 0 0 0 0 0 0 0 0 0 0 0 0 0 0 0 0 0 127 0" result="hardAlpha"/>
<feOffset dy="2"/>
<feGaussianBlur stdDeviation="2"/>
<feComposite in2="hardAlpha" operator="out"/>
<feColorMatrix type="matrix" values="0 0 0 0 0 0 0 0 0 0 0 0 0 0 0 0 0 0 0.25 0"/>
<feBlend mode="normal" in2="BackgroundImageFix" result="effect1_dropShadow_32_11243"/>
<feBlend mode="normal" in="SourceGraphic" in2="effect1_dropShadow_32_11243" result="shape"/>
</filter>
<filter id="filter3_d_32_11243" x="-0.610352" y="1.45715" width="20.21" height="15.1264" filterUnits="userSpaceOnUse" color-interpolation-filters="sRGB">
<feFlood flood-opacity="0" result="BackgroundImageFix"/>
<feColorMatrix in="SourceAlpha" type="matrix" values="0 0 0 0 0 0 0 0 0 0 0 0 0 0 0 0 0 0 127 0" result="hardAlpha"/>
<feOffset dy="2"/>
<feGaussianBlur stdDeviation="2"/>
<feComposite in2="hardAlpha" operator="out"/>
<feColorMatrix type="matrix" values="0 0 0 0 0 0 0 0 0 0 0 0 0 0 0 0 0 0 0.25 0"/>
<feBlend mode="normal" in2="BackgroundImageFix" result="effect1_dropShadow_32_11243"/>
<feBlend mode="normal" in="SourceGraphic" in2="effect1_dropShadow_32_11243" result="shape"/>
</filter>
<filter id="filter4_d_32_11243" x="0.605469" y="8.28345" width="18.9941" height="15.887" filterUnits="userSpaceOnUse" color-interpolation-filters="sRGB">
<feFlood flood-opacity="0" result="BackgroundImageFix"/>
<feColorMatrix in="SourceAlpha" type="matrix" values="0 0 0 0 0 0 0 0 0 0 0 0 0 0 0 0 0 0 127 0" result="hardAlpha"/>
<feOffset dy="2"/>
<feGaussianBlur stdDeviation="2"/>
<feComposite in2="hardAlpha" operator="out"/>
<feColorMatrix type="matrix" values="0 0 0 0 0 0 0 0 0 0 0 0 0 0 0 0 0 0 0.25 0"/>
<feBlend mode="normal" in2="BackgroundImageFix" result="effect1_dropShadow_32_11243"/>
<feBlend mode="normal" in="SourceGraphic" in2="effect1_dropShadow_32_11243" result="shape"/>
</filter>
<filter id="filter5_d_32_11243" x="2.28613" y="4.28571" width="17.4287" height="17.4286" filterUnits="userSpaceOnUse" color-interpolation-filters="sRGB">
<feFlood flood-opacity="0" result="BackgroundImageFix"/>
<feColorMatrix in="SourceAlpha" type="matrix" values="0 0 0 0 0 0 0 0 0 0 0 0 0 0 0 0 0 0 127 0" result="hardAlpha"/>
<feOffset dy="2"/>
<feGaussianBlur stdDeviation="2"/>
<feComposite in2="hardAlpha" operator="out"/>
<feColorMatrix type="matrix" values="0 0 0 0 0 0 0 0 0 0 0 0 0 0 0 0 0 0 0.25 0"/>
<feBlend mode="normal" in2="BackgroundImageFix" result="effect1_dropShadow_32_11243"/>
<feBlend mode="normal" in="SourceGraphic" in2="effect1_dropShadow_32_11243" result="shape"/>
</filter>
<linearGradient id="paint0_linear_32_11243" x1="11" y1="0" x2="11" y2="22" gradientUnits="userSpaceOnUse">
<stop stop-color="#FC801D"/>
<stop offset="0.244792" stop-color="#FE285B"/>
<stop offset="0.510417" stop-color="#FF318C"/>
<stop offset="0.744792" stop-color="#7557B2"/>
<stop offset="1" stop-color="#087CFA"/>
</linearGradient>
<linearGradient id="paint1_linear_32_11243" x1="5.69179" y1="6.93157" x2="15.1329" y2="22.5485" gradientUnits="userSpaceOnUse">
<stop stop-color="#FE2857"/>
<stop offset="0.08" stop-color="#FE295F"/>
<stop offset="0.21" stop-color="#FF2D76"/>
<stop offset="0.3" stop-color="#FF318C"/>
<stop offset="0.429456" stop-color="#EA3896"/>
<stop offset="0.55" stop-color="#B248AE"/>
<stop offset="0.79" stop-color="#5A63D6"/>
<stop offset="1" stop-color="#087CFA"/>
</linearGradient>
<clipPath id="clip0_32_11243">
<rect width="22" height="22" fill="white"/>
</clipPath>
</defs>
</svg>
