<svg width="22" height="22" viewBox="0 0 22 22" fill="none" xmlns="http://www.w3.org/2000/svg">
<g clip-path="url(#clip0_32_11399)">
<path d="M16.5 0H5.5C2.46243 0 0 2.46243 0 5.5V16.5C0 19.5376 2.46243 22 5.5 22H16.5C19.5376 22 22 19.5376 22 16.5V5.5C22 2.46243 19.5376 0 16.5 0Z" fill="url(#paint0_linear_32_11399)"/>
<g filter="url(#filter0_i_32_11399)">
<path d="M16.5 1.375H5.5C3.22183 1.375 1.375 3.22183 1.375 5.5V16.5C1.375 18.7782 3.22183 20.625 5.5 20.625H16.5C18.7782 20.625 20.625 18.7782 20.625 16.5V5.5C20.625 3.22183 18.7782 1.375 16.5 1.375Z" fill="black" fill-opacity="0.7"/>
<g filter="url(#filter1_d_32_11399)">
<path fill-rule="evenodd" clip-rule="evenodd" d="M10.8281 4.125H6.35938C5.59998 4.125 4.98438 4.7406 4.98438 5.5V16.5C4.98438 17.2593 5.59998 17.875 6.35938 17.875H15.6406C16.4 17.875 17.0156 17.2593 17.0156 16.5V10.3125L10.8281 4.125Z" fill="url(#paint1_linear_32_11399)"/>
</g>
<g filter="url(#filter2_d_32_11399)">
<path d="M17.0156 5.5C17.0156 4.7406 16.4 4.125 15.6406 4.125H12.8906L17.0156 8.25V5.5Z" fill="#97989A"/>
</g>
<path d="M6.70312 12.0312H15.2969M6.70312 13.4062H15.2969M6.70312 14.7812H13.5781" stroke="white" stroke-width="4" stroke-linecap="round" stroke-linejoin="round"/>
<path d="M7.39062 9.96875H6.875C6.78007 9.96875 6.70312 9.8918 6.70312 9.79688V7.39062C6.70312 7.2957 6.78007 7.21875 6.875 7.21875H10.6562C10.7512 7.21875 10.8281 7.2957 10.8281 7.39062V9.79688C10.8281 9.8918 10.7512 9.96875 10.6562 9.96875H9.28125M7.39062 9.96875L7.82019 9.39601C7.87002 9.32955 7.96025 9.30825 8.03455 9.34539L9.28125 9.96875M7.39062 9.96875H9.28125" stroke="white" stroke-opacity="0.7" stroke-width="4" stroke-linecap="round" stroke-linejoin="round"/>
<path d="M8.9375 8.9375C9.12735 8.9375 9.28125 8.7836 9.28125 8.59375C9.28125 8.4039 9.12735 8.25 8.9375 8.25C8.74765 8.25 8.59375 8.4039 8.59375 8.59375C8.59375 8.7836 8.74765 8.9375 8.9375 8.9375Z" fill="white" fill-opacity="0.7"/>
</g>
</g>
<defs>
<filter id="filter0_i_32_11399" x="1.375" y="1.375" width="19.25" height="23.25" filterUnits="userSpaceOnUse" color-interpolation-filters="sRGB">
<feFlood flood-opacity="0" result="BackgroundImageFix"/>
<feBlend mode="normal" in="SourceGraphic" in2="BackgroundImageFix" result="shape"/>
<feColorMatrix in="SourceAlpha" type="matrix" values="0 0 0 0 0 0 0 0 0 0 0 0 0 0 0 0 0 0 127 0" result="hardAlpha"/>
<feOffset dy="4"/>
<feGaussianBlur stdDeviation="2"/>
<feComposite in2="hardAlpha" operator="arithmetic" k2="-1" k3="1"/>
<feColorMatrix type="matrix" values="0 0 0 0 0 0 0 0 0 0 0 0 0 0 0 0 0 0 0.25 0"/>
<feBlend mode="normal" in2="shape" result="effect1_innerShadow_32_11399"/>
</filter>
<filter id="filter1_d_32_11399" x="0.984375" y="2.125" width="20.0312" height="21.75" filterUnits="userSpaceOnUse" color-interpolation-filters="sRGB">
<feFlood flood-opacity="0" result="BackgroundImageFix"/>
<feColorMatrix in="SourceAlpha" type="matrix" values="0 0 0 0 0 0 0 0 0 0 0 0 0 0 0 0 0 0 127 0" result="hardAlpha"/>
<feOffset dy="2"/>
<feGaussianBlur stdDeviation="2"/>
<feComposite in2="hardAlpha" operator="out"/>
<feColorMatrix type="matrix" values="0 0 0 0 0 0 0 0 0 0 0 0 0 0 0 0 0 0 0.25 0"/>
<feBlend mode="normal" in2="BackgroundImageFix" result="effect1_dropShadow_32_11399"/>
<feBlend mode="normal" in="SourceGraphic" in2="effect1_dropShadow_32_11399" result="shape"/>
</filter>
<filter id="filter2_d_32_11399" x="8.89062" y="2.125" width="12.125" height="12.125" filterUnits="userSpaceOnUse" color-interpolation-filters="sRGB">
<feFlood flood-opacity="0" result="BackgroundImageFix"/>
<feColorMatrix in="SourceAlpha" type="matrix" values="0 0 0 0 0 0 0 0 0 0 0 0 0 0 0 0 0 0 127 0" result="hardAlpha"/>
<feOffset dy="2"/>
<feGaussianBlur stdDeviation="2"/>
<feComposite in2="hardAlpha" operator="out"/>
<feColorMatrix type="matrix" values="0 0 0 0 0 0 0 0 0 0 0 0 0 0 0 0 0 0 0.25 0"/>
<feBlend mode="normal" in2="BackgroundImageFix" result="effect1_dropShadow_32_11399"/>
<feBlend mode="normal" in="SourceGraphic" in2="effect1_dropShadow_32_11399" result="shape"/>
</filter>
<linearGradient id="paint0_linear_32_11399" x1="22" y1="0" x2="0" y2="22" gradientUnits="userSpaceOnUse">
<stop stop-color="#1FCAF8"/>
<stop offset="1" stop-color="#0D44B1"/>
</linearGradient>
<linearGradient id="paint1_linear_32_11399" x1="17.0156" y1="4.125" x2="3.26562" y2="17.875" gradientUnits="userSpaceOnUse">
<stop stop-color="#1FCAF8"/>
<stop offset="1" stop-color="#0D44B1"/>
</linearGradient>
<clipPath id="clip0_32_11399">
<rect width="22" height="22" fill="white"/>
</clipPath>
</defs>
</svg>
