<svg width="22" height="22" viewBox="0 0 22 22" fill="none" xmlns="http://www.w3.org/2000/svg">
<g clip-path="url(#clip0_32_11383)">
<path d="M16.5 0H5.5C2.46243 0 0 2.46243 0 5.5V16.5C0 19.5376 2.46243 22 5.5 22H16.5C19.5376 22 22 19.5376 22 16.5V5.5C22 2.46243 19.5376 0 16.5 0Z" fill="url(#paint0_linear_32_11383)"/>
<g filter="url(#filter0_i_32_11383)">
<path d="M16.5 1.375H5.5C3.22183 1.375 1.375 3.22183 1.375 5.5V16.5C1.375 18.7782 3.22183 20.625 5.5 20.625H16.5C18.7782 20.625 20.625 18.7782 20.625 16.5V5.5C20.625 3.22183 18.7782 1.375 16.5 1.375Z" fill="black" fill-opacity="0.7"/>
<g filter="url(#filter1_d_32_11383)">
<path fill-rule="evenodd" clip-rule="evenodd" d="M11.6875 4.125H5.5C4.7406 4.125 4.125 4.7406 4.125 5.5V16.5C4.125 17.2593 4.7406 17.875 5.5 17.875H16.5C17.2593 17.875 17.875 17.2593 17.875 16.5V10.3125L11.6875 4.125Z" fill="url(#paint1_linear_32_11383)"/>
</g>
<g filter="url(#filter2_d_32_11383)">
<path d="M11.6875 8.9375C11.6875 9.6969 12.3031 10.3125 13.0625 10.3125H17.8749L11.6875 4.125V8.9375Z" fill="#FAFAFA"/>
</g>
<g filter="url(#filter3_d_32_11383)">
<path d="M17.8749 5.5C17.8749 4.7406 17.2594 4.125 16.5 4.125H13.75L17.8749 8.25V5.5Z" fill="#97989A"/>
</g>
<mask id="mask0_32_11383" style="mask-type:alpha" maskUnits="userSpaceOnUse" x="7" y="10" width="8" height="8">
<path d="M14.4375 10.3125H7.5625V17.1875H14.4375V10.3125Z" fill="#D9D9D9"/>
</mask>
<g mask="url(#mask0_32_11383)">
<path fill-rule="evenodd" clip-rule="evenodd" d="M10.7135 16.0417H11.2793L11.3796 15.2826C11.5276 15.2444 11.6648 15.1883 11.7913 15.1143C11.9179 15.0403 12.0336 14.9508 12.1387 14.8457L12.8477 15.1394L13.127 14.6524L12.5111 14.1869C12.5349 14.12 12.5517 14.0496 12.5612 13.9756C12.5707 13.9016 12.5755 13.8264 12.5755 13.75C12.5755 13.6737 12.5707 13.5985 12.5612 13.5244C12.5517 13.4505 12.5349 13.38 12.5111 13.3132L13.127 12.8477L12.8477 12.3607L12.1387 12.6615C12.0336 12.5517 11.9179 12.4598 11.7913 12.3858C11.6648 12.3118 11.5276 12.2557 11.3796 12.2175L11.2865 11.4584H10.7207L10.6204 12.2175C10.4724 12.2557 10.3352 12.3118 10.2087 12.3858C10.0821 12.4598 9.96636 12.5493 9.86133 12.6543L9.15234 12.3607L8.87305 12.8477L9.48893 13.306C9.46505 13.3776 9.44835 13.4493 9.43881 13.5209C9.42925 13.5925 9.42447 13.6689 9.42447 13.75C9.42447 13.8264 9.42925 13.9004 9.43881 13.972C9.44835 14.0436 9.46505 14.1153 9.48893 14.1869L8.87305 14.6524L9.15234 15.1394L9.86133 14.8386C9.96636 14.9484 10.0821 15.0403 10.2087 15.1143C10.3352 15.1883 10.4724 15.2444 10.6204 15.2826L10.7135 16.0417ZM11.7233 14.459C11.5276 14.6548 11.2912 14.7526 11.0143 14.7526C10.7326 14.7526 10.4951 14.6548 10.3018 14.459C10.1084 14.2633 10.0117 14.0269 10.0117 13.75C10.0117 13.4731 10.1084 13.2368 10.3018 13.0411C10.4951 12.8453 10.7326 12.7474 11.0143 12.7474C11.2912 12.7474 11.5276 12.8453 11.7233 13.0411C11.919 13.2368 12.0169 13.4731 12.0169 13.75C12.0169 14.0269 11.919 14.2633 11.7233 14.459Z" fill="url(#paint2_linear_32_11383)"/>
<path fill-rule="evenodd" clip-rule="evenodd" d="M10.2764 16.543C10.3289 16.5907 10.3909 16.6146 10.4626 16.6146H11.5368C11.6084 16.6146 11.6705 16.5907 11.723 16.543C11.7755 16.4952 11.8065 16.4356 11.8161 16.364L11.902 15.6979C11.9593 15.6741 12.0166 15.6454 12.0739 15.612C12.1312 15.5786 12.1861 15.5428 12.2386 15.5046L12.8473 15.7624C12.9142 15.791 12.9822 15.7934 13.0514 15.7696C13.1207 15.7457 13.1744 15.7027 13.2126 15.6407L13.7425 14.724C13.7807 14.6619 13.7926 14.5951 13.7783 14.5235C13.764 14.4518 13.7282 14.3946 13.6709 14.3516L13.1338 13.9434C13.1433 13.91 13.1481 13.8777 13.1481 13.8467V13.6533C13.1481 13.6223 13.1457 13.5901 13.1409 13.5567L13.6781 13.1485C13.7354 13.1055 13.7712 13.0482 13.7855 12.9766C13.7998 12.905 13.7879 12.8381 13.7497 12.7761L13.2197 11.8522C13.1815 11.7902 13.129 11.7484 13.0622 11.7269C12.9953 11.7054 12.9285 11.709 12.8616 11.7377L12.2386 11.9955C12.1861 11.9573 12.1324 11.9215 12.0775 11.8881C12.0226 11.8546 11.9641 11.826 11.902 11.8021L11.8161 11.1361C11.8065 11.0645 11.7755 11.0048 11.723 10.9571C11.6705 10.9093 11.6084 10.8854 11.5368 10.8854H10.4626C10.3909 10.8854 10.3289 10.9093 10.2764 10.9571C10.2238 11.0048 10.1928 11.0645 10.1833 11.1361L10.0973 11.8021C10.04 11.826 9.98274 11.8546 9.92546 11.8881C9.86817 11.9215 9.81326 11.9573 9.76075 11.9955L9.1377 11.7377C9.07086 11.709 9.00402 11.7054 8.93717 11.7269C8.87033 11.7484 8.81781 11.7902 8.77962 11.8522L8.24967 12.7761C8.21148 12.8381 8.19954 12.905 8.21387 12.9766C8.22819 13.0482 8.26399 13.1055 8.32129 13.1485L8.8584 13.5567C8.85363 13.5901 8.85124 13.6223 8.85124 13.6533V13.8467C8.85124 13.8777 8.85363 13.91 8.8584 13.9434L8.32129 14.3516C8.26399 14.3946 8.22819 14.4518 8.21387 14.5235C8.19954 14.5951 8.21148 14.6619 8.24967 14.724L8.77962 15.6478C8.81781 15.7099 8.87033 15.7516 8.93717 15.7731C9.00402 15.7946 9.07086 15.791 9.1377 15.7624L9.76075 15.5046C9.81326 15.5428 9.86697 15.5786 9.92188 15.612C9.97678 15.6454 10.0353 15.6741 10.0973 15.6979L10.1833 16.364C10.1928 16.4356 10.2238 16.4952 10.2764 16.543ZM11.279 16.0417H10.7132L10.6201 15.2826C10.4721 15.2444 10.3348 15.1883 10.2083 15.1143C10.0818 15.0403 9.96604 14.9484 9.861 14.8386L9.15202 15.1393L8.87272 14.6524L9.4886 14.1869C9.46473 14.1153 9.44802 14.0436 9.43848 13.972C9.42893 13.9004 9.42415 13.8264 9.42415 13.75C9.42415 13.6689 9.42893 13.5925 9.43848 13.5209C9.44802 13.4492 9.46473 13.3776 9.4886 13.306L8.87272 12.8477L9.15202 12.3607L9.861 12.6543C9.96604 12.5493 10.0818 12.4598 10.2083 12.3858C10.3348 12.3118 10.4721 12.2557 10.6201 12.2175L10.7204 11.4584H11.2861L11.3792 12.2175C11.5272 12.2557 11.6645 12.3118 11.791 12.3858C11.9175 12.4598 12.0333 12.5517 12.1383 12.6615L12.8473 12.3607L13.1266 12.8477L12.5107 13.3132C12.5346 13.38 12.5513 13.4504 12.5609 13.5244C12.5704 13.5984 12.5752 13.6736 12.5752 13.75C12.5752 13.8264 12.5704 13.9016 12.5609 13.9756C12.5513 14.0496 12.5346 14.12 12.5107 14.1869L13.1266 14.6524L12.8473 15.1393L12.1383 14.8457C12.0333 14.9508 11.9175 15.0403 11.791 15.1143C11.6645 15.1883 11.5272 15.2444 11.3792 15.2826L11.279 16.0417Z" fill="url(#paint3_linear_32_11383)"/>
</g>
</g>
</g>
<defs>
<filter id="filter0_i_32_11383" x="1.375" y="1.375" width="19.25" height="23.25" filterUnits="userSpaceOnUse" color-interpolation-filters="sRGB">
<feFlood flood-opacity="0" result="BackgroundImageFix"/>
<feBlend mode="normal" in="SourceGraphic" in2="BackgroundImageFix" result="shape"/>
<feColorMatrix in="SourceAlpha" type="matrix" values="0 0 0 0 0 0 0 0 0 0 0 0 0 0 0 0 0 0 127 0" result="hardAlpha"/>
<feOffset dy="4"/>
<feGaussianBlur stdDeviation="2"/>
<feComposite in2="hardAlpha" operator="arithmetic" k2="-1" k3="1"/>
<feColorMatrix type="matrix" values="0 0 0 0 0 0 0 0 0 0 0 0 0 0 0 0 0 0 0.25 0"/>
<feBlend mode="normal" in2="shape" result="effect1_innerShadow_32_11383"/>
</filter>
<filter id="filter1_d_32_11383" x="0.125" y="2.125" width="21.75" height="21.75" filterUnits="userSpaceOnUse" color-interpolation-filters="sRGB">
<feFlood flood-opacity="0" result="BackgroundImageFix"/>
<feColorMatrix in="SourceAlpha" type="matrix" values="0 0 0 0 0 0 0 0 0 0 0 0 0 0 0 0 0 0 127 0" result="hardAlpha"/>
<feOffset dy="2"/>
<feGaussianBlur stdDeviation="2"/>
<feComposite in2="hardAlpha" operator="out"/>
<feColorMatrix type="matrix" values="0 0 0 0 0 0 0 0 0 0 0 0 0 0 0 0 0 0 0.25 0"/>
<feBlend mode="normal" in2="BackgroundImageFix" result="effect1_dropShadow_32_11383"/>
<feBlend mode="normal" in="SourceGraphic" in2="effect1_dropShadow_32_11383" result="shape"/>
</filter>
<filter id="filter2_d_32_11383" x="7.6875" y="2.125" width="14.1875" height="14.1875" filterUnits="userSpaceOnUse" color-interpolation-filters="sRGB">
<feFlood flood-opacity="0" result="BackgroundImageFix"/>
<feColorMatrix in="SourceAlpha" type="matrix" values="0 0 0 0 0 0 0 0 0 0 0 0 0 0 0 0 0 0 127 0" result="hardAlpha"/>
<feOffset dy="2"/>
<feGaussianBlur stdDeviation="2"/>
<feComposite in2="hardAlpha" operator="out"/>
<feColorMatrix type="matrix" values="0 0 0 0 0 0 0 0 0 0 0 0 0 0 0 0 0 0 0.25 0"/>
<feBlend mode="normal" in2="BackgroundImageFix" result="effect1_dropShadow_32_11383"/>
<feBlend mode="normal" in="SourceGraphic" in2="effect1_dropShadow_32_11383" result="shape"/>
</filter>
<filter id="filter3_d_32_11383" x="9.75" y="2.125" width="12.125" height="12.125" filterUnits="userSpaceOnUse" color-interpolation-filters="sRGB">
<feFlood flood-opacity="0" result="BackgroundImageFix"/>
<feColorMatrix in="SourceAlpha" type="matrix" values="0 0 0 0 0 0 0 0 0 0 0 0 0 0 0 0 0 0 127 0" result="hardAlpha"/>
<feOffset dy="2"/>
<feGaussianBlur stdDeviation="2"/>
<feComposite in2="hardAlpha" operator="out"/>
<feColorMatrix type="matrix" values="0 0 0 0 0 0 0 0 0 0 0 0 0 0 0 0 0 0 0.25 0"/>
<feBlend mode="normal" in2="BackgroundImageFix" result="effect1_dropShadow_32_11383"/>
<feBlend mode="normal" in="SourceGraphic" in2="effect1_dropShadow_32_11383" result="shape"/>
</filter>
<linearGradient id="paint0_linear_32_11383" x1="22" y1="0" x2="0" y2="22" gradientUnits="userSpaceOnUse">
<stop stop-color="#97989A"/>
<stop offset="1" stop-color="#505050"/>
</linearGradient>
<linearGradient id="paint1_linear_32_11383" x1="11" y1="4.125" x2="11" y2="17.875" gradientUnits="userSpaceOnUse">
<stop stop-color="#FAFAFA"/>
<stop offset="1" stop-color="#D5D5D5"/>
</linearGradient>
<linearGradient id="paint2_linear_32_11383" x1="11" y1="10.8854" x2="11" y2="16.6146" gradientUnits="userSpaceOnUse">
<stop stop-color="#34C8FF"/>
<stop offset="1" stop-color="#2192E1"/>
</linearGradient>
<linearGradient id="paint3_linear_32_11383" x1="10.9997" y1="10.8854" x2="10.9997" y2="16.6146" gradientUnits="userSpaceOnUse">
<stop stop-color="#34C8FF"/>
<stop offset="1" stop-color="#2192E1"/>
</linearGradient>
<clipPath id="clip0_32_11383">
<rect width="22" height="22" fill="white"/>
</clipPath>
</defs>
</svg>
