<svg width="22" height="22" viewBox="0 0 22 22" fill="none" xmlns="http://www.w3.org/2000/svg">
<g clip-path="url(#clip0_32_11304)">
<path d="M16.5 0H5.5C2.46243 0 0 2.46243 0 5.5V16.5C0 19.5376 2.46243 22 5.5 22H16.5C19.5376 22 22 19.5376 22 16.5V5.5C22 2.46243 19.5376 0 16.5 0Z" fill="url(#paint0_linear_32_11304)"/>
<g filter="url(#filter0_i_32_11304)">
<path d="M16.5 1.375H5.5C3.22183 1.375 1.375 3.22183 1.375 5.5V16.5C1.375 18.7782 3.22183 20.625 5.5 20.625H16.5C18.7782 20.625 20.625 18.7782 20.625 16.5V5.5C20.625 3.22183 18.7782 1.375 16.5 1.375Z" fill="black" fill-opacity="0.7"/>
<g filter="url(#filter1_d_32_11304)">
<path fill-rule="evenodd" clip-rule="evenodd" d="M11.6875 4.125H5.5C4.7406 4.125 4.125 4.7406 4.125 5.5V16.5C4.125 17.2593 4.7406 17.875 5.5 17.875H16.5C17.2593 17.875 17.875 17.2593 17.875 16.5V10.3125L11.6875 4.125Z" fill="url(#paint1_linear_32_11304)"/>
</g>
<g filter="url(#filter2_d_32_11304)">
<path d="M17.8749 5.5C17.8749 4.7406 17.2594 4.125 16.5 4.125H13.75L17.8749 8.25V5.5Z" fill="#97989A"/>
</g>
<path d="M15.125 13.4062C15.125 14.1656 13.2782 14.7812 11 14.7812C8.72183 14.7812 6.875 14.1656 6.875 13.4062V14.7812C6.875 15.5406 8.72183 16.1562 11 16.1562C13.2782 16.1562 15.125 15.5406 15.125 14.7812V13.4062Z" fill="white"/>
<path d="M15.125 11.5156C15.125 12.275 13.2782 12.8906 11 12.8906C8.72183 12.8906 6.875 12.275 6.875 11.5156V12.8906C6.875 13.65 8.72183 14.2656 11 14.2656C13.2782 14.2656 15.125 13.65 15.125 12.8906V11.5156Z" fill="white"/>
<path d="M15.125 9.625C15.125 10.3844 13.2782 11 11 11C8.72183 11 6.875 10.3844 6.875 9.625V11C6.875 11.7594 8.72183 12.375 11 12.375C13.2782 12.375 15.125 11.7594 15.125 11V9.625Z" fill="white"/>
<path d="M11 11C13.2782 11 15.125 10.3844 15.125 9.625C15.125 8.8656 13.2782 8.25 11 8.25C8.72183 8.25 6.875 8.8656 6.875 9.625C6.875 10.3844 8.72183 11 11 11Z" fill="#E6E6E6"/>
</g>
</g>
<defs>
<filter id="filter0_i_32_11304" x="1.375" y="1.375" width="19.25" height="23.25" filterUnits="userSpaceOnUse" color-interpolation-filters="sRGB">
<feFlood flood-opacity="0" result="BackgroundImageFix"/>
<feBlend mode="normal" in="SourceGraphic" in2="BackgroundImageFix" result="shape"/>
<feColorMatrix in="SourceAlpha" type="matrix" values="0 0 0 0 0 0 0 0 0 0 0 0 0 0 0 0 0 0 127 0" result="hardAlpha"/>
<feOffset dy="4"/>
<feGaussianBlur stdDeviation="2"/>
<feComposite in2="hardAlpha" operator="arithmetic" k2="-1" k3="1"/>
<feColorMatrix type="matrix" values="0 0 0 0 0 0 0 0 0 0 0 0 0 0 0 0 0 0 0.25 0"/>
<feBlend mode="normal" in2="shape" result="effect1_innerShadow_32_11304"/>
</filter>
<filter id="filter1_d_32_11304" x="0.125" y="2.125" width="21.75" height="21.75" filterUnits="userSpaceOnUse" color-interpolation-filters="sRGB">
<feFlood flood-opacity="0" result="BackgroundImageFix"/>
<feColorMatrix in="SourceAlpha" type="matrix" values="0 0 0 0 0 0 0 0 0 0 0 0 0 0 0 0 0 0 127 0" result="hardAlpha"/>
<feOffset dy="2"/>
<feGaussianBlur stdDeviation="2"/>
<feComposite in2="hardAlpha" operator="out"/>
<feColorMatrix type="matrix" values="0 0 0 0 0 0 0 0 0 0 0 0 0 0 0 0 0 0 0.25 0"/>
<feBlend mode="normal" in2="BackgroundImageFix" result="effect1_dropShadow_32_11304"/>
<feBlend mode="normal" in="SourceGraphic" in2="effect1_dropShadow_32_11304" result="shape"/>
</filter>
<filter id="filter2_d_32_11304" x="9.75" y="2.125" width="12.125" height="12.125" filterUnits="userSpaceOnUse" color-interpolation-filters="sRGB">
<feFlood flood-opacity="0" result="BackgroundImageFix"/>
<feColorMatrix in="SourceAlpha" type="matrix" values="0 0 0 0 0 0 0 0 0 0 0 0 0 0 0 0 0 0 127 0" result="hardAlpha"/>
<feOffset dy="2"/>
<feGaussianBlur stdDeviation="2"/>
<feComposite in2="hardAlpha" operator="out"/>
<feColorMatrix type="matrix" values="0 0 0 0 0 0 0 0 0 0 0 0 0 0 0 0 0 0 0.25 0"/>
<feBlend mode="normal" in2="BackgroundImageFix" result="effect1_dropShadow_32_11304"/>
<feBlend mode="normal" in="SourceGraphic" in2="effect1_dropShadow_32_11304" result="shape"/>
</filter>
<linearGradient id="paint0_linear_32_11304" x1="22" y1="0" x2="0" y2="22" gradientUnits="userSpaceOnUse">
<stop stop-color="#F353FB"/>
<stop offset="1" stop-color="#7C26AD"/>
</linearGradient>
<linearGradient id="paint1_linear_32_11304" x1="17.875" y1="4.125" x2="4.125" y2="17.875" gradientUnits="userSpaceOnUse">
<stop stop-color="#F353FB"/>
<stop offset="1" stop-color="#7C26AD"/>
</linearGradient>
<clipPath id="clip0_32_11304">
<rect width="22" height="22" fill="white"/>
</clipPath>
</defs>
</svg>
