<svg width="22" height="22" viewBox="0 0 22 22" fill="none" xmlns="http://www.w3.org/2000/svg">
<g clip-path="url(#clip0_32_11325)">
<path d="M16.5 0H5.5C2.46243 0 0 2.46243 0 5.5V16.5C0 19.5376 2.46243 22 5.5 22H16.5C19.5376 22 22 19.5376 22 16.5V5.5C22 2.46243 19.5376 0 16.5 0Z" fill="url(#paint0_linear_32_11325)"/>
<g filter="url(#filter0_i_32_11325)">
<path d="M16.5 1.375H5.5C3.22183 1.375 1.375 3.22183 1.375 5.5V16.5C1.375 18.7782 3.22183 20.625 5.5 20.625H16.5C18.7782 20.625 20.625 18.7782 20.625 16.5V5.5C20.625 3.22183 18.7782 1.375 16.5 1.375Z" fill="black" fill-opacity="0.7"/>
<g filter="url(#filter1_d_32_11325)">
<path fill-rule="evenodd" clip-rule="evenodd" d="M11.6875 4.125H5.5C4.7406 4.125 4.125 4.7406 4.125 5.5V16.5C4.125 17.2593 4.7406 17.875 5.5 17.875H16.5C17.2593 17.875 17.875 17.2593 17.875 16.5V10.3125L11.6875 4.125Z" fill="url(#paint1_linear_32_11325)"/>
</g>
<g filter="url(#filter2_d_32_11325)">
<path d="M17.8749 5.5C17.8749 4.7406 17.2594 4.125 16.5 4.125H13.75L17.8749 8.25V5.5Z" fill="#97989A"/>
</g>
<path d="M7.90625 15.8125C9.42503 15.8125 10.6562 14.5813 10.6562 13.0625C10.6562 11.5437 9.42503 10.3125 7.90625 10.3125C6.38747 10.3125 5.15625 11.5437 5.15625 13.0625C5.15625 14.5813 6.38747 15.8125 7.90625 15.8125Z" fill="#FAFAFA"/>
<path d="M16.1562 12.0312H12.7188C12.5289 12.0312 12.375 12.1852 12.375 12.375V15.8125C12.375 16.0023 12.5289 16.1562 12.7188 16.1562H16.1562C16.3461 16.1562 16.5 16.0023 16.5 15.8125V12.375C16.5 12.1852 16.3461 12.0312 16.1562 12.0312Z" stroke="white" stroke-width="4"/>
<path d="M13.1076 16.8437H8.89217C8.61762 16.8437 8.45388 16.5377 8.60616 16.3093L10.7139 13.1478C10.8499 12.9437 11.1498 12.9437 11.2859 13.1478L13.3936 16.3093C13.5459 16.5377 13.3821 16.8437 13.1076 16.8437Z" fill="#F9E285"/>
</g>
</g>
<defs>
<filter id="filter0_i_32_11325" x="1.375" y="1.375" width="19.25" height="23.25" filterUnits="userSpaceOnUse" color-interpolation-filters="sRGB">
<feFlood flood-opacity="0" result="BackgroundImageFix"/>
<feBlend mode="normal" in="SourceGraphic" in2="BackgroundImageFix" result="shape"/>
<feColorMatrix in="SourceAlpha" type="matrix" values="0 0 0 0 0 0 0 0 0 0 0 0 0 0 0 0 0 0 127 0" result="hardAlpha"/>
<feOffset dy="4"/>
<feGaussianBlur stdDeviation="2"/>
<feComposite in2="hardAlpha" operator="arithmetic" k2="-1" k3="1"/>
<feColorMatrix type="matrix" values="0 0 0 0 0 0 0 0 0 0 0 0 0 0 0 0 0 0 0.25 0"/>
<feBlend mode="normal" in2="shape" result="effect1_innerShadow_32_11325"/>
</filter>
<filter id="filter1_d_32_11325" x="0.125" y="2.125" width="21.75" height="21.75" filterUnits="userSpaceOnUse" color-interpolation-filters="sRGB">
<feFlood flood-opacity="0" result="BackgroundImageFix"/>
<feColorMatrix in="SourceAlpha" type="matrix" values="0 0 0 0 0 0 0 0 0 0 0 0 0 0 0 0 0 0 127 0" result="hardAlpha"/>
<feOffset dy="2"/>
<feGaussianBlur stdDeviation="2"/>
<feComposite in2="hardAlpha" operator="out"/>
<feColorMatrix type="matrix" values="0 0 0 0 0 0 0 0 0 0 0 0 0 0 0 0 0 0 0.25 0"/>
<feBlend mode="normal" in2="BackgroundImageFix" result="effect1_dropShadow_32_11325"/>
<feBlend mode="normal" in="SourceGraphic" in2="effect1_dropShadow_32_11325" result="shape"/>
</filter>
<filter id="filter2_d_32_11325" x="9.75" y="2.125" width="12.125" height="12.125" filterUnits="userSpaceOnUse" color-interpolation-filters="sRGB">
<feFlood flood-opacity="0" result="BackgroundImageFix"/>
<feColorMatrix in="SourceAlpha" type="matrix" values="0 0 0 0 0 0 0 0 0 0 0 0 0 0 0 0 0 0 127 0" result="hardAlpha"/>
<feOffset dy="2"/>
<feGaussianBlur stdDeviation="2"/>
<feComposite in2="hardAlpha" operator="out"/>
<feColorMatrix type="matrix" values="0 0 0 0 0 0 0 0 0 0 0 0 0 0 0 0 0 0 0.25 0"/>
<feBlend mode="normal" in2="BackgroundImageFix" result="effect1_dropShadow_32_11325"/>
<feBlend mode="normal" in="SourceGraphic" in2="effect1_dropShadow_32_11325" result="shape"/>
</filter>
<linearGradient id="paint0_linear_32_11325" x1="22" y1="0" x2="0" y2="22" gradientUnits="userSpaceOnUse">
<stop stop-color="#FFFE4F"/>
<stop offset="1" stop-color="#CE7732"/>
</linearGradient>
<linearGradient id="paint1_linear_32_11325" x1="17.875" y1="4.125" x2="4.125" y2="17.875" gradientUnits="userSpaceOnUse">
<stop stop-color="#FFFE4F"/>
<stop offset="1" stop-color="#CE7732"/>
</linearGradient>
<clipPath id="clip0_32_11325">
<rect width="22" height="22" fill="white"/>
</clipPath>
</defs>
</svg>
