<svg width="22" height="22" viewBox="0 0 22 22" fill="none" xmlns="http://www.w3.org/2000/svg">
<g clip-path="url(#clip0_32_11316)">
<path d="M16.5 0H5.5C2.46243 0 0 2.46243 0 5.5V16.5C0 19.5376 2.46243 22 5.5 22H16.5C19.5376 22 22 19.5376 22 16.5V5.5C22 2.46243 19.5376 0 16.5 0Z" fill="url(#paint0_linear_32_11316)"/>
<g filter="url(#filter0_i_32_11316)">
<path d="M16.5 1.375H5.5C3.22183 1.375 1.375 3.22183 1.375 5.5V16.5C1.375 18.7782 3.22183 20.625 5.5 20.625H16.5C18.7782 20.625 20.625 18.7782 20.625 16.5V5.5C20.625 3.22183 18.7782 1.375 16.5 1.375Z" fill="black" fill-opacity="0.7"/>
<g filter="url(#filter1_d_32_11316)">
<path fill-rule="evenodd" clip-rule="evenodd" d="M11.6875 4.98438H5.5C4.7406 4.98438 4.125 5.59998 4.125 6.35938V15.6406C4.125 16.4 4.7406 17.0156 5.5 17.0156H16.5C17.2593 17.0156 17.875 16.4 17.875 15.6406V11.1719L11.6875 4.98438Z" fill="url(#paint1_linear_32_11316)"/>
</g>
<path d="M6.875 13.2344V14.2656C6.875 14.6453 7.18281 14.9531 7.5625 14.9531H9.625M6.875 13.2344H9.625M6.875 13.2344V11.5156M9.625 14.9531V13.2344M9.625 14.9531H12.375M9.625 13.2344H12.375M9.625 13.2344V11.5156M6.875 11.5156H9.625M6.875 11.5156V10.4844C6.875 10.1047 7.18281 9.79688 7.5625 9.79688H9.625M12.375 13.2344V14.9531M12.375 13.2344H15.125M12.375 13.2344V11.5156M9.625 11.5156H12.375M9.625 11.5156V9.79688M12.375 14.9531H14.4375C14.8172 14.9531 15.125 14.6453 15.125 14.2656V13.2344M15.125 13.2344V11.5156M12.375 11.5156H15.125M12.375 11.5156V9.79688M15.125 11.5156V10.4844C15.125 10.1047 14.8172 9.79688 14.4375 9.79688H12.375M9.625 9.79688H12.375" stroke="white" stroke-width="4"/>
<g filter="url(#filter2_d_32_11316)">
<path d="M17.8749 6.35938C17.8749 5.59998 17.2594 4.98438 16.5 4.98438H13.75L17.8749 9.10938V6.35938Z" fill="#97989A"/>
</g>
</g>
</g>
<defs>
<filter id="filter0_i_32_11316" x="1.375" y="1.375" width="19.25" height="23.25" filterUnits="userSpaceOnUse" color-interpolation-filters="sRGB">
<feFlood flood-opacity="0" result="BackgroundImageFix"/>
<feBlend mode="normal" in="SourceGraphic" in2="BackgroundImageFix" result="shape"/>
<feColorMatrix in="SourceAlpha" type="matrix" values="0 0 0 0 0 0 0 0 0 0 0 0 0 0 0 0 0 0 127 0" result="hardAlpha"/>
<feOffset dy="4"/>
<feGaussianBlur stdDeviation="2"/>
<feComposite in2="hardAlpha" operator="arithmetic" k2="-1" k3="1"/>
<feColorMatrix type="matrix" values="0 0 0 0 0 0 0 0 0 0 0 0 0 0 0 0 0 0 0.25 0"/>
<feBlend mode="normal" in2="shape" result="effect1_innerShadow_32_11316"/>
</filter>
<filter id="filter1_d_32_11316" x="0.125" y="2.98438" width="21.75" height="20.0312" filterUnits="userSpaceOnUse" color-interpolation-filters="sRGB">
<feFlood flood-opacity="0" result="BackgroundImageFix"/>
<feColorMatrix in="SourceAlpha" type="matrix" values="0 0 0 0 0 0 0 0 0 0 0 0 0 0 0 0 0 0 127 0" result="hardAlpha"/>
<feOffset dy="2"/>
<feGaussianBlur stdDeviation="2"/>
<feComposite in2="hardAlpha" operator="out"/>
<feColorMatrix type="matrix" values="0 0 0 0 0 0 0 0 0 0 0 0 0 0 0 0 0 0 0.25 0"/>
<feBlend mode="normal" in2="BackgroundImageFix" result="effect1_dropShadow_32_11316"/>
<feBlend mode="normal" in="SourceGraphic" in2="effect1_dropShadow_32_11316" result="shape"/>
</filter>
<filter id="filter2_d_32_11316" x="9.75" y="2.98438" width="12.125" height="12.125" filterUnits="userSpaceOnUse" color-interpolation-filters="sRGB">
<feFlood flood-opacity="0" result="BackgroundImageFix"/>
<feColorMatrix in="SourceAlpha" type="matrix" values="0 0 0 0 0 0 0 0 0 0 0 0 0 0 0 0 0 0 127 0" result="hardAlpha"/>
<feOffset dy="2"/>
<feGaussianBlur stdDeviation="2"/>
<feComposite in2="hardAlpha" operator="out"/>
<feColorMatrix type="matrix" values="0 0 0 0 0 0 0 0 0 0 0 0 0 0 0 0 0 0 0.25 0"/>
<feBlend mode="normal" in2="BackgroundImageFix" result="effect1_dropShadow_32_11316"/>
<feBlend mode="normal" in="SourceGraphic" in2="effect1_dropShadow_32_11316" result="shape"/>
</filter>
<linearGradient id="paint0_linear_32_11316" x1="22" y1="0" x2="0" y2="22" gradientUnits="userSpaceOnUse">
<stop stop-color="#75EA53"/>
<stop offset="1" stop-color="#068540"/>
</linearGradient>
<linearGradient id="paint1_linear_32_11316" x1="17.875" y1="4.98438" x2="4.125" y2="18.7344" gradientUnits="userSpaceOnUse">
<stop stop-color="#75EA53"/>
<stop offset="1" stop-color="#068540"/>
</linearGradient>
<clipPath id="clip0_32_11316">
<rect width="22" height="22" fill="white"/>
</clipPath>
</defs>
</svg>
