<svg width="22" height="22" viewBox="0 0 22 22" fill="none" xmlns="http://www.w3.org/2000/svg">
<g clip-path="url(#clip0_32_11336)">
<path d="M16.5 0H5.5C2.46243 0 0 2.46243 0 5.5V16.5C0 19.5376 2.46243 22 5.5 22H16.5C19.5376 22 22 19.5376 22 16.5V5.5C22 2.46243 19.5376 0 16.5 0Z" fill="url(#paint0_linear_32_11336)"/>
<g filter="url(#filter0_i_32_11336)">
<path d="M16.5 1.375H5.5C3.22183 1.375 1.375 3.22183 1.375 5.5V16.5C1.375 18.7782 3.22183 20.625 5.5 20.625H16.5C18.7782 20.625 20.625 18.7782 20.625 16.5V5.5C20.625 3.22183 18.7782 1.375 16.5 1.375Z" fill="black" fill-opacity="0.7"/>
<g filter="url(#filter1_d_32_11336)">
<path fill-rule="evenodd" clip-rule="evenodd" d="M11.6875 4.125H5.5C4.7406 4.125 4.125 4.7406 4.125 5.5V16.5C4.125 17.2593 4.7406 17.875 5.5 17.875H16.5C17.2593 17.875 17.875 17.2593 17.875 16.5V10.3125L11.6875 4.125Z" fill="url(#paint1_linear_32_11336)"/>
</g>
<g filter="url(#filter2_d_32_11336)">
<path d="M11.6875 8.9375C11.6875 9.6969 12.3031 10.3125 13.0625 10.3125H17.875L11.6875 4.125V8.9375Z" fill="#FAFAFA"/>
</g>
<g filter="url(#filter3_d_32_11336)">
<path d="M17.8749 5.5C17.8749 4.7406 17.2594 4.125 16.5 4.125H13.75L17.8749 8.25V5.5Z" fill="#97989A"/>
</g>
<mask id="mask0_32_11336" style="mask-type:luminance" maskUnits="userSpaceOnUse" x="5" y="11" width="12" height="6">
<path d="M16.1562 11H5.84375C5.6539 11 5.5 11.1539 5.5 11.3438V16.1562C5.5 16.3461 5.6539 16.5 5.84375 16.5H16.1562C16.3461 16.5 16.5 16.3461 16.5 16.1562V11.3438C16.5 11.1539 16.3461 11 16.1562 11Z" fill="white"/>
</mask>
<g mask="url(#mask0_32_11336)">
<path d="M8.25 12.375H5.5V16.5H8.25V12.375Z" fill="#24AFEA"/>
<path d="M8.25 12.375H5.5V16.5H8.25V12.375Z" fill="url(#paint2_linear_32_11336)"/>
<path d="M11 11H8.25V16.5H11V11Z" fill="#F8883C"/>
<path d="M11 11H8.25V16.5H11V11Z" fill="url(#paint3_linear_32_11336)"/>
<path d="M13.75 13.75H11V16.5H13.75V13.75Z" fill="#F0CD49"/>
<path d="M13.75 13.75H11V16.5H13.75V13.75Z" fill="url(#paint4_linear_32_11336)"/>
<path d="M16.5 12.375H13.75V16.5H16.5V12.375Z" fill="#5BDD4B"/>
<path d="M16.5 12.375H13.75V16.5H16.5V12.375Z" fill="url(#paint5_linear_32_11336)"/>
</g>
</g>
</g>
<defs>
<filter id="filter0_i_32_11336" x="1.375" y="1.375" width="19.25" height="23.25" filterUnits="userSpaceOnUse" color-interpolation-filters="sRGB">
<feFlood flood-opacity="0" result="BackgroundImageFix"/>
<feBlend mode="normal" in="SourceGraphic" in2="BackgroundImageFix" result="shape"/>
<feColorMatrix in="SourceAlpha" type="matrix" values="0 0 0 0 0 0 0 0 0 0 0 0 0 0 0 0 0 0 127 0" result="hardAlpha"/>
<feOffset dy="4"/>
<feGaussianBlur stdDeviation="2"/>
<feComposite in2="hardAlpha" operator="arithmetic" k2="-1" k3="1"/>
<feColorMatrix type="matrix" values="0 0 0 0 0 0 0 0 0 0 0 0 0 0 0 0 0 0 0.25 0"/>
<feBlend mode="normal" in2="shape" result="effect1_innerShadow_32_11336"/>
</filter>
<filter id="filter1_d_32_11336" x="0.125" y="2.125" width="21.75" height="21.75" filterUnits="userSpaceOnUse" color-interpolation-filters="sRGB">
<feFlood flood-opacity="0" result="BackgroundImageFix"/>
<feColorMatrix in="SourceAlpha" type="matrix" values="0 0 0 0 0 0 0 0 0 0 0 0 0 0 0 0 0 0 127 0" result="hardAlpha"/>
<feOffset dy="2"/>
<feGaussianBlur stdDeviation="2"/>
<feComposite in2="hardAlpha" operator="out"/>
<feColorMatrix type="matrix" values="0 0 0 0 0 0 0 0 0 0 0 0 0 0 0 0 0 0 0.25 0"/>
<feBlend mode="normal" in2="BackgroundImageFix" result="effect1_dropShadow_32_11336"/>
<feBlend mode="normal" in="SourceGraphic" in2="effect1_dropShadow_32_11336" result="shape"/>
</filter>
<filter id="filter2_d_32_11336" x="7.6875" y="2.125" width="14.1875" height="14.1875" filterUnits="userSpaceOnUse" color-interpolation-filters="sRGB">
<feFlood flood-opacity="0" result="BackgroundImageFix"/>
<feColorMatrix in="SourceAlpha" type="matrix" values="0 0 0 0 0 0 0 0 0 0 0 0 0 0 0 0 0 0 127 0" result="hardAlpha"/>
<feOffset dy="2"/>
<feGaussianBlur stdDeviation="2"/>
<feComposite in2="hardAlpha" operator="out"/>
<feColorMatrix type="matrix" values="0 0 0 0 0 0 0 0 0 0 0 0 0 0 0 0 0 0 0.25 0"/>
<feBlend mode="normal" in2="BackgroundImageFix" result="effect1_dropShadow_32_11336"/>
<feBlend mode="normal" in="SourceGraphic" in2="effect1_dropShadow_32_11336" result="shape"/>
</filter>
<filter id="filter3_d_32_11336" x="9.75" y="2.125" width="12.125" height="12.125" filterUnits="userSpaceOnUse" color-interpolation-filters="sRGB">
<feFlood flood-opacity="0" result="BackgroundImageFix"/>
<feColorMatrix in="SourceAlpha" type="matrix" values="0 0 0 0 0 0 0 0 0 0 0 0 0 0 0 0 0 0 127 0" result="hardAlpha"/>
<feOffset dy="2"/>
<feGaussianBlur stdDeviation="2"/>
<feComposite in2="hardAlpha" operator="out"/>
<feColorMatrix type="matrix" values="0 0 0 0 0 0 0 0 0 0 0 0 0 0 0 0 0 0 0.25 0"/>
<feBlend mode="normal" in2="BackgroundImageFix" result="effect1_dropShadow_32_11336"/>
<feBlend mode="normal" in="SourceGraphic" in2="effect1_dropShadow_32_11336" result="shape"/>
</filter>
<linearGradient id="paint0_linear_32_11336" x1="22" y1="0" x2="0" y2="22" gradientUnits="userSpaceOnUse">
<stop stop-color="#97989A"/>
<stop offset="1" stop-color="#505050"/>
</linearGradient>
<linearGradient id="paint1_linear_32_11336" x1="11" y1="4.125" x2="11" y2="17.875" gradientUnits="userSpaceOnUse">
<stop stop-color="#FAFAFA"/>
<stop offset="1" stop-color="#D5D5D5"/>
</linearGradient>
<linearGradient id="paint2_linear_32_11336" x1="6.875" y1="12.375" x2="6.875" y2="16.5" gradientUnits="userSpaceOnUse">
<stop stop-opacity="0"/>
<stop offset="1" stop-opacity="0.2"/>
</linearGradient>
<linearGradient id="paint3_linear_32_11336" x1="9.625" y1="11" x2="9.625" y2="16.5" gradientUnits="userSpaceOnUse">
<stop stop-opacity="0"/>
<stop offset="1" stop-opacity="0.2"/>
</linearGradient>
<linearGradient id="paint4_linear_32_11336" x1="12.375" y1="13.75" x2="12.375" y2="16.5" gradientUnits="userSpaceOnUse">
<stop stop-opacity="0"/>
<stop offset="1" stop-opacity="0.2"/>
</linearGradient>
<linearGradient id="paint5_linear_32_11336" x1="15.125" y1="12.375" x2="15.125" y2="16.5" gradientUnits="userSpaceOnUse">
<stop stop-opacity="0"/>
<stop offset="1" stop-opacity="0.2"/>
</linearGradient>
<clipPath id="clip0_32_11336">
<rect width="22" height="22" fill="white"/>
</clipPath>
</defs>
</svg>
