<svg width="22" height="22" viewBox="0 0 22 22" fill="none" xmlns="http://www.w3.org/2000/svg">
<g clip-path="url(#clip0_32_11373)">
<path d="M16.5 0H5.5C2.46243 0 0 2.46243 0 5.5V16.5C0 19.5376 2.46243 22 5.5 22H16.5C19.5376 22 22 19.5376 22 16.5V5.5C22 2.46243 19.5376 0 16.5 0Z" fill="url(#paint0_linear_32_11373)"/>
<g filter="url(#filter0_i_32_11373)">
<path d="M16.5 1.375H5.5C3.22183 1.375 1.375 3.22183 1.375 5.5V16.5C1.375 18.7782 3.22183 20.625 5.5 20.625H16.5C18.7782 20.625 20.625 18.7782 20.625 16.5V5.5C20.625 3.22183 18.7782 1.375 16.5 1.375Z" fill="black" fill-opacity="0.7"/>
<g filter="url(#filter1_d_32_11373)">
<path fill-rule="evenodd" clip-rule="evenodd" d="M11.6875 4.125H5.5C4.7406 4.125 4.125 4.7406 4.125 5.5V16.5C4.125 17.2593 4.7406 17.875 5.5 17.875H16.5C17.2593 17.875 17.875 17.2593 17.875 16.5V10.3125L11.6875 4.125Z" fill="url(#paint1_linear_32_11373)"/>
</g>
<g filter="url(#filter2_d_32_11373)">
<path d="M17.8749 5.5C17.8749 4.7406 17.2594 4.125 16.5 4.125H13.75L17.8749 8.25V5.5Z" fill="#97989A"/>
</g>
<path d="M7.5625 12.7188H8.25L8.9375 14.0938L10.3125 9.96875H14.4375" stroke="white" stroke-width="4" stroke-linecap="round" stroke-linejoin="round"/>
<path d="M13.75 13.75L11.6875 11.6875M13.75 11.6875L12.7188 12.7188L11.6875 13.75" stroke="white" stroke-width="4" stroke-linecap="round" stroke-linejoin="round"/>
</g>
</g>
<defs>
<filter id="filter0_i_32_11373" x="1.375" y="1.375" width="19.25" height="23.25" filterUnits="userSpaceOnUse" color-interpolation-filters="sRGB">
<feFlood flood-opacity="0" result="BackgroundImageFix"/>
<feBlend mode="normal" in="SourceGraphic" in2="BackgroundImageFix" result="shape"/>
<feColorMatrix in="SourceAlpha" type="matrix" values="0 0 0 0 0 0 0 0 0 0 0 0 0 0 0 0 0 0 127 0" result="hardAlpha"/>
<feOffset dy="4"/>
<feGaussianBlur stdDeviation="2"/>
<feComposite in2="hardAlpha" operator="arithmetic" k2="-1" k3="1"/>
<feColorMatrix type="matrix" values="0 0 0 0 0 0 0 0 0 0 0 0 0 0 0 0 0 0 0.25 0"/>
<feBlend mode="normal" in2="shape" result="effect1_innerShadow_32_11373"/>
</filter>
<filter id="filter1_d_32_11373" x="0.125" y="2.125" width="21.75" height="21.75" filterUnits="userSpaceOnUse" color-interpolation-filters="sRGB">
<feFlood flood-opacity="0" result="BackgroundImageFix"/>
<feColorMatrix in="SourceAlpha" type="matrix" values="0 0 0 0 0 0 0 0 0 0 0 0 0 0 0 0 0 0 127 0" result="hardAlpha"/>
<feOffset dy="2"/>
<feGaussianBlur stdDeviation="2"/>
<feComposite in2="hardAlpha" operator="out"/>
<feColorMatrix type="matrix" values="0 0 0 0 0 0 0 0 0 0 0 0 0 0 0 0 0 0 0.25 0"/>
<feBlend mode="normal" in2="BackgroundImageFix" result="effect1_dropShadow_32_11373"/>
<feBlend mode="normal" in="SourceGraphic" in2="effect1_dropShadow_32_11373" result="shape"/>
</filter>
<filter id="filter2_d_32_11373" x="9.75" y="2.125" width="12.125" height="12.125" filterUnits="userSpaceOnUse" color-interpolation-filters="sRGB">
<feFlood flood-opacity="0" result="BackgroundImageFix"/>
<feColorMatrix in="SourceAlpha" type="matrix" values="0 0 0 0 0 0 0 0 0 0 0 0 0 0 0 0 0 0 127 0" result="hardAlpha"/>
<feOffset dy="2"/>
<feGaussianBlur stdDeviation="2"/>
<feComposite in2="hardAlpha" operator="out"/>
<feColorMatrix type="matrix" values="0 0 0 0 0 0 0 0 0 0 0 0 0 0 0 0 0 0 0.25 0"/>
<feBlend mode="normal" in2="BackgroundImageFix" result="effect1_dropShadow_32_11373"/>
<feBlend mode="normal" in="SourceGraphic" in2="effect1_dropShadow_32_11373" result="shape"/>
</filter>
<linearGradient id="paint0_linear_32_11373" x1="22" y1="0" x2="0" y2="22" gradientUnits="userSpaceOnUse">
<stop stop-color="#FF5291"/>
<stop offset="1" stop-color="#C8031F"/>
</linearGradient>
<linearGradient id="paint1_linear_32_11373" x1="17.875" y1="4.125" x2="7.975" y2="17.325" gradientUnits="userSpaceOnUse">
<stop stop-color="#FF5291"/>
<stop offset="1" stop-color="#C8031F"/>
</linearGradient>
<clipPath id="clip0_32_11373">
<rect width="22" height="22" fill="white"/>
</clipPath>
</defs>
</svg>
