<svg width="22" height="22" viewBox="0 0 22 22" fill="none" xmlns="http://www.w3.org/2000/svg">
<g clip-path="url(#clip0_32_11442)">
<path d="M16.5 0H5.5C2.46243 0 0 2.46243 0 5.5V16.5C0 19.5376 2.46243 22 5.5 22H16.5C19.5376 22 22 19.5376 22 16.5V5.5C22 2.46243 19.5376 0 16.5 0Z" fill="url(#paint0_linear_32_11442)"/>
<g filter="url(#filter0_i_32_11442)">
<path d="M16.5 1.375H5.5C3.22183 1.375 1.375 3.22183 1.375 5.5V16.5C1.375 18.7782 3.22183 20.625 5.5 20.625H16.5C18.7782 20.625 20.625 18.7782 20.625 16.5V5.5C20.625 3.22183 18.7782 1.375 16.5 1.375Z" fill="black" fill-opacity="0.7"/>
<mask id="mask0_32_11442" style="mask-type:luminance" maskUnits="userSpaceOnUse" x="2" y="3" width="18" height="16">
<path d="M19.25 3.95312H2.75V18.0469H19.25V3.95312Z" fill="white"/>
</mask>
<g mask="url(#mask0_32_11442)">
<g filter="url(#filter1_d_32_11442)">
<path d="M5.17488 5.79602C5.7729 7.91737 5.50794 10.5717 18.0988 6.55473L18.7666 12.6598C18.8848 13.7406 18.0421 14.6987 16.8772 14.8079C13.8502 9.04083 6.95406 9.84091 3.95332 14.0492L3.28548 7.9441C3.16725 6.86333 4.00991 5.90528 5.17488 5.79602Z" fill="#08A7E6"/>
<path d="M5.17468 5.79603L15.7823 4.80111C16.9473 4.69185 17.9804 5.47397 18.0985 6.55473C11.6682 8.13272 11.2333 12.4021 16.877 14.8079L6.26933 15.8028C5.10438 15.9121 4.07134 15.13 3.95312 14.0492C11.3418 11.7268 10.4818 8.51675 5.17468 5.79603Z" fill="#322374"/>
<path d="M17.0869 5.77893H4.9283C4.35035 5.77893 3.88184 6.24619 3.88184 6.82257V13.9797C3.88184 14.5561 4.35035 15.0233 4.9283 15.0233H17.0869C17.6649 15.0233 18.1334 14.5561 18.1334 13.9797V6.82257C18.1334 6.24619 17.6649 5.77893 17.0869 5.77893Z" fill="white"/>
<path d="M14.1631 15.0183C14.1632 14.5119 14.3649 14.0262 14.7239 13.668C15.0829 13.3099 15.5698 13.1086 16.0777 13.1083C16.5855 13.1081 17.0726 13.309 17.4319 13.6668C17.7913 14.0247 17.9934 14.5102 17.9939 15.0166C17.9944 15.5231 17.7933 16.009 17.4346 16.3676C17.0761 16.7261 16.5894 16.928 16.0816 16.9288C15.5738 16.9296 15.0864 16.7293 14.7267 16.3719C14.3669 16.0145 14.1642 15.5292 14.1631 15.0228" fill="white"/>
<path d="M14.1631 15.0183C14.1632 14.5119 14.3649 14.0262 14.7239 13.668C15.0829 13.3099 15.5698 13.1086 16.0777 13.1083C16.5855 13.1081 17.0726 13.309 17.4319 13.6668C17.7913 14.0247 17.9934 14.5102 17.9939 15.0166C17.9944 15.5231 17.7933 16.009 17.4346 16.3676C17.0761 16.7261 16.5894 16.928 16.0816 16.9288C15.5738 16.9296 15.0864 16.7293 14.7267 16.3719C14.3669 16.0145 14.1642 15.5292 14.1631 15.0228" stroke="#322374" stroke-width="2.66667" stroke-linecap="round" stroke-linejoin="round"/>
<path fill-rule="evenodd" clip-rule="evenodd" d="M15.2951 13.7813L17.5599 15.0853L15.291 16.32L15.2951 13.7813Z" fill="black"/>
</g>
</g>
</g>
</g>
<defs>
<filter id="filter0_i_32_11442" x="1.375" y="1.375" width="19.25" height="23.25" filterUnits="userSpaceOnUse" color-interpolation-filters="sRGB">
<feFlood flood-opacity="0" result="BackgroundImageFix"/>
<feBlend mode="normal" in="SourceGraphic" in2="BackgroundImageFix" result="shape"/>
<feColorMatrix in="SourceAlpha" type="matrix" values="0 0 0 0 0 0 0 0 0 0 0 0 0 0 0 0 0 0 127 0" result="hardAlpha"/>
<feOffset dy="4"/>
<feGaussianBlur stdDeviation="2"/>
<feComposite in2="hardAlpha" operator="arithmetic" k2="-1" k3="1"/>
<feColorMatrix type="matrix" values="0 0 0 0 0 0 0 0 0 0 0 0 0 0 0 0 0 0 0.25 0"/>
<feBlend mode="normal" in2="shape" result="effect1_innerShadow_32_11442"/>
</filter>
<filter id="filter1_d_32_11442" x="-0.725586" y="2.79092" width="24.0527" height="21.4713" filterUnits="userSpaceOnUse" color-interpolation-filters="sRGB">
<feFlood flood-opacity="0" result="BackgroundImageFix"/>
<feColorMatrix in="SourceAlpha" type="matrix" values="0 0 0 0 0 0 0 0 0 0 0 0 0 0 0 0 0 0 127 0" result="hardAlpha"/>
<feOffset dy="2"/>
<feGaussianBlur stdDeviation="2"/>
<feComposite in2="hardAlpha" operator="out"/>
<feColorMatrix type="matrix" values="0 0 0 0 0 0 0 0 0 0 0 0 0 0 0 0 0 0 0.25 0"/>
<feBlend mode="normal" in2="BackgroundImageFix" result="effect1_dropShadow_32_11442"/>
<feBlend mode="normal" in="SourceGraphic" in2="effect1_dropShadow_32_11442" result="shape"/>
</filter>
<linearGradient id="paint0_linear_32_11442" x1="4.55469" y1="17.0156" x2="21.7418" y2="3.52296" gradientUnits="userSpaceOnUse">
<stop stop-color="#322374"/>
<stop offset="1" stop-color="#08A7E6"/>
</linearGradient>
<clipPath id="clip0_32_11442">
<rect width="22" height="22" fill="white"/>
</clipPath>
</defs>
</svg>
