<svg width="22" height="22" viewBox="0 0 22 22" fill="none" xmlns="http://www.w3.org/2000/svg">
<g clip-path="url(#clip0_32_11457)">
<path d="M16.5 0H5.5C2.46243 0 0 2.46243 0 5.5V16.5C0 19.5376 2.46243 22 5.5 22H16.5C19.5376 22 22 19.5376 22 16.5V5.5C22 2.46243 19.5376 0 16.5 0Z" fill="url(#paint0_linear_32_11457)"/>
<g filter="url(#filter0_i_32_11457)">
<path d="M16.5 1.375H5.5C3.22183 1.375 1.375 3.22183 1.375 5.5V16.5C1.375 18.7782 3.22183 20.625 5.5 20.625H16.5C18.7782 20.625 20.625 18.7782 20.625 16.5V5.5C20.625 3.22183 18.7782 1.375 16.5 1.375Z" fill="black" fill-opacity="0.7"/>
<mask id="mask0_32_11457" style="mask-type:luminance" maskUnits="userSpaceOnUse" x="4" y="4" width="14" height="14">
<path d="M17.875 4.125H4.125V17.875H17.875V4.125Z" fill="white"/>
</mask>
<g mask="url(#mask0_32_11457)">
<path d="M4.95234 4.71771L12.5606 4.15575C13.4952 4.07559 13.7353 4.12963 14.323 4.55684L16.7516 6.26775C17.1522 6.562 17.2855 6.64216 17.2855 6.96254V16.346C17.2855 16.934 17.072 17.2819 16.3244 17.335L7.48921 17.8701C6.92821 17.8967 6.66105 17.8165 6.36721 17.4421L4.57875 15.1164C4.25796 14.6884 4.125 14.368 4.125 13.9935V5.65271C4.125 5.17188 4.33854 4.77093 4.95234 4.71771Z" fill="white"/>
<g filter="url(#filter1_d_32_11457)">
<path fill-rule="evenodd" clip-rule="evenodd" d="M12.5606 4.15589L4.95234 4.71785C4.33854 4.77093 4.125 5.17201 4.125 5.65271V13.9935C4.125 14.3679 4.25796 14.6883 4.57875 15.1164L6.36721 17.4419C6.66105 17.8165 6.92821 17.8967 7.48921 17.8701L16.3246 17.3352C17.0716 17.2819 17.2856 16.934 17.2856 16.3461V6.96268C17.2856 6.6588 17.1656 6.57121 16.8123 6.31189L14.323 4.55684C13.7354 4.12963 13.4952 4.07573 12.5606 4.15589ZM7.689 6.80909C6.96754 6.85763 6.80391 6.86863 6.39416 6.53546L5.35246 5.70689C5.24659 5.59964 5.2998 5.46585 5.56655 5.43918L12.8806 4.90471C13.4948 4.85109 13.8146 5.06518 14.0548 5.25218L15.3092 6.16105C15.3629 6.18814 15.4963 6.34805 15.3358 6.34805L7.7825 6.80276L7.689 6.80909ZM6.84791 16.2659V8.30014C6.84791 7.95226 6.95475 7.7918 7.27457 7.76485L15.95 7.25693C16.2443 7.23039 16.3772 7.41739 16.3772 7.76471V15.6774C16.3772 16.0253 16.3236 16.3196 15.8433 16.3461L7.54146 16.8273C7.06118 16.8539 6.84791 16.694 6.84791 16.2659ZM15.0429 8.72721C15.0961 8.96784 15.0429 9.20846 14.8023 9.23596L14.4022 9.3153V15.1966C14.0547 15.3836 13.7349 15.4904 13.4676 15.4904C13.0404 15.4904 12.9337 15.3566 12.6137 14.956L9.99707 10.8392V14.8222L10.8248 15.0096C10.8248 15.0096 10.8248 15.4908 10.157 15.4908L8.31586 15.5977C8.26224 15.4904 8.31586 15.2233 8.50245 15.1701L8.98329 15.0367V9.77043L8.316 9.71639C8.26237 9.47576 8.39575 9.1283 8.76975 9.10135L10.7452 8.96839L13.4677 13.1384V9.44923L12.7737 9.36948C12.7201 9.07481 12.9337 8.86073 13.2004 8.8346L15.0429 8.72721Z" fill="black"/>
</g>
</g>
</g>
</g>
<defs>
<filter id="filter0_i_32_11457" x="1.375" y="1.375" width="19.25" height="23.25" filterUnits="userSpaceOnUse" color-interpolation-filters="sRGB">
<feFlood flood-opacity="0" result="BackgroundImageFix"/>
<feBlend mode="normal" in="SourceGraphic" in2="BackgroundImageFix" result="shape"/>
<feColorMatrix in="SourceAlpha" type="matrix" values="0 0 0 0 0 0 0 0 0 0 0 0 0 0 0 0 0 0 127 0" result="hardAlpha"/>
<feOffset dy="4"/>
<feGaussianBlur stdDeviation="2"/>
<feComposite in2="hardAlpha" operator="arithmetic" k2="-1" k3="1"/>
<feColorMatrix type="matrix" values="0 0 0 0 0 0 0 0 0 0 0 0 0 0 0 0 0 0 0.25 0"/>
<feBlend mode="normal" in2="shape" result="effect1_innerShadow_32_11457"/>
</filter>
<filter id="filter1_d_32_11457" x="0.125" y="2.12463" width="21.1602" height="21.7501" filterUnits="userSpaceOnUse" color-interpolation-filters="sRGB">
<feFlood flood-opacity="0" result="BackgroundImageFix"/>
<feColorMatrix in="SourceAlpha" type="matrix" values="0 0 0 0 0 0 0 0 0 0 0 0 0 0 0 0 0 0 127 0" result="hardAlpha"/>
<feOffset dy="2"/>
<feGaussianBlur stdDeviation="2"/>
<feComposite in2="hardAlpha" operator="out"/>
<feColorMatrix type="matrix" values="0 0 0 0 0 0 0 0 0 0 0 0 0 0 0 0 0 0 0.25 0"/>
<feBlend mode="normal" in2="BackgroundImageFix" result="effect1_dropShadow_32_11457"/>
<feBlend mode="normal" in="SourceGraphic" in2="effect1_dropShadow_32_11457" result="shape"/>
</filter>
<linearGradient id="paint0_linear_32_11457" x1="11" y1="0" x2="11" y2="22" gradientUnits="userSpaceOnUse">
<stop stop-color="white"/>
<stop offset="1" stop-color="#DFDFDF"/>
</linearGradient>
<clipPath id="clip0_32_11457">
<rect width="22" height="22" fill="white"/>
</clipPath>
</defs>
</svg>
