<svg width="22" height="22" viewBox="0 0 22 22" fill="none" xmlns="http://www.w3.org/2000/svg">
<g clip-path="url(#clip0_32_11468)">
<path d="M16.5 0H5.5C2.46243 0 0 2.46243 0 5.5V16.5C0 19.5376 2.46243 22 5.5 22H16.5C19.5376 22 22 19.5376 22 16.5V5.5C22 2.46243 19.5376 0 16.5 0Z" fill="url(#paint0_linear_32_11468)"/>
<g filter="url(#filter0_i_32_11468)">
<path d="M16.5 1.375H5.5C3.22183 1.375 1.375 3.22183 1.375 5.5V16.5C1.375 18.7782 3.22183 20.625 5.5 20.625H16.5C18.7782 20.625 20.625 18.7782 20.625 16.5V5.5C20.625 3.22183 18.7782 1.375 16.5 1.375Z" fill="black" fill-opacity="0.7"/>
<mask id="mask0_32_11468" style="mask-type:luminance" maskUnits="userSpaceOnUse" x="2" y="2" width="18" height="18">
<path d="M19.25 2.75H2.75V19.25H19.25V2.75Z" fill="white"/>
</mask>
<g mask="url(#mask0_32_11468)">
<g filter="url(#filter1_d_32_11468)">
<path d="M15.0648 18.0716C14.9634 18.8245 14.2268 19.4126 13.4947 19.2095C12.4515 18.9221 11.2437 18.474 10.1569 18.3905C10.0136 18.3795 8.4913 18.264 8.4913 18.264C8.22202 18.2447 7.96926 18.1272 7.7812 17.9335L4.91116 14.9783C4.59751 14.6554 4.5126 14.1738 4.69692 13.7631C4.69692 13.7631 6.47158 9.86333 6.53749 9.66054C6.60341 9.45772 6.8453 7.68892 6.98865 6.73871C7.02663 6.4869 7.15097 6.25605 7.34034 6.08574L10.7355 3.03195C11.2078 2.60711 11.941 2.67007 12.334 3.16921L15.1861 6.79184C15.3475 6.99689 15.4302 7.25167 15.4314 7.51255C15.4346 8.19889 15.4913 9.60799 15.8708 10.5156C16.24 11.3984 16.9175 12.3518 17.2717 12.821C17.4076 13.001 17.4284 13.2445 17.3136 13.4387C17.0637 13.8618 16.5699 14.6741 15.8708 15.7164C15.3888 16.4351 15.1655 17.3235 15.0648 18.0716Z" fill="#6C31E3"/>
<path d="M8.09049 18.1569C9.42333 15.451 9.38615 13.5125 8.819 12.129C8.29703 10.856 7.32625 10.053 6.56106 9.55463C6.54494 9.62661 6.52158 9.6969 6.49132 9.76437L4.69691 13.7631C4.5126 14.1738 4.59751 14.6554 4.91115 14.9783L7.78119 17.9334C7.87123 18.0263 7.97609 18.1015 8.09049 18.1569Z" fill="url(#paint1_radial_32_11468)"/>
<path d="M13.4948 19.2091C14.2268 19.4121 14.9634 18.8241 15.0647 18.0713C15.152 17.4231 15.3312 16.67 15.6907 16.013C14.8658 14.2372 13.8682 13.3163 12.7746 12.9082C11.617 12.4762 10.3518 12.6186 9.06985 12.9299C9.35642 14.234 9.18489 15.9373 8.0918 18.1567C8.21627 18.2169 8.352 18.2536 8.49221 18.2636C8.49221 18.2636 9.28098 18.3299 10.219 18.3965C11.1571 18.4628 12.553 18.9478 13.4948 19.2091Z" fill="url(#paint2_radial_32_11468)"/>
<path d="M11.7175 12.6648C12.0776 12.7024 12.4307 12.7801 12.7742 12.9082C13.8681 13.3164 14.8659 14.2374 15.6909 16.013C15.7464 15.9116 15.8062 15.8125 15.8707 15.7164C16.5697 14.6741 17.0635 13.8618 17.3135 13.4387C17.4283 13.2445 17.4073 13.001 17.2716 12.8209C16.9174 12.3518 16.2398 11.3984 15.8707 10.5156C15.4911 9.608 15.4345 8.19888 15.4313 7.51255C15.43 7.25166 15.3473 6.99688 15.186 6.79185L12.3339 3.1692C12.3186 3.14983 12.3028 3.13111 12.2866 3.11307C12.4959 3.79888 12.4817 4.35058 12.3526 4.85212C12.2329 5.31706 12.0144 5.73887 11.7836 6.18444C11.7062 6.33387 11.6274 6.48605 11.5505 6.64338C11.2443 7.26971 10.9678 7.97851 10.927 8.92894C10.8862 9.87943 11.081 11.0716 11.7175 12.6648Z" fill="url(#paint3_radial_32_11468)"/>
<path d="M11.7177 12.6647C11.0813 11.0716 10.8863 9.87941 10.9271 8.92889C10.968 7.97835 11.2444 7.26957 11.5507 6.64319C11.6276 6.48584 11.7064 6.33373 11.7838 6.18425C12.0146 5.73868 12.2331 5.3169 12.3527 4.85201C12.4818 4.35036 12.496 3.79851 12.2866 3.11242C11.8842 2.66585 11.1896 2.62376 10.7359 3.03193L7.3407 6.08572C7.15133 6.25603 7.027 6.48687 6.98901 6.73869L6.5757 9.47846C6.57187 9.50388 6.56713 9.52914 6.56152 9.55424C7.32675 10.0526 8.2977 10.8557 8.8197 12.1289C8.92166 12.3776 9.0065 12.6442 9.06933 12.93C9.97087 12.711 10.8642 12.5756 11.7177 12.6647Z" fill="url(#paint4_radial_32_11468)"/>
<path fill-rule="evenodd" clip-rule="evenodd" d="M10.9333 8.86628C10.8924 9.80915 11.0101 10.8907 11.6452 12.4806L11.4458 12.4626C10.876 10.8036 10.752 9.95292 10.7935 8.99701C10.835 8.04064 11.144 7.30521 11.452 6.6779C11.5299 6.51902 11.7119 6.22068 11.7898 6.07092C12.0204 5.62754 12.1739 5.3933 12.3056 4.98802C12.4897 4.42173 12.4499 4.15352 12.4289 3.8866C12.5751 4.8515 12.0202 5.69055 11.6007 6.54511C11.2951 7.16762 10.9742 7.92385 10.9333 8.86628Z" fill="url(#paint5_radial_32_11468)"/>
<path fill-rule="evenodd" clip-rule="evenodd" d="M9.00706 12.1991C9.0824 12.3733 9.15355 12.514 9.19848 12.7295L9.03204 12.7669C8.9628 12.5152 8.9093 12.3362 8.81346 12.1203C8.23995 10.7673 7.31956 10.0714 6.56738 9.56088C7.47591 10.0497 8.4084 10.8147 9.00706 12.1991Z" fill="url(#paint6_radial_32_11468)"/>
<path fill-rule="evenodd" clip-rule="evenodd" d="M9.20747 12.8997C9.52526 14.3786 9.17074 16.2574 8.12598 18.0837C8.99926 16.2737 9.4226 14.5354 9.07002 12.9292L9.20747 12.8997Z" fill="url(#paint7_radial_32_11468)"/>
<path fill-rule="evenodd" clip-rule="evenodd" d="M12.8138 12.7667C14.5267 13.4077 15.1863 14.8153 15.6793 15.9894C15.0704 14.7599 14.2239 13.4021 12.7523 12.8981C11.6326 12.5146 10.6869 12.5601 9.07022 12.927L9.03418 12.7667C10.7499 12.3758 11.647 12.3301 12.8138 12.7667Z" fill="url(#paint8_radial_32_11468)"/>
</g>
</g>
</g>
</g>
<defs>
<filter id="filter0_i_32_11468" x="1.375" y="1.375" width="19.25" height="23.25" filterUnits="userSpaceOnUse" color-interpolation-filters="sRGB">
<feFlood flood-opacity="0" result="BackgroundImageFix"/>
<feBlend mode="normal" in="SourceGraphic" in2="BackgroundImageFix" result="shape"/>
<feColorMatrix in="SourceAlpha" type="matrix" values="0 0 0 0 0 0 0 0 0 0 0 0 0 0 0 0 0 0 127 0" result="hardAlpha"/>
<feOffset dy="4"/>
<feGaussianBlur stdDeviation="2"/>
<feComposite in2="hardAlpha" operator="arithmetic" k2="-1" k3="1"/>
<feColorMatrix type="matrix" values="0 0 0 0 0 0 0 0 0 0 0 0 0 0 0 0 0 0 0.25 0"/>
<feBlend mode="normal" in2="shape" result="effect1_innerShadow_32_11468"/>
</filter>
<filter id="filter1_d_32_11468" x="0.600586" y="0.75" width="20.7871" height="24.5" filterUnits="userSpaceOnUse" color-interpolation-filters="sRGB">
<feFlood flood-opacity="0" result="BackgroundImageFix"/>
<feColorMatrix in="SourceAlpha" type="matrix" values="0 0 0 0 0 0 0 0 0 0 0 0 0 0 0 0 0 0 127 0" result="hardAlpha"/>
<feOffset dy="2"/>
<feGaussianBlur stdDeviation="2"/>
<feComposite in2="hardAlpha" operator="out"/>
<feColorMatrix type="matrix" values="0 0 0 0 0 0 0 0 0 0 0 0 0 0 0 0 0 0 0.25 0"/>
<feBlend mode="normal" in2="BackgroundImageFix" result="effect1_dropShadow_32_11468"/>
<feBlend mode="normal" in="SourceGraphic" in2="effect1_dropShadow_32_11468" result="shape"/>
</filter>
<linearGradient id="paint0_linear_32_11468" x1="11" y1="22" x2="11" y2="0" gradientUnits="userSpaceOnUse">
<stop stop-color="#5125AA"/>
<stop offset="1" stop-color="#7842E5"/>
</linearGradient>
<radialGradient id="paint1_radial_32_11468" cx="0" cy="0" r="1" gradientUnits="userSpaceOnUse" gradientTransform="translate(7.94715 17.8898) rotate(-104.574) scale(7.50765 5.00309)">
<stop stop-color="white" stop-opacity="0.4"/>
<stop offset="1" stop-opacity="0.1"/>
</radialGradient>
<radialGradient id="paint2_radial_32_11468" cx="0" cy="0" r="1" gradientUnits="userSpaceOnUse" gradientTransform="translate(13.5492 19.2497) rotate(-120.563) scale(6.10051 7.00463)">
<stop stop-color="white" stop-opacity="0.3"/>
<stop offset="1" stop-opacity="0.25"/>
</radialGradient>
<radialGradient id="paint3_radial_32_11468" cx="0" cy="0" r="1" gradientUnits="userSpaceOnUse" gradientTransform="translate(14.3458 14.8028) rotate(-82.4846) scale(12.3197 9.10188)">
<stop stop-color="white" stop-opacity="0.55"/>
<stop offset="1" stop-color="white" stop-opacity="0.05"/>
</radialGradient>
<radialGradient id="paint4_radial_32_11468" cx="0" cy="0" r="1" gradientUnits="userSpaceOnUse" gradientTransform="translate(8.39749 12.6398) rotate(-77.7214) scale(10.5204 7.17465)">
<stop stop-color="white" stop-opacity="0.83"/>
<stop offset="1" stop-color="white" stop-opacity="0.4"/>
</radialGradient>
<radialGradient id="paint5_radial_32_11468" cx="0" cy="0" r="1" gradientUnits="userSpaceOnUse" gradientTransform="translate(12.7345 6.875) rotate(102.236) scale(5.47396 3.69131)">
<stop stop-color="white" stop-opacity="0"/>
<stop offset="1" stop-color="white" stop-opacity="0.17"/>
</radialGradient>
<radialGradient id="paint6_radial_32_11468" cx="0" cy="0" r="1" gradientUnits="userSpaceOnUse" gradientTransform="translate(6.32172 9.83984) rotate(45.3237) scale(4.03348 8.59093)">
<stop stop-color="white" stop-opacity="0.2"/>
<stop offset="1" stop-color="white" stop-opacity="0.44"/>
</radialGradient>
<radialGradient id="paint7_radial_32_11468" cx="0" cy="0" r="1" gradientUnits="userSpaceOnUse" gradientTransform="translate(9.36621 11.7484) rotate(80.2016) scale(4.72749 10.0391)">
<stop stop-color="white" stop-opacity="0.25"/>
<stop offset="1" stop-color="white" stop-opacity="0.3"/>
</radialGradient>
<radialGradient id="paint8_radial_32_11468" cx="0" cy="0" r="1" gradientUnits="userSpaceOnUse" gradientTransform="translate(15.6349 15.6084) rotate(-152.297) scale(7.20356 22.6691)">
<stop stop-color="white" stop-opacity="0.21"/>
<stop offset="0.46738" stop-color="white" stop-opacity="0.19"/>
<stop offset="1" stop-color="white" stop-opacity="0.29"/>
</radialGradient>
<clipPath id="clip0_32_11468">
<rect width="22" height="22" fill="white"/>
</clipPath>
</defs>
</svg>
