<svg width="22" height="22" viewBox="0 0 22 22" fill="none" xmlns="http://www.w3.org/2000/svg">
<g clip-path="url(#clip0_32_11486)">
<path d="M16.5 0H5.5C2.46243 0 0 2.46243 0 5.5V16.5C0 19.5376 2.46243 22 5.5 22H16.5C19.5376 22 22 19.5376 22 16.5V5.5C22 2.46243 19.5376 0 16.5 0Z" fill="url(#paint0_linear_32_11486)"/>
<g filter="url(#filter0_i_32_11486)">
<path d="M16.5 1.375H5.5C3.22183 1.375 1.375 3.22183 1.375 5.5V16.5C1.375 18.7782 3.22183 20.625 5.5 20.625H16.5C18.7782 20.625 20.625 18.7782 20.625 16.5V5.5C20.625 3.22183 18.7782 1.375 16.5 1.375Z" fill="black" fill-opacity="0.7"/>
<g filter="url(#filter1_d_32_11486)">
<path d="M10.9999 4.12531C7.20301 4.12531 4.125 7.2033 4.125 11.0002C4.125 14.6872 7.02764 17.6963 10.6724 17.8671C10.7812 17.8723 10.8902 17.875 11 17.875C12.7601 17.875 14.3654 17.2133 15.5817 16.1255C14.7758 16.6599 13.8336 16.9675 12.8267 16.9675C11.1895 16.9675 9.72326 16.1553 8.73713 14.8745C7.97693 13.9771 7.48455 12.6507 7.45102 11.162V10.8382C7.48454 9.34964 7.97691 8.0229 8.73692 7.12577C9.72323 5.84497 11.1894 5.03278 12.8265 5.03278C13.8337 5.03278 14.776 5.34029 15.582 5.87507C14.3716 4.79232 12.7761 4.13184 11.0257 4.12534C11.017 4.12534 11.0085 4.125 10.9997 4.125L10.9999 4.12531Z" fill="#FF1B2D"/>
<path d="M8.7373 7.12616C9.36821 6.38137 10.183 5.93224 11.0732 5.93224C13.0746 5.93224 14.6968 8.20139 14.6968 11.0005C14.6968 13.7996 13.0745 16.0687 11.0732 16.0687C10.183 16.0687 9.36821 15.6198 8.73748 14.8749C9.72359 16.1557 11.1897 16.968 12.8271 16.968C13.8341 16.968 14.7762 16.6604 15.582 16.126C16.9892 14.8671 17.8753 13.0373 17.8753 11.0005C17.8753 8.96396 16.9894 7.13429 15.5825 5.87554C14.7765 5.34075 13.8342 5.03323 12.8271 5.03323C11.1899 5.03323 9.72345 5.84536 8.7373 7.12616Z" fill="#B10000"/>
</g>
</g>
</g>
<defs>
<filter id="filter0_i_32_11486" x="1.375" y="1.375" width="19.25" height="23.25" filterUnits="userSpaceOnUse" color-interpolation-filters="sRGB">
<feFlood flood-opacity="0" result="BackgroundImageFix"/>
<feBlend mode="normal" in="SourceGraphic" in2="BackgroundImageFix" result="shape"/>
<feColorMatrix in="SourceAlpha" type="matrix" values="0 0 0 0 0 0 0 0 0 0 0 0 0 0 0 0 0 0 127 0" result="hardAlpha"/>
<feOffset dy="4"/>
<feGaussianBlur stdDeviation="2"/>
<feComposite in2="hardAlpha" operator="arithmetic" k2="-1" k3="1"/>
<feColorMatrix type="matrix" values="0 0 0 0 0 0 0 0 0 0 0 0 0 0 0 0 0 0 0.25 0"/>
<feBlend mode="normal" in2="shape" result="effect1_innerShadow_32_11486"/>
</filter>
<filter id="filter1_d_32_11486" x="0.125" y="2.125" width="21.75" height="21.75" filterUnits="userSpaceOnUse" color-interpolation-filters="sRGB">
<feFlood flood-opacity="0" result="BackgroundImageFix"/>
<feColorMatrix in="SourceAlpha" type="matrix" values="0 0 0 0 0 0 0 0 0 0 0 0 0 0 0 0 0 0 127 0" result="hardAlpha"/>
<feOffset dy="2"/>
<feGaussianBlur stdDeviation="2"/>
<feComposite in2="hardAlpha" operator="out"/>
<feColorMatrix type="matrix" values="0 0 0 0 0 0 0 0 0 0 0 0 0 0 0 0 0 0 0.25 0"/>
<feBlend mode="normal" in2="BackgroundImageFix" result="effect1_dropShadow_32_11486"/>
<feBlend mode="normal" in="SourceGraphic" in2="effect1_dropShadow_32_11486" result="shape"/>
</filter>
<linearGradient id="paint0_linear_32_11486" x1="11" y1="0" x2="11" y2="22" gradientUnits="userSpaceOnUse">
<stop stop-color="#FF1B2D"/>
<stop offset="0.3" stop-color="#FF1B2D"/>
<stop offset="0.614" stop-color="#FF1B2D"/>
<stop offset="1" stop-color="#A70014"/>
</linearGradient>
<clipPath id="clip0_32_11486">
<rect width="22" height="22" fill="white"/>
</clipPath>
</defs>
</svg>
