<svg width="22" height="22" viewBox="0 0 22 22" fill="none" xmlns="http://www.w3.org/2000/svg">
<g clip-path="url(#clip0_32_11493)">
<path d="M16.5 0H5.5C2.46243 0 0 2.46243 0 5.5V16.5C0 19.5376 2.46243 22 5.5 22H16.5C19.5376 22 22 19.5376 22 16.5V5.5C22 2.46243 19.5376 0 16.5 0Z" fill="url(#paint0_linear_32_11493)"/>
<path d="M16.5 0H5.5C2.46243 0 0 2.46243 0 5.5V16.5C0 19.5376 2.46243 22 5.5 22H16.5C19.5376 22 22 19.5376 22 16.5V5.5C22 2.46243 19.5376 0 16.5 0Z" fill="url(#paint1_linear_32_11493)"/>
<g filter="url(#filter0_i_32_11493)">
<path d="M16.5 1.375H5.5C3.22183 1.375 1.375 3.22183 1.375 5.5V16.5C1.375 18.7782 3.22183 20.625 5.5 20.625H16.5C18.7782 20.625 20.625 18.7782 20.625 16.5V5.5C20.625 3.22183 18.7782 1.375 16.5 1.375Z" fill="black" fill-opacity="0.7"/>
<mask id="mask0_32_11493" style="mask-type:luminance" maskUnits="userSpaceOnUse" x="2" y="2" width="18" height="18">
<path d="M19.25 2.75H2.75V19.25H19.25V2.75Z" fill="white"/>
</mask>
<g mask="url(#mask0_32_11493)">
<g filter="url(#filter1_d_32_11493)">
<path d="M11.864 6.18774L11.3608 4.66702L9.02573 5.79574L5.93457 6.06846L6.35886 11.372L10.7429 10.6384L11.864 6.18774Z" fill="url(#paint2_linear_32_11493)"/>
</g>
<g filter="url(#filter2_d_32_11493)">
<path d="M7.69719 7.54145L3.53613 6.44797L4.97423 15.0842L12.7227 15.0088L7.69719 7.54145Z" fill="url(#paint3_linear_32_11493)"/>
</g>
<g filter="url(#filter3_d_32_11493)">
<path d="M13.42 11.2205L11.6318 8.15959L13.5715 6.40186L16.6589 5.13834L18.6221 10.017L15.7948 12.8251L13.42 11.2205Z" fill="url(#paint4_linear_32_11493)"/>
</g>
<g filter="url(#filter4_d_32_11493)">
<path d="M15.7955 9.9521L14.8135 7.94745L7.1123 9.49481L7.90336 16.8483L12.9875 18.6215L18.6216 15.2491L15.7955 9.9521Z" fill="url(#paint5_linear_32_11493)"/>
</g>
<g filter="url(#filter5_d_32_11493)">
<path d="M11.8132 10.3113L7.1123 9.49481L12.8503 4.4313L16.6584 5.13835L14.2983 7.49288L14.8437 7.97776L11.8132 10.3113Z" fill="url(#paint6_linear_32_11493)"/>
</g>
<g filter="url(#filter6_d_32_11493)">
<path d="M11.3604 4.667L6.10953 3.53571L3.53613 6.44796L7.70462 7.55615L11.3604 4.667Z" fill="url(#paint7_linear_32_11493)"/>
</g>
<g filter="url(#filter7_d_32_11493)">
<path d="M15.7938 6.36429H6.36523V15.7929H15.7938V6.36429Z" fill="black"/>
</g>
<path d="M11.0787 14.025H7.54297V14.6143H11.0787V14.025Z" fill="white"/>
<path d="M10.6299 10.6103L11.0911 10.0582C11.41 10.3214 11.7448 10.4887 12.1494 10.4887C12.4692 10.4887 12.6615 10.3622 12.6615 10.154V10.144C12.6614 9.94667 12.5399 9.84509 11.947 9.69355C11.2326 9.51119 10.7713 9.31303 10.7713 8.60944V8.59862C10.7712 7.95582 11.2883 7.5295 12.0127 7.5295C12.4909 7.5218 12.9568 7.68142 13.3299 7.98079L12.9245 8.56866C12.6106 8.3505 12.3016 8.21893 12.0027 8.21893C11.7038 8.21893 11.5464 8.35548 11.5465 8.52784V8.53784C11.5465 8.77097 11.6988 8.84758 12.3117 9.0041C13.0311 9.19145 13.4366 9.45041 13.4366 10.0682V10.0782C13.4367 10.7826 12.8997 11.1773 12.1345 11.1773C11.5804 11.1794 11.0448 10.9776 10.6299 10.6103Z" fill="white"/>
<path d="M7.55371 7.58337H8.99653C9.83877 7.58337 10.3483 8.08279 10.3483 8.80401V8.8141C10.3483 9.63127 9.71268 10.0551 8.92074 10.0551H8.33052V11.1143H7.55371V7.58337ZM8.94595 9.36397C9.33442 9.36397 9.5614 9.13199 9.5614 8.82924V8.81916C9.5614 8.47114 9.31931 8.28456 8.93082 8.28456H8.33052V9.36397H8.94595Z" fill="white"/>
</g>
</g>
</g>
<defs>
<filter id="filter0_i_32_11493" x="1.375" y="1.375" width="19.25" height="23.25" filterUnits="userSpaceOnUse" color-interpolation-filters="sRGB">
<feFlood flood-opacity="0" result="BackgroundImageFix"/>
<feBlend mode="normal" in="SourceGraphic" in2="BackgroundImageFix" result="shape"/>
<feColorMatrix in="SourceAlpha" type="matrix" values="0 0 0 0 0 0 0 0 0 0 0 0 0 0 0 0 0 0 127 0" result="hardAlpha"/>
<feOffset dy="4"/>
<feGaussianBlur stdDeviation="2"/>
<feComposite in2="hardAlpha" operator="arithmetic" k2="-1" k3="1"/>
<feColorMatrix type="matrix" values="0 0 0 0 0 0 0 0 0 0 0 0 0 0 0 0 0 0 0.25 0"/>
<feBlend mode="normal" in2="shape" result="effect1_innerShadow_32_11493"/>
</filter>
<filter id="filter1_d_32_11493" x="1.93457" y="2.66702" width="13.9297" height="14.705" filterUnits="userSpaceOnUse" color-interpolation-filters="sRGB">
<feFlood flood-opacity="0" result="BackgroundImageFix"/>
<feColorMatrix in="SourceAlpha" type="matrix" values="0 0 0 0 0 0 0 0 0 0 0 0 0 0 0 0 0 0 127 0" result="hardAlpha"/>
<feOffset dy="2"/>
<feGaussianBlur stdDeviation="2"/>
<feComposite in2="hardAlpha" operator="out"/>
<feColorMatrix type="matrix" values="0 0 0 0 0 0 0 0 0 0 0 0 0 0 0 0 0 0 0.25 0"/>
<feBlend mode="normal" in2="BackgroundImageFix" result="effect1_dropShadow_32_11493"/>
<feBlend mode="normal" in="SourceGraphic" in2="effect1_dropShadow_32_11493" result="shape"/>
</filter>
<filter id="filter2_d_32_11493" x="-0.463867" y="4.44797" width="17.1865" height="16.6362" filterUnits="userSpaceOnUse" color-interpolation-filters="sRGB">
<feFlood flood-opacity="0" result="BackgroundImageFix"/>
<feColorMatrix in="SourceAlpha" type="matrix" values="0 0 0 0 0 0 0 0 0 0 0 0 0 0 0 0 0 0 127 0" result="hardAlpha"/>
<feOffset dy="2"/>
<feGaussianBlur stdDeviation="2"/>
<feComposite in2="hardAlpha" operator="out"/>
<feColorMatrix type="matrix" values="0 0 0 0 0 0 0 0 0 0 0 0 0 0 0 0 0 0 0.25 0"/>
<feBlend mode="normal" in2="BackgroundImageFix" result="effect1_dropShadow_32_11493"/>
<feBlend mode="normal" in="SourceGraphic" in2="effect1_dropShadow_32_11493" result="shape"/>
</filter>
<filter id="filter3_d_32_11493" x="7.63184" y="3.13834" width="14.9902" height="15.6867" filterUnits="userSpaceOnUse" color-interpolation-filters="sRGB">
<feFlood flood-opacity="0" result="BackgroundImageFix"/>
<feColorMatrix in="SourceAlpha" type="matrix" values="0 0 0 0 0 0 0 0 0 0 0 0 0 0 0 0 0 0 127 0" result="hardAlpha"/>
<feOffset dy="2"/>
<feGaussianBlur stdDeviation="2"/>
<feComposite in2="hardAlpha" operator="out"/>
<feColorMatrix type="matrix" values="0 0 0 0 0 0 0 0 0 0 0 0 0 0 0 0 0 0 0.25 0"/>
<feBlend mode="normal" in2="BackgroundImageFix" result="effect1_dropShadow_32_11493"/>
<feBlend mode="normal" in="SourceGraphic" in2="effect1_dropShadow_32_11493" result="shape"/>
</filter>
<filter id="filter4_d_32_11493" x="3.1123" y="5.94745" width="19.5098" height="18.674" filterUnits="userSpaceOnUse" color-interpolation-filters="sRGB">
<feFlood flood-opacity="0" result="BackgroundImageFix"/>
<feColorMatrix in="SourceAlpha" type="matrix" values="0 0 0 0 0 0 0 0 0 0 0 0 0 0 0 0 0 0 127 0" result="hardAlpha"/>
<feOffset dy="2"/>
<feGaussianBlur stdDeviation="2"/>
<feComposite in2="hardAlpha" operator="out"/>
<feColorMatrix type="matrix" values="0 0 0 0 0 0 0 0 0 0 0 0 0 0 0 0 0 0 0.25 0"/>
<feBlend mode="normal" in2="BackgroundImageFix" result="effect1_dropShadow_32_11493"/>
<feBlend mode="normal" in="SourceGraphic" in2="effect1_dropShadow_32_11493" result="shape"/>
</filter>
<filter id="filter5_d_32_11493" x="3.1123" y="2.4313" width="17.5459" height="13.88" filterUnits="userSpaceOnUse" color-interpolation-filters="sRGB">
<feFlood flood-opacity="0" result="BackgroundImageFix"/>
<feColorMatrix in="SourceAlpha" type="matrix" values="0 0 0 0 0 0 0 0 0 0 0 0 0 0 0 0 0 0 127 0" result="hardAlpha"/>
<feOffset dy="2"/>
<feGaussianBlur stdDeviation="2"/>
<feComposite in2="hardAlpha" operator="out"/>
<feColorMatrix type="matrix" values="0 0 0 0 0 0 0 0 0 0 0 0 0 0 0 0 0 0 0.25 0"/>
<feBlend mode="normal" in2="BackgroundImageFix" result="effect1_dropShadow_32_11493"/>
<feBlend mode="normal" in="SourceGraphic" in2="effect1_dropShadow_32_11493" result="shape"/>
</filter>
<filter id="filter6_d_32_11493" x="-0.463867" y="1.53571" width="15.8242" height="12.0204" filterUnits="userSpaceOnUse" color-interpolation-filters="sRGB">
<feFlood flood-opacity="0" result="BackgroundImageFix"/>
<feColorMatrix in="SourceAlpha" type="matrix" values="0 0 0 0 0 0 0 0 0 0 0 0 0 0 0 0 0 0 127 0" result="hardAlpha"/>
<feOffset dy="2"/>
<feGaussianBlur stdDeviation="2"/>
<feComposite in2="hardAlpha" operator="out"/>
<feColorMatrix type="matrix" values="0 0 0 0 0 0 0 0 0 0 0 0 0 0 0 0 0 0 0.25 0"/>
<feBlend mode="normal" in2="BackgroundImageFix" result="effect1_dropShadow_32_11493"/>
<feBlend mode="normal" in="SourceGraphic" in2="effect1_dropShadow_32_11493" result="shape"/>
</filter>
<filter id="filter7_d_32_11493" x="2.36523" y="4.36429" width="17.4287" height="17.4286" filterUnits="userSpaceOnUse" color-interpolation-filters="sRGB">
<feFlood flood-opacity="0" result="BackgroundImageFix"/>
<feColorMatrix in="SourceAlpha" type="matrix" values="0 0 0 0 0 0 0 0 0 0 0 0 0 0 0 0 0 0 127 0" result="hardAlpha"/>
<feOffset dy="2"/>
<feGaussianBlur stdDeviation="2"/>
<feComposite in2="hardAlpha" operator="out"/>
<feColorMatrix type="matrix" values="0 0 0 0 0 0 0 0 0 0 0 0 0 0 0 0 0 0 0.25 0"/>
<feBlend mode="normal" in2="BackgroundImageFix" result="effect1_dropShadow_32_11493"/>
<feBlend mode="normal" in="SourceGraphic" in2="effect1_dropShadow_32_11493" result="shape"/>
</filter>
<linearGradient id="paint0_linear_32_11493" x1="11" y1="0" x2="11" y2="22" gradientUnits="userSpaceOnUse">
<stop stop-color="#3BEA62"/>
<stop offset="0.510417" stop-color="#087CFA"/>
<stop offset="1" stop-color="#B74AF7"/>
</linearGradient>
<linearGradient id="paint1_linear_32_11493" x1="3.73292" y1="21.1147" x2="17.0847" y2="4.53497" gradientUnits="userSpaceOnUse">
<stop offset="0.01613" stop-color="#6B57FF"/>
<stop offset="0.42357" stop-color="#B74AF7"/>
<stop offset="0.74587" stop-color="#FF318C"/>
</linearGradient>
<linearGradient id="paint2_linear_32_11493" x1="6.31794" y1="12.2342" x2="10.5777" y2="4.0535" gradientUnits="userSpaceOnUse">
<stop stop-color="#AF1DF5"/>
<stop offset="0.2116" stop-color="#BC20E4"/>
<stop offset="0.62822" stop-color="#DD29B8"/>
<stop offset="1" stop-color="#FF318C"/>
</linearGradient>
<linearGradient id="paint3_linear_32_11493" x1="5.0949" y1="14.7366" x2="10.2583" y2="7.91633" gradientUnits="userSpaceOnUse">
<stop offset="0.01613" stop-color="#6B57FF"/>
<stop offset="0.42357" stop-color="#B74AF7"/>
<stop offset="0.74587" stop-color="#FF318C"/>
</linearGradient>
<linearGradient id="paint4_linear_32_11493" x1="16.7774" y1="12.8957" x2="13.9163" y2="6.10522" gradientUnits="userSpaceOnUse">
<stop stop-color="#293896"/>
<stop offset="0.07538" stop-color="#3B3AA2"/>
<stop offset="0.2871" stop-color="#6740C0"/>
<stop offset="0.49127" stop-color="#8A44D8"/>
<stop offset="0.68315" stop-color="#A347E9"/>
<stop offset="0.85788" stop-color="#B249F3"/>
<stop offset="1" stop-color="#B74AF7"/>
</linearGradient>
<linearGradient id="paint5_linear_32_11493" x1="14.4321" y1="16.9032" x2="9.67548" y2="9.93106" gradientUnits="userSpaceOnUse">
<stop offset="0.01613" stop-color="#6B57FF"/>
<stop offset="0.78291" stop-color="#B74AF7"/>
</linearGradient>
<linearGradient id="paint6_linear_32_11493" x1="12.9904" y1="13.1608" x2="11.4145" y2="4.8266" gradientUnits="userSpaceOnUse">
<stop offset="0.01613" stop-color="#6B57FF"/>
<stop offset="0.63699" stop-color="#B74AF7"/>
</linearGradient>
<linearGradient id="paint7_linear_32_11493" x1="5.25251" y1="9.54238" x2="7.7073" y2="5.08739" gradientUnits="userSpaceOnUse">
<stop stop-color="#AF1DF5"/>
<stop offset="0.2116" stop-color="#BC20E4"/>
<stop offset="0.62822" stop-color="#DD29B8"/>
<stop offset="1" stop-color="#FF318C"/>
</linearGradient>
<clipPath id="clip0_32_11493">
<rect width="22" height="22" fill="white"/>
</clipPath>
</defs>
</svg>
