<svg width="22" height="22" viewBox="0 0 22 22" fill="none" xmlns="http://www.w3.org/2000/svg">
<g clip-path="url(#clip0_32_11519)">
<path d="M16.5 0H5.5C2.46243 0 0 2.46243 0 5.5V16.5C0 19.5376 2.46243 22 5.5 22H16.5C19.5376 22 22 19.5376 22 16.5V5.5C22 2.46243 19.5376 0 16.5 0Z" fill="url(#paint0_linear_32_11519)"/>
<g filter="url(#filter0_i_32_11519)">
<path d="M16.5 1.375H5.5C3.22183 1.375 1.375 3.22183 1.375 5.5V16.5C1.375 18.7782 3.22183 20.625 5.5 20.625H16.5C18.7782 20.625 20.625 18.7782 20.625 16.5V5.5C20.625 3.22183 18.7782 1.375 16.5 1.375Z" fill="black" fill-opacity="0.7"/>
<g filter="url(#filter1_d_32_11519)">
<path d="M7.87695 4.64597H11.5603L15.6247 11L11.5603 17.3541H7.87695L11.9414 11L7.87695 4.64597Z" fill="#F9BE03"/>
</g>
</g>
</g>
<defs>
<filter id="filter0_i_32_11519" x="1.375" y="1.375" width="19.25" height="23.25" filterUnits="userSpaceOnUse" color-interpolation-filters="sRGB">
<feFlood flood-opacity="0" result="BackgroundImageFix"/>
<feBlend mode="normal" in="SourceGraphic" in2="BackgroundImageFix" result="shape"/>
<feColorMatrix in="SourceAlpha" type="matrix" values="0 0 0 0 0 0 0 0 0 0 0 0 0 0 0 0 0 0 127 0" result="hardAlpha"/>
<feOffset dy="4"/>
<feGaussianBlur stdDeviation="2"/>
<feComposite in2="hardAlpha" operator="arithmetic" k2="-1" k3="1"/>
<feColorMatrix type="matrix" values="0 0 0 0 0 0 0 0 0 0 0 0 0 0 0 0 0 0 0.25 0"/>
<feBlend mode="normal" in2="shape" result="effect1_innerShadow_32_11519"/>
</filter>
<filter id="filter1_d_32_11519" x="3.87695" y="2.64597" width="15.748" height="20.7081" filterUnits="userSpaceOnUse" color-interpolation-filters="sRGB">
<feFlood flood-opacity="0" result="BackgroundImageFix"/>
<feColorMatrix in="SourceAlpha" type="matrix" values="0 0 0 0 0 0 0 0 0 0 0 0 0 0 0 0 0 0 127 0" result="hardAlpha"/>
<feOffset dy="2"/>
<feGaussianBlur stdDeviation="2"/>
<feComposite in2="hardAlpha" operator="out"/>
<feColorMatrix type="matrix" values="0 0 0 0 0 0 0 0 0 0 0 0 0 0 0 0 0 0 0.25 0"/>
<feBlend mode="normal" in2="BackgroundImageFix" result="effect1_dropShadow_32_11519"/>
<feBlend mode="normal" in="SourceGraphic" in2="effect1_dropShadow_32_11519" result="shape"/>
</filter>
<linearGradient id="paint0_linear_32_11519" x1="-0.73535" y1="10.9434" x2="22" y2="10.9434" gradientUnits="userSpaceOnUse">
<stop stop-color="#F9BE03"/>
<stop offset="0.520833" stop-color="#D19217"/>
<stop offset="1" stop-color="#CC7C19"/>
</linearGradient>
<clipPath id="clip0_32_11519">
<rect width="22" height="22" fill="white"/>
</clipPath>
</defs>
</svg>
