<svg width="22" height="22" viewBox="0 0 22 22" fill="none" xmlns="http://www.w3.org/2000/svg">
<g clip-path="url(#clip0_32_11570)">
<path d="M16.5 0H5.5C2.46243 0 0 2.46243 0 5.5V16.5C0 19.5376 2.46243 22 5.5 22H16.5C19.5376 22 22 19.5376 22 16.5V5.5C22 2.46243 19.5376 0 16.5 0Z" fill="url(#paint0_linear_32_11570)"/>
<path d="M16.5 0H5.5C2.46243 0 0 2.46243 0 5.5V16.5C0 19.5376 2.46243 22 5.5 22H16.5C19.5376 22 22 19.5376 22 16.5V5.5C22 2.46243 19.5376 0 16.5 0Z" fill="url(#paint1_linear_32_11570)"/>
<g filter="url(#filter0_i_32_11570)">
<path d="M16.5 1.375H5.5C3.22183 1.375 1.375 3.22183 1.375 5.5V16.5C1.375 18.7782 3.22183 20.625 5.5 20.625H16.5C18.7782 20.625 20.625 18.7782 20.625 16.5V5.5C20.625 3.22183 18.7782 1.375 16.5 1.375Z" fill="black" fill-opacity="0.7"/>
<mask id="mask0_32_11570" style="mask-type:luminance" maskUnits="userSpaceOnUse" x="2" y="2" width="18" height="18">
<path d="M19.25 2.75H2.75V19.25H19.25V2.75Z" fill="white"/>
</mask>
<g mask="url(#mask0_32_11570)">
<g filter="url(#filter1_d_32_11570)">
<path d="M13.8358 9.93393L5.8784 11.602C5.67065 11.634 5.46526 11.6797 5.26352 11.7386C4.63134 11.9256 4.07454 12.3078 3.67281 12.8305C1.29706 15.9165 3.84555 19.9499 7.48842 19.1469L16.218 17.8822C17.1389 17.6768 17.9443 17.1224 18.4649 16.3354C20.7156 12.9748 17.8009 8.7712 13.8358 9.93393Z" fill="url(#paint2_linear_32_11570)"/>
</g>
<g filter="url(#filter2_d_32_11570)">
<path d="M9.46243 3.80059C8.48145 2.89824 7.04028 2.4793 5.42251 2.95239C4.75058 3.15119 4.15866 3.55725 3.73126 4.11254C2.10575 6.23047 2.64974 8.75961 4.2804 10.0654L12.9648 17.3164C13.4403 17.6266 13.9742 17.8363 14.5337 17.9328C15.0932 18.0292 15.6665 18.0103 16.2184 17.8771C17.1393 17.6717 17.9447 17.1172 18.4653 16.3303C19.8059 14.3361 19.3147 12.0313 17.8595 10.7422L9.46243 3.80059Z" fill="url(#paint3_linear_32_11570)"/>
</g>
<g filter="url(#filter3_d_32_11570)">
<path d="M6.53187 2.76934C6.15671 2.79297 5.78487 2.85429 5.42199 2.95238C4.75006 3.15121 4.15813 3.55725 3.73074 4.11254C1.20288 7.39063 3.90992 11.6832 7.78742 10.8286L18.1939 6.90336C18.4959 6.83653 18.7601 6.65543 18.9313 6.39805C19.5758 5.42609 18.9172 4.24145 17.8588 4.235L6.96371 2.75C6.80902 2.75 6.66465 2.75902 6.53187 2.76934Z" fill="url(#paint4_linear_32_11570)"/>
</g>
<g filter="url(#filter4_d_32_11570)">
<path d="M5.84375 5.84375H16.1562V16.1562H5.84375V5.84375Z" fill="black"/>
</g>
<path d="M7.13281 14.2227H11V14.8672H7.13281V14.2227Z" fill="white"/>
<path d="M10.4844 11.1044L10.059 10.7177C9.71682 10.9359 9.31884 11.0505 8.91301 11.0477C7.7232 11.0541 6.875 10.1673 6.875 9.06641C6.875 7.96941 7.73996 7.07094 8.9375 7.07094C10.135 7.07094 10.982 7.95781 10.982 9.05481V9.06641C10.9807 9.46126 10.8617 9.84677 10.6404 10.1737L11.0374 10.5102L10.4844 11.1044ZM9.43121 10.1673L8.80859 9.63231L9.34871 9.02645L9.98164 9.60008C10.0513 9.43092 10.0855 9.2493 10.0822 9.06641C10.0875 8.90936 10.0613 8.75284 10.005 8.60613C9.94868 8.45941 9.86346 8.32552 9.7544 8.21238C9.64535 8.09923 9.51467 8.00915 9.37014 7.94748C9.2256 7.88583 9.07015 7.85383 8.91301 7.8534C8.2298 7.8534 7.75285 8.39352 7.75285 9.05481V9.06641C7.74751 9.22329 7.77372 9.37965 7.82995 9.52621C7.88621 9.67275 7.97132 9.80652 8.08026 9.91954C8.18919 10.0326 8.31971 10.1225 8.4641 10.1841C8.60848 10.2457 8.76377 10.2777 8.92074 10.2781C9.09715 10.2808 9.27181 10.2429 9.43121 10.1673Z" fill="white"/>
<path d="M11.6279 7.13281H13.082C14.2937 7.13281 15.1316 7.96555 15.1316 9.05094V9.06641C15.1316 10.1518 14.2937 11 13.082 11H11.6279V7.13281ZM12.4761 7.90625V10.2266H13.082C13.7755 10.2266 14.2421 9.75734 14.2421 9.07414V9.06641C14.2495 8.9121 14.2245 8.75796 14.1688 8.61388C14.1131 8.46978 14.0279 8.33893 13.9187 8.22968C13.8095 8.12046 13.6786 8.03526 13.5345 7.97955C13.3904 7.92387 13.2363 7.89889 13.082 7.90625H12.4761Z" fill="white"/>
</g>
</g>
</g>
<defs>
<filter id="filter0_i_32_11570" x="1.375" y="1.375" width="19.25" height="23.25" filterUnits="userSpaceOnUse" color-interpolation-filters="sRGB">
<feFlood flood-opacity="0" result="BackgroundImageFix"/>
<feBlend mode="normal" in="SourceGraphic" in2="BackgroundImageFix" result="shape"/>
<feColorMatrix in="SourceAlpha" type="matrix" values="0 0 0 0 0 0 0 0 0 0 0 0 0 0 0 0 0 0 127 0" result="hardAlpha"/>
<feOffset dy="4"/>
<feGaussianBlur stdDeviation="2"/>
<feComposite in2="hardAlpha" operator="arithmetic" k2="-1" k3="1"/>
<feColorMatrix type="matrix" values="0 0 0 0 0 0 0 0 0 0 0 0 0 0 0 0 0 0 0.25 0"/>
<feBlend mode="normal" in2="shape" result="effect1_innerShadow_32_11570"/>
</filter>
<filter id="filter1_d_32_11570" x="-1.25" y="7.73624" width="24.5" height="17.5142" filterUnits="userSpaceOnUse" color-interpolation-filters="sRGB">
<feFlood flood-opacity="0" result="BackgroundImageFix"/>
<feColorMatrix in="SourceAlpha" type="matrix" values="0 0 0 0 0 0 0 0 0 0 0 0 0 0 0 0 0 0 127 0" result="hardAlpha"/>
<feOffset dy="2"/>
<feGaussianBlur stdDeviation="2"/>
<feComposite in2="hardAlpha" operator="out"/>
<feColorMatrix type="matrix" values="0 0 0 0 0 0 0 0 0 0 0 0 0 0 0 0 0 0 0.25 0"/>
<feBlend mode="normal" in2="BackgroundImageFix" result="effect1_dropShadow_32_11570"/>
<feBlend mode="normal" in="SourceGraphic" in2="effect1_dropShadow_32_11570" result="shape"/>
</filter>
<filter id="filter2_d_32_11570" x="-1.24902" y="0.755798" width="24.499" height="23.2375" filterUnits="userSpaceOnUse" color-interpolation-filters="sRGB">
<feFlood flood-opacity="0" result="BackgroundImageFix"/>
<feColorMatrix in="SourceAlpha" type="matrix" values="0 0 0 0 0 0 0 0 0 0 0 0 0 0 0 0 0 0 127 0" result="hardAlpha"/>
<feOffset dy="2"/>
<feGaussianBlur stdDeviation="2"/>
<feComposite in2="hardAlpha" operator="out"/>
<feColorMatrix type="matrix" values="0 0 0 0 0 0 0 0 0 0 0 0 0 0 0 0 0 0 0.25 0"/>
<feBlend mode="normal" in2="BackgroundImageFix" result="effect1_dropShadow_32_11570"/>
<feBlend mode="normal" in="SourceGraphic" in2="effect1_dropShadow_32_11570" result="shape"/>
</filter>
<filter id="filter3_d_32_11570" x="-1.25195" y="0.75" width="24.4385" height="16.1888" filterUnits="userSpaceOnUse" color-interpolation-filters="sRGB">
<feFlood flood-opacity="0" result="BackgroundImageFix"/>
<feColorMatrix in="SourceAlpha" type="matrix" values="0 0 0 0 0 0 0 0 0 0 0 0 0 0 0 0 0 0 127 0" result="hardAlpha"/>
<feOffset dy="2"/>
<feGaussianBlur stdDeviation="2"/>
<feComposite in2="hardAlpha" operator="out"/>
<feColorMatrix type="matrix" values="0 0 0 0 0 0 0 0 0 0 0 0 0 0 0 0 0 0 0.25 0"/>
<feBlend mode="normal" in2="BackgroundImageFix" result="effect1_dropShadow_32_11570"/>
<feBlend mode="normal" in="SourceGraphic" in2="effect1_dropShadow_32_11570" result="shape"/>
</filter>
<filter id="filter4_d_32_11570" x="1.84375" y="3.84375" width="18.3125" height="18.3125" filterUnits="userSpaceOnUse" color-interpolation-filters="sRGB">
<feFlood flood-opacity="0" result="BackgroundImageFix"/>
<feColorMatrix in="SourceAlpha" type="matrix" values="0 0 0 0 0 0 0 0 0 0 0 0 0 0 0 0 0 0 127 0" result="hardAlpha"/>
<feOffset dy="2"/>
<feGaussianBlur stdDeviation="2"/>
<feComposite in2="hardAlpha" operator="out"/>
<feColorMatrix type="matrix" values="0 0 0 0 0 0 0 0 0 0 0 0 0 0 0 0 0 0 0.25 0"/>
<feBlend mode="normal" in2="BackgroundImageFix" result="effect1_dropShadow_32_11570"/>
<feBlend mode="normal" in="SourceGraphic" in2="effect1_dropShadow_32_11570" result="shape"/>
</filter>
<linearGradient id="paint0_linear_32_11570" x1="11" y1="0" x2="11" y2="22" gradientUnits="userSpaceOnUse">
<stop stop-color="#3BEA62"/>
<stop offset="0.510417" stop-color="#087CFA"/>
<stop offset="1" stop-color="#B74AF7"/>
</linearGradient>
<linearGradient id="paint1_linear_32_11570" x1="6.74802" y1="19.1314" x2="15.824" y2="5.19851" gradientUnits="userSpaceOnUse">
<stop stop-color="#6B57FF"/>
<stop offset="0.461429" stop-color="#FF318C"/>
<stop offset="1" stop-color="#FDB60D"/>
</linearGradient>
<linearGradient id="paint2_linear_32_11570" x1="2.4134" y1="15.7064" x2="15.8789" y2="13.7702" gradientUnits="userSpaceOnUse">
<stop offset="0.18" stop-color="#FC801D"/>
<stop offset="0.63" stop-color="#FF318C"/>
</linearGradient>
<linearGradient id="paint3_linear_32_11570" x1="0.449308" y1="2.54762" x2="19.5997" y2="16.7802" gradientUnits="userSpaceOnUse">
<stop stop-color="#FF318C"/>
<stop offset="0.4" stop-color="#B74AF7"/>
<stop offset="0.87" stop-color="#FF318C"/>
</linearGradient>
<linearGradient id="paint4_linear_32_11570" x1="-1.77613" y1="8.85371" x2="19.4612" y2="3.87277" gradientUnits="userSpaceOnUse">
<stop stop-color="#FF318C"/>
<stop offset="0.2" stop-color="#D73BAB"/>
<stop offset="0.51" stop-color="#9D4AD8"/>
<stop offset="0.75" stop-color="#7953F4"/>
<stop offset="0.87" stop-color="#6B57FF"/>
</linearGradient>
<clipPath id="clip0_32_11570">
<rect width="22" height="22" fill="white"/>
</clipPath>
</defs>
</svg>
