<svg width="22" height="22" viewBox="0 0 22 22" fill="none" xmlns="http://www.w3.org/2000/svg">
<g clip-path="url(#clip0_32_11611)">
<path d="M16.5 0H5.5C2.46243 0 0 2.46243 0 5.5V16.5C0 19.5376 2.46243 22 5.5 22H16.5C19.5376 22 22 19.5376 22 16.5V5.5C22 2.46243 19.5376 0 16.5 0Z" fill="url(#paint0_linear_32_11611)"/>
<path d="M16.5 0H5.5C2.46243 0 0 2.46243 0 5.5V16.5C0 19.5376 2.46243 22 5.5 22H16.5C19.5376 22 22 19.5376 22 16.5V5.5C22 2.46243 19.5376 0 16.5 0Z" fill="url(#paint1_linear_32_11611)"/>
<g filter="url(#filter0_i_32_11611)">
<path d="M16.5 1.375H5.5C3.22183 1.375 1.375 3.22183 1.375 5.5V16.5C1.375 18.7782 3.22183 20.625 5.5 20.625H16.5C18.7782 20.625 20.625 18.7782 20.625 16.5V5.5C20.625 3.22183 18.7782 1.375 16.5 1.375Z" fill="black" fill-opacity="0.7"/>
<mask id="mask0_32_11611" style="mask-type:luminance" maskUnits="userSpaceOnUse" x="2" y="2" width="18" height="18">
<path d="M19.25 2.75H2.75V19.25H19.25V2.75Z" fill="white"/>
</mask>
<g mask="url(#mask0_32_11611)">
<g filter="url(#filter1_d_32_11611)">
<path d="M7.5286 6.81844L7.08545 14.7149L5.94616 18.524L3.45703 8.40873L7.5286 6.81844Z" fill="url(#paint2_linear_32_11611)"/>
</g>
<g filter="url(#filter2_d_32_11611)">
<path d="M7.52871 6.81842L7.986 3.43828L14.0643 18.524H5.94629L7.08558 14.7149L7.52871 6.81842Z" fill="url(#paint3_linear_32_11611)"/>
</g>
<g filter="url(#filter3_d_32_11611)">
<path d="M11.0553 13.5819H18.5432L16.0399 3.43828H7.98633L11.0553 13.5819Z" fill="url(#paint4_linear_32_11611)"/>
</g>
<g filter="url(#filter4_d_32_11611)">
<path d="M6.28516 6.28572H15.7137V15.7143H6.28516V6.28572Z" fill="black"/>
</g>
<path d="M7.46094 13.9323H10.9966V14.5216H7.46094V13.9323Z" fill="white"/>
<path d="M7.46387 7.45488H9.0793C9.26673 7.44254 9.45471 7.46805 9.63209 7.52987C9.80946 7.5917 9.97257 7.68856 10.1117 7.81474C10.2148 7.92223 10.2949 8.04952 10.3473 8.18889C10.3997 8.32827 10.4233 8.47684 10.4166 8.62559V8.63659C10.4273 8.88726 10.3531 9.13421 10.206 9.33745C10.0661 9.51816 9.87826 9.65591 9.66387 9.73503L10.5297 11.0016H9.6183L8.87816 9.91259H8.23387V11.0016H7.46387V7.45488ZM9.0353 9.18345C9.19405 9.18907 9.34939 9.13654 9.47216 9.03574C9.52329 8.99005 9.56384 8.93376 9.59098 8.87081C9.61811 8.80783 9.63119 8.7397 9.6293 8.67117V8.66174C9.63477 8.59046 9.62339 8.51891 9.5961 8.45286C9.56879 8.38679 9.52633 8.32808 9.47216 8.28145C9.34019 8.19011 9.18133 8.14584 9.02116 8.15574H8.23701V9.17717L9.0353 9.18345Z" fill="white"/>
<path d="M12.9896 8.62558H12.1787V7.91058H12.9833V7.11229H13.7187V7.91058H14.5359V8.62558H13.725V9.42387H12.9896V8.62558Z" fill="white"/>
<path d="M11.4505 10.56H10.6475V9.84503H11.4505V9.04674H12.1859V9.84503H12.9889V10.56H12.1859V11.3583H11.4505V10.56Z" fill="white"/>
</g>
</g>
</g>
<defs>
<filter id="filter0_i_32_11611" x="1.375" y="1.375" width="19.25" height="23.25" filterUnits="userSpaceOnUse" color-interpolation-filters="sRGB">
<feFlood flood-opacity="0" result="BackgroundImageFix"/>
<feBlend mode="normal" in="SourceGraphic" in2="BackgroundImageFix" result="shape"/>
<feColorMatrix in="SourceAlpha" type="matrix" values="0 0 0 0 0 0 0 0 0 0 0 0 0 0 0 0 0 0 127 0" result="hardAlpha"/>
<feOffset dy="4"/>
<feGaussianBlur stdDeviation="2"/>
<feComposite in2="hardAlpha" operator="arithmetic" k2="-1" k3="1"/>
<feColorMatrix type="matrix" values="0 0 0 0 0 0 0 0 0 0 0 0 0 0 0 0 0 0 0.25 0"/>
<feBlend mode="normal" in2="shape" result="effect1_innerShadow_32_11611"/>
</filter>
<filter id="filter1_d_32_11611" x="-0.542969" y="4.81844" width="12.0713" height="19.7056" filterUnits="userSpaceOnUse" color-interpolation-filters="sRGB">
<feFlood flood-opacity="0" result="BackgroundImageFix"/>
<feColorMatrix in="SourceAlpha" type="matrix" values="0 0 0 0 0 0 0 0 0 0 0 0 0 0 0 0 0 0 127 0" result="hardAlpha"/>
<feOffset dy="2"/>
<feGaussianBlur stdDeviation="2"/>
<feComposite in2="hardAlpha" operator="out"/>
<feColorMatrix type="matrix" values="0 0 0 0 0 0 0 0 0 0 0 0 0 0 0 0 0 0 0.25 0"/>
<feBlend mode="normal" in2="BackgroundImageFix" result="effect1_dropShadow_32_11611"/>
<feBlend mode="normal" in="SourceGraphic" in2="effect1_dropShadow_32_11611" result="shape"/>
</filter>
<filter id="filter2_d_32_11611" x="1.94629" y="1.43828" width="16.1182" height="23.0857" filterUnits="userSpaceOnUse" color-interpolation-filters="sRGB">
<feFlood flood-opacity="0" result="BackgroundImageFix"/>
<feColorMatrix in="SourceAlpha" type="matrix" values="0 0 0 0 0 0 0 0 0 0 0 0 0 0 0 0 0 0 127 0" result="hardAlpha"/>
<feOffset dy="2"/>
<feGaussianBlur stdDeviation="2"/>
<feComposite in2="hardAlpha" operator="out"/>
<feColorMatrix type="matrix" values="0 0 0 0 0 0 0 0 0 0 0 0 0 0 0 0 0 0 0.25 0"/>
<feBlend mode="normal" in2="BackgroundImageFix" result="effect1_dropShadow_32_11611"/>
<feBlend mode="normal" in="SourceGraphic" in2="effect1_dropShadow_32_11611" result="shape"/>
</filter>
<filter id="filter3_d_32_11611" x="3.98633" y="1.43828" width="18.5566" height="18.1436" filterUnits="userSpaceOnUse" color-interpolation-filters="sRGB">
<feFlood flood-opacity="0" result="BackgroundImageFix"/>
<feColorMatrix in="SourceAlpha" type="matrix" values="0 0 0 0 0 0 0 0 0 0 0 0 0 0 0 0 0 0 127 0" result="hardAlpha"/>
<feOffset dy="2"/>
<feGaussianBlur stdDeviation="2"/>
<feComposite in2="hardAlpha" operator="out"/>
<feColorMatrix type="matrix" values="0 0 0 0 0 0 0 0 0 0 0 0 0 0 0 0 0 0 0.25 0"/>
<feBlend mode="normal" in2="BackgroundImageFix" result="effect1_dropShadow_32_11611"/>
<feBlend mode="normal" in="SourceGraphic" in2="effect1_dropShadow_32_11611" result="shape"/>
</filter>
<filter id="filter4_d_32_11611" x="2.28516" y="4.28572" width="17.4287" height="17.4286" filterUnits="userSpaceOnUse" color-interpolation-filters="sRGB">
<feFlood flood-opacity="0" result="BackgroundImageFix"/>
<feColorMatrix in="SourceAlpha" type="matrix" values="0 0 0 0 0 0 0 0 0 0 0 0 0 0 0 0 0 0 127 0" result="hardAlpha"/>
<feOffset dy="2"/>
<feGaussianBlur stdDeviation="2"/>
<feComposite in2="hardAlpha" operator="out"/>
<feColorMatrix type="matrix" values="0 0 0 0 0 0 0 0 0 0 0 0 0 0 0 0 0 0 0.25 0"/>
<feBlend mode="normal" in2="BackgroundImageFix" result="effect1_dropShadow_32_11611"/>
<feBlend mode="normal" in="SourceGraphic" in2="effect1_dropShadow_32_11611" result="shape"/>
</filter>
<linearGradient id="paint0_linear_32_11611" x1="11" y1="0" x2="11" y2="22" gradientUnits="userSpaceOnUse">
<stop stop-color="#3BEA62"/>
<stop offset="0.510417" stop-color="#087CFA"/>
<stop offset="1" stop-color="#B74AF7"/>
</linearGradient>
<linearGradient id="paint1_linear_32_11611" x1="2.014" y1="-0.903176" x2="22.9273" y2="23.093" gradientUnits="userSpaceOnUse">
<stop offset="0.18" stop-color="#FDB60D"/>
<stop offset="0.49" stop-color="#FF45ED"/>
<stop offset="0.82" stop-color="#DD1265"/>
</linearGradient>
<linearGradient id="paint2_linear_32_11611" x1="4.56174" y1="7.16729" x2="9.12989" y2="18.722" gradientUnits="userSpaceOnUse">
<stop offset="0.22" stop-color="#DD1265"/>
<stop offset="0.74" stop-color="#FF45ED"/>
<stop offset="1" stop-color="#FDB60D"/>
</linearGradient>
<linearGradient id="paint3_linear_32_11611" x1="14.7243" y1="19.2326" x2="3.553" y2="7.34957" gradientUnits="userSpaceOnUse">
<stop offset="0.11" stop-color="#FDB60D"/>
<stop offset="0.51" stop-color="#FF45ED"/>
<stop offset="0.76" stop-color="#FF45ED"/>
<stop offset="1" stop-color="#FDB60D"/>
</linearGradient>
<linearGradient id="paint4_linear_32_11611" x1="8.95276" y1="3.02186" x2="18.5353" y2="14.465" gradientUnits="userSpaceOnUse">
<stop offset="0.18" stop-color="#FDB60D"/>
<stop offset="0.49" stop-color="#FF45ED"/>
<stop offset="0.82" stop-color="#DD1265"/>
</linearGradient>
<clipPath id="clip0_32_11611">
<rect width="22" height="22" fill="white"/>
</clipPath>
</defs>
</svg>
