<svg width="22" height="22" viewBox="0 0 22 22" fill="none" xmlns="http://www.w3.org/2000/svg">
<g clip-path="url(#clip0_32_11632)">
<path d="M16.5 0H5.5C2.46243 0 0 2.46243 0 5.5V16.5C0 19.5376 2.46243 22 5.5 22H16.5C19.5376 22 22 19.5376 22 16.5V5.5C22 2.46243 19.5376 0 16.5 0Z" fill="url(#paint0_linear_32_11632)"/>
<g filter="url(#filter0_i_32_11632)">
<path d="M16.5 1.375H5.5C3.22183 1.375 1.375 3.22183 1.375 5.5V16.5C1.375 18.7782 3.22183 20.625 5.5 20.625H16.5C18.7782 20.625 20.625 18.7782 20.625 16.5V5.5C20.625 3.22183 18.7782 1.375 16.5 1.375Z" fill="black" fill-opacity="0.7"/>
<g filter="url(#filter1_d_32_11632)">
<path d="M9.2356 5.00053L9.14963 4.87156C8.7671 4.29777 8.12312 3.95312 7.43352 3.95312H6.01562C4.87654 3.95312 3.95312 4.87654 3.95312 6.01562V15.9844C3.95312 17.1235 4.87654 18.0469 6.01562 18.0469H15.9844C17.1235 18.0469 18.0469 17.1235 18.0469 15.9844V8.59375C18.0469 7.45467 17.1235 6.53125 15.9844 6.53125H12.0958C10.9464 6.53125 9.87315 5.95684 9.2356 5.00053ZM9.2356 5.00053L9.80763 4.61918" stroke="url(#paint1_linear_32_11632)" stroke-width="3"/>
</g>
<g filter="url(#filter2_d_32_11632)">
<path fill-rule="evenodd" clip-rule="evenodd" d="M9.28507 12.0993C9.43672 12.9719 10.2307 13.6392 11.1843 13.6392H14.2307C14.762 13.6392 15.2463 13.4822 15.5943 13.1039C15.9382 12.7297 16.1327 12.2138 16.1562 11.6118V11.5978C16.1562 11.018 15.9174 10.4318 15.4842 10.0404C15.0656 9.66207 14.5086 9.45359 13.9158 9.45359H12.1825V9.18773C12.1825 9.08203 12.1168 8.998 12.0288 8.95993C11.9566 8.92861 11.8698 8.92803 11.7915 8.97135L10.6591 9.59794C10.4851 9.69399 10.4851 9.93408 10.6591 10.0301L11.7915 10.6564C11.8698 10.6997 11.9566 10.6992 12.0288 10.6678C12.1168 10.6298 12.1825 10.546 12.1825 10.4403V10.2222H13.9158C14.3028 10.2222 14.6642 10.4075 14.9333 10.6506C15.2026 10.8939 15.3515 11.2277 15.3537 11.5907C15.3197 12.3997 14.8794 12.8706 14.2307 12.8706H11.1843C10.641 12.8706 10.1861 12.499 10.0834 12.0071C10.0577 11.8844 9.94669 11.7951 9.81615 11.7951H9.55321C9.38474 11.7951 9.25726 11.9403 9.28507 12.0993Z" fill="#8B00E7"/>
<path d="M8.08419 14.9527C7.49136 14.9527 6.93431 14.7445 6.51576 14.3662C6.08254 13.9744 5.84375 13.3885 5.84375 12.8088V12.7944C5.8673 12.1927 6.06174 11.6765 6.4057 11.3023C6.75362 10.9243 7.23791 10.7671 7.76928 10.7671H10.8156C11.7692 10.7671 12.5632 11.4344 12.7149 12.3069C12.7427 12.4662 12.6152 12.6114 12.4467 12.6114H12.1838C12.0533 12.6114 11.9423 12.5221 11.9166 12.3994C11.8139 11.9075 11.3589 11.5357 10.8156 11.5357H7.76928C7.12051 11.5357 6.68025 12.0068 6.6463 12.8155C6.64845 13.1789 6.79735 13.5124 7.06669 13.7557C7.33575 13.999 7.69713 14.1841 8.08419 14.1841H9.81741V13.9662C9.81741 13.7823 10.0158 13.6646 10.1852 13.7384C10.1932 13.7419 10.2008 13.7457 10.2084 13.7498L11.3409 14.3761C11.5149 14.4722 11.5149 14.7126 11.3409 14.8086L10.265 15.4036C10.265 15.4036 10.1932 15.4428 10.1852 15.4463C10.0158 15.5204 9.81741 15.4024 9.81741 15.2188V14.9527H8.08419Z" fill="#D404FF"/>
</g>
</g>
</g>
<defs>
<filter id="filter0_i_32_11632" x="1.375" y="1.375" width="19.25" height="23.25" filterUnits="userSpaceOnUse" color-interpolation-filters="sRGB">
<feFlood flood-opacity="0" result="BackgroundImageFix"/>
<feBlend mode="normal" in="SourceGraphic" in2="BackgroundImageFix" result="shape"/>
<feColorMatrix in="SourceAlpha" type="matrix" values="0 0 0 0 0 0 0 0 0 0 0 0 0 0 0 0 0 0 127 0" result="hardAlpha"/>
<feOffset dy="4"/>
<feGaussianBlur stdDeviation="2"/>
<feComposite in2="hardAlpha" operator="arithmetic" k2="-1" k3="1"/>
<feColorMatrix type="matrix" values="0 0 0 0 0 0 0 0 0 0 0 0 0 0 0 0 0 0 0.25 0"/>
<feBlend mode="normal" in2="shape" result="effect1_innerShadow_32_11632"/>
</filter>
<filter id="filter1_d_32_11632" x="-1.54688" y="0.453125" width="25.0938" height="25.0938" filterUnits="userSpaceOnUse" color-interpolation-filters="sRGB">
<feFlood flood-opacity="0" result="BackgroundImageFix"/>
<feColorMatrix in="SourceAlpha" type="matrix" values="0 0 0 0 0 0 0 0 0 0 0 0 0 0 0 0 0 0 127 0" result="hardAlpha"/>
<feOffset dy="2"/>
<feGaussianBlur stdDeviation="2"/>
<feComposite in2="hardAlpha" operator="out"/>
<feColorMatrix type="matrix" values="0 0 0 0 0 0 0 0 0 0 0 0 0 0 0 0 0 0 0.25 0"/>
<feBlend mode="normal" in2="BackgroundImageFix" result="effect1_dropShadow_32_11632"/>
<feBlend mode="normal" in="SourceGraphic" in2="effect1_dropShadow_32_11632" result="shape"/>
</filter>
<filter id="filter2_d_32_11632" x="1.84375" y="6.9375" width="18.3125" height="14.5312" filterUnits="userSpaceOnUse" color-interpolation-filters="sRGB">
<feFlood flood-opacity="0" result="BackgroundImageFix"/>
<feColorMatrix in="SourceAlpha" type="matrix" values="0 0 0 0 0 0 0 0 0 0 0 0 0 0 0 0 0 0 127 0" result="hardAlpha"/>
<feOffset dy="2"/>
<feGaussianBlur stdDeviation="2"/>
<feComposite in2="hardAlpha" operator="out"/>
<feColorMatrix type="matrix" values="0 0 0 0 0 0 0 0 0 0 0 0 0 0 0 0 0 0 0.25 0"/>
<feBlend mode="normal" in2="BackgroundImageFix" result="effect1_dropShadow_32_11632"/>
<feBlend mode="normal" in="SourceGraphic" in2="effect1_dropShadow_32_11632" result="shape"/>
</filter>
<linearGradient id="paint0_linear_32_11632" x1="11" y1="0" x2="11" y2="22" gradientUnits="userSpaceOnUse">
<stop stop-color="#CB02C5"/>
<stop offset="0.244792" stop-color="#C101DA"/>
<stop offset="0.510417" stop-color="#B600F0"/>
<stop offset="0.744792" stop-color="#8900D9"/>
<stop offset="1" stop-color="#5800BF"/>
</linearGradient>
<linearGradient id="paint1_linear_32_11632" x1="11" y1="3.26562" x2="11" y2="18.7344" gradientUnits="userSpaceOnUse">
<stop stop-color="#C301D5"/>
<stop offset="0.505208" stop-color="#B600EF"/>
<stop offset="1" stop-color="#8100D4"/>
</linearGradient>
<clipPath id="clip0_32_11632">
<rect width="22" height="22" fill="white"/>
</clipPath>
</defs>
</svg>
