<svg width="22" height="22" viewBox="0 0 22 22" fill="none" xmlns="http://www.w3.org/2000/svg">
<g clip-path="url(#clip0_32_11655)">
<path d="M16.5 0H5.5C2.46243 0 0 2.46243 0 5.5V16.5C0 19.5376 2.46243 22 5.5 22H16.5C19.5376 22 22 19.5376 22 16.5V5.5C22 2.46243 19.5376 0 16.5 0Z" fill="url(#paint0_linear_32_11655)"/>
<g filter="url(#filter0_i_32_11655)">
<path d="M16.5 1.375H5.5C3.22183 1.375 1.375 3.22183 1.375 5.5V16.5C1.375 18.7782 3.22183 20.625 5.5 20.625H16.5C18.7782 20.625 20.625 18.7782 20.625 16.5V5.5C20.625 3.22183 18.7782 1.375 16.5 1.375Z" fill="black" fill-opacity="0.7"/>
<mask id="mask0_32_11655" style="mask-type:luminance" maskUnits="userSpaceOnUse" x="2" y="2" width="18" height="18">
<path d="M19.1641 2.66406H2.66406V19.1641H19.1641V2.66406Z" fill="white"/>
</mask>
<g mask="url(#mask0_32_11655)">
<g filter="url(#filter1_d_32_11655)">
<path d="M18.4566 9.22163L7.88086 3.35234L14.9617 13.873L16.4169 12.9192L18.4566 9.22163Z" fill="url(#paint1_linear_32_11655)"/>
</g>
<g filter="url(#filter2_d_32_11655)">
<path d="M14.2378 6.82836L12.9131 3.58963L9.98242 6.47478L11.1814 16.9436L14.021 18.4381L18.4572 15.8468L14.2378 6.82836Z" fill="url(#paint2_linear_32_11655)"/>
</g>
<g filter="url(#filter3_d_32_11655)">
<path d="M7.88109 3.35234L3.37109 6.38992L5.0478 16.7503L9.37237 18.413L14.9619 13.873L7.88109 3.35234Z" fill="url(#paint3_linear_32_11655)"/>
</g>
<g filter="url(#filter4_d_32_11655)">
<path d="M6.19922 6.19978H15.6278V15.6284H6.19922V6.19978Z" fill="black"/>
</g>
<path d="M7.375 13.8463H10.9107V14.4356H7.375V13.8463Z" fill="white"/>
<path d="M7.37793 7.36577H8.99651C9.18386 7.35424 9.37165 7.38011 9.5489 7.44189C9.72615 7.50368 9.88933 7.60012 10.0289 7.72563C10.1314 7.83353 10.2112 7.96089 10.2635 8.10016C10.3159 8.23945 10.3398 8.38781 10.3338 8.53648V8.54592C10.3455 8.78737 10.2773 9.02593 10.1399 9.22477C10.0024 9.4236 9.80324 9.5716 9.57322 9.64592L10.4406 10.9125H9.52764L8.76864 9.77792H8.16364V10.9125H7.37793V7.36577ZM8.94937 9.09433C9.32964 9.09433 9.54808 8.89163 9.54808 8.59306V8.58363C9.54808 8.24892 9.31551 8.07606 8.93522 8.07606H8.16364V9.09433H8.94937Z" fill="white"/>
<path d="M10.9814 7.36575H12.3643C13.4784 7.36575 14.25 8.13104 14.25 9.1289V9.1399C14.25 10.1378 13.48 10.9125 12.3643 10.9125H10.9814V7.36575ZM11.7672 8.06975V10.2069H12.3706C12.5123 10.2153 12.6542 10.1936 12.787 10.1435C12.9197 10.0934 13.0405 10.0158 13.1413 9.91586C13.2421 9.81593 13.3207 9.6959 13.3721 9.56355C13.4234 9.43121 13.4463 9.28953 13.4392 9.14775V9.13833C13.4464 8.99604 13.4237 8.85381 13.3725 8.72082C13.3214 8.58782 13.243 8.46703 13.1423 8.3662C13.0416 8.26538 12.9209 8.18677 12.788 8.13544C12.6551 8.0841 12.5129 8.06119 12.3706 8.06819L11.7672 8.06975Z" fill="white"/>
</g>
</g>
</g>
<defs>
<filter id="filter0_i_32_11655" x="1.375" y="1.375" width="19.25" height="23.25" filterUnits="userSpaceOnUse" color-interpolation-filters="sRGB">
<feFlood flood-opacity="0" result="BackgroundImageFix"/>
<feBlend mode="normal" in="SourceGraphic" in2="BackgroundImageFix" result="shape"/>
<feColorMatrix in="SourceAlpha" type="matrix" values="0 0 0 0 0 0 0 0 0 0 0 0 0 0 0 0 0 0 127 0" result="hardAlpha"/>
<feOffset dy="4"/>
<feGaussianBlur stdDeviation="2"/>
<feComposite in2="hardAlpha" operator="arithmetic" k2="-1" k3="1"/>
<feColorMatrix type="matrix" values="0 0 0 0 0 0 0 0 0 0 0 0 0 0 0 0 0 0 0.25 0"/>
<feBlend mode="normal" in2="shape" result="effect1_innerShadow_32_11655"/>
</filter>
<filter id="filter1_d_32_11655" x="3.88086" y="1.35234" width="18.5762" height="18.5207" filterUnits="userSpaceOnUse" color-interpolation-filters="sRGB">
<feFlood flood-opacity="0" result="BackgroundImageFix"/>
<feColorMatrix in="SourceAlpha" type="matrix" values="0 0 0 0 0 0 0 0 0 0 0 0 0 0 0 0 0 0 127 0" result="hardAlpha"/>
<feOffset dy="2"/>
<feGaussianBlur stdDeviation="2"/>
<feComposite in2="hardAlpha" operator="out"/>
<feColorMatrix type="matrix" values="0 0 0 0 0 0 0 0 0 0 0 0 0 0 0 0 0 0 0.25 0"/>
<feBlend mode="normal" in2="BackgroundImageFix" result="effect1_dropShadow_32_11655"/>
<feBlend mode="normal" in="SourceGraphic" in2="effect1_dropShadow_32_11655" result="shape"/>
</filter>
<filter id="filter2_d_32_11655" x="5.98242" y="1.58963" width="16.4746" height="22.8484" filterUnits="userSpaceOnUse" color-interpolation-filters="sRGB">
<feFlood flood-opacity="0" result="BackgroundImageFix"/>
<feColorMatrix in="SourceAlpha" type="matrix" values="0 0 0 0 0 0 0 0 0 0 0 0 0 0 0 0 0 0 127 0" result="hardAlpha"/>
<feOffset dy="2"/>
<feGaussianBlur stdDeviation="2"/>
<feComposite in2="hardAlpha" operator="out"/>
<feColorMatrix type="matrix" values="0 0 0 0 0 0 0 0 0 0 0 0 0 0 0 0 0 0 0.25 0"/>
<feBlend mode="normal" in2="BackgroundImageFix" result="effect1_dropShadow_32_11655"/>
<feBlend mode="normal" in="SourceGraphic" in2="effect1_dropShadow_32_11655" result="shape"/>
</filter>
<filter id="filter3_d_32_11655" x="-0.628906" y="1.35234" width="19.5908" height="23.0606" filterUnits="userSpaceOnUse" color-interpolation-filters="sRGB">
<feFlood flood-opacity="0" result="BackgroundImageFix"/>
<feColorMatrix in="SourceAlpha" type="matrix" values="0 0 0 0 0 0 0 0 0 0 0 0 0 0 0 0 0 0 127 0" result="hardAlpha"/>
<feOffset dy="2"/>
<feGaussianBlur stdDeviation="2"/>
<feComposite in2="hardAlpha" operator="out"/>
<feColorMatrix type="matrix" values="0 0 0 0 0 0 0 0 0 0 0 0 0 0 0 0 0 0 0.25 0"/>
<feBlend mode="normal" in2="BackgroundImageFix" result="effect1_dropShadow_32_11655"/>
<feBlend mode="normal" in="SourceGraphic" in2="effect1_dropShadow_32_11655" result="shape"/>
</filter>
<filter id="filter4_d_32_11655" x="2.19922" y="4.19978" width="17.4287" height="17.4286" filterUnits="userSpaceOnUse" color-interpolation-filters="sRGB">
<feFlood flood-opacity="0" result="BackgroundImageFix"/>
<feColorMatrix in="SourceAlpha" type="matrix" values="0 0 0 0 0 0 0 0 0 0 0 0 0 0 0 0 0 0 127 0" result="hardAlpha"/>
<feOffset dy="2"/>
<feGaussianBlur stdDeviation="2"/>
<feComposite in2="hardAlpha" operator="out"/>
<feColorMatrix type="matrix" values="0 0 0 0 0 0 0 0 0 0 0 0 0 0 0 0 0 0 0.25 0"/>
<feBlend mode="normal" in2="BackgroundImageFix" result="effect1_dropShadow_32_11655"/>
<feBlend mode="normal" in="SourceGraphic" in2="effect1_dropShadow_32_11655" result="shape"/>
</filter>
<linearGradient id="paint0_linear_32_11655" x1="11" y1="0" x2="11" y2="22" gradientUnits="userSpaceOnUse">
<stop stop-color="#087CFA"/>
<stop offset="0.317708" stop-color="#963597"/>
<stop offset="0.671875" stop-color="#DD1265"/>
<stop offset="1" stop-color="#ED6438"/>
</linearGradient>
<linearGradient id="paint1_linear_32_11655" x1="17.4871" y1="11.9936" x2="5.85844" y2="5.32134" gradientUnits="userSpaceOnUse">
<stop stop-color="#DD1265"/>
<stop offset="0.48" stop-color="#DD1265"/>
<stop offset="0.94" stop-color="#FDB60D"/>
</linearGradient>
<linearGradient id="paint2_linear_32_11655" x1="10.5733" y1="4.66921" x2="15.1823" y2="17.3977" gradientUnits="userSpaceOnUse">
<stop offset="0.14" stop-color="#087CFA"/>
<stop offset="0.48" stop-color="#DD1265"/>
<stop offset="0.96" stop-color="#087CFA"/>
</linearGradient>
<linearGradient id="paint3_linear_32_11655" x1="7.12051" y1="5.06205" x2="10.5242" y2="17.162" gradientUnits="userSpaceOnUse">
<stop offset="0.28" stop-color="#DD1265"/>
<stop offset="0.97" stop-color="#FDB60D"/>
</linearGradient>
<clipPath id="clip0_32_11655">
<rect width="22" height="22" fill="white"/>
</clipPath>
</defs>
</svg>
