<svg width="22" height="22" viewBox="0 0 22 22" fill="none" xmlns="http://www.w3.org/2000/svg">
<g clip-path="url(#clip0_32_11735)">
<path d="M16.5 0H5.5C2.46243 0 0 2.46243 0 5.5V16.5C0 19.5376 2.46243 22 5.5 22H16.5C19.5376 22 22 19.5376 22 16.5V5.5C22 2.46243 19.5376 0 16.5 0Z" fill="url(#paint0_linear_32_11735)"/>
<g filter="url(#filter0_i_32_11735)">
<path d="M16.5 1.375H5.5C3.22183 1.375 1.375 3.22183 1.375 5.5V16.5C1.375 18.7782 3.22183 20.625 5.5 20.625H16.5C18.7782 20.625 20.625 18.7782 20.625 16.5V5.5C20.625 3.22183 18.7782 1.375 16.5 1.375Z" fill="black" fill-opacity="0.7"/>
<path d="M10.9981 2.75L19.25 11.0019L10.9981 19.25L2.75 11.0019L10.9981 2.75Z" fill="#8A5AAB"/>
<path d="M10.9981 19.25L2.75 11.0019H19.25L10.9981 19.25Z" fill="#3A497D"/>
<path d="M13.8964 11.0019L9.71484 14.1005V7.89951L13.8964 11.0019Z" fill="white"/>
</g>
</g>
<defs>
<filter id="filter0_i_32_11735" x="1.375" y="1.375" width="19.25" height="23.25" filterUnits="userSpaceOnUse" color-interpolation-filters="sRGB">
<feFlood flood-opacity="0" result="BackgroundImageFix"/>
<feBlend mode="normal" in="SourceGraphic" in2="BackgroundImageFix" result="shape"/>
<feColorMatrix in="SourceAlpha" type="matrix" values="0 0 0 0 0 0 0 0 0 0 0 0 0 0 0 0 0 0 127 0" result="hardAlpha"/>
<feOffset dy="4"/>
<feGaussianBlur stdDeviation="2"/>
<feComposite in2="hardAlpha" operator="arithmetic" k2="-1" k3="1"/>
<feColorMatrix type="matrix" values="0 0 0 0 0 0 0 0 0 0 0 0 0 0 0 0 0 0 0.25 0"/>
<feBlend mode="normal" in2="shape" result="effect1_innerShadow_32_11735"/>
</filter>
<linearGradient id="paint0_linear_32_11735" x1="11" y1="0" x2="11" y2="22" gradientUnits="userSpaceOnUse">
<stop stop-color="#8A5AAB"/>
<stop offset="1" stop-color="#3A497D"/>
</linearGradient>
<clipPath id="clip0_32_11735">
<rect width="22" height="22" fill="white"/>
</clipPath>
</defs>
</svg>
