<svg width="22" height="22" viewBox="0 0 22 22" fill="none" xmlns="http://www.w3.org/2000/svg">
<g clip-path="url(#clip0_32_11742)">
<path d="M16.5 0H5.5C2.46243 0 0 2.46243 0 5.5V16.5C0 19.5376 2.46243 22 5.5 22H16.5C19.5376 22 22 19.5376 22 16.5V5.5C22 2.46243 19.5376 0 16.5 0Z" fill="url(#paint0_linear_32_11742)"/>
<g filter="url(#filter0_i_32_11742)">
<path d="M16.5 1.375H5.5C3.22183 1.375 1.375 3.22183 1.375 5.5V16.5C1.375 18.7782 3.22183 20.625 5.5 20.625H16.5C18.7782 20.625 20.625 18.7782 20.625 16.5V5.5C20.625 3.22183 18.7782 1.375 16.5 1.375Z" fill="black" fill-opacity="0.7"/>
<g filter="url(#filter1_d_32_11742)">
<path d="M16.2751 11.0314C16.2751 10.8703 16.156 10.7774 16.0099 10.8235L5.95567 14.0117C5.80923 14.0582 5.69043 14.2267 5.69043 14.3875V17.6461C5.69043 17.8071 5.80923 17.9004 5.95567 17.8539L16.0099 14.666C16.156 14.6196 16.2751 14.4511 16.2751 14.2899V11.0314Z" fill="url(#paint1_linear_32_11742)"/>
<path d="M5.69043 10.9276C5.69043 11.0888 5.80923 11.2573 5.95567 11.3037L16.0113 14.4922C16.1578 14.5387 16.2766 14.4455 16.2766 14.2846V11.0258C16.2766 10.865 16.1578 10.6965 16.0113 10.65L5.95567 7.46154C5.80923 7.41508 5.69043 7.50802 5.69043 7.66915V10.9276Z" fill="#FF9800"/>
<path d="M16.2751 4.3357C16.2751 4.17455 16.156 4.08133 16.0099 4.1278L5.95567 7.3157C5.80923 7.36216 5.69043 7.53065 5.69043 7.6918V10.9503C5.69043 11.1114 5.80923 11.2043 5.95567 11.1582L16.0099 7.96998C16.156 7.92352 16.2751 7.75502 16.2751 7.59418V4.3357Z" fill="#FF9800"/>
</g>
</g>
</g>
<defs>
<filter id="filter0_i_32_11742" x="1.375" y="1.375" width="19.25" height="23.25" filterUnits="userSpaceOnUse" color-interpolation-filters="sRGB">
<feFlood flood-opacity="0" result="BackgroundImageFix"/>
<feBlend mode="normal" in="SourceGraphic" in2="BackgroundImageFix" result="shape"/>
<feColorMatrix in="SourceAlpha" type="matrix" values="0 0 0 0 0 0 0 0 0 0 0 0 0 0 0 0 0 0 127 0" result="hardAlpha"/>
<feOffset dy="4"/>
<feGaussianBlur stdDeviation="2"/>
<feComposite in2="hardAlpha" operator="arithmetic" k2="-1" k3="1"/>
<feColorMatrix type="matrix" values="0 0 0 0 0 0 0 0 0 0 0 0 0 0 0 0 0 0 0.25 0"/>
<feBlend mode="normal" in2="shape" result="effect1_innerShadow_32_11742"/>
</filter>
<filter id="filter1_d_32_11742" x="2.35339" y="2.44733" width="17.26" height="20.4241" filterUnits="userSpaceOnUse" color-interpolation-filters="sRGB">
<feFlood flood-opacity="0" result="BackgroundImageFix"/>
<feColorMatrix in="SourceAlpha" type="matrix" values="0 0 0 0 0 0 0 0 0 0 0 0 0 0 0 0 0 0 127 0" result="hardAlpha"/>
<feOffset dy="1.66852"/>
<feGaussianBlur stdDeviation="1.66852"/>
<feComposite in2="hardAlpha" operator="out"/>
<feColorMatrix type="matrix" values="0 0 0 0 0 0 0 0 0 0 0 0 0 0 0 0 0 0 0.25 0"/>
<feBlend mode="normal" in2="BackgroundImageFix" result="effect1_dropShadow_32_11742"/>
<feBlend mode="normal" in="SourceGraphic" in2="effect1_dropShadow_32_11742" result="shape"/>
</filter>
<linearGradient id="paint0_linear_32_11742" x1="11" y1="22" x2="11" y2="0" gradientUnits="userSpaceOnUse">
<stop stop-color="#D06F00"/>
<stop offset="1" stop-color="#FF9800"/>
</linearGradient>
<linearGradient id="paint1_linear_32_11742" x1="589.086" y1="424.746" x2="633.48" y2="276.306" gradientUnits="userSpaceOnUse">
<stop stop-color="#FF9700"/>
<stop offset="0.53" stop-color="#F48E00"/>
<stop offset="1" stop-color="#D06F00"/>
</linearGradient>
<clipPath id="clip0_32_11742">
<rect width="22" height="22" fill="white"/>
</clipPath>
</defs>
</svg>
