<svg width="22" height="22" viewBox="0 0 22 22" fill="none" xmlns="http://www.w3.org/2000/svg">
<g clip-path="url(#clip0_32_11750)">
<path d="M16.5 0H5.5C2.46243 0 0 2.46243 0 5.5V16.5C0 19.5376 2.46243 22 5.5 22H16.5C19.5376 22 22 19.5376 22 16.5V5.5C22 2.46243 19.5376 0 16.5 0Z" fill="url(#paint0_linear_32_11750)"/>
<g filter="url(#filter0_i_32_11750)">
<path d="M16.5 1.375H5.5C3.22183 1.375 1.375 3.22183 1.375 5.5V16.5C1.375 18.7782 3.22183 20.625 5.5 20.625H16.5C18.7782 20.625 20.625 18.7782 20.625 16.5V5.5C20.625 3.22183 18.7782 1.375 16.5 1.375Z" fill="black" fill-opacity="0.7"/>
<path fill-rule="evenodd" clip-rule="evenodd" d="M7.84037 5.10965C7.64739 4.91925 7.3872 4.8125 7.11611 4.8125H4.46875C3.89921 4.8125 3.4375 5.27421 3.4375 5.84375V16.1562C3.4375 16.7258 3.89921 17.1875 4.46875 17.1875H17.5312C18.1008 17.1875 18.5625 16.7258 18.5625 16.1562V7.5625C18.5625 6.99296 18.1008 6.53125 17.5312 6.53125H9.70434C9.43324 6.53125 9.17305 6.4245 8.98007 6.2341L7.84037 5.10965Z" fill="#5739A8"/>
<path d="M17.0214 7.39062H4.97852C4.69374 7.39062 4.46289 7.62148 4.46289 7.90625V14.2656C4.46289 14.5504 4.69374 14.7812 4.97852 14.7812H17.0214C17.3062 14.7812 17.537 14.5504 17.537 14.2656V7.90625C17.537 7.62148 17.3062 7.39062 17.0214 7.39062Z" fill="#FAFAFA"/>
<g filter="url(#filter1_d_32_11750)">
<path d="M3.4375 9.28125C3.4375 8.71171 3.89921 8.25 4.46875 8.25H17.5312C18.1008 8.25 18.5625 8.71171 18.5625 9.28125V16.1562C18.5625 16.7258 18.1008 17.1875 17.5312 17.1875H4.46875C3.89921 17.1875 3.4375 16.7258 3.4375 16.1562V9.28125Z" fill="#7962E7"/>
</g>
</g>
</g>
<defs>
<filter id="filter0_i_32_11750" x="1.375" y="1.375" width="19.25" height="23.25" filterUnits="userSpaceOnUse" color-interpolation-filters="sRGB">
<feFlood flood-opacity="0" result="BackgroundImageFix"/>
<feBlend mode="normal" in="SourceGraphic" in2="BackgroundImageFix" result="shape"/>
<feColorMatrix in="SourceAlpha" type="matrix" values="0 0 0 0 0 0 0 0 0 0 0 0 0 0 0 0 0 0 127 0" result="hardAlpha"/>
<feOffset dy="4"/>
<feGaussianBlur stdDeviation="2"/>
<feComposite in2="hardAlpha" operator="arithmetic" k2="-1" k3="1"/>
<feColorMatrix type="matrix" values="0 0 0 0 0 0 0 0 0 0 0 0 0 0 0 0 0 0 0.25 0"/>
<feBlend mode="normal" in2="shape" result="effect1_innerShadow_32_11750"/>
</filter>
<filter id="filter1_d_32_11750" x="0.4375" y="6.75" width="21.125" height="14.9375" filterUnits="userSpaceOnUse" color-interpolation-filters="sRGB">
<feFlood flood-opacity="0" result="BackgroundImageFix"/>
<feColorMatrix in="SourceAlpha" type="matrix" values="0 0 0 0 0 0 0 0 0 0 0 0 0 0 0 0 0 0 127 0" result="hardAlpha"/>
<feOffset dy="1.5"/>
<feGaussianBlur stdDeviation="1.5"/>
<feComposite in2="hardAlpha" operator="out"/>
<feColorMatrix type="matrix" values="0 0 0 0 0 0 0 0 0 0 0 0 0 0 0 0 0 0 0.25 0"/>
<feBlend mode="normal" in2="BackgroundImageFix" result="effect1_dropShadow_32_11750"/>
<feBlend mode="normal" in="SourceGraphic" in2="effect1_dropShadow_32_11750" result="shape"/>
</filter>
<linearGradient id="paint0_linear_32_11750" x1="22" y1="0" x2="0" y2="22" gradientUnits="userSpaceOnUse">
<stop stop-color="#6653C3"/>
<stop offset="1" stop-color="#5638A5"/>
</linearGradient>
<clipPath id="clip0_32_11750">
<rect width="22" height="22" fill="white"/>
</clipPath>
</defs>
</svg>
