<svg width="22" height="22" viewBox="0 0 22 22" fill="none" xmlns="http://www.w3.org/2000/svg">
<g clip-path="url(#clip0_32_11787)">
<path d="M16.5 0H5.5C2.46243 0 0 2.46243 0 5.5V16.5C0 19.5376 2.46243 22 5.5 22H16.5C19.5376 22 22 19.5376 22 16.5V5.5C22 2.46243 19.5376 0 16.5 0Z" fill="url(#paint0_linear_32_11787)"/>
<g filter="url(#filter0_i_32_11787)">
<path d="M16.5 1.375H5.5C3.22183 1.375 1.375 3.22183 1.375 5.5V16.5C1.375 18.7782 3.22183 20.625 5.5 20.625H16.5C18.7782 20.625 20.625 18.7782 20.625 16.5V5.5C20.625 3.22183 18.7782 1.375 16.5 1.375Z" fill="black" fill-opacity="0.7"/>
<g filter="url(#filter1_d_32_11787)">
<path d="M5.15625 6.1875C5.15625 4.66871 6.38746 3.4375 7.90625 3.4375H14.0938C15.6125 3.4375 16.8438 4.66871 16.8438 6.1875V15.8125C16.8438 17.3314 15.6125 18.5625 14.0938 18.5625H7.90625C6.38746 18.5625 5.15625 17.3314 5.15625 15.8125V6.1875Z" fill="#7962E7"/>
</g>
<path d="M5.15625 6.875H16.8438V15.8125C16.8438 17.3314 15.6125 18.5625 14.0938 18.5625H7.90625C6.38746 18.5625 5.15625 17.3314 5.15625 15.8125V6.875Z" fill="#FAFAFA"/>
<path d="M10.6562 11H7.21875C6.83905 11 6.53125 11.3078 6.53125 11.6875C6.53125 12.0672 6.83905 12.375 7.21875 12.375H10.6562C11.0359 12.375 11.3438 12.0672 11.3438 11.6875C11.3438 11.3078 11.0359 11 10.6562 11Z" fill="#222222"/>
<path d="M14.7812 8.25H7.21875C6.83905 8.25 6.53125 8.5578 6.53125 8.9375C6.53125 9.3172 6.83905 9.625 7.21875 9.625H14.7812C15.1609 9.625 15.4688 9.3172 15.4688 8.9375C15.4688 8.5578 15.1609 8.25 14.7812 8.25Z" fill="#222222"/>
</g>
</g>
<defs>
<filter id="filter0_i_32_11787" x="1.375" y="1.375" width="19.25" height="23.25" filterUnits="userSpaceOnUse" color-interpolation-filters="sRGB">
<feFlood flood-opacity="0" result="BackgroundImageFix"/>
<feBlend mode="normal" in="SourceGraphic" in2="BackgroundImageFix" result="shape"/>
<feColorMatrix in="SourceAlpha" type="matrix" values="0 0 0 0 0 0 0 0 0 0 0 0 0 0 0 0 0 0 127 0" result="hardAlpha"/>
<feOffset dy="4"/>
<feGaussianBlur stdDeviation="2"/>
<feComposite in2="hardAlpha" operator="arithmetic" k2="-1" k3="1"/>
<feColorMatrix type="matrix" values="0 0 0 0 0 0 0 0 0 0 0 0 0 0 0 0 0 0 0.25 0"/>
<feBlend mode="normal" in2="shape" result="effect1_innerShadow_32_11787"/>
</filter>
<filter id="filter1_d_32_11787" x="1.15625" y="1.4375" width="19.6875" height="23.125" filterUnits="userSpaceOnUse" color-interpolation-filters="sRGB">
<feFlood flood-opacity="0" result="BackgroundImageFix"/>
<feColorMatrix in="SourceAlpha" type="matrix" values="0 0 0 0 0 0 0 0 0 0 0 0 0 0 0 0 0 0 127 0" result="hardAlpha"/>
<feOffset dy="2"/>
<feGaussianBlur stdDeviation="2"/>
<feComposite in2="hardAlpha" operator="out"/>
<feColorMatrix type="matrix" values="0 0 0 0 0 0 0 0 0 0 0 0 0 0 0 0 0 0 0.25 0"/>
<feBlend mode="normal" in2="BackgroundImageFix" result="effect1_dropShadow_32_11787"/>
<feBlend mode="normal" in="SourceGraphic" in2="effect1_dropShadow_32_11787" result="shape"/>
</filter>
<linearGradient id="paint0_linear_32_11787" x1="22" y1="0" x2="0" y2="22" gradientUnits="userSpaceOnUse">
<stop stop-color="#6653C3"/>
<stop offset="1" stop-color="#5638A5"/>
</linearGradient>
<clipPath id="clip0_32_11787">
<rect width="22" height="22" fill="white"/>
</clipPath>
</defs>
</svg>
