<svg width="22" height="22" viewBox="0 0 22 22" fill="none" xmlns="http://www.w3.org/2000/svg">
<g clip-path="url(#clip0_32_11796)">
<path d="M16.5 0H5.5C2.46243 0 0 2.46243 0 5.5V16.5C0 19.5376 2.46243 22 5.5 22H16.5C19.5376 22 22 19.5376 22 16.5V5.5C22 2.46243 19.5376 0 16.5 0Z" fill="url(#paint0_linear_32_11796)"/>
<path d="M16.5 0H5.5C2.46243 0 0 2.46243 0 5.5V16.5C0 19.5376 2.46243 22 5.5 22H16.5C19.5376 22 22 19.5376 22 16.5V5.5C22 2.46243 19.5376 0 16.5 0Z" fill="black" fill-opacity="0.9"/>
<g filter="url(#filter0_i_32_11796)">
<path d="M16.5 1.375H5.5C3.22183 1.375 1.375 3.22183 1.375 5.5V16.5C1.375 18.7782 3.22183 20.625 5.5 20.625H16.5C18.7782 20.625 20.625 18.7782 20.625 16.5V5.5C20.625 3.22183 18.7782 1.375 16.5 1.375Z" fill="black" fill-opacity="0.7"/>
<path d="M14.2608 10.4979C14.2016 10.4695 14.1414 10.4421 14.0805 10.416C13.9743 8.46041 12.9058 7.34085 11.1115 7.32939C11.1034 7.32935 11.0953 7.32935 11.0872 7.32935C10.014 7.32935 9.12145 7.78743 8.57209 8.62101L9.55887 9.29792C9.96926 8.67527 10.6133 8.54253 11.0877 8.54253C11.0932 8.54253 11.0987 8.54253 11.1041 8.54258C11.6949 8.54635 12.1406 8.71812 12.4292 9.05309C12.6391 9.29696 12.7796 9.63395 12.8491 10.0593C12.3253 9.97023 11.7589 9.94287 11.1533 9.97758C9.44741 10.0758 8.35073 11.0707 8.4244 12.4532C8.46176 13.1545 8.81112 13.7577 9.40805 14.1518C9.91275 14.485 10.5628 14.6479 11.2383 14.611C12.1305 14.5621 12.8304 14.2217 13.3186 13.5993C13.6895 13.1267 13.924 12.5141 14.0275 11.7424C14.4527 11.999 14.7678 12.3366 14.9418 12.7425C15.2378 13.4325 15.255 14.5664 14.3298 15.4908C13.5192 16.3006 12.5448 16.651 11.0723 16.6618C9.43879 16.6497 8.2034 16.1258 7.40019 15.1047C6.64805 14.1486 6.25936 12.7676 6.24485 11C6.25936 9.23239 6.64805 7.85137 7.40019 6.89525C8.2034 5.87417 9.43877 5.35033 11.0722 5.33818C12.7176 5.35042 13.9745 5.87678 14.8084 6.90279C15.2173 7.40592 15.5257 8.03865 15.7289 8.77638L16.8853 8.46787C16.6389 7.55978 16.2513 6.77729 15.7237 6.12834C14.6546 4.81298 13.091 4.13897 11.0763 4.125H11.0682C9.0576 4.13892 7.51148 4.81549 6.47281 6.13589C5.54852 7.31087 5.07173 8.94578 5.05572 10.9952L5.05566 11L5.05572 11.0048C5.07173 13.0542 5.54852 14.6892 6.47281 15.8641C7.51148 17.1845 9.0576 17.8611 11.0682 17.875H11.0763C12.8638 17.8626 14.1238 17.3946 15.1618 16.3576C16.5198 15.0008 16.4789 13.3002 16.0313 12.2562C15.7102 11.5075 15.098 10.8995 14.2608 10.4979ZM11.1745 13.3996C10.4268 13.4417 9.65005 13.1061 9.61176 12.3873C9.58337 11.8544 9.99105 11.2597 11.2203 11.1888C11.3611 11.1807 11.4993 11.1767 11.635 11.1767C12.0815 11.1767 12.4992 11.2201 12.879 11.3031C12.7373 13.0722 11.9065 13.3594 11.1745 13.3996Z" fill="white"/>
</g>
</g>
<defs>
<filter id="filter0_i_32_11796" x="1.375" y="1.375" width="19.25" height="23.25" filterUnits="userSpaceOnUse" color-interpolation-filters="sRGB">
<feFlood flood-opacity="0" result="BackgroundImageFix"/>
<feBlend mode="normal" in="SourceGraphic" in2="BackgroundImageFix" result="shape"/>
<feColorMatrix in="SourceAlpha" type="matrix" values="0 0 0 0 0 0 0 0 0 0 0 0 0 0 0 0 0 0 127 0" result="hardAlpha"/>
<feOffset dy="4"/>
<feGaussianBlur stdDeviation="2"/>
<feComposite in2="hardAlpha" operator="arithmetic" k2="-1" k3="1"/>
<feColorMatrix type="matrix" values="0 0 0 0 0 0 0 0 0 0 0 0 0 0 0 0 0 0 0.25 0"/>
<feBlend mode="normal" in2="shape" result="effect1_innerShadow_32_11796"/>
</filter>
<linearGradient id="paint0_linear_32_11796" x1="11" y1="0" x2="11" y2="22" gradientUnits="userSpaceOnUse">
<stop stop-color="white"/>
<stop offset="1" stop-color="#DFDFDF"/>
</linearGradient>
<clipPath id="clip0_32_11796">
<rect width="22" height="22" fill="white"/>
</clipPath>
</defs>
</svg>
