<svg width="22" height="22" viewBox="0 0 22 22" fill="none" xmlns="http://www.w3.org/2000/svg">
<g clip-path="url(#clip0_32_11802)">
<path d="M16.5 0H5.5C2.46243 0 0 2.46243 0 5.5V16.5C0 19.5376 2.46243 22 5.5 22H16.5C19.5376 22 22 19.5376 22 16.5V5.5C22 2.46243 19.5376 0 16.5 0Z" fill="url(#paint0_linear_32_11802)"/>
<path d="M16.5 0H5.5C2.46243 0 0 2.46243 0 5.5V16.5C0 19.5376 2.46243 22 5.5 22H16.5C19.5376 22 22 19.5376 22 16.5V5.5C22 2.46243 19.5376 0 16.5 0Z" fill="url(#paint1_linear_32_11802)"/>
<g filter="url(#filter0_i_32_11802)">
<path d="M16.5 1.375H5.5C3.22183 1.375 1.375 3.22183 1.375 5.5V16.5C1.375 18.7782 3.22183 20.625 5.5 20.625H16.5C18.7782 20.625 20.625 18.7782 20.625 16.5V5.5C20.625 3.22183 18.7782 1.375 16.5 1.375Z" fill="black" fill-opacity="0.7"/>
<path d="M11 17.6065C14.6486 17.6065 17.6065 14.6486 17.6065 11C17.6065 7.35137 14.6486 4.39355 11 4.39355C7.35137 4.39355 4.39355 7.35137 4.39355 11C4.39355 14.6486 7.35137 17.6065 11 17.6065Z" fill="#F2E4FF"/>
<path fill-rule="evenodd" clip-rule="evenodd" d="M11.0141 16.6246V15.7912C13.654 15.7836 15.7916 13.6416 15.7916 10.9998C15.7916 8.35818 13.654 6.21624 11.0141 6.20862V5.3752C14.1143 5.38302 16.6248 7.89791 16.6248 10.9998C16.6248 14.1019 14.1143 16.617 11.0141 16.6246ZM11.0141 13.7076C12.5031 13.6998 13.7083 12.4909 13.7083 10.9998C13.7083 9.5089 12.5031 8.30005 11.0141 8.29223V7.45901C12.9636 7.46665 14.5417 9.04865 14.5417 10.9998C14.5417 12.9512 12.9636 14.5332 11.0141 14.5408V13.7076ZM11.0141 9.54224C11.8128 9.54987 12.4583 10.1992 12.4583 10.9998C12.4583 11.8006 11.8128 12.4499 11.0141 12.4576V9.54224ZM4.125 10.9998C4.125 14.7969 7.20287 17.875 11 17.875C14.7969 17.875 17.875 14.7969 17.875 10.9998C17.875 7.20287 14.7969 4.125 11 4.125C7.20287 4.125 4.125 7.20287 4.125 10.9998Z" fill="#941AD0"/>
<g filter="url(#filter1_d_32_11802)">
<path d="M10.9995 4.90379C7.57336 4.90379 4.7959 7.66923 4.7959 11.0806C4.7959 14.4919 7.57336 17.2573 10.9995 17.2573V4.90379Z" fill="black"/>
</g>
<path d="M11 4.125C7.20304 4.125 4.125 7.20304 4.125 11C4.125 14.797 7.20304 17.875 11 17.875V4.125Z" fill="#8116B6"/>
</g>
</g>
<defs>
<filter id="filter0_i_32_11802" x="1.375" y="1.375" width="19.25" height="23.25" filterUnits="userSpaceOnUse" color-interpolation-filters="sRGB">
<feFlood flood-opacity="0" result="BackgroundImageFix"/>
<feBlend mode="normal" in="SourceGraphic" in2="BackgroundImageFix" result="shape"/>
<feColorMatrix in="SourceAlpha" type="matrix" values="0 0 0 0 0 0 0 0 0 0 0 0 0 0 0 0 0 0 127 0" result="hardAlpha"/>
<feOffset dy="4"/>
<feGaussianBlur stdDeviation="2"/>
<feComposite in2="hardAlpha" operator="arithmetic" k2="-1" k3="1"/>
<feColorMatrix type="matrix" values="0 0 0 0 0 0 0 0 0 0 0 0 0 0 0 0 0 0 0.25 0"/>
<feBlend mode="normal" in2="shape" result="effect1_innerShadow_32_11802"/>
</filter>
<filter id="filter1_d_32_11802" x="0.420898" y="1.77879" width="12.4541" height="18.6035" filterUnits="userSpaceOnUse" color-interpolation-filters="sRGB">
<feFlood flood-opacity="0" result="BackgroundImageFix"/>
<feColorMatrix in="SourceAlpha" type="matrix" values="0 0 0 0 0 0 0 0 0 0 0 0 0 0 0 0 0 0 127 0" result="hardAlpha"/>
<feOffset dx="-1.25"/>
<feGaussianBlur stdDeviation="1.5625"/>
<feColorMatrix type="matrix" values="0 0 0 0 0.25098 0 0 0 0 0.25098 0 0 0 0 0.25098 0 0 0 0.2 0"/>
<feBlend mode="normal" in2="BackgroundImageFix" result="effect1_dropShadow_32_11802"/>
<feBlend mode="normal" in="SourceGraphic" in2="effect1_dropShadow_32_11802" result="shape"/>
</filter>
<linearGradient id="paint0_linear_32_11802" x1="33.0344" y1="-6.08119" x2="-4.87432" y2="21.9909" gradientUnits="userSpaceOnUse">
<stop stop-color="#D446FF"/>
<stop offset="1" stop-color="#A0D8FF"/>
</linearGradient>
<linearGradient id="paint1_linear_32_11802" x1="11" y1="0" x2="11" y2="22" gradientUnits="userSpaceOnUse">
<stop stop-color="#951AD1"/>
<stop offset="1" stop-color="#6C1397"/>
</linearGradient>
<clipPath id="clip0_32_11802">
<rect width="22" height="22" fill="white"/>
</clipPath>
</defs>
</svg>
