<svg width="22" height="22" viewBox="0 0 22 22" fill="none" xmlns="http://www.w3.org/2000/svg">
<g clip-path="url(#clip0_32_11846)">
<path d="M16.5 0H5.5C2.46243 0 0 2.46243 0 5.5V16.5C0 19.5376 2.46243 22 5.5 22H16.5C19.5376 22 22 19.5376 22 16.5V5.5C22 2.46243 19.5376 0 16.5 0Z" fill="url(#paint0_linear_32_11846)"/>
<g filter="url(#filter0_i_32_11846)">
<path d="M16.5 1.375H5.5C3.22183 1.375 1.375 3.22183 1.375 5.5V16.5C1.375 18.7782 3.22183 20.625 5.5 20.625H16.5C18.7782 20.625 20.625 18.7782 20.625 16.5V5.5C20.625 3.22183 18.7782 1.375 16.5 1.375Z" fill="black" fill-opacity="0.7"/>
<g filter="url(#filter1_d_32_11846)">
<path d="M15.8599 6.13956C13.177 3.45348 8.82398 3.45348 6.13712 6.13956C3.45429 8.82564 3.45429 13.1784 6.13712 15.8604C8.81995 18.5465 13.173 18.5465 15.8599 15.8604C18.5467 13.1744 18.5467 8.8216 15.8599 6.13956ZM15.4483 9.29895C14.3147 11.269 13.1811 13.2391 12.0474 15.2132C11.8376 15.5813 11.531 15.7998 11.1114 15.8321C10.6435 15.8645 10.2723 15.6663 10.0343 15.2617C9.31617 14.0279 8.60612 12.786 7.89609 11.5481C7.46441 10.7957 7.02871 10.0433 6.59703 9.28681C6.16132 8.52628 6.65352 7.59991 7.52493 7.55541C7.98485 7.53115 8.33986 7.74554 8.57386 8.14603C8.89257 8.69214 9.20724 9.24636 9.52597 9.79651C9.75592 10.193 9.97781 10.5934 10.2118 10.9818C10.5507 11.5522 11.0509 11.8718 11.7166 11.9122C12.6566 11.9689 13.532 11.2852 13.645 10.286C13.6531 10.2132 13.6571 10.1363 13.6611 10.0999C13.6571 9.7763 13.5966 9.50121 13.4675 9.24636C13.1165 8.54248 13.4917 7.75364 14.2542 7.58374C14.8755 7.44619 15.521 7.90331 15.6017 8.53438C15.642 8.80541 15.5855 9.06027 15.4483 9.29895Z" fill="white"/>
</g>
</g>
</g>
<defs>
<filter id="filter0_i_32_11846" x="1.375" y="1.375" width="19.25" height="23.25" filterUnits="userSpaceOnUse" color-interpolation-filters="sRGB">
<feFlood flood-opacity="0" result="BackgroundImageFix"/>
<feBlend mode="normal" in="SourceGraphic" in2="BackgroundImageFix" result="shape"/>
<feColorMatrix in="SourceAlpha" type="matrix" values="0 0 0 0 0 0 0 0 0 0 0 0 0 0 0 0 0 0 127 0" result="hardAlpha"/>
<feOffset dy="4"/>
<feGaussianBlur stdDeviation="2"/>
<feComposite in2="hardAlpha" operator="arithmetic" k2="-1" k3="1"/>
<feColorMatrix type="matrix" values="0 0 0 0 0 0 0 0 0 0 0 0 0 0 0 0 0 0 0.25 0"/>
<feBlend mode="normal" in2="shape" result="effect1_innerShadow_32_11846"/>
</filter>
<filter id="filter1_d_32_11846" x="0.125" y="2.125" width="21.75" height="21.75" filterUnits="userSpaceOnUse" color-interpolation-filters="sRGB">
<feFlood flood-opacity="0" result="BackgroundImageFix"/>
<feColorMatrix in="SourceAlpha" type="matrix" values="0 0 0 0 0 0 0 0 0 0 0 0 0 0 0 0 0 0 127 0" result="hardAlpha"/>
<feOffset dy="2"/>
<feGaussianBlur stdDeviation="2"/>
<feComposite in2="hardAlpha" operator="out"/>
<feColorMatrix type="matrix" values="0 0 0 0 0 0 0 0 0 0 0 0 0 0 0 0 0 0 0.25 0"/>
<feBlend mode="normal" in2="BackgroundImageFix" result="effect1_dropShadow_32_11846"/>
<feBlend mode="normal" in="SourceGraphic" in2="effect1_dropShadow_32_11846" result="shape"/>
</filter>
<linearGradient id="paint0_linear_32_11846" x1="22" y1="0" x2="0" y2="22" gradientUnits="userSpaceOnUse">
<stop stop-color="#EF3939"/>
<stop offset="1" stop-color="#BF2E2E"/>
</linearGradient>
<clipPath id="clip0_32_11846">
<rect width="22" height="22" fill="white"/>
</clipPath>
</defs>
</svg>
