<svg width="22" height="22" viewBox="0 0 22 22" fill="none" xmlns="http://www.w3.org/2000/svg">
<g clip-path="url(#clip0_32_11852)">
<path d="M16.5 0H5.5C2.46243 0 0 2.46243 0 5.5V16.5C0 19.5376 2.46243 22 5.5 22H16.5C19.5376 22 22 19.5376 22 16.5V5.5C22 2.46243 19.5376 0 16.5 0Z" fill="url(#paint0_linear_32_11852)"/>
<path d="M16.5 0H5.5C2.46243 0 0 2.46243 0 5.5V16.5C0 19.5376 2.46243 22 5.5 22H16.5C19.5376 22 22 19.5376 22 16.5V5.5C22 2.46243 19.5376 0 16.5 0Z" fill="url(#paint1_linear_32_11852)"/>
<g filter="url(#filter0_i_32_11852)">
<path d="M16.5 1.375H5.5C3.22183 1.375 1.375 3.22183 1.375 5.5V16.5C1.375 18.7782 3.22183 20.625 5.5 20.625H16.5C18.7782 20.625 20.625 18.7782 20.625 16.5V5.5C20.625 3.22183 18.7782 1.375 16.5 1.375Z" fill="black" fill-opacity="0.7"/>
<mask id="mask0_32_11852" style="mask-type:luminance" maskUnits="userSpaceOnUse" x="5" y="4" width="12" height="14">
<path d="M16.3281 4.98438H5.67188V17.0156H16.3281V4.98438Z" fill="white"/>
</mask>
<g mask="url(#mask0_32_11852)">
<g filter="url(#filter1_d_32_11852)">
<path fill-rule="evenodd" clip-rule="evenodd" d="M5.96027 16.1557C5.96027 16.1557 5.79093 16.3379 5.74616 16.4857C5.71486 16.589 5.70264 16.743 5.75914 16.835C5.80058 16.9025 5.85491 16.9708 5.93431 16.9708C9.38651 16.9713 13.2043 16.9764 15.8904 16.9838C15.9814 16.984 16.1539 16.9681 16.2246 16.8673C16.2966 16.7646 16.2949 16.5356 16.244 16.421C16.1905 16.3002 15.9391 16.2463 15.9391 16.2463L5.96027 16.1557Z" fill="#B54D00"/>
<path fill-rule="evenodd" clip-rule="evenodd" d="M7.23213 12.5243C7.0744 12.5243 6.91066 12.6455 6.86496 12.7964L5.76286 16.4362C5.71718 16.5871 5.80717 16.7089 5.9649 16.7089H16.1282C16.2483 16.7089 16.3172 16.6165 16.2824 16.5015L15.1404 12.7317C15.1056 12.6167 14.9811 12.5243 14.8609 12.5243H7.23213Z" fill="#E26400"/>
<path fill-rule="evenodd" clip-rule="evenodd" d="M10.9984 5.02533C10.7362 5.02272 10.582 5.04214 10.4274 5.15802C10.3568 5.21093 10.301 5.33655 10.2677 5.42701L7.57715 14.2824C7.57715 14.2824 7.6399 14.6826 8.0205 15.0463C8.27709 15.2915 8.7637 15.4732 9.0694 15.5393C9.85401 15.7088 10.4832 15.7493 11.1948 15.7386C11.9257 15.7275 12.6558 15.5843 13.3586 15.3838C14.4067 15.0847 14.4401 14.2456 14.4401 14.2456L11.6728 5.26237C11.6614 5.22536 11.6337 5.19809 11.6117 5.17732C11.4473 5.02197 11.1982 5.02735 10.9984 5.02533Z" fill="url(#paint2_linear_32_11852)"/>
<path fill-rule="evenodd" clip-rule="evenodd" d="M10.9984 5.02533C10.7362 5.02272 10.582 5.04214 10.4274 5.15802C10.3568 5.21093 10.301 5.33655 10.2677 5.42701L7.57715 14.2824C7.57715 14.2824 7.69547 15.0483 8.64762 15.4216C9.30669 15.6801 9.98697 15.7143 11.0455 15.7256C12.2244 15.7382 12.7046 15.6229 13.4752 15.3548C13.8379 15.2286 14.0259 15.0646 14.198 14.8826C14.4467 14.6196 14.4401 14.2456 14.4401 14.2456L11.6728 5.26237C11.6541 5.22846 11.6337 5.19809 11.6117 5.17732C11.4473 5.02197 11.1982 5.02735 10.9984 5.02533Z" fill="#F48200"/>
<path fill-rule="evenodd" clip-rule="evenodd" d="M8.55949 11.0498L7.94434 13.0744C8.69039 13.7013 9.78531 14.0972 11.0056 14.0972C12.2315 14.0972 13.3303 13.6978 14.0766 13.0659L13.4572 11.0546C12.887 11.5082 12.0032 11.7994 11.0111 11.7994C10.0156 11.7994 9.12953 11.5059 8.55949 11.0498Z" fill="#EAECED"/>
<path fill-rule="evenodd" clip-rule="evenodd" d="M12.1158 6.70078C11.8254 6.7979 11.4287 6.85818 10.9907 6.85818C10.5597 6.85818 10.1685 6.79995 9.8795 6.70559L9.23047 8.84239C9.66674 9.07004 10.3056 9.21391 11.0179 9.21391C11.7161 9.21391 12.3443 9.07614 12.7799 8.85626L12.1158 6.70078Z" fill="#EAECED"/>
</g>
</g>
</g>
</g>
<defs>
<filter id="filter0_i_32_11852" x="1.375" y="1.375" width="19.25" height="23.25" filterUnits="userSpaceOnUse" color-interpolation-filters="sRGB">
<feFlood flood-opacity="0" result="BackgroundImageFix"/>
<feBlend mode="normal" in="SourceGraphic" in2="BackgroundImageFix" result="shape"/>
<feColorMatrix in="SourceAlpha" type="matrix" values="0 0 0 0 0 0 0 0 0 0 0 0 0 0 0 0 0 0 127 0" result="hardAlpha"/>
<feOffset dy="4"/>
<feGaussianBlur stdDeviation="2"/>
<feComposite in2="hardAlpha" operator="arithmetic" k2="-1" k3="1"/>
<feColorMatrix type="matrix" values="0 0 0 0 0 0 0 0 0 0 0 0 0 0 0 0 0 0 0.25 0"/>
<feBlend mode="normal" in2="shape" result="effect1_innerShadow_32_11852"/>
</filter>
<filter id="filter1_d_32_11852" x="1.71973" y="3.02512" width="18.5713" height="19.9587" filterUnits="userSpaceOnUse" color-interpolation-filters="sRGB">
<feFlood flood-opacity="0" result="BackgroundImageFix"/>
<feColorMatrix in="SourceAlpha" type="matrix" values="0 0 0 0 0 0 0 0 0 0 0 0 0 0 0 0 0 0 127 0" result="hardAlpha"/>
<feOffset dy="2"/>
<feGaussianBlur stdDeviation="2"/>
<feComposite in2="hardAlpha" operator="out"/>
<feColorMatrix type="matrix" values="0 0 0 0 0 0 0 0 0 0 0 0 0 0 0 0 0 0 0.25 0"/>
<feBlend mode="normal" in2="BackgroundImageFix" result="effect1_dropShadow_32_11852"/>
<feBlend mode="normal" in="SourceGraphic" in2="effect1_dropShadow_32_11852" result="shape"/>
</filter>
<linearGradient id="paint0_linear_32_11852" x1="11" y1="0" x2="11" y2="22" gradientUnits="userSpaceOnUse">
<stop stop-color="#CB02C5"/>
<stop offset="1" stop-color="#5800BF"/>
</linearGradient>
<linearGradient id="paint1_linear_32_11852" x1="1.47996e-07" y1="12.6328" x2="21.5004" y2="7.21332" gradientUnits="userSpaceOnUse">
<stop stop-color="#F48200"/>
<stop offset="0.494068" stop-color="#F48200"/>
<stop offset="1" stop-color="#CC5F00"/>
</linearGradient>
<linearGradient id="paint2_linear_32_11852" x1="8.84863" y1="9.68741" x2="9.40537" y2="9.81752" gradientUnits="userSpaceOnUse">
<stop stop-color="#9B4400"/>
<stop offset="1" stop-color="#E56300"/>
</linearGradient>
<clipPath id="clip0_32_11852">
<rect width="22" height="22" fill="white"/>
</clipPath>
</defs>
</svg>
