<svg width="22" height="22" viewBox="0 0 22 22" fill="none" xmlns="http://www.w3.org/2000/svg">
<g clip-path="url(#clip0_32_11867)">
<path d="M16.5 0H5.5C2.46243 0 0 2.46243 0 5.5V16.5C0 19.5376 2.46243 22 5.5 22H16.5C19.5376 22 22 19.5376 22 16.5V5.5C22 2.46243 19.5376 0 16.5 0Z" fill="url(#paint0_linear_32_11867)"/>
<g filter="url(#filter0_i_32_11867)">
<path d="M16.5 1.375H5.5C3.22183 1.375 1.375 3.22183 1.375 5.5V16.5C1.375 18.7782 3.22183 20.625 5.5 20.625H16.5C18.7782 20.625 20.625 18.7782 20.625 16.5V5.5C20.625 3.22183 18.7782 1.375 16.5 1.375Z" fill="black" fill-opacity="0.7"/>
<g filter="url(#filter1_d_32_11867)">
<path d="M17.8746 6.56906V15.4309C17.8746 15.8675 17.6031 16.2559 17.194 16.4003L14.1621 17.8234L14.4371 14.0937V7.90625L14.1621 4.17656L17.194 5.59968C17.6031 5.74406 17.8746 6.1325 17.8746 6.56906Z" fill="#29B6F6"/>
</g>
<g filter="url(#filter2_d_32_11867)">
<path d="M5.84374 14.4017L14.4375 7.90623V4.59007C14.4375 4.17826 13.9281 3.98576 13.6555 4.29445L4.35118 12.8009C4.0418 13.0862 4.05933 13.5802 4.38796 13.8431C4.38796 13.8431 4.84308 14.2666 5.00774 14.3842C5.26074 14.5647 5.59314 14.5853 5.84374 14.4017Z" fill="#0277BD"/>
</g>
<g filter="url(#filter3_d_32_11867)">
<path d="M5.84374 7.59824L14.4375 14.0937V17.4099C14.4375 17.8217 13.9281 18.0142 13.6555 17.7055L4.35118 9.19909C4.0418 8.91377 4.05933 8.41981 4.38796 8.15684C4.38796 8.15684 4.84308 7.73334 5.00774 7.61577C5.26074 7.43531 5.59314 7.41468 5.84374 7.59824Z" fill="#0288D1"/>
</g>
</g>
</g>
<defs>
<filter id="filter0_i_32_11867" x="1.375" y="1.375" width="19.25" height="23.25" filterUnits="userSpaceOnUse" color-interpolation-filters="sRGB">
<feFlood flood-opacity="0" result="BackgroundImageFix"/>
<feBlend mode="normal" in="SourceGraphic" in2="BackgroundImageFix" result="shape"/>
<feColorMatrix in="SourceAlpha" type="matrix" values="0 0 0 0 0 0 0 0 0 0 0 0 0 0 0 0 0 0 127 0" result="hardAlpha"/>
<feOffset dy="4"/>
<feGaussianBlur stdDeviation="2"/>
<feComposite in2="hardAlpha" operator="arithmetic" k2="-1" k3="1"/>
<feColorMatrix type="matrix" values="0 0 0 0 0 0 0 0 0 0 0 0 0 0 0 0 0 0 0.25 0"/>
<feBlend mode="normal" in2="shape" result="effect1_innerShadow_32_11867"/>
</filter>
<filter id="filter1_d_32_11867" x="10.1621" y="2.17656" width="11.7129" height="21.6469" filterUnits="userSpaceOnUse" color-interpolation-filters="sRGB">
<feFlood flood-opacity="0" result="BackgroundImageFix"/>
<feColorMatrix in="SourceAlpha" type="matrix" values="0 0 0 0 0 0 0 0 0 0 0 0 0 0 0 0 0 0 127 0" result="hardAlpha"/>
<feOffset dy="2"/>
<feGaussianBlur stdDeviation="2"/>
<feComposite in2="hardAlpha" operator="out"/>
<feColorMatrix type="matrix" values="0 0 0 0 0 0 0 0 0 0 0 0 0 0 0 0 0 0 0.25 0"/>
<feBlend mode="normal" in2="BackgroundImageFix" result="effect1_dropShadow_32_11867"/>
<feBlend mode="normal" in="SourceGraphic" in2="effect1_dropShadow_32_11867" result="shape"/>
</filter>
<filter id="filter2_d_32_11867" x="0.129883" y="2.14232" width="18.3076" height="18.3875" filterUnits="userSpaceOnUse" color-interpolation-filters="sRGB">
<feFlood flood-opacity="0" result="BackgroundImageFix"/>
<feColorMatrix in="SourceAlpha" type="matrix" values="0 0 0 0 0 0 0 0 0 0 0 0 0 0 0 0 0 0 127 0" result="hardAlpha"/>
<feOffset dy="2"/>
<feGaussianBlur stdDeviation="2"/>
<feComposite in2="hardAlpha" operator="out"/>
<feColorMatrix type="matrix" values="0 0 0 0 0 0 0 0 0 0 0 0 0 0 0 0 0 0 0.25 0"/>
<feBlend mode="normal" in2="BackgroundImageFix" result="effect1_dropShadow_32_11867"/>
<feBlend mode="normal" in="SourceGraphic" in2="effect1_dropShadow_32_11867" result="shape"/>
</filter>
<filter id="filter3_d_32_11867" x="0.129883" y="5.47012" width="18.3076" height="18.3875" filterUnits="userSpaceOnUse" color-interpolation-filters="sRGB">
<feFlood flood-opacity="0" result="BackgroundImageFix"/>
<feColorMatrix in="SourceAlpha" type="matrix" values="0 0 0 0 0 0 0 0 0 0 0 0 0 0 0 0 0 0 127 0" result="hardAlpha"/>
<feOffset dy="2"/>
<feGaussianBlur stdDeviation="2"/>
<feComposite in2="hardAlpha" operator="out"/>
<feColorMatrix type="matrix" values="0 0 0 0 0 0 0 0 0 0 0 0 0 0 0 0 0 0 0.25 0"/>
<feBlend mode="normal" in2="BackgroundImageFix" result="effect1_dropShadow_32_11867"/>
<feBlend mode="normal" in="SourceGraphic" in2="effect1_dropShadow_32_11867" result="shape"/>
</filter>
<linearGradient id="paint0_linear_32_11867" x1="11" y1="0" x2="11" y2="22" gradientUnits="userSpaceOnUse">
<stop stop-color="#29B6F6"/>
<stop offset="0.510417" stop-color="#0288D1"/>
<stop offset="1" stop-color="#0277BD"/>
</linearGradient>
<clipPath id="clip0_32_11867">
<rect width="22" height="22" fill="white"/>
</clipPath>
</defs>
</svg>
