<svg width="22" height="22" viewBox="0 0 22 22" fill="none" xmlns="http://www.w3.org/2000/svg">
<g clip-path="url(#clip0_32_11877)">
<path d="M16.5 0H5.5C2.46243 0 0 2.46243 0 5.5V16.5C0 19.5376 2.46243 22 5.5 22H16.5C19.5376 22 22 19.5376 22 16.5V5.5C22 2.46243 19.5376 0 16.5 0Z" fill="url(#paint0_linear_32_11877)"/>
<g filter="url(#filter0_i_32_11877)">
<path d="M16.5 1.375H5.5C3.22183 1.375 1.375 3.22183 1.375 5.5V16.5C1.375 18.7782 3.22183 20.625 5.5 20.625H16.5C18.7782 20.625 20.625 18.7782 20.625 16.5V5.5C20.625 3.22183 18.7782 1.375 16.5 1.375Z" fill="black" fill-opacity="0.7"/>
<g filter="url(#filter1_d_32_11877)">
<path d="M11.068 4.31016C10.9588 4.32977 10.8545 4.37068 10.7612 4.43051C10.3688 4.68251 10.2556 5.20429 10.5084 5.59565C11.8985 7.74948 12.2265 9.37408 12.0842 10.7978C11.509 13.5242 10.2584 14.0772 9.16553 14.0772C8.09847 14.0772 8.38425 12.3202 9.18625 11.8059C9.665 11.5067 10.2783 11.3123 10.749 11.3123C11.2153 11.3124 11.5934 10.9352 11.5936 10.4699C11.5934 10.0045 11.2153 9.62732 10.749 9.62739C10.1993 9.62739 9.65994 9.74289 9.15662 9.9396C9.25937 9.45414 9.29742 8.92944 9.16446 8.37157C8.96263 7.52467 8.38148 6.7156 7.37249 5.93141C7.19584 5.79391 6.97166 5.7321 6.74932 5.7596C6.52704 5.7871 6.32483 5.90162 6.18716 6.07791C5.9008 6.44529 5.96714 6.97477 6.33531 7.2605C7.1573 7.89936 7.42876 8.37215 7.52154 8.7614C7.6143 9.15062 7.53974 9.56818 7.35333 10.1419C7.11495 10.9151 6.83834 11.6053 6.71706 12.2673C6.65739 12.593 6.65232 12.9477 6.63688 13.2309C6.045 12.6537 5.81324 11.8914 5.81324 10.7777C5.81312 10.3123 5.43501 9.93518 4.96868 9.93525C4.5027 9.93568 4.12512 10.3127 4.125 10.7777C4.125 12.2988 4.56961 13.7462 5.76096 14.7118C6.83954 15.74 9.5822 15.36 9.5822 17.0104C9.5822 17.4764 10.2637 17.7031 10.73 17.7031C11.2082 17.7031 11.81 17.3833 11.81 17.0104C11.81 15.1377 13.7825 13.9995 17.0296 14.0045C17.4958 14.0051 17.8743 13.6283 17.875 13.1629C17.8759 12.6976 17.4986 12.3196 17.0322 12.3187C16.8101 12.3184 16.5937 12.3261 16.3802 12.3388C16.7433 11.4844 16.9043 10.5439 16.8709 9.52798C16.8556 9.06288 16.4654 8.69821 15.9994 8.71343C15.5329 8.72848 15.1673 9.11829 15.1827 9.58378C15.2266 10.9139 15.1768 12.1017 14.1865 12.7277C13.9049 12.9057 13.5774 13.06 13.267 13.06C13.508 12.404 13.6901 11.7116 13.7646 10.9652C13.8122 10.4889 13.8173 9.92303 13.7629 9.48349C13.6786 8.80235 13.5769 8.02998 13.8353 7.44815C14.0674 6.94708 14.5875 6.73722 15.3509 6.73722C15.8169 6.73679 16.1945 6.35979 16.1946 5.89478C16.1949 5.42943 15.8172 5.05187 15.3509 5.05146C14.2163 5.05146 13.3562 5.64901 12.8687 6.37094C12.6137 5.82601 12.3033 5.26458 11.9282 4.68342C11.807 4.49568 11.6161 4.36363 11.3974 4.31626C11.2891 4.29266 11.1771 4.29058 11.068 4.31016Z" fill="#808080"/>
<path d="M11.068 4.31016C10.9588 4.32977 10.8545 4.37068 10.7612 4.43051C10.3688 4.68251 10.2556 5.20429 10.5084 5.59565C11.8985 7.74948 12.2265 9.37408 12.0842 10.7978C11.509 13.5242 10.2584 14.0772 9.16553 14.0772C8.09847 14.0772 8.38425 12.3202 9.18625 11.8059C9.665 11.5067 10.2783 11.3123 10.749 11.3123C11.2153 11.3124 11.5934 10.9352 11.5936 10.4699C11.5934 10.0045 11.2153 9.62732 10.749 9.62739C10.1993 9.62739 9.65994 9.74289 9.15662 9.9396C9.25937 9.45414 9.29742 8.92944 9.16446 8.37157C8.96263 7.52467 8.38148 6.7156 7.37249 5.93141C7.19584 5.79391 6.97166 5.7321 6.74932 5.7596C6.52704 5.7871 6.32483 5.90162 6.18716 6.07791C5.9008 6.44529 5.96714 6.97477 6.33531 7.2605C7.1573 7.89936 7.42876 8.37215 7.52154 8.7614C7.6143 9.15062 7.53974 9.56818 7.35333 10.1419C7.11495 10.9151 6.83834 11.6053 6.71706 12.2673C6.65739 12.593 6.65232 12.9477 6.63688 13.2309C6.045 12.6537 5.81324 11.8914 5.81324 10.7777C5.81312 10.3123 5.43501 9.93518 4.96868 9.93525C4.5027 9.93568 4.12512 10.3127 4.125 10.7777C4.125 12.2988 4.56961 13.7462 5.76096 14.7118C6.83954 15.74 9.5822 15.36 9.5822 17.0104C9.5822 17.4764 10.2637 17.7031 10.73 17.7031C11.2082 17.7031 11.81 17.3833 11.81 17.0104C11.81 15.1377 13.7825 13.9995 17.0296 14.0045C17.4958 14.0051 17.8743 13.6283 17.875 13.1629C17.8759 12.6976 17.4986 12.3196 17.0322 12.3187C16.8101 12.3184 16.5937 12.3261 16.3802 12.3388C16.7433 11.4844 16.9043 10.5439 16.8709 9.52798C16.8556 9.06288 16.4654 8.69821 15.9994 8.71343C15.5329 8.72848 15.1673 9.11829 15.1827 9.58378C15.2266 10.9139 15.1768 12.1017 14.1865 12.7277C13.9049 12.9057 13.5774 13.06 13.267 13.06C13.508 12.404 13.6901 11.7116 13.7646 10.9652C13.8122 10.4889 13.8173 9.92303 13.7629 9.48349C13.6786 8.80235 13.5769 8.02998 13.8353 7.44815C14.0674 6.94708 14.5875 6.73722 15.3509 6.73722C15.8169 6.73679 16.1945 6.35979 16.1946 5.89478C16.1949 5.42943 15.8172 5.05187 15.3509 5.05146C14.2163 5.05146 13.3562 5.64901 12.8687 6.37094C12.6137 5.82601 12.3033 5.26458 11.9282 4.68342C11.807 4.49568 11.6161 4.36363 11.3974 4.31626C11.2891 4.29266 11.1771 4.29058 11.068 4.31016Z" fill="url(#paint1_linear_32_11877)"/>
</g>
</g>
</g>
<defs>
<filter id="filter0_i_32_11877" x="1.375" y="1.375" width="19.25" height="23.25" filterUnits="userSpaceOnUse" color-interpolation-filters="sRGB">
<feFlood flood-opacity="0" result="BackgroundImageFix"/>
<feBlend mode="normal" in="SourceGraphic" in2="BackgroundImageFix" result="shape"/>
<feColorMatrix in="SourceAlpha" type="matrix" values="0 0 0 0 0 0 0 0 0 0 0 0 0 0 0 0 0 0 127 0" result="hardAlpha"/>
<feOffset dy="4"/>
<feGaussianBlur stdDeviation="2"/>
<feComposite in2="hardAlpha" operator="arithmetic" k2="-1" k3="1"/>
<feColorMatrix type="matrix" values="0 0 0 0 0 0 0 0 0 0 0 0 0 0 0 0 0 0 0.25 0"/>
<feBlend mode="normal" in2="shape" result="effect1_innerShadow_32_11877"/>
</filter>
<filter id="filter1_d_32_11877" x="0.125" y="2.29688" width="21.75" height="21.4062" filterUnits="userSpaceOnUse" color-interpolation-filters="sRGB">
<feFlood flood-opacity="0" result="BackgroundImageFix"/>
<feColorMatrix in="SourceAlpha" type="matrix" values="0 0 0 0 0 0 0 0 0 0 0 0 0 0 0 0 0 0 127 0" result="hardAlpha"/>
<feOffset dy="2"/>
<feGaussianBlur stdDeviation="2"/>
<feComposite in2="hardAlpha" operator="out"/>
<feColorMatrix type="matrix" values="0 0 0 0 0 0 0 0 0 0 0 0 0 0 0 0 0 0 0.25 0"/>
<feBlend mode="normal" in2="BackgroundImageFix" result="effect1_dropShadow_32_11877"/>
<feBlend mode="normal" in="SourceGraphic" in2="effect1_dropShadow_32_11877" result="shape"/>
</filter>
<linearGradient id="paint0_linear_32_11877" x1="2.26511e-05" y1="11" x2="22" y2="11" gradientUnits="userSpaceOnUse">
<stop stop-color="#0066FF"/>
<stop offset="1" stop-color="#00CCFF"/>
</linearGradient>
<linearGradient id="paint1_linear_32_11877" x1="4.12502" y1="11" x2="17.875" y2="11" gradientUnits="userSpaceOnUse">
<stop stop-color="#0066FF"/>
<stop offset="1" stop-color="#00CCFF"/>
</linearGradient>
<clipPath id="clip0_32_11877">
<rect width="22" height="22" fill="white"/>
</clipPath>
</defs>
</svg>
