<svg width="22" height="22" viewBox="0 0 22 22" fill="none" xmlns="http://www.w3.org/2000/svg">
<g clip-path="url(#clip0_32_11978)">
<path d="M16.5 0H5.5C2.46243 0 0 2.46243 0 5.5V16.5C0 19.5376 2.46243 22 5.5 22H16.5C19.5376 22 22 19.5376 22 16.5V5.5C22 2.46243 19.5376 0 16.5 0Z" fill="url(#paint0_linear_32_11978)"/>
<path d="M16.5 0H5.5C2.46243 0 0 2.46243 0 5.5V16.5C0 19.5376 2.46243 22 5.5 22H16.5C19.5376 22 22 19.5376 22 16.5V5.5C22 2.46243 19.5376 0 16.5 0Z" fill="url(#paint1_linear_32_11978)"/>
<g filter="url(#filter0_i_32_11978)">
<path d="M16.5 1.375H5.5C3.22183 1.375 1.375 3.22183 1.375 5.5V16.5C1.375 18.7782 3.22183 20.625 5.5 20.625H16.5C18.7782 20.625 20.625 18.7782 20.625 16.5V5.5C20.625 3.22183 18.7782 1.375 16.5 1.375Z" fill="black" fill-opacity="0.7"/>
<mask id="mask0_32_11978" style="mask-type:luminance" maskUnits="userSpaceOnUse" x="2" y="2" width="18" height="18">
<path d="M19.25 2.75H2.75V19.25H19.25V2.75Z" fill="white"/>
</mask>
<g mask="url(#mask0_32_11978)">
<g filter="url(#filter1_d_32_11978)">
<path d="M5.49045 17.0909L3.45703 5.03802L7.21745 3.4776L9.6186 4.90445L11.8186 3.71802L16.4025 5.47802L13.8316 18.5429L5.49045 17.0909Z" fill="url(#paint2_linear_32_11978)"/>
</g>
<g filter="url(#filter2_d_32_11978)">
<path d="M18.5428 8.56586L16.5958 3.75728L13.0632 3.45715L7.61035 8.69628L9.07806 15.4487L11.8186 17.3706L18.5428 13.3807L16.8928 10.2866L18.5428 8.56586Z" fill="url(#paint3_linear_32_11978)"/>
</g>
<g filter="url(#filter3_d_32_11978)">
<path d="M15.5205 7.84927L16.8924 10.2866L18.5424 8.56585L17.3308 5.57071L15.5205 7.84927Z" fill="url(#paint4_linear_32_11978)"/>
</g>
<g filter="url(#filter4_d_32_11978)">
<path d="M6.28516 6.28571H15.7137V15.7143H6.28516V6.28571Z" fill="black"/>
</g>
<path d="M7.46094 13.9323H10.9967V14.5216H7.46094V13.9323Z" fill="white"/>
<path d="M10.8082 7.45956L10.2818 9.52285L9.67993 7.45956H9.0812L8.47778 9.52285L7.95293 7.45956H7.12793L8.13835 10.9969H8.80149L9.37978 8.94929L9.95179 10.9969H10.6228L11.6316 7.45956H10.8082Z" fill="white"/>
<path d="M11.7793 10.4924L12.2397 9.94085C12.5289 10.2079 12.9053 10.3609 13.2989 10.3714C13.6132 10.3714 13.8112 10.2457 13.8112 10.0367V10.0273C13.8112 9.82928 13.6886 9.7287 13.0962 9.57628C12.3812 9.39399 11.9207 9.19599 11.9207 8.49199V8.48099C11.9207 7.83829 12.4377 7.41243 13.1622 7.41243C13.6404 7.40396 14.1064 7.56358 14.479 7.86343L14.0736 8.45114C13.8087 8.24389 13.4869 8.1222 13.1512 8.10228C12.8526 8.10228 12.6954 8.23899 12.6954 8.41656V8.42756C12.6954 8.66014 12.8526 8.74185 13.4607 8.89899C14.1804 9.08756 14.5859 9.34528 14.5859 9.96443V9.97385C14.5859 10.6778 14.0484 11.0738 13.2832 11.0738C12.7292 11.076 12.1938 10.8741 11.7793 10.5066" fill="white"/>
</g>
</g>
</g>
<defs>
<filter id="filter0_i_32_11978" x="1.375" y="1.375" width="19.25" height="23.25" filterUnits="userSpaceOnUse" color-interpolation-filters="sRGB">
<feFlood flood-opacity="0" result="BackgroundImageFix"/>
<feBlend mode="normal" in="SourceGraphic" in2="BackgroundImageFix" result="shape"/>
<feColorMatrix in="SourceAlpha" type="matrix" values="0 0 0 0 0 0 0 0 0 0 0 0 0 0 0 0 0 0 127 0" result="hardAlpha"/>
<feOffset dy="4"/>
<feGaussianBlur stdDeviation="2"/>
<feComposite in2="hardAlpha" operator="arithmetic" k2="-1" k3="1"/>
<feColorMatrix type="matrix" values="0 0 0 0 0 0 0 0 0 0 0 0 0 0 0 0 0 0 0.25 0"/>
<feBlend mode="normal" in2="shape" result="effect1_innerShadow_32_11978"/>
</filter>
<filter id="filter1_d_32_11978" x="-0.542969" y="1.4776" width="20.9453" height="23.0653" filterUnits="userSpaceOnUse" color-interpolation-filters="sRGB">
<feFlood flood-opacity="0" result="BackgroundImageFix"/>
<feColorMatrix in="SourceAlpha" type="matrix" values="0 0 0 0 0 0 0 0 0 0 0 0 0 0 0 0 0 0 127 0" result="hardAlpha"/>
<feOffset dy="2"/>
<feGaussianBlur stdDeviation="2"/>
<feComposite in2="hardAlpha" operator="out"/>
<feColorMatrix type="matrix" values="0 0 0 0 0 0 0 0 0 0 0 0 0 0 0 0 0 0 0.25 0"/>
<feBlend mode="normal" in2="BackgroundImageFix" result="effect1_dropShadow_32_11978"/>
<feBlend mode="normal" in="SourceGraphic" in2="effect1_dropShadow_32_11978" result="shape"/>
</filter>
<filter id="filter2_d_32_11978" x="3.61035" y="1.45715" width="18.9326" height="21.9134" filterUnits="userSpaceOnUse" color-interpolation-filters="sRGB">
<feFlood flood-opacity="0" result="BackgroundImageFix"/>
<feColorMatrix in="SourceAlpha" type="matrix" values="0 0 0 0 0 0 0 0 0 0 0 0 0 0 0 0 0 0 127 0" result="hardAlpha"/>
<feOffset dy="2"/>
<feGaussianBlur stdDeviation="2"/>
<feComposite in2="hardAlpha" operator="out"/>
<feColorMatrix type="matrix" values="0 0 0 0 0 0 0 0 0 0 0 0 0 0 0 0 0 0 0.25 0"/>
<feBlend mode="normal" in2="BackgroundImageFix" result="effect1_dropShadow_32_11978"/>
<feBlend mode="normal" in="SourceGraphic" in2="effect1_dropShadow_32_11978" result="shape"/>
</filter>
<filter id="filter3_d_32_11978" x="11.5205" y="3.57071" width="11.0215" height="12.7159" filterUnits="userSpaceOnUse" color-interpolation-filters="sRGB">
<feFlood flood-opacity="0" result="BackgroundImageFix"/>
<feColorMatrix in="SourceAlpha" type="matrix" values="0 0 0 0 0 0 0 0 0 0 0 0 0 0 0 0 0 0 127 0" result="hardAlpha"/>
<feOffset dy="2"/>
<feGaussianBlur stdDeviation="2"/>
<feComposite in2="hardAlpha" operator="out"/>
<feColorMatrix type="matrix" values="0 0 0 0 0 0 0 0 0 0 0 0 0 0 0 0 0 0 0.25 0"/>
<feBlend mode="normal" in2="BackgroundImageFix" result="effect1_dropShadow_32_11978"/>
<feBlend mode="normal" in="SourceGraphic" in2="effect1_dropShadow_32_11978" result="shape"/>
</filter>
<filter id="filter4_d_32_11978" x="2.28516" y="4.28571" width="17.4287" height="17.4286" filterUnits="userSpaceOnUse" color-interpolation-filters="sRGB">
<feFlood flood-opacity="0" result="BackgroundImageFix"/>
<feColorMatrix in="SourceAlpha" type="matrix" values="0 0 0 0 0 0 0 0 0 0 0 0 0 0 0 0 0 0 127 0" result="hardAlpha"/>
<feOffset dy="2"/>
<feGaussianBlur stdDeviation="2"/>
<feComposite in2="hardAlpha" operator="out"/>
<feColorMatrix type="matrix" values="0 0 0 0 0 0 0 0 0 0 0 0 0 0 0 0 0 0 0.25 0"/>
<feBlend mode="normal" in2="BackgroundImageFix" result="effect1_dropShadow_32_11978"/>
<feBlend mode="normal" in="SourceGraphic" in2="effect1_dropShadow_32_11978" result="shape"/>
</filter>
<linearGradient id="paint0_linear_32_11978" x1="11" y1="0" x2="11" y2="22" gradientUnits="userSpaceOnUse">
<stop stop-color="#3BEA62"/>
<stop offset="0.5" stop-color="#009AE5"/>
<stop offset="1" stop-color="#6B57FF"/>
</linearGradient>
<linearGradient id="paint1_linear_32_11978" x1="9.18136" y1="0.429122" x2="14.173" y2="21.3455" gradientUnits="userSpaceOnUse">
<stop offset="0.28" stop-color="#07C3F2"/>
<stop offset="0.94" stop-color="#087CFA"/>
</linearGradient>
<linearGradient id="paint2_linear_32_11978" x1="8.8596" y1="3.77145" x2="12.763" y2="17.8264" gradientUnits="userSpaceOnUse">
<stop offset="0.28" stop-color="#07C3F2"/>
<stop offset="0.94" stop-color="#087CFA"/>
</linearGradient>
<linearGradient id="paint3_linear_32_11978" x1="10.0775" y1="5.55501" x2="16.6822" y2="15.2397" gradientUnits="userSpaceOnUse">
<stop offset="0.14" stop-color="#FCF84A"/>
<stop offset="0.37" stop-color="#07C3F2"/>
</linearGradient>
<linearGradient id="paint4_linear_32_11978" x1="16.6205" y1="6.75242" x2="17.4879" y2="9.82456" gradientUnits="userSpaceOnUse">
<stop offset="0.28" stop-color="#07C3F2"/>
<stop offset="0.94" stop-color="#087CFA"/>
</linearGradient>
<clipPath id="clip0_32_11978">
<rect width="22" height="22" fill="white"/>
</clipPath>
</defs>
</svg>
