<svg width="22" height="22" viewBox="0 0 22 22" fill="none" xmlns="http://www.w3.org/2000/svg">
<g clip-path="url(#clip0_32_12006)">
<path d="M16.5 0H5.5C2.46243 0 0 2.46243 0 5.5V16.5C0 19.5376 2.46243 22 5.5 22H16.5C19.5376 22 22 19.5376 22 16.5V5.5C22 2.46243 19.5376 0 16.5 0Z" fill="url(#paint0_linear_32_12006)"/>
<path d="M16.5 0H5.5C2.46243 0 0 2.46243 0 5.5V16.5C0 19.5376 2.46243 22 5.5 22H16.5C19.5376 22 22 19.5376 22 16.5V5.5C22 2.46243 19.5376 0 16.5 0Z" fill="black" fill-opacity="0.9"/>
<g filter="url(#filter0_i_32_12006)">
<path d="M16.5 1.375H5.5C3.22183 1.375 1.375 3.22183 1.375 5.5V16.5C1.375 18.7782 3.22183 20.625 5.5 20.625H16.5C18.7782 20.625 20.625 18.7782 20.625 16.5V5.5C20.625 3.22183 18.7782 1.375 16.5 1.375Z" fill="black" fill-opacity="0.7"/>
<g filter="url(#filter1_diii_32_12006)">
<path d="M4.15852 4.64062L9.46725 11.6558L4.125 17.3594H5.32732L10.0044 12.3658L13.7834 17.3594H17.875L12.2676 9.94964L17.2401 4.64062H16.0378L11.7304 9.23962L8.25009 4.64062H4.15852ZM5.92663 5.51588H7.8063L16.1066 16.484H14.227L5.92663 5.51588Z" fill="white"/>
</g>
</g>
</g>
<defs>
<filter id="filter0_i_32_12006" x="1.375" y="1.375" width="19.25" height="23.25" filterUnits="userSpaceOnUse" color-interpolation-filters="sRGB">
<feFlood flood-opacity="0" result="BackgroundImageFix"/>
<feBlend mode="normal" in="SourceGraphic" in2="BackgroundImageFix" result="shape"/>
<feColorMatrix in="SourceAlpha" type="matrix" values="0 0 0 0 0 0 0 0 0 0 0 0 0 0 0 0 0 0 127 0" result="hardAlpha"/>
<feOffset dy="4"/>
<feGaussianBlur stdDeviation="2"/>
<feComposite in2="hardAlpha" operator="arithmetic" k2="-1" k3="1"/>
<feColorMatrix type="matrix" values="0 0 0 0 0 0 0 0 0 0 0 0 0 0 0 0 0 0 0.25 0"/>
<feBlend mode="normal" in2="shape" result="effect1_innerShadow_32_12006"/>
</filter>
<filter id="filter1_diii_32_12006" x="-5.875" y="-5.35938" width="29.75" height="28.7188" filterUnits="userSpaceOnUse" color-interpolation-filters="sRGB">
<feFlood flood-opacity="0" result="BackgroundImageFix"/>
<feColorMatrix in="SourceAlpha" type="matrix" values="0 0 0 0 0 0 0 0 0 0 0 0 0 0 0 0 0 0 127 0" result="hardAlpha"/>
<feOffset dx="-2" dy="-2"/>
<feGaussianBlur stdDeviation="4"/>
<feComposite in2="hardAlpha" operator="out"/>
<feColorMatrix type="matrix" values="0 0 0 0 1 0 0 0 0 1 0 0 0 0 1 0 0 0 0.1 0"/>
<feBlend mode="normal" in2="BackgroundImageFix" result="effect1_dropShadow_32_12006"/>
<feBlend mode="normal" in="SourceGraphic" in2="effect1_dropShadow_32_12006" result="shape"/>
<feColorMatrix in="SourceAlpha" type="matrix" values="0 0 0 0 0 0 0 0 0 0 0 0 0 0 0 0 0 0 127 0" result="hardAlpha"/>
<feOffset dx="-2" dy="2"/>
<feGaussianBlur stdDeviation="4"/>
<feComposite in2="hardAlpha" operator="arithmetic" k2="-1" k3="1"/>
<feColorMatrix type="matrix" values="0 0 0 0 1 0 0 0 0 1 0 0 0 0 1 0 0 0 0.1 0"/>
<feBlend mode="normal" in2="shape" result="effect2_innerShadow_32_12006"/>
<feColorMatrix in="SourceAlpha" type="matrix" values="0 0 0 0 0 0 0 0 0 0 0 0 0 0 0 0 0 0 127 0" result="hardAlpha"/>
<feOffset dx="2" dy="2"/>
<feGaussianBlur stdDeviation="4"/>
<feComposite in2="hardAlpha" operator="arithmetic" k2="-1" k3="1"/>
<feColorMatrix type="matrix" values="0 0 0 0 1 0 0 0 0 1 0 0 0 0 1 0 0 0 0.1 0"/>
<feBlend mode="normal" in2="effect2_innerShadow_32_12006" result="effect3_innerShadow_32_12006"/>
<feColorMatrix in="SourceAlpha" type="matrix" values="0 0 0 0 0 0 0 0 0 0 0 0 0 0 0 0 0 0 127 0" result="hardAlpha"/>
<feOffset dx="2" dy="-2"/>
<feGaussianBlur stdDeviation="4"/>
<feComposite in2="hardAlpha" operator="arithmetic" k2="-1" k3="1"/>
<feColorMatrix type="matrix" values="0 0 0 0 1 0 0 0 0 1 0 0 0 0 1 0 0 0 0.1 0"/>
<feBlend mode="normal" in2="effect3_innerShadow_32_12006" result="effect4_innerShadow_32_12006"/>
</filter>
<linearGradient id="paint0_linear_32_12006" x1="11" y1="0" x2="11" y2="22" gradientUnits="userSpaceOnUse">
<stop stop-color="white"/>
<stop offset="1" stop-color="#DFDFDF"/>
</linearGradient>
<clipPath id="clip0_32_12006">
<rect width="22" height="22" fill="white"/>
</clipPath>
</defs>
</svg>
