<svg width="128" height="128" viewBox="0 0 128 128" fill="none" xmlns="http://www.w3.org/2000/svg">
<rect width="128" height="128" rx="32" fill="#FF0045"/>
<rect width="128" height="128" rx="32" fill="url(#paint0_radial_165_59)"/>
<rect width="128" height="128" rx="32" fill="url(#paint1_radial_165_59)"/>
<g filter="url(#filter0_i_165_59)">
<rect x="8" y="8" width="112" height="112" rx="24" fill="black" fill-opacity="0.7"/>
<g clip-path="url(#clip0_165_59)">
<g filter="url(#filter1_d_165_59)">
<path d="M64 31.21C74.68 31.21 75.9467 31.25 80.1667 31.4433C91.0067 31.9367 96.07 37.08 96.5633 47.84C96.7567 52.0567 96.7933 53.3233 96.7933 64.0033C96.7933 74.6867 96.7533 75.95 96.5633 80.1667C96.0667 90.9167 91.0167 96.07 80.1667 96.5633C75.9467 96.7567 74.6867 96.7967 64 96.7967C53.32 96.7967 52.0533 96.7567 47.8367 96.5633C36.97 96.0667 31.9333 90.9 31.44 80.1633C31.2467 75.9467 31.2067 74.6833 31.2067 64C31.2067 53.32 31.25 52.0567 31.44 47.8367C31.9367 37.08 36.9867 31.9333 47.8367 31.44C52.0567 31.25 53.32 31.21 64 31.21ZM64 24C53.1367 24 51.7767 24.0467 47.51 24.24C32.9833 24.9067 24.91 32.9667 24.2433 47.5067C24.0467 51.7767 24 53.1367 24 64C24 74.8633 24.0467 76.2267 24.24 80.4933C24.9067 95.02 32.9667 103.093 47.5067 103.76C51.7767 103.953 53.1367 104 64 104C74.8633 104 76.2267 103.953 80.4933 103.76C95.0067 103.093 103.1 95.0333 103.757 80.4933C103.953 76.2267 104 74.8633 104 64C104 53.1367 103.953 51.7767 103.76 47.51C103.107 32.9967 95.0367 24.91 80.4967 24.2433C76.2267 24.0467 74.8633 24 64 24ZM64 43.46C52.6567 43.46 43.46 52.6567 43.46 64C43.46 75.3433 52.6567 84.5433 64 84.5433C75.3433 84.5433 84.54 75.3467 84.54 64C84.54 52.6567 75.3433 43.46 64 43.46ZM64 77.3333C56.6367 77.3333 50.6667 71.3667 50.6667 64C50.6667 56.6367 56.6367 50.6667 64 50.6667C71.3633 50.6667 77.3333 56.6367 77.3333 64C77.3333 71.3667 71.3633 77.3333 64 77.3333ZM85.3533 37.85C82.7 37.85 80.55 40 80.55 42.65C80.55 45.3 82.7 47.45 85.3533 47.45C88.0033 47.45 90.15 45.3 90.15 42.65C90.15 40 88.0033 37.85 85.3533 37.85Z" fill="white"/>
<path d="M64 31.21C74.68 31.21 75.9467 31.25 80.1667 31.4433C91.0067 31.9367 96.07 37.08 96.5633 47.84C96.7567 52.0567 96.7933 53.3233 96.7933 64.0033C96.7933 74.6867 96.7533 75.95 96.5633 80.1667C96.0667 90.9167 91.0167 96.07 80.1667 96.5633C75.9467 96.7567 74.6867 96.7967 64 96.7967C53.32 96.7967 52.0533 96.7567 47.8367 96.5633C36.97 96.0667 31.9333 90.9 31.44 80.1633C31.2467 75.9467 31.2067 74.6833 31.2067 64C31.2067 53.32 31.25 52.0567 31.44 47.8367C31.9367 37.08 36.9867 31.9333 47.8367 31.44C52.0567 31.25 53.32 31.21 64 31.21ZM64 24C53.1367 24 51.7767 24.0467 47.51 24.24C32.9833 24.9067 24.91 32.9667 24.2433 47.5067C24.0467 51.7767 24 53.1367 24 64C24 74.8633 24.0467 76.2267 24.24 80.4933C24.9067 95.02 32.9667 103.093 47.5067 103.76C51.7767 103.953 53.1367 104 64 104C74.8633 104 76.2267 103.953 80.4933 103.76C95.0067 103.093 103.1 95.0333 103.757 80.4933C103.953 76.2267 104 74.8633 104 64C104 53.1367 103.953 51.7767 103.76 47.51C103.107 32.9967 95.0367 24.91 80.4967 24.2433C76.2267 24.0467 74.8633 24 64 24ZM64 43.46C52.6567 43.46 43.46 52.6567 43.46 64C43.46 75.3433 52.6567 84.5433 64 84.5433C75.3433 84.5433 84.54 75.3467 84.54 64C84.54 52.6567 75.3433 43.46 64 43.46ZM64 77.3333C56.6367 77.3333 50.6667 71.3667 50.6667 64C50.6667 56.6367 56.6367 50.6667 64 50.6667C71.3633 50.6667 77.3333 56.6367 77.3333 64C77.3333 71.3667 71.3633 77.3333 64 77.3333ZM85.3533 37.85C82.7 37.85 80.55 40 80.55 42.65C80.55 45.3 82.7 47.45 85.3533 47.45C88.0033 47.45 90.15 45.3 90.15 42.65C90.15 40 88.0033 37.85 85.3533 37.85Z" fill="#FF0045"/>
<path d="M64 31.21C74.68 31.21 75.9467 31.25 80.1667 31.4433C91.0067 31.9367 96.07 37.08 96.5633 47.84C96.7567 52.0567 96.7933 53.3233 96.7933 64.0033C96.7933 74.6867 96.7533 75.95 96.5633 80.1667C96.0667 90.9167 91.0167 96.07 80.1667 96.5633C75.9467 96.7567 74.6867 96.7967 64 96.7967C53.32 96.7967 52.0533 96.7567 47.8367 96.5633C36.97 96.0667 31.9333 90.9 31.44 80.1633C31.2467 75.9467 31.2067 74.6833 31.2067 64C31.2067 53.32 31.25 52.0567 31.44 47.8367C31.9367 37.08 36.9867 31.9333 47.8367 31.44C52.0567 31.25 53.32 31.21 64 31.21ZM64 24C53.1367 24 51.7767 24.0467 47.51 24.24C32.9833 24.9067 24.91 32.9667 24.2433 47.5067C24.0467 51.7767 24 53.1367 24 64C24 74.8633 24.0467 76.2267 24.24 80.4933C24.9067 95.02 32.9667 103.093 47.5067 103.76C51.7767 103.953 53.1367 104 64 104C74.8633 104 76.2267 103.953 80.4933 103.76C95.0067 103.093 103.1 95.0333 103.757 80.4933C103.953 76.2267 104 74.8633 104 64C104 53.1367 103.953 51.7767 103.76 47.51C103.107 32.9967 95.0367 24.91 80.4967 24.2433C76.2267 24.0467 74.8633 24 64 24ZM64 43.46C52.6567 43.46 43.46 52.6567 43.46 64C43.46 75.3433 52.6567 84.5433 64 84.5433C75.3433 84.5433 84.54 75.3467 84.54 64C84.54 52.6567 75.3433 43.46 64 43.46ZM64 77.3333C56.6367 77.3333 50.6667 71.3667 50.6667 64C50.6667 56.6367 56.6367 50.6667 64 50.6667C71.3633 50.6667 77.3333 56.6367 77.3333 64C77.3333 71.3667 71.3633 77.3333 64 77.3333ZM85.3533 37.85C82.7 37.85 80.55 40 80.55 42.65C80.55 45.3 82.7 47.45 85.3533 47.45C88.0033 47.45 90.15 45.3 90.15 42.65C90.15 40 88.0033 37.85 85.3533 37.85Z" fill="url(#paint2_radial_165_59)"/>
<path d="M64 31.21C74.68 31.21 75.9467 31.25 80.1667 31.4433C91.0067 31.9367 96.07 37.08 96.5633 47.84C96.7567 52.0567 96.7933 53.3233 96.7933 64.0033C96.7933 74.6867 96.7533 75.95 96.5633 80.1667C96.0667 90.9167 91.0167 96.07 80.1667 96.5633C75.9467 96.7567 74.6867 96.7967 64 96.7967C53.32 96.7967 52.0533 96.7567 47.8367 96.5633C36.97 96.0667 31.9333 90.9 31.44 80.1633C31.2467 75.9467 31.2067 74.6833 31.2067 64C31.2067 53.32 31.25 52.0567 31.44 47.8367C31.9367 37.08 36.9867 31.9333 47.8367 31.44C52.0567 31.25 53.32 31.21 64 31.21ZM64 24C53.1367 24 51.7767 24.0467 47.51 24.24C32.9833 24.9067 24.91 32.9667 24.2433 47.5067C24.0467 51.7767 24 53.1367 24 64C24 74.8633 24.0467 76.2267 24.24 80.4933C24.9067 95.02 32.9667 103.093 47.5067 103.76C51.7767 103.953 53.1367 104 64 104C74.8633 104 76.2267 103.953 80.4933 103.76C95.0067 103.093 103.1 95.0333 103.757 80.4933C103.953 76.2267 104 74.8633 104 64C104 53.1367 103.953 51.7767 103.76 47.51C103.107 32.9967 95.0367 24.91 80.4967 24.2433C76.2267 24.0467 74.8633 24 64 24ZM64 43.46C52.6567 43.46 43.46 52.6567 43.46 64C43.46 75.3433 52.6567 84.5433 64 84.5433C75.3433 84.5433 84.54 75.3467 84.54 64C84.54 52.6567 75.3433 43.46 64 43.46ZM64 77.3333C56.6367 77.3333 50.6667 71.3667 50.6667 64C50.6667 56.6367 56.6367 50.6667 64 50.6667C71.3633 50.6667 77.3333 56.6367 77.3333 64C77.3333 71.3667 71.3633 77.3333 64 77.3333ZM85.3533 37.85C82.7 37.85 80.55 40 80.55 42.65C80.55 45.3 82.7 47.45 85.3533 47.45C88.0033 47.45 90.15 45.3 90.15 42.65C90.15 40 88.0033 37.85 85.3533 37.85Z" fill="url(#paint3_radial_165_59)"/>
</g>
</g>
</g>
<defs>
<filter id="filter0_i_165_59" x="8" y="8" width="112" height="116" filterUnits="userSpaceOnUse" color-interpolation-filters="sRGB">
<feFlood flood-opacity="0" result="BackgroundImageFix"/>
<feBlend mode="normal" in="SourceGraphic" in2="BackgroundImageFix" result="shape"/>
<feColorMatrix in="SourceAlpha" type="matrix" values="0 0 0 0 0 0 0 0 0 0 0 0 0 0 0 0 0 0 127 0" result="hardAlpha"/>
<feOffset dy="4"/>
<feGaussianBlur stdDeviation="2"/>
<feComposite in2="hardAlpha" operator="arithmetic" k2="-1" k3="1"/>
<feColorMatrix type="matrix" values="0 0 0 0 0 0 0 0 0 0 0 0 0 0 0 0 0 0 0.25 0"/>
<feBlend mode="normal" in2="shape" result="effect1_innerShadow_165_59"/>
</filter>
<filter id="filter1_d_165_59" x="20" y="22" width="88" height="88" filterUnits="userSpaceOnUse" color-interpolation-filters="sRGB">
<feFlood flood-opacity="0" result="BackgroundImageFix"/>
<feColorMatrix in="SourceAlpha" type="matrix" values="0 0 0 0 0 0 0 0 0 0 0 0 0 0 0 0 0 0 127 0" result="hardAlpha"/>
<feOffset dy="2"/>
<feGaussianBlur stdDeviation="2"/>
<feComposite in2="hardAlpha" operator="out"/>
<feColorMatrix type="matrix" values="0 0 0 0 0 0 0 0 0 0 0 0 0 0 0 0 0 0 0.25 0"/>
<feBlend mode="normal" in2="BackgroundImageFix" result="effect1_dropShadow_165_59"/>
<feBlend mode="normal" in="SourceGraphic" in2="effect1_dropShadow_165_59" result="shape"/>
</filter>
<radialGradient id="paint0_radial_165_59" cx="0" cy="0" r="1" gradientUnits="userSpaceOnUse" gradientTransform="translate(128) rotate(135) scale(181.019)">
<stop stop-color="#B000FF"/>
<stop offset="1" stop-color="#DFDFDF" stop-opacity="0"/>
</radialGradient>
<radialGradient id="paint1_radial_165_59" cx="0" cy="0" r="1" gradientUnits="userSpaceOnUse" gradientTransform="translate(0 128) rotate(-63.4349) scale(143.108)">
<stop stop-color="#FFB000"/>
<stop offset="1" stop-color="#DFDFDF" stop-opacity="0"/>
</radialGradient>
<radialGradient id="paint2_radial_165_59" cx="0" cy="0" r="1" gradientUnits="userSpaceOnUse" gradientTransform="translate(104 24) rotate(135) scale(113.137)">
<stop stop-color="#B000FF"/>
<stop offset="1" stop-color="#DFDFDF" stop-opacity="0"/>
</radialGradient>
<radialGradient id="paint3_radial_165_59" cx="0" cy="0" r="1" gradientUnits="userSpaceOnUse" gradientTransform="translate(24 104) rotate(-63.4349) scale(89.4427)">
<stop stop-color="#FFB000"/>
<stop offset="1" stop-color="#DFDFDF" stop-opacity="0"/>
</radialGradient>
<clipPath id="clip0_165_59">
<rect width="80" height="80" fill="white" transform="translate(24 24)"/>
</clipPath>
</defs>
</svg>
