<svg width="128" height="128" viewBox="0 0 128 128" fill="none" xmlns="http://www.w3.org/2000/svg">
<rect width="128" height="128" rx="32" fill="url(#paint0_linear_165_24)"/>
<g filter="url(#filter0_i_165_24)">
<rect x="8" y="8" width="112" height="112" rx="24" fill="black" fill-opacity="0.7"/>
<g filter="url(#filter1_d_165_24)">
<path d="M102.327 44.7455C101.405 41.3013 98.6985 38.5947 95.2544 37.6727C89.0182 36 63.9999 36 63.9999 36C63.9999 36 38.9819 36 32.7455 37.6727C29.3013 38.5947 26.5947 41.3013 25.6727 44.7455C24 50.9819 24 64.0013 24 64.0013C24 64.0013 24 77.0208 25.6727 83.2572C26.5947 86.7014 29.3013 89.408 32.7455 90.3298C38.9819 92.0026 63.9999 92.0026 63.9999 92.0026C63.9999 92.0026 89.0182 92.0026 95.2544 90.3298C98.6985 89.408 101.405 86.7014 102.327 83.2572C104 77.0208 104 64.0013 104 64.0013C104 64.0013 103.993 50.9819 102.327 44.7455Z" fill="#FF0000"/>
</g>
<path d="M55.9924 76.001L76.7761 64.0024L55.9924 52.0037V76.001Z" fill="white"/>
</g>
<defs>
<filter id="filter0_i_165_24" x="8" y="8" width="112" height="116" filterUnits="userSpaceOnUse" color-interpolation-filters="sRGB">
<feFlood flood-opacity="0" result="BackgroundImageFix"/>
<feBlend mode="normal" in="SourceGraphic" in2="BackgroundImageFix" result="shape"/>
<feColorMatrix in="SourceAlpha" type="matrix" values="0 0 0 0 0 0 0 0 0 0 0 0 0 0 0 0 0 0 127 0" result="hardAlpha"/>
<feOffset dy="4"/>
<feGaussianBlur stdDeviation="2"/>
<feComposite in2="hardAlpha" operator="arithmetic" k2="-1" k3="1"/>
<feColorMatrix type="matrix" values="0 0 0 0 0 0 0 0 0 0 0 0 0 0 0 0 0 0 0.25 0"/>
<feBlend mode="normal" in2="shape" result="effect1_innerShadow_165_24"/>
</filter>
<filter id="filter1_d_165_24" x="20" y="34" width="88" height="64.0027" filterUnits="userSpaceOnUse" color-interpolation-filters="sRGB">
<feFlood flood-opacity="0" result="BackgroundImageFix"/>
<feColorMatrix in="SourceAlpha" type="matrix" values="0 0 0 0 0 0 0 0 0 0 0 0 0 0 0 0 0 0 127 0" result="hardAlpha"/>
<feOffset dy="2"/>
<feGaussianBlur stdDeviation="2"/>
<feComposite in2="hardAlpha" operator="out"/>
<feColorMatrix type="matrix" values="0 0 0 0 0 0 0 0 0 0 0 0 0 0 0 0 0 0 0.25 0"/>
<feBlend mode="normal" in2="BackgroundImageFix" result="effect1_dropShadow_165_24"/>
<feBlend mode="normal" in="SourceGraphic" in2="effect1_dropShadow_165_24" result="shape"/>
</filter>
<linearGradient id="paint0_linear_165_24" x1="64" y1="0" x2="64" y2="128" gradientUnits="userSpaceOnUse">
<stop stop-color="white"/>
<stop offset="1" stop-color="#DFDFDF"/>
</linearGradient>
</defs>
</svg>
