<svg width="84" height="84" viewBox="0 0 84 84" fill="none" xmlns="http://www.w3.org/2000/svg">
<g clip-path="url(#clip0_31_1308)">
<path d="M63 0H21C9.40202 0 0 9.40202 0 21V63C0 74.598 9.40202 84 21 84H63C74.598 84 84 74.598 84 63V21C84 9.40202 74.598 0 63 0Z" fill="#D3B9FF"/>
<path d="M63 0H21C9.40202 0 0 9.40202 0 21V63C0 74.598 9.40202 84 21 84H63C74.598 84 84 74.598 84 63V21C84 9.40202 74.598 0 63 0Z" fill="url(#paint0_linear_31_1308)"/>
<g filter="url(#filter0_i_31_1308)">
<path d="M63 5.25H21C12.3015 5.25 5.25 12.3015 5.25 21V63C5.25 71.6985 12.3015 78.75 21 78.75H63C71.6985 78.75 78.75 71.6985 78.75 63V21C78.75 12.3015 71.6985 5.25 63 5.25Z" fill="black" fill-opacity="0.7"/>
<g filter="url(#filter1_d_31_1308)">
<path d="M21 26.25C23.8995 26.25 26.25 23.8995 26.25 21C26.25 18.1005 23.8995 15.75 21 15.75C18.1005 15.75 15.75 18.1005 15.75 21C15.75 23.8995 18.1005 26.25 21 26.25Z" stroke="#D404FF" stroke-width="5"/>
</g>
<g filter="url(#filter2_d_31_1308)">
<path d="M42 26.25C44.8995 26.25 47.25 23.8995 47.25 21C47.25 18.1005 44.8995 15.75 42 15.75C39.1005 15.75 36.75 18.1005 36.75 21C36.75 23.8995 39.1005 26.25 42 26.25Z" stroke="#C10080" stroke-width="5"/>
<path d="M42 26.25C44.8995 26.25 47.25 23.8995 47.25 21C47.25 18.1005 44.8995 15.75 42 15.75C39.1005 15.75 36.75 18.1005 36.75 21C36.75 23.8995 39.1005 26.25 42 26.25Z" stroke="#D404FF" stroke-width="5"/>
</g>
<g filter="url(#filter3_d_31_1308)">
<path d="M63 26.25C65.8995 26.25 68.25 23.8995 68.25 21C68.25 18.1005 65.8995 15.75 63 15.75C60.1005 15.75 57.75 18.1005 57.75 21C57.75 23.8995 60.1005 26.25 63 26.25Z" stroke="#8B00E7" stroke-width="5"/>
</g>
<g filter="url(#filter4_d_31_1308)">
<path d="M21 47.25C23.8995 47.25 26.25 44.8995 26.25 42C26.25 39.1005 23.8995 36.75 21 36.75C18.1005 36.75 15.75 39.1005 15.75 42C15.75 44.8995 18.1005 47.25 21 47.25Z" stroke="#C10080" stroke-width="5"/>
<path d="M21 47.25C23.8995 47.25 26.25 44.8995 26.25 42C26.25 39.1005 23.8995 36.75 21 36.75C18.1005 36.75 15.75 39.1005 15.75 42C15.75 44.8995 18.1005 47.25 21 47.25Z" stroke="#D404FF" stroke-width="5"/>
</g>
<g filter="url(#filter5_d_31_1308)">
<path d="M42 47.25C44.8995 47.25 47.25 44.8995 47.25 42C47.25 39.1005 44.8995 36.75 42 36.75C39.1005 36.75 36.75 39.1005 36.75 42C36.75 44.8995 39.1005 47.25 42 47.25Z" stroke="#8B00E7" stroke-width="5"/>
</g>
<g filter="url(#filter6_d_31_1308)">
<path d="M63 47.25C65.8995 47.25 68.25 44.8995 68.25 42C68.25 39.1005 65.8995 36.75 63 36.75C60.1005 36.75 57.75 39.1005 57.75 42C57.75 44.8995 60.1005 47.25 63 47.25Z" stroke="#D404FF" stroke-width="5"/>
</g>
<g filter="url(#filter7_d_31_1308)">
<path d="M21 68.25C23.8995 68.25 26.25 65.8995 26.25 63C26.25 60.1005 23.8995 57.75 21 57.75C18.1005 57.75 15.75 60.1005 15.75 63C15.75 65.8995 18.1005 68.25 21 68.25Z" stroke="#8B00E7" stroke-width="5"/>
</g>
<g filter="url(#filter8_d_31_1308)">
<path d="M42 68.25C44.8995 68.25 47.25 65.8995 47.25 63C47.25 60.1005 44.8995 57.75 42 57.75C39.1005 57.75 36.75 60.1005 36.75 63C36.75 65.8995 39.1005 68.25 42 68.25Z" stroke="#D404FF" stroke-width="5"/>
</g>
<g filter="url(#filter9_d_31_1308)">
<path d="M63 68.25C65.8995 68.25 68.25 65.8995 68.25 63C68.25 60.1005 65.8995 57.75 63 57.75C60.1005 57.75 57.75 60.1005 57.75 63C57.75 65.8995 60.1005 68.25 63 68.25Z" stroke="#C10080" stroke-width="5"/>
<path d="M63 68.25C65.8995 68.25 68.25 65.8995 68.25 63C68.25 60.1005 65.8995 57.75 63 57.75C60.1005 57.75 57.75 60.1005 57.75 63C57.75 65.8995 60.1005 68.25 63 68.25Z" stroke="#D404FF" stroke-width="5"/>
</g>
</g>
</g>
<defs>
<filter id="filter0_i_31_1308" x="5.25" y="5.25" width="73.5" height="75.5" filterUnits="userSpaceOnUse" color-interpolation-filters="sRGB">
<feFlood flood-opacity="0" result="BackgroundImageFix"/>
<feBlend mode="normal" in="SourceGraphic" in2="BackgroundImageFix" result="shape"/>
<feColorMatrix in="SourceAlpha" type="matrix" values="0 0 0 0 0 0 0 0 0 0 0 0 0 0 0 0 0 0 127 0" result="hardAlpha"/>
<feOffset dy="2"/>
<feGaussianBlur stdDeviation="2"/>
<feComposite in2="hardAlpha" operator="arithmetic" k2="-1" k3="1"/>
<feColorMatrix type="matrix" values="0 0 0 0 0 0 0 0 0 0 0 0 0 0 0 0 0 0 0.25 0"/>
<feBlend mode="normal" in2="shape" result="effect1_innerShadow_31_1308"/>
</filter>
<filter id="filter1_d_31_1308" x="9.25" y="11.25" width="23.5" height="23.5" filterUnits="userSpaceOnUse" color-interpolation-filters="sRGB">
<feFlood flood-opacity="0" result="BackgroundImageFix"/>
<feColorMatrix in="SourceAlpha" type="matrix" values="0 0 0 0 0 0 0 0 0 0 0 0 0 0 0 0 0 0 127 0" result="hardAlpha"/>
<feOffset dy="2"/>
<feGaussianBlur stdDeviation="2"/>
<feComposite in2="hardAlpha" operator="out"/>
<feColorMatrix type="matrix" values="0 0 0 0 0 0 0 0 0 0 0 0 0 0 0 0 0 0 0.25 0"/>
<feBlend mode="normal" in2="BackgroundImageFix" result="effect1_dropShadow_31_1308"/>
<feBlend mode="normal" in="SourceGraphic" in2="effect1_dropShadow_31_1308" result="shape"/>
</filter>
<filter id="filter2_d_31_1308" x="30.25" y="11.25" width="23.5" height="23.5" filterUnits="userSpaceOnUse" color-interpolation-filters="sRGB">
<feFlood flood-opacity="0" result="BackgroundImageFix"/>
<feColorMatrix in="SourceAlpha" type="matrix" values="0 0 0 0 0 0 0 0 0 0 0 0 0 0 0 0 0 0 127 0" result="hardAlpha"/>
<feOffset dy="2"/>
<feGaussianBlur stdDeviation="2"/>
<feComposite in2="hardAlpha" operator="out"/>
<feColorMatrix type="matrix" values="0 0 0 0 0 0 0 0 0 0 0 0 0 0 0 0 0 0 0.25 0"/>
<feBlend mode="normal" in2="BackgroundImageFix" result="effect1_dropShadow_31_1308"/>
<feBlend mode="normal" in="SourceGraphic" in2="effect1_dropShadow_31_1308" result="shape"/>
</filter>
<filter id="filter3_d_31_1308" x="51.25" y="11.25" width="23.5" height="23.5" filterUnits="userSpaceOnUse" color-interpolation-filters="sRGB">
<feFlood flood-opacity="0" result="BackgroundImageFix"/>
<feColorMatrix in="SourceAlpha" type="matrix" values="0 0 0 0 0 0 0 0 0 0 0 0 0 0 0 0 0 0 127 0" result="hardAlpha"/>
<feOffset dy="2"/>
<feGaussianBlur stdDeviation="2"/>
<feComposite in2="hardAlpha" operator="out"/>
<feColorMatrix type="matrix" values="0 0 0 0 0 0 0 0 0 0 0 0 0 0 0 0 0 0 0.25 0"/>
<feBlend mode="normal" in2="BackgroundImageFix" result="effect1_dropShadow_31_1308"/>
<feBlend mode="normal" in="SourceGraphic" in2="effect1_dropShadow_31_1308" result="shape"/>
</filter>
<filter id="filter4_d_31_1308" x="9.25" y="32.25" width="23.5" height="23.5" filterUnits="userSpaceOnUse" color-interpolation-filters="sRGB">
<feFlood flood-opacity="0" result="BackgroundImageFix"/>
<feColorMatrix in="SourceAlpha" type="matrix" values="0 0 0 0 0 0 0 0 0 0 0 0 0 0 0 0 0 0 127 0" result="hardAlpha"/>
<feOffset dy="2"/>
<feGaussianBlur stdDeviation="2"/>
<feComposite in2="hardAlpha" operator="out"/>
<feColorMatrix type="matrix" values="0 0 0 0 0 0 0 0 0 0 0 0 0 0 0 0 0 0 0.25 0"/>
<feBlend mode="normal" in2="BackgroundImageFix" result="effect1_dropShadow_31_1308"/>
<feBlend mode="normal" in="SourceGraphic" in2="effect1_dropShadow_31_1308" result="shape"/>
</filter>
<filter id="filter5_d_31_1308" x="30.25" y="32.25" width="23.5" height="23.5" filterUnits="userSpaceOnUse" color-interpolation-filters="sRGB">
<feFlood flood-opacity="0" result="BackgroundImageFix"/>
<feColorMatrix in="SourceAlpha" type="matrix" values="0 0 0 0 0 0 0 0 0 0 0 0 0 0 0 0 0 0 127 0" result="hardAlpha"/>
<feOffset dy="2"/>
<feGaussianBlur stdDeviation="2"/>
<feComposite in2="hardAlpha" operator="out"/>
<feColorMatrix type="matrix" values="0 0 0 0 0 0 0 0 0 0 0 0 0 0 0 0 0 0 0.25 0"/>
<feBlend mode="normal" in2="BackgroundImageFix" result="effect1_dropShadow_31_1308"/>
<feBlend mode="normal" in="SourceGraphic" in2="effect1_dropShadow_31_1308" result="shape"/>
</filter>
<filter id="filter6_d_31_1308" x="51.25" y="32.25" width="23.5" height="23.5" filterUnits="userSpaceOnUse" color-interpolation-filters="sRGB">
<feFlood flood-opacity="0" result="BackgroundImageFix"/>
<feColorMatrix in="SourceAlpha" type="matrix" values="0 0 0 0 0 0 0 0 0 0 0 0 0 0 0 0 0 0 127 0" result="hardAlpha"/>
<feOffset dy="2"/>
<feGaussianBlur stdDeviation="2"/>
<feComposite in2="hardAlpha" operator="out"/>
<feColorMatrix type="matrix" values="0 0 0 0 0 0 0 0 0 0 0 0 0 0 0 0 0 0 0.25 0"/>
<feBlend mode="normal" in2="BackgroundImageFix" result="effect1_dropShadow_31_1308"/>
<feBlend mode="normal" in="SourceGraphic" in2="effect1_dropShadow_31_1308" result="shape"/>
</filter>
<filter id="filter7_d_31_1308" x="9.25" y="53.25" width="23.5" height="23.5" filterUnits="userSpaceOnUse" color-interpolation-filters="sRGB">
<feFlood flood-opacity="0" result="BackgroundImageFix"/>
<feColorMatrix in="SourceAlpha" type="matrix" values="0 0 0 0 0 0 0 0 0 0 0 0 0 0 0 0 0 0 127 0" result="hardAlpha"/>
<feOffset dy="2"/>
<feGaussianBlur stdDeviation="2"/>
<feComposite in2="hardAlpha" operator="out"/>
<feColorMatrix type="matrix" values="0 0 0 0 0 0 0 0 0 0 0 0 0 0 0 0 0 0 0.25 0"/>
<feBlend mode="normal" in2="BackgroundImageFix" result="effect1_dropShadow_31_1308"/>
<feBlend mode="normal" in="SourceGraphic" in2="effect1_dropShadow_31_1308" result="shape"/>
</filter>
<filter id="filter8_d_31_1308" x="30.25" y="53.25" width="23.5" height="23.5" filterUnits="userSpaceOnUse" color-interpolation-filters="sRGB">
<feFlood flood-opacity="0" result="BackgroundImageFix"/>
<feColorMatrix in="SourceAlpha" type="matrix" values="0 0 0 0 0 0 0 0 0 0 0 0 0 0 0 0 0 0 127 0" result="hardAlpha"/>
<feOffset dy="2"/>
<feGaussianBlur stdDeviation="2"/>
<feComposite in2="hardAlpha" operator="out"/>
<feColorMatrix type="matrix" values="0 0 0 0 0 0 0 0 0 0 0 0 0 0 0 0 0 0 0.25 0"/>
<feBlend mode="normal" in2="BackgroundImageFix" result="effect1_dropShadow_31_1308"/>
<feBlend mode="normal" in="SourceGraphic" in2="effect1_dropShadow_31_1308" result="shape"/>
</filter>
<filter id="filter9_d_31_1308" x="51.25" y="53.25" width="23.5" height="23.5" filterUnits="userSpaceOnUse" color-interpolation-filters="sRGB">
<feFlood flood-opacity="0" result="BackgroundImageFix"/>
<feColorMatrix in="SourceAlpha" type="matrix" values="0 0 0 0 0 0 0 0 0 0 0 0 0 0 0 0 0 0 127 0" result="hardAlpha"/>
<feOffset dy="2"/>
<feGaussianBlur stdDeviation="2"/>
<feComposite in2="hardAlpha" operator="out"/>
<feColorMatrix type="matrix" values="0 0 0 0 0 0 0 0 0 0 0 0 0 0 0 0 0 0 0.25 0"/>
<feBlend mode="normal" in2="BackgroundImageFix" result="effect1_dropShadow_31_1308"/>
<feBlend mode="normal" in="SourceGraphic" in2="effect1_dropShadow_31_1308" result="shape"/>
</filter>
<linearGradient id="paint0_linear_31_1308" x1="42" y1="0" x2="42" y2="84" gradientUnits="userSpaceOnUse">
<stop stop-color="#CB02C5"/>
<stop offset="0.244792" stop-color="#C101DA"/>
<stop offset="0.510417" stop-color="#B600F0"/>
<stop offset="0.744792" stop-color="#8900D9"/>
<stop offset="1" stop-color="#5800BF"/>
</linearGradient>
<clipPath id="clip0_31_1308">
<rect width="84" height="84" fill="white"/>
</clipPath>
</defs>
</svg>
