<svg width="84" height="84" viewBox="0 0 84 84" fill="none" xmlns="http://www.w3.org/2000/svg">
<g clip-path="url(#clip0_31_1334)">
<path d="M63 0H21C9.40202 0 0 9.40202 0 21V63C0 74.598 9.40202 84 21 84H63C74.598 84 84 74.598 84 63V21C84 9.40202 74.598 0 63 0Z" fill="url(#paint0_linear_31_1334)"/>
<g filter="url(#filter0_i_31_1334)">
<path d="M63 5.25H21C12.3015 5.25 5.25 12.3015 5.25 21V63C5.25 71.6985 12.3015 78.75 21 78.75H63C71.6985 78.75 78.75 71.6985 78.75 63V21C78.75 12.3015 71.6985 5.25 63 5.25Z" fill="black" fill-opacity="0.7"/>
<mask id="mask0_31_1334" style="mask-type:luminance" maskUnits="userSpaceOnUse" x="13" y="13" width="59" height="59">
<path d="M13.5 13.5H71.1V71.1001H13.5V13.5Z" fill="white"/>
</mask>
<g mask="url(#mask0_31_1334)">
<g filter="url(#filter1_d_31_1334)">
<path d="M40.7234 34.1864L16.3627 28.2328L13.5 35.0057L22.2813 63.0936L45.6129 71.0994L40.7234 34.1864Z" fill="url(#paint1_linear_31_1334)"/>
</g>
<g filter="url(#filter2_d_31_1334)">
<path d="M71.1 29.9767L65.2453 18.5131L35.3706 13.5L22.2812 63.0941L45.6129 71.1001L46.8629 69.048L71.1 29.9767Z" fill="url(#paint2_linear_31_1334)"/>
</g>
<g filter="url(#filter3_d_31_1334)">
<path d="M60.4206 24.3H24.4207V60.3H60.4206V24.3Z" fill="black"/>
</g>
<path d="M48.5616 28.6916H51.3099L57.1164 42.3366H54.0002L52.7616 39.298H47.0326L45.7938 42.3366H42.7551L48.5616 28.6916ZM51.697 36.6657L49.8971 32.2721L48.0971 36.6657H51.697Z" fill="white"/>
<path d="M40.3883 42.7433L38.898 41.4078C37.756 42.1432 36.3818 42.5691 34.8721 42.5691C30.6916 42.5691 27.6917 39.4529 27.6917 35.6014V35.5627C27.6917 31.7111 30.7303 28.5563 34.9109 28.5563C39.0915 28.5563 42.0915 31.6724 42.0915 35.5239V35.5627C42.0915 36.9949 41.6463 38.3304 40.8915 39.4529L42.285 40.6336L40.3883 42.7433ZM36.6915 39.4529L34.4852 37.5756L36.3818 35.4466L38.6076 37.4594C38.84 36.9176 38.9753 36.2788 38.9753 35.6014V35.5627C38.9753 33.2401 37.2722 31.3046 34.8721 31.3046C32.4722 31.3046 30.8077 33.2015 30.8077 35.5239V35.5627C30.8077 37.8853 32.511 39.8207 34.9109 39.8207C35.5689 39.8207 36.169 39.7045 36.6915 39.4529Z" fill="white"/>
<path d="M41.2955 53.5494H27.7957V55.7993H41.2955V53.5494Z" fill="white"/>
</g>
</g>
</g>
<defs>
<filter id="filter0_i_31_1334" x="5.25" y="5.25" width="73.5" height="77.5" filterUnits="userSpaceOnUse" color-interpolation-filters="sRGB">
<feFlood flood-opacity="0" result="BackgroundImageFix"/>
<feBlend mode="normal" in="SourceGraphic" in2="BackgroundImageFix" result="shape"/>
<feColorMatrix in="SourceAlpha" type="matrix" values="0 0 0 0 0 0 0 0 0 0 0 0 0 0 0 0 0 0 127 0" result="hardAlpha"/>
<feOffset dy="4"/>
<feGaussianBlur stdDeviation="2"/>
<feComposite in2="hardAlpha" operator="arithmetic" k2="-1" k3="1"/>
<feColorMatrix type="matrix" values="0 0 0 0 0 0 0 0 0 0 0 0 0 0 0 0 0 0 0.25 0"/>
<feBlend mode="normal" in2="shape" result="effect1_innerShadow_31_1334"/>
</filter>
<filter id="filter1_d_31_1334" x="9.5" y="26.2328" width="40.113" height="50.8666" filterUnits="userSpaceOnUse" color-interpolation-filters="sRGB">
<feFlood flood-opacity="0" result="BackgroundImageFix"/>
<feColorMatrix in="SourceAlpha" type="matrix" values="0 0 0 0 0 0 0 0 0 0 0 0 0 0 0 0 0 0 127 0" result="hardAlpha"/>
<feOffset dy="2"/>
<feGaussianBlur stdDeviation="2"/>
<feComposite in2="hardAlpha" operator="out"/>
<feColorMatrix type="matrix" values="0 0 0 0 0 0 0 0 0 0 0 0 0 0 0 0 0 0 0.25 0"/>
<feBlend mode="normal" in2="BackgroundImageFix" result="effect1_dropShadow_31_1334"/>
<feBlend mode="normal" in="SourceGraphic" in2="effect1_dropShadow_31_1334" result="shape"/>
</filter>
<filter id="filter2_d_31_1334" x="18.2812" y="11.5" width="56.8186" height="65.6001" filterUnits="userSpaceOnUse" color-interpolation-filters="sRGB">
<feFlood flood-opacity="0" result="BackgroundImageFix"/>
<feColorMatrix in="SourceAlpha" type="matrix" values="0 0 0 0 0 0 0 0 0 0 0 0 0 0 0 0 0 0 127 0" result="hardAlpha"/>
<feOffset dy="2"/>
<feGaussianBlur stdDeviation="2"/>
<feComposite in2="hardAlpha" operator="out"/>
<feColorMatrix type="matrix" values="0 0 0 0 0 0 0 0 0 0 0 0 0 0 0 0 0 0 0.25 0"/>
<feBlend mode="normal" in2="BackgroundImageFix" result="effect1_dropShadow_31_1334"/>
<feBlend mode="normal" in="SourceGraphic" in2="effect1_dropShadow_31_1334" result="shape"/>
</filter>
<filter id="filter3_d_31_1334" x="20.4207" y="22.3" width="44" height="44" filterUnits="userSpaceOnUse" color-interpolation-filters="sRGB">
<feFlood flood-opacity="0" result="BackgroundImageFix"/>
<feColorMatrix in="SourceAlpha" type="matrix" values="0 0 0 0 0 0 0 0 0 0 0 0 0 0 0 0 0 0 127 0" result="hardAlpha"/>
<feOffset dy="2"/>
<feGaussianBlur stdDeviation="2"/>
<feComposite in2="hardAlpha" operator="out"/>
<feColorMatrix type="matrix" values="0 0 0 0 0 0 0 0 0 0 0 0 0 0 0 0 0 0 0.25 0"/>
<feBlend mode="normal" in2="BackgroundImageFix" result="effect1_dropShadow_31_1334"/>
<feBlend mode="normal" in="SourceGraphic" in2="effect1_dropShadow_31_1334" result="shape"/>
</filter>
<linearGradient id="paint0_linear_31_1334" x1="42" y1="0" x2="42" y2="84" gradientUnits="userSpaceOnUse">
<stop stop-color="#3BEA62"/>
<stop offset="0.510417" stop-color="#087DF7"/>
<stop offset="1" stop-color="#6B57FF"/>
</linearGradient>
<linearGradient id="paint1_linear_31_1334" x1="34.6117" y1="61.6612" x2="27.0281" y2="34.2943" gradientUnits="userSpaceOnUse">
<stop stop-color="#087CFA"/>
<stop offset="1" stop-color="#6B57FF"/>
</linearGradient>
<linearGradient id="paint2_linear_31_1334" x1="24.1989" y1="65.7379" x2="52.4331" y2="25.122" gradientUnits="userSpaceOnUse">
<stop stop-color="#087CFA"/>
<stop offset="0.387317" stop-color="#097FF6"/>
<stop offset="0.960121" stop-color="#3BEA62"/>
</linearGradient>
<clipPath id="clip0_31_1334">
<rect width="84" height="84" fill="white"/>
</clipPath>
</defs>
</svg>
