<svg width="84" height="84" viewBox="0 0 84 84" fill="none" xmlns="http://www.w3.org/2000/svg">
<g clip-path="url(#clip0_31_1370)">
<path d="M63 0H21C9.40202 0 0 9.40202 0 21V63C0 74.598 9.40202 84 21 84H63C74.598 84 84 74.598 84 63V21C84 9.40202 74.598 0 63 0Z" fill="url(#paint0_linear_31_1370)"/>
<g filter="url(#filter0_i_31_1370)">
<path d="M63 5.25H21C12.3015 5.25 5.25 12.3015 5.25 21V63C5.25 71.6985 12.3015 78.75 21 78.75H63C71.6985 78.75 78.75 71.6985 78.75 63V21C78.75 12.3015 71.6985 5.25 63 5.25Z" fill="black" fill-opacity="0.7"/>
<g filter="url(#filter1_d_31_1370)">
<path fill-rule="evenodd" clip-rule="evenodd" d="M62.6716 28.3182L63.8966 25.3022C63.8966 25.3022 62.3375 23.6267 60.4444 21.7277C58.5513 19.8288 54.5425 20.9458 54.5425 20.9458L49.9768 15.75H41.959H33.9413L29.3757 20.9458C29.3757 20.9458 25.3668 19.8288 23.4737 21.7277C21.5806 23.6267 20.0216 25.3022 20.0216 25.3022L21.2465 28.3182L19.6875 32.7862C19.6875 32.7862 24.2727 50.2067 24.81 52.3341C25.8679 56.5229 26.5917 58.1426 29.5983 60.2649C32.605 62.3873 38.0615 66.0732 38.9524 66.6317C39.8432 67.1908 40.9568 68.1417 41.959 68.1417C42.9613 68.1417 44.0749 67.1908 44.9657 66.6317C45.8566 66.0732 51.3131 62.3873 54.3198 60.2649C57.3265 58.1426 58.0502 56.5229 59.1082 52.3341C59.6454 50.2067 64.2306 32.7862 64.2306 32.7862L62.6716 28.3182Z" fill="#FF5500"/>
<path fill-rule="evenodd" clip-rule="evenodd" d="M53.2619 24.241C53.2619 24.241 59.1344 31.362 59.1344 32.884C59.1344 34.4059 58.3957 34.8076 57.653 35.5988C56.9102 36.39 53.6662 39.8454 53.2497 40.2891C52.8331 40.7328 51.9658 41.4056 52.4759 42.6166C52.9861 43.8276 53.7386 45.3685 52.9018 46.9314C52.0648 48.4944 50.6311 49.5375 49.7124 49.3651C48.7936 49.1925 46.6361 48.0615 45.8427 47.5449C45.0493 47.0282 42.5346 44.9479 42.5346 44.152C42.5346 43.3561 45.134 41.9269 45.6142 41.6022C46.0946 41.2777 48.285 40.0209 48.3299 39.5276C48.3746 39.0342 48.3576 38.8896 47.7112 37.6706C47.0648 36.4517 45.9006 34.825 46.0944 33.7427C46.2882 32.6606 48.1656 32.0978 49.5055 31.5902C50.8451 31.0828 53.4247 30.1243 53.7469 29.9753C54.0692 29.8262 53.986 29.6841 53.0097 29.5913C52.0336 29.4985 49.2635 29.1297 48.0146 29.4789C46.7657 29.8281 44.6321 30.3593 44.4593 30.641C44.2865 30.9228 44.134 30.9322 44.3115 31.904C44.4889 32.8758 45.4027 37.5389 45.4913 38.3673C45.5801 39.1955 45.7536 39.7431 44.8633 39.9472C43.9729 40.1515 42.4741 40.506 41.9591 40.506C41.444 40.506 39.9452 40.1515 39.0549 39.9472C38.1644 39.7431 38.3379 39.1955 38.4267 38.3673C38.5155 37.5389 39.4292 32.8758 39.6067 31.904C39.7841 30.9322 39.6316 30.9228 39.4589 30.641C39.286 30.3593 37.1523 29.8281 35.9035 29.4789C34.6545 29.1297 31.8846 29.4985 30.9084 29.5913C29.9322 29.6841 29.849 29.8262 30.1712 29.9753C30.4935 30.1243 33.073 31.0828 34.4127 31.5902C35.7525 32.0978 37.63 32.6606 37.8238 33.7427C38.0176 34.825 36.8533 36.4517 36.207 37.6706C35.5606 38.8896 35.5434 39.0342 35.5883 39.5276C35.6331 40.0209 37.8236 41.2777 38.3039 41.6022C38.7842 41.9269 41.3835 43.3561 41.3835 44.152C41.3835 44.9479 38.8689 47.0282 38.0755 47.5449C37.282 48.0615 35.1245 49.1925 34.2058 49.3651C33.2871 49.5375 31.8533 48.4944 31.0164 46.9314C30.1796 45.3685 30.9321 43.8276 31.4421 42.6166C31.9522 41.4056 31.0851 40.7328 30.6684 40.2891C30.252 39.8454 27.0079 36.39 26.2651 35.5988C25.5224 34.8076 24.7837 34.4059 24.7837 32.884C24.7837 31.362 30.6563 24.241 30.6563 24.241C30.6563 24.241 35.6117 25.1905 36.2798 25.1905C36.948 25.1905 38.3956 24.632 39.732 24.1852C41.0682 23.7384 41.9591 23.7351 41.9591 23.7351C41.9591 23.7351 42.8499 23.7384 44.1862 24.1852C45.5226 24.632 46.9702 25.1905 47.6383 25.1905C48.3065 25.1905 53.2619 24.241 53.2619 24.241ZM48.8595 51.4803C49.223 51.7086 49.0012 52.1391 48.6701 52.3738C48.339 52.6086 43.889 56.0651 43.4572 56.4471C43.0252 56.8293 42.3906 57.4603 41.9591 57.4603C41.5276 57.4603 40.8928 56.8293 40.461 56.4471C40.029 56.0651 35.5791 52.6086 35.248 52.3738C34.9168 52.1391 34.6952 51.7086 35.0587 51.4803C35.4222 51.2521 36.5596 50.6761 38.1289 49.8614C39.6981 49.0469 41.6538 48.3543 41.9591 48.3543C42.2643 48.3543 44.22 49.0469 45.7893 49.8614C47.3586 50.6761 48.4959 51.2521 48.8595 51.4803Z" fill="white"/>
<path d="M54.5425 20.9459L49.9767 15.7501H41.959H33.9413L29.3756 20.9459C29.3756 20.9459 25.3667 19.8289 23.4736 21.7278C23.4736 21.7278 28.8188 21.2439 30.6562 24.2411C30.6562 24.2411 35.6116 25.1906 36.2798 25.1906C36.9479 25.1906 38.3956 24.6321 39.7318 24.1853C41.0682 23.7385 41.959 23.7352 41.959 23.7352C41.959 23.7352 42.8499 23.7385 44.1862 24.1853C45.5225 24.6321 46.9701 25.1906 47.6383 25.1906C48.3064 25.1906 53.2618 24.2411 53.2618 24.2411C55.0992 21.2439 60.4444 21.7278 60.4444 21.7278C58.5513 19.8289 54.5425 20.9459 54.5425 20.9459Z" fill="#FF2000"/>
<path d="M54.5425 20.9459L49.9767 15.7501H41.959H33.9413L29.3756 20.9459C29.3756 20.9459 25.3667 19.8289 23.4736 21.7278C23.4736 21.7278 28.8188 21.2439 30.6562 24.2411C30.6562 24.2411 35.6116 25.1906 36.2798 25.1906C36.9479 25.1906 38.3956 24.6321 39.7318 24.1853C41.0682 23.7385 41.959 23.7352 41.959 23.7352C41.959 23.7352 42.8499 23.7385 44.1862 24.1853C45.5225 24.6321 46.9701 25.1906 47.6383 25.1906C48.3064 25.1906 53.2618 24.2411 53.2618 24.2411C55.0992 21.2439 60.4444 21.7278 60.4444 21.7278C58.5513 19.8289 54.5425 20.9459 54.5425 20.9459Z" fill="black" fill-opacity="0.1"/>
</g>
</g>
</g>
<defs>
<filter id="filter0_i_31_1370" x="5.25" y="5.25" width="73.5" height="77.5" filterUnits="userSpaceOnUse" color-interpolation-filters="sRGB">
<feFlood flood-opacity="0" result="BackgroundImageFix"/>
<feBlend mode="normal" in="SourceGraphic" in2="BackgroundImageFix" result="shape"/>
<feColorMatrix in="SourceAlpha" type="matrix" values="0 0 0 0 0 0 0 0 0 0 0 0 0 0 0 0 0 0 127 0" result="hardAlpha"/>
<feOffset dy="4"/>
<feGaussianBlur stdDeviation="2"/>
<feComposite in2="hardAlpha" operator="arithmetic" k2="-1" k3="1"/>
<feColorMatrix type="matrix" values="0 0 0 0 0 0 0 0 0 0 0 0 0 0 0 0 0 0 0.25 0"/>
<feBlend mode="normal" in2="shape" result="effect1_innerShadow_31_1370"/>
</filter>
<filter id="filter1_d_31_1370" x="15.6875" y="13.75" width="52.5432" height="60.3917" filterUnits="userSpaceOnUse" color-interpolation-filters="sRGB">
<feFlood flood-opacity="0" result="BackgroundImageFix"/>
<feColorMatrix in="SourceAlpha" type="matrix" values="0 0 0 0 0 0 0 0 0 0 0 0 0 0 0 0 0 0 127 0" result="hardAlpha"/>
<feOffset dy="2"/>
<feGaussianBlur stdDeviation="2"/>
<feComposite in2="hardAlpha" operator="out"/>
<feColorMatrix type="matrix" values="0 0 0 0 0 0 0 0 0 0 0 0 0 0 0 0 0 0 0.25 0"/>
<feBlend mode="normal" in2="BackgroundImageFix" result="effect1_dropShadow_31_1370"/>
<feBlend mode="normal" in="SourceGraphic" in2="effect1_dropShadow_31_1370" result="shape"/>
</filter>
<linearGradient id="paint0_linear_31_1370" x1="0" y1="4259.27" x2="8400" y2="4259.27" gradientUnits="userSpaceOnUse">
<stop stop-color="#FF5500"/>
<stop offset="0.409877" stop-color="#FF5500"/>
<stop offset="0.581981" stop-color="#FF2000"/>
<stop offset="1" stop-color="#FF2000"/>
</linearGradient>
<clipPath id="clip0_31_1370">
<rect width="84" height="84" fill="white"/>
</clipPath>
</defs>
</svg>
