<svg width="84" height="84" viewBox="0 0 84 84" fill="none" xmlns="http://www.w3.org/2000/svg">
<g clip-path="url(#clip0_31_1379)">
<path d="M63 0H21C9.40202 0 0 9.40202 0 21V63C0 74.598 9.40202 84 21 84H63C74.598 84 84 74.598 84 63V21C84 9.40202 74.598 0 63 0Z" fill="url(#paint0_radial_31_1379)"/>
<path d="M63 0H21C9.40202 0 0 9.40202 0 21V63C0 74.598 9.40202 84 21 84H63C74.598 84 84 74.598 84 63V21C84 9.40202 74.598 0 63 0Z" fill="url(#paint1_linear_31_1379)"/>
<g filter="url(#filter0_i_31_1379)">
<path d="M63 5.25H21C12.3015 5.25 5.25 12.3015 5.25 21V63C5.25 71.6985 12.3015 78.75 21 78.75H63C71.6985 78.75 78.75 71.6985 78.75 63V21C78.75 12.3015 71.6985 5.25 63 5.25Z" fill="black" fill-opacity="0.7"/>
<mask id="mask0_31_1379" style="mask-type:luminance" maskUnits="userSpaceOnUse" x="15" y="15" width="54" height="54">
<path d="M68.25 15.75H15.75V68.25H68.25V15.75Z" fill="white"/>
</mask>
<g mask="url(#mask0_31_1379)">
<g filter="url(#filter1_d_31_1379)">
<path d="M41.9965 28.8741H64.726C62.4227 24.8835 59.1094 21.5696 55.1191 19.2656C51.1289 16.9616 46.6024 15.7489 41.9947 15.7491C37.3871 15.7495 32.8608 16.9629 28.8708 19.2674C24.8809 21.572 21.5681 24.8864 19.2654 28.8774L30.6301 48.5616L30.6402 48.559C29.4842 46.5654 28.8741 44.3023 28.8715 41.9977C28.8689 39.6931 29.4739 37.4286 30.6255 35.4324C31.7771 33.4361 33.4347 31.7788 35.431 30.6274C37.4273 29.4761 39.6919 28.8713 41.9965 28.8741Z" fill="url(#paint2_linear_31_1379)"/>
<path d="M53.369 48.56L42.0042 68.2441C46.6119 68.2448 51.1384 67.0327 55.1289 64.7289C59.1193 62.4252 62.4329 59.1115 64.7364 55.121C67.0398 51.1305 68.2526 46.6038 68.2513 41.9962C68.2506 37.3886 67.0366 32.8624 64.7318 28.8727L42.0023 28.8727L41.9995 28.8828C44.3041 28.8784 46.5691 29.4816 48.5662 30.6316C50.5633 31.7817 52.2219 33.4379 53.3749 35.4333C54.5278 37.4287 55.1344 39.6929 55.1334 41.9975C55.1323 44.302 54.5238 46.5656 53.369 48.56Z" fill="url(#paint3_linear_31_1379)"/>
<path d="M30.6343 48.5659L19.2695 28.8816C16.9652 32.8716 15.7518 37.398 15.7517 42.0056C15.7515 46.6133 16.9645 51.1398 19.2686 55.1299C21.5726 59.1201 24.8867 62.4333 28.8774 64.7364C32.8682 67.0392 37.395 68.2513 42.0026 68.25L53.3673 48.5657L53.36 48.5583C52.2115 50.5563 50.5566 52.2162 48.5621 53.3707C46.5676 54.5253 44.3039 55.1336 41.9993 55.1343C39.6948 55.1351 37.4307 54.5284 35.4354 53.3752C33.4401 52.222 31.7841 50.5632 30.6343 48.5659Z" fill="url(#paint4_linear_31_1379)"/>
<path d="M42 55.125C49.2487 55.125 55.125 49.2487 55.125 42C55.125 34.7513 49.2487 28.875 42 28.875C34.7513 28.875 28.875 34.7513 28.875 42C28.875 49.2487 34.7513 55.125 42 55.125Z" fill="white"/>
<path d="M42 52.3907C47.7386 52.3907 52.3906 47.7386 52.3906 42C52.3906 36.2615 47.7386 31.6094 42 31.6094C36.2615 31.6094 31.6094 36.2615 31.6094 42C31.6094 47.7386 36.2615 52.3907 42 52.3907Z" fill="#1A73E8"/>
</g>
</g>
</g>
</g>
<defs>
<filter id="filter0_i_31_1379" x="5.25" y="5.25" width="73.5" height="77.5" filterUnits="userSpaceOnUse" color-interpolation-filters="sRGB">
<feFlood flood-opacity="0" result="BackgroundImageFix"/>
<feBlend mode="normal" in="SourceGraphic" in2="BackgroundImageFix" result="shape"/>
<feColorMatrix in="SourceAlpha" type="matrix" values="0 0 0 0 0 0 0 0 0 0 0 0 0 0 0 0 0 0 127 0" result="hardAlpha"/>
<feOffset dy="4"/>
<feGaussianBlur stdDeviation="2"/>
<feComposite in2="hardAlpha" operator="arithmetic" k2="-1" k3="1"/>
<feColorMatrix type="matrix" values="0 0 0 0 0 0 0 0 0 0 0 0 0 0 0 0 0 0 0.25 0"/>
<feBlend mode="normal" in2="shape" result="effect1_innerShadow_31_1379"/>
</filter>
<filter id="filter1_d_31_1379" x="11.7517" y="13.7491" width="60.4995" height="60.5009" filterUnits="userSpaceOnUse" color-interpolation-filters="sRGB">
<feFlood flood-opacity="0" result="BackgroundImageFix"/>
<feColorMatrix in="SourceAlpha" type="matrix" values="0 0 0 0 0 0 0 0 0 0 0 0 0 0 0 0 0 0 127 0" result="hardAlpha"/>
<feOffset dy="2"/>
<feGaussianBlur stdDeviation="2"/>
<feComposite in2="hardAlpha" operator="out"/>
<feColorMatrix type="matrix" values="0 0 0 0 0 0 0 0 0 0 0 0 0 0 0 0 0 0 0.25 0"/>
<feBlend mode="normal" in2="BackgroundImageFix" result="effect1_dropShadow_31_1379"/>
<feBlend mode="normal" in="SourceGraphic" in2="effect1_dropShadow_31_1379" result="shape"/>
</filter>
<radialGradient id="paint0_radial_31_1379" cx="0" cy="0" r="1" gradientUnits="userSpaceOnUse" gradientTransform="translate(42 42) rotate(135) scale(59.397)">
<stop offset="0.140003" stop-color="#1A73E8"/>
<stop offset="0.373259" stop-color="#DB3327"/>
<stop offset="0.638316" stop-color="#FCC72D"/>
<stop offset="0.896201" stop-color="#209140"/>
</radialGradient>
<linearGradient id="paint1_linear_31_1379" x1="84" y1="0" x2="0" y2="84" gradientUnits="userSpaceOnUse">
<stop stop-color="#1971E5"/>
<stop offset="0.536458" stop-color="#4C8CF4"/>
<stop offset="1" stop-color="#9FC2FA"/>
</linearGradient>
<linearGradient id="paint2_linear_31_1379" x1="61.8904" y1="27.2361" x2="39.1601" y2="66.6061" gradientUnits="userSpaceOnUse">
<stop stop-color="#D93025"/>
<stop offset="1" stop-color="#EA4335"/>
</linearGradient>
<linearGradient id="paint3_linear_31_1379" x1="66.2222" y1="32.1556" x2="20.7614" y2="32.1556" gradientUnits="userSpaceOnUse">
<stop stop-color="#FCC934"/>
<stop offset="1" stop-color="#FBBC04"/>
</linearGradient>
<linearGradient id="paint4_linear_31_1379" x1="44.8415" y1="66.6114" x2="22.1112" y2="27.241" gradientUnits="userSpaceOnUse">
<stop stop-color="#1E8E3E"/>
<stop offset="1" stop-color="#34A853"/>
</linearGradient>
<clipPath id="clip0_31_1379">
<rect width="84" height="84" fill="white"/>
</clipPath>
</defs>
</svg>
