<svg width="84" height="84" viewBox="0 0 84 84" fill="none" xmlns="http://www.w3.org/2000/svg">
<g clip-path="url(#clip0_31_1453)">
<path d="M63 0H21C9.40202 0 0 9.40202 0 21V63C0 74.598 9.40202 84 21 84H63C74.598 84 84 74.598 84 63V21C84 9.40202 74.598 0 63 0Z" fill="url(#paint0_linear_31_1453)"/>
<path d="M63 0H21C9.40202 0 0 9.40202 0 21V63C0 74.598 9.40202 84 21 84H63C74.598 84 84 74.598 84 63V21C84 9.40202 74.598 0 63 0Z" fill="url(#paint1_linear_31_1453)"/>
<g filter="url(#filter0_i_31_1453)">
<path d="M63 5.25H21C12.3015 5.25 5.25 12.3015 5.25 21V63C5.25 71.6985 12.3015 78.75 21 78.75H63C71.6985 78.75 78.75 71.6985 78.75 63V21C78.75 12.3015 71.6985 5.25 63 5.25Z" fill="black" fill-opacity="0.7"/>
<mask id="mask0_31_1453" style="mask-type:luminance" maskUnits="userSpaceOnUse" x="10" y="10" width="64" height="64">
<path d="M73.5 10.5H10.5V73.5H73.5V10.5Z" fill="white"/>
</mask>
<g mask="url(#mask0_31_1453)">
<g filter="url(#filter1_d_31_1453)">
<path d="M19.7639 66.8043L13.2 44.178L53.9759 55.422L49.6259 70.8002L19.7639 66.8043Z" fill="url(#paint2_linear_31_1453)"/>
</g>
<g filter="url(#filter2_d_31_1453)">
<path d="M32.5198 13.272L47.8558 17.664L65.1838 13.2L68.6161 36.96L29.6218 24L32.5198 13.272Z" fill="url(#paint3_linear_31_1453)"/>
</g>
<g filter="url(#filter3_d_31_1453)">
<path d="M70.8001 51.144L68.6161 36.96L33.3359 25.236L13.2719 29.538L13.2 44.178L53.9759 55.422L70.8001 51.144Z" fill="url(#paint4_linear_31_1453)"/>
</g>
<g filter="url(#filter4_d_31_1453)">
<path d="M24 24H60V60H24V24Z" fill="black"/>
</g>
<path d="M28.488 53.1961H41.988V55.4461H28.488V53.1961Z" fill="white"/>
<path d="M28.5 28.452H33.78C38.034 28.452 40.98 31.374 40.98 35.184V35.226C40.98 39.036 38.04 41.994 33.78 41.994H28.5V28.452ZM31.5 31.14V39.3H33.804C34.345 39.3319 34.8868 39.2494 35.3938 39.0579C35.9008 38.8665 36.3618 38.5703 36.7467 38.1887C37.1317 37.8072 37.4319 37.3489 37.6278 36.8436C37.8238 36.3382 37.9111 35.7973 37.884 35.256V35.22C37.9115 34.6767 37.8248 34.1336 37.6296 33.6258C37.4343 33.1181 37.1349 32.6568 36.7505 32.2719C36.3661 31.8869 35.9053 31.5867 35.3978 31.3908C34.8903 31.1948 34.3474 31.1073 33.804 31.134L31.5 31.14Z" fill="white"/>
<path d="M42.0061 28.458H45.2161L48.7801 34.1881L52.3381 28.464H55.5481V42.006H52.5841L52.5901 33.162L48.7801 38.946H48.6961L44.9281 33.2221V42.0001H42.0061V28.458Z" fill="white"/>
</g>
</g>
</g>
<defs>
<filter id="filter0_i_31_1453" x="5.25" y="5.25" width="73.5" height="77.5" filterUnits="userSpaceOnUse" color-interpolation-filters="sRGB">
<feFlood flood-opacity="0" result="BackgroundImageFix"/>
<feBlend mode="normal" in="SourceGraphic" in2="BackgroundImageFix" result="shape"/>
<feColorMatrix in="SourceAlpha" type="matrix" values="0 0 0 0 0 0 0 0 0 0 0 0 0 0 0 0 0 0 127 0" result="hardAlpha"/>
<feOffset dy="4"/>
<feGaussianBlur stdDeviation="2"/>
<feComposite in2="hardAlpha" operator="arithmetic" k2="-1" k3="1"/>
<feColorMatrix type="matrix" values="0 0 0 0 0 0 0 0 0 0 0 0 0 0 0 0 0 0 0.25 0"/>
<feBlend mode="normal" in2="shape" result="effect1_innerShadow_31_1453"/>
</filter>
<filter id="filter1_d_31_1453" x="9.19995" y="42.178" width="48.7759" height="34.6223" filterUnits="userSpaceOnUse" color-interpolation-filters="sRGB">
<feFlood flood-opacity="0" result="BackgroundImageFix"/>
<feColorMatrix in="SourceAlpha" type="matrix" values="0 0 0 0 0 0 0 0 0 0 0 0 0 0 0 0 0 0 127 0" result="hardAlpha"/>
<feOffset dy="2"/>
<feGaussianBlur stdDeviation="2"/>
<feComposite in2="hardAlpha" operator="out"/>
<feColorMatrix type="matrix" values="0 0 0 0 0 0 0 0 0 0 0 0 0 0 0 0 0 0 0.25 0"/>
<feBlend mode="normal" in2="BackgroundImageFix" result="effect1_dropShadow_31_1453"/>
<feBlend mode="normal" in="SourceGraphic" in2="effect1_dropShadow_31_1453" result="shape"/>
</filter>
<filter id="filter2_d_31_1453" x="25.6218" y="11.2" width="46.9941" height="31.76" filterUnits="userSpaceOnUse" color-interpolation-filters="sRGB">
<feFlood flood-opacity="0" result="BackgroundImageFix"/>
<feColorMatrix in="SourceAlpha" type="matrix" values="0 0 0 0 0 0 0 0 0 0 0 0 0 0 0 0 0 0 127 0" result="hardAlpha"/>
<feOffset dy="2"/>
<feGaussianBlur stdDeviation="2"/>
<feComposite in2="hardAlpha" operator="out"/>
<feColorMatrix type="matrix" values="0 0 0 0 0 0 0 0 0 0 0 0 0 0 0 0 0 0 0.25 0"/>
<feBlend mode="normal" in2="BackgroundImageFix" result="effect1_dropShadow_31_1453"/>
<feBlend mode="normal" in="SourceGraphic" in2="effect1_dropShadow_31_1453" result="shape"/>
</filter>
<filter id="filter3_d_31_1453" x="9.19995" y="23.236" width="65.6001" height="38.186" filterUnits="userSpaceOnUse" color-interpolation-filters="sRGB">
<feFlood flood-opacity="0" result="BackgroundImageFix"/>
<feColorMatrix in="SourceAlpha" type="matrix" values="0 0 0 0 0 0 0 0 0 0 0 0 0 0 0 0 0 0 127 0" result="hardAlpha"/>
<feOffset dy="2"/>
<feGaussianBlur stdDeviation="2"/>
<feComposite in2="hardAlpha" operator="out"/>
<feColorMatrix type="matrix" values="0 0 0 0 0 0 0 0 0 0 0 0 0 0 0 0 0 0 0.25 0"/>
<feBlend mode="normal" in2="BackgroundImageFix" result="effect1_dropShadow_31_1453"/>
<feBlend mode="normal" in="SourceGraphic" in2="effect1_dropShadow_31_1453" result="shape"/>
</filter>
<filter id="filter4_d_31_1453" x="20" y="22" width="44" height="44.0001" filterUnits="userSpaceOnUse" color-interpolation-filters="sRGB">
<feFlood flood-opacity="0" result="BackgroundImageFix"/>
<feColorMatrix in="SourceAlpha" type="matrix" values="0 0 0 0 0 0 0 0 0 0 0 0 0 0 0 0 0 0 127 0" result="hardAlpha"/>
<feOffset dy="2"/>
<feGaussianBlur stdDeviation="2"/>
<feComposite in2="hardAlpha" operator="out"/>
<feColorMatrix type="matrix" values="0 0 0 0 0 0 0 0 0 0 0 0 0 0 0 0 0 0 0.25 0"/>
<feBlend mode="normal" in2="BackgroundImageFix" result="effect1_dropShadow_31_1453"/>
<feBlend mode="normal" in="SourceGraphic" in2="effect1_dropShadow_31_1453" result="shape"/>
</filter>
<linearGradient id="paint0_linear_31_1453" x1="42" y1="0" x2="42" y2="84" gradientUnits="userSpaceOnUse">
<stop stop-color="#3BEA62"/>
<stop offset="0.510417" stop-color="#087DF7"/>
<stop offset="1" stop-color="#6B57FF"/>
</linearGradient>
<linearGradient id="paint1_linear_31_1453" x1="56.3662" y1="104.045" x2="8.463" y2="20.4038" gradientUnits="userSpaceOnUse">
<stop stop-color="#6B57FF"/>
<stop offset="0.14" stop-color="#8953FB"/>
<stop offset="0.44" stop-color="#D64AF2"/>
<stop offset="0.59" stop-color="#FF45ED"/>
<stop offset="0.97" stop-color="#FDB60D"/>
</linearGradient>
<linearGradient id="paint2_linear_31_1453" x1="28.6319" y1="29.07" x2="38.484" y2="70.2903" gradientUnits="userSpaceOnUse">
<stop stop-color="#6B57FF"/>
<stop offset="0.13" stop-color="#9A51F9"/>
<stop offset="0.27" stop-color="#C64CF4"/>
<stop offset="0.39" stop-color="#E548F0"/>
<stop offset="0.5" stop-color="#F846EE"/>
<stop offset="0.57" stop-color="#FF45ED"/>
<stop offset="0.63" stop-color="#FF57C9"/>
<stop offset="0.81" stop-color="#FE8A65"/>
<stop offset="0.94" stop-color="#FDAA26"/>
<stop offset="1" stop-color="#FDB60D"/>
</linearGradient>
<linearGradient id="paint3_linear_31_1453" x1="55.7878" y1="42.63" x2="46.0138" y2="14.622" gradientUnits="userSpaceOnUse">
<stop stop-color="#6B57FF"/>
<stop offset="0.14" stop-color="#8953FB"/>
<stop offset="0.44" stop-color="#D64AF2"/>
<stop offset="0.59" stop-color="#FF45ED"/>
<stop offset="0.97" stop-color="#FDB60D"/>
</linearGradient>
<linearGradient id="paint4_linear_31_1453" x1="34.8839" y1="57.306" x2="42.9959" y2="38.07" gradientUnits="userSpaceOnUse">
<stop offset="0.12" stop-color="#FF45ED"/>
<stop offset="0.2" stop-color="#DF49F1"/>
<stop offset="0.3" stop-color="#BC4DF5"/>
<stop offset="0.42" stop-color="#9E51F9"/>
<stop offset="0.53" stop-color="#8854FC"/>
<stop offset="0.66" stop-color="#7855FD"/>
<stop offset="0.81" stop-color="#6E57FF"/>
<stop offset="1" stop-color="#6B57FF"/>
</linearGradient>
<clipPath id="clip0_31_1453">
<rect width="84" height="84" fill="white"/>
</clipPath>
</defs>
</svg>
