<svg width="84" height="84" viewBox="0 0 84 84" fill="none" xmlns="http://www.w3.org/2000/svg">
<g clip-path="url(#clip0_31_1532)">
<path d="M63 0H21C9.40202 0 0 9.40202 0 21V63C0 74.598 9.40202 84 21 84H63C74.598 84 84 74.598 84 63V21C84 9.40202 74.598 0 63 0Z" fill="url(#paint0_linear_31_1532)"/>
<g filter="url(#filter0_i_31_1532)">
<path d="M63 5.25H21C12.3015 5.25 5.25 12.3015 5.25 21V63C5.25 71.6985 12.3015 78.75 21 78.75H63C71.6985 78.75 78.75 71.6985 78.75 63V21C78.75 12.3015 71.6985 5.25 63 5.25Z" fill="black" fill-opacity="0.7"/>
<g filter="url(#filter1_d_31_1532)">
<path d="M19.6874 20.9999C17.3258 20.9999 15.75 22.5782 15.75 24.9374V59.062C15.75 61.4211 17.336 62.9994 19.6874 62.9994H64.3119C65.7405 62.9994 68.2493 61.4247 68.2493 59.062V24.9374C68.2493 22.5746 66.6684 20.9999 64.3119 20.9999H19.6874ZM30.1873 36.7497C32.362 36.7497 34.1247 38.5125 34.1247 40.6872C34.1247 42.8619 32.362 44.6246 30.1873 44.6246C28.0127 44.6246 26.2499 42.8619 26.2499 40.6872C26.2499 38.5125 28.0127 36.7497 30.1873 36.7497ZM53.812 36.7497C55.9867 36.7497 57.7495 38.5125 57.7495 40.6872C57.7495 42.8619 55.9867 44.6246 53.812 44.6246C51.6374 44.6246 49.8745 42.8619 49.8745 40.6872C49.8745 38.5125 51.6374 36.7497 53.812 36.7497Z" fill="#141414"/>
<path d="M19.6855 27.5929L19.6856 49.9053C19.6856 51.2171 20.9982 52.5303 22.3105 52.5303H61.6855C62.9986 52.5303 64.3105 51.2236 64.3105 49.9053V27.5929C64.3105 26.2821 63.004 24.9679 61.6855 24.9679H22.3105C20.9964 24.9679 19.6855 26.2753 19.6855 27.5929ZM30.1857 36.7805C32.3604 36.7805 34.1232 38.5433 34.1232 40.718C34.1232 42.8926 32.3604 44.6555 30.1857 44.6555C28.0111 44.6555 26.2482 42.8926 26.2482 40.718C26.2482 38.5433 28.0111 36.7805 30.1857 36.7805ZM53.8107 36.7805C55.9854 36.7805 57.7482 38.5433 57.7482 40.718C57.7482 42.8926 55.9854 44.6555 53.8107 44.6555C51.6361 44.6555 49.8732 42.8926 49.8732 40.718C49.8732 38.5433 51.6361 36.7805 53.8107 36.7805Z" fill="#58BEB1"/>
<path d="M19.6873 63.0332L24.9371 53.8455H59.0623L64.3121 63.0332H19.6873Z" fill="#3F3F3F"/>
<path d="M30.1887 60.3998C31.6384 60.3998 32.8137 59.2247 32.8137 57.7749C32.8137 56.3252 31.6384 55.1498 30.1887 55.1498C28.7389 55.1498 27.5637 56.3252 27.5637 57.7749C27.5637 59.2247 28.7389 60.3998 30.1887 60.3998Z" fill="#141414"/>
<path d="M53.8113 60.3998C55.2611 60.3998 56.4363 59.2247 56.4363 57.7749C56.4363 56.3252 55.2611 55.1498 53.8113 55.1498C52.3616 55.1498 51.1863 56.3252 51.1863 57.7749C51.1863 59.2247 52.3616 60.3998 53.8113 60.3998Z" fill="#141414"/>
<path d="M30.189 35.4521C27.2996 35.4521 24.9387 37.8164 24.9387 40.6983C24.9387 43.5872 27.2951 45.9482 30.189 45.9482H53.8141C56.6951 45.9482 59.0639 43.5895 59.0639 40.7058V40.6959C59.0639 37.8122 56.6952 35.4455 53.8141 35.446L30.189 35.4521ZM30.189 36.7607C32.3637 36.7607 34.1265 38.5236 34.1265 40.6982C34.1265 42.8728 32.3637 44.6357 30.189 44.6357C28.0144 44.6357 26.2515 42.8728 26.2515 40.6982C26.2515 38.5236 28.0144 36.7607 30.189 36.7607ZM53.8141 36.7607C55.9887 36.7607 57.7516 38.5236 57.7516 40.6982C57.7516 42.8728 55.9887 44.6357 53.8141 44.6357C51.6394 44.6357 49.8766 42.8728 49.8766 40.6982C49.8766 38.5236 51.6394 36.7607 53.8141 36.7607Z" fill="#141414"/>
<path d="M48.5624 38.0811H35.4375V43.3309H48.5624V38.0811Z" fill="#DBE2E3"/>
</g>
</g>
</g>
<defs>
<filter id="filter0_i_31_1532" x="5.25" y="5.25" width="73.5" height="77.5" filterUnits="userSpaceOnUse" color-interpolation-filters="sRGB">
<feFlood flood-opacity="0" result="BackgroundImageFix"/>
<feBlend mode="normal" in="SourceGraphic" in2="BackgroundImageFix" result="shape"/>
<feColorMatrix in="SourceAlpha" type="matrix" values="0 0 0 0 0 0 0 0 0 0 0 0 0 0 0 0 0 0 127 0" result="hardAlpha"/>
<feOffset dy="4"/>
<feGaussianBlur stdDeviation="2"/>
<feComposite in2="hardAlpha" operator="arithmetic" k2="-1" k3="1"/>
<feColorMatrix type="matrix" values="0 0 0 0 0 0 0 0 0 0 0 0 0 0 0 0 0 0 0.25 0"/>
<feBlend mode="normal" in2="shape" result="effect1_innerShadow_31_1532"/>
</filter>
<filter id="filter1_d_31_1532" x="11.75" y="18.9999" width="60.4993" height="50.0332" filterUnits="userSpaceOnUse" color-interpolation-filters="sRGB">
<feFlood flood-opacity="0" result="BackgroundImageFix"/>
<feColorMatrix in="SourceAlpha" type="matrix" values="0 0 0 0 0 0 0 0 0 0 0 0 0 0 0 0 0 0 127 0" result="hardAlpha"/>
<feOffset dy="2"/>
<feGaussianBlur stdDeviation="2"/>
<feComposite in2="hardAlpha" operator="out"/>
<feColorMatrix type="matrix" values="0 0 0 0 0 0 0 0 0 0 0 0 0 0 0 0 0 0 0.25 0"/>
<feBlend mode="normal" in2="BackgroundImageFix" result="effect1_dropShadow_31_1532"/>
<feBlend mode="normal" in="SourceGraphic" in2="effect1_dropShadow_31_1532" result="shape"/>
</filter>
<linearGradient id="paint0_linear_31_1532" x1="41.7446" y1="84.0643" x2="41.7446" y2="-0.0544055" gradientUnits="userSpaceOnUse">
<stop stop-color="#2CA0B9"/>
<stop offset="1" stop-color="#87DEAA"/>
</linearGradient>
<clipPath id="clip0_31_1532">
<rect width="84" height="84" fill="white"/>
</clipPath>
</defs>
</svg>
