<svg width="84" height="84" viewBox="0 0 84 84" fill="none" xmlns="http://www.w3.org/2000/svg">
<g clip-path="url(#clip0_31_1550)">
<path d="M63 0H21C9.40202 0 0 9.40202 0 21V63C0 74.598 9.40202 84 21 84H63C74.598 84 84 74.598 84 63V21C84 9.40202 74.598 0 63 0Z" fill="url(#paint0_linear_31_1550)"/>
<g filter="url(#filter0_i_31_1550)">
<path d="M63 5.25H21C12.3015 5.25 5.25 12.3015 5.25 21V63C5.25 71.6985 12.3015 78.75 21 78.75H63C71.6985 78.75 78.75 71.6985 78.75 63V21C78.75 12.3015 71.6985 5.25 63 5.25Z" fill="black" fill-opacity="0.7"/>
<path d="M42.2949 67.5176C56.5928 67.5176 68.1837 55.929 68.1837 41.6338C68.1837 27.3386 56.5928 15.75 42.2949 15.75C27.997 15.75 16.4062 27.3386 16.4062 41.6338C16.4062 55.929 27.997 67.5176 42.2949 67.5176Z" fill="url(#paint1_linear_31_1550)"/>
<path opacity="0.4" d="M62.0012 35.7092L39.3565 25.8838L27.9927 26.519L34.1764 32.7665L23.2141 47.4403L25.2564 49.5088L27.7014 53.4463L27.0966 62.5563C27.4348 62.8041 27.779 63.0434 28.1287 63.2743L58.8245 61.5155L58.8297 61.5208C64.6547 56.6803 68.0668 49.5324 68.1679 41.9593L62.0012 35.7092Z" fill="url(#paint2_linear_31_1550)"/>
<path fill-rule="evenodd" clip-rule="evenodd" d="M25.4507 66.9388C25.4507 66.9388 33.5407 38.1124 65.033 41.7782C65.033 41.7782 45.0184 29.6795 25.5893 45.99C19.8497 59.5245 25.4507 66.9388 25.4507 66.9388Z" fill="url(#paint3_linear_31_1550)"/>
<path fill-rule="evenodd" clip-rule="evenodd" d="M27.8596 63.2927C27.8596 63.2927 36.3006 42.5683 58.8339 42.2048C41.706 46.4533 58.8624 61.5169 58.8624 61.5169C58.8624 61.5169 45.3139 74.0158 27.8596 63.2927Z" fill="url(#paint4_linear_31_1550)"/>
<path fill-rule="evenodd" clip-rule="evenodd" d="M23.1587 47.4062C23.1587 47.4062 40.0198 28.5219 65.1988 41.5695C64.7481 38.0205 61.7696 34.0147 56.4315 32.8702C55.2505 32.298 46.5959 18.6782 27.993 26.5177C33.7157 26.9719 36.171 27.7882 36.3109 28.4077C26.413 26.6752 23.4798 41.0156 23.1587 47.4062Z" fill="url(#paint5_linear_31_1550)"/>
<path fill-rule="evenodd" clip-rule="evenodd" d="M47.3403 31.3858C47.3403 31.3858 51.6541 29.8134 52.2161 34.4925C47.9619 34.8994 47.3403 31.3858 47.3403 31.3858Z" fill="#202020"/>
<path fill-rule="evenodd" clip-rule="evenodd" d="M25.3383 67.0307C25.3383 67.0307 32.7121 42.5368 57.3693 41.5879C57.3693 41.5879 37.3613 37.8709 23.2301 60.6637C23.1524 63.8886 25.3383 67.032 25.3383 67.032V67.0307Z" fill="#FDD664"/>
<path fill-rule="evenodd" clip-rule="evenodd" d="M28.0125 26.5204C28.0125 26.5204 34.1638 26.8853 36.3588 28.4235C37.2757 28.2306 38.0554 27.5914 38.1862 26.7212C37.4 26.3891 30.1998 25.7933 28.0138 26.5204H28.0125Z" fill="url(#paint6_linear_31_1550)"/>
<path fill-rule="evenodd" clip-rule="evenodd" d="M28.0125 26.5204C28.0125 26.5204 34.1638 26.8853 36.3588 28.4235C37.2757 28.2306 38.0554 27.5914 38.1862 26.7212C37.4 26.3891 30.1998 25.7933 28.0138 26.5204H28.0125Z" fill="#FDD664"/>
<path fill-rule="evenodd" clip-rule="evenodd" d="M23.2144 47.439C23.2144 47.439 30.9146 38.0218 46.4573 36.897C46.4573 36.897 25.2967 37.8708 23.5226 43.9543C23.0279 45.4177 23.2144 47.439 23.2144 47.439Z" fill="#FDD664"/>
</g>
</g>
<defs>
<filter id="filter0_i_31_1550" x="5.25" y="5.25" width="73.5" height="77.5" filterUnits="userSpaceOnUse" color-interpolation-filters="sRGB">
<feFlood flood-opacity="0" result="BackgroundImageFix"/>
<feBlend mode="normal" in="SourceGraphic" in2="BackgroundImageFix" result="shape"/>
<feColorMatrix in="SourceAlpha" type="matrix" values="0 0 0 0 0 0 0 0 0 0 0 0 0 0 0 0 0 0 127 0" result="hardAlpha"/>
<feOffset dy="4"/>
<feGaussianBlur stdDeviation="2"/>
<feComposite in2="hardAlpha" operator="arithmetic" k2="-1" k3="1"/>
<feColorMatrix type="matrix" values="0 0 0 0 0 0 0 0 0 0 0 0 0 0 0 0 0 0 0.25 0"/>
<feBlend mode="normal" in2="shape" result="effect1_innerShadow_31_1550"/>
</filter>
<linearGradient id="paint0_linear_31_1550" x1="126.131" y1="-23.2191" x2="-18.6111" y2="83.9652" gradientUnits="userSpaceOnUse">
<stop stop-color="#D446FF"/>
<stop offset="1" stop-color="#A0D8FF"/>
</linearGradient>
<linearGradient id="paint1_linear_31_1550" x1="94.1535" y1="1.44051" x2="4.94637" y2="67.5124" gradientUnits="userSpaceOnUse">
<stop stop-color="#D446FF"/>
<stop offset="1" stop-color="#A0D8FF"/>
</linearGradient>
<linearGradient id="paint2_linear_31_1550" x1="41.9466" y1="41.6338" x2="68.1941" y2="67.532" gradientUnits="userSpaceOnUse">
<stop stop-color="#292C2F"/>
<stop offset="1" stop-opacity="0"/>
</linearGradient>
<linearGradient id="paint3_linear_31_1550" x1="40.5741" y1="43.6119" x2="58.8807" y2="29.4513" gradientUnits="userSpaceOnUse">
<stop stop-color="white"/>
<stop offset="1" stop-color="#DADADA"/>
</linearGradient>
<linearGradient id="paint4_linear_31_1550" x1="44.0672" y1="60.1484" x2="32.1498" y2="42.1655" gradientUnits="userSpaceOnUse">
<stop stop-color="white"/>
<stop offset="1" stop-color="#DADADA"/>
</linearGradient>
<linearGradient id="paint5_linear_31_1550" x1="64.6446" y1="27.1232" x2="45.1043" y2="42.605" gradientUnits="userSpaceOnUse">
<stop stop-color="#D0D0D0"/>
<stop offset="1" stop-color="white"/>
</linearGradient>
<linearGradient id="paint6_linear_31_1550" x1="37.7498" y1="26.228" x2="33.6817" y2="31.8417" gradientUnits="userSpaceOnUse">
<stop stop-color="#FFDC68"/>
<stop offset="1" stop-color="#CE4300"/>
</linearGradient>
<clipPath id="clip0_31_1550">
<rect width="84" height="84" fill="white"/>
</clipPath>
</defs>
</svg>
