<svg width="84" height="84" viewBox="0 0 84 84" fill="none" xmlns="http://www.w3.org/2000/svg">
<g clip-path="url(#clip0_31_1564)">
<path d="M63 0H21C9.40202 0 0 9.40202 0 21V63C0 74.598 9.40202 84 21 84H63C74.598 84 84 74.598 84 63V21C84 9.40202 74.598 0 63 0Z" fill="url(#paint0_linear_31_1564)"/>
<g filter="url(#filter0_i_31_1564)">
<path d="M63 5.25H21C12.3015 5.25 5.25 12.3015 5.25 21V63C5.25 71.6985 12.3015 78.75 21 78.75H63C71.6985 78.75 78.75 71.6985 78.75 63V21C78.75 12.3015 71.6985 5.25 63 5.25Z" fill="black" fill-opacity="0.7"/>
<g filter="url(#filter1_d_31_1564)">
<path d="M65.3149 33.5191C64.2216 30.9069 62.0037 28.0865 60.2669 27.1949C61.5054 29.5762 62.365 32.1336 62.8153 34.7762L62.8198 34.8181C59.9748 27.7784 55.1521 24.9354 51.2112 18.753C51.0119 18.4403 50.8125 18.127 50.6184 17.7963C50.5074 17.6074 50.4184 17.4372 50.3412 17.2805C50.1778 16.9663 50.0518 16.6342 49.9659 16.291C49.966 16.2752 49.9602 16.2598 49.9497 16.2479C49.9391 16.236 49.9246 16.2284 49.9088 16.2265C49.8932 16.2223 49.8769 16.2223 49.8614 16.2265C49.8581 16.2265 49.8529 16.2323 49.849 16.2336C49.8451 16.2349 49.8367 16.2407 49.8309 16.2433L49.8406 16.2265C43.5201 19.9011 41.3743 26.7024 41.1795 30.1062C38.6545 30.2782 36.2403 31.2017 34.2519 32.7565C34.0446 32.582 33.8279 32.4189 33.6027 32.2678C33.0294 30.2751 33.0049 28.1661 33.5319 26.1608C31.2108 27.2773 29.1483 28.8601 27.4751 30.8089H27.4634C26.4661 29.5538 26.5362 25.415 26.5934 24.5505C26.2983 24.6682 26.0167 24.8166 25.7532 24.9934C24.8728 25.6173 24.0498 26.3173 23.2938 27.0853C22.4324 27.9526 21.6455 28.89 20.9416 29.8877C19.324 32.1644 18.1765 34.7361 17.5655 37.4555L17.5317 37.6205C17.4843 37.8403 17.3135 38.9414 17.2843 39.1806C17.2843 39.1993 17.2805 39.2167 17.2785 39.2354C17.0582 40.3722 16.9218 41.5234 16.8701 42.6798V42.8088C16.8812 49.0611 19.2526 55.0822 23.5161 59.6833C27.7796 64.2844 33.6254 67.1311 39.8996 67.662C46.1736 68.1923 52.4202 66.3686 57.406 62.5494C62.3917 58.7305 65.7543 53.1944 66.8306 47.0339C66.8726 46.7116 66.9067 46.3925 66.9447 46.0669C67.4625 41.8134 66.9014 37.4986 65.3123 33.5152L65.3149 33.5191ZM36.3127 53.0784C36.4302 53.1345 36.5406 53.1951 36.6614 53.2485L36.6789 53.2595C36.5568 53.2015 36.4348 53.1411 36.3127 53.0784ZM62.8205 34.8252V34.8014L62.825 34.8278L62.8205 34.8252Z" fill="url(#paint1_linear_31_1564)"/>
</g>
<path d="M65.3149 33.5191C64.2215 30.9069 62.0037 28.0865 60.2669 27.1949C61.5054 29.5762 62.365 32.1336 62.8152 34.7762V34.8L62.8198 34.8265C64.7596 40.3378 64.4791 46.3803 62.0368 51.6911C59.1528 57.8354 52.1746 64.1332 41.2476 63.8237C29.4441 63.4917 19.0431 54.7919 17.1018 43.4006C16.748 41.6039 17.1018 40.693 17.2798 39.2328C17.0371 40.367 16.9016 41.5213 16.8752 42.6805V42.8094C16.8863 49.0618 19.2578 55.0828 23.5212 59.6839C27.7847 64.2851 33.6306 67.1318 39.9047 67.6627C46.1788 68.1929 52.4253 66.3692 57.4111 62.55C62.3968 58.7311 65.7596 53.195 66.8352 47.0346C66.8778 46.7122 66.9119 46.3931 66.95 46.0676C67.4678 41.814 66.9067 37.4993 65.3175 33.5159L65.3149 33.5191Z" fill="url(#paint2_radial_31_1564)"/>
<path d="M53.0828 36.4524C53.1374 36.4905 53.188 36.5285 53.2393 36.5665C52.6073 35.4536 51.8204 34.4347 50.902 33.5398C43.0784 25.7715 48.8523 16.7011 49.8255 16.2369L49.8353 16.2227C43.5148 19.8973 41.369 26.6986 41.1742 30.1024C41.4677 30.0825 41.7585 30.0579 42.0585 30.0579C44.3009 30.0622 46.5022 30.6561 48.4386 31.779C50.375 32.9019 51.9773 34.5139 53.0828 36.4511V36.4524Z" fill="#FF980E"/>
<path d="M42.0715 38.006C42.03 38.6275 39.8186 40.771 39.0454 40.771C31.8905 40.771 30.7284 45.069 30.7284 45.069C31.0452 48.6881 33.5851 51.6704 36.6554 53.2434C36.7957 53.3156 36.9379 53.3807 37.08 53.4445C37.3263 53.5528 37.5726 53.653 37.8189 53.7449C38.8727 54.1152 39.9763 54.3266 41.0931 54.3722C53.6367 54.9563 56.065 39.4803 47.0137 34.987C49.1488 34.7112 51.311 35.2324 53.081 36.4498C51.9755 34.5125 50.373 32.9005 48.4367 31.7776C46.5003 30.6547 44.2991 30.0608 42.0566 30.0566C41.7579 30.0566 41.4658 30.0811 41.1724 30.1011C38.6474 30.2729 36.2331 31.1965 34.2448 32.7513C34.6285 33.0736 35.0615 33.5043 35.9737 34.3971C37.6813 36.0674 42.0605 37.7978 42.0702 38.0008L42.0715 38.006Z" fill="#6B3DD7"/>
<path d="M33.0729 31.9267C33.2767 32.0557 33.4449 32.1678 33.5923 32.269C33.019 30.2763 32.9946 28.1674 33.5215 26.1621C31.2004 27.2785 29.1378 28.8613 27.4646 30.8102C27.5873 30.8069 31.2374 30.7418 33.0729 31.9267Z" fill="#FF7139"/>
<path d="M65.3149 33.5191C64.2215 30.9069 62.0037 28.0865 60.2669 27.1949C61.5054 29.5762 62.365 32.1336 62.8152 34.7762V34.8L62.8198 34.8265C64.7596 40.3378 64.4791 46.3803 62.0368 51.691C59.1528 57.8353 52.1746 64.1331 41.2476 63.8237C29.4441 63.4917 19.0431 54.7919 17.1018 43.4006C16.748 41.6039 17.1018 40.693 17.2798 39.2328C17.0371 40.367 16.9016 41.5213 16.8752 42.6805V42.8094C16.8863 49.0618 19.2578 55.0828 23.5212 59.6839C27.7847 64.285 33.6306 67.1318 39.9047 67.6627C46.1788 68.1929 52.4253 66.3692 57.4111 62.55C62.3968 58.7311 65.7596 53.195 66.8352 47.0346C66.8778 46.7122 66.9119 46.3931 66.95 46.0676C67.4678 41.814 66.9067 37.4992 65.3175 33.5159L65.3149 33.5191Z" fill="#FF3647"/>
<path d="M65.3149 33.5191C64.2215 30.9069 62.0037 28.0865 60.2669 27.1949C61.5054 29.5762 62.365 32.1336 62.8152 34.7762V34.8L62.8198 34.8265C64.7596 40.3378 64.4791 46.3803 62.0368 51.691C59.1528 57.8353 52.1746 64.1331 41.2476 63.8237C29.4441 63.4917 19.0431 54.7919 17.1018 43.4006C16.748 41.6039 17.1018 40.693 17.2798 39.2328C17.0371 40.367 16.9016 41.5213 16.8752 42.6805V42.8094C16.8863 49.0618 19.2578 55.0828 23.5212 59.6839C27.7847 64.285 33.6306 67.1318 39.9047 67.6627C46.1788 68.1929 52.4253 66.3692 57.4111 62.55C62.3968 58.7311 65.7596 53.195 66.8352 47.0346C66.8778 46.7122 66.9119 46.3931 66.95 46.0676C67.4678 41.814 66.9067 37.4992 65.3175 33.5159L65.3149 33.5191Z" fill="black" fill-opacity="0.2"/>
<path d="M65.3149 33.5191C64.2215 30.9069 62.0037 28.0865 60.2669 27.1949C61.5054 29.5762 62.365 32.1336 62.8152 34.7762V34.8L62.8198 34.8265C64.7596 40.3378 64.4791 46.3803 62.0368 51.691C59.1528 57.8353 52.1746 64.1331 41.2476 63.8237C29.4441 63.4917 19.0431 54.7919 17.1018 43.4006C16.748 41.6039 17.1018 40.693 17.2798 39.2328C17.0371 40.367 16.9016 41.5213 16.8752 42.6805V42.8094C16.8863 49.0618 19.2578 55.0828 23.5212 59.6839C27.7847 64.285 33.6306 67.1318 39.9047 67.6627C46.1788 68.1929 52.4253 66.3692 57.4111 62.55C62.3968 58.7311 65.7596 53.195 66.8352 47.0346C66.8778 46.7122 66.9119 46.3931 66.95 46.0676C67.4678 41.814 66.9067 37.4992 65.3175 33.5159L65.3149 33.5191Z" fill="#FF5634"/>
<path d="M17.0972 43.4019C19.0391 54.7932 29.4395 63.4962 41.243 63.825C52.17 64.1319 59.1495 57.8334 62.0322 51.6923C64.4745 46.3816 64.755 40.3391 62.8151 34.8278V34.8039C62.8151 34.7852 62.8113 34.7743 62.8151 34.7801L62.8197 34.822C63.7124 40.6092 60.7479 46.2133 56.1129 50.0103L56.0986 50.0426C47.0674 57.3467 38.4259 54.4483 36.6794 53.2659C36.5573 53.2079 36.4353 53.1475 36.3132 53.0848C31.0484 50.5861 28.8727 45.8258 29.3402 41.7386C28.0905 41.757 26.8622 41.415 25.8042 40.7542C24.7462 40.0934 23.9039 39.1421 23.3794 38.0157C24.7615 37.175 26.3374 36.6997 27.957 36.6352C29.5765 36.5706 31.1857 36.9189 32.6313 37.6469C35.6109 38.9898 39.0013 39.1222 42.0779 38.0157C42.0682 37.8126 37.689 36.0816 35.9814 34.4119C35.0692 33.5191 34.6362 33.0891 34.2525 32.7661C34.0451 32.5917 33.8284 32.4286 33.6032 32.2775C33.4539 32.1762 33.2857 32.0666 33.0838 31.9351C31.2483 30.7503 27.5983 30.8154 27.4775 30.8186H27.4658C26.4685 29.5634 26.5387 25.4247 26.5958 24.5601C26.3008 24.6779 26.0191 24.8263 25.7557 25.003C24.8753 25.6269 24.0523 26.3269 23.2963 27.0949C22.4317 27.9598 21.6416 28.895 20.9343 29.8909C19.3167 32.1676 18.1693 34.7393 17.5582 37.4586C17.5458 37.5096 16.6518 41.3905 17.0926 43.4032L17.0972 43.4019Z" fill="#FF5634"/>
<path d="M50.9014 33.5384C51.8201 34.4343 52.6069 35.4543 53.2387 36.5683C53.377 36.6721 53.5062 36.7753 53.6159 36.8752C59.3209 42.097 56.3318 49.4785 56.1091 50.0006C60.7435 46.2094 63.7053 40.6014 62.8158 34.8123C59.9696 27.766 55.1417 24.923 51.2072 18.7406C51.0079 18.428 50.8086 18.1147 50.6145 17.784C50.5034 17.5951 50.4144 17.4249 50.3372 17.2682C50.1738 16.954 50.0478 16.6219 49.9619 16.2787C49.962 16.2628 49.9563 16.2475 49.9457 16.2356C49.9352 16.2237 49.9206 16.2161 49.9048 16.2142C49.8893 16.21 49.8729 16.21 49.8574 16.2142C49.8541 16.2142 49.8489 16.22 49.8451 16.2213C49.8412 16.2226 49.8327 16.2284 49.8269 16.2309C48.8537 16.6893 43.0811 25.7656 50.9046 33.5275L50.9014 33.5384Z" fill="#FFF44F"/>
<path d="M53.6153 36.8778C53.5056 36.7779 53.3764 36.6747 53.2381 36.571C53.1868 36.5329 53.1362 36.4948 53.0817 36.4568C51.3117 35.2395 49.1495 34.7182 47.0144 34.9941C56.065 39.4874 53.6368 54.9595 41.0938 54.3793C39.977 54.3337 38.8733 54.1222 37.8196 53.752C37.5733 53.6604 37.3271 53.5604 37.0808 53.4516C36.9386 53.3871 36.7964 53.3227 36.6561 53.2505L36.6736 53.2614C38.4228 54.4469 47.0618 57.3434 56.0929 50.0381L56.1072 50.0058C56.3325 49.4837 59.3216 42.1022 53.614 36.8804L53.6153 36.8778Z" fill="#FF980E"/>
<path d="M30.729 45.0651C30.729 45.0651 31.8905 40.7671 39.0459 40.7671C39.8192 40.7671 42.0325 38.6235 42.0721 38.0021C38.9955 39.1086 35.605 38.9763 32.6255 37.6333C31.1799 36.9054 29.5707 36.5571 27.9511 36.6216C26.3316 36.6862 24.7557 37.1614 23.3735 38.0021C23.8981 39.1286 24.7404 40.0798 25.7984 40.7407C26.8563 41.4015 28.0846 41.7434 29.3344 41.7251C28.8682 45.8103 31.0432 50.5699 36.3074 53.0712C36.4249 53.1273 36.5353 53.1879 36.656 53.2414C33.5831 51.6652 31.0458 48.6843 30.729 45.0671V45.0651Z" fill="#FF980E"/>
</g>
</g>
<defs>
<filter id="filter0_i_31_1564" x="5.25" y="5.25" width="73.5" height="77.5" filterUnits="userSpaceOnUse" color-interpolation-filters="sRGB">
<feFlood flood-opacity="0" result="BackgroundImageFix"/>
<feBlend mode="normal" in="SourceGraphic" in2="BackgroundImageFix" result="shape"/>
<feColorMatrix in="SourceAlpha" type="matrix" values="0 0 0 0 0 0 0 0 0 0 0 0 0 0 0 0 0 0 127 0" result="hardAlpha"/>
<feOffset dy="4"/>
<feGaussianBlur stdDeviation="2"/>
<feComposite in2="hardAlpha" operator="arithmetic" k2="-1" k3="1"/>
<feColorMatrix type="matrix" values="0 0 0 0 0 0 0 0 0 0 0 0 0 0 0 0 0 0 0.25 0"/>
<feBlend mode="normal" in2="shape" result="effect1_innerShadow_31_1564"/>
</filter>
<filter id="filter1_d_31_1564" x="12.8701" y="14.2233" width="58.2617" height="59.5288" filterUnits="userSpaceOnUse" color-interpolation-filters="sRGB">
<feFlood flood-opacity="0" result="BackgroundImageFix"/>
<feColorMatrix in="SourceAlpha" type="matrix" values="0 0 0 0 0 0 0 0 0 0 0 0 0 0 0 0 0 0 127 0" result="hardAlpha"/>
<feOffset dy="2"/>
<feGaussianBlur stdDeviation="2"/>
<feComposite in2="hardAlpha" operator="out"/>
<feColorMatrix type="matrix" values="0 0 0 0 0 0 0 0 0 0 0 0 0 0 0 0 0 0 0.25 0"/>
<feBlend mode="normal" in2="BackgroundImageFix" result="effect1_dropShadow_31_1564"/>
<feBlend mode="normal" in="SourceGraphic" in2="effect1_dropShadow_31_1564" result="shape"/>
</filter>
<linearGradient id="paint0_linear_31_1564" x1="84" y1="0" x2="2.76829" y2="86.5968" gradientUnits="userSpaceOnUse">
<stop offset="0.169646" stop-color="#FF8B16"/>
<stop offset="0.35725" stop-color="#FF672A"/>
<stop offset="0.597842" stop-color="#FF3647"/>
<stop offset="0.825545" stop-color="#E31587"/>
</linearGradient>
<linearGradient id="paint1_linear_31_1564" x1="61.9842" y1="24.2074" x2="20.4949" y2="64.5225" gradientUnits="userSpaceOnUse">
<stop offset="0.048" stop-color="#FFF44F"/>
<stop offset="0.111" stop-color="#FFE847"/>
<stop offset="0.225" stop-color="#FFC830"/>
<stop offset="0.368" stop-color="#FF980E"/>
<stop offset="0.401" stop-color="#FF8B16"/>
<stop offset="0.462" stop-color="#FF672A"/>
<stop offset="0.534" stop-color="#FF3647"/>
<stop offset="0.705" stop-color="#E31587"/>
</linearGradient>
<radialGradient id="paint2_radial_31_1564" cx="0" cy="0" r="1" gradientUnits="userSpaceOnUse" gradientTransform="translate(60.3676 22.0246) scale(52.4598 52.0893)">
<stop offset="0.129" stop-color="#FFBD4F"/>
<stop offset="0.186" stop-color="#FFAC31"/>
<stop offset="0.247" stop-color="#FF9D17"/>
<stop offset="0.283" stop-color="#FF980E"/>
<stop offset="0.403" stop-color="#FF563B"/>
<stop offset="0.467" stop-color="#FF3750"/>
<stop offset="0.71" stop-color="#F5156C"/>
<stop offset="0.782" stop-color="#EB0878"/>
<stop offset="0.86" stop-color="#E50080"/>
</radialGradient>
<clipPath id="clip0_31_1564">
<rect width="84" height="84" fill="white"/>
</clipPath>
</defs>
</svg>
