<svg width="84" height="84" viewBox="0 0 84 84" fill="none" xmlns="http://www.w3.org/2000/svg">
<g clip-path="url(#clip0_31_1581)">
<path d="M63 0H21C9.40202 0 0 9.40202 0 21V63C0 74.598 9.40202 84 21 84H63C74.598 84 84 74.598 84 63V21C84 9.40202 74.598 0 63 0Z" fill="url(#paint0_linear_31_1581)"/>
<g filter="url(#filter0_i_31_1581)">
<path d="M63 5.25H21C12.3015 5.25 5.25 12.3015 5.25 21V63C5.25 71.6985 12.3015 78.75 21 78.75H63C71.6985 78.75 78.75 71.6985 78.75 63V21C78.75 12.3015 71.6985 5.25 63 5.25Z" fill="black" fill-opacity="0.7"/>
<g filter="url(#filter1_d_31_1581)">
<path d="M28.2188 66.2813H32.1562V20.3438C32.1562 18.894 30.981 17.7188 29.5312 17.7188H20.3438C18.894 17.7188 17.7188 18.894 17.7188 20.3438V55.7813C17.7188 61.5803 22.4197 66.2813 28.2188 66.2813Z" fill="#FF3636"/>
<path d="M34.7812 20.3436V29.5311C34.7812 30.9809 35.9565 32.1561 37.4062 32.1561H55.7812C61.5803 32.1561 66.2812 27.4551 66.2812 21.6561V17.7186H37.4062C35.9565 17.7186 34.7812 18.8938 34.7812 20.3436Z" fill="#FF3636"/>
<path d="M51.0662 41.8984L36.6489 34.906C35.7788 34.4998 34.7812 35.135 34.7812 36.0953V50.0798C34.7812 51.0402 35.7788 51.6753 36.6489 51.2691L51.0662 44.2767C52.0761 43.8054 52.0761 42.3697 51.0662 41.8984Z" fill="#2CACE1"/>
</g>
</g>
</g>
<defs>
<filter id="filter0_i_31_1581" x="5.25" y="5.25" width="73.5" height="77.5" filterUnits="userSpaceOnUse" color-interpolation-filters="sRGB">
<feFlood flood-opacity="0" result="BackgroundImageFix"/>
<feBlend mode="normal" in="SourceGraphic" in2="BackgroundImageFix" result="shape"/>
<feColorMatrix in="SourceAlpha" type="matrix" values="0 0 0 0 0 0 0 0 0 0 0 0 0 0 0 0 0 0 127 0" result="hardAlpha"/>
<feOffset dy="4"/>
<feGaussianBlur stdDeviation="2"/>
<feComposite in2="hardAlpha" operator="arithmetic" k2="-1" k3="1"/>
<feColorMatrix type="matrix" values="0 0 0 0 0 0 0 0 0 0 0 0 0 0 0 0 0 0 0.25 0"/>
<feBlend mode="normal" in2="shape" result="effect1_innerShadow_31_1581"/>
</filter>
<filter id="filter1_d_31_1581" x="13.7188" y="15.7186" width="56.5625" height="56.5627" filterUnits="userSpaceOnUse" color-interpolation-filters="sRGB">
<feFlood flood-opacity="0" result="BackgroundImageFix"/>
<feColorMatrix in="SourceAlpha" type="matrix" values="0 0 0 0 0 0 0 0 0 0 0 0 0 0 0 0 0 0 127 0" result="hardAlpha"/>
<feOffset dy="2"/>
<feGaussianBlur stdDeviation="2"/>
<feComposite in2="hardAlpha" operator="out"/>
<feColorMatrix type="matrix" values="0 0 0 0 0 0 0 0 0 0 0 0 0 0 0 0 0 0 0.25 0"/>
<feBlend mode="normal" in2="BackgroundImageFix" result="effect1_dropShadow_31_1581"/>
<feBlend mode="normal" in="SourceGraphic" in2="effect1_dropShadow_31_1581" result="shape"/>
</filter>
<linearGradient id="paint0_linear_31_1581" x1="42" y1="0" x2="42" y2="84" gradientUnits="userSpaceOnUse">
<stop stop-color="#FF3636"/>
<stop offset="0.0001" stop-color="#FF3636"/>
<stop offset="1" stop-color="#FF2020"/>
</linearGradient>
<clipPath id="clip0_31_1581">
<rect width="84" height="84" fill="white"/>
</clipPath>
</defs>
</svg>
