<svg width="84" height="84" viewBox="0 0 84 84" fill="none" xmlns="http://www.w3.org/2000/svg">
<g clip-path="url(#clip0_31_1589)">
<path d="M63 0H21C9.40202 0 0 9.40202 0 21V63C0 74.598 9.40202 84 21 84H63C74.598 84 84 74.598 84 63V21C84 9.40202 74.598 0 63 0Z" fill="url(#paint0_linear_31_1589)"/>
<path d="M63 0H21C9.40202 0 0 9.40202 0 21V63C0 74.598 9.40202 84 21 84H63C74.598 84 84 74.598 84 63V21C84 9.40202 74.598 0 63 0Z" fill="url(#paint1_linear_31_1589)"/>
<g filter="url(#filter0_i_31_1589)">
<path d="M63 5.25H21C12.3015 5.25 5.25 12.3015 5.25 21V63C5.25 71.6985 12.3015 78.75 21 78.75H63C71.6985 78.75 78.75 71.6985 78.75 63V21C78.75 12.3015 71.6985 5.25 63 5.25Z" fill="black" fill-opacity="0.7"/>
<mask id="mask0_31_1589" style="mask-type:luminance" maskUnits="userSpaceOnUse" x="10" y="10" width="64" height="64">
<path d="M73.5 10.5H10.5V73.5H73.5V10.5Z" fill="white"/>
</mask>
<g mask="url(#mask0_31_1589)">
<path fill-rule="evenodd" clip-rule="evenodd" d="M64.8047 52.418C64.8047 53.7861 64.1851 55.1408 62.9814 56.4048C61.7776 57.6687 60.0132 58.8172 57.789 59.7846C55.5648 60.752 52.9241 61.5194 50.018 62.0429C47.1119 62.5664 43.9971 62.8359 40.8516 62.8359C37.706 62.8359 34.5912 62.5664 31.6851 62.0429C28.779 61.5194 26.1384 60.752 23.9141 59.7846C21.6899 58.8172 19.9255 57.6687 18.7218 56.4048C17.518 55.1408 16.8984 53.7861 16.8984 52.418C16.8984 51.0498 17.518 49.6951 18.7218 48.4312C19.9255 47.1672 21.6899 46.0187 23.9141 45.0514C26.1384 44.0839 28.779 43.3166 31.6851 42.793C34.5912 42.2695 37.706 42 40.8516 42C43.9971 42 47.1119 42.2695 50.018 42.793C52.9241 43.3166 55.5648 44.0839 57.789 45.0514C60.0132 46.0187 61.7776 47.1672 62.9814 48.4312C64.1851 49.6951 64.8047 51.0498 64.8047 52.418Z" fill="url(#paint2_radial_31_1589)"/>
<path fill-rule="evenodd" clip-rule="evenodd" d="M24.1165 26.8641C24.1165 26.8641 27.8893 34.6441 36.7155 34.4247C55.2119 33.9606 58.4554 24.3119 58.9194 22.9197C59.3834 21.5276 60.0934 21.7385 60.2576 23.0251C66.2899 77.7814 18.3929 54.2878 16.6919 44.9616C26.2046 42.1774 23.8845 36.841 23.8845 36.841L24.1165 26.8641Z" fill="#857C63" stroke="#2E3436" stroke-width="2" stroke-miterlimit="10"/>
<path fill-rule="evenodd" clip-rule="evenodd" d="M31.1562 49.9617C40.0011 51.7307 44.5053 50.0904 47.1414 48.0549C46.4454 47.1558 45.2562 46.1697 45.2562 46.1697C45.2562 46.1697 48.3449 47.0281 49.4326 48.432C50.5171 49.8318 49.8353 50.6943 49.5515 52.4854C48.9196 50.9123 47.7402 50.3223 47.5805 49.6972C45.2098 52.9745 39.3033 52.8383 31.1562 49.9617Z" fill="url(#paint3_linear_31_1589)"/>
<path fill-rule="evenodd" clip-rule="evenodd" d="M33.7457 38.5811C33.7458 39.282 33.6079 39.9761 33.3399 40.6237C33.0717 41.2713 32.6787 41.8597 32.1831 42.3554C31.6875 42.8511 31.0992 43.2443 30.4517 43.5125C29.8042 43.7808 29.1101 43.9189 28.4092 43.9189C27.7083 43.9189 27.0143 43.7808 26.3667 43.5125C25.7192 43.2443 25.1308 42.8511 24.6353 42.3554C24.1398 41.8597 23.7467 41.2713 23.4786 40.6237C23.2105 39.9761 23.0726 39.282 23.0728 38.5811C23.0726 37.8802 23.2105 37.1861 23.4786 36.5385C23.7467 35.8909 24.1398 35.3025 24.6353 34.8068C25.1308 34.3111 25.7192 33.9179 26.3667 33.6497C27.0143 33.3814 27.7083 33.2433 28.4092 33.2433C29.1101 33.2433 29.8042 33.3814 30.4517 33.6497C31.0992 33.9179 31.6875 34.3111 32.1831 34.8068C32.6787 35.3025 33.0717 35.8909 33.3399 36.5385C33.6079 37.1861 33.7458 37.8802 33.7457 38.5811Z" fill="#DBDBD7" stroke="#888A85" stroke-width="2" stroke-miterlimit="10"/>
<path fill-rule="evenodd" clip-rule="evenodd" d="M23.1149 40.5917C24.357 42.3134 25.0626 44.315 25.0763 46.1561C25.0901 47.9973 24.4109 49.5271 23.1882 50.4092C21.9656 51.2913 20.2996 51.4532 18.5568 50.8595C16.8139 50.2658 15.137 48.965 13.895 47.2433C12.6529 45.5216 11.9473 43.5201 11.9336 41.6789C11.9198 39.8378 12.599 38.3079 13.8217 37.4259C15.0443 36.5438 16.7103 36.3818 18.4531 36.9755C20.1959 37.5692 21.8729 38.87 23.1149 40.5917Z" fill="url(#paint4_radial_31_1589)" stroke="black" stroke-width="2" stroke-miterlimit="10"/>
<path fill-rule="evenodd" clip-rule="evenodd" d="M32.2262 39.3717C32.2263 39.7092 32.1599 40.0433 32.0308 40.3552C31.9017 40.667 31.7125 40.9503 31.4739 41.189C31.2353 41.4277 30.952 41.617 30.6402 41.7462C30.3284 41.8753 29.9943 41.9419 29.6568 41.9419C29.3193 41.9419 28.9851 41.8753 28.6734 41.7462C28.3616 41.617 28.0783 41.4277 27.8397 41.189C27.601 40.9503 27.4119 40.667 27.2828 40.3552C27.1537 40.0433 27.0873 39.7092 27.0874 39.3717C27.0873 39.0342 27.1537 38.7 27.2828 38.3882C27.4119 38.0763 27.601 37.793 27.8397 37.5544C28.0783 37.3157 28.3616 37.1264 28.6734 36.9971C28.9851 36.868 29.3193 36.8015 29.6568 36.8015C29.9943 36.8015 30.3284 36.868 30.6402 36.9971C30.952 37.1264 31.2353 37.3157 31.4739 37.5544C31.7125 37.793 31.9017 38.0763 32.0308 38.3882C32.1599 38.7 32.2263 39.0342 32.2262 39.3717Z" fill="#2E3436" stroke="black" stroke-width="2" stroke-miterlimit="10"/>
<path opacity="0.280899" fill-rule="evenodd" clip-rule="evenodd" d="M14.2871 38.5985C13.4486 39.2266 13.0066 40.2893 13.0464 41.7313C13.0863 43.1733 13.6554 44.9389 14.8234 46.4985C15.9915 48.058 17.5258 49.1007 18.8984 49.5445C20.2711 49.9882 21.4151 49.863 22.2537 49.2349C23.0922 48.6068 23.5358 47.4934 23.5027 46.0447C23.4694 44.596 22.9158 42.8665 21.7502 41.3104C20.5847 39.7543 19.0808 38.7365 17.6998 38.2972C16.3189 37.8579 15.1257 37.9705 14.2871 38.5985Z" stroke="url(#paint5_linear_31_1589)" stroke-width="2" stroke-miterlimit="10"/>
<path fill-rule="evenodd" clip-rule="evenodd" d="M18.1569 41.0173C18.1571 41.383 18.0971 41.7451 17.9805 42.083C17.8639 42.4209 17.693 42.7279 17.4776 42.9865C17.2621 43.2451 17.0063 43.4503 16.7248 43.5902C16.4433 43.7302 16.1415 43.8022 15.8368 43.8022C15.5321 43.8022 15.2303 43.7302 14.9487 43.5902C14.6672 43.4503 14.4114 43.2451 14.196 42.9865C13.9805 42.7279 13.8096 42.4209 13.6931 42.083C13.5765 41.7451 13.5165 41.383 13.5166 41.0173C13.5165 40.6516 13.5765 40.2895 13.6931 39.9516C13.8096 39.6138 13.9805 39.3067 14.196 39.0481C14.4114 38.7895 14.6672 38.5844 14.9487 38.4444C15.2303 38.3045 15.5321 38.2324 15.8368 38.2324C16.1415 38.2324 16.4433 38.3045 16.7248 38.4444C17.0063 38.5844 17.2621 38.7895 17.4776 39.0481C17.693 39.3067 17.8639 39.6138 17.9805 39.9516C18.0971 40.2895 18.1571 40.6516 18.1569 41.0173Z" fill="white"/>
<path fill-rule="evenodd" clip-rule="evenodd" d="M30.4473 38.1857C30.4473 38.6575 30.2599 39.11 29.9262 39.4436C29.5927 39.7772 29.1403 39.9646 28.6685 39.9646C28.1967 39.9646 27.7442 39.7772 27.4106 39.4436C27.0771 39.11 26.8896 38.6575 26.8896 38.1857C26.8896 37.714 27.0771 37.2616 27.4106 36.928C27.7442 36.5943 28.1967 36.407 28.6685 36.407C29.1403 36.407 29.5927 36.5943 29.9262 36.928C30.2599 37.2616 30.4473 37.714 30.4473 38.1857Z" fill="white"/>
<path fill-rule="evenodd" clip-rule="evenodd" d="M45.6946 39.1612C45.6948 39.984 45.5329 40.7988 45.2182 41.559C44.9034 42.3192 44.4421 43.01 43.8603 43.5918C43.2785 44.1737 42.5879 44.6353 41.8278 44.9503C41.0676 45.2651 40.2528 45.4272 39.43 45.4272C38.6073 45.4272 37.7925 45.2651 37.0323 44.9503C36.2722 44.6353 35.5816 44.1737 34.9998 43.5918C34.418 43.01 33.9567 42.3192 33.642 41.559C33.3272 40.7988 33.1653 39.984 33.1655 39.1612C33.1653 38.3383 33.3272 37.5235 33.642 36.7633C33.9567 36.0031 34.418 35.3123 34.9998 34.7305C35.5816 34.1486 36.2722 33.687 37.0323 33.372C37.7925 33.0572 38.6073 32.8951 39.43 32.8951C40.2528 32.8951 41.0676 33.0572 41.8278 33.372C42.5879 33.687 43.2785 34.1486 43.8603 34.7305C44.4421 35.3123 44.9034 36.0031 45.2182 36.7633C45.5329 37.5235 45.6948 38.3383 45.6946 39.1612Z" fill="#DBDBD7" stroke="#888A85" stroke-width="2" stroke-miterlimit="10"/>
<path fill-rule="evenodd" clip-rule="evenodd" d="M43.9112 40.0892C43.9113 40.4854 43.8333 40.8777 43.6818 41.2437C43.5303 41.6098 43.3081 41.9424 43.0281 42.2226C42.748 42.5028 42.4154 42.725 42.0494 42.8767C41.6834 43.0283 41.2911 43.1064 40.8949 43.1064C40.4987 43.1064 40.1064 43.0283 39.7404 42.8767C39.3745 42.725 39.0419 42.5028 38.7618 42.2226C38.4817 41.9424 38.2595 41.6098 38.108 41.2437C37.9565 40.8777 37.8785 40.4854 37.8787 40.0892C37.8785 39.693 37.9565 39.3007 38.108 38.9347C38.2595 38.5686 38.4817 38.236 38.7618 37.9558C39.0419 37.6756 39.3745 37.4534 39.7404 37.3017C40.1064 37.1501 40.4987 37.0721 40.8949 37.0721C41.2911 37.0721 41.6834 37.1501 42.0494 37.3017C42.4154 37.4534 42.748 37.6756 43.0281 37.9558C43.3081 38.236 43.5303 38.5686 43.6818 38.9347C43.8333 39.3007 43.9113 39.693 43.9112 40.0892Z" fill="#2E3436" stroke="black" stroke-width="2" stroke-miterlimit="10"/>
<path fill-rule="evenodd" clip-rule="evenodd" d="M41.8231 38.6971C41.8231 39.2509 41.6031 39.782 41.2115 40.1736C40.8199 40.5652 40.2887 40.7853 39.7349 40.7853C39.1811 40.7853 38.6499 40.5652 38.2584 40.1736C37.8668 39.782 37.6467 39.2509 37.6467 38.6971C37.6467 38.1433 37.8668 37.6121 38.2584 37.2205C38.6499 36.8289 39.1811 36.6089 39.7349 36.6089C40.2887 36.6089 40.8199 36.8289 41.2115 37.2205C41.6031 37.6121 41.8231 38.1433 41.8231 38.6971Z" fill="white"/>
<path d="M58.5202 57.87L59.7361 55.4486C55.2128 52.1393 46.8745 49.7315 46.8745 49.7315C45.4292 49.0582 44.973 50.3566 45.9738 51.2007C45.9738 51.2007 53.1048 56.3129 58.5202 57.87Z" fill="url(#paint6_linear_31_1589)" stroke="#673907" stroke-width="2" stroke-linecap="round"/>
<path d="M64.3195 60.102L64.9704 58.661L59.9205 55.4258L59.5179 55.3915L59.3438 54.8342C58.6102 55.2935 57.5442 57.0001 57.8269 57.9595L58.3723 57.7532L58.6677 58.0388L64.3195 60.102Z" fill="url(#paint7_linear_31_1589)" stroke="#888A85" stroke-width="2" stroke-linecap="round"/>
<path d="M61.0469 57.3688L64.3997 58.8085" stroke="white" stroke-width="2" stroke-linecap="round" stroke-linejoin="round"/>
<path d="M71.6586 66.2209C70.0843 60.8769 69.5258 56.6338 65.4115 57.0113C62.0959 57.3156 61.8638 62.0663 65.2899 63.3772C68.5907 64.64 71.6586 66.2209 71.6586 66.2209Z" fill="url(#paint8_radial_31_1589)"/>
<path opacity="0.527778" d="M65.658 57.4442C65.8319 57.393 66.0143 57.3764 66.1942 57.3957C66.3746 57.4148 66.5492 57.4693 66.7087 57.556C66.8681 57.6427 67.0086 57.76 67.1221 57.901C67.2363 58.0421 67.3209 58.2042 67.3721 58.3781C67.4233 58.552 67.4404 58.7343 67.4207 58.9145C67.4017 59.0947 67.3472 59.2694 67.2606 59.4286C67.1733 59.5878 67.0565 59.7284 66.9154 59.8422C66.7743 59.956 66.6122 60.041 66.4383 60.0922C66.2644 60.1434 66.0819 60.16 65.9015 60.1407C65.7217 60.1216 65.5467 60.0671 65.3875 59.9804C65.2283 59.8937 65.0877 59.7764 64.9739 59.6354C64.8599 59.4943 64.775 59.3322 64.7238 59.1583C64.6725 58.9844 64.656 58.8022 64.6753 58.6219C64.6945 58.4416 64.749 58.267 64.8359 58.1077C64.9226 57.9486 65.0399 57.808 65.1809 57.6942C65.322 57.5804 65.4842 57.4954 65.658 57.4442Z" fill="white"/>
<path d="M59.64 55.4802C59.7574 55.4455 59.8803 55.4344 60.002 55.4474C60.1236 55.4603 60.2415 55.497 60.349 55.5556C60.4563 55.6141 60.5512 55.6932 60.6281 55.7884C60.7049 55.8835 60.7622 55.9929 60.7968 56.1102C60.8314 56.2276 60.8425 56.3506 60.8295 56.4722C60.8165 56.5938 60.7797 56.7117 60.7212 56.8191C60.6627 56.9266 60.5835 57.0213 60.4883 57.0982C60.3931 57.175 60.2837 57.2323 60.1664 57.2668C60.0491 57.3014 59.9261 57.3126 59.8044 57.2996C59.6828 57.2867 59.5649 57.2499 59.4575 57.1914C59.3501 57.1329 59.2552 57.0538 59.1784 56.9586C59.1015 56.8634 59.0442 56.7541 59.0096 56.6368C58.975 56.5194 58.964 56.3964 58.9769 56.2748C58.9899 56.1532 59.0267 56.0352 59.0852 55.9279C59.1438 55.8204 59.2229 55.7256 59.3181 55.6488C59.4133 55.572 59.5227 55.5147 59.64 55.4802Z" fill="white"/>
<path opacity="0.427778" d="M69.6819 63.0233C69.6819 63.0233 69.1687 61.1048 68.0374 60.1063C67.6364 59.7531 68.1411 59.2327 68.5191 59.6898C69.3354 60.6768 69.6819 63.0233 69.6819 63.0233Z" fill="url(#paint9_linear_31_1589)"/>
<path fill-rule="evenodd" clip-rule="evenodd" d="M40.6917 52.1542C42.657 52.342 44.4318 51.7969 45.1698 51.532C45.2987 50.8031 45.874 49.4041 47.8553 49.3119L47.1592 48.0939C47.1592 48.0939 44.578 49.863 41.8228 50.385L40.6917 52.1542Z" fill="url(#paint10_linear_31_1589)"/>
</g>
</g>
</g>
<defs>
<filter id="filter0_i_31_1589" x="5.25" y="5.25" width="73.5" height="77.5" filterUnits="userSpaceOnUse" color-interpolation-filters="sRGB">
<feFlood flood-opacity="0" result="BackgroundImageFix"/>
<feBlend mode="normal" in="SourceGraphic" in2="BackgroundImageFix" result="shape"/>
<feColorMatrix in="SourceAlpha" type="matrix" values="0 0 0 0 0 0 0 0 0 0 0 0 0 0 0 0 0 0 127 0" result="hardAlpha"/>
<feOffset dy="4"/>
<feGaussianBlur stdDeviation="2"/>
<feComposite in2="hardAlpha" operator="arithmetic" k2="-1" k3="1"/>
<feColorMatrix type="matrix" values="0 0 0 0 0 0 0 0 0 0 0 0 0 0 0 0 0 0 0.25 0"/>
<feBlend mode="normal" in2="shape" result="effect1_innerShadow_31_1589"/>
</filter>
<linearGradient id="paint0_linear_31_1589" x1="41.7446" y1="84.0643" x2="41.7446" y2="-0.0544055" gradientUnits="userSpaceOnUse">
<stop stop-color="#2CA0B9"/>
<stop offset="1" stop-color="#87DEAA"/>
</linearGradient>
<linearGradient id="paint1_linear_31_1589" x1="42" y1="0" x2="42" y2="84" gradientUnits="userSpaceOnUse">
<stop stop-color="#857C63"/>
<stop offset="1" stop-color="#3E382D"/>
</linearGradient>
<radialGradient id="paint2_radial_31_1589" cx="0" cy="0" r="1" gradientUnits="userSpaceOnUse" gradientTransform="translate(40.8516 52.418) scale(23.9531 10.418)">
<stop/>
<stop offset="1" stop-opacity="0"/>
</radialGradient>
<linearGradient id="paint3_linear_31_1589" x1="47.9245" y1="47.8134" x2="33.3072" y2="50.7137" gradientUnits="userSpaceOnUse">
<stop/>
<stop offset="1" stop-opacity="0"/>
</linearGradient>
<radialGradient id="paint4_radial_31_1589" cx="0" cy="0" r="1" gradientUnits="userSpaceOnUse" gradientTransform="translate(16.3721 41.1284) rotate(-30) scale(5.83909 6.81516)">
<stop stop-color="#5B676B"/>
<stop offset="1" stop-color="#141718"/>
</radialGradient>
<linearGradient id="paint5_linear_31_1589" x1="15.4583" y1="39.6993" x2="21.5794" y2="48.5736" gradientUnits="userSpaceOnUse">
<stop stop-color="white"/>
<stop offset="1" stop-color="white" stop-opacity="0"/>
</linearGradient>
<linearGradient id="paint6_linear_31_1589" x1="55.5964" y1="52.5714" x2="52.8699" y2="58.5263" gradientUnits="userSpaceOnUse">
<stop stop-color="#6E3D09"/>
<stop offset="0.242424" stop-color="#EA8113"/>
<stop offset="0.621212" stop-color="#5C3307"/>
<stop offset="1" stop-color="#E07C12"/>
</linearGradient>
<linearGradient id="paint7_linear_31_1589" x1="61.4396" y1="59.0387" x2="62.6386" y2="56.6198" gradientUnits="userSpaceOnUse">
<stop stop-color="#BDBDBD"/>
<stop offset="0.333333" stop-color="#E2E2E2"/>
<stop offset="0.666667" stop-color="#A3A3A3"/>
<stop offset="1" stop-color="#DDDDDD"/>
</linearGradient>
<radialGradient id="paint8_radial_31_1589" cx="0" cy="0" r="1" gradientUnits="userSpaceOnUse" gradientTransform="translate(64.4294 60.4443) rotate(-106.415) scale(6.35843 6.19648)">
<stop stop-color="#696969"/>
<stop offset="1"/>
</radialGradient>
<linearGradient id="paint9_linear_31_1589" x1="68.1936" y1="59.1746" x2="69.7292" y2="62.0206" gradientUnits="userSpaceOnUse">
<stop stop-color="white"/>
<stop offset="1" stop-color="white" stop-opacity="0"/>
</linearGradient>
<linearGradient id="paint10_linear_31_1589" x1="44.839" y1="50.5881" x2="42.4318" y2="51.1681" gradientUnits="userSpaceOnUse">
<stop/>
<stop offset="1" stop-opacity="0"/>
</linearGradient>
<clipPath id="clip0_31_1589">
<rect width="84" height="84" fill="white"/>
</clipPath>
</defs>
</svg>
