<svg width="84" height="84" viewBox="0 0 84 84" fill="none" xmlns="http://www.w3.org/2000/svg">
<g clip-path="url(#clip0_31_1618)">
<path d="M63 0H21C9.40202 0 0 9.40202 0 21V63C0 74.598 9.40202 84 21 84H63C74.598 84 84 74.598 84 63V21C84 9.40202 74.598 0 63 0Z" fill="url(#paint0_linear_31_1618)"/>
<g filter="url(#filter0_i_31_1618)">
<path d="M63 5.25H21C12.3015 5.25 5.25 12.3015 5.25 21V63C5.25 71.6985 12.3015 78.75 21 78.75H63C71.6985 78.75 78.75 71.6985 78.75 63V21C78.75 12.3015 71.6985 5.25 63 5.25Z" fill="black" fill-opacity="0.7"/>
<path d="M42 17.8008C55.5912 17.8008 66.6094 28.819 66.6094 42.4102C66.6094 56.0014 55.5912 67.0195 42 67.0195C28.4088 67.0195 17.3906 56.0014 17.3906 42.4102C17.3906 28.819 28.4088 17.8008 42 17.8008Z" fill="url(#paint1_linear_31_1618)"/>
<path d="M42 17.8008C28.4088 17.8008 17.3906 28.819 17.3906 42.4102C17.3906 56.0014 28.4088 67.0195 42 67.0195V17.8008Z" fill="url(#paint2_linear_31_1618)"/>
<path d="M66.6094 41.5898C66.6094 55.181 55.5912 66.1992 42 66.1992C28.4088 66.1992 17.3906 55.181 17.3906 41.5898C17.3906 27.9986 28.4088 16.9805 42 16.9805C55.5912 16.9805 66.6094 27.9986 66.6094 41.5898Z" fill="#40A1C8"/>
<path d="M27.2359 42C27.2872 47.7069 28.4183 53.2248 30.4499 57.6884C28.8333 58.5152 27.4634 59.5101 26.4044 60.6252C20.8096 56.043 17.514 49.2306 17.3938 42H27.2359Z" fill="#49BBB0"/>
<path d="M41.9999 55.125V66.1992C40.1542 66.1992 38.3133 65.9912 36.514 65.5792C34.1348 63.9145 32.0456 61.194 30.4514 57.6884C33.6926 56.0318 37.7798 55.125 41.9999 55.125Z" fill="#378BDE"/>
<path d="M56.7641 42C56.7128 47.7069 55.5817 53.2248 53.5486 57.6884C55.1668 58.5152 56.535 59.5101 57.594 60.6252C63.1888 56.043 66.4848 49.2306 66.6062 42H56.7641Z" fill="#266EC6"/>
<path d="M42 42V66.1992C43.8457 66.1992 45.6866 65.9912 47.4859 65.5792C53.0117 61.7099 56.6695 52.4141 56.764 42H42Z" fill="#378BDE"/>
<path d="M42 55.125V66.1992C43.8457 66.1992 45.6866 65.9912 47.4859 65.5792C49.8651 63.9145 51.9543 61.194 53.5485 57.6884C50.3073 56.0318 46.2201 55.125 42 55.125Z" fill="#266EC6"/>
<path d="M53.5502 57.6884C51.9544 61.194 49.8652 63.9129 47.4875 65.5792C51.1934 64.7316 54.6541 63.0349 57.5956 60.6252C56.5366 59.5101 55.1668 58.5152 53.5502 57.6884Z" fill="#1E62B5"/>
<path d="M42 16.9805C28.4088 16.9805 17.3906 27.9986 17.3906 41.5898C17.3906 41.726 17.3922 41.8638 17.3938 42H42V16.9805Z" fill="#53D795"/>
<path d="M36.5142 17.5989C32.8068 18.4481 29.3461 20.1432 26.4045 22.5528C27.4635 23.6696 28.8334 24.6629 30.4516 25.4913C32.0474 21.9841 34.1366 19.2652 36.5142 17.5989Z" fill="#72E99A"/>
<path d="M42 16.9805C40.1543 16.9805 38.315 17.1888 36.5141 17.5989C30.9098 21.5242 27.2344 31.0251 27.2344 41.5898C27.2344 41.726 27.2344 41.8638 27.2359 42H42V16.9805Z" fill="#49BBB0"/>
<path d="M41.9999 16.9805C40.1542 16.9805 38.3149 17.1888 36.514 17.5989C34.1365 19.2651 32.0472 21.984 30.4514 25.4912C33.6943 27.1479 37.7798 28.0547 41.9999 28.0547V16.9805Z" fill="#53D795"/>
<path d="M42 16.9805C55.5912 16.9805 66.6094 27.9986 66.6094 41.5898C66.6094 41.726 66.6081 41.8638 66.6061 42H42V16.9805Z" fill="#378BDE"/>
<path d="M47.4858 17.5989C51.1933 18.4481 54.6539 20.1432 57.5955 22.5528C56.5365 23.6696 55.1667 24.6629 53.55 25.4896C51.9527 21.9841 49.8634 19.2652 47.4858 17.5989Z" fill="#40A1C8"/>
<path d="M42 16.9805C43.8457 16.9805 45.6866 17.1888 47.4859 17.5989C53.0902 21.5242 56.7656 31.0251 56.7656 41.5898C56.7656 41.726 56.7656 41.8638 56.764 42H42V16.9805Z" fill="#40A1C8"/>
<path d="M42 16.9805C43.8457 16.9805 45.6866 17.1888 47.4859 17.5989C49.8634 19.2651 51.9527 21.984 53.5485 25.4896C50.3056 27.1479 46.2201 28.0547 42 28.0547V16.9805Z" fill="#49BBB0"/>
</g>
</g>
<defs>
<filter id="filter0_i_31_1618" x="5.25" y="5.25" width="73.5" height="77.5" filterUnits="userSpaceOnUse" color-interpolation-filters="sRGB">
<feFlood flood-opacity="0" result="BackgroundImageFix"/>
<feBlend mode="normal" in="SourceGraphic" in2="BackgroundImageFix" result="shape"/>
<feColorMatrix in="SourceAlpha" type="matrix" values="0 0 0 0 0 0 0 0 0 0 0 0 0 0 0 0 0 0 127 0" result="hardAlpha"/>
<feOffset dy="4"/>
<feGaussianBlur stdDeviation="2"/>
<feComposite in2="hardAlpha" operator="arithmetic" k2="-1" k3="1"/>
<feColorMatrix type="matrix" values="0 0 0 0 0 0 0 0 0 0 0 0 0 0 0 0 0 0 0.25 0"/>
<feBlend mode="normal" in2="shape" result="effect1_innerShadow_31_1618"/>
</filter>
<linearGradient id="paint0_linear_31_1618" x1="42" y1="0" x2="42" y2="84" gradientUnits="userSpaceOnUse">
<stop stop-color="#72E99A"/>
<stop offset="0.3" stop-color="#49BBB0"/>
<stop offset="0.614" stop-color="#378BDE"/>
<stop offset="1" stop-color="#1E62B5"/>
</linearGradient>
<linearGradient id="paint1_linear_31_1618" x1="55.9453" y1="61.6875" x2="60.0469" y2="61.6875" gradientUnits="userSpaceOnUse">
<stop stop-color="#16529C"/>
<stop offset="1" stop-color="#236AC0"/>
</linearGradient>
<linearGradient id="paint2_linear_31_1618" x1="39.5391" y1="64.9687" x2="21.4922" y2="64.9687" gradientUnits="userSpaceOnUse">
<stop stop-color="#2166BB"/>
<stop offset="1" stop-color="#89EDA9"/>
</linearGradient>
<clipPath id="clip0_31_1618">
<rect width="84" height="84" fill="white"/>
</clipPath>
</defs>
</svg>
