<svg width="84" height="84" viewBox="0 0 84 84" fill="none" xmlns="http://www.w3.org/2000/svg">
<g clip-path="url(#clip0_31_1639)">
<path d="M63 0H21C9.40202 0 0 9.40202 0 21V63C0 74.598 9.40202 84 21 84H63C74.598 84 84 74.598 84 63V21C84 9.40202 74.598 0 63 0Z" fill="url(#paint0_linear_31_1639)"/>
<g filter="url(#filter0_i_31_1639)">
<path d="M63 5.25H21C12.3015 5.25 5.25 12.3015 5.25 21V63C5.25 71.6985 12.3015 78.75 21 78.75H63C71.6985 78.75 78.75 71.6985 78.75 63V21C78.75 12.3015 71.6985 5.25 63 5.25Z" fill="black" fill-opacity="0.7"/>
<mask id="mask0_31_1639" style="mask-type:luminance" maskUnits="userSpaceOnUse" x="10" y="10" width="64" height="64">
<path d="M73.5 10.5H10.5V73.5H73.5V10.5Z" fill="white"/>
</mask>
<g mask="url(#mask0_31_1639)">
<g filter="url(#filter1_d_31_1639)">
<path d="M63.9359 35.478L70.8002 50.7L59.0519 70.8002L51.8159 53.232L63.9359 35.478Z" fill="url(#paint1_linear_31_1639)"/>
</g>
<g filter="url(#filter2_d_31_1639)">
<path d="M51.8159 53.2321L59.0519 70.8002L40.8479 64.5421L51.8159 53.2321Z" fill="#B74AF7"/>
</g>
<g filter="url(#filter3_d_31_1639)">
<path d="M53.7779 29.466L50.0459 13.2H29.3519L13.2 37.908L17.8739 49.26L13.2 59.622L46.6499 31.164L53.7779 29.466Z" fill="url(#paint2_linear_31_1639)"/>
</g>
<g filter="url(#filter4_d_31_1639)">
<path d="M70.8001 25.428L46.6499 31.164L13.2 59.622L34.7759 70.8002L51.8159 53.232L70.8001 25.428Z" fill="url(#paint3_linear_31_1639)"/>
</g>
<g filter="url(#filter5_d_31_1639)">
<path d="M23.9998 24H59.9997V60H23.9998V24Z" fill="black"/>
</g>
<path d="M27.3782 53.2499H40.8782V55.5H27.3782V53.2499Z" fill="white"/>
<path d="M26.3641 36.186V36.144C26.3606 35.1275 26.5606 34.1206 26.9522 33.1826C27.3438 32.2446 27.9191 31.3944 28.6443 30.6821C29.3694 29.9698 30.2298 29.4098 31.1746 29.0351C32.1195 28.6603 33.1298 28.4784 34.1461 28.5C36.2833 28.3874 38.3795 29.1176 39.9841 30.534L37.9261 33.018C36.8826 32.0202 35.4875 31.4747 34.0441 31.5C31.644 31.5 29.7781 33.6 29.7781 36.12V36.162C29.7781 38.88 31.644 40.872 34.278 40.872C35.3706 40.9041 36.4454 40.5913 37.3501 39.978V37.842H34.0621V35.022H40.5001V41.466C38.7403 42.9923 36.4875 43.8299 34.1581 43.824C29.544 43.824 26.3641 40.578 26.3641 36.186Z" fill="white"/>
<path d="M41.8801 36.186V36.144C41.8836 35.1182 42.0928 34.1036 42.4951 33.1601C42.8974 32.2165 43.4849 31.3632 44.2227 30.6506C44.9605 29.9379 45.8337 29.3805 46.7906 29.0111C47.7476 28.6417 48.7688 28.4679 49.7941 28.5C54.3721 28.5 57.6601 31.914 57.6601 36.132V36.174C57.6614 37.2023 57.456 38.2203 57.0562 39.1676C56.6563 40.115 56.0702 40.9723 55.3325 41.6887C54.5948 42.4051 53.7208 42.9659 52.7621 43.3379C51.8035 43.7099 50.7799 43.8854 49.7521 43.854C45.1681 43.824 41.8801 40.41 41.8801 36.186ZM54.2461 36.186V36.144C54.2645 35.5418 54.162 34.942 53.9446 34.38C53.7272 33.8181 53.3993 33.3055 52.9803 32.8725C52.5613 32.4395 52.0597 32.095 51.5053 31.8592C50.9507 31.6235 50.3546 31.5013 49.7521 31.5C49.1541 31.498 48.5619 31.6168 48.011 31.8493C47.4601 32.0817 46.9618 32.4231 46.546 32.8529C46.1303 33.2827 45.8056 33.792 45.5915 34.3503C45.3774 34.9086 45.2783 35.5045 45.3001 36.102V36.144C45.2792 36.7485 45.38 37.3511 45.5967 37.9158C45.8133 38.4806 46.1412 38.996 46.561 39.4315C46.9808 39.867 47.4839 40.2136 48.0403 40.4507C48.5968 40.6879 49.1952 40.8108 49.8001 40.812C50.3997 40.8134 50.9933 40.6932 51.5452 40.4589C52.0971 40.2246 52.5958 39.881 53.0112 39.4487C53.4267 39.0164 53.7503 38.5044 53.9625 37.9437C54.1748 37.383 54.2712 36.7851 54.2461 36.186Z" fill="white"/>
</g>
</g>
</g>
<defs>
<filter id="filter0_i_31_1639" x="5.25" y="5.25" width="73.5" height="77.5" filterUnits="userSpaceOnUse" color-interpolation-filters="sRGB">
<feFlood flood-opacity="0" result="BackgroundImageFix"/>
<feBlend mode="normal" in="SourceGraphic" in2="BackgroundImageFix" result="shape"/>
<feColorMatrix in="SourceAlpha" type="matrix" values="0 0 0 0 0 0 0 0 0 0 0 0 0 0 0 0 0 0 127 0" result="hardAlpha"/>
<feOffset dy="4"/>
<feGaussianBlur stdDeviation="2"/>
<feComposite in2="hardAlpha" operator="arithmetic" k2="-1" k3="1"/>
<feColorMatrix type="matrix" values="0 0 0 0 0 0 0 0 0 0 0 0 0 0 0 0 0 0 0.25 0"/>
<feBlend mode="normal" in2="shape" result="effect1_innerShadow_31_1639"/>
</filter>
<filter id="filter1_d_31_1639" x="47.8159" y="33.478" width="26.9844" height="43.3221" filterUnits="userSpaceOnUse" color-interpolation-filters="sRGB">
<feFlood flood-opacity="0" result="BackgroundImageFix"/>
<feColorMatrix in="SourceAlpha" type="matrix" values="0 0 0 0 0 0 0 0 0 0 0 0 0 0 0 0 0 0 127 0" result="hardAlpha"/>
<feOffset dy="2"/>
<feGaussianBlur stdDeviation="2"/>
<feComposite in2="hardAlpha" operator="out"/>
<feColorMatrix type="matrix" values="0 0 0 0 0 0 0 0 0 0 0 0 0 0 0 0 0 0 0.25 0"/>
<feBlend mode="normal" in2="BackgroundImageFix" result="effect1_dropShadow_31_1639"/>
<feBlend mode="normal" in="SourceGraphic" in2="effect1_dropShadow_31_1639" result="shape"/>
</filter>
<filter id="filter2_d_31_1639" x="36.8479" y="51.2321" width="26.2041" height="25.5681" filterUnits="userSpaceOnUse" color-interpolation-filters="sRGB">
<feFlood flood-opacity="0" result="BackgroundImageFix"/>
<feColorMatrix in="SourceAlpha" type="matrix" values="0 0 0 0 0 0 0 0 0 0 0 0 0 0 0 0 0 0 127 0" result="hardAlpha"/>
<feOffset dy="2"/>
<feGaussianBlur stdDeviation="2"/>
<feComposite in2="hardAlpha" operator="out"/>
<feColorMatrix type="matrix" values="0 0 0 0 0 0 0 0 0 0 0 0 0 0 0 0 0 0 0.25 0"/>
<feBlend mode="normal" in2="BackgroundImageFix" result="effect1_dropShadow_31_1639"/>
<feBlend mode="normal" in="SourceGraphic" in2="effect1_dropShadow_31_1639" result="shape"/>
</filter>
<filter id="filter3_d_31_1639" x="9.19995" y="11.2" width="48.5779" height="54.4219" filterUnits="userSpaceOnUse" color-interpolation-filters="sRGB">
<feFlood flood-opacity="0" result="BackgroundImageFix"/>
<feColorMatrix in="SourceAlpha" type="matrix" values="0 0 0 0 0 0 0 0 0 0 0 0 0 0 0 0 0 0 127 0" result="hardAlpha"/>
<feOffset dy="2"/>
<feGaussianBlur stdDeviation="2"/>
<feComposite in2="hardAlpha" operator="out"/>
<feColorMatrix type="matrix" values="0 0 0 0 0 0 0 0 0 0 0 0 0 0 0 0 0 0 0.25 0"/>
<feBlend mode="normal" in2="BackgroundImageFix" result="effect1_dropShadow_31_1639"/>
<feBlend mode="normal" in="SourceGraphic" in2="effect1_dropShadow_31_1639" result="shape"/>
</filter>
<filter id="filter4_d_31_1639" x="9.19995" y="23.428" width="65.6001" height="53.3722" filterUnits="userSpaceOnUse" color-interpolation-filters="sRGB">
<feFlood flood-opacity="0" result="BackgroundImageFix"/>
<feColorMatrix in="SourceAlpha" type="matrix" values="0 0 0 0 0 0 0 0 0 0 0 0 0 0 0 0 0 0 127 0" result="hardAlpha"/>
<feOffset dy="2"/>
<feGaussianBlur stdDeviation="2"/>
<feComposite in2="hardAlpha" operator="out"/>
<feColorMatrix type="matrix" values="0 0 0 0 0 0 0 0 0 0 0 0 0 0 0 0 0 0 0.25 0"/>
<feBlend mode="normal" in2="BackgroundImageFix" result="effect1_dropShadow_31_1639"/>
<feBlend mode="normal" in="SourceGraphic" in2="effect1_dropShadow_31_1639" result="shape"/>
</filter>
<filter id="filter5_d_31_1639" x="19.9998" y="22" width="44" height="44.0001" filterUnits="userSpaceOnUse" color-interpolation-filters="sRGB">
<feFlood flood-opacity="0" result="BackgroundImageFix"/>
<feColorMatrix in="SourceAlpha" type="matrix" values="0 0 0 0 0 0 0 0 0 0 0 0 0 0 0 0 0 0 127 0" result="hardAlpha"/>
<feOffset dy="2"/>
<feGaussianBlur stdDeviation="2"/>
<feComposite in2="hardAlpha" operator="out"/>
<feColorMatrix type="matrix" values="0 0 0 0 0 0 0 0 0 0 0 0 0 0 0 0 0 0 0.25 0"/>
<feBlend mode="normal" in2="BackgroundImageFix" result="effect1_dropShadow_31_1639"/>
<feBlend mode="normal" in="SourceGraphic" in2="effect1_dropShadow_31_1639" result="shape"/>
</filter>
<linearGradient id="paint0_linear_31_1639" x1="42" y1="0" x2="42" y2="84" gradientUnits="userSpaceOnUse">
<stop stop-color="#3BEA62"/>
<stop offset="0.510417" stop-color="#087CFA"/>
<stop offset="1" stop-color="#B74AF7"/>
</linearGradient>
<linearGradient id="paint1_linear_31_1639" x1="69.9182" y1="46.008" x2="47.4239" y2="65.046" gradientUnits="userSpaceOnUse">
<stop stop-color="#087CFA"/>
<stop offset="0.02" stop-color="#0D7BFA"/>
<stop offset="0.37" stop-color="#5566F9"/>
<stop offset="0.66" stop-color="#8A57F8"/>
<stop offset="0.88" stop-color="#AB4EF7"/>
<stop offset="1" stop-color="#B74AF7"/>
</linearGradient>
<linearGradient id="paint2_linear_31_1639" x1="33.024" y1="31.056" x2="46.6979" y2="15.498" gradientUnits="userSpaceOnUse">
<stop stop-color="#087CFA"/>
<stop offset="0.02" stop-color="#0D7BFA"/>
<stop offset="0.37" stop-color="#5566F9"/>
<stop offset="0.66" stop-color="#8A57F8"/>
<stop offset="0.88" stop-color="#AB4EF7"/>
<stop offset="1" stop-color="#B74AF7"/>
</linearGradient>
<linearGradient id="paint3_linear_31_1639" x1="21.2039" y1="63.516" x2="62.7539" y2="36.816" gradientUnits="userSpaceOnUse">
<stop stop-color="#087CFA"/>
<stop offset="0.1" stop-color="#1598D3"/>
<stop offset="0.22" stop-color="#23B6AA"/>
<stop offset="0.35" stop-color="#2DCC8B"/>
<stop offset="0.46" stop-color="#35DD74"/>
<stop offset="0.57" stop-color="#39E767"/>
<stop offset="0.67" stop-color="#3BEA62"/>
</linearGradient>
<clipPath id="clip0_31_1639">
<rect width="84" height="84" fill="white"/>
</clipPath>
</defs>
</svg>
