<svg width="84" height="84" viewBox="0 0 84 84" fill="none" xmlns="http://www.w3.org/2000/svg">
<g clip-path="url(#clip0_31_1660)">
<path d="M63 0H21C9.40202 0 0 9.40202 0 21V63C0 74.598 9.40202 84 21 84H63C74.598 84 84 74.598 84 63V21C84 9.40202 74.598 0 63 0Z" fill="#FF0045"/>
<path d="M63 0H21C9.40202 0 0 9.40202 0 21V63C0 74.598 9.40202 84 21 84H63C74.598 84 84 74.598 84 63V21C84 9.40202 74.598 0 63 0Z" fill="url(#paint0_radial_31_1660)"/>
<path d="M63 0H21C9.40202 0 0 9.40202 0 21V63C0 74.598 9.40202 84 21 84H63C74.598 84 84 74.598 84 63V21C84 9.40202 74.598 0 63 0Z" fill="url(#paint1_radial_31_1660)"/>
<g filter="url(#filter0_i_31_1660)">
<path d="M63 5.25H21C12.3015 5.25 5.25 12.3015 5.25 21V63C5.25 71.6985 12.3015 78.75 21 78.75H63C71.6985 78.75 78.75 71.6985 78.75 63V21C78.75 12.3015 71.6985 5.25 63 5.25Z" fill="black" fill-opacity="0.7"/>
<mask id="mask0_31_1660" style="mask-type:luminance" maskUnits="userSpaceOnUse" x="15" y="15" width="54" height="54">
<path d="M68.25 15.75H15.75V68.25H68.25V15.75Z" fill="white"/>
</mask>
<g mask="url(#mask0_31_1660)">
<g filter="url(#filter1_d_31_1660)">
<path d="M42 20.4816C49.0088 20.4816 49.84 20.5078 52.6094 20.6347C59.7231 20.9585 63.0459 24.3337 63.3697 31.395C63.4966 34.1622 63.5206 34.9934 63.5206 42.0022C63.5206 49.0131 63.4944 49.8422 63.3697 52.6094C63.0438 59.6641 59.7297 63.0459 52.6094 63.3697C49.84 63.4966 49.0131 63.5228 42 63.5228C34.9912 63.5228 34.16 63.4966 31.3928 63.3697C24.2616 63.0438 20.9562 59.6531 20.6325 52.6072C20.5056 49.84 20.4794 49.0109 20.4794 42C20.4794 34.9912 20.5078 34.1622 20.6325 31.3928C20.9585 24.3338 24.2725 20.9562 31.3928 20.6325C34.1622 20.5078 34.9912 20.4816 42 20.4816ZM42 15.75C34.871 15.75 33.9785 15.7806 31.1784 15.9075C21.6453 16.345 16.3472 21.6344 15.9097 31.1763C15.7806 33.9785 15.75 34.871 15.75 42C15.75 49.129 15.7806 50.0238 15.9075 52.8237C16.345 62.3569 21.6344 67.6548 31.1763 68.0925C33.9785 68.2192 34.871 68.25 42 68.25C49.129 68.25 50.0238 68.2192 52.8237 68.0925C62.3481 67.6548 67.6594 62.3656 68.0905 52.8237C68.2192 50.0238 68.25 49.129 68.25 42C68.25 34.871 68.2192 33.9785 68.0925 31.1784C67.664 21.6541 62.3678 16.3472 52.826 15.9097C50.0238 15.7806 49.129 15.75 42 15.75ZM42 28.5206C34.556 28.5206 28.5206 34.556 28.5206 42C28.5206 49.444 34.556 55.4815 42 55.4815C49.444 55.4815 55.4794 49.4463 55.4794 42C55.4794 34.556 49.444 28.5206 42 28.5206ZM42 50.75C37.1678 50.75 33.25 46.8344 33.25 42C33.25 37.1678 37.1678 33.25 42 33.25C46.8322 33.25 50.75 37.1678 50.75 42C50.75 46.8344 46.8322 50.75 42 50.75ZM56.0131 24.8391C54.2719 24.8391 52.8609 26.25 52.8609 27.9891C52.8609 29.7281 54.2719 31.1391 56.0131 31.1391C57.7522 31.1391 59.1609 29.7281 59.1609 27.9891C59.1609 26.25 57.7522 24.8391 56.0131 24.8391Z" fill="white"/>
<path d="M42 20.4816C49.0088 20.4816 49.84 20.5078 52.6094 20.6347C59.7231 20.9585 63.0459 24.3337 63.3697 31.395C63.4966 34.1622 63.5206 34.9934 63.5206 42.0022C63.5206 49.0131 63.4944 49.8422 63.3697 52.6094C63.0438 59.6641 59.7297 63.0459 52.6094 63.3697C49.84 63.4966 49.0131 63.5228 42 63.5228C34.9912 63.5228 34.16 63.4966 31.3928 63.3697C24.2616 63.0438 20.9562 59.6531 20.6325 52.6072C20.5056 49.84 20.4794 49.0109 20.4794 42C20.4794 34.9912 20.5078 34.1622 20.6325 31.3928C20.9585 24.3338 24.2725 20.9562 31.3928 20.6325C34.1622 20.5078 34.9912 20.4816 42 20.4816ZM42 15.75C34.871 15.75 33.9785 15.7806 31.1784 15.9075C21.6453 16.345 16.3472 21.6344 15.9097 31.1763C15.7806 33.9785 15.75 34.871 15.75 42C15.75 49.129 15.7806 50.0238 15.9075 52.8237C16.345 62.3569 21.6344 67.6548 31.1763 68.0925C33.9785 68.2192 34.871 68.25 42 68.25C49.129 68.25 50.0238 68.2192 52.8237 68.0925C62.3481 67.6548 67.6594 62.3656 68.0905 52.8237C68.2192 50.0238 68.25 49.129 68.25 42C68.25 34.871 68.2192 33.9785 68.0925 31.1784C67.664 21.6541 62.3678 16.3472 52.826 15.9097C50.0238 15.7806 49.129 15.75 42 15.75ZM42 28.5206C34.556 28.5206 28.5206 34.556 28.5206 42C28.5206 49.444 34.556 55.4815 42 55.4815C49.444 55.4815 55.4794 49.4463 55.4794 42C55.4794 34.556 49.444 28.5206 42 28.5206ZM42 50.75C37.1678 50.75 33.25 46.8344 33.25 42C33.25 37.1678 37.1678 33.25 42 33.25C46.8322 33.25 50.75 37.1678 50.75 42C50.75 46.8344 46.8322 50.75 42 50.75ZM56.0131 24.8391C54.2719 24.8391 52.8609 26.25 52.8609 27.9891C52.8609 29.7281 54.2719 31.1391 56.0131 31.1391C57.7522 31.1391 59.1609 29.7281 59.1609 27.9891C59.1609 26.25 57.7522 24.8391 56.0131 24.8391Z" fill="#FF0045"/>
<path d="M42 20.4816C49.0088 20.4816 49.84 20.5078 52.6094 20.6347C59.7231 20.9585 63.0459 24.3337 63.3697 31.395C63.4966 34.1622 63.5206 34.9934 63.5206 42.0022C63.5206 49.0131 63.4944 49.8422 63.3697 52.6094C63.0438 59.6641 59.7297 63.0459 52.6094 63.3697C49.84 63.4966 49.0131 63.5228 42 63.5228C34.9912 63.5228 34.16 63.4966 31.3928 63.3697C24.2616 63.0438 20.9562 59.6531 20.6325 52.6072C20.5056 49.84 20.4794 49.0109 20.4794 42C20.4794 34.9912 20.5078 34.1622 20.6325 31.3928C20.9585 24.3338 24.2725 20.9562 31.3928 20.6325C34.1622 20.5078 34.9912 20.4816 42 20.4816ZM42 15.75C34.871 15.75 33.9785 15.7806 31.1784 15.9075C21.6453 16.345 16.3472 21.6344 15.9097 31.1763C15.7806 33.9785 15.75 34.871 15.75 42C15.75 49.129 15.7806 50.0238 15.9075 52.8237C16.345 62.3569 21.6344 67.6548 31.1763 68.0925C33.9785 68.2192 34.871 68.25 42 68.25C49.129 68.25 50.0238 68.2192 52.8237 68.0925C62.3481 67.6548 67.6594 62.3656 68.0905 52.8237C68.2192 50.0238 68.25 49.129 68.25 42C68.25 34.871 68.2192 33.9785 68.0925 31.1784C67.664 21.6541 62.3678 16.3472 52.826 15.9097C50.0238 15.7806 49.129 15.75 42 15.75ZM42 28.5206C34.556 28.5206 28.5206 34.556 28.5206 42C28.5206 49.444 34.556 55.4815 42 55.4815C49.444 55.4815 55.4794 49.4463 55.4794 42C55.4794 34.556 49.444 28.5206 42 28.5206ZM42 50.75C37.1678 50.75 33.25 46.8344 33.25 42C33.25 37.1678 37.1678 33.25 42 33.25C46.8322 33.25 50.75 37.1678 50.75 42C50.75 46.8344 46.8322 50.75 42 50.75ZM56.0131 24.8391C54.2719 24.8391 52.8609 26.25 52.8609 27.9891C52.8609 29.7281 54.2719 31.1391 56.0131 31.1391C57.7522 31.1391 59.1609 29.7281 59.1609 27.9891C59.1609 26.25 57.7522 24.8391 56.0131 24.8391Z" fill="url(#paint2_radial_31_1660)"/>
<path d="M42 20.4816C49.0088 20.4816 49.84 20.5078 52.6094 20.6347C59.7231 20.9585 63.0459 24.3337 63.3697 31.395C63.4966 34.1622 63.5206 34.9934 63.5206 42.0022C63.5206 49.0131 63.4944 49.8422 63.3697 52.6094C63.0438 59.6641 59.7297 63.0459 52.6094 63.3697C49.84 63.4966 49.0131 63.5228 42 63.5228C34.9912 63.5228 34.16 63.4966 31.3928 63.3697C24.2616 63.0438 20.9562 59.6531 20.6325 52.6072C20.5056 49.84 20.4794 49.0109 20.4794 42C20.4794 34.9912 20.5078 34.1622 20.6325 31.3928C20.9585 24.3338 24.2725 20.9562 31.3928 20.6325C34.1622 20.5078 34.9912 20.4816 42 20.4816ZM42 15.75C34.871 15.75 33.9785 15.7806 31.1784 15.9075C21.6453 16.345 16.3472 21.6344 15.9097 31.1763C15.7806 33.9785 15.75 34.871 15.75 42C15.75 49.129 15.7806 50.0238 15.9075 52.8237C16.345 62.3569 21.6344 67.6548 31.1763 68.0925C33.9785 68.2192 34.871 68.25 42 68.25C49.129 68.25 50.0238 68.2192 52.8237 68.0925C62.3481 67.6548 67.6594 62.3656 68.0905 52.8237C68.2192 50.0238 68.25 49.129 68.25 42C68.25 34.871 68.2192 33.9785 68.0925 31.1784C67.664 21.6541 62.3678 16.3472 52.826 15.9097C50.0238 15.7806 49.129 15.75 42 15.75ZM42 28.5206C34.556 28.5206 28.5206 34.556 28.5206 42C28.5206 49.444 34.556 55.4815 42 55.4815C49.444 55.4815 55.4794 49.4463 55.4794 42C55.4794 34.556 49.444 28.5206 42 28.5206ZM42 50.75C37.1678 50.75 33.25 46.8344 33.25 42C33.25 37.1678 37.1678 33.25 42 33.25C46.8322 33.25 50.75 37.1678 50.75 42C50.75 46.8344 46.8322 50.75 42 50.75ZM56.0131 24.8391C54.2719 24.8391 52.8609 26.25 52.8609 27.9891C52.8609 29.7281 54.2719 31.1391 56.0131 31.1391C57.7522 31.1391 59.1609 29.7281 59.1609 27.9891C59.1609 26.25 57.7522 24.8391 56.0131 24.8391Z" fill="url(#paint3_radial_31_1660)"/>
</g>
</g>
</g>
</g>
<defs>
<filter id="filter0_i_31_1660" x="5.25" y="5.25" width="73.5" height="77.5" filterUnits="userSpaceOnUse" color-interpolation-filters="sRGB">
<feFlood flood-opacity="0" result="BackgroundImageFix"/>
<feBlend mode="normal" in="SourceGraphic" in2="BackgroundImageFix" result="shape"/>
<feColorMatrix in="SourceAlpha" type="matrix" values="0 0 0 0 0 0 0 0 0 0 0 0 0 0 0 0 0 0 127 0" result="hardAlpha"/>
<feOffset dy="4"/>
<feGaussianBlur stdDeviation="2"/>
<feComposite in2="hardAlpha" operator="arithmetic" k2="-1" k3="1"/>
<feColorMatrix type="matrix" values="0 0 0 0 0 0 0 0 0 0 0 0 0 0 0 0 0 0 0.25 0"/>
<feBlend mode="normal" in2="shape" result="effect1_innerShadow_31_1660"/>
</filter>
<filter id="filter1_d_31_1660" x="11.75" y="13.75" width="60.5" height="60.5" filterUnits="userSpaceOnUse" color-interpolation-filters="sRGB">
<feFlood flood-opacity="0" result="BackgroundImageFix"/>
<feColorMatrix in="SourceAlpha" type="matrix" values="0 0 0 0 0 0 0 0 0 0 0 0 0 0 0 0 0 0 127 0" result="hardAlpha"/>
<feOffset dy="2"/>
<feGaussianBlur stdDeviation="2"/>
<feComposite in2="hardAlpha" operator="out"/>
<feColorMatrix type="matrix" values="0 0 0 0 0 0 0 0 0 0 0 0 0 0 0 0 0 0 0.25 0"/>
<feBlend mode="normal" in2="BackgroundImageFix" result="effect1_dropShadow_31_1660"/>
<feBlend mode="normal" in="SourceGraphic" in2="effect1_dropShadow_31_1660" result="shape"/>
</filter>
<radialGradient id="paint0_radial_31_1660" cx="0" cy="0" r="1" gradientUnits="userSpaceOnUse" gradientTransform="translate(84) rotate(135) scale(118.794)">
<stop stop-color="#B000FF"/>
<stop offset="1" stop-color="#DFDFDF" stop-opacity="0"/>
</radialGradient>
<radialGradient id="paint1_radial_31_1660" cx="0" cy="0" r="1" gradientUnits="userSpaceOnUse" gradientTransform="translate(-2.50339e-06 84) rotate(-63.4349) scale(93.9146)">
<stop stop-color="#FFB000"/>
<stop offset="1" stop-color="#DFDFDF" stop-opacity="0"/>
</radialGradient>
<radialGradient id="paint2_radial_31_1660" cx="0" cy="0" r="1" gradientUnits="userSpaceOnUse" gradientTransform="translate(68.25 15.75) rotate(135) scale(74.2462)">
<stop stop-color="#B000FF"/>
<stop offset="1" stop-color="#DFDFDF" stop-opacity="0"/>
</radialGradient>
<radialGradient id="paint3_radial_31_1660" cx="0" cy="0" r="1" gradientUnits="userSpaceOnUse" gradientTransform="translate(15.75 68.25) rotate(-63.4349) scale(58.6968)">
<stop stop-color="#FFB000"/>
<stop offset="1" stop-color="#DFDFDF" stop-opacity="0"/>
</radialGradient>
<clipPath id="clip0_31_1660">
<rect width="84" height="84" fill="white"/>
</clipPath>
</defs>
</svg>
