<svg width="84" height="84" viewBox="0 0 84 84" fill="none" xmlns="http://www.w3.org/2000/svg">
<g clip-path="url(#clip0_31_1683)">
<path d="M63 0H21C9.40202 0 0 9.40202 0 21V63C0 74.598 9.40202 84 21 84H63C74.598 84 84 74.598 84 63V21C84 9.40202 74.598 0 63 0Z" fill="url(#paint0_linear_31_1683)"/>
<g filter="url(#filter0_i_31_1683)">
<path d="M63 5.25H21C12.3015 5.25 5.25 12.3015 5.25 21V63C5.25 71.6985 12.3015 78.75 21 78.75H63C71.6985 78.75 78.75 71.6985 78.75 63V21C78.75 12.3015 71.6985 5.25 63 5.25Z" fill="black" fill-opacity="0.7"/>
<mask id="mask0_31_1683" style="mask-type:luminance" maskUnits="userSpaceOnUse" x="10" y="10" width="64" height="64">
<path d="M73.5 10.5H10.5V73.5H73.5V10.5Z" fill="white"/>
</mask>
<g mask="url(#mask0_31_1683)">
<path d="M22.0621 53.8259L13.5901 47.1359L18.5761 37.902L26.0701 40.41L22.0621 53.8259Z" fill="#FC801D"/>
<g filter="url(#filter1_d_31_1683)">
<path d="M70.5418 28.554L69.5043 61.914L47.3162 70.8002L35.2322 63L70.5418 28.554Z" fill="#087CFA"/>
</g>
<g filter="url(#filter2_d_31_1683)">
<path d="M70.5425 28.554L59.5621 39.264L45.4622 21.966L52.4222 14.142L70.5425 28.554Z" fill="#7557B2"/>
</g>
<g filter="url(#filter3_d_31_1683)">
<path fill-rule="evenodd" clip-rule="evenodd" d="M12.9421 36.018L26.0702 40.41L59.5621 39.264L40.1341 15.426L21.2822 13.2L12.9421 36.018Z" fill="url(#paint1_linear_31_1683)"/>
</g>
<g filter="url(#filter4_d_31_1683)">
<path d="M17.5862 69.3781L35.2322 63L59.5622 39.264L26.0702 40.41L21.2822 56.436L17.5862 69.3781Z" fill="#FF318C"/>
</g>
<g filter="url(#filter5_d_31_1683)">
<path d="M24.0002 24H60.0003V60H24.0002V24Z" fill="black"/>
</g>
<path d="M28.4883 53.196H41.9883V55.446H28.4883V53.196Z" fill="white"/>
<path d="M35.2262 30.972V28.512H28.5122V30.972H30.3962V39.4681H28.5122V41.928H35.2262V39.4681H33.3482V30.972H35.2262Z" fill="white"/>
<path d="M41.6641 42.12C40.7491 42.1496 39.8419 41.943 39.0301 41.52C38.3632 41.161 37.769 40.6807 37.2781 40.104L39.132 38.034C39.4708 38.4162 39.8628 38.7476 40.296 39.018C40.6832 39.258 41.1306 39.3829 41.5861 39.378C41.8296 39.3897 42.0729 39.3492 42.2996 39.2592C42.5262 39.1691 42.7309 39.0316 42.9 38.856C43.2615 38.3673 43.4321 37.7636 43.3801 37.158V28.5H46.3801V37.29C46.3935 38.0019 46.2818 38.7107 46.05 39.384C45.8528 39.9437 45.5302 40.4508 45.107 40.8668C44.6838 41.2828 44.1711 41.5965 43.6081 41.784C42.9687 42.0004 42.297 42.106 41.6221 42.096" fill="white"/>
</g>
</g>
</g>
<defs>
<filter id="filter0_i_31_1683" x="5.25" y="5.25" width="73.5" height="77.5" filterUnits="userSpaceOnUse" color-interpolation-filters="sRGB">
<feFlood flood-opacity="0" result="BackgroundImageFix"/>
<feBlend mode="normal" in="SourceGraphic" in2="BackgroundImageFix" result="shape"/>
<feColorMatrix in="SourceAlpha" type="matrix" values="0 0 0 0 0 0 0 0 0 0 0 0 0 0 0 0 0 0 127 0" result="hardAlpha"/>
<feOffset dy="4"/>
<feGaussianBlur stdDeviation="2"/>
<feComposite in2="hardAlpha" operator="arithmetic" k2="-1" k3="1"/>
<feColorMatrix type="matrix" values="0 0 0 0 0 0 0 0 0 0 0 0 0 0 0 0 0 0 0.25 0"/>
<feBlend mode="normal" in2="shape" result="effect1_innerShadow_31_1683"/>
</filter>
<filter id="filter1_d_31_1683" x="31.2322" y="26.554" width="43.3096" height="50.2462" filterUnits="userSpaceOnUse" color-interpolation-filters="sRGB">
<feFlood flood-opacity="0" result="BackgroundImageFix"/>
<feColorMatrix in="SourceAlpha" type="matrix" values="0 0 0 0 0 0 0 0 0 0 0 0 0 0 0 0 0 0 127 0" result="hardAlpha"/>
<feOffset dy="2"/>
<feGaussianBlur stdDeviation="2"/>
<feComposite in2="hardAlpha" operator="out"/>
<feColorMatrix type="matrix" values="0 0 0 0 0 0 0 0 0 0 0 0 0 0 0 0 0 0 0.25 0"/>
<feBlend mode="normal" in2="BackgroundImageFix" result="effect1_dropShadow_31_1683"/>
<feBlend mode="normal" in="SourceGraphic" in2="effect1_dropShadow_31_1683" result="shape"/>
</filter>
<filter id="filter2_d_31_1683" x="41.4622" y="12.142" width="33.0803" height="33.122" filterUnits="userSpaceOnUse" color-interpolation-filters="sRGB">
<feFlood flood-opacity="0" result="BackgroundImageFix"/>
<feColorMatrix in="SourceAlpha" type="matrix" values="0 0 0 0 0 0 0 0 0 0 0 0 0 0 0 0 0 0 127 0" result="hardAlpha"/>
<feOffset dy="2"/>
<feGaussianBlur stdDeviation="2"/>
<feComposite in2="hardAlpha" operator="out"/>
<feColorMatrix type="matrix" values="0 0 0 0 0 0 0 0 0 0 0 0 0 0 0 0 0 0 0.25 0"/>
<feBlend mode="normal" in2="BackgroundImageFix" result="effect1_dropShadow_31_1683"/>
<feBlend mode="normal" in="SourceGraphic" in2="effect1_dropShadow_31_1683" result="shape"/>
</filter>
<filter id="filter3_d_31_1683" x="8.94214" y="11.2" width="54.6201" height="35.21" filterUnits="userSpaceOnUse" color-interpolation-filters="sRGB">
<feFlood flood-opacity="0" result="BackgroundImageFix"/>
<feColorMatrix in="SourceAlpha" type="matrix" values="0 0 0 0 0 0 0 0 0 0 0 0 0 0 0 0 0 0 127 0" result="hardAlpha"/>
<feOffset dy="2"/>
<feGaussianBlur stdDeviation="2"/>
<feComposite in2="hardAlpha" operator="out"/>
<feColorMatrix type="matrix" values="0 0 0 0 0 0 0 0 0 0 0 0 0 0 0 0 0 0 0.25 0"/>
<feBlend mode="normal" in2="BackgroundImageFix" result="effect1_dropShadow_31_1683"/>
<feBlend mode="normal" in="SourceGraphic" in2="effect1_dropShadow_31_1683" result="shape"/>
</filter>
<filter id="filter4_d_31_1683" x="13.5862" y="37.264" width="49.9761" height="38.1141" filterUnits="userSpaceOnUse" color-interpolation-filters="sRGB">
<feFlood flood-opacity="0" result="BackgroundImageFix"/>
<feColorMatrix in="SourceAlpha" type="matrix" values="0 0 0 0 0 0 0 0 0 0 0 0 0 0 0 0 0 0 127 0" result="hardAlpha"/>
<feOffset dy="2"/>
<feGaussianBlur stdDeviation="2"/>
<feComposite in2="hardAlpha" operator="out"/>
<feColorMatrix type="matrix" values="0 0 0 0 0 0 0 0 0 0 0 0 0 0 0 0 0 0 0.25 0"/>
<feBlend mode="normal" in2="BackgroundImageFix" result="effect1_dropShadow_31_1683"/>
<feBlend mode="normal" in="SourceGraphic" in2="effect1_dropShadow_31_1683" result="shape"/>
</filter>
<filter id="filter5_d_31_1683" x="20.0002" y="22" width="44" height="44.0001" filterUnits="userSpaceOnUse" color-interpolation-filters="sRGB">
<feFlood flood-opacity="0" result="BackgroundImageFix"/>
<feColorMatrix in="SourceAlpha" type="matrix" values="0 0 0 0 0 0 0 0 0 0 0 0 0 0 0 0 0 0 127 0" result="hardAlpha"/>
<feOffset dy="2"/>
<feGaussianBlur stdDeviation="2"/>
<feComposite in2="hardAlpha" operator="out"/>
<feColorMatrix type="matrix" values="0 0 0 0 0 0 0 0 0 0 0 0 0 0 0 0 0 0 0.25 0"/>
<feBlend mode="normal" in2="BackgroundImageFix" result="effect1_dropShadow_31_1683"/>
<feBlend mode="normal" in="SourceGraphic" in2="effect1_dropShadow_31_1683" result="shape"/>
</filter>
<linearGradient id="paint0_linear_31_1683" x1="42" y1="0" x2="42" y2="84" gradientUnits="userSpaceOnUse">
<stop stop-color="#FC801D"/>
<stop offset="0.244792" stop-color="#FE285B"/>
<stop offset="0.510417" stop-color="#FF318C"/>
<stop offset="0.744792" stop-color="#7557B2"/>
<stop offset="1" stop-color="#087CFA"/>
</linearGradient>
<linearGradient id="paint1_linear_31_1683" x1="21.7321" y1="26.466" x2="57.7802" y2="86.0941" gradientUnits="userSpaceOnUse">
<stop stop-color="#FE2857"/>
<stop offset="0.08" stop-color="#FE295F"/>
<stop offset="0.21" stop-color="#FF2D76"/>
<stop offset="0.3" stop-color="#FF318C"/>
<stop offset="0.429456" stop-color="#EA3896"/>
<stop offset="0.55" stop-color="#B248AE"/>
<stop offset="0.79" stop-color="#5A63D6"/>
<stop offset="1" stop-color="#087CFA"/>
</linearGradient>
<clipPath id="clip0_31_1683">
<rect width="84" height="84" fill="white"/>
</clipPath>
</defs>
</svg>
