<svg width="84" height="84" viewBox="0 0 84 84" fill="none" xmlns="http://www.w3.org/2000/svg">
<g clip-path="url(#clip0_31_1705)">
<path d="M63 0H21C9.40202 0 0 9.40202 0 21V63C0 74.598 9.40202 84 21 84H63C74.598 84 84 74.598 84 63V21C84 9.40202 74.598 0 63 0Z" fill="url(#paint0_linear_31_1705)"/>
<path d="M63 0H21C9.40202 0 0 9.40202 0 21V63C0 74.598 9.40202 84 21 84H63C74.598 84 84 74.598 84 63V21C84 9.40202 74.598 0 63 0Z" fill="url(#paint1_linear_31_1705)"/>
<g filter="url(#filter0_i_31_1705)">
<path d="M63 5.25H21C12.3015 5.25 5.25 12.3015 5.25 21V63C5.25 71.6985 12.3015 78.75 21 78.75H63C71.6985 78.75 78.75 71.6985 78.75 63V21C78.75 12.3015 71.6985 5.25 63 5.25Z" fill="black" fill-opacity="0.7"/>
<g filter="url(#filter1_d_31_1705)">
<path d="M33.8371 51.1137C34.9136 53.2716 49.1046 53.2492 50.1685 51.1137C51.2313 48.9807 44.1938 36.173 42.0034 36.1705C39.8119 36.1705 32.7607 48.9558 33.8371 51.1137Z" fill="url(#paint2_linear_31_1705)"/>
</g>
<g filter="url(#filter2_d_31_1705)">
<path d="M17.3963 62.0853C20.6356 68.5899 63.4057 68.5151 66.61 62.0853C69.8145 55.6553 48.6022 17.0625 42.0038 17.0625C35.4028 17.0625 14.1569 55.5804 17.3963 62.0853ZM25.8831 56.4411C23.7602 52.1789 37.683 26.9414 42.0063 26.9414C46.3308 26.9414 60.23 52.2251 58.1294 56.4411C56.0302 60.6571 28.0061 60.7033 25.8831 56.4411Z" fill="url(#paint3_linear_31_1705)"/>
</g>
</g>
</g>
<defs>
<filter id="filter0_i_31_1705" x="5.25" y="5.25" width="73.5" height="77.5" filterUnits="userSpaceOnUse" color-interpolation-filters="sRGB">
<feFlood flood-opacity="0" result="BackgroundImageFix"/>
<feBlend mode="normal" in="SourceGraphic" in2="BackgroundImageFix" result="shape"/>
<feColorMatrix in="SourceAlpha" type="matrix" values="0 0 0 0 0 0 0 0 0 0 0 0 0 0 0 0 0 0 127 0" result="hardAlpha"/>
<feOffset dy="4"/>
<feGaussianBlur stdDeviation="2"/>
<feComposite in2="hardAlpha" operator="arithmetic" k2="-1" k3="1"/>
<feColorMatrix type="matrix" values="0 0 0 0 0 0 0 0 0 0 0 0 0 0 0 0 0 0 0.25 0"/>
<feBlend mode="normal" in2="shape" result="effect1_innerShadow_31_1705"/>
</filter>
<filter id="filter1_d_31_1705" x="29.7261" y="34.1705" width="24.551" height="24.5532" filterUnits="userSpaceOnUse" color-interpolation-filters="sRGB">
<feFlood flood-opacity="0" result="BackgroundImageFix"/>
<feColorMatrix in="SourceAlpha" type="matrix" values="0 0 0 0 0 0 0 0 0 0 0 0 0 0 0 0 0 0 127 0" result="hardAlpha"/>
<feOffset dy="2"/>
<feGaussianBlur stdDeviation="2"/>
<feComposite in2="hardAlpha" operator="out"/>
<feColorMatrix type="matrix" values="0 0 0 0 0 0 0 0 0 0 0 0 0 0 0 0 0 0 0.25 0"/>
<feBlend mode="normal" in2="BackgroundImageFix" result="effect1_dropShadow_31_1705"/>
<feBlend mode="normal" in="SourceGraphic" in2="effect1_dropShadow_31_1705" result="shape"/>
</filter>
<filter id="filter2_d_31_1705" x="13.0625" y="15.0625" width="57.875" height="57.8733" filterUnits="userSpaceOnUse" color-interpolation-filters="sRGB">
<feFlood flood-opacity="0" result="BackgroundImageFix"/>
<feColorMatrix in="SourceAlpha" type="matrix" values="0 0 0 0 0 0 0 0 0 0 0 0 0 0 0 0 0 0 127 0" result="hardAlpha"/>
<feOffset dy="2"/>
<feGaussianBlur stdDeviation="2"/>
<feComposite in2="hardAlpha" operator="out"/>
<feColorMatrix type="matrix" values="0 0 0 0 0 0 0 0 0 0 0 0 0 0 0 0 0 0 0.25 0"/>
<feBlend mode="normal" in2="BackgroundImageFix" result="effect1_dropShadow_31_1705"/>
<feBlend mode="normal" in="SourceGraphic" in2="effect1_dropShadow_31_1705" result="shape"/>
</filter>
<linearGradient id="paint0_linear_31_1705" x1="939.934" y1="1144.9" x2="825.248" y2="1146.82" gradientUnits="userSpaceOnUse">
<stop stop-color="#FCFCFC"/>
<stop offset="1" stop-color="#D0D6DC"/>
</linearGradient>
<linearGradient id="paint1_linear_31_1705" x1="14.7214" y1="34.2943" x2="84.3701" y2="74.5047" gradientUnits="userSpaceOnUse">
<stop stop-color="#AA5CC3"/>
<stop offset="1" stop-color="#00A4DC"/>
</linearGradient>
<linearGradient id="paint2_linear_31_1705" x1="25.803" y1="37.4241" x2="67.156" y2="61.2995" gradientUnits="userSpaceOnUse">
<stop stop-color="#AA5CC3"/>
<stop offset="1" stop-color="#00A4DC"/>
</linearGradient>
<linearGradient id="paint3_linear_31_1705" x1="25.8033" y1="37.4241" x2="67.1567" y2="61.2995" gradientUnits="userSpaceOnUse">
<stop stop-color="#AA5CC3"/>
<stop offset="1" stop-color="#00A4DC"/>
</linearGradient>
<clipPath id="clip0_31_1705">
<rect width="84" height="84" fill="white"/>
</clipPath>
</defs>
</svg>
