<svg width="84" height="84" viewBox="0 0 84 84" fill="none" xmlns="http://www.w3.org/2000/svg">
<g clip-path="url(#clip0_31_1714)">
<path d="M63 0H21C9.40202 0 0 9.40202 0 21V63C0 74.598 9.40202 84 21 84H63C74.598 84 84 74.598 84 63V21C84 9.40202 74.598 0 63 0Z" fill="url(#paint0_linear_31_1714)"/>
<g filter="url(#filter0_i_31_1714)">
<path d="M63 5.25H21C12.3015 5.25 5.25 12.3015 5.25 21V63C5.25 71.6985 12.3015 78.75 21 78.75H63C71.6985 78.75 78.75 71.6985 78.75 63V21C78.75 12.3015 71.6985 5.25 63 5.25Z" fill="black" fill-opacity="0.7"/>
<mask id="mask0_31_1714" style="mask-type:luminance" maskUnits="userSpaceOnUse" x="10" y="10" width="64" height="64">
<path d="M73.5 10.5H10.5V73.5H73.5V10.5Z" fill="white"/>
</mask>
<g mask="url(#mask0_31_1714)">
<g filter="url(#filter1_d_31_1714)">
<path d="M43.3125 30.1875C43.3125 33.3204 42.068 36.3249 39.8527 38.5402C37.6374 40.7555 34.6329 42 31.5 42C28.3671 42 25.3626 40.7555 23.1473 38.5402C20.932 36.3249 19.6875 33.3204 19.6875 30.1875C19.6875 27.0546 20.932 24.0501 23.1473 21.8348C25.3626 19.6195 28.3671 18.375 31.5 18.375C34.6329 18.375 37.6374 19.6195 39.8527 21.8348C42.068 24.0501 43.3125 27.0546 43.3125 30.1875Z" fill="url(#paint1_linear_31_1714)"/>
<path d="M41.9003 16.5087C35.5255 16.5087 29.1507 18.9512 24.2655 23.835C14.4966 33.604 14.4966 49.3343 24.2655 59.1032C34.0345 68.8722 49.7648 68.8722 59.5337 59.1032C69.3027 49.3343 69.3027 33.604 59.5337 23.835C54.6499 18.9512 48.2751 16.5087 41.9003 16.5087Z" fill="url(#paint2_linear_31_1714)"/>
<path opacity="0.4" fill-rule="evenodd" clip-rule="evenodd" d="M24.209 26.1831L29.8685 17.3841L46.4703 33.7549C38.0178 30.9501 36.4467 30.895 24.6211 31.5985L24.209 26.1831Z" fill="url(#paint3_linear_31_1714)"/>
<path d="M26.25 13.822C24.1224 13.822 21.9936 14.4769 22.3125 15.75C23.625 21 24.9375 52.5 23.625 55.125C22.7496 56.8746 19.6875 56.4375 19.6875 61.6875C19.6875 65.4505 23.3927 72.1875 26.25 72.1875C28.8317 72.177 32.8125 65.4505 32.8125 61.6875C32.8125 56.4375 29.7504 56.8746 28.875 55.125C27.5625 52.5 28.875 21 30.1875 15.75C30.5064 14.4769 28.3776 13.822 26.25 13.822ZM25.5938 15.1345V17.0625L27.0703 15.1751L28.2594 15.4219L26.7002 17.3093L28.2594 19.278L27.0703 19.6468L25.5938 17.5547V19.4421L24.4453 19.6061V15.2171L25.5938 15.1345Z" fill="url(#paint4_linear_31_1714)"/>
<path d="M43.3125 30.1875C43.3125 33.3204 42.068 36.3249 39.8527 38.5402C37.6374 40.7555 34.6329 42 31.5 42C28.3671 42 25.3626 40.7555 23.1473 38.5402C20.932 36.3249 19.6875 33.3204 19.6875 30.1875C19.6875 27.0546 20.932 24.0501 23.1473 21.8348C25.3626 19.6195 28.3671 18.375 31.5 18.375C34.6329 18.375 37.6374 19.6195 39.8527 21.8348C42.068 24.0501 43.3125 27.0546 43.3125 30.1875Z" fill="url(#paint5_linear_31_1714)"/>
<path d="M55.1138 41.6767C55.1138 45.2397 53.6983 48.6568 51.1786 51.1763C48.6589 53.6957 45.2415 55.1112 41.678 55.1112C38.1147 55.1112 34.6973 53.6957 32.1776 51.1763C29.6578 48.6568 28.2423 45.2397 28.2423 41.6767C28.2423 38.1136 29.6578 34.6965 32.1776 32.1771C34.6973 29.6576 38.1147 28.2422 41.678 28.2422C45.2415 28.2422 48.6589 29.6576 51.1786 32.1771C53.6983 34.6965 55.1138 38.1136 55.1138 41.6767Z" fill="url(#paint6_linear_31_1714)"/>
<path d="M38.1282 47.2894V35.7223L48.0376 41.4264L38.1282 47.2894Z" fill="url(#paint7_linear_31_1714)"/>
<path opacity="0.052" d="M41.2453 34.3613C39.9617 34.4282 38.7306 34.8732 37.6267 35.5202C38.052 36.7159 38.7279 36.6529 39.6664 36.1069C42.0407 35.242 44.7681 36.1161 46.4034 37.9877C47.6083 37.3183 47.2027 36.5492 46.2604 35.9402C44.8455 34.8272 43.0474 34.255 41.2453 34.3613ZM34.6828 39.2569C33.5422 42.2678 34.7104 45.8115 37.2146 47.7396C38.2922 46.8379 37.7436 46.2171 36.9127 45.4388C35.5228 43.7076 35.3076 41.2309 36.1751 39.2333C35.6698 39.2884 34.6815 38.203 34.6828 39.2569ZM48.489 41.0577C47.0833 40.8883 47.9154 42.5867 47.4416 43.4385C47.0741 44.8587 46.0714 46.0517 44.8626 46.8747C45.2983 48.1845 46.0123 48.0178 46.7749 47.128C48.4509 45.5937 49.2489 43.2364 49.0678 40.971C48.8749 40.9999 48.6819 41.0288 48.489 41.059M39.1335 47.8275C38.4064 49.14 40.4224 49.0272 41.3083 49.1768C42.1247 49.207 42.9319 49.0941 43.7207 48.8907C43.7443 47.3262 42.6838 47.6346 41.5065 47.7724C40.8148 48.0992 39.1243 46.7342 39.1335 47.8275Z" fill="url(#paint8_radial_31_1714)"/>
<path opacity="0.052" d="M32.7233 35.4638C31.6129 37.0007 30.9855 38.8225 30.7073 40.6888C32.4726 41.3057 33.0265 40.471 33.2667 38.8907C34.4689 35.3653 37.9943 33.0422 41.6548 32.8952C42 30.8937 40.7427 30.6469 39.1729 31.1667C36.586 31.7625 34.2668 33.2982 32.7233 35.4638ZM32.2757 47.5243C34.6776 51.618 39.8265 53.5553 44.3546 52.462C44.3166 50.3908 43.096 50.446 41.4343 50.6809C38.1623 50.6756 35.1186 48.6321 33.6276 45.7905C33.2233 46.4205 31.063 46.5531 32.2757 47.5243ZM47.1109 33.3402C45.616 34.797 48.3355 35.4113 48.8749 36.7435C50.1651 38.4786 50.6074 40.7335 50.4355 42.8807C52.3438 43.5921 52.8124 42.6169 52.4948 40.9198C52.2821 37.5769 50.3147 34.4807 47.5453 32.5933C47.3996 32.8414 47.2553 33.0908 47.1096 33.3388M46.2302 50.3383C47.0663 52.3872 48.7988 49.9669 49.7897 49.0902C50.5785 48.1806 51.1967 47.1503 51.6928 46.057C49.9183 44.583 49.2923 46.0871 48.3617 47.5637C48.0966 48.661 44.9676 49.3382 46.2315 50.3397" fill="url(#paint9_radial_31_1714)"/>
<path d="M28.9276 56.8707C29.0824 56.9481 31.7271 57.813 31.7389 61.7007C31.7508 65.4702 28.0114 70.8882 26.1162 70.9013C24.0556 70.9131 20.5433 65.4689 20.4934 61.7007C20.4449 58.1044 23.1499 56.9717 23.3048 56.8707C25.2198 55.7708 27.1032 55.7577 28.9276 56.8707Z" fill="url(#paint10_linear_31_1714)"/>
<path opacity="0.36" d="M26.25 13.822C24.1225 13.822 21.9936 14.4769 22.3125 15.75C23.625 21 24.9375 52.5 23.625 55.125C23.3704 55.797 23.8337 55.1828 24.1172 54.961C25.3483 51.664 24.5516 20.9344 23.2562 15.75C22.9609 14.5688 24.78 13.9506 26.7422 13.8626C26.5755 13.8548 26.418 13.822 26.25 13.822Z" fill="white"/>
</g>
</g>
</g>
</g>
<defs>
<filter id="filter0_i_31_1714" x="5.25" y="5.25" width="73.5" height="77.5" filterUnits="userSpaceOnUse" color-interpolation-filters="sRGB">
<feFlood flood-opacity="0" result="BackgroundImageFix"/>
<feBlend mode="normal" in="SourceGraphic" in2="BackgroundImageFix" result="shape"/>
<feColorMatrix in="SourceAlpha" type="matrix" values="0 0 0 0 0 0 0 0 0 0 0 0 0 0 0 0 0 0 127 0" result="hardAlpha"/>
<feOffset dy="4"/>
<feGaussianBlur stdDeviation="2"/>
<feComposite in2="hardAlpha" operator="arithmetic" k2="-1" k3="1"/>
<feColorMatrix type="matrix" values="0 0 0 0 0 0 0 0 0 0 0 0 0 0 0 0 0 0 0.25 0"/>
<feBlend mode="normal" in2="shape" result="effect1_innerShadow_31_1714"/>
</filter>
<filter id="filter1_d_31_1714" x="12.9388" y="11.822" width="57.9215" height="66.3656" filterUnits="userSpaceOnUse" color-interpolation-filters="sRGB">
<feFlood flood-opacity="0" result="BackgroundImageFix"/>
<feColorMatrix in="SourceAlpha" type="matrix" values="0 0 0 0 0 0 0 0 0 0 0 0 0 0 0 0 0 0 127 0" result="hardAlpha"/>
<feOffset dy="2"/>
<feGaussianBlur stdDeviation="2"/>
<feComposite in2="hardAlpha" operator="out"/>
<feColorMatrix type="matrix" values="0 0 0 0 0 0 0 0 0 0 0 0 0 0 0 0 0 0 0.25 0"/>
<feBlend mode="normal" in2="BackgroundImageFix" result="effect1_dropShadow_31_1714"/>
<feBlend mode="normal" in="SourceGraphic" in2="effect1_dropShadow_31_1714" result="shape"/>
</filter>
<linearGradient id="paint0_linear_31_1714" x1="939.934" y1="1144.9" x2="825.248" y2="1146.82" gradientUnits="userSpaceOnUse">
<stop stop-color="#FCFCFC"/>
<stop offset="1" stop-color="#D0D6DC"/>
</linearGradient>
<linearGradient id="paint1_linear_31_1714" x1="516.613" y1="695.94" x2="548.389" y2="697.292" gradientUnits="userSpaceOnUse">
<stop stop-color="white"/>
<stop offset="1" stop-color="#DFE1E3"/>
</linearGradient>
<linearGradient id="paint2_linear_31_1714" x1="575.544" y1="696.924" x2="507.386" y2="698.066" gradientUnits="userSpaceOnUse">
<stop stop-color="#FCFCFC"/>
<stop offset="1" stop-color="#E9EAEB"/>
</linearGradient>
<linearGradient id="paint3_linear_31_1714" x1="21.2545" y1="37.8906" x2="32.4292" y2="38.6256" gradientUnits="userSpaceOnUse">
<stop/>
<stop offset="1" stop-opacity="0"/>
</linearGradient>
<linearGradient id="paint4_linear_31_1714" x1="26.25" y1="12.5816" x2="26.0859" y2="69.9694" gradientUnits="userSpaceOnUse">
<stop stop-color="#E0E0E0"/>
<stop offset="0.125" stop-color="#C0C0C0"/>
<stop offset="0.66" stop-color="#9B9B9B"/>
<stop offset="0.732" stop-color="#B3B3B3"/>
<stop offset="1" stop-color="#B1B1B1"/>
</linearGradient>
<linearGradient id="paint5_linear_31_1714" x1="520.196" y1="695.861" x2="538.164" y2="697.856" gradientUnits="userSpaceOnUse">
<stop stop-color="white"/>
<stop offset="1" stop-color="#EFF0F1"/>
</linearGradient>
<linearGradient id="paint6_linear_31_1714" x1="32.1864" y1="32.1635" x2="53.4873" y2="55.5998" gradientUnits="userSpaceOnUse">
<stop stop-color="#491309"/>
<stop offset="1" stop-color="#B6642D"/>
</linearGradient>
<linearGradient id="paint7_linear_31_1714" x1="31.8885" y1="31.3307" x2="50.7059" y2="51.2006" gradientUnits="userSpaceOnUse">
<stop stop-color="#FEE3A8"/>
<stop offset="1" stop-color="#FCDD99" stop-opacity="0"/>
</linearGradient>
<radialGradient id="paint8_radial_31_1714" cx="0" cy="0" r="1" gradientUnits="userSpaceOnUse" gradientTransform="translate(41.6692 41.7638) scale(7.42481)">
<stop stop-color="#FCDD99"/>
<stop offset="1" stop-color="#FCDD99" stop-opacity="0"/>
</radialGradient>
<radialGradient id="paint9_radial_31_1714" cx="0" cy="0" r="1" gradientUnits="userSpaceOnUse" gradientTransform="translate(41.647 41.8491) scale(10.9397 10.9397)">
<stop stop-color="#FCDD99"/>
<stop offset="1" stop-color="#FCDD99" stop-opacity="0"/>
</radialGradient>
<linearGradient id="paint10_linear_31_1714" x1="27.8868" y1="65.6382" x2="22.1708" y2="56.2892" gradientUnits="userSpaceOnUse">
<stop stop-color="#D6D6D6"/>
<stop offset="1" stop-color="#7A7A7A"/>
</linearGradient>
<clipPath id="clip0_31_1714">
<rect width="84" height="84" fill="white"/>
</clipPath>
</defs>
</svg>
