<svg width="84" height="84" viewBox="0 0 84 84" fill="none" xmlns="http://www.w3.org/2000/svg">
<g clip-path="url(#clip0_31_1756)">
<path d="M63 0H21C9.40202 0 0 9.40202 0 21V63C0 74.598 9.40202 84 21 84H63C74.598 84 84 74.598 84 63V21C84 9.40202 74.598 0 63 0Z" fill="url(#paint0_linear_31_1756)"/>
<g filter="url(#filter0_i_31_1756)">
<path d="M63 5.25H21C12.3015 5.25 5.25 12.3015 5.25 21V63C5.25 71.6985 12.3015 78.75 21 78.75H63C71.6985 78.75 78.75 71.6985 78.75 63V21C78.75 12.3015 71.6985 5.25 63 5.25Z" fill="black" fill-opacity="0.7"/>
<g filter="url(#filter1_d_31_1756)">
<path fill-rule="evenodd" clip-rule="evenodd" d="M44.625 19.0312H21C18.1005 19.0312 15.75 21.3817 15.75 24.2812V59.7188C15.75 62.6183 18.1005 64.9688 21 64.9688H63C65.8993 64.9688 68.25 62.6183 68.25 59.7188V42.6562L44.625 19.0312Z" fill="url(#paint1_linear_31_1756)"/>
</g>
<path d="M26.25 50.5312V54.4688C26.25 55.9185 27.4253 57.0938 28.875 57.0938H36.75M26.25 50.5312H36.75M26.25 50.5312V43.9688M36.75 57.0938V50.5312M36.75 57.0938H47.25M36.75 50.5312H47.25M36.75 50.5312V43.9688M26.25 43.9688H36.75M26.25 43.9688V40.0312C26.25 38.5815 27.4253 37.4062 28.875 37.4062H36.75M47.25 50.5312V57.0938M47.25 50.5312H57.75M47.25 50.5312V43.9688M36.75 43.9688H47.25M36.75 43.9688V37.4062M47.25 57.0938H55.125C56.5747 57.0938 57.75 55.9185 57.75 54.4688V50.5312M57.75 50.5312V43.9688M47.25 43.9688H57.75M47.25 43.9688V37.4062M57.75 43.9688V40.0312C57.75 38.5815 56.5747 37.4062 55.125 37.4062H47.25M36.75 37.4062H47.25" stroke="white" stroke-width="4"/>
<g filter="url(#filter2_d_31_1756)">
<path d="M68.2499 24.2812C68.2499 21.3817 65.8999 19.0312 63.0002 19.0312H52.5002L68.2499 34.7812V24.2812Z" fill="#97989A"/>
</g>
</g>
</g>
<defs>
<filter id="filter0_i_31_1756" x="5.25" y="5.25" width="73.5" height="77.5" filterUnits="userSpaceOnUse" color-interpolation-filters="sRGB">
<feFlood flood-opacity="0" result="BackgroundImageFix"/>
<feBlend mode="normal" in="SourceGraphic" in2="BackgroundImageFix" result="shape"/>
<feColorMatrix in="SourceAlpha" type="matrix" values="0 0 0 0 0 0 0 0 0 0 0 0 0 0 0 0 0 0 127 0" result="hardAlpha"/>
<feOffset dy="4"/>
<feGaussianBlur stdDeviation="2"/>
<feComposite in2="hardAlpha" operator="arithmetic" k2="-1" k3="1"/>
<feColorMatrix type="matrix" values="0 0 0 0 0 0 0 0 0 0 0 0 0 0 0 0 0 0 0.25 0"/>
<feBlend mode="normal" in2="shape" result="effect1_innerShadow_31_1756"/>
</filter>
<filter id="filter1_d_31_1756" x="11.75" y="17.0312" width="60.5" height="53.9375" filterUnits="userSpaceOnUse" color-interpolation-filters="sRGB">
<feFlood flood-opacity="0" result="BackgroundImageFix"/>
<feColorMatrix in="SourceAlpha" type="matrix" values="0 0 0 0 0 0 0 0 0 0 0 0 0 0 0 0 0 0 127 0" result="hardAlpha"/>
<feOffset dy="2"/>
<feGaussianBlur stdDeviation="2"/>
<feComposite in2="hardAlpha" operator="out"/>
<feColorMatrix type="matrix" values="0 0 0 0 0 0 0 0 0 0 0 0 0 0 0 0 0 0 0.25 0"/>
<feBlend mode="normal" in2="BackgroundImageFix" result="effect1_dropShadow_31_1756"/>
<feBlend mode="normal" in="SourceGraphic" in2="effect1_dropShadow_31_1756" result="shape"/>
</filter>
<filter id="filter2_d_31_1756" x="48.5002" y="17.0312" width="23.7498" height="23.75" filterUnits="userSpaceOnUse" color-interpolation-filters="sRGB">
<feFlood flood-opacity="0" result="BackgroundImageFix"/>
<feColorMatrix in="SourceAlpha" type="matrix" values="0 0 0 0 0 0 0 0 0 0 0 0 0 0 0 0 0 0 127 0" result="hardAlpha"/>
<feOffset dy="2"/>
<feGaussianBlur stdDeviation="2"/>
<feComposite in2="hardAlpha" operator="out"/>
<feColorMatrix type="matrix" values="0 0 0 0 0 0 0 0 0 0 0 0 0 0 0 0 0 0 0.25 0"/>
<feBlend mode="normal" in2="BackgroundImageFix" result="effect1_dropShadow_31_1756"/>
<feBlend mode="normal" in="SourceGraphic" in2="effect1_dropShadow_31_1756" result="shape"/>
</filter>
<linearGradient id="paint0_linear_31_1756" x1="84" y1="0" x2="0" y2="84" gradientUnits="userSpaceOnUse">
<stop stop-color="#75EA53"/>
<stop offset="1" stop-color="#068540"/>
</linearGradient>
<linearGradient id="paint1_linear_31_1756" x1="68.25" y1="19.0312" x2="15.75" y2="71.5312" gradientUnits="userSpaceOnUse">
<stop stop-color="#75EA53"/>
<stop offset="1" stop-color="#068540"/>
</linearGradient>
<clipPath id="clip0_31_1756">
<rect width="84" height="84" fill="white"/>
</clipPath>
</defs>
</svg>
