<svg width="84" height="84" viewBox="0 0 84 84" fill="none" xmlns="http://www.w3.org/2000/svg">
<g clip-path="url(#clip0_31_1776)">
<path d="M63 0H21C9.40202 0 0 9.40202 0 21V63C0 74.598 9.40202 84 21 84H63C74.598 84 84 74.598 84 63V21C84 9.40202 74.598 0 63 0Z" fill="url(#paint0_linear_31_1776)"/>
<g filter="url(#filter0_i_31_1776)">
<path d="M63 5.25H21C12.3015 5.25 5.25 12.3015 5.25 21V63C5.25 71.6985 12.3015 78.75 21 78.75H63C71.6985 78.75 78.75 71.6985 78.75 63V21C78.75 12.3015 71.6985 5.25 63 5.25Z" fill="black" fill-opacity="0.7"/>
<g filter="url(#filter1_d_31_1776)">
<path fill-rule="evenodd" clip-rule="evenodd" d="M44.625 15.75H21C18.1005 15.75 15.75 18.1005 15.75 21V63C15.75 65.8993 18.1005 68.25 21 68.25H63C65.8993 68.25 68.25 65.8993 68.25 63V39.375L44.625 15.75Z" fill="url(#paint1_linear_31_1776)"/>
</g>
<g filter="url(#filter2_d_31_1776)">
<path d="M44.6252 34.125C44.6252 37.0245 46.9758 39.375 49.8752 39.375H68.2501L44.6252 15.75V34.125Z" fill="#FAFAFA"/>
</g>
<g filter="url(#filter3_d_31_1776)">
<path d="M68.2499 21C68.2499 18.1005 65.8999 15.75 63.0002 15.75H52.5002L68.2499 31.5V21Z" fill="#97989A"/>
</g>
<mask id="mask0_31_1776" style="mask-type:luminance" maskUnits="userSpaceOnUse" x="21" y="42" width="42" height="21">
<path d="M61.6875 42H22.3125C21.5876 42 21 42.5876 21 43.3125V61.6875C21 62.4124 21.5876 63 22.3125 63H61.6875C62.4124 63 63 62.4124 63 61.6875V43.3125C63 42.5876 62.4124 42 61.6875 42Z" fill="white"/>
</mask>
<g mask="url(#mask0_31_1776)">
<path d="M31.5 47.25H21V63H31.5V47.25Z" fill="#24AFEA"/>
<path d="M31.5 47.25H21V63H31.5V47.25Z" fill="url(#paint2_linear_31_1776)"/>
<path d="M42 42H31.5V63H42V42Z" fill="#F8883C"/>
<path d="M42 42H31.5V63H42V42Z" fill="url(#paint3_linear_31_1776)"/>
<path d="M52.5 52.5H42V63H52.5V52.5Z" fill="#F0CD49"/>
<path d="M52.5 52.5H42V63H52.5V52.5Z" fill="url(#paint4_linear_31_1776)"/>
<path d="M63 47.25H52.5V63H63V47.25Z" fill="#5BDD4B"/>
<path d="M63 47.25H52.5V63H63V47.25Z" fill="url(#paint5_linear_31_1776)"/>
</g>
</g>
</g>
<defs>
<filter id="filter0_i_31_1776" x="5.25" y="5.25" width="73.5" height="77.5" filterUnits="userSpaceOnUse" color-interpolation-filters="sRGB">
<feFlood flood-opacity="0" result="BackgroundImageFix"/>
<feBlend mode="normal" in="SourceGraphic" in2="BackgroundImageFix" result="shape"/>
<feColorMatrix in="SourceAlpha" type="matrix" values="0 0 0 0 0 0 0 0 0 0 0 0 0 0 0 0 0 0 127 0" result="hardAlpha"/>
<feOffset dy="4"/>
<feGaussianBlur stdDeviation="2"/>
<feComposite in2="hardAlpha" operator="arithmetic" k2="-1" k3="1"/>
<feColorMatrix type="matrix" values="0 0 0 0 0 0 0 0 0 0 0 0 0 0 0 0 0 0 0.25 0"/>
<feBlend mode="normal" in2="shape" result="effect1_innerShadow_31_1776"/>
</filter>
<filter id="filter1_d_31_1776" x="11.75" y="13.75" width="60.5" height="60.5" filterUnits="userSpaceOnUse" color-interpolation-filters="sRGB">
<feFlood flood-opacity="0" result="BackgroundImageFix"/>
<feColorMatrix in="SourceAlpha" type="matrix" values="0 0 0 0 0 0 0 0 0 0 0 0 0 0 0 0 0 0 127 0" result="hardAlpha"/>
<feOffset dy="2"/>
<feGaussianBlur stdDeviation="2"/>
<feComposite in2="hardAlpha" operator="out"/>
<feColorMatrix type="matrix" values="0 0 0 0 0 0 0 0 0 0 0 0 0 0 0 0 0 0 0.25 0"/>
<feBlend mode="normal" in2="BackgroundImageFix" result="effect1_dropShadow_31_1776"/>
<feBlend mode="normal" in="SourceGraphic" in2="effect1_dropShadow_31_1776" result="shape"/>
</filter>
<filter id="filter2_d_31_1776" x="40.6252" y="13.75" width="31.6248" height="31.625" filterUnits="userSpaceOnUse" color-interpolation-filters="sRGB">
<feFlood flood-opacity="0" result="BackgroundImageFix"/>
<feColorMatrix in="SourceAlpha" type="matrix" values="0 0 0 0 0 0 0 0 0 0 0 0 0 0 0 0 0 0 127 0" result="hardAlpha"/>
<feOffset dy="2"/>
<feGaussianBlur stdDeviation="2"/>
<feComposite in2="hardAlpha" operator="out"/>
<feColorMatrix type="matrix" values="0 0 0 0 0 0 0 0 0 0 0 0 0 0 0 0 0 0 0.25 0"/>
<feBlend mode="normal" in2="BackgroundImageFix" result="effect1_dropShadow_31_1776"/>
<feBlend mode="normal" in="SourceGraphic" in2="effect1_dropShadow_31_1776" result="shape"/>
</filter>
<filter id="filter3_d_31_1776" x="48.5002" y="13.75" width="23.7498" height="23.75" filterUnits="userSpaceOnUse" color-interpolation-filters="sRGB">
<feFlood flood-opacity="0" result="BackgroundImageFix"/>
<feColorMatrix in="SourceAlpha" type="matrix" values="0 0 0 0 0 0 0 0 0 0 0 0 0 0 0 0 0 0 127 0" result="hardAlpha"/>
<feOffset dy="2"/>
<feGaussianBlur stdDeviation="2"/>
<feComposite in2="hardAlpha" operator="out"/>
<feColorMatrix type="matrix" values="0 0 0 0 0 0 0 0 0 0 0 0 0 0 0 0 0 0 0.25 0"/>
<feBlend mode="normal" in2="BackgroundImageFix" result="effect1_dropShadow_31_1776"/>
<feBlend mode="normal" in="SourceGraphic" in2="effect1_dropShadow_31_1776" result="shape"/>
</filter>
<linearGradient id="paint0_linear_31_1776" x1="84" y1="0" x2="0" y2="84" gradientUnits="userSpaceOnUse">
<stop stop-color="#97989A"/>
<stop offset="1" stop-color="#505050"/>
</linearGradient>
<linearGradient id="paint1_linear_31_1776" x1="42" y1="15.75" x2="42" y2="68.25" gradientUnits="userSpaceOnUse">
<stop stop-color="#FAFAFA"/>
<stop offset="1" stop-color="#D5D5D5"/>
</linearGradient>
<linearGradient id="paint2_linear_31_1776" x1="26.25" y1="47.25" x2="26.25" y2="63" gradientUnits="userSpaceOnUse">
<stop stop-opacity="0"/>
<stop offset="1" stop-opacity="0.2"/>
</linearGradient>
<linearGradient id="paint3_linear_31_1776" x1="36.75" y1="42" x2="36.75" y2="63" gradientUnits="userSpaceOnUse">
<stop stop-opacity="0"/>
<stop offset="1" stop-opacity="0.2"/>
</linearGradient>
<linearGradient id="paint4_linear_31_1776" x1="47.25" y1="52.5" x2="47.25" y2="63" gradientUnits="userSpaceOnUse">
<stop stop-opacity="0"/>
<stop offset="1" stop-opacity="0.2"/>
</linearGradient>
<linearGradient id="paint5_linear_31_1776" x1="57.75" y1="47.25" x2="57.75" y2="63" gradientUnits="userSpaceOnUse">
<stop stop-opacity="0"/>
<stop offset="1" stop-opacity="0.2"/>
</linearGradient>
<clipPath id="clip0_31_1776">
<rect width="84" height="84" fill="white"/>
</clipPath>
</defs>
</svg>
