<svg width="84" height="84" viewBox="0 0 84 84" fill="none" xmlns="http://www.w3.org/2000/svg">
<g clip-path="url(#clip0_31_1839)">
<path d="M63 0H21C9.40202 0 0 9.40202 0 21V63C0 74.598 9.40202 84 21 84H63C74.598 84 84 74.598 84 63V21C84 9.40202 74.598 0 63 0Z" fill="url(#paint0_linear_31_1839)"/>
<g filter="url(#filter0_i_31_1839)">
<path d="M63 5.25H21C12.3015 5.25 5.25 12.3015 5.25 21V63C5.25 71.6985 12.3015 78.75 21 78.75H63C71.6985 78.75 78.75 71.6985 78.75 63V21C78.75 12.3015 71.6985 5.25 63 5.25Z" fill="black" fill-opacity="0.7"/>
<g filter="url(#filter1_d_31_1839)">
<path fill-rule="evenodd" clip-rule="evenodd" d="M41.3438 15.75H24.2812C21.3817 15.75 19.0312 18.1005 19.0312 21V63C19.0312 65.8993 21.3817 68.25 24.2812 68.25H59.7188C62.6183 68.25 64.9688 65.8993 64.9688 63V39.375L41.3438 15.75Z" fill="url(#paint1_linear_31_1839)"/>
</g>
<g filter="url(#filter2_d_31_1839)">
<path d="M64.9691 21C64.9691 18.1005 62.6186 15.75 59.7191 15.75H49.2191L64.9691 31.5V21Z" fill="#97989A"/>
</g>
<path d="M25.5938 45.9375H58.4062M25.5938 51.1875H58.4062M25.5938 56.4375H51.8438" stroke="white" stroke-width="4" stroke-linecap="round" stroke-linejoin="round"/>
<path d="M28.2188 38.0625H26.25C25.8876 38.0625 25.5938 37.7687 25.5938 37.4062V28.2188C25.5938 27.8563 25.8876 27.5625 26.25 27.5625H40.6875C41.0499 27.5625 41.3438 27.8563 41.3438 28.2188V37.4062C41.3438 37.7687 41.0499 38.0625 40.6875 38.0625H35.4375M28.2188 38.0625L29.8589 35.8757C30.0492 35.6219 30.3937 35.5406 30.6774 35.6824L35.4375 38.0625M28.2188 38.0625H35.4375" stroke="white" stroke-opacity="0.7" stroke-width="4" stroke-linecap="round" stroke-linejoin="round"/>
<path d="M34.125 34.125C34.8499 34.125 35.4375 33.5374 35.4375 32.8125C35.4375 32.0876 34.8499 31.5 34.125 31.5C33.4001 31.5 32.8125 32.0876 32.8125 32.8125C32.8125 33.5374 33.4001 34.125 34.125 34.125Z" fill="white" fill-opacity="0.7"/>
</g>
</g>
<defs>
<filter id="filter0_i_31_1839" x="5.25" y="5.25" width="73.5" height="77.5" filterUnits="userSpaceOnUse" color-interpolation-filters="sRGB">
<feFlood flood-opacity="0" result="BackgroundImageFix"/>
<feBlend mode="normal" in="SourceGraphic" in2="BackgroundImageFix" result="shape"/>
<feColorMatrix in="SourceAlpha" type="matrix" values="0 0 0 0 0 0 0 0 0 0 0 0 0 0 0 0 0 0 127 0" result="hardAlpha"/>
<feOffset dy="4"/>
<feGaussianBlur stdDeviation="2"/>
<feComposite in2="hardAlpha" operator="arithmetic" k2="-1" k3="1"/>
<feColorMatrix type="matrix" values="0 0 0 0 0 0 0 0 0 0 0 0 0 0 0 0 0 0 0.25 0"/>
<feBlend mode="normal" in2="shape" result="effect1_innerShadow_31_1839"/>
</filter>
<filter id="filter1_d_31_1839" x="15.0312" y="13.75" width="53.9375" height="60.5" filterUnits="userSpaceOnUse" color-interpolation-filters="sRGB">
<feFlood flood-opacity="0" result="BackgroundImageFix"/>
<feColorMatrix in="SourceAlpha" type="matrix" values="0 0 0 0 0 0 0 0 0 0 0 0 0 0 0 0 0 0 127 0" result="hardAlpha"/>
<feOffset dy="2"/>
<feGaussianBlur stdDeviation="2"/>
<feComposite in2="hardAlpha" operator="out"/>
<feColorMatrix type="matrix" values="0 0 0 0 0 0 0 0 0 0 0 0 0 0 0 0 0 0 0.25 0"/>
<feBlend mode="normal" in2="BackgroundImageFix" result="effect1_dropShadow_31_1839"/>
<feBlend mode="normal" in="SourceGraphic" in2="effect1_dropShadow_31_1839" result="shape"/>
</filter>
<filter id="filter2_d_31_1839" x="45.2191" y="13.75" width="23.75" height="23.75" filterUnits="userSpaceOnUse" color-interpolation-filters="sRGB">
<feFlood flood-opacity="0" result="BackgroundImageFix"/>
<feColorMatrix in="SourceAlpha" type="matrix" values="0 0 0 0 0 0 0 0 0 0 0 0 0 0 0 0 0 0 127 0" result="hardAlpha"/>
<feOffset dy="2"/>
<feGaussianBlur stdDeviation="2"/>
<feComposite in2="hardAlpha" operator="out"/>
<feColorMatrix type="matrix" values="0 0 0 0 0 0 0 0 0 0 0 0 0 0 0 0 0 0 0.25 0"/>
<feBlend mode="normal" in2="BackgroundImageFix" result="effect1_dropShadow_31_1839"/>
<feBlend mode="normal" in="SourceGraphic" in2="effect1_dropShadow_31_1839" result="shape"/>
</filter>
<linearGradient id="paint0_linear_31_1839" x1="84" y1="0" x2="0" y2="84" gradientUnits="userSpaceOnUse">
<stop stop-color="#1FCAF8"/>
<stop offset="1" stop-color="#0D44B1"/>
</linearGradient>
<linearGradient id="paint1_linear_31_1839" x1="64.9688" y1="15.75" x2="12.4688" y2="68.25" gradientUnits="userSpaceOnUse">
<stop stop-color="#1FCAF8"/>
<stop offset="1" stop-color="#0D44B1"/>
</linearGradient>
<clipPath id="clip0_31_1839">
<rect width="84" height="84" fill="white"/>
</clipPath>
</defs>
</svg>
