<svg width="84" height="84" viewBox="0 0 84 84" fill="none" xmlns="http://www.w3.org/2000/svg">
<g clip-path="url(#clip0_31_1798)">
<path d="M63 0H21C9.40202 0 0 9.40202 0 21V63C0 74.598 9.40202 84 21 84H63C74.598 84 84 74.598 84 63V21C84 9.40202 74.598 0 63 0Z" fill="url(#paint0_linear_31_1798)"/>
<g filter="url(#filter0_i_31_1798)">
<path d="M63 5.25H21C12.3015 5.25 5.25 12.3015 5.25 21V63C5.25 71.6985 12.3015 78.75 21 78.75H63C71.6985 78.75 78.75 71.6985 78.75 63V21C78.75 12.3015 71.6985 5.25 63 5.25Z" fill="black" fill-opacity="0.7"/>
<g filter="url(#filter1_d_31_1798)">
<path fill-rule="evenodd" clip-rule="evenodd" d="M44.625 22.3125H21C18.1005 22.3125 15.75 24.663 15.75 27.5625V56.4375C15.75 59.337 18.1005 61.6875 21 61.6875H63C65.8993 61.6875 68.25 59.337 68.25 56.4375V45.9375L44.625 22.3125Z" fill="url(#paint1_linear_31_1798)"/>
</g>
<g filter="url(#filter2_d_31_1798)">
<path d="M68.2499 27.5625C68.2499 24.663 65.8999 22.3125 63.0002 22.3125H52.5002L68.2499 38.0625V27.5625Z" fill="#97989A"/>
</g>
<path fill-rule="evenodd" clip-rule="evenodd" d="M51.1875 28.875H26.9062C26.1814 28.875 25.5938 29.4626 25.5938 30.1875C25.5938 30.9124 26.1814 31.5 26.9062 31.5H53.8125L51.1875 28.875Z" fill="white"/>
<path d="M22.3125 42C22.3125 41.2751 21.7249 40.6875 21 40.6875C20.2751 40.6875 19.6875 41.2751 19.6875 42C19.6875 42.7249 20.2751 43.3125 21 43.3125C21.7249 43.3125 22.3125 42.7249 22.3125 42Z" fill="white"/>
<path d="M49.875 40.6875H26.25C25.5251 40.6875 24.9375 41.2751 24.9375 42C24.9375 42.7249 25.5251 43.3125 26.25 43.3125H49.875C50.5999 43.3125 51.1875 42.7249 51.1875 42C51.1875 41.2751 50.5999 40.6875 49.875 40.6875Z" fill="white"/>
<path d="M22.3125 47.25C22.3125 46.5251 21.7249 45.9375 21 45.9375C20.2751 45.9375 19.6875 46.5251 19.6875 47.25C19.6875 47.9749 20.2751 48.5625 21 48.5625C21.7249 48.5625 22.3125 47.9749 22.3125 47.25Z" fill="white"/>
<path d="M44.625 45.9375H26.25C25.5251 45.9375 24.9375 46.5251 24.9375 47.25C24.9375 47.9749 25.5251 48.5625 26.25 48.5625H44.625C45.3499 48.5625 45.9375 47.9749 45.9375 47.25C45.9375 46.5251 45.3499 45.9375 44.625 45.9375Z" fill="white"/>
<path d="M22.3125 52.5C22.3125 51.7751 21.7249 51.1875 21 51.1875C20.2751 51.1875 19.6875 51.7751 19.6875 52.5C19.6875 53.2249 20.2751 53.8125 21 53.8125C21.7249 53.8125 22.3125 53.2249 22.3125 52.5Z" fill="white"/>
<path d="M47.9062 51.1875H26.25C25.5251 51.1875 24.9375 51.7751 24.9375 52.5C24.9375 53.2249 25.5251 53.8125 26.25 53.8125H47.9062C48.6311 53.8125 49.2188 53.2249 49.2188 52.5C49.2188 51.7751 48.6311 51.1875 47.9062 51.1875Z" fill="white"/>
</g>
</g>
<defs>
<filter id="filter0_i_31_1798" x="5.25" y="5.25" width="73.5" height="77.5" filterUnits="userSpaceOnUse" color-interpolation-filters="sRGB">
<feFlood flood-opacity="0" result="BackgroundImageFix"/>
<feBlend mode="normal" in="SourceGraphic" in2="BackgroundImageFix" result="shape"/>
<feColorMatrix in="SourceAlpha" type="matrix" values="0 0 0 0 0 0 0 0 0 0 0 0 0 0 0 0 0 0 127 0" result="hardAlpha"/>
<feOffset dy="4"/>
<feGaussianBlur stdDeviation="2"/>
<feComposite in2="hardAlpha" operator="arithmetic" k2="-1" k3="1"/>
<feColorMatrix type="matrix" values="0 0 0 0 0 0 0 0 0 0 0 0 0 0 0 0 0 0 0.25 0"/>
<feBlend mode="normal" in2="shape" result="effect1_innerShadow_31_1798"/>
</filter>
<filter id="filter1_d_31_1798" x="11.75" y="20.3125" width="60.5" height="47.375" filterUnits="userSpaceOnUse" color-interpolation-filters="sRGB">
<feFlood flood-opacity="0" result="BackgroundImageFix"/>
<feColorMatrix in="SourceAlpha" type="matrix" values="0 0 0 0 0 0 0 0 0 0 0 0 0 0 0 0 0 0 127 0" result="hardAlpha"/>
<feOffset dy="2"/>
<feGaussianBlur stdDeviation="2"/>
<feComposite in2="hardAlpha" operator="out"/>
<feColorMatrix type="matrix" values="0 0 0 0 0 0 0 0 0 0 0 0 0 0 0 0 0 0 0.25 0"/>
<feBlend mode="normal" in2="BackgroundImageFix" result="effect1_dropShadow_31_1798"/>
<feBlend mode="normal" in="SourceGraphic" in2="effect1_dropShadow_31_1798" result="shape"/>
</filter>
<filter id="filter2_d_31_1798" x="48.5002" y="20.3125" width="23.7498" height="23.75" filterUnits="userSpaceOnUse" color-interpolation-filters="sRGB">
<feFlood flood-opacity="0" result="BackgroundImageFix"/>
<feColorMatrix in="SourceAlpha" type="matrix" values="0 0 0 0 0 0 0 0 0 0 0 0 0 0 0 0 0 0 127 0" result="hardAlpha"/>
<feOffset dy="2"/>
<feGaussianBlur stdDeviation="2"/>
<feComposite in2="hardAlpha" operator="out"/>
<feColorMatrix type="matrix" values="0 0 0 0 0 0 0 0 0 0 0 0 0 0 0 0 0 0 0.25 0"/>
<feBlend mode="normal" in2="BackgroundImageFix" result="effect1_dropShadow_31_1798"/>
<feBlend mode="normal" in="SourceGraphic" in2="effect1_dropShadow_31_1798" result="shape"/>
</filter>
<linearGradient id="paint0_linear_31_1798" x1="84" y1="0" x2="0" y2="84" gradientUnits="userSpaceOnUse">
<stop stop-color="#F79740"/>
<stop offset="1" stop-color="#D21E10"/>
</linearGradient>
<linearGradient id="paint1_linear_31_1798" x1="68.25" y1="22.3125" x2="30.45" y2="72.7125" gradientUnits="userSpaceOnUse">
<stop stop-color="#F79740"/>
<stop offset="1" stop-color="#D21E10"/>
</linearGradient>
<clipPath id="clip0_31_1798">
<rect width="84" height="84" fill="white"/>
</clipPath>
</defs>
</svg>
