<svg width="84" height="84" viewBox="0 0 84 84" fill="none" xmlns="http://www.w3.org/2000/svg">
<g clip-path="url(#clip0_31_1850)">
<path d="M63 0H21C9.40202 0 0 9.40202 0 21V63C0 74.598 9.40202 84 21 84H63C74.598 84 84 74.598 84 63V21C84 9.40202 74.598 0 63 0Z" fill="url(#paint0_linear_31_1850)"/>
<path d="M63 0H21C9.40202 0 0 9.40202 0 21V63C0 74.598 9.40202 84 21 84H63C74.598 84 84 74.598 84 63V21C84 9.40202 74.598 0 63 0Z" fill="url(#paint1_linear_31_1850)"/>
<g filter="url(#filter0_i_31_1850)">
<path d="M63 5.25H21C12.3015 5.25 5.25 12.3015 5.25 21V63C5.25 71.6985 12.3015 78.75 21 78.75H63C71.6985 78.75 78.75 71.6985 78.75 63V21C78.75 12.3015 71.6985 5.25 63 5.25Z" fill="black" fill-opacity="0.7"/>
<g filter="url(#filter1_d_31_1850)">
<path d="M42 15.75L14.4375 31.5V63L23.625 68.25L32.8125 63V52.5L23.625 47.25V36.75L42 26.25L60.375 36.75V47.25L51.1875 52.5V63L60.375 68.25L69.5625 63V31.5L42 15.75Z" fill="white"/>
</g>
</g>
</g>
<defs>
<filter id="filter0_i_31_1850" x="5.25" y="5.25" width="73.5" height="77.5" filterUnits="userSpaceOnUse" color-interpolation-filters="sRGB">
<feFlood flood-opacity="0" result="BackgroundImageFix"/>
<feBlend mode="normal" in="SourceGraphic" in2="BackgroundImageFix" result="shape"/>
<feColorMatrix in="SourceAlpha" type="matrix" values="0 0 0 0 0 0 0 0 0 0 0 0 0 0 0 0 0 0 127 0" result="hardAlpha"/>
<feOffset dy="4"/>
<feGaussianBlur stdDeviation="2"/>
<feComposite in2="hardAlpha" operator="arithmetic" k2="-1" k3="1"/>
<feColorMatrix type="matrix" values="0 0 0 0 0 0 0 0 0 0 0 0 0 0 0 0 0 0 0.25 0"/>
<feBlend mode="normal" in2="shape" result="effect1_innerShadow_31_1850"/>
</filter>
<filter id="filter1_d_31_1850" x="10.4375" y="13.75" width="63.125" height="60.5" filterUnits="userSpaceOnUse" color-interpolation-filters="sRGB">
<feFlood flood-opacity="0" result="BackgroundImageFix"/>
<feColorMatrix in="SourceAlpha" type="matrix" values="0 0 0 0 0 0 0 0 0 0 0 0 0 0 0 0 0 0 127 0" result="hardAlpha"/>
<feOffset dy="2"/>
<feGaussianBlur stdDeviation="2"/>
<feComposite in2="hardAlpha" operator="out"/>
<feColorMatrix type="matrix" values="0 0 0 0 0 0 0 0 0 0 0 0 0 0 0 0 0 0 0.25 0"/>
<feBlend mode="normal" in2="BackgroundImageFix" result="effect1_dropShadow_31_1850"/>
<feBlend mode="normal" in="SourceGraphic" in2="effect1_dropShadow_31_1850" result="shape"/>
</filter>
<linearGradient id="paint0_linear_31_1850" x1="939.934" y1="1144.9" x2="825.248" y2="1146.82" gradientUnits="userSpaceOnUse">
<stop stop-color="#FCFCFC"/>
<stop offset="1" stop-color="#D0D6DC"/>
</linearGradient>
<linearGradient id="paint1_linear_31_1850" x1="46.6667" y1="20.2222" x2="46.6667" y2="84" gradientUnits="userSpaceOnUse">
<stop stop-color="#3EF08F"/>
<stop offset="1" stop-color="#229553"/>
</linearGradient>
<clipPath id="clip0_31_1850">
<rect width="84" height="84" fill="white"/>
</clipPath>
</defs>
</svg>
