<svg width="84" height="84" viewBox="0 0 84 84" fill="none" xmlns="http://www.w3.org/2000/svg">
<g clip-path="url(#clip0_31_1908)">
<path d="M63 0H21C9.40202 0 0 9.40202 0 21V63C0 74.598 9.40202 84 21 84H63C74.598 84 84 74.598 84 63V21C84 9.40202 74.598 0 63 0Z" fill="url(#paint0_linear_31_1908)"/>
<g filter="url(#filter0_i_31_1908)">
<path d="M63 5.25H21C12.3015 5.25 5.25 12.3015 5.25 21V63C5.25 71.6985 12.3015 78.75 21 78.75H63C71.6985 78.75 78.75 71.6985 78.75 63V21C78.75 12.3015 71.6985 5.25 63 5.25Z" fill="black" fill-opacity="0.7"/>
<mask id="mask0_31_1908" style="mask-type:luminance" maskUnits="userSpaceOnUse" x="10" y="10" width="64" height="64">
<path d="M73.5 10.5H10.5V73.5H73.5V10.5Z" fill="white"/>
</mask>
<g mask="url(#mask0_31_1908)">
<g filter="url(#filter1_d_31_1908)">
<path d="M57.5204 69.0008C57.1334 71.8751 54.3206 74.1208 51.5253 73.3451C47.5424 72.2479 42.9308 70.537 38.7813 70.2181C38.2342 70.1761 32.4216 69.7351 32.4216 69.7351C31.3935 69.6616 30.4284 69.2127 29.7103 68.4731L18.752 57.1898C17.5544 55.9569 17.2302 54.1181 17.934 52.5501C17.934 52.5501 24.71 37.6599 24.9616 36.8856C25.2133 36.1112 26.1369 29.3576 26.6842 25.7295C26.8292 24.7681 27.304 23.8867 28.027 23.2364L40.9903 11.5765C42.7938 9.95435 45.5933 10.1947 47.0937 12.1005L57.9835 25.9324C58.5997 26.7153 58.9155 27.6881 58.9201 28.6842C58.9325 31.3048 59.1488 36.685 60.5978 40.1503C62.0075 43.5211 64.5945 47.1614 65.9467 48.9527C66.4658 49.6401 66.5452 50.5698 66.1068 51.3113C65.1524 52.9268 63.2671 56.0285 60.5978 60.0081C58.7576 62.7521 57.905 66.1441 57.5204 69.0008Z" fill="#6C31E3"/>
<path d="M30.891 69.3262C35.98 58.9946 35.8381 51.5931 33.6726 46.3108C31.6796 41.45 27.973 38.384 25.0514 36.4813C24.9898 36.7561 24.9006 37.0245 24.7851 37.2821L17.9337 52.5501C17.23 54.1182 17.5542 55.9569 18.7517 57.1899L29.71 68.4731C30.0538 68.8275 30.4542 69.1149 30.891 69.3262Z" fill="url(#paint1_radial_31_1908)"/>
<path d="M51.5265 73.3438C54.3212 74.1189 57.1337 71.8738 57.5207 68.9994C57.8539 66.5247 58.5379 63.649 59.9108 61.1405C56.7609 54.3603 52.952 50.8442 48.7764 49.2858C44.3564 47.6363 39.5257 48.1801 34.6311 49.3688C35.7253 54.3481 35.0703 60.8514 30.8967 69.3256C31.372 69.5553 31.8902 69.6957 32.4256 69.7338C32.4256 69.7338 35.4373 69.9871 39.0189 70.2411C42.6005 70.4944 47.9304 72.3463 51.5265 73.3438Z" fill="url(#paint2_radial_31_1908)"/>
<path d="M44.7402 48.3565C46.1153 48.5002 47.4632 48.7965 48.7751 49.286C52.9514 50.8445 56.7612 54.3607 59.9116 61.1403C60.1233 60.7533 60.3518 60.3749 60.5979 60.0081C63.2669 56.0285 65.1523 52.9268 66.1068 51.3113C66.5451 50.5698 66.4651 49.6402 65.9466 48.9526C64.5944 47.1614 62.0074 43.5211 60.5979 40.1504C59.1487 36.685 58.9324 31.3048 58.9201 28.6842C58.9154 27.6881 58.5996 26.7153 57.9834 25.9324L47.0936 12.1005C47.0355 12.0266 46.9752 11.9551 46.9131 11.8862C47.7122 14.5048 47.6581 16.6113 47.1651 18.5262C46.7081 20.3014 45.8739 21.912 44.9927 23.6133C44.6971 24.1838 44.3962 24.7648 44.1025 25.3656C42.9334 27.757 41.8778 30.4633 41.7221 34.0923C41.5663 37.7214 42.3099 42.2734 44.7402 48.3565Z" fill="url(#paint3_radial_31_1908)"/>
<path d="M44.7388 48.3563C42.3088 42.2733 41.5645 37.7214 41.7203 34.0921C41.8761 30.4628 42.9317 27.7566 44.1009 25.3649C44.3947 24.7641 44.6956 24.1833 44.9912 23.6126C45.8722 21.9113 46.7064 20.3009 47.1634 18.5259C47.6564 16.6105 47.7105 14.5034 46.9107 11.8838C45.3745 10.1787 42.7225 10.018 40.9899 11.5764L28.0266 23.2364C27.3035 23.8866 26.8288 24.7681 26.6837 25.7295L25.1057 36.1905C25.091 36.2875 25.0729 36.384 25.0515 36.4798C27.9733 38.3826 31.6806 41.4489 33.6737 46.3103C34.0629 47.26 34.3869 48.2777 34.6268 49.369C38.069 48.533 41.4799 48.0161 44.7388 48.3563Z" fill="url(#paint4_radial_31_1908)"/>
<path fill-rule="evenodd" clip-rule="evenodd" d="M41.7456 33.8531C41.5894 37.4531 42.0388 41.5828 44.4637 47.6532L43.7022 47.5845C41.5266 41.2499 41.0531 38.0021 41.2116 34.3522C41.3701 30.7006 42.55 27.8926 43.7258 25.4974C44.0236 24.8908 44.7185 23.7517 45.0158 23.1799C45.8962 21.4869 46.4822 20.5926 46.9852 19.0452C47.6883 16.883 47.5362 15.8589 47.456 14.8397C48.0142 18.5239 45.8955 21.7275 44.2938 24.9904C43.1269 27.3673 41.9017 30.2547 41.7456 33.8531Z" fill="url(#paint5_radial_31_1908)"/>
<path fill-rule="evenodd" clip-rule="evenodd" d="M34.3896 46.5785C34.6772 47.2436 34.9489 47.7806 35.1205 48.6035L34.485 48.7463C34.2206 47.7854 34.0163 47.1019 33.6504 46.2776C31.4606 41.1116 27.9464 38.4543 25.0745 36.5052C28.5434 38.3715 32.1038 41.2926 34.3896 46.5785Z" fill="url(#paint6_radial_31_1908)"/>
<path fill-rule="evenodd" clip-rule="evenodd" d="M35.1574 49.2535C36.3708 54.9 35.0172 62.0735 31.0281 69.0467C34.3624 62.1359 35.9788 55.4986 34.6326 49.3661L35.1574 49.2535Z" fill="url(#paint7_radial_31_1908)"/>
<path fill-rule="evenodd" clip-rule="evenodd" d="M48.9258 48.7456C55.4661 51.1932 57.9845 56.5674 59.8669 61.0504C57.5421 56.356 54.31 51.1717 48.6911 49.2474C44.4157 47.7832 40.8049 47.9568 34.6322 49.3577L34.4946 48.7456C41.0457 47.253 44.4708 47.0785 48.9258 48.7456Z" fill="url(#paint8_radial_31_1908)"/>
</g>
</g>
</g>
</g>
<defs>
<filter id="filter0_i_31_1908" x="5.25" y="5.25" width="73.5" height="77.5" filterUnits="userSpaceOnUse" color-interpolation-filters="sRGB">
<feFlood flood-opacity="0" result="BackgroundImageFix"/>
<feBlend mode="normal" in="SourceGraphic" in2="BackgroundImageFix" result="shape"/>
<feColorMatrix in="SourceAlpha" type="matrix" values="0 0 0 0 0 0 0 0 0 0 0 0 0 0 0 0 0 0 127 0" result="hardAlpha"/>
<feOffset dy="4"/>
<feGaussianBlur stdDeviation="2"/>
<feComposite in2="hardAlpha" operator="arithmetic" k2="-1" k3="1"/>
<feColorMatrix type="matrix" values="0 0 0 0 0 0 0 0 0 0 0 0 0 0 0 0 0 0 0.25 0"/>
<feBlend mode="normal" in2="shape" result="effect1_innerShadow_31_1908"/>
</filter>
<filter id="filter1_d_31_1908" x="13.5659" y="8.5" width="56.8254" height="71" filterUnits="userSpaceOnUse" color-interpolation-filters="sRGB">
<feFlood flood-opacity="0" result="BackgroundImageFix"/>
<feColorMatrix in="SourceAlpha" type="matrix" values="0 0 0 0 0 0 0 0 0 0 0 0 0 0 0 0 0 0 127 0" result="hardAlpha"/>
<feOffset dy="2"/>
<feGaussianBlur stdDeviation="2"/>
<feComposite in2="hardAlpha" operator="out"/>
<feColorMatrix type="matrix" values="0 0 0 0 0 0 0 0 0 0 0 0 0 0 0 0 0 0 0.25 0"/>
<feBlend mode="normal" in2="BackgroundImageFix" result="effect1_dropShadow_31_1908"/>
<feBlend mode="normal" in="SourceGraphic" in2="effect1_dropShadow_31_1908" result="shape"/>
</filter>
<linearGradient id="paint0_linear_31_1908" x1="42" y1="84" x2="42" y2="0" gradientUnits="userSpaceOnUse">
<stop stop-color="#5125AA"/>
<stop offset="1" stop-color="#7842E5"/>
</linearGradient>
<radialGradient id="paint1_radial_31_1908" cx="0" cy="0" r="1" gradientUnits="userSpaceOnUse" gradientTransform="translate(30.3437 68.3064) rotate(-104.574) scale(28.6656 19.1027)">
<stop stop-color="white" stop-opacity="0.4"/>
<stop offset="1" stop-opacity="0.1"/>
</radialGradient>
<radialGradient id="paint2_radial_31_1908" cx="0" cy="0" r="1" gradientUnits="userSpaceOnUse" gradientTransform="translate(51.7342 73.4987) rotate(-120.563) scale(23.2929 26.7449)">
<stop stop-color="white" stop-opacity="0.3"/>
<stop offset="1" stop-opacity="0.25"/>
</radialGradient>
<radialGradient id="paint3_radial_31_1908" cx="0" cy="0" r="1" gradientUnits="userSpaceOnUse" gradientTransform="translate(54.7754 56.5196) rotate(-82.4846) scale(47.0389 34.7526)">
<stop stop-color="white" stop-opacity="0.55"/>
<stop offset="1" stop-color="white" stop-opacity="0.05"/>
</radialGradient>
<radialGradient id="paint4_radial_31_1908" cx="0" cy="0" r="1" gradientUnits="userSpaceOnUse" gradientTransform="translate(32.0616 48.2611) rotate(-77.7214) scale(40.1687 27.3941)">
<stop stop-color="white" stop-opacity="0.83"/>
<stop offset="1" stop-color="white" stop-opacity="0.4"/>
</radialGradient>
<radialGradient id="paint5_radial_31_1908" cx="0" cy="0" r="1" gradientUnits="userSpaceOnUse" gradientTransform="translate(48.623 26.25) rotate(102.236) scale(20.9006 14.0941)">
<stop stop-color="white" stop-opacity="0"/>
<stop offset="1" stop-color="white" stop-opacity="0.17"/>
</radialGradient>
<radialGradient id="paint6_radial_31_1908" cx="0" cy="0" r="1" gradientUnits="userSpaceOnUse" gradientTransform="translate(24.1365 37.5703) rotate(45.3237) scale(15.4005 32.8017)">
<stop stop-color="white" stop-opacity="0.2"/>
<stop offset="1" stop-color="white" stop-opacity="0.44"/>
</radialGradient>
<radialGradient id="paint7_radial_31_1908" cx="0" cy="0" r="1" gradientUnits="userSpaceOnUse" gradientTransform="translate(35.7635 44.8576) rotate(80.2016) scale(18.0504 38.331)">
<stop stop-color="white" stop-opacity="0.25"/>
<stop offset="1" stop-color="white" stop-opacity="0.3"/>
</radialGradient>
<radialGradient id="paint8_radial_31_1908" cx="0" cy="0" r="1" gradientUnits="userSpaceOnUse" gradientTransform="translate(59.6974 59.5956) rotate(-152.297) scale(27.5045 86.5548)">
<stop stop-color="white" stop-opacity="0.21"/>
<stop offset="0.46738" stop-color="white" stop-opacity="0.19"/>
<stop offset="1" stop-color="white" stop-opacity="0.29"/>
</radialGradient>
<clipPath id="clip0_31_1908">
<rect width="84" height="84" fill="white"/>
</clipPath>
</defs>
</svg>
