<svg width="84" height="84" viewBox="0 0 84 84" fill="none" xmlns="http://www.w3.org/2000/svg">
<g clip-path="url(#clip0_31_1933)">
<path d="M63 0H21C9.40202 0 0 9.40202 0 21V63C0 74.598 9.40202 84 21 84H63C74.598 84 84 74.598 84 63V21C84 9.40202 74.598 0 63 0Z" fill="url(#paint0_linear_31_1933)"/>
<path d="M63 0H21C9.40202 0 0 9.40202 0 21V63C0 74.598 9.40202 84 21 84H63C74.598 84 84 74.598 84 63V21C84 9.40202 74.598 0 63 0Z" fill="url(#paint1_linear_31_1933)"/>
<g filter="url(#filter0_i_31_1933)">
<path d="M63 5.25H21C12.3015 5.25 5.25 12.3015 5.25 21V63C5.25 71.6985 12.3015 78.75 21 78.75H63C71.6985 78.75 78.75 71.6985 78.75 63V21C78.75 12.3015 71.6985 5.25 63 5.25Z" fill="black" fill-opacity="0.7"/>
<mask id="mask0_31_1933" style="mask-type:luminance" maskUnits="userSpaceOnUse" x="10" y="10" width="64" height="64">
<path d="M73.5 10.5H10.5V73.5H73.5V10.5Z" fill="white"/>
</mask>
<g mask="url(#mask0_31_1933)">
<g filter="url(#filter1_d_31_1933)">
<path d="M45.296 23.6259L43.375 17.8195L34.4591 22.1292L22.6565 23.1705L24.2765 43.4205L41.0156 40.6193L45.296 23.6259Z" fill="url(#paint2_linear_31_1933)"/>
</g>
<g filter="url(#filter2_d_31_1933)">
<path d="M29.3877 28.7946L13.5 24.6195L18.9909 57.5941L48.5761 57.3061L29.3877 28.7946Z" fill="url(#paint3_linear_31_1933)"/>
</g>
<g filter="url(#filter3_d_31_1933)">
<path d="M51.2375 42.8418L44.4102 31.1548L51.8162 24.4435L63.6044 19.6191L71.1002 38.2468L60.3051 48.9685L51.2375 42.8418Z" fill="url(#paint4_linear_31_1933)"/>
</g>
<g filter="url(#filter4_d_31_1933)">
<path d="M60.31 37.9989L56.5602 30.3448L27.1558 36.2529L30.1762 64.3297L49.5882 71.1001L71.1003 58.2237L60.31 37.9989Z" fill="url(#paint5_linear_31_1933)"/>
</g>
<g filter="url(#filter5_d_31_1933)">
<path d="M45.1045 39.3705L27.1558 36.2529L49.0645 16.9195L63.6044 19.6191L54.5932 28.6091L56.6757 30.4605L45.1045 39.3705Z" fill="url(#paint6_linear_31_1933)"/>
</g>
<g filter="url(#filter6_d_31_1933)">
<path d="M43.3746 17.8195L23.3257 13.5L13.5 24.6195L29.416 28.8508L43.3746 17.8195Z" fill="url(#paint7_linear_31_1933)"/>
</g>
<g filter="url(#filter7_d_31_1933)">
<path d="M60.3003 24.3H24.3003V60.3H60.3003V24.3Z" fill="black"/>
</g>
<path d="M42.3001 53.55H28.8V55.7999H42.3001V53.55Z" fill="white"/>
<path d="M40.5864 40.5121L42.3475 38.4043C43.5652 39.4089 44.8433 40.0479 46.3883 40.0479C47.6092 40.0479 48.3434 39.5647 48.3434 38.7699V38.7317C48.3433 37.9782 47.8791 37.5904 45.6155 37.0118C42.8878 36.3155 41.1265 35.5589 41.1263 32.8725V32.8311C41.1261 30.3768 43.1002 28.7491 45.8661 28.7491C47.6922 28.7197 49.4712 29.3291 50.8957 30.4722L49.3476 32.7167C48.149 31.8838 46.9694 31.3814 45.8282 31.3814C44.6867 31.3814 44.086 31.9028 44.0861 32.5609V32.5991C44.0861 33.4892 44.6679 33.7817 47.0078 34.3794C49.7546 35.0947 51.303 36.0834 51.3031 38.4424V38.4806C51.3033 41.1702 49.2529 42.6771 46.3312 42.6771C44.2155 42.685 42.1707 41.9144 40.5864 40.5121Z" fill="white"/>
<path d="M28.8408 28.9547H34.3498C37.5656 28.9547 39.5111 30.8616 39.5111 33.6153V33.6539C39.5111 36.7739 37.0842 38.392 34.0604 38.392H31.8068V42.4365H28.8408V28.9547ZM34.1566 35.7533C35.6399 35.7533 36.5065 34.8676 36.5065 33.7117V33.6732C36.5065 32.3444 35.5822 31.632 34.0989 31.632H31.8068V35.7533H34.1566Z" fill="white"/>
</g>
</g>
</g>
<defs>
<filter id="filter0_i_31_1933" x="5.25" y="5.25" width="73.5" height="77.5" filterUnits="userSpaceOnUse" color-interpolation-filters="sRGB">
<feFlood flood-opacity="0" result="BackgroundImageFix"/>
<feBlend mode="normal" in="SourceGraphic" in2="BackgroundImageFix" result="shape"/>
<feColorMatrix in="SourceAlpha" type="matrix" values="0 0 0 0 0 0 0 0 0 0 0 0 0 0 0 0 0 0 127 0" result="hardAlpha"/>
<feOffset dy="4"/>
<feGaussianBlur stdDeviation="2"/>
<feComposite in2="hardAlpha" operator="arithmetic" k2="-1" k3="1"/>
<feColorMatrix type="matrix" values="0 0 0 0 0 0 0 0 0 0 0 0 0 0 0 0 0 0 0.25 0"/>
<feBlend mode="normal" in2="shape" result="effect1_innerShadow_31_1933"/>
</filter>
<filter id="filter1_d_31_1933" x="18.6565" y="15.8195" width="30.6394" height="33.601" filterUnits="userSpaceOnUse" color-interpolation-filters="sRGB">
<feFlood flood-opacity="0" result="BackgroundImageFix"/>
<feColorMatrix in="SourceAlpha" type="matrix" values="0 0 0 0 0 0 0 0 0 0 0 0 0 0 0 0 0 0 127 0" result="hardAlpha"/>
<feOffset dy="2"/>
<feGaussianBlur stdDeviation="2"/>
<feComposite in2="hardAlpha" operator="out"/>
<feColorMatrix type="matrix" values="0 0 0 0 0 0 0 0 0 0 0 0 0 0 0 0 0 0 0.25 0"/>
<feBlend mode="normal" in2="BackgroundImageFix" result="effect1_dropShadow_31_1933"/>
<feBlend mode="normal" in="SourceGraphic" in2="effect1_dropShadow_31_1933" result="shape"/>
</filter>
<filter id="filter2_d_31_1933" x="9.5" y="22.6195" width="43.0762" height="40.9747" filterUnits="userSpaceOnUse" color-interpolation-filters="sRGB">
<feFlood flood-opacity="0" result="BackgroundImageFix"/>
<feColorMatrix in="SourceAlpha" type="matrix" values="0 0 0 0 0 0 0 0 0 0 0 0 0 0 0 0 0 0 127 0" result="hardAlpha"/>
<feOffset dy="2"/>
<feGaussianBlur stdDeviation="2"/>
<feComposite in2="hardAlpha" operator="out"/>
<feColorMatrix type="matrix" values="0 0 0 0 0 0 0 0 0 0 0 0 0 0 0 0 0 0 0.25 0"/>
<feBlend mode="normal" in2="BackgroundImageFix" result="effect1_dropShadow_31_1933"/>
<feBlend mode="normal" in="SourceGraphic" in2="effect1_dropShadow_31_1933" result="shape"/>
</filter>
<filter id="filter3_d_31_1933" x="40.4102" y="17.6191" width="34.6902" height="37.3494" filterUnits="userSpaceOnUse" color-interpolation-filters="sRGB">
<feFlood flood-opacity="0" result="BackgroundImageFix"/>
<feColorMatrix in="SourceAlpha" type="matrix" values="0 0 0 0 0 0 0 0 0 0 0 0 0 0 0 0 0 0 127 0" result="hardAlpha"/>
<feOffset dy="2"/>
<feGaussianBlur stdDeviation="2"/>
<feComposite in2="hardAlpha" operator="out"/>
<feColorMatrix type="matrix" values="0 0 0 0 0 0 0 0 0 0 0 0 0 0 0 0 0 0 0.25 0"/>
<feBlend mode="normal" in2="BackgroundImageFix" result="effect1_dropShadow_31_1933"/>
<feBlend mode="normal" in="SourceGraphic" in2="effect1_dropShadow_31_1933" result="shape"/>
</filter>
<filter id="filter4_d_31_1933" x="23.1558" y="28.3448" width="51.9446" height="48.7553" filterUnits="userSpaceOnUse" color-interpolation-filters="sRGB">
<feFlood flood-opacity="0" result="BackgroundImageFix"/>
<feColorMatrix in="SourceAlpha" type="matrix" values="0 0 0 0 0 0 0 0 0 0 0 0 0 0 0 0 0 0 127 0" result="hardAlpha"/>
<feOffset dy="2"/>
<feGaussianBlur stdDeviation="2"/>
<feComposite in2="hardAlpha" operator="out"/>
<feColorMatrix type="matrix" values="0 0 0 0 0 0 0 0 0 0 0 0 0 0 0 0 0 0 0.25 0"/>
<feBlend mode="normal" in2="BackgroundImageFix" result="effect1_dropShadow_31_1933"/>
<feBlend mode="normal" in="SourceGraphic" in2="effect1_dropShadow_31_1933" result="shape"/>
</filter>
<filter id="filter5_d_31_1933" x="23.1558" y="14.9195" width="44.4487" height="30.451" filterUnits="userSpaceOnUse" color-interpolation-filters="sRGB">
<feFlood flood-opacity="0" result="BackgroundImageFix"/>
<feColorMatrix in="SourceAlpha" type="matrix" values="0 0 0 0 0 0 0 0 0 0 0 0 0 0 0 0 0 0 127 0" result="hardAlpha"/>
<feOffset dy="2"/>
<feGaussianBlur stdDeviation="2"/>
<feComposite in2="hardAlpha" operator="out"/>
<feColorMatrix type="matrix" values="0 0 0 0 0 0 0 0 0 0 0 0 0 0 0 0 0 0 0.25 0"/>
<feBlend mode="normal" in2="BackgroundImageFix" result="effect1_dropShadow_31_1933"/>
<feBlend mode="normal" in="SourceGraphic" in2="effect1_dropShadow_31_1933" result="shape"/>
</filter>
<filter id="filter6_d_31_1933" x="9.5" y="11.5" width="37.8745" height="23.3508" filterUnits="userSpaceOnUse" color-interpolation-filters="sRGB">
<feFlood flood-opacity="0" result="BackgroundImageFix"/>
<feColorMatrix in="SourceAlpha" type="matrix" values="0 0 0 0 0 0 0 0 0 0 0 0 0 0 0 0 0 0 127 0" result="hardAlpha"/>
<feOffset dy="2"/>
<feGaussianBlur stdDeviation="2"/>
<feComposite in2="hardAlpha" operator="out"/>
<feColorMatrix type="matrix" values="0 0 0 0 0 0 0 0 0 0 0 0 0 0 0 0 0 0 0.25 0"/>
<feBlend mode="normal" in2="BackgroundImageFix" result="effect1_dropShadow_31_1933"/>
<feBlend mode="normal" in="SourceGraphic" in2="effect1_dropShadow_31_1933" result="shape"/>
</filter>
<filter id="filter7_d_31_1933" x="20.3003" y="22.3" width="44" height="44" filterUnits="userSpaceOnUse" color-interpolation-filters="sRGB">
<feFlood flood-opacity="0" result="BackgroundImageFix"/>
<feColorMatrix in="SourceAlpha" type="matrix" values="0 0 0 0 0 0 0 0 0 0 0 0 0 0 0 0 0 0 127 0" result="hardAlpha"/>
<feOffset dy="2"/>
<feGaussianBlur stdDeviation="2"/>
<feComposite in2="hardAlpha" operator="out"/>
<feColorMatrix type="matrix" values="0 0 0 0 0 0 0 0 0 0 0 0 0 0 0 0 0 0 0.25 0"/>
<feBlend mode="normal" in2="BackgroundImageFix" result="effect1_dropShadow_31_1933"/>
<feBlend mode="normal" in="SourceGraphic" in2="effect1_dropShadow_31_1933" result="shape"/>
</filter>
<linearGradient id="paint0_linear_31_1933" x1="42" y1="0" x2="42" y2="84" gradientUnits="userSpaceOnUse">
<stop stop-color="#3BEA62"/>
<stop offset="0.510417" stop-color="#087CFA"/>
<stop offset="1" stop-color="#B74AF7"/>
</linearGradient>
<linearGradient id="paint1_linear_31_1933" x1="14.253" y1="80.6197" x2="65.2325" y2="17.3154" gradientUnits="userSpaceOnUse">
<stop offset="0.01613" stop-color="#6B57FF"/>
<stop offset="0.42357" stop-color="#B74AF7"/>
<stop offset="0.74587" stop-color="#FF318C"/>
</linearGradient>
<linearGradient id="paint2_linear_31_1933" x1="24.1203" y1="46.7123" x2="40.3848" y2="15.477" gradientUnits="userSpaceOnUse">
<stop stop-color="#AF1DF5"/>
<stop offset="0.2116" stop-color="#BC20E4"/>
<stop offset="0.62822" stop-color="#DD29B8"/>
<stop offset="1" stop-color="#FF318C"/>
</linearGradient>
<linearGradient id="paint3_linear_31_1933" x1="19.4517" y1="56.2671" x2="39.1664" y2="30.2259" gradientUnits="userSpaceOnUse">
<stop offset="0.01613" stop-color="#6B57FF"/>
<stop offset="0.42357" stop-color="#B74AF7"/>
<stop offset="0.74587" stop-color="#FF318C"/>
</linearGradient>
<linearGradient id="paint4_linear_31_1933" x1="64.057" y1="49.2383" x2="53.1325" y2="23.3108" gradientUnits="userSpaceOnUse">
<stop stop-color="#293896"/>
<stop offset="0.07538" stop-color="#3B3AA2"/>
<stop offset="0.2871" stop-color="#6740C0"/>
<stop offset="0.49127" stop-color="#8A44D8"/>
<stop offset="0.68315" stop-color="#A347E9"/>
<stop offset="0.85788" stop-color="#B249F3"/>
<stop offset="1" stop-color="#B74AF7"/>
</linearGradient>
<linearGradient id="paint5_linear_31_1933" x1="55.1042" y1="64.5393" x2="36.9424" y2="37.9186" gradientUnits="userSpaceOnUse">
<stop offset="0.01613" stop-color="#6B57FF"/>
<stop offset="0.78291" stop-color="#B74AF7"/>
</linearGradient>
<linearGradient id="paint6_linear_31_1933" x1="49.5995" y1="50.2502" x2="43.5824" y2="18.4288" gradientUnits="userSpaceOnUse">
<stop offset="0.01613" stop-color="#6B57FF"/>
<stop offset="0.63699" stop-color="#B74AF7"/>
</linearGradient>
<linearGradient id="paint7_linear_31_1933" x1="20.0534" y1="36.4345" x2="29.4263" y2="19.4246" gradientUnits="userSpaceOnUse">
<stop stop-color="#AF1DF5"/>
<stop offset="0.2116" stop-color="#BC20E4"/>
<stop offset="0.62822" stop-color="#DD29B8"/>
<stop offset="1" stop-color="#FF318C"/>
</linearGradient>
<clipPath id="clip0_31_1933">
<rect width="84" height="84" fill="white"/>
</clipPath>
</defs>
</svg>
