<svg width="84" height="84" viewBox="0 0 84 84" fill="none" xmlns="http://www.w3.org/2000/svg">
<g clip-path="url(#clip0_31_1959)">
<path d="M63 0H21C9.40202 0 0 9.40202 0 21V63C0 74.598 9.40202 84 21 84H63C74.598 84 84 74.598 84 63V21C84 9.40202 74.598 0 63 0Z" fill="url(#paint0_linear_31_1959)"/>
<g filter="url(#filter0_i_31_1959)">
<path d="M63 5.25H21C12.3015 5.25 5.25 12.3015 5.25 21V63C5.25 71.6985 12.3015 78.75 21 78.75H63C71.6985 78.75 78.75 71.6985 78.75 63V21C78.75 12.3015 71.6985 5.25 63 5.25Z" fill="black" fill-opacity="0.7"/>
<g filter="url(#filter1_d_31_1959)">
<path d="M30.0742 17.7391H44.138L59.6567 42L44.138 66.2609H30.0742L45.5929 42L30.0742 17.7391Z" fill="#F9BE03"/>
</g>
</g>
</g>
<defs>
<filter id="filter0_i_31_1959" x="5.25" y="5.25" width="73.5" height="77.5" filterUnits="userSpaceOnUse" color-interpolation-filters="sRGB">
<feFlood flood-opacity="0" result="BackgroundImageFix"/>
<feBlend mode="normal" in="SourceGraphic" in2="BackgroundImageFix" result="shape"/>
<feColorMatrix in="SourceAlpha" type="matrix" values="0 0 0 0 0 0 0 0 0 0 0 0 0 0 0 0 0 0 127 0" result="hardAlpha"/>
<feOffset dy="4"/>
<feGaussianBlur stdDeviation="2"/>
<feComposite in2="hardAlpha" operator="arithmetic" k2="-1" k3="1"/>
<feColorMatrix type="matrix" values="0 0 0 0 0 0 0 0 0 0 0 0 0 0 0 0 0 0 0.25 0"/>
<feBlend mode="normal" in2="shape" result="effect1_innerShadow_31_1959"/>
</filter>
<filter id="filter1_d_31_1959" x="26.0742" y="15.7391" width="37.5825" height="56.5218" filterUnits="userSpaceOnUse" color-interpolation-filters="sRGB">
<feFlood flood-opacity="0" result="BackgroundImageFix"/>
<feColorMatrix in="SourceAlpha" type="matrix" values="0 0 0 0 0 0 0 0 0 0 0 0 0 0 0 0 0 0 127 0" result="hardAlpha"/>
<feOffset dy="2"/>
<feGaussianBlur stdDeviation="2"/>
<feComposite in2="hardAlpha" operator="out"/>
<feColorMatrix type="matrix" values="0 0 0 0 0 0 0 0 0 0 0 0 0 0 0 0 0 0 0.25 0"/>
<feBlend mode="normal" in2="BackgroundImageFix" result="effect1_dropShadow_31_1959"/>
<feBlend mode="normal" in="SourceGraphic" in2="effect1_dropShadow_31_1959" result="shape"/>
</filter>
<linearGradient id="paint0_linear_31_1959" x1="-2.8077" y1="41.7839" x2="84" y2="41.7839" gradientUnits="userSpaceOnUse">
<stop stop-color="#F9BE03"/>
<stop offset="0.520833" stop-color="#D19217"/>
<stop offset="1" stop-color="#CC7C19"/>
</linearGradient>
<clipPath id="clip0_31_1959">
<rect width="84" height="84" fill="white"/>
</clipPath>
</defs>
</svg>
