<svg width="84" height="84" viewBox="0 0 84 84" fill="none" xmlns="http://www.w3.org/2000/svg">
<g clip-path="url(#clip0_31_2010)">
<path d="M63 0H21C9.40202 0 0 9.40202 0 21V63C0 74.598 9.40202 84 21 84H63C74.598 84 84 74.598 84 63V21C84 9.40202 74.598 0 63 0Z" fill="url(#paint0_linear_31_2010)"/>
<path d="M63 0H21C9.40202 0 0 9.40202 0 21V63C0 74.598 9.40202 84 21 84H63C74.598 84 84 74.598 84 63V21C84 9.40202 74.598 0 63 0Z" fill="url(#paint1_linear_31_2010)"/>
<g filter="url(#filter0_i_31_2010)">
<path d="M63 5.25H21C12.3015 5.25 5.25 12.3015 5.25 21V63C5.25 71.6985 12.3015 78.75 21 78.75H63C71.6985 78.75 78.75 71.6985 78.75 63V21C78.75 12.3015 71.6985 5.25 63 5.25Z" fill="black" fill-opacity="0.7"/>
<mask id="mask0_31_2010" style="mask-type:luminance" maskUnits="userSpaceOnUse" x="10" y="10" width="64" height="64">
<path d="M73.5 10.5H10.5V73.5H73.5V10.5Z" fill="white"/>
</mask>
<g mask="url(#mask0_31_2010)">
<g filter="url(#filter1_d_31_2010)">
<path d="M52.828 37.9295L22.4453 44.2985C21.6521 44.4208 20.8679 44.5951 20.0976 44.8202C17.6838 45.534 15.5578 46.9933 14.024 48.989C4.95291 60.772 14.6835 76.1723 28.5926 73.1063L61.9236 68.2776C65.4398 67.4933 68.515 65.3763 70.5027 62.3716C79.0963 49.5402 67.9676 33.49 52.828 37.9295Z" fill="url(#paint2_linear_31_2010)"/>
</g>
<g filter="url(#filter2_d_31_2010)">
<path d="M36.1282 14.5113C32.3827 11.066 26.88 9.4664 20.7031 11.2727C18.1375 12.0318 15.8775 13.5822 14.2456 15.7024C8.0391 23.7891 10.1161 33.4458 16.3423 38.4316L49.501 66.1172C51.3166 67.3017 53.355 68.1023 55.4913 68.4705C57.6275 68.8387 59.8165 68.7665 61.9238 68.2579C65.44 67.4737 68.5151 65.3567 70.5029 62.3519C75.6216 54.7378 73.7461 45.9375 68.1896 41.0156L36.1282 14.5113Z" fill="url(#paint3_linear_31_2010)"/>
</g>
<g filter="url(#filter3_d_31_2010)">
<path d="M24.9405 10.5738C23.508 10.6641 22.0883 10.8982 20.7028 11.2727C18.1372 12.0319 15.8771 13.5822 14.2453 15.7024C4.59345 28.2188 14.9294 44.6086 29.7344 41.3454L69.4684 26.3583C70.6214 26.1031 71.6301 25.4116 72.2837 24.4289C74.7446 20.7178 72.2299 16.1946 68.1887 16.17L26.5893 10.5C25.9987 10.5 25.4475 10.5345 24.9405 10.5738Z" fill="url(#paint4_linear_31_2010)"/>
</g>
<g filter="url(#filter4_d_31_2010)">
<path d="M22.3125 22.3125H61.6875V61.6875H22.3125V22.3125Z" fill="black"/>
</g>
<path d="M27.2344 54.3047H42V56.7656H27.2344V54.3047Z" fill="white"/>
<path d="M40.0312 42.3987L38.407 40.9221C37.1006 41.7553 35.581 42.1929 34.0315 42.1821C29.4886 42.2067 26.25 38.8205 26.25 34.6172C26.25 30.4287 29.5526 26.9981 34.125 26.9981C38.6974 26.9981 41.9311 30.3844 41.9311 34.5729V34.6172C41.9262 36.1248 41.4721 37.5968 40.6268 38.8451L42.1427 40.1297L40.0312 42.3987ZM36.0101 38.8205L33.6328 36.7779L35.6951 34.4646L38.1117 36.6548C38.3775 36.009 38.5082 35.3155 38.4956 34.6172C38.5161 34.0176 38.4158 33.4199 38.2008 32.8597C37.9859 32.2996 37.6605 31.7884 37.2441 31.3563C36.8277 30.9243 36.3288 30.5804 35.7769 30.3449C35.225 30.1095 34.6315 29.9873 34.0315 29.9857C31.4229 29.9857 29.6018 32.048 29.6018 34.5729V34.6172C29.5814 35.2162 29.6815 35.8132 29.8962 36.3728C30.111 36.9323 30.436 37.4431 30.8519 37.8746C31.2678 38.3061 31.7662 38.6497 32.3175 38.8849C32.8687 39.1201 33.4617 39.2421 34.061 39.2437C34.7346 39.2541 35.4015 39.1092 36.0101 38.8205Z" fill="white"/>
<path d="M44.397 27.2344H49.9488C54.5754 27.2344 57.7746 30.4139 57.7746 34.5581V34.6172C57.7746 38.7614 54.5754 42 49.9488 42H44.397V27.2344ZM47.6356 30.1875V39.0469H49.9488C52.5968 39.0469 54.3785 37.2553 54.3785 34.6467V34.6172C54.4066 34.028 54.3113 33.4395 54.0986 32.8893C53.8859 32.3391 53.5606 31.8395 53.1435 31.4224C52.7265 31.0054 52.2269 30.6801 51.6767 30.4674C51.1266 30.2548 50.538 30.1594 49.9488 30.1875H47.6356Z" fill="white"/>
</g>
</g>
</g>
<defs>
<filter id="filter0_i_31_2010" x="5.25" y="5.25" width="73.5" height="77.5" filterUnits="userSpaceOnUse" color-interpolation-filters="sRGB">
<feFlood flood-opacity="0" result="BackgroundImageFix"/>
<feBlend mode="normal" in="SourceGraphic" in2="BackgroundImageFix" result="shape"/>
<feColorMatrix in="SourceAlpha" type="matrix" values="0 0 0 0 0 0 0 0 0 0 0 0 0 0 0 0 0 0 127 0" result="hardAlpha"/>
<feOffset dy="4"/>
<feGaussianBlur stdDeviation="2"/>
<feComposite in2="hardAlpha" operator="arithmetic" k2="-1" k3="1"/>
<feColorMatrix type="matrix" values="0 0 0 0 0 0 0 0 0 0 0 0 0 0 0 0 0 0 0.25 0"/>
<feBlend mode="normal" in2="shape" result="effect1_innerShadow_31_2010"/>
</filter>
<filter id="filter1_d_31_2010" x="6.50049" y="35.1747" width="70.9988" height="44.327" filterUnits="userSpaceOnUse" color-interpolation-filters="sRGB">
<feFlood flood-opacity="0" result="BackgroundImageFix"/>
<feColorMatrix in="SourceAlpha" type="matrix" values="0 0 0 0 0 0 0 0 0 0 0 0 0 0 0 0 0 0 127 0" result="hardAlpha"/>
<feOffset dy="2"/>
<feGaussianBlur stdDeviation="2"/>
<feComposite in2="hardAlpha" operator="out"/>
<feColorMatrix type="matrix" values="0 0 0 0 0 0 0 0 0 0 0 0 0 0 0 0 0 0 0.25 0"/>
<feBlend mode="normal" in2="BackgroundImageFix" result="effect1_dropShadow_31_2010"/>
<feBlend mode="normal" in="SourceGraphic" in2="effect1_dropShadow_31_2010" result="shape"/>
</filter>
<filter id="filter2_d_31_2010" x="6.50269" y="8.52213" width="70.9978" height="66.1795" filterUnits="userSpaceOnUse" color-interpolation-filters="sRGB">
<feFlood flood-opacity="0" result="BackgroundImageFix"/>
<feColorMatrix in="SourceAlpha" type="matrix" values="0 0 0 0 0 0 0 0 0 0 0 0 0 0 0 0 0 0 127 0" result="hardAlpha"/>
<feOffset dy="2"/>
<feGaussianBlur stdDeviation="2"/>
<feComposite in2="hardAlpha" operator="out"/>
<feColorMatrix type="matrix" values="0 0 0 0 0 0 0 0 0 0 0 0 0 0 0 0 0 0 0.25 0"/>
<feBlend mode="normal" in2="BackgroundImageFix" result="effect1_dropShadow_31_2010"/>
<feBlend mode="normal" in="SourceGraphic" in2="effect1_dropShadow_31_2010" result="shape"/>
</filter>
<filter id="filter3_d_31_2010" x="6.49316" y="8.5" width="70.7637" height="39.2663" filterUnits="userSpaceOnUse" color-interpolation-filters="sRGB">
<feFlood flood-opacity="0" result="BackgroundImageFix"/>
<feColorMatrix in="SourceAlpha" type="matrix" values="0 0 0 0 0 0 0 0 0 0 0 0 0 0 0 0 0 0 127 0" result="hardAlpha"/>
<feOffset dy="2"/>
<feGaussianBlur stdDeviation="2"/>
<feComposite in2="hardAlpha" operator="out"/>
<feColorMatrix type="matrix" values="0 0 0 0 0 0 0 0 0 0 0 0 0 0 0 0 0 0 0.25 0"/>
<feBlend mode="normal" in2="BackgroundImageFix" result="effect1_dropShadow_31_2010"/>
<feBlend mode="normal" in="SourceGraphic" in2="effect1_dropShadow_31_2010" result="shape"/>
</filter>
<filter id="filter4_d_31_2010" x="18.3125" y="20.3125" width="47.375" height="47.375" filterUnits="userSpaceOnUse" color-interpolation-filters="sRGB">
<feFlood flood-opacity="0" result="BackgroundImageFix"/>
<feColorMatrix in="SourceAlpha" type="matrix" values="0 0 0 0 0 0 0 0 0 0 0 0 0 0 0 0 0 0 127 0" result="hardAlpha"/>
<feOffset dy="2"/>
<feGaussianBlur stdDeviation="2"/>
<feComposite in2="hardAlpha" operator="out"/>
<feColorMatrix type="matrix" values="0 0 0 0 0 0 0 0 0 0 0 0 0 0 0 0 0 0 0.25 0"/>
<feBlend mode="normal" in2="BackgroundImageFix" result="effect1_dropShadow_31_2010"/>
<feBlend mode="normal" in="SourceGraphic" in2="effect1_dropShadow_31_2010" result="shape"/>
</filter>
<linearGradient id="paint0_linear_31_2010" x1="42" y1="0" x2="42" y2="84" gradientUnits="userSpaceOnUse">
<stop stop-color="#3BEA62"/>
<stop offset="0.510417" stop-color="#087CFA"/>
<stop offset="1" stop-color="#B74AF7"/>
</linearGradient>
<linearGradient id="paint1_linear_31_2010" x1="25.7652" y1="73.0472" x2="60.4188" y2="19.8489" gradientUnits="userSpaceOnUse">
<stop stop-color="#6B57FF"/>
<stop offset="0.461429" stop-color="#FF318C"/>
<stop offset="1" stop-color="#FDB60D"/>
</linearGradient>
<linearGradient id="paint2_linear_31_2010" x1="9.21529" y1="59.9697" x2="60.6292" y2="52.577" gradientUnits="userSpaceOnUse">
<stop offset="0.18" stop-color="#FC801D"/>
<stop offset="0.63" stop-color="#FF318C"/>
</linearGradient>
<linearGradient id="paint3_linear_31_2010" x1="1.7145" y1="9.72726" x2="74.8341" y2="64.0697" gradientUnits="userSpaceOnUse">
<stop stop-color="#FF318C"/>
<stop offset="0.4" stop-color="#B74AF7"/>
<stop offset="0.87" stop-color="#FF318C"/>
</linearGradient>
<linearGradient id="paint4_linear_31_2010" x1="-6.78098" y1="33.8051" x2="74.3069" y2="14.7869" gradientUnits="userSpaceOnUse">
<stop stop-color="#FF318C"/>
<stop offset="0.2" stop-color="#D73BAB"/>
<stop offset="0.51" stop-color="#9D4AD8"/>
<stop offset="0.75" stop-color="#7953F4"/>
<stop offset="0.87" stop-color="#6B57FF"/>
</linearGradient>
<clipPath id="clip0_31_2010">
<rect width="84" height="84" fill="white"/>
</clipPath>
</defs>
</svg>
