<svg width="84" height="84" viewBox="0 0 84 84" fill="none" xmlns="http://www.w3.org/2000/svg">
<g clip-path="url(#clip0_31_2095)">
<path d="M63 0H21C9.40202 0 0 9.40202 0 21V63C0 74.598 9.40202 84 21 84H63C74.598 84 84 74.598 84 63V21C84 9.40202 74.598 0 63 0Z" fill="url(#paint0_linear_31_2095)"/>
<g filter="url(#filter0_i_31_2095)">
<path d="M63 5.25H21C12.3015 5.25 5.25 12.3015 5.25 21V63C5.25 71.6985 12.3015 78.75 21 78.75H63C71.6985 78.75 78.75 71.6985 78.75 63V21C78.75 12.3015 71.6985 5.25 63 5.25Z" fill="black" fill-opacity="0.7"/>
<mask id="mask0_31_2095" style="mask-type:luminance" maskUnits="userSpaceOnUse" x="10" y="10" width="64" height="64">
<path d="M73.1719 10.1719H10.1719V73.1719H73.1719V10.1719Z" fill="white"/>
</mask>
<g mask="url(#mask0_31_2095)">
<g filter="url(#filter1_d_31_2095)">
<path d="M70.472 35.2099L30.0918 12.7998L57.1279 52.9698L62.6838 49.3278L70.472 35.2099Z" fill="url(#paint1_linear_31_2095)"/>
</g>
<g filter="url(#filter2_d_31_2095)">
<path d="M54.3617 26.0719L49.3038 13.7059L38.1138 24.7219L42.6918 64.6939L53.5337 70.3999L70.4719 60.5059L54.3617 26.0719Z" fill="url(#paint2_linear_31_2095)"/>
</g>
<g filter="url(#filter3_d_31_2095)">
<path d="M30.0918 12.7998L12.8718 24.3979L19.2738 63.9558L35.7858 70.3041L57.1278 52.9698L30.0918 12.7998Z" fill="url(#paint3_linear_31_2095)"/>
</g>
<g filter="url(#filter4_d_31_2095)">
<path d="M23.6719 23.6719H59.6719V59.6719H23.6719V23.6719Z" fill="black"/>
</g>
<path d="M28.1599 52.8678H41.6599V55.1178H28.1599V52.8678Z" fill="white"/>
<path d="M28.1719 28.1239H34.3519C35.0672 28.0798 35.7842 28.1786 36.461 28.4145C37.1378 28.6504 37.7609 29.0187 38.2939 29.4979C38.6851 29.9099 38.9896 30.3961 39.1896 30.9279C39.3896 31.4597 39.4808 32.0262 39.4579 32.5938V32.6299C39.5026 33.5518 39.2424 34.4627 38.7174 35.2219C38.1926 35.981 37.4322 36.5461 36.5539 36.8299L39.8659 41.6658H36.3799L33.4819 37.3339H31.1719V41.6658H28.1719V28.1239ZM34.1719 34.7238C35.6239 34.7238 36.4579 33.9499 36.4579 32.8099V32.7739C36.4579 31.4959 35.5699 30.8359 34.1179 30.8359H31.1719V34.7238H34.1719Z" fill="white"/>
<path d="M41.9299 28.1238H47.2099C51.4639 28.1238 54.41 31.0458 54.41 34.8558V34.8978C54.41 38.7078 51.47 41.6658 47.2099 41.6658H41.9299V28.1238ZM44.9299 30.8118V38.9718H47.2339C47.775 39.0037 48.3167 38.9212 48.8237 38.7297C49.3307 38.5383 49.7917 38.2421 50.1766 37.8606C50.5616 37.479 50.8618 37.0207 51.0578 36.5154C51.2537 36.0101 51.341 35.4691 51.3139 34.9278V34.8918C51.3414 34.3485 51.2547 33.8055 51.0595 33.2977C50.8643 32.7899 50.5648 32.3287 50.1804 31.9437C49.796 31.5587 49.3352 31.2586 48.8277 31.0626C48.3202 30.8666 47.7773 30.7791 47.2339 30.8058L44.9299 30.8118Z" fill="white"/>
</g>
</g>
</g>
<defs>
<filter id="filter0_i_31_2095" x="5.25" y="5.25" width="73.5" height="77.5" filterUnits="userSpaceOnUse" color-interpolation-filters="sRGB">
<feFlood flood-opacity="0" result="BackgroundImageFix"/>
<feBlend mode="normal" in="SourceGraphic" in2="BackgroundImageFix" result="shape"/>
<feColorMatrix in="SourceAlpha" type="matrix" values="0 0 0 0 0 0 0 0 0 0 0 0 0 0 0 0 0 0 127 0" result="hardAlpha"/>
<feOffset dy="4"/>
<feGaussianBlur stdDeviation="2"/>
<feComposite in2="hardAlpha" operator="arithmetic" k2="-1" k3="1"/>
<feColorMatrix type="matrix" values="0 0 0 0 0 0 0 0 0 0 0 0 0 0 0 0 0 0 0.25 0"/>
<feBlend mode="normal" in2="shape" result="effect1_innerShadow_31_2095"/>
</filter>
<filter id="filter1_d_31_2095" x="26.0918" y="10.7998" width="48.3801" height="48.17" filterUnits="userSpaceOnUse" color-interpolation-filters="sRGB">
<feFlood flood-opacity="0" result="BackgroundImageFix"/>
<feColorMatrix in="SourceAlpha" type="matrix" values="0 0 0 0 0 0 0 0 0 0 0 0 0 0 0 0 0 0 127 0" result="hardAlpha"/>
<feOffset dy="2"/>
<feGaussianBlur stdDeviation="2"/>
<feComposite in2="hardAlpha" operator="out"/>
<feColorMatrix type="matrix" values="0 0 0 0 0 0 0 0 0 0 0 0 0 0 0 0 0 0 0.25 0"/>
<feBlend mode="normal" in2="BackgroundImageFix" result="effect1_dropShadow_31_2095"/>
<feBlend mode="normal" in="SourceGraphic" in2="effect1_dropShadow_31_2095" result="shape"/>
</filter>
<filter id="filter2_d_31_2095" x="34.1138" y="11.7059" width="40.3582" height="64.694" filterUnits="userSpaceOnUse" color-interpolation-filters="sRGB">
<feFlood flood-opacity="0" result="BackgroundImageFix"/>
<feColorMatrix in="SourceAlpha" type="matrix" values="0 0 0 0 0 0 0 0 0 0 0 0 0 0 0 0 0 0 127 0" result="hardAlpha"/>
<feOffset dy="2"/>
<feGaussianBlur stdDeviation="2"/>
<feComposite in2="hardAlpha" operator="out"/>
<feColorMatrix type="matrix" values="0 0 0 0 0 0 0 0 0 0 0 0 0 0 0 0 0 0 0.25 0"/>
<feBlend mode="normal" in2="BackgroundImageFix" result="effect1_dropShadow_31_2095"/>
<feBlend mode="normal" in="SourceGraphic" in2="effect1_dropShadow_31_2095" result="shape"/>
</filter>
<filter id="filter3_d_31_2095" x="8.87183" y="10.7998" width="52.2561" height="65.5042" filterUnits="userSpaceOnUse" color-interpolation-filters="sRGB">
<feFlood flood-opacity="0" result="BackgroundImageFix"/>
<feColorMatrix in="SourceAlpha" type="matrix" values="0 0 0 0 0 0 0 0 0 0 0 0 0 0 0 0 0 0 127 0" result="hardAlpha"/>
<feOffset dy="2"/>
<feGaussianBlur stdDeviation="2"/>
<feComposite in2="hardAlpha" operator="out"/>
<feColorMatrix type="matrix" values="0 0 0 0 0 0 0 0 0 0 0 0 0 0 0 0 0 0 0.25 0"/>
<feBlend mode="normal" in2="BackgroundImageFix" result="effect1_dropShadow_31_2095"/>
<feBlend mode="normal" in="SourceGraphic" in2="effect1_dropShadow_31_2095" result="shape"/>
</filter>
<filter id="filter4_d_31_2095" x="19.6719" y="21.6719" width="44" height="44" filterUnits="userSpaceOnUse" color-interpolation-filters="sRGB">
<feFlood flood-opacity="0" result="BackgroundImageFix"/>
<feColorMatrix in="SourceAlpha" type="matrix" values="0 0 0 0 0 0 0 0 0 0 0 0 0 0 0 0 0 0 127 0" result="hardAlpha"/>
<feOffset dy="2"/>
<feGaussianBlur stdDeviation="2"/>
<feComposite in2="hardAlpha" operator="out"/>
<feColorMatrix type="matrix" values="0 0 0 0 0 0 0 0 0 0 0 0 0 0 0 0 0 0 0.25 0"/>
<feBlend mode="normal" in2="BackgroundImageFix" result="effect1_dropShadow_31_2095"/>
<feBlend mode="normal" in="SourceGraphic" in2="effect1_dropShadow_31_2095" result="shape"/>
</filter>
<linearGradient id="paint0_linear_31_2095" x1="42" y1="0" x2="42" y2="84" gradientUnits="userSpaceOnUse">
<stop stop-color="#087CFA"/>
<stop offset="0.317708" stop-color="#963597"/>
<stop offset="0.671875" stop-color="#DD1265"/>
<stop offset="1" stop-color="#ED6438"/>
</linearGradient>
<linearGradient id="paint1_linear_31_2095" x1="66.7701" y1="45.7939" x2="22.3698" y2="20.3178" gradientUnits="userSpaceOnUse">
<stop stop-color="#DD1265"/>
<stop offset="0.48" stop-color="#DD1265"/>
<stop offset="0.94" stop-color="#FDB60D"/>
</linearGradient>
<linearGradient id="paint2_linear_31_2095" x1="40.3698" y1="17.8279" x2="57.9678" y2="66.4276" gradientUnits="userSpaceOnUse">
<stop offset="0.14" stop-color="#087CFA"/>
<stop offset="0.48" stop-color="#DD1265"/>
<stop offset="0.96" stop-color="#087CFA"/>
</linearGradient>
<linearGradient id="paint3_linear_31_2095" x1="27.1878" y1="19.3278" x2="40.1838" y2="65.5278" gradientUnits="userSpaceOnUse">
<stop offset="0.28" stop-color="#DD1265"/>
<stop offset="0.97" stop-color="#FDB60D"/>
</linearGradient>
<clipPath id="clip0_31_2095">
<rect width="84" height="84" fill="white"/>
</clipPath>
</defs>
</svg>
