<svg width="84" height="84" viewBox="0 0 84 84" fill="none" xmlns="http://www.w3.org/2000/svg">
<g clip-path="url(#clip0_31_2143)">
<path d="M63 0H21C9.40202 0 0 9.40202 0 21V63C0 74.598 9.40202 84 21 84H63C74.598 84 84 74.598 84 63V21C84 9.40202 74.598 0 63 0Z" fill="url(#paint0_linear_31_2143)"/>
<path d="M63 0H21C9.40202 0 0 9.40202 0 21V63C0 74.598 9.40202 84 21 84H63C74.598 84 84 74.598 84 63V21C84 9.40202 74.598 0 63 0Z" fill="url(#paint1_linear_31_2143)"/>
<g filter="url(#filter0_i_31_2143)">
<path d="M63 5.25H21C12.3015 5.25 5.25 12.3015 5.25 21V63C5.25 71.6985 12.3015 78.75 21 78.75H63C71.6985 78.75 78.75 71.6985 78.75 63V21C78.75 12.3015 71.6985 5.25 63 5.25Z" fill="black" fill-opacity="0.7"/>
<mask id="mask0_31_2143" style="mask-type:luminance" maskUnits="userSpaceOnUse" x="10" y="10" width="64" height="64">
<path d="M73.5 10.5H10.5V73.5H73.5V10.5Z" fill="white"/>
</mask>
<g mask="url(#mask0_31_2143)">
<g filter="url(#filter1_d_31_2143)">
<path d="M60.504 13.2L44.022 19.104L31.032 13.2L26.7541 23.976H23.988V55.788L63.99 56.1359L70.2004 24.456L60.504 13.2Z" fill="url(#paint2_linear_31_2143)"/>
</g>
<g filter="url(#filter2_d_31_2143)">
<path d="M60.0122 33.87L33.6902 18.27L60.0122 49.122V33.87Z" fill="url(#paint3_linear_31_2143)"/>
</g>
<g filter="url(#filter3_d_31_2143)">
<path d="M36.5761 69.3L58.1041 66.4322L54.7621 60.006H60.0121V49.122L33.6841 18.222L12.6001 23.4L12.6241 53.64L24.7441 70.8002L36.51 69.3059L36.564 69.3H36.5761Z" fill="url(#paint4_linear_31_2143)"/>
</g>
<g filter="url(#filter4_d_31_2143)">
<path d="M24.0002 24H60.0003V60H24.0002V24Z" fill="black"/>
</g>
<path d="M28.4883 53.196H41.9883V55.446H28.4883V53.196Z" fill="white"/>
<path d="M41.8262 28.482H45.0362L48.5941 34.206L52.1521 28.482H55.3621V42.012H52.4041V33.18L48.5941 38.958H48.5162L44.7481 33.24V42.012H41.8262V28.482Z" fill="white"/>
<path d="M28.5002 28.5H34.6803C36.3922 28.5 37.7043 28.956 38.6163 29.868C39.0079 30.2782 39.3124 30.7634 39.5114 31.2945C39.7104 31.8256 39.7999 32.3914 39.7742 32.958V33C39.8181 33.9556 39.5345 34.8975 38.9703 35.67C38.4301 36.3641 37.7039 36.8905 36.8762 37.188L40.1823 41.988H36.7023L33.9003 37.842H31.4463V41.994H28.5002V28.5ZM34.5003 35.046C35.1023 35.0727 35.6933 34.8785 36.1622 34.5C36.3575 34.3255 36.5123 34.1107 36.6159 33.8702C36.7196 33.6299 36.7695 33.3697 36.7622 33.108V33.072C36.7846 32.8006 36.7418 32.5278 36.6375 32.2763C36.5331 32.0248 36.3702 31.8019 36.1622 31.626C35.6612 31.2756 35.0566 31.1044 34.4463 31.14H31.4582V35.022L34.5003 35.046Z" fill="white"/>
</g>
</g>
</g>
<defs>
<filter id="filter0_i_31_2143" x="5.25" y="5.25" width="73.5" height="77.5" filterUnits="userSpaceOnUse" color-interpolation-filters="sRGB">
<feFlood flood-opacity="0" result="BackgroundImageFix"/>
<feBlend mode="normal" in="SourceGraphic" in2="BackgroundImageFix" result="shape"/>
<feColorMatrix in="SourceAlpha" type="matrix" values="0 0 0 0 0 0 0 0 0 0 0 0 0 0 0 0 0 0 127 0" result="hardAlpha"/>
<feOffset dy="4"/>
<feGaussianBlur stdDeviation="2"/>
<feComposite in2="hardAlpha" operator="arithmetic" k2="-1" k3="1"/>
<feColorMatrix type="matrix" values="0 0 0 0 0 0 0 0 0 0 0 0 0 0 0 0 0 0 0.25 0"/>
<feBlend mode="normal" in2="shape" result="effect1_innerShadow_31_2143"/>
</filter>
<filter id="filter1_d_31_2143" x="19.988" y="11.2" width="54.2124" height="50.9359" filterUnits="userSpaceOnUse" color-interpolation-filters="sRGB">
<feFlood flood-opacity="0" result="BackgroundImageFix"/>
<feColorMatrix in="SourceAlpha" type="matrix" values="0 0 0 0 0 0 0 0 0 0 0 0 0 0 0 0 0 0 127 0" result="hardAlpha"/>
<feOffset dy="2"/>
<feGaussianBlur stdDeviation="2"/>
<feComposite in2="hardAlpha" operator="out"/>
<feColorMatrix type="matrix" values="0 0 0 0 0 0 0 0 0 0 0 0 0 0 0 0 0 0 0.25 0"/>
<feBlend mode="normal" in2="BackgroundImageFix" result="effect1_dropShadow_31_2143"/>
<feBlend mode="normal" in="SourceGraphic" in2="effect1_dropShadow_31_2143" result="shape"/>
</filter>
<filter id="filter2_d_31_2143" x="29.6902" y="16.27" width="34.322" height="38.852" filterUnits="userSpaceOnUse" color-interpolation-filters="sRGB">
<feFlood flood-opacity="0" result="BackgroundImageFix"/>
<feColorMatrix in="SourceAlpha" type="matrix" values="0 0 0 0 0 0 0 0 0 0 0 0 0 0 0 0 0 0 127 0" result="hardAlpha"/>
<feOffset dy="2"/>
<feGaussianBlur stdDeviation="2"/>
<feComposite in2="hardAlpha" operator="out"/>
<feColorMatrix type="matrix" values="0 0 0 0 0 0 0 0 0 0 0 0 0 0 0 0 0 0 0.25 0"/>
<feBlend mode="normal" in2="BackgroundImageFix" result="effect1_dropShadow_31_2143"/>
<feBlend mode="normal" in="SourceGraphic" in2="effect1_dropShadow_31_2143" result="shape"/>
</filter>
<filter id="filter3_d_31_2143" x="8.6001" y="16.222" width="55.4119" height="60.5782" filterUnits="userSpaceOnUse" color-interpolation-filters="sRGB">
<feFlood flood-opacity="0" result="BackgroundImageFix"/>
<feColorMatrix in="SourceAlpha" type="matrix" values="0 0 0 0 0 0 0 0 0 0 0 0 0 0 0 0 0 0 127 0" result="hardAlpha"/>
<feOffset dy="2"/>
<feGaussianBlur stdDeviation="2"/>
<feComposite in2="hardAlpha" operator="out"/>
<feColorMatrix type="matrix" values="0 0 0 0 0 0 0 0 0 0 0 0 0 0 0 0 0 0 0.25 0"/>
<feBlend mode="normal" in2="BackgroundImageFix" result="effect1_dropShadow_31_2143"/>
<feBlend mode="normal" in="SourceGraphic" in2="effect1_dropShadow_31_2143" result="shape"/>
</filter>
<filter id="filter4_d_31_2143" x="20.0002" y="22" width="44" height="44" filterUnits="userSpaceOnUse" color-interpolation-filters="sRGB">
<feFlood flood-opacity="0" result="BackgroundImageFix"/>
<feColorMatrix in="SourceAlpha" type="matrix" values="0 0 0 0 0 0 0 0 0 0 0 0 0 0 0 0 0 0 127 0" result="hardAlpha"/>
<feOffset dy="2"/>
<feGaussianBlur stdDeviation="2"/>
<feComposite in2="hardAlpha" operator="out"/>
<feColorMatrix type="matrix" values="0 0 0 0 0 0 0 0 0 0 0 0 0 0 0 0 0 0 0.25 0"/>
<feBlend mode="normal" in2="BackgroundImageFix" result="effect1_dropShadow_31_2143"/>
<feBlend mode="normal" in="SourceGraphic" in2="effect1_dropShadow_31_2143" result="shape"/>
</filter>
<linearGradient id="paint0_linear_31_2143" x1="42" y1="0" x2="42" y2="84" gradientUnits="userSpaceOnUse">
<stop stop-color="#087CFA"/>
<stop offset="0.317708" stop-color="#963597"/>
<stop offset="0.671875" stop-color="#DD1265"/>
<stop offset="1" stop-color="#ED6438"/>
</linearGradient>
<linearGradient id="paint1_linear_31_2143" x1="0.446469" y1="6.71961" x2="57.8917" y2="87.6947" gradientUnits="userSpaceOnUse">
<stop stop-color="#6B57FF"/>
<stop offset="0.3" stop-color="#FE2857"/>
<stop offset="0.63" stop-color="#FE2857"/>
<stop offset="0.64" stop-color="#FE3052"/>
<stop offset="0.7" stop-color="#FD533B"/>
<stop offset="0.76" stop-color="#FC6C2A"/>
<stop offset="0.81" stop-color="#FC7B20"/>
<stop offset="0.85" stop-color="#FC801D"/>
</linearGradient>
<linearGradient id="paint2_linear_31_2143" x1="49.5301" y1="46.5179" x2="42.246" y2="27.4079" gradientUnits="userSpaceOnUse">
<stop stop-color="#FE2857"/>
<stop offset="0.06" stop-color="#FE3052"/>
<stop offset="0.33" stop-color="#FD533B"/>
<stop offset="0.58" stop-color="#FC6C2A"/>
<stop offset="0.81" stop-color="#FC7B20"/>
<stop offset="1" stop-color="#FC801D"/>
</linearGradient>
<linearGradient id="paint3_linear_31_2143" x1="35.6581" y1="19.17" x2="46.9021" y2="29.478" gradientUnits="userSpaceOnUse">
<stop stop-color="#6B57FF"/>
<stop offset="1" stop-color="#FE2857"/>
</linearGradient>
<linearGradient id="paint4_linear_31_2143" x1="12.8521" y1="22.428" x2="49.8781" y2="69.4923" gradientUnits="userSpaceOnUse">
<stop stop-color="#6B57FF"/>
<stop offset="0.3" stop-color="#FE2857"/>
<stop offset="0.63" stop-color="#FE2857"/>
<stop offset="0.64" stop-color="#FE3052"/>
<stop offset="0.7" stop-color="#FD533B"/>
<stop offset="0.76" stop-color="#FC6C2A"/>
<stop offset="0.81" stop-color="#FC7B20"/>
<stop offset="0.85" stop-color="#FC801D"/>
</linearGradient>
<clipPath id="clip0_31_2143">
<rect width="84" height="84" fill="white"/>
</clipPath>
</defs>
</svg>
