<svg width="84" height="84" viewBox="0 0 84 84" fill="none" xmlns="http://www.w3.org/2000/svg">
<g clip-path="url(#clip0_31_2190)">
<path d="M63 0H21C9.40202 0 0 9.40202 0 21V63C0 74.598 9.40202 84 21 84H63C74.598 84 84 74.598 84 63V21C84 9.40202 74.598 0 63 0Z" fill="url(#paint0_linear_31_2190)"/>
<g filter="url(#filter0_i_31_2190)">
<path d="M63 5.25H21C12.3015 5.25 5.25 12.3015 5.25 21V63C5.25 71.6985 12.3015 78.75 21 78.75H63C71.6985 78.75 78.75 71.6985 78.75 63V21C78.75 12.3015 71.6985 5.25 63 5.25Z" fill="black" fill-opacity="0.7"/>
<path fill-rule="evenodd" clip-rule="evenodd" d="M29.936 19.5096C29.1991 18.7826 28.2057 18.375 27.1706 18.375H17.0625C14.8879 18.375 13.125 20.1379 13.125 22.3125V61.6875C13.125 63.8621 14.8879 65.625 17.0625 65.625H66.9375C69.1123 65.625 70.875 63.8621 70.875 61.6875V28.875C70.875 26.7004 69.1123 24.9375 66.9375 24.9375H37.0529C36.0178 24.9375 35.0244 24.5299 34.2876 23.8029L29.936 19.5096Z" fill="#5739A8"/>
<path d="M64.991 28.2188H19.009C17.9217 28.2188 17.0403 29.1002 17.0403 30.1875V54.4688C17.0403 55.5561 17.9217 56.4375 19.009 56.4375H64.991C66.0783 56.4375 66.9598 55.5561 66.9598 54.4688V30.1875C66.9598 29.1002 66.0783 28.2188 64.991 28.2188Z" fill="#FAFAFA"/>
<g filter="url(#filter1_d_31_2190)">
<path d="M13.125 35.4375C13.125 33.2629 14.8879 31.5 17.0625 31.5H66.9375C69.1123 31.5 70.875 33.2629 70.875 35.4375V61.6875C70.875 63.8621 69.1123 65.625 66.9375 65.625H17.0625C14.8879 65.625 13.125 63.8621 13.125 61.6875V35.4375Z" fill="#7962E7"/>
</g>
</g>
</g>
<defs>
<filter id="filter0_i_31_2190" x="5.25" y="5.25" width="73.5" height="77.5" filterUnits="userSpaceOnUse" color-interpolation-filters="sRGB">
<feFlood flood-opacity="0" result="BackgroundImageFix"/>
<feBlend mode="normal" in="SourceGraphic" in2="BackgroundImageFix" result="shape"/>
<feColorMatrix in="SourceAlpha" type="matrix" values="0 0 0 0 0 0 0 0 0 0 0 0 0 0 0 0 0 0 127 0" result="hardAlpha"/>
<feOffset dy="4"/>
<feGaussianBlur stdDeviation="2"/>
<feComposite in2="hardAlpha" operator="arithmetic" k2="-1" k3="1"/>
<feColorMatrix type="matrix" values="0 0 0 0 0 0 0 0 0 0 0 0 0 0 0 0 0 0 0.25 0"/>
<feBlend mode="normal" in2="shape" result="effect1_innerShadow_31_2190"/>
</filter>
<filter id="filter1_d_31_2190" x="10.125" y="30" width="63.75" height="40.125" filterUnits="userSpaceOnUse" color-interpolation-filters="sRGB">
<feFlood flood-opacity="0" result="BackgroundImageFix"/>
<feColorMatrix in="SourceAlpha" type="matrix" values="0 0 0 0 0 0 0 0 0 0 0 0 0 0 0 0 0 0 127 0" result="hardAlpha"/>
<feOffset dy="1.5"/>
<feGaussianBlur stdDeviation="1.5"/>
<feComposite in2="hardAlpha" operator="out"/>
<feColorMatrix type="matrix" values="0 0 0 0 0 0 0 0 0 0 0 0 0 0 0 0 0 0 0.25 0"/>
<feBlend mode="normal" in2="BackgroundImageFix" result="effect1_dropShadow_31_2190"/>
<feBlend mode="normal" in="SourceGraphic" in2="effect1_dropShadow_31_2190" result="shape"/>
</filter>
<linearGradient id="paint0_linear_31_2190" x1="84" y1="0" x2="0" y2="84" gradientUnits="userSpaceOnUse">
<stop stop-color="#6653C3"/>
<stop offset="1" stop-color="#5638A5"/>
</linearGradient>
<clipPath id="clip0_31_2190">
<rect width="84" height="84" fill="white"/>
</clipPath>
</defs>
</svg>
