<svg width="84" height="84" viewBox="0 0 84 84" fill="none" xmlns="http://www.w3.org/2000/svg">
<g clip-path="url(#clip0_31_2236)">
<path d="M63 0H21C9.40202 0 0 9.40202 0 21V63C0 74.598 9.40202 84 21 84H63C74.598 84 84 74.598 84 63V21C84 9.40202 74.598 0 63 0Z" fill="url(#paint0_linear_31_2236)"/>
<path d="M63 0H21C9.40202 0 0 9.40202 0 21V63C0 74.598 9.40202 84 21 84H63C74.598 84 84 74.598 84 63V21C84 9.40202 74.598 0 63 0Z" fill="black" fill-opacity="0.9"/>
<g filter="url(#filter0_i_31_2236)">
<path d="M63 5.25H21C12.3015 5.25 5.25 12.3015 5.25 21V63C5.25 71.6985 12.3015 78.75 21 78.75H63C71.6985 78.75 78.75 71.6985 78.75 63V21C78.75 12.3015 71.6985 5.25 63 5.25Z" fill="black" fill-opacity="0.7"/>
<path d="M54.4515 40.0828C54.2254 39.9744 53.9957 39.87 53.7631 39.7701C53.3578 32.3034 49.2779 28.0287 42.4271 27.9849C42.3961 27.9848 42.3652 27.9848 42.3341 27.9848C38.2365 27.9848 34.8286 29.7338 32.731 32.9166L36.4988 35.5012C38.0657 33.1238 40.5249 32.6169 42.336 32.6169C42.3569 32.6169 42.3779 32.6169 42.3986 32.6171C44.6543 32.6315 46.3564 33.2874 47.4581 34.5663C48.2598 35.4975 48.796 36.7842 49.0616 38.4081C47.0616 38.0681 44.8988 37.9637 42.5865 38.0962C36.0732 38.4714 31.8859 42.2701 32.1671 47.5486C32.3098 50.2261 33.6437 52.5295 35.9229 54.0342C37.8499 55.3063 40.3318 55.9284 42.9112 55.7875C46.3176 55.6008 48.9899 54.3011 50.8542 51.9247C52.2701 50.12 53.1655 47.7813 53.5609 44.8345C55.1844 45.8142 56.3875 47.1035 57.0519 48.6533C58.1818 51.2878 58.2477 55.6172 54.7152 59.1467C51.6201 62.2388 47.8997 63.5764 42.2772 63.6177C36.0402 63.5715 31.3233 61.5713 28.2565 57.6726C25.3847 54.022 23.9006 48.749 23.8452 42C23.9006 35.2509 25.3847 29.978 28.2565 26.3273C31.3233 22.4287 36.0402 20.4285 42.277 20.3821C48.5593 20.4289 53.3584 22.4386 56.5425 26.3561C58.1038 28.2772 59.281 30.693 60.057 33.5098L64.4722 32.3319C63.5316 28.8646 62.0515 25.8769 60.0373 23.3991C55.9552 18.3768 49.985 15.8034 42.2925 15.75H42.2617C34.5848 15.8032 28.6814 18.3864 24.7156 23.4279C21.1865 27.9142 19.366 34.1566 19.3049 41.9816L19.3047 42L19.3049 42.0184C19.366 49.8433 21.1865 56.0859 24.7156 60.5721C28.6814 65.6135 34.5848 68.1968 42.2617 68.25H42.2925C49.1176 68.2028 53.9284 66.4158 57.8917 62.4562C63.0769 57.2759 62.9207 50.7825 61.2118 46.7963C59.9856 43.9378 57.6481 41.6162 54.4515 40.0828ZM42.6674 51.1621C39.8127 51.3229 36.8469 50.0415 36.7007 47.2971C36.5923 45.2621 38.1489 42.9915 42.8425 42.721C43.3801 42.69 43.9075 42.6748 44.4257 42.6748C46.1305 42.6748 47.7256 42.8405 49.1755 43.1574C48.6347 49.9119 45.4623 51.0087 42.6674 51.1621Z" fill="white"/>
</g>
</g>
<defs>
<filter id="filter0_i_31_2236" x="5.25" y="5.25" width="73.5" height="77.5" filterUnits="userSpaceOnUse" color-interpolation-filters="sRGB">
<feFlood flood-opacity="0" result="BackgroundImageFix"/>
<feBlend mode="normal" in="SourceGraphic" in2="BackgroundImageFix" result="shape"/>
<feColorMatrix in="SourceAlpha" type="matrix" values="0 0 0 0 0 0 0 0 0 0 0 0 0 0 0 0 0 0 127 0" result="hardAlpha"/>
<feOffset dy="4"/>
<feGaussianBlur stdDeviation="2"/>
<feComposite in2="hardAlpha" operator="arithmetic" k2="-1" k3="1"/>
<feColorMatrix type="matrix" values="0 0 0 0 0 0 0 0 0 0 0 0 0 0 0 0 0 0 0.25 0"/>
<feBlend mode="normal" in2="shape" result="effect1_innerShadow_31_2236"/>
</filter>
<linearGradient id="paint0_linear_31_2236" x1="42" y1="0" x2="42" y2="84" gradientUnits="userSpaceOnUse">
<stop stop-color="white"/>
<stop offset="1" stop-color="#DFDFDF"/>
</linearGradient>
<clipPath id="clip0_31_2236">
<rect width="84" height="84" fill="white"/>
</clipPath>
</defs>
</svg>
