<svg width="84" height="84" viewBox="0 0 84 84" fill="none" xmlns="http://www.w3.org/2000/svg">
<g clip-path="url(#clip0_31_2242)">
<path d="M63 0H21C9.40202 0 0 9.40202 0 21V63C0 74.598 9.40202 84 21 84H63C74.598 84 84 74.598 84 63V21C84 9.40202 74.598 0 63 0Z" fill="url(#paint0_linear_31_2242)"/>
<path d="M63 0H21C9.40202 0 0 9.40202 0 21V63C0 74.598 9.40202 84 21 84H63C74.598 84 84 74.598 84 63V21C84 9.40202 74.598 0 63 0Z" fill="url(#paint1_linear_31_2242)"/>
<g filter="url(#filter0_i_31_2242)">
<path d="M63 5.25H21C12.3015 5.25 5.25 12.3015 5.25 21V63C5.25 71.6985 12.3015 78.75 21 78.75H63C71.6985 78.75 78.75 71.6985 78.75 63V21C78.75 12.3015 71.6985 5.25 63 5.25Z" fill="black" fill-opacity="0.7"/>
<path d="M42 67.2249C55.9311 67.2249 67.2249 55.9311 67.2249 42C67.2249 28.0689 55.9311 16.7754 42 16.7754C28.0689 16.7754 16.7754 28.0689 16.7754 42C16.7754 55.9311 28.0689 67.2249 42 67.2249Z" fill="#F2E4FF"/>
<path fill-rule="evenodd" clip-rule="evenodd" d="M42.0539 63.4758V60.2936C52.1335 60.2646 60.2951 52.0862 60.2951 41.9993C60.2951 31.913 52.1335 23.7347 42.0539 23.7057V20.5235C53.8909 20.5534 63.4765 30.1557 63.4765 41.9993C63.4765 53.8435 53.8909 63.4466 42.0539 63.4758ZM42.0539 52.338C47.7392 52.3082 52.3409 47.6926 52.3409 41.9993C52.3409 36.3067 47.7392 31.6911 42.0539 31.6612V28.4799C49.4972 28.509 55.523 34.5494 55.523 41.9993C55.523 49.4499 49.4972 55.4903 42.0539 55.5194V52.338ZM42.0539 36.434C45.1035 36.4632 47.5682 38.9423 47.5682 41.9993C47.5682 45.0569 45.1035 47.5361 42.0539 47.5652V36.434ZM15.75 41.9993C15.75 56.4974 27.5019 68.25 42 68.25C56.4974 68.25 68.25 56.4974 68.25 41.9993C68.25 27.5019 56.4974 15.75 42 15.75C27.5019 15.75 15.75 27.5019 15.75 41.9993Z" fill="#941AD0"/>
<g filter="url(#filter1_d_31_2242)">
<path d="M42 18.7236C28.9183 18.7236 18.3135 29.2825 18.3135 42.3077C18.3135 55.3327 28.9183 65.8914 42 65.8914V18.7236Z" fill="black"/>
</g>
<path d="M42 15.75C27.5025 15.75 15.75 27.5025 15.75 42C15.75 56.4975 27.5025 68.25 42 68.25V15.75Z" fill="#8116B6"/>
</g>
</g>
<defs>
<filter id="filter0_i_31_2242" x="5.25" y="5.25" width="73.5" height="77.5" filterUnits="userSpaceOnUse" color-interpolation-filters="sRGB">
<feFlood flood-opacity="0" result="BackgroundImageFix"/>
<feBlend mode="normal" in="SourceGraphic" in2="BackgroundImageFix" result="shape"/>
<feColorMatrix in="SourceAlpha" type="matrix" values="0 0 0 0 0 0 0 0 0 0 0 0 0 0 0 0 0 0 127 0" result="hardAlpha"/>
<feOffset dy="4"/>
<feGaussianBlur stdDeviation="2"/>
<feComposite in2="hardAlpha" operator="arithmetic" k2="-1" k3="1"/>
<feColorMatrix type="matrix" values="0 0 0 0 0 0 0 0 0 0 0 0 0 0 0 0 0 0 0.25 0"/>
<feBlend mode="normal" in2="shape" result="effect1_innerShadow_31_2242"/>
</filter>
<filter id="filter1_d_31_2242" x="13.9385" y="15.5986" width="29.9365" height="53.4178" filterUnits="userSpaceOnUse" color-interpolation-filters="sRGB">
<feFlood flood-opacity="0" result="BackgroundImageFix"/>
<feColorMatrix in="SourceAlpha" type="matrix" values="0 0 0 0 0 0 0 0 0 0 0 0 0 0 0 0 0 0 127 0" result="hardAlpha"/>
<feOffset dx="-1.25"/>
<feGaussianBlur stdDeviation="1.5625"/>
<feColorMatrix type="matrix" values="0 0 0 0 0.25098 0 0 0 0 0.25098 0 0 0 0 0.25098 0 0 0 0.2 0"/>
<feBlend mode="normal" in2="BackgroundImageFix" result="effect1_dropShadow_31_2242"/>
<feBlend mode="normal" in="SourceGraphic" in2="effect1_dropShadow_31_2242" result="shape"/>
</filter>
<linearGradient id="paint0_linear_31_2242" x1="126.131" y1="-23.2191" x2="-18.6111" y2="83.9652" gradientUnits="userSpaceOnUse">
<stop stop-color="#D446FF"/>
<stop offset="1" stop-color="#A0D8FF"/>
</linearGradient>
<linearGradient id="paint1_linear_31_2242" x1="42" y1="0" x2="42" y2="84" gradientUnits="userSpaceOnUse">
<stop stop-color="#951AD1"/>
<stop offset="1" stop-color="#6C1397"/>
</linearGradient>
<clipPath id="clip0_31_2242">
<rect width="84" height="84" fill="white"/>
</clipPath>
</defs>
</svg>
