<svg width="84" height="84" viewBox="0 0 84 84" fill="none" xmlns="http://www.w3.org/2000/svg">
<g clip-path="url(#clip0_31_2292)">
<path d="M63 0H21C9.40202 0 0 9.40202 0 21V63C0 74.598 9.40202 84 21 84H63C74.598 84 84 74.598 84 63V21C84 9.40202 74.598 0 63 0Z" fill="url(#paint0_linear_31_2292)"/>
<path d="M63 0H21C9.40202 0 0 9.40202 0 21V63C0 74.598 9.40202 84 21 84H63C74.598 84 84 74.598 84 63V21C84 9.40202 74.598 0 63 0Z" fill="url(#paint1_linear_31_2292)"/>
<g filter="url(#filter0_i_31_2292)">
<path d="M63 5.25H21C12.3015 5.25 5.25 12.3015 5.25 21V63C5.25 71.6985 12.3015 78.75 21 78.75H63C71.6985 78.75 78.75 71.6985 78.75 63V21C78.75 12.3015 71.6985 5.25 63 5.25Z" fill="black" fill-opacity="0.7"/>
<mask id="mask0_31_2292" style="mask-type:luminance" maskUnits="userSpaceOnUse" x="21" y="19" width="42" height="46">
<path d="M62.3438 19.0312H21.6562V64.9688H62.3438V19.0312Z" fill="white"/>
</mask>
<g mask="url(#mask0_31_2292)">
<g filter="url(#filter1_d_31_2292)">
<path fill-rule="evenodd" clip-rule="evenodd" d="M22.7575 61.6855C22.7575 61.6855 22.111 62.3809 21.94 62.9453C21.8205 63.3397 21.7739 63.9277 21.9896 64.2791C22.1478 64.5369 22.3553 64.7978 22.6584 64.7978C35.8396 64.7997 50.4166 64.8191 60.6727 64.8472C61.0199 64.8481 61.6785 64.7874 61.9485 64.4026C62.2237 64.0104 62.2169 63.1361 62.0228 62.6983C61.8185 62.2372 60.8585 62.0314 60.8585 62.0314L22.7575 61.6855Z" fill="#B54D00"/>
<path fill-rule="evenodd" clip-rule="evenodd" d="M27.6146 47.8201C27.0123 47.8201 26.3871 48.2827 26.2126 48.8588L22.0046 62.7565C21.8302 63.3327 22.1738 63.7975 22.776 63.7975H61.5812C62.0401 63.7975 62.3031 63.4447 62.1701 63.0058L57.8097 48.6118C57.6768 48.1729 57.2015 47.8201 56.7427 47.8201H27.6146Z" fill="#E26400"/>
<path fill-rule="evenodd" clip-rule="evenodd" d="M41.9939 19.1876C40.993 19.1777 40.4041 19.2518 39.8137 19.6943C39.5442 19.8963 39.3313 20.3759 39.204 20.7213L28.9312 54.5328C28.9312 54.5328 29.1708 56.0607 30.624 57.4496C31.6037 58.3858 33.4616 59.0795 34.6288 59.3318C37.6246 59.9792 40.027 60.1338 42.7438 60.0927C45.5345 60.0506 48.3226 59.5036 51.0058 58.7381C55.0078 57.5962 55.1352 54.3924 55.1352 54.3924L44.5691 20.0927C44.5256 19.9514 44.4197 19.8472 44.3358 19.768C43.7081 19.1748 42.757 19.1953 41.9939 19.1876Z" fill="url(#paint2_linear_31_2292)"/>
<path fill-rule="evenodd" clip-rule="evenodd" d="M41.9939 19.1876C40.993 19.1777 40.4041 19.2518 39.8137 19.6943C39.5442 19.8963 39.3313 20.3759 39.204 20.7213L28.9312 54.5328C28.9312 54.5328 29.3829 57.4572 33.0184 58.8826C35.5349 59.8693 38.1323 60.0002 42.1741 60.0433C46.6752 60.0913 48.5089 59.651 51.451 58.6274C52.8359 58.1457 53.5538 57.5192 54.2106 56.8246C55.1604 55.8201 55.1352 54.3924 55.1352 54.3924L44.5691 20.0927C44.4977 19.9632 44.4197 19.8472 44.3358 19.768C43.7081 19.1748 42.757 19.1953 41.9939 19.1876Z" fill="#F48200"/>
<path fill-rule="evenodd" clip-rule="evenodd" d="M32.6818 42.19L30.333 49.9203C33.1816 52.3141 37.3622 53.8258 42.0215 53.8258C46.702 53.8258 50.8977 52.3006 53.7471 49.8881L51.3821 42.2084C49.2049 43.9403 45.8305 45.0523 42.0423 45.0523C38.2416 45.0523 34.8583 43.9317 32.6818 42.19Z" fill="#EAECED"/>
<path fill-rule="evenodd" clip-rule="evenodd" d="M46.2595 25.5848C45.1509 25.9556 43.6362 26.1858 41.9637 26.1858C40.3184 26.1858 38.8245 25.9634 37.7211 25.6031L35.2429 33.7618C36.9087 34.631 39.3479 35.1804 42.0676 35.1804C44.7336 35.1804 47.132 34.6543 48.7953 33.8148L46.2595 25.5848Z" fill="#EAECED"/>
</g>
</g>
</g>
</g>
<defs>
<filter id="filter0_i_31_2292" x="5.25" y="5.25" width="73.5" height="77.5" filterUnits="userSpaceOnUse" color-interpolation-filters="sRGB">
<feFlood flood-opacity="0" result="BackgroundImageFix"/>
<feBlend mode="normal" in="SourceGraphic" in2="BackgroundImageFix" result="shape"/>
<feColorMatrix in="SourceAlpha" type="matrix" values="0 0 0 0 0 0 0 0 0 0 0 0 0 0 0 0 0 0 127 0" result="hardAlpha"/>
<feOffset dy="4"/>
<feGaussianBlur stdDeviation="2"/>
<feComposite in2="hardAlpha" operator="arithmetic" k2="-1" k3="1"/>
<feColorMatrix type="matrix" values="0 0 0 0 0 0 0 0 0 0 0 0 0 0 0 0 0 0 0.25 0"/>
<feBlend mode="normal" in2="shape" result="effect1_innerShadow_31_2292"/>
</filter>
<filter id="filter1_d_31_2292" x="17.8391" y="17.1868" width="48.3655" height="53.6604" filterUnits="userSpaceOnUse" color-interpolation-filters="sRGB">
<feFlood flood-opacity="0" result="BackgroundImageFix"/>
<feColorMatrix in="SourceAlpha" type="matrix" values="0 0 0 0 0 0 0 0 0 0 0 0 0 0 0 0 0 0 127 0" result="hardAlpha"/>
<feOffset dy="2"/>
<feGaussianBlur stdDeviation="2"/>
<feComposite in2="hardAlpha" operator="out"/>
<feColorMatrix type="matrix" values="0 0 0 0 0 0 0 0 0 0 0 0 0 0 0 0 0 0 0.25 0"/>
<feBlend mode="normal" in2="BackgroundImageFix" result="effect1_dropShadow_31_2292"/>
<feBlend mode="normal" in="SourceGraphic" in2="effect1_dropShadow_31_2292" result="shape"/>
</filter>
<linearGradient id="paint0_linear_31_2292" x1="42" y1="0" x2="42" y2="84" gradientUnits="userSpaceOnUse">
<stop stop-color="#CB02C5"/>
<stop offset="1" stop-color="#5800BF"/>
</linearGradient>
<linearGradient id="paint1_linear_31_2292" x1="5.65075e-07" y1="48.2344" x2="82.0923" y2="27.5418" gradientUnits="userSpaceOnUse">
<stop stop-color="#F48200"/>
<stop offset="0.494068" stop-color="#F48200"/>
<stop offset="1" stop-color="#CC5F00"/>
</linearGradient>
<linearGradient id="paint2_linear_31_2292" x1="33.7859" y1="36.9883" x2="35.9116" y2="37.4851" gradientUnits="userSpaceOnUse">
<stop stop-color="#9B4400"/>
<stop offset="1" stop-color="#E56300"/>
</linearGradient>
<clipPath id="clip0_31_2292">
<rect width="84" height="84" fill="white"/>
</clipPath>
</defs>
</svg>
