<svg width="84" height="84" viewBox="0 0 84 84" fill="none" xmlns="http://www.w3.org/2000/svg">
<g clip-path="url(#clip0_31_2324)">
<path d="M63 0H21C9.40202 0 0 9.40202 0 21V63C0 74.598 9.40202 84 21 84H63C74.598 84 84 74.598 84 63V21C84 9.40202 74.598 0 63 0Z" fill="url(#paint0_linear_31_2324)"/>
<path d="M63 0H21C9.40202 0 0 9.40202 0 21V63C0 74.598 9.40202 84 21 84H63C74.598 84 84 74.598 84 63V21C84 9.40202 74.598 0 63 0Z" fill="url(#paint1_linear_31_2324)"/>
<path d="M63 0H21C9.40202 0 0 9.40202 0 21V63C0 74.598 9.40202 84 21 84H63C74.598 84 84 74.598 84 63V21C84 9.40202 74.598 0 63 0Z" fill="url(#paint2_linear_31_2324)"/>
<g filter="url(#filter0_i_31_2324)">
<path d="M63 5.25H21C12.3015 5.25 5.25 12.3015 5.25 21V63C5.25 71.6985 12.3015 78.75 21 78.75H63C71.6985 78.75 78.75 71.6985 78.75 63V21C78.75 12.3015 71.6985 5.25 63 5.25Z" fill="black" fill-opacity="0.7"/>
<g filter="url(#filter1_d_31_2324)">
<path d="M42.2596 16.457C41.8426 16.5319 41.4446 16.688 41.0882 16.9165C39.5901 17.8787 39.1579 19.8709 40.1231 21.3652C45.4305 29.5889 46.6829 35.7919 46.1398 41.2278C43.9434 51.6377 39.1683 53.7493 34.9956 53.7493C30.9214 53.7493 32.0126 47.0407 35.0748 45.0772C36.9027 43.9348 39.2444 43.1924 41.0416 43.1924C42.8222 43.1927 44.2658 41.7526 44.2663 39.9758C44.2658 38.1989 42.8222 36.7589 41.0416 36.7591C38.9427 36.7591 36.8834 37.2001 34.9617 37.9512C35.354 36.0976 35.4993 34.0942 34.9916 31.9642C34.2209 28.7306 32.002 25.6414 28.1495 22.6472C27.475 22.1222 26.6191 21.8862 25.7701 21.9912C24.9214 22.0962 24.1493 22.5335 23.6237 23.2066C22.5303 24.6093 22.7836 26.631 24.1894 27.7219C27.3279 30.1612 28.3644 31.9664 28.7186 33.4526C29.0728 34.9387 28.7881 36.533 28.0763 38.7237C27.1662 41.676 26.11 44.3113 25.647 46.8386C25.4191 48.0825 25.3998 49.4367 25.3408 50.5181C23.0809 48.314 22.196 45.4036 22.196 41.1512C22.1956 39.3744 20.7519 37.9343 18.9713 37.9346C17.1921 37.9362 15.7505 39.3757 15.75 41.1512C15.75 46.9591 17.4476 52.4854 21.9964 56.1722C26.1146 60.0981 36.5866 58.6471 36.5866 64.9489C36.5866 66.7282 39.1888 67.5937 40.9691 67.5937C42.795 67.5937 45.0929 66.3725 45.0929 64.9489C45.0929 57.7984 52.6241 53.4527 65.022 53.4717C66.8023 53.4739 68.2474 52.0352 68.25 50.2584C68.2533 48.4816 66.8128 47.0385 65.0319 47.0351C64.1842 47.034 63.3577 47.0633 62.5427 47.1117C63.929 43.8495 64.5437 40.2584 64.4163 36.3795C64.3578 34.6037 62.868 33.2114 61.0885 33.2694C59.3074 33.3269 57.9116 34.8153 57.9703 36.5926C58.1379 41.6713 57.9479 46.2064 54.1665 48.5968C53.0913 49.2765 51.8411 49.8655 50.6557 49.8655C51.5759 47.3607 52.2712 44.7169 52.5559 41.8672C52.7376 40.0486 52.7568 37.8879 52.5492 36.2097C52.2275 33.609 51.8391 30.6599 52.8256 28.4384C53.7117 26.5252 55.6976 25.7239 58.6126 25.7239C60.3918 25.7223 61.8334 24.2828 61.8339 22.5073C61.835 20.7305 60.3931 19.289 58.6126 19.2874C54.2803 19.2874 50.9963 21.569 49.1349 24.3254C48.1613 22.2448 46.9762 20.1011 45.5441 17.8822C45.0814 17.1653 44.3525 16.6611 43.5174 16.4803C43.1037 16.3902 42.6763 16.3822 42.2596 16.457Z" fill="#808080"/>
<path d="M42.2596 16.457C41.8426 16.5319 41.4446 16.688 41.0882 16.9165C39.5901 17.8787 39.1579 19.8709 40.1231 21.3652C45.4305 29.5889 46.6829 35.7919 46.1398 41.2278C43.9434 51.6377 39.1683 53.7493 34.9956 53.7493C30.9214 53.7493 32.0126 47.0407 35.0748 45.0772C36.9027 43.9348 39.2444 43.1924 41.0416 43.1924C42.8222 43.1927 44.2658 41.7526 44.2663 39.9758C44.2658 38.1989 42.8222 36.7589 41.0416 36.7591C38.9427 36.7591 36.8834 37.2001 34.9617 37.9512C35.354 36.0976 35.4993 34.0942 34.9916 31.9642C34.2209 28.7306 32.002 25.6414 28.1495 22.6472C27.475 22.1222 26.6191 21.8862 25.7701 21.9912C24.9214 22.0962 24.1493 22.5335 23.6237 23.2066C22.5303 24.6093 22.7836 26.631 24.1894 27.7219C27.3279 30.1612 28.3644 31.9664 28.7186 33.4526C29.0728 34.9387 28.7881 36.533 28.0763 38.7237C27.1662 41.676 26.11 44.3113 25.647 46.8386C25.4191 48.0825 25.3998 49.4367 25.3408 50.5181C23.0809 48.314 22.196 45.4036 22.196 41.1512C22.1956 39.3744 20.7519 37.9343 18.9713 37.9346C17.1921 37.9362 15.7505 39.3757 15.75 41.1512C15.75 46.9591 17.4476 52.4854 21.9964 56.1722C26.1146 60.0981 36.5866 58.6471 36.5866 64.9489C36.5866 66.7282 39.1888 67.5937 40.9691 67.5937C42.795 67.5937 45.0929 66.3725 45.0929 64.9489C45.0929 57.7984 52.6241 53.4527 65.022 53.4717C66.8023 53.4739 68.2474 52.0352 68.25 50.2584C68.2533 48.4816 66.8128 47.0385 65.0319 47.0351C64.1842 47.034 63.3577 47.0633 62.5427 47.1117C63.929 43.8495 64.5437 40.2584 64.4163 36.3795C64.3578 34.6037 62.868 33.2114 61.0885 33.2694C59.3074 33.3269 57.9116 34.8153 57.9703 36.5926C58.1379 41.6713 57.9479 46.2064 54.1665 48.5968C53.0913 49.2765 51.8411 49.8655 50.6557 49.8655C51.5759 47.3607 52.2712 44.7169 52.5559 41.8672C52.7376 40.0486 52.7568 37.8879 52.5492 36.2097C52.2275 33.609 51.8391 30.6599 52.8256 28.4384C53.7117 26.5252 55.6976 25.7239 58.6126 25.7239C60.3918 25.7223 61.8334 24.2828 61.8339 22.5073C61.835 20.7305 60.3931 19.289 58.6126 19.2874C54.2803 19.2874 50.9963 21.569 49.1349 24.3254C48.1613 22.2448 46.9762 20.1011 45.5441 17.8822C45.0814 17.1653 44.3525 16.6611 43.5174 16.4803C43.1037 16.3902 42.6763 16.3822 42.2596 16.457Z" fill="url(#paint3_linear_31_2324)"/>
<path d="M42.2596 16.457C41.8426 16.5319 41.4446 16.688 41.0882 16.9165C39.5901 17.8787 39.1579 19.8709 40.1231 21.3652C45.4305 29.5889 46.6829 35.7919 46.1398 41.2278C43.9434 51.6377 39.1683 53.7493 34.9956 53.7493C30.9214 53.7493 32.0126 47.0407 35.0748 45.0772C36.9027 43.9348 39.2444 43.1924 41.0416 43.1924C42.8222 43.1927 44.2658 41.7526 44.2663 39.9758C44.2658 38.1989 42.8222 36.7589 41.0416 36.7591C38.9427 36.7591 36.8834 37.2001 34.9617 37.9512C35.354 36.0976 35.4993 34.0942 34.9916 31.9642C34.2209 28.7306 32.002 25.6414 28.1495 22.6472C27.475 22.1222 26.6191 21.8862 25.7701 21.9912C24.9214 22.0962 24.1493 22.5335 23.6237 23.2066C22.5303 24.6093 22.7836 26.631 24.1894 27.7219C27.3279 30.1612 28.3644 31.9664 28.7186 33.4526C29.0728 34.9387 28.7881 36.533 28.0763 38.7237C27.1662 41.676 26.11 44.3113 25.647 46.8386C25.4191 48.0825 25.3998 49.4367 25.3408 50.5181C23.0809 48.314 22.196 45.4036 22.196 41.1512C22.1956 39.3744 20.7519 37.9343 18.9713 37.9346C17.1921 37.9362 15.7505 39.3757 15.75 41.1512C15.75 46.9591 17.4476 52.4854 21.9964 56.1722C26.1146 60.0981 36.5866 58.6471 36.5866 64.9489C36.5866 66.7282 39.1888 67.5937 40.9691 67.5937C42.795 67.5937 45.0929 66.3725 45.0929 64.9489C45.0929 57.7984 52.6241 53.4527 65.022 53.4717C66.8023 53.4739 68.2474 52.0352 68.25 50.2584C68.2533 48.4816 66.8128 47.0385 65.0319 47.0351C64.1842 47.034 63.3577 47.0633 62.5427 47.1117C63.929 43.8495 64.5437 40.2584 64.4163 36.3795C64.3578 34.6037 62.868 33.2114 61.0885 33.2694C59.3074 33.3269 57.9116 34.8153 57.9703 36.5926C58.1379 41.6713 57.9479 46.2064 54.1665 48.5968C53.0913 49.2765 51.8411 49.8655 50.6557 49.8655C51.5759 47.3607 52.2712 44.7169 52.5559 41.8672C52.7376 40.0486 52.7568 37.8879 52.5492 36.2097C52.2275 33.609 51.8391 30.6599 52.8256 28.4384C53.7117 26.5252 55.6976 25.7239 58.6126 25.7239C60.3918 25.7223 61.8334 24.2828 61.8339 22.5073C61.835 20.7305 60.3931 19.289 58.6126 19.2874C54.2803 19.2874 50.9963 21.569 49.1349 24.3254C48.1613 22.2448 46.9762 20.1011 45.5441 17.8822C45.0814 17.1653 44.3525 16.6611 43.5174 16.4803C43.1037 16.3902 42.6763 16.3822 42.2596 16.457Z" fill="url(#paint4_linear_31_2324)"/>
<path d="M42.2596 16.457C41.8426 16.5319 41.4446 16.688 41.0882 16.9165C39.5901 17.8787 39.1579 19.8709 40.1231 21.3652C45.4305 29.5889 46.6829 35.7919 46.1398 41.2278C43.9434 51.6377 39.1683 53.7493 34.9956 53.7493C30.9214 53.7493 32.0126 47.0407 35.0748 45.0772C36.9027 43.9348 39.2444 43.1924 41.0416 43.1924C42.8222 43.1927 44.2658 41.7526 44.2663 39.9758C44.2658 38.1989 42.8222 36.7589 41.0416 36.7591C38.9427 36.7591 36.8834 37.2001 34.9617 37.9512C35.354 36.0976 35.4993 34.0942 34.9916 31.9642C34.2209 28.7306 32.002 25.6414 28.1495 22.6472C27.475 22.1222 26.6191 21.8862 25.7701 21.9912C24.9214 22.0962 24.1493 22.5335 23.6237 23.2066C22.5303 24.6093 22.7836 26.631 24.1894 27.7219C27.3279 30.1612 28.3644 31.9664 28.7186 33.4526C29.0728 34.9387 28.7881 36.533 28.0763 38.7237C27.1662 41.676 26.11 44.3113 25.647 46.8386C25.4191 48.0825 25.3998 49.4367 25.3408 50.5181C23.0809 48.314 22.196 45.4036 22.196 41.1512C22.1956 39.3744 20.7519 37.9343 18.9713 37.9346C17.1921 37.9362 15.7505 39.3757 15.75 41.1512C15.75 46.9591 17.4476 52.4854 21.9964 56.1722C26.1146 60.0981 36.5866 58.6471 36.5866 64.9489C36.5866 66.7282 39.1888 67.5937 40.9691 67.5937C42.795 67.5937 45.0929 66.3725 45.0929 64.9489C45.0929 57.7984 52.6241 53.4527 65.022 53.4717C66.8023 53.4739 68.2474 52.0352 68.25 50.2584C68.2533 48.4816 66.8128 47.0385 65.0319 47.0351C64.1842 47.034 63.3577 47.0633 62.5427 47.1117C63.929 43.8495 64.5437 40.2584 64.4163 36.3795C64.3578 34.6037 62.868 33.2114 61.0885 33.2694C59.3074 33.3269 57.9116 34.8153 57.9703 36.5926C58.1379 41.6713 57.9479 46.2064 54.1665 48.5968C53.0913 49.2765 51.8411 49.8655 50.6557 49.8655C51.5759 47.3607 52.2712 44.7169 52.5559 41.8672C52.7376 40.0486 52.7568 37.8879 52.5492 36.2097C52.2275 33.609 51.8391 30.6599 52.8256 28.4384C53.7117 26.5252 55.6976 25.7239 58.6126 25.7239C60.3918 25.7223 61.8334 24.2828 61.8339 22.5073C61.835 20.7305 60.3931 19.289 58.6126 19.2874C54.2803 19.2874 50.9963 21.569 49.1349 24.3254C48.1613 22.2448 46.9762 20.1011 45.5441 17.8822C45.0814 17.1653 44.3525 16.6611 43.5174 16.4803C43.1037 16.3902 42.6763 16.3822 42.2596 16.457Z" fill="url(#paint5_linear_31_2324)"/>
</g>
</g>
</g>
<defs>
<filter id="filter0_i_31_2324" x="5.25" y="5.25" width="73.5" height="77.5" filterUnits="userSpaceOnUse" color-interpolation-filters="sRGB">
<feFlood flood-opacity="0" result="BackgroundImageFix"/>
<feBlend mode="normal" in="SourceGraphic" in2="BackgroundImageFix" result="shape"/>
<feColorMatrix in="SourceAlpha" type="matrix" values="0 0 0 0 0 0 0 0 0 0 0 0 0 0 0 0 0 0 127 0" result="hardAlpha"/>
<feOffset dy="4"/>
<feGaussianBlur stdDeviation="2"/>
<feComposite in2="hardAlpha" operator="arithmetic" k2="-1" k3="1"/>
<feColorMatrix type="matrix" values="0 0 0 0 0 0 0 0 0 0 0 0 0 0 0 0 0 0 0.25 0"/>
<feBlend mode="normal" in2="shape" result="effect1_innerShadow_31_2324"/>
</filter>
<filter id="filter1_d_31_2324" x="11.75" y="14.4062" width="60.5" height="59.1875" filterUnits="userSpaceOnUse" color-interpolation-filters="sRGB">
<feFlood flood-opacity="0" result="BackgroundImageFix"/>
<feColorMatrix in="SourceAlpha" type="matrix" values="0 0 0 0 0 0 0 0 0 0 0 0 0 0 0 0 0 0 127 0" result="hardAlpha"/>
<feOffset dy="2"/>
<feGaussianBlur stdDeviation="2"/>
<feComposite in2="hardAlpha" operator="out"/>
<feColorMatrix type="matrix" values="0 0 0 0 0 0 0 0 0 0 0 0 0 0 0 0 0 0 0.25 0"/>
<feBlend mode="normal" in2="BackgroundImageFix" result="effect1_dropShadow_31_2324"/>
<feBlend mode="normal" in="SourceGraphic" in2="effect1_dropShadow_31_2324" result="shape"/>
</filter>
<linearGradient id="paint0_linear_31_2324" x1="8.64859e-05" y1="42" x2="84" y2="42" gradientUnits="userSpaceOnUse">
<stop stop-color="#0066FF"/>
<stop offset="1" stop-color="#00CCFF"/>
</linearGradient>
<linearGradient id="paint1_linear_31_2324" x1="-9.98091e-06" y1="41.9999" x2="84" y2="41.9999" gradientUnits="userSpaceOnUse">
<stop stop-color="#88AA00"/>
<stop offset="1" stop-color="#FFCC00"/>
</linearGradient>
<linearGradient id="paint2_linear_31_2324" x1="-0.000195372" y1="41.9999" x2="84" y2="41.9999" gradientUnits="userSpaceOnUse">
<stop stop-color="#37C871"/>
<stop offset="1" stop-color="#217844"/>
</linearGradient>
<linearGradient id="paint3_linear_31_2324" x1="15.7501" y1="42" x2="68.25" y2="42" gradientUnits="userSpaceOnUse">
<stop stop-color="#0066FF"/>
<stop offset="1" stop-color="#00CCFF"/>
</linearGradient>
<linearGradient id="paint4_linear_31_2324" x1="15.75" y1="41.9999" x2="68.25" y2="41.9999" gradientUnits="userSpaceOnUse">
<stop stop-color="#88AA00"/>
<stop offset="1" stop-color="#FFCC00"/>
</linearGradient>
<linearGradient id="paint5_linear_31_2324" x1="15.7499" y1="41.9999" x2="68.25" y2="41.9999" gradientUnits="userSpaceOnUse">
<stop stop-color="#37C871"/>
<stop offset="1" stop-color="#217844"/>
</linearGradient>
<clipPath id="clip0_31_2324">
<rect width="84" height="84" fill="white"/>
</clipPath>
</defs>
</svg>
