<svg width="84" height="84" viewBox="0 0 84 84" fill="none" xmlns="http://www.w3.org/2000/svg">
<g clip-path="url(#clip0_31_2307)">
<path d="M63 0H21C9.40202 0 0 9.40202 0 21V63C0 74.598 9.40202 84 21 84H63C74.598 84 84 74.598 84 63V21C84 9.40202 74.598 0 63 0Z" fill="url(#paint0_linear_31_2307)"/>
<g filter="url(#filter0_i_31_2307)">
<path d="M63 5.25H21C12.3015 5.25 5.25 12.3015 5.25 21V63C5.25 71.6985 12.3015 78.75 21 78.75H63C71.6985 78.75 78.75 71.6985 78.75 63V21C78.75 12.3015 71.6985 5.25 63 5.25Z" fill="black" fill-opacity="0.7"/>
<g filter="url(#filter1_d_31_2307)">
<path d="M68.25 25.0819V58.9181C68.25 60.585 67.2131 62.0681 65.6513 62.6194L54.075 68.0531L55.125 53.8125V30.1875L54.075 15.9469L65.6513 21.3806C67.2131 21.9319 68.25 23.415 68.25 25.0819Z" fill="#29B6F6"/>
</g>
<g filter="url(#filter2_d_31_2307)">
<path d="M22.3126 54.9884L55.1251 30.1874V17.5258C55.1251 15.9534 53.18 15.2184 52.1392 16.397L16.6137 48.8761C15.4325 49.9655 15.4994 51.8516 16.7542 52.8556C16.7542 52.8556 18.4919 54.4726 19.1206 54.9215C20.0866 55.6106 21.3558 55.6893 22.3126 54.9884Z" fill="#0277BD"/>
</g>
<g filter="url(#filter3_d_31_2307)">
<path d="M22.3126 29.0115L55.1251 53.8125V66.4742C55.1251 68.0466 53.18 68.7816 52.1392 67.6029L16.6137 35.1238C15.4325 34.0344 15.4994 32.1484 16.7542 31.1443C16.7542 31.1443 18.4919 29.5273 19.1206 29.0784C20.0866 28.3894 21.3558 28.3106 22.3126 29.0115Z" fill="#0288D1"/>
</g>
</g>
</g>
<defs>
<filter id="filter0_i_31_2307" x="5.25" y="5.25" width="73.5" height="77.5" filterUnits="userSpaceOnUse" color-interpolation-filters="sRGB">
<feFlood flood-opacity="0" result="BackgroundImageFix"/>
<feBlend mode="normal" in="SourceGraphic" in2="BackgroundImageFix" result="shape"/>
<feColorMatrix in="SourceAlpha" type="matrix" values="0 0 0 0 0 0 0 0 0 0 0 0 0 0 0 0 0 0 127 0" result="hardAlpha"/>
<feOffset dy="4"/>
<feGaussianBlur stdDeviation="2"/>
<feComposite in2="hardAlpha" operator="arithmetic" k2="-1" k3="1"/>
<feColorMatrix type="matrix" values="0 0 0 0 0 0 0 0 0 0 0 0 0 0 0 0 0 0 0.25 0"/>
<feBlend mode="normal" in2="shape" result="effect1_innerShadow_31_2307"/>
</filter>
<filter id="filter1_d_31_2307" x="50.075" y="13.9469" width="22.175" height="60.1062" filterUnits="userSpaceOnUse" color-interpolation-filters="sRGB">
<feFlood flood-opacity="0" result="BackgroundImageFix"/>
<feColorMatrix in="SourceAlpha" type="matrix" values="0 0 0 0 0 0 0 0 0 0 0 0 0 0 0 0 0 0 127 0" result="hardAlpha"/>
<feOffset dy="2"/>
<feGaussianBlur stdDeviation="2"/>
<feComposite in2="hardAlpha" operator="out"/>
<feColorMatrix type="matrix" values="0 0 0 0 0 0 0 0 0 0 0 0 0 0 0 0 0 0 0.25 0"/>
<feBlend mode="normal" in2="BackgroundImageFix" result="effect1_dropShadow_31_2307"/>
<feBlend mode="normal" in="SourceGraphic" in2="effect1_dropShadow_31_2307" result="shape"/>
</filter>
<filter id="filter2_d_31_2307" x="11.7688" y="13.8161" width="47.3562" height="47.6615" filterUnits="userSpaceOnUse" color-interpolation-filters="sRGB">
<feFlood flood-opacity="0" result="BackgroundImageFix"/>
<feColorMatrix in="SourceAlpha" type="matrix" values="0 0 0 0 0 0 0 0 0 0 0 0 0 0 0 0 0 0 127 0" result="hardAlpha"/>
<feOffset dy="2"/>
<feGaussianBlur stdDeviation="2"/>
<feComposite in2="hardAlpha" operator="out"/>
<feColorMatrix type="matrix" values="0 0 0 0 0 0 0 0 0 0 0 0 0 0 0 0 0 0 0.25 0"/>
<feBlend mode="normal" in2="BackgroundImageFix" result="effect1_dropShadow_31_2307"/>
<feBlend mode="normal" in="SourceGraphic" in2="effect1_dropShadow_31_2307" result="shape"/>
</filter>
<filter id="filter3_d_31_2307" x="11.7688" y="26.5223" width="47.3562" height="47.6615" filterUnits="userSpaceOnUse" color-interpolation-filters="sRGB">
<feFlood flood-opacity="0" result="BackgroundImageFix"/>
<feColorMatrix in="SourceAlpha" type="matrix" values="0 0 0 0 0 0 0 0 0 0 0 0 0 0 0 0 0 0 127 0" result="hardAlpha"/>
<feOffset dy="2"/>
<feGaussianBlur stdDeviation="2"/>
<feComposite in2="hardAlpha" operator="out"/>
<feColorMatrix type="matrix" values="0 0 0 0 0 0 0 0 0 0 0 0 0 0 0 0 0 0 0.25 0"/>
<feBlend mode="normal" in2="BackgroundImageFix" result="effect1_dropShadow_31_2307"/>
<feBlend mode="normal" in="SourceGraphic" in2="effect1_dropShadow_31_2307" result="shape"/>
</filter>
<linearGradient id="paint0_linear_31_2307" x1="42" y1="0" x2="42" y2="84" gradientUnits="userSpaceOnUse">
<stop stop-color="#29B6F6"/>
<stop offset="0.510417" stop-color="#0288D1"/>
<stop offset="1" stop-color="#0277BD"/>
</linearGradient>
<clipPath id="clip0_31_2307">
<rect width="84" height="84" fill="white"/>
</clipPath>
</defs>
</svg>
