<svg width="84" height="84" viewBox="0 0 84 84" fill="none" xmlns="http://www.w3.org/2000/svg">
<g clip-path="url(#clip0_31_2335)">
<path d="M63 0H21C9.40202 0 0 9.40202 0 21V63C0 74.598 9.40202 84 21 84H63C74.598 84 84 74.598 84 63V21C84 9.40202 74.598 0 63 0Z" fill="url(#paint0_linear_31_2335)"/>
<g filter="url(#filter0_i_31_2335)">
<path d="M63 5.25H21C12.3015 5.25 5.25 12.3015 5.25 21V63C5.25 71.6985 12.3015 78.75 21 78.75H63C71.6985 78.75 78.75 71.6985 78.75 63V21C78.75 12.3015 71.6985 5.25 63 5.25Z" fill="black" fill-opacity="0.7"/>
<path d="M57.5859 54.5918C56.9844 54.4004 56.4375 54.0586 56.0547 53.6621C55.5078 53.0742 52.2539 47.168 52.2539 46.7441C52.2539 46.5117 52.3086 46.4023 52.4316 46.457C52.5547 46.498 52.9375 45.7734 53.6211 44.1875C54.7695 41.5761 54.7969 41.5488 55.7539 42.2734C58.3652 44.2695 60.6895 45.2949 63.123 45.5C64.1484 45.5957 64.4219 45.7187 64.4219 46.1016C64.4219 46.2383 64.8552 45.6241 64.9098 45.6514C64.9782 45.6652 63.8887 48.1796 62.9453 50.2852C61.332 53.9218 61.209 54.1543 60.7441 54.373C60.1973 54.6465 58.1738 54.7832 57.5859 54.5918Z" fill="url(#paint1_linear_31_2335)"/>
<path d="M23.4199 54.4825C22.8183 54.2364 22.8047 54.2227 21.9707 52.3223C21.5058 51.2695 20.8769 49.834 20.5624 49.1504L19.7141 47.1606L20.6445 47.9063C21.2871 47.92 22.7363 47.5781 24.2949 47.0313C24.746 46.8809 25.4433 46.6621 25.8398 46.5391C26.332 46.3887 26.5507 46.2656 26.5507 46.1016C26.5507 45.9649 26.6875 45.8282 26.8652 45.7872C27.0293 45.7461 27.7402 45.4727 28.4374 45.1582C29.1347 44.8438 29.791 44.5977 29.9004 44.5977C30.0098 44.5977 30.1054 44.543 30.1054 44.4609C30.1054 44.3926 30.1875 44.3242 30.2831 44.3242C30.3789 44.3242 30.8828 45.3395 30.9257 45.4317C31.466 46.592 31.5683 46.7988 31.7597 46.4981C31.8417 46.3614 31.8828 46.4297 31.8828 46.7032C31.8828 47.168 28.6699 52.8965 28 53.5938C27.2754 54.3731 26.6328 54.6192 25.2519 54.6738C24.3222 54.7012 23.8711 54.6602 23.4199 54.4825Z" fill="url(#paint2_linear_31_2335)"/>
<path d="M57.7226 54.5781C57.7226 54.5098 57.5449 54.4414 57.3125 54.4414C56.9707 54.4414 56.9023 54.3867 56.9023 54.0996C56.9023 53.7989 56.8477 53.7578 56.4239 53.7578C55.959 53.7578 55.9453 53.7441 55.9453 53.2519V52.7461L56.4649 53.2383C57.0254 53.7851 57.5723 54.086 58.2422 54.2363C58.8438 54.3594 58.8301 54.7148 58.2012 54.7148C57.9414 54.7148 57.7226 54.6602 57.7226 54.5781Z" fill="url(#paint3_radial_31_2335)"/>
<path d="M58.506 54.363C58.5027 54.2585 59.4232 54.2832 59.7598 54.168C60.039 54.0724 60.5118 53.8809 60.7989 53.6758C61.3731 53.293 61.4825 53.3203 61.3594 53.8262C61.291 54.0723 61.1817 54.168 60.9356 54.168C60.7305 54.168 60.5938 54.25 60.5938 54.3594C60.5938 54.5645 60.1836 54.7148 59.6094 54.7148C59.3633 54.7148 58.5102 54.4996 58.506 54.363Z" fill="url(#paint4_radial_31_2335)"/>
<path d="M42.6017 51.4883C42.2735 50.9004 42.0412 50.627 41.9181 50.668C41.7813 50.7227 41.7267 50.627 41.7267 50.3809C41.7267 49.7383 44.7618 44.502 46.7306 41.7539C47.8244 40.2227 48.0157 40.0176 48.3986 39.9766C48.7677 39.9356 48.836 39.9902 48.9181 40.3047C48.9728 40.5098 48.9591 40.7559 48.8908 40.8516C47.6876 42.5332 46.7853 43.9415 46.7853 44.1055C46.7853 44.2149 46.6622 44.543 46.5255 44.8301C46.088 45.6778 43.9415 50.9961 43.8185 51.543C43.7775 51.7071 43.6954 51.8438 43.6271 51.8438C43.5587 51.8438 44.1701 53.7803 44.1701 53.9306C44.1701 54.4638 43.0939 52.377 42.6017 51.4883Z" fill="url(#paint5_radial_31_2335)"/>
<path d="M54.9882 51.7754C54.9882 51.1875 55.1796 51.1601 55.4667 51.7071C55.7401 52.2265 55.7264 52.2539 55.3299 52.2539C55.0292 52.2539 54.9882 52.1992 54.9882 51.7754Z" fill="url(#paint6_radial_31_2335)"/>
<path d="M54.3047 50.545C54.3047 49.957 54.4946 49.9486 54.7817 50.4954C55.0551 51.015 55.4968 51.6314 55.1003 51.6314C54.7995 51.6314 54.3047 50.9688 54.3047 50.545Z" fill="url(#paint7_radial_31_2335)"/>
<path d="M53.6209 49.3145C53.6209 48.9316 53.5662 48.8359 53.3612 48.8359C53.074 48.8359 52.9373 48.5762 52.9373 48.002C52.9373 47.7012 52.869 47.6055 52.6639 47.6055C52.4998 47.6055 52.3631 47.4824 52.3084 47.2774C52.1991 46.8262 52.1647 46.3438 52.3717 46.406C52.5668 46.4647 54.3045 49.5606 54.3045 49.7109C54.3045 49.7519 54.1541 49.793 53.9627 49.793C53.6619 49.793 53.6209 49.7383 53.6209 49.3145Z" fill="url(#paint8_radial_31_2335)"/>
<path d="M57.1756 54.4414C57.1756 54.3731 57.0526 54.3047 56.9022 54.3047C56.7518 54.3047 56.6288 54.209 56.6288 54.0996C56.6288 53.9902 56.5331 53.8945 56.4101 53.8945C56.0682 53.8945 55.8085 53.5391 55.8085 53.0879C55.8085 52.582 55.9146 52.5637 56.205 52.9786C56.4472 53.3245 57.2714 53.9766 57.7636 54.0996C58.3104 54.2363 58.2284 54.5782 57.6542 54.5782C57.3944 54.5782 57.1756 54.5234 57.1756 54.4414Z" fill="url(#paint9_radial_31_2335)"/>
<path d="M43.2802 52.4205C43.1161 52.0377 42.998 51.5839 43.1894 51.4609C43.2578 51.4062 43.3535 51.2422 43.4081 51.0917C43.5586 50.5312 45.6503 45.3633 46.0742 44.4746C46.1972 44.2148 46.3066 43.9004 46.3066 43.7773C46.3202 43.6679 46.6484 43.08 47.0449 42.4785C47.4414 41.8769 47.6054 41.5761 47.414 41.7949C47.2226 42.0273 46.6074 42.8886 46.0742 43.7363C45.5273 44.584 45.0351 45.2675 44.9805 45.2812C44.9121 45.2812 44.8711 45.0624 44.8711 44.8027C44.8711 44.3925 44.9121 44.3242 45.2128 44.3242C45.4726 44.3242 45.5683 44.2285 45.6777 43.8183C45.7597 43.5312 45.8281 43.1894 45.8281 43.0664C45.8281 42.9296 45.8964 42.8203 45.9785 42.8203C46.1972 42.8203 46.498 42.3964 46.5117 42.1093C46.5117 41.9726 46.5801 41.8632 46.6484 41.8632C46.7304 41.8632 46.7851 41.7812 46.7851 41.6719C46.7851 41.5625 46.8808 41.4531 46.9902 41.3984C47.0995 41.3574 47.1953 41.2343 47.1953 41.1249C47.1953 41.0293 47.291 40.9062 47.4004 40.8516C47.5097 40.8105 47.6055 40.7148 47.6055 40.6465C47.6055 40.4824 48.371 39.6758 48.5214 39.6758C48.6719 39.6758 49.3612 41.0539 49.4741 41.3179C49.5192 41.4234 49.1913 41.3164 49.1367 41.3164C49.082 41.3164 48.9316 41.5215 48.8222 41.7675C48.6992 42 48.0429 43.3125 47.3594 44.666C46.6757 46.0195 46.0742 47.3183 46.0195 47.5371C45.8964 48.0566 44.9805 50.3672 44.4883 51.3926C43.9551 52.5 43.75 52.8007 43.4902 52.8007C43.3671 52.8007 43.3622 52.5846 43.2802 52.4205Z" fill="url(#paint10_radial_31_2335)"/>
<path d="M54.4415 50.8183C54.4415 50.2305 54.5782 50.2168 54.8927 50.7363C55.1935 51.2559 55.1935 51.2969 54.7833 51.2969C54.4825 51.2969 54.4415 51.2422 54.4415 50.8183Z" fill="url(#paint11_radial_31_2335)"/>
<path d="M53.7577 49.5879C53.7577 49 53.9104 48.9771 54.2089 49.5059C54.7787 50.5156 54.6384 50.301 54.0995 50.0664C53.8237 49.9464 53.7577 50.0117 53.7577 49.5879Z" fill="url(#paint12_radial_31_2335)"/>
<path d="M20.4258 48.4668C20.2481 48.2617 19.8379 47.5097 19.5098 46.7715L18.714 44.8851L19.5919 45.3769C21.2325 45.1856 28.1915 41.8359 28.1915 41.2481C28.1915 41.0976 28.6919 40.5161 28.7602 40.6254C28.7876 40.6528 29.3262 41.7949 29.7637 42.793C30.2601 43.9174 30.4716 44.5581 30.6055 44.8391C30.7102 45.0588 30.5388 45.1295 30.379 45.0762C30.2423 45.0351 29.627 45.2266 28.9981 45.5C28.3692 45.7734 27.6309 46.0879 27.3712 46.1972L26.8926 46.3887L27.5079 46.3203C28.3145 46.2383 27.9864 46.4297 26.5782 46.8535C26.0039 47.0175 25.1563 47.291 24.7052 47.4551C23.8301 47.7558 21.4239 48.4258 21.0821 48.4668C20.9727 48.4805 20.8497 48.5625 20.8087 48.6582C20.7677 48.7676 20.6309 48.6855 20.4258 48.4668Z" fill="url(#paint13_linear_31_2335)"/>
<path d="M19.4415 46.0743C19.4415 45.9375 19.3595 45.8282 19.2638 45.8282C19.0998 45.8282 18.7949 45.1518 18.1523 43.6479C18.125 43.5932 18.7306 43.6133 19.3732 43.3809C21.6291 42.5606 23.6115 41.4805 25.5256 40.0313C26.6876 39.1289 26.9611 38.8828 26.9611 38.6641C26.9611 38.541 27.0568 38.4454 27.1662 38.4454C27.2755 38.4454 27.3713 38.3906 27.3713 38.3086C27.3713 38.2403 27.4533 38.1719 27.549 38.1719C27.7267 38.1719 28.9299 40.8106 29.0665 41.5215C29.1486 41.8907 29.1349 41.9043 28.9709 41.6992C28.7384 41.4121 28.6017 41.3848 28.6017 41.6446C28.6017 42.1641 23.2833 44.8301 20.3986 45.7461C19.9884 45.8828 19.6056 46.0606 19.5509 46.1563C19.4825 46.252 19.4415 46.2246 19.4415 46.0743Z" fill="url(#paint14_linear_31_2335)"/>
<path d="M26.4141 54.1954C26.4141 54.1406 26.5918 53.9903 26.8106 53.8535C27.0156 53.7305 27.4258 53.4024 27.6992 53.1152L28.1914 52.6094V53.0606C28.1914 53.5391 27.9316 53.8945 27.5899 53.8945C27.4668 53.8945 27.3711 53.9903 27.3711 54.0996C27.3711 54.2364 27.2207 54.3047 26.8926 54.3047C26.6328 54.3047 26.4141 54.25 26.4141 54.1954Z" fill="url(#paint15_linear_31_2335)"/>
<path d="M17.8417 43.0391L17.2948 41.7949L17.6639 41.7129C18.867 41.4531 21.5058 40.0723 23.0096 38.9102C24.0077 38.1445 25.8671 36.2715 25.8671 36.0391C25.8671 35.9297 25.9354 35.8476 26.0038 35.8476C26.0858 35.8476 26.1405 35.752 26.1405 35.6426C26.1405 35.5332 26.2228 35.4445 26.3182 35.4375C26.3695 35.4338 26.463 35.4859 26.6129 35.7689C26.8873 36.2872 27.3377 37.3394 27.8268 38.541C27.8474 38.5916 28.0988 39.1429 28.1672 39.3206C28.2356 39.4983 27.9999 39.2657 27.9178 39.2657C27.8358 39.2657 27.7811 39.1699 27.7811 39.0606C27.7811 38.9512 27.6854 38.8555 27.5761 38.8555C27.4667 38.8555 27.371 38.9512 27.371 39.0742C27.371 39.293 27.0975 39.5391 25.9354 40.4414C24.1718 41.7813 21.9159 43.0391 20.2069 43.6406C19.8241 43.7774 19.3319 43.9687 19.0995 44.0508C18.8808 44.1465 18.6209 44.2422 18.5389 44.2559C18.4569 44.2832 18.1425 43.7364 17.8417 43.0391Z" fill="url(#paint16_linear_31_2335)"/>
<path d="M51.789 64.2715C50.3261 63.9297 49.0273 62.9043 48.1386 61.3868C47.373 60.0743 47.3593 60.0469 47.8515 60.0469C48.0703 60.0469 48.6855 59.8418 49.1914 59.6094C50.2578 59.1172 51.6113 58.9531 52.4316 59.2129C52.9921 59.4043 54.3867 60.6485 55.2617 61.7285L55.8769 62.5078L56.6289 62.4258L58.7698 59.4853C58.9985 59.2263 58.1837 61.1153 56.9296 62.8223C55.7539 64.0391 53.5253 64.6816 51.789 64.2715Z" fill="url(#paint17_radial_31_2335)"/>
<path d="M57.5859 54.4414C57.5859 54.1543 57.7226 54.1133 58.2422 54.25C58.7344 54.3867 58.6113 54.7148 58.0645 54.7148C57.6816 54.7148 57.5859 54.6602 57.5859 54.4414Z" fill="url(#paint18_radial_31_2335)"/>
<path d="M43.5587 53.2383C43.1485 52.4726 43.1485 52.459 43.3946 52.1993C43.7638 51.8027 45.3634 48.1797 45.6095 47.168C45.7598 46.5254 48.4942 41.0566 48.754 40.8789C48.8634 40.7969 48.8634 40.7695 48.754 40.7695C48.6719 40.7695 48.6036 40.6739 48.6036 40.5645C48.6036 40.1543 48.9317 40.373 49.3555 41.084C49.7657 41.7539 49.8341 42.2735 49.5196 42.2735C49.3282 42.2735 46.5391 48.043 46.4434 48.6309C46.293 49.5469 46.088 50.0664 45.1856 51.9121C44.7208 52.8828 47.9267 61.0124 47.9745 61.0952C48.1828 61.4553 43.9551 53.9629 43.5587 53.2383Z" fill="url(#paint19_radial_31_2335)"/>
<path d="M56.2186 53.6074V53.1973L56.6288 53.4844C57.2304 53.9082 57.244 54.0312 56.7108 54.0312C56.2596 54.0312 56.2186 54.0039 56.2186 53.6074Z" fill="url(#paint20_radial_31_2335)"/>
<path d="M60.7627 53.7172C60.7627 53.6762 61.086 53.5527 61.3458 53.2793L61.8323 52.7628L61.5919 53.334C61.4415 53.7031 61.2911 53.8945 61.1134 53.8945C60.9767 53.8945 60.7627 53.7445 60.7627 53.7172Z" fill="url(#paint21_radial_31_2335)"/>
<path d="M55.125 52.0488C55.125 51.4473 55.248 51.4473 55.6446 52.0488L55.9359 52.5818L55.5352 52.5274C55.1524 52.5274 55.125 52.4864 55.125 52.0488Z" fill="url(#paint22_radial_31_2335)"/>
<path d="M53.2111 48.6309C53.2111 48.0293 53.3341 48.0293 53.7306 48.6309L54.0362 49.1583L53.6212 49.1094C53.2384 49.1094 53.2111 49.0684 53.2111 48.6309Z" fill="url(#paint23_radial_31_2335)"/>
<path d="M52.5272 47.4004C52.5272 46.7988 52.6503 46.7988 53.0468 47.4004L53.4021 48.0308L52.9374 47.8789C52.5546 47.8789 52.5272 47.8379 52.5272 47.4004Z" fill="url(#paint24_radial_31_2335)"/>
<path d="M29.0799 41.918C28.9569 41.7266 28.8886 41.5352 28.9159 41.4942C28.9569 41.4531 29.0937 41.6172 29.2167 41.8496C29.4764 42.3691 29.4081 42.4101 29.0799 41.918Z" fill="url(#paint25_linear_31_2335)"/>
<path d="M26.3729 62.002C26.3182 61.961 26.2772 61.7422 26.2772 61.5234C26.2772 61.1817 26.3182 61.1407 26.7558 61.1407C27.2069 61.1407 27.2342 61.168 27.2342 61.6192C27.2342 62.0566 27.1932 62.0977 26.8514 62.0977C26.6327 62.0977 26.4139 62.0566 26.3729 62.002Z" fill="#00B0E7"/>
<path d="M17.5822 42.2871C17.6368 42.2187 17.583 42.1973 17.5125 42.1758C17.3816 42.136 16.3819 39.9066 16.5103 39.838C16.5513 39.797 18.0606 39.2109 19.0998 38.8144C19.3321 38.7187 19.5372 38.6094 19.5782 38.5683C19.6192 38.5137 20.0431 38.1855 20.5353 37.8164C22.2306 36.5722 24.0763 34.5898 24.2814 33.7969C24.4728 33.0176 24.5821 33.0039 25.2384 33.6465C25.8946 34.3027 26.5372 35.3691 26.6466 35.9981C26.6876 36.3125 26.6603 36.3809 26.4962 36.3125C26.3595 36.2578 26.2775 36.2988 26.2775 36.4355C26.2775 36.6816 24.4454 38.5273 23.42 39.3203C22.3263 40.1679 20.7814 41.0566 19.4825 41.6035C18.7853 41.8906 18.3478 42.1504 18.3478 42.2735C18.3478 42.4512 18.3341 42.4512 18.2111 42.2735C18.129 42.1504 18.0333 42.123 17.9786 42.2051C17.8419 42.3828 17.4864 42.4648 17.5822 42.2871Z" fill="url(#paint26_linear_31_2335)"/>
<path d="M29.6544 64.2852C28.9845 64.1074 27.7814 63.4922 27.7814 63.3281C27.7814 63.2461 28.0001 63.1914 28.2599 63.1914C28.5197 63.1914 28.7384 63.2324 28.7384 63.3008C28.7384 63.3555 29.34 63.3829 30.0646 63.3691C31.008 63.3418 31.5001 63.3829 31.7873 63.5332C32.0196 63.6426 32.2794 63.7383 32.3888 63.7383C32.6486 63.7383 32.6076 64.1074 32.3341 64.2168C31.924 64.3672 30.2013 64.4219 29.6544 64.2852Z" fill="url(#paint27_linear_31_2335)"/>
<path d="M56.2188 63.123C56.2188 62.9726 56.1232 62.9316 55.9044 62.9863C55.6446 63.0547 55.4669 62.918 54.8653 62.1797C53.9357 61.0312 52.7189 59.9238 52.1173 59.664C51.8439 59.5547 51.4064 59.5 51.0782 59.541C50.422 59.6093 48.8908 60.2792 48.5079 60.6758C48.2072 60.9629 47.9064 61.0449 47.9337 60.8125C47.9337 60.7304 47.8927 60.6484 47.8244 60.6347C47.715 60.6074 47.3185 59.9511 46.0607 57.6953L45.5411 56.7656H45.9649C46.2384 56.7656 46.3751 56.8339 46.3751 56.9707C46.3751 57.1894 46.5939 57.2578 46.6759 57.0664C46.7032 57.0117 47.2364 56.5332 47.879 56.0273C48.9865 55.1113 49.0275 55.0703 48.9865 54.5644C48.9591 54.0449 48.9591 54.0312 49.4103 54.0312C49.8341 54.0312 49.9162 54.1269 50.6134 55.207C51.0236 55.8633 51.7755 56.7656 52.2677 57.2441C53.4025 58.3105 54.1544 58.5976 55.3849 58.4609C55.9728 58.3925 56.2188 58.4199 56.2188 58.5293C56.2188 58.6113 56.2872 58.6796 56.3829 58.6796C56.4649 58.6796 56.8341 58.9257 57.1896 59.2266C57.5587 59.5273 57.9825 59.7734 58.174 59.7734C58.3517 59.7734 58.6213 59.8053 58.6623 59.8463C58.4399 60.2655 57.5728 62.0677 56.9029 62.765C56.1646 63.5579 56.2188 63.4512 56.2188 63.123Z" fill="url(#paint28_radial_31_2335)"/>
<path d="M44.3241 54.5644C43.832 53.7168 43.7363 53.2383 43.996 53.0058C44.3241 52.7051 45.8417 49.2598 45.9785 48.5078C46.0605 48.0703 46.3886 47.168 46.7168 46.5117C47.0312 45.8418 47.2636 45.2676 47.2226 45.2266C47.1816 45.1856 47.2226 45.1445 47.3046 45.1445C47.4003 45.1445 47.455 45.1035 47.4413 45.0488C47.3867 44.8985 48.913 41.7248 49.2138 41.3966C49.4599 41.1369 49.5058 41.4258 49.916 42.082C50.3261 42.7383 50.3261 42.7519 50.08 43.1621C49.4921 44.1328 48.5487 45.8555 47.8788 47.1953C47.2773 48.3848 47.1542 48.7402 47.1816 49.2871C47.2089 50.0117 46.9081 51.0098 46.1972 52.5547C45.9375 53.1289 45.6776 53.7851 45.623 54.0039C45.582 54.2363 45.4453 54.4961 45.3359 54.5918C45.2265 54.6738 45.1445 54.8926 45.1445 55.0703C45.1445 55.6308 44.8027 55.4258 44.3241 54.5644Z" fill="url(#paint29_radial_31_2335)"/>
<path d="M59.3769 54.5098C59.4042 54.373 59.582 54.2363 59.7597 54.209C59.9512 54.1817 60.1699 54.0996 60.2519 54.0312C60.3476 53.9629 60.457 53.9356 60.498 53.9902C60.5527 54.0312 60.5937 54.0039 60.5937 53.9218C60.5937 53.8262 60.6621 53.7578 60.7441 53.7578C60.8398 53.7578 60.9675 53.6269 61.0859 53.5254C61.3323 53.3142 61.2637 53.3203 61.2773 53.7305C61.2873 54.0311 61.1953 54.209 61.0449 54.2637C60.9082 54.3183 60.7577 54.414 60.7167 54.4824C60.6621 54.5508 60.3339 54.6465 59.9785 54.6875C59.4179 54.7422 59.3359 54.7285 59.3769 54.5098Z" fill="url(#paint30_radial_31_2335)"/>
<path d="M55.6719 53.334C55.6719 53.2519 55.5763 53.1016 55.4669 52.9922C55.2618 52.7735 55.1797 51.8438 55.3712 51.8438C55.4532 51.8438 55.6993 52.1855 56.2735 53.1152L56.4923 53.4844H56.0821C55.8634 53.4844 55.6719 53.416 55.6719 53.334Z" fill="url(#paint31_radial_31_2335)"/>
<path d="M54.578 51.0918C54.578 50.4902 54.7011 50.4902 55.0976 51.0918L55.4314 51.6543L54.9882 51.5703C54.6054 51.5703 54.578 51.5293 54.578 51.0918Z" fill="url(#paint32_radial_31_2335)"/>
<path d="M53.8944 49.8614C53.8944 49.4786 53.8397 49.3828 53.621 49.3828C53.4022 49.3828 53.3475 49.2871 53.3475 48.9043C53.3475 48.6445 53.3885 48.4258 53.4296 48.4258C53.5526 48.4258 54.0174 49.0274 54.0312 49.1777C54.0312 49.2598 54.1815 49.5469 54.3729 49.834L54.765 50.4647L54.3045 50.3399C53.9218 50.3399 53.8944 50.2989 53.8944 49.8614Z" fill="url(#paint33_radial_31_2335)"/>
<path d="M52.6641 47.6738C52.6641 47.1133 52.7324 47.0859 53.0879 47.5097C53.4297 47.9336 53.416 48.1523 53.0058 48.1523C52.7051 48.1523 52.6641 48.0977 52.6641 47.6738Z" fill="url(#paint34_radial_31_2335)"/>
<path d="M55.4806 52.9922C55.4396 52.8692 55.3985 52.5957 55.3985 52.377C55.3985 52.0762 55.3302 51.9805 55.1251 51.9805C54.9063 51.9805 54.8517 51.8848 54.8517 51.4883C54.8517 51.0508 54.879 51.0098 55.0704 51.1739C55.1935 51.2695 55.3849 51.584 55.4943 51.8711C55.6036 52.1582 55.5812 52.4109 55.6633 52.4109C55.7316 52.4109 55.9181 52.459 55.8771 52.5274C55.8361 52.6094 55.8497 52.6641 55.9181 52.6641C55.9865 52.6641 56.0822 52.7871 56.1232 52.9375C56.1778 53.1563 56.1232 53.2109 55.8771 53.2109C55.6994 53.2109 55.5216 53.1152 55.4806 52.9922Z" fill="url(#paint35_radial_31_2335)"/>
<path d="M54.1678 50.2441C54.1678 49.7656 54.1815 49.7519 54.4276 49.9844C54.5644 50.1211 54.6816 50.349 54.7557 50.4902C54.8543 50.6782 54.7557 50.75 54.496 50.75C54.2089 50.75 54.1678 50.6817 54.1678 50.2441Z" fill="url(#paint36_radial_31_2335)"/>
<path d="M53.4844 49.0137C53.4844 48.5215 53.4844 48.5215 53.7305 48.7812C53.8672 48.918 54.0176 49.1504 54.0722 49.2871C54.1406 49.4649 54.086 49.5195 53.8261 49.5195C53.5254 49.5195 53.4844 49.4649 53.4844 49.0137Z" fill="url(#paint37_radial_31_2335)"/>
<path d="M52.8009 47.7832C52.8009 47.291 52.8009 47.291 53.047 47.5508C53.1837 47.6875 53.3341 47.9199 53.3888 48.0567C53.4572 48.2344 53.4025 48.2891 53.1427 48.2891C52.8419 48.2891 52.8009 48.2344 52.8009 47.7832Z" fill="url(#paint38_radial_31_2335)"/>
<path d="M52.1171 46.6485C52.1171 46.2793 51.897 45.7048 52.3631 46.3706C52.4406 46.4814 52.5813 46.7184 52.6823 46.8392C52.737 47.0305 52.6913 47.0586 52.4452 47.0586C52.1718 47.0586 52.1171 46.9902 52.1171 46.6485Z" fill="url(#paint39_radial_31_2335)"/>
<path d="M63.9569 46.8535C63.9159 46.7442 63.9159 46.5664 63.9569 46.4707C64.0663 46.1562 63.7245 46.0059 62.7128 45.9101C60.2792 45.7051 57.955 44.6797 55.3436 42.6836L54.7968 42.2597L54.332 42.9844C54.0859 43.3809 53.8944 43.6406 53.9218 43.5586C53.9491 43.4766 54.6327 41.8906 55.4667 40.0312C56.6561 37.3379 57.0116 36.668 57.2167 36.668C57.3671 36.668 57.8456 37.0645 58.2968 37.5567C59.4042 38.7461 60.8807 39.7168 62.2753 40.1679C63.3007 40.5098 63.5741 40.5371 65.3378 40.5234L67.2794 40.4961L67.0333 41.084C65.7346 44.0781 64.5175 46.7168 64.3534 46.8672C64.121 47.1133 64.0527 47.1133 63.9569 46.8535Z" fill="url(#paint40_linear_31_2335)"/>
<path d="M18.3862 40.686C18.3178 40.5903 16.9396 40.671 16.8849 40.712C16.8073 40.7271 16.6868 40.5419 16.5144 39.9946C16.4199 39.6947 15.9215 38.4357 16.0773 38.3942C16.1697 38.3696 16.1123 38.5617 16.0801 38.4635C16.02 38.2795 16.1328 38.5815 16.1195 38.4122C16.0535 37.5745 16.543 36.0088 16.6217 35.9351C16.9609 35.6173 17.9373 36.9414 17.9373 36.7364C17.9373 36.6406 18.2382 36.3672 18.5936 36.1348C19.3319 35.67 20.1385 34.918 20.8632 34.0293C21.2186 33.6055 21.369 33.2637 21.4374 32.7305L21.3667 32.1238C21.6054 31.9393 22.8706 32.1735 22.7861 32.2427C22.3293 32.0289 23.4284 32.4352 24.1444 32.8125C24.3744 32.9338 24.7144 33.1624 24.8456 33.284C25.1312 33.549 25.0204 33.7002 24.8143 33.9063C24.7186 34.002 24.6639 34.1524 24.7186 34.2207C24.828 34.3985 23.6112 35.8887 22.6268 36.8047C20.9588 38.336 20.5077 38.7324 20.6171 38.5547C20.7264 38.3633 20.3299 38.6231 20.0565 38.9238C19.9881 38.9922 19.7557 39.1289 19.5643 39.1973C17.5545 39.9766 19.001 40.5792 18.9737 40.7569C18.9327 40.921 18.4682 40.8227 18.3862 40.686Z" fill="url(#paint41_linear_31_2335)"/>
<path d="M31.951 64.1758C31.8006 64.1484 31.6092 64.0664 31.5272 63.998C31.3084 63.8203 29.6952 63.7246 29.2166 63.8613C28.492 64.0664 27.0838 63.0957 26.2635 61.8379L25.9436 61.1038L26.455 60.8946C26.7694 60.7031 27.3163 60.3066 27.6581 60.0195C28.0135 59.7324 28.369 59.5 28.451 59.5C28.533 59.5 28.6014 59.4043 28.6014 59.2949C28.6014 59.1445 28.7518 59.0899 29.1893 59.0899C30.5975 59.0899 32.2518 57.7636 33.66 55.5078C34.3436 54.4141 34.453 54.3047 34.8494 54.3047C35.0819 54.3047 35.3006 54.3867 35.3416 54.4824C35.4374 54.7285 35.3143 58.0235 35.1366 59.5957C34.9725 61.0996 35.0545 61.414 35.6014 61.414C35.8338 61.414 35.8202 61.4688 35.451 62.002C34.576 63.2871 32.8397 64.3672 31.951 64.1758Z" fill="url(#paint42_linear_31_2335)"/>
<path d="M58.1329 60.3887C58.1329 60.2246 58.0783 60.1973 57.9005 60.3066C57.7228 60.4024 57.504 60.293 56.9161 59.7598C56.506 59.3906 56.0821 59.0899 55.9865 59.0899C55.8907 59.0899 55.8087 59.0489 55.8087 58.9941C55.8087 58.9258 55.4396 58.9121 54.9884 58.9258C53.963 58.9941 53.006 58.6797 52.3087 58.0645L51.7755 57.5996L52.2677 57.5859C52.5412 57.5859 52.7873 57.627 52.8419 57.668C52.9513 57.791 54.674 57.7774 55.3849 57.6543C55.713 57.5996 56.4103 57.4082 56.9298 57.2168C57.463 57.0391 58.379 56.8477 58.9806 56.8067L60.1516 56.4758L59.8692 57.1894C58.6935 59.9512 58.1329 60.9766 58.1329 60.3887Z" fill="url(#paint43_radial_31_2335)"/>
<path d="M46.2384 57.8594C46.129 57.791 46.088 57.7226 46.1563 57.7226C46.2384 57.7226 46.17 57.6269 46.0196 57.5175C45.8829 57.4082 45.8282 57.3125 45.8966 57.3125C45.9786 57.3125 45.9786 57.2715 45.8829 57.2031C45.6231 57.0254 44.7208 55.2754 44.6661 54.8379C44.6251 54.5098 44.6798 54.3457 44.8575 54.209C45.0079 54.1133 45.1583 53.8399 45.213 53.6074C45.2676 53.375 45.5275 52.7187 45.7872 52.1445C46.5118 50.5586 46.7579 49.7246 46.6895 49.0683C46.6349 48.5899 46.7306 48.2754 47.2638 47.1953C48.2481 45.1718 49.7011 42.0939 49.8651 42.0939C49.9472 42.0939 50.3126 42.7519 50.5314 43.1621C50.9005 43.832 51.185 44.149 50.9936 44.3677C50.8158 44.5865 49.0001 47.168 48.5899 48.0156C48.1525 48.959 47.8653 49.8886 47.9337 50.2031C47.961 50.4082 48.4122 51.2969 48.918 52.1992C49.4239 53.0879 49.9708 54.0722 50.1212 54.3593C50.2853 54.6602 50.504 55.0156 50.627 55.1524C50.7501 55.2891 50.9278 55.5762 51.0372 55.7812C51.1466 55.9863 51.3107 56.2051 51.3927 56.2598C51.4884 56.3144 51.5704 56.5879 51.5704 56.8613C51.5704 57.3535 51.5704 57.3535 51.2833 57.0937C51.1192 56.957 50.6817 56.3418 50.2853 55.7539C49.6153 54.7148 49.588 54.6875 49.5196 55.084C49.465 55.3985 49.1778 55.7129 48.2892 56.4238C47.6466 56.9433 46.9903 57.5039 46.8262 57.6816C46.4845 58.0371 46.5118 58.0371 46.2384 57.8594Z" fill="url(#paint44_radial_31_2335)"/>
<path d="M57.9003 54.7559C57.5311 54.7012 57.4491 54.6328 57.4491 54.3731C57.4491 54.0723 57.4901 54.045 57.8046 54.168C57.996 54.25 58.5155 54.3047 58.953 54.3047C59.3905 54.3047 59.91 54.25 60.1015 54.168C60.4159 54.0586 60.4569 54.0722 60.4569 54.3594C60.4569 54.6328 60.3749 54.6875 59.828 54.7695C59.1718 54.8515 58.6796 54.8515 57.9003 54.7559Z" fill="url(#paint45_radial_31_2335)"/>
<path d="M56.3555 53.7579C56.3555 53.3887 56.3145 53.3477 55.9453 53.3477C55.5625 53.3477 55.5352 53.3067 55.5352 52.8692C55.5352 52.2676 55.6582 52.2676 56.0547 52.8692C56.2188 53.1289 56.5742 53.4844 56.834 53.6485C57.4355 54.045 57.4355 54.168 56.834 54.168C56.3965 54.168 56.3555 54.1406 56.3555 53.7579Z" fill="url(#paint46_radial_31_2335)"/>
<path d="M27.9178 52.9922C27.9178 52.8281 28.3827 52.1172 28.4921 52.1172C28.5467 52.1172 28.6015 52.3359 28.6015 52.5958C28.6015 53.0196 28.5604 53.0742 28.2596 53.0742C28.0683 53.0742 27.9178 53.0332 27.9178 52.9922Z" fill="#00B2F7"/>
<path d="M54.7969 51.8984C54.7559 51.7754 54.7148 51.5019 54.7148 51.2832C54.7148 50.9824 54.6465 50.8867 54.4551 50.8867C54.168 50.8867 54.0312 50.6269 54.0312 50.0527C54.0312 49.7519 53.9629 49.6562 53.7578 49.6562C53.539 49.6562 53.4844 49.5605 53.4844 49.1777C53.4844 48.9179 53.539 48.6992 53.5938 48.6992C53.7031 48.6992 55.5352 51.8574 55.5352 52.0351C55.5352 52.2265 54.8789 52.1035 54.7969 51.8984Z" fill="url(#paint47_radial_31_2335)"/>
<path d="M52.8009 47.9473C52.8009 47.3594 52.9376 47.3457 53.2521 47.8652C53.5528 48.3848 53.5528 48.4258 53.1427 48.4258C52.8419 48.4258 52.8009 48.3711 52.8009 47.9473Z" fill="url(#paint48_radial_31_2335)"/>
<path d="M52.1171 46.6895L52.1307 46.17L52.4588 46.5527C52.8964 47.0449 52.8827 47.1953 52.4588 47.1953C52.1581 47.1953 52.1171 47.1407 52.1171 46.6895Z" fill="url(#paint49_radial_31_2335)"/>
<path d="M26.5234 36.3671C26.2226 36.0664 26.2226 35.9843 26.4686 35.9843C26.5644 35.9843 26.6874 36.121 26.7285 36.2851C26.8378 36.668 26.8105 36.6816 26.5234 36.3671Z" fill="url(#paint50_linear_31_2335)"/>
<path d="M27.9453 52.8692C28.3418 52.2676 28.4648 52.2676 28.4648 52.8692C28.4648 53.3067 28.4375 53.3477 28.0547 53.3477H27.6445L27.9453 52.8692Z" fill="#00C8E6"/>
<path d="M30.7889 48.084C30.7889 47.8926 31.2265 47.1953 31.3358 47.1953C31.4178 47.1953 31.4726 47.4141 31.4726 47.6739C31.4726 48.0977 31.4315 48.1524 31.1307 48.1524C30.9394 48.1524 30.7889 48.125 30.7889 48.084Z" fill="#00C8E6"/>
<path d="M16.0498 38.5101C15.7735 36.158 17.0176 33.7442 18.9219 32.6895C19.807 32.1992 21.9396 31.8827 22.0223 32.1438C22.0633 32.2395 22.0908 32.524 22.2001 32.483C22.542 32.3463 22.4629 32.4297 22.1347 32.8672C21.9434 33.1133 21.8203 33.3867 21.8614 33.4688C21.9844 33.8105 20.2207 35.7246 19.0996 36.4765C18.7304 36.7364 18.416 37.0097 18.416 37.1055C18.416 37.3106 18.3094 38.5477 18.2 38.3837C18.1453 38.3016 18.3218 38.5374 18.1988 38.6468C18.0347 38.7699 16.0946 38.8904 16.0498 38.5101Z" fill="url(#paint51_linear_31_2335)"/>
<path d="M34.7402 61.5918C34.6172 61.373 34.6035 60.9629 34.6855 60.0879C34.7539 59.4316 34.8086 58.1055 34.8223 57.1484C34.8359 56.1914 34.8769 55.3574 34.9316 55.3164C35.082 55.1524 35.041 54.9883 34.8496 54.9883C34.7539 54.9883 34.3164 55.5352 33.8926 56.1914C32.5801 58.2558 30.9531 59.5 29.5996 59.5C29.1347 59.5 29.0391 59.541 29.0937 59.7051C29.1484 59.8418 29.0937 59.9102 28.9433 59.9102C28.8203 59.9102 28.4238 60.1426 28.0683 60.4297C27.7266 60.7168 27.248 61.0723 27.0019 61.209C26.7695 61.3457 26.6054 61.5371 26.6464 61.6328C26.7012 61.7695 26.6464 61.7832 26.3731 61.6465C26.127 61.5371 25.8535 61.0859 25.3477 59.9648L23.6345 55.8359C26.1062 56.2371 29.2963 56.0164 29.2963 56.0164C30.3764 55.8387 29.5431 55.1293 30.5549 55.471C31.7033 55.8675 30.2495 56.8035 31.2339 56.1472C31.5347 55.9422 31.9266 56.0077 32.0633 55.9256C32.2137 55.8572 32.4317 56.2301 32.4317 56.1481C32.4317 56.0661 32.93 56.4903 33.0531 56.3946C33.4359 56.0801 33.5918 55.5215 35.7929 51.7617C36.9687 49.7383 38.4863 47.1816 39.1699 46.0605C40.373 44.1328 40.4414 44.0508 40.8652 44.0508C41.289 44.0508 41.3164 44.0781 41.3164 44.502C41.3164 44.7344 41.1523 45.1856 40.9746 45.4863C40.7832 45.7871 40.6328 46.1699 40.6328 46.334C40.6328 46.4844 40.4824 46.9492 40.291 47.3594C40.0996 47.7558 39.9492 48.207 39.9492 48.3574C39.9492 48.5078 39.8535 48.8222 39.7304 49.041C39.334 49.7793 38.4316 52.4316 37.8574 54.5098C37.4199 56.1094 37.2969 56.8203 37.2832 57.7226L37.2695 58.8848L36.4082 60.4024C35.6972 61.6465 35.4922 61.9062 35.2324 61.9062C35.041 61.9062 34.8359 61.7832 34.7402 61.5918Z" fill="url(#paint52_linear_31_2335)"/>
<path d="M52.2129 57.9414C51.4336 57.3535 50.4766 56.0546 49.2188 53.8672C47.8106 51.3926 47.4415 50.668 47.3868 50.1894C47.3457 49.834 47.7559 48.5078 48.1798 47.6054C48.7266 46.4844 50.2442 43.7773 50.4219 43.6269C50.668 43.4218 50.709 43.4766 51.2832 44.4746C51.5841 45.0352 51.8844 45.4363 51.7614 45.491C51.5836 45.5457 50.0665 47.8652 50.0665 48.125C50.0665 48.1934 49.8477 48.7129 49.5879 49.2598C49.3282 49.8203 49.0547 50.6406 48.9864 51.0918C48.8633 51.8438 48.877 51.9668 49.2188 52.6641C49.4239 53.0742 49.67 53.4844 49.7657 53.5937C49.8477 53.6895 49.9297 53.8672 49.9297 53.9629C49.9297 54.1406 50.6954 54.4414 51.1329 54.4414C51.2149 54.4414 51.297 54.4961 51.297 54.5644C51.297 54.6191 51.8302 54.5644 52.5001 54.4277C53.1563 54.291 54.2911 54.1269 55.043 54.0859C56.1504 54.0039 56.4102 53.9492 56.4512 53.7578C56.5059 53.5527 56.5442 53.6989 57.2715 53.9356C58.5373 54.3475 60.2303 54.4213 61.3321 53.498C61.7168 53.1757 61.7135 53.1116 60.5938 55.5762C59.8421 57.2306 59.5001 57.7773 59.5001 57.2988C59.5001 57.1074 58.42 57.2715 57.2442 57.668C55.8497 58.1191 54.7696 58.3105 54.0723 58.2012C53.7032 58.1464 53.4844 58.1602 53.5391 58.2422C53.5801 58.3105 53.4298 58.3652 53.211 58.3789C52.9512 58.3789 52.5821 58.2285 52.2129 57.9414Z" fill="url(#paint53_radial_31_2335)"/>
<path d="M55.2206 52.7324C55.0976 52.459 54.9882 52.0625 54.9882 51.8438C54.9882 51.5293 54.9198 51.4336 54.7285 51.4336C54.4413 51.4336 54.3046 51.1739 54.3046 50.5996C54.3046 50.2988 54.2363 50.2031 54.0448 50.2031C53.7577 50.2031 53.621 49.9434 53.621 49.3692C53.621 49.0683 53.5527 48.9727 53.3612 48.9727C53.0741 48.9727 52.9374 48.7129 52.9374 48.1387C52.9374 47.8379 52.869 47.7422 52.6777 47.7422C52.5409 47.7422 52.3769 47.6465 52.3358 47.5235C52.2128 47.209 52.2402 46.5117 52.3632 46.5117C52.4316 46.5117 53.3066 48.0156 54.332 49.8614C56.164 53.1426 56.1913 53.2109 55.8222 53.2109C55.5351 53.2109 55.3984 53.1016 55.2206 52.7324Z" fill="url(#paint54_radial_31_2335)"/>
<path d="M30.9529 47.7832C31.4315 46.7715 31.6092 46.6758 31.6092 47.4004C31.6092 47.8242 31.5682 47.8789 31.2538 47.8789C31.0623 47.8789 30.9256 47.8379 30.9529 47.7832Z" fill="#00BFF9"/>
<path d="M49.6834 54.5508C49.3143 53.9219 48.7948 53.0332 48.5487 52.5684C48.0975 51.7481 48.0975 51.7207 48.3436 51.461C48.4803 51.2969 48.5487 51.1192 48.5077 51.0508C48.4119 50.8867 48.8631 49.4512 49.287 48.6035C49.4921 48.2071 49.6561 47.8242 49.6561 47.7422C49.6561 47.4688 51.0917 44.6113 51.2284 44.6113C51.3104 44.5977 51.5291 44.8985 51.7206 45.2539C55.6717 52.4863 56.328 53.5254 57.3123 54.0313C57.5721 54.1816 57.7362 54.291 57.6542 54.3047C57.5858 54.3047 57.6132 54.3731 57.7225 54.4551C57.8729 54.5645 57.8319 54.5781 57.5174 54.4961C56.6288 54.2774 54.1268 54.5371 51.912 55.0567C51.1737 55.2344 51.078 55.2207 50.9276 55.0293C50.8319 54.9063 50.7088 54.8379 50.6678 54.8926C50.6131 54.9473 50.4764 54.9063 50.367 54.8106C50.1893 54.6738 50.1756 54.6875 50.2714 54.8516C50.3944 55.0567 50.5037 55.6719 50.4081 55.6719C50.3807 55.6719 50.0526 55.166 49.6834 54.5508Z" fill="url(#paint55_radial_31_2335)"/>
<path d="M23.9258 54.7559C23.625 54.7148 23.543 54.6192 23.543 54.3731C23.543 54.0722 23.5703 54.0586 23.9531 54.1953C24.1856 54.2637 24.8008 54.3047 25.3066 54.2773C26.0723 54.2363 26.373 54.1406 26.9473 53.7989L27.6445 53.3613V53.7578C27.6445 54.0312 27.5761 54.168 27.4395 54.168C27.3301 54.168 27.2344 54.2227 27.2344 54.3047C27.2344 54.6602 25.1836 54.9473 23.9258 54.7559Z" fill="url(#paint56_linear_31_2335)"/>
<path d="M58.1191 54.5918C58.2148 54.5235 58.2422 54.4414 58.1874 54.4141C58.1191 54.3731 58.1464 54.3731 58.2422 54.4004C58.3515 54.4141 58.5156 54.4414 58.625 54.4414C58.7344 54.4414 58.8164 54.5098 58.8164 54.5781C58.8164 54.6602 58.6113 54.7148 58.3789 54.7148C58.0644 54.7148 57.9824 54.6738 58.1191 54.5918Z" fill="url(#paint57_radial_31_2335)"/>
<path d="M66.6776 41.3301C66.8279 41.0703 66.3633 40.9882 64.6953 40.9609C63.2461 40.9472 62.8223 40.8926 61.8653 40.5781C60.4571 40.1269 58.9942 39.1563 57.8867 37.9668L57.0664 37.0781L56.7793 37.4473L56.3801 38.0984L56.6153 37.4746C57.0664 36.2168 58.0372 34.4121 58.6114 33.8105C59.8282 32.5117 61.7422 31.8555 63.4376 32.1562C66.4315 32.6758 68.5236 35.5332 67.9901 38.4043C67.8123 39.3613 67.1974 40.9062 66.992 40.9062C66.9099 40.9062 66.883 40.9882 66.9237 41.0976C66.965 41.207 66.9099 41.3301 66.801 41.3711C66.6914 41.4121 66.6369 41.3984 66.6776 41.3301Z" fill="url(#paint58_linear_31_2335)"/>
<path d="M31.3359 57.0254C30.9941 56.9707 29.7089 56.875 28.4648 56.834C27.2207 56.793 25.8124 56.6836 25.3202 56.5879C24.828 56.5059 24.3632 56.4512 24.2675 56.4649C24.1718 56.4922 24.0351 56.3691 23.9531 56.2051C23.8574 56.0547 24.1488 56.8618 24.091 56.8578C23.9939 56.8511 22.5484 53.5749 22.4709 53.4363C22.4642 53.4243 22.791 53.5664 23.2011 53.8261C24.1718 54.4004 25.0605 54.5371 26.0449 54.25C27.289 53.8945 27.8085 53.2656 29.7909 49.793C31.8007 46.2383 32.0195 45.9375 32.0195 46.7031C32.0195 47.209 31.8827 47.4687 31.5956 47.4687C31.3905 47.4687 31.3359 47.5645 31.3359 47.9473C31.3359 48.2754 31.2675 48.4258 31.1308 48.4258C31.0214 48.4258 30.9257 48.5489 30.9257 48.6855C30.9257 49.0957 30.7753 49.3828 30.5702 49.3828C30.4609 49.3828 30.3789 49.5059 30.3789 49.6426C30.3789 50.0527 30.2285 50.3398 30.0234 50.3398C29.914 50.3398 29.8319 50.4629 29.8319 50.5996C29.8319 51.0098 29.6816 51.2969 29.4765 51.2969C29.3671 51.2969 29.2851 51.4336 29.2851 51.625C29.2851 51.9258 29.3398 51.9531 30.4882 52.0352C31.1444 52.0898 32.2656 52.2129 32.9765 52.3223C33.7011 52.4316 34.5214 52.4863 34.7948 52.4316C35.2597 52.3633 35.3554 52.2676 36.1347 50.9004C36.5995 50.1074 37.0234 49.4238 37.0781 49.3828C37.1327 49.3418 37.2148 49.1777 37.2695 49.0137C37.3242 48.836 37.4336 48.6992 37.5019 48.6992C37.5703 48.6992 37.6249 48.6172 37.6249 48.5078C37.6249 48.3984 37.707 48.2207 37.8163 48.125C37.912 48.0156 38.0488 47.7969 38.0898 47.6328C38.1445 47.4687 38.2539 47.332 38.3222 47.332C38.3906 47.332 38.4452 47.25 38.4452 47.1406C38.4452 47.0313 38.5273 46.8535 38.6367 46.7578C38.7323 46.6484 38.8691 46.4297 38.9101 46.2656C38.9648 46.1016 39.0742 45.9649 39.1425 45.9649C39.2109 45.9649 39.2655 45.8691 39.2655 45.7598C39.2655 45.6504 39.3339 45.5547 39.4023 45.5547C39.4843 45.5547 39.539 45.4727 39.539 45.3633C39.539 45.2539 39.621 45.0762 39.7167 44.9805C39.7987 44.8847 39.9902 44.5703 40.1406 44.2969C40.2773 44.0234 40.5097 43.668 40.6464 43.5176C40.7968 43.3672 40.9062 43.1758 40.9062 43.0938C40.9062 43.0254 40.9746 42.957 41.0429 42.957C41.125 42.957 41.1796 42.8613 41.1796 42.7519C41.1796 42.6426 41.248 42.5469 41.3163 42.5469C41.3984 42.5469 41.4531 42.4512 41.4531 42.3418C41.4531 42.2324 41.5214 42.1367 41.5898 42.1367C41.6718 42.1367 41.7265 42.041 41.7265 41.9316C41.7265 41.8223 41.7949 41.7265 41.8632 41.7265C41.9453 41.7265 41.9999 41.6309 41.9999 41.5215C41.9999 41.3984 42.0956 41.2754 42.205 41.2344C42.3144 41.1797 42.4101 41.0703 42.4101 40.961C42.4101 40.8516 42.4785 40.7695 42.5468 40.7695C42.6288 40.7695 42.6836 40.6739 42.6836 40.5645C42.6836 40.4414 42.7792 40.3184 42.8886 40.2773C42.998 40.2227 43.0937 40.1133 43.0937 40.0039C43.0937 39.8946 43.162 39.8125 43.2304 39.8125C43.3124 39.8125 43.3671 39.7305 43.3671 39.6211C43.3671 39.5117 43.4765 39.334 43.6132 39.2383C43.7362 39.1426 43.9277 38.9102 44.0234 38.7188C44.4472 37.9258 45.0077 37.4883 45.623 37.4883C45.9511 37.4883 46.0741 37.5703 46.2109 37.8848C46.457 38.4453 47.0859 38.7188 47.7148 38.5547C48.0019 38.4863 48.4804 38.3906 48.8085 38.3496C49.3691 38.2676 49.3828 38.2812 49.3828 38.6777C49.3828 38.9102 49.2018 39.2947 49.0924 39.3768C48.7779 39.6365 46.3339 43.0528 45.4589 44.4609C45.0077 45.1719 44.0507 46.8125 43.3398 48.084C39.7987 54.4141 37.0308 59.4903 36.8394 59.4903C36.7847 59.4903 35.7868 56.1233 35.8551 55.9592C35.9235 55.7815 36.8455 54.8257 36.7908 54.6753C36.6951 54.4156 35.3646 55.2381 35.638 54.8826C35.7474 54.7595 37.5641 51.4009 37.6598 50.9771C37.7555 50.5806 39.0973 47.4019 40.0269 45.6929C40.6011 44.6129 43.6406 43.7227 43.6406 43.6406C43.6406 43.5722 43.7089 43.5039 43.7773 43.5039C43.8593 43.5039 43.914 43.3809 43.914 43.2305C43.914 43.0801 43.9687 42.957 44.0371 42.957C44.1874 42.957 45.1445 41.0156 45.1445 40.7149C45.1445 40.5918 45.2128 40.4961 45.2948 40.4961C45.3769 40.4961 45.4042 40.373 45.3496 40.2227C45.2948 40.0723 45.3222 39.9492 45.4042 39.9492C45.4863 39.9492 45.5547 39.8262 45.5547 39.6621C45.5547 39.2109 46.5263 39.9138 46.7847 40.0132C46.9624 40.0816 46.9154 44.7426 46.1921 40.1527C46.1545 39.9137 45.451 40.8224 45.3963 40.6721C45.328 40.467 46.8452 40.7757 46.1617 41.6097C44.0972 44.1253 40.2226 45.1446 36.5312 51.502C33.7284 56.3145 33.3046 56.9433 32.9629 56.8613C32.8261 56.8203 32.703 56.8477 32.703 56.9297C32.703 56.9981 32.6484 57.0117 32.5663 56.9707C32.498 56.9297 32.4296 56.9571 32.4296 57.0254C32.4296 57.1894 32.2246 57.1894 31.3359 57.0254Z" fill="url(#paint59_linear_31_2335)"/>
<path d="M31.2949 37.4746C30.6523 37.1328 29.8593 36.3399 29.4492 35.5879C29.4183 35.6083 29.0361 34.7193 29.0881 34.6851L30.6933 35.0274H32.2519L32.1425 35.6836C32.0878 36.039 32.0332 36.6543 32.0332 37.0508C32.0194 37.4336 31.9784 37.7617 31.9238 37.7617C31.8554 37.748 31.582 37.625 31.2949 37.4746Z" fill="url(#paint60_linear_31_2335)"/>
<path d="M27.5216 53.457C27.7813 53.1973 28.7657 51.6387 29.709 49.9843C33.4961 43.4082 36.4766 38.3223 37.1192 37.3515C37.8712 36.2168 40.4825 33.5371 41.4805 32.8535L42.5484 32.2063L42.1368 32.7988C42.1368 33.0176 41.9181 33.5918 41.6582 34.084C41.1114 35.1368 40.7286 36.5859 40.8516 37.2285C40.9883 37.9121 41.4259 38.6504 41.877 38.9101C42.2735 39.1426 42.3008 39.1426 43.1348 38.7324C44.1876 38.2129 44.4747 38.0351 44.7071 37.7344C44.8164 37.584 45.0625 37.4883 45.3634 37.4883C45.8008 37.4883 45.8282 37.5157 45.8145 37.9395C45.8008 38.1719 45.7735 38.2676 45.7325 38.1308C45.7051 38.0078 45.6231 37.8985 45.5684 37.8985C45.0079 37.8985 41.4805 43.0664 37.8301 49.1777C35.4922 53.1152 35.0411 53.8398 35.2325 53.3203C35.3692 52.9785 35.1915 52.7461 34.959 52.9375C34.8086 53.0605 34.4532 53.0469 33.4961 52.8828C32.088 52.6504 29.9688 52.3906 29.3809 52.3906C29.1212 52.3906 28.8477 52.5547 28.4649 52.9785C28.1641 53.293 27.877 53.5527 27.8087 53.5527C27.7539 53.5664 27.5626 53.6484 27.3848 53.7441C27.1251 53.8808 27.1661 53.8262 27.5216 53.457Z" fill="url(#paint61_linear_31_2335)"/>
<path d="M42.957 48.4257C43.1074 48.125 43.2714 47.8789 43.2988 47.8789C43.3398 47.8789 43.2441 48.125 43.0937 48.4257C42.9433 48.7266 42.7793 48.9726 42.752 48.9726C42.7109 48.9726 42.8066 48.7266 42.957 48.4257Z" fill="url(#paint62_linear_31_2335)"/>
<path d="M43.6405 47.1953C43.7909 46.8945 43.9549 46.6484 43.9823 46.6484C44.0233 46.6484 43.9276 46.8945 43.7772 47.1953C43.6268 47.4961 43.4627 47.7422 43.4354 47.7422C43.3944 47.7422 43.4901 47.4961 43.6405 47.1953Z" fill="url(#paint63_linear_31_2335)"/>
<path d="M44.2012 46.2109C44.5157 45.623 45.8828 43.4356 46.334 42.8066C46.5801 42.4512 46.7852 42.1367 46.7852 42.082C46.7852 42.0273 47.0313 41.6582 47.332 41.2617C47.6328 40.8652 47.8789 40.4277 47.8789 40.3046C47.8789 40.1816 47.9473 40.1133 48.0156 40.1543C48.1387 40.2363 48.2071 40.0175 48.1934 39.5801C48.1797 39.4843 48.2481 39.4023 48.3164 39.4023C48.5078 39.4023 48.836 39.0332 48.7403 38.9375C48.6035 38.8008 48.3984 38.8418 48.4942 38.9921C48.5488 39.0742 48.4121 39.0879 48.1387 39.0332C47.8379 38.9785 47.7285 38.9921 47.7832 39.1015C47.8516 39.1836 47.7832 39.2109 47.6055 39.1699C47.25 39.0742 47.25 38.7188 47.6055 38.7188C47.7559 38.7188 47.8789 38.664 47.8789 38.582C47.8789 38.5137 47.9473 38.4453 48.0293 38.4453C48.1113 38.4453 48.5352 38.2812 48.9726 38.0898C49.4102 37.8984 51.0013 37.1313 51.0745 37.0464C51.2798 36.8088 53.0497 35.1497 49.9705 38.3471C49.8437 38.4788 48.6049 39.9889 48.4444 40.1641C47.9383 40.7172 48.4499 40.0274 48.4394 40.0586C48.4258 40.1133 48.0293 40.6738 47.5508 41.3164C46.5391 42.6836 45.5547 44.1328 44.748 45.5273C44.4199 46.0606 44.1328 46.5117 44.1055 46.5117C44.0645 46.5117 44.1192 46.375 44.2012 46.2109Z" fill="url(#paint64_linear_31_2335)"/>
<path d="M31.9238 35.6699C32.0058 35.4512 30.707 35.3691 30.4335 35.5879C30.2831 35.711 30.2421 35.6972 30.2421 35.5606C30.2421 35.4101 30.2148 35.4101 30.1327 35.5332C30.0371 35.67 29.9413 35.67 29.6542 35.5332C29.1894 35.3281 28.8283 34.3838 28.8749 33.2363C28.9517 31.3469 30.2637 30.2508 31.136 30.1736C31.7713 30.1172 32.3272 30.1681 32.7369 30.6262C33.1467 31.0844 33.2633 31.2548 33.2499 31.8828C33.2394 32.3749 33.1269 32.8535 32.8534 33.4551C32.6347 33.9336 32.3749 34.6582 32.2655 35.082C32.1699 35.5059 32.0331 35.8477 31.9784 35.8477C31.9101 35.8477 31.8828 35.7656 31.9238 35.6699Z" fill="url(#paint65_linear_31_2335)"/>
<path d="M36.2851 32.9492C35.9569 32.5527 35.6698 31.0898 35.6698 29.832C35.6562 28.4101 35.8613 27.2617 36.2987 26.209C36.6268 25.4023 37.7206 23.6797 37.912 23.6797C37.9804 23.6797 38.0351 23.8984 38.0351 24.1582C38.0351 24.5546 37.9804 24.6367 37.7343 24.6367C37.5019 24.6367 37.4745 24.6777 37.5976 24.8007C37.6932 24.8965 37.7616 25.0742 37.7616 25.2109C37.7616 25.8261 40.496 27.1113 42.328 27.3574C43.3671 27.5078 43.4218 27.4941 43.996 27.166C44.3105 26.9746 44.7616 26.8242 44.994 26.8242C45.3905 26.8242 45.4179 26.7832 45.4179 26.3457C45.4179 26.0312 45.4862 25.8671 45.6093 25.8671C45.705 25.8671 45.8281 25.6894 45.8827 25.457C45.9511 25.1152 46.0194 25.0468 46.3749 25.0468C46.5936 25.0468 46.464 23.6381 46.464 23.7064C47.063 23.6335 46.1508 26.1567 44.7306 27.0849C44.5665 27.1533 45.4731 26.9009 45.4458 27.0376C45.35 27.3657 43.8456 28.3554 42.5741 28.875C39.785 30.0371 37.6932 31.418 36.9413 32.6347C36.6268 33.1543 36.5038 33.2089 36.2851 32.9492Z" fill="url(#paint66_linear_31_2335)"/>
<path d="M45.6915 38.1035C45.6915 37.8574 45.4044 37.8301 45.172 38.0625C45.049 38.1856 45.0079 38.1309 45.0079 37.7891C45.0079 37.379 45.0353 37.3516 45.4865 37.3516C45.9376 37.3516 45.9649 37.379 45.9649 37.8301C45.9649 38.0899 45.9103 38.3086 45.8282 38.3086C45.7599 38.3086 45.6915 38.2129 45.6915 38.1035Z" fill="#59E9FE"/>
<path d="M42.2051 27.8223C41.5352 27.7266 40.5508 27.4942 40.0176 27.3028C38.7051 26.8242 37.3926 25.9766 37.3242 25.5665C37.2969 25.3887 37.2148 25.252 37.1192 25.252C37.0371 25.252 36.8973 25.5444 36.8425 25.4897C36.7889 25.4218 36.8728 25.0647 36.9277 25.0469C36.9827 25.0291 37.0388 24.984 37.0235 24.9239C37.0081 24.8637 37.1618 24.6548 37.2832 24.4453C37.4239 24.2026 37.5874 24.0066 37.625 23.9669C37.7363 23.849 38.1172 23.4063 38.3633 23.4063C38.5 23.4063 38.8692 23.5977 39.211 23.8301C40.1817 24.4863 41.4942 25.0469 42.4375 25.1973C43.1895 25.3204 43.4629 25.293 44.6387 24.9785C45.3633 24.7872 46.1152 24.6367 46.3067 24.6367C46.6074 24.6367 46.6484 24.6914 46.6484 25.1289C46.6484 25.416 46.5938 25.5801 46.5117 25.5254C46.4434 25.4844 46.375 25.4844 46.3613 25.5527C46.3613 25.6075 46.334 25.7988 46.3203 25.9766C46.293 26.1543 45.9512 26.6192 45.5547 27.002C45.1582 27.3984 44.8711 27.6035 44.9258 27.4668C45.0078 27.2344 44.9805 27.2344 44.5566 27.4942C43.7911 27.9727 43.5039 28.0137 42.2051 27.8223Z" fill="url(#paint67_linear_31_2335)"/>
<path d="M51.6386 24.0898C50.121 23.3379 49.8391 21.1427 51.2011 20.1113C51.6405 19.7785 52.7851 19.3796 53.1212 19.6552C53.463 20.0107 53.3614 20.2032 54.209 20.1622C54.2062 20.1385 54.8593 20.6437 54.9198 21.1367C55.6991 23.1738 53.5937 25.0606 51.6386 24.0898Z" fill="url(#paint68_linear_31_2335)"/>
<path d="M41.8224 25.5938C41.0567 25.4571 39.6759 24.8418 38.7736 24.2129C38.2404 23.8437 38.09 23.8027 37.8849 23.9395C37.338 24.2676 37.6662 23.8027 38.4865 23.0644C39.6622 21.998 41.2345 21.2325 42.4923 21.1231C44.9396 20.918 46.4675 22.3859 46.7605 24.4433C46.8243 24.8903 46.496 26.0039 46.2233 26.1701C45.9507 26.3364 45.9862 26.092 45.9862 26.01C45.9862 25.9416 46.1538 25.6652 46.0854 25.7745C45.9761 25.9385 46.2384 25.7168 46.2384 25.4433V25.0879L44.9942 25.4023C43.7091 25.7442 42.9708 25.7852 41.8224 25.5938Z" fill="url(#paint69_linear_31_2335)"/>
<path d="M54.6599 21.1231C54.6053 21.0547 54.0721 21.0137 53.4842 21.0137C52.5135 21.0137 52.3904 20.9864 52.0487 20.6446C51.8436 20.4258 51.5428 20.2617 51.3924 20.2617C50.9823 20.2617 51.3377 19.9063 51.9529 19.7012C52.6229 19.4824 53.0877 19.5098 53.7167 19.8243C54.3319 20.1524 54.701 20.5215 54.783 20.9317C54.8377 21.2461 54.824 21.2735 54.6599 21.1231Z" fill="url(#paint70_linear_31_2335)"/>
<path d="M46.1291 38.7187C45.9514 38.5547 45.7463 38.2676 45.6779 38.0761C45.5685 37.789 44.8881 38.1332 44.724 38.2699C44.5463 38.4203 45.1447 38.0078 45.1447 37.6796C45.1447 37.3652 45.4182 36.9824 46.4025 35.9297C48.1115 34.0976 48.8498 33.5234 49.5197 33.5234C49.9982 33.5234 50.0392 33.5508 50.1212 34.043C50.3263 35.3007 50.0666 37.0644 49.6018 37.5293C49.4924 37.625 49.4377 37.8711 49.4787 38.0488C49.5334 38.3496 49.465 38.4316 48.9455 38.6367C48.6174 38.7734 47.9338 38.9101 47.4006 38.9511C46.5529 39.0058 46.4025 38.9785 46.1291 38.7187Z" fill="url(#paint71_linear_31_2335)"/>
<path d="M49.0545 38.418C49.1229 38.3223 49.0819 38.295 48.9315 38.3496C48.7948 38.4043 48.7401 38.377 48.7674 38.2676C48.8085 38.1719 48.8632 37.9395 48.8905 37.7207C48.9315 37.5157 49.0545 37.2559 49.1639 37.1328C49.6151 36.6816 49.9843 34.7539 49.6425 34.5352C49.5604 34.4942 49.5194 34.3301 49.5604 34.1934C49.6015 34.043 49.5741 33.9336 49.5194 33.9336C49.2733 33.9336 48.0155 35.0547 46.8124 36.3399L45.5546 37.6934V37.2012C45.5546 36.6406 45.7596 36.3945 46.1972 36.3945C46.4433 36.3945 46.5116 36.3262 46.5116 36.0117C46.5116 35.7383 46.703 35.4375 47.2362 34.918C47.6327 34.5215 47.9881 34.207 48.0292 34.207C48.0702 34.207 48.3846 33.9473 48.7264 33.6328C50.0389 32.416 51.8846 31.5684 53.5936 31.4043C54.5096 31.3086 54.578 31.3223 54.9061 31.6504C55.3026 32.0469 55.4667 32.5528 55.3437 33.0312C55.3026 33.2227 54.7557 33.8243 54.1405 34.3711C53.5116 34.918 52.3632 35.9981 51.5702 36.7637C50.7636 37.543 49.9022 38.2402 49.6015 38.3633C48.9725 38.6231 48.9315 38.6231 49.0545 38.418Z" fill="url(#paint72_linear_31_2335)"/>
<path d="M41.7403 39.416C41.1798 39.2656 40.6329 38.4317 40.5098 37.5703C40.3047 36.0254 40.9063 33.9336 41.9181 32.7305C42.6563 31.8692 45.4727 30.5156 47.4825 30.0508C50.4083 29.3808 53.0606 29.8047 54.4825 31.1719C55.0977 31.7598 55.3985 32.2793 55.3985 32.7578C55.3985 33.1133 55.0841 33.5234 54.8106 33.5234C54.7149 33.5098 54.7832 33.4004 54.961 33.2637C55.3302 32.9356 55.3438 32.5664 54.9883 32.1563C54.7696 31.8965 54.5919 31.8418 53.9629 31.8555C51.8028 31.8692 49.1778 33.5508 46.4844 36.627C45.1446 38.1445 43.9961 39.0469 42.9845 39.3476C42.3145 39.5527 42.2325 39.5527 41.7403 39.416Z" fill="url(#paint73_linear_31_2335)"/>
</g>
</g>
<defs>
<filter id="filter0_i_31_2335" x="5.25" y="5.25" width="73.5" height="77.5" filterUnits="userSpaceOnUse" color-interpolation-filters="sRGB">
<feFlood flood-opacity="0" result="BackgroundImageFix"/>
<feBlend mode="normal" in="SourceGraphic" in2="BackgroundImageFix" result="shape"/>
<feColorMatrix in="SourceAlpha" type="matrix" values="0 0 0 0 0 0 0 0 0 0 0 0 0 0 0 0 0 0 127 0" result="hardAlpha"/>
<feOffset dy="4"/>
<feGaussianBlur stdDeviation="2"/>
<feComposite in2="hardAlpha" operator="arithmetic" k2="-1" k3="1"/>
<feColorMatrix type="matrix" values="0 0 0 0 0 0 0 0 0 0 0 0 0 0 0 0 0 0 0.25 0"/>
<feBlend mode="normal" in2="shape" result="effect1_innerShadow_31_2335"/>
</filter>
<linearGradient id="paint0_linear_31_2335" x1="0" y1="0" x2="99.5367" y2="56.7484" gradientUnits="userSpaceOnUse">
<stop stop-color="#00CCE6"/>
<stop offset="1" stop-color="#0082E7"/>
</linearGradient>
<linearGradient id="paint1_linear_31_2335" x1="25.9683" y1="25.2206" x2="28.781" y2="20.3785" gradientUnits="userSpaceOnUse">
<stop stop-color="#1964E7"/>
<stop offset="1" stop-color="#6884F2"/>
</linearGradient>
<linearGradient id="paint2_linear_31_2335" x1="16.3909" y1="20.4141" x2="19.2035" y2="25.2563" gradientUnits="userSpaceOnUse">
<stop stop-color="#00CCE6"/>
<stop offset="1" stop-color="#0082E7"/>
</linearGradient>
<radialGradient id="paint3_radial_31_2335" cx="0" cy="0" r="1" gradientUnits="userSpaceOnUse" gradientTransform="translate(26.716 24.5086) scale(4.09444)">
<stop offset="0.23" stop-color="#00CDFF"/>
<stop offset="0.49" stop-color="#00BCFA"/>
<stop offset="0.77" stop-color="#00ABF8"/>
<stop offset="1" stop-color="#0098F7"/>
</radialGradient>
<radialGradient id="paint4_radial_31_2335" cx="0" cy="0" r="1" gradientUnits="userSpaceOnUse" gradientTransform="translate(26.7161 24.5086) scale(4.09444 4.09444)">
<stop offset="0.23" stop-color="#00CDFF"/>
<stop offset="0.49" stop-color="#00BCFA"/>
<stop offset="0.77" stop-color="#00ABF8"/>
<stop offset="1" stop-color="#0098F7"/>
</radialGradient>
<radialGradient id="paint5_radial_31_2335" cx="0" cy="0" r="1" gradientUnits="userSpaceOnUse" gradientTransform="translate(26.7161 24.5086) scale(4.09444)">
<stop offset="0.23" stop-color="#00CDFF"/>
<stop offset="0.49" stop-color="#00BCFA"/>
<stop offset="0.77" stop-color="#00ABF8"/>
<stop offset="1" stop-color="#0098F7"/>
</radialGradient>
<radialGradient id="paint6_radial_31_2335" cx="0" cy="0" r="1" gradientUnits="userSpaceOnUse" gradientTransform="translate(26.7158 24.5085) scale(4.09446 4.09444)">
<stop offset="0.23" stop-color="#00CDFF"/>
<stop offset="0.49" stop-color="#00BCFA"/>
<stop offset="0.77" stop-color="#00ABF8"/>
<stop offset="1" stop-color="#0098F7"/>
</radialGradient>
<radialGradient id="paint7_radial_31_2335" cx="0" cy="0" r="1" gradientUnits="userSpaceOnUse" gradientTransform="translate(26.7159 24.5085) scale(4.09445 4.09444)">
<stop offset="0.23" stop-color="#00CDFF"/>
<stop offset="0.49" stop-color="#00BCFA"/>
<stop offset="0.77" stop-color="#00ABF8"/>
<stop offset="1" stop-color="#0098F7"/>
</radialGradient>
<radialGradient id="paint8_radial_31_2335" cx="0" cy="0" r="1" gradientUnits="userSpaceOnUse" gradientTransform="translate(26.7158 24.5085) scale(4.09444 4.09444)">
<stop offset="0.23" stop-color="#00CDFF"/>
<stop offset="0.49" stop-color="#00BCFA"/>
<stop offset="0.77" stop-color="#00ABF8"/>
<stop offset="1" stop-color="#0098F7"/>
</radialGradient>
<radialGradient id="paint9_radial_31_2335" cx="0" cy="0" r="1" gradientUnits="userSpaceOnUse" gradientTransform="translate(26.7159 24.5085) scale(4.09444 4.09445)">
<stop offset="0.23" stop-color="#00CDFF"/>
<stop offset="0.49" stop-color="#00BCFA"/>
<stop offset="0.77" stop-color="#00ABF8"/>
<stop offset="1" stop-color="#0098F7"/>
</radialGradient>
<radialGradient id="paint10_radial_31_2335" cx="0" cy="0" r="1" gradientUnits="userSpaceOnUse" gradientTransform="translate(26.716 24.5085) scale(4.09444)">
<stop offset="0.23" stop-color="#00CDFF"/>
<stop offset="0.49" stop-color="#00BCFA"/>
<stop offset="0.77" stop-color="#00ABF8"/>
<stop offset="1" stop-color="#0098F7"/>
</radialGradient>
<radialGradient id="paint11_radial_31_2335" cx="0" cy="0" r="1" gradientUnits="userSpaceOnUse" gradientTransform="translate(26.7162 24.5085) scale(4.09443 4.09445)">
<stop offset="0.23" stop-color="#00CDFF"/>
<stop offset="0.49" stop-color="#00BCFA"/>
<stop offset="0.77" stop-color="#00ABF8"/>
<stop offset="1" stop-color="#0098F7"/>
</radialGradient>
<radialGradient id="paint12_radial_31_2335" cx="0" cy="0" r="1" gradientUnits="userSpaceOnUse" gradientTransform="translate(26.7159 24.5086) scale(4.09444 4.09445)">
<stop offset="0.23" stop-color="#00CDFF"/>
<stop offset="0.49" stop-color="#00BCFA"/>
<stop offset="0.77" stop-color="#00ABF8"/>
<stop offset="1" stop-color="#0098F7"/>
</radialGradient>
<linearGradient id="paint13_linear_31_2335" x1="16.3909" y1="20.4141" x2="19.2036" y2="25.2562" gradientUnits="userSpaceOnUse">
<stop stop-color="#00CCE6"/>
<stop offset="1" stop-color="#0082E7"/>
</linearGradient>
<linearGradient id="paint14_linear_31_2335" x1="16.391" y1="20.4141" x2="19.2037" y2="25.2563" gradientUnits="userSpaceOnUse">
<stop stop-color="#00CCE6"/>
<stop offset="1" stop-color="#0082E7"/>
</linearGradient>
<linearGradient id="paint15_linear_31_2335" x1="19.7376" y1="21.9451" x2="22.586" y2="26.8584" gradientUnits="userSpaceOnUse">
<stop stop-color="#0CF4FF"/>
<stop offset="0.28" stop-color="#04EEFE"/>
<stop offset="1" stop-color="#00B1F7"/>
</linearGradient>
<linearGradient id="paint16_linear_31_2335" x1="16.3907" y1="20.4141" x2="19.2034" y2="25.2562" gradientUnits="userSpaceOnUse">
<stop stop-color="#00CCE6"/>
<stop offset="1" stop-color="#0082E7"/>
</linearGradient>
<radialGradient id="paint17_radial_31_2335" cx="0" cy="0" r="1" gradientUnits="userSpaceOnUse" gradientTransform="translate(26.716 24.5086) scale(4.09444)">
<stop offset="0.23" stop-color="#00CDFF"/>
<stop offset="0.49" stop-color="#00BCFA"/>
<stop offset="0.77" stop-color="#00ABF8"/>
<stop offset="1" stop-color="#0098F7"/>
</radialGradient>
<radialGradient id="paint18_radial_31_2335" cx="0" cy="0" r="1" gradientUnits="userSpaceOnUse" gradientTransform="translate(26.716 24.5086) scale(4.09444 4.09443)">
<stop offset="0.23" stop-color="#00CDFF"/>
<stop offset="0.49" stop-color="#00BCFA"/>
<stop offset="0.77" stop-color="#00ABF8"/>
<stop offset="1" stop-color="#0098F7"/>
</radialGradient>
<radialGradient id="paint19_radial_31_2335" cx="0" cy="0" r="1" gradientUnits="userSpaceOnUse" gradientTransform="translate(26.716 24.5085) scale(4.09444 4.09444)">
<stop offset="0.23" stop-color="#00CDFF"/>
<stop offset="0.49" stop-color="#00BCFA"/>
<stop offset="0.77" stop-color="#00ABF8"/>
<stop offset="1" stop-color="#0098F7"/>
</radialGradient>
<radialGradient id="paint20_radial_31_2335" cx="0" cy="0" r="1" gradientUnits="userSpaceOnUse" gradientTransform="translate(26.7159 24.5086) scale(4.09444)">
<stop offset="0.23" stop-color="#00CDFF"/>
<stop offset="0.49" stop-color="#00BCFA"/>
<stop offset="0.77" stop-color="#00ABF8"/>
<stop offset="1" stop-color="#0098F7"/>
</radialGradient>
<radialGradient id="paint21_radial_31_2335" cx="0" cy="0" r="1" gradientUnits="userSpaceOnUse" gradientTransform="translate(26.716 24.5085) scale(4.09445)">
<stop offset="0.23" stop-color="#00CDFF"/>
<stop offset="0.49" stop-color="#00BCFA"/>
<stop offset="0.77" stop-color="#00ABF8"/>
<stop offset="1" stop-color="#0098F7"/>
</radialGradient>
<radialGradient id="paint22_radial_31_2335" cx="0" cy="0" r="1" gradientUnits="userSpaceOnUse" gradientTransform="translate(26.7159 24.5085) scale(4.09445 4.09446)">
<stop offset="0.23" stop-color="#00CDFF"/>
<stop offset="0.49" stop-color="#00BCFA"/>
<stop offset="0.77" stop-color="#00ABF8"/>
<stop offset="1" stop-color="#0098F7"/>
</radialGradient>
<radialGradient id="paint23_radial_31_2335" cx="0" cy="0" r="1" gradientUnits="userSpaceOnUse" gradientTransform="translate(26.7162 24.5086) scale(4.09442 4.09443)">
<stop offset="0.23" stop-color="#00CDFF"/>
<stop offset="0.49" stop-color="#00BCFA"/>
<stop offset="0.77" stop-color="#00ABF8"/>
<stop offset="1" stop-color="#0098F7"/>
</radialGradient>
<radialGradient id="paint24_radial_31_2335" cx="0" cy="0" r="1" gradientUnits="userSpaceOnUse" gradientTransform="translate(26.7158 24.5086) scale(4.09446 4.09442)">
<stop offset="0.23" stop-color="#00CDFF"/>
<stop offset="0.49" stop-color="#00BCFA"/>
<stop offset="0.77" stop-color="#00ABF8"/>
<stop offset="1" stop-color="#0098F7"/>
</radialGradient>
<linearGradient id="paint25_linear_31_2335" x1="16.3908" y1="20.4141" x2="19.2035" y2="25.2563" gradientUnits="userSpaceOnUse">
<stop stop-color="#00CCE6"/>
<stop offset="1" stop-color="#0082E7"/>
</linearGradient>
<linearGradient id="paint26_linear_31_2335" x1="16.3909" y1="20.4141" x2="19.2037" y2="25.2562" gradientUnits="userSpaceOnUse">
<stop stop-color="#00CCE6"/>
<stop offset="1" stop-color="#0082E7"/>
</linearGradient>
<linearGradient id="paint27_linear_31_2335" x1="19.7378" y1="21.9452" x2="22.586" y2="26.8585" gradientUnits="userSpaceOnUse">
<stop stop-color="#0CF4FF"/>
<stop offset="0.28" stop-color="#04EEFE"/>
<stop offset="1" stop-color="#00B1F7"/>
</linearGradient>
<radialGradient id="paint28_radial_31_2335" cx="0" cy="0" r="1" gradientUnits="userSpaceOnUse" gradientTransform="translate(26.7161 24.5085) scale(4.09444 4.09444)">
<stop offset="0.23" stop-color="#00CDFF"/>
<stop offset="0.49" stop-color="#00BCFA"/>
<stop offset="0.77" stop-color="#00ABF8"/>
<stop offset="1" stop-color="#0098F7"/>
</radialGradient>
<radialGradient id="paint29_radial_31_2335" cx="0" cy="0" r="1" gradientUnits="userSpaceOnUse" gradientTransform="translate(26.7159 24.5085) scale(4.09444 4.09444)">
<stop offset="0.23" stop-color="#00CDFF"/>
<stop offset="0.49" stop-color="#00BCFA"/>
<stop offset="0.77" stop-color="#00ABF8"/>
<stop offset="1" stop-color="#0098F7"/>
</radialGradient>
<radialGradient id="paint30_radial_31_2335" cx="0" cy="0" r="1" gradientUnits="userSpaceOnUse" gradientTransform="translate(26.716 24.5085) scale(4.09444)">
<stop offset="0.23" stop-color="#00CDFF"/>
<stop offset="0.49" stop-color="#00BCFA"/>
<stop offset="0.77" stop-color="#00ABF8"/>
<stop offset="1" stop-color="#0098F7"/>
</radialGradient>
<radialGradient id="paint31_radial_31_2335" cx="0" cy="0" r="1" gradientUnits="userSpaceOnUse" gradientTransform="translate(26.716 24.5086) scale(4.09445 4.09444)">
<stop offset="0.23" stop-color="#00CDFF"/>
<stop offset="0.49" stop-color="#00BCFA"/>
<stop offset="0.77" stop-color="#00ABF8"/>
<stop offset="1" stop-color="#0098F7"/>
</radialGradient>
<radialGradient id="paint32_radial_31_2335" cx="0" cy="0" r="1" gradientUnits="userSpaceOnUse" gradientTransform="translate(26.7157 24.5085) scale(4.09447 4.09445)">
<stop offset="0.23" stop-color="#00CDFF"/>
<stop offset="0.49" stop-color="#00BCFA"/>
<stop offset="0.77" stop-color="#00ABF8"/>
<stop offset="1" stop-color="#0098F7"/>
</radialGradient>
<radialGradient id="paint33_radial_31_2335" cx="0" cy="0" r="1" gradientUnits="userSpaceOnUse" gradientTransform="translate(26.7158 24.5086) scale(4.09446 4.09444)">
<stop offset="0.23" stop-color="#00CDFF"/>
<stop offset="0.49" stop-color="#00BCFA"/>
<stop offset="0.77" stop-color="#00ABF8"/>
<stop offset="1" stop-color="#0098F7"/>
</radialGradient>
<radialGradient id="paint34_radial_31_2335" cx="0" cy="0" r="1" gradientUnits="userSpaceOnUse" gradientTransform="translate(26.716 24.5085) scale(4.09443 4.09445)">
<stop offset="0.23" stop-color="#00CDFF"/>
<stop offset="0.49" stop-color="#00BCFA"/>
<stop offset="0.77" stop-color="#00ABF8"/>
<stop offset="1" stop-color="#0098F7"/>
</radialGradient>
<radialGradient id="paint35_radial_31_2335" cx="0" cy="0" r="1" gradientUnits="userSpaceOnUse" gradientTransform="translate(26.7161 24.5086) scale(4.09444 4.09444)">
<stop offset="0.23" stop-color="#00CDFF"/>
<stop offset="0.49" stop-color="#00BCFA"/>
<stop offset="0.77" stop-color="#00ABF8"/>
<stop offset="1" stop-color="#0098F7"/>
</radialGradient>
<radialGradient id="paint36_radial_31_2335" cx="0" cy="0" r="1" gradientUnits="userSpaceOnUse" gradientTransform="translate(26.7158 24.5086) scale(4.09445 4.09443)">
<stop offset="0.23" stop-color="#00CDFF"/>
<stop offset="0.49" stop-color="#00BCFA"/>
<stop offset="0.77" stop-color="#00ABF8"/>
<stop offset="1" stop-color="#0098F7"/>
</radialGradient>
<radialGradient id="paint37_radial_31_2335" cx="0" cy="0" r="1" gradientUnits="userSpaceOnUse" gradientTransform="translate(26.7161 24.5086) scale(4.09443 4.09443)">
<stop offset="0.23" stop-color="#00CDFF"/>
<stop offset="0.49" stop-color="#00BCFA"/>
<stop offset="0.77" stop-color="#00ABF8"/>
<stop offset="1" stop-color="#0098F7"/>
</radialGradient>
<radialGradient id="paint38_radial_31_2335" cx="0" cy="0" r="1" gradientUnits="userSpaceOnUse" gradientTransform="translate(26.7162 24.5086) scale(4.09443 4.09443)">
<stop offset="0.23" stop-color="#00CDFF"/>
<stop offset="0.49" stop-color="#00BCFA"/>
<stop offset="0.77" stop-color="#00ABF8"/>
<stop offset="1" stop-color="#0098F7"/>
</radialGradient>
<radialGradient id="paint39_radial_31_2335" cx="0" cy="0" r="1" gradientUnits="userSpaceOnUse" gradientTransform="translate(26.7159 24.5086) scale(4.09445 4.09443)">
<stop offset="0.23" stop-color="#00CDFF"/>
<stop offset="0.49" stop-color="#00BCFA"/>
<stop offset="0.77" stop-color="#00ABF8"/>
<stop offset="1" stop-color="#0098F7"/>
</radialGradient>
<linearGradient id="paint40_linear_31_2335" x1="25.9682" y1="25.2206" x2="28.7809" y2="20.3785" gradientUnits="userSpaceOnUse">
<stop stop-color="#1964E7"/>
<stop offset="1" stop-color="#6884F2"/>
</linearGradient>
<linearGradient id="paint41_linear_31_2335" x1="16.3907" y1="20.4141" x2="19.2034" y2="25.2563" gradientUnits="userSpaceOnUse">
<stop stop-color="#00CCE6"/>
<stop offset="1" stop-color="#0082E7"/>
</linearGradient>
<linearGradient id="paint42_linear_31_2335" x1="19.7375" y1="21.9451" x2="22.5858" y2="26.8584" gradientUnits="userSpaceOnUse">
<stop stop-color="#0CF4FF"/>
<stop offset="0.28" stop-color="#04EEFE"/>
<stop offset="1" stop-color="#00B1F7"/>
</linearGradient>
<radialGradient id="paint43_radial_31_2335" cx="0" cy="0" r="1" gradientUnits="userSpaceOnUse" gradientTransform="translate(26.7161 24.5086) scale(4.09444 4.09444)">
<stop offset="0.23" stop-color="#00CDFF"/>
<stop offset="0.49" stop-color="#00BCFA"/>
<stop offset="0.77" stop-color="#00ABF8"/>
<stop offset="1" stop-color="#0098F7"/>
</radialGradient>
<radialGradient id="paint44_radial_31_2335" cx="0" cy="0" r="1" gradientUnits="userSpaceOnUse" gradientTransform="translate(26.716 24.5086) scale(4.09444 4.09444)">
<stop offset="0.23" stop-color="#00CDFF"/>
<stop offset="0.49" stop-color="#00BCFA"/>
<stop offset="0.77" stop-color="#00ABF8"/>
<stop offset="1" stop-color="#0098F7"/>
</radialGradient>
<radialGradient id="paint45_radial_31_2335" cx="0" cy="0" r="1" gradientUnits="userSpaceOnUse" gradientTransform="translate(26.7158 24.5087) scale(4.09445 4.09442)">
<stop offset="0.23" stop-color="#00CDFF"/>
<stop offset="0.49" stop-color="#00BCFA"/>
<stop offset="0.77" stop-color="#00ABF8"/>
<stop offset="1" stop-color="#0098F7"/>
</radialGradient>
<radialGradient id="paint46_radial_31_2335" cx="0" cy="0" r="1" gradientUnits="userSpaceOnUse" gradientTransform="translate(26.716 24.5086) scale(4.09445)">
<stop offset="0.23" stop-color="#00CDFF"/>
<stop offset="0.49" stop-color="#00BCFA"/>
<stop offset="0.77" stop-color="#00ABF8"/>
<stop offset="1" stop-color="#0098F7"/>
</radialGradient>
<radialGradient id="paint47_radial_31_2335" cx="0" cy="0" r="1" gradientUnits="userSpaceOnUse" gradientTransform="translate(26.716 24.5085) scale(4.09444 4.09445)">
<stop offset="0.23" stop-color="#00CDFF"/>
<stop offset="0.49" stop-color="#00BCFA"/>
<stop offset="0.77" stop-color="#00ABF8"/>
<stop offset="1" stop-color="#0098F7"/>
</radialGradient>
<radialGradient id="paint48_radial_31_2335" cx="0" cy="0" r="1" gradientUnits="userSpaceOnUse" gradientTransform="translate(26.7162 24.5085) scale(4.09443 4.09445)">
<stop offset="0.23" stop-color="#00CDFF"/>
<stop offset="0.49" stop-color="#00BCFA"/>
<stop offset="0.77" stop-color="#00ABF8"/>
<stop offset="1" stop-color="#0098F7"/>
</radialGradient>
<radialGradient id="paint49_radial_31_2335" cx="0" cy="0" r="1" gradientUnits="userSpaceOnUse" gradientTransform="translate(26.7157 24.5086) scale(4.09446 4.09444)">
<stop offset="0.23" stop-color="#00CDFF"/>
<stop offset="0.49" stop-color="#00BCFA"/>
<stop offset="0.77" stop-color="#00ABF8"/>
<stop offset="1" stop-color="#0098F7"/>
</radialGradient>
<linearGradient id="paint50_linear_31_2335" x1="16.3908" y1="20.4141" x2="19.2035" y2="25.2563" gradientUnits="userSpaceOnUse">
<stop stop-color="#00CCE6"/>
<stop offset="1" stop-color="#0082E7"/>
</linearGradient>
<linearGradient id="paint51_linear_31_2335" x1="16.3909" y1="20.4141" x2="19.2036" y2="25.2562" gradientUnits="userSpaceOnUse">
<stop stop-color="#00CCE6"/>
<stop offset="1" stop-color="#0082E7"/>
</linearGradient>
<linearGradient id="paint52_linear_31_2335" x1="19.7376" y1="21.9451" x2="22.5859" y2="26.8584" gradientUnits="userSpaceOnUse">
<stop stop-color="#0CF4FF"/>
<stop offset="0.28" stop-color="#04EEFE"/>
<stop offset="1" stop-color="#00B1F7"/>
</linearGradient>
<radialGradient id="paint53_radial_31_2335" cx="0" cy="0" r="1" gradientUnits="userSpaceOnUse" gradientTransform="translate(26.7161 24.5085) scale(4.09444)">
<stop offset="0.23" stop-color="#00CDFF"/>
<stop offset="0.49" stop-color="#00BCFA"/>
<stop offset="0.77" stop-color="#00ABF8"/>
<stop offset="1" stop-color="#0098F7"/>
</radialGradient>
<radialGradient id="paint54_radial_31_2335" cx="0" cy="0" r="1" gradientUnits="userSpaceOnUse" gradientTransform="translate(26.7159 24.5086) scale(4.09444)">
<stop offset="0.23" stop-color="#00CDFF"/>
<stop offset="0.49" stop-color="#00BCFA"/>
<stop offset="0.77" stop-color="#00ABF8"/>
<stop offset="1" stop-color="#0098F7"/>
</radialGradient>
<radialGradient id="paint55_radial_31_2335" cx="0" cy="0" r="1" gradientUnits="userSpaceOnUse" gradientTransform="translate(26.7159 24.5086) scale(4.09444 4.09444)">
<stop offset="0.23" stop-color="#00CDFF"/>
<stop offset="0.49" stop-color="#00BCFA"/>
<stop offset="0.77" stop-color="#00ABF8"/>
<stop offset="1" stop-color="#0098F7"/>
</radialGradient>
<linearGradient id="paint56_linear_31_2335" x1="19.7376" y1="21.9451" x2="22.586" y2="26.8585" gradientUnits="userSpaceOnUse">
<stop stop-color="#0CF4FF"/>
<stop offset="0.28" stop-color="#04EEFE"/>
<stop offset="1" stop-color="#00B1F7"/>
</linearGradient>
<radialGradient id="paint57_radial_31_2335" cx="0" cy="0" r="1" gradientUnits="userSpaceOnUse" gradientTransform="translate(26.7159 24.5085) scale(4.09445 4.09444)">
<stop offset="0.23" stop-color="#00CDFF"/>
<stop offset="0.49" stop-color="#00BCFA"/>
<stop offset="0.77" stop-color="#00ABF8"/>
<stop offset="1" stop-color="#0098F7"/>
</radialGradient>
<linearGradient id="paint58_linear_31_2335" x1="25.9683" y1="25.2206" x2="28.7811" y2="20.3785" gradientUnits="userSpaceOnUse">
<stop stop-color="#1964E7"/>
<stop offset="1" stop-color="#6884F2"/>
</linearGradient>
<linearGradient id="paint59_linear_31_2335" x1="19.7376" y1="21.9451" x2="22.5859" y2="26.8584" gradientUnits="userSpaceOnUse">
<stop stop-color="#0CF4FF"/>
<stop offset="0.28" stop-color="#04EEFE"/>
<stop offset="1" stop-color="#00B1F7"/>
</linearGradient>
<linearGradient id="paint60_linear_31_2335" x1="19.7376" y1="19.6308" x2="19.7376" y2="21.3042" gradientUnits="userSpaceOnUse">
<stop stop-color="#40FAFD"/>
<stop offset="1" stop-color="#00E0FF"/>
</linearGradient>
<linearGradient id="paint61_linear_31_2335" x1="19.7377" y1="21.9451" x2="22.586" y2="26.8584" gradientUnits="userSpaceOnUse">
<stop stop-color="#0CF4FF"/>
<stop offset="0.28" stop-color="#04EEFE"/>
<stop offset="1" stop-color="#00B1F7"/>
</linearGradient>
<linearGradient id="paint62_linear_31_2335" x1="19.7375" y1="21.945" x2="22.5858" y2="26.8584" gradientUnits="userSpaceOnUse">
<stop stop-color="#0CF4FF"/>
<stop offset="0.28" stop-color="#04EEFE"/>
<stop offset="1" stop-color="#00B1F7"/>
</linearGradient>
<linearGradient id="paint63_linear_31_2335" x1="19.7376" y1="21.945" x2="22.5859" y2="26.8584" gradientUnits="userSpaceOnUse">
<stop stop-color="#0CF4FF"/>
<stop offset="0.28" stop-color="#04EEFE"/>
<stop offset="1" stop-color="#00B1F7"/>
</linearGradient>
<linearGradient id="paint64_linear_31_2335" x1="19.7376" y1="21.9451" x2="22.586" y2="26.8584" gradientUnits="userSpaceOnUse">
<stop stop-color="#0CF4FF"/>
<stop offset="0.28" stop-color="#04EEFE"/>
<stop offset="1" stop-color="#00B1F7"/>
</linearGradient>
<linearGradient id="paint65_linear_31_2335" x1="19.7375" y1="19.6308" x2="19.7375" y2="21.3042" gradientUnits="userSpaceOnUse">
<stop stop-color="#40FAFD"/>
<stop offset="1" stop-color="#00E0FF"/>
</linearGradient>
<linearGradient id="paint66_linear_31_2335" x1="22.3722" y1="17.281" x2="22.3722" y2="20.0936" gradientUnits="userSpaceOnUse">
<stop stop-color="#8EF6FD"/>
<stop offset="1" stop-color="#2BE8FF"/>
</linearGradient>
<linearGradient id="paint67_linear_31_2335" x1="22.3723" y1="17.281" x2="22.3723" y2="20.0937" gradientUnits="userSpaceOnUse">
<stop stop-color="#8EF6FD"/>
<stop offset="1" stop-color="#2BE8FF"/>
</linearGradient>
<linearGradient id="paint68_linear_31_2335" x1="25.363" y1="16.8537" x2="25.363" y2="17.815" gradientUnits="userSpaceOnUse">
<stop stop-color="#92EEFE"/>
<stop offset="1" stop-color="#59E5FE"/>
</linearGradient>
<linearGradient id="paint69_linear_31_2335" x1="22.3724" y1="17.281" x2="22.3724" y2="20.0937" gradientUnits="userSpaceOnUse">
<stop stop-color="#8EF6FD"/>
<stop offset="1" stop-color="#2BE8FF"/>
</linearGradient>
<linearGradient id="paint70_linear_31_2335" x1="25.3629" y1="16.8538" x2="25.3629" y2="17.815" gradientUnits="userSpaceOnUse">
<stop stop-color="#92EEFE"/>
<stop offset="1" stop-color="#59E5FE"/>
</linearGradient>
<linearGradient id="paint71_linear_31_2335" x1="23.5474" y1="19.6664" x2="24.6155" y2="21.4822" gradientUnits="userSpaceOnUse">
<stop stop-color="#A6FEFF"/>
<stop offset="0.53" stop-color="#BFFDFE"/>
<stop offset="1" stop-color="#97EDFF"/>
</linearGradient>
<linearGradient id="paint72_linear_31_2335" x1="23.5471" y1="19.6664" x2="24.6153" y2="21.4822" gradientUnits="userSpaceOnUse">
<stop stop-color="#A6FEFF"/>
<stop offset="0.53" stop-color="#BFFDFE"/>
<stop offset="1" stop-color="#97EDFF"/>
</linearGradient>
<linearGradient id="paint73_linear_31_2335" x1="23.5473" y1="19.6664" x2="24.6154" y2="21.4822" gradientUnits="userSpaceOnUse">
<stop stop-color="#A6FEFF"/>
<stop offset="0.53" stop-color="#BFFDFE"/>
<stop offset="1" stop-color="#97EDFF"/>
</linearGradient>
<clipPath id="clip0_31_2335">
<rect width="84" height="84" fill="white"/>
</clipPath>
</defs>
</svg>
