<svg width="84" height="84" viewBox="0 0 84 84" fill="none" xmlns="http://www.w3.org/2000/svg">
<g clip-path="url(#clip0_31_2473)">
<path d="M63 0H21C9.40202 0 0 9.40202 0 21V63C0 74.598 9.40202 84 21 84H63C74.598 84 84 74.598 84 63V21C84 9.40202 74.598 0 63 0Z" fill="url(#paint0_linear_31_2473)"/>
<g filter="url(#filter0_i_31_2473)">
<path d="M63 5.25H21C12.3015 5.25 5.25 12.3015 5.25 21V63C5.25 71.6985 12.3015 78.75 21 78.75H63C71.6985 78.75 78.75 71.6985 78.75 63V21C78.75 12.3015 71.6985 5.25 63 5.25Z" fill="black" fill-opacity="0.7"/>
<g filter="url(#filter1_d_31_2473)">
<path d="M67.1521 29.3642C66.547 27.104 64.7709 25.3278 62.5107 24.7227C58.4182 23.625 41.9999 23.625 41.9999 23.625C41.9999 23.625 25.5819 23.625 21.4892 24.7227C19.229 25.3278 17.4528 27.104 16.8477 29.3642C15.75 33.4569 15.75 42.0008 15.75 42.0008C15.75 42.0008 15.75 50.5449 16.8477 54.6375C17.4528 56.8978 19.229 58.674 21.4892 59.2789C25.5819 60.3767 41.9999 60.3767 41.9999 60.3767C41.9999 60.3767 58.4182 60.3767 62.5107 59.2789C64.7709 58.674 66.547 56.8978 67.1521 54.6375C68.25 50.5449 68.25 42.0008 68.25 42.0008C68.25 42.0008 68.2454 33.4569 67.1521 29.3642Z" fill="#FF0000"/>
</g>
<path d="M36.7451 49.8757L50.3844 42.0016L36.7451 34.1274V49.8757Z" fill="white"/>
</g>
</g>
<defs>
<filter id="filter0_i_31_2473" x="5.25" y="5.25" width="73.5" height="77.5" filterUnits="userSpaceOnUse" color-interpolation-filters="sRGB">
<feFlood flood-opacity="0" result="BackgroundImageFix"/>
<feBlend mode="normal" in="SourceGraphic" in2="BackgroundImageFix" result="shape"/>
<feColorMatrix in="SourceAlpha" type="matrix" values="0 0 0 0 0 0 0 0 0 0 0 0 0 0 0 0 0 0 127 0" result="hardAlpha"/>
<feOffset dy="4"/>
<feGaussianBlur stdDeviation="2"/>
<feComposite in2="hardAlpha" operator="arithmetic" k2="-1" k3="1"/>
<feColorMatrix type="matrix" values="0 0 0 0 0 0 0 0 0 0 0 0 0 0 0 0 0 0 0.25 0"/>
<feBlend mode="normal" in2="shape" result="effect1_innerShadow_31_2473"/>
</filter>
<filter id="filter1_d_31_2473" x="11.75" y="21.625" width="60.5" height="44.7517" filterUnits="userSpaceOnUse" color-interpolation-filters="sRGB">
<feFlood flood-opacity="0" result="BackgroundImageFix"/>
<feColorMatrix in="SourceAlpha" type="matrix" values="0 0 0 0 0 0 0 0 0 0 0 0 0 0 0 0 0 0 127 0" result="hardAlpha"/>
<feOffset dy="2"/>
<feGaussianBlur stdDeviation="2"/>
<feComposite in2="hardAlpha" operator="out"/>
<feColorMatrix type="matrix" values="0 0 0 0 0 0 0 0 0 0 0 0 0 0 0 0 0 0 0.25 0"/>
<feBlend mode="normal" in2="BackgroundImageFix" result="effect1_dropShadow_31_2473"/>
<feBlend mode="normal" in="SourceGraphic" in2="effect1_dropShadow_31_2473" result="shape"/>
</filter>
<linearGradient id="paint0_linear_31_2473" x1="42" y1="0" x2="42" y2="84" gradientUnits="userSpaceOnUse">
<stop stop-color="white"/>
<stop offset="1" stop-color="#DFDFDF"/>
</linearGradient>
<clipPath id="clip0_31_2473">
<rect width="84" height="84" fill="white"/>
</clipPath>
</defs>
</svg>
