<svg width="96" height="96" viewBox="0 0 96 96" fill="none" xmlns="http://www.w3.org/2000/svg">
<g clip-path="url(#clip0_31_2529)">
<path d="M72 0H24C10.7452 0 0 10.7452 0 24V72C0 85.2548 10.7452 96 24 96H72C85.2548 96 96 85.2548 96 72V24C96 10.7452 85.2548 0 72 0Z" fill="url(#paint0_linear_31_2529)"/>
<g filter="url(#filter0_i_31_2529)">
<path d="M72 6H24C14.0589 6 6 14.0589 6 24V72C6 81.9411 14.0589 90 24 90H72C81.9411 90 90 81.9411 90 72V24C90 14.0589 81.9411 6 72 6Z" fill="black" fill-opacity="0.7"/>
<mask id="mask0_31_2529" style="mask-type:luminance" maskUnits="userSpaceOnUse" x="15" y="15" width="67" height="67">
<path d="M15.4286 15.4286H81.2573V81.2573H15.4286V15.4286Z" fill="white"/>
</mask>
<g mask="url(#mask0_31_2529)">
<g filter="url(#filter1_d_31_2529)">
<path d="M46.5411 39.0702L18.7003 32.2661L15.4286 40.0066L25.4645 72.107L52.1291 81.2566L46.5411 39.0702Z" fill="url(#paint1_linear_31_2529)"/>
</g>
<g filter="url(#filter2_d_31_2529)">
<path d="M81.2573 34.2591L74.5662 21.1578L40.4237 15.4286L25.4645 72.1076L52.1292 81.2573L53.5578 78.912L81.2573 34.2591Z" fill="url(#paint2_linear_31_2529)"/>
</g>
<g filter="url(#filter3_d_31_2529)">
<path d="M69.0521 27.7715H27.9093V68.9143H69.0521V27.7715Z" fill="black"/>
</g>
<path d="M55.4989 32.7904H58.6399L65.2758 48.3847H61.7145L60.2989 44.912H53.7516L52.3358 48.3847H48.863L55.4989 32.7904ZM59.0823 41.9037L57.0252 36.8824L54.9681 41.9037H59.0823Z" fill="white"/>
<path d="M46.1581 48.8495L44.4549 47.3232C43.1497 48.1637 41.5793 48.6503 39.8539 48.6503C35.0761 48.6503 31.6476 45.089 31.6476 40.6873V40.643C31.6476 36.2412 35.1204 32.6357 39.8982 32.6357C44.676 32.6357 48.1046 36.197 48.1046 40.5988V40.643C48.1046 42.2799 47.5959 43.8062 46.7332 45.089L48.3258 46.4384L46.1581 48.8495ZM41.9332 45.089L39.4116 42.9435L41.5793 40.5104L44.1231 42.8108C44.3886 42.1915 44.5433 41.4614 44.5433 40.6873V40.643C44.5433 37.9887 42.5968 35.7767 39.8539 35.7767C37.1111 35.7767 35.2089 37.9445 35.2089 40.5988V40.643C35.2089 43.2974 37.1554 45.5094 39.8982 45.5094C40.6503 45.5094 41.336 45.3766 41.9332 45.089Z" fill="white"/>
<path d="M47.1951 61.1993H31.7667V63.7706H47.1951V61.1993Z" fill="white"/>
</g>
</g>
</g>
<defs>
<filter id="filter0_i_31_2529" x="6" y="6" width="84" height="88" filterUnits="userSpaceOnUse" color-interpolation-filters="sRGB">
<feFlood flood-opacity="0" result="BackgroundImageFix"/>
<feBlend mode="normal" in="SourceGraphic" in2="BackgroundImageFix" result="shape"/>
<feColorMatrix in="SourceAlpha" type="matrix" values="0 0 0 0 0 0 0 0 0 0 0 0 0 0 0 0 0 0 127 0" result="hardAlpha"/>
<feOffset dy="4"/>
<feGaussianBlur stdDeviation="2"/>
<feComposite in2="hardAlpha" operator="arithmetic" k2="-1" k3="1"/>
<feColorMatrix type="matrix" values="0 0 0 0 0 0 0 0 0 0 0 0 0 0 0 0 0 0 0.25 0"/>
<feBlend mode="normal" in2="shape" result="effect1_innerShadow_31_2529"/>
</filter>
<filter id="filter1_d_31_2529" x="11.4286" y="30.2661" width="44.7005" height="56.9905" filterUnits="userSpaceOnUse" color-interpolation-filters="sRGB">
<feFlood flood-opacity="0" result="BackgroundImageFix"/>
<feColorMatrix in="SourceAlpha" type="matrix" values="0 0 0 0 0 0 0 0 0 0 0 0 0 0 0 0 0 0 127 0" result="hardAlpha"/>
<feOffset dy="2"/>
<feGaussianBlur stdDeviation="2"/>
<feComposite in2="hardAlpha" operator="out"/>
<feColorMatrix type="matrix" values="0 0 0 0 0 0 0 0 0 0 0 0 0 0 0 0 0 0 0.25 0"/>
<feBlend mode="normal" in2="BackgroundImageFix" result="effect1_dropShadow_31_2529"/>
<feBlend mode="normal" in="SourceGraphic" in2="effect1_dropShadow_31_2529" result="shape"/>
</filter>
<filter id="filter2_d_31_2529" x="21.4645" y="13.4286" width="63.7928" height="73.8287" filterUnits="userSpaceOnUse" color-interpolation-filters="sRGB">
<feFlood flood-opacity="0" result="BackgroundImageFix"/>
<feColorMatrix in="SourceAlpha" type="matrix" values="0 0 0 0 0 0 0 0 0 0 0 0 0 0 0 0 0 0 127 0" result="hardAlpha"/>
<feOffset dy="2"/>
<feGaussianBlur stdDeviation="2"/>
<feComposite in2="hardAlpha" operator="out"/>
<feColorMatrix type="matrix" values="0 0 0 0 0 0 0 0 0 0 0 0 0 0 0 0 0 0 0.25 0"/>
<feBlend mode="normal" in2="BackgroundImageFix" result="effect1_dropShadow_31_2529"/>
<feBlend mode="normal" in="SourceGraphic" in2="effect1_dropShadow_31_2529" result="shape"/>
</filter>
<filter id="filter3_d_31_2529" x="23.9093" y="25.7715" width="49.1428" height="49.1428" filterUnits="userSpaceOnUse" color-interpolation-filters="sRGB">
<feFlood flood-opacity="0" result="BackgroundImageFix"/>
<feColorMatrix in="SourceAlpha" type="matrix" values="0 0 0 0 0 0 0 0 0 0 0 0 0 0 0 0 0 0 127 0" result="hardAlpha"/>
<feOffset dy="2"/>
<feGaussianBlur stdDeviation="2"/>
<feComposite in2="hardAlpha" operator="out"/>
<feColorMatrix type="matrix" values="0 0 0 0 0 0 0 0 0 0 0 0 0 0 0 0 0 0 0.25 0"/>
<feBlend mode="normal" in2="BackgroundImageFix" result="effect1_dropShadow_31_2529"/>
<feBlend mode="normal" in="SourceGraphic" in2="effect1_dropShadow_31_2529" result="shape"/>
</filter>
<linearGradient id="paint0_linear_31_2529" x1="48" y1="0" x2="48" y2="96" gradientUnits="userSpaceOnUse">
<stop stop-color="#3BEA62"/>
<stop offset="0.510417" stop-color="#087DF7"/>
<stop offset="1" stop-color="#6B57FF"/>
</linearGradient>
<linearGradient id="paint1_linear_31_2529" x1="39.5563" y1="70.4701" x2="30.8893" y2="39.1936" gradientUnits="userSpaceOnUse">
<stop stop-color="#087CFA"/>
<stop offset="1" stop-color="#6B57FF"/>
</linearGradient>
<linearGradient id="paint2_linear_31_2529" x1="27.6561" y1="75.129" x2="59.9238" y2="28.7109" gradientUnits="userSpaceOnUse">
<stop stop-color="#087CFA"/>
<stop offset="0.387317" stop-color="#097FF6"/>
<stop offset="0.960121" stop-color="#3BEA62"/>
</linearGradient>
<clipPath id="clip0_31_2529">
<rect width="96" height="96" fill="white"/>
</clipPath>
</defs>
</svg>
