<svg width="96" height="96" viewBox="0 0 96 96" fill="none" xmlns="http://www.w3.org/2000/svg">
<g clip-path="url(#clip0_31_2565)">
<path d="M72 0H24C10.7452 0 0 10.7452 0 24V72C0 85.2548 10.7452 96 24 96H72C85.2548 96 96 85.2548 96 72V24C96 10.7452 85.2548 0 72 0Z" fill="url(#paint0_linear_31_2565)"/>
<g filter="url(#filter0_i_31_2565)">
<path d="M72 6H24C14.0589 6 6 14.0589 6 24V72C6 81.9411 14.0589 90 24 90H72C81.9411 90 90 81.9411 90 72V24C90 14.0589 81.9411 6 72 6Z" fill="black" fill-opacity="0.7"/>
<g filter="url(#filter1_d_31_2565)">
<path fill-rule="evenodd" clip-rule="evenodd" d="M71.6247 32.3636L73.0247 28.9168C73.0247 28.9168 71.2429 27.0019 69.0793 24.8317C66.9158 22.6615 62.3343 23.9381 62.3343 23.9381L57.1164 18H47.9532H38.7901L33.5722 23.9381C33.5722 23.9381 28.9906 22.6615 26.8271 24.8317C24.6635 27.0019 22.8818 28.9168 22.8818 28.9168L24.2817 32.3636L22.5 37.47C22.5 37.47 27.7402 57.3791 28.3543 59.8104C29.5633 64.5976 30.3905 66.4487 33.8266 68.8742C37.2628 71.2998 43.4989 75.5122 44.517 76.1505C45.5351 76.7895 46.8078 77.8762 47.9532 77.8762C49.0986 77.8762 50.3713 76.7895 51.3894 76.1505C52.4075 75.5122 58.6436 71.2998 62.0798 68.8742C65.516 66.4487 66.3431 64.5976 67.5522 59.8104C68.1662 57.3791 73.4064 37.47 73.4064 37.47L71.6247 32.3636Z" fill="#FF5500"/>
<path fill-rule="evenodd" clip-rule="evenodd" d="M60.8708 27.704C60.8708 27.704 67.5822 35.8424 67.5822 37.5818C67.5822 39.3211 66.7379 39.7802 65.8891 40.6844C65.0402 41.5886 61.3328 45.5376 60.8567 46.0447C60.3806 46.5518 59.3895 47.3207 59.9725 48.7047C60.5555 50.0887 61.4156 51.8498 60.4592 53.636C59.5026 55.4222 57.8641 56.6144 56.8142 56.4173C55.7642 56.22 53.2984 54.9275 52.3916 54.3371C51.4849 53.7466 48.611 51.3691 48.611 50.4594C48.611 49.5498 51.5817 47.9165 52.1305 47.5454C52.6795 47.1745 55.1828 45.7382 55.2341 45.1744C55.2853 44.6105 55.2658 44.4452 54.527 43.0522C53.7883 41.6591 52.4578 39.8 52.6793 38.5631C52.9007 37.3264 55.0464 36.6833 56.5777 36.1031C58.1087 35.5232 61.0568 34.4278 61.425 34.2575C61.7934 34.0871 61.6982 33.9248 60.5825 33.8187C59.467 33.7126 56.3012 33.2911 54.8738 33.6902C53.4465 34.0892 51.0081 34.6964 50.8106 35.0183C50.6131 35.3403 50.4389 35.3511 50.6417 36.4618C50.8445 37.5724 51.8888 42.9017 51.9901 43.8483C52.0916 44.7949 52.2899 45.4207 51.2723 45.654C50.2547 45.8874 48.5418 46.2926 47.9532 46.2926C47.3646 46.2926 45.6516 45.8874 44.6342 45.654C43.6165 45.4207 43.8148 44.7949 43.9163 43.8483C44.0177 42.9017 45.0619 37.5724 45.2648 36.4618C45.4675 35.3511 45.2933 35.3403 45.0959 35.0183C44.8983 34.6964 42.4598 34.0892 41.0325 33.6902C39.6052 33.2911 36.4395 33.7126 35.3239 33.8187C34.2083 33.9248 34.1131 34.0871 34.4813 34.2575C34.8497 34.4278 37.7978 35.5232 39.3288 36.1031C40.8599 36.6833 43.0058 37.3264 43.2272 38.5631C43.4486 39.8 42.1181 41.6591 41.3795 43.0522C40.6406 44.4452 40.6211 44.6105 40.6724 45.1744C40.7235 45.7382 43.2269 47.1745 43.7759 47.5454C44.3248 47.9165 47.2954 49.5498 47.2954 50.4594C47.2954 51.3691 44.4216 53.7466 43.5149 54.3371C42.608 54.9275 40.1423 56.22 39.0923 56.4173C38.0424 56.6144 36.4038 55.4222 35.4473 53.636C34.4909 51.8498 35.351 50.0887 35.9339 48.7047C36.5168 47.3207 35.5259 46.5518 35.0496 46.0447C34.5737 45.5376 30.8661 41.5886 30.0173 40.6844C29.1684 39.7802 28.3242 39.3211 28.3242 37.5818C28.3242 35.8424 35.0357 27.704 35.0357 27.704C35.0357 27.704 40.6991 28.7891 41.4626 28.7891C42.2263 28.7891 43.8807 28.1509 45.4079 27.6402C46.9351 27.1296 47.9532 27.1259 47.9532 27.1259C47.9532 27.1259 48.9713 27.1296 50.4986 27.6402C52.0258 28.1509 53.6802 28.7891 54.4438 28.7891C55.2074 28.7891 60.8708 27.704 60.8708 27.704ZM55.8394 58.8347C56.2548 59.0956 56.0014 59.5875 55.623 59.8558C55.2446 60.1241 50.1589 64.0745 49.6653 64.511C49.1717 64.9478 48.4463 65.669 47.9532 65.669C47.4601 65.669 46.7346 64.9478 46.2411 64.511C45.7475 64.0745 40.6619 60.1241 40.2834 59.8558C39.9049 59.5875 39.6516 59.0956 40.067 58.8347C40.4825 58.5739 41.7824 57.9155 43.5759 56.9845C45.3692 56.0536 47.6044 55.2621 47.9532 55.2621C48.302 55.2621 50.5371 56.0536 52.3307 56.9845C54.1241 57.9155 55.4239 58.5739 55.8394 58.8347Z" fill="white"/>
<path d="M62.3343 23.9382L57.1163 18.0001H47.9532H38.7901L33.5722 23.9382C33.5722 23.9382 28.9906 22.6616 26.827 24.8318C26.827 24.8318 32.9358 24.2787 35.0357 27.7041C35.0357 27.7041 40.699 28.7892 41.4626 28.7892C42.2262 28.7892 43.8807 28.1509 45.4078 27.6403C46.9351 27.1296 47.9532 27.126 47.9532 27.126C47.9532 27.126 48.9713 27.1296 50.4985 27.6403C52.0257 28.1509 53.6802 28.7892 54.4437 28.7892C55.2073 28.7892 60.8706 27.7041 60.8706 27.7041C62.9706 24.2787 69.0793 24.8318 69.0793 24.8318C66.9158 22.6616 62.3343 23.9382 62.3343 23.9382Z" fill="#FF2000"/>
<path d="M62.3343 23.9382L57.1163 18.0001H47.9532H38.7901L33.5722 23.9382C33.5722 23.9382 28.9906 22.6616 26.827 24.8318C26.827 24.8318 32.9358 24.2787 35.0357 27.7041C35.0357 27.7041 40.699 28.7892 41.4626 28.7892C42.2262 28.7892 43.8807 28.1509 45.4078 27.6403C46.9351 27.1296 47.9532 27.126 47.9532 27.126C47.9532 27.126 48.9713 27.1296 50.4985 27.6403C52.0257 28.1509 53.6802 28.7892 54.4437 28.7892C55.2073 28.7892 60.8706 27.7041 60.8706 27.7041C62.9706 24.2787 69.0793 24.8318 69.0793 24.8318C66.9158 22.6616 62.3343 23.9382 62.3343 23.9382Z" fill="black" fill-opacity="0.1"/>
</g>
</g>
</g>
<defs>
<filter id="filter0_i_31_2565" x="6" y="6" width="84" height="88" filterUnits="userSpaceOnUse" color-interpolation-filters="sRGB">
<feFlood flood-opacity="0" result="BackgroundImageFix"/>
<feBlend mode="normal" in="SourceGraphic" in2="BackgroundImageFix" result="shape"/>
<feColorMatrix in="SourceAlpha" type="matrix" values="0 0 0 0 0 0 0 0 0 0 0 0 0 0 0 0 0 0 127 0" result="hardAlpha"/>
<feOffset dy="4"/>
<feGaussianBlur stdDeviation="2"/>
<feComposite in2="hardAlpha" operator="arithmetic" k2="-1" k3="1"/>
<feColorMatrix type="matrix" values="0 0 0 0 0 0 0 0 0 0 0 0 0 0 0 0 0 0 0.25 0"/>
<feBlend mode="normal" in2="shape" result="effect1_innerShadow_31_2565"/>
</filter>
<filter id="filter1_d_31_2565" x="18.5" y="16" width="58.9064" height="67.8762" filterUnits="userSpaceOnUse" color-interpolation-filters="sRGB">
<feFlood flood-opacity="0" result="BackgroundImageFix"/>
<feColorMatrix in="SourceAlpha" type="matrix" values="0 0 0 0 0 0 0 0 0 0 0 0 0 0 0 0 0 0 127 0" result="hardAlpha"/>
<feOffset dy="2"/>
<feGaussianBlur stdDeviation="2"/>
<feComposite in2="hardAlpha" operator="out"/>
<feColorMatrix type="matrix" values="0 0 0 0 0 0 0 0 0 0 0 0 0 0 0 0 0 0 0.25 0"/>
<feBlend mode="normal" in2="BackgroundImageFix" result="effect1_dropShadow_31_2565"/>
<feBlend mode="normal" in="SourceGraphic" in2="effect1_dropShadow_31_2565" result="shape"/>
</filter>
<linearGradient id="paint0_linear_31_2565" x1="0" y1="4867.73" x2="9600" y2="4867.73" gradientUnits="userSpaceOnUse">
<stop stop-color="#FF5500"/>
<stop offset="0.409877" stop-color="#FF5500"/>
<stop offset="0.581981" stop-color="#FF2000"/>
<stop offset="1" stop-color="#FF2000"/>
</linearGradient>
<clipPath id="clip0_31_2565">
<rect width="96" height="96" fill="white"/>
</clipPath>
</defs>
</svg>
