<svg width="96" height="96" viewBox="0 0 96 96" fill="none" xmlns="http://www.w3.org/2000/svg">
<g clip-path="url(#clip0_31_2574)">
<path d="M72 0H24C10.7452 0 0 10.7452 0 24V72C0 85.2548 10.7452 96 24 96H72C85.2548 96 96 85.2548 96 72V24C96 10.7452 85.2548 0 72 0Z" fill="url(#paint0_radial_31_2574)"/>
<path d="M72 0H24C10.7452 0 0 10.7452 0 24V72C0 85.2548 10.7452 96 24 96H72C85.2548 96 96 85.2548 96 72V24C96 10.7452 85.2548 0 72 0Z" fill="url(#paint1_linear_31_2574)"/>
<g filter="url(#filter0_i_31_2574)">
<path d="M72 6H24C14.0589 6 6 14.0589 6 24V72C6 81.9411 14.0589 90 24 90H72C81.9411 90 90 81.9411 90 72V24C90 14.0589 81.9411 6 72 6Z" fill="black" fill-opacity="0.7"/>
<mask id="mask0_31_2574" style="mask-type:luminance" maskUnits="userSpaceOnUse" x="18" y="18" width="60" height="60">
<path d="M78 18H18V78H78V18Z" fill="white"/>
</mask>
<g mask="url(#mask0_31_2574)">
<g filter="url(#filter1_d_31_2574)">
<path d="M47.9962 32.9991H73.9728C71.3405 28.4384 67.5538 24.651 62.9935 22.0179C58.4333 19.3848 53.2601 17.9988 47.9942 17.9991C42.7284 17.9995 37.5554 19.3863 32.9955 22.02C28.4356 24.6538 24.6495 28.4417 22.0178 33.0028L35.0061 55.4991L35.0176 55.4961C33.6964 53.2177 32.9992 50.6313 32.9962 47.9975C32.9932 45.3636 33.6847 42.7756 35.0008 40.4943C36.3169 38.2128 38.2113 36.3188 40.4928 35.0029C42.7743 33.687 45.3624 32.9959 47.9962 32.9991Z" fill="url(#paint2_linear_31_2574)"/>
<path d="M60.9932 55.4971L48.0049 77.9933C53.2708 77.994 58.444 76.6088 63.0045 73.9758C67.565 71.343 71.352 67.556 73.9845 62.9954C76.617 58.4348 78.003 53.2615 78.0015 47.9957C78.0008 42.7298 76.6133 37.5569 73.9792 32.9973L48.0027 32.9974L47.9995 33.0089C50.6333 33.0038 53.2219 33.6932 55.5043 35.0075C57.7867 36.3219 59.6823 38.2147 60.9999 40.4952C62.3176 42.7757 63.0108 45.3632 63.0096 47.9971C63.0084 50.6309 62.313 53.2178 60.9932 55.4971Z" fill="url(#paint3_linear_31_2574)"/>
<path d="M35.0105 55.5039L22.0222 33.0075C19.3887 37.5675 18.002 42.7406 18.0018 48.0064C18.0016 53.2723 19.3878 58.4454 22.0211 63.0056C24.6543 67.5658 28.4418 71.3523 33.0027 73.9844C37.5635 76.6163 42.737 78.0015 48.0029 78L60.9911 55.5036L60.9827 55.4951C59.6702 57.7786 57.7788 59.6756 55.4994 60.9951C53.22 62.3146 50.6329 63.0098 47.9991 63.0107C45.3654 63.0116 42.7779 62.3181 40.4975 61.0002C38.2172 59.6822 36.3246 57.7865 35.0105 55.5039Z" fill="url(#paint4_linear_31_2574)"/>
<path d="M48 63C56.2843 63 63 56.2843 63 48C63 39.7157 56.2843 33 48 33C39.7157 33 33 39.7157 33 48C33 56.2843 39.7157 63 48 63Z" fill="white"/>
<path d="M48.0001 59.8751C54.5584 59.8751 59.875 54.5584 59.875 48C59.875 41.4417 54.5584 36.1251 48.0001 36.1251C41.4417 36.1251 36.125 41.4417 36.125 48C36.125 54.5584 41.4417 59.8751 48.0001 59.8751Z" fill="#1A73E8"/>
</g>
</g>
</g>
</g>
<defs>
<filter id="filter0_i_31_2574" x="6" y="6" width="84" height="88" filterUnits="userSpaceOnUse" color-interpolation-filters="sRGB">
<feFlood flood-opacity="0" result="BackgroundImageFix"/>
<feBlend mode="normal" in="SourceGraphic" in2="BackgroundImageFix" result="shape"/>
<feColorMatrix in="SourceAlpha" type="matrix" values="0 0 0 0 0 0 0 0 0 0 0 0 0 0 0 0 0 0 127 0" result="hardAlpha"/>
<feOffset dy="4"/>
<feGaussianBlur stdDeviation="2"/>
<feComposite in2="hardAlpha" operator="arithmetic" k2="-1" k3="1"/>
<feColorMatrix type="matrix" values="0 0 0 0 0 0 0 0 0 0 0 0 0 0 0 0 0 0 0.25 0"/>
<feBlend mode="normal" in2="shape" result="effect1_innerShadow_31_2574"/>
</filter>
<filter id="filter1_d_31_2574" x="14.0018" y="15.9991" width="67.9998" height="68.0009" filterUnits="userSpaceOnUse" color-interpolation-filters="sRGB">
<feFlood flood-opacity="0" result="BackgroundImageFix"/>
<feColorMatrix in="SourceAlpha" type="matrix" values="0 0 0 0 0 0 0 0 0 0 0 0 0 0 0 0 0 0 127 0" result="hardAlpha"/>
<feOffset dy="2"/>
<feGaussianBlur stdDeviation="2"/>
<feComposite in2="hardAlpha" operator="out"/>
<feColorMatrix type="matrix" values="0 0 0 0 0 0 0 0 0 0 0 0 0 0 0 0 0 0 0.25 0"/>
<feBlend mode="normal" in2="BackgroundImageFix" result="effect1_dropShadow_31_2574"/>
<feBlend mode="normal" in="SourceGraphic" in2="effect1_dropShadow_31_2574" result="shape"/>
</filter>
<radialGradient id="paint0_radial_31_2574" cx="0" cy="0" r="1" gradientUnits="userSpaceOnUse" gradientTransform="translate(48 48) rotate(135) scale(67.8823)">
<stop offset="0.140003" stop-color="#1A73E8"/>
<stop offset="0.373259" stop-color="#DB3327"/>
<stop offset="0.638316" stop-color="#FCC72D"/>
<stop offset="0.896201" stop-color="#209140"/>
</radialGradient>
<linearGradient id="paint1_linear_31_2574" x1="96" y1="0" x2="0" y2="96" gradientUnits="userSpaceOnUse">
<stop stop-color="#1971E5"/>
<stop offset="0.536458" stop-color="#4C8CF4"/>
<stop offset="1" stop-color="#9FC2FA"/>
</linearGradient>
<linearGradient id="paint2_linear_31_2574" x1="70.7321" y1="31.1271" x2="44.7547" y2="76.1214" gradientUnits="userSpaceOnUse">
<stop stop-color="#D93025"/>
<stop offset="1" stop-color="#EA4335"/>
</linearGradient>
<linearGradient id="paint3_linear_31_2574" x1="75.6825" y1="36.7493" x2="23.7273" y2="36.7492" gradientUnits="userSpaceOnUse">
<stop stop-color="#FCC934"/>
<stop offset="1" stop-color="#FBBC04"/>
</linearGradient>
<linearGradient id="paint4_linear_31_2574" x1="51.2473" y1="76.1273" x2="25.2699" y2="31.1325" gradientUnits="userSpaceOnUse">
<stop stop-color="#1E8E3E"/>
<stop offset="1" stop-color="#34A853"/>
</linearGradient>
<clipPath id="clip0_31_2574">
<rect width="96" height="96" fill="white"/>
</clipPath>
</defs>
</svg>
