<svg width="96" height="96" viewBox="0 0 96 96" fill="none" xmlns="http://www.w3.org/2000/svg">
<g clip-path="url(#clip0_31_2607)">
<path d="M72 0H24C10.7452 0 0 10.7452 0 24V72C0 85.2548 10.7452 96 24 96H72C85.2548 96 96 85.2548 96 72V24C96 10.7452 85.2548 0 72 0Z" fill="#D3B9FF"/>
<path d="M72 0H24C10.7452 0 0 10.7452 0 24V72C0 85.2548 10.7452 96 24 96H72C85.2548 96 96 85.2548 96 72V24C96 10.7452 85.2548 0 72 0Z" fill="url(#paint0_linear_31_2607)"/>
<g filter="url(#filter0_i_31_2607)">
<path d="M72 6H24C14.0589 6 6 14.0589 6 24V72C6 81.9411 14.0589 90 24 90H72C81.9411 90 90 81.9411 90 72V24C90 14.0589 81.9411 6 72 6Z" fill="black" fill-opacity="0.7"/>
<g filter="url(#filter1_d_31_2607)">
<path d="M27 63.75V69.75C27 73.0637 29.6863 75.75 33 75.75H72C75.3135 75.75 78 73.0637 78 69.75V44.25C78 40.9363 75.3135 38.25 72 38.25" stroke="#8B00E7" stroke-width="4"/>
</g>
<g filter="url(#filter2_d_31_2607)">
<g filter="url(#filter3_d_31_2607)">
<path d="M36.75 28.5H28.5C26.8431 28.5 25.5 29.8431 25.5 31.5V41.25C25.5 42.9069 26.8431 44.25 28.5 44.25H36.75C38.4069 44.25 39.75 42.9069 39.75 41.25V31.5C39.75 29.8431 38.4069 28.5 36.75 28.5Z" fill="#D404FF"/>
</g>
<g filter="url(#filter4_d_31_2607)">
<path d="M58.5 32.25H48C46.3431 32.25 45 33.5931 45 35.25V50.25C45 51.9069 46.3431 53.25 48 53.25H58.5C60.1569 53.25 61.5 51.9069 61.5 50.25V35.25C61.5 33.5931 60.1569 32.25 58.5 32.25Z" fill="#D404FF"/>
</g>
<path d="M63 20.25H27C22.0294 20.25 18 24.2794 18 29.25V54.75C18 59.7206 22.0294 63.75 27 63.75H63C67.9706 63.75 72 59.7206 72 54.75V29.25C72 24.2794 67.9706 20.25 63 20.25Z" stroke="#D404FF" stroke-width="4"/>
</g>
</g>
</g>
<defs>
<filter id="filter0_i_31_2607" x="6" y="6" width="84" height="86" filterUnits="userSpaceOnUse" color-interpolation-filters="sRGB">
<feFlood flood-opacity="0" result="BackgroundImageFix"/>
<feBlend mode="normal" in="SourceGraphic" in2="BackgroundImageFix" result="shape"/>
<feColorMatrix in="SourceAlpha" type="matrix" values="0 0 0 0 0 0 0 0 0 0 0 0 0 0 0 0 0 0 127 0" result="hardAlpha"/>
<feOffset dy="2"/>
<feGaussianBlur stdDeviation="2"/>
<feComposite in2="hardAlpha" operator="arithmetic" k2="-1" k3="1"/>
<feColorMatrix type="matrix" values="0 0 0 0 0 0 0 0 0 0 0 0 0 0 0 0 0 0 0.25 0"/>
<feBlend mode="normal" in2="shape" result="effect1_innerShadow_31_2607"/>
</filter>
<filter id="filter1_d_31_2607" x="21" y="34.25" width="63" height="49.5" filterUnits="userSpaceOnUse" color-interpolation-filters="sRGB">
<feFlood flood-opacity="0" result="BackgroundImageFix"/>
<feColorMatrix in="SourceAlpha" type="matrix" values="0 0 0 0 0 0 0 0 0 0 0 0 0 0 0 0 0 0 127 0" result="hardAlpha"/>
<feOffset dy="2"/>
<feGaussianBlur stdDeviation="2"/>
<feComposite in2="hardAlpha" operator="out"/>
<feColorMatrix type="matrix" values="0 0 0 0 0 0 0 0 0 0 0 0 0 0 0 0 0 0 0.25 0"/>
<feBlend mode="normal" in2="BackgroundImageFix" result="effect1_dropShadow_31_2607"/>
<feBlend mode="normal" in="SourceGraphic" in2="effect1_dropShadow_31_2607" result="shape"/>
</filter>
<filter id="filter2_d_31_2607" x="12" y="16.25" width="66" height="55.5" filterUnits="userSpaceOnUse" color-interpolation-filters="sRGB">
<feFlood flood-opacity="0" result="BackgroundImageFix"/>
<feColorMatrix in="SourceAlpha" type="matrix" values="0 0 0 0 0 0 0 0 0 0 0 0 0 0 0 0 0 0 127 0" result="hardAlpha"/>
<feOffset dy="2"/>
<feGaussianBlur stdDeviation="2"/>
<feComposite in2="hardAlpha" operator="out"/>
<feColorMatrix type="matrix" values="0 0 0 0 0 0 0 0 0 0 0 0 0 0 0 0 0 0 0.25 0"/>
<feBlend mode="normal" in2="BackgroundImageFix" result="effect1_dropShadow_31_2607"/>
<feBlend mode="normal" in="SourceGraphic" in2="effect1_dropShadow_31_2607" result="shape"/>
</filter>
<filter id="filter3_d_31_2607" x="21.5" y="26.5" width="22.25" height="23.75" filterUnits="userSpaceOnUse" color-interpolation-filters="sRGB">
<feFlood flood-opacity="0" result="BackgroundImageFix"/>
<feColorMatrix in="SourceAlpha" type="matrix" values="0 0 0 0 0 0 0 0 0 0 0 0 0 0 0 0 0 0 127 0" result="hardAlpha"/>
<feOffset dy="2"/>
<feGaussianBlur stdDeviation="2"/>
<feComposite in2="hardAlpha" operator="out"/>
<feColorMatrix type="matrix" values="0 0 0 0 0 0 0 0 0 0 0 0 0 0 0 0 0 0 0.25 0"/>
<feBlend mode="normal" in2="BackgroundImageFix" result="effect1_dropShadow_31_2607"/>
<feBlend mode="normal" in="SourceGraphic" in2="effect1_dropShadow_31_2607" result="shape"/>
</filter>
<filter id="filter4_d_31_2607" x="41" y="30.25" width="24.5" height="29" filterUnits="userSpaceOnUse" color-interpolation-filters="sRGB">
<feFlood flood-opacity="0" result="BackgroundImageFix"/>
<feColorMatrix in="SourceAlpha" type="matrix" values="0 0 0 0 0 0 0 0 0 0 0 0 0 0 0 0 0 0 127 0" result="hardAlpha"/>
<feOffset dy="2"/>
<feGaussianBlur stdDeviation="2"/>
<feComposite in2="hardAlpha" operator="out"/>
<feColorMatrix type="matrix" values="0 0 0 0 0 0 0 0 0 0 0 0 0 0 0 0 0 0 0.25 0"/>
<feBlend mode="normal" in2="BackgroundImageFix" result="effect1_dropShadow_31_2607"/>
<feBlend mode="normal" in="SourceGraphic" in2="effect1_dropShadow_31_2607" result="shape"/>
</filter>
<linearGradient id="paint0_linear_31_2607" x1="48" y1="0" x2="48" y2="96" gradientUnits="userSpaceOnUse">
<stop stop-color="#CB02C5"/>
<stop offset="0.244792" stop-color="#C101DA"/>
<stop offset="0.510417" stop-color="#B600F0"/>
<stop offset="0.744792" stop-color="#8900D9"/>
<stop offset="1" stop-color="#5800BF"/>
</linearGradient>
<clipPath id="clip0_31_2607">
<rect width="96" height="96" fill="white"/>
</clipPath>
</defs>
</svg>
