<svg width="96" height="96" viewBox="0 0 96 96" fill="none" xmlns="http://www.w3.org/2000/svg">
<g clip-path="url(#clip0_31_2620)">
<path d="M72 0H24C10.7452 0 0 10.7452 0 24V72C0 85.2548 10.7452 96 24 96H72C85.2548 96 96 85.2548 96 72V24C96 10.7452 85.2548 0 72 0Z" fill="url(#paint0_linear_31_2620)"/>
<g filter="url(#filter0_i_31_2620)">
<path d="M72 6H24C14.0589 6 6 14.0589 6 24V72C6 81.9411 14.0589 90 24 90H72C81.9411 90 90 81.9411 90 72V24C90 14.0589 81.9411 6 72 6Z" fill="black" fill-opacity="0.7"/>
<mask id="mask0_31_2620" style="mask-type:luminance" maskUnits="userSpaceOnUse" x="18" y="18" width="60" height="60">
<path d="M78 18H18V78H78V18Z" fill="white"/>
</mask>
<g mask="url(#mask0_31_2620)">
<g filter="url(#filter1_d_31_2620)">
<path d="M68.8257 28.5695C64.9418 26.7523 60.7889 25.4317 56.4473 24.6796C55.914 25.6437 55.2911 26.9404 54.8616 27.9718C50.2463 27.2777 45.6733 27.2777 41.1429 27.9718C40.7134 26.9404 40.0764 25.6437 39.5384 24.6796C35.192 25.4317 31.0344 26.7571 27.1504 28.5791C19.3166 40.4171 17.193 51.9611 18.2548 63.3412C23.4506 67.2213 28.486 69.5784 33.4364 71.1207C34.6587 69.4385 35.7488 67.6503 36.688 65.7657C34.8994 65.086 33.1863 64.2474 31.5676 63.2737C31.9971 62.9556 32.4172 62.6229 32.8229 62.2807C42.6955 66.8984 53.4223 66.8984 63.1769 62.2807C63.5874 62.6229 64.0074 62.9556 64.4321 63.2737C62.8087 64.2522 61.091 65.0908 59.3024 65.7705C60.2415 67.6503 61.3269 69.4434 62.5539 71.1255C67.5091 69.5831 72.5492 67.2261 77.745 63.3412C78.9908 50.1488 75.6165 38.7109 68.8257 28.5695ZM38.0329 56.3425C35.0693 56.3425 32.6389 53.5758 32.6389 50.2066C32.6389 46.8374 35.0174 44.0659 38.0329 44.0659C41.0486 44.0659 43.4789 46.8325 43.427 50.2066C43.4317 53.5758 41.0486 56.3425 38.0329 56.3425ZM57.9668 56.3425C55.0032 56.3425 52.5728 53.5758 52.5728 50.2066C52.5728 46.8374 54.9512 44.0659 57.9668 44.0659C60.9824 44.0659 63.4128 46.8325 63.3609 50.2066C63.3609 53.5758 60.9824 56.3425 57.9668 56.3425Z" fill="#5865F2"/>
</g>
</g>
</g>
</g>
<defs>
<filter id="filter0_i_31_2620" x="6" y="6" width="84" height="88" filterUnits="userSpaceOnUse" color-interpolation-filters="sRGB">
<feFlood flood-opacity="0" result="BackgroundImageFix"/>
<feBlend mode="normal" in="SourceGraphic" in2="BackgroundImageFix" result="shape"/>
<feColorMatrix in="SourceAlpha" type="matrix" values="0 0 0 0 0 0 0 0 0 0 0 0 0 0 0 0 0 0 127 0" result="hardAlpha"/>
<feOffset dy="4"/>
<feGaussianBlur stdDeviation="2"/>
<feComposite in2="hardAlpha" operator="arithmetic" k2="-1" k3="1"/>
<feColorMatrix type="matrix" values="0 0 0 0 0 0 0 0 0 0 0 0 0 0 0 0 0 0 0.25 0"/>
<feBlend mode="normal" in2="shape" result="effect1_innerShadow_31_2620"/>
</filter>
<filter id="filter1_d_31_2620" x="14" y="22.6796" width="67.9999" height="54.4459" filterUnits="userSpaceOnUse" color-interpolation-filters="sRGB">
<feFlood flood-opacity="0" result="BackgroundImageFix"/>
<feColorMatrix in="SourceAlpha" type="matrix" values="0 0 0 0 0 0 0 0 0 0 0 0 0 0 0 0 0 0 127 0" result="hardAlpha"/>
<feOffset dy="2"/>
<feGaussianBlur stdDeviation="2"/>
<feComposite in2="hardAlpha" operator="out"/>
<feColorMatrix type="matrix" values="0 0 0 0 0 0 0 0 0 0 0 0 0 0 0 0 0 0 0.25 0"/>
<feBlend mode="normal" in2="BackgroundImageFix" result="effect1_dropShadow_31_2620"/>
<feBlend mode="normal" in="SourceGraphic" in2="effect1_dropShadow_31_2620" result="shape"/>
</filter>
<linearGradient id="paint0_linear_31_2620" x1="48" y1="0" x2="48" y2="96" gradientUnits="userSpaceOnUse">
<stop stop-color="#5865F2"/>
<stop offset="1" stop-color="#424BAE"/>
</linearGradient>
<clipPath id="clip0_31_2620">
<rect width="96" height="96" fill="white"/>
</clipPath>
</defs>
</svg>
