<svg width="96" height="96" viewBox="0 0 96 96" fill="none" xmlns="http://www.w3.org/2000/svg">
<g clip-path="url(#clip0_31_2668)">
<path d="M72 0H24C10.7452 0 0 10.7452 0 24V72C0 85.2548 10.7452 96 24 96H72C85.2548 96 96 85.2548 96 72V24C96 10.7452 85.2548 0 72 0Z" fill="url(#paint0_linear_31_2668)"/>
<path d="M72 0H24C10.7452 0 0 10.7452 0 24V72C0 85.2548 10.7452 96 24 96H72C85.2548 96 96 85.2548 96 72V24C96 10.7452 85.2548 0 72 0Z" fill="url(#paint1_linear_31_2668)"/>
<g filter="url(#filter0_i_31_2668)">
<path d="M72 6H24C14.0589 6 6 14.0589 6 24V72C6 81.9411 14.0589 90 24 90H72C81.9411 90 90 81.9411 90 72V24C90 14.0589 81.9411 6 72 6Z" fill="black" fill-opacity="0.7"/>
<mask id="mask0_31_2668" style="mask-type:luminance" maskUnits="userSpaceOnUse" x="12" y="12" width="72" height="72">
<path d="M84 12H12V84H84V12Z" fill="white"/>
</mask>
<g mask="url(#mask0_31_2668)">
<g filter="url(#filter1_d_31_2668)">
<path d="M59.9383 62.3451L15.0858 53.376L28.3338 80.832L61.4194 75.0653L59.9383 62.3451Z" fill="url(#paint2_linear_31_2668)"/>
</g>
<g filter="url(#filter2_d_31_2668)">
<path d="M80.9145 44.4618L62.7429 25.728L15.0858 35.7738V53.376L73.9611 65.1429L80.9145 44.4618Z" fill="url(#paint3_linear_31_2668)"/>
</g>
<path d="M80.9145 44.4618L52.3406 15.0035L29.952 21.7783L37.2823 44.0778L73.9612 65.1429L80.9145 44.4618Z" fill="url(#paint4_linear_31_2668)"/>
<g filter="url(#filter3_d_31_2668)">
<path d="M75.7785 33.408L73.1863 15.0035H63.3669H52.3406L29.952 21.7783L37.2823 44.0778L75.7785 33.408Z" fill="url(#paint5_linear_31_2668)"/>
</g>
<g filter="url(#filter4_d_31_2668)">
<path d="M27.4286 27.4286H68.5716V68.5715H27.4286V27.4286Z" fill="black"/>
</g>
<path d="M32.5578 60.7955H47.9864V63.3669H32.5578V60.7955Z" fill="white"/>
<path d="M32.5715 32.5167H38.6058C43.4675 32.5167 46.8344 35.856 46.8344 40.2104V40.2584C46.8344 44.6127 43.4744 47.9932 38.6058 47.9932H32.5715V32.5167ZM36.0001 35.5887V44.9144H38.6333C39.2516 44.9508 39.8707 44.8565 40.4501 44.6376C41.0296 44.4189 41.5565 44.0804 41.9963 43.6443C42.4363 43.2083 42.7794 42.6845 43.0034 42.107C43.2273 41.5295 43.3271 40.9113 43.2961 40.2927V40.2515C43.3275 39.6306 43.2284 39.0099 43.0053 38.4296C42.7822 37.8493 42.44 37.3221 42.0007 36.8822C41.5613 36.4422 41.0347 36.0992 40.4547 35.8752C39.8747 35.6513 39.2543 35.5513 38.6333 35.5818L36.0001 35.5887Z" fill="white"/>
<path d="M49.3167 32.5167H55.6595C59.3624 32.5167 61.5978 34.7109 61.5978 37.8858V37.9269C61.5978 41.52 58.807 43.4127 55.3235 43.4127H52.7315V48.0687H49.303L49.3167 32.5167ZM55.4333 40.3475C57.1407 40.3475 58.1762 39.3258 58.1762 37.9955V37.9475C58.1762 36.4184 57.1133 35.6024 55.4333 35.6024H52.7315V40.3475H55.4333Z" fill="white"/>
</g>
</g>
</g>
<defs>
<filter id="filter0_i_31_2668" x="6" y="6" width="84" height="88" filterUnits="userSpaceOnUse" color-interpolation-filters="sRGB">
<feFlood flood-opacity="0" result="BackgroundImageFix"/>
<feBlend mode="normal" in="SourceGraphic" in2="BackgroundImageFix" result="shape"/>
<feColorMatrix in="SourceAlpha" type="matrix" values="0 0 0 0 0 0 0 0 0 0 0 0 0 0 0 0 0 0 127 0" result="hardAlpha"/>
<feOffset dy="4"/>
<feGaussianBlur stdDeviation="2"/>
<feComposite in2="hardAlpha" operator="arithmetic" k2="-1" k3="1"/>
<feColorMatrix type="matrix" values="0 0 0 0 0 0 0 0 0 0 0 0 0 0 0 0 0 0 0.25 0"/>
<feBlend mode="normal" in2="shape" result="effect1_innerShadow_31_2668"/>
</filter>
<filter id="filter1_d_31_2668" x="11.0858" y="51.376" width="54.3337" height="35.456" filterUnits="userSpaceOnUse" color-interpolation-filters="sRGB">
<feFlood flood-opacity="0" result="BackgroundImageFix"/>
<feColorMatrix in="SourceAlpha" type="matrix" values="0 0 0 0 0 0 0 0 0 0 0 0 0 0 0 0 0 0 127 0" result="hardAlpha"/>
<feOffset dy="2"/>
<feGaussianBlur stdDeviation="2"/>
<feComposite in2="hardAlpha" operator="out"/>
<feColorMatrix type="matrix" values="0 0 0 0 0 0 0 0 0 0 0 0 0 0 0 0 0 0 0.25 0"/>
<feBlend mode="normal" in2="BackgroundImageFix" result="effect1_dropShadow_31_2668"/>
<feBlend mode="normal" in="SourceGraphic" in2="effect1_dropShadow_31_2668" result="shape"/>
</filter>
<filter id="filter2_d_31_2668" x="11.0858" y="23.728" width="73.8288" height="47.4149" filterUnits="userSpaceOnUse" color-interpolation-filters="sRGB">
<feFlood flood-opacity="0" result="BackgroundImageFix"/>
<feColorMatrix in="SourceAlpha" type="matrix" values="0 0 0 0 0 0 0 0 0 0 0 0 0 0 0 0 0 0 127 0" result="hardAlpha"/>
<feOffset dy="2"/>
<feGaussianBlur stdDeviation="2"/>
<feComposite in2="hardAlpha" operator="out"/>
<feColorMatrix type="matrix" values="0 0 0 0 0 0 0 0 0 0 0 0 0 0 0 0 0 0 0.25 0"/>
<feBlend mode="normal" in2="BackgroundImageFix" result="effect1_dropShadow_31_2668"/>
<feBlend mode="normal" in="SourceGraphic" in2="effect1_dropShadow_31_2668" result="shape"/>
</filter>
<filter id="filter3_d_31_2668" x="25.952" y="13.0035" width="53.8265" height="37.0743" filterUnits="userSpaceOnUse" color-interpolation-filters="sRGB">
<feFlood flood-opacity="0" result="BackgroundImageFix"/>
<feColorMatrix in="SourceAlpha" type="matrix" values="0 0 0 0 0 0 0 0 0 0 0 0 0 0 0 0 0 0 127 0" result="hardAlpha"/>
<feOffset dy="2"/>
<feGaussianBlur stdDeviation="2"/>
<feComposite in2="hardAlpha" operator="out"/>
<feColorMatrix type="matrix" values="0 0 0 0 0 0 0 0 0 0 0 0 0 0 0 0 0 0 0.25 0"/>
<feBlend mode="normal" in2="BackgroundImageFix" result="effect1_dropShadow_31_2668"/>
<feBlend mode="normal" in="SourceGraphic" in2="effect1_dropShadow_31_2668" result="shape"/>
</filter>
<filter id="filter4_d_31_2668" x="23.4286" y="25.4286" width="49.1429" height="49.1429" filterUnits="userSpaceOnUse" color-interpolation-filters="sRGB">
<feFlood flood-opacity="0" result="BackgroundImageFix"/>
<feColorMatrix in="SourceAlpha" type="matrix" values="0 0 0 0 0 0 0 0 0 0 0 0 0 0 0 0 0 0 127 0" result="hardAlpha"/>
<feOffset dy="2"/>
<feGaussianBlur stdDeviation="2"/>
<feComposite in2="hardAlpha" operator="out"/>
<feColorMatrix type="matrix" values="0 0 0 0 0 0 0 0 0 0 0 0 0 0 0 0 0 0 0.25 0"/>
<feBlend mode="normal" in2="BackgroundImageFix" result="effect1_dropShadow_31_2668"/>
<feBlend mode="normal" in="SourceGraphic" in2="effect1_dropShadow_31_2668" result="shape"/>
</filter>
<linearGradient id="paint0_linear_31_2668" x1="48" y1="0" x2="48" y2="96" gradientUnits="userSpaceOnUse">
<stop stop-color="#3BEA62"/>
<stop offset="0.510417" stop-color="#087DF7"/>
<stop offset="1" stop-color="#6B57FF"/>
</linearGradient>
<linearGradient id="paint1_linear_31_2668" x1="13.7244" y1="-16.3756" x2="111.644" y2="42.8567" gradientUnits="userSpaceOnUse">
<stop offset="0.1" stop-color="#FF45ED"/>
<stop offset="0.11" stop-color="#F846EE"/>
<stop offset="0.28" stop-color="#AC4FF7"/>
<stop offset="0.41" stop-color="#7D55FD"/>
<stop offset="0.47" stop-color="#6B57FF"/>
<stop offset="0.48" stop-color="#655DFE"/>
<stop offset="0.57" stop-color="#4482FA"/>
<stop offset="0.66" stop-color="#299EF6"/>
<stop offset="0.76" stop-color="#16B3F4"/>
<stop offset="0.85" stop-color="#0BBFF2"/>
<stop offset="0.94" stop-color="#07C3F2"/>
</linearGradient>
<linearGradient id="paint2_linear_31_2668" x1="21.7098" y1="48.6926" x2="53.3211" y2="80.9625" gradientUnits="userSpaceOnUse">
<stop offset="0.1" stop-color="#FF45ED"/>
<stop offset="0.11" stop-color="#F846EE"/>
<stop offset="0.28" stop-color="#AC4FF7"/>
<stop offset="0.41" stop-color="#7D55FD"/>
<stop offset="0.47" stop-color="#6B57FF"/>
<stop offset="0.48" stop-color="#655DFE"/>
<stop offset="0.57" stop-color="#4482FA"/>
<stop offset="0.66" stop-color="#299EF6"/>
<stop offset="0.76" stop-color="#16B3F4"/>
<stop offset="0.85" stop-color="#0BBFF2"/>
<stop offset="0.94" stop-color="#07C3F2"/>
</linearGradient>
<linearGradient id="paint3_linear_31_2668" x1="24.0823" y1="67.5018" x2="47.1634" y2="48.2675" gradientUnits="userSpaceOnUse">
<stop offset="0.04" stop-color="#FF45ED"/>
<stop offset="0.05" stop-color="#FE45ED"/>
<stop offset="0.2" stop-color="#D14BF3"/>
<stop offset="0.36" stop-color="#AC4FF7"/>
<stop offset="0.51" stop-color="#9053FB"/>
<stop offset="0.67" stop-color="#7B55FD"/>
<stop offset="0.82" stop-color="#6F57FF"/>
<stop offset="0.97" stop-color="#6B57FF"/>
</linearGradient>
<linearGradient id="paint4_linear_31_2668" x1="52.5669" y1="30.9189" x2="68.0847" y2="62.6332" gradientUnits="userSpaceOnUse">
<stop offset="0.2" stop-color="#FF45ED"/>
<stop offset="0.29" stop-color="#F646EE"/>
<stop offset="0.43" stop-color="#DD49F1"/>
<stop offset="0.61" stop-color="#B64EF6"/>
<stop offset="0.82" stop-color="#7F55FD"/>
<stop offset="0.89" stop-color="#6B57FF"/>
</linearGradient>
<linearGradient id="paint5_linear_31_2668" x1="33.7783" y1="32.2149" x2="72.7612" y2="22.7658" gradientUnits="userSpaceOnUse">
<stop offset="0.1" stop-color="#FF45ED"/>
<stop offset="0.17" stop-color="#F64AED"/>
<stop offset="0.29" stop-color="#DD56EE"/>
<stop offset="0.44" stop-color="#B56AEE"/>
<stop offset="0.62" stop-color="#7E87F0"/>
<stop offset="0.81" stop-color="#38AAF1"/>
<stop offset="0.94" stop-color="#07C3F2"/>
</linearGradient>
<clipPath id="clip0_31_2668">
<rect width="96" height="96" fill="white"/>
</clipPath>
</defs>
</svg>
