<svg width="96" height="96" viewBox="0 0 96 96" fill="none" xmlns="http://www.w3.org/2000/svg">
<g clip-path="url(#clip0_31_2689)">
<path d="M72 0H24C10.7452 0 0 10.7452 0 24V72C0 85.2548 10.7452 96 24 96H72C85.2548 96 96 85.2548 96 72V24C96 10.7452 85.2548 0 72 0Z" fill="url(#paint0_linear_31_2689)"/>
<path d="M72 0H24C10.7452 0 0 10.7452 0 24V72C0 85.2548 10.7452 96 24 96H72C85.2548 96 96 85.2548 96 72V24C96 10.7452 85.2548 0 72 0Z" fill="url(#paint1_linear_31_2689)"/>
<g filter="url(#filter0_i_31_2689)">
<path d="M72 6H24C14.0589 6 6 14.0589 6 24V72C6 81.9411 14.0589 90 24 90H72C81.9411 90 90 81.9411 90 72V24C90 14.0589 81.9411 6 72 6Z" fill="black" fill-opacity="0.7"/>
<mask id="mask0_31_2689" style="mask-type:luminance" maskUnits="userSpaceOnUse" x="12" y="12" width="72" height="72">
<path d="M84 12H12V84H84V12Z" fill="white"/>
</mask>
<g mask="url(#mask0_31_2689)">
<g filter="url(#filter1_d_31_2689)">
<path d="M78.384 30.1578L56.2285 15.0858L15.0857 44.304L25.5085 80.9145L70.4777 71.7943L78.384 30.1578Z" fill="url(#paint2_linear_31_2689)"/>
</g>
<g filter="url(#filter2_d_31_2689)">
<path d="M78.3839 30.1578L56.2283 15.0858L50.7769 29.8698V60.0069H80.9137L78.3839 30.1578Z" fill="url(#paint3_linear_31_2689)"/>
</g>
<g filter="url(#filter3_d_31_2689)">
<path d="M27.4285 27.4286H68.5713V68.5715H27.4285V27.4286Z" fill="black"/>
</g>
<path d="M32.5576 60.7954H47.9862V63.3669H32.5576V60.7954Z" fill="white"/>
<path d="M32.5712 32.5165H38.6054C43.4672 32.5165 46.8341 35.8559 46.8341 40.2102V40.2582C46.8341 44.6125 43.4741 47.9931 38.6054 47.9931H32.5712V32.5165ZM35.9998 35.5885V44.9142H38.6329C39.2513 44.9507 39.8703 44.8564 40.4498 44.6375C41.0292 44.4188 41.5561 44.0803 41.996 43.6442C42.4359 43.2082 42.779 42.6844 43.003 42.1069C43.2269 41.5294 43.3267 40.9112 43.2957 40.2925V40.2514C43.3271 39.6305 43.2281 39.0098 43.0049 38.4295C42.7818 37.8491 42.4396 37.322 42.0003 36.8821C41.561 36.4421 41.0343 36.0991 40.4543 35.8751C39.8744 35.6511 39.2539 35.5511 38.6329 35.5817L35.9998 35.5885Z" fill="white"/>
<path d="M53.2045 35.6366H48.4937V32.496H61.3234V35.6435L56.6125 35.6366V47.9863H53.2045V35.6366Z" fill="white"/>
</g>
</g>
</g>
<defs>
<filter id="filter0_i_31_2689" x="6" y="6" width="84" height="88" filterUnits="userSpaceOnUse" color-interpolation-filters="sRGB">
<feFlood flood-opacity="0" result="BackgroundImageFix"/>
<feBlend mode="normal" in="SourceGraphic" in2="BackgroundImageFix" result="shape"/>
<feColorMatrix in="SourceAlpha" type="matrix" values="0 0 0 0 0 0 0 0 0 0 0 0 0 0 0 0 0 0 127 0" result="hardAlpha"/>
<feOffset dy="4"/>
<feGaussianBlur stdDeviation="2"/>
<feComposite in2="hardAlpha" operator="arithmetic" k2="-1" k3="1"/>
<feColorMatrix type="matrix" values="0 0 0 0 0 0 0 0 0 0 0 0 0 0 0 0 0 0 0.25 0"/>
<feBlend mode="normal" in2="shape" result="effect1_innerShadow_31_2689"/>
</filter>
<filter id="filter1_d_31_2689" x="11.0857" y="13.0858" width="71.2983" height="73.8288" filterUnits="userSpaceOnUse" color-interpolation-filters="sRGB">
<feFlood flood-opacity="0" result="BackgroundImageFix"/>
<feColorMatrix in="SourceAlpha" type="matrix" values="0 0 0 0 0 0 0 0 0 0 0 0 0 0 0 0 0 0 127 0" result="hardAlpha"/>
<feOffset dy="2"/>
<feGaussianBlur stdDeviation="2"/>
<feComposite in2="hardAlpha" operator="out"/>
<feColorMatrix type="matrix" values="0 0 0 0 0 0 0 0 0 0 0 0 0 0 0 0 0 0 0.25 0"/>
<feBlend mode="normal" in2="BackgroundImageFix" result="effect1_dropShadow_31_2689"/>
<feBlend mode="normal" in="SourceGraphic" in2="effect1_dropShadow_31_2689" result="shape"/>
</filter>
<filter id="filter2_d_31_2689" x="46.7769" y="13.0858" width="38.1368" height="52.9211" filterUnits="userSpaceOnUse" color-interpolation-filters="sRGB">
<feFlood flood-opacity="0" result="BackgroundImageFix"/>
<feColorMatrix in="SourceAlpha" type="matrix" values="0 0 0 0 0 0 0 0 0 0 0 0 0 0 0 0 0 0 127 0" result="hardAlpha"/>
<feOffset dy="2"/>
<feGaussianBlur stdDeviation="2"/>
<feComposite in2="hardAlpha" operator="out"/>
<feColorMatrix type="matrix" values="0 0 0 0 0 0 0 0 0 0 0 0 0 0 0 0 0 0 0.25 0"/>
<feBlend mode="normal" in2="BackgroundImageFix" result="effect1_dropShadow_31_2689"/>
<feBlend mode="normal" in="SourceGraphic" in2="effect1_dropShadow_31_2689" result="shape"/>
</filter>
<filter id="filter3_d_31_2689" x="23.4285" y="25.4286" width="49.1428" height="49.1429" filterUnits="userSpaceOnUse" color-interpolation-filters="sRGB">
<feFlood flood-opacity="0" result="BackgroundImageFix"/>
<feColorMatrix in="SourceAlpha" type="matrix" values="0 0 0 0 0 0 0 0 0 0 0 0 0 0 0 0 0 0 127 0" result="hardAlpha"/>
<feOffset dy="2"/>
<feGaussianBlur stdDeviation="2"/>
<feComposite in2="hardAlpha" operator="out"/>
<feColorMatrix type="matrix" values="0 0 0 0 0 0 0 0 0 0 0 0 0 0 0 0 0 0 0.25 0"/>
<feBlend mode="normal" in2="BackgroundImageFix" result="effect1_dropShadow_31_2689"/>
<feBlend mode="normal" in="SourceGraphic" in2="effect1_dropShadow_31_2689" result="shape"/>
</filter>
<linearGradient id="paint0_linear_31_2689" x1="48" y1="0" x2="48" y2="96" gradientUnits="userSpaceOnUse">
<stop stop-color="#3BEA62"/>
<stop offset="0.510417" stop-color="#087DF7"/>
<stop offset="1" stop-color="#6B57FF"/>
</linearGradient>
<linearGradient id="paint1_linear_31_2689" x1="-1.90315" y1="59.98" x2="95.1217" y2="33.9499" gradientUnits="userSpaceOnUse">
<stop offset="0.12" stop-color="#6B57FF"/>
<stop offset="0.54" stop-color="#FF45ED"/>
<stop offset="0.85" stop-color="#DD1265"/>
</linearGradient>
<linearGradient id="paint2_linear_31_2689" x1="13.8308" y1="56.2149" x2="78.1305" y2="39.6274" gradientUnits="userSpaceOnUse">
<stop offset="0.12" stop-color="#6B57FF"/>
<stop offset="0.54" stop-color="#FF45ED"/>
<stop offset="0.85" stop-color="#DD1265"/>
</linearGradient>
<linearGradient id="paint3_linear_31_2689" x1="58.2649" y1="51.6754" x2="78.7132" y2="23.6434" gradientUnits="userSpaceOnUse">
<stop offset="0.19" stop-color="#DD1265"/>
<stop offset="0.29" stop-color="#DE146A"/>
<stop offset="0.41" stop-color="#E21977"/>
<stop offset="0.53" stop-color="#E7218E"/>
<stop offset="0.66" stop-color="#EF2DAD"/>
<stop offset="0.79" stop-color="#F93CD5"/>
<stop offset="0.85" stop-color="#FF45ED"/>
</linearGradient>
<clipPath id="clip0_31_2689">
<rect width="96" height="96" fill="white"/>
</clipPath>
</defs>
</svg>
