<svg width="96" height="96" viewBox="0 0 96 96" fill="none" xmlns="http://www.w3.org/2000/svg">
<g clip-path="url(#clip0_31_2727)">
<path d="M72 0H24C10.7452 0 0 10.7452 0 24V72C0 85.2548 10.7452 96 24 96H72C85.2548 96 96 85.2548 96 72V24C96 10.7452 85.2548 0 72 0Z" fill="url(#paint0_linear_31_2727)"/>
<g filter="url(#filter0_i_31_2727)">
<path d="M72 6H24C14.0589 6 6 14.0589 6 24V72C6 81.9411 14.0589 90 24 90H72C81.9411 90 90 81.9411 90 72V24C90 14.0589 81.9411 6 72 6Z" fill="black" fill-opacity="0.7"/>
<g filter="url(#filter1_d_31_2727)">
<path d="M22.4999 23.9999C19.8009 23.9999 18 25.8036 18 28.4999V67.4994C18 70.1956 19.8126 71.9993 22.4999 71.9993H73.4993C75.132 71.9993 77.9993 70.1996 77.9993 67.4994V28.4999C77.9993 25.7996 76.1925 23.9999 73.4993 23.9999H22.4999ZM34.4998 41.9997C36.9851 41.9997 38.9997 44.0143 38.9997 46.4996C38.9997 48.985 36.9851 50.9996 34.4998 50.9996C32.0145 50.9996 29.9999 48.985 29.9999 46.4996C29.9999 44.0143 32.0145 41.9997 34.4998 41.9997ZM61.4995 41.9997C63.9847 41.9997 65.9994 44.0143 65.9994 46.4996C65.9994 48.985 63.9847 50.9996 61.4995 50.9996C59.0141 50.9996 56.9995 48.985 56.9995 46.4996C56.9995 44.0143 59.0141 41.9997 61.4995 41.9997Z" fill="#141414"/>
<path d="M22.4978 31.5347L22.4979 57.0347C22.4979 58.5338 23.998 60.0346 25.4978 60.0346H70.4978C71.9984 60.0346 73.4978 58.5413 73.4978 57.0347V31.5347C73.4978 30.0367 72.0046 28.5347 70.4978 28.5347H25.4978C23.9959 28.5347 22.4978 30.029 22.4978 31.5347ZM34.498 42.0348C36.9833 42.0348 38.998 44.0495 38.998 46.5348C38.998 49.0201 36.9833 51.0349 34.498 51.0349C32.0127 51.0349 29.998 49.0201 29.998 46.5348C29.998 44.0495 32.0127 42.0348 34.498 42.0348ZM61.498 42.0348C63.9833 42.0348 65.998 44.0495 65.998 46.5348C65.998 49.0201 63.9833 51.0349 61.498 51.0349C59.0127 51.0349 56.998 49.0201 56.998 46.5348C56.998 44.0495 59.0127 42.0348 61.498 42.0348Z" fill="#58BEB1"/>
<path d="M22.4996 72.0379L28.4995 61.5377H67.4996L73.4995 72.0379H22.4996Z" fill="#3F3F3F"/>
<path d="M34.5015 69.0284C36.1583 69.0284 37.5015 67.6854 37.5015 66.0285C37.5015 64.3716 36.1583 63.0284 34.5015 63.0284C32.8446 63.0284 31.5015 64.3716 31.5015 66.0285C31.5015 67.6854 32.8446 69.0284 34.5015 69.0284Z" fill="#141414"/>
<path d="M61.4987 69.0284C63.1556 69.0284 64.4987 67.6854 64.4987 66.0285C64.4987 64.3716 63.1556 63.0284 61.4987 63.0284C59.8418 63.0284 58.4987 64.3716 58.4987 66.0285C58.4987 67.6854 59.8418 69.0284 61.4987 69.0284Z" fill="#141414"/>
<path d="M34.5018 40.5167C31.1997 40.5167 28.5015 43.2188 28.5015 46.5124C28.5015 49.814 31.1945 52.5123 34.5018 52.5123H61.5018C64.7944 52.5123 67.5016 49.8166 67.5016 46.5209V46.5096C67.5016 43.214 64.7946 40.5092 61.5018 40.5097L34.5018 40.5167ZM34.5018 42.0123C36.9871 42.0123 39.0018 44.027 39.0018 46.5123C39.0018 48.9975 36.9871 51.0123 34.5018 51.0123C32.0165 51.0123 30.0018 48.9975 30.0018 46.5123C30.0018 44.027 32.0165 42.0123 34.5018 42.0123ZM61.5018 42.0123C63.9871 42.0123 66.0018 44.027 66.0018 46.5123C66.0018 48.9975 63.9871 51.0123 61.5018 51.0123C59.0165 51.0123 57.0018 48.9975 57.0018 46.5123C57.0018 44.027 59.0165 42.0123 61.5018 42.0123Z" fill="#141414"/>
<path d="M55.4999 43.5213H40.5V49.5211H55.4999V43.5213Z" fill="#DBE2E3"/>
</g>
</g>
</g>
<defs>
<filter id="filter0_i_31_2727" x="6" y="6" width="84" height="88" filterUnits="userSpaceOnUse" color-interpolation-filters="sRGB">
<feFlood flood-opacity="0" result="BackgroundImageFix"/>
<feBlend mode="normal" in="SourceGraphic" in2="BackgroundImageFix" result="shape"/>
<feColorMatrix in="SourceAlpha" type="matrix" values="0 0 0 0 0 0 0 0 0 0 0 0 0 0 0 0 0 0 127 0" result="hardAlpha"/>
<feOffset dy="4"/>
<feGaussianBlur stdDeviation="2"/>
<feComposite in2="hardAlpha" operator="arithmetic" k2="-1" k3="1"/>
<feColorMatrix type="matrix" values="0 0 0 0 0 0 0 0 0 0 0 0 0 0 0 0 0 0 0.25 0"/>
<feBlend mode="normal" in2="shape" result="effect1_innerShadow_31_2727"/>
</filter>
<filter id="filter1_d_31_2727" x="14" y="21.9999" width="67.9993" height="56.0379" filterUnits="userSpaceOnUse" color-interpolation-filters="sRGB">
<feFlood flood-opacity="0" result="BackgroundImageFix"/>
<feColorMatrix in="SourceAlpha" type="matrix" values="0 0 0 0 0 0 0 0 0 0 0 0 0 0 0 0 0 0 127 0" result="hardAlpha"/>
<feOffset dy="2"/>
<feGaussianBlur stdDeviation="2"/>
<feComposite in2="hardAlpha" operator="out"/>
<feColorMatrix type="matrix" values="0 0 0 0 0 0 0 0 0 0 0 0 0 0 0 0 0 0 0.25 0"/>
<feBlend mode="normal" in2="BackgroundImageFix" result="effect1_dropShadow_31_2727"/>
<feBlend mode="normal" in="SourceGraphic" in2="effect1_dropShadow_31_2727" result="shape"/>
</filter>
<linearGradient id="paint0_linear_31_2727" x1="47.7081" y1="96.0735" x2="47.7081" y2="-0.0621777" gradientUnits="userSpaceOnUse">
<stop stop-color="#2CA0B9"/>
<stop offset="1" stop-color="#87DEAA"/>
</linearGradient>
<clipPath id="clip0_31_2727">
<rect width="96" height="96" fill="white"/>
</clipPath>
</defs>
</svg>
