<svg width="96" height="96" viewBox="0 0 96 96" fill="none" xmlns="http://www.w3.org/2000/svg">
<g clip-path="url(#clip0_31_2745)">
<path d="M72 0H24C10.7452 0 0 10.7452 0 24V72C0 85.2548 10.7452 96 24 96H72C85.2548 96 96 85.2548 96 72V24C96 10.7452 85.2548 0 72 0Z" fill="url(#paint0_linear_31_2745)"/>
<g filter="url(#filter0_i_31_2745)">
<path d="M72 6H24C14.0589 6 6 14.0589 6 24V72C6 81.9411 14.0589 90 24 90H72C81.9411 90 90 81.9411 90 72V24C90 14.0589 81.9411 6 72 6Z" fill="black" fill-opacity="0.7"/>
<path d="M48.3371 77.163C64.6775 77.163 77.9243 63.9189 77.9243 47.5815C77.9243 31.2441 64.6775 18 48.3371 18C31.9966 18 18.75 31.2441 18.75 47.5815C18.75 63.9189 31.9966 77.163 48.3371 77.163Z" fill="url(#paint1_linear_31_2745)"/>
<path opacity="0.4" d="M70.8586 40.8105L44.979 29.5815L31.9918 30.3075L39.0589 37.4475L26.5305 54.2175L28.8645 56.5815L31.6588 61.0815L30.9677 71.493C31.3542 71.7761 31.7475 72.0496 32.1472 72.3135L67.2281 70.3035L67.2341 70.3095C73.8911 64.7775 77.7908 56.6085 77.9063 47.9535L70.8586 40.8105Z" fill="url(#paint2_linear_31_2745)"/>
<path fill-rule="evenodd" clip-rule="evenodd" d="M29.0867 76.5015C29.0867 76.5015 38.3324 43.557 74.3235 47.7465C74.3235 47.7465 51.4498 33.9195 29.2451 52.56C22.6856 68.028 29.0867 76.5015 29.0867 76.5015Z" fill="url(#paint3_linear_31_2745)"/>
<path fill-rule="evenodd" clip-rule="evenodd" d="M31.8395 72.3345C31.8395 72.3345 41.4863 48.6495 67.2386 48.234C47.6639 53.0895 67.2712 70.305 67.2712 70.305C67.2712 70.305 51.7872 84.5895 31.8395 72.3345Z" fill="url(#paint4_linear_31_2745)"/>
<path fill-rule="evenodd" clip-rule="evenodd" d="M26.4672 54.1785C26.4672 54.1785 45.737 32.5965 74.513 47.508C73.998 43.452 70.5939 38.874 64.4933 37.566C63.1435 36.912 53.2525 21.3465 31.992 30.306C38.5323 30.825 41.3384 31.758 41.4982 32.466C30.1864 30.486 26.8341 46.875 26.4672 54.1785Z" fill="url(#paint5_linear_31_2745)"/>
<path fill-rule="evenodd" clip-rule="evenodd" d="M54.1033 35.8695C54.1033 35.8695 59.0332 34.0725 59.6755 39.42C54.8137 39.885 54.1033 35.8695 54.1033 35.8695Z" fill="#202020"/>
<path fill-rule="evenodd" clip-rule="evenodd" d="M28.958 76.6065C28.958 76.6065 37.3852 48.6135 65.5648 47.529C65.5648 47.529 42.6986 43.281 26.5486 69.33C26.4598 73.0155 28.958 76.608 28.958 76.608V76.6065Z" fill="#FDD664"/>
<path fill-rule="evenodd" clip-rule="evenodd" d="M32.0142 30.309C32.0142 30.309 39.0443 30.726 41.5529 32.484C42.6008 32.2635 43.4918 31.533 43.6413 30.5385C42.7428 30.159 34.514 29.478 32.0157 30.309H32.0142Z" fill="url(#paint6_linear_31_2745)"/>
<path fill-rule="evenodd" clip-rule="evenodd" d="M32.0142 30.309C32.0142 30.309 39.0443 30.726 41.5529 32.484C42.6008 32.2635 43.4918 31.533 43.6413 30.5385C42.7428 30.159 34.514 29.478 32.0157 30.309H32.0142Z" fill="#FDD664"/>
<path fill-rule="evenodd" clip-rule="evenodd" d="M26.5307 54.216C26.5307 54.216 35.3309 43.4535 53.0941 42.168C53.0941 42.168 28.9105 43.281 26.8829 50.2335C26.3176 51.906 26.5307 54.216 26.5307 54.216Z" fill="#FDD664"/>
</g>
</g>
<defs>
<filter id="filter0_i_31_2745" x="6" y="6" width="84" height="88" filterUnits="userSpaceOnUse" color-interpolation-filters="sRGB">
<feFlood flood-opacity="0" result="BackgroundImageFix"/>
<feBlend mode="normal" in="SourceGraphic" in2="BackgroundImageFix" result="shape"/>
<feColorMatrix in="SourceAlpha" type="matrix" values="0 0 0 0 0 0 0 0 0 0 0 0 0 0 0 0 0 0 127 0" result="hardAlpha"/>
<feOffset dy="4"/>
<feGaussianBlur stdDeviation="2"/>
<feComposite in2="hardAlpha" operator="arithmetic" k2="-1" k3="1"/>
<feColorMatrix type="matrix" values="0 0 0 0 0 0 0 0 0 0 0 0 0 0 0 0 0 0 0.25 0"/>
<feBlend mode="normal" in2="shape" result="effect1_innerShadow_31_2745"/>
</filter>
<linearGradient id="paint0_linear_31_2745" x1="144.15" y1="-26.5361" x2="-21.2698" y2="95.9602" gradientUnits="userSpaceOnUse">
<stop stop-color="#D446FF"/>
<stop offset="1" stop-color="#A0D8FF"/>
</linearGradient>
<linearGradient id="paint1_linear_31_2745" x1="107.604" y1="1.6463" x2="5.653" y2="77.157" gradientUnits="userSpaceOnUse">
<stop stop-color="#D446FF"/>
<stop offset="1" stop-color="#A0D8FF"/>
</linearGradient>
<linearGradient id="paint2_linear_31_2745" x1="47.939" y1="47.5815" x2="77.9363" y2="77.1795" gradientUnits="userSpaceOnUse">
<stop stop-color="#292C2F"/>
<stop offset="1" stop-opacity="0"/>
</linearGradient>
<linearGradient id="paint3_linear_31_2745" x1="46.3706" y1="49.8422" x2="67.2923" y2="33.6587" gradientUnits="userSpaceOnUse">
<stop stop-color="white"/>
<stop offset="1" stop-color="#DADADA"/>
</linearGradient>
<linearGradient id="paint4_linear_31_2745" x1="50.3624" y1="68.741" x2="36.7425" y2="48.1892" gradientUnits="userSpaceOnUse">
<stop stop-color="white"/>
<stop offset="1" stop-color="#DADADA"/>
</linearGradient>
<linearGradient id="paint5_linear_31_2745" x1="73.8796" y1="30.998" x2="51.5478" y2="48.6914" gradientUnits="userSpaceOnUse">
<stop stop-color="#D0D0D0"/>
<stop offset="1" stop-color="white"/>
</linearGradient>
<linearGradient id="paint6_linear_31_2745" x1="43.1425" y1="29.9748" x2="38.4933" y2="36.3905" gradientUnits="userSpaceOnUse">
<stop stop-color="#FFDC68"/>
<stop offset="1" stop-color="#CE4300"/>
</linearGradient>
<clipPath id="clip0_31_2745">
<rect width="96" height="96" fill="white"/>
</clipPath>
</defs>
</svg>
