<svg width="96" height="96" viewBox="0 0 96 96" fill="none" xmlns="http://www.w3.org/2000/svg">
<g clip-path="url(#clip0_31_2759)">
<path d="M72 0H24C10.7452 0 0 10.7452 0 24V72C0 85.2548 10.7452 96 24 96H72C85.2548 96 96 85.2548 96 72V24C96 10.7452 85.2548 0 72 0Z" fill="url(#paint0_linear_31_2759)"/>
<g filter="url(#filter0_i_31_2759)">
<path d="M72 6H24C14.0589 6 6 14.0589 6 24V72C6 81.9411 14.0589 90 24 90H72C81.9411 90 90 81.9411 90 72V24C90 14.0589 81.9411 6 72 6Z" fill="black" fill-opacity="0.7"/>
<g filter="url(#filter1_d_31_2759)">
<path d="M74.6456 38.3075C73.396 35.3221 70.8613 32.0988 68.8765 31.0798C70.2919 33.8013 71.2743 36.7241 71.7889 39.7442L71.794 39.792C68.5426 31.7466 63.031 28.4975 58.527 21.4319C58.2992 21.0746 58.0714 20.7165 57.8495 20.3385C57.7227 20.1227 57.621 19.9281 57.5327 19.7491C57.346 19.39 57.202 19.0104 57.1038 18.6182C57.1039 18.6001 57.0973 18.5826 57.0853 18.569C57.0733 18.5554 57.0566 18.5467 57.0385 18.5445C57.0208 18.5397 57.0021 18.5397 56.9844 18.5445C56.9806 18.5445 56.9747 18.5511 56.9703 18.5526C56.9658 18.5541 56.9562 18.5607 56.9495 18.5637L56.9606 18.5445C49.7372 22.7441 47.2849 30.5169 47.0623 34.407C44.1766 34.6035 41.4175 35.659 39.145 37.4359C38.908 37.2366 38.6604 37.0501 38.4031 36.8775C37.7479 34.6 37.7199 32.1898 38.3221 29.8981C35.6694 31.174 33.3123 32.9829 31.4 35.2101H31.3867C30.2469 33.7757 30.3271 29.0457 30.3924 28.0576C30.0552 28.1922 29.7334 28.3618 29.4322 28.5638C28.426 29.2768 27.4855 30.0768 26.6215 30.9546C25.6369 31.9458 24.7377 33.0171 23.9332 34.1573C22.0845 36.7593 20.7731 39.6983 20.0748 42.8062L20.0362 42.9948C19.982 43.246 19.7869 44.5045 19.7535 44.7778C19.7535 44.7991 19.7491 44.819 19.7468 44.8404C19.495 46.1396 19.3391 47.4552 19.2801 48.7769V48.9243C19.2928 56.0698 22.003 62.951 26.8755 68.2094C31.7481 73.4679 38.429 76.7212 45.5995 77.328C52.7698 77.934 59.9087 75.8497 65.6068 71.4849C71.3047 67.1205 75.1477 60.7935 76.3777 53.753C76.4257 53.3847 76.4647 53.0199 76.5082 52.6479C77.1 47.7867 76.4587 42.8555 74.6426 38.3031L74.6456 38.3075ZM41.5002 60.661C41.6345 60.7251 41.7606 60.7943 41.8987 60.8554L41.9187 60.868C41.7792 60.8017 41.6397 60.7327 41.5002 60.661ZM71.7948 39.8002V39.7729L71.8 39.8031L71.7948 39.8002Z" fill="url(#paint1_linear_31_2759)"/>
</g>
<path d="M74.6455 38.3075C73.396 35.3221 70.8613 32.0988 68.8764 31.0798C70.2918 33.8014 71.2742 36.7241 71.7888 39.7442V39.7714L71.794 39.8017C74.011 46.1003 73.6904 53.006 70.8992 59.0755C67.6031 66.0976 59.6281 73.295 47.1401 72.9413C33.6504 72.5619 21.7635 62.6193 19.5449 49.6006C19.1405 47.5473 19.5449 46.5062 19.7482 44.8375C19.4709 46.1337 19.3161 47.4529 19.2859 48.7777V48.925C19.2986 56.0706 22.0088 62.9518 26.8814 68.2102C31.754 73.4686 38.4349 76.722 45.6053 77.3287C52.7758 77.9347 59.9146 75.8505 65.6126 71.4857C71.3106 67.1212 75.1538 60.7942 76.383 53.7538C76.4318 53.3854 76.4707 53.0207 76.5142 52.6486C77.106 47.7874 76.4648 42.8563 74.6485 38.3038L74.6455 38.3075Z" fill="url(#paint2_radial_31_2759)"/>
<path d="M60.6661 41.6599C60.7285 41.7034 60.7864 41.7468 60.845 41.7903C60.1226 40.5184 59.2234 39.3539 58.1738 38.3311C49.2326 29.4532 55.8312 19.0869 56.9435 18.5564L56.9546 18.5402C49.7312 22.7398 47.2789 30.5126 47.0563 34.4027C47.3917 34.3799 47.7241 34.3519 48.0669 34.3519C50.6297 34.3568 53.1455 35.0355 55.3584 36.3188C57.5714 37.6021 59.4027 39.4444 60.6661 41.6584V41.6599Z" fill="#FF980E"/>
<path d="M48.0818 43.4355C48.0343 44.1457 45.507 46.5954 44.6233 46.5954C36.4463 46.5954 35.1182 51.5074 35.1182 51.5074C35.4803 55.6436 38.383 59.0519 41.8919 60.8496C42.0522 60.9321 42.2147 61.0065 42.3772 61.0794C42.6587 61.2033 42.9401 61.3177 43.2216 61.4228C44.4259 61.8459 45.6872 62.0876 46.9636 62.1397C61.2991 62.8072 64.0742 45.1204 53.7299 39.9852C56.1701 39.6699 58.6411 40.2657 60.664 41.6569C59.4005 39.4429 57.5692 37.6006 55.3562 36.3173C53.1432 35.034 50.6275 34.3553 48.0647 34.3504C47.7233 34.3504 47.3894 34.3784 47.0541 34.4013C44.1684 34.5977 41.4093 35.6532 39.1369 37.4301C39.5754 37.7985 40.0703 38.2906 41.1128 39.3111C43.0643 41.22 48.0692 43.1975 48.0803 43.4295L48.0818 43.4355Z" fill="#6B3DD7"/>
<path d="M37.7976 36.4877C38.0305 36.6351 38.2227 36.7633 38.3911 36.8789C37.7359 34.6016 37.708 32.1914 38.3103 29.8996C35.6575 31.1755 33.3004 32.9843 31.3881 35.2117C31.5283 35.2079 35.6999 35.1335 37.7976 36.4877Z" fill="#FF7139"/>
<path d="M74.6455 38.3075C73.396 35.3221 70.8613 32.0988 68.8764 31.0798C70.2918 33.8014 71.2742 36.7241 71.7888 39.7442V39.7714L71.794 39.8017C74.011 46.1003 73.6904 53.006 70.8992 59.0754C67.6031 66.0975 59.6281 73.2949 47.1401 72.9413C33.6504 72.5619 21.7635 62.6193 19.5449 49.6006C19.1405 47.5473 19.5449 46.5062 19.7482 44.8375C19.4709 46.1337 19.3161 47.4529 19.2859 48.7777V48.925C19.2986 56.0706 22.0088 62.9518 26.8814 68.2102C31.754 73.4686 38.4349 76.722 45.6053 77.3287C52.7758 77.9347 59.9146 75.8505 65.6126 71.4857C71.3106 67.1212 75.1538 60.7942 76.383 53.7538C76.4318 53.3854 76.4707 53.0207 76.5142 52.6486C77.106 47.7874 76.4648 42.8562 74.6485 38.3038L74.6455 38.3075Z" fill="#FF3647"/>
<path d="M74.6455 38.3075C73.396 35.3221 70.8613 32.0988 68.8764 31.0798C70.2918 33.8014 71.2742 36.7241 71.7888 39.7442V39.7714L71.794 39.8017C74.011 46.1003 73.6904 53.006 70.8992 59.0754C67.6031 66.0975 59.6281 73.2949 47.1401 72.9413C33.6504 72.5619 21.7635 62.6193 19.5449 49.6006C19.1405 47.5473 19.5449 46.5062 19.7482 44.8375C19.4709 46.1337 19.3161 47.4529 19.2859 48.7777V48.925C19.2986 56.0706 22.0088 62.9518 26.8814 68.2102C31.754 73.4686 38.4349 76.722 45.6053 77.3287C52.7758 77.9347 59.9146 75.8505 65.6126 71.4857C71.3106 67.1212 75.1538 60.7942 76.383 53.7538C76.4318 53.3854 76.4707 53.0207 76.5142 52.6486C77.106 47.7874 76.4648 42.8562 74.6485 38.3038L74.6455 38.3075Z" fill="black" fill-opacity="0.2"/>
<path d="M74.6455 38.3075C73.396 35.3221 70.8613 32.0988 68.8764 31.0798C70.2918 33.8014 71.2742 36.7241 71.7888 39.7442V39.7714L71.794 39.8017C74.011 46.1003 73.6904 53.006 70.8992 59.0754C67.6031 66.0975 59.6281 73.2949 47.1401 72.9413C33.6504 72.5619 21.7635 62.6193 19.5449 49.6006C19.1405 47.5473 19.5449 46.5062 19.7482 44.8375C19.4709 46.1337 19.3161 47.4529 19.2859 48.7777V48.925C19.2986 56.0706 22.0088 62.9518 26.8814 68.2102C31.754 73.4686 38.4349 76.722 45.6053 77.3287C52.7758 77.9347 59.9146 75.8505 65.6126 71.4857C71.3106 67.1212 75.1538 60.7942 76.383 53.7538C76.4318 53.3854 76.4707 53.0207 76.5142 52.6486C77.106 47.7874 76.4648 42.8562 74.6485 38.3038L74.6455 38.3075Z" fill="#FF5634"/>
<path d="M19.5398 49.6021C21.7591 62.6207 33.6452 72.5671 47.1349 72.9428C59.6229 73.2935 67.5995 66.0953 70.894 59.0769C73.6852 53.0075 74.0058 46.1018 71.7888 39.8032V39.7759C71.7888 39.7545 71.7844 39.742 71.7888 39.7486L71.794 39.7965C72.8143 46.4104 69.4262 52.8151 64.1291 57.1546L64.1128 57.1915C53.7914 65.539 43.9154 62.2266 41.9194 60.8753C41.7799 60.809 41.6404 60.74 41.5009 60.6683C35.4839 57.8126 32.9975 52.3723 33.5318 47.7013C32.1035 47.7222 30.6997 47.3314 29.4906 46.5762C28.2815 45.821 27.3188 44.7338 26.7194 43.4464C28.2989 42.4857 30.1 41.9425 31.9509 41.8687C33.8018 41.7949 35.6409 42.193 37.2929 43.025C40.6982 44.5597 44.573 44.711 48.0891 43.4464C48.078 43.2144 43.0732 41.2361 41.1217 39.3279C40.0792 38.3075 39.5843 37.8161 39.1457 37.447C38.9087 37.2476 38.6611 37.0612 38.4038 36.8885C38.2331 36.7728 38.0409 36.6475 37.8101 36.4972C35.7125 35.1431 31.541 35.2175 31.4029 35.2212H31.3895C30.2498 33.7867 30.33 29.0567 30.3953 28.0687C30.0581 28.2032 29.7362 28.3729 29.4351 28.5748C28.429 29.2879 27.4884 30.0879 26.6244 30.9656C25.6363 31.954 24.7334 33.0229 23.925 34.161C22.0763 36.763 20.765 39.702 20.0666 42.8098C20.0525 42.868 19.0307 47.3034 19.5345 49.6036L19.5398 49.6021Z" fill="#FF5634"/>
<path d="M58.1729 38.3297C59.2229 39.3535 60.1221 40.5193 60.8442 41.7924C61.0022 41.9111 61.1499 42.029 61.2753 42.1431C67.7953 48.111 64.3791 56.5469 64.1246 57.1437C69.421 52.8108 72.806 46.4016 71.7895 39.7855C68.5366 31.7327 63.019 28.4835 58.5224 21.4179C58.2947 21.0606 58.0669 20.7026 57.845 20.3246C57.7181 20.1087 57.6164 19.9143 57.5282 19.7352C57.3414 19.3761 57.1975 18.9965 57.0993 18.6042C57.0994 18.5862 57.0928 18.5687 57.0808 18.555C57.0688 18.5415 57.0521 18.5328 57.034 18.5306C57.0163 18.5258 56.9975 18.5258 56.9798 18.5306C56.9761 18.5306 56.9702 18.5372 56.9657 18.5387C56.9613 18.5402 56.9516 18.5468 56.945 18.5497C55.8327 19.0736 49.2355 29.4465 58.1767 38.3172L58.1729 38.3297Z" fill="#FFF44F"/>
<path d="M61.2746 42.1461C61.1492 42.0319 61.0015 41.914 60.8435 41.7954C60.7849 41.7519 60.727 41.7084 60.6647 41.665C58.6419 40.2737 56.1708 39.678 53.7307 39.9932C64.0742 45.1285 61.2991 62.8109 46.9643 62.1478C45.688 62.0957 44.4266 61.854 43.2223 61.4309C42.9409 61.3262 42.6595 61.2119 42.378 61.0876C42.2155 61.0139 42.0529 60.9402 41.8927 60.8577L41.9127 60.8702C43.9117 62.2251 53.7848 65.5354 64.1061 57.1864L64.1224 57.1496C64.3799 56.5528 67.7961 48.1168 61.2731 42.149L61.2746 42.1461Z" fill="#FF980E"/>
<path d="M35.1189 51.5029C35.1189 51.5029 36.4463 46.591 44.6239 46.591C45.5077 46.591 48.0372 44.1412 48.0825 43.4309C44.5663 44.6956 40.6915 44.5443 37.2863 43.0095C35.6342 42.1775 33.7952 41.7795 31.9442 41.8532C30.0933 41.927 28.2923 42.4702 26.7127 43.4309C27.3122 44.7184 28.2748 45.8055 29.4839 46.5607C30.693 47.3159 32.0968 47.7067 33.5251 47.6857C32.9923 52.3546 35.478 57.7942 41.4942 60.6528C41.6285 60.7169 41.7547 60.7861 41.8927 60.8473C38.3807 59.0459 35.481 55.6391 35.1189 51.5052V51.5029Z" fill="#FF980E"/>
</g>
</g>
<defs>
<filter id="filter0_i_31_2759" x="6" y="6" width="84" height="88" filterUnits="userSpaceOnUse" color-interpolation-filters="sRGB">
<feFlood flood-opacity="0" result="BackgroundImageFix"/>
<feBlend mode="normal" in="SourceGraphic" in2="BackgroundImageFix" result="shape"/>
<feColorMatrix in="SourceAlpha" type="matrix" values="0 0 0 0 0 0 0 0 0 0 0 0 0 0 0 0 0 0 127 0" result="hardAlpha"/>
<feOffset dy="4"/>
<feGaussianBlur stdDeviation="2"/>
<feComposite in2="hardAlpha" operator="arithmetic" k2="-1" k3="1"/>
<feColorMatrix type="matrix" values="0 0 0 0 0 0 0 0 0 0 0 0 0 0 0 0 0 0 0.25 0"/>
<feBlend mode="normal" in2="shape" result="effect1_innerShadow_31_2759"/>
</filter>
<filter id="filter1_d_31_2759" x="15.2801" y="16.5409" width="65.442" height="66.8901" filterUnits="userSpaceOnUse" color-interpolation-filters="sRGB">
<feFlood flood-opacity="0" result="BackgroundImageFix"/>
<feColorMatrix in="SourceAlpha" type="matrix" values="0 0 0 0 0 0 0 0 0 0 0 0 0 0 0 0 0 0 127 0" result="hardAlpha"/>
<feOffset dy="2"/>
<feGaussianBlur stdDeviation="2"/>
<feComposite in2="hardAlpha" operator="out"/>
<feColorMatrix type="matrix" values="0 0 0 0 0 0 0 0 0 0 0 0 0 0 0 0 0 0 0.25 0"/>
<feBlend mode="normal" in2="BackgroundImageFix" result="effect1_dropShadow_31_2759"/>
<feBlend mode="normal" in="SourceGraphic" in2="effect1_dropShadow_31_2759" result="shape"/>
</filter>
<linearGradient id="paint0_linear_31_2759" x1="96" y1="0" x2="3.16377" y2="98.9677" gradientUnits="userSpaceOnUse">
<stop offset="0.169646" stop-color="#FF8B16"/>
<stop offset="0.35725" stop-color="#FF672A"/>
<stop offset="0.597842" stop-color="#FF3647"/>
<stop offset="0.825545" stop-color="#E31587"/>
</linearGradient>
<linearGradient id="paint1_linear_31_2759" x1="70.8391" y1="27.6656" x2="23.4226" y2="73.7399" gradientUnits="userSpaceOnUse">
<stop offset="0.048" stop-color="#FFF44F"/>
<stop offset="0.111" stop-color="#FFE847"/>
<stop offset="0.225" stop-color="#FFC830"/>
<stop offset="0.368" stop-color="#FF980E"/>
<stop offset="0.401" stop-color="#FF8B16"/>
<stop offset="0.462" stop-color="#FF672A"/>
<stop offset="0.534" stop-color="#FF3647"/>
<stop offset="0.705" stop-color="#E31587"/>
</linearGradient>
<radialGradient id="paint2_radial_31_2759" cx="0" cy="0" r="1" gradientUnits="userSpaceOnUse" gradientTransform="translate(68.9914 25.171) scale(59.954 59.5306)">
<stop offset="0.129" stop-color="#FFBD4F"/>
<stop offset="0.186" stop-color="#FFAC31"/>
<stop offset="0.247" stop-color="#FF9D17"/>
<stop offset="0.283" stop-color="#FF980E"/>
<stop offset="0.403" stop-color="#FF563B"/>
<stop offset="0.467" stop-color="#FF3750"/>
<stop offset="0.71" stop-color="#F5156C"/>
<stop offset="0.782" stop-color="#EB0878"/>
<stop offset="0.86" stop-color="#E50080"/>
</radialGradient>
<clipPath id="clip0_31_2759">
<rect width="96" height="96" fill="white"/>
</clipPath>
</defs>
</svg>
