<svg width="96" height="96" viewBox="0 0 96 96" fill="none" xmlns="http://www.w3.org/2000/svg">
<g clip-path="url(#clip0_31_2784)">
<path d="M72 0H24C10.7452 0 0 10.7452 0 24V72C0 85.2548 10.7452 96 24 96H72C85.2548 96 96 85.2548 96 72V24C96 10.7452 85.2548 0 72 0Z" fill="url(#paint0_linear_31_2784)"/>
<path d="M72 0H24C10.7452 0 0 10.7452 0 24V72C0 85.2548 10.7452 96 24 96H72C85.2548 96 96 85.2548 96 72V24C96 10.7452 85.2548 0 72 0Z" fill="url(#paint1_linear_31_2784)"/>
<g filter="url(#filter0_i_31_2784)">
<path d="M72 6H24C14.0589 6 6 14.0589 6 24V72C6 81.9411 14.0589 90 24 90H72C81.9411 90 90 81.9411 90 72V24C90 14.0589 81.9411 6 72 6Z" fill="black" fill-opacity="0.7"/>
<mask id="mask0_31_2784" style="mask-type:luminance" maskUnits="userSpaceOnUse" x="12" y="12" width="72" height="72">
<path d="M84 12H12V84H84V12Z" fill="white"/>
</mask>
<g mask="url(#mask0_31_2784)">
<path fill-rule="evenodd" clip-rule="evenodd" d="M74.0625 59.9062C74.0625 61.4698 73.3544 63.018 71.9787 64.4626C70.603 65.9071 68.5865 67.2197 66.0446 68.3252C63.5026 69.4308 60.4847 70.3079 57.1634 70.9062C53.8422 71.5045 50.2824 71.8125 46.6875 71.8125C43.0926 71.8125 39.5328 71.5045 36.2116 70.9062C32.8903 70.3079 29.8724 69.4308 27.3305 68.3252C24.7885 67.2197 22.772 65.9071 21.3963 64.4626C20.0206 63.018 19.3125 61.4698 19.3125 59.9062C19.3125 58.3426 20.0206 56.7944 21.3963 55.3499C22.772 53.9053 24.7885 52.5928 27.3305 51.4873C29.8724 50.3816 32.8903 49.5046 36.2116 48.9063C39.5328 48.3079 43.0926 48 46.6875 48C50.2824 48 53.8422 48.3079 57.1634 48.9063C60.4847 49.5046 63.5026 50.3816 66.0446 51.4873C68.5865 52.5928 70.603 53.9053 71.9787 55.3499C73.3544 56.7944 74.0625 58.3426 74.0625 59.9062Z" fill="url(#paint2_radial_31_2784)"/>
<path fill-rule="evenodd" clip-rule="evenodd" d="M27.5616 30.7018C27.5616 30.7018 31.8734 39.5932 41.9605 39.3424C63.0993 38.8121 66.8061 27.785 67.3364 26.194C67.8667 24.603 68.6781 24.844 68.8658 26.3144C75.7598 88.893 21.0204 62.0431 19.0764 51.3847C29.9481 48.2027 27.2964 42.1039 27.2964 42.1039L27.5616 30.7018Z" fill="#857C63" stroke="#2E3436" stroke-width="2" stroke-miterlimit="10"/>
<path fill-rule="evenodd" clip-rule="evenodd" d="M35.6071 57.0991C45.7154 59.1209 50.8631 57.2462 53.8758 54.9199C53.0803 53.8924 51.7213 52.7654 51.7213 52.7654C51.7213 52.7654 55.2513 53.7464 56.4943 55.3508C57.7337 56.9507 56.9545 57.9364 56.6302 59.9834C55.9081 58.1855 54.5602 57.5112 54.3777 56.7968C51.6683 60.5423 44.918 60.3866 35.6071 57.0991Z" fill="url(#paint3_linear_31_2784)"/>
<path fill-rule="evenodd" clip-rule="evenodd" d="M38.5663 44.0926C38.5664 44.8937 38.4089 45.6869 38.1025 46.427C37.796 47.1672 37.3469 47.8396 36.7805 48.4062C36.2141 48.9727 35.5418 49.422 34.8017 49.7286C34.0617 50.0352 33.2685 50.193 32.4674 50.193C31.6664 50.193 30.8732 50.0352 30.1332 49.7286C29.3932 49.422 28.7207 48.9727 28.1544 48.4062C27.5881 47.8396 27.1389 47.1672 26.8325 46.427C26.5261 45.6869 26.3684 44.8937 26.3687 44.0926C26.3684 43.2916 26.5261 42.4984 26.8325 41.7583C27.1389 41.0182 27.5881 40.3456 28.1544 39.7792C28.7207 39.2127 29.3932 38.7633 30.1332 38.4568C30.8732 38.1502 31.6664 37.9924 32.4674 37.9924C33.2685 37.9924 34.0617 38.1502 34.8017 38.4568C35.5418 38.7633 36.2141 39.2127 36.7805 39.7792C37.3469 40.3456 37.796 41.0182 38.1025 41.7583C38.4089 42.4984 38.5664 43.2916 38.5663 44.0926Z" fill="#DBDBD7" stroke="#888A85" stroke-width="2" stroke-miterlimit="10"/>
<path fill-rule="evenodd" clip-rule="evenodd" d="M26.417 46.3905C27.8365 48.3582 28.6428 50.6457 28.6585 52.7498C28.6742 54.854 27.8981 56.6024 26.5007 57.6105C25.1034 58.6186 23.1994 58.8037 21.2076 58.1252C19.2158 57.4466 17.2994 55.9601 15.8798 53.9924C14.4603 52.0247 13.654 49.7372 13.6382 47.633C13.6226 45.5289 14.3987 43.7805 15.7961 42.7724C17.1934 41.7644 19.0974 41.5792 21.0892 42.2577C23.081 42.9362 24.9974 44.4229 26.417 46.3905Z" fill="url(#paint4_radial_31_2784)" stroke="black" stroke-width="2" stroke-miterlimit="10"/>
<path fill-rule="evenodd" clip-rule="evenodd" d="M36.8298 44.9961C36.8299 45.3819 36.754 45.7638 36.6065 46.1202C36.459 46.4765 36.2428 46.8003 35.9701 47.0731C35.6974 47.3459 35.3736 47.5623 35.0173 47.7099C34.6609 47.8575 34.279 47.9335 33.8934 47.9335C33.5077 47.9335 33.1258 47.8575 32.7694 47.7099C32.4131 47.5623 32.0893 47.3459 31.8166 47.0731C31.5439 46.8003 31.3277 46.4765 31.1802 46.1202C31.0327 45.7638 30.9568 45.3819 30.9569 44.9961C30.9568 44.6105 31.0327 44.2285 31.1802 43.8722C31.3277 43.5158 31.5439 43.1919 31.8166 42.9192C32.0893 42.6465 32.4131 42.4301 32.7694 42.2824C33.1258 42.1348 33.5077 42.0588 33.8934 42.0588C34.279 42.0588 34.6609 42.1348 35.0173 42.2824C35.3736 42.4301 35.6974 42.6465 35.9701 42.9192C36.2428 43.1919 36.459 43.5158 36.6065 43.8722C36.754 44.2285 36.8299 44.6105 36.8298 44.9961Z" fill="#2E3436" stroke="black" stroke-width="2" stroke-miterlimit="10"/>
<path opacity="0.280899" fill-rule="evenodd" clip-rule="evenodd" d="M16.3279 44.1125C15.3696 44.8303 14.8645 46.0448 14.91 47.6928C14.9555 49.3409 15.6059 51.3587 16.9408 53.1411C18.2758 54.9234 20.0293 56.1151 21.598 56.6222C23.1667 57.1294 24.4742 56.9862 25.4326 56.2684C26.3909 55.5506 26.8978 54.2781 26.86 52.6224C26.822 50.9668 26.1892 48.9903 24.8572 47.2118C23.5252 45.4334 21.8064 44.2702 20.2282 43.7682C18.65 43.2661 17.2863 43.3948 16.3279 44.1125Z" stroke="url(#paint5_linear_31_2784)" stroke-width="2" stroke-miterlimit="10"/>
<path fill-rule="evenodd" clip-rule="evenodd" d="M20.7508 46.8769C20.7509 47.2948 20.6824 47.7087 20.5492 48.0948C20.4159 48.481 20.2206 48.8318 19.9744 49.1274C19.7281 49.423 19.4358 49.6574 19.114 49.8173C18.7923 49.9773 18.4474 50.0596 18.0991 50.0596C17.7509 50.0596 17.406 49.9773 17.0842 49.8173C16.7625 49.6574 16.4701 49.423 16.2239 49.1274C15.9777 48.8318 15.7824 48.481 15.6492 48.0948C15.5159 47.7087 15.4474 47.2948 15.4475 46.8769C15.4474 46.459 15.5159 46.0451 15.6492 45.6589C15.7824 45.2728 15.9777 44.9219 16.2239 44.6264C16.4701 44.3308 16.7625 44.0964 17.0842 43.9364C17.406 43.7765 17.7509 43.6942 18.0991 43.6942C18.4474 43.6942 18.7923 43.7765 19.114 43.9364C19.4358 44.0964 19.7281 44.3308 19.9744 44.6264C20.2206 44.9219 20.4159 45.2728 20.5492 45.6589C20.6824 46.0451 20.7509 46.459 20.7508 46.8769Z" fill="white"/>
<path fill-rule="evenodd" clip-rule="evenodd" d="M34.7969 43.6408C34.7969 44.18 34.5827 44.6971 34.2014 45.0784C33.8201 45.4596 33.3031 45.6738 32.7639 45.6738C32.2247 45.6738 31.7076 45.4596 31.3264 45.0784C30.9452 44.6971 30.731 44.18 30.731 43.6408C30.731 43.1017 30.9452 42.5846 31.3264 42.2034C31.7076 41.8221 32.2247 41.608 32.7639 41.608C33.3031 41.608 33.8201 41.8221 34.2014 42.2034C34.5827 42.5846 34.7969 43.1017 34.7969 43.6408Z" fill="white"/>
<path fill-rule="evenodd" clip-rule="evenodd" d="M52.2221 44.7556C52.2223 45.6959 52.0373 46.6271 51.6776 47.4959C51.3179 48.3648 50.7907 49.1543 50.1258 49.8192C49.4609 50.4842 48.6716 51.0118 47.8029 51.3717C46.9341 51.7316 46.003 51.9168 45.0626 51.9168C44.1223 51.9168 43.1912 51.7316 42.3224 51.3717C41.4537 51.0118 40.6644 50.4842 39.9995 49.8192C39.3346 49.1543 38.8074 48.3648 38.4477 47.4959C38.088 46.6271 37.903 45.6959 37.9032 44.7556C37.903 43.8152 38.088 42.884 38.4477 42.0152C38.8074 41.1464 39.3346 40.3569 39.9995 39.692C40.6644 39.0269 41.4537 38.4994 42.3224 38.1395C43.1912 37.7796 44.1223 37.5944 45.0626 37.5944C46.003 37.5944 46.9341 37.7796 47.8029 38.1395C48.6716 38.4994 49.4609 39.0269 50.1258 39.692C50.7907 40.3569 51.3179 41.1464 51.6776 42.0152C52.0373 42.884 52.2223 43.8152 52.2221 44.7556Z" fill="#DBDBD7" stroke="#888A85" stroke-width="2" stroke-miterlimit="10"/>
<path fill-rule="evenodd" clip-rule="evenodd" d="M50.1841 45.8162C50.1842 46.269 50.0951 46.7174 49.922 47.1357C49.7488 47.5541 49.4949 47.9342 49.1748 48.2544C48.8547 48.5746 48.4746 48.8286 48.0563 49.0019C47.6381 49.1752 47.1897 49.2644 46.7369 49.2644C46.2842 49.2644 45.8358 49.1752 45.4175 49.0019C44.9993 48.8286 44.6192 48.5746 44.2991 48.2544C43.979 47.9342 43.7251 47.5541 43.5519 47.1357C43.3787 46.7174 43.2896 46.269 43.2898 45.8162C43.2896 45.3635 43.3787 44.9151 43.5519 44.4968C43.7251 44.0784 43.979 43.6983 44.2991 43.3781C44.6192 43.0579 44.9993 42.8039 45.4175 42.6305C45.8358 42.4573 46.2842 42.3681 46.7369 42.3681C47.1897 42.3681 47.6381 42.4573 48.0563 42.6305C48.4746 42.8039 48.8547 43.0579 49.1748 43.3781C49.4949 43.6983 49.7488 44.0784 49.922 44.4968C50.0951 44.9151 50.1842 45.3635 50.1841 45.8162Z" fill="#2E3436" stroke="black" stroke-width="2" stroke-miterlimit="10"/>
<path fill-rule="evenodd" clip-rule="evenodd" d="M47.7977 44.2252C47.7977 44.8582 47.5462 45.4651 47.0987 45.9127C46.6511 46.3603 46.0441 46.6117 45.4112 46.6117C44.7782 46.6117 44.1712 46.3603 43.7237 45.9127C43.2761 45.4651 43.0247 44.8582 43.0247 44.2252C43.0247 43.5923 43.2761 42.9853 43.7237 42.5377C44.1712 42.0901 44.7782 41.8387 45.4112 41.8387C46.0441 41.8387 46.6511 42.0901 47.0987 42.5377C47.5462 42.9853 47.7977 43.5923 47.7977 44.2252Z" fill="white"/>
<path d="M66.8803 66.1371L68.2699 63.3698C63.1004 59.5878 53.5709 56.8359 53.5709 56.8359C51.9191 56.0665 51.3977 57.5504 52.5416 58.515C52.5416 58.515 60.6912 64.3575 66.8803 66.1371Z" fill="url(#paint6_linear_31_2784)" stroke="#673907" stroke-width="2" stroke-linecap="round"/>
<path d="M73.508 68.6879L74.2518 67.0412L68.4805 63.3437L68.0204 63.3045L67.8214 62.6676C66.9831 63.1926 65.7648 65.1429 66.0878 66.2394L66.7111 66.0037L67.0488 66.33L73.508 68.6879Z" fill="url(#paint7_linear_31_2784)" stroke="#888A85" stroke-width="2" stroke-linecap="round"/>
<path d="M69.7678 65.5644L73.5996 67.2097" stroke="white" stroke-width="2" stroke-linecap="round" stroke-linejoin="round"/>
<path d="M81.8955 75.681C80.0963 69.5736 79.458 64.7242 74.7559 65.1557C70.9667 65.5035 70.7014 70.9328 74.617 72.431C78.3893 73.8742 81.8955 75.681 81.8955 75.681Z" fill="url(#paint8_radial_31_2784)"/>
<path opacity="0.527778" d="M75.0375 65.6505C75.2362 65.5919 75.4447 65.573 75.6502 65.595C75.8565 65.6169 76.056 65.6792 76.2382 65.7783C76.4205 65.8774 76.581 66.0114 76.7107 66.1726C76.8412 66.3338 76.938 66.519 76.9965 66.7178C77.055 66.9165 77.0745 67.1249 77.052 67.3308C77.0302 67.5368 76.968 67.7365 76.869 67.9184C76.7692 68.1003 76.6357 68.261 76.4745 68.3911C76.3132 68.5211 76.128 68.6183 75.9292 68.6768C75.7305 68.7353 75.522 68.7542 75.3157 68.7323C75.1102 68.7104 74.9103 68.6481 74.7283 68.549C74.5464 68.4499 74.3857 68.3159 74.2556 68.1547C74.1254 67.9935 74.0283 67.8083 73.9698 67.6095C73.9112 67.4108 73.8924 67.2025 73.9144 66.9965C73.9363 66.7904 73.9987 66.5908 74.0979 66.4088C74.197 66.227 74.3311 66.0663 74.4922 65.9362C74.6535 65.8061 74.8388 65.709 75.0375 65.6505Z" fill="white"/>
<path d="M68.1599 63.4059C68.294 63.3663 68.4346 63.3536 68.5736 63.3684C68.7126 63.3832 68.8474 63.4252 68.9702 63.4921C69.0929 63.559 69.2013 63.6494 69.2891 63.7581C69.377 63.8669 69.4424 63.9919 69.482 64.126C69.5215 64.2601 69.5342 64.4006 69.5193 64.5397C69.5045 64.6787 69.4625 64.8133 69.3956 64.9361C69.3287 65.0589 69.2382 65.1672 69.1294 65.255C69.0206 65.3428 68.8956 65.4083 68.7615 65.4478C68.6274 65.4873 68.4869 65.5 68.3478 65.4853C68.2088 65.4705 68.0741 65.4284 67.9513 65.3616C67.8286 65.2947 67.7201 65.2043 67.6323 65.0956C67.5445 64.9867 67.479 64.8618 67.4395 64.7277C67.4 64.5936 67.3873 64.453 67.4021 64.314C67.4169 64.175 67.459 64.0402 67.5259 63.9175C67.5928 63.7948 67.6832 63.6864 67.7921 63.5987C67.9008 63.5108 68.0258 63.4453 68.1599 63.4059Z" fill="white"/>
<path opacity="0.427778" d="M79.6365 72.0266C79.6365 72.0266 79.05 69.834 77.757 68.6929C77.2988 68.2892 77.8755 67.6945 78.3075 68.2168C79.2405 69.3449 79.6365 72.0266 79.6365 72.0266Z" fill="url(#paint9_linear_31_2784)"/>
<path fill-rule="evenodd" clip-rule="evenodd" d="M46.5048 59.6048C48.7509 59.8195 50.7792 59.1964 51.6226 58.8937C51.77 58.0606 52.4274 56.4619 54.6918 56.3565L53.8962 54.9644C53.8962 54.9644 50.9463 56.9863 47.7975 57.5829L46.5048 59.6048Z" fill="url(#paint10_linear_31_2784)"/>
</g>
</g>
</g>
<defs>
<filter id="filter0_i_31_2784" x="6" y="6" width="84" height="88" filterUnits="userSpaceOnUse" color-interpolation-filters="sRGB">
<feFlood flood-opacity="0" result="BackgroundImageFix"/>
<feBlend mode="normal" in="SourceGraphic" in2="BackgroundImageFix" result="shape"/>
<feColorMatrix in="SourceAlpha" type="matrix" values="0 0 0 0 0 0 0 0 0 0 0 0 0 0 0 0 0 0 127 0" result="hardAlpha"/>
<feOffset dy="4"/>
<feGaussianBlur stdDeviation="2"/>
<feComposite in2="hardAlpha" operator="arithmetic" k2="-1" k3="1"/>
<feColorMatrix type="matrix" values="0 0 0 0 0 0 0 0 0 0 0 0 0 0 0 0 0 0 0.25 0"/>
<feBlend mode="normal" in2="shape" result="effect1_innerShadow_31_2784"/>
</filter>
<linearGradient id="paint0_linear_31_2784" x1="47.7081" y1="96.0735" x2="47.7081" y2="-0.0621777" gradientUnits="userSpaceOnUse">
<stop stop-color="#2CA0B9"/>
<stop offset="1" stop-color="#87DEAA"/>
</linearGradient>
<linearGradient id="paint1_linear_31_2784" x1="48" y1="0" x2="48" y2="96" gradientUnits="userSpaceOnUse">
<stop stop-color="#857C63"/>
<stop offset="1" stop-color="#3E382D"/>
</linearGradient>
<radialGradient id="paint2_radial_31_2784" cx="0" cy="0" r="1" gradientUnits="userSpaceOnUse" gradientTransform="translate(46.6875 59.9062) scale(27.375 11.9062)">
<stop/>
<stop offset="1" stop-opacity="0"/>
</radialGradient>
<linearGradient id="paint3_linear_31_2784" x1="54.7708" y1="54.644" x2="38.0653" y2="57.9586" gradientUnits="userSpaceOnUse">
<stop/>
<stop offset="1" stop-opacity="0"/>
</linearGradient>
<radialGradient id="paint4_radial_31_2784" cx="0" cy="0" r="1" gradientUnits="userSpaceOnUse" gradientTransform="translate(18.7109 47.0039) rotate(-30) scale(6.67325 7.78875)">
<stop stop-color="#5B676B"/>
<stop offset="1" stop-color="#141718"/>
</radialGradient>
<linearGradient id="paint5_linear_31_2784" x1="17.6664" y1="45.3706" x2="24.662" y2="55.5127" gradientUnits="userSpaceOnUse">
<stop stop-color="white"/>
<stop offset="1" stop-color="white" stop-opacity="0"/>
</linearGradient>
<linearGradient id="paint6_linear_31_2784" x1="63.5388" y1="60.0816" x2="60.4228" y2="66.8871" gradientUnits="userSpaceOnUse">
<stop stop-color="#6E3D09"/>
<stop offset="0.242424" stop-color="#EA8113"/>
<stop offset="0.621212" stop-color="#5C3307"/>
<stop offset="1" stop-color="#E07C12"/>
</linearGradient>
<linearGradient id="paint7_linear_31_2784" x1="70.2167" y1="67.4728" x2="71.5869" y2="64.7084" gradientUnits="userSpaceOnUse">
<stop stop-color="#BDBDBD"/>
<stop offset="0.333333" stop-color="#E2E2E2"/>
<stop offset="0.666667" stop-color="#A3A3A3"/>
<stop offset="1" stop-color="#DDDDDD"/>
</linearGradient>
<radialGradient id="paint8_radial_31_2784" cx="0" cy="0" r="1" gradientUnits="userSpaceOnUse" gradientTransform="translate(73.6335 69.0791) rotate(-106.415) scale(7.26677 7.08169)">
<stop stop-color="#696969"/>
<stop offset="1"/>
</radialGradient>
<linearGradient id="paint9_linear_31_2784" x1="77.9355" y1="67.6281" x2="79.6905" y2="70.8807" gradientUnits="userSpaceOnUse">
<stop stop-color="white"/>
<stop offset="1" stop-color="white" stop-opacity="0"/>
</linearGradient>
<linearGradient id="paint10_linear_31_2784" x1="51.2446" y1="57.8149" x2="48.4935" y2="58.4779" gradientUnits="userSpaceOnUse">
<stop/>
<stop offset="1" stop-opacity="0"/>
</linearGradient>
<clipPath id="clip0_31_2784">
<rect width="96" height="96" fill="white"/>
</clipPath>
</defs>
</svg>
