<svg width="96" height="96" viewBox="0 0 96 96" fill="none" xmlns="http://www.w3.org/2000/svg">
<g clip-path="url(#clip0_31_2855)">
<path d="M72 0H24C10.7452 0 0 10.7452 0 24V72C0 85.2548 10.7452 96 24 96H72C85.2548 96 96 85.2548 96 72V24C96 10.7452 85.2548 0 72 0Z" fill="#FF0045"/>
<path d="M72 0H24C10.7452 0 0 10.7452 0 24V72C0 85.2548 10.7452 96 24 96H72C85.2548 96 96 85.2548 96 72V24C96 10.7452 85.2548 0 72 0Z" fill="url(#paint0_radial_31_2855)"/>
<path d="M72 0H24C10.7452 0 0 10.7452 0 24V72C0 85.2548 10.7452 96 24 96H72C85.2548 96 96 85.2548 96 72V24C96 10.7452 85.2548 0 72 0Z" fill="url(#paint1_radial_31_2855)"/>
<g filter="url(#filter0_i_31_2855)">
<path d="M72 6H24C14.0589 6 6 14.0589 6 24V72C6 81.9411 14.0589 90 24 90H72C81.9411 90 90 81.9411 90 72V24C90 14.0589 81.9411 6 72 6Z" fill="black" fill-opacity="0.7"/>
<mask id="mask0_31_2855" style="mask-type:luminance" maskUnits="userSpaceOnUse" x="18" y="18" width="60" height="60">
<path d="M78 18H18V78H78V18Z" fill="white"/>
</mask>
<g mask="url(#mask0_31_2855)">
<g filter="url(#filter1_d_31_2855)">
<path d="M48 23.4075C56.01 23.4075 56.96 23.4375 60.125 23.5825C68.255 23.9525 72.0525 27.81 72.4225 35.88C72.5675 39.0425 72.595 39.9925 72.595 48.0025C72.595 56.015 72.565 56.9625 72.4225 60.125C72.05 68.1875 68.2625 72.0525 60.125 72.4225C56.96 72.5675 56.015 72.5975 48 72.5975C39.99 72.5975 39.04 72.5675 35.8775 72.4225C27.7275 72.05 23.95 68.175 23.58 60.1225C23.435 56.96 23.405 56.0125 23.405 48C23.405 39.99 23.4375 39.0425 23.58 35.8775C23.9525 27.81 27.74 23.95 35.8775 23.58C39.0425 23.4375 39.99 23.4075 48 23.4075ZM48 18C39.8525 18 38.8325 18.035 35.6325 18.18C24.7375 18.68 18.6825 24.725 18.1825 35.63C18.035 38.8325 18 39.8525 18 48C18 56.1475 18.035 57.17 18.18 60.37C18.68 71.265 24.725 77.3198 35.63 77.82C38.8325 77.9648 39.8525 78 48 78C56.1475 78 57.17 77.9648 60.37 77.82C71.255 77.3198 77.325 71.275 77.8178 60.37C77.9648 57.17 78 56.1475 78 48C78 39.8525 77.9648 38.8325 77.82 35.6325C77.3303 24.7475 71.2775 18.6825 60.3725 18.1825C57.17 18.035 56.1475 18 48 18ZM48 32.595C39.4925 32.595 32.595 39.4925 32.595 48C32.595 56.5075 39.4925 63.4075 48 63.4075C56.5075 63.4075 63.405 56.51 63.405 48C63.405 39.4925 56.5075 32.595 48 32.595ZM48 58C42.4775 58 38 53.525 38 48C38 42.4775 42.4775 38 48 38C53.5225 38 58 42.4775 58 48C58 53.525 53.5225 58 48 58ZM64.015 28.3875C62.025 28.3875 60.4125 30 60.4125 31.9875C60.4125 33.975 62.025 35.5875 64.015 35.5875C66.0025 35.5875 67.6125 33.975 67.6125 31.9875C67.6125 30 66.0025 28.3875 64.015 28.3875Z" fill="white"/>
<path d="M48 23.4075C56.01 23.4075 56.96 23.4375 60.125 23.5825C68.255 23.9525 72.0525 27.81 72.4225 35.88C72.5675 39.0425 72.595 39.9925 72.595 48.0025C72.595 56.015 72.565 56.9625 72.4225 60.125C72.05 68.1875 68.2625 72.0525 60.125 72.4225C56.96 72.5675 56.015 72.5975 48 72.5975C39.99 72.5975 39.04 72.5675 35.8775 72.4225C27.7275 72.05 23.95 68.175 23.58 60.1225C23.435 56.96 23.405 56.0125 23.405 48C23.405 39.99 23.4375 39.0425 23.58 35.8775C23.9525 27.81 27.74 23.95 35.8775 23.58C39.0425 23.4375 39.99 23.4075 48 23.4075ZM48 18C39.8525 18 38.8325 18.035 35.6325 18.18C24.7375 18.68 18.6825 24.725 18.1825 35.63C18.035 38.8325 18 39.8525 18 48C18 56.1475 18.035 57.17 18.18 60.37C18.68 71.265 24.725 77.3198 35.63 77.82C38.8325 77.9648 39.8525 78 48 78C56.1475 78 57.17 77.9648 60.37 77.82C71.255 77.3198 77.325 71.275 77.8178 60.37C77.9648 57.17 78 56.1475 78 48C78 39.8525 77.9648 38.8325 77.82 35.6325C77.3303 24.7475 71.2775 18.6825 60.3725 18.1825C57.17 18.035 56.1475 18 48 18ZM48 32.595C39.4925 32.595 32.595 39.4925 32.595 48C32.595 56.5075 39.4925 63.4075 48 63.4075C56.5075 63.4075 63.405 56.51 63.405 48C63.405 39.4925 56.5075 32.595 48 32.595ZM48 58C42.4775 58 38 53.525 38 48C38 42.4775 42.4775 38 48 38C53.5225 38 58 42.4775 58 48C58 53.525 53.5225 58 48 58ZM64.015 28.3875C62.025 28.3875 60.4125 30 60.4125 31.9875C60.4125 33.975 62.025 35.5875 64.015 35.5875C66.0025 35.5875 67.6125 33.975 67.6125 31.9875C67.6125 30 66.0025 28.3875 64.015 28.3875Z" fill="#FF0045"/>
<path d="M48 23.4075C56.01 23.4075 56.96 23.4375 60.125 23.5825C68.255 23.9525 72.0525 27.81 72.4225 35.88C72.5675 39.0425 72.595 39.9925 72.595 48.0025C72.595 56.015 72.565 56.9625 72.4225 60.125C72.05 68.1875 68.2625 72.0525 60.125 72.4225C56.96 72.5675 56.015 72.5975 48 72.5975C39.99 72.5975 39.04 72.5675 35.8775 72.4225C27.7275 72.05 23.95 68.175 23.58 60.1225C23.435 56.96 23.405 56.0125 23.405 48C23.405 39.99 23.4375 39.0425 23.58 35.8775C23.9525 27.81 27.74 23.95 35.8775 23.58C39.0425 23.4375 39.99 23.4075 48 23.4075ZM48 18C39.8525 18 38.8325 18.035 35.6325 18.18C24.7375 18.68 18.6825 24.725 18.1825 35.63C18.035 38.8325 18 39.8525 18 48C18 56.1475 18.035 57.17 18.18 60.37C18.68 71.265 24.725 77.3198 35.63 77.82C38.8325 77.9648 39.8525 78 48 78C56.1475 78 57.17 77.9648 60.37 77.82C71.255 77.3198 77.325 71.275 77.8178 60.37C77.9648 57.17 78 56.1475 78 48C78 39.8525 77.9648 38.8325 77.82 35.6325C77.3303 24.7475 71.2775 18.6825 60.3725 18.1825C57.17 18.035 56.1475 18 48 18ZM48 32.595C39.4925 32.595 32.595 39.4925 32.595 48C32.595 56.5075 39.4925 63.4075 48 63.4075C56.5075 63.4075 63.405 56.51 63.405 48C63.405 39.4925 56.5075 32.595 48 32.595ZM48 58C42.4775 58 38 53.525 38 48C38 42.4775 42.4775 38 48 38C53.5225 38 58 42.4775 58 48C58 53.525 53.5225 58 48 58ZM64.015 28.3875C62.025 28.3875 60.4125 30 60.4125 31.9875C60.4125 33.975 62.025 35.5875 64.015 35.5875C66.0025 35.5875 67.6125 33.975 67.6125 31.9875C67.6125 30 66.0025 28.3875 64.015 28.3875Z" fill="url(#paint2_radial_31_2855)"/>
<path d="M48 23.4075C56.01 23.4075 56.96 23.4375 60.125 23.5825C68.255 23.9525 72.0525 27.81 72.4225 35.88C72.5675 39.0425 72.595 39.9925 72.595 48.0025C72.595 56.015 72.565 56.9625 72.4225 60.125C72.05 68.1875 68.2625 72.0525 60.125 72.4225C56.96 72.5675 56.015 72.5975 48 72.5975C39.99 72.5975 39.04 72.5675 35.8775 72.4225C27.7275 72.05 23.95 68.175 23.58 60.1225C23.435 56.96 23.405 56.0125 23.405 48C23.405 39.99 23.4375 39.0425 23.58 35.8775C23.9525 27.81 27.74 23.95 35.8775 23.58C39.0425 23.4375 39.99 23.4075 48 23.4075ZM48 18C39.8525 18 38.8325 18.035 35.6325 18.18C24.7375 18.68 18.6825 24.725 18.1825 35.63C18.035 38.8325 18 39.8525 18 48C18 56.1475 18.035 57.17 18.18 60.37C18.68 71.265 24.725 77.3198 35.63 77.82C38.8325 77.9648 39.8525 78 48 78C56.1475 78 57.17 77.9648 60.37 77.82C71.255 77.3198 77.325 71.275 77.8178 60.37C77.9648 57.17 78 56.1475 78 48C78 39.8525 77.9648 38.8325 77.82 35.6325C77.3303 24.7475 71.2775 18.6825 60.3725 18.1825C57.17 18.035 56.1475 18 48 18ZM48 32.595C39.4925 32.595 32.595 39.4925 32.595 48C32.595 56.5075 39.4925 63.4075 48 63.4075C56.5075 63.4075 63.405 56.51 63.405 48C63.405 39.4925 56.5075 32.595 48 32.595ZM48 58C42.4775 58 38 53.525 38 48C38 42.4775 42.4775 38 48 38C53.5225 38 58 42.4775 58 48C58 53.525 53.5225 58 48 58ZM64.015 28.3875C62.025 28.3875 60.4125 30 60.4125 31.9875C60.4125 33.975 62.025 35.5875 64.015 35.5875C66.0025 35.5875 67.6125 33.975 67.6125 31.9875C67.6125 30 66.0025 28.3875 64.015 28.3875Z" fill="url(#paint3_radial_31_2855)"/>
</g>
</g>
</g>
</g>
<defs>
<filter id="filter0_i_31_2855" x="6" y="6" width="84" height="88" filterUnits="userSpaceOnUse" color-interpolation-filters="sRGB">
<feFlood flood-opacity="0" result="BackgroundImageFix"/>
<feBlend mode="normal" in="SourceGraphic" in2="BackgroundImageFix" result="shape"/>
<feColorMatrix in="SourceAlpha" type="matrix" values="0 0 0 0 0 0 0 0 0 0 0 0 0 0 0 0 0 0 127 0" result="hardAlpha"/>
<feOffset dy="4"/>
<feGaussianBlur stdDeviation="2"/>
<feComposite in2="hardAlpha" operator="arithmetic" k2="-1" k3="1"/>
<feColorMatrix type="matrix" values="0 0 0 0 0 0 0 0 0 0 0 0 0 0 0 0 0 0 0.25 0"/>
<feBlend mode="normal" in2="shape" result="effect1_innerShadow_31_2855"/>
</filter>
<filter id="filter1_d_31_2855" x="14" y="16" width="68" height="68" filterUnits="userSpaceOnUse" color-interpolation-filters="sRGB">
<feFlood flood-opacity="0" result="BackgroundImageFix"/>
<feColorMatrix in="SourceAlpha" type="matrix" values="0 0 0 0 0 0 0 0 0 0 0 0 0 0 0 0 0 0 127 0" result="hardAlpha"/>
<feOffset dy="2"/>
<feGaussianBlur stdDeviation="2"/>
<feComposite in2="hardAlpha" operator="out"/>
<feColorMatrix type="matrix" values="0 0 0 0 0 0 0 0 0 0 0 0 0 0 0 0 0 0 0.25 0"/>
<feBlend mode="normal" in2="BackgroundImageFix" result="effect1_dropShadow_31_2855"/>
<feBlend mode="normal" in="SourceGraphic" in2="effect1_dropShadow_31_2855" result="shape"/>
</filter>
<radialGradient id="paint0_radial_31_2855" cx="0" cy="0" r="1" gradientUnits="userSpaceOnUse" gradientTransform="translate(96) rotate(135) scale(135.764)">
<stop stop-color="#B000FF"/>
<stop offset="1" stop-color="#DFDFDF" stop-opacity="0"/>
</radialGradient>
<radialGradient id="paint1_radial_31_2855" cx="0" cy="0" r="1" gradientUnits="userSpaceOnUse" gradientTransform="translate(-2.86101e-06 96) rotate(-63.4349) scale(107.331)">
<stop stop-color="#FFB000"/>
<stop offset="1" stop-color="#DFDFDF" stop-opacity="0"/>
</radialGradient>
<radialGradient id="paint2_radial_31_2855" cx="0" cy="0" r="1" gradientUnits="userSpaceOnUse" gradientTransform="translate(78 18) rotate(135) scale(84.8528)">
<stop stop-color="#B000FF"/>
<stop offset="1" stop-color="#DFDFDF" stop-opacity="0"/>
</radialGradient>
<radialGradient id="paint3_radial_31_2855" cx="0" cy="0" r="1" gradientUnits="userSpaceOnUse" gradientTransform="translate(18 78) rotate(-63.4349) scale(67.082)">
<stop stop-color="#FFB000"/>
<stop offset="1" stop-color="#DFDFDF" stop-opacity="0"/>
</radialGradient>
<clipPath id="clip0_31_2855">
<rect width="96" height="96" fill="white"/>
</clipPath>
</defs>
</svg>
