<svg width="96" height="96" viewBox="0 0 96 96" fill="none" xmlns="http://www.w3.org/2000/svg">
<g clip-path="url(#clip0_31_2878)">
<path d="M72 0H24C10.7452 0 0 10.7452 0 24V72C0 85.2548 10.7452 96 24 96H72C85.2548 96 96 85.2548 96 72V24C96 10.7452 85.2548 0 72 0Z" fill="url(#paint0_linear_31_2878)"/>
<g filter="url(#filter0_i_31_2878)">
<path d="M72 6H24C14.0589 6 6 14.0589 6 24V72C6 81.9411 14.0589 90 24 90H72C81.9411 90 90 81.9411 90 72V24C90 14.0589 81.9411 6 72 6Z" fill="black" fill-opacity="0.7"/>
<mask id="mask0_31_2878" style="mask-type:luminance" maskUnits="userSpaceOnUse" x="12" y="12" width="72" height="72">
<path d="M84 12H12V84H84V12Z" fill="white"/>
</mask>
<g mask="url(#mask0_31_2878)">
<path d="M25.2136 61.5154L15.5314 53.8697L21.2296 43.3166L29.7942 46.1829L25.2136 61.5154Z" fill="#FC801D"/>
<g filter="url(#filter1_d_31_2878)">
<path d="M80.619 32.6332L79.4333 70.7589L54.0754 80.9145L40.2651 72L80.619 32.6332Z" fill="#087CFA"/>
</g>
<g filter="url(#filter2_d_31_2878)">
<path d="M80.6197 32.6332L68.0708 44.8732L51.9565 25.104L59.9108 16.1623L80.6197 32.6332Z" fill="#7557B2"/>
</g>
<g filter="url(#filter3_d_31_2878)">
<path fill-rule="evenodd" clip-rule="evenodd" d="M14.7909 41.1634L29.7943 46.1829L68.0709 44.8731L45.8674 17.6298L24.3223 15.0858L14.7909 41.1634Z" fill="url(#paint1_linear_31_2878)"/>
</g>
<g filter="url(#filter4_d_31_2878)">
<path d="M20.0984 79.2893L40.2652 72L68.0709 44.8731L29.7944 46.1828L24.3224 64.4983L20.0984 79.2893Z" fill="#FF318C"/>
</g>
<g filter="url(#filter5_d_31_2878)">
<path d="M27.4286 27.4286H68.5715V68.5715H27.4286V27.4286Z" fill="black"/>
</g>
<path d="M32.5577 60.7954H47.9863V63.3669H32.5577V60.7954Z" fill="white"/>
<path d="M40.2584 35.3967V32.5852H32.5852V35.3967H34.7384V45.1064H32.5852V47.9178H40.2584V45.1064H38.1121V35.3967H40.2584Z" fill="white"/>
<path d="M47.6161 48.1372C46.5704 48.171 45.5336 47.9348 44.6058 47.4515C43.8436 47.0411 43.1646 46.4923 42.6035 45.8332L44.7223 43.4675C45.1095 43.9043 45.5575 44.283 46.0526 44.592C46.4951 44.8663 47.0064 45.009 47.527 45.0035C47.8053 45.0168 48.0833 44.9705 48.3424 44.8676C48.6013 44.7647 48.8353 44.6076 49.0286 44.4069C49.4417 43.8484 49.6367 43.1584 49.5772 42.4663V32.5715H53.0058V42.6172C53.0211 43.4308 52.8934 44.2408 52.6286 45.0103C52.4032 45.65 52.0345 46.2296 51.5509 46.7049C51.0672 47.1803 50.4812 47.5388 49.8378 47.7532C49.1071 48.0005 48.3394 48.1211 47.5681 48.1097" fill="white"/>
</g>
</g>
</g>
<defs>
<filter id="filter0_i_31_2878" x="6" y="6" width="84" height="88" filterUnits="userSpaceOnUse" color-interpolation-filters="sRGB">
<feFlood flood-opacity="0" result="BackgroundImageFix"/>
<feBlend mode="normal" in="SourceGraphic" in2="BackgroundImageFix" result="shape"/>
<feColorMatrix in="SourceAlpha" type="matrix" values="0 0 0 0 0 0 0 0 0 0 0 0 0 0 0 0 0 0 127 0" result="hardAlpha"/>
<feOffset dy="4"/>
<feGaussianBlur stdDeviation="2"/>
<feComposite in2="hardAlpha" operator="arithmetic" k2="-1" k3="1"/>
<feColorMatrix type="matrix" values="0 0 0 0 0 0 0 0 0 0 0 0 0 0 0 0 0 0 0.25 0"/>
<feBlend mode="normal" in2="shape" result="effect1_innerShadow_31_2878"/>
</filter>
<filter id="filter1_d_31_2878" x="36.2651" y="30.6332" width="48.3539" height="56.2813" filterUnits="userSpaceOnUse" color-interpolation-filters="sRGB">
<feFlood flood-opacity="0" result="BackgroundImageFix"/>
<feColorMatrix in="SourceAlpha" type="matrix" values="0 0 0 0 0 0 0 0 0 0 0 0 0 0 0 0 0 0 127 0" result="hardAlpha"/>
<feOffset dy="2"/>
<feGaussianBlur stdDeviation="2"/>
<feComposite in2="hardAlpha" operator="out"/>
<feColorMatrix type="matrix" values="0 0 0 0 0 0 0 0 0 0 0 0 0 0 0 0 0 0 0.25 0"/>
<feBlend mode="normal" in2="BackgroundImageFix" result="effect1_dropShadow_31_2878"/>
<feBlend mode="normal" in="SourceGraphic" in2="effect1_dropShadow_31_2878" result="shape"/>
</filter>
<filter id="filter2_d_31_2878" x="47.9565" y="14.1623" width="36.6632" height="36.7109" filterUnits="userSpaceOnUse" color-interpolation-filters="sRGB">
<feFlood flood-opacity="0" result="BackgroundImageFix"/>
<feColorMatrix in="SourceAlpha" type="matrix" values="0 0 0 0 0 0 0 0 0 0 0 0 0 0 0 0 0 0 127 0" result="hardAlpha"/>
<feOffset dy="2"/>
<feGaussianBlur stdDeviation="2"/>
<feComposite in2="hardAlpha" operator="out"/>
<feColorMatrix type="matrix" values="0 0 0 0 0 0 0 0 0 0 0 0 0 0 0 0 0 0 0.25 0"/>
<feBlend mode="normal" in2="BackgroundImageFix" result="effect1_dropShadow_31_2878"/>
<feBlend mode="normal" in="SourceGraphic" in2="effect1_dropShadow_31_2878" result="shape"/>
</filter>
<filter id="filter3_d_31_2878" x="10.7909" y="13.0858" width="61.28" height="39.0971" filterUnits="userSpaceOnUse" color-interpolation-filters="sRGB">
<feFlood flood-opacity="0" result="BackgroundImageFix"/>
<feColorMatrix in="SourceAlpha" type="matrix" values="0 0 0 0 0 0 0 0 0 0 0 0 0 0 0 0 0 0 127 0" result="hardAlpha"/>
<feOffset dy="2"/>
<feGaussianBlur stdDeviation="2"/>
<feComposite in2="hardAlpha" operator="out"/>
<feColorMatrix type="matrix" values="0 0 0 0 0 0 0 0 0 0 0 0 0 0 0 0 0 0 0.25 0"/>
<feBlend mode="normal" in2="BackgroundImageFix" result="effect1_dropShadow_31_2878"/>
<feBlend mode="normal" in="SourceGraphic" in2="effect1_dropShadow_31_2878" result="shape"/>
</filter>
<filter id="filter4_d_31_2878" x="16.0984" y="42.8731" width="55.9725" height="42.4161" filterUnits="userSpaceOnUse" color-interpolation-filters="sRGB">
<feFlood flood-opacity="0" result="BackgroundImageFix"/>
<feColorMatrix in="SourceAlpha" type="matrix" values="0 0 0 0 0 0 0 0 0 0 0 0 0 0 0 0 0 0 127 0" result="hardAlpha"/>
<feOffset dy="2"/>
<feGaussianBlur stdDeviation="2"/>
<feComposite in2="hardAlpha" operator="out"/>
<feColorMatrix type="matrix" values="0 0 0 0 0 0 0 0 0 0 0 0 0 0 0 0 0 0 0.25 0"/>
<feBlend mode="normal" in2="BackgroundImageFix" result="effect1_dropShadow_31_2878"/>
<feBlend mode="normal" in="SourceGraphic" in2="effect1_dropShadow_31_2878" result="shape"/>
</filter>
<filter id="filter5_d_31_2878" x="23.4286" y="25.4286" width="49.1429" height="49.1429" filterUnits="userSpaceOnUse" color-interpolation-filters="sRGB">
<feFlood flood-opacity="0" result="BackgroundImageFix"/>
<feColorMatrix in="SourceAlpha" type="matrix" values="0 0 0 0 0 0 0 0 0 0 0 0 0 0 0 0 0 0 127 0" result="hardAlpha"/>
<feOffset dy="2"/>
<feGaussianBlur stdDeviation="2"/>
<feComposite in2="hardAlpha" operator="out"/>
<feColorMatrix type="matrix" values="0 0 0 0 0 0 0 0 0 0 0 0 0 0 0 0 0 0 0.25 0"/>
<feBlend mode="normal" in2="BackgroundImageFix" result="effect1_dropShadow_31_2878"/>
<feBlend mode="normal" in="SourceGraphic" in2="effect1_dropShadow_31_2878" result="shape"/>
</filter>
<linearGradient id="paint0_linear_31_2878" x1="48" y1="0" x2="48" y2="96" gradientUnits="userSpaceOnUse">
<stop stop-color="#FC801D"/>
<stop offset="0.244792" stop-color="#FE285B"/>
<stop offset="0.510417" stop-color="#FF318C"/>
<stop offset="0.744792" stop-color="#7557B2"/>
<stop offset="1" stop-color="#087CFA"/>
</linearGradient>
<linearGradient id="paint1_linear_31_2878" x1="24.8366" y1="30.2469" x2="66.0343" y2="98.3933" gradientUnits="userSpaceOnUse">
<stop stop-color="#FE2857"/>
<stop offset="0.08" stop-color="#FE295F"/>
<stop offset="0.21" stop-color="#FF2D76"/>
<stop offset="0.3" stop-color="#FF318C"/>
<stop offset="0.429456" stop-color="#EA3896"/>
<stop offset="0.55" stop-color="#B248AE"/>
<stop offset="0.79" stop-color="#5A63D6"/>
<stop offset="1" stop-color="#087CFA"/>
</linearGradient>
<clipPath id="clip0_31_2878">
<rect width="96" height="96" fill="white"/>
</clipPath>
</defs>
</svg>
