<svg width="96" height="96" viewBox="0 0 96 96" fill="none" xmlns="http://www.w3.org/2000/svg">
<g clip-path="url(#clip0_31_3018)">
<path d="M72 0H24C10.7452 0 0 10.7452 0 24V72C0 85.2548 10.7452 96 24 96H72C85.2548 96 96 85.2548 96 72V24C96 10.7452 85.2548 0 72 0Z" fill="url(#paint0_linear_31_3018)"/>
<g filter="url(#filter0_i_31_3018)">
<path d="M72 6H24C14.0589 6 6 14.0589 6 24V72C6 81.9411 14.0589 90 24 90H72C81.9411 90 90 81.9411 90 72V24C90 14.0589 81.9411 6 72 6Z" fill="black" fill-opacity="0.7"/>
<g filter="url(#filter1_d_31_3018)">
<path fill-rule="evenodd" clip-rule="evenodd" d="M51 18H24C20.6863 18 18 20.6863 18 24V72C18 75.3135 20.6863 78 24 78H72C75.3135 78 78 75.3135 78 72V45L51 18Z" fill="url(#paint1_linear_31_3018)"/>
</g>
<g filter="url(#filter2_d_31_3018)">
<path d="M51.0004 39C51.0004 42.3137 53.6866 45 57.0004 45H78L51.0004 18V39Z" fill="#FAFAFA"/>
</g>
<g filter="url(#filter3_d_31_3018)">
<path d="M78 24C78 20.6863 75.3142 18 72.0004 18H60.0004L78 36V24Z" fill="#97989A"/>
</g>
<mask id="mask0_31_3018" style="mask-type:alpha" maskUnits="userSpaceOnUse" x="33" y="45" width="30" height="30">
<path d="M63 45H33V75H63V45Z" fill="#D9D9D9"/>
</mask>
<g mask="url(#mask0_31_3018)">
<path fill-rule="evenodd" clip-rule="evenodd" d="M46.75 70H49.2188L49.6562 66.6875C50.302 66.5209 50.901 66.2761 51.4532 65.9531C52.0052 65.6303 52.5104 65.2396 52.9688 64.7813L56.0625 66.0625L57.2812 63.9375L54.5938 61.9063C54.6979 61.6146 54.7708 61.3073 54.8125 60.9844C54.8542 60.6615 54.875 60.3334 54.875 60C54.875 59.6667 54.8542 59.3386 54.8125 59.0156C54.7708 58.6928 54.6979 58.3854 54.5938 58.0937L57.2812 56.0625L56.0625 53.9375L52.9688 55.25C52.5104 54.7709 52.0052 54.3698 51.4532 54.0469C50.901 53.724 50.302 53.4792 49.6562 53.3125L49.25 50H46.7812L46.3438 53.3125C45.6979 53.4792 45.0989 53.724 44.5469 54.0469C43.9948 54.3698 43.4896 54.7604 43.0312 55.2188L39.9375 53.9375L38.7188 56.0625L41.4062 58.0625C41.3021 58.375 41.2291 58.6875 41.1875 59C41.1458 59.3125 41.125 59.6459 41.125 60C41.125 60.3334 41.1458 60.6563 41.1875 60.9688C41.2291 61.2812 41.3021 61.5938 41.4062 61.9063L38.7188 63.9375L39.9375 66.0625L43.0312 64.75C43.4896 65.2292 43.9948 65.6303 44.5469 65.9531C45.0989 66.2761 45.6979 66.5209 46.3438 66.6875L46.75 70ZM51.1562 63.0938C50.302 63.9479 49.2708 64.375 48.0625 64.375C46.8333 64.375 45.7969 63.9479 44.9531 63.0938C44.1094 62.2396 43.6875 61.2083 43.6875 60C43.6875 58.7917 44.1094 57.7604 44.9531 56.9063C45.7969 56.0521 46.8333 55.625 48.0625 55.625C49.2708 55.625 50.302 56.0521 51.1562 56.9063C52.0104 57.7604 52.4375 58.7917 52.4375 60C52.4375 61.2083 52.0104 62.2396 51.1562 63.0938Z" fill="url(#paint2_linear_31_3018)"/>
<path fill-rule="evenodd" clip-rule="evenodd" d="M44.8438 72.1875C45.073 72.3958 45.3438 72.5 45.6563 72.5H50.3438C50.6563 72.5 50.9272 72.3958 51.1563 72.1875C51.3855 71.9791 51.5209 71.7187 51.5626 71.4062L51.9376 68.5C52.1875 68.3959 52.4376 68.2708 52.6876 68.125C52.9375 67.9792 53.1772 67.8229 53.4063 67.6562L56.0626 68.7812C56.3542 68.9062 56.6511 68.9167 56.9532 68.8125C57.2553 68.7083 57.4897 68.5208 57.6563 68.25L59.9688 64.25C60.1354 63.9792 60.1876 63.6875 60.1251 63.375C60.0625 63.0625 59.9063 62.8125 59.6563 62.625L57.3126 60.8437C57.3542 60.6979 57.3751 60.5573 57.3751 60.4219V59.5781C57.3751 59.4427 57.3646 59.3021 57.3438 59.1562L59.6875 57.375C59.9376 57.1875 60.0938 56.9375 60.1563 56.625C60.2188 56.3125 60.1667 56.0209 60.0001 55.75L57.6876 51.7187C57.5209 51.4479 57.2917 51.2656 57.0001 51.1719C56.7084 51.0781 56.4167 51.0937 56.125 51.2188L53.4063 52.3438C53.1772 52.1771 52.9428 52.0208 52.7032 51.875C52.4636 51.7291 52.2084 51.6042 51.9376 51.5L51.5626 48.5938C51.5209 48.2812 51.3855 48.0208 51.1563 47.8125C50.9272 47.6041 50.6563 47.5 50.3438 47.5H45.6563C45.3438 47.5 45.073 47.6041 44.8438 47.8125C44.6146 48.0208 44.4792 48.2812 44.4376 48.5938L44.0626 51.5C43.8126 51.6042 43.5625 51.7291 43.3126 51.875C43.0626 52.0208 42.823 52.1771 42.5938 52.3438L39.8751 51.2188C39.5834 51.0937 39.2917 51.0781 39.0001 51.1719C38.7084 51.2656 38.4792 51.4479 38.3125 51.7187L36.0001 55.75C35.8334 56.0209 35.7813 56.3125 35.8438 56.625C35.9063 56.9375 36.0625 57.1875 36.3126 57.375L38.6563 59.1562C38.6355 59.3021 38.6251 59.4427 38.6251 59.5781V60.4219C38.6251 60.5573 38.6355 60.6979 38.6563 60.8437L36.3126 62.625C36.0625 62.8125 35.9063 63.0625 35.8438 63.375C35.7813 63.6875 35.8334 63.9792 36.0001 64.25L38.3125 68.2813C38.4792 68.5521 38.7084 68.7343 39.0001 68.8281C39.2917 68.9218 39.5834 68.9062 39.8751 68.7812L42.5938 67.6562C42.823 67.8229 43.0573 67.9792 43.297 68.125C43.5365 68.2708 43.7917 68.3959 44.0626 68.5L44.4376 71.4062C44.4792 71.7187 44.6146 71.9791 44.8438 72.1875ZM49.2188 70H46.75L46.3438 66.6875C45.6979 66.5209 45.099 66.2761 44.5469 65.9531C43.9948 65.6302 43.4896 65.2291 43.0313 64.75L39.9376 66.0625L38.7188 63.9375L41.4063 61.9063C41.3021 61.5937 41.2292 61.2812 41.1876 60.9688C41.1459 60.6562 41.125 60.3334 41.125 60C41.125 59.6458 41.1459 59.3125 41.1876 59C41.2292 58.6875 41.3021 58.375 41.4063 58.0625L38.7188 56.0625L39.9376 53.9375L43.0313 55.2187C43.4896 54.7604 43.9948 54.3698 44.5469 54.0469C45.099 53.724 45.6979 53.4792 46.3438 53.3125L46.7813 50H49.2501L49.6563 53.3125C50.3021 53.4792 50.9011 53.724 51.4532 54.0469C52.0053 54.3698 52.5105 54.7708 52.9688 55.25L56.0626 53.9375L57.2813 56.0625L54.5938 58.0937C54.6979 58.3854 54.7709 58.6927 54.8125 59.0156C54.8542 59.3386 54.8751 59.6667 54.8751 60C54.8751 60.3334 54.8542 60.6615 54.8125 60.9844C54.7709 61.3073 54.6979 61.6146 54.5938 61.9063L57.2813 63.9375L56.0626 66.0625L52.9688 64.7812C52.5105 65.2396 52.0053 65.6302 51.4532 65.9531C50.9011 66.2761 50.3021 66.5209 49.6563 66.6875L49.2188 70Z" fill="url(#paint3_linear_31_3018)"/>
</g>
</g>
</g>
<defs>
<filter id="filter0_i_31_3018" x="6" y="6" width="84" height="88" filterUnits="userSpaceOnUse" color-interpolation-filters="sRGB">
<feFlood flood-opacity="0" result="BackgroundImageFix"/>
<feBlend mode="normal" in="SourceGraphic" in2="BackgroundImageFix" result="shape"/>
<feColorMatrix in="SourceAlpha" type="matrix" values="0 0 0 0 0 0 0 0 0 0 0 0 0 0 0 0 0 0 127 0" result="hardAlpha"/>
<feOffset dy="4"/>
<feGaussianBlur stdDeviation="2"/>
<feComposite in2="hardAlpha" operator="arithmetic" k2="-1" k3="1"/>
<feColorMatrix type="matrix" values="0 0 0 0 0 0 0 0 0 0 0 0 0 0 0 0 0 0 0.25 0"/>
<feBlend mode="normal" in2="shape" result="effect1_innerShadow_31_3018"/>
</filter>
<filter id="filter1_d_31_3018" x="14" y="16" width="68" height="68" filterUnits="userSpaceOnUse" color-interpolation-filters="sRGB">
<feFlood flood-opacity="0" result="BackgroundImageFix"/>
<feColorMatrix in="SourceAlpha" type="matrix" values="0 0 0 0 0 0 0 0 0 0 0 0 0 0 0 0 0 0 127 0" result="hardAlpha"/>
<feOffset dy="2"/>
<feGaussianBlur stdDeviation="2"/>
<feComposite in2="hardAlpha" operator="out"/>
<feColorMatrix type="matrix" values="0 0 0 0 0 0 0 0 0 0 0 0 0 0 0 0 0 0 0.25 0"/>
<feBlend mode="normal" in2="BackgroundImageFix" result="effect1_dropShadow_31_3018"/>
<feBlend mode="normal" in="SourceGraphic" in2="effect1_dropShadow_31_3018" result="shape"/>
</filter>
<filter id="filter2_d_31_3018" x="47.0004" y="16" width="34.9996" height="35" filterUnits="userSpaceOnUse" color-interpolation-filters="sRGB">
<feFlood flood-opacity="0" result="BackgroundImageFix"/>
<feColorMatrix in="SourceAlpha" type="matrix" values="0 0 0 0 0 0 0 0 0 0 0 0 0 0 0 0 0 0 127 0" result="hardAlpha"/>
<feOffset dy="2"/>
<feGaussianBlur stdDeviation="2"/>
<feComposite in2="hardAlpha" operator="out"/>
<feColorMatrix type="matrix" values="0 0 0 0 0 0 0 0 0 0 0 0 0 0 0 0 0 0 0.25 0"/>
<feBlend mode="normal" in2="BackgroundImageFix" result="effect1_dropShadow_31_3018"/>
<feBlend mode="normal" in="SourceGraphic" in2="effect1_dropShadow_31_3018" result="shape"/>
</filter>
<filter id="filter3_d_31_3018" x="56.0004" y="16" width="25.9996" height="26" filterUnits="userSpaceOnUse" color-interpolation-filters="sRGB">
<feFlood flood-opacity="0" result="BackgroundImageFix"/>
<feColorMatrix in="SourceAlpha" type="matrix" values="0 0 0 0 0 0 0 0 0 0 0 0 0 0 0 0 0 0 127 0" result="hardAlpha"/>
<feOffset dy="2"/>
<feGaussianBlur stdDeviation="2"/>
<feComposite in2="hardAlpha" operator="out"/>
<feColorMatrix type="matrix" values="0 0 0 0 0 0 0 0 0 0 0 0 0 0 0 0 0 0 0.25 0"/>
<feBlend mode="normal" in2="BackgroundImageFix" result="effect1_dropShadow_31_3018"/>
<feBlend mode="normal" in="SourceGraphic" in2="effect1_dropShadow_31_3018" result="shape"/>
</filter>
<linearGradient id="paint0_linear_31_3018" x1="96" y1="0" x2="0" y2="96" gradientUnits="userSpaceOnUse">
<stop stop-color="#97989A"/>
<stop offset="1" stop-color="#505050"/>
</linearGradient>
<linearGradient id="paint1_linear_31_3018" x1="48" y1="18" x2="48" y2="78" gradientUnits="userSpaceOnUse">
<stop stop-color="#FAFAFA"/>
<stop offset="1" stop-color="#D5D5D5"/>
</linearGradient>
<linearGradient id="paint2_linear_31_3018" x1="48" y1="47.5" x2="48" y2="72.5" gradientUnits="userSpaceOnUse">
<stop stop-color="#34C8FF"/>
<stop offset="1" stop-color="#2192E1"/>
</linearGradient>
<linearGradient id="paint3_linear_31_3018" x1="48.0001" y1="47.5" x2="48.0001" y2="72.5" gradientUnits="userSpaceOnUse">
<stop stop-color="#34C8FF"/>
<stop offset="1" stop-color="#2192E1"/>
</linearGradient>
<clipPath id="clip0_31_3018">
<rect width="96" height="96" fill="white"/>
</clipPath>
</defs>
</svg>
