<svg width="96" height="96" viewBox="0 0 96 96" fill="none" xmlns="http://www.w3.org/2000/svg">
<g clip-path="url(#clip0_31_3034)">
<path d="M72 0H24C10.7452 0 0 10.7452 0 24V72C0 85.2548 10.7452 96 24 96H72C85.2548 96 96 85.2548 96 72V24C96 10.7452 85.2548 0 72 0Z" fill="url(#paint0_linear_31_3034)"/>
<g filter="url(#filter0_i_31_3034)">
<path d="M72 6H24C14.0589 6 6 14.0589 6 24V72C6 81.9411 14.0589 90 24 90H72C81.9411 90 90 81.9411 90 72V24C90 14.0589 81.9411 6 72 6Z" fill="black" fill-opacity="0.7"/>
<g filter="url(#filter1_d_31_3034)">
<path fill-rule="evenodd" clip-rule="evenodd" d="M47.25 18H27.75C24.4363 18 21.75 20.6863 21.75 24V72C21.75 75.3135 24.4363 78 27.75 78H68.25C71.5637 78 74.25 75.3135 74.25 72V45L47.25 18Z" fill="url(#paint1_linear_31_3034)"/>
</g>
<g filter="url(#filter2_d_31_3034)">
<path d="M74.2504 24C74.2504 20.6863 71.5641 18 68.2504 18H56.2504L74.2504 36V24Z" fill="#97989A"/>
</g>
<path d="M29.25 52.5H66.75M29.25 58.5H66.75M29.25 64.5H59.25" stroke="white" stroke-width="4" stroke-linecap="round" stroke-linejoin="round"/>
<path d="M32.25 43.5H30C29.5858 43.5 29.25 43.1642 29.25 42.75V32.25C29.25 31.8358 29.5858 31.5 30 31.5H46.5C46.9142 31.5 47.25 31.8358 47.25 32.25V42.75C47.25 43.1642 46.9142 43.5 46.5 43.5H40.5M32.25 43.5L34.1245 41.0008C34.3419 40.7108 34.7356 40.6178 35.0599 40.7799L40.5 43.5M32.25 43.5H40.5" stroke="white" stroke-opacity="0.7" stroke-width="4" stroke-linecap="round" stroke-linejoin="round"/>
<path d="M39 39C39.8284 39 40.5 38.3284 40.5 37.5C40.5 36.6716 39.8284 36 39 36C38.1716 36 37.5 36.6716 37.5 37.5C37.5 38.3284 38.1716 39 39 39Z" fill="white" fill-opacity="0.7"/>
</g>
</g>
<defs>
<filter id="filter0_i_31_3034" x="6" y="6" width="84" height="88" filterUnits="userSpaceOnUse" color-interpolation-filters="sRGB">
<feFlood flood-opacity="0" result="BackgroundImageFix"/>
<feBlend mode="normal" in="SourceGraphic" in2="BackgroundImageFix" result="shape"/>
<feColorMatrix in="SourceAlpha" type="matrix" values="0 0 0 0 0 0 0 0 0 0 0 0 0 0 0 0 0 0 127 0" result="hardAlpha"/>
<feOffset dy="4"/>
<feGaussianBlur stdDeviation="2"/>
<feComposite in2="hardAlpha" operator="arithmetic" k2="-1" k3="1"/>
<feColorMatrix type="matrix" values="0 0 0 0 0 0 0 0 0 0 0 0 0 0 0 0 0 0 0.25 0"/>
<feBlend mode="normal" in2="shape" result="effect1_innerShadow_31_3034"/>
</filter>
<filter id="filter1_d_31_3034" x="17.75" y="16" width="60.5" height="68" filterUnits="userSpaceOnUse" color-interpolation-filters="sRGB">
<feFlood flood-opacity="0" result="BackgroundImageFix"/>
<feColorMatrix in="SourceAlpha" type="matrix" values="0 0 0 0 0 0 0 0 0 0 0 0 0 0 0 0 0 0 127 0" result="hardAlpha"/>
<feOffset dy="2"/>
<feGaussianBlur stdDeviation="2"/>
<feComposite in2="hardAlpha" operator="out"/>
<feColorMatrix type="matrix" values="0 0 0 0 0 0 0 0 0 0 0 0 0 0 0 0 0 0 0.25 0"/>
<feBlend mode="normal" in2="BackgroundImageFix" result="effect1_dropShadow_31_3034"/>
<feBlend mode="normal" in="SourceGraphic" in2="effect1_dropShadow_31_3034" result="shape"/>
</filter>
<filter id="filter2_d_31_3034" x="52.2504" y="16" width="26" height="26" filterUnits="userSpaceOnUse" color-interpolation-filters="sRGB">
<feFlood flood-opacity="0" result="BackgroundImageFix"/>
<feColorMatrix in="SourceAlpha" type="matrix" values="0 0 0 0 0 0 0 0 0 0 0 0 0 0 0 0 0 0 127 0" result="hardAlpha"/>
<feOffset dy="2"/>
<feGaussianBlur stdDeviation="2"/>
<feComposite in2="hardAlpha" operator="out"/>
<feColorMatrix type="matrix" values="0 0 0 0 0 0 0 0 0 0 0 0 0 0 0 0 0 0 0.25 0"/>
<feBlend mode="normal" in2="BackgroundImageFix" result="effect1_dropShadow_31_3034"/>
<feBlend mode="normal" in="SourceGraphic" in2="effect1_dropShadow_31_3034" result="shape"/>
</filter>
<linearGradient id="paint0_linear_31_3034" x1="96" y1="0" x2="0" y2="96" gradientUnits="userSpaceOnUse">
<stop stop-color="#1FCAF8"/>
<stop offset="1" stop-color="#0D44B1"/>
</linearGradient>
<linearGradient id="paint1_linear_31_3034" x1="74.25" y1="18" x2="14.25" y2="78" gradientUnits="userSpaceOnUse">
<stop stop-color="#1FCAF8"/>
<stop offset="1" stop-color="#0D44B1"/>
</linearGradient>
<clipPath id="clip0_31_3034">
<rect width="96" height="96" fill="white"/>
</clipPath>
</defs>
</svg>
