<svg width="96" height="96" viewBox="0 0 96 96" fill="none" xmlns="http://www.w3.org/2000/svg">
<g clip-path="url(#clip0_31_2939)">
<path d="M72 0H24C10.7452 0 0 10.7452 0 24V72C0 85.2548 10.7452 96 24 96H72C85.2548 96 96 85.2548 96 72V24C96 10.7452 85.2548 0 72 0Z" fill="url(#paint0_linear_31_2939)"/>
<g filter="url(#filter0_i_31_2939)">
<path d="M72 6H24C14.0589 6 6 14.0589 6 24V72C6 81.9411 14.0589 90 24 90H72C81.9411 90 90 81.9411 90 72V24C90 14.0589 81.9411 6 72 6Z" fill="black" fill-opacity="0.7"/>
<g filter="url(#filter1_d_31_2939)">
<path fill-rule="evenodd" clip-rule="evenodd" d="M51 18H24C20.6863 18 18 20.6863 18 24V72C18 75.3135 20.6863 78 24 78H72C75.3135 78 78 75.3135 78 72V45L51 18Z" fill="url(#paint1_linear_31_2939)"/>
</g>
<g filter="url(#filter2_d_31_2939)">
<path d="M78 24C78 20.6863 75.3142 18 72.0004 18H60.0004L78 36V24Z" fill="#97989A"/>
</g>
<path d="M66 58.5C66 61.8137 57.9411 64.5 48 64.5C38.0589 64.5 30 61.8137 30 58.5V64.5C30 67.8137 38.0589 70.5 48 70.5C57.9411 70.5 66 67.8137 66 64.5V58.5Z" fill="white"/>
<path d="M66 50.25C66 53.5637 57.9411 56.25 48 56.25C38.0589 56.25 30 53.5637 30 50.25V56.25C30 59.5637 38.0589 62.25 48 62.25C57.9411 62.25 66 59.5637 66 56.25V50.25Z" fill="white"/>
<path d="M66 42C66 45.3137 57.9411 48 48 48C38.0589 48 30 45.3137 30 42V48C30 51.3137 38.0589 54 48 54C57.9411 54 66 51.3137 66 48V42Z" fill="white"/>
<path d="M48 48C57.9411 48 66 45.3137 66 42C66 38.6863 57.9411 36 48 36C38.0589 36 30 38.6863 30 42C30 45.3137 38.0589 48 48 48Z" fill="#E6E6E6"/>
</g>
</g>
<defs>
<filter id="filter0_i_31_2939" x="6" y="6" width="84" height="88" filterUnits="userSpaceOnUse" color-interpolation-filters="sRGB">
<feFlood flood-opacity="0" result="BackgroundImageFix"/>
<feBlend mode="normal" in="SourceGraphic" in2="BackgroundImageFix" result="shape"/>
<feColorMatrix in="SourceAlpha" type="matrix" values="0 0 0 0 0 0 0 0 0 0 0 0 0 0 0 0 0 0 127 0" result="hardAlpha"/>
<feOffset dy="4"/>
<feGaussianBlur stdDeviation="2"/>
<feComposite in2="hardAlpha" operator="arithmetic" k2="-1" k3="1"/>
<feColorMatrix type="matrix" values="0 0 0 0 0 0 0 0 0 0 0 0 0 0 0 0 0 0 0.25 0"/>
<feBlend mode="normal" in2="shape" result="effect1_innerShadow_31_2939"/>
</filter>
<filter id="filter1_d_31_2939" x="14" y="16" width="68" height="68" filterUnits="userSpaceOnUse" color-interpolation-filters="sRGB">
<feFlood flood-opacity="0" result="BackgroundImageFix"/>
<feColorMatrix in="SourceAlpha" type="matrix" values="0 0 0 0 0 0 0 0 0 0 0 0 0 0 0 0 0 0 127 0" result="hardAlpha"/>
<feOffset dy="2"/>
<feGaussianBlur stdDeviation="2"/>
<feComposite in2="hardAlpha" operator="out"/>
<feColorMatrix type="matrix" values="0 0 0 0 0 0 0 0 0 0 0 0 0 0 0 0 0 0 0.25 0"/>
<feBlend mode="normal" in2="BackgroundImageFix" result="effect1_dropShadow_31_2939"/>
<feBlend mode="normal" in="SourceGraphic" in2="effect1_dropShadow_31_2939" result="shape"/>
</filter>
<filter id="filter2_d_31_2939" x="56.0004" y="16" width="25.9996" height="26" filterUnits="userSpaceOnUse" color-interpolation-filters="sRGB">
<feFlood flood-opacity="0" result="BackgroundImageFix"/>
<feColorMatrix in="SourceAlpha" type="matrix" values="0 0 0 0 0 0 0 0 0 0 0 0 0 0 0 0 0 0 127 0" result="hardAlpha"/>
<feOffset dy="2"/>
<feGaussianBlur stdDeviation="2"/>
<feComposite in2="hardAlpha" operator="out"/>
<feColorMatrix type="matrix" values="0 0 0 0 0 0 0 0 0 0 0 0 0 0 0 0 0 0 0.25 0"/>
<feBlend mode="normal" in2="BackgroundImageFix" result="effect1_dropShadow_31_2939"/>
<feBlend mode="normal" in="SourceGraphic" in2="effect1_dropShadow_31_2939" result="shape"/>
</filter>
<linearGradient id="paint0_linear_31_2939" x1="96" y1="0" x2="0" y2="96" gradientUnits="userSpaceOnUse">
<stop stop-color="#F353FB"/>
<stop offset="1" stop-color="#7C26AD"/>
</linearGradient>
<linearGradient id="paint1_linear_31_2939" x1="78" y1="18" x2="18" y2="78" gradientUnits="userSpaceOnUse">
<stop stop-color="#F353FB"/>
<stop offset="1" stop-color="#7C26AD"/>
</linearGradient>
<clipPath id="clip0_31_2939">
<rect width="96" height="96" fill="white"/>
</clipPath>
</defs>
</svg>
