<svg width="96" height="96" viewBox="0 0 96 96" fill="none" xmlns="http://www.w3.org/2000/svg">
<g clip-path="url(#clip0_31_3077)">
<path d="M72 0H24C10.7452 0 0 10.7452 0 24V72C0 85.2548 10.7452 96 24 96H72C85.2548 96 96 85.2548 96 72V24C96 10.7452 85.2548 0 72 0Z" fill="url(#paint0_linear_31_3077)"/>
<g filter="url(#filter0_i_31_3077)">
<path d="M72 6H24C14.0589 6 6 14.0589 6 24V72C6 81.9411 14.0589 90 24 90H72C81.9411 90 90 81.9411 90 72V24C90 14.0589 81.9411 6 72 6Z" fill="black" fill-opacity="0.7"/>
<mask id="mask0_31_3077" style="mask-type:luminance" maskUnits="userSpaceOnUse" x="12" y="17" width="72" height="62">
<path d="M84 17.25H12V78.75H84V17.25Z" fill="white"/>
</mask>
<g mask="url(#mask0_31_3077)">
<g filter="url(#filter1_d_31_3077)">
<path d="M22.5803 25.2918C25.1899 34.5486 24.0337 46.1312 78.9757 28.6025L81.8895 55.2431C82.4055 59.9591 78.7282 64.1397 73.645 64.6165C60.436 39.451 30.344 42.9422 17.2498 61.3058L14.3356 34.6652C13.8197 29.9492 17.4968 25.7686 22.5803 25.2918Z" fill="#08A7E6"/>
<path d="M22.5802 25.2918L68.8682 20.9504C73.9516 20.4736 78.4597 23.8865 78.975 28.6025C50.9154 35.4883 49.0178 54.1183 73.6449 64.6165L27.3569 68.9579C22.2735 69.4347 17.7657 66.0218 17.2498 61.3058C49.4912 51.1715 45.7384 37.1641 22.5802 25.2918Z" fill="#322374"/>
<path d="M74.559 25.2173H21.5034C18.9815 25.2173 16.9371 27.2562 16.9371 29.7713V61.0025C16.9371 63.5176 18.9815 65.5565 21.5034 65.5565H74.559C77.0812 65.5565 79.1257 63.5176 79.1257 61.0025V29.7713C79.1257 27.2562 77.0812 25.2173 74.559 25.2173Z" fill="white"/>
<path d="M61.8027 65.5344C61.803 63.3245 62.6833 61.2052 64.2499 59.6423C65.8166 58.0795 67.9413 57.201 70.1572 57.2C72.3732 57.1991 74.4987 58.0757 76.0665 59.6372C77.6348 61.1987 78.5168 63.3173 78.519 65.5271C78.5213 67.737 77.6438 69.8574 76.0785 71.4221C74.514 72.9867 72.3902 73.8677 70.1743 73.8713C67.9584 73.8748 65.8318 73.0007 64.262 71.441C62.6922 69.8813 61.8076 67.7638 61.8027 65.5539" fill="white"/>
<path d="M61.8027 65.5344C61.803 63.3245 62.6833 61.2052 64.2499 59.6423C65.8166 58.0795 67.9413 57.201 70.1572 57.2C72.3732 57.1991 74.4987 58.0757 76.0665 59.6372C77.6348 61.1987 78.5168 63.3173 78.519 65.5271C78.5213 67.737 77.6438 69.8574 76.0785 71.4221C74.514 72.9867 72.3902 73.8677 70.1743 73.8713C67.9584 73.8748 65.8318 73.0007 64.262 71.441C62.6922 69.8813 61.8076 67.7638 61.8027 65.5539" stroke="#322374" stroke-width="2.66667" stroke-linecap="round" stroke-linejoin="round"/>
<path fill-rule="evenodd" clip-rule="evenodd" d="M66.7432 60.1365L76.626 65.8268L66.7252 71.2146L66.7432 60.1365Z" fill="black"/>
</g>
</g>
</g>
</g>
<defs>
<filter id="filter0_i_31_3077" x="6" y="6" width="84" height="88" filterUnits="userSpaceOnUse" color-interpolation-filters="sRGB">
<feFlood flood-opacity="0" result="BackgroundImageFix"/>
<feBlend mode="normal" in="SourceGraphic" in2="BackgroundImageFix" result="shape"/>
<feColorMatrix in="SourceAlpha" type="matrix" values="0 0 0 0 0 0 0 0 0 0 0 0 0 0 0 0 0 0 127 0" result="hardAlpha"/>
<feOffset dy="4"/>
<feGaussianBlur stdDeviation="2"/>
<feComposite in2="hardAlpha" operator="arithmetic" k2="-1" k3="1"/>
<feColorMatrix type="matrix" values="0 0 0 0 0 0 0 0 0 0 0 0 0 0 0 0 0 0 0.25 0"/>
<feBlend mode="normal" in2="shape" result="effect1_innerShadow_31_3077"/>
</filter>
<filter id="filter1_d_31_3077" x="10.2874" y="18.9059" width="75.6504" height="62.2987" filterUnits="userSpaceOnUse" color-interpolation-filters="sRGB">
<feFlood flood-opacity="0" result="BackgroundImageFix"/>
<feColorMatrix in="SourceAlpha" type="matrix" values="0 0 0 0 0 0 0 0 0 0 0 0 0 0 0 0 0 0 127 0" result="hardAlpha"/>
<feOffset dy="2"/>
<feGaussianBlur stdDeviation="2"/>
<feComposite in2="hardAlpha" operator="out"/>
<feColorMatrix type="matrix" values="0 0 0 0 0 0 0 0 0 0 0 0 0 0 0 0 0 0 0.25 0"/>
<feBlend mode="normal" in2="BackgroundImageFix" result="effect1_dropShadow_31_3077"/>
<feBlend mode="normal" in="SourceGraphic" in2="effect1_dropShadow_31_3077" result="shape"/>
</filter>
<linearGradient id="paint0_linear_31_3077" x1="19.875" y1="74.25" x2="94.8735" y2="15.3729" gradientUnits="userSpaceOnUse">
<stop stop-color="#322374"/>
<stop offset="1" stop-color="#08A7E6"/>
</linearGradient>
<clipPath id="clip0_31_3077">
<rect width="96" height="96" fill="white"/>
</clipPath>
</defs>
</svg>
