<svg width="96" height="96" viewBox="0 0 96 96" fill="none" xmlns="http://www.w3.org/2000/svg">
<g clip-path="url(#clip0_31_3121)">
<path d="M72 0H24C10.7452 0 0 10.7452 0 24V72C0 85.2548 10.7452 96 24 96H72C85.2548 96 96 85.2548 96 72V24C96 10.7452 85.2548 0 72 0Z" fill="url(#paint0_linear_31_3121)"/>
<g filter="url(#filter0_i_31_3121)">
<path d="M72 6H24C14.0589 6 6 14.0589 6 24V72C6 81.9411 14.0589 90 24 90H72C81.9411 90 90 81.9411 90 72V24C90 14.0589 81.9411 6 72 6Z" fill="black" fill-opacity="0.7"/>
<g filter="url(#filter1_d_31_3121)">
<path d="M47.9994 18.0014C31.4313 18.0014 18 31.4326 18 48.0007C18 64.0894 30.6661 77.22 46.5707 77.9655C47.0453 77.988 47.5207 78 47.9999 78C55.6806 78 62.6852 75.1125 67.9927 70.3658C64.4762 72.6979 60.365 74.0399 55.9712 74.0399C48.827 74.0399 42.4288 70.4957 38.1257 64.9068C34.8084 60.991 32.6599 55.2028 32.5135 48.7069V47.2942C32.6598 40.7984 34.8083 35.009 38.1248 31.0942C42.4286 25.5053 48.8266 21.9612 55.9703 21.9612C60.3652 21.9612 64.4772 23.3031 67.994 25.6367C62.7125 20.912 55.7502 18.0299 48.1123 18.0015C48.0742 18.0015 48.0369 18 47.9988 18L47.9994 18.0014Z" fill="#FF1B2D"/>
<path d="M38.1251 31.096C40.8781 27.846 44.4335 25.8862 48.3179 25.8862C57.0517 25.8862 64.1304 35.7879 64.1304 48.0021C64.1304 60.2163 57.0511 70.118 48.3179 70.118C44.4335 70.118 40.8781 68.159 38.1259 64.9089C42.4289 70.4978 48.8266 74.042 55.9714 74.042C60.3655 74.042 64.4768 72.7001 67.993 70.368C74.1334 64.8746 78 56.8902 78 48.0023C78 39.1155 74.1342 31.1315 67.9952 25.6388C64.4779 23.3051 60.3659 21.9632 55.9715 21.9632C48.8274 21.9632 42.4283 25.5071 38.1251 31.096Z" fill="#B10000"/>
</g>
</g>
</g>
<defs>
<filter id="filter0_i_31_3121" x="6" y="6" width="84" height="88" filterUnits="userSpaceOnUse" color-interpolation-filters="sRGB">
<feFlood flood-opacity="0" result="BackgroundImageFix"/>
<feBlend mode="normal" in="SourceGraphic" in2="BackgroundImageFix" result="shape"/>
<feColorMatrix in="SourceAlpha" type="matrix" values="0 0 0 0 0 0 0 0 0 0 0 0 0 0 0 0 0 0 127 0" result="hardAlpha"/>
<feOffset dy="4"/>
<feGaussianBlur stdDeviation="2"/>
<feComposite in2="hardAlpha" operator="arithmetic" k2="-1" k3="1"/>
<feColorMatrix type="matrix" values="0 0 0 0 0 0 0 0 0 0 0 0 0 0 0 0 0 0 0.25 0"/>
<feBlend mode="normal" in2="shape" result="effect1_innerShadow_31_3121"/>
</filter>
<filter id="filter1_d_31_3121" x="14" y="16" width="68" height="68" filterUnits="userSpaceOnUse" color-interpolation-filters="sRGB">
<feFlood flood-opacity="0" result="BackgroundImageFix"/>
<feColorMatrix in="SourceAlpha" type="matrix" values="0 0 0 0 0 0 0 0 0 0 0 0 0 0 0 0 0 0 127 0" result="hardAlpha"/>
<feOffset dy="2"/>
<feGaussianBlur stdDeviation="2"/>
<feComposite in2="hardAlpha" operator="out"/>
<feColorMatrix type="matrix" values="0 0 0 0 0 0 0 0 0 0 0 0 0 0 0 0 0 0 0.25 0"/>
<feBlend mode="normal" in2="BackgroundImageFix" result="effect1_dropShadow_31_3121"/>
<feBlend mode="normal" in="SourceGraphic" in2="effect1_dropShadow_31_3121" result="shape"/>
</filter>
<linearGradient id="paint0_linear_31_3121" x1="48" y1="0" x2="48" y2="96" gradientUnits="userSpaceOnUse">
<stop stop-color="#FF1B2D"/>
<stop offset="0.3" stop-color="#FF1B2D"/>
<stop offset="0.614" stop-color="#FF1B2D"/>
<stop offset="1" stop-color="#A70014"/>
</linearGradient>
<clipPath id="clip0_31_3121">
<rect width="96" height="96" fill="white"/>
</clipPath>
</defs>
</svg>
