<svg width="96" height="96" viewBox="0 0 96 96" fill="none" xmlns="http://www.w3.org/2000/svg">
<g clip-path="url(#clip0_31_3128)">
<path d="M72 0H24C10.7452 0 0 10.7452 0 24V72C0 85.2548 10.7452 96 24 96H72C85.2548 96 96 85.2548 96 72V24C96 10.7452 85.2548 0 72 0Z" fill="url(#paint0_linear_31_3128)"/>
<path d="M72 0H24C10.7452 0 0 10.7452 0 24V72C0 85.2548 10.7452 96 24 96H72C85.2548 96 96 85.2548 96 72V24C96 10.7452 85.2548 0 72 0Z" fill="url(#paint1_linear_31_3128)"/>
<g filter="url(#filter0_i_31_3128)">
<path d="M72 6H24C14.0589 6 6 14.0589 6 24V72C6 81.9411 14.0589 90 24 90H72C81.9411 90 90 81.9411 90 72V24C90 14.0589 81.9411 6 72 6Z" fill="black" fill-opacity="0.7"/>
<mask id="mask0_31_3128" style="mask-type:luminance" maskUnits="userSpaceOnUse" x="12" y="12" width="72" height="72">
<path d="M84 12H12V84H84V12Z" fill="white"/>
</mask>
<g mask="url(#mask0_31_3128)">
<g filter="url(#filter1_d_31_3128)">
<path d="M51.7667 27.0011L49.5712 20.3652L39.3816 25.2905L25.8929 26.4806L27.7444 49.6234L46.8748 46.422L51.7667 27.0011Z" fill="url(#paint2_linear_31_3128)"/>
</g>
<g filter="url(#filter2_d_31_3128)">
<path d="M33.5858 32.9081L15.4285 28.1366L21.7038 65.8219L55.5154 65.4927L33.5858 32.9081Z" fill="url(#paint3_linear_31_3128)"/>
</g>
<g filter="url(#filter3_d_31_3128)">
<path d="M58.557 48.962L50.7543 35.6055L59.2183 27.9354L72.6906 22.4218L81.2572 43.7106L68.9199 55.964L58.557 48.962Z" fill="url(#paint4_linear_31_3128)"/>
</g>
<g filter="url(#filter4_d_31_3128)">
<path d="M68.9254 43.4273L64.6399 34.6798L31.0349 41.4319L34.4868 73.5197L56.672 81.2573L81.2572 66.5414L68.9254 43.4273Z" fill="url(#paint5_linear_31_3128)"/>
</g>
<g filter="url(#filter5_d_31_3128)">
<path d="M51.5477 44.9948L31.0349 41.4319L56.0734 19.3366L72.6905 22.4219L62.392 32.6962L64.772 34.812L51.5477 44.9948Z" fill="url(#paint6_linear_31_3128)"/>
</g>
<g filter="url(#filter6_d_31_3128)">
<path d="M49.5709 20.3651L26.6578 15.4286L15.4285 28.1366L33.6182 32.9723L49.5709 20.3651Z" fill="url(#paint7_linear_31_3128)"/>
</g>
<g filter="url(#filter7_d_31_3128)">
<path d="M68.9145 27.7715H27.7716V68.9143H68.9145V27.7715Z" fill="black"/>
</g>
<path d="M48.3429 61.2H32.9143V63.7714H48.3429V61.2Z" fill="white"/>
<path d="M46.3843 46.2995L48.3969 43.8906C49.7886 45.0388 51.2492 45.7691 53.015 45.7691C54.4103 45.7691 55.2494 45.2168 55.2494 44.3084V44.2649C55.2493 43.4037 54.7188 42.9605 52.1318 42.2992C49.0144 41.5034 47.0015 40.6388 47.0012 37.5686V37.5213C47.001 34.7164 49.2572 32.8561 52.4182 32.8561C54.5051 32.8225 56.5383 33.519 58.1663 34.8254L56.397 37.3906C55.0272 36.4386 53.6792 35.8645 52.3748 35.8645C51.0704 35.8645 50.3838 36.4604 50.3839 37.2125V37.2561C50.384 38.2734 51.0488 38.6077 53.723 39.2907C56.8622 40.1082 58.6318 41.2382 58.6319 43.9342V43.9778C58.6322 47.0516 56.2889 48.7739 52.9498 48.7739C50.5318 48.7829 48.1949 47.9022 46.3843 46.2995Z" fill="white"/>
<path d="M32.9608 33.0911H39.2568C42.932 33.0911 45.1554 35.2704 45.1554 38.4176V38.4616C45.1554 42.0274 42.3818 43.8767 38.926 43.8767H36.3505V48.4988H32.9608V33.0911ZM39.036 40.861C40.7312 40.861 41.7216 39.8487 41.7216 38.5277V38.4836C41.7216 36.965 40.6653 36.1508 38.97 36.1508H36.3505V40.861H39.036Z" fill="white"/>
</g>
</g>
</g>
<defs>
<filter id="filter0_i_31_3128" x="6" y="6" width="84" height="88" filterUnits="userSpaceOnUse" color-interpolation-filters="sRGB">
<feFlood flood-opacity="0" result="BackgroundImageFix"/>
<feBlend mode="normal" in="SourceGraphic" in2="BackgroundImageFix" result="shape"/>
<feColorMatrix in="SourceAlpha" type="matrix" values="0 0 0 0 0 0 0 0 0 0 0 0 0 0 0 0 0 0 127 0" result="hardAlpha"/>
<feOffset dy="4"/>
<feGaussianBlur stdDeviation="2"/>
<feComposite in2="hardAlpha" operator="arithmetic" k2="-1" k3="1"/>
<feColorMatrix type="matrix" values="0 0 0 0 0 0 0 0 0 0 0 0 0 0 0 0 0 0 0.25 0"/>
<feBlend mode="normal" in2="shape" result="effect1_innerShadow_31_3128"/>
</filter>
<filter id="filter1_d_31_3128" x="21.8929" y="18.3652" width="33.8738" height="37.2582" filterUnits="userSpaceOnUse" color-interpolation-filters="sRGB">
<feFlood flood-opacity="0" result="BackgroundImageFix"/>
<feColorMatrix in="SourceAlpha" type="matrix" values="0 0 0 0 0 0 0 0 0 0 0 0 0 0 0 0 0 0 127 0" result="hardAlpha"/>
<feOffset dy="2"/>
<feGaussianBlur stdDeviation="2"/>
<feComposite in2="hardAlpha" operator="out"/>
<feColorMatrix type="matrix" values="0 0 0 0 0 0 0 0 0 0 0 0 0 0 0 0 0 0 0.25 0"/>
<feBlend mode="normal" in2="BackgroundImageFix" result="effect1_dropShadow_31_3128"/>
<feBlend mode="normal" in="SourceGraphic" in2="effect1_dropShadow_31_3128" result="shape"/>
</filter>
<filter id="filter2_d_31_3128" x="11.4285" y="26.1366" width="48.0869" height="45.6853" filterUnits="userSpaceOnUse" color-interpolation-filters="sRGB">
<feFlood flood-opacity="0" result="BackgroundImageFix"/>
<feColorMatrix in="SourceAlpha" type="matrix" values="0 0 0 0 0 0 0 0 0 0 0 0 0 0 0 0 0 0 127 0" result="hardAlpha"/>
<feOffset dy="2"/>
<feGaussianBlur stdDeviation="2"/>
<feComposite in2="hardAlpha" operator="out"/>
<feColorMatrix type="matrix" values="0 0 0 0 0 0 0 0 0 0 0 0 0 0 0 0 0 0 0.25 0"/>
<feBlend mode="normal" in2="BackgroundImageFix" result="effect1_dropShadow_31_3128"/>
<feBlend mode="normal" in="SourceGraphic" in2="effect1_dropShadow_31_3128" result="shape"/>
</filter>
<filter id="filter3_d_31_3128" x="46.7543" y="20.4218" width="38.5029" height="41.5422" filterUnits="userSpaceOnUse" color-interpolation-filters="sRGB">
<feFlood flood-opacity="0" result="BackgroundImageFix"/>
<feColorMatrix in="SourceAlpha" type="matrix" values="0 0 0 0 0 0 0 0 0 0 0 0 0 0 0 0 0 0 127 0" result="hardAlpha"/>
<feOffset dy="2"/>
<feGaussianBlur stdDeviation="2"/>
<feComposite in2="hardAlpha" operator="out"/>
<feColorMatrix type="matrix" values="0 0 0 0 0 0 0 0 0 0 0 0 0 0 0 0 0 0 0.25 0"/>
<feBlend mode="normal" in2="BackgroundImageFix" result="effect1_dropShadow_31_3128"/>
<feBlend mode="normal" in="SourceGraphic" in2="effect1_dropShadow_31_3128" result="shape"/>
</filter>
<filter id="filter4_d_31_3128" x="27.0349" y="32.6798" width="58.2223" height="54.5775" filterUnits="userSpaceOnUse" color-interpolation-filters="sRGB">
<feFlood flood-opacity="0" result="BackgroundImageFix"/>
<feColorMatrix in="SourceAlpha" type="matrix" values="0 0 0 0 0 0 0 0 0 0 0 0 0 0 0 0 0 0 127 0" result="hardAlpha"/>
<feOffset dy="2"/>
<feGaussianBlur stdDeviation="2"/>
<feComposite in2="hardAlpha" operator="out"/>
<feColorMatrix type="matrix" values="0 0 0 0 0 0 0 0 0 0 0 0 0 0 0 0 0 0 0.25 0"/>
<feBlend mode="normal" in2="BackgroundImageFix" result="effect1_dropShadow_31_3128"/>
<feBlend mode="normal" in="SourceGraphic" in2="effect1_dropShadow_31_3128" result="shape"/>
</filter>
<filter id="filter5_d_31_3128" x="27.0349" y="17.3366" width="49.6556" height="33.6583" filterUnits="userSpaceOnUse" color-interpolation-filters="sRGB">
<feFlood flood-opacity="0" result="BackgroundImageFix"/>
<feColorMatrix in="SourceAlpha" type="matrix" values="0 0 0 0 0 0 0 0 0 0 0 0 0 0 0 0 0 0 127 0" result="hardAlpha"/>
<feOffset dy="2"/>
<feGaussianBlur stdDeviation="2"/>
<feComposite in2="hardAlpha" operator="out"/>
<feColorMatrix type="matrix" values="0 0 0 0 0 0 0 0 0 0 0 0 0 0 0 0 0 0 0.25 0"/>
<feBlend mode="normal" in2="BackgroundImageFix" result="effect1_dropShadow_31_3128"/>
<feBlend mode="normal" in="SourceGraphic" in2="effect1_dropShadow_31_3128" result="shape"/>
</filter>
<filter id="filter6_d_31_3128" x="11.4285" y="13.4286" width="42.1425" height="25.5438" filterUnits="userSpaceOnUse" color-interpolation-filters="sRGB">
<feFlood flood-opacity="0" result="BackgroundImageFix"/>
<feColorMatrix in="SourceAlpha" type="matrix" values="0 0 0 0 0 0 0 0 0 0 0 0 0 0 0 0 0 0 127 0" result="hardAlpha"/>
<feOffset dy="2"/>
<feGaussianBlur stdDeviation="2"/>
<feComposite in2="hardAlpha" operator="out"/>
<feColorMatrix type="matrix" values="0 0 0 0 0 0 0 0 0 0 0 0 0 0 0 0 0 0 0.25 0"/>
<feBlend mode="normal" in2="BackgroundImageFix" result="effect1_dropShadow_31_3128"/>
<feBlend mode="normal" in="SourceGraphic" in2="effect1_dropShadow_31_3128" result="shape"/>
</filter>
<filter id="filter7_d_31_3128" x="23.7716" y="25.7715" width="49.1429" height="49.1428" filterUnits="userSpaceOnUse" color-interpolation-filters="sRGB">
<feFlood flood-opacity="0" result="BackgroundImageFix"/>
<feColorMatrix in="SourceAlpha" type="matrix" values="0 0 0 0 0 0 0 0 0 0 0 0 0 0 0 0 0 0 127 0" result="hardAlpha"/>
<feOffset dy="2"/>
<feGaussianBlur stdDeviation="2"/>
<feComposite in2="hardAlpha" operator="out"/>
<feColorMatrix type="matrix" values="0 0 0 0 0 0 0 0 0 0 0 0 0 0 0 0 0 0 0.25 0"/>
<feBlend mode="normal" in2="BackgroundImageFix" result="effect1_dropShadow_31_3128"/>
<feBlend mode="normal" in="SourceGraphic" in2="effect1_dropShadow_31_3128" result="shape"/>
</filter>
<linearGradient id="paint0_linear_31_3128" x1="48" y1="0" x2="48" y2="96" gradientUnits="userSpaceOnUse">
<stop stop-color="#3BEA62"/>
<stop offset="0.510417" stop-color="#087CFA"/>
<stop offset="1" stop-color="#B74AF7"/>
</linearGradient>
<linearGradient id="paint1_linear_31_3128" x1="16.2891" y1="92.1368" x2="74.5514" y2="19.789" gradientUnits="userSpaceOnUse">
<stop offset="0.01613" stop-color="#6B57FF"/>
<stop offset="0.42357" stop-color="#B74AF7"/>
<stop offset="0.74587" stop-color="#FF318C"/>
</linearGradient>
<linearGradient id="paint2_linear_31_3128" x1="27.5658" y1="53.3855" x2="46.1539" y2="17.688" gradientUnits="userSpaceOnUse">
<stop stop-color="#AF1DF5"/>
<stop offset="0.2116" stop-color="#BC20E4"/>
<stop offset="0.62822" stop-color="#DD29B8"/>
<stop offset="1" stop-color="#FF318C"/>
</linearGradient>
<linearGradient id="paint3_linear_31_3128" x1="22.2304" y1="64.3053" x2="44.7615" y2="34.544" gradientUnits="userSpaceOnUse">
<stop offset="0.01613" stop-color="#6B57FF"/>
<stop offset="0.42357" stop-color="#B74AF7"/>
<stop offset="0.74587" stop-color="#FF318C"/>
</linearGradient>
<linearGradient id="paint4_linear_31_3128" x1="73.2078" y1="56.2723" x2="60.7227" y2="26.641" gradientUnits="userSpaceOnUse">
<stop stop-color="#293896"/>
<stop offset="0.07538" stop-color="#3B3AA2"/>
<stop offset="0.2871" stop-color="#6740C0"/>
<stop offset="0.49127" stop-color="#8A44D8"/>
<stop offset="0.68315" stop-color="#A347E9"/>
<stop offset="0.85788" stop-color="#B249F3"/>
<stop offset="1" stop-color="#B74AF7"/>
</linearGradient>
<linearGradient id="paint5_linear_31_3128" x1="62.976" y1="73.7592" x2="42.2197" y2="43.3355" gradientUnits="userSpaceOnUse">
<stop offset="0.01613" stop-color="#6B57FF"/>
<stop offset="0.78291" stop-color="#B74AF7"/>
</linearGradient>
<linearGradient id="paint6_linear_31_3128" x1="56.6849" y1="57.4289" x2="49.8082" y2="21.0615" gradientUnits="userSpaceOnUse">
<stop offset="0.01613" stop-color="#6B57FF"/>
<stop offset="0.63699" stop-color="#B74AF7"/>
</linearGradient>
<linearGradient id="paint7_linear_31_3128" x1="22.9181" y1="41.6395" x2="33.6299" y2="22.1996" gradientUnits="userSpaceOnUse">
<stop stop-color="#AF1DF5"/>
<stop offset="0.2116" stop-color="#BC20E4"/>
<stop offset="0.62822" stop-color="#DD29B8"/>
<stop offset="1" stop-color="#FF318C"/>
</linearGradient>
<clipPath id="clip0_31_3128">
<rect width="96" height="96" fill="white"/>
</clipPath>
</defs>
</svg>
