<svg width="96" height="96" viewBox="0 0 96 96" fill="none" xmlns="http://www.w3.org/2000/svg">
<g clip-path="url(#clip0_31_3160)">
<path d="M72 0H24C10.7452 0 0 10.7452 0 24V72C0 85.2548 10.7452 96 24 96H72C85.2548 96 96 85.2548 96 72V24C96 10.7452 85.2548 0 72 0Z" fill="url(#paint0_linear_31_3160)"/>
<path d="M72 0H24C10.7452 0 0 10.7452 0 24V72C0 85.2548 10.7452 96 24 96H72C85.2548 96 96 85.2548 96 72V24C96 10.7452 85.2548 0 72 0Z" fill="url(#paint1_linear_31_3160)"/>
<g filter="url(#filter0_i_31_3160)">
<path d="M72 6H24C14.0589 6 6 14.0589 6 24V72C6 81.9411 14.0589 90 24 90H72C81.9411 90 90 81.9411 90 72V24C90 14.0589 81.9411 6 72 6Z" fill="black" fill-opacity="0.7"/>
<mask id="mask0_31_3160" style="mask-type:luminance" maskUnits="userSpaceOnUse" x="12" y="12" width="72" height="72">
<path d="M84 12H12V84H84V12Z" fill="white"/>
</mask>
<g mask="url(#mask0_31_3160)">
<g filter="url(#filter1_d_31_3160)">
<path d="M80.2132 64.9728L81.2572 36.4087L63.1091 32.3088L47.6785 42.6363L54.8503 63.8468L80.2147 64.9728H80.2132Z" fill="url(#paint2_linear_31_3160)"/>
</g>
<g filter="url(#filter2_d_31_3160)">
<path d="M76.194 49.6773L81.2572 36.4087L63.4019 28.5559L47.6785 42.6371L76.194 49.6773Z" fill="url(#paint3_linear_31_3160)"/>
</g>
<g filter="url(#filter3_d_31_3160)">
<path d="M57.5416 80.5718L80.2132 64.9728L25.6874 40.7568L15.4285 69.9518L57.5416 80.5718Z" fill="url(#paint4_linear_31_3160)"/>
</g>
<g filter="url(#filter4_d_31_3160)">
<path d="M15.4285 39.9072L51.7137 67.5593L76.194 49.6773L48.3777 18.8291L24.1706 14.7429L15.4285 39.9072Z" fill="url(#paint5_linear_31_3160)"/>
</g>
<g filter="url(#filter5_d_31_3160)">
<path d="M68.9145 27.0857H27.7716V68.2285H68.9145V27.0857Z" fill="black"/>
</g>
<path d="M32.5235 32.1696H38.8678C42.572 32.1696 44.8123 34.366 44.8123 37.5381V37.582C44.8123 41.1751 42.0173 43.0396 38.5346 43.0396H35.9391V47.6976H32.5235V32.1696ZM38.6456 40.0005C40.3531 40.0005 41.3522 38.9795 41.3522 37.6485V37.6046C41.3522 36.0734 40.2872 35.2526 38.5791 35.2526H35.9391V40.0005H38.6456Z" fill="white"/>
<path d="M42.9016 45.5897L45.0534 43.1945C45.9407 44.1703 46.8054 44.747 47.8922 44.747C49.1786 44.747 49.9768 43.9708 49.9768 42.1742V32.1696H53.4822V42.3292C53.4822 44.1703 52.9501 45.5452 52.0182 46.4777C51.4745 46.9737 50.8377 47.3566 50.1446 47.6041C49.4516 47.8515 48.7163 47.9586 47.9814 47.9191C47.0131 47.9441 46.0519 47.7471 45.1715 47.3434C44.291 46.9397 43.5146 46.3398 42.9016 45.5897Z" fill="white"/>
<path d="M48.3429 60.5143H32.9143V63.0857H48.3429V60.5143Z" fill="white"/>
</g>
</g>
</g>
<defs>
<filter id="filter0_i_31_3160" x="6" y="6" width="84" height="88" filterUnits="userSpaceOnUse" color-interpolation-filters="sRGB">
<feFlood flood-opacity="0" result="BackgroundImageFix"/>
<feBlend mode="normal" in="SourceGraphic" in2="BackgroundImageFix" result="shape"/>
<feColorMatrix in="SourceAlpha" type="matrix" values="0 0 0 0 0 0 0 0 0 0 0 0 0 0 0 0 0 0 127 0" result="hardAlpha"/>
<feOffset dy="4"/>
<feGaussianBlur stdDeviation="2"/>
<feComposite in2="hardAlpha" operator="arithmetic" k2="-1" k3="1"/>
<feColorMatrix type="matrix" values="0 0 0 0 0 0 0 0 0 0 0 0 0 0 0 0 0 0 0.25 0"/>
<feBlend mode="normal" in2="shape" result="effect1_innerShadow_31_3160"/>
</filter>
<filter id="filter1_d_31_3160" x="43.6785" y="30.3088" width="41.5787" height="40.664" filterUnits="userSpaceOnUse" color-interpolation-filters="sRGB">
<feFlood flood-opacity="0" result="BackgroundImageFix"/>
<feColorMatrix in="SourceAlpha" type="matrix" values="0 0 0 0 0 0 0 0 0 0 0 0 0 0 0 0 0 0 127 0" result="hardAlpha"/>
<feOffset dy="2"/>
<feGaussianBlur stdDeviation="2"/>
<feComposite in2="hardAlpha" operator="out"/>
<feColorMatrix type="matrix" values="0 0 0 0 0 0 0 0 0 0 0 0 0 0 0 0 0 0 0.25 0"/>
<feBlend mode="normal" in2="BackgroundImageFix" result="effect1_dropShadow_31_3160"/>
<feBlend mode="normal" in="SourceGraphic" in2="effect1_dropShadow_31_3160" result="shape"/>
</filter>
<filter id="filter2_d_31_3160" x="43.6785" y="26.5559" width="41.5787" height="29.1214" filterUnits="userSpaceOnUse" color-interpolation-filters="sRGB">
<feFlood flood-opacity="0" result="BackgroundImageFix"/>
<feColorMatrix in="SourceAlpha" type="matrix" values="0 0 0 0 0 0 0 0 0 0 0 0 0 0 0 0 0 0 127 0" result="hardAlpha"/>
<feOffset dy="2"/>
<feGaussianBlur stdDeviation="2"/>
<feComposite in2="hardAlpha" operator="out"/>
<feColorMatrix type="matrix" values="0 0 0 0 0 0 0 0 0 0 0 0 0 0 0 0 0 0 0.25 0"/>
<feBlend mode="normal" in2="BackgroundImageFix" result="effect1_dropShadow_31_3160"/>
<feBlend mode="normal" in="SourceGraphic" in2="effect1_dropShadow_31_3160" result="shape"/>
</filter>
<filter id="filter3_d_31_3160" x="11.4285" y="38.7568" width="72.7848" height="47.815" filterUnits="userSpaceOnUse" color-interpolation-filters="sRGB">
<feFlood flood-opacity="0" result="BackgroundImageFix"/>
<feColorMatrix in="SourceAlpha" type="matrix" values="0 0 0 0 0 0 0 0 0 0 0 0 0 0 0 0 0 0 127 0" result="hardAlpha"/>
<feOffset dy="2"/>
<feGaussianBlur stdDeviation="2"/>
<feComposite in2="hardAlpha" operator="out"/>
<feColorMatrix type="matrix" values="0 0 0 0 0 0 0 0 0 0 0 0 0 0 0 0 0 0 0.25 0"/>
<feBlend mode="normal" in2="BackgroundImageFix" result="effect1_dropShadow_31_3160"/>
<feBlend mode="normal" in="SourceGraphic" in2="effect1_dropShadow_31_3160" result="shape"/>
</filter>
<filter id="filter4_d_31_3160" x="11.4285" y="12.7429" width="68.7655" height="60.8164" filterUnits="userSpaceOnUse" color-interpolation-filters="sRGB">
<feFlood flood-opacity="0" result="BackgroundImageFix"/>
<feColorMatrix in="SourceAlpha" type="matrix" values="0 0 0 0 0 0 0 0 0 0 0 0 0 0 0 0 0 0 127 0" result="hardAlpha"/>
<feOffset dy="2"/>
<feGaussianBlur stdDeviation="2"/>
<feComposite in2="hardAlpha" operator="out"/>
<feColorMatrix type="matrix" values="0 0 0 0 0 0 0 0 0 0 0 0 0 0 0 0 0 0 0.25 0"/>
<feBlend mode="normal" in2="BackgroundImageFix" result="effect1_dropShadow_31_3160"/>
<feBlend mode="normal" in="SourceGraphic" in2="effect1_dropShadow_31_3160" result="shape"/>
</filter>
<filter id="filter5_d_31_3160" x="23.7716" y="25.0857" width="49.1429" height="49.1428" filterUnits="userSpaceOnUse" color-interpolation-filters="sRGB">
<feFlood flood-opacity="0" result="BackgroundImageFix"/>
<feColorMatrix in="SourceAlpha" type="matrix" values="0 0 0 0 0 0 0 0 0 0 0 0 0 0 0 0 0 0 127 0" result="hardAlpha"/>
<feOffset dy="2"/>
<feGaussianBlur stdDeviation="2"/>
<feComposite in2="hardAlpha" operator="out"/>
<feColorMatrix type="matrix" values="0 0 0 0 0 0 0 0 0 0 0 0 0 0 0 0 0 0 0.25 0"/>
<feBlend mode="normal" in2="BackgroundImageFix" result="effect1_dropShadow_31_3160"/>
<feBlend mode="normal" in="SourceGraphic" in2="effect1_dropShadow_31_3160" result="shape"/>
</filter>
<linearGradient id="paint0_linear_31_3160" x1="48" y1="0" x2="48" y2="96" gradientUnits="userSpaceOnUse">
<stop stop-color="#3BEA62"/>
<stop offset="0.510417" stop-color="#087CFA"/>
<stop offset="1" stop-color="#B74AF7"/>
</linearGradient>
<linearGradient id="paint1_linear_31_3160" x1="29.4459" y1="83.4825" x2="69.05" y2="22.6844" gradientUnits="userSpaceOnUse">
<stop stop-color="#6B57FF"/>
<stop offset="0.461429" stop-color="#FF318C"/>
<stop offset="1" stop-color="#FDB60D"/>
</linearGradient>
<linearGradient id="paint2_linear_31_3160" x1="71.6469" y1="60.5088" x2="62.1093" y2="32.9568" gradientUnits="userSpaceOnUse">
<stop offset="0.001" stop-color="#FF318C"/>
<stop offset="1" stop-color="#FC801D"/>
</linearGradient>
<linearGradient id="paint3_linear_31_3160" x1="74.1278" y1="30.6734" x2="65.7587" y2="41.302" gradientUnits="userSpaceOnUse">
<stop stop-color="#FF318C"/>
<stop offset="0.781" stop-color="#FC801D"/>
</linearGradient>
<linearGradient id="paint4_linear_31_3160" x1="70.6634" y1="73.4332" x2="22.6333" y2="56.1024" gradientUnits="userSpaceOnUse">
<stop offset="0.017" stop-color="#FF318C"/>
<stop offset="0.811" stop-color="#6B57FF"/>
</linearGradient>
<linearGradient id="paint5_linear_31_3160" x1="34.0669" y1="60.6727" x2="54.4936" y2="24.5952" gradientUnits="userSpaceOnUse">
<stop offset="0.33" stop-color="#FF318C"/>
<stop offset="0.942" stop-color="#FDB60D"/>
</linearGradient>
<clipPath id="clip0_31_3160">
<rect width="96" height="96" fill="white"/>
</clipPath>
</defs>
</svg>
