<svg width="96" height="96" viewBox="0 0 96 96" fill="none" xmlns="http://www.w3.org/2000/svg">
<g clip-path="url(#clip0_31_3182)">
<path d="M72 0H24C10.7452 0 0 10.7452 0 24V72C0 85.2548 10.7452 96 24 96H72C85.2548 96 96 85.2548 96 72V24C96 10.7452 85.2548 0 72 0Z" fill="url(#paint0_linear_31_3182)"/>
<g filter="url(#filter0_i_31_3182)">
<path d="M72 6H24C14.0589 6 6 14.0589 6 24V72C6 81.9411 14.0589 90 24 90H72C81.9411 90 90 81.9411 90 72V24C90 14.0589 81.9411 6 72 6Z" fill="black" fill-opacity="0.7"/>
<mask id="mask0_31_3182" style="mask-type:luminance" maskUnits="userSpaceOnUse" x="12" y="12" width="72" height="72">
<path d="M84 12H12V84H84V12Z" fill="white"/>
</mask>
<g mask="url(#mask0_31_3182)">
<g filter="url(#filter1_d_31_3182)">
<g filter="url(#filter2_d_31_3182)">
<path d="M61.2412 25.4743L80.4758 41.472L73.5498 55.5635L61.9543 52.3475H51.9223L61.2412 25.4743Z" fill="#07C3F2"/>
</g>
<g filter="url(#filter3_d_31_3182)">
<path d="M41.8629 35.8628L38.1394 55.5634L37.7829 62.256L28.3954 66.3223L15.0858 67.7554L19.1246 25.1931L43.2411 15.0857L58.1006 24.8297L41.8629 35.8628Z" fill="#21D789"/>
</g>
<g filter="url(#filter4_d_31_3182)">
<path d="M41.8629 35.8628L43.6731 73.824L37.6594 80.9145L15.0858 67.7554L33.6206 40.1348L41.8629 35.8628Z" fill="#7AE46F"/>
</g>
<g filter="url(#filter5_d_31_3182)">
<path d="M66.6995 33.0926H43.8926L64.0458 15.0857L66.6995 33.0926Z" fill="#9AF156"/>
</g>
<g filter="url(#filter6_d_31_3182)">
<path d="M80.9145 73.9749L60.8366 80.7907L34.1006 73.2617L41.8629 35.8629L44.9624 33.0926L61.2413 31.5634L59.7669 47.9109L72.7133 42.8914L80.9145 73.9749Z" fill="#FCF84A"/>
</g>
<g filter="url(#filter7_d_31_3182)">
<path d="M27.4286 27.4285H68.5716V68.5714H27.4286V27.4285Z" fill="black"/>
</g>
<path d="M32.5578 60.7954H47.9864V63.3668H32.5578V60.7954Z" fill="white"/>
<path d="M32.5715 32.5714H38.8801C42.5555 32.5714 44.7841 34.752 44.7841 37.8994V37.9405C44.7841 41.5063 42.007 43.3577 38.551 43.3577H36.0001V47.9794H32.5715V32.5714ZM38.647 40.3405C40.3407 40.3405 41.335 39.3325 41.335 38.0092V37.968C41.335 36.4457 40.279 35.6297 38.5921 35.6297H36.0001V40.3405H38.647Z" fill="white"/>
<path d="M46.6219 40.3269V40.2857C46.6021 39.2287 46.7967 38.1785 47.194 37.1988C47.5913 36.2191 48.1831 35.33 48.9335 34.5853C49.684 33.8406 50.5776 33.2558 51.5604 32.866C52.5432 32.4763 53.5948 32.2898 54.6517 32.3177C55.7745 32.261 56.8966 32.4431 57.9439 32.852C58.9912 33.2611 59.9398 33.8876 60.727 34.6903L58.5739 37.1795C57.5375 36.1062 56.1224 35.4811 54.631 35.4377C52.0322 35.4377 50.1602 37.5977 50.1602 40.2377V40.2857C50.1602 42.9257 51.991 45.1269 54.631 45.1269C56.3933 45.1269 57.4699 44.4412 58.6837 43.3235L60.8368 45.4972C60.0613 46.4037 59.0897 47.1218 57.9955 47.5971C56.9012 48.0723 55.7131 48.2922 54.5213 48.24C53.4784 48.2558 52.4431 48.0618 51.4766 47.6695C50.5102 47.2772 49.6324 46.6947 48.8956 45.9566C48.1587 45.2184 47.5777 44.3397 47.1871 43.3726C46.7965 42.4055 46.6043 41.3697 46.6219 40.3269Z" fill="white"/>
</g>
</g>
</g>
</g>
<defs>
<filter id="filter0_i_31_3182" x="6" y="6" width="84" height="88" filterUnits="userSpaceOnUse" color-interpolation-filters="sRGB">
<feFlood flood-opacity="0" result="BackgroundImageFix"/>
<feBlend mode="normal" in="SourceGraphic" in2="BackgroundImageFix" result="shape"/>
<feColorMatrix in="SourceAlpha" type="matrix" values="0 0 0 0 0 0 0 0 0 0 0 0 0 0 0 0 0 0 127 0" result="hardAlpha"/>
<feOffset dy="4"/>
<feGaussianBlur stdDeviation="2"/>
<feComposite in2="hardAlpha" operator="arithmetic" k2="-1" k3="1"/>
<feColorMatrix type="matrix" values="0 0 0 0 0 0 0 0 0 0 0 0 0 0 0 0 0 0 0.25 0"/>
<feBlend mode="normal" in2="shape" result="effect1_innerShadow_31_3182"/>
</filter>
<filter id="filter1_d_31_3182" x="11.0858" y="13.0857" width="73.8288" height="73.8288" filterUnits="userSpaceOnUse" color-interpolation-filters="sRGB">
<feFlood flood-opacity="0" result="BackgroundImageFix"/>
<feColorMatrix in="SourceAlpha" type="matrix" values="0 0 0 0 0 0 0 0 0 0 0 0 0 0 0 0 0 0 127 0" result="hardAlpha"/>
<feOffset dy="2"/>
<feGaussianBlur stdDeviation="2"/>
<feComposite in2="hardAlpha" operator="out"/>
<feColorMatrix type="matrix" values="0 0 0 0 0 0 0 0 0 0 0 0 0 0 0 0 0 0 0.25 0"/>
<feBlend mode="normal" in2="BackgroundImageFix" result="effect1_dropShadow_31_3182"/>
<feBlend mode="normal" in="SourceGraphic" in2="effect1_dropShadow_31_3182" result="shape"/>
</filter>
<filter id="filter2_d_31_3182" x="47.9223" y="23.4743" width="36.5535" height="38.0892" filterUnits="userSpaceOnUse" color-interpolation-filters="sRGB">
<feFlood flood-opacity="0" result="BackgroundImageFix"/>
<feColorMatrix in="SourceAlpha" type="matrix" values="0 0 0 0 0 0 0 0 0 0 0 0 0 0 0 0 0 0 127 0" result="hardAlpha"/>
<feOffset dy="2"/>
<feGaussianBlur stdDeviation="2"/>
<feComposite in2="hardAlpha" operator="out"/>
<feColorMatrix type="matrix" values="0 0 0 0 0 0 0 0 0 0 0 0 0 0 0 0 0 0 0.25 0"/>
<feBlend mode="normal" in2="BackgroundImageFix" result="effect1_dropShadow_31_3182"/>
<feBlend mode="normal" in="SourceGraphic" in2="effect1_dropShadow_31_3182" result="shape"/>
</filter>
<filter id="filter3_d_31_3182" x="11.0858" y="13.0857" width="51.0148" height="60.6696" filterUnits="userSpaceOnUse" color-interpolation-filters="sRGB">
<feFlood flood-opacity="0" result="BackgroundImageFix"/>
<feColorMatrix in="SourceAlpha" type="matrix" values="0 0 0 0 0 0 0 0 0 0 0 0 0 0 0 0 0 0 127 0" result="hardAlpha"/>
<feOffset dy="2"/>
<feGaussianBlur stdDeviation="2"/>
<feComposite in2="hardAlpha" operator="out"/>
<feColorMatrix type="matrix" values="0 0 0 0 0 0 0 0 0 0 0 0 0 0 0 0 0 0 0.25 0"/>
<feBlend mode="normal" in2="BackgroundImageFix" result="effect1_dropShadow_31_3182"/>
<feBlend mode="normal" in="SourceGraphic" in2="effect1_dropShadow_31_3182" result="shape"/>
</filter>
<filter id="filter4_d_31_3182" x="11.0858" y="33.8628" width="36.5874" height="53.0517" filterUnits="userSpaceOnUse" color-interpolation-filters="sRGB">
<feFlood flood-opacity="0" result="BackgroundImageFix"/>
<feColorMatrix in="SourceAlpha" type="matrix" values="0 0 0 0 0 0 0 0 0 0 0 0 0 0 0 0 0 0 127 0" result="hardAlpha"/>
<feOffset dy="2"/>
<feGaussianBlur stdDeviation="2"/>
<feComposite in2="hardAlpha" operator="out"/>
<feColorMatrix type="matrix" values="0 0 0 0 0 0 0 0 0 0 0 0 0 0 0 0 0 0 0.25 0"/>
<feBlend mode="normal" in2="BackgroundImageFix" result="effect1_dropShadow_31_3182"/>
<feBlend mode="normal" in="SourceGraphic" in2="effect1_dropShadow_31_3182" result="shape"/>
</filter>
<filter id="filter5_d_31_3182" x="39.8926" y="13.0857" width="30.8069" height="26.0068" filterUnits="userSpaceOnUse" color-interpolation-filters="sRGB">
<feFlood flood-opacity="0" result="BackgroundImageFix"/>
<feColorMatrix in="SourceAlpha" type="matrix" values="0 0 0 0 0 0 0 0 0 0 0 0 0 0 0 0 0 0 127 0" result="hardAlpha"/>
<feOffset dy="2"/>
<feGaussianBlur stdDeviation="2"/>
<feComposite in2="hardAlpha" operator="out"/>
<feColorMatrix type="matrix" values="0 0 0 0 0 0 0 0 0 0 0 0 0 0 0 0 0 0 0.25 0"/>
<feBlend mode="normal" in2="BackgroundImageFix" result="effect1_dropShadow_31_3182"/>
<feBlend mode="normal" in="SourceGraphic" in2="effect1_dropShadow_31_3182" result="shape"/>
</filter>
<filter id="filter6_d_31_3182" x="30.1006" y="29.5634" width="54.8139" height="57.2273" filterUnits="userSpaceOnUse" color-interpolation-filters="sRGB">
<feFlood flood-opacity="0" result="BackgroundImageFix"/>
<feColorMatrix in="SourceAlpha" type="matrix" values="0 0 0 0 0 0 0 0 0 0 0 0 0 0 0 0 0 0 127 0" result="hardAlpha"/>
<feOffset dy="2"/>
<feGaussianBlur stdDeviation="2"/>
<feComposite in2="hardAlpha" operator="out"/>
<feColorMatrix type="matrix" values="0 0 0 0 0 0 0 0 0 0 0 0 0 0 0 0 0 0 0.25 0"/>
<feBlend mode="normal" in2="BackgroundImageFix" result="effect1_dropShadow_31_3182"/>
<feBlend mode="normal" in="SourceGraphic" in2="effect1_dropShadow_31_3182" result="shape"/>
</filter>
<filter id="filter7_d_31_3182" x="23.4286" y="25.4286" width="49.1429" height="49.1429" filterUnits="userSpaceOnUse" color-interpolation-filters="sRGB">
<feFlood flood-opacity="0" result="BackgroundImageFix"/>
<feColorMatrix in="SourceAlpha" type="matrix" values="0 0 0 0 0 0 0 0 0 0 0 0 0 0 0 0 0 0 127 0" result="hardAlpha"/>
<feOffset dy="2"/>
<feGaussianBlur stdDeviation="2"/>
<feComposite in2="hardAlpha" operator="out"/>
<feColorMatrix type="matrix" values="0 0 0 0 0 0 0 0 0 0 0 0 0 0 0 0 0 0 0.25 0"/>
<feBlend mode="normal" in2="BackgroundImageFix" result="effect1_dropShadow_31_3182"/>
<feBlend mode="normal" in="SourceGraphic" in2="effect1_dropShadow_31_3182" result="shape"/>
</filter>
<linearGradient id="paint0_linear_31_3182" x1="48" y1="0" x2="48" y2="96" gradientUnits="userSpaceOnUse">
<stop stop-color="#FCF84A"/>
<stop offset="0.244792" stop-color="#9AF156"/>
<stop offset="0.510417" stop-color="#7AE36F"/>
<stop offset="0.744792" stop-color="#21D789"/>
<stop offset="1" stop-color="#07C3F2"/>
</linearGradient>
<clipPath id="clip0_31_3182">
<rect width="96" height="96" fill="white"/>
</clipPath>
</defs>
</svg>
