<svg width="96" height="96" viewBox="0 0 96 96" fill="none" xmlns="http://www.w3.org/2000/svg">
<g clip-path="url(#clip0_31_3205)">
<path d="M72 0H24C10.7452 0 0 10.7452 0 24V72C0 85.2548 10.7452 96 24 96H72C85.2548 96 96 85.2548 96 72V24C96 10.7452 85.2548 0 72 0Z" fill="url(#paint0_linear_31_3205)"/>
<path d="M72 0H24C10.7452 0 0 10.7452 0 24V72C0 85.2548 10.7452 96 24 96H72C85.2548 96 96 85.2548 96 72V24C96 10.7452 85.2548 0 72 0Z" fill="url(#paint1_linear_31_3205)"/>
<g filter="url(#filter0_i_31_3205)">
<path d="M72 6H24C14.0589 6 6 14.0589 6 24V72C6 81.9411 14.0589 90 24 90H72C81.9411 90 90 81.9411 90 72V24C90 14.0589 81.9411 6 72 6Z" fill="black" fill-opacity="0.7"/>
<mask id="mask0_31_3205" style="mask-type:luminance" maskUnits="userSpaceOnUse" x="12" y="12" width="72" height="72">
<path d="M84 12H12V84H84V12Z" fill="white"/>
</mask>
<g mask="url(#mask0_31_3205)">
<g filter="url(#filter1_d_31_3205)">
<path d="M60.3751 43.348L25.6519 50.6268C24.7454 50.7667 23.8492 50.9659 22.9688 51.223C20.2102 52.0389 17.7805 53.7066 16.0276 55.9874C5.66064 69.4537 16.7813 87.054 32.6775 83.55L70.7701 78.0315C74.7886 77.1353 78.303 74.7158 80.5747 71.2818C90.396 56.6174 77.6775 38.2743 60.3751 43.348Z" fill="url(#paint2_linear_31_3205)"/>
</g>
<g filter="url(#filter2_d_31_3205)">
<path d="M41.2895 16.5844C37.0088 12.6469 30.7201 10.8188 23.6607 12.8831C20.7287 13.7507 18.1457 15.5225 16.2807 17.9456C9.18759 27.1875 11.5613 38.2238 18.677 43.9219L56.5726 75.5625C58.6475 76.9163 60.9772 77.8313 63.4187 78.252C65.8601 78.6728 68.3618 78.5903 70.7701 78.009C74.7886 77.1128 78.303 74.6934 80.5748 71.2594C86.4248 62.5575 84.2813 52.5 77.931 46.875L41.2895 16.5844Z" fill="url(#paint3_linear_31_3205)"/>
</g>
<g filter="url(#filter3_d_31_3205)">
<path d="M28.5037 12.0844C26.8666 12.1875 25.2441 12.4551 23.6606 12.8831C20.7286 13.7507 18.1456 15.5225 16.2806 17.9456C5.24997 32.25 17.0625 50.9812 33.9825 47.2519L79.3927 30.1238C80.7105 29.8322 81.8632 29.0419 82.6102 27.9187C85.4227 23.6775 82.5487 18.5081 77.9302 18.48L30.3881 12C29.7131 12 29.0831 12.0394 28.5037 12.0844Z" fill="url(#paint4_linear_31_3205)"/>
</g>
<g filter="url(#filter4_d_31_3205)">
<path d="M25.5 25.5H70.5V70.5H25.5V25.5Z" fill="black"/>
</g>
<path d="M31.125 62.0625H48V64.875H31.125V62.0625Z" fill="white"/>
<path d="M45.75 48.4556L43.8938 46.7681C42.4007 47.7204 40.664 48.2205 38.8931 48.2081C33.7012 48.2362 30 44.3662 30 39.5625C30 34.7756 33.7744 30.855 39 30.855C44.2256 30.855 47.9213 34.725 47.9213 39.5119V39.5625C47.9156 41.2855 47.3967 42.9677 46.4306 44.3944L48.1631 45.8625L45.75 48.4556ZM41.1544 44.3662L38.4375 42.0319L40.7944 39.3881L43.5563 41.8912C43.86 41.1531 44.0093 40.3606 43.995 39.5625C44.0184 38.8772 43.9038 38.1942 43.6581 37.554C43.4124 36.9138 43.0405 36.3295 42.5647 35.8358C42.0888 35.3421 41.5186 34.949 40.8879 34.6799C40.2572 34.4109 39.5788 34.2712 38.8931 34.2694C35.9119 34.2694 33.8306 36.6262 33.8306 39.5119V39.5625C33.8073 40.2471 33.9217 40.9294 34.1671 41.5689C34.4125 42.2083 34.784 42.7921 35.2593 43.2853C35.7347 43.7784 36.3042 44.1711 36.9343 44.4399C37.5643 44.7087 38.2419 44.8481 38.9269 44.85C39.6967 44.8618 40.4588 44.6962 41.1544 44.3662Z" fill="white"/>
<path d="M50.7394 31.125H57.0844C62.3719 31.125 66.0282 34.7587 66.0282 39.495V39.5625C66.0282 44.2988 62.3719 48 57.0844 48H50.7394V31.125ZM54.4407 34.5V44.625H57.0844C60.1107 44.625 62.1469 42.5775 62.1469 39.5962V39.5625C62.179 38.8891 62.0701 38.2165 61.8271 37.5878C61.584 36.959 61.2122 36.3881 60.7355 35.9114C60.2589 35.4347 59.6879 35.0629 59.0591 34.8199C58.4304 34.5769 57.7578 34.4679 57.0844 34.5H54.4407Z" fill="white"/>
</g>
</g>
</g>
<defs>
<filter id="filter0_i_31_3205" x="6" y="6" width="84" height="88" filterUnits="userSpaceOnUse" color-interpolation-filters="sRGB">
<feFlood flood-opacity="0" result="BackgroundImageFix"/>
<feBlend mode="normal" in="SourceGraphic" in2="BackgroundImageFix" result="shape"/>
<feColorMatrix in="SourceAlpha" type="matrix" values="0 0 0 0 0 0 0 0 0 0 0 0 0 0 0 0 0 0 127 0" result="hardAlpha"/>
<feOffset dy="4"/>
<feGaussianBlur stdDeviation="2"/>
<feComposite in2="hardAlpha" operator="arithmetic" k2="-1" k3="1"/>
<feColorMatrix type="matrix" values="0 0 0 0 0 0 0 0 0 0 0 0 0 0 0 0 0 0 0.25 0"/>
<feBlend mode="normal" in2="shape" result="effect1_innerShadow_31_3205"/>
</filter>
<filter id="filter1_d_31_3205" x="8.00073" y="40.4854" width="79.9987" height="49.5166" filterUnits="userSpaceOnUse" color-interpolation-filters="sRGB">
<feFlood flood-opacity="0" result="BackgroundImageFix"/>
<feColorMatrix in="SourceAlpha" type="matrix" values="0 0 0 0 0 0 0 0 0 0 0 0 0 0 0 0 0 0 127 0" result="hardAlpha"/>
<feOffset dy="2"/>
<feGaussianBlur stdDeviation="2"/>
<feComposite in2="hardAlpha" operator="out"/>
<feColorMatrix type="matrix" values="0 0 0 0 0 0 0 0 0 0 0 0 0 0 0 0 0 0 0.25 0"/>
<feBlend mode="normal" in2="BackgroundImageFix" result="effect1_dropShadow_31_3205"/>
<feBlend mode="normal" in="SourceGraphic" in2="effect1_dropShadow_31_3205" result="shape"/>
</filter>
<filter id="filter2_d_31_3205" x="8.00311" y="10.0253" width="79.9976" height="74.4909" filterUnits="userSpaceOnUse" color-interpolation-filters="sRGB">
<feFlood flood-opacity="0" result="BackgroundImageFix"/>
<feColorMatrix in="SourceAlpha" type="matrix" values="0 0 0 0 0 0 0 0 0 0 0 0 0 0 0 0 0 0 127 0" result="hardAlpha"/>
<feOffset dy="2"/>
<feGaussianBlur stdDeviation="2"/>
<feComposite in2="hardAlpha" operator="out"/>
<feColorMatrix type="matrix" values="0 0 0 0 0 0 0 0 0 0 0 0 0 0 0 0 0 0 0.25 0"/>
<feBlend mode="normal" in2="BackgroundImageFix" result="effect1_dropShadow_31_3205"/>
<feBlend mode="normal" in="SourceGraphic" in2="effect1_dropShadow_31_3205" result="shape"/>
</filter>
<filter id="filter3_d_31_3205" x="7.99249" y="10" width="79.73" height="43.733" filterUnits="userSpaceOnUse" color-interpolation-filters="sRGB">
<feFlood flood-opacity="0" result="BackgroundImageFix"/>
<feColorMatrix in="SourceAlpha" type="matrix" values="0 0 0 0 0 0 0 0 0 0 0 0 0 0 0 0 0 0 127 0" result="hardAlpha"/>
<feOffset dy="2"/>
<feGaussianBlur stdDeviation="2"/>
<feComposite in2="hardAlpha" operator="out"/>
<feColorMatrix type="matrix" values="0 0 0 0 0 0 0 0 0 0 0 0 0 0 0 0 0 0 0.25 0"/>
<feBlend mode="normal" in2="BackgroundImageFix" result="effect1_dropShadow_31_3205"/>
<feBlend mode="normal" in="SourceGraphic" in2="effect1_dropShadow_31_3205" result="shape"/>
</filter>
<filter id="filter4_d_31_3205" x="21.5" y="23.5" width="53" height="53" filterUnits="userSpaceOnUse" color-interpolation-filters="sRGB">
<feFlood flood-opacity="0" result="BackgroundImageFix"/>
<feColorMatrix in="SourceAlpha" type="matrix" values="0 0 0 0 0 0 0 0 0 0 0 0 0 0 0 0 0 0 127 0" result="hardAlpha"/>
<feOffset dy="2"/>
<feGaussianBlur stdDeviation="2"/>
<feComposite in2="hardAlpha" operator="out"/>
<feColorMatrix type="matrix" values="0 0 0 0 0 0 0 0 0 0 0 0 0 0 0 0 0 0 0.25 0"/>
<feBlend mode="normal" in2="BackgroundImageFix" result="effect1_dropShadow_31_3205"/>
<feBlend mode="normal" in="SourceGraphic" in2="effect1_dropShadow_31_3205" result="shape"/>
</filter>
<linearGradient id="paint0_linear_31_3205" x1="48" y1="0" x2="48" y2="96" gradientUnits="userSpaceOnUse">
<stop stop-color="#3BEA62"/>
<stop offset="0.510417" stop-color="#087CFA"/>
<stop offset="1" stop-color="#B74AF7"/>
</linearGradient>
<linearGradient id="paint1_linear_31_3205" x1="29.4459" y1="83.4825" x2="69.05" y2="22.6844" gradientUnits="userSpaceOnUse">
<stop stop-color="#6B57FF"/>
<stop offset="0.461429" stop-color="#FF318C"/>
<stop offset="1" stop-color="#FDB60D"/>
</linearGradient>
<linearGradient id="paint2_linear_31_3205" x1="10.5319" y1="68.5368" x2="69.2907" y2="60.0881" gradientUnits="userSpaceOnUse">
<stop offset="0.18" stop-color="#FC801D"/>
<stop offset="0.63" stop-color="#FF318C"/>
</linearGradient>
<linearGradient id="paint3_linear_31_3205" x1="1.95947" y1="11.1169" x2="85.5248" y2="73.2225" gradientUnits="userSpaceOnUse">
<stop stop-color="#FF318C"/>
<stop offset="0.4" stop-color="#B74AF7"/>
<stop offset="0.87" stop-color="#FF318C"/>
</linearGradient>
<linearGradient id="paint4_linear_31_3205" x1="-7.74939" y1="38.6344" x2="84.9225" y2="16.8994" gradientUnits="userSpaceOnUse">
<stop stop-color="#FF318C"/>
<stop offset="0.2" stop-color="#D73BAB"/>
<stop offset="0.51" stop-color="#9D4AD8"/>
<stop offset="0.75" stop-color="#7953F4"/>
<stop offset="0.87" stop-color="#6B57FF"/>
</linearGradient>
<clipPath id="clip0_31_3205">
<rect width="96" height="96" fill="white"/>
</clipPath>
</defs>
</svg>
