<svg width="96" height="96" viewBox="0 0 96 96" fill="none" xmlns="http://www.w3.org/2000/svg">
<g clip-path="url(#clip0_31_3246)">
<path d="M72 0H24C10.7452 0 0 10.7452 0 24V72C0 85.2548 10.7452 96 24 96H72C85.2548 96 96 85.2548 96 72V24C96 10.7452 85.2548 0 72 0Z" fill="url(#paint0_linear_31_3246)"/>
<path d="M72 0H24C10.7452 0 0 10.7452 0 24V72C0 85.2548 10.7452 96 24 96H72C85.2548 96 96 85.2548 96 72V24C96 10.7452 85.2548 0 72 0Z" fill="url(#paint1_linear_31_3246)"/>
<g filter="url(#filter0_i_31_3246)">
<path d="M72 6H24C14.0589 6 6 14.0589 6 24V72C6 81.9411 14.0589 90 24 90H72C81.9411 90 90 81.9411 90 72V24C90 14.0589 81.9411 6 72 6Z" fill="black" fill-opacity="0.7"/>
<mask id="mask0_31_3246" style="mask-type:luminance" maskUnits="userSpaceOnUse" x="12" y="12" width="72" height="72">
<path d="M84 12H12V84H84V12Z" fill="white"/>
</mask>
<g mask="url(#mask0_31_3246)">
<g filter="url(#filter1_d_31_3246)">
<path d="M32.8525 29.7532L30.9188 64.2104L25.9473 80.832L15.0857 36.6926L32.8525 29.7532Z" fill="url(#paint2_linear_31_3246)"/>
</g>
<g filter="url(#filter2_d_31_3246)">
<path d="M32.8526 29.7531L34.8481 15.0034L61.3715 80.832H25.9475L30.919 64.2103L32.8526 29.7531Z" fill="url(#paint3_linear_31_3246)"/>
</g>
<g filter="url(#filter3_d_31_3246)">
<path d="M48.24 59.2663H80.9145L69.9909 15.0034H34.848L48.24 59.2663Z" fill="url(#paint4_linear_31_3246)"/>
</g>
<g filter="url(#filter4_d_31_3246)">
<path d="M27.4286 27.4285H68.5715V68.5714H27.4286V27.4285Z" fill="black"/>
</g>
<path d="M32.5577 60.7955H47.9863V63.3669H32.5577V60.7955Z" fill="white"/>
<path d="M32.5715 32.5303H39.6207C40.4386 32.4765 41.2589 32.5878 42.0329 32.8576C42.8069 33.1274 43.5186 33.55 44.1258 34.1006C44.5755 34.5697 44.9253 35.1251 45.1539 35.7333C45.3826 36.3415 45.4854 36.9898 45.4561 37.6389V37.6869C45.5029 38.7807 45.1792 39.8583 44.5373 40.7452C43.9268 41.5337 43.1071 42.1348 42.1715 42.4801L45.9498 48.0069H41.9727L38.743 43.2549H35.9315V48.0069H32.5715V32.5303ZM39.4287 40.0732C40.1214 40.0977 40.7993 39.8685 41.335 39.4286C41.5581 39.2293 41.735 38.9837 41.8535 38.7089C41.9719 38.4341 42.029 38.1368 42.0207 37.8378V37.7966C42.0446 37.4856 41.9949 37.1734 41.8758 36.8851C41.7566 36.5968 41.5714 36.3406 41.335 36.1372C40.7591 35.7386 40.0659 35.5454 39.367 35.5886H35.9453V40.0458L39.4287 40.0732Z" fill="white"/>
<path d="M56.6811 37.6389H53.1428V34.5189H56.6536V31.0354H59.8628V34.5189H63.4285V37.6389H59.8902V41.1223H56.6811V37.6389Z" fill="white"/>
<path d="M49.968 46.0801H46.464V42.9601H49.968V39.4766H53.1772V42.9601H56.6812V46.0801H53.1772V49.5634H49.968V46.0801Z" fill="white"/>
</g>
</g>
</g>
<defs>
<filter id="filter0_i_31_3246" x="6" y="6" width="84" height="88" filterUnits="userSpaceOnUse" color-interpolation-filters="sRGB">
<feFlood flood-opacity="0" result="BackgroundImageFix"/>
<feBlend mode="normal" in="SourceGraphic" in2="BackgroundImageFix" result="shape"/>
<feColorMatrix in="SourceAlpha" type="matrix" values="0 0 0 0 0 0 0 0 0 0 0 0 0 0 0 0 0 0 127 0" result="hardAlpha"/>
<feOffset dy="4"/>
<feGaussianBlur stdDeviation="2"/>
<feComposite in2="hardAlpha" operator="arithmetic" k2="-1" k3="1"/>
<feColorMatrix type="matrix" values="0 0 0 0 0 0 0 0 0 0 0 0 0 0 0 0 0 0 0.25 0"/>
<feBlend mode="normal" in2="shape" result="effect1_innerShadow_31_3246"/>
</filter>
<filter id="filter1_d_31_3246" x="11.0857" y="27.7532" width="25.7668" height="59.0788" filterUnits="userSpaceOnUse" color-interpolation-filters="sRGB">
<feFlood flood-opacity="0" result="BackgroundImageFix"/>
<feColorMatrix in="SourceAlpha" type="matrix" values="0 0 0 0 0 0 0 0 0 0 0 0 0 0 0 0 0 0 127 0" result="hardAlpha"/>
<feOffset dy="2"/>
<feGaussianBlur stdDeviation="2"/>
<feComposite in2="hardAlpha" operator="out"/>
<feColorMatrix type="matrix" values="0 0 0 0 0 0 0 0 0 0 0 0 0 0 0 0 0 0 0.25 0"/>
<feBlend mode="normal" in2="BackgroundImageFix" result="effect1_dropShadow_31_3246"/>
<feBlend mode="normal" in="SourceGraphic" in2="effect1_dropShadow_31_3246" result="shape"/>
</filter>
<filter id="filter2_d_31_3246" x="21.9475" y="13.0034" width="43.424" height="73.8286" filterUnits="userSpaceOnUse" color-interpolation-filters="sRGB">
<feFlood flood-opacity="0" result="BackgroundImageFix"/>
<feColorMatrix in="SourceAlpha" type="matrix" values="0 0 0 0 0 0 0 0 0 0 0 0 0 0 0 0 0 0 127 0" result="hardAlpha"/>
<feOffset dy="2"/>
<feGaussianBlur stdDeviation="2"/>
<feComposite in2="hardAlpha" operator="out"/>
<feColorMatrix type="matrix" values="0 0 0 0 0 0 0 0 0 0 0 0 0 0 0 0 0 0 0.25 0"/>
<feBlend mode="normal" in2="BackgroundImageFix" result="effect1_dropShadow_31_3246"/>
<feBlend mode="normal" in="SourceGraphic" in2="effect1_dropShadow_31_3246" result="shape"/>
</filter>
<filter id="filter3_d_31_3246" x="30.848" y="13.0034" width="54.0664" height="52.2629" filterUnits="userSpaceOnUse" color-interpolation-filters="sRGB">
<feFlood flood-opacity="0" result="BackgroundImageFix"/>
<feColorMatrix in="SourceAlpha" type="matrix" values="0 0 0 0 0 0 0 0 0 0 0 0 0 0 0 0 0 0 127 0" result="hardAlpha"/>
<feOffset dy="2"/>
<feGaussianBlur stdDeviation="2"/>
<feComposite in2="hardAlpha" operator="out"/>
<feColorMatrix type="matrix" values="0 0 0 0 0 0 0 0 0 0 0 0 0 0 0 0 0 0 0.25 0"/>
<feBlend mode="normal" in2="BackgroundImageFix" result="effect1_dropShadow_31_3246"/>
<feBlend mode="normal" in="SourceGraphic" in2="effect1_dropShadow_31_3246" result="shape"/>
</filter>
<filter id="filter4_d_31_3246" x="23.4286" y="25.4286" width="49.1429" height="49.1429" filterUnits="userSpaceOnUse" color-interpolation-filters="sRGB">
<feFlood flood-opacity="0" result="BackgroundImageFix"/>
<feColorMatrix in="SourceAlpha" type="matrix" values="0 0 0 0 0 0 0 0 0 0 0 0 0 0 0 0 0 0 127 0" result="hardAlpha"/>
<feOffset dy="2"/>
<feGaussianBlur stdDeviation="2"/>
<feComposite in2="hardAlpha" operator="out"/>
<feColorMatrix type="matrix" values="0 0 0 0 0 0 0 0 0 0 0 0 0 0 0 0 0 0 0.25 0"/>
<feBlend mode="normal" in2="BackgroundImageFix" result="effect1_dropShadow_31_3246"/>
<feBlend mode="normal" in="SourceGraphic" in2="effect1_dropShadow_31_3246" result="shape"/>
</filter>
<linearGradient id="paint0_linear_31_3246" x1="48" y1="0" x2="48" y2="96" gradientUnits="userSpaceOnUse">
<stop stop-color="#3BEA62"/>
<stop offset="0.510417" stop-color="#087CFA"/>
<stop offset="1" stop-color="#B74AF7"/>
</linearGradient>
<linearGradient id="paint1_linear_31_3246" x1="8.78835" y1="-3.94113" x2="100.046" y2="100.769" gradientUnits="userSpaceOnUse">
<stop offset="0.18" stop-color="#FDB60D"/>
<stop offset="0.49" stop-color="#FF45ED"/>
<stop offset="0.82" stop-color="#DD1265"/>
</linearGradient>
<linearGradient id="paint2_linear_31_3246" x1="19.9062" y1="31.2754" x2="39.84" y2="81.696" gradientUnits="userSpaceOnUse">
<stop offset="0.22" stop-color="#DD1265"/>
<stop offset="0.74" stop-color="#FF45ED"/>
<stop offset="1" stop-color="#FDB60D"/>
</linearGradient>
<linearGradient id="paint3_linear_31_3246" x1="64.2515" y1="83.9242" x2="15.5041" y2="32.0708" gradientUnits="userSpaceOnUse">
<stop offset="0.11" stop-color="#FDB60D"/>
<stop offset="0.51" stop-color="#FF45ED"/>
<stop offset="0.76" stop-color="#FF45ED"/>
<stop offset="1" stop-color="#FDB60D"/>
</linearGradient>
<linearGradient id="paint4_linear_31_3246" x1="39.0652" y1="13.1863" x2="80.8799" y2="63.1199" gradientUnits="userSpaceOnUse">
<stop offset="0.18" stop-color="#FDB60D"/>
<stop offset="0.49" stop-color="#FF45ED"/>
<stop offset="0.82" stop-color="#DD1265"/>
</linearGradient>
<clipPath id="clip0_31_3246">
<rect width="96" height="96" fill="white"/>
</clipPath>
</defs>
</svg>
