<svg width="96" height="96" viewBox="0 0 96 96" fill="none" xmlns="http://www.w3.org/2000/svg">
<g clip-path="url(#clip0_31_3225)">
<path d="M72 0H24C10.7452 0 0 10.7452 0 24V72C0 85.2548 10.7452 96 24 96H72C85.2548 96 96 85.2548 96 72V24C96 10.7452 85.2548 0 72 0Z" fill="url(#paint0_linear_31_3225)"/>
<path d="M72 0H24C10.7452 0 0 10.7452 0 24V72C0 85.2548 10.7452 96 24 96H72C85.2548 96 96 85.2548 96 72V24C96 10.7452 85.2548 0 72 0Z" fill="url(#paint1_linear_31_3225)"/>
<g filter="url(#filter0_i_31_3225)">
<path d="M72 6H24C14.0589 6 6 14.0589 6 24V72C6 81.9411 14.0589 90 24 90H72C81.9411 90 90 81.9411 90 72V24C90 14.0589 81.9411 6 72 6Z" fill="black" fill-opacity="0.7"/>
<mask id="mask0_31_3225" style="mask-type:luminance" maskUnits="userSpaceOnUse" x="11" y="11" width="73" height="73">
<path d="M83.625 11.625H11.625V83.625H83.625V11.625Z" fill="white"/>
</mask>
<g mask="url(#mask0_31_3225)">
<g filter="url(#filter1_d_31_3225)">
<path d="M62.8547 29.3987L39.5199 58.8844L34.2536 80.4435H69.6776L80.5396 36.3038L62.8547 29.3987Z" fill="url(#paint2_linear_31_3225)"/>
</g>
<g filter="url(#filter2_d_31_3225)">
<path d="M60.777 14.6147H25.6341L14.7108 58.8845H67.0033L60.777 14.6147Z" fill="url(#paint3_linear_31_3225)"/>
</g>
<g filter="url(#filter3_d_31_3225)">
<path d="M62.6079 27.1359L60.7771 14.6147L56.8274 27.1359H62.6079Z" fill="url(#paint4_linear_31_3225)"/>
</g>
<g filter="url(#filter4_d_31_3225)">
<path d="M27.0536 27.0536H68.1966V68.1965H27.0536V27.0536Z" fill="black"/>
</g>
<g filter="url(#filter5_d_31_3225)">
<path d="M32.1828 60.4205H47.6114V62.9919H32.1828V60.4205Z" fill="white"/>
<path d="M49.0239 44.3199H47.3439V41.4948H49.5108L50.0593 38.2171H48.1188V35.3851H50.5462L51.1016 32.1554H54.0228L53.4536 35.3851H56.6765L57.2319 32.1622H60.1462L59.5976 35.3851H61.2776V38.2171H59.1108L58.5553 41.4948H60.5028V44.3199H58.0685L57.4925 47.6388H54.5782L55.1473 44.3199H51.945L51.3965 47.6388H48.4479L49.0239 44.3199ZM55.6342 41.4948L56.1965 38.2171H52.9805L52.4319 41.4948H55.6342Z" fill="white"/>
<path d="M32.1965 32.1554H39.2868C40.1057 32.1017 40.9271 32.2131 41.7021 32.4829C42.4772 32.7526 43.1901 33.1752 43.7988 33.7256C44.2473 34.1952 44.5958 34.7509 44.8232 35.3591C45.0507 35.9673 45.1525 36.6153 45.1223 37.2639V37.3051C45.1756 38.4018 44.8513 39.4837 44.2034 40.3702C43.5824 41.1656 42.7475 41.7674 41.7965 42.1051L45.5748 47.6319H41.5977L38.3954 42.8799H35.6251V47.6319H32.1965V32.1554ZM39.0537 39.6982C39.7605 39.7336 40.455 39.5037 41.0011 39.0536C41.2242 38.8543 41.4011 38.6087 41.5196 38.3339C41.6381 38.0591 41.6951 37.7618 41.6868 37.4627V37.4216C41.7124 37.1105 41.6635 36.7977 41.5442 36.5092C41.425 36.2206 41.2388 35.9646 41.0011 35.7622C40.4264 35.3607 39.7329 35.165 39.0331 35.2067H35.6251V39.6707L39.0537 39.6982Z" fill="white"/>
</g>
</g>
</g>
</g>
<defs>
<filter id="filter0_i_31_3225" x="6" y="6" width="84" height="88" filterUnits="userSpaceOnUse" color-interpolation-filters="sRGB">
<feFlood flood-opacity="0" result="BackgroundImageFix"/>
<feBlend mode="normal" in="SourceGraphic" in2="BackgroundImageFix" result="shape"/>
<feColorMatrix in="SourceAlpha" type="matrix" values="0 0 0 0 0 0 0 0 0 0 0 0 0 0 0 0 0 0 127 0" result="hardAlpha"/>
<feOffset dy="4"/>
<feGaussianBlur stdDeviation="2"/>
<feComposite in2="hardAlpha" operator="arithmetic" k2="-1" k3="1"/>
<feColorMatrix type="matrix" values="0 0 0 0 0 0 0 0 0 0 0 0 0 0 0 0 0 0 0.25 0"/>
<feBlend mode="normal" in2="shape" result="effect1_innerShadow_31_3225"/>
</filter>
<filter id="filter1_d_31_3225" x="30.5965" y="27.5701" width="53.6002" height="58.3591" filterUnits="userSpaceOnUse" color-interpolation-filters="sRGB">
<feFlood flood-opacity="0" result="BackgroundImageFix"/>
<feColorMatrix in="SourceAlpha" type="matrix" values="0 0 0 0 0 0 0 0 0 0 0 0 0 0 0 0 0 0 127 0" result="hardAlpha"/>
<feOffset dy="1.82857"/>
<feGaussianBlur stdDeviation="1.82857"/>
<feComposite in2="hardAlpha" operator="out"/>
<feColorMatrix type="matrix" values="0 0 0 0 0 0 0 0 0 0 0 0 0 0 0 0 0 0 0.25 0"/>
<feBlend mode="normal" in2="BackgroundImageFix" result="effect1_dropShadow_31_3225"/>
<feBlend mode="normal" in="SourceGraphic" in2="effect1_dropShadow_31_3225" result="shape"/>
</filter>
<filter id="filter2_d_31_3225" x="11.0536" y="12.7861" width="59.6068" height="51.584" filterUnits="userSpaceOnUse" color-interpolation-filters="sRGB">
<feFlood flood-opacity="0" result="BackgroundImageFix"/>
<feColorMatrix in="SourceAlpha" type="matrix" values="0 0 0 0 0 0 0 0 0 0 0 0 0 0 0 0 0 0 127 0" result="hardAlpha"/>
<feOffset dy="1.82857"/>
<feGaussianBlur stdDeviation="1.82857"/>
<feComposite in2="hardAlpha" operator="out"/>
<feColorMatrix type="matrix" values="0 0 0 0 0 0 0 0 0 0 0 0 0 0 0 0 0 0 0.25 0"/>
<feBlend mode="normal" in2="BackgroundImageFix" result="effect1_dropShadow_31_3225"/>
<feBlend mode="normal" in="SourceGraphic" in2="effect1_dropShadow_31_3225" result="shape"/>
</filter>
<filter id="filter3_d_31_3225" x="53.1703" y="12.7861" width="13.0948" height="19.8355" filterUnits="userSpaceOnUse" color-interpolation-filters="sRGB">
<feFlood flood-opacity="0" result="BackgroundImageFix"/>
<feColorMatrix in="SourceAlpha" type="matrix" values="0 0 0 0 0 0 0 0 0 0 0 0 0 0 0 0 0 0 127 0" result="hardAlpha"/>
<feOffset dy="1.82857"/>
<feGaussianBlur stdDeviation="1.82857"/>
<feComposite in2="hardAlpha" operator="out"/>
<feColorMatrix type="matrix" values="0 0 0 0 0 0 0 0 0 0 0 0 0 0 0 0 0 0 0.25 0"/>
<feBlend mode="normal" in2="BackgroundImageFix" result="effect1_dropShadow_31_3225"/>
<feBlend mode="normal" in="SourceGraphic" in2="effect1_dropShadow_31_3225" result="shape"/>
</filter>
<filter id="filter4_d_31_3225" x="23.3965" y="25.225" width="48.4572" height="48.4572" filterUnits="userSpaceOnUse" color-interpolation-filters="sRGB">
<feFlood flood-opacity="0" result="BackgroundImageFix"/>
<feColorMatrix in="SourceAlpha" type="matrix" values="0 0 0 0 0 0 0 0 0 0 0 0 0 0 0 0 0 0 127 0" result="hardAlpha"/>
<feOffset dy="1.82857"/>
<feGaussianBlur stdDeviation="1.82857"/>
<feComposite in2="hardAlpha" operator="out"/>
<feColorMatrix type="matrix" values="0 0 0 0 0 0 0 0 0 0 0 0 0 0 0 0 0 0 0.25 0"/>
<feBlend mode="normal" in2="BackgroundImageFix" result="effect1_dropShadow_31_3225"/>
<feBlend mode="normal" in="SourceGraphic" in2="effect1_dropShadow_31_3225" result="shape"/>
</filter>
<filter id="filter5_d_31_3225" x="28.5257" y="30.3137" width="36.4091" height="38.164" filterUnits="userSpaceOnUse" color-interpolation-filters="sRGB">
<feFlood flood-opacity="0" result="BackgroundImageFix"/>
<feColorMatrix in="SourceAlpha" type="matrix" values="0 0 0 0 0 0 0 0 0 0 0 0 0 0 0 0 0 0 127 0" result="hardAlpha"/>
<feOffset dy="1.82857"/>
<feGaussianBlur stdDeviation="1.82857"/>
<feComposite in2="hardAlpha" operator="out"/>
<feColorMatrix type="matrix" values="0 0 0 0 0 0 0 0 0 0 0 0 0 0 0 0 0 0 0.25 0"/>
<feBlend mode="normal" in2="BackgroundImageFix" result="effect1_dropShadow_31_3225"/>
<feBlend mode="normal" in="SourceGraphic" in2="effect1_dropShadow_31_3225" result="shape"/>
</filter>
<linearGradient id="paint0_linear_31_3225" x1="48" y1="0" x2="48" y2="96" gradientUnits="userSpaceOnUse">
<stop stop-color="#3BEA62"/>
<stop offset="0.510417" stop-color="#087CFA"/>
<stop offset="1" stop-color="#B74AF7"/>
</linearGradient>
<linearGradient id="paint1_linear_31_3225" x1="26.6524" y1="96.258" x2="77.9873" y2="13.7595" gradientUnits="userSpaceOnUse">
<stop offset="0.02" stop-color="#FF45ED"/>
<stop offset="0.4" stop-color="#DD1265"/>
<stop offset="1" stop-color="#FDB60D"/>
</linearGradient>
<linearGradient id="paint2_linear_31_3225" x1="47.1039" y1="80.5808" x2="75.4928" y2="39.2113" gradientUnits="userSpaceOnUse">
<stop offset="0.02" stop-color="#FF45ED"/>
<stop offset="0.4" stop-color="#DD1265"/>
<stop offset="1" stop-color="#FDB60D"/>
</linearGradient>
<linearGradient id="paint3_linear_31_3225" x1="16.4319" y1="64.857" x2="60.6261" y2="23.289" gradientUnits="userSpaceOnUse">
<stop offset="0.02" stop-color="#FF45ED"/>
<stop offset="0.66" stop-color="#DD1265"/>
</linearGradient>
<linearGradient id="paint4_linear_31_3225" x1="59.4742" y1="13.0582" x2="59.9268" y2="39.177" gradientUnits="userSpaceOnUse">
<stop stop-color="#DD1265"/>
<stop offset="0.06" stop-color="#DF1961"/>
<stop offset="0.7" stop-color="#F46330"/>
<stop offset="1" stop-color="#FC801D"/>
</linearGradient>
<clipPath id="clip0_31_3225">
<rect width="96" height="96" fill="white"/>
</clipPath>
</defs>
</svg>
