<svg width="96" height="96" viewBox="0 0 96 96" fill="none" xmlns="http://www.w3.org/2000/svg">
<g clip-path="url(#clip0_31_3267)">
<path d="M72 0H24C10.7452 0 0 10.7452 0 24V72C0 85.2548 10.7452 96 24 96H72C85.2548 96 96 85.2548 96 72V24C96 10.7452 85.2548 0 72 0Z" fill="url(#paint0_linear_31_3267)"/>
<g filter="url(#filter0_i_31_3267)">
<path d="M72 6H24C14.0589 6 6 14.0589 6 24V72C6 81.9411 14.0589 90 24 90H72C81.9411 90 90 81.9411 90 72V24C90 14.0589 81.9411 6 72 6Z" fill="black" fill-opacity="0.7"/>
<g filter="url(#filter1_d_31_3267)">
<path d="M40.3008 21.8205L39.9256 21.2577C38.2564 18.7539 35.4463 17.25 32.4372 17.25H26.25C21.2795 17.25 17.25 21.2795 17.25 26.25V69.75C17.25 74.7205 21.2795 78.75 26.25 78.75H69.75C74.7205 78.75 78.75 74.7205 78.75 69.75V37.5C78.75 32.5295 74.7205 28.5 69.75 28.5H52.7815C47.7663 28.5 43.0829 25.9935 40.3008 21.8205ZM40.3008 21.8205L42.7969 20.1564" stroke="url(#paint1_linear_31_3267)" stroke-width="6"/>
</g>
<g filter="url(#filter2_d_31_3267)">
<path fill-rule="evenodd" clip-rule="evenodd" d="M40.5169 52.7971C41.1786 56.6045 44.6434 59.5163 48.8045 59.5163H62.0977C64.4164 59.5163 66.5297 58.8315 68.0479 57.1807C69.5488 55.5479 70.3973 53.2966 70.5 50.6698V50.6084C70.5 48.0787 69.4581 45.5207 67.5676 43.8125C65.7412 42.1618 63.3105 41.252 60.7236 41.252H53.1604V40.0919C53.1604 39.6307 52.8736 39.264 52.4894 39.0979C52.1745 38.9612 51.7956 38.9587 51.4541 39.1477L46.5125 41.8819C45.7533 42.301 45.7533 43.3487 46.5125 43.7677L51.4541 46.5007C51.7956 46.6898 52.1745 46.6873 52.4894 46.5505C52.8736 46.3844 53.1604 46.019 53.1604 45.5578V44.6059H60.7236C62.4126 44.6059 63.9895 45.4147 65.1636 46.4752C66.3389 47.5369 66.9886 48.9934 66.998 50.5777C66.8499 54.108 64.9287 56.1625 62.0977 56.1625H48.8045C46.4338 56.1625 44.4486 54.5411 44.0004 52.3946C43.8882 51.8593 43.404 51.4696 42.8343 51.4696H41.687C40.9518 51.4696 40.3956 52.1033 40.5169 52.7971Z" fill="#8B00E7"/>
<path d="M35.2765 65.248C32.6896 65.248 30.2588 64.3395 28.4324 62.6887C26.542 60.9793 25.5 58.4227 25.5 55.8928V55.8302C25.6027 53.2046 26.4512 50.9521 27.9521 49.3192C29.4704 47.6698 31.5836 46.9837 33.9023 46.9837H47.1955C51.3566 46.9837 54.8214 49.8955 55.4831 53.7029C55.6045 54.398 55.0482 55.0317 54.313 55.0317H53.1657C52.5961 55.0317 52.1118 54.642 51.9997 54.1066C51.5515 51.9602 49.5662 50.3375 47.1955 50.3375H33.9023C31.0713 50.3375 29.1502 52.3933 29.002 55.9222C29.0114 57.5078 29.6611 58.9631 30.8365 60.0248C32.0105 61.0866 33.5875 61.894 35.2765 61.894H42.8396V60.9435C42.8396 60.1411 43.7054 59.6275 44.4445 59.9494C44.4793 59.9648 44.5126 59.9814 44.5459 59.9993L49.4875 62.7322C50.2467 63.1513 50.2467 64.2003 49.4875 64.6193L44.7928 67.2156C44.7928 67.2156 44.4793 67.3867 44.4445 67.4021C43.7054 67.7254 42.8396 67.2104 42.8396 66.4093V65.248H35.2765Z" fill="#D404FF"/>
</g>
</g>
</g>
<defs>
<filter id="filter0_i_31_3267" x="6" y="6" width="84" height="88" filterUnits="userSpaceOnUse" color-interpolation-filters="sRGB">
<feFlood flood-opacity="0" result="BackgroundImageFix"/>
<feBlend mode="normal" in="SourceGraphic" in2="BackgroundImageFix" result="shape"/>
<feColorMatrix in="SourceAlpha" type="matrix" values="0 0 0 0 0 0 0 0 0 0 0 0 0 0 0 0 0 0 127 0" result="hardAlpha"/>
<feOffset dy="4"/>
<feGaussianBlur stdDeviation="2"/>
<feComposite in2="hardAlpha" operator="arithmetic" k2="-1" k3="1"/>
<feColorMatrix type="matrix" values="0 0 0 0 0 0 0 0 0 0 0 0 0 0 0 0 0 0 0.25 0"/>
<feBlend mode="normal" in2="shape" result="effect1_innerShadow_31_3267"/>
</filter>
<filter id="filter1_d_31_3267" x="10.25" y="12.25" width="75.5" height="75.5" filterUnits="userSpaceOnUse" color-interpolation-filters="sRGB">
<feFlood flood-opacity="0" result="BackgroundImageFix"/>
<feColorMatrix in="SourceAlpha" type="matrix" values="0 0 0 0 0 0 0 0 0 0 0 0 0 0 0 0 0 0 127 0" result="hardAlpha"/>
<feOffset dy="2"/>
<feGaussianBlur stdDeviation="2"/>
<feComposite in2="hardAlpha" operator="out"/>
<feColorMatrix type="matrix" values="0 0 0 0 0 0 0 0 0 0 0 0 0 0 0 0 0 0 0.25 0"/>
<feBlend mode="normal" in2="BackgroundImageFix" result="effect1_dropShadow_31_3267"/>
<feBlend mode="normal" in="SourceGraphic" in2="effect1_dropShadow_31_3267" result="shape"/>
</filter>
<filter id="filter2_d_31_3267" x="21.5" y="37" width="53" height="36.5" filterUnits="userSpaceOnUse" color-interpolation-filters="sRGB">
<feFlood flood-opacity="0" result="BackgroundImageFix"/>
<feColorMatrix in="SourceAlpha" type="matrix" values="0 0 0 0 0 0 0 0 0 0 0 0 0 0 0 0 0 0 127 0" result="hardAlpha"/>
<feOffset dy="2"/>
<feGaussianBlur stdDeviation="2"/>
<feComposite in2="hardAlpha" operator="out"/>
<feColorMatrix type="matrix" values="0 0 0 0 0 0 0 0 0 0 0 0 0 0 0 0 0 0 0.25 0"/>
<feBlend mode="normal" in2="BackgroundImageFix" result="effect1_dropShadow_31_3267"/>
<feBlend mode="normal" in="SourceGraphic" in2="effect1_dropShadow_31_3267" result="shape"/>
</filter>
<linearGradient id="paint0_linear_31_3267" x1="48" y1="0" x2="48" y2="96" gradientUnits="userSpaceOnUse">
<stop stop-color="#CB02C5"/>
<stop offset="0.244792" stop-color="#C101DA"/>
<stop offset="0.510417" stop-color="#B600F0"/>
<stop offset="0.744792" stop-color="#8900D9"/>
<stop offset="1" stop-color="#5800BF"/>
</linearGradient>
<linearGradient id="paint1_linear_31_3267" x1="48" y1="14.25" x2="48" y2="81.75" gradientUnits="userSpaceOnUse">
<stop stop-color="#C301D5"/>
<stop offset="0.505208" stop-color="#B600EF"/>
<stop offset="1" stop-color="#8100D4"/>
</linearGradient>
<clipPath id="clip0_31_3267">
<rect width="96" height="96" fill="white"/>
</clipPath>
</defs>
</svg>
