<svg width="96" height="96" viewBox="0 0 96 96" fill="none" xmlns="http://www.w3.org/2000/svg">
<g clip-path="url(#clip0_31_3290)">
<path d="M72 0H24C10.7452 0 0 10.7452 0 24V72C0 85.2548 10.7452 96 24 96H72C85.2548 96 96 85.2548 96 72V24C96 10.7452 85.2548 0 72 0Z" fill="url(#paint0_linear_31_3290)"/>
<g filter="url(#filter0_i_31_3290)">
<path d="M72 6H24C14.0589 6 6 14.0589 6 24V72C6 81.9411 14.0589 90 24 90H72C81.9411 90 90 81.9411 90 72V24C90 14.0589 81.9411 6 72 6Z" fill="black" fill-opacity="0.7"/>
<mask id="mask0_31_3290" style="mask-type:luminance" maskUnits="userSpaceOnUse" x="11" y="11" width="73" height="73">
<path d="M83.625 11.625H11.625V83.625H83.625V11.625Z" fill="white"/>
</mask>
<g mask="url(#mask0_31_3290)">
<g filter="url(#filter1_d_31_3290)">
<path d="M80.5395 40.2398L34.3906 14.6284L65.289 60.5369L71.6386 56.3746L80.5395 40.2398Z" fill="url(#paint1_linear_31_3290)"/>
</g>
<g filter="url(#filter2_d_31_3290)">
<path d="M62.1278 29.7964L56.3473 15.6638L43.5587 28.2535L48.7907 73.9358L61.1815 80.457L80.5394 69.1495L62.1278 29.7964Z" fill="url(#paint2_linear_31_3290)"/>
</g>
<g filter="url(#filter3_d_31_3290)">
<path d="M34.3907 14.6284L14.7107 27.8833L22.0272 73.0924L40.8981 80.3475L65.289 60.5369L34.3907 14.6284Z" fill="url(#paint3_linear_31_3290)"/>
</g>
<g filter="url(#filter4_d_31_3290)">
<path d="M27.0536 27.0535H68.1965V68.1964H27.0536V27.0535Z" fill="black"/>
</g>
<path d="M32.1827 60.4204H47.6113V62.9918H32.1827V60.4204Z" fill="white"/>
<path d="M32.1965 32.1415H39.2594C40.0769 32.0912 40.8964 32.2041 41.6699 32.4737C42.4433 32.7433 43.1554 33.1642 43.7645 33.7118C44.2116 34.1827 44.5597 34.7384 44.7882 35.3461C45.0167 35.9539 45.121 36.6013 45.0948 37.2501V37.2913C45.1459 38.3449 44.8485 39.3859 44.2486 40.2535C43.6487 41.1211 42.7797 41.767 41.776 42.0913L45.5611 47.6181H41.5771L38.2651 42.6673H35.6251V47.6181H32.1965V32.1415ZM39.0537 39.6844C40.7131 39.6844 41.6663 38.7998 41.6663 37.497V37.4558C41.6663 35.9953 40.6514 35.241 38.992 35.241H35.6251V39.6844H39.0537Z" fill="white"/>
<path d="M47.9199 32.1415H53.9542C58.8159 32.1415 62.1828 35.4809 62.1828 39.8352V39.8832C62.1828 44.2375 58.8228 47.6181 53.9542 47.6181H47.9199V32.1415ZM51.3485 35.2135V44.5392H53.9816C54.5999 44.5757 55.2191 44.4814 55.7985 44.2625C56.378 44.0438 56.9048 43.7053 57.3447 43.2692C57.7847 42.8332 58.1278 42.3094 58.3517 41.7319C58.5757 41.1544 58.6754 40.5362 58.6445 39.9175V39.8764C58.6759 39.2555 58.5768 38.6348 58.3537 38.0545C58.1306 37.4741 57.7883 36.947 57.3491 36.5071C56.9097 36.0671 56.3831 35.7241 55.8031 35.5001C55.2231 35.2761 54.6026 35.1761 53.9816 35.2067L51.3485 35.2135Z" fill="white"/>
</g>
</g>
</g>
<defs>
<filter id="filter0_i_31_3290" x="6" y="6" width="84" height="88" filterUnits="userSpaceOnUse" color-interpolation-filters="sRGB">
<feFlood flood-opacity="0" result="BackgroundImageFix"/>
<feBlend mode="normal" in="SourceGraphic" in2="BackgroundImageFix" result="shape"/>
<feColorMatrix in="SourceAlpha" type="matrix" values="0 0 0 0 0 0 0 0 0 0 0 0 0 0 0 0 0 0 127 0" result="hardAlpha"/>
<feOffset dy="4"/>
<feGaussianBlur stdDeviation="2"/>
<feComposite in2="hardAlpha" operator="arithmetic" k2="-1" k3="1"/>
<feColorMatrix type="matrix" values="0 0 0 0 0 0 0 0 0 0 0 0 0 0 0 0 0 0 0.25 0"/>
<feBlend mode="normal" in2="shape" result="effect1_innerShadow_31_3290"/>
</filter>
<filter id="filter1_d_31_3290" x="30.3906" y="12.6284" width="54.1488" height="53.9085" filterUnits="userSpaceOnUse" color-interpolation-filters="sRGB">
<feFlood flood-opacity="0" result="BackgroundImageFix"/>
<feColorMatrix in="SourceAlpha" type="matrix" values="0 0 0 0 0 0 0 0 0 0 0 0 0 0 0 0 0 0 127 0" result="hardAlpha"/>
<feOffset dy="2"/>
<feGaussianBlur stdDeviation="2"/>
<feComposite in2="hardAlpha" operator="out"/>
<feColorMatrix type="matrix" values="0 0 0 0 0 0 0 0 0 0 0 0 0 0 0 0 0 0 0.25 0"/>
<feBlend mode="normal" in2="BackgroundImageFix" result="effect1_dropShadow_31_3290"/>
<feBlend mode="normal" in="SourceGraphic" in2="effect1_dropShadow_31_3290" result="shape"/>
</filter>
<filter id="filter2_d_31_3290" x="39.5587" y="13.6638" width="44.9807" height="72.7932" filterUnits="userSpaceOnUse" color-interpolation-filters="sRGB">
<feFlood flood-opacity="0" result="BackgroundImageFix"/>
<feColorMatrix in="SourceAlpha" type="matrix" values="0 0 0 0 0 0 0 0 0 0 0 0 0 0 0 0 0 0 127 0" result="hardAlpha"/>
<feOffset dy="2"/>
<feGaussianBlur stdDeviation="2"/>
<feComposite in2="hardAlpha" operator="out"/>
<feColorMatrix type="matrix" values="0 0 0 0 0 0 0 0 0 0 0 0 0 0 0 0 0 0 0.25 0"/>
<feBlend mode="normal" in2="BackgroundImageFix" result="effect1_dropShadow_31_3290"/>
<feBlend mode="normal" in="SourceGraphic" in2="effect1_dropShadow_31_3290" result="shape"/>
</filter>
<filter id="filter3_d_31_3290" x="10.7107" y="12.6284" width="58.5782" height="73.7191" filterUnits="userSpaceOnUse" color-interpolation-filters="sRGB">
<feFlood flood-opacity="0" result="BackgroundImageFix"/>
<feColorMatrix in="SourceAlpha" type="matrix" values="0 0 0 0 0 0 0 0 0 0 0 0 0 0 0 0 0 0 127 0" result="hardAlpha"/>
<feOffset dy="2"/>
<feGaussianBlur stdDeviation="2"/>
<feComposite in2="hardAlpha" operator="out"/>
<feColorMatrix type="matrix" values="0 0 0 0 0 0 0 0 0 0 0 0 0 0 0 0 0 0 0.25 0"/>
<feBlend mode="normal" in2="BackgroundImageFix" result="effect1_dropShadow_31_3290"/>
<feBlend mode="normal" in="SourceGraphic" in2="effect1_dropShadow_31_3290" result="shape"/>
</filter>
<filter id="filter4_d_31_3290" x="23.0536" y="25.0536" width="49.1429" height="49.1429" filterUnits="userSpaceOnUse" color-interpolation-filters="sRGB">
<feFlood flood-opacity="0" result="BackgroundImageFix"/>
<feColorMatrix in="SourceAlpha" type="matrix" values="0 0 0 0 0 0 0 0 0 0 0 0 0 0 0 0 0 0 127 0" result="hardAlpha"/>
<feOffset dy="2"/>
<feGaussianBlur stdDeviation="2"/>
<feComposite in2="hardAlpha" operator="out"/>
<feColorMatrix type="matrix" values="0 0 0 0 0 0 0 0 0 0 0 0 0 0 0 0 0 0 0.25 0"/>
<feBlend mode="normal" in2="BackgroundImageFix" result="effect1_dropShadow_31_3290"/>
<feBlend mode="normal" in="SourceGraphic" in2="effect1_dropShadow_31_3290" result="shape"/>
</filter>
<linearGradient id="paint0_linear_31_3290" x1="48" y1="0" x2="48" y2="96" gradientUnits="userSpaceOnUse">
<stop stop-color="#087CFA"/>
<stop offset="0.317708" stop-color="#963597"/>
<stop offset="0.671875" stop-color="#DD1265"/>
<stop offset="1" stop-color="#ED6438"/>
</linearGradient>
<linearGradient id="paint1_linear_31_3290" x1="76.3087" y1="52.3358" x2="25.5655" y2="23.2204" gradientUnits="userSpaceOnUse">
<stop stop-color="#DD1265"/>
<stop offset="0.48" stop-color="#DD1265"/>
<stop offset="0.94" stop-color="#FDB60D"/>
</linearGradient>
<linearGradient id="paint2_linear_31_3290" x1="46.137" y1="20.3747" x2="66.249" y2="75.9172" gradientUnits="userSpaceOnUse">
<stop offset="0.14" stop-color="#087CFA"/>
<stop offset="0.48" stop-color="#DD1265"/>
<stop offset="0.96" stop-color="#087CFA"/>
</linearGradient>
<linearGradient id="paint3_linear_31_3290" x1="31.0718" y1="22.0889" x2="45.9243" y2="74.8889" gradientUnits="userSpaceOnUse">
<stop offset="0.28" stop-color="#DD1265"/>
<stop offset="0.97" stop-color="#FDB60D"/>
</linearGradient>
<clipPath id="clip0_31_3290">
<rect width="96" height="96" fill="white"/>
</clipPath>
</defs>
</svg>
