<svg width="96" height="96" viewBox="0 0 96 96" fill="none" xmlns="http://www.w3.org/2000/svg">
<g clip-path="url(#clip0_31_3309)">
<path d="M72 0H24C10.7452 0 0 10.7452 0 24V72C0 85.2548 10.7452 96 24 96H72C85.2548 96 96 85.2548 96 72V24C96 10.7452 85.2548 0 72 0Z" fill="url(#paint0_linear_31_3309)"/>
<path d="M72 0H24C10.7452 0 0 10.7452 0 24V72C0 85.2548 10.7452 96 24 96H72C85.2548 96 96 85.2548 96 72V24C96 10.7452 85.2548 0 72 0Z" fill="url(#paint1_linear_31_3309)"/>
<path d="M72 0H24C10.7452 0 0 10.7452 0 24V72C0 85.2548 10.7452 96 24 96H72C85.2548 96 96 85.2548 96 72V24C96 10.7452 85.2548 0 72 0Z" fill="url(#paint2_linear_31_3309)"/>
<g filter="url(#filter0_i_31_3309)">
<path d="M72 6H24C14.0589 6 6 14.0589 6 24V72C6 81.9411 14.0589 90 24 90H72C81.9411 90 90 81.9411 90 72V24C90 14.0589 81.9411 6 72 6Z" fill="black" fill-opacity="0.7"/>
<mask id="mask0_31_3309" style="mask-type:luminance" maskUnits="userSpaceOnUse" x="12" y="12" width="72" height="72">
<path d="M84 12H12V84H84V12Z" fill="white"/>
</mask>
<g mask="url(#mask0_31_3309)">
<g filter="url(#filter1_d_31_3309)">
<path d="M63.6319 69.6338L37.0931 84L12 69.3076L58.125 52.0726L63.6319 69.6338Z" fill="url(#paint3_linear_31_3309)"/>
</g>
<g filter="url(#filter2_d_31_3309)">
<path d="M53.1131 12L38.6906 54.7837L24.3356 46.7681L12 69.3075L35.0344 65.6287L64.2619 60.4706L84 56.0494V29.2013L53.1131 12Z" fill="url(#paint4_linear_31_3309)"/>
</g>
<g filter="url(#filter3_d_31_3309)">
<path d="M44.625 36.9413L25.41 31.4119L23.8125 12L39.9788 18.795L53.1187 12L44.625 36.9413Z" fill="#087CFA"/>
</g>
<g filter="url(#filter4_d_31_3309)">
<path d="M45.1874 35.8163L39.9787 18.795L53.1187 12L45.1874 35.8163Z" fill="url(#paint5_linear_31_3309)"/>
</g>
<g filter="url(#filter5_d_31_3309)">
<path d="M61.5506 53.8106L23.8294 12L12 38.9663L45.3056 67.7381L61.5506 53.8106Z" fill="url(#paint6_linear_31_3309)"/>
</g>
<g filter="url(#filter6_d_31_3309)">
<path d="M84 56.0494L62.0625 61.1119L62.9006 57.4951L84 29.2013V56.0494Z" fill="url(#paint7_linear_31_3309)"/>
</g>
<g filter="url(#filter7_d_31_3309)">
<path d="M72.4744 84L45.3056 67.7438L61.5506 53.8107L72.4744 84Z" fill="url(#paint8_linear_31_3309)"/>
</g>
<g filter="url(#filter8_d_31_3309)">
<path d="M70.5 25.5H25.5V70.5H70.5V25.5Z" fill="black"/>
</g>
<path d="M48 62.0625H31.125V64.875H48V62.0625Z" fill="white"/>
<path d="M31.0013 31.125H38.7188C40.8675 31.125 42.5325 31.7269 43.6406 32.8125C44.1273 33.3266 44.5064 33.9329 44.7556 34.5955C45.0048 35.2581 45.1191 35.9639 45.0919 36.6713V36.75C45.1456 37.8993 44.8201 39.0343 44.1656 39.9806C43.511 40.9268 42.5638 41.6317 41.4694 41.9869L45.5981 48H41.25L37.6275 42.5944H34.7138V48H31.0013V31.125ZM38.4769 39.3037C40.2881 39.3037 41.3231 38.3362 41.3231 36.9131V36.8681C41.3231 35.2763 40.1981 34.455 38.4094 34.455H34.7138V39.3037H38.4769Z" fill="white"/>
<path d="M48.4501 31.125H61.3088V34.5H52.1682V38.0944H60.2232V41.4694H52.1682V48H48.4501V31.125Z" fill="white"/>
</g>
</g>
</g>
<defs>
<filter id="filter0_i_31_3309" x="6" y="6" width="84" height="88" filterUnits="userSpaceOnUse" color-interpolation-filters="sRGB">
<feFlood flood-opacity="0" result="BackgroundImageFix"/>
<feBlend mode="normal" in="SourceGraphic" in2="BackgroundImageFix" result="shape"/>
<feColorMatrix in="SourceAlpha" type="matrix" values="0 0 0 0 0 0 0 0 0 0 0 0 0 0 0 0 0 0 127 0" result="hardAlpha"/>
<feOffset dy="4"/>
<feGaussianBlur stdDeviation="2"/>
<feComposite in2="hardAlpha" operator="arithmetic" k2="-1" k3="1"/>
<feColorMatrix type="matrix" values="0 0 0 0 0 0 0 0 0 0 0 0 0 0 0 0 0 0 0.25 0"/>
<feBlend mode="normal" in2="shape" result="effect1_innerShadow_31_3309"/>
</filter>
<filter id="filter1_d_31_3309" x="8" y="50.0726" width="59.6319" height="39.9274" filterUnits="userSpaceOnUse" color-interpolation-filters="sRGB">
<feFlood flood-opacity="0" result="BackgroundImageFix"/>
<feColorMatrix in="SourceAlpha" type="matrix" values="0 0 0 0 0 0 0 0 0 0 0 0 0 0 0 0 0 0 127 0" result="hardAlpha"/>
<feOffset dy="2"/>
<feGaussianBlur stdDeviation="2"/>
<feComposite in2="hardAlpha" operator="out"/>
<feColorMatrix type="matrix" values="0 0 0 0 0 0 0 0 0 0 0 0 0 0 0 0 0 0 0.25 0"/>
<feBlend mode="normal" in2="BackgroundImageFix" result="effect1_dropShadow_31_3309"/>
<feBlend mode="normal" in="SourceGraphic" in2="effect1_dropShadow_31_3309" result="shape"/>
</filter>
<filter id="filter2_d_31_3309" x="8" y="10" width="80" height="65.3075" filterUnits="userSpaceOnUse" color-interpolation-filters="sRGB">
<feFlood flood-opacity="0" result="BackgroundImageFix"/>
<feColorMatrix in="SourceAlpha" type="matrix" values="0 0 0 0 0 0 0 0 0 0 0 0 0 0 0 0 0 0 127 0" result="hardAlpha"/>
<feOffset dy="2"/>
<feGaussianBlur stdDeviation="2"/>
<feComposite in2="hardAlpha" operator="out"/>
<feColorMatrix type="matrix" values="0 0 0 0 0 0 0 0 0 0 0 0 0 0 0 0 0 0 0.25 0"/>
<feBlend mode="normal" in2="BackgroundImageFix" result="effect1_dropShadow_31_3309"/>
<feBlend mode="normal" in="SourceGraphic" in2="effect1_dropShadow_31_3309" result="shape"/>
</filter>
<filter id="filter3_d_31_3309" x="19.8125" y="10" width="37.3063" height="32.9412" filterUnits="userSpaceOnUse" color-interpolation-filters="sRGB">
<feFlood flood-opacity="0" result="BackgroundImageFix"/>
<feColorMatrix in="SourceAlpha" type="matrix" values="0 0 0 0 0 0 0 0 0 0 0 0 0 0 0 0 0 0 127 0" result="hardAlpha"/>
<feOffset dy="2"/>
<feGaussianBlur stdDeviation="2"/>
<feComposite in2="hardAlpha" operator="out"/>
<feColorMatrix type="matrix" values="0 0 0 0 0 0 0 0 0 0 0 0 0 0 0 0 0 0 0.25 0"/>
<feBlend mode="normal" in2="BackgroundImageFix" result="effect1_dropShadow_31_3309"/>
<feBlend mode="normal" in="SourceGraphic" in2="effect1_dropShadow_31_3309" result="shape"/>
</filter>
<filter id="filter4_d_31_3309" x="35.9787" y="10" width="21.14" height="31.8163" filterUnits="userSpaceOnUse" color-interpolation-filters="sRGB">
<feFlood flood-opacity="0" result="BackgroundImageFix"/>
<feColorMatrix in="SourceAlpha" type="matrix" values="0 0 0 0 0 0 0 0 0 0 0 0 0 0 0 0 0 0 127 0" result="hardAlpha"/>
<feOffset dy="2"/>
<feGaussianBlur stdDeviation="2"/>
<feComposite in2="hardAlpha" operator="out"/>
<feColorMatrix type="matrix" values="0 0 0 0 0 0 0 0 0 0 0 0 0 0 0 0 0 0 0.25 0"/>
<feBlend mode="normal" in2="BackgroundImageFix" result="effect1_dropShadow_31_3309"/>
<feBlend mode="normal" in="SourceGraphic" in2="effect1_dropShadow_31_3309" result="shape"/>
</filter>
<filter id="filter5_d_31_3309" x="8" y="10" width="57.5506" height="63.7381" filterUnits="userSpaceOnUse" color-interpolation-filters="sRGB">
<feFlood flood-opacity="0" result="BackgroundImageFix"/>
<feColorMatrix in="SourceAlpha" type="matrix" values="0 0 0 0 0 0 0 0 0 0 0 0 0 0 0 0 0 0 127 0" result="hardAlpha"/>
<feOffset dy="2"/>
<feGaussianBlur stdDeviation="2"/>
<feComposite in2="hardAlpha" operator="out"/>
<feColorMatrix type="matrix" values="0 0 0 0 0 0 0 0 0 0 0 0 0 0 0 0 0 0 0.25 0"/>
<feBlend mode="normal" in2="BackgroundImageFix" result="effect1_dropShadow_31_3309"/>
<feBlend mode="normal" in="SourceGraphic" in2="effect1_dropShadow_31_3309" result="shape"/>
</filter>
<filter id="filter6_d_31_3309" x="58.0625" y="27.2013" width="29.9375" height="39.9106" filterUnits="userSpaceOnUse" color-interpolation-filters="sRGB">
<feFlood flood-opacity="0" result="BackgroundImageFix"/>
<feColorMatrix in="SourceAlpha" type="matrix" values="0 0 0 0 0 0 0 0 0 0 0 0 0 0 0 0 0 0 127 0" result="hardAlpha"/>
<feOffset dy="2"/>
<feGaussianBlur stdDeviation="2"/>
<feComposite in2="hardAlpha" operator="out"/>
<feColorMatrix type="matrix" values="0 0 0 0 0 0 0 0 0 0 0 0 0 0 0 0 0 0 0.25 0"/>
<feBlend mode="normal" in2="BackgroundImageFix" result="effect1_dropShadow_31_3309"/>
<feBlend mode="normal" in="SourceGraphic" in2="effect1_dropShadow_31_3309" result="shape"/>
</filter>
<filter id="filter7_d_31_3309" x="41.3056" y="51.8107" width="35.1687" height="38.1893" filterUnits="userSpaceOnUse" color-interpolation-filters="sRGB">
<feFlood flood-opacity="0" result="BackgroundImageFix"/>
<feColorMatrix in="SourceAlpha" type="matrix" values="0 0 0 0 0 0 0 0 0 0 0 0 0 0 0 0 0 0 127 0" result="hardAlpha"/>
<feOffset dy="2"/>
<feGaussianBlur stdDeviation="2"/>
<feComposite in2="hardAlpha" operator="out"/>
<feColorMatrix type="matrix" values="0 0 0 0 0 0 0 0 0 0 0 0 0 0 0 0 0 0 0.25 0"/>
<feBlend mode="normal" in2="BackgroundImageFix" result="effect1_dropShadow_31_3309"/>
<feBlend mode="normal" in="SourceGraphic" in2="effect1_dropShadow_31_3309" result="shape"/>
</filter>
<filter id="filter8_d_31_3309" x="21.5" y="23.5" width="53" height="53" filterUnits="userSpaceOnUse" color-interpolation-filters="sRGB">
<feFlood flood-opacity="0" result="BackgroundImageFix"/>
<feColorMatrix in="SourceAlpha" type="matrix" values="0 0 0 0 0 0 0 0 0 0 0 0 0 0 0 0 0 0 127 0" result="hardAlpha"/>
<feOffset dy="2"/>
<feGaussianBlur stdDeviation="2"/>
<feComposite in2="hardAlpha" operator="out"/>
<feColorMatrix type="matrix" values="0 0 0 0 0 0 0 0 0 0 0 0 0 0 0 0 0 0 0.25 0"/>
<feBlend mode="normal" in2="BackgroundImageFix" result="effect1_dropShadow_31_3309"/>
<feBlend mode="normal" in="SourceGraphic" in2="effect1_dropShadow_31_3309" result="shape"/>
</filter>
<linearGradient id="paint0_linear_31_3309" x1="48" y1="0" x2="48" y2="96" gradientUnits="userSpaceOnUse">
<stop stop-color="#087CFA"/>
<stop offset="0.317708" stop-color="#963597"/>
<stop offset="0.671875" stop-color="#DD1265"/>
<stop offset="1" stop-color="#ED6438"/>
</linearGradient>
<linearGradient id="paint1_linear_31_3309" x1="30.2418" y1="5.44474" x2="46.9002" y2="69.2859" gradientUnits="userSpaceOnUse">
<stop stop-color="#087CFA"/>
<stop offset="0.33" stop-color="#903ACA"/>
<stop offset="0.6" stop-color="#DD1265"/>
</linearGradient>
<linearGradient id="paint2_linear_31_3309" x1="95.841" y1="102.976" x2="32.8067" y2="9.2661" gradientUnits="userSpaceOnUse">
<stop offset="0.125" stop-color="#FDB60D"/>
<stop offset="0.348958" stop-color="#DD1265"/>
<stop offset="0.661458" stop-color="#9338C6"/>
<stop offset="1" stop-color="#087CFA"/>
</linearGradient>
<linearGradient id="paint3_linear_31_3309" x1="29.325" y1="54.7163" x2="51.7687" y2="78.0548" gradientUnits="userSpaceOnUse">
<stop offset="0.01" stop-color="#087CFA"/>
<stop offset="0.49" stop-color="#903ACA"/>
<stop offset="0.93" stop-color="#DD1265"/>
</linearGradient>
<linearGradient id="paint4_linear_31_3309" x1="55.425" y1="49.1981" x2="71.3325" y2="21.1519" gradientUnits="userSpaceOnUse">
<stop offset="0.59" stop-color="#087CFA"/>
<stop offset="0.99" stop-color="#0093FF"/>
</linearGradient>
<linearGradient id="paint5_linear_31_3309" x1="43.123" y1="11.9719" x2="54.9187" y2="35.3662" gradientUnits="userSpaceOnUse">
<stop offset="0.21" stop-color="#087CFA"/>
<stop offset="0.7" stop-color="#DD1265"/>
</linearGradient>
<linearGradient id="paint6_linear_31_3309" x1="27.6094" y1="15.1612" x2="38.3081" y2="51.6112" gradientUnits="userSpaceOnUse">
<stop stop-color="#087CFA"/>
<stop offset="0.33" stop-color="#903ACA"/>
<stop offset="0.6" stop-color="#DD1265"/>
</linearGradient>
<linearGradient id="paint7_linear_31_3309" x1="95.9422" y1="29.0213" x2="63.3169" y2="66.1801" gradientUnits="userSpaceOnUse">
<stop offset="0.21" stop-color="#087CFA"/>
<stop offset="0.56" stop-color="#903ACA"/>
<stop offset="0.84" stop-color="#DD1265"/>
</linearGradient>
<linearGradient id="paint8_linear_31_3309" x1="72.4294" y1="86.1938" x2="51.9038" y2="58.7326" gradientUnits="userSpaceOnUse">
<stop offset="0.31" stop-color="#FDB60D"/>
<stop offset="1" stop-color="#DD1265"/>
</linearGradient>
<clipPath id="clip0_31_3309">
<rect width="96" height="96" fill="white"/>
</clipPath>
</defs>
</svg>
