<svg width="96" height="96" viewBox="0 0 96 96" fill="none" xmlns="http://www.w3.org/2000/svg">
<g clip-path="url(#clip0_31_3338)">
<path d="M72 0H24C10.7452 0 0 10.7452 0 24V72C0 85.2548 10.7452 96 24 96H72C85.2548 96 96 85.2548 96 72V24C96 10.7452 85.2548 0 72 0Z" fill="url(#paint0_linear_31_3338)"/>
<path d="M72 0H24C10.7452 0 0 10.7452 0 24V72C0 85.2548 10.7452 96 24 96H72C85.2548 96 96 85.2548 96 72V24C96 10.7452 85.2548 0 72 0Z" fill="url(#paint1_linear_31_3338)"/>
<g filter="url(#filter0_i_31_3338)">
<path d="M72 6H24C14.0589 6 6 14.0589 6 24V72C6 81.9411 14.0589 90 24 90H72C81.9411 90 90 81.9411 90 72V24C90 14.0589 81.9411 6 72 6Z" fill="black" fill-opacity="0.7"/>
<mask id="mask0_31_3338" style="mask-type:luminance" maskUnits="userSpaceOnUse" x="12" y="12" width="72" height="72">
<path d="M84 12H12V84H84V12Z" fill="white"/>
</mask>
<g mask="url(#mask0_31_3338)">
<g filter="url(#filter1_d_31_3338)">
<path d="M69.1475 15.0857L50.3109 21.8331L35.4652 15.0857L30.5761 27.4011H27.4149V63.7577L73.1315 64.1554L80.229 27.9497L69.1475 15.0857Z" fill="url(#paint2_linear_31_3338)"/>
</g>
<g filter="url(#filter2_d_31_3338)">
<path d="M68.5852 38.7085L38.5029 20.88L68.5852 56.1394V38.7085Z" fill="url(#paint3_linear_31_3338)"/>
</g>
<g filter="url(#filter3_d_31_3338)">
<path d="M41.8011 79.2L66.4046 75.9225L62.5851 68.5783H68.5851V56.1394L38.496 20.8251L14.4 26.7428L14.4274 61.3028L28.2788 80.9145L41.7257 79.2067L41.7874 79.2H41.8011Z" fill="url(#paint4_linear_31_3338)"/>
</g>
<g filter="url(#filter4_d_31_3338)">
<path d="M27.4286 27.4285H68.5716V68.5714H27.4286V27.4285Z" fill="black"/>
</g>
<path d="M32.5578 60.7954H47.9864V63.3668H32.5578V60.7954Z" fill="white"/>
<path d="M47.8012 32.5508H51.4698L55.536 39.0925L59.6023 32.5508H63.2709V48.0137H59.8903V37.92L55.536 44.5234H55.4469L51.1406 37.9885V48.0137H47.8012V32.5508Z" fill="white"/>
<path d="M32.5715 32.5714H39.6344C41.591 32.5714 43.0904 33.0925 44.1327 34.1349C44.5803 34.6036 44.9283 35.1582 45.1557 35.7652C45.3832 36.3721 45.4854 37.0188 45.4561 37.6663V37.7143C45.5063 38.8064 45.1821 39.8829 44.5373 40.7657C43.9199 41.5589 43.09 42.1606 42.1441 42.5005L45.9224 47.9863H41.9453L38.743 43.248H35.9384V47.9932H32.5715V32.5714ZM39.4287 40.0525C40.1168 40.0831 40.7922 39.8611 41.3281 39.4285C41.5512 39.2292 41.7281 38.9836 41.8466 38.7088C41.9651 38.4341 42.0221 38.1368 42.0138 37.8377V37.7965C42.0394 37.4864 41.9905 37.1746 41.8712 36.8872C41.7519 36.5998 41.5658 36.345 41.3281 36.144C40.7555 35.7436 40.0646 35.5479 39.367 35.5885H35.9521V40.0252L39.4287 40.0525Z" fill="white"/>
</g>
</g>
</g>
<defs>
<filter id="filter0_i_31_3338" x="6" y="6" width="84" height="88" filterUnits="userSpaceOnUse" color-interpolation-filters="sRGB">
<feFlood flood-opacity="0" result="BackgroundImageFix"/>
<feBlend mode="normal" in="SourceGraphic" in2="BackgroundImageFix" result="shape"/>
<feColorMatrix in="SourceAlpha" type="matrix" values="0 0 0 0 0 0 0 0 0 0 0 0 0 0 0 0 0 0 127 0" result="hardAlpha"/>
<feOffset dy="4"/>
<feGaussianBlur stdDeviation="2"/>
<feComposite in2="hardAlpha" operator="arithmetic" k2="-1" k3="1"/>
<feColorMatrix type="matrix" values="0 0 0 0 0 0 0 0 0 0 0 0 0 0 0 0 0 0 0.25 0"/>
<feBlend mode="normal" in2="shape" result="effect1_innerShadow_31_3338"/>
</filter>
<filter id="filter1_d_31_3338" x="23.4149" y="13.0857" width="60.8141" height="57.0696" filterUnits="userSpaceOnUse" color-interpolation-filters="sRGB">
<feFlood flood-opacity="0" result="BackgroundImageFix"/>
<feColorMatrix in="SourceAlpha" type="matrix" values="0 0 0 0 0 0 0 0 0 0 0 0 0 0 0 0 0 0 127 0" result="hardAlpha"/>
<feOffset dy="2"/>
<feGaussianBlur stdDeviation="2"/>
<feComposite in2="hardAlpha" operator="out"/>
<feColorMatrix type="matrix" values="0 0 0 0 0 0 0 0 0 0 0 0 0 0 0 0 0 0 0.25 0"/>
<feBlend mode="normal" in2="BackgroundImageFix" result="effect1_dropShadow_31_3338"/>
<feBlend mode="normal" in="SourceGraphic" in2="effect1_dropShadow_31_3338" result="shape"/>
</filter>
<filter id="filter2_d_31_3338" x="34.5029" y="18.88" width="38.0823" height="43.2594" filterUnits="userSpaceOnUse" color-interpolation-filters="sRGB">
<feFlood flood-opacity="0" result="BackgroundImageFix"/>
<feColorMatrix in="SourceAlpha" type="matrix" values="0 0 0 0 0 0 0 0 0 0 0 0 0 0 0 0 0 0 127 0" result="hardAlpha"/>
<feOffset dy="2"/>
<feGaussianBlur stdDeviation="2"/>
<feComposite in2="hardAlpha" operator="out"/>
<feColorMatrix type="matrix" values="0 0 0 0 0 0 0 0 0 0 0 0 0 0 0 0 0 0 0.25 0"/>
<feBlend mode="normal" in2="BackgroundImageFix" result="effect1_dropShadow_31_3338"/>
<feBlend mode="normal" in="SourceGraphic" in2="effect1_dropShadow_31_3338" result="shape"/>
</filter>
<filter id="filter3_d_31_3338" x="10.4" y="18.8251" width="62.1851" height="68.0894" filterUnits="userSpaceOnUse" color-interpolation-filters="sRGB">
<feFlood flood-opacity="0" result="BackgroundImageFix"/>
<feColorMatrix in="SourceAlpha" type="matrix" values="0 0 0 0 0 0 0 0 0 0 0 0 0 0 0 0 0 0 127 0" result="hardAlpha"/>
<feOffset dy="2"/>
<feGaussianBlur stdDeviation="2"/>
<feComposite in2="hardAlpha" operator="out"/>
<feColorMatrix type="matrix" values="0 0 0 0 0 0 0 0 0 0 0 0 0 0 0 0 0 0 0.25 0"/>
<feBlend mode="normal" in2="BackgroundImageFix" result="effect1_dropShadow_31_3338"/>
<feBlend mode="normal" in="SourceGraphic" in2="effect1_dropShadow_31_3338" result="shape"/>
</filter>
<filter id="filter4_d_31_3338" x="23.4286" y="25.4285" width="49.1429" height="49.1429" filterUnits="userSpaceOnUse" color-interpolation-filters="sRGB">
<feFlood flood-opacity="0" result="BackgroundImageFix"/>
<feColorMatrix in="SourceAlpha" type="matrix" values="0 0 0 0 0 0 0 0 0 0 0 0 0 0 0 0 0 0 127 0" result="hardAlpha"/>
<feOffset dy="2"/>
<feGaussianBlur stdDeviation="2"/>
<feComposite in2="hardAlpha" operator="out"/>
<feColorMatrix type="matrix" values="0 0 0 0 0 0 0 0 0 0 0 0 0 0 0 0 0 0 0.25 0"/>
<feBlend mode="normal" in2="BackgroundImageFix" result="effect1_dropShadow_31_3338"/>
<feBlend mode="normal" in="SourceGraphic" in2="effect1_dropShadow_31_3338" result="shape"/>
</filter>
<linearGradient id="paint0_linear_31_3338" x1="48" y1="0" x2="48" y2="96" gradientUnits="userSpaceOnUse">
<stop stop-color="#087CFA"/>
<stop offset="0.317708" stop-color="#963597"/>
<stop offset="0.671875" stop-color="#DD1265"/>
<stop offset="1" stop-color="#ED6438"/>
</linearGradient>
<linearGradient id="paint1_linear_31_3338" x1="0.51025" y1="7.67955" x2="66.1619" y2="100.222" gradientUnits="userSpaceOnUse">
<stop stop-color="#6B57FF"/>
<stop offset="0.3" stop-color="#FE2857"/>
<stop offset="0.63" stop-color="#FE2857"/>
<stop offset="0.64" stop-color="#FE3052"/>
<stop offset="0.7" stop-color="#FD533B"/>
<stop offset="0.76" stop-color="#FC6C2A"/>
<stop offset="0.81" stop-color="#FC7B20"/>
<stop offset="0.85" stop-color="#FC801D"/>
</linearGradient>
<linearGradient id="paint2_linear_31_3338" x1="56.6058" y1="53.1634" x2="48.2812" y2="31.3234" gradientUnits="userSpaceOnUse">
<stop stop-color="#FE2857"/>
<stop offset="0.06" stop-color="#FE3052"/>
<stop offset="0.33" stop-color="#FD533B"/>
<stop offset="0.58" stop-color="#FC6C2A"/>
<stop offset="0.81" stop-color="#FC7B20"/>
<stop offset="1" stop-color="#FC801D"/>
</linearGradient>
<linearGradient id="paint3_linear_31_3338" x1="40.752" y1="21.9085" x2="53.6023" y2="33.6891" gradientUnits="userSpaceOnUse">
<stop stop-color="#6B57FF"/>
<stop offset="1" stop-color="#FE2857"/>
</linearGradient>
<linearGradient id="paint4_linear_31_3338" x1="14.688" y1="25.632" x2="57.0034" y2="79.4197" gradientUnits="userSpaceOnUse">
<stop stop-color="#6B57FF"/>
<stop offset="0.3" stop-color="#FE2857"/>
<stop offset="0.63" stop-color="#FE2857"/>
<stop offset="0.64" stop-color="#FE3052"/>
<stop offset="0.7" stop-color="#FD533B"/>
<stop offset="0.76" stop-color="#FC6C2A"/>
<stop offset="0.81" stop-color="#FC7B20"/>
<stop offset="0.85" stop-color="#FC801D"/>
</linearGradient>
<clipPath id="clip0_31_3338">
<rect width="96" height="96" fill="white"/>
</clipPath>
</defs>
</svg>
