<svg width="96" height="96" viewBox="0 0 96 96" fill="none" xmlns="http://www.w3.org/2000/svg">
<g clip-path="url(#clip0_31_3358)">
<path d="M72 0H24C10.7452 0 0 10.7452 0 24V72C0 85.2548 10.7452 96 24 96H72C85.2548 96 96 85.2548 96 72V24C96 10.7452 85.2548 0 72 0Z" fill="url(#paint0_linear_31_3358)"/>
<g filter="url(#filter0_i_31_3358)">
<path d="M72 6H24C14.0589 6 6 14.0589 6 24V72C6 81.9411 14.0589 90 24 90H72C81.9411 90 90 81.9411 90 72V24C90 14.0589 81.9411 6 72 6Z" fill="black" fill-opacity="0.7"/>
<g filter="url(#filter1_d_31_3358)">
<path d="M30 22.5H24C19.0294 22.5 15 26.5294 15 31.5V64.5C15 69.4706 19.0294 73.5 24 73.5H30C34.9706 73.5 39 69.4706 39 64.5V31.5C39 26.5294 34.9706 22.5 30 22.5Z" fill="#115C77"/>
<g style="mix-blend-mode:overlay">
<path d="M30 22.5H24C19.0294 22.5 15 26.5294 15 31.5V64.5C15 69.4706 19.0294 73.5 24 73.5H30C34.9706 73.5 39 69.4706 39 64.5V31.5C39 26.5294 34.9706 22.5 30 22.5Z" fill="white" fill-opacity="0.5"/>
</g>
<path d="M30 25.5H24C20.6863 25.5 18 28.1863 18 31.5V64.5C18 67.8137 20.6863 70.5 24 70.5H30C33.3137 70.5 36 67.8137 36 64.5V31.5C36 28.1863 33.3137 25.5 30 25.5Z" stroke="#111111" stroke-width="5"/>
</g>
<g filter="url(#filter2_d_31_3358)">
<path d="M71.25 22.5H54C49.0294 22.5 45 26.5294 45 31.5V64.5C45 69.4706 49.0294 73.5 54 73.5H71.25C76.2206 73.5 80.25 69.4706 80.25 64.5V31.5C80.25 26.5294 76.2206 22.5 71.25 22.5Z" fill="#115C77"/>
<g style="mix-blend-mode:overlay">
<path d="M71.25 22.5H54C49.0294 22.5 45 26.5294 45 31.5V64.5C45 69.4706 49.0294 73.5 54 73.5H71.25C76.2206 73.5 80.25 69.4706 80.25 64.5V31.5C80.25 26.5294 76.2206 22.5 71.25 22.5Z" fill="white" fill-opacity="0.5"/>
</g>
<path d="M71.25 25.5H54C50.6863 25.5 48 28.1863 48 31.5V64.5C48 67.8137 50.6863 70.5 54 70.5H71.25C74.5637 70.5 77.25 67.8137 77.25 64.5V31.5C77.25 28.1863 74.5637 25.5 71.25 25.5Z" stroke="#111111" stroke-width="5"/>
</g>
</g>
</g>
<defs>
<filter id="filter0_i_31_3358" x="6" y="6" width="84" height="88" filterUnits="userSpaceOnUse" color-interpolation-filters="sRGB">
<feFlood flood-opacity="0" result="BackgroundImageFix"/>
<feBlend mode="normal" in="SourceGraphic" in2="BackgroundImageFix" result="shape"/>
<feColorMatrix in="SourceAlpha" type="matrix" values="0 0 0 0 0 0 0 0 0 0 0 0 0 0 0 0 0 0 127 0" result="hardAlpha"/>
<feOffset dy="4"/>
<feGaussianBlur stdDeviation="2"/>
<feComposite in2="hardAlpha" operator="arithmetic" k2="-1" k3="1"/>
<feColorMatrix type="matrix" values="0 0 0 0 0 0 0 0 0 0 0 0 0 0 0 0 0 0 0.25 0"/>
<feBlend mode="normal" in2="shape" result="effect1_innerShadow_31_3358"/>
</filter>
<filter id="filter1_d_31_3358" x="11" y="20.5" width="32" height="59" filterUnits="userSpaceOnUse" color-interpolation-filters="sRGB">
<feFlood flood-opacity="0" result="BackgroundImageFix"/>
<feColorMatrix in="SourceAlpha" type="matrix" values="0 0 0 0 0 0 0 0 0 0 0 0 0 0 0 0 0 0 127 0" result="hardAlpha"/>
<feOffset dy="2"/>
<feGaussianBlur stdDeviation="2"/>
<feComposite in2="hardAlpha" operator="out"/>
<feColorMatrix type="matrix" values="0 0 0 0 0 0 0 0 0 0 0 0 0 0 0 0 0 0 0.25 0"/>
<feBlend mode="normal" in2="BackgroundImageFix" result="effect1_dropShadow_31_3358"/>
<feBlend mode="normal" in="SourceGraphic" in2="effect1_dropShadow_31_3358" result="shape"/>
</filter>
<filter id="filter2_d_31_3358" x="41" y="20.5" width="43.25" height="59" filterUnits="userSpaceOnUse" color-interpolation-filters="sRGB">
<feFlood flood-opacity="0" result="BackgroundImageFix"/>
<feColorMatrix in="SourceAlpha" type="matrix" values="0 0 0 0 0 0 0 0 0 0 0 0 0 0 0 0 0 0 127 0" result="hardAlpha"/>
<feOffset dy="2"/>
<feGaussianBlur stdDeviation="2"/>
<feComposite in2="hardAlpha" operator="out"/>
<feColorMatrix type="matrix" values="0 0 0 0 0 0 0 0 0 0 0 0 0 0 0 0 0 0 0.25 0"/>
<feBlend mode="normal" in2="BackgroundImageFix" result="effect1_dropShadow_31_3358"/>
<feBlend mode="normal" in="SourceGraphic" in2="effect1_dropShadow_31_3358" result="shape"/>
</filter>
<linearGradient id="paint0_linear_31_3358" x1="48" y1="0" x2="48" y2="96" gradientUnits="userSpaceOnUse">
<stop stop-color="#1FA2D1"/>
<stop offset="1" stop-color="#115C77"/>
</linearGradient>
<clipPath id="clip0_31_3358">
<rect width="96" height="96" fill="white"/>
</clipPath>
</defs>
</svg>
