<svg width="96" height="96" viewBox="0 0 96 96" fill="none" xmlns="http://www.w3.org/2000/svg">
<g clip-path="url(#clip0_31_3370)">
<path d="M72 0H24C10.7452 0 0 10.7452 0 24V72C0 85.2548 10.7452 96 24 96H72C85.2548 96 96 85.2548 96 72V24C96 10.7452 85.2548 0 72 0Z" fill="url(#paint0_linear_31_3370)"/>
<g filter="url(#filter0_i_31_3370)">
<path d="M72 6H24C14.0589 6 6 14.0589 6 24V72C6 81.9411 14.0589 90 24 90H72C81.9411 90 90 81.9411 90 72V24C90 14.0589 81.9411 6 72 6Z" fill="black" fill-opacity="0.7"/>
<path d="M47.9919 12L84 48.0081L47.9919 84L12 48.0081L47.9919 12Z" fill="#8A5AAB"/>
<path d="M47.9919 84L12 48.0081H84L47.9919 84Z" fill="#3A497D"/>
<path d="M60.6369 48.0081L42.39 61.5294V34.4706L60.6369 48.0081Z" fill="white"/>
</g>
</g>
<defs>
<filter id="filter0_i_31_3370" x="6" y="6" width="84" height="88" filterUnits="userSpaceOnUse" color-interpolation-filters="sRGB">
<feFlood flood-opacity="0" result="BackgroundImageFix"/>
<feBlend mode="normal" in="SourceGraphic" in2="BackgroundImageFix" result="shape"/>
<feColorMatrix in="SourceAlpha" type="matrix" values="0 0 0 0 0 0 0 0 0 0 0 0 0 0 0 0 0 0 127 0" result="hardAlpha"/>
<feOffset dy="4"/>
<feGaussianBlur stdDeviation="2"/>
<feComposite in2="hardAlpha" operator="arithmetic" k2="-1" k3="1"/>
<feColorMatrix type="matrix" values="0 0 0 0 0 0 0 0 0 0 0 0 0 0 0 0 0 0 0.25 0"/>
<feBlend mode="normal" in2="shape" result="effect1_innerShadow_31_3370"/>
</filter>
<linearGradient id="paint0_linear_31_3370" x1="48" y1="0" x2="48" y2="96" gradientUnits="userSpaceOnUse">
<stop stop-color="#8A5AAB"/>
<stop offset="1" stop-color="#3A497D"/>
</linearGradient>
<clipPath id="clip0_31_3370">
<rect width="96" height="96" fill="white"/>
</clipPath>
</defs>
</svg>
