<svg width="96" height="96" viewBox="0 0 96 96" fill="none" xmlns="http://www.w3.org/2000/svg">
<g clip-path="url(#clip0_31_3377)">
<path d="M72 0H24C10.7452 0 0 10.7452 0 24V72C0 85.2548 10.7452 96 24 96H72C85.2548 96 96 85.2548 96 72V24C96 10.7452 85.2548 0 72 0Z" fill="url(#paint0_linear_31_3377)"/>
<g filter="url(#filter0_i_31_3377)">
<path d="M72 6H24C14.0589 6 6 14.0589 6 24V72C6 81.9411 14.0589 90 24 90H72C81.9411 90 90 81.9411 90 72V24C90 14.0589 81.9411 6 72 6Z" fill="black" fill-opacity="0.7"/>
<g filter="url(#filter1_d_31_3377)">
<path d="M71.0173 48.1372C71.0173 47.434 70.4976 47.0285 69.8599 47.23L25.987 61.1421C25.348 61.3448 24.8296 62.0801 24.8296 62.782V77.001C24.8296 77.7037 25.348 78.111 25.987 77.9077L69.8599 63.9971C70.4976 63.7944 71.0173 63.0592 71.0173 62.356V48.1372Z" fill="url(#paint1_linear_31_3377)"/>
<path d="M24.8296 47.6842C24.8296 48.3874 25.348 49.1226 25.987 49.3254L69.8663 63.2388C70.5053 63.4415 71.0237 63.0347 71.0237 62.3329V48.1128C71.0237 47.4109 70.5053 46.6757 69.8663 46.4729L25.987 32.5595C25.348 32.3567 24.8296 32.7622 24.8296 33.4654V47.6842Z" fill="#FF9800"/>
<path d="M71.0173 18.9194C71.0173 18.2162 70.4976 17.8094 69.8599 18.0122L25.987 31.9231C25.348 32.1258 24.8296 32.861 24.8296 33.5642V47.783C24.8296 48.4862 25.348 48.8917 25.987 48.6902L69.8599 34.7781C70.4976 34.5754 71.0173 33.8401 71.0173 33.1382V18.9194Z" fill="#FF9800"/>
</g>
</g>
</g>
<defs>
<filter id="filter0_i_31_3377" x="6" y="6" width="84" height="88" filterUnits="userSpaceOnUse" color-interpolation-filters="sRGB">
<feFlood flood-opacity="0" result="BackgroundImageFix"/>
<feBlend mode="normal" in="SourceGraphic" in2="BackgroundImageFix" result="shape"/>
<feColorMatrix in="SourceAlpha" type="matrix" values="0 0 0 0 0 0 0 0 0 0 0 0 0 0 0 0 0 0 127 0" result="hardAlpha"/>
<feOffset dy="4"/>
<feGaussianBlur stdDeviation="2"/>
<feComposite in2="hardAlpha" operator="arithmetic" k2="-1" k3="1"/>
<feColorMatrix type="matrix" values="0 0 0 0 0 0 0 0 0 0 0 0 0 0 0 0 0 0 0.25 0"/>
<feBlend mode="normal" in2="shape" result="effect1_innerShadow_31_3377"/>
</filter>
<filter id="filter1_d_31_3377" x="21.4925" y="16.2916" width="52.8682" height="66.6741" filterUnits="userSpaceOnUse" color-interpolation-filters="sRGB">
<feFlood flood-opacity="0" result="BackgroundImageFix"/>
<feColorMatrix in="SourceAlpha" type="matrix" values="0 0 0 0 0 0 0 0 0 0 0 0 0 0 0 0 0 0 127 0" result="hardAlpha"/>
<feOffset dy="1.66852"/>
<feGaussianBlur stdDeviation="1.66852"/>
<feComposite in2="hardAlpha" operator="out"/>
<feColorMatrix type="matrix" values="0 0 0 0 0 0 0 0 0 0 0 0 0 0 0 0 0 0 0.25 0"/>
<feBlend mode="normal" in2="BackgroundImageFix" result="effect1_dropShadow_31_3377"/>
<feBlend mode="normal" in="SourceGraphic" in2="effect1_dropShadow_31_3377" result="shape"/>
</filter>
<linearGradient id="paint0_linear_31_3377" x1="48" y1="96" x2="48" y2="0" gradientUnits="userSpaceOnUse">
<stop stop-color="#D06F00"/>
<stop offset="1" stop-color="#FF9800"/>
</linearGradient>
<linearGradient id="paint1_linear_31_3377" x1="2570.56" y1="1853.44" x2="2764.27" y2="1205.7" gradientUnits="userSpaceOnUse">
<stop stop-color="#FF9700"/>
<stop offset="0.53" stop-color="#F48E00"/>
<stop offset="1" stop-color="#D06F00"/>
</linearGradient>
<clipPath id="clip0_31_3377">
<rect width="96" height="96" fill="white"/>
</clipPath>
</defs>
</svg>
