<svg width="96" height="96" viewBox="0 0 96 96" fill="none" xmlns="http://www.w3.org/2000/svg">
<g clip-path="url(#clip0_31_3385)">
<path d="M72 0H24C10.7452 0 0 10.7452 0 24V72C0 85.2548 10.7452 96 24 96H72C85.2548 96 96 85.2548 96 72V24C96 10.7452 85.2548 0 72 0Z" fill="url(#paint0_linear_31_3385)"/>
<g filter="url(#filter0_i_31_3385)">
<path d="M72 6H24C14.0589 6 6 14.0589 6 24V72C6 81.9411 14.0589 90 24 90H72C81.9411 90 90 81.9411 90 72V24C90 14.0589 81.9411 6 72 6Z" fill="black" fill-opacity="0.7"/>
<path fill-rule="evenodd" clip-rule="evenodd" d="M34.2125 22.2967C33.3704 21.4658 32.2351 21 31.0521 21H19.5C17.0147 21 15 23.0147 15 25.5V70.5C15 72.9853 17.0147 75 19.5 75H76.5C78.9855 75 81 72.9853 81 70.5V33C81 30.5147 78.9855 28.5 76.5 28.5H42.3462C41.1632 28.5 40.0279 28.0342 39.1858 27.2033L34.2125 22.2967Z" fill="#5739A8"/>
<path d="M74.2756 32.25H21.7247C20.4821 32.25 19.4747 33.2574 19.4747 34.5V62.25C19.4747 63.4926 20.4821 64.5 21.7247 64.5H74.2756C75.5182 64.5 76.5256 63.4926 76.5256 62.25V34.5C76.5256 33.2574 75.5182 32.25 74.2756 32.25Z" fill="#FAFAFA"/>
<g filter="url(#filter1_d_31_3385)">
<path d="M15 40.5C15 38.0147 17.0147 36 19.5 36H76.5C78.9855 36 81 38.0147 81 40.5V70.5C81 72.9853 78.9855 75 76.5 75H19.5C17.0147 75 15 72.9853 15 70.5V40.5Z" fill="#7962E7"/>
</g>
</g>
</g>
<defs>
<filter id="filter0_i_31_3385" x="6" y="6" width="84" height="88" filterUnits="userSpaceOnUse" color-interpolation-filters="sRGB">
<feFlood flood-opacity="0" result="BackgroundImageFix"/>
<feBlend mode="normal" in="SourceGraphic" in2="BackgroundImageFix" result="shape"/>
<feColorMatrix in="SourceAlpha" type="matrix" values="0 0 0 0 0 0 0 0 0 0 0 0 0 0 0 0 0 0 127 0" result="hardAlpha"/>
<feOffset dy="4"/>
<feGaussianBlur stdDeviation="2"/>
<feComposite in2="hardAlpha" operator="arithmetic" k2="-1" k3="1"/>
<feColorMatrix type="matrix" values="0 0 0 0 0 0 0 0 0 0 0 0 0 0 0 0 0 0 0.25 0"/>
<feBlend mode="normal" in2="shape" result="effect1_innerShadow_31_3385"/>
</filter>
<filter id="filter1_d_31_3385" x="12" y="34.5" width="72" height="45" filterUnits="userSpaceOnUse" color-interpolation-filters="sRGB">
<feFlood flood-opacity="0" result="BackgroundImageFix"/>
<feColorMatrix in="SourceAlpha" type="matrix" values="0 0 0 0 0 0 0 0 0 0 0 0 0 0 0 0 0 0 127 0" result="hardAlpha"/>
<feOffset dy="1.5"/>
<feGaussianBlur stdDeviation="1.5"/>
<feComposite in2="hardAlpha" operator="out"/>
<feColorMatrix type="matrix" values="0 0 0 0 0 0 0 0 0 0 0 0 0 0 0 0 0 0 0.25 0"/>
<feBlend mode="normal" in2="BackgroundImageFix" result="effect1_dropShadow_31_3385"/>
<feBlend mode="normal" in="SourceGraphic" in2="effect1_dropShadow_31_3385" result="shape"/>
</filter>
<linearGradient id="paint0_linear_31_3385" x1="96" y1="0" x2="0" y2="96" gradientUnits="userSpaceOnUse">
<stop stop-color="#6653C3"/>
<stop offset="1" stop-color="#5638A5"/>
</linearGradient>
<clipPath id="clip0_31_3385">
<rect width="96" height="96" fill="white"/>
</clipPath>
</defs>
</svg>
