<svg width="96" height="96" viewBox="0 0 96 96" fill="none" xmlns="http://www.w3.org/2000/svg">
<g clip-path="url(#clip0_31_3393)">
<path d="M72 0H24C10.7452 0 0 10.7452 0 24V72C0 85.2548 10.7452 96 24 96H72C85.2548 96 96 85.2548 96 72V24C96 10.7452 85.2548 0 72 0Z" fill="url(#paint0_linear_31_3393)"/>
<g filter="url(#filter0_i_31_3393)">
<path d="M72 6H24C14.0589 6 6 14.0589 6 24V72C6 81.9411 14.0589 90 24 90H72C81.9411 90 90 81.9411 90 72V24C90 14.0589 81.9411 6 72 6Z" fill="black" fill-opacity="0.7"/>
<mask id="mask0_31_3393" style="mask-type:luminance" maskUnits="userSpaceOnUse" x="12" y="12" width="72" height="72">
<path d="M84 12H12V84H84V12Z" fill="white"/>
</mask>
<g mask="url(#mask0_31_3393)">
<g filter="url(#filter1_d_31_3393)">
<path d="M31.8446 72.0137L18.0481 35.7326C17.1854 33.4671 16.8778 31.028 17.1511 28.6193C17.4242 26.2106 18.2703 23.9024 19.6183 21.8876C20.9664 19.8729 22.7773 18.2102 24.8997 17.0388C27.022 15.8674 29.394 15.2212 31.8172 15.1543C35.0818 15.0706 38.2864 16.0422 40.9547 17.9249C43.6231 19.8076 45.613 22.5009 46.6286 25.6046L58.7041 62.4892C61.1383 69.9292 34.5738 79.2 31.8446 72.0137Z" fill="url(#paint1_linear_31_3393)"/>
</g>
<g filter="url(#filter2_d_31_3393)">
<path d="M73.2412 60.5005L39.4286 78.7883C37.4507 79.8585 35.2734 80.5087 33.0328 80.6992C30.7922 80.8897 28.5363 80.616 26.4063 79.8953C24.2763 79.1745 22.3177 78.0218 20.653 76.5105C18.9884 74.9984 17.6534 73.1596 16.7315 71.1086C15.8226 69.0959 15.33 66.9205 15.283 64.7127C15.236 62.5049 15.6357 60.3104 16.458 58.261C17.2803 56.2115 18.5084 54.3494 20.0684 52.7864C21.6284 51.2235 23.4882 49.9919 25.536 49.1656L61.1932 34.7656C64.1406 33.5762 67.4019 33.4109 70.4544 34.2962C73.507 35.1815 76.1738 37.0661 78.0278 39.648C79.212 41.2906 80.0318 43.1669 80.433 45.1517C80.8343 47.1365 80.808 49.1841 80.355 51.1577C79.902 53.1314 79.0328 54.9857 77.8065 56.5968C76.5795 58.208 75.0233 59.5388 73.2412 60.5005Z" fill="url(#paint2_linear_31_3393)"/>
</g>
<g filter="url(#filter3_d_31_3393)">
<path d="M60.4663 60.816L25.5497 43.9406C23.3678 42.8835 21.4706 41.3198 20.0164 39.3799C18.5622 37.44 17.5933 35.1803 17.1906 32.7896C16.7879 30.3988 16.9631 27.9464 17.7015 25.6372C18.44 23.3279 19.7202 21.2289 21.4354 19.5155C23.7457 17.2061 26.7409 15.7059 29.9738 15.2388C33.2069 14.7716 36.5042 15.3626 39.3737 16.9235L73.4537 35.4377C76.7504 37.2326 79.2082 40.2539 80.2942 43.8474C81.3794 47.4409 81.0067 51.3174 79.2547 54.6377C77.5342 57.9017 74.6138 60.3701 71.1087 61.5226C67.6037 62.6752 63.7881 62.4218 60.4663 60.816Z" fill="url(#paint3_linear_31_3393)"/>
</g>
<g filter="url(#filter4_d_31_3393)">
<path d="M24.7406 79.4265C22.4341 78.3735 20.4005 76.8045 18.7975 74.8406C17.1943 72.8764 16.0647 70.5697 15.496 68.099C14.9272 65.6283 14.9344 63.0599 15.5173 60.5924C16.1002 58.125 17.2429 55.8248 18.8572 53.8697L48.3978 18.1715C49.5469 16.7792 51.1219 15.8033 52.8802 15.3944C54.6385 14.9855 56.4825 15.1662 58.1281 15.9086C60.0167 16.7599 61.5167 18.2896 62.3308 20.1946C63.1449 22.0997 63.2137 24.241 62.5234 26.1943L47.1223 69.8948C46.3664 72.056 45.1678 74.0357 43.6033 75.7073C42.0388 77.379 40.1426 78.7058 38.0361 79.6028C35.9296 80.4998 33.6591 80.9475 31.3698 80.9167C29.0804 80.8867 26.8226 80.379 24.7406 79.4265Z" fill="url(#paint4_linear_31_3393)"/>
</g>
<g filter="url(#filter5_d_31_3393)">
<path d="M27.4286 27.4285H68.5715V68.5714H27.4286V27.4285Z" fill="black"/>
</g>
<path d="M32.5577 60.7954H47.9863V63.3668H32.5577V60.7954Z" fill="white"/>
<path d="M36.7064 35.6503H31.9955V32.5097H44.8184V35.6503H40.1075V47.9863H36.7064V35.6503Z" fill="white"/>
<path d="M46.1005 40.2926V40.2514C46.0806 39.1893 46.2764 38.1341 46.6758 37.1498C47.0753 36.1654 47.6702 35.2722 48.4245 34.5242C49.1789 33.7762 50.0771 33.189 51.0649 32.7979C52.0526 32.4069 53.1094 32.2202 54.1713 32.2492C55.299 32.1915 56.4261 32.3738 57.4781 32.784C58.5301 33.1942 59.4831 33.8228 60.2742 34.6285L58.1073 37.1246C57.0666 36.0446 55.6433 35.4166 54.1439 35.376C51.5382 35.376 49.6593 37.5428 49.6593 40.176V40.224C49.6593 42.8777 51.497 45.0857 54.1439 45.0857C55.913 45.0857 56.9965 44.4 58.217 43.2754L60.3839 45.4628C59.6019 46.3705 58.6242 47.089 57.5243 47.5641C56.4245 48.0392 55.2311 48.2586 54.0342 48.2057C52.9895 48.2223 51.9521 48.0291 50.9834 47.6376C50.0147 47.2461 49.1343 46.6642 48.3946 45.9262C47.6548 45.1884 47.0705 44.3096 46.6765 43.342C46.2825 42.3742 46.0866 41.3373 46.1005 40.2926Z" fill="white"/>
</g>
</g>
</g>
<defs>
<filter id="filter0_i_31_3393" x="6" y="6" width="84" height="88" filterUnits="userSpaceOnUse" color-interpolation-filters="sRGB">
<feFlood flood-opacity="0" result="BackgroundImageFix"/>
<feBlend mode="normal" in="SourceGraphic" in2="BackgroundImageFix" result="shape"/>
<feColorMatrix in="SourceAlpha" type="matrix" values="0 0 0 0 0 0 0 0 0 0 0 0 0 0 0 0 0 0 127 0" result="hardAlpha"/>
<feOffset dy="4"/>
<feGaussianBlur stdDeviation="2"/>
<feComposite in2="hardAlpha" operator="arithmetic" k2="-1" k3="1"/>
<feColorMatrix type="matrix" values="0 0 0 0 0 0 0 0 0 0 0 0 0 0 0 0 0 0 0.25 0"/>
<feBlend mode="normal" in2="shape" result="effect1_innerShadow_31_3393"/>
</filter>
<filter id="filter1_d_31_3393" x="13.0543" y="13.1494" width="49.8071" height="67.4548" filterUnits="userSpaceOnUse" color-interpolation-filters="sRGB">
<feFlood flood-opacity="0" result="BackgroundImageFix"/>
<feColorMatrix in="SourceAlpha" type="matrix" values="0 0 0 0 0 0 0 0 0 0 0 0 0 0 0 0 0 0 127 0" result="hardAlpha"/>
<feOffset dy="2"/>
<feGaussianBlur stdDeviation="2"/>
<feComposite in2="hardAlpha" operator="out"/>
<feColorMatrix type="matrix" values="0 0 0 0 0 0 0 0 0 0 0 0 0 0 0 0 0 0 0.25 0"/>
<feBlend mode="normal" in2="BackgroundImageFix" result="effect1_dropShadow_31_3393"/>
<feBlend mode="normal" in="SourceGraphic" in2="effect1_dropShadow_31_3393" result="shape"/>
</filter>
<filter id="filter2_d_31_3393" x="11.2793" y="31.7347" width="73.4363" height="55.0233" filterUnits="userSpaceOnUse" color-interpolation-filters="sRGB">
<feFlood flood-opacity="0" result="BackgroundImageFix"/>
<feColorMatrix in="SourceAlpha" type="matrix" values="0 0 0 0 0 0 0 0 0 0 0 0 0 0 0 0 0 0 127 0" result="hardAlpha"/>
<feOffset dy="2"/>
<feGaussianBlur stdDeviation="2"/>
<feComposite in2="hardAlpha" operator="out"/>
<feColorMatrix type="matrix" values="0 0 0 0 0 0 0 0 0 0 0 0 0 0 0 0 0 0 0.25 0"/>
<feBlend mode="normal" in2="BackgroundImageFix" result="effect1_dropShadow_31_3393"/>
<feBlend mode="normal" in="SourceGraphic" in2="effect1_dropShadow_31_3393" result="shape"/>
</filter>
<filter id="filter3_d_31_3393" x="12.9795" y="13.0831" width="71.9247" height="55.1518" filterUnits="userSpaceOnUse" color-interpolation-filters="sRGB">
<feFlood flood-opacity="0" result="BackgroundImageFix"/>
<feColorMatrix in="SourceAlpha" type="matrix" values="0 0 0 0 0 0 0 0 0 0 0 0 0 0 0 0 0 0 127 0" result="hardAlpha"/>
<feOffset dy="2"/>
<feGaussianBlur stdDeviation="2"/>
<feComposite in2="hardAlpha" operator="out"/>
<feColorMatrix type="matrix" values="0 0 0 0 0 0 0 0 0 0 0 0 0 0 0 0 0 0 0.25 0"/>
<feBlend mode="normal" in2="BackgroundImageFix" result="effect1_dropShadow_31_3393"/>
<feBlend mode="normal" in="SourceGraphic" in2="effect1_dropShadow_31_3393" result="shape"/>
</filter>
<filter id="filter4_d_31_3393" x="11.0747" y="13.1806" width="55.9208" height="73.7377" filterUnits="userSpaceOnUse" color-interpolation-filters="sRGB">
<feFlood flood-opacity="0" result="BackgroundImageFix"/>
<feColorMatrix in="SourceAlpha" type="matrix" values="0 0 0 0 0 0 0 0 0 0 0 0 0 0 0 0 0 0 127 0" result="hardAlpha"/>
<feOffset dy="2"/>
<feGaussianBlur stdDeviation="2"/>
<feComposite in2="hardAlpha" operator="out"/>
<feColorMatrix type="matrix" values="0 0 0 0 0 0 0 0 0 0 0 0 0 0 0 0 0 0 0.25 0"/>
<feBlend mode="normal" in2="BackgroundImageFix" result="effect1_dropShadow_31_3393"/>
<feBlend mode="normal" in="SourceGraphic" in2="effect1_dropShadow_31_3393" result="shape"/>
</filter>
<filter id="filter5_d_31_3393" x="23.4286" y="25.4285" width="49.1429" height="49.1429" filterUnits="userSpaceOnUse" color-interpolation-filters="sRGB">
<feFlood flood-opacity="0" result="BackgroundImageFix"/>
<feColorMatrix in="SourceAlpha" type="matrix" values="0 0 0 0 0 0 0 0 0 0 0 0 0 0 0 0 0 0 127 0" result="hardAlpha"/>
<feOffset dy="2"/>
<feGaussianBlur stdDeviation="2"/>
<feComposite in2="hardAlpha" operator="out"/>
<feColorMatrix type="matrix" values="0 0 0 0 0 0 0 0 0 0 0 0 0 0 0 0 0 0 0.25 0"/>
<feBlend mode="normal" in2="BackgroundImageFix" result="effect1_dropShadow_31_3393"/>
<feBlend mode="normal" in="SourceGraphic" in2="effect1_dropShadow_31_3393" result="shape"/>
</filter>
<linearGradient id="paint0_linear_31_3393" x1="48" y1="0" x2="48" y2="96" gradientUnits="userSpaceOnUse">
<stop stop-color="#3BEA62"/>
<stop offset="0.5" stop-color="#009AE5"/>
<stop offset="1" stop-color="#6B57FF"/>
</linearGradient>
<linearGradient id="paint1_linear_31_3393" x1="40.6149" y1="55.1794" x2="34.9852" y2="38.5166" gradientUnits="userSpaceOnUse">
<stop stop-color="#07C3F2"/>
<stop offset="1" stop-color="#6B57FF"/>
</linearGradient>
<linearGradient id="paint2_linear_31_3393" x1="38.6949" y1="60.8296" x2="58.8686" y2="50.7017" gradientUnits="userSpaceOnUse">
<stop stop-color="#07C3F2"/>
<stop offset="1" stop-color="#009AE5"/>
</linearGradient>
<linearGradient id="paint3_linear_31_3393" x1="64.272" y1="50.9212" x2="30.8914" y2="25.7212" gradientUnits="userSpaceOnUse">
<stop stop-color="#009AE5"/>
<stop offset="1" stop-color="#6B57FF"/>
</linearGradient>
<linearGradient id="paint4_linear_31_3393" x1="29.6846" y1="68.2492" x2="52.4229" y2="21.9428" gradientUnits="userSpaceOnUse">
<stop offset="0.3" stop-color="#07C3F2"/>
<stop offset="0.6" stop-color="#3BEA62"/>
</linearGradient>
<clipPath id="clip0_31_3393">
<rect width="96" height="96" fill="white"/>
</clipPath>
</defs>
</svg>
