<svg width="96" height="96" viewBox="0 0 96 96" fill="none" xmlns="http://www.w3.org/2000/svg">
<g clip-path="url(#clip0_31_3422)">
<path d="M72 0H24C10.7452 0 0 10.7452 0 24V72C0 85.2548 10.7452 96 24 96H72C85.2548 96 96 85.2548 96 72V24C96 10.7452 85.2548 0 72 0Z" fill="url(#paint0_linear_31_3422)"/>
<g filter="url(#filter0_i_31_3422)">
<path d="M72 6H24C14.0589 6 6 14.0589 6 24V72C6 81.9411 14.0589 90 24 90H72C81.9411 90 90 81.9411 90 72V24C90 14.0589 81.9411 6 72 6Z" fill="black" fill-opacity="0.7"/>
<g filter="url(#filter1_d_31_3422)">
<path d="M22.5 27C22.5 20.3725 27.8725 15 34.5 15H61.5C68.1275 15 73.5 20.3725 73.5 27V69C73.5 75.6277 68.1275 81 61.5 81H34.5C27.8725 81 22.5 75.6277 22.5 69V27Z" fill="#7962E7"/>
</g>
<path d="M22.5 30H73.5V69C73.5 75.6277 68.1275 81 61.5 81H34.5C27.8725 81 22.5 75.6277 22.5 69V30Z" fill="#FAFAFA"/>
<path d="M46.5 48H31.5C29.8431 48 28.5 49.3431 28.5 51C28.5 52.6569 29.8431 54 31.5 54H46.5C48.1569 54 49.5 52.6569 49.5 51C49.5 49.3431 48.1569 48 46.5 48Z" fill="#222222"/>
<path d="M64.5 36H31.5C29.8431 36 28.5 37.3431 28.5 39C28.5 40.6569 29.8431 42 31.5 42H64.5C66.1569 42 67.5 40.6569 67.5 39C67.5 37.3431 66.1569 36 64.5 36Z" fill="#222222"/>
</g>
</g>
<defs>
<filter id="filter0_i_31_3422" x="6" y="6" width="84" height="88" filterUnits="userSpaceOnUse" color-interpolation-filters="sRGB">
<feFlood flood-opacity="0" result="BackgroundImageFix"/>
<feBlend mode="normal" in="SourceGraphic" in2="BackgroundImageFix" result="shape"/>
<feColorMatrix in="SourceAlpha" type="matrix" values="0 0 0 0 0 0 0 0 0 0 0 0 0 0 0 0 0 0 127 0" result="hardAlpha"/>
<feOffset dy="4"/>
<feGaussianBlur stdDeviation="2"/>
<feComposite in2="hardAlpha" operator="arithmetic" k2="-1" k3="1"/>
<feColorMatrix type="matrix" values="0 0 0 0 0 0 0 0 0 0 0 0 0 0 0 0 0 0 0.25 0"/>
<feBlend mode="normal" in2="shape" result="effect1_innerShadow_31_3422"/>
</filter>
<filter id="filter1_d_31_3422" x="18.5" y="13" width="59" height="74" filterUnits="userSpaceOnUse" color-interpolation-filters="sRGB">
<feFlood flood-opacity="0" result="BackgroundImageFix"/>
<feColorMatrix in="SourceAlpha" type="matrix" values="0 0 0 0 0 0 0 0 0 0 0 0 0 0 0 0 0 0 127 0" result="hardAlpha"/>
<feOffset dy="2"/>
<feGaussianBlur stdDeviation="2"/>
<feComposite in2="hardAlpha" operator="out"/>
<feColorMatrix type="matrix" values="0 0 0 0 0 0 0 0 0 0 0 0 0 0 0 0 0 0 0.25 0"/>
<feBlend mode="normal" in2="BackgroundImageFix" result="effect1_dropShadow_31_3422"/>
<feBlend mode="normal" in="SourceGraphic" in2="effect1_dropShadow_31_3422" result="shape"/>
</filter>
<linearGradient id="paint0_linear_31_3422" x1="96" y1="0" x2="0" y2="96" gradientUnits="userSpaceOnUse">
<stop stop-color="#6653C3"/>
<stop offset="1" stop-color="#5638A5"/>
</linearGradient>
<clipPath id="clip0_31_3422">
<rect width="96" height="96" fill="white"/>
</clipPath>
</defs>
</svg>
