<svg width="96" height="96" viewBox="0 0 96 96" fill="none" xmlns="http://www.w3.org/2000/svg">
<g clip-path="url(#clip0_31_3431)">
<path d="M72 0H24C10.7452 0 0 10.7452 0 24V72C0 85.2548 10.7452 96 24 96H72C85.2548 96 96 85.2548 96 72V24C96 10.7452 85.2548 0 72 0Z" fill="url(#paint0_linear_31_3431)"/>
<path d="M72 0H24C10.7452 0 0 10.7452 0 24V72C0 85.2548 10.7452 96 24 96H72C85.2548 96 96 85.2548 96 72V24C96 10.7452 85.2548 0 72 0Z" fill="black" fill-opacity="0.9"/>
<g filter="url(#filter0_i_31_3431)">
<path d="M72 6H24C14.0589 6 6 14.0589 6 24V72C6 81.9411 14.0589 90 24 90H72C81.9411 90 90 81.9411 90 72V24C90 14.0589 81.9411 6 72 6Z" fill="black" fill-opacity="0.7"/>
<path d="M62.2304 45.8089C61.9719 45.685 61.7094 45.5657 61.4435 45.4516C60.9804 36.9182 56.3176 32.0328 48.4882 31.9828C48.4527 31.9826 48.4174 31.9826 48.3819 31.9826C43.6989 31.9826 39.8042 33.9815 37.4069 37.6189L41.7129 40.5728C43.5037 37.8557 46.3142 37.2765 48.384 37.2765C48.4079 37.2765 48.4319 37.2765 48.4556 37.2767C51.0335 37.2932 52.9788 38.0427 54.2379 39.5044C55.1541 40.5686 55.7669 42.0391 56.0704 43.8949C53.7848 43.5064 51.3129 43.387 48.6704 43.5385C41.2265 43.9673 36.441 48.3087 36.7625 54.3413C36.9255 57.4013 38.45 60.0337 41.0548 61.7534C43.2571 63.2071 46.0935 63.9181 49.0414 63.7572C52.9344 63.5437 55.9885 62.0584 58.1192 59.3425C59.7373 57.28 60.7607 54.6072 61.2125 51.2394C63.0679 52.3591 64.4429 53.8325 65.2022 55.6037C66.4935 58.6147 66.5688 63.5625 62.5316 67.5962C58.9944 71.13 54.7426 72.6587 48.3168 72.706C41.1889 72.6531 35.7981 70.3672 32.2932 65.9116C29.0111 61.7394 27.315 55.7131 27.2517 48C27.315 40.2868 29.0111 34.2605 32.2932 30.0884C35.7981 25.6328 41.1888 23.3469 48.3167 23.2939C55.4963 23.3473 60.981 25.6442 64.6201 30.1213C66.4044 32.3168 67.7498 35.0777 68.6366 38.2969L73.6826 36.9507C72.6076 32.9882 70.916 29.5736 68.6141 26.7418C63.9488 21.0021 57.1257 18.061 48.3343 18H48.2991C39.5255 18.0608 32.7788 21.013 28.2464 26.7748C24.2132 31.902 22.1327 39.0362 22.0628 47.9789L22.0625 48L22.0628 48.0211C22.1327 56.9638 24.2132 64.0981 28.2464 69.2253C32.7788 74.9869 39.5255 77.9392 48.2991 78H48.3343C56.1344 77.946 61.6325 75.9038 66.1619 71.3785C72.0879 65.4581 71.9094 58.0372 69.9563 53.4815C68.555 50.2147 65.8835 47.5613 62.2304 45.8089ZM48.7628 58.471C45.5003 58.6547 42.1108 57.1903 41.9437 54.0538C41.8198 51.7281 43.5988 49.1331 48.9629 48.824C49.5773 48.7886 50.18 48.7712 50.7722 48.7712C52.7207 48.7712 54.5435 48.9605 56.2007 49.3228C55.5826 57.0422 51.9569 58.2956 48.7628 58.471Z" fill="white"/>
</g>
</g>
<defs>
<filter id="filter0_i_31_3431" x="6" y="6" width="84" height="88" filterUnits="userSpaceOnUse" color-interpolation-filters="sRGB">
<feFlood flood-opacity="0" result="BackgroundImageFix"/>
<feBlend mode="normal" in="SourceGraphic" in2="BackgroundImageFix" result="shape"/>
<feColorMatrix in="SourceAlpha" type="matrix" values="0 0 0 0 0 0 0 0 0 0 0 0 0 0 0 0 0 0 127 0" result="hardAlpha"/>
<feOffset dy="4"/>
<feGaussianBlur stdDeviation="2"/>
<feComposite in2="hardAlpha" operator="arithmetic" k2="-1" k3="1"/>
<feColorMatrix type="matrix" values="0 0 0 0 0 0 0 0 0 0 0 0 0 0 0 0 0 0 0.25 0"/>
<feBlend mode="normal" in2="shape" result="effect1_innerShadow_31_3431"/>
</filter>
<linearGradient id="paint0_linear_31_3431" x1="48" y1="0" x2="48" y2="96" gradientUnits="userSpaceOnUse">
<stop stop-color="white"/>
<stop offset="1" stop-color="#DFDFDF"/>
</linearGradient>
<clipPath id="clip0_31_3431">
<rect width="96" height="96" fill="white"/>
</clipPath>
</defs>
</svg>
