<svg width="96" height="96" viewBox="0 0 96 96" fill="none" xmlns="http://www.w3.org/2000/svg">
<g clip-path="url(#clip0_31_3447)">
<path d="M72 0H24C10.7452 0 0 10.7452 0 24V72C0 85.2548 10.7452 96 24 96H72C85.2548 96 96 85.2548 96 72V24C96 10.7452 85.2548 0 72 0Z" fill="#D3B9FF"/>
<path d="M72 0H24C10.7452 0 0 10.7452 0 24V72C0 85.2548 10.7452 96 24 96H72C85.2548 96 96 85.2548 96 72V24C96 10.7452 85.2548 0 72 0Z" fill="url(#paint0_linear_31_3447)"/>
<path d="M72 0H24C10.7452 0 0 10.7452 0 24V72C0 85.2548 10.7452 96 24 96H72C85.2548 96 96 85.2548 96 72V24C96 10.7452 85.2548 0 72 0Z" fill="url(#paint1_linear_31_3447)"/>
<g filter="url(#filter0_i_31_3447)">
<path d="M72 6H24C14.0589 6 6 14.0589 6 24V72C6 81.9411 14.0589 90 24 90H72C81.9411 90 90 81.9411 90 72V24C90 14.0589 81.9411 6 72 6Z" fill="black" fill-opacity="0.7"/>
<g filter="url(#filter1_d_31_3447)">
<path d="M19.875 41.2495L35.625 34.4995V53.6245C35.625 60.4591 41.1655 65.9995 48 65.9995C54.8345 65.9995 60.375 60.4591 60.375 53.6245V23.2495L76.125 16.4995V56.9995C76.125 69.4259 66.0514 79.4992 53.625 79.4992H42.375C29.9486 79.4992 19.875 69.4259 19.875 56.9995V41.2495Z" fill="#C10080"/>
<path d="M19.875 41.2495L35.625 34.4995V53.6245C35.625 60.4591 41.1655 65.9995 48 65.9995C54.8345 65.9995 60.375 60.4591 60.375 53.6245V23.2495L76.125 16.4995V56.9995C76.125 69.4259 66.0514 79.4992 53.625 79.4992H42.375C29.9486 79.4992 19.875 69.4259 19.875 56.9995V41.2495Z" fill="#8B00E7"/>
</g>
<g filter="url(#filter2_d_31_3447)">
<path d="M42.375 79.4992H53.625C66.0514 79.4992 76.125 69.4259 76.125 56.9995V45.7495C73.875 35.6245 70.0764 30.9691 60.375 25.4995V53.6245C60.375 66.6723 45.2977 77.0977 32.25 77.0977C35.2933 78.6345 38.7331 79.4992 42.375 79.4992Z" fill="#D3B9FF"/>
<path d="M42.375 79.4992H53.625C66.0514 79.4992 76.125 69.4259 76.125 56.9995V45.7495C73.875 35.6245 70.0764 30.9691 60.375 25.4995V53.6245C60.375 66.6723 45.2977 77.0977 32.25 77.0977C35.2933 78.6345 38.7331 79.4992 42.375 79.4992Z" fill="#D404FF"/>
</g>
</g>
</g>
<defs>
<filter id="filter0_i_31_3447" x="6" y="6" width="84" height="86" filterUnits="userSpaceOnUse" color-interpolation-filters="sRGB">
<feFlood flood-opacity="0" result="BackgroundImageFix"/>
<feBlend mode="normal" in="SourceGraphic" in2="BackgroundImageFix" result="shape"/>
<feColorMatrix in="SourceAlpha" type="matrix" values="0 0 0 0 0 0 0 0 0 0 0 0 0 0 0 0 0 0 127 0" result="hardAlpha"/>
<feOffset dy="2"/>
<feGaussianBlur stdDeviation="2"/>
<feComposite in2="hardAlpha" operator="arithmetic" k2="-1" k3="1"/>
<feColorMatrix type="matrix" values="0 0 0 0 0 0 0 0 0 0 0 0 0 0 0 0 0 0 0.25 0"/>
<feBlend mode="normal" in2="shape" result="effect1_innerShadow_31_3447"/>
</filter>
<filter id="filter1_d_31_3447" x="15.875" y="14.4995" width="64.25" height="70.9997" filterUnits="userSpaceOnUse" color-interpolation-filters="sRGB">
<feFlood flood-opacity="0" result="BackgroundImageFix"/>
<feColorMatrix in="SourceAlpha" type="matrix" values="0 0 0 0 0 0 0 0 0 0 0 0 0 0 0 0 0 0 127 0" result="hardAlpha"/>
<feOffset dy="2"/>
<feGaussianBlur stdDeviation="2"/>
<feComposite in2="hardAlpha" operator="out"/>
<feColorMatrix type="matrix" values="0 0 0 0 0 0 0 0 0 0 0 0 0 0 0 0 0 0 0.25 0"/>
<feBlend mode="normal" in2="BackgroundImageFix" result="effect1_dropShadow_31_3447"/>
<feBlend mode="normal" in="SourceGraphic" in2="effect1_dropShadow_31_3447" result="shape"/>
</filter>
<filter id="filter2_d_31_3447" x="28.25" y="23.4995" width="51.875" height="61.9997" filterUnits="userSpaceOnUse" color-interpolation-filters="sRGB">
<feFlood flood-opacity="0" result="BackgroundImageFix"/>
<feColorMatrix in="SourceAlpha" type="matrix" values="0 0 0 0 0 0 0 0 0 0 0 0 0 0 0 0 0 0 127 0" result="hardAlpha"/>
<feOffset dy="2"/>
<feGaussianBlur stdDeviation="2"/>
<feComposite in2="hardAlpha" operator="out"/>
<feColorMatrix type="matrix" values="0 0 0 0 0 0 0 0 0 0 0 0 0 0 0 0 0 0 0.25 0"/>
<feBlend mode="normal" in2="BackgroundImageFix" result="effect1_dropShadow_31_3447"/>
<feBlend mode="normal" in="SourceGraphic" in2="effect1_dropShadow_31_3447" result="shape"/>
</filter>
<linearGradient id="paint0_linear_31_3447" x1="48" y1="0" x2="48" y2="96" gradientUnits="userSpaceOnUse">
<stop stop-color="#CB02C5"/>
<stop offset="0.244792" stop-color="#C101DA"/>
<stop offset="0.510417" stop-color="#B600F0"/>
<stop offset="0.744792" stop-color="#8900D9"/>
<stop offset="1" stop-color="#5800BF"/>
</linearGradient>
<linearGradient id="paint1_linear_31_3447" x1="48" y1="0" x2="48" y2="96" gradientUnits="userSpaceOnUse">
<stop offset="0.125" stop-color="#CB02C5"/>
<stop offset="0.333333" stop-color="#C101DA"/>
<stop offset="0.635417" stop-color="#B600F0"/>
<stop offset="0.864583" stop-color="#8900D9"/>
</linearGradient>
<clipPath id="clip0_31_3447">
<rect width="96" height="96" fill="white"/>
</clipPath>
</defs>
</svg>
