<svg width="96" height="96" viewBox="0 0 96 96" fill="none" xmlns="http://www.w3.org/2000/svg">
<g clip-path="url(#clip0_31_3459)">
<path d="M72 0H24C10.7452 0 0 10.7452 0 24V72C0 85.2548 10.7452 96 24 96H72C85.2548 96 96 85.2548 96 72V24C96 10.7452 85.2548 0 72 0Z" fill="url(#paint0_linear_31_3459)"/>
<path d="M72 0H24C10.7452 0 0 10.7452 0 24V72C0 85.2548 10.7452 96 24 96H72C85.2548 96 96 85.2548 96 72V24C96 10.7452 85.2548 0 72 0Z" fill="url(#paint1_linear_31_3459)"/>
<g filter="url(#filter0_i_31_3459)">
<path d="M72 6H24C14.0589 6 6 14.0589 6 24V72C6 81.9411 14.0589 90 24 90H72C81.9411 90 90 81.9411 90 72V24C90 14.0589 81.9411 6 72 6Z" fill="black" fill-opacity="0.7"/>
<mask id="mask0_31_3459" style="mask-type:luminance" maskUnits="userSpaceOnUse" x="12" y="12" width="72" height="72">
<path d="M84 12H12V84H84V12Z" fill="white"/>
</mask>
<g mask="url(#mask0_31_3459)">
<g filter="url(#filter1_d_31_3459)">
<path d="M70.6081 37.9817L26.5098 42.7132C23.8877 42.9929 21.2569 42.2704 19.1455 40.6907C17.0341 39.1109 15.5986 36.791 15.1269 34.1966C14.8789 32.8264 14.9077 31.4205 15.2113 30.0616C15.5151 28.7027 16.0876 27.4183 16.8953 26.2841C17.703 25.1499 18.7295 24.1887 19.9144 23.4573C21.0992 22.7259 22.4184 22.2389 23.7943 22.0252L67.6252 15.216C69.3209 14.9524 71.0541 15.0723 72.6973 15.5669C74.3406 16.0616 75.852 16.9184 77.1202 18.0743C78.3885 19.2302 79.3822 20.6558 80.0265 22.2461C80.6715 23.8365 80.9512 25.5512 80.8455 27.264C80.6827 29.9727 79.5645 32.5359 77.6902 34.4981C75.816 36.4604 73.3064 37.6947 70.6081 37.9817Z" fill="url(#paint2_linear_31_3459)"/>
</g>
<g filter="url(#filter2_d_31_3459)">
<path d="M54.3085 76.3478L18.0137 39.6755C16.982 38.6326 16.1813 37.3842 15.6639 36.0116C15.1465 34.6388 14.9239 33.1726 15.0106 31.7082C15.0973 30.2438 15.4913 28.814 16.167 27.512C16.8427 26.21 17.785 25.0647 18.9325 24.1508C20.6717 22.7686 22.8065 21.9773 25.0265 21.8923C27.2464 21.8072 29.4355 22.4327 31.2754 23.6777L74.0022 52.6423C75.984 53.9875 77.6272 55.7741 78.8025 57.8615C79.977 59.949 80.652 62.2805 80.7735 64.6728C80.895 67.0652 80.46 69.4531 79.503 71.6489C78.546 73.8448 77.0925 75.789 75.2573 77.328C72.2789 79.8225 68.472 81.1058 64.5915 80.9243C60.7111 80.7428 57.0407 79.1093 54.3085 76.3478Z" fill="url(#paint3_linear_31_3459)"/>
</g>
<g filter="url(#filter3_d_31_3459)">
<path d="M62.5098 17.3348L20.1053 49.0285C19.2098 49.6966 18.4624 50.5426 17.9097 51.5134C17.3571 52.4843 17.0113 53.5589 16.8941 54.6699C16.7768 55.7808 16.8908 56.904 17.2286 57.9688C17.5665 59.0336 18.121 60.017 18.8573 60.8571C20.084 62.2523 21.7534 63.1829 23.5852 63.4926C25.417 63.8023 27.2996 63.4721 28.9167 62.5577L75.0105 36.5005C76.4985 35.6606 77.7803 34.4989 78.762 33.1002C79.7438 31.7014 80.4 30.1011 80.6843 28.4161C80.9678 26.731 80.8718 25.0039 80.403 23.3607C79.9335 21.7176 79.1033 20.2 77.973 18.9188C76.0643 16.7623 73.415 15.4024 70.5504 15.1089C67.6859 14.8155 64.8157 15.61 62.5098 17.3348Z" fill="url(#paint4_linear_31_3459)"/>
</g>
<g filter="url(#filter4_d_31_3459)">
<path d="M58.9714 79.5907L21.5999 62.8045C20.4916 62.3108 19.5095 61.5728 18.7268 60.6457C17.9442 59.7187 17.3815 58.6266 17.0806 57.4512C16.7799 56.2758 16.7489 55.0477 16.99 53.8586C17.2312 52.6696 17.7382 51.5505 18.473 50.5851C19.2727 49.5415 20.3158 48.7096 21.511 48.1621C22.7064 47.6146 24.0176 47.3683 25.3302 47.4445L66.2468 49.9611C68.6826 50.1098 71.0488 50.8314 73.1532 52.0672C75.2572 53.3029 77.0407 55.018 78.357 57.0728C79.6732 59.1276 80.4862 61.4642 80.7292 63.8924C80.9722 66.3206 80.6385 68.7719 79.755 71.0468C78.993 73.0051 77.8418 74.7881 76.3703 76.2877C74.8983 77.7877 73.1374 78.9727 71.1939 79.7722C69.2505 80.571 67.165 80.967 65.0641 80.9355C62.963 80.9047 60.8903 80.4472 58.9714 79.5907Z" fill="url(#paint5_linear_31_3459)"/>
</g>
<g filter="url(#filter5_d_31_3459)">
<path d="M27.4285 27.4285H68.5713V68.5714H27.4285V27.4285Z" fill="black"/>
</g>
<path d="M32.5576 60.7954H47.9862V63.3668H32.5576V60.7954Z" fill="white"/>
<path d="M32.5712 41.3692V32.5097H35.9998V41.28C35.9998 43.8034 37.2614 45.1063 39.3461 45.1063C41.4306 45.1063 42.6854 43.8446 42.6854 41.3897V32.5097H46.1141V41.2526C46.1141 45.9497 43.4809 48.2537 39.3186 48.2537C35.1563 48.2537 32.5712 45.9292 32.5712 41.3692Z" fill="white"/>
<path d="M49.2067 32.5097H55.5427C59.2387 32.5097 61.4741 34.704 61.4741 37.872V37.9132C61.4741 41.4994 58.6833 43.3577 55.2067 43.3577H52.6147V48.0069H49.1861L49.2067 32.5097ZM55.3164 40.3269C57.0238 40.3269 58.0181 39.3052 58.0181 37.9817V37.9337C58.0181 36.4114 56.9553 35.5886 55.2753 35.5886H52.6147V40.3269H55.3164Z" fill="white"/>
</g>
</g>
</g>
<defs>
<filter id="filter0_i_31_3459" x="6" y="6" width="84" height="88" filterUnits="userSpaceOnUse" color-interpolation-filters="sRGB">
<feFlood flood-opacity="0" result="BackgroundImageFix"/>
<feBlend mode="normal" in="SourceGraphic" in2="BackgroundImageFix" result="shape"/>
<feColorMatrix in="SourceAlpha" type="matrix" values="0 0 0 0 0 0 0 0 0 0 0 0 0 0 0 0 0 0 127 0" result="hardAlpha"/>
<feOffset dy="4"/>
<feGaussianBlur stdDeviation="2"/>
<feComposite in2="hardAlpha" operator="arithmetic" k2="-1" k3="1"/>
<feColorMatrix type="matrix" values="0 0 0 0 0 0 0 0 0 0 0 0 0 0 0 0 0 0 0.25 0"/>
<feBlend mode="normal" in2="shape" result="effect1_innerShadow_31_3459"/>
</filter>
<filter id="filter1_d_31_3459" x="10.9601" y="13.0797" width="73.9072" height="35.6924" filterUnits="userSpaceOnUse" color-interpolation-filters="sRGB">
<feFlood flood-opacity="0" result="BackgroundImageFix"/>
<feColorMatrix in="SourceAlpha" type="matrix" values="0 0 0 0 0 0 0 0 0 0 0 0 0 0 0 0 0 0 127 0" result="hardAlpha"/>
<feOffset dy="2"/>
<feGaussianBlur stdDeviation="2"/>
<feComposite in2="hardAlpha" operator="out"/>
<feColorMatrix type="matrix" values="0 0 0 0 0 0 0 0 0 0 0 0 0 0 0 0 0 0 0.25 0"/>
<feBlend mode="normal" in2="BackgroundImageFix" result="effect1_dropShadow_31_3459"/>
<feBlend mode="normal" in="SourceGraphic" in2="effect1_dropShadow_31_3459" result="shape"/>
</filter>
<filter id="filter2_d_31_3459" x="10.9923" y="19.8846" width="73.8011" height="67.0566" filterUnits="userSpaceOnUse" color-interpolation-filters="sRGB">
<feFlood flood-opacity="0" result="BackgroundImageFix"/>
<feColorMatrix in="SourceAlpha" type="matrix" values="0 0 0 0 0 0 0 0 0 0 0 0 0 0 0 0 0 0 127 0" result="hardAlpha"/>
<feOffset dy="2"/>
<feGaussianBlur stdDeviation="2"/>
<feComposite in2="hardAlpha" operator="out"/>
<feColorMatrix type="matrix" values="0 0 0 0 0 0 0 0 0 0 0 0 0 0 0 0 0 0 0.25 0"/>
<feBlend mode="normal" in2="BackgroundImageFix" result="effect1_dropShadow_31_3459"/>
<feBlend mode="normal" in="SourceGraphic" in2="effect1_dropShadow_31_3459" result="shape"/>
</filter>
<filter id="filter3_d_31_3459" x="12.8494" y="13.0492" width="71.9941" height="56.5566" filterUnits="userSpaceOnUse" color-interpolation-filters="sRGB">
<feFlood flood-opacity="0" result="BackgroundImageFix"/>
<feColorMatrix in="SourceAlpha" type="matrix" values="0 0 0 0 0 0 0 0 0 0 0 0 0 0 0 0 0 0 127 0" result="hardAlpha"/>
<feOffset dy="2"/>
<feGaussianBlur stdDeviation="2"/>
<feComposite in2="hardAlpha" operator="out"/>
<feColorMatrix type="matrix" values="0 0 0 0 0 0 0 0 0 0 0 0 0 0 0 0 0 0 0.25 0"/>
<feBlend mode="normal" in2="BackgroundImageFix" result="effect1_dropShadow_31_3459"/>
<feBlend mode="normal" in="SourceGraphic" in2="effect1_dropShadow_31_3459" result="shape"/>
</filter>
<filter id="filter4_d_31_3459" x="12.8296" y="45.431" width="71.9767" height="41.5063" filterUnits="userSpaceOnUse" color-interpolation-filters="sRGB">
<feFlood flood-opacity="0" result="BackgroundImageFix"/>
<feColorMatrix in="SourceAlpha" type="matrix" values="0 0 0 0 0 0 0 0 0 0 0 0 0 0 0 0 0 0 127 0" result="hardAlpha"/>
<feOffset dy="2"/>
<feGaussianBlur stdDeviation="2"/>
<feComposite in2="hardAlpha" operator="out"/>
<feColorMatrix type="matrix" values="0 0 0 0 0 0 0 0 0 0 0 0 0 0 0 0 0 0 0.25 0"/>
<feBlend mode="normal" in2="BackgroundImageFix" result="effect1_dropShadow_31_3459"/>
<feBlend mode="normal" in="SourceGraphic" in2="effect1_dropShadow_31_3459" result="shape"/>
</filter>
<filter id="filter5_d_31_3459" x="23.4285" y="25.4285" width="49.1428" height="49.1429" filterUnits="userSpaceOnUse" color-interpolation-filters="sRGB">
<feFlood flood-opacity="0" result="BackgroundImageFix"/>
<feColorMatrix in="SourceAlpha" type="matrix" values="0 0 0 0 0 0 0 0 0 0 0 0 0 0 0 0 0 0 127 0" result="hardAlpha"/>
<feOffset dy="2"/>
<feGaussianBlur stdDeviation="2"/>
<feComposite in2="hardAlpha" operator="out"/>
<feColorMatrix type="matrix" values="0 0 0 0 0 0 0 0 0 0 0 0 0 0 0 0 0 0 0.25 0"/>
<feBlend mode="normal" in2="BackgroundImageFix" result="effect1_dropShadow_31_3459"/>
<feBlend mode="normal" in="SourceGraphic" in2="effect1_dropShadow_31_3459" result="shape"/>
</filter>
<linearGradient id="paint0_linear_31_3459" x1="48" y1="0" x2="48" y2="96" gradientUnits="userSpaceOnUse">
<stop stop-color="#3BEA62"/>
<stop offset="0.5" stop-color="#009AE5"/>
<stop offset="1" stop-color="#6B57FF"/>
</linearGradient>
<linearGradient id="paint1_linear_31_3459" x1="80.6558" y1="21.1264" x2="-1.70555" y2="60.9941" gradientUnits="userSpaceOnUse">
<stop stop-color="#FC801D"/>
<stop offset="0.661458" stop-color="#6B57FF"/>
<stop offset="1" stop-color="#08C1F2"/>
</linearGradient>
<linearGradient id="paint2_linear_31_3459" x1="78.4665" y1="25.3577" x2="32.0366" y2="31.5428" gradientUnits="userSpaceOnUse">
<stop stop-color="#FC801D"/>
<stop offset="1" stop-color="#6B57FF"/>
</linearGradient>
<linearGradient id="paint3_linear_31_3459" x1="47.6091" y1="50.3863" x2="51.5725" y2="33.6275" gradientUnits="userSpaceOnUse">
<stop stop-color="#07C3F2"/>
<stop offset="1" stop-color="#6B57FF"/>
</linearGradient>
<linearGradient id="paint4_linear_31_3459" x1="70.615" y1="25.7348" x2="22.4504" y2="56.4617" gradientUnits="userSpaceOnUse">
<stop stop-color="#FC801D"/>
<stop offset="0.92" stop-color="#6B57FF"/>
</linearGradient>
<linearGradient id="paint5_linear_31_3459" x1="76.3545" y1="69.4217" x2="24.9462" y2="50.8457" gradientUnits="userSpaceOnUse">
<stop stop-color="#07C3F2"/>
<stop offset="1" stop-color="#6B57FF"/>
</linearGradient>
<clipPath id="clip0_31_3459">
<rect width="96" height="96" fill="white"/>
</clipPath>
</defs>
</svg>
