<svg width="96" height="96" viewBox="0 0 96 96" fill="none" xmlns="http://www.w3.org/2000/svg">
<g clip-path="url(#clip0_31_3519)">
<path d="M72 0H24C10.7452 0 0 10.7452 0 24V72C0 85.2548 10.7452 96 24 96H72C85.2548 96 96 85.2548 96 72V24C96 10.7452 85.2548 0 72 0Z" fill="url(#paint0_linear_31_3519)"/>
<path d="M72 0H24C10.7452 0 0 10.7452 0 24V72C0 85.2548 10.7452 96 24 96H72C85.2548 96 96 85.2548 96 72V24C96 10.7452 85.2548 0 72 0Z" fill="url(#paint1_linear_31_3519)"/>
<path d="M72 0H24C10.7452 0 0 10.7452 0 24V72C0 85.2548 10.7452 96 24 96H72C85.2548 96 96 85.2548 96 72V24C96 10.7452 85.2548 0 72 0Z" fill="url(#paint2_linear_31_3519)"/>
<g filter="url(#filter0_i_31_3519)">
<path d="M72 6H24C14.0589 6 6 14.0589 6 24V72C6 81.9411 14.0589 90 24 90H72C81.9411 90 90 81.9411 90 72V24C90 14.0589 81.9411 6 72 6Z" fill="black" fill-opacity="0.7"/>
<g filter="url(#filter1_d_31_3519)">
<path d="M48.2967 18.808C47.8201 18.8935 47.3653 19.072 46.9579 19.3331C45.2458 20.4328 44.7519 22.7096 45.855 24.4174C51.9205 33.8159 53.3519 40.9051 52.7312 47.1175C50.221 59.0146 44.7638 61.4278 39.995 61.4278C35.3388 61.4278 36.5858 53.7607 40.0855 51.5167C42.1745 50.2111 44.8508 49.3627 46.9047 49.3627C48.9396 49.363 50.5895 47.7172 50.59 45.6866C50.5895 43.6559 48.9396 42.0101 46.9047 42.0104C44.506 42.0104 42.1525 42.5144 39.9562 43.3728C40.4045 41.2544 40.5706 38.9648 39.9904 36.5305C39.1096 32.8349 36.5738 29.3044 32.1709 25.8825C31.4 25.2825 30.4218 25.0128 29.4516 25.1328C28.4816 25.2528 27.5993 25.7525 26.9985 26.5218C25.7489 28.1249 26.0384 30.4354 27.645 31.6822C31.2319 34.4699 32.4164 36.533 32.8213 38.2315C33.226 39.93 32.9007 41.752 32.0873 44.2557C31.0471 47.6297 29.84 50.6415 29.3108 53.5298C29.0504 54.9514 29.0283 56.4991 28.961 57.735C26.3782 55.216 25.3669 51.8898 25.3669 47.0299C25.3663 44.9993 23.7164 43.3535 21.6815 43.3538C19.6481 43.3557 18.0005 45.0008 18 47.0299C18 53.6675 19.9401 59.9833 25.1387 64.1968C29.8453 68.6835 41.8132 67.0252 41.8132 74.2273C41.8132 76.2607 44.7872 77.25 46.8218 77.25C48.9086 77.25 51.5347 75.8542 51.5347 74.2273C51.5347 66.0553 60.1418 61.0888 74.3108 61.1105C76.3455 61.1131 77.997 59.4688 78 57.4381C78.0037 55.4075 76.3575 53.7583 74.3222 53.7544C73.3534 53.7531 72.4087 53.7866 71.4774 53.8419C73.0617 50.1137 73.7642 46.0096 73.6187 41.5766C73.5518 39.5471 71.8492 37.9558 69.8154 38.0222C67.7799 38.0879 66.1847 39.7889 66.2518 41.8201C66.4433 47.6243 66.2262 52.8073 61.9046 55.5392C60.6758 56.316 59.247 56.9891 57.8923 56.9891C58.9439 54.1265 59.7385 51.1051 60.0639 47.8482C60.2715 45.7699 60.2935 43.3005 60.0562 41.3825C59.6886 38.4103 59.2447 35.0399 60.3721 32.501C61.3848 30.3145 63.6544 29.3988 66.9858 29.3988C69.0192 29.3969 70.6668 27.7518 70.6673 25.7227C70.6686 23.692 69.0207 22.0445 66.9858 22.0427C62.0347 22.0427 58.2815 24.6502 56.1542 27.8005C55.0415 25.4226 53.6871 22.9727 52.0504 20.4367C51.5216 19.6175 50.6885 19.0413 49.7342 18.8346C49.2614 18.7316 48.7729 18.7225 48.2967 18.808Z" fill="#808080"/>
<path d="M48.2967 18.808C47.8201 18.8935 47.3653 19.072 46.9579 19.3331C45.2458 20.4328 44.7519 22.7096 45.855 24.4174C51.9205 33.8159 53.3519 40.9051 52.7312 47.1175C50.221 59.0146 44.7638 61.4278 39.995 61.4278C35.3388 61.4278 36.5858 53.7607 40.0855 51.5167C42.1745 50.2111 44.8508 49.3627 46.9047 49.3627C48.9396 49.363 50.5895 47.7172 50.59 45.6866C50.5895 43.6559 48.9396 42.0101 46.9047 42.0104C44.506 42.0104 42.1525 42.5144 39.9562 43.3728C40.4045 41.2544 40.5706 38.9648 39.9904 36.5305C39.1096 32.8349 36.5738 29.3044 32.1709 25.8825C31.4 25.2825 30.4218 25.0128 29.4516 25.1328C28.4816 25.2528 27.5993 25.7525 26.9985 26.5218C25.7489 28.1249 26.0384 30.4354 27.645 31.6822C31.2319 34.4699 32.4164 36.533 32.8213 38.2315C33.226 39.93 32.9007 41.752 32.0873 44.2557C31.0471 47.6297 29.84 50.6415 29.3108 53.5298C29.0504 54.9514 29.0283 56.4991 28.961 57.735C26.3782 55.216 25.3669 51.8898 25.3669 47.0299C25.3663 44.9993 23.7164 43.3535 21.6815 43.3538C19.6481 43.3557 18.0005 45.0008 18 47.0299C18 53.6675 19.9401 59.9833 25.1387 64.1968C29.8453 68.6835 41.8132 67.0252 41.8132 74.2273C41.8132 76.2607 44.7872 77.25 46.8218 77.25C48.9086 77.25 51.5347 75.8542 51.5347 74.2273C51.5347 66.0553 60.1418 61.0888 74.3108 61.1105C76.3455 61.1131 77.997 59.4688 78 57.4381C78.0037 55.4075 76.3575 53.7583 74.3222 53.7544C73.3534 53.7531 72.4087 53.7866 71.4774 53.8419C73.0617 50.1137 73.7642 46.0096 73.6187 41.5766C73.5518 39.5471 71.8492 37.9558 69.8154 38.0222C67.7799 38.0879 66.1847 39.7889 66.2518 41.8201C66.4433 47.6243 66.2262 52.8073 61.9046 55.5392C60.6758 56.316 59.247 56.9891 57.8923 56.9891C58.9439 54.1265 59.7385 51.1051 60.0639 47.8482C60.2715 45.7699 60.2935 43.3005 60.0562 41.3825C59.6886 38.4103 59.2447 35.0399 60.3721 32.501C61.3848 30.3145 63.6544 29.3988 66.9858 29.3988C69.0192 29.3969 70.6668 27.7518 70.6673 25.7227C70.6686 23.692 69.0207 22.0445 66.9858 22.0427C62.0347 22.0427 58.2815 24.6502 56.1542 27.8005C55.0415 25.4226 53.6871 22.9727 52.0504 20.4367C51.5216 19.6175 50.6885 19.0413 49.7342 18.8346C49.2614 18.7316 48.7729 18.7225 48.2967 18.808Z" fill="url(#paint3_linear_31_3519)"/>
<path d="M48.2967 18.808C47.8201 18.8935 47.3653 19.072 46.9579 19.3331C45.2458 20.4328 44.7519 22.7096 45.855 24.4174C51.9205 33.8159 53.3519 40.9051 52.7312 47.1175C50.221 59.0146 44.7638 61.4278 39.995 61.4278C35.3388 61.4278 36.5858 53.7607 40.0855 51.5167C42.1745 50.2111 44.8508 49.3627 46.9047 49.3627C48.9396 49.363 50.5895 47.7172 50.59 45.6866C50.5895 43.6559 48.9396 42.0101 46.9047 42.0104C44.506 42.0104 42.1525 42.5144 39.9562 43.3728C40.4045 41.2544 40.5706 38.9648 39.9904 36.5305C39.1096 32.8349 36.5738 29.3044 32.1709 25.8825C31.4 25.2825 30.4218 25.0128 29.4516 25.1328C28.4816 25.2528 27.5993 25.7525 26.9985 26.5218C25.7489 28.1249 26.0384 30.4354 27.645 31.6822C31.2319 34.4699 32.4164 36.533 32.8213 38.2315C33.226 39.93 32.9007 41.752 32.0873 44.2557C31.0471 47.6297 29.84 50.6415 29.3108 53.5298C29.0504 54.9514 29.0283 56.4991 28.961 57.735C26.3782 55.216 25.3669 51.8898 25.3669 47.0299C25.3663 44.9993 23.7164 43.3535 21.6815 43.3538C19.6481 43.3557 18.0005 45.0008 18 47.0299C18 53.6675 19.9401 59.9833 25.1387 64.1968C29.8453 68.6835 41.8132 67.0252 41.8132 74.2273C41.8132 76.2607 44.7872 77.25 46.8218 77.25C48.9086 77.25 51.5347 75.8542 51.5347 74.2273C51.5347 66.0553 60.1418 61.0888 74.3108 61.1105C76.3455 61.1131 77.997 59.4688 78 57.4381C78.0037 55.4075 76.3575 53.7583 74.3222 53.7544C73.3534 53.7531 72.4087 53.7866 71.4774 53.8419C73.0617 50.1137 73.7642 46.0096 73.6187 41.5766C73.5518 39.5471 71.8492 37.9558 69.8154 38.0222C67.7799 38.0879 66.1847 39.7889 66.2518 41.8201C66.4433 47.6243 66.2262 52.8073 61.9046 55.5392C60.6758 56.316 59.247 56.9891 57.8923 56.9891C58.9439 54.1265 59.7385 51.1051 60.0639 47.8482C60.2715 45.7699 60.2935 43.3005 60.0562 41.3825C59.6886 38.4103 59.2447 35.0399 60.3721 32.501C61.3848 30.3145 63.6544 29.3988 66.9858 29.3988C69.0192 29.3969 70.6668 27.7518 70.6673 25.7227C70.6686 23.692 69.0207 22.0445 66.9858 22.0427C62.0347 22.0427 58.2815 24.6502 56.1542 27.8005C55.0415 25.4226 53.6871 22.9727 52.0504 20.4367C51.5216 19.6175 50.6885 19.0413 49.7342 18.8346C49.2614 18.7316 48.7729 18.7225 48.2967 18.808Z" fill="url(#paint4_linear_31_3519)"/>
<path d="M48.2967 18.808C47.8201 18.8935 47.3653 19.072 46.9579 19.3331C45.2458 20.4328 44.7519 22.7096 45.855 24.4174C51.9205 33.8159 53.3519 40.9051 52.7312 47.1175C50.221 59.0146 44.7638 61.4278 39.995 61.4278C35.3388 61.4278 36.5858 53.7607 40.0855 51.5167C42.1745 50.2111 44.8508 49.3627 46.9047 49.3627C48.9396 49.363 50.5895 47.7172 50.59 45.6866C50.5895 43.6559 48.9396 42.0101 46.9047 42.0104C44.506 42.0104 42.1525 42.5144 39.9562 43.3728C40.4045 41.2544 40.5706 38.9648 39.9904 36.5305C39.1096 32.8349 36.5738 29.3044 32.1709 25.8825C31.4 25.2825 30.4218 25.0128 29.4516 25.1328C28.4816 25.2528 27.5993 25.7525 26.9985 26.5218C25.7489 28.1249 26.0384 30.4354 27.645 31.6822C31.2319 34.4699 32.4164 36.533 32.8213 38.2315C33.226 39.93 32.9007 41.752 32.0873 44.2557C31.0471 47.6297 29.84 50.6415 29.3108 53.5298C29.0504 54.9514 29.0283 56.4991 28.961 57.735C26.3782 55.216 25.3669 51.8898 25.3669 47.0299C25.3663 44.9993 23.7164 43.3535 21.6815 43.3538C19.6481 43.3557 18.0005 45.0008 18 47.0299C18 53.6675 19.9401 59.9833 25.1387 64.1968C29.8453 68.6835 41.8132 67.0252 41.8132 74.2273C41.8132 76.2607 44.7872 77.25 46.8218 77.25C48.9086 77.25 51.5347 75.8542 51.5347 74.2273C51.5347 66.0553 60.1418 61.0888 74.3108 61.1105C76.3455 61.1131 77.997 59.4688 78 57.4381C78.0037 55.4075 76.3575 53.7583 74.3222 53.7544C73.3534 53.7531 72.4087 53.7866 71.4774 53.8419C73.0617 50.1137 73.7642 46.0096 73.6187 41.5766C73.5518 39.5471 71.8492 37.9558 69.8154 38.0222C67.7799 38.0879 66.1847 39.7889 66.2518 41.8201C66.4433 47.6243 66.2262 52.8073 61.9046 55.5392C60.6758 56.316 59.247 56.9891 57.8923 56.9891C58.9439 54.1265 59.7385 51.1051 60.0639 47.8482C60.2715 45.7699 60.2935 43.3005 60.0562 41.3825C59.6886 38.4103 59.2447 35.0399 60.3721 32.501C61.3848 30.3145 63.6544 29.3988 66.9858 29.3988C69.0192 29.3969 70.6668 27.7518 70.6673 25.7227C70.6686 23.692 69.0207 22.0445 66.9858 22.0427C62.0347 22.0427 58.2815 24.6502 56.1542 27.8005C55.0415 25.4226 53.6871 22.9727 52.0504 20.4367C51.5216 19.6175 50.6885 19.0413 49.7342 18.8346C49.2614 18.7316 48.7729 18.7225 48.2967 18.808Z" fill="url(#paint5_linear_31_3519)"/>
</g>
</g>
</g>
<defs>
<filter id="filter0_i_31_3519" x="6" y="6" width="84" height="88" filterUnits="userSpaceOnUse" color-interpolation-filters="sRGB">
<feFlood flood-opacity="0" result="BackgroundImageFix"/>
<feBlend mode="normal" in="SourceGraphic" in2="BackgroundImageFix" result="shape"/>
<feColorMatrix in="SourceAlpha" type="matrix" values="0 0 0 0 0 0 0 0 0 0 0 0 0 0 0 0 0 0 127 0" result="hardAlpha"/>
<feOffset dy="4"/>
<feGaussianBlur stdDeviation="2"/>
<feComposite in2="hardAlpha" operator="arithmetic" k2="-1" k3="1"/>
<feColorMatrix type="matrix" values="0 0 0 0 0 0 0 0 0 0 0 0 0 0 0 0 0 0 0.25 0"/>
<feBlend mode="normal" in2="shape" result="effect1_innerShadow_31_3519"/>
</filter>
<filter id="filter1_d_31_3519" x="14" y="16.75" width="68" height="66.5" filterUnits="userSpaceOnUse" color-interpolation-filters="sRGB">
<feFlood flood-opacity="0" result="BackgroundImageFix"/>
<feColorMatrix in="SourceAlpha" type="matrix" values="0 0 0 0 0 0 0 0 0 0 0 0 0 0 0 0 0 0 127 0" result="hardAlpha"/>
<feOffset dy="2"/>
<feGaussianBlur stdDeviation="2"/>
<feComposite in2="hardAlpha" operator="out"/>
<feColorMatrix type="matrix" values="0 0 0 0 0 0 0 0 0 0 0 0 0 0 0 0 0 0 0.25 0"/>
<feBlend mode="normal" in2="BackgroundImageFix" result="effect1_dropShadow_31_3519"/>
<feBlend mode="normal" in="SourceGraphic" in2="effect1_dropShadow_31_3519" result="shape"/>
</filter>
<linearGradient id="paint0_linear_31_3519" x1="9.8841e-05" y1="48" x2="96" y2="48" gradientUnits="userSpaceOnUse">
<stop stop-color="#0066FF"/>
<stop offset="1" stop-color="#00CCFF"/>
</linearGradient>
<linearGradient id="paint1_linear_31_3519" x1="-1.14067e-05" y1="47.9999" x2="96" y2="47.9999" gradientUnits="userSpaceOnUse">
<stop stop-color="#88AA00"/>
<stop offset="1" stop-color="#FFCC00"/>
</linearGradient>
<linearGradient id="paint2_linear_31_3519" x1="-0.000223282" y1="47.9998" x2="96" y2="47.9998" gradientUnits="userSpaceOnUse">
<stop stop-color="#37C871"/>
<stop offset="1" stop-color="#217844"/>
</linearGradient>
<linearGradient id="paint3_linear_31_3519" x1="18.0001" y1="48" x2="78" y2="48" gradientUnits="userSpaceOnUse">
<stop stop-color="#0066FF"/>
<stop offset="1" stop-color="#00CCFF"/>
</linearGradient>
<linearGradient id="paint4_linear_31_3519" x1="18" y1="47.9999" x2="78" y2="47.9999" gradientUnits="userSpaceOnUse">
<stop stop-color="#88AA00"/>
<stop offset="1" stop-color="#FFCC00"/>
</linearGradient>
<linearGradient id="paint5_linear_31_3519" x1="17.9999" y1="47.9999" x2="78" y2="47.9999" gradientUnits="userSpaceOnUse">
<stop stop-color="#37C871"/>
<stop offset="1" stop-color="#217844"/>
</linearGradient>
<clipPath id="clip0_31_3519">
<rect width="96" height="96" fill="white"/>
</clipPath>
</defs>
</svg>
