<svg width="96" height="96" viewBox="0 0 96 96" fill="none" xmlns="http://www.w3.org/2000/svg">
<g clip-path="url(#clip0_31_3530)">
<path d="M72 0H24C10.7452 0 0 10.7452 0 24V72C0 85.2548 10.7452 96 24 96H72C85.2548 96 96 85.2548 96 72V24C96 10.7452 85.2548 0 72 0Z" fill="url(#paint0_linear_31_3530)"/>
<g filter="url(#filter0_i_31_3530)">
<path d="M72 6H24C14.0589 6 6 14.0589 6 24V72C6 81.9411 14.0589 90 24 90H72C81.9411 90 90 81.9411 90 72V24C90 14.0589 81.9411 6 72 6Z" fill="black" fill-opacity="0.7"/>
<path d="M65.8125 62.3906C65.125 62.1719 64.5 61.7813 64.0625 61.3281C63.4375 60.6563 59.7188 53.9063 59.7188 53.4218C59.7188 53.1563 59.7812 53.0312 59.9218 53.0937C60.0625 53.1406 60.5 52.3125 61.2812 50.5C62.5937 47.5156 62.625 47.4844 63.7187 48.3125C66.7031 50.5937 69.3594 51.7656 72.1406 52C73.3125 52.1093 73.625 52.25 73.625 52.6875C73.625 52.8437 74.1202 52.1419 74.1827 52.1731C74.2608 52.1888 73.0157 55.0625 71.9375 57.4688C70.0937 61.625 69.9531 61.8906 69.4219 62.1406C68.7969 62.4531 66.4843 62.6093 65.8125 62.3906Z" fill="url(#paint1_linear_31_3530)"/>
<path d="M26.7655 62.2657C26.078 61.9844 26.0624 61.9688 25.1093 59.7969C24.578 58.5938 23.8593 56.9531 23.4999 56.1719L22.5304 53.8979L23.5936 54.75C24.328 54.7657 25.9843 54.375 27.7655 53.75C28.2811 53.5781 29.078 53.3282 29.5312 53.1875C30.0937 53.0156 30.3436 52.875 30.3436 52.6875C30.3436 52.5313 30.4999 52.3751 30.703 52.3282C30.8905 52.2813 31.703 51.9688 32.4999 51.6094C33.2968 51.2501 34.0468 50.9688 34.1718 50.9688C34.2968 50.9688 34.4062 50.9063 34.4062 50.8125C34.4062 50.7344 34.4999 50.6563 34.6093 50.6563C34.7187 50.6563 35.2946 51.8166 35.3437 51.9219C35.9611 53.248 36.0781 53.4844 36.2968 53.1407C36.3905 52.9844 36.4374 53.0625 36.4374 53.375C36.4374 53.9063 32.7655 60.4532 31.9999 61.25C31.1718 62.1407 30.4374 62.4219 28.8593 62.4844C27.7968 62.5157 27.2812 62.4688 26.7655 62.2657Z" fill="url(#paint2_linear_31_3530)"/>
<path d="M65.9687 62.375C65.9687 62.2969 65.7656 62.2187 65.5 62.2187C65.1094 62.2187 65.0312 62.1562 65.0312 61.8281C65.0312 61.4844 64.9688 61.4375 64.4844 61.4375C63.9531 61.4375 63.9375 61.4218 63.9375 60.8593V60.2812L64.5313 60.8438C65.1719 61.4687 65.7969 61.8125 66.5625 61.9843C67.25 62.125 67.2343 62.5312 66.5156 62.5312C66.2188 62.5312 65.9687 62.4688 65.9687 62.375Z" fill="url(#paint3_radial_31_3530)"/>
<path d="M66.8639 62.1291C66.8602 62.0097 67.9122 62.038 68.2969 61.9063C68.6159 61.7971 69.1562 61.5782 69.4843 61.3438C70.1406 60.9063 70.2656 60.9375 70.125 61.5157C70.0468 61.7969 69.9219 61.9063 69.6406 61.9063C69.4063 61.9063 69.2499 62 69.2499 62.1251C69.2499 62.3594 68.7812 62.5313 68.1249 62.5313C67.8437 62.5313 66.8687 62.2853 66.8639 62.1291Z" fill="url(#paint4_radial_31_3530)"/>
<path d="M48.6876 58.8438C48.3126 58.1719 48.047 57.8594 47.9064 57.9063C47.7501 57.9688 47.6876 57.8594 47.6876 57.5782C47.6876 56.8438 51.1564 50.8594 53.4064 47.7187C54.6564 45.9688 54.8751 45.7344 55.3126 45.6875C55.7345 45.6406 55.8126 45.7031 55.9063 46.0625C55.9689 46.2969 55.9532 46.5781 55.8751 46.6875C54.5001 48.6094 53.4688 50.2188 53.4688 50.4063C53.4688 50.5312 53.3282 50.9062 53.172 51.2344C52.672 52.2031 50.2189 58.2813 50.0782 58.9063C50.0314 59.0938 49.9376 59.25 49.8595 59.25C49.7814 59.25 50.4801 61.4632 50.4801 61.635C50.4801 62.2444 49.2501 59.8594 48.6876 58.8438Z" fill="url(#paint5_radial_31_3530)"/>
<path d="M62.8436 59.1718C62.8436 58.5 63.0624 58.4687 63.3905 59.0938C63.703 59.6875 63.6874 59.7187 63.2342 59.7187C62.8905 59.7187 62.8436 59.6563 62.8436 59.1718Z" fill="url(#paint6_radial_31_3530)"/>
<path d="M62.0625 57.7657C62.0625 57.0937 62.2795 57.0841 62.6077 57.709C62.9201 58.3028 63.4249 59.0074 62.9717 59.0074C62.628 59.0074 62.0625 58.25 62.0625 57.7657Z" fill="url(#paint7_radial_31_3530)"/>
<path d="M61.2811 56.3594C61.2811 55.9219 61.2186 55.8125 60.9842 55.8125C60.6561 55.8125 60.4999 55.5157 60.4999 54.8594C60.4999 54.5156 60.4217 54.4063 60.1873 54.4063C59.9998 54.4063 59.8436 54.2656 59.7811 54.0313C59.6561 53.5156 59.6169 52.9644 59.8534 53.0355C60.0764 53.1025 62.0623 56.6407 62.0623 56.8125C62.0623 56.8594 61.8904 56.9062 61.6717 56.9062C61.3279 56.9062 61.2811 56.8438 61.2811 56.3594Z" fill="url(#paint8_radial_31_3530)"/>
<path d="M65.3436 62.2187C65.3436 62.1407 65.203 62.0625 65.0312 62.0625C64.8593 62.0625 64.7186 61.9532 64.7186 61.8281C64.7186 61.7031 64.6093 61.5938 64.4687 61.5938C64.078 61.5938 63.7811 61.1875 63.7811 60.6719C63.7811 60.0938 63.9024 60.0728 64.2343 60.5469C64.5111 60.9422 65.453 61.6875 66.0155 61.8281C66.6405 61.9844 66.5468 62.375 65.8905 62.375C65.5937 62.375 65.3436 62.3125 65.3436 62.2187Z" fill="url(#paint9_radial_31_3530)"/>
<path d="M49.4631 59.9092C49.2756 59.4717 49.1406 58.9531 49.3594 58.8124C49.4375 58.75 49.5469 58.5625 49.6093 58.3906C49.7812 57.75 52.1719 51.8437 52.6562 50.8281C52.7968 50.5312 52.9219 50.1718 52.9219 50.0312C52.9375 49.9062 53.3125 49.2343 53.7656 48.5468C54.2188 47.8594 54.4063 47.5156 54.1875 47.7656C53.9687 48.0312 53.2656 49.0156 52.6562 49.9843C52.0312 50.9531 51.4687 51.7343 51.4063 51.75C51.3281 51.75 51.2812 51.4999 51.2812 51.2031C51.2812 50.7343 51.3281 50.6562 51.6718 50.6562C51.9688 50.6562 52.0781 50.5468 52.2031 50.0781C52.2969 49.75 52.375 49.3594 52.375 49.2187C52.375 49.0624 52.4531 48.9375 52.5469 48.9375C52.7968 48.9375 53.1406 48.4531 53.1562 48.1249C53.1562 47.9687 53.2344 47.8437 53.3125 47.8437C53.4062 47.8437 53.4688 47.7499 53.4688 47.625C53.4688 47.5 53.5781 47.3749 53.7031 47.3125C53.8281 47.2656 53.9375 47.125 53.9375 46.9999C53.9375 46.8906 54.0469 46.75 54.1719 46.6875C54.2968 46.6406 54.4063 46.5312 54.4063 46.4531C54.4063 46.2656 55.2812 45.3437 55.4531 45.3437C55.625 45.3437 56.4128 46.9187 56.5419 47.2204C56.5934 47.341 56.2187 47.2187 56.1562 47.2187C56.0938 47.2187 55.9219 47.4531 55.7968 47.7343C55.6562 48 54.9062 49.5 54.125 51.0469C53.3437 52.5937 52.6562 54.0781 52.5937 54.3281C52.4531 54.9218 51.4063 57.5625 50.8438 58.7344C50.2344 60 50 60.3437 49.7031 60.3437C49.5625 60.3437 49.5568 60.0967 49.4631 59.9092Z" fill="url(#paint10_radial_31_3530)"/>
<path d="M62.2189 58.0781C62.2189 57.4063 62.3751 57.3907 62.7345 57.9844C63.0782 58.5782 63.0782 58.625 62.6095 58.625C62.2657 58.625 62.2189 58.5626 62.2189 58.0781Z" fill="url(#paint11_radial_31_3530)"/>
<path d="M61.4374 56.6719C61.4374 56 61.6119 55.9738 61.953 56.5781C62.6042 57.7321 62.444 57.4869 61.828 57.2188C61.5128 57.0816 61.4374 57.1562 61.4374 56.6719Z" fill="url(#paint12_radial_31_3530)"/>
<path d="M23.3438 55.3907C23.1407 55.1563 22.672 54.2968 22.297 53.4531L21.3875 51.2972L22.3907 51.8593C24.2657 51.6406 32.2189 47.8125 32.2189 47.1406C32.2189 46.9687 32.7908 46.3041 32.8688 46.429C32.9001 46.4603 33.5157 47.7656 34.0157 48.9063C34.583 50.1913 34.8247 50.9236 34.9778 51.2447C35.0975 51.4958 34.9016 51.5766 34.7189 51.5156C34.5626 51.4687 33.8595 51.6875 33.1407 52C32.422 52.3125 31.5782 52.6719 31.2814 52.7968L30.7345 53.0156L31.4376 52.9375C32.3595 52.8438 31.9845 53.0625 30.3751 53.5468C29.7188 53.7343 28.7501 54.0469 28.2345 54.2344C27.2345 54.5781 24.4845 55.3438 24.0938 55.3907C23.9689 55.4063 23.8283 55.5 23.7814 55.6093C23.7345 55.7344 23.5782 55.6406 23.3438 55.3907Z" fill="url(#paint13_linear_31_3530)"/>
<path d="M22.2188 52.6563C22.2188 52.5 22.1251 52.3751 22.0157 52.3751C21.8282 52.3751 21.4798 51.602 20.7454 49.8833C20.7142 49.8208 21.4063 49.8438 22.1407 49.5782C24.7189 48.6407 26.9845 47.4063 29.172 45.75C30.5001 44.7188 30.8126 44.4375 30.8126 44.1875C30.8126 44.0469 30.922 43.9376 31.047 43.9376C31.1719 43.9376 31.2814 43.875 31.2814 43.7813C31.2814 43.7032 31.3751 43.625 31.4845 43.625C31.6876 43.625 33.0626 46.6406 33.2188 47.4532C33.3126 47.8751 33.297 47.8907 33.1095 47.6563C32.8438 47.3282 32.6876 47.2969 32.6876 47.5938C32.6876 48.1875 26.6095 51.2344 23.3126 52.2813C22.8439 52.4375 22.4063 52.6406 22.3438 52.7501C22.2657 52.8594 22.2188 52.8281 22.2188 52.6563Z" fill="url(#paint14_linear_31_3530)"/>
<path d="M30.1875 61.9376C30.1875 61.875 30.3906 61.7032 30.6406 61.5469C30.875 61.4063 31.3438 61.0313 31.6562 60.7031L32.2187 60.125V60.6407C32.2187 61.1876 31.9219 61.5938 31.5313 61.5938C31.3906 61.5938 31.2812 61.7032 31.2812 61.8281C31.2812 61.9844 31.1094 62.0625 30.7344 62.0625C30.4375 62.0625 30.1875 62 30.1875 61.9376Z" fill="url(#paint15_linear_31_3530)"/>
<path d="M20.3905 49.1876L19.7655 47.7656L20.1874 47.6719C21.5624 47.375 24.578 45.7969 26.2967 44.4688C27.4374 43.5938 29.5624 41.4532 29.5624 41.1875C29.5624 41.0625 29.6405 40.9688 29.7186 40.9688C29.8124 40.9688 29.8749 40.8594 29.8749 40.7344C29.8749 40.6094 29.969 40.508 30.078 40.5C30.1366 40.4958 30.2435 40.5554 30.4148 40.8788C30.7283 41.4711 31.2431 42.6737 31.8021 44.0469C31.8257 44.1047 32.113 44.7347 32.1911 44.9378C32.2693 45.1409 31.9999 44.8751 31.9061 44.8751C31.8124 44.8751 31.7499 44.7656 31.7499 44.6407C31.7499 44.5157 31.6405 44.4063 31.5155 44.4063C31.3905 44.4063 31.2812 44.5157 31.2812 44.6563C31.2812 44.9063 30.9686 45.1875 29.6405 46.2188C27.6249 47.75 25.0468 49.1876 23.0936 49.875C22.6562 50.0313 22.0937 50.25 21.828 50.3438C21.578 50.4532 21.2811 50.5625 21.1874 50.5781C21.0936 50.6094 20.7343 49.9844 20.3905 49.1876Z" fill="url(#paint16_linear_31_3530)"/>
<path d="M59.1875 73.4531C57.5156 73.0625 56.0312 71.8906 55.0156 70.1563C54.1406 68.6563 54.125 68.625 54.6875 68.625C54.9374 68.625 55.6406 68.3906 56.2187 68.125C57.4375 67.5625 58.9844 67.375 59.9219 67.6719C60.5624 67.8906 62.1562 69.3125 63.1562 70.5469L63.8594 71.4375L64.7187 71.3437L67.1654 67.9831C67.4268 67.6872 66.4956 69.8461 65.0624 71.7969C63.7187 73.1875 61.1718 73.9219 59.1875 73.4531Z" fill="url(#paint17_radial_31_3530)"/>
<path d="M65.8125 62.2187C65.8125 61.8906 65.9687 61.8437 66.5625 62C67.125 62.1562 66.9844 62.5312 66.3594 62.5312C65.9219 62.5312 65.8125 62.4688 65.8125 62.2187Z" fill="url(#paint18_radial_31_3530)"/>
<path d="M49.7813 60.8437C49.3126 59.9687 49.3126 59.9531 49.5938 59.6563C50.0157 59.2031 51.8438 55.0625 52.1251 53.9062C52.2969 53.1718 55.4219 46.9219 55.7188 46.7188C55.8438 46.625 55.8438 46.5937 55.7188 46.5937C55.625 46.5937 55.547 46.4844 55.547 46.3594C55.547 45.8906 55.922 46.1406 56.4063 46.9531C56.8751 47.7187 56.9532 48.3125 56.5938 48.3125C56.375 48.3125 53.1875 54.9062 53.0782 55.5781C52.9063 56.625 52.6719 57.2188 51.6407 59.3281C51.1094 60.4375 54.7733 69.7284 54.828 69.8231C55.066 70.2346 50.2344 61.6719 49.7813 60.8437Z" fill="url(#paint19_radial_31_3530)"/>
<path d="M64.2499 61.2656V60.7969L64.7186 61.125C65.4062 61.6093 65.4218 61.75 64.8124 61.75C64.2968 61.75 64.2499 61.7188 64.2499 61.2656Z" fill="url(#paint20_radial_31_3530)"/>
<path d="M69.4431 61.3911C69.4431 61.3442 69.8126 61.2031 70.1096 60.8906L70.6655 60.3003L70.3908 60.9531C70.2189 61.375 70.047 61.5937 69.8439 61.5937C69.6877 61.5937 69.4431 61.4223 69.4431 61.3911Z" fill="url(#paint21_radial_31_3530)"/>
<path d="M63 59.4844C63 58.7969 63.1406 58.7969 63.5938 59.4844L63.9267 60.0935L63.4688 60.0313C63.0313 60.0313 63 59.9844 63 59.4844Z" fill="url(#paint22_radial_31_3530)"/>
<path d="M60.8126 55.5781C60.8126 54.8906 60.9532 54.8906 61.4064 55.5781L61.7556 56.1809L61.2814 56.125C60.8439 56.125 60.8126 56.0782 60.8126 55.5781Z" fill="url(#paint23_radial_31_3530)"/>
<path d="M60.0311 54.1719C60.0311 53.4844 60.1718 53.4844 60.6249 54.1719L61.031 54.8923L60.4999 54.7188C60.0624 54.7188 60.0311 54.6719 60.0311 54.1719Z" fill="url(#paint24_radial_31_3530)"/>
<path d="M33.2342 47.9063C33.0936 47.6876 33.0155 47.4688 33.0467 47.4219C33.0936 47.375 33.2499 47.5625 33.3905 47.8282C33.6874 48.4219 33.6092 48.4688 33.2342 47.9063Z" fill="url(#paint25_linear_31_3530)"/>
<path d="M30.1405 70.8594C30.078 70.8125 30.0311 70.5626 30.0311 70.3125C30.0311 69.9219 30.078 69.875 30.578 69.875C31.0937 69.875 31.1249 69.9063 31.1249 70.4219C31.1249 70.9219 31.078 70.9688 30.6874 70.9688C30.4374 70.9688 30.1874 70.9219 30.1405 70.8594Z" fill="#00B0E7"/>
<path d="M20.0939 48.3281C20.1563 48.25 20.0948 48.2255 20.0143 48.2009C19.8646 48.1555 18.7221 45.6075 18.8688 45.5292C18.9157 45.4823 20.6407 44.8125 21.8282 44.3594C22.0938 44.25 22.3282 44.125 22.3751 44.0781C22.4219 44.0156 22.9064 43.6406 23.4689 43.2188C25.4063 41.7968 27.5157 39.5312 27.7501 38.625C27.9689 37.7344 28.0938 37.7187 28.8438 38.4531C29.5938 39.2031 30.3282 40.4219 30.4532 41.1407C30.5001 41.5 30.4688 41.5781 30.2813 41.5C30.1251 41.4375 30.0314 41.4844 30.0314 41.6406C30.0314 41.9219 27.9376 44.0312 26.7657 44.9375C25.5157 45.9062 23.7501 46.9219 22.2657 47.5469C21.4688 47.875 20.9688 48.1719 20.9688 48.3125C20.9688 48.5156 20.9532 48.5156 20.8126 48.3125C20.7188 48.1719 20.6095 48.1406 20.5469 48.2344C20.3907 48.4375 19.9844 48.5312 20.0939 48.3281Z" fill="url(#paint26_linear_31_3530)"/>
<path d="M33.8908 73.4688C33.1251 73.2656 31.7501 72.5625 31.7501 72.375C31.7501 72.2813 32.0001 72.2188 32.297 72.2188C32.5939 72.2188 32.8438 72.2657 32.8438 72.3438C32.8438 72.4063 33.5314 72.4376 34.3595 72.4219C35.4376 72.3907 36.0001 72.4376 36.3283 72.6094C36.5938 72.7344 36.8908 72.8438 37.0157 72.8438C37.3126 72.8438 37.2658 73.2656 36.9532 73.3907C36.4845 73.5626 34.5157 73.625 33.8908 73.4688Z" fill="url(#paint27_linear_31_3530)"/>
<path d="M64.2501 72.1406C64.2501 71.9687 64.1407 71.9218 63.8908 71.9843C63.5938 72.0625 63.3907 71.9062 62.7032 71.0625C61.6408 69.75 60.2501 68.4844 59.5626 68.1874C59.2501 68.0625 58.7501 67.9999 58.3751 68.0468C57.6251 68.125 55.8751 68.8906 55.4376 69.3437C55.0939 69.6718 54.7501 69.7656 54.7813 69.4999C54.7813 69.4062 54.7345 69.3124 54.6564 69.2968C54.5314 69.2656 54.0782 68.5156 52.6408 65.9374L52.047 64.875H52.5313C52.8439 64.875 53.0001 64.9531 53.0001 65.1094C53.0001 65.3593 53.2501 65.4375 53.3439 65.2187C53.3751 65.1562 53.9845 64.6093 54.7189 64.0312C55.9845 62.9843 56.0314 62.9374 55.9845 62.3593C55.9532 61.7656 55.9532 61.75 56.4688 61.75C56.9533 61.75 57.047 61.8593 57.8439 63.0937C58.3126 63.8437 59.172 64.875 59.7345 65.4218C61.0314 66.6406 61.8907 66.9687 63.297 66.8125C63.9688 66.7343 64.2501 66.7656 64.2501 66.8906C64.2501 66.9844 64.3282 67.0624 64.4376 67.0624C64.5313 67.0624 64.9532 67.3437 65.3595 67.6875C65.7814 68.0312 66.2657 68.3125 66.4845 68.3125C66.6876 68.3125 66.9958 68.3489 67.0426 68.3958C66.7884 68.8748 65.7975 70.9345 65.0318 71.7314C64.1881 72.6376 64.2501 72.5156 64.2501 72.1406Z" fill="url(#paint28_radial_31_3530)"/>
<path d="M50.6562 62.3593C50.0937 61.3906 49.9844 60.8437 50.2812 60.5781C50.6562 60.2344 52.3906 56.2969 52.5469 55.4375C52.6406 54.9375 53.0156 53.9062 53.3906 53.1562C53.75 52.3906 54.0156 51.7344 53.9687 51.6875C53.9219 51.6406 53.9687 51.5938 54.0625 51.5938C54.1718 51.5938 54.2344 51.5469 54.2187 51.4843C54.1562 51.3125 55.9006 47.6854 56.2444 47.3104C56.5256 47.0136 56.5781 47.3437 57.0469 48.0937C57.5156 48.8437 57.5156 48.8593 57.2344 49.3281C56.5625 50.4375 55.4843 52.4062 54.7187 53.9375C54.0312 55.2969 53.8906 55.7031 53.9219 56.3281C53.9531 57.1562 53.6093 58.2969 52.7969 60.0625C52.5 60.7187 52.2031 61.4687 52.1406 61.7188C52.0937 61.9843 51.9375 62.2813 51.8125 62.3906C51.6875 62.4844 51.5937 62.7343 51.5937 62.9375C51.5937 63.5781 51.2031 63.3437 50.6562 62.3593Z" fill="url(#paint29_radial_31_3530)"/>
<path d="M67.8593 62.2969C67.8905 62.1406 68.0937 61.9844 68.2968 61.9531C68.5156 61.9219 68.7655 61.8281 68.8593 61.75C68.9686 61.6718 69.0937 61.6406 69.1405 61.7031C69.203 61.75 69.2499 61.7187 69.2499 61.625C69.2499 61.5156 69.328 61.4375 69.4218 61.4375C69.5311 61.4375 69.6771 61.2878 69.8124 61.1719C70.094 60.9305 70.0156 60.9375 70.0312 61.4063C70.0426 61.7498 69.9374 61.9531 69.7655 62.0156C69.6093 62.0781 69.4374 62.1875 69.3905 62.2656C69.328 62.3438 68.953 62.4531 68.5468 62.5C67.9062 62.5625 67.8124 62.5469 67.8593 62.2969Z" fill="url(#paint30_radial_31_3530)"/>
<path d="M63.6251 60.9531C63.6251 60.8593 63.5158 60.6875 63.3908 60.5625C63.1564 60.3125 63.0626 59.25 63.2814 59.25C63.3751 59.25 63.6564 59.6406 64.3126 60.7031L64.5626 61.125H64.0939C63.8439 61.125 63.6251 61.0468 63.6251 60.9531Z" fill="url(#paint31_radial_31_3530)"/>
<path d="M62.3749 58.3906C62.3749 57.7031 62.5155 57.7031 62.9687 58.3906L63.3502 59.0335L62.8436 58.9375C62.4062 58.9375 62.3749 58.8907 62.3749 58.3906Z" fill="url(#paint32_radial_31_3530)"/>
<path d="M61.5936 56.9844C61.5936 56.5469 61.5311 56.4375 61.2812 56.4375C61.0311 56.4375 60.9686 56.3282 60.9686 55.8907C60.9686 55.5938 61.0155 55.3438 61.0624 55.3438C61.203 55.3438 61.7342 56.0313 61.7499 56.2031C61.7499 56.2969 61.9217 56.625 62.1405 56.9531L62.5886 57.674L62.0624 57.5313C61.6249 57.5313 61.5936 57.4844 61.5936 56.9844Z" fill="url(#paint33_radial_31_3530)"/>
<path d="M60.1875 54.4843C60.1875 53.8438 60.2656 53.8125 60.6718 54.2968C61.0625 54.7813 61.0468 55.0313 60.5781 55.0313C60.2344 55.0313 60.1875 54.9688 60.1875 54.4843Z" fill="url(#paint34_radial_31_3530)"/>
<path d="M63.4063 60.5625C63.3595 60.4219 63.3126 60.1093 63.3126 59.8594C63.3126 59.5156 63.2345 59.4062 63.0001 59.4062C62.7501 59.4062 62.6876 59.2969 62.6876 58.8437C62.6876 58.3438 62.7189 58.2969 62.9376 58.4844C63.0782 58.5937 63.297 58.9531 63.422 59.2813C63.547 59.6094 63.5214 59.8981 63.6151 59.8981C63.6932 59.8981 63.9064 59.9531 63.8595 60.0313C63.8126 60.125 63.8282 60.1875 63.9064 60.1875C63.9845 60.1875 64.0939 60.3281 64.1407 60.5C64.2032 60.75 64.1407 60.8125 63.8595 60.8125C63.6564 60.8125 63.4532 60.7031 63.4063 60.5625Z" fill="url(#paint35_radial_31_3530)"/>
<path d="M61.9061 57.4219C61.9061 56.875 61.9217 56.8594 62.203 57.125C62.3593 57.2812 62.4933 57.5417 62.578 57.7031C62.6906 57.918 62.578 58 62.2811 58C61.953 58 61.9061 57.9219 61.9061 57.4219Z" fill="url(#paint36_radial_31_3530)"/>
<path d="M61.125 56.0156C61.125 55.4531 61.125 55.4531 61.4062 55.75C61.5625 55.9063 61.7344 56.1719 61.7968 56.3282C61.875 56.5313 61.8125 56.5937 61.5156 56.5937C61.1719 56.5937 61.125 56.5313 61.125 56.0156Z" fill="url(#paint37_radial_31_3530)"/>
<path d="M60.3439 54.6094C60.3439 54.0469 60.3439 54.0469 60.6251 54.3437C60.7813 54.5 60.9532 54.7656 61.0157 54.9219C61.0939 55.125 61.0314 55.1875 60.7345 55.1875C60.3907 55.1875 60.3439 55.125 60.3439 54.6094Z" fill="url(#paint38_radial_31_3530)"/>
<path d="M59.5624 53.3126C59.5624 52.8907 59.3109 52.2341 59.8435 52.995C59.9322 53.1216 60.0929 53.3925 60.2084 53.5305C60.2709 53.7492 60.2187 53.7813 59.9374 53.7813C59.625 53.7813 59.5624 53.7032 59.5624 53.3126Z" fill="url(#paint39_radial_31_3530)"/>
<path d="M73.0936 53.5468C73.0468 53.4219 73.0468 53.2187 73.0936 53.1094C73.2187 52.75 72.8281 52.5781 71.6718 52.4687C68.8906 52.2343 66.2343 51.0625 63.2499 48.7813L62.6249 48.2968L62.0937 49.125C61.8124 49.5781 61.5937 49.875 61.6249 49.7812C61.6561 49.6875 62.4374 47.875 63.3905 45.75C64.7499 42.6719 65.1562 41.9062 65.3905 41.9062C65.5624 41.9062 66.1093 42.3594 66.6249 42.9219C67.8905 44.2813 69.578 45.3906 71.1718 45.9062C72.3436 46.2969 72.6562 46.3281 74.6718 46.3125L76.8907 46.2812L76.6095 46.9531C75.1252 50.375 73.7343 53.3906 73.5468 53.5625C73.2811 53.8438 73.2031 53.8438 73.0936 53.5468Z" fill="url(#paint40_linear_31_3530)"/>
<path d="M21.0128 46.4983C20.9347 46.3889 19.3595 46.4811 19.2971 46.528C19.2083 46.5453 19.0706 46.3336 18.8736 45.7081C18.7657 45.3653 18.196 43.9265 18.3741 43.879C18.4797 43.8509 18.4141 44.0704 18.3773 43.9582C18.3086 43.7479 18.4376 44.0931 18.4223 43.8997C18.3469 42.9423 18.9063 41.1529 18.9963 41.0687C19.3839 40.7055 20.4998 42.2188 20.4998 41.9844C20.4998 41.875 20.8436 41.5625 21.2498 41.2969C22.0936 40.7656 23.0155 39.9062 23.8436 38.8906C24.2498 38.4062 24.4217 38.0156 24.4999 37.4062L24.4191 36.7129C24.6919 36.502 26.1378 36.7696 26.0413 36.8488C25.5192 36.6045 26.7753 37.0687 27.5936 37.5C27.8564 37.6386 28.245 37.8998 28.395 38.0389C28.7214 38.3417 28.5947 38.5145 28.3592 38.75C28.2499 38.8594 28.1873 39.0313 28.2499 39.1094C28.3748 39.3125 26.9843 41.0156 25.8593 42.0625C23.953 43.8125 23.4374 44.2656 23.5624 44.0625C23.6873 43.8437 23.2343 44.1406 22.9217 44.4844C22.8436 44.5625 22.578 44.7187 22.3592 44.7969C20.0624 45.6875 21.7155 46.3762 21.6842 46.5793C21.6374 46.7668 21.1066 46.6545 21.0128 46.4983Z" fill="url(#paint41_linear_31_3530)"/>
<path d="M36.5156 73.3438C36.3437 73.3125 36.1249 73.2187 36.0311 73.1406C35.7812 72.9375 33.9374 72.8282 33.3905 72.9844C32.5624 73.2188 30.953 72.1094 30.0155 70.6719L29.6499 69.833L30.2343 69.5938C30.5936 69.375 31.2187 68.9218 31.6093 68.5937C32.0156 68.2656 32.4218 68 32.5155 68C32.6093 68 32.6874 67.8906 32.6874 67.7657C32.6874 67.5938 32.8593 67.5313 33.3593 67.5313C34.9687 67.5313 36.8593 66.0156 38.4686 63.4375C39.2499 62.1875 39.3749 62.0625 39.828 62.0625C40.0937 62.0625 40.3436 62.1562 40.3905 62.2656C40.4999 62.5468 40.3593 66.3125 40.1561 68.1094C39.9686 69.8281 40.0624 70.1875 40.6874 70.1875C40.953 70.1875 40.9374 70.25 40.5155 70.8594C39.5156 72.3281 37.5311 73.5625 36.5156 73.3438Z" fill="url(#paint42_linear_31_3530)"/>
<path d="M66.4376 69.0156C66.4376 68.8281 66.3751 68.7969 66.172 68.9219C65.9689 69.0313 65.7189 68.9063 65.047 68.2969C64.5782 67.875 64.0939 67.5313 63.9845 67.5313C63.8751 67.5313 63.7813 67.4844 63.7813 67.4219C63.7813 67.3438 63.3595 67.3281 62.8438 67.3438C61.672 67.4219 60.5782 67.0625 59.7814 66.3594L59.172 65.8281L59.7345 65.8125C60.047 65.8125 60.3283 65.8594 60.3907 65.9063C60.5158 66.0469 62.4845 66.0313 63.297 65.8907C63.672 65.8281 64.4689 65.6094 65.0626 65.3906C65.672 65.1875 66.7189 64.9688 67.4064 64.9219L68.7446 64.5437L68.422 65.3594C67.0783 68.5157 66.4376 69.6875 66.4376 69.0156Z" fill="url(#paint43_radial_31_3530)"/>
<path d="M52.8439 66.125C52.7188 66.0469 52.672 65.9687 52.7501 65.9687C52.8439 65.9687 52.7657 65.8594 52.5939 65.7344C52.4376 65.6094 52.3751 65.5 52.4533 65.5C52.547 65.5 52.547 65.4531 52.4376 65.375C52.1407 65.1719 51.1095 63.1719 51.047 62.6719C51.0001 62.2969 51.0626 62.1094 51.2657 61.9532C51.4376 61.8437 51.6095 61.5313 51.672 61.2656C51.7345 61 52.0314 60.25 52.3282 59.5937C53.1564 57.7813 53.4376 56.8281 53.3595 56.0781C53.297 55.5313 53.4064 55.1719 54.0157 53.9375C55.1407 51.625 56.8012 48.1073 56.9887 48.1073C57.0825 48.1073 57.5001 48.8594 57.7501 49.3281C58.172 50.0938 58.4971 50.456 58.2784 50.7059C58.0753 50.956 56.0001 53.9063 55.5313 54.875C55.0314 55.9532 54.7033 57.0156 54.7813 57.375C54.8126 57.6094 55.3282 58.625 55.9063 59.6563C56.4845 60.6719 57.1095 61.7969 57.2814 62.125C57.4689 62.4688 57.7189 62.875 57.8595 63.0313C58.0001 63.1875 58.2032 63.5156 58.3282 63.75C58.4533 63.9844 58.6408 64.2344 58.7345 64.2969C58.8439 64.3594 58.9376 64.6719 58.9376 64.9844C58.9376 65.5469 58.9376 65.5469 58.6095 65.25C58.422 65.0938 57.922 64.3907 57.4689 63.7187C56.7032 62.5313 56.672 62.5 56.5939 62.9531C56.5314 63.3125 56.2033 63.6719 55.1876 64.4844C54.4532 65.0781 53.7032 65.7188 53.5157 65.9219C53.1251 66.3281 53.1564 66.3281 52.8439 66.125Z" fill="url(#paint44_radial_31_3530)"/>
<path d="M66.1718 62.5781C65.7499 62.5156 65.6561 62.4375 65.6561 62.1406C65.6561 61.7968 65.703 61.7656 66.0624 61.9063C66.2811 62 66.8749 62.0625 67.3749 62.0625C67.8749 62.0625 68.4686 62 68.6874 61.9063C69.0467 61.7812 69.0936 61.7968 69.0936 62.125C69.0936 62.4375 68.9999 62.5 68.3749 62.5937C67.6249 62.6875 67.0624 62.6875 66.1718 62.5781Z" fill="url(#paint45_radial_31_3530)"/>
<path d="M64.4062 61.4375C64.4062 61.0157 64.3594 60.9688 63.9375 60.9688C63.5 60.9688 63.4688 60.9219 63.4688 60.4219C63.4688 59.7344 63.6094 59.7344 64.0625 60.4219C64.25 60.7187 64.6562 61.125 64.9532 61.3125C65.6406 61.7657 65.6406 61.9063 64.9532 61.9063C64.4531 61.9063 64.4062 61.875 64.4062 61.4375Z" fill="url(#paint46_radial_31_3530)"/>
<path d="M31.9061 60.5625C31.9061 60.375 32.4374 59.5625 32.5624 59.5625C32.6249 59.5625 32.6874 59.8125 32.6874 60.1094C32.6874 60.5938 32.6405 60.6563 32.2967 60.6563C32.078 60.6563 31.9061 60.6094 31.9061 60.5625Z" fill="#00B2F7"/>
<path d="M62.625 59.3125C62.5781 59.1718 62.5312 58.8593 62.5312 58.6093C62.5312 58.2656 62.4531 58.1562 62.2344 58.1562C61.9063 58.1562 61.75 57.8593 61.75 57.2031C61.75 56.8594 61.6719 56.7499 61.4375 56.7499C61.1875 56.7499 61.125 56.6406 61.125 56.2031C61.125 55.9062 61.1875 55.6562 61.25 55.6562C61.375 55.6562 63.4688 59.2656 63.4688 59.4687C63.4688 59.6875 62.7188 59.5468 62.625 59.3125Z" fill="url(#paint47_radial_31_3530)"/>
<path d="M60.3439 54.7969C60.3439 54.125 60.5001 54.1094 60.8595 54.7031C61.2032 55.2969 61.2032 55.3438 60.7345 55.3438C60.3907 55.3438 60.3439 55.2813 60.3439 54.7969Z" fill="url(#paint48_radial_31_3530)"/>
<path d="M59.5624 53.3594L59.578 52.7657L59.953 53.2031C60.453 53.7656 60.4374 53.9375 59.953 53.9375C59.6093 53.9375 59.5624 53.8751 59.5624 53.3594Z" fill="url(#paint49_radial_31_3530)"/>
<path d="M30.3124 41.5624C29.9686 41.2187 29.9686 41.125 30.2498 41.125C30.3592 41.125 30.4999 41.2812 30.5467 41.4687C30.6717 41.9062 30.6405 41.9218 30.3124 41.5624Z" fill="url(#paint50_linear_31_3530)"/>
<path d="M31.9375 60.4219C32.3906 59.7344 32.5312 59.7344 32.5312 60.4219C32.5312 60.9219 32.5 60.9688 32.0625 60.9688H31.5938L31.9375 60.4219Z" fill="#00C8E6"/>
<path d="M35.1874 54.9532C35.1874 54.7344 35.6874 53.9375 35.8124 53.9375C35.9061 53.9375 35.9687 54.1875 35.9687 54.4844C35.9687 54.9688 35.9218 55.0313 35.578 55.0313C35.3593 55.0313 35.1874 55.0001 35.1874 54.9532Z" fill="#00C8E6"/>
<path d="M18.3426 44.0116C18.0268 41.3234 19.4487 38.5648 21.625 37.3594C22.6366 36.799 25.0738 36.4373 25.1683 36.7357C25.2151 36.8452 25.2466 37.1703 25.3715 37.1234C25.7622 36.9672 25.6718 37.0625 25.2968 37.5625C25.0781 37.8437 24.9375 38.1562 24.9844 38.25C25.125 38.6406 23.1094 40.8281 21.8281 41.6875C21.4062 41.9844 21.0469 42.2968 21.0469 42.4063C21.0469 42.6406 20.925 44.0545 20.8 43.867C20.7375 43.7733 20.9392 44.0428 20.7985 44.1678C20.611 44.3084 18.3937 44.4461 18.3426 44.0116Z" fill="url(#paint51_linear_31_3530)"/>
<path d="M39.7032 70.3907C39.5626 70.1406 39.5469 69.6718 39.6407 68.6719C39.7188 67.9219 39.7813 66.4063 39.797 65.3125C39.8126 64.2187 39.8594 63.2657 39.9219 63.2188C40.0938 63.0313 40.0469 62.8438 39.8282 62.8438C39.7188 62.8438 39.2188 63.4688 38.7344 64.2188C37.2344 66.5781 35.375 68 33.8282 68C33.2969 68 33.1876 68.0469 33.2501 68.2344C33.3125 68.3906 33.2501 68.4688 33.0782 68.4688C32.9375 68.4688 32.4845 68.7343 32.0782 69.0625C31.6876 69.3906 31.1407 69.7969 30.8594 69.9531C30.5938 70.1094 30.4063 70.3281 30.4532 70.4375C30.5157 70.5938 30.4532 70.6093 30.1407 70.4531C29.8595 70.3281 29.5469 69.8125 28.9688 68.5312L27.011 63.8125C29.8357 64.2709 33.4816 64.0187 33.4816 64.0187C34.716 63.8156 33.7637 63.0049 34.9199 63.3955C36.2324 63.8486 34.571 64.9183 35.696 64.1683C36.0398 63.9339 36.4876 64.0088 36.6438 63.915C36.8157 63.8369 37.0649 64.263 37.0649 64.1692C37.0649 64.0755 37.6344 64.5603 37.775 64.451C38.2126 64.0916 38.3907 63.4531 40.9063 59.1562C42.2501 56.8438 43.9844 53.9218 44.7657 52.6406C46.1407 50.4375 46.2188 50.3438 46.7032 50.3438C47.1875 50.3438 47.2188 50.375 47.2188 50.8594C47.2188 51.125 47.0313 51.6407 46.8282 51.9844C46.6094 52.3281 46.4375 52.7657 46.4375 52.9532C46.4375 53.125 46.2657 53.6563 46.0469 54.125C45.8282 54.5781 45.6563 55.0937 45.6563 55.2656C45.6563 55.4375 45.5469 55.7969 45.4063 56.0469C44.9532 56.8907 43.922 59.9219 43.2657 62.2969C42.7657 64.125 42.6251 64.9375 42.6095 65.9687L42.5938 67.2969L41.6094 69.0313C40.7969 70.4531 40.5626 70.75 40.2657 70.75C40.0469 70.75 39.8126 70.6094 39.7032 70.3907Z" fill="url(#paint52_linear_31_3530)"/>
<path d="M59.672 66.2187C58.7813 65.5468 57.6876 64.0624 56.2501 61.5625C54.6407 58.7344 54.2189 57.9062 54.1563 57.3593C54.1094 56.9531 54.5782 55.4374 55.0626 54.4062C55.6876 53.125 57.422 50.0312 57.6251 49.8593C57.9063 49.6249 57.9532 49.6875 58.6094 50.8281C58.9532 51.4687 59.2965 51.9271 59.1559 51.9897C58.9527 52.0522 57.2189 54.7031 57.2189 55C57.2189 55.0781 56.9688 55.6718 56.672 56.2969C56.3751 56.9374 56.0626 57.8749 55.9844 58.3906C55.8438 59.25 55.8595 59.3906 56.2501 60.1875C56.4845 60.6562 56.7657 61.125 56.8751 61.2499C56.9688 61.3594 57.0626 61.5625 57.0626 61.6718C57.0626 61.875 57.9376 62.2187 58.4376 62.2187C58.5314 62.2187 58.6251 62.2812 58.6251 62.3593C58.6251 62.4218 59.2345 62.3593 60.0001 62.2031C60.7501 62.0468 62.047 61.8593 62.9063 61.8124C64.172 61.7187 64.4688 61.6562 64.5157 61.4374C64.5782 61.2031 64.622 61.3702 65.4532 61.6406C66.8998 62.1114 68.8346 62.1958 70.0938 61.1406C70.5335 60.7722 70.5298 60.6989 69.2501 63.5156C68.391 65.4064 68.0001 66.0312 68.0001 65.4844C68.0001 65.2656 66.7657 65.4531 65.422 65.9062C63.8282 66.4219 62.5938 66.6406 61.7969 66.5156C61.3751 66.4531 61.1251 66.4687 61.1876 66.5625C61.2344 66.6406 61.0626 66.7031 60.8126 66.7187C60.5157 66.7187 60.0938 66.5468 59.672 66.2187Z" fill="url(#paint53_radial_31_3530)"/>
<path d="M63.1094 60.2657C62.9687 59.9531 62.8437 59.5 62.8437 59.25C62.8437 58.8906 62.7656 58.7812 62.5469 58.7812C62.2187 58.7812 62.0624 58.4844 62.0624 57.8282C62.0624 57.4844 61.9844 57.375 61.7656 57.375C61.4375 57.375 61.2812 57.0782 61.2812 56.4219C61.2812 56.0781 61.2031 55.9687 60.9843 55.9687C60.6562 55.9687 60.5 55.6719 60.5 55.0157C60.5 54.6719 60.4218 54.5625 60.2031 54.5625C60.0468 54.5625 59.8593 54.4532 59.8124 54.3125C59.6718 53.9531 59.7031 53.1562 59.8437 53.1562C59.9219 53.1562 60.9218 54.875 62.0937 56.9844C64.1875 60.7344 64.2187 60.8125 63.7968 60.8125C63.4687 60.8125 63.3125 60.6875 63.1094 60.2657Z" fill="url(#paint54_radial_31_3530)"/>
<path d="M35.3748 54.6094C35.9217 53.4531 36.1248 53.3438 36.1248 54.1719C36.1248 54.6563 36.0779 54.7187 35.7186 54.7187C35.4998 54.7187 35.3436 54.6719 35.3748 54.6094Z" fill="#00BFF9"/>
<path d="M56.781 62.3437C56.3592 61.625 55.7655 60.6094 55.4842 60.0781C54.9686 59.1406 54.9686 59.1094 55.2498 58.8125C55.4061 58.625 55.4842 58.4219 55.4373 58.3438C55.3279 58.1563 55.8435 56.5156 56.328 55.5469C56.5623 55.0938 56.7498 54.6562 56.7498 54.5625C56.7498 54.25 58.3905 50.9844 58.5467 50.9844C58.6404 50.9688 58.8904 51.3125 59.1092 51.7188C63.6248 59.9844 64.3748 61.1719 65.4998 61.75C65.7967 61.9219 65.9842 62.0469 65.8905 62.0625C65.8123 62.0625 65.8436 62.1406 65.9685 62.2344C66.1404 62.3594 66.0936 62.375 65.7342 62.2813C64.7186 62.0313 61.8592 62.3281 59.328 62.9219C58.4842 63.125 58.3748 63.1094 58.203 62.8906C58.0935 62.75 57.9529 62.6719 57.906 62.7344C57.8436 62.7969 57.6873 62.75 57.5623 62.6407C57.3592 62.4844 57.3435 62.5 57.453 62.6875C57.5936 62.9219 57.7185 63.625 57.6092 63.625C57.5779 63.625 57.2029 63.0469 56.781 62.3437Z" fill="url(#paint55_radial_31_3530)"/>
<path d="M27.3437 62.5781C27 62.5312 26.9062 62.4219 26.9062 62.1407C26.9062 61.7969 26.9375 61.7812 27.375 61.9375C27.6407 62.0156 28.3438 62.0625 28.9219 62.0312C29.7969 61.9843 30.1406 61.875 30.7969 61.4844L31.5938 60.9844V61.4375C31.5938 61.75 31.5156 61.9063 31.3594 61.9063C31.2343 61.9063 31.125 61.9688 31.125 62.0625C31.125 62.4688 28.7813 62.7969 27.3437 62.5781Z" fill="url(#paint56_linear_31_3530)"/>
<path d="M66.4218 62.3906C66.5312 62.3125 66.5624 62.2188 66.4999 62.1875C66.4218 62.1406 66.453 62.1406 66.5624 62.1719C66.6874 62.1875 66.8749 62.2188 66.9999 62.2188C67.1249 62.2188 67.2187 62.2969 67.2187 62.375C67.2187 62.4688 66.9843 62.5312 66.7187 62.5312C66.3593 62.5312 66.2655 62.4844 66.4218 62.3906Z" fill="url(#paint57_radial_31_3530)"/>
<path d="M76.203 47.2344C76.3747 46.9375 75.8437 46.8437 73.9375 46.8125C72.2813 46.7969 71.797 46.7344 70.7032 46.375C69.0938 45.8594 67.4219 44.75 66.1563 43.3907L65.2188 42.375L64.8907 42.7969L64.4344 43.5411L64.7032 42.8282C65.2188 41.3906 66.3282 39.3281 66.9844 38.6406C68.3751 37.1563 70.5626 36.4063 72.5001 36.75C75.9218 37.3438 78.3127 40.6094 77.703 43.8906C77.4997 44.9844 76.797 46.75 76.5623 46.75C76.4685 46.75 76.4377 46.8437 76.4842 46.9688C76.5315 47.0938 76.4685 47.2344 76.344 47.2813C76.2187 47.3282 76.1565 47.3125 76.203 47.2344Z" fill="url(#paint58_linear_31_3530)"/>
<path d="M35.8124 65.1718C35.4218 65.1094 33.953 65 32.5312 64.9532C31.1093 64.9063 29.4999 64.7813 28.9374 64.6719C28.3749 64.5782 27.8437 64.5156 27.7343 64.5313C27.6249 64.5625 27.4687 64.4218 27.3749 64.2343C27.2656 64.0625 27.5987 64.9849 27.5326 64.9803C27.4217 64.9727 25.7696 61.2284 25.6811 61.07C25.6734 61.0564 26.0468 61.2187 26.5156 61.5156C27.6249 62.1718 28.6406 62.3282 29.7656 62C31.1874 61.5938 31.7812 60.875 34.0468 56.9062C36.3437 52.8437 36.5937 52.5 36.5937 53.375C36.5937 53.9531 36.4374 54.25 36.1093 54.25C35.8749 54.25 35.8124 54.3594 35.8124 54.7969C35.8124 55.1719 35.7343 55.3438 35.5781 55.3438C35.453 55.3438 35.3437 55.4844 35.3437 55.6406C35.3437 56.1094 35.1718 56.4375 34.9374 56.4375C34.8125 56.4375 34.7187 56.5781 34.7187 56.7343C34.7187 57.2031 34.5468 57.5312 34.3124 57.5312C34.1874 57.5312 34.0937 57.6719 34.0937 57.8282C34.0937 58.2969 33.9218 58.625 33.6875 58.625C33.5624 58.625 33.4687 58.7813 33.4687 59C33.4687 59.3438 33.5312 59.375 34.8437 59.4688C35.5937 59.5313 36.875 59.6719 37.6874 59.7969C38.5156 59.9219 39.4531 59.9844 39.7655 59.9218C40.2968 59.8438 40.4062 59.7344 41.2968 58.1719C41.828 57.2657 42.3125 56.4844 42.3749 56.4375C42.4374 56.3906 42.5312 56.2031 42.5937 56.0156C42.6562 55.8125 42.7812 55.6562 42.8593 55.6562C42.9374 55.6562 42.9999 55.5625 42.9999 55.4375C42.9999 55.3125 43.0937 55.1094 43.2187 55C43.328 54.875 43.4843 54.625 43.5312 54.4375C43.5937 54.25 43.7187 54.0938 43.7968 54.0938C43.8749 54.0938 43.9374 54 43.9374 53.875C43.9374 53.75 44.0312 53.5468 44.1562 53.4375C44.2655 53.3125 44.4218 53.0625 44.4687 52.875C44.5312 52.6875 44.6562 52.5313 44.7343 52.5313C44.8124 52.5313 44.8749 52.4219 44.8749 52.2969C44.8749 52.1719 44.9531 52.0625 45.0312 52.0625C45.125 52.0625 45.1874 51.9688 45.1874 51.8438C45.1874 51.7187 45.2812 51.5156 45.3905 51.4063C45.4843 51.2969 45.7031 50.9375 45.875 50.625C46.0312 50.3125 46.2968 49.9063 46.4531 49.7344C46.625 49.5625 46.7499 49.3438 46.7499 49.25C46.7499 49.1719 46.8281 49.0937 46.9062 49.0937C47 49.0937 47.0624 48.9844 47.0624 48.8593C47.0624 48.7344 47.1406 48.625 47.2187 48.625C47.3124 48.625 47.375 48.5156 47.375 48.3906C47.375 48.2656 47.453 48.1562 47.5312 48.1562C47.6249 48.1562 47.6874 48.0469 47.6874 47.9219C47.6874 47.7969 47.7656 47.6875 47.8437 47.6875C47.9375 47.6875 47.9999 47.5781 47.9999 47.4531C47.9999 47.3125 48.1093 47.1719 48.2343 47.125C48.3593 47.0625 48.4687 46.9375 48.4687 46.8125C48.4687 46.6875 48.5468 46.5938 48.6249 46.5938C48.7187 46.5938 48.7812 46.4844 48.7812 46.3594C48.7812 46.2188 48.8906 46.0781 49.0156 46.0312C49.1405 45.9688 49.25 45.8438 49.25 45.7187C49.25 45.5938 49.328 45.5 49.4062 45.5C49.4999 45.5 49.5624 45.4063 49.5624 45.2812C49.5624 45.1562 49.6874 44.9531 49.8437 44.8438C49.9843 44.7343 50.2031 44.4688 50.3124 44.25C50.7968 43.3438 51.4374 42.8438 52.1405 42.8438C52.5155 42.8438 52.6562 42.9375 52.8125 43.2969C53.0937 43.9375 53.8124 44.25 54.5312 44.0625C54.8593 43.9844 55.4062 43.875 55.7812 43.8281C56.4218 43.7344 56.4374 43.75 56.4374 44.2031C56.4374 44.4688 56.2306 44.9083 56.1056 45.002C55.7462 45.2989 52.9531 49.2031 51.953 50.8125C51.4374 51.625 50.3437 53.5 49.5312 54.9531C45.4843 62.1875 42.3209 67.9889 42.1022 67.9889C42.0396 67.9889 40.8992 64.1409 40.9773 63.9534C41.0554 63.7503 42.1091 62.658 42.0467 62.4861C41.9373 62.1892 40.4167 63.1292 40.7291 62.7229C40.8542 62.5823 42.9304 58.7439 43.0398 58.2595C43.1492 57.8064 44.6826 54.1736 45.7451 52.2205C46.4013 50.9861 49.8749 49.9688 49.8749 49.875C49.8749 49.7969 49.9531 49.7188 50.0312 49.7188C50.1249 49.7188 50.1875 49.5782 50.1875 49.4062C50.1875 49.2343 50.2499 49.0937 50.3281 49.0937C50.4999 49.0937 51.5937 46.875 51.5937 46.5313C51.5937 46.3906 51.6718 46.2812 51.7655 46.2812C51.8593 46.2812 51.8906 46.1406 51.8281 45.9688C51.7655 45.7969 51.7968 45.6562 51.8906 45.6562C51.9843 45.6562 52.0625 45.5156 52.0625 45.3281C52.0625 44.8125 53.1729 45.6157 53.4682 45.7294C53.6714 45.8075 53.6176 51.1344 52.791 45.8888C52.748 45.6156 51.944 46.6542 51.8815 46.4824C51.8034 46.248 53.5374 46.6008 52.7562 47.5539C50.3968 50.4289 45.9687 51.5938 41.75 58.8594C38.5468 64.3594 38.0624 65.0781 37.6718 64.9843C37.5155 64.9375 37.3749 64.9688 37.3749 65.0625C37.3749 65.1406 37.3124 65.1562 37.2187 65.1094C37.1405 65.0625 37.0625 65.0938 37.0625 65.1718C37.0625 65.3593 36.8281 65.3593 35.8124 65.1718Z" fill="url(#paint59_linear_31_3530)"/>
<path d="M35.7656 42.8281C35.0312 42.4375 34.125 41.5313 33.6563 40.6718C33.6209 40.6952 33.1842 39.6792 33.2436 39.6401L35.0781 40.0313H36.8594L36.7343 40.7813C36.6719 41.1875 36.6094 41.8906 36.6094 42.3437C36.5937 42.7812 36.5468 43.1562 36.4844 43.1562C36.4062 43.1406 36.0938 43 35.7656 42.8281Z" fill="url(#paint60_linear_31_3530)"/>
<path d="M31.4533 61.0937C31.7501 60.7969 32.8751 59.0156 33.9533 57.125C38.2814 49.6094 41.6876 43.7969 42.422 42.6875C43.2814 41.3906 46.2658 38.3281 47.4064 37.5469L48.6269 36.8072L48.1564 37.4843C48.1564 37.7344 47.9064 38.3906 47.6095 38.9531C46.9845 40.1563 46.547 41.8125 46.6877 42.5469C46.8439 43.3281 47.3439 44.1719 47.8595 44.4687C48.3126 44.7344 48.3439 44.7344 49.297 44.2656C50.5001 43.6719 50.8283 43.4687 51.0939 43.125C51.2189 42.9531 51.5001 42.8438 51.8439 42.8438C52.3439 42.8438 52.3751 42.875 52.3595 43.3594C52.3439 43.625 52.3127 43.7344 52.2658 43.5781C52.2345 43.4375 52.1408 43.3125 52.0783 43.3125C51.4376 43.3125 47.4064 49.2188 43.2345 56.2031C40.5626 60.7031 40.047 61.5312 40.2658 60.9375C40.422 60.5468 40.2189 60.2813 39.9533 60.5C39.7814 60.6406 39.3752 60.625 38.2814 60.4375C36.672 60.1719 34.2501 59.875 33.5783 59.875C33.2814 59.875 32.9689 60.0625 32.5314 60.5468C32.1876 60.9062 31.8595 61.2031 31.7814 61.2031C31.7189 61.2188 31.5002 61.3125 31.297 61.4219C31.0001 61.5781 31.047 61.5156 31.4533 61.0937Z" fill="url(#paint61_linear_31_3530)"/>
<path d="M49.0938 55.3437C49.2656 55 49.4531 54.7187 49.4844 54.7187C49.5313 54.7187 49.4219 55 49.25 55.3437C49.0781 55.6875 48.8906 55.9687 48.8594 55.9687C48.8126 55.9687 48.9219 55.6875 49.0938 55.3437Z" fill="url(#paint62_linear_31_3530)"/>
<path d="M49.8749 53.9374C50.0468 53.5937 50.2343 53.3125 50.2655 53.3125C50.3124 53.3125 50.2031 53.5937 50.0312 53.9374C49.8593 54.2812 49.6718 54.5625 49.6406 54.5625C49.5937 54.5625 49.703 54.2812 49.8749 53.9374Z" fill="url(#paint63_linear_31_3530)"/>
<path d="M50.5156 52.8125C50.875 52.1406 52.4374 49.6406 52.9531 48.9218C53.2343 48.5156 53.4687 48.1562 53.4687 48.0938C53.4687 48.0312 53.7499 47.6093 54.0937 47.1563C54.4375 46.7031 54.7187 46.2031 54.7187 46.0625C54.7187 45.9218 54.7968 45.8438 54.8749 45.8906C55.0156 45.9844 55.0937 45.7343 55.078 45.2344C55.0624 45.125 55.1406 45.0312 55.2187 45.0312C55.4374 45.0312 55.8124 44.6093 55.7031 44.5C55.5468 44.3438 55.3124 44.3906 55.4218 44.5625C55.4843 44.6562 55.3281 44.6719 55.0156 44.6093C54.6718 44.5469 54.5468 44.5625 54.6093 44.6875C54.6874 44.7812 54.6093 44.8125 54.4062 44.7656C53.9999 44.6562 53.9999 44.25 54.4062 44.25C54.5781 44.25 54.7187 44.1875 54.7187 44.0937C54.7187 44.0156 54.7968 43.9375 54.8905 43.9375C54.9843 43.9375 55.4687 43.75 55.9687 43.5312C56.4687 43.3125 58.2871 42.4358 58.3708 42.3387C58.6054 42.0672 60.6282 40.1711 57.109 43.8253C56.9641 43.9757 55.5484 45.7016 55.3649 45.9019C54.7865 46.5339 55.3712 45.7456 55.3593 45.7812C55.3437 45.8438 54.8905 46.4843 54.3437 47.2187C53.1874 48.7812 52.0624 50.4375 51.1405 52.0313C50.7655 52.6406 50.4374 53.1563 50.4062 53.1563C50.3593 53.1563 50.4218 53 50.5156 52.8125Z" fill="url(#paint64_linear_31_3530)"/>
<path d="M36.4843 40.7657C36.578 40.5156 35.0936 40.4219 34.7811 40.6719C34.6093 40.8125 34.5624 40.7969 34.5624 40.6406C34.5624 40.4687 34.5311 40.4687 34.4374 40.6094C34.328 40.7657 34.2186 40.7657 33.8905 40.6094C33.3592 40.375 32.9466 39.2958 32.9998 37.9844C33.0877 35.825 34.5871 34.5724 35.584 34.4841C36.31 34.4197 36.9454 34.4778 37.4136 35.0014C37.8819 35.525 38.0152 35.7197 37.9999 36.4375C37.9879 36.9998 37.8592 37.5469 37.5467 38.2344C37.2967 38.7812 36.9999 39.6094 36.8749 40.0937C36.7655 40.5782 36.6092 40.9688 36.5467 40.9688C36.4686 40.9688 36.4374 40.875 36.4843 40.7657Z" fill="url(#paint65_linear_31_3530)"/>
<path d="M41.4686 37.6562C41.0936 37.2031 40.7655 35.5312 40.7655 34.0937C40.7499 32.4687 40.9843 31.1562 41.4842 29.9531C41.8592 29.0312 43.1092 27.0625 43.328 27.0625C43.4061 27.0625 43.4686 27.3124 43.4686 27.6094C43.4686 28.0624 43.4061 28.1562 43.1249 28.1562C42.8593 28.1562 42.828 28.2031 42.9686 28.3437C43.078 28.4531 43.1561 28.6562 43.1561 28.8124C43.1561 29.5156 46.2812 30.9844 48.3749 31.2656C49.5624 31.4374 49.6249 31.4218 50.2811 31.0468C50.6405 30.8281 51.1562 30.6562 51.4217 30.6562C51.8749 30.6562 51.9061 30.6094 51.9061 30.1093C51.9061 29.7499 51.9842 29.5624 52.1249 29.5624C52.2343 29.5624 52.3749 29.3593 52.4374 29.0937C52.5155 28.7031 52.5936 28.6249 52.9999 28.6249C53.2498 28.6249 53.1017 27.015 53.1017 27.0931C53.7862 27.0097 52.7437 29.8934 51.1207 30.9542C50.9332 31.0323 51.9692 30.7439 51.938 30.9001C51.8286 31.2751 50.1092 32.4062 48.6561 33C45.4686 34.3281 43.078 35.9062 42.2186 37.2968C41.8592 37.8906 41.7186 37.9531 41.4686 37.6562Z" fill="url(#paint66_linear_31_3530)"/>
<path d="M52.2189 43.5469C52.2189 43.2656 51.8908 43.2344 51.6251 43.5C51.4845 43.6406 51.4376 43.5782 51.4376 43.1876C51.4376 42.7188 51.4689 42.6875 51.9845 42.6875C52.5001 42.6875 52.5313 42.7188 52.5313 43.2344C52.5313 43.5313 52.4689 43.7813 52.3751 43.7813C52.297 43.7813 52.2189 43.6719 52.2189 43.5469Z" fill="#59E9FE"/>
<path d="M48.2344 31.7969C47.4688 31.6875 46.3438 31.4219 45.7344 31.2032C44.2344 30.6563 42.7344 29.6876 42.6563 29.2188C42.625 29.0156 42.5312 28.8594 42.4219 28.8594C42.3281 28.8594 42.1683 29.1936 42.1058 29.1311C42.0444 29.0534 42.1403 28.6454 42.2031 28.625C42.266 28.6047 42.33 28.5532 42.3125 28.4844C42.295 28.4156 42.4706 28.1769 42.6094 27.9375C42.7702 27.6602 42.957 27.4361 43 27.3907C43.1272 27.256 43.5625 26.75 43.8437 26.75C44 26.75 44.4219 26.9688 44.8125 27.2344C45.9219 27.9844 47.4219 28.625 48.5 28.7969C49.3594 28.9376 49.6719 28.9063 51.0156 28.5469C51.8438 28.3282 52.7031 28.1563 52.9219 28.1563C53.2656 28.1563 53.3125 28.2188 53.3125 28.7188C53.3125 29.0469 53.25 29.2344 53.1563 29.1719C53.0781 29.1251 53 29.1251 52.9844 29.2031C52.9844 29.2657 52.9532 29.4844 52.9375 29.6876C52.9063 29.8907 52.5156 30.4219 52.0625 30.8594C51.6094 31.3125 51.2813 31.5469 51.3437 31.3907C51.4375 31.125 51.4063 31.125 50.9219 31.4219C50.0469 31.9688 49.7188 32.0156 48.2344 31.7969Z" fill="url(#paint67_linear_31_3530)"/>
<path d="M59.0156 27.5312C57.2812 26.6719 56.959 24.1631 58.5156 22.9843C59.0177 22.604 60.3259 22.1481 60.71 22.4631C61.1006 22.8694 60.9845 23.0893 61.9532 23.0425C61.9499 23.0155 62.6963 23.5928 62.7656 24.1562C63.6562 26.4844 61.25 28.6406 59.0156 27.5312Z" fill="url(#paint68_linear_31_3530)"/>
<path d="M47.7971 29.25C46.922 29.0938 45.344 28.3906 44.3127 27.6718C43.7033 27.25 43.5314 27.2031 43.2971 27.3594C42.6721 27.7344 43.0471 27.2031 43.9846 26.3593C45.3283 25.1406 47.1252 24.2656 48.5627 24.1406C51.3596 23.9062 53.1058 25.5839 53.4407 27.9352C53.5135 28.4461 53.1383 29.7187 52.8267 29.9087C52.5152 30.0988 52.5557 29.8194 52.5557 29.7256C52.5557 29.6475 52.7472 29.3316 52.6691 29.4565C52.5441 29.644 52.844 29.3906 52.844 29.0781V28.6719L51.422 29.0312C49.9533 29.4219 49.1096 29.4688 47.7971 29.25Z" fill="url(#paint69_linear_31_3530)"/>
<path d="M62.4685 24.1406C62.4061 24.0625 61.7967 24.0157 61.1248 24.0157C60.0154 24.0157 59.8748 23.9844 59.4842 23.5938C59.2498 23.3437 58.9061 23.1562 58.7342 23.1562C58.2655 23.1562 58.6717 22.75 59.3748 22.5157C60.1405 22.2656 60.6717 22.2969 61.3905 22.6563C62.0936 23.0313 62.5154 23.4532 62.6092 23.9219C62.6717 24.2812 62.656 24.3125 62.4685 24.1406Z" fill="url(#paint70_linear_31_3530)"/>
<path d="M52.7189 44.25C52.5158 44.0625 52.2814 43.7344 52.2033 43.5156C52.0783 43.1875 51.3007 43.5808 51.1132 43.737C50.91 43.9089 51.5939 43.4374 51.5939 43.0624C51.5939 42.7031 51.9064 42.2656 53.0314 41.0625C54.9845 38.9687 55.8283 38.3125 56.5939 38.3125C57.1408 38.3125 57.1876 38.3437 57.2814 38.9062C57.5158 40.3437 57.2189 42.3593 56.6877 42.8906C56.5627 43 56.5002 43.2812 56.5471 43.4843C56.6095 43.8281 56.5314 43.9219 55.9377 44.1562C55.5627 44.3125 54.7814 44.4687 54.172 44.5156C53.2033 44.5781 53.0314 44.5468 52.7189 44.25Z" fill="url(#paint71_linear_31_3530)"/>
<path d="M56.0624 43.9063C56.1405 43.7969 56.0936 43.7657 55.9217 43.8281C55.7655 43.8906 55.703 43.8594 55.7342 43.7344C55.7811 43.625 55.8437 43.3594 55.8749 43.1094C55.9217 42.875 56.0624 42.5781 56.1874 42.4375C56.703 41.9219 57.1249 39.7187 56.7343 39.4688C56.6405 39.4219 56.5937 39.2344 56.6405 39.0782C56.6874 38.9063 56.6561 38.7812 56.5937 38.7812C56.3124 38.7812 54.8749 40.0625 53.4999 41.5313L52.0624 43.0781V42.5156C52.0624 41.875 52.2968 41.5937 52.7968 41.5937C53.078 41.5937 53.1561 41.5157 53.1561 41.1563C53.1561 40.8437 53.3749 40.5 53.9843 39.9062C54.4374 39.4532 54.8436 39.0938 54.8905 39.0938C54.9374 39.0938 55.2968 38.7969 55.6874 38.4375C57.1874 37.0469 59.2967 36.0782 61.2499 35.8907C62.2967 35.7812 62.3749 35.7969 62.7499 36.1719C63.203 36.625 63.3905 37.2032 63.2499 37.75C63.203 37.9688 62.578 38.6563 61.8749 39.2813C61.1561 39.9062 59.8436 41.1407 58.9374 42.0156C58.0155 42.9062 57.0311 43.7031 56.6874 43.8437C55.9686 44.1407 55.9217 44.1407 56.0624 43.9063Z" fill="url(#paint72_linear_31_3530)"/>
<path d="M47.7032 45.0469C47.0627 44.875 46.4376 43.9219 46.297 42.9375C46.0626 41.1718 46.7501 38.7812 47.9064 37.4062C48.7502 36.4219 51.9689 34.875 54.2657 34.3438C57.6095 33.5781 60.6407 34.0625 62.2658 35.625C62.9689 36.2968 63.3126 36.8906 63.3126 37.4375C63.3126 37.8437 62.9533 38.3125 62.6408 38.3125C62.5314 38.2969 62.6095 38.1718 62.8127 38.0156C63.2345 37.6406 63.2501 37.2187 62.8439 36.75C62.5939 36.4531 62.3908 36.3906 61.672 36.4063C59.2033 36.4219 56.2033 38.3437 53.1251 41.8594C51.5939 43.5937 50.2814 44.625 49.1252 44.9687C48.3595 45.2031 48.2657 45.2031 47.7032 45.0469Z" fill="url(#paint73_linear_31_3530)"/>
</g>
</g>
<defs>
<filter id="filter0_i_31_3530" x="6" y="6" width="84" height="88" filterUnits="userSpaceOnUse" color-interpolation-filters="sRGB">
<feFlood flood-opacity="0" result="BackgroundImageFix"/>
<feBlend mode="normal" in="SourceGraphic" in2="BackgroundImageFix" result="shape"/>
<feColorMatrix in="SourceAlpha" type="matrix" values="0 0 0 0 0 0 0 0 0 0 0 0 0 0 0 0 0 0 127 0" result="hardAlpha"/>
<feOffset dy="4"/>
<feGaussianBlur stdDeviation="2"/>
<feComposite in2="hardAlpha" operator="arithmetic" k2="-1" k3="1"/>
<feColorMatrix type="matrix" values="0 0 0 0 0 0 0 0 0 0 0 0 0 0 0 0 0 0 0.25 0"/>
<feBlend mode="normal" in2="shape" result="effect1_innerShadow_31_3530"/>
</filter>
<linearGradient id="paint0_linear_31_3530" x1="0" y1="0" x2="113.756" y2="64.8553" gradientUnits="userSpaceOnUse">
<stop stop-color="#00CCE6"/>
<stop offset="1" stop-color="#0082E7"/>
</linearGradient>
<linearGradient id="paint1_linear_31_3530" x1="29.678" y1="28.8236" x2="32.8926" y2="23.2897" gradientUnits="userSpaceOnUse">
<stop stop-color="#1964E7"/>
<stop offset="1" stop-color="#6884F2"/>
</linearGradient>
<linearGradient id="paint2_linear_31_3530" x1="18.7324" y1="23.3304" x2="21.9469" y2="28.8643" gradientUnits="userSpaceOnUse">
<stop stop-color="#00CCE6"/>
<stop offset="1" stop-color="#0082E7"/>
</linearGradient>
<radialGradient id="paint3_radial_31_3530" cx="0" cy="0" r="1" gradientUnits="userSpaceOnUse" gradientTransform="translate(30.5326 28.0098) scale(4.67936)">
<stop offset="0.23" stop-color="#00CDFF"/>
<stop offset="0.49" stop-color="#00BCFA"/>
<stop offset="0.77" stop-color="#00ABF8"/>
<stop offset="1" stop-color="#0098F7"/>
</radialGradient>
<radialGradient id="paint4_radial_31_3530" cx="0" cy="0" r="1" gradientUnits="userSpaceOnUse" gradientTransform="translate(30.5326 28.0098) scale(4.67936 4.67936)">
<stop offset="0.23" stop-color="#00CDFF"/>
<stop offset="0.49" stop-color="#00BCFA"/>
<stop offset="0.77" stop-color="#00ABF8"/>
<stop offset="1" stop-color="#0098F7"/>
</radialGradient>
<radialGradient id="paint5_radial_31_3530" cx="0" cy="0" r="1" gradientUnits="userSpaceOnUse" gradientTransform="translate(30.5326 28.0098) scale(4.67936)">
<stop offset="0.23" stop-color="#00CDFF"/>
<stop offset="0.49" stop-color="#00BCFA"/>
<stop offset="0.77" stop-color="#00ABF8"/>
<stop offset="1" stop-color="#0098F7"/>
</radialGradient>
<radialGradient id="paint6_radial_31_3530" cx="0" cy="0" r="1" gradientUnits="userSpaceOnUse" gradientTransform="translate(30.5323 28.0097) scale(4.67938 4.67936)">
<stop offset="0.23" stop-color="#00CDFF"/>
<stop offset="0.49" stop-color="#00BCFA"/>
<stop offset="0.77" stop-color="#00ABF8"/>
<stop offset="1" stop-color="#0098F7"/>
</radialGradient>
<radialGradient id="paint7_radial_31_3530" cx="0" cy="0" r="1" gradientUnits="userSpaceOnUse" gradientTransform="translate(30.5325 28.0098) scale(4.67937 4.67936)">
<stop offset="0.23" stop-color="#00CDFF"/>
<stop offset="0.49" stop-color="#00BCFA"/>
<stop offset="0.77" stop-color="#00ABF8"/>
<stop offset="1" stop-color="#0098F7"/>
</radialGradient>
<radialGradient id="paint8_radial_31_3530" cx="0" cy="0" r="1" gradientUnits="userSpaceOnUse" gradientTransform="translate(30.5324 28.0098) scale(4.67936 4.67937)">
<stop offset="0.23" stop-color="#00CDFF"/>
<stop offset="0.49" stop-color="#00BCFA"/>
<stop offset="0.77" stop-color="#00ABF8"/>
<stop offset="1" stop-color="#0098F7"/>
</radialGradient>
<radialGradient id="paint9_radial_31_3530" cx="0" cy="0" r="1" gradientUnits="userSpaceOnUse" gradientTransform="translate(30.5324 28.0097) scale(4.67936 4.67937)">
<stop offset="0.23" stop-color="#00CDFF"/>
<stop offset="0.49" stop-color="#00BCFA"/>
<stop offset="0.77" stop-color="#00ABF8"/>
<stop offset="1" stop-color="#0098F7"/>
</radialGradient>
<radialGradient id="paint10_radial_31_3530" cx="0" cy="0" r="1" gradientUnits="userSpaceOnUse" gradientTransform="translate(30.5326 28.0097) scale(4.67936)">
<stop offset="0.23" stop-color="#00CDFF"/>
<stop offset="0.49" stop-color="#00BCFA"/>
<stop offset="0.77" stop-color="#00ABF8"/>
<stop offset="1" stop-color="#0098F7"/>
</radialGradient>
<radialGradient id="paint11_radial_31_3530" cx="0" cy="0" r="1" gradientUnits="userSpaceOnUse" gradientTransform="translate(30.5328 28.0098) scale(4.67935 4.67937)">
<stop offset="0.23" stop-color="#00CDFF"/>
<stop offset="0.49" stop-color="#00BCFA"/>
<stop offset="0.77" stop-color="#00ABF8"/>
<stop offset="1" stop-color="#0098F7"/>
</radialGradient>
<radialGradient id="paint12_radial_31_3530" cx="0" cy="0" r="1" gradientUnits="userSpaceOnUse" gradientTransform="translate(30.5324 28.0098) scale(4.67936 4.67937)">
<stop offset="0.23" stop-color="#00CDFF"/>
<stop offset="0.49" stop-color="#00BCFA"/>
<stop offset="0.77" stop-color="#00ABF8"/>
<stop offset="1" stop-color="#0098F7"/>
</radialGradient>
<linearGradient id="paint13_linear_31_3530" x1="18.7325" y1="23.3304" x2="21.947" y2="28.8643" gradientUnits="userSpaceOnUse">
<stop stop-color="#00CCE6"/>
<stop offset="1" stop-color="#0082E7"/>
</linearGradient>
<linearGradient id="paint14_linear_31_3530" x1="18.7325" y1="23.3304" x2="21.947" y2="28.8643" gradientUnits="userSpaceOnUse">
<stop stop-color="#00CCE6"/>
<stop offset="1" stop-color="#0082E7"/>
</linearGradient>
<linearGradient id="paint15_linear_31_3530" x1="22.5573" y1="25.0801" x2="25.8125" y2="30.6954" gradientUnits="userSpaceOnUse">
<stop stop-color="#0CF4FF"/>
<stop offset="0.28" stop-color="#04EEFE"/>
<stop offset="1" stop-color="#00B1F7"/>
</linearGradient>
<linearGradient id="paint16_linear_31_3530" x1="18.7323" y1="23.3304" x2="21.9468" y2="28.8643" gradientUnits="userSpaceOnUse">
<stop stop-color="#00CCE6"/>
<stop offset="1" stop-color="#0082E7"/>
</linearGradient>
<radialGradient id="paint17_radial_31_3530" cx="0" cy="0" r="1" gradientUnits="userSpaceOnUse" gradientTransform="translate(30.5325 28.0098) scale(4.67936)">
<stop offset="0.23" stop-color="#00CDFF"/>
<stop offset="0.49" stop-color="#00BCFA"/>
<stop offset="0.77" stop-color="#00ABF8"/>
<stop offset="1" stop-color="#0098F7"/>
</radialGradient>
<radialGradient id="paint18_radial_31_3530" cx="0" cy="0" r="1" gradientUnits="userSpaceOnUse" gradientTransform="translate(30.5326 28.0098) scale(4.67936 4.67935)">
<stop offset="0.23" stop-color="#00CDFF"/>
<stop offset="0.49" stop-color="#00BCFA"/>
<stop offset="0.77" stop-color="#00ABF8"/>
<stop offset="1" stop-color="#0098F7"/>
</radialGradient>
<radialGradient id="paint19_radial_31_3530" cx="0" cy="0" r="1" gradientUnits="userSpaceOnUse" gradientTransform="translate(30.5326 28.0097) scale(4.67936 4.67936)">
<stop offset="0.23" stop-color="#00CDFF"/>
<stop offset="0.49" stop-color="#00BCFA"/>
<stop offset="0.77" stop-color="#00ABF8"/>
<stop offset="1" stop-color="#0098F7"/>
</radialGradient>
<radialGradient id="paint20_radial_31_3530" cx="0" cy="0" r="1" gradientUnits="userSpaceOnUse" gradientTransform="translate(30.5324 28.0098) scale(4.67936)">
<stop offset="0.23" stop-color="#00CDFF"/>
<stop offset="0.49" stop-color="#00BCFA"/>
<stop offset="0.77" stop-color="#00ABF8"/>
<stop offset="1" stop-color="#0098F7"/>
</radialGradient>
<radialGradient id="paint21_radial_31_3530" cx="0" cy="0" r="1" gradientUnits="userSpaceOnUse" gradientTransform="translate(30.5326 28.0097) scale(4.67937)">
<stop offset="0.23" stop-color="#00CDFF"/>
<stop offset="0.49" stop-color="#00BCFA"/>
<stop offset="0.77" stop-color="#00ABF8"/>
<stop offset="1" stop-color="#0098F7"/>
</radialGradient>
<radialGradient id="paint22_radial_31_3530" cx="0" cy="0" r="1" gradientUnits="userSpaceOnUse" gradientTransform="translate(30.5325 28.0097) scale(4.67938 4.67938)">
<stop offset="0.23" stop-color="#00CDFF"/>
<stop offset="0.49" stop-color="#00BCFA"/>
<stop offset="0.77" stop-color="#00ABF8"/>
<stop offset="1" stop-color="#0098F7"/>
</radialGradient>
<radialGradient id="paint23_radial_31_3530" cx="0" cy="0" r="1" gradientUnits="userSpaceOnUse" gradientTransform="translate(30.5328 28.0099) scale(4.67934 4.67935)">
<stop offset="0.23" stop-color="#00CDFF"/>
<stop offset="0.49" stop-color="#00BCFA"/>
<stop offset="0.77" stop-color="#00ABF8"/>
<stop offset="1" stop-color="#0098F7"/>
</radialGradient>
<radialGradient id="paint24_radial_31_3530" cx="0" cy="0" r="1" gradientUnits="userSpaceOnUse" gradientTransform="translate(30.5323 28.0099) scale(4.67938 4.67934)">
<stop offset="0.23" stop-color="#00CDFF"/>
<stop offset="0.49" stop-color="#00BCFA"/>
<stop offset="0.77" stop-color="#00ABF8"/>
<stop offset="1" stop-color="#0098F7"/>
</radialGradient>
<linearGradient id="paint25_linear_31_3530" x1="18.7324" y1="23.3304" x2="21.9469" y2="28.8643" gradientUnits="userSpaceOnUse">
<stop stop-color="#00CCE6"/>
<stop offset="1" stop-color="#0082E7"/>
</linearGradient>
<linearGradient id="paint26_linear_31_3530" x1="18.7325" y1="23.3304" x2="21.947" y2="28.8643" gradientUnits="userSpaceOnUse">
<stop stop-color="#00CCE6"/>
<stop offset="1" stop-color="#0082E7"/>
</linearGradient>
<linearGradient id="paint27_linear_31_3530" x1="22.5574" y1="25.0802" x2="25.8126" y2="30.6954" gradientUnits="userSpaceOnUse">
<stop stop-color="#0CF4FF"/>
<stop offset="0.28" stop-color="#04EEFE"/>
<stop offset="1" stop-color="#00B1F7"/>
</linearGradient>
<radialGradient id="paint28_radial_31_3530" cx="0" cy="0" r="1" gradientUnits="userSpaceOnUse" gradientTransform="translate(30.5327 28.0097) scale(4.67936 4.67936)">
<stop offset="0.23" stop-color="#00CDFF"/>
<stop offset="0.49" stop-color="#00BCFA"/>
<stop offset="0.77" stop-color="#00ABF8"/>
<stop offset="1" stop-color="#0098F7"/>
</radialGradient>
<radialGradient id="paint29_radial_31_3530" cx="0" cy="0" r="1" gradientUnits="userSpaceOnUse" gradientTransform="translate(30.5325 28.0097) scale(4.67936)">
<stop offset="0.23" stop-color="#00CDFF"/>
<stop offset="0.49" stop-color="#00BCFA"/>
<stop offset="0.77" stop-color="#00ABF8"/>
<stop offset="1" stop-color="#0098F7"/>
</radialGradient>
<radialGradient id="paint30_radial_31_3530" cx="0" cy="0" r="1" gradientUnits="userSpaceOnUse" gradientTransform="translate(30.5325 28.0098) scale(4.67936)">
<stop offset="0.23" stop-color="#00CDFF"/>
<stop offset="0.49" stop-color="#00BCFA"/>
<stop offset="0.77" stop-color="#00ABF8"/>
<stop offset="1" stop-color="#0098F7"/>
</radialGradient>
<radialGradient id="paint31_radial_31_3530" cx="0" cy="0" r="1" gradientUnits="userSpaceOnUse" gradientTransform="translate(30.5326 28.0098) scale(4.67937 4.67936)">
<stop offset="0.23" stop-color="#00CDFF"/>
<stop offset="0.49" stop-color="#00BCFA"/>
<stop offset="0.77" stop-color="#00ABF8"/>
<stop offset="1" stop-color="#0098F7"/>
</radialGradient>
<radialGradient id="paint32_radial_31_3530" cx="0" cy="0" r="1" gradientUnits="userSpaceOnUse" gradientTransform="translate(30.5322 28.0097) scale(4.67939 4.67937)">
<stop offset="0.23" stop-color="#00CDFF"/>
<stop offset="0.49" stop-color="#00BCFA"/>
<stop offset="0.77" stop-color="#00ABF8"/>
<stop offset="1" stop-color="#0098F7"/>
</radialGradient>
<radialGradient id="paint33_radial_31_3530" cx="0" cy="0" r="1" gradientUnits="userSpaceOnUse" gradientTransform="translate(30.5324 28.0098) scale(4.67938 4.67936)">
<stop offset="0.23" stop-color="#00CDFF"/>
<stop offset="0.49" stop-color="#00BCFA"/>
<stop offset="0.77" stop-color="#00ABF8"/>
<stop offset="1" stop-color="#0098F7"/>
</radialGradient>
<radialGradient id="paint34_radial_31_3530" cx="0" cy="0" r="1" gradientUnits="userSpaceOnUse" gradientTransform="translate(30.5326 28.0098) scale(4.67935 4.67937)">
<stop offset="0.23" stop-color="#00CDFF"/>
<stop offset="0.49" stop-color="#00BCFA"/>
<stop offset="0.77" stop-color="#00ABF8"/>
<stop offset="1" stop-color="#0098F7"/>
</radialGradient>
<radialGradient id="paint35_radial_31_3530" cx="0" cy="0" r="1" gradientUnits="userSpaceOnUse" gradientTransform="translate(30.5327 28.0098) scale(4.67935 4.67936)">
<stop offset="0.23" stop-color="#00CDFF"/>
<stop offset="0.49" stop-color="#00BCFA"/>
<stop offset="0.77" stop-color="#00ABF8"/>
<stop offset="1" stop-color="#0098F7"/>
</radialGradient>
<radialGradient id="paint36_radial_31_3530" cx="0" cy="0" r="1" gradientUnits="userSpaceOnUse" gradientTransform="translate(30.5324 28.0098) scale(4.67937 4.67935)">
<stop offset="0.23" stop-color="#00CDFF"/>
<stop offset="0.49" stop-color="#00BCFA"/>
<stop offset="0.77" stop-color="#00ABF8"/>
<stop offset="1" stop-color="#0098F7"/>
</radialGradient>
<radialGradient id="paint37_radial_31_3530" cx="0" cy="0" r="1" gradientUnits="userSpaceOnUse" gradientTransform="translate(30.5327 28.0098) scale(4.67934 4.67935)">
<stop offset="0.23" stop-color="#00CDFF"/>
<stop offset="0.49" stop-color="#00BCFA"/>
<stop offset="0.77" stop-color="#00ABF8"/>
<stop offset="1" stop-color="#0098F7"/>
</radialGradient>
<radialGradient id="paint38_radial_31_3530" cx="0" cy="0" r="1" gradientUnits="userSpaceOnUse" gradientTransform="translate(30.5328 28.0098) scale(4.67934 4.67935)">
<stop offset="0.23" stop-color="#00CDFF"/>
<stop offset="0.49" stop-color="#00BCFA"/>
<stop offset="0.77" stop-color="#00ABF8"/>
<stop offset="1" stop-color="#0098F7"/>
</radialGradient>
<radialGradient id="paint39_radial_31_3530" cx="0" cy="0" r="1" gradientUnits="userSpaceOnUse" gradientTransform="translate(30.5324 28.0099) scale(4.67937 4.67935)">
<stop offset="0.23" stop-color="#00CDFF"/>
<stop offset="0.49" stop-color="#00BCFA"/>
<stop offset="0.77" stop-color="#00ABF8"/>
<stop offset="1" stop-color="#0098F7"/>
</radialGradient>
<linearGradient id="paint40_linear_31_3530" x1="29.678" y1="28.8236" x2="32.8925" y2="23.2898" gradientUnits="userSpaceOnUse">
<stop stop-color="#1964E7"/>
<stop offset="1" stop-color="#6884F2"/>
</linearGradient>
<linearGradient id="paint41_linear_31_3530" x1="18.7323" y1="23.3304" x2="21.9468" y2="28.8643" gradientUnits="userSpaceOnUse">
<stop stop-color="#00CCE6"/>
<stop offset="1" stop-color="#0082E7"/>
</linearGradient>
<linearGradient id="paint42_linear_31_3530" x1="22.5572" y1="25.0801" x2="25.8124" y2="30.6953" gradientUnits="userSpaceOnUse">
<stop stop-color="#0CF4FF"/>
<stop offset="0.28" stop-color="#04EEFE"/>
<stop offset="1" stop-color="#00B1F7"/>
</linearGradient>
<radialGradient id="paint43_radial_31_3530" cx="0" cy="0" r="1" gradientUnits="userSpaceOnUse" gradientTransform="translate(30.5327 28.0098) scale(4.67936 4.67936)">
<stop offset="0.23" stop-color="#00CDFF"/>
<stop offset="0.49" stop-color="#00BCFA"/>
<stop offset="0.77" stop-color="#00ABF8"/>
<stop offset="1" stop-color="#0098F7"/>
</radialGradient>
<radialGradient id="paint44_radial_31_3530" cx="0" cy="0" r="1" gradientUnits="userSpaceOnUse" gradientTransform="translate(30.5326 28.0098) scale(4.67936 4.67936)">
<stop offset="0.23" stop-color="#00CDFF"/>
<stop offset="0.49" stop-color="#00BCFA"/>
<stop offset="0.77" stop-color="#00ABF8"/>
<stop offset="1" stop-color="#0098F7"/>
</radialGradient>
<radialGradient id="paint45_radial_31_3530" cx="0" cy="0" r="1" gradientUnits="userSpaceOnUse" gradientTransform="translate(30.5324 28.0099) scale(4.67937 4.67934)">
<stop offset="0.23" stop-color="#00CDFF"/>
<stop offset="0.49" stop-color="#00BCFA"/>
<stop offset="0.77" stop-color="#00ABF8"/>
<stop offset="1" stop-color="#0098F7"/>
</radialGradient>
<radialGradient id="paint46_radial_31_3530" cx="0" cy="0" r="1" gradientUnits="userSpaceOnUse" gradientTransform="translate(30.5325 28.0098) scale(4.67937)">
<stop offset="0.23" stop-color="#00CDFF"/>
<stop offset="0.49" stop-color="#00BCFA"/>
<stop offset="0.77" stop-color="#00ABF8"/>
<stop offset="1" stop-color="#0098F7"/>
</radialGradient>
<radialGradient id="paint47_radial_31_3530" cx="0" cy="0" r="1" gradientUnits="userSpaceOnUse" gradientTransform="translate(30.5326 28.0097) scale(4.67936 4.67937)">
<stop offset="0.23" stop-color="#00CDFF"/>
<stop offset="0.49" stop-color="#00BCFA"/>
<stop offset="0.77" stop-color="#00ABF8"/>
<stop offset="1" stop-color="#0098F7"/>
</radialGradient>
<radialGradient id="paint48_radial_31_3530" cx="0" cy="0" r="1" gradientUnits="userSpaceOnUse" gradientTransform="translate(30.5328 28.0098) scale(4.67935 4.67937)">
<stop offset="0.23" stop-color="#00CDFF"/>
<stop offset="0.49" stop-color="#00BCFA"/>
<stop offset="0.77" stop-color="#00ABF8"/>
<stop offset="1" stop-color="#0098F7"/>
</radialGradient>
<radialGradient id="paint49_radial_31_3530" cx="0" cy="0" r="1" gradientUnits="userSpaceOnUse" gradientTransform="translate(30.5323 28.0098) scale(4.67939 4.67936)">
<stop offset="0.23" stop-color="#00CDFF"/>
<stop offset="0.49" stop-color="#00BCFA"/>
<stop offset="0.77" stop-color="#00ABF8"/>
<stop offset="1" stop-color="#0098F7"/>
</radialGradient>
<linearGradient id="paint50_linear_31_3530" x1="18.7323" y1="23.3304" x2="21.9468" y2="28.8643" gradientUnits="userSpaceOnUse">
<stop stop-color="#00CCE6"/>
<stop offset="1" stop-color="#0082E7"/>
</linearGradient>
<linearGradient id="paint51_linear_31_3530" x1="18.7324" y1="23.3304" x2="21.9469" y2="28.8643" gradientUnits="userSpaceOnUse">
<stop stop-color="#00CCE6"/>
<stop offset="1" stop-color="#0082E7"/>
</linearGradient>
<linearGradient id="paint52_linear_31_3530" x1="22.5574" y1="25.0801" x2="25.8125" y2="30.6953" gradientUnits="userSpaceOnUse">
<stop stop-color="#0CF4FF"/>
<stop offset="0.28" stop-color="#04EEFE"/>
<stop offset="1" stop-color="#00B1F7"/>
</linearGradient>
<radialGradient id="paint53_radial_31_3530" cx="0" cy="0" r="1" gradientUnits="userSpaceOnUse" gradientTransform="translate(30.5327 28.0097) scale(4.67936 4.67936)">
<stop offset="0.23" stop-color="#00CDFF"/>
<stop offset="0.49" stop-color="#00BCFA"/>
<stop offset="0.77" stop-color="#00ABF8"/>
<stop offset="1" stop-color="#0098F7"/>
</radialGradient>
<radialGradient id="paint54_radial_31_3530" cx="0" cy="0" r="1" gradientUnits="userSpaceOnUse" gradientTransform="translate(30.5325 28.0098) scale(4.67936)">
<stop offset="0.23" stop-color="#00CDFF"/>
<stop offset="0.49" stop-color="#00BCFA"/>
<stop offset="0.77" stop-color="#00ABF8"/>
<stop offset="1" stop-color="#0098F7"/>
</radialGradient>
<radialGradient id="paint55_radial_31_3530" cx="0" cy="0" r="1" gradientUnits="userSpaceOnUse" gradientTransform="translate(30.5324 28.0098) scale(4.67936 4.67936)">
<stop offset="0.23" stop-color="#00CDFF"/>
<stop offset="0.49" stop-color="#00BCFA"/>
<stop offset="0.77" stop-color="#00ABF8"/>
<stop offset="1" stop-color="#0098F7"/>
</radialGradient>
<linearGradient id="paint56_linear_31_3530" x1="22.5573" y1="25.0802" x2="25.8125" y2="30.6954" gradientUnits="userSpaceOnUse">
<stop stop-color="#0CF4FF"/>
<stop offset="0.28" stop-color="#04EEFE"/>
<stop offset="1" stop-color="#00B1F7"/>
</linearGradient>
<radialGradient id="paint57_radial_31_3530" cx="0" cy="0" r="1" gradientUnits="userSpaceOnUse" gradientTransform="translate(30.5324 28.0097) scale(4.67937 4.67936)">
<stop offset="0.23" stop-color="#00CDFF"/>
<stop offset="0.49" stop-color="#00BCFA"/>
<stop offset="0.77" stop-color="#00ABF8"/>
<stop offset="1" stop-color="#0098F7"/>
</radialGradient>
<linearGradient id="paint58_linear_31_3530" x1="29.6781" y1="28.8236" x2="32.8927" y2="23.2897" gradientUnits="userSpaceOnUse">
<stop stop-color="#1964E7"/>
<stop offset="1" stop-color="#6884F2"/>
</linearGradient>
<linearGradient id="paint59_linear_31_3530" x1="22.5572" y1="25.0801" x2="25.8125" y2="30.6953" gradientUnits="userSpaceOnUse">
<stop stop-color="#0CF4FF"/>
<stop offset="0.28" stop-color="#04EEFE"/>
<stop offset="1" stop-color="#00B1F7"/>
</linearGradient>
<linearGradient id="paint60_linear_31_3530" x1="22.5573" y1="22.4352" x2="22.5573" y2="24.3476" gradientUnits="userSpaceOnUse">
<stop stop-color="#40FAFD"/>
<stop offset="1" stop-color="#00E0FF"/>
</linearGradient>
<linearGradient id="paint61_linear_31_3530" x1="22.5575" y1="25.0801" x2="25.8126" y2="30.6953" gradientUnits="userSpaceOnUse">
<stop stop-color="#0CF4FF"/>
<stop offset="0.28" stop-color="#04EEFE"/>
<stop offset="1" stop-color="#00B1F7"/>
</linearGradient>
<linearGradient id="paint62_linear_31_3530" x1="22.5571" y1="25.08" x2="25.8124" y2="30.6953" gradientUnits="userSpaceOnUse">
<stop stop-color="#0CF4FF"/>
<stop offset="0.28" stop-color="#04EEFE"/>
<stop offset="1" stop-color="#00B1F7"/>
</linearGradient>
<linearGradient id="paint63_linear_31_3530" x1="22.5573" y1="25.08" x2="25.8125" y2="30.6953" gradientUnits="userSpaceOnUse">
<stop stop-color="#0CF4FF"/>
<stop offset="0.28" stop-color="#04EEFE"/>
<stop offset="1" stop-color="#00B1F7"/>
</linearGradient>
<linearGradient id="paint64_linear_31_3530" x1="22.5572" y1="25.0801" x2="25.8124" y2="30.6953" gradientUnits="userSpaceOnUse">
<stop stop-color="#0CF4FF"/>
<stop offset="0.28" stop-color="#04EEFE"/>
<stop offset="1" stop-color="#00B1F7"/>
</linearGradient>
<linearGradient id="paint65_linear_31_3530" x1="22.5571" y1="22.4352" x2="22.5571" y2="24.3476" gradientUnits="userSpaceOnUse">
<stop stop-color="#40FAFD"/>
<stop offset="1" stop-color="#00E0FF"/>
</linearGradient>
<linearGradient id="paint66_linear_31_3530" x1="25.5682" y1="19.7497" x2="25.5682" y2="22.9642" gradientUnits="userSpaceOnUse">
<stop stop-color="#8EF6FD"/>
<stop offset="1" stop-color="#2BE8FF"/>
</linearGradient>
<linearGradient id="paint67_linear_31_3530" x1="25.5683" y1="19.7497" x2="25.5683" y2="22.9642" gradientUnits="userSpaceOnUse">
<stop stop-color="#8EF6FD"/>
<stop offset="1" stop-color="#2BE8FF"/>
</linearGradient>
<linearGradient id="paint68_linear_31_3530" x1="28.9863" y1="19.2613" x2="28.9863" y2="20.36" gradientUnits="userSpaceOnUse">
<stop stop-color="#92EEFE"/>
<stop offset="1" stop-color="#59E5FE"/>
</linearGradient>
<linearGradient id="paint69_linear_31_3530" x1="25.5686" y1="19.7497" x2="25.5686" y2="22.9642" gradientUnits="userSpaceOnUse">
<stop stop-color="#8EF6FD"/>
<stop offset="1" stop-color="#2BE8FF"/>
</linearGradient>
<linearGradient id="paint70_linear_31_3530" x1="28.9862" y1="19.2614" x2="28.9862" y2="20.36" gradientUnits="userSpaceOnUse">
<stop stop-color="#92EEFE"/>
<stop offset="1" stop-color="#59E5FE"/>
</linearGradient>
<linearGradient id="paint71_linear_31_3530" x1="26.9113" y1="22.4759" x2="28.132" y2="24.5511" gradientUnits="userSpaceOnUse">
<stop stop-color="#A6FEFF"/>
<stop offset="0.53" stop-color="#BFFDFE"/>
<stop offset="1" stop-color="#97EDFF"/>
</linearGradient>
<linearGradient id="paint72_linear_31_3530" x1="26.911" y1="22.4759" x2="28.1317" y2="24.5511" gradientUnits="userSpaceOnUse">
<stop stop-color="#A6FEFF"/>
<stop offset="0.53" stop-color="#BFFDFE"/>
<stop offset="1" stop-color="#97EDFF"/>
</linearGradient>
<linearGradient id="paint73_linear_31_3530" x1="26.9113" y1="22.4759" x2="28.132" y2="24.5511" gradientUnits="userSpaceOnUse">
<stop stop-color="#A6FEFF"/>
<stop offset="0.53" stop-color="#BFFDFE"/>
<stop offset="1" stop-color="#97EDFF"/>
</linearGradient>
<clipPath id="clip0_31_3530">
<rect width="96" height="96" fill="white"/>
</clipPath>
</defs>
</svg>
