<svg width="96" height="96" viewBox="0 0 96 96" fill="none" xmlns="http://www.w3.org/2000/svg">
<g clip-path="url(#clip0_31_3641)">
<path d="M72 0H24C10.7452 0 0 10.7452 0 24V72C0 85.2548 10.7452 96 24 96H72C85.2548 96 96 85.2548 96 72V24C96 10.7452 85.2548 0 72 0Z" fill="url(#paint0_linear_31_3641)"/>
<path d="M72 0H24C10.7452 0 0 10.7452 0 24V72C0 85.2548 10.7452 96 24 96H72C85.2548 96 96 85.2548 96 72V24C96 10.7452 85.2548 0 72 0Z" fill="black" fill-opacity="0.9"/>
<g filter="url(#filter0_i_31_3641)">
<path d="M72 6H24C14.0589 6 6 14.0589 6 24V72C6 81.9411 14.0589 90 24 90H72C81.9411 90 90 81.9411 90 72V24C90 14.0589 81.9411 6 72 6Z" fill="black" fill-opacity="0.7"/>
<g filter="url(#filter1_diii_31_3641)">
<path d="M18.1462 20.25L41.3116 50.8615L18 75.75H23.2465L43.6558 53.9598L60.146 75.75H78L53.5312 43.4166L75.2295 20.25H69.983L51.1871 40.3184L36.0004 20.25H18.1462ZM25.8617 24.0693H34.0639L70.2834 71.9301H62.0813L25.8617 24.0693Z" fill="white"/>
</g>
</g>
</g>
<defs>
<filter id="filter0_i_31_3641" x="6" y="6" width="84" height="88" filterUnits="userSpaceOnUse" color-interpolation-filters="sRGB">
<feFlood flood-opacity="0" result="BackgroundImageFix"/>
<feBlend mode="normal" in="SourceGraphic" in2="BackgroundImageFix" result="shape"/>
<feColorMatrix in="SourceAlpha" type="matrix" values="0 0 0 0 0 0 0 0 0 0 0 0 0 0 0 0 0 0 127 0" result="hardAlpha"/>
<feOffset dy="4"/>
<feGaussianBlur stdDeviation="2"/>
<feComposite in2="hardAlpha" operator="arithmetic" k2="-1" k3="1"/>
<feColorMatrix type="matrix" values="0 0 0 0 0 0 0 0 0 0 0 0 0 0 0 0 0 0 0.25 0"/>
<feBlend mode="normal" in2="shape" result="effect1_innerShadow_31_3641"/>
</filter>
<filter id="filter1_diii_31_3641" x="8" y="10.25" width="76" height="71.5" filterUnits="userSpaceOnUse" color-interpolation-filters="sRGB">
<feFlood flood-opacity="0" result="BackgroundImageFix"/>
<feColorMatrix in="SourceAlpha" type="matrix" values="0 0 0 0 0 0 0 0 0 0 0 0 0 0 0 0 0 0 127 0" result="hardAlpha"/>
<feOffset dx="-2" dy="-2"/>
<feGaussianBlur stdDeviation="4"/>
<feComposite in2="hardAlpha" operator="out"/>
<feColorMatrix type="matrix" values="0 0 0 0 1 0 0 0 0 1 0 0 0 0 1 0 0 0 0.1 0"/>
<feBlend mode="normal" in2="BackgroundImageFix" result="effect1_dropShadow_31_3641"/>
<feBlend mode="normal" in="SourceGraphic" in2="effect1_dropShadow_31_3641" result="shape"/>
<feColorMatrix in="SourceAlpha" type="matrix" values="0 0 0 0 0 0 0 0 0 0 0 0 0 0 0 0 0 0 127 0" result="hardAlpha"/>
<feOffset dx="-2" dy="2"/>
<feGaussianBlur stdDeviation="4"/>
<feComposite in2="hardAlpha" operator="arithmetic" k2="-1" k3="1"/>
<feColorMatrix type="matrix" values="0 0 0 0 1 0 0 0 0 1 0 0 0 0 1 0 0 0 0.1 0"/>
<feBlend mode="normal" in2="shape" result="effect2_innerShadow_31_3641"/>
<feColorMatrix in="SourceAlpha" type="matrix" values="0 0 0 0 0 0 0 0 0 0 0 0 0 0 0 0 0 0 127 0" result="hardAlpha"/>
<feOffset dx="2" dy="2"/>
<feGaussianBlur stdDeviation="4"/>
<feComposite in2="hardAlpha" operator="arithmetic" k2="-1" k3="1"/>
<feColorMatrix type="matrix" values="0 0 0 0 1 0 0 0 0 1 0 0 0 0 1 0 0 0 0.1 0"/>
<feBlend mode="normal" in2="effect2_innerShadow_31_3641" result="effect3_innerShadow_31_3641"/>
<feColorMatrix in="SourceAlpha" type="matrix" values="0 0 0 0 0 0 0 0 0 0 0 0 0 0 0 0 0 0 127 0" result="hardAlpha"/>
<feOffset dx="2" dy="-2"/>
<feGaussianBlur stdDeviation="4"/>
<feComposite in2="hardAlpha" operator="arithmetic" k2="-1" k3="1"/>
<feColorMatrix type="matrix" values="0 0 0 0 1 0 0 0 0 1 0 0 0 0 1 0 0 0 0.1 0"/>
<feBlend mode="normal" in2="effect3_innerShadow_31_3641" result="effect4_innerShadow_31_3641"/>
</filter>
<linearGradient id="paint0_linear_31_3641" x1="48" y1="0" x2="48" y2="96" gradientUnits="userSpaceOnUse">
<stop stop-color="white"/>
<stop offset="1" stop-color="#DFDFDF"/>
</linearGradient>
<clipPath id="clip0_31_3641">
<rect width="96" height="96" fill="white"/>
</clipPath>
</defs>
</svg>
