<svg width="96" height="96" viewBox="0 0 96 96" fill="none" xmlns="http://www.w3.org/2000/svg">
<g clip-path="url(#clip0_31_3648)">
<path d="M72 0H24C10.7452 0 0 10.7452 0 24V72C0 85.2548 10.7452 96 24 96H72C85.2548 96 96 85.2548 96 72V24C96 10.7452 85.2548 0 72 0Z" fill="url(#paint0_linear_31_3648)"/>
<path d="M72 0H24C10.7452 0 0 10.7452 0 24V72C0 85.2548 10.7452 96 24 96H72C85.2548 96 96 85.2548 96 72V24C96 10.7452 85.2548 0 72 0Z" fill="url(#paint1_linear_31_3648)"/>
<g filter="url(#filter0_i_31_3648)">
<path d="M72 6H24C14.0589 6 6 14.0589 6 24V72C6 81.9411 14.0589 90 24 90H72C81.9411 90 90 81.9411 90 72V24C90 14.0589 81.9411 6 72 6Z" fill="black" fill-opacity="0.7"/>
<mask id="mask0_31_3648" style="mask-type:luminance" maskUnits="userSpaceOnUse" x="12" y="12" width="72" height="72">
<path d="M84 12H12V84H84V12Z" fill="white"/>
</mask>
<g mask="url(#mask0_31_3648)">
<g filter="url(#filter1_d_31_3648)">
<path d="M31.8857 80.7975L74.5919 73.488C76.146 73.2241 77.5823 72.4915 78.7088 71.3886C79.8353 70.2856 80.5973 68.8649 80.8935 67.3166C81.093 66.2879 81.081 65.2295 80.859 64.2055C80.637 63.1814 80.2095 62.2132 79.6028 61.3592C78.9953 60.5052 78.2213 59.7834 77.3273 59.2374C76.4325 58.6915 75.4373 58.3327 74.3999 58.1829L31.4605 52.1555C29.5426 51.8858 27.5901 52.0031 25.7183 52.5007C23.8465 52.9982 22.0934 53.8657 20.5625 55.0521C19.0316 56.2385 17.7539 57.7196 16.805 59.408C15.8561 61.0964 15.2552 62.9578 15.0377 64.8823C14.7839 67.1164 15.0536 69.379 15.8254 71.4909C16.5972 73.6028 17.8499 75.5063 19.4845 77.0505C21.119 78.594 23.0905 79.737 25.2429 80.3872C27.3953 81.0375 29.6696 81.1785 31.8857 80.7975Z" fill="url(#paint2_linear_31_3648)"/>
</g>
<g filter="url(#filter2_d_31_3648)">
<path d="M60.535 18.2263L19.6939 55.8857C18.1554 57.3045 16.943 59.0401 16.1405 60.9728C15.3378 62.9056 14.964 64.9894 15.0449 67.0807C15.1257 69.1719 15.6593 71.2207 16.6087 73.0857C17.558 74.9508 18.9008 76.5877 20.5442 77.8837C23.4035 80.133 27.0055 81.2227 30.6323 80.9355C34.2592 80.6482 37.6448 79.005 40.1144 76.3335L77.829 35.52C78.9525 34.2997 79.8165 32.8637 80.3678 31.2993C80.9198 29.7349 81.1478 28.0746 81.0383 26.4193C80.9288 24.7641 80.4833 23.1484 79.7303 21.6705C78.9773 20.1925 77.931 18.883 76.656 17.8217C74.3768 15.9229 71.4851 14.9171 68.5195 14.9916C65.5538 15.066 62.7163 16.2156 60.535 18.2263Z" fill="url(#paint3_linear_31_3648)"/>
</g>
<g filter="url(#filter3_d_31_3648)">
<path d="M68.695 72.0617L20.2904 37.2617C18.8026 36.1901 17.5736 34.799 16.6936 33.1904C15.8136 31.5818 15.305 29.7966 15.205 27.9658C15.1051 26.1349 15.4163 24.3049 16.116 22.6102C16.8156 20.9153 17.8858 19.3987 19.2481 18.1714C21.5679 16.0825 24.5964 14.9558 27.7174 15.0208C30.8384 15.0857 33.8174 16.3375 36.0481 18.5212L78.672 60.1852C79.4182 60.9149 80.01 61.7874 80.4112 62.7506C80.8132 63.7138 81.0172 64.7481 81.0105 65.7917C81.0045 66.8353 80.7877 67.867 80.3745 68.8252C79.9605 69.7834 79.3582 70.6486 78.6037 71.3692C77.2912 72.6209 75.5835 73.3752 73.7741 73.5016C71.965 73.6281 70.1686 73.1188 68.695 72.0617Z" fill="url(#paint4_linear_31_3648)"/>
</g>
<g filter="url(#filter4_d_31_3648)">
<path d="M27.4285 27.4285H68.5713V68.5714H27.4285V27.4285Z" fill="black"/>
</g>
<path d="M32.5576 60.7953H47.9862V63.3668H32.5576V60.7953Z" fill="white"/>
<path d="M37.0148 41.8834L31.0697 32.5097H35.0537L38.7428 38.7223L42.5005 32.5097H46.368L40.4228 41.8217V47.9863H37.0148V41.8834Z" fill="white"/>
<path d="M53.1771 35.6503H48.4731V32.5097H61.2891V35.6503H56.5851V47.9863H53.1771V35.6503Z" fill="white"/>
</g>
</g>
</g>
<defs>
<filter id="filter0_i_31_3648" x="6" y="6" width="84" height="88" filterUnits="userSpaceOnUse" color-interpolation-filters="sRGB">
<feFlood flood-opacity="0" result="BackgroundImageFix"/>
<feBlend mode="normal" in="SourceGraphic" in2="BackgroundImageFix" result="shape"/>
<feColorMatrix in="SourceAlpha" type="matrix" values="0 0 0 0 0 0 0 0 0 0 0 0 0 0 0 0 0 0 127 0" result="hardAlpha"/>
<feOffset dy="4"/>
<feGaussianBlur stdDeviation="2"/>
<feComposite in2="hardAlpha" operator="arithmetic" k2="-1" k3="1"/>
<feColorMatrix type="matrix" values="0 0 0 0 0 0 0 0 0 0 0 0 0 0 0 0 0 0 0.25 0"/>
<feBlend mode="normal" in2="shape" result="effect1_innerShadow_31_3648"/>
</filter>
<filter id="filter1_d_31_3648" x="10.9451" y="50.0142" width="74.0897" height="36.9925" filterUnits="userSpaceOnUse" color-interpolation-filters="sRGB">
<feFlood flood-opacity="0" result="BackgroundImageFix"/>
<feColorMatrix in="SourceAlpha" type="matrix" values="0 0 0 0 0 0 0 0 0 0 0 0 0 0 0 0 0 0 127 0" result="hardAlpha"/>
<feOffset dy="2"/>
<feGaussianBlur stdDeviation="2"/>
<feComposite in2="hardAlpha" operator="out"/>
<feColorMatrix type="matrix" values="0 0 0 0 0 0 0 0 0 0 0 0 0 0 0 0 0 0 0.25 0"/>
<feBlend mode="normal" in2="BackgroundImageFix" result="effect1_dropShadow_31_3648"/>
<feBlend mode="normal" in="SourceGraphic" in2="effect1_dropShadow_31_3648" result="shape"/>
</filter>
<filter id="filter2_d_31_3648" x="11.0341" y="12.9877" width="74.0309" height="73.993" filterUnits="userSpaceOnUse" color-interpolation-filters="sRGB">
<feFlood flood-opacity="0" result="BackgroundImageFix"/>
<feColorMatrix in="SourceAlpha" type="matrix" values="0 0 0 0 0 0 0 0 0 0 0 0 0 0 0 0 0 0 127 0" result="hardAlpha"/>
<feOffset dy="2"/>
<feGaussianBlur stdDeviation="2"/>
<feComposite in2="hardAlpha" operator="out"/>
<feColorMatrix type="matrix" values="0 0 0 0 0 0 0 0 0 0 0 0 0 0 0 0 0 0 0.25 0"/>
<feBlend mode="normal" in2="BackgroundImageFix" result="effect1_dropShadow_31_3648"/>
<feBlend mode="normal" in="SourceGraphic" in2="effect1_dropShadow_31_3648" result="shape"/>
</filter>
<filter id="filter3_d_31_3648" x="11.1868" y="13.0181" width="73.8239" height="66.5025" filterUnits="userSpaceOnUse" color-interpolation-filters="sRGB">
<feFlood flood-opacity="0" result="BackgroundImageFix"/>
<feColorMatrix in="SourceAlpha" type="matrix" values="0 0 0 0 0 0 0 0 0 0 0 0 0 0 0 0 0 0 127 0" result="hardAlpha"/>
<feOffset dy="2"/>
<feGaussianBlur stdDeviation="2"/>
<feComposite in2="hardAlpha" operator="out"/>
<feColorMatrix type="matrix" values="0 0 0 0 0 0 0 0 0 0 0 0 0 0 0 0 0 0 0.25 0"/>
<feBlend mode="normal" in2="BackgroundImageFix" result="effect1_dropShadow_31_3648"/>
<feBlend mode="normal" in="SourceGraphic" in2="effect1_dropShadow_31_3648" result="shape"/>
</filter>
<filter id="filter4_d_31_3648" x="23.4285" y="25.4285" width="49.1428" height="49.1429" filterUnits="userSpaceOnUse" color-interpolation-filters="sRGB">
<feFlood flood-opacity="0" result="BackgroundImageFix"/>
<feColorMatrix in="SourceAlpha" type="matrix" values="0 0 0 0 0 0 0 0 0 0 0 0 0 0 0 0 0 0 127 0" result="hardAlpha"/>
<feOffset dy="2"/>
<feGaussianBlur stdDeviation="2"/>
<feComposite in2="hardAlpha" operator="out"/>
<feColorMatrix type="matrix" values="0 0 0 0 0 0 0 0 0 0 0 0 0 0 0 0 0 0 0.25 0"/>
<feBlend mode="normal" in2="BackgroundImageFix" result="effect1_dropShadow_31_3648"/>
<feBlend mode="normal" in="SourceGraphic" in2="effect1_dropShadow_31_3648" result="shape"/>
</filter>
<linearGradient id="paint0_linear_31_3648" x1="48" y1="0" x2="48" y2="96" gradientUnits="userSpaceOnUse">
<stop stop-color="#3BEA62"/>
<stop offset="0.5" stop-color="#009AE5"/>
<stop offset="1" stop-color="#6B57FF"/>
</linearGradient>
<linearGradient id="paint1_linear_31_3648" x1="84.0188" y1="88.5315" x2="12.9992" y2="30.4959" gradientUnits="userSpaceOnUse">
<stop offset="0.15" stop-color="#07C3F2"/>
<stop offset="0.53" stop-color="#6B57FF"/>
<stop offset="1" stop-color="#FF318C"/>
</linearGradient>
<linearGradient id="paint2_linear_31_3648" x1="68.8799" y1="59.4446" x2="29.6228" y2="66.8435" gradientUnits="userSpaceOnUse">
<stop stop-color="#07C3F2"/>
<stop offset="1" stop-color="#6B57FF"/>
</linearGradient>
<linearGradient id="paint3_linear_31_3648" x1="67.5362" y1="28.896" x2="26.3933" y2="69.5863" gradientUnits="userSpaceOnUse">
<stop stop-color="#07C3F2"/>
<stop offset="1" stop-color="#6B57FF"/>
</linearGradient>
<linearGradient id="paint4_linear_31_3648" x1="72.7956" y1="68.9692" x2="28.7864" y2="28.5052" gradientUnits="userSpaceOnUse">
<stop offset="0.15" stop-color="#07C3F2"/>
<stop offset="0.53" stop-color="#6B57FF"/>
<stop offset="1" stop-color="#FF318C"/>
</linearGradient>
<clipPath id="clip0_31_3648">
<rect width="96" height="96" fill="white"/>
</clipPath>
</defs>
</svg>
