<svg width="24" height="24" viewBox="0 0 24 24" fill="none" xmlns="http://www.w3.org/2000/svg">
<g clip-path="url(#clip0_32_9699)">
<path d="M18 0H6C2.68629 0 0 2.68629 0 6V18C0 21.3137 2.68629 24 6 24H18C21.3137 24 24 21.3137 24 18V6C24 2.68629 21.3137 0 18 0Z" fill="url(#paint0_linear_32_9699)"/>
<g filter="url(#filter0_i_32_9699)">
<path d="M18 1.5H6C3.51472 1.5 1.5 3.51472 1.5 6V18C1.5 20.4853 3.51472 22.5 6 22.5H18C20.4853 22.5 22.5 20.4853 22.5 18V6C22.5 3.51472 20.4853 1.5 18 1.5Z" fill="black" fill-opacity="0.7"/>
<mask id="mask0_32_9699" style="mask-type:luminance" maskUnits="userSpaceOnUse" x="3" y="3" width="18" height="18">
<path d="M3.85742 3.85718H20.3146V20.3144H3.85742V3.85718Z" fill="white"/>
</mask>
<g mask="url(#mask0_32_9699)">
<g filter="url(#filter1_d_32_9699)">
<path d="M11.6355 9.76755L4.67533 8.06653L3.85742 10.0016L6.36638 18.0268L13.0325 20.3141L11.6355 9.76755Z" fill="url(#paint1_linear_32_9699)"/>
</g>
<g filter="url(#filter2_d_32_9699)">
<path d="M20.3144 8.56482L18.6416 5.28949L10.106 3.85718L6.36621 18.0269L13.0324 20.3144L13.3895 19.728L20.3144 8.56482Z" fill="url(#paint2_linear_32_9699)"/>
</g>
<g filter="url(#filter3_d_32_9699)">
<path d="M17.2632 6.94287H6.97754V17.2286H17.2632V6.94287Z" fill="black"/>
</g>
<path d="M13.8748 8.19763H14.6601L16.319 12.0962H15.4287L15.0748 11.228H13.438L13.084 12.0962H12.2158L13.8748 8.19763ZM14.7706 10.4759L14.2564 9.22063L13.7421 10.4759H14.7706Z" fill="white"/>
<path d="M11.5397 12.2124L11.1139 11.8308C10.7876 12.0409 10.395 12.1626 9.96368 12.1626C8.76923 12.1626 7.91211 11.2723 7.91211 10.1718V10.1608C7.91211 9.0603 8.78029 8.15894 9.97476 8.15894C11.1692 8.15894 12.0263 9.04926 12.0263 10.1497V10.1608C12.0263 10.57 11.8992 10.9515 11.6835 11.2723L12.0816 11.6096L11.5397 12.2124ZM10.4835 11.2723L9.85311 10.7359L10.395 10.1276L11.031 10.7027C11.0973 10.5479 11.136 10.3654 11.136 10.1718V10.1608C11.136 9.49718 10.6494 8.94419 9.96368 8.94419C9.27797 8.94419 8.80242 9.48613 8.80242 10.1497V10.1608C8.80242 10.8244 9.28905 11.3774 9.97476 11.3774C10.1628 11.3774 10.3342 11.3441 10.4835 11.2723Z" fill="white"/>
<path d="M11.7995 15.2999H7.94238V15.9427H11.7995V15.2999Z" fill="white"/>
</g>
</g>
</g>
<defs>
<filter id="filter0_i_32_9699" x="1.5" y="1.5" width="21" height="25" filterUnits="userSpaceOnUse" color-interpolation-filters="sRGB">
<feFlood flood-opacity="0" result="BackgroundImageFix"/>
<feBlend mode="normal" in="SourceGraphic" in2="BackgroundImageFix" result="shape"/>
<feColorMatrix in="SourceAlpha" type="matrix" values="0 0 0 0 0 0 0 0 0 0 0 0 0 0 0 0 0 0 127 0" result="hardAlpha"/>
<feOffset dy="4"/>
<feGaussianBlur stdDeviation="2"/>
<feComposite in2="hardAlpha" operator="arithmetic" k2="-1" k3="1"/>
<feColorMatrix type="matrix" values="0 0 0 0 0 0 0 0 0 0 0 0 0 0 0 0 0 0 0.25 0"/>
<feBlend mode="normal" in2="shape" result="effect1_innerShadow_32_9699"/>
</filter>
<filter id="filter1_d_32_9699" x="-0.142578" y="6.06653" width="17.1748" height="20.2476" filterUnits="userSpaceOnUse" color-interpolation-filters="sRGB">
<feFlood flood-opacity="0" result="BackgroundImageFix"/>
<feColorMatrix in="SourceAlpha" type="matrix" values="0 0 0 0 0 0 0 0 0 0 0 0 0 0 0 0 0 0 127 0" result="hardAlpha"/>
<feOffset dy="2"/>
<feGaussianBlur stdDeviation="2"/>
<feComposite in2="hardAlpha" operator="out"/>
<feColorMatrix type="matrix" values="0 0 0 0 0 0 0 0 0 0 0 0 0 0 0 0 0 0 0.25 0"/>
<feBlend mode="normal" in2="BackgroundImageFix" result="effect1_dropShadow_32_9699"/>
<feBlend mode="normal" in="SourceGraphic" in2="effect1_dropShadow_32_9699" result="shape"/>
</filter>
<filter id="filter2_d_32_9699" x="2.36621" y="1.85718" width="21.9482" height="24.4572" filterUnits="userSpaceOnUse" color-interpolation-filters="sRGB">
<feFlood flood-opacity="0" result="BackgroundImageFix"/>
<feColorMatrix in="SourceAlpha" type="matrix" values="0 0 0 0 0 0 0 0 0 0 0 0 0 0 0 0 0 0 127 0" result="hardAlpha"/>
<feOffset dy="2"/>
<feGaussianBlur stdDeviation="2"/>
<feComposite in2="hardAlpha" operator="out"/>
<feColorMatrix type="matrix" values="0 0 0 0 0 0 0 0 0 0 0 0 0 0 0 0 0 0 0.25 0"/>
<feBlend mode="normal" in2="BackgroundImageFix" result="effect1_dropShadow_32_9699"/>
<feBlend mode="normal" in="SourceGraphic" in2="effect1_dropShadow_32_9699" result="shape"/>
</filter>
<filter id="filter3_d_32_9699" x="2.97754" y="4.94287" width="18.2861" height="18.2858" filterUnits="userSpaceOnUse" color-interpolation-filters="sRGB">
<feFlood flood-opacity="0" result="BackgroundImageFix"/>
<feColorMatrix in="SourceAlpha" type="matrix" values="0 0 0 0 0 0 0 0 0 0 0 0 0 0 0 0 0 0 127 0" result="hardAlpha"/>
<feOffset dy="2"/>
<feGaussianBlur stdDeviation="2"/>
<feComposite in2="hardAlpha" operator="out"/>
<feColorMatrix type="matrix" values="0 0 0 0 0 0 0 0 0 0 0 0 0 0 0 0 0 0 0.25 0"/>
<feBlend mode="normal" in2="BackgroundImageFix" result="effect1_dropShadow_32_9699"/>
<feBlend mode="normal" in="SourceGraphic" in2="effect1_dropShadow_32_9699" result="shape"/>
</filter>
<linearGradient id="paint0_linear_32_9699" x1="12" y1="0" x2="12" y2="24" gradientUnits="userSpaceOnUse">
<stop stop-color="#3BEA62"/>
<stop offset="0.510417" stop-color="#087DF7"/>
<stop offset="1" stop-color="#6B57FF"/>
</linearGradient>
<linearGradient id="paint1_linear_32_9699" x1="9.88933" y1="17.6175" x2="7.72258" y2="9.79839" gradientUnits="userSpaceOnUse">
<stop stop-color="#087CFA"/>
<stop offset="1" stop-color="#6B57FF"/>
</linearGradient>
<linearGradient id="paint2_linear_32_9699" x1="6.9141" y1="18.7823" x2="14.981" y2="7.17775" gradientUnits="userSpaceOnUse">
<stop stop-color="#087CFA"/>
<stop offset="0.387317" stop-color="#097FF6"/>
<stop offset="0.960121" stop-color="#3BEA62"/>
</linearGradient>
<clipPath id="clip0_32_9699">
<rect width="24" height="24" fill="white"/>
</clipPath>
</defs>
</svg>
