<svg width="24" height="24" viewBox="0 0 24 24" fill="none" xmlns="http://www.w3.org/2000/svg">
<g clip-path="url(#clip0_32_9716)">
<path d="M18 0H6C2.68629 0 0 2.68629 0 6V18C0 21.3137 2.68629 24 6 24H18C21.3137 24 24 21.3137 24 18V6C24 2.68629 21.3137 0 18 0Z" fill="url(#paint0_linear_32_9716)"/>
<g filter="url(#filter0_i_32_9716)">
<path d="M18 1.5H6C3.51472 1.5 1.5 3.51472 1.5 6V18C1.5 20.4853 3.51472 22.5 6 22.5H18C20.4853 22.5 22.5 20.4853 22.5 18V6C22.5 3.51472 20.4853 1.5 18 1.5Z" fill="black" fill-opacity="0.7"/>
<mask id="mask0_32_9716" style="mask-type:luminance" maskUnits="userSpaceOnUse" x="3" y="3" width="18" height="18">
<path d="M21 3H3V21H21V3Z" fill="white"/>
</mask>
<g mask="url(#mask0_32_9716)">
<g filter="url(#filter1_d_32_9716)">
<path fill-rule="evenodd" clip-rule="evenodd" d="M11.6004 8.97957C11.2777 9.78707 10.9669 11.1234 10.5916 9.58607C10.3101 8.49417 9.70865 10.2703 9.27125 10.5748C8.38908 11.2454 7.90085 12.1903 7.50905 13.2027C6.47153 12.3205 6.86069 13.7364 6.79713 14.4288C6.85368 15.4667 6.68455 16.6017 6.88062 17.5797C7.70395 18.2971 8.29951 19.4294 9.52465 19.4148C10.3627 19.706 10.2577 18.4388 11.0176 19.4904C11.7169 20.4489 12.1488 19.8884 12.6053 19.4171C13.2723 20.438 13.4766 18.1953 14.0393 19.2012C14.909 19.5397 15.6887 19.7007 15.8314 18.5529C16.01 17.6464 17.5686 17.628 17.2034 16.5382C17.1525 15.4074 17.3045 14.1959 17.1287 13.1148C16.5384 12.6541 16.083 11.5903 15.4104 11.4976C14.5783 11.9015 14.8989 10.121 14.5564 9.59687C14.4445 8.22074 14.1497 8.84297 13.8293 9.7867C13.6519 11.1453 12.9066 10.4976 12.5258 9.60846C12.1871 9.32372 11.8012 7.81922 11.6004 8.97957Z" fill="#F3E517"/>
</g>
<mask id="mask1_32_9716" style="mask-type:luminance" maskUnits="userSpaceOnUse" x="7" y="9" width="10" height="11">
<path d="M7.21875 16.257L7.5 16.5382L7.92188 17.9445L8.0625 16.257L8.48438 18.3663V15.6945L8.76562 16.3976L9.1875 18.3663V15.6945L9.46875 15.9757L9.89062 18.3663L10.3125 15.132L11.2428 18.777L11.2969 16.5382L11.5781 15.6945L11.8594 19.2101L12.7031 15.6945L12.9844 18.6476L13.6875 15.5538L14.3906 18.9288L14.5312 16.3976L14.9531 15.5538L15.0938 18.7882L15.7969 15.6945L16.2188 17.1007L16.3594 15.8351L16.7812 16.6788V14.007L16.3594 15.132L16.2188 12.7413L15.9375 14.5695L15.6562 14.007L15.5156 12.0382L14.8125 14.7101L14.6719 14.1476L14.25 9.92883L13.8281 13.5851L13.5469 14.7101L12.9844 10.9132L12.4219 14.1476L12.1406 14.9913L12 9.18286L11.1562 15.6945L10.3125 9.78821L9.89062 14.8507L9.60938 14.2882L9.32812 10.9132L9.1875 14.2882L8.76562 15.2726L8.48438 11.8976L8.20312 14.5695L7.78125 13.8663V15.8351L7.21875 13.7257V16.257Z" fill="white"/>
</mask>
<g mask="url(#mask1_32_9716)">
<path fill-rule="evenodd" clip-rule="evenodd" d="M6.9375 19.3507V9.08508H17.0625V19.3507H6.9375Z" fill="#FF7901"/>
<g filter="url(#filter2_d_32_9716)">
<path fill-rule="evenodd" clip-rule="evenodd" d="M7.07812 14.2882L8.20312 14.9913L8.625 13.7257L9.32812 14.5695L10.1719 13.1632L10.4531 14.8507L10.7344 13.7257L11.1562 14.5695L11.2969 13.7257C11.2969 13.7257 11.7188 14.8507 11.7188 14.7101C11.7188 14.5695 12.2812 12.6007 12.2812 12.6007L12.8438 14.4288L13.6875 12.7413L14.1094 14.5695L14.8125 13.3038L15.2344 14.5695L15.9375 13.8663L16.7812 14.7101V15.8351L16.2188 16.257L15.375 15.9757L14.8125 15.6945L14.6719 17.1007L14.3906 15.6945L13.8281 16.9601L12.9844 15.6945L12.7031 16.9601L12.1406 16.1163L11.4375 17.9445L11.0156 15.8351L10.1719 16.257L9.60938 15.4132L9.32812 16.8195L8.76562 16.1163L8.20312 16.8195L7.92188 16.3976L7.07812 16.5382V14.2882Z" fill="#FF0101"/>
</g>
</g>
<g filter="url(#filter3_d_32_9716)">
<path d="M12 4.005C10.1349 4.005 8.43394 4.5873 7.17921 5.56508C5.92446 6.54284 5.10938 7.94183 5.10938 9.49817V10.0607C3.86361 10.6919 3 12.3476 3 14.2882C3 16.7722 4.41321 18.7882 6.23438 18.7882V9.49817C6.23438 8.33266 6.83764 7.25999 7.87354 6.45276C8.90944 5.64554 10.3722 5.13 12 5.13C13.6278 5.13 15.0906 5.64554 16.1265 6.45276C17.1624 7.25999 17.7656 8.33266 17.7656 9.49817V18.7882C19.5868 18.7882 21 16.7722 21 14.2882C21 12.3476 20.1364 10.6919 18.8906 10.0607V9.49817C18.8906 7.94183 18.0755 6.54284 16.8208 5.56508C15.5661 4.5873 13.8651 4.005 12 4.005ZM6.65625 9.92884V18.7882C6.9375 18.7882 7.21875 18.6476 7.35938 18.3663V10.2101C7.21875 10.0695 6.9375 9.92884 6.65625 9.92884ZM17.3438 9.92884C17.0625 9.92884 16.7812 10.0695 16.6406 10.2101V18.3663C16.7812 18.6476 17.0625 18.7882 17.3438 18.7882V9.92884Z" fill="#0077CC"/>
</g>
</g>
</g>
</g>
<defs>
<filter id="filter0_i_32_9716" x="1.5" y="1.5" width="21" height="25" filterUnits="userSpaceOnUse" color-interpolation-filters="sRGB">
<feFlood flood-opacity="0" result="BackgroundImageFix"/>
<feBlend mode="normal" in="SourceGraphic" in2="BackgroundImageFix" result="shape"/>
<feColorMatrix in="SourceAlpha" type="matrix" values="0 0 0 0 0 0 0 0 0 0 0 0 0 0 0 0 0 0 127 0" result="hardAlpha"/>
<feOffset dy="4"/>
<feGaussianBlur stdDeviation="2"/>
<feComposite in2="hardAlpha" operator="arithmetic" k2="-1" k3="1"/>
<feColorMatrix type="matrix" values="0 0 0 0 0 0 0 0 0 0 0 0 0 0 0 0 0 0 0.25 0"/>
<feBlend mode="normal" in2="shape" result="effect1_innerShadow_32_9716"/>
</filter>
<filter id="filter1_d_32_9716" x="2.77637" y="6.54602" width="18.4824" height="19.4684" filterUnits="userSpaceOnUse" color-interpolation-filters="sRGB">
<feFlood flood-opacity="0" result="BackgroundImageFix"/>
<feColorMatrix in="SourceAlpha" type="matrix" values="0 0 0 0 0 0 0 0 0 0 0 0 0 0 0 0 0 0 127 0" result="hardAlpha"/>
<feOffset dy="2"/>
<feGaussianBlur stdDeviation="2"/>
<feComposite in2="hardAlpha" operator="out"/>
<feColorMatrix type="matrix" values="0 0 0 0 0 0 0 0 0 0 0 0 0 0 0 0 0 0 0.25 0"/>
<feBlend mode="normal" in2="BackgroundImageFix" result="effect1_dropShadow_32_9716"/>
<feBlend mode="normal" in="SourceGraphic" in2="effect1_dropShadow_32_9716" result="shape"/>
</filter>
<filter id="filter2_d_32_9716" x="3.07812" y="10.6007" width="17.7031" height="13.3438" filterUnits="userSpaceOnUse" color-interpolation-filters="sRGB">
<feFlood flood-opacity="0" result="BackgroundImageFix"/>
<feColorMatrix in="SourceAlpha" type="matrix" values="0 0 0 0 0 0 0 0 0 0 0 0 0 0 0 0 0 0 127 0" result="hardAlpha"/>
<feOffset dy="2"/>
<feGaussianBlur stdDeviation="2"/>
<feComposite in2="hardAlpha" operator="out"/>
<feColorMatrix type="matrix" values="0 0 0 0 0 0 0 0 0 0 0 0 0 0 0 0 0 0 0.25 0"/>
<feBlend mode="normal" in2="BackgroundImageFix" result="effect1_dropShadow_32_9716"/>
<feBlend mode="normal" in="SourceGraphic" in2="effect1_dropShadow_32_9716" result="shape"/>
</filter>
<filter id="filter3_d_32_9716" x="-1" y="2.005" width="26" height="22.7832" filterUnits="userSpaceOnUse" color-interpolation-filters="sRGB">
<feFlood flood-opacity="0" result="BackgroundImageFix"/>
<feColorMatrix in="SourceAlpha" type="matrix" values="0 0 0 0 0 0 0 0 0 0 0 0 0 0 0 0 0 0 127 0" result="hardAlpha"/>
<feOffset dy="2"/>
<feGaussianBlur stdDeviation="2"/>
<feComposite in2="hardAlpha" operator="out"/>
<feColorMatrix type="matrix" values="0 0 0 0 0 0 0 0 0 0 0 0 0 0 0 0 0 0 0.25 0"/>
<feBlend mode="normal" in2="BackgroundImageFix" result="effect1_dropShadow_32_9716"/>
<feBlend mode="normal" in="SourceGraphic" in2="effect1_dropShadow_32_9716" result="shape"/>
</filter>
<linearGradient id="paint0_linear_32_9716" x1="12" y1="0" x2="12" y2="24" gradientUnits="userSpaceOnUse">
<stop stop-color="#0077CC"/>
<stop offset="1" stop-color="#0044CC"/>
</linearGradient>
<clipPath id="clip0_32_9716">
<rect width="24" height="24" fill="white"/>
</clipPath>
</defs>
</svg>
