<svg width="24" height="24" viewBox="0 0 24 24" fill="none" xmlns="http://www.w3.org/2000/svg">
<g clip-path="url(#clip0_32_9744)">
<path d="M18 0H6C2.68629 0 0 2.68629 0 6V18C0 21.3137 2.68629 24 6 24H18C21.3137 24 24 21.3137 24 18V6C24 2.68629 21.3137 0 18 0Z" fill="url(#paint0_radial_32_9744)"/>
<path d="M18 0H6C2.68629 0 0 2.68629 0 6V18C0 21.3137 2.68629 24 6 24H18C21.3137 24 24 21.3137 24 18V6C24 2.68629 21.3137 0 18 0Z" fill="url(#paint1_linear_32_9744)"/>
<g filter="url(#filter0_i_32_9744)">
<path d="M18 1.5H6C3.51472 1.5 1.5 3.51472 1.5 6V18C1.5 20.4853 3.51472 22.5 6 22.5H18C20.4853 22.5 22.5 20.4853 22.5 18V6C22.5 3.51472 20.4853 1.5 18 1.5Z" fill="black" fill-opacity="0.7"/>
<mask id="mask0_32_9744" style="mask-type:luminance" maskUnits="userSpaceOnUse" x="4" y="4" width="16" height="16">
<path d="M19.5 4.5H4.5V19.5H19.5V4.5Z" fill="white"/>
</mask>
<g mask="url(#mask0_32_9744)">
<g filter="url(#filter1_d_32_9744)">
<path d="M11.9995 8.24951H18.4936C17.8356 7.10932 16.8889 6.16249 15.7488 5.50421C14.6088 4.84594 13.3155 4.49944 11.999 4.49951C10.6825 4.49961 9.38928 4.84631 8.2493 5.50474C7.10932 6.16318 6.1628 7.11015 5.50488 8.25043L8.75195 13.8745L8.75484 13.8738C8.42454 13.3042 8.25022 12.6575 8.24949 11.9991C8.24874 11.3406 8.4216 10.6936 8.75064 10.1233C9.07966 9.55294 9.55325 9.07942 10.1236 8.75046C10.694 8.42149 11.341 8.24871 11.9995 8.24951Z" fill="url(#paint2_linear_32_9744)"/>
<path d="M15.2484 13.8743L12.0014 19.4984C13.3178 19.4986 14.6111 19.1523 15.7513 18.494C16.8914 17.8358 17.8381 16.8891 18.4963 15.7489C19.1544 14.6088 19.5009 13.3154 19.5005 11.999C19.5003 10.6825 19.1534 9.3893 18.4949 8.24939L12.0008 8.24941L12 8.25228C12.6584 8.25102 13.3056 8.42337 13.8762 8.75195C14.4468 9.08054 14.9207 9.55373 15.2501 10.1239C15.5795 10.694 15.7528 11.3409 15.7525 11.9993C15.7522 12.6578 15.5784 13.3045 15.2484 13.8743Z" fill="url(#paint3_linear_32_9744)"/>
<path d="M8.75314 13.8759L5.50607 8.25183C4.84768 9.39183 4.50101 10.6851 4.50098 12.0015C4.50092 13.318 4.84748 14.6113 5.50579 15.7513C6.1641 16.8914 7.11098 17.838 8.25118 18.4961C9.39139 19.154 10.6848 19.5003 12.0012 19.5L15.2483 13.8759L15.2462 13.8737C14.9181 14.4446 14.4452 14.9189 13.8754 15.2487C13.3055 15.5786 12.6587 15.7524 12.0003 15.7526C11.3419 15.7528 10.695 15.5795 10.1249 15.25C9.55481 14.9205 9.08166 14.4466 8.75314 13.8759Z" fill="url(#paint4_linear_32_9744)"/>
<path d="M12 15.75C14.0711 15.75 15.75 14.0711 15.75 12C15.75 9.92893 14.0711 8.25 12 8.25C9.92893 8.25 8.25 9.92893 8.25 12C8.25 14.0711 9.92893 15.75 12 15.75Z" fill="white"/>
<path d="M12 14.9688C13.6396 14.9688 14.9688 13.6396 14.9688 12C14.9688 10.3604 13.6396 9.03125 12 9.03125C10.3604 9.03125 9.03125 10.3604 9.03125 12C9.03125 13.6396 10.3604 14.9688 12 14.9688Z" fill="#1A73E8"/>
</g>
</g>
</g>
</g>
<defs>
<filter id="filter0_i_32_9744" x="1.5" y="1.5" width="21" height="25" filterUnits="userSpaceOnUse" color-interpolation-filters="sRGB">
<feFlood flood-opacity="0" result="BackgroundImageFix"/>
<feBlend mode="normal" in="SourceGraphic" in2="BackgroundImageFix" result="shape"/>
<feColorMatrix in="SourceAlpha" type="matrix" values="0 0 0 0 0 0 0 0 0 0 0 0 0 0 0 0 0 0 127 0" result="hardAlpha"/>
<feOffset dy="4"/>
<feGaussianBlur stdDeviation="2"/>
<feComposite in2="hardAlpha" operator="arithmetic" k2="-1" k3="1"/>
<feColorMatrix type="matrix" values="0 0 0 0 0 0 0 0 0 0 0 0 0 0 0 0 0 0 0.25 0"/>
<feBlend mode="normal" in2="shape" result="effect1_innerShadow_32_9744"/>
</filter>
<filter id="filter1_d_32_9744" x="0.500977" y="2.49951" width="23" height="23.0004" filterUnits="userSpaceOnUse" color-interpolation-filters="sRGB">
<feFlood flood-opacity="0" result="BackgroundImageFix"/>
<feColorMatrix in="SourceAlpha" type="matrix" values="0 0 0 0 0 0 0 0 0 0 0 0 0 0 0 0 0 0 127 0" result="hardAlpha"/>
<feOffset dy="2"/>
<feGaussianBlur stdDeviation="2"/>
<feComposite in2="hardAlpha" operator="out"/>
<feColorMatrix type="matrix" values="0 0 0 0 0 0 0 0 0 0 0 0 0 0 0 0 0 0 0.25 0"/>
<feBlend mode="normal" in2="BackgroundImageFix" result="effect1_dropShadow_32_9744"/>
<feBlend mode="normal" in="SourceGraphic" in2="effect1_dropShadow_32_9744" result="shape"/>
</filter>
<radialGradient id="paint0_radial_32_9744" cx="0" cy="0" r="1" gradientUnits="userSpaceOnUse" gradientTransform="translate(12 12) rotate(135) scale(16.9706)">
<stop offset="0.140003" stop-color="#1A73E8"/>
<stop offset="0.373259" stop-color="#DB3327"/>
<stop offset="0.638316" stop-color="#FCC72D"/>
<stop offset="0.896201" stop-color="#209140"/>
</radialGradient>
<linearGradient id="paint1_linear_32_9744" x1="24" y1="0" x2="0" y2="24" gradientUnits="userSpaceOnUse">
<stop stop-color="#1971E5"/>
<stop offset="0.536458" stop-color="#4C8CF4"/>
<stop offset="1" stop-color="#9FC2FA"/>
</linearGradient>
<linearGradient id="paint2_linear_32_9744" x1="17.6835" y1="7.78151" x2="11.1891" y2="19.0301" gradientUnits="userSpaceOnUse">
<stop stop-color="#D93025"/>
<stop offset="1" stop-color="#EA4335"/>
</linearGradient>
<linearGradient id="paint3_linear_32_9744" x1="18.9208" y1="9.18738" x2="5.93196" y2="9.18736" gradientUnits="userSpaceOnUse">
<stop stop-color="#FCC934"/>
<stop offset="1" stop-color="#FBBC04"/>
</linearGradient>
<linearGradient id="paint4_linear_32_9744" x1="12.8123" y1="19.0318" x2="6.31798" y2="7.78308" gradientUnits="userSpaceOnUse">
<stop stop-color="#1E8E3E"/>
<stop offset="1" stop-color="#34A853"/>
</linearGradient>
<clipPath id="clip0_32_9744">
<rect width="24" height="24" fill="white"/>
</clipPath>
</defs>
</svg>
