<svg width="24" height="24" viewBox="0 0 24 24" fill="none" xmlns="http://www.w3.org/2000/svg">
<g clip-path="url(#clip0_32_9758)">
<path d="M18 0H6C2.68629 0 0 2.68629 0 6V18C0 21.3137 2.68629 24 6 24H18C21.3137 24 24 21.3137 24 18V6C24 2.68629 21.3137 0 18 0Z" fill="url(#paint0_linear_32_9758)"/>
<g filter="url(#filter0_i_32_9758)">
<path d="M18 1.5H6C3.51472 1.5 1.5 3.51472 1.5 6V18C1.5 20.4853 3.51472 22.5 6 22.5H18C20.4853 22.5 22.5 20.4853 22.5 18V6C22.5 3.51472 20.4853 1.5 18 1.5Z" fill="black" fill-opacity="0.7"/>
<mask id="mask0_32_9758" style="mask-type:luminance" maskUnits="userSpaceOnUse" x="4" y="4" width="16" height="16">
<path d="M19.5 4.5H4.5V19.5H19.5V4.5Z" fill="white"/>
</mask>
<g mask="url(#mask0_32_9758)">
<g filter="url(#filter1_d_32_9758)">
<path d="M12.0001 12L15.2477 13.875L12.0001 19.5C16.1422 19.5 19.5 16.1422 19.5 12C19.5 10.6335 19.1327 9.35351 18.4942 8.25H12L12.0001 12Z" fill="url(#paint1_linear_32_9758)"/>
<path d="M11.9996 4.5C9.22359 4.5 6.80175 6.00923 5.50488 8.25092L8.7519 13.875L11.9996 12.0001V8.25002H18.4938C17.1967 6.00889 14.7752 4.5 11.9996 4.5Z" fill="url(#paint2_linear_32_9758)"/>
<path d="M4.50004 12.0001C4.50004 16.1422 7.85777 19.5001 12 19.5001L15.2477 13.8751L12 12.0001L8.75235 13.8751L5.50536 8.25098C4.86714 9.35417 4.50004 10.6338 4.50004 12.0001Z" fill="url(#paint3_linear_32_9758)"/>
<path d="M15.7501 12C15.7501 14.0711 14.0711 15.7501 12 15.7501C9.92897 15.7501 8.25 14.0711 8.25 12C8.25 9.92897 9.92897 8.25 12 8.25C14.0711 8.25 15.7501 9.92897 15.7501 12Z" fill="white"/>
<path d="M15.047 12C15.047 13.6828 13.6828 15.0469 12 15.0469C10.3173 15.0469 8.95312 13.6828 8.95312 12C8.95312 10.3173 10.3173 8.95312 12 8.95312C13.6828 8.95312 15.047 10.3173 15.047 12Z" fill="url(#paint4_linear_32_9758)"/>
</g>
</g>
</g>
</g>
<defs>
<filter id="filter0_i_32_9758" x="1.5" y="1.5" width="21" height="25" filterUnits="userSpaceOnUse" color-interpolation-filters="sRGB">
<feFlood flood-opacity="0" result="BackgroundImageFix"/>
<feBlend mode="normal" in="SourceGraphic" in2="BackgroundImageFix" result="shape"/>
<feColorMatrix in="SourceAlpha" type="matrix" values="0 0 0 0 0 0 0 0 0 0 0 0 0 0 0 0 0 0 127 0" result="hardAlpha"/>
<feOffset dy="4"/>
<feGaussianBlur stdDeviation="2"/>
<feComposite in2="hardAlpha" operator="arithmetic" k2="-1" k3="1"/>
<feColorMatrix type="matrix" values="0 0 0 0 0 0 0 0 0 0 0 0 0 0 0 0 0 0 0.25 0"/>
<feBlend mode="normal" in2="shape" result="effect1_innerShadow_32_9758"/>
</filter>
<filter id="filter1_d_32_9758" x="0.5" y="2.5" width="23" height="23.0001" filterUnits="userSpaceOnUse" color-interpolation-filters="sRGB">
<feFlood flood-opacity="0" result="BackgroundImageFix"/>
<feColorMatrix in="SourceAlpha" type="matrix" values="0 0 0 0 0 0 0 0 0 0 0 0 0 0 0 0 0 0 127 0" result="hardAlpha"/>
<feOffset dy="2"/>
<feGaussianBlur stdDeviation="2"/>
<feComposite in2="hardAlpha" operator="out"/>
<feColorMatrix type="matrix" values="0 0 0 0 0 0 0 0 0 0 0 0 0 0 0 0 0 0 0.25 0"/>
<feBlend mode="normal" in2="BackgroundImageFix" result="effect1_dropShadow_32_9758"/>
<feBlend mode="normal" in="SourceGraphic" in2="effect1_dropShadow_32_9758" result="shape"/>
</filter>
<linearGradient id="paint0_linear_32_9758" x1="24" y1="0" x2="0" y2="24" gradientUnits="userSpaceOnUse">
<stop stop-color="#1971E5"/>
<stop offset="0.536458" stop-color="#4C8CF4"/>
<stop offset="1" stop-color="#9FC2FA"/>
</linearGradient>
<linearGradient id="paint1_linear_32_9758" x1="15.766" y1="8.23453" x2="15.75" y2="19.5" gradientUnits="userSpaceOnUse">
<stop stop-color="#AFCCFB"/>
<stop offset="1" stop-color="#8BB5F8"/>
</linearGradient>
<linearGradient id="paint2_linear_32_9758" x1="10.9119" y1="4.61426" x2="11.5318" y2="14.693" gradientUnits="userSpaceOnUse">
<stop stop-color="#1972E7"/>
<stop offset="1" stop-color="#1969D5"/>
</linearGradient>
<linearGradient id="paint3_linear_32_9758" x1="9.87384" y1="8.25098" x2="9.87384" y2="19.5001" gradientUnits="userSpaceOnUse">
<stop stop-color="#659CF6"/>
<stop offset="1" stop-color="#4285F4"/>
</linearGradient>
<linearGradient id="paint4_linear_32_9758" x1="11.969" y1="8.96471" x2="12" y2="15.0469" gradientUnits="userSpaceOnUse">
<stop stop-color="#3680F0"/>
<stop offset="1" stop-color="#2678EC"/>
</linearGradient>
<clipPath id="clip0_32_9758">
<rect width="24" height="24" fill="white"/>
</clipPath>
</defs>
</svg>
