<svg width="24" height="24" viewBox="0 0 24 24" fill="none" xmlns="http://www.w3.org/2000/svg">
<g clip-path="url(#clip0_32_9777)">
<path d="M18 0H6C2.68629 0 0 2.68629 0 6V18C0 21.3137 2.68629 24 6 24H18C21.3137 24 24 21.3137 24 18V6C24 2.68629 21.3137 0 18 0Z" fill="#D3B9FF"/>
<path d="M18 0H6C2.68629 0 0 2.68629 0 6V18C0 21.3137 2.68629 24 6 24H18C21.3137 24 24 21.3137 24 18V6C24 2.68629 21.3137 0 18 0Z" fill="url(#paint0_linear_32_9777)"/>
<g filter="url(#filter0_i_32_9777)">
<path d="M18 1.5H6C3.51472 1.5 1.5 3.51472 1.5 6V18C1.5 20.4853 3.51472 22.5 6 22.5H18C20.4853 22.5 22.5 20.4853 22.5 18V6C22.5 3.51472 20.4853 1.5 18 1.5Z" fill="black" fill-opacity="0.7"/>
<g filter="url(#filter1_d_32_9777)">
<path d="M6.75 15.9375V17.4375C6.75 18.2659 7.42157 18.9375 8.25 18.9375H18C18.8284 18.9375 19.5 18.2659 19.5 17.4375V11.0625C19.5 10.2341 18.8284 9.5625 18 9.5625" stroke="#8B00E7" stroke-width="2"/>
</g>
<g filter="url(#filter2_d_32_9777)">
<g filter="url(#filter3_d_32_9777)">
<path d="M9.1875 7.125H7.125C6.71079 7.125 6.375 7.46079 6.375 7.875V10.3125C6.375 10.7267 6.71079 11.0625 7.125 11.0625H9.1875C9.60171 11.0625 9.9375 10.7267 9.9375 10.3125V7.875C9.9375 7.46079 9.60171 7.125 9.1875 7.125Z" fill="#D404FF"/>
</g>
<g filter="url(#filter4_d_32_9777)">
<path d="M14.625 8.0625H12C11.5858 8.0625 11.25 8.39829 11.25 8.8125V12.5625C11.25 12.9767 11.5858 13.3125 12 13.3125H14.625C15.0392 13.3125 15.375 12.9767 15.375 12.5625V8.8125C15.375 8.39829 15.0392 8.0625 14.625 8.0625Z" fill="#D404FF"/>
</g>
<path d="M15.75 5.0625H6.75C5.50736 5.0625 4.5 6.06986 4.5 7.3125V13.6875C4.5 14.9301 5.50736 15.9375 6.75 15.9375H15.75C16.9926 15.9375 18 14.9301 18 13.6875V7.3125C18 6.06986 16.9926 5.0625 15.75 5.0625Z" stroke="#D404FF" stroke-width="2"/>
</g>
</g>
</g>
<defs>
<filter id="filter0_i_32_9777" x="1.5" y="1.5" width="21" height="23" filterUnits="userSpaceOnUse" color-interpolation-filters="sRGB">
<feFlood flood-opacity="0" result="BackgroundImageFix"/>
<feBlend mode="normal" in="SourceGraphic" in2="BackgroundImageFix" result="shape"/>
<feColorMatrix in="SourceAlpha" type="matrix" values="0 0 0 0 0 0 0 0 0 0 0 0 0 0 0 0 0 0 127 0" result="hardAlpha"/>
<feOffset dy="2"/>
<feGaussianBlur stdDeviation="2"/>
<feComposite in2="hardAlpha" operator="arithmetic" k2="-1" k3="1"/>
<feColorMatrix type="matrix" values="0 0 0 0 0 0 0 0 0 0 0 0 0 0 0 0 0 0 0.25 0"/>
<feBlend mode="normal" in2="shape" result="effect1_innerShadow_32_9777"/>
</filter>
<filter id="filter1_d_32_9777" x="1.75" y="6.5625" width="22.75" height="19.375" filterUnits="userSpaceOnUse" color-interpolation-filters="sRGB">
<feFlood flood-opacity="0" result="BackgroundImageFix"/>
<feColorMatrix in="SourceAlpha" type="matrix" values="0 0 0 0 0 0 0 0 0 0 0 0 0 0 0 0 0 0 127 0" result="hardAlpha"/>
<feOffset dy="2"/>
<feGaussianBlur stdDeviation="2"/>
<feComposite in2="hardAlpha" operator="out"/>
<feColorMatrix type="matrix" values="0 0 0 0 0 0 0 0 0 0 0 0 0 0 0 0 0 0 0.25 0"/>
<feBlend mode="normal" in2="BackgroundImageFix" result="effect1_dropShadow_32_9777"/>
<feBlend mode="normal" in="SourceGraphic" in2="effect1_dropShadow_32_9777" result="shape"/>
</filter>
<filter id="filter2_d_32_9777" x="-0.5" y="2.0625" width="23.5" height="20.875" filterUnits="userSpaceOnUse" color-interpolation-filters="sRGB">
<feFlood flood-opacity="0" result="BackgroundImageFix"/>
<feColorMatrix in="SourceAlpha" type="matrix" values="0 0 0 0 0 0 0 0 0 0 0 0 0 0 0 0 0 0 127 0" result="hardAlpha"/>
<feOffset dy="2"/>
<feGaussianBlur stdDeviation="2"/>
<feComposite in2="hardAlpha" operator="out"/>
<feColorMatrix type="matrix" values="0 0 0 0 0 0 0 0 0 0 0 0 0 0 0 0 0 0 0.25 0"/>
<feBlend mode="normal" in2="BackgroundImageFix" result="effect1_dropShadow_32_9777"/>
<feBlend mode="normal" in="SourceGraphic" in2="effect1_dropShadow_32_9777" result="shape"/>
</filter>
<filter id="filter3_d_32_9777" x="2.375" y="5.125" width="11.5625" height="11.9375" filterUnits="userSpaceOnUse" color-interpolation-filters="sRGB">
<feFlood flood-opacity="0" result="BackgroundImageFix"/>
<feColorMatrix in="SourceAlpha" type="matrix" values="0 0 0 0 0 0 0 0 0 0 0 0 0 0 0 0 0 0 127 0" result="hardAlpha"/>
<feOffset dy="2"/>
<feGaussianBlur stdDeviation="2"/>
<feComposite in2="hardAlpha" operator="out"/>
<feColorMatrix type="matrix" values="0 0 0 0 0 0 0 0 0 0 0 0 0 0 0 0 0 0 0.25 0"/>
<feBlend mode="normal" in2="BackgroundImageFix" result="effect1_dropShadow_32_9777"/>
<feBlend mode="normal" in="SourceGraphic" in2="effect1_dropShadow_32_9777" result="shape"/>
</filter>
<filter id="filter4_d_32_9777" x="7.25" y="6.0625" width="12.125" height="13.25" filterUnits="userSpaceOnUse" color-interpolation-filters="sRGB">
<feFlood flood-opacity="0" result="BackgroundImageFix"/>
<feColorMatrix in="SourceAlpha" type="matrix" values="0 0 0 0 0 0 0 0 0 0 0 0 0 0 0 0 0 0 127 0" result="hardAlpha"/>
<feOffset dy="2"/>
<feGaussianBlur stdDeviation="2"/>
<feComposite in2="hardAlpha" operator="out"/>
<feColorMatrix type="matrix" values="0 0 0 0 0 0 0 0 0 0 0 0 0 0 0 0 0 0 0.25 0"/>
<feBlend mode="normal" in2="BackgroundImageFix" result="effect1_dropShadow_32_9777"/>
<feBlend mode="normal" in="SourceGraphic" in2="effect1_dropShadow_32_9777" result="shape"/>
</filter>
<linearGradient id="paint0_linear_32_9777" x1="12" y1="0" x2="12" y2="24" gradientUnits="userSpaceOnUse">
<stop stop-color="#CB02C5"/>
<stop offset="0.244792" stop-color="#C101DA"/>
<stop offset="0.510417" stop-color="#B600F0"/>
<stop offset="0.744792" stop-color="#8900D9"/>
<stop offset="1" stop-color="#5800BF"/>
</linearGradient>
<clipPath id="clip0_32_9777">
<rect width="24" height="24" fill="white"/>
</clipPath>
</defs>
</svg>
