<svg width="24" height="24" viewBox="0 0 24 24" fill="none" xmlns="http://www.w3.org/2000/svg">
<g clip-path="url(#clip0_32_9790)">
<path d="M18 0H6C2.68629 0 0 2.68629 0 6V18C0 21.3137 2.68629 24 6 24H18C21.3137 24 24 21.3137 24 18V6C24 2.68629 21.3137 0 18 0Z" fill="url(#paint0_linear_32_9790)"/>
<g filter="url(#filter0_i_32_9790)">
<path d="M18 1.5H6C3.51472 1.5 1.5 3.51472 1.5 6V18C1.5 20.4853 3.51472 22.5 6 22.5H18C20.4853 22.5 22.5 20.4853 22.5 18V6C22.5 3.51472 20.4853 1.5 18 1.5Z" fill="black" fill-opacity="0.7"/>
<mask id="mask0_32_9790" style="mask-type:luminance" maskUnits="userSpaceOnUse" x="4" y="4" width="16" height="16">
<path d="M19.5 4.5H4.5V19.5H19.5V4.5Z" fill="white"/>
</mask>
<g mask="url(#mask0_32_9790)">
<g filter="url(#filter1_d_32_9790)">
<path d="M17.2064 7.14239C16.2355 6.6881 15.1972 6.35793 14.1118 6.16992C13.9785 6.41093 13.8228 6.7351 13.7154 6.99297C12.5616 6.81944 11.4183 6.81944 10.2857 6.99297C10.1784 6.7351 10.0191 6.41093 9.88461 6.16992C8.79801 6.35793 7.7586 6.6893 6.78761 7.14479C4.82916 10.1043 4.29825 12.9903 4.56369 15.8353C5.86266 16.8053 7.12151 17.3946 8.35911 17.7802C8.66467 17.3596 8.93721 16.9126 9.17199 16.4414C8.72484 16.2715 8.29657 16.0619 7.89191 15.8184C7.99927 15.7389 8.10429 15.6558 8.20573 15.5702C10.6739 16.7246 13.3556 16.7246 15.7942 15.5702C15.8969 15.6558 16.0019 15.7389 16.108 15.8184C15.7022 16.0631 15.2727 16.2727 14.8256 16.4427C15.0604 16.9126 15.3317 17.3609 15.6385 17.7814C16.8773 17.3958 18.1373 16.8066 19.4363 15.8353C19.7477 12.5372 18.9041 9.67773 17.2064 7.14239ZM9.50824 14.0856C8.76733 14.0856 8.15972 13.394 8.15972 12.5517C8.15972 11.7094 8.75436 11.0165 9.50824 11.0165C10.2621 11.0165 10.8697 11.7081 10.8568 12.5517C10.8579 13.394 10.2621 14.0856 9.50824 14.0856ZM14.4917 14.0856C13.7508 14.0856 13.1432 13.394 13.1432 12.5517C13.1432 11.7094 13.7378 11.0165 14.4917 11.0165C15.2456 11.0165 15.8532 11.7081 15.8402 12.5517C15.8402 13.394 15.2456 14.0856 14.4917 14.0856Z" fill="#5865F2"/>
</g>
</g>
</g>
</g>
<defs>
<filter id="filter0_i_32_9790" x="1.5" y="1.5" width="21" height="25" filterUnits="userSpaceOnUse" color-interpolation-filters="sRGB">
<feFlood flood-opacity="0" result="BackgroundImageFix"/>
<feBlend mode="normal" in="SourceGraphic" in2="BackgroundImageFix" result="shape"/>
<feColorMatrix in="SourceAlpha" type="matrix" values="0 0 0 0 0 0 0 0 0 0 0 0 0 0 0 0 0 0 127 0" result="hardAlpha"/>
<feOffset dy="4"/>
<feGaussianBlur stdDeviation="2"/>
<feComposite in2="hardAlpha" operator="arithmetic" k2="-1" k3="1"/>
<feColorMatrix type="matrix" values="0 0 0 0 0 0 0 0 0 0 0 0 0 0 0 0 0 0 0.25 0"/>
<feBlend mode="normal" in2="shape" result="effect1_innerShadow_32_9790"/>
</filter>
<filter id="filter1_d_32_9790" x="0.5" y="4.16992" width="23" height="19.6115" filterUnits="userSpaceOnUse" color-interpolation-filters="sRGB">
<feFlood flood-opacity="0" result="BackgroundImageFix"/>
<feColorMatrix in="SourceAlpha" type="matrix" values="0 0 0 0 0 0 0 0 0 0 0 0 0 0 0 0 0 0 127 0" result="hardAlpha"/>
<feOffset dy="2"/>
<feGaussianBlur stdDeviation="2"/>
<feComposite in2="hardAlpha" operator="out"/>
<feColorMatrix type="matrix" values="0 0 0 0 0 0 0 0 0 0 0 0 0 0 0 0 0 0 0.25 0"/>
<feBlend mode="normal" in2="BackgroundImageFix" result="effect1_dropShadow_32_9790"/>
<feBlend mode="normal" in="SourceGraphic" in2="effect1_dropShadow_32_9790" result="shape"/>
</filter>
<linearGradient id="paint0_linear_32_9790" x1="12" y1="0" x2="12" y2="24" gradientUnits="userSpaceOnUse">
<stop stop-color="#5865F2"/>
<stop offset="1" stop-color="#424BAE"/>
</linearGradient>
<clipPath id="clip0_32_9790">
<rect width="24" height="24" fill="white"/>
</clipPath>
</defs>
</svg>
