<svg width="24" height="24" viewBox="0 0 24 24" fill="none" xmlns="http://www.w3.org/2000/svg">
<g clip-path="url(#clip0_32_9818)">
<path d="M18 0H6C2.68629 0 0 2.68629 0 6V18C0 21.3137 2.68629 24 6 24H18C21.3137 24 24 21.3137 24 18V6C24 2.68629 21.3137 0 18 0Z" fill="url(#paint0_linear_32_9818)"/>
<path d="M18 0H6C2.68629 0 0 2.68629 0 6V18C0 21.3137 2.68629 24 6 24H18C21.3137 24 24 21.3137 24 18V6C24 2.68629 21.3137 0 18 0Z" fill="url(#paint1_linear_32_9818)"/>
<g filter="url(#filter0_i_32_9818)">
<path d="M18 1.5H6C3.51472 1.5 1.5 3.51472 1.5 6V18C1.5 20.4853 3.51472 22.5 6 22.5H18C20.4853 22.5 22.5 20.4853 22.5 18V6C22.5 3.51472 20.4853 1.5 18 1.5Z" fill="black" fill-opacity="0.7"/>
<mask id="mask0_32_9818" style="mask-type:luminance" maskUnits="userSpaceOnUse" x="3" y="3" width="18" height="18">
<path d="M21 3H3V21H21V3Z" fill="white"/>
</mask>
<g mask="url(#mask0_32_9818)">
<g filter="url(#filter1_d_32_9818)">
<path d="M5.6469 19.0869L3.77148 12.6223L15.4218 15.8348L14.1789 20.2286L5.6469 19.0869Z" fill="url(#paint2_linear_32_9818)"/>
</g>
<g filter="url(#filter2_d_32_9818)">
<path d="M9.29187 3.79199L13.6736 5.04684L18.6244 3.77142L19.6051 10.56L8.46387 6.85713L9.29187 3.79199Z" fill="url(#paint3_linear_32_9818)"/>
</g>
<g filter="url(#filter3_d_32_9818)">
<path d="M20.2287 14.6126L19.6047 10.56L9.52462 7.21027L3.79205 8.43942L3.77148 12.6223L15.4218 15.8349L20.2287 14.6126Z" fill="url(#paint4_linear_32_9818)"/>
</g>
<g filter="url(#filter4_d_32_9818)">
<path d="M6.85742 6.85712H17.1431V17.1428H6.85742V6.85712Z" fill="black"/>
</g>
<path d="M8.13965 15.1989H11.9968V15.8417H8.13965V15.1989Z" fill="white"/>
<path d="M8.14258 8.12915H9.65115C10.8666 8.12915 11.7083 8.96399 11.7083 10.0526V10.0646C11.7083 11.1532 10.8683 11.9983 9.65115 11.9983H8.14258V8.12915ZM8.99972 8.89715V11.2286H9.65801C9.81258 11.2377 9.96737 11.2141 10.1122 11.1594C10.2571 11.1047 10.3888 11.0201 10.4988 10.9111C10.6088 10.8021 10.6945 10.6711 10.7505 10.5267C10.8065 10.3824 10.8315 10.2278 10.8237 10.0732V10.0629C10.8316 9.90763 10.8068 9.75247 10.751 9.60738C10.6952 9.46231 10.6097 9.33052 10.4999 9.22053C10.39 9.11054 10.2584 9.02478 10.1134 8.96879C9.96838 8.91281 9.81326 8.88781 9.65801 8.89543L8.99972 8.89715Z" fill="white"/>
<path d="M12.002 8.13086H12.9191L13.9374 9.76802L14.954 8.13258H15.8711V12.0017H15.0242L15.026 9.47486L13.9374 11.1274H13.9134L12.8368 9.49202V12H12.002V8.13086Z" fill="white"/>
</g>
</g>
</g>
<defs>
<filter id="filter0_i_32_9818" x="1.5" y="1.5" width="21" height="25" filterUnits="userSpaceOnUse" color-interpolation-filters="sRGB">
<feFlood flood-opacity="0" result="BackgroundImageFix"/>
<feBlend mode="normal" in="SourceGraphic" in2="BackgroundImageFix" result="shape"/>
<feColorMatrix in="SourceAlpha" type="matrix" values="0 0 0 0 0 0 0 0 0 0 0 0 0 0 0 0 0 0 127 0" result="hardAlpha"/>
<feOffset dy="4"/>
<feGaussianBlur stdDeviation="2"/>
<feComposite in2="hardAlpha" operator="arithmetic" k2="-1" k3="1"/>
<feColorMatrix type="matrix" values="0 0 0 0 0 0 0 0 0 0 0 0 0 0 0 0 0 0 0.25 0"/>
<feBlend mode="normal" in2="shape" result="effect1_innerShadow_32_9818"/>
</filter>
<filter id="filter1_d_32_9818" x="-0.228516" y="10.6223" width="19.6504" height="15.6063" filterUnits="userSpaceOnUse" color-interpolation-filters="sRGB">
<feFlood flood-opacity="0" result="BackgroundImageFix"/>
<feColorMatrix in="SourceAlpha" type="matrix" values="0 0 0 0 0 0 0 0 0 0 0 0 0 0 0 0 0 0 127 0" result="hardAlpha"/>
<feOffset dy="2"/>
<feGaussianBlur stdDeviation="2"/>
<feComposite in2="hardAlpha" operator="out"/>
<feColorMatrix type="matrix" values="0 0 0 0 0 0 0 0 0 0 0 0 0 0 0 0 0 0 0.25 0"/>
<feBlend mode="normal" in2="BackgroundImageFix" result="effect1_dropShadow_32_9818"/>
<feBlend mode="normal" in="SourceGraphic" in2="effect1_dropShadow_32_9818" result="shape"/>
</filter>
<filter id="filter2_d_32_9818" x="4.46387" y="1.77142" width="19.1416" height="14.7886" filterUnits="userSpaceOnUse" color-interpolation-filters="sRGB">
<feFlood flood-opacity="0" result="BackgroundImageFix"/>
<feColorMatrix in="SourceAlpha" type="matrix" values="0 0 0 0 0 0 0 0 0 0 0 0 0 0 0 0 0 0 127 0" result="hardAlpha"/>
<feOffset dy="2"/>
<feGaussianBlur stdDeviation="2"/>
<feComposite in2="hardAlpha" operator="out"/>
<feColorMatrix type="matrix" values="0 0 0 0 0 0 0 0 0 0 0 0 0 0 0 0 0 0 0.25 0"/>
<feBlend mode="normal" in2="BackgroundImageFix" result="effect1_dropShadow_32_9818"/>
<feBlend mode="normal" in="SourceGraphic" in2="effect1_dropShadow_32_9818" result="shape"/>
</filter>
<filter id="filter3_d_32_9818" x="-0.228516" y="5.21027" width="24.457" height="16.6246" filterUnits="userSpaceOnUse" color-interpolation-filters="sRGB">
<feFlood flood-opacity="0" result="BackgroundImageFix"/>
<feColorMatrix in="SourceAlpha" type="matrix" values="0 0 0 0 0 0 0 0 0 0 0 0 0 0 0 0 0 0 127 0" result="hardAlpha"/>
<feOffset dy="2"/>
<feGaussianBlur stdDeviation="2"/>
<feComposite in2="hardAlpha" operator="out"/>
<feColorMatrix type="matrix" values="0 0 0 0 0 0 0 0 0 0 0 0 0 0 0 0 0 0 0.25 0"/>
<feBlend mode="normal" in2="BackgroundImageFix" result="effect1_dropShadow_32_9818"/>
<feBlend mode="normal" in="SourceGraphic" in2="effect1_dropShadow_32_9818" result="shape"/>
</filter>
<filter id="filter4_d_32_9818" x="2.85742" y="4.85712" width="18.2861" height="18.2857" filterUnits="userSpaceOnUse" color-interpolation-filters="sRGB">
<feFlood flood-opacity="0" result="BackgroundImageFix"/>
<feColorMatrix in="SourceAlpha" type="matrix" values="0 0 0 0 0 0 0 0 0 0 0 0 0 0 0 0 0 0 127 0" result="hardAlpha"/>
<feOffset dy="2"/>
<feGaussianBlur stdDeviation="2"/>
<feComposite in2="hardAlpha" operator="out"/>
<feColorMatrix type="matrix" values="0 0 0 0 0 0 0 0 0 0 0 0 0 0 0 0 0 0 0.25 0"/>
<feBlend mode="normal" in2="BackgroundImageFix" result="effect1_dropShadow_32_9818"/>
<feBlend mode="normal" in="SourceGraphic" in2="effect1_dropShadow_32_9818" result="shape"/>
</filter>
<linearGradient id="paint0_linear_32_9818" x1="12" y1="0" x2="12" y2="24" gradientUnits="userSpaceOnUse">
<stop stop-color="#3BEA62"/>
<stop offset="0.510417" stop-color="#087DF7"/>
<stop offset="1" stop-color="#6B57FF"/>
</linearGradient>
<linearGradient id="paint1_linear_32_9818" x1="16.1046" y1="29.7272" x2="2.418" y2="5.82966" gradientUnits="userSpaceOnUse">
<stop stop-color="#6B57FF"/>
<stop offset="0.14" stop-color="#8953FB"/>
<stop offset="0.44" stop-color="#D64AF2"/>
<stop offset="0.59" stop-color="#FF45ED"/>
<stop offset="0.97" stop-color="#FDB60D"/>
</linearGradient>
<linearGradient id="paint2_linear_32_9818" x1="8.18062" y1="8.30568" x2="10.9955" y2="20.0829" gradientUnits="userSpaceOnUse">
<stop stop-color="#6B57FF"/>
<stop offset="0.13" stop-color="#9A51F9"/>
<stop offset="0.27" stop-color="#C64CF4"/>
<stop offset="0.39" stop-color="#E548F0"/>
<stop offset="0.5" stop-color="#F846EE"/>
<stop offset="0.57" stop-color="#FF45ED"/>
<stop offset="0.63" stop-color="#FF57C9"/>
<stop offset="0.81" stop-color="#FE8A65"/>
<stop offset="0.94" stop-color="#FDAA26"/>
<stop offset="1" stop-color="#FDB60D"/>
</linearGradient>
<linearGradient id="paint3_linear_32_9818" x1="15.9399" y1="12.18" x2="13.1473" y2="4.1777" gradientUnits="userSpaceOnUse">
<stop stop-color="#6B57FF"/>
<stop offset="0.14" stop-color="#8953FB"/>
<stop offset="0.44" stop-color="#D64AF2"/>
<stop offset="0.59" stop-color="#FF45ED"/>
<stop offset="0.97" stop-color="#FDB60D"/>
</linearGradient>
<linearGradient id="paint4_linear_32_9818" x1="9.9669" y1="16.3731" x2="12.2846" y2="10.8771" gradientUnits="userSpaceOnUse">
<stop offset="0.12" stop-color="#FF45ED"/>
<stop offset="0.2" stop-color="#DF49F1"/>
<stop offset="0.3" stop-color="#BC4DF5"/>
<stop offset="0.42" stop-color="#9E51F9"/>
<stop offset="0.53" stop-color="#8854FC"/>
<stop offset="0.66" stop-color="#7855FD"/>
<stop offset="0.81" stop-color="#6E57FF"/>
<stop offset="1" stop-color="#6B57FF"/>
</linearGradient>
<clipPath id="clip0_32_9818">
<rect width="24" height="24" fill="white"/>
</clipPath>
</defs>
</svg>
