<svg width="24" height="24" viewBox="0 0 24 24" fill="none" xmlns="http://www.w3.org/2000/svg">
<g clip-path="url(#clip0_32_9838)">
<path d="M18 0H6C2.68629 0 0 2.68629 0 6V18C0 21.3137 2.68629 24 6 24H18C21.3137 24 24 21.3137 24 18V6C24 2.68629 21.3137 0 18 0Z" fill="url(#paint0_linear_32_9838)"/>
<path d="M18 0H6C2.68629 0 0 2.68629 0 6V18C0 21.3137 2.68629 24 6 24H18C21.3137 24 24 21.3137 24 18V6C24 2.68629 21.3137 0 18 0Z" fill="url(#paint1_linear_32_9838)"/>
<g filter="url(#filter0_i_32_9838)">
<path d="M18 1.5H6C3.51472 1.5 1.5 3.51472 1.5 6V18C1.5 20.4853 3.51472 22.5 6 22.5H18C20.4853 22.5 22.5 20.4853 22.5 18V6C22.5 3.51472 20.4853 1.5 18 1.5Z" fill="black" fill-opacity="0.7"/>
<mask id="mask0_32_9838" style="mask-type:luminance" maskUnits="userSpaceOnUse" x="3" y="3" width="18" height="18">
<path d="M21 3H3V21H21V3Z" fill="white"/>
</mask>
<g mask="url(#mask0_32_9838)">
<g filter="url(#filter1_d_32_9838)">
<path d="M14.9846 15.5863L3.77148 13.344L7.08348 20.208L15.3549 18.7663L14.9846 15.5863Z" fill="url(#paint2_linear_32_9838)"/>
</g>
<g filter="url(#filter2_d_32_9838)">
<path d="M20.2287 11.1154L15.6858 6.43201L3.77148 8.94344V13.344L18.4903 16.2857L20.2287 11.1154Z" fill="url(#paint3_linear_32_9838)"/>
</g>
<path d="M20.2289 11.1154L13.0854 3.75085L7.48828 5.44456L9.32085 11.0194L18.4906 16.2857L20.2289 11.1154Z" fill="url(#paint4_linear_32_9838)"/>
<g filter="url(#filter3_d_32_9838)">
<path d="M18.9449 8.35199L18.2969 3.75085H15.842H13.0854L7.48828 5.44456L9.32085 11.0194L18.9449 8.35199Z" fill="url(#paint5_linear_32_9838)"/>
</g>
<g filter="url(#filter4_d_32_9838)">
<path d="M6.85742 6.85712H17.1431V17.1428H6.85742V6.85712Z" fill="black"/>
</g>
<path d="M8.13965 15.1989H11.9968V15.8417H8.13965V15.1989Z" fill="white"/>
<path d="M8.14258 8.12915H9.65115C10.8666 8.12915 11.7083 8.96399 11.7083 10.0526V10.0646C11.7083 11.1532 10.8683 11.9983 9.65115 11.9983H8.14258V8.12915ZM8.99972 8.89715V11.2286H9.65801C9.81258 11.2377 9.96737 11.2141 10.1122 11.1594C10.2571 11.1047 10.3888 11.0201 10.4988 10.9111C10.6088 10.8021 10.6945 10.6711 10.7505 10.5267C10.8065 10.3824 10.8315 10.2278 10.8237 10.0732V10.0629C10.8316 9.90763 10.8068 9.75247 10.751 9.60738C10.6952 9.46231 10.6097 9.33052 10.4999 9.22053C10.39 9.11054 10.2584 9.02478 10.1134 8.96879C9.96838 8.91281 9.81326 8.88781 9.65801 8.89543L8.99972 8.89715Z" fill="white"/>
<path d="M12.3296 8.12915H13.9153C14.841 8.12915 15.3999 8.67772 15.3999 9.47143V9.48172C15.3999 10.38 14.7022 10.8532 13.8313 10.8532H13.1833V12.0172H12.3262L12.3296 8.12915ZM13.8587 10.0869C14.2856 10.0869 14.5445 9.83143 14.5445 9.49886V9.48686C14.5445 9.10458 14.2787 8.90058 13.8587 8.90058H13.1833V10.0869H13.8587Z" fill="white"/>
</g>
</g>
</g>
<defs>
<filter id="filter0_i_32_9838" x="1.5" y="1.5" width="21" height="25" filterUnits="userSpaceOnUse" color-interpolation-filters="sRGB">
<feFlood flood-opacity="0" result="BackgroundImageFix"/>
<feBlend mode="normal" in="SourceGraphic" in2="BackgroundImageFix" result="shape"/>
<feColorMatrix in="SourceAlpha" type="matrix" values="0 0 0 0 0 0 0 0 0 0 0 0 0 0 0 0 0 0 127 0" result="hardAlpha"/>
<feOffset dy="4"/>
<feGaussianBlur stdDeviation="2"/>
<feComposite in2="hardAlpha" operator="arithmetic" k2="-1" k3="1"/>
<feColorMatrix type="matrix" values="0 0 0 0 0 0 0 0 0 0 0 0 0 0 0 0 0 0 0.25 0"/>
<feBlend mode="normal" in2="shape" result="effect1_innerShadow_32_9838"/>
</filter>
<filter id="filter1_d_32_9838" x="-0.228516" y="11.344" width="19.583" height="14.864" filterUnits="userSpaceOnUse" color-interpolation-filters="sRGB">
<feFlood flood-opacity="0" result="BackgroundImageFix"/>
<feColorMatrix in="SourceAlpha" type="matrix" values="0 0 0 0 0 0 0 0 0 0 0 0 0 0 0 0 0 0 127 0" result="hardAlpha"/>
<feOffset dy="2"/>
<feGaussianBlur stdDeviation="2"/>
<feComposite in2="hardAlpha" operator="out"/>
<feColorMatrix type="matrix" values="0 0 0 0 0 0 0 0 0 0 0 0 0 0 0 0 0 0 0.25 0"/>
<feBlend mode="normal" in2="BackgroundImageFix" result="effect1_dropShadow_32_9838"/>
<feBlend mode="normal" in="SourceGraphic" in2="effect1_dropShadow_32_9838" result="shape"/>
</filter>
<filter id="filter2_d_32_9838" x="-0.228516" y="4.43201" width="24.457" height="17.8537" filterUnits="userSpaceOnUse" color-interpolation-filters="sRGB">
<feFlood flood-opacity="0" result="BackgroundImageFix"/>
<feColorMatrix in="SourceAlpha" type="matrix" values="0 0 0 0 0 0 0 0 0 0 0 0 0 0 0 0 0 0 127 0" result="hardAlpha"/>
<feOffset dy="2"/>
<feGaussianBlur stdDeviation="2"/>
<feComposite in2="hardAlpha" operator="out"/>
<feColorMatrix type="matrix" values="0 0 0 0 0 0 0 0 0 0 0 0 0 0 0 0 0 0 0.25 0"/>
<feBlend mode="normal" in2="BackgroundImageFix" result="effect1_dropShadow_32_9838"/>
<feBlend mode="normal" in="SourceGraphic" in2="effect1_dropShadow_32_9838" result="shape"/>
</filter>
<filter id="filter3_d_32_9838" x="3.48828" y="1.75085" width="19.457" height="15.2686" filterUnits="userSpaceOnUse" color-interpolation-filters="sRGB">
<feFlood flood-opacity="0" result="BackgroundImageFix"/>
<feColorMatrix in="SourceAlpha" type="matrix" values="0 0 0 0 0 0 0 0 0 0 0 0 0 0 0 0 0 0 127 0" result="hardAlpha"/>
<feOffset dy="2"/>
<feGaussianBlur stdDeviation="2"/>
<feComposite in2="hardAlpha" operator="out"/>
<feColorMatrix type="matrix" values="0 0 0 0 0 0 0 0 0 0 0 0 0 0 0 0 0 0 0.25 0"/>
<feBlend mode="normal" in2="BackgroundImageFix" result="effect1_dropShadow_32_9838"/>
<feBlend mode="normal" in="SourceGraphic" in2="effect1_dropShadow_32_9838" result="shape"/>
</filter>
<filter id="filter4_d_32_9838" x="2.85742" y="4.85712" width="18.2861" height="18.2857" filterUnits="userSpaceOnUse" color-interpolation-filters="sRGB">
<feFlood flood-opacity="0" result="BackgroundImageFix"/>
<feColorMatrix in="SourceAlpha" type="matrix" values="0 0 0 0 0 0 0 0 0 0 0 0 0 0 0 0 0 0 127 0" result="hardAlpha"/>
<feOffset dy="2"/>
<feGaussianBlur stdDeviation="2"/>
<feComposite in2="hardAlpha" operator="out"/>
<feColorMatrix type="matrix" values="0 0 0 0 0 0 0 0 0 0 0 0 0 0 0 0 0 0 0.25 0"/>
<feBlend mode="normal" in2="BackgroundImageFix" result="effect1_dropShadow_32_9838"/>
<feBlend mode="normal" in="SourceGraphic" in2="effect1_dropShadow_32_9838" result="shape"/>
</filter>
<linearGradient id="paint0_linear_32_9838" x1="12" y1="0" x2="12" y2="24" gradientUnits="userSpaceOnUse">
<stop stop-color="#3BEA62"/>
<stop offset="0.510417" stop-color="#087DF7"/>
<stop offset="1" stop-color="#6B57FF"/>
</linearGradient>
<linearGradient id="paint1_linear_32_9838" x1="3.4311" y1="-4.09391" x2="27.9109" y2="10.7142" gradientUnits="userSpaceOnUse">
<stop offset="0.1" stop-color="#FF45ED"/>
<stop offset="0.11" stop-color="#F846EE"/>
<stop offset="0.28" stop-color="#AC4FF7"/>
<stop offset="0.41" stop-color="#7D55FD"/>
<stop offset="0.47" stop-color="#6B57FF"/>
<stop offset="0.48" stop-color="#655DFE"/>
<stop offset="0.57" stop-color="#4482FA"/>
<stop offset="0.66" stop-color="#299EF6"/>
<stop offset="0.76" stop-color="#16B3F4"/>
<stop offset="0.85" stop-color="#0BBFF2"/>
<stop offset="0.94" stop-color="#07C3F2"/>
</linearGradient>
<linearGradient id="paint2_linear_32_9838" x1="5.42748" y1="12.1731" x2="13.3303" y2="20.2406" gradientUnits="userSpaceOnUse">
<stop offset="0.1" stop-color="#FF45ED"/>
<stop offset="0.11" stop-color="#F846EE"/>
<stop offset="0.28" stop-color="#AC4FF7"/>
<stop offset="0.41" stop-color="#7D55FD"/>
<stop offset="0.47" stop-color="#6B57FF"/>
<stop offset="0.48" stop-color="#655DFE"/>
<stop offset="0.57" stop-color="#4482FA"/>
<stop offset="0.66" stop-color="#299EF6"/>
<stop offset="0.76" stop-color="#16B3F4"/>
<stop offset="0.85" stop-color="#0BBFF2"/>
<stop offset="0.94" stop-color="#07C3F2"/>
</linearGradient>
<linearGradient id="paint3_linear_32_9838" x1="6.02062" y1="16.8754" x2="11.7909" y2="12.0669" gradientUnits="userSpaceOnUse">
<stop offset="0.04" stop-color="#FF45ED"/>
<stop offset="0.05" stop-color="#FE45ED"/>
<stop offset="0.2" stop-color="#D14BF3"/>
<stop offset="0.36" stop-color="#AC4FF7"/>
<stop offset="0.51" stop-color="#9053FB"/>
<stop offset="0.67" stop-color="#7B55FD"/>
<stop offset="0.82" stop-color="#6F57FF"/>
<stop offset="0.97" stop-color="#6B57FF"/>
</linearGradient>
<linearGradient id="paint4_linear_32_9838" x1="13.142" y1="7.7297" x2="17.0214" y2="15.6583" gradientUnits="userSpaceOnUse">
<stop offset="0.2" stop-color="#FF45ED"/>
<stop offset="0.29" stop-color="#F646EE"/>
<stop offset="0.43" stop-color="#DD49F1"/>
<stop offset="0.61" stop-color="#B64EF6"/>
<stop offset="0.82" stop-color="#7F55FD"/>
<stop offset="0.89" stop-color="#6B57FF"/>
</linearGradient>
<linearGradient id="paint5_linear_32_9838" x1="8.44485" y1="8.0537" x2="18.1906" y2="5.69142" gradientUnits="userSpaceOnUse">
<stop offset="0.1" stop-color="#FF45ED"/>
<stop offset="0.17" stop-color="#F64AED"/>
<stop offset="0.29" stop-color="#DD56EE"/>
<stop offset="0.44" stop-color="#B56AEE"/>
<stop offset="0.62" stop-color="#7E87F0"/>
<stop offset="0.81" stop-color="#38AAF1"/>
<stop offset="0.94" stop-color="#07C3F2"/>
</linearGradient>
<clipPath id="clip0_32_9838">
<rect width="24" height="24" fill="white"/>
</clipPath>
</defs>
</svg>
