<svg width="24" height="24" viewBox="0 0 24 24" fill="none" xmlns="http://www.w3.org/2000/svg">
<g clip-path="url(#clip0_32_9859)">
<path d="M18 0H6C2.68629 0 0 2.68629 0 6V18C0 21.3137 2.68629 24 6 24H18C21.3137 24 24 21.3137 24 18V6C24 2.68629 21.3137 0 18 0Z" fill="url(#paint0_linear_32_9859)"/>
<path d="M18 0H6C2.68629 0 0 2.68629 0 6V18C0 21.3137 2.68629 24 6 24H18C21.3137 24 24 21.3137 24 18V6C24 2.68629 21.3137 0 18 0Z" fill="url(#paint1_linear_32_9859)"/>
<g filter="url(#filter0_i_32_9859)">
<path d="M18 1.5H6C3.51472 1.5 1.5 3.51472 1.5 6V18C1.5 20.4853 3.51472 22.5 6 22.5H18C20.4853 22.5 22.5 20.4853 22.5 18V6C22.5 3.51472 20.4853 1.5 18 1.5Z" fill="black" fill-opacity="0.7"/>
<mask id="mask0_32_9859" style="mask-type:luminance" maskUnits="userSpaceOnUse" x="3" y="3" width="18" height="18">
<path d="M21 3H3V21H21V3Z" fill="white"/>
</mask>
<g mask="url(#mask0_32_9859)">
<g filter="url(#filter1_d_32_9859)">
<path d="M19.5961 7.53942L14.0572 3.77142L3.77148 11.076L6.37719 20.2286L17.6195 17.9486L19.5961 7.53942Z" fill="url(#paint2_linear_32_9859)"/>
</g>
<g filter="url(#filter2_d_32_9859)">
<path d="M19.5961 7.53942L14.0572 3.77142L12.6943 7.46742V15.0017H20.2285L19.5961 7.53942Z" fill="url(#paint3_linear_32_9859)"/>
</g>
<g filter="url(#filter3_d_32_9859)">
<path d="M6.85742 6.85712H17.1431V17.1428H6.85742V6.85712Z" fill="black"/>
</g>
<path d="M8.13965 15.1989H11.9968V15.8417H8.13965V15.1989Z" fill="white"/>
<path d="M8.14258 8.12909H9.65115C10.8666 8.12909 11.7083 8.96395 11.7083 10.0525V10.0645C11.7083 11.1531 10.8683 11.9982 9.65115 11.9982H8.14258V8.12909ZM8.99973 8.89709V11.2285H9.65801C9.8126 11.2376 9.96737 11.2141 10.1122 11.1594C10.2571 11.1047 10.3888 11.02 10.4988 10.911C10.6088 10.802 10.6945 10.6711 10.7505 10.5267C10.8065 10.3823 10.8315 10.2278 10.8237 10.0731V10.0628C10.8316 9.90758 10.8068 9.75243 10.751 9.60734C10.6952 9.46225 10.6097 9.33048 10.4999 9.22049C10.39 9.1105 10.2584 9.02474 10.1134 8.96875C9.96838 8.91275 9.81326 8.88775 9.65801 8.89538L8.99973 8.89709Z" fill="white"/>
<path d="M13.3008 8.9091H12.123V8.12396H15.3305V8.91083L14.1528 8.9091V11.9965H13.3008V8.9091Z" fill="white"/>
</g>
</g>
</g>
<defs>
<filter id="filter0_i_32_9859" x="1.5" y="1.5" width="21" height="25" filterUnits="userSpaceOnUse" color-interpolation-filters="sRGB">
<feFlood flood-opacity="0" result="BackgroundImageFix"/>
<feBlend mode="normal" in="SourceGraphic" in2="BackgroundImageFix" result="shape"/>
<feColorMatrix in="SourceAlpha" type="matrix" values="0 0 0 0 0 0 0 0 0 0 0 0 0 0 0 0 0 0 127 0" result="hardAlpha"/>
<feOffset dy="4"/>
<feGaussianBlur stdDeviation="2"/>
<feComposite in2="hardAlpha" operator="arithmetic" k2="-1" k3="1"/>
<feColorMatrix type="matrix" values="0 0 0 0 0 0 0 0 0 0 0 0 0 0 0 0 0 0 0.25 0"/>
<feBlend mode="normal" in2="shape" result="effect1_innerShadow_32_9859"/>
</filter>
<filter id="filter1_d_32_9859" x="-0.228516" y="1.77142" width="23.8242" height="24.4572" filterUnits="userSpaceOnUse" color-interpolation-filters="sRGB">
<feFlood flood-opacity="0" result="BackgroundImageFix"/>
<feColorMatrix in="SourceAlpha" type="matrix" values="0 0 0 0 0 0 0 0 0 0 0 0 0 0 0 0 0 0 127 0" result="hardAlpha"/>
<feOffset dy="2"/>
<feGaussianBlur stdDeviation="2"/>
<feComposite in2="hardAlpha" operator="out"/>
<feColorMatrix type="matrix" values="0 0 0 0 0 0 0 0 0 0 0 0 0 0 0 0 0 0 0.25 0"/>
<feBlend mode="normal" in2="BackgroundImageFix" result="effect1_dropShadow_32_9859"/>
<feBlend mode="normal" in="SourceGraphic" in2="effect1_dropShadow_32_9859" result="shape"/>
</filter>
<filter id="filter2_d_32_9859" x="8.69434" y="1.77142" width="15.5342" height="19.2303" filterUnits="userSpaceOnUse" color-interpolation-filters="sRGB">
<feFlood flood-opacity="0" result="BackgroundImageFix"/>
<feColorMatrix in="SourceAlpha" type="matrix" values="0 0 0 0 0 0 0 0 0 0 0 0 0 0 0 0 0 0 127 0" result="hardAlpha"/>
<feOffset dy="2"/>
<feGaussianBlur stdDeviation="2"/>
<feComposite in2="hardAlpha" operator="out"/>
<feColorMatrix type="matrix" values="0 0 0 0 0 0 0 0 0 0 0 0 0 0 0 0 0 0 0.25 0"/>
<feBlend mode="normal" in2="BackgroundImageFix" result="effect1_dropShadow_32_9859"/>
<feBlend mode="normal" in="SourceGraphic" in2="effect1_dropShadow_32_9859" result="shape"/>
</filter>
<filter id="filter3_d_32_9859" x="2.85742" y="4.85712" width="18.2861" height="18.2857" filterUnits="userSpaceOnUse" color-interpolation-filters="sRGB">
<feFlood flood-opacity="0" result="BackgroundImageFix"/>
<feColorMatrix in="SourceAlpha" type="matrix" values="0 0 0 0 0 0 0 0 0 0 0 0 0 0 0 0 0 0 127 0" result="hardAlpha"/>
<feOffset dy="2"/>
<feGaussianBlur stdDeviation="2"/>
<feComposite in2="hardAlpha" operator="out"/>
<feColorMatrix type="matrix" values="0 0 0 0 0 0 0 0 0 0 0 0 0 0 0 0 0 0 0.25 0"/>
<feBlend mode="normal" in2="BackgroundImageFix" result="effect1_dropShadow_32_9859"/>
<feBlend mode="normal" in="SourceGraphic" in2="effect1_dropShadow_32_9859" result="shape"/>
</filter>
<linearGradient id="paint0_linear_32_9859" x1="12" y1="0" x2="12" y2="24" gradientUnits="userSpaceOnUse">
<stop stop-color="#3BEA62"/>
<stop offset="0.510417" stop-color="#087DF7"/>
<stop offset="1" stop-color="#6B57FF"/>
</linearGradient>
<linearGradient id="paint1_linear_32_9859" x1="-0.475789" y1="14.995" x2="23.7804" y2="8.48747" gradientUnits="userSpaceOnUse">
<stop offset="0.12" stop-color="#6B57FF"/>
<stop offset="0.54" stop-color="#FF45ED"/>
<stop offset="0.85" stop-color="#DD1265"/>
</linearGradient>
<linearGradient id="paint2_linear_32_9859" x1="3.45776" y1="14.0537" x2="19.5327" y2="9.90684" gradientUnits="userSpaceOnUse">
<stop offset="0.12" stop-color="#6B57FF"/>
<stop offset="0.54" stop-color="#FF45ED"/>
<stop offset="0.85" stop-color="#DD1265"/>
</linearGradient>
<linearGradient id="paint3_linear_32_9859" x1="14.5663" y1="12.9188" x2="19.6784" y2="5.91084" gradientUnits="userSpaceOnUse">
<stop offset="0.19" stop-color="#DD1265"/>
<stop offset="0.29" stop-color="#DE146A"/>
<stop offset="0.41" stop-color="#E21977"/>
<stop offset="0.53" stop-color="#E7218E"/>
<stop offset="0.66" stop-color="#EF2DAD"/>
<stop offset="0.79" stop-color="#F93CD5"/>
<stop offset="0.85" stop-color="#FF45ED"/>
</linearGradient>
<clipPath id="clip0_32_9859">
<rect width="24" height="24" fill="white"/>
</clipPath>
</defs>
</svg>
