<svg width="24" height="24" viewBox="0 0 24 24" fill="none" xmlns="http://www.w3.org/2000/svg">
<g clip-path="url(#clip0_32_9897)">
<path d="M18 0H6C2.68629 0 0 2.68629 0 6V18C0 21.3137 2.68629 24 6 24H18C21.3137 24 24 21.3137 24 18V6C24 2.68629 21.3137 0 18 0Z" fill="url(#paint0_linear_32_9897)"/>
<g filter="url(#filter0_i_32_9897)">
<path d="M18 1.5H6C3.51472 1.5 1.5 3.51472 1.5 6V18C1.5 20.4853 3.51472 22.5 6 22.5H18C20.4853 22.5 22.5 20.4853 22.5 18V6C22.5 3.51472 20.4853 1.5 18 1.5Z" fill="black" fill-opacity="0.7"/>
<g filter="url(#filter1_d_32_9897)">
<path d="M5.62498 6C4.95023 6 4.5 6.45092 4.5 7.12498V16.8749C4.5 17.5489 4.95315 17.9998 5.62498 17.9998H18.3748C18.783 17.9998 19.4998 17.5499 19.4998 16.8749V7.12498C19.4998 6.44991 19.0481 6 18.3748 6H5.62498ZM8.62494 10.4999C9.24628 10.4999 9.74992 11.0036 9.74992 11.6249C9.74992 12.2463 9.24628 12.7499 8.62494 12.7499C8.00362 12.7499 7.49996 12.2463 7.49996 11.6249C7.49996 11.0036 8.00362 10.4999 8.62494 10.4999ZM15.3749 10.4999C15.9962 10.4999 16.4998 11.0036 16.4998 11.6249C16.4998 12.2463 15.9962 12.7499 15.3749 12.7499C14.7535 12.7499 14.2499 12.2463 14.2499 11.6249C14.2499 11.0036 14.7535 10.4999 15.3749 10.4999Z" fill="#141414"/>
<path d="M5.62402 7.88373L5.62404 14.2587C5.62404 14.6335 5.99908 15.0087 6.37402 15.0087H17.624C17.9992 15.0087 18.374 14.6354 18.374 14.2587V7.88373C18.374 7.50922 18.0007 7.13373 17.624 7.13373H6.37402C5.99855 7.13373 5.62402 7.50728 5.62402 7.88373ZM8.62408 10.5087C9.2454 10.5087 9.74908 11.0124 9.74908 11.6337C9.74908 12.2551 9.2454 12.7588 8.62408 12.7588C8.00274 12.7588 7.49908 12.2551 7.49908 11.6337C7.49908 11.0124 8.00274 10.5087 8.62408 10.5087ZM15.3741 10.5087C15.9954 10.5087 16.4991 11.0124 16.4991 11.6337C16.4991 12.2551 15.9954 12.7588 15.3741 12.7588C14.7527 12.7588 14.2491 12.2551 14.2491 11.6337C14.2491 11.0124 14.7527 10.5087 15.3741 10.5087Z" fill="#58BEB1"/>
<path d="M5.625 18.0095L7.12496 15.3845H16.875L18.375 18.0095H5.625Z" fill="#3F3F3F"/>
<path d="M8.625 17.2571C9.03921 17.2571 9.375 16.9213 9.375 16.5071C9.375 16.0929 9.03921 15.7571 8.625 15.7571C8.21078 15.7571 7.875 16.0929 7.875 16.5071C7.875 16.9213 8.21078 17.2571 8.625 17.2571Z" fill="#141414"/>
<path d="M15.375 17.2571C15.7892 17.2571 16.125 16.9213 16.125 16.5071C16.125 16.0929 15.7892 15.7571 15.375 15.7571C14.9608 15.7571 14.625 16.0929 14.625 16.5071C14.625 16.9213 14.9608 17.2571 15.375 17.2571Z" fill="#141414"/>
<path d="M8.62509 10.1292C7.79955 10.1292 7.125 10.8047 7.125 11.6281C7.125 12.4535 7.79826 13.1281 8.62509 13.1281H15.3751C16.1982 13.1281 16.875 12.4542 16.875 11.6302V11.6274C16.875 10.8035 16.1983 10.1273 15.3751 10.1274L8.62509 10.1292ZM8.62509 10.5031C9.24641 10.5031 9.75009 11.0068 9.75009 11.6281C9.75009 12.2494 9.24641 12.7531 8.62509 12.7531C8.00376 12.7531 7.50008 12.2494 7.50008 11.6281C7.50008 11.0068 8.00376 10.5031 8.62509 10.5031ZM15.3751 10.5031C15.9964 10.5031 16.5001 11.0068 16.5001 11.6281C16.5001 12.2494 15.9964 12.7531 15.3751 12.7531C14.7538 12.7531 14.2501 12.2494 14.2501 11.6281C14.2501 11.0068 14.7538 10.5031 15.3751 10.5031Z" fill="#141414"/>
<path d="M13.875 10.8804H10.125V12.3803H13.875V10.8804Z" fill="#DBE2E3"/>
</g>
</g>
</g>
<defs>
<filter id="filter0_i_32_9897" x="1.5" y="1.5" width="21" height="25" filterUnits="userSpaceOnUse" color-interpolation-filters="sRGB">
<feFlood flood-opacity="0" result="BackgroundImageFix"/>
<feBlend mode="normal" in="SourceGraphic" in2="BackgroundImageFix" result="shape"/>
<feColorMatrix in="SourceAlpha" type="matrix" values="0 0 0 0 0 0 0 0 0 0 0 0 0 0 0 0 0 0 127 0" result="hardAlpha"/>
<feOffset dy="4"/>
<feGaussianBlur stdDeviation="2"/>
<feComposite in2="hardAlpha" operator="arithmetic" k2="-1" k3="1"/>
<feColorMatrix type="matrix" values="0 0 0 0 0 0 0 0 0 0 0 0 0 0 0 0 0 0 0.25 0"/>
<feBlend mode="normal" in2="shape" result="effect1_innerShadow_32_9897"/>
</filter>
<filter id="filter1_d_32_9897" x="0.5" y="4" width="23" height="20.0095" filterUnits="userSpaceOnUse" color-interpolation-filters="sRGB">
<feFlood flood-opacity="0" result="BackgroundImageFix"/>
<feColorMatrix in="SourceAlpha" type="matrix" values="0 0 0 0 0 0 0 0 0 0 0 0 0 0 0 0 0 0 127 0" result="hardAlpha"/>
<feOffset dy="2"/>
<feGaussianBlur stdDeviation="2"/>
<feComposite in2="hardAlpha" operator="out"/>
<feColorMatrix type="matrix" values="0 0 0 0 0 0 0 0 0 0 0 0 0 0 0 0 0 0 0.25 0"/>
<feBlend mode="normal" in2="BackgroundImageFix" result="effect1_dropShadow_32_9897"/>
<feBlend mode="normal" in="SourceGraphic" in2="effect1_dropShadow_32_9897" result="shape"/>
</filter>
<linearGradient id="paint0_linear_32_9897" x1="11.927" y1="24.0184" x2="11.927" y2="-0.0155444" gradientUnits="userSpaceOnUse">
<stop stop-color="#2CA0B9"/>
<stop offset="1" stop-color="#87DEAA"/>
</linearGradient>
<clipPath id="clip0_32_9897">
<rect width="24" height="24" fill="white"/>
</clipPath>
</defs>
</svg>
