<svg width="24" height="24" viewBox="0 0 24 24" fill="none" xmlns="http://www.w3.org/2000/svg">
<g clip-path="url(#clip0_32_9915)">
<path d="M18 0H6C2.68629 0 0 2.68629 0 6V18C0 21.3137 2.68629 24 6 24H18C21.3137 24 24 21.3137 24 18V6C24 2.68629 21.3137 0 18 0Z" fill="url(#paint0_linear_32_9915)"/>
<g filter="url(#filter0_i_32_9915)">
<path d="M18 1.5H6C3.51472 1.5 1.5 3.51472 1.5 6V18C1.5 20.4853 3.51472 22.5 6 22.5H18C20.4853 22.5 22.5 20.4853 22.5 18V6C22.5 3.51472 20.4853 1.5 18 1.5Z" fill="black" fill-opacity="0.7"/>
<path d="M12.0843 19.2908C16.1694 19.2908 19.4811 15.9797 19.4811 11.8954C19.4811 7.81103 16.1694 4.5 12.0843 4.5C7.99914 4.5 4.6875 7.81103 4.6875 11.8954C4.6875 15.9797 7.99914 19.2908 12.0843 19.2908Z" fill="url(#paint1_linear_32_9915)"/>
<path opacity="0.4" d="M17.7148 10.2026L11.2449 7.39539L7.99813 7.57689L9.76491 9.36189L6.63281 13.5544L7.21631 14.1454L7.91488 15.2704L7.7421 17.8733C7.83874 17.944 7.93706 18.0124 8.03698 18.0784L16.8072 17.5759L16.8087 17.5774C18.473 16.1944 19.4479 14.1521 19.4767 11.9884L17.7148 10.2026Z" fill="url(#paint2_linear_32_9915)"/>
<path fill-rule="evenodd" clip-rule="evenodd" d="M7.27191 19.1254C7.27191 19.1254 9.58333 10.8893 18.5811 11.9366C18.5811 11.9366 12.8627 8.4799 7.31151 13.14C5.67163 17.007 7.27191 19.1254 7.27191 19.1254Z" fill="url(#paint3_linear_32_9915)"/>
<path fill-rule="evenodd" clip-rule="evenodd" d="M7.95996 18.0836C7.95996 18.0836 10.3717 12.1623 16.8098 12.0585C11.9161 13.2723 16.8179 17.5762 16.8179 17.5762C16.8179 17.5762 12.9469 21.1473 7.95996 18.0836Z" fill="url(#paint4_linear_32_9915)"/>
<path fill-rule="evenodd" clip-rule="evenodd" d="M6.61719 13.5446C6.61719 13.5446 11.4346 8.1491 18.6286 11.877C18.4999 10.863 17.6489 9.71847 16.1237 9.39147C15.7863 9.22797 13.3135 5.3366 7.99841 7.57647C9.63346 7.70622 10.335 7.93947 10.3749 8.11647C7.547 7.62147 6.70893 11.7187 6.61719 13.5446Z" fill="url(#paint5_linear_32_9915)"/>
<path fill-rule="evenodd" clip-rule="evenodd" d="M13.5254 8.96736C13.5254 8.96736 14.7579 8.51811 14.9185 9.85498C13.703 9.97123 13.5254 8.96736 13.5254 8.96736Z" fill="#202020"/>
<path fill-rule="evenodd" clip-rule="evenodd" d="M7.23966 19.1516C7.23966 19.1516 9.34647 12.1534 16.3914 11.8822C16.3914 11.8822 10.6748 10.8202 6.6373 17.3325C6.6151 18.2539 7.23966 19.152 7.23966 19.152V19.1516Z" fill="#FDD664"/>
<path fill-rule="evenodd" clip-rule="evenodd" d="M8.00391 7.57724C8.00391 7.57724 9.76144 7.68149 10.3886 8.12099C10.6506 8.06587 10.8733 7.88324 10.9107 7.63462C10.6861 7.53974 8.62886 7.36949 8.00428 7.57724H8.00391Z" fill="url(#paint6_linear_32_9915)"/>
<path fill-rule="evenodd" clip-rule="evenodd" d="M8.00391 7.57724C8.00391 7.57724 9.76144 7.68149 10.3886 8.12099C10.6506 8.06587 10.8733 7.88324 10.9107 7.63462C10.6861 7.53974 8.62886 7.36949 8.00428 7.57724H8.00391Z" fill="#FDD664"/>
<path fill-rule="evenodd" clip-rule="evenodd" d="M6.63289 13.554C6.63289 13.554 8.83294 10.8634 13.2737 10.542C13.2737 10.542 7.22785 10.8202 6.72094 12.5584C6.57961 12.9765 6.63289 13.554 6.63289 13.554Z" fill="#FDD664"/>
</g>
</g>
<defs>
<filter id="filter0_i_32_9915" x="1.5" y="1.5" width="21" height="25" filterUnits="userSpaceOnUse" color-interpolation-filters="sRGB">
<feFlood flood-opacity="0" result="BackgroundImageFix"/>
<feBlend mode="normal" in="SourceGraphic" in2="BackgroundImageFix" result="shape"/>
<feColorMatrix in="SourceAlpha" type="matrix" values="0 0 0 0 0 0 0 0 0 0 0 0 0 0 0 0 0 0 127 0" result="hardAlpha"/>
<feOffset dy="4"/>
<feGaussianBlur stdDeviation="2"/>
<feComposite in2="hardAlpha" operator="arithmetic" k2="-1" k3="1"/>
<feColorMatrix type="matrix" values="0 0 0 0 0 0 0 0 0 0 0 0 0 0 0 0 0 0 0.25 0"/>
<feBlend mode="normal" in2="shape" result="effect1_innerShadow_32_9915"/>
</filter>
<linearGradient id="paint0_linear_32_9915" x1="36.0375" y1="-6.63403" x2="-5.31744" y2="23.9901" gradientUnits="userSpaceOnUse">
<stop stop-color="#D446FF"/>
<stop offset="1" stop-color="#A0D8FF"/>
</linearGradient>
<linearGradient id="paint1_linear_32_9915" x1="26.901" y1="0.411575" x2="1.41325" y2="19.2893" gradientUnits="userSpaceOnUse">
<stop stop-color="#D446FF"/>
<stop offset="1" stop-color="#A0D8FF"/>
</linearGradient>
<linearGradient id="paint2_linear_32_9915" x1="11.9849" y1="11.8954" x2="19.4842" y2="19.2949" gradientUnits="userSpaceOnUse">
<stop stop-color="#292C2F"/>
<stop offset="1" stop-opacity="0"/>
</linearGradient>
<linearGradient id="paint3_linear_32_9915" x1="11.5929" y1="12.4606" x2="16.8233" y2="8.41468" gradientUnits="userSpaceOnUse">
<stop stop-color="white"/>
<stop offset="1" stop-color="#DADADA"/>
</linearGradient>
<linearGradient id="paint4_linear_32_9915" x1="12.5907" y1="17.1852" x2="9.18572" y2="12.0473" gradientUnits="userSpaceOnUse">
<stop stop-color="white"/>
<stop offset="1" stop-color="#DADADA"/>
</linearGradient>
<linearGradient id="paint5_linear_32_9915" x1="18.4703" y1="7.74946" x2="12.8874" y2="12.1728" gradientUnits="userSpaceOnUse">
<stop stop-color="#D0D0D0"/>
<stop offset="1" stop-color="white"/>
</linearGradient>
<linearGradient id="paint6_linear_32_9915" x1="10.786" y1="7.49371" x2="9.6237" y2="9.09763" gradientUnits="userSpaceOnUse">
<stop stop-color="#FFDC68"/>
<stop offset="1" stop-color="#CE4300"/>
</linearGradient>
<clipPath id="clip0_32_9915">
<rect width="24" height="24" fill="white"/>
</clipPath>
</defs>
</svg>
