<svg width="24" height="24" viewBox="0 0 24 24" fill="none" xmlns="http://www.w3.org/2000/svg">
<g clip-path="url(#clip0_32_9929)">
<path d="M18 0H6C2.68629 0 0 2.68629 0 6V18C0 21.3137 2.68629 24 6 24H18C21.3137 24 24 21.3137 24 18V6C24 2.68629 21.3137 0 18 0Z" fill="url(#paint0_linear_32_9929)"/>
<g filter="url(#filter0_i_32_9929)">
<path d="M18 1.5H6C3.51472 1.5 1.5 3.51472 1.5 6V18C1.5 20.4853 3.51472 22.5 6 22.5H18C20.4853 22.5 22.5 20.4853 22.5 18V6C22.5 3.51472 20.4853 1.5 18 1.5Z" fill="black" fill-opacity="0.7"/>
<g filter="url(#filter1_d_32_9929)">
<path d="M18.6617 9.57691C18.3493 8.83056 17.7156 8.02472 17.2194 7.76999C17.5733 8.45037 17.8189 9.18105 17.9475 9.93608L17.9488 9.94804C17.1359 7.93669 15.758 7.12441 14.632 5.35801C14.5751 5.26868 14.5181 5.17917 14.4627 5.08467C14.431 5.03071 14.4055 4.98207 14.3835 4.93731C14.3368 4.84754 14.3008 4.75264 14.2762 4.65458C14.2763 4.65006 14.2746 4.64567 14.2716 4.64228C14.2686 4.63889 14.2644 4.63671 14.2599 4.63617C14.2555 4.63495 14.2508 4.63495 14.2464 4.63617C14.2454 4.63617 14.244 4.63782 14.2429 4.63819C14.2417 4.63857 14.2393 4.64022 14.2377 4.64095L14.2404 4.63617C12.4346 5.68606 11.8215 7.62927 11.7659 8.60179C11.0444 8.65092 10.3547 8.91479 9.78655 9.35901C9.7273 9.30917 9.66539 9.26256 9.60106 9.2194C9.43726 8.65004 9.43026 8.04749 9.58082 7.47454C8.91764 7.79354 8.32836 8.24575 7.85029 8.80257H7.84696C7.56201 8.44396 7.58206 7.26145 7.59839 7.01444C7.51409 7.04807 7.43363 7.09049 7.35835 7.14098C7.1068 7.31924 6.87166 7.51924 6.65566 7.73867C6.40952 7.98647 6.18471 8.2543 5.98358 8.53936C5.52141 9.18985 5.19357 9.92461 5.01899 10.7016L5.00933 10.7487C4.99579 10.8115 4.94701 11.1261 4.93866 11.1945C4.93866 11.1998 4.93756 11.2048 4.93699 11.2101C4.87405 11.5349 4.83507 11.8638 4.82031 12.1943V12.2311C4.82348 14.0175 5.50103 15.7378 6.71916 17.0524C7.93731 18.367 9.60754 19.1803 11.4002 19.332C13.1927 19.4835 14.9775 18.9625 16.402 17.8713C17.8265 16.7801 18.7872 15.1984 19.0947 13.4383C19.1067 13.3462 19.1165 13.255 19.1273 13.162C19.2753 11.9467 19.115 10.7139 18.6609 9.5758L18.6617 9.57691ZM10.3753 15.1653C10.4089 15.1813 10.4404 15.1986 10.475 15.2139L10.48 15.217C10.4451 15.2004 10.4102 15.1832 10.3753 15.1653ZM17.949 9.95009V9.94326L17.9503 9.95082L17.949 9.95009Z" fill="url(#paint1_linear_32_9929)"/>
</g>
<path d="M18.6612 9.57688C18.3488 8.83053 17.7151 8.0247 17.2189 7.76996C17.5728 8.45034 17.8184 9.18103 17.947 9.93605V9.94286L17.9483 9.95041C18.5025 11.5251 18.4224 13.2515 17.7246 14.7689C16.9006 16.5244 14.9068 18.3238 11.7848 18.2353C8.4124 18.1405 5.44068 15.6548 4.88603 12.4002C4.78493 11.8868 4.88603 11.6266 4.93686 11.2094C4.86753 11.5334 4.82883 11.8632 4.82129 12.1944V12.2313C4.82446 14.0176 5.50201 15.7379 6.72014 17.0525C7.93829 18.3672 9.60852 19.1805 11.4011 19.3322C13.1937 19.4837 14.9784 18.9626 16.403 17.8714C17.8275 16.7803 18.7882 15.1986 19.0956 13.4384C19.1077 13.3463 19.1175 13.2552 19.1284 13.1622C19.2763 11.9468 19.116 10.7141 18.6619 9.57596L18.6612 9.57688Z" fill="url(#paint2_radial_32_9929)"/>
<path d="M15.1661 10.415C15.1817 10.4259 15.1962 10.4367 15.2108 10.4476C15.0303 10.1296 14.8054 9.8385 14.543 9.5828C12.3077 7.36331 13.9574 4.77174 14.2355 4.63912L14.2383 4.63507C12.4324 5.68496 11.8193 7.62817 11.7637 8.6007C11.8475 8.595 11.9306 8.58798 12.0163 8.58798C12.657 8.58922 13.286 8.75889 13.8392 9.07972C14.3925 9.40055 14.8503 9.86113 15.1661 10.4146V10.415Z" fill="#FF980E"/>
<path d="M12.0202 10.8588C12.0083 11.0364 11.3765 11.6488 11.1556 11.6488C9.11134 11.6488 8.7793 12.8768 8.7793 12.8768C8.86982 13.9109 9.5955 14.763 10.4727 15.2124C10.5128 15.233 10.5534 15.2516 10.5941 15.2698C10.6644 15.3008 10.7348 15.3294 10.8052 15.3557C11.1062 15.4615 11.4215 15.5219 11.7407 15.5349C15.3245 15.7018 16.0183 11.2801 13.4322 9.99627C14.0423 9.91747 14.66 10.0664 15.1658 10.4142C14.8499 9.86071 14.3921 9.40014 13.8388 9.0793C13.2856 8.75847 12.6566 8.5888 12.0159 8.58759C11.9306 8.58759 11.8471 8.59458 11.7633 8.6003C11.0419 8.6494 10.3521 8.91327 9.78398 9.3575C9.89361 9.4496 10.0173 9.57264 10.278 9.82775C10.7658 10.305 12.017 10.7994 12.0198 10.8574L12.0202 10.8588Z" fill="#6B3DD7"/>
<path d="M9.44905 9.12195C9.50729 9.1588 9.55533 9.19084 9.59744 9.21975C9.43364 8.65041 9.42667 8.04786 9.57723 7.47491C8.91404 7.79389 8.32475 8.2461 7.84668 8.80294C7.88174 8.802 8.92464 8.7834 9.44905 9.12195Z" fill="#FF7139"/>
<path d="M18.6612 9.57688C18.3488 8.83053 17.7151 8.0247 17.2189 7.76996C17.5728 8.45034 17.8184 9.18103 17.947 9.93605V9.94286L17.9483 9.95041C18.5025 11.5251 18.4224 13.2515 17.7246 14.7688C16.9006 16.5244 14.9068 18.3237 11.7848 18.2353C8.4124 18.1405 5.44068 15.6548 4.88603 12.4002C4.78493 11.8868 4.88603 11.6266 4.93686 11.2094C4.86753 11.5334 4.82883 11.8632 4.82129 12.1944V12.2313C4.82446 14.0176 5.50201 15.7379 6.72014 17.0525C7.93829 18.3671 9.60852 19.1805 11.4011 19.3322C13.1937 19.4837 14.9784 18.9626 16.403 17.8714C17.8275 16.7803 18.7882 15.1986 19.0956 13.4384C19.1077 13.3463 19.1175 13.2552 19.1284 13.1622C19.2763 11.9468 19.116 10.714 18.6619 9.57596L18.6612 9.57688Z" fill="#FF3647"/>
<path d="M18.6612 9.57688C18.3488 8.83053 17.7151 8.0247 17.2189 7.76996C17.5728 8.45034 17.8184 9.18103 17.947 9.93605V9.94286L17.9483 9.95041C18.5025 11.5251 18.4224 13.2515 17.7246 14.7688C16.9006 16.5244 14.9068 18.3237 11.7848 18.2353C8.4124 18.1405 5.44068 15.6548 4.88603 12.4002C4.78493 11.8868 4.88603 11.6266 4.93686 11.2094C4.86753 11.5334 4.82883 11.8632 4.82129 12.1944V12.2313C4.82446 14.0176 5.50201 15.7379 6.72014 17.0525C7.93829 18.3671 9.60852 19.1805 11.4011 19.3322C13.1937 19.4837 14.9784 18.9626 16.403 17.8714C17.8275 16.7803 18.7882 15.1986 19.0956 13.4384C19.1077 13.3463 19.1175 13.2552 19.1284 13.1622C19.2763 11.9468 19.116 10.714 18.6619 9.57596L18.6612 9.57688Z" fill="black" fill-opacity="0.2"/>
<path d="M18.6612 9.57688C18.3488 8.83053 17.7151 8.0247 17.2189 7.76996C17.5728 8.45034 17.8184 9.18103 17.947 9.93605V9.94286L17.9483 9.95041C18.5025 11.5251 18.4224 13.2515 17.7246 14.7688C16.9006 16.5244 14.9068 18.3237 11.7848 18.2353C8.4124 18.1405 5.44068 15.6548 4.88603 12.4002C4.78493 11.8868 4.88603 11.6266 4.93686 11.2094C4.86753 11.5334 4.82883 11.8632 4.82129 12.1944V12.2313C4.82446 14.0176 5.50201 15.7379 6.72014 17.0525C7.93829 18.3671 9.60852 19.1805 11.4011 19.3322C13.1937 19.4837 14.9784 18.9626 16.403 17.8714C17.8275 16.7803 18.7882 15.1986 19.0956 13.4384C19.1077 13.3463 19.1175 13.2552 19.1284 13.1622C19.2763 11.9468 19.116 10.714 18.6619 9.57596L18.6612 9.57688Z" fill="#FF5634"/>
<path d="M4.88482 12.4005C5.43965 15.6552 8.41119 18.1418 11.7836 18.2357C14.9056 18.3234 16.8997 16.5238 17.7234 14.7692C18.4212 13.2519 18.5013 11.5254 17.9471 9.95078V9.94395C17.9471 9.93861 17.946 9.93548 17.9471 9.93714L17.9484 9.94911C18.2034 11.6026 17.3564 13.2038 16.0321 14.2886L16.0281 14.2979C13.4477 16.3847 10.9787 15.5566 10.4797 15.2188C10.4448 15.2022 10.41 15.185 10.3751 15.1671C8.87086 14.4531 8.24924 13.0931 8.38282 11.9253C8.02574 11.9305 7.6748 11.8328 7.37253 11.644C7.07024 11.4552 6.82959 11.1834 6.67972 10.8616C7.07461 10.6214 7.52487 10.4856 7.98761 10.4672C8.45034 10.4487 8.91011 10.5482 9.32311 10.7562C10.1744 11.1399 11.1431 11.1777 12.0222 10.8616C12.0194 10.8036 10.7682 10.309 10.2803 9.83196C10.0197 9.57686 9.89594 9.45401 9.78631 9.36173C9.72706 9.31189 9.66515 9.26529 9.60082 9.22211C9.55814 9.19318 9.51011 9.16187 9.45241 9.12429C8.92799 8.78576 7.88512 8.80436 7.8506 8.80528H7.84726C7.56234 8.44667 7.58238 7.26416 7.59869 7.01715C7.51441 7.05079 7.43394 7.0932 7.35866 7.14369C7.10712 7.32195 6.87198 7.52196 6.65598 7.74139C6.40895 7.98849 6.18322 8.2557 5.98113 8.54023C5.51894 9.19073 5.19112 9.92548 5.01652 10.7024C5.01299 10.717 4.75756 11.8258 4.88351 12.4009L4.88482 12.4005Z" fill="#FF5634"/>
<path d="M14.5432 9.58239C14.8057 9.83835 15.0305 10.1298 15.2111 10.4481C15.2506 10.4777 15.2875 10.5072 15.3188 10.5358C16.9488 12.0277 16.0948 14.1367 16.0312 14.2859C17.3553 13.2027 18.2015 11.6004 17.9474 9.94635C17.1342 7.93314 15.7548 7.12085 14.6306 5.35445C14.5737 5.26513 14.5167 5.17561 14.4613 5.08111C14.4295 5.02715 14.4041 4.97853 14.3821 4.93376C14.3354 4.84398 14.2994 4.74909 14.2748 4.65103C14.2749 4.64651 14.2732 4.64214 14.2702 4.63873C14.2672 4.63533 14.263 4.63316 14.2585 4.63261C14.2541 4.63141 14.2494 4.63141 14.245 4.63261C14.244 4.63261 14.2426 4.63426 14.2414 4.63464C14.2403 4.63501 14.2379 4.63666 14.2363 4.6374C13.9582 4.76836 12.3089 7.36158 14.5442 9.57926L14.5432 9.58239Z" fill="#FFF44F"/>
<path d="M15.3191 10.5365C15.2878 10.508 15.2509 10.4785 15.2113 10.4489C15.1967 10.438 15.1822 10.4271 15.1666 10.4163C14.6609 10.0685 14.0432 9.91952 13.4331 9.99833C16.019 11.2821 15.3253 15.7027 11.7415 15.537C11.4225 15.5239 11.1071 15.4635 10.8061 15.3577C10.7357 15.3316 10.6653 15.303 10.595 15.2719C10.5543 15.2535 10.5137 15.2351 10.4736 15.2144L10.4786 15.2176C10.9784 15.5563 13.4467 16.3839 16.027 14.2966L16.0311 14.2874C16.0954 14.1382 16.9495 12.0292 15.3187 10.5373L15.3191 10.5365Z" fill="#FF980E"/>
<path d="M8.77929 12.8757C8.77929 12.8757 9.11115 11.6477 11.1556 11.6477C11.3765 11.6477 12.0089 11.0353 12.0202 10.8577C11.1412 11.1739 10.1725 11.1361 9.32115 10.7524C8.90812 10.5444 8.44835 10.4449 7.98562 10.4633C7.52289 10.4817 7.07265 10.6175 6.67773 10.8577C6.8276 11.1796 7.06826 11.4514 7.37055 11.6402C7.67282 11.829 8.02376 11.9266 8.38083 11.9214C8.24763 13.0886 8.86907 14.4485 10.3731 15.1632C10.4067 15.1792 10.4382 15.1965 10.4727 15.2118C9.59475 14.7615 8.86982 13.9098 8.77929 12.8763V12.8757Z" fill="#FF980E"/>
</g>
</g>
<defs>
<filter id="filter0_i_32_9929" x="1.5" y="1.5" width="21" height="25" filterUnits="userSpaceOnUse" color-interpolation-filters="sRGB">
<feFlood flood-opacity="0" result="BackgroundImageFix"/>
<feBlend mode="normal" in="SourceGraphic" in2="BackgroundImageFix" result="shape"/>
<feColorMatrix in="SourceAlpha" type="matrix" values="0 0 0 0 0 0 0 0 0 0 0 0 0 0 0 0 0 0 127 0" result="hardAlpha"/>
<feOffset dy="4"/>
<feGaussianBlur stdDeviation="2"/>
<feComposite in2="hardAlpha" operator="arithmetic" k2="-1" k3="1"/>
<feColorMatrix type="matrix" values="0 0 0 0 0 0 0 0 0 0 0 0 0 0 0 0 0 0 0.25 0"/>
<feBlend mode="normal" in2="shape" result="effect1_innerShadow_32_9929"/>
</filter>
<filter id="filter1_d_32_9929" x="0.820312" y="2.63525" width="22.3604" height="22.7225" filterUnits="userSpaceOnUse" color-interpolation-filters="sRGB">
<feFlood flood-opacity="0" result="BackgroundImageFix"/>
<feColorMatrix in="SourceAlpha" type="matrix" values="0 0 0 0 0 0 0 0 0 0 0 0 0 0 0 0 0 0 127 0" result="hardAlpha"/>
<feOffset dy="2"/>
<feGaussianBlur stdDeviation="2"/>
<feComposite in2="hardAlpha" operator="out"/>
<feColorMatrix type="matrix" values="0 0 0 0 0 0 0 0 0 0 0 0 0 0 0 0 0 0 0.25 0"/>
<feBlend mode="normal" in2="BackgroundImageFix" result="effect1_dropShadow_32_9929"/>
<feBlend mode="normal" in="SourceGraphic" in2="effect1_dropShadow_32_9929" result="shape"/>
</filter>
<linearGradient id="paint0_linear_32_9929" x1="24" y1="0" x2="0.790941" y2="24.7419" gradientUnits="userSpaceOnUse">
<stop offset="0.169646" stop-color="#FF8B16"/>
<stop offset="0.35725" stop-color="#FF672A"/>
<stop offset="0.597842" stop-color="#FF3647"/>
<stop offset="0.825545" stop-color="#E31587"/>
</linearGradient>
<linearGradient id="paint1_linear_32_9929" x1="17.7101" y1="6.91643" x2="5.85595" y2="18.435" gradientUnits="userSpaceOnUse">
<stop offset="0.048" stop-color="#FFF44F"/>
<stop offset="0.111" stop-color="#FFE847"/>
<stop offset="0.225" stop-color="#FFC830"/>
<stop offset="0.368" stop-color="#FF980E"/>
<stop offset="0.401" stop-color="#FF8B16"/>
<stop offset="0.462" stop-color="#FF672A"/>
<stop offset="0.534" stop-color="#FF3647"/>
<stop offset="0.705" stop-color="#E31587"/>
</linearGradient>
<radialGradient id="paint2_radial_32_9929" cx="0" cy="0" r="1" gradientUnits="userSpaceOnUse" gradientTransform="translate(17.2477 6.29274) scale(14.9885 14.8826)">
<stop offset="0.129" stop-color="#FFBD4F"/>
<stop offset="0.186" stop-color="#FFAC31"/>
<stop offset="0.247" stop-color="#FF9D17"/>
<stop offset="0.283" stop-color="#FF980E"/>
<stop offset="0.403" stop-color="#FF563B"/>
<stop offset="0.467" stop-color="#FF3750"/>
<stop offset="0.71" stop-color="#F5156C"/>
<stop offset="0.782" stop-color="#EB0878"/>
<stop offset="0.86" stop-color="#E50080"/>
</radialGradient>
<clipPath id="clip0_32_9929">
<rect width="24" height="24" fill="white"/>
</clipPath>
</defs>
</svg>
