<svg width="24" height="24" viewBox="0 0 24 24" fill="none" xmlns="http://www.w3.org/2000/svg">
<g clip-path="url(#clip0_32_9954)">
<path d="M18 0H6C2.68629 0 0 2.68629 0 6V18C0 21.3137 2.68629 24 6 24H18C21.3137 24 24 21.3137 24 18V6C24 2.68629 21.3137 0 18 0Z" fill="url(#paint0_linear_32_9954)"/>
<path d="M18 0H6C2.68629 0 0 2.68629 0 6V18C0 21.3137 2.68629 24 6 24H18C21.3137 24 24 21.3137 24 18V6C24 2.68629 21.3137 0 18 0Z" fill="url(#paint1_linear_32_9954)"/>
<g filter="url(#filter0_i_32_9954)">
<path d="M18 1.5H6C3.51472 1.5 1.5 3.51472 1.5 6V18C1.5 20.4853 3.51472 22.5 6 22.5H18C20.4853 22.5 22.5 20.4853 22.5 18V6C22.5 3.51472 20.4853 1.5 18 1.5Z" fill="black" fill-opacity="0.7"/>
<mask id="mask0_32_9954" style="mask-type:luminance" maskUnits="userSpaceOnUse" x="3" y="3" width="18" height="18">
<path d="M21 3H3V21H21V3Z" fill="white"/>
</mask>
<g mask="url(#mask0_32_9954)">
<path fill-rule="evenodd" clip-rule="evenodd" d="M18.5156 14.9766C18.5156 15.3674 18.3386 15.7545 17.9947 16.1156C17.6507 16.4768 17.1466 16.8049 16.5111 17.0813C15.8756 17.3577 15.1212 17.577 14.2909 17.7266C13.4606 17.8761 12.5706 17.9531 11.6719 17.9531C10.7731 17.9531 9.8832 17.8761 9.05289 17.7266C8.22257 17.577 7.46811 17.3577 6.83261 17.0813C6.19712 16.8049 5.69301 16.4768 5.34908 16.1156C5.00514 15.7545 4.82812 15.3674 4.82812 14.9766C4.82812 14.5857 5.00514 14.1986 5.34908 13.8375C5.69301 13.4763 6.19712 13.1482 6.83261 12.8718C7.46811 12.5954 8.22257 12.3762 9.05289 12.2266C9.8832 12.077 10.7731 12 11.6719 12C12.5706 12 13.4606 12.077 14.2909 12.2266C15.1212 12.3762 15.8756 12.5954 16.5111 12.8718C17.1466 13.1482 17.6507 13.4763 17.9947 13.8375C18.3386 14.1986 18.5156 14.5857 18.5156 14.9766Z" fill="url(#paint2_radial_32_9954)"/>
<path fill-rule="evenodd" clip-rule="evenodd" d="M6.88987 7.67549C6.88987 7.67549 7.96781 9.89834 10.4896 9.83564C15.7743 9.70306 16.701 6.94628 16.8336 6.54852C16.9661 6.15078 17.169 6.21102 17.2159 6.57863C18.9394 22.2233 5.25455 15.5108 4.76855 12.8462C7.48648 12.0507 6.82357 10.526 6.82357 10.526L6.88987 7.67549Z" fill="#857C63" stroke="#2E3436" stroke-width="2" stroke-miterlimit="10"/>
<path fill-rule="evenodd" clip-rule="evenodd" d="M8.90137 14.2748C11.4285 14.7803 12.7154 14.3116 13.4685 13.73C13.2697 13.4731 12.9299 13.1914 12.9299 13.1914C12.9299 13.1914 13.8124 13.4366 14.1232 13.8378C14.433 14.2377 14.2382 14.4841 14.1571 14.9959C13.9766 14.5464 13.6396 14.3779 13.594 14.1993C12.9167 15.1356 11.2291 15.0967 8.90137 14.2748Z" fill="url(#paint3_linear_32_9954)"/>
<path fill-rule="evenodd" clip-rule="evenodd" d="M9.6412 11.0232C9.64124 11.2234 9.60185 11.4217 9.52525 11.6068C9.44864 11.7918 9.33635 11.9599 9.19477 12.1016C9.05317 12.2432 8.88507 12.3555 8.70007 12.4322C8.51506 12.5088 8.31676 12.5483 8.11649 12.5483C7.91624 12.5483 7.71794 12.5088 7.53293 12.4322C7.34793 12.3555 7.17982 12.2432 7.03823 12.1016C6.89665 11.9599 6.78436 11.7918 6.70775 11.6068C6.63115 11.4217 6.59174 11.2234 6.5918 11.0232C6.59174 10.8229 6.63115 10.6246 6.70775 10.4396C6.78436 10.2546 6.89665 10.0864 7.03823 9.94481C7.17982 9.80319 7.34793 9.69084 7.53293 9.61421C7.71794 9.53756 7.91624 9.49811 8.11649 9.49811C8.31676 9.49811 8.51506 9.53756 8.70007 9.61421C8.88507 9.69084 9.05317 9.80319 9.19477 9.94481C9.33635 10.0864 9.44864 10.2546 9.52525 10.4396C9.60185 10.6246 9.64124 10.8229 9.6412 11.0232Z" fill="#DBDBD7" stroke="#888A85" stroke-width="2" stroke-miterlimit="10"/>
<path fill-rule="evenodd" clip-rule="evenodd" d="M6.60392 11.5976C6.9588 12.0896 7.16038 12.6614 7.1643 13.1875C7.16824 13.7135 6.97419 14.1506 6.62486 14.4026C6.27553 14.6547 5.79953 14.7009 5.30158 14.5313C4.80362 14.3617 4.32452 13.99 3.96964 13.4981C3.61476 13.0062 3.41318 12.4343 3.40924 11.9083C3.40532 11.3822 3.59936 10.9451 3.94869 10.6931C4.29803 10.4411 4.77403 10.3948 5.27198 10.5644C5.76992 10.7341 6.24904 11.1057 6.60392 11.5976Z" fill="url(#paint4_radial_32_9954)" stroke="black" stroke-width="2" stroke-miterlimit="10"/>
<path fill-rule="evenodd" clip-rule="evenodd" d="M9.20748 11.2491C9.20751 11.3455 9.18854 11.441 9.15166 11.5301C9.11478 11.6192 9.06072 11.7001 8.99254 11.7683C8.92437 11.8365 8.84343 11.8906 8.75435 11.9275C8.66526 11.9644 8.56979 11.9834 8.47338 11.9834C8.37695 11.9834 8.28147 11.9644 8.19239 11.9275C8.10331 11.8906 8.02236 11.8365 7.95419 11.7683C7.88601 11.7001 7.83196 11.6192 7.79508 11.5301C7.7582 11.441 7.73922 11.3455 7.73926 11.2491C7.73922 11.1527 7.7582 11.0572 7.79508 10.9681C7.83196 10.879 7.88601 10.798 7.95419 10.7299C8.02236 10.6617 8.10331 10.6076 8.19239 10.5707C8.28147 10.5338 8.37695 10.5148 8.47338 10.5148C8.56979 10.5148 8.66526 10.5338 8.75435 10.5707C8.84343 10.6076 8.92437 10.6617 8.99254 10.7299C9.06072 10.798 9.11478 10.879 9.15166 10.9681C9.18854 11.0572 9.20751 11.1527 9.20748 11.2491Z" fill="#2E3436" stroke="black" stroke-width="2" stroke-miterlimit="10"/>
<path opacity="0.280899" fill-rule="evenodd" clip-rule="evenodd" d="M4.08176 11.0281C3.84217 11.2076 3.71589 11.5112 3.72727 11.9232C3.73865 12.3352 3.90125 12.8397 4.23498 13.2853C4.56871 13.7309 5.00709 14.0288 5.39926 14.1556C5.79146 14.2824 6.11833 14.2466 6.35791 14.0671C6.5975 13.8877 6.72423 13.5696 6.71476 13.1556C6.70528 12.7417 6.54708 12.2476 6.21406 11.803C5.88106 11.3584 5.45137 11.0676 5.05681 10.9421C4.66228 10.8165 4.32134 10.8487 4.08176 11.0281Z" stroke="url(#paint5_linear_32_9954)" stroke-width="2" stroke-miterlimit="10"/>
<path fill-rule="evenodd" clip-rule="evenodd" d="M5.18714 11.7193C5.18718 11.8238 5.17004 11.9272 5.13674 12.0237C5.10342 12.1203 5.0546 12.208 4.99304 12.2819C4.93148 12.3558 4.8584 12.4144 4.77796 12.4544C4.69752 12.4944 4.61131 12.515 4.52423 12.515C4.43718 12.515 4.35095 12.4944 4.27051 12.4544C4.19007 12.4144 4.11698 12.3558 4.05543 12.2819C3.99387 12.208 3.94505 12.1203 3.91175 12.0237C3.87843 11.9272 3.86131 11.8238 3.86133 11.7193C3.86131 11.6148 3.87843 11.5113 3.91175 11.4148C3.94505 11.3183 3.99387 11.2305 4.05543 11.1566C4.11698 11.0828 4.19007 11.0241 4.27051 10.9841C4.35095 10.9442 4.43718 10.9236 4.52423 10.9236C4.61131 10.9236 4.69752 10.9442 4.77796 10.9841C4.8584 11.0241 4.93148 11.0828 4.99304 11.1566C5.0546 11.2305 5.10342 11.3183 5.13674 11.4148C5.17004 11.5113 5.18718 11.6148 5.18714 11.7193Z" fill="white"/>
<path fill-rule="evenodd" clip-rule="evenodd" d="M8.69909 10.9103C8.69909 11.0451 8.64554 11.1743 8.55022 11.2696C8.45491 11.3649 8.32565 11.4185 8.19085 11.4185C8.05606 11.4185 7.92678 11.3649 7.83147 11.2696C7.73617 11.1743 7.68262 11.0451 7.68262 10.9103C7.68262 10.7755 7.73617 10.6462 7.83147 10.5509C7.92678 10.4556 8.05606 10.402 8.19085 10.402C8.32565 10.402 8.45491 10.4556 8.55022 10.5509C8.64554 10.6462 8.69909 10.7755 8.69909 10.9103Z" fill="white"/>
<path fill-rule="evenodd" clip-rule="evenodd" d="M13.0553 11.1889C13.0554 11.424 13.0091 11.6568 12.9192 11.874C12.8293 12.0912 12.6975 12.2886 12.5312 12.4548C12.365 12.6211 12.1677 12.753 11.9505 12.843C11.7333 12.9329 11.5005 12.9792 11.2654 12.9792C11.0304 12.9792 10.7976 12.9329 10.5804 12.843C10.3632 12.753 10.1659 12.6211 9.99967 12.4548C9.83345 12.2886 9.70164 12.0912 9.61171 11.874C9.52179 11.6568 9.47553 11.424 9.47559 11.1889C9.47553 10.9538 9.52179 10.721 9.61171 10.5038C9.70164 10.2866 9.83345 10.0893 9.99967 9.92302C10.1659 9.75676 10.3632 9.62488 10.5804 9.5349C10.7976 9.44493 11.0304 9.39862 11.2654 9.39862C11.5005 9.39862 11.7333 9.44493 11.9505 9.5349C12.1677 9.62488 12.365 9.75676 12.5312 9.92302C12.6975 10.0893 12.8293 10.2866 12.9192 10.5038C13.0091 10.721 13.0554 10.9538 13.0553 11.1889Z" fill="#DBDBD7" stroke="#888A85" stroke-width="2" stroke-miterlimit="10"/>
<path fill-rule="evenodd" clip-rule="evenodd" d="M12.5458 11.4541C12.5459 11.5673 12.5236 11.6794 12.4803 11.7839C12.437 11.8885 12.3735 11.9836 12.2935 12.0636C12.2135 12.1437 12.1185 12.2072 12.0139 12.2505C11.9093 12.2938 11.7972 12.3161 11.6841 12.3161C11.5709 12.3161 11.4588 12.2938 11.3542 12.2505C11.2496 12.2072 11.1546 12.1437 11.0746 12.0636C10.9946 11.9836 10.9311 11.8885 10.8878 11.7839C10.8445 11.6794 10.8222 11.5673 10.8223 11.4541C10.8222 11.3409 10.8445 11.2288 10.8878 11.1242C10.9311 11.0196 10.9946 10.9246 11.0746 10.8445C11.1546 10.7645 11.2496 10.701 11.3542 10.6576C11.4588 10.6143 11.5709 10.592 11.6841 10.592C11.7972 10.592 11.9093 10.6143 12.0139 10.6576C12.1185 10.701 12.2135 10.7645 12.2935 10.8445C12.3735 10.9246 12.437 11.0196 12.4803 11.1242C12.5236 11.2288 12.5459 11.3409 12.5458 11.4541Z" fill="#2E3436" stroke="black" stroke-width="2" stroke-miterlimit="10"/>
<path fill-rule="evenodd" clip-rule="evenodd" d="M11.9491 11.0563C11.9491 11.2146 11.8862 11.3663 11.7744 11.4782C11.6625 11.5901 11.5107 11.653 11.3525 11.653C11.1943 11.653 11.0425 11.5901 10.9306 11.4782C10.8187 11.3663 10.7559 11.2146 10.7559 11.0563C10.7559 10.8981 10.8187 10.7463 10.9306 10.6345C11.0425 10.5226 11.1943 10.4597 11.3525 10.4597C11.5107 10.4597 11.6625 10.5226 11.7744 10.6345C11.8862 10.7463 11.9491 10.8981 11.9491 11.0563Z" fill="white"/>
<path d="M16.7194 16.5343L17.0668 15.8425C15.7744 14.897 13.392 14.209 13.392 14.209C12.9791 14.0167 12.8487 14.3877 13.1347 14.6288C13.1347 14.6288 15.1721 16.0894 16.7194 16.5343Z" fill="url(#paint6_linear_32_9954)" stroke="#673907" stroke-width="2" stroke-linecap="round"/>
<path d="M18.3771 17.172L18.5631 16.7603L17.1203 15.836L17.0052 15.8262L16.9555 15.6669C16.7459 15.7982 16.4413 16.2858 16.5221 16.5599L16.6779 16.5009L16.7623 16.5825L18.3771 17.172Z" fill="url(#paint7_linear_32_9954)" stroke="#888A85" stroke-width="2" stroke-linecap="round"/>
<path d="M17.4414 16.3911L18.3994 16.8024" stroke="white" stroke-width="2" stroke-linecap="round" stroke-linejoin="round"/>
<path d="M20.4733 18.9203C20.0235 17.3934 19.864 16.1811 18.6884 16.289C17.7411 16.3759 17.6748 17.7332 18.6537 18.1078C19.5968 18.4686 20.4733 18.9203 20.4733 18.9203Z" fill="url(#paint8_radial_32_9954)"/>
<path opacity="0.527778" d="M18.7586 16.4126C18.8083 16.398 18.8604 16.3933 18.9118 16.3988C18.9633 16.4042 19.0132 16.4198 19.0588 16.4446C19.1043 16.4694 19.1445 16.5029 19.1769 16.5432C19.2095 16.5835 19.2337 16.6298 19.2483 16.6795C19.263 16.7291 19.2678 16.7812 19.2622 16.8327C19.2568 16.8842 19.2412 16.9341 19.2165 16.9796C19.1915 17.0251 19.1582 17.0653 19.1178 17.0978C19.0775 17.1303 19.0312 17.1546 18.9815 17.1692C18.9318 17.1838 18.8797 17.1886 18.8282 17.1831C18.7768 17.1776 18.7268 17.162 18.6813 17.1373C18.6358 17.1125 18.5957 17.079 18.5631 17.0387C18.5306 16.9984 18.5063 16.9521 18.4917 16.9024C18.477 16.8527 18.4723 16.8006 18.4778 16.7491C18.4833 16.6976 18.4989 16.6477 18.5237 16.6022C18.5485 16.5568 18.582 16.5166 18.6223 16.4841C18.6626 16.4515 18.7089 16.4273 18.7586 16.4126Z" fill="white"/>
<path d="M17.0396 15.8515C17.0731 15.8416 17.1083 15.8384 17.143 15.8421C17.1778 15.8458 17.2115 15.8563 17.2421 15.873C17.2728 15.8898 17.2999 15.9124 17.3219 15.9396C17.3438 15.9667 17.3602 15.998 17.3701 16.0315C17.38 16.065 17.3831 16.1002 17.3794 16.1349C17.3757 16.1697 17.3652 16.2034 17.3485 16.2341C17.3318 16.2648 17.3092 16.2918 17.282 16.3138C17.2548 16.3357 17.2235 16.3521 17.19 16.362C17.1565 16.3719 17.1213 16.375 17.0866 16.3713C17.0518 16.3677 17.0181 16.3571 16.9874 16.3404C16.9568 16.3237 16.9296 16.3011 16.9077 16.2739C16.8857 16.2467 16.8694 16.2155 16.8595 16.182C16.8496 16.1484 16.8464 16.1133 16.8501 16.0785C16.8538 16.0438 16.8644 16.0101 16.8811 15.9794C16.8978 15.9487 16.9204 15.9216 16.9476 15.8997C16.9748 15.8777 17.0061 15.8614 17.0396 15.8515Z" fill="white"/>
<path opacity="0.427778" d="M19.9084 18.0067C19.9084 18.0067 19.7618 17.4585 19.4386 17.1733C19.324 17.0723 19.4682 16.9237 19.5762 17.0542C19.8094 17.3363 19.9084 18.0067 19.9084 18.0067Z" fill="url(#paint9_linear_32_9954)"/>
<path fill-rule="evenodd" clip-rule="evenodd" d="M11.626 14.9013C12.1875 14.9549 12.6946 14.7992 12.9054 14.7235C12.9423 14.5152 13.1066 14.1155 13.6727 14.0892L13.4738 13.7411C13.4738 13.7411 12.7364 14.2466 11.9492 14.3958L11.626 14.9013Z" fill="url(#paint10_linear_32_9954)"/>
</g>
</g>
</g>
<defs>
<filter id="filter0_i_32_9954" x="1.5" y="1.5" width="21" height="25" filterUnits="userSpaceOnUse" color-interpolation-filters="sRGB">
<feFlood flood-opacity="0" result="BackgroundImageFix"/>
<feBlend mode="normal" in="SourceGraphic" in2="BackgroundImageFix" result="shape"/>
<feColorMatrix in="SourceAlpha" type="matrix" values="0 0 0 0 0 0 0 0 0 0 0 0 0 0 0 0 0 0 127 0" result="hardAlpha"/>
<feOffset dy="4"/>
<feGaussianBlur stdDeviation="2"/>
<feComposite in2="hardAlpha" operator="arithmetic" k2="-1" k3="1"/>
<feColorMatrix type="matrix" values="0 0 0 0 0 0 0 0 0 0 0 0 0 0 0 0 0 0 0.25 0"/>
<feBlend mode="normal" in2="shape" result="effect1_innerShadow_32_9954"/>
</filter>
<linearGradient id="paint0_linear_32_9954" x1="11.927" y1="24.0184" x2="11.927" y2="-0.0155444" gradientUnits="userSpaceOnUse">
<stop stop-color="#2CA0B9"/>
<stop offset="1" stop-color="#87DEAA"/>
</linearGradient>
<linearGradient id="paint1_linear_32_9954" x1="12" y1="0" x2="12" y2="24" gradientUnits="userSpaceOnUse">
<stop stop-color="#857C63"/>
<stop offset="1" stop-color="#3E382D"/>
</linearGradient>
<radialGradient id="paint2_radial_32_9954" cx="0" cy="0" r="1" gradientUnits="userSpaceOnUse" gradientTransform="translate(11.6719 14.9766) scale(6.84375 2.97656)">
<stop/>
<stop offset="1" stop-opacity="0"/>
</radialGradient>
<linearGradient id="paint3_linear_32_9954" x1="13.6923" y1="13.661" x2="9.51594" y2="14.4897" gradientUnits="userSpaceOnUse">
<stop/>
<stop offset="1" stop-opacity="0"/>
</linearGradient>
<radialGradient id="paint4_radial_32_9954" cx="0" cy="0" r="1" gradientUnits="userSpaceOnUse" gradientTransform="translate(4.67739 11.751) rotate(-30) scale(1.66831 1.94719)">
<stop stop-color="#5B676B"/>
<stop offset="1" stop-color="#141718"/>
</radialGradient>
<linearGradient id="paint5_linear_32_9954" x1="4.41637" y1="11.3427" x2="6.16528" y2="13.8782" gradientUnits="userSpaceOnUse">
<stop stop-color="white"/>
<stop offset="1" stop-color="white" stop-opacity="0"/>
</linearGradient>
<linearGradient id="paint6_linear_32_9954" x1="15.884" y1="15.0205" x2="15.105" y2="16.7218" gradientUnits="userSpaceOnUse">
<stop stop-color="#6E3D09"/>
<stop offset="0.242424" stop-color="#EA8113"/>
<stop offset="0.621212" stop-color="#5C3307"/>
<stop offset="1" stop-color="#E07C12"/>
</linearGradient>
<linearGradient id="paint7_linear_32_9954" x1="17.5543" y1="16.8682" x2="17.8969" y2="16.1771" gradientUnits="userSpaceOnUse">
<stop stop-color="#BDBDBD"/>
<stop offset="0.333333" stop-color="#E2E2E2"/>
<stop offset="0.666667" stop-color="#A3A3A3"/>
<stop offset="1" stop-color="#DDDDDD"/>
</linearGradient>
<radialGradient id="paint8_radial_32_9954" cx="0" cy="0" r="1" gradientUnits="userSpaceOnUse" gradientTransform="translate(18.4078 17.2698) rotate(-106.415) scale(1.81669 1.77042)">
<stop stop-color="#696969"/>
<stop offset="1"/>
</radialGradient>
<linearGradient id="paint9_linear_32_9954" x1="19.4832" y1="16.907" x2="19.9219" y2="17.7202" gradientUnits="userSpaceOnUse">
<stop stop-color="white"/>
<stop offset="1" stop-color="white" stop-opacity="0"/>
</linearGradient>
<linearGradient id="paint10_linear_32_9954" x1="12.8109" y1="14.4538" x2="12.1232" y2="14.6195" gradientUnits="userSpaceOnUse">
<stop/>
<stop offset="1" stop-opacity="0"/>
</linearGradient>
<clipPath id="clip0_32_9954">
<rect width="24" height="24" fill="white"/>
</clipPath>
</defs>
</svg>
