<svg width="24" height="24" viewBox="0 0 24 24" fill="none" xmlns="http://www.w3.org/2000/svg">
<g clip-path="url(#clip0_32_9983)">
<path d="M18 0H6C2.68629 0 0 2.68629 0 6V18C0 21.3137 2.68629 24 6 24H18C21.3137 24 24 21.3137 24 18V6C24 2.68629 21.3137 0 18 0Z" fill="url(#paint0_linear_32_9983)"/>
<g filter="url(#filter0_i_32_9983)">
<path d="M18 1.5H6C3.51472 1.5 1.5 3.51472 1.5 6V18C1.5 20.4853 3.51472 22.5 6 22.5H18C20.4853 22.5 22.5 20.4853 22.5 18V6C22.5 3.51472 20.4853 1.5 18 1.5Z" fill="black" fill-opacity="0.7"/>
<path d="M12 5.08594C15.8832 5.08594 19.0312 8.23399 19.0312 12.1172C19.0312 16.0004 15.8832 19.1484 12 19.1484C8.1168 19.1484 4.96875 16.0004 4.96875 12.1172C4.96875 8.23399 8.1168 5.08594 12 5.08594Z" fill="url(#paint1_linear_32_9983)"/>
<path d="M12 5.08594C8.1168 5.08594 4.96875 8.23399 4.96875 12.1172C4.96875 16.0004 8.1168 19.1484 12 19.1484V5.08594Z" fill="url(#paint2_linear_32_9983)"/>
<path d="M19.0312 11.8828C19.0312 15.766 15.8832 18.9141 12 18.9141C8.1168 18.9141 4.96875 15.766 4.96875 11.8828C4.96875 7.99961 8.1168 4.85156 12 4.85156C15.8832 4.85156 19.0312 7.99961 19.0312 11.8828Z" fill="#40A1C8"/>
<path d="M7.78176 12C7.79642 13.6306 8.1196 15.2071 8.70004 16.4824C8.23815 16.7186 7.84676 17.0029 7.5442 17.3215C5.94568 16.0123 5.00406 14.0659 4.96973 12H7.78176Z" fill="#49BBB0"/>
<path d="M11.9998 15.75V18.9141C11.4724 18.9141 10.9464 18.8546 10.4324 18.7369C9.75259 18.2613 9.15567 17.484 8.7002 16.4824C9.62626 16.0091 10.794 15.75 11.9998 15.75Z" fill="#378BDE"/>
<path d="M16.2185 12C16.2039 13.6306 15.8807 15.2071 15.2998 16.4824C15.7621 16.7186 16.1531 17.0029 16.4556 17.3215C18.0542 16.0123 18.9959 14.0659 19.0305 12H16.2185Z" fill="#266EC6"/>
<path d="M12 12V18.9141C12.5273 18.9141 13.0533 18.8546 13.5674 18.7369C15.1462 17.6314 16.1913 14.9755 16.2183 12H12Z" fill="#378BDE"/>
<path d="M12 15.75V18.9141C12.5273 18.9141 13.0533 18.8546 13.5674 18.7369C14.2472 18.2613 14.8441 17.484 15.2996 16.4824C14.3735 16.0091 13.2058 15.75 12 15.75Z" fill="#266EC6"/>
<path d="M15.2996 16.4824C14.8436 17.484 14.2467 18.2608 13.5674 18.7369C14.6262 18.4948 15.615 18.01 16.4554 17.3215C16.1528 17.0029 15.7615 16.7186 15.2996 16.4824Z" fill="#1E62B5"/>
<path d="M12 4.85156C8.1168 4.85156 4.96875 7.99961 4.96875 11.8828C4.96875 11.9217 4.9692 11.9611 4.96967 12H12V4.85156Z" fill="#53D795"/>
<path d="M10.4324 5.02826C9.37316 5.27087 8.3844 5.75518 7.54395 6.44366C7.84651 6.76273 8.2379 7.04653 8.70024 7.28321C9.15618 6.28115 9.75311 5.50432 10.4324 5.02826Z" fill="#72E99A"/>
<path d="M12 4.85156C11.4727 4.85156 10.9471 4.91107 10.4326 5.02826C8.83136 6.14977 7.78125 8.86432 7.78125 11.8828C7.78125 11.9217 7.78125 11.9611 7.7817 12H12V4.85156Z" fill="#49BBB0"/>
<path d="M11.9998 4.85156C11.4724 4.85156 10.9469 4.91107 10.4324 5.02826C9.75306 5.50433 9.15614 6.28116 8.7002 7.28321C9.62673 7.75654 10.794 8.01562 11.9998 8.01562V4.85156Z" fill="#53D795"/>
<path d="M12 4.85156C15.8832 4.85156 19.0312 7.99961 19.0312 11.8828C19.0312 11.9217 19.0309 11.9611 19.0303 12H12V4.85156Z" fill="#378BDE"/>
<path d="M13.5674 5.02826C14.6266 5.27087 15.6154 5.75518 16.4559 6.44366C16.1533 6.76273 15.7619 7.04653 15.3 7.28274C14.8436 6.28115 14.2467 5.50432 13.5674 5.02826Z" fill="#40A1C8"/>
<path d="M12 4.85156C12.5273 4.85156 13.0533 4.91107 13.5674 5.02826C15.1686 6.14977 16.2188 8.86432 16.2188 11.8828C16.2188 11.9217 16.2187 11.9611 16.2183 12H12V4.85156Z" fill="#40A1C8"/>
<path d="M12 4.85156C12.5273 4.85156 13.0533 4.91107 13.5674 5.02826C14.2467 5.50433 14.8436 6.28116 15.2996 7.28274C14.373 7.75654 13.2058 8.01562 12 8.01562V4.85156Z" fill="#49BBB0"/>
</g>
</g>
<defs>
<filter id="filter0_i_32_9983" x="1.5" y="1.5" width="21" height="25" filterUnits="userSpaceOnUse" color-interpolation-filters="sRGB">
<feFlood flood-opacity="0" result="BackgroundImageFix"/>
<feBlend mode="normal" in="SourceGraphic" in2="BackgroundImageFix" result="shape"/>
<feColorMatrix in="SourceAlpha" type="matrix" values="0 0 0 0 0 0 0 0 0 0 0 0 0 0 0 0 0 0 127 0" result="hardAlpha"/>
<feOffset dy="4"/>
<feGaussianBlur stdDeviation="2"/>
<feComposite in2="hardAlpha" operator="arithmetic" k2="-1" k3="1"/>
<feColorMatrix type="matrix" values="0 0 0 0 0 0 0 0 0 0 0 0 0 0 0 0 0 0 0.25 0"/>
<feBlend mode="normal" in2="shape" result="effect1_innerShadow_32_9983"/>
</filter>
<linearGradient id="paint0_linear_32_9983" x1="12" y1="0" x2="12" y2="24" gradientUnits="userSpaceOnUse">
<stop stop-color="#72E99A"/>
<stop offset="0.3" stop-color="#49BBB0"/>
<stop offset="0.614" stop-color="#378BDE"/>
<stop offset="1" stop-color="#1E62B5"/>
</linearGradient>
<linearGradient id="paint1_linear_32_9983" x1="15.9844" y1="17.625" x2="17.1562" y2="17.625" gradientUnits="userSpaceOnUse">
<stop stop-color="#16529C"/>
<stop offset="1" stop-color="#236AC0"/>
</linearGradient>
<linearGradient id="paint2_linear_32_9983" x1="11.2969" y1="18.5625" x2="6.14063" y2="18.5625" gradientUnits="userSpaceOnUse">
<stop stop-color="#2166BB"/>
<stop offset="1" stop-color="#89EDA9"/>
</linearGradient>
<clipPath id="clip0_32_9983">
<rect width="24" height="24" fill="white"/>
</clipPath>
</defs>
</svg>
