<svg width="24" height="24" viewBox="0 0 24 24" fill="none" xmlns="http://www.w3.org/2000/svg">
<g clip-path="url(#clip0_32_10004)">
<path d="M18 0H6C2.68629 0 0 2.68629 0 6V18C0 21.3137 2.68629 24 6 24H18C21.3137 24 24 21.3137 24 18V6C24 2.68629 21.3137 0 18 0Z" fill="url(#paint0_linear_32_10004)"/>
<g filter="url(#filter0_i_32_10004)">
<path d="M18 1.5H6C3.51472 1.5 1.5 3.51472 1.5 6V18C1.5 20.4853 3.51472 22.5 6 22.5H18C20.4853 22.5 22.5 20.4853 22.5 18V6C22.5 3.51472 20.4853 1.5 18 1.5Z" fill="black" fill-opacity="0.7"/>
<mask id="mask0_32_10004" style="mask-type:luminance" maskUnits="userSpaceOnUse" x="3" y="3" width="18" height="18">
<path d="M21 3H3V21H21V3Z" fill="white"/>
</mask>
<g mask="url(#mask0_32_10004)">
<g filter="url(#filter1_d_32_10004)">
<path d="M18.2676 10.1366L20.2288 14.4857L16.8721 20.2286L14.8047 15.2092L18.2676 10.1366Z" fill="url(#paint1_linear_32_10004)"/>
</g>
<g filter="url(#filter2_d_32_10004)">
<path d="M14.8046 15.2092L16.8721 20.2286L11.6709 18.4406L14.8046 15.2092Z" fill="#B74AF7"/>
</g>
<g filter="url(#filter3_d_32_10004)">
<path d="M15.3652 8.41884L14.2989 3.77142H8.38633L3.77148 10.8308L5.1069 14.0743L3.77148 17.0348L13.3286 8.90399L15.3652 8.41884Z" fill="url(#paint2_linear_32_10004)"/>
</g>
<g filter="url(#filter4_d_32_10004)">
<path d="M20.2287 7.26514L13.3286 8.904L3.77148 17.0349L9.93605 20.2286L14.8046 15.2091L20.2287 7.26514Z" fill="url(#paint3_linear_32_10004)"/>
</g>
<g filter="url(#filter5_d_32_10004)">
<path d="M6.85742 6.85712H17.1431V17.1428H6.85742V6.85712Z" fill="black"/>
</g>
<path d="M7.82227 15.2143H11.6794V15.8572H7.82227V15.2143Z" fill="white"/>
<path d="M7.53224 10.3388V10.3268C7.53126 10.0364 7.58839 9.74872 7.70028 9.48073C7.81216 9.21272 7.97654 8.96981 8.18373 8.7663C8.39091 8.56279 8.63673 8.40277 8.90669 8.29571C9.17665 8.18863 9.46531 8.13666 9.75567 8.14282C10.3663 8.11065 10.9652 8.3193 11.4237 8.72398L10.8357 9.43369C10.5375 9.14861 10.1389 8.99274 9.72653 8.99998C9.04081 8.99998 8.50767 9.59998 8.50767 10.32V10.332C8.50767 11.1085 9.04081 11.6777 9.79338 11.6777C10.1055 11.6869 10.4126 11.5975 10.6711 11.4223V10.812H9.73167V10.0063H11.5711V11.8474C11.0683 12.2835 10.4247 12.5228 9.7591 12.5211C8.44081 12.5211 7.53224 11.5937 7.53224 10.3388Z" fill="white"/>
<path d="M11.9658 10.3389V10.3269C11.9668 10.0338 12.0266 9.74388 12.1415 9.4743C12.2565 9.20471 12.4243 8.9609 12.6351 8.7573C12.8459 8.55369 13.0954 8.39441 13.3688 8.28888C13.6422 8.18334 13.934 8.13369 14.227 8.14286C15.535 8.14286 16.4744 9.11829 16.4744 10.3234V10.3354C16.4748 10.6292 16.4161 10.9201 16.3018 11.1907C16.1876 11.4614 16.0201 11.7064 15.8094 11.911C15.5986 12.1157 15.3489 12.276 15.075 12.3823C14.8011 12.4885 14.5086 12.5387 14.215 12.5297C12.9053 12.5211 11.9658 11.5457 11.9658 10.3389ZM15.499 10.3389V10.3269C15.5042 10.1548 15.4749 9.98341 15.4128 9.82286C15.3507 9.6623 15.257 9.51585 15.1373 9.39213C15.0176 9.26842 14.8743 9.16998 14.7159 9.10263C14.5574 9.03526 14.3871 9.00037 14.215 9C14.0441 8.99941 13.8749 9.03337 13.7175 9.09978C13.5601 9.1662 13.4177 9.26373 13.2989 9.38653C13.1801 9.50932 13.0874 9.65484 13.0262 9.81436C12.965 9.97389 12.9367 10.1441 12.943 10.3149V10.3269C12.937 10.4996 12.9658 10.6717 13.0277 10.8331C13.0896 10.9945 13.1833 11.1417 13.3032 11.2661C13.4232 11.3906 13.5669 11.4896 13.7259 11.5573C13.8849 11.6251 14.0558 11.6602 14.2287 11.6606C14.4 11.661 14.5696 11.6266 14.7273 11.5597C14.885 11.4927 15.0274 11.3946 15.1461 11.2711C15.2648 11.1475 15.3573 11.0013 15.4179 10.8411C15.4786 10.6808 15.5061 10.51 15.499 10.3389Z" fill="white"/>
</g>
</g>
</g>
<defs>
<filter id="filter0_i_32_10004" x="1.5" y="1.5" width="21" height="25" filterUnits="userSpaceOnUse" color-interpolation-filters="sRGB">
<feFlood flood-opacity="0" result="BackgroundImageFix"/>
<feBlend mode="normal" in="SourceGraphic" in2="BackgroundImageFix" result="shape"/>
<feColorMatrix in="SourceAlpha" type="matrix" values="0 0 0 0 0 0 0 0 0 0 0 0 0 0 0 0 0 0 127 0" result="hardAlpha"/>
<feOffset dy="4"/>
<feGaussianBlur stdDeviation="2"/>
<feComposite in2="hardAlpha" operator="arithmetic" k2="-1" k3="1"/>
<feColorMatrix type="matrix" values="0 0 0 0 0 0 0 0 0 0 0 0 0 0 0 0 0 0 0.25 0"/>
<feBlend mode="normal" in2="shape" result="effect1_innerShadow_32_10004"/>
</filter>
<filter id="filter1_d_32_10004" x="10.8047" y="8.1366" width="13.4238" height="18.092" filterUnits="userSpaceOnUse" color-interpolation-filters="sRGB">
<feFlood flood-opacity="0" result="BackgroundImageFix"/>
<feColorMatrix in="SourceAlpha" type="matrix" values="0 0 0 0 0 0 0 0 0 0 0 0 0 0 0 0 0 0 127 0" result="hardAlpha"/>
<feOffset dy="2"/>
<feGaussianBlur stdDeviation="2"/>
<feComposite in2="hardAlpha" operator="out"/>
<feColorMatrix type="matrix" values="0 0 0 0 0 0 0 0 0 0 0 0 0 0 0 0 0 0 0.25 0"/>
<feBlend mode="normal" in2="BackgroundImageFix" result="effect1_dropShadow_32_10004"/>
<feBlend mode="normal" in="SourceGraphic" in2="effect1_dropShadow_32_10004" result="shape"/>
</filter>
<filter id="filter2_d_32_10004" x="7.6709" y="13.2092" width="13.2012" height="13.0195" filterUnits="userSpaceOnUse" color-interpolation-filters="sRGB">
<feFlood flood-opacity="0" result="BackgroundImageFix"/>
<feColorMatrix in="SourceAlpha" type="matrix" values="0 0 0 0 0 0 0 0 0 0 0 0 0 0 0 0 0 0 127 0" result="hardAlpha"/>
<feOffset dy="2"/>
<feGaussianBlur stdDeviation="2"/>
<feComposite in2="hardAlpha" operator="out"/>
<feColorMatrix type="matrix" values="0 0 0 0 0 0 0 0 0 0 0 0 0 0 0 0 0 0 0.25 0"/>
<feBlend mode="normal" in2="BackgroundImageFix" result="effect1_dropShadow_32_10004"/>
<feBlend mode="normal" in="SourceGraphic" in2="effect1_dropShadow_32_10004" result="shape"/>
</filter>
<filter id="filter3_d_32_10004" x="-0.228516" y="1.77142" width="19.5938" height="21.2634" filterUnits="userSpaceOnUse" color-interpolation-filters="sRGB">
<feFlood flood-opacity="0" result="BackgroundImageFix"/>
<feColorMatrix in="SourceAlpha" type="matrix" values="0 0 0 0 0 0 0 0 0 0 0 0 0 0 0 0 0 0 127 0" result="hardAlpha"/>
<feOffset dy="2"/>
<feGaussianBlur stdDeviation="2"/>
<feComposite in2="hardAlpha" operator="out"/>
<feColorMatrix type="matrix" values="0 0 0 0 0 0 0 0 0 0 0 0 0 0 0 0 0 0 0.25 0"/>
<feBlend mode="normal" in2="BackgroundImageFix" result="effect1_dropShadow_32_10004"/>
<feBlend mode="normal" in="SourceGraphic" in2="effect1_dropShadow_32_10004" result="shape"/>
</filter>
<filter id="filter4_d_32_10004" x="-0.228516" y="5.26514" width="24.457" height="20.9635" filterUnits="userSpaceOnUse" color-interpolation-filters="sRGB">
<feFlood flood-opacity="0" result="BackgroundImageFix"/>
<feColorMatrix in="SourceAlpha" type="matrix" values="0 0 0 0 0 0 0 0 0 0 0 0 0 0 0 0 0 0 127 0" result="hardAlpha"/>
<feOffset dy="2"/>
<feGaussianBlur stdDeviation="2"/>
<feComposite in2="hardAlpha" operator="out"/>
<feColorMatrix type="matrix" values="0 0 0 0 0 0 0 0 0 0 0 0 0 0 0 0 0 0 0.25 0"/>
<feBlend mode="normal" in2="BackgroundImageFix" result="effect1_dropShadow_32_10004"/>
<feBlend mode="normal" in="SourceGraphic" in2="effect1_dropShadow_32_10004" result="shape"/>
</filter>
<filter id="filter5_d_32_10004" x="2.85742" y="4.85712" width="18.2861" height="18.2857" filterUnits="userSpaceOnUse" color-interpolation-filters="sRGB">
<feFlood flood-opacity="0" result="BackgroundImageFix"/>
<feColorMatrix in="SourceAlpha" type="matrix" values="0 0 0 0 0 0 0 0 0 0 0 0 0 0 0 0 0 0 127 0" result="hardAlpha"/>
<feOffset dy="2"/>
<feGaussianBlur stdDeviation="2"/>
<feComposite in2="hardAlpha" operator="out"/>
<feColorMatrix type="matrix" values="0 0 0 0 0 0 0 0 0 0 0 0 0 0 0 0 0 0 0.25 0"/>
<feBlend mode="normal" in2="BackgroundImageFix" result="effect1_dropShadow_32_10004"/>
<feBlend mode="normal" in="SourceGraphic" in2="effect1_dropShadow_32_10004" result="shape"/>
</filter>
<linearGradient id="paint0_linear_32_10004" x1="12" y1="0" x2="12" y2="24" gradientUnits="userSpaceOnUse">
<stop stop-color="#3BEA62"/>
<stop offset="0.510417" stop-color="#087CFA"/>
<stop offset="1" stop-color="#B74AF7"/>
</linearGradient>
<linearGradient id="paint1_linear_32_10004" x1="19.9768" y1="13.1452" x2="13.5498" y2="18.5846" gradientUnits="userSpaceOnUse">
<stop stop-color="#087CFA"/>
<stop offset="0.02" stop-color="#0D7BFA"/>
<stop offset="0.37" stop-color="#5566F9"/>
<stop offset="0.66" stop-color="#8A57F8"/>
<stop offset="0.88" stop-color="#AB4EF7"/>
<stop offset="1" stop-color="#B74AF7"/>
</linearGradient>
<linearGradient id="paint2_linear_32_10004" x1="9.43549" y1="8.87313" x2="13.3423" y2="4.42799" gradientUnits="userSpaceOnUse">
<stop stop-color="#087CFA"/>
<stop offset="0.02" stop-color="#0D7BFA"/>
<stop offset="0.37" stop-color="#5566F9"/>
<stop offset="0.66" stop-color="#8A57F8"/>
<stop offset="0.88" stop-color="#AB4EF7"/>
<stop offset="1" stop-color="#B74AF7"/>
</linearGradient>
<linearGradient id="paint3_linear_32_10004" x1="6.05833" y1="18.1474" x2="17.9298" y2="10.5189" gradientUnits="userSpaceOnUse">
<stop stop-color="#087CFA"/>
<stop offset="0.1" stop-color="#1598D3"/>
<stop offset="0.22" stop-color="#23B6AA"/>
<stop offset="0.35" stop-color="#2DCC8B"/>
<stop offset="0.46" stop-color="#35DD74"/>
<stop offset="0.57" stop-color="#39E767"/>
<stop offset="0.67" stop-color="#3BEA62"/>
</linearGradient>
<clipPath id="clip0_32_10004">
<rect width="24" height="24" fill="white"/>
</clipPath>
</defs>
</svg>
