<svg width="24" height="24" viewBox="0 0 24 24" fill="none" xmlns="http://www.w3.org/2000/svg">
<g clip-path="url(#clip0_32_10025)">
<path d="M18 0H6C2.68629 0 0 2.68629 0 6V18C0 21.3137 2.68629 24 6 24H18C21.3137 24 24 21.3137 24 18V6C24 2.68629 21.3137 0 18 0Z" fill="#FF0045"/>
<path d="M18 0H6C2.68629 0 0 2.68629 0 6V18C0 21.3137 2.68629 24 6 24H18C21.3137 24 24 21.3137 24 18V6C24 2.68629 21.3137 0 18 0Z" fill="url(#paint0_radial_32_10025)"/>
<path d="M18 0H6C2.68629 0 0 2.68629 0 6V18C0 21.3137 2.68629 24 6 24H18C21.3137 24 24 21.3137 24 18V6C24 2.68629 21.3137 0 18 0Z" fill="url(#paint1_radial_32_10025)"/>
<g filter="url(#filter0_i_32_10025)">
<path d="M18 1.5H6C3.51472 1.5 1.5 3.51472 1.5 6V18C1.5 20.4853 3.51472 22.5 6 22.5H18C20.4853 22.5 22.5 20.4853 22.5 18V6C22.5 3.51472 20.4853 1.5 18 1.5Z" fill="black" fill-opacity="0.7"/>
<mask id="mask0_32_10025" style="mask-type:luminance" maskUnits="userSpaceOnUse" x="4" y="4" width="16" height="16">
<path d="M19.5 4.5H4.5V19.5H19.5V4.5Z" fill="white"/>
</mask>
<g mask="url(#mask0_32_10025)">
<g filter="url(#filter1_d_32_10025)">
<path d="M12 5.85187C14.0025 5.85187 14.24 5.85938 15.0313 5.89562C17.0638 5.98813 18.0131 6.9525 18.1056 8.97C18.1419 9.76063 18.1487 9.99812 18.1487 12.0006C18.1487 14.0038 18.1412 14.2406 18.1056 15.0313C18.0125 17.0469 17.0656 18.0131 15.0313 18.1056C14.24 18.1419 14.0038 18.1494 12 18.1494C9.9975 18.1494 9.75999 18.1419 8.96938 18.1056C6.93188 18.0125 5.98749 17.0437 5.895 15.0306C5.85876 14.24 5.85126 14.0031 5.85126 12C5.85126 9.9975 5.85938 9.76063 5.895 8.96938C5.98813 6.9525 6.93501 5.98749 8.96938 5.895C9.76063 5.85938 9.9975 5.85187 12 5.85187ZM12 4.5C9.96313 4.5 9.70813 4.50876 8.90812 4.545C6.18437 4.67001 4.67062 6.18126 4.54562 8.90751C4.50876 9.70813 4.5 9.96313 4.5 12C4.5 14.0369 4.50876 14.2925 4.545 15.0925C4.67001 17.8163 6.18126 19.3299 8.90751 19.455C9.70813 19.4912 9.96313 19.5 12 19.5C14.0369 19.5 14.2925 19.4912 15.0925 19.455C17.8138 19.3299 19.3313 17.8187 19.4544 15.0925C19.4912 14.2925 19.5 14.0369 19.5 12C19.5 9.96313 19.4912 9.70813 19.455 8.90812C19.3326 6.18688 17.8194 4.67062 15.0931 4.54562C14.2925 4.50876 14.0369 4.5 12 4.5ZM12 8.14875C9.87313 8.14875 8.14875 9.87313 8.14875 12C8.14875 14.1269 9.87313 15.8519 12 15.8519C14.1269 15.8519 15.8513 14.1275 15.8513 12C15.8513 9.87313 14.1269 8.14875 12 8.14875ZM12 14.5C10.6194 14.5 9.50001 13.3813 9.50001 12C9.50001 10.6194 10.6194 9.50001 12 9.50001C13.3806 9.50001 14.5 10.6194 14.5 12C14.5 13.3813 13.3806 14.5 12 14.5ZM16.0037 7.09687C15.5063 7.09687 15.1031 7.5 15.1031 7.99688C15.1031 8.49375 15.5063 8.89688 16.0037 8.89688C16.5006 8.89688 16.9031 8.49375 16.9031 7.99688C16.9031 7.5 16.5006 7.09687 16.0037 7.09687Z" fill="white"/>
<path d="M12 5.85187C14.0025 5.85187 14.24 5.85938 15.0313 5.89562C17.0638 5.98813 18.0131 6.9525 18.1056 8.97C18.1419 9.76063 18.1487 9.99812 18.1487 12.0006C18.1487 14.0038 18.1412 14.2406 18.1056 15.0313C18.0125 17.0469 17.0656 18.0131 15.0313 18.1056C14.24 18.1419 14.0038 18.1494 12 18.1494C9.9975 18.1494 9.75999 18.1419 8.96938 18.1056C6.93188 18.0125 5.98749 17.0437 5.895 15.0306C5.85876 14.24 5.85126 14.0031 5.85126 12C5.85126 9.9975 5.85938 9.76063 5.895 8.96938C5.98813 6.9525 6.93501 5.98749 8.96938 5.895C9.76063 5.85938 9.9975 5.85187 12 5.85187ZM12 4.5C9.96313 4.5 9.70813 4.50876 8.90812 4.545C6.18437 4.67001 4.67062 6.18126 4.54562 8.90751C4.50876 9.70813 4.5 9.96313 4.5 12C4.5 14.0369 4.50876 14.2925 4.545 15.0925C4.67001 17.8163 6.18126 19.3299 8.90751 19.455C9.70813 19.4912 9.96313 19.5 12 19.5C14.0369 19.5 14.2925 19.4912 15.0925 19.455C17.8138 19.3299 19.3313 17.8187 19.4544 15.0925C19.4912 14.2925 19.5 14.0369 19.5 12C19.5 9.96313 19.4912 9.70813 19.455 8.90812C19.3326 6.18688 17.8194 4.67062 15.0931 4.54562C14.2925 4.50876 14.0369 4.5 12 4.5ZM12 8.14875C9.87313 8.14875 8.14875 9.87313 8.14875 12C8.14875 14.1269 9.87313 15.8519 12 15.8519C14.1269 15.8519 15.8513 14.1275 15.8513 12C15.8513 9.87313 14.1269 8.14875 12 8.14875ZM12 14.5C10.6194 14.5 9.50001 13.3813 9.50001 12C9.50001 10.6194 10.6194 9.50001 12 9.50001C13.3806 9.50001 14.5 10.6194 14.5 12C14.5 13.3813 13.3806 14.5 12 14.5ZM16.0037 7.09687C15.5063 7.09687 15.1031 7.5 15.1031 7.99688C15.1031 8.49375 15.5063 8.89688 16.0037 8.89688C16.5006 8.89688 16.9031 8.49375 16.9031 7.99688C16.9031 7.5 16.5006 7.09687 16.0037 7.09687Z" fill="#FF0045"/>
<path d="M12 5.85187C14.0025 5.85187 14.24 5.85938 15.0313 5.89562C17.0638 5.98813 18.0131 6.9525 18.1056 8.97C18.1419 9.76063 18.1487 9.99812 18.1487 12.0006C18.1487 14.0038 18.1412 14.2406 18.1056 15.0313C18.0125 17.0469 17.0656 18.0131 15.0313 18.1056C14.24 18.1419 14.0038 18.1494 12 18.1494C9.9975 18.1494 9.75999 18.1419 8.96938 18.1056C6.93188 18.0125 5.98749 17.0437 5.895 15.0306C5.85876 14.24 5.85126 14.0031 5.85126 12C5.85126 9.9975 5.85938 9.76063 5.895 8.96938C5.98813 6.9525 6.93501 5.98749 8.96938 5.895C9.76063 5.85938 9.9975 5.85187 12 5.85187ZM12 4.5C9.96313 4.5 9.70813 4.50876 8.90812 4.545C6.18437 4.67001 4.67062 6.18126 4.54562 8.90751C4.50876 9.70813 4.5 9.96313 4.5 12C4.5 14.0369 4.50876 14.2925 4.545 15.0925C4.67001 17.8163 6.18126 19.3299 8.90751 19.455C9.70813 19.4912 9.96313 19.5 12 19.5C14.0369 19.5 14.2925 19.4912 15.0925 19.455C17.8138 19.3299 19.3313 17.8187 19.4544 15.0925C19.4912 14.2925 19.5 14.0369 19.5 12C19.5 9.96313 19.4912 9.70813 19.455 8.90812C19.3326 6.18688 17.8194 4.67062 15.0931 4.54562C14.2925 4.50876 14.0369 4.5 12 4.5ZM12 8.14875C9.87313 8.14875 8.14875 9.87313 8.14875 12C8.14875 14.1269 9.87313 15.8519 12 15.8519C14.1269 15.8519 15.8513 14.1275 15.8513 12C15.8513 9.87313 14.1269 8.14875 12 8.14875ZM12 14.5C10.6194 14.5 9.50001 13.3813 9.50001 12C9.50001 10.6194 10.6194 9.50001 12 9.50001C13.3806 9.50001 14.5 10.6194 14.5 12C14.5 13.3813 13.3806 14.5 12 14.5ZM16.0037 7.09687C15.5063 7.09687 15.1031 7.5 15.1031 7.99688C15.1031 8.49375 15.5063 8.89688 16.0037 8.89688C16.5006 8.89688 16.9031 8.49375 16.9031 7.99688C16.9031 7.5 16.5006 7.09687 16.0037 7.09687Z" fill="url(#paint2_radial_32_10025)"/>
<path d="M12 5.85187C14.0025 5.85187 14.24 5.85938 15.0313 5.89562C17.0638 5.98813 18.0131 6.9525 18.1056 8.97C18.1419 9.76063 18.1487 9.99812 18.1487 12.0006C18.1487 14.0038 18.1412 14.2406 18.1056 15.0313C18.0125 17.0469 17.0656 18.0131 15.0313 18.1056C14.24 18.1419 14.0038 18.1494 12 18.1494C9.9975 18.1494 9.75999 18.1419 8.96938 18.1056C6.93188 18.0125 5.98749 17.0437 5.895 15.0306C5.85876 14.24 5.85126 14.0031 5.85126 12C5.85126 9.9975 5.85938 9.76063 5.895 8.96938C5.98813 6.9525 6.93501 5.98749 8.96938 5.895C9.76063 5.85938 9.9975 5.85187 12 5.85187ZM12 4.5C9.96313 4.5 9.70813 4.50876 8.90812 4.545C6.18437 4.67001 4.67062 6.18126 4.54562 8.90751C4.50876 9.70813 4.5 9.96313 4.5 12C4.5 14.0369 4.50876 14.2925 4.545 15.0925C4.67001 17.8163 6.18126 19.3299 8.90751 19.455C9.70813 19.4912 9.96313 19.5 12 19.5C14.0369 19.5 14.2925 19.4912 15.0925 19.455C17.8138 19.3299 19.3313 17.8187 19.4544 15.0925C19.4912 14.2925 19.5 14.0369 19.5 12C19.5 9.96313 19.4912 9.70813 19.455 8.90812C19.3326 6.18688 17.8194 4.67062 15.0931 4.54562C14.2925 4.50876 14.0369 4.5 12 4.5ZM12 8.14875C9.87313 8.14875 8.14875 9.87313 8.14875 12C8.14875 14.1269 9.87313 15.8519 12 15.8519C14.1269 15.8519 15.8513 14.1275 15.8513 12C15.8513 9.87313 14.1269 8.14875 12 8.14875ZM12 14.5C10.6194 14.5 9.50001 13.3813 9.50001 12C9.50001 10.6194 10.6194 9.50001 12 9.50001C13.3806 9.50001 14.5 10.6194 14.5 12C14.5 13.3813 13.3806 14.5 12 14.5ZM16.0037 7.09687C15.5063 7.09687 15.1031 7.5 15.1031 7.99688C15.1031 8.49375 15.5063 8.89688 16.0037 8.89688C16.5006 8.89688 16.9031 8.49375 16.9031 7.99688C16.9031 7.5 16.5006 7.09687 16.0037 7.09687Z" fill="url(#paint3_radial_32_10025)"/>
</g>
</g>
</g>
</g>
<defs>
<filter id="filter0_i_32_10025" x="1.5" y="1.5" width="21" height="25" filterUnits="userSpaceOnUse" color-interpolation-filters="sRGB">
<feFlood flood-opacity="0" result="BackgroundImageFix"/>
<feBlend mode="normal" in="SourceGraphic" in2="BackgroundImageFix" result="shape"/>
<feColorMatrix in="SourceAlpha" type="matrix" values="0 0 0 0 0 0 0 0 0 0 0 0 0 0 0 0 0 0 127 0" result="hardAlpha"/>
<feOffset dy="4"/>
<feGaussianBlur stdDeviation="2"/>
<feComposite in2="hardAlpha" operator="arithmetic" k2="-1" k3="1"/>
<feColorMatrix type="matrix" values="0 0 0 0 0 0 0 0 0 0 0 0 0 0 0 0 0 0 0.25 0"/>
<feBlend mode="normal" in2="shape" result="effect1_innerShadow_32_10025"/>
</filter>
<filter id="filter1_d_32_10025" x="0.5" y="2.5" width="23" height="23" filterUnits="userSpaceOnUse" color-interpolation-filters="sRGB">
<feFlood flood-opacity="0" result="BackgroundImageFix"/>
<feColorMatrix in="SourceAlpha" type="matrix" values="0 0 0 0 0 0 0 0 0 0 0 0 0 0 0 0 0 0 127 0" result="hardAlpha"/>
<feOffset dy="2"/>
<feGaussianBlur stdDeviation="2"/>
<feComposite in2="hardAlpha" operator="out"/>
<feColorMatrix type="matrix" values="0 0 0 0 0 0 0 0 0 0 0 0 0 0 0 0 0 0 0.25 0"/>
<feBlend mode="normal" in2="BackgroundImageFix" result="effect1_dropShadow_32_10025"/>
<feBlend mode="normal" in="SourceGraphic" in2="effect1_dropShadow_32_10025" result="shape"/>
</filter>
<radialGradient id="paint0_radial_32_10025" cx="0" cy="0" r="1" gradientUnits="userSpaceOnUse" gradientTransform="translate(24) rotate(135) scale(33.9411)">
<stop stop-color="#B000FF"/>
<stop offset="1" stop-color="#DFDFDF" stop-opacity="0"/>
</radialGradient>
<radialGradient id="paint1_radial_32_10025" cx="0" cy="0" r="1" gradientUnits="userSpaceOnUse" gradientTransform="translate(-7.15254e-07 24) rotate(-63.4349) scale(26.8327)">
<stop stop-color="#FFB000"/>
<stop offset="1" stop-color="#DFDFDF" stop-opacity="0"/>
</radialGradient>
<radialGradient id="paint2_radial_32_10025" cx="0" cy="0" r="1" gradientUnits="userSpaceOnUse" gradientTransform="translate(19.5 4.5) rotate(135) scale(21.2132)">
<stop stop-color="#B000FF"/>
<stop offset="1" stop-color="#DFDFDF" stop-opacity="0"/>
</radialGradient>
<radialGradient id="paint3_radial_32_10025" cx="0" cy="0" r="1" gradientUnits="userSpaceOnUse" gradientTransform="translate(4.5 19.5) rotate(-63.4349) scale(16.7705)">
<stop stop-color="#FFB000"/>
<stop offset="1" stop-color="#DFDFDF" stop-opacity="0"/>
</radialGradient>
<clipPath id="clip0_32_10025">
<rect width="24" height="24" fill="white"/>
</clipPath>
</defs>
</svg>
