<svg width="24" height="24" viewBox="0 0 24 24" fill="none" xmlns="http://www.w3.org/2000/svg">
<g clip-path="url(#clip0_32_10048)">
<path d="M18 0H6C2.68629 0 0 2.68629 0 6V18C0 21.3137 2.68629 24 6 24H18C21.3137 24 24 21.3137 24 18V6C24 2.68629 21.3137 0 18 0Z" fill="url(#paint0_linear_32_10048)"/>
<g filter="url(#filter0_i_32_10048)">
<path d="M18 1.5H6C3.51472 1.5 1.5 3.51472 1.5 6V18C1.5 20.4853 3.51472 22.5 6 22.5H18C20.4853 22.5 22.5 20.4853 22.5 18V6C22.5 3.51472 20.4853 1.5 18 1.5Z" fill="black" fill-opacity="0.7"/>
<mask id="mask0_32_10048" style="mask-type:luminance" maskUnits="userSpaceOnUse" x="3" y="3" width="18" height="18">
<path d="M21 3H3V21H21V3Z" fill="white"/>
</mask>
<g mask="url(#mask0_32_10048)">
<path d="M6.30338 15.3788L3.88281 13.4674L5.30738 10.8291L7.44852 11.5457L6.30338 15.3788Z" fill="#FC801D"/>
<g filter="url(#filter1_d_32_10048)">
<path d="M20.1539 8.15826L19.8575 17.6897L13.518 20.2286L10.0654 18L20.1539 8.15826Z" fill="#087CFA"/>
</g>
<g filter="url(#filter2_d_32_10048)">
<path d="M20.1541 8.15831L17.0169 11.2183L12.9883 6.27602L14.9769 4.04059L20.1541 8.15831Z" fill="#7557B2"/>
</g>
<g filter="url(#filter3_d_32_10048)">
<path fill-rule="evenodd" clip-rule="evenodd" d="M3.69727 10.2908L7.44813 11.5457L17.0173 11.2183L11.4664 4.40742L6.08013 3.77142L3.69727 10.2908Z" fill="url(#paint1_linear_32_10048)"/>
</g>
<g filter="url(#filter4_d_32_10048)">
<path d="M5.02441 19.8223L10.0661 18L17.0176 11.2183L7.44841 11.5457L6.08041 16.1246L5.02441 19.8223Z" fill="#FF318C"/>
</g>
<g filter="url(#filter5_d_32_10048)">
<path d="M6.85645 6.85712H17.1422V17.1428H6.85645V6.85712Z" fill="black"/>
</g>
<path d="M8.13867 15.1989H11.9958V15.8417H8.13867V15.1989Z" fill="white"/>
<path d="M10.0638 8.84916V8.1463H8.14551V8.84916H8.6838V11.2766H8.14551V11.9794H10.0638V11.2766H9.52723V8.84916H10.0638Z" fill="white"/>
<path d="M11.9035 12.0343C11.6421 12.0428 11.3829 11.9837 11.151 11.8629C10.9604 11.7603 10.7907 11.6231 10.6504 11.4583L11.1801 10.8669C11.2769 10.9761 11.3889 11.0708 11.5127 11.148C11.6233 11.2166 11.7511 11.2523 11.8813 11.2509C11.9508 11.2542 12.0203 11.2427 12.0851 11.2169C12.1498 11.1912 12.2083 11.1519 12.2567 11.1017C12.3599 10.9621 12.4087 10.7896 12.3938 10.6166V8.14288H13.251V10.6543C13.2548 10.8577 13.2229 11.0602 13.1567 11.2526C13.1003 11.4125 13.0081 11.5574 12.8872 11.6762C12.7663 11.7951 12.6198 11.8847 12.459 11.9383C12.2763 12.0002 12.0844 12.0303 11.8915 12.0275" fill="white"/>
</g>
</g>
</g>
<defs>
<filter id="filter0_i_32_10048" x="1.5" y="1.5" width="21" height="25" filterUnits="userSpaceOnUse" color-interpolation-filters="sRGB">
<feFlood flood-opacity="0" result="BackgroundImageFix"/>
<feBlend mode="normal" in="SourceGraphic" in2="BackgroundImageFix" result="shape"/>
<feColorMatrix in="SourceAlpha" type="matrix" values="0 0 0 0 0 0 0 0 0 0 0 0 0 0 0 0 0 0 127 0" result="hardAlpha"/>
<feOffset dy="4"/>
<feGaussianBlur stdDeviation="2"/>
<feComposite in2="hardAlpha" operator="arithmetic" k2="-1" k3="1"/>
<feColorMatrix type="matrix" values="0 0 0 0 0 0 0 0 0 0 0 0 0 0 0 0 0 0 0.25 0"/>
<feBlend mode="normal" in2="shape" result="effect1_innerShadow_32_10048"/>
</filter>
<filter id="filter1_d_32_10048" x="6.06543" y="6.15826" width="18.0889" height="20.0703" filterUnits="userSpaceOnUse" color-interpolation-filters="sRGB">
<feFlood flood-opacity="0" result="BackgroundImageFix"/>
<feColorMatrix in="SourceAlpha" type="matrix" values="0 0 0 0 0 0 0 0 0 0 0 0 0 0 0 0 0 0 127 0" result="hardAlpha"/>
<feOffset dy="2"/>
<feGaussianBlur stdDeviation="2"/>
<feComposite in2="hardAlpha" operator="out"/>
<feColorMatrix type="matrix" values="0 0 0 0 0 0 0 0 0 0 0 0 0 0 0 0 0 0 0.25 0"/>
<feBlend mode="normal" in2="BackgroundImageFix" result="effect1_dropShadow_32_10048"/>
<feBlend mode="normal" in="SourceGraphic" in2="effect1_dropShadow_32_10048" result="shape"/>
</filter>
<filter id="filter2_d_32_10048" x="8.98828" y="2.04059" width="15.166" height="15.1777" filterUnits="userSpaceOnUse" color-interpolation-filters="sRGB">
<feFlood flood-opacity="0" result="BackgroundImageFix"/>
<feColorMatrix in="SourceAlpha" type="matrix" values="0 0 0 0 0 0 0 0 0 0 0 0 0 0 0 0 0 0 127 0" result="hardAlpha"/>
<feOffset dy="2"/>
<feGaussianBlur stdDeviation="2"/>
<feComposite in2="hardAlpha" operator="out"/>
<feColorMatrix type="matrix" values="0 0 0 0 0 0 0 0 0 0 0 0 0 0 0 0 0 0 0.25 0"/>
<feBlend mode="normal" in2="BackgroundImageFix" result="effect1_dropShadow_32_10048"/>
<feBlend mode="normal" in="SourceGraphic" in2="effect1_dropShadow_32_10048" result="shape"/>
</filter>
<filter id="filter3_d_32_10048" x="-0.302734" y="1.77142" width="21.3203" height="15.7743" filterUnits="userSpaceOnUse" color-interpolation-filters="sRGB">
<feFlood flood-opacity="0" result="BackgroundImageFix"/>
<feColorMatrix in="SourceAlpha" type="matrix" values="0 0 0 0 0 0 0 0 0 0 0 0 0 0 0 0 0 0 127 0" result="hardAlpha"/>
<feOffset dy="2"/>
<feGaussianBlur stdDeviation="2"/>
<feComposite in2="hardAlpha" operator="out"/>
<feColorMatrix type="matrix" values="0 0 0 0 0 0 0 0 0 0 0 0 0 0 0 0 0 0 0.25 0"/>
<feBlend mode="normal" in2="BackgroundImageFix" result="effect1_dropShadow_32_10048"/>
<feBlend mode="normal" in="SourceGraphic" in2="effect1_dropShadow_32_10048" result="shape"/>
</filter>
<filter id="filter4_d_32_10048" x="1.02441" y="9.21826" width="19.9932" height="16.6041" filterUnits="userSpaceOnUse" color-interpolation-filters="sRGB">
<feFlood flood-opacity="0" result="BackgroundImageFix"/>
<feColorMatrix in="SourceAlpha" type="matrix" values="0 0 0 0 0 0 0 0 0 0 0 0 0 0 0 0 0 0 127 0" result="hardAlpha"/>
<feOffset dy="2"/>
<feGaussianBlur stdDeviation="2"/>
<feComposite in2="hardAlpha" operator="out"/>
<feColorMatrix type="matrix" values="0 0 0 0 0 0 0 0 0 0 0 0 0 0 0 0 0 0 0.25 0"/>
<feBlend mode="normal" in2="BackgroundImageFix" result="effect1_dropShadow_32_10048"/>
<feBlend mode="normal" in="SourceGraphic" in2="effect1_dropShadow_32_10048" result="shape"/>
</filter>
<filter id="filter5_d_32_10048" x="2.85645" y="4.85712" width="18.2861" height="18.2857" filterUnits="userSpaceOnUse" color-interpolation-filters="sRGB">
<feFlood flood-opacity="0" result="BackgroundImageFix"/>
<feColorMatrix in="SourceAlpha" type="matrix" values="0 0 0 0 0 0 0 0 0 0 0 0 0 0 0 0 0 0 127 0" result="hardAlpha"/>
<feOffset dy="2"/>
<feGaussianBlur stdDeviation="2"/>
<feComposite in2="hardAlpha" operator="out"/>
<feColorMatrix type="matrix" values="0 0 0 0 0 0 0 0 0 0 0 0 0 0 0 0 0 0 0.25 0"/>
<feBlend mode="normal" in2="BackgroundImageFix" result="effect1_dropShadow_32_10048"/>
<feBlend mode="normal" in="SourceGraphic" in2="effect1_dropShadow_32_10048" result="shape"/>
</filter>
<linearGradient id="paint0_linear_32_10048" x1="12" y1="0" x2="12" y2="24" gradientUnits="userSpaceOnUse">
<stop stop-color="#FC801D"/>
<stop offset="0.244792" stop-color="#FE285B"/>
<stop offset="0.510417" stop-color="#FF318C"/>
<stop offset="0.744792" stop-color="#7557B2"/>
<stop offset="1" stop-color="#087CFA"/>
</linearGradient>
<linearGradient id="paint1_linear_32_10048" x1="6.2087" y1="7.5617" x2="16.5081" y2="24.5983" gradientUnits="userSpaceOnUse">
<stop stop-color="#FE2857"/>
<stop offset="0.08" stop-color="#FE295F"/>
<stop offset="0.21" stop-color="#FF2D76"/>
<stop offset="0.3" stop-color="#FF318C"/>
<stop offset="0.429456" stop-color="#EA3896"/>
<stop offset="0.55" stop-color="#B248AE"/>
<stop offset="0.79" stop-color="#5A63D6"/>
<stop offset="1" stop-color="#087CFA"/>
</linearGradient>
<clipPath id="clip0_32_10048">
<rect width="24" height="24" fill="white"/>
</clipPath>
</defs>
</svg>
