<svg width="24" height="24" viewBox="0 0 24 24" fill="none" xmlns="http://www.w3.org/2000/svg">
<g clip-path="url(#clip0_32_10070)">
<path d="M18 0H6C2.68629 0 0 2.68629 0 6V18C0 21.3137 2.68629 24 6 24H18C21.3137 24 24 21.3137 24 18V6C24 2.68629 21.3137 0 18 0Z" fill="url(#paint0_linear_32_10070)"/>
<path d="M18 0H6C2.68629 0 0 2.68629 0 6V18C0 21.3137 2.68629 24 6 24H18C21.3137 24 24 21.3137 24 18V6C24 2.68629 21.3137 0 18 0Z" fill="url(#paint1_linear_32_10070)"/>
<g filter="url(#filter0_i_32_10070)">
<path d="M18 1.5H6C3.51472 1.5 1.5 3.51472 1.5 6V18C1.5 20.4853 3.51472 22.5 6 22.5H18C20.4853 22.5 22.5 20.4853 22.5 18V6C22.5 3.51472 20.4853 1.5 18 1.5Z" fill="black" fill-opacity="0.7"/>
<g filter="url(#filter1_d_32_10070)">
<path d="M9.66747 14.6039C9.97502 15.2204 14.0296 15.214 14.3336 14.6039C14.6372 13.9945 12.6265 10.3351 12.0007 10.3344C11.3745 10.3344 9.35991 13.9873 9.66747 14.6039Z" fill="url(#paint2_linear_32_10070)"/>
</g>
<g filter="url(#filter2_d_32_10070)">
<path d="M4.97036 17.7387C5.89588 19.5971 18.1159 19.5758 19.0314 17.7387C19.947 15.9015 13.8863 4.875 12.0011 4.875C10.1151 4.875 4.04482 15.8801 4.97036 17.7387ZM7.39518 16.126C6.78862 14.9083 10.7666 7.69755 12.0018 7.69755C13.2374 7.69755 17.2086 14.9215 16.6084 16.126C16.0086 17.3306 8.00175 17.3438 7.39518 16.126Z" fill="url(#paint3_linear_32_10070)"/>
</g>
</g>
</g>
<defs>
<filter id="filter0_i_32_10070" x="1.5" y="1.5" width="21" height="25" filterUnits="userSpaceOnUse" color-interpolation-filters="sRGB">
<feFlood flood-opacity="0" result="BackgroundImageFix"/>
<feBlend mode="normal" in="SourceGraphic" in2="BackgroundImageFix" result="shape"/>
<feColorMatrix in="SourceAlpha" type="matrix" values="0 0 0 0 0 0 0 0 0 0 0 0 0 0 0 0 0 0 127 0" result="hardAlpha"/>
<feOffset dy="4"/>
<feGaussianBlur stdDeviation="2"/>
<feComposite in2="hardAlpha" operator="arithmetic" k2="-1" k3="1"/>
<feColorMatrix type="matrix" values="0 0 0 0 0 0 0 0 0 0 0 0 0 0 0 0 0 0 0.25 0"/>
<feBlend mode="normal" in2="shape" result="effect1_innerShadow_32_10070"/>
</filter>
<filter id="filter1_d_32_10070" x="5.63574" y="8.33441" width="12.7285" height="12.7295" filterUnits="userSpaceOnUse" color-interpolation-filters="sRGB">
<feFlood flood-opacity="0" result="BackgroundImageFix"/>
<feColorMatrix in="SourceAlpha" type="matrix" values="0 0 0 0 0 0 0 0 0 0 0 0 0 0 0 0 0 0 127 0" result="hardAlpha"/>
<feOffset dy="2"/>
<feGaussianBlur stdDeviation="2"/>
<feComposite in2="hardAlpha" operator="out"/>
<feColorMatrix type="matrix" values="0 0 0 0 0 0 0 0 0 0 0 0 0 0 0 0 0 0 0.25 0"/>
<feBlend mode="normal" in2="BackgroundImageFix" result="effect1_dropShadow_32_10070"/>
<feBlend mode="normal" in="SourceGraphic" in2="effect1_dropShadow_32_10070" result="shape"/>
</filter>
<filter id="filter2_d_32_10070" x="0.875" y="2.875" width="22.25" height="22.2495" filterUnits="userSpaceOnUse" color-interpolation-filters="sRGB">
<feFlood flood-opacity="0" result="BackgroundImageFix"/>
<feColorMatrix in="SourceAlpha" type="matrix" values="0 0 0 0 0 0 0 0 0 0 0 0 0 0 0 0 0 0 127 0" result="hardAlpha"/>
<feOffset dy="2"/>
<feGaussianBlur stdDeviation="2"/>
<feComposite in2="hardAlpha" operator="out"/>
<feColorMatrix type="matrix" values="0 0 0 0 0 0 0 0 0 0 0 0 0 0 0 0 0 0 0.25 0"/>
<feBlend mode="normal" in2="BackgroundImageFix" result="effect1_dropShadow_32_10070"/>
<feBlend mode="normal" in="SourceGraphic" in2="effect1_dropShadow_32_10070" result="shape"/>
</filter>
<linearGradient id="paint0_linear_32_10070" x1="268.553" y1="327.114" x2="235.785" y2="327.664" gradientUnits="userSpaceOnUse">
<stop stop-color="#FCFCFC"/>
<stop offset="1" stop-color="#D0D6DC"/>
</linearGradient>
<linearGradient id="paint1_linear_32_10070" x1="4.20611" y1="9.79838" x2="24.1058" y2="21.2871" gradientUnits="userSpaceOnUse">
<stop stop-color="#AA5CC3"/>
<stop offset="1" stop-color="#00A4DC"/>
</linearGradient>
<linearGradient id="paint2_linear_32_10070" x1="7.372" y1="10.6926" x2="19.1872" y2="17.5141" gradientUnits="userSpaceOnUse">
<stop stop-color="#AA5CC3"/>
<stop offset="1" stop-color="#00A4DC"/>
</linearGradient>
<linearGradient id="paint3_linear_32_10070" x1="7.37238" y1="10.6926" x2="19.1876" y2="17.5141" gradientUnits="userSpaceOnUse">
<stop stop-color="#AA5CC3"/>
<stop offset="1" stop-color="#00A4DC"/>
</linearGradient>
<clipPath id="clip0_32_10070">
<rect width="24" height="24" fill="white"/>
</clipPath>
</defs>
</svg>
