<svg width="24" height="24" viewBox="0 0 24 24" fill="none" xmlns="http://www.w3.org/2000/svg">
<g clip-path="url(#clip0_32_10121)">
<path d="M18 0H6C2.68629 0 0 2.68629 0 6V18C0 21.3137 2.68629 24 6 24H18C21.3137 24 24 21.3137 24 18V6C24 2.68629 21.3137 0 18 0Z" fill="url(#paint0_linear_32_10121)"/>
<g filter="url(#filter0_i_32_10121)">
<path d="M18 1.5H6C3.51472 1.5 1.5 3.51472 1.5 6V18C1.5 20.4853 3.51472 22.5 6 22.5H18C20.4853 22.5 22.5 20.4853 22.5 18V6C22.5 3.51472 20.4853 1.5 18 1.5Z" fill="black" fill-opacity="0.7"/>
<g filter="url(#filter1_d_32_10121)">
<path fill-rule="evenodd" clip-rule="evenodd" d="M12.75 5.4375H6C5.17157 5.4375 4.5 6.10907 4.5 6.9375V17.0625C4.5 17.8909 5.17157 18.5625 6 18.5625H18C18.8284 18.5625 19.5 17.8909 19.5 17.0625V12.1875L12.75 5.4375Z" fill="url(#paint1_linear_32_10121)"/>
</g>
<path d="M7.5 14.4375V15.5625C7.5 15.9767 7.83579 16.3125 8.25 16.3125H10.5M7.5 14.4375H10.5M7.5 14.4375V12.5625M10.5 16.3125V14.4375M10.5 16.3125H13.5M10.5 14.4375H13.5M10.5 14.4375V12.5625M7.5 12.5625H10.5M7.5 12.5625V11.4375C7.5 11.0233 7.83579 10.6875 8.25 10.6875H10.5M13.5 14.4375V16.3125M13.5 14.4375H16.5M13.5 14.4375V12.5625M10.5 12.5625H13.5M10.5 12.5625V10.6875M13.5 16.3125H15.75C16.1642 16.3125 16.5 15.9767 16.5 15.5625V14.4375M16.5 14.4375V12.5625M13.5 12.5625H16.5M13.5 12.5625V10.6875M16.5 12.5625V11.4375C16.5 11.0233 16.1642 10.6875 15.75 10.6875H13.5M10.5 10.6875H13.5" stroke="white" stroke-width="4"/>
<g filter="url(#filter2_d_32_10121)">
<path d="M19.4999 6.9375C19.4999 6.10907 18.8285 5.4375 18 5.4375H15L19.4999 9.9375V6.9375Z" fill="#97989A"/>
</g>
</g>
</g>
<defs>
<filter id="filter0_i_32_10121" x="1.5" y="1.5" width="21" height="25" filterUnits="userSpaceOnUse" color-interpolation-filters="sRGB">
<feFlood flood-opacity="0" result="BackgroundImageFix"/>
<feBlend mode="normal" in="SourceGraphic" in2="BackgroundImageFix" result="shape"/>
<feColorMatrix in="SourceAlpha" type="matrix" values="0 0 0 0 0 0 0 0 0 0 0 0 0 0 0 0 0 0 127 0" result="hardAlpha"/>
<feOffset dy="4"/>
<feGaussianBlur stdDeviation="2"/>
<feComposite in2="hardAlpha" operator="arithmetic" k2="-1" k3="1"/>
<feColorMatrix type="matrix" values="0 0 0 0 0 0 0 0 0 0 0 0 0 0 0 0 0 0 0.25 0"/>
<feBlend mode="normal" in2="shape" result="effect1_innerShadow_32_10121"/>
</filter>
<filter id="filter1_d_32_10121" x="0.5" y="3.4375" width="23" height="21.125" filterUnits="userSpaceOnUse" color-interpolation-filters="sRGB">
<feFlood flood-opacity="0" result="BackgroundImageFix"/>
<feColorMatrix in="SourceAlpha" type="matrix" values="0 0 0 0 0 0 0 0 0 0 0 0 0 0 0 0 0 0 127 0" result="hardAlpha"/>
<feOffset dy="2"/>
<feGaussianBlur stdDeviation="2"/>
<feComposite in2="hardAlpha" operator="out"/>
<feColorMatrix type="matrix" values="0 0 0 0 0 0 0 0 0 0 0 0 0 0 0 0 0 0 0.25 0"/>
<feBlend mode="normal" in2="BackgroundImageFix" result="effect1_dropShadow_32_10121"/>
<feBlend mode="normal" in="SourceGraphic" in2="effect1_dropShadow_32_10121" result="shape"/>
</filter>
<filter id="filter2_d_32_10121" x="11" y="3.4375" width="12.5" height="12.5" filterUnits="userSpaceOnUse" color-interpolation-filters="sRGB">
<feFlood flood-opacity="0" result="BackgroundImageFix"/>
<feColorMatrix in="SourceAlpha" type="matrix" values="0 0 0 0 0 0 0 0 0 0 0 0 0 0 0 0 0 0 127 0" result="hardAlpha"/>
<feOffset dy="2"/>
<feGaussianBlur stdDeviation="2"/>
<feComposite in2="hardAlpha" operator="out"/>
<feColorMatrix type="matrix" values="0 0 0 0 0 0 0 0 0 0 0 0 0 0 0 0 0 0 0.25 0"/>
<feBlend mode="normal" in2="BackgroundImageFix" result="effect1_dropShadow_32_10121"/>
<feBlend mode="normal" in="SourceGraphic" in2="effect1_dropShadow_32_10121" result="shape"/>
</filter>
<linearGradient id="paint0_linear_32_10121" x1="24" y1="0" x2="0" y2="24" gradientUnits="userSpaceOnUse">
<stop stop-color="#75EA53"/>
<stop offset="1" stop-color="#068540"/>
</linearGradient>
<linearGradient id="paint1_linear_32_10121" x1="19.5" y1="5.4375" x2="4.5" y2="20.4375" gradientUnits="userSpaceOnUse">
<stop stop-color="#75EA53"/>
<stop offset="1" stop-color="#068540"/>
</linearGradient>
<clipPath id="clip0_32_10121">
<rect width="24" height="24" fill="white"/>
</clipPath>
</defs>
</svg>
