<svg width="24" height="24" viewBox="0 0 24 24" fill="none" xmlns="http://www.w3.org/2000/svg">
<g clip-path="url(#clip0_32_10163)">
<path d="M18 0H6C2.68629 0 0 2.68629 0 6V18C0 21.3137 2.68629 24 6 24H18C21.3137 24 24 21.3137 24 18V6C24 2.68629 21.3137 0 18 0Z" fill="url(#paint0_linear_32_10163)"/>
<g filter="url(#filter0_i_32_10163)">
<path d="M18 1.5H6C3.51472 1.5 1.5 3.51472 1.5 6V18C1.5 20.4853 3.51472 22.5 6 22.5H18C20.4853 22.5 22.5 20.4853 22.5 18V6C22.5 3.51472 20.4853 1.5 18 1.5Z" fill="black" fill-opacity="0.7"/>
<g filter="url(#filter1_d_32_10163)">
<path fill-rule="evenodd" clip-rule="evenodd" d="M12.75 6.375H6C5.17157 6.375 4.5 7.04657 4.5 7.875V16.125C4.5 16.9534 5.17157 17.625 6 17.625H18C18.8284 17.625 19.5 16.9534 19.5 16.125V13.125L12.75 6.375Z" fill="url(#paint1_linear_32_10163)"/>
</g>
<g filter="url(#filter2_d_32_10163)">
<path d="M19.4999 7.875C19.4999 7.04657 18.8285 6.375 18 6.375H15L19.4999 10.875V7.875Z" fill="#97989A"/>
</g>
<path fill-rule="evenodd" clip-rule="evenodd" d="M14.625 8.25H7.6875C7.48039 8.25 7.3125 8.41789 7.3125 8.625C7.3125 8.83211 7.48039 9 7.6875 9H15.375L14.625 8.25Z" fill="white"/>
<path d="M6.375 12C6.375 11.7929 6.20711 11.625 6 11.625C5.79289 11.625 5.625 11.7929 5.625 12C5.625 12.2071 5.79289 12.375 6 12.375C6.20711 12.375 6.375 12.2071 6.375 12Z" fill="white"/>
<path d="M14.25 11.625H7.5C7.29289 11.625 7.125 11.7929 7.125 12C7.125 12.2071 7.29289 12.375 7.5 12.375H14.25C14.4571 12.375 14.625 12.2071 14.625 12C14.625 11.7929 14.4571 11.625 14.25 11.625Z" fill="white"/>
<path d="M6.375 13.5C6.375 13.2929 6.20711 13.125 6 13.125C5.79289 13.125 5.625 13.2929 5.625 13.5C5.625 13.7071 5.79289 13.875 6 13.875C6.20711 13.875 6.375 13.7071 6.375 13.5Z" fill="white"/>
<path d="M12.75 13.125H7.5C7.29289 13.125 7.125 13.2929 7.125 13.5C7.125 13.7071 7.29289 13.875 7.5 13.875H12.75C12.9571 13.875 13.125 13.7071 13.125 13.5C13.125 13.2929 12.9571 13.125 12.75 13.125Z" fill="white"/>
<path d="M6.375 15C6.375 14.7929 6.20711 14.625 6 14.625C5.79289 14.625 5.625 14.7929 5.625 15C5.625 15.2071 5.79289 15.375 6 15.375C6.20711 15.375 6.375 15.2071 6.375 15Z" fill="white"/>
<path d="M13.6875 14.625H7.5C7.29289 14.625 7.125 14.7929 7.125 15C7.125 15.2071 7.29289 15.375 7.5 15.375H13.6875C13.8946 15.375 14.0625 15.2071 14.0625 15C14.0625 14.7929 13.8946 14.625 13.6875 14.625Z" fill="white"/>
</g>
</g>
<defs>
<filter id="filter0_i_32_10163" x="1.5" y="1.5" width="21" height="25" filterUnits="userSpaceOnUse" color-interpolation-filters="sRGB">
<feFlood flood-opacity="0" result="BackgroundImageFix"/>
<feBlend mode="normal" in="SourceGraphic" in2="BackgroundImageFix" result="shape"/>
<feColorMatrix in="SourceAlpha" type="matrix" values="0 0 0 0 0 0 0 0 0 0 0 0 0 0 0 0 0 0 127 0" result="hardAlpha"/>
<feOffset dy="4"/>
<feGaussianBlur stdDeviation="2"/>
<feComposite in2="hardAlpha" operator="arithmetic" k2="-1" k3="1"/>
<feColorMatrix type="matrix" values="0 0 0 0 0 0 0 0 0 0 0 0 0 0 0 0 0 0 0.25 0"/>
<feBlend mode="normal" in2="shape" result="effect1_innerShadow_32_10163"/>
</filter>
<filter id="filter1_d_32_10163" x="0.5" y="4.375" width="23" height="19.25" filterUnits="userSpaceOnUse" color-interpolation-filters="sRGB">
<feFlood flood-opacity="0" result="BackgroundImageFix"/>
<feColorMatrix in="SourceAlpha" type="matrix" values="0 0 0 0 0 0 0 0 0 0 0 0 0 0 0 0 0 0 127 0" result="hardAlpha"/>
<feOffset dy="2"/>
<feGaussianBlur stdDeviation="2"/>
<feComposite in2="hardAlpha" operator="out"/>
<feColorMatrix type="matrix" values="0 0 0 0 0 0 0 0 0 0 0 0 0 0 0 0 0 0 0.25 0"/>
<feBlend mode="normal" in2="BackgroundImageFix" result="effect1_dropShadow_32_10163"/>
<feBlend mode="normal" in="SourceGraphic" in2="effect1_dropShadow_32_10163" result="shape"/>
</filter>
<filter id="filter2_d_32_10163" x="11" y="4.375" width="12.5" height="12.5" filterUnits="userSpaceOnUse" color-interpolation-filters="sRGB">
<feFlood flood-opacity="0" result="BackgroundImageFix"/>
<feColorMatrix in="SourceAlpha" type="matrix" values="0 0 0 0 0 0 0 0 0 0 0 0 0 0 0 0 0 0 127 0" result="hardAlpha"/>
<feOffset dy="2"/>
<feGaussianBlur stdDeviation="2"/>
<feComposite in2="hardAlpha" operator="out"/>
<feColorMatrix type="matrix" values="0 0 0 0 0 0 0 0 0 0 0 0 0 0 0 0 0 0 0.25 0"/>
<feBlend mode="normal" in2="BackgroundImageFix" result="effect1_dropShadow_32_10163"/>
<feBlend mode="normal" in="SourceGraphic" in2="effect1_dropShadow_32_10163" result="shape"/>
</filter>
<linearGradient id="paint0_linear_32_10163" x1="24" y1="0" x2="0" y2="24" gradientUnits="userSpaceOnUse">
<stop stop-color="#F79740"/>
<stop offset="1" stop-color="#D21E10"/>
</linearGradient>
<linearGradient id="paint1_linear_32_10163" x1="19.5" y1="6.375" x2="8.7" y2="20.775" gradientUnits="userSpaceOnUse">
<stop stop-color="#F79740"/>
<stop offset="1" stop-color="#D21E10"/>
</linearGradient>
<clipPath id="clip0_32_10163">
<rect width="24" height="24" fill="white"/>
</clipPath>
</defs>
</svg>
