<svg width="24" height="24" viewBox="0 0 24 24" fill="none" xmlns="http://www.w3.org/2000/svg">
<g clip-path="url(#clip0_32_10130)">
<path d="M18 0H6C2.68629 0 0 2.68629 0 6V18C0 21.3137 2.68629 24 6 24H18C21.3137 24 24 21.3137 24 18V6C24 2.68629 21.3137 0 18 0Z" fill="url(#paint0_linear_32_10130)"/>
<g filter="url(#filter0_i_32_10130)">
<path d="M18 1.5H6C3.51472 1.5 1.5 3.51472 1.5 6V18C1.5 20.4853 3.51472 22.5 6 22.5H18C20.4853 22.5 22.5 20.4853 22.5 18V6C22.5 3.51472 20.4853 1.5 18 1.5Z" fill="black" fill-opacity="0.7"/>
<g filter="url(#filter1_d_32_10130)">
<path fill-rule="evenodd" clip-rule="evenodd" d="M12.75 4.5H6C5.17157 4.5 4.5 5.17157 4.5 6V18C4.5 18.8284 5.17157 19.5 6 19.5H18C18.8284 19.5 19.5 18.8284 19.5 18V11.25L12.75 4.5Z" fill="url(#paint1_linear_32_10130)"/>
</g>
<g filter="url(#filter2_d_32_10130)">
<path d="M19.4999 6C19.4999 5.17157 18.8285 4.5 18 4.5H15L19.4999 9V6Z" fill="#97989A"/>
</g>
<path d="M8.625 17.25C10.2819 17.25 11.625 15.9069 11.625 14.25C11.625 12.5931 10.2819 11.25 8.625 11.25C6.96815 11.25 5.625 12.5931 5.625 14.25C5.625 15.9069 6.96815 17.25 8.625 17.25Z" fill="#FAFAFA"/>
<path d="M17.625 13.125H13.875C13.6679 13.125 13.5 13.2929 13.5 13.5V17.25C13.5 17.4571 13.6679 17.625 13.875 17.625H17.625C17.8321 17.625 18 17.4571 18 17.25V13.5C18 13.2929 17.8321 13.125 17.625 13.125Z" stroke="white" stroke-width="4"/>
<path d="M14.2994 18.375H9.70082C9.40131 18.375 9.22268 18.0412 9.3888 17.792L11.6881 14.343C11.8365 14.1204 12.1637 14.1204 12.3122 14.343L14.6115 17.792C14.7776 18.0412 14.599 18.375 14.2994 18.375Z" fill="#F9E285"/>
</g>
</g>
<defs>
<filter id="filter0_i_32_10130" x="1.5" y="1.5" width="21" height="25" filterUnits="userSpaceOnUse" color-interpolation-filters="sRGB">
<feFlood flood-opacity="0" result="BackgroundImageFix"/>
<feBlend mode="normal" in="SourceGraphic" in2="BackgroundImageFix" result="shape"/>
<feColorMatrix in="SourceAlpha" type="matrix" values="0 0 0 0 0 0 0 0 0 0 0 0 0 0 0 0 0 0 127 0" result="hardAlpha"/>
<feOffset dy="4"/>
<feGaussianBlur stdDeviation="2"/>
<feComposite in2="hardAlpha" operator="arithmetic" k2="-1" k3="1"/>
<feColorMatrix type="matrix" values="0 0 0 0 0 0 0 0 0 0 0 0 0 0 0 0 0 0 0.25 0"/>
<feBlend mode="normal" in2="shape" result="effect1_innerShadow_32_10130"/>
</filter>
<filter id="filter1_d_32_10130" x="0.5" y="2.5" width="23" height="23" filterUnits="userSpaceOnUse" color-interpolation-filters="sRGB">
<feFlood flood-opacity="0" result="BackgroundImageFix"/>
<feColorMatrix in="SourceAlpha" type="matrix" values="0 0 0 0 0 0 0 0 0 0 0 0 0 0 0 0 0 0 127 0" result="hardAlpha"/>
<feOffset dy="2"/>
<feGaussianBlur stdDeviation="2"/>
<feComposite in2="hardAlpha" operator="out"/>
<feColorMatrix type="matrix" values="0 0 0 0 0 0 0 0 0 0 0 0 0 0 0 0 0 0 0.25 0"/>
<feBlend mode="normal" in2="BackgroundImageFix" result="effect1_dropShadow_32_10130"/>
<feBlend mode="normal" in="SourceGraphic" in2="effect1_dropShadow_32_10130" result="shape"/>
</filter>
<filter id="filter2_d_32_10130" x="11" y="2.5" width="12.5" height="12.5" filterUnits="userSpaceOnUse" color-interpolation-filters="sRGB">
<feFlood flood-opacity="0" result="BackgroundImageFix"/>
<feColorMatrix in="SourceAlpha" type="matrix" values="0 0 0 0 0 0 0 0 0 0 0 0 0 0 0 0 0 0 127 0" result="hardAlpha"/>
<feOffset dy="2"/>
<feGaussianBlur stdDeviation="2"/>
<feComposite in2="hardAlpha" operator="out"/>
<feColorMatrix type="matrix" values="0 0 0 0 0 0 0 0 0 0 0 0 0 0 0 0 0 0 0.25 0"/>
<feBlend mode="normal" in2="BackgroundImageFix" result="effect1_dropShadow_32_10130"/>
<feBlend mode="normal" in="SourceGraphic" in2="effect1_dropShadow_32_10130" result="shape"/>
</filter>
<linearGradient id="paint0_linear_32_10130" x1="24" y1="0" x2="0" y2="24" gradientUnits="userSpaceOnUse">
<stop stop-color="#FFFE4F"/>
<stop offset="1" stop-color="#CE7732"/>
</linearGradient>
<linearGradient id="paint1_linear_32_10130" x1="19.5" y1="4.5" x2="4.5" y2="19.5" gradientUnits="userSpaceOnUse">
<stop stop-color="#FFFE4F"/>
<stop offset="1" stop-color="#CE7732"/>
</linearGradient>
<clipPath id="clip0_32_10130">
<rect width="24" height="24" fill="white"/>
</clipPath>
</defs>
</svg>
