<svg width="24" height="24" viewBox="0 0 24 24" fill="none" xmlns="http://www.w3.org/2000/svg">
<g clip-path="url(#clip0_32_10109)">
<path d="M18 0H6C2.68629 0 0 2.68629 0 6V18C0 21.3137 2.68629 24 6 24H18C21.3137 24 24 21.3137 24 18V6C24 2.68629 21.3137 0 18 0Z" fill="url(#paint0_linear_32_10109)"/>
<g filter="url(#filter0_i_32_10109)">
<path d="M18 1.5H6C3.51472 1.5 1.5 3.51472 1.5 6V18C1.5 20.4853 3.51472 22.5 6 22.5H18C20.4853 22.5 22.5 20.4853 22.5 18V6C22.5 3.51472 20.4853 1.5 18 1.5Z" fill="black" fill-opacity="0.7"/>
<g filter="url(#filter1_d_32_10109)">
<path fill-rule="evenodd" clip-rule="evenodd" d="M12.75 4.5H6C5.17157 4.5 4.5 5.17157 4.5 6V18C4.5 18.8284 5.17157 19.5 6 19.5H18C18.8284 19.5 19.5 18.8284 19.5 18V11.25L12.75 4.5Z" fill="url(#paint1_linear_32_10109)"/>
</g>
<g filter="url(#filter2_d_32_10109)">
<path d="M19.4999 6C19.4999 5.17157 18.8285 4.5 18 4.5H15L19.4999 9V6Z" fill="#97989A"/>
</g>
<path d="M16.5 14.625C16.5 15.4534 14.4853 16.125 12 16.125C9.51473 16.125 7.5 15.4534 7.5 14.625V16.125C7.5 16.9534 9.51473 17.625 12 17.625C14.4853 17.625 16.5 16.9534 16.5 16.125V14.625Z" fill="white"/>
<path d="M16.5 12.5625C16.5 13.3909 14.4853 14.0625 12 14.0625C9.51473 14.0625 7.5 13.3909 7.5 12.5625V14.0625C7.5 14.8909 9.51473 15.5625 12 15.5625C14.4853 15.5625 16.5 14.8909 16.5 14.0625V12.5625Z" fill="white"/>
<path d="M16.5 10.5C16.5 11.3284 14.4853 12 12 12C9.51473 12 7.5 11.3284 7.5 10.5V12C7.5 12.8284 9.51473 13.5 12 13.5C14.4853 13.5 16.5 12.8284 16.5 12V10.5Z" fill="white"/>
<path d="M12 12C14.4853 12 16.5 11.3284 16.5 10.5C16.5 9.67157 14.4853 9 12 9C9.51473 9 7.5 9.67157 7.5 10.5C7.5 11.3284 9.51473 12 12 12Z" fill="#E6E6E6"/>
</g>
</g>
<defs>
<filter id="filter0_i_32_10109" x="1.5" y="1.5" width="21" height="25" filterUnits="userSpaceOnUse" color-interpolation-filters="sRGB">
<feFlood flood-opacity="0" result="BackgroundImageFix"/>
<feBlend mode="normal" in="SourceGraphic" in2="BackgroundImageFix" result="shape"/>
<feColorMatrix in="SourceAlpha" type="matrix" values="0 0 0 0 0 0 0 0 0 0 0 0 0 0 0 0 0 0 127 0" result="hardAlpha"/>
<feOffset dy="4"/>
<feGaussianBlur stdDeviation="2"/>
<feComposite in2="hardAlpha" operator="arithmetic" k2="-1" k3="1"/>
<feColorMatrix type="matrix" values="0 0 0 0 0 0 0 0 0 0 0 0 0 0 0 0 0 0 0.25 0"/>
<feBlend mode="normal" in2="shape" result="effect1_innerShadow_32_10109"/>
</filter>
<filter id="filter1_d_32_10109" x="0.5" y="2.5" width="23" height="23" filterUnits="userSpaceOnUse" color-interpolation-filters="sRGB">
<feFlood flood-opacity="0" result="BackgroundImageFix"/>
<feColorMatrix in="SourceAlpha" type="matrix" values="0 0 0 0 0 0 0 0 0 0 0 0 0 0 0 0 0 0 127 0" result="hardAlpha"/>
<feOffset dy="2"/>
<feGaussianBlur stdDeviation="2"/>
<feComposite in2="hardAlpha" operator="out"/>
<feColorMatrix type="matrix" values="0 0 0 0 0 0 0 0 0 0 0 0 0 0 0 0 0 0 0.25 0"/>
<feBlend mode="normal" in2="BackgroundImageFix" result="effect1_dropShadow_32_10109"/>
<feBlend mode="normal" in="SourceGraphic" in2="effect1_dropShadow_32_10109" result="shape"/>
</filter>
<filter id="filter2_d_32_10109" x="11" y="2.5" width="12.5" height="12.5" filterUnits="userSpaceOnUse" color-interpolation-filters="sRGB">
<feFlood flood-opacity="0" result="BackgroundImageFix"/>
<feColorMatrix in="SourceAlpha" type="matrix" values="0 0 0 0 0 0 0 0 0 0 0 0 0 0 0 0 0 0 127 0" result="hardAlpha"/>
<feOffset dy="2"/>
<feGaussianBlur stdDeviation="2"/>
<feComposite in2="hardAlpha" operator="out"/>
<feColorMatrix type="matrix" values="0 0 0 0 0 0 0 0 0 0 0 0 0 0 0 0 0 0 0.25 0"/>
<feBlend mode="normal" in2="BackgroundImageFix" result="effect1_dropShadow_32_10109"/>
<feBlend mode="normal" in="SourceGraphic" in2="effect1_dropShadow_32_10109" result="shape"/>
</filter>
<linearGradient id="paint0_linear_32_10109" x1="24" y1="0" x2="0" y2="24" gradientUnits="userSpaceOnUse">
<stop stop-color="#F353FB"/>
<stop offset="1" stop-color="#7C26AD"/>
</linearGradient>
<linearGradient id="paint1_linear_32_10109" x1="19.5" y1="4.5" x2="4.5" y2="19.5" gradientUnits="userSpaceOnUse">
<stop stop-color="#F353FB"/>
<stop offset="1" stop-color="#7C26AD"/>
</linearGradient>
<clipPath id="clip0_32_10109">
<rect width="24" height="24" fill="white"/>
</clipPath>
</defs>
</svg>
