<svg width="24" height="24" viewBox="0 0 24 24" fill="none" xmlns="http://www.w3.org/2000/svg">
<g clip-path="url(#clip0_32_10247)">
<path d="M18 0H6C2.68629 0 0 2.68629 0 6V18C0 21.3137 2.68629 24 6 24H18C21.3137 24 24 21.3137 24 18V6C24 2.68629 21.3137 0 18 0Z" fill="url(#paint0_linear_32_10247)"/>
<g filter="url(#filter0_i_32_10247)">
<path d="M18 1.5H6C3.51472 1.5 1.5 3.51472 1.5 6V18C1.5 20.4853 3.51472 22.5 6 22.5H18C20.4853 22.5 22.5 20.4853 22.5 18V6C22.5 3.51472 20.4853 1.5 18 1.5Z" fill="black" fill-opacity="0.7"/>
<mask id="mask0_32_10247" style="mask-type:luminance" maskUnits="userSpaceOnUse" x="3" y="4" width="18" height="16">
<path d="M21 4.3125H3V19.6875H21V4.3125Z" fill="white"/>
</mask>
<g mask="url(#mask0_32_10247)">
<g filter="url(#filter1_d_32_10247)">
<path d="M5.6455 6.32294C6.29789 8.63714 6.00884 11.5328 19.7444 7.15062L20.4728 13.8107C20.6018 14.9898 19.6825 16.0349 18.4117 16.1541C15.1094 9.86273 7.58643 10.7355 4.31289 15.3264L3.58434 8.66629C3.45535 7.48727 4.37463 6.44213 5.6455 6.32294Z" fill="#08A7E6"/>
<path d="M5.6451 6.32294L17.2171 5.23758C18.488 5.11839 19.615 5.97161 19.7438 7.15063C12.7289 8.87206 12.2545 13.5296 18.4113 16.1541L6.83927 17.2395C5.56841 17.3587 4.44146 16.5055 4.3125 15.3264C12.3728 12.7929 11.4347 9.29101 5.6451 6.32294Z" fill="#322374"/>
<path d="M18.6399 6.30432H5.37597C4.74548 6.30432 4.23438 6.81406 4.23438 7.44284V15.2506C4.23438 15.8794 4.74548 16.3891 5.37597 16.3891H18.6399C19.2704 16.3891 19.7815 15.8794 19.7815 15.2506V7.44284C19.7815 6.81406 19.2704 6.30432 18.6399 6.30432Z" fill="white"/>
<path d="M15.4512 16.3836C15.4512 15.8311 15.6713 15.3013 16.063 14.9106C16.4546 14.5199 16.9858 14.3002 17.5398 14.3C18.0938 14.2997 18.6252 14.5189 19.0171 14.9093C19.4092 15.2996 19.6297 15.8293 19.6302 16.3818C19.6308 16.9342 19.4114 17.4643 19.0201 17.8555C18.629 18.2467 18.098 18.4669 17.5441 18.4678C16.9901 18.4687 16.4584 18.2501 16.066 17.8602C15.6735 17.4703 15.4524 16.9409 15.4512 16.3885" fill="white"/>
<path d="M15.4512 16.3836C15.4512 15.8311 15.6713 15.3013 16.063 14.9106C16.4546 14.5199 16.9858 14.3002 17.5398 14.3C18.0938 14.2997 18.6252 14.5189 19.0171 14.9093C19.4092 15.2996 19.6297 15.8293 19.6302 16.3818C19.6308 16.9342 19.4114 17.4643 19.0201 17.8555C18.629 18.2467 18.098 18.4669 17.5441 18.4678C16.9901 18.4687 16.4584 18.2501 16.066 17.8602C15.6735 17.4703 15.4524 16.9409 15.4512 16.3885" stroke="#322374" stroke-width="2.66667" stroke-linecap="round" stroke-linejoin="round"/>
<path fill-rule="evenodd" clip-rule="evenodd" d="M16.6861 15.0341L19.1568 16.4567L16.6816 17.8036L16.6861 15.0341Z" fill="black"/>
</g>
</g>
</g>
</g>
<defs>
<filter id="filter0_i_32_10247" x="1.5" y="1.5" width="21" height="25" filterUnits="userSpaceOnUse" color-interpolation-filters="sRGB">
<feFlood flood-opacity="0" result="BackgroundImageFix"/>
<feBlend mode="normal" in="SourceGraphic" in2="BackgroundImageFix" result="shape"/>
<feColorMatrix in="SourceAlpha" type="matrix" values="0 0 0 0 0 0 0 0 0 0 0 0 0 0 0 0 0 0 127 0" result="hardAlpha"/>
<feOffset dy="4"/>
<feGaussianBlur stdDeviation="2"/>
<feComposite in2="hardAlpha" operator="arithmetic" k2="-1" k3="1"/>
<feColorMatrix type="matrix" values="0 0 0 0 0 0 0 0 0 0 0 0 0 0 0 0 0 0 0.25 0"/>
<feBlend mode="normal" in2="shape" result="effect1_innerShadow_32_10247"/>
</filter>
<filter id="filter1_d_32_10247" x="-0.427734" y="3.22647" width="25.3916" height="22.5747" filterUnits="userSpaceOnUse" color-interpolation-filters="sRGB">
<feFlood flood-opacity="0" result="BackgroundImageFix"/>
<feColorMatrix in="SourceAlpha" type="matrix" values="0 0 0 0 0 0 0 0 0 0 0 0 0 0 0 0 0 0 127 0" result="hardAlpha"/>
<feOffset dy="2"/>
<feGaussianBlur stdDeviation="2"/>
<feComposite in2="hardAlpha" operator="out"/>
<feColorMatrix type="matrix" values="0 0 0 0 0 0 0 0 0 0 0 0 0 0 0 0 0 0 0.25 0"/>
<feBlend mode="normal" in2="BackgroundImageFix" result="effect1_dropShadow_32_10247"/>
<feBlend mode="normal" in="SourceGraphic" in2="effect1_dropShadow_32_10247" result="shape"/>
</filter>
<linearGradient id="paint0_linear_32_10247" x1="4.96875" y1="18.5625" x2="23.7184" y2="3.84323" gradientUnits="userSpaceOnUse">
<stop stop-color="#322374"/>
<stop offset="1" stop-color="#08A7E6"/>
</linearGradient>
<clipPath id="clip0_32_10247">
<rect width="24" height="24" fill="white"/>
</clipPath>
</defs>
</svg>
