<svg width="24" height="24" viewBox="0 0 24 24" fill="none" xmlns="http://www.w3.org/2000/svg">
<g clip-path="url(#clip0_32_10273)">
<path d="M18 0H6C2.68629 0 0 2.68629 0 6V18C0 21.3137 2.68629 24 6 24H18C21.3137 24 24 21.3137 24 18V6C24 2.68629 21.3137 0 18 0Z" fill="url(#paint0_linear_32_10273)"/>
<g filter="url(#filter0_i_32_10273)">
<path d="M18 1.5H6C3.51472 1.5 1.5 3.51472 1.5 6V18C1.5 20.4853 3.51472 22.5 6 22.5H18C20.4853 22.5 22.5 20.4853 22.5 18V6C22.5 3.51472 20.4853 1.5 18 1.5Z" fill="black" fill-opacity="0.7"/>
<mask id="mask0_32_10273" style="mask-type:luminance" maskUnits="userSpaceOnUse" x="3" y="3" width="18" height="18">
<path d="M21 3H3V21H21V3Z" fill="white"/>
</mask>
<g mask="url(#mask0_32_10273)">
<g filter="url(#filter1_d_32_10273)">
<path d="M16.4341 19.7145C16.3235 20.5358 15.5198 21.1774 14.7212 20.9558C13.5832 20.6423 12.2656 20.1535 11.08 20.0623C10.9237 20.0503 9.26297 19.9243 9.26297 19.9243C8.96921 19.9033 8.69348 19.7751 8.48831 19.5638L5.35736 16.34C5.01519 15.9877 4.92257 15.4623 5.12364 15.0143C5.12364 15.0143 7.05964 10.76 7.13154 10.5388C7.20345 10.3175 7.46734 8.38791 7.62371 7.35132C7.66515 7.07661 7.80079 6.82478 8.00738 6.63899L11.7112 3.30758C12.2265 2.84412 13.0263 2.9128 13.455 3.45732L16.5664 7.40928C16.7424 7.63296 16.8326 7.91091 16.834 8.1955C16.8375 8.94425 16.8993 10.4814 17.3133 11.4715C17.7161 12.4346 18.4552 13.4747 18.8416 13.9865C18.9899 14.1829 19.0126 14.4485 18.8873 14.6604C18.6146 15.122 18.076 16.0082 17.3133 17.1452C16.7876 17.9292 16.5439 18.8983 16.4341 19.7145Z" fill="#6C31E3"/>
<path d="M8.82572 19.8075C10.2797 16.8556 10.2392 14.7409 9.62046 13.2317C9.05104 11.8429 7.99201 10.9669 7.15726 10.4232C7.13967 10.5017 7.11419 10.5784 7.08117 10.652L5.12363 15.0143C4.92257 15.4623 5.0152 15.9877 5.35735 16.34L8.4883 19.5637C8.58653 19.665 8.70092 19.7471 8.82572 19.8075Z" fill="url(#paint1_radial_32_10273)"/>
<path d="M14.7214 20.9554C15.5199 21.1768 16.3234 20.5354 16.434 19.7141C16.5292 19.007 16.7246 18.1854 17.1169 17.4687C16.2169 15.5315 15.1286 14.5269 13.9356 14.0816C12.6728 13.6103 11.2926 13.7657 9.89412 14.1053C10.2067 15.528 10.0196 17.3861 8.82715 19.8073C8.96294 19.8729 9.111 19.913 9.26397 19.9239C9.26397 19.9239 10.1244 19.9963 11.1478 20.0689C12.1711 20.1412 13.6939 20.6704 14.7214 20.9554Z" fill="url(#paint2_radial_32_10273)"/>
<path d="M12.783 13.8161C13.1759 13.8572 13.561 13.9419 13.9358 14.0817C15.1291 14.527 16.2176 15.5316 17.1177 17.4687C17.1782 17.3581 17.2434 17.25 17.3137 17.1452C18.0763 16.0081 18.615 15.1219 18.8877 14.6604C19.013 14.4485 18.9901 14.1829 18.842 13.9865C18.4556 13.4747 17.7165 12.4346 17.3137 11.4715C16.8997 10.4814 16.8379 8.94422 16.8344 8.1955C16.833 7.91089 16.7428 7.63294 16.5668 7.40927L13.4554 3.45729C13.4388 3.43616 13.4215 3.41574 13.4038 3.39606C13.6321 4.14422 13.6167 4.74608 13.4758 5.2932C13.3453 5.80041 13.1069 6.26057 12.8551 6.74665C12.7707 6.90966 12.6847 7.07567 12.6008 7.24731C12.2667 7.93058 11.9652 8.70381 11.9207 9.74065C11.8762 10.7775 12.0886 12.0781 12.783 13.8161Z" fill="url(#paint3_radial_32_10273)"/>
<path d="M12.7822 13.8161C12.0879 12.0781 11.8752 10.7775 11.9197 9.74061C11.9643 8.70366 12.2659 7.93044 12.5999 7.24712C12.6839 7.07546 12.7698 6.90952 12.8543 6.74646C13.106 6.26038 13.3444 5.80026 13.4749 5.29311C13.6158 4.74585 13.6312 4.14383 13.4027 3.39536C12.9638 2.9082 12.2061 2.86228 11.711 3.30756L8.00724 6.63896C7.80065 6.82476 7.66501 7.07659 7.62358 7.35129L7.1727 10.3401C7.16851 10.3679 7.16334 10.3954 7.15723 10.4228C7.99201 10.9665 9.05124 11.8426 9.62069 13.2315C9.73192 13.5028 9.82447 13.7936 9.89302 14.1054C10.8765 13.8666 11.851 13.7189 12.7822 13.8161Z" fill="url(#paint4_radial_32_10273)"/>
<path fill-rule="evenodd" clip-rule="evenodd" d="M11.9272 9.67231C11.8825 10.7009 12.0109 11.8808 12.7038 13.6152L12.4862 13.5956C11.8646 11.7857 11.7293 10.8577 11.7746 9.81492C11.8199 8.77162 12.157 7.96932 12.493 7.28499C12.578 7.11166 12.7766 6.7862 12.8615 6.62283C13.1131 6.13914 13.2805 5.88361 13.4242 5.44149C13.6251 4.82371 13.5816 4.53112 13.5587 4.23993C13.7182 5.29255 13.1129 6.20787 12.6552 7.14012C12.3218 7.81923 11.9718 8.64421 11.9272 9.67231Z" fill="url(#paint5_radial_32_10273)"/>
<path fill-rule="evenodd" clip-rule="evenodd" d="M9.82553 13.3081C9.90771 13.4982 9.98534 13.6516 10.0343 13.8867L9.85278 13.9275C9.77725 13.653 9.71888 13.4577 9.61433 13.2222C8.98868 11.7462 7.98462 10.9869 7.16406 10.4301C8.15519 10.9633 9.17245 11.7979 9.82553 13.3081Z" fill="url(#paint6_radial_32_10273)"/>
<path fill-rule="evenodd" clip-rule="evenodd" d="M10.045 14.0724C10.3917 15.6857 10.005 17.7353 8.86523 19.7276C9.8179 17.7531 10.2797 15.8568 9.8951 14.1046L10.045 14.0724Z" fill="url(#paint7_radial_32_10273)"/>
<path fill-rule="evenodd" clip-rule="evenodd" d="M13.9786 13.9273C15.8473 14.6266 16.5669 16.1621 17.1047 17.443C16.4404 16.1017 15.517 14.6205 13.9116 14.0707C12.6901 13.6523 11.6584 13.7019 9.89479 14.1022L9.85547 13.9273C11.7272 13.5008 12.7058 13.451 13.9786 13.9273Z" fill="url(#paint8_radial_32_10273)"/>
</g>
</g>
</g>
</g>
<defs>
<filter id="filter0_i_32_10273" x="1.5" y="1.5" width="21" height="25" filterUnits="userSpaceOnUse" color-interpolation-filters="sRGB">
<feFlood flood-opacity="0" result="BackgroundImageFix"/>
<feBlend mode="normal" in="SourceGraphic" in2="BackgroundImageFix" result="shape"/>
<feColorMatrix in="SourceAlpha" type="matrix" values="0 0 0 0 0 0 0 0 0 0 0 0 0 0 0 0 0 0 127 0" result="hardAlpha"/>
<feOffset dy="4"/>
<feGaussianBlur stdDeviation="2"/>
<feComposite in2="hardAlpha" operator="arithmetic" k2="-1" k3="1"/>
<feColorMatrix type="matrix" values="0 0 0 0 0 0 0 0 0 0 0 0 0 0 0 0 0 0 0.25 0"/>
<feBlend mode="normal" in2="shape" result="effect1_innerShadow_32_10273"/>
</filter>
<filter id="filter1_d_32_10273" x="1.01855" y="1" width="21.9502" height="26" filterUnits="userSpaceOnUse" color-interpolation-filters="sRGB">
<feFlood flood-opacity="0" result="BackgroundImageFix"/>
<feColorMatrix in="SourceAlpha" type="matrix" values="0 0 0 0 0 0 0 0 0 0 0 0 0 0 0 0 0 0 127 0" result="hardAlpha"/>
<feOffset dy="2"/>
<feGaussianBlur stdDeviation="2"/>
<feComposite in2="hardAlpha" operator="out"/>
<feColorMatrix type="matrix" values="0 0 0 0 0 0 0 0 0 0 0 0 0 0 0 0 0 0 0.25 0"/>
<feBlend mode="normal" in2="BackgroundImageFix" result="effect1_dropShadow_32_10273"/>
<feBlend mode="normal" in="SourceGraphic" in2="effect1_dropShadow_32_10273" result="shape"/>
</filter>
<linearGradient id="paint0_linear_32_10273" x1="12" y1="24" x2="12" y2="0" gradientUnits="userSpaceOnUse">
<stop stop-color="#5125AA"/>
<stop offset="1" stop-color="#7842E5"/>
</linearGradient>
<radialGradient id="paint1_radial_32_10273" cx="0" cy="0" r="1" gradientUnits="userSpaceOnUse" gradientTransform="translate(8.66935 19.5161) rotate(-104.574) scale(8.19017 5.45792)">
<stop stop-color="white" stop-opacity="0.4"/>
<stop offset="1" stop-opacity="0.1"/>
</radialGradient>
<radialGradient id="paint2_radial_32_10273" cx="0" cy="0" r="1" gradientUnits="userSpaceOnUse" gradientTransform="translate(14.7807 20.9996) rotate(-120.563) scale(6.65511 7.64141)">
<stop stop-color="white" stop-opacity="0.3"/>
<stop offset="1" stop-opacity="0.25"/>
</radialGradient>
<radialGradient id="paint3_radial_32_10273" cx="0" cy="0" r="1" gradientUnits="userSpaceOnUse" gradientTransform="translate(15.6502 16.1485) rotate(-82.4846) scale(13.4397 9.92932)">
<stop stop-color="white" stop-opacity="0.55"/>
<stop offset="1" stop-color="white" stop-opacity="0.05"/>
</radialGradient>
<radialGradient id="paint4_radial_32_10273" cx="0" cy="0" r="1" gradientUnits="userSpaceOnUse" gradientTransform="translate(9.1601 13.7889) rotate(-77.7214) scale(11.4768 7.82689)">
<stop stop-color="white" stop-opacity="0.83"/>
<stop offset="1" stop-color="white" stop-opacity="0.4"/>
</radialGradient>
<radialGradient id="paint5_radial_32_10273" cx="0" cy="0" r="1" gradientUnits="userSpaceOnUse" gradientTransform="translate(13.8921 7.50001) rotate(102.236) scale(5.97159 4.02688)">
<stop stop-color="white" stop-opacity="0"/>
<stop offset="1" stop-color="white" stop-opacity="0.17"/>
</radialGradient>
<radialGradient id="paint6_radial_32_10273" cx="0" cy="0" r="1" gradientUnits="userSpaceOnUse" gradientTransform="translate(6.89607 10.7344) rotate(45.3237) scale(4.40016 9.37192)">
<stop stop-color="white" stop-opacity="0.2"/>
<stop offset="1" stop-color="white" stop-opacity="0.44"/>
</radialGradient>
<radialGradient id="paint7_radial_32_10273" cx="0" cy="0" r="1" gradientUnits="userSpaceOnUse" gradientTransform="translate(10.2182 12.8165) rotate(80.2016) scale(5.15726 10.9517)">
<stop stop-color="white" stop-opacity="0.25"/>
<stop offset="1" stop-color="white" stop-opacity="0.3"/>
</radialGradient>
<radialGradient id="paint8_radial_32_10273" cx="0" cy="0" r="1" gradientUnits="userSpaceOnUse" gradientTransform="translate(17.0563 17.0273) rotate(-152.297) scale(7.85842 24.7299)">
<stop stop-color="white" stop-opacity="0.21"/>
<stop offset="0.46738" stop-color="white" stop-opacity="0.19"/>
<stop offset="1" stop-color="white" stop-opacity="0.29"/>
</radialGradient>
<clipPath id="clip0_32_10273">
<rect width="24" height="24" fill="white"/>
</clipPath>
</defs>
</svg>
