<svg width="24" height="24" viewBox="0 0 24 24" fill="none" xmlns="http://www.w3.org/2000/svg">
<g clip-path="url(#clip0_32_10291)">
<path d="M18 0H6C2.68629 0 0 2.68629 0 6V18C0 21.3137 2.68629 24 6 24H18C21.3137 24 24 21.3137 24 18V6C24 2.68629 21.3137 0 18 0Z" fill="url(#paint0_linear_32_10291)"/>
<g filter="url(#filter0_i_32_10291)">
<path d="M18 1.5H6C3.51472 1.5 1.5 3.51472 1.5 6V18C1.5 20.4853 3.51472 22.5 6 22.5H18C20.4853 22.5 22.5 20.4853 22.5 18V6C22.5 3.51472 20.4853 1.5 18 1.5Z" fill="black" fill-opacity="0.7"/>
<g filter="url(#filter1_d_32_10291)">
<path d="M11.9998 4.50034C7.85782 4.50034 4.5 7.85814 4.5 12.0002C4.5 16.0224 7.66652 19.305 11.6427 19.4914C11.7613 19.497 11.8802 19.5 12 19.5C13.9202 19.5 15.6713 18.7781 16.9982 17.5915C16.1191 18.1745 15.0912 18.51 13.9928 18.51C12.2068 18.51 10.6072 17.6239 9.53141 16.2267C8.7021 15.2478 8.16497 13.8007 8.12839 12.1767V11.8235C8.16495 10.1996 8.70208 8.75226 9.53119 7.77356C10.6072 6.37633 12.2067 5.4903 13.9926 5.4903C15.0913 5.4903 16.1193 5.82578 16.9985 6.40916C15.6781 5.22799 13.9375 4.50746 12.0281 4.50038C12.0185 4.50038 12.0092 4.5 11.9997 4.5L11.9998 4.50034Z" fill="#FF1B2D"/>
<path d="M9.53125 7.774C10.2195 6.96151 11.1083 6.47155 12.0794 6.47155C14.2629 6.47155 16.0326 8.94698 16.0326 12.0005C16.0326 15.0541 14.2628 17.5295 12.0794 17.5295C11.1083 17.5295 10.2195 17.0398 9.53144 16.2272C10.6072 17.6245 12.2066 18.5105 13.9928 18.5105C15.0913 18.5105 16.1192 18.175 16.9982 17.592C18.5333 16.2187 19.5 14.2226 19.5 12.0006C19.5 9.77888 18.5335 7.78287 16.9988 6.4097C16.1195 5.82629 15.0914 5.49081 13.9928 5.49081C12.2068 5.49081 10.607 6.37677 9.53125 7.774Z" fill="#B10000"/>
</g>
</g>
</g>
<defs>
<filter id="filter0_i_32_10291" x="1.5" y="1.5" width="21" height="25" filterUnits="userSpaceOnUse" color-interpolation-filters="sRGB">
<feFlood flood-opacity="0" result="BackgroundImageFix"/>
<feBlend mode="normal" in="SourceGraphic" in2="BackgroundImageFix" result="shape"/>
<feColorMatrix in="SourceAlpha" type="matrix" values="0 0 0 0 0 0 0 0 0 0 0 0 0 0 0 0 0 0 127 0" result="hardAlpha"/>
<feOffset dy="4"/>
<feGaussianBlur stdDeviation="2"/>
<feComposite in2="hardAlpha" operator="arithmetic" k2="-1" k3="1"/>
<feColorMatrix type="matrix" values="0 0 0 0 0 0 0 0 0 0 0 0 0 0 0 0 0 0 0.25 0"/>
<feBlend mode="normal" in2="shape" result="effect1_innerShadow_32_10291"/>
</filter>
<filter id="filter1_d_32_10291" x="0.5" y="2.5" width="23" height="23" filterUnits="userSpaceOnUse" color-interpolation-filters="sRGB">
<feFlood flood-opacity="0" result="BackgroundImageFix"/>
<feColorMatrix in="SourceAlpha" type="matrix" values="0 0 0 0 0 0 0 0 0 0 0 0 0 0 0 0 0 0 127 0" result="hardAlpha"/>
<feOffset dy="2"/>
<feGaussianBlur stdDeviation="2"/>
<feComposite in2="hardAlpha" operator="out"/>
<feColorMatrix type="matrix" values="0 0 0 0 0 0 0 0 0 0 0 0 0 0 0 0 0 0 0.25 0"/>
<feBlend mode="normal" in2="BackgroundImageFix" result="effect1_dropShadow_32_10291"/>
<feBlend mode="normal" in="SourceGraphic" in2="effect1_dropShadow_32_10291" result="shape"/>
</filter>
<linearGradient id="paint0_linear_32_10291" x1="12" y1="0" x2="12" y2="24" gradientUnits="userSpaceOnUse">
<stop stop-color="#FF1B2D"/>
<stop offset="0.3" stop-color="#FF1B2D"/>
<stop offset="0.614" stop-color="#FF1B2D"/>
<stop offset="1" stop-color="#A70014"/>
</linearGradient>
<clipPath id="clip0_32_10291">
<rect width="24" height="24" fill="white"/>
</clipPath>
</defs>
</svg>
