<svg width="24" height="24" viewBox="0 0 24 24" fill="none" xmlns="http://www.w3.org/2000/svg">
<g clip-path="url(#clip0_32_10298)">
<path d="M18 0H6C2.68629 0 0 2.68629 0 6V18C0 21.3137 2.68629 24 6 24H18C21.3137 24 24 21.3137 24 18V6C24 2.68629 21.3137 0 18 0Z" fill="url(#paint0_linear_32_10298)"/>
<path d="M18 0H6C2.68629 0 0 2.68629 0 6V18C0 21.3137 2.68629 24 6 24H18C21.3137 24 24 21.3137 24 18V6C24 2.68629 21.3137 0 18 0Z" fill="url(#paint1_linear_32_10298)"/>
<g filter="url(#filter0_i_32_10298)">
<path d="M18 1.5H6C3.51472 1.5 1.5 3.51472 1.5 6V18C1.5 20.4853 3.51472 22.5 6 22.5H18C20.4853 22.5 22.5 20.4853 22.5 18V6C22.5 3.51472 20.4853 1.5 18 1.5Z" fill="black" fill-opacity="0.7"/>
<mask id="mask0_32_10298" style="mask-type:luminance" maskUnits="userSpaceOnUse" x="3" y="3" width="18" height="18">
<path d="M21 3H3V21H21V3Z" fill="white"/>
</mask>
<g mask="url(#mask0_32_10298)">
<g filter="url(#filter1_d_32_10298)">
<path d="M12.9421 6.75027L12.3932 5.09131L9.8458 6.32264L6.47363 6.62015L6.9365 12.4059L11.7191 11.6055L12.9421 6.75027Z" fill="url(#paint2_linear_32_10298)"/>
</g>
<g filter="url(#filter2_d_32_10298)">
<path d="M8.39676 8.22704L3.85742 7.03415L5.42625 16.4555L13.8792 16.3732L8.39676 8.22704Z" fill="url(#paint3_linear_32_10298)"/>
</g>
<g filter="url(#filter3_d_32_10298)">
<path d="M14.6392 12.2405L12.6885 8.90138L14.8045 6.98386L18.1726 5.60547L20.3142 10.9277L17.2299 13.991L14.6392 12.2405Z" fill="url(#paint4_linear_32_10298)"/>
</g>
<g filter="url(#filter4_d_32_10298)">
<path d="M17.2314 10.8568L16.16 8.66995L7.75879 10.358L8.62176 18.3799L14.1681 20.3143L20.3144 16.6353L17.2314 10.8568Z" fill="url(#paint5_linear_32_10298)"/>
</g>
<g filter="url(#filter5_d_32_10298)">
<path d="M12.887 11.2487L7.75879 10.358L14.0184 4.83417L18.1727 5.60549L15.5981 8.17407L16.1931 8.70302L12.887 11.2487Z" fill="url(#paint6_linear_32_10298)"/>
</g>
<g filter="url(#filter6_d_32_10298)">
<path d="M12.393 5.09129L6.66477 3.85715L3.85742 7.03415L8.40486 8.24309L12.393 5.09129Z" fill="url(#paint7_linear_32_10298)"/>
</g>
<g filter="url(#filter7_d_32_10298)">
<path d="M17.2291 6.94287H6.94336V17.2286H17.2291V6.94287Z" fill="black"/>
</g>
<path d="M12.0857 15.3H8.22852V15.9429H12.0857V15.3Z" fill="white"/>
<path d="M11.5967 11.5749L12.0998 10.9727C12.4478 11.2597 12.8129 11.4423 13.2544 11.4423C13.6032 11.4423 13.813 11.3042 13.8129 11.0771V11.0662C13.8129 10.8509 13.6803 10.7401 13.0336 10.5748C12.2542 10.3759 11.751 10.1597 11.7509 9.39215V9.38034C11.7509 8.67911 12.3149 8.21404 13.1052 8.21404C13.6269 8.20564 14.1352 8.37977 14.5422 8.70635L14.0999 9.34766C13.7574 9.10967 13.4204 8.96614 13.0943 8.96614C12.7682 8.96614 12.5966 9.1151 12.5966 9.30313V9.31404C12.5966 9.56837 12.7628 9.65194 13.4314 9.82269C14.2162 10.0271 14.6586 10.3096 14.6586 10.9836V10.9945C14.6586 11.7629 14.0728 12.1935 13.2381 12.1935C12.6336 12.1957 12.0493 11.9756 11.5967 11.5749Z" fill="white"/>
<path d="M8.24023 8.2728H9.81422C10.733 8.2728 11.2889 8.81762 11.2889 9.6044V9.61541C11.2889 10.5069 10.5955 10.9692 9.73153 10.9692H9.08766V12.1247H8.24023V8.2728ZM9.75904 10.2153C10.1828 10.2153 10.4304 9.96219 10.4304 9.63193V9.62092C10.4304 9.24127 10.1663 9.03772 9.74254 9.03772H9.08766V10.2153H9.75904Z" fill="white"/>
</g>
</g>
</g>
<defs>
<filter id="filter0_i_32_10298" x="1.5" y="1.5" width="21" height="25" filterUnits="userSpaceOnUse" color-interpolation-filters="sRGB">
<feFlood flood-opacity="0" result="BackgroundImageFix"/>
<feBlend mode="normal" in="SourceGraphic" in2="BackgroundImageFix" result="shape"/>
<feColorMatrix in="SourceAlpha" type="matrix" values="0 0 0 0 0 0 0 0 0 0 0 0 0 0 0 0 0 0 127 0" result="hardAlpha"/>
<feOffset dy="4"/>
<feGaussianBlur stdDeviation="2"/>
<feComposite in2="hardAlpha" operator="arithmetic" k2="-1" k3="1"/>
<feColorMatrix type="matrix" values="0 0 0 0 0 0 0 0 0 0 0 0 0 0 0 0 0 0 0.25 0"/>
<feBlend mode="normal" in2="shape" result="effect1_innerShadow_32_10298"/>
</filter>
<filter id="filter1_d_32_10298" x="2.47363" y="3.09131" width="14.4688" height="15.3146" filterUnits="userSpaceOnUse" color-interpolation-filters="sRGB">
<feFlood flood-opacity="0" result="BackgroundImageFix"/>
<feColorMatrix in="SourceAlpha" type="matrix" values="0 0 0 0 0 0 0 0 0 0 0 0 0 0 0 0 0 0 127 0" result="hardAlpha"/>
<feOffset dy="2"/>
<feGaussianBlur stdDeviation="2"/>
<feComposite in2="hardAlpha" operator="out"/>
<feColorMatrix type="matrix" values="0 0 0 0 0 0 0 0 0 0 0 0 0 0 0 0 0 0 0.25 0"/>
<feBlend mode="normal" in2="BackgroundImageFix" result="effect1_dropShadow_32_10298"/>
<feBlend mode="normal" in="SourceGraphic" in2="effect1_dropShadow_32_10298" result="shape"/>
</filter>
<filter id="filter2_d_32_10298" x="-0.142578" y="5.03415" width="18.0215" height="17.4213" filterUnits="userSpaceOnUse" color-interpolation-filters="sRGB">
<feFlood flood-opacity="0" result="BackgroundImageFix"/>
<feColorMatrix in="SourceAlpha" type="matrix" values="0 0 0 0 0 0 0 0 0 0 0 0 0 0 0 0 0 0 127 0" result="hardAlpha"/>
<feOffset dy="2"/>
<feGaussianBlur stdDeviation="2"/>
<feComposite in2="hardAlpha" operator="out"/>
<feColorMatrix type="matrix" values="0 0 0 0 0 0 0 0 0 0 0 0 0 0 0 0 0 0 0.25 0"/>
<feBlend mode="normal" in2="BackgroundImageFix" result="effect1_dropShadow_32_10298"/>
<feBlend mode="normal" in="SourceGraphic" in2="effect1_dropShadow_32_10298" result="shape"/>
</filter>
<filter id="filter3_d_32_10298" x="8.68848" y="3.60547" width="15.626" height="16.3856" filterUnits="userSpaceOnUse" color-interpolation-filters="sRGB">
<feFlood flood-opacity="0" result="BackgroundImageFix"/>
<feColorMatrix in="SourceAlpha" type="matrix" values="0 0 0 0 0 0 0 0 0 0 0 0 0 0 0 0 0 0 127 0" result="hardAlpha"/>
<feOffset dy="2"/>
<feGaussianBlur stdDeviation="2"/>
<feComposite in2="hardAlpha" operator="out"/>
<feColorMatrix type="matrix" values="0 0 0 0 0 0 0 0 0 0 0 0 0 0 0 0 0 0 0.25 0"/>
<feBlend mode="normal" in2="BackgroundImageFix" result="effect1_dropShadow_32_10298"/>
<feBlend mode="normal" in="SourceGraphic" in2="effect1_dropShadow_32_10298" result="shape"/>
</filter>
<filter id="filter4_d_32_10298" x="3.75879" y="6.66995" width="20.5557" height="19.6444" filterUnits="userSpaceOnUse" color-interpolation-filters="sRGB">
<feFlood flood-opacity="0" result="BackgroundImageFix"/>
<feColorMatrix in="SourceAlpha" type="matrix" values="0 0 0 0 0 0 0 0 0 0 0 0 0 0 0 0 0 0 127 0" result="hardAlpha"/>
<feOffset dy="2"/>
<feGaussianBlur stdDeviation="2"/>
<feComposite in2="hardAlpha" operator="out"/>
<feColorMatrix type="matrix" values="0 0 0 0 0 0 0 0 0 0 0 0 0 0 0 0 0 0 0.25 0"/>
<feBlend mode="normal" in2="BackgroundImageFix" result="effect1_dropShadow_32_10298"/>
<feBlend mode="normal" in="SourceGraphic" in2="effect1_dropShadow_32_10298" result="shape"/>
</filter>
<filter id="filter5_d_32_10298" x="3.75879" y="2.83417" width="18.4141" height="14.4146" filterUnits="userSpaceOnUse" color-interpolation-filters="sRGB">
<feFlood flood-opacity="0" result="BackgroundImageFix"/>
<feColorMatrix in="SourceAlpha" type="matrix" values="0 0 0 0 0 0 0 0 0 0 0 0 0 0 0 0 0 0 127 0" result="hardAlpha"/>
<feOffset dy="2"/>
<feGaussianBlur stdDeviation="2"/>
<feComposite in2="hardAlpha" operator="out"/>
<feColorMatrix type="matrix" values="0 0 0 0 0 0 0 0 0 0 0 0 0 0 0 0 0 0 0.25 0"/>
<feBlend mode="normal" in2="BackgroundImageFix" result="effect1_dropShadow_32_10298"/>
<feBlend mode="normal" in="SourceGraphic" in2="effect1_dropShadow_32_10298" result="shape"/>
</filter>
<filter id="filter6_d_32_10298" x="-0.142578" y="1.85715" width="16.5352" height="12.386" filterUnits="userSpaceOnUse" color-interpolation-filters="sRGB">
<feFlood flood-opacity="0" result="BackgroundImageFix"/>
<feColorMatrix in="SourceAlpha" type="matrix" values="0 0 0 0 0 0 0 0 0 0 0 0 0 0 0 0 0 0 127 0" result="hardAlpha"/>
<feOffset dy="2"/>
<feGaussianBlur stdDeviation="2"/>
<feComposite in2="hardAlpha" operator="out"/>
<feColorMatrix type="matrix" values="0 0 0 0 0 0 0 0 0 0 0 0 0 0 0 0 0 0 0.25 0"/>
<feBlend mode="normal" in2="BackgroundImageFix" result="effect1_dropShadow_32_10298"/>
<feBlend mode="normal" in="SourceGraphic" in2="effect1_dropShadow_32_10298" result="shape"/>
</filter>
<filter id="filter7_d_32_10298" x="2.94336" y="4.94287" width="18.2861" height="18.2857" filterUnits="userSpaceOnUse" color-interpolation-filters="sRGB">
<feFlood flood-opacity="0" result="BackgroundImageFix"/>
<feColorMatrix in="SourceAlpha" type="matrix" values="0 0 0 0 0 0 0 0 0 0 0 0 0 0 0 0 0 0 127 0" result="hardAlpha"/>
<feOffset dy="2"/>
<feGaussianBlur stdDeviation="2"/>
<feComposite in2="hardAlpha" operator="out"/>
<feColorMatrix type="matrix" values="0 0 0 0 0 0 0 0 0 0 0 0 0 0 0 0 0 0 0.25 0"/>
<feBlend mode="normal" in2="BackgroundImageFix" result="effect1_dropShadow_32_10298"/>
<feBlend mode="normal" in="SourceGraphic" in2="effect1_dropShadow_32_10298" result="shape"/>
</filter>
<linearGradient id="paint0_linear_32_10298" x1="12" y1="0" x2="12" y2="24" gradientUnits="userSpaceOnUse">
<stop stop-color="#3BEA62"/>
<stop offset="0.510417" stop-color="#087CFA"/>
<stop offset="1" stop-color="#B74AF7"/>
</linearGradient>
<linearGradient id="paint1_linear_32_10298" x1="4.07227" y1="23.0342" x2="18.6379" y2="4.94724" gradientUnits="userSpaceOnUse">
<stop offset="0.01613" stop-color="#6B57FF"/>
<stop offset="0.42357" stop-color="#B74AF7"/>
<stop offset="0.74587" stop-color="#FF318C"/>
</linearGradient>
<linearGradient id="paint2_linear_32_10298" x1="6.89185" y1="13.3464" x2="11.5389" y2="4.42201" gradientUnits="userSpaceOnUse">
<stop stop-color="#AF1DF5"/>
<stop offset="0.2116" stop-color="#BC20E4"/>
<stop offset="0.62822" stop-color="#DD29B8"/>
<stop offset="1" stop-color="#FF318C"/>
</linearGradient>
<linearGradient id="paint3_linear_32_10298" x1="5.5579" y1="16.0763" x2="11.1907" y2="8.636" gradientUnits="userSpaceOnUse">
<stop offset="0.01613" stop-color="#6B57FF"/>
<stop offset="0.42357" stop-color="#B74AF7"/>
<stop offset="0.74587" stop-color="#FF318C"/>
</linearGradient>
<linearGradient id="paint4_linear_32_10298" x1="18.3019" y1="14.0681" x2="15.1806" y2="6.66025" gradientUnits="userSpaceOnUse">
<stop stop-color="#293896"/>
<stop offset="0.07538" stop-color="#3B3AA2"/>
<stop offset="0.2871" stop-color="#6740C0"/>
<stop offset="0.49127" stop-color="#8A44D8"/>
<stop offset="0.68315" stop-color="#A347E9"/>
<stop offset="0.85788" stop-color="#B249F3"/>
<stop offset="1" stop-color="#B74AF7"/>
</linearGradient>
<linearGradient id="paint5_linear_32_10298" x1="15.7441" y1="18.4398" x2="10.555" y2="10.8339" gradientUnits="userSpaceOnUse">
<stop offset="0.01613" stop-color="#6B57FF"/>
<stop offset="0.78291" stop-color="#B74AF7"/>
</linearGradient>
<linearGradient id="paint6_linear_32_10298" x1="14.1713" y1="14.3572" x2="12.4521" y2="5.2654" gradientUnits="userSpaceOnUse">
<stop offset="0.01613" stop-color="#6B57FF"/>
<stop offset="0.63699" stop-color="#B74AF7"/>
</linearGradient>
<linearGradient id="paint7_linear_32_10298" x1="5.72983" y1="10.4099" x2="8.40778" y2="5.5499" gradientUnits="userSpaceOnUse">
<stop stop-color="#AF1DF5"/>
<stop offset="0.2116" stop-color="#BC20E4"/>
<stop offset="0.62822" stop-color="#DD29B8"/>
<stop offset="1" stop-color="#FF318C"/>
</linearGradient>
<clipPath id="clip0_32_10298">
<rect width="24" height="24" fill="white"/>
</clipPath>
</defs>
</svg>
