<svg width="24" height="24" viewBox="0 0 24 24" fill="none" xmlns="http://www.w3.org/2000/svg">
<g clip-path="url(#clip0_32_10352)">
<path d="M18 0H6C2.68629 0 0 2.68629 0 6V18C0 21.3137 2.68629 24 6 24H18C21.3137 24 24 21.3137 24 18V6C24 2.68629 21.3137 0 18 0Z" fill="url(#paint0_linear_32_10352)"/>
<g filter="url(#filter0_i_32_10352)">
<path d="M18 1.5H6C3.51472 1.5 1.5 3.51472 1.5 6V18C1.5 20.4853 3.51472 22.5 6 22.5H18C20.4853 22.5 22.5 20.4853 22.5 18V6C22.5 3.51472 20.4853 1.5 18 1.5Z" fill="black" fill-opacity="0.7"/>
<mask id="mask0_32_10352" style="mask-type:luminance" maskUnits="userSpaceOnUse" x="3" y="3" width="18" height="18">
<path d="M21 3H3V21H21V3Z" fill="white"/>
</mask>
<g mask="url(#mask0_32_10352)">
<g filter="url(#filter1_d_32_10352)">
<g filter="url(#filter2_d_32_10352)">
<path d="M15.3102 6.36858L20.1188 10.368L18.3873 13.8909L15.4885 13.0869H12.9805L15.3102 6.36858Z" fill="#07C3F2"/>
</g>
<g filter="url(#filter3_d_32_10352)">
<path d="M10.4658 8.96571L9.5349 13.8909L9.44576 15.564L7.0989 16.5806L3.77148 16.9389L4.78119 6.29828L10.8103 3.77144L14.5252 6.20744L10.4658 8.96571Z" fill="#21D789"/>
</g>
<g filter="url(#filter4_d_32_10352)">
<path d="M10.4658 8.96571L10.9183 18.456L9.4149 20.2286L3.77148 16.9389L8.40519 10.0337L10.4658 8.96571Z" fill="#7AE46F"/>
</g>
<g filter="url(#filter5_d_32_10352)">
<path d="M16.6754 8.27315H10.9736L16.0119 3.77144L16.6754 8.27315Z" fill="#9AF156"/>
</g>
<g filter="url(#filter6_d_32_10352)">
<path d="M20.2289 18.4937L15.2094 20.1977L8.52539 18.3154L10.466 8.96573L11.2408 8.27316L15.3105 7.89087L14.942 11.9777L18.1785 10.7229L20.2289 18.4937Z" fill="#FCF84A"/>
</g>
<g filter="url(#filter7_d_32_10352)">
<path d="M6.85742 6.85715H17.1431V17.1429H6.85742V6.85715Z" fill="black"/>
</g>
<path d="M8.13965 15.1989H11.9968V15.8417H8.13965V15.1989Z" fill="white"/>
<path d="M8.14258 8.14287H9.71972C10.6386 8.14287 11.1957 8.68801 11.1957 9.47487V9.48514C11.1957 10.3766 10.5014 10.8394 9.63744 10.8394H8.99972V11.9949H8.14258V8.14287ZM9.66144 10.0851C10.0849 10.0851 10.3334 9.83314 10.3334 9.5023V9.49201C10.3334 9.11144 10.0694 8.90744 9.64772 8.90744H8.99972V10.0851H9.66144Z" fill="white"/>
<path d="M11.6556 10.0817V10.0714C11.6507 9.80718 11.6993 9.54464 11.7986 9.29971C11.898 9.05478 12.0459 8.8325 12.2335 8.64633C12.4211 8.46016 12.6445 8.31395 12.8902 8.2165C13.1359 8.11908 13.3988 8.07245 13.6631 8.07944C13.9438 8.06525 14.2243 8.11077 14.4861 8.21301C14.7479 8.31528 14.9851 8.47191 15.1819 8.67258L14.6436 9.29487C14.3845 9.02656 14.0307 8.87028 13.6579 8.85944C13.0082 8.85944 12.5402 9.39944 12.5402 10.0594V10.0714C12.5402 10.7314 12.9979 11.2817 13.6579 11.2817C14.0985 11.2817 14.3676 11.1103 14.671 10.8309L15.2093 11.3743C15.0155 11.6009 14.7726 11.7805 14.499 11.8993C14.2254 12.0181 13.9284 12.0731 13.6305 12.06C13.3697 12.0639 13.1109 12.0155 12.8693 11.9174C12.6277 11.8193 12.4082 11.6737 12.224 11.4891C12.0398 11.3046 11.8946 11.0849 11.7969 10.8432C11.6993 10.6014 11.6512 10.3424 11.6556 10.0817Z" fill="white"/>
</g>
</g>
</g>
</g>
<defs>
<filter id="filter0_i_32_10352" x="1.5" y="1.5" width="21" height="25" filterUnits="userSpaceOnUse" color-interpolation-filters="sRGB">
<feFlood flood-opacity="0" result="BackgroundImageFix"/>
<feBlend mode="normal" in="SourceGraphic" in2="BackgroundImageFix" result="shape"/>
<feColorMatrix in="SourceAlpha" type="matrix" values="0 0 0 0 0 0 0 0 0 0 0 0 0 0 0 0 0 0 127 0" result="hardAlpha"/>
<feOffset dy="4"/>
<feGaussianBlur stdDeviation="2"/>
<feComposite in2="hardAlpha" operator="arithmetic" k2="-1" k3="1"/>
<feColorMatrix type="matrix" values="0 0 0 0 0 0 0 0 0 0 0 0 0 0 0 0 0 0 0.25 0"/>
<feBlend mode="normal" in2="shape" result="effect1_innerShadow_32_10352"/>
</filter>
<filter id="filter1_d_32_10352" x="-0.228516" y="1.77144" width="24.457" height="24.4572" filterUnits="userSpaceOnUse" color-interpolation-filters="sRGB">
<feFlood flood-opacity="0" result="BackgroundImageFix"/>
<feColorMatrix in="SourceAlpha" type="matrix" values="0 0 0 0 0 0 0 0 0 0 0 0 0 0 0 0 0 0 127 0" result="hardAlpha"/>
<feOffset dy="2"/>
<feGaussianBlur stdDeviation="2"/>
<feComposite in2="hardAlpha" operator="out"/>
<feColorMatrix type="matrix" values="0 0 0 0 0 0 0 0 0 0 0 0 0 0 0 0 0 0 0.25 0"/>
<feBlend mode="normal" in2="BackgroundImageFix" result="effect1_dropShadow_32_10352"/>
<feBlend mode="normal" in="SourceGraphic" in2="effect1_dropShadow_32_10352" result="shape"/>
</filter>
<filter id="filter2_d_32_10352" x="8.98047" y="4.36858" width="15.1387" height="15.5223" filterUnits="userSpaceOnUse" color-interpolation-filters="sRGB">
<feFlood flood-opacity="0" result="BackgroundImageFix"/>
<feColorMatrix in="SourceAlpha" type="matrix" values="0 0 0 0 0 0 0 0 0 0 0 0 0 0 0 0 0 0 127 0" result="hardAlpha"/>
<feOffset dy="2"/>
<feGaussianBlur stdDeviation="2"/>
<feComposite in2="hardAlpha" operator="out"/>
<feColorMatrix type="matrix" values="0 0 0 0 0 0 0 0 0 0 0 0 0 0 0 0 0 0 0.25 0"/>
<feBlend mode="normal" in2="BackgroundImageFix" result="effect1_dropShadow_32_10352"/>
<feBlend mode="normal" in="SourceGraphic" in2="effect1_dropShadow_32_10352" result="shape"/>
</filter>
<filter id="filter3_d_32_10352" x="-0.228516" y="1.77144" width="18.7539" height="21.1674" filterUnits="userSpaceOnUse" color-interpolation-filters="sRGB">
<feFlood flood-opacity="0" result="BackgroundImageFix"/>
<feColorMatrix in="SourceAlpha" type="matrix" values="0 0 0 0 0 0 0 0 0 0 0 0 0 0 0 0 0 0 127 0" result="hardAlpha"/>
<feOffset dy="2"/>
<feGaussianBlur stdDeviation="2"/>
<feComposite in2="hardAlpha" operator="out"/>
<feColorMatrix type="matrix" values="0 0 0 0 0 0 0 0 0 0 0 0 0 0 0 0 0 0 0.25 0"/>
<feBlend mode="normal" in2="BackgroundImageFix" result="effect1_dropShadow_32_10352"/>
<feBlend mode="normal" in="SourceGraphic" in2="effect1_dropShadow_32_10352" result="shape"/>
</filter>
<filter id="filter4_d_32_10352" x="-0.228516" y="6.96571" width="15.1465" height="19.2629" filterUnits="userSpaceOnUse" color-interpolation-filters="sRGB">
<feFlood flood-opacity="0" result="BackgroundImageFix"/>
<feColorMatrix in="SourceAlpha" type="matrix" values="0 0 0 0 0 0 0 0 0 0 0 0 0 0 0 0 0 0 127 0" result="hardAlpha"/>
<feOffset dy="2"/>
<feGaussianBlur stdDeviation="2"/>
<feComposite in2="hardAlpha" operator="out"/>
<feColorMatrix type="matrix" values="0 0 0 0 0 0 0 0 0 0 0 0 0 0 0 0 0 0 0.25 0"/>
<feBlend mode="normal" in2="BackgroundImageFix" result="effect1_dropShadow_32_10352"/>
<feBlend mode="normal" in="SourceGraphic" in2="effect1_dropShadow_32_10352" result="shape"/>
</filter>
<filter id="filter5_d_32_10352" x="6.97363" y="1.77144" width="13.7021" height="12.5017" filterUnits="userSpaceOnUse" color-interpolation-filters="sRGB">
<feFlood flood-opacity="0" result="BackgroundImageFix"/>
<feColorMatrix in="SourceAlpha" type="matrix" values="0 0 0 0 0 0 0 0 0 0 0 0 0 0 0 0 0 0 127 0" result="hardAlpha"/>
<feOffset dy="2"/>
<feGaussianBlur stdDeviation="2"/>
<feComposite in2="hardAlpha" operator="out"/>
<feColorMatrix type="matrix" values="0 0 0 0 0 0 0 0 0 0 0 0 0 0 0 0 0 0 0.25 0"/>
<feBlend mode="normal" in2="BackgroundImageFix" result="effect1_dropShadow_32_10352"/>
<feBlend mode="normal" in="SourceGraphic" in2="effect1_dropShadow_32_10352" result="shape"/>
</filter>
<filter id="filter6_d_32_10352" x="4.52539" y="5.89087" width="19.7031" height="20.3068" filterUnits="userSpaceOnUse" color-interpolation-filters="sRGB">
<feFlood flood-opacity="0" result="BackgroundImageFix"/>
<feColorMatrix in="SourceAlpha" type="matrix" values="0 0 0 0 0 0 0 0 0 0 0 0 0 0 0 0 0 0 127 0" result="hardAlpha"/>
<feOffset dy="2"/>
<feGaussianBlur stdDeviation="2"/>
<feComposite in2="hardAlpha" operator="out"/>
<feColorMatrix type="matrix" values="0 0 0 0 0 0 0 0 0 0 0 0 0 0 0 0 0 0 0.25 0"/>
<feBlend mode="normal" in2="BackgroundImageFix" result="effect1_dropShadow_32_10352"/>
<feBlend mode="normal" in="SourceGraphic" in2="effect1_dropShadow_32_10352" result="shape"/>
</filter>
<filter id="filter7_d_32_10352" x="2.85742" y="4.85715" width="18.2861" height="18.2857" filterUnits="userSpaceOnUse" color-interpolation-filters="sRGB">
<feFlood flood-opacity="0" result="BackgroundImageFix"/>
<feColorMatrix in="SourceAlpha" type="matrix" values="0 0 0 0 0 0 0 0 0 0 0 0 0 0 0 0 0 0 127 0" result="hardAlpha"/>
<feOffset dy="2"/>
<feGaussianBlur stdDeviation="2"/>
<feComposite in2="hardAlpha" operator="out"/>
<feColorMatrix type="matrix" values="0 0 0 0 0 0 0 0 0 0 0 0 0 0 0 0 0 0 0.25 0"/>
<feBlend mode="normal" in2="BackgroundImageFix" result="effect1_dropShadow_32_10352"/>
<feBlend mode="normal" in="SourceGraphic" in2="effect1_dropShadow_32_10352" result="shape"/>
</filter>
<linearGradient id="paint0_linear_32_10352" x1="12" y1="0" x2="12" y2="24" gradientUnits="userSpaceOnUse">
<stop stop-color="#FCF84A"/>
<stop offset="0.244792" stop-color="#9AF156"/>
<stop offset="0.510417" stop-color="#7AE36F"/>
<stop offset="0.744792" stop-color="#21D789"/>
<stop offset="1" stop-color="#07C3F2"/>
</linearGradient>
<clipPath id="clip0_32_10352">
<rect width="24" height="24" fill="white"/>
</clipPath>
</defs>
</svg>
