<svg width="24" height="24" viewBox="0 0 24 24" fill="none" xmlns="http://www.w3.org/2000/svg">
<g clip-path="url(#clip0_32_10375)">
<path d="M18 0H6C2.68629 0 0 2.68629 0 6V18C0 21.3137 2.68629 24 6 24H18C21.3137 24 24 21.3137 24 18V6C24 2.68629 21.3137 0 18 0Z" fill="url(#paint0_linear_32_10375)"/>
<path d="M18 0H6C2.68629 0 0 2.68629 0 6V18C0 21.3137 2.68629 24 6 24H18C21.3137 24 24 21.3137 24 18V6C24 2.68629 21.3137 0 18 0Z" fill="url(#paint1_linear_32_10375)"/>
<g filter="url(#filter0_i_32_10375)">
<path d="M18 1.5H6C3.51472 1.5 1.5 3.51472 1.5 6V18C1.5 20.4853 3.51472 22.5 6 22.5H18C20.4853 22.5 22.5 20.4853 22.5 18V6C22.5 3.51472 20.4853 1.5 18 1.5Z" fill="black" fill-opacity="0.7"/>
<mask id="mask0_32_10375" style="mask-type:luminance" maskUnits="userSpaceOnUse" x="3" y="3" width="18" height="18">
<path d="M21 3H3V21H21V3Z" fill="white"/>
</mask>
<g mask="url(#mask0_32_10375)">
<g filter="url(#filter1_d_32_10375)">
<path d="M15.0936 10.837L6.4128 12.6567C6.18617 12.6917 5.96211 12.7415 5.74202 12.8058C5.05237 13.0097 4.44495 13.4267 4.00671 13.9969C1.41498 17.3634 4.19514 21.7635 8.16919 20.8875L17.6923 19.5079C18.697 19.2838 19.5756 18.679 20.1435 17.8205C22.5988 14.1544 19.4192 9.56858 15.0936 10.837Z" fill="url(#paint2_linear_32_10375)"/>
</g>
<g filter="url(#filter2_d_32_10375)">
<path d="M10.3226 4.14609C9.25241 3.16171 7.68022 2.70468 5.91538 3.22078C5.18236 3.43766 4.53663 3.88063 4.07038 4.4864C2.29709 6.79687 2.89053 9.55593 4.66944 10.9805L14.1433 18.8906C14.6621 19.2291 15.2445 19.4578 15.8549 19.563C16.4652 19.6682 17.0906 19.6476 17.6927 19.5022C18.6973 19.2782 19.5759 18.6733 20.1439 17.8148C21.6064 15.6394 21.0705 13.125 19.4829 11.7187L10.3226 4.14609Z" fill="url(#paint3_linear_32_10375)"/>
</g>
<g filter="url(#filter3_d_32_10375)">
<path d="M7.12586 3.02109C6.71658 3.04687 6.31095 3.11377 5.91508 3.22078C5.18206 3.43768 4.53631 3.88063 4.07008 4.48641C1.31242 8.0625 4.26555 12.7453 8.49555 11.813L19.8481 7.53094C20.1775 7.45804 20.4657 7.26047 20.6525 6.97969C21.3556 5.91937 20.6371 4.62703 19.4825 4.62L7.59695 3C7.4282 3 7.2707 3.00984 7.12586 3.02109Z" fill="url(#paint4_linear_32_10375)"/>
</g>
<g filter="url(#filter4_d_32_10375)">
<path d="M6.375 6.375H17.625V17.625H6.375V6.375Z" fill="black"/>
</g>
<path d="M7.78125 15.5156H12V16.2188H7.78125V15.5156Z" fill="white"/>
<path d="M11.4375 12.1139L10.9734 11.692C10.6002 11.9301 10.166 12.0551 9.72328 12.052C8.42531 12.0591 7.5 11.0916 7.5 9.89062C7.5 8.6939 8.44359 7.71375 9.75 7.71375C11.0564 7.71375 11.9803 8.68124 11.9803 9.87796V9.89062C11.9789 10.3214 11.8492 10.7419 11.6077 11.0986L12.0408 11.4656L11.4375 12.1139ZM10.2886 11.0916L9.60938 10.508L10.1986 9.84703L10.8891 10.4728C10.965 10.2883 11.0023 10.0901 10.9987 9.89062C11.0046 9.7193 10.976 9.54854 10.9145 9.38849C10.8531 9.22844 10.7601 9.08238 10.6412 8.95895C10.5222 8.83552 10.3796 8.73725 10.222 8.66998C10.0643 8.60272 9.89471 8.56781 9.72328 8.56734C8.97797 8.56734 8.45766 9.15656 8.45766 9.87796V9.89062C8.45182 10.0618 8.48042 10.2323 8.54177 10.3922C8.60314 10.5521 8.69599 10.698 8.81483 10.8213C8.93366 10.9446 9.07605 11.0428 9.23357 11.11C9.39107 11.1772 9.56048 11.212 9.73172 11.2125C9.92417 11.2154 10.1147 11.1741 10.2886 11.0916Z" fill="white"/>
<path d="M12.6846 7.78125H14.2708C15.5927 7.78125 16.5068 8.68969 16.5068 9.87375V9.89062C16.5068 11.0747 15.5927 12 14.2708 12H12.6846V7.78125ZM13.6099 8.625V11.1562H14.2708C15.0274 11.1562 15.5364 10.6444 15.5364 9.89906V9.89062C15.5445 9.72229 15.5172 9.55414 15.4565 9.39696C15.3957 9.23976 15.3028 9.09701 15.1836 8.97784C15.0644 8.85868 14.9217 8.76574 14.7645 8.70497C14.6073 8.64422 14.4392 8.61697 14.2708 8.625H13.6099Z" fill="white"/>
</g>
</g>
</g>
<defs>
<filter id="filter0_i_32_10375" x="1.5" y="1.5" width="21" height="25" filterUnits="userSpaceOnUse" color-interpolation-filters="sRGB">
<feFlood flood-opacity="0" result="BackgroundImageFix"/>
<feBlend mode="normal" in="SourceGraphic" in2="BackgroundImageFix" result="shape"/>
<feColorMatrix in="SourceAlpha" type="matrix" values="0 0 0 0 0 0 0 0 0 0 0 0 0 0 0 0 0 0 127 0" result="hardAlpha"/>
<feOffset dy="4"/>
<feGaussianBlur stdDeviation="2"/>
<feComposite in2="hardAlpha" operator="arithmetic" k2="-1" k3="1"/>
<feColorMatrix type="matrix" values="0 0 0 0 0 0 0 0 0 0 0 0 0 0 0 0 0 0 0.25 0"/>
<feBlend mode="normal" in2="shape" result="effect1_innerShadow_32_10375"/>
</filter>
<filter id="filter1_d_32_10375" x="-1" y="8.62135" width="26" height="18.3792" filterUnits="userSpaceOnUse" color-interpolation-filters="sRGB">
<feFlood flood-opacity="0" result="BackgroundImageFix"/>
<feColorMatrix in="SourceAlpha" type="matrix" values="0 0 0 0 0 0 0 0 0 0 0 0 0 0 0 0 0 0 127 0" result="hardAlpha"/>
<feOffset dy="2"/>
<feGaussianBlur stdDeviation="2"/>
<feComposite in2="hardAlpha" operator="out"/>
<feColorMatrix type="matrix" values="0 0 0 0 0 0 0 0 0 0 0 0 0 0 0 0 0 0 0.25 0"/>
<feBlend mode="normal" in2="BackgroundImageFix" result="effect1_dropShadow_32_10375"/>
<feBlend mode="normal" in="SourceGraphic" in2="effect1_dropShadow_32_10375" result="shape"/>
</filter>
<filter id="filter2_d_32_10375" x="-0.999023" y="1.00632" width="25.999" height="24.6227" filterUnits="userSpaceOnUse" color-interpolation-filters="sRGB">
<feFlood flood-opacity="0" result="BackgroundImageFix"/>
<feColorMatrix in="SourceAlpha" type="matrix" values="0 0 0 0 0 0 0 0 0 0 0 0 0 0 0 0 0 0 127 0" result="hardAlpha"/>
<feOffset dy="2"/>
<feGaussianBlur stdDeviation="2"/>
<feComposite in2="hardAlpha" operator="out"/>
<feColorMatrix type="matrix" values="0 0 0 0 0 0 0 0 0 0 0 0 0 0 0 0 0 0 0.25 0"/>
<feBlend mode="normal" in2="BackgroundImageFix" result="effect1_dropShadow_32_10375"/>
<feBlend mode="normal" in="SourceGraphic" in2="effect1_dropShadow_32_10375" result="shape"/>
</filter>
<filter id="filter3_d_32_10375" x="-1.00195" y="1" width="25.9326" height="16.9332" filterUnits="userSpaceOnUse" color-interpolation-filters="sRGB">
<feFlood flood-opacity="0" result="BackgroundImageFix"/>
<feColorMatrix in="SourceAlpha" type="matrix" values="0 0 0 0 0 0 0 0 0 0 0 0 0 0 0 0 0 0 127 0" result="hardAlpha"/>
<feOffset dy="2"/>
<feGaussianBlur stdDeviation="2"/>
<feComposite in2="hardAlpha" operator="out"/>
<feColorMatrix type="matrix" values="0 0 0 0 0 0 0 0 0 0 0 0 0 0 0 0 0 0 0.25 0"/>
<feBlend mode="normal" in2="BackgroundImageFix" result="effect1_dropShadow_32_10375"/>
<feBlend mode="normal" in="SourceGraphic" in2="effect1_dropShadow_32_10375" result="shape"/>
</filter>
<filter id="filter4_d_32_10375" x="2.375" y="4.375" width="19.25" height="19.25" filterUnits="userSpaceOnUse" color-interpolation-filters="sRGB">
<feFlood flood-opacity="0" result="BackgroundImageFix"/>
<feColorMatrix in="SourceAlpha" type="matrix" values="0 0 0 0 0 0 0 0 0 0 0 0 0 0 0 0 0 0 127 0" result="hardAlpha"/>
<feOffset dy="2"/>
<feGaussianBlur stdDeviation="2"/>
<feComposite in2="hardAlpha" operator="out"/>
<feColorMatrix type="matrix" values="0 0 0 0 0 0 0 0 0 0 0 0 0 0 0 0 0 0 0.25 0"/>
<feBlend mode="normal" in2="BackgroundImageFix" result="effect1_dropShadow_32_10375"/>
<feBlend mode="normal" in="SourceGraphic" in2="effect1_dropShadow_32_10375" result="shape"/>
</filter>
<linearGradient id="paint0_linear_32_10375" x1="12" y1="0" x2="12" y2="24" gradientUnits="userSpaceOnUse">
<stop stop-color="#3BEA62"/>
<stop offset="0.510417" stop-color="#087CFA"/>
<stop offset="1" stop-color="#B74AF7"/>
</linearGradient>
<linearGradient id="paint1_linear_32_10375" x1="7.36147" y1="20.8706" x2="17.2625" y2="5.67111" gradientUnits="userSpaceOnUse">
<stop stop-color="#6B57FF"/>
<stop offset="0.461429" stop-color="#FF318C"/>
<stop offset="1" stop-color="#FDB60D"/>
</linearGradient>
<linearGradient id="paint2_linear_32_10375" x1="2.6328" y1="17.1342" x2="17.3225" y2="15.022" gradientUnits="userSpaceOnUse">
<stop offset="0.18" stop-color="#FC801D"/>
<stop offset="0.63" stop-color="#FF318C"/>
</linearGradient>
<linearGradient id="paint3_linear_32_10375" x1="0.490066" y1="2.77921" x2="21.3814" y2="18.3056" gradientUnits="userSpaceOnUse">
<stop stop-color="#FF318C"/>
<stop offset="0.4" stop-color="#B74AF7"/>
<stop offset="0.87" stop-color="#FF318C"/>
</linearGradient>
<linearGradient id="paint4_linear_32_10375" x1="-1.93742" y1="9.65859" x2="21.2305" y2="4.22484" gradientUnits="userSpaceOnUse">
<stop stop-color="#FF318C"/>
<stop offset="0.2" stop-color="#D73BAB"/>
<stop offset="0.51" stop-color="#9D4AD8"/>
<stop offset="0.75" stop-color="#7953F4"/>
<stop offset="0.87" stop-color="#6B57FF"/>
</linearGradient>
<clipPath id="clip0_32_10375">
<rect width="24" height="24" fill="white"/>
</clipPath>
</defs>
</svg>
