<svg width="24" height="24" viewBox="0 0 24 24" fill="none" xmlns="http://www.w3.org/2000/svg">
<g clip-path="url(#clip0_32_10416)">
<path d="M18 0H6C2.68629 0 0 2.68629 0 6V18C0 21.3137 2.68629 24 6 24H18C21.3137 24 24 21.3137 24 18V6C24 2.68629 21.3137 0 18 0Z" fill="url(#paint0_linear_32_10416)"/>
<path d="M18 0H6C2.68629 0 0 2.68629 0 6V18C0 21.3137 2.68629 24 6 24H18C21.3137 24 24 21.3137 24 18V6C24 2.68629 21.3137 0 18 0Z" fill="url(#paint1_linear_32_10416)"/>
<g filter="url(#filter0_i_32_10416)">
<path d="M18 1.5H6C3.51472 1.5 1.5 3.51472 1.5 6V18C1.5 20.4853 3.51472 22.5 6 22.5H18C20.4853 22.5 22.5 20.4853 22.5 18V6C22.5 3.51472 20.4853 1.5 18 1.5Z" fill="black" fill-opacity="0.7"/>
<mask id="mask0_32_10416" style="mask-type:luminance" maskUnits="userSpaceOnUse" x="3" y="3" width="18" height="18">
<path d="M21 3H3V21H21V3Z" fill="white"/>
</mask>
<g mask="url(#mask0_32_10416)">
<g filter="url(#filter1_d_32_10416)">
<path d="M8.21319 7.43829L7.72976 16.0526L6.4869 20.208L3.77148 9.17316L8.21319 7.43829Z" fill="url(#paint2_linear_32_10416)"/>
</g>
<g filter="url(#filter2_d_32_10416)">
<path d="M8.21358 7.43827L8.71244 3.75084L15.3433 20.208H6.4873L7.73017 16.0526L8.21358 7.43827Z" fill="url(#paint3_linear_32_10416)"/>
</g>
<g filter="url(#filter3_d_32_10416)">
<path d="M12.0599 14.8166H20.2285L17.4976 3.75084H8.71191L12.0599 14.8166Z" fill="url(#paint4_linear_32_10416)"/>
</g>
<g filter="url(#filter4_d_32_10416)">
<path d="M6.85742 6.85713H17.1431V17.1429H6.85742V6.85713Z" fill="black"/>
</g>
<path d="M8.13965 15.1989H11.9968V15.8417H8.13965V15.1989Z" fill="white"/>
<path d="M8.14258 8.13259H9.90487C10.1093 8.11912 10.3144 8.14695 10.5079 8.21439C10.7014 8.28184 10.8793 8.38751 11.0311 8.52516C11.1436 8.64242 11.231 8.78128 11.2882 8.93333C11.3453 9.08537 11.371 9.24744 11.3637 9.40973V9.42173C11.3754 9.69518 11.2945 9.96458 11.134 10.1863C10.9814 10.3834 10.7765 10.5337 10.5426 10.62L11.4871 12.0017H10.4929L9.68544 10.8137H8.98258V12.0017H8.14258V8.13259ZM9.85687 10.0183C10.03 10.0244 10.1995 9.96713 10.3334 9.85716C10.3892 9.80732 10.4335 9.74591 10.4631 9.67723C10.4927 9.60853 10.5069 9.53421 10.5049 9.45945V9.44916C10.5108 9.3714 10.4984 9.29334 10.4686 9.22129C10.4389 9.14921 10.3925 9.08516 10.3334 9.03429C10.1895 8.93466 10.0162 8.88636 9.84144 8.89716H8.98601V10.0115L9.85687 10.0183Z" fill="white"/>
<path d="M14.1707 9.40973H13.2861V8.62973H14.1638V7.75887H14.9661V8.62973H15.8576V9.40973H14.973V10.2806H14.1707V9.40973Z" fill="white"/>
<path d="M12.4922 11.52H11.6162V10.74H12.4922V9.86916H13.2945V10.74H14.1705V11.52H13.2945V12.3909H12.4922V11.52Z" fill="white"/>
</g>
</g>
</g>
<defs>
<filter id="filter0_i_32_10416" x="1.5" y="1.5" width="21" height="25" filterUnits="userSpaceOnUse" color-interpolation-filters="sRGB">
<feFlood flood-opacity="0" result="BackgroundImageFix"/>
<feBlend mode="normal" in="SourceGraphic" in2="BackgroundImageFix" result="shape"/>
<feColorMatrix in="SourceAlpha" type="matrix" values="0 0 0 0 0 0 0 0 0 0 0 0 0 0 0 0 0 0 127 0" result="hardAlpha"/>
<feOffset dy="4"/>
<feGaussianBlur stdDeviation="2"/>
<feComposite in2="hardAlpha" operator="arithmetic" k2="-1" k3="1"/>
<feColorMatrix type="matrix" values="0 0 0 0 0 0 0 0 0 0 0 0 0 0 0 0 0 0 0.25 0"/>
<feBlend mode="normal" in2="shape" result="effect1_innerShadow_32_10416"/>
</filter>
<filter id="filter1_d_32_10416" x="-0.228516" y="5.43829" width="12.4414" height="20.7697" filterUnits="userSpaceOnUse" color-interpolation-filters="sRGB">
<feFlood flood-opacity="0" result="BackgroundImageFix"/>
<feColorMatrix in="SourceAlpha" type="matrix" values="0 0 0 0 0 0 0 0 0 0 0 0 0 0 0 0 0 0 127 0" result="hardAlpha"/>
<feOffset dy="2"/>
<feGaussianBlur stdDeviation="2"/>
<feComposite in2="hardAlpha" operator="out"/>
<feColorMatrix type="matrix" values="0 0 0 0 0 0 0 0 0 0 0 0 0 0 0 0 0 0 0.25 0"/>
<feBlend mode="normal" in2="BackgroundImageFix" result="effect1_dropShadow_32_10416"/>
<feBlend mode="normal" in="SourceGraphic" in2="effect1_dropShadow_32_10416" result="shape"/>
</filter>
<filter id="filter2_d_32_10416" x="2.4873" y="1.75084" width="16.8564" height="24.4572" filterUnits="userSpaceOnUse" color-interpolation-filters="sRGB">
<feFlood flood-opacity="0" result="BackgroundImageFix"/>
<feColorMatrix in="SourceAlpha" type="matrix" values="0 0 0 0 0 0 0 0 0 0 0 0 0 0 0 0 0 0 127 0" result="hardAlpha"/>
<feOffset dy="2"/>
<feGaussianBlur stdDeviation="2"/>
<feComposite in2="hardAlpha" operator="out"/>
<feColorMatrix type="matrix" values="0 0 0 0 0 0 0 0 0 0 0 0 0 0 0 0 0 0 0.25 0"/>
<feBlend mode="normal" in2="BackgroundImageFix" result="effect1_dropShadow_32_10416"/>
<feBlend mode="normal" in="SourceGraphic" in2="effect1_dropShadow_32_10416" result="shape"/>
</filter>
<filter id="filter3_d_32_10416" x="4.71191" y="1.75084" width="19.5166" height="19.0657" filterUnits="userSpaceOnUse" color-interpolation-filters="sRGB">
<feFlood flood-opacity="0" result="BackgroundImageFix"/>
<feColorMatrix in="SourceAlpha" type="matrix" values="0 0 0 0 0 0 0 0 0 0 0 0 0 0 0 0 0 0 127 0" result="hardAlpha"/>
<feOffset dy="2"/>
<feGaussianBlur stdDeviation="2"/>
<feComposite in2="hardAlpha" operator="out"/>
<feColorMatrix type="matrix" values="0 0 0 0 0 0 0 0 0 0 0 0 0 0 0 0 0 0 0.25 0"/>
<feBlend mode="normal" in2="BackgroundImageFix" result="effect1_dropShadow_32_10416"/>
<feBlend mode="normal" in="SourceGraphic" in2="effect1_dropShadow_32_10416" result="shape"/>
</filter>
<filter id="filter4_d_32_10416" x="2.85742" y="4.85713" width="18.2861" height="18.2857" filterUnits="userSpaceOnUse" color-interpolation-filters="sRGB">
<feFlood flood-opacity="0" result="BackgroundImageFix"/>
<feColorMatrix in="SourceAlpha" type="matrix" values="0 0 0 0 0 0 0 0 0 0 0 0 0 0 0 0 0 0 127 0" result="hardAlpha"/>
<feOffset dy="2"/>
<feGaussianBlur stdDeviation="2"/>
<feComposite in2="hardAlpha" operator="out"/>
<feColorMatrix type="matrix" values="0 0 0 0 0 0 0 0 0 0 0 0 0 0 0 0 0 0 0.25 0"/>
<feBlend mode="normal" in2="BackgroundImageFix" result="effect1_dropShadow_32_10416"/>
<feBlend mode="normal" in="SourceGraphic" in2="effect1_dropShadow_32_10416" result="shape"/>
</filter>
<linearGradient id="paint0_linear_32_10416" x1="12" y1="0" x2="12" y2="24" gradientUnits="userSpaceOnUse">
<stop stop-color="#3BEA62"/>
<stop offset="0.510417" stop-color="#087CFA"/>
<stop offset="1" stop-color="#B74AF7"/>
</linearGradient>
<linearGradient id="paint1_linear_32_10416" x1="2.19709" y1="-0.985283" x2="25.0116" y2="25.1923" gradientUnits="userSpaceOnUse">
<stop offset="0.18" stop-color="#FDB60D"/>
<stop offset="0.49" stop-color="#FF45ED"/>
<stop offset="0.82" stop-color="#DD1265"/>
</linearGradient>
<linearGradient id="paint2_linear_32_10416" x1="4.97662" y1="7.81886" x2="9.96005" y2="20.424" gradientUnits="userSpaceOnUse">
<stop offset="0.22" stop-color="#DD1265"/>
<stop offset="0.74" stop-color="#FF45ED"/>
<stop offset="1" stop-color="#FDB60D"/>
</linearGradient>
<linearGradient id="paint3_linear_32_10416" x1="16.0633" y1="20.9811" x2="3.87644" y2="8.0177" gradientUnits="userSpaceOnUse">
<stop offset="0.11" stop-color="#FDB60D"/>
<stop offset="0.51" stop-color="#FF45ED"/>
<stop offset="0.76" stop-color="#FF45ED"/>
<stop offset="1" stop-color="#FDB60D"/>
</linearGradient>
<linearGradient id="paint4_linear_32_10416" x1="9.76621" y1="3.29656" x2="20.2199" y2="15.78" gradientUnits="userSpaceOnUse">
<stop offset="0.18" stop-color="#FDB60D"/>
<stop offset="0.49" stop-color="#FF45ED"/>
<stop offset="0.82" stop-color="#DD1265"/>
</linearGradient>
<clipPath id="clip0_32_10416">
<rect width="24" height="24" fill="white"/>
</clipPath>
</defs>
</svg>
