<svg width="24" height="24" viewBox="0 0 24 24" fill="none" xmlns="http://www.w3.org/2000/svg">
<g clip-path="url(#clip0_32_10437)">
<path d="M18 0H6C2.68629 0 0 2.68629 0 6V18C0 21.3137 2.68629 24 6 24H18C21.3137 24 24 21.3137 24 18V6C24 2.68629 21.3137 0 18 0Z" fill="url(#paint0_linear_32_10437)"/>
<g filter="url(#filter0_i_32_10437)">
<path d="M18 1.5H6C3.51472 1.5 1.5 3.51472 1.5 6V18C1.5 20.4853 3.51472 22.5 6 22.5H18C20.4853 22.5 22.5 20.4853 22.5 18V6C22.5 3.51472 20.4853 1.5 18 1.5Z" fill="black" fill-opacity="0.7"/>
<g filter="url(#filter1_d_32_10437)">
<path d="M10.0752 5.45512L9.98141 5.31442C9.56411 4.68847 8.86159 4.3125 8.1093 4.3125H6.5625C5.31986 4.3125 4.3125 5.31986 4.3125 6.5625V17.4375C4.3125 18.6801 5.31986 19.6875 6.5625 19.6875H17.4375C18.6801 19.6875 19.6875 18.6801 19.6875 17.4375V9.375C19.6875 8.13236 18.6801 7.125 17.4375 7.125H13.1954C11.9416 7.125 10.7707 6.49837 10.0752 5.45512ZM10.0752 5.45512L10.6992 5.0391" stroke="url(#paint1_linear_32_10437)" stroke-width="3"/>
</g>
<g filter="url(#filter2_d_32_10437)">
<path fill-rule="evenodd" clip-rule="evenodd" d="M10.1292 13.1993C10.2946 14.1511 11.1608 14.8791 12.2011 14.8791H15.5244C16.104 14.8791 16.6324 14.7079 17.0119 14.2952C17.3871 13.887 17.5993 13.3242 17.625 12.6674V12.6521C17.625 12.0197 17.3645 11.3802 16.8918 10.9531C16.4352 10.5404 15.8276 10.313 15.1808 10.313H13.29V10.023C13.29 9.90766 13.2183 9.816 13.1223 9.77446C13.0436 9.7403 12.9489 9.73966 12.8635 9.78693L11.6281 10.4705C11.4383 10.5753 11.4383 10.8372 11.6281 10.9419L12.8635 11.6252C12.9489 11.6725 13.0436 11.6718 13.1223 11.6376C13.2183 11.5961 13.29 11.5048 13.29 11.3894V11.1515H15.1808C15.6031 11.1515 15.9973 11.3537 16.2908 11.6188C16.5847 11.8842 16.7471 12.2484 16.7494 12.6444C16.7124 13.527 16.2321 14.0406 15.5244 14.0406H12.2011C11.6084 14.0406 11.1121 13.6353 11 13.0987C10.972 12.9648 10.8509 12.8674 10.7085 12.8674H10.4217C10.2379 12.8674 10.0988 13.0258 10.1292 13.1993Z" fill="#8B00E7"/>
<path d="M8.81912 16.312C8.17239 16.312 7.56471 16.0849 7.10811 15.6722C6.63549 15.2448 6.375 14.6057 6.375 13.9732V13.9575C6.40069 13.3011 6.61281 12.738 6.98803 12.3298C7.36759 11.9174 7.89591 11.7459 8.47558 11.7459H11.7989C12.8392 11.7459 13.7054 12.4739 13.8708 13.4257C13.9011 13.5995 13.762 13.7579 13.5783 13.7579H13.2914C13.149 13.7579 13.028 13.6605 12.9999 13.5267C12.8879 12.99 12.3916 12.5844 11.7989 12.5844H8.47558C7.76782 12.5844 7.28754 13.0983 7.25051 13.9806C7.25286 14.3769 7.41529 14.7408 7.70912 15.0062C8.00263 15.2716 8.39687 15.4735 8.81912 15.4735H10.7099V15.2359C10.7099 15.0353 10.9264 14.9069 11.1111 14.9874C11.1198 14.9912 11.1281 14.9953 11.1365 14.9998L12.3719 15.6831C12.5617 15.7878 12.5617 16.0501 12.3719 16.1548L11.1982 16.8039C11.1982 16.8039 11.1198 16.8467 11.1111 16.8505C10.9264 16.9313 10.7099 16.8026 10.7099 16.6023V16.312H8.81912Z" fill="#D404FF"/>
</g>
</g>
</g>
<defs>
<filter id="filter0_i_32_10437" x="1.5" y="1.5" width="21" height="25" filterUnits="userSpaceOnUse" color-interpolation-filters="sRGB">
<feFlood flood-opacity="0" result="BackgroundImageFix"/>
<feBlend mode="normal" in="SourceGraphic" in2="BackgroundImageFix" result="shape"/>
<feColorMatrix in="SourceAlpha" type="matrix" values="0 0 0 0 0 0 0 0 0 0 0 0 0 0 0 0 0 0 127 0" result="hardAlpha"/>
<feOffset dy="4"/>
<feGaussianBlur stdDeviation="2"/>
<feComposite in2="hardAlpha" operator="arithmetic" k2="-1" k3="1"/>
<feColorMatrix type="matrix" values="0 0 0 0 0 0 0 0 0 0 0 0 0 0 0 0 0 0 0.25 0"/>
<feBlend mode="normal" in2="shape" result="effect1_innerShadow_32_10437"/>
</filter>
<filter id="filter1_d_32_10437" x="-1.1875" y="0.8125" width="26.375" height="26.375" filterUnits="userSpaceOnUse" color-interpolation-filters="sRGB">
<feFlood flood-opacity="0" result="BackgroundImageFix"/>
<feColorMatrix in="SourceAlpha" type="matrix" values="0 0 0 0 0 0 0 0 0 0 0 0 0 0 0 0 0 0 127 0" result="hardAlpha"/>
<feOffset dy="2"/>
<feGaussianBlur stdDeviation="2"/>
<feComposite in2="hardAlpha" operator="out"/>
<feColorMatrix type="matrix" values="0 0 0 0 0 0 0 0 0 0 0 0 0 0 0 0 0 0 0.25 0"/>
<feBlend mode="normal" in2="BackgroundImageFix" result="effect1_dropShadow_32_10437"/>
<feBlend mode="normal" in="SourceGraphic" in2="effect1_dropShadow_32_10437" result="shape"/>
</filter>
<filter id="filter2_d_32_10437" x="2.375" y="7.75" width="19.25" height="15.125" filterUnits="userSpaceOnUse" color-interpolation-filters="sRGB">
<feFlood flood-opacity="0" result="BackgroundImageFix"/>
<feColorMatrix in="SourceAlpha" type="matrix" values="0 0 0 0 0 0 0 0 0 0 0 0 0 0 0 0 0 0 127 0" result="hardAlpha"/>
<feOffset dy="2"/>
<feGaussianBlur stdDeviation="2"/>
<feComposite in2="hardAlpha" operator="out"/>
<feColorMatrix type="matrix" values="0 0 0 0 0 0 0 0 0 0 0 0 0 0 0 0 0 0 0.25 0"/>
<feBlend mode="normal" in2="BackgroundImageFix" result="effect1_dropShadow_32_10437"/>
<feBlend mode="normal" in="SourceGraphic" in2="effect1_dropShadow_32_10437" result="shape"/>
</filter>
<linearGradient id="paint0_linear_32_10437" x1="12" y1="0" x2="12" y2="24" gradientUnits="userSpaceOnUse">
<stop stop-color="#CB02C5"/>
<stop offset="0.244792" stop-color="#C101DA"/>
<stop offset="0.510417" stop-color="#B600F0"/>
<stop offset="0.744792" stop-color="#8900D9"/>
<stop offset="1" stop-color="#5800BF"/>
</linearGradient>
<linearGradient id="paint1_linear_32_10437" x1="12" y1="3.5625" x2="12" y2="20.4375" gradientUnits="userSpaceOnUse">
<stop stop-color="#C301D5"/>
<stop offset="0.505208" stop-color="#B600EF"/>
<stop offset="1" stop-color="#8100D4"/>
</linearGradient>
<clipPath id="clip0_32_10437">
<rect width="24" height="24" fill="white"/>
</clipPath>
</defs>
</svg>
