<svg width="24" height="24" viewBox="0 0 24 24" fill="none" xmlns="http://www.w3.org/2000/svg">
<g clip-path="url(#clip0_32_10479)">
<path d="M18 0H6C2.68629 0 0 2.68629 0 6V18C0 21.3137 2.68629 24 6 24H18C21.3137 24 24 21.3137 24 18V6C24 2.68629 21.3137 0 18 0Z" fill="url(#paint0_linear_32_10479)"/>
<path d="M18 0H6C2.68629 0 0 2.68629 0 6V18C0 21.3137 2.68629 24 6 24H18C21.3137 24 24 21.3137 24 18V6C24 2.68629 21.3137 0 18 0Z" fill="url(#paint1_linear_32_10479)"/>
<path d="M18 0H6C2.68629 0 0 2.68629 0 6V18C0 21.3137 2.68629 24 6 24H18C21.3137 24 24 21.3137 24 18V6C24 2.68629 21.3137 0 18 0Z" fill="url(#paint2_linear_32_10479)"/>
<g filter="url(#filter0_i_32_10479)">
<path d="M18 1.5H6C3.51472 1.5 1.5 3.51472 1.5 6V18C1.5 20.4853 3.51472 22.5 6 22.5H18C20.4853 22.5 22.5 20.4853 22.5 18V6C22.5 3.51472 20.4853 1.5 18 1.5Z" fill="black" fill-opacity="0.7"/>
<mask id="mask0_32_10479" style="mask-type:luminance" maskUnits="userSpaceOnUse" x="3" y="3" width="18" height="18">
<path d="M21 3H3V21H21V3Z" fill="white"/>
</mask>
<g mask="url(#mask0_32_10479)">
<g filter="url(#filter1_d_32_10479)">
<path d="M15.908 17.4085L9.27328 21L3 17.3269L14.5312 13.0181L15.908 17.4085Z" fill="url(#paint3_linear_32_10479)"/>
</g>
<g filter="url(#filter2_d_32_10479)">
<path d="M13.2783 3L9.67266 13.6959L6.08391 11.692L3 17.3269L8.75859 16.4072L16.0655 15.1177L21 14.0123V7.30031L13.2783 3Z" fill="url(#paint4_linear_32_10479)"/>
</g>
<g filter="url(#filter3_d_32_10479)">
<path d="M11.1562 9.23531L6.3525 7.85297L5.95312 3L9.99469 4.69875L13.2797 3L11.1562 9.23531Z" fill="#087CFA"/>
</g>
<g filter="url(#filter4_d_32_10479)">
<path d="M11.2973 8.95406L9.99512 4.69875L13.2801 3L11.2973 8.95406Z" fill="url(#paint5_linear_32_10479)"/>
</g>
<g filter="url(#filter5_d_32_10479)">
<path d="M15.3877 13.4527L5.95734 3L3 9.74156L11.3264 16.9345L15.3877 13.4527Z" fill="url(#paint6_linear_32_10479)"/>
</g>
<g filter="url(#filter6_d_32_10479)">
<path d="M21 14.0124L15.5156 15.278L15.7252 14.3738L21 7.30033V14.0124Z" fill="url(#paint7_linear_32_10479)"/>
</g>
<g filter="url(#filter7_d_32_10479)">
<path d="M18.1184 21L11.3262 16.936L15.3874 13.4527L18.1184 21Z" fill="url(#paint8_linear_32_10479)"/>
</g>
<g filter="url(#filter8_d_32_10479)">
<path d="M17.625 6.375H6.375V17.625H17.625V6.375Z" fill="black"/>
</g>
<path d="M12 15.5156H7.78125V16.2188H12V15.5156Z" fill="white"/>
<path d="M7.75 7.78125H9.67938C10.2166 7.78125 10.6328 7.93172 10.9098 8.20312C11.0315 8.33166 11.1263 8.48321 11.1886 8.64887C11.2509 8.81453 11.2795 8.99096 11.2727 9.16781V9.1875C11.2861 9.47483 11.2047 9.75859 11.0411 9.99516C10.8774 10.2317 10.6406 10.4079 10.367 10.4967L11.3992 12H10.3122L9.40656 10.6486H8.67813V12H7.75V7.78125ZM9.61891 9.82594C10.0717 9.82594 10.3305 9.58406 10.3305 9.22828V9.21703C10.3305 8.81906 10.0492 8.61375 9.60203 8.61375H8.67813V9.82594H9.61891Z" fill="white"/>
<path d="M12.1123 7.78125H15.327V8.625H13.0418V9.52359H15.0556V10.3673H13.0418V12H12.1123V7.78125Z" fill="white"/>
</g>
</g>
</g>
<defs>
<filter id="filter0_i_32_10479" x="1.5" y="1.5" width="21" height="25" filterUnits="userSpaceOnUse" color-interpolation-filters="sRGB">
<feFlood flood-opacity="0" result="BackgroundImageFix"/>
<feBlend mode="normal" in="SourceGraphic" in2="BackgroundImageFix" result="shape"/>
<feColorMatrix in="SourceAlpha" type="matrix" values="0 0 0 0 0 0 0 0 0 0 0 0 0 0 0 0 0 0 127 0" result="hardAlpha"/>
<feOffset dy="4"/>
<feGaussianBlur stdDeviation="2"/>
<feComposite in2="hardAlpha" operator="arithmetic" k2="-1" k3="1"/>
<feColorMatrix type="matrix" values="0 0 0 0 0 0 0 0 0 0 0 0 0 0 0 0 0 0 0.25 0"/>
<feBlend mode="normal" in2="shape" result="effect1_innerShadow_32_10479"/>
</filter>
<filter id="filter1_d_32_10479" x="-1" y="11.0181" width="20.9082" height="15.9819" filterUnits="userSpaceOnUse" color-interpolation-filters="sRGB">
<feFlood flood-opacity="0" result="BackgroundImageFix"/>
<feColorMatrix in="SourceAlpha" type="matrix" values="0 0 0 0 0 0 0 0 0 0 0 0 0 0 0 0 0 0 127 0" result="hardAlpha"/>
<feOffset dy="2"/>
<feGaussianBlur stdDeviation="2"/>
<feComposite in2="hardAlpha" operator="out"/>
<feColorMatrix type="matrix" values="0 0 0 0 0 0 0 0 0 0 0 0 0 0 0 0 0 0 0.25 0"/>
<feBlend mode="normal" in2="BackgroundImageFix" result="effect1_dropShadow_32_10479"/>
<feBlend mode="normal" in="SourceGraphic" in2="effect1_dropShadow_32_10479" result="shape"/>
</filter>
<filter id="filter2_d_32_10479" x="-1" y="1" width="26" height="22.3269" filterUnits="userSpaceOnUse" color-interpolation-filters="sRGB">
<feFlood flood-opacity="0" result="BackgroundImageFix"/>
<feColorMatrix in="SourceAlpha" type="matrix" values="0 0 0 0 0 0 0 0 0 0 0 0 0 0 0 0 0 0 127 0" result="hardAlpha"/>
<feOffset dy="2"/>
<feGaussianBlur stdDeviation="2"/>
<feComposite in2="hardAlpha" operator="out"/>
<feColorMatrix type="matrix" values="0 0 0 0 0 0 0 0 0 0 0 0 0 0 0 0 0 0 0.25 0"/>
<feBlend mode="normal" in2="BackgroundImageFix" result="effect1_dropShadow_32_10479"/>
<feBlend mode="normal" in="SourceGraphic" in2="effect1_dropShadow_32_10479" result="shape"/>
</filter>
<filter id="filter3_d_32_10479" x="1.95312" y="1" width="15.3262" height="14.2353" filterUnits="userSpaceOnUse" color-interpolation-filters="sRGB">
<feFlood flood-opacity="0" result="BackgroundImageFix"/>
<feColorMatrix in="SourceAlpha" type="matrix" values="0 0 0 0 0 0 0 0 0 0 0 0 0 0 0 0 0 0 127 0" result="hardAlpha"/>
<feOffset dy="2"/>
<feGaussianBlur stdDeviation="2"/>
<feComposite in2="hardAlpha" operator="out"/>
<feColorMatrix type="matrix" values="0 0 0 0 0 0 0 0 0 0 0 0 0 0 0 0 0 0 0.25 0"/>
<feBlend mode="normal" in2="BackgroundImageFix" result="effect1_dropShadow_32_10479"/>
<feBlend mode="normal" in="SourceGraphic" in2="effect1_dropShadow_32_10479" result="shape"/>
</filter>
<filter id="filter4_d_32_10479" x="5.99512" y="1" width="11.2852" height="13.9541" filterUnits="userSpaceOnUse" color-interpolation-filters="sRGB">
<feFlood flood-opacity="0" result="BackgroundImageFix"/>
<feColorMatrix in="SourceAlpha" type="matrix" values="0 0 0 0 0 0 0 0 0 0 0 0 0 0 0 0 0 0 127 0" result="hardAlpha"/>
<feOffset dy="2"/>
<feGaussianBlur stdDeviation="2"/>
<feComposite in2="hardAlpha" operator="out"/>
<feColorMatrix type="matrix" values="0 0 0 0 0 0 0 0 0 0 0 0 0 0 0 0 0 0 0.25 0"/>
<feBlend mode="normal" in2="BackgroundImageFix" result="effect1_dropShadow_32_10479"/>
<feBlend mode="normal" in="SourceGraphic" in2="effect1_dropShadow_32_10479" result="shape"/>
</filter>
<filter id="filter5_d_32_10479" x="-1" y="1" width="20.3877" height="21.9345" filterUnits="userSpaceOnUse" color-interpolation-filters="sRGB">
<feFlood flood-opacity="0" result="BackgroundImageFix"/>
<feColorMatrix in="SourceAlpha" type="matrix" values="0 0 0 0 0 0 0 0 0 0 0 0 0 0 0 0 0 0 127 0" result="hardAlpha"/>
<feOffset dy="2"/>
<feGaussianBlur stdDeviation="2"/>
<feComposite in2="hardAlpha" operator="out"/>
<feColorMatrix type="matrix" values="0 0 0 0 0 0 0 0 0 0 0 0 0 0 0 0 0 0 0.25 0"/>
<feBlend mode="normal" in2="BackgroundImageFix" result="effect1_dropShadow_32_10479"/>
<feBlend mode="normal" in="SourceGraphic" in2="effect1_dropShadow_32_10479" result="shape"/>
</filter>
<filter id="filter6_d_32_10479" x="11.5156" y="5.30033" width="13.4844" height="15.9777" filterUnits="userSpaceOnUse" color-interpolation-filters="sRGB">
<feFlood flood-opacity="0" result="BackgroundImageFix"/>
<feColorMatrix in="SourceAlpha" type="matrix" values="0 0 0 0 0 0 0 0 0 0 0 0 0 0 0 0 0 0 127 0" result="hardAlpha"/>
<feOffset dy="2"/>
<feGaussianBlur stdDeviation="2"/>
<feComposite in2="hardAlpha" operator="out"/>
<feColorMatrix type="matrix" values="0 0 0 0 0 0 0 0 0 0 0 0 0 0 0 0 0 0 0.25 0"/>
<feBlend mode="normal" in2="BackgroundImageFix" result="effect1_dropShadow_32_10479"/>
<feBlend mode="normal" in="SourceGraphic" in2="effect1_dropShadow_32_10479" result="shape"/>
</filter>
<filter id="filter7_d_32_10479" x="7.32617" y="11.4527" width="14.792" height="15.5473" filterUnits="userSpaceOnUse" color-interpolation-filters="sRGB">
<feFlood flood-opacity="0" result="BackgroundImageFix"/>
<feColorMatrix in="SourceAlpha" type="matrix" values="0 0 0 0 0 0 0 0 0 0 0 0 0 0 0 0 0 0 127 0" result="hardAlpha"/>
<feOffset dy="2"/>
<feGaussianBlur stdDeviation="2"/>
<feComposite in2="hardAlpha" operator="out"/>
<feColorMatrix type="matrix" values="0 0 0 0 0 0 0 0 0 0 0 0 0 0 0 0 0 0 0.25 0"/>
<feBlend mode="normal" in2="BackgroundImageFix" result="effect1_dropShadow_32_10479"/>
<feBlend mode="normal" in="SourceGraphic" in2="effect1_dropShadow_32_10479" result="shape"/>
</filter>
<filter id="filter8_d_32_10479" x="2.375" y="4.375" width="19.25" height="19.25" filterUnits="userSpaceOnUse" color-interpolation-filters="sRGB">
<feFlood flood-opacity="0" result="BackgroundImageFix"/>
<feColorMatrix in="SourceAlpha" type="matrix" values="0 0 0 0 0 0 0 0 0 0 0 0 0 0 0 0 0 0 127 0" result="hardAlpha"/>
<feOffset dy="2"/>
<feGaussianBlur stdDeviation="2"/>
<feComposite in2="hardAlpha" operator="out"/>
<feColorMatrix type="matrix" values="0 0 0 0 0 0 0 0 0 0 0 0 0 0 0 0 0 0 0.25 0"/>
<feBlend mode="normal" in2="BackgroundImageFix" result="effect1_dropShadow_32_10479"/>
<feBlend mode="normal" in="SourceGraphic" in2="effect1_dropShadow_32_10479" result="shape"/>
</filter>
<linearGradient id="paint0_linear_32_10479" x1="12" y1="0" x2="12" y2="24" gradientUnits="userSpaceOnUse">
<stop stop-color="#087CFA"/>
<stop offset="0.317708" stop-color="#963597"/>
<stop offset="0.671875" stop-color="#DD1265"/>
<stop offset="1" stop-color="#ED6438"/>
</linearGradient>
<linearGradient id="paint1_linear_32_10479" x1="7.56045" y1="1.36118" x2="11.7251" y2="17.3215" gradientUnits="userSpaceOnUse">
<stop stop-color="#087CFA"/>
<stop offset="0.33" stop-color="#903ACA"/>
<stop offset="0.6" stop-color="#DD1265"/>
</linearGradient>
<linearGradient id="paint2_linear_32_10479" x1="23.9602" y1="25.7439" x2="8.20168" y2="2.31652" gradientUnits="userSpaceOnUse">
<stop offset="0.125" stop-color="#FDB60D"/>
<stop offset="0.348958" stop-color="#DD1265"/>
<stop offset="0.661458" stop-color="#9338C6"/>
<stop offset="1" stop-color="#087CFA"/>
</linearGradient>
<linearGradient id="paint3_linear_32_10479" x1="7.33125" y1="13.6791" x2="12.9422" y2="19.5137" gradientUnits="userSpaceOnUse">
<stop offset="0.01" stop-color="#087CFA"/>
<stop offset="0.49" stop-color="#903ACA"/>
<stop offset="0.93" stop-color="#DD1265"/>
</linearGradient>
<linearGradient id="paint4_linear_32_10479" x1="13.8563" y1="12.2995" x2="17.8331" y2="5.28797" gradientUnits="userSpaceOnUse">
<stop offset="0.59" stop-color="#087CFA"/>
<stop offset="0.99" stop-color="#0093FF"/>
</linearGradient>
<linearGradient id="paint5_linear_32_10479" x1="10.7812" y1="2.99297" x2="13.7301" y2="8.84156" gradientUnits="userSpaceOnUse">
<stop offset="0.21" stop-color="#087CFA"/>
<stop offset="0.7" stop-color="#DD1265"/>
</linearGradient>
<linearGradient id="paint6_linear_32_10479" x1="6.90234" y1="3.79031" x2="9.57703" y2="12.9028" gradientUnits="userSpaceOnUse">
<stop stop-color="#087CFA"/>
<stop offset="0.33" stop-color="#903ACA"/>
<stop offset="0.6" stop-color="#DD1265"/>
</linearGradient>
<linearGradient id="paint7_linear_32_10479" x1="23.9856" y1="7.25533" x2="15.8292" y2="16.545" gradientUnits="userSpaceOnUse">
<stop offset="0.21" stop-color="#087CFA"/>
<stop offset="0.56" stop-color="#903ACA"/>
<stop offset="0.84" stop-color="#DD1265"/>
</linearGradient>
<linearGradient id="paint8_linear_32_10479" x1="18.1071" y1="21.5484" x2="12.9757" y2="14.6831" gradientUnits="userSpaceOnUse">
<stop offset="0.31" stop-color="#FDB60D"/>
<stop offset="1" stop-color="#DD1265"/>
</linearGradient>
<clipPath id="clip0_32_10479">
<rect width="24" height="24" fill="white"/>
</clipPath>
</defs>
</svg>
