<svg width="24" height="24" viewBox="0 0 24 24" fill="none" xmlns="http://www.w3.org/2000/svg">
<g clip-path="url(#clip0_32_10460)">
<path d="M18 0H6C2.68629 0 0 2.68629 0 6V18C0 21.3137 2.68629 24 6 24H18C21.3137 24 24 21.3137 24 18V6C24 2.68629 21.3137 0 18 0Z" fill="url(#paint0_linear_32_10460)"/>
<g filter="url(#filter0_i_32_10460)">
<path d="M18 1.5H6C3.51472 1.5 1.5 3.51472 1.5 6V18C1.5 20.4853 3.51472 22.5 6 22.5H18C20.4853 22.5 22.5 20.4853 22.5 18V6C22.5 3.51472 20.4853 1.5 18 1.5Z" fill="black" fill-opacity="0.7"/>
<mask id="mask0_32_10460" style="mask-type:luminance" maskUnits="userSpaceOnUse" x="2" y="2" width="19" height="19">
<path d="M20.9062 2.90625H2.90625V20.9062H20.9062V2.90625Z" fill="white"/>
</mask>
<g mask="url(#mask0_32_10460)">
<g filter="url(#filter1_d_32_10460)">
<path d="M20.1349 10.06L8.59766 3.65709L16.3222 15.1342L17.9097 14.0937L20.1349 10.06Z" fill="url(#paint1_linear_32_10460)"/>
</g>
<g filter="url(#filter2_d_32_10460)">
<path d="M15.5319 7.44911L14.0868 3.91595L10.8896 7.06339L12.1976 18.484L15.2954 20.1142L20.1348 17.2874L15.5319 7.44911Z" fill="url(#paint2_linear_32_10460)"/>
</g>
<g filter="url(#filter3_d_32_10460)">
<path d="M8.59773 3.65709L3.67773 6.97081L5.50687 18.2731L10.2246 20.0869L16.3223 15.1342L8.59773 3.65709Z" fill="url(#paint3_linear_32_10460)"/>
</g>
<g filter="url(#filter4_d_32_10460)">
<path d="M6.76367 6.76338H17.0494V17.0491H6.76367V6.76338Z" fill="black"/>
</g>
<path d="M8.0459 15.1051H11.903V15.7479H8.0459V15.1051Z" fill="white"/>
<path d="M8.04883 8.03539H9.81455C10.0189 8.02281 10.2238 8.05102 10.4172 8.11843C10.6105 8.18584 10.7885 8.29104 10.9408 8.42796C11.0526 8.54567 11.1396 8.68461 11.1967 8.83654C11.2539 8.98849 11.2799 9.15034 11.2734 9.31252V9.32282C11.2862 9.58622 11.2118 9.84647 11.0618 10.0634C10.9119 10.2803 10.6946 10.4417 10.4437 10.5228L11.39 11.9045H10.394L9.56597 10.6668H8.90597V11.9045H8.04883V8.03539ZM9.76312 9.92109C10.178 9.92109 10.4163 9.69995 10.4163 9.37425V9.36396C10.4163 8.99882 10.1626 8.81025 9.74769 8.81025H8.90597V9.92109H9.76312Z" fill="white"/>
<path d="M11.9805 8.03537H13.489C14.7045 8.03537 15.5462 8.87023 15.5462 9.9588V9.9708C15.5462 11.0594 14.7062 11.9045 13.489 11.9045H11.9805V8.03537ZM12.8376 8.80337V11.1348H13.4959C13.6505 11.1439 13.8053 11.1203 13.9501 11.0656C14.095 11.0109 14.2267 10.9263 14.3367 10.8173C14.4467 10.7083 14.5324 10.5773 14.5884 10.433C14.6444 10.2886 14.6694 10.134 14.6616 9.97937V9.96909C14.6695 9.81386 14.6447 9.65871 14.5889 9.51362C14.5331 9.36853 14.4476 9.23676 14.3378 9.12677C14.2279 9.01678 14.0963 8.93102 13.9513 8.87503C13.8063 8.81903 13.6512 8.79403 13.4959 8.80166L12.8376 8.80337Z" fill="white"/>
</g>
</g>
</g>
<defs>
<filter id="filter0_i_32_10460" x="1.5" y="1.5" width="21" height="25" filterUnits="userSpaceOnUse" color-interpolation-filters="sRGB">
<feFlood flood-opacity="0" result="BackgroundImageFix"/>
<feBlend mode="normal" in="SourceGraphic" in2="BackgroundImageFix" result="shape"/>
<feColorMatrix in="SourceAlpha" type="matrix" values="0 0 0 0 0 0 0 0 0 0 0 0 0 0 0 0 0 0 127 0" result="hardAlpha"/>
<feOffset dy="4"/>
<feGaussianBlur stdDeviation="2"/>
<feComposite in2="hardAlpha" operator="arithmetic" k2="-1" k3="1"/>
<feColorMatrix type="matrix" values="0 0 0 0 0 0 0 0 0 0 0 0 0 0 0 0 0 0 0.25 0"/>
<feBlend mode="normal" in2="shape" result="effect1_innerShadow_32_10460"/>
</filter>
<filter id="filter1_d_32_10460" x="4.59766" y="1.65709" width="19.5371" height="19.4771" filterUnits="userSpaceOnUse" color-interpolation-filters="sRGB">
<feFlood flood-opacity="0" result="BackgroundImageFix"/>
<feColorMatrix in="SourceAlpha" type="matrix" values="0 0 0 0 0 0 0 0 0 0 0 0 0 0 0 0 0 0 127 0" result="hardAlpha"/>
<feOffset dy="2"/>
<feGaussianBlur stdDeviation="2"/>
<feComposite in2="hardAlpha" operator="out"/>
<feColorMatrix type="matrix" values="0 0 0 0 0 0 0 0 0 0 0 0 0 0 0 0 0 0 0.25 0"/>
<feBlend mode="normal" in2="BackgroundImageFix" result="effect1_dropShadow_32_10460"/>
<feBlend mode="normal" in="SourceGraphic" in2="effect1_dropShadow_32_10460" result="shape"/>
</filter>
<filter id="filter2_d_32_10460" x="6.88965" y="1.91595" width="17.2451" height="24.1983" filterUnits="userSpaceOnUse" color-interpolation-filters="sRGB">
<feFlood flood-opacity="0" result="BackgroundImageFix"/>
<feColorMatrix in="SourceAlpha" type="matrix" values="0 0 0 0 0 0 0 0 0 0 0 0 0 0 0 0 0 0 127 0" result="hardAlpha"/>
<feOffset dy="2"/>
<feGaussianBlur stdDeviation="2"/>
<feComposite in2="hardAlpha" operator="out"/>
<feColorMatrix type="matrix" values="0 0 0 0 0 0 0 0 0 0 0 0 0 0 0 0 0 0 0.25 0"/>
<feBlend mode="normal" in2="BackgroundImageFix" result="effect1_dropShadow_32_10460"/>
<feBlend mode="normal" in="SourceGraphic" in2="effect1_dropShadow_32_10460" result="shape"/>
</filter>
<filter id="filter3_d_32_10460" x="-0.322266" y="1.65709" width="20.6445" height="24.4298" filterUnits="userSpaceOnUse" color-interpolation-filters="sRGB">
<feFlood flood-opacity="0" result="BackgroundImageFix"/>
<feColorMatrix in="SourceAlpha" type="matrix" values="0 0 0 0 0 0 0 0 0 0 0 0 0 0 0 0 0 0 127 0" result="hardAlpha"/>
<feOffset dy="2"/>
<feGaussianBlur stdDeviation="2"/>
<feComposite in2="hardAlpha" operator="out"/>
<feColorMatrix type="matrix" values="0 0 0 0 0 0 0 0 0 0 0 0 0 0 0 0 0 0 0.25 0"/>
<feBlend mode="normal" in2="BackgroundImageFix" result="effect1_dropShadow_32_10460"/>
<feBlend mode="normal" in="SourceGraphic" in2="effect1_dropShadow_32_10460" result="shape"/>
</filter>
<filter id="filter4_d_32_10460" x="2.76367" y="4.76338" width="18.2861" height="18.2857" filterUnits="userSpaceOnUse" color-interpolation-filters="sRGB">
<feFlood flood-opacity="0" result="BackgroundImageFix"/>
<feColorMatrix in="SourceAlpha" type="matrix" values="0 0 0 0 0 0 0 0 0 0 0 0 0 0 0 0 0 0 127 0" result="hardAlpha"/>
<feOffset dy="2"/>
<feGaussianBlur stdDeviation="2"/>
<feComposite in2="hardAlpha" operator="out"/>
<feColorMatrix type="matrix" values="0 0 0 0 0 0 0 0 0 0 0 0 0 0 0 0 0 0 0.25 0"/>
<feBlend mode="normal" in2="BackgroundImageFix" result="effect1_dropShadow_32_10460"/>
<feBlend mode="normal" in="SourceGraphic" in2="effect1_dropShadow_32_10460" result="shape"/>
</filter>
<linearGradient id="paint0_linear_32_10460" x1="12" y1="0" x2="12" y2="24" gradientUnits="userSpaceOnUse">
<stop stop-color="#087CFA"/>
<stop offset="0.317708" stop-color="#963597"/>
<stop offset="0.671875" stop-color="#DD1265"/>
<stop offset="1" stop-color="#ED6438"/>
</linearGradient>
<linearGradient id="paint1_linear_32_10460" x1="19.0772" y1="13.084" x2="6.39138" y2="5.80509" gradientUnits="userSpaceOnUse">
<stop stop-color="#DD1265"/>
<stop offset="0.48" stop-color="#DD1265"/>
<stop offset="0.94" stop-color="#FDB60D"/>
</linearGradient>
<linearGradient id="paint2_linear_32_10460" x1="11.5342" y1="5.09368" x2="16.5622" y2="18.9793" gradientUnits="userSpaceOnUse">
<stop offset="0.14" stop-color="#087CFA"/>
<stop offset="0.48" stop-color="#DD1265"/>
<stop offset="0.96" stop-color="#087CFA"/>
</linearGradient>
<linearGradient id="paint3_linear_32_10460" x1="7.76801" y1="5.52223" x2="11.4811" y2="18.7222" gradientUnits="userSpaceOnUse">
<stop offset="0.28" stop-color="#DD1265"/>
<stop offset="0.97" stop-color="#FDB60D"/>
</linearGradient>
<clipPath id="clip0_32_10460">
<rect width="24" height="24" fill="white"/>
</clipPath>
</defs>
</svg>
