<svg width="24" height="24" viewBox="0 0 24 24" fill="none" xmlns="http://www.w3.org/2000/svg">
<g clip-path="url(#clip0_32_10528)">
<path d="M18 0H6C2.68629 0 0 2.68629 0 6V18C0 21.3137 2.68629 24 6 24H18C21.3137 24 24 21.3137 24 18V6C24 2.68629 21.3137 0 18 0Z" fill="url(#paint0_linear_32_10528)"/>
<g filter="url(#filter0_i_32_10528)">
<path d="M18 1.5H6C3.51472 1.5 1.5 3.51472 1.5 6V18C1.5 20.4853 3.51472 22.5 6 22.5H18C20.4853 22.5 22.5 20.4853 22.5 18V6C22.5 3.51472 20.4853 1.5 18 1.5Z" fill="black" fill-opacity="0.7"/>
<g filter="url(#filter1_d_32_10528)">
<path d="M7.5 5.625H6C4.75736 5.625 3.75 6.63236 3.75 7.875V16.125C3.75 17.3676 4.75736 18.375 6 18.375H7.5C8.74264 18.375 9.75 17.3676 9.75 16.125V7.875C9.75 6.63236 8.74264 5.625 7.5 5.625Z" fill="#115C77"/>
<g style="mix-blend-mode:overlay">
<path d="M7.5 5.625H6C4.75736 5.625 3.75 6.63236 3.75 7.875V16.125C3.75 17.3676 4.75736 18.375 6 18.375H7.5C8.74264 18.375 9.75 17.3676 9.75 16.125V7.875C9.75 6.63236 8.74264 5.625 7.5 5.625Z" fill="white" fill-opacity="0.5"/>
</g>
<path d="M7.5 6.375H6C5.17157 6.375 4.5 7.04657 4.5 7.875V16.125C4.5 16.9534 5.17157 17.625 6 17.625H7.5C8.32843 17.625 9 16.9534 9 16.125V7.875C9 7.04657 8.32843 6.375 7.5 6.375Z" stroke="#111111" stroke-width="5"/>
</g>
<g filter="url(#filter2_d_32_10528)">
<path d="M17.8125 5.625H13.5C12.2574 5.625 11.25 6.63236 11.25 7.875V16.125C11.25 17.3676 12.2574 18.375 13.5 18.375H17.8125C19.0551 18.375 20.0625 17.3676 20.0625 16.125V7.875C20.0625 6.63236 19.0551 5.625 17.8125 5.625Z" fill="#115C77"/>
<g style="mix-blend-mode:overlay">
<path d="M17.8125 5.625H13.5C12.2574 5.625 11.25 6.63236 11.25 7.875V16.125C11.25 17.3676 12.2574 18.375 13.5 18.375H17.8125C19.0551 18.375 20.0625 17.3676 20.0625 16.125V7.875C20.0625 6.63236 19.0551 5.625 17.8125 5.625Z" fill="white" fill-opacity="0.5"/>
</g>
<path d="M17.8125 6.375H13.5C12.6716 6.375 12 7.04657 12 7.875V16.125C12 16.9534 12.6716 17.625 13.5 17.625H17.8125C18.6409 17.625 19.3125 16.9534 19.3125 16.125V7.875C19.3125 7.04657 18.6409 6.375 17.8125 6.375Z" stroke="#111111" stroke-width="5"/>
</g>
</g>
</g>
<defs>
<filter id="filter0_i_32_10528" x="1.5" y="1.5" width="21" height="25" filterUnits="userSpaceOnUse" color-interpolation-filters="sRGB">
<feFlood flood-opacity="0" result="BackgroundImageFix"/>
<feBlend mode="normal" in="SourceGraphic" in2="BackgroundImageFix" result="shape"/>
<feColorMatrix in="SourceAlpha" type="matrix" values="0 0 0 0 0 0 0 0 0 0 0 0 0 0 0 0 0 0 127 0" result="hardAlpha"/>
<feOffset dy="4"/>
<feGaussianBlur stdDeviation="2"/>
<feComposite in2="hardAlpha" operator="arithmetic" k2="-1" k3="1"/>
<feColorMatrix type="matrix" values="0 0 0 0 0 0 0 0 0 0 0 0 0 0 0 0 0 0 0.25 0"/>
<feBlend mode="normal" in2="shape" result="effect1_innerShadow_32_10528"/>
</filter>
<filter id="filter1_d_32_10528" x="-2" y="1.875" width="17.5" height="24.25" filterUnits="userSpaceOnUse" color-interpolation-filters="sRGB">
<feFlood flood-opacity="0" result="BackgroundImageFix"/>
<feColorMatrix in="SourceAlpha" type="matrix" values="0 0 0 0 0 0 0 0 0 0 0 0 0 0 0 0 0 0 127 0" result="hardAlpha"/>
<feOffset dy="2"/>
<feGaussianBlur stdDeviation="2"/>
<feComposite in2="hardAlpha" operator="out"/>
<feColorMatrix type="matrix" values="0 0 0 0 0 0 0 0 0 0 0 0 0 0 0 0 0 0 0.25 0"/>
<feBlend mode="normal" in2="BackgroundImageFix" result="effect1_dropShadow_32_10528"/>
<feBlend mode="normal" in="SourceGraphic" in2="effect1_dropShadow_32_10528" result="shape"/>
</filter>
<filter id="filter2_d_32_10528" x="5.5" y="1.875" width="20.3125" height="24.25" filterUnits="userSpaceOnUse" color-interpolation-filters="sRGB">
<feFlood flood-opacity="0" result="BackgroundImageFix"/>
<feColorMatrix in="SourceAlpha" type="matrix" values="0 0 0 0 0 0 0 0 0 0 0 0 0 0 0 0 0 0 127 0" result="hardAlpha"/>
<feOffset dy="2"/>
<feGaussianBlur stdDeviation="2"/>
<feComposite in2="hardAlpha" operator="out"/>
<feColorMatrix type="matrix" values="0 0 0 0 0 0 0 0 0 0 0 0 0 0 0 0 0 0 0.25 0"/>
<feBlend mode="normal" in2="BackgroundImageFix" result="effect1_dropShadow_32_10528"/>
<feBlend mode="normal" in="SourceGraphic" in2="effect1_dropShadow_32_10528" result="shape"/>
</filter>
<linearGradient id="paint0_linear_32_10528" x1="12" y1="0" x2="12" y2="24" gradientUnits="userSpaceOnUse">
<stop stop-color="#1FA2D1"/>
<stop offset="1" stop-color="#115C77"/>
</linearGradient>
<clipPath id="clip0_32_10528">
<rect width="24" height="24" fill="white"/>
</clipPath>
</defs>
</svg>
