<svg width="24" height="24" viewBox="0 0 24 24" fill="none" xmlns="http://www.w3.org/2000/svg">
<g clip-path="url(#clip0_32_10547)">
<path d="M18 0H6C2.68629 0 0 2.68629 0 6V18C0 21.3137 2.68629 24 6 24H18C21.3137 24 24 21.3137 24 18V6C24 2.68629 21.3137 0 18 0Z" fill="url(#paint0_linear_32_10547)"/>
<g filter="url(#filter0_i_32_10547)">
<path d="M18 1.5H6C3.51472 1.5 1.5 3.51472 1.5 6V18C1.5 20.4853 3.51472 22.5 6 22.5H18C20.4853 22.5 22.5 20.4853 22.5 18V6C22.5 3.51472 20.4853 1.5 18 1.5Z" fill="black" fill-opacity="0.7"/>
<g filter="url(#filter1_d_32_10547)">
<path d="M17.754 12.0343C17.754 11.8585 17.624 11.7571 17.4646 11.8075L6.49638 15.2855C6.33663 15.3362 6.20703 15.52 6.20703 15.6955V19.2502C6.20703 19.4259 6.33663 19.5277 6.49638 19.4769L17.4646 15.9993C17.624 15.9486 17.754 15.7648 17.754 15.589V12.0343Z" fill="url(#paint1_linear_32_10547)"/>
<path d="M6.20703 11.921C6.20703 12.0968 6.33663 12.2807 6.49638 12.3314L17.4662 15.8097C17.626 15.8604 17.7556 15.7587 17.7556 15.5832V12.0282C17.7556 11.8527 17.626 11.6689 17.4662 11.6182L6.49638 8.13986C6.33663 8.08918 6.20703 8.19056 6.20703 8.36634V11.921Z" fill="#FF9800"/>
<path d="M17.754 4.72986C17.754 4.55406 17.624 4.45236 17.4646 4.50306L6.49638 7.98077C6.33663 8.03145 6.20703 8.21526 6.20703 8.39106V11.9458C6.20703 12.1215 6.33663 12.2229 6.49638 12.1726L17.4646 8.69453C17.624 8.64384 17.754 8.46002 17.754 8.28456V4.72986Z" fill="#FF9800"/>
</g>
</g>
</g>
<defs>
<filter id="filter0_i_32_10547" x="1.5" y="1.5" width="21" height="25" filterUnits="userSpaceOnUse" color-interpolation-filters="sRGB">
<feFlood flood-opacity="0" result="BackgroundImageFix"/>
<feBlend mode="normal" in="SourceGraphic" in2="BackgroundImageFix" result="shape"/>
<feColorMatrix in="SourceAlpha" type="matrix" values="0 0 0 0 0 0 0 0 0 0 0 0 0 0 0 0 0 0 127 0" result="hardAlpha"/>
<feOffset dy="4"/>
<feGaussianBlur stdDeviation="2"/>
<feComposite in2="hardAlpha" operator="arithmetic" k2="-1" k3="1"/>
<feColorMatrix type="matrix" values="0 0 0 0 0 0 0 0 0 0 0 0 0 0 0 0 0 0 0.25 0"/>
<feBlend mode="normal" in2="shape" result="effect1_innerShadow_32_10547"/>
</filter>
<filter id="filter1_d_32_10547" x="2.86999" y="2.8215" width="18.2229" height="21.6741" filterUnits="userSpaceOnUse" color-interpolation-filters="sRGB">
<feFlood flood-opacity="0" result="BackgroundImageFix"/>
<feColorMatrix in="SourceAlpha" type="matrix" values="0 0 0 0 0 0 0 0 0 0 0 0 0 0 0 0 0 0 127 0" result="hardAlpha"/>
<feOffset dy="1.66852"/>
<feGaussianBlur stdDeviation="1.66852"/>
<feComposite in2="hardAlpha" operator="out"/>
<feColorMatrix type="matrix" values="0 0 0 0 0 0 0 0 0 0 0 0 0 0 0 0 0 0 0.25 0"/>
<feBlend mode="normal" in2="BackgroundImageFix" result="effect1_dropShadow_32_10547"/>
<feBlend mode="normal" in="SourceGraphic" in2="effect1_dropShadow_32_10547" result="shape"/>
</filter>
<linearGradient id="paint0_linear_32_10547" x1="12" y1="24" x2="12" y2="0" gradientUnits="userSpaceOnUse">
<stop stop-color="#D06F00"/>
<stop offset="1" stop-color="#FF9800"/>
</linearGradient>
<linearGradient id="paint1_linear_32_10547" x1="642.639" y1="463.359" x2="691.068" y2="301.425" gradientUnits="userSpaceOnUse">
<stop stop-color="#FF9700"/>
<stop offset="0.53" stop-color="#F48E00"/>
<stop offset="1" stop-color="#D06F00"/>
</linearGradient>
<clipPath id="clip0_32_10547">
<rect width="24" height="24" fill="white"/>
</clipPath>
</defs>
</svg>
