<svg width="24" height="24" viewBox="0 0 24 24" fill="none" xmlns="http://www.w3.org/2000/svg">
<g clip-path="url(#clip0_32_10563)">
<path d="M18 0H6C2.68629 0 0 2.68629 0 6V18C0 21.3137 2.68629 24 6 24H18C21.3137 24 24 21.3137 24 18V6C24 2.68629 21.3137 0 18 0Z" fill="url(#paint0_linear_32_10563)"/>
<g filter="url(#filter0_i_32_10563)">
<path d="M18 1.5H6C3.51472 1.5 1.5 3.51472 1.5 6V18C1.5 20.4853 3.51472 22.5 6 22.5H18C20.4853 22.5 22.5 20.4853 22.5 18V6C22.5 3.51472 20.4853 1.5 18 1.5Z" fill="black" fill-opacity="0.7"/>
<mask id="mask0_32_10563" style="mask-type:luminance" maskUnits="userSpaceOnUse" x="3" y="3" width="18" height="18">
<path d="M21 3H3V21H21V3Z" fill="white"/>
</mask>
<g mask="url(#mask0_32_10563)">
<g filter="url(#filter1_d_32_10563)">
<path d="M7.96124 18.0034L4.51211 8.93316C4.29644 8.36678 4.21955 7.75701 4.28786 7.15483C4.35614 6.55266 4.56766 5.97559 4.90467 5.47191C5.24169 4.96823 5.69443 4.55256 6.22501 4.2597C6.75558 3.96684 7.34859 3.80529 7.95438 3.78859C8.77055 3.76764 9.57168 4.01055 10.2388 4.48123C10.9059 4.95189 11.4033 5.62523 11.6572 6.40116L14.6761 15.6223C15.2847 17.4823 8.64354 19.8 7.96124 18.0034Z" fill="url(#paint1_linear_32_10563)"/>
</g>
<g filter="url(#filter2_d_32_10563)">
<path d="M18.3098 15.1251L9.85666 19.6971C9.36218 19.9646 8.81787 20.1272 8.25772 20.1748C7.69756 20.2224 7.1336 20.154 6.60108 19.9738C6.06858 19.7936 5.57894 19.5054 5.16277 19.1276C4.74661 18.7496 4.41286 18.2899 4.18238 17.7771C3.95517 17.274 3.832 16.7301 3.82027 16.1782C3.80851 15.6262 3.90843 15.0776 4.11402 14.5652C4.3196 14.0529 4.62661 13.5874 5.01661 13.1966C5.40661 12.8059 5.87155 12.498 6.38352 12.2914L15.2978 8.69141C16.0347 8.39406 16.85 8.35273 17.6131 8.57406C18.3763 8.79538 19.043 9.26653 19.5065 9.912C19.8025 10.3226 20.0075 10.7917 20.1078 11.2879C20.2081 11.7841 20.2015 12.296 20.0883 12.7894C19.975 13.2829 19.7577 13.7464 19.4511 14.1492C19.1444 14.552 18.7553 14.8847 18.3098 15.1251Z" fill="url(#paint2_linear_32_10563)"/>
</g>
<g filter="url(#filter3_d_32_10563)">
<path d="M15.1168 15.204L6.38768 10.9851C5.8422 10.7209 5.36788 10.3299 5.00434 9.84497C4.6408 9.36 4.39857 8.79506 4.2979 8.19739C4.19721 7.59969 4.24101 6.98659 4.42562 6.40929C4.61023 5.83198 4.9303 5.30722 5.35909 4.87886C5.93667 4.30153 6.68547 3.92648 7.4937 3.8097C8.30196 3.69291 9.12628 3.84064 9.84366 4.23086L18.3637 8.85943C19.1879 9.30816 19.8023 10.0635 20.0738 10.9618C20.3451 11.8602 20.2519 12.8294 19.8139 13.6594C19.3838 14.4754 18.6537 15.0925 17.7774 15.3806C16.9012 15.6688 15.9473 15.6055 15.1168 15.204Z" fill="url(#paint3_linear_32_10563)"/>
</g>
<g filter="url(#filter4_d_32_10563)">
<path d="M6.18503 19.8566C5.6084 19.5934 5.10001 19.2011 4.69925 18.7102C4.29846 18.2191 4.01605 17.6424 3.87387 17.0248C3.73167 16.4071 3.73349 15.765 3.87922 15.1481C4.02492 14.5312 4.31062 13.9562 4.71417 13.4674L12.0993 4.54286C12.3866 4.19479 12.7803 3.95083 13.2199 3.84861C13.6595 3.74638 14.1205 3.79155 14.5319 3.97714C15.0041 4.18997 15.3791 4.57239 15.5826 5.04864C15.7861 5.52491 15.8033 6.06024 15.6307 6.54857L11.7805 17.4737C11.5915 18.014 11.2918 18.5089 10.9007 18.9268C10.5096 19.3447 10.0355 19.6764 9.5089 19.9007C8.98229 20.1249 8.41465 20.2369 7.84233 20.2292C7.26998 20.2217 6.70553 20.0947 6.18503 19.8566Z" fill="url(#paint4_linear_32_10563)"/>
</g>
<g filter="url(#filter5_d_32_10563)">
<path d="M6.85742 6.85714H17.1431V17.1429H6.85742V6.85714Z" fill="black"/>
</g>
<path d="M8.13965 15.1988H11.9968V15.8417H8.13965V15.1988Z" fill="white"/>
<path d="M9.17675 8.91257H7.99902V8.12743H11.2047V8.91257H10.027V11.9966H9.17675V8.91257Z" fill="white"/>
<path d="M11.5248 10.0731V10.0629C11.5198 9.79732 11.5687 9.53353 11.6686 9.28744C11.7685 9.04134 11.9172 8.81805 12.1058 8.63106C12.2944 8.44406 12.5189 8.29725 12.7659 8.19949C13.0128 8.10173 13.277 8.05506 13.5425 8.06229C13.8244 8.04788 14.1062 8.09346 14.3692 8.196C14.6322 8.29854 14.8704 8.45571 15.0682 8.65714L14.5265 9.28114C14.2663 9.01114 13.9105 8.85414 13.5356 8.844C12.8842 8.844 12.4145 9.38571 12.4145 10.044V10.056C12.4145 10.7194 12.8739 11.2714 13.5356 11.2714C13.9779 11.2714 14.2488 11.1 14.5539 10.8189L15.0956 11.3657C14.9001 11.5926 14.6557 11.7722 14.3807 11.891C14.1058 12.0098 13.8074 12.0646 13.5082 12.0514C13.247 12.0556 12.9877 12.0073 12.7455 11.9094C12.5033 11.8115 12.2832 11.666 12.0983 11.4816C11.9133 11.2971 11.7673 11.0774 11.6688 10.8355C11.5703 10.5936 11.5213 10.3343 11.5248 10.0731Z" fill="white"/>
</g>
</g>
</g>
<defs>
<filter id="filter0_i_32_10563" x="1.5" y="1.5" width="21" height="25" filterUnits="userSpaceOnUse" color-interpolation-filters="sRGB">
<feFlood flood-opacity="0" result="BackgroundImageFix"/>
<feBlend mode="normal" in="SourceGraphic" in2="BackgroundImageFix" result="shape"/>
<feColorMatrix in="SourceAlpha" type="matrix" values="0 0 0 0 0 0 0 0 0 0 0 0 0 0 0 0 0 0 127 0" result="hardAlpha"/>
<feOffset dy="4"/>
<feGaussianBlur stdDeviation="2"/>
<feComposite in2="hardAlpha" operator="arithmetic" k2="-1" k3="1"/>
<feColorMatrix type="matrix" values="0 0 0 0 0 0 0 0 0 0 0 0 0 0 0 0 0 0 0.25 0"/>
<feBlend mode="normal" in2="shape" result="effect1_innerShadow_32_10563"/>
</filter>
<filter id="filter1_d_32_10563" x="0.263672" y="1.78734" width="18.4521" height="22.8637" filterUnits="userSpaceOnUse" color-interpolation-filters="sRGB">
<feFlood flood-opacity="0" result="BackgroundImageFix"/>
<feColorMatrix in="SourceAlpha" type="matrix" values="0 0 0 0 0 0 0 0 0 0 0 0 0 0 0 0 0 0 127 0" result="hardAlpha"/>
<feOffset dy="2"/>
<feGaussianBlur stdDeviation="2"/>
<feComposite in2="hardAlpha" operator="out"/>
<feColorMatrix type="matrix" values="0 0 0 0 0 0 0 0 0 0 0 0 0 0 0 0 0 0 0.25 0"/>
<feBlend mode="normal" in2="BackgroundImageFix" result="effect1_dropShadow_32_10563"/>
<feBlend mode="normal" in="SourceGraphic" in2="effect1_dropShadow_32_10563" result="shape"/>
</filter>
<filter id="filter2_d_32_10563" x="-0.180664" y="6.43368" width="24.3594" height="19.7558" filterUnits="userSpaceOnUse" color-interpolation-filters="sRGB">
<feFlood flood-opacity="0" result="BackgroundImageFix"/>
<feColorMatrix in="SourceAlpha" type="matrix" values="0 0 0 0 0 0 0 0 0 0 0 0 0 0 0 0 0 0 127 0" result="hardAlpha"/>
<feOffset dy="2"/>
<feGaussianBlur stdDeviation="2"/>
<feComposite in2="hardAlpha" operator="out"/>
<feColorMatrix type="matrix" values="0 0 0 0 0 0 0 0 0 0 0 0 0 0 0 0 0 0 0.25 0"/>
<feBlend mode="normal" in2="BackgroundImageFix" result="effect1_dropShadow_32_10563"/>
<feBlend mode="normal" in="SourceGraphic" in2="effect1_dropShadow_32_10563" result="shape"/>
</filter>
<filter id="filter3_d_32_10563" x="0.245117" y="1.77078" width="23.9814" height="19.788" filterUnits="userSpaceOnUse" color-interpolation-filters="sRGB">
<feFlood flood-opacity="0" result="BackgroundImageFix"/>
<feColorMatrix in="SourceAlpha" type="matrix" values="0 0 0 0 0 0 0 0 0 0 0 0 0 0 0 0 0 0 127 0" result="hardAlpha"/>
<feOffset dy="2"/>
<feGaussianBlur stdDeviation="2"/>
<feComposite in2="hardAlpha" operator="out"/>
<feColorMatrix type="matrix" values="0 0 0 0 0 0 0 0 0 0 0 0 0 0 0 0 0 0 0.25 0"/>
<feBlend mode="normal" in2="BackgroundImageFix" result="effect1_dropShadow_32_10563"/>
<feBlend mode="normal" in="SourceGraphic" in2="effect1_dropShadow_32_10563" result="shape"/>
</filter>
<filter id="filter4_d_32_10563" x="-0.231445" y="1.79514" width="19.9805" height="24.4344" filterUnits="userSpaceOnUse" color-interpolation-filters="sRGB">
<feFlood flood-opacity="0" result="BackgroundImageFix"/>
<feColorMatrix in="SourceAlpha" type="matrix" values="0 0 0 0 0 0 0 0 0 0 0 0 0 0 0 0 0 0 127 0" result="hardAlpha"/>
<feOffset dy="2"/>
<feGaussianBlur stdDeviation="2"/>
<feComposite in2="hardAlpha" operator="out"/>
<feColorMatrix type="matrix" values="0 0 0 0 0 0 0 0 0 0 0 0 0 0 0 0 0 0 0.25 0"/>
<feBlend mode="normal" in2="BackgroundImageFix" result="effect1_dropShadow_32_10563"/>
<feBlend mode="normal" in="SourceGraphic" in2="effect1_dropShadow_32_10563" result="shape"/>
</filter>
<filter id="filter5_d_32_10563" x="2.85742" y="4.85714" width="18.2861" height="18.2857" filterUnits="userSpaceOnUse" color-interpolation-filters="sRGB">
<feFlood flood-opacity="0" result="BackgroundImageFix"/>
<feColorMatrix in="SourceAlpha" type="matrix" values="0 0 0 0 0 0 0 0 0 0 0 0 0 0 0 0 0 0 127 0" result="hardAlpha"/>
<feOffset dy="2"/>
<feGaussianBlur stdDeviation="2"/>
<feComposite in2="hardAlpha" operator="out"/>
<feColorMatrix type="matrix" values="0 0 0 0 0 0 0 0 0 0 0 0 0 0 0 0 0 0 0.25 0"/>
<feBlend mode="normal" in2="BackgroundImageFix" result="effect1_dropShadow_32_10563"/>
<feBlend mode="normal" in="SourceGraphic" in2="effect1_dropShadow_32_10563" result="shape"/>
</filter>
<linearGradient id="paint0_linear_32_10563" x1="12" y1="0" x2="12" y2="24" gradientUnits="userSpaceOnUse">
<stop stop-color="#3BEA62"/>
<stop offset="0.5" stop-color="#009AE5"/>
<stop offset="1" stop-color="#6B57FF"/>
</linearGradient>
<linearGradient id="paint1_linear_32_10563" x1="10.1538" y1="13.7949" x2="8.74638" y2="9.62916" gradientUnits="userSpaceOnUse">
<stop stop-color="#07C3F2"/>
<stop offset="1" stop-color="#6B57FF"/>
</linearGradient>
<linearGradient id="paint2_linear_32_10563" x1="9.67323" y1="15.2074" x2="14.7167" y2="12.6754" gradientUnits="userSpaceOnUse">
<stop stop-color="#07C3F2"/>
<stop offset="1" stop-color="#009AE5"/>
</linearGradient>
<linearGradient id="paint3_linear_32_10563" x1="16.0682" y1="12.7303" x2="7.72309" y2="6.43029" gradientUnits="userSpaceOnUse">
<stop stop-color="#009AE5"/>
<stop offset="1" stop-color="#6B57FF"/>
</linearGradient>
<linearGradient id="paint4_linear_32_10563" x1="7.42103" y1="17.0623" x2="13.1056" y2="5.48571" gradientUnits="userSpaceOnUse">
<stop offset="0.3" stop-color="#07C3F2"/>
<stop offset="0.6" stop-color="#3BEA62"/>
</linearGradient>
<clipPath id="clip0_32_10563">
<rect width="24" height="24" fill="white"/>
</clipPath>
</defs>
</svg>
