<svg width="24" height="24" viewBox="0 0 24 24" fill="none" xmlns="http://www.w3.org/2000/svg">
<g clip-path="url(#clip0_32_10601)">
<path d="M18 0H6C2.68629 0 0 2.68629 0 6V18C0 21.3137 2.68629 24 6 24H18C21.3137 24 24 21.3137 24 18V6C24 2.68629 21.3137 0 18 0Z" fill="url(#paint0_linear_32_10601)"/>
<path d="M18 0H6C2.68629 0 0 2.68629 0 6V18C0 21.3137 2.68629 24 6 24H18C21.3137 24 24 21.3137 24 18V6C24 2.68629 21.3137 0 18 0Z" fill="black" fill-opacity="0.9"/>
<g filter="url(#filter0_i_32_10601)">
<path d="M18 1.5H6C3.51472 1.5 1.5 3.51472 1.5 6V18C1.5 20.4853 3.51472 22.5 6 22.5H18C20.4853 22.5 22.5 20.4853 22.5 18V6C22.5 3.51472 20.4853 1.5 18 1.5Z" fill="black" fill-opacity="0.7"/>
<path d="M15.5576 11.4522C15.493 11.4212 15.4273 11.3914 15.3609 11.3629C15.2451 9.22954 14.0794 8.0082 12.122 7.99569C12.1132 7.99566 12.1043 7.99566 12.0955 7.99566C10.9247 7.99566 9.95103 8.49538 9.35172 9.40474L10.4282 10.1432C10.8759 9.46393 11.5785 9.31912 12.096 9.31912C12.102 9.31912 12.108 9.31913 12.1139 9.31918C12.7584 9.32329 13.2447 9.51068 13.5595 9.87609C13.7885 10.1421 13.9417 10.5098 14.0176 10.9737C13.4462 10.8766 12.8282 10.8468 12.1676 10.8846C10.3066 10.9918 9.11024 12.0772 9.19061 13.5853C9.23137 14.3503 9.61248 15.0084 10.2637 15.4384C10.8143 15.8018 11.5234 15.9795 12.2603 15.9393C13.2336 15.8859 13.9971 15.5146 14.5298 14.8356C14.9343 14.32 15.1902 13.6518 15.3031 12.8098C15.767 13.0898 16.1107 13.4581 16.3005 13.9009C16.6234 14.6537 16.6422 15.8906 15.6329 16.8991C14.7486 17.7825 13.6856 18.1647 12.0792 18.1765C10.2972 18.1633 8.94952 17.5918 8.07329 16.4779C7.25277 15.4349 6.82874 13.9283 6.81292 12C6.82874 10.0717 7.25277 8.56513 8.07329 7.52209C8.94952 6.40819 10.2972 5.83673 12.0792 5.82347C13.8741 5.83682 15.2452 6.41104 16.155 7.53032C16.6011 8.07919 16.9374 8.76943 17.1592 9.57424L18.4206 9.23768C18.1519 8.24704 17.729 7.39341 17.1535 6.68546C15.9872 5.25052 14.2814 4.51524 12.0836 4.5H12.0748C9.88138 4.51519 8.1947 5.25326 7.0616 6.69369C6.05328 7.9755 5.53316 9.75904 5.51568 11.9947L5.51562 12L5.51568 12.0053C5.53316 14.2409 6.05328 16.0245 7.0616 17.3063C8.1947 18.7467 9.88138 19.4848 12.0748 19.5H12.0836C14.0336 19.4865 15.4081 18.9759 16.5405 17.8446C18.022 16.3645 17.9773 14.5093 17.4891 13.3704C17.1387 12.5537 16.4709 11.8903 15.5576 11.4522ZM12.1907 14.6177C11.3751 14.6637 10.5277 14.2976 10.4859 13.5134C10.4549 12.932 10.8997 12.2833 12.2407 12.206C12.3943 12.1971 12.545 12.1928 12.693 12.1928C13.1802 12.1928 13.6359 12.2401 14.0502 12.3307C13.8956 14.2605 12.9892 14.5739 12.1907 14.6177Z" fill="white"/>
</g>
</g>
<defs>
<filter id="filter0_i_32_10601" x="1.5" y="1.5" width="21" height="25" filterUnits="userSpaceOnUse" color-interpolation-filters="sRGB">
<feFlood flood-opacity="0" result="BackgroundImageFix"/>
<feBlend mode="normal" in="SourceGraphic" in2="BackgroundImageFix" result="shape"/>
<feColorMatrix in="SourceAlpha" type="matrix" values="0 0 0 0 0 0 0 0 0 0 0 0 0 0 0 0 0 0 127 0" result="hardAlpha"/>
<feOffset dy="4"/>
<feGaussianBlur stdDeviation="2"/>
<feComposite in2="hardAlpha" operator="arithmetic" k2="-1" k3="1"/>
<feColorMatrix type="matrix" values="0 0 0 0 0 0 0 0 0 0 0 0 0 0 0 0 0 0 0.25 0"/>
<feBlend mode="normal" in2="shape" result="effect1_innerShadow_32_10601"/>
</filter>
<linearGradient id="paint0_linear_32_10601" x1="12" y1="0" x2="12" y2="24" gradientUnits="userSpaceOnUse">
<stop stop-color="white"/>
<stop offset="1" stop-color="#DFDFDF"/>
</linearGradient>
<clipPath id="clip0_32_10601">
<rect width="24" height="24" fill="white"/>
</clipPath>
</defs>
</svg>
