<svg width="24" height="24" viewBox="0 0 24 24" fill="none" xmlns="http://www.w3.org/2000/svg">
<g clip-path="url(#clip0_32_10607)">
<path d="M18 0H6C2.68629 0 0 2.68629 0 6V18C0 21.3137 2.68629 24 6 24H18C21.3137 24 24 21.3137 24 18V6C24 2.68629 21.3137 0 18 0Z" fill="url(#paint0_linear_32_10607)"/>
<path d="M18 0H6C2.68629 0 0 2.68629 0 6V18C0 21.3137 2.68629 24 6 24H18C21.3137 24 24 21.3137 24 18V6C24 2.68629 21.3137 0 18 0Z" fill="url(#paint1_linear_32_10607)"/>
<g filter="url(#filter0_i_32_10607)">
<path d="M18 1.5H6C3.51472 1.5 1.5 3.51472 1.5 6V18C1.5 20.4853 3.51472 22.5 6 22.5H18C20.4853 22.5 22.5 20.4853 22.5 18V6C22.5 3.51472 20.4853 1.5 18 1.5Z" fill="black" fill-opacity="0.7"/>
<path d="M12 19.2071C15.9803 19.2071 19.2071 15.9803 19.2071 12C19.2071 8.01968 15.9803 4.79297 12 4.79297C8.01968 4.79297 4.79297 8.01968 4.79297 12C4.79297 15.9803 8.01968 19.2071 12 19.2071Z" fill="#F2E4FF"/>
<path fill-rule="evenodd" clip-rule="evenodd" d="M12.0154 18.1359V17.2267C14.8953 17.2184 17.2272 14.8818 17.2272 11.9998C17.2272 9.11801 14.8953 6.78135 12.0154 6.77304V5.86386C15.3974 5.87239 18.1361 8.61591 18.1361 11.9998C18.1361 15.3839 15.3974 18.1276 12.0154 18.1359ZM12.0154 14.9537C13.6398 14.9452 14.9545 13.6265 14.9545 11.9998C14.9545 10.3733 13.6398 9.0546 12.0154 9.04607V8.13711C14.1421 8.14543 15.8637 9.87126 15.8637 11.9998C15.8637 14.1285 14.1421 15.8544 12.0154 15.8627V14.9537ZM12.0154 10.4097C12.8867 10.418 13.5909 11.1264 13.5909 11.9998C13.5909 12.8734 12.8867 13.5818 12.0154 13.5901V10.4097ZM4.5 11.9998C4.5 16.1421 7.85768 19.5 12 19.5C16.1421 19.5 19.5 16.1421 19.5 11.9998C19.5 7.85768 16.1421 4.5 12 4.5C7.85768 4.5 4.5 7.85768 4.5 11.9998Z" fill="#941AD0"/>
<g filter="url(#filter1_d_32_10607)">
<path d="M12 5.34959C8.26238 5.34959 5.23242 8.36643 5.23242 12.0879C5.23242 15.8093 8.26238 18.8261 12 18.8261V5.34959Z" fill="black"/>
</g>
<path d="M12 4.5C7.85786 4.5 4.5 7.85786 4.5 12C4.5 16.1421 7.85786 19.5 12 19.5V4.5Z" fill="#8116B6"/>
</g>
</g>
<defs>
<filter id="filter0_i_32_10607" x="1.5" y="1.5" width="21" height="25" filterUnits="userSpaceOnUse" color-interpolation-filters="sRGB">
<feFlood flood-opacity="0" result="BackgroundImageFix"/>
<feBlend mode="normal" in="SourceGraphic" in2="BackgroundImageFix" result="shape"/>
<feColorMatrix in="SourceAlpha" type="matrix" values="0 0 0 0 0 0 0 0 0 0 0 0 0 0 0 0 0 0 127 0" result="hardAlpha"/>
<feOffset dy="4"/>
<feGaussianBlur stdDeviation="2"/>
<feComposite in2="hardAlpha" operator="arithmetic" k2="-1" k3="1"/>
<feColorMatrix type="matrix" values="0 0 0 0 0 0 0 0 0 0 0 0 0 0 0 0 0 0 0.25 0"/>
<feBlend mode="normal" in2="shape" result="effect1_innerShadow_32_10607"/>
</filter>
<filter id="filter1_d_32_10607" x="0.857422" y="2.22459" width="13.0176" height="19.7265" filterUnits="userSpaceOnUse" color-interpolation-filters="sRGB">
<feFlood flood-opacity="0" result="BackgroundImageFix"/>
<feColorMatrix in="SourceAlpha" type="matrix" values="0 0 0 0 0 0 0 0 0 0 0 0 0 0 0 0 0 0 127 0" result="hardAlpha"/>
<feOffset dx="-1.25"/>
<feGaussianBlur stdDeviation="1.5625"/>
<feColorMatrix type="matrix" values="0 0 0 0 0.25098 0 0 0 0 0.25098 0 0 0 0 0.25098 0 0 0 0.2 0"/>
<feBlend mode="normal" in2="BackgroundImageFix" result="effect1_dropShadow_32_10607"/>
<feBlend mode="normal" in="SourceGraphic" in2="effect1_dropShadow_32_10607" result="shape"/>
</filter>
<linearGradient id="paint0_linear_32_10607" x1="36.0375" y1="-6.63403" x2="-5.31744" y2="23.9901" gradientUnits="userSpaceOnUse">
<stop stop-color="#D446FF"/>
<stop offset="1" stop-color="#A0D8FF"/>
</linearGradient>
<linearGradient id="paint1_linear_32_10607" x1="12" y1="0" x2="12" y2="24" gradientUnits="userSpaceOnUse">
<stop stop-color="#951AD1"/>
<stop offset="1" stop-color="#6C1397"/>
</linearGradient>
<clipPath id="clip0_32_10607">
<rect width="24" height="24" fill="white"/>
</clipPath>
</defs>
</svg>
