<svg width="24" height="24" viewBox="0 0 24 24" fill="none" xmlns="http://www.w3.org/2000/svg">
<g clip-path="url(#clip0_32_10617)">
<path d="M18 0H6C2.68629 0 0 2.68629 0 6V18C0 21.3137 2.68629 24 6 24H18C21.3137 24 24 21.3137 24 18V6C24 2.68629 21.3137 0 18 0Z" fill="#D3B9FF"/>
<path d="M18 0H6C2.68629 0 0 2.68629 0 6V18C0 21.3137 2.68629 24 6 24H18C21.3137 24 24 21.3137 24 18V6C24 2.68629 21.3137 0 18 0Z" fill="url(#paint0_linear_32_10617)"/>
<path d="M18 0H6C2.68629 0 0 2.68629 0 6V18C0 21.3137 2.68629 24 6 24H18C21.3137 24 24 21.3137 24 18V6C24 2.68629 21.3137 0 18 0Z" fill="url(#paint1_linear_32_10617)"/>
<g filter="url(#filter0_i_32_10617)">
<path d="M18 1.5H6C3.51472 1.5 1.5 3.51472 1.5 6V18C1.5 20.4853 3.51472 22.5 6 22.5H18C20.4853 22.5 22.5 20.4853 22.5 18V6C22.5 3.51472 20.4853 1.5 18 1.5Z" fill="black" fill-opacity="0.7"/>
<g filter="url(#filter1_d_32_10617)">
<path d="M4.96875 10.3124L8.90625 8.62489V13.4061C8.90625 15.1148 10.2914 16.4999 12 16.4999C13.7086 16.4999 15.0938 15.1148 15.0938 13.4061V5.81239L19.0312 4.12489V14.2499C19.0312 17.3565 16.5128 19.8748 13.4062 19.8748H10.5938C7.48716 19.8748 4.96875 17.3565 4.96875 14.2499V10.3124Z" fill="#C10080"/>
<path d="M4.96875 10.3124L8.90625 8.62489V13.4061C8.90625 15.1148 10.2914 16.4999 12 16.4999C13.7086 16.4999 15.0938 15.1148 15.0938 13.4061V5.81239L19.0312 4.12489V14.2499C19.0312 17.3565 16.5128 19.8748 13.4062 19.8748H10.5938C7.48716 19.8748 4.96875 17.3565 4.96875 14.2499V10.3124Z" fill="#8B00E7"/>
</g>
<g filter="url(#filter2_d_32_10617)">
<path d="M10.5938 19.8748H13.4062C16.5128 19.8748 19.0312 17.3565 19.0312 14.2499V11.4374C18.4688 8.90614 17.5191 7.74227 15.0938 6.37489V13.4061C15.0938 16.6681 11.3244 19.2744 8.0625 19.2744C8.82334 19.6586 9.68329 19.8748 10.5938 19.8748Z" fill="#D3B9FF"/>
<path d="M10.5938 19.8748H13.4062C16.5128 19.8748 19.0312 17.3565 19.0312 14.2499V11.4374C18.4688 8.90614 17.5191 7.74227 15.0938 6.37489V13.4061C15.0938 16.6681 11.3244 19.2744 8.0625 19.2744C8.82334 19.6586 9.68329 19.8748 10.5938 19.8748Z" fill="#D404FF"/>
</g>
</g>
</g>
<defs>
<filter id="filter0_i_32_10617" x="1.5" y="1.5" width="21" height="23" filterUnits="userSpaceOnUse" color-interpolation-filters="sRGB">
<feFlood flood-opacity="0" result="BackgroundImageFix"/>
<feBlend mode="normal" in="SourceGraphic" in2="BackgroundImageFix" result="shape"/>
<feColorMatrix in="SourceAlpha" type="matrix" values="0 0 0 0 0 0 0 0 0 0 0 0 0 0 0 0 0 0 127 0" result="hardAlpha"/>
<feOffset dy="2"/>
<feGaussianBlur stdDeviation="2"/>
<feComposite in2="hardAlpha" operator="arithmetic" k2="-1" k3="1"/>
<feColorMatrix type="matrix" values="0 0 0 0 0 0 0 0 0 0 0 0 0 0 0 0 0 0 0.25 0"/>
<feBlend mode="normal" in2="shape" result="effect1_innerShadow_32_10617"/>
</filter>
<filter id="filter1_d_32_10617" x="0.96875" y="2.12489" width="22.0625" height="23.7499" filterUnits="userSpaceOnUse" color-interpolation-filters="sRGB">
<feFlood flood-opacity="0" result="BackgroundImageFix"/>
<feColorMatrix in="SourceAlpha" type="matrix" values="0 0 0 0 0 0 0 0 0 0 0 0 0 0 0 0 0 0 127 0" result="hardAlpha"/>
<feOffset dy="2"/>
<feGaussianBlur stdDeviation="2"/>
<feComposite in2="hardAlpha" operator="out"/>
<feColorMatrix type="matrix" values="0 0 0 0 0 0 0 0 0 0 0 0 0 0 0 0 0 0 0.25 0"/>
<feBlend mode="normal" in2="BackgroundImageFix" result="effect1_dropShadow_32_10617"/>
<feBlend mode="normal" in="SourceGraphic" in2="effect1_dropShadow_32_10617" result="shape"/>
</filter>
<filter id="filter2_d_32_10617" x="4.0625" y="4.37489" width="18.9688" height="21.4999" filterUnits="userSpaceOnUse" color-interpolation-filters="sRGB">
<feFlood flood-opacity="0" result="BackgroundImageFix"/>
<feColorMatrix in="SourceAlpha" type="matrix" values="0 0 0 0 0 0 0 0 0 0 0 0 0 0 0 0 0 0 127 0" result="hardAlpha"/>
<feOffset dy="2"/>
<feGaussianBlur stdDeviation="2"/>
<feComposite in2="hardAlpha" operator="out"/>
<feColorMatrix type="matrix" values="0 0 0 0 0 0 0 0 0 0 0 0 0 0 0 0 0 0 0.25 0"/>
<feBlend mode="normal" in2="BackgroundImageFix" result="effect1_dropShadow_32_10617"/>
<feBlend mode="normal" in="SourceGraphic" in2="effect1_dropShadow_32_10617" result="shape"/>
</filter>
<linearGradient id="paint0_linear_32_10617" x1="12" y1="0" x2="12" y2="24" gradientUnits="userSpaceOnUse">
<stop stop-color="#CB02C5"/>
<stop offset="0.244792" stop-color="#C101DA"/>
<stop offset="0.510417" stop-color="#B600F0"/>
<stop offset="0.744792" stop-color="#8900D9"/>
<stop offset="1" stop-color="#5800BF"/>
</linearGradient>
<linearGradient id="paint1_linear_32_10617" x1="12" y1="0" x2="12" y2="24" gradientUnits="userSpaceOnUse">
<stop offset="0.125" stop-color="#CB02C5"/>
<stop offset="0.333333" stop-color="#C101DA"/>
<stop offset="0.635417" stop-color="#B600F0"/>
<stop offset="0.864583" stop-color="#8900D9"/>
</linearGradient>
<clipPath id="clip0_32_10617">
<rect width="24" height="24" fill="white"/>
</clipPath>
</defs>
</svg>
