<svg width="24" height="24" viewBox="0 0 24 24" fill="none" xmlns="http://www.w3.org/2000/svg">
<g clip-path="url(#clip0_32_10629)">
<path d="M18 0H6C2.68629 0 0 2.68629 0 6V18C0 21.3137 2.68629 24 6 24H18C21.3137 24 24 21.3137 24 18V6C24 2.68629 21.3137 0 18 0Z" fill="url(#paint0_linear_32_10629)"/>
<path d="M18 0H6C2.68629 0 0 2.68629 0 6V18C0 21.3137 2.68629 24 6 24H18C21.3137 24 24 21.3137 24 18V6C24 2.68629 21.3137 0 18 0Z" fill="url(#paint1_linear_32_10629)"/>
<g filter="url(#filter0_i_32_10629)">
<path d="M18 1.5H6C3.51472 1.5 1.5 3.51472 1.5 6V18C1.5 20.4853 3.51472 22.5 6 22.5H18C20.4853 22.5 22.5 20.4853 22.5 18V6C22.5 3.51472 20.4853 1.5 18 1.5Z" fill="black" fill-opacity="0.7"/>
<mask id="mask0_32_10629" style="mask-type:luminance" maskUnits="userSpaceOnUse" x="3" y="3" width="18" height="18">
<path d="M21 3H3V21H21V3Z" fill="white"/>
</mask>
<g mask="url(#mask0_32_10629)">
<g filter="url(#filter1_d_32_10629)">
<path d="M17.6522 9.49544L6.62766 10.6783C5.97214 10.7482 5.31445 10.5676 4.7866 10.1727C4.25875 9.77774 3.89986 9.19775 3.78194 8.54915C3.71995 8.2066 3.72713 7.85513 3.80305 7.5154C3.87899 7.17569 4.02212 6.85458 4.22404 6.57102C4.42596 6.28748 4.68259 6.04718 4.97881 5.86433C5.27502 5.68148 5.60481 5.55974 5.9488 5.5063L16.9065 3.80401C17.3304 3.7381 17.7637 3.76808 18.1746 3.89174C18.5854 4.01541 18.9632 4.22961 19.2803 4.51859C19.5973 4.80756 19.8458 5.16395 20.0068 5.56154C20.1681 5.95913 20.238 6.3878 20.2116 6.81601C20.1709 7.49318 19.8913 8.13398 19.4228 8.62454C18.9542 9.1151 18.3268 9.42368 17.6522 9.49544Z" fill="url(#paint2_linear_32_10629)"/>
</g>
<g filter="url(#filter2_d_32_10629)">
<path d="M13.5771 19.0869L4.50338 9.91887C4.24546 9.65815 4.0453 9.34606 3.91595 9.0029C3.78659 8.65972 3.73094 8.29315 3.75261 7.92706C3.77429 7.56097 3.87278 7.20352 4.04172 6.878C4.21064 6.5525 4.44621 6.26618 4.73309 6.03772C5.16788 5.69215 5.7016 5.49434 6.25658 5.47308C6.81156 5.4518 7.35884 5.60817 7.81881 5.91944L18.5005 13.1606C18.996 13.4969 19.4068 13.9435 19.7006 14.4654C19.9942 14.9873 20.163 15.5701 20.1933 16.1682C20.2237 16.7663 20.115 17.3633 19.8757 17.9122C19.6365 18.4612 19.2731 18.9473 18.8143 19.332C18.0697 19.9556 17.118 20.2764 16.1478 20.2311C15.1777 20.1857 14.2601 19.7773 13.5771 19.0869Z" fill="url(#paint3_linear_32_10629)"/>
</g>
<g filter="url(#filter3_d_32_10629)">
<path d="M15.628 4.33371L5.02687 12.2571C4.80301 12.4242 4.61615 12.6357 4.47798 12.8784C4.33983 13.1211 4.25337 13.3897 4.22407 13.6675C4.19476 13.9452 4.22324 14.226 4.30771 14.4922C4.39218 14.7584 4.5308 15.0043 4.71487 15.2143C5.02154 15.5631 5.4389 15.7957 5.89685 15.8732C6.3548 15.9506 6.82544 15.868 7.22973 15.6394L18.7532 9.12514C19.1252 8.91516 19.4456 8.62473 19.6911 8.27506C19.9365 7.92537 20.1006 7.52528 20.1716 7.10403C20.2425 6.68277 20.2185 6.25098 20.1013 5.84018C19.9839 5.42941 19.7764 5.05 19.4938 4.72971C19.0166 4.19059 18.3543 3.8506 17.6382 3.77723C16.922 3.70388 16.2045 3.90252 15.628 4.33371Z" fill="url(#paint4_linear_32_10629)"/>
</g>
<g filter="url(#filter4_d_32_10629)">
<path d="M14.7435 19.8977L5.40059 15.7011C5.12352 15.5777 4.87797 15.3932 4.68232 15.1614C4.48666 14.9297 4.34598 14.6567 4.27077 14.3628C4.19559 14.069 4.18784 13.7619 4.24812 13.4647C4.3084 13.1674 4.43515 12.8876 4.61887 12.6463C4.81878 12.3854 5.07955 12.1774 5.37837 12.0405C5.67721 11.9037 6.00502 11.8421 6.33316 11.8611L16.5623 12.4903C17.1713 12.5275 17.7628 12.7079 18.2889 13.0168C18.8149 13.3257 19.2608 13.7545 19.5899 14.2682C19.9189 14.7819 20.1222 15.3661 20.1829 15.9731C20.2437 16.5802 20.1602 17.193 19.9394 17.7617C19.7489 18.2513 19.461 18.697 19.0932 19.0719C18.7252 19.4469 18.285 19.7432 17.7991 19.9431C17.3132 20.1428 16.7919 20.2418 16.2666 20.2339C15.7414 20.2262 15.2232 20.1118 14.7435 19.8977Z" fill="url(#paint5_linear_32_10629)"/>
</g>
<g filter="url(#filter5_d_32_10629)">
<path d="M6.85742 6.85715H17.1431V17.1429H6.85742V6.85715Z" fill="black"/>
</g>
<path d="M8.13965 15.1989H11.9968V15.8417H8.13965V15.1989Z" fill="white"/>
<path d="M8.14258 10.3423V8.12744H8.99973V10.32C8.99973 10.9509 9.31515 11.2766 9.8363 11.2766C10.3574 11.2766 10.6711 10.9612 10.6711 10.3474V8.12744H11.5283V10.3132C11.5283 11.4874 10.87 12.0634 9.82944 12.0634C8.78887 12.0634 8.14258 11.4823 8.14258 10.3423Z" fill="white"/>
<path d="M12.302 8.12744H13.886C14.81 8.12744 15.3689 8.67601 15.3689 9.46801V9.4783C15.3689 10.3749 14.6712 10.8394 13.802 10.8394H13.154V12.0017H12.2969L12.302 8.12744ZM13.8295 10.0817C14.2563 10.0817 14.5049 9.8263 14.5049 9.49544V9.48344C14.5049 9.10287 14.2392 8.89717 13.8192 8.89717H13.154V10.0817H13.8295Z" fill="white"/>
</g>
</g>
</g>
<defs>
<filter id="filter0_i_32_10629" x="1.5" y="1.5" width="21" height="25" filterUnits="userSpaceOnUse" color-interpolation-filters="sRGB">
<feFlood flood-opacity="0" result="BackgroundImageFix"/>
<feBlend mode="normal" in="SourceGraphic" in2="BackgroundImageFix" result="shape"/>
<feColorMatrix in="SourceAlpha" type="matrix" values="0 0 0 0 0 0 0 0 0 0 0 0 0 0 0 0 0 0 127 0" result="hardAlpha"/>
<feOffset dy="4"/>
<feGaussianBlur stdDeviation="2"/>
<feComposite in2="hardAlpha" operator="arithmetic" k2="-1" k3="1"/>
<feColorMatrix type="matrix" values="0 0 0 0 0 0 0 0 0 0 0 0 0 0 0 0 0 0 0.25 0"/>
<feBlend mode="normal" in2="shape" result="effect1_innerShadow_32_10629"/>
</filter>
<filter id="filter1_d_32_10629" x="-0.259766" y="1.76994" width="24.4766" height="14.9231" filterUnits="userSpaceOnUse" color-interpolation-filters="sRGB">
<feFlood flood-opacity="0" result="BackgroundImageFix"/>
<feColorMatrix in="SourceAlpha" type="matrix" values="0 0 0 0 0 0 0 0 0 0 0 0 0 0 0 0 0 0 127 0" result="hardAlpha"/>
<feOffset dy="2"/>
<feGaussianBlur stdDeviation="2"/>
<feComposite in2="hardAlpha" operator="out"/>
<feColorMatrix type="matrix" values="0 0 0 0 0 0 0 0 0 0 0 0 0 0 0 0 0 0 0.25 0"/>
<feBlend mode="normal" in2="BackgroundImageFix" result="effect1_dropShadow_32_10629"/>
<feBlend mode="normal" in="SourceGraphic" in2="effect1_dropShadow_32_10629" result="shape"/>
</filter>
<filter id="filter2_d_32_10629" x="-0.251953" y="3.47116" width="24.4502" height="22.7641" filterUnits="userSpaceOnUse" color-interpolation-filters="sRGB">
<feFlood flood-opacity="0" result="BackgroundImageFix"/>
<feColorMatrix in="SourceAlpha" type="matrix" values="0 0 0 0 0 0 0 0 0 0 0 0 0 0 0 0 0 0 127 0" result="hardAlpha"/>
<feOffset dy="2"/>
<feGaussianBlur stdDeviation="2"/>
<feComposite in2="hardAlpha" operator="out"/>
<feColorMatrix type="matrix" values="0 0 0 0 0 0 0 0 0 0 0 0 0 0 0 0 0 0 0.25 0"/>
<feBlend mode="normal" in2="BackgroundImageFix" result="effect1_dropShadow_32_10629"/>
<feBlend mode="normal" in="SourceGraphic" in2="effect1_dropShadow_32_10629" result="shape"/>
</filter>
<filter id="filter3_d_32_10629" x="0.212891" y="1.7623" width="23.998" height="20.1392" filterUnits="userSpaceOnUse" color-interpolation-filters="sRGB">
<feFlood flood-opacity="0" result="BackgroundImageFix"/>
<feColorMatrix in="SourceAlpha" type="matrix" values="0 0 0 0 0 0 0 0 0 0 0 0 0 0 0 0 0 0 127 0" result="hardAlpha"/>
<feOffset dy="2"/>
<feGaussianBlur stdDeviation="2"/>
<feComposite in2="hardAlpha" operator="out"/>
<feColorMatrix type="matrix" values="0 0 0 0 0 0 0 0 0 0 0 0 0 0 0 0 0 0 0.25 0"/>
<feBlend mode="normal" in2="BackgroundImageFix" result="effect1_dropShadow_32_10629"/>
<feBlend mode="normal" in="SourceGraphic" in2="effect1_dropShadow_32_10629" result="shape"/>
</filter>
<filter id="filter4_d_32_10629" x="0.208008" y="9.85776" width="23.9941" height="16.3766" filterUnits="userSpaceOnUse" color-interpolation-filters="sRGB">
<feFlood flood-opacity="0" result="BackgroundImageFix"/>
<feColorMatrix in="SourceAlpha" type="matrix" values="0 0 0 0 0 0 0 0 0 0 0 0 0 0 0 0 0 0 127 0" result="hardAlpha"/>
<feOffset dy="2"/>
<feGaussianBlur stdDeviation="2"/>
<feComposite in2="hardAlpha" operator="out"/>
<feColorMatrix type="matrix" values="0 0 0 0 0 0 0 0 0 0 0 0 0 0 0 0 0 0 0.25 0"/>
<feBlend mode="normal" in2="BackgroundImageFix" result="effect1_dropShadow_32_10629"/>
<feBlend mode="normal" in="SourceGraphic" in2="effect1_dropShadow_32_10629" result="shape"/>
</filter>
<filter id="filter5_d_32_10629" x="2.85742" y="4.85715" width="18.2861" height="18.2857" filterUnits="userSpaceOnUse" color-interpolation-filters="sRGB">
<feFlood flood-opacity="0" result="BackgroundImageFix"/>
<feColorMatrix in="SourceAlpha" type="matrix" values="0 0 0 0 0 0 0 0 0 0 0 0 0 0 0 0 0 0 127 0" result="hardAlpha"/>
<feOffset dy="2"/>
<feGaussianBlur stdDeviation="2"/>
<feComposite in2="hardAlpha" operator="out"/>
<feColorMatrix type="matrix" values="0 0 0 0 0 0 0 0 0 0 0 0 0 0 0 0 0 0 0.25 0"/>
<feBlend mode="normal" in2="BackgroundImageFix" result="effect1_dropShadow_32_10629"/>
<feBlend mode="normal" in="SourceGraphic" in2="effect1_dropShadow_32_10629" result="shape"/>
</filter>
<linearGradient id="paint0_linear_32_10629" x1="12" y1="0" x2="12" y2="24" gradientUnits="userSpaceOnUse">
<stop stop-color="#3BEA62"/>
<stop offset="0.5" stop-color="#009AE5"/>
<stop offset="1" stop-color="#6B57FF"/>
</linearGradient>
<linearGradient id="paint1_linear_32_10629" x1="20.1639" y1="5.28159" x2="-0.426388" y2="15.2485" gradientUnits="userSpaceOnUse">
<stop stop-color="#FC801D"/>
<stop offset="0.661458" stop-color="#6B57FF"/>
<stop offset="1" stop-color="#08C1F2"/>
</linearGradient>
<linearGradient id="paint2_linear_32_10629" x1="19.6168" y1="6.33944" x2="8.00937" y2="7.88571" gradientUnits="userSpaceOnUse">
<stop stop-color="#FC801D"/>
<stop offset="1" stop-color="#6B57FF"/>
</linearGradient>
<linearGradient id="paint3_linear_32_10629" x1="11.9022" y1="12.5966" x2="12.8931" y2="8.40687" gradientUnits="userSpaceOnUse">
<stop stop-color="#07C3F2"/>
<stop offset="1" stop-color="#6B57FF"/>
</linearGradient>
<linearGradient id="paint4_linear_32_10629" x1="17.6543" y1="6.43371" x2="5.61316" y2="14.1154" gradientUnits="userSpaceOnUse">
<stop stop-color="#FC801D"/>
<stop offset="0.92" stop-color="#6B57FF"/>
</linearGradient>
<linearGradient id="paint5_linear_32_10629" x1="19.0892" y1="17.3554" x2="6.23716" y2="12.7114" gradientUnits="userSpaceOnUse">
<stop stop-color="#07C3F2"/>
<stop offset="1" stop-color="#6B57FF"/>
</linearGradient>
<clipPath id="clip0_32_10629">
<rect width="24" height="24" fill="white"/>
</clipPath>
</defs>
</svg>
