<svg width="24" height="24" viewBox="0 0 24 24" fill="none" xmlns="http://www.w3.org/2000/svg">
<g clip-path="url(#clip0_32_10651)">
<path d="M18 0H6C2.68629 0 0 2.68629 0 6V18C0 21.3137 2.68629 24 6 24H18C21.3137 24 24 21.3137 24 18V6C24 2.68629 21.3137 0 18 0Z" fill="url(#paint0_linear_32_10651)"/>
<g filter="url(#filter0_i_32_10651)">
<path d="M18 1.5H6C3.51472 1.5 1.5 3.51472 1.5 6V18C1.5 20.4853 3.51472 22.5 6 22.5H18C20.4853 22.5 22.5 20.4853 22.5 18V6C22.5 3.51472 20.4853 1.5 18 1.5Z" fill="black" fill-opacity="0.7"/>
<g filter="url(#filter1_d_32_10651)">
<path d="M17.3017 6.6977C14.3749 3.76743 9.62616 3.76743 6.69504 6.6977C3.76832 9.62797 3.76832 14.3764 6.69504 17.3023C9.62177 20.2326 14.3705 20.2326 17.3017 17.3023C20.2327 14.372 20.2327 9.62356 17.3017 6.6977ZM16.8527 10.1443C15.6161 12.2935 14.3793 14.4426 13.1426 16.5962C12.9138 16.9978 12.5793 17.2361 12.1216 17.2714C11.611 17.3067 11.2062 17.0905 10.9465 16.6492C10.1631 15.3032 9.3885 13.9484 8.61392 12.598C8.14299 11.7771 7.66768 10.9563 7.19676 10.1311C6.72144 9.3014 7.25839 8.29081 8.20901 8.24227C8.71074 8.2158 9.09802 8.44968 9.35331 8.88658C9.70099 9.48234 10.0443 10.0869 10.392 10.6871C10.6428 11.1196 10.8849 11.5565 11.1401 11.9801C11.5098 12.6024 12.0556 12.951 12.7817 12.9951C13.8072 13.0569 14.7622 12.3111 14.8855 11.2211C14.8943 11.1417 14.8987 11.0578 14.9031 11.0181C14.8987 10.6651 14.8327 10.365 14.6918 10.0869C14.3089 9.31906 14.7182 8.45851 15.55 8.27317C16.2278 8.12311 16.932 8.62179 17.02 9.31023C17.064 9.6059 17.0024 9.88393 16.8527 10.1443Z" fill="white"/>
</g>
</g>
</g>
<defs>
<filter id="filter0_i_32_10651" x="1.5" y="1.5" width="21" height="25" filterUnits="userSpaceOnUse" color-interpolation-filters="sRGB">
<feFlood flood-opacity="0" result="BackgroundImageFix"/>
<feBlend mode="normal" in="SourceGraphic" in2="BackgroundImageFix" result="shape"/>
<feColorMatrix in="SourceAlpha" type="matrix" values="0 0 0 0 0 0 0 0 0 0 0 0 0 0 0 0 0 0 127 0" result="hardAlpha"/>
<feOffset dy="4"/>
<feGaussianBlur stdDeviation="2"/>
<feComposite in2="hardAlpha" operator="arithmetic" k2="-1" k3="1"/>
<feColorMatrix type="matrix" values="0 0 0 0 0 0 0 0 0 0 0 0 0 0 0 0 0 0 0.25 0"/>
<feBlend mode="normal" in2="shape" result="effect1_innerShadow_32_10651"/>
</filter>
<filter id="filter1_d_32_10651" x="0.5" y="2.5" width="23" height="23" filterUnits="userSpaceOnUse" color-interpolation-filters="sRGB">
<feFlood flood-opacity="0" result="BackgroundImageFix"/>
<feColorMatrix in="SourceAlpha" type="matrix" values="0 0 0 0 0 0 0 0 0 0 0 0 0 0 0 0 0 0 127 0" result="hardAlpha"/>
<feOffset dy="2"/>
<feGaussianBlur stdDeviation="2"/>
<feComposite in2="hardAlpha" operator="out"/>
<feColorMatrix type="matrix" values="0 0 0 0 0 0 0 0 0 0 0 0 0 0 0 0 0 0 0.25 0"/>
<feBlend mode="normal" in2="BackgroundImageFix" result="effect1_dropShadow_32_10651"/>
<feBlend mode="normal" in="SourceGraphic" in2="effect1_dropShadow_32_10651" result="shape"/>
</filter>
<linearGradient id="paint0_linear_32_10651" x1="24" y1="0" x2="0" y2="24" gradientUnits="userSpaceOnUse">
<stop stop-color="#EF3939"/>
<stop offset="1" stop-color="#BF2E2E"/>
</linearGradient>
<clipPath id="clip0_32_10651">
<rect width="24" height="24" fill="white"/>
</clipPath>
</defs>
</svg>
