<svg width="24" height="24" viewBox="0 0 24 24" fill="none" xmlns="http://www.w3.org/2000/svg">
<g clip-path="url(#clip0_32_10657)">
<path d="M18 0H6C2.68629 0 0 2.68629 0 6V18C0 21.3137 2.68629 24 6 24H18C21.3137 24 24 21.3137 24 18V6C24 2.68629 21.3137 0 18 0Z" fill="url(#paint0_linear_32_10657)"/>
<path d="M18 0H6C2.68629 0 0 2.68629 0 6V18C0 21.3137 2.68629 24 6 24H18C21.3137 24 24 21.3137 24 18V6C24 2.68629 21.3137 0 18 0Z" fill="url(#paint1_linear_32_10657)"/>
<g filter="url(#filter0_i_32_10657)">
<path d="M18 1.5H6C3.51472 1.5 1.5 3.51472 1.5 6V18C1.5 20.4853 3.51472 22.5 6 22.5H18C20.4853 22.5 22.5 20.4853 22.5 18V6C22.5 3.51472 20.4853 1.5 18 1.5Z" fill="black" fill-opacity="0.7"/>
<mask id="mask0_32_10657" style="mask-type:luminance" maskUnits="userSpaceOnUse" x="6" y="5" width="12" height="14">
<path d="M17.8125 5.4375H6.1875V18.5625H17.8125V5.4375Z" fill="white"/>
</mask>
<g mask="url(#mask0_32_10657)">
<g filter="url(#filter1_d_32_10657)">
<path fill-rule="evenodd" clip-rule="evenodd" d="M6.50166 17.6245C6.50166 17.6245 6.31694 17.8231 6.2681 17.9844C6.23395 18.0971 6.22062 18.2651 6.28225 18.3655C6.32746 18.4391 6.38673 18.5137 6.47335 18.5137C10.2394 18.5142 14.4042 18.5197 17.3346 18.5278C17.4338 18.528 17.622 18.5107 17.6991 18.4008C17.7777 18.2887 17.7758 18.0389 17.7203 17.9138C17.6619 17.7821 17.3877 17.7233 17.3877 17.7233L6.50166 17.6245Z" fill="#B54D00"/>
<path fill-rule="evenodd" clip-rule="evenodd" d="M7.88925 13.6629C7.71718 13.6629 7.53855 13.7951 7.48869 13.9597L6.2864 17.9304C6.23656 18.0951 6.33474 18.2279 6.50681 18.2279H17.594C17.7251 18.2279 17.8003 18.1271 17.7623 18.0017L16.5164 13.8891C16.4785 13.7637 16.3427 13.6629 16.2116 13.6629H7.88925Z" fill="#E26400"/>
<path fill-rule="evenodd" clip-rule="evenodd" d="M11.9978 5.48219C11.7119 5.47934 11.5436 5.50052 11.3749 5.62694C11.2979 5.68465 11.2371 5.82169 11.2007 5.92037L8.26562 15.5808C8.26562 15.5808 8.33408 16.0173 8.74928 16.4142C9.0292 16.6817 9.56005 16.8799 9.89354 16.9519C10.7495 17.1369 11.4359 17.1811 12.2121 17.1693C13.0094 17.1573 13.806 17.001 14.5727 16.7823C15.7161 16.4561 15.7525 15.5407 15.7525 15.5407L12.7336 5.74077C12.7212 5.7004 12.6909 5.67064 12.667 5.64799C12.4876 5.47851 12.2159 5.48438 11.9978 5.48219Z" fill="url(#paint2_linear_32_10657)"/>
<path fill-rule="evenodd" clip-rule="evenodd" d="M11.9979 5.48219C11.7119 5.47934 11.5436 5.50052 11.3749 5.62694C11.2979 5.68465 11.2371 5.82169 11.2007 5.92037L8.26562 15.5808C8.26562 15.5808 8.3947 16.4163 9.43341 16.8236C10.1524 17.1055 10.8945 17.1429 12.0493 17.1552C13.3354 17.1689 13.8593 17.0431 14.6999 16.7507C15.0956 16.613 15.3007 16.4341 15.4883 16.2356C15.7597 15.9486 15.7525 15.5407 15.7525 15.5407L12.7336 5.74077C12.7132 5.70377 12.6909 5.67064 12.667 5.64799C12.4876 5.47851 12.2159 5.48438 11.9979 5.48219Z" fill="#F48200"/>
<path fill-rule="evenodd" clip-rule="evenodd" d="M9.3371 12.0543L8.66602 14.263C9.4799 14.9469 10.6743 15.3788 12.0056 15.3788C13.3429 15.3788 14.5416 14.943 15.3558 14.2538L14.68 12.0596C14.058 12.5544 13.0939 12.8721 12.0115 12.8721C10.9256 12.8721 9.95896 12.5519 9.3371 12.0543Z" fill="#EAECED"/>
<path fill-rule="evenodd" clip-rule="evenodd" d="M13.2169 7.30994C12.9002 7.41589 12.4674 7.48165 11.9896 7.48165C11.5195 7.48165 11.0927 7.41812 10.7774 7.31519L10.0693 9.64624C10.5453 9.89459 11.2422 10.0515 12.0192 10.0515C12.781 10.0515 13.4662 9.90124 13.9414 9.66137L13.2169 7.30994Z" fill="#EAECED"/>
</g>
</g>
</g>
</g>
<defs>
<filter id="filter0_i_32_10657" x="1.5" y="1.5" width="21" height="25" filterUnits="userSpaceOnUse" color-interpolation-filters="sRGB">
<feFlood flood-opacity="0" result="BackgroundImageFix"/>
<feBlend mode="normal" in="SourceGraphic" in2="BackgroundImageFix" result="shape"/>
<feColorMatrix in="SourceAlpha" type="matrix" values="0 0 0 0 0 0 0 0 0 0 0 0 0 0 0 0 0 0 127 0" result="hardAlpha"/>
<feOffset dy="4"/>
<feGaussianBlur stdDeviation="2"/>
<feComposite in2="hardAlpha" operator="arithmetic" k2="-1" k3="1"/>
<feColorMatrix type="matrix" values="0 0 0 0 0 0 0 0 0 0 0 0 0 0 0 0 0 0 0.25 0"/>
<feBlend mode="normal" in2="shape" result="effect1_innerShadow_32_10657"/>
</filter>
<filter id="filter1_d_32_10657" x="2.23926" y="3.48195" width="19.5332" height="21.0458" filterUnits="userSpaceOnUse" color-interpolation-filters="sRGB">
<feFlood flood-opacity="0" result="BackgroundImageFix"/>
<feColorMatrix in="SourceAlpha" type="matrix" values="0 0 0 0 0 0 0 0 0 0 0 0 0 0 0 0 0 0 127 0" result="hardAlpha"/>
<feOffset dy="2"/>
<feGaussianBlur stdDeviation="2"/>
<feComposite in2="hardAlpha" operator="out"/>
<feColorMatrix type="matrix" values="0 0 0 0 0 0 0 0 0 0 0 0 0 0 0 0 0 0 0.25 0"/>
<feBlend mode="normal" in2="BackgroundImageFix" result="effect1_dropShadow_32_10657"/>
<feBlend mode="normal" in="SourceGraphic" in2="effect1_dropShadow_32_10657" result="shape"/>
</filter>
<linearGradient id="paint0_linear_32_10657" x1="12" y1="0" x2="12" y2="24" gradientUnits="userSpaceOnUse">
<stop stop-color="#CB02C5"/>
<stop offset="1" stop-color="#5800BF"/>
</linearGradient>
<linearGradient id="paint1_linear_32_10657" x1="1.6145e-07" y1="13.7813" x2="23.4549" y2="7.86908" gradientUnits="userSpaceOnUse">
<stop stop-color="#F48200"/>
<stop offset="0.494068" stop-color="#F48200"/>
<stop offset="1" stop-color="#CC5F00"/>
</linearGradient>
<linearGradient id="paint2_linear_32_10657" x1="9.65269" y1="10.5681" x2="10.26" y2="10.71" gradientUnits="userSpaceOnUse">
<stop stop-color="#9B4400"/>
<stop offset="1" stop-color="#E56300"/>
</linearGradient>
<clipPath id="clip0_32_10657">
<rect width="24" height="24" fill="white"/>
</clipPath>
</defs>
</svg>
