<svg width="24" height="24" viewBox="0 0 24 24" fill="none" xmlns="http://www.w3.org/2000/svg">
<g clip-path="url(#clip0_32_10672)">
<path d="M18 0H6C2.68629 0 0 2.68629 0 6V18C0 21.3137 2.68629 24 6 24H18C21.3137 24 24 21.3137 24 18V6C24 2.68629 21.3137 0 18 0Z" fill="url(#paint0_linear_32_10672)"/>
<g filter="url(#filter0_i_32_10672)">
<path d="M18 1.5H6C3.51472 1.5 1.5 3.51472 1.5 6V18C1.5 20.4853 3.51472 22.5 6 22.5H18C20.4853 22.5 22.5 20.4853 22.5 18V6C22.5 3.51472 20.4853 1.5 18 1.5Z" fill="black" fill-opacity="0.7"/>
<g filter="url(#filter1_d_32_10672)">
<path d="M19.5002 7.16624V16.8337C19.5002 17.31 19.204 17.7337 18.7577 17.8912L15.4502 19.4437L15.7502 15.375V8.62499L15.4502 4.55624L18.7577 6.10874C19.204 6.26624 19.5002 6.68999 19.5002 7.16624Z" fill="#29B6F6"/>
</g>
<g filter="url(#filter2_d_32_10672)">
<path d="M6.37454 15.711L15.7495 8.62497V5.00735C15.7495 4.5581 15.1938 4.3481 14.8964 4.68485L4.74629 13.9646C4.40879 14.2758 4.42792 14.8147 4.78642 15.1016C4.78642 15.1016 5.28292 15.5636 5.46254 15.6919C5.73854 15.8887 6.10117 15.9112 6.37454 15.711Z" fill="#0277BD"/>
</g>
<g filter="url(#filter3_d_32_10672)">
<path d="M6.37454 8.289L15.7495 15.375V18.9926C15.7495 19.4419 15.1938 19.6519 14.8964 19.3151L4.74629 10.0354C4.40879 9.72412 4.42792 9.18525 4.78642 8.89837C4.78642 8.89837 5.28292 8.43637 5.46254 8.30812C5.73854 8.11125 6.10117 8.08875 6.37454 8.289Z" fill="#0288D1"/>
</g>
</g>
</g>
<defs>
<filter id="filter0_i_32_10672" x="1.5" y="1.5" width="21" height="25" filterUnits="userSpaceOnUse" color-interpolation-filters="sRGB">
<feFlood flood-opacity="0" result="BackgroundImageFix"/>
<feBlend mode="normal" in="SourceGraphic" in2="BackgroundImageFix" result="shape"/>
<feColorMatrix in="SourceAlpha" type="matrix" values="0 0 0 0 0 0 0 0 0 0 0 0 0 0 0 0 0 0 127 0" result="hardAlpha"/>
<feOffset dy="4"/>
<feGaussianBlur stdDeviation="2"/>
<feComposite in2="hardAlpha" operator="arithmetic" k2="-1" k3="1"/>
<feColorMatrix type="matrix" values="0 0 0 0 0 0 0 0 0 0 0 0 0 0 0 0 0 0 0.25 0"/>
<feBlend mode="normal" in2="shape" result="effect1_innerShadow_32_10672"/>
</filter>
<filter id="filter1_d_32_10672" x="11.4502" y="2.55624" width="12.0498" height="22.8875" filterUnits="userSpaceOnUse" color-interpolation-filters="sRGB">
<feFlood flood-opacity="0" result="BackgroundImageFix"/>
<feColorMatrix in="SourceAlpha" type="matrix" values="0 0 0 0 0 0 0 0 0 0 0 0 0 0 0 0 0 0 127 0" result="hardAlpha"/>
<feOffset dy="2"/>
<feGaussianBlur stdDeviation="2"/>
<feComposite in2="hardAlpha" operator="out"/>
<feColorMatrix type="matrix" values="0 0 0 0 0 0 0 0 0 0 0 0 0 0 0 0 0 0 0.25 0"/>
<feBlend mode="normal" in2="BackgroundImageFix" result="effect1_dropShadow_32_10672"/>
<feBlend mode="normal" in="SourceGraphic" in2="effect1_dropShadow_32_10672" result="shape"/>
</filter>
<filter id="filter2_d_32_10672" x="0.504883" y="2.51889" width="19.2451" height="19.3318" filterUnits="userSpaceOnUse" color-interpolation-filters="sRGB">
<feFlood flood-opacity="0" result="BackgroundImageFix"/>
<feColorMatrix in="SourceAlpha" type="matrix" values="0 0 0 0 0 0 0 0 0 0 0 0 0 0 0 0 0 0 127 0" result="hardAlpha"/>
<feOffset dy="2"/>
<feGaussianBlur stdDeviation="2"/>
<feComposite in2="hardAlpha" operator="out"/>
<feColorMatrix type="matrix" values="0 0 0 0 0 0 0 0 0 0 0 0 0 0 0 0 0 0 0.25 0"/>
<feBlend mode="normal" in2="BackgroundImageFix" result="effect1_dropShadow_32_10672"/>
<feBlend mode="normal" in="SourceGraphic" in2="effect1_dropShadow_32_10672" result="shape"/>
</filter>
<filter id="filter3_d_32_10672" x="0.504883" y="6.14923" width="19.2451" height="19.3318" filterUnits="userSpaceOnUse" color-interpolation-filters="sRGB">
<feFlood flood-opacity="0" result="BackgroundImageFix"/>
<feColorMatrix in="SourceAlpha" type="matrix" values="0 0 0 0 0 0 0 0 0 0 0 0 0 0 0 0 0 0 127 0" result="hardAlpha"/>
<feOffset dy="2"/>
<feGaussianBlur stdDeviation="2"/>
<feComposite in2="hardAlpha" operator="out"/>
<feColorMatrix type="matrix" values="0 0 0 0 0 0 0 0 0 0 0 0 0 0 0 0 0 0 0.25 0"/>
<feBlend mode="normal" in2="BackgroundImageFix" result="effect1_dropShadow_32_10672"/>
<feBlend mode="normal" in="SourceGraphic" in2="effect1_dropShadow_32_10672" result="shape"/>
</filter>
<linearGradient id="paint0_linear_32_10672" x1="12" y1="0" x2="12" y2="24" gradientUnits="userSpaceOnUse">
<stop stop-color="#29B6F6"/>
<stop offset="0.510417" stop-color="#0288D1"/>
<stop offset="1" stop-color="#0277BD"/>
</linearGradient>
<clipPath id="clip0_32_10672">
<rect width="24" height="24" fill="white"/>
</clipPath>
</defs>
</svg>
