<svg width="24" height="24" viewBox="0 0 24 24" fill="none" xmlns="http://www.w3.org/2000/svg">
<g clip-path="url(#clip0_32_10682)">
<path d="M18 0H6C2.68629 0 0 2.68629 0 6V18C0 21.3137 2.68629 24 6 24H18C21.3137 24 24 21.3137 24 18V6C24 2.68629 21.3137 0 18 0Z" fill="url(#paint0_linear_32_10682)"/>
<g filter="url(#filter0_i_32_10682)">
<path d="M18 1.5H6C3.51472 1.5 1.5 3.51472 1.5 6V18C1.5 20.4853 3.51472 22.5 6 22.5H18C20.4853 22.5 22.5 20.4853 22.5 18V6C22.5 3.51472 20.4853 1.5 18 1.5Z" fill="black" fill-opacity="0.7"/>
<g filter="url(#filter1_d_32_10682)">
<path d="M12.0742 4.70199C11.955 4.72339 11.8413 4.76801 11.7395 4.83328C11.3115 5.10819 11.188 5.67741 11.4637 6.10434C12.9801 8.45398 13.338 10.2263 13.1828 11.7794C12.5552 14.7536 11.191 15.3569 9.99876 15.3569C8.8347 15.3569 9.14646 13.4402 10.0214 12.8792C10.5436 12.5528 11.2127 12.3407 11.7262 12.3407C12.2349 12.3408 12.6474 11.9293 12.6475 11.4217C12.6474 10.914 12.2349 10.5025 11.7262 10.5026C11.1265 10.5026 10.5381 10.6286 9.98904 10.8432C10.1011 10.3136 10.1426 9.74121 9.99759 9.13262C9.77741 8.20873 9.14344 7.32611 8.04272 6.47062C7.85001 6.32062 7.60545 6.2532 7.3629 6.2832C7.12041 6.3132 6.89981 6.43813 6.74963 6.63045C6.43723 7.03123 6.50961 7.60884 6.91125 7.92054C7.80797 8.61748 8.10411 9.13326 8.20532 9.55789C8.30651 9.9825 8.22518 10.438 8.02181 11.0639C7.76177 11.9074 7.46001 12.6604 7.32771 13.3825C7.26261 13.7379 7.25708 14.1248 7.24024 14.4337C6.59454 13.804 6.34172 12.9724 6.34172 11.7575C6.34159 11.2498 5.92911 10.8384 5.42038 10.8385C4.91203 10.8389 4.50013 11.2502 4.5 11.7575C4.5 13.4169 4.98502 14.9958 6.28468 16.0492C7.46132 17.1709 10.4533 16.7563 10.4533 18.5568C10.4533 19.0652 11.1968 19.3125 11.7055 19.3125C12.2271 19.3125 12.8837 18.9636 12.8837 18.5568C12.8837 16.5138 15.0355 15.2722 18.5777 15.2776C19.0864 15.2783 19.4992 14.8672 19.5 14.3595C19.5009 13.8519 19.0894 13.4396 18.5806 13.4386C18.3383 13.4383 18.1022 13.4467 17.8693 13.4605C18.2654 12.5284 18.4411 11.5024 18.4047 10.3942C18.388 9.88678 17.9623 9.48896 17.4538 9.50556C16.945 9.52198 16.5462 9.94723 16.5629 10.455C16.6108 11.9061 16.5565 13.2018 15.4762 13.8848C15.169 14.079 14.8117 14.2473 14.4731 14.2473C14.736 13.5316 14.9346 12.7763 15.016 11.962C15.0679 11.4425 15.0734 10.8251 15.0141 10.3456C14.9221 9.60257 14.8112 8.75998 15.093 8.12526C15.3462 7.57864 15.9136 7.3497 16.7464 7.3497C17.2548 7.34923 17.6667 6.93795 17.6668 6.43067C17.6671 5.92301 17.2552 5.51113 16.7464 5.51068C15.5087 5.51068 14.5704 6.16256 14.0385 6.95012C13.7604 6.35565 13.4218 5.74318 13.0126 5.10919C12.8804 4.90438 12.6721 4.76032 12.4336 4.70865C12.3154 4.68291 12.1932 4.68064 12.0742 4.70199Z" fill="#808080"/>
<path d="M12.0742 4.70199C11.955 4.72339 11.8413 4.76801 11.7395 4.83328C11.3115 5.10819 11.188 5.67741 11.4637 6.10434C12.9801 8.45398 13.338 10.2263 13.1828 11.7794C12.5552 14.7536 11.191 15.3569 9.99876 15.3569C8.8347 15.3569 9.14646 13.4402 10.0214 12.8792C10.5436 12.5528 11.2127 12.3407 11.7262 12.3407C12.2349 12.3408 12.6474 11.9293 12.6475 11.4217C12.6474 10.914 12.2349 10.5025 11.7262 10.5026C11.1265 10.5026 10.5381 10.6286 9.98904 10.8432C10.1011 10.3136 10.1426 9.74121 9.99759 9.13262C9.77741 8.20873 9.14344 7.32611 8.04272 6.47062C7.85001 6.32062 7.60545 6.2532 7.3629 6.2832C7.12041 6.3132 6.89981 6.43813 6.74963 6.63045C6.43723 7.03123 6.50961 7.60884 6.91125 7.92054C7.80797 8.61748 8.10411 9.13326 8.20532 9.55789C8.30651 9.9825 8.22518 10.438 8.02181 11.0639C7.76177 11.9074 7.46001 12.6604 7.32771 13.3825C7.26261 13.7379 7.25708 14.1248 7.24024 14.4337C6.59454 13.804 6.34172 12.9724 6.34172 11.7575C6.34159 11.2498 5.92911 10.8384 5.42038 10.8385C4.91203 10.8389 4.50013 11.2502 4.5 11.7575C4.5 13.4169 4.98502 14.9958 6.28468 16.0492C7.46132 17.1709 10.4533 16.7563 10.4533 18.5568C10.4533 19.0652 11.1968 19.3125 11.7055 19.3125C12.2271 19.3125 12.8837 18.9636 12.8837 18.5568C12.8837 16.5138 15.0355 15.2722 18.5777 15.2776C19.0864 15.2783 19.4992 14.8672 19.5 14.3595C19.5009 13.8519 19.0894 13.4396 18.5806 13.4386C18.3383 13.4383 18.1022 13.4467 17.8693 13.4605C18.2654 12.5284 18.4411 11.5024 18.4047 10.3942C18.388 9.88678 17.9623 9.48896 17.4538 9.50556C16.945 9.52198 16.5462 9.94723 16.5629 10.455C16.6108 11.9061 16.5565 13.2018 15.4762 13.8848C15.169 14.079 14.8117 14.2473 14.4731 14.2473C14.736 13.5316 14.9346 12.7763 15.016 11.962C15.0679 11.4425 15.0734 10.8251 15.0141 10.3456C14.9221 9.60257 14.8112 8.75998 15.093 8.12526C15.3462 7.57864 15.9136 7.3497 16.7464 7.3497C17.2548 7.34923 17.6667 6.93795 17.6668 6.43067C17.6671 5.92301 17.2552 5.51113 16.7464 5.51068C15.5087 5.51068 14.5704 6.16256 14.0385 6.95012C13.7604 6.35565 13.4218 5.74318 13.0126 5.10919C12.8804 4.90438 12.6721 4.76032 12.4336 4.70865C12.3154 4.68291 12.1932 4.68064 12.0742 4.70199Z" fill="url(#paint1_linear_32_10682)"/>
</g>
</g>
</g>
<defs>
<filter id="filter0_i_32_10682" x="1.5" y="1.5" width="21" height="25" filterUnits="userSpaceOnUse" color-interpolation-filters="sRGB">
<feFlood flood-opacity="0" result="BackgroundImageFix"/>
<feBlend mode="normal" in="SourceGraphic" in2="BackgroundImageFix" result="shape"/>
<feColorMatrix in="SourceAlpha" type="matrix" values="0 0 0 0 0 0 0 0 0 0 0 0 0 0 0 0 0 0 127 0" result="hardAlpha"/>
<feOffset dy="4"/>
<feGaussianBlur stdDeviation="2"/>
<feComposite in2="hardAlpha" operator="arithmetic" k2="-1" k3="1"/>
<feColorMatrix type="matrix" values="0 0 0 0 0 0 0 0 0 0 0 0 0 0 0 0 0 0 0.25 0"/>
<feBlend mode="normal" in2="shape" result="effect1_innerShadow_32_10682"/>
</filter>
<filter id="filter1_d_32_10682" x="0.5" y="2.6875" width="23" height="22.625" filterUnits="userSpaceOnUse" color-interpolation-filters="sRGB">
<feFlood flood-opacity="0" result="BackgroundImageFix"/>
<feColorMatrix in="SourceAlpha" type="matrix" values="0 0 0 0 0 0 0 0 0 0 0 0 0 0 0 0 0 0 127 0" result="hardAlpha"/>
<feOffset dy="2"/>
<feGaussianBlur stdDeviation="2"/>
<feComposite in2="hardAlpha" operator="out"/>
<feColorMatrix type="matrix" values="0 0 0 0 0 0 0 0 0 0 0 0 0 0 0 0 0 0 0.25 0"/>
<feBlend mode="normal" in2="BackgroundImageFix" result="effect1_dropShadow_32_10682"/>
<feBlend mode="normal" in="SourceGraphic" in2="effect1_dropShadow_32_10682" result="shape"/>
</filter>
<linearGradient id="paint0_linear_32_10682" x1="2.47102e-05" y1="12" x2="24" y2="12" gradientUnits="userSpaceOnUse">
<stop stop-color="#0066FF"/>
<stop offset="1" stop-color="#00CCFF"/>
</linearGradient>
<linearGradient id="paint1_linear_32_10682" x1="4.50002" y1="12" x2="19.5" y2="12" gradientUnits="userSpaceOnUse">
<stop stop-color="#0066FF"/>
<stop offset="1" stop-color="#00CCFF"/>
</linearGradient>
<clipPath id="clip0_32_10682">
<rect width="24" height="24" fill="white"/>
</clipPath>
</defs>
</svg>
