<svg width="24" height="24" viewBox="0 0 24 24" fill="none" xmlns="http://www.w3.org/2000/svg">
<g clip-path="url(#clip0_32_10700)">
<path d="M18 0H6C2.68629 0 0 2.68629 0 6V18C0 21.3137 2.68629 24 6 24H18C21.3137 24 24 21.3137 24 18V6C24 2.68629 21.3137 0 18 0Z" fill="url(#paint0_linear_32_10700)"/>
<g filter="url(#filter0_i_32_10700)">
<path d="M18 1.5H6C3.51472 1.5 1.5 3.51472 1.5 6V18C1.5 20.4853 3.51472 22.5 6 22.5H18C20.4853 22.5 22.5 20.4853 22.5 18V6C22.5 3.51472 20.4853 1.5 18 1.5Z" fill="black" fill-opacity="0.7"/>
<path d="M16.4531 15.5977C16.2812 15.543 16.125 15.4453 16.0156 15.332C15.8594 15.1641 14.9297 13.4766 14.9297 13.3555C14.9297 13.2891 14.9453 13.2578 14.9805 13.2734C15.0156 13.2852 15.125 13.0781 15.3203 12.625C15.6484 11.8789 15.6562 11.8711 15.9297 12.0781C16.6758 12.6484 17.3398 12.9414 18.0352 13C18.3281 13.0273 18.4063 13.0625 18.4063 13.1719C18.4063 13.2109 18.53 13.0355 18.5457 13.0433C18.5652 13.0472 18.2539 13.7656 17.9844 14.3672C17.5234 15.4062 17.4883 15.4727 17.3555 15.5352C17.1992 15.6133 16.6211 15.6523 16.4531 15.5977Z" fill="url(#paint1_linear_32_10700)"/>
<path d="M6.69161 15.5664C6.51973 15.4961 6.51582 15.4922 6.27755 14.9492C6.14472 14.6484 5.96504 14.2383 5.87519 14.043L5.63281 13.4745L5.89863 13.6875C6.08223 13.6914 6.49629 13.5937 6.9416 13.4375C7.07051 13.3945 7.26973 13.332 7.38301 13.2969C7.52364 13.2539 7.58613 13.2187 7.58613 13.1719C7.58613 13.1328 7.62521 13.0938 7.67598 13.082C7.72286 13.0703 7.92597 12.9922 8.12519 12.9023C8.32441 12.8125 8.51191 12.7422 8.54317 12.7422C8.57443 12.7422 8.60176 12.7266 8.60176 12.7031C8.60176 12.6836 8.6252 12.6641 8.65254 12.6641C8.67989 12.6641 8.82388 12.9541 8.83614 12.9805C8.99051 13.312 9.01974 13.3711 9.07441 13.2852C9.09785 13.2461 9.10957 13.2656 9.10957 13.3438C9.10957 13.4766 8.19161 15.1133 8.00021 15.3125C7.79317 15.5352 7.60957 15.6055 7.21505 15.6211C6.94942 15.6289 6.82051 15.6172 6.69161 15.5664Z" fill="url(#paint2_linear_32_10700)"/>
<path d="M16.4922 15.5938C16.4922 15.5742 16.4414 15.5547 16.375 15.5547C16.2773 15.5547 16.2578 15.5391 16.2578 15.457C16.2578 15.3711 16.2422 15.3594 16.1211 15.3594C15.9883 15.3594 15.9844 15.3555 15.9844 15.2148V15.0703L16.1328 15.2109C16.293 15.3672 16.4492 15.4531 16.6406 15.4961C16.8125 15.5312 16.8086 15.6328 16.6289 15.6328C16.5547 15.6328 16.4922 15.6172 16.4922 15.5938Z" fill="url(#paint3_radial_32_10700)"/>
<path d="M16.7158 15.5323C16.7149 15.5024 16.9779 15.5095 17.0741 15.4766C17.1538 15.4493 17.2889 15.3945 17.3709 15.3359C17.535 15.2266 17.5662 15.2344 17.5311 15.3789C17.5116 15.4492 17.4803 15.4766 17.41 15.4766C17.3514 15.4766 17.3123 15.5 17.3123 15.5313C17.3123 15.5899 17.1951 15.6328 17.0311 15.6328C16.9608 15.6328 16.717 15.5713 16.7158 15.5323Z" fill="url(#paint4_radial_32_10700)"/>
<path d="M12.1719 14.711C12.0781 14.543 12.0117 14.4649 11.9766 14.4766C11.9375 14.4922 11.9219 14.4649 11.9219 14.3945C11.9219 14.2109 12.7891 12.7149 13.3516 11.9297C13.6641 11.4922 13.7187 11.4336 13.8281 11.4219C13.9336 11.4102 13.9531 11.4258 13.9766 11.5156C13.9922 11.5742 13.9883 11.6445 13.9688 11.6719C13.625 12.1524 13.3672 12.5547 13.3672 12.6016C13.3672 12.6328 13.332 12.7266 13.293 12.8086C13.168 13.0508 12.5547 14.5703 12.5195 14.7266C12.5078 14.7735 12.4844 14.8125 12.4648 14.8125C12.4453 14.8125 12.62 15.3658 12.62 15.4088C12.62 15.5611 12.3125 14.9648 12.1719 14.711Z" fill="url(#paint5_radial_32_10700)"/>
<path d="M15.7109 14.793C15.7109 14.625 15.7656 14.6172 15.8477 14.7734C15.9258 14.9219 15.9219 14.9297 15.8086 14.9297C15.7227 14.9297 15.7109 14.9141 15.7109 14.793Z" fill="url(#paint6_radial_32_10700)"/>
<path d="M15.5156 14.4414C15.5156 14.2734 15.5699 14.271 15.6519 14.4273C15.73 14.5757 15.8562 14.7519 15.7429 14.7519C15.657 14.7519 15.5156 14.5625 15.5156 14.4414Z" fill="url(#paint7_radial_32_10700)"/>
<path d="M15.3198 14.0899C15.3198 13.9805 15.3042 13.9531 15.2456 13.9531C15.1636 13.9531 15.1245 13.8789 15.1245 13.7149C15.1245 13.6289 15.105 13.6016 15.0464 13.6016C14.9995 13.6016 14.9605 13.5664 14.9448 13.5078C14.9136 13.3789 14.9038 13.2411 14.9629 13.2589C15.0187 13.2756 15.5152 14.1602 15.5152 14.2031C15.5152 14.2148 15.4722 14.2266 15.4175 14.2266C15.3316 14.2266 15.3198 14.2109 15.3198 14.0899Z" fill="url(#paint8_radial_32_10700)"/>
<path d="M16.3359 15.5547C16.3359 15.5352 16.3008 15.5156 16.2578 15.5156C16.2148 15.5156 16.1797 15.4883 16.1797 15.457C16.1797 15.4258 16.1524 15.3984 16.1172 15.3984C16.0195 15.3984 15.9453 15.2969 15.9453 15.168C15.9453 15.0234 15.9756 15.0182 16.0586 15.1367C16.1278 15.2356 16.3633 15.4219 16.5039 15.457C16.6602 15.4961 16.6367 15.5938 16.4727 15.5938C16.3984 15.5938 16.3359 15.5781 16.3359 15.5547Z" fill="url(#paint9_radial_32_10700)"/>
<path d="M12.3657 14.9773C12.3188 14.8679 12.285 14.7383 12.3397 14.7031C12.3593 14.6875 12.3866 14.6406 12.4022 14.5977C12.4452 14.4375 13.0429 12.9609 13.1639 12.707C13.1991 12.6328 13.2304 12.543 13.2304 12.5078C13.2343 12.4766 13.328 12.3086 13.4413 12.1367C13.5546 11.9649 13.6015 11.8789 13.5468 11.9414C13.4921 12.0078 13.3163 12.2539 13.1639 12.4961C13.0077 12.7383 12.8671 12.9336 12.8515 12.9375C12.8319 12.9375 12.8202 12.875 12.8202 12.8008C12.8202 12.6836 12.8319 12.6641 12.9178 12.6641C12.9921 12.6641 13.0194 12.6367 13.0507 12.5195C13.0741 12.4375 13.0936 12.3398 13.0936 12.3047C13.0936 12.2656 13.1132 12.2344 13.1366 12.2344C13.1991 12.2344 13.285 12.1133 13.2889 12.0312C13.2889 11.9922 13.3085 11.9609 13.328 11.9609C13.3514 11.9609 13.3671 11.9375 13.3671 11.9063C13.3671 11.875 13.3944 11.8437 13.4257 11.8281C13.4569 11.8164 13.4843 11.7812 13.4843 11.75C13.4843 11.7227 13.5116 11.6875 13.5429 11.6719C13.5741 11.6602 13.6015 11.6328 13.6015 11.6133C13.6015 11.5664 13.8202 11.3359 13.8632 11.3359C13.9061 11.3359 14.1031 11.7297 14.1354 11.8051C14.1482 11.8353 14.0546 11.8047 14.0389 11.8047C14.0233 11.8047 13.9804 11.8633 13.9491 11.9336C13.9139 12 13.7264 12.375 13.5311 12.7617C13.3358 13.1484 13.1639 13.5195 13.1483 13.582C13.1132 13.7305 12.8515 14.3906 12.7108 14.6836C12.5585 15 12.4999 15.0859 12.4257 15.0859C12.3905 15.0859 12.3891 15.0242 12.3657 14.9773Z" fill="url(#paint10_radial_32_10700)"/>
<path d="M15.5547 14.5195C15.5547 14.3516 15.5937 14.3477 15.6836 14.4961C15.7695 14.6445 15.7695 14.6563 15.6523 14.6563C15.5664 14.6563 15.5547 14.6406 15.5547 14.5195Z" fill="url(#paint11_radial_32_10700)"/>
<path d="M15.3594 14.168C15.3594 14 15.403 13.9934 15.4883 14.1445C15.6511 14.433 15.611 14.3717 15.457 14.3047C15.3782 14.2704 15.3594 14.2891 15.3594 14.168Z" fill="url(#paint12_radial_32_10700)"/>
<path d="M5.83577 13.8477C5.785 13.7891 5.66781 13.5742 5.57406 13.3633L5.34668 12.8243L5.5975 12.9649C6.06625 12.9102 8.05454 11.9531 8.05454 11.7852C8.05454 11.7422 8.1975 11.576 8.21702 11.6073C8.22484 11.6151 8.37874 11.9414 8.50375 12.2266C8.64555 12.5478 8.70599 12.7309 8.74425 12.8112C8.77418 12.874 8.7252 12.8942 8.67953 12.8789C8.64047 12.8672 8.46469 12.9219 8.28499 13C8.10531 13.0781 7.89437 13.168 7.82016 13.1992L7.68344 13.2539L7.85922 13.2344C8.08969 13.211 7.99594 13.2656 7.59359 13.3867C7.42952 13.4336 7.18735 13.5117 7.05844 13.5586C6.80843 13.6445 6.12094 13.836 6.02327 13.8477C5.99204 13.8516 5.95688 13.875 5.94516 13.9024C5.93344 13.9336 5.89437 13.9102 5.83577 13.8477Z" fill="url(#paint13_linear_32_10700)"/>
<path d="M5.55514 13.1641C5.55514 13.125 5.5317 13.0938 5.50436 13.0938C5.45749 13.0938 5.37038 12.9005 5.18678 12.4708C5.17898 12.4552 5.35202 12.4609 5.53562 12.3945C6.18015 12.1602 6.74655 11.8516 7.29343 11.4375C7.62546 11.1797 7.70359 11.1094 7.70359 11.0469C7.70359 11.0117 7.73093 10.9844 7.76218 10.9844C7.79342 10.9844 7.82078 10.9687 7.82078 10.9453C7.82078 10.9258 7.84422 10.9062 7.87155 10.9062C7.92233 10.9062 8.26609 11.6602 8.30515 11.8633C8.32858 11.9688 8.32468 11.9727 8.27781 11.9141C8.2114 11.832 8.17234 11.8242 8.17234 11.8984C8.17234 12.0469 6.6528 12.8086 5.82859 13.0703C5.7114 13.1094 5.60201 13.1601 5.5864 13.1875C5.56686 13.2148 5.55514 13.207 5.55514 13.1641Z" fill="url(#paint14_linear_32_10700)"/>
<path d="M7.54688 15.4844C7.54688 15.4687 7.59765 15.4258 7.66016 15.3867C7.71876 15.3516 7.83594 15.2578 7.91406 15.1758L8.05468 15.0312V15.1602C8.05468 15.2969 7.98047 15.3984 7.88282 15.3984C7.84766 15.3984 7.82031 15.4258 7.82031 15.457C7.82031 15.4961 7.77735 15.5156 7.6836 15.5156C7.60937 15.5156 7.54688 15.5 7.54688 15.4844Z" fill="url(#paint15_linear_32_10700)"/>
<path d="M5.09765 12.2969L4.94141 11.9414L5.04687 11.918C5.39062 11.8437 6.14454 11.4492 6.57421 11.1172C6.85938 10.8984 7.39062 10.3633 7.39062 10.2969C7.39062 10.2656 7.41016 10.2422 7.42968 10.2422C7.45312 10.2422 7.46876 10.2148 7.46876 10.1836C7.46876 10.1523 7.49227 10.127 7.51953 10.125C7.53417 10.1239 7.56089 10.1388 7.60372 10.2197C7.68211 10.3678 7.81081 10.6684 7.95056 11.0117C7.95644 11.0262 8.02827 11.1837 8.04781 11.2344C8.06735 11.2852 8 11.2188 7.97656 11.2188C7.95312 11.2188 7.93751 11.1914 7.93751 11.1602C7.93751 11.1289 7.91015 11.1016 7.87891 11.1016C7.84766 11.1016 7.82032 11.1289 7.82032 11.1641C7.82032 11.2266 7.74219 11.2969 7.41016 11.5547C6.90626 11.9375 6.26172 12.2969 5.77344 12.4687C5.66407 12.5078 5.52344 12.5625 5.45703 12.5859C5.39454 12.6133 5.32031 12.6406 5.29687 12.6445C5.27343 12.6523 5.1836 12.4961 5.09765 12.2969Z" fill="url(#paint16_linear_32_10700)"/>
<path d="M14.7969 18.3633C14.3789 18.2656 14.0078 17.9727 13.7539 17.5391C13.5351 17.1641 13.5312 17.1563 13.6719 17.1563C13.7344 17.1563 13.9101 17.0977 14.0547 17.0313C14.3594 16.8906 14.7461 16.8438 14.9805 16.918C15.1406 16.9727 15.539 17.3281 15.7891 17.6367L15.9648 17.8594L16.1797 17.8359L16.7914 16.9958C16.8567 16.9218 16.6239 17.4615 16.2656 17.9492C15.9297 18.2969 15.293 18.4805 14.7969 18.3633Z" fill="url(#paint17_radial_32_10700)"/>
<path d="M16.4531 15.5547C16.4531 15.4726 16.4922 15.4609 16.6406 15.5C16.7812 15.5391 16.7461 15.6328 16.5899 15.6328C16.4805 15.6328 16.4531 15.6172 16.4531 15.5547Z" fill="url(#paint18_radial_32_10700)"/>
<path d="M12.4454 15.2109C12.3283 14.9922 12.3283 14.9883 12.3986 14.9141C12.504 14.8008 12.9611 13.7656 13.0314 13.4766C13.0743 13.293 13.8556 11.7305 13.9298 11.6797C13.9611 11.6563 13.9611 11.6484 13.9298 11.6484C13.9064 11.6484 13.8869 11.6211 13.8869 11.5899C13.8869 11.4727 13.9806 11.5352 14.1017 11.7383C14.2189 11.9297 14.2384 12.0781 14.1486 12.0781C14.0939 12.0781 13.297 13.7266 13.2697 13.8945C13.2267 14.1563 13.1681 14.3047 12.9103 14.832C12.7775 15.1094 13.6934 17.4321 13.7071 17.4558C13.7666 17.5587 12.5587 15.418 12.4454 15.2109Z" fill="url(#paint19_radial_32_10700)"/>
<path d="M16.0625 15.3164V15.1992L16.1797 15.2812C16.3516 15.4023 16.3555 15.4375 16.2031 15.4375C16.0742 15.4375 16.0625 15.4297 16.0625 15.3164Z" fill="url(#paint20_radial_32_10700)"/>
<path d="M17.3604 15.3478C17.3604 15.3361 17.4527 15.3008 17.527 15.2227L17.6659 15.0751L17.5973 15.2383C17.5543 15.3437 17.5113 15.3984 17.4606 15.3984C17.4215 15.3984 17.3604 15.3556 17.3604 15.3478Z" fill="url(#paint21_radial_32_10700)"/>
<path d="M15.75 14.8711C15.75 14.6992 15.7852 14.6992 15.8984 14.8711L15.9817 15.0234L15.8672 15.0078C15.7578 15.0078 15.75 14.9961 15.75 14.8711Z" fill="url(#paint22_radial_32_10700)"/>
<path d="M15.2031 13.8945C15.2031 13.7227 15.2383 13.7227 15.3516 13.8945L15.4389 14.0452L15.3203 14.0313C15.2109 14.0313 15.2031 14.0195 15.2031 13.8945Z" fill="url(#paint23_radial_32_10700)"/>
<path d="M15.0078 13.543C15.0078 13.3711 15.043 13.3711 15.1563 13.543L15.2578 13.7231L15.125 13.6797C15.0156 13.6797 15.0078 13.668 15.0078 13.543Z" fill="url(#paint24_radial_32_10700)"/>
<path d="M8.30835 11.9766C8.27319 11.9219 8.25367 11.8672 8.26147 11.8555C8.27319 11.8437 8.31226 11.8906 8.34742 11.957C8.42163 12.1055 8.4021 12.1172 8.30835 11.9766Z" fill="url(#paint25_linear_32_10700)"/>
<path d="M7.53515 17.7148C7.51953 17.7031 7.50781 17.6406 7.50781 17.5781C7.50781 17.4805 7.51953 17.4688 7.64454 17.4688C7.77344 17.4688 7.78124 17.4766 7.78124 17.6055C7.78124 17.7305 7.76952 17.7422 7.67188 17.7422C7.60938 17.7422 7.54687 17.7305 7.53515 17.7148Z" fill="#00B0E7"/>
<path d="M5.02337 12.082C5.03899 12.0625 5.0236 12.0564 5.00348 12.0502C4.96605 12.0389 4.68044 11.4019 4.71711 11.3823C4.72883 11.3706 5.16008 11.2031 5.45697 11.0898C5.52336 11.0625 5.58196 11.0312 5.59367 11.0195C5.60539 11.0039 5.7265 10.9102 5.86712 10.8047C6.35149 10.4492 6.87884 9.8828 6.93743 9.65624C6.99212 9.43359 7.02336 9.42967 7.21086 9.61327C7.39836 9.80077 7.58196 10.1055 7.61322 10.2852C7.62494 10.375 7.61712 10.3945 7.57024 10.375C7.53119 10.3594 7.50775 10.3711 7.50775 10.4101C7.50775 10.4805 6.98431 11.0078 6.69134 11.2344C6.37883 11.4766 5.93744 11.7305 5.56634 11.8867C5.36712 11.9687 5.24211 12.043 5.24211 12.0781C5.24211 12.1289 5.23821 12.1289 5.20305 12.0781C5.17962 12.043 5.15228 12.0352 5.13664 12.0586C5.09759 12.1094 4.99602 12.1328 5.02337 12.082Z" fill="url(#paint26_linear_32_10700)"/>
<path d="M8.47266 18.3672C8.28124 18.3164 7.9375 18.1406 7.9375 18.0937C7.9375 18.0703 7.99999 18.0547 8.07422 18.0547C8.14844 18.0547 8.21093 18.0664 8.21093 18.0859C8.21093 18.1016 8.38281 18.1094 8.58985 18.1055C8.85938 18.0977 9.00001 18.1094 9.08204 18.1523C9.14843 18.1836 9.22266 18.2109 9.2539 18.2109C9.32813 18.2109 9.31641 18.3164 9.23828 18.3477C9.12109 18.3906 8.62891 18.4062 8.47266 18.3672Z" fill="url(#paint27_linear_32_10700)"/>
<path d="M16.0625 18.0352C16.0625 17.9922 16.0352 17.9805 15.9727 17.9961C15.8984 18.0156 15.8477 17.9766 15.6758 17.7656C15.4102 17.4375 15.0625 17.1211 14.8906 17.0469C14.8125 17.0156 14.6875 17 14.5938 17.0117C14.4062 17.0313 13.9688 17.2226 13.8594 17.3359C13.7734 17.418 13.6875 17.4414 13.6953 17.375C13.6953 17.3516 13.6836 17.3281 13.6641 17.3242C13.6328 17.3164 13.5195 17.1289 13.1602 16.4844L13.0117 16.2188H13.1328C13.2109 16.2188 13.25 16.2383 13.25 16.2774C13.25 16.3398 13.3125 16.3594 13.3359 16.3047C13.3437 16.2891 13.4961 16.1523 13.6797 16.0078C13.9961 15.7461 14.0078 15.7344 13.9961 15.5898C13.9883 15.4414 13.9883 15.4375 14.1172 15.4375C14.2383 15.4375 14.2617 15.4648 14.4609 15.7734C14.5781 15.9609 14.793 16.2188 14.9336 16.3555C15.2578 16.6602 15.4727 16.7422 15.8242 16.7031C15.9922 16.6836 16.0625 16.6914 16.0625 16.7227C16.0625 16.7461 16.082 16.7656 16.1094 16.7656C16.1328 16.7656 16.2383 16.8359 16.3398 16.9219C16.4453 17.0078 16.5664 17.0781 16.6211 17.0781C16.6719 17.0781 16.7489 17.0872 16.7606 17.099C16.6971 17.2187 16.4493 17.7336 16.2579 17.9329C16.047 18.1594 16.0625 18.1289 16.0625 18.0352Z" fill="url(#paint28_radial_32_10700)"/>
<path d="M12.6641 15.5898C12.5235 15.3477 12.4962 15.2109 12.5704 15.1445C12.6641 15.0586 13.0977 14.0742 13.1368 13.8594C13.1602 13.7344 13.254 13.4766 13.3477 13.2891C13.4376 13.0977 13.504 12.9336 13.4923 12.9219C13.4806 12.9102 13.4923 12.8985 13.5157 12.8985C13.543 12.8985 13.5587 12.8867 13.5548 12.8711C13.5392 12.8281 13.9752 11.9214 14.0612 11.8276C14.1315 11.7534 14.1446 11.8359 14.2618 12.0234C14.379 12.2109 14.379 12.2148 14.3087 12.332C14.1407 12.6094 13.8712 13.1016 13.6798 13.4844C13.5079 13.8242 13.4727 13.9258 13.4806 14.082C13.4884 14.2891 13.4024 14.5742 13.1993 15.0156C13.1251 15.1797 13.0509 15.3672 13.0352 15.4297C13.0235 15.4961 12.9845 15.5703 12.9532 15.5977C12.922 15.6211 12.8985 15.6836 12.8985 15.7344C12.8985 15.8945 12.8009 15.8359 12.6641 15.5898Z" fill="url(#paint29_radial_32_10700)"/>
<path d="M16.9645 15.5742C16.9723 15.5351 17.0231 15.4961 17.0739 15.4883C17.1286 15.4805 17.191 15.457 17.2145 15.4375C17.2418 15.4179 17.2731 15.4101 17.2848 15.4258C17.3004 15.4375 17.3121 15.4297 17.3121 15.4062C17.3121 15.3789 17.3317 15.3594 17.3551 15.3594C17.3824 15.3594 17.4189 15.322 17.4528 15.293C17.5232 15.2326 17.5036 15.2344 17.5075 15.3516C17.5103 15.4375 17.484 15.4883 17.441 15.5039C17.402 15.5195 17.359 15.5469 17.3473 15.5664C17.3317 15.5859 17.2379 15.6133 17.1364 15.625C16.9762 15.6406 16.9528 15.6367 16.9645 15.5742Z" fill="url(#paint30_radial_32_10700)"/>
<path d="M15.9059 15.2383C15.9059 15.2148 15.8785 15.1719 15.8473 15.1406C15.7887 15.0781 15.7653 14.8125 15.82 14.8125C15.8434 14.8125 15.9137 14.9101 16.0778 15.1758L16.1403 15.2812H16.0231C15.9606 15.2812 15.9059 15.2617 15.9059 15.2383Z" fill="url(#paint31_radial_32_10700)"/>
<path d="M15.5938 14.5977C15.5938 14.4258 15.6289 14.4258 15.7422 14.5977L15.8376 14.7584L15.7109 14.7344C15.6016 14.7344 15.5938 14.7227 15.5938 14.5977Z" fill="url(#paint32_radial_32_10700)"/>
<path d="M15.3984 14.2461C15.3984 14.1367 15.3828 14.1094 15.3203 14.1094C15.2578 14.1094 15.2422 14.082 15.2422 13.9727C15.2422 13.8984 15.2539 13.8359 15.2656 13.8359C15.3008 13.8359 15.4336 14.0078 15.4375 14.0508C15.4375 14.0742 15.4805 14.1562 15.5352 14.2383L15.6472 14.4185L15.5156 14.3828C15.4063 14.3828 15.3984 14.3711 15.3984 14.2461Z" fill="url(#paint33_radial_32_10700)"/>
<path d="M15.0469 13.6211C15.0469 13.4609 15.0664 13.4531 15.168 13.5742C15.2656 13.6953 15.2617 13.7578 15.1445 13.7578C15.0586 13.7578 15.0469 13.7422 15.0469 13.6211Z" fill="url(#paint34_radial_32_10700)"/>
<path d="M15.8516 15.1406C15.8398 15.1055 15.8281 15.0273 15.8281 14.9649C15.8281 14.8789 15.8086 14.8516 15.75 14.8516C15.6875 14.8516 15.6719 14.8242 15.6719 14.7109C15.6719 14.586 15.6797 14.5742 15.7344 14.6211C15.7695 14.6485 15.8242 14.7383 15.8555 14.8203C15.8867 14.9024 15.8803 14.9745 15.9038 14.9745C15.9233 14.9745 15.9766 14.9883 15.9648 15.0078C15.9531 15.0313 15.957 15.0469 15.9766 15.0469C15.9961 15.0469 16.0234 15.082 16.0352 15.125C16.0508 15.1875 16.0352 15.2031 15.9648 15.2031C15.9141 15.2031 15.8633 15.1758 15.8516 15.1406Z" fill="url(#paint35_radial_32_10700)"/>
<path d="M15.4766 14.3555C15.4766 14.2188 15.4805 14.2149 15.5508 14.2813C15.5899 14.3203 15.6234 14.3854 15.6445 14.4258C15.6727 14.4795 15.6445 14.5 15.5703 14.5C15.4883 14.5 15.4766 14.4805 15.4766 14.3555Z" fill="url(#paint36_radial_32_10700)"/>
<path d="M15.2812 14.0039C15.2812 13.8633 15.2812 13.8633 15.3516 13.9375C15.3906 13.9766 15.4336 14.043 15.4492 14.082C15.4687 14.1328 15.4531 14.1484 15.3789 14.1484C15.293 14.1484 15.2812 14.1328 15.2812 14.0039Z" fill="url(#paint37_radial_32_10700)"/>
<path d="M15.0859 13.6523C15.0859 13.5117 15.0859 13.5117 15.1562 13.5859C15.1953 13.625 15.2383 13.6914 15.2539 13.7305C15.2734 13.7813 15.2578 13.7969 15.1836 13.7969C15.0977 13.7969 15.0859 13.7813 15.0859 13.6523Z" fill="url(#paint38_radial_32_10700)"/>
<path d="M14.8908 13.3281C14.8908 13.2227 14.8279 13.0585 14.9611 13.2488C14.9833 13.2804 15.0234 13.3481 15.0523 13.3826C15.0679 13.4373 15.0549 13.4453 14.9846 13.4453C14.9065 13.4453 14.8908 13.4258 14.8908 13.3281Z" fill="url(#paint39_radial_32_10700)"/>
<path d="M18.2732 13.3867C18.2615 13.3555 18.2615 13.3047 18.2732 13.2773C18.3044 13.1875 18.2068 13.1445 17.9177 13.1172C17.2224 13.0586 16.5584 12.7656 15.8123 12.1953L15.656 12.0742L15.5232 12.2813C15.4529 12.3945 15.3982 12.4688 15.406 12.4453C15.4138 12.4219 15.6091 11.9687 15.8474 11.4375C16.1873 10.668 16.2888 10.4766 16.3474 10.4766C16.3904 10.4766 16.5271 10.5898 16.656 10.7305C16.9724 11.0703 17.3943 11.3477 17.7927 11.4766C18.0857 11.5742 18.1638 11.582 18.6677 11.5781L19.2225 11.5703L19.1522 11.7383C18.7811 12.5938 18.4334 13.3477 18.3865 13.3906C18.3201 13.4609 18.3005 13.4609 18.2732 13.3867Z" fill="url(#paint40_linear_32_10700)"/>
<path d="M5.2532 11.6246C5.23366 11.5972 4.83988 11.6203 4.82426 11.632C4.80208 11.6363 4.76765 11.5834 4.71839 11.427C4.69141 11.3413 4.54899 10.9816 4.59352 10.9698C4.61992 10.9627 4.60351 11.0176 4.59433 10.9896C4.57715 10.937 4.60938 11.0233 4.60558 10.9749C4.58671 10.7356 4.72657 10.2882 4.74907 10.2672C4.84597 10.1764 5.12495 10.5547 5.12495 10.4961C5.12495 10.4688 5.2109 10.3906 5.31245 10.3242C5.52339 10.1914 5.75386 9.97656 5.9609 9.72267C6.06245 9.60156 6.10543 9.50391 6.12496 9.35157L6.10477 9.17824C6.17296 9.12552 6.53444 9.19242 6.51031 9.2122C6.37979 9.15113 6.69382 9.26719 6.8984 9.37501C6.9641 9.40966 7.06124 9.47496 7.09874 9.50973C7.18034 9.58544 7.14868 9.62864 7.0898 9.68751C7.06246 9.71485 7.04683 9.75783 7.06246 9.77735C7.0937 9.82814 6.74606 10.2539 6.46481 10.5156C5.98824 10.9531 5.85933 11.0664 5.89059 11.0156C5.92183 10.9609 5.80856 11.0352 5.73043 11.1211C5.71089 11.1406 5.64449 11.1797 5.5898 11.1992C5.01558 11.4219 5.42887 11.5941 5.42105 11.6448C5.40933 11.6917 5.27664 11.6636 5.2532 11.6246Z" fill="url(#paint41_linear_32_10700)"/>
<path d="M9.12852 18.3359C9.08555 18.3281 9.03085 18.3047 9.00742 18.2851C8.94492 18.2344 8.48399 18.207 8.34727 18.2461C8.14023 18.3047 7.73789 18.0273 7.50352 17.668L7.41211 17.4582L7.55821 17.3984C7.64804 17.3438 7.8043 17.2305 7.90195 17.1484C8.00352 17.0664 8.10507 17 8.12851 17C8.15195 17 8.17148 16.9727 8.17148 16.9414C8.17148 16.8984 8.21446 16.8828 8.33945 16.8828C8.7418 16.8828 9.21445 16.5039 9.61679 15.8594C9.81211 15.5469 9.84337 15.5156 9.95663 15.5156C10.023 15.5156 10.0855 15.5391 10.0973 15.5664C10.1246 15.6367 10.0895 16.5781 10.0387 17.0273C9.99179 17.457 10.0152 17.5469 10.1715 17.5469C10.2379 17.5469 10.234 17.5625 10.1285 17.7149C9.87852 18.082 9.38242 18.3906 9.12852 18.3359Z" fill="url(#paint42_linear_32_10700)"/>
<path d="M16.6094 17.2539C16.6094 17.207 16.5938 17.1992 16.543 17.2305C16.4922 17.2578 16.4297 17.2266 16.2617 17.0742C16.1445 16.9687 16.0234 16.8828 15.9961 16.8828C15.9687 16.8828 15.9453 16.8711 15.9453 16.8555C15.9453 16.8359 15.8398 16.832 15.7109 16.8359C15.418 16.8555 15.1445 16.7656 14.9453 16.5898L14.793 16.457L14.9336 16.4531C15.0117 16.4531 15.082 16.4648 15.0977 16.4766C15.1289 16.5117 15.6211 16.5078 15.8242 16.4727C15.918 16.457 16.1172 16.4023 16.2656 16.3477C16.418 16.2969 16.6797 16.2422 16.8516 16.2305L17.1861 16.1359L17.1055 16.3398C16.7695 17.1289 16.6094 17.4219 16.6094 17.2539Z" fill="url(#paint43_radial_32_10700)"/>
<path d="M13.2107 16.5313C13.1795 16.5117 13.1677 16.4922 13.1873 16.4922C13.2107 16.4922 13.1912 16.4648 13.1482 16.4336C13.1092 16.4023 13.0935 16.375 13.1131 16.375C13.1365 16.375 13.1365 16.3633 13.1092 16.3438C13.0349 16.293 12.7771 15.793 12.7615 15.668C12.7498 15.5742 12.7654 15.5273 12.8162 15.4883C12.8592 15.4609 12.9021 15.3828 12.9178 15.3164C12.9334 15.25 13.0076 15.0625 13.0818 14.8984C13.2889 14.4453 13.3592 14.207 13.3396 14.0195C13.324 13.8828 13.3513 13.793 13.5037 13.4844C13.7849 12.9062 14.2001 12.0268 14.2469 12.0268C14.2704 12.0268 14.3748 12.2148 14.4373 12.332C14.5428 12.5234 14.624 12.614 14.5693 12.6765C14.5186 12.739 13.9998 13.4766 13.8826 13.7188C13.7576 13.9883 13.6756 14.2539 13.6951 14.3437C13.7029 14.4023 13.8318 14.6563 13.9763 14.9141C14.1209 15.168 14.2771 15.4492 14.3201 15.5312C14.367 15.6172 14.4295 15.7187 14.4646 15.7578C14.4998 15.7969 14.5506 15.8789 14.5818 15.9375C14.6131 15.9961 14.6599 16.0586 14.6834 16.0742C14.7107 16.0898 14.7342 16.168 14.7342 16.2461C14.7342 16.3867 14.7342 16.3867 14.6521 16.3125C14.6053 16.2734 14.4802 16.0977 14.367 15.9297C14.1756 15.6328 14.1678 15.625 14.1482 15.7383C14.1326 15.8281 14.0506 15.918 13.7967 16.1211C13.6131 16.2695 13.4256 16.4297 13.3787 16.4805C13.281 16.582 13.2889 16.582 13.2107 16.5313Z" fill="url(#paint44_radial_32_10700)"/>
<path d="M16.543 15.6445C16.4375 15.6289 16.4141 15.6094 16.4141 15.5352C16.4141 15.4492 16.4258 15.4414 16.5156 15.4766C16.5703 15.5 16.7188 15.5156 16.8438 15.5156C16.9687 15.5156 17.1172 15.5 17.1719 15.4766C17.2617 15.4453 17.2734 15.4492 17.2734 15.5312C17.2734 15.6094 17.25 15.625 17.0938 15.6484C16.9062 15.6719 16.7656 15.6719 16.543 15.6445Z" fill="url(#paint45_radial_32_10700)"/>
<path d="M16.1016 15.3594C16.1016 15.2539 16.0898 15.2422 15.9844 15.2422C15.875 15.2422 15.8672 15.2305 15.8672 15.1055C15.8672 14.9336 15.9023 14.9336 16.0156 15.1055C16.0625 15.1797 16.1641 15.2813 16.2383 15.3281C16.4102 15.4414 16.4102 15.4766 16.2383 15.4766C16.1133 15.4766 16.1016 15.4688 16.1016 15.3594Z" fill="url(#paint46_radial_32_10700)"/>
<path d="M7.97656 15.1406C7.97656 15.0937 8.10937 14.8906 8.14062 14.8906C8.15624 14.8906 8.17188 14.9531 8.17188 15.0273C8.17188 15.1484 8.16016 15.1641 8.07421 15.1641C8.01954 15.1641 7.97656 15.1523 7.97656 15.1406Z" fill="#00B2F7"/>
<path d="M15.6562 14.8281C15.6445 14.793 15.6328 14.7148 15.6328 14.6523C15.6328 14.5664 15.6133 14.5391 15.5586 14.5391C15.4766 14.5391 15.4375 14.4648 15.4375 14.3008C15.4375 14.2149 15.418 14.1875 15.3594 14.1875C15.2969 14.1875 15.2812 14.1602 15.2812 14.0508C15.2812 13.9766 15.2969 13.9141 15.3125 13.9141C15.3437 13.9141 15.8672 14.8164 15.8672 14.8672C15.8672 14.9219 15.6797 14.8867 15.6562 14.8281Z" fill="url(#paint47_radial_32_10700)"/>
<path d="M15.0859 13.6992C15.0859 13.5313 15.125 13.5274 15.2148 13.6758C15.3008 13.8242 15.3008 13.8359 15.1836 13.8359C15.0977 13.8359 15.0859 13.8203 15.0859 13.6992Z" fill="url(#paint48_radial_32_10700)"/>
<path d="M14.8906 13.3398L14.8945 13.1914L14.9883 13.3008C15.1133 13.4414 15.1094 13.4844 14.9883 13.4844C14.9023 13.4844 14.8906 13.4688 14.8906 13.3398Z" fill="url(#paint49_radial_32_10700)"/>
<path d="M7.57828 10.3906C7.49233 10.3047 7.49233 10.2812 7.56265 10.2812C7.59 10.2812 7.62516 10.3203 7.63688 10.3672C7.66811 10.4766 7.66031 10.4805 7.57828 10.3906Z" fill="url(#paint50_linear_32_10700)"/>
<path d="M7.98437 15.1055C8.09766 14.9336 8.13281 14.9336 8.13281 15.1055C8.13281 15.2305 8.12499 15.2422 8.01562 15.2422H7.89844L7.98437 15.1055Z" fill="#00C8E6"/>
<path d="M8.79688 13.7383C8.79688 13.6836 8.92188 13.4844 8.95312 13.4844C8.97656 13.4844 8.99219 13.5469 8.99219 13.6211C8.99219 13.7422 8.98048 13.7578 8.89453 13.7578C8.83985 13.7578 8.79688 13.75 8.79688 13.7383Z" fill="#00C8E6"/>
<path d="M4.58517 11.0029C4.50623 10.3309 4.86169 9.64123 5.40576 9.33986C5.65866 9.19978 6.26798 9.10934 6.29159 9.18395C6.30331 9.21131 6.31116 9.29259 6.3424 9.28087C6.44007 9.24181 6.41747 9.26565 6.32372 9.39063C6.26905 9.46095 6.23389 9.53908 6.24561 9.56251C6.28077 9.66016 5.77686 10.207 5.45654 10.4219C5.35107 10.4961 5.26124 10.5742 5.26124 10.6016C5.26124 10.6602 5.23077 11.0137 5.19951 10.9668C5.18389 10.9433 5.23431 11.0107 5.19916 11.042C5.15228 11.0771 4.59796 11.1115 4.58517 11.0029Z" fill="url(#paint51_linear_32_10700)"/>
<path d="M9.92599 17.5977C9.89084 17.5352 9.88692 17.418 9.91035 17.168C9.92989 16.9805 9.94551 16.6016 9.94943 16.3281C9.95333 16.0547 9.96505 15.8164 9.98067 15.8047C10.0236 15.7578 10.0119 15.7109 9.95723 15.7109C9.92989 15.7109 9.80489 15.8672 9.6838 16.0547C9.3088 16.6445 8.84395 17 8.45723 17C8.32442 17 8.29709 17.0117 8.31271 17.0586C8.32832 17.0977 8.3127 17.1172 8.26973 17.1172C8.23457 17.1172 8.12131 17.1836 8.01974 17.2656C7.92209 17.3476 7.78536 17.4492 7.71505 17.4883C7.64864 17.5273 7.60176 17.582 7.61348 17.6094C7.62912 17.6484 7.61348 17.6523 7.53537 17.6133C7.46505 17.582 7.38692 17.4531 7.2424 17.1328L6.75293 15.9531C7.45911 16.0677 8.37059 16.0047 8.37059 16.0047C8.67919 15.9539 8.4411 15.7512 8.73017 15.8489C9.0583 15.9622 8.64293 16.2296 8.92418 16.0421C9.01013 15.9835 9.12209 16.0022 9.16114 15.9788C9.20412 15.9592 9.26642 16.0657 9.26642 16.0423C9.26642 16.0189 9.40879 16.1401 9.44395 16.1127C9.55334 16.0229 9.59787 15.8633 10.2268 14.7891C10.5627 14.2109 10.9963 13.4805 11.1916 13.1602C11.5354 12.6094 11.5549 12.5859 11.676 12.5859C11.7971 12.5859 11.8049 12.5938 11.8049 12.7148C11.8049 12.7813 11.758 12.9102 11.7072 12.9961C11.6525 13.082 11.6096 13.1914 11.6096 13.2383C11.6096 13.2812 11.5666 13.4141 11.5119 13.5313C11.4572 13.6445 11.4143 13.7734 11.4143 13.8164C11.4143 13.8594 11.3869 13.9492 11.3518 14.0117C11.2385 14.2227 10.9807 14.9805 10.8166 15.5742C10.6916 16.0312 10.6565 16.2344 10.6526 16.4922L10.6486 16.8242L10.4025 17.2578C10.1994 17.6133 10.1408 17.6875 10.0666 17.6875C10.0119 17.6875 9.95333 17.6523 9.92599 17.5977Z" fill="url(#paint52_linear_32_10700)"/>
<path d="M14.9178 16.5547C14.6952 16.3867 14.4217 16.0156 14.0623 15.3906C13.66 14.6836 13.5545 14.4766 13.5389 14.3398C13.5272 14.2383 13.6444 13.8594 13.7655 13.6016C13.9217 13.2812 14.3553 12.5078 14.4061 12.4648C14.4764 12.4062 14.4881 12.4219 14.6522 12.707C14.7381 12.8672 14.8239 12.9818 14.7888 12.9974C14.738 13.013 14.3045 13.6758 14.3045 13.75C14.3045 13.7695 14.242 13.918 14.1678 14.0742C14.0936 14.2344 14.0155 14.4687 13.9959 14.5976C13.9608 14.8125 13.9647 14.8477 14.0623 15.0469C14.1209 15.1641 14.1912 15.2813 14.2186 15.3125C14.242 15.3398 14.2655 15.3906 14.2655 15.418C14.2655 15.4688 14.4842 15.5547 14.6092 15.5547C14.6327 15.5547 14.6561 15.5703 14.6561 15.5898C14.6561 15.6055 14.8084 15.5898 14.9998 15.5508C15.1873 15.5117 15.5116 15.4648 15.7264 15.4531C16.0428 15.4297 16.117 15.4141 16.1287 15.3594C16.1444 15.3008 16.1553 15.3425 16.3631 15.4102C16.7248 15.5279 17.2085 15.5489 17.5233 15.2852C17.6332 15.1931 17.6323 15.1747 17.3123 15.8789C17.0976 16.3516 16.9998 16.5078 16.9998 16.3711C16.9998 16.3164 16.6912 16.3633 16.3553 16.4766C15.9569 16.6055 15.6483 16.6601 15.4491 16.6289C15.3436 16.6133 15.2811 16.6172 15.2967 16.6406C15.3084 16.6601 15.2655 16.6758 15.203 16.6797C15.1287 16.6797 15.0233 16.6367 14.9178 16.5547Z" fill="url(#paint53_radial_32_10700)"/>
<path d="M15.7777 15.0664C15.7425 14.9883 15.7113 14.875 15.7113 14.8125C15.7113 14.7226 15.6917 14.6953 15.6371 14.6953C15.555 14.6953 15.5159 14.6211 15.5159 14.457C15.5159 14.3711 15.4964 14.3438 15.4417 14.3438C15.3597 14.3438 15.3206 14.2695 15.3206 14.1055C15.3206 14.0195 15.3011 13.9922 15.2464 13.9922C15.1644 13.9922 15.1253 13.918 15.1253 13.7539C15.1253 13.668 15.1058 13.6406 15.0511 13.6406C15.012 13.6406 14.9652 13.6133 14.9534 13.5781C14.9183 13.4883 14.9261 13.2891 14.9613 13.2891C14.9808 13.2891 15.2308 13.7188 15.5238 14.2461C16.0472 15.1836 16.055 15.2031 15.9495 15.2031C15.8675 15.2031 15.8285 15.1719 15.7777 15.0664Z" fill="url(#paint54_radial_32_10700)"/>
<path d="M8.84377 13.6523C8.98049 13.3633 9.03127 13.3359 9.03127 13.543C9.03127 13.6641 9.01955 13.6797 8.92972 13.6797C8.87502 13.6797 8.83597 13.668 8.84377 13.6523Z" fill="#00BFF9"/>
<path d="M14.1955 15.5859C14.09 15.4063 13.9416 15.1523 13.8713 15.0195C13.7424 14.7852 13.7424 14.7773 13.8127 14.7031C13.8517 14.6563 13.8713 14.6055 13.8595 14.5859C13.8322 14.5391 13.9611 14.1289 14.0822 13.8867C14.1408 13.7734 14.1877 13.6641 14.1877 13.6406C14.1877 13.5625 14.5978 12.7461 14.6369 12.7461C14.6603 12.7422 14.7228 12.8281 14.7775 12.9297C15.9064 14.9961 16.0939 15.293 16.3752 15.4375C16.4494 15.4805 16.4963 15.5117 16.4728 15.5156C16.4533 15.5156 16.4611 15.5352 16.4924 15.5586C16.5353 15.5899 16.5236 15.5938 16.4338 15.5703C16.1799 15.5078 15.465 15.582 14.8322 15.7305C14.6213 15.7813 14.5939 15.7774 14.551 15.7227C14.5236 15.6875 14.4884 15.668 14.4767 15.6836C14.4611 15.6992 14.4221 15.6875 14.3908 15.6602C14.34 15.6211 14.3361 15.625 14.3635 15.6719C14.3986 15.7305 14.4299 15.9063 14.4025 15.9063C14.3947 15.9063 14.3009 15.7617 14.1955 15.5859Z" fill="url(#paint55_radial_32_10700)"/>
<path d="M6.83593 15.6445C6.75 15.6328 6.72656 15.6055 6.72656 15.5352C6.72656 15.4492 6.73438 15.4453 6.84375 15.4844C6.91016 15.5039 7.08594 15.5156 7.23047 15.5078C7.44923 15.4961 7.53516 15.4688 7.69922 15.3711L7.89844 15.2461V15.3594C7.89844 15.4375 7.8789 15.4766 7.83984 15.4766C7.80859 15.4766 7.78125 15.4922 7.78125 15.5156C7.78125 15.6172 7.19531 15.6992 6.83593 15.6445Z" fill="url(#paint56_linear_32_10700)"/>
<path d="M16.6051 15.5977C16.6325 15.5781 16.6403 15.5547 16.6246 15.5469C16.6051 15.5352 16.6129 15.5352 16.6403 15.543C16.6715 15.5469 16.7184 15.5547 16.7496 15.5547C16.7809 15.5547 16.8043 15.5742 16.8043 15.5938C16.8043 15.6172 16.7457 15.6328 16.6793 15.6328C16.5895 15.6328 16.566 15.6211 16.6051 15.5977Z" fill="url(#paint57_radial_32_10700)"/>
<path d="M19.0505 11.8086C19.0935 11.7344 18.9607 11.7109 18.4842 11.7031C18.0701 11.6992 17.949 11.6836 17.6756 11.5937C17.2732 11.4648 16.8553 11.1875 16.5389 10.8476L16.3045 10.5937L16.2225 10.6992L16.1084 10.8853L16.1756 10.707C16.3045 10.3476 16.5818 9.83202 16.7459 9.66014C17.0936 9.28906 17.6404 9.10156 18.1248 9.18749C18.9802 9.33593 19.578 10.1523 19.4255 10.9726C19.3747 11.2461 19.199 11.6875 19.1403 11.6875C19.1169 11.6875 19.1092 11.7109 19.1208 11.7422C19.1327 11.7734 19.1169 11.8086 19.0858 11.8203C19.0545 11.832 19.0389 11.8281 19.0505 11.8086Z" fill="url(#paint58_linear_32_10700)"/>
<path d="M8.95279 16.293C8.85514 16.2773 8.48794 16.25 8.13248 16.2383C7.77702 16.2266 7.37466 16.1953 7.23404 16.168C7.09341 16.1445 6.96061 16.1289 6.93327 16.1328C6.90591 16.1406 6.86686 16.1055 6.84342 16.0586C6.81608 16.0156 6.89935 16.2462 6.88283 16.2451C6.8551 16.2432 6.44209 15.3071 6.41995 15.2675C6.41804 15.2641 6.51139 15.3047 6.62858 15.3789C6.90591 15.543 7.15983 15.582 7.44108 15.5C7.79654 15.3984 7.94498 15.2188 8.51138 14.2266C9.0856 13.2109 9.14811 13.125 9.14811 13.3438C9.14811 13.4883 9.10904 13.5625 9.02701 13.5625C8.96841 13.5625 8.95279 13.5899 8.95279 13.6992C8.95279 13.793 8.93326 13.8359 8.8942 13.8359C8.86294 13.8359 8.83561 13.8711 8.83561 13.9102C8.83561 14.0273 8.79263 14.1094 8.73404 14.1094C8.7028 14.1094 8.67936 14.1445 8.67936 14.1836C8.67936 14.3008 8.63639 14.3828 8.57779 14.3828C8.54654 14.3828 8.5231 14.418 8.5231 14.457C8.5231 14.5742 8.48014 14.6563 8.42155 14.6563C8.39029 14.6563 8.36686 14.6953 8.36686 14.75C8.36686 14.8359 8.38248 14.8438 8.7106 14.8672C8.8981 14.8828 9.21843 14.918 9.42154 14.9492C9.62858 14.9805 9.86296 14.9961 9.94107 14.9805C10.0739 14.9609 10.1012 14.9336 10.3239 14.543C10.4567 14.3164 10.5778 14.1211 10.5934 14.1094C10.609 14.0977 10.6325 14.0508 10.6481 14.0039C10.6637 13.9531 10.695 13.9141 10.7145 13.9141C10.734 13.9141 10.7497 13.8906 10.7497 13.8594C10.7497 13.8281 10.7731 13.7773 10.8044 13.75C10.8317 13.7188 10.8708 13.6562 10.8825 13.6094C10.8981 13.5625 10.9294 13.5234 10.9489 13.5234C10.9684 13.5234 10.984 13.5 10.984 13.4687C10.984 13.4375 11.0075 13.3867 11.0387 13.3594C11.0661 13.3281 11.1051 13.2656 11.1169 13.2188C11.1325 13.1719 11.1637 13.1328 11.1833 13.1328C11.2028 13.1328 11.2184 13.1055 11.2184 13.0742C11.2184 13.043 11.238 13.0156 11.2575 13.0156C11.2809 13.0156 11.2965 12.9922 11.2965 12.9609C11.2965 12.9297 11.32 12.8789 11.3473 12.8516C11.3708 12.8242 11.4255 12.7344 11.4684 12.6562C11.5075 12.5781 11.5739 12.4766 11.613 12.4336C11.6559 12.3906 11.6872 12.3359 11.6872 12.3125C11.6872 12.293 11.7067 12.2734 11.7262 12.2734C11.7497 12.2734 11.7653 12.2461 11.7653 12.2148C11.7653 12.1836 11.7848 12.1562 11.8044 12.1562C11.8278 12.1562 11.8434 12.1289 11.8434 12.0976C11.8434 12.0664 11.8629 12.0391 11.8825 12.0391C11.9059 12.0391 11.9215 12.0117 11.9215 11.9805C11.9215 11.9492 11.9411 11.9219 11.9606 11.9219C11.9841 11.9219 11.9997 11.8945 11.9997 11.8633C11.9997 11.8281 12.027 11.793 12.0583 11.7812C12.0895 11.7656 12.1169 11.7344 12.1169 11.7031C12.1169 11.6719 12.1364 11.6484 12.1559 11.6484C12.1794 11.6484 12.195 11.6211 12.195 11.5898C12.195 11.5547 12.2223 11.5195 12.2536 11.5078C12.2848 11.4922 12.3122 11.4609 12.3122 11.4297C12.3122 11.3984 12.3317 11.375 12.3512 11.375C12.3747 11.375 12.3903 11.3516 12.3903 11.3203C12.3903 11.2891 12.4215 11.2383 12.4606 11.2109C12.4958 11.1836 12.5504 11.1172 12.5778 11.0625C12.6989 10.8359 12.859 10.7109 13.0348 10.7109C13.1286 10.7109 13.1637 10.7344 13.2028 10.8242C13.2731 10.9844 13.4528 11.0625 13.6325 11.0156C13.7145 10.9961 13.8512 10.9688 13.945 10.957C14.1051 10.9336 14.109 10.9375 14.109 11.0508C14.109 11.1172 14.0573 11.2271 14.0261 11.2505C13.9362 11.3247 13.238 12.3008 12.9879 12.7031C12.859 12.9062 12.5856 13.375 12.3825 13.7383C11.3708 15.5469 10.5799 16.9972 10.5252 16.9972C10.5096 16.9972 10.2245 16.0352 10.244 15.9884C10.2635 15.9376 10.527 15.6645 10.5114 15.6215C10.484 15.5473 10.1039 15.7823 10.182 15.6807C10.2132 15.6456 10.7323 14.686 10.7596 14.5649C10.787 14.4516 11.1703 13.5434 11.436 13.0551C11.6 12.7465 12.4684 12.4922 12.4684 12.4688C12.4684 12.4492 12.488 12.4297 12.5075 12.4297C12.5309 12.4297 12.5466 12.3945 12.5466 12.3516C12.5466 12.3086 12.5622 12.2734 12.5817 12.2734C12.6247 12.2734 12.8981 11.7187 12.8981 11.6328C12.8981 11.5977 12.9176 11.5703 12.9411 11.5703C12.9645 11.5703 12.9723 11.5351 12.9567 11.4922C12.9411 11.4492 12.9489 11.4141 12.9723 11.4141C12.9958 11.4141 13.0153 11.3789 13.0153 11.332C13.0153 11.2031 13.2929 11.4039 13.3667 11.4323C13.4175 11.4519 13.4041 12.7836 13.1974 11.4722C13.1867 11.4039 12.9857 11.6636 12.9701 11.6206C12.9505 11.562 13.384 11.6502 13.1887 11.8885C12.5989 12.6072 11.4919 12.8984 10.4372 14.7149C9.63638 16.0898 9.51529 16.2695 9.41764 16.2461C9.37857 16.2344 9.34341 16.2422 9.34341 16.2656C9.34341 16.2852 9.32779 16.2891 9.30436 16.2773C9.28482 16.2656 9.2653 16.2734 9.2653 16.293C9.2653 16.3398 9.20671 16.3398 8.95279 16.293Z" fill="url(#paint59_linear_32_10700)"/>
<path d="M8.94146 10.707C8.75786 10.6094 8.53131 10.3828 8.41412 10.168C8.40529 10.1738 8.29611 9.9198 8.31096 9.91003L8.76958 10.0078H9.21489L9.18364 10.1953C9.16802 10.2969 9.1524 10.4726 9.1524 10.5859C9.14848 10.6953 9.13676 10.7891 9.12114 10.7891C9.10161 10.7852 9.02349 10.75 8.94146 10.707Z" fill="url(#paint60_linear_32_10700)"/>
<path d="M7.8632 15.2734C7.93741 15.1992 8.21866 14.7539 8.48819 14.2812C9.57022 12.4023 10.4218 10.9492 10.6054 10.6719C10.8202 10.3477 11.5663 9.58201 11.8515 9.38671L12.1566 9.20178L12.039 9.37108C12.039 9.43359 11.9765 9.59765 11.9023 9.73828C11.746 10.0391 11.6366 10.4531 11.6718 10.6367C11.7109 10.832 11.8359 11.043 11.9648 11.1172C12.078 11.1836 12.0859 11.1836 12.3241 11.0664C12.6249 10.918 12.7069 10.8672 12.7734 10.7812C12.8046 10.7383 12.8749 10.7109 12.9609 10.7109C13.0858 10.7109 13.0937 10.7188 13.0898 10.8398C13.0858 10.9063 13.078 10.9336 13.0663 10.8945C13.0585 10.8594 13.0351 10.8281 13.0195 10.8281C12.8593 10.8281 11.8515 12.3047 10.8085 14.0508C10.1405 15.1758 10.0116 15.3828 10.0663 15.2344C10.1054 15.1367 10.0546 15.0703 9.98819 15.125C9.94522 15.1601 9.84367 15.1562 9.57022 15.1094C9.16788 15.043 8.56241 14.9687 8.39444 14.9687C8.32023 14.9687 8.2421 15.0156 8.13273 15.1367C8.04678 15.2266 7.96475 15.3008 7.94523 15.3008C7.92959 15.3047 7.87492 15.3281 7.82413 15.3555C7.74991 15.3945 7.76163 15.3789 7.8632 15.2734Z" fill="url(#paint61_linear_32_10700)"/>
<path d="M12.2732 13.8359C12.3162 13.75 12.3631 13.6797 12.3709 13.6797C12.3826 13.6797 12.3553 13.75 12.3123 13.8359C12.2693 13.9219 12.2224 13.9922 12.2146 13.9922C12.2029 13.9922 12.2303 13.9219 12.2732 13.8359Z" fill="url(#paint62_linear_32_10700)"/>
<path d="M12.4685 13.4844C12.5115 13.3984 12.5584 13.3281 12.5662 13.3281C12.5779 13.3281 12.5506 13.3984 12.5076 13.4844C12.4646 13.5703 12.4177 13.6406 12.4099 13.6406C12.3982 13.6406 12.4256 13.5703 12.4685 13.4844Z" fill="url(#paint63_linear_32_10700)"/>
<path d="M12.629 13.2031C12.7188 13.0352 13.1094 12.4102 13.2384 12.2305C13.3087 12.1289 13.3673 12.0391 13.3673 12.0234C13.3673 12.0078 13.4376 11.9023 13.5235 11.7891C13.6095 11.6758 13.6798 11.5508 13.6798 11.5156C13.6798 11.4805 13.6993 11.4609 13.7188 11.4727C13.754 11.4961 13.7735 11.4336 13.7696 11.3086C13.7657 11.2812 13.7852 11.2578 13.8048 11.2578C13.8594 11.2578 13.9532 11.1523 13.9259 11.125C13.8868 11.0859 13.8282 11.0977 13.8555 11.1406C13.8712 11.1641 13.8321 11.168 13.754 11.1523C13.668 11.1367 13.6368 11.1406 13.6524 11.1719C13.6719 11.1953 13.6524 11.2031 13.6016 11.1914C13.5001 11.1641 13.5001 11.0625 13.6016 11.0625C13.6446 11.0625 13.6798 11.0469 13.6798 11.0234C13.6798 11.0039 13.6993 10.9844 13.7227 10.9844C13.7462 10.9844 13.8673 10.9375 13.9923 10.8828C14.1173 10.8281 14.5719 10.6089 14.5928 10.5847C14.6514 10.5168 15.1571 10.0428 14.2773 10.9563C14.2411 10.9939 13.8872 11.4254 13.8413 11.4755C13.6967 11.6335 13.8429 11.4364 13.8399 11.4453C13.836 11.4609 13.7227 11.6211 13.586 11.8047C13.2969 12.1953 13.0157 12.6094 12.7852 13.0078C12.6915 13.1602 12.6094 13.2891 12.6016 13.2891C12.5899 13.2891 12.6055 13.25 12.629 13.2031Z" fill="url(#paint64_linear_32_10700)"/>
<path d="M9.12129 10.1914C9.14472 10.1289 8.77363 10.1055 8.69549 10.168C8.65254 10.2031 8.64082 10.1992 8.64082 10.1602C8.64082 10.1172 8.633 10.1172 8.60956 10.1523C8.58222 10.1914 8.55487 10.1914 8.47284 10.1523C8.34003 10.0937 8.23687 9.82395 8.25018 9.49609C8.27214 8.95626 8.64699 8.6431 8.89621 8.62103C9.07773 8.60492 9.23656 8.61945 9.35362 8.75035C9.47069 8.88126 9.50401 8.92993 9.50019 9.10937C9.49719 9.24996 9.46503 9.38672 9.3869 9.5586C9.32441 9.69531 9.25019 9.90235 9.21894 10.0234C9.1916 10.1445 9.15252 10.2422 9.13691 10.2422C9.11737 10.2422 9.10957 10.2188 9.12129 10.1914Z" fill="url(#paint65_linear_32_10700)"/>
<path d="M10.3674 9.41406C10.2736 9.30078 10.1916 8.88282 10.1916 8.52344C10.1877 8.11718 10.2463 7.78906 10.3713 7.48829C10.465 7.25781 10.7775 6.76562 10.8322 6.76562C10.8517 6.76562 10.8674 6.82812 10.8674 6.90235C10.8674 7.01562 10.8517 7.03906 10.7814 7.03906C10.715 7.03906 10.7072 7.05077 10.7424 7.08593C10.7697 7.11329 10.7892 7.16406 10.7892 7.20312C10.7892 7.3789 11.5705 7.7461 12.0939 7.81641C12.3908 7.85937 12.4064 7.85547 12.5705 7.76172C12.6603 7.70703 12.7893 7.66407 12.8556 7.66407C12.9689 7.66407 12.9768 7.65235 12.9768 7.52734C12.9768 7.43749 12.9963 7.39062 13.0314 7.39062C13.0588 7.39062 13.0939 7.33984 13.1096 7.27343C13.1291 7.17578 13.1486 7.15624 13.2502 7.15624C13.3127 7.15624 13.2756 6.75376 13.2756 6.77327C13.4468 6.75242 13.1862 7.47336 12.7804 7.73856C12.7335 7.75808 12.9925 7.68599 12.9847 7.72504C12.9574 7.81879 12.5275 8.10156 12.1642 8.25001C11.3674 8.58203 10.7697 8.97657 10.5549 9.32421C10.465 9.47266 10.4299 9.48828 10.3674 9.41406Z" fill="url(#paint66_linear_32_10700)"/>
<path d="M13.0547 10.8867C13.0547 10.8164 12.9727 10.8086 12.9062 10.875C12.8711 10.9102 12.8594 10.8945 12.8594 10.7969C12.8594 10.6797 12.8672 10.6719 12.9961 10.6719C13.125 10.6719 13.1328 10.6797 13.1328 10.8086C13.1328 10.8828 13.1172 10.9453 13.0938 10.9453C13.0742 10.9453 13.0547 10.918 13.0547 10.8867Z" fill="#59E9FE"/>
<path d="M12.0586 7.94923C11.8672 7.92187 11.5859 7.85548 11.4336 7.80078C11.0586 7.66406 10.6836 7.42188 10.664 7.30469C10.6562 7.2539 10.6328 7.21484 10.6054 7.21484C10.582 7.21484 10.542 7.29839 10.5264 7.28278C10.5111 7.26335 10.5351 7.16133 10.5507 7.15625C10.5665 7.15117 10.5825 7.13829 10.5781 7.12109C10.5737 7.1039 10.6176 7.04422 10.6523 6.98437C10.6925 6.91503 10.7392 6.85903 10.75 6.84766C10.7818 6.81399 10.8906 6.6875 10.9609 6.6875C11 6.6875 11.1054 6.74219 11.2031 6.80859C11.4804 6.99609 11.8554 7.15625 12.125 7.19923C12.3398 7.23438 12.4179 7.22656 12.7539 7.13671C12.9609 7.08204 13.1757 7.03906 13.2304 7.03906C13.3164 7.03906 13.3281 7.05468 13.3281 7.17969C13.3281 7.26172 13.3125 7.30859 13.289 7.29298C13.2695 7.28126 13.25 7.28126 13.2461 7.30078C13.2461 7.31641 13.2383 7.37109 13.2343 7.42188C13.2265 7.47266 13.1289 7.60546 13.0156 7.71485C12.9023 7.82812 12.8203 7.88671 12.8359 7.84766C12.8593 7.78124 12.8515 7.78124 12.7304 7.85548C12.5117 7.99218 12.4297 8.0039 12.0586 7.94923Z" fill="url(#paint67_linear_32_10700)"/>
<path d="M14.7537 6.88281C14.3201 6.66798 14.2396 6.04079 14.6288 5.74609C14.7543 5.65101 15.0813 5.53703 15.1773 5.61578C15.275 5.71735 15.246 5.77234 15.4882 5.76063C15.4873 5.75388 15.6739 5.89821 15.6912 6.03906C15.9139 6.6211 15.3123 7.16016 14.7537 6.88281Z" fill="url(#paint68_linear_32_10700)"/>
<path d="M11.949 7.3125C11.7303 7.27344 11.3358 7.09766 11.078 6.91796C10.9256 6.81249 10.8826 6.80077 10.824 6.83985C10.6678 6.9336 10.7616 6.80077 10.9959 6.58984C11.3319 6.28515 11.7811 6.06641 12.1404 6.03515C12.8397 5.97656 13.2762 6.39598 13.3599 6.98379C13.3782 7.11152 13.2844 7.42969 13.2065 7.47718C13.1286 7.52469 13.1387 7.45485 13.1387 7.43141C13.1387 7.41187 13.1866 7.3329 13.167 7.36413C13.1358 7.41101 13.2108 7.34765 13.2108 7.26952V7.16797L12.8553 7.2578C12.4881 7.35547 12.2772 7.36719 11.949 7.3125Z" fill="url(#paint69_linear_32_10700)"/>
<path d="M15.6167 6.03516C15.6011 6.01564 15.4487 6.00392 15.2808 6.00392C15.0034 6.00392 14.9683 5.99611 14.8706 5.89846C14.812 5.83594 14.7261 5.78907 14.6831 5.78907C14.5659 5.78907 14.6675 5.68752 14.8433 5.62892C15.0347 5.56641 15.1675 5.57423 15.3472 5.66408C15.523 5.75783 15.6284 5.8633 15.6519 5.98049C15.6675 6.07032 15.6636 6.07814 15.6167 6.03516Z" fill="url(#paint70_linear_32_10700)"/>
<path d="M13.1794 11.0625C13.1286 11.0156 13.0701 10.9336 13.0505 10.8789C13.0193 10.7969 12.8249 10.8952 12.778 10.9343C12.7272 10.9772 12.8982 10.8594 12.8982 10.7656C12.8982 10.6758 12.9763 10.5664 13.2576 10.2656C13.7458 9.74219 13.9568 9.57812 14.1482 9.57812C14.2849 9.57812 14.2966 9.58594 14.32 9.72657C14.3786 10.0859 14.3044 10.5898 14.1716 10.7227C14.1404 10.75 14.1247 10.8203 14.1365 10.8711C14.1521 10.957 14.1325 10.9805 13.9841 11.0391C13.8904 11.0781 13.695 11.1172 13.5427 11.1289C13.3005 11.1445 13.2576 11.1367 13.1794 11.0625Z" fill="url(#paint71_linear_32_10700)"/>
<path d="M14.0156 10.9766C14.0352 10.9492 14.0234 10.9414 13.9805 10.957C13.9414 10.9726 13.9258 10.9648 13.9336 10.9336C13.9453 10.9062 13.9609 10.8398 13.9687 10.7773C13.9805 10.7187 14.0156 10.6445 14.0469 10.6094C14.1758 10.4804 14.2813 9.92967 14.1836 9.86717C14.1602 9.85545 14.1484 9.80858 14.1602 9.76952C14.1719 9.72655 14.1641 9.69529 14.1484 9.69529C14.0781 9.69529 13.7188 10.0156 13.375 10.3828L13.0156 10.7695V10.6289C13.0156 10.4687 13.0742 10.3984 13.1992 10.3984C13.2695 10.3984 13.2891 10.3789 13.2891 10.289C13.2891 10.2109 13.3438 10.125 13.4961 9.97654C13.6094 9.86327 13.7109 9.77342 13.7227 9.77342C13.7344 9.77342 13.8242 9.69921 13.9219 9.60936C14.2969 9.2617 14.8242 9.01952 15.3125 8.97265C15.5742 8.94529 15.5938 8.94921 15.6875 9.04296C15.8008 9.15623 15.8477 9.30077 15.8125 9.43748C15.8008 9.49217 15.6445 9.66405 15.4687 9.8203C15.2891 9.97654 14.9609 10.2851 14.7344 10.5039C14.5039 10.7265 14.2578 10.9258 14.1719 10.9609C13.9922 11.0351 13.9805 11.0351 14.0156 10.9766Z" fill="url(#paint72_linear_32_10700)"/>
<path d="M11.9255 11.2617C11.7653 11.2187 11.6091 10.9805 11.5739 10.7344C11.5153 10.293 11.6872 9.69531 11.9763 9.35156C12.1872 9.10547 12.9919 8.71875 13.5661 8.58594C14.4021 8.39452 15.1599 8.51563 15.5661 8.90625C15.7419 9.07421 15.8278 9.22265 15.8278 9.35938C15.8278 9.46093 15.738 9.57812 15.6599 9.57812C15.6325 9.57422 15.652 9.54296 15.7028 9.50391C15.8083 9.41016 15.8122 9.30469 15.7106 9.1875C15.6481 9.11329 15.5974 9.09765 15.4177 9.10157C14.8005 9.10547 14.0505 9.58594 13.281 10.4648C12.8981 10.8984 12.57 11.1562 12.281 11.2422C12.0895 11.3008 12.0661 11.3008 11.9255 11.2617Z" fill="url(#paint73_linear_32_10700)"/>
</g>
</g>
<defs>
<filter id="filter0_i_32_10700" x="1.5" y="1.5" width="21" height="25" filterUnits="userSpaceOnUse" color-interpolation-filters="sRGB">
<feFlood flood-opacity="0" result="BackgroundImageFix"/>
<feBlend mode="normal" in="SourceGraphic" in2="BackgroundImageFix" result="shape"/>
<feColorMatrix in="SourceAlpha" type="matrix" values="0 0 0 0 0 0 0 0 0 0 0 0 0 0 0 0 0 0 127 0" result="hardAlpha"/>
<feOffset dy="4"/>
<feGaussianBlur stdDeviation="2"/>
<feComposite in2="hardAlpha" operator="arithmetic" k2="-1" k3="1"/>
<feColorMatrix type="matrix" values="0 0 0 0 0 0 0 0 0 0 0 0 0 0 0 0 0 0 0.25 0"/>
<feBlend mode="normal" in2="shape" result="effect1_innerShadow_32_10700"/>
</filter>
<linearGradient id="paint0_linear_32_10700" x1="0" y1="0" x2="28.4391" y2="16.2138" gradientUnits="userSpaceOnUse">
<stop stop-color="#00CCE6"/>
<stop offset="1" stop-color="#0082E7"/>
</linearGradient>
<linearGradient id="paint1_linear_32_10700" x1="7.41951" y1="7.2059" x2="8.22315" y2="5.82243" gradientUnits="userSpaceOnUse">
<stop stop-color="#1964E7"/>
<stop offset="1" stop-color="#6884F2"/>
</linearGradient>
<linearGradient id="paint2_linear_32_10700" x1="4.68331" y1="5.83259" x2="5.48694" y2="7.21606" gradientUnits="userSpaceOnUse">
<stop stop-color="#00CCE6"/>
<stop offset="1" stop-color="#0082E7"/>
</linearGradient>
<radialGradient id="paint3_radial_32_10700" cx="0" cy="0" r="1" gradientUnits="userSpaceOnUse" gradientTransform="translate(7.63314 7.00245) scale(1.16984)">
<stop offset="0.23" stop-color="#00CDFF"/>
<stop offset="0.49" stop-color="#00BCFA"/>
<stop offset="0.77" stop-color="#00ABF8"/>
<stop offset="1" stop-color="#0098F7"/>
</radialGradient>
<radialGradient id="paint4_radial_32_10700" cx="0" cy="0" r="1" gradientUnits="userSpaceOnUse" gradientTransform="translate(7.63299 7.00245) scale(1.16984)">
<stop offset="0.23" stop-color="#00CDFF"/>
<stop offset="0.49" stop-color="#00BCFA"/>
<stop offset="0.77" stop-color="#00ABF8"/>
<stop offset="1" stop-color="#0098F7"/>
</radialGradient>
<radialGradient id="paint5_radial_32_10700" cx="0" cy="0" r="1" gradientUnits="userSpaceOnUse" gradientTransform="translate(7.63313 7.00246) scale(1.16984)">
<stop offset="0.23" stop-color="#00CDFF"/>
<stop offset="0.49" stop-color="#00BCFA"/>
<stop offset="0.77" stop-color="#00ABF8"/>
<stop offset="1" stop-color="#0098F7"/>
</radialGradient>
<radialGradient id="paint6_radial_32_10700" cx="0" cy="0" r="1" gradientUnits="userSpaceOnUse" gradientTransform="translate(7.63311 7.00244) scale(1.16984 1.16984)">
<stop offset="0.23" stop-color="#00CDFF"/>
<stop offset="0.49" stop-color="#00BCFA"/>
<stop offset="0.77" stop-color="#00ABF8"/>
<stop offset="1" stop-color="#0098F7"/>
</radialGradient>
<radialGradient id="paint7_radial_32_10700" cx="0" cy="0" r="1" gradientUnits="userSpaceOnUse" gradientTransform="translate(7.63311 7.00245) scale(1.16984 1.16984)">
<stop offset="0.23" stop-color="#00CDFF"/>
<stop offset="0.49" stop-color="#00BCFA"/>
<stop offset="0.77" stop-color="#00ABF8"/>
<stop offset="1" stop-color="#0098F7"/>
</radialGradient>
<radialGradient id="paint8_radial_32_10700" cx="0" cy="0" r="1" gradientUnits="userSpaceOnUse" gradientTransform="translate(7.63267 7.00245) scale(1.16984)">
<stop offset="0.23" stop-color="#00CDFF"/>
<stop offset="0.49" stop-color="#00BCFA"/>
<stop offset="0.77" stop-color="#00ABF8"/>
<stop offset="1" stop-color="#0098F7"/>
</radialGradient>
<radialGradient id="paint9_radial_32_10700" cx="0" cy="0" r="1" gradientUnits="userSpaceOnUse" gradientTransform="translate(7.63314 7.00242) scale(1.16984)">
<stop offset="0.23" stop-color="#00CDFF"/>
<stop offset="0.49" stop-color="#00BCFA"/>
<stop offset="0.77" stop-color="#00ABF8"/>
<stop offset="1" stop-color="#0098F7"/>
</radialGradient>
<radialGradient id="paint10_radial_32_10700" cx="0" cy="0" r="1" gradientUnits="userSpaceOnUse" gradientTransform="translate(7.63303 7.00244) scale(1.16984)">
<stop offset="0.23" stop-color="#00CDFF"/>
<stop offset="0.49" stop-color="#00BCFA"/>
<stop offset="0.77" stop-color="#00ABF8"/>
<stop offset="1" stop-color="#0098F7"/>
</radialGradient>
<radialGradient id="paint11_radial_32_10700" cx="0" cy="0" r="1" gradientUnits="userSpaceOnUse" gradientTransform="translate(7.63316 7.00244) scale(1.16984 1.16984)">
<stop offset="0.23" stop-color="#00CDFF"/>
<stop offset="0.49" stop-color="#00BCFA"/>
<stop offset="0.77" stop-color="#00ABF8"/>
<stop offset="1" stop-color="#0098F7"/>
</radialGradient>
<radialGradient id="paint12_radial_32_10700" cx="0" cy="0" r="1" gradientUnits="userSpaceOnUse" gradientTransform="translate(7.63314 7.00245) scale(1.16984)">
<stop offset="0.23" stop-color="#00CDFF"/>
<stop offset="0.49" stop-color="#00BCFA"/>
<stop offset="0.77" stop-color="#00ABF8"/>
<stop offset="1" stop-color="#0098F7"/>
</radialGradient>
<linearGradient id="paint13_linear_32_10700" x1="4.68295" y1="5.83262" x2="5.48657" y2="7.21608" gradientUnits="userSpaceOnUse">
<stop stop-color="#00CCE6"/>
<stop offset="1" stop-color="#0082E7"/>
</linearGradient>
<linearGradient id="paint14_linear_32_10700" x1="4.68357" y1="5.83259" x2="5.48719" y2="7.21606" gradientUnits="userSpaceOnUse">
<stop stop-color="#00CCE6"/>
<stop offset="1" stop-color="#0082E7"/>
</linearGradient>
<linearGradient id="paint15_linear_32_10700" x1="5.63932" y1="6.27002" x2="6.45313" y2="7.67383" gradientUnits="userSpaceOnUse">
<stop stop-color="#0CF4FF"/>
<stop offset="0.28" stop-color="#04EEFE"/>
<stop offset="1" stop-color="#00B1F7"/>
</linearGradient>
<linearGradient id="paint16_linear_32_10700" x1="4.68311" y1="5.83259" x2="5.48673" y2="7.21606" gradientUnits="userSpaceOnUse">
<stop stop-color="#00CCE6"/>
<stop offset="1" stop-color="#0082E7"/>
</linearGradient>
<radialGradient id="paint17_radial_32_10700" cx="0" cy="0" r="1" gradientUnits="userSpaceOnUse" gradientTransform="translate(7.63313 7.00246) scale(1.16984)">
<stop offset="0.23" stop-color="#00CDFF"/>
<stop offset="0.49" stop-color="#00BCFA"/>
<stop offset="0.77" stop-color="#00ABF8"/>
<stop offset="1" stop-color="#0098F7"/>
</radialGradient>
<radialGradient id="paint18_radial_32_10700" cx="0" cy="0" r="1" gradientUnits="userSpaceOnUse" gradientTransform="translate(7.63314 7.00245) scale(1.16984 1.16984)">
<stop offset="0.23" stop-color="#00CDFF"/>
<stop offset="0.49" stop-color="#00BCFA"/>
<stop offset="0.77" stop-color="#00ABF8"/>
<stop offset="1" stop-color="#0098F7"/>
</radialGradient>
<radialGradient id="paint19_radial_32_10700" cx="0" cy="0" r="1" gradientUnits="userSpaceOnUse" gradientTransform="translate(7.63326 7.00244) scale(1.16984)">
<stop offset="0.23" stop-color="#00CDFF"/>
<stop offset="0.49" stop-color="#00BCFA"/>
<stop offset="0.77" stop-color="#00ABF8"/>
<stop offset="1" stop-color="#0098F7"/>
</radialGradient>
<radialGradient id="paint20_radial_32_10700" cx="0" cy="0" r="1" gradientUnits="userSpaceOnUse" gradientTransform="translate(7.63314 7.00245) scale(1.16984)">
<stop offset="0.23" stop-color="#00CDFF"/>
<stop offset="0.49" stop-color="#00BCFA"/>
<stop offset="0.77" stop-color="#00ABF8"/>
<stop offset="1" stop-color="#0098F7"/>
</radialGradient>
<radialGradient id="paint21_radial_32_10700" cx="0" cy="0" r="1" gradientUnits="userSpaceOnUse" gradientTransform="translate(7.63273 7.00242) scale(1.16984)">
<stop offset="0.23" stop-color="#00CDFF"/>
<stop offset="0.49" stop-color="#00BCFA"/>
<stop offset="0.77" stop-color="#00ABF8"/>
<stop offset="1" stop-color="#0098F7"/>
</radialGradient>
<radialGradient id="paint22_radial_32_10700" cx="0" cy="0" r="1" gradientUnits="userSpaceOnUse" gradientTransform="translate(7.63312 7.00242) scale(1.16984 1.16985)">
<stop offset="0.23" stop-color="#00CDFF"/>
<stop offset="0.49" stop-color="#00BCFA"/>
<stop offset="0.77" stop-color="#00ABF8"/>
<stop offset="1" stop-color="#0098F7"/>
</radialGradient>
<radialGradient id="paint23_radial_32_10700" cx="0" cy="0" r="1" gradientUnits="userSpaceOnUse" gradientTransform="translate(7.63317 7.00247) scale(1.16983 1.16984)">
<stop offset="0.23" stop-color="#00CDFF"/>
<stop offset="0.49" stop-color="#00BCFA"/>
<stop offset="0.77" stop-color="#00ABF8"/>
<stop offset="1" stop-color="#0098F7"/>
</radialGradient>
<radialGradient id="paint24_radial_32_10700" cx="0" cy="0" r="1" gradientUnits="userSpaceOnUse" gradientTransform="translate(7.63312 7.00247) scale(1.16984 1.16983)">
<stop offset="0.23" stop-color="#00CDFF"/>
<stop offset="0.49" stop-color="#00BCFA"/>
<stop offset="0.77" stop-color="#00ABF8"/>
<stop offset="1" stop-color="#0098F7"/>
</radialGradient>
<linearGradient id="paint25_linear_32_10700" x1="4.68288" y1="5.8326" x2="5.4865" y2="7.21607" gradientUnits="userSpaceOnUse">
<stop stop-color="#00CCE6"/>
<stop offset="1" stop-color="#0082E7"/>
</linearGradient>
<linearGradient id="paint26_linear_32_10700" x1="4.68302" y1="5.83259" x2="5.48667" y2="7.21606" gradientUnits="userSpaceOnUse">
<stop stop-color="#00CCE6"/>
<stop offset="1" stop-color="#0082E7"/>
</linearGradient>
<linearGradient id="paint27_linear_32_10700" x1="5.63933" y1="6.27004" x2="6.45312" y2="7.67385" gradientUnits="userSpaceOnUse">
<stop stop-color="#0CF4FF"/>
<stop offset="0.28" stop-color="#04EEFE"/>
<stop offset="1" stop-color="#00B1F7"/>
</linearGradient>
<radialGradient id="paint28_radial_32_10700" cx="0" cy="0" r="1" gradientUnits="userSpaceOnUse" gradientTransform="translate(7.63313 7.00244) scale(1.16984)">
<stop offset="0.23" stop-color="#00CDFF"/>
<stop offset="0.49" stop-color="#00BCFA"/>
<stop offset="0.77" stop-color="#00ABF8"/>
<stop offset="1" stop-color="#0098F7"/>
</radialGradient>
<radialGradient id="paint29_radial_32_10700" cx="0" cy="0" r="1" gradientUnits="userSpaceOnUse" gradientTransform="translate(7.63322 7.00244) scale(1.16984)">
<stop offset="0.23" stop-color="#00CDFF"/>
<stop offset="0.49" stop-color="#00BCFA"/>
<stop offset="0.77" stop-color="#00ABF8"/>
<stop offset="1" stop-color="#0098F7"/>
</radialGradient>
<radialGradient id="paint30_radial_32_10700" cx="0" cy="0" r="1" gradientUnits="userSpaceOnUse" gradientTransform="translate(7.63279 7.00243) scale(1.16984)">
<stop offset="0.23" stop-color="#00CDFF"/>
<stop offset="0.49" stop-color="#00BCFA"/>
<stop offset="0.77" stop-color="#00ABF8"/>
<stop offset="1" stop-color="#0098F7"/>
</radialGradient>
<radialGradient id="paint31_radial_32_10700" cx="0" cy="0" r="1" gradientUnits="userSpaceOnUse" gradientTransform="translate(7.63275 7.00245) scale(1.16984 1.16984)">
<stop offset="0.23" stop-color="#00CDFF"/>
<stop offset="0.49" stop-color="#00BCFA"/>
<stop offset="0.77" stop-color="#00ABF8"/>
<stop offset="1" stop-color="#0098F7"/>
</radialGradient>
<radialGradient id="paint32_radial_32_10700" cx="0" cy="0" r="1" gradientUnits="userSpaceOnUse" gradientTransform="translate(7.63309 7.00242) scale(1.16985 1.16984)">
<stop offset="0.23" stop-color="#00CDFF"/>
<stop offset="0.49" stop-color="#00BCFA"/>
<stop offset="0.77" stop-color="#00ABF8"/>
<stop offset="1" stop-color="#0098F7"/>
</radialGradient>
<radialGradient id="paint33_radial_32_10700" cx="0" cy="0" r="1" gradientUnits="userSpaceOnUse" gradientTransform="translate(7.63312 7.00245) scale(1.16984 1.16984)">
<stop offset="0.23" stop-color="#00CDFF"/>
<stop offset="0.49" stop-color="#00BCFA"/>
<stop offset="0.77" stop-color="#00ABF8"/>
<stop offset="1" stop-color="#0098F7"/>
</radialGradient>
<radialGradient id="paint34_radial_32_10700" cx="0" cy="0" r="1" gradientUnits="userSpaceOnUse" gradientTransform="translate(7.63314 7.00243) scale(1.16984 1.16984)">
<stop offset="0.23" stop-color="#00CDFF"/>
<stop offset="0.49" stop-color="#00BCFA"/>
<stop offset="0.77" stop-color="#00ABF8"/>
<stop offset="1" stop-color="#0098F7"/>
</radialGradient>
<radialGradient id="paint35_radial_32_10700" cx="0" cy="0" r="1" gradientUnits="userSpaceOnUse" gradientTransform="translate(7.63315 7.00247) scale(1.16984)">
<stop offset="0.23" stop-color="#00CDFF"/>
<stop offset="0.49" stop-color="#00BCFA"/>
<stop offset="0.77" stop-color="#00ABF8"/>
<stop offset="1" stop-color="#0098F7"/>
</radialGradient>
<radialGradient id="paint36_radial_32_10700" cx="0" cy="0" r="1" gradientUnits="userSpaceOnUse" gradientTransform="translate(7.63312 7.00246) scale(1.16984 1.16984)">
<stop offset="0.23" stop-color="#00CDFF"/>
<stop offset="0.49" stop-color="#00BCFA"/>
<stop offset="0.77" stop-color="#00ABF8"/>
<stop offset="1" stop-color="#0098F7"/>
</radialGradient>
<radialGradient id="paint37_radial_32_10700" cx="0" cy="0" r="1" gradientUnits="userSpaceOnUse" gradientTransform="translate(7.63318 7.00246) scale(1.16984 1.16984)">
<stop offset="0.23" stop-color="#00CDFF"/>
<stop offset="0.49" stop-color="#00BCFA"/>
<stop offset="0.77" stop-color="#00ABF8"/>
<stop offset="1" stop-color="#0098F7"/>
</radialGradient>
<radialGradient id="paint38_radial_32_10700" cx="0" cy="0" r="1" gradientUnits="userSpaceOnUse" gradientTransform="translate(7.63317 7.00246) scale(1.16984 1.16984)">
<stop offset="0.23" stop-color="#00CDFF"/>
<stop offset="0.49" stop-color="#00BCFA"/>
<stop offset="0.77" stop-color="#00ABF8"/>
<stop offset="1" stop-color="#0098F7"/>
</radialGradient>
<radialGradient id="paint39_radial_32_10700" cx="0" cy="0" r="1" gradientUnits="userSpaceOnUse" gradientTransform="translate(7.63332 7.00247) scale(1.16984 1.16984)">
<stop offset="0.23" stop-color="#00CDFF"/>
<stop offset="0.49" stop-color="#00BCFA"/>
<stop offset="0.77" stop-color="#00ABF8"/>
<stop offset="1" stop-color="#0098F7"/>
</radialGradient>
<linearGradient id="paint40_linear_32_10700" x1="7.41929" y1="7.20589" x2="8.22291" y2="5.82244" gradientUnits="userSpaceOnUse">
<stop stop-color="#1964E7"/>
<stop offset="1" stop-color="#6884F2"/>
</linearGradient>
<linearGradient id="paint41_linear_32_10700" x1="4.68307" y1="5.83261" x2="5.48669" y2="7.21608" gradientUnits="userSpaceOnUse">
<stop stop-color="#00CCE6"/>
<stop offset="1" stop-color="#0082E7"/>
</linearGradient>
<linearGradient id="paint42_linear_32_10700" x1="5.63894" y1="6.27002" x2="6.45273" y2="7.67383" gradientUnits="userSpaceOnUse">
<stop stop-color="#0CF4FF"/>
<stop offset="0.28" stop-color="#04EEFE"/>
<stop offset="1" stop-color="#00B1F7"/>
</linearGradient>
<radialGradient id="paint43_radial_32_10700" cx="0" cy="0" r="1" gradientUnits="userSpaceOnUse" gradientTransform="translate(7.63313 7.00244) scale(1.16984)">
<stop offset="0.23" stop-color="#00CDFF"/>
<stop offset="0.49" stop-color="#00BCFA"/>
<stop offset="0.77" stop-color="#00ABF8"/>
<stop offset="1" stop-color="#0098F7"/>
</radialGradient>
<radialGradient id="paint44_radial_32_10700" cx="0" cy="0" r="1" gradientUnits="userSpaceOnUse" gradientTransform="translate(7.63291 7.00244) scale(1.16984)">
<stop offset="0.23" stop-color="#00CDFF"/>
<stop offset="0.49" stop-color="#00BCFA"/>
<stop offset="0.77" stop-color="#00ABF8"/>
<stop offset="1" stop-color="#0098F7"/>
</radialGradient>
<radialGradient id="paint45_radial_32_10700" cx="0" cy="0" r="1" gradientUnits="userSpaceOnUse" gradientTransform="translate(7.63313 7.00247) scale(1.16984 1.16984)">
<stop offset="0.23" stop-color="#00CDFF"/>
<stop offset="0.49" stop-color="#00BCFA"/>
<stop offset="0.77" stop-color="#00ABF8"/>
<stop offset="1" stop-color="#0098F7"/>
</radialGradient>
<radialGradient id="paint46_radial_32_10700" cx="0" cy="0" r="1" gradientUnits="userSpaceOnUse" gradientTransform="translate(7.63314 7.00245) scale(1.16984)">
<stop offset="0.23" stop-color="#00CDFF"/>
<stop offset="0.49" stop-color="#00BCFA"/>
<stop offset="0.77" stop-color="#00ABF8"/>
<stop offset="1" stop-color="#0098F7"/>
</radialGradient>
<radialGradient id="paint47_radial_32_10700" cx="0" cy="0" r="1" gradientUnits="userSpaceOnUse" gradientTransform="translate(7.63314 7.00243) scale(1.16984)">
<stop offset="0.23" stop-color="#00CDFF"/>
<stop offset="0.49" stop-color="#00BCFA"/>
<stop offset="0.77" stop-color="#00ABF8"/>
<stop offset="1" stop-color="#0098F7"/>
</radialGradient>
<radialGradient id="paint48_radial_32_10700" cx="0" cy="0" r="1" gradientUnits="userSpaceOnUse" gradientTransform="translate(7.63316 7.00244) scale(1.16984 1.16984)">
<stop offset="0.23" stop-color="#00CDFF"/>
<stop offset="0.49" stop-color="#00BCFA"/>
<stop offset="0.77" stop-color="#00ABF8"/>
<stop offset="1" stop-color="#0098F7"/>
</radialGradient>
<radialGradient id="paint49_radial_32_10700" cx="0" cy="0" r="1" gradientUnits="userSpaceOnUse" gradientTransform="translate(7.6331 7.00244) scale(1.16985 1.16984)">
<stop offset="0.23" stop-color="#00CDFF"/>
<stop offset="0.49" stop-color="#00BCFA"/>
<stop offset="0.77" stop-color="#00ABF8"/>
<stop offset="1" stop-color="#0098F7"/>
</radialGradient>
<linearGradient id="paint50_linear_32_10700" x1="4.68326" y1="5.83262" x2="5.48688" y2="7.21608" gradientUnits="userSpaceOnUse">
<stop stop-color="#00CCE6"/>
<stop offset="1" stop-color="#0082E7"/>
</linearGradient>
<linearGradient id="paint51_linear_32_10700" x1="4.68261" y1="5.83261" x2="5.48626" y2="7.21608" gradientUnits="userSpaceOnUse">
<stop stop-color="#00CCE6"/>
<stop offset="1" stop-color="#0082E7"/>
</linearGradient>
<linearGradient id="paint52_linear_32_10700" x1="5.63954" y1="6.27002" x2="6.45332" y2="7.67383" gradientUnits="userSpaceOnUse">
<stop stop-color="#0CF4FF"/>
<stop offset="0.28" stop-color="#04EEFE"/>
<stop offset="1" stop-color="#00B1F7"/>
</linearGradient>
<radialGradient id="paint53_radial_32_10700" cx="0" cy="0" r="1" gradientUnits="userSpaceOnUse" gradientTransform="translate(7.63298 7.00244) scale(1.16984)">
<stop offset="0.23" stop-color="#00CDFF"/>
<stop offset="0.49" stop-color="#00BCFA"/>
<stop offset="0.77" stop-color="#00ABF8"/>
<stop offset="1" stop-color="#0098F7"/>
</radialGradient>
<radialGradient id="paint54_radial_32_10700" cx="0" cy="0" r="1" gradientUnits="userSpaceOnUse" gradientTransform="translate(7.63346 7.00245) scale(1.16984)">
<stop offset="0.23" stop-color="#00CDFF"/>
<stop offset="0.49" stop-color="#00BCFA"/>
<stop offset="0.77" stop-color="#00ABF8"/>
<stop offset="1" stop-color="#0098F7"/>
</radialGradient>
<radialGradient id="paint55_radial_32_10700" cx="0" cy="0" r="1" gradientUnits="userSpaceOnUse" gradientTransform="translate(7.63331 7.00245) scale(1.16984)">
<stop offset="0.23" stop-color="#00CDFF"/>
<stop offset="0.49" stop-color="#00BCFA"/>
<stop offset="0.77" stop-color="#00ABF8"/>
<stop offset="1" stop-color="#0098F7"/>
</radialGradient>
<linearGradient id="paint56_linear_32_10700" x1="5.63932" y1="6.27004" x2="6.45313" y2="7.67385" gradientUnits="userSpaceOnUse">
<stop stop-color="#0CF4FF"/>
<stop offset="0.28" stop-color="#04EEFE"/>
<stop offset="1" stop-color="#00B1F7"/>
</linearGradient>
<radialGradient id="paint57_radial_32_10700" cx="0" cy="0" r="1" gradientUnits="userSpaceOnUse" gradientTransform="translate(7.63277 7.00244) scale(1.16984 1.16984)">
<stop offset="0.23" stop-color="#00CDFF"/>
<stop offset="0.49" stop-color="#00BCFA"/>
<stop offset="0.77" stop-color="#00ABF8"/>
<stop offset="1" stop-color="#0098F7"/>
</radialGradient>
<linearGradient id="paint58_linear_32_10700" x1="7.41931" y1="7.20587" x2="8.22295" y2="5.82241" gradientUnits="userSpaceOnUse">
<stop stop-color="#1964E7"/>
<stop offset="1" stop-color="#6884F2"/>
</linearGradient>
<linearGradient id="paint59_linear_32_10700" x1="5.63899" y1="6.27002" x2="6.4528" y2="7.67383" gradientUnits="userSpaceOnUse">
<stop stop-color="#0CF4FF"/>
<stop offset="0.28" stop-color="#04EEFE"/>
<stop offset="1" stop-color="#00B1F7"/>
</linearGradient>
<linearGradient id="paint60_linear_32_10700" x1="5.63938" y1="5.6088" x2="5.63938" y2="6.08691" gradientUnits="userSpaceOnUse">
<stop stop-color="#40FAFD"/>
<stop offset="1" stop-color="#00E0FF"/>
</linearGradient>
<linearGradient id="paint61_linear_32_10700" x1="5.63924" y1="6.27001" x2="6.45303" y2="7.67383" gradientUnits="userSpaceOnUse">
<stop stop-color="#0CF4FF"/>
<stop offset="0.28" stop-color="#04EEFE"/>
<stop offset="1" stop-color="#00B1F7"/>
</linearGradient>
<linearGradient id="paint62_linear_32_10700" x1="5.63906" y1="6.27002" x2="6.45287" y2="7.67383" gradientUnits="userSpaceOnUse">
<stop stop-color="#0CF4FF"/>
<stop offset="0.28" stop-color="#04EEFE"/>
<stop offset="1" stop-color="#00B1F7"/>
</linearGradient>
<linearGradient id="paint63_linear_32_10700" x1="5.63914" y1="6.27002" x2="6.45293" y2="7.67383" gradientUnits="userSpaceOnUse">
<stop stop-color="#0CF4FF"/>
<stop offset="0.28" stop-color="#04EEFE"/>
<stop offset="1" stop-color="#00B1F7"/>
</linearGradient>
<linearGradient id="paint64_linear_32_10700" x1="5.63939" y1="6.27002" x2="6.4532" y2="7.67383" gradientUnits="userSpaceOnUse">
<stop stop-color="#0CF4FF"/>
<stop offset="0.28" stop-color="#04EEFE"/>
<stop offset="1" stop-color="#00B1F7"/>
</linearGradient>
<linearGradient id="paint65_linear_32_10700" x1="5.63951" y1="5.6088" x2="5.63951" y2="6.08691" gradientUnits="userSpaceOnUse">
<stop stop-color="#40FAFD"/>
<stop offset="1" stop-color="#00E0FF"/>
</linearGradient>
<linearGradient id="paint66_linear_32_10700" x1="6.39228" y1="4.93742" x2="6.39228" y2="5.74105" gradientUnits="userSpaceOnUse">
<stop stop-color="#8EF6FD"/>
<stop offset="1" stop-color="#2BE8FF"/>
</linearGradient>
<linearGradient id="paint67_linear_32_10700" x1="6.39205" y1="4.93741" x2="6.39205" y2="5.74104" gradientUnits="userSpaceOnUse">
<stop stop-color="#8EF6FD"/>
<stop offset="1" stop-color="#2BE8FF"/>
</linearGradient>
<linearGradient id="paint68_linear_32_10700" x1="7.24643" y1="4.81534" x2="7.24643" y2="5.09001" gradientUnits="userSpaceOnUse">
<stop stop-color="#92EEFE"/>
<stop offset="1" stop-color="#59E5FE"/>
</linearGradient>
<linearGradient id="paint69_linear_32_10700" x1="6.39192" y1="4.93742" x2="6.39192" y2="5.74104" gradientUnits="userSpaceOnUse">
<stop stop-color="#8EF6FD"/>
<stop offset="1" stop-color="#2BE8FF"/>
</linearGradient>
<linearGradient id="paint70_linear_32_10700" x1="7.24611" y1="4.81536" x2="7.24611" y2="5.09001" gradientUnits="userSpaceOnUse">
<stop stop-color="#92EEFE"/>
<stop offset="1" stop-color="#59E5FE"/>
</linearGradient>
<linearGradient id="paint71_linear_32_10700" x1="6.72751" y1="5.61899" x2="7.03269" y2="6.13778" gradientUnits="userSpaceOnUse">
<stop stop-color="#A6FEFF"/>
<stop offset="0.53" stop-color="#BFFDFE"/>
<stop offset="1" stop-color="#97EDFF"/>
</linearGradient>
<linearGradient id="paint72_linear_32_10700" x1="6.72777" y1="5.61897" x2="7.03297" y2="6.13776" gradientUnits="userSpaceOnUse">
<stop stop-color="#A6FEFF"/>
<stop offset="0.53" stop-color="#BFFDFE"/>
<stop offset="1" stop-color="#97EDFF"/>
</linearGradient>
<linearGradient id="paint73_linear_32_10700" x1="6.72749" y1="5.61898" x2="7.03267" y2="6.13777" gradientUnits="userSpaceOnUse">
<stop stop-color="#A6FEFF"/>
<stop offset="0.53" stop-color="#BFFDFE"/>
<stop offset="1" stop-color="#97EDFF"/>
</linearGradient>
<clipPath id="clip0_32_10700">
<rect width="24" height="24" fill="white"/>
</clipPath>
</defs>
</svg>
