<svg width="24" height="24" viewBox="0 0 24 24" fill="none" xmlns="http://www.w3.org/2000/svg">
<g clip-path="url(#clip0_32_10783)">
<path d="M18 0H6C2.68629 0 0 2.68629 0 6V18C0 21.3137 2.68629 24 6 24H18C21.3137 24 24 21.3137 24 18V6C24 2.68629 21.3137 0 18 0Z" fill="url(#paint0_linear_32_10783)"/>
<path d="M18 0H6C2.68629 0 0 2.68629 0 6V18C0 21.3137 2.68629 24 6 24H18C21.3137 24 24 21.3137 24 18V6C24 2.68629 21.3137 0 18 0Z" fill="url(#paint1_linear_32_10783)"/>
<g filter="url(#filter0_i_32_10783)">
<path d="M18 1.5H6C3.51472 1.5 1.5 3.51472 1.5 6V18C1.5 20.4853 3.51472 22.5 6 22.5H18C20.4853 22.5 22.5 20.4853 22.5 18V6C22.5 3.51472 20.4853 1.5 18 1.5Z" fill="black" fill-opacity="0.7"/>
<mask id="mask0_32_10783" style="mask-type:luminance" maskUnits="userSpaceOnUse" x="3" y="3" width="18" height="18">
<path d="M21 3H3V21H21V3Z" fill="white"/>
</mask>
<g mask="url(#mask0_32_10783)">
<g filter="url(#filter1_d_32_10783)">
<path d="M5.98976 18.6446L3.77148 5.49601L7.87376 3.79373L10.4932 5.3503L12.8932 4.05601L17.8938 5.97601L15.0892 20.2286L5.98976 18.6446Z" fill="url(#paint2_linear_32_10783)"/>
</g>
<g filter="url(#filter2_d_32_10783)">
<path d="M20.2291 9.34456L18.105 4.09884L14.2513 3.77142L8.30273 9.48684L9.90387 16.8531L12.8936 18.9497L20.2291 14.5971L18.429 11.2217L20.2291 9.34456Z" fill="url(#paint3_linear_32_10783)"/>
</g>
<g filter="url(#filter3_d_32_10783)">
<path d="M16.9316 8.56282L18.4282 11.2217L20.2282 9.34455L18.9065 6.07712L16.9316 8.56282Z" fill="url(#paint4_linear_32_10783)"/>
</g>
<g filter="url(#filter4_d_32_10783)">
<path d="M6.85742 6.85712H17.1431V17.1428H6.85742V6.85712Z" fill="black"/>
</g>
<path d="M8.13965 15.1988H11.9968V15.8417H8.13965V15.1988Z" fill="white"/>
<path d="M11.7912 8.1377L11.2169 10.3886L10.5604 8.1377H9.90721L9.24894 10.3886L8.67637 8.1377H7.77637L8.87864 11.9966H9.60207L10.2329 9.76285L10.8569 11.9966H11.5889L12.6895 8.1377H11.7912Z" fill="white"/>
<path d="M12.8506 11.4463L13.3529 10.8446C13.6684 11.1359 14.079 11.3029 14.5083 11.3143C14.8512 11.3143 15.0672 11.1771 15.0672 10.9491V10.9389C15.0672 10.7229 14.9334 10.6131 14.2872 10.4469C13.5072 10.248 13.0049 10.032 13.0049 9.26399V9.25199C13.0049 8.55086 13.5689 8.08629 14.3592 8.08629C14.8808 8.07704 15.3892 8.25118 15.7957 8.57829L15.3534 9.21942C15.0644 8.99334 14.7134 8.86059 14.3472 8.83886C14.0214 8.83886 13.85 8.98799 13.85 9.1817V9.1937C13.85 9.44743 14.0214 9.53656 14.6849 9.70799C15.47 9.9137 15.9123 10.1949 15.9123 10.8703V10.8806C15.9123 11.6486 15.326 12.0806 14.4912 12.0806C13.8868 12.0829 13.3028 11.8626 12.8506 11.4617" fill="white"/>
</g>
</g>
</g>
<defs>
<filter id="filter0_i_32_10783" x="1.5" y="1.5" width="21" height="25" filterUnits="userSpaceOnUse" color-interpolation-filters="sRGB">
<feFlood flood-opacity="0" result="BackgroundImageFix"/>
<feBlend mode="normal" in="SourceGraphic" in2="BackgroundImageFix" result="shape"/>
<feColorMatrix in="SourceAlpha" type="matrix" values="0 0 0 0 0 0 0 0 0 0 0 0 0 0 0 0 0 0 127 0" result="hardAlpha"/>
<feOffset dy="4"/>
<feGaussianBlur stdDeviation="2"/>
<feComposite in2="hardAlpha" operator="arithmetic" k2="-1" k3="1"/>
<feColorMatrix type="matrix" values="0 0 0 0 0 0 0 0 0 0 0 0 0 0 0 0 0 0 0.25 0"/>
<feBlend mode="normal" in2="shape" result="effect1_innerShadow_32_10783"/>
</filter>
<filter id="filter1_d_32_10783" x="-0.228516" y="1.79373" width="22.1221" height="24.4349" filterUnits="userSpaceOnUse" color-interpolation-filters="sRGB">
<feFlood flood-opacity="0" result="BackgroundImageFix"/>
<feColorMatrix in="SourceAlpha" type="matrix" values="0 0 0 0 0 0 0 0 0 0 0 0 0 0 0 0 0 0 127 0" result="hardAlpha"/>
<feOffset dy="2"/>
<feGaussianBlur stdDeviation="2"/>
<feComposite in2="hardAlpha" operator="out"/>
<feColorMatrix type="matrix" values="0 0 0 0 0 0 0 0 0 0 0 0 0 0 0 0 0 0 0.25 0"/>
<feBlend mode="normal" in2="BackgroundImageFix" result="effect1_dropShadow_32_10783"/>
<feBlend mode="normal" in="SourceGraphic" in2="effect1_dropShadow_32_10783" result="shape"/>
</filter>
<filter id="filter2_d_32_10783" x="4.30273" y="1.77142" width="19.9268" height="23.1783" filterUnits="userSpaceOnUse" color-interpolation-filters="sRGB">
<feFlood flood-opacity="0" result="BackgroundImageFix"/>
<feColorMatrix in="SourceAlpha" type="matrix" values="0 0 0 0 0 0 0 0 0 0 0 0 0 0 0 0 0 0 127 0" result="hardAlpha"/>
<feOffset dy="2"/>
<feGaussianBlur stdDeviation="2"/>
<feComposite in2="hardAlpha" operator="out"/>
<feColorMatrix type="matrix" values="0 0 0 0 0 0 0 0 0 0 0 0 0 0 0 0 0 0 0.25 0"/>
<feBlend mode="normal" in2="BackgroundImageFix" result="effect1_dropShadow_32_10783"/>
<feBlend mode="normal" in="SourceGraphic" in2="effect1_dropShadow_32_10783" result="shape"/>
</filter>
<filter id="filter3_d_32_10783" x="12.9316" y="4.07712" width="11.2969" height="13.1446" filterUnits="userSpaceOnUse" color-interpolation-filters="sRGB">
<feFlood flood-opacity="0" result="BackgroundImageFix"/>
<feColorMatrix in="SourceAlpha" type="matrix" values="0 0 0 0 0 0 0 0 0 0 0 0 0 0 0 0 0 0 127 0" result="hardAlpha"/>
<feOffset dy="2"/>
<feGaussianBlur stdDeviation="2"/>
<feComposite in2="hardAlpha" operator="out"/>
<feColorMatrix type="matrix" values="0 0 0 0 0 0 0 0 0 0 0 0 0 0 0 0 0 0 0.25 0"/>
<feBlend mode="normal" in2="BackgroundImageFix" result="effect1_dropShadow_32_10783"/>
<feBlend mode="normal" in="SourceGraphic" in2="effect1_dropShadow_32_10783" result="shape"/>
</filter>
<filter id="filter4_d_32_10783" x="2.85742" y="4.85712" width="18.2861" height="18.2857" filterUnits="userSpaceOnUse" color-interpolation-filters="sRGB">
<feFlood flood-opacity="0" result="BackgroundImageFix"/>
<feColorMatrix in="SourceAlpha" type="matrix" values="0 0 0 0 0 0 0 0 0 0 0 0 0 0 0 0 0 0 127 0" result="hardAlpha"/>
<feOffset dy="2"/>
<feGaussianBlur stdDeviation="2"/>
<feComposite in2="hardAlpha" operator="out"/>
<feColorMatrix type="matrix" values="0 0 0 0 0 0 0 0 0 0 0 0 0 0 0 0 0 0 0.25 0"/>
<feBlend mode="normal" in2="BackgroundImageFix" result="effect1_dropShadow_32_10783"/>
<feBlend mode="normal" in="SourceGraphic" in2="effect1_dropShadow_32_10783" result="shape"/>
</filter>
<linearGradient id="paint0_linear_32_10783" x1="12" y1="0" x2="12" y2="24" gradientUnits="userSpaceOnUse">
<stop stop-color="#3BEA62"/>
<stop offset="0.5" stop-color="#009AE5"/>
<stop offset="1" stop-color="#6B57FF"/>
</linearGradient>
<linearGradient id="paint1_linear_32_10783" x1="10.016" y1="0.468133" x2="15.4615" y2="23.286" gradientUnits="userSpaceOnUse">
<stop offset="0.28" stop-color="#07C3F2"/>
<stop offset="0.94" stop-color="#087CFA"/>
</linearGradient>
<linearGradient id="paint2_linear_32_10783" x1="9.66519" y1="4.1143" x2="13.9235" y2="19.4469" gradientUnits="userSpaceOnUse">
<stop offset="0.28" stop-color="#07C3F2"/>
<stop offset="0.94" stop-color="#087CFA"/>
</linearGradient>
<linearGradient id="paint3_linear_32_10783" x1="10.9942" y1="6.05999" x2="18.1993" y2="16.6251" gradientUnits="userSpaceOnUse">
<stop offset="0.14" stop-color="#FCF84A"/>
<stop offset="0.37" stop-color="#07C3F2"/>
</linearGradient>
<linearGradient id="paint4_linear_32_10783" x1="18.1316" y1="7.36626" x2="19.0779" y2="10.7177" gradientUnits="userSpaceOnUse">
<stop offset="0.28" stop-color="#07C3F2"/>
<stop offset="0.94" stop-color="#087CFA"/>
</linearGradient>
<clipPath id="clip0_32_10783">
<rect width="24" height="24" fill="white"/>
</clipPath>
</defs>
</svg>
