<svg width="24" height="24" viewBox="0 0 24 24" fill="none" xmlns="http://www.w3.org/2000/svg">
<g clip-path="url(#clip0_32_10838)">
<path d="M18 0H6C2.68629 0 0 2.68629 0 6V18C0 21.3137 2.68629 24 6 24H18C21.3137 24 24 21.3137 24 18V6C24 2.68629 21.3137 0 18 0Z" fill="url(#paint0_linear_32_10838)"/>
<g filter="url(#filter0_i_32_10838)">
<path d="M18 1.5H6C3.51472 1.5 1.5 3.51472 1.5 6V18C1.5 20.4853 3.51472 22.5 6 22.5H18C20.4853 22.5 22.5 20.4853 22.5 18V6C22.5 3.51472 20.4853 1.5 18 1.5Z" fill="black" fill-opacity="0.7"/>
<g filter="url(#filter1_d_32_10838)">
<path d="M19.1863 8.38978C19.0134 7.74399 18.506 7.23651 17.8602 7.06363C16.6909 6.75 12 6.75 12 6.75C12 6.75 7.30911 6.75 6.13978 7.06363C5.49399 7.23651 4.98651 7.74399 4.81363 8.38978C4.5 9.55911 4.5 12.0002 4.5 12.0002C4.5 12.0002 4.5 14.4414 4.81363 15.6107C4.98651 16.2565 5.49399 16.764 6.13978 16.9368C7.30911 17.2505 12 17.2505 12 17.2505C12 17.2505 16.6909 17.2505 17.8602 16.9368C18.506 16.764 19.0134 16.2565 19.1863 15.6107C19.5 14.4414 19.5 12.0002 19.5 12.0002C19.5 12.0002 19.4987 9.55911 19.1863 8.38978Z" fill="#FF0000"/>
</g>
<path d="M10.499 14.2502L14.396 12.0005L10.499 9.7507V14.2502Z" fill="white"/>
</g>
</g>
<defs>
<filter id="filter0_i_32_10838" x="1.5" y="1.5" width="21" height="25" filterUnits="userSpaceOnUse" color-interpolation-filters="sRGB">
<feFlood flood-opacity="0" result="BackgroundImageFix"/>
<feBlend mode="normal" in="SourceGraphic" in2="BackgroundImageFix" result="shape"/>
<feColorMatrix in="SourceAlpha" type="matrix" values="0 0 0 0 0 0 0 0 0 0 0 0 0 0 0 0 0 0 127 0" result="hardAlpha"/>
<feOffset dy="4"/>
<feGaussianBlur stdDeviation="2"/>
<feComposite in2="hardAlpha" operator="arithmetic" k2="-1" k3="1"/>
<feColorMatrix type="matrix" values="0 0 0 0 0 0 0 0 0 0 0 0 0 0 0 0 0 0 0.25 0"/>
<feBlend mode="normal" in2="shape" result="effect1_innerShadow_32_10838"/>
</filter>
<filter id="filter1_d_32_10838" x="0.5" y="4.75" width="23" height="18.5005" filterUnits="userSpaceOnUse" color-interpolation-filters="sRGB">
<feFlood flood-opacity="0" result="BackgroundImageFix"/>
<feColorMatrix in="SourceAlpha" type="matrix" values="0 0 0 0 0 0 0 0 0 0 0 0 0 0 0 0 0 0 127 0" result="hardAlpha"/>
<feOffset dy="2"/>
<feGaussianBlur stdDeviation="2"/>
<feComposite in2="hardAlpha" operator="out"/>
<feColorMatrix type="matrix" values="0 0 0 0 0 0 0 0 0 0 0 0 0 0 0 0 0 0 0.25 0"/>
<feBlend mode="normal" in2="BackgroundImageFix" result="effect1_dropShadow_32_10838"/>
<feBlend mode="normal" in="SourceGraphic" in2="effect1_dropShadow_32_10838" result="shape"/>
</filter>
<linearGradient id="paint0_linear_32_10838" x1="12" y1="0" x2="12" y2="24" gradientUnits="userSpaceOnUse">
<stop stop-color="white"/>
<stop offset="1" stop-color="#DFDFDF"/>
</linearGradient>
<clipPath id="clip0_32_10838">
<rect width="24" height="24" fill="white"/>
</clipPath>
</defs>
</svg>
