<svg width="48" height="48" viewBox="0 0 48 48" fill="none" xmlns="http://www.w3.org/2000/svg">
<g clip-path="url(#clip0_31_6088)">
<path d="M36 0H12C5.37258 0 0 5.37258 0 12V36C0 42.6274 5.37258 48 12 48H36C42.6274 48 48 42.6274 48 36V12C48 5.37258 42.6274 0 36 0Z" fill="#D3B9FF"/>
<path d="M36 0H12C5.37258 0 0 5.37258 0 12V36C0 42.6274 5.37258 48 12 48H36C42.6274 48 48 42.6274 48 36V12C48 5.37258 42.6274 0 36 0Z" fill="url(#paint0_linear_31_6088)"/>
<g filter="url(#filter0_i_31_6088)">
<path d="M36 3H12C7.02944 3 3 7.02944 3 12V36C3 40.9706 7.02944 45 12 45H36C40.9706 45 45 40.9706 45 36V12C45 7.02944 40.9706 3 36 3Z" fill="black" fill-opacity="0.7"/>
<g filter="url(#filter1_d_31_6088)">
<path d="M12 15C13.6569 15 15 13.6569 15 12C15 10.3431 13.6569 9 12 9C10.3431 9 9 10.3431 9 12C9 13.6569 10.3431 15 12 15Z" stroke="#D404FF" stroke-width="3"/>
</g>
<g filter="url(#filter2_d_31_6088)">
<path d="M24 15C25.6569 15 27 13.6569 27 12C27 10.3431 25.6569 9 24 9C22.3431 9 21 10.3431 21 12C21 13.6569 22.3431 15 24 15Z" stroke="#C10080" stroke-width="3"/>
<path d="M24 15C25.6569 15 27 13.6569 27 12C27 10.3431 25.6569 9 24 9C22.3431 9 21 10.3431 21 12C21 13.6569 22.3431 15 24 15Z" stroke="#D404FF" stroke-width="3"/>
</g>
<g filter="url(#filter3_d_31_6088)">
<path d="M36 15C37.6569 15 39 13.6569 39 12C39 10.3431 37.6569 9 36 9C34.3431 9 33 10.3431 33 12C33 13.6569 34.3431 15 36 15Z" stroke="#8B00E7" stroke-width="3"/>
</g>
<g filter="url(#filter4_d_31_6088)">
<path d="M12 27C13.6569 27 15 25.6569 15 24C15 22.3431 13.6569 21 12 21C10.3431 21 9 22.3431 9 24C9 25.6569 10.3431 27 12 27Z" stroke="#C10080" stroke-width="3"/>
<path d="M12 27C13.6569 27 15 25.6569 15 24C15 22.3431 13.6569 21 12 21C10.3431 21 9 22.3431 9 24C9 25.6569 10.3431 27 12 27Z" stroke="#D404FF" stroke-width="3"/>
</g>
<g filter="url(#filter5_d_31_6088)">
<path d="M24 27C25.6569 27 27 25.6569 27 24C27 22.3431 25.6569 21 24 21C22.3431 21 21 22.3431 21 24C21 25.6569 22.3431 27 24 27Z" stroke="#8B00E7" stroke-width="3"/>
</g>
<g filter="url(#filter6_d_31_6088)">
<path d="M36 27C37.6569 27 39 25.6569 39 24C39 22.3431 37.6569 21 36 21C34.3431 21 33 22.3431 33 24C33 25.6569 34.3431 27 36 27Z" stroke="#D404FF" stroke-width="3"/>
</g>
<g filter="url(#filter7_d_31_6088)">
<path d="M12 39C13.6569 39 15 37.6569 15 36C15 34.3431 13.6569 33 12 33C10.3431 33 9 34.3431 9 36C9 37.6569 10.3431 39 12 39Z" stroke="#8B00E7" stroke-width="3"/>
</g>
<g filter="url(#filter8_d_31_6088)">
<path d="M24 39C25.6569 39 27 37.6569 27 36C27 34.3431 25.6569 33 24 33C22.3431 33 21 34.3431 21 36C21 37.6569 22.3431 39 24 39Z" stroke="#D404FF" stroke-width="3"/>
</g>
<g filter="url(#filter9_d_31_6088)">
<path d="M36 39C37.6569 39 39 37.6569 39 36C39 34.3431 37.6569 33 36 33C34.3431 33 33 34.3431 33 36C33 37.6569 34.3431 39 36 39Z" stroke="#C10080" stroke-width="3"/>
<path d="M36 39C37.6569 39 39 37.6569 39 36C39 34.3431 37.6569 33 36 33C34.3431 33 33 34.3431 33 36C33 37.6569 34.3431 39 36 39Z" stroke="#D404FF" stroke-width="3"/>
</g>
</g>
</g>
<defs>
<filter id="filter0_i_31_6088" x="3" y="3" width="42" height="44" filterUnits="userSpaceOnUse" color-interpolation-filters="sRGB">
<feFlood flood-opacity="0" result="BackgroundImageFix"/>
<feBlend mode="normal" in="SourceGraphic" in2="BackgroundImageFix" result="shape"/>
<feColorMatrix in="SourceAlpha" type="matrix" values="0 0 0 0 0 0 0 0 0 0 0 0 0 0 0 0 0 0 127 0" result="hardAlpha"/>
<feOffset dy="2"/>
<feGaussianBlur stdDeviation="2"/>
<feComposite in2="hardAlpha" operator="arithmetic" k2="-1" k3="1"/>
<feColorMatrix type="matrix" values="0 0 0 0 0 0 0 0 0 0 0 0 0 0 0 0 0 0 0.25 0"/>
<feBlend mode="normal" in2="shape" result="effect1_innerShadow_31_6088"/>
</filter>
<filter id="filter1_d_31_6088" x="3.5" y="5.5" width="17" height="17" filterUnits="userSpaceOnUse" color-interpolation-filters="sRGB">
<feFlood flood-opacity="0" result="BackgroundImageFix"/>
<feColorMatrix in="SourceAlpha" type="matrix" values="0 0 0 0 0 0 0 0 0 0 0 0 0 0 0 0 0 0 127 0" result="hardAlpha"/>
<feOffset dy="2"/>
<feGaussianBlur stdDeviation="2"/>
<feComposite in2="hardAlpha" operator="out"/>
<feColorMatrix type="matrix" values="0 0 0 0 0 0 0 0 0 0 0 0 0 0 0 0 0 0 0.25 0"/>
<feBlend mode="normal" in2="BackgroundImageFix" result="effect1_dropShadow_31_6088"/>
<feBlend mode="normal" in="SourceGraphic" in2="effect1_dropShadow_31_6088" result="shape"/>
</filter>
<filter id="filter2_d_31_6088" x="15.5" y="5.5" width="17" height="17" filterUnits="userSpaceOnUse" color-interpolation-filters="sRGB">
<feFlood flood-opacity="0" result="BackgroundImageFix"/>
<feColorMatrix in="SourceAlpha" type="matrix" values="0 0 0 0 0 0 0 0 0 0 0 0 0 0 0 0 0 0 127 0" result="hardAlpha"/>
<feOffset dy="2"/>
<feGaussianBlur stdDeviation="2"/>
<feComposite in2="hardAlpha" operator="out"/>
<feColorMatrix type="matrix" values="0 0 0 0 0 0 0 0 0 0 0 0 0 0 0 0 0 0 0.25 0"/>
<feBlend mode="normal" in2="BackgroundImageFix" result="effect1_dropShadow_31_6088"/>
<feBlend mode="normal" in="SourceGraphic" in2="effect1_dropShadow_31_6088" result="shape"/>
</filter>
<filter id="filter3_d_31_6088" x="27.5" y="5.5" width="17" height="17" filterUnits="userSpaceOnUse" color-interpolation-filters="sRGB">
<feFlood flood-opacity="0" result="BackgroundImageFix"/>
<feColorMatrix in="SourceAlpha" type="matrix" values="0 0 0 0 0 0 0 0 0 0 0 0 0 0 0 0 0 0 127 0" result="hardAlpha"/>
<feOffset dy="2"/>
<feGaussianBlur stdDeviation="2"/>
<feComposite in2="hardAlpha" operator="out"/>
<feColorMatrix type="matrix" values="0 0 0 0 0 0 0 0 0 0 0 0 0 0 0 0 0 0 0.25 0"/>
<feBlend mode="normal" in2="BackgroundImageFix" result="effect1_dropShadow_31_6088"/>
<feBlend mode="normal" in="SourceGraphic" in2="effect1_dropShadow_31_6088" result="shape"/>
</filter>
<filter id="filter4_d_31_6088" x="3.5" y="17.5" width="17" height="17" filterUnits="userSpaceOnUse" color-interpolation-filters="sRGB">
<feFlood flood-opacity="0" result="BackgroundImageFix"/>
<feColorMatrix in="SourceAlpha" type="matrix" values="0 0 0 0 0 0 0 0 0 0 0 0 0 0 0 0 0 0 127 0" result="hardAlpha"/>
<feOffset dy="2"/>
<feGaussianBlur stdDeviation="2"/>
<feComposite in2="hardAlpha" operator="out"/>
<feColorMatrix type="matrix" values="0 0 0 0 0 0 0 0 0 0 0 0 0 0 0 0 0 0 0.25 0"/>
<feBlend mode="normal" in2="BackgroundImageFix" result="effect1_dropShadow_31_6088"/>
<feBlend mode="normal" in="SourceGraphic" in2="effect1_dropShadow_31_6088" result="shape"/>
</filter>
<filter id="filter5_d_31_6088" x="15.5" y="17.5" width="17" height="17" filterUnits="userSpaceOnUse" color-interpolation-filters="sRGB">
<feFlood flood-opacity="0" result="BackgroundImageFix"/>
<feColorMatrix in="SourceAlpha" type="matrix" values="0 0 0 0 0 0 0 0 0 0 0 0 0 0 0 0 0 0 127 0" result="hardAlpha"/>
<feOffset dy="2"/>
<feGaussianBlur stdDeviation="2"/>
<feComposite in2="hardAlpha" operator="out"/>
<feColorMatrix type="matrix" values="0 0 0 0 0 0 0 0 0 0 0 0 0 0 0 0 0 0 0.25 0"/>
<feBlend mode="normal" in2="BackgroundImageFix" result="effect1_dropShadow_31_6088"/>
<feBlend mode="normal" in="SourceGraphic" in2="effect1_dropShadow_31_6088" result="shape"/>
</filter>
<filter id="filter6_d_31_6088" x="27.5" y="17.5" width="17" height="17" filterUnits="userSpaceOnUse" color-interpolation-filters="sRGB">
<feFlood flood-opacity="0" result="BackgroundImageFix"/>
<feColorMatrix in="SourceAlpha" type="matrix" values="0 0 0 0 0 0 0 0 0 0 0 0 0 0 0 0 0 0 127 0" result="hardAlpha"/>
<feOffset dy="2"/>
<feGaussianBlur stdDeviation="2"/>
<feComposite in2="hardAlpha" operator="out"/>
<feColorMatrix type="matrix" values="0 0 0 0 0 0 0 0 0 0 0 0 0 0 0 0 0 0 0.25 0"/>
<feBlend mode="normal" in2="BackgroundImageFix" result="effect1_dropShadow_31_6088"/>
<feBlend mode="normal" in="SourceGraphic" in2="effect1_dropShadow_31_6088" result="shape"/>
</filter>
<filter id="filter7_d_31_6088" x="3.5" y="29.5" width="17" height="17" filterUnits="userSpaceOnUse" color-interpolation-filters="sRGB">
<feFlood flood-opacity="0" result="BackgroundImageFix"/>
<feColorMatrix in="SourceAlpha" type="matrix" values="0 0 0 0 0 0 0 0 0 0 0 0 0 0 0 0 0 0 127 0" result="hardAlpha"/>
<feOffset dy="2"/>
<feGaussianBlur stdDeviation="2"/>
<feComposite in2="hardAlpha" operator="out"/>
<feColorMatrix type="matrix" values="0 0 0 0 0 0 0 0 0 0 0 0 0 0 0 0 0 0 0.25 0"/>
<feBlend mode="normal" in2="BackgroundImageFix" result="effect1_dropShadow_31_6088"/>
<feBlend mode="normal" in="SourceGraphic" in2="effect1_dropShadow_31_6088" result="shape"/>
</filter>
<filter id="filter8_d_31_6088" x="15.5" y="29.5" width="17" height="17" filterUnits="userSpaceOnUse" color-interpolation-filters="sRGB">
<feFlood flood-opacity="0" result="BackgroundImageFix"/>
<feColorMatrix in="SourceAlpha" type="matrix" values="0 0 0 0 0 0 0 0 0 0 0 0 0 0 0 0 0 0 127 0" result="hardAlpha"/>
<feOffset dy="2"/>
<feGaussianBlur stdDeviation="2"/>
<feComposite in2="hardAlpha" operator="out"/>
<feColorMatrix type="matrix" values="0 0 0 0 0 0 0 0 0 0 0 0 0 0 0 0 0 0 0.25 0"/>
<feBlend mode="normal" in2="BackgroundImageFix" result="effect1_dropShadow_31_6088"/>
<feBlend mode="normal" in="SourceGraphic" in2="effect1_dropShadow_31_6088" result="shape"/>
</filter>
<filter id="filter9_d_31_6088" x="27.5" y="29.5" width="17" height="17" filterUnits="userSpaceOnUse" color-interpolation-filters="sRGB">
<feFlood flood-opacity="0" result="BackgroundImageFix"/>
<feColorMatrix in="SourceAlpha" type="matrix" values="0 0 0 0 0 0 0 0 0 0 0 0 0 0 0 0 0 0 127 0" result="hardAlpha"/>
<feOffset dy="2"/>
<feGaussianBlur stdDeviation="2"/>
<feComposite in2="hardAlpha" operator="out"/>
<feColorMatrix type="matrix" values="0 0 0 0 0 0 0 0 0 0 0 0 0 0 0 0 0 0 0.25 0"/>
<feBlend mode="normal" in2="BackgroundImageFix" result="effect1_dropShadow_31_6088"/>
<feBlend mode="normal" in="SourceGraphic" in2="effect1_dropShadow_31_6088" result="shape"/>
</filter>
<linearGradient id="paint0_linear_31_6088" x1="24" y1="0" x2="24" y2="48" gradientUnits="userSpaceOnUse">
<stop stop-color="#CB02C5"/>
<stop offset="0.244792" stop-color="#C101DA"/>
<stop offset="0.510417" stop-color="#B600F0"/>
<stop offset="0.744792" stop-color="#8900D9"/>
<stop offset="1" stop-color="#5800BF"/>
</linearGradient>
<clipPath id="clip0_31_6088">
<rect width="48" height="48" fill="white"/>
</clipPath>
</defs>
</svg>
