<svg width="48" height="48" viewBox="0 0 48 48" fill="none" xmlns="http://www.w3.org/2000/svg">
<g clip-path="url(#clip0_31_6066)">
<path d="M36 0H12C5.37258 0 0 5.37258 0 12V36C0 42.6274 5.37258 48 12 48H36C42.6274 48 48 42.6274 48 36V12C48 5.37258 42.6274 0 36 0Z" fill="url(#paint0_linear_31_6066)"/>
<path d="M36 0H12C5.37258 0 0 5.37258 0 12V36C0 42.6274 5.37258 48 12 48H36C42.6274 48 48 42.6274 48 36V12C48 5.37258 42.6274 0 36 0Z" fill="url(#paint1_linear_31_6066)"/>
<g filter="url(#filter0_i_31_6066)">
<path d="M36 3H12C7.02944 3 3 7.02944 3 12V36C3 40.9706 7.02944 45 12 45H36C40.9706 45 45 40.9706 45 36V12C45 7.02944 40.9706 3 36 3Z" fill="black" fill-opacity="0.7"/>
<mask id="mask0_31_6066" style="mask-type:luminance" maskUnits="userSpaceOnUse" x="6" y="6" width="36" height="36">
<path d="M42 6H6V42H42V6Z" fill="white"/>
</mask>
<g mask="url(#mask0_31_6066)">
<g filter="url(#filter1_d_31_6066)">
<path d="M32.6948 40.4572L40.4572 19.9337L34.2857 18.5348L32.6948 40.4572Z" fill="#087CFA"/>
</g>
<g filter="url(#filter2_d_31_6066)">
<path d="M40.3613 33.9429L32.6949 40.4573L21.7544 37.6388L40.3613 33.9429Z" fill="#087CFA"/>
</g>
<g filter="url(#filter3_d_31_6066)">
<path d="M11.6402 22.6217L8.14307 12.6171L25.6048 7.54285L11.6402 22.6217Z" fill="#07C3F2"/>
</g>
<g filter="url(#filter4_d_31_6066)">
<path d="M36.2607 26.5988L31.3612 18.2365L31.4538 18.1783L25.6047 7.54285L7.54297 27.048V40.4572L40.3614 33.9428L36.2607 26.5988Z" fill="url(#paint2_linear_31_6066)"/>
</g>
<g filter="url(#filter5_d_31_6066)">
<path d="M13.7144 13.7142H34.2858V34.2857H13.7144V13.7142Z" fill="black"/>
</g>
<path d="M16.2788 30.3976H23.9931V31.6834H16.2788V30.3976Z" fill="white"/>
<path d="M19.0287 16.2858H20.5716L23.8561 24.0103H22.0938L21.4081 22.296H18.151L17.4653 24.0103H15.751L19.0287 16.2858ZM20.8047 20.8012L19.7761 18.312L18.7476 20.8012H20.8047Z" fill="white"/>
<path d="M23.5851 20.184V20.1635C23.5757 19.6298 23.6744 19.0998 23.8753 18.6053C24.0762 18.1109 24.3752 17.6622 24.7542 17.2864C25.1332 16.9106 25.5844 16.6155 26.0806 16.4187C26.5767 16.222 27.1075 16.1278 27.6411 16.1418C28.2081 16.1133 28.7746 16.2053 29.3035 16.4115C29.8324 16.6178 30.3116 16.9336 30.7097 17.3383L29.6194 18.5966C29.0975 18.0543 28.3832 17.739 27.6308 17.7189C26.3211 17.7189 25.3748 18.8058 25.3748 20.1395V20.1635C25.3748 21.4972 26.2971 22.608 27.6308 22.608C28.5188 22.608 29.064 22.2652 29.688 21.696L30.7645 22.8C30.3708 23.2542 29.8795 23.6134 29.3273 23.8509C28.7751 24.0884 28.1764 24.198 27.576 24.1714C27.0498 24.1803 26.5271 24.0832 26.0392 23.8859C25.5512 23.6887 25.1079 23.3954 24.7356 23.0234C24.3633 22.6514 24.0696 22.2084 23.872 21.7206C23.6743 21.2328 23.5768 20.7103 23.5851 20.184Z" fill="white"/>
</g>
</g>
</g>
<defs>
<filter id="filter0_i_31_6066" x="3" y="3" width="42" height="46" filterUnits="userSpaceOnUse" color-interpolation-filters="sRGB">
<feFlood flood-opacity="0" result="BackgroundImageFix"/>
<feBlend mode="normal" in="SourceGraphic" in2="BackgroundImageFix" result="shape"/>
<feColorMatrix in="SourceAlpha" type="matrix" values="0 0 0 0 0 0 0 0 0 0 0 0 0 0 0 0 0 0 127 0" result="hardAlpha"/>
<feOffset dy="4"/>
<feGaussianBlur stdDeviation="2"/>
<feComposite in2="hardAlpha" operator="arithmetic" k2="-1" k3="1"/>
<feColorMatrix type="matrix" values="0 0 0 0 0 0 0 0 0 0 0 0 0 0 0 0 0 0 0.25 0"/>
<feBlend mode="normal" in2="shape" result="effect1_innerShadow_31_6066"/>
</filter>
<filter id="filter1_d_31_6066" x="28.6948" y="16.5348" width="15.7622" height="29.9224" filterUnits="userSpaceOnUse" color-interpolation-filters="sRGB">
<feFlood flood-opacity="0" result="BackgroundImageFix"/>
<feColorMatrix in="SourceAlpha" type="matrix" values="0 0 0 0 0 0 0 0 0 0 0 0 0 0 0 0 0 0 127 0" result="hardAlpha"/>
<feOffset dy="2"/>
<feGaussianBlur stdDeviation="2"/>
<feComposite in2="hardAlpha" operator="out"/>
<feColorMatrix type="matrix" values="0 0 0 0 0 0 0 0 0 0 0 0 0 0 0 0 0 0 0.25 0"/>
<feBlend mode="normal" in2="BackgroundImageFix" result="effect1_dropShadow_31_6066"/>
<feBlend mode="normal" in="SourceGraphic" in2="effect1_dropShadow_31_6066" result="shape"/>
</filter>
<filter id="filter2_d_31_6066" x="17.7544" y="31.9429" width="26.6069" height="14.5144" filterUnits="userSpaceOnUse" color-interpolation-filters="sRGB">
<feFlood flood-opacity="0" result="BackgroundImageFix"/>
<feColorMatrix in="SourceAlpha" type="matrix" values="0 0 0 0 0 0 0 0 0 0 0 0 0 0 0 0 0 0 127 0" result="hardAlpha"/>
<feOffset dy="2"/>
<feGaussianBlur stdDeviation="2"/>
<feComposite in2="hardAlpha" operator="out"/>
<feColorMatrix type="matrix" values="0 0 0 0 0 0 0 0 0 0 0 0 0 0 0 0 0 0 0.25 0"/>
<feBlend mode="normal" in2="BackgroundImageFix" result="effect1_dropShadow_31_6066"/>
<feBlend mode="normal" in="SourceGraphic" in2="effect1_dropShadow_31_6066" result="shape"/>
</filter>
<filter id="filter3_d_31_6066" x="4.14307" y="5.54285" width="25.4619" height="23.0788" filterUnits="userSpaceOnUse" color-interpolation-filters="sRGB">
<feFlood flood-opacity="0" result="BackgroundImageFix"/>
<feColorMatrix in="SourceAlpha" type="matrix" values="0 0 0 0 0 0 0 0 0 0 0 0 0 0 0 0 0 0 127 0" result="hardAlpha"/>
<feOffset dy="2"/>
<feGaussianBlur stdDeviation="2"/>
<feComposite in2="hardAlpha" operator="out"/>
<feColorMatrix type="matrix" values="0 0 0 0 0 0 0 0 0 0 0 0 0 0 0 0 0 0 0.25 0"/>
<feBlend mode="normal" in2="BackgroundImageFix" result="effect1_dropShadow_31_6066"/>
<feBlend mode="normal" in="SourceGraphic" in2="effect1_dropShadow_31_6066" result="shape"/>
</filter>
<filter id="filter4_d_31_6066" x="3.54297" y="5.54285" width="40.8184" height="40.9144" filterUnits="userSpaceOnUse" color-interpolation-filters="sRGB">
<feFlood flood-opacity="0" result="BackgroundImageFix"/>
<feColorMatrix in="SourceAlpha" type="matrix" values="0 0 0 0 0 0 0 0 0 0 0 0 0 0 0 0 0 0 127 0" result="hardAlpha"/>
<feOffset dy="2"/>
<feGaussianBlur stdDeviation="2"/>
<feComposite in2="hardAlpha" operator="out"/>
<feColorMatrix type="matrix" values="0 0 0 0 0 0 0 0 0 0 0 0 0 0 0 0 0 0 0.25 0"/>
<feBlend mode="normal" in2="BackgroundImageFix" result="effect1_dropShadow_31_6066"/>
<feBlend mode="normal" in="SourceGraphic" in2="effect1_dropShadow_31_6066" result="shape"/>
</filter>
<filter id="filter5_d_31_6066" x="9.71436" y="11.7142" width="28.5713" height="28.5715" filterUnits="userSpaceOnUse" color-interpolation-filters="sRGB">
<feFlood flood-opacity="0" result="BackgroundImageFix"/>
<feColorMatrix in="SourceAlpha" type="matrix" values="0 0 0 0 0 0 0 0 0 0 0 0 0 0 0 0 0 0 127 0" result="hardAlpha"/>
<feOffset dy="2"/>
<feGaussianBlur stdDeviation="2"/>
<feComposite in2="hardAlpha" operator="out"/>
<feColorMatrix type="matrix" values="0 0 0 0 0 0 0 0 0 0 0 0 0 0 0 0 0 0 0.25 0"/>
<feBlend mode="normal" in2="BackgroundImageFix" result="effect1_dropShadow_31_6066"/>
<feBlend mode="normal" in="SourceGraphic" in2="effect1_dropShadow_31_6066" result="shape"/>
</filter>
<linearGradient id="paint0_linear_31_6066" x1="24" y1="0" x2="24" y2="48" gradientUnits="userSpaceOnUse">
<stop stop-color="#FCF84A"/>
<stop offset="0.244792" stop-color="#9AF156"/>
<stop offset="0.510417" stop-color="#7AE36F"/>
<stop offset="0.744792" stop-color="#21D789"/>
<stop offset="1" stop-color="#07C3F2"/>
</linearGradient>
<linearGradient id="paint1_linear_31_6066" x1="31.552" y1="49.5251" x2="7.79445" y2="16.2693" gradientUnits="userSpaceOnUse">
<stop offset="0.09" stop-color="#21D789"/>
<stop offset="0.48" stop-color="#07C3F2"/>
<stop offset="0.9" stop-color="#087CFA"/>
</linearGradient>
<linearGradient id="paint2_linear_31_6066" x1="29.1155" y1="41.5027" x2="12.8092" y2="18.744" gradientUnits="userSpaceOnUse">
<stop offset="0.09" stop-color="#21D789"/>
<stop offset="0.48" stop-color="#07C3F2"/>
<stop offset="0.9" stop-color="#087CFA"/>
</linearGradient>
<clipPath id="clip0_31_6066">
<rect width="48" height="48" fill="white"/>
</clipPath>
</defs>
</svg>
