<svg width="48" height="48" viewBox="0 0 48 48" fill="none" xmlns="http://www.w3.org/2000/svg">
<g clip-path="url(#clip0_31_6150)">
<path d="M36 0H12C5.37258 0 0 5.37258 0 12V36C0 42.6274 5.37258 48 12 48H36C42.6274 48 48 42.6274 48 36V12C48 5.37258 42.6274 0 36 0Z" fill="url(#paint0_linear_31_6150)"/>
<g filter="url(#filter0_i_31_6150)">
<path d="M36 3H12C7.02944 3 3 7.02944 3 12V36C3 40.9706 7.02944 45 12 45H36C40.9706 45 45 40.9706 45 36V12C45 7.02944 40.9706 3 36 3Z" fill="black" fill-opacity="0.7"/>
<g filter="url(#filter1_d_31_6150)">
<path fill-rule="evenodd" clip-rule="evenodd" d="M35.8124 16.1818L36.5123 14.4584C36.5123 14.4584 35.6214 13.501 34.5397 12.4158C33.4579 11.3307 31.1671 11.969 31.1671 11.969L28.5582 9H23.9766H19.395L16.7861 11.969C16.7861 11.969 14.4953 11.3307 13.4135 12.4158C12.3318 13.501 11.4409 14.4584 11.4409 14.4584L12.1408 16.1818L11.25 18.735C11.25 18.735 13.8701 28.6896 14.1771 29.9052C14.7816 32.2988 15.1953 33.2244 16.9133 34.4371C18.6314 35.6499 21.7494 37.7561 22.2585 38.0752C22.7676 38.3947 23.4039 38.9381 23.9766 38.9381C24.5493 38.9381 25.1856 38.3947 25.6947 38.0752C26.2038 37.7561 29.3218 35.6499 31.0399 34.4371C32.758 33.2244 33.1716 32.2988 33.7761 29.9052C34.0831 28.6896 36.7032 18.735 36.7032 18.735L35.8124 16.1818Z" fill="#FF5500"/>
<path fill-rule="evenodd" clip-rule="evenodd" d="M30.4354 13.852C30.4354 13.852 33.7911 17.9211 33.7911 18.7908C33.7911 19.6605 33.369 19.89 32.9445 20.3421C32.5201 20.7942 30.6664 22.7687 30.4284 23.0223C30.1903 23.2759 29.6948 23.6603 29.9863 24.3523C30.2778 25.0443 30.7078 25.9248 30.2296 26.8179C29.7513 27.711 28.932 28.3071 28.4071 28.2086C27.8821 28.1099 26.6492 27.4637 26.1958 27.1685C25.7424 26.8732 24.3055 25.6845 24.3055 25.2296C24.3055 24.7748 25.7909 23.9582 26.0652 23.7727C26.3397 23.5872 27.5914 22.869 27.6171 22.5871C27.6426 22.3052 27.6329 22.2226 27.2635 21.526C26.8941 20.8295 26.2289 19.9 26.3396 19.2815C26.4504 18.6631 27.5232 18.3416 28.2888 18.0515C29.0543 17.7616 30.5284 17.2138 30.7125 17.1287C30.8967 17.0435 30.8491 16.9623 30.2912 16.9093C29.7335 16.8562 28.1506 16.6455 27.4369 16.845C26.7233 17.0446 25.5041 17.3481 25.4053 17.5091C25.3065 17.6701 25.2194 17.6755 25.3209 18.2308C25.4222 18.7861 25.9444 21.4508 25.995 21.9241C26.0458 22.3974 26.1449 22.7103 25.6362 22.8269C25.1274 22.9436 24.2709 23.1462 23.9766 23.1462C23.6823 23.1462 22.8258 22.9436 22.3171 22.8269C21.8082 22.7103 21.9074 22.3974 21.9581 21.9241C22.0088 21.4508 22.5309 18.7861 22.6324 18.2308C22.7337 17.6755 22.6466 17.6701 22.5479 17.5091C22.4492 17.3481 21.2299 17.0446 20.5163 16.845C19.8026 16.6455 18.2198 16.8562 17.6619 16.9093C17.1041 16.9623 17.0565 17.0435 17.2407 17.1287C17.4248 17.2138 18.8989 17.7616 19.6644 18.0515C20.43 18.3416 21.5029 18.6631 21.6136 19.2815C21.7243 19.9 21.059 20.8295 20.6897 21.526C20.3203 22.2226 20.3105 22.3052 20.3362 22.5871C20.3618 22.869 21.6135 23.5872 21.8879 23.7727C22.1624 23.9582 23.6477 24.7748 23.6477 25.2296C23.6477 25.6845 22.2108 26.8732 21.7574 27.1685C21.304 27.4637 20.0711 28.1099 19.5462 28.2086C19.0212 28.3071 18.2019 27.711 17.7237 26.8179C17.2455 25.9248 17.6755 25.0443 17.9669 24.3523C18.2584 23.6603 17.7629 23.2759 17.5248 23.0223C17.2868 22.7687 15.4331 20.7942 15.0086 20.3421C14.5842 19.89 14.1621 19.6605 14.1621 18.7908C14.1621 17.9211 17.5179 13.852 17.5179 13.852C17.5179 13.852 20.3495 14.3945 20.7313 14.3945C21.1131 14.3945 21.9404 14.0754 22.704 13.82C23.4675 13.5647 23.9766 13.5629 23.9766 13.5629C23.9766 13.5629 24.4857 13.5647 25.2493 13.82C26.0129 14.0754 26.8401 14.3945 27.2219 14.3945C27.6037 14.3945 30.4354 13.852 30.4354 13.852ZM27.9197 29.4173C28.1274 29.5477 28.0007 29.7937 27.8115 29.9278C27.6223 30.062 25.0794 32.0372 24.8327 32.2555C24.5858 32.4738 24.2232 32.8344 23.9766 32.8344C23.73 32.8344 23.3673 32.4738 23.1206 32.2555C22.8737 32.0372 20.3309 30.062 20.1417 29.9278C19.9524 29.7937 19.8258 29.5477 20.0335 29.4173C20.2413 29.2869 20.8912 28.9577 21.788 28.4922C22.6846 28.0267 23.8022 27.631 23.9766 27.631C24.151 27.631 25.2686 28.0267 26.1653 28.4922C27.062 28.9577 27.7119 29.2869 27.9197 29.4173Z" fill="white"/>
<path d="M31.1672 11.9691L28.5582 9.00012H23.9766H19.3951L16.7861 11.9691C16.7861 11.9691 14.4953 11.3309 13.4136 12.416C13.4136 12.416 16.4679 12.1394 17.5179 13.8521C17.5179 13.8521 20.3496 14.3947 20.7314 14.3947C21.1131 14.3947 21.9404 14.0755 22.704 13.8202C23.4676 13.5649 23.9766 13.563 23.9766 13.563C23.9766 13.563 24.4857 13.5649 25.2493 13.8202C26.0129 14.0755 26.8401 14.3947 27.2219 14.3947C27.6037 14.3947 30.4354 13.8521 30.4354 13.8521C31.4853 12.1394 34.5397 12.416 34.5397 12.416C33.458 11.3309 31.1672 11.9691 31.1672 11.9691Z" fill="#FF2000"/>
<path d="M31.1672 11.9691L28.5582 9.00012H23.9766H19.3951L16.7861 11.9691C16.7861 11.9691 14.4953 11.3309 13.4136 12.416C13.4136 12.416 16.4679 12.1394 17.5179 13.8521C17.5179 13.8521 20.3496 14.3947 20.7314 14.3947C21.1131 14.3947 21.9404 14.0755 22.704 13.8202C23.4676 13.5649 23.9766 13.563 23.9766 13.563C23.9766 13.563 24.4857 13.5649 25.2493 13.8202C26.0129 14.0755 26.8401 14.3947 27.2219 14.3947C27.6037 14.3947 30.4354 13.8521 30.4354 13.8521C31.4853 12.1394 34.5397 12.416 34.5397 12.416C33.458 11.3309 31.1672 11.9691 31.1672 11.9691Z" fill="black" fill-opacity="0.1"/>
</g>
</g>
</g>
<defs>
<filter id="filter0_i_31_6150" x="3" y="3" width="42" height="46" filterUnits="userSpaceOnUse" color-interpolation-filters="sRGB">
<feFlood flood-opacity="0" result="BackgroundImageFix"/>
<feBlend mode="normal" in="SourceGraphic" in2="BackgroundImageFix" result="shape"/>
<feColorMatrix in="SourceAlpha" type="matrix" values="0 0 0 0 0 0 0 0 0 0 0 0 0 0 0 0 0 0 127 0" result="hardAlpha"/>
<feOffset dy="4"/>
<feGaussianBlur stdDeviation="2"/>
<feComposite in2="hardAlpha" operator="arithmetic" k2="-1" k3="1"/>
<feColorMatrix type="matrix" values="0 0 0 0 0 0 0 0 0 0 0 0 0 0 0 0 0 0 0.25 0"/>
<feBlend mode="normal" in2="shape" result="effect1_innerShadow_31_6150"/>
</filter>
<filter id="filter1_d_31_6150" x="7.25" y="7" width="33.4531" height="37.9381" filterUnits="userSpaceOnUse" color-interpolation-filters="sRGB">
<feFlood flood-opacity="0" result="BackgroundImageFix"/>
<feColorMatrix in="SourceAlpha" type="matrix" values="0 0 0 0 0 0 0 0 0 0 0 0 0 0 0 0 0 0 127 0" result="hardAlpha"/>
<feOffset dy="2"/>
<feGaussianBlur stdDeviation="2"/>
<feComposite in2="hardAlpha" operator="out"/>
<feColorMatrix type="matrix" values="0 0 0 0 0 0 0 0 0 0 0 0 0 0 0 0 0 0 0.25 0"/>
<feBlend mode="normal" in2="BackgroundImageFix" result="effect1_dropShadow_31_6150"/>
<feBlend mode="normal" in="SourceGraphic" in2="effect1_dropShadow_31_6150" result="shape"/>
</filter>
<linearGradient id="paint0_linear_31_6150" x1="0" y1="2433.87" x2="4800" y2="2433.87" gradientUnits="userSpaceOnUse">
<stop stop-color="#FF5500"/>
<stop offset="0.409877" stop-color="#FF5500"/>
<stop offset="0.581981" stop-color="#FF2000"/>
<stop offset="1" stop-color="#FF2000"/>
</linearGradient>
<clipPath id="clip0_31_6150">
<rect width="48" height="48" fill="white"/>
</clipPath>
</defs>
</svg>
