<svg width="48" height="48" viewBox="0 0 48 48" fill="none" xmlns="http://www.w3.org/2000/svg">
<g clip-path="url(#clip0_31_6173)">
<path d="M36 0H12C5.37258 0 0 5.37258 0 12V36C0 42.6274 5.37258 48 12 48H36C42.6274 48 48 42.6274 48 36V12C48 5.37258 42.6274 0 36 0Z" fill="url(#paint0_linear_31_6173)"/>
<g filter="url(#filter0_i_31_6173)">
<path d="M36 3H12C7.02944 3 3 7.02944 3 12V36C3 40.9706 7.02944 45 12 45H36C40.9706 45 45 40.9706 45 36V12C45 7.02944 40.9706 3 36 3Z" fill="black" fill-opacity="0.7"/>
<mask id="mask0_31_6173" style="mask-type:luminance" maskUnits="userSpaceOnUse" x="9" y="9" width="30" height="30">
<path d="M39 9H9V39H39V9Z" fill="white"/>
</mask>
<g mask="url(#mask0_31_6173)">
<g filter="url(#filter1_d_31_6173)">
<path d="M24.0001 24.0001L30.4955 27.75L24.0001 39C32.2844 39 39.0001 32.2843 39.0001 24.0001C39.0001 21.2671 38.2654 18.707 36.9885 16.5H24L24.0001 24.0001Z" fill="url(#paint1_linear_31_6173)"/>
<path d="M23.9996 9C18.4477 9 13.604 12.0185 11.0103 16.5018L17.5043 27.75L23.9996 24.0001V16.5H36.9881C34.3939 12.0178 29.5509 9 23.9996 9Z" fill="url(#paint2_linear_31_6173)"/>
<path d="M9.00008 24.0001C9.00008 32.2843 15.7155 39 24 39L30.4954 27.75L24 24.0001L17.5047 27.75L11.0107 16.5018C9.73429 18.7082 9.00008 21.2676 9.00008 24.0001Z" fill="url(#paint3_linear_31_6173)"/>
<path d="M31.5002 24.0001C31.5002 28.1422 28.1422 31.5001 24.0001 31.5001C19.8579 31.5001 16.5 28.1422 16.5 24.0001C16.5 19.8579 19.8579 16.5 24.0001 16.5C28.1422 16.5 31.5002 19.8579 31.5002 24.0001Z" fill="white"/>
<path d="M30.0939 24.0001C30.0939 27.3655 27.3656 30.0939 24.0001 30.0939C20.6346 30.0939 17.9062 27.3655 17.9062 24.0001C17.9062 20.6346 20.6346 17.9062 24.0001 17.9062C27.3656 17.9062 30.0939 20.6346 30.0939 24.0001Z" fill="url(#paint4_linear_31_6173)"/>
</g>
</g>
</g>
</g>
<defs>
<filter id="filter0_i_31_6173" x="3" y="3" width="42" height="46" filterUnits="userSpaceOnUse" color-interpolation-filters="sRGB">
<feFlood flood-opacity="0" result="BackgroundImageFix"/>
<feBlend mode="normal" in="SourceGraphic" in2="BackgroundImageFix" result="shape"/>
<feColorMatrix in="SourceAlpha" type="matrix" values="0 0 0 0 0 0 0 0 0 0 0 0 0 0 0 0 0 0 127 0" result="hardAlpha"/>
<feOffset dy="4"/>
<feGaussianBlur stdDeviation="2"/>
<feComposite in2="hardAlpha" operator="arithmetic" k2="-1" k3="1"/>
<feColorMatrix type="matrix" values="0 0 0 0 0 0 0 0 0 0 0 0 0 0 0 0 0 0 0.25 0"/>
<feBlend mode="normal" in2="shape" result="effect1_innerShadow_31_6173"/>
</filter>
<filter id="filter1_d_31_6173" x="5" y="7" width="38" height="38" filterUnits="userSpaceOnUse" color-interpolation-filters="sRGB">
<feFlood flood-opacity="0" result="BackgroundImageFix"/>
<feColorMatrix in="SourceAlpha" type="matrix" values="0 0 0 0 0 0 0 0 0 0 0 0 0 0 0 0 0 0 127 0" result="hardAlpha"/>
<feOffset dy="2"/>
<feGaussianBlur stdDeviation="2"/>
<feComposite in2="hardAlpha" operator="out"/>
<feColorMatrix type="matrix" values="0 0 0 0 0 0 0 0 0 0 0 0 0 0 0 0 0 0 0.25 0"/>
<feBlend mode="normal" in2="BackgroundImageFix" result="effect1_dropShadow_31_6173"/>
<feBlend mode="normal" in="SourceGraphic" in2="effect1_dropShadow_31_6173" result="shape"/>
</filter>
<linearGradient id="paint0_linear_31_6173" x1="48" y1="0" x2="0" y2="48" gradientUnits="userSpaceOnUse">
<stop stop-color="#1971E5"/>
<stop offset="0.536458" stop-color="#4C8CF4"/>
<stop offset="1" stop-color="#9FC2FA"/>
</linearGradient>
<linearGradient id="paint1_linear_31_6173" x1="31.5321" y1="16.4691" x2="31.5" y2="39" gradientUnits="userSpaceOnUse">
<stop stop-color="#AFCCFB"/>
<stop offset="1" stop-color="#8BB5F8"/>
</linearGradient>
<linearGradient id="paint2_linear_31_6173" x1="21.8242" y1="9.22853" x2="23.0641" y2="29.386" gradientUnits="userSpaceOnUse">
<stop stop-color="#1972E7"/>
<stop offset="1" stop-color="#1969D5"/>
</linearGradient>
<linearGradient id="paint3_linear_31_6173" x1="19.7477" y1="16.5018" x2="19.7477" y2="39" gradientUnits="userSpaceOnUse">
<stop stop-color="#659CF6"/>
<stop offset="1" stop-color="#4285F4"/>
</linearGradient>
<linearGradient id="paint4_linear_31_6173" x1="23.9379" y1="17.9294" x2="24.0001" y2="30.0939" gradientUnits="userSpaceOnUse">
<stop stop-color="#3680F0"/>
<stop offset="1" stop-color="#2678EC"/>
</linearGradient>
<clipPath id="clip0_31_6173">
<rect width="48" height="48" fill="white"/>
</clipPath>
</defs>
</svg>
