<svg width="48" height="48" viewBox="0 0 48 48" fill="none" xmlns="http://www.w3.org/2000/svg">
<g clip-path="url(#clip0_31_6192)">
<path d="M36 0H12C5.37258 0 0 5.37258 0 12V36C0 42.6274 5.37258 48 12 48H36C42.6274 48 48 42.6274 48 36V12C48 5.37258 42.6274 0 36 0Z" fill="#D3B9FF"/>
<path d="M36 0H12C5.37258 0 0 5.37258 0 12V36C0 42.6274 5.37258 48 12 48H36C42.6274 48 48 42.6274 48 36V12C48 5.37258 42.6274 0 36 0Z" fill="url(#paint0_linear_31_6192)"/>
<g filter="url(#filter0_i_31_6192)">
<path d="M36 3H12C7.02944 3 3 7.02944 3 12V36C3 40.9706 7.02944 45 12 45H36C40.9706 45 45 40.9706 45 36V12C45 7.02944 40.9706 3 36 3Z" fill="black" fill-opacity="0.7"/>
<g filter="url(#filter1_d_31_6192)">
<path d="M13.5 31.875V34.875C13.5 36.5319 14.8431 37.875 16.5 37.875H36C37.6568 37.875 39 36.5319 39 34.875V22.125C39 20.4681 37.6568 19.125 36 19.125" stroke="#8B00E7" stroke-width="3"/>
</g>
<g filter="url(#filter2_d_31_6192)">
<g filter="url(#filter3_d_31_6192)">
<path d="M18.375 14.25H14.25C13.4216 14.25 12.75 14.9216 12.75 15.75V20.625C12.75 21.4534 13.4216 22.125 14.25 22.125H18.375C19.2034 22.125 19.875 21.4534 19.875 20.625V15.75C19.875 14.9216 19.2034 14.25 18.375 14.25Z" fill="#D404FF"/>
</g>
<g filter="url(#filter4_d_31_6192)">
<path d="M29.25 16.125H24C23.1716 16.125 22.5 16.7966 22.5 17.625V25.125C22.5 25.9534 23.1716 26.625 24 26.625H29.25C30.0784 26.625 30.75 25.9534 30.75 25.125V17.625C30.75 16.7966 30.0784 16.125 29.25 16.125Z" fill="#D404FF"/>
</g>
<path d="M31.5 10.125H13.5C11.0147 10.125 9 12.1397 9 14.625V27.375C9 29.8603 11.0147 31.875 13.5 31.875H31.5C33.9853 31.875 36 29.8603 36 27.375V14.625C36 12.1397 33.9853 10.125 31.5 10.125Z" stroke="#D404FF" stroke-width="3"/>
</g>
</g>
</g>
<defs>
<filter id="filter0_i_31_6192" x="3" y="3" width="42" height="44" filterUnits="userSpaceOnUse" color-interpolation-filters="sRGB">
<feFlood flood-opacity="0" result="BackgroundImageFix"/>
<feBlend mode="normal" in="SourceGraphic" in2="BackgroundImageFix" result="shape"/>
<feColorMatrix in="SourceAlpha" type="matrix" values="0 0 0 0 0 0 0 0 0 0 0 0 0 0 0 0 0 0 127 0" result="hardAlpha"/>
<feOffset dy="2"/>
<feGaussianBlur stdDeviation="2"/>
<feComposite in2="hardAlpha" operator="arithmetic" k2="-1" k3="1"/>
<feColorMatrix type="matrix" values="0 0 0 0 0 0 0 0 0 0 0 0 0 0 0 0 0 0 0.25 0"/>
<feBlend mode="normal" in2="shape" result="effect1_innerShadow_31_6192"/>
</filter>
<filter id="filter1_d_31_6192" x="8" y="15.625" width="36.5" height="29.75" filterUnits="userSpaceOnUse" color-interpolation-filters="sRGB">
<feFlood flood-opacity="0" result="BackgroundImageFix"/>
<feColorMatrix in="SourceAlpha" type="matrix" values="0 0 0 0 0 0 0 0 0 0 0 0 0 0 0 0 0 0 127 0" result="hardAlpha"/>
<feOffset dy="2"/>
<feGaussianBlur stdDeviation="2"/>
<feComposite in2="hardAlpha" operator="out"/>
<feColorMatrix type="matrix" values="0 0 0 0 0 0 0 0 0 0 0 0 0 0 0 0 0 0 0.25 0"/>
<feBlend mode="normal" in2="BackgroundImageFix" result="effect1_dropShadow_31_6192"/>
<feBlend mode="normal" in="SourceGraphic" in2="effect1_dropShadow_31_6192" result="shape"/>
</filter>
<filter id="filter2_d_31_6192" x="3.5" y="6.625" width="38" height="32.75" filterUnits="userSpaceOnUse" color-interpolation-filters="sRGB">
<feFlood flood-opacity="0" result="BackgroundImageFix"/>
<feColorMatrix in="SourceAlpha" type="matrix" values="0 0 0 0 0 0 0 0 0 0 0 0 0 0 0 0 0 0 127 0" result="hardAlpha"/>
<feOffset dy="2"/>
<feGaussianBlur stdDeviation="2"/>
<feComposite in2="hardAlpha" operator="out"/>
<feColorMatrix type="matrix" values="0 0 0 0 0 0 0 0 0 0 0 0 0 0 0 0 0 0 0.25 0"/>
<feBlend mode="normal" in2="BackgroundImageFix" result="effect1_dropShadow_31_6192"/>
<feBlend mode="normal" in="SourceGraphic" in2="effect1_dropShadow_31_6192" result="shape"/>
</filter>
<filter id="filter3_d_31_6192" x="8.75" y="12.25" width="15.125" height="15.875" filterUnits="userSpaceOnUse" color-interpolation-filters="sRGB">
<feFlood flood-opacity="0" result="BackgroundImageFix"/>
<feColorMatrix in="SourceAlpha" type="matrix" values="0 0 0 0 0 0 0 0 0 0 0 0 0 0 0 0 0 0 127 0" result="hardAlpha"/>
<feOffset dy="2"/>
<feGaussianBlur stdDeviation="2"/>
<feComposite in2="hardAlpha" operator="out"/>
<feColorMatrix type="matrix" values="0 0 0 0 0 0 0 0 0 0 0 0 0 0 0 0 0 0 0.25 0"/>
<feBlend mode="normal" in2="BackgroundImageFix" result="effect1_dropShadow_31_6192"/>
<feBlend mode="normal" in="SourceGraphic" in2="effect1_dropShadow_31_6192" result="shape"/>
</filter>
<filter id="filter4_d_31_6192" x="18.5" y="14.125" width="16.25" height="18.5" filterUnits="userSpaceOnUse" color-interpolation-filters="sRGB">
<feFlood flood-opacity="0" result="BackgroundImageFix"/>
<feColorMatrix in="SourceAlpha" type="matrix" values="0 0 0 0 0 0 0 0 0 0 0 0 0 0 0 0 0 0 127 0" result="hardAlpha"/>
<feOffset dy="2"/>
<feGaussianBlur stdDeviation="2"/>
<feComposite in2="hardAlpha" operator="out"/>
<feColorMatrix type="matrix" values="0 0 0 0 0 0 0 0 0 0 0 0 0 0 0 0 0 0 0.25 0"/>
<feBlend mode="normal" in2="BackgroundImageFix" result="effect1_dropShadow_31_6192"/>
<feBlend mode="normal" in="SourceGraphic" in2="effect1_dropShadow_31_6192" result="shape"/>
</filter>
<linearGradient id="paint0_linear_31_6192" x1="24" y1="0" x2="24" y2="48" gradientUnits="userSpaceOnUse">
<stop stop-color="#CB02C5"/>
<stop offset="0.244792" stop-color="#C101DA"/>
<stop offset="0.510417" stop-color="#B600F0"/>
<stop offset="0.744792" stop-color="#8900D9"/>
<stop offset="1" stop-color="#5800BF"/>
</linearGradient>
<clipPath id="clip0_31_6192">
<rect width="48" height="48" fill="white"/>
</clipPath>
</defs>
</svg>
