<svg width="48" height="48" viewBox="0 0 48 48" fill="none" xmlns="http://www.w3.org/2000/svg">
<g clip-path="url(#clip0_31_6215)">
<path d="M36 0H12C5.37258 0 0 5.37258 0 12V36C0 42.6274 5.37258 48 12 48H36C42.6274 48 48 42.6274 48 36V12C48 5.37258 42.6274 0 36 0Z" fill="url(#paint0_linear_31_6215)"/>
<path d="M36 0H12C5.37258 0 0 5.37258 0 12V36C0 42.6274 5.37258 48 12 48H36C42.6274 48 48 42.6274 48 36V12C48 5.37258 42.6274 0 36 0Z" fill="url(#paint1_linear_31_6215)"/>
<g filter="url(#filter0_i_31_6215)">
<path d="M36 3H12C7.02944 3 3 7.02944 3 12V36C3 40.9706 7.02944 45 12 45H36C40.9706 45 45 40.9706 45 36V12C45 7.02944 40.9706 3 36 3Z" fill="black" fill-opacity="0.7"/>
<mask id="mask0_31_6215" style="mask-type:luminance" maskUnits="userSpaceOnUse" x="6" y="6" width="36" height="36">
<path d="M42 6H6V42H42V6Z" fill="white"/>
</mask>
<g mask="url(#mask0_31_6215)">
<g filter="url(#filter1_d_31_6215)">
<path d="M27.6687 7.54285L7.54297 9.80912V20.1565L12.5898 36.9565L37.8961 30.5417L27.6687 7.54285Z" fill="url(#paint2_linear_31_6215)"/>
</g>
<g filter="url(#filter2_d_31_6215)">
<path d="M38.551 17.9862L30.6208 14.1874L19.4951 34.2171L22.5191 38.3178L30.2266 40.4572L37.6461 35.7771L40.4575 26.9657L38.551 17.9862Z" fill="url(#paint3_linear_31_6215)"/>
</g>
<g filter="url(#filter3_d_31_6215)">
<path d="M13.7144 13.7142H34.2858V34.2857H13.7144V13.7142Z" fill="black"/>
</g>
<path d="M16.2788 30.3976H23.9931V31.6834H16.2788V30.3976Z" fill="white"/>
<path d="M16.2856 16.2583H19.3028C21.7336 16.2583 23.4171 17.928 23.4171 20.1052V20.1292C23.4171 22.3063 21.7371 23.9966 19.3028 23.9966H16.2856V16.2583ZM17.9999 17.7943V22.4572H19.3165C19.6257 22.4754 19.9352 22.4282 20.2249 22.3188C20.5147 22.2094 20.7781 22.0402 20.998 21.8221C21.218 21.6041 21.3896 21.3422 21.5016 21.0535C21.6135 20.7647 21.6634 20.4556 21.6479 20.1463V20.1257C21.6636 19.8153 21.6141 19.5049 21.5025 19.2148C21.391 18.9246 21.2199 18.661 21.0002 18.4411C20.7805 18.2211 20.5172 18.0496 20.2272 17.9376C19.9372 17.8256 19.627 17.7756 19.3165 17.7909L17.9999 17.7943Z" fill="white"/>
<path d="M24.2228 20.184V20.1634C24.2133 19.6292 24.3123 19.0986 24.5136 18.6036C24.7149 18.1087 25.0146 17.6597 25.3943 17.2838C25.774 16.9079 26.226 16.6129 26.723 16.4166C27.2199 16.2203 27.7515 16.1268 28.2857 16.1417C28.8521 16.1136 29.418 16.2057 29.9463 16.4119C30.4746 16.6181 30.9533 16.9338 31.3508 17.3383L30.2605 18.5966C29.7386 18.0543 29.0243 17.739 28.2719 17.7189C26.9622 17.7189 26.0194 18.8057 26.0194 20.1394V20.1634C26.0194 21.4971 26.9382 22.608 28.2719 22.608C29.1634 22.608 29.7051 22.2651 30.3291 21.696L31.3988 22.8C31.0055 23.2547 30.5143 23.6144 29.962 23.8519C29.4098 24.0894 28.8108 24.1987 28.2102 24.1714C27.6843 24.1798 27.162 24.0823 26.6745 23.8849C26.187 23.6874 25.7441 23.394 25.3721 23.0221C25.0002 22.6502 24.7068 22.2073 24.5093 21.7197C24.3119 21.2322 24.2145 20.7099 24.2228 20.184Z" fill="white"/>
</g>
</g>
</g>
<defs>
<filter id="filter0_i_31_6215" x="3" y="3" width="42" height="46" filterUnits="userSpaceOnUse" color-interpolation-filters="sRGB">
<feFlood flood-opacity="0" result="BackgroundImageFix"/>
<feBlend mode="normal" in="SourceGraphic" in2="BackgroundImageFix" result="shape"/>
<feColorMatrix in="SourceAlpha" type="matrix" values="0 0 0 0 0 0 0 0 0 0 0 0 0 0 0 0 0 0 127 0" result="hardAlpha"/>
<feOffset dy="4"/>
<feGaussianBlur stdDeviation="2"/>
<feComposite in2="hardAlpha" operator="arithmetic" k2="-1" k3="1"/>
<feColorMatrix type="matrix" values="0 0 0 0 0 0 0 0 0 0 0 0 0 0 0 0 0 0 0.25 0"/>
<feBlend mode="normal" in2="shape" result="effect1_innerShadow_31_6215"/>
</filter>
<filter id="filter1_d_31_6215" x="3.54297" y="5.54285" width="38.353" height="37.4137" filterUnits="userSpaceOnUse" color-interpolation-filters="sRGB">
<feFlood flood-opacity="0" result="BackgroundImageFix"/>
<feColorMatrix in="SourceAlpha" type="matrix" values="0 0 0 0 0 0 0 0 0 0 0 0 0 0 0 0 0 0 127 0" result="hardAlpha"/>
<feOffset dy="2"/>
<feGaussianBlur stdDeviation="2"/>
<feComposite in2="hardAlpha" operator="out"/>
<feColorMatrix type="matrix" values="0 0 0 0 0 0 0 0 0 0 0 0 0 0 0 0 0 0 0.25 0"/>
<feBlend mode="normal" in2="BackgroundImageFix" result="effect1_dropShadow_31_6215"/>
<feBlend mode="normal" in="SourceGraphic" in2="effect1_dropShadow_31_6215" result="shape"/>
</filter>
<filter id="filter2_d_31_6215" x="15.4951" y="12.1874" width="28.9624" height="34.2698" filterUnits="userSpaceOnUse" color-interpolation-filters="sRGB">
<feFlood flood-opacity="0" result="BackgroundImageFix"/>
<feColorMatrix in="SourceAlpha" type="matrix" values="0 0 0 0 0 0 0 0 0 0 0 0 0 0 0 0 0 0 127 0" result="hardAlpha"/>
<feOffset dy="2"/>
<feGaussianBlur stdDeviation="2"/>
<feComposite in2="hardAlpha" operator="out"/>
<feColorMatrix type="matrix" values="0 0 0 0 0 0 0 0 0 0 0 0 0 0 0 0 0 0 0.25 0"/>
<feBlend mode="normal" in2="BackgroundImageFix" result="effect1_dropShadow_31_6215"/>
<feBlend mode="normal" in="SourceGraphic" in2="effect1_dropShadow_31_6215" result="shape"/>
</filter>
<filter id="filter3_d_31_6215" x="9.71436" y="11.7142" width="28.5713" height="28.5715" filterUnits="userSpaceOnUse" color-interpolation-filters="sRGB">
<feFlood flood-opacity="0" result="BackgroundImageFix"/>
<feColorMatrix in="SourceAlpha" type="matrix" values="0 0 0 0 0 0 0 0 0 0 0 0 0 0 0 0 0 0 127 0" result="hardAlpha"/>
<feOffset dy="2"/>
<feGaussianBlur stdDeviation="2"/>
<feComposite in2="hardAlpha" operator="out"/>
<feColorMatrix type="matrix" values="0 0 0 0 0 0 0 0 0 0 0 0 0 0 0 0 0 0 0.25 0"/>
<feBlend mode="normal" in2="BackgroundImageFix" result="effect1_dropShadow_31_6215"/>
<feBlend mode="normal" in="SourceGraphic" in2="effect1_dropShadow_31_6215" result="shape"/>
</filter>
<linearGradient id="paint0_linear_31_6215" x1="24" y1="0" x2="24" y2="48" gradientUnits="userSpaceOnUse">
<stop stop-color="#3BEA62"/>
<stop offset="0.510417" stop-color="#087DF7"/>
<stop offset="1" stop-color="#6B57FF"/>
</linearGradient>
<linearGradient id="paint1_linear_31_6215" x1="27.5486" y1="42.6904" x2="16.9137" y2="4.33031" gradientUnits="userSpaceOnUse">
<stop offset="0.05" stop-color="#6B57FF"/>
<stop offset="0.12" stop-color="#7556FE"/>
<stop offset="0.24" stop-color="#8F53FB"/>
<stop offset="0.4" stop-color="#BA4DF5"/>
<stop offset="0.58" stop-color="#F446EE"/>
<stop offset="0.61" stop-color="#FF45ED"/>
<stop offset="0.69" stop-color="#FF3BBE"/>
<stop offset="0.77" stop-color="#FF318C"/>
<stop offset="0.99" stop-color="#FC801D"/>
</linearGradient>
<linearGradient id="paint2_linear_31_6215" x1="24.9635" y1="33.7028" x2="18.6207" y2="10.0937" gradientUnits="userSpaceOnUse">
<stop offset="0.05" stop-color="#6B57FF"/>
<stop offset="0.12" stop-color="#7556FE"/>
<stop offset="0.24" stop-color="#8F53FB"/>
<stop offset="0.4" stop-color="#BA4DF5"/>
<stop offset="0.58" stop-color="#F446EE"/>
<stop offset="0.61" stop-color="#FF45ED"/>
<stop offset="0.69" stop-color="#FF3BBE"/>
<stop offset="0.77" stop-color="#FF318C"/>
<stop offset="0.99" stop-color="#FC801D"/>
</linearGradient>
<linearGradient id="paint3_linear_31_6215" x1="39.4323" y1="30.4868" x2="27.0517" y2="26.4102" gradientUnits="userSpaceOnUse">
<stop offset="0.03" stop-color="#6B57FF"/>
<stop offset="0.39" stop-color="#FF45ED"/>
<stop offset="0.49" stop-color="#FF4DD1"/>
<stop offset="0.7" stop-color="#FE6189"/>
<stop offset="1" stop-color="#FC801D"/>
</linearGradient>
<clipPath id="clip0_31_6215">
<rect width="48" height="48" fill="white"/>
</clipPath>
</defs>
</svg>
