<svg width="48" height="48" viewBox="0 0 48 48" fill="none" xmlns="http://www.w3.org/2000/svg">
<g clip-path="url(#clip0_31_6233)">
<path d="M36 0H12C5.37258 0 0 5.37258 0 12V36C0 42.6274 5.37258 48 12 48H36C42.6274 48 48 42.6274 48 36V12C48 5.37258 42.6274 0 36 0Z" fill="url(#paint0_linear_31_6233)"/>
<path d="M36 0H12C5.37258 0 0 5.37258 0 12V36C0 42.6274 5.37258 48 12 48H36C42.6274 48 48 42.6274 48 36V12C48 5.37258 42.6274 0 36 0Z" fill="url(#paint1_linear_31_6233)"/>
<g filter="url(#filter0_i_31_6233)">
<path d="M36 3H12C7.02944 3 3 7.02944 3 12V36C3 40.9706 7.02944 45 12 45H36C40.9706 45 45 40.9706 45 36V12C45 7.02944 40.9706 3 36 3Z" fill="black" fill-opacity="0.7"/>
<mask id="mask0_31_6233" style="mask-type:luminance" maskUnits="userSpaceOnUse" x="6" y="6" width="36" height="36">
<path d="M42 6H6V42H42V6Z" fill="white"/>
</mask>
<g mask="url(#mask0_31_6233)">
<g filter="url(#filter1_d_31_6233)">
<path d="M11.2938 38.1738L7.54297 25.2445L30.8435 31.6697L28.3578 40.4572L11.2938 38.1738Z" fill="url(#paint2_linear_31_6233)"/>
</g>
<g filter="url(#filter2_d_31_6233)">
<path d="M18.5828 7.58398L27.3462 10.0937L37.2479 7.54285L39.2092 21.12L16.9268 13.7143L18.5828 7.58398Z" fill="url(#paint3_linear_31_6233)"/>
</g>
<g filter="url(#filter3_d_31_6233)">
<path d="M40.4574 29.2251L39.2094 21.12L19.0492 14.4205L7.58411 16.8788L7.54297 25.2445L30.8435 31.6697L40.4574 29.2251Z" fill="url(#paint4_linear_31_6233)"/>
</g>
<g filter="url(#filter4_d_31_6233)">
<path d="M13.7144 13.7142H34.2858V34.2857H13.7144V13.7142Z" fill="black"/>
</g>
<path d="M16.2788 30.3978H23.9931V31.6835H16.2788V30.3978Z" fill="white"/>
<path d="M16.2856 16.2583H19.3028C21.7336 16.2583 23.4171 17.928 23.4171 20.1052V20.1292C23.4171 22.3063 21.7371 23.9966 19.3028 23.9966H16.2856V16.2583ZM17.9999 17.7943V22.4572H19.3165C19.6257 22.4754 19.9352 22.4282 20.2249 22.3188C20.5147 22.2094 20.7781 22.0402 20.998 21.8221C21.218 21.6041 21.3896 21.3422 21.5016 21.0535C21.6135 20.7647 21.6634 20.4556 21.6479 20.1463V20.1257C21.6636 19.8153 21.6141 19.5049 21.5025 19.2148C21.391 18.9246 21.2199 18.661 21.0002 18.4411C20.7805 18.2211 20.5172 18.0496 20.2272 17.9376C19.9372 17.8256 19.627 17.7756 19.3165 17.7909L17.9999 17.7943Z" fill="white"/>
<path d="M24.0034 16.2617H25.8377L27.8743 19.536L29.9074 16.2652H31.7417V24.0034H30.048L30.0514 18.9497L27.8743 22.2549H27.8263L25.6731 18.984V24H24.0034V16.2617Z" fill="white"/>
</g>
</g>
</g>
<defs>
<filter id="filter0_i_31_6233" x="3" y="3" width="42" height="46" filterUnits="userSpaceOnUse" color-interpolation-filters="sRGB">
<feFlood flood-opacity="0" result="BackgroundImageFix"/>
<feBlend mode="normal" in="SourceGraphic" in2="BackgroundImageFix" result="shape"/>
<feColorMatrix in="SourceAlpha" type="matrix" values="0 0 0 0 0 0 0 0 0 0 0 0 0 0 0 0 0 0 127 0" result="hardAlpha"/>
<feOffset dy="4"/>
<feGaussianBlur stdDeviation="2"/>
<feComposite in2="hardAlpha" operator="arithmetic" k2="-1" k3="1"/>
<feColorMatrix type="matrix" values="0 0 0 0 0 0 0 0 0 0 0 0 0 0 0 0 0 0 0.25 0"/>
<feBlend mode="normal" in2="shape" result="effect1_innerShadow_31_6233"/>
</filter>
<filter id="filter1_d_31_6233" x="3.54297" y="23.2445" width="31.3008" height="23.2127" filterUnits="userSpaceOnUse" color-interpolation-filters="sRGB">
<feFlood flood-opacity="0" result="BackgroundImageFix"/>
<feColorMatrix in="SourceAlpha" type="matrix" values="0 0 0 0 0 0 0 0 0 0 0 0 0 0 0 0 0 0 127 0" result="hardAlpha"/>
<feOffset dy="2"/>
<feGaussianBlur stdDeviation="2"/>
<feComposite in2="hardAlpha" operator="out"/>
<feColorMatrix type="matrix" values="0 0 0 0 0 0 0 0 0 0 0 0 0 0 0 0 0 0 0.25 0"/>
<feBlend mode="normal" in2="BackgroundImageFix" result="effect1_dropShadow_31_6233"/>
<feBlend mode="normal" in="SourceGraphic" in2="effect1_dropShadow_31_6233" result="shape"/>
</filter>
<filter id="filter2_d_31_6233" x="12.9268" y="5.54285" width="30.2822" height="21.5771" filterUnits="userSpaceOnUse" color-interpolation-filters="sRGB">
<feFlood flood-opacity="0" result="BackgroundImageFix"/>
<feColorMatrix in="SourceAlpha" type="matrix" values="0 0 0 0 0 0 0 0 0 0 0 0 0 0 0 0 0 0 127 0" result="hardAlpha"/>
<feOffset dy="2"/>
<feGaussianBlur stdDeviation="2"/>
<feComposite in2="hardAlpha" operator="out"/>
<feColorMatrix type="matrix" values="0 0 0 0 0 0 0 0 0 0 0 0 0 0 0 0 0 0 0.25 0"/>
<feBlend mode="normal" in2="BackgroundImageFix" result="effect1_dropShadow_31_6233"/>
<feBlend mode="normal" in="SourceGraphic" in2="effect1_dropShadow_31_6233" result="shape"/>
</filter>
<filter id="filter3_d_31_6233" x="3.54297" y="12.4205" width="40.9146" height="25.2491" filterUnits="userSpaceOnUse" color-interpolation-filters="sRGB">
<feFlood flood-opacity="0" result="BackgroundImageFix"/>
<feColorMatrix in="SourceAlpha" type="matrix" values="0 0 0 0 0 0 0 0 0 0 0 0 0 0 0 0 0 0 127 0" result="hardAlpha"/>
<feOffset dy="2"/>
<feGaussianBlur stdDeviation="2"/>
<feComposite in2="hardAlpha" operator="out"/>
<feColorMatrix type="matrix" values="0 0 0 0 0 0 0 0 0 0 0 0 0 0 0 0 0 0 0.25 0"/>
<feBlend mode="normal" in2="BackgroundImageFix" result="effect1_dropShadow_31_6233"/>
<feBlend mode="normal" in="SourceGraphic" in2="effect1_dropShadow_31_6233" result="shape"/>
</filter>
<filter id="filter4_d_31_6233" x="9.71436" y="11.7142" width="28.5713" height="28.5715" filterUnits="userSpaceOnUse" color-interpolation-filters="sRGB">
<feFlood flood-opacity="0" result="BackgroundImageFix"/>
<feColorMatrix in="SourceAlpha" type="matrix" values="0 0 0 0 0 0 0 0 0 0 0 0 0 0 0 0 0 0 127 0" result="hardAlpha"/>
<feOffset dy="2"/>
<feGaussianBlur stdDeviation="2"/>
<feComposite in2="hardAlpha" operator="out"/>
<feColorMatrix type="matrix" values="0 0 0 0 0 0 0 0 0 0 0 0 0 0 0 0 0 0 0.25 0"/>
<feBlend mode="normal" in2="BackgroundImageFix" result="effect1_dropShadow_31_6233"/>
<feBlend mode="normal" in="SourceGraphic" in2="effect1_dropShadow_31_6233" result="shape"/>
</filter>
<linearGradient id="paint0_linear_31_6233" x1="24" y1="0" x2="24" y2="48" gradientUnits="userSpaceOnUse">
<stop stop-color="#3BEA62"/>
<stop offset="0.510417" stop-color="#087DF7"/>
<stop offset="1" stop-color="#6B57FF"/>
</linearGradient>
<linearGradient id="paint1_linear_31_6233" x1="32.2093" y1="59.4544" x2="4.836" y2="11.6593" gradientUnits="userSpaceOnUse">
<stop stop-color="#6B57FF"/>
<stop offset="0.14" stop-color="#8953FB"/>
<stop offset="0.44" stop-color="#D64AF2"/>
<stop offset="0.59" stop-color="#FF45ED"/>
<stop offset="0.97" stop-color="#FDB60D"/>
</linearGradient>
<linearGradient id="paint2_linear_31_6233" x1="16.3612" y1="16.6114" x2="21.991" y2="40.1658" gradientUnits="userSpaceOnUse">
<stop stop-color="#6B57FF"/>
<stop offset="0.13" stop-color="#9A51F9"/>
<stop offset="0.27" stop-color="#C64CF4"/>
<stop offset="0.39" stop-color="#E548F0"/>
<stop offset="0.5" stop-color="#F846EE"/>
<stop offset="0.57" stop-color="#FF45ED"/>
<stop offset="0.63" stop-color="#FF57C9"/>
<stop offset="0.81" stop-color="#FE8A65"/>
<stop offset="0.94" stop-color="#FDAA26"/>
<stop offset="1" stop-color="#FDB60D"/>
</linearGradient>
<linearGradient id="paint3_linear_31_6233" x1="31.8788" y1="24.36" x2="26.2936" y2="8.3554" gradientUnits="userSpaceOnUse">
<stop stop-color="#6B57FF"/>
<stop offset="0.14" stop-color="#8953FB"/>
<stop offset="0.44" stop-color="#D64AF2"/>
<stop offset="0.59" stop-color="#FF45ED"/>
<stop offset="0.97" stop-color="#FDB60D"/>
</linearGradient>
<linearGradient id="paint4_linear_31_6233" x1="19.9338" y1="32.7463" x2="24.5692" y2="21.7543" gradientUnits="userSpaceOnUse">
<stop offset="0.12" stop-color="#FF45ED"/>
<stop offset="0.2" stop-color="#DF49F1"/>
<stop offset="0.3" stop-color="#BC4DF5"/>
<stop offset="0.42" stop-color="#9E51F9"/>
<stop offset="0.53" stop-color="#8854FC"/>
<stop offset="0.66" stop-color="#7855FD"/>
<stop offset="0.81" stop-color="#6E57FF"/>
<stop offset="1" stop-color="#6B57FF"/>
</linearGradient>
<clipPath id="clip0_31_6233">
<rect width="48" height="48" fill="white"/>
</clipPath>
</defs>
</svg>
