<svg width="48" height="48" viewBox="0 0 48 48" fill="none" xmlns="http://www.w3.org/2000/svg">
<g clip-path="url(#clip0_31_6253)">
<path d="M36 0H12C5.37258 0 0 5.37258 0 12V36C0 42.6274 5.37258 48 12 48H36C42.6274 48 48 42.6274 48 36V12C48 5.37258 42.6274 0 36 0Z" fill="url(#paint0_linear_31_6253)"/>
<path d="M36 0H12C5.37258 0 0 5.37258 0 12V36C0 42.6274 5.37258 48 12 48H36C42.6274 48 48 42.6274 48 36V12C48 5.37258 42.6274 0 36 0Z" fill="url(#paint1_linear_31_6253)"/>
<g filter="url(#filter0_i_31_6253)">
<path d="M36 3H12C7.02944 3 3 7.02944 3 12V36C3 40.9706 7.02944 45 12 45H36C40.9706 45 45 40.9706 45 36V12C45 7.02944 40.9706 3 36 3Z" fill="black" fill-opacity="0.7"/>
<mask id="mask0_31_6253" style="mask-type:luminance" maskUnits="userSpaceOnUse" x="6" y="6" width="36" height="36">
<path d="M42 6H6V42H42V6Z" fill="white"/>
</mask>
<g mask="url(#mask0_31_6253)">
<g filter="url(#filter1_d_31_6253)">
<path d="M29.9692 31.1725L7.54297 26.688L14.167 40.416L30.7098 37.5326L29.9692 31.1725Z" fill="url(#paint2_linear_31_6253)"/>
</g>
<g filter="url(#filter2_d_31_6253)">
<path d="M40.4574 22.2309L31.3715 12.864L7.54297 17.8869V26.688L36.9807 32.5715L40.4574 22.2309Z" fill="url(#paint3_linear_31_6253)"/>
</g>
<path d="M40.4573 22.2308L26.1704 7.50171L14.9761 10.8891L18.6412 22.0388L36.9807 32.5714L40.4573 22.2308Z" fill="url(#paint4_linear_31_6253)"/>
<g filter="url(#filter3_d_31_6253)">
<path d="M37.8893 16.704L36.5932 7.50171H31.6835H26.1704L14.9761 10.8891L18.6412 22.0388L37.8893 16.704Z" fill="url(#paint5_linear_31_6253)"/>
</g>
<g filter="url(#filter4_d_31_6253)">
<path d="M13.7144 13.7142H34.2858V34.2857H13.7144V13.7142Z" fill="black"/>
</g>
<path d="M16.2788 30.3978H23.9931V31.6835H16.2788V30.3978Z" fill="white"/>
<path d="M16.2856 16.2583H19.3028C21.7336 16.2583 23.4171 17.928 23.4171 20.1052V20.1292C23.4171 22.3063 21.7371 23.9966 19.3028 23.9966H16.2856V16.2583ZM17.9999 17.7943V22.4572H19.3165C19.6257 22.4754 19.9352 22.4282 20.2249 22.3188C20.5147 22.2094 20.7781 22.0402 20.998 21.8221C21.218 21.6041 21.3896 21.3422 21.5016 21.0535C21.6135 20.7647 21.6634 20.4556 21.6479 20.1463V20.1257C21.6636 19.8153 21.6141 19.5049 21.5025 19.2148C21.391 18.9246 21.2199 18.661 21.0002 18.4411C20.7805 18.2211 20.5172 18.0496 20.2272 17.9376C19.9372 17.8256 19.627 17.7756 19.3165 17.7909L17.9999 17.7943Z" fill="white"/>
<path d="M24.6582 16.2583H27.8296C29.6811 16.2583 30.7988 17.3554 30.7988 18.9429V18.9634C30.7988 20.76 29.4034 21.7063 27.6616 21.7063H26.3656V24.0343H24.6514L24.6582 16.2583ZM27.7165 20.1737C28.5702 20.1737 29.088 19.6629 29.088 18.9977V18.9737C29.088 18.2092 28.5565 17.8012 27.7165 17.8012H26.3656V20.1737H27.7165Z" fill="white"/>
</g>
</g>
</g>
<defs>
<filter id="filter0_i_31_6253" x="3" y="3" width="42" height="46" filterUnits="userSpaceOnUse" color-interpolation-filters="sRGB">
<feFlood flood-opacity="0" result="BackgroundImageFix"/>
<feBlend mode="normal" in="SourceGraphic" in2="BackgroundImageFix" result="shape"/>
<feColorMatrix in="SourceAlpha" type="matrix" values="0 0 0 0 0 0 0 0 0 0 0 0 0 0 0 0 0 0 127 0" result="hardAlpha"/>
<feOffset dy="4"/>
<feGaussianBlur stdDeviation="2"/>
<feComposite in2="hardAlpha" operator="arithmetic" k2="-1" k3="1"/>
<feColorMatrix type="matrix" values="0 0 0 0 0 0 0 0 0 0 0 0 0 0 0 0 0 0 0.25 0"/>
<feBlend mode="normal" in2="shape" result="effect1_innerShadow_31_6253"/>
</filter>
<filter id="filter1_d_31_6253" x="3.54297" y="24.688" width="31.167" height="21.728" filterUnits="userSpaceOnUse" color-interpolation-filters="sRGB">
<feFlood flood-opacity="0" result="BackgroundImageFix"/>
<feColorMatrix in="SourceAlpha" type="matrix" values="0 0 0 0 0 0 0 0 0 0 0 0 0 0 0 0 0 0 127 0" result="hardAlpha"/>
<feOffset dy="2"/>
<feGaussianBlur stdDeviation="2"/>
<feComposite in2="hardAlpha" operator="out"/>
<feColorMatrix type="matrix" values="0 0 0 0 0 0 0 0 0 0 0 0 0 0 0 0 0 0 0.25 0"/>
<feBlend mode="normal" in2="BackgroundImageFix" result="effect1_dropShadow_31_6253"/>
<feBlend mode="normal" in="SourceGraphic" in2="effect1_dropShadow_31_6253" result="shape"/>
</filter>
<filter id="filter2_d_31_6253" x="3.54297" y="10.864" width="40.9146" height="27.7075" filterUnits="userSpaceOnUse" color-interpolation-filters="sRGB">
<feFlood flood-opacity="0" result="BackgroundImageFix"/>
<feColorMatrix in="SourceAlpha" type="matrix" values="0 0 0 0 0 0 0 0 0 0 0 0 0 0 0 0 0 0 127 0" result="hardAlpha"/>
<feOffset dy="2"/>
<feGaussianBlur stdDeviation="2"/>
<feComposite in2="hardAlpha" operator="out"/>
<feColorMatrix type="matrix" values="0 0 0 0 0 0 0 0 0 0 0 0 0 0 0 0 0 0 0.25 0"/>
<feBlend mode="normal" in2="BackgroundImageFix" result="effect1_dropShadow_31_6253"/>
<feBlend mode="normal" in="SourceGraphic" in2="effect1_dropShadow_31_6253" result="shape"/>
</filter>
<filter id="filter3_d_31_6253" x="10.9761" y="5.50171" width="30.9131" height="22.5371" filterUnits="userSpaceOnUse" color-interpolation-filters="sRGB">
<feFlood flood-opacity="0" result="BackgroundImageFix"/>
<feColorMatrix in="SourceAlpha" type="matrix" values="0 0 0 0 0 0 0 0 0 0 0 0 0 0 0 0 0 0 127 0" result="hardAlpha"/>
<feOffset dy="2"/>
<feGaussianBlur stdDeviation="2"/>
<feComposite in2="hardAlpha" operator="out"/>
<feColorMatrix type="matrix" values="0 0 0 0 0 0 0 0 0 0 0 0 0 0 0 0 0 0 0.25 0"/>
<feBlend mode="normal" in2="BackgroundImageFix" result="effect1_dropShadow_31_6253"/>
<feBlend mode="normal" in="SourceGraphic" in2="effect1_dropShadow_31_6253" result="shape"/>
</filter>
<filter id="filter4_d_31_6253" x="9.71436" y="11.7142" width="28.5713" height="28.5715" filterUnits="userSpaceOnUse" color-interpolation-filters="sRGB">
<feFlood flood-opacity="0" result="BackgroundImageFix"/>
<feColorMatrix in="SourceAlpha" type="matrix" values="0 0 0 0 0 0 0 0 0 0 0 0 0 0 0 0 0 0 127 0" result="hardAlpha"/>
<feOffset dy="2"/>
<feGaussianBlur stdDeviation="2"/>
<feComposite in2="hardAlpha" operator="out"/>
<feColorMatrix type="matrix" values="0 0 0 0 0 0 0 0 0 0 0 0 0 0 0 0 0 0 0.25 0"/>
<feBlend mode="normal" in2="BackgroundImageFix" result="effect1_dropShadow_31_6253"/>
<feBlend mode="normal" in="SourceGraphic" in2="effect1_dropShadow_31_6253" result="shape"/>
</filter>
<linearGradient id="paint0_linear_31_6253" x1="24" y1="0" x2="24" y2="48" gradientUnits="userSpaceOnUse">
<stop stop-color="#3BEA62"/>
<stop offset="0.510417" stop-color="#087DF7"/>
<stop offset="1" stop-color="#6B57FF"/>
</linearGradient>
<linearGradient id="paint1_linear_31_6253" x1="6.8622" y1="-8.18782" x2="55.8218" y2="21.4283" gradientUnits="userSpaceOnUse">
<stop offset="0.1" stop-color="#FF45ED"/>
<stop offset="0.11" stop-color="#F846EE"/>
<stop offset="0.28" stop-color="#AC4FF7"/>
<stop offset="0.41" stop-color="#7D55FD"/>
<stop offset="0.47" stop-color="#6B57FF"/>
<stop offset="0.48" stop-color="#655DFE"/>
<stop offset="0.57" stop-color="#4482FA"/>
<stop offset="0.66" stop-color="#299EF6"/>
<stop offset="0.76" stop-color="#16B3F4"/>
<stop offset="0.85" stop-color="#0BBFF2"/>
<stop offset="0.94" stop-color="#07C3F2"/>
</linearGradient>
<linearGradient id="paint2_linear_31_6253" x1="10.855" y1="24.3463" x2="26.6607" y2="40.4812" gradientUnits="userSpaceOnUse">
<stop offset="0.1" stop-color="#FF45ED"/>
<stop offset="0.11" stop-color="#F846EE"/>
<stop offset="0.28" stop-color="#AC4FF7"/>
<stop offset="0.41" stop-color="#7D55FD"/>
<stop offset="0.47" stop-color="#6B57FF"/>
<stop offset="0.48" stop-color="#655DFE"/>
<stop offset="0.57" stop-color="#4482FA"/>
<stop offset="0.66" stop-color="#299EF6"/>
<stop offset="0.76" stop-color="#16B3F4"/>
<stop offset="0.85" stop-color="#0BBFF2"/>
<stop offset="0.94" stop-color="#07C3F2"/>
</linearGradient>
<linearGradient id="paint3_linear_31_6253" x1="12.0412" y1="33.7509" x2="23.5818" y2="24.1337" gradientUnits="userSpaceOnUse">
<stop offset="0.04" stop-color="#FF45ED"/>
<stop offset="0.05" stop-color="#FE45ED"/>
<stop offset="0.2" stop-color="#D14BF3"/>
<stop offset="0.36" stop-color="#AC4FF7"/>
<stop offset="0.51" stop-color="#9053FB"/>
<stop offset="0.67" stop-color="#7B55FD"/>
<stop offset="0.82" stop-color="#6F57FF"/>
<stop offset="0.97" stop-color="#6B57FF"/>
</linearGradient>
<linearGradient id="paint4_linear_31_6253" x1="26.2835" y1="15.4594" x2="34.0424" y2="31.3166" gradientUnits="userSpaceOnUse">
<stop offset="0.2" stop-color="#FF45ED"/>
<stop offset="0.29" stop-color="#F646EE"/>
<stop offset="0.43" stop-color="#DD49F1"/>
<stop offset="0.61" stop-color="#B64EF6"/>
<stop offset="0.82" stop-color="#7F55FD"/>
<stop offset="0.89" stop-color="#6B57FF"/>
</linearGradient>
<linearGradient id="paint5_linear_31_6253" x1="16.8892" y1="16.1074" x2="36.3807" y2="11.3828" gradientUnits="userSpaceOnUse">
<stop offset="0.1" stop-color="#FF45ED"/>
<stop offset="0.17" stop-color="#F64AED"/>
<stop offset="0.29" stop-color="#DD56EE"/>
<stop offset="0.44" stop-color="#B56AEE"/>
<stop offset="0.62" stop-color="#7E87F0"/>
<stop offset="0.81" stop-color="#38AAF1"/>
<stop offset="0.94" stop-color="#07C3F2"/>
</linearGradient>
<clipPath id="clip0_31_6253">
<rect width="48" height="48" fill="white"/>
</clipPath>
</defs>
</svg>
