<svg width="48" height="48" viewBox="0 0 48 48" fill="none" xmlns="http://www.w3.org/2000/svg">
<g clip-path="url(#clip0_31_6274)">
<path d="M36 0H12C5.37258 0 0 5.37258 0 12V36C0 42.6274 5.37258 48 12 48H36C42.6274 48 48 42.6274 48 36V12C48 5.37258 42.6274 0 36 0Z" fill="url(#paint0_linear_31_6274)"/>
<path d="M36 0H12C5.37258 0 0 5.37258 0 12V36C0 42.6274 5.37258 48 12 48H36C42.6274 48 48 42.6274 48 36V12C48 5.37258 42.6274 0 36 0Z" fill="url(#paint1_linear_31_6274)"/>
<g filter="url(#filter0_i_31_6274)">
<path d="M36 3H12C7.02944 3 3 7.02944 3 12V36C3 40.9706 7.02944 45 12 45H36C40.9706 45 45 40.9706 45 36V12C45 7.02944 40.9706 3 36 3Z" fill="black" fill-opacity="0.7"/>
<mask id="mask0_31_6274" style="mask-type:luminance" maskUnits="userSpaceOnUse" x="6" y="6" width="36" height="36">
<path d="M42 6H6V42H42V6Z" fill="white"/>
</mask>
<g mask="url(#mask0_31_6274)">
<g filter="url(#filter1_d_31_6274)">
<path d="M39.1921 15.0788L28.1144 7.54285L7.54297 22.152L12.7544 40.4572L35.239 35.8971L39.1921 15.0788Z" fill="url(#paint2_linear_31_6274)"/>
</g>
<g filter="url(#filter2_d_31_6274)">
<path d="M39.1922 15.0788L28.1144 7.54285L25.3887 14.9348V30.0034H40.4571L39.1922 15.0788Z" fill="url(#paint3_linear_31_6274)"/>
</g>
<g filter="url(#filter3_d_31_6274)">
<path d="M13.7144 13.7142H34.2858V34.2857H13.7144V13.7142Z" fill="black"/>
</g>
<path d="M16.2788 30.3976H23.9931V31.6834H16.2788V30.3976Z" fill="white"/>
<path d="M16.2856 16.2582H19.3028C21.7336 16.2582 23.4171 17.928 23.4171 20.1051V20.1291C23.4171 22.3062 21.7371 23.9966 19.3028 23.9966H16.2856V16.2582ZM18 17.7942V22.4571H19.3165C19.6257 22.4753 19.9352 22.4282 20.2249 22.3188C20.5147 22.2094 20.7781 22.0401 20.998 21.8221C21.218 21.6041 21.3896 21.3422 21.5016 21.0534C21.6135 20.7647 21.6634 20.4556 21.6479 20.1462V20.1257C21.6636 19.8152 21.6141 19.5049 21.5025 19.2147C21.391 18.9246 21.2199 18.661 21.0002 18.441C20.7805 18.2211 20.5172 18.0495 20.2272 17.9376C19.9372 17.8256 19.627 17.7756 19.3165 17.7908L18 17.7942Z" fill="white"/>
<path d="M26.6025 17.8183H24.2471V16.248H30.6619V17.8217L28.3065 17.8183V23.9931H26.6025V17.8183Z" fill="white"/>
</g>
</g>
</g>
<defs>
<filter id="filter0_i_31_6274" x="3" y="3" width="42" height="46" filterUnits="userSpaceOnUse" color-interpolation-filters="sRGB">
<feFlood flood-opacity="0" result="BackgroundImageFix"/>
<feBlend mode="normal" in="SourceGraphic" in2="BackgroundImageFix" result="shape"/>
<feColorMatrix in="SourceAlpha" type="matrix" values="0 0 0 0 0 0 0 0 0 0 0 0 0 0 0 0 0 0 127 0" result="hardAlpha"/>
<feOffset dy="4"/>
<feGaussianBlur stdDeviation="2"/>
<feComposite in2="hardAlpha" operator="arithmetic" k2="-1" k3="1"/>
<feColorMatrix type="matrix" values="0 0 0 0 0 0 0 0 0 0 0 0 0 0 0 0 0 0 0.25 0"/>
<feBlend mode="normal" in2="shape" result="effect1_innerShadow_31_6274"/>
</filter>
<filter id="filter1_d_31_6274" x="3.54297" y="5.54285" width="39.6489" height="40.9144" filterUnits="userSpaceOnUse" color-interpolation-filters="sRGB">
<feFlood flood-opacity="0" result="BackgroundImageFix"/>
<feColorMatrix in="SourceAlpha" type="matrix" values="0 0 0 0 0 0 0 0 0 0 0 0 0 0 0 0 0 0 127 0" result="hardAlpha"/>
<feOffset dy="2"/>
<feGaussianBlur stdDeviation="2"/>
<feComposite in2="hardAlpha" operator="out"/>
<feColorMatrix type="matrix" values="0 0 0 0 0 0 0 0 0 0 0 0 0 0 0 0 0 0 0.25 0"/>
<feBlend mode="normal" in2="BackgroundImageFix" result="effect1_dropShadow_31_6274"/>
<feBlend mode="normal" in="SourceGraphic" in2="effect1_dropShadow_31_6274" result="shape"/>
</filter>
<filter id="filter2_d_31_6274" x="21.3887" y="5.54285" width="23.0684" height="30.4606" filterUnits="userSpaceOnUse" color-interpolation-filters="sRGB">
<feFlood flood-opacity="0" result="BackgroundImageFix"/>
<feColorMatrix in="SourceAlpha" type="matrix" values="0 0 0 0 0 0 0 0 0 0 0 0 0 0 0 0 0 0 127 0" result="hardAlpha"/>
<feOffset dy="2"/>
<feGaussianBlur stdDeviation="2"/>
<feComposite in2="hardAlpha" operator="out"/>
<feColorMatrix type="matrix" values="0 0 0 0 0 0 0 0 0 0 0 0 0 0 0 0 0 0 0.25 0"/>
<feBlend mode="normal" in2="BackgroundImageFix" result="effect1_dropShadow_31_6274"/>
<feBlend mode="normal" in="SourceGraphic" in2="effect1_dropShadow_31_6274" result="shape"/>
</filter>
<filter id="filter3_d_31_6274" x="9.71436" y="11.7142" width="28.5713" height="28.5715" filterUnits="userSpaceOnUse" color-interpolation-filters="sRGB">
<feFlood flood-opacity="0" result="BackgroundImageFix"/>
<feColorMatrix in="SourceAlpha" type="matrix" values="0 0 0 0 0 0 0 0 0 0 0 0 0 0 0 0 0 0 127 0" result="hardAlpha"/>
<feOffset dy="2"/>
<feGaussianBlur stdDeviation="2"/>
<feComposite in2="hardAlpha" operator="out"/>
<feColorMatrix type="matrix" values="0 0 0 0 0 0 0 0 0 0 0 0 0 0 0 0 0 0 0.25 0"/>
<feBlend mode="normal" in2="BackgroundImageFix" result="effect1_dropShadow_31_6274"/>
<feBlend mode="normal" in="SourceGraphic" in2="effect1_dropShadow_31_6274" result="shape"/>
</filter>
<linearGradient id="paint0_linear_31_6274" x1="24" y1="0" x2="24" y2="48" gradientUnits="userSpaceOnUse">
<stop stop-color="#3BEA62"/>
<stop offset="0.510417" stop-color="#087DF7"/>
<stop offset="1" stop-color="#6B57FF"/>
</linearGradient>
<linearGradient id="paint1_linear_31_6274" x1="-0.951577" y1="29.99" x2="47.5609" y2="16.9749" gradientUnits="userSpaceOnUse">
<stop offset="0.12" stop-color="#6B57FF"/>
<stop offset="0.54" stop-color="#FF45ED"/>
<stop offset="0.85" stop-color="#DD1265"/>
</linearGradient>
<linearGradient id="paint2_linear_31_6274" x1="6.91552" y1="28.1074" x2="39.0654" y2="19.8137" gradientUnits="userSpaceOnUse">
<stop offset="0.12" stop-color="#6B57FF"/>
<stop offset="0.54" stop-color="#FF45ED"/>
<stop offset="0.85" stop-color="#DD1265"/>
</linearGradient>
<linearGradient id="paint3_linear_31_6274" x1="29.1327" y1="25.8377" x2="39.3568" y2="11.8217" gradientUnits="userSpaceOnUse">
<stop offset="0.19" stop-color="#DD1265"/>
<stop offset="0.29" stop-color="#DE146A"/>
<stop offset="0.41" stop-color="#E21977"/>
<stop offset="0.53" stop-color="#E7218E"/>
<stop offset="0.66" stop-color="#EF2DAD"/>
<stop offset="0.79" stop-color="#F93CD5"/>
<stop offset="0.85" stop-color="#FF45ED"/>
</linearGradient>
<clipPath id="clip0_31_6274">
<rect width="48" height="48" fill="white"/>
</clipPath>
</defs>
</svg>
