<svg width="48" height="48" viewBox="0 0 48 48" fill="none" xmlns="http://www.w3.org/2000/svg">
<g clip-path="url(#clip0_31_6312)">
<path d="M36 0H12C5.37258 0 0 5.37258 0 12V36C0 42.6274 5.37258 48 12 48H36C42.6274 48 48 42.6274 48 36V12C48 5.37258 42.6274 0 36 0Z" fill="url(#paint0_linear_31_6312)"/>
<g filter="url(#filter0_i_31_6312)">
<path d="M36 3H12C7.02944 3 3 7.02944 3 12V36C3 40.9706 7.02944 45 12 45H36C40.9706 45 45 40.9706 45 36V12C45 7.02944 40.9706 3 36 3Z" fill="black" fill-opacity="0.7"/>
<g filter="url(#filter1_d_31_6312)">
<path d="M11.25 11.9999C9.90045 11.9999 9 12.9018 9 14.2499V33.7497C9 35.0978 9.9063 35.9996 11.25 35.9996H36.7497C37.566 35.9996 38.9996 35.0998 38.9996 33.7497V14.2499C38.9996 12.8998 38.0962 11.9999 36.7497 11.9999H11.25ZM17.2499 20.9998C18.4926 20.9998 19.4998 22.0071 19.4998 23.2498C19.4998 24.4925 18.4926 25.4997 17.2499 25.4997C16.0072 25.4997 14.9999 24.4925 14.9999 23.2498C14.9999 22.0071 16.0072 20.9998 17.2499 20.9998ZM30.7497 20.9998C31.9924 20.9998 32.9997 22.0071 32.9997 23.2498C32.9997 24.4925 31.9924 25.4997 30.7497 25.4997C29.5071 25.4997 28.4997 24.4925 28.4997 23.2498C28.4997 22.0071 29.5071 20.9998 30.7497 20.9998Z" fill="#141414"/>
<path d="M11.249 15.7673L11.2491 28.5173C11.2491 29.2669 11.9991 30.0173 12.749 30.0173H35.249C35.9993 30.0173 36.749 29.2706 36.749 28.5173V15.7673C36.749 15.0183 36.0024 14.2673 35.249 14.2673H12.749C11.9981 14.2673 11.249 15.0144 11.249 15.7673ZM17.2491 21.0174C18.4918 21.0174 19.4991 22.0247 19.4991 23.2674C19.4991 24.51 18.4918 25.5174 17.2491 25.5174C16.0065 25.5174 14.9991 24.51 14.9991 23.2674C14.9991 22.0247 16.0065 21.0174 17.2491 21.0174ZM30.7491 21.0174C31.9918 21.0174 32.9991 22.0247 32.9991 23.2674C32.9991 24.51 31.9918 25.5174 30.7491 25.5174C29.5065 25.5174 28.4991 24.51 28.4991 23.2674C28.4991 22.0247 29.5065 21.0174 30.7491 21.0174Z" fill="#58BEB1"/>
<path d="M11.25 36.0189L14.2499 30.7689H33.75L36.7499 36.0189H11.25Z" fill="#3F3F3F"/>
<path d="M17.251 34.5142C18.0794 34.5142 18.751 33.8426 18.751 33.0142C18.751 32.1858 18.0794 31.5142 17.251 31.5142C16.4225 31.5142 15.751 32.1858 15.751 33.0142C15.751 33.8426 16.4225 34.5142 17.251 34.5142Z" fill="#141414"/>
<path d="M30.7495 34.5142C31.578 34.5142 32.2495 33.8426 32.2495 33.0142C32.2495 32.1858 31.578 31.5142 30.7495 31.5142C29.9211 31.5142 29.2495 32.1858 29.2495 33.0142C29.2495 33.8426 29.9211 34.5142 30.7495 34.5142Z" fill="#141414"/>
<path d="M17.2512 20.2583C15.6001 20.2583 14.251 21.6094 14.251 23.2562C14.251 24.907 15.5975 26.2561 17.2512 26.2561H30.7512C32.3975 26.2561 33.7511 24.9083 33.7511 23.2604V23.2547C33.7511 21.607 32.3975 20.2546 30.7512 20.2548L17.2512 20.2583ZM17.2512 21.0061C18.4938 21.0061 19.5012 22.0135 19.5012 23.2561C19.5012 24.4987 18.4938 25.5061 17.2512 25.5061C16.0085 25.5061 15.0011 24.4987 15.0011 23.2561C15.0011 22.0135 16.0085 21.0061 17.2512 21.0061ZM30.7512 21.0061C31.9938 21.0061 33.0012 22.0135 33.0012 23.2561C33.0012 24.4987 31.9938 25.5061 30.7512 25.5061C29.5085 25.5061 28.5012 24.4987 28.5012 23.2561C28.5012 22.0135 29.5085 21.0061 30.7512 21.0061Z" fill="#141414"/>
<path d="M27.7499 21.7606H20.25V24.7605H27.7499V21.7606Z" fill="#DBE2E3"/>
</g>
</g>
</g>
<defs>
<filter id="filter0_i_31_6312" x="3" y="3" width="42" height="46" filterUnits="userSpaceOnUse" color-interpolation-filters="sRGB">
<feFlood flood-opacity="0" result="BackgroundImageFix"/>
<feBlend mode="normal" in="SourceGraphic" in2="BackgroundImageFix" result="shape"/>
<feColorMatrix in="SourceAlpha" type="matrix" values="0 0 0 0 0 0 0 0 0 0 0 0 0 0 0 0 0 0 127 0" result="hardAlpha"/>
<feOffset dy="4"/>
<feGaussianBlur stdDeviation="2"/>
<feComposite in2="hardAlpha" operator="arithmetic" k2="-1" k3="1"/>
<feColorMatrix type="matrix" values="0 0 0 0 0 0 0 0 0 0 0 0 0 0 0 0 0 0 0.25 0"/>
<feBlend mode="normal" in2="shape" result="effect1_innerShadow_31_6312"/>
</filter>
<filter id="filter1_d_31_6312" x="5" y="9.99994" width="37.9995" height="32.019" filterUnits="userSpaceOnUse" color-interpolation-filters="sRGB">
<feFlood flood-opacity="0" result="BackgroundImageFix"/>
<feColorMatrix in="SourceAlpha" type="matrix" values="0 0 0 0 0 0 0 0 0 0 0 0 0 0 0 0 0 0 127 0" result="hardAlpha"/>
<feOffset dy="2"/>
<feGaussianBlur stdDeviation="2"/>
<feComposite in2="hardAlpha" operator="out"/>
<feColorMatrix type="matrix" values="0 0 0 0 0 0 0 0 0 0 0 0 0 0 0 0 0 0 0.25 0"/>
<feBlend mode="normal" in2="BackgroundImageFix" result="effect1_dropShadow_31_6312"/>
<feBlend mode="normal" in="SourceGraphic" in2="effect1_dropShadow_31_6312" result="shape"/>
</filter>
<linearGradient id="paint0_linear_31_6312" x1="23.8541" y1="48.0368" x2="23.8541" y2="-0.0310888" gradientUnits="userSpaceOnUse">
<stop stop-color="#2CA0B9"/>
<stop offset="1" stop-color="#87DEAA"/>
</linearGradient>
<clipPath id="clip0_31_6312">
<rect width="48" height="48" fill="white"/>
</clipPath>
</defs>
</svg>
