<svg width="48" height="48" viewBox="0 0 48 48" fill="none" xmlns="http://www.w3.org/2000/svg">
<g clip-path="url(#clip0_31_6344)">
<path d="M36 0H12C5.37258 0 0 5.37258 0 12V36C0 42.6274 5.37258 48 12 48H36C42.6274 48 48 42.6274 48 36V12C48 5.37258 42.6274 0 36 0Z" fill="url(#paint0_linear_31_6344)"/>
<g filter="url(#filter0_i_31_6344)">
<path d="M36 3H12C7.02944 3 3 7.02944 3 12V36C3 40.9706 7.02944 45 12 45H36C40.9706 45 45 40.9706 45 36V12C45 7.02944 40.9706 3 36 3Z" fill="black" fill-opacity="0.7"/>
<g filter="url(#filter1_d_31_6344)">
<path d="M37.3229 19.1537C36.6981 17.6611 35.4308 16.0494 34.4383 15.5399C35.146 16.9007 35.6372 18.362 35.8945 19.8721L35.8971 19.896C34.2714 15.8733 31.5156 14.2487 29.2636 10.7159C29.1497 10.5373 29.0358 10.3583 28.9248 10.1693C28.8614 10.0613 28.8106 9.96407 28.7664 9.87456C28.6731 9.69501 28.6011 9.50522 28.552 9.3091C28.5521 9.30006 28.5488 9.29129 28.5428 9.2845C28.5367 9.27771 28.5284 9.27336 28.5194 9.27227C28.5105 9.26984 28.5011 9.26984 28.4923 9.27227C28.4904 9.27227 28.4874 9.27557 28.4852 9.27632C28.483 9.27707 28.4782 9.28037 28.4748 9.28184L28.4804 9.27227C24.8687 11.372 23.6425 15.2585 23.5312 17.2035C22.0884 17.3018 20.7088 17.8295 19.5726 18.718C19.4541 18.6183 19.3303 18.5251 19.2016 18.4387C18.874 17.3 18.86 16.0949 19.1612 14.949C17.8348 15.587 16.6562 16.4914 15.7001 17.6051H15.6934C15.1235 16.8878 15.1636 14.5228 15.1963 14.0288C15.0277 14.0961 14.8668 14.1809 14.7162 14.2819C14.2131 14.6384 13.7428 15.0384 13.3108 15.4773C12.8186 15.9729 12.3689 16.5085 11.9667 17.0786C11.0423 18.3796 10.3866 19.8491 10.0375 21.4031L10.0182 21.4974C9.9911 21.623 9.89352 22.2522 9.87684 22.3889C9.87684 22.3996 9.87462 22.4095 9.8735 22.4202C9.74761 23.0698 9.66965 23.7276 9.64014 24.3884V24.4621C9.64647 28.0349 11.0016 31.4755 13.4378 34.1047C15.8741 36.7339 19.2146 38.3606 22.7998 38.664C26.385 38.967 29.9544 37.9249 32.8035 35.7425C35.6525 33.5602 37.574 30.3968 38.189 26.8765C38.213 26.6923 38.2325 26.51 38.2542 26.3239C38.5501 23.8933 38.2295 21.4277 37.3214 19.1515L37.3229 19.1537ZM20.7502 30.3305C20.8173 30.3625 20.8804 30.3972 20.9494 30.4277L20.9594 30.434C20.8897 30.4008 20.8199 30.3663 20.7502 30.3305ZM35.8975 19.9001V19.8865L35.9001 19.9016L35.8975 19.9001Z" fill="url(#paint1_linear_31_6344)"/>
</g>
<path d="M37.3229 19.1538C36.6981 17.6611 35.4307 16.0494 34.4383 15.5399C35.146 16.9007 35.6372 18.3621 35.8945 19.8721V19.8857L35.8971 19.9008C37.0056 23.0502 36.8453 26.503 35.4497 29.5377C33.8017 33.0488 29.8141 36.6475 23.5702 36.4707C16.8253 36.2809 10.8818 31.3096 9.77255 24.8003C9.57035 23.7736 9.77255 23.2531 9.87422 22.4187C9.73554 23.0668 9.65814 23.7264 9.64307 24.3888V24.4625C9.6494 28.0353 11.0045 31.4759 13.4408 34.1051C15.8771 36.7343 19.2175 38.361 22.8028 38.6644C26.388 38.9674 29.9574 37.9252 32.8064 35.7429C35.6554 33.5606 37.577 30.3971 38.1916 26.8769C38.216 26.6927 38.2355 26.5104 38.2572 26.3243C38.5531 23.8937 38.2325 21.4281 37.3243 19.1519L37.3229 19.1538Z" fill="url(#paint2_radial_31_6344)"/>
<path d="M30.3333 20.83C30.3644 20.8517 30.3934 20.8734 30.4227 20.8952C30.0615 20.2592 29.6119 19.677 29.0871 19.1656C24.6165 14.7266 27.9158 9.54348 28.4719 9.27824L28.4775 9.27014C24.8658 11.3699 23.6396 15.2563 23.5283 17.2014C23.696 17.19 23.8622 17.176 24.0336 17.176C25.315 17.1784 26.5729 17.5178 27.6794 18.1594C28.7859 18.8011 29.7015 19.7223 30.3333 20.8292V20.83Z" fill="#FF980E"/>
<path d="M24.0409 21.7177C24.0171 22.0728 22.7535 23.2977 22.3116 23.2977C18.2232 23.2977 17.5591 25.7537 17.5591 25.7537C17.7401 27.8218 19.1915 29.5259 20.946 30.4248C21.0261 30.466 21.1074 30.5032 21.1886 30.5397C21.3293 30.6016 21.4701 30.6588 21.6108 30.7114C22.2129 30.9229 22.8436 31.0438 23.4818 31.0698C30.6495 31.4036 32.0371 22.5602 26.865 19.9925C28.085 19.8349 29.3205 20.1328 30.332 20.8284C29.7003 19.7214 28.7846 18.8003 27.6781 18.1586C26.5716 17.5169 25.3137 17.1776 24.0323 17.1752C23.8617 17.1752 23.6947 17.1892 23.5271 17.2006C22.0842 17.2988 20.7047 17.8265 19.5684 18.715C19.7877 18.8992 20.0352 19.1453 20.5564 19.6555C21.5322 20.6099 24.0346 21.5987 24.0401 21.7147L24.0409 21.7177Z" fill="#6B3DD7"/>
<path d="M18.8986 18.2438C19.0151 18.3175 19.1111 18.3816 19.1954 18.4394C18.8678 17.3008 18.8538 16.0957 19.1549 14.9498C17.8286 15.5877 16.65 16.4921 15.6938 17.6058C15.764 17.6039 17.8498 17.5667 18.8986 18.2438Z" fill="#FF7139"/>
<path d="M37.3229 19.1538C36.6981 17.6611 35.4307 16.0494 34.4383 15.5399C35.146 16.9007 35.6372 18.3621 35.8945 19.8721V19.8857L35.8971 19.9008C37.0056 23.0502 36.8453 26.503 35.4497 29.5377C33.8017 33.0487 29.8141 36.6475 23.5702 36.4707C16.8253 36.2809 10.8818 31.3096 9.77255 24.8003C9.57035 23.7736 9.77255 23.2531 9.87422 22.4187C9.73554 23.0668 9.65814 23.7264 9.64307 24.3888V24.4625C9.6494 28.0353 11.0045 31.4759 13.4408 34.1051C15.8771 36.7343 19.2175 38.361 22.8028 38.6644C26.388 38.9674 29.9574 37.9252 32.8064 35.7429C35.6554 33.5606 37.577 30.3971 38.1916 26.8769C38.216 26.6927 38.2355 26.5104 38.2572 26.3243C38.5531 23.8937 38.2325 21.4281 37.3243 19.1519L37.3229 19.1538Z" fill="#FF3647"/>
<path d="M37.3229 19.1538C36.6981 17.6611 35.4307 16.0494 34.4383 15.5399C35.146 16.9007 35.6372 18.3621 35.8945 19.8721V19.8857L35.8971 19.9008C37.0056 23.0502 36.8453 26.503 35.4497 29.5377C33.8017 33.0487 29.8141 36.6475 23.5702 36.4707C16.8253 36.2809 10.8818 31.3096 9.77255 24.8003C9.57035 23.7736 9.77255 23.2531 9.87422 22.4187C9.73554 23.0668 9.65814 23.7264 9.64307 24.3888V24.4625C9.6494 28.0353 11.0045 31.4759 13.4408 34.1051C15.8771 36.7343 19.2175 38.361 22.8028 38.6644C26.388 38.9674 29.9574 37.9252 32.8064 35.7429C35.6554 33.5606 37.577 30.3971 38.1916 26.8769C38.216 26.6927 38.2355 26.5104 38.2572 26.3243C38.5531 23.8937 38.2325 21.4281 37.3243 19.1519L37.3229 19.1538Z" fill="black" fill-opacity="0.2"/>
<path d="M37.3229 19.1538C36.6981 17.6611 35.4307 16.0494 34.4383 15.5399C35.146 16.9007 35.6372 18.3621 35.8945 19.8721V19.8857L35.8971 19.9008C37.0056 23.0502 36.8453 26.503 35.4497 29.5377C33.8017 33.0487 29.8141 36.6475 23.5702 36.4707C16.8253 36.2809 10.8818 31.3096 9.77255 24.8003C9.57035 23.7736 9.77255 23.2531 9.87422 22.4187C9.73554 23.0668 9.65814 23.7264 9.64307 24.3888V24.4625C9.6494 28.0353 11.0045 31.4759 13.4408 34.1051C15.8771 36.7343 19.2175 38.361 22.8028 38.6644C26.388 38.9674 29.9574 37.9252 32.8064 35.7429C35.6554 33.5606 37.577 30.3971 38.1916 26.8769C38.216 26.6927 38.2355 26.5104 38.2572 26.3243C38.5531 23.8937 38.2325 21.4281 37.3243 19.1519L37.3229 19.1538Z" fill="#FF5634"/>
<path d="M9.76964 24.8011C10.8793 31.3104 16.8224 36.2836 23.5672 36.4714C29.8112 36.6468 33.7995 33.0477 35.4467 29.5385C36.8423 26.5038 37.0027 23.0509 35.8942 19.9016V19.888C35.8942 19.8773 35.8919 19.871 35.8942 19.8743L35.8967 19.8983C36.4069 23.2052 34.7129 26.4076 32.0643 28.5773L32.0561 28.5958C26.8955 32.7695 21.9574 31.1133 20.9594 30.4377C20.8897 30.4045 20.8199 30.37 20.7502 30.3342C17.7417 28.9063 16.4985 26.1862 16.7656 23.8507C16.0515 23.8611 15.3496 23.6657 14.7451 23.2881C14.1405 22.9105 13.6592 22.3669 13.3594 21.7232C14.1492 21.2429 15.0497 20.9713 15.9752 20.9344C16.9007 20.8975 17.8202 21.0965 18.6462 21.5125C20.3489 22.2799 22.2863 22.3555 24.0443 21.7232C24.0388 21.6072 21.5363 20.6181 20.5606 19.664C20.0393 19.1538 19.7919 18.9081 19.5726 18.7235C19.4541 18.6238 19.3303 18.5306 19.2016 18.4443C19.1163 18.3864 19.0202 18.3238 18.9048 18.2486C17.856 17.5716 15.7702 17.6088 15.7012 17.6106H15.6945C15.1247 16.8934 15.1648 14.5284 15.1974 14.0344C15.0288 14.1016 14.8679 14.1865 14.7173 14.2875C14.2142 14.644 13.744 15.044 13.312 15.4828C12.8179 15.977 12.3664 16.5115 11.9623 17.0805C11.0379 18.3815 10.3822 19.851 10.033 21.4049C10.026 21.434 9.51512 23.6517 9.76701 24.8018L9.76964 24.8011Z" fill="#FF5634"/>
<path d="M29.0865 19.1648C29.6115 19.6768 30.0611 20.2597 30.4221 20.8962C30.5011 20.9555 30.575 21.0145 30.6377 21.0716C33.8977 24.0555 32.1896 28.2734 32.0623 28.5718C34.7106 26.4054 36.403 23.2008 35.8948 19.8928C34.2683 15.8663 31.5095 14.2418 29.2612 10.709C29.1474 10.5303 29.0335 10.3513 28.9225 10.1623C28.8591 10.0544 28.8082 9.95713 28.7641 9.86758C28.6707 9.68803 28.5988 9.49824 28.5497 9.30211C28.5497 9.29308 28.5465 9.28434 28.5404 9.27751C28.5344 9.27073 28.5261 9.26638 28.517 9.26529C28.5082 9.26289 28.4988 9.26289 28.4899 9.26529C28.4881 9.26529 28.4851 9.26859 28.4829 9.26934C28.4807 9.27009 28.4758 9.27339 28.4725 9.27485C27.9164 9.53679 24.6178 14.7232 29.0884 19.1586L29.0865 19.1648Z" fill="#FFF44F"/>
<path d="M30.6373 21.073C30.5746 21.0159 30.5007 20.957 30.4217 20.8977C30.3924 20.8759 30.3635 20.8542 30.3323 20.8325C29.3209 20.1368 28.0854 19.839 26.8653 19.9966C32.0371 22.5642 30.6495 31.4054 23.4821 31.0739C22.8439 31.0478 22.2133 30.927 21.6111 30.7154C21.4704 30.6631 21.3297 30.6059 21.189 30.5438C21.1077 30.5069 21.0264 30.4701 20.9463 30.4288L20.9563 30.4351C21.9558 31.1125 26.8924 32.7677 32.053 28.5932L32.0612 28.5748C32.1899 28.2764 33.898 24.0584 30.6365 21.0745L30.6373 21.073Z" fill="#FF980E"/>
<path d="M17.5596 25.7515C17.5596 25.7515 18.2233 23.2955 22.3121 23.2955C22.754 23.2955 24.0187 22.0706 24.0414 21.7155C22.2833 22.3478 20.3459 22.2722 18.6433 21.5048C17.8172 21.0888 16.8977 20.8898 15.9722 20.9266C15.0468 20.9635 14.1463 21.2351 13.3564 21.7155C13.6562 22.3592 14.1375 22.9028 14.7421 23.2804C15.3466 23.658 16.0485 23.8534 16.7626 23.8429C16.4962 26.1773 17.7391 28.8971 20.7472 30.3264C20.8144 30.3585 20.8774 30.3931 20.9464 30.4237C19.1905 29.523 17.7406 27.8196 17.5596 25.7526V25.7515Z" fill="#FF980E"/>
</g>
</g>
<defs>
<filter id="filter0_i_31_6344" x="3" y="3" width="42" height="46" filterUnits="userSpaceOnUse" color-interpolation-filters="sRGB">
<feFlood flood-opacity="0" result="BackgroundImageFix"/>
<feBlend mode="normal" in="SourceGraphic" in2="BackgroundImageFix" result="shape"/>
<feColorMatrix in="SourceAlpha" type="matrix" values="0 0 0 0 0 0 0 0 0 0 0 0 0 0 0 0 0 0 127 0" result="hardAlpha"/>
<feOffset dy="4"/>
<feGaussianBlur stdDeviation="2"/>
<feComposite in2="hardAlpha" operator="arithmetic" k2="-1" k3="1"/>
<feColorMatrix type="matrix" values="0 0 0 0 0 0 0 0 0 0 0 0 0 0 0 0 0 0 0.25 0"/>
<feBlend mode="normal" in2="shape" result="effect1_innerShadow_31_6344"/>
</filter>
<filter id="filter1_d_31_6344" x="5.64014" y="7.27045" width="36.7212" height="37.445" filterUnits="userSpaceOnUse" color-interpolation-filters="sRGB">
<feFlood flood-opacity="0" result="BackgroundImageFix"/>
<feColorMatrix in="SourceAlpha" type="matrix" values="0 0 0 0 0 0 0 0 0 0 0 0 0 0 0 0 0 0 127 0" result="hardAlpha"/>
<feOffset dy="2"/>
<feGaussianBlur stdDeviation="2"/>
<feComposite in2="hardAlpha" operator="out"/>
<feColorMatrix type="matrix" values="0 0 0 0 0 0 0 0 0 0 0 0 0 0 0 0 0 0 0.25 0"/>
<feBlend mode="normal" in2="BackgroundImageFix" result="effect1_dropShadow_31_6344"/>
<feBlend mode="normal" in="SourceGraphic" in2="effect1_dropShadow_31_6344" result="shape"/>
</filter>
<linearGradient id="paint0_linear_31_6344" x1="48" y1="0" x2="1.58188" y2="49.4839" gradientUnits="userSpaceOnUse">
<stop offset="0.169646" stop-color="#FF8B16"/>
<stop offset="0.35725" stop-color="#FF672A"/>
<stop offset="0.597842" stop-color="#FF3647"/>
<stop offset="0.825545" stop-color="#E31587"/>
</linearGradient>
<linearGradient id="paint1_linear_31_6344" x1="35.4196" y1="13.8328" x2="11.7114" y2="36.87" gradientUnits="userSpaceOnUse">
<stop offset="0.048" stop-color="#FFF44F"/>
<stop offset="0.111" stop-color="#FFE847"/>
<stop offset="0.225" stop-color="#FFC830"/>
<stop offset="0.368" stop-color="#FF980E"/>
<stop offset="0.401" stop-color="#FF8B16"/>
<stop offset="0.462" stop-color="#FF672A"/>
<stop offset="0.534" stop-color="#FF3647"/>
<stop offset="0.705" stop-color="#E31587"/>
</linearGradient>
<radialGradient id="paint2_radial_31_6344" cx="0" cy="0" r="1" gradientUnits="userSpaceOnUse" gradientTransform="translate(34.4958 12.5855) scale(29.977 29.7653)">
<stop offset="0.129" stop-color="#FFBD4F"/>
<stop offset="0.186" stop-color="#FFAC31"/>
<stop offset="0.247" stop-color="#FF9D17"/>
<stop offset="0.283" stop-color="#FF980E"/>
<stop offset="0.403" stop-color="#FF563B"/>
<stop offset="0.467" stop-color="#FF3750"/>
<stop offset="0.71" stop-color="#F5156C"/>
<stop offset="0.782" stop-color="#EB0878"/>
<stop offset="0.86" stop-color="#E50080"/>
</radialGradient>
<clipPath id="clip0_31_6344">
<rect width="48" height="48" fill="white"/>
</clipPath>
</defs>
</svg>
