<svg width="48" height="48" viewBox="0 0 48 48" fill="none" xmlns="http://www.w3.org/2000/svg">
<g clip-path="url(#clip0_31_6369)">
<path d="M36 0H12C5.37258 0 0 5.37258 0 12V36C0 42.6274 5.37258 48 12 48H36C42.6274 48 48 42.6274 48 36V12C48 5.37258 42.6274 0 36 0Z" fill="url(#paint0_linear_31_6369)"/>
<path d="M36 0H12C5.37258 0 0 5.37258 0 12V36C0 42.6274 5.37258 48 12 48H36C42.6274 48 48 42.6274 48 36V12C48 5.37258 42.6274 0 36 0Z" fill="url(#paint1_linear_31_6369)"/>
<g filter="url(#filter0_i_31_6369)">
<path d="M36 3H12C7.02944 3 3 7.02944 3 12V36C3 40.9706 7.02944 45 12 45H36C40.9706 45 45 40.9706 45 36V12C45 7.02944 40.9706 3 36 3Z" fill="black" fill-opacity="0.7"/>
<mask id="mask0_31_6369" style="mask-type:luminance" maskUnits="userSpaceOnUse" x="6" y="6" width="36" height="36">
<path d="M42 6H6V42H42V6Z" fill="white"/>
</mask>
<g mask="url(#mask0_31_6369)">
<path fill-rule="evenodd" clip-rule="evenodd" d="M37.0312 29.9531C37.0312 30.7349 36.6772 31.509 35.9894 32.2313C35.3015 32.9535 34.2933 33.6098 33.0223 34.1626C31.7513 34.7154 30.2424 35.1539 28.5817 35.4531C26.9211 35.7522 25.1412 35.9062 23.3438 35.9062C21.5463 35.9062 19.7664 35.7522 18.1058 35.4531C16.4451 35.1539 14.9362 34.7154 13.6652 34.1626C12.3942 33.6098 11.386 32.9535 10.6982 32.2313C10.0103 31.509 9.65625 30.7349 9.65625 29.9531C9.65625 29.1713 10.0103 28.3972 10.6982 27.675C11.386 26.9527 12.3942 26.2964 13.6652 25.7436C14.9362 25.1908 16.4451 24.7523 18.1058 24.4531C19.7664 24.154 21.5463 24 23.3438 24C25.1412 24 26.9211 24.154 28.5817 24.4531C30.2424 24.7523 31.7513 25.1908 33.0223 25.7436C34.2933 26.2964 35.3015 26.9527 35.9894 27.675C36.6772 28.3972 37.0312 29.1713 37.0312 29.9531Z" fill="url(#paint2_radial_31_6369)"/>
<path fill-rule="evenodd" clip-rule="evenodd" d="M13.7807 15.3509C13.7807 15.3509 15.9366 19.7966 20.9802 19.6712C31.5495 19.4061 33.4029 13.8925 33.6681 13.097C33.9333 12.3015 34.339 12.422 34.4328 13.1572C37.8798 44.4465 10.5101 31.0216 9.53809 25.6923C14.9739 24.1014 13.6481 21.052 13.6481 21.052L13.7807 15.3509Z" fill="#857C63" stroke="#2E3436" stroke-width="2" stroke-miterlimit="10"/>
<path fill-rule="evenodd" clip-rule="evenodd" d="M17.8032 28.5495C22.8574 29.5604 25.4312 28.6231 26.9376 27.4599C26.5399 26.9462 25.8604 26.3827 25.8604 26.3827C25.8604 26.3827 27.6253 26.8732 28.2469 27.6754C28.8665 28.4753 28.477 28.9682 28.3148 29.9917C27.9537 29.0927 27.2798 28.7556 27.1885 28.3984C25.8338 30.2711 22.4587 30.1933 17.8032 28.5495Z" fill="url(#paint3_linear_31_6369)"/>
<path fill-rule="evenodd" clip-rule="evenodd" d="M19.2829 22.0463C19.283 22.4468 19.2042 22.8434 19.051 23.2135C18.8978 23.5836 18.6732 23.9198 18.39 24.2031C18.1068 24.4863 17.7706 24.711 17.4006 24.8643C17.0306 25.0176 16.634 25.0965 16.2335 25.0965C15.833 25.0965 15.4364 25.0176 15.0664 24.8643C14.6963 24.711 14.3601 24.4863 14.077 24.2031C13.7938 23.9198 13.5692 23.5836 13.416 23.2135C13.2628 22.8434 13.184 22.4468 13.1841 22.0463C13.184 21.6458 13.2628 21.2492 13.416 20.8791C13.5692 20.5091 13.7938 20.1728 14.077 19.8896C14.3601 19.6063 14.6963 19.3816 15.0664 19.2284C15.4364 19.0751 15.833 18.9962 16.2335 18.9962C16.634 18.9962 17.0306 19.0751 17.4006 19.2284C17.7706 19.3816 18.1068 19.6063 18.39 19.8896C18.6732 20.1728 18.8978 20.5091 19.051 20.8791C19.2042 21.2492 19.283 21.6458 19.2829 22.0463Z" fill="#DBDBD7" stroke="#888A85" stroke-width="2" stroke-miterlimit="10"/>
<path fill-rule="evenodd" clip-rule="evenodd" d="M13.2083 23.1952C13.9181 24.1791 14.3213 25.3228 14.3291 26.3749C14.337 27.427 13.9489 28.3012 13.2502 28.8052C12.5516 29.3093 11.5995 29.4018 10.6037 29.0625C9.60773 28.7233 8.64953 27.98 7.93976 26.9961C7.23 26.0123 6.82684 24.8686 6.81896 23.8165C6.81113 22.7644 7.19921 21.8902 7.89788 21.3862C8.59654 20.8821 9.54855 20.7896 10.5444 21.1288C11.5403 21.4681 12.4986 22.2114 13.2083 23.1952Z" fill="url(#paint4_radial_31_6369)" stroke="black" stroke-width="2" stroke-miterlimit="10"/>
<path fill-rule="evenodd" clip-rule="evenodd" d="M18.415 22.4981C18.415 22.6909 18.3771 22.8819 18.3033 23.0601C18.2296 23.2382 18.1214 23.4002 17.9851 23.5366C17.8487 23.6729 17.6869 23.7811 17.5087 23.8549C17.3305 23.9287 17.1396 23.9668 16.9468 23.9668C16.7539 23.9668 16.5629 23.9287 16.3848 23.8549C16.2066 23.7811 16.0447 23.6729 15.9084 23.5366C15.772 23.4002 15.6639 23.2382 15.5902 23.0601C15.5164 22.8819 15.4784 22.6909 15.4785 22.4981C15.4784 22.3052 15.5164 22.1143 15.5902 21.9361C15.6639 21.7579 15.772 21.596 15.9084 21.4596C16.0447 21.3232 16.2066 21.215 16.3848 21.1412C16.5629 21.0674 16.7539 21.0294 16.9468 21.0294C17.1396 21.0294 17.3305 21.0674 17.5087 21.1412C17.6869 21.215 17.8487 21.3232 17.9851 21.4596C18.1214 21.596 18.2296 21.7579 18.3033 21.9361C18.3771 22.1143 18.415 22.3052 18.415 22.4981Z" fill="#2E3436" stroke="black" stroke-width="2" stroke-miterlimit="10"/>
<path opacity="0.280899" fill-rule="evenodd" clip-rule="evenodd" d="M8.164 22.0563C7.68483 22.4152 7.43227 23.0224 7.45503 23.8465C7.47779 24.6705 7.80299 25.6794 8.47045 26.5706C9.13792 27.4617 10.0147 28.0576 10.799 28.3111C11.5834 28.5647 12.2371 28.4932 12.7163 28.1342C13.1955 27.7753 13.449 27.1391 13.43 26.3113C13.411 25.4834 13.0947 24.4952 12.4286 23.6059C11.7626 22.7167 10.9032 22.1351 10.1141 21.8841C9.32504 21.6331 8.64318 21.6974 8.164 22.0563Z" stroke="url(#paint5_linear_31_6369)" stroke-width="2" stroke-miterlimit="10"/>
<path fill-rule="evenodd" clip-rule="evenodd" d="M10.3753 23.4385C10.3753 23.6474 10.3411 23.8544 10.2745 24.0474C10.2078 24.2405 10.1102 24.4159 9.98706 24.5637C9.86394 24.7115 9.71777 24.8287 9.55689 24.9087C9.39602 24.9887 9.2236 25.0298 9.04945 25.0298C8.87533 25.0298 8.70287 24.9887 8.54199 24.9087C8.38112 24.8287 8.23495 24.7115 8.11183 24.5637C7.98872 24.4159 7.89107 24.2405 7.82447 24.0474C7.75783 23.8544 7.7236 23.6474 7.72363 23.4385C7.7236 23.2295 7.75783 23.0226 7.82447 22.8295C7.89107 22.6364 7.98872 22.461 8.11183 22.3132C8.23495 22.1654 8.38112 22.0482 8.54199 21.9682C8.70287 21.8883 8.87533 21.8471 9.04945 21.8471C9.2236 21.8471 9.39602 21.8883 9.55689 21.9682C9.71777 22.0482 9.86394 22.1654 9.98706 22.3132C10.1102 22.461 10.2078 22.6364 10.2745 22.8295C10.3411 23.0226 10.3753 23.2295 10.3753 23.4385Z" fill="white"/>
<path fill-rule="evenodd" clip-rule="evenodd" d="M17.3982 21.8204C17.3982 22.09 17.2911 22.3485 17.1004 22.5392C16.9098 22.7298 16.6513 22.8369 16.3817 22.8369C16.1121 22.8369 15.8536 22.7298 15.6629 22.5392C15.4723 22.3485 15.3652 22.09 15.3652 21.8204C15.3652 21.5508 15.4723 21.2923 15.6629 21.1017C15.8536 20.911 16.1121 20.804 16.3817 20.804C16.6513 20.804 16.9098 20.911 17.1004 21.1017C17.2911 21.2923 17.3982 21.5508 17.3982 21.8204Z" fill="white"/>
<path fill-rule="evenodd" clip-rule="evenodd" d="M26.1111 22.3778C26.1112 22.848 26.0187 23.3136 25.8389 23.748C25.659 24.1824 25.3954 24.5771 25.063 24.9096C24.7305 25.2421 24.3359 25.5059 23.9015 25.6859C23.4671 25.8658 23.0015 25.9584 22.5314 25.9584C22.0612 25.9584 21.5957 25.8658 21.1613 25.6859C20.7269 25.5059 20.3323 25.2421 19.9998 24.9096C19.6674 24.5771 19.4038 24.1824 19.2239 23.748C19.0441 23.3136 18.9515 22.848 18.9517 22.3778C18.9515 21.9076 19.0441 21.442 19.2239 21.0076C19.4038 20.5732 19.6674 20.1785 19.9998 19.846C20.3323 19.5135 20.7269 19.2497 21.1613 19.0697C21.5957 18.8898 22.0612 18.7972 22.5314 18.7972C23.0015 18.7972 23.4671 18.8898 23.9015 19.0697C24.3359 19.2497 24.7305 19.5135 25.063 19.846C25.3954 20.1785 25.659 20.5732 25.8389 21.0076C26.0187 21.442 26.1112 21.9076 26.1111 22.3778Z" fill="#DBDBD7" stroke="#888A85" stroke-width="2" stroke-miterlimit="10"/>
<path fill-rule="evenodd" clip-rule="evenodd" d="M25.0917 22.9081C25.0918 23.1345 25.0472 23.3586 24.9606 23.5678C24.874 23.777 24.7471 23.967 24.587 24.1272C24.427 24.2873 24.2369 24.4143 24.0278 24.5009C23.8187 24.5876 23.5945 24.6322 23.3681 24.6322C23.1417 24.6322 22.9175 24.5876 22.7084 24.5009C22.4993 24.4143 22.3093 24.2873 22.1492 24.1272C21.9891 23.967 21.8622 23.777 21.7756 23.5678C21.689 23.3586 21.6445 23.1345 21.6445 22.9081C21.6445 22.6817 21.689 22.4575 21.7756 22.2483C21.8622 22.0392 21.9891 21.8491 22.1492 21.689C22.3093 21.5289 22.4993 21.4019 22.7084 21.3152C22.9175 21.2286 23.1417 21.184 23.3681 21.184C23.5945 21.184 23.8187 21.2286 24.0278 21.3152C24.2369 21.4019 24.427 21.5289 24.587 21.689C24.7471 21.8491 24.874 22.0392 24.9606 22.2483C25.0472 22.4575 25.0918 22.6817 25.0917 22.9081Z" fill="#2E3436" stroke="black" stroke-width="2" stroke-miterlimit="10"/>
<path fill-rule="evenodd" clip-rule="evenodd" d="M23.8987 22.1126C23.8987 22.4291 23.773 22.7326 23.5492 22.9564C23.3254 23.1801 23.0219 23.3059 22.7055 23.3059C22.389 23.3059 22.0855 23.1801 21.8617 22.9564C21.6379 22.7326 21.5122 22.4291 21.5122 22.1126C21.5122 21.7962 21.6379 21.4926 21.8617 21.2689C22.0855 21.0451 22.389 20.9194 22.7055 20.9194C23.0219 20.9194 23.3254 21.0451 23.5492 21.2689C23.773 21.4926 23.8987 21.7962 23.8987 22.1126Z" fill="white"/>
<path d="M33.4402 33.0686L34.135 31.6849C31.5502 29.7939 26.7855 28.418 26.7855 28.418C25.9596 28.0333 25.6989 28.7752 26.2708 29.2575C26.2708 29.2575 30.3457 32.1788 33.4402 33.0686Z" fill="url(#paint6_linear_31_6369)" stroke="#673907" stroke-width="2" stroke-linecap="round"/>
<path d="M36.7538 34.344L37.1257 33.5206L34.2401 31.6719L34.01 31.6523L33.9105 31.3338C33.4913 31.5963 32.8822 32.5715 33.0437 33.1197L33.3554 33.0018L33.5242 33.165L36.7538 34.344Z" fill="url(#paint7_linear_31_6369)" stroke="#888A85" stroke-width="2" stroke-linecap="round"/>
<path d="M34.8838 32.7822L36.7997 33.6048" stroke="white" stroke-width="2" stroke-linecap="round" stroke-linejoin="round"/>
<path d="M40.9476 37.8405C40.048 34.7868 39.7289 32.3621 37.3778 32.5779C35.4832 32.7518 35.3506 35.4664 37.3084 36.2155C39.1945 36.9371 40.9476 37.8405 40.9476 37.8405Z" fill="url(#paint8_radial_31_6369)"/>
<path opacity="0.527778" d="M37.5186 32.8252C37.618 32.7959 37.7223 32.7865 37.825 32.7975C37.9281 32.8084 38.0279 32.8395 38.119 32.8891C38.2101 32.9387 38.2904 33.0057 38.3553 33.0863C38.4205 33.1668 38.4689 33.2595 38.4981 33.3588C38.5274 33.4582 38.5371 33.5624 38.5259 33.6654C38.515 33.7684 38.4839 33.8682 38.4344 33.9592C38.3845 34.0501 38.3178 34.1304 38.2371 34.1955C38.1565 34.2605 38.0639 34.3091 37.9645 34.3383C37.8651 34.3676 37.7609 34.3771 37.6578 34.3661C37.555 34.3551 37.455 34.324 37.3641 34.2744C37.2731 34.2249 37.1928 34.1579 37.1277 34.0773C37.0626 33.9967 37.014 33.9041 36.9848 33.8047C36.9555 33.7053 36.9461 33.6012 36.9571 33.4982C36.9681 33.3952 36.9992 33.2954 37.0488 33.2044C37.0984 33.1134 37.1654 33.0331 37.246 32.9681C37.3266 32.903 37.4193 32.8545 37.5186 32.8252Z" fill="white"/>
<path d="M34.0797 31.7029C34.1467 31.6831 34.217 31.6768 34.2865 31.6842C34.356 31.6916 34.4234 31.7126 34.4848 31.746C34.5461 31.7795 34.6004 31.8247 34.6443 31.8791C34.6882 31.9334 34.7209 31.9959 34.7407 32.063C34.7604 32.13 34.7668 32.2003 34.7594 32.2698C34.752 32.3393 34.7309 32.4067 34.6975 32.4681C34.664 32.5294 34.6188 32.5836 34.5644 32.6275C34.51 32.6714 34.4475 32.7042 34.3805 32.7239C34.3134 32.7437 34.2431 32.75 34.1736 32.7426C34.1041 32.7352 34.0367 32.7142 33.9753 32.6808C33.914 32.6474 33.8598 32.6022 33.8159 32.5478C33.7719 32.4934 33.7392 32.4309 33.7194 32.3638C33.6997 32.2968 33.6933 32.2265 33.7008 32.157C33.7082 32.0875 33.7292 32.0201 33.7626 31.9588C33.7961 31.8974 33.8413 31.8432 33.8957 31.7993C33.9501 31.7554 34.0126 31.7227 34.0797 31.7029Z" fill="white"/>
<path opacity="0.427778" d="M39.8183 36.0133C39.8183 36.0133 39.5251 34.917 38.8786 34.3465C38.6494 34.1446 38.9378 33.8473 39.1538 34.1084C39.6203 34.6724 39.8183 36.0133 39.8183 36.0133Z" fill="url(#paint9_linear_31_6369)"/>
<path fill-rule="evenodd" clip-rule="evenodd" d="M23.2524 29.8024C24.3755 29.9097 25.3897 29.5982 25.8114 29.4468C25.8851 29.0303 26.2138 28.2309 27.3459 28.1782L26.9482 27.4822C26.9482 27.4822 25.4732 28.4931 23.8988 28.7914L23.2524 29.8024Z" fill="url(#paint10_linear_31_6369)"/>
</g>
</g>
</g>
<defs>
<filter id="filter0_i_31_6369" x="3" y="3" width="42" height="46" filterUnits="userSpaceOnUse" color-interpolation-filters="sRGB">
<feFlood flood-opacity="0" result="BackgroundImageFix"/>
<feBlend mode="normal" in="SourceGraphic" in2="BackgroundImageFix" result="shape"/>
<feColorMatrix in="SourceAlpha" type="matrix" values="0 0 0 0 0 0 0 0 0 0 0 0 0 0 0 0 0 0 127 0" result="hardAlpha"/>
<feOffset dy="4"/>
<feGaussianBlur stdDeviation="2"/>
<feComposite in2="hardAlpha" operator="arithmetic" k2="-1" k3="1"/>
<feColorMatrix type="matrix" values="0 0 0 0 0 0 0 0 0 0 0 0 0 0 0 0 0 0 0.25 0"/>
<feBlend mode="normal" in2="shape" result="effect1_innerShadow_31_6369"/>
</filter>
<linearGradient id="paint0_linear_31_6369" x1="23.8541" y1="48.0368" x2="23.8541" y2="-0.0310888" gradientUnits="userSpaceOnUse">
<stop stop-color="#2CA0B9"/>
<stop offset="1" stop-color="#87DEAA"/>
</linearGradient>
<linearGradient id="paint1_linear_31_6369" x1="24" y1="0" x2="24" y2="48" gradientUnits="userSpaceOnUse">
<stop stop-color="#857C63"/>
<stop offset="1" stop-color="#3E382D"/>
</linearGradient>
<radialGradient id="paint2_radial_31_6369" cx="0" cy="0" r="1" gradientUnits="userSpaceOnUse" gradientTransform="translate(23.3438 29.9531) scale(13.6875 5.95312)">
<stop/>
<stop offset="1" stop-opacity="0"/>
</radialGradient>
<linearGradient id="paint3_linear_31_6369" x1="27.3851" y1="27.322" x2="19.0324" y2="28.9793" gradientUnits="userSpaceOnUse">
<stop/>
<stop offset="1" stop-opacity="0"/>
</linearGradient>
<radialGradient id="paint4_radial_31_6369" cx="0" cy="0" r="1" gradientUnits="userSpaceOnUse" gradientTransform="translate(9.35528 23.5019) rotate(-30) scale(3.33662 3.89437)">
<stop stop-color="#5B676B"/>
<stop offset="1" stop-color="#141718"/>
</radialGradient>
<linearGradient id="paint5_linear_31_6369" x1="8.83323" y1="22.6853" x2="12.331" y2="27.7564" gradientUnits="userSpaceOnUse">
<stop stop-color="white"/>
<stop offset="1" stop-color="white" stop-opacity="0"/>
</linearGradient>
<linearGradient id="paint6_linear_31_6369" x1="31.7695" y1="30.0408" x2="30.2115" y2="33.4436" gradientUnits="userSpaceOnUse">
<stop stop-color="#6E3D09"/>
<stop offset="0.242424" stop-color="#EA8113"/>
<stop offset="0.621212" stop-color="#5C3307"/>
<stop offset="1" stop-color="#E07C12"/>
</linearGradient>
<linearGradient id="paint7_linear_31_6369" x1="35.1082" y1="33.7364" x2="35.7933" y2="32.3542" gradientUnits="userSpaceOnUse">
<stop stop-color="#BDBDBD"/>
<stop offset="0.333333" stop-color="#E2E2E2"/>
<stop offset="0.666667" stop-color="#A3A3A3"/>
<stop offset="1" stop-color="#DDDDDD"/>
</linearGradient>
<radialGradient id="paint8_radial_31_6369" cx="0" cy="0" r="1" gradientUnits="userSpaceOnUse" gradientTransform="translate(36.8166 34.5396) rotate(-106.415) scale(3.63339 3.54085)">
<stop stop-color="#696969"/>
<stop offset="1"/>
</radialGradient>
<linearGradient id="paint9_linear_31_6369" x1="38.9678" y1="33.814" x2="39.8453" y2="35.4403" gradientUnits="userSpaceOnUse">
<stop stop-color="white"/>
<stop offset="1" stop-color="white" stop-opacity="0"/>
</linearGradient>
<linearGradient id="paint10_linear_31_6369" x1="25.6224" y1="28.9074" x2="24.2468" y2="29.2389" gradientUnits="userSpaceOnUse">
<stop/>
<stop offset="1" stop-opacity="0"/>
</linearGradient>
<clipPath id="clip0_31_6369">
<rect width="48" height="48" fill="white"/>
</clipPath>
</defs>
</svg>
