<svg width="48" height="48" viewBox="0 0 48 48" fill="none" xmlns="http://www.w3.org/2000/svg">
<g clip-path="url(#clip0_31_6398)">
<path d="M36 0H12C5.37258 0 0 5.37258 0 12V36C0 42.6274 5.37258 48 12 48H36C42.6274 48 48 42.6274 48 36V12C48 5.37258 42.6274 0 36 0Z" fill="url(#paint0_linear_31_6398)"/>
<g filter="url(#filter0_i_31_6398)">
<path d="M36 3H12C7.02944 3 3 7.02944 3 12V36C3 40.9706 7.02944 45 12 45H36C40.9706 45 45 40.9706 45 36V12C45 7.02944 40.9706 3 36 3Z" fill="black" fill-opacity="0.7"/>
<path d="M24 10.1719C31.7664 10.1719 38.0625 16.468 38.0625 24.2344C38.0625 32.0008 31.7664 38.2969 24 38.2969C16.2336 38.2969 9.9375 32.0008 9.9375 24.2344C9.9375 16.468 16.2336 10.1719 24 10.1719Z" fill="url(#paint1_linear_31_6398)"/>
<path d="M24 10.1719C16.2336 10.1719 9.9375 16.468 9.9375 24.2344C9.9375 32.0008 16.2336 38.2969 24 38.2969V10.1719Z" fill="url(#paint2_linear_31_6398)"/>
<path d="M38.0625 23.7656C38.0625 31.532 31.7664 37.8281 24 37.8281C16.2336 37.8281 9.9375 31.532 9.9375 23.7656C9.9375 15.9992 16.2336 9.70312 24 9.70312C31.7664 9.70312 38.0625 15.9992 38.0625 23.7656Z" fill="#40A1C8"/>
<path d="M15.5635 24C15.5928 27.2611 16.2392 30.4142 17.4001 32.9648C16.4763 33.4372 15.6935 34.0058 15.0884 34.643C11.8914 32.0246 10.0081 28.1318 9.93945 24H15.5635Z" fill="#49BBB0"/>
<path d="M24 31.5V37.8281C22.9453 37.8281 21.8934 37.7092 20.8652 37.4738C19.5057 36.5226 18.3118 34.968 17.4009 32.9648C19.253 32.0182 21.5885 31.5 24 31.5Z" fill="#378BDE"/>
<path d="M32.4366 24C32.4073 27.2611 31.7609 30.4142 30.5991 32.9648C31.5238 33.4372 32.3056 34.0058 32.9108 34.643C36.1078 32.0246 37.9912 28.1318 38.0606 24H32.4366Z" fill="#266EC6"/>
<path d="M24 24V37.8281C25.0547 37.8281 26.1066 37.7092 27.1348 37.4738C30.2924 35.2628 32.3826 29.9509 32.4366 24H24Z" fill="#378BDE"/>
<path d="M24 31.5V37.8281C25.0547 37.8281 26.1066 37.7092 27.1348 37.4738C28.4943 36.5226 29.6882 34.968 30.5991 32.9648C28.747 32.0182 26.4115 31.5 24 31.5Z" fill="#266EC6"/>
<path d="M30.6001 32.9648C29.6883 34.968 28.4944 36.5217 27.1357 37.4738C29.2534 36.9895 31.2309 36.02 32.9118 34.643C32.3067 34.0058 31.5239 33.4373 30.6001 32.9648Z" fill="#1E62B5"/>
<path d="M24 9.70312C16.2336 9.70312 9.9375 15.9992 9.9375 23.7656C9.9375 23.8434 9.9384 23.9222 9.93934 24H24V9.70312Z" fill="#53D795"/>
<path d="M20.8653 10.0565C18.7468 10.5417 16.7693 11.5104 15.0884 12.8873C15.6935 13.5255 16.4763 14.0931 17.401 14.5664C18.3129 12.5623 19.5067 11.0086 20.8653 10.0565Z" fill="#72E99A"/>
<path d="M24 9.70312C22.9453 9.70312 21.8943 9.82215 20.8652 10.0565C17.6627 12.2995 15.5625 17.7286 15.5625 23.7656C15.5625 23.8434 15.5625 23.9222 15.5634 24H24V9.70312Z" fill="#49BBB0"/>
<path d="M24 9.70312C22.9453 9.70312 21.8943 9.82215 20.8652 10.0565C19.5066 11.0087 18.3128 12.5623 17.4009 14.5664C19.2539 15.5131 21.5885 16.0312 24 16.0312V9.70312Z" fill="#53D795"/>
<path d="M24 9.70312C31.7664 9.70312 38.0625 15.9992 38.0625 23.7656C38.0625 23.8434 38.0618 23.9222 38.0606 24H24V9.70312Z" fill="#378BDE"/>
<path d="M27.1348 10.0565C29.2533 10.5417 31.2308 11.5104 32.9117 12.8873C32.3066 13.5255 31.5238 14.0931 30.6 14.5655C29.6872 12.5623 28.4934 11.0086 27.1348 10.0565Z" fill="#40A1C8"/>
<path d="M24 9.70312C25.0547 9.70312 26.1066 9.82215 27.1348 10.0565C30.3373 12.2995 32.4375 17.7286 32.4375 23.7656C32.4375 23.8434 32.4375 23.9222 32.4366 24H24V9.70312Z" fill="#40A1C8"/>
<path d="M24 9.70312C25.0547 9.70312 26.1066 9.82215 27.1348 10.0565C28.4934 11.0087 29.6873 12.5623 30.5991 14.5655C28.7461 15.5131 26.4115 16.0312 24 16.0312V9.70312Z" fill="#49BBB0"/>
</g>
</g>
<defs>
<filter id="filter0_i_31_6398" x="3" y="3" width="42" height="46" filterUnits="userSpaceOnUse" color-interpolation-filters="sRGB">
<feFlood flood-opacity="0" result="BackgroundImageFix"/>
<feBlend mode="normal" in="SourceGraphic" in2="BackgroundImageFix" result="shape"/>
<feColorMatrix in="SourceAlpha" type="matrix" values="0 0 0 0 0 0 0 0 0 0 0 0 0 0 0 0 0 0 127 0" result="hardAlpha"/>
<feOffset dy="4"/>
<feGaussianBlur stdDeviation="2"/>
<feComposite in2="hardAlpha" operator="arithmetic" k2="-1" k3="1"/>
<feColorMatrix type="matrix" values="0 0 0 0 0 0 0 0 0 0 0 0 0 0 0 0 0 0 0.25 0"/>
<feBlend mode="normal" in2="shape" result="effect1_innerShadow_31_6398"/>
</filter>
<linearGradient id="paint0_linear_31_6398" x1="24" y1="0" x2="24" y2="48" gradientUnits="userSpaceOnUse">
<stop stop-color="#72E99A"/>
<stop offset="0.3" stop-color="#49BBB0"/>
<stop offset="0.614" stop-color="#378BDE"/>
<stop offset="1" stop-color="#1E62B5"/>
</linearGradient>
<linearGradient id="paint1_linear_31_6398" x1="31.9687" y1="35.25" x2="34.3125" y2="35.25" gradientUnits="userSpaceOnUse">
<stop stop-color="#16529C"/>
<stop offset="1" stop-color="#236AC0"/>
</linearGradient>
<linearGradient id="paint2_linear_31_6398" x1="22.5938" y1="37.125" x2="12.2813" y2="37.125" gradientUnits="userSpaceOnUse">
<stop stop-color="#2166BB"/>
<stop offset="1" stop-color="#89EDA9"/>
</linearGradient>
<clipPath id="clip0_31_6398">
<rect width="48" height="48" fill="white"/>
</clipPath>
</defs>
</svg>
