<svg width="48" height="48" viewBox="0 0 48 48" fill="none" xmlns="http://www.w3.org/2000/svg">
<g clip-path="url(#clip0_31_6419)">
<path d="M36 0H12C5.37258 0 0 5.37258 0 12V36C0 42.6274 5.37258 48 12 48H36C42.6274 48 48 42.6274 48 36V12C48 5.37258 42.6274 0 36 0Z" fill="url(#paint0_linear_31_6419)"/>
<g filter="url(#filter0_i_31_6419)">
<path d="M36 3H12C7.02944 3 3 7.02944 3 12V36C3 40.9706 7.02944 45 12 45H36C40.9706 45 45 40.9706 45 36V12C45 7.02944 40.9706 3 36 3Z" fill="black" fill-opacity="0.7"/>
<mask id="mask0_31_6419" style="mask-type:luminance" maskUnits="userSpaceOnUse" x="6" y="6" width="36" height="36">
<path d="M42 6H6V42H42V6Z" fill="white"/>
</mask>
<g mask="url(#mask0_31_6419)">
<g filter="url(#filter1_d_31_6419)">
<path d="M36.5351 20.2731L40.4576 28.9714L33.7442 40.4572L29.6094 30.4183L36.5351 20.2731Z" fill="url(#paint1_linear_31_6419)"/>
</g>
<g filter="url(#filter2_d_31_6419)">
<path d="M29.6092 30.4183L33.7441 40.4572L23.3418 36.8811L29.6092 30.4183Z" fill="#B74AF7"/>
</g>
<g filter="url(#filter3_d_31_6419)">
<path d="M30.7304 16.8377L28.5978 7.54285H16.7727L7.54297 21.6617L10.2138 28.1485L7.54297 34.0697L26.6572 17.808L30.7304 16.8377Z" fill="url(#paint2_linear_31_6419)"/>
</g>
<g filter="url(#filter4_d_31_6419)">
<path d="M40.4574 14.5303L26.6572 17.808L7.54297 34.0697L19.8721 40.4572L29.6092 30.4183L40.4574 14.5303Z" fill="url(#paint3_linear_31_6419)"/>
</g>
<g filter="url(#filter5_d_31_6419)">
<path d="M13.7144 13.7142H34.2858V34.2857H13.7144V13.7142Z" fill="black"/>
</g>
<path d="M15.645 30.4285H23.3593V31.7143H15.645V30.4285Z" fill="white"/>
<path d="M15.0655 20.6776V20.6536C15.0635 20.0728 15.1778 19.4974 15.4015 18.9615C15.6253 18.4254 15.9541 17.9396 16.3684 17.5326C16.7828 17.1256 17.2744 16.8055 17.8144 16.5914C18.3543 16.3773 18.9316 16.2733 19.5123 16.2856C20.7336 16.2213 21.9314 16.6386 22.8483 17.448L21.6723 18.8674C21.0761 18.2972 20.2789 17.9855 19.454 18C18.0826 18 17.0163 19.2 17.0163 20.64V20.664C17.0163 22.2171 18.0826 23.3554 19.5877 23.3554C20.212 23.3737 20.8262 23.195 21.3432 22.8445V21.624H19.4643V20.0125H23.1432V23.6948C22.1376 24.567 20.8503 25.0456 19.5192 25.0422C16.8826 25.0422 15.0655 23.1874 15.0655 20.6776Z" fill="white"/>
<path d="M23.9316 20.6777V20.6537C23.9336 20.0676 24.0531 19.4878 24.2831 18.9486C24.513 18.4094 24.8487 17.9218 25.2702 17.5146C25.6919 17.1074 26.1908 16.7888 26.7377 16.5778C27.2845 16.3667 27.8681 16.2674 28.4539 16.2857C31.0699 16.2857 32.9488 18.2366 32.9488 20.6469V20.6709C32.9495 21.2584 32.8322 21.8402 32.6037 22.3815C32.3752 22.9228 32.0402 23.4127 31.6187 23.8221C31.1972 24.2315 30.6977 24.5519 30.1499 24.7645C29.6021 24.9771 29.0172 25.0773 28.4299 25.0594C25.8105 25.0423 23.9316 23.0914 23.9316 20.6777ZM30.9979 20.6777V20.6537C31.0085 20.3096 30.9499 19.9668 30.8256 19.6457C30.7014 19.3246 30.514 19.0317 30.2746 18.7843C30.0352 18.5368 29.7486 18.34 29.4317 18.2053C29.1149 18.0705 28.7742 18.0007 28.4299 18C28.0882 17.9988 27.7498 18.0667 27.435 18.1996C27.1202 18.3324 26.8355 18.5275 26.5979 18.7731C26.3603 19.0186 26.1748 19.3097 26.0524 19.6287C25.9301 19.9478 25.8735 20.2882 25.8859 20.6297V20.6537C25.874 20.9991 25.9316 21.3435 26.0554 21.6662C26.1792 21.9889 26.3666 22.2834 26.6064 22.5323C26.8463 22.7811 27.1338 22.9792 27.4518 23.1147C27.7697 23.2502 28.1117 23.3204 28.4574 23.3211C28.8 23.3219 29.1392 23.2533 29.4545 23.1194C29.7699 22.9855 30.0549 22.7891 30.2923 22.5421C30.5297 22.2951 30.7146 22.0025 30.8359 21.6821C30.9572 21.3617 31.0123 21.02 30.9979 20.6777Z" fill="white"/>
</g>
</g>
</g>
<defs>
<filter id="filter0_i_31_6419" x="3" y="3" width="42" height="46" filterUnits="userSpaceOnUse" color-interpolation-filters="sRGB">
<feFlood flood-opacity="0" result="BackgroundImageFix"/>
<feBlend mode="normal" in="SourceGraphic" in2="BackgroundImageFix" result="shape"/>
<feColorMatrix in="SourceAlpha" type="matrix" values="0 0 0 0 0 0 0 0 0 0 0 0 0 0 0 0 0 0 127 0" result="hardAlpha"/>
<feOffset dy="4"/>
<feGaussianBlur stdDeviation="2"/>
<feComposite in2="hardAlpha" operator="arithmetic" k2="-1" k3="1"/>
<feColorMatrix type="matrix" values="0 0 0 0 0 0 0 0 0 0 0 0 0 0 0 0 0 0 0.25 0"/>
<feBlend mode="normal" in2="shape" result="effect1_innerShadow_31_6419"/>
</filter>
<filter id="filter1_d_31_6419" x="25.6094" y="18.2731" width="18.8481" height="28.1841" filterUnits="userSpaceOnUse" color-interpolation-filters="sRGB">
<feFlood flood-opacity="0" result="BackgroundImageFix"/>
<feColorMatrix in="SourceAlpha" type="matrix" values="0 0 0 0 0 0 0 0 0 0 0 0 0 0 0 0 0 0 127 0" result="hardAlpha"/>
<feOffset dy="2"/>
<feGaussianBlur stdDeviation="2"/>
<feComposite in2="hardAlpha" operator="out"/>
<feColorMatrix type="matrix" values="0 0 0 0 0 0 0 0 0 0 0 0 0 0 0 0 0 0 0.25 0"/>
<feBlend mode="normal" in2="BackgroundImageFix" result="effect1_dropShadow_31_6419"/>
<feBlend mode="normal" in="SourceGraphic" in2="effect1_dropShadow_31_6419" result="shape"/>
</filter>
<filter id="filter2_d_31_6419" x="19.3418" y="28.4183" width="18.4023" height="18.0389" filterUnits="userSpaceOnUse" color-interpolation-filters="sRGB">
<feFlood flood-opacity="0" result="BackgroundImageFix"/>
<feColorMatrix in="SourceAlpha" type="matrix" values="0 0 0 0 0 0 0 0 0 0 0 0 0 0 0 0 0 0 127 0" result="hardAlpha"/>
<feOffset dy="2"/>
<feGaussianBlur stdDeviation="2"/>
<feComposite in2="hardAlpha" operator="out"/>
<feColorMatrix type="matrix" values="0 0 0 0 0 0 0 0 0 0 0 0 0 0 0 0 0 0 0.25 0"/>
<feBlend mode="normal" in2="BackgroundImageFix" result="effect1_dropShadow_31_6419"/>
<feBlend mode="normal" in="SourceGraphic" in2="effect1_dropShadow_31_6419" result="shape"/>
</filter>
<filter id="filter3_d_31_6419" x="3.54297" y="5.54285" width="31.1875" height="34.5269" filterUnits="userSpaceOnUse" color-interpolation-filters="sRGB">
<feFlood flood-opacity="0" result="BackgroundImageFix"/>
<feColorMatrix in="SourceAlpha" type="matrix" values="0 0 0 0 0 0 0 0 0 0 0 0 0 0 0 0 0 0 127 0" result="hardAlpha"/>
<feOffset dy="2"/>
<feGaussianBlur stdDeviation="2"/>
<feComposite in2="hardAlpha" operator="out"/>
<feColorMatrix type="matrix" values="0 0 0 0 0 0 0 0 0 0 0 0 0 0 0 0 0 0 0.25 0"/>
<feBlend mode="normal" in2="BackgroundImageFix" result="effect1_dropShadow_31_6419"/>
<feBlend mode="normal" in="SourceGraphic" in2="effect1_dropShadow_31_6419" result="shape"/>
</filter>
<filter id="filter4_d_31_6419" x="3.54297" y="12.5303" width="40.9146" height="33.927" filterUnits="userSpaceOnUse" color-interpolation-filters="sRGB">
<feFlood flood-opacity="0" result="BackgroundImageFix"/>
<feColorMatrix in="SourceAlpha" type="matrix" values="0 0 0 0 0 0 0 0 0 0 0 0 0 0 0 0 0 0 127 0" result="hardAlpha"/>
<feOffset dy="2"/>
<feGaussianBlur stdDeviation="2"/>
<feComposite in2="hardAlpha" operator="out"/>
<feColorMatrix type="matrix" values="0 0 0 0 0 0 0 0 0 0 0 0 0 0 0 0 0 0 0.25 0"/>
<feBlend mode="normal" in2="BackgroundImageFix" result="effect1_dropShadow_31_6419"/>
<feBlend mode="normal" in="SourceGraphic" in2="effect1_dropShadow_31_6419" result="shape"/>
</filter>
<filter id="filter5_d_31_6419" x="9.71436" y="11.7142" width="28.5713" height="28.5715" filterUnits="userSpaceOnUse" color-interpolation-filters="sRGB">
<feFlood flood-opacity="0" result="BackgroundImageFix"/>
<feColorMatrix in="SourceAlpha" type="matrix" values="0 0 0 0 0 0 0 0 0 0 0 0 0 0 0 0 0 0 127 0" result="hardAlpha"/>
<feOffset dy="2"/>
<feGaussianBlur stdDeviation="2"/>
<feComposite in2="hardAlpha" operator="out"/>
<feColorMatrix type="matrix" values="0 0 0 0 0 0 0 0 0 0 0 0 0 0 0 0 0 0 0.25 0"/>
<feBlend mode="normal" in2="BackgroundImageFix" result="effect1_dropShadow_31_6419"/>
<feBlend mode="normal" in="SourceGraphic" in2="effect1_dropShadow_31_6419" result="shape"/>
</filter>
<linearGradient id="paint0_linear_31_6419" x1="24" y1="0" x2="24" y2="48" gradientUnits="userSpaceOnUse">
<stop stop-color="#3BEA62"/>
<stop offset="0.510417" stop-color="#087CFA"/>
<stop offset="1" stop-color="#B74AF7"/>
</linearGradient>
<linearGradient id="paint1_linear_31_6419" x1="39.9536" y1="26.2903" x2="27.0997" y2="37.1691" gradientUnits="userSpaceOnUse">
<stop stop-color="#087CFA"/>
<stop offset="0.02" stop-color="#0D7BFA"/>
<stop offset="0.37" stop-color="#5566F9"/>
<stop offset="0.66" stop-color="#8A57F8"/>
<stop offset="0.88" stop-color="#AB4EF7"/>
<stop offset="1" stop-color="#B74AF7"/>
</linearGradient>
<linearGradient id="paint2_linear_31_6419" x1="18.871" y1="17.7463" x2="26.6847" y2="8.85598" gradientUnits="userSpaceOnUse">
<stop stop-color="#087CFA"/>
<stop offset="0.02" stop-color="#0D7BFA"/>
<stop offset="0.37" stop-color="#5566F9"/>
<stop offset="0.66" stop-color="#8A57F8"/>
<stop offset="0.88" stop-color="#AB4EF7"/>
<stop offset="1" stop-color="#B74AF7"/>
</linearGradient>
<linearGradient id="paint3_linear_31_6419" x1="12.1167" y1="36.2949" x2="35.8595" y2="21.0377" gradientUnits="userSpaceOnUse">
<stop stop-color="#087CFA"/>
<stop offset="0.1" stop-color="#1598D3"/>
<stop offset="0.22" stop-color="#23B6AA"/>
<stop offset="0.35" stop-color="#2DCC8B"/>
<stop offset="0.46" stop-color="#35DD74"/>
<stop offset="0.57" stop-color="#39E767"/>
<stop offset="0.67" stop-color="#3BEA62"/>
</linearGradient>
<clipPath id="clip0_31_6419">
<rect width="48" height="48" fill="white"/>
</clipPath>
</defs>
</svg>
