<svg width="48" height="48" viewBox="0 0 48 48" fill="none" xmlns="http://www.w3.org/2000/svg">
<g clip-path="url(#clip0_31_6440)">
<path d="M36 0H12C5.37258 0 0 5.37258 0 12V36C0 42.6274 5.37258 48 12 48H36C42.6274 48 48 42.6274 48 36V12C48 5.37258 42.6274 0 36 0Z" fill="#FF0045"/>
<path d="M36 0H12C5.37258 0 0 5.37258 0 12V36C0 42.6274 5.37258 48 12 48H36C42.6274 48 48 42.6274 48 36V12C48 5.37258 42.6274 0 36 0Z" fill="url(#paint0_radial_31_6440)"/>
<path d="M36 0H12C5.37258 0 0 5.37258 0 12V36C0 42.6274 5.37258 48 12 48H36C42.6274 48 48 42.6274 48 36V12C48 5.37258 42.6274 0 36 0Z" fill="url(#paint1_radial_31_6440)"/>
<g filter="url(#filter0_i_31_6440)">
<path d="M36 3H12C7.02944 3 3 7.02944 3 12V36C3 40.9706 7.02944 45 12 45H36C40.9706 45 45 40.9706 45 36V12C45 7.02944 40.9706 3 36 3Z" fill="black" fill-opacity="0.7"/>
<mask id="mask0_31_6440" style="mask-type:luminance" maskUnits="userSpaceOnUse" x="9" y="9" width="30" height="30">
<path d="M39 9H9V39H39V9Z" fill="white"/>
</mask>
<g mask="url(#mask0_31_6440)">
<g filter="url(#filter1_d_31_6440)">
<path d="M24 11.7037C28.005 11.7037 28.48 11.7188 30.0625 11.7912C34.1275 11.9763 36.0263 13.905 36.2112 17.94C36.2838 19.5213 36.2975 19.9962 36.2975 24.0012C36.2975 28.0075 36.2825 28.4813 36.2112 30.0625C36.025 34.0938 34.1313 36.0263 30.0625 36.2112C28.48 36.2838 28.0075 36.2988 24 36.2988C19.995 36.2988 19.52 36.2838 17.9388 36.2112C13.8638 36.025 11.975 34.0875 11.79 30.0612C11.7175 28.48 11.7025 28.0062 11.7025 24C11.7025 19.995 11.7188 19.5213 11.79 17.9388C11.9763 13.905 13.87 11.975 17.9388 11.79C19.5213 11.7188 19.995 11.7037 24 11.7037ZM24 9C19.9263 9 19.4163 9.01751 17.8162 9.09C12.3687 9.34001 9.34125 12.3625 9.09124 17.815C9.01751 19.4163 9 19.9263 9 24C9 28.0737 9.01751 28.585 9.09 30.185C9.34001 35.6325 12.3625 38.6599 17.815 38.91C19.4163 38.9824 19.9263 39 24 39C28.0737 39 28.585 38.9824 30.185 38.91C35.6275 38.6599 38.6625 35.6375 38.9089 30.185C38.9824 28.585 39 28.0737 39 24C39 19.9263 38.9824 19.4163 38.91 17.8162C38.6651 12.3738 35.6388 9.34125 30.1863 9.09124C28.585 9.01751 28.0737 9 24 9ZM24 16.2975C19.7463 16.2975 16.2975 19.7463 16.2975 24C16.2975 28.2537 19.7463 31.7037 24 31.7037C28.2537 31.7037 31.7025 28.255 31.7025 24C31.7025 19.7463 28.2537 16.2975 24 16.2975ZM24 29C21.2388 29 19 26.7625 19 24C19 21.2388 21.2388 19 24 19C26.7612 19 29 21.2388 29 24C29 26.7625 26.7612 29 24 29ZM32.0075 14.1937C31.0125 14.1937 30.2063 15 30.2063 15.9938C30.2063 16.9875 31.0125 17.7938 32.0075 17.7938C33.0012 17.7938 33.8063 16.9875 33.8063 15.9938C33.8063 15 33.0012 14.1937 32.0075 14.1937Z" fill="white"/>
<path d="M24 11.7037C28.005 11.7037 28.48 11.7188 30.0625 11.7912C34.1275 11.9763 36.0263 13.905 36.2112 17.94C36.2838 19.5213 36.2975 19.9962 36.2975 24.0012C36.2975 28.0075 36.2825 28.4813 36.2112 30.0625C36.025 34.0938 34.1313 36.0263 30.0625 36.2112C28.48 36.2838 28.0075 36.2988 24 36.2988C19.995 36.2988 19.52 36.2838 17.9388 36.2112C13.8638 36.025 11.975 34.0875 11.79 30.0612C11.7175 28.48 11.7025 28.0062 11.7025 24C11.7025 19.995 11.7188 19.5213 11.79 17.9388C11.9763 13.905 13.87 11.975 17.9388 11.79C19.5213 11.7188 19.995 11.7037 24 11.7037ZM24 9C19.9263 9 19.4163 9.01751 17.8162 9.09C12.3687 9.34001 9.34125 12.3625 9.09124 17.815C9.01751 19.4163 9 19.9263 9 24C9 28.0737 9.01751 28.585 9.09 30.185C9.34001 35.6325 12.3625 38.6599 17.815 38.91C19.4163 38.9824 19.9263 39 24 39C28.0737 39 28.585 38.9824 30.185 38.91C35.6275 38.6599 38.6625 35.6375 38.9089 30.185C38.9824 28.585 39 28.0737 39 24C39 19.9263 38.9824 19.4163 38.91 17.8162C38.6651 12.3738 35.6388 9.34125 30.1863 9.09124C28.585 9.01751 28.0737 9 24 9ZM24 16.2975C19.7463 16.2975 16.2975 19.7463 16.2975 24C16.2975 28.2537 19.7463 31.7037 24 31.7037C28.2537 31.7037 31.7025 28.255 31.7025 24C31.7025 19.7463 28.2537 16.2975 24 16.2975ZM24 29C21.2388 29 19 26.7625 19 24C19 21.2388 21.2388 19 24 19C26.7612 19 29 21.2388 29 24C29 26.7625 26.7612 29 24 29ZM32.0075 14.1937C31.0125 14.1937 30.2063 15 30.2063 15.9938C30.2063 16.9875 31.0125 17.7938 32.0075 17.7938C33.0012 17.7938 33.8063 16.9875 33.8063 15.9938C33.8063 15 33.0012 14.1937 32.0075 14.1937Z" fill="#FF0045"/>
<path d="M24 11.7037C28.005 11.7037 28.48 11.7188 30.0625 11.7912C34.1275 11.9763 36.0263 13.905 36.2112 17.94C36.2838 19.5213 36.2975 19.9962 36.2975 24.0012C36.2975 28.0075 36.2825 28.4813 36.2112 30.0625C36.025 34.0938 34.1313 36.0263 30.0625 36.2112C28.48 36.2838 28.0075 36.2988 24 36.2988C19.995 36.2988 19.52 36.2838 17.9388 36.2112C13.8638 36.025 11.975 34.0875 11.79 30.0612C11.7175 28.48 11.7025 28.0062 11.7025 24C11.7025 19.995 11.7188 19.5213 11.79 17.9388C11.9763 13.905 13.87 11.975 17.9388 11.79C19.5213 11.7188 19.995 11.7037 24 11.7037ZM24 9C19.9263 9 19.4163 9.01751 17.8162 9.09C12.3687 9.34001 9.34125 12.3625 9.09124 17.815C9.01751 19.4163 9 19.9263 9 24C9 28.0737 9.01751 28.585 9.09 30.185C9.34001 35.6325 12.3625 38.6599 17.815 38.91C19.4163 38.9824 19.9263 39 24 39C28.0737 39 28.585 38.9824 30.185 38.91C35.6275 38.6599 38.6625 35.6375 38.9089 30.185C38.9824 28.585 39 28.0737 39 24C39 19.9263 38.9824 19.4163 38.91 17.8162C38.6651 12.3738 35.6388 9.34125 30.1863 9.09124C28.585 9.01751 28.0737 9 24 9ZM24 16.2975C19.7463 16.2975 16.2975 19.7463 16.2975 24C16.2975 28.2537 19.7463 31.7037 24 31.7037C28.2537 31.7037 31.7025 28.255 31.7025 24C31.7025 19.7463 28.2537 16.2975 24 16.2975ZM24 29C21.2388 29 19 26.7625 19 24C19 21.2388 21.2388 19 24 19C26.7612 19 29 21.2388 29 24C29 26.7625 26.7612 29 24 29ZM32.0075 14.1937C31.0125 14.1937 30.2063 15 30.2063 15.9938C30.2063 16.9875 31.0125 17.7938 32.0075 17.7938C33.0012 17.7938 33.8063 16.9875 33.8063 15.9938C33.8063 15 33.0012 14.1937 32.0075 14.1937Z" fill="url(#paint2_radial_31_6440)"/>
<path d="M24 11.7037C28.005 11.7037 28.48 11.7188 30.0625 11.7912C34.1275 11.9763 36.0263 13.905 36.2112 17.94C36.2838 19.5213 36.2975 19.9962 36.2975 24.0012C36.2975 28.0075 36.2825 28.4813 36.2112 30.0625C36.025 34.0938 34.1313 36.0263 30.0625 36.2112C28.48 36.2838 28.0075 36.2988 24 36.2988C19.995 36.2988 19.52 36.2838 17.9388 36.2112C13.8638 36.025 11.975 34.0875 11.79 30.0612C11.7175 28.48 11.7025 28.0062 11.7025 24C11.7025 19.995 11.7188 19.5213 11.79 17.9388C11.9763 13.905 13.87 11.975 17.9388 11.79C19.5213 11.7188 19.995 11.7037 24 11.7037ZM24 9C19.9263 9 19.4163 9.01751 17.8162 9.09C12.3687 9.34001 9.34125 12.3625 9.09124 17.815C9.01751 19.4163 9 19.9263 9 24C9 28.0737 9.01751 28.585 9.09 30.185C9.34001 35.6325 12.3625 38.6599 17.815 38.91C19.4163 38.9824 19.9263 39 24 39C28.0737 39 28.585 38.9824 30.185 38.91C35.6275 38.6599 38.6625 35.6375 38.9089 30.185C38.9824 28.585 39 28.0737 39 24C39 19.9263 38.9824 19.4163 38.91 17.8162C38.6651 12.3738 35.6388 9.34125 30.1863 9.09124C28.585 9.01751 28.0737 9 24 9ZM24 16.2975C19.7463 16.2975 16.2975 19.7463 16.2975 24C16.2975 28.2537 19.7463 31.7037 24 31.7037C28.2537 31.7037 31.7025 28.255 31.7025 24C31.7025 19.7463 28.2537 16.2975 24 16.2975ZM24 29C21.2388 29 19 26.7625 19 24C19 21.2388 21.2388 19 24 19C26.7612 19 29 21.2388 29 24C29 26.7625 26.7612 29 24 29ZM32.0075 14.1937C31.0125 14.1937 30.2063 15 30.2063 15.9938C30.2063 16.9875 31.0125 17.7938 32.0075 17.7938C33.0012 17.7938 33.8063 16.9875 33.8063 15.9938C33.8063 15 33.0012 14.1937 32.0075 14.1937Z" fill="url(#paint3_radial_31_6440)"/>
</g>
</g>
</g>
</g>
<defs>
<filter id="filter0_i_31_6440" x="3" y="3" width="42" height="46" filterUnits="userSpaceOnUse" color-interpolation-filters="sRGB">
<feFlood flood-opacity="0" result="BackgroundImageFix"/>
<feBlend mode="normal" in="SourceGraphic" in2="BackgroundImageFix" result="shape"/>
<feColorMatrix in="SourceAlpha" type="matrix" values="0 0 0 0 0 0 0 0 0 0 0 0 0 0 0 0 0 0 127 0" result="hardAlpha"/>
<feOffset dy="4"/>
<feGaussianBlur stdDeviation="2"/>
<feComposite in2="hardAlpha" operator="arithmetic" k2="-1" k3="1"/>
<feColorMatrix type="matrix" values="0 0 0 0 0 0 0 0 0 0 0 0 0 0 0 0 0 0 0.25 0"/>
<feBlend mode="normal" in2="shape" result="effect1_innerShadow_31_6440"/>
</filter>
<filter id="filter1_d_31_6440" x="5" y="7" width="38" height="38" filterUnits="userSpaceOnUse" color-interpolation-filters="sRGB">
<feFlood flood-opacity="0" result="BackgroundImageFix"/>
<feColorMatrix in="SourceAlpha" type="matrix" values="0 0 0 0 0 0 0 0 0 0 0 0 0 0 0 0 0 0 127 0" result="hardAlpha"/>
<feOffset dy="2"/>
<feGaussianBlur stdDeviation="2"/>
<feComposite in2="hardAlpha" operator="out"/>
<feColorMatrix type="matrix" values="0 0 0 0 0 0 0 0 0 0 0 0 0 0 0 0 0 0 0.25 0"/>
<feBlend mode="normal" in2="BackgroundImageFix" result="effect1_dropShadow_31_6440"/>
<feBlend mode="normal" in="SourceGraphic" in2="effect1_dropShadow_31_6440" result="shape"/>
</filter>
<radialGradient id="paint0_radial_31_6440" cx="0" cy="0" r="1" gradientUnits="userSpaceOnUse" gradientTransform="translate(48) rotate(135) scale(67.8821)">
<stop stop-color="#B000FF"/>
<stop offset="1" stop-color="#DFDFDF" stop-opacity="0"/>
</radialGradient>
<radialGradient id="paint1_radial_31_6440" cx="0" cy="0" r="1" gradientUnits="userSpaceOnUse" gradientTransform="translate(-1.43051e-06 48) rotate(-63.4349) scale(53.6655)">
<stop stop-color="#FFB000"/>
<stop offset="1" stop-color="#DFDFDF" stop-opacity="0"/>
</radialGradient>
<radialGradient id="paint2_radial_31_6440" cx="0" cy="0" r="1" gradientUnits="userSpaceOnUse" gradientTransform="translate(39 9) rotate(135) scale(42.4264)">
<stop stop-color="#B000FF"/>
<stop offset="1" stop-color="#DFDFDF" stop-opacity="0"/>
</radialGradient>
<radialGradient id="paint3_radial_31_6440" cx="0" cy="0" r="1" gradientUnits="userSpaceOnUse" gradientTransform="translate(9 39) rotate(-63.4349) scale(33.541)">
<stop stop-color="#FFB000"/>
<stop offset="1" stop-color="#DFDFDF" stop-opacity="0"/>
</radialGradient>
<clipPath id="clip0_31_6440">
<rect width="48" height="48" fill="white"/>
</clipPath>
</defs>
</svg>
