<svg width="48" height="48" viewBox="0 0 48 48" fill="none" xmlns="http://www.w3.org/2000/svg">
<g clip-path="url(#clip0_31_6485)">
<path d="M36 0H12C5.37258 0 0 5.37258 0 12V36C0 42.6274 5.37258 48 12 48H36C42.6274 48 48 42.6274 48 36V12C48 5.37258 42.6274 0 36 0Z" fill="url(#paint0_linear_31_6485)"/>
<path d="M36 0H12C5.37258 0 0 5.37258 0 12V36C0 42.6274 5.37258 48 12 48H36C42.6274 48 48 42.6274 48 36V12C48 5.37258 42.6274 0 36 0Z" fill="url(#paint1_linear_31_6485)"/>
<g filter="url(#filter0_i_31_6485)">
<path d="M36 3H12C7.02944 3 3 7.02944 3 12V36C3 40.9706 7.02944 45 12 45H36C40.9706 45 45 40.9706 45 36V12C45 7.02944 40.9706 3 36 3Z" fill="black" fill-opacity="0.7"/>
<g filter="url(#filter1_d_31_6485)">
<path d="M19.3354 29.2078C19.9505 30.4409 28.0597 30.4281 28.6677 29.2078C29.2749 27.989 25.2535 20.6703 24.0019 20.6689C22.7496 20.6689 18.7203 27.9747 19.3354 29.2078Z" fill="url(#paint2_linear_31_6485)"/>
</g>
<g filter="url(#filter2_d_31_6485)">
<path d="M9.94072 35.4773C11.7918 39.1943 36.2318 39.1515 38.0629 35.4773C39.894 31.803 27.7727 9.75 24.0022 9.75C20.2302 9.75 8.08964 31.7603 9.94072 35.4773ZM14.7904 32.2521C13.5772 29.8165 21.5331 15.3951 24.0036 15.3951C26.4747 15.3951 34.4171 29.8429 33.2168 32.2521C32.0172 34.6612 16.0035 34.6876 14.7904 32.2521Z" fill="url(#paint3_linear_31_6485)"/>
</g>
</g>
</g>
<defs>
<filter id="filter0_i_31_6485" x="3" y="3" width="42" height="46" filterUnits="userSpaceOnUse" color-interpolation-filters="sRGB">
<feFlood flood-opacity="0" result="BackgroundImageFix"/>
<feBlend mode="normal" in="SourceGraphic" in2="BackgroundImageFix" result="shape"/>
<feColorMatrix in="SourceAlpha" type="matrix" values="0 0 0 0 0 0 0 0 0 0 0 0 0 0 0 0 0 0 127 0" result="hardAlpha"/>
<feOffset dy="4"/>
<feGaussianBlur stdDeviation="2"/>
<feComposite in2="hardAlpha" operator="arithmetic" k2="-1" k3="1"/>
<feColorMatrix type="matrix" values="0 0 0 0 0 0 0 0 0 0 0 0 0 0 0 0 0 0 0.25 0"/>
<feBlend mode="normal" in2="shape" result="effect1_innerShadow_31_6485"/>
</filter>
<filter id="filter1_d_31_6485" x="15.272" y="18.6689" width="17.4575" height="17.459" filterUnits="userSpaceOnUse" color-interpolation-filters="sRGB">
<feFlood flood-opacity="0" result="BackgroundImageFix"/>
<feColorMatrix in="SourceAlpha" type="matrix" values="0 0 0 0 0 0 0 0 0 0 0 0 0 0 0 0 0 0 127 0" result="hardAlpha"/>
<feOffset dy="2"/>
<feGaussianBlur stdDeviation="2"/>
<feComposite in2="hardAlpha" operator="out"/>
<feColorMatrix type="matrix" values="0 0 0 0 0 0 0 0 0 0 0 0 0 0 0 0 0 0 0.25 0"/>
<feBlend mode="normal" in2="BackgroundImageFix" result="effect1_dropShadow_31_6485"/>
<feBlend mode="normal" in="SourceGraphic" in2="effect1_dropShadow_31_6485" result="shape"/>
</filter>
<filter id="filter2_d_31_6485" x="5.75" y="7.75" width="36.5" height="36.499" filterUnits="userSpaceOnUse" color-interpolation-filters="sRGB">
<feFlood flood-opacity="0" result="BackgroundImageFix"/>
<feColorMatrix in="SourceAlpha" type="matrix" values="0 0 0 0 0 0 0 0 0 0 0 0 0 0 0 0 0 0 127 0" result="hardAlpha"/>
<feOffset dy="2"/>
<feGaussianBlur stdDeviation="2"/>
<feComposite in2="hardAlpha" operator="out"/>
<feColorMatrix type="matrix" values="0 0 0 0 0 0 0 0 0 0 0 0 0 0 0 0 0 0 0.25 0"/>
<feBlend mode="normal" in2="BackgroundImageFix" result="effect1_dropShadow_31_6485"/>
<feBlend mode="normal" in="SourceGraphic" in2="effect1_dropShadow_31_6485" result="shape"/>
</filter>
<linearGradient id="paint0_linear_31_6485" x1="537.105" y1="654.229" x2="471.57" y2="655.328" gradientUnits="userSpaceOnUse">
<stop stop-color="#FCFCFC"/>
<stop offset="1" stop-color="#D0D6DC"/>
</linearGradient>
<linearGradient id="paint1_linear_31_6485" x1="8.41223" y1="19.5968" x2="48.2115" y2="42.5741" gradientUnits="userSpaceOnUse">
<stop stop-color="#AA5CC3"/>
<stop offset="1" stop-color="#00A4DC"/>
</linearGradient>
<linearGradient id="paint2_linear_31_6485" x1="14.7445" y1="21.3852" x2="38.3748" y2="35.0283" gradientUnits="userSpaceOnUse">
<stop stop-color="#AA5CC3"/>
<stop offset="1" stop-color="#00A4DC"/>
</linearGradient>
<linearGradient id="paint3_linear_31_6485" x1="14.7448" y1="21.3852" x2="38.3752" y2="35.0283" gradientUnits="userSpaceOnUse">
<stop stop-color="#AA5CC3"/>
<stop offset="1" stop-color="#00A4DC"/>
</linearGradient>
<clipPath id="clip0_31_6485">
<rect width="48" height="48" fill="white"/>
</clipPath>
</defs>
</svg>
