<svg width="48" height="48" viewBox="0 0 48 48" fill="none" xmlns="http://www.w3.org/2000/svg">
<g clip-path="url(#clip0_31_6494)">
<path d="M36 0H12C5.37258 0 0 5.37258 0 12V36C0 42.6274 5.37258 48 12 48H36C42.6274 48 48 42.6274 48 36V12C48 5.37258 42.6274 0 36 0Z" fill="url(#paint0_linear_31_6494)"/>
<g filter="url(#filter0_i_31_6494)">
<path d="M36 3H12C7.02944 3 3 7.02944 3 12V36C3 40.9706 7.02944 45 12 45H36C40.9706 45 45 40.9706 45 36V12C45 7.02944 40.9706 3 36 3Z" fill="black" fill-opacity="0.7"/>
<mask id="mask0_31_6494" style="mask-type:luminance" maskUnits="userSpaceOnUse" x="6" y="6" width="36" height="36">
<path d="M42 6H6V42H42V6Z" fill="white"/>
</mask>
<g mask="url(#mask0_31_6494)">
<g filter="url(#filter1_d_31_6494)">
<path d="M24.75 17.25C24.75 19.0402 24.0389 20.7571 22.773 22.023C21.5071 23.2889 19.7902 24 18 24C16.2098 24 14.4929 23.2889 13.227 22.023C11.9611 20.7571 11.25 19.0402 11.25 17.25C11.25 15.4598 11.9611 13.7429 13.227 12.477C14.4929 11.2111 16.2098 10.5 18 10.5C19.7902 10.5 21.5071 11.2111 22.773 12.477C24.0389 13.7429 24.75 15.4598 24.75 17.25Z" fill="url(#paint1_linear_31_6494)"/>
<path d="M23.9429 9.43353C20.3001 9.43353 16.6574 10.8293 13.8659 13.62C8.28364 19.2023 8.28364 28.191 13.8659 33.7733C19.4481 39.3555 28.4369 39.3555 34.0191 33.7733C39.6014 28.191 39.6014 19.2023 34.0191 13.62C31.2284 10.8293 27.5856 9.43353 23.9429 9.43353Z" fill="url(#paint2_linear_31_6494)"/>
<path opacity="0.4" fill-rule="evenodd" clip-rule="evenodd" d="M13.8335 14.9618L17.0675 9.93378L26.5542 19.2885C21.7242 17.6858 20.8265 17.6543 14.069 18.0563L13.8335 14.9618Z" fill="url(#paint3_linear_31_6494)"/>
<path d="M15 7.89825C13.7842 7.89825 12.5677 8.2725 12.75 9C13.5 12 14.25 30 13.5 31.5C12.9998 32.4998 11.25 32.25 11.25 35.25C11.25 37.4003 13.3672 41.25 15 41.25C16.4753 41.244 18.75 37.4003 18.75 35.25C18.75 32.25 17.0002 32.4998 16.5 31.5C15.75 30 16.5 12 17.25 9C17.4323 8.2725 16.2158 7.89825 15 7.89825ZM14.625 8.64825V9.75L15.4688 8.6715L16.1483 8.8125L15.2573 9.891L16.1483 11.016L15.4688 11.2268L14.625 10.0313V11.1098L13.9688 11.2035V8.6955L14.625 8.64825Z" fill="url(#paint4_linear_31_6494)"/>
<path d="M24.75 17.25C24.75 19.0402 24.0389 20.7571 22.773 22.023C21.5071 23.2889 19.7902 24 18 24C16.2098 24 14.4929 23.2889 13.227 22.023C11.9611 20.7571 11.25 19.0402 11.25 17.25C11.25 15.4598 11.9611 13.7429 13.227 12.477C14.4929 11.2111 16.2098 10.5 18 10.5C19.7902 10.5 21.5071 11.2111 22.773 12.477C24.0389 13.7429 24.75 15.4598 24.75 17.25Z" fill="url(#paint5_linear_31_6494)"/>
<path d="M31.4933 23.8152C31.4933 25.8512 30.6845 27.8039 29.2446 29.2436C27.8048 30.6832 25.852 31.4921 23.8157 31.4921C21.7795 31.4921 19.8267 30.6832 18.3869 29.2436C16.9471 27.8039 16.1382 25.8512 16.1382 23.8152C16.1382 21.7792 16.9471 19.8266 18.3869 18.3869C19.8267 16.9472 21.7795 16.1384 23.8157 16.1384C25.852 16.1384 27.8048 16.9472 29.2446 18.3869C30.6845 19.8266 31.4933 21.7792 31.4933 23.8152Z" fill="url(#paint6_linear_31_6494)"/>
<path d="M21.7876 27.0225V20.4128L27.4501 23.6723L21.7876 27.0225Z" fill="url(#paint7_linear_31_6494)"/>
<path opacity="0.052" d="M23.5685 19.635C22.835 19.6732 22.1315 19.9275 21.5007 20.2972C21.7437 20.9805 22.13 20.9445 22.6662 20.6325C24.023 20.1382 25.5815 20.6377 26.516 21.7072C27.2045 21.3247 26.9727 20.8852 26.4342 20.5372C25.6257 19.9012 24.5982 19.5742 23.5685 19.635ZM19.8185 22.4325C19.1667 24.153 19.8342 26.178 21.2652 27.2797C21.881 26.7645 21.5675 26.4097 21.0927 25.965C20.2985 24.9757 20.1755 23.5605 20.6712 22.419C20.3825 22.4505 19.8177 21.8302 19.8185 22.4325ZM27.7077 23.4615C26.9045 23.3647 27.38 24.3352 27.1092 24.822C26.8992 25.6335 26.3262 26.3152 25.6355 26.7855C25.8845 27.534 26.2925 27.4387 26.7282 26.9302C27.686 26.0535 28.142 24.7065 28.0385 23.412C27.9282 23.4285 27.818 23.445 27.7077 23.4622M22.3617 27.33C21.9462 28.08 23.0982 28.0155 23.6045 28.101C24.071 28.1182 24.5322 28.0537 24.983 27.9375C24.9965 27.0435 24.3905 27.2197 23.7177 27.2985C23.3225 27.4852 22.3565 26.7052 22.3617 27.33Z" fill="url(#paint8_radial_31_6494)"/>
<path opacity="0.052" d="M18.6989 20.265C18.0644 21.1432 17.7059 22.1842 17.5469 23.2507C18.5556 23.6032 18.8721 23.1262 19.0094 22.2232C19.6964 20.2087 21.7109 18.8812 23.8026 18.7972C23.9999 17.6535 23.2814 17.5125 22.3844 17.8095C20.9061 18.15 19.5809 19.0275 18.6989 20.265ZM18.4431 27.1567C19.8156 29.496 22.7579 30.603 25.3454 29.9782C25.3236 28.7947 24.6261 28.8262 23.6766 28.9605C21.8069 28.9575 20.0676 27.7897 19.2156 26.166C18.9846 26.526 17.7501 26.6017 18.4431 27.1567ZM26.9204 19.0515C26.0661 19.884 27.6201 20.235 27.9284 20.9962C28.6656 21.9877 28.9184 23.2762 28.8201 24.5032C29.9106 24.9097 30.1784 24.3525 29.9969 23.3827C29.8754 21.4725 28.7511 19.7032 27.1686 18.6247C27.0854 18.7665 27.0029 18.909 26.9196 19.0507M26.4171 28.7647C26.8949 29.9355 27.8849 28.5525 28.4511 28.0515C28.9019 27.5317 29.2551 26.943 29.5386 26.3182C28.5246 25.476 28.1669 26.3355 27.6351 27.1792C27.4836 27.8062 25.6956 28.1932 26.4179 28.7655" fill="url(#paint9_radial_31_6494)"/>
<path d="M16.5298 32.4975C16.6183 32.5418 18.1296 33.036 18.1363 35.2575C18.1431 37.4115 16.0063 40.5075 14.9233 40.515C13.7458 40.5218 11.7388 37.4108 11.7103 35.2575C11.6826 33.2025 13.2283 32.5553 13.3168 32.4975C14.4111 31.869 15.4873 31.8615 16.5298 32.4975Z" fill="url(#paint10_linear_31_6494)"/>
<path opacity="0.36" d="M14.9997 7.89825C13.7839 7.89825 12.5674 8.2725 12.7497 9C13.4997 12 14.2497 30 13.4997 31.5C13.3542 31.884 13.6189 31.533 13.7809 31.4063C14.4844 29.5223 14.0292 11.9625 13.2889 9C13.1202 8.325 14.1597 7.97175 15.2809 7.9215C15.1857 7.917 15.0957 7.89825 14.9997 7.89825Z" fill="white"/>
</g>
</g>
</g>
</g>
<defs>
<filter id="filter0_i_31_6494" x="3" y="3" width="42" height="46" filterUnits="userSpaceOnUse" color-interpolation-filters="sRGB">
<feFlood flood-opacity="0" result="BackgroundImageFix"/>
<feBlend mode="normal" in="SourceGraphic" in2="BackgroundImageFix" result="shape"/>
<feColorMatrix in="SourceAlpha" type="matrix" values="0 0 0 0 0 0 0 0 0 0 0 0 0 0 0 0 0 0 127 0" result="hardAlpha"/>
<feOffset dy="4"/>
<feGaussianBlur stdDeviation="2"/>
<feComposite in2="hardAlpha" operator="arithmetic" k2="-1" k3="1"/>
<feColorMatrix type="matrix" values="0 0 0 0 0 0 0 0 0 0 0 0 0 0 0 0 0 0 0.25 0"/>
<feBlend mode="normal" in2="shape" result="effect1_innerShadow_31_6494"/>
</filter>
<filter id="filter1_d_31_6494" x="5.6792" y="5.89825" width="36.5269" height="41.3517" filterUnits="userSpaceOnUse" color-interpolation-filters="sRGB">
<feFlood flood-opacity="0" result="BackgroundImageFix"/>
<feColorMatrix in="SourceAlpha" type="matrix" values="0 0 0 0 0 0 0 0 0 0 0 0 0 0 0 0 0 0 127 0" result="hardAlpha"/>
<feOffset dy="2"/>
<feGaussianBlur stdDeviation="2"/>
<feComposite in2="hardAlpha" operator="out"/>
<feColorMatrix type="matrix" values="0 0 0 0 0 0 0 0 0 0 0 0 0 0 0 0 0 0 0.25 0"/>
<feBlend mode="normal" in2="BackgroundImageFix" result="effect1_dropShadow_31_6494"/>
<feBlend mode="normal" in="SourceGraphic" in2="effect1_dropShadow_31_6494" result="shape"/>
</filter>
<linearGradient id="paint0_linear_31_6494" x1="537.105" y1="654.229" x2="471.57" y2="655.328" gradientUnits="userSpaceOnUse">
<stop stop-color="#FCFCFC"/>
<stop offset="1" stop-color="#D0D6DC"/>
</linearGradient>
<linearGradient id="paint1_linear_31_6494" x1="295.208" y1="397.68" x2="313.365" y2="398.453" gradientUnits="userSpaceOnUse">
<stop stop-color="white"/>
<stop offset="1" stop-color="#DFE1E3"/>
</linearGradient>
<linearGradient id="paint2_linear_31_6494" x1="328.882" y1="398.243" x2="289.935" y2="398.895" gradientUnits="userSpaceOnUse">
<stop stop-color="#FCFCFC"/>
<stop offset="1" stop-color="#E9EAEB"/>
</linearGradient>
<linearGradient id="paint3_linear_31_6494" x1="12.1452" y1="21.6518" x2="18.5307" y2="22.0718" gradientUnits="userSpaceOnUse">
<stop/>
<stop offset="1" stop-opacity="0"/>
</linearGradient>
<linearGradient id="paint4_linear_31_6494" x1="15" y1="7.1895" x2="14.9062" y2="39.9825" gradientUnits="userSpaceOnUse">
<stop stop-color="#E0E0E0"/>
<stop offset="0.125" stop-color="#C0C0C0"/>
<stop offset="0.66" stop-color="#9B9B9B"/>
<stop offset="0.732" stop-color="#B3B3B3"/>
<stop offset="1" stop-color="#B1B1B1"/>
</linearGradient>
<linearGradient id="paint5_linear_31_6494" x1="297.255" y1="397.635" x2="307.522" y2="398.775" gradientUnits="userSpaceOnUse">
<stop stop-color="white"/>
<stop offset="1" stop-color="#EFF0F1"/>
</linearGradient>
<linearGradient id="paint6_linear_31_6494" x1="18.392" y1="18.3791" x2="30.5639" y2="31.7713" gradientUnits="userSpaceOnUse">
<stop stop-color="#491309"/>
<stop offset="1" stop-color="#B6642D"/>
</linearGradient>
<linearGradient id="paint7_linear_31_6494" x1="18.2221" y1="17.9033" x2="28.9748" y2="29.2575" gradientUnits="userSpaceOnUse">
<stop stop-color="#FEE3A8"/>
<stop offset="1" stop-color="#FCDD99" stop-opacity="0"/>
</linearGradient>
<radialGradient id="paint8_radial_31_6494" cx="0" cy="0" r="1" gradientUnits="userSpaceOnUse" gradientTransform="translate(23.8107 23.865) scale(4.24275)">
<stop stop-color="#FCDD99"/>
<stop offset="1" stop-color="#FCDD99" stop-opacity="0"/>
</radialGradient>
<radialGradient id="paint9_radial_31_6494" cx="0" cy="0" r="1" gradientUnits="userSpaceOnUse" gradientTransform="translate(23.7981 23.9137) scale(6.25125)">
<stop stop-color="#FCDD99"/>
<stop offset="1" stop-color="#FCDD99" stop-opacity="0"/>
</radialGradient>
<linearGradient id="paint10_linear_31_6494" x1="15.9351" y1="37.5075" x2="12.6688" y2="32.1653" gradientUnits="userSpaceOnUse">
<stop stop-color="#D6D6D6"/>
<stop offset="1" stop-color="#7A7A7A"/>
</linearGradient>
<clipPath id="clip0_31_6494">
<rect width="48" height="48" fill="white"/>
</clipPath>
</defs>
</svg>
