<svg width="48" height="48" viewBox="0 0 48 48" fill="none" xmlns="http://www.w3.org/2000/svg">
<g clip-path="url(#clip0_31_6619)">
<path d="M36 0H12C5.37258 0 0 5.37258 0 12V36C0 42.6274 5.37258 48 12 48H36C42.6274 48 48 42.6274 48 36V12C48 5.37258 42.6274 0 36 0Z" fill="url(#paint0_linear_31_6619)"/>
<g filter="url(#filter0_i_31_6619)">
<path d="M36 3H12C7.02944 3 3 7.02944 3 12V36C3 40.9706 7.02944 45 12 45H36C40.9706 45 45 40.9706 45 36V12C45 7.02944 40.9706 3 36 3Z" fill="black" fill-opacity="0.7"/>
<g filter="url(#filter1_d_31_6619)">
<path fill-rule="evenodd" clip-rule="evenodd" d="M23.625 9H13.875C12.2181 9 10.875 10.3431 10.875 12V36C10.875 37.6568 12.2181 39 13.875 39H34.125C35.7819 39 37.125 37.6568 37.125 36V22.5L23.625 9Z" fill="url(#paint1_linear_31_6619)"/>
</g>
<g filter="url(#filter2_d_31_6619)">
<path d="M37.125 12C37.125 10.3431 35.7819 9 34.125 9H28.125L37.125 18V12Z" fill="#97989A"/>
</g>
<path d="M14.625 26.25H33.375M14.625 29.25H33.375M14.625 32.25H29.625" stroke="white" stroke-width="4" stroke-linecap="round" stroke-linejoin="round"/>
<path d="M16.125 21.75H15C14.7929 21.75 14.625 21.5821 14.625 21.375V16.125C14.625 15.9179 14.7929 15.75 15 15.75H23.25C23.4571 15.75 23.625 15.9179 23.625 16.125V21.375C23.625 21.5821 23.4571 21.75 23.25 21.75H20.25M16.125 21.75L17.0622 20.5004C17.1709 20.3554 17.3678 20.3089 17.5299 20.3899L20.25 21.75M16.125 21.75H20.25" stroke="white" stroke-opacity="0.7" stroke-width="4" stroke-linecap="round" stroke-linejoin="round"/>
<path d="M19.5 19.5C19.9142 19.5 20.25 19.1642 20.25 18.75C20.25 18.3358 19.9142 18 19.5 18C19.0858 18 18.75 18.3358 18.75 18.75C18.75 19.1642 19.0858 19.5 19.5 19.5Z" fill="white" fill-opacity="0.7"/>
</g>
</g>
<defs>
<filter id="filter0_i_31_6619" x="3" y="3" width="42" height="46" filterUnits="userSpaceOnUse" color-interpolation-filters="sRGB">
<feFlood flood-opacity="0" result="BackgroundImageFix"/>
<feBlend mode="normal" in="SourceGraphic" in2="BackgroundImageFix" result="shape"/>
<feColorMatrix in="SourceAlpha" type="matrix" values="0 0 0 0 0 0 0 0 0 0 0 0 0 0 0 0 0 0 127 0" result="hardAlpha"/>
<feOffset dy="4"/>
<feGaussianBlur stdDeviation="2"/>
<feComposite in2="hardAlpha" operator="arithmetic" k2="-1" k3="1"/>
<feColorMatrix type="matrix" values="0 0 0 0 0 0 0 0 0 0 0 0 0 0 0 0 0 0 0.25 0"/>
<feBlend mode="normal" in2="shape" result="effect1_innerShadow_31_6619"/>
</filter>
<filter id="filter1_d_31_6619" x="6.875" y="7" width="34.25" height="38" filterUnits="userSpaceOnUse" color-interpolation-filters="sRGB">
<feFlood flood-opacity="0" result="BackgroundImageFix"/>
<feColorMatrix in="SourceAlpha" type="matrix" values="0 0 0 0 0 0 0 0 0 0 0 0 0 0 0 0 0 0 127 0" result="hardAlpha"/>
<feOffset dy="2"/>
<feGaussianBlur stdDeviation="2"/>
<feComposite in2="hardAlpha" operator="out"/>
<feColorMatrix type="matrix" values="0 0 0 0 0 0 0 0 0 0 0 0 0 0 0 0 0 0 0.25 0"/>
<feBlend mode="normal" in2="BackgroundImageFix" result="effect1_dropShadow_31_6619"/>
<feBlend mode="normal" in="SourceGraphic" in2="effect1_dropShadow_31_6619" result="shape"/>
</filter>
<filter id="filter2_d_31_6619" x="24.125" y="7" width="17" height="17" filterUnits="userSpaceOnUse" color-interpolation-filters="sRGB">
<feFlood flood-opacity="0" result="BackgroundImageFix"/>
<feColorMatrix in="SourceAlpha" type="matrix" values="0 0 0 0 0 0 0 0 0 0 0 0 0 0 0 0 0 0 127 0" result="hardAlpha"/>
<feOffset dy="2"/>
<feGaussianBlur stdDeviation="2"/>
<feComposite in2="hardAlpha" operator="out"/>
<feColorMatrix type="matrix" values="0 0 0 0 0 0 0 0 0 0 0 0 0 0 0 0 0 0 0.25 0"/>
<feBlend mode="normal" in2="BackgroundImageFix" result="effect1_dropShadow_31_6619"/>
<feBlend mode="normal" in="SourceGraphic" in2="effect1_dropShadow_31_6619" result="shape"/>
</filter>
<linearGradient id="paint0_linear_31_6619" x1="48" y1="0" x2="0" y2="48" gradientUnits="userSpaceOnUse">
<stop stop-color="#1FCAF8"/>
<stop offset="1" stop-color="#0D44B1"/>
</linearGradient>
<linearGradient id="paint1_linear_31_6619" x1="37.125" y1="9" x2="7.125" y2="39" gradientUnits="userSpaceOnUse">
<stop stop-color="#1FCAF8"/>
<stop offset="1" stop-color="#0D44B1"/>
</linearGradient>
<clipPath id="clip0_31_6619">
<rect width="48" height="48" fill="white"/>
</clipPath>
</defs>
</svg>
