<svg width="48" height="48" viewBox="0 0 48 48" fill="none" xmlns="http://www.w3.org/2000/svg">
<g clip-path="url(#clip0_31_6603)">
<path d="M36 0H12C5.37258 0 0 5.37258 0 12V36C0 42.6274 5.37258 48 12 48H36C42.6274 48 48 42.6274 48 36V12C48 5.37258 42.6274 0 36 0Z" fill="url(#paint0_linear_31_6603)"/>
<g filter="url(#filter0_i_31_6603)">
<path d="M36 3H12C7.02944 3 3 7.02944 3 12V36C3 40.9706 7.02944 45 12 45H36C40.9706 45 45 40.9706 45 36V12C45 7.02944 40.9706 3 36 3Z" fill="black" fill-opacity="0.7"/>
<g filter="url(#filter1_d_31_6603)">
<path fill-rule="evenodd" clip-rule="evenodd" d="M25.5 9H12C10.3431 9 9 10.3431 9 12V36C9 37.6568 10.3431 39 12 39H36C37.6568 39 39 37.6568 39 36V22.5L25.5 9Z" fill="url(#paint1_linear_31_6603)"/>
</g>
<g filter="url(#filter2_d_31_6603)">
<path d="M25.5 19.5C25.5 21.1569 26.8431 22.5 28.5 22.5H38.9998L25.5 9V19.5Z" fill="#FAFAFA"/>
</g>
<g filter="url(#filter3_d_31_6603)">
<path d="M38.9998 12C38.9998 10.3431 37.6569 9 36 9H30L38.9998 18V12Z" fill="#97989A"/>
</g>
<mask id="mask0_31_6603" style="mask-type:alpha" maskUnits="userSpaceOnUse" x="16" y="22" width="16" height="16">
<path d="M31.5 22.5H16.5V37.5H31.5V22.5Z" fill="#D9D9D9"/>
</mask>
<g mask="url(#mask0_31_6603)">
<path fill-rule="evenodd" clip-rule="evenodd" d="M23.375 35H24.6094L24.8281 33.3437C25.151 33.2604 25.4505 33.138 25.7266 32.9765C26.0026 32.8151 26.2552 32.6198 26.4844 32.3906L28.0312 33.0312L28.6406 31.9687L27.2969 30.9531C27.3489 30.8073 27.3854 30.6536 27.4062 30.4922C27.4271 30.3307 27.4375 30.1667 27.4375 30C27.4375 29.8333 27.4271 29.6693 27.4062 29.5078C27.3854 29.3464 27.3489 29.1927 27.2969 29.0468L28.6406 28.0312L28.0312 26.9687L26.4844 27.625C26.2552 27.3854 26.0026 27.1849 25.7266 27.0234C25.4505 26.862 25.151 26.7396 24.8281 26.6562L24.625 25H23.3906L23.1719 26.6562C22.8489 26.7396 22.5495 26.862 22.2734 27.0234C21.9974 27.1849 21.7448 27.3802 21.5156 27.6094L19.9688 26.9687L19.3594 28.0312L20.7031 29.0312C20.651 29.1875 20.6146 29.3437 20.5938 29.5C20.5729 29.6562 20.5625 29.8229 20.5625 30C20.5625 30.1667 20.5729 30.3281 20.5938 30.4844C20.6146 30.6406 20.651 30.7969 20.7031 30.9531L19.3594 31.9687L19.9688 33.0312L21.5156 32.375C21.7448 32.6146 21.9974 32.8151 22.2734 32.9765C22.5495 33.138 22.8489 33.2604 23.1719 33.3437L23.375 35ZM25.5781 31.5469C25.151 31.9739 24.6354 32.1875 24.0312 32.1875C23.4166 32.1875 22.8984 31.9739 22.4766 31.5469C22.0547 31.1198 21.8438 30.6041 21.8438 30C21.8438 29.3958 22.0547 28.8802 22.4766 28.4531C22.8984 28.026 23.4166 27.8125 24.0312 27.8125C24.6354 27.8125 25.151 28.026 25.5781 28.4531C26.0052 28.8802 26.2188 29.3958 26.2188 30C26.2188 30.6041 26.0052 31.1198 25.5781 31.5469Z" fill="url(#paint2_linear_31_6603)"/>
<path fill-rule="evenodd" clip-rule="evenodd" d="M22.422 36.0938C22.5365 36.1979 22.672 36.25 22.8282 36.25H25.172C25.3282 36.25 25.4636 36.1979 25.5782 36.0938C25.6928 35.9896 25.7605 35.8594 25.7813 35.7031L25.9688 34.25C26.0938 34.1979 26.2189 34.1354 26.3438 34.0625C26.4688 33.9896 26.5886 33.9115 26.7032 33.8281L28.0313 34.3906C28.1772 34.4531 28.3256 34.4583 28.4767 34.4063C28.6277 34.3542 28.7449 34.2604 28.8282 34.125L29.9845 32.125C30.0678 31.9896 30.0938 31.8438 30.0626 31.6875C30.0313 31.5312 29.9532 31.4063 29.8282 31.3125L28.6564 30.4219C28.6772 30.349 28.6876 30.2787 28.6876 30.2109V29.7891C28.6876 29.7214 28.6824 29.6511 28.672 29.5781L29.8438 28.6875C29.9689 28.5938 30.047 28.4688 30.0782 28.3125C30.1095 28.1562 30.0834 28.0104 30.0001 27.875L28.8439 25.8594C28.7605 25.724 28.6459 25.6328 28.5001 25.586C28.3543 25.5391 28.2084 25.5469 28.0626 25.6094L26.7032 26.1719C26.5886 26.0886 26.4715 26.0104 26.3516 25.9375C26.2319 25.8646 26.1043 25.8021 25.9688 25.75L25.7813 24.2969C25.7605 24.1406 25.6928 24.0104 25.5782 23.9063C25.4636 23.8021 25.3282 23.75 25.172 23.75H22.8282C22.672 23.75 22.5365 23.8021 22.422 23.9063C22.3074 24.0104 22.2397 24.1406 22.2188 24.2969L22.0313 25.75C21.9064 25.8021 21.7813 25.8646 21.6563 25.9375C21.5314 26.0104 21.4115 26.0886 21.297 26.1719L19.9376 25.6094C19.7918 25.5469 19.6459 25.5391 19.5001 25.586C19.3543 25.6328 19.2397 25.724 19.1563 25.8594L18.0001 27.875C17.9168 28.0104 17.8907 28.1562 17.922 28.3125C17.9532 28.4688 18.0313 28.5938 18.1564 28.6875L19.3282 29.5781C19.3178 29.6511 19.3126 29.7214 19.3126 29.7891V30.2109C19.3126 30.2787 19.3178 30.349 19.3282 30.4219L18.1564 31.3125C18.0313 31.4063 17.9532 31.5312 17.922 31.6875C17.8907 31.8438 17.9168 31.9896 18.0001 32.125L19.1563 34.1407C19.2397 34.2761 19.3543 34.3672 19.5001 34.4141C19.6459 34.4609 19.7918 34.4531 19.9376 34.3906L21.297 33.8281C21.4115 33.9115 21.5287 33.9896 21.6485 34.0625C21.7683 34.1354 21.8959 34.1979 22.0313 34.25L22.2188 35.7031C22.2397 35.8594 22.3074 35.9896 22.422 36.0938ZM24.6095 35H23.3751L23.172 33.3438C22.849 33.2605 22.5496 33.138 22.2735 32.9766C21.9975 32.8151 21.7449 32.6146 21.5157 32.375L19.9688 33.0312L19.3595 31.9688L20.7032 30.9532C20.6511 30.7969 20.6147 30.6406 20.5939 30.4844C20.573 30.3281 20.5626 30.1667 20.5626 30C20.5626 29.8229 20.573 29.6563 20.5939 29.5C20.6147 29.3438 20.6511 29.1875 20.7032 29.0313L19.3595 28.0313L19.9688 26.9688L21.5157 27.6094C21.7449 27.3802 21.9975 27.1849 22.2735 27.0234C22.5496 26.862 22.849 26.7396 23.172 26.6562L23.3907 25H24.6251L24.8282 26.6562C25.1511 26.7396 25.4506 26.862 25.7267 27.0234C26.0027 27.1849 26.2553 27.3854 26.4845 27.625L28.0313 26.9688L28.6407 28.0313L27.297 29.0469C27.349 29.1927 27.3855 29.3464 27.4063 29.5078C27.4272 29.6693 27.4376 29.8334 27.4376 30C27.4376 30.1667 27.4272 30.3308 27.4063 30.4922C27.3855 30.6537 27.349 30.8073 27.297 30.9532L28.6407 31.9688L28.0313 33.0312L26.4845 32.3906C26.2553 32.6198 26.0027 32.8151 25.7267 32.9766C25.4506 33.138 25.1511 33.2605 24.8282 33.3438L24.6095 35Z" fill="url(#paint3_linear_31_6603)"/>
</g>
</g>
</g>
<defs>
<filter id="filter0_i_31_6603" x="3" y="3" width="42" height="46" filterUnits="userSpaceOnUse" color-interpolation-filters="sRGB">
<feFlood flood-opacity="0" result="BackgroundImageFix"/>
<feBlend mode="normal" in="SourceGraphic" in2="BackgroundImageFix" result="shape"/>
<feColorMatrix in="SourceAlpha" type="matrix" values="0 0 0 0 0 0 0 0 0 0 0 0 0 0 0 0 0 0 127 0" result="hardAlpha"/>
<feOffset dy="4"/>
<feGaussianBlur stdDeviation="2"/>
<feComposite in2="hardAlpha" operator="arithmetic" k2="-1" k3="1"/>
<feColorMatrix type="matrix" values="0 0 0 0 0 0 0 0 0 0 0 0 0 0 0 0 0 0 0.25 0"/>
<feBlend mode="normal" in2="shape" result="effect1_innerShadow_31_6603"/>
</filter>
<filter id="filter1_d_31_6603" x="5" y="7" width="38" height="38" filterUnits="userSpaceOnUse" color-interpolation-filters="sRGB">
<feFlood flood-opacity="0" result="BackgroundImageFix"/>
<feColorMatrix in="SourceAlpha" type="matrix" values="0 0 0 0 0 0 0 0 0 0 0 0 0 0 0 0 0 0 127 0" result="hardAlpha"/>
<feOffset dy="2"/>
<feGaussianBlur stdDeviation="2"/>
<feComposite in2="hardAlpha" operator="out"/>
<feColorMatrix type="matrix" values="0 0 0 0 0 0 0 0 0 0 0 0 0 0 0 0 0 0 0.25 0"/>
<feBlend mode="normal" in2="BackgroundImageFix" result="effect1_dropShadow_31_6603"/>
<feBlend mode="normal" in="SourceGraphic" in2="effect1_dropShadow_31_6603" result="shape"/>
</filter>
<filter id="filter2_d_31_6603" x="21.5" y="7" width="21.5" height="21.5" filterUnits="userSpaceOnUse" color-interpolation-filters="sRGB">
<feFlood flood-opacity="0" result="BackgroundImageFix"/>
<feColorMatrix in="SourceAlpha" type="matrix" values="0 0 0 0 0 0 0 0 0 0 0 0 0 0 0 0 0 0 127 0" result="hardAlpha"/>
<feOffset dy="2"/>
<feGaussianBlur stdDeviation="2"/>
<feComposite in2="hardAlpha" operator="out"/>
<feColorMatrix type="matrix" values="0 0 0 0 0 0 0 0 0 0 0 0 0 0 0 0 0 0 0.25 0"/>
<feBlend mode="normal" in2="BackgroundImageFix" result="effect1_dropShadow_31_6603"/>
<feBlend mode="normal" in="SourceGraphic" in2="effect1_dropShadow_31_6603" result="shape"/>
</filter>
<filter id="filter3_d_31_6603" x="26" y="7" width="17" height="17" filterUnits="userSpaceOnUse" color-interpolation-filters="sRGB">
<feFlood flood-opacity="0" result="BackgroundImageFix"/>
<feColorMatrix in="SourceAlpha" type="matrix" values="0 0 0 0 0 0 0 0 0 0 0 0 0 0 0 0 0 0 127 0" result="hardAlpha"/>
<feOffset dy="2"/>
<feGaussianBlur stdDeviation="2"/>
<feComposite in2="hardAlpha" operator="out"/>
<feColorMatrix type="matrix" values="0 0 0 0 0 0 0 0 0 0 0 0 0 0 0 0 0 0 0.25 0"/>
<feBlend mode="normal" in2="BackgroundImageFix" result="effect1_dropShadow_31_6603"/>
<feBlend mode="normal" in="SourceGraphic" in2="effect1_dropShadow_31_6603" result="shape"/>
</filter>
<linearGradient id="paint0_linear_31_6603" x1="48" y1="0" x2="0" y2="48" gradientUnits="userSpaceOnUse">
<stop stop-color="#97989A"/>
<stop offset="1" stop-color="#505050"/>
</linearGradient>
<linearGradient id="paint1_linear_31_6603" x1="24" y1="9" x2="24" y2="39" gradientUnits="userSpaceOnUse">
<stop stop-color="#FAFAFA"/>
<stop offset="1" stop-color="#D5D5D5"/>
</linearGradient>
<linearGradient id="paint2_linear_31_6603" x1="24" y1="23.75" x2="24" y2="36.25" gradientUnits="userSpaceOnUse">
<stop stop-color="#34C8FF"/>
<stop offset="1" stop-color="#2192E1"/>
</linearGradient>
<linearGradient id="paint3_linear_31_6603" x1="24.0001" y1="23.75" x2="24.0001" y2="36.25" gradientUnits="userSpaceOnUse">
<stop stop-color="#34C8FF"/>
<stop offset="1" stop-color="#2192E1"/>
</linearGradient>
<clipPath id="clip0_31_6603">
<rect width="48" height="48" fill="white"/>
</clipPath>
</defs>
</svg>
