<svg width="48" height="48" viewBox="0 0 48 48" fill="none" xmlns="http://www.w3.org/2000/svg">
<g clip-path="url(#clip0_31_6536)">
<path d="M36 0H12C5.37258 0 0 5.37258 0 12V36C0 42.6274 5.37258 48 12 48H36C42.6274 48 48 42.6274 48 36V12C48 5.37258 42.6274 0 36 0Z" fill="url(#paint0_linear_31_6536)"/>
<g filter="url(#filter0_i_31_6536)">
<path d="M36 3H12C7.02944 3 3 7.02944 3 12V36C3 40.9706 7.02944 45 12 45H36C40.9706 45 45 40.9706 45 36V12C45 7.02944 40.9706 3 36 3Z" fill="black" fill-opacity="0.7"/>
<g filter="url(#filter1_d_31_6536)">
<path fill-rule="evenodd" clip-rule="evenodd" d="M25.5 10.875H12C10.3431 10.875 9 12.2181 9 13.875V34.125C9 35.7819 10.3431 37.125 12 37.125H36C37.6568 37.125 39 35.7819 39 34.125V24.375L25.5 10.875Z" fill="url(#paint1_linear_31_6536)"/>
</g>
<path d="M15 28.875V31.125C15 31.9534 15.6716 32.625 16.5 32.625H21M15 28.875H21M15 28.875V25.125M21 32.625V28.875M21 32.625H27M21 28.875H27M21 28.875V25.125M15 25.125H21M15 25.125V22.875C15 22.0466 15.6716 21.375 16.5 21.375H21M27 28.875V32.625M27 28.875H33M27 28.875V25.125M21 25.125H27M21 25.125V21.375M27 32.625H31.5C32.3284 32.625 33 31.9534 33 31.125V28.875M33 28.875V25.125M27 25.125H33M27 25.125V21.375M33 25.125V22.875C33 22.0466 32.3284 21.375 31.5 21.375H27M21 21.375H27" stroke="white" stroke-width="4"/>
<g filter="url(#filter2_d_31_6536)">
<path d="M38.9998 13.875C38.9998 12.2181 37.6569 10.875 36 10.875H30L38.9998 19.875V13.875Z" fill="#97989A"/>
</g>
</g>
</g>
<defs>
<filter id="filter0_i_31_6536" x="3" y="3" width="42" height="46" filterUnits="userSpaceOnUse" color-interpolation-filters="sRGB">
<feFlood flood-opacity="0" result="BackgroundImageFix"/>
<feBlend mode="normal" in="SourceGraphic" in2="BackgroundImageFix" result="shape"/>
<feColorMatrix in="SourceAlpha" type="matrix" values="0 0 0 0 0 0 0 0 0 0 0 0 0 0 0 0 0 0 127 0" result="hardAlpha"/>
<feOffset dy="4"/>
<feGaussianBlur stdDeviation="2"/>
<feComposite in2="hardAlpha" operator="arithmetic" k2="-1" k3="1"/>
<feColorMatrix type="matrix" values="0 0 0 0 0 0 0 0 0 0 0 0 0 0 0 0 0 0 0.25 0"/>
<feBlend mode="normal" in2="shape" result="effect1_innerShadow_31_6536"/>
</filter>
<filter id="filter1_d_31_6536" x="5" y="8.875" width="38" height="34.25" filterUnits="userSpaceOnUse" color-interpolation-filters="sRGB">
<feFlood flood-opacity="0" result="BackgroundImageFix"/>
<feColorMatrix in="SourceAlpha" type="matrix" values="0 0 0 0 0 0 0 0 0 0 0 0 0 0 0 0 0 0 127 0" result="hardAlpha"/>
<feOffset dy="2"/>
<feGaussianBlur stdDeviation="2"/>
<feComposite in2="hardAlpha" operator="out"/>
<feColorMatrix type="matrix" values="0 0 0 0 0 0 0 0 0 0 0 0 0 0 0 0 0 0 0.25 0"/>
<feBlend mode="normal" in2="BackgroundImageFix" result="effect1_dropShadow_31_6536"/>
<feBlend mode="normal" in="SourceGraphic" in2="effect1_dropShadow_31_6536" result="shape"/>
</filter>
<filter id="filter2_d_31_6536" x="26" y="8.875" width="17" height="17" filterUnits="userSpaceOnUse" color-interpolation-filters="sRGB">
<feFlood flood-opacity="0" result="BackgroundImageFix"/>
<feColorMatrix in="SourceAlpha" type="matrix" values="0 0 0 0 0 0 0 0 0 0 0 0 0 0 0 0 0 0 127 0" result="hardAlpha"/>
<feOffset dy="2"/>
<feGaussianBlur stdDeviation="2"/>
<feComposite in2="hardAlpha" operator="out"/>
<feColorMatrix type="matrix" values="0 0 0 0 0 0 0 0 0 0 0 0 0 0 0 0 0 0 0.25 0"/>
<feBlend mode="normal" in2="BackgroundImageFix" result="effect1_dropShadow_31_6536"/>
<feBlend mode="normal" in="SourceGraphic" in2="effect1_dropShadow_31_6536" result="shape"/>
</filter>
<linearGradient id="paint0_linear_31_6536" x1="48" y1="0" x2="0" y2="48" gradientUnits="userSpaceOnUse">
<stop stop-color="#75EA53"/>
<stop offset="1" stop-color="#068540"/>
</linearGradient>
<linearGradient id="paint1_linear_31_6536" x1="39" y1="10.875" x2="9" y2="40.875" gradientUnits="userSpaceOnUse">
<stop stop-color="#75EA53"/>
<stop offset="1" stop-color="#068540"/>
</linearGradient>
<clipPath id="clip0_31_6536">
<rect width="48" height="48" fill="white"/>
</clipPath>
</defs>
</svg>
