<svg width="48" height="48" viewBox="0 0 48 48" fill="none" xmlns="http://www.w3.org/2000/svg">
<g clip-path="url(#clip0_31_6556)">
<path d="M36 0H12C5.37258 0 0 5.37258 0 12V36C0 42.6274 5.37258 48 12 48H36C42.6274 48 48 42.6274 48 36V12C48 5.37258 42.6274 0 36 0Z" fill="url(#paint0_linear_31_6556)"/>
<g filter="url(#filter0_i_31_6556)">
<path d="M36 3H12C7.02944 3 3 7.02944 3 12V36C3 40.9706 7.02944 45 12 45H36C40.9706 45 45 40.9706 45 36V12C45 7.02944 40.9706 3 36 3Z" fill="black" fill-opacity="0.7"/>
<g filter="url(#filter1_d_31_6556)">
<path fill-rule="evenodd" clip-rule="evenodd" d="M25.5 9H12C10.3431 9 9 10.3431 9 12V36C9 37.6568 10.3431 39 12 39H36C37.6568 39 39 37.6568 39 36V22.5L25.5 9Z" fill="url(#paint1_linear_31_6556)"/>
</g>
<g filter="url(#filter2_d_31_6556)">
<path d="M25.5 19.5C25.5 21.1569 26.8432 22.5 28.5 22.5H38.9999L25.5 9V19.5Z" fill="#FAFAFA"/>
</g>
<g filter="url(#filter3_d_31_6556)">
<path d="M38.9998 12C38.9998 10.3431 37.6569 9 36 9H30L38.9998 18V12Z" fill="#97989A"/>
</g>
<mask id="mask0_31_6556" style="mask-type:luminance" maskUnits="userSpaceOnUse" x="12" y="24" width="24" height="12">
<path d="M35.25 24H12.75C12.3358 24 12 24.3358 12 24.75V35.25C12 35.6642 12.3358 36 12.75 36H35.25C35.6642 36 36 35.6642 36 35.25V24.75C36 24.3358 35.6642 24 35.25 24Z" fill="white"/>
</mask>
<g mask="url(#mask0_31_6556)">
<path d="M18 27H12V36H18V27Z" fill="#24AFEA"/>
<path d="M18 27H12V36H18V27Z" fill="url(#paint2_linear_31_6556)"/>
<path d="M24 24H18V36H24V24Z" fill="#F8883C"/>
<path d="M24 24H18V36H24V24Z" fill="url(#paint3_linear_31_6556)"/>
<path d="M30 30H24V36H30V30Z" fill="#F0CD49"/>
<path d="M30 30H24V36H30V30Z" fill="url(#paint4_linear_31_6556)"/>
<path d="M36 27H30V36H36V27Z" fill="#5BDD4B"/>
<path d="M36 27H30V36H36V27Z" fill="url(#paint5_linear_31_6556)"/>
</g>
</g>
</g>
<defs>
<filter id="filter0_i_31_6556" x="3" y="3" width="42" height="46" filterUnits="userSpaceOnUse" color-interpolation-filters="sRGB">
<feFlood flood-opacity="0" result="BackgroundImageFix"/>
<feBlend mode="normal" in="SourceGraphic" in2="BackgroundImageFix" result="shape"/>
<feColorMatrix in="SourceAlpha" type="matrix" values="0 0 0 0 0 0 0 0 0 0 0 0 0 0 0 0 0 0 127 0" result="hardAlpha"/>
<feOffset dy="4"/>
<feGaussianBlur stdDeviation="2"/>
<feComposite in2="hardAlpha" operator="arithmetic" k2="-1" k3="1"/>
<feColorMatrix type="matrix" values="0 0 0 0 0 0 0 0 0 0 0 0 0 0 0 0 0 0 0.25 0"/>
<feBlend mode="normal" in2="shape" result="effect1_innerShadow_31_6556"/>
</filter>
<filter id="filter1_d_31_6556" x="5" y="7" width="38" height="38" filterUnits="userSpaceOnUse" color-interpolation-filters="sRGB">
<feFlood flood-opacity="0" result="BackgroundImageFix"/>
<feColorMatrix in="SourceAlpha" type="matrix" values="0 0 0 0 0 0 0 0 0 0 0 0 0 0 0 0 0 0 127 0" result="hardAlpha"/>
<feOffset dy="2"/>
<feGaussianBlur stdDeviation="2"/>
<feComposite in2="hardAlpha" operator="out"/>
<feColorMatrix type="matrix" values="0 0 0 0 0 0 0 0 0 0 0 0 0 0 0 0 0 0 0.25 0"/>
<feBlend mode="normal" in2="BackgroundImageFix" result="effect1_dropShadow_31_6556"/>
<feBlend mode="normal" in="SourceGraphic" in2="effect1_dropShadow_31_6556" result="shape"/>
</filter>
<filter id="filter2_d_31_6556" x="21.5" y="7" width="21.5" height="21.5" filterUnits="userSpaceOnUse" color-interpolation-filters="sRGB">
<feFlood flood-opacity="0" result="BackgroundImageFix"/>
<feColorMatrix in="SourceAlpha" type="matrix" values="0 0 0 0 0 0 0 0 0 0 0 0 0 0 0 0 0 0 127 0" result="hardAlpha"/>
<feOffset dy="2"/>
<feGaussianBlur stdDeviation="2"/>
<feComposite in2="hardAlpha" operator="out"/>
<feColorMatrix type="matrix" values="0 0 0 0 0 0 0 0 0 0 0 0 0 0 0 0 0 0 0.25 0"/>
<feBlend mode="normal" in2="BackgroundImageFix" result="effect1_dropShadow_31_6556"/>
<feBlend mode="normal" in="SourceGraphic" in2="effect1_dropShadow_31_6556" result="shape"/>
</filter>
<filter id="filter3_d_31_6556" x="26" y="7" width="17" height="17" filterUnits="userSpaceOnUse" color-interpolation-filters="sRGB">
<feFlood flood-opacity="0" result="BackgroundImageFix"/>
<feColorMatrix in="SourceAlpha" type="matrix" values="0 0 0 0 0 0 0 0 0 0 0 0 0 0 0 0 0 0 127 0" result="hardAlpha"/>
<feOffset dy="2"/>
<feGaussianBlur stdDeviation="2"/>
<feComposite in2="hardAlpha" operator="out"/>
<feColorMatrix type="matrix" values="0 0 0 0 0 0 0 0 0 0 0 0 0 0 0 0 0 0 0.25 0"/>
<feBlend mode="normal" in2="BackgroundImageFix" result="effect1_dropShadow_31_6556"/>
<feBlend mode="normal" in="SourceGraphic" in2="effect1_dropShadow_31_6556" result="shape"/>
</filter>
<linearGradient id="paint0_linear_31_6556" x1="48" y1="0" x2="0" y2="48" gradientUnits="userSpaceOnUse">
<stop stop-color="#97989A"/>
<stop offset="1" stop-color="#505050"/>
</linearGradient>
<linearGradient id="paint1_linear_31_6556" x1="24" y1="9" x2="24" y2="39" gradientUnits="userSpaceOnUse">
<stop stop-color="#FAFAFA"/>
<stop offset="1" stop-color="#D5D5D5"/>
</linearGradient>
<linearGradient id="paint2_linear_31_6556" x1="15" y1="27" x2="15" y2="36" gradientUnits="userSpaceOnUse">
<stop stop-opacity="0"/>
<stop offset="1" stop-opacity="0.2"/>
</linearGradient>
<linearGradient id="paint3_linear_31_6556" x1="21" y1="24" x2="21" y2="36" gradientUnits="userSpaceOnUse">
<stop stop-opacity="0"/>
<stop offset="1" stop-opacity="0.2"/>
</linearGradient>
<linearGradient id="paint4_linear_31_6556" x1="27" y1="30" x2="27" y2="36" gradientUnits="userSpaceOnUse">
<stop stop-opacity="0"/>
<stop offset="1" stop-opacity="0.2"/>
</linearGradient>
<linearGradient id="paint5_linear_31_6556" x1="33" y1="27" x2="33" y2="36" gradientUnits="userSpaceOnUse">
<stop stop-opacity="0"/>
<stop offset="1" stop-opacity="0.2"/>
</linearGradient>
<clipPath id="clip0_31_6556">
<rect width="48" height="48" fill="white"/>
</clipPath>
</defs>
</svg>
