<svg width="48" height="48" viewBox="0 0 48 48" fill="none" xmlns="http://www.w3.org/2000/svg">
<g clip-path="url(#clip0_31_6578)">
<path d="M36 0H12C5.37258 0 0 5.37258 0 12V36C0 42.6274 5.37258 48 12 48H36C42.6274 48 48 42.6274 48 36V12C48 5.37258 42.6274 0 36 0Z" fill="url(#paint0_linear_31_6578)"/>
<g filter="url(#filter0_i_31_6578)">
<path d="M36 3H12C7.02944 3 3 7.02944 3 12V36C3 40.9706 7.02944 45 12 45H36C40.9706 45 45 40.9706 45 36V12C45 7.02944 40.9706 3 36 3Z" fill="black" fill-opacity="0.7"/>
<g filter="url(#filter1_d_31_6578)">
<path fill-rule="evenodd" clip-rule="evenodd" d="M25.5 12.75H12C10.3431 12.75 9 14.0931 9 15.75V32.25C9 33.9069 10.3431 35.25 12 35.25H36C37.6568 35.25 39 33.9069 39 32.25V26.25L25.5 12.75Z" fill="url(#paint1_linear_31_6578)"/>
</g>
<g filter="url(#filter2_d_31_6578)">
<path d="M38.9998 15.75C38.9998 14.0931 37.6569 12.75 36 12.75H30L38.9998 21.75V15.75Z" fill="#97989A"/>
</g>
<path fill-rule="evenodd" clip-rule="evenodd" d="M29.25 16.5H15.375C14.9608 16.5 14.625 16.8358 14.625 17.25C14.625 17.6642 14.9608 18 15.375 18H30.75L29.25 16.5Z" fill="white"/>
<path d="M12.75 24C12.75 23.5858 12.4142 23.25 12 23.25C11.5858 23.25 11.25 23.5858 11.25 24C11.25 24.4142 11.5858 24.75 12 24.75C12.4142 24.75 12.75 24.4142 12.75 24Z" fill="white"/>
<path d="M28.5 23.25H15C14.5858 23.25 14.25 23.5858 14.25 24C14.25 24.4142 14.5858 24.75 15 24.75H28.5C28.9142 24.75 29.25 24.4142 29.25 24C29.25 23.5858 28.9142 23.25 28.5 23.25Z" fill="white"/>
<path d="M12.75 27C12.75 26.5858 12.4142 26.25 12 26.25C11.5858 26.25 11.25 26.5858 11.25 27C11.25 27.4142 11.5858 27.75 12 27.75C12.4142 27.75 12.75 27.4142 12.75 27Z" fill="white"/>
<path d="M25.5 26.25H15C14.5858 26.25 14.25 26.5858 14.25 27C14.25 27.4142 14.5858 27.75 15 27.75H25.5C25.9142 27.75 26.25 27.4142 26.25 27C26.25 26.5858 25.9142 26.25 25.5 26.25Z" fill="white"/>
<path d="M12.75 30C12.75 29.5858 12.4142 29.25 12 29.25C11.5858 29.25 11.25 29.5858 11.25 30C11.25 30.4142 11.5858 30.75 12 30.75C12.4142 30.75 12.75 30.4142 12.75 30Z" fill="white"/>
<path d="M27.375 29.25H15C14.5858 29.25 14.25 29.5858 14.25 30C14.25 30.4142 14.5858 30.75 15 30.75H27.375C27.7892 30.75 28.125 30.4142 28.125 30C28.125 29.5858 27.7892 29.25 27.375 29.25Z" fill="white"/>
</g>
</g>
<defs>
<filter id="filter0_i_31_6578" x="3" y="3" width="42" height="46" filterUnits="userSpaceOnUse" color-interpolation-filters="sRGB">
<feFlood flood-opacity="0" result="BackgroundImageFix"/>
<feBlend mode="normal" in="SourceGraphic" in2="BackgroundImageFix" result="shape"/>
<feColorMatrix in="SourceAlpha" type="matrix" values="0 0 0 0 0 0 0 0 0 0 0 0 0 0 0 0 0 0 127 0" result="hardAlpha"/>
<feOffset dy="4"/>
<feGaussianBlur stdDeviation="2"/>
<feComposite in2="hardAlpha" operator="arithmetic" k2="-1" k3="1"/>
<feColorMatrix type="matrix" values="0 0 0 0 0 0 0 0 0 0 0 0 0 0 0 0 0 0 0.25 0"/>
<feBlend mode="normal" in2="shape" result="effect1_innerShadow_31_6578"/>
</filter>
<filter id="filter1_d_31_6578" x="5" y="10.75" width="38" height="30.5" filterUnits="userSpaceOnUse" color-interpolation-filters="sRGB">
<feFlood flood-opacity="0" result="BackgroundImageFix"/>
<feColorMatrix in="SourceAlpha" type="matrix" values="0 0 0 0 0 0 0 0 0 0 0 0 0 0 0 0 0 0 127 0" result="hardAlpha"/>
<feOffset dy="2"/>
<feGaussianBlur stdDeviation="2"/>
<feComposite in2="hardAlpha" operator="out"/>
<feColorMatrix type="matrix" values="0 0 0 0 0 0 0 0 0 0 0 0 0 0 0 0 0 0 0.25 0"/>
<feBlend mode="normal" in2="BackgroundImageFix" result="effect1_dropShadow_31_6578"/>
<feBlend mode="normal" in="SourceGraphic" in2="effect1_dropShadow_31_6578" result="shape"/>
</filter>
<filter id="filter2_d_31_6578" x="26" y="10.75" width="17" height="17" filterUnits="userSpaceOnUse" color-interpolation-filters="sRGB">
<feFlood flood-opacity="0" result="BackgroundImageFix"/>
<feColorMatrix in="SourceAlpha" type="matrix" values="0 0 0 0 0 0 0 0 0 0 0 0 0 0 0 0 0 0 127 0" result="hardAlpha"/>
<feOffset dy="2"/>
<feGaussianBlur stdDeviation="2"/>
<feComposite in2="hardAlpha" operator="out"/>
<feColorMatrix type="matrix" values="0 0 0 0 0 0 0 0 0 0 0 0 0 0 0 0 0 0 0.25 0"/>
<feBlend mode="normal" in2="BackgroundImageFix" result="effect1_dropShadow_31_6578"/>
<feBlend mode="normal" in="SourceGraphic" in2="effect1_dropShadow_31_6578" result="shape"/>
</filter>
<linearGradient id="paint0_linear_31_6578" x1="48" y1="0" x2="0" y2="48" gradientUnits="userSpaceOnUse">
<stop stop-color="#F79740"/>
<stop offset="1" stop-color="#D21E10"/>
</linearGradient>
<linearGradient id="paint1_linear_31_6578" x1="39" y1="12.75" x2="17.4" y2="41.55" gradientUnits="userSpaceOnUse">
<stop stop-color="#F79740"/>
<stop offset="1" stop-color="#D21E10"/>
</linearGradient>
<clipPath id="clip0_31_6578">
<rect width="48" height="48" fill="white"/>
</clipPath>
</defs>
</svg>
