<svg width="48" height="48" viewBox="0 0 48 48" fill="none" xmlns="http://www.w3.org/2000/svg">
<g clip-path="url(#clip0_31_6713)">
<path d="M36 0H12C5.37258 0 0 5.37258 0 12V36C0 42.6274 5.37258 48 12 48H36C42.6274 48 48 42.6274 48 36V12C48 5.37258 42.6274 0 36 0Z" fill="url(#paint0_linear_31_6713)"/>
<path d="M36 0H12C5.37258 0 0 5.37258 0 12V36C0 42.6274 5.37258 48 12 48H36C42.6274 48 48 42.6274 48 36V12C48 5.37258 42.6274 0 36 0Z" fill="url(#paint1_linear_31_6713)"/>
<g filter="url(#filter0_i_31_6713)">
<path d="M36 3H12C7.02944 3 3 7.02944 3 12V36C3 40.9706 7.02944 45 12 45H36C40.9706 45 45 40.9706 45 36V12C45 7.02944 40.9706 3 36 3Z" fill="black" fill-opacity="0.7"/>
<mask id="mask0_31_6713" style="mask-type:luminance" maskUnits="userSpaceOnUse" x="6" y="6" width="36" height="36">
<path d="M42 6H6V42H42V6Z" fill="white"/>
</mask>
<g mask="url(#mask0_31_6713)">
<g filter="url(#filter1_d_31_6713)">
<path d="M25.8836 13.5005L24.7859 10.1826L19.6911 12.6452L12.9468 13.2403L13.8725 24.8117L23.4377 23.211L25.8836 13.5005Z" fill="url(#paint2_linear_31_6713)"/>
</g>
<g filter="url(#filter2_d_31_6713)">
<path d="M16.793 16.4541L7.71436 14.0683L10.852 32.9109L27.7578 32.7463L16.793 16.4541Z" fill="url(#paint3_linear_31_6713)"/>
</g>
<g filter="url(#filter3_d_31_6713)">
<path d="M29.2788 24.481L25.3774 17.8027L29.6095 13.9677L36.3456 11.2109L40.6289 21.8553L34.4602 27.982L29.2788 24.481Z" fill="url(#paint4_linear_31_6713)"/>
</g>
<g filter="url(#filter4_d_31_6713)">
<path d="M34.4628 21.7136L32.3201 17.3399L15.5176 20.7159L17.2435 36.7598L28.3361 40.6286L40.6287 33.2707L34.4628 21.7136Z" fill="url(#paint5_linear_31_6713)"/>
</g>
<g filter="url(#filter5_d_31_6713)">
<path d="M25.774 22.4974L15.5176 20.7159L28.0368 9.66827L36.3454 11.2109L31.1961 16.3481L32.3861 17.406L25.774 22.4974Z" fill="url(#paint6_linear_31_6713)"/>
</g>
<g filter="url(#filter6_d_31_6713)">
<path d="M24.7856 10.1826L13.329 7.71426L7.71436 14.0683L16.8092 16.4862L24.7856 10.1826Z" fill="url(#paint7_linear_31_6713)"/>
</g>
<g filter="url(#filter7_d_31_6713)">
<path d="M34.4572 13.8857H13.8857V34.4571H34.4572V13.8857Z" fill="black"/>
</g>
<path d="M24.1713 30.6H16.457V31.8857H24.1713V30.6Z" fill="white"/>
<path d="M23.1924 23.1498L24.1987 21.9453C24.8945 22.5194 25.6249 22.8845 26.5078 22.8845C27.2054 22.8845 27.625 22.6084 27.6249 22.1542V22.1324C27.6249 21.7019 27.3596 21.4802 26.0662 21.1496C24.5074 20.7517 23.501 20.3194 23.5009 18.7843V18.7607C23.5007 17.3582 24.6288 16.428 26.2093 16.428C27.2528 16.4112 28.2694 16.7595 29.0834 17.4127L28.1987 18.6953C27.5138 18.2193 26.8398 17.9322 26.1877 17.9322C25.5354 17.9322 25.1921 18.2302 25.1922 18.6062V18.6281C25.1922 19.1367 25.5247 19.3038 26.8618 19.6454C28.4314 20.0541 29.3161 20.6191 29.3162 21.9671V21.9889C29.3163 23.5258 28.1447 24.3869 26.4751 24.3869C25.2661 24.3914 24.0977 23.9511 23.1924 23.1498Z" fill="white"/>
<path d="M16.4805 16.5456H19.6284C21.4661 16.5456 22.5777 17.6352 22.5777 19.2088V19.2308C22.5777 21.0137 21.191 21.9383 19.4631 21.9383H18.1753V24.2494H16.4805V16.5456ZM19.5181 20.4305C20.3657 20.4305 20.8609 19.9244 20.8609 19.2638V19.2418C20.8609 18.4825 20.3327 18.0754 19.4851 18.0754H18.1753V20.4305H19.5181Z" fill="white"/>
</g>
</g>
</g>
<defs>
<filter id="filter0_i_31_6713" x="3" y="3" width="42" height="46" filterUnits="userSpaceOnUse" color-interpolation-filters="sRGB">
<feFlood flood-opacity="0" result="BackgroundImageFix"/>
<feBlend mode="normal" in="SourceGraphic" in2="BackgroundImageFix" result="shape"/>
<feColorMatrix in="SourceAlpha" type="matrix" values="0 0 0 0 0 0 0 0 0 0 0 0 0 0 0 0 0 0 127 0" result="hardAlpha"/>
<feOffset dy="4"/>
<feGaussianBlur stdDeviation="2"/>
<feComposite in2="hardAlpha" operator="arithmetic" k2="-1" k3="1"/>
<feColorMatrix type="matrix" values="0 0 0 0 0 0 0 0 0 0 0 0 0 0 0 0 0 0 0.25 0"/>
<feBlend mode="normal" in2="shape" result="effect1_innerShadow_31_6713"/>
</filter>
<filter id="filter1_d_31_6713" x="8.94678" y="8.18259" width="20.937" height="22.6291" filterUnits="userSpaceOnUse" color-interpolation-filters="sRGB">
<feFlood flood-opacity="0" result="BackgroundImageFix"/>
<feColorMatrix in="SourceAlpha" type="matrix" values="0 0 0 0 0 0 0 0 0 0 0 0 0 0 0 0 0 0 127 0" result="hardAlpha"/>
<feOffset dy="2"/>
<feGaussianBlur stdDeviation="2"/>
<feComposite in2="hardAlpha" operator="out"/>
<feColorMatrix type="matrix" values="0 0 0 0 0 0 0 0 0 0 0 0 0 0 0 0 0 0 0.25 0"/>
<feBlend mode="normal" in2="BackgroundImageFix" result="effect1_dropShadow_31_6713"/>
<feBlend mode="normal" in="SourceGraphic" in2="effect1_dropShadow_31_6713" result="shape"/>
</filter>
<filter id="filter2_d_31_6713" x="3.71436" y="12.0683" width="28.0435" height="26.8427" filterUnits="userSpaceOnUse" color-interpolation-filters="sRGB">
<feFlood flood-opacity="0" result="BackgroundImageFix"/>
<feColorMatrix in="SourceAlpha" type="matrix" values="0 0 0 0 0 0 0 0 0 0 0 0 0 0 0 0 0 0 127 0" result="hardAlpha"/>
<feOffset dy="2"/>
<feGaussianBlur stdDeviation="2"/>
<feComposite in2="hardAlpha" operator="out"/>
<feColorMatrix type="matrix" values="0 0 0 0 0 0 0 0 0 0 0 0 0 0 0 0 0 0 0.25 0"/>
<feBlend mode="normal" in2="BackgroundImageFix" result="effect1_dropShadow_31_6713"/>
<feBlend mode="normal" in="SourceGraphic" in2="effect1_dropShadow_31_6713" result="shape"/>
</filter>
<filter id="filter3_d_31_6713" x="21.3774" y="9.21091" width="23.2515" height="24.7711" filterUnits="userSpaceOnUse" color-interpolation-filters="sRGB">
<feFlood flood-opacity="0" result="BackgroundImageFix"/>
<feColorMatrix in="SourceAlpha" type="matrix" values="0 0 0 0 0 0 0 0 0 0 0 0 0 0 0 0 0 0 127 0" result="hardAlpha"/>
<feOffset dy="2"/>
<feGaussianBlur stdDeviation="2"/>
<feComposite in2="hardAlpha" operator="out"/>
<feColorMatrix type="matrix" values="0 0 0 0 0 0 0 0 0 0 0 0 0 0 0 0 0 0 0.25 0"/>
<feBlend mode="normal" in2="BackgroundImageFix" result="effect1_dropShadow_31_6713"/>
<feBlend mode="normal" in="SourceGraphic" in2="effect1_dropShadow_31_6713" result="shape"/>
</filter>
<filter id="filter4_d_31_6713" x="11.5176" y="15.3399" width="33.1113" height="31.2887" filterUnits="userSpaceOnUse" color-interpolation-filters="sRGB">
<feFlood flood-opacity="0" result="BackgroundImageFix"/>
<feColorMatrix in="SourceAlpha" type="matrix" values="0 0 0 0 0 0 0 0 0 0 0 0 0 0 0 0 0 0 127 0" result="hardAlpha"/>
<feOffset dy="2"/>
<feGaussianBlur stdDeviation="2"/>
<feComposite in2="hardAlpha" operator="out"/>
<feColorMatrix type="matrix" values="0 0 0 0 0 0 0 0 0 0 0 0 0 0 0 0 0 0 0.25 0"/>
<feBlend mode="normal" in2="BackgroundImageFix" result="effect1_dropShadow_31_6713"/>
<feBlend mode="normal" in="SourceGraphic" in2="effect1_dropShadow_31_6713" result="shape"/>
</filter>
<filter id="filter5_d_31_6713" x="11.5176" y="7.66827" width="28.8276" height="20.8291" filterUnits="userSpaceOnUse" color-interpolation-filters="sRGB">
<feFlood flood-opacity="0" result="BackgroundImageFix"/>
<feColorMatrix in="SourceAlpha" type="matrix" values="0 0 0 0 0 0 0 0 0 0 0 0 0 0 0 0 0 0 127 0" result="hardAlpha"/>
<feOffset dy="2"/>
<feGaussianBlur stdDeviation="2"/>
<feComposite in2="hardAlpha" operator="out"/>
<feColorMatrix type="matrix" values="0 0 0 0 0 0 0 0 0 0 0 0 0 0 0 0 0 0 0.25 0"/>
<feBlend mode="normal" in2="BackgroundImageFix" result="effect1_dropShadow_31_6713"/>
<feBlend mode="normal" in="SourceGraphic" in2="effect1_dropShadow_31_6713" result="shape"/>
</filter>
<filter id="filter6_d_31_6713" x="3.71436" y="5.71426" width="25.0713" height="16.7719" filterUnits="userSpaceOnUse" color-interpolation-filters="sRGB">
<feFlood flood-opacity="0" result="BackgroundImageFix"/>
<feColorMatrix in="SourceAlpha" type="matrix" values="0 0 0 0 0 0 0 0 0 0 0 0 0 0 0 0 0 0 127 0" result="hardAlpha"/>
<feOffset dy="2"/>
<feGaussianBlur stdDeviation="2"/>
<feComposite in2="hardAlpha" operator="out"/>
<feColorMatrix type="matrix" values="0 0 0 0 0 0 0 0 0 0 0 0 0 0 0 0 0 0 0.25 0"/>
<feBlend mode="normal" in2="BackgroundImageFix" result="effect1_dropShadow_31_6713"/>
<feBlend mode="normal" in="SourceGraphic" in2="effect1_dropShadow_31_6713" result="shape"/>
</filter>
<filter id="filter7_d_31_6713" x="9.88574" y="11.8857" width="28.5713" height="28.5714" filterUnits="userSpaceOnUse" color-interpolation-filters="sRGB">
<feFlood flood-opacity="0" result="BackgroundImageFix"/>
<feColorMatrix in="SourceAlpha" type="matrix" values="0 0 0 0 0 0 0 0 0 0 0 0 0 0 0 0 0 0 127 0" result="hardAlpha"/>
<feOffset dy="2"/>
<feGaussianBlur stdDeviation="2"/>
<feComposite in2="hardAlpha" operator="out"/>
<feColorMatrix type="matrix" values="0 0 0 0 0 0 0 0 0 0 0 0 0 0 0 0 0 0 0.25 0"/>
<feBlend mode="normal" in2="BackgroundImageFix" result="effect1_dropShadow_31_6713"/>
<feBlend mode="normal" in="SourceGraphic" in2="effect1_dropShadow_31_6713" result="shape"/>
</filter>
<linearGradient id="paint0_linear_31_6713" x1="24" y1="0" x2="24" y2="48" gradientUnits="userSpaceOnUse">
<stop stop-color="#3BEA62"/>
<stop offset="0.510417" stop-color="#087CFA"/>
<stop offset="1" stop-color="#B74AF7"/>
</linearGradient>
<linearGradient id="paint1_linear_31_6713" x1="8.14455" y1="46.0684" x2="37.2757" y2="9.89449" gradientUnits="userSpaceOnUse">
<stop offset="0.01613" stop-color="#6B57FF"/>
<stop offset="0.42357" stop-color="#B74AF7"/>
<stop offset="0.74587" stop-color="#FF318C"/>
</linearGradient>
<linearGradient id="paint2_linear_31_6713" x1="13.7832" y1="26.6927" x2="23.0773" y2="8.84399" gradientUnits="userSpaceOnUse">
<stop stop-color="#AF1DF5"/>
<stop offset="0.2116" stop-color="#BC20E4"/>
<stop offset="0.62822" stop-color="#DD29B8"/>
<stop offset="1" stop-color="#FF318C"/>
</linearGradient>
<linearGradient id="paint3_linear_31_6713" x1="11.1153" y1="32.1526" x2="22.3809" y2="17.272" gradientUnits="userSpaceOnUse">
<stop offset="0.01613" stop-color="#6B57FF"/>
<stop offset="0.42357" stop-color="#B74AF7"/>
<stop offset="0.74587" stop-color="#FF318C"/>
</linearGradient>
<linearGradient id="paint4_linear_31_6713" x1="36.6042" y1="28.1362" x2="30.3616" y2="13.3205" gradientUnits="userSpaceOnUse">
<stop stop-color="#293896"/>
<stop offset="0.07538" stop-color="#3B3AA2"/>
<stop offset="0.2871" stop-color="#6740C0"/>
<stop offset="0.49127" stop-color="#8A44D8"/>
<stop offset="0.68315" stop-color="#A347E9"/>
<stop offset="0.85788" stop-color="#B249F3"/>
<stop offset="1" stop-color="#B74AF7"/>
</linearGradient>
<linearGradient id="paint5_linear_31_6713" x1="31.4881" y1="36.8796" x2="21.11" y2="21.6677" gradientUnits="userSpaceOnUse">
<stop offset="0.01613" stop-color="#6B57FF"/>
<stop offset="0.78291" stop-color="#B74AF7"/>
</linearGradient>
<linearGradient id="paint6_linear_31_6713" x1="28.3426" y1="28.7144" x2="24.9042" y2="10.5307" gradientUnits="userSpaceOnUse">
<stop offset="0.01613" stop-color="#6B57FF"/>
<stop offset="0.63699" stop-color="#B74AF7"/>
</linearGradient>
<linearGradient id="paint7_linear_31_6713" x1="11.4592" y1="20.8197" x2="16.8151" y2="11.0998" gradientUnits="userSpaceOnUse">
<stop stop-color="#AF1DF5"/>
<stop offset="0.2116" stop-color="#BC20E4"/>
<stop offset="0.62822" stop-color="#DD29B8"/>
<stop offset="1" stop-color="#FF318C"/>
</linearGradient>
<clipPath id="clip0_31_6713">
<rect width="48" height="48" fill="white"/>
</clipPath>
</defs>
</svg>
