<svg width="48" height="48" viewBox="0 0 48 48" fill="none" xmlns="http://www.w3.org/2000/svg">
<g clip-path="url(#clip0_31_6831)">
<path d="M36 0H12C5.37258 0 0 5.37258 0 12V36C0 42.6274 5.37258 48 12 48H36C42.6274 48 48 42.6274 48 36V12C48 5.37258 42.6274 0 36 0Z" fill="url(#paint0_linear_31_6831)"/>
<path d="M36 0H12C5.37258 0 0 5.37258 0 12V36C0 42.6274 5.37258 48 12 48H36C42.6274 48 48 42.6274 48 36V12C48 5.37258 42.6274 0 36 0Z" fill="url(#paint1_linear_31_6831)"/>
<g filter="url(#filter0_i_31_6831)">
<path d="M36 3H12C7.02944 3 3 7.02944 3 12V36C3 40.9706 7.02944 45 12 45H36C40.9706 45 45 40.9706 45 36V12C45 7.02944 40.9706 3 36 3Z" fill="black" fill-opacity="0.7"/>
<mask id="mask0_31_6831" style="mask-type:luminance" maskUnits="userSpaceOnUse" x="6" y="6" width="36" height="36">
<path d="M42 6H6V42H42V6Z" fill="white"/>
</mask>
<g mask="url(#mask0_31_6831)">
<g filter="url(#filter1_d_31_6831)">
<path d="M16.4264 14.8766L15.4595 32.1052L12.9738 40.416L7.54297 18.3463L16.4264 14.8766Z" fill="url(#paint2_linear_31_6831)"/>
</g>
<g filter="url(#filter2_d_31_6831)">
<path d="M16.4262 14.8766L17.4239 7.50169L30.6856 40.416H12.9736L15.4594 32.1051L16.4262 14.8766Z" fill="url(#paint3_linear_31_6831)"/>
</g>
<g filter="url(#filter3_d_31_6831)">
<path d="M24.1203 29.6331H40.4575L34.9958 7.50169H17.4243L24.1203 29.6331Z" fill="url(#paint4_linear_31_6831)"/>
</g>
<g filter="url(#filter4_d_31_6831)">
<path d="M13.7144 13.7143H34.2858V34.2857H13.7144V13.7143Z" fill="black"/>
</g>
<path d="M16.2788 30.3978H23.9931V31.6835H16.2788V30.3978Z" fill="white"/>
<path d="M16.2856 16.2652H19.8102C20.2192 16.2382 20.6293 16.2939 21.0163 16.4288C21.4033 16.5637 21.7592 16.775 22.0628 17.0503C22.2876 17.2848 22.4625 17.5626 22.5768 17.8667C22.6912 18.1707 22.7426 18.4949 22.7279 18.8194V18.8434C22.7513 19.3903 22.5895 19.9292 22.2685 20.3726C21.9633 20.7669 21.5534 21.0674 21.0856 21.24L22.9748 24.0035H20.9862L19.3714 21.6274H17.9656V24.0035H16.2856V16.2652ZM19.7142 20.0366C20.0606 20.0489 20.3995 19.9342 20.6674 19.7143C20.7789 19.6146 20.8674 19.4918 20.9266 19.3545C20.9858 19.2171 21.0144 19.0684 21.0102 18.9189V18.8983C21.0222 18.7428 20.9973 18.5867 20.9378 18.4426C20.8782 18.2984 20.7856 18.1703 20.6674 18.0686C20.3794 17.8693 20.0328 17.7727 19.6834 17.7943H17.9725V20.0229L19.7142 20.0366Z" fill="white"/>
<path d="M28.3409 18.8195H26.5718V17.2595H28.3272V15.5177H29.9318V17.2595H31.7146V18.8195H29.9455V20.5612H28.3409V18.8195Z" fill="white"/>
<path d="M24.9839 23.0401H23.2319V21.4801H24.9839V19.7383H26.5885V21.4801H28.3405V23.0401H26.5885V24.7817H24.9839V23.0401Z" fill="white"/>
</g>
</g>
</g>
<defs>
<filter id="filter0_i_31_6831" x="3" y="3" width="42" height="46" filterUnits="userSpaceOnUse" color-interpolation-filters="sRGB">
<feFlood flood-opacity="0" result="BackgroundImageFix"/>
<feBlend mode="normal" in="SourceGraphic" in2="BackgroundImageFix" result="shape"/>
<feColorMatrix in="SourceAlpha" type="matrix" values="0 0 0 0 0 0 0 0 0 0 0 0 0 0 0 0 0 0 127 0" result="hardAlpha"/>
<feOffset dy="4"/>
<feGaussianBlur stdDeviation="2"/>
<feComposite in2="hardAlpha" operator="arithmetic" k2="-1" k3="1"/>
<feColorMatrix type="matrix" values="0 0 0 0 0 0 0 0 0 0 0 0 0 0 0 0 0 0 0.25 0"/>
<feBlend mode="normal" in2="shape" result="effect1_innerShadow_31_6831"/>
</filter>
<filter id="filter1_d_31_6831" x="3.54297" y="12.8766" width="16.8833" height="33.5394" filterUnits="userSpaceOnUse" color-interpolation-filters="sRGB">
<feFlood flood-opacity="0" result="BackgroundImageFix"/>
<feColorMatrix in="SourceAlpha" type="matrix" values="0 0 0 0 0 0 0 0 0 0 0 0 0 0 0 0 0 0 127 0" result="hardAlpha"/>
<feOffset dy="2"/>
<feGaussianBlur stdDeviation="2"/>
<feComposite in2="hardAlpha" operator="out"/>
<feColorMatrix type="matrix" values="0 0 0 0 0 0 0 0 0 0 0 0 0 0 0 0 0 0 0.25 0"/>
<feBlend mode="normal" in2="BackgroundImageFix" result="effect1_dropShadow_31_6831"/>
<feBlend mode="normal" in="SourceGraphic" in2="effect1_dropShadow_31_6831" result="shape"/>
</filter>
<filter id="filter2_d_31_6831" x="8.97363" y="5.50169" width="25.7119" height="40.9143" filterUnits="userSpaceOnUse" color-interpolation-filters="sRGB">
<feFlood flood-opacity="0" result="BackgroundImageFix"/>
<feColorMatrix in="SourceAlpha" type="matrix" values="0 0 0 0 0 0 0 0 0 0 0 0 0 0 0 0 0 0 127 0" result="hardAlpha"/>
<feOffset dy="2"/>
<feGaussianBlur stdDeviation="2"/>
<feComposite in2="hardAlpha" operator="out"/>
<feColorMatrix type="matrix" values="0 0 0 0 0 0 0 0 0 0 0 0 0 0 0 0 0 0 0.25 0"/>
<feBlend mode="normal" in2="BackgroundImageFix" result="effect1_dropShadow_31_6831"/>
<feBlend mode="normal" in="SourceGraphic" in2="effect1_dropShadow_31_6831" result="shape"/>
</filter>
<filter id="filter3_d_31_6831" x="13.4243" y="5.50169" width="31.0332" height="30.1315" filterUnits="userSpaceOnUse" color-interpolation-filters="sRGB">
<feFlood flood-opacity="0" result="BackgroundImageFix"/>
<feColorMatrix in="SourceAlpha" type="matrix" values="0 0 0 0 0 0 0 0 0 0 0 0 0 0 0 0 0 0 127 0" result="hardAlpha"/>
<feOffset dy="2"/>
<feGaussianBlur stdDeviation="2"/>
<feComposite in2="hardAlpha" operator="out"/>
<feColorMatrix type="matrix" values="0 0 0 0 0 0 0 0 0 0 0 0 0 0 0 0 0 0 0.25 0"/>
<feBlend mode="normal" in2="BackgroundImageFix" result="effect1_dropShadow_31_6831"/>
<feBlend mode="normal" in="SourceGraphic" in2="effect1_dropShadow_31_6831" result="shape"/>
</filter>
<filter id="filter4_d_31_6831" x="9.71436" y="11.7143" width="28.5713" height="28.5714" filterUnits="userSpaceOnUse" color-interpolation-filters="sRGB">
<feFlood flood-opacity="0" result="BackgroundImageFix"/>
<feColorMatrix in="SourceAlpha" type="matrix" values="0 0 0 0 0 0 0 0 0 0 0 0 0 0 0 0 0 0 127 0" result="hardAlpha"/>
<feOffset dy="2"/>
<feGaussianBlur stdDeviation="2"/>
<feComposite in2="hardAlpha" operator="out"/>
<feColorMatrix type="matrix" values="0 0 0 0 0 0 0 0 0 0 0 0 0 0 0 0 0 0 0.25 0"/>
<feBlend mode="normal" in2="BackgroundImageFix" result="effect1_dropShadow_31_6831"/>
<feBlend mode="normal" in="SourceGraphic" in2="effect1_dropShadow_31_6831" result="shape"/>
</filter>
<linearGradient id="paint0_linear_31_6831" x1="24" y1="0" x2="24" y2="48" gradientUnits="userSpaceOnUse">
<stop stop-color="#3BEA62"/>
<stop offset="0.510417" stop-color="#087CFA"/>
<stop offset="1" stop-color="#B74AF7"/>
</linearGradient>
<linearGradient id="paint1_linear_31_6831" x1="4.39418" y1="-1.97057" x2="50.0231" y2="50.3846" gradientUnits="userSpaceOnUse">
<stop offset="0.18" stop-color="#FDB60D"/>
<stop offset="0.49" stop-color="#FF45ED"/>
<stop offset="0.82" stop-color="#DD1265"/>
</linearGradient>
<linearGradient id="paint2_linear_31_6831" x1="9.95324" y1="15.6377" x2="19.9201" y2="40.848" gradientUnits="userSpaceOnUse">
<stop offset="0.22" stop-color="#DD1265"/>
<stop offset="0.74" stop-color="#FF45ED"/>
<stop offset="1" stop-color="#FDB60D"/>
</linearGradient>
<linearGradient id="paint3_linear_31_6831" x1="32.1256" y1="41.9621" x2="7.7519" y2="16.0354" gradientUnits="userSpaceOnUse">
<stop offset="0.11" stop-color="#FDB60D"/>
<stop offset="0.51" stop-color="#FF45ED"/>
<stop offset="0.76" stop-color="#FF45ED"/>
<stop offset="1" stop-color="#FDB60D"/>
</linearGradient>
<linearGradient id="paint4_linear_31_6831" x1="19.5329" y1="6.59314" x2="40.4403" y2="31.56" gradientUnits="userSpaceOnUse">
<stop offset="0.18" stop-color="#FDB60D"/>
<stop offset="0.49" stop-color="#FF45ED"/>
<stop offset="0.82" stop-color="#DD1265"/>
</linearGradient>
<clipPath id="clip0_31_6831">
<rect width="48" height="48" fill="white"/>
</clipPath>
</defs>
</svg>
