<svg width="48" height="48" viewBox="0 0 48 48" fill="none" xmlns="http://www.w3.org/2000/svg">
<g clip-path="url(#clip0_31_6810)">
<path d="M36 0H12C5.37258 0 0 5.37258 0 12V36C0 42.6274 5.37258 48 12 48H36C42.6274 48 48 42.6274 48 36V12C48 5.37258 42.6274 0 36 0Z" fill="url(#paint0_linear_31_6810)"/>
<path d="M36 0H12C5.37258 0 0 5.37258 0 12V36C0 42.6274 5.37258 48 12 48H36C42.6274 48 48 42.6274 48 36V12C48 5.37258 42.6274 0 36 0Z" fill="url(#paint1_linear_31_6810)"/>
<g filter="url(#filter0_i_31_6810)">
<path d="M36 3H12C7.02944 3 3 7.02944 3 12V36C3 40.9706 7.02944 45 12 45H36C40.9706 45 45 40.9706 45 36V12C45 7.02944 40.9706 3 36 3Z" fill="black" fill-opacity="0.7"/>
<mask id="mask0_31_6810" style="mask-type:luminance" maskUnits="userSpaceOnUse" x="5" y="5" width="37" height="37">
<path d="M41.8125 5.8125H5.8125V41.8125H41.8125V5.8125Z" fill="white"/>
</mask>
<g mask="url(#mask0_31_6810)">
<g filter="url(#filter1_d_31_6810)">
<path d="M31.4275 14.6993L19.7601 29.4422L17.127 40.2218H34.839L40.2699 18.1519L31.4275 14.6993Z" fill="url(#paint2_linear_31_6810)"/>
</g>
<g filter="url(#filter2_d_31_6810)">
<path d="M30.3886 7.30736H12.8172L7.35547 29.4422H33.5017L30.3886 7.30736Z" fill="url(#paint3_linear_31_6810)"/>
</g>
<g filter="url(#filter3_d_31_6810)">
<path d="M31.3039 13.5679L30.3884 7.30736L28.4136 13.5679H31.3039Z" fill="url(#paint4_linear_31_6810)"/>
</g>
<g filter="url(#filter4_d_31_6810)">
<path d="M13.5269 13.5268H34.0983V34.0982H13.5269V13.5268Z" fill="black"/>
</g>
<g filter="url(#filter5_d_31_6810)">
<path d="M16.0913 30.2103H23.8056V31.496H16.0913V30.2103Z" fill="white"/>
<path d="M24.5119 22.1599H23.6719V20.7474H24.7553L25.0296 19.1085H24.0593V17.6925H25.273L25.5507 16.0777H27.0113L26.7267 17.6925H28.3382L28.6159 16.0811H30.0731L29.7987 17.6925H30.6387V19.1085H29.5553L29.2776 20.7474H30.2513V22.1599H29.0342L28.7462 23.8194H27.2891L27.5736 22.1599H25.9725L25.6982 23.8194H24.2239L24.5119 22.1599ZM27.8171 20.7474L28.0982 19.1085H26.4902L26.2159 20.7474H27.8171Z" fill="white"/>
<path d="M16.0981 16.0777H19.6433C20.0527 16.0509 20.4634 16.1065 20.8509 16.2414C21.2385 16.3763 21.5949 16.5876 21.8993 16.8628C22.1235 17.0976 22.2978 17.3754 22.4115 17.6796C22.5252 17.9836 22.5761 18.3076 22.561 18.6319V18.6525C22.5877 19.2009 22.4255 19.7418 22.1016 20.1851C21.7911 20.5828 21.3736 20.8837 20.8981 21.0525L22.7873 23.8159H20.7987L19.1976 21.4399H17.8124V23.8159H16.0981V16.0777ZM19.5267 19.8491C19.8801 19.8668 20.2274 19.7518 20.5004 19.5268C20.612 19.4271 20.7004 19.3043 20.7597 19.1669C20.8189 19.0296 20.8474 18.8809 20.8433 18.7314V18.7108C20.8561 18.5552 20.8316 18.3988 20.772 18.2546C20.7124 18.1103 20.6193 17.9823 20.5004 17.8811C20.2131 17.6803 19.8663 17.5825 19.5164 17.6034H17.8124V19.8354L19.5267 19.8491Z" fill="white"/>
</g>
</g>
</g>
</g>
<defs>
<filter id="filter0_i_31_6810" x="3" y="3" width="42" height="46" filterUnits="userSpaceOnUse" color-interpolation-filters="sRGB">
<feFlood flood-opacity="0" result="BackgroundImageFix"/>
<feBlend mode="normal" in="SourceGraphic" in2="BackgroundImageFix" result="shape"/>
<feColorMatrix in="SourceAlpha" type="matrix" values="0 0 0 0 0 0 0 0 0 0 0 0 0 0 0 0 0 0 127 0" result="hardAlpha"/>
<feOffset dy="4"/>
<feGaussianBlur stdDeviation="2"/>
<feComposite in2="hardAlpha" operator="arithmetic" k2="-1" k3="1"/>
<feColorMatrix type="matrix" values="0 0 0 0 0 0 0 0 0 0 0 0 0 0 0 0 0 0 0.25 0"/>
<feBlend mode="normal" in2="shape" result="effect1_innerShadow_31_6810"/>
</filter>
<filter id="filter1_d_31_6810" x="13.4698" y="12.8708" width="30.4573" height="32.8367" filterUnits="userSpaceOnUse" color-interpolation-filters="sRGB">
<feFlood flood-opacity="0" result="BackgroundImageFix"/>
<feColorMatrix in="SourceAlpha" type="matrix" values="0 0 0 0 0 0 0 0 0 0 0 0 0 0 0 0 0 0 127 0" result="hardAlpha"/>
<feOffset dy="1.82857"/>
<feGaussianBlur stdDeviation="1.82857"/>
<feComposite in2="hardAlpha" operator="out"/>
<feColorMatrix type="matrix" values="0 0 0 0 0 0 0 0 0 0 0 0 0 0 0 0 0 0 0.25 0"/>
<feBlend mode="normal" in2="BackgroundImageFix" result="effect1_dropShadow_31_6810"/>
<feBlend mode="normal" in="SourceGraphic" in2="effect1_dropShadow_31_6810" result="shape"/>
</filter>
<filter id="filter2_d_31_6810" x="3.69833" y="5.47879" width="33.4608" height="29.4491" filterUnits="userSpaceOnUse" color-interpolation-filters="sRGB">
<feFlood flood-opacity="0" result="BackgroundImageFix"/>
<feColorMatrix in="SourceAlpha" type="matrix" values="0 0 0 0 0 0 0 0 0 0 0 0 0 0 0 0 0 0 127 0" result="hardAlpha"/>
<feOffset dy="1.82857"/>
<feGaussianBlur stdDeviation="1.82857"/>
<feComposite in2="hardAlpha" operator="out"/>
<feColorMatrix type="matrix" values="0 0 0 0 0 0 0 0 0 0 0 0 0 0 0 0 0 0 0.25 0"/>
<feBlend mode="normal" in2="BackgroundImageFix" result="effect1_dropShadow_31_6810"/>
<feBlend mode="normal" in="SourceGraphic" in2="effect1_dropShadow_31_6810" result="shape"/>
</filter>
<filter id="filter3_d_31_6810" x="24.7564" y="5.47879" width="10.2044" height="13.5749" filterUnits="userSpaceOnUse" color-interpolation-filters="sRGB">
<feFlood flood-opacity="0" result="BackgroundImageFix"/>
<feColorMatrix in="SourceAlpha" type="matrix" values="0 0 0 0 0 0 0 0 0 0 0 0 0 0 0 0 0 0 127 0" result="hardAlpha"/>
<feOffset dy="1.82857"/>
<feGaussianBlur stdDeviation="1.82857"/>
<feComposite in2="hardAlpha" operator="out"/>
<feColorMatrix type="matrix" values="0 0 0 0 0 0 0 0 0 0 0 0 0 0 0 0 0 0 0.25 0"/>
<feBlend mode="normal" in2="BackgroundImageFix" result="effect1_dropShadow_31_6810"/>
<feBlend mode="normal" in="SourceGraphic" in2="effect1_dropShadow_31_6810" result="shape"/>
</filter>
<filter id="filter4_d_31_6810" x="9.86972" y="11.6982" width="27.8856" height="27.8857" filterUnits="userSpaceOnUse" color-interpolation-filters="sRGB">
<feFlood flood-opacity="0" result="BackgroundImageFix"/>
<feColorMatrix in="SourceAlpha" type="matrix" values="0 0 0 0 0 0 0 0 0 0 0 0 0 0 0 0 0 0 127 0" result="hardAlpha"/>
<feOffset dy="1.82857"/>
<feGaussianBlur stdDeviation="1.82857"/>
<feComposite in2="hardAlpha" operator="out"/>
<feColorMatrix type="matrix" values="0 0 0 0 0 0 0 0 0 0 0 0 0 0 0 0 0 0 0.25 0"/>
<feBlend mode="normal" in2="BackgroundImageFix" result="effect1_dropShadow_31_6810"/>
<feBlend mode="normal" in="SourceGraphic" in2="effect1_dropShadow_31_6810" result="shape"/>
</filter>
<filter id="filter5_d_31_6810" x="12.4342" y="14.2426" width="21.8616" height="22.7391" filterUnits="userSpaceOnUse" color-interpolation-filters="sRGB">
<feFlood flood-opacity="0" result="BackgroundImageFix"/>
<feColorMatrix in="SourceAlpha" type="matrix" values="0 0 0 0 0 0 0 0 0 0 0 0 0 0 0 0 0 0 127 0" result="hardAlpha"/>
<feOffset dy="1.82857"/>
<feGaussianBlur stdDeviation="1.82857"/>
<feComposite in2="hardAlpha" operator="out"/>
<feColorMatrix type="matrix" values="0 0 0 0 0 0 0 0 0 0 0 0 0 0 0 0 0 0 0.25 0"/>
<feBlend mode="normal" in2="BackgroundImageFix" result="effect1_dropShadow_31_6810"/>
<feBlend mode="normal" in="SourceGraphic" in2="effect1_dropShadow_31_6810" result="shape"/>
</filter>
<linearGradient id="paint0_linear_31_6810" x1="24" y1="0" x2="24" y2="48" gradientUnits="userSpaceOnUse">
<stop stop-color="#3BEA62"/>
<stop offset="0.510417" stop-color="#087CFA"/>
<stop offset="1" stop-color="#B74AF7"/>
</linearGradient>
<linearGradient id="paint1_linear_31_6810" x1="13.3262" y1="48.129" x2="38.9936" y2="6.87975" gradientUnits="userSpaceOnUse">
<stop offset="0.02" stop-color="#FF45ED"/>
<stop offset="0.4" stop-color="#DD1265"/>
<stop offset="1" stop-color="#FDB60D"/>
</linearGradient>
<linearGradient id="paint2_linear_31_6810" x1="23.5521" y1="40.2904" x2="37.7466" y2="19.6056" gradientUnits="userSpaceOnUse">
<stop offset="0.02" stop-color="#FF45ED"/>
<stop offset="0.4" stop-color="#DD1265"/>
<stop offset="1" stop-color="#FDB60D"/>
</linearGradient>
<linearGradient id="paint3_linear_31_6810" x1="8.21602" y1="32.4285" x2="30.3132" y2="11.6445" gradientUnits="userSpaceOnUse">
<stop offset="0.02" stop-color="#FF45ED"/>
<stop offset="0.66" stop-color="#DD1265"/>
</linearGradient>
<linearGradient id="paint4_linear_31_6810" x1="29.737" y1="6.52908" x2="29.9633" y2="19.5885" gradientUnits="userSpaceOnUse">
<stop stop-color="#DD1265"/>
<stop offset="0.06" stop-color="#DF1961"/>
<stop offset="0.7" stop-color="#F46330"/>
<stop offset="1" stop-color="#FC801D"/>
</linearGradient>
<clipPath id="clip0_31_6810">
<rect width="48" height="48" fill="white"/>
</clipPath>
</defs>
</svg>
