<svg width="48" height="48" viewBox="0 0 48 48" fill="none" xmlns="http://www.w3.org/2000/svg">
<g clip-path="url(#clip0_31_6852)">
<path d="M36 0H12C5.37258 0 0 5.37258 0 12V36C0 42.6274 5.37258 48 12 48H36C42.6274 48 48 42.6274 48 36V12C48 5.37258 42.6274 0 36 0Z" fill="url(#paint0_linear_31_6852)"/>
<g filter="url(#filter0_i_31_6852)">
<path d="M36 3H12C7.02944 3 3 7.02944 3 12V36C3 40.9706 7.02944 45 12 45H36C40.9706 45 45 40.9706 45 36V12C45 7.02944 40.9706 3 36 3Z" fill="black" fill-opacity="0.7"/>
<g filter="url(#filter1_d_31_6852)">
<path d="M20.1504 10.9102L19.9628 10.6288C19.1282 9.37695 17.7232 8.625 16.2186 8.625H13.125C10.6397 8.625 8.625 10.6397 8.625 13.125V34.875C8.625 37.3603 10.6397 39.375 13.125 39.375H34.875C37.3603 39.375 39.375 37.3603 39.375 34.875V18.75C39.375 16.2647 37.3603 14.25 34.875 14.25H26.3908C23.8831 14.25 21.5414 12.9967 20.1504 10.9102ZM20.1504 10.9102L21.3985 10.0782" stroke="url(#paint1_linear_31_6852)" stroke-width="3"/>
</g>
<g filter="url(#filter2_d_31_6852)">
<path fill-rule="evenodd" clip-rule="evenodd" d="M20.2583 26.3985C20.5892 28.3023 22.3216 29.7582 24.4021 29.7582H31.0487C32.2081 29.7582 33.2647 29.4157 34.0238 28.5904C34.7743 27.774 35.1985 26.6483 35.2499 25.3349V25.3042C35.2499 24.0393 34.7289 22.7604 33.7837 21.9063C32.8705 21.0809 31.6551 20.626 30.3617 20.626H26.5801V20.046C26.5801 19.8153 26.4367 19.632 26.2446 19.5489C26.0872 19.4806 25.8977 19.4793 25.7269 19.5739L23.2561 20.941C22.8766 21.1505 22.8766 21.6744 23.2561 21.8839L25.7269 23.2504C25.8977 23.3449 26.0872 23.3436 26.2446 23.2753C26.4367 23.1922 26.5801 23.0095 26.5801 22.7789V22.303H30.3617C31.2062 22.303 31.9946 22.7073 32.5817 23.2376C33.1693 23.7684 33.4942 24.4967 33.4989 25.2889C33.4248 27.054 32.4642 28.0812 31.0487 28.0812H24.4021C23.2168 28.0812 22.2242 27.2706 22.0001 26.1973C21.944 25.9296 21.7019 25.7348 21.4171 25.7348H20.8434C20.4758 25.7348 20.1977 26.0517 20.2583 26.3985Z" fill="#8B00E7"/>
<path d="M17.6382 32.624C16.3448 32.624 15.1294 32.1697 14.2162 31.3444C13.271 30.4896 12.75 29.2113 12.75 27.9464V27.9151C12.8014 26.6023 13.2256 25.4761 13.9761 24.6596C14.7352 23.8349 15.7918 23.4918 16.9512 23.4918H23.5978C25.6783 23.4918 27.4107 24.9477 27.7416 26.8515C27.8022 27.199 27.5241 27.5158 27.1565 27.5158H26.5829C26.298 27.5158 26.0559 27.321 25.9998 27.0533C25.7757 25.9801 24.7831 25.1688 23.5978 25.1688H16.9512C15.5356 25.1688 14.5751 26.1967 14.501 27.9611C14.5057 28.7539 14.8306 29.4816 15.4182 30.0124C16.0053 30.5433 16.7937 30.947 17.6382 30.947H21.4198V30.4717C21.4198 30.0706 21.8527 29.8137 22.2223 29.9747C22.2396 29.9824 22.2563 29.9907 22.273 29.9997L24.7438 31.3661C25.1233 31.5756 25.1233 32.1001 24.7438 32.3097L22.3964 33.6078C22.3964 33.6078 22.2396 33.6934 22.2223 33.7011C21.8527 33.8627 21.4198 33.6052 21.4198 33.2047V32.624H17.6382Z" fill="#D404FF"/>
</g>
</g>
</g>
<defs>
<filter id="filter0_i_31_6852" x="3" y="3" width="42" height="46" filterUnits="userSpaceOnUse" color-interpolation-filters="sRGB">
<feFlood flood-opacity="0" result="BackgroundImageFix"/>
<feBlend mode="normal" in="SourceGraphic" in2="BackgroundImageFix" result="shape"/>
<feColorMatrix in="SourceAlpha" type="matrix" values="0 0 0 0 0 0 0 0 0 0 0 0 0 0 0 0 0 0 127 0" result="hardAlpha"/>
<feOffset dy="4"/>
<feGaussianBlur stdDeviation="2"/>
<feComposite in2="hardAlpha" operator="arithmetic" k2="-1" k3="1"/>
<feColorMatrix type="matrix" values="0 0 0 0 0 0 0 0 0 0 0 0 0 0 0 0 0 0 0.25 0"/>
<feBlend mode="normal" in2="shape" result="effect1_innerShadow_31_6852"/>
</filter>
<filter id="filter1_d_31_6852" x="3.125" y="5.125" width="41.75" height="41.75" filterUnits="userSpaceOnUse" color-interpolation-filters="sRGB">
<feFlood flood-opacity="0" result="BackgroundImageFix"/>
<feColorMatrix in="SourceAlpha" type="matrix" values="0 0 0 0 0 0 0 0 0 0 0 0 0 0 0 0 0 0 127 0" result="hardAlpha"/>
<feOffset dy="2"/>
<feGaussianBlur stdDeviation="2"/>
<feComposite in2="hardAlpha" operator="out"/>
<feColorMatrix type="matrix" values="0 0 0 0 0 0 0 0 0 0 0 0 0 0 0 0 0 0 0.25 0"/>
<feBlend mode="normal" in2="BackgroundImageFix" result="effect1_dropShadow_31_6852"/>
<feBlend mode="normal" in="SourceGraphic" in2="effect1_dropShadow_31_6852" result="shape"/>
</filter>
<filter id="filter2_d_31_6852" x="8.75" y="17.5" width="30.5" height="22.25" filterUnits="userSpaceOnUse" color-interpolation-filters="sRGB">
<feFlood flood-opacity="0" result="BackgroundImageFix"/>
<feColorMatrix in="SourceAlpha" type="matrix" values="0 0 0 0 0 0 0 0 0 0 0 0 0 0 0 0 0 0 127 0" result="hardAlpha"/>
<feOffset dy="2"/>
<feGaussianBlur stdDeviation="2"/>
<feComposite in2="hardAlpha" operator="out"/>
<feColorMatrix type="matrix" values="0 0 0 0 0 0 0 0 0 0 0 0 0 0 0 0 0 0 0.25 0"/>
<feBlend mode="normal" in2="BackgroundImageFix" result="effect1_dropShadow_31_6852"/>
<feBlend mode="normal" in="SourceGraphic" in2="effect1_dropShadow_31_6852" result="shape"/>
</filter>
<linearGradient id="paint0_linear_31_6852" x1="24" y1="0" x2="24" y2="48" gradientUnits="userSpaceOnUse">
<stop stop-color="#CB02C5"/>
<stop offset="0.244792" stop-color="#C101DA"/>
<stop offset="0.510417" stop-color="#B600F0"/>
<stop offset="0.744792" stop-color="#8900D9"/>
<stop offset="1" stop-color="#5800BF"/>
</linearGradient>
<linearGradient id="paint1_linear_31_6852" x1="24" y1="7.125" x2="24" y2="40.875" gradientUnits="userSpaceOnUse">
<stop stop-color="#C301D5"/>
<stop offset="0.505208" stop-color="#B600EF"/>
<stop offset="1" stop-color="#8100D4"/>
</linearGradient>
<clipPath id="clip0_31_6852">
<rect width="48" height="48" fill="white"/>
</clipPath>
</defs>
</svg>
