<svg width="48" height="48" viewBox="0 0 48 48" fill="none" xmlns="http://www.w3.org/2000/svg">
<g clip-path="url(#clip0_31_6875)">
<path d="M36 0H12C5.37258 0 0 5.37258 0 12V36C0 42.6274 5.37258 48 12 48H36C42.6274 48 48 42.6274 48 36V12C48 5.37258 42.6274 0 36 0Z" fill="url(#paint0_linear_31_6875)"/>
<g filter="url(#filter0_i_31_6875)">
<path d="M36 3H12C7.02944 3 3 7.02944 3 12V36C3 40.9706 7.02944 45 12 45H36C40.9706 45 45 40.9706 45 36V12C45 7.02944 40.9706 3 36 3Z" fill="black" fill-opacity="0.7"/>
<mask id="mask0_31_6875" style="mask-type:luminance" maskUnits="userSpaceOnUse" x="5" y="5" width="37" height="37">
<path d="M41.8125 5.8125H5.8125V41.8125H41.8125V5.8125Z" fill="white"/>
</mask>
<g mask="url(#mask0_31_6875)">
<g filter="url(#filter1_d_31_6875)">
<path d="M40.2697 20.1199L17.1953 7.31419L32.6445 30.2685L35.8193 28.1873L40.2697 20.1199Z" fill="url(#paint1_linear_31_6875)"/>
</g>
<g filter="url(#filter2_d_31_6875)">
<path d="M31.0638 14.8982L28.1736 7.83192L21.7793 14.1268L24.3953 36.9679L30.5907 40.2285L40.2696 34.5748L31.0638 14.8982Z" fill="url(#paint2_linear_31_6875)"/>
</g>
<g filter="url(#filter3_d_31_6875)">
<path d="M17.1955 7.31419L7.35547 13.9416L11.0137 36.5462L20.4492 40.1738L32.6446 30.2685L17.1955 7.31419Z" fill="url(#paint3_linear_31_6875)"/>
</g>
<g filter="url(#filter4_d_31_6875)">
<path d="M13.5269 13.5268H34.0983V34.0982H13.5269V13.5268Z" fill="black"/>
</g>
<path d="M16.0913 30.2102H23.8056V31.4959H16.0913V30.2102Z" fill="white"/>
<path d="M16.0981 16.0708H19.6296C20.0383 16.0456 20.4481 16.1021 20.8348 16.2369C21.2215 16.3717 21.5776 16.5821 21.8821 16.8559C22.1057 17.0914 22.2797 17.3692 22.394 17.6731C22.5082 17.977 22.5604 18.3007 22.5473 18.6251V18.6456C22.5728 19.1724 22.4241 19.6929 22.1242 20.1268C21.8242 20.5606 21.3897 20.8835 20.8879 21.0457L22.7804 23.8091H20.7884L19.1324 21.3337H17.8124V23.8091H16.0981V16.0708ZM19.5267 19.8422C20.3564 19.8422 20.833 19.3999 20.833 18.7485V18.7279C20.833 17.9977 20.3256 17.6205 19.4959 17.6205H17.8124V19.8422H19.5267Z" fill="white"/>
<path d="M23.96 16.0707H26.9771C29.408 16.0707 31.0914 17.7405 31.0914 19.9176V19.9416C31.0914 22.1187 29.4114 23.8091 26.9771 23.8091H23.96V16.0707ZM25.6742 17.6067V22.2696H26.9908C27.3 22.2878 27.6095 22.2407 27.8993 22.1313C28.189 22.0219 28.4524 21.8526 28.6724 21.6346C28.8923 21.4166 29.0639 21.1547 29.1759 20.8659C29.2878 20.5772 29.3377 20.2681 29.3222 19.9587V19.9382C29.3379 19.6277 29.2884 19.3174 29.1768 19.0272C29.0653 18.7371 28.8942 18.4735 28.6745 18.2535C28.4549 18.0336 28.1915 17.862 27.9015 17.7501C27.6116 17.6381 27.3013 17.5881 26.9908 17.6033L25.6742 17.6067Z" fill="white"/>
</g>
</g>
</g>
<defs>
<filter id="filter0_i_31_6875" x="3" y="3" width="42" height="46" filterUnits="userSpaceOnUse" color-interpolation-filters="sRGB">
<feFlood flood-opacity="0" result="BackgroundImageFix"/>
<feBlend mode="normal" in="SourceGraphic" in2="BackgroundImageFix" result="shape"/>
<feColorMatrix in="SourceAlpha" type="matrix" values="0 0 0 0 0 0 0 0 0 0 0 0 0 0 0 0 0 0 127 0" result="hardAlpha"/>
<feOffset dy="4"/>
<feGaussianBlur stdDeviation="2"/>
<feComposite in2="hardAlpha" operator="arithmetic" k2="-1" k3="1"/>
<feColorMatrix type="matrix" values="0 0 0 0 0 0 0 0 0 0 0 0 0 0 0 0 0 0 0.25 0"/>
<feBlend mode="normal" in2="shape" result="effect1_innerShadow_31_6875"/>
</filter>
<filter id="filter1_d_31_6875" x="13.1953" y="5.31419" width="31.0742" height="30.9543" filterUnits="userSpaceOnUse" color-interpolation-filters="sRGB">
<feFlood flood-opacity="0" result="BackgroundImageFix"/>
<feColorMatrix in="SourceAlpha" type="matrix" values="0 0 0 0 0 0 0 0 0 0 0 0 0 0 0 0 0 0 127 0" result="hardAlpha"/>
<feOffset dy="2"/>
<feGaussianBlur stdDeviation="2"/>
<feComposite in2="hardAlpha" operator="out"/>
<feColorMatrix type="matrix" values="0 0 0 0 0 0 0 0 0 0 0 0 0 0 0 0 0 0 0.25 0"/>
<feBlend mode="normal" in2="BackgroundImageFix" result="effect1_dropShadow_31_6875"/>
<feBlend mode="normal" in="SourceGraphic" in2="effect1_dropShadow_31_6875" result="shape"/>
</filter>
<filter id="filter2_d_31_6875" x="17.7793" y="5.83192" width="26.4902" height="40.3966" filterUnits="userSpaceOnUse" color-interpolation-filters="sRGB">
<feFlood flood-opacity="0" result="BackgroundImageFix"/>
<feColorMatrix in="SourceAlpha" type="matrix" values="0 0 0 0 0 0 0 0 0 0 0 0 0 0 0 0 0 0 127 0" result="hardAlpha"/>
<feOffset dy="2"/>
<feGaussianBlur stdDeviation="2"/>
<feComposite in2="hardAlpha" operator="out"/>
<feColorMatrix type="matrix" values="0 0 0 0 0 0 0 0 0 0 0 0 0 0 0 0 0 0 0.25 0"/>
<feBlend mode="normal" in2="BackgroundImageFix" result="effect1_dropShadow_31_6875"/>
<feBlend mode="normal" in="SourceGraphic" in2="effect1_dropShadow_31_6875" result="shape"/>
</filter>
<filter id="filter3_d_31_6875" x="3.35547" y="5.31419" width="33.2891" height="40.8596" filterUnits="userSpaceOnUse" color-interpolation-filters="sRGB">
<feFlood flood-opacity="0" result="BackgroundImageFix"/>
<feColorMatrix in="SourceAlpha" type="matrix" values="0 0 0 0 0 0 0 0 0 0 0 0 0 0 0 0 0 0 127 0" result="hardAlpha"/>
<feOffset dy="2"/>
<feGaussianBlur stdDeviation="2"/>
<feComposite in2="hardAlpha" operator="out"/>
<feColorMatrix type="matrix" values="0 0 0 0 0 0 0 0 0 0 0 0 0 0 0 0 0 0 0.25 0"/>
<feBlend mode="normal" in2="BackgroundImageFix" result="effect1_dropShadow_31_6875"/>
<feBlend mode="normal" in="SourceGraphic" in2="effect1_dropShadow_31_6875" result="shape"/>
</filter>
<filter id="filter4_d_31_6875" x="9.52686" y="11.5268" width="28.5713" height="28.5714" filterUnits="userSpaceOnUse" color-interpolation-filters="sRGB">
<feFlood flood-opacity="0" result="BackgroundImageFix"/>
<feColorMatrix in="SourceAlpha" type="matrix" values="0 0 0 0 0 0 0 0 0 0 0 0 0 0 0 0 0 0 127 0" result="hardAlpha"/>
<feOffset dy="2"/>
<feGaussianBlur stdDeviation="2"/>
<feComposite in2="hardAlpha" operator="out"/>
<feColorMatrix type="matrix" values="0 0 0 0 0 0 0 0 0 0 0 0 0 0 0 0 0 0 0.25 0"/>
<feBlend mode="normal" in2="BackgroundImageFix" result="effect1_dropShadow_31_6875"/>
<feBlend mode="normal" in="SourceGraphic" in2="effect1_dropShadow_31_6875" result="shape"/>
</filter>
<linearGradient id="paint0_linear_31_6875" x1="24" y1="0" x2="24" y2="48" gradientUnits="userSpaceOnUse">
<stop stop-color="#087CFA"/>
<stop offset="0.317708" stop-color="#963597"/>
<stop offset="0.671875" stop-color="#DD1265"/>
<stop offset="1" stop-color="#ED6438"/>
</linearGradient>
<linearGradient id="paint1_linear_31_6875" x1="38.1544" y1="26.1679" x2="12.7828" y2="11.6102" gradientUnits="userSpaceOnUse">
<stop stop-color="#DD1265"/>
<stop offset="0.48" stop-color="#DD1265"/>
<stop offset="0.94" stop-color="#FDB60D"/>
</linearGradient>
<linearGradient id="paint2_linear_31_6875" x1="23.0684" y1="10.1874" x2="33.1244" y2="37.9586" gradientUnits="userSpaceOnUse">
<stop offset="0.14" stop-color="#087CFA"/>
<stop offset="0.48" stop-color="#DD1265"/>
<stop offset="0.96" stop-color="#087CFA"/>
</linearGradient>
<linearGradient id="paint3_linear_31_6875" x1="15.536" y1="11.0445" x2="22.9623" y2="37.4445" gradientUnits="userSpaceOnUse">
<stop offset="0.28" stop-color="#DD1265"/>
<stop offset="0.97" stop-color="#FDB60D"/>
</linearGradient>
<clipPath id="clip0_31_6875">
<rect width="48" height="48" fill="white"/>
</clipPath>
</defs>
</svg>
