<svg width="48" height="48" viewBox="0 0 48 48" fill="none" xmlns="http://www.w3.org/2000/svg">
<g clip-path="url(#clip0_31_6894)">
<path d="M36 0H12C5.37258 0 0 5.37258 0 12V36C0 42.6274 5.37258 48 12 48H36C42.6274 48 48 42.6274 48 36V12C48 5.37258 42.6274 0 36 0Z" fill="url(#paint0_linear_31_6894)"/>
<path d="M36 0H12C5.37258 0 0 5.37258 0 12V36C0 42.6274 5.37258 48 12 48H36C42.6274 48 48 42.6274 48 36V12C48 5.37258 42.6274 0 36 0Z" fill="url(#paint1_linear_31_6894)"/>
<path d="M36 0H12C5.37258 0 0 5.37258 0 12V36C0 42.6274 5.37258 48 12 48H36C42.6274 48 48 42.6274 48 36V12C48 5.37258 42.6274 0 36 0Z" fill="url(#paint2_linear_31_6894)"/>
<g filter="url(#filter0_i_31_6894)">
<path d="M36 3H12C7.02944 3 3 7.02944 3 12V36C3 40.9706 7.02944 45 12 45H36C40.9706 45 45 40.9706 45 36V12C45 7.02944 40.9706 3 36 3Z" fill="black" fill-opacity="0.7"/>
<mask id="mask0_31_6894" style="mask-type:luminance" maskUnits="userSpaceOnUse" x="6" y="6" width="36" height="36">
<path d="M42 6H6V42H42V6Z" fill="white"/>
</mask>
<g mask="url(#mask0_31_6894)">
<g filter="url(#filter1_d_31_6894)">
<path d="M31.8159 34.8169L18.5466 42L6 34.6538L29.0625 26.0363L31.8159 34.8169Z" fill="url(#paint3_linear_31_6894)"/>
</g>
<g filter="url(#filter2_d_31_6894)">
<path d="M26.5566 6L19.3453 27.3919L12.1678 23.3841L6 34.6538L17.5172 32.8144L32.1309 30.2353L42 28.0247V14.6006L26.5566 6Z" fill="url(#paint4_linear_31_6894)"/>
</g>
<g filter="url(#filter3_d_31_6894)">
<path d="M22.3125 18.4706L12.705 15.7059L11.9062 6L19.9894 9.3975L26.5594 6L22.3125 18.4706Z" fill="#087CFA"/>
</g>
<g filter="url(#filter4_d_31_6894)">
<path d="M22.5936 17.9081L19.9893 9.3975L26.5593 6L22.5936 17.9081Z" fill="url(#paint5_linear_31_6894)"/>
</g>
<g filter="url(#filter5_d_31_6894)">
<path d="M30.7753 26.9053L11.9147 6L6 19.4831L22.6528 33.8691L30.7753 26.9053Z" fill="url(#paint6_linear_31_6894)"/>
</g>
<g filter="url(#filter6_d_31_6894)">
<path d="M42 28.0247L31.0312 30.556L31.4503 28.7475L42 14.6007V28.0247Z" fill="url(#paint7_linear_31_6894)"/>
</g>
<g filter="url(#filter7_d_31_6894)">
<path d="M36.2372 42L22.6528 33.8719L30.7753 26.9053L36.2372 42Z" fill="url(#paint8_linear_31_6894)"/>
</g>
<g filter="url(#filter8_d_31_6894)">
<path d="M35.25 12.75H12.75V35.25H35.25V12.75Z" fill="black"/>
</g>
<path d="M24 31.0312H15.5625V32.4375H24V31.0312Z" fill="white"/>
<path d="M15.5005 15.5625H19.3592C20.4336 15.5625 21.2661 15.8634 21.8202 16.4062C22.0635 16.6633 22.253 16.9664 22.3777 17.2977C22.5023 17.6291 22.5594 17.9819 22.5458 18.3356V18.375C22.5727 18.9497 22.4099 19.5172 22.0826 19.9903C21.7554 20.4634 21.2818 20.8159 20.7346 20.9934L22.7989 24H20.6249L18.8136 21.2972H17.3567V24H15.5005V15.5625ZM19.2383 19.6519C20.1439 19.6519 20.6614 19.1681 20.6614 18.4566V18.4341C20.6614 17.6381 20.0989 17.2275 19.2046 17.2275H17.3567V19.6519H19.2383Z" fill="white"/>
<path d="M24.2251 15.5625H30.6545V17.25H26.0842V19.0472H30.1117V20.7347H26.0842V24H24.2251V15.5625Z" fill="white"/>
</g>
</g>
</g>
<defs>
<filter id="filter0_i_31_6894" x="3" y="3" width="42" height="46" filterUnits="userSpaceOnUse" color-interpolation-filters="sRGB">
<feFlood flood-opacity="0" result="BackgroundImageFix"/>
<feBlend mode="normal" in="SourceGraphic" in2="BackgroundImageFix" result="shape"/>
<feColorMatrix in="SourceAlpha" type="matrix" values="0 0 0 0 0 0 0 0 0 0 0 0 0 0 0 0 0 0 127 0" result="hardAlpha"/>
<feOffset dy="4"/>
<feGaussianBlur stdDeviation="2"/>
<feComposite in2="hardAlpha" operator="arithmetic" k2="-1" k3="1"/>
<feColorMatrix type="matrix" values="0 0 0 0 0 0 0 0 0 0 0 0 0 0 0 0 0 0 0.25 0"/>
<feBlend mode="normal" in2="shape" result="effect1_innerShadow_31_6894"/>
</filter>
<filter id="filter1_d_31_6894" x="2" y="24.0363" width="33.8159" height="23.9637" filterUnits="userSpaceOnUse" color-interpolation-filters="sRGB">
<feFlood flood-opacity="0" result="BackgroundImageFix"/>
<feColorMatrix in="SourceAlpha" type="matrix" values="0 0 0 0 0 0 0 0 0 0 0 0 0 0 0 0 0 0 127 0" result="hardAlpha"/>
<feOffset dy="2"/>
<feGaussianBlur stdDeviation="2"/>
<feComposite in2="hardAlpha" operator="out"/>
<feColorMatrix type="matrix" values="0 0 0 0 0 0 0 0 0 0 0 0 0 0 0 0 0 0 0.25 0"/>
<feBlend mode="normal" in2="BackgroundImageFix" result="effect1_dropShadow_31_6894"/>
<feBlend mode="normal" in="SourceGraphic" in2="effect1_dropShadow_31_6894" result="shape"/>
</filter>
<filter id="filter2_d_31_6894" x="2" y="4" width="44" height="36.6538" filterUnits="userSpaceOnUse" color-interpolation-filters="sRGB">
<feFlood flood-opacity="0" result="BackgroundImageFix"/>
<feColorMatrix in="SourceAlpha" type="matrix" values="0 0 0 0 0 0 0 0 0 0 0 0 0 0 0 0 0 0 127 0" result="hardAlpha"/>
<feOffset dy="2"/>
<feGaussianBlur stdDeviation="2"/>
<feComposite in2="hardAlpha" operator="out"/>
<feColorMatrix type="matrix" values="0 0 0 0 0 0 0 0 0 0 0 0 0 0 0 0 0 0 0.25 0"/>
<feBlend mode="normal" in2="BackgroundImageFix" result="effect1_dropShadow_31_6894"/>
<feBlend mode="normal" in="SourceGraphic" in2="effect1_dropShadow_31_6894" result="shape"/>
</filter>
<filter id="filter3_d_31_6894" x="7.90625" y="4" width="22.6533" height="20.4706" filterUnits="userSpaceOnUse" color-interpolation-filters="sRGB">
<feFlood flood-opacity="0" result="BackgroundImageFix"/>
<feColorMatrix in="SourceAlpha" type="matrix" values="0 0 0 0 0 0 0 0 0 0 0 0 0 0 0 0 0 0 127 0" result="hardAlpha"/>
<feOffset dy="2"/>
<feGaussianBlur stdDeviation="2"/>
<feComposite in2="hardAlpha" operator="out"/>
<feColorMatrix type="matrix" values="0 0 0 0 0 0 0 0 0 0 0 0 0 0 0 0 0 0 0.25 0"/>
<feBlend mode="normal" in2="BackgroundImageFix" result="effect1_dropShadow_31_6894"/>
<feBlend mode="normal" in="SourceGraphic" in2="effect1_dropShadow_31_6894" result="shape"/>
</filter>
<filter id="filter4_d_31_6894" x="15.9893" y="4" width="14.5698" height="19.9081" filterUnits="userSpaceOnUse" color-interpolation-filters="sRGB">
<feFlood flood-opacity="0" result="BackgroundImageFix"/>
<feColorMatrix in="SourceAlpha" type="matrix" values="0 0 0 0 0 0 0 0 0 0 0 0 0 0 0 0 0 0 127 0" result="hardAlpha"/>
<feOffset dy="2"/>
<feGaussianBlur stdDeviation="2"/>
<feComposite in2="hardAlpha" operator="out"/>
<feColorMatrix type="matrix" values="0 0 0 0 0 0 0 0 0 0 0 0 0 0 0 0 0 0 0.25 0"/>
<feBlend mode="normal" in2="BackgroundImageFix" result="effect1_dropShadow_31_6894"/>
<feBlend mode="normal" in="SourceGraphic" in2="effect1_dropShadow_31_6894" result="shape"/>
</filter>
<filter id="filter5_d_31_6894" x="2" y="4" width="32.7754" height="35.8691" filterUnits="userSpaceOnUse" color-interpolation-filters="sRGB">
<feFlood flood-opacity="0" result="BackgroundImageFix"/>
<feColorMatrix in="SourceAlpha" type="matrix" values="0 0 0 0 0 0 0 0 0 0 0 0 0 0 0 0 0 0 127 0" result="hardAlpha"/>
<feOffset dy="2"/>
<feGaussianBlur stdDeviation="2"/>
<feComposite in2="hardAlpha" operator="out"/>
<feColorMatrix type="matrix" values="0 0 0 0 0 0 0 0 0 0 0 0 0 0 0 0 0 0 0.25 0"/>
<feBlend mode="normal" in2="BackgroundImageFix" result="effect1_dropShadow_31_6894"/>
<feBlend mode="normal" in="SourceGraphic" in2="effect1_dropShadow_31_6894" result="shape"/>
</filter>
<filter id="filter6_d_31_6894" x="27.0312" y="12.6007" width="18.9688" height="23.9553" filterUnits="userSpaceOnUse" color-interpolation-filters="sRGB">
<feFlood flood-opacity="0" result="BackgroundImageFix"/>
<feColorMatrix in="SourceAlpha" type="matrix" values="0 0 0 0 0 0 0 0 0 0 0 0 0 0 0 0 0 0 127 0" result="hardAlpha"/>
<feOffset dy="2"/>
<feGaussianBlur stdDeviation="2"/>
<feComposite in2="hardAlpha" operator="out"/>
<feColorMatrix type="matrix" values="0 0 0 0 0 0 0 0 0 0 0 0 0 0 0 0 0 0 0.25 0"/>
<feBlend mode="normal" in2="BackgroundImageFix" result="effect1_dropShadow_31_6894"/>
<feBlend mode="normal" in="SourceGraphic" in2="effect1_dropShadow_31_6894" result="shape"/>
</filter>
<filter id="filter7_d_31_6894" x="18.6528" y="24.9053" width="21.5845" height="23.0947" filterUnits="userSpaceOnUse" color-interpolation-filters="sRGB">
<feFlood flood-opacity="0" result="BackgroundImageFix"/>
<feColorMatrix in="SourceAlpha" type="matrix" values="0 0 0 0 0 0 0 0 0 0 0 0 0 0 0 0 0 0 127 0" result="hardAlpha"/>
<feOffset dy="2"/>
<feGaussianBlur stdDeviation="2"/>
<feComposite in2="hardAlpha" operator="out"/>
<feColorMatrix type="matrix" values="0 0 0 0 0 0 0 0 0 0 0 0 0 0 0 0 0 0 0.25 0"/>
<feBlend mode="normal" in2="BackgroundImageFix" result="effect1_dropShadow_31_6894"/>
<feBlend mode="normal" in="SourceGraphic" in2="effect1_dropShadow_31_6894" result="shape"/>
</filter>
<filter id="filter8_d_31_6894" x="8.75" y="10.75" width="30.5" height="30.5" filterUnits="userSpaceOnUse" color-interpolation-filters="sRGB">
<feFlood flood-opacity="0" result="BackgroundImageFix"/>
<feColorMatrix in="SourceAlpha" type="matrix" values="0 0 0 0 0 0 0 0 0 0 0 0 0 0 0 0 0 0 127 0" result="hardAlpha"/>
<feOffset dy="2"/>
<feGaussianBlur stdDeviation="2"/>
<feComposite in2="hardAlpha" operator="out"/>
<feColorMatrix type="matrix" values="0 0 0 0 0 0 0 0 0 0 0 0 0 0 0 0 0 0 0.25 0"/>
<feBlend mode="normal" in2="BackgroundImageFix" result="effect1_dropShadow_31_6894"/>
<feBlend mode="normal" in="SourceGraphic" in2="effect1_dropShadow_31_6894" result="shape"/>
</filter>
<linearGradient id="paint0_linear_31_6894" x1="24" y1="0" x2="24" y2="48" gradientUnits="userSpaceOnUse">
<stop stop-color="#087CFA"/>
<stop offset="0.317708" stop-color="#963597"/>
<stop offset="0.671875" stop-color="#DD1265"/>
<stop offset="1" stop-color="#ED6438"/>
</linearGradient>
<linearGradient id="paint1_linear_31_6894" x1="15.1209" y1="2.72237" x2="23.4501" y2="34.643" gradientUnits="userSpaceOnUse">
<stop stop-color="#087CFA"/>
<stop offset="0.33" stop-color="#903ACA"/>
<stop offset="0.6" stop-color="#DD1265"/>
</linearGradient>
<linearGradient id="paint2_linear_31_6894" x1="47.9205" y1="51.4879" x2="16.4034" y2="4.63305" gradientUnits="userSpaceOnUse">
<stop offset="0.125" stop-color="#FDB60D"/>
<stop offset="0.348958" stop-color="#DD1265"/>
<stop offset="0.661458" stop-color="#9338C6"/>
<stop offset="1" stop-color="#087CFA"/>
</linearGradient>
<linearGradient id="paint3_linear_31_6894" x1="14.6625" y1="27.3582" x2="25.8844" y2="39.0274" gradientUnits="userSpaceOnUse">
<stop offset="0.01" stop-color="#087CFA"/>
<stop offset="0.49" stop-color="#903ACA"/>
<stop offset="0.93" stop-color="#DD1265"/>
</linearGradient>
<linearGradient id="paint4_linear_31_6894" x1="27.7125" y1="24.5991" x2="35.6663" y2="10.5759" gradientUnits="userSpaceOnUse">
<stop offset="0.59" stop-color="#087CFA"/>
<stop offset="0.99" stop-color="#0093FF"/>
</linearGradient>
<linearGradient id="paint5_linear_31_6894" x1="21.5614" y1="5.98594" x2="27.4593" y2="17.6831" gradientUnits="userSpaceOnUse">
<stop offset="0.21" stop-color="#087CFA"/>
<stop offset="0.7" stop-color="#DD1265"/>
</linearGradient>
<linearGradient id="paint6_linear_31_6894" x1="13.8047" y1="7.58062" x2="19.1541" y2="25.8056" gradientUnits="userSpaceOnUse">
<stop stop-color="#087CFA"/>
<stop offset="0.33" stop-color="#903ACA"/>
<stop offset="0.6" stop-color="#DD1265"/>
</linearGradient>
<linearGradient id="paint7_linear_31_6894" x1="47.9711" y1="14.5107" x2="31.6584" y2="33.09" gradientUnits="userSpaceOnUse">
<stop offset="0.21" stop-color="#087CFA"/>
<stop offset="0.56" stop-color="#903ACA"/>
<stop offset="0.84" stop-color="#DD1265"/>
</linearGradient>
<linearGradient id="paint8_linear_31_6894" x1="36.2147" y1="43.0969" x2="25.9519" y2="29.3663" gradientUnits="userSpaceOnUse">
<stop offset="0.31" stop-color="#FDB60D"/>
<stop offset="1" stop-color="#DD1265"/>
</linearGradient>
<clipPath id="clip0_31_6894">
<rect width="48" height="48" fill="white"/>
</clipPath>
</defs>
</svg>
