<svg width="48" height="48" viewBox="0 0 48 48" fill="none" xmlns="http://www.w3.org/2000/svg">
<g clip-path="url(#clip0_31_6923)">
<path d="M36 0H12C5.37258 0 0 5.37258 0 12V36C0 42.6274 5.37258 48 12 48H36C42.6274 48 48 42.6274 48 36V12C48 5.37258 42.6274 0 36 0Z" fill="url(#paint0_linear_31_6923)"/>
<path d="M36 0H12C5.37258 0 0 5.37258 0 12V36C0 42.6274 5.37258 48 12 48H36C42.6274 48 48 42.6274 48 36V12C48 5.37258 42.6274 0 36 0Z" fill="url(#paint1_linear_31_6923)"/>
<g filter="url(#filter0_i_31_6923)">
<path d="M36 3H12C7.02944 3 3 7.02944 3 12V36C3 40.9706 7.02944 45 12 45H36C40.9706 45 45 40.9706 45 36V12C45 7.02944 40.9706 3 36 3Z" fill="black" fill-opacity="0.7"/>
<mask id="mask0_31_6923" style="mask-type:luminance" maskUnits="userSpaceOnUse" x="6" y="6" width="36" height="36">
<path d="M42 6H6V42H42V6Z" fill="white"/>
</mask>
<g mask="url(#mask0_31_6923)">
<g filter="url(#filter1_d_31_6923)">
<path d="M34.5738 7.54286L25.1555 10.9165L17.7327 7.54286L15.2881 13.7006H13.7075V31.8789L36.5658 32.0777L40.1146 13.9749L34.5738 7.54286Z" fill="url(#paint2_linear_31_6923)"/>
</g>
<g filter="url(#filter2_d_31_6923)">
<path d="M34.2926 19.3543L19.2515 10.44L34.2926 28.0697V19.3543Z" fill="url(#paint3_linear_31_6923)"/>
</g>
<g filter="url(#filter3_d_31_6923)">
<path d="M20.9007 39.6L33.2025 37.9613L31.2927 34.2891H34.2927V28.0697L19.2482 10.4125L7.2002 13.3714L7.21388 30.6514L14.1396 40.4573L20.863 39.6034L20.8939 39.6H20.9007Z" fill="url(#paint4_linear_31_6923)"/>
</g>
<g filter="url(#filter4_d_31_6923)">
<path d="M13.7144 13.7143H34.2858V34.2857H13.7144V13.7143Z" fill="black"/>
</g>
<path d="M16.2793 30.3977H23.9936V31.6834H16.2793V30.3977Z" fill="white"/>
<path d="M23.9009 16.2754H25.7352L27.7683 19.5463L29.8014 16.2754H31.6357V24.0069H29.9454V18.96L27.7683 22.2617H27.7237L25.5706 18.9943V24.0069H23.9009V16.2754Z" fill="white"/>
<path d="M16.2861 16.2857H19.8176C20.7958 16.2857 21.5456 16.5463 22.0667 17.0674C22.2905 17.3018 22.4645 17.5791 22.5782 17.8826C22.692 18.186 22.7431 18.5094 22.7284 18.8331V18.8571C22.7535 19.4032 22.5914 19.9415 22.269 20.3829C21.9603 20.7795 21.5454 21.0803 21.0724 21.2503L22.9616 23.9931H20.973L19.3719 21.624H17.9696V23.9966H16.2861V16.2857ZM19.7147 20.0263C20.0587 20.0415 20.3965 19.9306 20.6644 19.7143C20.776 19.6146 20.8644 19.4918 20.9236 19.3544C20.9829 19.2171 21.0114 19.0684 21.0073 18.9189V18.8983C21.0201 18.7432 20.9956 18.5873 20.936 18.4436C20.8763 18.2999 20.7832 18.1725 20.6644 18.072C20.3781 17.8718 20.0326 17.7739 19.6839 17.7943H17.9764V20.0126L19.7147 20.0263Z" fill="white"/>
</g>
</g>
</g>
<defs>
<filter id="filter0_i_31_6923" x="3" y="3" width="42" height="46" filterUnits="userSpaceOnUse" color-interpolation-filters="sRGB">
<feFlood flood-opacity="0" result="BackgroundImageFix"/>
<feBlend mode="normal" in="SourceGraphic" in2="BackgroundImageFix" result="shape"/>
<feColorMatrix in="SourceAlpha" type="matrix" values="0 0 0 0 0 0 0 0 0 0 0 0 0 0 0 0 0 0 127 0" result="hardAlpha"/>
<feOffset dy="4"/>
<feGaussianBlur stdDeviation="2"/>
<feComposite in2="hardAlpha" operator="arithmetic" k2="-1" k3="1"/>
<feColorMatrix type="matrix" values="0 0 0 0 0 0 0 0 0 0 0 0 0 0 0 0 0 0 0.25 0"/>
<feBlend mode="normal" in2="shape" result="effect1_innerShadow_31_6923"/>
</filter>
<filter id="filter1_d_31_6923" x="9.70752" y="5.54286" width="34.4072" height="32.5348" filterUnits="userSpaceOnUse" color-interpolation-filters="sRGB">
<feFlood flood-opacity="0" result="BackgroundImageFix"/>
<feColorMatrix in="SourceAlpha" type="matrix" values="0 0 0 0 0 0 0 0 0 0 0 0 0 0 0 0 0 0 127 0" result="hardAlpha"/>
<feOffset dy="2"/>
<feGaussianBlur stdDeviation="2"/>
<feComposite in2="hardAlpha" operator="out"/>
<feColorMatrix type="matrix" values="0 0 0 0 0 0 0 0 0 0 0 0 0 0 0 0 0 0 0.25 0"/>
<feBlend mode="normal" in2="BackgroundImageFix" result="effect1_dropShadow_31_6923"/>
<feBlend mode="normal" in="SourceGraphic" in2="effect1_dropShadow_31_6923" result="shape"/>
</filter>
<filter id="filter2_d_31_6923" x="15.2515" y="8.44" width="23.041" height="25.6297" filterUnits="userSpaceOnUse" color-interpolation-filters="sRGB">
<feFlood flood-opacity="0" result="BackgroundImageFix"/>
<feColorMatrix in="SourceAlpha" type="matrix" values="0 0 0 0 0 0 0 0 0 0 0 0 0 0 0 0 0 0 127 0" result="hardAlpha"/>
<feOffset dy="2"/>
<feGaussianBlur stdDeviation="2"/>
<feComposite in2="hardAlpha" operator="out"/>
<feColorMatrix type="matrix" values="0 0 0 0 0 0 0 0 0 0 0 0 0 0 0 0 0 0 0.25 0"/>
<feBlend mode="normal" in2="BackgroundImageFix" result="effect1_dropShadow_31_6923"/>
<feBlend mode="normal" in="SourceGraphic" in2="effect1_dropShadow_31_6923" result="shape"/>
</filter>
<filter id="filter3_d_31_6923" x="3.2002" y="8.41255" width="35.0928" height="38.0447" filterUnits="userSpaceOnUse" color-interpolation-filters="sRGB">
<feFlood flood-opacity="0" result="BackgroundImageFix"/>
<feColorMatrix in="SourceAlpha" type="matrix" values="0 0 0 0 0 0 0 0 0 0 0 0 0 0 0 0 0 0 127 0" result="hardAlpha"/>
<feOffset dy="2"/>
<feGaussianBlur stdDeviation="2"/>
<feComposite in2="hardAlpha" operator="out"/>
<feColorMatrix type="matrix" values="0 0 0 0 0 0 0 0 0 0 0 0 0 0 0 0 0 0 0.25 0"/>
<feBlend mode="normal" in2="BackgroundImageFix" result="effect1_dropShadow_31_6923"/>
<feBlend mode="normal" in="SourceGraphic" in2="effect1_dropShadow_31_6923" result="shape"/>
</filter>
<filter id="filter4_d_31_6923" x="9.71436" y="11.7143" width="28.5713" height="28.5714" filterUnits="userSpaceOnUse" color-interpolation-filters="sRGB">
<feFlood flood-opacity="0" result="BackgroundImageFix"/>
<feColorMatrix in="SourceAlpha" type="matrix" values="0 0 0 0 0 0 0 0 0 0 0 0 0 0 0 0 0 0 127 0" result="hardAlpha"/>
<feOffset dy="2"/>
<feGaussianBlur stdDeviation="2"/>
<feComposite in2="hardAlpha" operator="out"/>
<feColorMatrix type="matrix" values="0 0 0 0 0 0 0 0 0 0 0 0 0 0 0 0 0 0 0.25 0"/>
<feBlend mode="normal" in2="BackgroundImageFix" result="effect1_dropShadow_31_6923"/>
<feBlend mode="normal" in="SourceGraphic" in2="effect1_dropShadow_31_6923" result="shape"/>
</filter>
<linearGradient id="paint0_linear_31_6923" x1="24" y1="0" x2="24" y2="48" gradientUnits="userSpaceOnUse">
<stop stop-color="#087CFA"/>
<stop offset="0.317708" stop-color="#963597"/>
<stop offset="0.671875" stop-color="#DD1265"/>
<stop offset="1" stop-color="#ED6438"/>
</linearGradient>
<linearGradient id="paint1_linear_31_6923" x1="0.255125" y1="3.83978" x2="33.081" y2="50.1112" gradientUnits="userSpaceOnUse">
<stop stop-color="#6B57FF"/>
<stop offset="0.3" stop-color="#FE2857"/>
<stop offset="0.63" stop-color="#FE2857"/>
<stop offset="0.64" stop-color="#FE3052"/>
<stop offset="0.7" stop-color="#FD533B"/>
<stop offset="0.76" stop-color="#FC6C2A"/>
<stop offset="0.81" stop-color="#FC7B20"/>
<stop offset="0.85" stop-color="#FC801D"/>
</linearGradient>
<linearGradient id="paint2_linear_31_6923" x1="28.303" y1="26.5817" x2="24.1407" y2="15.6617" gradientUnits="userSpaceOnUse">
<stop stop-color="#FE2857"/>
<stop offset="0.06" stop-color="#FE3052"/>
<stop offset="0.33" stop-color="#FD533B"/>
<stop offset="0.58" stop-color="#FC6C2A"/>
<stop offset="0.81" stop-color="#FC7B20"/>
<stop offset="1" stop-color="#FC801D"/>
</linearGradient>
<linearGradient id="paint3_linear_31_6923" x1="20.376" y1="10.9543" x2="26.8012" y2="16.8445" gradientUnits="userSpaceOnUse">
<stop stop-color="#6B57FF"/>
<stop offset="1" stop-color="#FE2857"/>
</linearGradient>
<linearGradient id="paint4_linear_31_6923" x1="7.3442" y1="12.816" x2="28.5019" y2="39.7099" gradientUnits="userSpaceOnUse">
<stop stop-color="#6B57FF"/>
<stop offset="0.3" stop-color="#FE2857"/>
<stop offset="0.63" stop-color="#FE2857"/>
<stop offset="0.64" stop-color="#FE3052"/>
<stop offset="0.7" stop-color="#FD533B"/>
<stop offset="0.76" stop-color="#FC6C2A"/>
<stop offset="0.81" stop-color="#FC7B20"/>
<stop offset="0.85" stop-color="#FC801D"/>
</linearGradient>
<clipPath id="clip0_31_6923">
<rect width="48" height="48" fill="white"/>
</clipPath>
</defs>
</svg>
