<svg width="48" height="48" viewBox="0 0 48 48" fill="none" xmlns="http://www.w3.org/2000/svg">
<g clip-path="url(#clip0_31_7007)">
<path d="M36 0H12C5.37258 0 0 5.37258 0 12V36C0 42.6274 5.37258 48 12 48H36C42.6274 48 48 42.6274 48 36V12C48 5.37258 42.6274 0 36 0Z" fill="url(#paint0_linear_31_7007)"/>
<g filter="url(#filter0_i_31_7007)">
<path d="M36 3H12C7.02944 3 3 7.02944 3 12V36C3 40.9706 7.02944 45 12 45H36C40.9706 45 45 40.9706 45 36V12C45 7.02944 40.9706 3 36 3Z" fill="black" fill-opacity="0.7"/>
<g filter="url(#filter1_d_31_7007)">
<path d="M11.25 13.5C11.25 10.1863 13.9363 7.5 17.25 7.5H30.75C34.0637 7.5 36.75 10.1863 36.75 13.5V34.5C36.75 37.8139 34.0637 40.5 30.75 40.5H17.25C13.9363 40.5 11.25 37.8139 11.25 34.5V13.5Z" fill="#7962E7"/>
</g>
<path d="M11.25 15H36.75V34.5C36.75 37.8139 34.0637 40.5 30.75 40.5H17.25C13.9363 40.5 11.25 37.8139 11.25 34.5V15Z" fill="#FAFAFA"/>
<path d="M23.25 24H15.75C14.9216 24 14.25 24.6716 14.25 25.5C14.25 26.3284 14.9216 27 15.75 27H23.25C24.0784 27 24.75 26.3284 24.75 25.5C24.75 24.6716 24.0784 24 23.25 24Z" fill="#222222"/>
<path d="M32.25 18H15.75C14.9216 18 14.25 18.6716 14.25 19.5C14.25 20.3284 14.9216 21 15.75 21H32.25C33.0784 21 33.75 20.3284 33.75 19.5C33.75 18.6716 33.0784 18 32.25 18Z" fill="#222222"/>
</g>
</g>
<defs>
<filter id="filter0_i_31_7007" x="3" y="3" width="42" height="46" filterUnits="userSpaceOnUse" color-interpolation-filters="sRGB">
<feFlood flood-opacity="0" result="BackgroundImageFix"/>
<feBlend mode="normal" in="SourceGraphic" in2="BackgroundImageFix" result="shape"/>
<feColorMatrix in="SourceAlpha" type="matrix" values="0 0 0 0 0 0 0 0 0 0 0 0 0 0 0 0 0 0 127 0" result="hardAlpha"/>
<feOffset dy="4"/>
<feGaussianBlur stdDeviation="2"/>
<feComposite in2="hardAlpha" operator="arithmetic" k2="-1" k3="1"/>
<feColorMatrix type="matrix" values="0 0 0 0 0 0 0 0 0 0 0 0 0 0 0 0 0 0 0.25 0"/>
<feBlend mode="normal" in2="shape" result="effect1_innerShadow_31_7007"/>
</filter>
<filter id="filter1_d_31_7007" x="7.25" y="5.5" width="33.5" height="41" filterUnits="userSpaceOnUse" color-interpolation-filters="sRGB">
<feFlood flood-opacity="0" result="BackgroundImageFix"/>
<feColorMatrix in="SourceAlpha" type="matrix" values="0 0 0 0 0 0 0 0 0 0 0 0 0 0 0 0 0 0 127 0" result="hardAlpha"/>
<feOffset dy="2"/>
<feGaussianBlur stdDeviation="2"/>
<feComposite in2="hardAlpha" operator="out"/>
<feColorMatrix type="matrix" values="0 0 0 0 0 0 0 0 0 0 0 0 0 0 0 0 0 0 0.25 0"/>
<feBlend mode="normal" in2="BackgroundImageFix" result="effect1_dropShadow_31_7007"/>
<feBlend mode="normal" in="SourceGraphic" in2="effect1_dropShadow_31_7007" result="shape"/>
</filter>
<linearGradient id="paint0_linear_31_7007" x1="48" y1="0" x2="0" y2="48" gradientUnits="userSpaceOnUse">
<stop stop-color="#6653C3"/>
<stop offset="1" stop-color="#5638A5"/>
</linearGradient>
<clipPath id="clip0_31_7007">
<rect width="48" height="48" fill="white"/>
</clipPath>
</defs>
</svg>
