<svg width="48" height="48" viewBox="0 0 48 48" fill="none" xmlns="http://www.w3.org/2000/svg">
<g clip-path="url(#clip0_31_7016)">
<path d="M36 0H12C5.37258 0 0 5.37258 0 12V36C0 42.6274 5.37258 48 12 48H36C42.6274 48 48 42.6274 48 36V12C48 5.37258 42.6274 0 36 0Z" fill="url(#paint0_linear_31_7016)"/>
<path d="M36 0H12C5.37258 0 0 5.37258 0 12V36C0 42.6274 5.37258 48 12 48H36C42.6274 48 48 42.6274 48 36V12C48 5.37258 42.6274 0 36 0Z" fill="black" fill-opacity="0.9"/>
<g filter="url(#filter0_i_31_7016)">
<path d="M36 3H12C7.02944 3 3 7.02944 3 12V36C3 40.9706 7.02944 45 12 45H36C40.9706 45 45 40.9706 45 36V12C45 7.02944 40.9706 3 36 3Z" fill="black" fill-opacity="0.7"/>
<path d="M31.1152 22.9044C30.9859 22.8425 30.8547 22.7829 30.7217 22.7258C30.4902 18.4591 28.1588 16.0164 24.2441 15.9914C24.2263 15.9913 24.2087 15.9913 24.1909 15.9913C21.8494 15.9913 19.9021 16.9908 18.7034 18.8095L20.8564 20.2864C21.7518 18.9279 23.1571 18.6382 24.192 18.6382C24.2039 18.6382 24.2159 18.6383 24.2278 18.6384C25.5167 18.6466 26.4894 19.0214 27.1189 19.7522C27.577 20.2843 27.8834 21.0195 28.0352 21.9475C26.8924 21.7532 25.6564 21.6935 24.3352 21.7693C20.6132 21.9837 18.2205 24.1544 18.3812 27.1706C18.4627 28.7006 19.225 30.0169 20.5274 30.8767C21.6285 31.6036 23.0467 31.9591 24.5207 31.8786C26.4672 31.7719 27.9942 31.0292 29.0596 29.6712C29.8686 28.64 30.3803 27.3036 30.6062 25.6197C31.5339 26.1795 32.2214 26.9163 32.6011 27.8019C33.2467 29.3073 33.2844 31.7813 31.2658 33.7981C29.4972 35.565 27.3713 36.3294 24.1584 36.353C20.5944 36.3265 17.899 35.1836 16.1466 32.9558C14.5055 30.8697 13.6575 27.8566 13.6258 24C13.6575 20.1434 14.5055 17.1303 16.1466 15.0442C17.899 12.8164 20.5944 11.6735 24.1583 11.6469C27.7482 11.6736 30.4905 12.8221 32.31 15.0606C33.2022 16.1584 33.8749 17.5389 34.3183 19.1485L36.8413 18.4754C36.3038 16.4941 35.458 14.7868 34.307 13.3709C31.9744 10.501 28.5628 9.03049 24.1671 9H24.1495C19.7628 9.03038 16.3894 10.5065 14.1232 13.3874C12.1066 15.951 11.0663 19.5181 11.0314 23.9895L11.0312 24L11.0314 24.0105C11.0663 28.4819 12.1066 32.0491 14.1232 34.6126C16.3894 37.4934 19.7628 38.9696 24.1495 39H24.1671C28.0672 38.973 30.8162 37.9519 33.0809 35.6892C36.0439 32.7291 35.9547 29.0186 34.9781 26.7408C34.2775 25.1073 32.9417 23.7807 31.1152 22.9044ZM24.3814 29.2355C22.7501 29.3274 21.0554 28.5951 20.9718 27.0269C20.9099 25.8641 21.7994 24.5666 24.4814 24.412C24.7886 24.3943 25.09 24.3856 25.3861 24.3856C26.3603 24.3856 27.2717 24.4803 28.1003 24.6614C27.7913 28.5211 25.9784 29.1478 24.3814 29.2355Z" fill="white"/>
</g>
</g>
<defs>
<filter id="filter0_i_31_7016" x="3" y="3" width="42" height="46" filterUnits="userSpaceOnUse" color-interpolation-filters="sRGB">
<feFlood flood-opacity="0" result="BackgroundImageFix"/>
<feBlend mode="normal" in="SourceGraphic" in2="BackgroundImageFix" result="shape"/>
<feColorMatrix in="SourceAlpha" type="matrix" values="0 0 0 0 0 0 0 0 0 0 0 0 0 0 0 0 0 0 127 0" result="hardAlpha"/>
<feOffset dy="4"/>
<feGaussianBlur stdDeviation="2"/>
<feComposite in2="hardAlpha" operator="arithmetic" k2="-1" k3="1"/>
<feColorMatrix type="matrix" values="0 0 0 0 0 0 0 0 0 0 0 0 0 0 0 0 0 0 0.25 0"/>
<feBlend mode="normal" in2="shape" result="effect1_innerShadow_31_7016"/>
</filter>
<linearGradient id="paint0_linear_31_7016" x1="24" y1="0" x2="24" y2="48" gradientUnits="userSpaceOnUse">
<stop stop-color="white"/>
<stop offset="1" stop-color="#DFDFDF"/>
</linearGradient>
<clipPath id="clip0_31_7016">
<rect width="48" height="48" fill="white"/>
</clipPath>
</defs>
</svg>
