<svg width="48" height="48" viewBox="0 0 48 48" fill="none" xmlns="http://www.w3.org/2000/svg">
<g clip-path="url(#clip0_31_7032)">
<path d="M36 0H12C5.37258 0 0 5.37258 0 12V36C0 42.6274 5.37258 48 12 48H36C42.6274 48 48 42.6274 48 36V12C48 5.37258 42.6274 0 36 0Z" fill="#D3B9FF"/>
<path d="M36 0H12C5.37258 0 0 5.37258 0 12V36C0 42.6274 5.37258 48 12 48H36C42.6274 48 48 42.6274 48 36V12C48 5.37258 42.6274 0 36 0Z" fill="url(#paint0_linear_31_7032)"/>
<path d="M36 0H12C5.37258 0 0 5.37258 0 12V36C0 42.6274 5.37258 48 12 48H36C42.6274 48 48 42.6274 48 36V12C48 5.37258 42.6274 0 36 0Z" fill="url(#paint1_linear_31_7032)"/>
<g filter="url(#filter0_i_31_7032)">
<path d="M36 3H12C7.02944 3 3 7.02944 3 12V36C3 40.9706 7.02944 45 12 45H36C40.9706 45 45 40.9706 45 36V12C45 7.02944 40.9706 3 36 3Z" fill="black" fill-opacity="0.7"/>
<g filter="url(#filter1_d_31_7032)">
<path d="M9.9375 20.6248L17.8125 17.2498V26.8123C17.8125 30.2295 20.5827 32.9998 24 32.9998C27.4173 32.9998 30.1875 30.2295 30.1875 26.8123V11.6248L38.0625 8.24977V28.4998C38.0625 34.713 33.0257 39.7496 26.8125 39.7496H21.1875C14.9743 39.7496 9.9375 34.713 9.9375 28.4998V20.6248Z" fill="#C10080"/>
<path d="M9.9375 20.6248L17.8125 17.2498V26.8123C17.8125 30.2295 20.5827 32.9998 24 32.9998C27.4173 32.9998 30.1875 30.2295 30.1875 26.8123V11.6248L38.0625 8.24977V28.4998C38.0625 34.713 33.0257 39.7496 26.8125 39.7496H21.1875C14.9743 39.7496 9.9375 34.713 9.9375 28.4998V20.6248Z" fill="#8B00E7"/>
</g>
<g filter="url(#filter2_d_31_7032)">
<path d="M21.1875 39.7496H26.8125C33.0257 39.7496 38.0625 34.713 38.0625 28.4998V22.8748C36.9375 17.8123 35.0382 15.4845 30.1875 12.7498V26.8123C30.1875 33.3361 22.6489 38.5489 16.125 38.5489C17.6467 39.3172 19.3666 39.7496 21.1875 39.7496Z" fill="#D3B9FF"/>
<path d="M21.1875 39.7496H26.8125C33.0257 39.7496 38.0625 34.713 38.0625 28.4998V22.8748C36.9375 17.8123 35.0382 15.4845 30.1875 12.7498V26.8123C30.1875 33.3361 22.6489 38.5489 16.125 38.5489C17.6467 39.3172 19.3666 39.7496 21.1875 39.7496Z" fill="#D404FF"/>
</g>
</g>
</g>
<defs>
<filter id="filter0_i_31_7032" x="3" y="3" width="42" height="44" filterUnits="userSpaceOnUse" color-interpolation-filters="sRGB">
<feFlood flood-opacity="0" result="BackgroundImageFix"/>
<feBlend mode="normal" in="SourceGraphic" in2="BackgroundImageFix" result="shape"/>
<feColorMatrix in="SourceAlpha" type="matrix" values="0 0 0 0 0 0 0 0 0 0 0 0 0 0 0 0 0 0 127 0" result="hardAlpha"/>
<feOffset dy="2"/>
<feGaussianBlur stdDeviation="2"/>
<feComposite in2="hardAlpha" operator="arithmetic" k2="-1" k3="1"/>
<feColorMatrix type="matrix" values="0 0 0 0 0 0 0 0 0 0 0 0 0 0 0 0 0 0 0.25 0"/>
<feBlend mode="normal" in2="shape" result="effect1_innerShadow_31_7032"/>
</filter>
<filter id="filter1_d_31_7032" x="5.9375" y="6.24977" width="36.125" height="39.4998" filterUnits="userSpaceOnUse" color-interpolation-filters="sRGB">
<feFlood flood-opacity="0" result="BackgroundImageFix"/>
<feColorMatrix in="SourceAlpha" type="matrix" values="0 0 0 0 0 0 0 0 0 0 0 0 0 0 0 0 0 0 127 0" result="hardAlpha"/>
<feOffset dy="2"/>
<feGaussianBlur stdDeviation="2"/>
<feComposite in2="hardAlpha" operator="out"/>
<feColorMatrix type="matrix" values="0 0 0 0 0 0 0 0 0 0 0 0 0 0 0 0 0 0 0.25 0"/>
<feBlend mode="normal" in2="BackgroundImageFix" result="effect1_dropShadow_31_7032"/>
<feBlend mode="normal" in="SourceGraphic" in2="effect1_dropShadow_31_7032" result="shape"/>
</filter>
<filter id="filter2_d_31_7032" x="12.125" y="10.7498" width="29.9375" height="34.9998" filterUnits="userSpaceOnUse" color-interpolation-filters="sRGB">
<feFlood flood-opacity="0" result="BackgroundImageFix"/>
<feColorMatrix in="SourceAlpha" type="matrix" values="0 0 0 0 0 0 0 0 0 0 0 0 0 0 0 0 0 0 127 0" result="hardAlpha"/>
<feOffset dy="2"/>
<feGaussianBlur stdDeviation="2"/>
<feComposite in2="hardAlpha" operator="out"/>
<feColorMatrix type="matrix" values="0 0 0 0 0 0 0 0 0 0 0 0 0 0 0 0 0 0 0.25 0"/>
<feBlend mode="normal" in2="BackgroundImageFix" result="effect1_dropShadow_31_7032"/>
<feBlend mode="normal" in="SourceGraphic" in2="effect1_dropShadow_31_7032" result="shape"/>
</filter>
<linearGradient id="paint0_linear_31_7032" x1="24" y1="0" x2="24" y2="48" gradientUnits="userSpaceOnUse">
<stop stop-color="#CB02C5"/>
<stop offset="0.244792" stop-color="#C101DA"/>
<stop offset="0.510417" stop-color="#B600F0"/>
<stop offset="0.744792" stop-color="#8900D9"/>
<stop offset="1" stop-color="#5800BF"/>
</linearGradient>
<linearGradient id="paint1_linear_31_7032" x1="24" y1="0" x2="24" y2="48" gradientUnits="userSpaceOnUse">
<stop offset="0.125" stop-color="#CB02C5"/>
<stop offset="0.333333" stop-color="#C101DA"/>
<stop offset="0.635417" stop-color="#B600F0"/>
<stop offset="0.864583" stop-color="#8900D9"/>
</linearGradient>
<clipPath id="clip0_31_7032">
<rect width="48" height="48" fill="white"/>
</clipPath>
</defs>
</svg>
