<svg width="48" height="48" viewBox="0 0 48 48" fill="none" xmlns="http://www.w3.org/2000/svg">
<g clip-path="url(#clip0_31_7044)">
<path d="M36 0H12C5.37258 0 0 5.37258 0 12V36C0 42.6274 5.37258 48 12 48H36C42.6274 48 48 42.6274 48 36V12C48 5.37258 42.6274 0 36 0Z" fill="url(#paint0_linear_31_7044)"/>
<path d="M36 0H12C5.37258 0 0 5.37258 0 12V36C0 42.6274 5.37258 48 12 48H36C42.6274 48 48 42.6274 48 36V12C48 5.37258 42.6274 0 36 0Z" fill="url(#paint1_linear_31_7044)"/>
<g filter="url(#filter0_i_31_7044)">
<path d="M36 3H12C7.02944 3 3 7.02944 3 12V36C3 40.9706 7.02944 45 12 45H36C40.9706 45 45 40.9706 45 36V12C45 7.02944 40.9706 3 36 3Z" fill="black" fill-opacity="0.7"/>
<mask id="mask0_31_7044" style="mask-type:luminance" maskUnits="userSpaceOnUse" x="6" y="6" width="36" height="36">
<path d="M42 6H6V42H42V6Z" fill="white"/>
</mask>
<g mask="url(#mask0_31_7044)">
<g filter="url(#filter1_d_31_7044)">
<path d="M35.304 18.9909L13.2548 21.3566C11.9438 21.4964 10.6284 21.1352 9.57271 20.3453C8.51701 19.5555 7.79922 18.3955 7.56339 17.0983C7.43941 16.4132 7.45377 15.7103 7.60561 15.0308C7.75749 14.3514 8.04376 13.7091 8.4476 13.142C8.85144 12.575 9.3647 12.0944 9.95712 11.7287C10.5495 11.363 11.2091 11.1195 11.8971 11.0126L33.8125 7.608C34.6604 7.47619 35.527 7.53615 36.3486 7.78346C37.1702 8.03081 37.9259 8.45921 38.5601 9.03716C39.1942 9.61511 39.6911 10.3279 40.0132 11.1231C40.3357 11.9183 40.4756 12.7756 40.4227 13.632C40.3413 14.9864 39.7822 16.268 38.8451 17.2491C37.9079 18.2302 36.6531 18.8474 35.304 18.9909Z" fill="url(#paint2_linear_31_7044)"/>
</g>
<g filter="url(#filter2_d_31_7044)">
<path d="M27.1542 38.1739L9.00677 19.8377C8.49092 19.3163 8.0906 18.6921 7.83189 18.0058C7.57318 17.3194 7.46188 16.5863 7.50523 15.8541C7.54858 15.1219 7.74557 14.407 8.08344 13.756C8.42128 13.105 8.89243 12.5324 9.46618 12.0754C10.3358 11.3843 11.4032 10.9887 12.5132 10.9461C13.6231 10.9036 14.7177 11.2163 15.6376 11.8389L37.001 26.3211C37.9919 26.9937 38.8136 27.887 39.4012 28.9308C39.9884 29.9745 40.3259 31.1403 40.3867 32.3364C40.4474 33.5326 40.2299 34.7265 39.7514 35.8245C39.2729 36.9224 38.5462 37.8945 37.6286 38.664C36.1394 39.9113 34.2359 40.5529 32.2957 40.4621C30.3555 40.3714 28.5203 39.5546 27.1542 38.1739Z" fill="url(#paint3_linear_31_7044)"/>
</g>
<g filter="url(#filter3_d_31_7044)">
<path d="M31.255 8.66741L10.0528 24.5143C9.60504 24.8483 9.23132 25.2713 8.95498 25.7567C8.67868 26.2421 8.50577 26.7795 8.44716 27.335C8.38854 27.8904 8.44551 28.452 8.61444 28.9844C8.78338 29.5168 9.06062 30.0085 9.42876 30.4285C10.0421 31.1262 10.8768 31.5915 11.7927 31.7463C12.7086 31.9011 13.6499 31.7361 14.4585 31.2789L37.5054 18.2503C38.2494 17.8303 38.8903 17.2494 39.3811 16.5501C39.872 15.8507 40.2001 15.0505 40.3423 14.208C40.484 13.3655 40.436 12.5019 40.2016 11.6803C39.9669 10.8588 39.5518 10.1 38.9866 9.45941C38.0323 8.38117 36.7076 7.70119 35.2753 7.55445C33.8431 7.40775 32.408 7.80502 31.255 8.66741Z" fill="url(#paint4_linear_31_7044)"/>
</g>
<g filter="url(#filter4_d_31_7044)">
<path d="M29.4854 39.7954L10.7997 31.4023C10.2456 31.1554 9.75448 30.7864 9.36317 30.3229C8.97186 29.8593 8.69049 29.3133 8.54008 28.7256C8.38971 28.1379 8.37422 27.5238 8.49478 26.9293C8.61534 26.3348 8.86884 25.7753 9.23627 25.2926C9.63609 24.7707 10.1576 24.3548 10.7553 24.0811C11.353 23.8073 12.0086 23.6841 12.6649 23.7223L33.1231 24.9806C34.3411 25.0549 35.5242 25.4157 36.5764 26.0336C37.6284 26.6515 38.5201 27.509 39.1783 28.5364C39.8364 29.5638 40.2429 30.7321 40.3644 31.9462C40.4859 33.1603 40.319 34.386 39.8773 35.5234C39.4963 36.5025 38.9206 37.3941 38.1849 38.1439C37.4489 38.8939 36.5684 39.4864 35.5967 39.8861C34.625 40.2855 33.5823 40.4835 32.5318 40.4678C31.4813 40.4524 30.4449 40.2236 29.4854 39.7954Z" fill="url(#paint5_linear_31_7044)"/>
</g>
<g filter="url(#filter5_d_31_7044)">
<path d="M13.7144 13.7143H34.2858V34.2857H13.7144V13.7143Z" fill="black"/>
</g>
<path d="M16.2788 30.3977H23.9931V31.6834H16.2788V30.3977Z" fill="white"/>
<path d="M16.2856 20.6846V16.2549H18V20.64C18 21.9017 18.6308 22.5531 19.6731 22.5531C20.7154 22.5531 21.3428 21.9223 21.3428 20.6949V16.2549H23.0571V20.6263C23.0571 22.9749 21.7405 24.1269 19.6594 24.1269C17.5782 24.1269 16.2856 22.9646 16.2856 20.6846Z" fill="white"/>
<path d="M24.6031 16.2549H27.7711C29.6191 16.2549 30.7368 17.352 30.7368 18.936V18.9566C30.7368 20.7497 29.3414 21.6789 27.6031 21.6789H26.3071V24.0035H24.5928L24.6031 16.2549ZM27.658 20.1635C28.5116 20.1635 29.0088 19.6526 29.0088 18.9909V18.9669C29.0088 18.2057 28.4774 17.7943 27.6374 17.7943H26.3071V20.1635H27.658Z" fill="white"/>
</g>
</g>
</g>
<defs>
<filter id="filter0_i_31_7044" x="3" y="3" width="42" height="46" filterUnits="userSpaceOnUse" color-interpolation-filters="sRGB">
<feFlood flood-opacity="0" result="BackgroundImageFix"/>
<feBlend mode="normal" in="SourceGraphic" in2="BackgroundImageFix" result="shape"/>
<feColorMatrix in="SourceAlpha" type="matrix" values="0 0 0 0 0 0 0 0 0 0 0 0 0 0 0 0 0 0 127 0" result="hardAlpha"/>
<feOffset dy="4"/>
<feGaussianBlur stdDeviation="2"/>
<feComposite in2="hardAlpha" operator="arithmetic" k2="-1" k3="1"/>
<feColorMatrix type="matrix" values="0 0 0 0 0 0 0 0 0 0 0 0 0 0 0 0 0 0 0.25 0"/>
<feBlend mode="normal" in2="shape" result="effect1_innerShadow_31_7044"/>
</filter>
<filter id="filter1_d_31_7044" x="3.47998" y="5.53987" width="40.9536" height="21.8462" filterUnits="userSpaceOnUse" color-interpolation-filters="sRGB">
<feFlood flood-opacity="0" result="BackgroundImageFix"/>
<feColorMatrix in="SourceAlpha" type="matrix" values="0 0 0 0 0 0 0 0 0 0 0 0 0 0 0 0 0 0 127 0" result="hardAlpha"/>
<feOffset dy="2"/>
<feGaussianBlur stdDeviation="2"/>
<feComposite in2="hardAlpha" operator="out"/>
<feColorMatrix type="matrix" values="0 0 0 0 0 0 0 0 0 0 0 0 0 0 0 0 0 0 0.25 0"/>
<feBlend mode="normal" in2="BackgroundImageFix" result="effect1_dropShadow_31_7044"/>
<feBlend mode="normal" in="SourceGraphic" in2="effect1_dropShadow_31_7044" result="shape"/>
</filter>
<filter id="filter2_d_31_7044" x="3.49609" y="8.94231" width="40.9004" height="37.5283" filterUnits="userSpaceOnUse" color-interpolation-filters="sRGB">
<feFlood flood-opacity="0" result="BackgroundImageFix"/>
<feColorMatrix in="SourceAlpha" type="matrix" values="0 0 0 0 0 0 0 0 0 0 0 0 0 0 0 0 0 0 127 0" result="hardAlpha"/>
<feOffset dy="2"/>
<feGaussianBlur stdDeviation="2"/>
<feComposite in2="hardAlpha" operator="out"/>
<feColorMatrix type="matrix" values="0 0 0 0 0 0 0 0 0 0 0 0 0 0 0 0 0 0 0.25 0"/>
<feBlend mode="normal" in2="BackgroundImageFix" result="effect1_dropShadow_31_7044"/>
<feBlend mode="normal" in="SourceGraphic" in2="effect1_dropShadow_31_7044" result="shape"/>
</filter>
<filter id="filter3_d_31_7044" x="4.4248" y="5.52458" width="39.9971" height="32.2783" filterUnits="userSpaceOnUse" color-interpolation-filters="sRGB">
<feFlood flood-opacity="0" result="BackgroundImageFix"/>
<feColorMatrix in="SourceAlpha" type="matrix" values="0 0 0 0 0 0 0 0 0 0 0 0 0 0 0 0 0 0 127 0" result="hardAlpha"/>
<feOffset dy="2"/>
<feGaussianBlur stdDeviation="2"/>
<feComposite in2="hardAlpha" operator="out"/>
<feColorMatrix type="matrix" values="0 0 0 0 0 0 0 0 0 0 0 0 0 0 0 0 0 0 0.25 0"/>
<feBlend mode="normal" in2="BackgroundImageFix" result="effect1_dropShadow_31_7044"/>
<feBlend mode="normal" in="SourceGraphic" in2="effect1_dropShadow_31_7044" result="shape"/>
</filter>
<filter id="filter4_d_31_7044" x="4.41455" y="21.7155" width="39.9883" height="24.7531" filterUnits="userSpaceOnUse" color-interpolation-filters="sRGB">
<feFlood flood-opacity="0" result="BackgroundImageFix"/>
<feColorMatrix in="SourceAlpha" type="matrix" values="0 0 0 0 0 0 0 0 0 0 0 0 0 0 0 0 0 0 127 0" result="hardAlpha"/>
<feOffset dy="2"/>
<feGaussianBlur stdDeviation="2"/>
<feComposite in2="hardAlpha" operator="out"/>
<feColorMatrix type="matrix" values="0 0 0 0 0 0 0 0 0 0 0 0 0 0 0 0 0 0 0.25 0"/>
<feBlend mode="normal" in2="BackgroundImageFix" result="effect1_dropShadow_31_7044"/>
<feBlend mode="normal" in="SourceGraphic" in2="effect1_dropShadow_31_7044" result="shape"/>
</filter>
<filter id="filter5_d_31_7044" x="9.71436" y="11.7143" width="28.5713" height="28.5714" filterUnits="userSpaceOnUse" color-interpolation-filters="sRGB">
<feFlood flood-opacity="0" result="BackgroundImageFix"/>
<feColorMatrix in="SourceAlpha" type="matrix" values="0 0 0 0 0 0 0 0 0 0 0 0 0 0 0 0 0 0 127 0" result="hardAlpha"/>
<feOffset dy="2"/>
<feGaussianBlur stdDeviation="2"/>
<feComposite in2="hardAlpha" operator="out"/>
<feColorMatrix type="matrix" values="0 0 0 0 0 0 0 0 0 0 0 0 0 0 0 0 0 0 0.25 0"/>
<feBlend mode="normal" in2="BackgroundImageFix" result="effect1_dropShadow_31_7044"/>
<feBlend mode="normal" in="SourceGraphic" in2="effect1_dropShadow_31_7044" result="shape"/>
</filter>
<linearGradient id="paint0_linear_31_7044" x1="24" y1="0" x2="24" y2="48" gradientUnits="userSpaceOnUse">
<stop stop-color="#3BEA62"/>
<stop offset="0.5" stop-color="#009AE5"/>
<stop offset="1" stop-color="#6B57FF"/>
</linearGradient>
<linearGradient id="paint1_linear_31_7044" x1="40.3279" y1="10.5632" x2="-0.852777" y2="30.4971" gradientUnits="userSpaceOnUse">
<stop stop-color="#FC801D"/>
<stop offset="0.661458" stop-color="#6B57FF"/>
<stop offset="1" stop-color="#08C1F2"/>
</linearGradient>
<linearGradient id="paint2_linear_31_7044" x1="39.2332" y1="12.6789" x2="16.0182" y2="15.7714" gradientUnits="userSpaceOnUse">
<stop stop-color="#FC801D"/>
<stop offset="1" stop-color="#6B57FF"/>
</linearGradient>
<linearGradient id="paint3_linear_31_7044" x1="23.8045" y1="25.1931" x2="25.7862" y2="16.8137" gradientUnits="userSpaceOnUse">
<stop stop-color="#07C3F2"/>
<stop offset="1" stop-color="#6B57FF"/>
</linearGradient>
<linearGradient id="paint4_linear_31_7044" x1="35.3076" y1="12.8674" x2="11.2253" y2="28.2309" gradientUnits="userSpaceOnUse">
<stop stop-color="#FC801D"/>
<stop offset="0.92" stop-color="#6B57FF"/>
</linearGradient>
<linearGradient id="paint5_linear_31_7044" x1="38.177" y1="34.7109" x2="12.4729" y2="25.4229" gradientUnits="userSpaceOnUse">
<stop stop-color="#07C3F2"/>
<stop offset="1" stop-color="#6B57FF"/>
</linearGradient>
<clipPath id="clip0_31_7044">
<rect width="48" height="48" fill="white"/>
</clipPath>
</defs>
</svg>
