<svg width="48" height="48" viewBox="0 0 48 48" fill="none" xmlns="http://www.w3.org/2000/svg">
<g clip-path="url(#clip0_31_7087)">
<path d="M36 0H12C5.37258 0 0 5.37258 0 12V36C0 42.6274 5.37258 48 12 48H36C42.6274 48 48 42.6274 48 36V12C48 5.37258 42.6274 0 36 0Z" fill="url(#paint0_linear_31_7087)"/>
<g filter="url(#filter0_i_31_7087)">
<path d="M36 3H12C7.02944 3 3 7.02944 3 12V36C3 40.9706 7.02944 45 12 45H36C40.9706 45 45 40.9706 45 36V12C45 7.02944 40.9706 3 36 3Z" fill="black" fill-opacity="0.7"/>
<g filter="url(#filter1_d_31_7087)">
<path d="M38.9999 14.3325V33.6675C38.9999 34.62 38.4074 35.4675 37.5149 35.7825L30.8999 38.8875L31.4999 30.75V17.25L30.8999 9.1125L37.5149 12.2175C38.4074 12.5325 38.9999 13.38 38.9999 14.3325Z" fill="#29B6F6"/>
</g>
<g filter="url(#filter2_d_31_7087)">
<path d="M12.7501 31.422L31.5001 17.25V10.0147C31.5001 9.11621 30.3886 8.69621 29.7938 9.36971L9.49356 27.9292C8.81856 28.5517 8.85681 29.6295 9.57381 30.2032C9.57381 30.2032 10.5668 31.1272 10.9261 31.3837C11.4781 31.7775 12.2033 31.8225 12.7501 31.422Z" fill="#0277BD"/>
</g>
<g filter="url(#filter3_d_31_7087)">
<path d="M12.7501 16.578L31.5001 30.75V37.9852C31.5001 38.8837 30.3886 39.3037 29.7938 38.6302L9.49356 20.0707C8.81856 19.4482 8.85681 18.3705 9.57381 17.7967C9.57381 17.7967 10.5668 16.8727 10.9261 16.6162C11.4781 16.2225 12.2033 16.1775 12.7501 16.578Z" fill="#0288D1"/>
</g>
</g>
</g>
<defs>
<filter id="filter0_i_31_7087" x="3" y="3" width="42" height="46" filterUnits="userSpaceOnUse" color-interpolation-filters="sRGB">
<feFlood flood-opacity="0" result="BackgroundImageFix"/>
<feBlend mode="normal" in="SourceGraphic" in2="BackgroundImageFix" result="shape"/>
<feColorMatrix in="SourceAlpha" type="matrix" values="0 0 0 0 0 0 0 0 0 0 0 0 0 0 0 0 0 0 127 0" result="hardAlpha"/>
<feOffset dy="4"/>
<feGaussianBlur stdDeviation="2"/>
<feComposite in2="hardAlpha" operator="arithmetic" k2="-1" k3="1"/>
<feColorMatrix type="matrix" values="0 0 0 0 0 0 0 0 0 0 0 0 0 0 0 0 0 0 0.25 0"/>
<feBlend mode="normal" in2="shape" result="effect1_innerShadow_31_7087"/>
</filter>
<filter id="filter1_d_31_7087" x="26.8999" y="7.1125" width="16.1001" height="37.775" filterUnits="userSpaceOnUse" color-interpolation-filters="sRGB">
<feFlood flood-opacity="0" result="BackgroundImageFix"/>
<feColorMatrix in="SourceAlpha" type="matrix" values="0 0 0 0 0 0 0 0 0 0 0 0 0 0 0 0 0 0 127 0" result="hardAlpha"/>
<feOffset dy="2"/>
<feGaussianBlur stdDeviation="2"/>
<feComposite in2="hardAlpha" operator="out"/>
<feColorMatrix type="matrix" values="0 0 0 0 0 0 0 0 0 0 0 0 0 0 0 0 0 0 0.25 0"/>
<feBlend mode="normal" in2="BackgroundImageFix" result="effect1_dropShadow_31_7087"/>
<feBlend mode="normal" in="SourceGraphic" in2="effect1_dropShadow_31_7087" result="shape"/>
</filter>
<filter id="filter2_d_31_7087" x="5.01074" y="7.0378" width="30.4893" height="30.6637" filterUnits="userSpaceOnUse" color-interpolation-filters="sRGB">
<feFlood flood-opacity="0" result="BackgroundImageFix"/>
<feColorMatrix in="SourceAlpha" type="matrix" values="0 0 0 0 0 0 0 0 0 0 0 0 0 0 0 0 0 0 127 0" result="hardAlpha"/>
<feOffset dy="2"/>
<feGaussianBlur stdDeviation="2"/>
<feComposite in2="hardAlpha" operator="out"/>
<feColorMatrix type="matrix" values="0 0 0 0 0 0 0 0 0 0 0 0 0 0 0 0 0 0 0.25 0"/>
<feBlend mode="normal" in2="BackgroundImageFix" result="effect1_dropShadow_31_7087"/>
<feBlend mode="normal" in="SourceGraphic" in2="effect1_dropShadow_31_7087" result="shape"/>
</filter>
<filter id="filter3_d_31_7087" x="5.01074" y="14.2985" width="30.4893" height="30.6637" filterUnits="userSpaceOnUse" color-interpolation-filters="sRGB">
<feFlood flood-opacity="0" result="BackgroundImageFix"/>
<feColorMatrix in="SourceAlpha" type="matrix" values="0 0 0 0 0 0 0 0 0 0 0 0 0 0 0 0 0 0 127 0" result="hardAlpha"/>
<feOffset dy="2"/>
<feGaussianBlur stdDeviation="2"/>
<feComposite in2="hardAlpha" operator="out"/>
<feColorMatrix type="matrix" values="0 0 0 0 0 0 0 0 0 0 0 0 0 0 0 0 0 0 0.25 0"/>
<feBlend mode="normal" in2="BackgroundImageFix" result="effect1_dropShadow_31_7087"/>
<feBlend mode="normal" in="SourceGraphic" in2="effect1_dropShadow_31_7087" result="shape"/>
</filter>
<linearGradient id="paint0_linear_31_7087" x1="24" y1="0" x2="24" y2="48" gradientUnits="userSpaceOnUse">
<stop stop-color="#29B6F6"/>
<stop offset="0.510417" stop-color="#0288D1"/>
<stop offset="1" stop-color="#0277BD"/>
</linearGradient>
<clipPath id="clip0_31_7087">
<rect width="48" height="48" fill="white"/>
</clipPath>
</defs>
</svg>
