<svg width="48" height="48" viewBox="0 0 48 48" fill="none" xmlns="http://www.w3.org/2000/svg">
<g clip-path="url(#clip0_31_7097)">
<path d="M36 0H12C5.37258 0 0 5.37258 0 12V36C0 42.6274 5.37258 48 12 48H36C42.6274 48 48 42.6274 48 36V12C48 5.37258 42.6274 0 36 0Z" fill="url(#paint0_linear_31_7097)"/>
<g filter="url(#filter0_i_31_7097)">
<path d="M36 3H12C7.02944 3 3 7.02944 3 12V36C3 40.9706 7.02944 45 12 45H36C40.9706 45 45 40.9706 45 36V12C45 7.02944 40.9706 3 36 3Z" fill="black" fill-opacity="0.7"/>
<g filter="url(#filter1_d_31_7097)">
<path d="M24.1483 9.40399C23.9101 9.44677 23.6826 9.53602 23.479 9.66656C22.6229 10.2164 22.3759 11.3548 22.9275 12.2087C25.9603 16.908 26.676 20.4525 26.3656 23.5587C25.1105 29.5073 22.3819 30.7139 19.9975 30.7139C17.6694 30.7139 18.2929 26.8804 20.0427 25.7584C21.0873 25.1056 22.4254 24.6814 23.4524 24.6814C24.4698 24.6815 25.2948 23.8586 25.295 22.8433C25.2948 21.828 24.4698 21.0051 23.4524 21.0052C22.253 21.0052 21.0762 21.2572 19.9781 21.6864C20.2023 20.6272 20.2853 19.4824 19.9952 18.2652C19.5548 16.4175 18.2869 14.6522 16.0854 12.9412C15.7 12.6412 15.2109 12.5064 14.7258 12.5664C14.2408 12.6264 13.7996 12.8763 13.4993 13.2609C12.8745 14.0625 13.0192 15.2177 13.8225 15.8411C15.6159 17.235 16.2082 18.2665 16.4106 19.1158C16.613 19.965 16.4504 20.876 16.0436 22.1278C15.5235 23.8149 14.92 25.3207 14.6554 26.7649C14.5252 27.4757 14.5142 28.2495 14.4805 28.8675C13.1891 27.608 12.6834 25.9449 12.6834 23.515C12.6832 22.4997 11.8582 21.6768 10.8408 21.6769C9.82406 21.6778 9.00026 22.5004 9 23.515C9 26.8338 9.97005 29.9916 12.5694 32.0984C14.9226 34.3417 20.9066 33.5126 20.9066 37.1137C20.9066 38.1304 22.3936 38.625 23.4109 38.625C24.4543 38.625 25.7674 37.9271 25.7674 37.1137C25.7674 33.0276 30.0709 30.5444 37.1554 30.5553C38.1728 30.5565 38.9985 29.7344 39 28.7191C39.0019 27.7038 38.1787 26.8791 37.1611 26.8772C36.6767 26.8765 36.2044 26.8933 35.7387 26.9209C36.5308 25.0569 36.8821 23.0048 36.8093 20.7883C36.7759 19.7736 35.9246 18.9779 34.9077 19.0111C33.8899 19.044 33.0924 19.8945 33.1259 20.9101C33.2217 23.8122 33.1131 26.4036 30.9523 27.7696C30.3379 28.158 29.6235 28.4946 28.9461 28.4946C29.472 27.0633 29.8692 25.5525 30.0319 23.9241C30.1357 22.8849 30.1467 21.6502 30.0281 20.6913C29.8443 19.2051 29.6223 17.52 30.186 16.2505C30.6924 15.1573 31.8272 14.6994 33.4929 14.6994C34.5096 14.6985 35.3334 13.8759 35.3337 12.8613C35.3343 11.846 34.5103 11.0223 33.4929 11.0214C31.0173 11.0214 29.1408 12.3251 28.0771 13.9002C27.5208 12.7113 26.8435 11.4864 26.0252 10.2184C25.7608 9.80876 25.3443 9.52065 24.8672 9.4173C24.6307 9.36581 24.3865 9.36127 24.1483 9.40399Z" fill="#808080"/>
<path d="M24.1483 9.40399C23.9101 9.44677 23.6826 9.53602 23.479 9.66656C22.6229 10.2164 22.3759 11.3548 22.9275 12.2087C25.9603 16.908 26.676 20.4525 26.3656 23.5587C25.1105 29.5073 22.3819 30.7139 19.9975 30.7139C17.6694 30.7139 18.2929 26.8804 20.0427 25.7584C21.0873 25.1056 22.4254 24.6814 23.4524 24.6814C24.4698 24.6815 25.2948 23.8586 25.295 22.8433C25.2948 21.828 24.4698 21.0051 23.4524 21.0052C22.253 21.0052 21.0762 21.2572 19.9781 21.6864C20.2023 20.6272 20.2853 19.4824 19.9952 18.2652C19.5548 16.4175 18.2869 14.6522 16.0854 12.9412C15.7 12.6412 15.2109 12.5064 14.7258 12.5664C14.2408 12.6264 13.7996 12.8763 13.4993 13.2609C12.8745 14.0625 13.0192 15.2177 13.8225 15.8411C15.6159 17.235 16.2082 18.2665 16.4106 19.1158C16.613 19.965 16.4504 20.876 16.0436 22.1278C15.5235 23.8149 14.92 25.3207 14.6554 26.7649C14.5252 27.4757 14.5142 28.2495 14.4805 28.8675C13.1891 27.608 12.6834 25.9449 12.6834 23.515C12.6832 22.4997 11.8582 21.6768 10.8408 21.6769C9.82406 21.6778 9.00026 22.5004 9 23.515C9 26.8338 9.97005 29.9916 12.5694 32.0984C14.9226 34.3417 20.9066 33.5126 20.9066 37.1137C20.9066 38.1304 22.3936 38.625 23.4109 38.625C24.4543 38.625 25.7674 37.9271 25.7674 37.1137C25.7674 33.0276 30.0709 30.5444 37.1554 30.5553C38.1728 30.5565 38.9985 29.7344 39 28.7191C39.0019 27.7038 38.1787 26.8791 37.1611 26.8772C36.6767 26.8765 36.2044 26.8933 35.7387 26.9209C36.5308 25.0569 36.8821 23.0048 36.8093 20.7883C36.7759 19.7736 35.9246 18.9779 34.9077 19.0111C33.8899 19.044 33.0924 19.8945 33.1259 20.9101C33.2217 23.8122 33.1131 26.4036 30.9523 27.7696C30.3379 28.158 29.6235 28.4946 28.9461 28.4946C29.472 27.0633 29.8692 25.5525 30.0319 23.9241C30.1357 22.8849 30.1467 21.6502 30.0281 20.6913C29.8443 19.2051 29.6223 17.52 30.186 16.2505C30.6924 15.1573 31.8272 14.6994 33.4929 14.6994C34.5096 14.6985 35.3334 13.8759 35.3337 12.8613C35.3343 11.846 34.5103 11.0223 33.4929 11.0214C31.0173 11.0214 29.1408 12.3251 28.0771 13.9002C27.5208 12.7113 26.8435 11.4864 26.0252 10.2184C25.7608 9.80876 25.3443 9.52065 24.8672 9.4173C24.6307 9.36581 24.3865 9.36127 24.1483 9.40399Z" fill="url(#paint1_linear_31_7097)"/>
</g>
</g>
</g>
<defs>
<filter id="filter0_i_31_7097" x="3" y="3" width="42" height="46" filterUnits="userSpaceOnUse" color-interpolation-filters="sRGB">
<feFlood flood-opacity="0" result="BackgroundImageFix"/>
<feBlend mode="normal" in="SourceGraphic" in2="BackgroundImageFix" result="shape"/>
<feColorMatrix in="SourceAlpha" type="matrix" values="0 0 0 0 0 0 0 0 0 0 0 0 0 0 0 0 0 0 127 0" result="hardAlpha"/>
<feOffset dy="4"/>
<feGaussianBlur stdDeviation="2"/>
<feComposite in2="hardAlpha" operator="arithmetic" k2="-1" k3="1"/>
<feColorMatrix type="matrix" values="0 0 0 0 0 0 0 0 0 0 0 0 0 0 0 0 0 0 0.25 0"/>
<feBlend mode="normal" in2="shape" result="effect1_innerShadow_31_7097"/>
</filter>
<filter id="filter1_d_31_7097" x="5" y="7.375" width="38" height="37.25" filterUnits="userSpaceOnUse" color-interpolation-filters="sRGB">
<feFlood flood-opacity="0" result="BackgroundImageFix"/>
<feColorMatrix in="SourceAlpha" type="matrix" values="0 0 0 0 0 0 0 0 0 0 0 0 0 0 0 0 0 0 127 0" result="hardAlpha"/>
<feOffset dy="2"/>
<feGaussianBlur stdDeviation="2"/>
<feComposite in2="hardAlpha" operator="out"/>
<feColorMatrix type="matrix" values="0 0 0 0 0 0 0 0 0 0 0 0 0 0 0 0 0 0 0.25 0"/>
<feBlend mode="normal" in2="BackgroundImageFix" result="effect1_dropShadow_31_7097"/>
<feBlend mode="normal" in="SourceGraphic" in2="effect1_dropShadow_31_7097" result="shape"/>
</filter>
<linearGradient id="paint0_linear_31_7097" x1="4.94205e-05" y1="24" x2="48" y2="24" gradientUnits="userSpaceOnUse">
<stop stop-color="#0066FF"/>
<stop offset="1" stop-color="#00CCFF"/>
</linearGradient>
<linearGradient id="paint1_linear_31_7097" x1="9.00004" y1="24" x2="39" y2="24" gradientUnits="userSpaceOnUse">
<stop stop-color="#0066FF"/>
<stop offset="1" stop-color="#00CCFF"/>
</linearGradient>
<clipPath id="clip0_31_7097">
<rect width="48" height="48" fill="white"/>
</clipPath>
</defs>
</svg>
