<svg width="48" height="48" viewBox="0 0 48 48" fill="none" xmlns="http://www.w3.org/2000/svg">
<g clip-path="url(#clip0_31_7115)">
<path d="M36 0H12C5.37258 0 0 5.37258 0 12V36C0 42.6274 5.37258 48 12 48H36C42.6274 48 48 42.6274 48 36V12C48 5.37258 42.6274 0 36 0Z" fill="url(#paint0_linear_31_7115)"/>
<g filter="url(#filter0_i_31_7115)">
<path d="M36 3H12C7.02944 3 3 7.02944 3 12V36C3 40.9706 7.02944 45 12 45H36C40.9706 45 45 40.9706 45 36V12C45 7.02944 40.9706 3 36 3Z" fill="black" fill-opacity="0.7"/>
<path d="M32.9062 31.1953C32.5625 31.0859 32.25 30.8906 32.0313 30.664C31.7187 30.3281 29.8594 26.9531 29.8594 26.7109C29.8594 26.5781 29.8906 26.5156 29.9609 26.5468C30.0312 26.5703 30.25 26.1562 30.6406 25.25C31.2969 23.7578 31.3125 23.7422 31.8594 24.1562C33.3516 25.2969 34.6797 25.8828 36.0703 26C36.6562 26.0546 36.8125 26.125 36.8125 26.3437C36.8125 26.4218 37.0601 26.0709 37.0913 26.0865C37.1304 26.0944 36.5078 27.5312 35.9688 28.7344C35.0469 30.8125 34.9765 30.9453 34.7109 31.0703C34.3985 31.2265 33.2422 31.3046 32.9062 31.1953Z" fill="url(#paint1_linear_31_7115)"/>
<path d="M13.3827 31.1328C13.039 30.9922 13.0312 30.9844 12.5546 29.8984C12.289 29.2969 11.9296 28.4765 11.7499 28.0859L11.2651 26.9489L11.7968 27.375C12.164 27.3828 12.9921 27.1875 13.8827 26.875C14.1405 26.789 14.539 26.6641 14.7655 26.5938C15.0468 26.5078 15.1718 26.4375 15.1718 26.3437C15.1718 26.2656 15.2499 26.1875 15.3515 26.1641C15.4452 26.1406 15.8515 25.9844 16.2499 25.8047C16.6483 25.625 17.0233 25.4844 17.0858 25.4844C17.1484 25.4844 17.203 25.4531 17.203 25.4062C17.203 25.3672 17.2499 25.3281 17.3046 25.3281C17.3593 25.3281 17.6473 25.9083 17.6718 25.9609C17.9805 26.624 18.039 26.7422 18.1483 26.5703C18.1952 26.4922 18.2186 26.5312 18.2186 26.6875C18.2186 26.9531 16.3827 30.2266 15.9999 30.625C15.5858 31.0703 15.2186 31.2109 14.4296 31.2422C13.8983 31.2578 13.6405 31.2344 13.3827 31.1328Z" fill="url(#paint2_linear_31_7115)"/>
<path d="M32.9844 31.1875C32.9844 31.1484 32.8828 31.1094 32.75 31.1094C32.5547 31.1094 32.5156 31.0781 32.5156 30.9141C32.5156 30.7422 32.4844 30.7188 32.2422 30.7188C31.9766 30.7188 31.9688 30.7109 31.9688 30.4297V30.1406L32.2656 30.4219C32.5859 30.7344 32.8985 30.9063 33.2812 30.9922C33.625 31.0625 33.6172 31.2656 33.2578 31.2656C33.1094 31.2656 32.9844 31.2344 32.9844 31.1875Z" fill="url(#paint3_radial_31_7115)"/>
<path d="M33.4321 31.0646C33.4303 31.0049 33.9563 31.019 34.1486 30.9531C34.3081 30.8985 34.5783 30.7891 34.7423 30.6719C35.0705 30.4532 35.133 30.4688 35.0627 30.7578C35.0236 30.8985 34.9611 30.9531 34.8205 30.9531C34.7033 30.9531 34.6252 31 34.6252 31.0625C34.6252 31.1797 34.3908 31.2656 34.0627 31.2656C33.922 31.2656 33.4345 31.1427 33.4321 31.0646Z" fill="url(#paint4_radial_31_7115)"/>
<path d="M24.3437 29.4219C24.1562 29.0859 24.0234 28.9297 23.9531 28.9532C23.875 28.9844 23.8438 28.9297 23.8438 28.7891C23.8438 28.4219 25.5781 25.4297 26.7031 23.8594C27.3281 22.9844 27.4375 22.8672 27.6563 22.8438C27.8672 22.8203 27.9062 22.8516 27.9531 23.0313C27.9844 23.1485 27.9765 23.2891 27.9375 23.3438C27.25 24.3047 26.7344 25.1094 26.7344 25.2032C26.7344 25.2656 26.6641 25.4531 26.5859 25.6172C26.3359 26.1016 25.1094 29.1407 25.0391 29.4532C25.0156 29.5469 24.9688 29.625 24.9297 29.625C24.8906 29.625 25.24 30.7316 25.24 30.8175C25.24 31.1222 24.625 29.9297 24.3437 29.4219Z" fill="url(#paint5_radial_31_7115)"/>
<path d="M31.4219 29.5859C31.4219 29.25 31.5313 29.2344 31.6953 29.5469C31.8516 29.8437 31.8438 29.8594 31.6172 29.8594C31.4453 29.8594 31.4219 29.8281 31.4219 29.5859Z" fill="url(#paint6_radial_31_7115)"/>
<path d="M31.0312 28.8829C31.0312 28.5469 31.1398 28.5421 31.3038 28.8545C31.4601 29.1514 31.7124 29.5037 31.4859 29.5037C31.314 29.5037 31.0312 29.125 31.0312 28.8829Z" fill="url(#paint7_radial_31_7115)"/>
<path d="M30.6407 28.1797C30.6407 27.9609 30.6094 27.9063 30.4922 27.9063C30.3282 27.9063 30.25 27.7578 30.25 27.4297C30.25 27.2578 30.211 27.2031 30.0938 27.2031C30 27.2031 29.9219 27.1328 29.8907 27.0156C29.8282 26.7578 29.8086 26.4822 29.9268 26.5178C30.0383 26.5513 31.0313 28.3203 31.0313 28.4063C31.0313 28.4297 30.9453 28.4531 30.836 28.4531C30.6641 28.4531 30.6407 28.4219 30.6407 28.1797Z" fill="url(#paint8_radial_31_7115)"/>
<path d="M32.6719 31.1094C32.6719 31.0703 32.6016 31.0312 32.5156 31.0312C32.4297 31.0312 32.3594 30.9766 32.3594 30.9141C32.3594 30.8515 32.3047 30.7969 32.2344 30.7969C32.0391 30.7969 31.8906 30.5937 31.8906 30.3359C31.8906 30.0469 31.9513 30.0364 32.1172 30.2734C32.2556 30.4711 32.7266 30.8437 33.0078 30.9141C33.3203 30.9922 33.2734 31.1875 32.9453 31.1875C32.7969 31.1875 32.6719 31.1562 32.6719 31.1094Z" fill="url(#paint9_radial_31_7115)"/>
<path d="M24.7313 29.9546C24.6376 29.7359 24.5701 29.4766 24.6795 29.4062C24.7185 29.375 24.7732 29.2813 24.8044 29.1953C24.8904 28.875 26.0857 25.9219 26.3279 25.4141C26.3982 25.2656 26.4607 25.0859 26.4607 25.0156C26.4685 24.9531 26.656 24.6172 26.8826 24.2734C27.1092 23.9297 27.2029 23.7578 27.0935 23.8828C26.9841 24.0156 26.6326 24.5078 26.3279 24.9922C26.0154 25.4766 25.7341 25.8672 25.7029 25.875C25.6638 25.875 25.6404 25.75 25.6404 25.6016C25.6404 25.3672 25.6638 25.3281 25.8357 25.3281C25.9842 25.3281 26.0388 25.2734 26.1013 25.0391C26.1482 24.875 26.1873 24.6797 26.1873 24.6094C26.1873 24.5312 26.2263 24.4688 26.2732 24.4688C26.3982 24.4688 26.5701 24.2266 26.5779 24.0625C26.5779 23.9844 26.617 23.9219 26.656 23.9219C26.7029 23.9219 26.7342 23.875 26.7342 23.8125C26.7342 23.75 26.7888 23.6875 26.8513 23.6562C26.9138 23.6328 26.9685 23.5625 26.9685 23.5C26.9685 23.4453 27.0232 23.375 27.0857 23.3438C27.1482 23.3203 27.2029 23.2656 27.2029 23.2266C27.2029 23.1328 27.6404 22.6719 27.7263 22.6719C27.8123 22.6719 28.2062 23.4594 28.2707 23.6102C28.2965 23.6705 28.1091 23.6094 28.0779 23.6094C28.0467 23.6094 27.9607 23.7266 27.8982 23.8672C27.8279 24 27.4529 24.75 27.0623 25.5234C26.6716 26.2969 26.3279 27.039 26.2966 27.1641C26.2263 27.4609 25.7029 28.7813 25.4217 29.3672C25.117 30 24.9998 30.1719 24.8513 30.1719C24.781 30.1719 24.7782 30.0483 24.7313 29.9546Z" fill="url(#paint10_radial_31_7115)"/>
<path d="M31.1094 29.0391C31.1094 28.7031 31.1875 28.6953 31.3672 28.9922C31.539 29.2891 31.539 29.3125 31.3047 29.3125C31.1328 29.3125 31.1094 29.2813 31.1094 29.0391Z" fill="url(#paint11_radial_31_7115)"/>
<path d="M30.7188 28.3359C30.7188 28 30.806 27.9869 30.9766 28.2891C31.3022 28.866 31.222 28.7435 30.9141 28.6094C30.7565 28.5408 30.7188 28.5781 30.7188 28.3359Z" fill="url(#paint12_radial_31_7115)"/>
<path d="M11.672 27.6953C11.5705 27.5781 11.3361 27.1484 11.1486 26.7265L10.6938 25.6486L11.1955 25.9297C12.133 25.8203 16.1096 23.9062 16.1096 23.5703C16.1096 23.4844 16.3955 23.152 16.4345 23.2145C16.4502 23.2302 16.758 23.8828 17.008 24.4531C17.2916 25.0956 17.4125 25.4618 17.489 25.6224C17.5488 25.7479 17.4509 25.7883 17.3595 25.7578C17.2814 25.7344 16.9299 25.8438 16.5705 26C16.2111 26.1562 15.7892 26.3359 15.6408 26.3984L15.3674 26.5078L15.7189 26.4688C16.1799 26.4219 15.9924 26.5312 15.1877 26.7734C14.8595 26.8672 14.3752 27.0234 14.1174 27.1172C13.6173 27.289 12.2424 27.6719 12.047 27.6953C11.9846 27.7031 11.9142 27.75 11.8908 27.8047C11.8674 27.8672 11.7892 27.8203 11.672 27.6953Z" fill="url(#paint13_linear_31_7115)"/>
<path d="M11.1093 26.3281C11.1093 26.25 11.0624 26.1875 11.0078 26.1875C10.914 26.1875 10.7398 25.801 10.3726 24.9417C10.357 24.9104 10.7031 24.9219 11.0703 24.7891C12.3593 24.3203 13.4921 23.7031 14.5859 22.875C15.2499 22.3594 15.4062 22.2187 15.4062 22.0938C15.4062 22.0234 15.4609 21.9688 15.5234 21.9688C15.5859 21.9688 15.6406 21.9375 15.6406 21.8906C15.6406 21.8516 15.6875 21.8125 15.7421 21.8125C15.8437 21.8125 16.5312 23.3203 16.6093 23.7266C16.6562 23.9375 16.6484 23.9453 16.5546 23.8281C16.4218 23.6641 16.3437 23.6484 16.3437 23.7969C16.3437 24.0937 13.3046 25.6172 11.6562 26.1406C11.4218 26.2187 11.2031 26.3203 11.1718 26.375C11.1327 26.4297 11.1093 26.414 11.1093 26.3281Z" fill="url(#paint14_linear_31_7115)"/>
<path d="M15.0938 30.9688C15.0938 30.9375 15.1953 30.8516 15.3203 30.7734C15.4375 30.7031 15.6719 30.5156 15.8281 30.3515L16.1094 30.0625V30.3203C16.1094 30.5938 15.9609 30.7969 15.7656 30.7969C15.6953 30.7969 15.6406 30.8516 15.6406 30.914C15.6406 30.9922 15.5547 31.0312 15.3672 31.0312C15.2187 31.0312 15.0938 31 15.0938 30.9688Z" fill="url(#paint15_linear_31_7115)"/>
<path d="M10.1953 24.5938L9.88281 23.8828L10.0938 23.8359C10.7812 23.6875 12.2891 22.8984 13.1484 22.2344C13.7188 21.7969 14.7812 20.7266 14.7812 20.5938C14.7812 20.5313 14.8203 20.4844 14.8594 20.4844C14.9062 20.4844 14.9375 20.4297 14.9375 20.3672C14.9375 20.3047 14.9845 20.254 15.0391 20.25C15.0684 20.2479 15.1218 20.2777 15.2074 20.4394C15.3642 20.7356 15.6216 21.3368 15.9011 22.0235C15.9129 22.0524 16.0566 22.3674 16.0956 22.4689C16.1347 22.5705 16 22.4375 15.9531 22.4375C15.9062 22.4375 15.875 22.3828 15.875 22.3203C15.875 22.2578 15.8203 22.2032 15.7578 22.2032C15.6953 22.2032 15.6406 22.2578 15.6406 22.3281C15.6406 22.4531 15.4844 22.5938 14.8203 23.1094C13.8125 23.875 12.5234 24.5938 11.5469 24.9375C11.3281 25.0157 11.0469 25.125 10.9141 25.1719C10.7891 25.2266 10.6406 25.2813 10.5937 25.2891C10.5469 25.3047 10.3672 24.9922 10.1953 24.5938Z" fill="url(#paint16_linear_31_7115)"/>
<path d="M29.5937 36.7266C28.7578 36.5313 28.0156 35.9453 27.5078 35.0782C27.0703 34.3282 27.0625 34.3125 27.3437 34.3125C27.4687 34.3125 27.8203 34.1953 28.1094 34.0625C28.7187 33.7813 29.4922 33.6875 29.9609 33.836C30.2812 33.9453 31.0781 34.6563 31.5781 35.2735L31.9297 35.7188L32.3594 35.6719L33.5827 33.9916C33.7134 33.8436 33.2478 34.9231 32.5312 35.8985C31.8594 36.5938 30.5859 36.961 29.5937 36.7266Z" fill="url(#paint17_radial_31_7115)"/>
<path d="M32.9062 31.1094C32.9062 30.9453 32.9844 30.9219 33.2812 31C33.5625 31.0781 33.4922 31.2656 33.1797 31.2656C32.9609 31.2656 32.9062 31.2344 32.9062 31.1094Z" fill="url(#paint18_radial_31_7115)"/>
<path d="M24.8909 30.4219C24.6565 29.9844 24.6565 29.9766 24.7971 29.8282C25.0081 29.6016 25.9221 27.5313 26.0628 26.9531C26.1487 26.5859 27.7112 23.461 27.8596 23.3594C27.9221 23.3125 27.9221 23.2969 27.8596 23.2969C27.8127 23.2969 27.7737 23.2422 27.7737 23.1797C27.7737 22.9453 27.9612 23.0703 28.2034 23.4766C28.4378 23.8594 28.4768 24.1563 28.2971 24.1563C28.1877 24.1563 26.594 27.4531 26.5393 27.7891C26.4534 28.3125 26.3362 28.6094 25.8206 29.6641C25.5549 30.2188 27.3869 34.8642 27.4142 34.9116C27.5332 35.1173 25.1174 30.836 24.8909 30.4219Z" fill="url(#paint19_radial_31_7115)"/>
<path d="M32.125 30.6328V30.3984L32.3594 30.5625C32.7031 30.8047 32.7109 30.875 32.4063 30.875C32.1484 30.875 32.125 30.8594 32.125 30.6328Z" fill="url(#paint20_radial_31_7115)"/>
<path d="M34.7217 30.6955C34.7217 30.6721 34.9064 30.6015 35.0549 30.4453L35.3329 30.1501L35.1955 30.4765C35.1096 30.6875 35.0236 30.7969 34.9221 30.7969C34.844 30.7969 34.7217 30.7111 34.7217 30.6955Z" fill="url(#paint21_radial_31_7115)"/>
<path d="M31.5 29.7422C31.5 29.3984 31.5703 29.3984 31.7969 29.7422L31.9634 30.0467L31.7344 30.0156C31.5156 30.0156 31.5 29.9922 31.5 29.7422Z" fill="url(#paint22_radial_31_7115)"/>
<path d="M30.4062 27.7891C30.4062 27.4453 30.4766 27.4453 30.7031 27.7891L30.8777 28.0905L30.6406 28.0625C30.4219 28.0625 30.4062 28.0391 30.4062 27.7891Z" fill="url(#paint23_radial_31_7115)"/>
<path d="M30.0156 27.0859C30.0156 26.7422 30.0859 26.7422 30.3125 27.0859L30.5155 27.4462L30.25 27.3594C30.0313 27.3594 30.0156 27.336 30.0156 27.0859Z" fill="url(#paint24_radial_31_7115)"/>
<path d="M16.6172 23.9531C16.5469 23.8438 16.5078 23.7344 16.5234 23.7109C16.5469 23.6875 16.625 23.7812 16.6953 23.9141C16.8438 24.2109 16.8047 24.2344 16.6172 23.9531Z" fill="url(#paint25_linear_31_7115)"/>
<path d="M15.0703 35.4297C15.0391 35.4062 15.0156 35.2813 15.0156 35.1562C15.0156 34.9609 15.0391 34.9375 15.2891 34.9375C15.5469 34.9375 15.5625 34.9531 15.5625 35.2109C15.5625 35.4609 15.539 35.4844 15.3438 35.4844C15.2188 35.4844 15.0937 35.4609 15.0703 35.4297Z" fill="#00B0E7"/>
<path d="M10.0467 24.1641C10.078 24.125 10.0472 24.1127 10.007 24.1005C9.93211 24.0777 9.36087 22.8037 9.43422 22.7646C9.45766 22.7412 10.3202 22.4062 10.9139 22.1797C11.0467 22.125 11.1639 22.0625 11.1873 22.039C11.2108 22.0078 11.453 21.8203 11.7342 21.6094C12.703 20.8984 13.7577 19.7656 13.8749 19.3125C13.9842 18.8672 14.0467 18.8593 14.4217 19.2265C14.7967 19.6015 15.1639 20.2109 15.2264 20.5703C15.2499 20.75 15.2342 20.7891 15.1405 20.75C15.0624 20.7187 15.0155 20.7422 15.0155 20.8203C15.0155 20.9609 13.9686 22.0156 13.3827 22.4687C12.7577 22.9531 11.8749 23.4609 11.1327 23.7734C10.7342 23.9375 10.4842 24.0859 10.4842 24.1563C10.4842 24.2578 10.4764 24.2578 10.4061 24.1563C10.3592 24.0859 10.3046 24.0703 10.2733 24.1172C10.1952 24.2187 9.99203 24.2656 10.0467 24.1641Z" fill="url(#paint26_linear_31_7115)"/>
<path d="M16.9453 36.7344C16.5625 36.6328 15.875 36.2812 15.875 36.1875C15.875 36.1406 16 36.1094 16.1484 36.1094C16.2969 36.1094 16.4219 36.1328 16.4219 36.1719C16.4219 36.2031 16.7656 36.2188 17.1797 36.2109C17.7188 36.1953 18 36.2188 18.1641 36.3047C18.2969 36.3672 18.4453 36.4219 18.5078 36.4219C18.6563 36.4219 18.6328 36.6328 18.4766 36.6953C18.2422 36.7813 17.2578 36.8125 16.9453 36.7344Z" fill="url(#paint27_linear_31_7115)"/>
<path d="M32.125 36.0703C32.125 35.9844 32.0703 35.9609 31.9453 35.9922C31.7969 36.0313 31.6953 35.9531 31.3515 35.5313C30.8203 34.875 30.125 34.2422 29.7812 34.0937C29.625 34.0313 29.375 34 29.1875 34.0234C28.8125 34.0625 27.9375 34.4453 27.7187 34.6719C27.5469 34.8359 27.375 34.8828 27.3906 34.75C27.3906 34.7031 27.3672 34.6562 27.3281 34.6484C27.2656 34.6328 27.039 34.2578 26.3203 32.9687L26.0234 32.4375H26.2656C26.4219 32.4375 26.5 32.4766 26.5 32.5547C26.5 32.6797 26.625 32.7188 26.6719 32.6094C26.6875 32.5781 26.9922 32.3047 27.3594 32.0156C27.9922 31.4922 28.0156 31.4687 27.9922 31.1797C27.9765 30.8828 27.9765 30.875 28.2344 30.875C28.4766 30.875 28.5234 30.9297 28.9219 31.5469C29.1563 31.9219 29.5859 32.4375 29.8672 32.7109C30.5156 33.3203 30.9453 33.4844 31.6484 33.4062C31.9844 33.3672 32.125 33.3828 32.125 33.4453C32.125 33.4922 32.1641 33.5312 32.2187 33.5312C32.2656 33.5312 32.4765 33.6719 32.6797 33.8438C32.8906 34.0156 33.1328 34.1562 33.2422 34.1562C33.3437 34.1562 33.4978 34.1745 33.5213 34.1979C33.3941 34.4374 32.8987 35.4673 32.5158 35.8657C32.094 36.3188 32.125 36.2578 32.125 36.0703Z" fill="url(#paint28_radial_31_7115)"/>
<path d="M25.3283 31.1797C25.047 30.6953 24.9924 30.4219 25.1408 30.2891C25.3283 30.1172 26.1955 28.1485 26.2736 27.7188C26.3205 27.4688 26.508 26.9531 26.6955 26.5781C26.8752 26.1953 27.008 25.8672 26.9845 25.8438C26.9611 25.8203 26.9845 25.7969 27.0314 25.7969C27.0861 25.7969 27.1174 25.7735 27.1095 25.7422C27.0783 25.6563 27.9505 23.8427 28.1224 23.6552C28.263 23.5068 28.2892 23.6719 28.5236 24.0469C28.758 24.4219 28.758 24.4297 28.6174 24.6641C28.2814 25.2188 27.7423 26.2031 27.3595 26.9688C27.0158 27.6485 26.9455 27.8516 26.9611 28.1641C26.9767 28.5781 26.8048 29.1485 26.3986 30.0313C26.2502 30.3594 26.1017 30.7344 26.0705 30.8594C26.047 30.9922 25.9689 31.1407 25.9064 31.1953C25.8439 31.2422 25.797 31.3672 25.797 31.4688C25.797 31.7891 25.6017 31.6719 25.3283 31.1797Z" fill="url(#paint29_radial_31_7115)"/>
<path d="M33.9295 31.1484C33.9451 31.0703 34.0467 30.9922 34.1482 30.9765C34.2576 30.9609 34.3826 30.914 34.4295 30.875C34.4841 30.8359 34.5466 30.8203 34.5701 30.8515C34.6013 30.875 34.6248 30.8593 34.6248 30.8125C34.6248 30.7578 34.6638 30.7187 34.7107 30.7187C34.7654 30.7187 34.8384 30.6439 34.906 30.5859C35.0468 30.4652 35.0076 30.4687 35.0154 30.7031C35.0211 30.8749 34.9685 30.9765 34.8826 31.0078C34.8045 31.039 34.7185 31.0937 34.6951 31.1328C34.6638 31.1719 34.4763 31.2265 34.2732 31.25C33.9529 31.2812 33.906 31.2734 33.9295 31.1484Z" fill="url(#paint30_radial_31_7115)"/>
<path d="M31.8127 30.4765C31.8127 30.4297 31.7581 30.3438 31.6956 30.2812C31.5784 30.1563 31.5315 29.625 31.6409 29.625C31.6878 29.625 31.8284 29.8203 32.1565 30.3516L32.2815 30.5625H32.0471C31.9221 30.5625 31.8127 30.5234 31.8127 30.4765Z" fill="url(#paint31_radial_31_7115)"/>
<path d="M31.1875 29.1953C31.1875 28.8516 31.2578 28.8516 31.4844 29.1953L31.6752 29.5167L31.4219 29.4688C31.2031 29.4688 31.1875 29.4453 31.1875 29.1953Z" fill="url(#paint32_radial_31_7115)"/>
<path d="M30.7969 28.4922C30.7969 28.2735 30.7656 28.2187 30.6406 28.2187C30.5156 28.2187 30.4844 28.1641 30.4844 27.9453C30.4844 27.7969 30.5078 27.6719 30.5312 27.6719C30.6016 27.6719 30.8672 28.0156 30.875 28.1015C30.875 28.1484 30.9609 28.3125 31.0703 28.4765L31.2944 28.837L31.0312 28.7656C30.8125 28.7656 30.7969 28.7422 30.7969 28.4922Z" fill="url(#paint33_radial_31_7115)"/>
<path d="M30.0938 27.2422C30.0938 26.9219 30.1328 26.9062 30.3359 27.1484C30.5313 27.3906 30.5234 27.5156 30.289 27.5156C30.1172 27.5156 30.0938 27.4844 30.0938 27.2422Z" fill="url(#paint34_radial_31_7115)"/>
<path d="M31.7031 30.2812C31.6797 30.2109 31.6562 30.0547 31.6562 29.9297C31.6562 29.7578 31.6172 29.7031 31.5 29.7031C31.375 29.7031 31.3438 29.6484 31.3438 29.4219C31.3438 29.1719 31.3594 29.1484 31.4687 29.2422C31.539 29.2969 31.6484 29.4766 31.7109 29.6406C31.7734 29.8047 31.7606 29.9491 31.8075 29.9491C31.8465 29.9491 31.9531 29.9766 31.9297 30.0156C31.9062 30.0625 31.914 30.0937 31.9531 30.0937C31.9922 30.0937 32.0469 30.1641 32.0703 30.25C32.1015 30.375 32.0703 30.4062 31.9297 30.4062C31.8281 30.4062 31.7265 30.3516 31.7031 30.2812Z" fill="url(#paint35_radial_31_7115)"/>
<path d="M30.9531 28.711C30.9531 28.4375 30.9609 28.4297 31.1016 28.5625C31.1797 28.6406 31.2467 28.7709 31.2891 28.8516C31.3454 28.959 31.289 29 31.1406 29C30.9766 29 30.9531 28.961 30.9531 28.711Z" fill="url(#paint36_radial_31_7115)"/>
<path d="M30.5625 28.0078C30.5625 27.7266 30.5625 27.7266 30.7031 27.875C30.7812 27.9531 30.8672 28.0859 30.8984 28.1641C30.9375 28.2656 30.9063 28.2969 30.7578 28.2969C30.5859 28.2969 30.5625 28.2656 30.5625 28.0078Z" fill="url(#paint37_radial_31_7115)"/>
<path d="M30.1719 27.3047C30.1719 27.0234 30.1719 27.0234 30.3125 27.1719C30.3906 27.25 30.4766 27.3828 30.5078 27.461C30.5469 27.5625 30.5156 27.5937 30.3672 27.5937C30.1953 27.5937 30.1719 27.5625 30.1719 27.3047Z" fill="url(#paint38_radial_31_7115)"/>
<path d="M29.7811 26.6563C29.7811 26.4453 29.6554 26.117 29.9217 26.4975C29.966 26.5608 30.0464 26.6963 30.1041 26.7653C30.1354 26.8746 30.1093 26.8907 29.9686 26.8907C29.8124 26.8907 29.7811 26.8516 29.7811 26.6563Z" fill="url(#paint39_radial_31_7115)"/>
<path d="M36.5469 26.7734C36.5234 26.7109 36.5234 26.6094 36.5469 26.5547C36.6094 26.375 36.4141 26.2891 35.8359 26.2344C34.4453 26.1172 33.1172 25.5312 31.625 24.3906L31.3125 24.1484L31.0469 24.5625C30.9063 24.7891 30.7969 24.9375 30.8125 24.8906C30.8281 24.8438 31.2188 23.9375 31.6953 22.875C32.375 21.3359 32.5781 20.9531 32.6953 20.9531C32.7813 20.9531 33.0547 21.1797 33.3125 21.4609C33.9453 22.1406 34.7891 22.6953 35.5859 22.9531C36.1719 23.1485 36.3281 23.1641 37.3359 23.1563L38.4454 23.1406L38.3048 23.4766C37.5627 25.1875 36.8672 26.6953 36.7734 26.7813C36.6406 26.9219 36.6016 26.9219 36.5469 26.7734Z" fill="url(#paint40_linear_31_7115)"/>
<path d="M10.5064 23.2492C10.4673 23.1945 9.67975 23.2406 9.64851 23.264C9.60415 23.2727 9.5353 23.1668 9.43679 22.8541C9.38283 22.6827 9.09798 21.9633 9.18704 21.9395C9.23984 21.9255 9.20703 22.0352 9.18865 21.9791C9.1543 21.874 9.21876 22.0466 9.21115 21.9499C9.17343 21.4712 9.45314 20.5765 9.49814 20.5344C9.69194 20.3528 10.2499 21.1094 10.2499 20.9922C10.2499 20.9375 10.4218 20.7813 10.6249 20.6485C11.0468 20.3828 11.5077 19.9531 11.9218 19.4453C12.1249 19.2031 12.2109 19.0078 12.2499 18.7031L12.2095 18.3565C12.3459 18.251 13.0689 18.3848 13.0206 18.4244C12.7596 18.3023 13.3876 18.5344 13.7968 18.75C13.9282 18.8193 14.1225 18.9499 14.1975 19.0195C14.3607 19.1709 14.2974 19.2573 14.1796 19.375C14.1249 19.4297 14.0937 19.5157 14.1249 19.5547C14.1874 19.6563 13.4921 20.5078 12.9296 21.0313C11.9765 21.9063 11.7187 22.1328 11.7812 22.0313C11.8437 21.9219 11.6171 22.0703 11.4609 22.2422C11.4218 22.2813 11.289 22.3594 11.1796 22.3985C10.0312 22.8438 10.8577 23.1881 10.8421 23.2897C10.8187 23.3834 10.5533 23.3273 10.5064 23.2492Z" fill="url(#paint41_linear_31_7115)"/>
<path d="M18.2575 36.6719C18.1716 36.6563 18.0622 36.6094 18.0153 36.5703C17.8903 36.4687 16.9685 36.4141 16.695 36.4922C16.2809 36.6094 15.4763 36.0547 15.0075 35.336L14.8247 34.9165L15.1169 34.7969C15.2966 34.6875 15.6091 34.4609 15.8044 34.2969C16.0075 34.1328 16.2106 34 16.2575 34C16.3044 34 16.3435 33.9453 16.3435 33.8828C16.3435 33.7969 16.4294 33.7656 16.6794 33.7656C17.4841 33.7656 18.4294 33.0078 19.2341 31.7187C19.6247 31.0938 19.6872 31.0312 19.9138 31.0312C20.0466 31.0312 20.1716 31.0781 20.195 31.1328C20.2497 31.2734 20.1794 33.1563 20.0778 34.0547C19.9841 34.9141 20.0309 35.0937 20.3435 35.0937C20.4763 35.0937 20.4685 35.125 20.2575 35.4297C19.7575 36.1641 18.7653 36.7812 18.2575 36.6719Z" fill="url(#paint42_linear_31_7115)"/>
<path d="M33.2188 34.5078C33.2188 34.414 33.1875 34.3984 33.0859 34.4609C32.9844 34.5156 32.8594 34.4531 32.5234 34.1484C32.289 33.9375 32.0469 33.7656 31.9922 33.7656C31.9375 33.7656 31.8906 33.7422 31.8906 33.7109C31.8906 33.6719 31.6797 33.664 31.4219 33.6719C30.8359 33.7109 30.2891 33.5313 29.8906 33.1797L29.5859 32.914L29.8672 32.9062C30.0235 32.9062 30.1641 32.9297 30.1953 32.9531C30.2578 33.0234 31.2422 33.0156 31.6484 32.9453C31.8359 32.914 32.2344 32.8047 32.5313 32.6953C32.8359 32.5938 33.3594 32.4844 33.7031 32.4609L34.3722 32.2719L34.2109 32.6797C33.5391 34.2578 33.2188 34.8438 33.2188 34.5078Z" fill="url(#paint43_radial_31_7115)"/>
<path d="M26.4219 33.0625C26.3594 33.0234 26.336 32.9843 26.3751 32.9843C26.4219 32.9843 26.3829 32.9297 26.2969 32.8672C26.2188 32.8047 26.1876 32.75 26.2266 32.75C26.2735 32.75 26.2735 32.7265 26.2188 32.6875C26.0704 32.5859 25.5547 31.5859 25.5235 31.3359C25.5001 31.1484 25.5313 31.0547 25.6329 30.9766C25.7188 30.9219 25.8048 30.7656 25.836 30.6328C25.8672 30.5 26.0157 30.125 26.1641 29.7968C26.5782 28.8906 26.7188 28.414 26.6797 28.039C26.6485 27.7656 26.7032 27.5859 27.0079 26.9688C27.5704 25.8125 28.4006 24.0536 28.4944 24.0536C28.5412 24.0536 28.75 24.4297 28.8751 24.664C29.086 25.0469 29.2486 25.228 29.1392 25.353C29.0376 25.478 28 26.9531 27.7657 27.4375C27.5157 27.9766 27.3516 28.5078 27.3907 28.6875C27.4063 28.8047 27.6641 29.3125 27.9532 29.8281C28.2423 30.3359 28.5547 30.8984 28.6407 31.0625C28.7344 31.2344 28.8594 31.4375 28.9297 31.5156C29.0001 31.5937 29.1016 31.7578 29.1641 31.875C29.2266 31.9922 29.3204 32.1172 29.3673 32.1484C29.4219 32.1797 29.4688 32.3359 29.4688 32.4922C29.4688 32.7734 29.4688 32.7734 29.3047 32.625C29.211 32.5469 28.961 32.1953 28.7344 31.8593C28.3516 31.2656 28.336 31.25 28.2969 31.4766C28.2657 31.6563 28.1016 31.8359 27.5938 32.2422C27.2266 32.539 26.8516 32.8594 26.7579 32.9609C26.5626 33.164 26.5782 33.1641 26.4219 33.0625Z" fill="url(#paint44_radial_31_7115)"/>
<path d="M33.0859 31.2891C32.875 31.2578 32.8281 31.2187 32.8281 31.0703C32.8281 30.8984 32.8516 30.8828 33.0313 30.9531C33.1406 31 33.4375 31.0312 33.6875 31.0312C33.9375 31.0312 34.2344 31 34.3438 30.9531C34.5234 30.8906 34.5469 30.8984 34.5469 31.0625C34.5469 31.2187 34.5 31.25 34.1875 31.2969C33.8125 31.3437 33.5312 31.3437 33.0859 31.2891Z" fill="url(#paint45_radial_31_7115)"/>
<path d="M32.2031 30.7188C32.2031 30.5078 32.1797 30.4844 31.9688 30.4844C31.75 30.4844 31.7344 30.461 31.7344 30.2109C31.7344 29.8672 31.8047 29.8672 32.0313 30.2109C32.125 30.3594 32.3281 30.5625 32.4766 30.6563C32.8203 30.8828 32.8203 30.9531 32.4766 30.9531C32.2266 30.9531 32.2031 30.9375 32.2031 30.7188Z" fill="url(#paint46_radial_31_7115)"/>
<path d="M15.9531 30.2812C15.9531 30.1875 16.2187 29.7812 16.2812 29.7812C16.3125 29.7812 16.3438 29.9062 16.3438 30.0547C16.3438 30.2969 16.3203 30.3281 16.1484 30.3281C16.0391 30.3281 15.9531 30.3047 15.9531 30.2812Z" fill="#00B2F7"/>
<path d="M31.3125 29.6562C31.2891 29.5859 31.2656 29.4297 31.2656 29.3047C31.2656 29.1328 31.2266 29.0781 31.1172 29.0781C30.9531 29.0781 30.875 28.9297 30.875 28.6016C30.875 28.4297 30.836 28.375 30.7188 28.375C30.5937 28.375 30.5625 28.3203 30.5625 28.1016C30.5625 27.9531 30.5937 27.8281 30.625 27.8281C30.6875 27.8281 31.7344 29.6328 31.7344 29.7344C31.7344 29.8438 31.3594 29.7734 31.3125 29.6562Z" fill="url(#paint47_radial_31_7115)"/>
<path d="M30.1719 27.3984C30.1719 27.0625 30.25 27.0547 30.4297 27.3516C30.6015 27.6485 30.6015 27.6719 30.3672 27.6719C30.1953 27.6719 30.1719 27.6407 30.1719 27.3984Z" fill="url(#paint48_radial_31_7115)"/>
<path d="M29.7812 26.6797L29.7891 26.3828L29.9766 26.6015C30.2266 26.8828 30.2188 26.9688 29.9766 26.9688C29.8047 26.9688 29.7812 26.9375 29.7812 26.6797Z" fill="url(#paint49_radial_31_7115)"/>
<path d="M15.1561 20.7812C14.9842 20.6094 14.9842 20.5625 15.1248 20.5625C15.1795 20.5625 15.2498 20.6406 15.2733 20.7344C15.3357 20.9531 15.3201 20.9609 15.1561 20.7812Z" fill="url(#paint50_linear_31_7115)"/>
<path d="M15.9687 30.2109C16.1953 29.8672 16.2656 29.8672 16.2656 30.2109C16.2656 30.461 16.25 30.4844 16.0312 30.4844H15.7969L15.9687 30.2109Z" fill="#00C8E6"/>
<path d="M17.5938 27.4766C17.5938 27.3672 17.8438 26.9688 17.9062 26.9688C17.9531 26.9688 17.9844 27.0937 17.9844 27.2422C17.9844 27.4844 17.961 27.5156 17.7891 27.5156C17.6797 27.5156 17.5938 27.5 17.5938 27.4766Z" fill="#00C8E6"/>
<path d="M9.17131 22.0058C9.01344 20.6617 9.72436 19.2824 10.8125 18.6797C11.3183 18.3995 12.5369 18.2187 12.5842 18.3679C12.6076 18.4226 12.6233 18.5851 12.6858 18.5617C12.8811 18.4836 12.8359 18.5313 12.6484 18.7812C12.5391 18.9219 12.4688 19.0781 12.4922 19.125C12.5625 19.3203 11.5547 20.4141 10.9141 20.8437C10.7031 20.9922 10.5235 21.1484 10.5235 21.2031C10.5235 21.3203 10.4625 22.0273 10.4 21.9335C10.3688 21.8866 10.4696 22.0214 10.3993 22.0839C10.3055 22.1542 9.19689 22.2231 9.17131 22.0058Z" fill="url(#paint51_linear_31_7115)"/>
<path d="M19.8515 35.1953C19.7812 35.0703 19.7733 34.8359 19.8202 34.3359C19.8593 33.9609 19.8905 33.2031 19.8984 32.6562C19.9062 32.1094 19.9296 31.6328 19.9608 31.6094C20.0468 31.5156 20.0234 31.4219 19.914 31.4219C19.8593 31.4219 19.6093 31.7344 19.3671 32.1094C18.6171 33.2891 17.6874 34 16.914 34C16.6484 34 16.5937 34.0235 16.6249 34.1172C16.6562 34.1953 16.6249 34.2344 16.539 34.2344C16.4687 34.2344 16.2421 34.3672 16.039 34.5312C15.8437 34.6953 15.5702 34.8984 15.4296 34.9765C15.2968 35.0547 15.203 35.1641 15.2265 35.2188C15.2577 35.2969 15.2265 35.3047 15.0702 35.2266C14.9296 35.164 14.7734 34.9062 14.4843 34.2656L13.5054 31.9062C14.9177 32.1355 16.7407 32.0094 16.7407 32.0094C17.3579 31.9078 16.8817 31.5024 17.4599 31.6977C18.1161 31.9243 17.2854 32.4591 17.8479 32.0841C18.0198 31.967 18.2437 32.0044 18.3218 31.9575C18.4077 31.9184 18.5324 32.1315 18.5324 32.0846C18.5324 32.0377 18.8171 32.2802 18.8874 32.2255C19.1062 32.0458 19.1952 31.7266 20.453 29.5781C21.1249 28.4219 21.9921 26.9609 22.3827 26.3203C23.0702 25.2188 23.1093 25.1719 23.3515 25.1719C23.5937 25.1719 23.6093 25.1875 23.6093 25.4297C23.6093 25.5625 23.5155 25.8203 23.414 25.9922C23.3046 26.164 23.2187 26.3828 23.2187 26.4766C23.2187 26.5625 23.1327 26.8281 23.0234 27.0625C22.914 27.2891 22.8281 27.5469 22.8281 27.6328C22.8281 27.7188 22.7733 27.8984 22.703 28.0235C22.4765 28.4453 21.9609 29.9609 21.6327 31.1484C21.3827 32.0625 21.3124 32.4687 21.3046 32.9844L21.2968 33.6485L20.8046 34.5156C20.3984 35.2266 20.2812 35.375 20.1327 35.375C20.0234 35.375 19.9062 35.3047 19.8515 35.1953Z" fill="url(#paint52_linear_31_7115)"/>
<path d="M29.8361 33.1094C29.3908 32.7734 28.8439 32.0312 28.1252 30.7812C27.3205 29.3672 27.1096 28.9531 27.0783 28.6797C27.0548 28.4766 27.2892 27.7187 27.5314 27.2031C27.8439 26.5625 28.7111 25.0156 28.8127 24.9297C28.9533 24.8125 28.9767 24.8438 29.3048 25.4141C29.4767 25.7344 29.6484 25.9636 29.5781 25.9949C29.4765 26.0261 28.6096 27.3516 28.6096 27.5C28.6096 27.5391 28.4845 27.8359 28.3361 28.1484C28.1877 28.4687 28.0314 28.9375 27.9923 29.1953C27.922 29.625 27.9299 29.6953 28.1252 30.0938C28.2424 30.3281 28.383 30.5625 28.4377 30.625C28.4845 30.6797 28.5314 30.7812 28.5314 30.8359C28.5314 30.9375 28.9689 31.1094 29.2189 31.1094C29.2658 31.1094 29.3127 31.1406 29.3127 31.1797C29.3127 31.2109 29.6174 31.1797 30.0002 31.1016C30.3752 31.0234 31.0236 30.9297 31.4533 30.9062C32.0861 30.8594 32.2345 30.8281 32.258 30.7187C32.2892 30.6015 32.3111 30.6851 32.7267 30.8203C33.45 31.0557 34.4174 31.0979 35.047 30.5703C35.2669 30.3861 35.265 30.3495 34.6252 31.7578C34.1956 32.7032 34.0002 33.0156 34.0002 32.7422C34.0002 32.6328 33.383 32.7266 32.7111 32.9531C31.9142 33.2109 31.297 33.3203 30.8986 33.2578C30.6877 33.2265 30.5627 33.2344 30.5939 33.2813C30.6173 33.3203 30.5314 33.3516 30.4064 33.3594C30.258 33.3594 30.047 33.2734 29.8361 33.1094Z" fill="url(#paint53_radial_31_7115)"/>
<path d="M31.5549 30.1328C31.4846 29.9766 31.422 29.75 31.422 29.625C31.422 29.4453 31.383 29.3906 31.2736 29.3906C31.1096 29.3906 31.0314 29.2422 31.0314 28.9141C31.0314 28.7422 30.9924 28.6875 30.883 28.6875C30.7189 28.6875 30.6408 28.5391 30.6408 28.211C30.6408 28.0391 30.6017 27.9844 30.4923 27.9844C30.3283 27.9844 30.2502 27.836 30.2502 27.5078C30.2502 27.3359 30.2111 27.2812 30.1017 27.2812C30.0236 27.2812 29.9298 27.2266 29.9064 27.1563C29.8361 26.9766 29.8517 26.5781 29.922 26.5781C29.9611 26.5781 30.4611 27.4375 31.047 28.4922C32.0939 30.3672 32.1095 30.4062 31.8986 30.4062C31.7345 30.4062 31.6564 30.3438 31.5549 30.1328Z" fill="url(#paint54_radial_31_7115)"/>
<path d="M17.6875 27.3047C17.961 26.7266 18.0625 26.6719 18.0625 27.086C18.0625 27.3281 18.0391 27.3594 17.8594 27.3594C17.75 27.3594 17.6719 27.3359 17.6875 27.3047Z" fill="#00BFF9"/>
<path d="M28.3905 31.1719C28.1795 30.8125 27.8827 30.3047 27.742 30.0391C27.4842 29.5703 27.4842 29.5547 27.6249 29.4063C27.703 29.3125 27.742 29.211 27.7186 29.1719C27.6639 29.0781 27.9217 28.2578 28.1639 27.7734C28.2811 27.5469 28.3749 27.3281 28.3749 27.2812C28.3749 27.125 29.1952 25.4922 29.2733 25.4922C29.3202 25.4844 29.4452 25.6563 29.5545 25.8594C31.8123 29.9922 32.1873 30.5859 32.7498 30.875C32.8983 30.9609 32.992 31.0234 32.9452 31.0312C32.9061 31.0312 32.9217 31.0703 32.9842 31.1172C33.0702 31.1797 33.0467 31.1875 32.867 31.1406C32.3592 31.0156 30.9295 31.1641 29.6639 31.461C29.242 31.5625 29.1873 31.5547 29.1014 31.4453C29.0467 31.375 28.9764 31.3359 28.953 31.3672C28.9217 31.3984 28.8436 31.375 28.7811 31.3203C28.6796 31.2422 28.6717 31.25 28.7264 31.3438C28.7967 31.461 28.8592 31.8125 28.8045 31.8125C28.7889 31.8125 28.6014 31.5234 28.3905 31.1719Z" fill="url(#paint55_radial_31_7115)"/>
<path d="M13.6719 31.2891C13.5 31.2656 13.4531 31.211 13.4531 31.0703C13.4531 30.8984 13.4688 30.8906 13.6875 30.9687C13.8203 31.0078 14.1719 31.0312 14.4609 31.0156C14.8985 30.9922 15.0703 30.9375 15.3984 30.7422L15.7969 30.4922V30.7188C15.7969 30.875 15.7578 30.9531 15.6797 30.9531C15.6172 30.9531 15.5625 30.9844 15.5625 31.0312C15.5625 31.2344 14.3906 31.3985 13.6719 31.2891Z" fill="url(#paint56_linear_31_7115)"/>
<path d="M33.2107 31.1953C33.2654 31.1563 33.281 31.1094 33.2498 31.0938C33.2107 31.0703 33.2263 31.0703 33.281 31.086C33.3435 31.0938 33.4373 31.1094 33.4998 31.1094C33.5623 31.1094 33.6092 31.1484 33.6092 31.1875C33.6092 31.2344 33.492 31.2656 33.3591 31.2656C33.1794 31.2656 33.1326 31.2422 33.2107 31.1953Z" fill="url(#paint57_radial_31_7115)"/>
<path d="M38.1016 23.6172C38.1874 23.4687 37.9219 23.4219 36.9688 23.4063C36.1407 23.3984 35.8985 23.3672 35.3516 23.1875C34.547 22.9297 33.711 22.375 33.0782 21.6953L32.6095 21.1875L32.4454 21.3984L32.2173 21.7706L32.3516 21.4141C32.6095 20.6953 33.1642 19.6641 33.4923 19.3203C34.1876 18.5781 35.2813 18.2031 36.2501 18.375C37.9609 18.6719 39.1564 20.3047 38.8516 21.9453C38.7499 22.4922 38.3986 23.375 38.2812 23.375C38.2343 23.375 38.2189 23.4219 38.2422 23.4844C38.2658 23.5469 38.2343 23.6172 38.1721 23.6406C38.1094 23.6641 38.0783 23.6562 38.1016 23.6172Z" fill="url(#paint58_linear_31_7115)"/>
<path d="M17.9061 32.5859C17.7108 32.5547 16.9764 32.5 16.2655 32.4766C15.5545 32.4531 14.7498 32.3906 14.4686 32.336C14.1873 32.2891 13.9217 32.2578 13.867 32.2656C13.8123 32.2812 13.7342 32.2109 13.6873 32.1172C13.6327 32.0313 13.7992 32.4924 13.7662 32.4902C13.7107 32.4863 12.8847 30.6142 12.8404 30.535C12.8366 30.5282 13.0233 30.6094 13.2577 30.7578C13.8123 31.0859 14.3201 31.1641 14.8826 31C15.5936 30.7969 15.8905 30.4375 17.0233 28.4531C18.1717 26.4219 18.2967 26.25 18.2967 26.6875C18.2967 26.9766 18.2186 27.125 18.0545 27.125C17.9373 27.125 17.9061 27.1797 17.9061 27.3984C17.9061 27.5859 17.867 27.6719 17.7889 27.6719C17.7264 27.6719 17.6717 27.7422 17.6717 27.8203C17.6717 28.0547 17.5858 28.2188 17.4686 28.2188C17.4061 28.2188 17.3592 28.2891 17.3592 28.3672C17.3592 28.6015 17.2733 28.7656 17.1561 28.7656C17.0936 28.7656 17.0467 28.8359 17.0467 28.9141C17.0467 29.1485 16.9608 29.3125 16.8436 29.3125C16.7811 29.3125 16.7342 29.3906 16.7342 29.5C16.7342 29.6719 16.7654 29.6875 17.4217 29.7344C17.7967 29.7656 18.4373 29.8359 18.8436 29.8985C19.2577 29.9609 19.7264 29.9922 19.8826 29.9609C20.1483 29.9219 20.203 29.8672 20.6483 29.0859C20.9139 28.6328 21.1561 28.2422 21.1873 28.2188C21.2186 28.1953 21.2654 28.1016 21.2967 28.0078C21.328 27.9063 21.3905 27.8281 21.4295 27.8281C21.4686 27.8281 21.4998 27.7812 21.4998 27.7188C21.4998 27.6563 21.5467 27.5547 21.6092 27.5C21.6639 27.4375 21.742 27.3125 21.7655 27.2187C21.7967 27.125 21.8592 27.0469 21.8983 27.0469C21.9373 27.0469 21.9686 27 21.9686 26.9375C21.9686 26.875 22.0154 26.7734 22.078 26.7188C22.1326 26.6562 22.2108 26.5312 22.2342 26.4375C22.2655 26.3438 22.328 26.2656 22.367 26.2656C22.4061 26.2656 22.4373 26.2109 22.4373 26.1485C22.4373 26.0859 22.4764 26.0313 22.5155 26.0313C22.5623 26.0313 22.5936 25.9844 22.5936 25.9219C22.5936 25.8594 22.6405 25.7578 22.6951 25.7031C22.742 25.6484 22.8514 25.4688 22.9373 25.3125C23.0155 25.1562 23.1483 24.9531 23.2264 24.8672C23.3123 24.7812 23.3748 24.6719 23.3748 24.625C23.3748 24.5859 23.4139 24.5469 23.453 24.5469C23.4998 24.5469 23.5311 24.4922 23.5311 24.4297C23.5311 24.3672 23.5702 24.3125 23.6092 24.3125C23.6561 24.3125 23.6873 24.2578 23.6873 24.1953C23.6873 24.1328 23.7264 24.0781 23.7655 24.0781C23.8123 24.0781 23.8436 24.0234 23.8436 23.9609C23.8436 23.8985 23.8826 23.8437 23.9217 23.8437C23.9686 23.8437 23.9998 23.7891 23.9998 23.7266C23.9998 23.6562 24.0545 23.5859 24.117 23.5625C24.1795 23.5313 24.2342 23.4687 24.2342 23.4063C24.2342 23.3437 24.2733 23.2969 24.3123 23.2969C24.3592 23.2969 24.3905 23.2422 24.3905 23.1797C24.3905 23.1094 24.4451 23.0391 24.5077 23.0156C24.5701 22.9844 24.6248 22.9219 24.6248 22.8594C24.6248 22.7969 24.6639 22.75 24.703 22.75C24.7498 22.75 24.7811 22.7031 24.7811 22.6406C24.7811 22.5781 24.8436 22.4766 24.9217 22.4219C24.992 22.3672 25.1014 22.2344 25.1561 22.125C25.3983 21.6719 25.7186 21.4219 26.0701 21.4219C26.2576 21.4219 26.3279 21.4687 26.4061 21.6484C26.5467 21.9687 26.9061 22.125 27.2654 22.0312C27.4295 21.9922 27.703 21.9375 27.8905 21.9141C28.2108 21.8672 28.2186 21.875 28.2186 22.1016C28.2186 22.2344 28.1152 22.4541 28.0526 22.501C27.8729 22.6494 26.4764 24.6016 25.9764 25.4062C25.7186 25.8125 25.1717 26.75 24.7655 27.4765C22.742 31.0938 21.1603 33.9945 21.0509 33.9945C21.0197 33.9945 20.4494 32.0705 20.4885 31.9767C20.5276 31.8752 21.0544 31.329 21.0232 31.243C20.9685 31.0946 20.2082 31.5646 20.3644 31.3615C20.4269 31.2912 21.4651 29.3719 21.5198 29.1298C21.5744 28.9032 22.3412 27.0868 22.8724 26.1102C23.2005 25.4931 24.9373 24.9844 24.9373 24.9375C24.9373 24.8984 24.9764 24.8594 25.0154 24.8594C25.0623 24.8594 25.0936 24.7891 25.0936 24.7031C25.0936 24.6172 25.1248 24.5469 25.1639 24.5469C25.2498 24.5469 25.7967 23.4375 25.7967 23.2656C25.7967 23.1953 25.8358 23.1406 25.8826 23.1406C25.9295 23.1406 25.9451 23.0703 25.9139 22.9844C25.8826 22.8984 25.8983 22.8281 25.9451 22.8281C25.992 22.8281 26.0311 22.7578 26.0311 22.6641C26.0311 22.4062 26.5863 22.8079 26.734 22.8647C26.8355 22.9038 26.8087 25.5672 26.3954 22.9444C26.3739 22.8078 25.9719 23.3271 25.9406 23.2412C25.9016 23.124 26.7686 23.3004 26.378 23.777C25.1983 25.2144 22.9842 25.7969 20.8748 29.4297C19.2733 32.1797 19.0311 32.539 18.8358 32.4922C18.7576 32.4687 18.6873 32.4844 18.6873 32.5312C18.6873 32.5703 18.6561 32.5781 18.6092 32.5547C18.5701 32.5312 18.5311 32.5469 18.5311 32.5859C18.5311 32.6797 18.4139 32.6797 17.9061 32.5859Z" fill="url(#paint59_linear_31_7115)"/>
<path d="M17.8829 21.414C17.5157 21.2187 17.0626 20.7656 16.8282 20.3359C16.8106 20.3476 16.5922 19.8396 16.6219 19.8201L17.5392 20.0156H18.4298L18.3673 20.3906C18.336 20.5937 18.3048 20.9453 18.3048 21.1719C18.297 21.3906 18.2735 21.5781 18.2423 21.5781C18.2032 21.5703 18.047 21.5 17.8829 21.414Z" fill="url(#paint60_linear_31_7115)"/>
<path d="M15.7264 30.5469C15.8748 30.3984 16.4373 29.5078 16.9764 28.5625C19.1404 24.8047 20.8436 21.8984 21.2108 21.3437C21.6405 20.6953 23.1327 19.164 23.703 18.7734L24.3132 18.4036L24.078 18.7422C24.078 18.8672 23.953 19.1953 23.8045 19.4766C23.492 20.0781 23.2733 20.9062 23.3436 21.2734C23.4217 21.664 23.6717 22.0859 23.9295 22.2343C24.1561 22.3672 24.1717 22.3672 24.6483 22.1328C25.2498 21.8359 25.4139 21.7344 25.5467 21.5625C25.6092 21.4765 25.7498 21.4219 25.9217 21.4219C26.1717 21.4219 26.1873 21.4375 26.1795 21.6797C26.1717 21.8125 26.1561 21.8672 26.1327 21.789C26.117 21.7187 26.0701 21.6562 26.0389 21.6562C25.7186 21.6562 23.703 24.6094 21.617 28.1016C20.2811 30.3516 20.0233 30.7656 20.1326 30.4687C20.2108 30.2734 20.1092 30.1406 19.9764 30.25C19.8904 30.3203 19.6873 30.3125 19.1404 30.2187C18.3358 30.0859 17.1248 29.9375 16.7889 29.9375C16.6405 29.9375 16.4842 30.0312 16.2655 30.2734C16.0936 30.4531 15.9295 30.6015 15.8905 30.6015C15.8592 30.6094 15.7498 30.6562 15.6483 30.7109C15.4998 30.789 15.5233 30.7578 15.7264 30.5469Z" fill="url(#paint61_linear_31_7115)"/>
<path d="M24.5469 27.6719C24.6329 27.5 24.7266 27.3594 24.7423 27.3594C24.7657 27.3594 24.711 27.5 24.6251 27.6719C24.5391 27.8438 24.4454 27.9844 24.4298 27.9844C24.4063 27.9844 24.461 27.8438 24.5469 27.6719Z" fill="url(#paint62_linear_31_7115)"/>
<path d="M24.9376 26.9687C25.0235 26.7969 25.1172 26.6562 25.1329 26.6562C25.1563 26.6562 25.1016 26.7969 25.0157 26.9687C24.9297 27.1406 24.836 27.2813 24.8204 27.2813C24.7969 27.2813 24.8516 27.1406 24.9376 26.9687Z" fill="url(#paint63_linear_31_7115)"/>
<path d="M25.258 26.4062C25.4377 26.0703 26.2189 24.8203 26.4767 24.4609C26.6173 24.2578 26.7345 24.0781 26.7345 24.0469C26.7345 24.0156 26.8751 23.8047 27.047 23.5781C27.2189 23.3516 27.3595 23.1015 27.3595 23.0312C27.3595 22.9609 27.3986 22.9219 27.4376 22.9453C27.508 22.9922 27.547 22.8672 27.5392 22.6172C27.5314 22.5625 27.5705 22.5156 27.6095 22.5156C27.7189 22.5156 27.9064 22.3047 27.8517 22.25C27.7736 22.1719 27.6564 22.1953 27.7111 22.2812C27.7423 22.3281 27.6642 22.3359 27.508 22.3047C27.3361 22.2734 27.2736 22.2812 27.3048 22.3437C27.3439 22.3906 27.3048 22.4063 27.2033 22.3828C27.0001 22.3281 27.0001 22.125 27.2033 22.125C27.2892 22.125 27.3595 22.0937 27.3595 22.0469C27.3595 22.0078 27.3986 21.9687 27.4454 21.9687C27.4923 21.9687 27.7345 21.875 27.9845 21.7656C28.2345 21.6563 29.1437 21.2179 29.1856 21.1694C29.3029 21.0336 30.3143 20.0855 28.5547 21.9126C28.4822 21.9879 27.7744 22.8508 27.6826 22.9509C27.3934 23.267 27.6858 22.8728 27.6798 22.8906C27.672 22.9219 27.4454 23.2422 27.172 23.6094C26.5939 24.3906 26.0314 25.2188 25.5704 26.0156C25.3829 26.3203 25.2189 26.5781 25.2033 26.5781C25.1798 26.5781 25.2111 26.5 25.258 26.4062Z" fill="url(#paint64_linear_31_7115)"/>
<path d="M18.2421 20.3828C18.289 20.2578 17.5468 20.2109 17.3905 20.336C17.3046 20.4063 17.2811 20.3984 17.2811 20.3203C17.2811 20.2344 17.2655 20.2344 17.2186 20.3047C17.164 20.3828 17.1092 20.3828 16.9452 20.3047C16.6796 20.1875 16.4732 19.6479 16.4999 18.9922C16.5438 17.9125 17.2935 17.2862 17.7919 17.2421C18.155 17.2098 18.4726 17.2389 18.7067 17.5007C18.9409 17.7625 19.0075 17.8599 18.9999 18.2187C18.9939 18.4999 18.9296 18.7734 18.7733 19.1172C18.6483 19.3906 18.4999 19.8047 18.4374 20.0469C18.3827 20.2891 18.3046 20.4844 18.2733 20.4844C18.2342 20.4844 18.2186 20.4375 18.2421 20.3828Z" fill="url(#paint65_linear_31_7115)"/>
<path d="M20.7343 18.8281C20.5468 18.6016 20.3827 17.7656 20.3827 17.0469C20.3749 16.2344 20.4921 15.5781 20.7421 14.9766C20.9296 14.5156 21.5546 13.5312 21.664 13.5312C21.703 13.5312 21.7343 13.6562 21.7343 13.8047C21.7343 14.0312 21.703 14.0781 21.5624 14.0781C21.4296 14.0781 21.4139 14.1015 21.4843 14.1719C21.5389 14.2266 21.578 14.3281 21.578 14.4062C21.578 14.7578 23.1405 15.4922 24.1874 15.6328C24.7811 15.7187 24.8124 15.7109 25.1405 15.5234C25.3202 15.4141 25.578 15.3281 25.7108 15.3281C25.9374 15.3281 25.953 15.3047 25.953 15.0547C25.953 14.875 25.9921 14.7812 26.0624 14.7812C26.1171 14.7812 26.1874 14.6797 26.2186 14.5469C26.2577 14.3516 26.2967 14.3125 26.4999 14.3125C26.6249 14.3125 26.5508 13.5075 26.5508 13.5465C26.8931 13.5048 26.3718 14.9467 25.5603 15.4771C25.4665 15.5162 25.9846 15.372 25.969 15.4501C25.9142 15.6376 25.0546 16.2031 24.328 16.5C22.7342 17.1641 21.5389 17.9531 21.1093 18.6484C20.9296 18.9453 20.8592 18.9766 20.7343 18.8281Z" fill="url(#paint66_linear_31_7115)"/>
<path d="M26.1094 21.7734C26.1094 21.6328 25.9453 21.6172 25.8125 21.75C25.7422 21.8203 25.7188 21.7891 25.7188 21.5938C25.7188 21.3594 25.7344 21.3438 25.9922 21.3438C26.25 21.3438 26.2656 21.3594 26.2656 21.6172C26.2656 21.7656 26.2344 21.8906 26.1875 21.8906C26.1484 21.8906 26.1094 21.8359 26.1094 21.7734Z" fill="#59E9FE"/>
<path d="M24.1171 15.8985C23.7343 15.8437 23.1718 15.711 22.8671 15.6016C22.1171 15.3281 21.3671 14.8438 21.3281 14.6094C21.3124 14.5078 21.2656 14.4297 21.2109 14.4297C21.164 14.4297 21.0841 14.5968 21.0528 14.5656C21.0221 14.5267 21.0701 14.3227 21.1015 14.3125C21.1329 14.3023 21.1649 14.2766 21.1562 14.2422C21.1474 14.2078 21.2353 14.0884 21.3046 13.9687C21.385 13.8301 21.4784 13.7181 21.4999 13.6953C21.5635 13.628 21.7812 13.375 21.9218 13.375C22 13.375 22.2109 13.4844 22.4062 13.6172C22.9609 13.9922 23.7109 14.3125 24.25 14.3985C24.6796 14.4688 24.8359 14.4531 25.5077 14.2734C25.9218 14.1641 26.3515 14.0781 26.4609 14.0781C26.6327 14.0781 26.6562 14.1094 26.6562 14.3594C26.6562 14.5234 26.6249 14.6172 26.5781 14.586C26.539 14.5625 26.5 14.5625 26.4921 14.6016C26.4921 14.6328 26.4765 14.7422 26.4687 14.8438C26.4531 14.9453 26.2577 15.2109 26.0312 15.4297C25.8046 15.6562 25.6406 15.7734 25.6718 15.6953C25.7187 15.5625 25.7031 15.5625 25.4609 15.711C25.0234 15.9844 24.8593 16.0078 24.1171 15.8985Z" fill="url(#paint67_linear_31_7115)"/>
<path d="M29.508 13.7656C28.6408 13.336 28.4797 12.0816 29.258 11.4922C29.5091 11.302 30.1631 11.0741 30.3552 11.2316C30.5505 11.4347 30.4924 11.5447 30.9768 11.5213C30.9752 11.5078 31.3484 11.7964 31.383 12.0781C31.8283 13.2422 30.6252 14.3203 29.508 13.7656Z" fill="url(#paint68_linear_31_7115)"/>
<path d="M23.8986 14.625C23.4611 14.5469 22.672 14.1953 22.1564 13.8359C21.8517 13.625 21.7658 13.6015 21.6486 13.6797C21.3361 13.8672 21.5236 13.6015 21.9923 13.1797C22.6642 12.5703 23.5627 12.1328 24.2814 12.0703C25.6798 11.9531 26.5529 12.792 26.7204 13.9676C26.7568 14.223 26.5692 14.8594 26.4134 14.9544C26.2576 15.0494 26.2779 14.9097 26.2779 14.8628C26.2779 14.8237 26.3737 14.6658 26.3346 14.7283C26.2721 14.822 26.422 14.6953 26.422 14.539V14.3359L25.7111 14.5156C24.9767 14.7109 24.5548 14.7344 23.8986 14.625Z" fill="url(#paint69_linear_31_7115)"/>
<path d="M31.2344 12.0703C31.2032 12.0313 30.8985 12.0078 30.5625 12.0078C30.0078 12.0078 29.9375 11.9922 29.7422 11.7969C29.625 11.6719 29.4532 11.5781 29.3672 11.5781C29.1329 11.5781 29.336 11.375 29.6875 11.2578C30.0704 11.1328 30.336 11.1485 30.6954 11.3282C31.0469 11.5157 31.2578 11.7266 31.3047 11.961C31.336 12.1406 31.3281 12.1563 31.2344 12.0703Z" fill="url(#paint70_linear_31_7115)"/>
<path d="M26.3593 22.125C26.2578 22.0313 26.1406 21.8672 26.1015 21.7578C26.039 21.5938 25.6502 21.7904 25.5565 21.8685C25.4549 21.9545 25.7968 21.7187 25.7968 21.5312C25.7968 21.3516 25.9531 21.1328 26.5156 20.5313C27.4921 19.4844 27.914 19.1562 28.2968 19.1562C28.5703 19.1562 28.5937 19.1719 28.6406 19.4531C28.7578 20.1719 28.6093 21.1797 28.3437 21.4453C28.2812 21.5 28.25 21.6406 28.2734 21.7422C28.3046 21.9141 28.2656 21.9609 27.9687 22.0781C27.7812 22.1562 27.3906 22.2344 27.0859 22.2578C26.6015 22.2891 26.5156 22.2734 26.3593 22.125Z" fill="url(#paint71_linear_31_7115)"/>
<path d="M28.0312 21.9531C28.0703 21.8984 28.0469 21.8828 27.9609 21.9141C27.8828 21.9453 27.8516 21.9297 27.8672 21.8672C27.8906 21.8125 27.9219 21.6797 27.9375 21.5547C27.9609 21.4375 28.0312 21.2891 28.0938 21.2187C28.3516 20.9609 28.5625 19.8594 28.3672 19.7344C28.3203 19.7109 28.2969 19.6172 28.3203 19.5391C28.3438 19.4531 28.3281 19.3906 28.2969 19.3906C28.1563 19.3906 27.4375 20.0313 26.75 20.7656L26.0312 21.5391V21.2578C26.0312 20.9375 26.1484 20.7969 26.3985 20.7969C26.5391 20.7969 26.5781 20.7578 26.5781 20.5781C26.5781 20.4219 26.6875 20.25 26.9922 19.9531C27.2188 19.7266 27.4219 19.5469 27.4453 19.5469C27.4687 19.5469 27.6484 19.3985 27.8437 19.2188C28.5937 18.5234 29.6484 18.0391 30.625 17.9453C31.1484 17.8906 31.1875 17.8985 31.375 18.086C31.6016 18.3125 31.6953 18.6016 31.625 18.875C31.6016 18.9844 31.2891 19.3281 30.9375 19.6406C30.5781 19.9531 29.9219 20.5703 29.4688 21.0078C29.0078 21.4531 28.5156 21.8516 28.3438 21.9219C27.9844 22.0703 27.9609 22.0703 28.0312 21.9531Z" fill="url(#paint72_linear_31_7115)"/>
<path d="M23.8514 22.5234C23.5312 22.4375 23.2186 21.9609 23.1483 21.4687C23.0311 20.5859 23.3749 19.3906 23.953 18.7031C24.3749 18.2109 25.9843 17.4375 27.1327 17.1719C28.8046 16.789 30.3202 17.0313 31.1327 17.8125C31.4843 18.1484 31.6561 18.4453 31.6561 18.7188C31.6561 18.9219 31.4765 19.1562 31.3202 19.1562C31.2655 19.1484 31.3046 19.0859 31.4062 19.0078C31.6171 18.8203 31.6249 18.6094 31.4218 18.375C31.2968 18.2266 31.1952 18.1953 30.8358 18.2031C29.6015 18.2109 28.1015 19.1719 26.5624 20.9297C25.7968 21.7969 25.1405 22.3125 24.5624 22.4844C24.1796 22.6015 24.1327 22.6015 23.8514 22.5234Z" fill="url(#paint73_linear_31_7115)"/>
</g>
</g>
<defs>
<filter id="filter0_i_31_7115" x="3" y="3" width="42" height="46" filterUnits="userSpaceOnUse" color-interpolation-filters="sRGB">
<feFlood flood-opacity="0" result="BackgroundImageFix"/>
<feBlend mode="normal" in="SourceGraphic" in2="BackgroundImageFix" result="shape"/>
<feColorMatrix in="SourceAlpha" type="matrix" values="0 0 0 0 0 0 0 0 0 0 0 0 0 0 0 0 0 0 127 0" result="hardAlpha"/>
<feOffset dy="4"/>
<feGaussianBlur stdDeviation="2"/>
<feComposite in2="hardAlpha" operator="arithmetic" k2="-1" k3="1"/>
<feColorMatrix type="matrix" values="0 0 0 0 0 0 0 0 0 0 0 0 0 0 0 0 0 0 0.25 0"/>
<feBlend mode="normal" in2="shape" result="effect1_innerShadow_31_7115"/>
</filter>
<linearGradient id="paint0_linear_31_7115" x1="0" y1="0" x2="56.8781" y2="32.4276" gradientUnits="userSpaceOnUse">
<stop stop-color="#00CCE6"/>
<stop offset="1" stop-color="#0082E7"/>
</linearGradient>
<linearGradient id="paint1_linear_31_7115" x1="14.839" y1="14.4118" x2="16.4463" y2="11.6448" gradientUnits="userSpaceOnUse">
<stop stop-color="#1964E7"/>
<stop offset="1" stop-color="#6884F2"/>
</linearGradient>
<linearGradient id="paint2_linear_31_7115" x1="9.36614" y1="11.6652" x2="10.9734" y2="14.4321" gradientUnits="userSpaceOnUse">
<stop stop-color="#00CCE6"/>
<stop offset="1" stop-color="#0082E7"/>
</linearGradient>
<radialGradient id="paint3_radial_31_7115" cx="0" cy="0" r="1" gradientUnits="userSpaceOnUse" gradientTransform="translate(15.2663 14.0049) scale(2.33968)">
<stop offset="0.23" stop-color="#00CDFF"/>
<stop offset="0.49" stop-color="#00BCFA"/>
<stop offset="0.77" stop-color="#00ABF8"/>
<stop offset="1" stop-color="#0098F7"/>
</radialGradient>
<radialGradient id="paint4_radial_31_7115" cx="0" cy="0" r="1" gradientUnits="userSpaceOnUse" gradientTransform="translate(15.2665 14.0049) scale(2.33968)">
<stop offset="0.23" stop-color="#00CDFF"/>
<stop offset="0.49" stop-color="#00BCFA"/>
<stop offset="0.77" stop-color="#00ABF8"/>
<stop offset="1" stop-color="#0098F7"/>
</radialGradient>
<radialGradient id="paint5_radial_31_7115" cx="0" cy="0" r="1" gradientUnits="userSpaceOnUse" gradientTransform="translate(15.2663 14.0049) scale(2.33968)">
<stop offset="0.23" stop-color="#00CDFF"/>
<stop offset="0.49" stop-color="#00BCFA"/>
<stop offset="0.77" stop-color="#00ABF8"/>
<stop offset="1" stop-color="#0098F7"/>
</radialGradient>
<radialGradient id="paint6_radial_31_7115" cx="0" cy="0" r="1" gradientUnits="userSpaceOnUse" gradientTransform="translate(15.2662 14.0049) scale(2.33969 2.33968)">
<stop offset="0.23" stop-color="#00CDFF"/>
<stop offset="0.49" stop-color="#00BCFA"/>
<stop offset="0.77" stop-color="#00ABF8"/>
<stop offset="1" stop-color="#0098F7"/>
</radialGradient>
<radialGradient id="paint7_radial_31_7115" cx="0" cy="0" r="1" gradientUnits="userSpaceOnUse" gradientTransform="translate(15.2662 14.0049) scale(2.33968 2.33968)">
<stop offset="0.23" stop-color="#00CDFF"/>
<stop offset="0.49" stop-color="#00BCFA"/>
<stop offset="0.77" stop-color="#00ABF8"/>
<stop offset="1" stop-color="#0098F7"/>
</radialGradient>
<radialGradient id="paint8_radial_31_7115" cx="0" cy="0" r="1" gradientUnits="userSpaceOnUse" gradientTransform="translate(15.2663 14.0049) scale(2.33968 2.33968)">
<stop offset="0.23" stop-color="#00CDFF"/>
<stop offset="0.49" stop-color="#00BCFA"/>
<stop offset="0.77" stop-color="#00ABF8"/>
<stop offset="1" stop-color="#0098F7"/>
</radialGradient>
<radialGradient id="paint9_radial_31_7115" cx="0" cy="0" r="1" gradientUnits="userSpaceOnUse" gradientTransform="translate(15.2663 14.0048) scale(2.33968 2.33968)">
<stop offset="0.23" stop-color="#00CDFF"/>
<stop offset="0.49" stop-color="#00BCFA"/>
<stop offset="0.77" stop-color="#00ABF8"/>
<stop offset="1" stop-color="#0098F7"/>
</radialGradient>
<radialGradient id="paint10_radial_31_7115" cx="0" cy="0" r="1" gradientUnits="userSpaceOnUse" gradientTransform="translate(15.2661 14.0049) scale(2.33968)">
<stop offset="0.23" stop-color="#00CDFF"/>
<stop offset="0.49" stop-color="#00BCFA"/>
<stop offset="0.77" stop-color="#00ABF8"/>
<stop offset="1" stop-color="#0098F7"/>
</radialGradient>
<radialGradient id="paint11_radial_31_7115" cx="0" cy="0" r="1" gradientUnits="userSpaceOnUse" gradientTransform="translate(15.2663 14.0049) scale(2.33968 2.33968)">
<stop offset="0.23" stop-color="#00CDFF"/>
<stop offset="0.49" stop-color="#00BCFA"/>
<stop offset="0.77" stop-color="#00ABF8"/>
<stop offset="1" stop-color="#0098F7"/>
</radialGradient>
<radialGradient id="paint12_radial_31_7115" cx="0" cy="0" r="1" gradientUnits="userSpaceOnUse" gradientTransform="translate(15.2663 14.0049) scale(2.33968 2.33968)">
<stop offset="0.23" stop-color="#00CDFF"/>
<stop offset="0.49" stop-color="#00BCFA"/>
<stop offset="0.77" stop-color="#00ABF8"/>
<stop offset="1" stop-color="#0098F7"/>
</radialGradient>
<linearGradient id="paint13_linear_31_7115" x1="9.36639" y1="11.6652" x2="10.9736" y2="14.4321" gradientUnits="userSpaceOnUse">
<stop stop-color="#00CCE6"/>
<stop offset="1" stop-color="#0082E7"/>
</linearGradient>
<linearGradient id="paint14_linear_31_7115" x1="9.36615" y1="11.6652" x2="10.9734" y2="14.4321" gradientUnits="userSpaceOnUse">
<stop stop-color="#00CCE6"/>
<stop offset="1" stop-color="#0082E7"/>
</linearGradient>
<linearGradient id="paint15_linear_31_7115" x1="11.2786" y1="12.54" x2="12.9063" y2="15.3477" gradientUnits="userSpaceOnUse">
<stop stop-color="#0CF4FF"/>
<stop offset="0.28" stop-color="#04EEFE"/>
<stop offset="1" stop-color="#00B1F7"/>
</linearGradient>
<linearGradient id="paint16_linear_31_7115" x1="9.36621" y1="11.6652" x2="10.9735" y2="14.4321" gradientUnits="userSpaceOnUse">
<stop stop-color="#00CCE6"/>
<stop offset="1" stop-color="#0082E7"/>
</linearGradient>
<radialGradient id="paint17_radial_31_7115" cx="0" cy="0" r="1" gradientUnits="userSpaceOnUse" gradientTransform="translate(15.2663 14.0049) scale(2.33968)">
<stop offset="0.23" stop-color="#00CDFF"/>
<stop offset="0.49" stop-color="#00BCFA"/>
<stop offset="0.77" stop-color="#00ABF8"/>
<stop offset="1" stop-color="#0098F7"/>
</radialGradient>
<radialGradient id="paint18_radial_31_7115" cx="0" cy="0" r="1" gradientUnits="userSpaceOnUse" gradientTransform="translate(15.2663 14.0049) scale(2.33968 2.33967)">
<stop offset="0.23" stop-color="#00CDFF"/>
<stop offset="0.49" stop-color="#00BCFA"/>
<stop offset="0.77" stop-color="#00ABF8"/>
<stop offset="1" stop-color="#0098F7"/>
</radialGradient>
<radialGradient id="paint19_radial_31_7115" cx="0" cy="0" r="1" gradientUnits="userSpaceOnUse" gradientTransform="translate(15.2665 14.0049) scale(2.33968 2.33968)">
<stop offset="0.23" stop-color="#00CDFF"/>
<stop offset="0.49" stop-color="#00BCFA"/>
<stop offset="0.77" stop-color="#00ABF8"/>
<stop offset="1" stop-color="#0098F7"/>
</radialGradient>
<radialGradient id="paint20_radial_31_7115" cx="0" cy="0" r="1" gradientUnits="userSpaceOnUse" gradientTransform="translate(15.2663 14.0049) scale(2.33968)">
<stop offset="0.23" stop-color="#00CDFF"/>
<stop offset="0.49" stop-color="#00BCFA"/>
<stop offset="0.77" stop-color="#00ABF8"/>
<stop offset="1" stop-color="#0098F7"/>
</radialGradient>
<radialGradient id="paint21_radial_31_7115" cx="0" cy="0" r="1" gradientUnits="userSpaceOnUse" gradientTransform="translate(15.2664 14.0048) scale(2.33969)">
<stop offset="0.23" stop-color="#00CDFF"/>
<stop offset="0.49" stop-color="#00BCFA"/>
<stop offset="0.77" stop-color="#00ABF8"/>
<stop offset="1" stop-color="#0098F7"/>
</radialGradient>
<radialGradient id="paint22_radial_31_7115" cx="0" cy="0" r="1" gradientUnits="userSpaceOnUse" gradientTransform="translate(15.2662 14.0048) scale(2.33969 2.33969)">
<stop offset="0.23" stop-color="#00CDFF"/>
<stop offset="0.49" stop-color="#00BCFA"/>
<stop offset="0.77" stop-color="#00ABF8"/>
<stop offset="1" stop-color="#0098F7"/>
</radialGradient>
<radialGradient id="paint23_radial_31_7115" cx="0" cy="0" r="1" gradientUnits="userSpaceOnUse" gradientTransform="translate(15.2663 14.0049) scale(2.33967 2.33967)">
<stop offset="0.23" stop-color="#00CDFF"/>
<stop offset="0.49" stop-color="#00BCFA"/>
<stop offset="0.77" stop-color="#00ABF8"/>
<stop offset="1" stop-color="#0098F7"/>
</radialGradient>
<radialGradient id="paint24_radial_31_7115" cx="0" cy="0" r="1" gradientUnits="userSpaceOnUse" gradientTransform="translate(15.2662 14.0049) scale(2.33969 2.33967)">
<stop offset="0.23" stop-color="#00CDFF"/>
<stop offset="0.49" stop-color="#00BCFA"/>
<stop offset="0.77" stop-color="#00ABF8"/>
<stop offset="1" stop-color="#0098F7"/>
</radialGradient>
<linearGradient id="paint25_linear_31_7115" x1="9.36624" y1="11.6652" x2="10.9735" y2="14.4321" gradientUnits="userSpaceOnUse">
<stop stop-color="#00CCE6"/>
<stop offset="1" stop-color="#0082E7"/>
</linearGradient>
<linearGradient id="paint26_linear_31_7115" x1="9.36605" y1="11.6652" x2="10.9733" y2="14.4321" gradientUnits="userSpaceOnUse">
<stop stop-color="#00CCE6"/>
<stop offset="1" stop-color="#0082E7"/>
</linearGradient>
<linearGradient id="paint27_linear_31_7115" x1="11.2787" y1="12.5401" x2="12.9062" y2="15.3477" gradientUnits="userSpaceOnUse">
<stop stop-color="#0CF4FF"/>
<stop offset="0.28" stop-color="#04EEFE"/>
<stop offset="1" stop-color="#00B1F7"/>
</linearGradient>
<radialGradient id="paint28_radial_31_7115" cx="0" cy="0" r="1" gradientUnits="userSpaceOnUse" gradientTransform="translate(15.2663 14.0049) scale(2.33968)">
<stop offset="0.23" stop-color="#00CDFF"/>
<stop offset="0.49" stop-color="#00BCFA"/>
<stop offset="0.77" stop-color="#00ABF8"/>
<stop offset="1" stop-color="#0098F7"/>
</radialGradient>
<radialGradient id="paint29_radial_31_7115" cx="0" cy="0" r="1" gradientUnits="userSpaceOnUse" gradientTransform="translate(15.2664 14.0049) scale(2.33968)">
<stop offset="0.23" stop-color="#00CDFF"/>
<stop offset="0.49" stop-color="#00BCFA"/>
<stop offset="0.77" stop-color="#00ABF8"/>
<stop offset="1" stop-color="#0098F7"/>
</radialGradient>
<radialGradient id="paint30_radial_31_7115" cx="0" cy="0" r="1" gradientUnits="userSpaceOnUse" gradientTransform="translate(15.2661 14.0049) scale(2.33968)">
<stop offset="0.23" stop-color="#00CDFF"/>
<stop offset="0.49" stop-color="#00BCFA"/>
<stop offset="0.77" stop-color="#00ABF8"/>
<stop offset="1" stop-color="#0098F7"/>
</radialGradient>
<radialGradient id="paint31_radial_31_7115" cx="0" cy="0" r="1" gradientUnits="userSpaceOnUse" gradientTransform="translate(15.2665 14.0049) scale(2.33969 2.33968)">
<stop offset="0.23" stop-color="#00CDFF"/>
<stop offset="0.49" stop-color="#00BCFA"/>
<stop offset="0.77" stop-color="#00ABF8"/>
<stop offset="1" stop-color="#0098F7"/>
</radialGradient>
<radialGradient id="paint32_radial_31_7115" cx="0" cy="0" r="1" gradientUnits="userSpaceOnUse" gradientTransform="translate(15.2662 14.0048) scale(2.33969 2.33969)">
<stop offset="0.23" stop-color="#00CDFF"/>
<stop offset="0.49" stop-color="#00BCFA"/>
<stop offset="0.77" stop-color="#00ABF8"/>
<stop offset="1" stop-color="#0098F7"/>
</radialGradient>
<radialGradient id="paint33_radial_31_7115" cx="0" cy="0" r="1" gradientUnits="userSpaceOnUse" gradientTransform="translate(15.2662 14.0049) scale(2.33969 2.33968)">
<stop offset="0.23" stop-color="#00CDFF"/>
<stop offset="0.49" stop-color="#00BCFA"/>
<stop offset="0.77" stop-color="#00ABF8"/>
<stop offset="1" stop-color="#0098F7"/>
</radialGradient>
<radialGradient id="paint34_radial_31_7115" cx="0" cy="0" r="1" gradientUnits="userSpaceOnUse" gradientTransform="translate(15.2663 14.0049) scale(2.33968 2.33969)">
<stop offset="0.23" stop-color="#00CDFF"/>
<stop offset="0.49" stop-color="#00BCFA"/>
<stop offset="0.77" stop-color="#00ABF8"/>
<stop offset="1" stop-color="#0098F7"/>
</radialGradient>
<radialGradient id="paint35_radial_31_7115" cx="0" cy="0" r="1" gradientUnits="userSpaceOnUse" gradientTransform="translate(15.2663 14.0049) scale(2.33968 2.33968)">
<stop offset="0.23" stop-color="#00CDFF"/>
<stop offset="0.49" stop-color="#00BCFA"/>
<stop offset="0.77" stop-color="#00ABF8"/>
<stop offset="1" stop-color="#0098F7"/>
</radialGradient>
<radialGradient id="paint36_radial_31_7115" cx="0" cy="0" r="1" gradientUnits="userSpaceOnUse" gradientTransform="translate(15.2662 14.0049) scale(2.33968 2.33968)">
<stop offset="0.23" stop-color="#00CDFF"/>
<stop offset="0.49" stop-color="#00BCFA"/>
<stop offset="0.77" stop-color="#00ABF8"/>
<stop offset="1" stop-color="#0098F7"/>
</radialGradient>
<radialGradient id="paint37_radial_31_7115" cx="0" cy="0" r="1" gradientUnits="userSpaceOnUse" gradientTransform="translate(15.2664 14.0049) scale(2.33967 2.33968)">
<stop offset="0.23" stop-color="#00CDFF"/>
<stop offset="0.49" stop-color="#00BCFA"/>
<stop offset="0.77" stop-color="#00ABF8"/>
<stop offset="1" stop-color="#0098F7"/>
</radialGradient>
<radialGradient id="paint38_radial_31_7115" cx="0" cy="0" r="1" gradientUnits="userSpaceOnUse" gradientTransform="translate(15.2663 14.0049) scale(2.33967 2.33968)">
<stop offset="0.23" stop-color="#00CDFF"/>
<stop offset="0.49" stop-color="#00BCFA"/>
<stop offset="0.77" stop-color="#00ABF8"/>
<stop offset="1" stop-color="#0098F7"/>
</radialGradient>
<radialGradient id="paint39_radial_31_7115" cx="0" cy="0" r="1" gradientUnits="userSpaceOnUse" gradientTransform="translate(15.2661 14.0049) scale(2.33969 2.33967)">
<stop offset="0.23" stop-color="#00CDFF"/>
<stop offset="0.49" stop-color="#00BCFA"/>
<stop offset="0.77" stop-color="#00ABF8"/>
<stop offset="1" stop-color="#0098F7"/>
</radialGradient>
<linearGradient id="paint40_linear_31_7115" x1="14.8391" y1="14.4118" x2="16.4463" y2="11.6449" gradientUnits="userSpaceOnUse">
<stop stop-color="#1964E7"/>
<stop offset="1" stop-color="#6884F2"/>
</linearGradient>
<linearGradient id="paint41_linear_31_7115" x1="9.36614" y1="11.6652" x2="10.9734" y2="14.4322" gradientUnits="userSpaceOnUse">
<stop stop-color="#00CCE6"/>
<stop offset="1" stop-color="#0082E7"/>
</linearGradient>
<linearGradient id="paint42_linear_31_7115" x1="11.2784" y1="12.54" x2="12.9059" y2="15.3477" gradientUnits="userSpaceOnUse">
<stop stop-color="#0CF4FF"/>
<stop offset="0.28" stop-color="#04EEFE"/>
<stop offset="1" stop-color="#00B1F7"/>
</linearGradient>
<radialGradient id="paint43_radial_31_7115" cx="0" cy="0" r="1" gradientUnits="userSpaceOnUse" gradientTransform="translate(15.2663 14.0049) scale(2.33968 2.33968)">
<stop offset="0.23" stop-color="#00CDFF"/>
<stop offset="0.49" stop-color="#00BCFA"/>
<stop offset="0.77" stop-color="#00ABF8"/>
<stop offset="1" stop-color="#0098F7"/>
</radialGradient>
<radialGradient id="paint44_radial_31_7115" cx="0" cy="0" r="1" gradientUnits="userSpaceOnUse" gradientTransform="translate(15.2663 14.0049) scale(2.33968)">
<stop offset="0.23" stop-color="#00CDFF"/>
<stop offset="0.49" stop-color="#00BCFA"/>
<stop offset="0.77" stop-color="#00ABF8"/>
<stop offset="1" stop-color="#0098F7"/>
</radialGradient>
<radialGradient id="paint45_radial_31_7115" cx="0" cy="0" r="1" gradientUnits="userSpaceOnUse" gradientTransform="translate(15.2663 14.0049) scale(2.33968 2.33967)">
<stop offset="0.23" stop-color="#00CDFF"/>
<stop offset="0.49" stop-color="#00BCFA"/>
<stop offset="0.77" stop-color="#00ABF8"/>
<stop offset="1" stop-color="#0098F7"/>
</radialGradient>
<radialGradient id="paint46_radial_31_7115" cx="0" cy="0" r="1" gradientUnits="userSpaceOnUse" gradientTransform="translate(15.2663 14.0049) scale(2.33968)">
<stop offset="0.23" stop-color="#00CDFF"/>
<stop offset="0.49" stop-color="#00BCFA"/>
<stop offset="0.77" stop-color="#00ABF8"/>
<stop offset="1" stop-color="#0098F7"/>
</radialGradient>
<radialGradient id="paint47_radial_31_7115" cx="0" cy="0" r="1" gradientUnits="userSpaceOnUse" gradientTransform="translate(15.2663 14.0049) scale(2.33968 2.33968)">
<stop offset="0.23" stop-color="#00CDFF"/>
<stop offset="0.49" stop-color="#00BCFA"/>
<stop offset="0.77" stop-color="#00ABF8"/>
<stop offset="1" stop-color="#0098F7"/>
</radialGradient>
<radialGradient id="paint48_radial_31_7115" cx="0" cy="0" r="1" gradientUnits="userSpaceOnUse" gradientTransform="translate(15.2663 14.0049) scale(2.33968 2.33968)">
<stop offset="0.23" stop-color="#00CDFF"/>
<stop offset="0.49" stop-color="#00BCFA"/>
<stop offset="0.77" stop-color="#00ABF8"/>
<stop offset="1" stop-color="#0098F7"/>
</radialGradient>
<radialGradient id="paint49_radial_31_7115" cx="0" cy="0" r="1" gradientUnits="userSpaceOnUse" gradientTransform="translate(15.2662 14.0049) scale(2.33969 2.33968)">
<stop offset="0.23" stop-color="#00CDFF"/>
<stop offset="0.49" stop-color="#00BCFA"/>
<stop offset="0.77" stop-color="#00ABF8"/>
<stop offset="1" stop-color="#0098F7"/>
</radialGradient>
<linearGradient id="paint50_linear_31_7115" x1="9.36604" y1="11.6652" x2="10.9733" y2="14.4322" gradientUnits="userSpaceOnUse">
<stop stop-color="#00CCE6"/>
<stop offset="1" stop-color="#0082E7"/>
</linearGradient>
<linearGradient id="paint51_linear_31_7115" x1="9.3662" y1="11.6652" x2="10.9735" y2="14.4321" gradientUnits="userSpaceOnUse">
<stop stop-color="#00CCE6"/>
<stop offset="1" stop-color="#0082E7"/>
</linearGradient>
<linearGradient id="paint52_linear_31_7115" x1="11.2786" y1="12.54" x2="12.9062" y2="15.3477" gradientUnits="userSpaceOnUse">
<stop stop-color="#0CF4FF"/>
<stop offset="0.28" stop-color="#04EEFE"/>
<stop offset="1" stop-color="#00B1F7"/>
</linearGradient>
<radialGradient id="paint53_radial_31_7115" cx="0" cy="0" r="1" gradientUnits="userSpaceOnUse" gradientTransform="translate(15.2665 14.0049) scale(2.33968)">
<stop offset="0.23" stop-color="#00CDFF"/>
<stop offset="0.49" stop-color="#00BCFA"/>
<stop offset="0.77" stop-color="#00ABF8"/>
<stop offset="1" stop-color="#0098F7"/>
</radialGradient>
<radialGradient id="paint54_radial_31_7115" cx="0" cy="0" r="1" gradientUnits="userSpaceOnUse" gradientTransform="translate(15.2664 14.0049) scale(2.33968)">
<stop offset="0.23" stop-color="#00CDFF"/>
<stop offset="0.49" stop-color="#00BCFA"/>
<stop offset="0.77" stop-color="#00ABF8"/>
<stop offset="1" stop-color="#0098F7"/>
</radialGradient>
<radialGradient id="paint55_radial_31_7115" cx="0" cy="0" r="1" gradientUnits="userSpaceOnUse" gradientTransform="translate(15.2661 14.0049) scale(2.33968 2.33968)">
<stop offset="0.23" stop-color="#00CDFF"/>
<stop offset="0.49" stop-color="#00BCFA"/>
<stop offset="0.77" stop-color="#00ABF8"/>
<stop offset="1" stop-color="#0098F7"/>
</radialGradient>
<linearGradient id="paint56_linear_31_7115" x1="11.2786" y1="12.5401" x2="12.9063" y2="15.3477" gradientUnits="userSpaceOnUse">
<stop stop-color="#0CF4FF"/>
<stop offset="0.28" stop-color="#04EEFE"/>
<stop offset="1" stop-color="#00B1F7"/>
</linearGradient>
<radialGradient id="paint57_radial_31_7115" cx="0" cy="0" r="1" gradientUnits="userSpaceOnUse" gradientTransform="translate(15.266 14.0049) scale(2.33969 2.33968)">
<stop offset="0.23" stop-color="#00CDFF"/>
<stop offset="0.49" stop-color="#00BCFA"/>
<stop offset="0.77" stop-color="#00ABF8"/>
<stop offset="1" stop-color="#0098F7"/>
</radialGradient>
<linearGradient id="paint58_linear_31_7115" x1="14.8391" y1="14.4118" x2="16.4464" y2="11.6448" gradientUnits="userSpaceOnUse">
<stop stop-color="#1964E7"/>
<stop offset="1" stop-color="#6884F2"/>
</linearGradient>
<linearGradient id="paint59_linear_31_7115" x1="11.2785" y1="12.54" x2="12.9061" y2="15.3477" gradientUnits="userSpaceOnUse">
<stop stop-color="#0CF4FF"/>
<stop offset="0.28" stop-color="#04EEFE"/>
<stop offset="1" stop-color="#00B1F7"/>
</linearGradient>
<linearGradient id="paint60_linear_31_7115" x1="11.2788" y1="11.2176" x2="11.2788" y2="12.1738" gradientUnits="userSpaceOnUse">
<stop stop-color="#40FAFD"/>
<stop offset="1" stop-color="#00E0FF"/>
</linearGradient>
<linearGradient id="paint61_linear_31_7115" x1="11.2785" y1="12.54" x2="12.9061" y2="15.3477" gradientUnits="userSpaceOnUse">
<stop stop-color="#0CF4FF"/>
<stop offset="0.28" stop-color="#04EEFE"/>
<stop offset="1" stop-color="#00B1F7"/>
</linearGradient>
<linearGradient id="paint62_linear_31_7115" x1="11.2786" y1="12.54" x2="12.9062" y2="15.3477" gradientUnits="userSpaceOnUse">
<stop stop-color="#0CF4FF"/>
<stop offset="0.28" stop-color="#04EEFE"/>
<stop offset="1" stop-color="#00B1F7"/>
</linearGradient>
<linearGradient id="paint63_linear_31_7115" x1="11.2788" y1="12.54" x2="12.9063" y2="15.3477" gradientUnits="userSpaceOnUse">
<stop stop-color="#0CF4FF"/>
<stop offset="0.28" stop-color="#04EEFE"/>
<stop offset="1" stop-color="#00B1F7"/>
</linearGradient>
<linearGradient id="paint64_linear_31_7115" x1="11.2788" y1="12.54" x2="12.9064" y2="15.3477" gradientUnits="userSpaceOnUse">
<stop stop-color="#0CF4FF"/>
<stop offset="0.28" stop-color="#04EEFE"/>
<stop offset="1" stop-color="#00B1F7"/>
</linearGradient>
<linearGradient id="paint65_linear_31_7115" x1="11.2785" y1="11.2176" x2="11.2785" y2="12.1738" gradientUnits="userSpaceOnUse">
<stop stop-color="#40FAFD"/>
<stop offset="1" stop-color="#00E0FF"/>
</linearGradient>
<linearGradient id="paint66_linear_31_7115" x1="12.7841" y1="9.87485" x2="12.7841" y2="11.4821" gradientUnits="userSpaceOnUse">
<stop stop-color="#8EF6FD"/>
<stop offset="1" stop-color="#2BE8FF"/>
</linearGradient>
<linearGradient id="paint67_linear_31_7115" x1="12.7841" y1="9.87482" x2="12.7841" y2="11.4821" gradientUnits="userSpaceOnUse">
<stop stop-color="#8EF6FD"/>
<stop offset="1" stop-color="#2BE8FF"/>
</linearGradient>
<linearGradient id="paint68_linear_31_7115" x1="14.4933" y1="9.63069" x2="14.4933" y2="10.18" gradientUnits="userSpaceOnUse">
<stop stop-color="#92EEFE"/>
<stop offset="1" stop-color="#59E5FE"/>
</linearGradient>
<linearGradient id="paint69_linear_31_7115" x1="12.7843" y1="9.87483" x2="12.7843" y2="11.4821" gradientUnits="userSpaceOnUse">
<stop stop-color="#8EF6FD"/>
<stop offset="1" stop-color="#2BE8FF"/>
</linearGradient>
<linearGradient id="paint70_linear_31_7115" x1="14.4932" y1="9.63072" x2="14.4932" y2="10.18" gradientUnits="userSpaceOnUse">
<stop stop-color="#92EEFE"/>
<stop offset="1" stop-color="#59E5FE"/>
</linearGradient>
<linearGradient id="paint71_linear_31_7115" x1="13.4555" y1="11.238" x2="14.0659" y2="12.2756" gradientUnits="userSpaceOnUse">
<stop stop-color="#A6FEFF"/>
<stop offset="0.53" stop-color="#BFFDFE"/>
<stop offset="1" stop-color="#97EDFF"/>
</linearGradient>
<linearGradient id="paint72_linear_31_7115" x1="13.4555" y1="11.238" x2="14.0659" y2="12.2756" gradientUnits="userSpaceOnUse">
<stop stop-color="#A6FEFF"/>
<stop offset="0.53" stop-color="#BFFDFE"/>
<stop offset="1" stop-color="#97EDFF"/>
</linearGradient>
<linearGradient id="paint73_linear_31_7115" x1="13.4555" y1="11.238" x2="14.0658" y2="12.2755" gradientUnits="userSpaceOnUse">
<stop stop-color="#A6FEFF"/>
<stop offset="0.53" stop-color="#BFFDFE"/>
<stop offset="1" stop-color="#97EDFF"/>
</linearGradient>
<clipPath id="clip0_31_7115">
<rect width="48" height="48" fill="white"/>
</clipPath>
</defs>
</svg>
