<svg width="128" height="128" viewBox="0 0 128 128" fill="none" xmlns="http://www.w3.org/2000/svg">
<rect width="128" height="128" rx="32" fill="url(#paint0_linear_98_89)"/>
<g filter="url(#filter0_i_98_89)">
<rect x="8" y="8" width="112" height="112" rx="24" fill="black" fill-opacity="0.7"/>
<g clip-path="url(#clip0_98_89)">
<g filter="url(#filter1_d_98_89)">
<path fill-rule="evenodd" clip-rule="evenodd" d="M61.8673 47.8914C60.1464 52.1981 58.489 59.325 56.4872 51.1261C54.986 45.3026 51.7782 54.7754 49.4454 56.3992C44.7405 59.9757 42.1366 65.0155 40.047 70.4148C34.5136 65.7098 36.5891 73.261 36.2501 76.9539C36.5517 82.4896 35.6497 88.5429 36.6954 93.7586C41.0865 97.5847 44.2628 103.624 50.7969 103.546C55.2665 105.099 54.7067 98.3408 58.7595 103.949C62.4891 109.061 64.7924 106.072 67.227 103.558C70.7845 109.003 71.874 97.042 74.8751 102.407C79.5132 104.212 83.6719 105.071 84.4329 98.9492C85.3854 94.1145 93.6977 94.0165 91.7501 88.2039C91.4785 82.1731 92.2896 75.7119 91.3516 69.9461C88.2035 67.489 85.7746 61.8151 82.1876 61.3211C77.7495 63.4749 79.4595 53.9788 77.6331 51.1837C77.036 43.8443 75.4639 47.1629 73.7548 52.1961C72.8091 59.4419 68.8337 55.9878 66.8031 51.2455C64.9968 49.7269 62.9384 41.7029 61.8673 47.8914Z" fill="#F3E517"/>
</g>
<mask id="mask0_98_89" style="mask-type:luminance" maskUnits="userSpaceOnUse" x="38" y="48" width="52" height="55">
<path d="M38.5 86.7039L40 88.2039L42.25 95.7039L43 86.7039L45.25 97.9539V83.7039L46.75 87.4539L49 97.9539V83.7039L50.5 85.2039L52.75 97.9539L55 80.7039L59.9618 100.144L60.25 88.2039L61.75 83.7039L63.25 102.454L67.75 83.7039L69.25 99.4539L73 82.9539L76.75 100.954L77.5 87.4539L79.75 82.9539L80.5 100.204L84.25 83.7039L86.5 91.2039L87.25 84.4539L89.5 88.9539V74.7039L87.25 80.7039L86.5 67.9539L85 77.7039L83.5 74.7039L82.75 64.2039L79 78.4539L78.25 75.4539L76 52.9539L73.75 72.4539L72.25 78.4539L69.25 58.2039L66.25 75.4539L64.75 79.9539L64 48.9754L59.5 83.7039L55 52.2039L52.75 79.2039L51.25 76.2039L49.75 58.2039L49 76.2039L46.75 81.4539L45.25 63.4539L43.75 77.7039L41.5 73.9539V84.4539L38.5 73.2039V86.7039Z" fill="white"/>
</mask>
<g mask="url(#mask0_98_89)">
<path fill-rule="evenodd" clip-rule="evenodd" d="M37 103.204V48.4539H91V103.204H37Z" fill="#FF7901"/>
<g filter="url(#filter2_d_98_89)">
<path fill-rule="evenodd" clip-rule="evenodd" d="M37.75 76.2039L43.75 79.9539L46 73.2039L49.75 77.7039L54.25 70.2039L55.75 79.2039L57.25 73.2039L59.5 77.7039L60.25 73.2039C60.25 73.2039 62.5 79.2039 62.5 78.4539C62.5 77.7039 65.5 67.2039 65.5 67.2039L68.5 76.9539L73 67.9539L75.25 77.7039L79 70.9539L81.25 77.7039L85 73.9539L89.5 78.4539V84.4539L86.5 86.7039L82 85.2039L79 83.7039L78.25 91.2039L76.75 83.7039L73.75 90.4539L69.25 83.7039L67.75 90.4539L64.75 85.9539L61 95.7039L58.75 84.4539L54.25 86.7039L51.25 82.2039L49.75 89.7039L46.75 85.9539L43.75 89.7039L42.25 87.4539L37.75 88.2039V76.2039Z" fill="#FF0101"/>
</g>
</g>
<g filter="url(#filter3_d_98_89)">
<path d="M64 21.3601C54.0527 21.3601 44.981 24.4657 38.2891 29.6805C31.5971 34.8952 27.25 42.3565 27.25 50.657V53.657C20.6059 57.0234 16 65.8539 16 76.2039C16 89.4519 23.5371 100.204 33.25 100.204V50.657C33.25 44.4409 36.4674 38.72 41.9922 34.4148C47.517 30.1096 55.3185 27.3601 64 27.3601C72.6815 27.3601 80.483 30.1096 86.0078 34.4148C91.5326 38.72 94.75 44.4409 94.75 50.657V100.204C104.463 100.204 112 89.4519 112 76.2039C112 65.8539 107.394 57.0234 100.75 53.657V50.657C100.75 42.3565 96.4029 34.8952 89.7109 29.6805C83.019 24.4657 73.9473 21.3601 64 21.3601ZM35.5 52.9539V100.204C37 100.204 38.5 99.4539 39.25 97.9539V54.4539C38.5 53.7039 37 52.9539 35.5 52.9539ZM92.5 52.9539C91 52.9539 89.5 53.7039 88.75 54.4539V97.9539C89.5 99.4539 91 100.204 92.5 100.204V52.9539Z" fill="#0077CC"/>
</g>
</g>
</g>
<defs>
<filter id="filter0_i_98_89" x="8" y="8" width="112" height="116" filterUnits="userSpaceOnUse" color-interpolation-filters="sRGB">
<feFlood flood-opacity="0" result="BackgroundImageFix"/>
<feBlend mode="normal" in="SourceGraphic" in2="BackgroundImageFix" result="shape"/>
<feColorMatrix in="SourceAlpha" type="matrix" values="0 0 0 0 0 0 0 0 0 0 0 0 0 0 0 0 0 0 127 0" result="hardAlpha"/>
<feOffset dy="4"/>
<feGaussianBlur stdDeviation="2"/>
<feComposite in2="hardAlpha" operator="arithmetic" k2="-1" k3="1"/>
<feColorMatrix type="matrix" values="0 0 0 0 0 0 0 0 0 0 0 0 0 0 0 0 0 0 0.25 0"/>
<feBlend mode="normal" in2="shape" result="effect1_innerShadow_98_89"/>
</filter>
<filter id="filter1_d_98_89" x="32.1394" y="43.5791" width="63.9053" height="69.1649" filterUnits="userSpaceOnUse" color-interpolation-filters="sRGB">
<feFlood flood-opacity="0" result="BackgroundImageFix"/>
<feColorMatrix in="SourceAlpha" type="matrix" values="0 0 0 0 0 0 0 0 0 0 0 0 0 0 0 0 0 0 127 0" result="hardAlpha"/>
<feOffset dy="2"/>
<feGaussianBlur stdDeviation="2"/>
<feComposite in2="hardAlpha" operator="out"/>
<feColorMatrix type="matrix" values="0 0 0 0 0 0 0 0 0 0 0 0 0 0 0 0 0 0 0.25 0"/>
<feBlend mode="normal" in2="BackgroundImageFix" result="effect1_dropShadow_98_89"/>
<feBlend mode="normal" in="SourceGraphic" in2="effect1_dropShadow_98_89" result="shape"/>
</filter>
<filter id="filter2_d_98_89" x="33.75" y="65.2039" width="59.75" height="36.5" filterUnits="userSpaceOnUse" color-interpolation-filters="sRGB">
<feFlood flood-opacity="0" result="BackgroundImageFix"/>
<feColorMatrix in="SourceAlpha" type="matrix" values="0 0 0 0 0 0 0 0 0 0 0 0 0 0 0 0 0 0 127 0" result="hardAlpha"/>
<feOffset dy="2"/>
<feGaussianBlur stdDeviation="2"/>
<feComposite in2="hardAlpha" operator="out"/>
<feColorMatrix type="matrix" values="0 0 0 0 0 0 0 0 0 0 0 0 0 0 0 0 0 0 0.25 0"/>
<feBlend mode="normal" in2="BackgroundImageFix" result="effect1_dropShadow_98_89"/>
<feBlend mode="normal" in="SourceGraphic" in2="effect1_dropShadow_98_89" result="shape"/>
</filter>
<filter id="filter3_d_98_89" x="12" y="19.3601" width="104" height="86.8438" filterUnits="userSpaceOnUse" color-interpolation-filters="sRGB">
<feFlood flood-opacity="0" result="BackgroundImageFix"/>
<feColorMatrix in="SourceAlpha" type="matrix" values="0 0 0 0 0 0 0 0 0 0 0 0 0 0 0 0 0 0 127 0" result="hardAlpha"/>
<feOffset dy="2"/>
<feGaussianBlur stdDeviation="2"/>
<feComposite in2="hardAlpha" operator="out"/>
<feColorMatrix type="matrix" values="0 0 0 0 0 0 0 0 0 0 0 0 0 0 0 0 0 0 0.25 0"/>
<feBlend mode="normal" in2="BackgroundImageFix" result="effect1_dropShadow_98_89"/>
<feBlend mode="normal" in="SourceGraphic" in2="effect1_dropShadow_98_89" result="shape"/>
</filter>
<linearGradient id="paint0_linear_98_89" x1="64" y1="0" x2="64" y2="128" gradientUnits="userSpaceOnUse">
<stop stop-color="#0077CC"/>
<stop offset="1" stop-color="#0044CC"/>
</linearGradient>
<clipPath id="clip0_98_89">
<rect width="96" height="96" fill="white" transform="translate(16 16)"/>
</clipPath>
</defs>
</svg>
