<svg width="128" height="128" viewBox="0 0 128 128" fill="none" xmlns="http://www.w3.org/2000/svg">
<rect width="128" height="128" rx="32" fill="url(#paint0_linear_98_112)"/>
<g filter="url(#filter0_i_98_112)">
<rect x="8" y="8" width="112" height="112" rx="24" fill="black" fill-opacity="0.7"/>
<g filter="url(#filter1_d_98_112)">
<path fill-rule="evenodd" clip-rule="evenodd" d="M54 30C58 24 66 24 66 24C66 24 66.4152 24.8527 66 26C69.4766 24.4385 74 26 74 26C74 26 73.3664 27.3349 72 28C75.4461 29.2589 78 32 78 32C78 32 77.3664 33.2099 76 34C79.4148 34.3214 82 38 82 38C82 38 81.0938 39.5545 80 40C82.8438 41.2267 84 41.6429 84 43.9999C84 46.357 78 49.9999 78 49.9999C78 49.9999 74.5007 40.9963 72 38C69.4993 35.0037 67.0732 33.374 64 32C60.9268 30.626 54 30 54 30Z" fill="url(#paint1_linear_98_112)"/>
<path fill-rule="evenodd" clip-rule="evenodd" d="M66 34C66 34 66 45.9999 60 49.9999C54 53.9999 42 55.9999 34 59.9999C26 63.9999 24 69.9999 24 69.9999C24 69.9999 32 65.9999 36 65.9999C40 65.9999 46 67.9999 46 67.9999C46 67.9999 50 63.9999 56 63.9999C62 63.9999 68 65.9999 68 65.9999L70 43.9999L66 34Z" fill="url(#paint2_linear_98_112)"/>
<path fill-rule="evenodd" clip-rule="evenodd" d="M68 40C68 40 68.375 46.9999 62.375 50.9999C56.375 54.9999 40.9329 57.4788 33.375 61.6249C27.8433 64.6596 24 69.9999 24 69.9999C24 69.9999 32 65.9999 36 65.9999C40 65.9999 46 67.9999 46 67.9999C46 67.9999 50 63.9999 56 63.9999C62 63.9999 68 65.9999 68 65.9999L70 43.9999L68 40Z" fill="url(#paint3_linear_98_112)"/>
<path fill-rule="evenodd" clip-rule="evenodd" d="M62 27.25C60 27.5 60 30 60 30L66 42C70 50 68 68 54 76C54 76 54.9538 76.4672 56.4727 77.0508C50.3148 82.0969 41.1653 88 32 88H67.4688C69.9963 85.3645 72.1652 82.4096 74.0586 79.4844C74.1723 78.6758 74.5625 76.875 76 74C78 70 80 62 80 62C80 62 82 62 84 64C85.6707 65.6707 77.9271 75.2766 75.2148 78.5391C76.8925 77.9839 78.5159 77.1873 80 76C90 68 84.508 47.5715 76 38C68 29 64 27 62 27.25Z" fill="url(#paint4_linear_98_112)"/>
<path opacity="0.2" fill-rule="evenodd" clip-rule="evenodd" d="M64 28L61 32L66 42C66.9174 43.8349 67.5011 46.2098 67.7148 48.8555L78 42L64 28Z" fill="url(#paint5_linear_98_112)"/>
<path fill-rule="evenodd" clip-rule="evenodd" d="M65.5418 72.6895C61.6516 77.5444 61.8569 78.1053 56.3984 82.1992C56.3686 82.2216 56.3346 82.2432 56.3046 82.2656L61.871 87.7461C81.922 70.9948 65.5418 72.6895 65.5418 72.6895ZM54.6562 83.4531C52.3921 85.0586 49.8886 86.6388 47.1992 88H59.2773L54.6562 83.4531Z" fill="#2980B9"/>
<path opacity="0.2" fill-rule="evenodd" clip-rule="evenodd" d="M56.4727 77.0507C50.3148 82.0968 41.1654 87.9999 32 87.9999H67.4688C70.2032 85.1487 72.5336 81.9221 74.5312 78.7655C76.4523 78.2113 54.9538 76.4671 56.4727 77.0507Z" fill="url(#paint6_linear_98_112)"/>
<path d="M32 87.9999V104H96V87.9999H32Z" fill="url(#paint7_linear_98_112)"/>
<path d="M32 91.9999V99.9999H42V91.9999H32ZM44 91.9999V99.9999H56V91.9999H44ZM58 91.9999V99.9999H70V91.9999H58ZM72 91.9999V99.9999H84V91.9999H72ZM86 91.9999V99.9999H96V91.9999H86Z" fill="url(#paint8_linear_98_112)"/>
<path fill-rule="evenodd" clip-rule="evenodd" d="M90 30C88 30 88 35.9999 82 41.9999C76 47.9999 74 47.9999 74 47.9999C74 47.9999 80 51.9999 80 59.9999C86 63.9999 86 71.9999 86 71.9999L94 49.9999L92 34L90 30Z" fill="url(#paint9_linear_98_112)"/>
<path fill-rule="evenodd" clip-rule="evenodd" d="M90 30C88 30 88 35.9999 82 41.9999C76 47.9999 74 47.9999 74 47.9999C74 47.9999 80 51.9999 80 59.9999C80 67.9999 76 73.9999 76 73.9999L94 49.9999L92 34L90 30Z" fill="url(#paint10_linear_98_112)"/>
<path fill-rule="evenodd" clip-rule="evenodd" d="M90 30C86 57 75.375 58.7499 74.125 66.4999C72.8511 74.3979 76 73.9999 76 73.9999L94 49.9999L92 34L90 30Z" fill="url(#paint11_linear_98_112)"/>
<path fill-rule="evenodd" clip-rule="evenodd" d="M90 30C92 30 98 41.9999 96 59.9999C94 77.9999 84 81.9999 84 81.9999C84 81.9999 70 79.9999 66 79.9999C62 79.9999 60 81.9999 60 81.9999C60 81.9999 54 77.9999 46 77.9999C38 77.9999 28 85.9999 28 85.9999C28 85.9999 30 77.9999 42 73.9999C54 69.9999 73.5982 73.6822 80 65.9999C100 41.9999 88 30 90 30Z" fill="url(#paint12_linear_98_112)"/>
<path fill-rule="evenodd" clip-rule="evenodd" d="M60 38C55.7573 39.4142 50 38 48 40L46 41.9999C46 41.9999 44 38 46 36C48 34 52 34 54 30C56 26 62 26 64 28C68 32 66 36 60 38Z" fill="url(#paint13_linear_98_112)"/>
<path fill-rule="evenodd" clip-rule="evenodd" d="M62.375 51C56.375 55 40.9329 57.4788 33.375 61.625C27.8433 64.6596 24 70 24 70C24 70 32 66 36 66C40 66 46 68 46 68C46 68 68.375 47 62.375 51Z" fill="url(#paint14_linear_98_112)"/>
</g>
</g>
<defs>
<filter id="filter0_i_98_112" x="8" y="8" width="112" height="116" filterUnits="userSpaceOnUse" color-interpolation-filters="sRGB">
<feFlood flood-opacity="0" result="BackgroundImageFix"/>
<feBlend mode="normal" in="SourceGraphic" in2="BackgroundImageFix" result="shape"/>
<feColorMatrix in="SourceAlpha" type="matrix" values="0 0 0 0 0 0 0 0 0 0 0 0 0 0 0 0 0 0 127 0" result="hardAlpha"/>
<feOffset dy="4"/>
<feGaussianBlur stdDeviation="2"/>
<feComposite in2="hardAlpha" operator="arithmetic" k2="-1" k3="1"/>
<feColorMatrix type="matrix" values="0 0 0 0 0 0 0 0 0 0 0 0 0 0 0 0 0 0 0.25 0"/>
<feBlend mode="normal" in2="shape" result="effect1_innerShadow_98_112"/>
</filter>
<filter id="filter1_d_98_112" x="20" y="22" width="80.4026" height="87.9999" filterUnits="userSpaceOnUse" color-interpolation-filters="sRGB">
<feFlood flood-opacity="0" result="BackgroundImageFix"/>
<feColorMatrix in="SourceAlpha" type="matrix" values="0 0 0 0 0 0 0 0 0 0 0 0 0 0 0 0 0 0 127 0" result="hardAlpha"/>
<feOffset dy="2"/>
<feGaussianBlur stdDeviation="2"/>
<feComposite in2="hardAlpha" operator="out"/>
<feColorMatrix type="matrix" values="0 0 0 0 0 0 0 0 0 0 0 0 0 0 0 0 0 0 0.25 0"/>
<feBlend mode="normal" in2="BackgroundImageFix" result="effect1_dropShadow_98_112"/>
<feBlend mode="normal" in="SourceGraphic" in2="effect1_dropShadow_98_112" result="shape"/>
</filter>
<linearGradient id="paint0_linear_98_112" x1="128" y1="-8556.77" x2="64" y2="-8556.77" gradientUnits="userSpaceOnUse">
<stop stop-color="#2F3943"/>
<stop offset="1" stop-color="#808C9B"/>
</linearGradient>
<linearGradient id="paint1_linear_98_112" x1="80.5165" y1="44.6013" x2="80" y2="24" gradientUnits="userSpaceOnUse">
<stop stop-color="#197CF1"/>
<stop offset="1" stop-color="#21C9FB"/>
</linearGradient>
<linearGradient id="paint2_linear_98_112" x1="68.2826" y1="42.454" x2="31.1092" y2="64.5511" gradientUnits="userSpaceOnUse">
<stop stop-color="#197CF1"/>
<stop offset="1" stop-color="#21C9FB"/>
</linearGradient>
<linearGradient id="paint3_linear_98_112" x1="60.5" y1="53.8749" x2="70.375" y2="63.7499" gradientUnits="userSpaceOnUse">
<stop stop-color="#18222A"/>
<stop offset="1" stop-color="#566069"/>
</linearGradient>
<linearGradient id="paint4_linear_98_112" x1="-753.143" y1="73.9999" x2="-753.143" y2="22" gradientUnits="userSpaceOnUse">
<stop stop-color="#2F3943"/>
<stop offset="1" stop-color="#808C9B"/>
</linearGradient>
<linearGradient id="paint5_linear_98_112" x1="62" y1="34" x2="70" y2="46" gradientUnits="userSpaceOnUse">
<stop/>
<stop offset="1" stop-opacity="0"/>
</linearGradient>
<linearGradient id="paint6_linear_98_112" x1="54" y1="77.9999" x2="66" y2="89.9999" gradientUnits="userSpaceOnUse">
<stop/>
<stop offset="1" stop-opacity="0"/>
</linearGradient>
<linearGradient id="paint7_linear_98_112" x1="96" y1="-981.596" x2="64" y2="-981.596" gradientUnits="userSpaceOnUse">
<stop stop-color="#2F3943"/>
<stop offset="1" stop-color="#808C9B"/>
</linearGradient>
<linearGradient id="paint8_linear_98_112" x1="96" y1="17.9999" x2="64" y2="17.9999" gradientUnits="userSpaceOnUse">
<stop stop-color="#197CF1"/>
<stop offset="1" stop-color="#21C9FB"/>
</linearGradient>
<linearGradient id="paint9_linear_98_112" x1="-753.143" y1="73.9999" x2="-753.143" y2="22" gradientUnits="userSpaceOnUse">
<stop stop-color="#2F3943"/>
<stop offset="1" stop-color="#808C9B"/>
</linearGradient>
<linearGradient id="paint10_linear_98_112" x1="90" y1="30" x2="76" y2="49.9999" gradientUnits="userSpaceOnUse">
<stop stop-color="#18222A"/>
<stop offset="1" stop-color="#18222A" stop-opacity="0"/>
</linearGradient>
<linearGradient id="paint11_linear_98_112" x1="88.75" y1="35.625" x2="96.5625" y2="43.4374" gradientUnits="userSpaceOnUse">
<stop stop-color="#18222A"/>
<stop offset="1" stop-color="#18222A" stop-opacity="0"/>
</linearGradient>
<linearGradient id="paint12_linear_98_112" x1="94" y1="71.9999" x2="70" y2="54.9999" gradientUnits="userSpaceOnUse">
<stop stop-color="#197CF1"/>
<stop offset="1" stop-color="#21C9FB"/>
</linearGradient>
<linearGradient id="paint13_linear_98_112" x1="-753.143" y1="41.9999" x2="-753.143" y2="20" gradientUnits="userSpaceOnUse">
<stop stop-color="#2F3943"/>
<stop offset="1" stop-color="#808C9B"/>
</linearGradient>
<linearGradient id="paint14_linear_98_112" x1="47" y1="54.9999" x2="57.3125" y2="65.3124" gradientUnits="userSpaceOnUse">
<stop stop-color="#18222A"/>
<stop offset="1" stop-color="#566069"/>
</linearGradient>
</defs>
</svg>
