<svg width="128" height="128" viewBox="0 0 128 128" fill="none" xmlns="http://www.w3.org/2000/svg">
<rect width="128" height="128" rx="32" fill="url(#paint0_linear_98_243)"/>
<rect width="128" height="128" rx="32" fill="url(#paint1_linear_98_243)"/>
<g filter="url(#filter0_i_98_243)">
<rect x="8" y="8" width="112" height="112" rx="24" fill="black" fill-opacity="0.7"/>
<g filter="url(#filter1_d_98_243)">
<path d="M51.5613 77.8875C53.2016 81.1758 74.826 81.1416 76.4473 77.8875C78.0667 74.6373 67.3429 55.1208 64.0052 55.117C60.6657 55.117 49.921 74.5993 51.5613 77.8875Z" fill="url(#paint2_linear_98_243)"/>
</g>
<g filter="url(#filter2_d_98_243)">
<path d="M26.5086 94.6062C31.4447 104.518 96.6182 104.404 101.501 94.6062C106.384 84.808 74.0605 26 64.0058 26C53.9472 26 21.5724 84.694 26.5086 94.6062ZM39.441 86.0055C36.206 79.5107 57.4217 41.0536 64.0096 41.0536C70.5993 41.0536 91.779 79.5811 88.5782 86.0055C85.3793 92.4299 42.676 92.5002 39.441 86.0055Z" fill="url(#paint3_linear_98_243)"/>
</g>
</g>
<defs>
<filter id="filter0_i_98_243" x="8" y="8" width="112" height="116" filterUnits="userSpaceOnUse" color-interpolation-filters="sRGB">
<feFlood flood-opacity="0" result="BackgroundImageFix"/>
<feBlend mode="normal" in="SourceGraphic" in2="BackgroundImageFix" result="shape"/>
<feColorMatrix in="SourceAlpha" type="matrix" values="0 0 0 0 0 0 0 0 0 0 0 0 0 0 0 0 0 0 127 0" result="hardAlpha"/>
<feOffset dy="4"/>
<feGaussianBlur stdDeviation="2"/>
<feComposite in2="hardAlpha" operator="arithmetic" k2="-1" k3="1"/>
<feColorMatrix type="matrix" values="0 0 0 0 0 0 0 0 0 0 0 0 0 0 0 0 0 0 0.25 0"/>
<feBlend mode="normal" in2="shape" result="effect1_innerShadow_98_243"/>
</filter>
<filter id="filter1_d_98_243" x="47.3921" y="53.117" width="33.2207" height="33.2239" filterUnits="userSpaceOnUse" color-interpolation-filters="sRGB">
<feFlood flood-opacity="0" result="BackgroundImageFix"/>
<feColorMatrix in="SourceAlpha" type="matrix" values="0 0 0 0 0 0 0 0 0 0 0 0 0 0 0 0 0 0 127 0" result="hardAlpha"/>
<feOffset dy="2"/>
<feGaussianBlur stdDeviation="2"/>
<feComposite in2="hardAlpha" operator="out"/>
<feColorMatrix type="matrix" values="0 0 0 0 0 0 0 0 0 0 0 0 0 0 0 0 0 0 0.25 0"/>
<feBlend mode="normal" in2="BackgroundImageFix" result="effect1_dropShadow_98_243"/>
<feBlend mode="normal" in="SourceGraphic" in2="effect1_dropShadow_98_243" result="shape"/>
</filter>
<filter id="filter2_d_98_243" x="22" y="24" width="84" height="83.9977" filterUnits="userSpaceOnUse" color-interpolation-filters="sRGB">
<feFlood flood-opacity="0" result="BackgroundImageFix"/>
<feColorMatrix in="SourceAlpha" type="matrix" values="0 0 0 0 0 0 0 0 0 0 0 0 0 0 0 0 0 0 127 0" result="hardAlpha"/>
<feOffset dy="2"/>
<feGaussianBlur stdDeviation="2"/>
<feComposite in2="hardAlpha" operator="out"/>
<feColorMatrix type="matrix" values="0 0 0 0 0 0 0 0 0 0 0 0 0 0 0 0 0 0 0.25 0"/>
<feBlend mode="normal" in2="BackgroundImageFix" result="effect1_dropShadow_98_243"/>
<feBlend mode="normal" in="SourceGraphic" in2="effect1_dropShadow_98_243" result="shape"/>
</filter>
<linearGradient id="paint0_linear_98_243" x1="1432.28" y1="1744.61" x2="1257.52" y2="1747.54" gradientUnits="userSpaceOnUse">
<stop stop-color="#FCFCFC"/>
<stop offset="1" stop-color="#D0D6DC"/>
</linearGradient>
<linearGradient id="paint1_linear_98_243" x1="22.4326" y1="52.258" x2="128.564" y2="113.531" gradientUnits="userSpaceOnUse">
<stop stop-color="#AA5CC3"/>
<stop offset="1" stop-color="#00A4DC"/>
</linearGradient>
<linearGradient id="paint2_linear_98_243" x1="39.3188" y1="57.0272" x2="102.333" y2="93.4087" gradientUnits="userSpaceOnUse">
<stop stop-color="#AA5CC3"/>
<stop offset="1" stop-color="#00A4DC"/>
</linearGradient>
<linearGradient id="paint3_linear_98_243" x1="39.3194" y1="57.0272" x2="102.334" y2="93.4087" gradientUnits="userSpaceOnUse">
<stop stop-color="#AA5CC3"/>
<stop offset="1" stop-color="#00A4DC"/>
</linearGradient>
</defs>
</svg>
