<svg width="128" height="128" viewBox="0 0 128 128" fill="none" xmlns="http://www.w3.org/2000/svg">
<rect width="128" height="128" rx="32" fill="url(#paint0_linear_98_287)"/>
<g filter="url(#filter0_i_98_287)">
<rect x="8" y="8" width="112" height="112" rx="24" fill="black" fill-opacity="0.7"/>
<g clip-path="url(#clip0_98_287)">
<g filter="url(#filter1_d_98_287)">
<path d="M30.1071 33.7224C33.5865 46.0648 32.0449 61.5083 105.301 38.1367L109.186 73.6574C109.874 79.9455 104.971 85.5196 98.1933 86.1553C80.5814 52.6013 40.4587 57.2563 22.9998 81.741L19.1142 46.2203C18.4263 39.9322 23.3291 34.3581 30.1071 33.7224Z" fill="#08A7E6"/>
<path d="M30.107 33.7224L91.8243 27.9338C98.6022 27.2981 104.613 31.8486 105.3 38.1367C67.8873 47.3177 65.3571 72.1577 98.1932 86.1553L36.4759 91.9438C29.698 92.5796 23.6876 88.0291 22.9998 81.741C65.9883 68.2287 60.9846 49.5521 30.107 33.7224Z" fill="#322374"/>
<path d="M99.4121 33.623H28.6713C25.3087 33.623 22.5828 36.3416 22.5828 39.6951V81.3366C22.5828 84.6901 25.3087 87.4087 28.6713 87.4087H99.4121C102.775 87.4087 105.501 84.6901 105.501 81.3366V39.6951C105.501 36.3416 102.775 33.623 99.4121 33.623Z" fill="white"/>
<path d="M82.4036 87.3792C82.404 84.4327 83.5777 81.6069 85.6665 79.5231C87.7554 77.4393 90.5884 76.268 93.5429 76.2667C96.4975 76.2654 99.3316 77.4343 101.422 79.5162C103.513 81.5982 104.689 84.423 104.692 87.3695C104.695 90.316 103.525 93.1432 101.438 95.2294C99.3519 97.3156 96.5202 98.4902 93.5657 98.495C90.6112 98.4997 87.7757 97.3342 85.6826 95.2547C83.5895 93.1751 82.4101 90.3517 82.4036 87.4052" fill="white"/>
<path d="M82.4036 87.3792C82.404 84.4327 83.5777 81.6069 85.6665 79.5231C87.7554 77.4393 90.5884 76.268 93.5429 76.2667C96.4975 76.2654 99.3316 77.4343 101.422 79.5162C103.513 81.5982 104.689 84.423 104.692 87.3695C104.695 90.316 103.525 93.1432 101.438 95.2294C99.3519 97.3156 96.5202 98.4902 93.5657 98.495C90.6112 98.4997 87.7757 97.3342 85.6826 95.2547C83.5895 93.1751 82.4101 90.3517 82.4036 87.4052" stroke="#322374" stroke-width="2.66667" stroke-miterlimit="0" stroke-linecap="round" stroke-linejoin="round"/>
<path fill-rule="evenodd" clip-rule="evenodd" d="M88.991 80.182L102.168 87.769L88.967 94.9528L88.991 80.182Z" fill="black"/>
</g>
</g>
</g>
<defs>
<filter id="filter0_i_98_287" x="8" y="8" width="112" height="116" filterUnits="userSpaceOnUse" color-interpolation-filters="sRGB">
<feFlood flood-opacity="0" result="BackgroundImageFix"/>
<feBlend mode="normal" in="SourceGraphic" in2="BackgroundImageFix" result="shape"/>
<feColorMatrix in="SourceAlpha" type="matrix" values="0 0 0 0 0 0 0 0 0 0 0 0 0 0 0 0 0 0 127 0" result="hardAlpha"/>
<feOffset dy="4"/>
<feGaussianBlur stdDeviation="2"/>
<feComposite in2="hardAlpha" operator="arithmetic" k2="-1" k3="1"/>
<feColorMatrix type="matrix" values="0 0 0 0 0 0 0 0 0 0 0 0 0 0 0 0 0 0 0.25 0"/>
<feBlend mode="normal" in2="shape" result="effect1_innerShadow_98_287"/>
</filter>
<filter id="filter1_d_98_287" x="15.0498" y="25.8746" width="98.2007" height="79.9538" filterUnits="userSpaceOnUse" color-interpolation-filters="sRGB">
<feFlood flood-opacity="0" result="BackgroundImageFix"/>
<feColorMatrix in="SourceAlpha" type="matrix" values="0 0 0 0 0 0 0 0 0 0 0 0 0 0 0 0 0 0 127 0" result="hardAlpha"/>
<feOffset dy="2"/>
<feGaussianBlur stdDeviation="2"/>
<feComposite in2="hardAlpha" operator="out"/>
<feColorMatrix type="matrix" values="0 0 0 0 0 0 0 0 0 0 0 0 0 0 0 0 0 0 0.25 0"/>
<feBlend mode="normal" in2="BackgroundImageFix" result="effect1_dropShadow_98_287"/>
<feBlend mode="normal" in="SourceGraphic" in2="effect1_dropShadow_98_287" result="shape"/>
</filter>
<linearGradient id="paint0_linear_98_287" x1="26.5" y1="99" x2="126.498" y2="20.4972" gradientUnits="userSpaceOnUse">
<stop stop-color="#322374"/>
<stop offset="1" stop-color="#08A7E6"/>
</linearGradient>
<clipPath id="clip0_98_287">
<rect width="96" height="82" fill="white" transform="translate(16 23)"/>
</clipPath>
</defs>
</svg>
