<svg width="128" height="128" viewBox="0 0 128 128" fill="none" xmlns="http://www.w3.org/2000/svg">
<rect width="128" height="128" rx="32" fill="url(#paint0_linear_66_81)"/>
<rect width="128" height="128" rx="32" fill="url(#paint1_linear_66_81)"/>
<g filter="url(#filter0_i_66_81)">
<rect x="8" y="8" width="112" height="112" rx="24" fill="black" fill-opacity="0.7"/>
<g clip-path="url(#clip0_66_81)" filter="url(#filter1_d_66_81)">
<path fill-rule="evenodd" clip-rule="evenodd" d="M34.6781 93.997C34.6781 93.997 33.6929 95.0566 33.4324 95.9166C33.2503 96.5176 33.1792 97.4136 33.5079 97.9491C33.749 98.342 34.0651 98.7395 34.5271 98.7395C54.6126 98.7424 76.8252 98.7719 92.4536 98.8148C92.9827 98.8162 93.9863 98.7237 94.3977 98.1373C94.817 97.5396 94.8066 96.2074 94.5109 95.5402C94.1995 94.8377 92.7367 94.524 92.7367 94.524L34.6781 93.997Z" fill="#B54D00"/>
<path fill-rule="evenodd" clip-rule="evenodd" d="M42.0793 72.8687C41.1616 72.8687 40.2089 73.5736 39.943 74.4515L33.5308 95.629C33.265 96.5069 33.7886 97.2153 34.7063 97.2153H93.838C94.5372 97.2153 94.938 96.6777 94.7354 96.0089L88.0909 74.0751C87.8884 73.4063 87.1642 72.8687 86.465 72.8687H42.0793Z" fill="#E26400"/>
<path fill-rule="evenodd" clip-rule="evenodd" d="M63.9906 29.2383C62.4653 29.2231 61.568 29.3361 60.6684 30.0103C60.2577 30.3181 59.9333 31.049 59.7393 31.5753L44.0854 83.0976C44.0854 83.0976 44.4505 85.4258 46.6649 87.5422C48.1578 88.9689 50.989 90.0259 52.7676 90.4103C57.3326 91.3968 60.9933 91.6324 65.1333 91.5698C69.3858 91.5056 73.6342 90.6722 77.723 89.5056C83.8212 87.7657 84.0154 82.8836 84.0154 82.8836L67.9146 30.6174C67.8483 30.4021 67.687 30.2434 67.5592 30.1226C66.6027 29.2187 65.1534 29.25 63.9906 29.2383Z" fill="url(#paint2_linear_66_81)"/>
<path fill-rule="evenodd" clip-rule="evenodd" d="M63.9906 29.2383C62.4653 29.2231 61.568 29.3361 60.6684 30.0103C60.2577 30.3181 59.9333 31.049 59.7393 31.5753L44.0854 83.0976C44.0854 83.0976 44.7738 87.5538 50.3136 89.7259C54.1482 91.2294 58.1062 91.4289 64.2651 91.4946C71.124 91.5677 73.9181 90.8967 78.4013 89.337C80.5117 88.6029 81.6056 87.6483 82.6065 86.5899C84.0538 85.0592 84.0154 82.8836 84.0154 82.8836L67.9146 30.6174C67.8058 30.4201 67.687 30.2434 67.5592 30.1226C66.6027 29.2187 65.1534 29.25 63.9906 29.2383Z" fill="#F48200"/>
<path fill-rule="evenodd" clip-rule="evenodd" d="M49.8008 64.2895L46.2217 76.0691C50.5624 79.7167 56.9328 82.0203 64.0328 82.0203C71.165 82.0203 77.5584 79.6962 81.9003 76.02L78.2965 64.3176C74.9788 66.9567 69.837 68.6511 64.0645 68.6511C58.2729 68.6511 53.1174 66.9436 49.8008 64.2895Z" fill="#EAECED"/>
<path fill-rule="evenodd" clip-rule="evenodd" d="M70.4907 38.9863C68.8015 39.5514 66.4934 39.9021 63.9448 39.9021C61.4376 39.9021 59.1613 39.5633 57.4798 39.0143L53.7036 51.4466C56.2419 52.7711 59.9588 53.6082 64.1031 53.6082C68.1656 53.6082 71.8203 52.8066 74.3548 51.5273L70.4907 38.9863Z" fill="#EAECED"/>
</g>
</g>
<defs>
<filter id="filter0_i_66_81" x="8" y="8" width="112" height="116" filterUnits="userSpaceOnUse" color-interpolation-filters="sRGB">
<feFlood flood-opacity="0" result="BackgroundImageFix"/>
<feBlend mode="normal" in="SourceGraphic" in2="BackgroundImageFix" result="shape"/>
<feColorMatrix in="SourceAlpha" type="matrix" values="0 0 0 0 0 0 0 0 0 0 0 0 0 0 0 0 0 0 127 0" result="hardAlpha"/>
<feOffset dy="4"/>
<feGaussianBlur stdDeviation="2"/>
<feComposite in2="hardAlpha" operator="arithmetic" k2="-1" k3="1"/>
<feColorMatrix type="matrix" values="0 0 0 0 0 0 0 0 0 0 0 0 0 0 0 0 0 0 0.25 0"/>
<feBlend mode="normal" in2="shape" result="effect1_innerShadow_66_81"/>
</filter>
<filter id="filter1_d_66_81" x="29" y="27" width="70" height="78" filterUnits="userSpaceOnUse" color-interpolation-filters="sRGB">
<feFlood flood-opacity="0" result="BackgroundImageFix"/>
<feColorMatrix in="SourceAlpha" type="matrix" values="0 0 0 0 0 0 0 0 0 0 0 0 0 0 0 0 0 0 127 0" result="hardAlpha"/>
<feOffset dy="2"/>
<feGaussianBlur stdDeviation="2"/>
<feComposite in2="hardAlpha" operator="out"/>
<feColorMatrix type="matrix" values="0 0 0 0 0 0 0 0 0 0 0 0 0 0 0 0 0 0 0.25 0"/>
<feBlend mode="normal" in2="BackgroundImageFix" result="effect1_dropShadow_66_81"/>
<feBlend mode="normal" in="SourceGraphic" in2="effect1_dropShadow_66_81" result="shape"/>
</filter>
<linearGradient id="paint0_linear_66_81" x1="64" y1="0" x2="64" y2="128" gradientUnits="userSpaceOnUse">
<stop stop-color="#CB02C5"/>
<stop offset="1" stop-color="#5800BF"/>
</linearGradient>
<linearGradient id="paint1_linear_66_81" x1="8.30605e-07" y1="73.5" x2="125.093" y2="41.9684" gradientUnits="userSpaceOnUse">
<stop stop-color="#F48200"/>
<stop offset="0.494068" stop-color="#F48200"/>
<stop offset="1" stop-color="#CC5F00"/>
</linearGradient>
<linearGradient id="paint2_linear_66_81" x1="51.4831" y1="56.3631" x2="54.7223" y2="57.1201" gradientUnits="userSpaceOnUse">
<stop stop-color="#9B4400"/>
<stop offset="1" stop-color="#E56300"/>
</linearGradient>
<clipPath id="clip0_66_81">
<rect width="62" height="70" fill="white" transform="translate(33 29)"/>
</clipPath>
</defs>
</svg>
