<svg width="32" height="32" viewBox="0 0 32 32" fill="none" xmlns="http://www.w3.org/2000/svg">
<g clip-path="url(#clip0_31_8456)">
<path d="M24 0H8C3.58172 0 0 3.58172 0 8V24C0 28.4183 3.58172 32 8 32H24C28.4183 32 32 28.4183 32 24V8C32 3.58172 28.4183 0 24 0Z" fill="url(#paint0_linear_31_8456)"/>
<path d="M24 0H8C3.58172 0 0 3.58172 0 8V24C0 28.4183 3.58172 32 8 32H24C28.4183 32 32 28.4183 32 24V8C32 3.58172 28.4183 0 24 0Z" fill="url(#paint1_linear_31_8456)"/>
<g filter="url(#filter0_i_31_8456)">
<path d="M24 2H8C4.68629 2 2 4.68629 2 8V24C2 27.3137 4.68629 30 8 30H24C27.3137 30 30 27.3137 30 24V8C30 4.68629 27.3137 2 24 2Z" fill="black" fill-opacity="0.7"/>
<mask id="mask0_31_8456" style="mask-type:luminance" maskUnits="userSpaceOnUse" x="4" y="4" width="24" height="24">
<path d="M28 4H4V28H28V4Z" fill="white"/>
</mask>
<g mask="url(#mask0_31_8456)">
<g filter="url(#filter1_d_31_8456)">
<path d="M21.7969 26.9715L26.9718 13.2891L22.8574 12.3566L21.7969 26.9715Z" fill="#087CFA"/>
</g>
<g filter="url(#filter2_d_31_8456)">
<path d="M26.9076 22.6285L21.7966 26.9715L14.5029 25.0925L26.9076 22.6285Z" fill="#087CFA"/>
</g>
<g filter="url(#filter3_d_31_8456)">
<path d="M7.76014 15.0811L5.42871 8.41141L17.0698 5.02856L7.76014 15.0811Z" fill="#07C3F2"/>
</g>
<g filter="url(#filter4_d_31_8456)">
<path d="M24.1739 17.7326L20.9077 12.1577L20.9694 12.1188L17.0699 5.02856L5.02881 18.032V26.9715L26.9077 22.6286L24.1739 17.7326Z" fill="url(#paint2_linear_31_8456)"/>
</g>
<g filter="url(#filter5_d_31_8456)">
<path d="M9.14307 9.14282H22.8574V22.8571H9.14307V9.14282Z" fill="black"/>
</g>
<path d="M10.8525 20.2651H15.9954V21.1223H10.8525V20.2651Z" fill="white"/>
<path d="M12.6861 10.8572H13.7147L15.9044 16.0069H14.7296L14.2724 14.864H12.101L11.6438 16.0069H10.501L12.6861 10.8572ZM13.8701 13.8675L13.1844 12.208L12.4987 13.8675H13.8701Z" fill="white"/>
<path d="M15.7236 13.456V13.4423C15.7173 13.0866 15.7831 12.7332 15.917 12.4036C16.051 12.0739 16.2503 11.7748 16.503 11.5243C16.7557 11.2738 17.0564 11.077 17.3872 10.9458C17.718 10.8147 18.0719 10.7519 18.4276 10.7612C18.8055 10.7422 19.1832 10.8035 19.5358 10.941C19.8884 11.0785 20.2079 11.2891 20.4733 11.5589L19.7464 12.3978C19.3985 12.0362 18.9223 11.826 18.4207 11.8126C17.5476 11.8126 16.9167 12.5372 16.9167 13.4263V13.4423C16.9167 14.3315 17.5316 15.072 18.4207 15.072C19.0127 15.072 19.3761 14.8434 19.7921 14.464L20.5099 15.2C20.2474 15.5028 19.9198 15.7423 19.5517 15.9006C19.1836 16.0589 18.7845 16.132 18.3841 16.1143C18.0333 16.1202 17.6849 16.0555 17.3596 15.924C17.0343 15.7925 16.7388 15.5969 16.4906 15.3489C16.2424 15.1009 16.0466 14.8056 15.9148 14.4804C15.783 14.1552 15.718 13.8069 15.7236 13.456Z" fill="white"/>
</g>
</g>
</g>
<defs>
<filter id="filter0_i_31_8456" x="2" y="2" width="28" height="32" filterUnits="userSpaceOnUse" color-interpolation-filters="sRGB">
<feFlood flood-opacity="0" result="BackgroundImageFix"/>
<feBlend mode="normal" in="SourceGraphic" in2="BackgroundImageFix" result="shape"/>
<feColorMatrix in="SourceAlpha" type="matrix" values="0 0 0 0 0 0 0 0 0 0 0 0 0 0 0 0 0 0 127 0" result="hardAlpha"/>
<feOffset dy="4"/>
<feGaussianBlur stdDeviation="2"/>
<feComposite in2="hardAlpha" operator="arithmetic" k2="-1" k3="1"/>
<feColorMatrix type="matrix" values="0 0 0 0 0 0 0 0 0 0 0 0 0 0 0 0 0 0 0.25 0"/>
<feBlend mode="normal" in2="shape" result="effect1_innerShadow_31_8456"/>
</filter>
<filter id="filter1_d_31_8456" x="17.7969" y="10.3566" width="13.1748" height="22.6149" filterUnits="userSpaceOnUse" color-interpolation-filters="sRGB">
<feFlood flood-opacity="0" result="BackgroundImageFix"/>
<feColorMatrix in="SourceAlpha" type="matrix" values="0 0 0 0 0 0 0 0 0 0 0 0 0 0 0 0 0 0 127 0" result="hardAlpha"/>
<feOffset dy="2"/>
<feGaussianBlur stdDeviation="2"/>
<feComposite in2="hardAlpha" operator="out"/>
<feColorMatrix type="matrix" values="0 0 0 0 0 0 0 0 0 0 0 0 0 0 0 0 0 0 0.25 0"/>
<feBlend mode="normal" in2="BackgroundImageFix" result="effect1_dropShadow_31_8456"/>
<feBlend mode="normal" in="SourceGraphic" in2="effect1_dropShadow_31_8456" result="shape"/>
</filter>
<filter id="filter2_d_31_8456" x="10.5029" y="20.6285" width="20.4048" height="12.3429" filterUnits="userSpaceOnUse" color-interpolation-filters="sRGB">
<feFlood flood-opacity="0" result="BackgroundImageFix"/>
<feColorMatrix in="SourceAlpha" type="matrix" values="0 0 0 0 0 0 0 0 0 0 0 0 0 0 0 0 0 0 127 0" result="hardAlpha"/>
<feOffset dy="2"/>
<feGaussianBlur stdDeviation="2"/>
<feComposite in2="hardAlpha" operator="out"/>
<feColorMatrix type="matrix" values="0 0 0 0 0 0 0 0 0 0 0 0 0 0 0 0 0 0 0.25 0"/>
<feBlend mode="normal" in2="BackgroundImageFix" result="effect1_dropShadow_31_8456"/>
<feBlend mode="normal" in="SourceGraphic" in2="effect1_dropShadow_31_8456" result="shape"/>
</filter>
<filter id="filter3_d_31_8456" x="1.42871" y="3.02856" width="19.6411" height="18.0525" filterUnits="userSpaceOnUse" color-interpolation-filters="sRGB">
<feFlood flood-opacity="0" result="BackgroundImageFix"/>
<feColorMatrix in="SourceAlpha" type="matrix" values="0 0 0 0 0 0 0 0 0 0 0 0 0 0 0 0 0 0 127 0" result="hardAlpha"/>
<feOffset dy="2"/>
<feGaussianBlur stdDeviation="2"/>
<feComposite in2="hardAlpha" operator="out"/>
<feColorMatrix type="matrix" values="0 0 0 0 0 0 0 0 0 0 0 0 0 0 0 0 0 0 0.25 0"/>
<feBlend mode="normal" in2="BackgroundImageFix" result="effect1_dropShadow_31_8456"/>
<feBlend mode="normal" in="SourceGraphic" in2="effect1_dropShadow_31_8456" result="shape"/>
</filter>
<filter id="filter4_d_31_8456" x="1.02881" y="3.02856" width="29.8789" height="29.9429" filterUnits="userSpaceOnUse" color-interpolation-filters="sRGB">
<feFlood flood-opacity="0" result="BackgroundImageFix"/>
<feColorMatrix in="SourceAlpha" type="matrix" values="0 0 0 0 0 0 0 0 0 0 0 0 0 0 0 0 0 0 127 0" result="hardAlpha"/>
<feOffset dy="2"/>
<feGaussianBlur stdDeviation="2"/>
<feComposite in2="hardAlpha" operator="out"/>
<feColorMatrix type="matrix" values="0 0 0 0 0 0 0 0 0 0 0 0 0 0 0 0 0 0 0.25 0"/>
<feBlend mode="normal" in2="BackgroundImageFix" result="effect1_dropShadow_31_8456"/>
<feBlend mode="normal" in="SourceGraphic" in2="effect1_dropShadow_31_8456" result="shape"/>
</filter>
<filter id="filter5_d_31_8456" x="5.14307" y="7.14282" width="21.7144" height="21.7143" filterUnits="userSpaceOnUse" color-interpolation-filters="sRGB">
<feFlood flood-opacity="0" result="BackgroundImageFix"/>
<feColorMatrix in="SourceAlpha" type="matrix" values="0 0 0 0 0 0 0 0 0 0 0 0 0 0 0 0 0 0 127 0" result="hardAlpha"/>
<feOffset dy="2"/>
<feGaussianBlur stdDeviation="2"/>
<feComposite in2="hardAlpha" operator="out"/>
<feColorMatrix type="matrix" values="0 0 0 0 0 0 0 0 0 0 0 0 0 0 0 0 0 0 0.25 0"/>
<feBlend mode="normal" in2="BackgroundImageFix" result="effect1_dropShadow_31_8456"/>
<feBlend mode="normal" in="SourceGraphic" in2="effect1_dropShadow_31_8456" result="shape"/>
</filter>
<linearGradient id="paint0_linear_31_8456" x1="16" y1="0" x2="16" y2="32" gradientUnits="userSpaceOnUse">
<stop stop-color="#FCF84A"/>
<stop offset="0.244792" stop-color="#9AF156"/>
<stop offset="0.510417" stop-color="#7AE36F"/>
<stop offset="0.744792" stop-color="#21D789"/>
<stop offset="1" stop-color="#07C3F2"/>
</linearGradient>
<linearGradient id="paint1_linear_31_8456" x1="21.0347" y1="33.0167" x2="5.1963" y2="10.8462" gradientUnits="userSpaceOnUse">
<stop offset="0.09" stop-color="#21D789"/>
<stop offset="0.48" stop-color="#07C3F2"/>
<stop offset="0.9" stop-color="#087CFA"/>
</linearGradient>
<linearGradient id="paint2_linear_31_8456" x1="19.4105" y1="27.6685" x2="8.53966" y2="12.496" gradientUnits="userSpaceOnUse">
<stop offset="0.09" stop-color="#21D789"/>
<stop offset="0.48" stop-color="#07C3F2"/>
<stop offset="0.9" stop-color="#087CFA"/>
</linearGradient>
<clipPath id="clip0_31_8456">
<rect width="32" height="32" fill="white"/>
</clipPath>
</defs>
</svg>
