<svg width="32" height="32" viewBox="0 0 32 32" fill="none" xmlns="http://www.w3.org/2000/svg">
<g clip-path="url(#clip0_31_8504)">
<path d="M24 0H8C3.58172 0 0 3.58172 0 8V24C0 28.4183 3.58172 32 8 32H24C28.4183 32 32 28.4183 32 24V8C32 3.58172 28.4183 0 24 0Z" fill="url(#paint0_linear_31_8504)"/>
<g filter="url(#filter0_i_31_8504)">
<path d="M24 2H8C4.68629 2 2 4.68629 2 8V24C2 27.3137 4.68629 30 8 30H24C27.3137 30 30 27.3137 30 24V8C30 4.68629 27.3137 2 24 2Z" fill="black" fill-opacity="0.7"/>
<mask id="mask0_31_8504" style="mask-type:luminance" maskUnits="userSpaceOnUse" x="5" y="5" width="23" height="23">
<path d="M5.14258 5.14282H27.0855V27.0857H5.14258V5.14282Z" fill="white"/>
</mask>
<g mask="url(#mask0_31_8504)">
<g filter="url(#filter1_d_31_8504)">
<path d="M15.5134 13.0234L6.23313 10.7554L5.14258 13.3355L8.48785 24.0357L17.3761 27.0855L15.5134 13.0234Z" fill="url(#paint1_linear_31_8504)"/>
</g>
<g filter="url(#filter2_d_31_8504)">
<path d="M27.0859 11.4197L24.8555 7.05257L13.4747 5.14282L8.48828 24.0358L17.3765 27.0857L17.8527 26.304L27.0859 11.4197Z" fill="url(#paint2_linear_31_8504)"/>
</g>
<g filter="url(#filter3_d_31_8504)">
<path d="M23.017 9.25708H9.30273V22.9714H23.017V9.25708Z" fill="black"/>
</g>
<path d="M18.4991 10.9301H19.5461L21.7581 16.1282H20.571L20.0991 14.9706H17.9166L17.4447 16.1282H16.2871L18.4991 10.9301ZM19.6935 13.9678L19.0079 12.2941L18.3221 13.9678H19.6935Z" fill="white"/>
<path d="M15.3857 16.2831L14.8179 15.7744C14.3829 16.0545 13.8594 16.2167 13.2843 16.2167C11.6917 16.2167 10.5488 15.0296 10.5488 13.5624V13.5476C10.5488 12.0804 11.7064 10.8785 13.299 10.8785C14.8916 10.8785 16.0345 12.0656 16.0345 13.5329V13.5476C16.0345 14.0933 15.8649 14.602 15.5774 15.0296L16.1082 15.4794L15.3857 16.2831ZM13.9774 15.0296L13.1368 14.3145L13.8594 13.5034L14.7073 14.2702C14.7958 14.0638 14.8474 13.8204 14.8474 13.5624V13.5476C14.8474 12.6629 14.1986 11.9255 13.2843 11.9255C12.37 11.9255 11.7359 12.6481 11.7359 13.5329V13.5476C11.7359 14.4324 12.3848 15.1698 13.299 15.1698C13.5497 15.1698 13.7783 15.1255 13.9774 15.0296Z" fill="white"/>
<path d="M15.7317 20.3997H10.5889V21.2568H15.7317V20.3997Z" fill="white"/>
</g>
</g>
</g>
<defs>
<filter id="filter0_i_31_8504" x="2" y="2" width="28" height="32" filterUnits="userSpaceOnUse" color-interpolation-filters="sRGB">
<feFlood flood-opacity="0" result="BackgroundImageFix"/>
<feBlend mode="normal" in="SourceGraphic" in2="BackgroundImageFix" result="shape"/>
<feColorMatrix in="SourceAlpha" type="matrix" values="0 0 0 0 0 0 0 0 0 0 0 0 0 0 0 0 0 0 127 0" result="hardAlpha"/>
<feOffset dy="4"/>
<feGaussianBlur stdDeviation="2"/>
<feComposite in2="hardAlpha" operator="arithmetic" k2="-1" k3="1"/>
<feColorMatrix type="matrix" values="0 0 0 0 0 0 0 0 0 0 0 0 0 0 0 0 0 0 0.25 0"/>
<feBlend mode="normal" in2="shape" result="effect1_innerShadow_31_8504"/>
</filter>
<filter id="filter1_d_31_8504" x="1.14258" y="8.75537" width="20.2334" height="24.3301" filterUnits="userSpaceOnUse" color-interpolation-filters="sRGB">
<feFlood flood-opacity="0" result="BackgroundImageFix"/>
<feColorMatrix in="SourceAlpha" type="matrix" values="0 0 0 0 0 0 0 0 0 0 0 0 0 0 0 0 0 0 127 0" result="hardAlpha"/>
<feOffset dy="2"/>
<feGaussianBlur stdDeviation="2"/>
<feComposite in2="hardAlpha" operator="out"/>
<feColorMatrix type="matrix" values="0 0 0 0 0 0 0 0 0 0 0 0 0 0 0 0 0 0 0.25 0"/>
<feBlend mode="normal" in2="BackgroundImageFix" result="effect1_dropShadow_31_8504"/>
<feBlend mode="normal" in="SourceGraphic" in2="effect1_dropShadow_31_8504" result="shape"/>
</filter>
<filter id="filter2_d_31_8504" x="4.48828" y="3.14282" width="26.5977" height="29.9429" filterUnits="userSpaceOnUse" color-interpolation-filters="sRGB">
<feFlood flood-opacity="0" result="BackgroundImageFix"/>
<feColorMatrix in="SourceAlpha" type="matrix" values="0 0 0 0 0 0 0 0 0 0 0 0 0 0 0 0 0 0 127 0" result="hardAlpha"/>
<feOffset dy="2"/>
<feGaussianBlur stdDeviation="2"/>
<feComposite in2="hardAlpha" operator="out"/>
<feColorMatrix type="matrix" values="0 0 0 0 0 0 0 0 0 0 0 0 0 0 0 0 0 0 0.25 0"/>
<feBlend mode="normal" in2="BackgroundImageFix" result="effect1_dropShadow_31_8504"/>
<feBlend mode="normal" in="SourceGraphic" in2="effect1_dropShadow_31_8504" result="shape"/>
</filter>
<filter id="filter3_d_31_8504" x="5.30273" y="7.25708" width="21.7139" height="21.7143" filterUnits="userSpaceOnUse" color-interpolation-filters="sRGB">
<feFlood flood-opacity="0" result="BackgroundImageFix"/>
<feColorMatrix in="SourceAlpha" type="matrix" values="0 0 0 0 0 0 0 0 0 0 0 0 0 0 0 0 0 0 127 0" result="hardAlpha"/>
<feOffset dy="2"/>
<feGaussianBlur stdDeviation="2"/>
<feComposite in2="hardAlpha" operator="out"/>
<feColorMatrix type="matrix" values="0 0 0 0 0 0 0 0 0 0 0 0 0 0 0 0 0 0 0.25 0"/>
<feBlend mode="normal" in2="BackgroundImageFix" result="effect1_dropShadow_31_8504"/>
<feBlend mode="normal" in="SourceGraphic" in2="effect1_dropShadow_31_8504" result="shape"/>
</filter>
<linearGradient id="paint0_linear_31_8504" x1="16" y1="0" x2="16" y2="32" gradientUnits="userSpaceOnUse">
<stop stop-color="#3BEA62"/>
<stop offset="0.510417" stop-color="#087DF7"/>
<stop offset="1" stop-color="#6B57FF"/>
</linearGradient>
<linearGradient id="paint1_linear_31_8504" x1="13.1851" y1="23.49" x2="10.2961" y2="13.0645" gradientUnits="userSpaceOnUse">
<stop stop-color="#087CFA"/>
<stop offset="1" stop-color="#6B57FF"/>
</linearGradient>
<linearGradient id="paint2_linear_31_8504" x1="9.21881" y1="25.043" x2="19.9747" y2="9.57025" gradientUnits="userSpaceOnUse">
<stop stop-color="#087CFA"/>
<stop offset="0.387317" stop-color="#097FF6"/>
<stop offset="0.960121" stop-color="#3BEA62"/>
</linearGradient>
<clipPath id="clip0_31_8504">
<rect width="32" height="32" fill="white"/>
</clipPath>
</defs>
</svg>
