<svg width="32" height="32" viewBox="0 0 32 32" fill="none" xmlns="http://www.w3.org/2000/svg">
<g clip-path="url(#clip0_31_8521)">
<path d="M24 0H8C3.58172 0 0 3.58172 0 8V24C0 28.4183 3.58172 32 8 32H24C28.4183 32 32 28.4183 32 24V8C32 3.58172 28.4183 0 24 0Z" fill="url(#paint0_linear_31_8521)"/>
<g filter="url(#filter0_i_31_8521)">
<path d="M24 2H8C4.68629 2 2 4.68629 2 8V24C2 27.3137 4.68629 30 8 30H24C27.3137 30 30 27.3137 30 24V8C30 4.68629 27.3137 2 24 2Z" fill="black" fill-opacity="0.7"/>
<mask id="mask0_31_8521" style="mask-type:luminance" maskUnits="userSpaceOnUse" x="4" y="4" width="24" height="24">
<path d="M28 4H4V28H28V4Z" fill="white"/>
</mask>
<g mask="url(#mask0_31_8521)">
<g filter="url(#filter1_d_31_8521)">
<path fill-rule="evenodd" clip-rule="evenodd" d="M15.4671 11.9728C15.0369 13.0495 14.6226 14.8312 14.1221 12.7815C13.7468 11.3256 12.9449 13.6938 12.3617 14.0998C11.1854 14.9939 10.5345 16.2539 10.0121 17.6037C8.62871 16.4274 9.14759 18.3152 9.06284 19.2385C9.13824 20.6224 8.91274 22.1357 9.17416 23.4396C10.2719 24.3962 11.066 25.906 12.6995 25.8865C13.8169 26.2747 13.677 24.5852 14.6902 25.9872C15.6226 27.2652 16.1984 26.518 16.8071 25.8895C17.6964 27.2507 17.9688 24.2605 18.7191 25.6017C19.8786 26.053 20.9183 26.2677 21.1085 24.7373C21.3467 23.5286 23.4247 23.5041 22.9378 22.051C22.8699 20.5433 23.0727 18.928 22.8382 17.4865C22.0512 16.8722 21.444 15.4538 20.5472 15.3303C19.4377 15.8687 19.8652 13.4947 19.4086 12.7959C19.2593 10.9611 18.8663 11.7907 18.439 13.049C18.2026 14.8605 17.2087 13.9969 16.7011 12.8114C16.2495 12.4317 15.7349 10.4257 15.4671 11.9728Z" fill="#F3E517"/>
</g>
<mask id="mask1_31_8521" style="mask-type:luminance" maskUnits="userSpaceOnUse" x="9" y="12" width="14" height="14">
<path d="M9.625 21.6759L10 22.0509L10.5625 23.9259L10.75 21.6759L11.3125 24.4884V20.9259L11.6875 21.8634L12.25 24.4884V20.9259L12.625 21.3009L13.1875 24.4884L13.75 20.1759L14.9904 25.0359L15.0625 22.0509L15.4375 20.9259L15.8125 25.6134L16.9375 20.9259L17.3125 24.8634L18.25 20.7384L19.1875 25.2384L19.375 21.8634L19.9375 20.7384L20.125 25.0509L21.0625 20.9259L21.625 22.8009L21.8125 21.1134L22.375 22.2384V18.6759L21.8125 20.1759L21.625 16.9884L21.25 19.4259L20.875 18.6759L20.6875 16.0509L19.75 19.6134L19.5625 18.8634L19 13.2384L18.4375 18.1134L18.0625 19.6134L17.3125 14.5509L16.5625 18.8634L16.1875 19.9884L16 12.2438L14.875 20.9259L13.75 13.0509L13.1875 19.8009L12.8125 19.0509L12.4375 14.5509L12.25 19.0509L11.6875 20.3634L11.3125 15.8634L10.9375 19.4259L10.375 18.4884V21.1134L9.625 18.3009V21.6759Z" fill="white"/>
</mask>
<g mask="url(#mask1_31_8521)">
<path fill-rule="evenodd" clip-rule="evenodd" d="M9.25 25.8009V12.1134H22.75V25.8009H9.25Z" fill="#FF7901"/>
<g filter="url(#filter2_d_31_8521)">
<path fill-rule="evenodd" clip-rule="evenodd" d="M9.4375 19.0509L10.9375 19.9884L11.5 18.3009L12.4375 19.4259L13.5625 17.5509L13.9375 19.8009L14.3125 18.3009L14.875 19.4259L15.0625 18.3009C15.0625 18.3009 15.625 19.8009 15.625 19.6134C15.625 19.4259 16.375 16.8009 16.375 16.8009L17.125 19.2384L18.25 16.9884L18.8125 19.4259L19.75 17.7384L20.3125 19.4259L21.25 18.4884L22.375 19.6134V21.1134L21.625 21.6759L20.5 21.3009L19.75 20.9259L19.5625 22.8009L19.1875 20.9259L18.4375 22.6134L17.3125 20.9259L16.9375 22.6134L16.1875 21.4884L15.25 23.9259L14.6875 21.1134L13.5625 21.6759L12.8125 20.5509L12.4375 22.4259L11.6875 21.4884L10.9375 22.4259L10.5625 21.8634L9.4375 22.0509V19.0509Z" fill="#FF0101"/>
</g>
</g>
<g filter="url(#filter3_d_31_8521)">
<path d="M16 5.33997C13.5132 5.33997 11.2453 6.11637 9.57228 7.42007C7.89928 8.72374 6.8125 10.5891 6.8125 12.6642V13.4142C5.15147 14.2558 4 16.4634 4 19.0509C4 22.3629 5.88427 25.0509 8.3125 25.0509V12.6642C8.3125 11.1102 9.11685 9.67994 10.498 8.60364C11.8792 7.52734 13.8296 6.83997 16 6.83997C18.1704 6.83997 20.1207 7.52734 21.5019 8.60364C22.8831 9.67994 23.6875 11.1102 23.6875 12.6642V25.0509C26.1158 25.0509 28 22.3629 28 19.0509C28 16.4634 26.8485 14.2558 25.1875 13.4142V12.6642C25.1875 10.5891 24.1007 8.72374 22.4277 7.42007C20.7547 6.11637 18.4868 5.33997 16 5.33997ZM8.875 13.2384V25.0509C9.25 25.0509 9.625 24.8634 9.8125 24.4884V13.6134C9.625 13.4259 9.25 13.2384 8.875 13.2384ZM23.125 13.2384C22.75 13.2384 22.375 13.4259 22.1875 13.6134V24.4884C22.375 24.8634 22.75 25.0509 23.125 25.0509V13.2384Z" fill="#0077CC"/>
</g>
</g>
</g>
</g>
<defs>
<filter id="filter0_i_31_8521" x="2" y="2" width="28" height="32" filterUnits="userSpaceOnUse" color-interpolation-filters="sRGB">
<feFlood flood-opacity="0" result="BackgroundImageFix"/>
<feBlend mode="normal" in="SourceGraphic" in2="BackgroundImageFix" result="shape"/>
<feColorMatrix in="SourceAlpha" type="matrix" values="0 0 0 0 0 0 0 0 0 0 0 0 0 0 0 0 0 0 127 0" result="hardAlpha"/>
<feOffset dy="4"/>
<feGaussianBlur stdDeviation="2"/>
<feComposite in2="hardAlpha" operator="arithmetic" k2="-1" k3="1"/>
<feColorMatrix type="matrix" values="0 0 0 0 0 0 0 0 0 0 0 0 0 0 0 0 0 0 0.25 0"/>
<feBlend mode="normal" in2="shape" result="effect1_innerShadow_31_8521"/>
</filter>
<filter id="filter1_d_31_8521" x="5.03516" y="9.39478" width="21.9766" height="23.2911" filterUnits="userSpaceOnUse" color-interpolation-filters="sRGB">
<feFlood flood-opacity="0" result="BackgroundImageFix"/>
<feColorMatrix in="SourceAlpha" type="matrix" values="0 0 0 0 0 0 0 0 0 0 0 0 0 0 0 0 0 0 127 0" result="hardAlpha"/>
<feOffset dy="2"/>
<feGaussianBlur stdDeviation="2"/>
<feComposite in2="hardAlpha" operator="out"/>
<feColorMatrix type="matrix" values="0 0 0 0 0 0 0 0 0 0 0 0 0 0 0 0 0 0 0.25 0"/>
<feBlend mode="normal" in2="BackgroundImageFix" result="effect1_dropShadow_31_8521"/>
<feBlend mode="normal" in="SourceGraphic" in2="effect1_dropShadow_31_8521" result="shape"/>
</filter>
<filter id="filter2_d_31_8521" x="5.4375" y="14.8009" width="20.9375" height="15.125" filterUnits="userSpaceOnUse" color-interpolation-filters="sRGB">
<feFlood flood-opacity="0" result="BackgroundImageFix"/>
<feColorMatrix in="SourceAlpha" type="matrix" values="0 0 0 0 0 0 0 0 0 0 0 0 0 0 0 0 0 0 127 0" result="hardAlpha"/>
<feOffset dy="2"/>
<feGaussianBlur stdDeviation="2"/>
<feComposite in2="hardAlpha" operator="out"/>
<feColorMatrix type="matrix" values="0 0 0 0 0 0 0 0 0 0 0 0 0 0 0 0 0 0 0.25 0"/>
<feBlend mode="normal" in2="BackgroundImageFix" result="effect1_dropShadow_31_8521"/>
<feBlend mode="normal" in="SourceGraphic" in2="effect1_dropShadow_31_8521" result="shape"/>
</filter>
<filter id="filter3_d_31_8521" x="0" y="3.33997" width="32" height="27.711" filterUnits="userSpaceOnUse" color-interpolation-filters="sRGB">
<feFlood flood-opacity="0" result="BackgroundImageFix"/>
<feColorMatrix in="SourceAlpha" type="matrix" values="0 0 0 0 0 0 0 0 0 0 0 0 0 0 0 0 0 0 127 0" result="hardAlpha"/>
<feOffset dy="2"/>
<feGaussianBlur stdDeviation="2"/>
<feComposite in2="hardAlpha" operator="out"/>
<feColorMatrix type="matrix" values="0 0 0 0 0 0 0 0 0 0 0 0 0 0 0 0 0 0 0.25 0"/>
<feBlend mode="normal" in2="BackgroundImageFix" result="effect1_dropShadow_31_8521"/>
<feBlend mode="normal" in="SourceGraphic" in2="effect1_dropShadow_31_8521" result="shape"/>
</filter>
<linearGradient id="paint0_linear_31_8521" x1="16" y1="0" x2="16" y2="32" gradientUnits="userSpaceOnUse">
<stop stop-color="#0077CC"/>
<stop offset="1" stop-color="#0044CC"/>
</linearGradient>
<clipPath id="clip0_31_8521">
<rect width="32" height="32" fill="white"/>
</clipPath>
</defs>
</svg>
