<svg width="32" height="32" viewBox="0 0 32 32" fill="none" xmlns="http://www.w3.org/2000/svg">
<g clip-path="url(#clip0_31_8540)">
<path d="M24 0H8C3.58172 0 0 3.58172 0 8V24C0 28.4183 3.58172 32 8 32H24C28.4183 32 32 28.4183 32 24V8C32 3.58172 28.4183 0 24 0Z" fill="url(#paint0_linear_31_8540)"/>
<g filter="url(#filter0_i_31_8540)">
<path d="M24 2H8C4.68629 2 2 4.68629 2 8V24C2 27.3137 4.68629 30 8 30H24C27.3137 30 30 27.3137 30 24V8C30 4.68629 27.3137 2 24 2Z" fill="black" fill-opacity="0.7"/>
<g filter="url(#filter1_d_31_8540)">
<path fill-rule="evenodd" clip-rule="evenodd" d="M23.8749 10.7879L24.3416 9.63892C24.3416 9.63892 23.7476 9.00065 23.0264 8.27722C22.3053 7.55382 20.7781 7.97935 20.7781 7.97935L19.0388 6H15.9844H12.93L11.1907 7.97935C11.1907 7.97935 9.66353 7.55382 8.94235 8.27722C8.22118 9.00065 7.62727 9.63892 7.62727 9.63892L8.0939 10.7879L7.5 12.49C7.5 12.49 9.24672 19.1264 9.45142 19.9368C9.85442 21.5325 10.1302 22.1496 11.2755 22.9581C12.4209 23.7666 14.4996 25.1707 14.839 25.3835C15.1784 25.5965 15.6026 25.9587 15.9844 25.9587C16.3662 25.9587 16.7904 25.5965 17.1298 25.3835C17.4692 25.1707 19.5479 23.7666 20.6933 22.9581C21.8387 22.1496 22.1144 21.5325 22.5174 19.9368C22.7221 19.1264 24.4688 12.49 24.4688 12.49L23.8749 10.7879Z" fill="#FF5500"/>
<path fill-rule="evenodd" clip-rule="evenodd" d="M20.2903 9.23472C20.2903 9.23472 22.5274 11.9475 22.5274 12.5273C22.5274 13.1071 22.246 13.2601 21.963 13.5615C21.6801 13.8629 20.4443 15.1792 20.2856 15.3483C20.1269 15.5173 19.7965 15.7736 19.9908 16.2349C20.1852 16.6963 20.4719 17.2833 20.1531 17.8787C19.8342 18.4741 19.288 18.8715 18.9381 18.8058C18.5881 18.74 17.7661 18.3092 17.4639 18.1124C17.1616 17.9156 16.2037 17.1231 16.2037 16.8198C16.2037 16.5166 17.1939 15.9722 17.3768 15.8485C17.5598 15.7249 18.3943 15.2461 18.4114 15.0582C18.4284 14.8702 18.4219 14.8151 18.1757 14.3508C17.9294 13.8864 17.4859 13.2667 17.5598 12.8544C17.6336 12.4422 18.3488 12.2278 18.8592 12.0344C19.3696 11.8411 20.3523 11.476 20.475 11.4192C20.5978 11.3624 20.5661 11.3083 20.1942 11.2729C19.8223 11.2376 18.7671 11.0971 18.2913 11.2301C17.8155 11.3631 17.0027 11.5655 16.9369 11.6728C16.871 11.7801 16.813 11.7837 16.8806 12.154C16.9482 12.5242 17.2963 14.3006 17.33 14.6161C17.3639 14.9317 17.43 15.1403 17.0908 15.218C16.7516 15.2958 16.1806 15.4309 15.9844 15.4309C15.7882 15.4309 15.2172 15.2958 14.8781 15.218C14.5388 15.1403 14.6049 14.9317 14.6388 14.6161C14.6726 14.3006 15.0206 12.5242 15.0883 12.154C15.1558 11.7837 15.0978 11.7801 15.032 11.6728C14.9661 11.5655 14.1533 11.3631 13.6775 11.2301C13.2017 11.0971 12.1465 11.2376 11.7746 11.2729C11.4028 11.3083 11.371 11.3624 11.4938 11.4192C11.6166 11.476 12.5993 11.8411 13.1096 12.0344C13.62 12.2278 14.3353 12.4422 14.4091 12.8544C14.4829 13.2667 14.0394 13.8864 13.7932 14.3508C13.5469 14.8151 13.5404 14.8702 13.5575 15.0582C13.5745 15.2461 14.409 15.7249 14.592 15.8485C14.7749 15.9722 15.7651 16.5166 15.7651 16.8198C15.7651 17.1231 14.8072 17.9156 14.505 18.1124C14.2027 18.3092 13.3808 18.74 13.0308 18.8058C12.6808 18.8715 12.1346 18.4741 11.8158 17.8787C11.497 17.2833 11.7837 16.6963 11.978 16.2349C12.1723 15.7736 11.842 15.5173 11.6832 15.3483C11.5246 15.1792 10.2887 13.8629 10.0058 13.5615C9.72281 13.2601 9.44141 13.1071 9.44141 12.5273C9.44141 11.9475 11.6786 9.23472 11.6786 9.23472C11.6786 9.23472 13.5664 9.59642 13.8209 9.59642C14.0754 9.59642 14.6269 9.38367 15.136 9.21344C15.645 9.04324 15.9844 9.04199 15.9844 9.04199C15.9844 9.04199 16.3238 9.04324 16.8329 9.21344C17.3419 9.38367 17.8934 9.59642 18.1479 9.59642C18.4025 9.59642 20.2903 9.23472 20.2903 9.23472ZM18.6131 19.6116C18.7516 19.6986 18.6671 19.8625 18.541 19.952C18.4149 20.0414 16.7196 21.3582 16.5551 21.5037C16.3906 21.6493 16.1488 21.8897 15.9844 21.8897C15.82 21.8897 15.5782 21.6493 15.4137 21.5037C15.2492 21.3582 13.554 20.0414 13.4278 19.952C13.3016 19.8625 13.2172 19.6986 13.3557 19.6116C13.4942 19.5247 13.9275 19.3052 14.5253 18.9949C15.1231 18.6846 15.8681 18.4207 15.9844 18.4207C16.1007 18.4207 16.8457 18.6846 17.4436 18.9949C18.0414 19.3052 18.4746 19.5247 18.6131 19.6116Z" fill="white"/>
<path d="M20.7781 7.97947L19.0388 6.00012H15.9844H12.9301L11.1908 7.97947C11.1908 7.97947 9.66356 7.55395 8.94238 8.27735C8.94238 8.27735 10.9786 8.09297 11.6786 9.2348C11.6786 9.2348 13.5664 9.5965 13.8209 9.5965C14.0754 9.5965 14.6269 9.38372 15.136 9.21352C15.6451 9.0433 15.9844 9.04207 15.9844 9.04207C15.9844 9.04207 16.3238 9.0433 16.8329 9.21352C17.3419 9.38372 17.8934 9.5965 18.148 9.5965C18.4025 9.5965 20.2903 9.2348 20.2903 9.2348C20.9902 8.09297 23.0265 8.27735 23.0265 8.27735C22.3053 7.55395 20.7781 7.97947 20.7781 7.97947Z" fill="#FF2000"/>
<path d="M20.7781 7.97947L19.0388 6.00012H15.9844H12.9301L11.1908 7.97947C11.1908 7.97947 9.66356 7.55395 8.94238 8.27735C8.94238 8.27735 10.9786 8.09297 11.6786 9.2348C11.6786 9.2348 13.5664 9.5965 13.8209 9.5965C14.0754 9.5965 14.6269 9.38372 15.136 9.21352C15.6451 9.0433 15.9844 9.04207 15.9844 9.04207C15.9844 9.04207 16.3238 9.0433 16.8329 9.21352C17.3419 9.38372 17.8934 9.5965 18.148 9.5965C18.4025 9.5965 20.2903 9.2348 20.2903 9.2348C20.9902 8.09297 23.0265 8.27735 23.0265 8.27735C22.3053 7.55395 20.7781 7.97947 20.7781 7.97947Z" fill="black" fill-opacity="0.1"/>
</g>
</g>
</g>
<defs>
<filter id="filter0_i_31_8540" x="2" y="2" width="28" height="32" filterUnits="userSpaceOnUse" color-interpolation-filters="sRGB">
<feFlood flood-opacity="0" result="BackgroundImageFix"/>
<feBlend mode="normal" in="SourceGraphic" in2="BackgroundImageFix" result="shape"/>
<feColorMatrix in="SourceAlpha" type="matrix" values="0 0 0 0 0 0 0 0 0 0 0 0 0 0 0 0 0 0 127 0" result="hardAlpha"/>
<feOffset dy="4"/>
<feGaussianBlur stdDeviation="2"/>
<feComposite in2="hardAlpha" operator="arithmetic" k2="-1" k3="1"/>
<feColorMatrix type="matrix" values="0 0 0 0 0 0 0 0 0 0 0 0 0 0 0 0 0 0 0.25 0"/>
<feBlend mode="normal" in2="shape" result="effect1_innerShadow_31_8540"/>
</filter>
<filter id="filter1_d_31_8540" x="3.5" y="4" width="24.9688" height="27.9587" filterUnits="userSpaceOnUse" color-interpolation-filters="sRGB">
<feFlood flood-opacity="0" result="BackgroundImageFix"/>
<feColorMatrix in="SourceAlpha" type="matrix" values="0 0 0 0 0 0 0 0 0 0 0 0 0 0 0 0 0 0 127 0" result="hardAlpha"/>
<feOffset dy="2"/>
<feGaussianBlur stdDeviation="2"/>
<feComposite in2="hardAlpha" operator="out"/>
<feColorMatrix type="matrix" values="0 0 0 0 0 0 0 0 0 0 0 0 0 0 0 0 0 0 0.25 0"/>
<feBlend mode="normal" in2="BackgroundImageFix" result="effect1_dropShadow_31_8540"/>
<feBlend mode="normal" in="SourceGraphic" in2="effect1_dropShadow_31_8540" result="shape"/>
</filter>
<linearGradient id="paint0_linear_31_8540" x1="0" y1="1622.58" x2="3200" y2="1622.58" gradientUnits="userSpaceOnUse">
<stop stop-color="#FF5500"/>
<stop offset="0.409877" stop-color="#FF5500"/>
<stop offset="0.581981" stop-color="#FF2000"/>
<stop offset="1" stop-color="#FF2000"/>
</linearGradient>
<clipPath id="clip0_31_8540">
<rect width="32" height="32" fill="white"/>
</clipPath>
</defs>
</svg>
