<svg width="32" height="32" viewBox="0 0 32 32" fill="none" xmlns="http://www.w3.org/2000/svg">
<g clip-path="url(#clip0_31_8623)">
<path d="M24 0H8C3.58172 0 0 3.58172 0 8V24C0 28.4183 3.58172 32 8 32H24C28.4183 32 32 28.4183 32 24V8C32 3.58172 28.4183 0 24 0Z" fill="url(#paint0_linear_31_8623)"/>
<path d="M24 0H8C3.58172 0 0 3.58172 0 8V24C0 28.4183 3.58172 32 8 32H24C28.4183 32 32 28.4183 32 24V8C32 3.58172 28.4183 0 24 0Z" fill="url(#paint1_linear_31_8623)"/>
<g filter="url(#filter0_i_31_8623)">
<path d="M24 2H8C4.68629 2 2 4.68629 2 8V24C2 27.3137 4.68629 30 8 30H24C27.3137 30 30 27.3137 30 24V8C30 4.68629 27.3137 2 24 2Z" fill="black" fill-opacity="0.7"/>
<mask id="mask0_31_8623" style="mask-type:luminance" maskUnits="userSpaceOnUse" x="4" y="4" width="24" height="24">
<path d="M28 4H4V28H28V4Z" fill="white"/>
</mask>
<g mask="url(#mask0_31_8623)">
<g filter="url(#filter1_d_31_8623)">
<path d="M7.52887 25.4493L5.02832 16.8297L20.562 21.1132L18.9049 26.9715L7.52887 25.4493Z" fill="url(#paint2_linear_31_8623)"/>
</g>
<g filter="url(#filter2_d_31_8623)">
<path d="M12.3882 5.05599L18.2305 6.72911L24.8316 5.02856L26.1391 14.08L11.2842 9.14284L12.3882 5.05599Z" fill="url(#paint3_linear_31_8623)"/>
</g>
<g filter="url(#filter3_d_31_8623)">
<path d="M26.9712 19.4834L26.1392 14.08L12.6992 9.61371L5.05575 11.2526L5.02832 16.8297L20.562 21.1132L26.9712 19.4834Z" fill="url(#paint4_linear_31_8623)"/>
</g>
<g filter="url(#filter4_d_31_8623)">
<path d="M9.14258 9.14282H22.8569V22.8571H9.14258V9.14282Z" fill="black"/>
</g>
<path d="M10.8525 20.2651H15.9954V21.1223H10.8525V20.2651Z" fill="white"/>
<path d="M10.8564 10.8389H12.8679C14.4884 10.8389 15.6107 11.952 15.6107 13.4034V13.4194C15.6107 14.8709 14.4907 15.9977 12.8679 15.9977H10.8564V10.8389ZM11.9993 11.8629V14.9714H12.877C13.0831 14.9836 13.2895 14.9521 13.4826 14.8792C13.6758 14.8063 13.8514 14.6934 13.998 14.5481C14.1447 14.4027 14.2591 14.2281 14.3337 14.0356C14.4084 13.8431 14.4416 13.6371 14.4313 13.4309V13.4171C14.4418 13.2102 14.4087 13.0033 14.3344 12.8098C14.26 12.6164 14.1459 12.4407 13.9995 12.294C13.853 12.1474 13.6775 12.033 13.4842 11.9584C13.2908 11.8837 13.084 11.8504 12.877 11.8606L11.9993 11.8629Z" fill="white"/>
<path d="M16.002 10.8411H17.2248L18.5825 13.024L19.938 10.8434H21.1608V16.0023H20.0317L20.034 12.6331L18.5825 14.8365H18.5505L17.1151 12.656V16H16.002V10.8411Z" fill="white"/>
</g>
</g>
</g>
<defs>
<filter id="filter0_i_31_8623" x="2" y="2" width="28" height="32" filterUnits="userSpaceOnUse" color-interpolation-filters="sRGB">
<feFlood flood-opacity="0" result="BackgroundImageFix"/>
<feBlend mode="normal" in="SourceGraphic" in2="BackgroundImageFix" result="shape"/>
<feColorMatrix in="SourceAlpha" type="matrix" values="0 0 0 0 0 0 0 0 0 0 0 0 0 0 0 0 0 0 127 0" result="hardAlpha"/>
<feOffset dy="4"/>
<feGaussianBlur stdDeviation="2"/>
<feComposite in2="hardAlpha" operator="arithmetic" k2="-1" k3="1"/>
<feColorMatrix type="matrix" values="0 0 0 0 0 0 0 0 0 0 0 0 0 0 0 0 0 0 0.25 0"/>
<feBlend mode="normal" in2="shape" result="effect1_innerShadow_31_8623"/>
</filter>
<filter id="filter1_d_31_8623" x="1.02832" y="14.8297" width="23.5342" height="18.1418" filterUnits="userSpaceOnUse" color-interpolation-filters="sRGB">
<feFlood flood-opacity="0" result="BackgroundImageFix"/>
<feColorMatrix in="SourceAlpha" type="matrix" values="0 0 0 0 0 0 0 0 0 0 0 0 0 0 0 0 0 0 127 0" result="hardAlpha"/>
<feOffset dy="2"/>
<feGaussianBlur stdDeviation="2"/>
<feComposite in2="hardAlpha" operator="out"/>
<feColorMatrix type="matrix" values="0 0 0 0 0 0 0 0 0 0 0 0 0 0 0 0 0 0 0.25 0"/>
<feBlend mode="normal" in2="BackgroundImageFix" result="effect1_dropShadow_31_8623"/>
<feBlend mode="normal" in="SourceGraphic" in2="effect1_dropShadow_31_8623" result="shape"/>
</filter>
<filter id="filter2_d_31_8623" x="7.28418" y="3.02856" width="22.8545" height="17.0515" filterUnits="userSpaceOnUse" color-interpolation-filters="sRGB">
<feFlood flood-opacity="0" result="BackgroundImageFix"/>
<feColorMatrix in="SourceAlpha" type="matrix" values="0 0 0 0 0 0 0 0 0 0 0 0 0 0 0 0 0 0 127 0" result="hardAlpha"/>
<feOffset dy="2"/>
<feGaussianBlur stdDeviation="2"/>
<feComposite in2="hardAlpha" operator="out"/>
<feColorMatrix type="matrix" values="0 0 0 0 0 0 0 0 0 0 0 0 0 0 0 0 0 0 0.25 0"/>
<feBlend mode="normal" in2="BackgroundImageFix" result="effect1_dropShadow_31_8623"/>
<feBlend mode="normal" in="SourceGraphic" in2="effect1_dropShadow_31_8623" result="shape"/>
</filter>
<filter id="filter3_d_31_8623" x="1.02832" y="7.61371" width="29.9434" height="19.4995" filterUnits="userSpaceOnUse" color-interpolation-filters="sRGB">
<feFlood flood-opacity="0" result="BackgroundImageFix"/>
<feColorMatrix in="SourceAlpha" type="matrix" values="0 0 0 0 0 0 0 0 0 0 0 0 0 0 0 0 0 0 127 0" result="hardAlpha"/>
<feOffset dy="2"/>
<feGaussianBlur stdDeviation="2"/>
<feComposite in2="hardAlpha" operator="out"/>
<feColorMatrix type="matrix" values="0 0 0 0 0 0 0 0 0 0 0 0 0 0 0 0 0 0 0.25 0"/>
<feBlend mode="normal" in2="BackgroundImageFix" result="effect1_dropShadow_31_8623"/>
<feBlend mode="normal" in="SourceGraphic" in2="effect1_dropShadow_31_8623" result="shape"/>
</filter>
<filter id="filter4_d_31_8623" x="5.14258" y="7.14282" width="21.7139" height="21.7143" filterUnits="userSpaceOnUse" color-interpolation-filters="sRGB">
<feFlood flood-opacity="0" result="BackgroundImageFix"/>
<feColorMatrix in="SourceAlpha" type="matrix" values="0 0 0 0 0 0 0 0 0 0 0 0 0 0 0 0 0 0 127 0" result="hardAlpha"/>
<feOffset dy="2"/>
<feGaussianBlur stdDeviation="2"/>
<feComposite in2="hardAlpha" operator="out"/>
<feColorMatrix type="matrix" values="0 0 0 0 0 0 0 0 0 0 0 0 0 0 0 0 0 0 0.25 0"/>
<feBlend mode="normal" in2="BackgroundImageFix" result="effect1_dropShadow_31_8623"/>
<feBlend mode="normal" in="SourceGraphic" in2="effect1_dropShadow_31_8623" result="shape"/>
</filter>
<linearGradient id="paint0_linear_31_8623" x1="16" y1="0" x2="16" y2="32" gradientUnits="userSpaceOnUse">
<stop stop-color="#3BEA62"/>
<stop offset="0.510417" stop-color="#087DF7"/>
<stop offset="1" stop-color="#6B57FF"/>
</linearGradient>
<linearGradient id="paint1_linear_31_8623" x1="21.4728" y1="39.6363" x2="3.224" y2="7.77288" gradientUnits="userSpaceOnUse">
<stop stop-color="#6B57FF"/>
<stop offset="0.14" stop-color="#8953FB"/>
<stop offset="0.44" stop-color="#D64AF2"/>
<stop offset="0.59" stop-color="#FF45ED"/>
<stop offset="0.97" stop-color="#FDB60D"/>
</linearGradient>
<linearGradient id="paint2_linear_31_8623" x1="10.9072" y1="11.0743" x2="14.6603" y2="26.7773" gradientUnits="userSpaceOnUse">
<stop stop-color="#6B57FF"/>
<stop offset="0.13" stop-color="#9A51F9"/>
<stop offset="0.27" stop-color="#C64CF4"/>
<stop offset="0.39" stop-color="#E548F0"/>
<stop offset="0.5" stop-color="#F846EE"/>
<stop offset="0.57" stop-color="#FF45ED"/>
<stop offset="0.63" stop-color="#FF57C9"/>
<stop offset="0.81" stop-color="#FE8A65"/>
<stop offset="0.94" stop-color="#FDAA26"/>
<stop offset="1" stop-color="#FDB60D"/>
</linearGradient>
<linearGradient id="paint3_linear_31_8623" x1="21.2522" y1="16.24" x2="17.5288" y2="5.57026" gradientUnits="userSpaceOnUse">
<stop stop-color="#6B57FF"/>
<stop offset="0.14" stop-color="#8953FB"/>
<stop offset="0.44" stop-color="#D64AF2"/>
<stop offset="0.59" stop-color="#FF45ED"/>
<stop offset="0.97" stop-color="#FDB60D"/>
</linearGradient>
<linearGradient id="paint4_linear_31_8623" x1="13.2889" y1="21.8309" x2="16.3792" y2="14.5029" gradientUnits="userSpaceOnUse">
<stop offset="0.12" stop-color="#FF45ED"/>
<stop offset="0.2" stop-color="#DF49F1"/>
<stop offset="0.3" stop-color="#BC4DF5"/>
<stop offset="0.42" stop-color="#9E51F9"/>
<stop offset="0.53" stop-color="#8854FC"/>
<stop offset="0.66" stop-color="#7855FD"/>
<stop offset="0.81" stop-color="#6E57FF"/>
<stop offset="1" stop-color="#6B57FF"/>
</linearGradient>
<clipPath id="clip0_31_8623">
<rect width="32" height="32" fill="white"/>
</clipPath>
</defs>
</svg>
