<svg width="32" height="32" viewBox="0 0 32 32" fill="none" xmlns="http://www.w3.org/2000/svg">
<g clip-path="url(#clip0_31_8643)">
<path d="M24 0H8C3.58172 0 0 3.58172 0 8V24C0 28.4183 3.58172 32 8 32H24C28.4183 32 32 28.4183 32 24V8C32 3.58172 28.4183 0 24 0Z" fill="url(#paint0_linear_31_8643)"/>
<path d="M24 0H8C3.58172 0 0 3.58172 0 8V24C0 28.4183 3.58172 32 8 32H24C28.4183 32 32 28.4183 32 24V8C32 3.58172 28.4183 0 24 0Z" fill="url(#paint1_linear_31_8643)"/>
<g filter="url(#filter0_i_31_8643)">
<path d="M24 2H8C4.68629 2 2 4.68629 2 8V24C2 27.3137 4.68629 30 8 30H24C27.3137 30 30 27.3137 30 24V8C30 4.68629 27.3137 2 24 2Z" fill="black" fill-opacity="0.7"/>
<mask id="mask0_31_8643" style="mask-type:luminance" maskUnits="userSpaceOnUse" x="4" y="4" width="24" height="24">
<path d="M28 4H4V28H28V4Z" fill="white"/>
</mask>
<g mask="url(#mask0_31_8643)">
<g filter="url(#filter1_d_31_8643)">
<path d="M19.9792 20.7817L5.02832 17.792L9.44432 26.944L20.4729 25.0217L19.9792 20.7817Z" fill="url(#paint2_linear_31_8643)"/>
</g>
<g filter="url(#filter2_d_31_8643)">
<path d="M26.9712 14.8206L20.914 8.57599L5.02832 11.9246V17.792L24.6534 21.7143L26.9712 14.8206Z" fill="url(#paint3_linear_31_8643)"/>
</g>
<path d="M26.9709 14.8206L17.4463 5.00116L9.9834 7.25943L12.4268 14.6926L24.6531 21.7143L26.9709 14.8206Z" fill="url(#paint4_linear_31_8643)"/>
<g filter="url(#filter3_d_31_8643)">
<path d="M25.2589 11.136L24.3948 5.00116H21.1217H17.4463L9.9834 7.25943L12.4268 14.6926L25.2589 11.136Z" fill="url(#paint5_linear_31_8643)"/>
</g>
<g filter="url(#filter4_d_31_8643)">
<path d="M9.14258 9.14288H22.8569V22.8572H9.14258V9.14288Z" fill="black"/>
</g>
<path d="M10.8525 20.2652H15.9954V21.1223H10.8525V20.2652Z" fill="white"/>
<path d="M10.8564 10.8389H12.8679C14.4884 10.8389 15.6107 11.952 15.6107 13.4034V13.4194C15.6107 14.8709 14.4907 15.9977 12.8679 15.9977H10.8564V10.8389ZM11.9993 11.8629V14.9714H12.877C13.0831 14.9836 13.2895 14.9521 13.4826 14.8792C13.6758 14.8063 13.8514 14.6934 13.998 14.5481C14.1447 14.4027 14.2591 14.2281 14.3337 14.0356C14.4084 13.8431 14.4416 13.6371 14.4313 13.4309V13.4171C14.4418 13.2102 14.4087 13.0033 14.3344 12.8098C14.26 12.6164 14.1459 12.4407 13.9995 12.294C13.853 12.1474 13.6775 12.033 13.4842 11.9584C13.2908 11.8837 13.084 11.8504 12.877 11.8606L11.9993 11.8629Z" fill="white"/>
<path d="M16.4382 10.8389H18.5524C19.7867 10.8389 20.5319 11.5703 20.5319 12.6286V12.6423C20.5319 13.84 19.6016 14.4709 18.4404 14.4709H17.5764V16.0229H16.4336L16.4382 10.8389ZM18.477 13.4491C19.0462 13.4491 19.3913 13.1086 19.3913 12.6651V12.6491C19.3913 12.1394 19.037 11.8674 18.477 11.8674H17.5764V13.4491H18.477Z" fill="white"/>
</g>
</g>
</g>
<defs>
<filter id="filter0_i_31_8643" x="2" y="2" width="28" height="32" filterUnits="userSpaceOnUse" color-interpolation-filters="sRGB">
<feFlood flood-opacity="0" result="BackgroundImageFix"/>
<feBlend mode="normal" in="SourceGraphic" in2="BackgroundImageFix" result="shape"/>
<feColorMatrix in="SourceAlpha" type="matrix" values="0 0 0 0 0 0 0 0 0 0 0 0 0 0 0 0 0 0 127 0" result="hardAlpha"/>
<feOffset dy="4"/>
<feGaussianBlur stdDeviation="2"/>
<feComposite in2="hardAlpha" operator="arithmetic" k2="-1" k3="1"/>
<feColorMatrix type="matrix" values="0 0 0 0 0 0 0 0 0 0 0 0 0 0 0 0 0 0 0.25 0"/>
<feBlend mode="normal" in2="shape" result="effect1_innerShadow_31_8643"/>
</filter>
<filter id="filter1_d_31_8643" x="1.02832" y="15.792" width="23.4443" height="17.152" filterUnits="userSpaceOnUse" color-interpolation-filters="sRGB">
<feFlood flood-opacity="0" result="BackgroundImageFix"/>
<feColorMatrix in="SourceAlpha" type="matrix" values="0 0 0 0 0 0 0 0 0 0 0 0 0 0 0 0 0 0 127 0" result="hardAlpha"/>
<feOffset dy="2"/>
<feGaussianBlur stdDeviation="2"/>
<feComposite in2="hardAlpha" operator="out"/>
<feColorMatrix type="matrix" values="0 0 0 0 0 0 0 0 0 0 0 0 0 0 0 0 0 0 0.25 0"/>
<feBlend mode="normal" in2="BackgroundImageFix" result="effect1_dropShadow_31_8643"/>
<feBlend mode="normal" in="SourceGraphic" in2="effect1_dropShadow_31_8643" result="shape"/>
</filter>
<filter id="filter2_d_31_8643" x="1.02832" y="6.57599" width="29.9434" height="21.1383" filterUnits="userSpaceOnUse" color-interpolation-filters="sRGB">
<feFlood flood-opacity="0" result="BackgroundImageFix"/>
<feColorMatrix in="SourceAlpha" type="matrix" values="0 0 0 0 0 0 0 0 0 0 0 0 0 0 0 0 0 0 127 0" result="hardAlpha"/>
<feOffset dy="2"/>
<feGaussianBlur stdDeviation="2"/>
<feComposite in2="hardAlpha" operator="out"/>
<feColorMatrix type="matrix" values="0 0 0 0 0 0 0 0 0 0 0 0 0 0 0 0 0 0 0.25 0"/>
<feBlend mode="normal" in2="BackgroundImageFix" result="effect1_dropShadow_31_8643"/>
<feBlend mode="normal" in="SourceGraphic" in2="effect1_dropShadow_31_8643" result="shape"/>
</filter>
<filter id="filter3_d_31_8643" x="5.9834" y="3.00116" width="23.2754" height="17.6914" filterUnits="userSpaceOnUse" color-interpolation-filters="sRGB">
<feFlood flood-opacity="0" result="BackgroundImageFix"/>
<feColorMatrix in="SourceAlpha" type="matrix" values="0 0 0 0 0 0 0 0 0 0 0 0 0 0 0 0 0 0 127 0" result="hardAlpha"/>
<feOffset dy="2"/>
<feGaussianBlur stdDeviation="2"/>
<feComposite in2="hardAlpha" operator="out"/>
<feColorMatrix type="matrix" values="0 0 0 0 0 0 0 0 0 0 0 0 0 0 0 0 0 0 0.25 0"/>
<feBlend mode="normal" in2="BackgroundImageFix" result="effect1_dropShadow_31_8643"/>
<feBlend mode="normal" in="SourceGraphic" in2="effect1_dropShadow_31_8643" result="shape"/>
</filter>
<filter id="filter4_d_31_8643" x="5.14258" y="7.14288" width="21.7139" height="21.7143" filterUnits="userSpaceOnUse" color-interpolation-filters="sRGB">
<feFlood flood-opacity="0" result="BackgroundImageFix"/>
<feColorMatrix in="SourceAlpha" type="matrix" values="0 0 0 0 0 0 0 0 0 0 0 0 0 0 0 0 0 0 127 0" result="hardAlpha"/>
<feOffset dy="2"/>
<feGaussianBlur stdDeviation="2"/>
<feComposite in2="hardAlpha" operator="out"/>
<feColorMatrix type="matrix" values="0 0 0 0 0 0 0 0 0 0 0 0 0 0 0 0 0 0 0.25 0"/>
<feBlend mode="normal" in2="BackgroundImageFix" result="effect1_dropShadow_31_8643"/>
<feBlend mode="normal" in="SourceGraphic" in2="effect1_dropShadow_31_8643" result="shape"/>
</filter>
<linearGradient id="paint0_linear_31_8643" x1="16" y1="0" x2="16" y2="32" gradientUnits="userSpaceOnUse">
<stop stop-color="#3BEA62"/>
<stop offset="0.510417" stop-color="#087DF7"/>
<stop offset="1" stop-color="#6B57FF"/>
</linearGradient>
<linearGradient id="paint1_linear_31_8643" x1="4.5748" y1="-5.45855" x2="37.2145" y2="14.2856" gradientUnits="userSpaceOnUse">
<stop offset="0.1" stop-color="#FF45ED"/>
<stop offset="0.11" stop-color="#F846EE"/>
<stop offset="0.28" stop-color="#AC4FF7"/>
<stop offset="0.41" stop-color="#7D55FD"/>
<stop offset="0.47" stop-color="#6B57FF"/>
<stop offset="0.48" stop-color="#655DFE"/>
<stop offset="0.57" stop-color="#4482FA"/>
<stop offset="0.66" stop-color="#299EF6"/>
<stop offset="0.76" stop-color="#16B3F4"/>
<stop offset="0.85" stop-color="#0BBFF2"/>
<stop offset="0.94" stop-color="#07C3F2"/>
</linearGradient>
<linearGradient id="paint2_linear_31_8643" x1="7.23632" y1="16.2308" x2="17.7734" y2="26.9875" gradientUnits="userSpaceOnUse">
<stop offset="0.1" stop-color="#FF45ED"/>
<stop offset="0.11" stop-color="#F846EE"/>
<stop offset="0.28" stop-color="#AC4FF7"/>
<stop offset="0.41" stop-color="#7D55FD"/>
<stop offset="0.47" stop-color="#6B57FF"/>
<stop offset="0.48" stop-color="#655DFE"/>
<stop offset="0.57" stop-color="#4482FA"/>
<stop offset="0.66" stop-color="#299EF6"/>
<stop offset="0.76" stop-color="#16B3F4"/>
<stop offset="0.85" stop-color="#0BBFF2"/>
<stop offset="0.94" stop-color="#07C3F2"/>
</linearGradient>
<linearGradient id="paint3_linear_31_8643" x1="8.02717" y1="22.5006" x2="15.7209" y2="16.0891" gradientUnits="userSpaceOnUse">
<stop offset="0.04" stop-color="#FF45ED"/>
<stop offset="0.05" stop-color="#FE45ED"/>
<stop offset="0.2" stop-color="#D14BF3"/>
<stop offset="0.36" stop-color="#AC4FF7"/>
<stop offset="0.51" stop-color="#9053FB"/>
<stop offset="0.67" stop-color="#7B55FD"/>
<stop offset="0.82" stop-color="#6F57FF"/>
<stop offset="0.97" stop-color="#6B57FF"/>
</linearGradient>
<linearGradient id="paint4_linear_31_8643" x1="17.5217" y1="10.3063" x2="22.6943" y2="20.8777" gradientUnits="userSpaceOnUse">
<stop offset="0.2" stop-color="#FF45ED"/>
<stop offset="0.29" stop-color="#F646EE"/>
<stop offset="0.43" stop-color="#DD49F1"/>
<stop offset="0.61" stop-color="#B64EF6"/>
<stop offset="0.82" stop-color="#7F55FD"/>
<stop offset="0.89" stop-color="#6B57FF"/>
</linearGradient>
<linearGradient id="paint5_linear_31_8643" x1="11.2588" y1="10.7383" x2="24.2531" y2="7.58858" gradientUnits="userSpaceOnUse">
<stop offset="0.1" stop-color="#FF45ED"/>
<stop offset="0.17" stop-color="#F64AED"/>
<stop offset="0.29" stop-color="#DD56EE"/>
<stop offset="0.44" stop-color="#B56AEE"/>
<stop offset="0.62" stop-color="#7E87F0"/>
<stop offset="0.81" stop-color="#38AAF1"/>
<stop offset="0.94" stop-color="#07C3F2"/>
</linearGradient>
<clipPath id="clip0_31_8643">
<rect width="32" height="32" fill="white"/>
</clipPath>
</defs>
</svg>
