<svg width="32" height="32" viewBox="0 0 32 32" fill="none" xmlns="http://www.w3.org/2000/svg">
<g clip-path="url(#clip0_31_8664)">
<path d="M24 0H8C3.58172 0 0 3.58172 0 8V24C0 28.4183 3.58172 32 8 32H24C28.4183 32 32 28.4183 32 24V8C32 3.58172 28.4183 0 24 0Z" fill="url(#paint0_linear_31_8664)"/>
<path d="M24 0H8C3.58172 0 0 3.58172 0 8V24C0 28.4183 3.58172 32 8 32H24C28.4183 32 32 28.4183 32 24V8C32 3.58172 28.4183 0 24 0Z" fill="url(#paint1_linear_31_8664)"/>
<g filter="url(#filter0_i_31_8664)">
<path d="M24 2H8C4.68629 2 2 4.68629 2 8V24C2 27.3137 4.68629 30 8 30H24C27.3137 30 30 27.3137 30 24V8C30 4.68629 27.3137 2 24 2Z" fill="black" fill-opacity="0.7"/>
<mask id="mask0_31_8664" style="mask-type:luminance" maskUnits="userSpaceOnUse" x="4" y="4" width="24" height="24">
<path d="M28 4H4V28H28V4Z" fill="white"/>
</mask>
<g mask="url(#mask0_31_8664)">
<g filter="url(#filter1_d_31_8664)">
<path d="M26.1277 10.0526L18.7426 5.02856L5.02832 14.768L8.50259 26.9715L23.4923 23.9314L26.1277 10.0526Z" fill="url(#paint2_linear_31_8664)"/>
</g>
<g filter="url(#filter2_d_31_8664)">
<path d="M26.1281 10.0526L18.7429 5.02856L16.9258 9.95657V20.0023H26.9714L26.1281 10.0526Z" fill="url(#paint3_linear_31_8664)"/>
</g>
<g filter="url(#filter3_d_31_8664)">
<path d="M9.14258 9.14282H22.8569V22.8571H9.14258V9.14282Z" fill="black"/>
</g>
<path d="M10.8525 20.2651H15.9954V21.1223H10.8525V20.2651Z" fill="white"/>
<path d="M10.8564 10.8388H12.8679C14.4884 10.8388 15.6107 11.952 15.6107 13.4034V13.4194C15.6107 14.8708 14.4907 15.9977 12.8679 15.9977H10.8564V10.8388ZM11.9993 11.8628V14.9714H12.877C13.0831 14.9835 13.2895 14.9521 13.4826 14.8792C13.6758 14.8062 13.8514 14.6934 13.998 14.5481C14.1447 14.4027 14.2591 14.2281 14.3337 14.0356C14.4084 13.8431 14.4416 13.637 14.4313 13.4308V13.4171C14.4418 13.2101 14.4088 13.0033 14.3344 12.8098C14.26 12.6164 14.1459 12.4407 13.9995 12.294C13.853 12.1474 13.6775 12.033 13.4842 11.9584C13.2908 11.8837 13.084 11.8504 12.877 11.8605L11.9993 11.8628Z" fill="white"/>
<path d="M17.7343 11.8788H16.1641V10.832H20.4406V11.8811L18.8703 11.8788V15.9954H17.7343V11.8788Z" fill="white"/>
</g>
</g>
</g>
<defs>
<filter id="filter0_i_31_8664" x="2" y="2" width="28" height="32" filterUnits="userSpaceOnUse" color-interpolation-filters="sRGB">
<feFlood flood-opacity="0" result="BackgroundImageFix"/>
<feBlend mode="normal" in="SourceGraphic" in2="BackgroundImageFix" result="shape"/>
<feColorMatrix in="SourceAlpha" type="matrix" values="0 0 0 0 0 0 0 0 0 0 0 0 0 0 0 0 0 0 127 0" result="hardAlpha"/>
<feOffset dy="4"/>
<feGaussianBlur stdDeviation="2"/>
<feComposite in2="hardAlpha" operator="arithmetic" k2="-1" k3="1"/>
<feColorMatrix type="matrix" values="0 0 0 0 0 0 0 0 0 0 0 0 0 0 0 0 0 0 0.25 0"/>
<feBlend mode="normal" in2="shape" result="effect1_innerShadow_31_8664"/>
</filter>
<filter id="filter1_d_31_8664" x="1.02832" y="3.02856" width="29.0996" height="29.9429" filterUnits="userSpaceOnUse" color-interpolation-filters="sRGB">
<feFlood flood-opacity="0" result="BackgroundImageFix"/>
<feColorMatrix in="SourceAlpha" type="matrix" values="0 0 0 0 0 0 0 0 0 0 0 0 0 0 0 0 0 0 127 0" result="hardAlpha"/>
<feOffset dy="2"/>
<feGaussianBlur stdDeviation="2"/>
<feComposite in2="hardAlpha" operator="out"/>
<feColorMatrix type="matrix" values="0 0 0 0 0 0 0 0 0 0 0 0 0 0 0 0 0 0 0.25 0"/>
<feBlend mode="normal" in2="BackgroundImageFix" result="effect1_dropShadow_31_8664"/>
<feBlend mode="normal" in="SourceGraphic" in2="effect1_dropShadow_31_8664" result="shape"/>
</filter>
<filter id="filter2_d_31_8664" x="12.9258" y="3.02856" width="18.0459" height="22.9737" filterUnits="userSpaceOnUse" color-interpolation-filters="sRGB">
<feFlood flood-opacity="0" result="BackgroundImageFix"/>
<feColorMatrix in="SourceAlpha" type="matrix" values="0 0 0 0 0 0 0 0 0 0 0 0 0 0 0 0 0 0 127 0" result="hardAlpha"/>
<feOffset dy="2"/>
<feGaussianBlur stdDeviation="2"/>
<feComposite in2="hardAlpha" operator="out"/>
<feColorMatrix type="matrix" values="0 0 0 0 0 0 0 0 0 0 0 0 0 0 0 0 0 0 0.25 0"/>
<feBlend mode="normal" in2="BackgroundImageFix" result="effect1_dropShadow_31_8664"/>
<feBlend mode="normal" in="SourceGraphic" in2="effect1_dropShadow_31_8664" result="shape"/>
</filter>
<filter id="filter3_d_31_8664" x="5.14258" y="7.14282" width="21.7139" height="21.7143" filterUnits="userSpaceOnUse" color-interpolation-filters="sRGB">
<feFlood flood-opacity="0" result="BackgroundImageFix"/>
<feColorMatrix in="SourceAlpha" type="matrix" values="0 0 0 0 0 0 0 0 0 0 0 0 0 0 0 0 0 0 127 0" result="hardAlpha"/>
<feOffset dy="2"/>
<feGaussianBlur stdDeviation="2"/>
<feComposite in2="hardAlpha" operator="out"/>
<feColorMatrix type="matrix" values="0 0 0 0 0 0 0 0 0 0 0 0 0 0 0 0 0 0 0.25 0"/>
<feBlend mode="normal" in2="BackgroundImageFix" result="effect1_dropShadow_31_8664"/>
<feBlend mode="normal" in="SourceGraphic" in2="effect1_dropShadow_31_8664" result="shape"/>
</filter>
<linearGradient id="paint0_linear_31_8664" x1="16" y1="0" x2="16" y2="32" gradientUnits="userSpaceOnUse">
<stop stop-color="#3BEA62"/>
<stop offset="0.510417" stop-color="#087DF7"/>
<stop offset="1" stop-color="#6B57FF"/>
</linearGradient>
<linearGradient id="paint1_linear_31_8664" x1="-0.634385" y1="19.9933" x2="31.7072" y2="11.3166" gradientUnits="userSpaceOnUse">
<stop offset="0.12" stop-color="#6B57FF"/>
<stop offset="0.54" stop-color="#FF45ED"/>
<stop offset="0.85" stop-color="#DD1265"/>
</linearGradient>
<linearGradient id="paint2_linear_31_8664" x1="4.61002" y1="18.7383" x2="26.0432" y2="13.2091" gradientUnits="userSpaceOnUse">
<stop offset="0.12" stop-color="#6B57FF"/>
<stop offset="0.54" stop-color="#FF45ED"/>
<stop offset="0.85" stop-color="#DD1265"/>
</linearGradient>
<linearGradient id="paint3_linear_31_8664" x1="19.4218" y1="17.2251" x2="26.2379" y2="7.88112" gradientUnits="userSpaceOnUse">
<stop offset="0.19" stop-color="#DD1265"/>
<stop offset="0.29" stop-color="#DE146A"/>
<stop offset="0.41" stop-color="#E21977"/>
<stop offset="0.53" stop-color="#E7218E"/>
<stop offset="0.66" stop-color="#EF2DAD"/>
<stop offset="0.79" stop-color="#F93CD5"/>
<stop offset="0.85" stop-color="#FF45ED"/>
</linearGradient>
<clipPath id="clip0_31_8664">
<rect width="32" height="32" fill="white"/>
</clipPath>
</defs>
</svg>
