<svg width="32" height="32" viewBox="0 0 32 32" fill="none" xmlns="http://www.w3.org/2000/svg">
<g clip-path="url(#clip0_31_8682)">
<path d="M24 0H8C3.58172 0 0 3.58172 0 8V24C0 28.4183 3.58172 32 8 32H24C28.4183 32 32 28.4183 32 24V8C32 3.58172 28.4183 0 24 0Z" fill="url(#paint0_linear_31_8682)"/>
<g filter="url(#filter0_i_31_8682)">
<path d="M24 2H8C4.68629 2 2 4.68629 2 8V24C2 27.3137 4.68629 30 8 30H24C27.3137 30 30 27.3137 30 24V8C30 4.68629 27.3137 2 24 2Z" fill="black" fill-opacity="0.7"/>
<g filter="url(#filter1_d_31_8682)">
<path fill-rule="evenodd" clip-rule="evenodd" d="M13.5 7.5C14.5 6 16.5 6 16.5 6C16.5 6 16.6038 6.21317 16.5 6.5C17.3691 6.10963 18.5 6.5 18.5 6.5C18.5 6.5 18.3416 6.83373 18 7C18.8615 7.31473 19.5 8 19.5 8C19.5 8 19.3416 8.30248 19 8.5C19.8537 8.58035 20.5 9.5 20.5 9.5C20.5 9.5 20.2734 9.88863 20 10C20.711 10.3067 21 10.4107 21 11C21 11.5893 19.5 12.5 19.5 12.5C19.5 12.5 18.6252 10.2491 18 9.5C17.3748 8.75093 16.7683 8.3435 16 8C15.2317 7.6565 13.5 7.5 13.5 7.5Z" fill="url(#paint1_linear_31_8682)"/>
<path fill-rule="evenodd" clip-rule="evenodd" d="M16.5 8.5C16.5 8.5 16.5 11.5 15 12.5C13.5 13.5 10.5 14 8.5 15C6.5 16 6 17.5 6 17.5C6 17.5 8 16.5 9 16.5C10 16.5 11.5 17 11.5 17C11.5 17 12.5 16 14 16C15.5 16 17 16.5 17 16.5L17.5 11L16.5 8.5Z" fill="url(#paint2_linear_31_8682)"/>
<path fill-rule="evenodd" clip-rule="evenodd" d="M17 10C17 10 17.0938 11.75 15.5938 12.75C14.0938 13.75 10.2332 14.3697 8.34375 15.4062C6.96082 16.1649 6 17.5 6 17.5C6 17.5 8 16.5 9 16.5C10 16.5 11.5 17 11.5 17C11.5 17 12.5 16 14 16C15.5 16 17 16.5 17 16.5L17.5 11L17 10Z" fill="url(#paint3_linear_31_8682)"/>
<path fill-rule="evenodd" clip-rule="evenodd" d="M15.5 6.81252C15 6.87502 15 7.50002 15 7.50002L16.5 10.5C17.5 12.5 17 17 13.5 19C13.5 19 13.7384 19.1168 14.1182 19.2627C12.5787 20.5242 10.2913 22 8 22H16.8672C17.4991 21.3411 18.0413 20.6024 18.5147 19.8711C18.5431 19.669 18.6406 19.2188 19 18.5C19.5 17.5 20 15.5 20 15.5C20 15.5 20.5 15.5 21 16C21.4177 16.4177 19.4818 18.8192 18.8037 19.6348C19.2231 19.496 19.629 19.2968 20 19C22.5 17 21.127 11.8929 19 9.50002C17 7.25002 16 6.75002 15.5 6.81252Z" fill="url(#paint4_linear_31_8682)"/>
<path opacity="0.2" fill-rule="evenodd" clip-rule="evenodd" d="M16 7L15.25 8L16.5 10.5C16.7294 10.9587 16.8753 11.5524 16.9287 12.2139L19.5 10.5L16 7Z" fill="url(#paint5_linear_31_8682)"/>
<path fill-rule="evenodd" clip-rule="evenodd" d="M16.3855 18.1724C15.4129 19.3861 15.4642 19.5263 14.0996 20.5498C14.0922 20.5554 14.0837 20.5608 14.0762 20.5664L15.4678 21.9365C20.4805 17.7487 16.3855 18.1724 16.3855 18.1724ZM13.6641 20.8633C13.098 21.2647 12.4722 21.6597 11.7998 22H14.8193L13.6641 20.8633Z" fill="#2980B9"/>
<path opacity="0.2" fill-rule="evenodd" clip-rule="evenodd" d="M14.1182 19.2627C12.5787 20.5242 10.2913 22 8 22H16.8672C17.5508 21.2872 18.1334 20.4805 18.6328 19.6914C19.1131 19.5528 13.7384 19.1168 14.1182 19.2627Z" fill="url(#paint6_linear_31_8682)"/>
<path d="M8 22V26H24V22H8Z" fill="url(#paint7_linear_31_8682)"/>
<path d="M8 23V25H10.5V23H8ZM11 23V25H14V23H11ZM14.5 23V25H17.5V23H14.5ZM18 23V25H21V23H18ZM21.5 23V25H24V23H21.5Z" fill="url(#paint8_linear_31_8682)"/>
<path fill-rule="evenodd" clip-rule="evenodd" d="M22.5 7.5C22 7.5 22 8.99998 20.5 10.5C19 12 18.5 12 18.5 12C18.5 12 20 13 20 15C21.5 16 21.5 18 21.5 18L23.5 12.5L23 8.5L22.5 7.5Z" fill="url(#paint9_linear_31_8682)"/>
<path fill-rule="evenodd" clip-rule="evenodd" d="M22.5 7.5C22 7.5 22 8.99998 20.5 10.5C19 12 18.5 12 18.5 12C18.5 12 20 13 20 15C20 17 19 18.5 19 18.5L23.5 12.5L23 8.5L22.5 7.5Z" fill="url(#paint10_linear_31_8682)"/>
<path fill-rule="evenodd" clip-rule="evenodd" d="M22.4997 7.5C21.4997 14.25 18.8434 14.6875 18.5309 16.625C18.2125 18.5995 18.9997 18.5 18.9997 18.5L23.4997 12.5L22.9997 8.5L22.4997 7.5Z" fill="url(#paint11_linear_31_8682)"/>
<path fill-rule="evenodd" clip-rule="evenodd" d="M22.5 7.5C23 7.5 24.5 10.5 24 15C23.5 19.5 21 20.5 21 20.5C21 20.5 17.5 20 16.5 20C15.5 20 15 20.5 15 20.5C15 20.5 13.5 19.5 11.5 19.5C9.5 19.5 7 21.5 7 21.5C7 21.5 7.5 19.5 10.5 18.5C13.5 17.5 18.3995 18.4205 20 16.5C25 10.5 22 7.5 22.5 7.5Z" fill="url(#paint12_linear_31_8682)"/>
<path fill-rule="evenodd" clip-rule="evenodd" d="M14.9996 9.5C13.9389 9.85355 12.4996 9.5 11.9996 10L11.4996 10.5C11.4996 10.5 10.9996 9.5 11.4996 9C11.9996 8.5 12.9996 8.5 13.4996 7.5C13.9996 6.5 15.4996 6.5 15.9996 7C16.9996 8 16.4996 9 14.9996 9.5Z" fill="url(#paint13_linear_31_8682)"/>
<path fill-rule="evenodd" clip-rule="evenodd" d="M15.5938 12.75C14.0938 13.75 10.2332 14.3697 8.34375 15.4063C6.96082 16.1649 6 17.5 6 17.5C6 17.5 8 16.5 9 16.5C10 16.5 11.5 17 11.5 17C11.5 17 17.0938 11.75 15.5938 12.75Z" fill="url(#paint14_linear_31_8682)"/>
</g>
</g>
</g>
<defs>
<filter id="filter0_i_31_8682" x="2" y="2" width="28" height="32" filterUnits="userSpaceOnUse" color-interpolation-filters="sRGB">
<feFlood flood-opacity="0" result="BackgroundImageFix"/>
<feBlend mode="normal" in="SourceGraphic" in2="BackgroundImageFix" result="shape"/>
<feColorMatrix in="SourceAlpha" type="matrix" values="0 0 0 0 0 0 0 0 0 0 0 0 0 0 0 0 0 0 127 0" result="hardAlpha"/>
<feOffset dy="4"/>
<feGaussianBlur stdDeviation="2"/>
<feComposite in2="hardAlpha" operator="arithmetic" k2="-1" k3="1"/>
<feColorMatrix type="matrix" values="0 0 0 0 0 0 0 0 0 0 0 0 0 0 0 0 0 0 0.25 0"/>
<feBlend mode="normal" in2="shape" result="effect1_innerShadow_31_8682"/>
</filter>
<filter id="filter1_d_31_8682" x="2" y="4" width="26.1006" height="28" filterUnits="userSpaceOnUse" color-interpolation-filters="sRGB">
<feFlood flood-opacity="0" result="BackgroundImageFix"/>
<feColorMatrix in="SourceAlpha" type="matrix" values="0 0 0 0 0 0 0 0 0 0 0 0 0 0 0 0 0 0 127 0" result="hardAlpha"/>
<feOffset dy="2"/>
<feGaussianBlur stdDeviation="2"/>
<feComposite in2="hardAlpha" operator="out"/>
<feColorMatrix type="matrix" values="0 0 0 0 0 0 0 0 0 0 0 0 0 0 0 0 0 0 0.25 0"/>
<feBlend mode="normal" in2="BackgroundImageFix" result="effect1_dropShadow_31_8682"/>
<feBlend mode="normal" in="SourceGraphic" in2="effect1_dropShadow_31_8682" result="shape"/>
</filter>
<linearGradient id="paint0_linear_31_8682" x1="32" y1="-2139.19" x2="16" y2="-2139.19" gradientUnits="userSpaceOnUse">
<stop stop-color="#2F3943"/>
<stop offset="1" stop-color="#808C9B"/>
</linearGradient>
<linearGradient id="paint1_linear_31_8682" x1="20.1291" y1="11.1503" x2="20" y2="6" gradientUnits="userSpaceOnUse">
<stop stop-color="#197CF1"/>
<stop offset="1" stop-color="#21C9FB"/>
</linearGradient>
<linearGradient id="paint2_linear_31_8682" x1="17.0707" y1="10.6135" x2="7.7773" y2="16.1378" gradientUnits="userSpaceOnUse">
<stop stop-color="#197CF1"/>
<stop offset="1" stop-color="#21C9FB"/>
</linearGradient>
<linearGradient id="paint3_linear_31_8682" x1="15.125" y1="13.4687" x2="17.5938" y2="15.9375" gradientUnits="userSpaceOnUse">
<stop stop-color="#18222A"/>
<stop offset="1" stop-color="#566069"/>
</linearGradient>
<linearGradient id="paint4_linear_31_8682" x1="-188.286" y1="18.5" x2="-188.286" y2="5.50002" gradientUnits="userSpaceOnUse">
<stop stop-color="#2F3943"/>
<stop offset="1" stop-color="#808C9B"/>
</linearGradient>
<linearGradient id="paint5_linear_31_8682" x1="15.5" y1="8.5" x2="17.5" y2="11.5" gradientUnits="userSpaceOnUse">
<stop/>
<stop offset="1" stop-opacity="0"/>
</linearGradient>
<linearGradient id="paint6_linear_31_8682" x1="13.5" y1="19.5" x2="16.5" y2="22.5" gradientUnits="userSpaceOnUse">
<stop/>
<stop offset="1" stop-opacity="0"/>
</linearGradient>
<linearGradient id="paint7_linear_31_8682" x1="24" y1="-245.399" x2="16" y2="-245.399" gradientUnits="userSpaceOnUse">
<stop stop-color="#2F3943"/>
<stop offset="1" stop-color="#808C9B"/>
</linearGradient>
<linearGradient id="paint8_linear_31_8682" x1="24" y1="4.5" x2="16" y2="4.5" gradientUnits="userSpaceOnUse">
<stop stop-color="#197CF1"/>
<stop offset="1" stop-color="#21C9FB"/>
</linearGradient>
<linearGradient id="paint9_linear_31_8682" x1="-188.286" y1="18.5" x2="-188.286" y2="5.5" gradientUnits="userSpaceOnUse">
<stop stop-color="#2F3943"/>
<stop offset="1" stop-color="#808C9B"/>
</linearGradient>
<linearGradient id="paint10_linear_31_8682" x1="22.5" y1="7.5" x2="19" y2="12.5" gradientUnits="userSpaceOnUse">
<stop stop-color="#18222A"/>
<stop offset="1" stop-color="#18222A" stop-opacity="0"/>
</linearGradient>
<linearGradient id="paint11_linear_31_8682" x1="22.1872" y1="8.90625" x2="24.1403" y2="10.8594" gradientUnits="userSpaceOnUse">
<stop stop-color="#18222A"/>
<stop offset="1" stop-color="#18222A" stop-opacity="0"/>
</linearGradient>
<linearGradient id="paint12_linear_31_8682" x1="23.5" y1="18" x2="17.5" y2="13.75" gradientUnits="userSpaceOnUse">
<stop stop-color="#197CF1"/>
<stop offset="1" stop-color="#21C9FB"/>
</linearGradient>
<linearGradient id="paint13_linear_31_8682" x1="-188.286" y1="10.5" x2="-188.286" y2="5" gradientUnits="userSpaceOnUse">
<stop stop-color="#2F3943"/>
<stop offset="1" stop-color="#808C9B"/>
</linearGradient>
<linearGradient id="paint14_linear_31_8682" x1="11.75" y1="13.75" x2="14.3281" y2="16.3281" gradientUnits="userSpaceOnUse">
<stop stop-color="#18222A"/>
<stop offset="1" stop-color="#566069"/>
</linearGradient>
<clipPath id="clip0_31_8682">
<rect width="32" height="32" fill="white"/>
</clipPath>
</defs>
</svg>
