<svg width="32" height="32" viewBox="0 0 32 32" fill="none" xmlns="http://www.w3.org/2000/svg">
<g clip-path="url(#clip0_31_8702)">
<path d="M24 0H8C3.58172 0 0 3.58172 0 8V24C0 28.4183 3.58172 32 8 32H24C28.4183 32 32 28.4183 32 24V8C32 3.58172 28.4183 0 24 0Z" fill="url(#paint0_linear_31_8702)"/>
<g filter="url(#filter0_i_31_8702)">
<path d="M24 2H8C4.68629 2 2 4.68629 2 8V24C2 27.3137 4.68629 30 8 30H24C27.3137 30 30 27.3137 30 24V8C30 4.68629 27.3137 2 24 2Z" fill="black" fill-opacity="0.7"/>
<g filter="url(#filter1_d_31_8702)">
<path d="M7.49998 8C6.6003 8 6 8.60123 6 9.49998V22.4998C6 23.3985 6.6042 23.9998 7.49998 23.9998H24.4998C25.044 23.9998 25.9998 23.3999 25.9998 22.4998V9.49998C25.9998 8.59988 25.3975 8 24.4998 8H7.49998ZM11.4999 13.9999C12.3284 13.9999 12.9999 14.6714 12.9999 15.4999C12.9999 16.3283 12.3284 16.9999 11.4999 16.9999C10.6715 16.9999 9.99995 16.3283 9.99995 15.4999C9.99995 14.6714 10.6715 13.9999 11.4999 13.9999ZM20.4998 13.9999C21.3282 13.9999 21.9998 14.6714 21.9998 15.4999C21.9998 16.3283 21.3282 16.9999 20.4998 16.9999C19.6714 16.9999 18.9998 16.3283 18.9998 15.4999C18.9998 14.6714 19.6714 13.9999 20.4998 13.9999Z" fill="#141414"/>
<path d="M7.49902 10.5116L7.49905 19.0116C7.49905 19.5113 7.9991 20.0115 8.49902 20.0115H23.499C23.9992 20.0115 24.499 19.5138 24.499 19.0116V10.5116C24.499 10.0122 24.0013 9.5116 23.499 9.5116H8.49902C7.9984 9.5116 7.49902 10.0097 7.49902 10.5116ZM11.4991 14.0116C12.3275 14.0116 12.9991 14.6832 12.9991 15.5116C12.9991 16.34 12.3275 17.0116 11.4991 17.0116C10.6706 17.0116 9.9991 16.34 9.9991 15.5116C9.9991 14.6832 10.6706 14.0116 11.4991 14.0116ZM20.4991 14.0116C21.3275 14.0116 21.9991 14.6832 21.9991 15.5116C21.9991 16.34 21.3275 17.0116 20.4991 17.0116C19.6706 17.0116 18.9991 16.34 18.9991 15.5116C18.9991 14.6832 19.6706 14.0116 20.4991 14.0116Z" fill="#58BEB1"/>
<path d="M7.5 24.0126L9.49995 20.5126H22.5L24.5 24.0126H7.5Z" fill="#3F3F3F"/>
<path d="M11.501 23.0095C12.0533 23.0095 12.501 22.5618 12.501 22.0095C12.501 21.4572 12.0533 21.0095 11.501 21.0095C10.9487 21.0095 10.501 21.4572 10.501 22.0095C10.501 22.5618 10.9487 23.0095 11.501 23.0095Z" fill="#141414"/>
<path d="M20.5 23.0095C21.0523 23.0095 21.5 22.5618 21.5 22.0095C21.5 21.4572 21.0523 21.0095 20.5 21.0095C19.9477 21.0095 19.5 21.4572 19.5 22.0095C19.5 22.5618 19.9477 23.0095 20.5 23.0095Z" fill="#141414"/>
<path d="M11.5011 13.5056C10.4004 13.5056 9.50098 14.4063 9.50098 15.5041C9.50098 16.6047 10.3987 17.5041 11.5011 17.5041H20.5011C21.5986 17.5041 22.501 16.6055 22.501 15.507V15.5032C22.501 14.4047 21.5987 13.5031 20.5011 13.5032L11.5011 13.5056ZM11.5011 14.0041C12.3295 14.0041 13.0011 14.6757 13.0011 15.5041C13.0011 16.3325 12.3295 17.0041 11.5011 17.0041C10.6727 17.0041 10.0011 16.3325 10.0011 15.5041C10.0011 14.6757 10.6727 14.0041 11.5011 14.0041ZM20.5011 14.0041C21.3295 14.0041 22.0011 14.6757 22.0011 15.5041C22.0011 16.3325 21.3295 17.0041 20.5011 17.0041C19.6727 17.0041 19.0011 16.3325 19.0011 15.5041C19.0011 14.6757 19.6727 14.0041 20.5011 14.0041Z" fill="#141414"/>
<path d="M18.5 14.5071H13.5V16.5071H18.5V14.5071Z" fill="#DBE2E3"/>
</g>
</g>
</g>
<defs>
<filter id="filter0_i_31_8702" x="2" y="2" width="28" height="32" filterUnits="userSpaceOnUse" color-interpolation-filters="sRGB">
<feFlood flood-opacity="0" result="BackgroundImageFix"/>
<feBlend mode="normal" in="SourceGraphic" in2="BackgroundImageFix" result="shape"/>
<feColorMatrix in="SourceAlpha" type="matrix" values="0 0 0 0 0 0 0 0 0 0 0 0 0 0 0 0 0 0 127 0" result="hardAlpha"/>
<feOffset dy="4"/>
<feGaussianBlur stdDeviation="2"/>
<feComposite in2="hardAlpha" operator="arithmetic" k2="-1" k3="1"/>
<feColorMatrix type="matrix" values="0 0 0 0 0 0 0 0 0 0 0 0 0 0 0 0 0 0 0.25 0"/>
<feBlend mode="normal" in2="shape" result="effect1_innerShadow_31_8702"/>
</filter>
<filter id="filter1_d_31_8702" x="2" y="6" width="28" height="24.0126" filterUnits="userSpaceOnUse" color-interpolation-filters="sRGB">
<feFlood flood-opacity="0" result="BackgroundImageFix"/>
<feColorMatrix in="SourceAlpha" type="matrix" values="0 0 0 0 0 0 0 0 0 0 0 0 0 0 0 0 0 0 127 0" result="hardAlpha"/>
<feOffset dy="2"/>
<feGaussianBlur stdDeviation="2"/>
<feComposite in2="hardAlpha" operator="out"/>
<feColorMatrix type="matrix" values="0 0 0 0 0 0 0 0 0 0 0 0 0 0 0 0 0 0 0.25 0"/>
<feBlend mode="normal" in2="BackgroundImageFix" result="effect1_dropShadow_31_8702"/>
<feBlend mode="normal" in="SourceGraphic" in2="effect1_dropShadow_31_8702" result="shape"/>
</filter>
<linearGradient id="paint0_linear_31_8702" x1="15.9027" y1="32.0245" x2="15.9027" y2="-0.0207259" gradientUnits="userSpaceOnUse">
<stop stop-color="#2CA0B9"/>
<stop offset="1" stop-color="#87DEAA"/>
</linearGradient>
<clipPath id="clip0_31_8702">
<rect width="32" height="32" fill="white"/>
</clipPath>
</defs>
</svg>
