<svg width="32" height="32" viewBox="0 0 32 32" fill="none" xmlns="http://www.w3.org/2000/svg">
<g clip-path="url(#clip0_31_8720)">
<path d="M24 0H8C3.58172 0 0 3.58172 0 8V24C0 28.4183 3.58172 32 8 32H24C28.4183 32 32 28.4183 32 24V8C32 3.58172 28.4183 0 24 0Z" fill="url(#paint0_linear_31_8720)"/>
<g filter="url(#filter0_i_31_8720)">
<path d="M24 2H8C4.68629 2 2 4.68629 2 8V24C2 27.3137 4.68629 30 8 30H24C27.3137 30 30 27.3137 30 24V8C30 4.68629 27.3137 2 24 2Z" fill="black" fill-opacity="0.7"/>
<path d="M16.1124 25.721C21.5592 25.721 25.9748 21.3063 25.9748 15.8605C25.9748 10.4147 21.5592 6 16.1124 6C10.6655 6 6.25 10.4147 6.25 15.8605C6.25 21.3063 10.6655 25.721 16.1124 25.721Z" fill="url(#paint1_linear_31_8720)"/>
<path opacity="0.4" d="M23.6198 13.6035L14.9932 9.86047L10.6642 10.1025L13.0199 12.4825L8.84375 18.0725L9.62175 18.8605L10.5532 20.3605L10.3228 23.831C10.4516 23.9253 10.5827 24.0165 10.716 24.1045L22.4096 23.4345L22.4116 23.4365C24.6306 21.5925 25.9305 18.8695 25.969 15.9845L23.6198 13.6035Z" fill="url(#paint2_linear_31_8720)"/>
<path fill-rule="evenodd" clip-rule="evenodd" d="M9.69555 25.5005C9.69555 25.5005 12.7775 14.519 24.7745 15.9155C24.7745 15.9155 17.1499 11.3065 9.74835 17.52C7.56185 22.676 9.69555 25.5005 9.69555 25.5005Z" fill="url(#paint3_linear_31_8720)"/>
<path fill-rule="evenodd" clip-rule="evenodd" d="M10.6133 24.1115C10.6133 24.1115 13.8289 16.2165 22.413 16.078C15.8881 17.6965 22.4239 23.435 22.4239 23.435C22.4239 23.435 17.2625 28.1965 10.6133 24.1115Z" fill="url(#paint4_linear_31_8720)"/>
<path fill-rule="evenodd" clip-rule="evenodd" d="M8.82227 18.0595C8.82227 18.0595 15.2455 10.8655 24.8375 15.836C24.6659 14.484 23.5312 12.958 21.4976 12.522C21.0477 12.304 17.7507 7.1155 10.6639 10.102C12.844 10.275 13.7793 10.586 13.8326 10.822C10.062 10.162 8.94459 15.625 8.82227 18.0595Z" fill="url(#paint5_linear_31_8720)"/>
<path fill-rule="evenodd" clip-rule="evenodd" d="M18.0342 11.9565C18.0342 11.9565 19.6775 11.3575 19.8916 13.14C18.271 13.295 18.0342 11.9565 18.0342 11.9565Z" fill="#202020"/>
<path fill-rule="evenodd" clip-rule="evenodd" d="M9.65255 25.5355C9.65255 25.5355 12.4616 16.2045 21.8548 15.843C21.8548 15.843 14.2327 14.427 8.8494 23.11C8.8198 24.3385 9.65255 25.536 9.65255 25.536V25.5355Z" fill="#FDD664"/>
<path fill-rule="evenodd" clip-rule="evenodd" d="M10.6709 10.103C10.6709 10.103 13.0143 10.242 13.8505 10.828C14.1998 10.7545 14.4968 10.511 14.5466 10.1795C14.2471 10.053 11.5042 9.82599 10.6714 10.103H10.6709Z" fill="url(#paint6_linear_31_8720)"/>
<path fill-rule="evenodd" clip-rule="evenodd" d="M10.6709 10.103C10.6709 10.103 13.0143 10.242 13.8505 10.828C14.1998 10.7545 14.4968 10.511 14.5466 10.1795C14.2471 10.053 11.5042 9.82599 10.6714 10.103H10.6709Z" fill="#FDD664"/>
<path fill-rule="evenodd" clip-rule="evenodd" d="M8.84321 18.072C8.84321 18.072 11.7766 14.4845 17.6977 14.056C17.6977 14.056 9.63648 14.427 8.96061 16.7445C8.77216 17.302 8.84321 18.072 8.84321 18.072Z" fill="#FDD664"/>
</g>
</g>
<defs>
<filter id="filter0_i_31_8720" x="2" y="2" width="28" height="32" filterUnits="userSpaceOnUse" color-interpolation-filters="sRGB">
<feFlood flood-opacity="0" result="BackgroundImageFix"/>
<feBlend mode="normal" in="SourceGraphic" in2="BackgroundImageFix" result="shape"/>
<feColorMatrix in="SourceAlpha" type="matrix" values="0 0 0 0 0 0 0 0 0 0 0 0 0 0 0 0 0 0 127 0" result="hardAlpha"/>
<feOffset dy="4"/>
<feGaussianBlur stdDeviation="2"/>
<feComposite in2="hardAlpha" operator="arithmetic" k2="-1" k3="1"/>
<feColorMatrix type="matrix" values="0 0 0 0 0 0 0 0 0 0 0 0 0 0 0 0 0 0 0.25 0"/>
<feBlend mode="normal" in2="shape" result="effect1_innerShadow_31_8720"/>
</filter>
<linearGradient id="paint0_linear_31_8720" x1="48.05" y1="-8.84537" x2="-7.08992" y2="31.9867" gradientUnits="userSpaceOnUse">
<stop stop-color="#D446FF"/>
<stop offset="1" stop-color="#A0D8FF"/>
</linearGradient>
<linearGradient id="paint1_linear_31_8720" x1="35.868" y1="0.548766" x2="1.88433" y2="25.719" gradientUnits="userSpaceOnUse">
<stop stop-color="#D446FF"/>
<stop offset="1" stop-color="#A0D8FF"/>
</linearGradient>
<linearGradient id="paint2_linear_31_8720" x1="15.9799" y1="15.8605" x2="25.979" y2="25.7265" gradientUnits="userSpaceOnUse">
<stop stop-color="#292C2F"/>
<stop offset="1" stop-opacity="0"/>
</linearGradient>
<linearGradient id="paint3_linear_31_8720" x1="15.4569" y1="16.614" x2="22.4308" y2="11.2195" gradientUnits="userSpaceOnUse">
<stop stop-color="white"/>
<stop offset="1" stop-color="#DADADA"/>
</linearGradient>
<linearGradient id="paint4_linear_31_8720" x1="16.7876" y1="22.9137" x2="12.2476" y2="16.0631" gradientUnits="userSpaceOnUse">
<stop stop-color="white"/>
<stop offset="1" stop-color="#DADADA"/>
</linearGradient>
<linearGradient id="paint5_linear_31_8720" x1="24.6264" y1="10.3327" x2="17.1825" y2="16.2305" gradientUnits="userSpaceOnUse">
<stop stop-color="#D0D0D0"/>
<stop offset="1" stop-color="white"/>
</linearGradient>
<linearGradient id="paint6_linear_31_8720" x1="14.3803" y1="9.99162" x2="12.8306" y2="12.1302" gradientUnits="userSpaceOnUse">
<stop stop-color="#FFDC68"/>
<stop offset="1" stop-color="#CE4300"/>
</linearGradient>
<clipPath id="clip0_31_8720">
<rect width="32" height="32" fill="white"/>
</clipPath>
</defs>
</svg>
