<svg width="32" height="32" viewBox="0 0 32 32" fill="none" xmlns="http://www.w3.org/2000/svg">
<g clip-path="url(#clip0_31_8734)">
<path d="M24 0H8C3.58172 0 0 3.58172 0 8V24C0 28.4183 3.58172 32 8 32H24C28.4183 32 32 28.4183 32 24V8C32 3.58172 28.4183 0 24 0Z" fill="url(#paint0_linear_31_8734)"/>
<g filter="url(#filter0_i_31_8734)">
<path d="M24 2H8C4.68629 2 2 4.68629 2 8V24C2 27.3137 4.68629 30 8 30H24C27.3137 30 30 27.3137 30 24V8C30 4.68629 27.3137 2 24 2Z" fill="black" fill-opacity="0.7"/>
<g filter="url(#filter1_d_31_8734)">
<path d="M24.8819 12.7692C24.4654 11.774 23.6205 10.6996 22.9589 10.3599C23.4307 11.2671 23.7582 12.2414 23.9297 13.2481L23.9314 13.264C22.8476 10.5822 21.0104 9.49917 19.5091 7.14397C19.4331 7.02487 19.3572 6.90552 19.2832 6.77952C19.241 6.70757 19.2071 6.64272 19.1776 6.58304C19.1154 6.46334 19.0674 6.33682 19.0347 6.20607C19.0347 6.20004 19.0325 6.19419 19.0285 6.18967C19.0245 6.18514 19.0189 6.18224 19.0129 6.18152C19.007 6.17989 19.0008 6.17989 18.9949 6.18152C18.9936 6.18152 18.9916 6.18372 18.9902 6.18422C18.9887 6.18472 18.9855 6.18692 18.9832 6.18789L18.9869 6.18152C16.5791 7.58137 15.7617 10.1723 15.6875 11.469C14.7256 11.5345 13.8059 11.8863 13.0484 12.4786C12.9694 12.4122 12.8869 12.35 12.8011 12.2925C12.5827 11.5333 12.5734 10.7299 12.7741 9.96602C11.8899 10.3913 11.1042 10.9943 10.4667 11.7367H10.4623C10.0824 11.2586 10.1091 9.68189 10.1309 9.35254C10.0185 9.39739 9.91118 9.45394 9.81081 9.52127C9.47541 9.75894 9.16188 10.0256 8.87388 10.3182C8.54571 10.6486 8.24596 11.0057 7.97778 11.3858C7.36156 12.2531 6.92443 13.2328 6.69166 14.2687L6.67878 14.3316C6.66073 14.4153 6.59568 14.8348 6.58456 14.9259C6.58456 14.933 6.58308 14.9397 6.58233 14.9468C6.49841 15.3799 6.44643 15.8184 6.42676 16.259V16.3081C6.43098 18.6899 7.33438 20.9837 8.95856 22.7365C10.5828 24.4893 12.8097 25.5737 15.1999 25.776C17.59 25.978 19.9696 25.2832 21.869 23.8283C23.7683 22.3735 25.0493 20.2645 25.4593 17.9177C25.4753 17.7949 25.4883 17.6733 25.5028 17.5493C25.7001 15.9289 25.4863 14.2852 24.8809 12.7677L24.8819 12.7692ZM13.8335 20.2203C13.8782 20.2417 13.9203 20.2648 13.9663 20.2851L13.973 20.2893C13.9265 20.2672 13.88 20.2442 13.8335 20.2203ZM23.9317 13.2667V13.2576L23.9334 13.2677L23.9317 13.2667Z" fill="url(#paint1_linear_31_8734)"/>
</g>
<path d="M24.8819 12.7691C24.4654 11.774 23.6205 10.6996 22.9589 10.3599C23.4307 11.2671 23.7581 12.2413 23.9297 13.248V13.2571L23.9314 13.2672C24.6704 15.3667 24.5635 17.6687 23.6331 19.6918C22.5344 22.0325 19.8761 24.4316 15.7134 24.3137C11.2169 24.1873 7.25456 20.8731 6.51504 16.5335C6.38024 15.8491 6.51504 15.502 6.58281 14.9458C6.49036 15.3779 6.43876 15.8176 6.42871 16.2592V16.3083C6.43294 18.6902 7.33634 20.9839 8.96051 22.7367C10.5847 24.4895 12.8117 25.574 15.2018 25.7762C17.592 25.9782 19.9716 25.2835 21.8709 23.8285C23.7703 22.3737 25.0513 20.2647 25.4611 17.9179C25.4773 17.7951 25.4903 17.6735 25.5048 17.5495C25.7021 15.9291 25.4883 14.2854 24.8829 12.7679L24.8819 12.7691Z" fill="url(#paint2_radial_31_8734)"/>
<path d="M20.2222 13.8866C20.2429 13.9011 20.2622 13.9156 20.2818 13.9301C20.041 13.5061 19.7412 13.118 19.3914 12.777C16.411 9.8177 18.6105 6.36228 18.9813 6.18545L18.985 6.18005C16.5772 7.5799 15.7597 10.1709 15.6855 11.4676C15.7973 11.46 15.9081 11.4506 16.0224 11.4506C16.8767 11.4523 17.7153 11.6785 18.4529 12.1063C19.1906 12.534 19.801 13.1481 20.2222 13.8861V13.8866Z" fill="#FF980E"/>
<path d="M16.0273 14.4785C16.0114 14.7152 15.169 15.5318 14.8744 15.5318C12.1488 15.5318 11.7061 17.1691 11.7061 17.1691C11.8268 18.5479 12.7943 19.684 13.964 20.2832C14.0174 20.3107 14.0716 20.3355 14.1257 20.3598C14.2196 20.4011 14.3134 20.4392 14.4072 20.4743C14.8086 20.6153 15.2291 20.6959 15.6545 20.7132C20.433 20.9357 21.3581 15.0401 17.91 13.3284C18.7234 13.2233 19.547 13.4219 20.2213 13.8856C19.8002 13.1476 19.1897 12.5335 18.4521 12.1058C17.7144 11.678 16.8758 11.4518 16.0216 11.4501C15.9078 11.4501 15.7965 11.4595 15.6847 11.4671C14.7228 11.5326 13.8031 11.8844 13.0456 12.4767C13.1918 12.5995 13.3568 12.7635 13.7043 13.1037C14.3548 13.74 16.0231 14.3992 16.0268 14.4765L16.0273 14.4785Z" fill="#6B3DD7"/>
<path d="M12.5994 12.1626C12.677 12.2117 12.7411 12.2545 12.7972 12.293C12.5788 11.5339 12.5695 10.7305 12.7703 9.96655C11.886 10.3919 11.1003 10.9948 10.4629 11.7373C10.5096 11.736 11.9002 11.7112 12.5994 12.1626Z" fill="#FF7139"/>
<path d="M24.8819 12.7691C24.4654 11.774 23.6205 10.6996 22.9589 10.3599C23.4307 11.2671 23.7581 12.2413 23.9297 13.248V13.2571L23.9314 13.2672C24.6704 15.3667 24.5635 17.6686 23.6331 19.6918C22.5344 22.0325 19.8761 24.4316 15.7134 24.3137C11.2169 24.1873 7.25456 20.8731 6.51504 16.5335C6.38024 15.8491 6.51504 15.502 6.58281 14.9458C6.49036 15.3779 6.43876 15.8176 6.42871 16.2592V16.3083C6.43294 18.6902 7.33634 20.9839 8.96051 22.7367C10.5847 24.4895 12.8117 25.574 15.2018 25.7762C17.592 25.9782 19.9716 25.2835 21.8709 23.8285C23.7703 22.3737 25.0513 20.2647 25.4611 17.9179C25.4773 17.7951 25.4903 17.6735 25.5048 17.5495C25.7021 15.9291 25.4883 14.2854 24.8829 12.7679L24.8819 12.7691Z" fill="#FF3647"/>
<path d="M24.8819 12.7691C24.4654 11.774 23.6205 10.6996 22.9589 10.3599C23.4307 11.2671 23.7581 12.2413 23.9297 13.248V13.2571L23.9314 13.2672C24.6704 15.3667 24.5635 17.6686 23.6331 19.6918C22.5344 22.0325 19.8761 24.4316 15.7134 24.3137C11.2169 24.1873 7.25456 20.8731 6.51504 16.5335C6.38024 15.8491 6.51504 15.502 6.58281 14.9458C6.49036 15.3779 6.43876 15.8176 6.42871 16.2592V16.3083C6.43294 18.6902 7.33634 20.9839 8.96051 22.7367C10.5847 24.4895 12.8117 25.574 15.2018 25.7762C17.592 25.9782 19.9716 25.2835 21.8709 23.8285C23.7703 22.3737 25.0513 20.2647 25.4611 17.9179C25.4773 17.7951 25.4903 17.6735 25.5048 17.5495C25.7021 15.9291 25.4883 14.2854 24.8829 12.7679L24.8819 12.7691Z" fill="black" fill-opacity="0.2"/>
<path d="M24.8819 12.7691C24.4654 11.774 23.6205 10.6996 22.9589 10.3599C23.4307 11.2671 23.7581 12.2413 23.9297 13.248V13.2571L23.9314 13.2672C24.6704 15.3667 24.5635 17.6686 23.6331 19.6918C22.5344 22.0325 19.8761 24.4316 15.7134 24.3137C11.2169 24.1873 7.25456 20.8731 6.51504 16.5335C6.38024 15.8491 6.51504 15.502 6.58281 14.9458C6.49036 15.3779 6.43876 15.8176 6.42871 16.2592V16.3083C6.43294 18.6902 7.33634 20.9839 8.96051 22.7367C10.5847 24.4895 12.8117 25.574 15.2018 25.7762C17.592 25.9782 19.9716 25.2835 21.8709 23.8285C23.7703 22.3737 25.0513 20.2647 25.4611 17.9179C25.4773 17.7951 25.4903 17.6735 25.5048 17.5495C25.7021 15.9291 25.4883 14.2854 24.8829 12.7679L24.8819 12.7691Z" fill="#FF5634"/>
<path d="M6.51309 16.534C7.25287 20.8736 11.2149 24.189 15.7115 24.3143C19.8741 24.4312 22.533 22.0318 23.6312 19.6923C24.5616 17.6692 24.6684 15.3673 23.9294 13.2677V13.2586C23.9294 13.2515 23.928 13.2473 23.9294 13.2495L23.9312 13.2655C24.2713 15.4701 23.1419 17.605 21.3762 19.0515L21.3708 19.0638C17.9303 21.8463 14.6383 20.7422 13.973 20.2918C13.9265 20.2697 13.88 20.2467 13.8335 20.2228C11.8278 19.2709 10.999 17.4574 11.1771 15.9004C10.701 15.9074 10.2331 15.7771 9.83004 15.5254C9.42699 15.2737 9.10612 14.9113 8.90629 14.4821C9.43282 14.1619 10.0332 13.9808 10.6501 13.9562C11.2671 13.9316 11.8801 14.0643 12.4308 14.3417C13.5659 14.8532 14.8575 14.9037 16.0295 14.4821C16.0258 14.4048 14.3576 13.7454 13.7071 13.1093C13.3596 12.7692 13.1946 12.6054 13.0484 12.4823C12.9694 12.4159 12.8869 12.3537 12.8011 12.2962C12.7442 12.2576 12.6801 12.2158 12.6032 12.1657C11.904 11.7144 10.5135 11.7392 10.4675 11.7404H10.463C10.0831 11.2622 10.1098 9.68555 10.1316 9.3562C10.0192 9.40105 9.91192 9.4576 9.81154 9.52493C9.47617 9.7626 9.16264 10.0293 8.87464 10.3219C8.54526 10.6513 8.24429 11.0076 7.97484 11.387C7.35859 12.2543 6.92149 13.234 6.68869 14.2699C6.68399 14.2893 6.34342 15.7678 6.51134 16.5345L6.51309 16.534Z" fill="#FF5634"/>
<path d="M19.3912 12.7766C19.7411 13.1178 20.0409 13.5064 20.2816 13.9308C20.3343 13.9704 20.3835 14.0097 20.4253 14.0477C22.5986 16.037 21.4599 18.849 21.3751 19.0479C23.1405 17.6036 24.2689 15.4672 23.93 13.2618C22.8457 10.5776 21.0065 9.49451 19.5077 7.13931C19.4317 7.02021 19.3558 6.90086 19.2819 6.77486C19.2396 6.70291 19.2057 6.63808 19.1762 6.57838C19.114 6.45868 19.066 6.33216 19.0333 6.20141C19.0333 6.19538 19.0311 6.18956 19.0271 6.18501C19.0231 6.18048 19.0175 6.17758 19.0115 6.17686C19.0056 6.17526 18.9994 6.17526 18.9935 6.17686C18.9922 6.17686 18.9902 6.17906 18.9888 6.17956C18.9873 6.18006 18.9841 6.18226 18.9818 6.18323C18.6111 6.35786 16.412 9.81549 19.3924 12.7724L19.3912 12.7766Z" fill="#FFF44F"/>
<path d="M20.425 14.0487C20.3832 14.0106 20.334 13.9713 20.2813 13.9318C20.2618 13.9173 20.2425 13.9028 20.2217 13.8883C19.5474 13.4246 18.7237 13.226 17.9104 13.3311C21.3582 15.0428 20.4332 20.9369 15.6549 20.7159C15.2295 20.6985 14.809 20.618 14.4076 20.4769C14.3138 20.4421 14.22 20.4039 14.1261 20.3625C14.072 20.3379 14.0178 20.3134 13.9644 20.2859L13.971 20.2901C14.6374 20.7417 17.9284 21.8451 21.3688 19.0621L21.3743 19.0498C21.4601 18.8509 22.5988 16.0389 20.4245 14.0497L20.425 14.0487Z" fill="#FF980E"/>
<path d="M11.7064 17.1676C11.7064 17.1676 12.1488 15.5303 14.8747 15.5303C15.1693 15.5303 16.0125 14.7137 16.0276 14.477C14.8555 14.8985 13.5639 14.8481 12.4288 14.3365C11.8781 14.0592 11.2651 13.9265 10.6481 13.9511C10.0312 13.9757 9.43085 14.1567 8.9043 14.477C9.10412 14.9061 9.425 15.2685 9.82805 15.5202C10.2311 15.772 10.699 15.9022 11.1751 15.8952C10.9975 17.4515 11.8261 19.2647 13.8315 20.2176C13.8762 20.239 13.9183 20.262 13.9643 20.2824C12.7936 19.682 11.8271 18.5464 11.7064 17.1684V17.1676Z" fill="#FF980E"/>
</g>
</g>
<defs>
<filter id="filter0_i_31_8734" x="2" y="2" width="28" height="32" filterUnits="userSpaceOnUse" color-interpolation-filters="sRGB">
<feFlood flood-opacity="0" result="BackgroundImageFix"/>
<feBlend mode="normal" in="SourceGraphic" in2="BackgroundImageFix" result="shape"/>
<feColorMatrix in="SourceAlpha" type="matrix" values="0 0 0 0 0 0 0 0 0 0 0 0 0 0 0 0 0 0 127 0" result="hardAlpha"/>
<feOffset dy="4"/>
<feGaussianBlur stdDeviation="2"/>
<feComposite in2="hardAlpha" operator="arithmetic" k2="-1" k3="1"/>
<feColorMatrix type="matrix" values="0 0 0 0 0 0 0 0 0 0 0 0 0 0 0 0 0 0 0.25 0"/>
<feBlend mode="normal" in2="shape" result="effect1_innerShadow_31_8734"/>
</filter>
<filter id="filter1_d_31_8734" x="2.42676" y="4.1803" width="27.1475" height="27.63" filterUnits="userSpaceOnUse" color-interpolation-filters="sRGB">
<feFlood flood-opacity="0" result="BackgroundImageFix"/>
<feColorMatrix in="SourceAlpha" type="matrix" values="0 0 0 0 0 0 0 0 0 0 0 0 0 0 0 0 0 0 127 0" result="hardAlpha"/>
<feOffset dy="2"/>
<feGaussianBlur stdDeviation="2"/>
<feComposite in2="hardAlpha" operator="out"/>
<feColorMatrix type="matrix" values="0 0 0 0 0 0 0 0 0 0 0 0 0 0 0 0 0 0 0.25 0"/>
<feBlend mode="normal" in2="BackgroundImageFix" result="effect1_dropShadow_31_8734"/>
<feBlend mode="normal" in="SourceGraphic" in2="effect1_dropShadow_31_8734" result="shape"/>
</filter>
<linearGradient id="paint0_linear_31_8734" x1="32" y1="0" x2="1.05459" y2="32.9892" gradientUnits="userSpaceOnUse">
<stop offset="0.169646" stop-color="#FF8B16"/>
<stop offset="0.35725" stop-color="#FF672A"/>
<stop offset="0.597842" stop-color="#FF3647"/>
<stop offset="0.825545" stop-color="#E31587"/>
</linearGradient>
<linearGradient id="paint1_linear_31_8734" x1="23.6131" y1="9.22187" x2="7.80761" y2="24.58" gradientUnits="userSpaceOnUse">
<stop offset="0.048" stop-color="#FFF44F"/>
<stop offset="0.111" stop-color="#FFE847"/>
<stop offset="0.225" stop-color="#FFC830"/>
<stop offset="0.368" stop-color="#FF980E"/>
<stop offset="0.401" stop-color="#FF8B16"/>
<stop offset="0.462" stop-color="#FF672A"/>
<stop offset="0.534" stop-color="#FF3647"/>
<stop offset="0.705" stop-color="#E31587"/>
</linearGradient>
<radialGradient id="paint2_radial_31_8734" cx="0" cy="0" r="1" gradientUnits="userSpaceOnUse" gradientTransform="translate(22.9972 8.3903) scale(19.9847 19.8435)">
<stop offset="0.129" stop-color="#FFBD4F"/>
<stop offset="0.186" stop-color="#FFAC31"/>
<stop offset="0.247" stop-color="#FF9D17"/>
<stop offset="0.283" stop-color="#FF980E"/>
<stop offset="0.403" stop-color="#FF563B"/>
<stop offset="0.467" stop-color="#FF3750"/>
<stop offset="0.71" stop-color="#F5156C"/>
<stop offset="0.782" stop-color="#EB0878"/>
<stop offset="0.86" stop-color="#E50080"/>
</radialGradient>
<clipPath id="clip0_31_8734">
<rect width="32" height="32" fill="white"/>
</clipPath>
</defs>
</svg>
