<svg width="32" height="32" viewBox="0 0 32 32" fill="none" xmlns="http://www.w3.org/2000/svg">
<g clip-path="url(#clip0_31_8751)">
<path d="M24 0H8C3.58172 0 0 3.58172 0 8V24C0 28.4183 3.58172 32 8 32H24C28.4183 32 32 28.4183 32 24V8C32 3.58172 28.4183 0 24 0Z" fill="url(#paint0_linear_31_8751)"/>
<g filter="url(#filter0_i_31_8751)">
<path d="M24 2H8C4.68629 2 2 4.68629 2 8V24C2 27.3137 4.68629 30 8 30H24C27.3137 30 30 27.3137 30 24V8C30 4.68629 27.3137 2 24 2Z" fill="black" fill-opacity="0.7"/>
<g filter="url(#filter1_d_31_8751)">
<path d="M10.75 25.2501H12.25V7.75012C12.25 7.19782 11.8023 6.75012 11.25 6.75012H7.75C7.1977 6.75012 6.75 7.19782 6.75 7.75012V21.2501C6.75 23.4593 8.54085 25.2501 10.75 25.2501Z" fill="#FF3636"/>
<path d="M13.25 7.74994V11.2499C13.25 11.8022 13.6977 12.2499 14.25 12.2499H21.25C23.4592 12.2499 25.25 10.4591 25.25 8.24994V6.74994H14.25C13.6977 6.74994 13.25 7.19764 13.25 7.74994Z" fill="#FF3636"/>
<path d="M19.4538 15.9613L13.9615 13.2975C13.63 13.1428 13.25 13.3848 13.25 13.7506V19.078C13.25 19.4439 13.63 19.6858 13.9615 19.5311L19.4538 16.8673C19.8385 16.6878 19.8385 16.1408 19.4538 15.9613Z" fill="#2CACE1"/>
</g>
</g>
</g>
<defs>
<filter id="filter0_i_31_8751" x="2" y="2" width="28" height="32" filterUnits="userSpaceOnUse" color-interpolation-filters="sRGB">
<feFlood flood-opacity="0" result="BackgroundImageFix"/>
<feBlend mode="normal" in="SourceGraphic" in2="BackgroundImageFix" result="shape"/>
<feColorMatrix in="SourceAlpha" type="matrix" values="0 0 0 0 0 0 0 0 0 0 0 0 0 0 0 0 0 0 127 0" result="hardAlpha"/>
<feOffset dy="4"/>
<feGaussianBlur stdDeviation="2"/>
<feComposite in2="hardAlpha" operator="arithmetic" k2="-1" k3="1"/>
<feColorMatrix type="matrix" values="0 0 0 0 0 0 0 0 0 0 0 0 0 0 0 0 0 0 0.25 0"/>
<feBlend mode="normal" in2="shape" result="effect1_innerShadow_31_8751"/>
</filter>
<filter id="filter1_d_31_8751" x="2.75" y="4.74994" width="26.5" height="26.5002" filterUnits="userSpaceOnUse" color-interpolation-filters="sRGB">
<feFlood flood-opacity="0" result="BackgroundImageFix"/>
<feColorMatrix in="SourceAlpha" type="matrix" values="0 0 0 0 0 0 0 0 0 0 0 0 0 0 0 0 0 0 127 0" result="hardAlpha"/>
<feOffset dy="2"/>
<feGaussianBlur stdDeviation="2"/>
<feComposite in2="hardAlpha" operator="out"/>
<feColorMatrix type="matrix" values="0 0 0 0 0 0 0 0 0 0 0 0 0 0 0 0 0 0 0.25 0"/>
<feBlend mode="normal" in2="BackgroundImageFix" result="effect1_dropShadow_31_8751"/>
<feBlend mode="normal" in="SourceGraphic" in2="effect1_dropShadow_31_8751" result="shape"/>
</filter>
<linearGradient id="paint0_linear_31_8751" x1="16" y1="0" x2="16" y2="32" gradientUnits="userSpaceOnUse">
<stop stop-color="#FF3636"/>
<stop offset="0.0001" stop-color="#FF3636"/>
<stop offset="1" stop-color="#FF2020"/>
</linearGradient>
<clipPath id="clip0_31_8751">
<rect width="32" height="32" fill="white"/>
</clipPath>
</defs>
</svg>
