<svg width="32" height="32" viewBox="0 0 32 32" fill="none" xmlns="http://www.w3.org/2000/svg">
<g clip-path="url(#clip0_31_8788)">
<path d="M24 0H8C3.58172 0 0 3.58172 0 8V24C0 28.4183 3.58172 32 8 32H24C28.4183 32 32 28.4183 32 24V8C32 3.58172 28.4183 0 24 0Z" fill="url(#paint0_linear_31_8788)"/>
<g filter="url(#filter0_i_31_8788)">
<path d="M24 2H8C4.68629 2 2 4.68629 2 8V24C2 27.3137 4.68629 30 8 30H24C27.3137 30 30 27.3137 30 24V8C30 4.68629 27.3137 2 24 2Z" fill="black" fill-opacity="0.7"/>
<path d="M16 6.78125C21.1776 6.78125 25.375 10.9787 25.375 16.1562C25.375 21.3338 21.1776 25.5312 16 25.5312C10.8224 25.5312 6.625 21.3338 6.625 16.1562C6.625 10.9787 10.8224 6.78125 16 6.78125Z" fill="url(#paint1_linear_31_8788)"/>
<path d="M16 6.78125C10.8224 6.78125 6.625 10.9787 6.625 16.1562C6.625 21.3338 10.8224 25.5312 16 25.5312V6.78125Z" fill="url(#paint2_linear_31_8788)"/>
<path d="M25.375 15.8438C25.375 21.0213 21.1776 25.2188 16 25.2188C10.8224 25.2188 6.625 21.0213 6.625 15.8438C6.625 10.6662 10.8224 6.46875 16 6.46875C21.1776 6.46875 25.375 10.6662 25.375 15.8438Z" fill="#40A1C8"/>
<path d="M10.3754 16C10.3949 18.1741 10.8258 20.2761 11.5997 21.9765C10.9839 22.2915 10.462 22.6705 10.0586 23.0953C7.92725 21.3497 6.67175 18.7545 6.62598 16H10.3754Z" fill="#49BBB0"/>
<path d="M16 21V25.2188C15.2969 25.2188 14.5956 25.1395 13.9102 24.9825C13.0038 24.3484 12.2079 23.312 11.6006 21.9765C12.8353 21.3454 14.3923 21 16 21Z" fill="#378BDE"/>
<path d="M21.6244 16C21.6048 18.1741 21.1739 20.2761 20.3994 21.9765C21.0159 22.2915 21.5371 22.6705 21.9405 23.0953C24.0719 21.3497 25.3275 18.7545 25.3737 16H21.6244Z" fill="#266EC6"/>
<path d="M16 16V25.2188C16.7031 25.2188 17.4044 25.1395 18.0898 24.9825C20.1949 23.5085 21.5884 19.9673 21.6244 16H16Z" fill="#378BDE"/>
<path d="M16 21V25.2188C16.7031 25.2188 17.4044 25.1395 18.0898 24.9825C18.9962 24.3484 19.7921 23.312 20.3994 21.9765C19.1647 21.3454 17.6077 21 16 21Z" fill="#266EC6"/>
<path d="M20.4004 21.9766C19.7925 23.312 18.9966 24.3478 18.0908 24.9826C19.5026 24.6597 20.8209 24.0133 21.9415 23.0953C21.5381 22.6705 21.0162 22.2915 20.4004 21.9766Z" fill="#1E62B5"/>
<path d="M16 6.46875C10.8224 6.46875 6.625 10.6662 6.625 15.8438C6.625 15.8956 6.6256 15.9481 6.62622 16H16V6.46875Z" fill="#53D795"/>
<path d="M13.9099 6.70435C12.4975 7.02782 11.1792 7.67357 10.0586 8.59155C10.462 9.01697 10.9839 9.39537 11.6003 9.71095C12.2082 8.37487 13.0041 7.3391 13.9099 6.70435Z" fill="#72E99A"/>
<path d="M16 6.46875C15.2969 6.46875 14.5962 6.5481 13.9101 6.70435C11.7751 8.1997 10.375 11.8191 10.375 15.8438C10.375 15.8956 10.375 15.9481 10.3756 16H16V6.46875Z" fill="#49BBB0"/>
<path d="M16 6.46875C15.2969 6.46875 14.5962 6.5481 13.9102 6.70435C13.0044 7.3391 12.2085 8.37487 11.6006 9.71095C12.836 10.342 14.3923 10.6875 16 10.6875V6.46875Z" fill="#53D795"/>
<path d="M16 6.46875C21.1776 6.46875 25.375 10.6662 25.375 15.8438C25.375 15.8956 25.3745 15.9481 25.3738 16H16V6.46875Z" fill="#378BDE"/>
<path d="M18.0898 6.70435C19.5022 7.02782 20.8205 7.67357 21.9411 8.59155C21.5377 9.01697 21.0159 9.39537 20.4 9.71032C19.7915 8.37487 18.9956 7.3391 18.0898 6.70435Z" fill="#40A1C8"/>
<path d="M16 6.46875C16.7031 6.46875 17.4044 6.5481 18.0898 6.70435C20.2248 8.1997 21.625 11.8191 21.625 15.8438C21.625 15.8956 21.625 15.9481 21.6244 16H16V6.46875Z" fill="#40A1C8"/>
<path d="M16 6.46875C16.7031 6.46875 17.4044 6.5481 18.0898 6.70435C18.9956 7.3391 19.7915 8.37488 20.3994 9.71033C19.1641 10.3421 17.6077 10.6875 16 10.6875V6.46875Z" fill="#49BBB0"/>
</g>
</g>
<defs>
<filter id="filter0_i_31_8788" x="2" y="2" width="28" height="32" filterUnits="userSpaceOnUse" color-interpolation-filters="sRGB">
<feFlood flood-opacity="0" result="BackgroundImageFix"/>
<feBlend mode="normal" in="SourceGraphic" in2="BackgroundImageFix" result="shape"/>
<feColorMatrix in="SourceAlpha" type="matrix" values="0 0 0 0 0 0 0 0 0 0 0 0 0 0 0 0 0 0 127 0" result="hardAlpha"/>
<feOffset dy="4"/>
<feGaussianBlur stdDeviation="2"/>
<feComposite in2="hardAlpha" operator="arithmetic" k2="-1" k3="1"/>
<feColorMatrix type="matrix" values="0 0 0 0 0 0 0 0 0 0 0 0 0 0 0 0 0 0 0.25 0"/>
<feBlend mode="normal" in2="shape" result="effect1_innerShadow_31_8788"/>
</filter>
<linearGradient id="paint0_linear_31_8788" x1="16" y1="0" x2="16" y2="32" gradientUnits="userSpaceOnUse">
<stop stop-color="#72E99A"/>
<stop offset="0.3" stop-color="#49BBB0"/>
<stop offset="0.614" stop-color="#378BDE"/>
<stop offset="1" stop-color="#1E62B5"/>
</linearGradient>
<linearGradient id="paint1_linear_31_8788" x1="21.3125" y1="23.5" x2="22.875" y2="23.5" gradientUnits="userSpaceOnUse">
<stop stop-color="#16529C"/>
<stop offset="1" stop-color="#236AC0"/>
</linearGradient>
<linearGradient id="paint2_linear_31_8788" x1="15.0625" y1="24.75" x2="8.1875" y2="24.75" gradientUnits="userSpaceOnUse">
<stop stop-color="#2166BB"/>
<stop offset="1" stop-color="#89EDA9"/>
</linearGradient>
<clipPath id="clip0_31_8788">
<rect width="32" height="32" fill="white"/>
</clipPath>
</defs>
</svg>
