<svg width="32" height="32" viewBox="0 0 32 32" fill="none" xmlns="http://www.w3.org/2000/svg">
<g clip-path="url(#clip0_31_8809)">
<path d="M24 0H8C3.58172 0 0 3.58172 0 8V24C0 28.4183 3.58172 32 8 32H24C28.4183 32 32 28.4183 32 24V8C32 3.58172 28.4183 0 24 0Z" fill="url(#paint0_linear_31_8809)"/>
<g filter="url(#filter0_i_31_8809)">
<path d="M24 2H8C4.68629 2 2 4.68629 2 8V24C2 27.3137 4.68629 30 8 30H24C27.3137 30 30 27.3137 30 24V8C30 4.68629 27.3137 2 24 2Z" fill="black" fill-opacity="0.7"/>
<mask id="mask0_31_8809" style="mask-type:luminance" maskUnits="userSpaceOnUse" x="4" y="4" width="24" height="24">
<path d="M28 4H4V28H28V4Z" fill="white"/>
</mask>
<g mask="url(#mask0_31_8809)">
<g filter="url(#filter1_d_31_8809)">
<path d="M24.3564 13.5154L26.9714 19.3143L22.4958 26.9715L19.7393 20.2789L24.3564 13.5154Z" fill="url(#paint1_linear_31_8809)"/>
</g>
<g filter="url(#filter2_d_31_8809)">
<path d="M19.7388 20.2789L22.4954 26.9715L15.5605 24.5874L19.7388 20.2789Z" fill="#B74AF7"/>
</g>
<g filter="url(#filter3_d_31_8809)">
<path d="M20.4866 11.2251L19.0649 5.02856H11.1814L5.02832 14.4411L6.80887 18.7657L5.02832 22.7131L17.7712 11.872L20.4866 11.2251Z" fill="url(#paint2_linear_31_8809)"/>
</g>
<g filter="url(#filter4_d_31_8809)">
<path d="M26.9712 9.68683L17.7712 11.872L5.02832 22.7131L13.2477 26.9715L19.7392 20.2788L26.9712 9.68683Z" fill="url(#paint3_linear_31_8809)"/>
</g>
<g filter="url(#filter5_d_31_8809)">
<path d="M9.14258 9.14282H22.8569V22.8571H9.14258V9.14282Z" fill="black"/>
</g>
<path d="M10.4297 20.2857H15.5726V21.1429H10.4297V20.2857Z" fill="white"/>
<path d="M10.043 13.7851V13.7691C10.0417 13.3819 10.1179 12.9983 10.267 12.641C10.4162 12.2836 10.6354 11.9597 10.9116 11.6884C11.1879 11.417 11.5156 11.2037 11.8756 11.0609C12.2355 10.9182 12.6204 10.8489 13.0076 10.8571C13.8218 10.8142 14.6203 11.0924 15.2316 11.632L14.4476 12.5782C14.0501 12.1981 13.5186 11.9903 12.9687 12C12.0544 12 11.3436 12.8 11.3436 13.76V13.776C11.3436 14.8114 12.0544 15.5703 13.0578 15.5703C13.474 15.5825 13.8835 15.4633 14.2281 15.2297V14.416H12.9756V13.3417H15.4281V15.7965C14.7577 16.378 13.8995 16.6971 13.0121 16.6948C11.2544 16.6948 10.043 15.4582 10.043 13.7851Z" fill="white"/>
<path d="M15.9541 13.7851V13.7691C15.9554 13.3784 16.0351 12.9918 16.1884 12.6324C16.3417 12.2729 16.5655 11.9479 16.8465 11.6764C17.1276 11.4049 17.4602 11.1925 17.8248 11.0518C18.1893 10.9111 18.5784 10.8449 18.969 10.8571C20.713 10.8571 21.9655 12.1577 21.9655 13.7646V13.7806C21.966 14.1723 21.8878 14.5601 21.7355 14.921C21.5831 15.2819 21.3598 15.6085 21.0788 15.8814C20.7978 16.1543 20.4648 16.3679 20.0996 16.5097C19.7344 16.6514 19.3445 16.7182 18.953 16.7063C17.2067 16.6948 15.9541 15.3943 15.9541 13.7851ZM20.665 13.7851V13.7691C20.672 13.5397 20.6329 13.3112 20.5501 13.0971C20.4673 12.8831 20.3424 12.6878 20.1828 12.5228C20.0231 12.3579 19.8321 12.2266 19.6208 12.1368C19.4096 12.047 19.1825 12.0005 18.953 12C18.7252 11.9992 18.4996 12.0445 18.2897 12.133C18.0798 12.2216 17.89 12.3516 17.7316 12.5154C17.5732 12.6791 17.4495 12.8731 17.368 13.0858C17.2864 13.2985 17.2487 13.5255 17.257 13.7531V13.7691C17.249 13.9994 17.2874 14.229 17.3699 14.4441C17.4525 14.6593 17.5774 14.8556 17.7373 15.0215C17.8972 15.1874 18.0889 15.3194 18.3009 15.4098C18.5128 15.5001 18.7408 15.5469 18.9713 15.5474C19.1997 15.5479 19.4258 15.5022 19.636 15.4129C19.8463 15.3236 20.0363 15.1927 20.1945 15.0281C20.3528 14.8634 20.4761 14.6683 20.5569 14.4547C20.6378 14.2411 20.6745 14.0133 20.665 13.7851Z" fill="white"/>
</g>
</g>
</g>
<defs>
<filter id="filter0_i_31_8809" x="2" y="2" width="28" height="32" filterUnits="userSpaceOnUse" color-interpolation-filters="sRGB">
<feFlood flood-opacity="0" result="BackgroundImageFix"/>
<feBlend mode="normal" in="SourceGraphic" in2="BackgroundImageFix" result="shape"/>
<feColorMatrix in="SourceAlpha" type="matrix" values="0 0 0 0 0 0 0 0 0 0 0 0 0 0 0 0 0 0 127 0" result="hardAlpha"/>
<feOffset dy="4"/>
<feGaussianBlur stdDeviation="2"/>
<feComposite in2="hardAlpha" operator="arithmetic" k2="-1" k3="1"/>
<feColorMatrix type="matrix" values="0 0 0 0 0 0 0 0 0 0 0 0 0 0 0 0 0 0 0.25 0"/>
<feBlend mode="normal" in2="shape" result="effect1_innerShadow_31_8809"/>
</filter>
<filter id="filter1_d_31_8809" x="15.7393" y="11.5154" width="15.2324" height="21.4561" filterUnits="userSpaceOnUse" color-interpolation-filters="sRGB">
<feFlood flood-opacity="0" result="BackgroundImageFix"/>
<feColorMatrix in="SourceAlpha" type="matrix" values="0 0 0 0 0 0 0 0 0 0 0 0 0 0 0 0 0 0 127 0" result="hardAlpha"/>
<feOffset dy="2"/>
<feGaussianBlur stdDeviation="2"/>
<feComposite in2="hardAlpha" operator="out"/>
<feColorMatrix type="matrix" values="0 0 0 0 0 0 0 0 0 0 0 0 0 0 0 0 0 0 0.25 0"/>
<feBlend mode="normal" in2="BackgroundImageFix" result="effect1_dropShadow_31_8809"/>
<feBlend mode="normal" in="SourceGraphic" in2="effect1_dropShadow_31_8809" result="shape"/>
</filter>
<filter id="filter2_d_31_8809" x="11.5605" y="18.2789" width="14.9346" height="14.6926" filterUnits="userSpaceOnUse" color-interpolation-filters="sRGB">
<feFlood flood-opacity="0" result="BackgroundImageFix"/>
<feColorMatrix in="SourceAlpha" type="matrix" values="0 0 0 0 0 0 0 0 0 0 0 0 0 0 0 0 0 0 127 0" result="hardAlpha"/>
<feOffset dy="2"/>
<feGaussianBlur stdDeviation="2"/>
<feComposite in2="hardAlpha" operator="out"/>
<feColorMatrix type="matrix" values="0 0 0 0 0 0 0 0 0 0 0 0 0 0 0 0 0 0 0.25 0"/>
<feBlend mode="normal" in2="BackgroundImageFix" result="effect1_dropShadow_31_8809"/>
<feBlend mode="normal" in="SourceGraphic" in2="effect1_dropShadow_31_8809" result="shape"/>
</filter>
<filter id="filter3_d_31_8809" x="1.02832" y="3.02856" width="23.458" height="25.6846" filterUnits="userSpaceOnUse" color-interpolation-filters="sRGB">
<feFlood flood-opacity="0" result="BackgroundImageFix"/>
<feColorMatrix in="SourceAlpha" type="matrix" values="0 0 0 0 0 0 0 0 0 0 0 0 0 0 0 0 0 0 127 0" result="hardAlpha"/>
<feOffset dy="2"/>
<feGaussianBlur stdDeviation="2"/>
<feComposite in2="hardAlpha" operator="out"/>
<feColorMatrix type="matrix" values="0 0 0 0 0 0 0 0 0 0 0 0 0 0 0 0 0 0 0.25 0"/>
<feBlend mode="normal" in2="BackgroundImageFix" result="effect1_dropShadow_31_8809"/>
<feBlend mode="normal" in="SourceGraphic" in2="effect1_dropShadow_31_8809" result="shape"/>
</filter>
<filter id="filter4_d_31_8809" x="1.02832" y="7.68683" width="29.9434" height="25.2847" filterUnits="userSpaceOnUse" color-interpolation-filters="sRGB">
<feFlood flood-opacity="0" result="BackgroundImageFix"/>
<feColorMatrix in="SourceAlpha" type="matrix" values="0 0 0 0 0 0 0 0 0 0 0 0 0 0 0 0 0 0 127 0" result="hardAlpha"/>
<feOffset dy="2"/>
<feGaussianBlur stdDeviation="2"/>
<feComposite in2="hardAlpha" operator="out"/>
<feColorMatrix type="matrix" values="0 0 0 0 0 0 0 0 0 0 0 0 0 0 0 0 0 0 0.25 0"/>
<feBlend mode="normal" in2="BackgroundImageFix" result="effect1_dropShadow_31_8809"/>
<feBlend mode="normal" in="SourceGraphic" in2="effect1_dropShadow_31_8809" result="shape"/>
</filter>
<filter id="filter5_d_31_8809" x="5.14258" y="7.14282" width="21.7139" height="21.7143" filterUnits="userSpaceOnUse" color-interpolation-filters="sRGB">
<feFlood flood-opacity="0" result="BackgroundImageFix"/>
<feColorMatrix in="SourceAlpha" type="matrix" values="0 0 0 0 0 0 0 0 0 0 0 0 0 0 0 0 0 0 127 0" result="hardAlpha"/>
<feOffset dy="2"/>
<feGaussianBlur stdDeviation="2"/>
<feComposite in2="hardAlpha" operator="out"/>
<feColorMatrix type="matrix" values="0 0 0 0 0 0 0 0 0 0 0 0 0 0 0 0 0 0 0.25 0"/>
<feBlend mode="normal" in2="BackgroundImageFix" result="effect1_dropShadow_31_8809"/>
<feBlend mode="normal" in="SourceGraphic" in2="effect1_dropShadow_31_8809" result="shape"/>
</filter>
<linearGradient id="paint0_linear_31_8809" x1="16" y1="0" x2="16" y2="32" gradientUnits="userSpaceOnUse">
<stop stop-color="#3BEA62"/>
<stop offset="0.510417" stop-color="#087CFA"/>
<stop offset="1" stop-color="#B74AF7"/>
</linearGradient>
<linearGradient id="paint1_linear_31_8809" x1="26.6354" y1="17.5269" x2="18.0661" y2="24.7794" gradientUnits="userSpaceOnUse">
<stop stop-color="#087CFA"/>
<stop offset="0.02" stop-color="#0D7BFA"/>
<stop offset="0.37" stop-color="#5566F9"/>
<stop offset="0.66" stop-color="#8A57F8"/>
<stop offset="0.88" stop-color="#AB4EF7"/>
<stop offset="1" stop-color="#B74AF7"/>
</linearGradient>
<linearGradient id="paint2_linear_31_8809" x1="12.5803" y1="11.8308" x2="17.7894" y2="5.90399" gradientUnits="userSpaceOnUse">
<stop stop-color="#087CFA"/>
<stop offset="0.02" stop-color="#0D7BFA"/>
<stop offset="0.37" stop-color="#5566F9"/>
<stop offset="0.66" stop-color="#8A57F8"/>
<stop offset="0.88" stop-color="#AB4EF7"/>
<stop offset="1" stop-color="#B74AF7"/>
</linearGradient>
<linearGradient id="paint3_linear_31_8809" x1="8.07744" y1="24.1966" x2="23.906" y2="14.0251" gradientUnits="userSpaceOnUse">
<stop stop-color="#087CFA"/>
<stop offset="0.1" stop-color="#1598D3"/>
<stop offset="0.22" stop-color="#23B6AA"/>
<stop offset="0.35" stop-color="#2DCC8B"/>
<stop offset="0.46" stop-color="#35DD74"/>
<stop offset="0.57" stop-color="#39E767"/>
<stop offset="0.67" stop-color="#3BEA62"/>
</linearGradient>
<clipPath id="clip0_31_8809">
<rect width="32" height="32" fill="white"/>
</clipPath>
</defs>
</svg>
