<svg width="32" height="32" viewBox="0 0 32 32" fill="none" xmlns="http://www.w3.org/2000/svg">
<g clip-path="url(#clip0_31_8830)">
<path d="M24 0H8C3.58172 0 0 3.58172 0 8V24C0 28.4183 3.58172 32 8 32H24C28.4183 32 32 28.4183 32 24V8C32 3.58172 28.4183 0 24 0Z" fill="#FF0045"/>
<path d="M24 0H8C3.58172 0 0 3.58172 0 8V24C0 28.4183 3.58172 32 8 32H24C28.4183 32 32 28.4183 32 24V8C32 3.58172 28.4183 0 24 0Z" fill="url(#paint0_radial_31_8830)"/>
<path d="M24 0H8C3.58172 0 0 3.58172 0 8V24C0 28.4183 3.58172 32 8 32H24C28.4183 32 32 28.4183 32 24V8C32 3.58172 28.4183 0 24 0Z" fill="url(#paint1_radial_31_8830)"/>
<g filter="url(#filter0_i_31_8830)">
<path d="M24 2H8C4.68629 2 2 4.68629 2 8V24C2 27.3137 4.68629 30 8 30H24C27.3137 30 30 27.3137 30 24V8C30 4.68629 27.3137 2 24 2Z" fill="black" fill-opacity="0.7"/>
<mask id="mask0_31_8830" style="mask-type:luminance" maskUnits="userSpaceOnUse" x="6" y="6" width="20" height="20">
<path d="M26 6H6V26H26V6Z" fill="white"/>
</mask>
<g mask="url(#mask0_31_8830)">
<g filter="url(#filter1_d_31_8830)">
<path d="M16 7.8025C18.67 7.8025 18.9867 7.8125 20.0417 7.86083C22.7517 7.98418 24.0175 9.27 24.1408 11.96C24.1892 13.0142 24.1983 13.3308 24.1983 16.0008C24.1983 18.6717 24.1883 18.9875 24.1408 20.0417C24.0167 22.7292 22.7542 24.0175 20.0417 24.1408C18.9867 24.1892 18.6717 24.1992 16 24.1992C13.33 24.1992 13.0133 24.1892 11.9592 24.1408C9.2425 24.0167 7.98333 22.725 7.86 20.0408C7.81168 18.9867 7.80167 18.6708 7.80167 16C7.80167 13.33 7.8125 13.0142 7.86 11.9592C7.98418 9.27 9.24668 7.98333 11.9592 7.86C13.0142 7.8125 13.33 7.8025 16 7.8025ZM16 6C13.2842 6 12.9442 6.01167 11.8775 6.06C8.24582 6.22667 6.2275 8.24167 6.06082 11.8767C6.01167 12.9442 6 13.2842 6 16C6 18.7158 6.01167 19.0567 6.06 20.1233C6.22667 23.755 8.24167 25.7733 11.8767 25.94C12.9442 25.9883 13.2842 26 16 26C18.7158 26 19.0567 25.9883 20.1233 25.94C23.7517 25.7733 25.775 23.7583 25.9393 20.1233C25.9883 19.0567 26 18.7158 26 16C26 13.2842 25.9883 12.9442 25.94 11.8775C25.7768 8.24917 23.7592 6.2275 20.1242 6.06082C19.0567 6.01167 18.7158 6 16 6ZM16 10.865C13.1642 10.865 10.865 13.1642 10.865 16C10.865 18.8358 13.1642 21.1358 16 21.1358C18.8358 21.1358 21.135 18.8367 21.135 16C21.135 13.1642 18.8358 10.865 16 10.865ZM16 19.3333C14.1592 19.3333 12.6667 17.8417 12.6667 16C12.6667 14.1592 14.1592 12.6667 16 12.6667C17.8408 12.6667 19.3333 14.1592 19.3333 16C19.3333 17.8417 17.8408 19.3333 16 19.3333ZM21.3383 9.4625C20.675 9.4625 20.1375 10 20.1375 10.6625C20.1375 11.325 20.675 11.8625 21.3383 11.8625C22.0008 11.8625 22.5375 11.325 22.5375 10.6625C22.5375 10 22.0008 9.4625 21.3383 9.4625Z" fill="white"/>
<path d="M16 7.8025C18.67 7.8025 18.9867 7.8125 20.0417 7.86083C22.7517 7.98418 24.0175 9.27 24.1408 11.96C24.1892 13.0142 24.1983 13.3308 24.1983 16.0008C24.1983 18.6717 24.1883 18.9875 24.1408 20.0417C24.0167 22.7292 22.7542 24.0175 20.0417 24.1408C18.9867 24.1892 18.6717 24.1992 16 24.1992C13.33 24.1992 13.0133 24.1892 11.9592 24.1408C9.2425 24.0167 7.98333 22.725 7.86 20.0408C7.81168 18.9867 7.80167 18.6708 7.80167 16C7.80167 13.33 7.8125 13.0142 7.86 11.9592C7.98418 9.27 9.24668 7.98333 11.9592 7.86C13.0142 7.8125 13.33 7.8025 16 7.8025ZM16 6C13.2842 6 12.9442 6.01167 11.8775 6.06C8.24582 6.22667 6.2275 8.24167 6.06082 11.8767C6.01167 12.9442 6 13.2842 6 16C6 18.7158 6.01167 19.0567 6.06 20.1233C6.22667 23.755 8.24167 25.7733 11.8767 25.94C12.9442 25.9883 13.2842 26 16 26C18.7158 26 19.0567 25.9883 20.1233 25.94C23.7517 25.7733 25.775 23.7583 25.9393 20.1233C25.9883 19.0567 26 18.7158 26 16C26 13.2842 25.9883 12.9442 25.94 11.8775C25.7768 8.24917 23.7592 6.2275 20.1242 6.06082C19.0567 6.01167 18.7158 6 16 6ZM16 10.865C13.1642 10.865 10.865 13.1642 10.865 16C10.865 18.8358 13.1642 21.1358 16 21.1358C18.8358 21.1358 21.135 18.8367 21.135 16C21.135 13.1642 18.8358 10.865 16 10.865ZM16 19.3333C14.1592 19.3333 12.6667 17.8417 12.6667 16C12.6667 14.1592 14.1592 12.6667 16 12.6667C17.8408 12.6667 19.3333 14.1592 19.3333 16C19.3333 17.8417 17.8408 19.3333 16 19.3333ZM21.3383 9.4625C20.675 9.4625 20.1375 10 20.1375 10.6625C20.1375 11.325 20.675 11.8625 21.3383 11.8625C22.0008 11.8625 22.5375 11.325 22.5375 10.6625C22.5375 10 22.0008 9.4625 21.3383 9.4625Z" fill="#FF0045"/>
<path d="M16 7.8025C18.67 7.8025 18.9867 7.8125 20.0417 7.86083C22.7517 7.98418 24.0175 9.27 24.1408 11.96C24.1892 13.0142 24.1983 13.3308 24.1983 16.0008C24.1983 18.6717 24.1883 18.9875 24.1408 20.0417C24.0167 22.7292 22.7542 24.0175 20.0417 24.1408C18.9867 24.1892 18.6717 24.1992 16 24.1992C13.33 24.1992 13.0133 24.1892 11.9592 24.1408C9.2425 24.0167 7.98333 22.725 7.86 20.0408C7.81168 18.9867 7.80167 18.6708 7.80167 16C7.80167 13.33 7.8125 13.0142 7.86 11.9592C7.98418 9.27 9.24668 7.98333 11.9592 7.86C13.0142 7.8125 13.33 7.8025 16 7.8025ZM16 6C13.2842 6 12.9442 6.01167 11.8775 6.06C8.24582 6.22667 6.2275 8.24167 6.06082 11.8767C6.01167 12.9442 6 13.2842 6 16C6 18.7158 6.01167 19.0567 6.06 20.1233C6.22667 23.755 8.24167 25.7733 11.8767 25.94C12.9442 25.9883 13.2842 26 16 26C18.7158 26 19.0567 25.9883 20.1233 25.94C23.7517 25.7733 25.775 23.7583 25.9393 20.1233C25.9883 19.0567 26 18.7158 26 16C26 13.2842 25.9883 12.9442 25.94 11.8775C25.7768 8.24917 23.7592 6.2275 20.1242 6.06082C19.0567 6.01167 18.7158 6 16 6ZM16 10.865C13.1642 10.865 10.865 13.1642 10.865 16C10.865 18.8358 13.1642 21.1358 16 21.1358C18.8358 21.1358 21.135 18.8367 21.135 16C21.135 13.1642 18.8358 10.865 16 10.865ZM16 19.3333C14.1592 19.3333 12.6667 17.8417 12.6667 16C12.6667 14.1592 14.1592 12.6667 16 12.6667C17.8408 12.6667 19.3333 14.1592 19.3333 16C19.3333 17.8417 17.8408 19.3333 16 19.3333ZM21.3383 9.4625C20.675 9.4625 20.1375 10 20.1375 10.6625C20.1375 11.325 20.675 11.8625 21.3383 11.8625C22.0008 11.8625 22.5375 11.325 22.5375 10.6625C22.5375 10 22.0008 9.4625 21.3383 9.4625Z" fill="url(#paint2_radial_31_8830)"/>
<path d="M16 7.8025C18.67 7.8025 18.9867 7.8125 20.0417 7.86083C22.7517 7.98418 24.0175 9.27 24.1408 11.96C24.1892 13.0142 24.1983 13.3308 24.1983 16.0008C24.1983 18.6717 24.1883 18.9875 24.1408 20.0417C24.0167 22.7292 22.7542 24.0175 20.0417 24.1408C18.9867 24.1892 18.6717 24.1992 16 24.1992C13.33 24.1992 13.0133 24.1892 11.9592 24.1408C9.2425 24.0167 7.98333 22.725 7.86 20.0408C7.81168 18.9867 7.80167 18.6708 7.80167 16C7.80167 13.33 7.8125 13.0142 7.86 11.9592C7.98418 9.27 9.24668 7.98333 11.9592 7.86C13.0142 7.8125 13.33 7.8025 16 7.8025ZM16 6C13.2842 6 12.9442 6.01167 11.8775 6.06C8.24582 6.22667 6.2275 8.24167 6.06082 11.8767C6.01167 12.9442 6 13.2842 6 16C6 18.7158 6.01167 19.0567 6.06 20.1233C6.22667 23.755 8.24167 25.7733 11.8767 25.94C12.9442 25.9883 13.2842 26 16 26C18.7158 26 19.0567 25.9883 20.1233 25.94C23.7517 25.7733 25.775 23.7583 25.9393 20.1233C25.9883 19.0567 26 18.7158 26 16C26 13.2842 25.9883 12.9442 25.94 11.8775C25.7768 8.24917 23.7592 6.2275 20.1242 6.06082C19.0567 6.01167 18.7158 6 16 6ZM16 10.865C13.1642 10.865 10.865 13.1642 10.865 16C10.865 18.8358 13.1642 21.1358 16 21.1358C18.8358 21.1358 21.135 18.8367 21.135 16C21.135 13.1642 18.8358 10.865 16 10.865ZM16 19.3333C14.1592 19.3333 12.6667 17.8417 12.6667 16C12.6667 14.1592 14.1592 12.6667 16 12.6667C17.8408 12.6667 19.3333 14.1592 19.3333 16C19.3333 17.8417 17.8408 19.3333 16 19.3333ZM21.3383 9.4625C20.675 9.4625 20.1375 10 20.1375 10.6625C20.1375 11.325 20.675 11.8625 21.3383 11.8625C22.0008 11.8625 22.5375 11.325 22.5375 10.6625C22.5375 10 22.0008 9.4625 21.3383 9.4625Z" fill="url(#paint3_radial_31_8830)"/>
</g>
</g>
</g>
</g>
<defs>
<filter id="filter0_i_31_8830" x="2" y="2" width="28" height="32" filterUnits="userSpaceOnUse" color-interpolation-filters="sRGB">
<feFlood flood-opacity="0" result="BackgroundImageFix"/>
<feBlend mode="normal" in="SourceGraphic" in2="BackgroundImageFix" result="shape"/>
<feColorMatrix in="SourceAlpha" type="matrix" values="0 0 0 0 0 0 0 0 0 0 0 0 0 0 0 0 0 0 127 0" result="hardAlpha"/>
<feOffset dy="4"/>
<feGaussianBlur stdDeviation="2"/>
<feComposite in2="hardAlpha" operator="arithmetic" k2="-1" k3="1"/>
<feColorMatrix type="matrix" values="0 0 0 0 0 0 0 0 0 0 0 0 0 0 0 0 0 0 0.25 0"/>
<feBlend mode="normal" in2="shape" result="effect1_innerShadow_31_8830"/>
</filter>
<filter id="filter1_d_31_8830" x="2" y="4" width="28" height="28" filterUnits="userSpaceOnUse" color-interpolation-filters="sRGB">
<feFlood flood-opacity="0" result="BackgroundImageFix"/>
<feColorMatrix in="SourceAlpha" type="matrix" values="0 0 0 0 0 0 0 0 0 0 0 0 0 0 0 0 0 0 127 0" result="hardAlpha"/>
<feOffset dy="2"/>
<feGaussianBlur stdDeviation="2"/>
<feComposite in2="hardAlpha" operator="out"/>
<feColorMatrix type="matrix" values="0 0 0 0 0 0 0 0 0 0 0 0 0 0 0 0 0 0 0.25 0"/>
<feBlend mode="normal" in2="BackgroundImageFix" result="effect1_dropShadow_31_8830"/>
<feBlend mode="normal" in="SourceGraphic" in2="effect1_dropShadow_31_8830" result="shape"/>
</filter>
<radialGradient id="paint0_radial_31_8830" cx="0" cy="0" r="1" gradientUnits="userSpaceOnUse" gradientTransform="translate(32) rotate(135) scale(45.2547)">
<stop stop-color="#B000FF"/>
<stop offset="1" stop-color="#DFDFDF" stop-opacity="0"/>
</radialGradient>
<radialGradient id="paint1_radial_31_8830" cx="0" cy="0" r="1" gradientUnits="userSpaceOnUse" gradientTransform="translate(-9.53672e-07 32) rotate(-63.4349) scale(35.777)">
<stop stop-color="#FFB000"/>
<stop offset="1" stop-color="#DFDFDF" stop-opacity="0"/>
</radialGradient>
<radialGradient id="paint2_radial_31_8830" cx="0" cy="0" r="1" gradientUnits="userSpaceOnUse" gradientTransform="translate(26 6) rotate(135) scale(28.2843)">
<stop stop-color="#B000FF"/>
<stop offset="1" stop-color="#DFDFDF" stop-opacity="0"/>
</radialGradient>
<radialGradient id="paint3_radial_31_8830" cx="0" cy="0" r="1" gradientUnits="userSpaceOnUse" gradientTransform="translate(6 26) rotate(-63.4349) scale(22.3607)">
<stop stop-color="#FFB000"/>
<stop offset="1" stop-color="#DFDFDF" stop-opacity="0"/>
</radialGradient>
<clipPath id="clip0_31_8830">
<rect width="32" height="32" fill="white"/>
</clipPath>
</defs>
</svg>
