<svg width="32" height="32" viewBox="0 0 32 32" fill="none" xmlns="http://www.w3.org/2000/svg">
<g clip-path="url(#clip0_31_8884)">
<path d="M24 0H8C3.58172 0 0 3.58172 0 8V24C0 28.4183 3.58172 32 8 32H24C28.4183 32 32 28.4183 32 24V8C32 3.58172 28.4183 0 24 0Z" fill="url(#paint0_linear_31_8884)"/>
<g filter="url(#filter0_i_31_8884)">
<path d="M24 2H8C4.68629 2 2 4.68629 2 8V24C2 27.3137 4.68629 30 8 30H24C27.3137 30 30 27.3137 30 24V8C30 4.68629 27.3137 2 24 2Z" fill="black" fill-opacity="0.7"/>
<mask id="mask0_31_8884" style="mask-type:luminance" maskUnits="userSpaceOnUse" x="4" y="4" width="24" height="24">
<path d="M28 4H4V28H28V4Z" fill="white"/>
</mask>
<g mask="url(#mask0_31_8884)">
<g filter="url(#filter1_d_31_8884)">
<path d="M16.5 11.5C16.5 12.6935 16.0259 13.8381 15.182 14.682C14.3381 15.5259 13.1935 16 12 16C10.8065 16 9.66192 15.5259 8.81802 14.682C7.9741 13.8381 7.5 12.6935 7.5 11.5C7.5 10.3065 7.9741 9.16192 8.81802 8.31802C9.66192 7.4741 10.8065 7 12 7C13.1935 7 14.3381 7.4741 15.182 8.31802C16.0259 9.16192 16.5 10.3065 16.5 11.5Z" fill="url(#paint1_linear_31_8884)"/>
<path d="M15.9618 6.289C13.5333 6.289 11.1048 7.2195 9.24376 9.08C5.52226 12.8015 5.52226 18.794 9.24376 22.5155C12.9653 26.237 18.9578 26.237 22.6793 22.5155C26.4008 18.794 26.4008 12.8015 22.6793 9.08C20.8188 7.2195 18.3903 6.289 15.9618 6.289Z" fill="url(#paint2_linear_31_8884)"/>
<path opacity="0.4" fill-rule="evenodd" clip-rule="evenodd" d="M9.22217 9.9745L11.3782 6.6225L17.7027 12.859C14.4827 11.7905 13.8842 11.7695 9.37917 12.0375L9.22217 9.9745Z" fill="url(#paint3_linear_31_8884)"/>
<path d="M10 5.2655C9.1895 5.2655 8.3785 5.515 8.5 6C9 8 9.5 20 9 21C8.6665 21.6665 7.5 21.5 7.5 23.5C7.5 24.9335 8.9115 27.5 10 27.5C10.9835 27.496 12.5 24.9335 12.5 23.5C12.5 21.5 11.3335 21.6665 11 21C10.5 20 11 8 11.5 6C11.6215 5.515 10.8105 5.2655 10 5.2655ZM9.75 5.7655V6.5L10.3125 5.781L10.7655 5.875L10.1715 6.594L10.7655 7.344L10.3125 7.4845L9.75 6.6875V7.4065L9.3125 7.469V5.797L9.75 5.7655Z" fill="url(#paint4_linear_31_8884)"/>
<path d="M16.5 11.5C16.5 12.6935 16.0259 13.8381 15.182 14.682C14.3381 15.5259 13.1935 16 12 16C10.8065 16 9.66192 15.5259 8.81802 14.682C7.9741 13.8381 7.5 12.6935 7.5 11.5C7.5 10.3065 7.9741 9.16192 8.81802 8.31802C9.66192 7.4741 10.8065 7 12 7C13.1935 7 14.3381 7.4741 15.182 8.31802C16.0259 9.16192 16.5 10.3065 16.5 11.5Z" fill="url(#paint5_linear_31_8884)"/>
<path d="M20.9956 15.8768C20.9956 17.2342 20.4563 18.5359 19.4964 19.4957C18.5365 20.4555 17.2347 20.9947 15.8772 20.9947C14.5197 20.9947 13.2178 20.4555 12.2579 19.4957C11.298 18.5359 10.7588 17.2342 10.7588 15.8768C10.7588 14.5195 11.298 13.2177 12.2579 12.2579C13.2178 11.2981 14.5197 10.7589 15.8772 10.7589C17.2347 10.7589 18.5365 11.2981 19.4964 12.2579C20.4563 13.2177 20.9956 14.5195 20.9956 15.8768Z" fill="url(#paint6_linear_31_8884)"/>
<path d="M14.5249 18.015V13.6085L18.2999 15.7815L14.5249 18.015Z" fill="url(#paint7_linear_31_8884)"/>
<path opacity="0.052" d="M15.7125 13.09C15.2235 13.1155 14.7545 13.285 14.334 13.5315C14.496 13.987 14.7535 13.963 15.111 13.755C16.0155 13.4255 17.0545 13.7585 17.6775 14.4715C18.1365 14.2165 17.982 13.9235 17.623 13.6915C17.084 13.2675 16.399 13.0495 15.7125 13.09ZM13.2125 14.955C12.778 16.102 13.223 17.452 14.177 18.1865C14.5875 17.843 14.3785 17.6065 14.062 17.31C13.5325 16.6505 13.4505 15.707 13.781 14.946C13.5885 14.967 13.212 14.5535 13.2125 14.955ZM18.472 15.641C17.9365 15.5765 18.2535 16.2235 18.073 16.548C17.933 17.089 17.551 17.5435 17.0905 17.857C17.2565 18.356 17.5285 18.2925 17.819 17.9535C18.4575 17.369 18.7615 16.471 18.6925 15.608C18.619 15.619 18.5455 15.63 18.472 15.6415M14.908 18.22C14.631 18.72 15.399 18.677 15.7365 18.734C16.0475 18.7455 16.355 18.7025 16.6555 18.625C16.6645 18.029 16.2605 18.1465 15.812 18.199C15.5485 18.3235 14.9045 17.8035 14.908 18.22Z" fill="url(#paint8_radial_31_8884)"/>
<path opacity="0.052" d="M12.4658 13.51C12.0428 14.0955 11.8038 14.7895 11.6978 15.5005C12.3703 15.7355 12.5813 15.4175 12.6728 14.8155C13.1308 13.4725 14.4738 12.5875 15.8683 12.5315C15.9998 11.769 15.5208 11.675 14.9228 11.873C13.9373 12.1 13.0538 12.685 12.4658 13.51ZM12.2953 18.1045C13.2103 19.664 15.1718 20.402 16.8968 19.9855C16.8823 19.1965 16.4173 19.2175 15.7843 19.307C14.5378 19.305 13.3783 18.5265 12.8103 17.444C12.6563 17.684 11.8333 17.7345 12.2953 18.1045ZM17.9468 12.701C17.3773 13.256 18.4133 13.49 18.6188 13.9975C19.1103 14.6585 19.2788 15.5175 19.2133 16.3355C19.9403 16.6065 20.1188 16.235 19.9978 15.5885C19.9168 14.315 19.1673 13.1355 18.1123 12.4165C18.0568 12.511 18.0018 12.606 17.9463 12.7005M17.6113 19.1765C17.9298 19.957 18.5898 19.035 18.9673 18.701C19.2678 18.3545 19.5033 17.962 19.6923 17.5455C19.0163 16.984 18.7778 17.557 18.4233 18.1195C18.3223 18.5375 17.1303 18.7955 17.6118 19.177" fill="url(#paint9_radial_31_8884)"/>
<path d="M11.0199 21.665C11.0789 21.6945 12.0864 22.024 12.0909 23.505C12.0954 24.941 10.6709 27.005 9.94889 27.01C9.16389 27.0145 7.82589 24.9405 7.80689 23.505C7.78839 22.135 8.81889 21.7035 8.87789 21.665C9.60739 21.246 10.3249 21.241 11.0199 21.665Z" fill="url(#paint10_linear_31_8884)"/>
<path opacity="0.36" d="M9.99994 5.2655C9.18944 5.2655 8.37844 5.515 8.49994 6C8.99994 8 9.49994 20 8.99994 21C8.90294 21.256 9.07944 21.022 9.18744 20.9375C9.65644 19.6815 9.35294 7.975 8.85944 6C8.74694 5.55 9.43994 5.3145 10.1874 5.281C10.1239 5.278 10.0639 5.2655 9.99994 5.2655Z" fill="white"/>
</g>
</g>
</g>
</g>
<defs>
<filter id="filter0_i_31_8884" x="2" y="2" width="28" height="32" filterUnits="userSpaceOnUse" color-interpolation-filters="sRGB">
<feFlood flood-opacity="0" result="BackgroundImageFix"/>
<feBlend mode="normal" in="SourceGraphic" in2="BackgroundImageFix" result="shape"/>
<feColorMatrix in="SourceAlpha" type="matrix" values="0 0 0 0 0 0 0 0 0 0 0 0 0 0 0 0 0 0 127 0" result="hardAlpha"/>
<feOffset dy="4"/>
<feGaussianBlur stdDeviation="2"/>
<feComposite in2="hardAlpha" operator="arithmetic" k2="-1" k3="1"/>
<feColorMatrix type="matrix" values="0 0 0 0 0 0 0 0 0 0 0 0 0 0 0 0 0 0 0.25 0"/>
<feBlend mode="normal" in2="shape" result="effect1_innerShadow_31_8884"/>
</filter>
<filter id="filter1_d_31_8884" x="2.45264" y="3.2655" width="27.0176" height="30.2345" filterUnits="userSpaceOnUse" color-interpolation-filters="sRGB">
<feFlood flood-opacity="0" result="BackgroundImageFix"/>
<feColorMatrix in="SourceAlpha" type="matrix" values="0 0 0 0 0 0 0 0 0 0 0 0 0 0 0 0 0 0 127 0" result="hardAlpha"/>
<feOffset dy="2"/>
<feGaussianBlur stdDeviation="2"/>
<feComposite in2="hardAlpha" operator="out"/>
<feColorMatrix type="matrix" values="0 0 0 0 0 0 0 0 0 0 0 0 0 0 0 0 0 0 0.25 0"/>
<feBlend mode="normal" in2="BackgroundImageFix" result="effect1_dropShadow_31_8884"/>
<feBlend mode="normal" in="SourceGraphic" in2="effect1_dropShadow_31_8884" result="shape"/>
</filter>
<linearGradient id="paint0_linear_31_8884" x1="358.07" y1="436.153" x2="314.38" y2="436.885" gradientUnits="userSpaceOnUse">
<stop stop-color="#FCFCFC"/>
<stop offset="1" stop-color="#D0D6DC"/>
</linearGradient>
<linearGradient id="paint1_linear_31_8884" x1="196.805" y1="265.12" x2="208.91" y2="265.635" gradientUnits="userSpaceOnUse">
<stop stop-color="white"/>
<stop offset="1" stop-color="#DFE1E3"/>
</linearGradient>
<linearGradient id="paint2_linear_31_8884" x1="219.255" y1="265.495" x2="193.29" y2="265.93" gradientUnits="userSpaceOnUse">
<stop stop-color="#FCFCFC"/>
<stop offset="1" stop-color="#E9EAEB"/>
</linearGradient>
<linearGradient id="paint3_linear_31_8884" x1="8.09667" y1="14.4345" x2="12.3537" y2="14.7145" gradientUnits="userSpaceOnUse">
<stop/>
<stop offset="1" stop-opacity="0"/>
</linearGradient>
<linearGradient id="paint4_linear_31_8884" x1="10" y1="4.793" x2="9.9375" y2="26.655" gradientUnits="userSpaceOnUse">
<stop stop-color="#E0E0E0"/>
<stop offset="0.125" stop-color="#C0C0C0"/>
<stop offset="0.66" stop-color="#9B9B9B"/>
<stop offset="0.732" stop-color="#B3B3B3"/>
<stop offset="1" stop-color="#B1B1B1"/>
</linearGradient>
<linearGradient id="paint5_linear_31_8884" x1="198.17" y1="265.09" x2="205.015" y2="265.85" gradientUnits="userSpaceOnUse">
<stop stop-color="white"/>
<stop offset="1" stop-color="#EFF0F1"/>
</linearGradient>
<linearGradient id="paint6_linear_31_8884" x1="12.2613" y1="12.2528" x2="20.3759" y2="21.1809" gradientUnits="userSpaceOnUse">
<stop stop-color="#491309"/>
<stop offset="1" stop-color="#B6642D"/>
</linearGradient>
<linearGradient id="paint7_linear_31_8884" x1="12.1479" y1="11.9355" x2="19.3164" y2="19.505" gradientUnits="userSpaceOnUse">
<stop stop-color="#FEE3A8"/>
<stop offset="1" stop-color="#FCDD99" stop-opacity="0"/>
</linearGradient>
<radialGradient id="paint8_radial_31_8884" cx="0" cy="0" r="1" gradientUnits="userSpaceOnUse" gradientTransform="translate(15.874 15.91) scale(2.8285)">
<stop stop-color="#FCDD99"/>
<stop offset="1" stop-color="#FCDD99" stop-opacity="0"/>
</radialGradient>
<radialGradient id="paint9_radial_31_8884" cx="0" cy="0" r="1" gradientUnits="userSpaceOnUse" gradientTransform="translate(15.8653 15.9425) scale(4.1675)">
<stop stop-color="#FCDD99"/>
<stop offset="1" stop-color="#FCDD99" stop-opacity="0"/>
</radialGradient>
<linearGradient id="paint10_linear_31_8884" x1="10.6234" y1="25.005" x2="8.44589" y2="21.4435" gradientUnits="userSpaceOnUse">
<stop stop-color="#D6D6D6"/>
<stop offset="1" stop-color="#7A7A7A"/>
</linearGradient>
<clipPath id="clip0_31_8884">
<rect width="32" height="32" fill="white"/>
</clipPath>
</defs>
</svg>
