<svg width="32" height="32" viewBox="0 0 32 32" fill="none" xmlns="http://www.w3.org/2000/svg">
<g clip-path="url(#clip0_31_8914)">
<path d="M24 0H8C3.58172 0 0 3.58172 0 8V24C0 28.4183 3.58172 32 8 32H24C28.4183 32 32 28.4183 32 24V8C32 3.58172 28.4183 0 24 0Z" fill="url(#paint0_linear_31_8914)"/>
<g filter="url(#filter0_i_31_8914)">
<path d="M24 2H8C4.68629 2 2 4.68629 2 8V24C2 27.3137 4.68629 30 8 30H24C27.3137 30 30 27.3137 30 24V8C30 4.68629 27.3137 2 24 2Z" fill="black" fill-opacity="0.7"/>
<g filter="url(#filter1_d_31_8914)">
<path fill-rule="evenodd" clip-rule="evenodd" d="M17 6H8C6.89542 6 6 6.89542 6 8V24C6 25.1045 6.89542 26 8 26H24C25.1045 26 26 25.1045 26 24V15L17 6Z" fill="url(#paint1_linear_31_8914)"/>
</g>
<g filter="url(#filter2_d_31_8914)">
<path d="M25.9999 8C25.9999 6.89542 25.1046 6 24 6H20L25.9999 12V8Z" fill="#97989A"/>
</g>
<path d="M22 19.5C22 20.6046 19.3137 21.5 16 21.5C12.6863 21.5 10 20.6046 10 19.5V21.5C10 22.6046 12.6863 23.5 16 23.5C19.3137 23.5 22 22.6046 22 21.5V19.5Z" fill="white"/>
<path d="M22 16.75C22 17.8546 19.3137 18.75 16 18.75C12.6863 18.75 10 17.8546 10 16.75V18.75C10 19.8546 12.6863 20.75 16 20.75C19.3137 20.75 22 19.8546 22 18.75V16.75Z" fill="white"/>
<path d="M22 14C22 15.1046 19.3137 16 16 16C12.6863 16 10 15.1046 10 14V16C10 17.1046 12.6863 18 16 18C19.3137 18 22 17.1046 22 16V14Z" fill="white"/>
<path d="M16 16C19.3137 16 22 15.1046 22 14C22 12.8954 19.3137 12 16 12C12.6863 12 10 12.8954 10 14C10 15.1046 12.6863 16 16 16Z" fill="#E6E6E6"/>
</g>
</g>
<defs>
<filter id="filter0_i_31_8914" x="2" y="2" width="28" height="32" filterUnits="userSpaceOnUse" color-interpolation-filters="sRGB">
<feFlood flood-opacity="0" result="BackgroundImageFix"/>
<feBlend mode="normal" in="SourceGraphic" in2="BackgroundImageFix" result="shape"/>
<feColorMatrix in="SourceAlpha" type="matrix" values="0 0 0 0 0 0 0 0 0 0 0 0 0 0 0 0 0 0 127 0" result="hardAlpha"/>
<feOffset dy="4"/>
<feGaussianBlur stdDeviation="2"/>
<feComposite in2="hardAlpha" operator="arithmetic" k2="-1" k3="1"/>
<feColorMatrix type="matrix" values="0 0 0 0 0 0 0 0 0 0 0 0 0 0 0 0 0 0 0.25 0"/>
<feBlend mode="normal" in2="shape" result="effect1_innerShadow_31_8914"/>
</filter>
<filter id="filter1_d_31_8914" x="2" y="4" width="28" height="28" filterUnits="userSpaceOnUse" color-interpolation-filters="sRGB">
<feFlood flood-opacity="0" result="BackgroundImageFix"/>
<feColorMatrix in="SourceAlpha" type="matrix" values="0 0 0 0 0 0 0 0 0 0 0 0 0 0 0 0 0 0 127 0" result="hardAlpha"/>
<feOffset dy="2"/>
<feGaussianBlur stdDeviation="2"/>
<feComposite in2="hardAlpha" operator="out"/>
<feColorMatrix type="matrix" values="0 0 0 0 0 0 0 0 0 0 0 0 0 0 0 0 0 0 0.25 0"/>
<feBlend mode="normal" in2="BackgroundImageFix" result="effect1_dropShadow_31_8914"/>
<feBlend mode="normal" in="SourceGraphic" in2="effect1_dropShadow_31_8914" result="shape"/>
</filter>
<filter id="filter2_d_31_8914" x="16" y="4" width="14" height="14" filterUnits="userSpaceOnUse" color-interpolation-filters="sRGB">
<feFlood flood-opacity="0" result="BackgroundImageFix"/>
<feColorMatrix in="SourceAlpha" type="matrix" values="0 0 0 0 0 0 0 0 0 0 0 0 0 0 0 0 0 0 127 0" result="hardAlpha"/>
<feOffset dy="2"/>
<feGaussianBlur stdDeviation="2"/>
<feComposite in2="hardAlpha" operator="out"/>
<feColorMatrix type="matrix" values="0 0 0 0 0 0 0 0 0 0 0 0 0 0 0 0 0 0 0.25 0"/>
<feBlend mode="normal" in2="BackgroundImageFix" result="effect1_dropShadow_31_8914"/>
<feBlend mode="normal" in="SourceGraphic" in2="effect1_dropShadow_31_8914" result="shape"/>
</filter>
<linearGradient id="paint0_linear_31_8914" x1="32" y1="0" x2="0" y2="32" gradientUnits="userSpaceOnUse">
<stop stop-color="#F353FB"/>
<stop offset="1" stop-color="#7C26AD"/>
</linearGradient>
<linearGradient id="paint1_linear_31_8914" x1="26" y1="6" x2="6" y2="26" gradientUnits="userSpaceOnUse">
<stop stop-color="#F353FB"/>
<stop offset="1" stop-color="#7C26AD"/>
</linearGradient>
<clipPath id="clip0_31_8914">
<rect width="32" height="32" fill="white"/>
</clipPath>
</defs>
</svg>
