<svg width="32" height="32" viewBox="0 0 32 32" fill="none" xmlns="http://www.w3.org/2000/svg">
<g clip-path="url(#clip0_31_8935)">
<path d="M24 0H8C3.58172 0 0 3.58172 0 8V24C0 28.4183 3.58172 32 8 32H24C28.4183 32 32 28.4183 32 24V8C32 3.58172 28.4183 0 24 0Z" fill="url(#paint0_linear_31_8935)"/>
<g filter="url(#filter0_i_31_8935)">
<path d="M24 2H8C4.68629 2 2 4.68629 2 8V24C2 27.3137 4.68629 30 8 30H24C27.3137 30 30 27.3137 30 24V8C30 4.68629 27.3137 2 24 2Z" fill="black" fill-opacity="0.7"/>
<g filter="url(#filter1_d_31_8935)">
<path fill-rule="evenodd" clip-rule="evenodd" d="M17 6H8C6.89542 6 6 6.89542 6 8V24C6 25.1045 6.89542 26 8 26H24C25.1045 26 26 25.1045 26 24V15L17 6Z" fill="url(#paint1_linear_31_8935)"/>
</g>
<g filter="url(#filter2_d_31_8935)">
<path d="M25.9999 8C25.9999 6.89542 25.1046 6 24 6H20L25.9999 12V8Z" fill="#97989A"/>
</g>
<path d="M11.5 23C13.7091 23 15.5 21.2091 15.5 19C15.5 16.7909 13.7091 15 11.5 15C9.29086 15 7.5 16.7909 7.5 19C7.5 21.2091 9.29086 23 11.5 23Z" fill="#FAFAFA"/>
<path d="M23.5 17.5H18.5C18.2239 17.5 18 17.7239 18 18V23C18 23.2761 18.2239 23.5 18.5 23.5H23.5C23.7761 23.5 24 23.2761 24 23V18C24 17.7239 23.7761 17.5 23.5 17.5Z" stroke="white" stroke-width="4"/>
<path d="M19.0659 24.5H12.9344C12.5351 24.5 12.2969 24.0549 12.5184 23.7226L15.5842 19.124C15.7821 18.8272 16.2183 18.8272 16.4162 19.124L19.482 23.7226C19.7035 24.0549 19.4653 24.5 19.0659 24.5Z" fill="#F9E285"/>
</g>
</g>
<defs>
<filter id="filter0_i_31_8935" x="2" y="2" width="28" height="32" filterUnits="userSpaceOnUse" color-interpolation-filters="sRGB">
<feFlood flood-opacity="0" result="BackgroundImageFix"/>
<feBlend mode="normal" in="SourceGraphic" in2="BackgroundImageFix" result="shape"/>
<feColorMatrix in="SourceAlpha" type="matrix" values="0 0 0 0 0 0 0 0 0 0 0 0 0 0 0 0 0 0 127 0" result="hardAlpha"/>
<feOffset dy="4"/>
<feGaussianBlur stdDeviation="2"/>
<feComposite in2="hardAlpha" operator="arithmetic" k2="-1" k3="1"/>
<feColorMatrix type="matrix" values="0 0 0 0 0 0 0 0 0 0 0 0 0 0 0 0 0 0 0.25 0"/>
<feBlend mode="normal" in2="shape" result="effect1_innerShadow_31_8935"/>
</filter>
<filter id="filter1_d_31_8935" x="2" y="4" width="28" height="28" filterUnits="userSpaceOnUse" color-interpolation-filters="sRGB">
<feFlood flood-opacity="0" result="BackgroundImageFix"/>
<feColorMatrix in="SourceAlpha" type="matrix" values="0 0 0 0 0 0 0 0 0 0 0 0 0 0 0 0 0 0 127 0" result="hardAlpha"/>
<feOffset dy="2"/>
<feGaussianBlur stdDeviation="2"/>
<feComposite in2="hardAlpha" operator="out"/>
<feColorMatrix type="matrix" values="0 0 0 0 0 0 0 0 0 0 0 0 0 0 0 0 0 0 0.25 0"/>
<feBlend mode="normal" in2="BackgroundImageFix" result="effect1_dropShadow_31_8935"/>
<feBlend mode="normal" in="SourceGraphic" in2="effect1_dropShadow_31_8935" result="shape"/>
</filter>
<filter id="filter2_d_31_8935" x="16" y="4" width="14" height="14" filterUnits="userSpaceOnUse" color-interpolation-filters="sRGB">
<feFlood flood-opacity="0" result="BackgroundImageFix"/>
<feColorMatrix in="SourceAlpha" type="matrix" values="0 0 0 0 0 0 0 0 0 0 0 0 0 0 0 0 0 0 127 0" result="hardAlpha"/>
<feOffset dy="2"/>
<feGaussianBlur stdDeviation="2"/>
<feComposite in2="hardAlpha" operator="out"/>
<feColorMatrix type="matrix" values="0 0 0 0 0 0 0 0 0 0 0 0 0 0 0 0 0 0 0.25 0"/>
<feBlend mode="normal" in2="BackgroundImageFix" result="effect1_dropShadow_31_8935"/>
<feBlend mode="normal" in="SourceGraphic" in2="effect1_dropShadow_31_8935" result="shape"/>
</filter>
<linearGradient id="paint0_linear_31_8935" x1="32" y1="0" x2="0" y2="32" gradientUnits="userSpaceOnUse">
<stop stop-color="#FFFE4F"/>
<stop offset="1" stop-color="#CE7732"/>
</linearGradient>
<linearGradient id="paint1_linear_31_8935" x1="26" y1="6" x2="6" y2="26" gradientUnits="userSpaceOnUse">
<stop stop-color="#FFFE4F"/>
<stop offset="1" stop-color="#CE7732"/>
</linearGradient>
<clipPath id="clip0_31_8935">
<rect width="32" height="32" fill="white"/>
</clipPath>
</defs>
</svg>
