<svg width="32" height="32" viewBox="0 0 32 32" fill="none" xmlns="http://www.w3.org/2000/svg">
<g clip-path="url(#clip0_31_8946)">
<path d="M24 0H8C3.58172 0 0 3.58172 0 8V24C0 28.4183 3.58172 32 8 32H24C28.4183 32 32 28.4183 32 24V8C32 3.58172 28.4183 0 24 0Z" fill="url(#paint0_linear_31_8946)"/>
<g filter="url(#filter0_i_31_8946)">
<path d="M24 2H8C4.68629 2 2 4.68629 2 8V24C2 27.3137 4.68629 30 8 30H24C27.3137 30 30 27.3137 30 24V8C30 4.68629 27.3137 2 24 2Z" fill="black" fill-opacity="0.7"/>
<g filter="url(#filter1_d_31_8946)">
<path fill-rule="evenodd" clip-rule="evenodd" d="M17 6H8C6.89542 6 6 6.89542 6 8V24C6 25.1045 6.89542 26 8 26H24C25.1045 26 26 25.1045 26 24V15L17 6Z" fill="url(#paint1_linear_31_8946)"/>
</g>
<g filter="url(#filter2_d_31_8946)">
<path d="M17 13C17 14.1046 17.8954 15 19 15H26L17 6V13Z" fill="#FAFAFA"/>
</g>
<g filter="url(#filter3_d_31_8946)">
<path d="M25.9999 8C25.9999 6.89542 25.1046 6 24 6H20L25.9999 12V8Z" fill="#97989A"/>
</g>
<mask id="mask0_31_8946" style="mask-type:luminance" maskUnits="userSpaceOnUse" x="8" y="16" width="16" height="8">
<path d="M23.5 16H8.5C8.22386 16 8 16.2239 8 16.5V23.5C8 23.7761 8.22386 24 8.5 24H23.5C23.7761 24 24 23.7761 24 23.5V16.5C24 16.2239 23.7761 16 23.5 16Z" fill="white"/>
</mask>
<g mask="url(#mask0_31_8946)">
<path d="M12 18H8V24H12V18Z" fill="#24AFEA"/>
<path d="M12 18H8V24H12V18Z" fill="url(#paint2_linear_31_8946)"/>
<path d="M16 16H12V24H16V16Z" fill="#F8883C"/>
<path d="M16 16H12V24H16V16Z" fill="url(#paint3_linear_31_8946)"/>
<path d="M20 20H16V24H20V20Z" fill="#F0CD49"/>
<path d="M20 20H16V24H20V20Z" fill="url(#paint4_linear_31_8946)"/>
<path d="M24 18H20V24H24V18Z" fill="#5BDD4B"/>
<path d="M24 18H20V24H24V18Z" fill="url(#paint5_linear_31_8946)"/>
</g>
</g>
</g>
<defs>
<filter id="filter0_i_31_8946" x="2" y="2" width="28" height="32" filterUnits="userSpaceOnUse" color-interpolation-filters="sRGB">
<feFlood flood-opacity="0" result="BackgroundImageFix"/>
<feBlend mode="normal" in="SourceGraphic" in2="BackgroundImageFix" result="shape"/>
<feColorMatrix in="SourceAlpha" type="matrix" values="0 0 0 0 0 0 0 0 0 0 0 0 0 0 0 0 0 0 127 0" result="hardAlpha"/>
<feOffset dy="4"/>
<feGaussianBlur stdDeviation="2"/>
<feComposite in2="hardAlpha" operator="arithmetic" k2="-1" k3="1"/>
<feColorMatrix type="matrix" values="0 0 0 0 0 0 0 0 0 0 0 0 0 0 0 0 0 0 0.25 0"/>
<feBlend mode="normal" in2="shape" result="effect1_innerShadow_31_8946"/>
</filter>
<filter id="filter1_d_31_8946" x="2" y="4" width="28" height="28" filterUnits="userSpaceOnUse" color-interpolation-filters="sRGB">
<feFlood flood-opacity="0" result="BackgroundImageFix"/>
<feColorMatrix in="SourceAlpha" type="matrix" values="0 0 0 0 0 0 0 0 0 0 0 0 0 0 0 0 0 0 127 0" result="hardAlpha"/>
<feOffset dy="2"/>
<feGaussianBlur stdDeviation="2"/>
<feComposite in2="hardAlpha" operator="out"/>
<feColorMatrix type="matrix" values="0 0 0 0 0 0 0 0 0 0 0 0 0 0 0 0 0 0 0.25 0"/>
<feBlend mode="normal" in2="BackgroundImageFix" result="effect1_dropShadow_31_8946"/>
<feBlend mode="normal" in="SourceGraphic" in2="effect1_dropShadow_31_8946" result="shape"/>
</filter>
<filter id="filter2_d_31_8946" x="13" y="4" width="17" height="17" filterUnits="userSpaceOnUse" color-interpolation-filters="sRGB">
<feFlood flood-opacity="0" result="BackgroundImageFix"/>
<feColorMatrix in="SourceAlpha" type="matrix" values="0 0 0 0 0 0 0 0 0 0 0 0 0 0 0 0 0 0 127 0" result="hardAlpha"/>
<feOffset dy="2"/>
<feGaussianBlur stdDeviation="2"/>
<feComposite in2="hardAlpha" operator="out"/>
<feColorMatrix type="matrix" values="0 0 0 0 0 0 0 0 0 0 0 0 0 0 0 0 0 0 0.25 0"/>
<feBlend mode="normal" in2="BackgroundImageFix" result="effect1_dropShadow_31_8946"/>
<feBlend mode="normal" in="SourceGraphic" in2="effect1_dropShadow_31_8946" result="shape"/>
</filter>
<filter id="filter3_d_31_8946" x="16" y="4" width="14" height="14" filterUnits="userSpaceOnUse" color-interpolation-filters="sRGB">
<feFlood flood-opacity="0" result="BackgroundImageFix"/>
<feColorMatrix in="SourceAlpha" type="matrix" values="0 0 0 0 0 0 0 0 0 0 0 0 0 0 0 0 0 0 127 0" result="hardAlpha"/>
<feOffset dy="2"/>
<feGaussianBlur stdDeviation="2"/>
<feComposite in2="hardAlpha" operator="out"/>
<feColorMatrix type="matrix" values="0 0 0 0 0 0 0 0 0 0 0 0 0 0 0 0 0 0 0.25 0"/>
<feBlend mode="normal" in2="BackgroundImageFix" result="effect1_dropShadow_31_8946"/>
<feBlend mode="normal" in="SourceGraphic" in2="effect1_dropShadow_31_8946" result="shape"/>
</filter>
<linearGradient id="paint0_linear_31_8946" x1="32" y1="0" x2="0" y2="32" gradientUnits="userSpaceOnUse">
<stop stop-color="#97989A"/>
<stop offset="1" stop-color="#505050"/>
</linearGradient>
<linearGradient id="paint1_linear_31_8946" x1="16" y1="6" x2="16" y2="26" gradientUnits="userSpaceOnUse">
<stop stop-color="#FAFAFA"/>
<stop offset="1" stop-color="#D5D5D5"/>
</linearGradient>
<linearGradient id="paint2_linear_31_8946" x1="10" y1="18" x2="10" y2="24" gradientUnits="userSpaceOnUse">
<stop stop-opacity="0"/>
<stop offset="1" stop-opacity="0.2"/>
</linearGradient>
<linearGradient id="paint3_linear_31_8946" x1="14" y1="16" x2="14" y2="24" gradientUnits="userSpaceOnUse">
<stop stop-opacity="0"/>
<stop offset="1" stop-opacity="0.2"/>
</linearGradient>
<linearGradient id="paint4_linear_31_8946" x1="18" y1="20" x2="18" y2="24" gradientUnits="userSpaceOnUse">
<stop stop-opacity="0"/>
<stop offset="1" stop-opacity="0.2"/>
</linearGradient>
<linearGradient id="paint5_linear_31_8946" x1="22" y1="18" x2="22" y2="24" gradientUnits="userSpaceOnUse">
<stop stop-opacity="0"/>
<stop offset="1" stop-opacity="0.2"/>
</linearGradient>
<clipPath id="clip0_31_8946">
<rect width="32" height="32" fill="white"/>
</clipPath>
</defs>
</svg>
