<svg width="32" height="32" viewBox="0 0 32 32" fill="none" xmlns="http://www.w3.org/2000/svg">
<g clip-path="url(#clip0_31_9009)">
<path d="M24 0H8C3.58172 0 0 3.58172 0 8V24C0 28.4183 3.58172 32 8 32H24C28.4183 32 32 28.4183 32 24V8C32 3.58172 28.4183 0 24 0Z" fill="url(#paint0_linear_31_9009)"/>
<g filter="url(#filter0_i_31_9009)">
<path d="M24 2H8C4.68629 2 2 4.68629 2 8V24C2 27.3137 4.68629 30 8 30H24C27.3137 30 30 27.3137 30 24V8C30 4.68629 27.3137 2 24 2Z" fill="black" fill-opacity="0.7"/>
<g filter="url(#filter1_d_31_9009)">
<path fill-rule="evenodd" clip-rule="evenodd" d="M15.75 6H9.25C8.14542 6 7.25 6.89542 7.25 8V24C7.25 25.1045 8.14542 26 9.25 26H22.75C23.8546 26 24.75 25.1045 24.75 24V15L15.75 6Z" fill="url(#paint1_linear_31_9009)"/>
</g>
<g filter="url(#filter2_d_31_9009)">
<path d="M24.75 8C24.75 6.89542 23.8546 6 22.75 6H18.75L24.75 12V8Z" fill="#97989A"/>
</g>
<path d="M9.75 17.5H22.25M9.75 19.5H22.25M9.75 21.5H19.75" stroke="white" stroke-width="4" stroke-linecap="round" stroke-linejoin="round"/>
<path d="M10.75 14.5H10C9.86193 14.5 9.75 14.3881 9.75 14.25V10.75C9.75 10.6119 9.86193 10.5 10 10.5H15.5C15.6381 10.5 15.75 10.6119 15.75 10.75V14.25C15.75 14.3881 15.6381 14.5 15.5 14.5H13.5M10.75 14.5L11.3748 13.6669C11.4473 13.5703 11.5785 13.5393 11.6866 13.5933L13.5 14.5M10.75 14.5H13.5" stroke="white" stroke-opacity="0.7" stroke-width="4" stroke-linecap="round" stroke-linejoin="round"/>
<path d="M13 13C13.2761 13 13.5 12.7761 13.5 12.5C13.5 12.2239 13.2761 12 13 12C12.7239 12 12.5 12.2239 12.5 12.5C12.5 12.7761 12.7239 13 13 13Z" fill="white" fill-opacity="0.7"/>
</g>
</g>
<defs>
<filter id="filter0_i_31_9009" x="2" y="2" width="28" height="32" filterUnits="userSpaceOnUse" color-interpolation-filters="sRGB">
<feFlood flood-opacity="0" result="BackgroundImageFix"/>
<feBlend mode="normal" in="SourceGraphic" in2="BackgroundImageFix" result="shape"/>
<feColorMatrix in="SourceAlpha" type="matrix" values="0 0 0 0 0 0 0 0 0 0 0 0 0 0 0 0 0 0 127 0" result="hardAlpha"/>
<feOffset dy="4"/>
<feGaussianBlur stdDeviation="2"/>
<feComposite in2="hardAlpha" operator="arithmetic" k2="-1" k3="1"/>
<feColorMatrix type="matrix" values="0 0 0 0 0 0 0 0 0 0 0 0 0 0 0 0 0 0 0.25 0"/>
<feBlend mode="normal" in2="shape" result="effect1_innerShadow_31_9009"/>
</filter>
<filter id="filter1_d_31_9009" x="3.25" y="4" width="25.5" height="28" filterUnits="userSpaceOnUse" color-interpolation-filters="sRGB">
<feFlood flood-opacity="0" result="BackgroundImageFix"/>
<feColorMatrix in="SourceAlpha" type="matrix" values="0 0 0 0 0 0 0 0 0 0 0 0 0 0 0 0 0 0 127 0" result="hardAlpha"/>
<feOffset dy="2"/>
<feGaussianBlur stdDeviation="2"/>
<feComposite in2="hardAlpha" operator="out"/>
<feColorMatrix type="matrix" values="0 0 0 0 0 0 0 0 0 0 0 0 0 0 0 0 0 0 0.25 0"/>
<feBlend mode="normal" in2="BackgroundImageFix" result="effect1_dropShadow_31_9009"/>
<feBlend mode="normal" in="SourceGraphic" in2="effect1_dropShadow_31_9009" result="shape"/>
</filter>
<filter id="filter2_d_31_9009" x="14.75" y="4" width="14" height="14" filterUnits="userSpaceOnUse" color-interpolation-filters="sRGB">
<feFlood flood-opacity="0" result="BackgroundImageFix"/>
<feColorMatrix in="SourceAlpha" type="matrix" values="0 0 0 0 0 0 0 0 0 0 0 0 0 0 0 0 0 0 127 0" result="hardAlpha"/>
<feOffset dy="2"/>
<feGaussianBlur stdDeviation="2"/>
<feComposite in2="hardAlpha" operator="out"/>
<feColorMatrix type="matrix" values="0 0 0 0 0 0 0 0 0 0 0 0 0 0 0 0 0 0 0.25 0"/>
<feBlend mode="normal" in2="BackgroundImageFix" result="effect1_dropShadow_31_9009"/>
<feBlend mode="normal" in="SourceGraphic" in2="effect1_dropShadow_31_9009" result="shape"/>
</filter>
<linearGradient id="paint0_linear_31_9009" x1="32" y1="0" x2="0" y2="32" gradientUnits="userSpaceOnUse">
<stop stop-color="#1FCAF8"/>
<stop offset="1" stop-color="#0D44B1"/>
</linearGradient>
<linearGradient id="paint1_linear_31_9009" x1="24.75" y1="6" x2="4.75" y2="26" gradientUnits="userSpaceOnUse">
<stop stop-color="#1FCAF8"/>
<stop offset="1" stop-color="#0D44B1"/>
</linearGradient>
<clipPath id="clip0_31_9009">
<rect width="32" height="32" fill="white"/>
</clipPath>
</defs>
</svg>
