<svg width="32" height="32" viewBox="0 0 32 32" fill="none" xmlns="http://www.w3.org/2000/svg">
<g clip-path="url(#clip0_31_8968)">
<path d="M24 0H8C3.58172 0 0 3.58172 0 8V24C0 28.4183 3.58172 32 8 32H24C28.4183 32 32 28.4183 32 24V8C32 3.58172 28.4183 0 24 0Z" fill="url(#paint0_linear_31_8968)"/>
<g filter="url(#filter0_i_31_8968)">
<path d="M24 2H8C4.68629 2 2 4.68629 2 8V24C2 27.3137 4.68629 30 8 30H24C27.3137 30 30 27.3137 30 24V8C30 4.68629 27.3137 2 24 2Z" fill="black" fill-opacity="0.7"/>
<g filter="url(#filter1_d_31_8968)">
<path fill-rule="evenodd" clip-rule="evenodd" d="M17 8.5H8C6.89542 8.5 6 9.39542 6 10.5V21.5C6 22.6046 6.89542 23.5 8 23.5H24C25.1045 23.5 26 22.6046 26 21.5V17.5L17 8.5Z" fill="url(#paint1_linear_31_8968)"/>
</g>
<g filter="url(#filter2_d_31_8968)">
<path d="M25.9999 10.5C25.9999 9.39542 25.1046 8.5 24 8.5H20L25.9999 14.5V10.5Z" fill="#97989A"/>
</g>
<path fill-rule="evenodd" clip-rule="evenodd" d="M19.5 11H10.25C9.97385 11 9.75 11.2239 9.75 11.5C9.75 11.7761 9.97385 12 10.25 12H20.5L19.5 11Z" fill="white"/>
<path d="M8.5 16C8.5 15.7239 8.27614 15.5 8 15.5C7.72386 15.5 7.5 15.7239 7.5 16C7.5 16.2761 7.72386 16.5 8 16.5C8.27614 16.5 8.5 16.2761 8.5 16Z" fill="white"/>
<path d="M19 15.5H10C9.72386 15.5 9.5 15.7239 9.5 16C9.5 16.2761 9.72386 16.5 10 16.5H19C19.2761 16.5 19.5 16.2761 19.5 16C19.5 15.7239 19.2761 15.5 19 15.5Z" fill="white"/>
<path d="M8.5 18C8.5 17.7239 8.27614 17.5 8 17.5C7.72386 17.5 7.5 17.7239 7.5 18C7.5 18.2761 7.72386 18.5 8 18.5C8.27614 18.5 8.5 18.2761 8.5 18Z" fill="white"/>
<path d="M17 17.5H10C9.72386 17.5 9.5 17.7239 9.5 18C9.5 18.2761 9.72386 18.5 10 18.5H17C17.2761 18.5 17.5 18.2761 17.5 18C17.5 17.7239 17.2761 17.5 17 17.5Z" fill="white"/>
<path d="M8.5 20C8.5 19.7239 8.27614 19.5 8 19.5C7.72386 19.5 7.5 19.7239 7.5 20C7.5 20.2761 7.72386 20.5 8 20.5C8.27614 20.5 8.5 20.2761 8.5 20Z" fill="white"/>
<path d="M18.25 19.5H10C9.72386 19.5 9.5 19.7239 9.5 20C9.5 20.2761 9.72386 20.5 10 20.5H18.25C18.5261 20.5 18.75 20.2761 18.75 20C18.75 19.7239 18.5261 19.5 18.25 19.5Z" fill="white"/>
</g>
</g>
<defs>
<filter id="filter0_i_31_8968" x="2" y="2" width="28" height="32" filterUnits="userSpaceOnUse" color-interpolation-filters="sRGB">
<feFlood flood-opacity="0" result="BackgroundImageFix"/>
<feBlend mode="normal" in="SourceGraphic" in2="BackgroundImageFix" result="shape"/>
<feColorMatrix in="SourceAlpha" type="matrix" values="0 0 0 0 0 0 0 0 0 0 0 0 0 0 0 0 0 0 127 0" result="hardAlpha"/>
<feOffset dy="4"/>
<feGaussianBlur stdDeviation="2"/>
<feComposite in2="hardAlpha" operator="arithmetic" k2="-1" k3="1"/>
<feColorMatrix type="matrix" values="0 0 0 0 0 0 0 0 0 0 0 0 0 0 0 0 0 0 0.25 0"/>
<feBlend mode="normal" in2="shape" result="effect1_innerShadow_31_8968"/>
</filter>
<filter id="filter1_d_31_8968" x="2" y="6.5" width="28" height="23" filterUnits="userSpaceOnUse" color-interpolation-filters="sRGB">
<feFlood flood-opacity="0" result="BackgroundImageFix"/>
<feColorMatrix in="SourceAlpha" type="matrix" values="0 0 0 0 0 0 0 0 0 0 0 0 0 0 0 0 0 0 127 0" result="hardAlpha"/>
<feOffset dy="2"/>
<feGaussianBlur stdDeviation="2"/>
<feComposite in2="hardAlpha" operator="out"/>
<feColorMatrix type="matrix" values="0 0 0 0 0 0 0 0 0 0 0 0 0 0 0 0 0 0 0.25 0"/>
<feBlend mode="normal" in2="BackgroundImageFix" result="effect1_dropShadow_31_8968"/>
<feBlend mode="normal" in="SourceGraphic" in2="effect1_dropShadow_31_8968" result="shape"/>
</filter>
<filter id="filter2_d_31_8968" x="16" y="6.5" width="14" height="14" filterUnits="userSpaceOnUse" color-interpolation-filters="sRGB">
<feFlood flood-opacity="0" result="BackgroundImageFix"/>
<feColorMatrix in="SourceAlpha" type="matrix" values="0 0 0 0 0 0 0 0 0 0 0 0 0 0 0 0 0 0 127 0" result="hardAlpha"/>
<feOffset dy="2"/>
<feGaussianBlur stdDeviation="2"/>
<feComposite in2="hardAlpha" operator="out"/>
<feColorMatrix type="matrix" values="0 0 0 0 0 0 0 0 0 0 0 0 0 0 0 0 0 0 0.25 0"/>
<feBlend mode="normal" in2="BackgroundImageFix" result="effect1_dropShadow_31_8968"/>
<feBlend mode="normal" in="SourceGraphic" in2="effect1_dropShadow_31_8968" result="shape"/>
</filter>
<linearGradient id="paint0_linear_31_8968" x1="32" y1="0" x2="0" y2="32" gradientUnits="userSpaceOnUse">
<stop stop-color="#F79740"/>
<stop offset="1" stop-color="#D21E10"/>
</linearGradient>
<linearGradient id="paint1_linear_31_8968" x1="26" y1="8.5" x2="11.6" y2="27.7" gradientUnits="userSpaceOnUse">
<stop stop-color="#F79740"/>
<stop offset="1" stop-color="#D21E10"/>
</linearGradient>
<clipPath id="clip0_31_8968">
<rect width="32" height="32" fill="white"/>
</clipPath>
</defs>
</svg>
