<svg width="32" height="32" viewBox="0 0 32 32" fill="none" xmlns="http://www.w3.org/2000/svg">
<g clip-path="url(#clip0_31_8993)">
<path d="M24 0H8C3.58172 0 0 3.58172 0 8V24C0 28.4183 3.58172 32 8 32H24C28.4183 32 32 28.4183 32 24V8C32 3.58172 28.4183 0 24 0Z" fill="url(#paint0_linear_31_8993)"/>
<g filter="url(#filter0_i_31_8993)">
<path d="M24 2H8C4.68629 2 2 4.68629 2 8V24C2 27.3137 4.68629 30 8 30H24C27.3137 30 30 27.3137 30 24V8C30 4.68629 27.3137 2 24 2Z" fill="black" fill-opacity="0.7"/>
<g filter="url(#filter1_d_31_8993)">
<path fill-rule="evenodd" clip-rule="evenodd" d="M17 6H8C6.89542 6 6 6.89542 6 8V24C6 25.1045 6.89542 26 8 26H24C25.1045 26 26 25.1045 26 24V15L17 6Z" fill="url(#paint1_linear_31_8993)"/>
</g>
<g filter="url(#filter2_d_31_8993)">
<path d="M17 13C17 14.1046 17.8954 15 19 15H25.9999L17 6V13Z" fill="#FAFAFA"/>
</g>
<g filter="url(#filter3_d_31_8993)">
<path d="M25.9999 8C25.9999 6.89542 25.1046 6 24 6H20L25.9999 12V8Z" fill="#97989A"/>
</g>
<mask id="mask0_31_8993" style="mask-type:alpha" maskUnits="userSpaceOnUse" x="11" y="15" width="10" height="10">
<path d="M21 15H11V25H21V15Z" fill="#D9D9D9"/>
</mask>
<g mask="url(#mask0_31_8993)">
<path fill-rule="evenodd" clip-rule="evenodd" d="M15.5833 23.3333H16.4062L16.5521 22.2292C16.7673 22.1736 16.967 22.092 17.1511 21.9844C17.3351 21.8768 17.5035 21.7465 17.6562 21.5938L18.6875 22.0208L19.0938 21.3125L18.1979 20.6354C18.2326 20.5382 18.2569 20.4358 18.2708 20.3281C18.2847 20.2205 18.2917 20.1111 18.2917 20C18.2917 19.8889 18.2847 19.7795 18.2708 19.6719C18.2569 19.5643 18.2326 19.4618 18.1979 19.3646L19.0938 18.6875L18.6875 17.9792L17.6562 18.4167C17.5035 18.257 17.3351 18.1233 17.1511 18.0156C16.967 17.908 16.7673 17.8264 16.5521 17.7708L16.4167 16.6667H15.5938L15.4479 17.7708C15.2326 17.8264 15.033 17.908 14.849 18.0156C14.6649 18.1233 14.4965 18.2535 14.3438 18.4063L13.3125 17.9792L12.9062 18.6875L13.8021 19.3542C13.7674 19.4583 13.743 19.5625 13.7292 19.6667C13.7153 19.7708 13.7083 19.882 13.7083 20C13.7083 20.1111 13.7153 20.2188 13.7292 20.3229C13.743 20.4271 13.7674 20.5313 13.8021 20.6354L12.9062 21.3125L13.3125 22.0208L14.3438 21.5833C14.4965 21.7431 14.6649 21.8768 14.849 21.9844C15.033 22.092 15.2326 22.1736 15.4479 22.2292L15.5833 23.3333ZM17.0521 21.0313C16.7673 21.316 16.4236 21.4583 16.0208 21.4583C15.6111 21.4583 15.2656 21.316 14.9844 21.0313C14.7031 20.7465 14.5625 20.4028 14.5625 20C14.5625 19.5972 14.7031 19.2535 14.9844 18.9688C15.2656 18.684 15.6111 18.5417 16.0208 18.5417C16.4236 18.5417 16.7673 18.684 17.0521 18.9688C17.3368 19.2535 17.4792 19.5972 17.4792 20C17.4792 20.4028 17.3368 20.7465 17.0521 21.0313Z" fill="url(#paint2_linear_31_8993)"/>
<path fill-rule="evenodd" clip-rule="evenodd" d="M14.948 24.0625C15.0244 24.1319 15.1146 24.1667 15.2188 24.1667H16.7813C16.8855 24.1667 16.9758 24.1319 17.0521 24.0625C17.1285 23.993 17.1737 23.9062 17.1876 23.8021L17.3126 22.8333C17.3959 22.7986 17.4792 22.7569 17.5626 22.7083C17.6459 22.6597 17.7258 22.6076 17.8021 22.5521L18.6876 22.9271C18.7848 22.9687 18.8837 22.9722 18.9844 22.9375C19.0851 22.9028 19.1633 22.8403 19.2188 22.75L19.9896 21.4167C20.0452 21.3264 20.0626 21.2292 20.0417 21.125C20.0209 21.0208 19.9688 20.9375 19.8855 20.875L19.1042 20.2812C19.1181 20.2326 19.1251 20.1858 19.1251 20.1406V19.8594C19.1251 19.8142 19.1216 19.7674 19.1146 19.7187L19.8959 19.125C19.9792 19.0625 20.0313 18.9792 20.0521 18.875C20.073 18.7708 20.0556 18.6736 20.0001 18.5833L19.2292 17.2396C19.1737 17.1493 19.0973 17.0885 19.0001 17.0573C18.9028 17.026 18.8056 17.0312 18.7084 17.0729L17.8021 17.4479C17.7258 17.3924 17.6476 17.3403 17.5678 17.2917C17.4879 17.243 17.4028 17.2014 17.3126 17.1667L17.1876 16.1979C17.1737 16.0937 17.1285 16.0069 17.0521 15.9375C16.9758 15.868 16.8855 15.8333 16.7813 15.8333H15.2188C15.1146 15.8333 15.0244 15.868 14.948 15.9375C14.8716 16.0069 14.8264 16.0937 14.8126 16.1979L14.6876 17.1667C14.6042 17.2014 14.5209 17.243 14.4376 17.2917C14.3542 17.3403 14.2744 17.3924 14.198 17.4479L13.2917 17.0729C13.1945 17.0312 13.0973 17.026 13.0001 17.0573C12.9028 17.0885 12.8264 17.1493 12.7709 17.2396L12.0001 18.5833C11.9445 18.6736 11.9271 18.7708 11.948 18.875C11.9688 18.9792 12.0209 19.0625 12.1042 19.125L12.8855 19.7187C12.8785 19.7674 12.8751 19.8142 12.8751 19.8594V20.1406C12.8751 20.1858 12.8785 20.2326 12.8855 20.2812L12.1042 20.875C12.0209 20.9375 11.9688 21.0208 11.948 21.125C11.9271 21.2292 11.9445 21.3264 12.0001 21.4167L12.7709 22.7604C12.8264 22.8507 12.9028 22.9114 13.0001 22.9427C13.0973 22.9739 13.1945 22.9687 13.2917 22.9271L14.198 22.5521C14.2744 22.6076 14.3525 22.6597 14.4324 22.7083C14.5122 22.7569 14.5973 22.7986 14.6876 22.8333L14.8126 23.8021C14.8264 23.9062 14.8716 23.993 14.948 24.0625ZM16.4063 23.3333H15.5834L15.448 22.2292C15.2327 22.1736 15.033 22.092 14.849 21.9844C14.665 21.8767 14.4966 21.743 14.3438 21.5833L13.3126 22.0208L12.9063 21.3125L13.8021 20.6354C13.7674 20.5312 13.7431 20.4271 13.7292 20.3229C13.7153 20.2187 13.7084 20.1111 13.7084 20C13.7084 19.8819 13.7153 19.7708 13.7292 19.6667C13.7431 19.5625 13.7674 19.4583 13.8021 19.3542L12.9063 18.6875L13.3126 17.9792L14.3438 18.4062C14.4966 18.2535 14.665 18.1233 14.849 18.0156C15.033 17.908 15.2327 17.8264 15.448 17.7708L15.5938 16.6667H16.4167L16.5521 17.7708C16.7674 17.8264 16.9671 17.908 17.1511 18.0156C17.3351 18.1233 17.5035 18.2569 17.6563 18.4167L18.6876 17.9792L19.0938 18.6875L18.198 19.3646C18.2327 19.4618 18.257 19.5642 18.2709 19.6719C18.2848 19.7795 18.2917 19.8889 18.2917 20C18.2917 20.1111 18.2848 20.2205 18.2709 20.3281C18.257 20.4358 18.2327 20.5382 18.198 20.6354L19.0938 21.3125L18.6876 22.0208L17.6563 21.5937C17.5035 21.7465 17.3351 21.8767 17.1511 21.9844C16.9671 22.092 16.7674 22.1736 16.5521 22.2292L16.4063 23.3333Z" fill="url(#paint3_linear_31_8993)"/>
</g>
</g>
</g>
<defs>
<filter id="filter0_i_31_8993" x="2" y="2" width="28" height="32" filterUnits="userSpaceOnUse" color-interpolation-filters="sRGB">
<feFlood flood-opacity="0" result="BackgroundImageFix"/>
<feBlend mode="normal" in="SourceGraphic" in2="BackgroundImageFix" result="shape"/>
<feColorMatrix in="SourceAlpha" type="matrix" values="0 0 0 0 0 0 0 0 0 0 0 0 0 0 0 0 0 0 127 0" result="hardAlpha"/>
<feOffset dy="4"/>
<feGaussianBlur stdDeviation="2"/>
<feComposite in2="hardAlpha" operator="arithmetic" k2="-1" k3="1"/>
<feColorMatrix type="matrix" values="0 0 0 0 0 0 0 0 0 0 0 0 0 0 0 0 0 0 0.25 0"/>
<feBlend mode="normal" in2="shape" result="effect1_innerShadow_31_8993"/>
</filter>
<filter id="filter1_d_31_8993" x="2" y="4" width="28" height="28" filterUnits="userSpaceOnUse" color-interpolation-filters="sRGB">
<feFlood flood-opacity="0" result="BackgroundImageFix"/>
<feColorMatrix in="SourceAlpha" type="matrix" values="0 0 0 0 0 0 0 0 0 0 0 0 0 0 0 0 0 0 127 0" result="hardAlpha"/>
<feOffset dy="2"/>
<feGaussianBlur stdDeviation="2"/>
<feComposite in2="hardAlpha" operator="out"/>
<feColorMatrix type="matrix" values="0 0 0 0 0 0 0 0 0 0 0 0 0 0 0 0 0 0 0.25 0"/>
<feBlend mode="normal" in2="BackgroundImageFix" result="effect1_dropShadow_31_8993"/>
<feBlend mode="normal" in="SourceGraphic" in2="effect1_dropShadow_31_8993" result="shape"/>
</filter>
<filter id="filter2_d_31_8993" x="13" y="4" width="17" height="17" filterUnits="userSpaceOnUse" color-interpolation-filters="sRGB">
<feFlood flood-opacity="0" result="BackgroundImageFix"/>
<feColorMatrix in="SourceAlpha" type="matrix" values="0 0 0 0 0 0 0 0 0 0 0 0 0 0 0 0 0 0 127 0" result="hardAlpha"/>
<feOffset dy="2"/>
<feGaussianBlur stdDeviation="2"/>
<feComposite in2="hardAlpha" operator="out"/>
<feColorMatrix type="matrix" values="0 0 0 0 0 0 0 0 0 0 0 0 0 0 0 0 0 0 0.25 0"/>
<feBlend mode="normal" in2="BackgroundImageFix" result="effect1_dropShadow_31_8993"/>
<feBlend mode="normal" in="SourceGraphic" in2="effect1_dropShadow_31_8993" result="shape"/>
</filter>
<filter id="filter3_d_31_8993" x="16" y="4" width="14" height="14" filterUnits="userSpaceOnUse" color-interpolation-filters="sRGB">
<feFlood flood-opacity="0" result="BackgroundImageFix"/>
<feColorMatrix in="SourceAlpha" type="matrix" values="0 0 0 0 0 0 0 0 0 0 0 0 0 0 0 0 0 0 127 0" result="hardAlpha"/>
<feOffset dy="2"/>
<feGaussianBlur stdDeviation="2"/>
<feComposite in2="hardAlpha" operator="out"/>
<feColorMatrix type="matrix" values="0 0 0 0 0 0 0 0 0 0 0 0 0 0 0 0 0 0 0.25 0"/>
<feBlend mode="normal" in2="BackgroundImageFix" result="effect1_dropShadow_31_8993"/>
<feBlend mode="normal" in="SourceGraphic" in2="effect1_dropShadow_31_8993" result="shape"/>
</filter>
<linearGradient id="paint0_linear_31_8993" x1="32" y1="0" x2="0" y2="32" gradientUnits="userSpaceOnUse">
<stop stop-color="#97989A"/>
<stop offset="1" stop-color="#505050"/>
</linearGradient>
<linearGradient id="paint1_linear_31_8993" x1="16" y1="6" x2="16" y2="26" gradientUnits="userSpaceOnUse">
<stop stop-color="#FAFAFA"/>
<stop offset="1" stop-color="#D5D5D5"/>
</linearGradient>
<linearGradient id="paint2_linear_31_8993" x1="16" y1="15.8333" x2="16" y2="24.1667" gradientUnits="userSpaceOnUse">
<stop stop-color="#34C8FF"/>
<stop offset="1" stop-color="#2192E1"/>
</linearGradient>
<linearGradient id="paint3_linear_31_8993" x1="16.0001" y1="15.8333" x2="16.0001" y2="24.1667" gradientUnits="userSpaceOnUse">
<stop stop-color="#34C8FF"/>
<stop offset="1" stop-color="#2192E1"/>
</linearGradient>
<clipPath id="clip0_31_8993">
<rect width="32" height="32" fill="white"/>
</clipPath>
</defs>
</svg>
