<svg width="32" height="32" viewBox="0 0 32 32" fill="none" xmlns="http://www.w3.org/2000/svg">
<g clip-path="url(#clip0_31_9067)">
<path d="M24 0H8C3.58172 0 0 3.58172 0 8V24C0 28.4183 3.58172 32 8 32H24C28.4183 32 32 28.4183 32 24V8C32 3.58172 28.4183 0 24 0Z" fill="url(#paint0_linear_31_9067)"/>
<g filter="url(#filter0_i_31_9067)">
<path d="M24 2H8C4.68629 2 2 4.68629 2 8V24C2 27.3137 4.68629 30 8 30H24C27.3137 30 30 27.3137 30 24V8C30 4.68629 27.3137 2 24 2Z" fill="black" fill-opacity="0.7"/>
<mask id="mask0_31_9067" style="mask-type:luminance" maskUnits="userSpaceOnUse" x="6" y="6" width="20" height="20">
<path d="M26 6H6V26H26V6Z" fill="white"/>
</mask>
<g mask="url(#mask0_31_9067)">
<path d="M7.2034 6.86235L18.27 6.04495C19.6294 5.92835 19.9786 6.00695 20.8334 6.62835L24.366 9.11695C24.9486 9.54495 25.1425 9.66155 25.1425 10.1276V23.7762C25.1425 24.6316 24.832 25.1376 23.7446 25.2148L10.8934 25.9931C10.0774 26.0318 9.6888 25.9151 9.2614 25.3706L6.66 21.9878C6.1934 21.3652 6 20.8992 6 20.3544V8.22235C6 7.52295 6.3106 6.93975 7.2034 6.86235Z" fill="white"/>
<g filter="url(#filter1_d_31_9067)">
<path fill-rule="evenodd" clip-rule="evenodd" d="M18.27 6.04515L7.2034 6.86255C6.3106 6.93975 6 7.52315 6 8.22235V20.3544C6 20.899 6.1934 21.365 6.66 21.9878L9.2614 25.3703C9.6888 25.9151 10.0774 26.0318 10.8934 25.9931L23.7448 25.2151C24.8314 25.1376 25.1427 24.6316 25.1427 23.7764V10.1278C25.1427 9.68575 24.9682 9.55835 24.4542 9.18115L20.8334 6.62835C19.9788 6.00695 19.6294 5.92855 18.27 6.04515ZM11.184 9.90435C10.1346 9.97495 9.8966 9.99095 9.3006 9.50635L7.7854 8.30115C7.6314 8.14515 7.7088 7.95055 8.0968 7.91175L18.7354 7.13435C19.6288 7.05635 20.094 7.36775 20.4434 7.63975L22.268 8.96175C22.346 9.00115 22.54 9.23375 22.3066 9.23375L11.32 9.89515L11.184 9.90435ZM9.9606 23.6597V12.0732C9.9606 11.5672 10.116 11.3338 10.5812 11.2946L23.2 10.5558C23.628 10.5172 23.8214 10.7892 23.8214 11.2944V22.8037C23.8214 23.3097 23.7434 23.7378 23.0448 23.7764L10.9694 24.4763C10.2708 24.5149 9.9606 24.2824 9.9606 23.6597ZM21.8806 12.6944C21.958 13.0444 21.8806 13.3944 21.5306 13.4344L20.9486 13.5498V22.1043C20.4432 22.3763 19.978 22.5317 19.5892 22.5317C18.9678 22.5317 18.8126 22.3371 18.3472 21.7543L14.5412 15.7664V21.5598L15.7452 21.8324C15.7452 21.8324 15.7452 22.5323 14.7738 22.5323L12.0958 22.6877C12.0178 22.5317 12.0958 22.1432 12.3672 22.0658L13.0666 21.8718V14.2118L12.096 14.1332C12.018 13.7832 12.212 13.2778 12.756 13.2386L15.6294 13.0452L19.5894 19.1106V13.7446L18.58 13.6286C18.502 13.2 18.8126 12.8886 19.2006 12.8506L21.8806 12.6944Z" fill="black"/>
</g>
</g>
</g>
</g>
<defs>
<filter id="filter0_i_31_9067" x="2" y="2" width="28" height="32" filterUnits="userSpaceOnUse" color-interpolation-filters="sRGB">
<feFlood flood-opacity="0" result="BackgroundImageFix"/>
<feBlend mode="normal" in="SourceGraphic" in2="BackgroundImageFix" result="shape"/>
<feColorMatrix in="SourceAlpha" type="matrix" values="0 0 0 0 0 0 0 0 0 0 0 0 0 0 0 0 0 0 127 0" result="hardAlpha"/>
<feOffset dy="4"/>
<feGaussianBlur stdDeviation="2"/>
<feComposite in2="hardAlpha" operator="arithmetic" k2="-1" k3="1"/>
<feColorMatrix type="matrix" values="0 0 0 0 0 0 0 0 0 0 0 0 0 0 0 0 0 0 0.25 0"/>
<feBlend mode="normal" in2="shape" result="effect1_innerShadow_31_9067"/>
</filter>
<filter id="filter1_d_31_9067" x="2" y="3.99969" width="27.1426" height="28.0002" filterUnits="userSpaceOnUse" color-interpolation-filters="sRGB">
<feFlood flood-opacity="0" result="BackgroundImageFix"/>
<feColorMatrix in="SourceAlpha" type="matrix" values="0 0 0 0 0 0 0 0 0 0 0 0 0 0 0 0 0 0 127 0" result="hardAlpha"/>
<feOffset dy="2"/>
<feGaussianBlur stdDeviation="2"/>
<feComposite in2="hardAlpha" operator="out"/>
<feColorMatrix type="matrix" values="0 0 0 0 0 0 0 0 0 0 0 0 0 0 0 0 0 0 0.25 0"/>
<feBlend mode="normal" in2="BackgroundImageFix" result="effect1_dropShadow_31_9067"/>
<feBlend mode="normal" in="SourceGraphic" in2="effect1_dropShadow_31_9067" result="shape"/>
</filter>
<linearGradient id="paint0_linear_31_9067" x1="16" y1="0" x2="16" y2="32" gradientUnits="userSpaceOnUse">
<stop stop-color="white"/>
<stop offset="1" stop-color="#DFDFDF"/>
</linearGradient>
<clipPath id="clip0_31_9067">
<rect width="32" height="32" fill="white"/>
</clipPath>
</defs>
</svg>
