<svg width="32" height="32" viewBox="0 0 32 32" fill="none" xmlns="http://www.w3.org/2000/svg">
<g clip-path="url(#clip0_31_9103)">
<path d="M24 0H8C3.58172 0 0 3.58172 0 8V24C0 28.4183 3.58172 32 8 32H24C28.4183 32 32 28.4183 32 24V8C32 3.58172 28.4183 0 24 0Z" fill="url(#paint0_linear_31_9103)"/>
<path d="M24 0H8C3.58172 0 0 3.58172 0 8V24C0 28.4183 3.58172 32 8 32H24C28.4183 32 32 28.4183 32 24V8C32 3.58172 28.4183 0 24 0Z" fill="url(#paint1_linear_31_9103)"/>
<g filter="url(#filter0_i_31_9103)">
<path d="M24 2H8C4.68629 2 2 4.68629 2 8V24C2 27.3137 4.68629 30 8 30H24C27.3137 30 30 27.3137 30 24V8C30 4.68629 27.3137 2 24 2Z" fill="black" fill-opacity="0.7"/>
<mask id="mask0_31_9103" style="mask-type:luminance" maskUnits="userSpaceOnUse" x="4" y="4" width="24" height="24">
<path d="M28 4H4V28H28V4Z" fill="white"/>
</mask>
<g mask="url(#mask0_31_9103)">
<g filter="url(#filter1_d_31_9103)">
<path d="M17.2554 9.00034L16.5236 6.78839L13.1271 8.43017L8.63086 8.82684L9.24801 16.5411L15.6248 15.474L17.2554 9.00034Z" fill="url(#paint2_linear_31_9103)"/>
</g>
<g filter="url(#filter2_d_31_9103)">
<path d="M11.195 10.9694L5.14258 9.37885L7.23435 21.9406L18.5049 21.8309L11.195 10.9694Z" fill="url(#paint3_linear_31_9103)"/>
</g>
<g filter="url(#filter3_d_31_9103)">
<path d="M19.5189 16.3207L16.918 11.8685L19.7393 9.31179L24.2301 7.47394L27.0856 14.5702L22.9732 18.6547L19.5189 16.3207Z" fill="url(#paint4_linear_31_9103)"/>
</g>
<g filter="url(#filter4_d_31_9103)">
<path d="M22.9749 14.4758L21.5464 11.5599L10.3447 13.8106L11.4954 24.5066L18.8904 27.0858L27.0855 22.1805L22.9749 14.4758Z" fill="url(#paint5_linear_31_9103)"/>
</g>
<g filter="url(#filter5_d_31_9103)">
<path d="M17.1823 14.9983L10.3447 13.8106L18.6909 6.44553L24.2299 7.47395L20.7971 10.8987L21.5904 11.604L17.1823 14.9983Z" fill="url(#paint6_linear_31_9103)"/>
</g>
<g filter="url(#filter6_d_31_9103)">
<path d="M16.5234 6.78838L8.8857 5.14285L5.14258 9.37885L11.2058 10.9908L16.5234 6.78838Z" fill="url(#paint7_linear_31_9103)"/>
</g>
<g filter="url(#filter7_d_31_9103)">
<path d="M22.9711 9.25714H9.25684V22.9714H22.9711V9.25714Z" fill="black"/>
</g>
<path d="M16.1136 20.4H10.9707V21.2571H16.1136V20.4Z" fill="white"/>
<path d="M15.4609 15.4332L16.1318 14.6302C16.5957 15.0129 17.0826 15.2563 17.6712 15.2563C18.1363 15.2563 18.416 15.0723 18.416 14.7695V14.7549C18.4159 14.4679 18.2391 14.3201 17.3768 14.0997C16.3376 13.8345 15.6667 13.5462 15.6666 12.5228V12.5071C15.6665 11.5721 16.4186 10.952 17.4722 10.952C18.1679 10.9408 18.8456 11.173 19.3883 11.6084L18.7985 12.4635C18.3419 12.1462 17.8926 11.9548 17.4578 11.9548C17.023 11.9548 16.7941 12.1534 16.7941 12.4041V12.4187C16.7942 12.7578 17.0158 12.8692 17.9072 13.0969C18.9536 13.3694 19.5434 13.7461 19.5435 14.6447V14.6593C19.5436 15.6839 18.7625 16.2579 17.6494 16.2579C16.8434 16.2609 16.0645 15.9674 15.4609 15.4332Z" fill="white"/>
<path d="M10.9863 11.0304H13.085C14.3101 11.0304 15.0512 11.7568 15.0512 12.8058V12.8205C15.0512 14.0091 14.1267 14.6255 12.9747 14.6255H12.1162V16.1663H10.9863V11.0304ZM13.0114 13.6203C13.5765 13.6203 13.9066 13.2829 13.9066 12.8425V12.8279C13.9066 12.3217 13.5545 12.0503 12.9894 12.0503H12.1162V13.6203H13.0114Z" fill="white"/>
</g>
</g>
</g>
<defs>
<filter id="filter0_i_31_9103" x="2" y="2" width="28" height="32" filterUnits="userSpaceOnUse" color-interpolation-filters="sRGB">
<feFlood flood-opacity="0" result="BackgroundImageFix"/>
<feBlend mode="normal" in="SourceGraphic" in2="BackgroundImageFix" result="shape"/>
<feColorMatrix in="SourceAlpha" type="matrix" values="0 0 0 0 0 0 0 0 0 0 0 0 0 0 0 0 0 0 127 0" result="hardAlpha"/>
<feOffset dy="4"/>
<feGaussianBlur stdDeviation="2"/>
<feComposite in2="hardAlpha" operator="arithmetic" k2="-1" k3="1"/>
<feColorMatrix type="matrix" values="0 0 0 0 0 0 0 0 0 0 0 0 0 0 0 0 0 0 0.25 0"/>
<feBlend mode="normal" in2="shape" result="effect1_innerShadow_31_9103"/>
</filter>
<filter id="filter1_d_31_9103" x="4.63086" y="4.78839" width="16.625" height="17.7527" filterUnits="userSpaceOnUse" color-interpolation-filters="sRGB">
<feFlood flood-opacity="0" result="BackgroundImageFix"/>
<feColorMatrix in="SourceAlpha" type="matrix" values="0 0 0 0 0 0 0 0 0 0 0 0 0 0 0 0 0 0 127 0" result="hardAlpha"/>
<feOffset dy="2"/>
<feGaussianBlur stdDeviation="2"/>
<feComposite in2="hardAlpha" operator="out"/>
<feColorMatrix type="matrix" values="0 0 0 0 0 0 0 0 0 0 0 0 0 0 0 0 0 0 0.25 0"/>
<feBlend mode="normal" in2="BackgroundImageFix" result="effect1_dropShadow_31_9103"/>
<feBlend mode="normal" in="SourceGraphic" in2="effect1_dropShadow_31_9103" result="shape"/>
</filter>
<filter id="filter2_d_31_9103" x="1.14258" y="7.37885" width="21.3623" height="20.5618" filterUnits="userSpaceOnUse" color-interpolation-filters="sRGB">
<feFlood flood-opacity="0" result="BackgroundImageFix"/>
<feColorMatrix in="SourceAlpha" type="matrix" values="0 0 0 0 0 0 0 0 0 0 0 0 0 0 0 0 0 0 127 0" result="hardAlpha"/>
<feOffset dy="2"/>
<feGaussianBlur stdDeviation="2"/>
<feComposite in2="hardAlpha" operator="out"/>
<feColorMatrix type="matrix" values="0 0 0 0 0 0 0 0 0 0 0 0 0 0 0 0 0 0 0.25 0"/>
<feBlend mode="normal" in2="BackgroundImageFix" result="effect1_dropShadow_31_9103"/>
<feBlend mode="normal" in="SourceGraphic" in2="effect1_dropShadow_31_9103" result="shape"/>
</filter>
<filter id="filter3_d_31_9103" x="12.918" y="5.47394" width="18.168" height="19.1807" filterUnits="userSpaceOnUse" color-interpolation-filters="sRGB">
<feFlood flood-opacity="0" result="BackgroundImageFix"/>
<feColorMatrix in="SourceAlpha" type="matrix" values="0 0 0 0 0 0 0 0 0 0 0 0 0 0 0 0 0 0 127 0" result="hardAlpha"/>
<feOffset dy="2"/>
<feGaussianBlur stdDeviation="2"/>
<feComposite in2="hardAlpha" operator="out"/>
<feColorMatrix type="matrix" values="0 0 0 0 0 0 0 0 0 0 0 0 0 0 0 0 0 0 0.25 0"/>
<feBlend mode="normal" in2="BackgroundImageFix" result="effect1_dropShadow_31_9103"/>
<feBlend mode="normal" in="SourceGraphic" in2="effect1_dropShadow_31_9103" result="shape"/>
</filter>
<filter id="filter4_d_31_9103" x="6.34473" y="9.55994" width="24.7412" height="23.5258" filterUnits="userSpaceOnUse" color-interpolation-filters="sRGB">
<feFlood flood-opacity="0" result="BackgroundImageFix"/>
<feColorMatrix in="SourceAlpha" type="matrix" values="0 0 0 0 0 0 0 0 0 0 0 0 0 0 0 0 0 0 127 0" result="hardAlpha"/>
<feOffset dy="2"/>
<feGaussianBlur stdDeviation="2"/>
<feComposite in2="hardAlpha" operator="out"/>
<feColorMatrix type="matrix" values="0 0 0 0 0 0 0 0 0 0 0 0 0 0 0 0 0 0 0.25 0"/>
<feBlend mode="normal" in2="BackgroundImageFix" result="effect1_dropShadow_31_9103"/>
<feBlend mode="normal" in="SourceGraphic" in2="effect1_dropShadow_31_9103" result="shape"/>
</filter>
<filter id="filter5_d_31_9103" x="6.34473" y="4.44553" width="21.8848" height="16.5528" filterUnits="userSpaceOnUse" color-interpolation-filters="sRGB">
<feFlood flood-opacity="0" result="BackgroundImageFix"/>
<feColorMatrix in="SourceAlpha" type="matrix" values="0 0 0 0 0 0 0 0 0 0 0 0 0 0 0 0 0 0 127 0" result="hardAlpha"/>
<feOffset dy="2"/>
<feGaussianBlur stdDeviation="2"/>
<feComposite in2="hardAlpha" operator="out"/>
<feColorMatrix type="matrix" values="0 0 0 0 0 0 0 0 0 0 0 0 0 0 0 0 0 0 0.25 0"/>
<feBlend mode="normal" in2="BackgroundImageFix" result="effect1_dropShadow_31_9103"/>
<feBlend mode="normal" in="SourceGraphic" in2="effect1_dropShadow_31_9103" result="shape"/>
</filter>
<filter id="filter6_d_31_9103" x="1.14258" y="3.14285" width="19.3809" height="13.8479" filterUnits="userSpaceOnUse" color-interpolation-filters="sRGB">
<feFlood flood-opacity="0" result="BackgroundImageFix"/>
<feColorMatrix in="SourceAlpha" type="matrix" values="0 0 0 0 0 0 0 0 0 0 0 0 0 0 0 0 0 0 127 0" result="hardAlpha"/>
<feOffset dy="2"/>
<feGaussianBlur stdDeviation="2"/>
<feComposite in2="hardAlpha" operator="out"/>
<feColorMatrix type="matrix" values="0 0 0 0 0 0 0 0 0 0 0 0 0 0 0 0 0 0 0.25 0"/>
<feBlend mode="normal" in2="BackgroundImageFix" result="effect1_dropShadow_31_9103"/>
<feBlend mode="normal" in="SourceGraphic" in2="effect1_dropShadow_31_9103" result="shape"/>
</filter>
<filter id="filter7_d_31_9103" x="5.25684" y="7.25714" width="21.7139" height="21.7143" filterUnits="userSpaceOnUse" color-interpolation-filters="sRGB">
<feFlood flood-opacity="0" result="BackgroundImageFix"/>
<feColorMatrix in="SourceAlpha" type="matrix" values="0 0 0 0 0 0 0 0 0 0 0 0 0 0 0 0 0 0 127 0" result="hardAlpha"/>
<feOffset dy="2"/>
<feGaussianBlur stdDeviation="2"/>
<feComposite in2="hardAlpha" operator="out"/>
<feColorMatrix type="matrix" values="0 0 0 0 0 0 0 0 0 0 0 0 0 0 0 0 0 0 0.25 0"/>
<feBlend mode="normal" in2="BackgroundImageFix" result="effect1_dropShadow_31_9103"/>
<feBlend mode="normal" in="SourceGraphic" in2="effect1_dropShadow_31_9103" result="shape"/>
</filter>
<linearGradient id="paint0_linear_31_9103" x1="16" y1="0" x2="16" y2="32" gradientUnits="userSpaceOnUse">
<stop stop-color="#3BEA62"/>
<stop offset="0.510417" stop-color="#087CFA"/>
<stop offset="1" stop-color="#B74AF7"/>
</linearGradient>
<linearGradient id="paint1_linear_31_9103" x1="5.4297" y1="30.7123" x2="24.8505" y2="6.59633" gradientUnits="userSpaceOnUse">
<stop offset="0.01613" stop-color="#6B57FF"/>
<stop offset="0.42357" stop-color="#B74AF7"/>
<stop offset="0.74587" stop-color="#FF318C"/>
</linearGradient>
<linearGradient id="paint2_linear_31_9103" x1="9.18848" y1="17.7952" x2="15.3845" y2="5.89599" gradientUnits="userSpaceOnUse">
<stop stop-color="#AF1DF5"/>
<stop offset="0.2116" stop-color="#BC20E4"/>
<stop offset="0.62822" stop-color="#DD29B8"/>
<stop offset="1" stop-color="#FF318C"/>
</linearGradient>
<linearGradient id="paint3_linear_31_9103" x1="7.40988" y1="21.4351" x2="14.9203" y2="11.5146" gradientUnits="userSpaceOnUse">
<stop offset="0.01613" stop-color="#6B57FF"/>
<stop offset="0.42357" stop-color="#B74AF7"/>
<stop offset="0.74587" stop-color="#FF318C"/>
</linearGradient>
<linearGradient id="paint4_linear_31_9103" x1="24.4025" y1="18.7574" x2="20.2408" y2="8.88031" gradientUnits="userSpaceOnUse">
<stop stop-color="#293896"/>
<stop offset="0.07538" stop-color="#3B3AA2"/>
<stop offset="0.2871" stop-color="#6740C0"/>
<stop offset="0.49127" stop-color="#8A44D8"/>
<stop offset="0.68315" stop-color="#A347E9"/>
<stop offset="0.85788" stop-color="#B249F3"/>
<stop offset="1" stop-color="#B74AF7"/>
</linearGradient>
<linearGradient id="paint5_linear_31_9103" x1="20.9918" y1="24.5864" x2="14.073" y2="14.4452" gradientUnits="userSpaceOnUse">
<stop offset="0.01613" stop-color="#6B57FF"/>
<stop offset="0.78291" stop-color="#B74AF7"/>
</linearGradient>
<linearGradient id="paint6_linear_31_9103" x1="18.8947" y1="19.143" x2="16.6025" y2="7.0205" gradientUnits="userSpaceOnUse">
<stop offset="0.01613" stop-color="#6B57FF"/>
<stop offset="0.63699" stop-color="#B74AF7"/>
</linearGradient>
<linearGradient id="paint7_linear_31_9103" x1="7.63913" y1="13.8798" x2="11.2097" y2="7.39985" gradientUnits="userSpaceOnUse">
<stop stop-color="#AF1DF5"/>
<stop offset="0.2116" stop-color="#BC20E4"/>
<stop offset="0.62822" stop-color="#DD29B8"/>
<stop offset="1" stop-color="#FF318C"/>
</linearGradient>
<clipPath id="clip0_31_9103">
<rect width="32" height="32" fill="white"/>
</clipPath>
</defs>
</svg>
