<svg width="32" height="32" viewBox="0 0 32 32" fill="none" xmlns="http://www.w3.org/2000/svg">
<g clip-path="url(#clip0_31_9135)">
<path d="M24 0H8C3.58172 0 0 3.58172 0 8V24C0 28.4183 3.58172 32 8 32H24C28.4183 32 32 28.4183 32 24V8C32 3.58172 28.4183 0 24 0Z" fill="url(#paint0_linear_31_9135)"/>
<path d="M24 0H8C3.58172 0 0 3.58172 0 8V24C0 28.4183 3.58172 32 8 32H24C28.4183 32 32 28.4183 32 24V8C32 3.58172 28.4183 0 24 0Z" fill="url(#paint1_linear_31_9135)"/>
<g filter="url(#filter0_i_31_9135)">
<path d="M24 2H8C4.68629 2 2 4.68629 2 8V24C2 27.3137 4.68629 30 8 30H24C27.3137 30 30 27.3137 30 24V8C30 4.68629 27.3137 2 24 2Z" fill="black" fill-opacity="0.7"/>
<mask id="mask0_31_9135" style="mask-type:luminance" maskUnits="userSpaceOnUse" x="4" y="4" width="24" height="24">
<path d="M28 4H4V28H28V4Z" fill="white"/>
</mask>
<g mask="url(#mask0_31_9135)">
<g filter="url(#filter1_d_31_9135)">
<path d="M26.738 21.6576L27.086 12.1362L21.0366 10.7696L15.8931 14.2121L18.2837 21.2823L26.7385 21.6576H26.738Z" fill="url(#paint2_linear_31_9135)"/>
</g>
<g filter="url(#filter2_d_31_9135)">
<path d="M25.3982 16.5591L27.086 12.1362L21.1342 9.51863L15.8931 14.2124L25.3982 16.5591Z" fill="url(#paint3_linear_31_9135)"/>
</g>
<g filter="url(#filter3_d_31_9135)">
<path d="M19.1808 26.8573L26.738 21.6576L8.56272 13.5856L5.14307 23.3173L19.1808 26.8573Z" fill="url(#paint4_linear_31_9135)"/>
</g>
<g filter="url(#filter4_d_31_9135)">
<path d="M5.14307 13.3024L17.2381 22.5198L25.3982 16.5591L16.1261 6.27636L8.05712 4.91431L5.14307 13.3024Z" fill="url(#paint5_linear_31_9135)"/>
</g>
<g filter="url(#filter5_d_31_9135)">
<path d="M22.9716 9.02858H9.25732V22.7429H22.9716V9.02858Z" fill="black"/>
</g>
<path d="M10.8413 10.7232H12.9561C14.1908 10.7232 14.9376 11.4553 14.9376 12.5127V12.5273C14.9376 13.725 14.0059 14.3465 12.845 14.3465H11.9798V15.8992H10.8413V10.7232ZM12.882 13.3335C13.4512 13.3335 13.7842 12.9932 13.7842 12.5495V12.5349C13.7842 12.0245 13.4292 11.7509 12.8598 11.7509H11.9798V13.3335H12.882Z" fill="white"/>
<path d="M14.3008 15.1966L15.0181 14.3982C15.3138 14.7234 15.6021 14.9157 15.9643 14.9157C16.3931 14.9157 16.6592 14.6569 16.6592 14.0581V10.7232H17.8277V14.1097C17.8277 14.7234 17.6503 15.1817 17.3397 15.4926C17.1584 15.6579 16.9462 15.7855 16.7151 15.868C16.4841 15.9505 16.239 15.9862 15.9941 15.973C15.6713 15.9814 15.3509 15.9157 15.0574 15.7811C14.7639 15.6466 14.5051 15.4466 14.3008 15.1966Z" fill="white"/>
<path d="M16.1146 20.1714H10.9717V21.0286H16.1146V20.1714Z" fill="white"/>
</g>
</g>
</g>
<defs>
<filter id="filter0_i_31_9135" x="2" y="2" width="28" height="32" filterUnits="userSpaceOnUse" color-interpolation-filters="sRGB">
<feFlood flood-opacity="0" result="BackgroundImageFix"/>
<feBlend mode="normal" in="SourceGraphic" in2="BackgroundImageFix" result="shape"/>
<feColorMatrix in="SourceAlpha" type="matrix" values="0 0 0 0 0 0 0 0 0 0 0 0 0 0 0 0 0 0 127 0" result="hardAlpha"/>
<feOffset dy="4"/>
<feGaussianBlur stdDeviation="2"/>
<feComposite in2="hardAlpha" operator="arithmetic" k2="-1" k3="1"/>
<feColorMatrix type="matrix" values="0 0 0 0 0 0 0 0 0 0 0 0 0 0 0 0 0 0 0.25 0"/>
<feBlend mode="normal" in2="shape" result="effect1_innerShadow_31_9135"/>
</filter>
<filter id="filter1_d_31_9135" x="11.8931" y="8.76961" width="19.1929" height="18.888" filterUnits="userSpaceOnUse" color-interpolation-filters="sRGB">
<feFlood flood-opacity="0" result="BackgroundImageFix"/>
<feColorMatrix in="SourceAlpha" type="matrix" values="0 0 0 0 0 0 0 0 0 0 0 0 0 0 0 0 0 0 127 0" result="hardAlpha"/>
<feOffset dy="2"/>
<feGaussianBlur stdDeviation="2"/>
<feComposite in2="hardAlpha" operator="out"/>
<feColorMatrix type="matrix" values="0 0 0 0 0 0 0 0 0 0 0 0 0 0 0 0 0 0 0.25 0"/>
<feBlend mode="normal" in2="BackgroundImageFix" result="effect1_dropShadow_31_9135"/>
<feBlend mode="normal" in="SourceGraphic" in2="effect1_dropShadow_31_9135" result="shape"/>
</filter>
<filter id="filter2_d_31_9135" x="11.8931" y="7.51863" width="19.1929" height="15.0405" filterUnits="userSpaceOnUse" color-interpolation-filters="sRGB">
<feFlood flood-opacity="0" result="BackgroundImageFix"/>
<feColorMatrix in="SourceAlpha" type="matrix" values="0 0 0 0 0 0 0 0 0 0 0 0 0 0 0 0 0 0 127 0" result="hardAlpha"/>
<feOffset dy="2"/>
<feGaussianBlur stdDeviation="2"/>
<feComposite in2="hardAlpha" operator="out"/>
<feColorMatrix type="matrix" values="0 0 0 0 0 0 0 0 0 0 0 0 0 0 0 0 0 0 0.25 0"/>
<feBlend mode="normal" in2="BackgroundImageFix" result="effect1_dropShadow_31_9135"/>
<feBlend mode="normal" in="SourceGraphic" in2="effect1_dropShadow_31_9135" result="shape"/>
</filter>
<filter id="filter3_d_31_9135" x="1.14307" y="11.5856" width="29.5947" height="21.2717" filterUnits="userSpaceOnUse" color-interpolation-filters="sRGB">
<feFlood flood-opacity="0" result="BackgroundImageFix"/>
<feColorMatrix in="SourceAlpha" type="matrix" values="0 0 0 0 0 0 0 0 0 0 0 0 0 0 0 0 0 0 127 0" result="hardAlpha"/>
<feOffset dy="2"/>
<feGaussianBlur stdDeviation="2"/>
<feComposite in2="hardAlpha" operator="out"/>
<feColorMatrix type="matrix" values="0 0 0 0 0 0 0 0 0 0 0 0 0 0 0 0 0 0 0.25 0"/>
<feBlend mode="normal" in2="BackgroundImageFix" result="effect1_dropShadow_31_9135"/>
<feBlend mode="normal" in="SourceGraphic" in2="effect1_dropShadow_31_9135" result="shape"/>
</filter>
<filter id="filter4_d_31_9135" x="1.14307" y="2.91431" width="28.2554" height="25.6055" filterUnits="userSpaceOnUse" color-interpolation-filters="sRGB">
<feFlood flood-opacity="0" result="BackgroundImageFix"/>
<feColorMatrix in="SourceAlpha" type="matrix" values="0 0 0 0 0 0 0 0 0 0 0 0 0 0 0 0 0 0 127 0" result="hardAlpha"/>
<feOffset dy="2"/>
<feGaussianBlur stdDeviation="2"/>
<feComposite in2="hardAlpha" operator="out"/>
<feColorMatrix type="matrix" values="0 0 0 0 0 0 0 0 0 0 0 0 0 0 0 0 0 0 0.25 0"/>
<feBlend mode="normal" in2="BackgroundImageFix" result="effect1_dropShadow_31_9135"/>
<feBlend mode="normal" in="SourceGraphic" in2="effect1_dropShadow_31_9135" result="shape"/>
</filter>
<filter id="filter5_d_31_9135" x="5.25732" y="7.02858" width="21.7144" height="21.7143" filterUnits="userSpaceOnUse" color-interpolation-filters="sRGB">
<feFlood flood-opacity="0" result="BackgroundImageFix"/>
<feColorMatrix in="SourceAlpha" type="matrix" values="0 0 0 0 0 0 0 0 0 0 0 0 0 0 0 0 0 0 127 0" result="hardAlpha"/>
<feOffset dy="2"/>
<feGaussianBlur stdDeviation="2"/>
<feComposite in2="hardAlpha" operator="out"/>
<feColorMatrix type="matrix" values="0 0 0 0 0 0 0 0 0 0 0 0 0 0 0 0 0 0 0.25 0"/>
<feBlend mode="normal" in2="BackgroundImageFix" result="effect1_dropShadow_31_9135"/>
<feBlend mode="normal" in="SourceGraphic" in2="effect1_dropShadow_31_9135" result="shape"/>
</filter>
<linearGradient id="paint0_linear_31_9135" x1="16" y1="0" x2="16" y2="32" gradientUnits="userSpaceOnUse">
<stop stop-color="#3BEA62"/>
<stop offset="0.510417" stop-color="#087CFA"/>
<stop offset="1" stop-color="#B74AF7"/>
</linearGradient>
<linearGradient id="paint1_linear_31_9135" x1="9.8153" y1="27.8275" x2="23.0167" y2="7.56148" gradientUnits="userSpaceOnUse">
<stop stop-color="#6B57FF"/>
<stop offset="0.461429" stop-color="#FF318C"/>
<stop offset="1" stop-color="#FDB60D"/>
</linearGradient>
<linearGradient id="paint2_linear_31_9135" x1="23.8825" y1="20.1696" x2="20.7033" y2="10.9856" gradientUnits="userSpaceOnUse">
<stop offset="0.001" stop-color="#FF318C"/>
<stop offset="1" stop-color="#FC801D"/>
</linearGradient>
<linearGradient id="paint3_linear_31_9135" x1="24.7095" y1="10.2245" x2="21.9198" y2="13.7673" gradientUnits="userSpaceOnUse">
<stop stop-color="#FF318C"/>
<stop offset="0.781" stop-color="#FC801D"/>
</linearGradient>
<linearGradient id="paint4_linear_31_9135" x1="23.5547" y1="24.4777" x2="7.54467" y2="18.7008" gradientUnits="userSpaceOnUse">
<stop offset="0.017" stop-color="#FF318C"/>
<stop offset="0.811" stop-color="#6B57FF"/>
</linearGradient>
<linearGradient id="paint5_linear_31_9135" x1="11.3559" y1="20.2242" x2="18.1648" y2="8.19841" gradientUnits="userSpaceOnUse">
<stop offset="0.33" stop-color="#FF318C"/>
<stop offset="0.942" stop-color="#FDB60D"/>
</linearGradient>
<clipPath id="clip0_31_9135">
<rect width="32" height="32" fill="white"/>
</clipPath>
</defs>
</svg>
