<svg width="32" height="32" viewBox="0 0 32 32" fill="none" xmlns="http://www.w3.org/2000/svg">
<g clip-path="url(#clip0_31_9180)">
<path d="M24 0H8C3.58172 0 0 3.58172 0 8V24C0 28.4183 3.58172 32 8 32H24C28.4183 32 32 28.4183 32 24V8C32 3.58172 28.4183 0 24 0Z" fill="url(#paint0_linear_31_9180)"/>
<path d="M24 0H8C3.58172 0 0 3.58172 0 8V24C0 28.4183 3.58172 32 8 32H24C28.4183 32 32 28.4183 32 24V8C32 3.58172 28.4183 0 24 0Z" fill="url(#paint1_linear_31_9180)"/>
<g filter="url(#filter0_i_31_9180)">
<path d="M24 2H8C4.68629 2 2 4.68629 2 8V24C2 27.3137 4.68629 30 8 30H24C27.3137 30 30 27.3137 30 24V8C30 4.68629 27.3137 2 24 2Z" fill="black" fill-opacity="0.7"/>
<mask id="mask0_31_9180" style="mask-type:luminance" maskUnits="userSpaceOnUse" x="4" y="4" width="24" height="24">
<path d="M28 4H4V28H28V4Z" fill="white"/>
</mask>
<g mask="url(#mask0_31_9180)">
<g filter="url(#filter1_d_31_9180)">
<path d="M20.1248 14.4493L8.5504 16.8756C8.24822 16.9222 7.94947 16.9886 7.65602 17.0743C6.7365 17.3463 5.9266 17.9022 5.34227 18.6625C1.88664 23.1512 5.59352 29.018 10.8922 27.85L23.5898 26.0105C24.9293 25.7117 26.1007 24.9053 26.858 23.7606C30.1317 18.8725 25.8922 12.7581 20.1248 14.4493Z" fill="url(#paint2_linear_31_9180)"/>
</g>
<g filter="url(#filter2_d_31_9180)">
<path d="M13.7631 5.52812C12.3362 4.21562 10.24 3.60624 7.88684 4.29437C6.90949 4.58354 6.04852 5.17417 5.42684 5.98187C3.06247 9.06249 3.85372 12.7412 6.22559 14.6406L18.8575 25.1875C19.5491 25.6387 20.3257 25.9437 21.1395 26.084C21.9533 26.2242 22.7872 26.1967 23.59 26.003C24.9295 25.7042 26.1009 24.8978 26.8582 23.7531C28.8082 20.8525 28.0937 17.5 25.9769 15.625L13.7631 5.52812Z" fill="url(#paint3_linear_31_9180)"/>
</g>
<g filter="url(#filter3_d_31_9180)">
<path d="M9.50082 4.02812C8.95512 4.0625 8.41427 4.1517 7.88644 4.29437C6.90909 4.58357 6.04809 5.17417 5.42644 5.98187C1.74956 10.75 5.68707 16.9937 11.3271 15.7506L26.4638 10.0413C26.9031 9.94405 27.2873 9.68062 27.5363 9.30625C28.4738 7.8925 27.5158 6.16937 25.9763 6.16L10.1289 4C9.90394 4 9.69394 4.01312 9.50082 4.02812Z" fill="url(#paint4_linear_31_9180)"/>
</g>
<g filter="url(#filter4_d_31_9180)">
<path d="M8.5 8.5H23.5V23.5H8.5V8.5Z" fill="black"/>
</g>
<path d="M10.375 20.6875H16V21.625H10.375V20.6875Z" fill="white"/>
<path d="M15.25 16.1519L14.6313 15.5894C14.1336 15.9068 13.5547 16.0735 12.9644 16.0694C11.2337 16.0788 10 14.7888 10 13.1875C10 11.5919 11.2581 10.285 13 10.285C14.7419 10.285 15.9738 11.575 15.9738 13.1706V13.1875C15.9719 13.7618 15.7989 14.3226 15.4769 14.7981L16.0544 15.2875L15.25 16.1519ZM13.7181 14.7888L12.8125 14.0106L13.5981 13.1294L14.5188 13.9638C14.62 13.7177 14.6698 13.4535 14.665 13.1875C14.6728 12.9591 14.6346 12.7314 14.5527 12.518C14.4708 12.3046 14.3468 12.1099 14.1882 11.9453C14.0296 11.7807 13.8395 11.6497 13.6293 11.56C13.4191 11.4703 13.1929 11.4238 12.9644 11.4231C11.9706 11.4231 11.2769 12.2088 11.2769 13.1706V13.1875C11.2691 13.4157 11.3072 13.6431 11.389 13.8563C11.4708 14.0695 11.5947 14.264 11.7531 14.4284C11.9116 14.5928 12.1014 14.7237 12.3114 14.8133C12.5214 14.9029 12.7473 14.9494 12.9756 14.95C13.2322 14.9539 13.4863 14.8988 13.7181 14.7888Z" fill="white"/>
<path d="M16.9131 10.375H19.0281C20.7906 10.375 22.0093 11.5862 22.0093 13.165V13.1875C22.0093 14.7663 20.7906 16 19.0281 16H16.9131V10.375ZM18.1468 11.5V14.875H19.0281C20.0368 14.875 20.7156 14.1925 20.7156 13.1987V13.1875C20.7263 12.963 20.69 12.7388 20.609 12.5293C20.5279 12.3197 20.404 12.1294 20.2451 11.9705C20.0862 11.8116 19.8959 11.6876 19.6863 11.6066C19.4767 11.5256 19.2525 11.4893 19.0281 11.5H18.1468Z" fill="white"/>
</g>
</g>
</g>
<defs>
<filter id="filter0_i_31_9180" x="2" y="2" width="28" height="32" filterUnits="userSpaceOnUse" color-interpolation-filters="sRGB">
<feFlood flood-opacity="0" result="BackgroundImageFix"/>
<feBlend mode="normal" in="SourceGraphic" in2="BackgroundImageFix" result="shape"/>
<feColorMatrix in="SourceAlpha" type="matrix" values="0 0 0 0 0 0 0 0 0 0 0 0 0 0 0 0 0 0 127 0" result="hardAlpha"/>
<feOffset dy="4"/>
<feGaussianBlur stdDeviation="2"/>
<feComposite in2="hardAlpha" operator="arithmetic" k2="-1" k3="1"/>
<feColorMatrix type="matrix" values="0 0 0 0 0 0 0 0 0 0 0 0 0 0 0 0 0 0 0.25 0"/>
<feBlend mode="normal" in2="shape" result="effect1_innerShadow_31_9180"/>
</filter>
<filter id="filter1_d_31_9180" x="0" y="12.1618" width="32" height="21.8389" filterUnits="userSpaceOnUse" color-interpolation-filters="sRGB">
<feFlood flood-opacity="0" result="BackgroundImageFix"/>
<feColorMatrix in="SourceAlpha" type="matrix" values="0 0 0 0 0 0 0 0 0 0 0 0 0 0 0 0 0 0 127 0" result="hardAlpha"/>
<feOffset dy="2"/>
<feGaussianBlur stdDeviation="2"/>
<feComposite in2="hardAlpha" operator="out"/>
<feColorMatrix type="matrix" values="0 0 0 0 0 0 0 0 0 0 0 0 0 0 0 0 0 0 0.25 0"/>
<feBlend mode="normal" in2="BackgroundImageFix" result="effect1_dropShadow_31_9180"/>
<feBlend mode="normal" in="SourceGraphic" in2="effect1_dropShadow_31_9180" result="shape"/>
</filter>
<filter id="filter2_d_31_9180" x="0.000976562" y="2.00842" width="31.999" height="30.1636" filterUnits="userSpaceOnUse" color-interpolation-filters="sRGB">
<feFlood flood-opacity="0" result="BackgroundImageFix"/>
<feColorMatrix in="SourceAlpha" type="matrix" values="0 0 0 0 0 0 0 0 0 0 0 0 0 0 0 0 0 0 127 0" result="hardAlpha"/>
<feOffset dy="2"/>
<feGaussianBlur stdDeviation="2"/>
<feComposite in2="hardAlpha" operator="out"/>
<feColorMatrix type="matrix" values="0 0 0 0 0 0 0 0 0 0 0 0 0 0 0 0 0 0 0.25 0"/>
<feBlend mode="normal" in2="BackgroundImageFix" result="effect1_dropShadow_31_9180"/>
<feBlend mode="normal" in="SourceGraphic" in2="effect1_dropShadow_31_9180" result="shape"/>
</filter>
<filter id="filter3_d_31_9180" x="-0.00292969" y="2" width="31.9102" height="19.911" filterUnits="userSpaceOnUse" color-interpolation-filters="sRGB">
<feFlood flood-opacity="0" result="BackgroundImageFix"/>
<feColorMatrix in="SourceAlpha" type="matrix" values="0 0 0 0 0 0 0 0 0 0 0 0 0 0 0 0 0 0 127 0" result="hardAlpha"/>
<feOffset dy="2"/>
<feGaussianBlur stdDeviation="2"/>
<feComposite in2="hardAlpha" operator="out"/>
<feColorMatrix type="matrix" values="0 0 0 0 0 0 0 0 0 0 0 0 0 0 0 0 0 0 0.25 0"/>
<feBlend mode="normal" in2="BackgroundImageFix" result="effect1_dropShadow_31_9180"/>
<feBlend mode="normal" in="SourceGraphic" in2="effect1_dropShadow_31_9180" result="shape"/>
</filter>
<filter id="filter4_d_31_9180" x="4.5" y="6.5" width="23" height="23" filterUnits="userSpaceOnUse" color-interpolation-filters="sRGB">
<feFlood flood-opacity="0" result="BackgroundImageFix"/>
<feColorMatrix in="SourceAlpha" type="matrix" values="0 0 0 0 0 0 0 0 0 0 0 0 0 0 0 0 0 0 127 0" result="hardAlpha"/>
<feOffset dy="2"/>
<feGaussianBlur stdDeviation="2"/>
<feComposite in2="hardAlpha" operator="out"/>
<feColorMatrix type="matrix" values="0 0 0 0 0 0 0 0 0 0 0 0 0 0 0 0 0 0 0.25 0"/>
<feBlend mode="normal" in2="BackgroundImageFix" result="effect1_dropShadow_31_9180"/>
<feBlend mode="normal" in="SourceGraphic" in2="effect1_dropShadow_31_9180" result="shape"/>
</filter>
<linearGradient id="paint0_linear_31_9180" x1="16" y1="0" x2="16" y2="32" gradientUnits="userSpaceOnUse">
<stop stop-color="#3BEA62"/>
<stop offset="0.510417" stop-color="#087CFA"/>
<stop offset="1" stop-color="#B74AF7"/>
</linearGradient>
<linearGradient id="paint1_linear_31_9180" x1="9.8153" y1="27.8275" x2="23.0167" y2="7.56148" gradientUnits="userSpaceOnUse">
<stop stop-color="#6B57FF"/>
<stop offset="0.461429" stop-color="#FF318C"/>
<stop offset="1" stop-color="#FDB60D"/>
</linearGradient>
<linearGradient id="paint2_linear_31_9180" x1="3.5104" y1="22.8456" x2="23.0966" y2="20.0293" gradientUnits="userSpaceOnUse">
<stop offset="0.18" stop-color="#FC801D"/>
<stop offset="0.63" stop-color="#FF318C"/>
</linearGradient>
<linearGradient id="paint3_linear_31_9180" x1="0.653095" y1="3.70562" x2="28.5082" y2="24.4075" gradientUnits="userSpaceOnUse">
<stop stop-color="#FF318C"/>
<stop offset="0.4" stop-color="#B74AF7"/>
<stop offset="0.87" stop-color="#FF318C"/>
</linearGradient>
<linearGradient id="paint4_linear_31_9180" x1="-2.58356" y1="12.8781" x2="28.3071" y2="5.63312" gradientUnits="userSpaceOnUse">
<stop stop-color="#FF318C"/>
<stop offset="0.2" stop-color="#D73BAB"/>
<stop offset="0.51" stop-color="#9D4AD8"/>
<stop offset="0.75" stop-color="#7953F4"/>
<stop offset="0.87" stop-color="#6B57FF"/>
</linearGradient>
<clipPath id="clip0_31_9180">
<rect width="32" height="32" fill="white"/>
</clipPath>
</defs>
</svg>
