<svg width="32" height="32" viewBox="0 0 32 32" fill="none" xmlns="http://www.w3.org/2000/svg">
<g clip-path="url(#clip0_31_9221)">
<path d="M24 0H8C3.58172 0 0 3.58172 0 8V24C0 28.4183 3.58172 32 8 32H24C28.4183 32 32 28.4183 32 24V8C32 3.58172 28.4183 0 24 0Z" fill="url(#paint0_linear_31_9221)"/>
<path d="M24 0H8C3.58172 0 0 3.58172 0 8V24C0 28.4183 3.58172 32 8 32H24C28.4183 32 32 28.4183 32 24V8C32 3.58172 28.4183 0 24 0Z" fill="url(#paint1_linear_31_9221)"/>
<g filter="url(#filter0_i_31_9221)">
<path d="M24 2H8C4.68629 2 2 4.68629 2 8V24C2 27.3137 4.68629 30 8 30H24C27.3137 30 30 27.3137 30 24V8C30 4.68629 27.3137 2 24 2Z" fill="black" fill-opacity="0.7"/>
<mask id="mask0_31_9221" style="mask-type:luminance" maskUnits="userSpaceOnUse" x="4" y="4" width="24" height="24">
<path d="M28 4H4V28H28V4Z" fill="white"/>
</mask>
<g mask="url(#mask0_31_9221)">
<g filter="url(#filter1_d_31_9221)">
<path d="M10.9506 9.91772L10.306 21.4035L8.64887 26.944L5.02832 12.2309L10.9506 9.91772Z" fill="url(#paint2_linear_31_9221)"/>
</g>
<g filter="url(#filter2_d_31_9221)">
<path d="M10.9501 9.9177L11.6153 5.00113L20.4564 26.944H8.64844L10.3056 21.4034L10.9501 9.9177Z" fill="url(#paint3_linear_31_9221)"/>
</g>
<g filter="url(#filter3_d_31_9221)">
<path d="M16.0802 19.7554H26.9717L23.3305 5.00113H11.6162L16.0802 19.7554Z" fill="url(#paint4_linear_31_9221)"/>
</g>
<g filter="url(#filter4_d_31_9221)">
<path d="M9.14258 9.14285H22.8569V22.8572H9.14258V9.14285Z" fill="black"/>
</g>
<path d="M10.8525 20.2652H15.9954V21.1223H10.8525V20.2652Z" fill="white"/>
<path d="M10.8564 10.8434H13.2062C13.4788 10.8255 13.7522 10.8626 14.0102 10.9525C14.2682 11.0425 14.5055 11.1833 14.7079 11.3669C14.8578 11.5232 14.9744 11.7084 15.0506 11.9111C15.1268 12.1138 15.1611 12.3299 15.1513 12.5463V12.5623C15.1669 12.9269 15.059 13.2861 14.845 13.5817C14.6415 13.8446 14.3683 14.045 14.0564 14.16L15.3159 16.0023H13.9902L12.9136 14.4183H11.9764V16.0023H10.8564V10.8434ZM13.1422 13.3577C13.3731 13.3659 13.599 13.2895 13.7776 13.1429C13.852 13.0764 13.9109 12.9946 13.9504 12.903C13.9899 12.8114 14.0089 12.7123 14.0062 12.6126V12.5989C14.0141 12.4952 13.9976 12.3911 13.9579 12.295C13.9181 12.1989 13.8564 12.1136 13.7776 12.0457C13.5856 11.9129 13.3546 11.8485 13.1216 11.8629H11.981V13.3486L13.1422 13.3577Z" fill="white"/>
<path d="M18.8933 12.5463H17.7139V11.5063H18.8841V10.3452H19.9539V11.5063H21.1424V12.5463H19.963V13.7075H18.8933V12.5463Z" fill="white"/>
<path d="M16.6553 15.36H15.4873V14.32H16.6553V13.1589H17.725V14.32H18.893V15.36H17.725V16.5212H16.6553V15.36Z" fill="white"/>
</g>
</g>
</g>
<defs>
<filter id="filter0_i_31_9221" x="2" y="2" width="28" height="32" filterUnits="userSpaceOnUse" color-interpolation-filters="sRGB">
<feFlood flood-opacity="0" result="BackgroundImageFix"/>
<feBlend mode="normal" in="SourceGraphic" in2="BackgroundImageFix" result="shape"/>
<feColorMatrix in="SourceAlpha" type="matrix" values="0 0 0 0 0 0 0 0 0 0 0 0 0 0 0 0 0 0 127 0" result="hardAlpha"/>
<feOffset dy="4"/>
<feGaussianBlur stdDeviation="2"/>
<feComposite in2="hardAlpha" operator="arithmetic" k2="-1" k3="1"/>
<feColorMatrix type="matrix" values="0 0 0 0 0 0 0 0 0 0 0 0 0 0 0 0 0 0 0.25 0"/>
<feBlend mode="normal" in2="shape" result="effect1_innerShadow_31_9221"/>
</filter>
<filter id="filter1_d_31_9221" x="1.02832" y="7.91772" width="13.9219" height="25.0263" filterUnits="userSpaceOnUse" color-interpolation-filters="sRGB">
<feFlood flood-opacity="0" result="BackgroundImageFix"/>
<feColorMatrix in="SourceAlpha" type="matrix" values="0 0 0 0 0 0 0 0 0 0 0 0 0 0 0 0 0 0 127 0" result="hardAlpha"/>
<feOffset dy="2"/>
<feGaussianBlur stdDeviation="2"/>
<feComposite in2="hardAlpha" operator="out"/>
<feColorMatrix type="matrix" values="0 0 0 0 0 0 0 0 0 0 0 0 0 0 0 0 0 0 0.25 0"/>
<feBlend mode="normal" in2="BackgroundImageFix" result="effect1_dropShadow_31_9221"/>
<feBlend mode="normal" in="SourceGraphic" in2="effect1_dropShadow_31_9221" result="shape"/>
</filter>
<filter id="filter2_d_31_9221" x="4.64844" y="3.00113" width="19.8076" height="29.9429" filterUnits="userSpaceOnUse" color-interpolation-filters="sRGB">
<feFlood flood-opacity="0" result="BackgroundImageFix"/>
<feColorMatrix in="SourceAlpha" type="matrix" values="0 0 0 0 0 0 0 0 0 0 0 0 0 0 0 0 0 0 127 0" result="hardAlpha"/>
<feOffset dy="2"/>
<feGaussianBlur stdDeviation="2"/>
<feComposite in2="hardAlpha" operator="out"/>
<feColorMatrix type="matrix" values="0 0 0 0 0 0 0 0 0 0 0 0 0 0 0 0 0 0 0.25 0"/>
<feBlend mode="normal" in2="BackgroundImageFix" result="effect1_dropShadow_31_9221"/>
<feBlend mode="normal" in="SourceGraphic" in2="effect1_dropShadow_31_9221" result="shape"/>
</filter>
<filter id="filter3_d_31_9221" x="7.61621" y="3.00113" width="23.3555" height="22.7543" filterUnits="userSpaceOnUse" color-interpolation-filters="sRGB">
<feFlood flood-opacity="0" result="BackgroundImageFix"/>
<feColorMatrix in="SourceAlpha" type="matrix" values="0 0 0 0 0 0 0 0 0 0 0 0 0 0 0 0 0 0 127 0" result="hardAlpha"/>
<feOffset dy="2"/>
<feGaussianBlur stdDeviation="2"/>
<feComposite in2="hardAlpha" operator="out"/>
<feColorMatrix type="matrix" values="0 0 0 0 0 0 0 0 0 0 0 0 0 0 0 0 0 0 0.25 0"/>
<feBlend mode="normal" in2="BackgroundImageFix" result="effect1_dropShadow_31_9221"/>
<feBlend mode="normal" in="SourceGraphic" in2="effect1_dropShadow_31_9221" result="shape"/>
</filter>
<filter id="filter4_d_31_9221" x="5.14258" y="7.14285" width="21.7139" height="21.7143" filterUnits="userSpaceOnUse" color-interpolation-filters="sRGB">
<feFlood flood-opacity="0" result="BackgroundImageFix"/>
<feColorMatrix in="SourceAlpha" type="matrix" values="0 0 0 0 0 0 0 0 0 0 0 0 0 0 0 0 0 0 127 0" result="hardAlpha"/>
<feOffset dy="2"/>
<feGaussianBlur stdDeviation="2"/>
<feComposite in2="hardAlpha" operator="out"/>
<feColorMatrix type="matrix" values="0 0 0 0 0 0 0 0 0 0 0 0 0 0 0 0 0 0 0.25 0"/>
<feBlend mode="normal" in2="BackgroundImageFix" result="effect1_dropShadow_31_9221"/>
<feBlend mode="normal" in="SourceGraphic" in2="effect1_dropShadow_31_9221" result="shape"/>
</filter>
<linearGradient id="paint0_linear_31_9221" x1="16" y1="0" x2="16" y2="32" gradientUnits="userSpaceOnUse">
<stop stop-color="#3BEA62"/>
<stop offset="0.510417" stop-color="#087CFA"/>
<stop offset="1" stop-color="#B74AF7"/>
</linearGradient>
<linearGradient id="paint1_linear_31_9221" x1="2.92945" y1="-1.31371" x2="33.3487" y2="33.5897" gradientUnits="userSpaceOnUse">
<stop offset="0.18" stop-color="#FDB60D"/>
<stop offset="0.49" stop-color="#FF45ED"/>
<stop offset="0.82" stop-color="#DD1265"/>
</linearGradient>
<linearGradient id="paint2_linear_31_9221" x1="6.63517" y1="10.4251" x2="13.2797" y2="27.232" gradientUnits="userSpaceOnUse">
<stop offset="0.22" stop-color="#DD1265"/>
<stop offset="0.74" stop-color="#FF45ED"/>
<stop offset="1" stop-color="#FDB60D"/>
</linearGradient>
<linearGradient id="paint3_linear_31_9221" x1="21.4164" y1="27.9748" x2="5.16728" y2="10.6903" gradientUnits="userSpaceOnUse">
<stop offset="0.11" stop-color="#FDB60D"/>
<stop offset="0.51" stop-color="#FF45ED"/>
<stop offset="0.76" stop-color="#FF45ED"/>
<stop offset="1" stop-color="#FDB60D"/>
</linearGradient>
<linearGradient id="paint4_linear_31_9221" x1="13.0219" y1="4.39543" x2="26.9602" y2="21.04" gradientUnits="userSpaceOnUse">
<stop offset="0.18" stop-color="#FDB60D"/>
<stop offset="0.49" stop-color="#FF45ED"/>
<stop offset="0.82" stop-color="#DD1265"/>
</linearGradient>
<clipPath id="clip0_31_9221">
<rect width="32" height="32" fill="white"/>
</clipPath>
</defs>
</svg>
