<svg width="32" height="32" viewBox="0 0 32 32" fill="none" xmlns="http://www.w3.org/2000/svg">
<g clip-path="url(#clip0_31_9257)">
<path d="M24 0H8C3.58172 0 0 3.58172 0 8V24C0 28.4183 3.58172 32 8 32H24C28.4183 32 32 28.4183 32 24V8C32 3.58172 28.4183 0 24 0Z" fill="url(#paint0_linear_31_9257)"/>
<g filter="url(#filter0_i_31_9257)">
<path d="M24 2H8C4.68629 2 2 4.68629 2 8V24C2 27.3137 4.68629 30 8 30H24C27.3137 30 30 27.3137 30 24V8C30 4.68629 27.3137 2 24 2Z" fill="black" fill-opacity="0.7"/>
<g filter="url(#filter1_d_31_9257)">
<path d="M10 24H16M16 24H22M16 24V20" stroke="#8B00E7" stroke-width="3" stroke-linecap="round" stroke-linejoin="round"/>
</g>
<g filter="url(#filter2_d_31_9257)">
<path d="M8 20H24C25.1045 20 26 19.1046 26 18V10C26 8.89542 25.1045 8 24 8H8C6.89542 8 6 8.89542 6 10V18C6 19.1046 6.89542 20 8 20Z" stroke="#D404FF" stroke-width="3" stroke-linecap="round" stroke-linejoin="round"/>
</g>
</g>
</g>
<defs>
<filter id="filter0_i_31_9257" x="2" y="2" width="28" height="32" filterUnits="userSpaceOnUse" color-interpolation-filters="sRGB">
<feFlood flood-opacity="0" result="BackgroundImageFix"/>
<feBlend mode="normal" in="SourceGraphic" in2="BackgroundImageFix" result="shape"/>
<feColorMatrix in="SourceAlpha" type="matrix" values="0 0 0 0 0 0 0 0 0 0 0 0 0 0 0 0 0 0 127 0" result="hardAlpha"/>
<feOffset dy="4"/>
<feGaussianBlur stdDeviation="2"/>
<feComposite in2="hardAlpha" operator="arithmetic" k2="-1" k3="1"/>
<feColorMatrix type="matrix" values="0 0 0 0 0 0 0 0 0 0 0 0 0 0 0 0 0 0 0.25 0"/>
<feBlend mode="normal" in2="shape" result="effect1_innerShadow_31_9257"/>
</filter>
<filter id="filter1_d_31_9257" x="4.5" y="16.5" width="23" height="15" filterUnits="userSpaceOnUse" color-interpolation-filters="sRGB">
<feFlood flood-opacity="0" result="BackgroundImageFix"/>
<feColorMatrix in="SourceAlpha" type="matrix" values="0 0 0 0 0 0 0 0 0 0 0 0 0 0 0 0 0 0 127 0" result="hardAlpha"/>
<feOffset dy="2"/>
<feGaussianBlur stdDeviation="2"/>
<feComposite in2="hardAlpha" operator="out"/>
<feColorMatrix type="matrix" values="0 0 0 0 0 0 0 0 0 0 0 0 0 0 0 0 0 0 0.25 0"/>
<feBlend mode="normal" in2="BackgroundImageFix" result="effect1_dropShadow_31_9257"/>
<feBlend mode="normal" in="SourceGraphic" in2="effect1_dropShadow_31_9257" result="shape"/>
</filter>
<filter id="filter2_d_31_9257" x="0.5" y="4.5" width="31" height="23" filterUnits="userSpaceOnUse" color-interpolation-filters="sRGB">
<feFlood flood-opacity="0" result="BackgroundImageFix"/>
<feColorMatrix in="SourceAlpha" type="matrix" values="0 0 0 0 0 0 0 0 0 0 0 0 0 0 0 0 0 0 127 0" result="hardAlpha"/>
<feOffset dy="2"/>
<feGaussianBlur stdDeviation="2"/>
<feComposite in2="hardAlpha" operator="out"/>
<feColorMatrix type="matrix" values="0 0 0 0 0 0 0 0 0 0 0 0 0 0 0 0 0 0 0.25 0"/>
<feBlend mode="normal" in2="BackgroundImageFix" result="effect1_dropShadow_31_9257"/>
<feBlend mode="normal" in="SourceGraphic" in2="effect1_dropShadow_31_9257" result="shape"/>
</filter>
<linearGradient id="paint0_linear_31_9257" x1="16" y1="0" x2="16" y2="32" gradientUnits="userSpaceOnUse">
<stop stop-color="#CB02C5"/>
<stop offset="0.244792" stop-color="#C101DA"/>
<stop offset="0.510417" stop-color="#B600F0"/>
<stop offset="0.744792" stop-color="#8900D9"/>
<stop offset="1" stop-color="#5800BF"/>
</linearGradient>
<clipPath id="clip0_31_9257">
<rect width="32" height="32" fill="white"/>
</clipPath>
</defs>
</svg>
