<svg width="32" height="32" viewBox="0 0 32 32" fill="none" xmlns="http://www.w3.org/2000/svg">
<g clip-path="url(#clip0_31_9284)">
<path d="M24 0H8C3.58172 0 0 3.58172 0 8V24C0 28.4183 3.58172 32 8 32H24C28.4183 32 32 28.4183 32 24V8C32 3.58172 28.4183 0 24 0Z" fill="url(#paint0_linear_31_9284)"/>
<path d="M24 0H8C3.58172 0 0 3.58172 0 8V24C0 28.4183 3.58172 32 8 32H24C28.4183 32 32 28.4183 32 24V8C32 3.58172 28.4183 0 24 0Z" fill="url(#paint1_linear_31_9284)"/>
<path d="M24 0H8C3.58172 0 0 3.58172 0 8V24C0 28.4183 3.58172 32 8 32H24C28.4183 32 32 28.4183 32 24V8C32 3.58172 28.4183 0 24 0Z" fill="url(#paint2_linear_31_9284)"/>
<g filter="url(#filter0_i_31_9284)">
<path d="M24 2H8C4.68629 2 2 4.68629 2 8V24C2 27.3137 4.68629 30 8 30H24C27.3137 30 30 27.3137 30 24V8C30 4.68629 27.3137 2 24 2Z" fill="black" fill-opacity="0.7"/>
<mask id="mask0_31_9284" style="mask-type:luminance" maskUnits="userSpaceOnUse" x="4" y="4" width="24" height="24">
<path d="M28 4H4V28H28V4Z" fill="white"/>
</mask>
<g mask="url(#mask0_31_9284)">
<g filter="url(#filter1_d_31_9284)">
<path d="M21.2106 23.2113L12.3644 28L4 23.1025L19.375 17.3575L21.2106 23.2113Z" fill="url(#paint3_linear_31_9284)"/>
</g>
<g filter="url(#filter2_d_31_9284)">
<path d="M17.7044 4L12.8969 18.2612L8.11187 15.5894L4 23.1025L11.6781 21.8762L21.4206 20.1569L28 18.6831V9.73375L17.7044 4Z" fill="url(#paint4_linear_31_9284)"/>
</g>
<g filter="url(#filter3_d_31_9284)">
<path d="M14.875 12.3138L8.47 10.4706L7.9375 4L13.3263 6.265L17.7062 4L14.875 12.3138Z" fill="#087CFA"/>
</g>
<g filter="url(#filter4_d_31_9284)">
<path d="M15.0624 11.9387L13.3262 6.265L17.7062 4L15.0624 11.9387Z" fill="url(#paint5_linear_31_9284)"/>
</g>
<g filter="url(#filter5_d_31_9284)">
<path d="M20.5169 17.9369L7.94312 4L4 12.9888L15.1019 22.5794L20.5169 17.9369Z" fill="url(#paint6_linear_31_9284)"/>
</g>
<g filter="url(#filter6_d_31_9284)">
<path d="M28 18.6831L20.6875 20.3706L20.9669 19.165L28 9.73377V18.6831Z" fill="url(#paint7_linear_31_9284)"/>
</g>
<g filter="url(#filter7_d_31_9284)">
<path d="M24.1583 28L15.1021 22.5813L20.517 17.9369L24.1583 28Z" fill="url(#paint8_linear_31_9284)"/>
</g>
<g filter="url(#filter8_d_31_9284)">
<path d="M23.5 8.5H8.5V23.5H23.5V8.5Z" fill="black"/>
</g>
<path d="M16 20.6875H10.375V21.625H16V20.6875Z" fill="white"/>
<path d="M10.334 10.375H12.9065C13.6227 10.375 14.1777 10.5756 14.5471 10.9375C14.7093 11.1089 14.8357 11.311 14.9188 11.5318C15.0018 11.7527 15.0399 11.988 15.0309 12.2238V12.25C15.0488 12.6331 14.9403 13.0114 14.7221 13.3269C14.5039 13.6423 14.1882 13.8772 13.8234 13.9956L15.1996 16H13.7502L12.5427 14.1981H11.5715V16H10.334V10.375ZM12.8259 13.1012C13.4296 13.1012 13.7746 12.7787 13.7746 12.3044V12.2894C13.7746 11.7588 13.3996 11.485 12.8034 11.485H11.5715V13.1012H12.8259Z" fill="white"/>
<path d="M16.1499 10.375H20.4362V11.5H17.3893V12.6981H20.0743V13.8231H17.3893V16H16.1499V10.375Z" fill="white"/>
</g>
</g>
</g>
<defs>
<filter id="filter0_i_31_9284" x="2" y="2" width="28" height="32" filterUnits="userSpaceOnUse" color-interpolation-filters="sRGB">
<feFlood flood-opacity="0" result="BackgroundImageFix"/>
<feBlend mode="normal" in="SourceGraphic" in2="BackgroundImageFix" result="shape"/>
<feColorMatrix in="SourceAlpha" type="matrix" values="0 0 0 0 0 0 0 0 0 0 0 0 0 0 0 0 0 0 127 0" result="hardAlpha"/>
<feOffset dy="4"/>
<feGaussianBlur stdDeviation="2"/>
<feComposite in2="hardAlpha" operator="arithmetic" k2="-1" k3="1"/>
<feColorMatrix type="matrix" values="0 0 0 0 0 0 0 0 0 0 0 0 0 0 0 0 0 0 0.25 0"/>
<feBlend mode="normal" in2="shape" result="effect1_innerShadow_31_9284"/>
</filter>
<filter id="filter1_d_31_9284" x="0" y="15.3575" width="25.2104" height="18.6425" filterUnits="userSpaceOnUse" color-interpolation-filters="sRGB">
<feFlood flood-opacity="0" result="BackgroundImageFix"/>
<feColorMatrix in="SourceAlpha" type="matrix" values="0 0 0 0 0 0 0 0 0 0 0 0 0 0 0 0 0 0 127 0" result="hardAlpha"/>
<feOffset dy="2"/>
<feGaussianBlur stdDeviation="2"/>
<feComposite in2="hardAlpha" operator="out"/>
<feColorMatrix type="matrix" values="0 0 0 0 0 0 0 0 0 0 0 0 0 0 0 0 0 0 0.25 0"/>
<feBlend mode="normal" in2="BackgroundImageFix" result="effect1_dropShadow_31_9284"/>
<feBlend mode="normal" in="SourceGraphic" in2="effect1_dropShadow_31_9284" result="shape"/>
</filter>
<filter id="filter2_d_31_9284" x="0" y="2" width="32" height="27.1025" filterUnits="userSpaceOnUse" color-interpolation-filters="sRGB">
<feFlood flood-opacity="0" result="BackgroundImageFix"/>
<feColorMatrix in="SourceAlpha" type="matrix" values="0 0 0 0 0 0 0 0 0 0 0 0 0 0 0 0 0 0 127 0" result="hardAlpha"/>
<feOffset dy="2"/>
<feGaussianBlur stdDeviation="2"/>
<feComposite in2="hardAlpha" operator="out"/>
<feColorMatrix type="matrix" values="0 0 0 0 0 0 0 0 0 0 0 0 0 0 0 0 0 0 0.25 0"/>
<feBlend mode="normal" in2="BackgroundImageFix" result="effect1_dropShadow_31_9284"/>
<feBlend mode="normal" in="SourceGraphic" in2="effect1_dropShadow_31_9284" result="shape"/>
</filter>
<filter id="filter3_d_31_9284" x="3.9375" y="2" width="17.7686" height="16.3138" filterUnits="userSpaceOnUse" color-interpolation-filters="sRGB">
<feFlood flood-opacity="0" result="BackgroundImageFix"/>
<feColorMatrix in="SourceAlpha" type="matrix" values="0 0 0 0 0 0 0 0 0 0 0 0 0 0 0 0 0 0 127 0" result="hardAlpha"/>
<feOffset dy="2"/>
<feGaussianBlur stdDeviation="2"/>
<feComposite in2="hardAlpha" operator="out"/>
<feColorMatrix type="matrix" values="0 0 0 0 0 0 0 0 0 0 0 0 0 0 0 0 0 0 0.25 0"/>
<feBlend mode="normal" in2="BackgroundImageFix" result="effect1_dropShadow_31_9284"/>
<feBlend mode="normal" in="SourceGraphic" in2="effect1_dropShadow_31_9284" result="shape"/>
</filter>
<filter id="filter4_d_31_9284" x="9.32617" y="2" width="12.3799" height="15.9387" filterUnits="userSpaceOnUse" color-interpolation-filters="sRGB">
<feFlood flood-opacity="0" result="BackgroundImageFix"/>
<feColorMatrix in="SourceAlpha" type="matrix" values="0 0 0 0 0 0 0 0 0 0 0 0 0 0 0 0 0 0 127 0" result="hardAlpha"/>
<feOffset dy="2"/>
<feGaussianBlur stdDeviation="2"/>
<feComposite in2="hardAlpha" operator="out"/>
<feColorMatrix type="matrix" values="0 0 0 0 0 0 0 0 0 0 0 0 0 0 0 0 0 0 0.25 0"/>
<feBlend mode="normal" in2="BackgroundImageFix" result="effect1_dropShadow_31_9284"/>
<feBlend mode="normal" in="SourceGraphic" in2="effect1_dropShadow_31_9284" result="shape"/>
</filter>
<filter id="filter5_d_31_9284" x="0" y="2" width="24.5171" height="26.5794" filterUnits="userSpaceOnUse" color-interpolation-filters="sRGB">
<feFlood flood-opacity="0" result="BackgroundImageFix"/>
<feColorMatrix in="SourceAlpha" type="matrix" values="0 0 0 0 0 0 0 0 0 0 0 0 0 0 0 0 0 0 127 0" result="hardAlpha"/>
<feOffset dy="2"/>
<feGaussianBlur stdDeviation="2"/>
<feComposite in2="hardAlpha" operator="out"/>
<feColorMatrix type="matrix" values="0 0 0 0 0 0 0 0 0 0 0 0 0 0 0 0 0 0 0.25 0"/>
<feBlend mode="normal" in2="BackgroundImageFix" result="effect1_dropShadow_31_9284"/>
<feBlend mode="normal" in="SourceGraphic" in2="effect1_dropShadow_31_9284" result="shape"/>
</filter>
<filter id="filter6_d_31_9284" x="16.6875" y="7.73377" width="15.3125" height="18.6369" filterUnits="userSpaceOnUse" color-interpolation-filters="sRGB">
<feFlood flood-opacity="0" result="BackgroundImageFix"/>
<feColorMatrix in="SourceAlpha" type="matrix" values="0 0 0 0 0 0 0 0 0 0 0 0 0 0 0 0 0 0 127 0" result="hardAlpha"/>
<feOffset dy="2"/>
<feGaussianBlur stdDeviation="2"/>
<feComposite in2="hardAlpha" operator="out"/>
<feColorMatrix type="matrix" values="0 0 0 0 0 0 0 0 0 0 0 0 0 0 0 0 0 0 0.25 0"/>
<feBlend mode="normal" in2="BackgroundImageFix" result="effect1_dropShadow_31_9284"/>
<feBlend mode="normal" in="SourceGraphic" in2="effect1_dropShadow_31_9284" result="shape"/>
</filter>
<filter id="filter7_d_31_9284" x="11.1021" y="15.9369" width="17.0562" height="18.0631" filterUnits="userSpaceOnUse" color-interpolation-filters="sRGB">
<feFlood flood-opacity="0" result="BackgroundImageFix"/>
<feColorMatrix in="SourceAlpha" type="matrix" values="0 0 0 0 0 0 0 0 0 0 0 0 0 0 0 0 0 0 127 0" result="hardAlpha"/>
<feOffset dy="2"/>
<feGaussianBlur stdDeviation="2"/>
<feComposite in2="hardAlpha" operator="out"/>
<feColorMatrix type="matrix" values="0 0 0 0 0 0 0 0 0 0 0 0 0 0 0 0 0 0 0.25 0"/>
<feBlend mode="normal" in2="BackgroundImageFix" result="effect1_dropShadow_31_9284"/>
<feBlend mode="normal" in="SourceGraphic" in2="effect1_dropShadow_31_9284" result="shape"/>
</filter>
<filter id="filter8_d_31_9284" x="4.5" y="6.5" width="23" height="23" filterUnits="userSpaceOnUse" color-interpolation-filters="sRGB">
<feFlood flood-opacity="0" result="BackgroundImageFix"/>
<feColorMatrix in="SourceAlpha" type="matrix" values="0 0 0 0 0 0 0 0 0 0 0 0 0 0 0 0 0 0 127 0" result="hardAlpha"/>
<feOffset dy="2"/>
<feGaussianBlur stdDeviation="2"/>
<feComposite in2="hardAlpha" operator="out"/>
<feColorMatrix type="matrix" values="0 0 0 0 0 0 0 0 0 0 0 0 0 0 0 0 0 0 0.25 0"/>
<feBlend mode="normal" in2="BackgroundImageFix" result="effect1_dropShadow_31_9284"/>
<feBlend mode="normal" in="SourceGraphic" in2="effect1_dropShadow_31_9284" result="shape"/>
</filter>
<linearGradient id="paint0_linear_31_9284" x1="16" y1="0" x2="16" y2="32" gradientUnits="userSpaceOnUse">
<stop stop-color="#087CFA"/>
<stop offset="0.317708" stop-color="#963597"/>
<stop offset="0.671875" stop-color="#DD1265"/>
<stop offset="1" stop-color="#ED6438"/>
</linearGradient>
<linearGradient id="paint1_linear_31_9284" x1="10.0806" y1="1.81491" x2="15.6334" y2="23.0953" gradientUnits="userSpaceOnUse">
<stop stop-color="#087CFA"/>
<stop offset="0.33" stop-color="#903ACA"/>
<stop offset="0.6" stop-color="#DD1265"/>
</linearGradient>
<linearGradient id="paint2_linear_31_9284" x1="31.947" y1="34.3252" x2="10.9356" y2="3.0887" gradientUnits="userSpaceOnUse">
<stop offset="0.125" stop-color="#FDB60D"/>
<stop offset="0.348958" stop-color="#DD1265"/>
<stop offset="0.661458" stop-color="#9338C6"/>
<stop offset="1" stop-color="#087CFA"/>
</linearGradient>
<linearGradient id="paint3_linear_31_9284" x1="9.775" y1="18.2388" x2="17.2562" y2="26.0183" gradientUnits="userSpaceOnUse">
<stop offset="0.01" stop-color="#087CFA"/>
<stop offset="0.49" stop-color="#903ACA"/>
<stop offset="0.93" stop-color="#DD1265"/>
</linearGradient>
<linearGradient id="paint4_linear_31_9284" x1="18.475" y1="16.3994" x2="23.7775" y2="7.05063" gradientUnits="userSpaceOnUse">
<stop offset="0.59" stop-color="#087CFA"/>
<stop offset="0.99" stop-color="#0093FF"/>
</linearGradient>
<linearGradient id="paint5_linear_31_9284" x1="14.3743" y1="3.99063" x2="18.3062" y2="11.7887" gradientUnits="userSpaceOnUse">
<stop offset="0.21" stop-color="#087CFA"/>
<stop offset="0.7" stop-color="#DD1265"/>
</linearGradient>
<linearGradient id="paint6_linear_31_9284" x1="9.20312" y1="5.05375" x2="12.7694" y2="17.2037" gradientUnits="userSpaceOnUse">
<stop stop-color="#087CFA"/>
<stop offset="0.33" stop-color="#903ACA"/>
<stop offset="0.6" stop-color="#DD1265"/>
</linearGradient>
<linearGradient id="paint7_linear_31_9284" x1="31.9807" y1="9.67377" x2="21.1056" y2="22.06" gradientUnits="userSpaceOnUse">
<stop offset="0.21" stop-color="#087CFA"/>
<stop offset="0.56" stop-color="#903ACA"/>
<stop offset="0.84" stop-color="#DD1265"/>
</linearGradient>
<linearGradient id="paint8_linear_31_9284" x1="24.1433" y1="28.7313" x2="17.3014" y2="19.5775" gradientUnits="userSpaceOnUse">
<stop offset="0.31" stop-color="#FDB60D"/>
<stop offset="1" stop-color="#DD1265"/>
</linearGradient>
<clipPath id="clip0_31_9284">
<rect width="32" height="32" fill="white"/>
</clipPath>
</defs>
</svg>
