<svg width="32" height="32" viewBox="0 0 32 32" fill="none" xmlns="http://www.w3.org/2000/svg">
<g clip-path="url(#clip0_31_9313)">
<path d="M24 0H8C3.58172 0 0 3.58172 0 8V24C0 28.4183 3.58172 32 8 32H24C28.4183 32 32 28.4183 32 24V8C32 3.58172 28.4183 0 24 0Z" fill="url(#paint0_linear_31_9313)"/>
<path d="M24 0H8C3.58172 0 0 3.58172 0 8V24C0 28.4183 3.58172 32 8 32H24C28.4183 32 32 28.4183 32 24V8C32 3.58172 28.4183 0 24 0Z" fill="url(#paint1_linear_31_9313)"/>
<g filter="url(#filter0_i_31_9313)">
<path d="M24 2H8C4.68629 2 2 4.68629 2 8V24C2 27.3137 4.68629 30 8 30H24C27.3137 30 30 27.3137 30 24V8C30 4.68629 27.3137 2 24 2Z" fill="black" fill-opacity="0.7"/>
<mask id="mask0_31_9313" style="mask-type:luminance" maskUnits="userSpaceOnUse" x="4" y="4" width="24" height="24">
<path d="M28 4H4V28H28V4Z" fill="white"/>
</mask>
<g mask="url(#mask0_31_9313)">
<g filter="url(#filter1_d_31_9313)">
<path d="M23.049 5.02858L16.7702 7.2777L11.8216 5.02858L10.1919 9.1337H9.13818V21.2526L24.377 21.3851L26.7429 9.31658L23.049 5.02858Z" fill="url(#paint2_linear_31_9313)"/>
</g>
<g filter="url(#filter2_d_31_9313)">
<path d="M22.8614 12.9029L12.834 6.96L22.8614 18.7131V12.9029Z" fill="url(#paint3_linear_31_9313)"/>
</g>
<g filter="url(#filter3_d_31_9313)">
<path d="M13.9335 26.4L22.1347 25.3075L20.8615 22.8594H22.8615V18.7131L12.8318 6.9417L4.7998 8.91427L4.80893 20.4343L9.42608 26.9715L13.9084 26.4022L13.9289 26.4H13.9335Z" fill="url(#paint4_linear_31_9313)"/>
</g>
<g filter="url(#filter4_d_31_9313)">
<path d="M9.14258 9.14285H22.8569V22.8572H9.14258V9.14285Z" fill="black"/>
</g>
<path d="M10.8525 20.2651H15.9954V21.1223H10.8525V20.2651Z" fill="white"/>
<path d="M15.9336 10.8503H17.1564L18.5119 13.0309L19.8673 10.8503H21.0901V16.0046H19.9633V12.64L18.5119 14.8411H18.4822L17.0467 12.6629V16.0046H15.9336V10.8503Z" fill="white"/>
<path d="M10.8569 10.8572H13.2112C13.8634 10.8572 14.3632 11.0309 14.7107 11.3783C14.8599 11.5346 14.9759 11.7194 15.0517 11.9217C15.1275 12.124 15.1616 12.3396 15.1518 12.5554V12.5714C15.1685 12.9355 15.0605 13.2943 14.8455 13.5886C14.6397 13.853 14.3631 14.0535 14.0478 14.1669L15.3072 15.9954H13.9815L12.9141 14.416H11.9792V15.9977H10.8569V10.8572ZM13.1427 13.3509C13.372 13.361 13.5972 13.2871 13.7758 13.1429C13.8502 13.0764 13.9091 12.9946 13.9486 12.903C13.9881 12.8114 14.0071 12.7123 14.0044 12.6126V12.5989C14.0129 12.4955 13.9966 12.3916 13.9568 12.2958C13.9171 12.1999 13.855 12.115 13.7758 12.048C13.5849 11.9145 13.3546 11.8493 13.1221 11.8629H11.9838V13.3417L13.1427 13.3509Z" fill="white"/>
</g>
</g>
</g>
<defs>
<filter id="filter0_i_31_9313" x="2" y="2" width="28" height="32" filterUnits="userSpaceOnUse" color-interpolation-filters="sRGB">
<feFlood flood-opacity="0" result="BackgroundImageFix"/>
<feBlend mode="normal" in="SourceGraphic" in2="BackgroundImageFix" result="shape"/>
<feColorMatrix in="SourceAlpha" type="matrix" values="0 0 0 0 0 0 0 0 0 0 0 0 0 0 0 0 0 0 127 0" result="hardAlpha"/>
<feOffset dy="4"/>
<feGaussianBlur stdDeviation="2"/>
<feComposite in2="hardAlpha" operator="arithmetic" k2="-1" k3="1"/>
<feColorMatrix type="matrix" values="0 0 0 0 0 0 0 0 0 0 0 0 0 0 0 0 0 0 0.25 0"/>
<feBlend mode="normal" in2="shape" result="effect1_innerShadow_31_9313"/>
</filter>
<filter id="filter1_d_31_9313" x="5.13818" y="3.02858" width="25.6045" height="24.3565" filterUnits="userSpaceOnUse" color-interpolation-filters="sRGB">
<feFlood flood-opacity="0" result="BackgroundImageFix"/>
<feColorMatrix in="SourceAlpha" type="matrix" values="0 0 0 0 0 0 0 0 0 0 0 0 0 0 0 0 0 0 127 0" result="hardAlpha"/>
<feOffset dy="2"/>
<feGaussianBlur stdDeviation="2"/>
<feComposite in2="hardAlpha" operator="out"/>
<feColorMatrix type="matrix" values="0 0 0 0 0 0 0 0 0 0 0 0 0 0 0 0 0 0 0.25 0"/>
<feBlend mode="normal" in2="BackgroundImageFix" result="effect1_dropShadow_31_9313"/>
<feBlend mode="normal" in="SourceGraphic" in2="effect1_dropShadow_31_9313" result="shape"/>
</filter>
<filter id="filter2_d_31_9313" x="8.83398" y="4.96" width="18.0273" height="19.7531" filterUnits="userSpaceOnUse" color-interpolation-filters="sRGB">
<feFlood flood-opacity="0" result="BackgroundImageFix"/>
<feColorMatrix in="SourceAlpha" type="matrix" values="0 0 0 0 0 0 0 0 0 0 0 0 0 0 0 0 0 0 127 0" result="hardAlpha"/>
<feOffset dy="2"/>
<feGaussianBlur stdDeviation="2"/>
<feComposite in2="hardAlpha" operator="out"/>
<feColorMatrix type="matrix" values="0 0 0 0 0 0 0 0 0 0 0 0 0 0 0 0 0 0 0.25 0"/>
<feBlend mode="normal" in2="BackgroundImageFix" result="effect1_dropShadow_31_9313"/>
<feBlend mode="normal" in="SourceGraphic" in2="effect1_dropShadow_31_9313" result="shape"/>
</filter>
<filter id="filter3_d_31_9313" x="0.799805" y="4.9417" width="26.0615" height="28.0298" filterUnits="userSpaceOnUse" color-interpolation-filters="sRGB">
<feFlood flood-opacity="0" result="BackgroundImageFix"/>
<feColorMatrix in="SourceAlpha" type="matrix" values="0 0 0 0 0 0 0 0 0 0 0 0 0 0 0 0 0 0 127 0" result="hardAlpha"/>
<feOffset dy="2"/>
<feGaussianBlur stdDeviation="2"/>
<feComposite in2="hardAlpha" operator="out"/>
<feColorMatrix type="matrix" values="0 0 0 0 0 0 0 0 0 0 0 0 0 0 0 0 0 0 0.25 0"/>
<feBlend mode="normal" in2="BackgroundImageFix" result="effect1_dropShadow_31_9313"/>
<feBlend mode="normal" in="SourceGraphic" in2="effect1_dropShadow_31_9313" result="shape"/>
</filter>
<filter id="filter4_d_31_9313" x="5.14258" y="7.14285" width="21.7144" height="21.7143" filterUnits="userSpaceOnUse" color-interpolation-filters="sRGB">
<feFlood flood-opacity="0" result="BackgroundImageFix"/>
<feColorMatrix in="SourceAlpha" type="matrix" values="0 0 0 0 0 0 0 0 0 0 0 0 0 0 0 0 0 0 127 0" result="hardAlpha"/>
<feOffset dy="2"/>
<feGaussianBlur stdDeviation="2"/>
<feComposite in2="hardAlpha" operator="out"/>
<feColorMatrix type="matrix" values="0 0 0 0 0 0 0 0 0 0 0 0 0 0 0 0 0 0 0.25 0"/>
<feBlend mode="normal" in2="BackgroundImageFix" result="effect1_dropShadow_31_9313"/>
<feBlend mode="normal" in="SourceGraphic" in2="effect1_dropShadow_31_9313" result="shape"/>
</filter>
<linearGradient id="paint0_linear_31_9313" x1="16" y1="0" x2="16" y2="32" gradientUnits="userSpaceOnUse">
<stop stop-color="#087CFA"/>
<stop offset="0.317708" stop-color="#963597"/>
<stop offset="0.671875" stop-color="#DD1265"/>
<stop offset="1" stop-color="#ED6438"/>
</linearGradient>
<linearGradient id="paint1_linear_31_9313" x1="0.170083" y1="2.55985" x2="22.054" y2="33.4075" gradientUnits="userSpaceOnUse">
<stop stop-color="#6B57FF"/>
<stop offset="0.3" stop-color="#FE2857"/>
<stop offset="0.63" stop-color="#FE2857"/>
<stop offset="0.64" stop-color="#FE3052"/>
<stop offset="0.7" stop-color="#FD533B"/>
<stop offset="0.76" stop-color="#FC6C2A"/>
<stop offset="0.81" stop-color="#FC7B20"/>
<stop offset="0.85" stop-color="#FC801D"/>
</linearGradient>
<linearGradient id="paint2_linear_31_9313" x1="18.8685" y1="17.7211" x2="16.0936" y2="10.4411" gradientUnits="userSpaceOnUse">
<stop stop-color="#FE2857"/>
<stop offset="0.06" stop-color="#FE3052"/>
<stop offset="0.33" stop-color="#FD533B"/>
<stop offset="0.58" stop-color="#FC6C2A"/>
<stop offset="0.81" stop-color="#FC7B20"/>
<stop offset="1" stop-color="#FC801D"/>
</linearGradient>
<linearGradient id="paint3_linear_31_9313" x1="13.5837" y1="7.30285" x2="17.8671" y2="11.2297" gradientUnits="userSpaceOnUse">
<stop stop-color="#6B57FF"/>
<stop offset="1" stop-color="#FE2857"/>
</linearGradient>
<linearGradient id="paint4_linear_31_9313" x1="4.8958" y1="8.544" x2="19.0009" y2="26.4732" gradientUnits="userSpaceOnUse">
<stop stop-color="#6B57FF"/>
<stop offset="0.3" stop-color="#FE2857"/>
<stop offset="0.63" stop-color="#FE2857"/>
<stop offset="0.64" stop-color="#FE3052"/>
<stop offset="0.7" stop-color="#FD533B"/>
<stop offset="0.76" stop-color="#FC6C2A"/>
<stop offset="0.81" stop-color="#FC7B20"/>
<stop offset="0.85" stop-color="#FC801D"/>
</linearGradient>
<clipPath id="clip0_31_9313">
<rect width="32" height="32" fill="white"/>
</clipPath>
</defs>
</svg>
