<svg width="32" height="32" viewBox="0 0 32 32" fill="none" xmlns="http://www.w3.org/2000/svg">
<g clip-path="url(#clip0_31_9345)">
<path d="M24 0H8C3.58172 0 0 3.58172 0 8V24C0 28.4183 3.58172 32 8 32H24C28.4183 32 32 28.4183 32 24V8C32 3.58172 28.4183 0 24 0Z" fill="url(#paint0_linear_31_9345)"/>
<g filter="url(#filter0_i_31_9345)">
<path d="M24 2H8C4.68629 2 2 4.68629 2 8V24C2 27.3137 4.68629 30 8 30H24C27.3137 30 30 27.3137 30 24V8C30 4.68629 27.3137 2 24 2Z" fill="black" fill-opacity="0.7"/>
<path d="M15.9973 4L28 16.0027L15.9973 28L4 16.0027L15.9973 4Z" fill="#8A5AAB"/>
<path d="M15.9973 28L4 16.0027H28L15.9973 28Z" fill="#3A497D"/>
<path d="M20.2122 16.0027L14.1299 20.5098V11.4902L20.2122 16.0027Z" fill="white"/>
</g>
</g>
<defs>
<filter id="filter0_i_31_9345" x="2" y="2" width="28" height="32" filterUnits="userSpaceOnUse" color-interpolation-filters="sRGB">
<feFlood flood-opacity="0" result="BackgroundImageFix"/>
<feBlend mode="normal" in="SourceGraphic" in2="BackgroundImageFix" result="shape"/>
<feColorMatrix in="SourceAlpha" type="matrix" values="0 0 0 0 0 0 0 0 0 0 0 0 0 0 0 0 0 0 127 0" result="hardAlpha"/>
<feOffset dy="4"/>
<feGaussianBlur stdDeviation="2"/>
<feComposite in2="hardAlpha" operator="arithmetic" k2="-1" k3="1"/>
<feColorMatrix type="matrix" values="0 0 0 0 0 0 0 0 0 0 0 0 0 0 0 0 0 0 0.25 0"/>
<feBlend mode="normal" in2="shape" result="effect1_innerShadow_31_9345"/>
</filter>
<linearGradient id="paint0_linear_31_9345" x1="16" y1="0" x2="16" y2="32" gradientUnits="userSpaceOnUse">
<stop stop-color="#8A5AAB"/>
<stop offset="1" stop-color="#3A497D"/>
</linearGradient>
<clipPath id="clip0_31_9345">
<rect width="32" height="32" fill="white"/>
</clipPath>
</defs>
</svg>
