<svg width="32" height="32" viewBox="0 0 32 32" fill="none" xmlns="http://www.w3.org/2000/svg">
<g clip-path="url(#clip0_31_9352)">
<path d="M24 0H8C3.58172 0 0 3.58172 0 8V24C0 28.4183 3.58172 32 8 32H24C28.4183 32 32 28.4183 32 24V8C32 3.58172 28.4183 0 24 0Z" fill="url(#paint0_linear_31_9352)"/>
<g filter="url(#filter0_i_31_9352)">
<path d="M24 2H8C4.68629 2 2 4.68629 2 8V24C2 27.3137 4.68629 30 8 30H24C27.3137 30 30 27.3137 30 24V8C30 4.68629 27.3137 2 24 2Z" fill="black" fill-opacity="0.7"/>
<g filter="url(#filter1_d_31_9352)">
<path d="M23.6723 16.0457C23.6723 15.8113 23.499 15.6762 23.2865 15.7433L8.66217 20.3807C8.44917 20.4483 8.27637 20.6934 8.27637 20.9273V25.667C8.27637 25.9012 8.44917 26.037 8.66217 25.9692L23.2865 21.3324C23.499 21.2648 23.6723 21.0197 23.6723 20.7853V16.0457Z" fill="url(#paint1_linear_31_9352)"/>
<path d="M8.27637 15.8947C8.27637 16.1291 8.44917 16.3742 8.66217 16.4418L23.2886 21.0796C23.5016 21.1472 23.6744 21.0116 23.6744 20.7776V16.0376C23.6744 15.8036 23.5016 15.5586 23.2886 15.491L8.66217 10.8532C8.44917 10.7856 8.27637 10.9208 8.27637 11.1551V15.8947Z" fill="#FF9800"/>
<path d="M23.6723 6.30648C23.6723 6.07208 23.499 5.93648 23.2865 6.00408L8.66217 10.641C8.44917 10.7086 8.27637 10.9537 8.27637 11.1881V15.9277C8.27637 16.1621 8.44917 16.2972 8.66217 16.2301L23.2865 11.5927C23.499 11.5251 23.6723 11.28 23.6723 11.0461V6.30648Z" fill="#FF9800"/>
</g>
</g>
</g>
<defs>
<filter id="filter0_i_31_9352" x="2" y="2" width="28" height="32" filterUnits="userSpaceOnUse" color-interpolation-filters="sRGB">
<feFlood flood-opacity="0" result="BackgroundImageFix"/>
<feBlend mode="normal" in="SourceGraphic" in2="BackgroundImageFix" result="shape"/>
<feColorMatrix in="SourceAlpha" type="matrix" values="0 0 0 0 0 0 0 0 0 0 0 0 0 0 0 0 0 0 127 0" result="hardAlpha"/>
<feOffset dy="4"/>
<feGaussianBlur stdDeviation="2"/>
<feComposite in2="hardAlpha" operator="arithmetic" k2="-1" k3="1"/>
<feColorMatrix type="matrix" values="0 0 0 0 0 0 0 0 0 0 0 0 0 0 0 0 0 0 0.25 0"/>
<feBlend mode="normal" in2="shape" result="effect1_innerShadow_31_9352"/>
</filter>
<filter id="filter1_d_31_9352" x="4.93933" y="4.31817" width="22.0725" height="26.6741" filterUnits="userSpaceOnUse" color-interpolation-filters="sRGB">
<feFlood flood-opacity="0" result="BackgroundImageFix"/>
<feColorMatrix in="SourceAlpha" type="matrix" values="0 0 0 0 0 0 0 0 0 0 0 0 0 0 0 0 0 0 127 0" result="hardAlpha"/>
<feOffset dy="1.66852"/>
<feGaussianBlur stdDeviation="1.66852"/>
<feComposite in2="hardAlpha" operator="out"/>
<feColorMatrix type="matrix" values="0 0 0 0 0 0 0 0 0 0 0 0 0 0 0 0 0 0 0.25 0"/>
<feBlend mode="normal" in2="BackgroundImageFix" result="effect1_dropShadow_31_9352"/>
<feBlend mode="normal" in="SourceGraphic" in2="effect1_dropShadow_31_9352" result="shape"/>
</filter>
<linearGradient id="paint0_linear_31_9352" x1="16" y1="32" x2="16" y2="0" gradientUnits="userSpaceOnUse">
<stop stop-color="#D06F00"/>
<stop offset="1" stop-color="#FF9800"/>
</linearGradient>
<linearGradient id="paint1_linear_31_9352" x1="856.852" y1="617.812" x2="921.425" y2="401.9" gradientUnits="userSpaceOnUse">
<stop stop-color="#FF9700"/>
<stop offset="0.53" stop-color="#F48E00"/>
<stop offset="1" stop-color="#D06F00"/>
</linearGradient>
<clipPath id="clip0_31_9352">
<rect width="32" height="32" fill="white"/>
</clipPath>
</defs>
</svg>
