<svg width="32" height="32" viewBox="0 0 32 32" fill="none" xmlns="http://www.w3.org/2000/svg">
<g clip-path="url(#clip0_31_9360)">
<path d="M24 0H8C3.58172 0 0 3.58172 0 8V24C0 28.4183 3.58172 32 8 32H24C28.4183 32 32 28.4183 32 24V8C32 3.58172 28.4183 0 24 0Z" fill="url(#paint0_linear_31_9360)"/>
<g filter="url(#filter0_i_31_9360)">
<path d="M24 2H8C4.68629 2 2 4.68629 2 8V24C2 27.3137 4.68629 30 8 30H24C27.3137 30 30 27.3137 30 24V8C30 4.68629 27.3137 2 24 2Z" fill="black" fill-opacity="0.7"/>
<path fill-rule="evenodd" clip-rule="evenodd" d="M11.4042 7.43223C11.1235 7.15528 10.745 7 10.3507 7H6.5C5.67158 7 5 7.67158 5 8.5V23.5C5 24.3284 5.67158 25 6.5 25H25.5C26.3285 25 27 24.3284 27 23.5V11C27 10.1716 26.3285 9.5 25.5 9.5H14.1154C13.7211 9.5 13.3426 9.34472 13.0619 9.06777L11.4042 7.43223Z" fill="#5739A8"/>
<path d="M24.7582 10.75H7.24121C6.827 10.75 6.49121 11.0858 6.49121 11.5V20.75C6.49121 21.1642 6.827 21.5 7.24121 21.5H24.7582C25.1724 21.5 25.5082 21.1642 25.5082 20.75V11.5C25.5082 11.0858 25.1724 10.75 24.7582 10.75Z" fill="#FAFAFA"/>
<g filter="url(#filter1_d_31_9360)">
<path d="M5 13.5C5 12.6716 5.67158 12 6.5 12H25.5C26.3285 12 27 12.6716 27 13.5V23.5C27 24.3284 26.3285 25 25.5 25H6.5C5.67158 25 5 24.3284 5 23.5V13.5Z" fill="#7962E7"/>
</g>
</g>
</g>
<defs>
<filter id="filter0_i_31_9360" x="2" y="2" width="28" height="32" filterUnits="userSpaceOnUse" color-interpolation-filters="sRGB">
<feFlood flood-opacity="0" result="BackgroundImageFix"/>
<feBlend mode="normal" in="SourceGraphic" in2="BackgroundImageFix" result="shape"/>
<feColorMatrix in="SourceAlpha" type="matrix" values="0 0 0 0 0 0 0 0 0 0 0 0 0 0 0 0 0 0 127 0" result="hardAlpha"/>
<feOffset dy="4"/>
<feGaussianBlur stdDeviation="2"/>
<feComposite in2="hardAlpha" operator="arithmetic" k2="-1" k3="1"/>
<feColorMatrix type="matrix" values="0 0 0 0 0 0 0 0 0 0 0 0 0 0 0 0 0 0 0.25 0"/>
<feBlend mode="normal" in2="shape" result="effect1_innerShadow_31_9360"/>
</filter>
<filter id="filter1_d_31_9360" x="2" y="10.5" width="28" height="19" filterUnits="userSpaceOnUse" color-interpolation-filters="sRGB">
<feFlood flood-opacity="0" result="BackgroundImageFix"/>
<feColorMatrix in="SourceAlpha" type="matrix" values="0 0 0 0 0 0 0 0 0 0 0 0 0 0 0 0 0 0 127 0" result="hardAlpha"/>
<feOffset dy="1.5"/>
<feGaussianBlur stdDeviation="1.5"/>
<feComposite in2="hardAlpha" operator="out"/>
<feColorMatrix type="matrix" values="0 0 0 0 0 0 0 0 0 0 0 0 0 0 0 0 0 0 0.25 0"/>
<feBlend mode="normal" in2="BackgroundImageFix" result="effect1_dropShadow_31_9360"/>
<feBlend mode="normal" in="SourceGraphic" in2="effect1_dropShadow_31_9360" result="shape"/>
</filter>
<linearGradient id="paint0_linear_31_9360" x1="32" y1="0" x2="0" y2="32" gradientUnits="userSpaceOnUse">
<stop stop-color="#6653C3"/>
<stop offset="1" stop-color="#5638A5"/>
</linearGradient>
<clipPath id="clip0_31_9360">
<rect width="32" height="32" fill="white"/>
</clipPath>
</defs>
</svg>
