<svg width="32" height="32" viewBox="0 0 32 32" fill="none" xmlns="http://www.w3.org/2000/svg">
<g clip-path="url(#clip0_31_9397)">
<path d="M24 0H8C3.58172 0 0 3.58172 0 8V24C0 28.4183 3.58172 32 8 32H24C28.4183 32 32 28.4183 32 24V8C32 3.58172 28.4183 0 24 0Z" fill="url(#paint0_linear_31_9397)"/>
<g filter="url(#filter0_i_31_9397)">
<path d="M24 2H8C4.68629 2 2 4.68629 2 8V24C2 27.3137 4.68629 30 8 30H24C27.3137 30 30 27.3137 30 24V8C30 4.68629 27.3137 2 24 2Z" fill="black" fill-opacity="0.7"/>
<g filter="url(#filter1_d_31_9397)">
<path d="M7.5 9C7.5 6.79085 9.29085 5 11.5 5H20.5C22.7092 5 24.5 6.79085 24.5 9V23C24.5 25.2092 22.7092 27 20.5 27H11.5C9.29085 27 7.5 25.2092 7.5 23V9Z" fill="#7962E7"/>
</g>
<path d="M7.5 10H24.5V23C24.5 25.2092 22.7092 27 20.5 27H11.5C9.29085 27 7.5 25.2092 7.5 23V10Z" fill="#FAFAFA"/>
<path d="M15.5 16H10.5C9.94772 16 9.5 16.4477 9.5 17C9.5 17.5523 9.94772 18 10.5 18H15.5C16.0523 18 16.5 17.5523 16.5 17C16.5 16.4477 16.0523 16 15.5 16Z" fill="#222222"/>
<path d="M21.5 12H10.5C9.94772 12 9.5 12.4477 9.5 13C9.5 13.5523 9.94772 14 10.5 14H21.5C22.0523 14 22.5 13.5523 22.5 13C22.5 12.4477 22.0523 12 21.5 12Z" fill="#222222"/>
</g>
</g>
<defs>
<filter id="filter0_i_31_9397" x="2" y="2" width="28" height="32" filterUnits="userSpaceOnUse" color-interpolation-filters="sRGB">
<feFlood flood-opacity="0" result="BackgroundImageFix"/>
<feBlend mode="normal" in="SourceGraphic" in2="BackgroundImageFix" result="shape"/>
<feColorMatrix in="SourceAlpha" type="matrix" values="0 0 0 0 0 0 0 0 0 0 0 0 0 0 0 0 0 0 127 0" result="hardAlpha"/>
<feOffset dy="4"/>
<feGaussianBlur stdDeviation="2"/>
<feComposite in2="hardAlpha" operator="arithmetic" k2="-1" k3="1"/>
<feColorMatrix type="matrix" values="0 0 0 0 0 0 0 0 0 0 0 0 0 0 0 0 0 0 0.25 0"/>
<feBlend mode="normal" in2="shape" result="effect1_innerShadow_31_9397"/>
</filter>
<filter id="filter1_d_31_9397" x="3.5" y="3" width="25" height="30" filterUnits="userSpaceOnUse" color-interpolation-filters="sRGB">
<feFlood flood-opacity="0" result="BackgroundImageFix"/>
<feColorMatrix in="SourceAlpha" type="matrix" values="0 0 0 0 0 0 0 0 0 0 0 0 0 0 0 0 0 0 127 0" result="hardAlpha"/>
<feOffset dy="2"/>
<feGaussianBlur stdDeviation="2"/>
<feComposite in2="hardAlpha" operator="out"/>
<feColorMatrix type="matrix" values="0 0 0 0 0 0 0 0 0 0 0 0 0 0 0 0 0 0 0.25 0"/>
<feBlend mode="normal" in2="BackgroundImageFix" result="effect1_dropShadow_31_9397"/>
<feBlend mode="normal" in="SourceGraphic" in2="effect1_dropShadow_31_9397" result="shape"/>
</filter>
<linearGradient id="paint0_linear_31_9397" x1="32" y1="0" x2="0" y2="32" gradientUnits="userSpaceOnUse">
<stop stop-color="#6653C3"/>
<stop offset="1" stop-color="#5638A5"/>
</linearGradient>
<clipPath id="clip0_31_9397">
<rect width="32" height="32" fill="white"/>
</clipPath>
</defs>
</svg>
