<svg width="32" height="32" viewBox="0 0 32 32" fill="none" xmlns="http://www.w3.org/2000/svg">
<g clip-path="url(#clip0_31_9406)">
<path d="M24 0H8C3.58172 0 0 3.58172 0 8V24C0 28.4183 3.58172 32 8 32H24C28.4183 32 32 28.4183 32 24V8C32 3.58172 28.4183 0 24 0Z" fill="url(#paint0_linear_31_9406)"/>
<path d="M24 0H8C3.58172 0 0 3.58172 0 8V24C0 28.4183 3.58172 32 8 32H24C28.4183 32 32 28.4183 32 24V8C32 3.58172 28.4183 0 24 0Z" fill="black" fill-opacity="0.9"/>
<g filter="url(#filter0_i_31_9406)">
<path d="M24 2H8C4.68629 2 2 4.68629 2 8V24C2 27.3137 4.68629 30 8 30H24C27.3137 30 30 27.3137 30 24V8C30 4.68629 27.3137 2 24 2Z" fill="black" fill-opacity="0.7"/>
<path d="M20.7433 15.2696C20.6571 15.2283 20.5696 15.1886 20.481 15.1505C20.3266 12.3061 18.7724 10.6776 16.1626 10.6609C16.1507 10.6609 16.139 10.6609 16.1271 10.6609C14.5661 10.6609 13.2679 11.3272 12.4688 12.5396L13.9041 13.5243C14.5011 12.6186 15.4379 12.4255 16.1278 12.4255C16.1358 12.4255 16.1438 12.4255 16.1517 12.4256C17.011 12.4311 17.6594 12.6809 18.0791 13.1681C18.3845 13.5229 18.5888 14.013 18.69 14.6316C17.9281 14.5021 17.1041 14.4623 16.2233 14.5128C13.742 14.6558 12.1468 16.1029 12.254 18.1138C12.3083 19.1338 12.8165 20.0112 13.6848 20.5845C14.4189 21.069 15.3643 21.306 16.347 21.2524C17.6446 21.1812 18.6627 20.6861 19.3729 19.7808C19.9123 19.0933 20.2534 18.2024 20.404 17.0798C21.0225 17.453 21.4808 17.9442 21.7339 18.5346C22.1643 19.5382 22.1894 21.1875 20.8437 22.5321C19.6646 23.71 18.2474 24.2196 16.1054 24.2353C13.7295 24.2177 11.9325 23.4557 10.7642 21.9705C9.6702 20.5798 9.10483 18.571 9.08373 16C9.10483 13.4289 9.6702 11.4202 10.7642 10.0295C11.9325 8.54425 13.7294 7.7823 16.1054 7.76463C18.4986 7.78243 20.3268 8.54805 21.5399 10.0404C22.1346 10.7723 22.5831 11.6926 22.8787 12.7656L24.5607 12.3169C24.2024 10.9961 23.6385 9.85787 22.8712 8.91395C21.3161 7.0007 19.0417 6.02032 16.1113 6H16.0995C13.175 6.02025 10.9261 7.00435 9.4153 8.92492C8.07088 10.634 7.37738 13.0121 7.35408 15.993L7.354 16L7.35408 16.007C7.37738 18.9879 8.07088 21.366 9.4153 23.0751C10.9261 24.9956 13.175 25.9797 16.0995 26H16.1113C18.7113 25.982 20.544 25.3013 22.0538 23.7928C24.0291 21.8194 23.9696 19.3457 23.3186 17.8272C22.8515 16.7382 21.961 15.8538 20.7433 15.2696ZM16.2541 19.4903C15.1666 19.5516 14.0368 19.0634 13.9811 18.0179C13.9398 17.2427 14.5328 16.3777 16.3208 16.2747C16.5256 16.2629 16.7265 16.2571 16.9239 16.2571C17.5734 16.2571 18.181 16.3202 18.7334 16.4409C18.5274 19.0141 17.3188 19.4319 16.2541 19.4903Z" fill="white"/>
</g>
</g>
<defs>
<filter id="filter0_i_31_9406" x="2" y="2" width="28" height="32" filterUnits="userSpaceOnUse" color-interpolation-filters="sRGB">
<feFlood flood-opacity="0" result="BackgroundImageFix"/>
<feBlend mode="normal" in="SourceGraphic" in2="BackgroundImageFix" result="shape"/>
<feColorMatrix in="SourceAlpha" type="matrix" values="0 0 0 0 0 0 0 0 0 0 0 0 0 0 0 0 0 0 127 0" result="hardAlpha"/>
<feOffset dy="4"/>
<feGaussianBlur stdDeviation="2"/>
<feComposite in2="hardAlpha" operator="arithmetic" k2="-1" k3="1"/>
<feColorMatrix type="matrix" values="0 0 0 0 0 0 0 0 0 0 0 0 0 0 0 0 0 0 0.25 0"/>
<feBlend mode="normal" in2="shape" result="effect1_innerShadow_31_9406"/>
</filter>
<linearGradient id="paint0_linear_31_9406" x1="16" y1="0" x2="16" y2="32" gradientUnits="userSpaceOnUse">
<stop stop-color="white"/>
<stop offset="1" stop-color="#DFDFDF"/>
</linearGradient>
<clipPath id="clip0_31_9406">
<rect width="32" height="32" fill="white"/>
</clipPath>
</defs>
</svg>
