<svg width="32" height="32" viewBox="0 0 32 32" fill="none" xmlns="http://www.w3.org/2000/svg">
<g clip-path="url(#clip0_31_9412)">
<path d="M24 0H8C3.58172 0 0 3.58172 0 8V24C0 28.4183 3.58172 32 8 32H24C28.4183 32 32 28.4183 32 24V8C32 3.58172 28.4183 0 24 0Z" fill="url(#paint0_linear_31_9412)"/>
<path d="M24 0H8C3.58172 0 0 3.58172 0 8V24C0 28.4183 3.58172 32 8 32H24C28.4183 32 32 28.4183 32 24V8C32 3.58172 28.4183 0 24 0Z" fill="url(#paint1_linear_31_9412)"/>
<g filter="url(#filter0_i_31_9412)">
<path d="M24 2H8C4.68629 2 2 4.68629 2 8V24C2 27.3137 4.68629 30 8 30H24C27.3137 30 30 27.3137 30 24V8C30 4.68629 27.3137 2 24 2Z" fill="black" fill-opacity="0.7"/>
<path d="M16 25.6095C21.3071 25.6095 25.6095 21.3071 25.6095 16C25.6095 10.6929 21.3071 6.39062 16 6.39062C10.6929 6.39062 6.39062 10.6929 6.39062 16C6.39062 21.3071 10.6929 25.6095 16 25.6095Z" fill="#F2E4FF"/>
<path fill-rule="evenodd" clip-rule="evenodd" d="M16.0205 24.1812V22.969C19.8604 22.9579 22.9696 19.8424 22.9696 15.9997C22.9696 12.1574 19.8604 9.0418 16.0205 9.03072V7.81847C20.5299 7.82985 24.1815 11.4879 24.1815 15.9997C24.1815 20.5118 20.5299 24.1701 16.0205 24.1812ZM16.0205 19.9383C18.1863 19.9269 19.9394 18.1686 19.9394 15.9997C19.9394 13.8311 18.1863 12.0728 16.0205 12.0614V10.8495C18.8561 10.8606 21.1516 13.1617 21.1516 15.9997C21.1516 18.8381 18.8561 21.1391 16.0205 21.1502V19.9383ZM16.0205 13.8796C17.1823 13.8907 18.1212 14.8352 18.1212 15.9997C18.1212 17.1646 17.1823 18.109 16.0205 18.1201V13.8796ZM6 15.9997C6 21.5228 10.4769 26 16 26C21.5228 26 26 21.5228 26 15.9997C26 10.4769 21.5228 6 16 6C10.4769 6 6 10.4769 6 15.9997Z" fill="#941AD0"/>
<g filter="url(#filter1_d_31_9412)">
<path d="M16 7.1328C11.0165 7.1328 6.97656 11.1552 6.97656 16.1172C6.97656 21.0791 11.0165 25.1015 16 25.1015V7.1328Z" fill="black"/>
</g>
<path d="M16 6C10.4771 6 6 10.4771 6 16C6 21.5229 10.4771 26 16 26V6Z" fill="#8116B6"/>
</g>
</g>
<defs>
<filter id="filter0_i_31_9412" x="2" y="2" width="28" height="32" filterUnits="userSpaceOnUse" color-interpolation-filters="sRGB">
<feFlood flood-opacity="0" result="BackgroundImageFix"/>
<feBlend mode="normal" in="SourceGraphic" in2="BackgroundImageFix" result="shape"/>
<feColorMatrix in="SourceAlpha" type="matrix" values="0 0 0 0 0 0 0 0 0 0 0 0 0 0 0 0 0 0 127 0" result="hardAlpha"/>
<feOffset dy="4"/>
<feGaussianBlur stdDeviation="2"/>
<feComposite in2="hardAlpha" operator="arithmetic" k2="-1" k3="1"/>
<feColorMatrix type="matrix" values="0 0 0 0 0 0 0 0 0 0 0 0 0 0 0 0 0 0 0.25 0"/>
<feBlend mode="normal" in2="shape" result="effect1_innerShadow_31_9412"/>
</filter>
<filter id="filter1_d_31_9412" x="2.60156" y="4.0078" width="15.2734" height="24.2187" filterUnits="userSpaceOnUse" color-interpolation-filters="sRGB">
<feFlood flood-opacity="0" result="BackgroundImageFix"/>
<feColorMatrix in="SourceAlpha" type="matrix" values="0 0 0 0 0 0 0 0 0 0 0 0 0 0 0 0 0 0 127 0" result="hardAlpha"/>
<feOffset dx="-1.25"/>
<feGaussianBlur stdDeviation="1.5625"/>
<feColorMatrix type="matrix" values="0 0 0 0 0.25098 0 0 0 0 0.25098 0 0 0 0 0.25098 0 0 0 0.2 0"/>
<feBlend mode="normal" in2="BackgroundImageFix" result="effect1_dropShadow_31_9412"/>
<feBlend mode="normal" in="SourceGraphic" in2="effect1_dropShadow_31_9412" result="shape"/>
</filter>
<linearGradient id="paint0_linear_31_9412" x1="48.05" y1="-8.84537" x2="-7.08992" y2="31.9867" gradientUnits="userSpaceOnUse">
<stop stop-color="#D446FF"/>
<stop offset="1" stop-color="#A0D8FF"/>
</linearGradient>
<linearGradient id="paint1_linear_31_9412" x1="16" y1="0" x2="16" y2="32" gradientUnits="userSpaceOnUse">
<stop stop-color="#951AD1"/>
<stop offset="1" stop-color="#6C1397"/>
</linearGradient>
<clipPath id="clip0_31_9412">
<rect width="32" height="32" fill="white"/>
</clipPath>
</defs>
</svg>
