<svg width="32" height="32" viewBox="0 0 32 32" fill="none" xmlns="http://www.w3.org/2000/svg">
<g clip-path="url(#clip0_31_9422)">
<path d="M24 0H8C3.58172 0 0 3.58172 0 8V24C0 28.4183 3.58172 32 8 32H24C28.4183 32 32 28.4183 32 24V8C32 3.58172 28.4183 0 24 0Z" fill="#D3B9FF"/>
<path d="M24 0H8C3.58172 0 0 3.58172 0 8V24C0 28.4183 3.58172 32 8 32H24C28.4183 32 32 28.4183 32 24V8C32 3.58172 28.4183 0 24 0Z" fill="url(#paint0_linear_31_9422)"/>
<path d="M24 0H8C3.58172 0 0 3.58172 0 8V24C0 28.4183 3.58172 32 8 32H24C28.4183 32 32 28.4183 32 24V8C32 3.58172 28.4183 0 24 0Z" fill="url(#paint1_linear_31_9422)"/>
<g filter="url(#filter0_i_31_9422)">
<path d="M24 2H8C4.68629 2 2 4.68629 2 8V24C2 27.3137 4.68629 30 8 30H24C27.3137 30 30 27.3137 30 24V8C30 4.68629 27.3137 2 24 2Z" fill="black" fill-opacity="0.7"/>
<g filter="url(#filter1_d_31_9422)">
<path d="M6.625 13.7498L11.875 11.4998V17.8748C11.875 20.153 13.7218 21.9998 16 21.9998C18.2782 21.9998 20.125 20.153 20.125 17.8748V7.74985L25.375 5.49985V18.9998C25.375 23.142 22.0171 26.4997 17.875 26.4997H14.125C9.98287 26.4997 6.625 23.142 6.625 18.9998V13.7498Z" fill="#C10080"/>
<path d="M6.625 13.7498L11.875 11.4998V17.8748C11.875 20.153 13.7218 21.9998 16 21.9998C18.2782 21.9998 20.125 20.153 20.125 17.8748V7.74985L25.375 5.49985V18.9998C25.375 23.142 22.0171 26.4997 17.875 26.4997H14.125C9.98287 26.4997 6.625 23.142 6.625 18.9998V13.7498Z" fill="#8B00E7"/>
</g>
<g filter="url(#filter2_d_31_9422)">
<path d="M14.125 26.4997H17.875C22.0171 26.4997 25.375 23.142 25.375 18.9998V15.2498C24.625 11.8748 23.3588 10.323 20.125 8.49985V17.8748C20.125 22.2241 15.0992 25.6992 10.75 25.6992C11.7644 26.2115 12.911 26.4997 14.125 26.4997Z" fill="#D3B9FF"/>
<path d="M14.125 26.4997H17.875C22.0171 26.4997 25.375 23.142 25.375 18.9998V15.2498C24.625 11.8748 23.3588 10.323 20.125 8.49985V17.8748C20.125 22.2241 15.0992 25.6992 10.75 25.6992C11.7644 26.2115 12.911 26.4997 14.125 26.4997Z" fill="#D404FF"/>
</g>
</g>
</g>
<defs>
<filter id="filter0_i_31_9422" x="2" y="2" width="28" height="30" filterUnits="userSpaceOnUse" color-interpolation-filters="sRGB">
<feFlood flood-opacity="0" result="BackgroundImageFix"/>
<feBlend mode="normal" in="SourceGraphic" in2="BackgroundImageFix" result="shape"/>
<feColorMatrix in="SourceAlpha" type="matrix" values="0 0 0 0 0 0 0 0 0 0 0 0 0 0 0 0 0 0 127 0" result="hardAlpha"/>
<feOffset dy="2"/>
<feGaussianBlur stdDeviation="2"/>
<feComposite in2="hardAlpha" operator="arithmetic" k2="-1" k3="1"/>
<feColorMatrix type="matrix" values="0 0 0 0 0 0 0 0 0 0 0 0 0 0 0 0 0 0 0.25 0"/>
<feBlend mode="normal" in2="shape" result="effect1_innerShadow_31_9422"/>
</filter>
<filter id="filter1_d_31_9422" x="2.625" y="3.49985" width="26.75" height="28.9999" filterUnits="userSpaceOnUse" color-interpolation-filters="sRGB">
<feFlood flood-opacity="0" result="BackgroundImageFix"/>
<feColorMatrix in="SourceAlpha" type="matrix" values="0 0 0 0 0 0 0 0 0 0 0 0 0 0 0 0 0 0 127 0" result="hardAlpha"/>
<feOffset dy="2"/>
<feGaussianBlur stdDeviation="2"/>
<feComposite in2="hardAlpha" operator="out"/>
<feColorMatrix type="matrix" values="0 0 0 0 0 0 0 0 0 0 0 0 0 0 0 0 0 0 0.25 0"/>
<feBlend mode="normal" in2="BackgroundImageFix" result="effect1_dropShadow_31_9422"/>
<feBlend mode="normal" in="SourceGraphic" in2="effect1_dropShadow_31_9422" result="shape"/>
</filter>
<filter id="filter2_d_31_9422" x="6.75" y="6.49985" width="22.625" height="25.9999" filterUnits="userSpaceOnUse" color-interpolation-filters="sRGB">
<feFlood flood-opacity="0" result="BackgroundImageFix"/>
<feColorMatrix in="SourceAlpha" type="matrix" values="0 0 0 0 0 0 0 0 0 0 0 0 0 0 0 0 0 0 127 0" result="hardAlpha"/>
<feOffset dy="2"/>
<feGaussianBlur stdDeviation="2"/>
<feComposite in2="hardAlpha" operator="out"/>
<feColorMatrix type="matrix" values="0 0 0 0 0 0 0 0 0 0 0 0 0 0 0 0 0 0 0.25 0"/>
<feBlend mode="normal" in2="BackgroundImageFix" result="effect1_dropShadow_31_9422"/>
<feBlend mode="normal" in="SourceGraphic" in2="effect1_dropShadow_31_9422" result="shape"/>
</filter>
<linearGradient id="paint0_linear_31_9422" x1="16" y1="0" x2="16" y2="32" gradientUnits="userSpaceOnUse">
<stop stop-color="#CB02C5"/>
<stop offset="0.244792" stop-color="#C101DA"/>
<stop offset="0.510417" stop-color="#B600F0"/>
<stop offset="0.744792" stop-color="#8900D9"/>
<stop offset="1" stop-color="#5800BF"/>
</linearGradient>
<linearGradient id="paint1_linear_31_9422" x1="16" y1="0" x2="16" y2="32" gradientUnits="userSpaceOnUse">
<stop offset="0.125" stop-color="#CB02C5"/>
<stop offset="0.333333" stop-color="#C101DA"/>
<stop offset="0.635417" stop-color="#B600F0"/>
<stop offset="0.864583" stop-color="#8900D9"/>
</linearGradient>
<clipPath id="clip0_31_9422">
<rect width="32" height="32" fill="white"/>
</clipPath>
</defs>
</svg>
