<svg width="32" height="32" viewBox="0 0 32 32" fill="none" xmlns="http://www.w3.org/2000/svg">
<g clip-path="url(#clip0_31_9434)">
<path d="M24 0H8C3.58172 0 0 3.58172 0 8V24C0 28.4183 3.58172 32 8 32H24C28.4183 32 32 28.4183 32 24V8C32 3.58172 28.4183 0 24 0Z" fill="url(#paint0_linear_31_9434)"/>
<path d="M24 0H8C3.58172 0 0 3.58172 0 8V24C0 28.4183 3.58172 32 8 32H24C28.4183 32 32 28.4183 32 24V8C32 3.58172 28.4183 0 24 0Z" fill="url(#paint1_linear_31_9434)"/>
<g filter="url(#filter0_i_31_9434)">
<path d="M24 2H8C4.68629 2 2 4.68629 2 8V24C2 27.3137 4.68629 30 8 30H24C27.3137 30 30 27.3137 30 24V8C30 4.68629 27.3137 2 24 2Z" fill="black" fill-opacity="0.7"/>
<mask id="mask0_31_9434" style="mask-type:luminance" maskUnits="userSpaceOnUse" x="4" y="4" width="24" height="24">
<path d="M28 4H4V28H28V4Z" fill="white"/>
</mask>
<g mask="url(#mask0_31_9434)">
<g filter="url(#filter1_d_31_9434)">
<path d="M23.5357 12.6606L8.83623 14.2377C7.96221 14.331 7.08528 14.0901 6.38148 13.5636C5.67768 13.037 5.19916 12.2637 5.04193 11.3989C4.95928 10.9421 4.96886 10.4735 5.07008 10.0205C5.17133 9.56758 5.36218 9.13943 5.63141 8.76135C5.90063 8.3833 6.24281 8.0629 6.63776 7.8191C7.03271 7.5753 7.47243 7.41298 7.93108 7.34173L22.5414 5.072C23.1066 4.98413 23.6843 5.0241 24.2321 5.18898C24.7798 5.35388 25.2836 5.63948 25.7064 6.02478C26.1291 6.41008 26.4604 6.88525 26.6751 7.41538C26.8901 7.9455 26.9834 8.51705 26.9481 9.088C26.8939 9.9909 26.5211 10.8453 25.8964 11.4994C25.2716 12.1535 24.4351 12.5649 23.5357 12.6606Z" fill="url(#paint2_linear_31_9434)"/>
</g>
<g filter="url(#filter2_d_31_9434)">
<path d="M18.1025 25.4492L6.00418 13.2251C5.66028 12.8775 5.39341 12.4614 5.22093 12.0038C5.04846 11.5463 4.97426 11.0575 5.00316 10.5694C5.03206 10.0813 5.16338 9.60467 5.38863 9.17064C5.61386 8.73664 5.92796 8.35489 6.31046 8.05027C6.89018 7.58952 7.60181 7.32577 8.34178 7.29742C9.08176 7.26904 9.81146 7.47754 10.4248 7.89257L24.667 17.5474C25.3276 17.9958 25.8754 18.5913 26.2671 19.2872C26.6586 19.983 26.8836 20.7602 26.9241 21.5576C26.9646 22.355 26.8196 23.151 26.5006 23.883C26.1816 24.6149 25.6971 25.263 25.0854 25.776C24.0926 26.6075 22.8236 27.0352 21.5301 26.9747C20.2367 26.9142 19.0132 26.3697 18.1025 25.4492Z" fill="url(#paint3_linear_31_9434)"/>
</g>
<g filter="url(#filter3_d_31_9434)">
<path d="M20.8364 5.77827L6.70151 16.3428C6.40304 16.5655 6.15389 16.8475 5.96966 17.1711C5.78546 17.4948 5.67019 17.853 5.63111 18.2233C5.59204 18.5936 5.63001 18.968 5.74264 19.3229C5.85526 19.6779 6.04009 20.0057 6.28551 20.2857C6.69441 20.7508 7.25089 21.061 7.86149 21.1642C8.47209 21.2674 9.09961 21.1574 9.63866 20.8526L25.0033 12.1668C25.4993 11.8869 25.9265 11.4996 26.2538 11.0334C26.581 10.5671 26.7998 10.0337 26.8945 9.47202C26.989 8.91035 26.957 8.33462 26.8008 7.7869C26.6443 7.2392 26.3675 6.73332 25.9908 6.30627C25.3545 5.58745 24.4714 5.13412 23.5166 5.0363C22.5617 4.9385 21.605 5.20335 20.8364 5.77827Z" fill="url(#paint4_linear_31_9434)"/>
</g>
<g filter="url(#filter4_d_31_9434)">
<path d="M19.6566 26.5303L7.19949 20.9349C6.83006 20.7703 6.50266 20.5243 6.24179 20.2153C5.98091 19.9062 5.79334 19.5422 5.69306 19.1504C5.59281 18.7586 5.58249 18.3492 5.66286 17.9529C5.74324 17.5565 5.91224 17.1835 6.15719 16.8617C6.42374 16.5138 6.77144 16.2365 7.16986 16.0541C7.56831 15.8716 8.00539 15.7894 8.44291 15.8149L22.0818 16.6537C22.8937 16.7033 23.6825 16.9438 24.3839 17.3557C25.0853 17.7677 25.6798 18.3393 26.1185 19.0243C26.5573 19.7092 26.8283 20.4881 26.9093 21.2975C26.9903 22.1069 26.879 22.924 26.5845 23.6823C26.3305 24.335 25.9468 24.9294 25.4563 25.4293C24.9656 25.9293 24.3786 26.3243 23.7308 26.5908C23.083 26.857 22.3879 26.989 21.6875 26.9785C20.9872 26.9683 20.2963 26.8158 19.6566 26.5303Z" fill="url(#paint5_linear_31_9434)"/>
</g>
<g filter="url(#filter5_d_31_9434)">
<path d="M9.14258 9.14285H22.8569V22.8572H9.14258V9.14285Z" fill="black"/>
</g>
<path d="M10.8525 20.2651H15.9954V21.1223H10.8525V20.2651Z" fill="white"/>
<path d="M10.8564 13.7897V10.8366H11.9993V13.76C11.9993 14.6012 12.4199 15.0354 13.1147 15.0354C13.8096 15.0354 14.2279 14.6149 14.2279 13.7966V10.8366H15.3707V13.7509C15.3707 15.3166 14.493 16.0846 13.1056 16.0846C11.7182 16.0846 10.8564 15.3097 10.8564 13.7897Z" fill="white"/>
<path d="M16.4014 10.8366H18.5134C19.7454 10.8366 20.4905 11.568 20.4905 12.624V12.6377C20.4905 13.8332 19.5603 14.4526 18.4014 14.4526H17.5374V16.0023H16.3945L16.4014 10.8366ZM18.438 13.4423C19.0071 13.4423 19.3385 13.1017 19.3385 12.6606V12.6446C19.3385 12.1372 18.9843 11.8629 18.4243 11.8629H17.5374V13.4423H18.438Z" fill="white"/>
</g>
</g>
</g>
<defs>
<filter id="filter0_i_31_9434" x="2" y="2" width="28" height="32" filterUnits="userSpaceOnUse" color-interpolation-filters="sRGB">
<feFlood flood-opacity="0" result="BackgroundImageFix"/>
<feBlend mode="normal" in="SourceGraphic" in2="BackgroundImageFix" result="shape"/>
<feColorMatrix in="SourceAlpha" type="matrix" values="0 0 0 0 0 0 0 0 0 0 0 0 0 0 0 0 0 0 127 0" result="hardAlpha"/>
<feOffset dy="4"/>
<feGaussianBlur stdDeviation="2"/>
<feComposite in2="hardAlpha" operator="arithmetic" k2="-1" k3="1"/>
<feColorMatrix type="matrix" values="0 0 0 0 0 0 0 0 0 0 0 0 0 0 0 0 0 0 0.25 0"/>
<feBlend mode="normal" in2="shape" result="effect1_innerShadow_31_9434"/>
</filter>
<filter id="filter1_d_31_9434" x="0.986328" y="3.02658" width="29.9688" height="17.2308" filterUnits="userSpaceOnUse" color-interpolation-filters="sRGB">
<feFlood flood-opacity="0" result="BackgroundImageFix"/>
<feColorMatrix in="SourceAlpha" type="matrix" values="0 0 0 0 0 0 0 0 0 0 0 0 0 0 0 0 0 0 127 0" result="hardAlpha"/>
<feOffset dy="2"/>
<feGaussianBlur stdDeviation="2"/>
<feComposite in2="hardAlpha" operator="out"/>
<feColorMatrix type="matrix" values="0 0 0 0 0 0 0 0 0 0 0 0 0 0 0 0 0 0 0.25 0"/>
<feBlend mode="normal" in2="BackgroundImageFix" result="effect1_dropShadow_31_9434"/>
<feBlend mode="normal" in="SourceGraphic" in2="effect1_dropShadow_31_9434" result="shape"/>
</filter>
<filter id="filter2_d_31_9434" x="0.99707" y="5.29486" width="29.9336" height="27.6855" filterUnits="userSpaceOnUse" color-interpolation-filters="sRGB">
<feFlood flood-opacity="0" result="BackgroundImageFix"/>
<feColorMatrix in="SourceAlpha" type="matrix" values="0 0 0 0 0 0 0 0 0 0 0 0 0 0 0 0 0 0 127 0" result="hardAlpha"/>
<feOffset dy="2"/>
<feGaussianBlur stdDeviation="2"/>
<feComposite in2="hardAlpha" operator="out"/>
<feColorMatrix type="matrix" values="0 0 0 0 0 0 0 0 0 0 0 0 0 0 0 0 0 0 0.25 0"/>
<feBlend mode="normal" in2="BackgroundImageFix" result="effect1_dropShadow_31_9434"/>
<feBlend mode="normal" in="SourceGraphic" in2="effect1_dropShadow_31_9434" result="shape"/>
</filter>
<filter id="filter3_d_31_9434" x="1.61621" y="3.01639" width="29.3311" height="24.1855" filterUnits="userSpaceOnUse" color-interpolation-filters="sRGB">
<feFlood flood-opacity="0" result="BackgroundImageFix"/>
<feColorMatrix in="SourceAlpha" type="matrix" values="0 0 0 0 0 0 0 0 0 0 0 0 0 0 0 0 0 0 127 0" result="hardAlpha"/>
<feOffset dy="2"/>
<feGaussianBlur stdDeviation="2"/>
<feComposite in2="hardAlpha" operator="out"/>
<feColorMatrix type="matrix" values="0 0 0 0 0 0 0 0 0 0 0 0 0 0 0 0 0 0 0.25 0"/>
<feBlend mode="normal" in2="BackgroundImageFix" result="effect1_dropShadow_31_9434"/>
<feBlend mode="normal" in="SourceGraphic" in2="effect1_dropShadow_31_9434" result="shape"/>
</filter>
<filter id="filter4_d_31_9434" x="1.60938" y="13.8103" width="29.3252" height="19.1687" filterUnits="userSpaceOnUse" color-interpolation-filters="sRGB">
<feFlood flood-opacity="0" result="BackgroundImageFix"/>
<feColorMatrix in="SourceAlpha" type="matrix" values="0 0 0 0 0 0 0 0 0 0 0 0 0 0 0 0 0 0 127 0" result="hardAlpha"/>
<feOffset dy="2"/>
<feGaussianBlur stdDeviation="2"/>
<feComposite in2="hardAlpha" operator="out"/>
<feColorMatrix type="matrix" values="0 0 0 0 0 0 0 0 0 0 0 0 0 0 0 0 0 0 0.25 0"/>
<feBlend mode="normal" in2="BackgroundImageFix" result="effect1_dropShadow_31_9434"/>
<feBlend mode="normal" in="SourceGraphic" in2="effect1_dropShadow_31_9434" result="shape"/>
</filter>
<filter id="filter5_d_31_9434" x="5.14258" y="7.14285" width="21.7139" height="21.7143" filterUnits="userSpaceOnUse" color-interpolation-filters="sRGB">
<feFlood flood-opacity="0" result="BackgroundImageFix"/>
<feColorMatrix in="SourceAlpha" type="matrix" values="0 0 0 0 0 0 0 0 0 0 0 0 0 0 0 0 0 0 127 0" result="hardAlpha"/>
<feOffset dy="2"/>
<feGaussianBlur stdDeviation="2"/>
<feComposite in2="hardAlpha" operator="out"/>
<feColorMatrix type="matrix" values="0 0 0 0 0 0 0 0 0 0 0 0 0 0 0 0 0 0 0.25 0"/>
<feBlend mode="normal" in2="BackgroundImageFix" result="effect1_dropShadow_31_9434"/>
<feBlend mode="normal" in="SourceGraphic" in2="effect1_dropShadow_31_9434" result="shape"/>
</filter>
<linearGradient id="paint0_linear_31_9434" x1="16" y1="0" x2="16" y2="32" gradientUnits="userSpaceOnUse">
<stop stop-color="#3BEA62"/>
<stop offset="0.5" stop-color="#009AE5"/>
<stop offset="1" stop-color="#6B57FF"/>
</linearGradient>
<linearGradient id="paint1_linear_31_9434" x1="26.8853" y1="7.04212" x2="-0.568518" y2="20.3314" gradientUnits="userSpaceOnUse">
<stop stop-color="#FC801D"/>
<stop offset="0.661458" stop-color="#6B57FF"/>
<stop offset="1" stop-color="#08C1F2"/>
</linearGradient>
<linearGradient id="paint2_linear_31_9434" x1="26.1551" y1="8.45258" x2="10.6785" y2="10.5143" gradientUnits="userSpaceOnUse">
<stop stop-color="#FC801D"/>
<stop offset="1" stop-color="#6B57FF"/>
</linearGradient>
<linearGradient id="paint3_linear_31_9434" x1="15.8693" y1="16.7954" x2="17.1905" y2="11.2091" gradientUnits="userSpaceOnUse">
<stop stop-color="#07C3F2"/>
<stop offset="1" stop-color="#6B57FF"/>
</linearGradient>
<linearGradient id="paint4_linear_31_9434" x1="23.5381" y1="8.57828" x2="7.48324" y2="18.8206" gradientUnits="userSpaceOnUse">
<stop stop-color="#FC801D"/>
<stop offset="0.92" stop-color="#6B57FF"/>
</linearGradient>
<linearGradient id="paint5_linear_31_9434" x1="25.451" y1="23.1406" x2="8.31491" y2="16.9486" gradientUnits="userSpaceOnUse">
<stop stop-color="#07C3F2"/>
<stop offset="1" stop-color="#6B57FF"/>
</linearGradient>
<clipPath id="clip0_31_9434">
<rect width="32" height="32" fill="white"/>
</clipPath>
</defs>
</svg>
