<svg width="32" height="32" viewBox="0 0 32 32" fill="none" xmlns="http://www.w3.org/2000/svg">
<g clip-path="url(#clip0_31_9456)">
<path d="M24 0H8C3.58172 0 0 3.58172 0 8V24C0 28.4183 3.58172 32 8 32H24C28.4183 32 32 28.4183 32 24V8C32 3.58172 28.4183 0 24 0Z" fill="url(#paint0_linear_31_9456)"/>
<g filter="url(#filter0_i_31_9456)">
<path d="M24 2H8C4.68629 2 2 4.68629 2 8V24C2 27.3137 4.68629 30 8 30H24C27.3137 30 30 27.3137 30 24V8C30 4.68629 27.3137 2 24 2Z" fill="black" fill-opacity="0.7"/>
<g filter="url(#filter1_d_31_9456)">
<path d="M23.0689 8.93027C19.1666 5.02324 12.8349 5.02324 8.92672 8.93027C5.02443 12.8373 5.02443 19.1686 8.92672 23.0697C12.829 26.9767 19.1607 26.9767 23.0689 23.0697C26.977 19.1627 26.977 12.8314 23.0689 8.93027ZM22.4703 13.5257C20.8214 16.3913 19.1725 19.2568 17.5235 22.1283C17.2184 22.6637 16.7724 22.9815 16.1621 23.0285C15.4814 23.0756 14.9416 22.7873 14.5953 22.1989C13.5508 20.4042 12.518 18.5978 11.4852 16.7973C10.8573 15.7028 10.2236 14.6084 9.59567 13.5081C8.96192 12.4019 9.67785 11.0544 10.9453 10.9897C11.6143 10.9544 12.1307 11.2662 12.4711 11.8488C12.9346 12.6431 13.3923 13.4492 13.8559 14.2495C14.1904 14.8261 14.5132 15.4086 14.8535 15.9735C15.3465 16.8032 16.0741 17.268 17.0423 17.3268C18.4096 17.4092 19.683 16.4148 19.8473 14.9614C19.859 14.8555 19.8649 14.7437 19.8708 14.6908C19.8649 14.2201 19.7769 13.8199 19.5891 13.4492C19.0786 12.4254 19.6243 11.278 20.7334 11.0309C21.6371 10.8308 22.576 11.4957 22.6933 12.4136C22.752 12.8079 22.6699 13.1786 22.4703 13.5257Z" fill="white"/>
</g>
</g>
</g>
<defs>
<filter id="filter0_i_31_9456" x="2" y="2" width="28" height="32" filterUnits="userSpaceOnUse" color-interpolation-filters="sRGB">
<feFlood flood-opacity="0" result="BackgroundImageFix"/>
<feBlend mode="normal" in="SourceGraphic" in2="BackgroundImageFix" result="shape"/>
<feColorMatrix in="SourceAlpha" type="matrix" values="0 0 0 0 0 0 0 0 0 0 0 0 0 0 0 0 0 0 127 0" result="hardAlpha"/>
<feOffset dy="4"/>
<feGaussianBlur stdDeviation="2"/>
<feComposite in2="hardAlpha" operator="arithmetic" k2="-1" k3="1"/>
<feColorMatrix type="matrix" values="0 0 0 0 0 0 0 0 0 0 0 0 0 0 0 0 0 0 0.25 0"/>
<feBlend mode="normal" in2="shape" result="effect1_innerShadow_31_9456"/>
</filter>
<filter id="filter1_d_31_9456" x="2" y="4" width="28" height="28" filterUnits="userSpaceOnUse" color-interpolation-filters="sRGB">
<feFlood flood-opacity="0" result="BackgroundImageFix"/>
<feColorMatrix in="SourceAlpha" type="matrix" values="0 0 0 0 0 0 0 0 0 0 0 0 0 0 0 0 0 0 127 0" result="hardAlpha"/>
<feOffset dy="2"/>
<feGaussianBlur stdDeviation="2"/>
<feComposite in2="hardAlpha" operator="out"/>
<feColorMatrix type="matrix" values="0 0 0 0 0 0 0 0 0 0 0 0 0 0 0 0 0 0 0.25 0"/>
<feBlend mode="normal" in2="BackgroundImageFix" result="effect1_dropShadow_31_9456"/>
<feBlend mode="normal" in="SourceGraphic" in2="effect1_dropShadow_31_9456" result="shape"/>
</filter>
<linearGradient id="paint0_linear_31_9456" x1="32" y1="0" x2="0" y2="32" gradientUnits="userSpaceOnUse">
<stop stop-color="#EF3939"/>
<stop offset="1" stop-color="#BF2E2E"/>
</linearGradient>
<clipPath id="clip0_31_9456">
<rect width="32" height="32" fill="white"/>
</clipPath>
</defs>
</svg>
