<svg width="32" height="32" viewBox="0 0 32 32" fill="none" xmlns="http://www.w3.org/2000/svg">
<g clip-path="url(#clip0_31_9462)">
<path d="M24 0H8C3.58172 0 0 3.58172 0 8V24C0 28.4183 3.58172 32 8 32H24C28.4183 32 32 28.4183 32 24V8C32 3.58172 28.4183 0 24 0Z" fill="url(#paint0_linear_31_9462)"/>
<path d="M24 0H8C3.58172 0 0 3.58172 0 8V24C0 28.4183 3.58172 32 8 32H24C28.4183 32 32 28.4183 32 24V8C32 3.58172 28.4183 0 24 0Z" fill="url(#paint1_linear_31_9462)"/>
<g filter="url(#filter0_i_31_9462)">
<path d="M24 2H8C4.68629 2 2 4.68629 2 8V24C2 27.3137 4.68629 30 8 30H24C27.3137 30 30 27.3137 30 24V8C30 4.68629 27.3137 2 24 2Z" fill="black" fill-opacity="0.7"/>
<mask id="mask0_31_9462" style="mask-type:luminance" maskUnits="userSpaceOnUse" x="8" y="7" width="16" height="18">
<path d="M23.75 7.25H8.25V24.75H23.75V7.25Z" fill="white"/>
</mask>
<g mask="url(#mask0_31_9462)">
<g filter="url(#filter1_d_31_9462)">
<path fill-rule="evenodd" clip-rule="evenodd" d="M8.66921 23.4992C8.66921 23.4992 8.42291 23.7641 8.35779 23.9791C8.31226 24.1294 8.29449 24.3534 8.37666 24.4873C8.43694 24.5855 8.51596 24.6849 8.63146 24.6849C13.6528 24.6856 19.206 24.693 23.1131 24.7037C23.2454 24.704 23.4963 24.6809 23.5991 24.5343C23.7039 24.3849 23.7013 24.0518 23.6274 23.885C23.5496 23.7094 23.1839 23.631 23.1839 23.631L8.66921 23.4992Z" fill="#B54D00"/>
<path fill-rule="evenodd" clip-rule="evenodd" d="M10.5196 18.2172C10.2902 18.2172 10.052 18.3934 9.98557 18.6129L8.38252 23.9072C8.31607 24.1267 8.44697 24.3038 8.67639 24.3038H23.4593C23.6341 24.3038 23.7343 24.1694 23.6837 24.0022L22.0225 18.5188C21.9719 18.3516 21.7909 18.2172 21.6161 18.2172H10.5196Z" fill="#E26400"/>
<path fill-rule="evenodd" clip-rule="evenodd" d="M15.9978 7.30957C15.6165 7.30577 15.3921 7.33402 15.1672 7.50257C15.0646 7.57952 14.9835 7.76224 14.935 7.89382L11.0215 20.7744C11.0215 20.7744 11.1128 21.3564 11.6664 21.8855C12.0396 22.2422 12.7474 22.5065 13.192 22.6026C14.3333 22.8492 15.2485 22.9081 16.2835 22.8924C17.3466 22.8764 18.4087 22.668 19.4309 22.3764C20.9554 21.9414 21.004 20.7209 21.004 20.7209L16.9788 7.65434C16.9622 7.60052 16.9219 7.56084 16.8899 7.53064C16.6508 7.30467 16.2885 7.31249 15.9978 7.30957Z" fill="url(#paint2_linear_31_9462)"/>
<path fill-rule="evenodd" clip-rule="evenodd" d="M15.9978 7.30957C15.6165 7.30577 15.3921 7.33402 15.1672 7.50257C15.0646 7.57952 14.9835 7.76224 14.935 7.89382L11.0215 20.7744C11.0215 20.7744 11.1936 21.8884 12.5785 22.4315C13.5372 22.8073 14.5267 22.8572 16.0664 22.8736C17.7811 22.8919 18.4797 22.7242 19.6005 22.3342C20.1281 22.1507 20.4015 21.9121 20.6518 21.6475C21.0136 21.2648 21.004 20.7209 21.004 20.7209L16.9788 7.65434C16.9516 7.60502 16.9219 7.56084 16.8899 7.53064C16.6508 7.30467 16.2885 7.31249 15.9978 7.30957Z" fill="#F48200"/>
<path fill-rule="evenodd" clip-rule="evenodd" d="M12.4495 16.0724L11.5547 19.0173C12.6399 19.9292 14.2325 20.5051 16.0075 20.5051C17.7905 20.5051 19.3889 19.924 20.4743 19.005L19.5734 16.0794C18.744 16.7392 17.4585 17.1628 16.0154 17.1628C14.5675 17.1628 13.2786 16.7359 12.4495 16.0724Z" fill="#EAECED"/>
<path fill-rule="evenodd" clip-rule="evenodd" d="M17.6226 9.74657C17.2003 9.88784 16.6232 9.97552 15.9861 9.97552C15.3593 9.97552 14.7902 9.89082 14.3698 9.75357L13.4258 12.8616C14.0604 13.1928 14.9896 13.402 16.0257 13.402C17.0413 13.402 17.955 13.2016 18.5886 12.8818L17.6226 9.74657Z" fill="#EAECED"/>
</g>
</g>
</g>
</g>
<defs>
<filter id="filter0_i_31_9462" x="2" y="2" width="28" height="32" filterUnits="userSpaceOnUse" color-interpolation-filters="sRGB">
<feFlood flood-opacity="0" result="BackgroundImageFix"/>
<feBlend mode="normal" in="SourceGraphic" in2="BackgroundImageFix" result="shape"/>
<feColorMatrix in="SourceAlpha" type="matrix" values="0 0 0 0 0 0 0 0 0 0 0 0 0 0 0 0 0 0 127 0" result="hardAlpha"/>
<feOffset dy="4"/>
<feGaussianBlur stdDeviation="2"/>
<feComposite in2="hardAlpha" operator="arithmetic" k2="-1" k3="1"/>
<feColorMatrix type="matrix" values="0 0 0 0 0 0 0 0 0 0 0 0 0 0 0 0 0 0 0.25 0"/>
<feBlend mode="normal" in2="shape" result="effect1_innerShadow_31_9462"/>
</filter>
<filter id="filter1_d_31_9462" x="4.31934" y="5.30925" width="23.3779" height="25.3944" filterUnits="userSpaceOnUse" color-interpolation-filters="sRGB">
<feFlood flood-opacity="0" result="BackgroundImageFix"/>
<feColorMatrix in="SourceAlpha" type="matrix" values="0 0 0 0 0 0 0 0 0 0 0 0 0 0 0 0 0 0 127 0" result="hardAlpha"/>
<feOffset dy="2"/>
<feGaussianBlur stdDeviation="2"/>
<feComposite in2="hardAlpha" operator="out"/>
<feColorMatrix type="matrix" values="0 0 0 0 0 0 0 0 0 0 0 0 0 0 0 0 0 0 0.25 0"/>
<feBlend mode="normal" in2="BackgroundImageFix" result="effect1_dropShadow_31_9462"/>
<feBlend mode="normal" in="SourceGraphic" in2="effect1_dropShadow_31_9462" result="shape"/>
</filter>
<linearGradient id="paint0_linear_31_9462" x1="16" y1="0" x2="16" y2="32" gradientUnits="userSpaceOnUse">
<stop stop-color="#CB02C5"/>
<stop offset="1" stop-color="#5800BF"/>
</linearGradient>
<linearGradient id="paint1_linear_31_9462" x1="2.15267e-07" y1="18.375" x2="31.2733" y2="10.4921" gradientUnits="userSpaceOnUse">
<stop stop-color="#F48200"/>
<stop offset="0.494068" stop-color="#F48200"/>
<stop offset="1" stop-color="#CC5F00"/>
</linearGradient>
<linearGradient id="paint2_linear_31_9462" x1="12.8709" y1="14.0908" x2="13.6807" y2="14.28" gradientUnits="userSpaceOnUse">
<stop stop-color="#9B4400"/>
<stop offset="1" stop-color="#E56300"/>
</linearGradient>
<clipPath id="clip0_31_9462">
<rect width="32" height="32" fill="white"/>
</clipPath>
</defs>
</svg>
