<svg width="32" height="32" viewBox="0 0 32 32" fill="none" xmlns="http://www.w3.org/2000/svg">
<g clip-path="url(#clip0_31_9487)">
<path d="M24 0H8C3.58172 0 0 3.58172 0 8V24C0 28.4183 3.58172 32 8 32H24C28.4183 32 32 28.4183 32 24V8C32 3.58172 28.4183 0 24 0Z" fill="url(#paint0_linear_31_9487)"/>
<g filter="url(#filter0_i_31_9487)">
<path d="M24 2H8C4.68629 2 2 4.68629 2 8V24C2 27.3137 4.68629 30 8 30H24C27.3137 30 30 27.3137 30 24V8C30 4.68629 27.3137 2 24 2Z" fill="black" fill-opacity="0.7"/>
<g filter="url(#filter1_d_31_9487)">
<path d="M16.0989 6.26932C15.94 6.29785 15.7884 6.35735 15.6526 6.44437C15.0819 6.81092 14.9173 7.56987 15.285 8.13912C17.3068 11.272 17.784 13.635 17.5771 15.7058C16.7403 19.6715 14.9213 20.4759 13.3317 20.4759C11.7796 20.4759 12.1953 17.9202 13.3618 17.1722C14.0582 16.737 14.9503 16.4542 15.6349 16.4542C16.3132 16.4543 16.8632 15.9057 16.8633 15.2289C16.8632 14.552 16.3132 14.0034 15.6349 14.0035C14.8353 14.0035 14.0508 14.1715 13.3187 14.4576C13.4682 13.7515 13.5235 12.9883 13.3301 12.1768C13.0365 10.945 12.1913 9.76815 10.7236 8.6275C10.4667 8.4275 10.1406 8.3376 9.8172 8.3776C9.49387 8.4176 9.19975 8.58417 8.9995 8.8406C8.58298 9.37497 8.67948 10.1451 9.215 10.5607C10.4106 11.49 10.8055 12.1777 10.9404 12.7438C11.0753 13.31 10.9669 13.9173 10.6958 14.7519C10.349 15.8766 9.94668 16.8805 9.77028 17.8433C9.68348 18.3171 9.6761 18.833 9.65365 19.245C8.79273 18.4053 8.45562 17.2966 8.45562 15.6766C8.45545 14.9998 7.90548 14.4512 7.22718 14.4513C6.54938 14.4519 6.00017 15.0003 6 15.6766C6 17.8892 6.6467 19.9944 8.37957 21.3989C9.94842 22.8945 13.9377 22.3417 13.9377 24.7424C13.9377 25.4202 14.9291 25.75 15.6073 25.75C16.3029 25.75 17.1782 25.2847 17.1782 24.7424C17.1782 22.0184 20.0473 20.3629 24.7703 20.3702C25.4485 20.371 25.999 19.8229 26 19.146C26.0012 18.4692 25.4525 17.9194 24.7741 17.9181C24.4511 17.9177 24.1362 17.9289 23.8258 17.9473C24.3539 16.7046 24.5881 15.3365 24.5396 13.8589C24.5173 13.1824 23.9497 12.6519 23.2718 12.6741C22.5933 12.696 22.0616 13.263 22.0839 13.94C22.1478 15.8748 22.0754 17.6024 20.6349 18.5131C20.2253 18.772 19.749 18.9964 19.2974 18.9964C19.648 18.0422 19.9128 17.035 20.0213 15.9494C20.0905 15.2566 20.0978 14.4335 20.0187 13.7942C19.8962 12.8034 19.7482 11.68 20.124 10.8337C20.4616 10.1048 21.2181 9.7996 22.3286 9.7996C23.0064 9.79897 23.5556 9.2506 23.5558 8.57422C23.5562 7.89735 23.0069 7.34817 22.3286 7.34757C20.6782 7.34757 19.4272 8.21675 18.7181 9.26682C18.3472 8.4742 17.8957 7.65757 17.3501 6.81225C17.1739 6.53917 16.8962 6.3471 16.5781 6.2782C16.4205 6.24387 16.2576 6.24085 16.0989 6.26932Z" fill="#808080"/>
<path d="M16.0989 6.26932C15.94 6.29785 15.7884 6.35735 15.6526 6.44437C15.0819 6.81092 14.9173 7.56987 15.285 8.13912C17.3068 11.272 17.784 13.635 17.5771 15.7058C16.7403 19.6715 14.9213 20.4759 13.3317 20.4759C11.7796 20.4759 12.1953 17.9202 13.3618 17.1722C14.0582 16.737 14.9503 16.4542 15.6349 16.4542C16.3132 16.4543 16.8632 15.9057 16.8633 15.2289C16.8632 14.552 16.3132 14.0034 15.6349 14.0035C14.8353 14.0035 14.0508 14.1715 13.3187 14.4576C13.4682 13.7515 13.5235 12.9883 13.3301 12.1768C13.0365 10.945 12.1913 9.76815 10.7236 8.6275C10.4667 8.4275 10.1406 8.3376 9.8172 8.3776C9.49387 8.4176 9.19975 8.58417 8.9995 8.8406C8.58298 9.37497 8.67948 10.1451 9.215 10.5607C10.4106 11.49 10.8055 12.1777 10.9404 12.7438C11.0753 13.31 10.9669 13.9173 10.6958 14.7519C10.349 15.8766 9.94668 16.8805 9.77028 17.8433C9.68348 18.3171 9.6761 18.833 9.65365 19.245C8.79273 18.4053 8.45562 17.2966 8.45562 15.6766C8.45545 14.9998 7.90548 14.4512 7.22718 14.4513C6.54938 14.4519 6.00017 15.0003 6 15.6766C6 17.8892 6.6467 19.9944 8.37957 21.3989C9.94842 22.8945 13.9377 22.3417 13.9377 24.7424C13.9377 25.4202 14.9291 25.75 15.6073 25.75C16.3029 25.75 17.1782 25.2847 17.1782 24.7424C17.1782 22.0184 20.0473 20.3629 24.7703 20.3702C25.4485 20.371 25.999 19.8229 26 19.146C26.0012 18.4692 25.4525 17.9194 24.7741 17.9181C24.4511 17.9177 24.1362 17.9289 23.8258 17.9473C24.3539 16.7046 24.5881 15.3365 24.5396 13.8589C24.5173 13.1824 23.9497 12.6519 23.2718 12.6741C22.5933 12.696 22.0616 13.263 22.0839 13.94C22.1478 15.8748 22.0754 17.6024 20.6349 18.5131C20.2253 18.772 19.749 18.9964 19.2974 18.9964C19.648 18.0422 19.9128 17.035 20.0213 15.9494C20.0905 15.2566 20.0978 14.4335 20.0187 13.7942C19.8962 12.8034 19.7482 11.68 20.124 10.8337C20.4616 10.1048 21.2181 9.7996 22.3286 9.7996C23.0064 9.79897 23.5556 9.2506 23.5558 8.57422C23.5562 7.89735 23.0069 7.34817 22.3286 7.34757C20.6782 7.34757 19.4272 8.21675 18.7181 9.26682C18.3472 8.4742 17.8957 7.65757 17.3501 6.81225C17.1739 6.53917 16.8962 6.3471 16.5781 6.2782C16.4205 6.24387 16.2576 6.24085 16.0989 6.26932Z" fill="url(#paint1_linear_31_9487)"/>
</g>
</g>
</g>
<defs>
<filter id="filter0_i_31_9487" x="2" y="2" width="28" height="32" filterUnits="userSpaceOnUse" color-interpolation-filters="sRGB">
<feFlood flood-opacity="0" result="BackgroundImageFix"/>
<feBlend mode="normal" in="SourceGraphic" in2="BackgroundImageFix" result="shape"/>
<feColorMatrix in="SourceAlpha" type="matrix" values="0 0 0 0 0 0 0 0 0 0 0 0 0 0 0 0 0 0 127 0" result="hardAlpha"/>
<feOffset dy="4"/>
<feGaussianBlur stdDeviation="2"/>
<feComposite in2="hardAlpha" operator="arithmetic" k2="-1" k3="1"/>
<feColorMatrix type="matrix" values="0 0 0 0 0 0 0 0 0 0 0 0 0 0 0 0 0 0 0.25 0"/>
<feBlend mode="normal" in2="shape" result="effect1_innerShadow_31_9487"/>
</filter>
<filter id="filter1_d_31_9487" x="2" y="4.25" width="28" height="27.5" filterUnits="userSpaceOnUse" color-interpolation-filters="sRGB">
<feFlood flood-opacity="0" result="BackgroundImageFix"/>
<feColorMatrix in="SourceAlpha" type="matrix" values="0 0 0 0 0 0 0 0 0 0 0 0 0 0 0 0 0 0 127 0" result="hardAlpha"/>
<feOffset dy="2"/>
<feGaussianBlur stdDeviation="2"/>
<feComposite in2="hardAlpha" operator="out"/>
<feColorMatrix type="matrix" values="0 0 0 0 0 0 0 0 0 0 0 0 0 0 0 0 0 0 0.25 0"/>
<feBlend mode="normal" in2="BackgroundImageFix" result="effect1_dropShadow_31_9487"/>
<feBlend mode="normal" in="SourceGraphic" in2="effect1_dropShadow_31_9487" result="shape"/>
</filter>
<linearGradient id="paint0_linear_31_9487" x1="3.2947e-05" y1="16" x2="32" y2="16" gradientUnits="userSpaceOnUse">
<stop stop-color="#0066FF"/>
<stop offset="1" stop-color="#00CCFF"/>
</linearGradient>
<linearGradient id="paint1_linear_31_9487" x1="6.00003" y1="16" x2="26" y2="16" gradientUnits="userSpaceOnUse">
<stop stop-color="#0066FF"/>
<stop offset="1" stop-color="#00CCFF"/>
</linearGradient>
<clipPath id="clip0_31_9487">
<rect width="32" height="32" fill="white"/>
</clipPath>
</defs>
</svg>
