<svg width="32" height="32" viewBox="0 0 32 32" fill="none" xmlns="http://www.w3.org/2000/svg">
<g clip-path="url(#clip0_31_9505)">
<path d="M24 0H8C3.58172 0 0 3.58172 0 8V24C0 28.4183 3.58172 32 8 32H24C28.4183 32 32 28.4183 32 24V8C32 3.58172 28.4183 0 24 0Z" fill="url(#paint0_linear_31_9505)"/>
<g filter="url(#filter0_i_31_9505)">
<path d="M24 2H8C4.68629 2 2 4.68629 2 8V24C2 27.3137 4.68629 30 8 30H24C27.3137 30 30 27.3137 30 24V8C30 4.68629 27.3137 2 24 2Z" fill="black" fill-opacity="0.7"/>
<path d="M21.9375 20.7969C21.7083 20.724 21.5 20.5938 21.3542 20.4427C21.1458 20.2188 19.9062 17.9688 19.9062 17.8073C19.9062 17.7188 19.9271 17.6771 19.9739 17.6979C20.0208 17.7135 20.1667 17.4375 20.4271 16.8333C20.8646 15.8385 20.875 15.8281 21.2396 16.1042C22.2344 16.8646 23.1198 17.2552 24.0469 17.3333C24.4375 17.3698 24.5417 17.4167 24.5417 17.5625C24.5417 17.6146 24.7067 17.3806 24.7276 17.391C24.7536 17.3963 24.3386 18.3542 23.9792 19.1563C23.3646 20.5417 23.3177 20.6302 23.1406 20.7135C22.9323 20.8177 22.1614 20.8698 21.9375 20.7969Z" fill="url(#paint1_linear_31_9505)"/>
<path d="M8.92198 20.7552C8.6928 20.6615 8.6876 20.6563 8.3699 19.9323C8.1928 19.5313 7.95323 18.9844 7.83343 18.724L7.51025 17.966L7.86468 18.25C8.10948 18.2552 8.66155 18.125 9.2553 17.9167C9.42718 17.8594 9.6928 17.7761 9.84385 17.7292C10.0314 17.6719 10.1147 17.625 10.1147 17.5625C10.1147 17.5104 10.1668 17.4584 10.2345 17.4427C10.297 17.4271 10.5678 17.3229 10.8334 17.2031C11.0991 17.0834 11.3491 16.9896 11.3907 16.9896C11.4324 16.9896 11.4689 16.9688 11.4689 16.9375C11.4689 16.9115 11.5001 16.8854 11.5366 16.8854C11.573 16.8854 11.765 17.2722 11.7814 17.3073C11.9872 17.7493 12.0262 17.8281 12.0991 17.7136C12.1303 17.6615 12.1459 17.6875 12.1459 17.7917C12.1459 17.9688 10.922 20.1511 10.6668 20.4167C10.3907 20.7136 10.1459 20.8073 9.6199 20.8281C9.26573 20.8386 9.09385 20.8229 8.92198 20.7552Z" fill="url(#paint2_linear_31_9505)"/>
<path d="M21.9896 20.7917C21.9896 20.7656 21.9219 20.7396 21.8333 20.7396C21.7031 20.7396 21.6771 20.7188 21.6771 20.6094C21.6771 20.4948 21.6563 20.4792 21.4948 20.4792C21.3177 20.4792 21.3125 20.4739 21.3125 20.2864V20.0938L21.5104 20.2812C21.724 20.4896 21.9323 20.6042 22.1875 20.6614C22.4167 20.7083 22.4114 20.8438 22.1719 20.8438C22.0729 20.8438 21.9896 20.8229 21.9896 20.7917Z" fill="url(#paint3_radial_31_9505)"/>
<path d="M22.2881 20.7097C22.2868 20.6699 22.6375 20.6793 22.7657 20.6354C22.8721 20.599 23.0522 20.5261 23.1616 20.4479C23.3803 20.3021 23.422 20.3125 23.3751 20.5052C23.3491 20.599 23.3074 20.6354 23.2137 20.6354C23.1355 20.6354 23.0834 20.6667 23.0834 20.7084C23.0834 20.7865 22.9272 20.8438 22.7084 20.8438C22.6147 20.8438 22.2897 20.7618 22.2881 20.7097Z" fill="url(#paint4_radial_31_9505)"/>
<path d="M16.2293 19.6146C16.1043 19.3906 16.0158 19.2865 15.9689 19.3021C15.9168 19.3229 15.896 19.2865 15.896 19.1927C15.896 18.9479 17.0522 16.9531 17.8022 15.9062C18.2189 15.3229 18.2918 15.2448 18.4377 15.2292C18.5783 15.2135 18.6043 15.2344 18.6356 15.3542C18.6564 15.4323 18.6512 15.526 18.6252 15.5625C18.1668 16.2031 17.8231 16.7396 17.8231 16.8021C17.8231 16.8437 17.7762 16.9687 17.7241 17.0781C17.5574 17.401 16.7397 19.4271 16.6929 19.6354C16.6772 19.6979 16.646 19.75 16.6199 19.75C16.5939 19.75 16.8268 20.4877 16.8268 20.545C16.8268 20.7481 16.4168 19.9531 16.2293 19.6146Z" fill="url(#paint5_radial_31_9505)"/>
<path d="M20.9478 19.7239C20.9478 19.5 21.0207 19.4896 21.1301 19.6979C21.2342 19.8958 21.229 19.9062 21.078 19.9062C20.9634 19.9062 20.9478 19.8854 20.9478 19.7239Z" fill="url(#paint6_radial_31_9505)"/>
<path d="M20.6875 19.2552C20.6875 19.0312 20.7598 19.028 20.8692 19.2363C20.9734 19.4343 21.1416 19.6691 20.9906 19.6691C20.876 19.6691 20.6875 19.4167 20.6875 19.2552Z" fill="url(#paint7_radial_31_9505)"/>
<path d="M20.4273 18.7865C20.4273 18.6406 20.4064 18.6042 20.3283 18.6042C20.2189 18.6042 20.1669 18.5052 20.1669 18.2865C20.1669 18.1719 20.1408 18.1354 20.0627 18.1354C20.0002 18.1354 19.9481 18.0885 19.9273 18.0104C19.8856 17.8385 19.8725 17.6548 19.9514 17.6785C20.0257 17.7008 20.6877 18.8802 20.6877 18.9375C20.6877 18.9531 20.6304 18.9687 20.5575 18.9687C20.4429 18.9687 20.4273 18.9479 20.4273 18.7865Z" fill="url(#paint8_radial_31_9505)"/>
<path d="M21.7811 20.7396C21.7811 20.7136 21.7342 20.6875 21.6769 20.6875C21.6196 20.6875 21.5728 20.6511 21.5728 20.6094C21.5728 20.5677 21.5363 20.5313 21.4894 20.5313C21.3592 20.5313 21.2603 20.3958 21.2603 20.224C21.2603 20.0313 21.3007 20.0243 21.4113 20.1823C21.5036 20.3141 21.8176 20.5625 22.0051 20.6094C22.2134 20.6615 22.1821 20.7917 21.9634 20.7917C21.8644 20.7917 21.7811 20.7708 21.7811 20.7396Z" fill="url(#paint9_radial_31_9505)"/>
<path d="M16.4877 19.9697C16.4252 19.8239 16.3802 19.651 16.4531 19.6041C16.4792 19.5833 16.5156 19.5208 16.5365 19.4635C16.5938 19.25 17.3906 17.2812 17.5521 16.9427C17.599 16.8437 17.6406 16.7239 17.6406 16.6771C17.6458 16.6354 17.7708 16.4114 17.9219 16.1823C18.0729 15.9531 18.1354 15.8385 18.0625 15.9219C17.9896 16.0104 17.7552 16.3385 17.5521 16.6614C17.3438 16.9844 17.1563 17.2448 17.1354 17.25C17.1094 17.25 17.0938 17.1666 17.0938 17.0677C17.0938 16.9114 17.1094 16.8854 17.224 16.8854C17.3229 16.8854 17.3594 16.8489 17.4011 16.6927C17.4323 16.5833 17.4583 16.4531 17.4583 16.4062C17.4583 16.3541 17.4844 16.3125 17.5156 16.3125C17.599 16.3125 17.7136 16.151 17.7188 16.0416C17.7188 15.9896 17.7448 15.9479 17.7708 15.9479C17.8021 15.9479 17.8229 15.9166 17.8229 15.875C17.8229 15.8333 17.8594 15.7916 17.9011 15.7708C17.9427 15.7552 17.9792 15.7083 17.9792 15.6666C17.9792 15.6302 18.0156 15.5833 18.0573 15.5625C18.099 15.5469 18.1354 15.5104 18.1354 15.4844C18.1354 15.4219 18.4271 15.1146 18.4844 15.1146C18.5417 15.1146 18.8043 15.6396 18.8473 15.7401C18.8645 15.7803 18.7396 15.7396 18.7188 15.7396C18.6979 15.7396 18.6406 15.8177 18.599 15.9114C18.5521 16 18.3021 16.5 18.0417 17.0156C17.7813 17.5312 17.5521 18.026 17.5313 18.1094C17.4844 18.3073 17.1354 19.1875 16.9479 19.5781C16.7448 20 16.6667 20.1146 16.5677 20.1146C16.5208 20.1146 16.519 20.0322 16.4877 19.9697Z" fill="url(#paint10_radial_31_9505)"/>
<path d="M20.7397 19.3594C20.7397 19.1354 20.7918 19.1302 20.9116 19.3281C21.0262 19.5261 21.0262 19.5417 20.8699 19.5417C20.7554 19.5417 20.7397 19.5209 20.7397 19.3594Z" fill="url(#paint11_radial_31_9505)"/>
<path d="M20.479 18.8906C20.479 18.6667 20.5372 18.6579 20.6509 18.8594C20.868 19.244 20.8145 19.1623 20.6092 19.0729C20.5042 19.0272 20.479 19.0521 20.479 18.8906Z" fill="url(#paint12_radial_31_9505)"/>
<path d="M7.78103 18.4635C7.71333 18.3854 7.55708 18.0989 7.43208 17.8177L7.12891 17.0991L7.46333 17.2864C8.08833 17.2135 10.7394 15.9375 10.7394 15.7135C10.7394 15.6562 10.93 15.4347 10.956 15.4763C10.9665 15.4868 11.1717 15.9219 11.3383 16.3021C11.5274 16.7304 11.608 16.9745 11.659 17.0816C11.6989 17.1653 11.6336 17.1922 11.5727 17.1719C11.5206 17.1562 11.2863 17.2292 11.0467 17.3333C10.8071 17.4375 10.5258 17.5573 10.4269 17.5989L10.2446 17.6719L10.479 17.6458C10.7863 17.6146 10.6613 17.6875 10.1248 17.8489C9.90603 17.9114 9.58313 18.0156 9.41126 18.0781C9.07791 18.1927 8.16126 18.4479 8.03103 18.4635C7.98938 18.4687 7.94251 18.5 7.92688 18.5364C7.91126 18.5781 7.85916 18.5469 7.78103 18.4635Z" fill="url(#paint13_linear_31_9505)"/>
<path d="M7.40604 17.5521C7.40604 17.5 7.37479 17.4584 7.33834 17.4584C7.27584 17.4584 7.15969 17.2007 6.91489 16.6278C6.90449 16.6069 7.13521 16.6146 7.38001 16.5261C8.23939 16.2136 8.99459 15.8021 9.72376 15.25C10.1665 14.9063 10.2706 14.8125 10.2706 14.7292C10.2706 14.6823 10.3071 14.6459 10.3488 14.6459C10.3904 14.6459 10.4269 14.625 10.4269 14.5938C10.4269 14.5677 10.4581 14.5417 10.4946 14.5417C10.5623 14.5417 11.0206 15.5469 11.0727 15.8177C11.104 15.9584 11.0988 15.9636 11.0363 15.8854C10.9477 15.7761 10.8956 15.7656 10.8956 15.8646C10.8956 16.0625 8.86959 17.0781 7.77064 17.4271C7.61439 17.4792 7.46854 17.5469 7.44771 17.5834C7.42166 17.6198 7.40604 17.6094 7.40604 17.5521Z" fill="url(#paint14_linear_31_9505)"/>
<path d="M10.0625 20.6459C10.0625 20.625 10.1302 20.5677 10.2135 20.5156C10.2917 20.4688 10.4479 20.3438 10.5521 20.2344L10.7396 20.0417V20.2136C10.7396 20.3959 10.6406 20.5313 10.5104 20.5313C10.4635 20.5313 10.4271 20.5677 10.4271 20.6094C10.4271 20.6615 10.3698 20.6875 10.2448 20.6875C10.1458 20.6875 10.0625 20.6667 10.0625 20.6459Z" fill="url(#paint15_linear_31_9505)"/>
<path d="M6.7967 16.3959L6.58838 15.9219L6.729 15.8906C7.18733 15.7917 8.19255 15.2656 8.76545 14.8229C9.14568 14.5313 9.854 13.8177 9.854 13.7292C9.854 13.6875 9.88005 13.6563 9.90608 13.6563C9.93733 13.6563 9.95818 13.6198 9.95818 13.5781C9.95818 13.5365 9.98953 13.5027 10.0259 13.5C10.0454 13.4986 10.081 13.5185 10.1381 13.6263C10.2427 13.8237 10.4143 14.2246 10.6006 14.6823C10.6084 14.7016 10.7042 14.9116 10.7303 14.9793C10.7563 15.047 10.6665 14.9584 10.6353 14.9584C10.604 14.9584 10.5832 14.9219 10.5832 14.8802C10.5832 14.8386 10.5467 14.8021 10.5051 14.8021C10.4634 14.8021 10.4269 14.8386 10.4269 14.8854C10.4269 14.9688 10.3228 15.0625 9.88005 15.4063C9.20818 15.9167 8.3488 16.3959 7.69775 16.625C7.55193 16.6771 7.36443 16.75 7.27588 16.7813C7.19255 16.8177 7.09358 16.8542 7.06233 16.8594C7.03108 16.8698 6.9113 16.6615 6.7967 16.3959Z" fill="url(#paint16_linear_31_9505)"/>
<path d="M19.7292 24.4844C19.1719 24.3542 18.6771 23.9635 18.3385 23.3854C18.0469 22.8854 18.0417 22.875 18.2292 22.875C18.3125 22.875 18.5469 22.7969 18.7396 22.7083C19.1458 22.5208 19.6615 22.4583 19.974 22.5573C20.1875 22.6302 20.7187 23.1042 21.0521 23.5156L21.2865 23.8125L21.5729 23.7812L22.3885 22.661C22.4756 22.5624 22.1652 23.282 21.6875 23.9323C21.2396 24.3958 20.3906 24.6406 19.7292 24.4844Z" fill="url(#paint17_radial_31_9505)"/>
<path d="M21.9375 20.7396C21.9375 20.6302 21.9896 20.6146 22.1875 20.6667C22.375 20.7187 22.3281 20.8437 22.1198 20.8437C21.974 20.8437 21.9375 20.8229 21.9375 20.7396Z" fill="url(#paint18_radial_31_9505)"/>
<path d="M16.5938 20.2812C16.4375 19.9896 16.4375 19.9844 16.5313 19.8854C16.6719 19.7344 17.2813 18.3542 17.375 17.9687C17.4323 17.7239 18.474 15.6406 18.5729 15.5729C18.6146 15.5417 18.6146 15.5312 18.5729 15.5312C18.5417 15.5312 18.5156 15.4948 18.5156 15.4531C18.5156 15.2969 18.6406 15.3802 18.8021 15.651C18.9583 15.9062 18.9844 16.1042 18.8646 16.1042C18.7917 16.1042 17.7292 18.3021 17.6927 18.526C17.6354 18.875 17.5573 19.0729 17.2135 19.776C17.0365 20.1458 18.2578 23.2428 18.276 23.2744C18.3553 23.4115 16.7448 20.5573 16.5938 20.2812Z" fill="url(#paint19_radial_31_9505)"/>
<path d="M21.4165 20.4219V20.2656L21.5728 20.375C21.8019 20.5364 21.8071 20.5833 21.604 20.5833C21.4321 20.5833 21.4165 20.5729 21.4165 20.4219Z" fill="url(#paint20_radial_31_9505)"/>
<path d="M23.1475 20.4637C23.1475 20.4481 23.2706 20.401 23.3696 20.2969L23.5549 20.1001L23.4634 20.3177C23.4061 20.4583 23.3488 20.5312 23.2811 20.5312C23.229 20.5312 23.1475 20.4741 23.1475 20.4637Z" fill="url(#paint21_radial_31_9505)"/>
<path d="M21 19.8281C21 19.599 21.0469 19.599 21.1979 19.8281L21.3089 20.0312L21.1562 20.0104C21.0104 20.0104 21 19.9948 21 19.8281Z" fill="url(#paint22_radial_31_9505)"/>
<path d="M20.271 18.526C20.271 18.2969 20.3179 18.2969 20.4689 18.526L20.5853 18.727L20.4272 18.7083C20.2814 18.7083 20.271 18.6927 20.271 18.526Z" fill="url(#paint23_radial_31_9505)"/>
<path d="M20.0103 18.0573C20.0103 17.8281 20.0571 17.8281 20.2082 18.0573L20.3435 18.2974L20.1665 18.2396C20.0207 18.2396 20.0103 18.224 20.0103 18.0573Z" fill="url(#paint24_radial_31_9505)"/>
<path d="M11.078 15.9688C11.0311 15.8959 11.0051 15.8229 11.0155 15.8073C11.0311 15.7917 11.0832 15.8542 11.1301 15.9427C11.229 16.1406 11.203 16.1563 11.078 15.9688Z" fill="url(#paint25_linear_31_9505)"/>
<path d="M10.0467 23.6198C10.0259 23.6042 10.0103 23.5209 10.0103 23.4375C10.0103 23.3073 10.0259 23.2917 10.1926 23.2917C10.3644 23.2917 10.3748 23.3021 10.3748 23.474C10.3748 23.6406 10.3592 23.6563 10.229 23.6563C10.1457 23.6563 10.0623 23.6406 10.0467 23.6198Z" fill="#00B0E7"/>
<path d="M6.69783 16.1094C6.71866 16.0833 6.69813 16.0752 6.67131 16.067C6.62141 16.0518 6.24058 15.2025 6.28948 15.1764C6.30511 15.1608 6.88011 14.9375 7.27596 14.7865C7.36448 14.75 7.44261 14.7083 7.45823 14.6927C7.47386 14.6719 7.63533 14.5469 7.82283 14.4063C8.46866 13.9323 9.17178 13.1771 9.24991 12.875C9.32283 12.5781 9.36448 12.5729 9.61448 12.8177C9.86448 13.0677 10.1093 13.474 10.151 13.7136C10.1666 13.8333 10.1562 13.8594 10.0937 13.8333C10.0416 13.8125 10.0103 13.8281 10.0103 13.8802C10.0103 13.974 9.31241 14.6771 8.92178 14.9792C8.50511 15.3021 7.91658 15.6406 7.42178 15.849C7.15616 15.9583 6.98948 16.0573 6.98948 16.1042C6.98948 16.1719 6.98428 16.1719 6.93741 16.1042C6.90616 16.0573 6.86971 16.0469 6.84886 16.0781C6.79678 16.1458 6.66136 16.1771 6.69783 16.1094Z" fill="url(#paint26_linear_31_9505)"/>
<path d="M11.297 24.4896C11.0418 24.4219 10.5835 24.1875 10.5835 24.125C10.5835 24.0938 10.6668 24.0729 10.7658 24.0729C10.8647 24.0729 10.9481 24.0886 10.9481 24.1146C10.9481 24.1354 11.1772 24.1459 11.4533 24.1406C11.8127 24.1302 12.0002 24.1459 12.1095 24.2031C12.1981 24.2448 12.297 24.2813 12.3387 24.2813C12.4377 24.2813 12.422 24.4219 12.3179 24.4636C12.1616 24.5209 11.5054 24.5417 11.297 24.4896Z" fill="url(#paint27_linear_31_9505)"/>
<path d="M21.4168 24.0469C21.4168 23.9896 21.3804 23.9739 21.297 23.9948C21.1981 24.0208 21.1304 23.9687 20.9012 23.6875C20.547 23.25 20.0835 22.8281 19.8543 22.7291C19.7502 22.6875 19.5835 22.6666 19.4585 22.6823C19.2085 22.7083 18.6252 22.9635 18.4793 23.1146C18.3647 23.2239 18.2502 23.2552 18.2606 23.1666C18.2606 23.1354 18.2449 23.1041 18.2189 23.0989C18.1772 23.0885 18.0262 22.8385 17.547 21.9791L17.3491 21.625H17.5106C17.6147 21.625 17.6668 21.651 17.6668 21.7031C17.6668 21.7864 17.7502 21.8125 17.7814 21.7396C17.7918 21.7187 17.9949 21.5364 18.2397 21.3437C18.6616 20.9948 18.6772 20.9791 18.6616 20.7864C18.6512 20.5885 18.6512 20.5833 18.8231 20.5833C18.9845 20.5833 19.0158 20.6198 19.2814 21.0312C19.4377 21.2812 19.7241 21.625 19.9116 21.8073C20.3439 22.2135 20.6304 22.3229 21.0991 22.2708C21.3231 22.2448 21.4168 22.2552 21.4168 22.2969C21.4168 22.3281 21.4429 22.3541 21.4793 22.3541C21.5106 22.3541 21.6512 22.4479 21.7866 22.5625C21.9272 22.6771 22.0887 22.7708 22.1616 22.7708C22.2293 22.7708 22.332 22.783 22.3477 22.7986C22.2629 22.9583 21.9326 23.6448 21.6774 23.9105C21.3961 24.2125 21.4168 24.1719 21.4168 24.0469Z" fill="url(#paint28_radial_31_9505)"/>
<path d="M16.8855 20.7864C16.698 20.4635 16.6616 20.2812 16.7605 20.1927C16.8855 20.0781 17.4636 18.7656 17.5157 18.4792C17.547 18.3125 17.672 17.9687 17.797 17.7187C17.9168 17.4635 18.0053 17.2448 17.9897 17.2292C17.9741 17.2135 17.9897 17.1979 18.0209 17.1979C18.0574 17.1979 18.0783 17.1823 18.073 17.1614C18.0522 17.1042 18.6336 15.8951 18.7482 15.7701C18.842 15.6712 18.8595 15.7812 19.0157 16.0312C19.172 16.2812 19.172 16.2864 19.0782 16.4427C18.8543 16.8125 18.4949 17.4687 18.2397 17.9792C18.0105 18.4323 17.9636 18.5677 17.9741 18.776C17.9845 19.0521 17.8699 19.4323 17.5991 20.0208C17.5001 20.2396 17.4011 20.4896 17.3803 20.5729C17.3647 20.6614 17.3126 20.7604 17.2709 20.7969C17.2293 20.8281 17.198 20.9114 17.198 20.9792C17.198 21.1927 17.0678 21.1146 16.8855 20.7864Z" fill="url(#paint29_radial_31_9505)"/>
<path d="M22.6196 20.7656C22.63 20.7135 22.6978 20.6615 22.7655 20.651C22.8384 20.6406 22.9217 20.6094 22.953 20.5833C22.9894 20.5573 23.0311 20.5469 23.0467 20.5677C23.0675 20.5833 23.0832 20.5729 23.0832 20.5417C23.0832 20.5052 23.1092 20.4792 23.1405 20.4792C23.1769 20.4792 23.2256 20.4293 23.2707 20.3906C23.3645 20.3102 23.3384 20.3125 23.3436 20.4688C23.3474 20.5833 23.3123 20.651 23.255 20.6719C23.203 20.6927 23.1457 20.7292 23.13 20.7552C23.1092 20.7813 22.9842 20.8177 22.8488 20.8333C22.6353 20.8542 22.604 20.849 22.6196 20.7656Z" fill="url(#paint30_radial_31_9505)"/>
<path d="M21.2085 20.3177C21.2085 20.2864 21.172 20.2292 21.1304 20.1875C21.0522 20.1042 21.021 19.75 21.0939 19.75C21.1252 19.75 21.2189 19.8802 21.4377 20.2344L21.521 20.375H21.3647C21.2814 20.375 21.2085 20.3489 21.2085 20.3177Z" fill="url(#paint31_radial_31_9505)"/>
<path d="M20.7915 19.4635C20.7915 19.2344 20.8384 19.2344 20.9894 19.4635L21.1166 19.6778L20.9478 19.6458C20.8019 19.6458 20.7915 19.6302 20.7915 19.4635Z" fill="url(#paint32_radial_31_9505)"/>
<path d="M20.5311 18.9948C20.5311 18.849 20.5103 18.8125 20.4269 18.8125C20.3436 18.8125 20.3228 18.7761 20.3228 18.6302C20.3228 18.5313 20.3384 18.4479 20.354 18.4479C20.4009 18.4479 20.578 18.6771 20.5832 18.7344C20.5832 18.7656 20.6405 18.875 20.7134 18.9844L20.8628 19.2247L20.6873 19.1771C20.5415 19.1771 20.5311 19.1615 20.5311 18.9948Z" fill="url(#paint33_radial_31_9505)"/>
<path d="M20.0625 18.1614C20.0625 17.9479 20.0885 17.9375 20.2239 18.0989C20.3542 18.2604 20.3489 18.3438 20.1927 18.3438C20.0781 18.3438 20.0625 18.3229 20.0625 18.1614Z" fill="url(#paint34_radial_31_9505)"/>
<path d="M21.1356 20.1875C21.1199 20.1406 21.1043 20.0364 21.1043 19.9531C21.1043 19.8385 21.0783 19.8021 21.0002 19.8021C20.9168 19.8021 20.896 19.7656 20.896 19.6146C20.896 19.4479 20.9064 19.4323 20.9793 19.4948C21.0262 19.5312 21.0991 19.651 21.1408 19.7604C21.1824 19.8698 21.1739 19.966 21.2052 19.966C21.2312 19.966 21.3022 19.9844 21.2866 20.0104C21.271 20.0417 21.2762 20.0625 21.3022 20.0625C21.3283 20.0625 21.3647 20.1094 21.3804 20.1667C21.4012 20.25 21.3804 20.2708 21.2866 20.2708C21.2189 20.2708 21.1512 20.2344 21.1356 20.1875Z" fill="url(#paint35_radial_31_9505)"/>
<path d="M20.6353 19.1406C20.6353 18.9583 20.6405 18.9531 20.7342 19.0417C20.7863 19.0937 20.831 19.1806 20.8592 19.2344C20.8968 19.306 20.8592 19.3333 20.7603 19.3333C20.6509 19.3333 20.6353 19.3073 20.6353 19.1406Z" fill="url(#paint36_radial_31_9505)"/>
<path d="M20.375 18.6719C20.375 18.4844 20.375 18.4844 20.4688 18.5833C20.5208 18.6354 20.5781 18.724 20.5989 18.7761C20.625 18.8438 20.6042 18.8646 20.5052 18.8646C20.3906 18.8646 20.375 18.8438 20.375 18.6719Z" fill="url(#paint37_radial_31_9505)"/>
<path d="M20.1147 18.2031C20.1147 18.0156 20.1147 18.0156 20.2085 18.1146C20.2606 18.1667 20.3179 18.2552 20.3387 18.3073C20.3647 18.375 20.3439 18.3958 20.2449 18.3958C20.1304 18.3958 20.1147 18.375 20.1147 18.2031Z" fill="url(#paint38_radial_31_9505)"/>
<path d="M19.8543 17.7709C19.8543 17.6302 19.7704 17.4114 19.948 17.665C19.9775 17.7072 20.0311 17.7975 20.0696 17.8435C20.0904 17.9164 20.073 17.9271 19.9793 17.9271C19.8751 17.9271 19.8543 17.9011 19.8543 17.7709Z" fill="url(#paint39_radial_31_9505)"/>
<path d="M24.3644 17.8489C24.3488 17.8073 24.3488 17.7396 24.3644 17.7031C24.4061 17.5833 24.2759 17.526 23.8905 17.4896C22.9634 17.4114 22.078 17.0208 21.0832 16.2604L20.8748 16.0989L20.6978 16.375C20.604 16.5261 20.5311 16.625 20.5415 16.5938C20.5519 16.5625 20.8123 15.9583 21.13 15.25C21.5832 14.224 21.7186 13.9688 21.7967 13.9688C21.854 13.9688 22.0363 14.1198 22.2082 14.3073C22.63 14.7604 23.1925 15.1302 23.7238 15.3021C24.1144 15.4323 24.2186 15.4427 24.8905 15.4375L25.6301 15.4271L25.5364 15.651C25.0416 16.7917 24.578 17.7969 24.5155 17.8542C24.4269 17.9479 24.4009 17.9479 24.3644 17.8489Z" fill="url(#paint40_linear_31_9505)"/>
<path d="M7.00427 15.4994C6.97822 15.463 6.45317 15.4937 6.43234 15.5093C6.40277 15.5151 6.35687 15.4445 6.29119 15.236C6.25522 15.1218 6.06532 14.6422 6.12469 14.6264C6.15989 14.617 6.13802 14.6902 6.12577 14.6528C6.10287 14.5827 6.14584 14.6977 6.14077 14.6332C6.11562 14.3141 6.30209 13.7177 6.33209 13.6896C6.46129 13.5685 6.83327 14.0729 6.83327 13.9948C6.83327 13.9583 6.94787 13.8542 7.08327 13.7656C7.36452 13.5885 7.67182 13.3021 7.94787 12.9635C8.08327 12.8021 8.14057 12.6719 8.16662 12.4687L8.13969 12.2376C8.23062 12.1673 8.71259 12.2565 8.68042 12.2829C8.50639 12.2015 8.92509 12.3562 9.19787 12.5C9.28547 12.5462 9.41499 12.6333 9.46499 12.6796C9.57379 12.7806 9.53157 12.8382 9.45307 12.9167C9.41662 12.9531 9.39577 13.0104 9.41662 13.0365C9.45827 13.1042 8.99474 13.6719 8.61974 14.0208C7.98432 14.6042 7.81244 14.7552 7.85412 14.6875C7.89577 14.6146 7.74474 14.7136 7.64057 14.8281C7.61452 14.8542 7.52599 14.9062 7.45307 14.9323C6.68744 15.2292 7.23849 15.4588 7.22807 15.5265C7.21244 15.589 7.03552 15.5515 7.00427 15.4994Z" fill="url(#paint41_linear_31_9505)"/>
<path d="M12.1719 24.4479C12.1146 24.4375 12.0416 24.4062 12.0104 24.3802C11.9271 24.3125 11.3125 24.2761 11.1302 24.3281C10.8541 24.4063 10.3177 24.0365 10.0052 23.5573L9.8833 23.2777L10.0781 23.1979C10.1979 23.125 10.4062 22.9739 10.5364 22.8646C10.6719 22.7552 10.8073 22.6667 10.8385 22.6667C10.8698 22.6667 10.8958 22.6302 10.8958 22.5886C10.8958 22.5313 10.9531 22.5104 11.1198 22.5104C11.6562 22.5104 12.2864 22.0052 12.8229 21.1458C13.0833 20.7292 13.125 20.6875 13.276 20.6875C13.3646 20.6875 13.4479 20.7187 13.4635 20.7552C13.5 20.8489 13.4531 22.1042 13.3854 22.7031C13.3229 23.2761 13.3541 23.3958 13.5625 23.3958C13.651 23.3958 13.6458 23.4167 13.5052 23.6198C13.1719 24.1094 12.5104 24.5208 12.1719 24.4479Z" fill="url(#paint42_linear_31_9505)"/>
<path d="M22.146 23.0052C22.146 22.9427 22.1252 22.9323 22.0574 22.974C21.9897 23.0104 21.9064 22.9688 21.6824 22.7656C21.5262 22.625 21.3647 22.5104 21.3283 22.5104C21.2918 22.5104 21.2606 22.4948 21.2606 22.474C21.2606 22.4479 21.1199 22.4427 20.9481 22.4479C20.5574 22.474 20.1929 22.3542 19.9272 22.1198L19.7241 21.9427L19.9116 21.9375C20.0158 21.9375 20.1095 21.9531 20.1304 21.9688C20.172 22.0156 20.8283 22.0104 21.0991 21.9636C21.2241 21.9427 21.4897 21.8698 21.6877 21.7969C21.8908 21.7292 22.2397 21.6563 22.4689 21.6406L22.915 21.5146L22.8074 21.7865C22.3595 22.8386 22.146 23.2292 22.146 23.0052Z" fill="url(#paint43_radial_31_9505)"/>
<path d="M17.6146 22.0417C17.5729 22.0156 17.5573 21.9896 17.5834 21.9896C17.6146 21.9896 17.5886 21.9531 17.5313 21.9114C17.4792 21.8698 17.4584 21.8333 17.4844 21.8333C17.5157 21.8333 17.5157 21.8177 17.4792 21.7917C17.3802 21.7239 17.0365 21.0573 17.0157 20.8906C17 20.7656 17.0209 20.7031 17.0886 20.651C17.1459 20.6146 17.2032 20.5104 17.224 20.4219C17.2448 20.3333 17.3438 20.0833 17.4427 19.8646C17.7188 19.2604 17.8125 18.9427 17.7865 18.6927C17.7657 18.5104 17.8021 18.3906 18.0052 17.9792C18.3802 17.2083 18.9337 16.0358 18.9962 16.0358C19.0275 16.0358 19.1667 16.2864 19.25 16.4427C19.3907 16.6979 19.499 16.8186 19.4261 16.902C19.3584 16.9853 18.6667 17.9687 18.5104 18.2917C18.3438 18.651 18.2344 19.0052 18.2604 19.125C18.2709 19.2031 18.4427 19.5417 18.6354 19.8854C18.8282 20.2239 19.0365 20.5989 19.0938 20.7083C19.1563 20.8229 19.2396 20.9583 19.2865 21.0104C19.3334 21.0625 19.4011 21.1719 19.4427 21.25C19.4844 21.3281 19.5469 21.4114 19.5782 21.4323C19.6146 21.4531 19.6459 21.5573 19.6459 21.6614C19.6459 21.8489 19.6459 21.8489 19.5365 21.75C19.474 21.6979 19.3073 21.4635 19.1563 21.2396C18.9011 20.8437 18.8907 20.8333 18.8646 20.9844C18.8438 21.1042 18.7344 21.2239 18.3959 21.4948C18.1511 21.6927 17.9011 21.9062 17.8386 21.9739C17.7084 22.1094 17.7188 22.1094 17.6146 22.0417Z" fill="url(#paint44_radial_31_9505)"/>
<path d="M22.0571 20.8594C21.9165 20.8385 21.8853 20.8125 21.8853 20.7135C21.8853 20.5989 21.9009 20.5885 22.0207 20.6354C22.0936 20.6667 22.2915 20.6875 22.4582 20.6875C22.6248 20.6875 22.8228 20.6667 22.8957 20.6354C23.0155 20.5937 23.0311 20.5989 23.0311 20.7083C23.0311 20.8125 22.9998 20.8333 22.7915 20.8646C22.5415 20.8958 22.354 20.8958 22.0571 20.8594Z" fill="url(#paint45_radial_31_9505)"/>
<path d="M21.4688 20.4792C21.4688 20.3386 21.4531 20.3229 21.3125 20.3229C21.1667 20.3229 21.1562 20.3073 21.1562 20.1406C21.1562 19.9115 21.2031 19.9115 21.3542 20.1406C21.4167 20.2396 21.5521 20.375 21.6511 20.4375C21.8802 20.5886 21.8802 20.6354 21.6511 20.6354C21.4844 20.6354 21.4688 20.625 21.4688 20.4792Z" fill="url(#paint46_radial_31_9505)"/>
<path d="M10.6353 20.1875C10.6353 20.125 10.8123 19.8542 10.854 19.8542C10.8748 19.8542 10.8957 19.9375 10.8957 20.0365C10.8957 20.1979 10.8801 20.2188 10.7655 20.2188C10.6926 20.2188 10.6353 20.2031 10.6353 20.1875Z" fill="#00B2F7"/>
<path d="M20.875 19.7708C20.8594 19.7239 20.8438 19.6198 20.8438 19.5364C20.8438 19.4219 20.8177 19.3854 20.7448 19.3854C20.6354 19.3854 20.5833 19.2864 20.5833 19.0677C20.5833 18.9531 20.5573 18.9166 20.4792 18.9166C20.3958 18.9166 20.375 18.8802 20.375 18.7344C20.375 18.6354 20.3958 18.5521 20.4167 18.5521C20.4583 18.5521 21.1562 19.7552 21.1562 19.8229C21.1562 19.8958 20.9062 19.8489 20.875 19.7708Z" fill="url(#paint47_radial_31_9505)"/>
<path d="M20.1147 18.2656C20.1147 18.0417 20.1668 18.0365 20.2866 18.2344C20.4012 18.4323 20.4012 18.4479 20.2449 18.4479C20.1304 18.4479 20.1147 18.4271 20.1147 18.2656Z" fill="url(#paint48_radial_31_9505)"/>
<path d="M19.854 17.7865L19.8592 17.5886L19.9842 17.7344C20.1509 17.9219 20.1457 17.9792 19.9842 17.9792C19.8696 17.9792 19.854 17.9584 19.854 17.7865Z" fill="url(#paint49_radial_31_9505)"/>
<path d="M10.1039 13.8541C9.98929 13.7396 9.98929 13.7083 10.083 13.7083C10.1195 13.7083 10.1664 13.7604 10.182 13.8229C10.2237 13.9687 10.2133 13.9739 10.1039 13.8541Z" fill="url(#paint50_linear_31_9505)"/>
<path d="M10.6458 20.1406C10.7969 19.9115 10.8438 19.9115 10.8438 20.1406C10.8438 20.3073 10.8333 20.3229 10.6875 20.3229H10.5312L10.6458 20.1406Z" fill="#00C8E6"/>
<path d="M11.729 18.3177C11.729 18.2448 11.8957 17.9792 11.9373 17.9792C11.9686 17.9792 11.9894 18.0625 11.9894 18.1615C11.9894 18.3229 11.9738 18.3438 11.8592 18.3438C11.7863 18.3438 11.729 18.3334 11.729 18.3177Z" fill="#00C8E6"/>
<path d="M6.11421 14.6705C6.00896 13.7745 6.48291 12.855 7.20833 12.4531C7.54553 12.2664 8.35796 12.1458 8.38943 12.2453C8.40506 12.2817 8.41553 12.3901 8.45718 12.3745C8.58741 12.3224 8.55728 12.3542 8.43228 12.5208C8.35938 12.6146 8.31251 12.7188 8.32813 12.75C8.37501 12.8802 7.70313 13.6094 7.27603 13.8958C7.13541 13.9948 7.01563 14.099 7.01563 14.1354C7.01563 14.2136 6.97501 14.6849 6.93333 14.6224C6.91251 14.5911 6.97973 14.6809 6.93286 14.7226C6.87036 14.7695 6.13126 14.8154 6.11421 14.6705Z" fill="url(#paint51_linear_31_9505)"/>
<path d="M13.2342 23.4636C13.1873 23.3802 13.1821 23.2239 13.2133 22.8906C13.2394 22.6406 13.2602 22.1354 13.2654 21.7708C13.2706 21.4062 13.2862 21.0886 13.3071 21.0729C13.3644 21.0104 13.3487 20.9479 13.2758 20.9479C13.2394 20.9479 13.0727 21.1562 12.9112 21.4062C12.4112 22.1927 11.7914 22.6667 11.2758 22.6667C11.0987 22.6667 11.0623 22.6823 11.0831 22.7448C11.1039 22.7969 11.0831 22.8229 11.0258 22.8229C10.9789 22.8229 10.8279 22.9114 10.6925 23.0208C10.5623 23.1302 10.38 23.2656 10.2862 23.3177C10.1977 23.3698 10.1352 23.4427 10.1508 23.4792C10.1717 23.5313 10.1508 23.5364 10.0467 23.4844C9.95292 23.4427 9.84874 23.2708 9.65604 22.8438L9.00342 21.2708C9.94499 21.4236 11.1603 21.3396 11.1603 21.3396C11.5718 21.2719 11.2543 21.0016 11.6397 21.1318C12.0772 21.2829 11.5234 21.6394 11.8984 21.3894C12.013 21.3113 12.1623 21.3363 12.2144 21.305C12.2717 21.279 12.3547 21.421 12.3547 21.3897C12.3547 21.3585 12.5446 21.5201 12.5914 21.4837C12.7373 21.3639 12.7967 21.151 13.6352 19.7188C14.0831 18.9479 14.6612 17.9739 14.9217 17.5469C15.38 16.8125 15.406 16.7812 15.5675 16.7812C15.7289 16.7812 15.7394 16.7917 15.7394 16.9531C15.7394 17.0417 15.6769 17.2136 15.6092 17.3281C15.5362 17.4427 15.4789 17.5886 15.4789 17.6511C15.4789 17.7083 15.4217 17.8854 15.3487 18.0417C15.2758 18.1927 15.2185 18.3646 15.2185 18.4219C15.2185 18.4792 15.1821 18.599 15.1352 18.6823C14.9842 18.9636 14.6404 19.974 14.4217 20.7656C14.255 21.375 14.2081 21.6458 14.2029 21.9896L14.1977 22.4323L13.8696 23.0104C13.5987 23.4844 13.5206 23.5833 13.4217 23.5833C13.3487 23.5833 13.2706 23.5365 13.2342 23.4636Z" fill="url(#paint52_linear_31_9505)"/>
<path d="M19.8904 22.0729C19.5935 21.849 19.229 21.3542 18.7498 20.5208C18.2133 19.5781 18.0727 19.3021 18.0519 19.1198C18.0362 18.9844 18.1925 18.4792 18.354 18.1354C18.5623 17.7083 19.1404 16.6771 19.2081 16.6198C19.3019 16.5417 19.3175 16.5625 19.5362 16.9427C19.6508 17.1563 19.7653 17.3091 19.7184 17.3299C19.6507 17.3507 19.0727 18.2344 19.0727 18.3333C19.0727 18.3594 18.9894 18.5573 18.8904 18.7656C18.7915 18.9792 18.6873 19.2917 18.6612 19.4635C18.6144 19.75 18.6196 19.7969 18.7498 20.0625C18.8279 20.2188 18.9217 20.375 18.9581 20.4167C18.9894 20.4531 19.0206 20.5208 19.0206 20.5573C19.0206 20.625 19.3123 20.7396 19.479 20.7396C19.5102 20.7396 19.5415 20.7604 19.5415 20.7865C19.5415 20.8073 19.7446 20.7865 19.9998 20.7344C20.2498 20.6823 20.6821 20.6198 20.9685 20.6042C21.3904 20.5729 21.4894 20.5521 21.505 20.4792C21.5258 20.401 21.5404 20.4567 21.8175 20.5469C22.2997 20.7038 22.9446 20.7319 23.3644 20.3802C23.5109 20.2574 23.5097 20.233 23.0831 21.1719C22.7968 21.8021 22.6665 22.0104 22.6665 21.8281C22.6665 21.7552 22.255 21.8177 21.8071 21.9688C21.2758 22.1406 20.8644 22.2135 20.5987 22.1719C20.4581 22.151 20.3748 22.1563 20.3956 22.1875C20.4112 22.2135 20.354 22.2344 20.2706 22.2396C20.1717 22.2396 20.031 22.1823 19.8904 22.0729Z" fill="url(#paint53_radial_31_9505)"/>
<path d="M21.0366 20.0886C20.9897 19.9844 20.948 19.8333 20.948 19.75C20.948 19.6302 20.922 19.5938 20.8491 19.5938C20.7397 19.5938 20.6876 19.4948 20.6876 19.2761C20.6876 19.1615 20.6616 19.125 20.5887 19.125C20.4793 19.125 20.4272 19.0261 20.4272 18.8073C20.4272 18.6927 20.4012 18.6562 20.3282 18.6562C20.2189 18.6562 20.1668 18.5573 20.1668 18.3386C20.1668 18.224 20.1407 18.1875 20.0678 18.1875C20.0157 18.1875 19.9532 18.1511 19.9376 18.1042C19.8907 17.9844 19.9012 17.7188 19.948 17.7188C19.9741 17.7188 20.3074 18.2917 20.698 18.9948C21.396 20.2448 21.4064 20.2708 21.2657 20.2708C21.1564 20.2708 21.1043 20.2292 21.0366 20.0886Z" fill="url(#paint54_radial_31_9505)"/>
<path d="M11.7914 18.2031C11.9737 17.8177 12.0414 17.7813 12.0414 18.0573C12.0414 18.2188 12.0257 18.2396 11.906 18.2396C11.833 18.2396 11.781 18.224 11.7914 18.2031Z" fill="#00BFF9"/>
<path d="M18.9271 20.7812C18.7865 20.5417 18.5886 20.2031 18.4949 20.026C18.323 19.7135 18.323 19.7031 18.4167 19.6042C18.4688 19.5417 18.4949 19.474 18.4792 19.4479C18.4428 19.3854 18.6146 18.8385 18.7761 18.5156C18.8542 18.3646 18.9167 18.2187 18.9167 18.1875C18.9167 18.0833 19.4636 16.9948 19.5157 16.9948C19.5469 16.9896 19.6303 17.1042 19.7032 17.2396C21.2084 19.9948 21.4584 20.3906 21.8334 20.5833C21.9324 20.6406 21.9949 20.6823 21.9636 20.6875C21.9376 20.6875 21.948 20.7135 21.9896 20.7448C22.0469 20.7865 22.0313 20.7917 21.9115 20.7604C21.573 20.6771 20.6199 20.776 19.7761 20.974C19.4949 21.0417 19.4584 21.0365 19.4011 20.9635C19.3646 20.9167 19.3178 20.8906 19.3021 20.9115C19.2813 20.9323 19.2292 20.9167 19.1876 20.8802C19.1199 20.8281 19.1146 20.8333 19.1511 20.8958C19.198 20.974 19.2396 21.2083 19.2032 21.2083C19.1928 21.2083 19.0678 21.0156 18.9271 20.7812Z" fill="url(#paint55_radial_31_9505)"/>
<path d="M9.11458 20.8594C9 20.8438 8.96875 20.8073 8.96875 20.7136C8.96875 20.599 8.97918 20.5937 9.125 20.6458C9.21355 20.6719 9.44793 20.6875 9.64062 20.6771C9.9323 20.6614 10.0469 20.625 10.2656 20.4948L10.5312 20.3281V20.4792C10.5312 20.5833 10.5052 20.6354 10.4531 20.6354C10.4114 20.6354 10.375 20.6562 10.375 20.6875C10.375 20.8229 9.59375 20.9323 9.11458 20.8594Z" fill="url(#paint56_linear_31_9505)"/>
<path d="M22.1405 20.7969C22.1769 20.7708 22.1874 20.7396 22.1665 20.7292C22.1405 20.7135 22.1509 20.7135 22.1874 20.724C22.229 20.7292 22.2915 20.7396 22.3332 20.7396C22.3749 20.7396 22.4061 20.7656 22.4061 20.7917C22.4061 20.8229 22.328 20.8437 22.2394 20.8437C22.1196 20.8437 22.0884 20.8281 22.1405 20.7969Z" fill="url(#paint57_radial_31_9505)"/>
<path d="M25.4009 15.7448C25.4581 15.6458 25.2811 15.6146 24.6457 15.6042C24.0937 15.5989 23.9322 15.5781 23.5676 15.4583C23.0312 15.2864 22.4739 14.9167 22.052 14.4635L21.7395 14.125L21.6301 14.2656L21.478 14.5137L21.5676 14.276C21.7395 13.7969 22.1093 13.1094 22.328 12.8802C22.7916 12.3854 23.5207 12.1354 24.1666 12.25C25.3071 12.4479 26.1041 13.5364 25.9009 14.6302C25.8331 14.9948 25.5989 15.5833 25.5206 15.5833C25.4894 15.5833 25.4791 15.6146 25.4946 15.6562C25.5104 15.6979 25.4894 15.7448 25.4479 15.7604C25.4061 15.776 25.3854 15.7708 25.4009 15.7448Z" fill="url(#paint58_linear_31_9505)"/>
<path d="M11.9377 21.7239C11.8075 21.7031 11.3179 21.6667 10.844 21.6511C10.37 21.6354 9.83353 21.5938 9.64603 21.5573C9.45853 21.5261 9.28146 21.5052 9.24501 21.5104C9.20853 21.5208 9.15646 21.4739 9.12521 21.4114C9.08876 21.3542 9.19978 21.6616 9.17776 21.6601C9.14078 21.6576 8.59011 20.4095 8.56059 20.3567C8.55804 20.3521 8.68251 20.4062 8.83876 20.5052C9.20853 20.7239 9.54709 20.7761 9.92209 20.6667C10.396 20.5313 10.594 20.2917 11.3492 18.9688C12.1148 17.6146 12.1981 17.5 12.1981 17.7917C12.1981 17.9844 12.146 18.0833 12.0367 18.0833C11.9585 18.0833 11.9377 18.1198 11.9377 18.2656C11.9377 18.3906 11.9117 18.4479 11.8596 18.4479C11.8179 18.4479 11.7815 18.4948 11.7815 18.5469C11.7815 18.7031 11.7242 18.8125 11.646 18.8125C11.6044 18.8125 11.5731 18.8594 11.5731 18.9114C11.5731 19.0677 11.5158 19.1771 11.4377 19.1771C11.396 19.1771 11.3648 19.224 11.3648 19.2761C11.3648 19.4323 11.3075 19.5417 11.2294 19.5417C11.1877 19.5417 11.1565 19.5938 11.1565 19.6667C11.1565 19.7813 11.1773 19.7917 11.6148 19.8229C11.8648 19.8438 12.2919 19.8906 12.5627 19.9323C12.8388 19.974 13.1513 19.9948 13.2554 19.9739C13.4325 19.9479 13.469 19.9115 13.7658 19.3906C13.9429 19.0886 14.1044 18.8281 14.1252 18.8125C14.146 18.7969 14.1773 18.7344 14.1981 18.6719C14.219 18.6042 14.2606 18.5521 14.2867 18.5521C14.3127 18.5521 14.3335 18.5208 14.3335 18.4792C14.3335 18.4375 14.3648 18.3698 14.4065 18.3333C14.4429 18.2917 14.495 18.2083 14.5106 18.1458C14.5315 18.0833 14.5731 18.0312 14.5992 18.0312C14.6252 18.0312 14.646 18 14.646 17.9583C14.646 17.9167 14.6773 17.8489 14.719 17.8125C14.7554 17.7708 14.8075 17.6875 14.8231 17.625C14.844 17.5625 14.8856 17.5104 14.9117 17.5104C14.9377 17.5104 14.9585 17.474 14.9585 17.4323C14.9585 17.3906 14.9846 17.3542 15.0106 17.3542C15.0419 17.3542 15.0627 17.3229 15.0627 17.2812C15.0627 17.2396 15.094 17.1719 15.1304 17.1354C15.1617 17.099 15.2346 16.9792 15.2919 16.875C15.344 16.7708 15.4325 16.6354 15.4846 16.5781C15.5419 16.5208 15.5835 16.4479 15.5835 16.4167C15.5835 16.3906 15.6096 16.3646 15.6356 16.3646C15.6669 16.3646 15.6877 16.3281 15.6877 16.2864C15.6877 16.2448 15.7138 16.2083 15.7398 16.2083C15.771 16.2083 15.7919 16.1719 15.7919 16.1302C15.7919 16.0885 15.8179 16.0521 15.844 16.0521C15.8752 16.0521 15.896 16.0156 15.896 15.974C15.896 15.9323 15.9221 15.8958 15.9481 15.8958C15.9794 15.8958 16.0002 15.8594 16.0002 15.8177C16.0002 15.7708 16.0367 15.724 16.0783 15.7083C16.12 15.6875 16.1565 15.6458 16.1565 15.6042C16.1565 15.5625 16.1825 15.5312 16.2085 15.5312C16.2398 15.5312 16.2606 15.4948 16.2606 15.4531C16.2606 15.4062 16.2971 15.3594 16.3388 15.3438C16.3804 15.3229 16.4169 15.2813 16.4169 15.2396C16.4169 15.1979 16.4429 15.1667 16.469 15.1667C16.5002 15.1667 16.521 15.1354 16.521 15.0938C16.521 15.0521 16.5627 14.9844 16.6148 14.9479C16.6617 14.9114 16.7346 14.8229 16.771 14.75C16.9325 14.4479 17.146 14.2812 17.3804 14.2812C17.5054 14.2812 17.5523 14.3125 17.6044 14.4323C17.6981 14.6458 17.9377 14.75 18.1773 14.6875C18.2867 14.6615 18.469 14.625 18.594 14.6094C18.8075 14.5781 18.8127 14.5833 18.8127 14.7344C18.8127 14.8229 18.7438 14.9694 18.7021 15.0007C18.5823 15.0996 17.6513 16.401 17.3179 16.9375C17.146 17.2083 16.7815 17.8333 16.5106 18.3177C15.1617 20.7292 14.1072 22.663 14.0343 22.663C14.0134 22.663 13.6333 21.3803 13.6593 21.3178C13.6854 21.2501 14.0366 20.886 14.0158 20.8287C13.9793 20.7297 13.4725 21.0431 13.5766 20.9076C13.6183 20.8608 14.3104 19.5813 14.3468 19.4198C14.3833 19.2688 14.8944 18.0579 15.2486 17.4068C15.4673 16.9954 16.6252 16.6562 16.6252 16.625C16.6252 16.599 16.6513 16.5729 16.6773 16.5729C16.7085 16.5729 16.7294 16.5261 16.7294 16.4688C16.7294 16.4114 16.7502 16.3646 16.7763 16.3646C16.8335 16.3646 17.1981 15.625 17.1981 15.5104C17.1981 15.4635 17.2242 15.4271 17.2554 15.4271C17.2867 15.4271 17.2971 15.3802 17.2763 15.3229C17.2554 15.2656 17.2658 15.2188 17.2971 15.2188C17.3283 15.2188 17.3544 15.1719 17.3544 15.1094C17.3544 14.9375 17.7245 15.2052 17.823 15.2431C17.8907 15.2692 17.8728 17.0448 17.5972 15.2963C17.5829 15.2052 17.3149 15.5514 17.2941 15.4941C17.268 15.416 17.846 15.5336 17.5856 15.8513C16.7992 16.8096 15.3231 17.1979 13.9169 19.6198C12.8492 21.4531 12.6877 21.6927 12.5575 21.6614C12.5054 21.6458 12.4585 21.6562 12.4585 21.6875C12.4585 21.7135 12.4377 21.7188 12.4065 21.7031C12.3804 21.6875 12.3544 21.6979 12.3544 21.7239C12.3544 21.7864 12.2763 21.7864 11.9377 21.7239Z" fill="url(#paint59_linear_31_9505)"/>
<path d="M11.9221 14.276C11.6773 14.1458 11.3752 13.8438 11.219 13.5573C11.2072 13.5651 11.0616 13.2264 11.0814 13.2134L11.6929 13.3438H12.2867L12.245 13.5938C12.2242 13.7292 12.2034 13.9635 12.2034 14.1146C12.1981 14.2604 12.1825 14.3854 12.1617 14.3854C12.1356 14.3802 12.0315 14.3333 11.9221 14.276Z" fill="url(#paint60_linear_31_9505)"/>
<path d="M10.4844 20.3646C10.5834 20.2656 10.9584 19.6719 11.3178 19.0416C12.7605 16.5364 13.8959 14.5989 14.1407 14.2291C14.4271 13.7969 15.4219 12.776 15.8021 12.5156L16.209 12.269L16.0521 12.4948C16.0521 12.5781 15.9688 12.7969 15.8698 12.9844C15.6615 13.3854 15.5157 13.9375 15.5626 14.1823C15.6146 14.4427 15.7813 14.7239 15.9532 14.8229C16.1042 14.9114 16.1146 14.9114 16.4323 14.7552C16.8334 14.5573 16.9428 14.4896 17.0313 14.375C17.073 14.3177 17.1667 14.2812 17.2813 14.2812C17.448 14.2812 17.4584 14.2917 17.4532 14.4531C17.448 14.5417 17.4376 14.5781 17.4219 14.526C17.4115 14.4791 17.3803 14.4375 17.3594 14.4375C17.1459 14.4375 15.8021 16.4062 14.4115 18.7344C13.5209 20.2344 13.349 20.5104 13.4219 20.3125C13.474 20.1823 13.4063 20.0937 13.3178 20.1666C13.2605 20.2135 13.1251 20.2083 12.7605 20.1458C12.224 20.0573 11.4167 19.9583 11.1928 19.9583C11.0938 19.9583 10.9896 20.0208 10.8438 20.1823C10.7292 20.3021 10.6198 20.401 10.5938 20.401C10.573 20.4062 10.5001 20.4375 10.4323 20.4739C10.3334 20.526 10.349 20.5052 10.4844 20.3646Z" fill="url(#paint61_linear_31_9505)"/>
<path d="M16.3645 18.4479C16.4217 18.3333 16.4842 18.2396 16.4947 18.2396C16.5103 18.2396 16.4738 18.3333 16.4165 18.4479C16.3592 18.5625 16.2967 18.6562 16.2863 18.6562C16.2707 18.6562 16.3072 18.5625 16.3645 18.4479Z" fill="url(#paint62_linear_31_9505)"/>
<path d="M16.6252 17.9791C16.6825 17.8646 16.745 17.7708 16.7554 17.7708C16.771 17.7708 16.7346 17.8646 16.6773 17.9791C16.62 18.0937 16.5575 18.1875 16.5471 18.1875C16.5315 18.1875 16.5679 18.0937 16.6252 17.9791Z" fill="url(#paint63_linear_31_9505)"/>
<path d="M16.8386 17.6042C16.9584 17.3802 17.4793 16.5469 17.6511 16.3073C17.7449 16.1719 17.823 16.0521 17.823 16.0313C17.823 16.0104 17.9168 15.8698 18.0313 15.7188C18.1459 15.5677 18.2397 15.401 18.2397 15.3542C18.2397 15.3073 18.2657 15.2813 18.2918 15.2969C18.3386 15.3281 18.3647 15.2448 18.3595 15.0781C18.3543 15.0417 18.3803 15.0104 18.4063 15.0104C18.4793 15.0104 18.6043 14.8698 18.5678 14.8333C18.5157 14.7813 18.4376 14.7969 18.4741 14.8542C18.4949 14.8854 18.4428 14.8906 18.3386 14.8698C18.2241 14.849 18.1824 14.8542 18.2032 14.8958C18.2293 14.9271 18.2032 14.9375 18.1355 14.9219C18.0001 14.8854 18.0001 14.75 18.1355 14.75C18.1928 14.75 18.2397 14.7292 18.2397 14.6979C18.2397 14.6719 18.2657 14.6458 18.297 14.6458C18.3282 14.6458 18.4897 14.5833 18.6563 14.5104C18.823 14.4375 19.4292 14.1453 19.4571 14.1129C19.5353 14.0224 20.2095 13.3904 19.0365 14.6084C18.9882 14.6586 18.5162 15.2339 18.4551 15.3006C18.2623 15.5113 18.4572 15.2485 18.4532 15.2604C18.448 15.2813 18.297 15.4948 18.1147 15.7396C17.7293 16.2604 17.3543 16.8125 17.047 17.3438C16.922 17.5469 16.8126 17.7188 16.8022 17.7188C16.7866 17.7188 16.8074 17.6667 16.8386 17.6042Z" fill="url(#paint64_linear_31_9505)"/>
<path d="M12.1616 13.5886C12.1928 13.5052 11.698 13.474 11.5938 13.5573C11.5366 13.6042 11.5209 13.599 11.5209 13.5469C11.5209 13.4896 11.5105 13.4896 11.4793 13.5365C11.4428 13.5886 11.4063 13.5886 11.297 13.5365C11.1199 13.4583 10.9823 13.0986 11.0001 12.6615C11.0294 11.9417 11.5292 11.5241 11.8615 11.4947C12.1035 11.4732 12.3153 11.4926 12.4713 11.6671C12.6274 11.8417 12.6719 11.9066 12.6668 12.1458C12.6628 12.3333 12.6199 12.5156 12.5157 12.7448C12.4324 12.9271 12.3334 13.2031 12.2918 13.3646C12.2553 13.5261 12.2032 13.6563 12.1824 13.6563C12.1563 13.6563 12.1459 13.625 12.1616 13.5886Z" fill="url(#paint65_linear_31_9505)"/>
<path d="M13.823 12.5521C13.698 12.401 13.5886 11.8437 13.5886 11.3646C13.5834 10.8229 13.6615 10.3854 13.8282 9.98436C13.9532 9.67706 14.3699 9.02081 14.4428 9.02081C14.4688 9.02081 14.4897 9.10414 14.4897 9.20311C14.4897 9.35414 14.4688 9.38539 14.3751 9.38539C14.2865 9.38539 14.2761 9.40101 14.323 9.44789C14.3594 9.48436 14.3855 9.55206 14.3855 9.60414C14.3855 9.83851 15.4272 10.3281 16.1251 10.4219C16.5209 10.4791 16.5417 10.4739 16.7605 10.3489C16.8803 10.276 17.0522 10.2187 17.1407 10.2187C17.2917 10.2187 17.3022 10.2031 17.3022 10.0364C17.3022 9.91664 17.3282 9.85414 17.3751 9.85414C17.4115 9.85414 17.4584 9.78644 17.4792 9.69789C17.5053 9.56769 17.5313 9.54164 17.6667 9.54164C17.7501 9.54164 17.7007 9.00499 17.7007 9.03101C17.9289 9.00321 17.5814 9.96446 17.0403 10.3181C16.9778 10.3441 17.3232 10.248 17.3128 10.3C17.2763 10.425 16.7032 10.8021 16.2188 11C15.1563 11.4427 14.3594 11.9687 14.073 12.4323C13.9532 12.6302 13.9063 12.651 13.823 12.5521Z" fill="url(#paint66_linear_31_9505)"/>
<path d="M17.4064 14.5156C17.4064 14.4219 17.297 14.4115 17.2085 14.5C17.1616 14.5469 17.146 14.5261 17.146 14.3959C17.146 14.2396 17.1564 14.2292 17.3283 14.2292C17.5002 14.2292 17.5106 14.2396 17.5106 14.4115C17.5106 14.5104 17.4897 14.5938 17.4585 14.5938C17.4324 14.5938 17.4064 14.5573 17.4064 14.5156Z" fill="#59E9FE"/>
<path d="M16.0782 10.599C15.823 10.5625 15.448 10.474 15.2449 10.4011C14.7449 10.2188 14.2449 9.89586 14.2189 9.73961C14.2084 9.67189 14.1772 9.61981 14.1407 9.61981C14.1095 9.61981 14.0562 9.73121 14.0354 9.71039C14.0149 9.68449 14.0469 9.54846 14.0678 9.54169C14.0888 9.53491 14.1101 9.51774 14.1043 9.49481C14.0984 9.47189 14.157 9.39231 14.2032 9.31251C14.2568 9.22006 14.3191 9.14539 14.3334 9.13024C14.3758 9.08534 14.5209 8.91669 14.6147 8.91669C14.6668 8.91669 14.8074 8.98961 14.9376 9.07814C15.3074 9.32814 15.8074 9.54169 16.1668 9.59899C16.4532 9.64586 16.5574 9.63544 17.0053 9.51564C17.2814 9.44274 17.5678 9.38544 17.6407 9.38544C17.7553 9.38544 17.7709 9.40626 17.7709 9.57294C17.7709 9.68231 17.7501 9.74481 17.7189 9.72399C17.6928 9.70836 17.6668 9.70836 17.6616 9.73439C17.6616 9.75524 17.6512 9.82814 17.6459 9.89586C17.6355 9.96356 17.5053 10.1406 17.3543 10.2865C17.2032 10.4375 17.0939 10.5156 17.1147 10.4636C17.1459 10.375 17.1355 10.375 16.9741 10.474C16.6824 10.6563 16.573 10.6719 16.0782 10.599Z" fill="url(#paint67_linear_31_9505)"/>
<path d="M19.672 9.17706C19.0939 8.89061 18.9865 8.05436 19.5053 7.66144C19.6727 7.53466 20.1088 7.38269 20.2368 7.48769C20.367 7.62311 20.3283 7.69644 20.6512 7.68081C20.6501 7.67181 20.8989 7.86426 20.922 8.05206C21.2189 8.82811 20.4168 9.54686 19.672 9.17706Z" fill="url(#paint68_linear_31_9505)"/>
<path d="M15.9322 9.74999C15.6405 9.69791 15.1145 9.46354 14.7708 9.22394C14.5676 9.08331 14.5103 9.06769 14.4322 9.11979C14.2239 9.24479 14.3489 9.06769 14.6614 8.78644C15.1093 8.38019 15.7083 8.08854 16.1874 8.04686C17.1197 7.96874 17.7018 8.52796 17.8134 9.31171C17.8377 9.48201 17.7126 9.90624 17.6088 9.96956C17.5049 10.0329 17.5184 9.93979 17.5184 9.90854C17.5184 9.88249 17.5823 9.77719 17.5562 9.81884C17.5146 9.88134 17.6145 9.79686 17.6145 9.69269V9.55729L17.1405 9.67706C16.651 9.80729 16.3697 9.82291 15.9322 9.74999Z" fill="url(#paint69_linear_31_9505)"/>
<path d="M20.8226 8.04687C20.8018 8.02085 20.5987 8.00522 20.3747 8.00522C20.0049 8.00522 19.958 7.9948 19.8278 7.8646C19.7497 7.78125 19.6351 7.71875 19.5778 7.71875C19.4216 7.71875 19.557 7.58335 19.7914 7.50522C20.0466 7.42187 20.2237 7.4323 20.4633 7.5521C20.6976 7.6771 20.8382 7.81772 20.8695 7.97397C20.8903 8.09375 20.8851 8.10417 20.8226 8.04687Z" fill="url(#paint70_linear_31_9505)"/>
<path d="M17.5732 14.75C17.5055 14.6875 17.4274 14.5781 17.4013 14.5052C17.3597 14.3958 17.1005 14.5269 17.038 14.579C16.9702 14.6363 17.1982 14.4791 17.1982 14.3541C17.1982 14.2344 17.3024 14.0885 17.6774 13.6875C18.3284 12.9896 18.6097 12.7708 18.8649 12.7708C19.0472 12.7708 19.0628 12.7812 19.094 12.9687C19.1722 13.4479 19.0732 14.1198 18.8961 14.2969C18.8545 14.3333 18.8336 14.4271 18.8493 14.4948C18.8701 14.6094 18.844 14.6406 18.6461 14.7187C18.5211 14.7708 18.2607 14.8229 18.0576 14.8385C17.7347 14.8594 17.6774 14.8489 17.5732 14.75Z" fill="url(#paint71_linear_31_9505)"/>
<path d="M18.6873 14.6354C18.7134 14.599 18.6978 14.5886 18.6405 14.6094C18.5884 14.6302 18.5676 14.6198 18.578 14.5781C18.5936 14.5417 18.6144 14.4531 18.6248 14.3698C18.6405 14.2917 18.6873 14.1927 18.729 14.1458C18.9009 13.974 19.0415 13.2396 18.9113 13.1563C18.8801 13.1406 18.8644 13.0781 18.8801 13.0261C18.8957 12.9688 18.8853 12.9271 18.8644 12.9271C18.7707 12.9271 18.2915 13.3542 17.8332 13.8438L17.354 14.3594V14.1719C17.354 13.9583 17.4321 13.8646 17.5988 13.8646C17.6926 13.8646 17.7186 13.8386 17.7186 13.7188C17.7186 13.6146 17.7915 13.5 17.9946 13.3021C18.1457 13.1511 18.2811 13.0313 18.2967 13.0313C18.3123 13.0313 18.4321 12.9323 18.5623 12.8125C19.0623 12.349 19.7655 12.0261 20.4165 11.9636C20.7655 11.9271 20.7915 11.9323 20.9165 12.0573C21.0676 12.2083 21.1301 12.4011 21.0832 12.5833C21.0676 12.6563 20.8592 12.8854 20.6248 13.0938C20.3853 13.3021 19.9478 13.7136 19.6457 14.0052C19.3384 14.3021 19.0103 14.5677 18.8957 14.6146C18.6561 14.7136 18.6405 14.7136 18.6873 14.6354Z" fill="url(#paint72_linear_31_9505)"/>
<path d="M15.901 15.0156C15.6874 14.9583 15.4791 14.6406 15.4322 14.3125C15.3541 13.7239 15.5833 12.9271 15.9687 12.4687C16.2499 12.1406 17.3228 11.625 18.0885 11.4479C19.2031 11.1927 20.2135 11.3542 20.7551 11.875C20.9895 12.0989 21.1041 12.2969 21.1041 12.4792C21.1041 12.6146 20.9843 12.7708 20.8801 12.7708C20.8437 12.7656 20.8697 12.7239 20.9374 12.6719C21.0781 12.5469 21.0833 12.4062 20.9478 12.25C20.8645 12.151 20.7968 12.1302 20.5572 12.1354C19.7343 12.1406 18.7343 12.7812 17.7083 13.9531C17.1978 14.5312 16.7603 14.875 16.3749 14.9896C16.1197 15.0677 16.0885 15.0677 15.901 15.0156Z" fill="url(#paint73_linear_31_9505)"/>
</g>
</g>
<defs>
<filter id="filter0_i_31_9505" x="2" y="2" width="28" height="32" filterUnits="userSpaceOnUse" color-interpolation-filters="sRGB">
<feFlood flood-opacity="0" result="BackgroundImageFix"/>
<feBlend mode="normal" in="SourceGraphic" in2="BackgroundImageFix" result="shape"/>
<feColorMatrix in="SourceAlpha" type="matrix" values="0 0 0 0 0 0 0 0 0 0 0 0 0 0 0 0 0 0 127 0" result="hardAlpha"/>
<feOffset dy="4"/>
<feGaussianBlur stdDeviation="2"/>
<feComposite in2="hardAlpha" operator="arithmetic" k2="-1" k3="1"/>
<feColorMatrix type="matrix" values="0 0 0 0 0 0 0 0 0 0 0 0 0 0 0 0 0 0 0.25 0"/>
<feBlend mode="normal" in2="shape" result="effect1_innerShadow_31_9505"/>
</filter>
<linearGradient id="paint0_linear_31_9505" x1="0" y1="0" x2="37.9187" y2="21.6184" gradientUnits="userSpaceOnUse">
<stop stop-color="#00CCE6"/>
<stop offset="1" stop-color="#0082E7"/>
</linearGradient>
<linearGradient id="paint1_linear_31_9505" x1="9.89267" y1="9.60785" x2="10.9642" y2="7.76323" gradientUnits="userSpaceOnUse">
<stop stop-color="#1964E7"/>
<stop offset="1" stop-color="#6884F2"/>
</linearGradient>
<linearGradient id="paint2_linear_31_9505" x1="6.24425" y1="7.77681" x2="7.31575" y2="9.62144" gradientUnits="userSpaceOnUse">
<stop stop-color="#00CCE6"/>
<stop offset="1" stop-color="#0082E7"/>
</linearGradient>
<radialGradient id="paint3_radial_31_9505" cx="0" cy="0" r="1" gradientUnits="userSpaceOnUse" gradientTransform="translate(10.1775 9.3366) scale(1.55979)">
<stop offset="0.23" stop-color="#00CDFF"/>
<stop offset="0.49" stop-color="#00BCFA"/>
<stop offset="0.77" stop-color="#00ABF8"/>
<stop offset="1" stop-color="#0098F7"/>
</radialGradient>
<radialGradient id="paint4_radial_31_9505" cx="0" cy="0" r="1" gradientUnits="userSpaceOnUse" gradientTransform="translate(10.1776 9.33661) scale(1.55979)">
<stop offset="0.23" stop-color="#00CDFF"/>
<stop offset="0.49" stop-color="#00BCFA"/>
<stop offset="0.77" stop-color="#00ABF8"/>
<stop offset="1" stop-color="#0098F7"/>
</radialGradient>
<radialGradient id="paint5_radial_31_9505" cx="0" cy="0" r="1" gradientUnits="userSpaceOnUse" gradientTransform="translate(10.1777 9.3366) scale(1.55979)">
<stop offset="0.23" stop-color="#00CDFF"/>
<stop offset="0.49" stop-color="#00BCFA"/>
<stop offset="0.77" stop-color="#00ABF8"/>
<stop offset="1" stop-color="#0098F7"/>
</radialGradient>
<radialGradient id="paint6_radial_31_9505" cx="0" cy="0" r="1" gradientUnits="userSpaceOnUse" gradientTransform="translate(10.1773 9.33656) scale(1.55979 1.55979)">
<stop offset="0.23" stop-color="#00CDFF"/>
<stop offset="0.49" stop-color="#00BCFA"/>
<stop offset="0.77" stop-color="#00ABF8"/>
<stop offset="1" stop-color="#0098F7"/>
</radialGradient>
<radialGradient id="paint7_radial_31_9505" cx="0" cy="0" r="1" gradientUnits="userSpaceOnUse" gradientTransform="translate(10.1775 9.33658) scale(1.55979 1.55979)">
<stop offset="0.23" stop-color="#00CDFF"/>
<stop offset="0.49" stop-color="#00BCFA"/>
<stop offset="0.77" stop-color="#00ABF8"/>
<stop offset="1" stop-color="#0098F7"/>
</radialGradient>
<radialGradient id="paint8_radial_31_9505" cx="0" cy="0" r="1" gradientUnits="userSpaceOnUse" gradientTransform="translate(10.1777 9.33659) scale(1.55979)">
<stop offset="0.23" stop-color="#00CDFF"/>
<stop offset="0.49" stop-color="#00BCFA"/>
<stop offset="0.77" stop-color="#00ABF8"/>
<stop offset="1" stop-color="#0098F7"/>
</radialGradient>
<radialGradient id="paint9_radial_31_9505" cx="0" cy="0" r="1" gradientUnits="userSpaceOnUse" gradientTransform="translate(10.1774 9.33658) scale(1.55979)">
<stop offset="0.23" stop-color="#00CDFF"/>
<stop offset="0.49" stop-color="#00BCFA"/>
<stop offset="0.77" stop-color="#00ABF8"/>
<stop offset="1" stop-color="#0098F7"/>
</radialGradient>
<radialGradient id="paint10_radial_31_9505" cx="0" cy="0" r="1" gradientUnits="userSpaceOnUse" gradientTransform="translate(10.1775 9.33656) scale(1.55979)">
<stop offset="0.23" stop-color="#00CDFF"/>
<stop offset="0.49" stop-color="#00BCFA"/>
<stop offset="0.77" stop-color="#00ABF8"/>
<stop offset="1" stop-color="#0098F7"/>
</radialGradient>
<radialGradient id="paint11_radial_31_9505" cx="0" cy="0" r="1" gradientUnits="userSpaceOnUse" gradientTransform="translate(10.1777 9.3366) scale(1.55978 1.55979)">
<stop offset="0.23" stop-color="#00CDFF"/>
<stop offset="0.49" stop-color="#00BCFA"/>
<stop offset="0.77" stop-color="#00ABF8"/>
<stop offset="1" stop-color="#0098F7"/>
</radialGradient>
<radialGradient id="paint12_radial_31_9505" cx="0" cy="0" r="1" gradientUnits="userSpaceOnUse" gradientTransform="translate(10.1774 9.33659) scale(1.55979 1.55979)">
<stop offset="0.23" stop-color="#00CDFF"/>
<stop offset="0.49" stop-color="#00BCFA"/>
<stop offset="0.77" stop-color="#00ABF8"/>
<stop offset="1" stop-color="#0098F7"/>
</radialGradient>
<linearGradient id="paint13_linear_31_9505" x1="6.24393" y1="7.77679" x2="7.31543" y2="9.62142" gradientUnits="userSpaceOnUse">
<stop stop-color="#00CCE6"/>
<stop offset="1" stop-color="#0082E7"/>
</linearGradient>
<linearGradient id="paint14_linear_31_9505" x1="6.24394" y1="7.77681" x2="7.31544" y2="9.62144" gradientUnits="userSpaceOnUse">
<stop stop-color="#00CCE6"/>
<stop offset="1" stop-color="#0082E7"/>
</linearGradient>
<linearGradient id="paint15_linear_31_9505" x1="7.5191" y1="8.36005" x2="8.60417" y2="10.2318" gradientUnits="userSpaceOnUse">
<stop stop-color="#0CF4FF"/>
<stop offset="0.28" stop-color="#04EEFE"/>
<stop offset="1" stop-color="#00B1F7"/>
</linearGradient>
<linearGradient id="paint16_linear_31_9505" x1="6.24398" y1="7.77681" x2="7.31548" y2="9.62143" gradientUnits="userSpaceOnUse">
<stop stop-color="#00CCE6"/>
<stop offset="1" stop-color="#0082E7"/>
</linearGradient>
<radialGradient id="paint17_radial_31_9505" cx="0" cy="0" r="1" gradientUnits="userSpaceOnUse" gradientTransform="translate(10.1775 9.33659) scale(1.55979)">
<stop offset="0.23" stop-color="#00CDFF"/>
<stop offset="0.49" stop-color="#00BCFA"/>
<stop offset="0.77" stop-color="#00ABF8"/>
<stop offset="1" stop-color="#0098F7"/>
</radialGradient>
<radialGradient id="paint18_radial_31_9505" cx="0" cy="0" r="1" gradientUnits="userSpaceOnUse" gradientTransform="translate(10.1775 9.3366) scale(1.55979 1.55978)">
<stop offset="0.23" stop-color="#00CDFF"/>
<stop offset="0.49" stop-color="#00BCFA"/>
<stop offset="0.77" stop-color="#00ABF8"/>
<stop offset="1" stop-color="#0098F7"/>
</radialGradient>
<radialGradient id="paint19_radial_31_9505" cx="0" cy="0" r="1" gradientUnits="userSpaceOnUse" gradientTransform="translate(10.1775 9.33657) scale(1.55979)">
<stop offset="0.23" stop-color="#00CDFF"/>
<stop offset="0.49" stop-color="#00BCFA"/>
<stop offset="0.77" stop-color="#00ABF8"/>
<stop offset="1" stop-color="#0098F7"/>
</radialGradient>
<radialGradient id="paint20_radial_31_9505" cx="0" cy="0" r="1" gradientUnits="userSpaceOnUse" gradientTransform="translate(10.1774 9.33659) scale(1.55979)">
<stop offset="0.23" stop-color="#00CDFF"/>
<stop offset="0.49" stop-color="#00BCFA"/>
<stop offset="0.77" stop-color="#00ABF8"/>
<stop offset="1" stop-color="#0098F7"/>
</radialGradient>
<radialGradient id="paint21_radial_31_9505" cx="0" cy="0" r="1" gradientUnits="userSpaceOnUse" gradientTransform="translate(10.1773 9.33656) scale(1.55979)">
<stop offset="0.23" stop-color="#00CDFF"/>
<stop offset="0.49" stop-color="#00BCFA"/>
<stop offset="0.77" stop-color="#00ABF8"/>
<stop offset="1" stop-color="#0098F7"/>
</radialGradient>
<radialGradient id="paint22_radial_31_9505" cx="0" cy="0" r="1" gradientUnits="userSpaceOnUse" gradientTransform="translate(10.1775 9.33656) scale(1.55979 1.55979)">
<stop offset="0.23" stop-color="#00CDFF"/>
<stop offset="0.49" stop-color="#00BCFA"/>
<stop offset="0.77" stop-color="#00ABF8"/>
<stop offset="1" stop-color="#0098F7"/>
</radialGradient>
<radialGradient id="paint23_radial_31_9505" cx="0" cy="0" r="1" gradientUnits="userSpaceOnUse" gradientTransform="translate(10.1777 9.33661) scale(1.55978 1.55978)">
<stop offset="0.23" stop-color="#00CDFF"/>
<stop offset="0.49" stop-color="#00BCFA"/>
<stop offset="0.77" stop-color="#00ABF8"/>
<stop offset="1" stop-color="#0098F7"/>
</radialGradient>
<radialGradient id="paint24_radial_31_9505" cx="0" cy="0" r="1" gradientUnits="userSpaceOnUse" gradientTransform="translate(10.1773 9.33662) scale(1.55979 1.55978)">
<stop offset="0.23" stop-color="#00CDFF"/>
<stop offset="0.49" stop-color="#00BCFA"/>
<stop offset="0.77" stop-color="#00ABF8"/>
<stop offset="1" stop-color="#0098F7"/>
</radialGradient>
<linearGradient id="paint25_linear_31_9505" x1="6.244" y1="7.77681" x2="7.3155" y2="9.62144" gradientUnits="userSpaceOnUse">
<stop stop-color="#00CCE6"/>
<stop offset="1" stop-color="#0082E7"/>
</linearGradient>
<linearGradient id="paint26_linear_31_9505" x1="6.24403" y1="7.7768" x2="7.31556" y2="9.62143" gradientUnits="userSpaceOnUse">
<stop stop-color="#00CCE6"/>
<stop offset="1" stop-color="#0082E7"/>
</linearGradient>
<linearGradient id="paint27_linear_31_9505" x1="7.51927" y1="8.36007" x2="8.60432" y2="10.2318" gradientUnits="userSpaceOnUse">
<stop stop-color="#0CF4FF"/>
<stop offset="0.28" stop-color="#04EEFE"/>
<stop offset="1" stop-color="#00B1F7"/>
</linearGradient>
<radialGradient id="paint28_radial_31_9505" cx="0" cy="0" r="1" gradientUnits="userSpaceOnUse" gradientTransform="translate(10.1777 9.33656) scale(1.55979)">
<stop offset="0.23" stop-color="#00CDFF"/>
<stop offset="0.49" stop-color="#00BCFA"/>
<stop offset="0.77" stop-color="#00ABF8"/>
<stop offset="1" stop-color="#0098F7"/>
</radialGradient>
<radialGradient id="paint29_radial_31_9505" cx="0" cy="0" r="1" gradientUnits="userSpaceOnUse" gradientTransform="translate(10.1776 9.33657) scale(1.55979)">
<stop offset="0.23" stop-color="#00CDFF"/>
<stop offset="0.49" stop-color="#00BCFA"/>
<stop offset="0.77" stop-color="#00ABF8"/>
<stop offset="1" stop-color="#0098F7"/>
</radialGradient>
<radialGradient id="paint30_radial_31_9505" cx="0" cy="0" r="1" gradientUnits="userSpaceOnUse" gradientTransform="translate(10.1774 9.3366) scale(1.55979)">
<stop offset="0.23" stop-color="#00CDFF"/>
<stop offset="0.49" stop-color="#00BCFA"/>
<stop offset="0.77" stop-color="#00ABF8"/>
<stop offset="1" stop-color="#0098F7"/>
</radialGradient>
<radialGradient id="paint31_radial_31_9505" cx="0" cy="0" r="1" gradientUnits="userSpaceOnUse" gradientTransform="translate(10.1777 9.3366) scale(1.55979 1.55979)">
<stop offset="0.23" stop-color="#00CDFF"/>
<stop offset="0.49" stop-color="#00BCFA"/>
<stop offset="0.77" stop-color="#00ABF8"/>
<stop offset="1" stop-color="#0098F7"/>
</radialGradient>
<radialGradient id="paint32_radial_31_9505" cx="0" cy="0" r="1" gradientUnits="userSpaceOnUse" gradientTransform="translate(10.1773 9.33655) scale(1.5598 1.55979)">
<stop offset="0.23" stop-color="#00CDFF"/>
<stop offset="0.49" stop-color="#00BCFA"/>
<stop offset="0.77" stop-color="#00ABF8"/>
<stop offset="1" stop-color="#0098F7"/>
</radialGradient>
<radialGradient id="paint33_radial_31_9505" cx="0" cy="0" r="1" gradientUnits="userSpaceOnUse" gradientTransform="translate(10.1773 9.33663) scale(1.55979 1.55979)">
<stop offset="0.23" stop-color="#00CDFF"/>
<stop offset="0.49" stop-color="#00BCFA"/>
<stop offset="0.77" stop-color="#00ABF8"/>
<stop offset="1" stop-color="#0098F7"/>
</radialGradient>
<radialGradient id="paint34_radial_31_9505" cx="0" cy="0" r="1" gradientUnits="userSpaceOnUse" gradientTransform="translate(10.1775 9.33659) scale(1.55978 1.55979)">
<stop offset="0.23" stop-color="#00CDFF"/>
<stop offset="0.49" stop-color="#00BCFA"/>
<stop offset="0.77" stop-color="#00ABF8"/>
<stop offset="1" stop-color="#0098F7"/>
</radialGradient>
<radialGradient id="paint35_radial_31_9505" cx="0" cy="0" r="1" gradientUnits="userSpaceOnUse" gradientTransform="translate(10.1777 9.33661) scale(1.55978)">
<stop offset="0.23" stop-color="#00CDFF"/>
<stop offset="0.49" stop-color="#00BCFA"/>
<stop offset="0.77" stop-color="#00ABF8"/>
<stop offset="1" stop-color="#0098F7"/>
</radialGradient>
<radialGradient id="paint36_radial_31_9505" cx="0" cy="0" r="1" gradientUnits="userSpaceOnUse" gradientTransform="translate(10.1773 9.3366) scale(1.55979 1.55978)">
<stop offset="0.23" stop-color="#00CDFF"/>
<stop offset="0.49" stop-color="#00BCFA"/>
<stop offset="0.77" stop-color="#00ABF8"/>
<stop offset="1" stop-color="#0098F7"/>
</radialGradient>
<radialGradient id="paint37_radial_31_9505" cx="0" cy="0" r="1" gradientUnits="userSpaceOnUse" gradientTransform="translate(10.1776 9.33661) scale(1.55978 1.55978)">
<stop offset="0.23" stop-color="#00CDFF"/>
<stop offset="0.49" stop-color="#00BCFA"/>
<stop offset="0.77" stop-color="#00ABF8"/>
<stop offset="1" stop-color="#0098F7"/>
</radialGradient>
<radialGradient id="paint38_radial_31_9505" cx="0" cy="0" r="1" gradientUnits="userSpaceOnUse" gradientTransform="translate(10.1777 9.33661) scale(1.55978 1.55978)">
<stop offset="0.23" stop-color="#00CDFF"/>
<stop offset="0.49" stop-color="#00BCFA"/>
<stop offset="0.77" stop-color="#00ABF8"/>
<stop offset="1" stop-color="#0098F7"/>
</radialGradient>
<radialGradient id="paint39_radial_31_9505" cx="0" cy="0" r="1" gradientUnits="userSpaceOnUse" gradientTransform="translate(10.1776 9.33663) scale(1.55979 1.55978)">
<stop offset="0.23" stop-color="#00CDFF"/>
<stop offset="0.49" stop-color="#00BCFA"/>
<stop offset="0.77" stop-color="#00ABF8"/>
<stop offset="1" stop-color="#0098F7"/>
</radialGradient>
<linearGradient id="paint40_linear_31_9505" x1="9.89255" y1="9.60785" x2="10.964" y2="7.76325" gradientUnits="userSpaceOnUse">
<stop stop-color="#1964E7"/>
<stop offset="1" stop-color="#6884F2"/>
</linearGradient>
<linearGradient id="paint41_linear_31_9505" x1="6.24409" y1="7.7768" x2="7.31559" y2="9.62142" gradientUnits="userSpaceOnUse">
<stop stop-color="#00CCE6"/>
<stop offset="1" stop-color="#0082E7"/>
</linearGradient>
<linearGradient id="paint42_linear_31_9505" x1="7.51908" y1="8.36002" x2="8.60413" y2="10.2318" gradientUnits="userSpaceOnUse">
<stop stop-color="#0CF4FF"/>
<stop offset="0.28" stop-color="#04EEFE"/>
<stop offset="1" stop-color="#00B1F7"/>
</linearGradient>
<radialGradient id="paint43_radial_31_9505" cx="0" cy="0" r="1" gradientUnits="userSpaceOnUse" gradientTransform="translate(10.1777 9.33661) scale(1.55979)">
<stop offset="0.23" stop-color="#00CDFF"/>
<stop offset="0.49" stop-color="#00BCFA"/>
<stop offset="0.77" stop-color="#00ABF8"/>
<stop offset="1" stop-color="#0098F7"/>
</radialGradient>
<radialGradient id="paint44_radial_31_9505" cx="0" cy="0" r="1" gradientUnits="userSpaceOnUse" gradientTransform="translate(10.1775 9.33659) scale(1.55979)">
<stop offset="0.23" stop-color="#00CDFF"/>
<stop offset="0.49" stop-color="#00BCFA"/>
<stop offset="0.77" stop-color="#00ABF8"/>
<stop offset="1" stop-color="#0098F7"/>
</radialGradient>
<radialGradient id="paint45_radial_31_9505" cx="0" cy="0" r="1" gradientUnits="userSpaceOnUse" gradientTransform="translate(10.1773 9.33663) scale(1.55979 1.55978)">
<stop offset="0.23" stop-color="#00CDFF"/>
<stop offset="0.49" stop-color="#00BCFA"/>
<stop offset="0.77" stop-color="#00ABF8"/>
<stop offset="1" stop-color="#0098F7"/>
</radialGradient>
<radialGradient id="paint46_radial_31_9505" cx="0" cy="0" r="1" gradientUnits="userSpaceOnUse" gradientTransform="translate(10.1775 9.3366) scale(1.55979)">
<stop offset="0.23" stop-color="#00CDFF"/>
<stop offset="0.49" stop-color="#00BCFA"/>
<stop offset="0.77" stop-color="#00ABF8"/>
<stop offset="1" stop-color="#0098F7"/>
</radialGradient>
<radialGradient id="paint47_radial_31_9505" cx="0" cy="0" r="1" gradientUnits="userSpaceOnUse" gradientTransform="translate(10.1775 9.33656) scale(1.55979 1.55979)">
<stop offset="0.23" stop-color="#00CDFF"/>
<stop offset="0.49" stop-color="#00BCFA"/>
<stop offset="0.77" stop-color="#00ABF8"/>
<stop offset="1" stop-color="#0098F7"/>
</radialGradient>
<radialGradient id="paint48_radial_31_9505" cx="0" cy="0" r="1" gradientUnits="userSpaceOnUse" gradientTransform="translate(10.1777 9.3366) scale(1.55978 1.55979)">
<stop offset="0.23" stop-color="#00CDFF"/>
<stop offset="0.49" stop-color="#00BCFA"/>
<stop offset="0.77" stop-color="#00ABF8"/>
<stop offset="1" stop-color="#0098F7"/>
</radialGradient>
<radialGradient id="paint49_radial_31_9505" cx="0" cy="0" r="1" gradientUnits="userSpaceOnUse" gradientTransform="translate(10.1773 9.33661) scale(1.5598 1.55979)">
<stop offset="0.23" stop-color="#00CDFF"/>
<stop offset="0.49" stop-color="#00BCFA"/>
<stop offset="0.77" stop-color="#00ABF8"/>
<stop offset="1" stop-color="#0098F7"/>
</radialGradient>
<linearGradient id="paint50_linear_31_9505" x1="6.24386" y1="7.7768" x2="7.31536" y2="9.62143" gradientUnits="userSpaceOnUse">
<stop stop-color="#00CCE6"/>
<stop offset="1" stop-color="#0082E7"/>
</linearGradient>
<linearGradient id="paint51_linear_31_9505" x1="6.24413" y1="7.77681" x2="7.31566" y2="9.62143" gradientUnits="userSpaceOnUse">
<stop stop-color="#00CCE6"/>
<stop offset="1" stop-color="#0082E7"/>
</linearGradient>
<linearGradient id="paint52_linear_31_9505" x1="7.51889" y1="8.36003" x2="8.60394" y2="10.2318" gradientUnits="userSpaceOnUse">
<stop stop-color="#0CF4FF"/>
<stop offset="0.28" stop-color="#04EEFE"/>
<stop offset="1" stop-color="#00B1F7"/>
</linearGradient>
<radialGradient id="paint53_radial_31_9505" cx="0" cy="0" r="1" gradientUnits="userSpaceOnUse" gradientTransform="translate(10.1773 9.33658) scale(1.55979)">
<stop offset="0.23" stop-color="#00CDFF"/>
<stop offset="0.49" stop-color="#00BCFA"/>
<stop offset="0.77" stop-color="#00ABF8"/>
<stop offset="1" stop-color="#0098F7"/>
</radialGradient>
<radialGradient id="paint54_radial_31_9505" cx="0" cy="0" r="1" gradientUnits="userSpaceOnUse" gradientTransform="translate(10.1776 9.3366) scale(1.55979)">
<stop offset="0.23" stop-color="#00CDFF"/>
<stop offset="0.49" stop-color="#00BCFA"/>
<stop offset="0.77" stop-color="#00ABF8"/>
<stop offset="1" stop-color="#0098F7"/>
</radialGradient>
<radialGradient id="paint55_radial_31_9505" cx="0" cy="0" r="1" gradientUnits="userSpaceOnUse" gradientTransform="translate(10.1776 9.3366) scale(1.55979 1.55979)">
<stop offset="0.23" stop-color="#00CDFF"/>
<stop offset="0.49" stop-color="#00BCFA"/>
<stop offset="0.77" stop-color="#00ABF8"/>
<stop offset="1" stop-color="#0098F7"/>
</radialGradient>
<linearGradient id="paint56_linear_31_9505" x1="7.5191" y1="8.36005" x2="8.60417" y2="10.2318" gradientUnits="userSpaceOnUse">
<stop stop-color="#0CF4FF"/>
<stop offset="0.28" stop-color="#04EEFE"/>
<stop offset="1" stop-color="#00B1F7"/>
</linearGradient>
<radialGradient id="paint57_radial_31_9505" cx="0" cy="0" r="1" gradientUnits="userSpaceOnUse" gradientTransform="translate(10.1773 9.33658) scale(1.55979 1.55979)">
<stop offset="0.23" stop-color="#00CDFF"/>
<stop offset="0.49" stop-color="#00BCFA"/>
<stop offset="0.77" stop-color="#00ABF8"/>
<stop offset="1" stop-color="#0098F7"/>
</radialGradient>
<linearGradient id="paint58_linear_31_9505" x1="9.89258" y1="9.60784" x2="10.9641" y2="7.76322" gradientUnits="userSpaceOnUse">
<stop stop-color="#1964E7"/>
<stop offset="1" stop-color="#6884F2"/>
</linearGradient>
<linearGradient id="paint59_linear_31_9505" x1="7.51931" y1="8.36002" x2="8.60439" y2="10.2318" gradientUnits="userSpaceOnUse">
<stop stop-color="#0CF4FF"/>
<stop offset="0.28" stop-color="#04EEFE"/>
<stop offset="1" stop-color="#00B1F7"/>
</linearGradient>
<linearGradient id="paint60_linear_31_9505" x1="7.51934" y1="7.47841" x2="7.51934" y2="8.11588" gradientUnits="userSpaceOnUse">
<stop stop-color="#40FAFD"/>
<stop offset="1" stop-color="#00E0FF"/>
</linearGradient>
<linearGradient id="paint61_linear_31_9505" x1="7.51915" y1="8.36002" x2="8.6042" y2="10.2318" gradientUnits="userSpaceOnUse">
<stop stop-color="#0CF4FF"/>
<stop offset="0.28" stop-color="#04EEFE"/>
<stop offset="1" stop-color="#00B1F7"/>
</linearGradient>
<linearGradient id="paint62_linear_31_9505" x1="7.51892" y1="8.36" x2="8.60399" y2="10.2318" gradientUnits="userSpaceOnUse">
<stop stop-color="#0CF4FF"/>
<stop offset="0.28" stop-color="#04EEFE"/>
<stop offset="1" stop-color="#00B1F7"/>
</linearGradient>
<linearGradient id="paint63_linear_31_9505" x1="7.51934" y1="8.36" x2="8.60439" y2="10.2317" gradientUnits="userSpaceOnUse">
<stop stop-color="#0CF4FF"/>
<stop offset="0.28" stop-color="#04EEFE"/>
<stop offset="1" stop-color="#00B1F7"/>
</linearGradient>
<linearGradient id="paint64_linear_31_9505" x1="7.51919" y1="8.36003" x2="8.60426" y2="10.2318" gradientUnits="userSpaceOnUse">
<stop stop-color="#0CF4FF"/>
<stop offset="0.28" stop-color="#04EEFE"/>
<stop offset="1" stop-color="#00B1F7"/>
</linearGradient>
<linearGradient id="paint65_linear_31_9505" x1="7.51918" y1="7.47841" x2="7.51918" y2="8.11589" gradientUnits="userSpaceOnUse">
<stop stop-color="#40FAFD"/>
<stop offset="1" stop-color="#00E0FF"/>
</linearGradient>
<linearGradient id="paint66_linear_31_9505" x1="8.52287" y1="6.58321" x2="8.52287" y2="7.65471" gradientUnits="userSpaceOnUse">
<stop stop-color="#8EF6FD"/>
<stop offset="1" stop-color="#2BE8FF"/>
</linearGradient>
<linearGradient id="paint67_linear_31_9505" x1="8.5229" y1="6.58324" x2="8.5229" y2="7.65474" gradientUnits="userSpaceOnUse">
<stop stop-color="#8EF6FD"/>
<stop offset="1" stop-color="#2BE8FF"/>
</linearGradient>
<linearGradient id="paint68_linear_31_9505" x1="9.66223" y1="6.42044" x2="9.66223" y2="6.78666" gradientUnits="userSpaceOnUse">
<stop stop-color="#92EEFE"/>
<stop offset="1" stop-color="#59E5FE"/>
</linearGradient>
<linearGradient id="paint69_linear_31_9505" x1="8.52272" y1="6.58321" x2="8.52272" y2="7.65471" gradientUnits="userSpaceOnUse">
<stop stop-color="#8EF6FD"/>
<stop offset="1" stop-color="#2BE8FF"/>
</linearGradient>
<linearGradient id="paint70_linear_31_9505" x1="9.66181" y1="6.42047" x2="9.66181" y2="6.78667" gradientUnits="userSpaceOnUse">
<stop stop-color="#92EEFE"/>
<stop offset="1" stop-color="#59E5FE"/>
</linearGradient>
<linearGradient id="paint71_linear_31_9505" x1="8.97067" y1="7.49196" x2="9.37757" y2="8.18369" gradientUnits="userSpaceOnUse">
<stop stop-color="#A6FEFF"/>
<stop offset="0.53" stop-color="#BFFDFE"/>
<stop offset="1" stop-color="#97EDFF"/>
</linearGradient>
<linearGradient id="paint72_linear_31_9505" x1="8.9702" y1="7.49199" x2="9.37713" y2="8.18371" gradientUnits="userSpaceOnUse">
<stop stop-color="#A6FEFF"/>
<stop offset="0.53" stop-color="#BFFDFE"/>
<stop offset="1" stop-color="#97EDFF"/>
</linearGradient>
<linearGradient id="paint73_linear_31_9505" x1="8.97031" y1="7.49197" x2="9.37721" y2="8.1837" gradientUnits="userSpaceOnUse">
<stop stop-color="#A6FEFF"/>
<stop offset="0.53" stop-color="#BFFDFE"/>
<stop offset="1" stop-color="#97EDFF"/>
</linearGradient>
<clipPath id="clip0_31_9505">
<rect width="32" height="32" fill="white"/>
</clipPath>
</defs>
</svg>
