<svg width="32" height="32" viewBox="0 0 32 32" fill="none" xmlns="http://www.w3.org/2000/svg">
<g clip-path="url(#clip0_31_9588)">
<path d="M24 0H8C3.58172 0 0 3.58172 0 8V24C0 28.4183 3.58172 32 8 32H24C28.4183 32 32 28.4183 32 24V8C32 3.58172 28.4183 0 24 0Z" fill="url(#paint0_linear_31_9588)"/>
<path d="M24 0H8C3.58172 0 0 3.58172 0 8V24C0 28.4183 3.58172 32 8 32H24C28.4183 32 32 28.4183 32 24V8C32 3.58172 28.4183 0 24 0Z" fill="url(#paint1_linear_31_9588)"/>
<g filter="url(#filter0_i_31_9588)">
<path d="M24 2H8C4.68629 2 2 4.68629 2 8V24C2 27.3137 4.68629 30 8 30H24C27.3137 30 30 27.3137 30 24V8C30 4.68629 27.3137 2 24 2Z" fill="black" fill-opacity="0.7"/>
<mask id="mask0_31_9588" style="mask-type:luminance" maskUnits="userSpaceOnUse" x="4" y="4" width="24" height="24">
<path d="M28 4H4V28H28V4Z" fill="white"/>
</mask>
<g mask="url(#mask0_31_9588)">
<g filter="url(#filter1_d_31_9588)">
<path d="M7.98651 24.8594L5.02881 7.32799L10.4985 5.05829L13.9911 7.13371L17.1911 5.40799L23.8585 7.96799L20.1191 26.9715L7.98651 24.8594Z" fill="url(#paint2_linear_31_9588)"/>
</g>
<g filter="url(#filter2_d_31_9588)">
<path d="M26.9716 12.4594L24.1396 5.46511L19.0013 5.02856L11.0698 12.6491L13.2047 22.4708L17.191 25.2662L26.9716 19.4628L24.5716 14.9623L26.9716 12.4594Z" fill="url(#paint3_linear_31_9588)"/>
</g>
<g filter="url(#filter3_d_31_9588)">
<path d="M22.5762 11.4171L24.5716 14.9623L26.9716 12.4594L25.2094 8.10284L22.5762 11.4171Z" fill="url(#paint4_linear_31_9588)"/>
</g>
<g filter="url(#filter4_d_31_9588)">
<path d="M9.14307 9.14285H22.8573V22.8572H9.14307V9.14285Z" fill="black"/>
</g>
<path d="M10.853 20.2651H15.9959V21.1223H10.853V20.2651Z" fill="white"/>
<path d="M15.7213 10.8503L14.9556 13.8514L14.0802 10.8503H13.2093L12.3316 13.8514L11.5682 10.8503H10.3682L11.8379 15.9954H12.8024L13.6436 13.0171L14.4756 15.9954H15.4516L16.919 10.8503H15.7213Z" fill="white"/>
<path d="M17.1343 15.2617L17.804 14.4594C18.2247 14.8479 18.7721 15.0705 19.3446 15.0857C19.8017 15.0857 20.0897 14.9028 20.0897 14.5988V14.5851C20.0897 14.2971 19.9114 14.1508 19.0497 13.9291C18.0097 13.664 17.34 13.376 17.34 12.352V12.336C17.34 11.4011 18.092 10.7817 19.1457 10.7817C19.8413 10.7694 20.5191 11.0016 21.0611 11.4377L20.4714 12.2926C20.0861 11.9911 19.6181 11.8141 19.1297 11.7851C18.6954 11.7851 18.4668 11.984 18.4668 12.2423V12.2583C18.4668 12.5966 18.6954 12.7154 19.58 12.944C20.6268 13.2183 21.2166 13.5931 21.2166 14.4937V14.5074C21.2166 15.5314 20.4348 16.1074 19.3217 16.1074C18.5159 16.1106 17.7372 15.8168 17.1343 15.2823" fill="white"/>
</g>
</g>
</g>
<defs>
<filter id="filter0_i_31_9588" x="2" y="2" width="28" height="32" filterUnits="userSpaceOnUse" color-interpolation-filters="sRGB">
<feFlood flood-opacity="0" result="BackgroundImageFix"/>
<feBlend mode="normal" in="SourceGraphic" in2="BackgroundImageFix" result="shape"/>
<feColorMatrix in="SourceAlpha" type="matrix" values="0 0 0 0 0 0 0 0 0 0 0 0 0 0 0 0 0 0 127 0" result="hardAlpha"/>
<feOffset dy="4"/>
<feGaussianBlur stdDeviation="2"/>
<feComposite in2="hardAlpha" operator="arithmetic" k2="-1" k3="1"/>
<feColorMatrix type="matrix" values="0 0 0 0 0 0 0 0 0 0 0 0 0 0 0 0 0 0 0.25 0"/>
<feBlend mode="normal" in2="shape" result="effect1_innerShadow_31_9588"/>
</filter>
<filter id="filter1_d_31_9588" x="1.02881" y="3.05829" width="26.8296" height="29.9132" filterUnits="userSpaceOnUse" color-interpolation-filters="sRGB">
<feFlood flood-opacity="0" result="BackgroundImageFix"/>
<feColorMatrix in="SourceAlpha" type="matrix" values="0 0 0 0 0 0 0 0 0 0 0 0 0 0 0 0 0 0 127 0" result="hardAlpha"/>
<feOffset dy="2"/>
<feGaussianBlur stdDeviation="2"/>
<feComposite in2="hardAlpha" operator="out"/>
<feColorMatrix type="matrix" values="0 0 0 0 0 0 0 0 0 0 0 0 0 0 0 0 0 0 0.25 0"/>
<feBlend mode="normal" in2="BackgroundImageFix" result="effect1_dropShadow_31_9588"/>
<feBlend mode="normal" in="SourceGraphic" in2="effect1_dropShadow_31_9588" result="shape"/>
</filter>
<filter id="filter2_d_31_9588" x="7.06982" y="3.02856" width="23.9019" height="28.2377" filterUnits="userSpaceOnUse" color-interpolation-filters="sRGB">
<feFlood flood-opacity="0" result="BackgroundImageFix"/>
<feColorMatrix in="SourceAlpha" type="matrix" values="0 0 0 0 0 0 0 0 0 0 0 0 0 0 0 0 0 0 127 0" result="hardAlpha"/>
<feOffset dy="2"/>
<feGaussianBlur stdDeviation="2"/>
<feComposite in2="hardAlpha" operator="out"/>
<feColorMatrix type="matrix" values="0 0 0 0 0 0 0 0 0 0 0 0 0 0 0 0 0 0 0.25 0"/>
<feBlend mode="normal" in2="BackgroundImageFix" result="effect1_dropShadow_31_9588"/>
<feBlend mode="normal" in="SourceGraphic" in2="effect1_dropShadow_31_9588" result="shape"/>
</filter>
<filter id="filter3_d_31_9588" x="18.5762" y="6.10284" width="12.3955" height="14.8594" filterUnits="userSpaceOnUse" color-interpolation-filters="sRGB">
<feFlood flood-opacity="0" result="BackgroundImageFix"/>
<feColorMatrix in="SourceAlpha" type="matrix" values="0 0 0 0 0 0 0 0 0 0 0 0 0 0 0 0 0 0 127 0" result="hardAlpha"/>
<feOffset dy="2"/>
<feGaussianBlur stdDeviation="2"/>
<feComposite in2="hardAlpha" operator="out"/>
<feColorMatrix type="matrix" values="0 0 0 0 0 0 0 0 0 0 0 0 0 0 0 0 0 0 0.25 0"/>
<feBlend mode="normal" in2="BackgroundImageFix" result="effect1_dropShadow_31_9588"/>
<feBlend mode="normal" in="SourceGraphic" in2="effect1_dropShadow_31_9588" result="shape"/>
</filter>
<filter id="filter4_d_31_9588" x="5.14307" y="7.14285" width="21.7144" height="21.7143" filterUnits="userSpaceOnUse" color-interpolation-filters="sRGB">
<feFlood flood-opacity="0" result="BackgroundImageFix"/>
<feColorMatrix in="SourceAlpha" type="matrix" values="0 0 0 0 0 0 0 0 0 0 0 0 0 0 0 0 0 0 127 0" result="hardAlpha"/>
<feOffset dy="2"/>
<feGaussianBlur stdDeviation="2"/>
<feComposite in2="hardAlpha" operator="out"/>
<feColorMatrix type="matrix" values="0 0 0 0 0 0 0 0 0 0 0 0 0 0 0 0 0 0 0.25 0"/>
<feBlend mode="normal" in2="BackgroundImageFix" result="effect1_dropShadow_31_9588"/>
<feBlend mode="normal" in="SourceGraphic" in2="effect1_dropShadow_31_9588" result="shape"/>
</filter>
<linearGradient id="paint0_linear_31_9588" x1="16" y1="0" x2="16" y2="32" gradientUnits="userSpaceOnUse">
<stop stop-color="#3BEA62"/>
<stop offset="0.5" stop-color="#009AE5"/>
<stop offset="1" stop-color="#6B57FF"/>
</linearGradient>
<linearGradient id="paint1_linear_31_9588" x1="13.3547" y1="0.624177" x2="20.6153" y2="31.048" gradientUnits="userSpaceOnUse">
<stop offset="0.28" stop-color="#07C3F2"/>
<stop offset="0.94" stop-color="#087CFA"/>
</linearGradient>
<linearGradient id="paint2_linear_31_9588" x1="12.8871" y1="5.48571" x2="18.5648" y2="25.9292" gradientUnits="userSpaceOnUse">
<stop offset="0.28" stop-color="#07C3F2"/>
<stop offset="0.94" stop-color="#087CFA"/>
</linearGradient>
<linearGradient id="paint3_linear_31_9588" x1="14.6584" y1="8.07999" x2="24.2652" y2="22.1668" gradientUnits="userSpaceOnUse">
<stop offset="0.14" stop-color="#FCF84A"/>
<stop offset="0.37" stop-color="#07C3F2"/>
</linearGradient>
<linearGradient id="paint4_linear_31_9588" x1="24.1762" y1="9.82169" x2="25.4379" y2="14.2903" gradientUnits="userSpaceOnUse">
<stop offset="0.28" stop-color="#07C3F2"/>
<stop offset="0.94" stop-color="#087CFA"/>
</linearGradient>
<clipPath id="clip0_31_9588">
<rect width="32" height="32" fill="white"/>
</clipPath>
</defs>
</svg>
