<svg width="32" height="32" viewBox="0 0 32 32" fill="none" xmlns="http://www.w3.org/2000/svg">
<g clip-path="url(#clip0_31_9643)">
<path d="M24 0H8C3.58172 0 0 3.58172 0 8V24C0 28.4183 3.58172 32 8 32H24C28.4183 32 32 28.4183 32 24V8C32 3.58172 28.4183 0 24 0Z" fill="url(#paint0_linear_31_9643)"/>
<g filter="url(#filter0_i_31_9643)">
<path d="M24 2H8C4.68629 2 2 4.68629 2 8V24C2 27.3137 4.68629 30 8 30H24C27.3137 30 30 27.3137 30 24V8C30 4.68629 27.3137 2 24 2Z" fill="black" fill-opacity="0.7"/>
<g filter="url(#filter1_d_31_9643)">
<path d="M25.5818 11.1864C25.3513 10.3253 24.6746 9.64867 23.8136 9.41817C22.2546 9 16 9 16 9C16 9 9.74547 9 8.18637 9.41817C7.32532 9.64867 6.64868 10.3253 6.41818 11.1864C6 12.7455 6 16.0003 6 16.0003C6 16.0003 6 19.2552 6.41818 20.8143C6.64868 21.6753 7.32532 22.352 8.18637 22.5825C9.74547 23.0007 16 23.0006 16 23.0006C16 23.0006 22.2546 23.0007 23.8136 22.5825C24.6746 22.352 25.3513 21.6753 25.5818 20.8143C26 19.2552 26 16.0003 26 16.0003C26 16.0003 25.9983 12.7455 25.5818 11.1864Z" fill="#FF0000"/>
</g>
<path d="M13.998 19.0002L19.194 16.0006L13.998 13.0009V19.0002Z" fill="white"/>
</g>
</g>
<defs>
<filter id="filter0_i_31_9643" x="2" y="2" width="28" height="32" filterUnits="userSpaceOnUse" color-interpolation-filters="sRGB">
<feFlood flood-opacity="0" result="BackgroundImageFix"/>
<feBlend mode="normal" in="SourceGraphic" in2="BackgroundImageFix" result="shape"/>
<feColorMatrix in="SourceAlpha" type="matrix" values="0 0 0 0 0 0 0 0 0 0 0 0 0 0 0 0 0 0 127 0" result="hardAlpha"/>
<feOffset dy="4"/>
<feGaussianBlur stdDeviation="2"/>
<feComposite in2="hardAlpha" operator="arithmetic" k2="-1" k3="1"/>
<feColorMatrix type="matrix" values="0 0 0 0 0 0 0 0 0 0 0 0 0 0 0 0 0 0 0.25 0"/>
<feBlend mode="normal" in2="shape" result="effect1_innerShadow_31_9643"/>
</filter>
<filter id="filter1_d_31_9643" x="2" y="7" width="28" height="22.0006" filterUnits="userSpaceOnUse" color-interpolation-filters="sRGB">
<feFlood flood-opacity="0" result="BackgroundImageFix"/>
<feColorMatrix in="SourceAlpha" type="matrix" values="0 0 0 0 0 0 0 0 0 0 0 0 0 0 0 0 0 0 127 0" result="hardAlpha"/>
<feOffset dy="2"/>
<feGaussianBlur stdDeviation="2"/>
<feComposite in2="hardAlpha" operator="out"/>
<feColorMatrix type="matrix" values="0 0 0 0 0 0 0 0 0 0 0 0 0 0 0 0 0 0 0.25 0"/>
<feBlend mode="normal" in2="BackgroundImageFix" result="effect1_dropShadow_31_9643"/>
<feBlend mode="normal" in="SourceGraphic" in2="effect1_dropShadow_31_9643" result="shape"/>
</filter>
<linearGradient id="paint0_linear_31_9643" x1="16" y1="0" x2="16" y2="32" gradientUnits="userSpaceOnUse">
<stop stop-color="white"/>
<stop offset="1" stop-color="#DFDFDF"/>
</linearGradient>
<clipPath id="clip0_31_9643">
<rect width="32" height="32" fill="white"/>
</clipPath>
</defs>
</svg>
