<svg width="128" height="128" viewBox="0 0 128 128" fill="none" xmlns="http://www.w3.org/2000/svg">
<rect y="16" width="128" height="96" rx="8" fill="#7962E7"/>
<path fill-rule="evenodd" clip-rule="evenodd" d="M52 91C51.15 91 50.4375 90.7125 49.8625 90.1375C49.2875 89.5625 49 88.85 49 88V76C49 75.15 49.2875 74.4375 49.8625 73.8625C50.4375 73.2875 51.15 73 52 73C52.85 73 53.5625 73.2875 54.1375 73.8625C54.7125 74.4375 55 75.15 55 76V79H58V85H55V88C55 88.85 54.7125 89.5625 54.1375 90.1375C53.5625 90.7125 52.85 91 52 91ZM28 85C27.15 85 26.4375 84.7125 25.8625 84.1375C25.2875 83.5625 25 82.85 25 82C25 81.15 25.2875 80.4375 25.8625 79.8625C26.4375 79.2875 27.15 79 28 79H40C40.85 79 41.5625 79.2875 42.1375 79.8625C42.7125 80.4375 43 81.15 43 82C43 82.85 42.7125 83.5625 42.1375 84.1375C41.5625 84.7125 40.85 85 40 85H28ZM40 73C39.15 73 38.4375 72.7125 37.8625 72.1375C37.2875 71.5625 37 70.85 37 70V67H28C27.15 67 26.4375 66.7125 25.8625 66.1375C25.2875 65.5625 25 64.85 25 64C25 63.15 25.2875 62.4375 25.8625 61.8625C26.4375 61.2875 27.15 61 28 61H37V58C37 57.15 37.2875 56.4375 37.8625 55.8625C38.4375 55.2875 39.15 55 40 55C40.85 55 41.5625 55.2875 42.1375 55.8625C42.7125 56.4375 43 57.15 43 58V70C43 70.85 42.7125 71.5625 42.1375 72.1375C41.5625 72.7125 40.85 73 40 73ZM52 67C51.15 67 50.4375 66.7125 49.8625 66.1375C49.2875 65.5625 49 64.85 49 64C49 63.15 49.2875 62.4375 49.8625 61.8625C50.4375 61.2875 51.15 61 52 61H75.25L69.25 67H52ZM64 55C63.15 55 62.4375 54.7125 61.8625 54.1375C61.2875 53.5625 61 52.85 61 52V40C61 39.15 61.2875 38.4375 61.8625 37.8625C62.4375 37.2875 63.15 37 64 37C64.85 37 65.5625 37.2875 66.1375 37.8625C66.7125 38.4375 67 39.15 67 40V43H76C76.85 43 77.5625 43.2875 78.1375 43.8625C78.7125 44.4375 79 45.15 79 46C79 46.85 78.7125 47.5625 78.1375 48.1375C77.5625 48.7125 76.85 49 76 49H67V52C67 52.85 66.7125 53.5625 66.1375 54.1375C65.5625 54.7125 64.85 55 64 55ZM28 49C27.15 49 26.4375 48.7125 25.8625 48.1375C25.2875 47.5625 25 46.85 25 46C25 45.15 25.2875 44.4375 25.8625 43.8625C26.4375 43.2875 27.15 43 28 43H52C52.85 43 53.5625 43.2875 54.1375 43.8625C54.7125 44.4375 55 45.15 55 46C55 46.85 54.7125 47.5625 54.1375 48.1375C53.5625 48.7125 52.85 49 52 49H28Z" fill="#222222"/>
<path d="M70 85H74.2L88.6 70.675L84.325 66.4L70 80.8V85ZM67 91C66.15 91 65.4375 90.7125 64.8625 90.1375C64.2875 89.5625 64 88.85 64 88V80.725C64 79.925 64.15 79.1625 64.45 78.4375C64.75 77.7125 65.175 77.075 65.725 76.525L88.6 53.725C89.15 53.175 89.8 52.75 90.55 52.45C91.3 52.15 92.075 52 92.875 52C93.675 52 94.4375 52.15 95.1625 52.45C95.8875 52.75 96.55 53.2 97.15 53.8L101.275 58C101.875 58.55 102.313 59.1875 102.588 59.9125C102.863 60.6375 103 61.4 103 62.2C103 62.95 102.863 63.7 102.588 64.45C102.313 65.2 101.875 65.875 101.275 66.475L78.475 89.275C77.925 89.825 77.2875 90.25 76.5625 90.55C75.8375 90.85 75.075 91 74.275 91H67Z" fill="#222222"/>
</svg>
