<svg width="128" height="128" viewBox="0 0 128 128" fill="none" xmlns="http://www.w3.org/2000/svg">
<rect width="128" height="128" rx="32" fill="url(#paint0_linear_112_56)"/>
<g filter="url(#filter0_i_112_56)">
<rect x="8" y="8" width="112" height="112" rx="24" fill="black" fill-opacity="0.7"/>
<g filter="url(#filter1_d_112_56)">
<path fill-rule="evenodd" clip-rule="evenodd" d="M95.4996 43.1515L97.3662 38.5557C97.3662 38.5557 94.9905 36.0026 92.1058 33.1089C89.2211 30.2153 83.1124 31.9174 83.1124 31.9174L76.1552 24H63.9376H51.7201L44.7629 31.9174C44.7629 31.9174 38.6541 30.2153 35.7694 33.1089C32.8847 36.0026 30.5091 38.5557 30.5091 38.5557L32.3756 43.1515L30 49.96C30 49.96 36.9869 76.5055 37.8057 79.7472C39.4177 86.1302 40.5207 88.5983 45.1022 91.8323C49.6838 95.0664 57.9985 100.683 59.356 101.534C60.7135 102.386 62.4104 103.835 63.9376 103.835C65.4648 103.835 67.1617 102.386 68.5192 101.534C69.8767 100.683 78.1914 95.0664 82.773 91.8323C87.3546 88.5983 88.4575 86.1302 90.0696 79.7472C90.8882 76.5055 97.8752 49.96 97.8752 49.96L95.4996 43.1515Z" fill="#FF5500"/>
<path fill-rule="evenodd" clip-rule="evenodd" d="M81.161 36.9387C81.161 36.9387 90.1096 47.7898 90.1096 50.109C90.1096 52.4281 88.9839 53.0402 87.8521 54.2458C86.7203 55.4514 81.7771 60.7168 81.1423 61.3929C80.5075 62.0691 79.186 63.0943 79.9633 64.9396C80.7407 66.7849 81.8874 69.133 80.6122 71.5146C79.3368 73.8962 77.1521 75.4858 75.7522 75.223C74.3522 74.96 71.0645 73.2366 69.8555 72.4494C68.6465 71.6621 64.8146 68.4921 64.8146 67.2792C64.8146 66.0664 68.7756 63.8887 69.5073 63.3939C70.2393 62.8993 73.5771 60.9842 73.6455 60.2325C73.7137 59.4807 73.6877 59.2603 72.7027 57.4029C71.7177 55.5454 69.9437 53.0667 70.239 51.4175C70.5343 49.7685 73.3952 48.911 75.4369 48.1375C77.4782 47.3643 81.4091 45.9037 81.9 45.6766C82.3912 45.4494 82.2643 45.233 80.7766 45.0916C79.2893 44.9501 75.0682 44.3881 73.1651 44.9202C71.262 45.4523 68.0108 46.2618 67.7475 46.6911C67.4841 47.1204 67.2518 47.1348 67.5223 48.6157C67.7926 50.0965 69.1851 57.2022 69.3201 58.4644C69.4554 59.7265 69.7198 60.5609 68.3631 60.872C67.0063 61.1832 64.7224 61.7234 63.9376 61.7234C63.1528 61.7234 60.8688 61.1832 59.5122 60.872C58.1553 60.5609 58.4197 59.7265 58.555 58.4644C58.6902 57.2022 60.0825 50.0965 60.353 48.6157C60.6233 47.1348 60.391 47.1204 60.1278 46.6911C59.8644 46.2618 56.613 45.4523 54.71 44.9202C52.8069 44.3881 48.586 44.9501 47.0985 45.0916C45.611 45.233 45.4841 45.4494 45.9751 45.6766C46.4662 45.9037 50.397 47.3643 52.4384 48.1375C54.4799 48.911 57.341 49.7685 57.6363 51.4175C57.9315 53.0667 56.1574 55.5454 55.1726 57.4029C54.1875 59.2603 54.1614 59.4807 54.2298 60.2325C54.298 60.9842 57.6359 62.8993 58.3678 63.3939C59.0997 63.8887 63.0605 66.0664 63.0605 67.2792C63.0605 68.4921 59.2288 71.6621 58.0198 72.4494C56.8107 73.2366 53.523 74.96 52.1231 75.223C50.7232 75.4858 48.5384 73.8962 47.2631 71.5146C45.9879 69.133 47.1346 66.7849 47.9118 64.9396C48.6891 63.0943 47.3678 62.0691 46.7328 61.3929C46.0982 60.7168 41.1548 55.4514 40.023 54.2458C38.8912 53.0402 37.7656 52.4281 37.7656 50.109C37.7656 47.7898 46.7143 36.9387 46.7143 36.9387C46.7143 36.9387 54.2654 38.3855 55.2835 38.3855C56.3017 38.3855 58.5076 37.5345 60.5439 36.8536C62.5801 36.1728 63.9376 36.1678 63.9376 36.1678C63.9376 36.1678 65.2951 36.1728 67.3314 36.8536C69.3677 37.5345 71.5736 38.3855 72.5917 38.3855C73.6099 38.3855 81.161 36.9387 81.161 36.9387ZM74.4525 78.4462C75.0064 78.7941 74.6685 79.45 74.164 79.8077C73.6594 80.1655 66.8785 85.4326 66.2204 86.0147C65.5622 86.597 64.5951 87.5586 63.9376 87.5586C63.2801 87.5586 62.3128 86.597 61.6548 86.0147C60.9966 85.4326 54.2158 80.1655 53.7112 79.8077C53.2065 79.45 52.8688 78.7941 53.4227 78.4462C53.9767 78.0985 55.7098 77.2207 58.1012 75.9793C60.4923 74.7381 63.4725 73.6828 63.9376 73.6828C64.4027 73.6828 67.3828 74.7381 69.7742 75.9793C72.1654 77.2207 73.8985 78.0985 74.4525 78.4462Z" fill="white"/>
<path d="M83.1123 31.9175L76.155 24.0001H63.9375H51.72L44.7628 31.9175C44.7628 31.9175 38.654 30.2154 35.7693 33.109C35.7693 33.109 43.9143 32.3715 46.7142 36.9388C46.7142 36.9388 54.2653 38.3856 55.2834 38.3856C56.3015 38.3856 58.5075 37.5345 60.5437 36.8537C62.58 36.1728 63.9375 36.1679 63.9375 36.1679C63.9375 36.1679 65.295 36.1728 67.3313 36.8537C69.3675 37.5345 71.5735 38.3856 72.5916 38.3856C73.6097 38.3856 81.1608 36.9388 81.1608 36.9388C83.9607 32.3715 92.1057 33.109 92.1057 33.109C89.221 30.2154 83.1123 31.9175 83.1123 31.9175Z" fill="#FF2000"/>
<path d="M83.1123 31.9175L76.155 24.0001H63.9375H51.72L44.7628 31.9175C44.7628 31.9175 38.654 30.2154 35.7693 33.109C35.7693 33.109 43.9143 32.3715 46.7142 36.9388C46.7142 36.9388 54.2653 38.3856 55.2834 38.3856C56.3015 38.3856 58.5075 37.5345 60.5437 36.8537C62.58 36.1728 63.9375 36.1679 63.9375 36.1679C63.9375 36.1679 65.295 36.1728 67.3313 36.8537C69.3675 37.5345 71.5735 38.3856 72.5916 38.3856C73.6097 38.3856 81.1608 36.9388 81.1608 36.9388C83.9607 32.3715 92.1057 33.109 92.1057 33.109C89.221 30.2154 83.1123 31.9175 83.1123 31.9175Z" fill="black" fill-opacity="0.1"/>
</g>
</g>
<defs>
<filter id="filter0_i_112_56" x="8" y="8" width="112" height="116" filterUnits="userSpaceOnUse" color-interpolation-filters="sRGB">
<feFlood flood-opacity="0" result="BackgroundImageFix"/>
<feBlend mode="normal" in="SourceGraphic" in2="BackgroundImageFix" result="shape"/>
<feColorMatrix in="SourceAlpha" type="matrix" values="0 0 0 0 0 0 0 0 0 0 0 0 0 0 0 0 0 0 127 0" result="hardAlpha"/>
<feOffset dy="4"/>
<feGaussianBlur stdDeviation="2"/>
<feComposite in2="hardAlpha" operator="arithmetic" k2="-1" k3="1"/>
<feColorMatrix type="matrix" values="0 0 0 0 0 0 0 0 0 0 0 0 0 0 0 0 0 0 0.25 0"/>
<feBlend mode="normal" in2="shape" result="effect1_innerShadow_112_56"/>
</filter>
<filter id="filter1_d_112_56" x="26" y="22" width="75.8752" height="87.8352" filterUnits="userSpaceOnUse" color-interpolation-filters="sRGB">
<feFlood flood-opacity="0" result="BackgroundImageFix"/>
<feColorMatrix in="SourceAlpha" type="matrix" values="0 0 0 0 0 0 0 0 0 0 0 0 0 0 0 0 0 0 127 0" result="hardAlpha"/>
<feOffset dy="2"/>
<feGaussianBlur stdDeviation="2"/>
<feComposite in2="hardAlpha" operator="out"/>
<feColorMatrix type="matrix" values="0 0 0 0 0 0 0 0 0 0 0 0 0 0 0 0 0 0 0.25 0"/>
<feBlend mode="normal" in2="BackgroundImageFix" result="effect1_dropShadow_112_56"/>
<feBlend mode="normal" in="SourceGraphic" in2="effect1_dropShadow_112_56" result="shape"/>
</filter>
<linearGradient id="paint0_linear_112_56" x1="0" y1="6490.31" x2="12800" y2="6490.31" gradientUnits="userSpaceOnUse">
<stop stop-color="#FF5500"/>
<stop offset="0.409877" stop-color="#FF5500"/>
<stop offset="0.581981" stop-color="#FF2000"/>
<stop offset="1" stop-color="#FF2000"/>
</linearGradient>
</defs>
</svg>
