<svg width="128" height="128" viewBox="0 0 128 128" fill="none" xmlns="http://www.w3.org/2000/svg">
<rect width="128" height="128" rx="32" fill="url(#paint0_linear_66_82)"/>
<g filter="url(#filter0_i_66_82)">
<rect x="8" y="8" width="112" height="112" rx="24" fill="black" fill-opacity="0.7"/>
<g filter="url(#filter1_d_66_82)">
<path d="M99.5275 51.0767C97.8614 47.0962 94.4818 42.7984 91.8353 41.4398C93.7225 45.0685 95.0324 48.9655 95.7185 52.9923L95.7254 53.0561C91.3901 42.3289 84.0413 37.9967 78.036 28.5759C77.7323 28.0995 77.4285 27.6221 77.1327 27.1181C76.9636 26.8303 76.828 26.5709 76.7103 26.3322C76.4613 25.8534 76.2693 25.3473 76.1384 24.8243C76.1386 24.8002 76.1298 24.7768 76.1138 24.7587C76.0977 24.7406 76.0755 24.729 76.0514 24.7261C76.0277 24.7196 76.0028 24.7196 75.9792 24.7261C75.9742 24.7261 75.9663 24.7349 75.9604 24.7369C75.9544 24.7389 75.9416 24.7477 75.9327 24.7516L75.9475 24.7261C66.3163 30.3255 63.0465 40.6893 62.7497 45.8761C58.9021 46.1381 55.2233 47.5454 52.1934 49.9146C51.8774 49.6488 51.5472 49.4002 51.2041 49.17C50.3305 46.1334 50.2932 42.9198 51.0962 39.8641C47.5592 41.5654 44.4164 43.9772 41.8667 46.9469H41.8489C40.3292 45.0343 40.4361 38.7276 40.5232 37.4102C40.0736 37.5896 39.6445 37.8158 39.243 38.0851C37.9014 39.0358 36.6473 40.1025 35.4953 41.2728C34.1826 42.5944 32.9836 44.0228 31.9109 45.5431V45.549V45.5421C29.446 49.0114 27.6975 52.9311 26.7664 57.075L26.7149 57.3264C26.6427 57.6614 26.3825 59.3393 26.338 59.7037C26.338 59.7322 26.3321 59.7587 26.3291 59.7872C25.9934 61.5195 25.7855 63.2737 25.7068 65.0359V65.2324C25.7237 74.7598 29.3373 83.9347 35.834 90.9459C42.3308 97.9572 51.2387 102.295 60.7993 103.104C70.3598 103.912 79.8783 101.133 87.4757 95.3133C95.073 89.494 100.197 81.0581 101.837 71.6707C101.901 71.1796 101.953 70.6933 102.011 70.1972C102.8 63.7156 101.945 57.1407 99.5235 51.0708L99.5275 51.0767ZM55.3336 80.8813C55.5127 80.9668 55.6808 81.0591 55.8649 81.1406L55.8916 81.1573C55.7056 81.0689 55.5196 80.9769 55.3336 80.8813ZM95.7264 53.067V53.0306L95.7333 53.0709L95.7264 53.067Z" fill="url(#paint1_linear_66_82)"/>
</g>
<path d="M99.5274 51.0767C97.8613 47.0962 94.4817 42.7984 91.8352 41.4398C93.7224 45.0685 95.0323 48.9655 95.7184 52.9923V53.0286L95.7253 53.0689C98.6813 61.4671 98.2538 70.6747 94.5322 78.7673C90.1375 88.1301 79.5041 97.7267 62.8535 97.2551C44.8672 96.7492 29.018 83.4924 26.0599 66.1342C25.5207 63.3964 26.0599 62.0083 26.331 59.7833C25.9612 61.5116 25.7548 63.2705 25.7146 65.0369V65.2334C25.7315 74.7608 29.3451 83.9357 35.8418 90.9469C42.3386 97.9582 51.2465 102.296 60.8071 103.105C70.3677 103.913 79.8861 101.134 87.4835 95.3143C95.0808 89.495 100.205 81.059 101.844 71.6717C101.909 71.1805 101.961 70.6943 102.019 70.1982C102.808 63.7165 101.953 57.1417 99.5313 51.0718L99.5274 51.0767Z" fill="url(#paint2_radial_66_82)"/>
<path d="M80.8882 55.5465C80.9713 55.6045 81.0485 55.6624 81.1266 55.7204C80.1635 54.0245 78.9645 52.4719 77.565 51.1082C65.6434 39.2709 74.4416 25.4492 75.9247 24.7419L75.9395 24.7203C66.3083 30.3197 63.0385 40.6835 62.7417 45.8703C63.1889 45.8399 63.6321 45.8025 64.0892 45.8025C67.5062 45.8091 70.8606 46.714 73.8112 48.4251C76.7619 50.1362 79.2036 52.5926 80.8882 55.5445V55.5465Z" fill="#FF980E"/>
<path d="M64.109 57.9139C64.0457 58.8609 60.676 62.1272 59.4977 62.1272C48.5951 62.1272 46.8242 68.6765 46.8242 68.6765C47.307 74.1915 51.1773 78.7358 55.8559 81.1328C56.0696 81.2428 56.2863 81.342 56.5029 81.4392C56.8782 81.6043 57.2535 81.7569 57.6288 81.897C59.2345 82.4612 60.9162 82.7834 62.6181 82.8529C81.7321 83.7429 85.4323 60.1605 71.6399 53.3135C74.8934 52.8932 78.1881 53.6875 80.8853 55.5425C79.2007 52.5905 76.7589 50.1341 73.8083 48.423C70.8576 46.7119 67.5033 45.807 64.0862 45.8005C63.6311 45.8005 63.1859 45.8378 62.7388 45.8683C58.8912 46.1302 55.2124 47.5375 52.1825 49.9067C52.7672 50.3979 53.4271 51.0541 54.8171 52.4147C57.4191 54.9599 64.0922 57.5966 64.107 57.906L64.109 57.9139Z" fill="#5429B7"/>
<path d="M50.3968 48.6503C50.7074 48.8468 50.9636 49.0177 51.1882 49.1719C50.3146 46.1354 50.2774 42.9218 51.0804 39.8661C47.5434 41.5673 44.4005 43.9791 41.8508 46.9489C42.0378 46.9439 47.5999 46.8447 50.3968 48.6503Z" fill="#FF7139"/>
<path d="M99.5274 51.0767C97.8613 47.0962 94.4817 42.7984 91.8352 41.4398C93.7224 45.0685 95.0323 48.9655 95.7184 52.9923V53.0286L95.7253 53.0689C98.6813 61.4671 98.2538 70.6747 94.5322 78.7672C90.1375 88.13 79.5041 97.7266 62.8535 97.2551C44.8672 96.7492 29.018 83.4924 26.0599 66.1342C25.5207 63.3964 26.0599 62.0083 26.331 59.7833C25.9612 61.5116 25.7548 63.2705 25.7146 65.0369V65.2334C25.7315 74.7608 29.3451 83.9357 35.8418 90.9469C42.3386 97.9581 51.2465 102.296 60.8071 103.105C70.3677 103.913 79.8861 101.134 87.4835 95.3143C95.0808 89.495 100.205 81.059 101.844 71.6717C101.909 71.1805 101.961 70.6943 102.019 70.1982C102.808 63.7165 101.953 57.1416 99.5313 51.0718L99.5274 51.0767Z" fill="#FF3647"/>
<path d="M99.5274 51.0767C97.8613 47.0962 94.4817 42.7984 91.8352 41.4398C93.7224 45.0685 95.0323 48.9655 95.7184 52.9923V53.0286L95.7253 53.0689C98.6813 61.4671 98.2538 70.6747 94.5322 78.7672C90.1375 88.13 79.5041 97.7266 62.8535 97.2551C44.8672 96.7492 29.018 83.4924 26.0599 66.1342C25.5207 63.3964 26.0599 62.0083 26.331 59.7833C25.9612 61.5116 25.7548 63.2705 25.7146 65.0369V65.2334C25.7315 74.7608 29.3451 83.9357 35.8418 90.9469C42.3386 97.9581 51.2465 102.296 60.8071 103.105C70.3677 103.913 79.8861 101.134 87.4835 95.3143C95.0808 89.495 100.205 81.059 101.844 71.6717C101.909 71.1805 101.961 70.6943 102.019 70.1982C102.808 63.7165 101.953 57.1416 99.5313 51.0718L99.5274 51.0767Z" fill="black" fill-opacity="0.2"/>
<path d="M99.5274 51.0767C97.8613 47.0962 94.4817 42.7984 91.8352 41.4398C93.7224 45.0685 95.0323 48.9655 95.7184 52.9923V53.0286L95.7253 53.0689C98.6813 61.4671 98.2538 70.6747 94.5322 78.7672C90.1375 88.13 79.5041 97.7266 62.8535 97.2551C44.8672 96.7492 29.018 83.4924 26.0599 66.1342C25.5207 63.3964 26.0599 62.0083 26.331 59.7833C25.9612 61.5116 25.7548 63.2705 25.7146 65.0369V65.2334C25.7315 74.7608 29.3451 83.9357 35.8418 90.9469C42.3386 97.9581 51.2465 102.296 60.8071 103.105C70.3677 103.913 79.8861 101.134 87.4835 95.3143C95.0808 89.495 100.205 81.059 101.844 71.6717C101.909 71.1805 101.961 70.6943 102.019 70.1982C102.808 63.7165 101.953 57.1416 99.5313 51.0718L99.5274 51.0767Z" fill="#FF5634"/>
<path d="M26.053 66.1362C29.0121 83.4943 44.8603 96.7561 62.8465 97.2571C79.4972 97.7247 90.1326 88.1271 94.5253 78.7692C98.2469 70.6767 98.6744 61.4691 95.7184 53.0709V53.0345C95.7184 53.006 95.7125 52.9893 95.7184 52.9982L95.7253 53.062C97.0857 61.8806 92.5683 70.4202 85.5054 76.2062L85.4837 76.2554C71.7219 87.3854 58.5538 82.9688 55.8925 81.1671C55.7065 81.0787 55.5205 80.9867 55.3345 80.8911C47.3119 77.0835 43.9966 69.8298 44.709 63.6017C42.8046 63.6296 40.9329 63.1085 39.3208 62.1016C37.7086 61.0947 36.4251 59.6451 35.6258 57.9286C37.7319 56.6476 40.1333 55.9233 42.6012 55.825C45.0691 55.7266 47.5212 56.2574 49.7239 57.3667C54.2643 59.413 59.4307 59.6147 64.1188 57.9286C64.104 57.6192 57.4309 54.9815 54.8289 52.4372C53.4389 51.0767 52.779 50.4215 52.1943 49.9293C51.8783 49.6635 51.5481 49.415 51.205 49.1847C50.9774 49.0304 50.7212 48.8634 50.4135 48.663C47.6166 46.8575 42.0546 46.9567 41.8705 46.9616H41.8527C40.3331 45.049 40.44 38.7423 40.527 37.4249C40.0775 37.6043 39.6483 37.8305 39.2468 38.0998C37.9053 39.0505 36.6512 40.1172 35.4992 41.2875C34.1817 42.6054 32.9778 44.0305 31.9 45.548C29.435 49.0173 27.6866 52.936 26.7554 57.0798C26.7366 57.1574 25.3743 63.0712 26.046 66.1381L26.053 66.1362Z" fill="#FF5634"/>
<path d="M77.5639 51.1062C78.9638 52.4713 80.1628 54.0257 81.1256 55.7232C81.3363 55.8814 81.5332 56.0386 81.7004 56.1908C90.3937 64.1479 85.8388 75.3958 85.4995 76.1915C92.5614 70.4143 97.0747 61.8688 95.7193 53.0473C91.3821 42.3102 84.0253 37.978 78.0299 28.5572C77.7262 28.0808 77.4225 27.6034 77.1267 27.0994C76.9575 26.8116 76.8219 26.5523 76.7042 26.3135C76.4552 25.8347 76.2633 25.3286 76.1324 24.8056C76.1325 24.7815 76.1238 24.7582 76.1077 24.74C76.0917 24.7219 76.0694 24.7103 76.0453 24.7074C76.0217 24.701 75.9967 24.701 75.9731 24.7074C75.9681 24.7074 75.9602 24.7162 75.9543 24.7182C75.9484 24.7202 75.9355 24.729 75.9266 24.7329C74.4436 25.4314 65.6473 39.2619 77.5689 51.0895L77.5639 51.1062Z" fill="#FFF44F"/>
<path d="M81.6995 56.1948C81.5323 56.0425 81.3354 55.8853 81.1247 55.7272C81.0465 55.6692 80.9694 55.6112 80.8863 55.5533C78.1892 53.6983 74.8944 52.904 71.6409 53.3243C85.4323 60.1713 81.7322 83.7478 62.6191 82.8637C60.9173 82.7942 59.2355 82.472 57.6298 81.9078C57.2545 81.7683 56.8793 81.6158 56.504 81.4501C56.2873 81.3518 56.0706 81.2536 55.8569 81.1436L55.8836 81.1603C58.5489 82.9668 71.7131 87.3805 85.4748 76.2485L85.4966 76.1994C85.8399 75.4037 90.3948 64.1557 81.6975 56.1987L81.6995 56.1948Z" fill="#FF980E"/>
<path d="M46.8252 68.6706C46.8252 68.6706 48.5951 62.1213 59.4986 62.1213C60.677 62.1213 64.0496 58.8549 64.11 57.9079C59.4218 59.5941 54.2554 59.3924 49.7151 57.346C47.5123 56.2367 45.0602 55.706 42.5923 55.8043C40.1244 55.9027 37.7231 56.6269 35.6169 57.9079C36.4162 59.6245 37.6997 61.074 39.3119 62.081C40.924 63.0879 42.7957 63.6089 44.7001 63.581C43.9897 69.8062 47.304 77.0589 55.3256 80.8704C55.5047 80.9559 55.6729 81.0482 55.8569 81.1298C51.1743 78.7279 47.308 74.1855 46.8252 68.6736V68.6706Z" fill="#FF980E"/>
</g>
<defs>
<filter id="filter0_i_66_82" x="8" y="8" width="112" height="116" filterUnits="userSpaceOnUse" color-interpolation-filters="sRGB">
<feFlood flood-opacity="0" result="BackgroundImageFix"/>
<feBlend mode="normal" in="SourceGraphic" in2="BackgroundImageFix" result="shape"/>
<feColorMatrix in="SourceAlpha" type="matrix" values="0 0 0 0 0 0 0 0 0 0 0 0 0 0 0 0 0 0 127 0" result="hardAlpha"/>
<feOffset dy="4"/>
<feGaussianBlur stdDeviation="2"/>
<feComposite in2="hardAlpha" operator="arithmetic" k2="-1" k3="1"/>
<feColorMatrix type="matrix" values="0 0 0 0 0 0 0 0 0 0 0 0 0 0 0 0 0 0 0.25 0"/>
<feBlend mode="normal" in2="shape" result="effect1_innerShadow_66_82"/>
</filter>
<filter id="filter1_d_66_82" x="21.7068" y="22.7213" width="84.5894" height="86.52" filterUnits="userSpaceOnUse" color-interpolation-filters="sRGB">
<feFlood flood-opacity="0" result="BackgroundImageFix"/>
<feColorMatrix in="SourceAlpha" type="matrix" values="0 0 0 0 0 0 0 0 0 0 0 0 0 0 0 0 0 0 127 0" result="hardAlpha"/>
<feOffset dy="2"/>
<feGaussianBlur stdDeviation="2"/>
<feComposite in2="hardAlpha" operator="out"/>
<feColorMatrix type="matrix" values="0 0 0 0 0 0 0 0 0 0 0 0 0 0 0 0 0 0 0.25 0"/>
<feBlend mode="normal" in2="BackgroundImageFix" result="effect1_dropShadow_66_82"/>
<feBlend mode="normal" in="SourceGraphic" in2="effect1_dropShadow_66_82" result="shape"/>
</filter>
<linearGradient id="paint0_linear_66_82" x1="128" y1="0" x2="4.21835" y2="131.957" gradientUnits="userSpaceOnUse">
<stop offset="0.169646" stop-color="#FF8B16"/>
<stop offset="0.35725" stop-color="#FF672A"/>
<stop offset="0.597842" stop-color="#FF3647"/>
<stop offset="0.825545" stop-color="#E31587"/>
</linearGradient>
<linearGradient id="paint1_linear_66_82" x1="94.4521" y1="36.8875" x2="31.2302" y2="98.3199" gradientUnits="userSpaceOnUse">
<stop offset="0.048" stop-color="#FFF44F"/>
<stop offset="0.111" stop-color="#FFE847"/>
<stop offset="0.225" stop-color="#FFC830"/>
<stop offset="0.368" stop-color="#FF980E"/>
<stop offset="0.401" stop-color="#FF8B16"/>
<stop offset="0.462" stop-color="#FF672A"/>
<stop offset="0.534" stop-color="#FF3647"/>
<stop offset="0.705" stop-color="#E31587"/>
</linearGradient>
<radialGradient id="paint2_radial_66_82" cx="0" cy="0" r="1" gradientUnits="userSpaceOnUse" gradientTransform="translate(91.9886 33.5613) scale(79.9387 79.3741)">
<stop offset="0.129" stop-color="#FFBD4F"/>
<stop offset="0.186" stop-color="#FFAC31"/>
<stop offset="0.247" stop-color="#FF9D17"/>
<stop offset="0.283" stop-color="#FF980E"/>
<stop offset="0.403" stop-color="#FF563B"/>
<stop offset="0.467" stop-color="#FF3750"/>
<stop offset="0.71" stop-color="#F5156C"/>
<stop offset="0.782" stop-color="#EB0878"/>
<stop offset="0.86" stop-color="#E50080"/>
</radialGradient>
</defs>
</svg>
