<svg width="128" height="128" viewBox="0 0 128 128" fill="none" xmlns="http://www.w3.org/2000/svg">
<rect width="128" height="128" rx="32" fill="url(#paint0_linear_112_234)"/>
<rect width="128" height="128" rx="32" fill="url(#paint1_linear_112_234)"/>
<g filter="url(#filter0_i_112_234)">
<rect x="8" y="8" width="112" height="112" rx="24" fill="black" fill-opacity="0.7"/>
<path d="M64 102.438C85.2284 102.438 102.438 85.2284 102.438 64C102.438 42.7716 85.2284 25.5625 64 25.5625C42.7716 25.5625 25.5625 42.7716 25.5625 64C25.5625 85.2284 42.7716 102.438 64 102.438Z" fill="#F2E4FF"/>
<path fill-rule="evenodd" clip-rule="evenodd" d="M64.0821 96.725V91.876C79.4416 91.8317 91.8783 79.3695 91.8783 63.9989C91.8783 48.6294 79.4416 36.1672 64.0821 36.1229V31.2739C82.1194 31.3194 96.7261 45.9515 96.7261 63.9989C96.7261 82.0473 82.1194 96.6806 64.0821 96.725ZM64.0821 79.7532C72.7454 79.7077 79.7576 72.6744 79.7576 63.9989C79.7576 55.3245 72.7454 48.2912 64.0821 48.2457V43.3979C75.4243 43.4423 84.6065 52.6467 84.6065 63.9989C84.6065 75.3522 75.4243 84.5566 64.0821 84.601V79.7532ZM64.0821 55.5185C68.7292 55.5629 72.4848 59.3407 72.4848 63.9989C72.4848 68.6582 68.7292 72.436 64.0821 72.4803V55.5185ZM24 63.9989C24 86.0913 41.9076 104 64 104C86.0913 104 104 86.0913 104 63.9989C104 41.9076 86.0913 24 64 24C41.9076 24 24 41.9076 24 63.9989Z" fill="#941AD0"/>
<g filter="url(#filter1_d_112_234)">
<path d="M64 28.5312C44.066 28.5312 27.9062 44.621 27.9062 64.4688C27.9062 84.3165 44.066 100.406 64 100.406V28.5312Z" fill="black"/>
</g>
<path d="M64 28.5312C44.066 28.5312 27.9062 44.621 27.9062 64.4688C27.9062 84.3165 44.066 100.406 64 100.406V28.5312Z" fill="#8116B6"/>
</g>
<defs>
<filter id="filter0_i_112_234" x="8" y="8" width="112" height="116" filterUnits="userSpaceOnUse" color-interpolation-filters="sRGB">
<feFlood flood-opacity="0" result="BackgroundImageFix"/>
<feBlend mode="normal" in="SourceGraphic" in2="BackgroundImageFix" result="shape"/>
<feColorMatrix in="SourceAlpha" type="matrix" values="0 0 0 0 0 0 0 0 0 0 0 0 0 0 0 0 0 0 127 0" result="hardAlpha"/>
<feOffset dy="4"/>
<feGaussianBlur stdDeviation="2"/>
<feComposite in2="hardAlpha" operator="arithmetic" k2="-1" k3="1"/>
<feColorMatrix type="matrix" values="0 0 0 0 0 0 0 0 0 0 0 0 0 0 0 0 0 0 0.25 0"/>
<feBlend mode="normal" in2="shape" result="effect1_innerShadow_112_234"/>
</filter>
<filter id="filter1_d_112_234" x="23.5312" y="25.4062" width="42.3438" height="78.125" filterUnits="userSpaceOnUse" color-interpolation-filters="sRGB">
<feFlood flood-opacity="0" result="BackgroundImageFix"/>
<feColorMatrix in="SourceAlpha" type="matrix" values="0 0 0 0 0 0 0 0 0 0 0 0 0 0 0 0 0 0 127 0" result="hardAlpha"/>
<feOffset dx="-1.25"/>
<feGaussianBlur stdDeviation="1.5625"/>
<feColorMatrix type="matrix" values="0 0 0 0 0.25098 0 0 0 0 0.25098 0 0 0 0 0.25098 0 0 0 0.2 0"/>
<feBlend mode="normal" in2="BackgroundImageFix" result="effect1_dropShadow_112_234"/>
<feBlend mode="normal" in="SourceGraphic" in2="effect1_dropShadow_112_234" result="shape"/>
</filter>
<linearGradient id="paint0_linear_112_234" x1="192.2" y1="-35.3815" x2="-28.3597" y2="127.947" gradientUnits="userSpaceOnUse">
<stop stop-color="#D446FF"/>
<stop offset="1" stop-color="#A0D8FF"/>
</linearGradient>
<linearGradient id="paint1_linear_112_234" x1="64" y1="0" x2="64" y2="128" gradientUnits="userSpaceOnUse">
<stop stop-color="#951AD1"/>
<stop offset="1" stop-color="#6C1397"/>
</linearGradient>
</defs>
</svg>
