<svg width="128" height="128" viewBox="0 0 128 128" fill="none" xmlns="http://www.w3.org/2000/svg">
<rect width="128" height="128" rx="32" fill="url(#paint0_linear_141_156)"/>
<rect width="128" height="128" rx="32" fill="url(#paint1_linear_141_156)"/>
<g filter="url(#filter0_i_141_156)">
<rect x="8" y="8" width="112" height="112" rx="24" fill="black" fill-opacity="0.7"/>
<g clip-path="url(#clip0_141_156)">
<g filter="url(#filter1_d_141_156)">
<path d="M79.9177 83.1268L20.1143 71.168L37.7783 107.776L81.8925 100.087L79.9177 83.1268Z" fill="url(#paint2_linear_141_156)"/>
</g>
<g filter="url(#filter2_d_141_156)">
<path d="M107.886 59.2823L83.6571 34.304L20.1143 47.6983V71.168L98.6148 86.8572L107.886 59.2823Z" fill="url(#paint3_linear_141_156)"/>
</g>
<path d="M107.886 59.2823L69.7875 20.0046L39.936 29.0377L49.7097 58.7703L98.6149 86.8571L107.886 59.2823Z" fill="url(#paint4_linear_141_156)"/>
<g filter="url(#filter3_d_141_156)">
<path d="M101.038 44.544L97.5817 20.0046H84.4892H69.7875L39.936 29.0377L49.7097 58.7703L101.038 44.544Z" fill="url(#paint5_linear_141_156)"/>
</g>
<g filter="url(#filter4_d_141_156)">
<path d="M36.5715 36.5714H91.4287V91.4286H36.5715V36.5714Z" fill="black"/>
</g>
<path d="M43.4104 81.0607H63.9818V84.4892H43.4104V81.0607Z" fill="white"/>
<path d="M43.4287 43.3555H51.4744C57.9567 43.3555 62.4459 47.808 62.4459 53.6138V53.6778C62.4459 59.4835 57.9659 63.9909 51.4744 63.9909H43.4287V43.3555ZM48.0001 47.4515V59.8858H51.511C52.3354 59.9343 53.1609 59.8086 53.9335 59.5168C54.7061 59.2251 55.4086 58.7738 55.9951 58.1924C56.5817 57.611 57.0392 56.9126 57.3378 56.1426C57.6364 55.3726 57.7694 54.5483 57.7281 53.7235V53.6686C57.77 52.8407 57.6379 52.0132 57.3404 51.2394C57.0429 50.4657 56.5866 49.7628 56.0009 49.1762C55.4151 48.5896 54.7129 48.1322 53.9396 47.8336C53.1663 47.535 52.339 47.4017 51.511 47.4423L48.0001 47.4515Z" fill="white"/>
<path d="M65.7556 43.3555H74.2127C79.1499 43.3555 82.1304 46.2812 82.1304 50.5143V50.5692C82.1304 55.36 78.4093 57.8835 73.7647 57.8835H70.3087V64.0915H65.7373L65.7556 43.3555ZM73.911 53.7966C76.1876 53.7966 77.5682 52.4343 77.5682 50.6606V50.5966C77.5682 48.5578 76.151 47.4698 73.911 47.4698H70.3087V53.7966H73.911Z" fill="white"/>
</g>
</g>
<defs>
<filter id="filter0_i_141_156" x="8" y="8" width="112" height="116" filterUnits="userSpaceOnUse" color-interpolation-filters="sRGB">
<feFlood flood-opacity="0" result="BackgroundImageFix"/>
<feBlend mode="normal" in="SourceGraphic" in2="BackgroundImageFix" result="shape"/>
<feColorMatrix in="SourceAlpha" type="matrix" values="0 0 0 0 0 0 0 0 0 0 0 0 0 0 0 0 0 0 127 0" result="hardAlpha"/>
<feOffset dy="4"/>
<feGaussianBlur stdDeviation="2"/>
<feComposite in2="hardAlpha" operator="arithmetic" k2="-1" k3="1"/>
<feColorMatrix type="matrix" values="0 0 0 0 0 0 0 0 0 0 0 0 0 0 0 0 0 0 0.25 0"/>
<feBlend mode="normal" in2="shape" result="effect1_innerShadow_141_156"/>
</filter>
<filter id="filter1_d_141_156" x="16.1143" y="69.168" width="69.7783" height="44.608" filterUnits="userSpaceOnUse" color-interpolation-filters="sRGB">
<feFlood flood-opacity="0" result="BackgroundImageFix"/>
<feColorMatrix in="SourceAlpha" type="matrix" values="0 0 0 0 0 0 0 0 0 0 0 0 0 0 0 0 0 0 127 0" result="hardAlpha"/>
<feOffset dy="2"/>
<feGaussianBlur stdDeviation="2"/>
<feComposite in2="hardAlpha" operator="out"/>
<feColorMatrix type="matrix" values="0 0 0 0 0 0 0 0 0 0 0 0 0 0 0 0 0 0 0.25 0"/>
<feBlend mode="normal" in2="BackgroundImageFix" result="effect1_dropShadow_141_156"/>
<feBlend mode="normal" in="SourceGraphic" in2="effect1_dropShadow_141_156" result="shape"/>
</filter>
<filter id="filter2_d_141_156" x="16.1143" y="32.304" width="95.7715" height="60.5532" filterUnits="userSpaceOnUse" color-interpolation-filters="sRGB">
<feFlood flood-opacity="0" result="BackgroundImageFix"/>
<feColorMatrix in="SourceAlpha" type="matrix" values="0 0 0 0 0 0 0 0 0 0 0 0 0 0 0 0 0 0 127 0" result="hardAlpha"/>
<feOffset dy="2"/>
<feGaussianBlur stdDeviation="2"/>
<feComposite in2="hardAlpha" operator="out"/>
<feColorMatrix type="matrix" values="0 0 0 0 0 0 0 0 0 0 0 0 0 0 0 0 0 0 0.25 0"/>
<feBlend mode="normal" in2="BackgroundImageFix" result="effect1_dropShadow_141_156"/>
<feBlend mode="normal" in="SourceGraphic" in2="effect1_dropShadow_141_156" result="shape"/>
</filter>
<filter id="filter3_d_141_156" x="35.936" y="18.0046" width="69.1016" height="46.7657" filterUnits="userSpaceOnUse" color-interpolation-filters="sRGB">
<feFlood flood-opacity="0" result="BackgroundImageFix"/>
<feColorMatrix in="SourceAlpha" type="matrix" values="0 0 0 0 0 0 0 0 0 0 0 0 0 0 0 0 0 0 127 0" result="hardAlpha"/>
<feOffset dy="2"/>
<feGaussianBlur stdDeviation="2"/>
<feComposite in2="hardAlpha" operator="out"/>
<feColorMatrix type="matrix" values="0 0 0 0 0 0 0 0 0 0 0 0 0 0 0 0 0 0 0.25 0"/>
<feBlend mode="normal" in2="BackgroundImageFix" result="effect1_dropShadow_141_156"/>
<feBlend mode="normal" in="SourceGraphic" in2="effect1_dropShadow_141_156" result="shape"/>
</filter>
<filter id="filter4_d_141_156" x="32.5715" y="34.5714" width="62.8572" height="62.8572" filterUnits="userSpaceOnUse" color-interpolation-filters="sRGB">
<feFlood flood-opacity="0" result="BackgroundImageFix"/>
<feColorMatrix in="SourceAlpha" type="matrix" values="0 0 0 0 0 0 0 0 0 0 0 0 0 0 0 0 0 0 127 0" result="hardAlpha"/>
<feOffset dy="2"/>
<feGaussianBlur stdDeviation="2"/>
<feComposite in2="hardAlpha" operator="out"/>
<feColorMatrix type="matrix" values="0 0 0 0 0 0 0 0 0 0 0 0 0 0 0 0 0 0 0.25 0"/>
<feBlend mode="normal" in2="BackgroundImageFix" result="effect1_dropShadow_141_156"/>
<feBlend mode="normal" in="SourceGraphic" in2="effect1_dropShadow_141_156" result="shape"/>
</filter>
<linearGradient id="paint0_linear_141_156" x1="64" y1="0" x2="64" y2="128" gradientUnits="userSpaceOnUse">
<stop stop-color="#3BEA62"/>
<stop offset="0.510417" stop-color="#087DF7"/>
<stop offset="1" stop-color="#6B57FF"/>
</linearGradient>
<linearGradient id="paint1_linear_141_156" x1="18.2992" y1="-21.8342" x2="148.858" y2="57.1422" gradientUnits="userSpaceOnUse">
<stop offset="0.1" stop-color="#FF45ED"/>
<stop offset="0.11" stop-color="#F846EE"/>
<stop offset="0.28" stop-color="#AC4FF7"/>
<stop offset="0.41" stop-color="#7D55FD"/>
<stop offset="0.47" stop-color="#6B57FF"/>
<stop offset="0.48" stop-color="#655DFE"/>
<stop offset="0.57" stop-color="#4482FA"/>
<stop offset="0.66" stop-color="#299EF6"/>
<stop offset="0.76" stop-color="#16B3F4"/>
<stop offset="0.85" stop-color="#0BBFF2"/>
<stop offset="0.94" stop-color="#07C3F2"/>
</linearGradient>
<linearGradient id="paint2_linear_141_156" x1="28.9463" y1="64.9234" x2="71.0948" y2="107.95" gradientUnits="userSpaceOnUse">
<stop offset="0.1" stop-color="#FF45ED"/>
<stop offset="0.11" stop-color="#F846EE"/>
<stop offset="0.28" stop-color="#AC4FF7"/>
<stop offset="0.41" stop-color="#7D55FD"/>
<stop offset="0.47" stop-color="#6B57FF"/>
<stop offset="0.48" stop-color="#655DFE"/>
<stop offset="0.57" stop-color="#4482FA"/>
<stop offset="0.66" stop-color="#299EF6"/>
<stop offset="0.76" stop-color="#16B3F4"/>
<stop offset="0.85" stop-color="#0BBFF2"/>
<stop offset="0.94" stop-color="#07C3F2"/>
</linearGradient>
<linearGradient id="paint3_linear_141_156" x1="32.1097" y1="90.0023" x2="62.8845" y2="64.3566" gradientUnits="userSpaceOnUse">
<stop offset="0.04" stop-color="#FF45ED"/>
<stop offset="0.05" stop-color="#FE45ED"/>
<stop offset="0.2" stop-color="#D14BF3"/>
<stop offset="0.36" stop-color="#AC4FF7"/>
<stop offset="0.51" stop-color="#9053FB"/>
<stop offset="0.67" stop-color="#7B55FD"/>
<stop offset="0.82" stop-color="#6F57FF"/>
<stop offset="0.97" stop-color="#6B57FF"/>
</linearGradient>
<linearGradient id="paint4_linear_141_156" x1="70.0892" y1="41.2251" x2="90.7795" y2="83.5109" gradientUnits="userSpaceOnUse">
<stop offset="0.2" stop-color="#FF45ED"/>
<stop offset="0.29" stop-color="#F646EE"/>
<stop offset="0.43" stop-color="#DD49F1"/>
<stop offset="0.61" stop-color="#B64EF6"/>
<stop offset="0.82" stop-color="#7F55FD"/>
<stop offset="0.89" stop-color="#6B57FF"/>
</linearGradient>
<linearGradient id="paint5_linear_141_156" x1="45.0377" y1="42.9531" x2="97.0149" y2="30.3543" gradientUnits="userSpaceOnUse">
<stop offset="0.1" stop-color="#FF45ED"/>
<stop offset="0.17" stop-color="#F64AED"/>
<stop offset="0.29" stop-color="#DD56EE"/>
<stop offset="0.44" stop-color="#B56AEE"/>
<stop offset="0.62" stop-color="#7E87F0"/>
<stop offset="0.81" stop-color="#38AAF1"/>
<stop offset="0.94" stop-color="#07C3F2"/>
</linearGradient>
<clipPath id="clip0_141_156">
<rect width="96" height="96" fill="white" transform="translate(16 16)"/>
</clipPath>
</defs>
</svg>
