<svg width="128" height="128" viewBox="0 0 128 128" fill="none" xmlns="http://www.w3.org/2000/svg">
<rect width="128" height="128" rx="32" fill="url(#paint0_linear_141_2)"/>
<g filter="url(#filter0_i_141_2)">
<rect x="8" y="8" width="112" height="112" rx="24" fill="black" fill-opacity="0.7"/>
<g clip-path="url(#clip0_141_2)">
<path d="M33.6182 82.0205L20.7085 71.8262L28.3062 57.7554L39.7256 61.5771L33.6182 82.0205Z" fill="#FC801D"/>
<g filter="url(#filter1_d_141_2)">
<path d="M107.492 43.5109L105.911 94.3452L72.1005 107.886L53.6868 96L107.492 43.5109Z" fill="#087CFA"/>
</g>
<g filter="url(#filter2_d_141_2)">
<path d="M107.493 43.5109L90.7611 59.8309L69.2754 33.472L79.8811 21.5497L107.493 43.5109Z" fill="#7557B2"/>
</g>
<g filter="url(#filter3_d_141_2)">
<path fill-rule="evenodd" clip-rule="evenodd" d="M19.7212 54.8845L39.7258 61.5771L90.7612 59.8308L61.1566 23.5063L32.4298 20.1143L19.7212 54.8845Z" fill="url(#paint1_linear_141_2)"/>
</g>
<g filter="url(#filter4_d_141_2)">
<path d="M26.7979 105.719L53.687 96L90.7613 59.8308L39.7259 61.5771L32.4299 85.9977L26.7979 105.719Z" fill="#FF318C"/>
</g>
<g filter="url(#filter5_d_141_2)">
<path d="M36.5715 36.5714H91.4287V91.4286H36.5715V36.5714Z" fill="black"/>
</g>
<path d="M43.4104 81.0605H63.9818V84.4891H43.4104V81.0605Z" fill="white"/>
<path d="M53.6779 47.1955V43.4469H43.447V47.1955H46.3179V60.1418H43.447V63.8903H53.6779V60.1418H50.8162V47.1955H53.6779Z" fill="white"/>
<path d="M63.4881 64.1829C62.0939 64.228 60.7115 63.9131 59.4744 63.2686C58.4582 62.7215 57.5528 61.9897 56.8047 61.1109L59.6298 57.9566C60.146 58.539 60.7434 59.044 61.4035 59.456C61.9935 59.8217 62.6752 60.012 63.3693 60.0046C63.7404 60.0224 64.1111 59.9607 64.4565 59.8235C64.8018 59.6863 65.1138 59.4768 65.3715 59.2092C65.9223 58.4645 66.1823 57.5445 66.103 56.6217V43.4286H70.6744V56.8229C70.6948 57.9077 70.5246 58.9877 70.1715 60.0137C69.871 60.8666 69.3794 61.6394 68.7345 62.2732C68.0896 62.9071 67.3083 63.3851 66.4504 63.6709C65.4761 64.0007 64.4526 64.1615 63.4241 64.1463" fill="white"/>
</g>
</g>
<defs>
<filter id="filter0_i_141_2" x="8" y="8" width="112" height="116" filterUnits="userSpaceOnUse" color-interpolation-filters="sRGB">
<feFlood flood-opacity="0" result="BackgroundImageFix"/>
<feBlend mode="normal" in="SourceGraphic" in2="BackgroundImageFix" result="shape"/>
<feColorMatrix in="SourceAlpha" type="matrix" values="0 0 0 0 0 0 0 0 0 0 0 0 0 0 0 0 0 0 127 0" result="hardAlpha"/>
<feOffset dy="4"/>
<feGaussianBlur stdDeviation="2"/>
<feComposite in2="hardAlpha" operator="arithmetic" k2="-1" k3="1"/>
<feColorMatrix type="matrix" values="0 0 0 0 0 0 0 0 0 0 0 0 0 0 0 0 0 0 0.25 0"/>
<feBlend mode="normal" in2="shape" result="effect1_innerShadow_141_2"/>
</filter>
<filter id="filter1_d_141_2" x="49.6868" y="41.5109" width="61.8057" height="72.3749" filterUnits="userSpaceOnUse" color-interpolation-filters="sRGB">
<feFlood flood-opacity="0" result="BackgroundImageFix"/>
<feColorMatrix in="SourceAlpha" type="matrix" values="0 0 0 0 0 0 0 0 0 0 0 0 0 0 0 0 0 0 127 0" result="hardAlpha"/>
<feOffset dy="2"/>
<feGaussianBlur stdDeviation="2"/>
<feComposite in2="hardAlpha" operator="out"/>
<feColorMatrix type="matrix" values="0 0 0 0 0 0 0 0 0 0 0 0 0 0 0 0 0 0 0.25 0"/>
<feBlend mode="normal" in2="BackgroundImageFix" result="effect1_dropShadow_141_2"/>
<feBlend mode="normal" in="SourceGraphic" in2="effect1_dropShadow_141_2" result="shape"/>
</filter>
<filter id="filter2_d_141_2" x="65.2754" y="19.5497" width="46.217" height="46.2812" filterUnits="userSpaceOnUse" color-interpolation-filters="sRGB">
<feFlood flood-opacity="0" result="BackgroundImageFix"/>
<feColorMatrix in="SourceAlpha" type="matrix" values="0 0 0 0 0 0 0 0 0 0 0 0 0 0 0 0 0 0 127 0" result="hardAlpha"/>
<feOffset dy="2"/>
<feGaussianBlur stdDeviation="2"/>
<feComposite in2="hardAlpha" operator="out"/>
<feColorMatrix type="matrix" values="0 0 0 0 0 0 0 0 0 0 0 0 0 0 0 0 0 0 0.25 0"/>
<feBlend mode="normal" in2="BackgroundImageFix" result="effect1_dropShadow_141_2"/>
<feBlend mode="normal" in="SourceGraphic" in2="effect1_dropShadow_141_2" result="shape"/>
</filter>
<filter id="filter3_d_141_2" x="15.7212" y="18.1143" width="79.04" height="93.6046" filterUnits="userSpaceOnUse" color-interpolation-filters="sRGB">
<feFlood flood-opacity="0" result="BackgroundImageFix"/>
<feColorMatrix in="SourceAlpha" type="matrix" values="0 0 0 0 0 0 0 0 0 0 0 0 0 0 0 0 0 0 127 0" result="hardAlpha"/>
<feOffset dy="2"/>
<feGaussianBlur stdDeviation="2"/>
<feComposite in2="hardAlpha" operator="out"/>
<feColorMatrix type="matrix" values="0 0 0 0 0 0 0 0 0 0 0 0 0 0 0 0 0 0 0.25 0"/>
<feBlend mode="normal" in2="BackgroundImageFix" result="effect1_dropShadow_141_2"/>
<feBlend mode="normal" in="SourceGraphic" in2="effect1_dropShadow_141_2" result="shape"/>
</filter>
<filter id="filter4_d_141_2" x="22.7979" y="57.8308" width="71.9634" height="53.8879" filterUnits="userSpaceOnUse" color-interpolation-filters="sRGB">
<feFlood flood-opacity="0" result="BackgroundImageFix"/>
<feColorMatrix in="SourceAlpha" type="matrix" values="0 0 0 0 0 0 0 0 0 0 0 0 0 0 0 0 0 0 127 0" result="hardAlpha"/>
<feOffset dy="2"/>
<feGaussianBlur stdDeviation="2"/>
<feComposite in2="hardAlpha" operator="out"/>
<feColorMatrix type="matrix" values="0 0 0 0 0 0 0 0 0 0 0 0 0 0 0 0 0 0 0.25 0"/>
<feBlend mode="normal" in2="BackgroundImageFix" result="effect1_dropShadow_141_2"/>
<feBlend mode="normal" in="SourceGraphic" in2="effect1_dropShadow_141_2" result="shape"/>
</filter>
<filter id="filter5_d_141_2" x="32.5715" y="34.5714" width="62.8572" height="62.8572" filterUnits="userSpaceOnUse" color-interpolation-filters="sRGB">
<feFlood flood-opacity="0" result="BackgroundImageFix"/>
<feColorMatrix in="SourceAlpha" type="matrix" values="0 0 0 0 0 0 0 0 0 0 0 0 0 0 0 0 0 0 127 0" result="hardAlpha"/>
<feOffset dy="2"/>
<feGaussianBlur stdDeviation="2"/>
<feComposite in2="hardAlpha" operator="out"/>
<feColorMatrix type="matrix" values="0 0 0 0 0 0 0 0 0 0 0 0 0 0 0 0 0 0 0.25 0"/>
<feBlend mode="normal" in2="BackgroundImageFix" result="effect1_dropShadow_141_2"/>
<feBlend mode="normal" in="SourceGraphic" in2="effect1_dropShadow_141_2" result="shape"/>
</filter>
<linearGradient id="paint0_linear_141_2" x1="64" y1="0" x2="64" y2="128" gradientUnits="userSpaceOnUse">
<stop stop-color="#FC801D"/>
<stop offset="0.244792" stop-color="#FE285B"/>
<stop offset="0.510417" stop-color="#FF318C"/>
<stop offset="0.744792" stop-color="#7557B2"/>
<stop offset="1" stop-color="#087CFA"/>
</linearGradient>
<linearGradient id="paint1_linear_141_2" x1="33.1155" y1="40.3291" x2="88.0458" y2="131.191" gradientUnits="userSpaceOnUse">
<stop stop-color="#FE2857"/>
<stop offset="0.08" stop-color="#FE295F"/>
<stop offset="0.21" stop-color="#FF2D76"/>
<stop offset="0.3" stop-color="#FF318C"/>
<stop offset="0.429456" stop-color="#EA3896"/>
<stop offset="0.55" stop-color="#B248AE"/>
<stop offset="0.79" stop-color="#5A63D6"/>
<stop offset="1" stop-color="#087CFA"/>
</linearGradient>
<clipPath id="clip0_141_2">
<rect width="96" height="96" fill="white" transform="translate(16 16)"/>
</clipPath>
</defs>
</svg>
