<svg width="128" height="128" viewBox="0 0 128 128" fill="none" xmlns="http://www.w3.org/2000/svg">
<rect width="128" height="128" rx="32" fill="url(#paint0_linear_141_230)"/>
<rect width="128" height="128" rx="32" fill="url(#paint1_linear_141_230)"/>
<g filter="url(#filter0_i_141_230)">
<rect x="8" y="8" width="112" height="112" rx="24" fill="black" fill-opacity="0.7"/>
<g clip-path="url(#clip0_141_230)">
<g filter="url(#filter1_d_141_230)">
<path d="M106.951 86.6304L108.343 48.5449L84.1455 43.0784L63.5713 56.8484L73.1338 85.1291L106.953 86.6304H106.951Z" fill="url(#paint2_linear_141_230)"/>
</g>
<g filter="url(#filter2_d_141_230)">
<path d="M101.592 66.2364L108.343 48.5449L84.5359 38.0745L63.5713 56.8494L101.592 66.2364Z" fill="url(#paint3_linear_141_230)"/>
</g>
<g filter="url(#filter3_d_141_230)">
<path d="M76.7221 107.429L106.951 86.6304L34.2499 54.3424L20.5713 93.269L76.7221 107.429Z" fill="url(#paint4_linear_141_230)"/>
</g>
<g filter="url(#filter4_d_141_230)">
<path d="M20.5713 53.2096L68.9516 90.0791L101.592 66.2364L64.5036 25.1054L32.2275 19.6572L20.5713 53.2096Z" fill="url(#paint5_linear_141_230)"/>
</g>
<g filter="url(#filter5_d_141_230)">
<path d="M91.886 36.1143H37.0288V90.9714H91.886V36.1143Z" fill="black"/>
</g>
<path d="M43.3647 42.8928H51.8237C56.7627 42.8928 59.7497 45.8213 59.7497 50.0508V50.1093C59.7497 54.9001 56.023 57.3861 51.3794 57.3861H47.9188V63.5968H43.3647V42.8928ZM51.5275 53.334C53.8041 53.334 55.1362 51.9726 55.1362 50.198V50.1395C55.1362 48.0979 53.7163 47.0035 51.4388 47.0035H47.9188V53.334H51.5275Z" fill="white"/>
<path d="M57.2021 60.7863L60.0712 57.5927C61.2543 58.8937 62.4072 59.6627 63.8563 59.6627C65.5715 59.6627 66.6357 58.6277 66.6357 56.2323V42.8928H71.3096V56.4389C71.3096 58.8937 70.6001 60.7269 69.3576 61.9703C68.6327 62.6316 67.7836 63.1421 66.8595 63.4721C65.9354 63.802 64.955 63.9448 63.9752 63.8921C62.6841 63.9254 61.4025 63.6628 60.2286 63.1245C59.0546 62.5862 58.0194 61.7864 57.2021 60.7863Z" fill="white"/>
<path d="M64.4572 80.6857H43.8857V84.1142H64.4572V80.6857Z" fill="white"/>
</g>
</g>
<defs>
<filter id="filter0_i_141_230" x="8" y="8" width="112" height="116" filterUnits="userSpaceOnUse" color-interpolation-filters="sRGB">
<feFlood flood-opacity="0" result="BackgroundImageFix"/>
<feBlend mode="normal" in="SourceGraphic" in2="BackgroundImageFix" result="shape"/>
<feColorMatrix in="SourceAlpha" type="matrix" values="0 0 0 0 0 0 0 0 0 0 0 0 0 0 0 0 0 0 127 0" result="hardAlpha"/>
<feOffset dy="4"/>
<feGaussianBlur stdDeviation="2"/>
<feComposite in2="hardAlpha" operator="arithmetic" k2="-1" k3="1"/>
<feColorMatrix type="matrix" values="0 0 0 0 0 0 0 0 0 0 0 0 0 0 0 0 0 0 0.25 0"/>
<feBlend mode="normal" in2="shape" result="effect1_innerShadow_141_230"/>
</filter>
<filter id="filter1_d_141_230" x="59.5713" y="41.0784" width="52.7715" height="51.552" filterUnits="userSpaceOnUse" color-interpolation-filters="sRGB">
<feFlood flood-opacity="0" result="BackgroundImageFix"/>
<feColorMatrix in="SourceAlpha" type="matrix" values="0 0 0 0 0 0 0 0 0 0 0 0 0 0 0 0 0 0 127 0" result="hardAlpha"/>
<feOffset dy="2"/>
<feGaussianBlur stdDeviation="2"/>
<feComposite in2="hardAlpha" operator="out"/>
<feColorMatrix type="matrix" values="0 0 0 0 0 0 0 0 0 0 0 0 0 0 0 0 0 0 0.25 0"/>
<feBlend mode="normal" in2="BackgroundImageFix" result="effect1_dropShadow_141_230"/>
<feBlend mode="normal" in="SourceGraphic" in2="effect1_dropShadow_141_230" result="shape"/>
</filter>
<filter id="filter2_d_141_230" x="59.5713" y="36.0745" width="52.7715" height="36.1618" filterUnits="userSpaceOnUse" color-interpolation-filters="sRGB">
<feFlood flood-opacity="0" result="BackgroundImageFix"/>
<feColorMatrix in="SourceAlpha" type="matrix" values="0 0 0 0 0 0 0 0 0 0 0 0 0 0 0 0 0 0 127 0" result="hardAlpha"/>
<feOffset dy="2"/>
<feGaussianBlur stdDeviation="2"/>
<feComposite in2="hardAlpha" operator="out"/>
<feColorMatrix type="matrix" values="0 0 0 0 0 0 0 0 0 0 0 0 0 0 0 0 0 0 0.25 0"/>
<feBlend mode="normal" in2="BackgroundImageFix" result="effect1_dropShadow_141_230"/>
<feBlend mode="normal" in="SourceGraphic" in2="effect1_dropShadow_141_230" result="shape"/>
</filter>
<filter id="filter3_d_141_230" x="16.5713" y="52.3424" width="94.3799" height="61.0862" filterUnits="userSpaceOnUse" color-interpolation-filters="sRGB">
<feFlood flood-opacity="0" result="BackgroundImageFix"/>
<feColorMatrix in="SourceAlpha" type="matrix" values="0 0 0 0 0 0 0 0 0 0 0 0 0 0 0 0 0 0 127 0" result="hardAlpha"/>
<feOffset dy="2"/>
<feGaussianBlur stdDeviation="2"/>
<feComposite in2="hardAlpha" operator="out"/>
<feColorMatrix type="matrix" values="0 0 0 0 0 0 0 0 0 0 0 0 0 0 0 0 0 0 0.25 0"/>
<feBlend mode="normal" in2="BackgroundImageFix" result="effect1_dropShadow_141_230"/>
<feBlend mode="normal" in="SourceGraphic" in2="effect1_dropShadow_141_230" result="shape"/>
</filter>
<filter id="filter4_d_141_230" x="16.5713" y="17.6572" width="89.0205" height="78.4219" filterUnits="userSpaceOnUse" color-interpolation-filters="sRGB">
<feFlood flood-opacity="0" result="BackgroundImageFix"/>
<feColorMatrix in="SourceAlpha" type="matrix" values="0 0 0 0 0 0 0 0 0 0 0 0 0 0 0 0 0 0 127 0" result="hardAlpha"/>
<feOffset dy="2"/>
<feGaussianBlur stdDeviation="2"/>
<feComposite in2="hardAlpha" operator="out"/>
<feColorMatrix type="matrix" values="0 0 0 0 0 0 0 0 0 0 0 0 0 0 0 0 0 0 0.25 0"/>
<feBlend mode="normal" in2="BackgroundImageFix" result="effect1_dropShadow_141_230"/>
<feBlend mode="normal" in="SourceGraphic" in2="effect1_dropShadow_141_230" result="shape"/>
</filter>
<filter id="filter5_d_141_230" x="33.0288" y="34.1143" width="62.8569" height="62.8572" filterUnits="userSpaceOnUse" color-interpolation-filters="sRGB">
<feFlood flood-opacity="0" result="BackgroundImageFix"/>
<feColorMatrix in="SourceAlpha" type="matrix" values="0 0 0 0 0 0 0 0 0 0 0 0 0 0 0 0 0 0 127 0" result="hardAlpha"/>
<feOffset dy="2"/>
<feGaussianBlur stdDeviation="2"/>
<feComposite in2="hardAlpha" operator="out"/>
<feColorMatrix type="matrix" values="0 0 0 0 0 0 0 0 0 0 0 0 0 0 0 0 0 0 0.25 0"/>
<feBlend mode="normal" in2="BackgroundImageFix" result="effect1_dropShadow_141_230"/>
<feBlend mode="normal" in="SourceGraphic" in2="effect1_dropShadow_141_230" result="shape"/>
</filter>
<linearGradient id="paint0_linear_141_230" x1="64" y1="0" x2="64" y2="128" gradientUnits="userSpaceOnUse">
<stop stop-color="#3BEA62"/>
<stop offset="0.510417" stop-color="#087CFA"/>
<stop offset="1" stop-color="#B74AF7"/>
</linearGradient>
<linearGradient id="paint1_linear_141_230" x1="39.2612" y1="111.31" x2="92.0667" y2="30.2459" gradientUnits="userSpaceOnUse">
<stop stop-color="#6B57FF"/>
<stop offset="0.461429" stop-color="#FF318C"/>
<stop offset="1" stop-color="#FDB60D"/>
</linearGradient>
<linearGradient id="paint2_linear_141_230" x1="95.5292" y1="80.6784" x2="82.8124" y2="43.9424" gradientUnits="userSpaceOnUse">
<stop offset="0.001" stop-color="#FF318C"/>
<stop offset="1" stop-color="#FC801D"/>
</linearGradient>
<linearGradient id="paint3_linear_141_230" x1="98.8371" y1="40.8978" x2="87.6783" y2="55.0693" gradientUnits="userSpaceOnUse">
<stop stop-color="#FF318C"/>
<stop offset="0.781" stop-color="#FC801D"/>
</linearGradient>
<linearGradient id="paint4_linear_141_230" x1="94.2179" y1="97.9109" x2="30.1777" y2="74.8032" gradientUnits="userSpaceOnUse">
<stop offset="0.017" stop-color="#FF318C"/>
<stop offset="0.811" stop-color="#6B57FF"/>
</linearGradient>
<linearGradient id="paint5_linear_141_230" x1="45.4225" y1="80.8969" x2="72.6581" y2="32.7936" gradientUnits="userSpaceOnUse">
<stop offset="0.33" stop-color="#FF318C"/>
<stop offset="0.942" stop-color="#FDB60D"/>
</linearGradient>
<clipPath id="clip0_141_230">
<rect width="96" height="96" fill="white" transform="translate(16 16)"/>
</clipPath>
</defs>
</svg>
