<svg width="128" height="128" viewBox="0 0 128 128" fill="none" xmlns="http://www.w3.org/2000/svg">
<rect width="128" height="128" rx="32" fill="url(#paint0_linear_141_254)"/>
<rect width="128" height="128" rx="32" fill="url(#paint1_linear_141_254)"/>
<g filter="url(#filter0_i_141_254)">
<rect x="8" y="8" width="112" height="112" rx="24" fill="black" fill-opacity="0.7"/>
<g clip-path="url(#clip0_141_254)">
<g filter="url(#filter1_d_141_254)">
<path d="M80.5001 57.7974L34.2026 67.5024C32.9939 67.6889 31.7989 67.9545 30.6251 68.2974C26.947 69.3852 23.7074 71.6088 21.3701 74.6499C7.54755 92.6049 22.3751 116.072 43.57 111.4L94.3601 104.042C99.7181 102.847 104.404 99.6211 107.433 95.0424C120.528 75.4899 103.57 51.0324 80.5001 57.7974Z" fill="url(#paint2_linear_141_254)"/>
</g>
<g filter="url(#filter2_d_141_254)">
<path d="M55.0526 22.1125C49.3451 16.8625 40.9601 14.425 31.5476 17.1775C27.6382 18.3342 24.1943 20.6967 21.7076 23.9275C12.2501 36.25 15.4151 50.965 24.9026 58.5625L75.4301 100.75C78.1967 102.555 81.3029 103.775 84.5582 104.336C87.8134 104.897 91.149 104.787 94.3601 104.012C99.7181 102.817 104.404 99.5912 107.433 95.0125C115.233 83.41 112.375 70 103.908 62.5L55.0526 22.1125Z" fill="url(#paint3_linear_141_254)"/>
</g>
<g filter="url(#filter3_d_141_254)">
<path d="M38.005 16.1125C35.8222 16.25 33.6588 16.6068 31.5475 17.1775C27.6381 18.3343 24.1941 20.6967 21.7075 23.9275C6.99997 43 22.75 67.975 45.31 63.0025L105.857 40.165C107.614 39.7762 109.151 38.7225 110.147 37.225C113.897 31.57 110.065 24.6775 103.907 24.64L40.5175 16C39.6175 16 38.7775 16.0525 38.005 16.1125Z" fill="url(#paint4_linear_141_254)"/>
</g>
<g filter="url(#filter4_d_141_254)">
<path d="M34 34H94V94H34V34Z" fill="black"/>
</g>
<path d="M41.5 82.75H64V86.5H41.5V82.75Z" fill="white"/>
<path d="M61 64.6075L58.525 62.3575C56.5342 63.6272 54.2187 64.294 51.8575 64.2775C44.935 64.315 40 59.155 40 52.75C40 46.3675 45.0325 41.14 52 41.14C58.9675 41.14 63.895 46.3 63.895 52.6825V52.75C63.8875 55.0473 63.1956 57.2903 61.9075 59.1925L64.2175 61.15L61 64.6075ZM54.8725 59.155L51.25 56.0425L54.3925 52.5175L58.075 55.855C58.48 54.8708 58.6791 53.8141 58.66 52.75C58.6912 51.8363 58.5384 50.9256 58.2108 50.072C57.8832 49.2184 57.3874 48.4394 56.7529 47.7811C56.1184 47.1228 55.3581 46.5987 54.5172 46.2399C53.6762 45.8812 52.7718 45.695 51.8575 45.6925C47.8825 45.6925 45.1075 48.835 45.1075 52.6825V52.75C45.0764 53.6628 45.2289 54.5725 45.5561 55.4252C45.8834 56.2778 46.3786 57.0561 47.0124 57.7137C47.6462 58.3712 48.4056 58.8948 49.2457 59.2532C50.0857 59.6116 50.9892 59.7975 51.9025 59.8C52.9289 59.8157 53.9451 59.595 54.8725 59.155Z" fill="white"/>
<path d="M67.6526 41.5H76.1126C83.1626 41.5 88.0376 46.345 88.0376 52.66V52.75C88.0376 59.065 83.1626 64 76.1126 64H67.6526V41.5ZM72.5876 46V59.5H76.1126C80.1476 59.5 82.8626 56.77 82.8626 52.795V52.75C82.9054 51.8522 82.7601 50.9554 82.4361 50.1171C82.112 49.2787 81.6163 48.5174 80.9807 47.8818C80.3452 47.2463 79.5839 46.7506 78.7455 46.4265C77.9072 46.1025 77.0104 45.9572 76.1126 46H72.5876Z" fill="white"/>
</g>
</g>
<defs>
<filter id="filter0_i_141_254" x="8" y="8" width="112" height="116" filterUnits="userSpaceOnUse" color-interpolation-filters="sRGB">
<feFlood flood-opacity="0" result="BackgroundImageFix"/>
<feBlend mode="normal" in="SourceGraphic" in2="BackgroundImageFix" result="shape"/>
<feColorMatrix in="SourceAlpha" type="matrix" values="0 0 0 0 0 0 0 0 0 0 0 0 0 0 0 0 0 0 127 0" result="hardAlpha"/>
<feOffset dy="4"/>
<feGaussianBlur stdDeviation="2"/>
<feComposite in2="hardAlpha" operator="arithmetic" k2="-1" k3="1"/>
<feColorMatrix type="matrix" values="0 0 0 0 0 0 0 0 0 0 0 0 0 0 0 0 0 0 0.25 0"/>
<feBlend mode="normal" in2="shape" result="effect1_innerShadow_141_254"/>
</filter>
<filter id="filter1_d_141_254" x="12.001" y="54.6472" width="103.998" height="63.3555" filterUnits="userSpaceOnUse" color-interpolation-filters="sRGB">
<feFlood flood-opacity="0" result="BackgroundImageFix"/>
<feColorMatrix in="SourceAlpha" type="matrix" values="0 0 0 0 0 0 0 0 0 0 0 0 0 0 0 0 0 0 127 0" result="hardAlpha"/>
<feOffset dy="2"/>
<feGaussianBlur stdDeviation="2"/>
<feComposite in2="hardAlpha" operator="out"/>
<feColorMatrix type="matrix" values="0 0 0 0 0 0 0 0 0 0 0 0 0 0 0 0 0 0 0.25 0"/>
<feBlend mode="normal" in2="BackgroundImageFix" result="effect1_dropShadow_141_254"/>
<feBlend mode="normal" in="SourceGraphic" in2="effect1_dropShadow_141_254" result="shape"/>
</filter>
<filter id="filter2_d_141_254" x="12.0042" y="14.0337" width="103.997" height="96.6549" filterUnits="userSpaceOnUse" color-interpolation-filters="sRGB">
<feFlood flood-opacity="0" result="BackgroundImageFix"/>
<feColorMatrix in="SourceAlpha" type="matrix" values="0 0 0 0 0 0 0 0 0 0 0 0 0 0 0 0 0 0 127 0" result="hardAlpha"/>
<feOffset dy="2"/>
<feGaussianBlur stdDeviation="2"/>
<feComposite in2="hardAlpha" operator="out"/>
<feColorMatrix type="matrix" values="0 0 0 0 0 0 0 0 0 0 0 0 0 0 0 0 0 0 0.25 0"/>
<feBlend mode="normal" in2="BackgroundImageFix" result="effect1_dropShadow_141_254"/>
<feBlend mode="normal" in="SourceGraphic" in2="effect1_dropShadow_141_254" result="shape"/>
</filter>
<filter id="filter3_d_141_254" x="11.99" y="14" width="103.64" height="55.6439" filterUnits="userSpaceOnUse" color-interpolation-filters="sRGB">
<feFlood flood-opacity="0" result="BackgroundImageFix"/>
<feColorMatrix in="SourceAlpha" type="matrix" values="0 0 0 0 0 0 0 0 0 0 0 0 0 0 0 0 0 0 127 0" result="hardAlpha"/>
<feOffset dy="2"/>
<feGaussianBlur stdDeviation="2"/>
<feComposite in2="hardAlpha" operator="out"/>
<feColorMatrix type="matrix" values="0 0 0 0 0 0 0 0 0 0 0 0 0 0 0 0 0 0 0.25 0"/>
<feBlend mode="normal" in2="BackgroundImageFix" result="effect1_dropShadow_141_254"/>
<feBlend mode="normal" in="SourceGraphic" in2="effect1_dropShadow_141_254" result="shape"/>
</filter>
<filter id="filter4_d_141_254" x="30" y="32" width="68" height="68" filterUnits="userSpaceOnUse" color-interpolation-filters="sRGB">
<feFlood flood-opacity="0" result="BackgroundImageFix"/>
<feColorMatrix in="SourceAlpha" type="matrix" values="0 0 0 0 0 0 0 0 0 0 0 0 0 0 0 0 0 0 127 0" result="hardAlpha"/>
<feOffset dy="2"/>
<feGaussianBlur stdDeviation="2"/>
<feComposite in2="hardAlpha" operator="out"/>
<feColorMatrix type="matrix" values="0 0 0 0 0 0 0 0 0 0 0 0 0 0 0 0 0 0 0.25 0"/>
<feBlend mode="normal" in2="BackgroundImageFix" result="effect1_dropShadow_141_254"/>
<feBlend mode="normal" in="SourceGraphic" in2="effect1_dropShadow_141_254" result="shape"/>
</filter>
<linearGradient id="paint0_linear_141_254" x1="64" y1="0" x2="64" y2="128" gradientUnits="userSpaceOnUse">
<stop stop-color="#3BEA62"/>
<stop offset="0.510417" stop-color="#087CFA"/>
<stop offset="1" stop-color="#B74AF7"/>
</linearGradient>
<linearGradient id="paint1_linear_141_254" x1="39.2612" y1="111.31" x2="92.0667" y2="30.2459" gradientUnits="userSpaceOnUse">
<stop stop-color="#6B57FF"/>
<stop offset="0.461429" stop-color="#FF318C"/>
<stop offset="1" stop-color="#FDB60D"/>
</linearGradient>
<linearGradient id="paint2_linear_141_254" x1="14.0426" y1="91.3824" x2="92.3876" y2="80.1174" gradientUnits="userSpaceOnUse">
<stop offset="0.18" stop-color="#FC801D"/>
<stop offset="0.63" stop-color="#FF318C"/>
</linearGradient>
<linearGradient id="paint3_linear_141_254" x1="2.61261" y1="14.8225" x2="114.033" y2="97.63" gradientUnits="userSpaceOnUse">
<stop stop-color="#FF318C"/>
<stop offset="0.4" stop-color="#B74AF7"/>
<stop offset="0.87" stop-color="#FF318C"/>
</linearGradient>
<linearGradient id="paint4_linear_141_254" x1="-10.3325" y1="51.5125" x2="113.23" y2="22.5325" gradientUnits="userSpaceOnUse">
<stop stop-color="#FF318C"/>
<stop offset="0.2" stop-color="#D73BAB"/>
<stop offset="0.51" stop-color="#9D4AD8"/>
<stop offset="0.75" stop-color="#7953F4"/>
<stop offset="0.87" stop-color="#6B57FF"/>
</linearGradient>
<clipPath id="clip0_141_254">
<rect width="96" height="96" fill="white" transform="translate(16 16)"/>
</clipPath>
</defs>
</svg>
