<svg width="64" height="64" viewBox="0 0 64 64" fill="none" xmlns="http://www.w3.org/2000/svg">
<g clip-path="url(#clip0_31_4871)">
<path d="M48 0H16C7.16344 0 0 7.16344 0 16V48C0 56.8366 7.16344 64 16 64H48C56.8366 64 64 56.8366 64 48V16C64 7.16344 56.8366 0 48 0Z" fill="url(#paint0_linear_31_4871)"/>
<path d="M48 0H16C7.16344 0 0 7.16344 0 16V48C0 56.8366 7.16344 64 16 64H48C56.8366 64 64 56.8366 64 48V16C64 7.16344 56.8366 0 48 0Z" fill="url(#paint1_linear_31_4871)"/>
<g filter="url(#filter0_i_31_4871)">
<path d="M48 4H16C9.37258 4 4 9.37258 4 16V48C4 54.6274 9.37258 60 16 60H48C54.6274 60 60 54.6274 60 48V16C60 9.37258 54.6274 4 48 4Z" fill="black" fill-opacity="0.7"/>
<mask id="mask0_31_4871" style="mask-type:luminance" maskUnits="userSpaceOnUse" x="8" y="8" width="48" height="48">
<path d="M56 8H8V56H56V8Z" fill="white"/>
</mask>
<g mask="url(#mask0_31_4871)">
<g filter="url(#filter1_d_31_4871)">
<path d="M43.593 53.943L53.9429 26.5783L45.7142 24.7131L43.593 53.943Z" fill="#087CFA"/>
</g>
<g filter="url(#filter2_d_31_4871)">
<path d="M53.8149 45.2571L43.593 53.943L29.0056 50.185L53.8149 45.2571Z" fill="#087CFA"/>
</g>
<g filter="url(#filter3_d_31_4871)">
<path d="M15.52 30.1622L10.8572 16.8228L34.1394 10.0571L15.52 30.1622Z" fill="#07C3F2"/>
</g>
<g filter="url(#filter4_d_31_4871)">
<path d="M48.3474 35.4651L41.8148 24.3154L41.9382 24.2377L34.1394 10.0571L10.0571 36.064V53.943L53.815 45.2571L48.3474 35.4651Z" fill="url(#paint2_linear_31_4871)"/>
</g>
<g filter="url(#filter5_d_31_4871)">
<path d="M18.2856 18.2856H45.7143V45.7142H18.2856V18.2856Z" fill="black"/>
</g>
<path d="M21.7051 40.5302H31.9908V42.2445H21.7051V40.5302Z" fill="white"/>
<path d="M25.3713 21.7143H27.4284L31.8078 32.0137H29.4581L28.5438 29.728H24.201L23.2867 32.0137H21.001L25.3713 21.7143ZM27.7393 27.7348L26.3678 24.416L24.9964 27.7348H27.7393Z" fill="white"/>
<path d="M31.4469 26.912V26.8845C31.4343 26.173 31.5659 25.4663 31.8338 24.807C32.1017 24.1477 32.5004 23.5495 33.0057 23.0485C33.5111 22.5474 34.1126 22.1539 34.7742 21.8916C35.4357 21.6293 36.1435 21.5036 36.8549 21.5223C37.6108 21.4844 38.3662 21.607 39.0714 21.8819C39.7766 22.1569 40.4156 22.5781 40.9463 23.1177L39.4926 24.7954C38.7967 24.0723 37.8444 23.652 36.8412 23.6251C35.0949 23.6251 33.8332 25.0743 33.8332 26.8525V26.8845C33.8332 28.6628 35.0629 30.144 36.8412 30.144C38.0252 30.144 38.752 29.6868 39.584 28.928L41.0195 30.4C40.4945 31.0055 39.8394 31.4845 39.1032 31.8011C38.3669 32.1178 37.5687 32.2639 36.768 32.2285C36.0664 32.2403 35.3696 32.1108 34.719 31.8478C34.0684 31.5849 33.4773 31.1938 32.9809 30.6978C32.4845 30.2018 32.0929 29.6111 31.8294 28.9607C31.5658 28.3103 31.4358 27.6136 31.4469 26.912Z" fill="white"/>
</g>
</g>
</g>
<defs>
<filter id="filter0_i_31_4871" x="4" y="4" width="56" height="60" filterUnits="userSpaceOnUse" color-interpolation-filters="sRGB">
<feFlood flood-opacity="0" result="BackgroundImageFix"/>
<feBlend mode="normal" in="SourceGraphic" in2="BackgroundImageFix" result="shape"/>
<feColorMatrix in="SourceAlpha" type="matrix" values="0 0 0 0 0 0 0 0 0 0 0 0 0 0 0 0 0 0 127 0" result="hardAlpha"/>
<feOffset dy="4"/>
<feGaussianBlur stdDeviation="2"/>
<feComposite in2="hardAlpha" operator="arithmetic" k2="-1" k3="1"/>
<feColorMatrix type="matrix" values="0 0 0 0 0 0 0 0 0 0 0 0 0 0 0 0 0 0 0.25 0"/>
<feBlend mode="normal" in2="shape" result="effect1_innerShadow_31_4871"/>
</filter>
<filter id="filter1_d_31_4871" x="39.593" y="22.7131" width="18.3499" height="37.2299" filterUnits="userSpaceOnUse" color-interpolation-filters="sRGB">
<feFlood flood-opacity="0" result="BackgroundImageFix"/>
<feColorMatrix in="SourceAlpha" type="matrix" values="0 0 0 0 0 0 0 0 0 0 0 0 0 0 0 0 0 0 127 0" result="hardAlpha"/>
<feOffset dy="2"/>
<feGaussianBlur stdDeviation="2"/>
<feComposite in2="hardAlpha" operator="out"/>
<feColorMatrix type="matrix" values="0 0 0 0 0 0 0 0 0 0 0 0 0 0 0 0 0 0 0.25 0"/>
<feBlend mode="normal" in2="BackgroundImageFix" result="effect1_dropShadow_31_4871"/>
<feBlend mode="normal" in="SourceGraphic" in2="effect1_dropShadow_31_4871" result="shape"/>
</filter>
<filter id="filter2_d_31_4871" x="25.0056" y="43.2571" width="32.8093" height="16.6859" filterUnits="userSpaceOnUse" color-interpolation-filters="sRGB">
<feFlood flood-opacity="0" result="BackgroundImageFix"/>
<feColorMatrix in="SourceAlpha" type="matrix" values="0 0 0 0 0 0 0 0 0 0 0 0 0 0 0 0 0 0 127 0" result="hardAlpha"/>
<feOffset dy="2"/>
<feGaussianBlur stdDeviation="2"/>
<feComposite in2="hardAlpha" operator="out"/>
<feColorMatrix type="matrix" values="0 0 0 0 0 0 0 0 0 0 0 0 0 0 0 0 0 0 0.25 0"/>
<feBlend mode="normal" in2="BackgroundImageFix" result="effect1_dropShadow_31_4871"/>
<feBlend mode="normal" in="SourceGraphic" in2="effect1_dropShadow_31_4871" result="shape"/>
</filter>
<filter id="filter3_d_31_4871" x="6.85718" y="8.05713" width="31.2822" height="28.1051" filterUnits="userSpaceOnUse" color-interpolation-filters="sRGB">
<feFlood flood-opacity="0" result="BackgroundImageFix"/>
<feColorMatrix in="SourceAlpha" type="matrix" values="0 0 0 0 0 0 0 0 0 0 0 0 0 0 0 0 0 0 127 0" result="hardAlpha"/>
<feOffset dy="2"/>
<feGaussianBlur stdDeviation="2"/>
<feComposite in2="hardAlpha" operator="out"/>
<feColorMatrix type="matrix" values="0 0 0 0 0 0 0 0 0 0 0 0 0 0 0 0 0 0 0.25 0"/>
<feBlend mode="normal" in2="BackgroundImageFix" result="effect1_dropShadow_31_4871"/>
<feBlend mode="normal" in="SourceGraphic" in2="effect1_dropShadow_31_4871" result="shape"/>
</filter>
<filter id="filter4_d_31_4871" x="6.05713" y="8.05713" width="51.7578" height="51.8859" filterUnits="userSpaceOnUse" color-interpolation-filters="sRGB">
<feFlood flood-opacity="0" result="BackgroundImageFix"/>
<feColorMatrix in="SourceAlpha" type="matrix" values="0 0 0 0 0 0 0 0 0 0 0 0 0 0 0 0 0 0 127 0" result="hardAlpha"/>
<feOffset dy="2"/>
<feGaussianBlur stdDeviation="2"/>
<feComposite in2="hardAlpha" operator="out"/>
<feColorMatrix type="matrix" values="0 0 0 0 0 0 0 0 0 0 0 0 0 0 0 0 0 0 0.25 0"/>
<feBlend mode="normal" in2="BackgroundImageFix" result="effect1_dropShadow_31_4871"/>
<feBlend mode="normal" in="SourceGraphic" in2="effect1_dropShadow_31_4871" result="shape"/>
</filter>
<filter id="filter5_d_31_4871" x="14.2856" y="16.2856" width="35.4287" height="35.4286" filterUnits="userSpaceOnUse" color-interpolation-filters="sRGB">
<feFlood flood-opacity="0" result="BackgroundImageFix"/>
<feColorMatrix in="SourceAlpha" type="matrix" values="0 0 0 0 0 0 0 0 0 0 0 0 0 0 0 0 0 0 127 0" result="hardAlpha"/>
<feOffset dy="2"/>
<feGaussianBlur stdDeviation="2"/>
<feComposite in2="hardAlpha" operator="out"/>
<feColorMatrix type="matrix" values="0 0 0 0 0 0 0 0 0 0 0 0 0 0 0 0 0 0 0.25 0"/>
<feBlend mode="normal" in2="BackgroundImageFix" result="effect1_dropShadow_31_4871"/>
<feBlend mode="normal" in="SourceGraphic" in2="effect1_dropShadow_31_4871" result="shape"/>
</filter>
<linearGradient id="paint0_linear_31_4871" x1="32" y1="0" x2="32" y2="64" gradientUnits="userSpaceOnUse">
<stop stop-color="#FCF84A"/>
<stop offset="0.244792" stop-color="#9AF156"/>
<stop offset="0.510417" stop-color="#7AE36F"/>
<stop offset="0.744792" stop-color="#21D789"/>
<stop offset="1" stop-color="#07C3F2"/>
</linearGradient>
<linearGradient id="paint1_linear_31_4871" x1="42.0694" y1="66.0335" x2="10.3926" y2="21.6924" gradientUnits="userSpaceOnUse">
<stop offset="0.09" stop-color="#21D789"/>
<stop offset="0.48" stop-color="#07C3F2"/>
<stop offset="0.9" stop-color="#087CFA"/>
</linearGradient>
<linearGradient id="paint2_linear_31_4871" x1="38.8205" y1="55.337" x2="17.0788" y2="24.992" gradientUnits="userSpaceOnUse">
<stop offset="0.09" stop-color="#21D789"/>
<stop offset="0.48" stop-color="#07C3F2"/>
<stop offset="0.9" stop-color="#087CFA"/>
</linearGradient>
<clipPath id="clip0_31_4871">
<rect width="64" height="64" fill="white"/>
</clipPath>
</defs>
</svg>
