<svg width="64" height="64" viewBox="0 0 64 64" fill="none" xmlns="http://www.w3.org/2000/svg">
<g clip-path="url(#clip0_31_4936)">
<path d="M48 0H16C7.16344 0 0 7.16344 0 16V48C0 56.8366 7.16344 64 16 64H48C56.8366 64 64 56.8366 64 48V16C64 7.16344 56.8366 0 48 0Z" fill="url(#paint0_linear_31_4936)"/>
<g filter="url(#filter0_i_31_4936)">
<path d="M48 4H16C9.37258 4 4 9.37258 4 16V48C4 54.6274 9.37258 60 16 60H48C54.6274 60 60 54.6274 60 48V16C60 9.37258 54.6274 4 48 4Z" fill="black" fill-opacity="0.7"/>
<mask id="mask0_31_4936" style="mask-type:luminance" maskUnits="userSpaceOnUse" x="8" y="8" width="48" height="48">
<path d="M56 8H8V56H56V8Z" fill="white"/>
</mask>
<g mask="url(#mask0_31_4936)">
<g filter="url(#filter1_d_31_4936)">
<path fill-rule="evenodd" clip-rule="evenodd" d="M30.9335 23.9457C30.0731 26.099 29.2444 29.6625 28.2435 25.563C27.4929 22.6513 25.889 27.3877 24.7226 28.1996C22.3701 29.9878 21.0682 32.5077 20.0234 35.2074C17.2567 32.8549 18.2944 36.6305 18.1249 38.4769C18.2757 41.2448 17.8247 44.2714 18.3476 46.8793C20.5431 48.7923 22.1313 51.812 25.3983 51.773C27.6331 52.5495 27.3532 49.1704 29.3796 51.9745C31.2444 54.5305 32.3961 53.036 33.6134 51.779C35.3921 54.5015 35.9369 48.521 37.4374 51.2035C39.7565 52.106 41.8358 52.5355 42.2163 49.4746C42.6926 47.0572 46.8487 47.0082 45.8749 44.1019C45.7391 41.0865 46.1447 37.8559 45.6757 34.973C44.1016 33.7445 42.8872 30.9075 41.0937 30.6605C38.8746 31.7374 39.7296 26.9894 38.8164 25.5918C38.5179 21.9221 37.7318 23.5814 36.8773 26.098C36.4044 29.7209 34.4167 27.9939 33.4014 25.6227C32.4983 24.8634 31.4691 20.8514 30.9335 23.9457Z" fill="#F3E517"/>
</g>
<mask id="mask1_31_4936" style="mask-type:luminance" maskUnits="userSpaceOnUse" x="19" y="24" width="26" height="28">
<path d="M19.25 43.352L20 44.102L21.125 47.852L21.5 43.352L22.625 48.977V41.852L23.375 43.727L24.5 48.977V41.852L25.25 42.602L26.375 48.977L27.5 40.352L29.9809 50.072L30.125 44.102L30.875 41.852L31.625 51.227L33.875 41.852L34.625 49.727L36.5 41.477L38.375 50.477L38.75 43.727L39.875 41.477L40.25 50.102L42.125 41.852L43.25 45.602L43.625 42.227L44.75 44.477V37.352L43.625 40.352L43.25 33.977L42.5 38.852L41.75 37.352L41.375 32.102L39.5 39.227L39.125 37.727L38 26.477L36.875 36.227L36.125 39.227L34.625 29.102L33.125 37.727L32.375 39.977L32 24.4877L29.75 41.852L27.5 26.102L26.375 39.602L25.625 38.102L24.875 29.102L24.5 38.102L23.375 40.727L22.625 31.727L21.875 38.852L20.75 36.977V42.227L19.25 36.602V43.352Z" fill="white"/>
</mask>
<g mask="url(#mask1_31_4936)">
<path fill-rule="evenodd" clip-rule="evenodd" d="M18.5 51.602V24.227H45.5V51.602H18.5Z" fill="#FF7901"/>
<g filter="url(#filter2_d_31_4936)">
<path fill-rule="evenodd" clip-rule="evenodd" d="M18.875 38.102L21.875 39.977L23 36.602L24.875 38.852L27.125 35.102L27.875 39.602L28.625 36.602L29.75 38.852L30.125 36.602C30.125 36.602 31.25 39.602 31.25 39.227C31.25 38.852 32.75 33.602 32.75 33.602L34.25 38.477L36.5 33.977L37.625 38.852L39.5 35.477L40.625 38.852L42.5 36.977L44.75 39.227V42.227L43.25 43.352L41 42.602L39.5 41.852L39.125 45.602L38.375 41.852L36.875 45.227L34.625 41.852L33.875 45.227L32.375 42.977L30.5 47.852L29.375 42.227L27.125 43.352L25.625 41.102L24.875 44.852L23.375 42.977L21.875 44.852L21.125 43.727L18.875 44.102V38.102Z" fill="#FF0101"/>
</g>
</g>
<g filter="url(#filter3_d_31_4936)">
<path d="M32 10.6801C27.0264 10.6801 22.4905 12.2329 19.1446 14.8403C15.7986 17.4476 13.625 21.1783 13.625 25.3285V26.8285C10.3029 28.5117 8 32.927 8 38.102C8 44.726 11.7685 50.102 16.625 50.102V25.3285C16.625 22.2205 18.2337 19.36 20.9961 17.2074C23.7585 15.0548 27.6592 13.6801 32 13.6801C36.3408 13.6801 40.2415 15.0548 43.0039 17.2074C45.7663 19.36 47.375 22.2205 47.375 25.3285V50.102C52.2315 50.102 56 44.726 56 38.102C56 32.927 53.697 28.5117 50.375 26.8285V25.3285C50.375 21.1783 48.2014 17.4476 44.8554 14.8403C41.5095 12.2329 36.9736 10.6801 32 10.6801ZM17.75 26.477V50.102C18.5 50.102 19.25 49.727 19.625 48.977V27.227C19.25 26.852 18.5 26.477 17.75 26.477ZM46.25 26.477C45.5 26.477 44.75 26.852 44.375 27.227V48.977C44.75 49.727 45.5 50.102 46.25 50.102V26.477Z" fill="#0077CC"/>
</g>
</g>
</g>
</g>
<defs>
<filter id="filter0_i_31_4936" x="4" y="4" width="56" height="60" filterUnits="userSpaceOnUse" color-interpolation-filters="sRGB">
<feFlood flood-opacity="0" result="BackgroundImageFix"/>
<feBlend mode="normal" in="SourceGraphic" in2="BackgroundImageFix" result="shape"/>
<feColorMatrix in="SourceAlpha" type="matrix" values="0 0 0 0 0 0 0 0 0 0 0 0 0 0 0 0 0 0 127 0" result="hardAlpha"/>
<feOffset dy="4"/>
<feGaussianBlur stdDeviation="2"/>
<feComposite in2="hardAlpha" operator="arithmetic" k2="-1" k3="1"/>
<feColorMatrix type="matrix" values="0 0 0 0 0 0 0 0 0 0 0 0 0 0 0 0 0 0 0.25 0"/>
<feBlend mode="normal" in2="shape" result="effect1_innerShadow_31_4936"/>
</filter>
<filter id="filter1_d_31_4936" x="14.0696" y="20.7896" width="35.9526" height="38.5823" filterUnits="userSpaceOnUse" color-interpolation-filters="sRGB">
<feFlood flood-opacity="0" result="BackgroundImageFix"/>
<feColorMatrix in="SourceAlpha" type="matrix" values="0 0 0 0 0 0 0 0 0 0 0 0 0 0 0 0 0 0 127 0" result="hardAlpha"/>
<feOffset dy="2"/>
<feGaussianBlur stdDeviation="2"/>
<feComposite in2="hardAlpha" operator="out"/>
<feColorMatrix type="matrix" values="0 0 0 0 0 0 0 0 0 0 0 0 0 0 0 0 0 0 0.25 0"/>
<feBlend mode="normal" in2="BackgroundImageFix" result="effect1_dropShadow_31_4936"/>
<feBlend mode="normal" in="SourceGraphic" in2="effect1_dropShadow_31_4936" result="shape"/>
</filter>
<filter id="filter2_d_31_4936" x="14.875" y="31.602" width="33.875" height="22.25" filterUnits="userSpaceOnUse" color-interpolation-filters="sRGB">
<feFlood flood-opacity="0" result="BackgroundImageFix"/>
<feColorMatrix in="SourceAlpha" type="matrix" values="0 0 0 0 0 0 0 0 0 0 0 0 0 0 0 0 0 0 127 0" result="hardAlpha"/>
<feOffset dy="2"/>
<feGaussianBlur stdDeviation="2"/>
<feComposite in2="hardAlpha" operator="out"/>
<feColorMatrix type="matrix" values="0 0 0 0 0 0 0 0 0 0 0 0 0 0 0 0 0 0 0.25 0"/>
<feBlend mode="normal" in2="BackgroundImageFix" result="effect1_dropShadow_31_4936"/>
<feBlend mode="normal" in="SourceGraphic" in2="effect1_dropShadow_31_4936" result="shape"/>
</filter>
<filter id="filter3_d_31_4936" x="4" y="8.68005" width="56" height="47.4219" filterUnits="userSpaceOnUse" color-interpolation-filters="sRGB">
<feFlood flood-opacity="0" result="BackgroundImageFix"/>
<feColorMatrix in="SourceAlpha" type="matrix" values="0 0 0 0 0 0 0 0 0 0 0 0 0 0 0 0 0 0 127 0" result="hardAlpha"/>
<feOffset dy="2"/>
<feGaussianBlur stdDeviation="2"/>
<feComposite in2="hardAlpha" operator="out"/>
<feColorMatrix type="matrix" values="0 0 0 0 0 0 0 0 0 0 0 0 0 0 0 0 0 0 0.25 0"/>
<feBlend mode="normal" in2="BackgroundImageFix" result="effect1_dropShadow_31_4936"/>
<feBlend mode="normal" in="SourceGraphic" in2="effect1_dropShadow_31_4936" result="shape"/>
</filter>
<linearGradient id="paint0_linear_31_4936" x1="32" y1="0" x2="32" y2="64" gradientUnits="userSpaceOnUse">
<stop stop-color="#0077CC"/>
<stop offset="1" stop-color="#0044CC"/>
</linearGradient>
<clipPath id="clip0_31_4936">
<rect width="64" height="64" fill="white"/>
</clipPath>
</defs>
</svg>
