<svg width="64" height="64" viewBox="0 0 64 64" fill="none" xmlns="http://www.w3.org/2000/svg">
<g clip-path="url(#clip0_31_4997)">
<path d="M48 0H16C7.16344 0 0 7.16344 0 16V48C0 56.8366 7.16344 64 16 64H48C56.8366 64 64 56.8366 64 48V16C64 7.16344 56.8366 0 48 0Z" fill="#D3B9FF"/>
<path d="M48 0H16C7.16344 0 0 7.16344 0 16V48C0 56.8366 7.16344 64 16 64H48C56.8366 64 64 56.8366 64 48V16C64 7.16344 56.8366 0 48 0Z" fill="url(#paint0_linear_31_4997)"/>
<g filter="url(#filter0_i_31_4997)">
<path d="M48 4H16C9.37258 4 4 9.37258 4 16V48C4 54.6274 9.37258 60 16 60H48C54.6274 60 60 54.6274 60 48V16C60 9.37258 54.6274 4 48 4Z" fill="black" fill-opacity="0.7"/>
<g filter="url(#filter1_d_31_4997)">
<path d="M18 42.5V46.5C18 48.7092 19.7908 50.5 22 50.5H48C50.209 50.5 52 48.7092 52 46.5V29.5C52 27.2908 50.209 25.5 48 25.5" stroke="#8B00E7" stroke-width="4"/>
</g>
<g filter="url(#filter2_d_31_4997)">
<g filter="url(#filter3_d_31_4997)">
<path d="M24.5 19H19C17.8954 19 17 19.8954 17 21V27.5C17 28.6046 17.8954 29.5 19 29.5H24.5C25.6046 29.5 26.5 28.6046 26.5 27.5V21C26.5 19.8954 25.6046 19 24.5 19Z" fill="#D404FF"/>
</g>
<g filter="url(#filter4_d_31_4997)">
<path d="M39 21.5H32C30.8954 21.5 30 22.3954 30 23.5V33.5C30 34.6046 30.8954 35.5 32 35.5H39C40.1046 35.5 41 34.6046 41 33.5V23.5C41 22.3954 40.1046 21.5 39 21.5Z" fill="#D404FF"/>
</g>
<path d="M42 13.5H18C14.6863 13.5 12 16.1863 12 19.5V36.5C12 39.8137 14.6863 42.5 18 42.5H42C45.3137 42.5 48 39.8137 48 36.5V19.5C48 16.1863 45.3137 13.5 42 13.5Z" stroke="#D404FF" stroke-width="4"/>
</g>
</g>
</g>
<defs>
<filter id="filter0_i_31_4997" x="4" y="4" width="56" height="58" filterUnits="userSpaceOnUse" color-interpolation-filters="sRGB">
<feFlood flood-opacity="0" result="BackgroundImageFix"/>
<feBlend mode="normal" in="SourceGraphic" in2="BackgroundImageFix" result="shape"/>
<feColorMatrix in="SourceAlpha" type="matrix" values="0 0 0 0 0 0 0 0 0 0 0 0 0 0 0 0 0 0 127 0" result="hardAlpha"/>
<feOffset dy="2"/>
<feGaussianBlur stdDeviation="2"/>
<feComposite in2="hardAlpha" operator="arithmetic" k2="-1" k3="1"/>
<feColorMatrix type="matrix" values="0 0 0 0 0 0 0 0 0 0 0 0 0 0 0 0 0 0 0.25 0"/>
<feBlend mode="normal" in2="shape" result="effect1_innerShadow_31_4997"/>
</filter>
<filter id="filter1_d_31_4997" x="12" y="21.5" width="46" height="37" filterUnits="userSpaceOnUse" color-interpolation-filters="sRGB">
<feFlood flood-opacity="0" result="BackgroundImageFix"/>
<feColorMatrix in="SourceAlpha" type="matrix" values="0 0 0 0 0 0 0 0 0 0 0 0 0 0 0 0 0 0 127 0" result="hardAlpha"/>
<feOffset dy="2"/>
<feGaussianBlur stdDeviation="2"/>
<feComposite in2="hardAlpha" operator="out"/>
<feColorMatrix type="matrix" values="0 0 0 0 0 0 0 0 0 0 0 0 0 0 0 0 0 0 0.25 0"/>
<feBlend mode="normal" in2="BackgroundImageFix" result="effect1_dropShadow_31_4997"/>
<feBlend mode="normal" in="SourceGraphic" in2="effect1_dropShadow_31_4997" result="shape"/>
</filter>
<filter id="filter2_d_31_4997" x="6" y="9.5" width="48" height="41" filterUnits="userSpaceOnUse" color-interpolation-filters="sRGB">
<feFlood flood-opacity="0" result="BackgroundImageFix"/>
<feColorMatrix in="SourceAlpha" type="matrix" values="0 0 0 0 0 0 0 0 0 0 0 0 0 0 0 0 0 0 127 0" result="hardAlpha"/>
<feOffset dy="2"/>
<feGaussianBlur stdDeviation="2"/>
<feComposite in2="hardAlpha" operator="out"/>
<feColorMatrix type="matrix" values="0 0 0 0 0 0 0 0 0 0 0 0 0 0 0 0 0 0 0.25 0"/>
<feBlend mode="normal" in2="BackgroundImageFix" result="effect1_dropShadow_31_4997"/>
<feBlend mode="normal" in="SourceGraphic" in2="effect1_dropShadow_31_4997" result="shape"/>
</filter>
<filter id="filter3_d_31_4997" x="13" y="17" width="17.5" height="18.5" filterUnits="userSpaceOnUse" color-interpolation-filters="sRGB">
<feFlood flood-opacity="0" result="BackgroundImageFix"/>
<feColorMatrix in="SourceAlpha" type="matrix" values="0 0 0 0 0 0 0 0 0 0 0 0 0 0 0 0 0 0 127 0" result="hardAlpha"/>
<feOffset dy="2"/>
<feGaussianBlur stdDeviation="2"/>
<feComposite in2="hardAlpha" operator="out"/>
<feColorMatrix type="matrix" values="0 0 0 0 0 0 0 0 0 0 0 0 0 0 0 0 0 0 0.25 0"/>
<feBlend mode="normal" in2="BackgroundImageFix" result="effect1_dropShadow_31_4997"/>
<feBlend mode="normal" in="SourceGraphic" in2="effect1_dropShadow_31_4997" result="shape"/>
</filter>
<filter id="filter4_d_31_4997" x="26" y="19.5" width="19" height="22" filterUnits="userSpaceOnUse" color-interpolation-filters="sRGB">
<feFlood flood-opacity="0" result="BackgroundImageFix"/>
<feColorMatrix in="SourceAlpha" type="matrix" values="0 0 0 0 0 0 0 0 0 0 0 0 0 0 0 0 0 0 127 0" result="hardAlpha"/>
<feOffset dy="2"/>
<feGaussianBlur stdDeviation="2"/>
<feComposite in2="hardAlpha" operator="out"/>
<feColorMatrix type="matrix" values="0 0 0 0 0 0 0 0 0 0 0 0 0 0 0 0 0 0 0.25 0"/>
<feBlend mode="normal" in2="BackgroundImageFix" result="effect1_dropShadow_31_4997"/>
<feBlend mode="normal" in="SourceGraphic" in2="effect1_dropShadow_31_4997" result="shape"/>
</filter>
<linearGradient id="paint0_linear_31_4997" x1="32" y1="0" x2="32" y2="64" gradientUnits="userSpaceOnUse">
<stop stop-color="#CB02C5"/>
<stop offset="0.244792" stop-color="#C101DA"/>
<stop offset="0.510417" stop-color="#B600F0"/>
<stop offset="0.744792" stop-color="#8900D9"/>
<stop offset="1" stop-color="#5800BF"/>
</linearGradient>
<clipPath id="clip0_31_4997">
<rect width="64" height="64" fill="white"/>
</clipPath>
</defs>
</svg>
