<svg width="64" height="64" viewBox="0 0 64 64" fill="none" xmlns="http://www.w3.org/2000/svg">
<g clip-path="url(#clip0_31_5038)">
<path d="M48 0H16C7.16344 0 0 7.16344 0 16V48C0 56.8366 7.16344 64 16 64H48C56.8366 64 64 56.8366 64 48V16C64 7.16344 56.8366 0 48 0Z" fill="url(#paint0_linear_31_5038)"/>
<path d="M48 0H16C7.16344 0 0 7.16344 0 16V48C0 56.8366 7.16344 64 16 64H48C56.8366 64 64 56.8366 64 48V16C64 7.16344 56.8366 0 48 0Z" fill="url(#paint1_linear_31_5038)"/>
<g filter="url(#filter0_i_31_5038)">
<path d="M48 4H16C9.37258 4 4 9.37258 4 16V48C4 54.6274 9.37258 60 16 60H48C54.6274 60 60 54.6274 60 48V16C60 9.37258 54.6274 4 48 4Z" fill="black" fill-opacity="0.7"/>
<mask id="mask0_31_5038" style="mask-type:luminance" maskUnits="userSpaceOnUse" x="8" y="8" width="48" height="48">
<path d="M56 8H8V56H56V8Z" fill="white"/>
</mask>
<g mask="url(#mask0_31_5038)">
<g filter="url(#filter1_d_31_5038)">
<path d="M15.0582 50.8985L10.0571 33.6594L41.1245 42.2263L37.8102 53.943L15.0582 50.8985Z" fill="url(#paint2_linear_31_5038)"/>
</g>
<g filter="url(#filter2_d_31_5038)">
<path d="M24.7771 10.112L36.4616 13.4582L49.6639 10.0571L52.279 28.16L22.5691 18.2857L24.7771 10.112Z" fill="url(#paint3_linear_31_5038)"/>
</g>
<g filter="url(#filter3_d_31_5038)">
<path d="M53.943 38.9668L52.279 28.16L25.3988 19.2274L10.112 22.5051L10.0571 33.6594L41.1245 42.2263L53.943 38.9668Z" fill="url(#paint4_linear_31_5038)"/>
</g>
<g filter="url(#filter4_d_31_5038)">
<path d="M18.2856 18.2857H45.7143V45.7143H18.2856V18.2857Z" fill="black"/>
</g>
<path d="M21.7051 40.5303H31.9908V42.2446H21.7051V40.5303Z" fill="white"/>
<path d="M21.7144 21.6777H25.7372C28.9784 21.6777 31.223 23.904 31.223 26.8069V26.8389C31.223 29.7417 28.983 31.9954 25.7372 31.9954H21.7144V21.6777ZM24.0001 23.7257V29.9429H25.7555C26.1677 29.9671 26.5805 29.9043 26.9668 29.7584C27.3531 29.6125 27.7043 29.3869 27.9976 29.0962C28.2909 28.8055 28.5196 28.4563 28.6689 28.0713C28.8182 27.6863 28.8847 27.2741 28.8641 26.8617V26.8343C28.885 26.4203 28.819 26.0066 28.6702 25.6197C28.5215 25.2328 28.2933 24.8814 28.0005 24.5881C27.7076 24.2948 27.3565 24.0661 26.9698 23.9168C26.5832 23.7675 26.1695 23.7008 25.7555 23.7211L24.0001 23.7257Z" fill="white"/>
<path d="M32.0046 21.6823H34.4503L37.1658 26.048L39.8766 21.6868H42.3223V32.0046H40.064L40.0686 25.2663L37.1658 29.6731H37.1018L34.2309 25.312V32H32.0046V21.6823Z" fill="white"/>
</g>
</g>
</g>
<defs>
<filter id="filter0_i_31_5038" x="4" y="4" width="56" height="60" filterUnits="userSpaceOnUse" color-interpolation-filters="sRGB">
<feFlood flood-opacity="0" result="BackgroundImageFix"/>
<feBlend mode="normal" in="SourceGraphic" in2="BackgroundImageFix" result="shape"/>
<feColorMatrix in="SourceAlpha" type="matrix" values="0 0 0 0 0 0 0 0 0 0 0 0 0 0 0 0 0 0 127 0" result="hardAlpha"/>
<feOffset dy="4"/>
<feGaussianBlur stdDeviation="2"/>
<feComposite in2="hardAlpha" operator="arithmetic" k2="-1" k3="1"/>
<feColorMatrix type="matrix" values="0 0 0 0 0 0 0 0 0 0 0 0 0 0 0 0 0 0 0.25 0"/>
<feBlend mode="normal" in2="shape" result="effect1_innerShadow_31_5038"/>
</filter>
<filter id="filter1_d_31_5038" x="6.05713" y="31.6594" width="39.0674" height="28.2836" filterUnits="userSpaceOnUse" color-interpolation-filters="sRGB">
<feFlood flood-opacity="0" result="BackgroundImageFix"/>
<feColorMatrix in="SourceAlpha" type="matrix" values="0 0 0 0 0 0 0 0 0 0 0 0 0 0 0 0 0 0 127 0" result="hardAlpha"/>
<feOffset dy="2"/>
<feGaussianBlur stdDeviation="2"/>
<feComposite in2="hardAlpha" operator="out"/>
<feColorMatrix type="matrix" values="0 0 0 0 0 0 0 0 0 0 0 0 0 0 0 0 0 0 0.25 0"/>
<feBlend mode="normal" in2="BackgroundImageFix" result="effect1_dropShadow_31_5038"/>
<feBlend mode="normal" in="SourceGraphic" in2="effect1_dropShadow_31_5038" result="shape"/>
</filter>
<filter id="filter2_d_31_5038" x="18.5691" y="8.05713" width="37.71" height="26.1028" filterUnits="userSpaceOnUse" color-interpolation-filters="sRGB">
<feFlood flood-opacity="0" result="BackgroundImageFix"/>
<feColorMatrix in="SourceAlpha" type="matrix" values="0 0 0 0 0 0 0 0 0 0 0 0 0 0 0 0 0 0 127 0" result="hardAlpha"/>
<feOffset dy="2"/>
<feGaussianBlur stdDeviation="2"/>
<feComposite in2="hardAlpha" operator="out"/>
<feColorMatrix type="matrix" values="0 0 0 0 0 0 0 0 0 0 0 0 0 0 0 0 0 0 0.25 0"/>
<feBlend mode="normal" in2="BackgroundImageFix" result="effect1_dropShadow_31_5038"/>
<feBlend mode="normal" in="SourceGraphic" in2="effect1_dropShadow_31_5038" result="shape"/>
</filter>
<filter id="filter3_d_31_5038" x="6.05713" y="17.2274" width="51.8857" height="30.9989" filterUnits="userSpaceOnUse" color-interpolation-filters="sRGB">
<feFlood flood-opacity="0" result="BackgroundImageFix"/>
<feColorMatrix in="SourceAlpha" type="matrix" values="0 0 0 0 0 0 0 0 0 0 0 0 0 0 0 0 0 0 127 0" result="hardAlpha"/>
<feOffset dy="2"/>
<feGaussianBlur stdDeviation="2"/>
<feComposite in2="hardAlpha" operator="out"/>
<feColorMatrix type="matrix" values="0 0 0 0 0 0 0 0 0 0 0 0 0 0 0 0 0 0 0.25 0"/>
<feBlend mode="normal" in2="BackgroundImageFix" result="effect1_dropShadow_31_5038"/>
<feBlend mode="normal" in="SourceGraphic" in2="effect1_dropShadow_31_5038" result="shape"/>
</filter>
<filter id="filter4_d_31_5038" x="14.2856" y="16.2857" width="35.4287" height="35.4286" filterUnits="userSpaceOnUse" color-interpolation-filters="sRGB">
<feFlood flood-opacity="0" result="BackgroundImageFix"/>
<feColorMatrix in="SourceAlpha" type="matrix" values="0 0 0 0 0 0 0 0 0 0 0 0 0 0 0 0 0 0 127 0" result="hardAlpha"/>
<feOffset dy="2"/>
<feGaussianBlur stdDeviation="2"/>
<feComposite in2="hardAlpha" operator="out"/>
<feColorMatrix type="matrix" values="0 0 0 0 0 0 0 0 0 0 0 0 0 0 0 0 0 0 0.25 0"/>
<feBlend mode="normal" in2="BackgroundImageFix" result="effect1_dropShadow_31_5038"/>
<feBlend mode="normal" in="SourceGraphic" in2="effect1_dropShadow_31_5038" result="shape"/>
</filter>
<linearGradient id="paint0_linear_31_5038" x1="32" y1="0" x2="32" y2="64" gradientUnits="userSpaceOnUse">
<stop stop-color="#3BEA62"/>
<stop offset="0.510417" stop-color="#087DF7"/>
<stop offset="1" stop-color="#6B57FF"/>
</linearGradient>
<linearGradient id="paint1_linear_31_5038" x1="42.9457" y1="79.2725" x2="6.448" y2="15.5458" gradientUnits="userSpaceOnUse">
<stop stop-color="#6B57FF"/>
<stop offset="0.14" stop-color="#8953FB"/>
<stop offset="0.44" stop-color="#D64AF2"/>
<stop offset="0.59" stop-color="#FF45ED"/>
<stop offset="0.97" stop-color="#FDB60D"/>
</linearGradient>
<linearGradient id="paint2_linear_31_5038" x1="21.8148" y1="22.1485" x2="29.3211" y2="53.5545" gradientUnits="userSpaceOnUse">
<stop stop-color="#6B57FF"/>
<stop offset="0.13" stop-color="#9A51F9"/>
<stop offset="0.27" stop-color="#C64CF4"/>
<stop offset="0.39" stop-color="#E548F0"/>
<stop offset="0.5" stop-color="#F846EE"/>
<stop offset="0.57" stop-color="#FF45ED"/>
<stop offset="0.63" stop-color="#FF57C9"/>
<stop offset="0.81" stop-color="#FE8A65"/>
<stop offset="0.94" stop-color="#FDAA26"/>
<stop offset="1" stop-color="#FDB60D"/>
</linearGradient>
<linearGradient id="paint3_linear_31_5038" x1="42.5051" y1="32.48" x2="35.0582" y2="11.1405" gradientUnits="userSpaceOnUse">
<stop stop-color="#6B57FF"/>
<stop offset="0.14" stop-color="#8953FB"/>
<stop offset="0.44" stop-color="#D64AF2"/>
<stop offset="0.59" stop-color="#FF45ED"/>
<stop offset="0.97" stop-color="#FDB60D"/>
</linearGradient>
<linearGradient id="paint4_linear_31_5038" x1="26.5782" y1="43.6617" x2="32.7588" y2="29.0057" gradientUnits="userSpaceOnUse">
<stop offset="0.12" stop-color="#FF45ED"/>
<stop offset="0.2" stop-color="#DF49F1"/>
<stop offset="0.3" stop-color="#BC4DF5"/>
<stop offset="0.42" stop-color="#9E51F9"/>
<stop offset="0.53" stop-color="#8854FC"/>
<stop offset="0.66" stop-color="#7855FD"/>
<stop offset="0.81" stop-color="#6E57FF"/>
<stop offset="1" stop-color="#6B57FF"/>
</linearGradient>
<clipPath id="clip0_31_5038">
<rect width="64" height="64" fill="white"/>
</clipPath>
</defs>
</svg>
