<svg width="64" height="64" viewBox="0 0 64 64" fill="none" xmlns="http://www.w3.org/2000/svg">
<g clip-path="url(#clip0_31_5117)">
<path d="M48 0H16C7.16344 0 0 7.16344 0 16V48C0 56.8366 7.16344 64 16 64H48C56.8366 64 64 56.8366 64 48V16C64 7.16344 56.8366 0 48 0Z" fill="url(#paint0_linear_31_5117)"/>
<g filter="url(#filter0_i_31_5117)">
<path d="M48 4H16C9.37258 4 4 9.37258 4 16V48C4 54.6274 9.37258 60 16 60H48C54.6274 60 60 54.6274 60 48V16C60 9.37258 54.6274 4 48 4Z" fill="black" fill-opacity="0.7"/>
<g filter="url(#filter1_d_31_5117)">
<path d="M15 15.9999C13.2006 15.9999 12 17.2024 12 18.9999V44.9996C12 46.797 13.2084 47.9995 15 47.9995H48.9995C50.088 47.9995 51.9995 46.7997 51.9995 44.9996V18.9999C51.9995 17.1997 50.795 15.9999 48.9995 15.9999H15ZM22.9998 27.9998C24.6567 27.9998 25.9998 29.3428 25.9998 30.9997C25.9998 32.6566 24.6567 33.9997 22.9998 33.9997C21.343 33.9997 19.9999 32.6566 19.9999 30.9997C19.9999 29.3428 21.343 27.9998 22.9998 27.9998ZM40.9996 27.9998C42.6565 27.9998 43.9996 29.3428 43.9996 30.9997C43.9996 32.6566 42.6565 33.9997 40.9996 33.9997C39.3427 33.9997 37.9996 32.6566 37.9996 30.9997C37.9996 29.3428 39.3427 27.9998 40.9996 27.9998Z" fill="#141414"/>
<path d="M14.9985 21.0231L14.9986 38.0231C14.9986 39.0225 15.9987 40.023 16.9985 40.023H46.9985C47.9989 40.023 48.9985 39.0275 48.9985 38.0231V21.0231C48.9985 20.0244 48.0031 19.0231 46.9985 19.0231H16.9985C15.9973 19.0231 14.9985 20.0193 14.9985 21.0231ZM22.9987 28.0232C24.6555 28.0232 25.9987 29.3663 25.9987 31.0232C25.9987 32.68 24.6555 34.0232 22.9987 34.0232C21.3418 34.0232 19.9987 32.68 19.9987 31.0232C19.9987 29.3663 21.3418 28.0232 22.9987 28.0232ZM40.9987 28.0232C42.6555 28.0232 43.9987 29.3663 43.9987 31.0232C43.9987 32.68 42.6555 34.0232 40.9987 34.0232C39.3418 34.0232 37.9987 32.68 37.9987 31.0232C37.9987 29.3663 39.3418 28.0232 40.9987 28.0232Z" fill="#58BEB1"/>
<path d="M14.9995 48.0252L18.9994 41.0251H44.9995L48.9994 48.0252H14.9995Z" fill="#3F3F3F"/>
<path d="M23.001 46.0189C24.1055 46.0189 25.001 45.1236 25.001 44.019C25.001 42.9144 24.1055 42.0189 23.001 42.0189C21.8964 42.0189 21.001 42.9144 21.001 44.019C21.001 45.1236 21.8964 46.0189 23.001 46.0189Z" fill="#141414"/>
<path d="M40.999 46.0189C42.1036 46.0189 42.999 45.1236 42.999 44.019C42.999 42.9144 42.1036 42.0189 40.999 42.0189C39.8945 42.0189 38.999 42.9144 38.999 44.019C38.999 45.1236 39.8945 46.0189 40.999 46.0189Z" fill="#141414"/>
<path d="M23.0012 27.0111C20.7998 27.0111 19.001 28.8125 19.001 31.0083C19.001 33.2093 20.7963 35.0082 23.0012 35.0082H41.0012C43.1963 35.0082 45.0011 33.2111 45.0011 31.0139V31.0064C45.0011 28.8093 43.1964 27.0061 41.0012 27.0065L23.0012 27.0111ZM23.0012 28.0082C24.6581 28.0082 26.0012 29.3513 26.0012 31.0082C26.0012 32.665 24.6581 34.0082 23.0012 34.0082C21.3443 34.0082 20.0012 32.665 20.0012 31.0082C20.0012 29.3513 21.3443 28.0082 23.0012 28.0082ZM41.0012 28.0082C42.6581 28.0082 44.0012 29.3513 44.0012 31.0082C44.0012 32.665 42.6581 34.0082 41.0012 34.0082C39.3443 34.0082 38.0012 32.665 38.0012 31.0082C38.0012 29.3513 39.3443 28.0082 41.0012 28.0082Z" fill="#141414"/>
<path d="M36.9999 29.0142H27V33.014H36.9999V29.0142Z" fill="#DBE2E3"/>
</g>
</g>
</g>
<defs>
<filter id="filter0_i_31_5117" x="4" y="4" width="56" height="60" filterUnits="userSpaceOnUse" color-interpolation-filters="sRGB">
<feFlood flood-opacity="0" result="BackgroundImageFix"/>
<feBlend mode="normal" in="SourceGraphic" in2="BackgroundImageFix" result="shape"/>
<feColorMatrix in="SourceAlpha" type="matrix" values="0 0 0 0 0 0 0 0 0 0 0 0 0 0 0 0 0 0 127 0" result="hardAlpha"/>
<feOffset dy="4"/>
<feGaussianBlur stdDeviation="2"/>
<feComposite in2="hardAlpha" operator="arithmetic" k2="-1" k3="1"/>
<feColorMatrix type="matrix" values="0 0 0 0 0 0 0 0 0 0 0 0 0 0 0 0 0 0 0.25 0"/>
<feBlend mode="normal" in2="shape" result="effect1_innerShadow_31_5117"/>
</filter>
<filter id="filter1_d_31_5117" x="8" y="13.9999" width="47.9995" height="40.0253" filterUnits="userSpaceOnUse" color-interpolation-filters="sRGB">
<feFlood flood-opacity="0" result="BackgroundImageFix"/>
<feColorMatrix in="SourceAlpha" type="matrix" values="0 0 0 0 0 0 0 0 0 0 0 0 0 0 0 0 0 0 127 0" result="hardAlpha"/>
<feOffset dy="2"/>
<feGaussianBlur stdDeviation="2"/>
<feComposite in2="hardAlpha" operator="out"/>
<feColorMatrix type="matrix" values="0 0 0 0 0 0 0 0 0 0 0 0 0 0 0 0 0 0 0.25 0"/>
<feBlend mode="normal" in2="BackgroundImageFix" result="effect1_dropShadow_31_5117"/>
<feBlend mode="normal" in="SourceGraphic" in2="effect1_dropShadow_31_5117" result="shape"/>
</filter>
<linearGradient id="paint0_linear_31_5117" x1="31.8054" y1="64.049" x2="31.8054" y2="-0.0414518" gradientUnits="userSpaceOnUse">
<stop stop-color="#2CA0B9"/>
<stop offset="1" stop-color="#87DEAA"/>
</linearGradient>
<clipPath id="clip0_31_5117">
<rect width="64" height="64" fill="white"/>
</clipPath>
</defs>
</svg>
