<svg width="64" height="64" viewBox="0 0 64 64" fill="none" xmlns="http://www.w3.org/2000/svg">
<g clip-path="url(#clip0_31_5135)">
<path d="M48 0H16C7.16344 0 0 7.16344 0 16V48C0 56.8366 7.16344 64 16 64H48C56.8366 64 64 56.8366 64 48V16C64 7.16344 56.8366 0 48 0Z" fill="url(#paint0_linear_31_5135)"/>
<g filter="url(#filter0_i_31_5135)">
<path d="M48 4H16C9.37258 4 4 9.37258 4 16V48C4 54.6274 9.37258 60 16 60H48C54.6274 60 60 54.6274 60 48V16C60 9.37258 54.6274 4 48 4Z" fill="black" fill-opacity="0.7"/>
<path d="M32.2247 51.442C43.1184 51.442 51.9495 42.6126 51.9495 31.721C51.9495 20.8294 43.1184 12 32.2247 12C21.3311 12 12.5 20.8294 12.5 31.721C12.5 42.6126 21.3311 51.442 32.2247 51.442Z" fill="url(#paint1_linear_31_5135)"/>
<path opacity="0.4" d="M47.2391 27.207L29.986 19.721L21.3279 20.205L26.0393 24.965L17.687 36.145L19.243 37.721L21.1059 40.721L20.6451 47.662C20.9028 47.8508 21.165 48.0331 21.4315 48.209L44.8188 46.869L44.8227 46.873C49.2608 43.185 51.8605 37.739 51.9375 31.969L47.2391 27.207Z" fill="url(#paint2_linear_31_5135)"/>
<path fill-rule="evenodd" clip-rule="evenodd" d="M19.3911 51.001C19.3911 51.001 25.5549 29.038 49.549 31.831C49.549 31.831 34.2999 22.613 19.4967 35.04C15.1237 45.352 19.3911 51.001 19.3911 51.001Z" fill="url(#paint3_linear_31_5135)"/>
<path fill-rule="evenodd" clip-rule="evenodd" d="M21.2261 48.223C21.2261 48.223 27.6573 32.433 44.8255 32.156C31.7757 35.393 44.8472 46.87 44.8472 46.87C44.8472 46.87 34.5246 56.393 21.2261 48.223Z" fill="url(#paint4_linear_31_5135)"/>
<path fill-rule="evenodd" clip-rule="evenodd" d="M17.645 36.119C17.645 36.119 30.4916 21.731 49.6756 31.672C49.3322 28.968 47.0629 25.916 42.9958 25.044C42.0959 24.608 35.5019 14.231 21.3283 20.204C25.6884 20.55 27.5592 21.172 27.6657 21.644C20.1245 20.324 17.8897 31.25 17.645 36.119Z" fill="url(#paint5_linear_31_5135)"/>
<path fill-rule="evenodd" clip-rule="evenodd" d="M36.0688 23.913C36.0688 23.913 39.3555 22.715 39.7837 26.28C36.5424 26.59 36.0688 23.913 36.0688 23.913Z" fill="#202020"/>
<path fill-rule="evenodd" clip-rule="evenodd" d="M19.3051 51.071C19.3051 51.071 24.9233 32.409 43.7097 31.686C43.7097 31.686 28.4655 28.854 17.6988 46.22C17.6396 48.677 19.3051 51.072 19.3051 51.072V51.071Z" fill="#FDD664"/>
<path fill-rule="evenodd" clip-rule="evenodd" d="M21.3428 20.206C21.3428 20.206 26.0295 20.484 27.7019 21.656C28.4005 21.509 28.9945 21.022 29.0942 20.359C28.4952 20.106 23.0093 19.652 21.3438 20.206H21.3428Z" fill="url(#paint6_linear_31_5135)"/>
<path fill-rule="evenodd" clip-rule="evenodd" d="M21.3428 20.206C21.3428 20.206 26.0295 20.484 27.7019 21.656C28.4005 21.509 28.9945 21.022 29.0942 20.359C28.4952 20.106 23.0093 19.652 21.3438 20.206H21.3428Z" fill="#FDD664"/>
<path fill-rule="evenodd" clip-rule="evenodd" d="M17.6874 36.144C17.6874 36.144 23.5542 28.969 35.3963 28.112C35.3963 28.112 19.2739 28.854 17.9222 33.489C17.5453 34.604 17.6874 36.144 17.6874 36.144Z" fill="#FDD664"/>
</g>
</g>
<defs>
<filter id="filter0_i_31_5135" x="4" y="4" width="56" height="60" filterUnits="userSpaceOnUse" color-interpolation-filters="sRGB">
<feFlood flood-opacity="0" result="BackgroundImageFix"/>
<feBlend mode="normal" in="SourceGraphic" in2="BackgroundImageFix" result="shape"/>
<feColorMatrix in="SourceAlpha" type="matrix" values="0 0 0 0 0 0 0 0 0 0 0 0 0 0 0 0 0 0 127 0" result="hardAlpha"/>
<feOffset dy="4"/>
<feGaussianBlur stdDeviation="2"/>
<feComposite in2="hardAlpha" operator="arithmetic" k2="-1" k3="1"/>
<feColorMatrix type="matrix" values="0 0 0 0 0 0 0 0 0 0 0 0 0 0 0 0 0 0 0.25 0"/>
<feBlend mode="normal" in2="shape" result="effect1_innerShadow_31_5135"/>
</filter>
<linearGradient id="paint0_linear_31_5135" x1="96.1" y1="-17.6907" x2="-14.1798" y2="63.9735" gradientUnits="userSpaceOnUse">
<stop stop-color="#D446FF"/>
<stop offset="1" stop-color="#A0D8FF"/>
</linearGradient>
<linearGradient id="paint1_linear_31_5135" x1="71.736" y1="1.09753" x2="3.76866" y2="51.438" gradientUnits="userSpaceOnUse">
<stop stop-color="#D446FF"/>
<stop offset="1" stop-color="#A0D8FF"/>
</linearGradient>
<linearGradient id="paint2_linear_31_5135" x1="31.9594" y1="31.721" x2="51.9575" y2="51.453" gradientUnits="userSpaceOnUse">
<stop stop-color="#292C2F"/>
<stop offset="1" stop-opacity="0"/>
</linearGradient>
<linearGradient id="paint3_linear_31_5135" x1="30.9137" y1="33.2281" x2="44.8616" y2="22.4391" gradientUnits="userSpaceOnUse">
<stop stop-color="white"/>
<stop offset="1" stop-color="#DADADA"/>
</linearGradient>
<linearGradient id="paint4_linear_31_5135" x1="33.5747" y1="45.8273" x2="24.4948" y2="32.1261" gradientUnits="userSpaceOnUse">
<stop stop-color="white"/>
<stop offset="1" stop-color="#DADADA"/>
</linearGradient>
<linearGradient id="paint5_linear_31_5135" x1="49.2533" y1="20.6653" x2="34.3655" y2="32.461" gradientUnits="userSpaceOnUse">
<stop stop-color="#D0D0D0"/>
<stop offset="1" stop-color="white"/>
</linearGradient>
<linearGradient id="paint6_linear_31_5135" x1="28.7617" y1="19.9832" x2="25.6622" y2="24.2603" gradientUnits="userSpaceOnUse">
<stop stop-color="#FFDC68"/>
<stop offset="1" stop-color="#CE4300"/>
</linearGradient>
<clipPath id="clip0_31_5135">
<rect width="64" height="64" fill="white"/>
</clipPath>
</defs>
</svg>
