<svg width="64" height="64" viewBox="0 0 64 64" fill="none" xmlns="http://www.w3.org/2000/svg">
<g clip-path="url(#clip0_31_5166)">
<path d="M48 0H16C7.16344 0 0 7.16344 0 16V48C0 56.8366 7.16344 64 16 64H48C56.8366 64 64 56.8366 64 48V16C64 7.16344 56.8366 0 48 0Z" fill="url(#paint0_linear_31_5166)"/>
<g filter="url(#filter0_i_31_5166)">
<path d="M48 4H16C9.37258 4 4 9.37258 4 16V48C4 54.6274 9.37258 60 16 60H48C54.6274 60 60 54.6274 60 48V16C60 9.37258 54.6274 4 48 4Z" fill="black" fill-opacity="0.7"/>
<g filter="url(#filter1_d_31_5166)">
<path d="M21.5 50.5001H24.5V15.5001C24.5 14.3955 23.6046 13.5001 22.5 13.5001H15.5C14.3954 13.5001 13.5 14.3955 13.5 15.5001V42.5001C13.5 46.9184 17.0817 50.5001 21.5 50.5001Z" fill="#FF3636"/>
<path d="M26.5 15.4999V22.4999C26.5 23.6045 27.3954 24.4999 28.5 24.4999H42.5C46.9183 24.4999 50.5 20.9182 50.5 16.4999V13.4999H28.5C27.3954 13.4999 26.5 14.3953 26.5 15.4999Z" fill="#FF3636"/>
<path d="M38.9076 31.9226L27.923 26.5951C27.26 26.2856 26.5 26.7696 26.5 27.5012V38.1561C26.5 38.8878 27.26 39.3717 27.923 39.0622L38.9076 33.7347C39.677 33.3756 39.677 32.2817 38.9076 31.9226Z" fill="#2CACE1"/>
</g>
</g>
</g>
<defs>
<filter id="filter0_i_31_5166" x="4" y="4" width="56" height="60" filterUnits="userSpaceOnUse" color-interpolation-filters="sRGB">
<feFlood flood-opacity="0" result="BackgroundImageFix"/>
<feBlend mode="normal" in="SourceGraphic" in2="BackgroundImageFix" result="shape"/>
<feColorMatrix in="SourceAlpha" type="matrix" values="0 0 0 0 0 0 0 0 0 0 0 0 0 0 0 0 0 0 127 0" result="hardAlpha"/>
<feOffset dy="4"/>
<feGaussianBlur stdDeviation="2"/>
<feComposite in2="hardAlpha" operator="arithmetic" k2="-1" k3="1"/>
<feColorMatrix type="matrix" values="0 0 0 0 0 0 0 0 0 0 0 0 0 0 0 0 0 0 0.25 0"/>
<feBlend mode="normal" in2="shape" result="effect1_innerShadow_31_5166"/>
</filter>
<filter id="filter1_d_31_5166" x="9.5" y="11.4999" width="45" height="45.0002" filterUnits="userSpaceOnUse" color-interpolation-filters="sRGB">
<feFlood flood-opacity="0" result="BackgroundImageFix"/>
<feColorMatrix in="SourceAlpha" type="matrix" values="0 0 0 0 0 0 0 0 0 0 0 0 0 0 0 0 0 0 127 0" result="hardAlpha"/>
<feOffset dy="2"/>
<feGaussianBlur stdDeviation="2"/>
<feComposite in2="hardAlpha" operator="out"/>
<feColorMatrix type="matrix" values="0 0 0 0 0 0 0 0 0 0 0 0 0 0 0 0 0 0 0.25 0"/>
<feBlend mode="normal" in2="BackgroundImageFix" result="effect1_dropShadow_31_5166"/>
<feBlend mode="normal" in="SourceGraphic" in2="effect1_dropShadow_31_5166" result="shape"/>
</filter>
<linearGradient id="paint0_linear_31_5166" x1="32" y1="0" x2="32" y2="64" gradientUnits="userSpaceOnUse">
<stop stop-color="#FF3636"/>
<stop offset="0.0001" stop-color="#FF3636"/>
<stop offset="1" stop-color="#FF2020"/>
</linearGradient>
<clipPath id="clip0_31_5166">
<rect width="64" height="64" fill="white"/>
</clipPath>
</defs>
</svg>
