<svg width="64" height="64" viewBox="0 0 64 64" fill="none" xmlns="http://www.w3.org/2000/svg">
<g clip-path="url(#clip0_31_5174)">
<path d="M48 0H16C7.16344 0 0 7.16344 0 16V48C0 56.8366 7.16344 64 16 64H48C56.8366 64 64 56.8366 64 48V16C64 7.16344 56.8366 0 48 0Z" fill="url(#paint0_linear_31_5174)"/>
<path d="M48 0H16C7.16344 0 0 7.16344 0 16V48C0 56.8366 7.16344 64 16 64H48C56.8366 64 64 56.8366 64 48V16C64 7.16344 56.8366 0 48 0Z" fill="url(#paint1_linear_31_5174)"/>
<g filter="url(#filter0_i_31_5174)">
<path d="M48 4H16C9.37258 4 4 9.37258 4 16V48C4 54.6274 9.37258 60 16 60H48C54.6274 60 60 54.6274 60 48V16C60 9.37258 54.6274 4 48 4Z" fill="black" fill-opacity="0.7"/>
<mask id="mask0_31_5174" style="mask-type:luminance" maskUnits="userSpaceOnUse" x="8" y="8" width="48" height="48">
<path d="M56 8H8V56H56V8Z" fill="white"/>
</mask>
<g mask="url(#mask0_31_5174)">
<path fill-rule="evenodd" clip-rule="evenodd" d="M49.375 39.9375C49.375 40.9799 48.903 42.012 47.9858 42.9751C47.0687 43.9381 45.7244 44.8131 44.0297 45.5502C42.3351 46.2872 40.3232 46.8719 38.109 47.2708C35.8948 47.6697 33.5216 47.875 31.125 47.875C28.7284 47.875 26.3552 47.6697 24.1411 47.2708C21.9269 46.8719 19.915 46.2872 18.2203 45.5502C16.5257 44.8131 15.1814 43.9381 14.2642 42.9751C13.3471 42.012 12.875 40.9799 12.875 39.9375C12.875 38.8951 13.3471 37.8629 14.2642 36.8999C15.1814 35.9369 16.5257 35.0619 18.2203 34.3248C19.915 33.5877 21.9269 33.0031 24.1411 32.6042C26.3552 32.2053 28.7284 32 31.125 32C33.5216 32 35.8948 32.2053 38.109 32.6042C40.3232 33.0031 42.3351 33.5877 44.0297 34.3248C45.7244 35.0619 47.0687 35.9369 47.9858 36.8999C48.903 37.8629 49.375 38.8951 49.375 39.9375Z" fill="url(#paint2_radial_31_5174)"/>
<path fill-rule="evenodd" clip-rule="evenodd" d="M18.3744 20.4679C18.3744 20.4679 21.2489 26.3955 27.9736 26.2283C42.0661 25.8748 44.5373 18.5234 44.8909 17.4627C45.2444 16.402 45.7854 16.5627 45.9105 17.543C50.5065 59.262 14.0135 41.3621 12.7175 34.2565C19.9653 32.1352 18.1976 28.0693 18.1976 28.0693L18.3744 20.4679Z" fill="#857C63" stroke="#2E3436" stroke-width="2" stroke-miterlimit="10"/>
<path fill-rule="evenodd" clip-rule="evenodd" d="M23.738 38.066C30.4769 39.4139 33.9087 38.1641 35.9172 36.6132C35.3869 35.9282 34.4809 35.1769 34.4809 35.1769C34.4809 35.1769 36.8342 35.8309 37.6629 36.9005C38.4891 37.9671 37.9697 38.6242 37.7534 39.9889C37.272 38.7903 36.3734 38.3408 36.2518 37.8645C34.4455 40.3615 29.9453 40.2577 23.738 38.066Z" fill="url(#paint3_linear_31_5174)"/>
<path fill-rule="evenodd" clip-rule="evenodd" d="M25.7109 29.3951C25.711 29.9291 25.6059 30.4579 25.4017 30.9513C25.1974 31.4448 24.8979 31.8931 24.5204 32.2708C24.1428 32.6484 23.6945 32.948 23.2012 33.1524C22.7078 33.3568 22.179 33.462 21.645 33.462C21.111 33.462 20.5822 33.3568 20.0888 33.1524C19.5955 32.948 19.1472 32.6484 18.7696 32.2708C18.3921 31.8931 18.0926 31.4448 17.8883 30.9513C17.6841 30.4579 17.579 29.9291 17.5791 29.3951C17.579 28.8611 17.6841 28.3322 17.8883 27.8388C18.0926 27.3454 18.3921 26.8971 18.7696 26.5194C19.1472 26.1418 19.5955 25.8422 20.0888 25.6378C20.5822 25.4334 21.111 25.3282 21.645 25.3282C22.179 25.3282 22.7078 25.4334 23.2012 25.6378C23.6945 25.8422 24.1428 26.1418 24.5204 26.5194C24.8979 26.8971 25.1974 27.3454 25.4017 27.8388C25.6059 28.3322 25.711 28.8611 25.7109 29.3951Z" fill="#DBDBD7" stroke="#888A85" stroke-width="2" stroke-miterlimit="10"/>
<path fill-rule="evenodd" clip-rule="evenodd" d="M17.6113 30.927C18.5577 32.2388 19.0952 33.7638 19.1057 35.1666C19.1162 36.5694 18.5987 37.735 17.6672 38.407C16.7356 39.0791 15.4663 39.2025 14.1384 38.7501C12.8105 38.2978 11.5329 37.3067 10.5866 35.9949C9.64025 34.6832 9.1027 33.1582 9.0922 31.7554C9.08175 30.3526 9.5992 29.187 10.5307 28.515C11.4623 27.8429 12.7316 27.7195 14.0595 28.1718C15.3873 28.6242 16.665 29.6153 17.6113 30.927Z" fill="url(#paint4_radial_31_5174)" stroke="black" stroke-width="2" stroke-miterlimit="10"/>
<path fill-rule="evenodd" clip-rule="evenodd" d="M24.5532 29.9974C24.5533 30.2546 24.5027 30.5092 24.4043 30.7468C24.306 30.9843 24.1618 31.2002 23.98 31.3821C23.7982 31.5639 23.5824 31.7082 23.3448 31.8066C23.1073 31.905 22.8527 31.9557 22.5956 31.9557C22.3384 31.9557 22.0838 31.905 21.8463 31.8066C21.6087 31.7082 21.3929 31.5639 21.2111 31.3821C21.0293 31.2002 20.8851 30.9843 20.7868 30.7468C20.6884 30.5092 20.6378 30.2546 20.6379 29.9974C20.6378 29.7403 20.6884 29.4857 20.7868 29.2481C20.8851 29.0105 21.0293 28.7946 21.2111 28.6128C21.3929 28.431 21.6087 28.2867 21.8463 28.1883C22.0838 28.0899 22.3384 28.0392 22.5956 28.0392C22.8527 28.0392 23.1073 28.0899 23.3448 28.1883C23.5824 28.2867 23.7982 28.431 23.98 28.6128C24.1618 28.7946 24.306 29.0105 24.4043 29.2481C24.5027 29.4857 24.5533 29.7403 24.5532 29.9974Z" fill="#2E3436" stroke="black" stroke-width="2" stroke-miterlimit="10"/>
<path opacity="0.280899" fill-rule="evenodd" clip-rule="evenodd" d="M10.8854 29.4084C10.2465 29.8869 9.90977 30.6966 9.94012 31.7953C9.97047 32.894 10.4041 34.2392 11.294 35.4274C12.184 36.6156 13.353 37.4101 14.3988 37.7482C15.4446 38.0863 16.3163 37.9909 16.9552 37.5123C17.5941 37.0338 17.932 36.1855 17.9068 35.0817C17.8815 33.9779 17.4596 32.6602 16.5716 31.4746C15.6836 30.289 14.5377 29.5135 13.4856 29.1788C12.4335 28.8441 11.5243 28.9299 10.8854 29.4084Z" stroke="url(#paint5_linear_31_5174)" stroke-width="2" stroke-miterlimit="10"/>
<path fill-rule="evenodd" clip-rule="evenodd" d="M13.8338 31.2513C13.8339 31.5299 13.7882 31.8058 13.6994 32.0632C13.6106 32.3207 13.4804 32.5546 13.3162 32.7516C13.1521 32.9487 12.9572 33.105 12.7427 33.2116C12.5282 33.3182 12.2983 33.3731 12.0661 33.3731C11.8339 33.3731 11.604 33.3182 11.3895 33.2116C11.175 33.105 10.9801 32.9487 10.8159 32.7516C10.6518 32.5546 10.5216 32.3207 10.4328 32.0632C10.3439 31.8058 10.2983 31.5299 10.2983 31.2513C10.2983 30.9727 10.3439 30.6968 10.4328 30.4393C10.5216 30.1819 10.6518 29.948 10.8159 29.751C10.9801 29.5539 11.175 29.3976 11.3895 29.291C11.604 29.1844 11.8339 29.1295 12.0661 29.1295C12.2983 29.1295 12.5282 29.1844 12.7427 29.291C12.9572 29.3976 13.1521 29.5539 13.3162 29.751C13.4804 29.948 13.6106 30.1819 13.6994 30.4393C13.7882 30.6968 13.8339 30.9727 13.8338 31.2513Z" fill="white"/>
<path fill-rule="evenodd" clip-rule="evenodd" d="M23.1979 29.0939C23.1979 29.4533 23.0551 29.7981 22.8009 30.0522C22.5468 30.3064 22.2021 30.4492 21.8426 30.4492C21.4832 30.4492 21.1384 30.3064 20.8843 30.0522C20.6301 29.7981 20.4873 29.4533 20.4873 29.0939C20.4873 28.7344 20.6301 28.3897 20.8843 28.1356C21.1384 27.8814 21.4832 27.7386 21.8426 27.7386C22.2021 27.7386 22.5468 27.8814 22.8009 28.1356C23.0551 28.3897 23.1979 28.7344 23.1979 29.0939Z" fill="white"/>
<path fill-rule="evenodd" clip-rule="evenodd" d="M34.8147 29.8371C34.8149 30.464 34.6915 31.0848 34.4517 31.664C34.2119 32.2432 33.8604 32.7695 33.4172 33.2128C32.9739 33.6562 32.4477 34.0079 31.8686 34.2478C31.2894 34.4877 30.6686 34.6112 30.0417 34.6112C29.4149 34.6112 28.7941 34.4877 28.2149 34.2478C27.6358 34.0079 27.1096 33.6562 26.6663 33.2128C26.2231 32.7695 25.8716 32.2432 25.6318 31.664C25.392 31.0848 25.2686 30.464 25.2688 29.8371C25.2686 29.2102 25.392 28.5894 25.6318 28.0102C25.8716 27.4309 26.2231 26.9046 26.6663 26.4613C27.1096 26.018 27.6358 25.6663 28.2149 25.4263C28.7941 25.1864 29.4149 25.0629 30.0417 25.0629C30.6686 25.0629 31.2894 25.1864 31.8686 25.4263C32.4477 25.6663 32.9739 26.018 33.4172 26.4613C33.8604 26.9046 34.2119 27.4309 34.4517 28.0102C34.6915 28.5894 34.8149 29.2102 34.8147 29.8371Z" fill="#DBDBD7" stroke="#888A85" stroke-width="2" stroke-miterlimit="10"/>
<path fill-rule="evenodd" clip-rule="evenodd" d="M33.4561 30.5442C33.4562 30.846 33.3968 31.1449 33.2813 31.4238C33.1659 31.7027 32.9966 31.9561 32.7832 32.1696C32.5698 32.3831 32.3164 32.5524 32.0376 32.668C31.7587 32.7835 31.4598 32.843 31.158 32.843C30.8561 32.843 30.5572 32.7835 30.2784 32.668C29.9995 32.5524 29.7462 32.3831 29.5327 32.1696C29.3193 31.9561 29.1501 31.7027 29.0346 31.4238C28.9192 31.1449 28.8598 30.846 28.8599 30.5442C28.8598 30.2423 28.9192 29.9434 29.0346 29.6645C29.1501 29.3856 29.3193 29.1322 29.5327 28.9187C29.7462 28.7053 29.9995 28.5359 30.2784 28.4204C30.5572 28.3049 30.8561 28.2454 31.158 28.2454C31.4598 28.2454 31.7587 28.3049 32.0376 28.4204C32.3164 28.5359 32.5698 28.7053 32.7832 28.9187C32.9966 29.1322 33.1659 29.3856 33.2813 29.6645C33.3968 29.9434 33.4562 30.2423 33.4561 30.5442Z" fill="#2E3436" stroke="black" stroke-width="2" stroke-miterlimit="10"/>
<path fill-rule="evenodd" clip-rule="evenodd" d="M31.8651 29.4835C31.8651 29.9055 31.6975 30.3101 31.3991 30.6085C31.1008 30.9069 30.6961 31.0745 30.2741 31.0745C29.8522 31.0745 29.4475 30.9069 29.1491 30.6085C28.8508 30.3101 28.6831 29.9055 28.6831 29.4835C28.6831 29.0616 28.8508 28.6569 29.1491 28.3585C29.4475 28.0601 29.8522 27.8925 30.2741 27.8925C30.6961 27.8925 31.1008 28.0601 31.3991 28.3585C31.6975 28.6569 31.8651 29.0616 31.8651 29.4835Z" fill="white"/>
<path d="M44.5869 44.0915L45.5133 42.2466C42.067 39.7252 35.714 37.8907 35.714 37.8907C34.6128 37.3777 34.2652 38.367 35.0278 39.0101C35.0278 39.0101 40.4609 42.9051 44.5869 44.0915Z" fill="url(#paint6_linear_31_5174)" stroke="#673907" stroke-width="2" stroke-linecap="round"/>
<path d="M49.0052 45.792L49.5011 44.6941L45.6536 42.2292L45.3468 42.203L45.2142 41.7784C44.6553 42.1284 43.8431 43.4286 44.0584 44.1596L44.474 44.0025L44.6991 44.22L49.0052 45.792Z" fill="url(#paint7_linear_31_5174)" stroke="#888A85" stroke-width="2" stroke-linecap="round"/>
<path d="M46.512 43.7096L49.0665 44.8064" stroke="white" stroke-width="2" stroke-linecap="round" stroke-linejoin="round"/>
<path d="M54.5971 50.454C53.3976 46.3824 52.9721 43.1495 49.8374 43.4372C47.3112 43.669 47.1344 47.2886 49.7448 48.2874C52.2596 49.2495 54.5971 50.454 54.5971 50.454Z" fill="url(#paint8_radial_31_5174)"/>
<path opacity="0.527778" d="M50.0249 43.767C50.1574 43.728 50.2964 43.7154 50.4334 43.73C50.5709 43.7446 50.7039 43.7861 50.8254 43.8522C50.9469 43.9183 51.0539 44.0076 51.1404 44.1151C51.2274 44.2225 51.2919 44.346 51.3309 44.4785C51.3699 44.611 51.3829 44.7499 51.3679 44.8872C51.3534 45.0246 51.3119 45.1577 51.2459 45.279C51.1794 45.4002 51.0904 45.5073 50.9829 45.5941C50.8754 45.6808 50.7519 45.7455 50.6194 45.7845C50.4869 45.8236 50.3479 45.8362 50.2104 45.8215C50.0734 45.8069 49.9401 45.7654 49.8188 45.6993C49.6975 45.6333 49.5904 45.5439 49.5037 45.4365C49.4169 45.329 49.3521 45.2055 49.3131 45.073C49.2741 44.9405 49.2615 44.8017 49.2762 44.6643C49.2908 44.527 49.3324 44.3939 49.3985 44.2726C49.4646 44.1513 49.554 44.0442 49.6614 43.9575C49.7689 43.8708 49.8925 43.806 50.0249 43.767Z" fill="white"/>
<path d="M45.4399 42.2706C45.5293 42.2442 45.623 42.2358 45.7157 42.2456C45.8083 42.2555 45.8982 42.2835 45.98 42.3281C46.0618 42.3727 46.1341 42.4329 46.1927 42.5054C46.2512 42.5779 46.2949 42.6613 46.3212 42.7507C46.3476 42.8401 46.356 42.9338 46.3461 43.0265C46.3363 43.1191 46.3082 43.2089 46.2636 43.2908C46.219 43.3726 46.1587 43.4448 46.0862 43.5034C46.0137 43.5619 45.9303 43.6056 45.8409 43.6319C45.7515 43.6582 45.6578 43.6667 45.5651 43.6569C45.4725 43.647 45.3826 43.619 45.3008 43.5744C45.219 43.5298 45.1467 43.4696 45.0881 43.3971C45.0296 43.3245 44.9859 43.2412 44.9596 43.1518C44.9332 43.0624 44.9248 42.9687 44.9347 42.876C44.9445 42.7834 44.9726 42.6935 45.0172 42.6117C45.0618 42.5299 45.1221 42.4576 45.1946 42.3991C45.2671 42.3406 45.3505 42.2969 45.4399 42.2706Z" fill="white"/>
<path opacity="0.427778" d="M53.091 48.0178C53.091 48.0178 52.7 46.556 51.838 45.7953C51.5325 45.5262 51.917 45.1297 52.205 45.4779C52.827 46.23 53.091 48.0178 53.091 48.0178Z" fill="url(#paint9_linear_31_5174)"/>
<path fill-rule="evenodd" clip-rule="evenodd" d="M31.0032 39.7365C32.5006 39.8796 33.8528 39.4643 34.4151 39.2625C34.5133 38.7071 34.9516 37.6412 36.4612 37.571L35.9308 36.6429C35.9308 36.6429 33.9642 37.9908 31.865 38.3886L31.0032 39.7365Z" fill="url(#paint10_linear_31_5174)"/>
</g>
</g>
</g>
<defs>
<filter id="filter0_i_31_5174" x="4" y="4" width="56" height="60" filterUnits="userSpaceOnUse" color-interpolation-filters="sRGB">
<feFlood flood-opacity="0" result="BackgroundImageFix"/>
<feBlend mode="normal" in="SourceGraphic" in2="BackgroundImageFix" result="shape"/>
<feColorMatrix in="SourceAlpha" type="matrix" values="0 0 0 0 0 0 0 0 0 0 0 0 0 0 0 0 0 0 127 0" result="hardAlpha"/>
<feOffset dy="4"/>
<feGaussianBlur stdDeviation="2"/>
<feComposite in2="hardAlpha" operator="arithmetic" k2="-1" k3="1"/>
<feColorMatrix type="matrix" values="0 0 0 0 0 0 0 0 0 0 0 0 0 0 0 0 0 0 0.25 0"/>
<feBlend mode="normal" in2="shape" result="effect1_innerShadow_31_5174"/>
</filter>
<linearGradient id="paint0_linear_31_5174" x1="31.8054" y1="64.049" x2="31.8054" y2="-0.0414518" gradientUnits="userSpaceOnUse">
<stop stop-color="#2CA0B9"/>
<stop offset="1" stop-color="#87DEAA"/>
</linearGradient>
<linearGradient id="paint1_linear_31_5174" x1="32" y1="0" x2="32" y2="64" gradientUnits="userSpaceOnUse">
<stop stop-color="#857C63"/>
<stop offset="1" stop-color="#3E382D"/>
</linearGradient>
<radialGradient id="paint2_radial_31_5174" cx="0" cy="0" r="1" gradientUnits="userSpaceOnUse" gradientTransform="translate(31.125 39.9375) scale(18.25 7.9375)">
<stop/>
<stop offset="1" stop-opacity="0"/>
</radialGradient>
<linearGradient id="paint3_linear_31_5174" x1="36.5138" y1="36.4293" x2="25.3769" y2="38.639" gradientUnits="userSpaceOnUse">
<stop/>
<stop offset="1" stop-opacity="0"/>
</linearGradient>
<radialGradient id="paint4_radial_31_5174" cx="0" cy="0" r="1" gradientUnits="userSpaceOnUse" gradientTransform="translate(12.4739 31.336) rotate(-30) scale(4.44883 5.1925)">
<stop stop-color="#5B676B"/>
<stop offset="1" stop-color="#141718"/>
</radialGradient>
<linearGradient id="paint5_linear_31_5174" x1="11.7777" y1="30.2471" x2="16.4415" y2="37.0085" gradientUnits="userSpaceOnUse">
<stop stop-color="white"/>
<stop offset="1" stop-color="white" stop-opacity="0"/>
</linearGradient>
<linearGradient id="paint6_linear_31_5174" x1="42.3593" y1="40.0544" x2="40.2819" y2="44.5915" gradientUnits="userSpaceOnUse">
<stop stop-color="#6E3D09"/>
<stop offset="0.242424" stop-color="#EA8113"/>
<stop offset="0.621212" stop-color="#5C3307"/>
<stop offset="1" stop-color="#E07C12"/>
</linearGradient>
<linearGradient id="paint7_linear_31_5174" x1="46.811" y1="44.9819" x2="47.7245" y2="43.1389" gradientUnits="userSpaceOnUse">
<stop stop-color="#BDBDBD"/>
<stop offset="0.333333" stop-color="#E2E2E2"/>
<stop offset="0.666667" stop-color="#A3A3A3"/>
<stop offset="1" stop-color="#DDDDDD"/>
</linearGradient>
<radialGradient id="paint8_radial_31_5174" cx="0" cy="0" r="1" gradientUnits="userSpaceOnUse" gradientTransform="translate(49.0891 46.0528) rotate(-106.415) scale(4.84451 4.72113)">
<stop stop-color="#696969"/>
<stop offset="1"/>
</radialGradient>
<linearGradient id="paint9_linear_31_5174" x1="51.957" y1="45.0854" x2="53.127" y2="47.2538" gradientUnits="userSpaceOnUse">
<stop stop-color="white"/>
<stop offset="1" stop-color="white" stop-opacity="0"/>
</linearGradient>
<linearGradient id="paint10_linear_31_5174" x1="34.1631" y1="38.5433" x2="32.329" y2="38.9852" gradientUnits="userSpaceOnUse">
<stop/>
<stop offset="1" stop-opacity="0"/>
</linearGradient>
<clipPath id="clip0_31_5174">
<rect width="64" height="64" fill="white"/>
</clipPath>
</defs>
</svg>
