<svg width="64" height="64" viewBox="0 0 64 64" fill="none" xmlns="http://www.w3.org/2000/svg">
<g clip-path="url(#clip0_31_5224)">
<path d="M48 0H16C7.16344 0 0 7.16344 0 16V48C0 56.8366 7.16344 64 16 64H48C56.8366 64 64 56.8366 64 48V16C64 7.16344 56.8366 0 48 0Z" fill="url(#paint0_linear_31_5224)"/>
<g filter="url(#filter0_i_31_5224)">
<path d="M48 4H16C9.37258 4 4 9.37258 4 16V48C4 54.6274 9.37258 60 16 60H48C54.6274 60 60 54.6274 60 48V16C60 9.37258 54.6274 4 48 4Z" fill="black" fill-opacity="0.7"/>
<mask id="mask0_31_5224" style="mask-type:luminance" maskUnits="userSpaceOnUse" x="8" y="8" width="48" height="48">
<path d="M56 8H8V56H56V8Z" fill="white"/>
</mask>
<g mask="url(#mask0_31_5224)">
<g filter="url(#filter1_d_31_5224)">
<path d="M48.7128 27.0309L53.9428 38.6286L44.9917 53.943L39.4785 40.5577L48.7128 27.0309Z" fill="url(#paint1_linear_31_5224)"/>
</g>
<g filter="url(#filter2_d_31_5224)">
<path d="M39.4787 40.5577L44.9918 53.943L31.1221 49.1749L39.4787 40.5577Z" fill="#B74AF7"/>
</g>
<g filter="url(#filter3_d_31_5224)">
<path d="M40.9737 22.4502L38.1302 10.0571H22.3634L10.0571 28.8822L13.6182 37.5314L10.0571 45.4262L35.5428 23.744L40.9737 22.4502Z" fill="url(#paint2_linear_31_5224)"/>
</g>
<g filter="url(#filter4_d_31_5224)">
<path d="M53.943 19.3737L35.5428 23.744L10.0571 45.4263L26.496 53.943L39.4788 40.5577L53.943 19.3737Z" fill="url(#paint3_linear_31_5224)"/>
</g>
<g filter="url(#filter5_d_31_5224)">
<path d="M18.2856 18.2857H45.7142V45.7143H18.2856V18.2857Z" fill="black"/>
</g>
<path d="M20.8594 40.5714H31.1451V42.2857H20.8594V40.5714Z" fill="white"/>
<path d="M20.0869 27.5702V27.5382C20.0843 26.7637 20.2367 25.9966 20.535 25.2819C20.8334 24.5672 21.2717 23.9195 21.8242 23.3768C22.3767 22.8341 23.0322 22.4074 23.7521 22.1219C24.472 21.8363 25.2418 21.6977 26.0161 21.7142C27.6445 21.6284 29.2415 22.1848 30.4641 23.2639L28.8961 25.1565C28.1011 24.3963 27.0381 23.9806 25.9384 23.9999C24.1098 23.9999 22.6881 25.5999 22.6881 27.5199V27.5519C22.6881 29.6228 24.1098 31.1405 26.1166 31.1405C26.949 31.165 27.7679 30.9266 28.4572 30.4593V28.8319H25.9521V26.6833H30.8572V31.593C29.5164 32.7559 27.8 33.3942 26.0252 33.3897C22.5098 33.3897 20.0869 30.9165 20.0869 27.5702Z" fill="white"/>
<path d="M31.9087 27.5703V27.5383C31.9113 26.7567 32.0707 25.9837 32.3772 25.2648C32.6838 24.5459 33.1314 23.8957 33.6935 23.3528C34.2556 22.8098 34.9209 22.3851 35.65 22.1037C36.3791 21.8222 37.1572 21.6898 37.9384 21.7143C41.4264 21.7143 43.9315 24.3154 43.9315 27.5291V27.5611C43.9325 28.3446 43.776 29.1202 43.4714 29.842C43.1667 30.5638 42.7201 31.217 42.1581 31.7628C41.5961 32.3086 40.9301 32.7359 40.1997 33.0193C39.4693 33.3027 38.6895 33.4364 37.9064 33.4125C34.4138 33.3897 31.9087 30.7885 31.9087 27.5703ZM41.3304 27.5703V27.5383C41.3444 27.0794 41.2663 26.6224 41.1007 26.1943C40.935 25.7661 40.6852 25.3756 40.366 25.0457C40.0467 24.7158 39.6646 24.4533 39.2421 24.2737C38.8196 24.094 38.3654 24.001 37.9064 24C37.4508 23.9984 36.9996 24.089 36.5798 24.2661C36.1601 24.4432 35.7804 24.7033 35.4636 25.0307C35.1469 25.3582 34.8995 25.7462 34.7364 26.1716C34.5733 26.597 34.4978 27.051 34.5144 27.5063V27.5383C34.4984 27.9988 34.5753 28.4579 34.7403 28.8882C34.9054 29.3185 35.1552 29.7112 35.4751 30.043C35.7949 30.3748 36.1782 30.6389 36.6022 30.8196C37.0261 31.0003 37.4821 31.0939 37.943 31.0948C38.3998 31.0959 38.852 31.0043 39.2725 30.8258C39.693 30.6473 40.073 30.3855 40.3895 30.0561C40.7061 29.7267 40.9526 29.3367 41.1143 28.9095C41.276 28.4822 41.3495 28.0267 41.3304 27.5703Z" fill="white"/>
</g>
</g>
</g>
<defs>
<filter id="filter0_i_31_5224" x="4" y="4" width="56" height="60" filterUnits="userSpaceOnUse" color-interpolation-filters="sRGB">
<feFlood flood-opacity="0" result="BackgroundImageFix"/>
<feBlend mode="normal" in="SourceGraphic" in2="BackgroundImageFix" result="shape"/>
<feColorMatrix in="SourceAlpha" type="matrix" values="0 0 0 0 0 0 0 0 0 0 0 0 0 0 0 0 0 0 127 0" result="hardAlpha"/>
<feOffset dy="4"/>
<feGaussianBlur stdDeviation="2"/>
<feComposite in2="hardAlpha" operator="arithmetic" k2="-1" k3="1"/>
<feColorMatrix type="matrix" values="0 0 0 0 0 0 0 0 0 0 0 0 0 0 0 0 0 0 0.25 0"/>
<feBlend mode="normal" in2="shape" result="effect1_innerShadow_31_5224"/>
</filter>
<filter id="filter1_d_31_5224" x="35.4785" y="25.0309" width="22.4644" height="34.9121" filterUnits="userSpaceOnUse" color-interpolation-filters="sRGB">
<feFlood flood-opacity="0" result="BackgroundImageFix"/>
<feColorMatrix in="SourceAlpha" type="matrix" values="0 0 0 0 0 0 0 0 0 0 0 0 0 0 0 0 0 0 127 0" result="hardAlpha"/>
<feOffset dy="2"/>
<feGaussianBlur stdDeviation="2"/>
<feComposite in2="hardAlpha" operator="out"/>
<feColorMatrix type="matrix" values="0 0 0 0 0 0 0 0 0 0 0 0 0 0 0 0 0 0 0.25 0"/>
<feBlend mode="normal" in2="BackgroundImageFix" result="effect1_dropShadow_31_5224"/>
<feBlend mode="normal" in="SourceGraphic" in2="effect1_dropShadow_31_5224" result="shape"/>
</filter>
<filter id="filter2_d_31_5224" x="27.1221" y="38.5577" width="21.8696" height="21.3853" filterUnits="userSpaceOnUse" color-interpolation-filters="sRGB">
<feFlood flood-opacity="0" result="BackgroundImageFix"/>
<feColorMatrix in="SourceAlpha" type="matrix" values="0 0 0 0 0 0 0 0 0 0 0 0 0 0 0 0 0 0 127 0" result="hardAlpha"/>
<feOffset dy="2"/>
<feGaussianBlur stdDeviation="2"/>
<feComposite in2="hardAlpha" operator="out"/>
<feColorMatrix type="matrix" values="0 0 0 0 0 0 0 0 0 0 0 0 0 0 0 0 0 0 0.25 0"/>
<feBlend mode="normal" in2="BackgroundImageFix" result="effect1_dropShadow_31_5224"/>
<feBlend mode="normal" in="SourceGraphic" in2="effect1_dropShadow_31_5224" result="shape"/>
</filter>
<filter id="filter3_d_31_5224" x="6.05713" y="8.05713" width="38.9165" height="43.3691" filterUnits="userSpaceOnUse" color-interpolation-filters="sRGB">
<feFlood flood-opacity="0" result="BackgroundImageFix"/>
<feColorMatrix in="SourceAlpha" type="matrix" values="0 0 0 0 0 0 0 0 0 0 0 0 0 0 0 0 0 0 127 0" result="hardAlpha"/>
<feOffset dy="2"/>
<feGaussianBlur stdDeviation="2"/>
<feComposite in2="hardAlpha" operator="out"/>
<feColorMatrix type="matrix" values="0 0 0 0 0 0 0 0 0 0 0 0 0 0 0 0 0 0 0.25 0"/>
<feBlend mode="normal" in2="BackgroundImageFix" result="effect1_dropShadow_31_5224"/>
<feBlend mode="normal" in="SourceGraphic" in2="effect1_dropShadow_31_5224" result="shape"/>
</filter>
<filter id="filter4_d_31_5224" x="6.05713" y="17.3737" width="51.8857" height="42.5693" filterUnits="userSpaceOnUse" color-interpolation-filters="sRGB">
<feFlood flood-opacity="0" result="BackgroundImageFix"/>
<feColorMatrix in="SourceAlpha" type="matrix" values="0 0 0 0 0 0 0 0 0 0 0 0 0 0 0 0 0 0 127 0" result="hardAlpha"/>
<feOffset dy="2"/>
<feGaussianBlur stdDeviation="2"/>
<feComposite in2="hardAlpha" operator="out"/>
<feColorMatrix type="matrix" values="0 0 0 0 0 0 0 0 0 0 0 0 0 0 0 0 0 0 0.25 0"/>
<feBlend mode="normal" in2="BackgroundImageFix" result="effect1_dropShadow_31_5224"/>
<feBlend mode="normal" in="SourceGraphic" in2="effect1_dropShadow_31_5224" result="shape"/>
</filter>
<filter id="filter5_d_31_5224" x="14.2856" y="16.2857" width="35.4287" height="35.4286" filterUnits="userSpaceOnUse" color-interpolation-filters="sRGB">
<feFlood flood-opacity="0" result="BackgroundImageFix"/>
<feColorMatrix in="SourceAlpha" type="matrix" values="0 0 0 0 0 0 0 0 0 0 0 0 0 0 0 0 0 0 127 0" result="hardAlpha"/>
<feOffset dy="2"/>
<feGaussianBlur stdDeviation="2"/>
<feComposite in2="hardAlpha" operator="out"/>
<feColorMatrix type="matrix" values="0 0 0 0 0 0 0 0 0 0 0 0 0 0 0 0 0 0 0.25 0"/>
<feBlend mode="normal" in2="BackgroundImageFix" result="effect1_dropShadow_31_5224"/>
<feBlend mode="normal" in="SourceGraphic" in2="effect1_dropShadow_31_5224" result="shape"/>
</filter>
<linearGradient id="paint0_linear_31_5224" x1="32" y1="0" x2="32" y2="64" gradientUnits="userSpaceOnUse">
<stop stop-color="#3BEA62"/>
<stop offset="0.510417" stop-color="#087CFA"/>
<stop offset="1" stop-color="#B74AF7"/>
</linearGradient>
<linearGradient id="paint1_linear_31_5224" x1="53.2708" y1="35.0537" x2="36.1322" y2="49.5589" gradientUnits="userSpaceOnUse">
<stop stop-color="#087CFA"/>
<stop offset="0.02" stop-color="#0D7BFA"/>
<stop offset="0.37" stop-color="#5566F9"/>
<stop offset="0.66" stop-color="#8A57F8"/>
<stop offset="0.88" stop-color="#AB4EF7"/>
<stop offset="1" stop-color="#B74AF7"/>
</linearGradient>
<linearGradient id="paint2_linear_31_5224" x1="25.1611" y1="23.6617" x2="35.5794" y2="11.808" gradientUnits="userSpaceOnUse">
<stop stop-color="#087CFA"/>
<stop offset="0.02" stop-color="#0D7BFA"/>
<stop offset="0.37" stop-color="#5566F9"/>
<stop offset="0.66" stop-color="#8A57F8"/>
<stop offset="0.88" stop-color="#AB4EF7"/>
<stop offset="1" stop-color="#B74AF7"/>
</linearGradient>
<linearGradient id="paint3_linear_31_5224" x1="16.1554" y1="48.3931" x2="47.8125" y2="28.0503" gradientUnits="userSpaceOnUse">
<stop stop-color="#087CFA"/>
<stop offset="0.1" stop-color="#1598D3"/>
<stop offset="0.22" stop-color="#23B6AA"/>
<stop offset="0.35" stop-color="#2DCC8B"/>
<stop offset="0.46" stop-color="#35DD74"/>
<stop offset="0.57" stop-color="#39E767"/>
<stop offset="0.67" stop-color="#3BEA62"/>
</linearGradient>
<clipPath id="clip0_31_5224">
<rect width="64" height="64" fill="white"/>
</clipPath>
</defs>
</svg>
