<svg width="64" height="64" viewBox="0 0 64 64" fill="none" xmlns="http://www.w3.org/2000/svg">
<g clip-path="url(#clip0_31_5245)">
<path d="M48 0H16C7.16344 0 0 7.16344 0 16V48C0 56.8366 7.16344 64 16 64H48C56.8366 64 64 56.8366 64 48V16C64 7.16344 56.8366 0 48 0Z" fill="#FF0045"/>
<path d="M48 0H16C7.16344 0 0 7.16344 0 16V48C0 56.8366 7.16344 64 16 64H48C56.8366 64 64 56.8366 64 48V16C64 7.16344 56.8366 0 48 0Z" fill="url(#paint0_radial_31_5245)"/>
<path d="M48 0H16C7.16344 0 0 7.16344 0 16V48C0 56.8366 7.16344 64 16 64H48C56.8366 64 64 56.8366 64 48V16C64 7.16344 56.8366 0 48 0Z" fill="url(#paint1_radial_31_5245)"/>
<g filter="url(#filter0_i_31_5245)">
<path d="M48 4H16C9.37258 4 4 9.37258 4 16V48C4 54.6274 9.37258 60 16 60H48C54.6274 60 60 54.6274 60 48V16C60 9.37258 54.6274 4 48 4Z" fill="black" fill-opacity="0.7"/>
<mask id="mask0_31_5245" style="mask-type:luminance" maskUnits="userSpaceOnUse" x="12" y="12" width="40" height="40">
<path d="M52 12H12V52H52V12Z" fill="white"/>
</mask>
<g mask="url(#mask0_31_5245)">
<g filter="url(#filter1_d_31_5245)">
<path d="M32 15.605C37.34 15.605 37.9734 15.625 40.0834 15.7217C45.5034 15.9684 48.035 18.54 48.2817 23.92C48.3784 26.0284 48.3966 26.6617 48.3966 32.0017C48.3966 37.3434 48.3767 37.975 48.2817 40.0834C48.0334 45.4584 45.5084 48.035 40.0834 48.2817C37.9734 48.3784 37.3433 48.3983 32 48.3983C26.66 48.3983 26.0267 48.3784 23.9184 48.2817C18.485 48.0334 15.9667 45.45 15.72 40.0816C15.6234 37.9733 15.6033 37.3417 15.6033 32C15.6033 26.66 15.625 26.0284 15.72 23.9184C15.9684 18.54 18.4934 15.9667 23.9184 15.72C26.0284 15.625 26.66 15.605 32 15.605ZM32 12C26.5683 12 25.8883 12.0233 23.755 12.12C16.4916 12.4533 12.455 16.4833 12.1216 23.7533C12.0233 25.8883 12 26.5683 12 32C12 37.4317 12.0233 38.1134 12.12 40.2467C12.4533 47.51 16.4833 51.5465 23.7533 51.88C25.8883 51.9765 26.5683 52 32 52C37.4317 52 38.1134 51.9765 40.2467 51.88C47.5034 51.5465 51.55 47.5167 51.8785 40.2467C51.9765 38.1134 52 37.4317 52 32C52 26.5683 51.9765 25.8883 51.88 23.755C51.5535 16.4983 47.5183 12.455 40.2483 12.1216C38.1133 12.0233 37.4317 12 32 12ZM32 21.73C26.3284 21.73 21.73 26.3284 21.73 32C21.73 37.6716 26.3284 42.2716 32 42.2716C37.6716 42.2716 42.27 37.6733 42.27 32C42.27 26.3284 37.6716 21.73 32 21.73ZM32 38.6666C28.3184 38.6666 25.3333 35.6834 25.3333 32C25.3333 28.3184 28.3184 25.3333 32 25.3333C35.6816 25.3333 38.6666 28.3184 38.6666 32C38.6666 35.6834 35.6816 38.6666 32 38.6666ZM42.6767 18.925C41.35 18.925 40.275 20 40.275 21.325C40.275 22.65 41.35 23.725 42.6767 23.725C44.0017 23.725 45.075 22.65 45.075 21.325C45.075 20 44.0017 18.925 42.6767 18.925Z" fill="white"/>
<path d="M32 15.605C37.34 15.605 37.9734 15.625 40.0834 15.7217C45.5034 15.9684 48.035 18.54 48.2817 23.92C48.3784 26.0284 48.3966 26.6617 48.3966 32.0017C48.3966 37.3434 48.3767 37.975 48.2817 40.0834C48.0334 45.4584 45.5084 48.035 40.0834 48.2817C37.9734 48.3784 37.3433 48.3983 32 48.3983C26.66 48.3983 26.0267 48.3784 23.9184 48.2817C18.485 48.0334 15.9667 45.45 15.72 40.0816C15.6234 37.9733 15.6033 37.3417 15.6033 32C15.6033 26.66 15.625 26.0284 15.72 23.9184C15.9684 18.54 18.4934 15.9667 23.9184 15.72C26.0284 15.625 26.66 15.605 32 15.605ZM32 12C26.5683 12 25.8883 12.0233 23.755 12.12C16.4916 12.4533 12.455 16.4833 12.1216 23.7533C12.0233 25.8883 12 26.5683 12 32C12 37.4317 12.0233 38.1134 12.12 40.2467C12.4533 47.51 16.4833 51.5465 23.7533 51.88C25.8883 51.9765 26.5683 52 32 52C37.4317 52 38.1134 51.9765 40.2467 51.88C47.5034 51.5465 51.55 47.5167 51.8785 40.2467C51.9765 38.1134 52 37.4317 52 32C52 26.5683 51.9765 25.8883 51.88 23.755C51.5535 16.4983 47.5183 12.455 40.2483 12.1216C38.1133 12.0233 37.4317 12 32 12ZM32 21.73C26.3284 21.73 21.73 26.3284 21.73 32C21.73 37.6716 26.3284 42.2716 32 42.2716C37.6716 42.2716 42.27 37.6733 42.27 32C42.27 26.3284 37.6716 21.73 32 21.73ZM32 38.6666C28.3184 38.6666 25.3333 35.6834 25.3333 32C25.3333 28.3184 28.3184 25.3333 32 25.3333C35.6816 25.3333 38.6666 28.3184 38.6666 32C38.6666 35.6834 35.6816 38.6666 32 38.6666ZM42.6767 18.925C41.35 18.925 40.275 20 40.275 21.325C40.275 22.65 41.35 23.725 42.6767 23.725C44.0017 23.725 45.075 22.65 45.075 21.325C45.075 20 44.0017 18.925 42.6767 18.925Z" fill="#FF0045"/>
<path d="M32 15.605C37.34 15.605 37.9734 15.625 40.0834 15.7217C45.5034 15.9684 48.035 18.54 48.2817 23.92C48.3784 26.0284 48.3966 26.6617 48.3966 32.0017C48.3966 37.3434 48.3767 37.975 48.2817 40.0834C48.0334 45.4584 45.5084 48.035 40.0834 48.2817C37.9734 48.3784 37.3433 48.3983 32 48.3983C26.66 48.3983 26.0267 48.3784 23.9184 48.2817C18.485 48.0334 15.9667 45.45 15.72 40.0816C15.6234 37.9733 15.6033 37.3417 15.6033 32C15.6033 26.66 15.625 26.0284 15.72 23.9184C15.9684 18.54 18.4934 15.9667 23.9184 15.72C26.0284 15.625 26.66 15.605 32 15.605ZM32 12C26.5683 12 25.8883 12.0233 23.755 12.12C16.4916 12.4533 12.455 16.4833 12.1216 23.7533C12.0233 25.8883 12 26.5683 12 32C12 37.4317 12.0233 38.1134 12.12 40.2467C12.4533 47.51 16.4833 51.5465 23.7533 51.88C25.8883 51.9765 26.5683 52 32 52C37.4317 52 38.1134 51.9765 40.2467 51.88C47.5034 51.5465 51.55 47.5167 51.8785 40.2467C51.9765 38.1134 52 37.4317 52 32C52 26.5683 51.9765 25.8883 51.88 23.755C51.5535 16.4983 47.5183 12.455 40.2483 12.1216C38.1133 12.0233 37.4317 12 32 12ZM32 21.73C26.3284 21.73 21.73 26.3284 21.73 32C21.73 37.6716 26.3284 42.2716 32 42.2716C37.6716 42.2716 42.27 37.6733 42.27 32C42.27 26.3284 37.6716 21.73 32 21.73ZM32 38.6666C28.3184 38.6666 25.3333 35.6834 25.3333 32C25.3333 28.3184 28.3184 25.3333 32 25.3333C35.6816 25.3333 38.6666 28.3184 38.6666 32C38.6666 35.6834 35.6816 38.6666 32 38.6666ZM42.6767 18.925C41.35 18.925 40.275 20 40.275 21.325C40.275 22.65 41.35 23.725 42.6767 23.725C44.0017 23.725 45.075 22.65 45.075 21.325C45.075 20 44.0017 18.925 42.6767 18.925Z" fill="url(#paint2_radial_31_5245)"/>
<path d="M32 15.605C37.34 15.605 37.9734 15.625 40.0834 15.7217C45.5034 15.9684 48.035 18.54 48.2817 23.92C48.3784 26.0284 48.3966 26.6617 48.3966 32.0017C48.3966 37.3434 48.3767 37.975 48.2817 40.0834C48.0334 45.4584 45.5084 48.035 40.0834 48.2817C37.9734 48.3784 37.3433 48.3983 32 48.3983C26.66 48.3983 26.0267 48.3784 23.9184 48.2817C18.485 48.0334 15.9667 45.45 15.72 40.0816C15.6234 37.9733 15.6033 37.3417 15.6033 32C15.6033 26.66 15.625 26.0284 15.72 23.9184C15.9684 18.54 18.4934 15.9667 23.9184 15.72C26.0284 15.625 26.66 15.605 32 15.605ZM32 12C26.5683 12 25.8883 12.0233 23.755 12.12C16.4916 12.4533 12.455 16.4833 12.1216 23.7533C12.0233 25.8883 12 26.5683 12 32C12 37.4317 12.0233 38.1134 12.12 40.2467C12.4533 47.51 16.4833 51.5465 23.7533 51.88C25.8883 51.9765 26.5683 52 32 52C37.4317 52 38.1134 51.9765 40.2467 51.88C47.5034 51.5465 51.55 47.5167 51.8785 40.2467C51.9765 38.1134 52 37.4317 52 32C52 26.5683 51.9765 25.8883 51.88 23.755C51.5535 16.4983 47.5183 12.455 40.2483 12.1216C38.1133 12.0233 37.4317 12 32 12ZM32 21.73C26.3284 21.73 21.73 26.3284 21.73 32C21.73 37.6716 26.3284 42.2716 32 42.2716C37.6716 42.2716 42.27 37.6733 42.27 32C42.27 26.3284 37.6716 21.73 32 21.73ZM32 38.6666C28.3184 38.6666 25.3333 35.6834 25.3333 32C25.3333 28.3184 28.3184 25.3333 32 25.3333C35.6816 25.3333 38.6666 28.3184 38.6666 32C38.6666 35.6834 35.6816 38.6666 32 38.6666ZM42.6767 18.925C41.35 18.925 40.275 20 40.275 21.325C40.275 22.65 41.35 23.725 42.6767 23.725C44.0017 23.725 45.075 22.65 45.075 21.325C45.075 20 44.0017 18.925 42.6767 18.925Z" fill="url(#paint3_radial_31_5245)"/>
</g>
</g>
</g>
</g>
<defs>
<filter id="filter0_i_31_5245" x="4" y="4" width="56" height="60" filterUnits="userSpaceOnUse" color-interpolation-filters="sRGB">
<feFlood flood-opacity="0" result="BackgroundImageFix"/>
<feBlend mode="normal" in="SourceGraphic" in2="BackgroundImageFix" result="shape"/>
<feColorMatrix in="SourceAlpha" type="matrix" values="0 0 0 0 0 0 0 0 0 0 0 0 0 0 0 0 0 0 127 0" result="hardAlpha"/>
<feOffset dy="4"/>
<feGaussianBlur stdDeviation="2"/>
<feComposite in2="hardAlpha" operator="arithmetic" k2="-1" k3="1"/>
<feColorMatrix type="matrix" values="0 0 0 0 0 0 0 0 0 0 0 0 0 0 0 0 0 0 0.25 0"/>
<feBlend mode="normal" in2="shape" result="effect1_innerShadow_31_5245"/>
</filter>
<filter id="filter1_d_31_5245" x="8" y="10" width="48" height="48" filterUnits="userSpaceOnUse" color-interpolation-filters="sRGB">
<feFlood flood-opacity="0" result="BackgroundImageFix"/>
<feColorMatrix in="SourceAlpha" type="matrix" values="0 0 0 0 0 0 0 0 0 0 0 0 0 0 0 0 0 0 127 0" result="hardAlpha"/>
<feOffset dy="2"/>
<feGaussianBlur stdDeviation="2"/>
<feComposite in2="hardAlpha" operator="out"/>
<feColorMatrix type="matrix" values="0 0 0 0 0 0 0 0 0 0 0 0 0 0 0 0 0 0 0.25 0"/>
<feBlend mode="normal" in2="BackgroundImageFix" result="effect1_dropShadow_31_5245"/>
<feBlend mode="normal" in="SourceGraphic" in2="effect1_dropShadow_31_5245" result="shape"/>
</filter>
<radialGradient id="paint0_radial_31_5245" cx="0" cy="0" r="1" gradientUnits="userSpaceOnUse" gradientTransform="translate(64) rotate(135) scale(90.5095)">
<stop stop-color="#B000FF"/>
<stop offset="1" stop-color="#DFDFDF" stop-opacity="0"/>
</radialGradient>
<radialGradient id="paint1_radial_31_5245" cx="0" cy="0" r="1" gradientUnits="userSpaceOnUse" gradientTransform="translate(-1.90734e-06 64) rotate(-63.4349) scale(71.554)">
<stop stop-color="#FFB000"/>
<stop offset="1" stop-color="#DFDFDF" stop-opacity="0"/>
</radialGradient>
<radialGradient id="paint2_radial_31_5245" cx="0" cy="0" r="1" gradientUnits="userSpaceOnUse" gradientTransform="translate(52 12) rotate(135) scale(56.5685)">
<stop stop-color="#B000FF"/>
<stop offset="1" stop-color="#DFDFDF" stop-opacity="0"/>
</radialGradient>
<radialGradient id="paint3_radial_31_5245" cx="0" cy="0" r="1" gradientUnits="userSpaceOnUse" gradientTransform="translate(12 52) rotate(-63.4349) scale(44.7213)">
<stop stop-color="#FFB000"/>
<stop offset="1" stop-color="#DFDFDF" stop-opacity="0"/>
</radialGradient>
<clipPath id="clip0_31_5245">
<rect width="64" height="64" fill="white"/>
</clipPath>
</defs>
</svg>
