<svg width="64" height="64" viewBox="0 0 64 64" fill="none" xmlns="http://www.w3.org/2000/svg">
<g clip-path="url(#clip0_31_5290)">
<path d="M48 0H16C7.16344 0 0 7.16344 0 16V48C0 56.8366 7.16344 64 16 64H48C56.8366 64 64 56.8366 64 48V16C64 7.16344 56.8366 0 48 0Z" fill="url(#paint0_linear_31_5290)"/>
<path d="M48 0H16C7.16344 0 0 7.16344 0 16V48C0 56.8366 7.16344 64 16 64H48C56.8366 64 64 56.8366 64 48V16C64 7.16344 56.8366 0 48 0Z" fill="url(#paint1_linear_31_5290)"/>
<g filter="url(#filter0_i_31_5290)">
<path d="M48 4H16C9.37258 4 4 9.37258 4 16V48C4 54.6274 9.37258 60 16 60H48C54.6274 60 60 54.6274 60 48V16C60 9.37258 54.6274 4 48 4Z" fill="black" fill-opacity="0.7"/>
<g filter="url(#filter1_d_31_5290)">
<path d="M25.7809 38.9437C26.601 40.5879 37.4132 40.5708 38.2239 38.9437C39.0336 37.3186 33.6717 27.5604 32.0028 27.5585C30.3331 27.5585 24.9607 37.2996 25.7809 38.9437Z" fill="url(#paint2_linear_31_5290)"/>
</g>
<g filter="url(#filter2_d_31_5290)">
<path d="M13.2543 47.3031C15.7223 52.259 48.3091 52.202 50.7505 47.3031C53.192 42.404 37.0302 13 32.0029 13C26.9736 13 10.7862 42.347 13.2543 47.3031ZM19.7205 43.0028C18.103 39.7554 28.7108 20.5268 32.0048 20.5268C35.2996 20.5268 45.8895 39.7906 44.2891 43.0028C42.6896 46.215 21.338 46.2501 19.7205 43.0028Z" fill="url(#paint3_linear_31_5290)"/>
</g>
</g>
</g>
<defs>
<filter id="filter0_i_31_5290" x="4" y="4" width="56" height="60" filterUnits="userSpaceOnUse" color-interpolation-filters="sRGB">
<feFlood flood-opacity="0" result="BackgroundImageFix"/>
<feBlend mode="normal" in="SourceGraphic" in2="BackgroundImageFix" result="shape"/>
<feColorMatrix in="SourceAlpha" type="matrix" values="0 0 0 0 0 0 0 0 0 0 0 0 0 0 0 0 0 0 127 0" result="hardAlpha"/>
<feOffset dy="4"/>
<feGaussianBlur stdDeviation="2"/>
<feComposite in2="hardAlpha" operator="arithmetic" k2="-1" k3="1"/>
<feColorMatrix type="matrix" values="0 0 0 0 0 0 0 0 0 0 0 0 0 0 0 0 0 0 0.25 0"/>
<feBlend mode="normal" in2="shape" result="effect1_innerShadow_31_5290"/>
</filter>
<filter id="filter1_d_31_5290" x="21.6963" y="25.5585" width="20.6104" height="20.6119" filterUnits="userSpaceOnUse" color-interpolation-filters="sRGB">
<feFlood flood-opacity="0" result="BackgroundImageFix"/>
<feColorMatrix in="SourceAlpha" type="matrix" values="0 0 0 0 0 0 0 0 0 0 0 0 0 0 0 0 0 0 127 0" result="hardAlpha"/>
<feOffset dy="2"/>
<feGaussianBlur stdDeviation="2"/>
<feComposite in2="hardAlpha" operator="out"/>
<feColorMatrix type="matrix" values="0 0 0 0 0 0 0 0 0 0 0 0 0 0 0 0 0 0 0.25 0"/>
<feBlend mode="normal" in2="BackgroundImageFix" result="effect1_dropShadow_31_5290"/>
<feBlend mode="normal" in="SourceGraphic" in2="effect1_dropShadow_31_5290" result="shape"/>
</filter>
<filter id="filter2_d_31_5290" x="9" y="11" width="46" height="45.9987" filterUnits="userSpaceOnUse" color-interpolation-filters="sRGB">
<feFlood flood-opacity="0" result="BackgroundImageFix"/>
<feColorMatrix in="SourceAlpha" type="matrix" values="0 0 0 0 0 0 0 0 0 0 0 0 0 0 0 0 0 0 127 0" result="hardAlpha"/>
<feOffset dy="2"/>
<feGaussianBlur stdDeviation="2"/>
<feComposite in2="hardAlpha" operator="out"/>
<feColorMatrix type="matrix" values="0 0 0 0 0 0 0 0 0 0 0 0 0 0 0 0 0 0 0.25 0"/>
<feBlend mode="normal" in2="BackgroundImageFix" result="effect1_dropShadow_31_5290"/>
<feBlend mode="normal" in="SourceGraphic" in2="effect1_dropShadow_31_5290" result="shape"/>
</filter>
<linearGradient id="paint0_linear_31_5290" x1="716.14" y1="872.305" x2="628.76" y2="873.77" gradientUnits="userSpaceOnUse">
<stop stop-color="#FCFCFC"/>
<stop offset="1" stop-color="#D0D6DC"/>
</linearGradient>
<linearGradient id="paint1_linear_31_5290" x1="11.2163" y1="26.129" x2="64.282" y2="56.7655" gradientUnits="userSpaceOnUse">
<stop stop-color="#AA5CC3"/>
<stop offset="1" stop-color="#00A4DC"/>
</linearGradient>
<linearGradient id="paint2_linear_31_5290" x1="19.6596" y1="28.5136" x2="51.1667" y2="46.7043" gradientUnits="userSpaceOnUse">
<stop stop-color="#AA5CC3"/>
<stop offset="1" stop-color="#00A4DC"/>
</linearGradient>
<linearGradient id="paint3_linear_31_5290" x1="19.6597" y1="28.5136" x2="51.167" y2="46.7043" gradientUnits="userSpaceOnUse">
<stop stop-color="#AA5CC3"/>
<stop offset="1" stop-color="#00A4DC"/>
</linearGradient>
<clipPath id="clip0_31_5290">
<rect width="64" height="64" fill="white"/>
</clipPath>
</defs>
</svg>
