<svg width="64" height="64" viewBox="0 0 64 64" fill="none" xmlns="http://www.w3.org/2000/svg">
<g clip-path="url(#clip0_31_5299)">
<path d="M48 0H16C7.16344 0 0 7.16344 0 16V48C0 56.8366 7.16344 64 16 64H48C56.8366 64 64 56.8366 64 48V16C64 7.16344 56.8366 0 48 0Z" fill="url(#paint0_linear_31_5299)"/>
<g filter="url(#filter0_i_31_5299)">
<path d="M48 4H16C9.37258 4 4 9.37258 4 16V48C4 54.6274 9.37258 60 16 60H48C54.6274 60 60 54.6274 60 48V16C60 9.37258 54.6274 4 48 4Z" fill="black" fill-opacity="0.7"/>
<mask id="mask0_31_5299" style="mask-type:luminance" maskUnits="userSpaceOnUse" x="8" y="8" width="48" height="48">
<path d="M56 8H8V56H56V8Z" fill="white"/>
</mask>
<g mask="url(#mask0_31_5299)">
<g filter="url(#filter1_d_31_5299)">
<path d="M33 23C33 25.387 32.0518 27.6762 30.364 29.364C28.6762 31.0518 26.387 32 24 32C21.613 32 19.3238 31.0518 17.636 29.364C15.9482 27.6762 15 25.387 15 23C15 20.613 15.9482 18.3238 17.636 16.636C19.3238 14.9482 21.613 14 24 14C26.387 14 28.6762 14.9482 30.364 16.636C32.0518 18.3238 33 20.613 33 23Z" fill="url(#paint1_linear_31_5299)"/>
<path d="M31.924 12.578C27.067 12.578 22.21 14.439 18.488 18.16C11.045 25.603 11.045 37.588 18.488 45.031C25.931 52.474 37.916 52.474 45.359 45.031C52.802 37.588 52.802 25.603 45.359 18.16C41.638 14.439 36.781 12.578 31.924 12.578Z" fill="url(#paint2_linear_31_5299)"/>
<path opacity="0.4" fill-rule="evenodd" clip-rule="evenodd" d="M18.4451 19.949L22.7571 13.245L35.4061 25.718C28.9661 23.581 27.7691 23.539 18.7591 24.075L18.4451 19.949Z" fill="url(#paint3_linear_31_5299)"/>
<path d="M20 10.531C18.379 10.531 16.757 11.03 17 12C18 16 19 40 18 42C17.333 43.333 15 43 15 47C15 49.867 17.823 55 20 55C21.967 54.992 25 49.867 25 47C25 43 22.667 43.333 22 42C21 40 22 16 23 12C23.243 11.03 21.621 10.531 20 10.531ZM19.5 11.531V13L20.625 11.562L21.531 11.75L20.343 13.188L21.531 14.688L20.625 14.969L19.5 13.375V14.813L18.625 14.938V11.594L19.5 11.531Z" fill="url(#paint4_linear_31_5299)"/>
<path d="M33 23C33 25.387 32.0518 27.6762 30.364 29.364C28.6762 31.0518 26.387 32 24 32C21.613 32 19.3238 31.0518 17.636 29.364C15.9482 27.6762 15 25.387 15 23C15 20.613 15.9482 18.3238 17.636 16.636C19.3238 14.9482 21.613 14 24 14C26.387 14 28.6762 14.9482 30.364 16.636C32.0518 18.3238 33 20.613 33 23Z" fill="url(#paint5_linear_31_5299)"/>
<path d="M41.9916 31.7537C41.9916 34.4684 40.9131 37.0719 38.9933 38.9915C37.0736 40.911 34.4698 41.9895 31.7548 41.9895C29.0399 41.9895 26.4361 40.911 24.5164 38.9915C22.5966 37.0719 21.5181 34.4684 21.5181 31.7537C21.5181 29.039 22.5966 26.4355 24.5164 24.5159C26.4361 22.5963 29.0399 21.5179 31.7548 21.5179C34.4698 21.5179 37.0736 22.5963 38.9933 24.5159C40.9131 26.4355 41.9916 29.039 41.9916 31.7537Z" fill="url(#paint6_linear_31_5299)"/>
<path d="M29.05 36.03V27.217L36.6001 31.563L29.05 36.03Z" fill="url(#paint7_linear_31_5299)"/>
<path opacity="0.052" d="M31.4249 26.18C30.4469 26.231 29.5089 26.57 28.6679 27.063C28.9919 27.974 29.5069 27.926 30.2219 27.51C32.0309 26.851 34.1089 27.517 35.3549 28.943C36.2729 28.433 35.9639 27.847 35.2459 27.383C34.1679 26.535 32.7979 26.099 31.4249 26.18ZM26.4249 29.91C25.5559 32.204 26.4459 34.904 28.3539 36.373C29.1749 35.686 28.7569 35.213 28.1239 34.62C27.0649 33.301 26.9009 31.414 27.5619 29.892C27.1769 29.934 26.4239 29.107 26.4249 29.91ZM36.9439 31.282C35.8729 31.153 36.5069 32.447 36.1459 33.096C35.8659 34.178 35.1019 35.087 34.1809 35.714C34.5129 36.712 35.0569 36.585 35.6379 35.907C36.9149 34.738 37.5229 32.942 37.3849 31.216C37.2379 31.238 37.0909 31.26 36.9439 31.283M29.8159 36.44C29.2619 37.44 30.7979 37.354 31.4729 37.468C32.0949 37.491 32.7099 37.405 33.3109 37.25C33.3289 36.058 32.5209 36.293 31.6239 36.398C31.0969 36.647 29.8089 35.607 29.8159 36.44Z" fill="url(#paint8_radial_31_5299)"/>
<path opacity="0.052" d="M24.932 27.02C24.086 28.191 23.608 29.579 23.396 31.001C24.741 31.471 25.163 30.835 25.346 29.631C26.262 26.945 28.948 25.175 31.737 25.063C32 23.538 31.042 23.35 29.846 23.746C27.875 24.2 26.108 25.37 24.932 27.02ZM24.591 36.209C26.421 39.328 30.344 40.804 33.794 39.971C33.765 38.393 32.835 38.435 31.569 38.614C29.076 38.61 26.757 37.053 25.621 34.888C25.313 35.368 23.667 35.469 24.591 36.209ZM35.894 25.402C34.755 26.512 36.827 26.98 37.238 27.995C38.221 29.317 38.558 31.035 38.427 32.671C39.881 33.213 40.238 32.47 39.996 31.177C39.834 28.63 38.335 26.271 36.225 24.833C36.114 25.022 36.004 25.212 35.893 25.401M35.223 38.353C35.86 39.914 37.18 38.07 37.935 37.402C38.536 36.709 39.007 35.924 39.385 35.091C38.033 33.968 37.556 35.114 36.847 36.239C36.645 37.075 34.261 37.591 35.224 38.354" fill="url(#paint9_radial_31_5299)"/>
<path d="M22.04 43.33C22.158 43.389 24.173 44.048 24.182 47.01C24.191 49.882 21.342 54.01 19.898 54.02C18.328 54.029 15.652 49.881 15.614 47.01C15.577 44.27 17.638 43.407 17.756 43.33C19.215 42.492 20.65 42.482 22.04 43.33Z" fill="url(#paint10_linear_31_5299)"/>
<path opacity="0.36" d="M20.0001 10.531C18.3791 10.531 16.7571 11.03 17.0001 12C18.0001 16 19.0001 40 18.0001 42C17.8061 42.512 18.1591 42.044 18.3751 41.875C19.3131 39.363 18.7061 15.95 17.7191 12C17.4941 11.1 18.8801 10.629 20.3751 10.562C20.2481 10.556 20.1281 10.531 20.0001 10.531Z" fill="white"/>
</g>
</g>
</g>
</g>
<defs>
<filter id="filter0_i_31_5299" x="4" y="4" width="56" height="60" filterUnits="userSpaceOnUse" color-interpolation-filters="sRGB">
<feFlood flood-opacity="0" result="BackgroundImageFix"/>
<feBlend mode="normal" in="SourceGraphic" in2="BackgroundImageFix" result="shape"/>
<feColorMatrix in="SourceAlpha" type="matrix" values="0 0 0 0 0 0 0 0 0 0 0 0 0 0 0 0 0 0 127 0" result="hardAlpha"/>
<feOffset dy="4"/>
<feGaussianBlur stdDeviation="2"/>
<feComposite in2="hardAlpha" operator="arithmetic" k2="-1" k3="1"/>
<feColorMatrix type="matrix" values="0 0 0 0 0 0 0 0 0 0 0 0 0 0 0 0 0 0 0.25 0"/>
<feBlend mode="normal" in2="shape" result="effect1_innerShadow_31_5299"/>
</filter>
<filter id="filter1_d_31_5299" x="8.90576" y="8.53101" width="46.0354" height="52.469" filterUnits="userSpaceOnUse" color-interpolation-filters="sRGB">
<feFlood flood-opacity="0" result="BackgroundImageFix"/>
<feColorMatrix in="SourceAlpha" type="matrix" values="0 0 0 0 0 0 0 0 0 0 0 0 0 0 0 0 0 0 127 0" result="hardAlpha"/>
<feOffset dy="2"/>
<feGaussianBlur stdDeviation="2"/>
<feComposite in2="hardAlpha" operator="out"/>
<feColorMatrix type="matrix" values="0 0 0 0 0 0 0 0 0 0 0 0 0 0 0 0 0 0 0.25 0"/>
<feBlend mode="normal" in2="BackgroundImageFix" result="effect1_dropShadow_31_5299"/>
<feBlend mode="normal" in="SourceGraphic" in2="effect1_dropShadow_31_5299" result="shape"/>
</filter>
<linearGradient id="paint0_linear_31_5299" x1="716.14" y1="872.305" x2="628.76" y2="873.77" gradientUnits="userSpaceOnUse">
<stop stop-color="#FCFCFC"/>
<stop offset="1" stop-color="#D0D6DC"/>
</linearGradient>
<linearGradient id="paint1_linear_31_5299" x1="393.61" y1="530.24" x2="417.82" y2="531.27" gradientUnits="userSpaceOnUse">
<stop stop-color="white"/>
<stop offset="1" stop-color="#DFE1E3"/>
</linearGradient>
<linearGradient id="paint2_linear_31_5299" x1="438.51" y1="530.99" x2="386.58" y2="531.86" gradientUnits="userSpaceOnUse">
<stop stop-color="#FCFCFC"/>
<stop offset="1" stop-color="#E9EAEB"/>
</linearGradient>
<linearGradient id="paint3_linear_31_5299" x1="16.1941" y1="28.869" x2="24.7081" y2="29.429" gradientUnits="userSpaceOnUse">
<stop/>
<stop offset="1" stop-opacity="0"/>
</linearGradient>
<linearGradient id="paint4_linear_31_5299" x1="20" y1="9.58601" x2="19.875" y2="53.31" gradientUnits="userSpaceOnUse">
<stop stop-color="#E0E0E0"/>
<stop offset="0.125" stop-color="#C0C0C0"/>
<stop offset="0.66" stop-color="#9B9B9B"/>
<stop offset="0.732" stop-color="#B3B3B3"/>
<stop offset="1" stop-color="#B1B1B1"/>
</linearGradient>
<linearGradient id="paint5_linear_31_5299" x1="396.34" y1="530.18" x2="410.03" y2="531.7" gradientUnits="userSpaceOnUse">
<stop stop-color="white"/>
<stop offset="1" stop-color="#EFF0F1"/>
</linearGradient>
<linearGradient id="paint6_linear_31_5299" x1="24.5231" y1="24.5056" x2="40.7524" y2="42.3618" gradientUnits="userSpaceOnUse">
<stop stop-color="#491309"/>
<stop offset="1" stop-color="#B6642D"/>
</linearGradient>
<linearGradient id="paint7_linear_31_5299" x1="24.296" y1="23.871" x2="38.633" y2="39.01" gradientUnits="userSpaceOnUse">
<stop stop-color="#FEE3A8"/>
<stop offset="1" stop-color="#FCDD99" stop-opacity="0"/>
</linearGradient>
<radialGradient id="paint8_radial_31_5299" cx="0" cy="0" r="1" gradientUnits="userSpaceOnUse" gradientTransform="translate(31.7479 31.82) scale(5.657)">
<stop stop-color="#FCDD99"/>
<stop offset="1" stop-color="#FCDD99" stop-opacity="0"/>
</radialGradient>
<radialGradient id="paint9_radial_31_5299" cx="0" cy="0" r="1" gradientUnits="userSpaceOnUse" gradientTransform="translate(31.731 31.885) scale(8.335 8.335)">
<stop stop-color="#FCDD99"/>
<stop offset="1" stop-color="#FCDD99" stop-opacity="0"/>
</radialGradient>
<linearGradient id="paint10_linear_31_5299" x1="21.247" y1="50.01" x2="16.892" y2="42.887" gradientUnits="userSpaceOnUse">
<stop stop-color="#D6D6D6"/>
<stop offset="1" stop-color="#7A7A7A"/>
</linearGradient>
<clipPath id="clip0_31_5299">
<rect width="64" height="64" fill="white"/>
</clipPath>
</defs>
</svg>
