<svg width="64" height="64" viewBox="0 0 64 64" fill="none" xmlns="http://www.w3.org/2000/svg">
<g clip-path="url(#clip0_31_5329)">
<path d="M48 0H16C7.16344 0 0 7.16344 0 16V48C0 56.8366 7.16344 64 16 64H48C56.8366 64 64 56.8366 64 48V16C64 7.16344 56.8366 0 48 0Z" fill="url(#paint0_linear_31_5329)"/>
<g filter="url(#filter0_i_31_5329)">
<path d="M48 4H16C9.37258 4 4 9.37258 4 16V48C4 54.6274 9.37258 60 16 60H48C54.6274 60 60 54.6274 60 48V16C60 9.37258 54.6274 4 48 4Z" fill="black" fill-opacity="0.7"/>
<g filter="url(#filter1_d_31_5329)">
<path fill-rule="evenodd" clip-rule="evenodd" d="M34 12H16C13.7908 12 12 13.7908 12 16V48C12 50.209 13.7908 52 16 52H48C50.209 52 52 50.209 52 48V30L34 12Z" fill="url(#paint1_linear_31_5329)"/>
</g>
<g filter="url(#filter2_d_31_5329)">
<path d="M52 16C52 13.7908 50.2095 12 48.0002 12H40.0002L52 24V16Z" fill="#97989A"/>
</g>
<path d="M44 39C44 41.2092 38.6274 43 32 43C25.3726 43 20 41.2092 20 39V43C20 45.2092 25.3726 47 32 47C38.6274 47 44 45.2092 44 43V39Z" fill="white"/>
<path d="M44 33.5C44 35.7092 38.6274 37.5 32 37.5C25.3726 37.5 20 35.7092 20 33.5V37.5C20 39.7092 25.3726 41.5 32 41.5C38.6274 41.5 44 39.7092 44 37.5V33.5Z" fill="white"/>
<path d="M44 28C44 30.2092 38.6274 32 32 32C25.3726 32 20 30.2092 20 28V32C20 34.2092 25.3726 36 32 36C38.6274 36 44 34.2092 44 32V28Z" fill="white"/>
<path d="M32 32C38.6274 32 44 30.2092 44 28C44 25.7908 38.6274 24 32 24C25.3726 24 20 25.7908 20 28C20 30.2092 25.3726 32 32 32Z" fill="#E6E6E6"/>
</g>
</g>
<defs>
<filter id="filter0_i_31_5329" x="4" y="4" width="56" height="60" filterUnits="userSpaceOnUse" color-interpolation-filters="sRGB">
<feFlood flood-opacity="0" result="BackgroundImageFix"/>
<feBlend mode="normal" in="SourceGraphic" in2="BackgroundImageFix" result="shape"/>
<feColorMatrix in="SourceAlpha" type="matrix" values="0 0 0 0 0 0 0 0 0 0 0 0 0 0 0 0 0 0 127 0" result="hardAlpha"/>
<feOffset dy="4"/>
<feGaussianBlur stdDeviation="2"/>
<feComposite in2="hardAlpha" operator="arithmetic" k2="-1" k3="1"/>
<feColorMatrix type="matrix" values="0 0 0 0 0 0 0 0 0 0 0 0 0 0 0 0 0 0 0.25 0"/>
<feBlend mode="normal" in2="shape" result="effect1_innerShadow_31_5329"/>
</filter>
<filter id="filter1_d_31_5329" x="8" y="10" width="48" height="48" filterUnits="userSpaceOnUse" color-interpolation-filters="sRGB">
<feFlood flood-opacity="0" result="BackgroundImageFix"/>
<feColorMatrix in="SourceAlpha" type="matrix" values="0 0 0 0 0 0 0 0 0 0 0 0 0 0 0 0 0 0 127 0" result="hardAlpha"/>
<feOffset dy="2"/>
<feGaussianBlur stdDeviation="2"/>
<feComposite in2="hardAlpha" operator="out"/>
<feColorMatrix type="matrix" values="0 0 0 0 0 0 0 0 0 0 0 0 0 0 0 0 0 0 0.25 0"/>
<feBlend mode="normal" in2="BackgroundImageFix" result="effect1_dropShadow_31_5329"/>
<feBlend mode="normal" in="SourceGraphic" in2="effect1_dropShadow_31_5329" result="shape"/>
</filter>
<filter id="filter2_d_31_5329" x="36.0002" y="10" width="19.9998" height="20" filterUnits="userSpaceOnUse" color-interpolation-filters="sRGB">
<feFlood flood-opacity="0" result="BackgroundImageFix"/>
<feColorMatrix in="SourceAlpha" type="matrix" values="0 0 0 0 0 0 0 0 0 0 0 0 0 0 0 0 0 0 127 0" result="hardAlpha"/>
<feOffset dy="2"/>
<feGaussianBlur stdDeviation="2"/>
<feComposite in2="hardAlpha" operator="out"/>
<feColorMatrix type="matrix" values="0 0 0 0 0 0 0 0 0 0 0 0 0 0 0 0 0 0 0.25 0"/>
<feBlend mode="normal" in2="BackgroundImageFix" result="effect1_dropShadow_31_5329"/>
<feBlend mode="normal" in="SourceGraphic" in2="effect1_dropShadow_31_5329" result="shape"/>
</filter>
<linearGradient id="paint0_linear_31_5329" x1="64" y1="0" x2="0" y2="64" gradientUnits="userSpaceOnUse">
<stop stop-color="#F353FB"/>
<stop offset="1" stop-color="#7C26AD"/>
</linearGradient>
<linearGradient id="paint1_linear_31_5329" x1="52" y1="12" x2="12" y2="52" gradientUnits="userSpaceOnUse">
<stop stop-color="#F353FB"/>
<stop offset="1" stop-color="#7C26AD"/>
</linearGradient>
<clipPath id="clip0_31_5329">
<rect width="64" height="64" fill="white"/>
</clipPath>
</defs>
</svg>
