<svg width="64" height="64" viewBox="0 0 64 64" fill="none" xmlns="http://www.w3.org/2000/svg">
<g clip-path="url(#clip0_31_5361)">
<path d="M48 0H16C7.16344 0 0 7.16344 0 16V48C0 56.8366 7.16344 64 16 64H48C56.8366 64 64 56.8366 64 48V16C64 7.16344 56.8366 0 48 0Z" fill="url(#paint0_linear_31_5361)"/>
<g filter="url(#filter0_i_31_5361)">
<path d="M48 4H16C9.37258 4 4 9.37258 4 16V48C4 54.6274 9.37258 60 16 60H48C54.6274 60 60 54.6274 60 48V16C60 9.37258 54.6274 4 48 4Z" fill="black" fill-opacity="0.7"/>
<g filter="url(#filter1_d_31_5361)">
<path fill-rule="evenodd" clip-rule="evenodd" d="M34 12H16C13.7908 12 12 13.7908 12 16V48C12 50.209 13.7908 52 16 52H48C50.209 52 52 50.209 52 48V30L34 12Z" fill="url(#paint1_linear_31_5361)"/>
</g>
<g filter="url(#filter2_d_31_5361)">
<path d="M34 26C34 28.2092 35.7909 30 38 30H51.9999L34 12V26Z" fill="#FAFAFA"/>
</g>
<g filter="url(#filter3_d_31_5361)">
<path d="M52.0002 16C52.0002 13.7908 50.2097 12 48.0005 12H40.0005L52.0002 24V16Z" fill="#97989A"/>
</g>
<mask id="mask0_31_5361" style="mask-type:luminance" maskUnits="userSpaceOnUse" x="16" y="32" width="32" height="16">
<path d="M47 32H17C16.4477 32 16 32.4477 16 33V47C16 47.5523 16.4477 48 17 48H47C47.5523 48 48 47.5523 48 47V33C48 32.4477 47.5523 32 47 32Z" fill="white"/>
</mask>
<g mask="url(#mask0_31_5361)">
<path d="M24 36H16V48H24V36Z" fill="#24AFEA"/>
<path d="M24 36H16V48H24V36Z" fill="url(#paint2_linear_31_5361)"/>
<path d="M32 32H24V48H32V32Z" fill="#F8883C"/>
<path d="M32 32H24V48H32V32Z" fill="url(#paint3_linear_31_5361)"/>
<path d="M40 40H32V48H40V40Z" fill="#F0CD49"/>
<path d="M40 40H32V48H40V40Z" fill="url(#paint4_linear_31_5361)"/>
<path d="M48 36H40V48H48V36Z" fill="#5BDD4B"/>
<path d="M48 36H40V48H48V36Z" fill="url(#paint5_linear_31_5361)"/>
</g>
</g>
</g>
<defs>
<filter id="filter0_i_31_5361" x="4" y="4" width="56" height="60" filterUnits="userSpaceOnUse" color-interpolation-filters="sRGB">
<feFlood flood-opacity="0" result="BackgroundImageFix"/>
<feBlend mode="normal" in="SourceGraphic" in2="BackgroundImageFix" result="shape"/>
<feColorMatrix in="SourceAlpha" type="matrix" values="0 0 0 0 0 0 0 0 0 0 0 0 0 0 0 0 0 0 127 0" result="hardAlpha"/>
<feOffset dy="4"/>
<feGaussianBlur stdDeviation="2"/>
<feComposite in2="hardAlpha" operator="arithmetic" k2="-1" k3="1"/>
<feColorMatrix type="matrix" values="0 0 0 0 0 0 0 0 0 0 0 0 0 0 0 0 0 0 0.25 0"/>
<feBlend mode="normal" in2="shape" result="effect1_innerShadow_31_5361"/>
</filter>
<filter id="filter1_d_31_5361" x="8" y="10" width="48" height="48" filterUnits="userSpaceOnUse" color-interpolation-filters="sRGB">
<feFlood flood-opacity="0" result="BackgroundImageFix"/>
<feColorMatrix in="SourceAlpha" type="matrix" values="0 0 0 0 0 0 0 0 0 0 0 0 0 0 0 0 0 0 127 0" result="hardAlpha"/>
<feOffset dy="2"/>
<feGaussianBlur stdDeviation="2"/>
<feComposite in2="hardAlpha" operator="out"/>
<feColorMatrix type="matrix" values="0 0 0 0 0 0 0 0 0 0 0 0 0 0 0 0 0 0 0.25 0"/>
<feBlend mode="normal" in2="BackgroundImageFix" result="effect1_dropShadow_31_5361"/>
<feBlend mode="normal" in="SourceGraphic" in2="effect1_dropShadow_31_5361" result="shape"/>
</filter>
<filter id="filter2_d_31_5361" x="30" y="10" width="26" height="26" filterUnits="userSpaceOnUse" color-interpolation-filters="sRGB">
<feFlood flood-opacity="0" result="BackgroundImageFix"/>
<feColorMatrix in="SourceAlpha" type="matrix" values="0 0 0 0 0 0 0 0 0 0 0 0 0 0 0 0 0 0 127 0" result="hardAlpha"/>
<feOffset dy="2"/>
<feGaussianBlur stdDeviation="2"/>
<feComposite in2="hardAlpha" operator="out"/>
<feColorMatrix type="matrix" values="0 0 0 0 0 0 0 0 0 0 0 0 0 0 0 0 0 0 0.25 0"/>
<feBlend mode="normal" in2="BackgroundImageFix" result="effect1_dropShadow_31_5361"/>
<feBlend mode="normal" in="SourceGraphic" in2="effect1_dropShadow_31_5361" result="shape"/>
</filter>
<filter id="filter3_d_31_5361" x="36.0005" y="10" width="19.9995" height="20" filterUnits="userSpaceOnUse" color-interpolation-filters="sRGB">
<feFlood flood-opacity="0" result="BackgroundImageFix"/>
<feColorMatrix in="SourceAlpha" type="matrix" values="0 0 0 0 0 0 0 0 0 0 0 0 0 0 0 0 0 0 127 0" result="hardAlpha"/>
<feOffset dy="2"/>
<feGaussianBlur stdDeviation="2"/>
<feComposite in2="hardAlpha" operator="out"/>
<feColorMatrix type="matrix" values="0 0 0 0 0 0 0 0 0 0 0 0 0 0 0 0 0 0 0.25 0"/>
<feBlend mode="normal" in2="BackgroundImageFix" result="effect1_dropShadow_31_5361"/>
<feBlend mode="normal" in="SourceGraphic" in2="effect1_dropShadow_31_5361" result="shape"/>
</filter>
<linearGradient id="paint0_linear_31_5361" x1="64" y1="0" x2="0" y2="64" gradientUnits="userSpaceOnUse">
<stop stop-color="#97989A"/>
<stop offset="1" stop-color="#505050"/>
</linearGradient>
<linearGradient id="paint1_linear_31_5361" x1="32" y1="12" x2="32" y2="52" gradientUnits="userSpaceOnUse">
<stop stop-color="#FAFAFA"/>
<stop offset="1" stop-color="#D5D5D5"/>
</linearGradient>
<linearGradient id="paint2_linear_31_5361" x1="20" y1="36" x2="20" y2="48" gradientUnits="userSpaceOnUse">
<stop stop-opacity="0"/>
<stop offset="1" stop-opacity="0.2"/>
</linearGradient>
<linearGradient id="paint3_linear_31_5361" x1="28" y1="32" x2="28" y2="48" gradientUnits="userSpaceOnUse">
<stop stop-opacity="0"/>
<stop offset="1" stop-opacity="0.2"/>
</linearGradient>
<linearGradient id="paint4_linear_31_5361" x1="36" y1="40" x2="36" y2="48" gradientUnits="userSpaceOnUse">
<stop stop-opacity="0"/>
<stop offset="1" stop-opacity="0.2"/>
</linearGradient>
<linearGradient id="paint5_linear_31_5361" x1="44" y1="36" x2="44" y2="48" gradientUnits="userSpaceOnUse">
<stop stop-opacity="0"/>
<stop offset="1" stop-opacity="0.2"/>
</linearGradient>
<clipPath id="clip0_31_5361">
<rect width="64" height="64" fill="white"/>
</clipPath>
</defs>
</svg>
