<svg width="64" height="64" viewBox="0 0 64 64" fill="none" xmlns="http://www.w3.org/2000/svg">
<g clip-path="url(#clip0_31_5341)">
<path d="M48 0H16C7.16344 0 0 7.16344 0 16V48C0 56.8366 7.16344 64 16 64H48C56.8366 64 64 56.8366 64 48V16C64 7.16344 56.8366 0 48 0Z" fill="url(#paint0_linear_31_5341)"/>
<g filter="url(#filter0_i_31_5341)">
<path d="M48 4H16C9.37258 4 4 9.37258 4 16V48C4 54.6274 9.37258 60 16 60H48C54.6274 60 60 54.6274 60 48V16C60 9.37258 54.6274 4 48 4Z" fill="black" fill-opacity="0.7"/>
<g filter="url(#filter1_d_31_5341)">
<path fill-rule="evenodd" clip-rule="evenodd" d="M34 14.5H16C13.7908 14.5 12 16.2908 12 18.5V45.5C12 47.7092 13.7908 49.5 16 49.5H48C50.209 49.5 52 47.7092 52 45.5V32.5L34 14.5Z" fill="url(#paint1_linear_31_5341)"/>
</g>
<path d="M20 38.5V41.5C20 42.6046 20.8954 43.5 22 43.5H28M20 38.5H28M20 38.5V33.5M28 43.5V38.5M28 43.5H36M28 38.5H36M28 38.5V33.5M20 33.5H28M20 33.5V30.5C20 29.3954 20.8954 28.5 22 28.5H28M36 38.5V43.5M36 38.5H44M36 38.5V33.5M28 33.5H36M28 33.5V28.5M36 43.5H42C43.1046 43.5 44 42.6046 44 41.5V38.5M44 38.5V33.5M36 33.5H44M36 33.5V28.5M44 33.5V30.5C44 29.3954 43.1046 28.5 42 28.5H36M28 28.5H36" stroke="white" stroke-width="4"/>
<g filter="url(#filter2_d_31_5341)">
<path d="M52 18.5C52 16.2908 50.2095 14.5 48.0002 14.5H40.0002L52 26.5V18.5Z" fill="#97989A"/>
</g>
</g>
</g>
<defs>
<filter id="filter0_i_31_5341" x="4" y="4" width="56" height="60" filterUnits="userSpaceOnUse" color-interpolation-filters="sRGB">
<feFlood flood-opacity="0" result="BackgroundImageFix"/>
<feBlend mode="normal" in="SourceGraphic" in2="BackgroundImageFix" result="shape"/>
<feColorMatrix in="SourceAlpha" type="matrix" values="0 0 0 0 0 0 0 0 0 0 0 0 0 0 0 0 0 0 127 0" result="hardAlpha"/>
<feOffset dy="4"/>
<feGaussianBlur stdDeviation="2"/>
<feComposite in2="hardAlpha" operator="arithmetic" k2="-1" k3="1"/>
<feColorMatrix type="matrix" values="0 0 0 0 0 0 0 0 0 0 0 0 0 0 0 0 0 0 0.25 0"/>
<feBlend mode="normal" in2="shape" result="effect1_innerShadow_31_5341"/>
</filter>
<filter id="filter1_d_31_5341" x="8" y="12.5" width="48" height="43" filterUnits="userSpaceOnUse" color-interpolation-filters="sRGB">
<feFlood flood-opacity="0" result="BackgroundImageFix"/>
<feColorMatrix in="SourceAlpha" type="matrix" values="0 0 0 0 0 0 0 0 0 0 0 0 0 0 0 0 0 0 127 0" result="hardAlpha"/>
<feOffset dy="2"/>
<feGaussianBlur stdDeviation="2"/>
<feComposite in2="hardAlpha" operator="out"/>
<feColorMatrix type="matrix" values="0 0 0 0 0 0 0 0 0 0 0 0 0 0 0 0 0 0 0.25 0"/>
<feBlend mode="normal" in2="BackgroundImageFix" result="effect1_dropShadow_31_5341"/>
<feBlend mode="normal" in="SourceGraphic" in2="effect1_dropShadow_31_5341" result="shape"/>
</filter>
<filter id="filter2_d_31_5341" x="36.0002" y="12.5" width="19.9998" height="20" filterUnits="userSpaceOnUse" color-interpolation-filters="sRGB">
<feFlood flood-opacity="0" result="BackgroundImageFix"/>
<feColorMatrix in="SourceAlpha" type="matrix" values="0 0 0 0 0 0 0 0 0 0 0 0 0 0 0 0 0 0 127 0" result="hardAlpha"/>
<feOffset dy="2"/>
<feGaussianBlur stdDeviation="2"/>
<feComposite in2="hardAlpha" operator="out"/>
<feColorMatrix type="matrix" values="0 0 0 0 0 0 0 0 0 0 0 0 0 0 0 0 0 0 0.25 0"/>
<feBlend mode="normal" in2="BackgroundImageFix" result="effect1_dropShadow_31_5341"/>
<feBlend mode="normal" in="SourceGraphic" in2="effect1_dropShadow_31_5341" result="shape"/>
</filter>
<linearGradient id="paint0_linear_31_5341" x1="64" y1="0" x2="0" y2="64" gradientUnits="userSpaceOnUse">
<stop stop-color="#75EA53"/>
<stop offset="1" stop-color="#068540"/>
</linearGradient>
<linearGradient id="paint1_linear_31_5341" x1="52" y1="14.5" x2="12" y2="54.5" gradientUnits="userSpaceOnUse">
<stop stop-color="#75EA53"/>
<stop offset="1" stop-color="#068540"/>
</linearGradient>
<clipPath id="clip0_31_5341">
<rect width="64" height="64" fill="white"/>
</clipPath>
</defs>
</svg>
