<svg width="64" height="64" viewBox="0 0 64 64" fill="none" xmlns="http://www.w3.org/2000/svg">
<g clip-path="url(#clip0_31_5383)">
<path d="M48 0H16C7.16344 0 0 7.16344 0 16V48C0 56.8366 7.16344 64 16 64H48C56.8366 64 64 56.8366 64 48V16C64 7.16344 56.8366 0 48 0Z" fill="url(#paint0_linear_31_5383)"/>
<g filter="url(#filter0_i_31_5383)">
<path d="M48 4H16C9.37258 4 4 9.37258 4 16V48C4 54.6274 9.37258 60 16 60H48C54.6274 60 60 54.6274 60 48V16C60 9.37258 54.6274 4 48 4Z" fill="black" fill-opacity="0.7"/>
<g filter="url(#filter1_d_31_5383)">
<path fill-rule="evenodd" clip-rule="evenodd" d="M34 17H16C13.7908 17 12 18.7908 12 21V43C12 45.2092 13.7908 47 16 47H48C50.209 47 52 45.2092 52 43V35L34 17Z" fill="url(#paint1_linear_31_5383)"/>
</g>
<g filter="url(#filter2_d_31_5383)">
<path d="M52.0002 21C52.0002 18.7908 50.2097 17 48.0005 17H40.0005L52.0002 29V21Z" fill="#97989A"/>
</g>
<path fill-rule="evenodd" clip-rule="evenodd" d="M39 22H20.5C19.9477 22 19.5 22.4477 19.5 23C19.5 23.5523 19.9477 24 20.5 24H41L39 22Z" fill="white"/>
<path d="M17 32C17 31.4477 16.5523 31 16 31C15.4477 31 15 31.4477 15 32C15 32.5523 15.4477 33 16 33C16.5523 33 17 32.5523 17 32Z" fill="white"/>
<path d="M38 31H20C19.4477 31 19 31.4477 19 32C19 32.5523 19.4477 33 20 33H38C38.5523 33 39 32.5523 39 32C39 31.4477 38.5523 31 38 31Z" fill="white"/>
<path d="M17 36C17 35.4477 16.5523 35 16 35C15.4477 35 15 35.4477 15 36C15 36.5523 15.4477 37 16 37C16.5523 37 17 36.5523 17 36Z" fill="white"/>
<path d="M34 35H20C19.4477 35 19 35.4477 19 36C19 36.5523 19.4477 37 20 37H34C34.5523 37 35 36.5523 35 36C35 35.4477 34.5523 35 34 35Z" fill="white"/>
<path d="M17 40C17 39.4477 16.5523 39 16 39C15.4477 39 15 39.4477 15 40C15 40.5523 15.4477 41 16 41C16.5523 41 17 40.5523 17 40Z" fill="white"/>
<path d="M36.5 39H20C19.4477 39 19 39.4477 19 40C19 40.5523 19.4477 41 20 41H36.5C37.0523 41 37.5 40.5523 37.5 40C37.5 39.4477 37.0523 39 36.5 39Z" fill="white"/>
</g>
</g>
<defs>
<filter id="filter0_i_31_5383" x="4" y="4" width="56" height="60" filterUnits="userSpaceOnUse" color-interpolation-filters="sRGB">
<feFlood flood-opacity="0" result="BackgroundImageFix"/>
<feBlend mode="normal" in="SourceGraphic" in2="BackgroundImageFix" result="shape"/>
<feColorMatrix in="SourceAlpha" type="matrix" values="0 0 0 0 0 0 0 0 0 0 0 0 0 0 0 0 0 0 127 0" result="hardAlpha"/>
<feOffset dy="4"/>
<feGaussianBlur stdDeviation="2"/>
<feComposite in2="hardAlpha" operator="arithmetic" k2="-1" k3="1"/>
<feColorMatrix type="matrix" values="0 0 0 0 0 0 0 0 0 0 0 0 0 0 0 0 0 0 0.25 0"/>
<feBlend mode="normal" in2="shape" result="effect1_innerShadow_31_5383"/>
</filter>
<filter id="filter1_d_31_5383" x="8" y="15" width="48" height="38" filterUnits="userSpaceOnUse" color-interpolation-filters="sRGB">
<feFlood flood-opacity="0" result="BackgroundImageFix"/>
<feColorMatrix in="SourceAlpha" type="matrix" values="0 0 0 0 0 0 0 0 0 0 0 0 0 0 0 0 0 0 127 0" result="hardAlpha"/>
<feOffset dy="2"/>
<feGaussianBlur stdDeviation="2"/>
<feComposite in2="hardAlpha" operator="out"/>
<feColorMatrix type="matrix" values="0 0 0 0 0 0 0 0 0 0 0 0 0 0 0 0 0 0 0.25 0"/>
<feBlend mode="normal" in2="BackgroundImageFix" result="effect1_dropShadow_31_5383"/>
<feBlend mode="normal" in="SourceGraphic" in2="effect1_dropShadow_31_5383" result="shape"/>
</filter>
<filter id="filter2_d_31_5383" x="36.0005" y="15" width="19.9995" height="20" filterUnits="userSpaceOnUse" color-interpolation-filters="sRGB">
<feFlood flood-opacity="0" result="BackgroundImageFix"/>
<feColorMatrix in="SourceAlpha" type="matrix" values="0 0 0 0 0 0 0 0 0 0 0 0 0 0 0 0 0 0 127 0" result="hardAlpha"/>
<feOffset dy="2"/>
<feGaussianBlur stdDeviation="2"/>
<feComposite in2="hardAlpha" operator="out"/>
<feColorMatrix type="matrix" values="0 0 0 0 0 0 0 0 0 0 0 0 0 0 0 0 0 0 0.25 0"/>
<feBlend mode="normal" in2="BackgroundImageFix" result="effect1_dropShadow_31_5383"/>
<feBlend mode="normal" in="SourceGraphic" in2="effect1_dropShadow_31_5383" result="shape"/>
</filter>
<linearGradient id="paint0_linear_31_5383" x1="64" y1="0" x2="0" y2="64" gradientUnits="userSpaceOnUse">
<stop stop-color="#F79740"/>
<stop offset="1" stop-color="#D21E10"/>
</linearGradient>
<linearGradient id="paint1_linear_31_5383" x1="52" y1="17" x2="23.2" y2="55.4" gradientUnits="userSpaceOnUse">
<stop stop-color="#F79740"/>
<stop offset="1" stop-color="#D21E10"/>
</linearGradient>
<clipPath id="clip0_31_5383">
<rect width="64" height="64" fill="white"/>
</clipPath>
</defs>
</svg>
