<svg width="64" height="64" viewBox="0 0 64 64" fill="none" xmlns="http://www.w3.org/2000/svg">
<g clip-path="url(#clip0_31_5511)">
<path d="M48 0H16C7.16344 0 0 7.16344 0 16V48C0 56.8366 7.16344 64 16 64H48C56.8366 64 64 56.8366 64 48V16C64 7.16344 56.8366 0 48 0Z" fill="url(#paint0_linear_31_5511)"/>
<g filter="url(#filter0_i_31_5511)">
<path d="M48 4H16C9.37258 4 4 9.37258 4 16V48C4 54.6274 9.37258 60 16 60H48C54.6274 60 60 54.6274 60 48V16C60 9.37258 54.6274 4 48 4Z" fill="black" fill-opacity="0.7"/>
<g filter="url(#filter1_d_31_5511)">
<path d="M31.9996 12.0009C20.9542 12.0009 12 20.955 12 32.0005C12 42.7263 20.444 51.48 31.0471 51.977C31.3636 51.992 31.6805 52 31.9999 52C37.1204 52 41.7901 50.075 45.3285 46.9105C42.9841 48.4653 40.2433 49.3599 37.3142 49.3599C32.5514 49.3599 28.2859 46.9971 25.4171 43.2712C23.2056 40.6607 21.7732 36.8019 21.6757 32.4712V31.5294C21.7732 27.1989 23.2056 23.3393 25.4165 20.7295C28.2858 17.0035 32.5511 14.6408 37.3135 14.6408C40.2434 14.6408 42.9848 15.5354 45.3293 17.0911C41.8083 13.9413 37.1668 12.0199 32.0748 12.001C32.0494 12.001 32.0246 12 31.9992 12L31.9996 12.0009Z" fill="#FF1B2D"/>
<path d="M25.417 20.7307C27.2523 18.564 29.6226 17.2575 32.2122 17.2575C38.0347 17.2575 42.7538 23.8586 42.7538 32.0014C42.7538 40.1442 38.0343 46.7453 32.2122 46.7453C29.6226 46.7453 27.2523 45.4393 25.4175 43.2726C28.2862 46.9985 32.5513 49.3614 37.3145 49.3614C40.2439 49.3614 42.9848 48.4667 45.3289 46.912C49.4225 43.2497 52.0002 37.9268 52.0002 32.0015C52.0002 26.077 49.423 20.7543 45.3304 17.0925C42.9855 15.5368 40.2442 14.6422 37.3146 14.6422C32.5518 14.6422 28.2858 17.0047 25.417 20.7307Z" fill="#B10000"/>
</g>
</g>
</g>
<defs>
<filter id="filter0_i_31_5511" x="4" y="4" width="56" height="60" filterUnits="userSpaceOnUse" color-interpolation-filters="sRGB">
<feFlood flood-opacity="0" result="BackgroundImageFix"/>
<feBlend mode="normal" in="SourceGraphic" in2="BackgroundImageFix" result="shape"/>
<feColorMatrix in="SourceAlpha" type="matrix" values="0 0 0 0 0 0 0 0 0 0 0 0 0 0 0 0 0 0 127 0" result="hardAlpha"/>
<feOffset dy="4"/>
<feGaussianBlur stdDeviation="2"/>
<feComposite in2="hardAlpha" operator="arithmetic" k2="-1" k3="1"/>
<feColorMatrix type="matrix" values="0 0 0 0 0 0 0 0 0 0 0 0 0 0 0 0 0 0 0.25 0"/>
<feBlend mode="normal" in2="shape" result="effect1_innerShadow_31_5511"/>
</filter>
<filter id="filter1_d_31_5511" x="8" y="10" width="48" height="48" filterUnits="userSpaceOnUse" color-interpolation-filters="sRGB">
<feFlood flood-opacity="0" result="BackgroundImageFix"/>
<feColorMatrix in="SourceAlpha" type="matrix" values="0 0 0 0 0 0 0 0 0 0 0 0 0 0 0 0 0 0 127 0" result="hardAlpha"/>
<feOffset dy="2"/>
<feGaussianBlur stdDeviation="2"/>
<feComposite in2="hardAlpha" operator="out"/>
<feColorMatrix type="matrix" values="0 0 0 0 0 0 0 0 0 0 0 0 0 0 0 0 0 0 0.25 0"/>
<feBlend mode="normal" in2="BackgroundImageFix" result="effect1_dropShadow_31_5511"/>
<feBlend mode="normal" in="SourceGraphic" in2="effect1_dropShadow_31_5511" result="shape"/>
</filter>
<linearGradient id="paint0_linear_31_5511" x1="32" y1="0" x2="32" y2="64" gradientUnits="userSpaceOnUse">
<stop stop-color="#FF1B2D"/>
<stop offset="0.3" stop-color="#FF1B2D"/>
<stop offset="0.614" stop-color="#FF1B2D"/>
<stop offset="1" stop-color="#A70014"/>
</linearGradient>
<clipPath id="clip0_31_5511">
<rect width="64" height="64" fill="white"/>
</clipPath>
</defs>
</svg>
