<svg width="64" height="64" viewBox="0 0 64 64" fill="none" xmlns="http://www.w3.org/2000/svg">
<g clip-path="url(#clip0_31_5518)">
<path d="M48 0H16C7.16344 0 0 7.16344 0 16V48C0 56.8366 7.16344 64 16 64H48C56.8366 64 64 56.8366 64 48V16C64 7.16344 56.8366 0 48 0Z" fill="url(#paint0_linear_31_5518)"/>
<path d="M48 0H16C7.16344 0 0 7.16344 0 16V48C0 56.8366 7.16344 64 16 64H48C56.8366 64 64 56.8366 64 48V16C64 7.16344 56.8366 0 48 0Z" fill="url(#paint1_linear_31_5518)"/>
<g filter="url(#filter0_i_31_5518)">
<path d="M48 4H16C9.37258 4 4 9.37258 4 16V48C4 54.6274 9.37258 60 16 60H48C54.6274 60 60 54.6274 60 48V16C60 9.37258 54.6274 4 48 4Z" fill="black" fill-opacity="0.7"/>
<mask id="mask0_31_5518" style="mask-type:luminance" maskUnits="userSpaceOnUse" x="8" y="8" width="48" height="48">
<path d="M56 8H8V56H56V8Z" fill="white"/>
</mask>
<g mask="url(#mask0_31_5518)">
<g filter="url(#filter1_d_31_5518)">
<path d="M34.5109 18.0007L33.0472 13.5768L26.2542 16.8604L17.2617 17.6537L18.496 33.0823L31.2496 30.948L34.5109 18.0007Z" fill="url(#paint2_linear_31_5518)"/>
</g>
<g filter="url(#filter2_d_31_5518)">
<path d="M22.3905 21.9387L10.2856 18.7577L14.4692 43.8812L37.0103 43.6618L22.3905 21.9387Z" fill="url(#paint3_linear_31_5518)"/>
</g>
<g filter="url(#filter3_d_31_5518)">
<path d="M39.0382 32.6414L33.8364 23.737L39.4791 18.6236L48.4606 14.9479L54.1717 29.1404L45.9468 37.3094L39.0382 32.6414Z" fill="url(#paint4_linear_31_5518)"/>
</g>
<g filter="url(#filter4_d_31_5518)">
<path d="M45.9503 28.9515L43.0933 23.1198L20.6899 27.6212L22.9912 49.0131L37.7813 54.1715L54.1715 44.3609L45.9503 28.9515Z" fill="url(#paint5_linear_31_5518)"/>
</g>
<g filter="url(#filter5_d_31_5518)">
<path d="M34.3651 29.9966L20.6899 27.6213L37.3823 12.8911L48.4603 14.9479L41.5946 21.7975L43.1813 23.208L34.3651 29.9966Z" fill="url(#paint6_linear_31_5518)"/>
</g>
<g filter="url(#filter6_d_31_5518)">
<path d="M33.0472 13.5768L17.7719 10.2857L10.2856 18.7577L22.4121 21.9816L33.0472 13.5768Z" fill="url(#paint7_linear_31_5518)"/>
</g>
<g filter="url(#filter7_d_31_5518)">
<path d="M45.9428 18.5143H18.5142V45.9429H45.9428V18.5143Z" fill="black"/>
</g>
<path d="M32.2286 40.8H21.9429V42.5143H32.2286V40.8Z" fill="white"/>
<path d="M30.9229 30.8664L32.2646 29.2604C33.1924 30.0259 34.1662 30.5127 35.3434 30.5127C36.2735 30.5127 36.833 30.1446 36.8329 29.539V29.5099C36.8329 28.9358 36.4792 28.6403 34.7546 28.1995C32.6763 27.669 31.3343 27.0925 31.3342 25.0457V25.0142C31.334 23.1443 32.8381 21.9041 34.9455 21.9041C36.3368 21.8817 37.6922 22.346 38.7775 23.2169L37.598 24.9271C36.6848 24.2924 35.7861 23.9097 34.9166 23.9097C34.0469 23.9097 33.5892 24.3069 33.5893 24.8083V24.8374C33.5893 25.5156 34.0326 25.7385 35.8154 26.1938C37.9082 26.7388 39.0879 27.4922 39.088 29.2895V29.3186C39.0881 31.3678 37.5259 32.5159 35.2999 32.5159C33.6879 32.5219 32.13 31.9348 30.9229 30.8664Z" fill="white"/>
<path d="M21.9741 22.0608H26.1714C28.6216 22.0608 30.1038 23.5136 30.1038 25.6117V25.6411C30.1038 28.0183 28.2548 29.2511 25.9509 29.2511H24.2339V32.3326H21.9741V22.0608ZM26.0243 27.2407C27.1544 27.2407 27.8147 26.5658 27.8147 25.6851V25.6558C27.8147 24.6434 27.1104 24.1006 25.9803 24.1006H24.2339V27.2407H26.0243Z" fill="white"/>
</g>
</g>
</g>
<defs>
<filter id="filter0_i_31_5518" x="4" y="4" width="56" height="60" filterUnits="userSpaceOnUse" color-interpolation-filters="sRGB">
<feFlood flood-opacity="0" result="BackgroundImageFix"/>
<feBlend mode="normal" in="SourceGraphic" in2="BackgroundImageFix" result="shape"/>
<feColorMatrix in="SourceAlpha" type="matrix" values="0 0 0 0 0 0 0 0 0 0 0 0 0 0 0 0 0 0 127 0" result="hardAlpha"/>
<feOffset dy="4"/>
<feGaussianBlur stdDeviation="2"/>
<feComposite in2="hardAlpha" operator="arithmetic" k2="-1" k3="1"/>
<feColorMatrix type="matrix" values="0 0 0 0 0 0 0 0 0 0 0 0 0 0 0 0 0 0 0.25 0"/>
<feBlend mode="normal" in2="shape" result="effect1_innerShadow_31_5518"/>
</filter>
<filter id="filter1_d_31_5518" x="13.2617" y="11.5768" width="25.249" height="27.5055" filterUnits="userSpaceOnUse" color-interpolation-filters="sRGB">
<feFlood flood-opacity="0" result="BackgroundImageFix"/>
<feColorMatrix in="SourceAlpha" type="matrix" values="0 0 0 0 0 0 0 0 0 0 0 0 0 0 0 0 0 0 127 0" result="hardAlpha"/>
<feOffset dy="2"/>
<feGaussianBlur stdDeviation="2"/>
<feComposite in2="hardAlpha" operator="out"/>
<feColorMatrix type="matrix" values="0 0 0 0 0 0 0 0 0 0 0 0 0 0 0 0 0 0 0.25 0"/>
<feBlend mode="normal" in2="BackgroundImageFix" result="effect1_dropShadow_31_5518"/>
<feBlend mode="normal" in="SourceGraphic" in2="effect1_dropShadow_31_5518" result="shape"/>
</filter>
<filter id="filter2_d_31_5518" x="6.28564" y="16.7577" width="34.7246" height="33.1236" filterUnits="userSpaceOnUse" color-interpolation-filters="sRGB">
<feFlood flood-opacity="0" result="BackgroundImageFix"/>
<feColorMatrix in="SourceAlpha" type="matrix" values="0 0 0 0 0 0 0 0 0 0 0 0 0 0 0 0 0 0 127 0" result="hardAlpha"/>
<feOffset dy="2"/>
<feGaussianBlur stdDeviation="2"/>
<feComposite in2="hardAlpha" operator="out"/>
<feColorMatrix type="matrix" values="0 0 0 0 0 0 0 0 0 0 0 0 0 0 0 0 0 0 0.25 0"/>
<feBlend mode="normal" in2="BackgroundImageFix" result="effect1_dropShadow_31_5518"/>
<feBlend mode="normal" in="SourceGraphic" in2="effect1_dropShadow_31_5518" result="shape"/>
</filter>
<filter id="filter3_d_31_5518" x="29.8364" y="12.9479" width="28.3354" height="30.3615" filterUnits="userSpaceOnUse" color-interpolation-filters="sRGB">
<feFlood flood-opacity="0" result="BackgroundImageFix"/>
<feColorMatrix in="SourceAlpha" type="matrix" values="0 0 0 0 0 0 0 0 0 0 0 0 0 0 0 0 0 0 127 0" result="hardAlpha"/>
<feOffset dy="2"/>
<feGaussianBlur stdDeviation="2"/>
<feComposite in2="hardAlpha" operator="out"/>
<feColorMatrix type="matrix" values="0 0 0 0 0 0 0 0 0 0 0 0 0 0 0 0 0 0 0.25 0"/>
<feBlend mode="normal" in2="BackgroundImageFix" result="effect1_dropShadow_31_5518"/>
<feBlend mode="normal" in="SourceGraphic" in2="effect1_dropShadow_31_5518" result="shape"/>
</filter>
<filter id="filter4_d_31_5518" x="16.6899" y="21.1198" width="41.4814" height="39.0517" filterUnits="userSpaceOnUse" color-interpolation-filters="sRGB">
<feFlood flood-opacity="0" result="BackgroundImageFix"/>
<feColorMatrix in="SourceAlpha" type="matrix" values="0 0 0 0 0 0 0 0 0 0 0 0 0 0 0 0 0 0 127 0" result="hardAlpha"/>
<feOffset dy="2"/>
<feGaussianBlur stdDeviation="2"/>
<feComposite in2="hardAlpha" operator="out"/>
<feColorMatrix type="matrix" values="0 0 0 0 0 0 0 0 0 0 0 0 0 0 0 0 0 0 0.25 0"/>
<feBlend mode="normal" in2="BackgroundImageFix" result="effect1_dropShadow_31_5518"/>
<feBlend mode="normal" in="SourceGraphic" in2="effect1_dropShadow_31_5518" result="shape"/>
</filter>
<filter id="filter5_d_31_5518" x="16.6899" y="10.8911" width="35.7705" height="25.1055" filterUnits="userSpaceOnUse" color-interpolation-filters="sRGB">
<feFlood flood-opacity="0" result="BackgroundImageFix"/>
<feColorMatrix in="SourceAlpha" type="matrix" values="0 0 0 0 0 0 0 0 0 0 0 0 0 0 0 0 0 0 127 0" result="hardAlpha"/>
<feOffset dy="2"/>
<feGaussianBlur stdDeviation="2"/>
<feComposite in2="hardAlpha" operator="out"/>
<feColorMatrix type="matrix" values="0 0 0 0 0 0 0 0 0 0 0 0 0 0 0 0 0 0 0.25 0"/>
<feBlend mode="normal" in2="BackgroundImageFix" result="effect1_dropShadow_31_5518"/>
<feBlend mode="normal" in="SourceGraphic" in2="effect1_dropShadow_31_5518" result="shape"/>
</filter>
<filter id="filter6_d_31_5518" x="6.28564" y="8.28571" width="30.7617" height="19.6959" filterUnits="userSpaceOnUse" color-interpolation-filters="sRGB">
<feFlood flood-opacity="0" result="BackgroundImageFix"/>
<feColorMatrix in="SourceAlpha" type="matrix" values="0 0 0 0 0 0 0 0 0 0 0 0 0 0 0 0 0 0 127 0" result="hardAlpha"/>
<feOffset dy="2"/>
<feGaussianBlur stdDeviation="2"/>
<feComposite in2="hardAlpha" operator="out"/>
<feColorMatrix type="matrix" values="0 0 0 0 0 0 0 0 0 0 0 0 0 0 0 0 0 0 0.25 0"/>
<feBlend mode="normal" in2="BackgroundImageFix" result="effect1_dropShadow_31_5518"/>
<feBlend mode="normal" in="SourceGraphic" in2="effect1_dropShadow_31_5518" result="shape"/>
</filter>
<filter id="filter7_d_31_5518" x="14.5142" y="16.5143" width="35.4287" height="35.4286" filterUnits="userSpaceOnUse" color-interpolation-filters="sRGB">
<feFlood flood-opacity="0" result="BackgroundImageFix"/>
<feColorMatrix in="SourceAlpha" type="matrix" values="0 0 0 0 0 0 0 0 0 0 0 0 0 0 0 0 0 0 127 0" result="hardAlpha"/>
<feOffset dy="2"/>
<feGaussianBlur stdDeviation="2"/>
<feComposite in2="hardAlpha" operator="out"/>
<feColorMatrix type="matrix" values="0 0 0 0 0 0 0 0 0 0 0 0 0 0 0 0 0 0 0.25 0"/>
<feBlend mode="normal" in2="BackgroundImageFix" result="effect1_dropShadow_31_5518"/>
<feBlend mode="normal" in="SourceGraphic" in2="effect1_dropShadow_31_5518" result="shape"/>
</filter>
<linearGradient id="paint0_linear_31_5518" x1="32" y1="0" x2="32" y2="64" gradientUnits="userSpaceOnUse">
<stop stop-color="#3BEA62"/>
<stop offset="0.510417" stop-color="#087CFA"/>
<stop offset="1" stop-color="#B74AF7"/>
</linearGradient>
<linearGradient id="paint1_linear_31_5518" x1="10.8594" y1="61.4245" x2="49.7009" y2="13.1927" gradientUnits="userSpaceOnUse">
<stop offset="0.01613" stop-color="#6B57FF"/>
<stop offset="0.42357" stop-color="#B74AF7"/>
<stop offset="0.74587" stop-color="#FF318C"/>
</linearGradient>
<linearGradient id="paint2_linear_31_5518" x1="18.377" y1="35.5904" x2="30.769" y2="11.792" gradientUnits="userSpaceOnUse">
<stop stop-color="#AF1DF5"/>
<stop offset="0.2116" stop-color="#BC20E4"/>
<stop offset="0.62822" stop-color="#DD29B8"/>
<stop offset="1" stop-color="#FF318C"/>
</linearGradient>
<linearGradient id="paint3_linear_31_5518" x1="14.8202" y1="42.8702" x2="29.841" y2="23.0293" gradientUnits="userSpaceOnUse">
<stop offset="0.01613" stop-color="#6B57FF"/>
<stop offset="0.42357" stop-color="#B74AF7"/>
<stop offset="0.74587" stop-color="#FF318C"/>
</linearGradient>
<linearGradient id="paint4_linear_31_5518" x1="48.8055" y1="37.5149" x2="40.482" y2="17.7607" gradientUnits="userSpaceOnUse">
<stop stop-color="#293896"/>
<stop offset="0.07538" stop-color="#3B3AA2"/>
<stop offset="0.2871" stop-color="#6740C0"/>
<stop offset="0.49127" stop-color="#8A44D8"/>
<stop offset="0.68315" stop-color="#A347E9"/>
<stop offset="0.85788" stop-color="#B249F3"/>
<stop offset="1" stop-color="#B74AF7"/>
</linearGradient>
<linearGradient id="paint5_linear_31_5518" x1="41.984" y1="49.1728" x2="28.1464" y2="28.8903" gradientUnits="userSpaceOnUse">
<stop offset="0.01613" stop-color="#6B57FF"/>
<stop offset="0.78291" stop-color="#B74AF7"/>
</linearGradient>
<linearGradient id="paint6_linear_31_5518" x1="37.7899" y1="38.2859" x2="33.2055" y2="14.041" gradientUnits="userSpaceOnUse">
<stop offset="0.01613" stop-color="#6B57FF"/>
<stop offset="0.63699" stop-color="#B74AF7"/>
</linearGradient>
<linearGradient id="paint7_linear_31_5518" x1="15.2787" y1="27.7597" x2="22.4199" y2="14.7997" gradientUnits="userSpaceOnUse">
<stop stop-color="#AF1DF5"/>
<stop offset="0.2116" stop-color="#BC20E4"/>
<stop offset="0.62822" stop-color="#DD29B8"/>
<stop offset="1" stop-color="#FF318C"/>
</linearGradient>
<clipPath id="clip0_31_5518">
<rect width="64" height="64" fill="white"/>
</clipPath>
</defs>
</svg>
