<svg width="64" height="64" viewBox="0 0 64 64" fill="none" xmlns="http://www.w3.org/2000/svg">
<g clip-path="url(#clip0_31_5550)">
<path d="M48 0H16C7.16344 0 0 7.16344 0 16V48C0 56.8366 7.16344 64 16 64H48C56.8366 64 64 56.8366 64 48V16C64 7.16344 56.8366 0 48 0Z" fill="url(#paint0_linear_31_5550)"/>
<path d="M48 0H16C7.16344 0 0 7.16344 0 16V48C0 56.8366 7.16344 64 16 64H48C56.8366 64 64 56.8366 64 48V16C64 7.16344 56.8366 0 48 0Z" fill="url(#paint1_linear_31_5550)"/>
<g filter="url(#filter0_i_31_5550)">
<path d="M48 4H16C9.37258 4 4 9.37258 4 16V48C4 54.6274 9.37258 60 16 60H48C54.6274 60 60 54.6274 60 48V16C60 9.37258 54.6274 4 48 4Z" fill="black" fill-opacity="0.7"/>
<mask id="mask0_31_5550" style="mask-type:luminance" maskUnits="userSpaceOnUse" x="8" y="8" width="48" height="48">
<path d="M56 8H8V56H56V8Z" fill="white"/>
</mask>
<g mask="url(#mask0_31_5550)">
<g filter="url(#filter1_d_31_5550)">
<path d="M53.4755 43.3152L54.1715 24.2724L42.0727 21.5392L31.7856 28.4242L36.5669 42.5645L53.4765 43.3152H53.4755Z" fill="url(#paint2_linear_31_5550)"/>
</g>
<g filter="url(#filter2_d_31_5550)">
<path d="M50.796 33.1182L54.1715 24.2724L42.2679 19.0372L31.7856 28.4247L50.796 33.1182Z" fill="url(#paint3_linear_31_5550)"/>
</g>
<g filter="url(#filter3_d_31_5550)">
<path d="M38.361 53.7145L53.4755 43.3152L17.1249 27.1712L10.2856 46.6345L38.361 53.7145Z" fill="url(#paint4_linear_31_5550)"/>
</g>
<g filter="url(#filter4_d_31_5550)">
<path d="M10.2856 26.6048L34.4758 45.0396L50.796 33.1182L32.2518 12.5527L16.1137 9.8286L10.2856 26.6048Z" fill="url(#paint5_linear_31_5550)"/>
</g>
<g filter="url(#filter5_d_31_5550)">
<path d="M45.943 18.0571H18.5144V45.4857H45.943V18.0571Z" fill="black"/>
</g>
<path d="M21.6824 21.4464H25.9119C28.3814 21.4464 29.8749 22.9106 29.8749 25.0254V25.0546C29.8749 27.45 28.0115 28.693 25.6897 28.693H23.9594V31.7984H21.6824V21.4464ZM25.7638 26.667C26.9021 26.667 27.5681 25.9863 27.5681 25.099V25.0697C27.5681 24.0489 26.8582 23.5017 25.7194 23.5017H23.9594V26.667H25.7638Z" fill="white"/>
<path d="M28.6011 30.3931L30.0356 28.7963C30.6272 29.4468 31.2036 29.8313 31.9282 29.8313C32.7858 29.8313 33.3179 29.3138 33.3179 28.1161V21.4464H35.6548V28.2194C35.6548 29.4468 35.3001 30.3634 34.6788 30.9851C34.3164 31.3158 33.8918 31.571 33.4298 31.736C32.9677 31.901 32.4775 31.9724 31.9876 31.946C31.3421 31.9627 30.7013 31.8314 30.1143 31.5622C29.5273 31.2931 29.0097 30.8932 28.6011 30.3931Z" fill="white"/>
<path d="M32.2286 40.3428H21.9429V42.0571H32.2286V40.3428Z" fill="white"/>
</g>
</g>
</g>
<defs>
<filter id="filter0_i_31_5550" x="4" y="4" width="56" height="60" filterUnits="userSpaceOnUse" color-interpolation-filters="sRGB">
<feFlood flood-opacity="0" result="BackgroundImageFix"/>
<feBlend mode="normal" in="SourceGraphic" in2="BackgroundImageFix" result="shape"/>
<feColorMatrix in="SourceAlpha" type="matrix" values="0 0 0 0 0 0 0 0 0 0 0 0 0 0 0 0 0 0 127 0" result="hardAlpha"/>
<feOffset dy="4"/>
<feGaussianBlur stdDeviation="2"/>
<feComposite in2="hardAlpha" operator="arithmetic" k2="-1" k3="1"/>
<feColorMatrix type="matrix" values="0 0 0 0 0 0 0 0 0 0 0 0 0 0 0 0 0 0 0.25 0"/>
<feBlend mode="normal" in2="shape" result="effect1_innerShadow_31_5550"/>
</filter>
<filter id="filter1_d_31_5550" x="27.7856" y="19.5392" width="30.3857" height="29.776" filterUnits="userSpaceOnUse" color-interpolation-filters="sRGB">
<feFlood flood-opacity="0" result="BackgroundImageFix"/>
<feColorMatrix in="SourceAlpha" type="matrix" values="0 0 0 0 0 0 0 0 0 0 0 0 0 0 0 0 0 0 127 0" result="hardAlpha"/>
<feOffset dy="2"/>
<feGaussianBlur stdDeviation="2"/>
<feComposite in2="hardAlpha" operator="out"/>
<feColorMatrix type="matrix" values="0 0 0 0 0 0 0 0 0 0 0 0 0 0 0 0 0 0 0.25 0"/>
<feBlend mode="normal" in2="BackgroundImageFix" result="effect1_dropShadow_31_5550"/>
<feBlend mode="normal" in="SourceGraphic" in2="effect1_dropShadow_31_5550" result="shape"/>
</filter>
<filter id="filter2_d_31_5550" x="27.7856" y="17.0372" width="30.3857" height="22.0809" filterUnits="userSpaceOnUse" color-interpolation-filters="sRGB">
<feFlood flood-opacity="0" result="BackgroundImageFix"/>
<feColorMatrix in="SourceAlpha" type="matrix" values="0 0 0 0 0 0 0 0 0 0 0 0 0 0 0 0 0 0 127 0" result="hardAlpha"/>
<feOffset dy="2"/>
<feGaussianBlur stdDeviation="2"/>
<feComposite in2="hardAlpha" operator="out"/>
<feColorMatrix type="matrix" values="0 0 0 0 0 0 0 0 0 0 0 0 0 0 0 0 0 0 0.25 0"/>
<feBlend mode="normal" in2="BackgroundImageFix" result="effect1_dropShadow_31_5550"/>
<feBlend mode="normal" in="SourceGraphic" in2="effect1_dropShadow_31_5550" result="shape"/>
</filter>
<filter id="filter3_d_31_5550" x="6.28564" y="25.1712" width="51.1899" height="34.5433" filterUnits="userSpaceOnUse" color-interpolation-filters="sRGB">
<feFlood flood-opacity="0" result="BackgroundImageFix"/>
<feColorMatrix in="SourceAlpha" type="matrix" values="0 0 0 0 0 0 0 0 0 0 0 0 0 0 0 0 0 0 127 0" result="hardAlpha"/>
<feOffset dy="2"/>
<feGaussianBlur stdDeviation="2"/>
<feComposite in2="hardAlpha" operator="out"/>
<feColorMatrix type="matrix" values="0 0 0 0 0 0 0 0 0 0 0 0 0 0 0 0 0 0 0.25 0"/>
<feBlend mode="normal" in2="BackgroundImageFix" result="effect1_dropShadow_31_5550"/>
<feBlend mode="normal" in="SourceGraphic" in2="effect1_dropShadow_31_5550" result="shape"/>
</filter>
<filter id="filter4_d_31_5550" x="6.28564" y="7.8286" width="48.5103" height="43.211" filterUnits="userSpaceOnUse" color-interpolation-filters="sRGB">
<feFlood flood-opacity="0" result="BackgroundImageFix"/>
<feColorMatrix in="SourceAlpha" type="matrix" values="0 0 0 0 0 0 0 0 0 0 0 0 0 0 0 0 0 0 127 0" result="hardAlpha"/>
<feOffset dy="2"/>
<feGaussianBlur stdDeviation="2"/>
<feComposite in2="hardAlpha" operator="out"/>
<feColorMatrix type="matrix" values="0 0 0 0 0 0 0 0 0 0 0 0 0 0 0 0 0 0 0.25 0"/>
<feBlend mode="normal" in2="BackgroundImageFix" result="effect1_dropShadow_31_5550"/>
<feBlend mode="normal" in="SourceGraphic" in2="effect1_dropShadow_31_5550" result="shape"/>
</filter>
<filter id="filter5_d_31_5550" x="14.5144" y="16.0571" width="35.4287" height="35.4285" filterUnits="userSpaceOnUse" color-interpolation-filters="sRGB">
<feFlood flood-opacity="0" result="BackgroundImageFix"/>
<feColorMatrix in="SourceAlpha" type="matrix" values="0 0 0 0 0 0 0 0 0 0 0 0 0 0 0 0 0 0 127 0" result="hardAlpha"/>
<feOffset dy="2"/>
<feGaussianBlur stdDeviation="2"/>
<feComposite in2="hardAlpha" operator="out"/>
<feColorMatrix type="matrix" values="0 0 0 0 0 0 0 0 0 0 0 0 0 0 0 0 0 0 0.25 0"/>
<feBlend mode="normal" in2="BackgroundImageFix" result="effect1_dropShadow_31_5550"/>
<feBlend mode="normal" in="SourceGraphic" in2="effect1_dropShadow_31_5550" result="shape"/>
</filter>
<linearGradient id="paint0_linear_31_5550" x1="32" y1="0" x2="32" y2="64" gradientUnits="userSpaceOnUse">
<stop stop-color="#3BEA62"/>
<stop offset="0.510417" stop-color="#087CFA"/>
<stop offset="1" stop-color="#B74AF7"/>
</linearGradient>
<linearGradient id="paint1_linear_31_5550" x1="19.6306" y1="55.655" x2="46.0334" y2="15.123" gradientUnits="userSpaceOnUse">
<stop stop-color="#6B57FF"/>
<stop offset="0.461429" stop-color="#FF318C"/>
<stop offset="1" stop-color="#FDB60D"/>
</linearGradient>
<linearGradient id="paint2_linear_31_5550" x1="47.7646" y1="40.3392" x2="41.4062" y2="21.9712" gradientUnits="userSpaceOnUse">
<stop offset="0.001" stop-color="#FF318C"/>
<stop offset="1" stop-color="#FC801D"/>
</linearGradient>
<linearGradient id="paint3_linear_31_5550" x1="49.4185" y1="20.4489" x2="43.8391" y2="27.5346" gradientUnits="userSpaceOnUse">
<stop stop-color="#FF318C"/>
<stop offset="0.781" stop-color="#FC801D"/>
</linearGradient>
<linearGradient id="paint4_linear_31_5550" x1="47.1089" y1="48.9555" x2="15.0888" y2="37.4016" gradientUnits="userSpaceOnUse">
<stop offset="0.017" stop-color="#FF318C"/>
<stop offset="0.811" stop-color="#6B57FF"/>
</linearGradient>
<linearGradient id="paint5_linear_31_5550" x1="22.7112" y1="40.4485" x2="36.329" y2="16.3968" gradientUnits="userSpaceOnUse">
<stop offset="0.33" stop-color="#FF318C"/>
<stop offset="0.942" stop-color="#FDB60D"/>
</linearGradient>
<clipPath id="clip0_31_5550">
<rect width="64" height="64" fill="white"/>
</clipPath>
</defs>
</svg>
