<svg width="64" height="64" viewBox="0 0 64 64" fill="none" xmlns="http://www.w3.org/2000/svg">
<g clip-path="url(#clip0_31_5572)">
<path d="M48 0H16C7.16344 0 0 7.16344 0 16V48C0 56.8366 7.16344 64 16 64H48C56.8366 64 64 56.8366 64 48V16C64 7.16344 56.8366 0 48 0Z" fill="url(#paint0_linear_31_5572)"/>
<g filter="url(#filter0_i_31_5572)">
<path d="M48 4H16C9.37258 4 4 9.37258 4 16V48C4 54.6274 9.37258 60 16 60H48C54.6274 60 60 54.6274 60 48V16C60 9.37258 54.6274 4 48 4Z" fill="black" fill-opacity="0.7"/>
<mask id="mask0_31_5572" style="mask-type:luminance" maskUnits="userSpaceOnUse" x="8" y="8" width="48" height="48">
<path d="M56 8H8V56H56V8Z" fill="white"/>
</mask>
<g mask="url(#mask0_31_5572)">
<g filter="url(#filter1_d_31_5572)">
<g filter="url(#filter2_d_31_5572)">
<path d="M40.8273 16.9828L53.6504 27.648L49.033 37.0423L41.3027 34.8983H34.6147L40.8273 16.9828Z" fill="#07C3F2"/>
</g>
<g filter="url(#filter3_d_31_5572)">
<path d="M27.9085 23.9085L25.4262 37.0422L25.1885 41.504L18.9302 44.2148L10.0571 45.1702L12.7497 16.7954L28.8274 10.0571L38.7337 16.5531L27.9085 23.9085Z" fill="#21D789"/>
</g>
<g filter="url(#filter4_d_31_5572)">
<path d="M27.9085 23.9085L29.1154 49.216L25.1062 53.943L10.0571 45.1703L22.4137 26.7565L27.9085 23.9085Z" fill="#7AE46F"/>
</g>
<g filter="url(#filter5_d_31_5572)">
<path d="M44.4663 22.0617H29.2617L42.6972 10.0571L44.4663 22.0617Z" fill="#9AF156"/>
</g>
<g filter="url(#filter6_d_31_5572)">
<path d="M53.9429 49.3166L40.5576 53.8605L22.7336 48.8411L27.9085 23.9086L29.9748 22.0617L40.8274 21.0423L39.8445 31.9406L48.4754 28.5943L53.9429 49.3166Z" fill="#FCF84A"/>
</g>
<g filter="url(#filter7_d_31_5572)">
<path d="M18.2856 18.2857H45.7143V45.7143H18.2856V18.2857Z" fill="black"/>
</g>
<path d="M21.7051 40.5302H31.9908V42.2445H21.7051V40.5302Z" fill="white"/>
<path d="M21.7144 21.7143H25.9201C28.3704 21.7143 29.8561 23.168 29.8561 25.2663V25.2937C29.8561 27.6708 28.0047 28.9051 25.7007 28.9051H24.0001V31.9863H21.7144V21.7143ZM25.7647 26.8937C26.8938 26.8937 27.5567 26.2217 27.5567 25.3394V25.312C27.5567 24.2971 26.8527 23.7531 25.7281 23.7531H24.0001V26.8937H25.7647Z" fill="white"/>
<path d="M31.0812 26.8846V26.8572C31.068 26.1525 31.1977 25.4524 31.4626 24.7992C31.7275 24.1461 32.122 23.5533 32.6223 23.0569C33.1226 22.5604 33.7183 22.1705 34.3735 21.9107C35.0287 21.6509 35.7298 21.5265 36.4344 21.5452C37.1829 21.5073 37.931 21.6287 38.6292 21.9014C39.3274 22.1741 39.9598 22.5918 40.4846 23.1269L39.0492 24.7863C38.3583 24.0708 37.4149 23.6541 36.4206 23.6252C34.6881 23.6252 33.4401 25.0652 33.4401 26.8252V26.8572C33.4401 28.6172 34.6606 30.0846 36.4206 30.0846C37.5955 30.0846 38.3132 29.6275 39.1224 28.8823L40.5578 30.3315C40.0408 30.9358 39.3931 31.4146 38.6636 31.7314C37.9341 32.0482 37.142 32.1948 36.3475 32.16C35.6522 32.1705 34.962 32.0412 34.3177 31.7797C33.6734 31.5182 33.0882 31.1298 32.597 30.6377C32.1057 30.1456 31.7184 29.5598 31.458 28.9151C31.1976 28.2703 31.0695 27.5798 31.0812 26.8846Z" fill="white"/>
</g>
</g>
</g>
</g>
<defs>
<filter id="filter0_i_31_5572" x="4" y="4" width="56" height="60" filterUnits="userSpaceOnUse" color-interpolation-filters="sRGB">
<feFlood flood-opacity="0" result="BackgroundImageFix"/>
<feBlend mode="normal" in="SourceGraphic" in2="BackgroundImageFix" result="shape"/>
<feColorMatrix in="SourceAlpha" type="matrix" values="0 0 0 0 0 0 0 0 0 0 0 0 0 0 0 0 0 0 127 0" result="hardAlpha"/>
<feOffset dy="4"/>
<feGaussianBlur stdDeviation="2"/>
<feComposite in2="hardAlpha" operator="arithmetic" k2="-1" k3="1"/>
<feColorMatrix type="matrix" values="0 0 0 0 0 0 0 0 0 0 0 0 0 0 0 0 0 0 0.25 0"/>
<feBlend mode="normal" in2="shape" result="effect1_innerShadow_31_5572"/>
</filter>
<filter id="filter1_d_31_5572" x="6.05713" y="8.05714" width="51.8857" height="51.8858" filterUnits="userSpaceOnUse" color-interpolation-filters="sRGB">
<feFlood flood-opacity="0" result="BackgroundImageFix"/>
<feColorMatrix in="SourceAlpha" type="matrix" values="0 0 0 0 0 0 0 0 0 0 0 0 0 0 0 0 0 0 127 0" result="hardAlpha"/>
<feOffset dy="2"/>
<feGaussianBlur stdDeviation="2"/>
<feComposite in2="hardAlpha" operator="out"/>
<feColorMatrix type="matrix" values="0 0 0 0 0 0 0 0 0 0 0 0 0 0 0 0 0 0 0.25 0"/>
<feBlend mode="normal" in2="BackgroundImageFix" result="effect1_dropShadow_31_5572"/>
<feBlend mode="normal" in="SourceGraphic" in2="effect1_dropShadow_31_5572" result="shape"/>
</filter>
<filter id="filter2_d_31_5572" x="30.6147" y="14.9828" width="27.0356" height="28.0594" filterUnits="userSpaceOnUse" color-interpolation-filters="sRGB">
<feFlood flood-opacity="0" result="BackgroundImageFix"/>
<feColorMatrix in="SourceAlpha" type="matrix" values="0 0 0 0 0 0 0 0 0 0 0 0 0 0 0 0 0 0 127 0" result="hardAlpha"/>
<feOffset dy="2"/>
<feGaussianBlur stdDeviation="2"/>
<feComposite in2="hardAlpha" operator="out"/>
<feColorMatrix type="matrix" values="0 0 0 0 0 0 0 0 0 0 0 0 0 0 0 0 0 0 0.25 0"/>
<feBlend mode="normal" in2="BackgroundImageFix" result="effect1_dropShadow_31_5572"/>
<feBlend mode="normal" in="SourceGraphic" in2="effect1_dropShadow_31_5572" result="shape"/>
</filter>
<filter id="filter3_d_31_5572" x="6.05713" y="8.05714" width="36.6765" height="43.1131" filterUnits="userSpaceOnUse" color-interpolation-filters="sRGB">
<feFlood flood-opacity="0" result="BackgroundImageFix"/>
<feColorMatrix in="SourceAlpha" type="matrix" values="0 0 0 0 0 0 0 0 0 0 0 0 0 0 0 0 0 0 127 0" result="hardAlpha"/>
<feOffset dy="2"/>
<feGaussianBlur stdDeviation="2"/>
<feComposite in2="hardAlpha" operator="out"/>
<feColorMatrix type="matrix" values="0 0 0 0 0 0 0 0 0 0 0 0 0 0 0 0 0 0 0.25 0"/>
<feBlend mode="normal" in2="BackgroundImageFix" result="effect1_dropShadow_31_5572"/>
<feBlend mode="normal" in="SourceGraphic" in2="effect1_dropShadow_31_5572" result="shape"/>
</filter>
<filter id="filter4_d_31_5572" x="6.05713" y="21.9085" width="27.0583" height="38.0345" filterUnits="userSpaceOnUse" color-interpolation-filters="sRGB">
<feFlood flood-opacity="0" result="BackgroundImageFix"/>
<feColorMatrix in="SourceAlpha" type="matrix" values="0 0 0 0 0 0 0 0 0 0 0 0 0 0 0 0 0 0 127 0" result="hardAlpha"/>
<feOffset dy="2"/>
<feGaussianBlur stdDeviation="2"/>
<feComposite in2="hardAlpha" operator="out"/>
<feColorMatrix type="matrix" values="0 0 0 0 0 0 0 0 0 0 0 0 0 0 0 0 0 0 0.25 0"/>
<feBlend mode="normal" in2="BackgroundImageFix" result="effect1_dropShadow_31_5572"/>
<feBlend mode="normal" in="SourceGraphic" in2="effect1_dropShadow_31_5572" result="shape"/>
</filter>
<filter id="filter5_d_31_5572" x="25.2617" y="8.05714" width="23.2046" height="20.0045" filterUnits="userSpaceOnUse" color-interpolation-filters="sRGB">
<feFlood flood-opacity="0" result="BackgroundImageFix"/>
<feColorMatrix in="SourceAlpha" type="matrix" values="0 0 0 0 0 0 0 0 0 0 0 0 0 0 0 0 0 0 127 0" result="hardAlpha"/>
<feOffset dy="2"/>
<feGaussianBlur stdDeviation="2"/>
<feComposite in2="hardAlpha" operator="out"/>
<feColorMatrix type="matrix" values="0 0 0 0 0 0 0 0 0 0 0 0 0 0 0 0 0 0 0.25 0"/>
<feBlend mode="normal" in2="BackgroundImageFix" result="effect1_dropShadow_31_5572"/>
<feBlend mode="normal" in="SourceGraphic" in2="effect1_dropShadow_31_5572" result="shape"/>
</filter>
<filter id="filter6_d_31_5572" x="18.7336" y="19.0423" width="39.2092" height="40.8182" filterUnits="userSpaceOnUse" color-interpolation-filters="sRGB">
<feFlood flood-opacity="0" result="BackgroundImageFix"/>
<feColorMatrix in="SourceAlpha" type="matrix" values="0 0 0 0 0 0 0 0 0 0 0 0 0 0 0 0 0 0 127 0" result="hardAlpha"/>
<feOffset dy="2"/>
<feGaussianBlur stdDeviation="2"/>
<feComposite in2="hardAlpha" operator="out"/>
<feColorMatrix type="matrix" values="0 0 0 0 0 0 0 0 0 0 0 0 0 0 0 0 0 0 0.25 0"/>
<feBlend mode="normal" in2="BackgroundImageFix" result="effect1_dropShadow_31_5572"/>
<feBlend mode="normal" in="SourceGraphic" in2="effect1_dropShadow_31_5572" result="shape"/>
</filter>
<filter id="filter7_d_31_5572" x="14.2856" y="16.2857" width="35.4287" height="35.4286" filterUnits="userSpaceOnUse" color-interpolation-filters="sRGB">
<feFlood flood-opacity="0" result="BackgroundImageFix"/>
<feColorMatrix in="SourceAlpha" type="matrix" values="0 0 0 0 0 0 0 0 0 0 0 0 0 0 0 0 0 0 127 0" result="hardAlpha"/>
<feOffset dy="2"/>
<feGaussianBlur stdDeviation="2"/>
<feComposite in2="hardAlpha" operator="out"/>
<feColorMatrix type="matrix" values="0 0 0 0 0 0 0 0 0 0 0 0 0 0 0 0 0 0 0.25 0"/>
<feBlend mode="normal" in2="BackgroundImageFix" result="effect1_dropShadow_31_5572"/>
<feBlend mode="normal" in="SourceGraphic" in2="effect1_dropShadow_31_5572" result="shape"/>
</filter>
<linearGradient id="paint0_linear_31_5572" x1="32" y1="0" x2="32" y2="64" gradientUnits="userSpaceOnUse">
<stop stop-color="#FCF84A"/>
<stop offset="0.244792" stop-color="#9AF156"/>
<stop offset="0.510417" stop-color="#7AE36F"/>
<stop offset="0.744792" stop-color="#21D789"/>
<stop offset="1" stop-color="#07C3F2"/>
</linearGradient>
<clipPath id="clip0_31_5572">
<rect width="64" height="64" fill="white"/>
</clipPath>
</defs>
</svg>
