<svg width="64" height="64" viewBox="0 0 64 64" fill="none" xmlns="http://www.w3.org/2000/svg">
<g clip-path="url(#clip0_31_5595)">
<path d="M48 0H16C7.16344 0 0 7.16344 0 16V48C0 56.8366 7.16344 64 16 64H48C56.8366 64 64 56.8366 64 48V16C64 7.16344 56.8366 0 48 0Z" fill="url(#paint0_linear_31_5595)"/>
<path d="M48 0H16C7.16344 0 0 7.16344 0 16V48C0 56.8366 7.16344 64 16 64H48C56.8366 64 64 56.8366 64 48V16C64 7.16344 56.8366 0 48 0Z" fill="url(#paint1_linear_31_5595)"/>
<g filter="url(#filter0_i_31_5595)">
<path d="M48 4H16C9.37258 4 4 9.37258 4 16V48C4 54.6274 9.37258 60 16 60H48C54.6274 60 60 54.6274 60 48V16C60 9.37258 54.6274 4 48 4Z" fill="black" fill-opacity="0.7"/>
<mask id="mask0_31_5595" style="mask-type:luminance" maskUnits="userSpaceOnUse" x="8" y="8" width="48" height="48">
<path d="M56 8H8V56H56V8Z" fill="white"/>
</mask>
<g mask="url(#mask0_31_5595)">
<g filter="url(#filter1_d_31_5595)">
<path d="M40.25 28.8987L17.1013 33.7512C16.4969 33.8445 15.8994 33.9773 15.3125 34.1487C13.4735 34.6926 11.8537 35.8044 10.685 37.325C3.77376 46.3025 11.1875 58.036 21.785 55.7L47.18 52.021C49.859 51.4235 52.202 49.8106 53.7165 47.5212C60.264 37.745 51.785 25.5162 40.25 28.8987Z" fill="url(#paint2_linear_31_5595)"/>
</g>
<g filter="url(#filter2_d_31_5595)">
<path d="M27.5264 11.0562C24.6727 8.43125 20.4802 7.2125 15.7739 8.58875C13.8192 9.1671 12.0973 10.3484 10.8539 11.9638C6.12518 18.125 7.70768 25.4825 12.4514 29.2812L37.7152 50.375C39.0985 51.2775 40.6516 51.8875 42.2792 52.168C43.9068 52.4485 45.5746 52.3935 47.1802 52.006C49.8592 51.4085 52.2021 49.7956 53.7166 47.5062C57.6166 41.705 56.1876 35 51.9541 31.25L27.5264 11.0562Z" fill="url(#paint3_linear_31_5595)"/>
</g>
<g filter="url(#filter3_d_31_5595)">
<path d="M19.0024 8.05625C17.911 8.125 16.8293 8.3034 15.7736 8.58875C13.8189 9.16715 12.0969 10.3483 10.8536 11.9637C3.49986 21.5 11.3749 33.9875 22.6549 31.5012L52.9284 20.0825C53.8069 19.8881 54.5754 19.3612 55.0734 18.6125C56.9484 15.785 55.0324 12.3387 51.9534 12.32L20.2586 8C19.8086 8 19.3886 8.02625 19.0024 8.05625Z" fill="url(#paint4_linear_31_5595)"/>
</g>
<g filter="url(#filter4_d_31_5595)">
<path d="M17 17H47V47H17V17Z" fill="black"/>
</g>
<path d="M20.75 41.375H32V43.25H20.75V41.375Z" fill="white"/>
<path d="M30.5 32.3038L29.2625 31.1788C28.2671 31.8136 27.1093 32.147 25.9287 32.1388C22.4675 32.1575 20 29.5775 20 26.375C20 23.1838 22.5162 20.57 26 20.57C29.4838 20.57 31.9475 23.15 31.9475 26.3413V26.375C31.9438 27.5237 31.5978 28.6452 30.9538 29.5963L32.1087 30.575L30.5 32.3038ZM27.4363 29.5775L25.625 28.0213L27.1963 26.2588L29.0375 27.9275C29.24 27.4354 29.3395 26.9071 29.33 26.375C29.3456 25.9182 29.2692 25.4628 29.1054 25.036C28.9416 24.6092 28.6937 24.2197 28.3764 23.8906C28.0592 23.5614 27.6791 23.2994 27.2586 23.12C26.8381 22.9406 26.3859 22.8475 25.9287 22.8463C23.9412 22.8463 22.5537 24.4175 22.5537 26.3413V26.375C22.5382 26.8314 22.6144 27.2863 22.778 27.7126C22.9417 28.1389 23.1893 28.5281 23.5062 28.8569C23.8231 29.1856 24.2028 29.4474 24.6229 29.6266C25.0429 29.8058 25.4946 29.8988 25.9513 29.9C26.4645 29.9079 26.9726 29.7975 27.4363 29.5775Z" fill="white"/>
<path d="M33.8262 20.75H38.0562C41.5812 20.75 44.0187 23.1725 44.0187 26.33V26.375C44.0187 29.5325 41.5812 32 38.0562 32H33.8262V20.75ZM36.2937 23V29.75H38.0562C40.0737 29.75 41.4312 28.385 41.4312 26.3975V26.375C41.4526 25.9261 41.3799 25.4777 41.2179 25.0585C41.0559 24.6393 40.808 24.2587 40.4902 23.9409C40.1725 23.6232 39.7918 23.3753 39.3726 23.2132C38.9535 23.0512 38.5051 22.9786 38.0562 23H36.2937Z" fill="white"/>
</g>
</g>
</g>
<defs>
<filter id="filter0_i_31_5595" x="4" y="4" width="56" height="60" filterUnits="userSpaceOnUse" color-interpolation-filters="sRGB">
<feFlood flood-opacity="0" result="BackgroundImageFix"/>
<feBlend mode="normal" in="SourceGraphic" in2="BackgroundImageFix" result="shape"/>
<feColorMatrix in="SourceAlpha" type="matrix" values="0 0 0 0 0 0 0 0 0 0 0 0 0 0 0 0 0 0 127 0" result="hardAlpha"/>
<feOffset dy="4"/>
<feGaussianBlur stdDeviation="2"/>
<feComposite in2="hardAlpha" operator="arithmetic" k2="-1" k3="1"/>
<feColorMatrix type="matrix" values="0 0 0 0 0 0 0 0 0 0 0 0 0 0 0 0 0 0 0.25 0"/>
<feBlend mode="normal" in2="shape" result="effect1_innerShadow_31_5595"/>
</filter>
<filter id="filter1_d_31_5595" x="4.00049" y="26.3236" width="55.999" height="35.6777" filterUnits="userSpaceOnUse" color-interpolation-filters="sRGB">
<feFlood flood-opacity="0" result="BackgroundImageFix"/>
<feColorMatrix in="SourceAlpha" type="matrix" values="0 0 0 0 0 0 0 0 0 0 0 0 0 0 0 0 0 0 127 0" result="hardAlpha"/>
<feOffset dy="2"/>
<feGaussianBlur stdDeviation="2"/>
<feComposite in2="hardAlpha" operator="out"/>
<feColorMatrix type="matrix" values="0 0 0 0 0 0 0 0 0 0 0 0 0 0 0 0 0 0 0.25 0"/>
<feBlend mode="normal" in2="BackgroundImageFix" result="effect1_dropShadow_31_5595"/>
<feBlend mode="normal" in="SourceGraphic" in2="effect1_dropShadow_31_5595" result="shape"/>
</filter>
<filter id="filter2_d_31_5595" x="4.0022" y="6.01686" width="55.9983" height="52.3272" filterUnits="userSpaceOnUse" color-interpolation-filters="sRGB">
<feFlood flood-opacity="0" result="BackgroundImageFix"/>
<feColorMatrix in="SourceAlpha" type="matrix" values="0 0 0 0 0 0 0 0 0 0 0 0 0 0 0 0 0 0 127 0" result="hardAlpha"/>
<feOffset dy="2"/>
<feGaussianBlur stdDeviation="2"/>
<feComposite in2="hardAlpha" operator="out"/>
<feColorMatrix type="matrix" values="0 0 0 0 0 0 0 0 0 0 0 0 0 0 0 0 0 0 0.25 0"/>
<feBlend mode="normal" in2="BackgroundImageFix" result="effect1_dropShadow_31_5595"/>
<feBlend mode="normal" in="SourceGraphic" in2="effect1_dropShadow_31_5595" result="shape"/>
</filter>
<filter id="filter3_d_31_5595" x="3.99487" y="6" width="55.8201" height="31.822" filterUnits="userSpaceOnUse" color-interpolation-filters="sRGB">
<feFlood flood-opacity="0" result="BackgroundImageFix"/>
<feColorMatrix in="SourceAlpha" type="matrix" values="0 0 0 0 0 0 0 0 0 0 0 0 0 0 0 0 0 0 127 0" result="hardAlpha"/>
<feOffset dy="2"/>
<feGaussianBlur stdDeviation="2"/>
<feComposite in2="hardAlpha" operator="out"/>
<feColorMatrix type="matrix" values="0 0 0 0 0 0 0 0 0 0 0 0 0 0 0 0 0 0 0.25 0"/>
<feBlend mode="normal" in2="BackgroundImageFix" result="effect1_dropShadow_31_5595"/>
<feBlend mode="normal" in="SourceGraphic" in2="effect1_dropShadow_31_5595" result="shape"/>
</filter>
<filter id="filter4_d_31_5595" x="13" y="15" width="38" height="38" filterUnits="userSpaceOnUse" color-interpolation-filters="sRGB">
<feFlood flood-opacity="0" result="BackgroundImageFix"/>
<feColorMatrix in="SourceAlpha" type="matrix" values="0 0 0 0 0 0 0 0 0 0 0 0 0 0 0 0 0 0 127 0" result="hardAlpha"/>
<feOffset dy="2"/>
<feGaussianBlur stdDeviation="2"/>
<feComposite in2="hardAlpha" operator="out"/>
<feColorMatrix type="matrix" values="0 0 0 0 0 0 0 0 0 0 0 0 0 0 0 0 0 0 0.25 0"/>
<feBlend mode="normal" in2="BackgroundImageFix" result="effect1_dropShadow_31_5595"/>
<feBlend mode="normal" in="SourceGraphic" in2="effect1_dropShadow_31_5595" result="shape"/>
</filter>
<linearGradient id="paint0_linear_31_5595" x1="32" y1="0" x2="32" y2="64" gradientUnits="userSpaceOnUse">
<stop stop-color="#3BEA62"/>
<stop offset="0.510417" stop-color="#087CFA"/>
<stop offset="1" stop-color="#B74AF7"/>
</linearGradient>
<linearGradient id="paint1_linear_31_5595" x1="19.6306" y1="55.655" x2="46.0334" y2="15.123" gradientUnits="userSpaceOnUse">
<stop stop-color="#6B57FF"/>
<stop offset="0.461429" stop-color="#FF318C"/>
<stop offset="1" stop-color="#FDB60D"/>
</linearGradient>
<linearGradient id="paint2_linear_31_5595" x1="7.02129" y1="45.6912" x2="46.1938" y2="40.0587" gradientUnits="userSpaceOnUse">
<stop offset="0.18" stop-color="#FC801D"/>
<stop offset="0.63" stop-color="#FF318C"/>
</linearGradient>
<linearGradient id="paint3_linear_31_5595" x1="1.30643" y1="7.41125" x2="57.0166" y2="48.815" gradientUnits="userSpaceOnUse">
<stop stop-color="#FF318C"/>
<stop offset="0.4" stop-color="#B74AF7"/>
<stop offset="0.87" stop-color="#FF318C"/>
</linearGradient>
<linearGradient id="paint4_linear_31_5595" x1="-5.16638" y1="25.7562" x2="56.6149" y2="11.2662" gradientUnits="userSpaceOnUse">
<stop stop-color="#FF318C"/>
<stop offset="0.2" stop-color="#D73BAB"/>
<stop offset="0.51" stop-color="#9D4AD8"/>
<stop offset="0.75" stop-color="#7953F4"/>
<stop offset="0.87" stop-color="#6B57FF"/>
</linearGradient>
<clipPath id="clip0_31_5595">
<rect width="64" height="64" fill="white"/>
</clipPath>
</defs>
</svg>
