<svg width="64" height="64" viewBox="0 0 64 64" fill="none" xmlns="http://www.w3.org/2000/svg">
<g clip-path="url(#clip0_31_5636)">
<path d="M48 0H16C7.16344 0 0 7.16344 0 16V48C0 56.8366 7.16344 64 16 64H48C56.8366 64 64 56.8366 64 48V16C64 7.16344 56.8366 0 48 0Z" fill="url(#paint0_linear_31_5636)"/>
<path d="M48 0H16C7.16344 0 0 7.16344 0 16V48C0 56.8366 7.16344 64 16 64H48C56.8366 64 64 56.8366 64 48V16C64 7.16344 56.8366 0 48 0Z" fill="url(#paint1_linear_31_5636)"/>
<g filter="url(#filter0_i_31_5636)">
<path d="M48 4H16C9.37258 4 4 9.37258 4 16V48C4 54.6274 9.37258 60 16 60H48C54.6274 60 60 54.6274 60 48V16C60 9.37258 54.6274 4 48 4Z" fill="black" fill-opacity="0.7"/>
<mask id="mask0_31_5636" style="mask-type:luminance" maskUnits="userSpaceOnUse" x="8" y="8" width="48" height="48">
<path d="M56 8H8V56H56V8Z" fill="white"/>
</mask>
<g mask="url(#mask0_31_5636)">
<g filter="url(#filter1_d_31_5636)">
<path d="M21.9017 19.8354L20.6125 42.8069L17.2982 53.888L10.0571 24.4618L21.9017 19.8354Z" fill="url(#paint2_linear_31_5636)"/>
</g>
<g filter="url(#filter2_d_31_5636)">
<path d="M21.9017 19.8354L23.232 10.0022L40.9143 53.888H17.2983L20.6126 42.8068L21.9017 19.8354Z" fill="url(#paint3_linear_31_5636)"/>
</g>
<g filter="url(#filter3_d_31_5636)">
<path d="M32.1599 39.5108H53.9429L46.6605 10.0022H23.2319L32.1599 39.5108Z" fill="url(#paint4_linear_31_5636)"/>
</g>
<g filter="url(#filter4_d_31_5636)">
<path d="M18.2856 18.2857H45.7143V45.7143H18.2856V18.2857Z" fill="black"/>
</g>
<path d="M21.7051 40.5303H31.9908V42.2446H21.7051V40.5303Z" fill="white"/>
<path d="M21.7144 21.6869H26.4138C26.9591 21.651 27.5059 21.7252 28.0219 21.9051C28.5379 22.0849 29.0124 22.3667 29.4172 22.7337C29.717 23.0464 29.9502 23.4168 30.1026 23.8222C30.2551 24.2277 30.3236 24.6598 30.3041 25.0926V25.1246C30.3353 25.8538 30.1195 26.5722 29.6915 27.1635C29.2846 27.6892 28.7381 28.0899 28.1144 28.32L30.6332 32.0046H27.9818L25.8287 28.8366H23.9544V32.0046H21.7144V21.6869ZM26.2858 26.7155C26.7476 26.7318 27.1995 26.579 27.5567 26.2857C27.7054 26.1528 27.8234 25.9891 27.9023 25.806C27.9813 25.6228 28.0193 25.4246 28.0138 25.2252V25.1978C28.0297 24.9904 27.9966 24.7822 27.9172 24.5901C27.8378 24.3979 27.7143 24.2271 27.5567 24.0914C27.1728 23.8257 26.7106 23.6969 26.2447 23.7257H23.9635V26.6972L26.2858 26.7155Z" fill="white"/>
<path d="M37.7876 25.0926H35.4287V23.0126H37.7693V20.6903H39.9087V23.0126H42.2859V25.0926H39.927V27.4149H37.7876V25.0926Z" fill="white"/>
<path d="M33.3121 30.72H30.9761V28.64H33.3121V26.3177H35.4515V28.64H37.7875V30.72H35.4515V33.0423H33.3121V30.72Z" fill="white"/>
</g>
</g>
</g>
<defs>
<filter id="filter0_i_31_5636" x="4" y="4" width="56" height="60" filterUnits="userSpaceOnUse" color-interpolation-filters="sRGB">
<feFlood flood-opacity="0" result="BackgroundImageFix"/>
<feBlend mode="normal" in="SourceGraphic" in2="BackgroundImageFix" result="shape"/>
<feColorMatrix in="SourceAlpha" type="matrix" values="0 0 0 0 0 0 0 0 0 0 0 0 0 0 0 0 0 0 127 0" result="hardAlpha"/>
<feOffset dy="4"/>
<feGaussianBlur stdDeviation="2"/>
<feComposite in2="hardAlpha" operator="arithmetic" k2="-1" k3="1"/>
<feColorMatrix type="matrix" values="0 0 0 0 0 0 0 0 0 0 0 0 0 0 0 0 0 0 0.25 0"/>
<feBlend mode="normal" in2="shape" result="effect1_innerShadow_31_5636"/>
</filter>
<filter id="filter1_d_31_5636" x="6.05713" y="17.8354" width="19.8447" height="42.0526" filterUnits="userSpaceOnUse" color-interpolation-filters="sRGB">
<feFlood flood-opacity="0" result="BackgroundImageFix"/>
<feColorMatrix in="SourceAlpha" type="matrix" values="0 0 0 0 0 0 0 0 0 0 0 0 0 0 0 0 0 0 127 0" result="hardAlpha"/>
<feOffset dy="2"/>
<feGaussianBlur stdDeviation="2"/>
<feComposite in2="hardAlpha" operator="out"/>
<feColorMatrix type="matrix" values="0 0 0 0 0 0 0 0 0 0 0 0 0 0 0 0 0 0 0.25 0"/>
<feBlend mode="normal" in2="BackgroundImageFix" result="effect1_dropShadow_31_5636"/>
<feBlend mode="normal" in="SourceGraphic" in2="effect1_dropShadow_31_5636" result="shape"/>
</filter>
<filter id="filter2_d_31_5636" x="13.2983" y="8.00224" width="31.6162" height="51.8858" filterUnits="userSpaceOnUse" color-interpolation-filters="sRGB">
<feFlood flood-opacity="0" result="BackgroundImageFix"/>
<feColorMatrix in="SourceAlpha" type="matrix" values="0 0 0 0 0 0 0 0 0 0 0 0 0 0 0 0 0 0 127 0" result="hardAlpha"/>
<feOffset dy="2"/>
<feGaussianBlur stdDeviation="2"/>
<feComposite in2="hardAlpha" operator="out"/>
<feColorMatrix type="matrix" values="0 0 0 0 0 0 0 0 0 0 0 0 0 0 0 0 0 0 0.25 0"/>
<feBlend mode="normal" in2="BackgroundImageFix" result="effect1_dropShadow_31_5636"/>
<feBlend mode="normal" in="SourceGraphic" in2="effect1_dropShadow_31_5636" result="shape"/>
</filter>
<filter id="filter3_d_31_5636" x="19.2319" y="8.00224" width="38.7109" height="37.5086" filterUnits="userSpaceOnUse" color-interpolation-filters="sRGB">
<feFlood flood-opacity="0" result="BackgroundImageFix"/>
<feColorMatrix in="SourceAlpha" type="matrix" values="0 0 0 0 0 0 0 0 0 0 0 0 0 0 0 0 0 0 127 0" result="hardAlpha"/>
<feOffset dy="2"/>
<feGaussianBlur stdDeviation="2"/>
<feComposite in2="hardAlpha" operator="out"/>
<feColorMatrix type="matrix" values="0 0 0 0 0 0 0 0 0 0 0 0 0 0 0 0 0 0 0.25 0"/>
<feBlend mode="normal" in2="BackgroundImageFix" result="effect1_dropShadow_31_5636"/>
<feBlend mode="normal" in="SourceGraphic" in2="effect1_dropShadow_31_5636" result="shape"/>
</filter>
<filter id="filter4_d_31_5636" x="14.2856" y="16.2857" width="35.4287" height="35.4286" filterUnits="userSpaceOnUse" color-interpolation-filters="sRGB">
<feFlood flood-opacity="0" result="BackgroundImageFix"/>
<feColorMatrix in="SourceAlpha" type="matrix" values="0 0 0 0 0 0 0 0 0 0 0 0 0 0 0 0 0 0 127 0" result="hardAlpha"/>
<feOffset dy="2"/>
<feGaussianBlur stdDeviation="2"/>
<feComposite in2="hardAlpha" operator="out"/>
<feColorMatrix type="matrix" values="0 0 0 0 0 0 0 0 0 0 0 0 0 0 0 0 0 0 0.25 0"/>
<feBlend mode="normal" in2="BackgroundImageFix" result="effect1_dropShadow_31_5636"/>
<feBlend mode="normal" in="SourceGraphic" in2="effect1_dropShadow_31_5636" result="shape"/>
</filter>
<linearGradient id="paint0_linear_31_5636" x1="32" y1="0" x2="32" y2="64" gradientUnits="userSpaceOnUse">
<stop stop-color="#3BEA62"/>
<stop offset="0.510417" stop-color="#087CFA"/>
<stop offset="1" stop-color="#B74AF7"/>
</linearGradient>
<linearGradient id="paint1_linear_31_5636" x1="5.8589" y1="-2.62742" x2="66.6975" y2="67.1795" gradientUnits="userSpaceOnUse">
<stop offset="0.18" stop-color="#FDB60D"/>
<stop offset="0.49" stop-color="#FF45ED"/>
<stop offset="0.82" stop-color="#DD1265"/>
</linearGradient>
<linearGradient id="paint2_linear_31_5636" x1="13.2708" y1="20.8503" x2="26.56" y2="54.464" gradientUnits="userSpaceOnUse">
<stop offset="0.22" stop-color="#DD1265"/>
<stop offset="0.74" stop-color="#FF45ED"/>
<stop offset="1" stop-color="#FDB60D"/>
</linearGradient>
<linearGradient id="paint3_linear_31_5636" x1="42.8343" y1="55.9495" x2="10.336" y2="21.3805" gradientUnits="userSpaceOnUse">
<stop offset="0.11" stop-color="#FDB60D"/>
<stop offset="0.51" stop-color="#FF45ED"/>
<stop offset="0.76" stop-color="#FF45ED"/>
<stop offset="1" stop-color="#FDB60D"/>
</linearGradient>
<linearGradient id="paint4_linear_31_5636" x1="26.0434" y1="8.79084" x2="53.9199" y2="42.0799" gradientUnits="userSpaceOnUse">
<stop offset="0.18" stop-color="#FDB60D"/>
<stop offset="0.49" stop-color="#FF45ED"/>
<stop offset="0.82" stop-color="#DD1265"/>
</linearGradient>
<clipPath id="clip0_31_5636">
<rect width="64" height="64" fill="white"/>
</clipPath>
</defs>
</svg>
