<svg width="64" height="64" viewBox="0 0 64 64" fill="none" xmlns="http://www.w3.org/2000/svg">
<g clip-path="url(#clip0_31_5615)">
<path d="M48 0H16C7.16344 0 0 7.16344 0 16V48C0 56.8366 7.16344 64 16 64H48C56.8366 64 64 56.8366 64 48V16C64 7.16344 56.8366 0 48 0Z" fill="url(#paint0_linear_31_5615)"/>
<path d="M48 0H16C7.16344 0 0 7.16344 0 16V48C0 56.8366 7.16344 64 16 64H48C56.8366 64 64 56.8366 64 48V16C64 7.16344 56.8366 0 48 0Z" fill="url(#paint1_linear_31_5615)"/>
<g filter="url(#filter0_i_31_5615)">
<path d="M48 4H16C9.37258 4 4 9.37258 4 16V48C4 54.6274 9.37258 60 16 60H48C54.6274 60 60 54.6274 60 48V16C60 9.37258 54.6274 4 48 4Z" fill="black" fill-opacity="0.7"/>
<mask id="mask0_31_5615" style="mask-type:luminance" maskUnits="userSpaceOnUse" x="7" y="7" width="49" height="49">
<path d="M55.75 7.75H7.75V55.75H55.75V7.75Z" fill="white"/>
</mask>
<g mask="url(#mask0_31_5615)">
<g filter="url(#filter1_d_31_5615)">
<path d="M41.9031 19.5991L26.3465 39.2563L22.8357 53.629H46.4517L53.693 24.2026L41.9031 19.5991Z" fill="url(#paint2_linear_31_5615)"/>
</g>
<g filter="url(#filter2_d_31_5615)">
<path d="M40.518 9.74315H17.0894L9.80713 39.2563H44.6688L40.518 9.74315Z" fill="url(#paint3_linear_31_5615)"/>
</g>
<g filter="url(#filter3_d_31_5615)">
<path d="M41.7385 18.0906L40.5179 9.74315L37.8848 18.0906H41.7385Z" fill="url(#paint4_linear_31_5615)"/>
</g>
<g filter="url(#filter4_d_31_5615)">
<path d="M18.0356 18.0357H45.4643V45.4643H18.0356V18.0357Z" fill="black"/>
</g>
<g filter="url(#filter5_d_31_5615)">
<path d="M21.4551 40.2803H31.7408V41.9946H21.4551V40.2803Z" fill="white"/>
<path d="M32.6825 29.5466H31.5625V27.6632H33.0071L33.3728 25.478H32.0791V23.59H33.6974L34.0676 21.4369H36.0151L35.6357 23.59H37.7843L38.1545 21.4414H40.0974L39.7317 23.59H40.8517V25.478H39.4071L39.0368 27.6632H40.3351V29.5466H38.7122L38.3283 31.7592H36.3854L36.7648 29.5466H34.63L34.2643 31.7592H32.2985L32.6825 29.5466ZM37.0894 27.6632L37.4643 25.478H35.3203L34.9545 27.6632H37.0894Z" fill="white"/>
<path d="M21.4641 21.4369H26.191C26.7369 21.4011 27.2845 21.4754 27.8012 21.6552C28.3179 21.835 28.7932 22.1168 29.199 22.4837C29.498 22.7968 29.7303 23.1672 29.8819 23.5727C30.0336 23.9782 30.1014 24.4102 30.0813 24.8426V24.87C30.1168 25.6012 29.9006 26.3224 29.4687 26.9134C29.0547 27.4437 28.4981 27.8449 27.8641 28.07L30.383 31.7546H27.7316L25.5967 28.5866H23.7498V31.7546H21.4641V21.4369ZM26.0356 26.4654C26.5068 26.489 26.9698 26.3358 27.3338 26.0357C27.4826 25.9028 27.6005 25.7391 27.6795 25.5559C27.7585 25.3727 27.7965 25.1745 27.791 24.9751V24.9477C27.808 24.7403 27.7754 24.5318 27.6959 24.3394C27.6164 24.147 27.4923 23.9764 27.3338 23.8414C26.9507 23.5738 26.4884 23.4433 26.0218 23.4711H23.7498V26.4471L26.0356 26.4654Z" fill="white"/>
</g>
</g>
</g>
</g>
<defs>
<filter id="filter0_i_31_5615" x="4" y="4" width="56" height="60" filterUnits="userSpaceOnUse" color-interpolation-filters="sRGB">
<feFlood flood-opacity="0" result="BackgroundImageFix"/>
<feBlend mode="normal" in="SourceGraphic" in2="BackgroundImageFix" result="shape"/>
<feColorMatrix in="SourceAlpha" type="matrix" values="0 0 0 0 0 0 0 0 0 0 0 0 0 0 0 0 0 0 127 0" result="hardAlpha"/>
<feOffset dy="4"/>
<feGaussianBlur stdDeviation="2"/>
<feComposite in2="hardAlpha" operator="arithmetic" k2="-1" k3="1"/>
<feColorMatrix type="matrix" values="0 0 0 0 0 0 0 0 0 0 0 0 0 0 0 0 0 0 0.25 0"/>
<feBlend mode="normal" in2="shape" result="effect1_innerShadow_31_5615"/>
</filter>
<filter id="filter1_d_31_5615" x="19.1786" y="17.7705" width="38.1717" height="41.3442" filterUnits="userSpaceOnUse" color-interpolation-filters="sRGB">
<feFlood flood-opacity="0" result="BackgroundImageFix"/>
<feColorMatrix in="SourceAlpha" type="matrix" values="0 0 0 0 0 0 0 0 0 0 0 0 0 0 0 0 0 0 127 0" result="hardAlpha"/>
<feOffset dy="1.82857"/>
<feGaussianBlur stdDeviation="1.82857"/>
<feComposite in2="hardAlpha" operator="out"/>
<feColorMatrix type="matrix" values="0 0 0 0 0 0 0 0 0 0 0 0 0 0 0 0 0 0 0.25 0"/>
<feBlend mode="normal" in2="BackgroundImageFix" result="effect1_dropShadow_31_5615"/>
<feBlend mode="normal" in="SourceGraphic" in2="effect1_dropShadow_31_5615" result="shape"/>
</filter>
<filter id="filter2_d_31_5615" x="6.14999" y="7.91458" width="42.1761" height="36.8274" filterUnits="userSpaceOnUse" color-interpolation-filters="sRGB">
<feFlood flood-opacity="0" result="BackgroundImageFix"/>
<feColorMatrix in="SourceAlpha" type="matrix" values="0 0 0 0 0 0 0 0 0 0 0 0 0 0 0 0 0 0 127 0" result="hardAlpha"/>
<feOffset dy="1.82857"/>
<feGaussianBlur stdDeviation="1.82857"/>
<feComposite in2="hardAlpha" operator="out"/>
<feColorMatrix type="matrix" values="0 0 0 0 0 0 0 0 0 0 0 0 0 0 0 0 0 0 0.25 0"/>
<feBlend mode="normal" in2="BackgroundImageFix" result="effect1_dropShadow_31_5615"/>
<feBlend mode="normal" in="SourceGraphic" in2="effect1_dropShadow_31_5615" result="shape"/>
</filter>
<filter id="filter3_d_31_5615" x="34.2276" y="7.91458" width="11.168" height="15.6617" filterUnits="userSpaceOnUse" color-interpolation-filters="sRGB">
<feFlood flood-opacity="0" result="BackgroundImageFix"/>
<feColorMatrix in="SourceAlpha" type="matrix" values="0 0 0 0 0 0 0 0 0 0 0 0 0 0 0 0 0 0 127 0" result="hardAlpha"/>
<feOffset dy="1.82857"/>
<feGaussianBlur stdDeviation="1.82857"/>
<feComposite in2="hardAlpha" operator="out"/>
<feColorMatrix type="matrix" values="0 0 0 0 0 0 0 0 0 0 0 0 0 0 0 0 0 0 0.25 0"/>
<feBlend mode="normal" in2="BackgroundImageFix" result="effect1_dropShadow_31_5615"/>
<feBlend mode="normal" in="SourceGraphic" in2="effect1_dropShadow_31_5615" result="shape"/>
</filter>
<filter id="filter4_d_31_5615" x="14.3785" y="16.2071" width="34.743" height="34.7429" filterUnits="userSpaceOnUse" color-interpolation-filters="sRGB">
<feFlood flood-opacity="0" result="BackgroundImageFix"/>
<feColorMatrix in="SourceAlpha" type="matrix" values="0 0 0 0 0 0 0 0 0 0 0 0 0 0 0 0 0 0 127 0" result="hardAlpha"/>
<feOffset dy="1.82857"/>
<feGaussianBlur stdDeviation="1.82857"/>
<feComposite in2="hardAlpha" operator="out"/>
<feColorMatrix type="matrix" values="0 0 0 0 0 0 0 0 0 0 0 0 0 0 0 0 0 0 0.25 0"/>
<feBlend mode="normal" in2="BackgroundImageFix" result="effect1_dropShadow_31_5615"/>
<feBlend mode="normal" in="SourceGraphic" in2="effect1_dropShadow_31_5615" result="shape"/>
</filter>
<filter id="filter5_d_31_5615" x="17.7979" y="19.5996" width="26.7108" height="27.8807" filterUnits="userSpaceOnUse" color-interpolation-filters="sRGB">
<feFlood flood-opacity="0" result="BackgroundImageFix"/>
<feColorMatrix in="SourceAlpha" type="matrix" values="0 0 0 0 0 0 0 0 0 0 0 0 0 0 0 0 0 0 127 0" result="hardAlpha"/>
<feOffset dy="1.82857"/>
<feGaussianBlur stdDeviation="1.82857"/>
<feComposite in2="hardAlpha" operator="out"/>
<feColorMatrix type="matrix" values="0 0 0 0 0 0 0 0 0 0 0 0 0 0 0 0 0 0 0.25 0"/>
<feBlend mode="normal" in2="BackgroundImageFix" result="effect1_dropShadow_31_5615"/>
<feBlend mode="normal" in="SourceGraphic" in2="effect1_dropShadow_31_5615" result="shape"/>
</filter>
<linearGradient id="paint0_linear_31_5615" x1="32" y1="0" x2="32" y2="64" gradientUnits="userSpaceOnUse">
<stop stop-color="#3BEA62"/>
<stop offset="0.510417" stop-color="#087CFA"/>
<stop offset="1" stop-color="#B74AF7"/>
</linearGradient>
<linearGradient id="paint1_linear_31_5615" x1="17.7683" y1="64.172" x2="51.9915" y2="9.173" gradientUnits="userSpaceOnUse">
<stop offset="0.02" stop-color="#FF45ED"/>
<stop offset="0.4" stop-color="#DD1265"/>
<stop offset="1" stop-color="#FDB60D"/>
</linearGradient>
<linearGradient id="paint2_linear_31_5615" x1="31.4025" y1="53.7205" x2="50.3285" y2="26.1409" gradientUnits="userSpaceOnUse">
<stop offset="0.02" stop-color="#FF45ED"/>
<stop offset="0.4" stop-color="#DD1265"/>
<stop offset="1" stop-color="#FDB60D"/>
</linearGradient>
<linearGradient id="paint3_linear_31_5615" x1="10.9545" y1="43.238" x2="40.4174" y2="15.526" gradientUnits="userSpaceOnUse">
<stop offset="0.02" stop-color="#FF45ED"/>
<stop offset="0.66" stop-color="#DD1265"/>
</linearGradient>
<linearGradient id="paint4_linear_31_5615" x1="39.6493" y1="8.70545" x2="39.951" y2="26.118" gradientUnits="userSpaceOnUse">
<stop stop-color="#DD1265"/>
<stop offset="0.06" stop-color="#DF1961"/>
<stop offset="0.7" stop-color="#F46330"/>
<stop offset="1" stop-color="#FC801D"/>
</linearGradient>
<clipPath id="clip0_31_5615">
<rect width="64" height="64" fill="white"/>
</clipPath>
</defs>
</svg>
