<svg width="64" height="64" viewBox="0 0 64 64" fill="none" xmlns="http://www.w3.org/2000/svg">
<g clip-path="url(#clip0_31_5657)">
<path d="M48 0H16C7.16344 0 0 7.16344 0 16V48C0 56.8366 7.16344 64 16 64H48C56.8366 64 64 56.8366 64 48V16C64 7.16344 56.8366 0 48 0Z" fill="url(#paint0_linear_31_5657)"/>
<g filter="url(#filter0_i_31_5657)">
<path d="M48 4H16C9.37258 4 4 9.37258 4 16V48C4 54.6274 9.37258 60 16 60H48C54.6274 60 60 54.6274 60 48V16C60 9.37258 54.6274 4 48 4Z" fill="black" fill-opacity="0.7"/>
<g filter="url(#filter1_d_31_5657)">
<path d="M26.8672 14.547L26.6171 14.1718C25.5043 12.5026 23.6309 11.5 21.6248 11.5H17.5C14.1863 11.5 11.5 14.1863 11.5 17.5V46.5C11.5 49.8137 14.1863 52.5 17.5 52.5H46.5C49.8137 52.5 52.5 49.8137 52.5 46.5V25C52.5 21.6863 49.8137 19 46.5 19H35.1877C31.8442 19 28.7219 17.329 26.8672 14.547ZM26.8672 14.547L28.5313 13.4376" stroke="url(#paint1_linear_31_5657)" stroke-width="4"/>
</g>
<g filter="url(#filter2_d_31_5657)">
<path fill-rule="evenodd" clip-rule="evenodd" d="M27.0111 35.1981C27.4523 37.7364 29.7621 39.6776 32.5362 39.6776H41.3983C42.9441 39.6776 44.353 39.221 45.3651 38.1205C46.3657 37.032 46.9314 35.5311 46.9999 33.7799V33.739C46.9999 32.0525 46.3052 30.3472 45.0449 29.2084C43.8273 28.1079 42.2068 27.5014 40.4822 27.5014H35.4401V26.728C35.4401 26.4205 35.2489 26.176 34.9928 26.0653C34.7829 25.9742 34.5303 25.9725 34.3026 26.0985L31.0082 27.9213C30.5021 28.2007 30.5021 28.8992 31.0082 29.1785L34.3026 31.0005C34.5303 31.1266 34.7829 31.1249 34.9928 31.0337C35.2489 30.923 35.4401 30.6794 35.4401 30.3719V29.7373H40.4822C41.6082 29.7373 42.6595 30.2765 43.4422 30.9835C44.2258 31.6913 44.6589 32.6623 44.6652 33.7185C44.5664 36.072 43.2857 37.4417 41.3983 37.4417H32.5362C30.9557 37.4417 29.6323 36.3608 29.3334 34.9298C29.2587 34.5729 28.9358 34.3131 28.5561 34.3131H27.7912C27.3011 34.3131 26.9302 34.7356 27.0111 35.1981Z" fill="#8B00E7"/>
<path d="M23.5177 43.4986C21.7931 43.4986 20.1726 42.893 18.955 41.7925C17.6947 40.6528 17 38.9484 17 37.2619V37.2201C17.0685 35.4697 17.6342 33.9681 18.6348 32.8795C19.6469 31.7798 21.0557 31.3224 22.6015 31.3224H31.4637C34.2377 31.3224 36.5476 33.2636 36.9888 35.8019C37.0697 36.2653 36.6988 36.6878 36.2087 36.6878H35.4438C35.0641 36.6878 34.7412 36.428 34.6665 36.0711C34.3677 34.6401 33.0441 33.5583 31.4637 33.5583H22.6015C20.7142 33.5583 19.4334 34.9289 19.3347 37.2815C19.3409 38.3385 19.7741 39.3087 20.5576 40.0165C21.3403 40.7244 22.3917 41.2627 23.5177 41.2627H28.5597V40.629C28.5597 40.0941 29.1369 39.7516 29.6297 39.9663C29.6528 39.9765 29.675 39.9876 29.6973 39.9995L32.9917 41.8215C33.4978 42.1008 33.4978 42.8002 32.9917 43.0795L29.8619 44.8104C29.8619 44.8104 29.6528 44.9245 29.6297 44.9347C29.1369 45.1502 28.5597 44.8069 28.5597 44.2729V43.4986H23.5177Z" fill="#D404FF"/>
</g>
</g>
</g>
<defs>
<filter id="filter0_i_31_5657" x="4" y="4" width="56" height="60" filterUnits="userSpaceOnUse" color-interpolation-filters="sRGB">
<feFlood flood-opacity="0" result="BackgroundImageFix"/>
<feBlend mode="normal" in="SourceGraphic" in2="BackgroundImageFix" result="shape"/>
<feColorMatrix in="SourceAlpha" type="matrix" values="0 0 0 0 0 0 0 0 0 0 0 0 0 0 0 0 0 0 127 0" result="hardAlpha"/>
<feOffset dy="4"/>
<feGaussianBlur stdDeviation="2"/>
<feComposite in2="hardAlpha" operator="arithmetic" k2="-1" k3="1"/>
<feColorMatrix type="matrix" values="0 0 0 0 0 0 0 0 0 0 0 0 0 0 0 0 0 0 0.25 0"/>
<feBlend mode="normal" in2="shape" result="effect1_innerShadow_31_5657"/>
</filter>
<filter id="filter1_d_31_5657" x="5.5" y="7.5" width="53" height="53" filterUnits="userSpaceOnUse" color-interpolation-filters="sRGB">
<feFlood flood-opacity="0" result="BackgroundImageFix"/>
<feColorMatrix in="SourceAlpha" type="matrix" values="0 0 0 0 0 0 0 0 0 0 0 0 0 0 0 0 0 0 127 0" result="hardAlpha"/>
<feOffset dy="2"/>
<feGaussianBlur stdDeviation="2"/>
<feComposite in2="hardAlpha" operator="out"/>
<feColorMatrix type="matrix" values="0 0 0 0 0 0 0 0 0 0 0 0 0 0 0 0 0 0 0.25 0"/>
<feBlend mode="normal" in2="BackgroundImageFix" result="effect1_dropShadow_31_5657"/>
<feBlend mode="normal" in="SourceGraphic" in2="effect1_dropShadow_31_5657" result="shape"/>
</filter>
<filter id="filter2_d_31_5657" x="13" y="24" width="38" height="27" filterUnits="userSpaceOnUse" color-interpolation-filters="sRGB">
<feFlood flood-opacity="0" result="BackgroundImageFix"/>
<feColorMatrix in="SourceAlpha" type="matrix" values="0 0 0 0 0 0 0 0 0 0 0 0 0 0 0 0 0 0 127 0" result="hardAlpha"/>
<feOffset dy="2"/>
<feGaussianBlur stdDeviation="2"/>
<feComposite in2="hardAlpha" operator="out"/>
<feColorMatrix type="matrix" values="0 0 0 0 0 0 0 0 0 0 0 0 0 0 0 0 0 0 0.25 0"/>
<feBlend mode="normal" in2="BackgroundImageFix" result="effect1_dropShadow_31_5657"/>
<feBlend mode="normal" in="SourceGraphic" in2="effect1_dropShadow_31_5657" result="shape"/>
</filter>
<linearGradient id="paint0_linear_31_5657" x1="32" y1="0" x2="32" y2="64" gradientUnits="userSpaceOnUse">
<stop stop-color="#CB02C5"/>
<stop offset="0.244792" stop-color="#C101DA"/>
<stop offset="0.510417" stop-color="#B600F0"/>
<stop offset="0.744792" stop-color="#8900D9"/>
<stop offset="1" stop-color="#5800BF"/>
</linearGradient>
<linearGradient id="paint1_linear_31_5657" x1="32" y1="9.5" x2="32" y2="54.5" gradientUnits="userSpaceOnUse">
<stop stop-color="#C301D5"/>
<stop offset="0.505208" stop-color="#B600EF"/>
<stop offset="1" stop-color="#8100D4"/>
</linearGradient>
<clipPath id="clip0_31_5657">
<rect width="64" height="64" fill="white"/>
</clipPath>
</defs>
</svg>
