<svg width="64" height="64" viewBox="0 0 64 64" fill="none" xmlns="http://www.w3.org/2000/svg">
<g clip-path="url(#clip0_31_5748)">
<path d="M48 0H16C7.16344 0 0 7.16344 0 16V48C0 56.8366 7.16344 64 16 64H48C56.8366 64 64 56.8366 64 48V16C64 7.16344 56.8366 0 48 0Z" fill="url(#paint0_linear_31_5748)"/>
<g filter="url(#filter0_i_31_5748)">
<path d="M48 4H16C9.37258 4 4 9.37258 4 16V48C4 54.6274 9.37258 60 16 60H48C54.6274 60 60 54.6274 60 48V16C60 9.37258 54.6274 4 48 4Z" fill="black" fill-opacity="0.7"/>
<g filter="url(#filter1_d_31_5748)">
<path d="M20 15H16C12.6863 15 10 17.6863 10 21V43C10 46.3137 12.6863 49 16 49H20C23.3137 49 26 46.3137 26 43V21C26 17.6863 23.3137 15 20 15Z" fill="#115C77"/>
<g style="mix-blend-mode:overlay">
<path d="M20 15H16C12.6863 15 10 17.6863 10 21V43C10 46.3137 12.6863 49 16 49H20C23.3137 49 26 46.3137 26 43V21C26 17.6863 23.3137 15 20 15Z" fill="white" fill-opacity="0.5"/>
</g>
<path d="M20 17H16C13.7909 17 12 18.7909 12 21V43C12 45.2091 13.7909 47 16 47H20C22.2091 47 24 45.2091 24 43V21C24 18.7909 22.2091 17 20 17Z" stroke="#111111" stroke-width="5"/>
</g>
<g filter="url(#filter2_d_31_5748)">
<path d="M47.5 15H36C32.6863 15 30 17.6863 30 21V43C30 46.3137 32.6863 49 36 49H47.5C50.8137 49 53.5 46.3137 53.5 43V21C53.5 17.6863 50.8137 15 47.5 15Z" fill="#115C77"/>
<g style="mix-blend-mode:overlay">
<path d="M47.5 15H36C32.6863 15 30 17.6863 30 21V43C30 46.3137 32.6863 49 36 49H47.5C50.8137 49 53.5 46.3137 53.5 43V21C53.5 17.6863 50.8137 15 47.5 15Z" fill="white" fill-opacity="0.5"/>
</g>
<path d="M47.5 17H36C33.7909 17 32 18.7909 32 21V43C32 45.2091 33.7909 47 36 47H47.5C49.7091 47 51.5 45.2091 51.5 43V21C51.5 18.7909 49.7091 17 47.5 17Z" stroke="#111111" stroke-width="5"/>
</g>
</g>
</g>
<defs>
<filter id="filter0_i_31_5748" x="4" y="4" width="56" height="60" filterUnits="userSpaceOnUse" color-interpolation-filters="sRGB">
<feFlood flood-opacity="0" result="BackgroundImageFix"/>
<feBlend mode="normal" in="SourceGraphic" in2="BackgroundImageFix" result="shape"/>
<feColorMatrix in="SourceAlpha" type="matrix" values="0 0 0 0 0 0 0 0 0 0 0 0 0 0 0 0 0 0 127 0" result="hardAlpha"/>
<feOffset dy="4"/>
<feGaussianBlur stdDeviation="2"/>
<feComposite in2="hardAlpha" operator="arithmetic" k2="-1" k3="1"/>
<feColorMatrix type="matrix" values="0 0 0 0 0 0 0 0 0 0 0 0 0 0 0 0 0 0 0.25 0"/>
<feBlend mode="normal" in2="shape" result="effect1_innerShadow_31_5748"/>
</filter>
<filter id="filter1_d_31_5748" x="5.5" y="12.5" width="25" height="43" filterUnits="userSpaceOnUse" color-interpolation-filters="sRGB">
<feFlood flood-opacity="0" result="BackgroundImageFix"/>
<feColorMatrix in="SourceAlpha" type="matrix" values="0 0 0 0 0 0 0 0 0 0 0 0 0 0 0 0 0 0 127 0" result="hardAlpha"/>
<feOffset dy="2"/>
<feGaussianBlur stdDeviation="2"/>
<feComposite in2="hardAlpha" operator="out"/>
<feColorMatrix type="matrix" values="0 0 0 0 0 0 0 0 0 0 0 0 0 0 0 0 0 0 0.25 0"/>
<feBlend mode="normal" in2="BackgroundImageFix" result="effect1_dropShadow_31_5748"/>
<feBlend mode="normal" in="SourceGraphic" in2="effect1_dropShadow_31_5748" result="shape"/>
</filter>
<filter id="filter2_d_31_5748" x="25.5" y="12.5" width="32.5" height="43" filterUnits="userSpaceOnUse" color-interpolation-filters="sRGB">
<feFlood flood-opacity="0" result="BackgroundImageFix"/>
<feColorMatrix in="SourceAlpha" type="matrix" values="0 0 0 0 0 0 0 0 0 0 0 0 0 0 0 0 0 0 127 0" result="hardAlpha"/>
<feOffset dy="2"/>
<feGaussianBlur stdDeviation="2"/>
<feComposite in2="hardAlpha" operator="out"/>
<feColorMatrix type="matrix" values="0 0 0 0 0 0 0 0 0 0 0 0 0 0 0 0 0 0 0.25 0"/>
<feBlend mode="normal" in2="BackgroundImageFix" result="effect1_dropShadow_31_5748"/>
<feBlend mode="normal" in="SourceGraphic" in2="effect1_dropShadow_31_5748" result="shape"/>
</filter>
<linearGradient id="paint0_linear_31_5748" x1="32" y1="0" x2="32" y2="64" gradientUnits="userSpaceOnUse">
<stop stop-color="#1FA2D1"/>
<stop offset="1" stop-color="#115C77"/>
</linearGradient>
<clipPath id="clip0_31_5748">
<rect width="64" height="64" fill="white"/>
</clipPath>
</defs>
</svg>
