<svg width="64" height="64" viewBox="0 0 64 64" fill="none" xmlns="http://www.w3.org/2000/svg">
<g clip-path="url(#clip0_31_5760)">
<path d="M48 0H16C7.16344 0 0 7.16344 0 16V48C0 56.8366 7.16344 64 16 64H48C56.8366 64 64 56.8366 64 48V16C64 7.16344 56.8366 0 48 0Z" fill="url(#paint0_linear_31_5760)"/>
<g filter="url(#filter0_i_31_5760)">
<path d="M48 4H16C9.37258 4 4 9.37258 4 16V48C4 54.6274 9.37258 60 16 60H48C54.6274 60 60 54.6274 60 48V16C60 9.37258 54.6274 4 48 4Z" fill="black" fill-opacity="0.7"/>
<path d="M31.9946 8L56 32.0054L31.9946 56L8 32.0054L31.9946 8Z" fill="#8A5AAB"/>
<path d="M31.9946 56L8 32.0054H56L31.9946 56Z" fill="#3A497D"/>
<path d="M40.4246 32.0054L28.26 41.0196V22.9804L40.4246 32.0054Z" fill="white"/>
</g>
</g>
<defs>
<filter id="filter0_i_31_5760" x="4" y="4" width="56" height="60" filterUnits="userSpaceOnUse" color-interpolation-filters="sRGB">
<feFlood flood-opacity="0" result="BackgroundImageFix"/>
<feBlend mode="normal" in="SourceGraphic" in2="BackgroundImageFix" result="shape"/>
<feColorMatrix in="SourceAlpha" type="matrix" values="0 0 0 0 0 0 0 0 0 0 0 0 0 0 0 0 0 0 127 0" result="hardAlpha"/>
<feOffset dy="4"/>
<feGaussianBlur stdDeviation="2"/>
<feComposite in2="hardAlpha" operator="arithmetic" k2="-1" k3="1"/>
<feColorMatrix type="matrix" values="0 0 0 0 0 0 0 0 0 0 0 0 0 0 0 0 0 0 0.25 0"/>
<feBlend mode="normal" in2="shape" result="effect1_innerShadow_31_5760"/>
</filter>
<linearGradient id="paint0_linear_31_5760" x1="32" y1="0" x2="32" y2="64" gradientUnits="userSpaceOnUse">
<stop stop-color="#8A5AAB"/>
<stop offset="1" stop-color="#3A497D"/>
</linearGradient>
<clipPath id="clip0_31_5760">
<rect width="64" height="64" fill="white"/>
</clipPath>
</defs>
</svg>
