<svg width="64" height="64" viewBox="0 0 64 64" fill="none" xmlns="http://www.w3.org/2000/svg">
<g clip-path="url(#clip0_31_5767)">
<path d="M48 0H16C7.16344 0 0 7.16344 0 16V48C0 56.8366 7.16344 64 16 64H48C56.8366 64 64 56.8366 64 48V16C64 7.16344 56.8366 0 48 0Z" fill="url(#paint0_linear_31_5767)"/>
<g filter="url(#filter0_i_31_5767)">
<path d="M48 4H16C9.37258 4 4 9.37258 4 16V48C4 54.6274 9.37258 60 16 60H48C54.6274 60 60 54.6274 60 48V16C60 9.37258 54.6274 4 48 4Z" fill="black" fill-opacity="0.7"/>
<g filter="url(#filter1_d_31_5767)">
<path d="M47.345 32.0915C47.345 31.6227 46.9986 31.3524 46.5734 31.4867L17.3248 40.7614C16.8988 40.8965 16.5532 41.3867 16.5532 41.8546V51.334C16.5532 51.8025 16.8988 52.074 17.3248 51.9385L46.5734 42.6648C46.9986 42.5296 47.345 42.0394 47.345 41.5706V32.0915Z" fill="url(#paint1_linear_31_5767)"/>
<path d="M16.5532 31.7894C16.5532 32.2582 16.8988 32.7484 17.3248 32.8836L46.5777 42.1592C47.0037 42.2943 47.3493 42.0231 47.3493 41.5552V32.0752C47.3493 31.6072 47.0037 31.1171 46.5777 30.982L17.3248 21.7063C16.8988 21.5712 16.5532 21.8415 16.5532 22.3102V31.7894Z" fill="#FF9800"/>
<path d="M47.345 12.613C47.345 12.1442 46.9986 11.873 46.5734 12.0082L17.3248 21.282C16.8988 21.4172 16.5532 21.9074 16.5532 22.3762V31.8554C16.5532 32.3241 16.8988 32.5945 17.3248 32.4602L46.5734 23.1854C46.9986 23.0503 47.345 22.56 47.345 22.0921V12.613Z" fill="#FF9800"/>
</g>
</g>
</g>
<defs>
<filter id="filter0_i_31_5767" x="4" y="4" width="56" height="60" filterUnits="userSpaceOnUse" color-interpolation-filters="sRGB">
<feFlood flood-opacity="0" result="BackgroundImageFix"/>
<feBlend mode="normal" in="SourceGraphic" in2="BackgroundImageFix" result="shape"/>
<feColorMatrix in="SourceAlpha" type="matrix" values="0 0 0 0 0 0 0 0 0 0 0 0 0 0 0 0 0 0 127 0" result="hardAlpha"/>
<feOffset dy="4"/>
<feGaussianBlur stdDeviation="2"/>
<feComposite in2="hardAlpha" operator="arithmetic" k2="-1" k3="1"/>
<feColorMatrix type="matrix" values="0 0 0 0 0 0 0 0 0 0 0 0 0 0 0 0 0 0 0.25 0"/>
<feBlend mode="normal" in2="shape" result="effect1_innerShadow_31_5767"/>
</filter>
<filter id="filter1_d_31_5767" x="13.2162" y="10.3049" width="37.47" height="46.6741" filterUnits="userSpaceOnUse" color-interpolation-filters="sRGB">
<feFlood flood-opacity="0" result="BackgroundImageFix"/>
<feColorMatrix in="SourceAlpha" type="matrix" values="0 0 0 0 0 0 0 0 0 0 0 0 0 0 0 0 0 0 127 0" result="hardAlpha"/>
<feOffset dy="1.66852"/>
<feGaussianBlur stdDeviation="1.66852"/>
<feComposite in2="hardAlpha" operator="out"/>
<feColorMatrix type="matrix" values="0 0 0 0 0 0 0 0 0 0 0 0 0 0 0 0 0 0 0.25 0"/>
<feBlend mode="normal" in2="BackgroundImageFix" result="effect1_dropShadow_31_5767"/>
<feBlend mode="normal" in="SourceGraphic" in2="effect1_dropShadow_31_5767" result="shape"/>
</filter>
<linearGradient id="paint0_linear_31_5767" x1="32" y1="64" x2="32" y2="0" gradientUnits="userSpaceOnUse">
<stop stop-color="#D06F00"/>
<stop offset="1" stop-color="#FF9800"/>
</linearGradient>
<linearGradient id="paint1_linear_31_5767" x1="1713.71" y1="1235.62" x2="1842.85" y2="803.8" gradientUnits="userSpaceOnUse">
<stop stop-color="#FF9700"/>
<stop offset="0.53" stop-color="#F48E00"/>
<stop offset="1" stop-color="#D06F00"/>
</linearGradient>
<clipPath id="clip0_31_5767">
<rect width="64" height="64" fill="white"/>
</clipPath>
</defs>
</svg>
