<svg width="64" height="64" viewBox="0 0 64 64" fill="none" xmlns="http://www.w3.org/2000/svg">
<g clip-path="url(#clip0_31_5775)">
<path d="M48 0H16C7.16344 0 0 7.16344 0 16V48C0 56.8366 7.16344 64 16 64H48C56.8366 64 64 56.8366 64 48V16C64 7.16344 56.8366 0 48 0Z" fill="url(#paint0_linear_31_5775)"/>
<g filter="url(#filter0_i_31_5775)">
<path d="M48 4H16C9.37258 4 4 9.37258 4 16V48C4 54.6274 9.37258 60 16 60H48C54.6274 60 60 54.6274 60 48V16C60 9.37258 54.6274 4 48 4Z" fill="black" fill-opacity="0.7"/>
<path fill-rule="evenodd" clip-rule="evenodd" d="M22.8083 14.8645C22.2469 14.3106 21.4901 14 20.7014 14H13C11.3432 14 10 15.3432 10 17V47C10 48.6568 11.3432 50 13 50H51C52.657 50 54 48.6568 54 47V22C54 20.3432 52.657 19 51 19H28.2308C27.4422 19 26.6852 18.6894 26.1238 18.1355L22.8083 14.8645Z" fill="#5739A8"/>
<path d="M49.5168 21.5H14.4829C13.6545 21.5 12.9829 22.1716 12.9829 23V41.5C12.9829 42.3284 13.6545 43 14.4829 43H49.5168C50.3452 43 51.0168 42.3284 51.0168 41.5V23C51.0168 22.1716 50.3452 21.5 49.5168 21.5Z" fill="#FAFAFA"/>
<g filter="url(#filter1_d_31_5775)">
<path d="M10 27C10 25.3432 11.3432 24 13 24H51C52.657 24 54 25.3432 54 27V47C54 48.6568 52.657 50 51 50H13C11.3432 50 10 48.6568 10 47V27Z" fill="#7962E7"/>
</g>
</g>
</g>
<defs>
<filter id="filter0_i_31_5775" x="4" y="4" width="56" height="60" filterUnits="userSpaceOnUse" color-interpolation-filters="sRGB">
<feFlood flood-opacity="0" result="BackgroundImageFix"/>
<feBlend mode="normal" in="SourceGraphic" in2="BackgroundImageFix" result="shape"/>
<feColorMatrix in="SourceAlpha" type="matrix" values="0 0 0 0 0 0 0 0 0 0 0 0 0 0 0 0 0 0 127 0" result="hardAlpha"/>
<feOffset dy="4"/>
<feGaussianBlur stdDeviation="2"/>
<feComposite in2="hardAlpha" operator="arithmetic" k2="-1" k3="1"/>
<feColorMatrix type="matrix" values="0 0 0 0 0 0 0 0 0 0 0 0 0 0 0 0 0 0 0.25 0"/>
<feBlend mode="normal" in2="shape" result="effect1_innerShadow_31_5775"/>
</filter>
<filter id="filter1_d_31_5775" x="7" y="22.5" width="50" height="32" filterUnits="userSpaceOnUse" color-interpolation-filters="sRGB">
<feFlood flood-opacity="0" result="BackgroundImageFix"/>
<feColorMatrix in="SourceAlpha" type="matrix" values="0 0 0 0 0 0 0 0 0 0 0 0 0 0 0 0 0 0 127 0" result="hardAlpha"/>
<feOffset dy="1.5"/>
<feGaussianBlur stdDeviation="1.5"/>
<feComposite in2="hardAlpha" operator="out"/>
<feColorMatrix type="matrix" values="0 0 0 0 0 0 0 0 0 0 0 0 0 0 0 0 0 0 0.25 0"/>
<feBlend mode="normal" in2="BackgroundImageFix" result="effect1_dropShadow_31_5775"/>
<feBlend mode="normal" in="SourceGraphic" in2="effect1_dropShadow_31_5775" result="shape"/>
</filter>
<linearGradient id="paint0_linear_31_5775" x1="64" y1="0" x2="0" y2="64" gradientUnits="userSpaceOnUse">
<stop stop-color="#6653C3"/>
<stop offset="1" stop-color="#5638A5"/>
</linearGradient>
<clipPath id="clip0_31_5775">
<rect width="64" height="64" fill="white"/>
</clipPath>
</defs>
</svg>
