<svg width="64" height="64" viewBox="0 0 64 64" fill="none" xmlns="http://www.w3.org/2000/svg">
<g clip-path="url(#clip0_31_5783)">
<path d="M48 0H16C7.16344 0 0 7.16344 0 16V48C0 56.8366 7.16344 64 16 64H48C56.8366 64 64 56.8366 64 48V16C64 7.16344 56.8366 0 48 0Z" fill="url(#paint0_linear_31_5783)"/>
<g filter="url(#filter0_i_31_5783)">
<path d="M48 4H16C9.37258 4 4 9.37258 4 16V48C4 54.6274 9.37258 60 16 60H48C54.6274 60 60 54.6274 60 48V16C60 9.37258 54.6274 4 48 4Z" fill="black" fill-opacity="0.7"/>
<mask id="mask0_31_5783" style="mask-type:luminance" maskUnits="userSpaceOnUse" x="8" y="8" width="48" height="48">
<path d="M56 8H8V56H56V8Z" fill="white"/>
</mask>
<g mask="url(#mask0_31_5783)">
<g filter="url(#filter1_d_31_5783)">
<path d="M21.2298 48.0092L12.0321 23.8217C11.457 22.3114 11.252 20.6853 11.4341 19.0795C11.6162 17.4737 12.1803 15.9349 13.079 14.5917C13.9777 13.2486 15.185 12.1401 16.5999 11.3592C18.0147 10.5782 19.5961 10.1474 21.2115 10.1029C23.388 10.047 25.5243 10.6948 27.3032 11.9499C29.0822 13.205 30.4087 15.0006 31.0858 17.0697L39.1361 41.6594C40.759 46.6194 23.0493 52.8 21.2298 48.0092Z" fill="url(#paint1_linear_31_5783)"/>
</g>
<g filter="url(#filter2_d_31_5783)">
<path d="M48.8273 40.3337L26.2856 52.5255C24.967 53.239 23.5155 53.6725 22.0217 53.7995C20.528 53.9265 19.0241 53.744 17.604 53.2635C16.184 52.783 14.8783 52.0145 13.7685 51.007C12.6588 49.9989 11.7688 48.773 11.1542 47.4057C10.5483 46.0639 10.2198 44.6136 10.1885 43.1418C10.1572 41.6699 10.4236 40.2069 10.9719 38.8406C11.5201 37.4743 12.3388 36.2329 13.3788 35.1909C14.4188 34.149 15.6586 33.3279 17.0239 32.7771L40.7953 23.1771C42.7602 22.3841 44.9345 22.2739 46.9695 22.8641C49.0045 23.4543 50.7824 24.7107 52.0184 26.432C52.8079 27.527 53.3544 28.7779 53.6219 30.1011C53.8894 31.4243 53.8719 32.7894 53.5699 34.1051C53.2679 35.4209 52.6884 36.6571 51.8709 37.7312C51.0529 38.8053 50.0154 39.6925 48.8273 40.3337Z" fill="url(#paint2_linear_31_5783)"/>
</g>
<g filter="url(#filter3_d_31_5783)">
<path d="M40.311 40.544L17.0333 29.2937C15.5787 28.589 14.3139 27.5465 13.3444 26.2533C12.375 24.96 11.729 23.4535 11.4606 21.8597C11.1921 20.2658 11.3089 18.6309 11.8012 17.0914C12.2935 15.5519 13.147 14.1526 14.2904 13.0103C15.8306 11.4707 17.8274 10.4706 19.9827 10.1592C22.1381 9.84775 24.3363 10.2417 26.2493 11.2823L48.9693 23.6251C51.1671 24.8217 52.8056 26.8359 53.5296 29.2316C54.2531 31.6272 54.0046 34.2116 52.8366 36.4252C51.6896 38.6011 49.7427 40.2467 47.406 41.015C45.0693 41.7834 42.5256 41.6145 40.311 40.544Z" fill="url(#paint3_linear_31_5783)"/>
</g>
<g filter="url(#filter4_d_31_5783)">
<path d="M16.4937 52.951C14.956 52.249 13.6003 51.203 12.5316 49.8937C11.4629 48.5843 10.7098 47.0465 10.3306 45.3993C9.95145 43.7522 9.9563 42.0399 10.3449 40.3949C10.7334 38.75 11.4953 37.2165 12.5714 35.9131L32.2652 12.1143C33.0312 11.1861 34.0812 10.5355 35.2535 10.2629C36.4257 9.99035 37.655 10.1108 38.752 10.6057C40.0111 11.1732 41.0111 12.193 41.5538 13.463C42.0966 14.7331 42.1424 16.1606 41.6823 17.4628L31.4149 46.5965C30.9109 48.0373 30.1119 49.3571 29.0688 50.4715C28.0258 51.586 26.7617 52.4705 25.3574 53.0685C23.9531 53.6665 22.4394 53.965 20.9132 53.9445C19.3869 53.9245 17.8817 53.586 16.4937 52.951Z" fill="url(#paint4_linear_31_5783)"/>
</g>
<g filter="url(#filter5_d_31_5783)">
<path d="M18.2856 18.2857H45.7143V45.7143H18.2856V18.2857Z" fill="black"/>
</g>
<path d="M21.7051 40.5303H31.9908V42.2445H21.7051V40.5303Z" fill="white"/>
<path d="M24.4707 23.7668H21.3301V21.6731H29.8787V23.7668H26.7381V31.9908H24.4707V23.7668Z" fill="white"/>
<path d="M30.7338 26.8617V26.8343C30.7206 26.1262 30.8511 25.4227 31.1174 24.7665C31.3837 24.1102 31.7803 23.5148 32.2832 23.0161C32.7861 22.5175 33.3849 22.126 34.0434 21.8653C34.7019 21.6046 35.4064 21.4801 36.1144 21.4994C36.8662 21.461 37.6176 21.5825 38.3189 21.856C39.0202 22.1294 39.6556 22.5485 40.183 23.0857L38.7384 24.7497C38.0446 24.0297 37.0957 23.611 36.0961 23.584C34.359 23.584 33.1064 25.0285 33.1064 26.784V26.816C33.1064 28.5851 34.3315 30.0571 36.0961 30.0571C37.2755 30.0571 37.9978 29.6 38.8115 28.8503L40.2561 30.3085C39.7348 30.9137 39.083 31.3926 38.3497 31.7094C37.6165 32.0261 36.8209 32.1724 36.023 32.1371C35.3265 32.1482 34.6349 32.0194 33.9891 31.7584C33.3433 31.4974 32.7564 31.1094 32.2632 30.6175C31.77 30.1256 31.3805 29.5397 31.1178 28.8946C30.8552 28.2495 30.7246 27.5582 30.7338 26.8617Z" fill="white"/>
</g>
</g>
</g>
<defs>
<filter id="filter0_i_31_5783" x="4" y="4" width="56" height="60" filterUnits="userSpaceOnUse" color-interpolation-filters="sRGB">
<feFlood flood-opacity="0" result="BackgroundImageFix"/>
<feBlend mode="normal" in="SourceGraphic" in2="BackgroundImageFix" result="shape"/>
<feColorMatrix in="SourceAlpha" type="matrix" values="0 0 0 0 0 0 0 0 0 0 0 0 0 0 0 0 0 0 127 0" result="hardAlpha"/>
<feOffset dy="4"/>
<feGaussianBlur stdDeviation="2"/>
<feComposite in2="hardAlpha" operator="arithmetic" k2="-1" k3="1"/>
<feColorMatrix type="matrix" values="0 0 0 0 0 0 0 0 0 0 0 0 0 0 0 0 0 0 0.25 0"/>
<feBlend mode="normal" in2="shape" result="effect1_innerShadow_31_5783"/>
</filter>
<filter id="filter1_d_31_5783" x="7.36963" y="8.09957" width="35.8716" height="47.6365" filterUnits="userSpaceOnUse" color-interpolation-filters="sRGB">
<feFlood flood-opacity="0" result="BackgroundImageFix"/>
<feColorMatrix in="SourceAlpha" type="matrix" values="0 0 0 0 0 0 0 0 0 0 0 0 0 0 0 0 0 0 127 0" result="hardAlpha"/>
<feOffset dy="2"/>
<feGaussianBlur stdDeviation="2"/>
<feComposite in2="hardAlpha" operator="out"/>
<feColorMatrix type="matrix" values="0 0 0 0 0 0 0 0 0 0 0 0 0 0 0 0 0 0 0.25 0"/>
<feBlend mode="normal" in2="BackgroundImageFix" result="effect1_dropShadow_31_5783"/>
<feBlend mode="normal" in="SourceGraphic" in2="effect1_dropShadow_31_5783" result="shape"/>
</filter>
<filter id="filter2_d_31_5783" x="6.18604" y="20.4898" width="51.624" height="39.3489" filterUnits="userSpaceOnUse" color-interpolation-filters="sRGB">
<feFlood flood-opacity="0" result="BackgroundImageFix"/>
<feColorMatrix in="SourceAlpha" type="matrix" values="0 0 0 0 0 0 0 0 0 0 0 0 0 0 0 0 0 0 127 0" result="hardAlpha"/>
<feOffset dy="2"/>
<feGaussianBlur stdDeviation="2"/>
<feComposite in2="hardAlpha" operator="out"/>
<feColorMatrix type="matrix" values="0 0 0 0 0 0 0 0 0 0 0 0 0 0 0 0 0 0 0.25 0"/>
<feBlend mode="normal" in2="BackgroundImageFix" result="effect1_dropShadow_31_5783"/>
<feBlend mode="normal" in="SourceGraphic" in2="effect1_dropShadow_31_5783" result="shape"/>
</filter>
<filter id="filter3_d_31_5783" x="7.31982" y="8.05542" width="50.6162" height="39.4346" filterUnits="userSpaceOnUse" color-interpolation-filters="sRGB">
<feFlood flood-opacity="0" result="BackgroundImageFix"/>
<feColorMatrix in="SourceAlpha" type="matrix" values="0 0 0 0 0 0 0 0 0 0 0 0 0 0 0 0 0 0 127 0" result="hardAlpha"/>
<feOffset dy="2"/>
<feGaussianBlur stdDeviation="2"/>
<feComposite in2="hardAlpha" operator="out"/>
<feColorMatrix type="matrix" values="0 0 0 0 0 0 0 0 0 0 0 0 0 0 0 0 0 0 0.25 0"/>
<feBlend mode="normal" in2="BackgroundImageFix" result="effect1_dropShadow_31_5783"/>
<feBlend mode="normal" in="SourceGraphic" in2="effect1_dropShadow_31_5783" result="shape"/>
</filter>
<filter id="filter4_d_31_5783" x="6.0498" y="8.12037" width="39.9473" height="51.8251" filterUnits="userSpaceOnUse" color-interpolation-filters="sRGB">
<feFlood flood-opacity="0" result="BackgroundImageFix"/>
<feColorMatrix in="SourceAlpha" type="matrix" values="0 0 0 0 0 0 0 0 0 0 0 0 0 0 0 0 0 0 127 0" result="hardAlpha"/>
<feOffset dy="2"/>
<feGaussianBlur stdDeviation="2"/>
<feComposite in2="hardAlpha" operator="out"/>
<feColorMatrix type="matrix" values="0 0 0 0 0 0 0 0 0 0 0 0 0 0 0 0 0 0 0.25 0"/>
<feBlend mode="normal" in2="BackgroundImageFix" result="effect1_dropShadow_31_5783"/>
<feBlend mode="normal" in="SourceGraphic" in2="effect1_dropShadow_31_5783" result="shape"/>
</filter>
<filter id="filter5_d_31_5783" x="14.2856" y="16.2857" width="35.4287" height="35.4286" filterUnits="userSpaceOnUse" color-interpolation-filters="sRGB">
<feFlood flood-opacity="0" result="BackgroundImageFix"/>
<feColorMatrix in="SourceAlpha" type="matrix" values="0 0 0 0 0 0 0 0 0 0 0 0 0 0 0 0 0 0 127 0" result="hardAlpha"/>
<feOffset dy="2"/>
<feGaussianBlur stdDeviation="2"/>
<feComposite in2="hardAlpha" operator="out"/>
<feColorMatrix type="matrix" values="0 0 0 0 0 0 0 0 0 0 0 0 0 0 0 0 0 0 0.25 0"/>
<feBlend mode="normal" in2="BackgroundImageFix" result="effect1_dropShadow_31_5783"/>
<feBlend mode="normal" in="SourceGraphic" in2="effect1_dropShadow_31_5783" result="shape"/>
</filter>
<linearGradient id="paint0_linear_31_5783" x1="32" y1="0" x2="32" y2="64" gradientUnits="userSpaceOnUse">
<stop stop-color="#3BEA62"/>
<stop offset="0.5" stop-color="#009AE5"/>
<stop offset="1" stop-color="#6B57FF"/>
</linearGradient>
<linearGradient id="paint1_linear_31_5783" x1="27.0767" y1="36.7863" x2="23.3235" y2="25.6777" gradientUnits="userSpaceOnUse">
<stop stop-color="#07C3F2"/>
<stop offset="1" stop-color="#6B57FF"/>
</linearGradient>
<linearGradient id="paint2_linear_31_5783" x1="25.7964" y1="40.5531" x2="39.2456" y2="33.8011" gradientUnits="userSpaceOnUse">
<stop stop-color="#07C3F2"/>
<stop offset="1" stop-color="#009AE5"/>
</linearGradient>
<linearGradient id="paint3_linear_31_5783" x1="42.8482" y1="33.9474" x2="20.5944" y2="17.1474" gradientUnits="userSpaceOnUse">
<stop stop-color="#009AE5"/>
<stop offset="1" stop-color="#6B57FF"/>
</linearGradient>
<linearGradient id="paint4_linear_31_5783" x1="19.7897" y1="45.4994" x2="34.9486" y2="14.6285" gradientUnits="userSpaceOnUse">
<stop offset="0.3" stop-color="#07C3F2"/>
<stop offset="0.6" stop-color="#3BEA62"/>
</linearGradient>
<clipPath id="clip0_31_5783">
<rect width="64" height="64" fill="white"/>
</clipPath>
</defs>
</svg>
