<svg width="64" height="64" viewBox="0 0 64 64" fill="none" xmlns="http://www.w3.org/2000/svg">
<g clip-path="url(#clip0_31_5821)">
<path d="M48 0H16C7.16344 0 0 7.16344 0 16V48C0 56.8366 7.16344 64 16 64H48C56.8366 64 64 56.8366 64 48V16C64 7.16344 56.8366 0 48 0Z" fill="url(#paint0_linear_31_5821)"/>
<path d="M48 0H16C7.16344 0 0 7.16344 0 16V48C0 56.8366 7.16344 64 16 64H48C56.8366 64 64 56.8366 64 48V16C64 7.16344 56.8366 0 48 0Z" fill="black" fill-opacity="0.9"/>
<g filter="url(#filter0_i_31_5821)">
<path d="M48 4H16C9.37258 4 4 9.37258 4 16V48C4 54.6274 9.37258 60 16 60H48C54.6274 60 60 54.6274 60 48V16C60 9.37258 54.6274 4 48 4Z" fill="black" fill-opacity="0.7"/>
<path d="M41.4868 30.5392C41.3145 30.4566 41.1395 30.3772 40.9622 30.3011C40.6535 24.6121 37.545 21.3552 32.3254 21.3218C32.3017 21.3217 32.2782 21.3218 32.2545 21.3218C29.1325 21.3218 26.536 22.6544 24.9379 25.0793L27.8085 27.0485C29.0024 25.2372 30.876 24.851 32.2559 24.851C32.2719 24.851 32.2879 24.851 32.3036 24.8512C34.0223 24.8621 35.3191 25.3618 36.1585 26.3363C36.7693 27.0457 37.1778 28.026 37.3801 29.2633C35.8564 29.0043 34.2085 28.9247 32.4468 29.0257C27.4843 29.3115 24.2939 32.2058 24.5082 36.2275C24.6169 38.2675 25.6332 40.0225 27.3698 41.1689C28.838 42.1381 30.7289 42.6121 32.6941 42.5048C35.2895 42.3625 37.3256 41.3723 38.746 39.5616C39.8248 38.1866 40.507 36.4048 40.8083 34.1596C42.0452 34.906 42.9618 35.8883 43.4681 37.0691C44.3289 39.0764 44.3791 42.375 41.6877 45.0642C39.3295 47.42 36.495 48.4391 32.2111 48.4706C27.4592 48.4354 23.8653 46.9115 21.5287 43.9411C19.3407 41.1596 18.2099 37.1421 18.1677 32C18.2099 26.8579 19.3407 22.8404 21.5287 20.0589C23.8653 17.0885 27.4591 15.5646 32.211 15.5293C36.9975 15.5649 40.6539 17.0961 43.08 20.0809C44.2695 21.5445 45.1664 23.3851 45.7577 25.5313L49.1216 24.6338C48.405 21.9921 47.2772 19.7157 45.7426 17.8279C42.6324 14.0014 38.0837 12.0406 32.2228 12H32.1993C26.3503 12.0405 21.8525 14.0087 18.8309 17.8498C16.142 21.268 14.755 26.0241 14.7084 31.986L14.7083 32L14.7084 32.014C14.755 37.9758 16.142 42.7321 18.8309 46.1502C21.8525 49.9912 26.3503 51.9595 32.1993 52H32.2228C37.4229 51.964 41.0882 50.6025 44.1078 47.5857C48.0585 43.6388 47.9395 38.6915 46.6375 35.6544C45.7033 33.4765 43.9223 31.7075 41.4868 30.5392ZM32.5084 38.9807C30.3334 39.1032 28.0738 38.1269 27.9624 36.0359C27.8798 34.4854 29.0657 32.7554 32.6418 32.5494C33.0514 32.5257 33.4532 32.5141 33.848 32.5141C35.147 32.5141 36.3622 32.6404 37.467 32.8819C37.0549 38.0281 34.6379 38.8638 32.5084 38.9807Z" fill="white"/>
</g>
</g>
<defs>
<filter id="filter0_i_31_5821" x="4" y="4" width="56" height="60" filterUnits="userSpaceOnUse" color-interpolation-filters="sRGB">
<feFlood flood-opacity="0" result="BackgroundImageFix"/>
<feBlend mode="normal" in="SourceGraphic" in2="BackgroundImageFix" result="shape"/>
<feColorMatrix in="SourceAlpha" type="matrix" values="0 0 0 0 0 0 0 0 0 0 0 0 0 0 0 0 0 0 127 0" result="hardAlpha"/>
<feOffset dy="4"/>
<feGaussianBlur stdDeviation="2"/>
<feComposite in2="hardAlpha" operator="arithmetic" k2="-1" k3="1"/>
<feColorMatrix type="matrix" values="0 0 0 0 0 0 0 0 0 0 0 0 0 0 0 0 0 0 0.25 0"/>
<feBlend mode="normal" in2="shape" result="effect1_innerShadow_31_5821"/>
</filter>
<linearGradient id="paint0_linear_31_5821" x1="32" y1="0" x2="32" y2="64" gradientUnits="userSpaceOnUse">
<stop stop-color="white"/>
<stop offset="1" stop-color="#DFDFDF"/>
</linearGradient>
<clipPath id="clip0_31_5821">
<rect width="64" height="64" fill="white"/>
</clipPath>
</defs>
</svg>
