<svg width="64" height="64" viewBox="0 0 64 64" fill="none" xmlns="http://www.w3.org/2000/svg">
<g clip-path="url(#clip0_31_5849)">
<path d="M48 0H16C7.16344 0 0 7.16344 0 16V48C0 56.8366 7.16344 64 16 64H48C56.8366 64 64 56.8366 64 48V16C64 7.16344 56.8366 0 48 0Z" fill="url(#paint0_linear_31_5849)"/>
<path d="M48 0H16C7.16344 0 0 7.16344 0 16V48C0 56.8366 7.16344 64 16 64H48C56.8366 64 64 56.8366 64 48V16C64 7.16344 56.8366 0 48 0Z" fill="url(#paint1_linear_31_5849)"/>
<g filter="url(#filter0_i_31_5849)">
<path d="M48 4H16C9.37258 4 4 9.37258 4 16V48C4 54.6274 9.37258 60 16 60H48C54.6274 60 60 54.6274 60 48V16C60 9.37258 54.6274 4 48 4Z" fill="black" fill-opacity="0.7"/>
<mask id="mask0_31_5849" style="mask-type:luminance" maskUnits="userSpaceOnUse" x="8" y="8" width="48" height="48">
<path d="M56 8H8V56H56V8Z" fill="white"/>
</mask>
<g mask="url(#mask0_31_5849)">
<g filter="url(#filter1_d_31_5849)">
<path d="M47.072 25.3212L17.6732 28.4755C15.9251 28.6619 14.1713 28.1803 12.7637 27.1271C11.3561 26.074 10.399 24.5273 10.0846 22.7977C9.9193 21.8843 9.93845 20.947 10.1409 20.0411C10.3434 19.1352 10.7251 18.2789 11.2635 17.5227C11.802 16.7666 12.4863 16.1258 13.2762 15.6382C14.0661 15.1506 14.9456 14.826 15.8629 14.6835L45.0834 10.144C46.2139 9.96825 47.3694 10.0482 48.4649 10.378C49.5604 10.7078 50.568 11.279 51.4135 12.0496C52.259 12.8202 52.9215 13.7705 53.351 14.8308C53.781 15.891 53.9675 17.0341 53.897 18.176C53.7885 19.9818 53.043 21.6906 51.7935 22.9988C50.544 24.3069 48.8709 25.1298 47.072 25.3212Z" fill="url(#paint2_linear_31_5849)"/>
</g>
<g filter="url(#filter2_d_31_5849)">
<path d="M36.2057 50.8985L12.0091 26.4503C11.3213 25.755 10.7876 24.9228 10.4426 24.0077C10.0977 23.0925 9.94925 22.115 10.0071 21.1388C10.0649 20.1625 10.3275 19.2093 10.778 18.3413C11.2285 17.4733 11.8567 16.7098 12.6217 16.1005C13.7811 15.179 15.2044 14.6515 16.6843 14.5948C18.1643 14.5381 19.6237 14.9551 20.8503 15.7851L49.3348 35.0948C50.656 35.9916 51.7515 37.1827 52.535 38.5743C53.318 39.966 53.768 41.5203 53.849 43.1152C53.93 44.7101 53.64 46.302 53.002 47.7659C52.364 49.2298 51.395 50.526 50.1715 51.552C48.186 53.215 45.648 54.0705 43.061 53.9495C40.4741 53.8285 38.0271 52.7395 36.2057 50.8985Z" fill="url(#paint3_linear_31_5849)"/>
</g>
<g filter="url(#filter3_d_31_5849)">
<path d="M41.6732 11.5565L13.4035 32.6857C12.8066 33.131 12.3083 33.6951 11.9398 34.3423C11.5714 34.9895 11.3409 35.706 11.2627 36.4466C11.1846 37.1872 11.2605 37.936 11.4858 38.6459C11.711 39.3558 12.0807 40.0113 12.5715 40.5714C13.3893 41.5015 14.5023 42.1219 15.7235 42.3284C16.9447 42.5348 18.1997 42.3148 19.2778 41.7052L50.007 24.3337C50.999 23.7737 51.8535 22.9992 52.508 22.0668C53.1625 21.1343 53.6 20.0674 53.7895 18.944C53.9785 17.8207 53.9145 16.6692 53.602 15.5738C53.289 14.4784 52.7355 13.4666 51.982 12.6125C50.7095 11.1749 48.9433 10.2682 47.0336 10.0726C45.1239 9.877 43.2105 10.4067 41.6732 11.5565Z" fill="url(#paint4_linear_31_5849)"/>
</g>
<g filter="url(#filter4_d_31_5849)">
<path d="M39.3143 53.0605L14.3999 41.8697C13.6611 41.5406 13.0063 41.0486 12.4846 40.4305C11.9628 39.8125 11.5876 39.0844 11.3871 38.3008C11.1866 37.5172 11.1659 36.6985 11.3267 35.9058C11.4874 35.1131 11.8254 34.367 12.3153 33.7234C12.8484 33.0277 13.5438 32.4731 14.3407 32.1081C15.1376 31.7431 16.0118 31.5789 16.8868 31.6297L44.1645 33.3074C45.7884 33.4066 47.3659 33.8876 48.7688 34.7115C50.1715 35.5353 51.3605 36.6787 52.238 38.0486C53.1155 39.4184 53.6575 40.9762 53.8195 42.595C53.9815 44.2138 53.759 45.848 53.17 47.3646C52.662 48.6701 51.8945 49.8588 50.9135 50.8585C49.9322 51.8585 48.7583 52.6485 47.4626 53.1815C46.167 53.714 44.7767 53.978 43.376 53.957C41.9753 53.9365 40.5935 53.6315 39.3143 53.0605Z" fill="url(#paint5_linear_31_5849)"/>
</g>
<g filter="url(#filter5_d_31_5849)">
<path d="M18.2856 18.2857H45.7142V45.7143H18.2856V18.2857Z" fill="black"/>
</g>
<path d="M21.7051 40.5302H31.9908V42.2445H21.7051V40.5302Z" fill="white"/>
<path d="M21.7141 27.5794V21.6731H23.9999V27.52C23.9999 29.2023 24.841 30.0708 26.2307 30.0708C27.6204 30.0708 28.457 29.2297 28.457 27.5931V21.6731H30.7427V27.5017C30.7427 30.6331 28.9873 32.1691 26.2124 32.1691C23.4376 32.1691 21.7141 30.6194 21.7141 27.5794Z" fill="white"/>
<path d="M32.8045 21.6731H37.0285C39.4925 21.6731 40.9828 23.136 40.9828 25.248V25.2754C40.9828 27.6663 39.1222 28.9051 36.8045 28.9051H35.0765V32.0046H32.7908L32.8045 21.6731ZM36.8777 26.8846C38.0159 26.8846 38.6788 26.2034 38.6788 25.3211V25.2891C38.6788 24.2743 37.9702 23.7257 36.8502 23.7257H35.0765V26.8846H36.8777Z" fill="white"/>
</g>
</g>
</g>
<defs>
<filter id="filter0_i_31_5849" x="4" y="4" width="56" height="60" filterUnits="userSpaceOnUse" color-interpolation-filters="sRGB">
<feFlood flood-opacity="0" result="BackgroundImageFix"/>
<feBlend mode="normal" in="SourceGraphic" in2="BackgroundImageFix" result="shape"/>
<feColorMatrix in="SourceAlpha" type="matrix" values="0 0 0 0 0 0 0 0 0 0 0 0 0 0 0 0 0 0 127 0" result="hardAlpha"/>
<feOffset dy="4"/>
<feGaussianBlur stdDeviation="2"/>
<feComposite in2="hardAlpha" operator="arithmetic" k2="-1" k3="1"/>
<feColorMatrix type="matrix" values="0 0 0 0 0 0 0 0 0 0 0 0 0 0 0 0 0 0 0.25 0"/>
<feBlend mode="normal" in2="shape" result="effect1_innerShadow_31_5849"/>
</filter>
<filter id="filter1_d_31_5849" x="5.97339" y="8.05316" width="51.9382" height="26.4616" filterUnits="userSpaceOnUse" color-interpolation-filters="sRGB">
<feFlood flood-opacity="0" result="BackgroundImageFix"/>
<feColorMatrix in="SourceAlpha" type="matrix" values="0 0 0 0 0 0 0 0 0 0 0 0 0 0 0 0 0 0 127 0" result="hardAlpha"/>
<feOffset dy="2"/>
<feGaussianBlur stdDeviation="2"/>
<feComposite in2="hardAlpha" operator="out"/>
<feColorMatrix type="matrix" values="0 0 0 0 0 0 0 0 0 0 0 0 0 0 0 0 0 0 0.25 0"/>
<feBlend mode="normal" in2="BackgroundImageFix" result="effect1_dropShadow_31_5849"/>
<feBlend mode="normal" in="SourceGraphic" in2="effect1_dropShadow_31_5849" result="shape"/>
</filter>
<filter id="filter2_d_31_5849" x="5.99487" y="12.5897" width="51.8674" height="47.371" filterUnits="userSpaceOnUse" color-interpolation-filters="sRGB">
<feFlood flood-opacity="0" result="BackgroundImageFix"/>
<feColorMatrix in="SourceAlpha" type="matrix" values="0 0 0 0 0 0 0 0 0 0 0 0 0 0 0 0 0 0 127 0" result="hardAlpha"/>
<feOffset dy="2"/>
<feGaussianBlur stdDeviation="2"/>
<feComposite in2="hardAlpha" operator="out"/>
<feColorMatrix type="matrix" values="0 0 0 0 0 0 0 0 0 0 0 0 0 0 0 0 0 0 0.25 0"/>
<feBlend mode="normal" in2="BackgroundImageFix" result="effect1_dropShadow_31_5849"/>
<feBlend mode="normal" in="SourceGraphic" in2="effect1_dropShadow_31_5849" result="shape"/>
</filter>
<filter id="filter3_d_31_5849" x="7.23291" y="8.03278" width="50.6628" height="40.3711" filterUnits="userSpaceOnUse" color-interpolation-filters="sRGB">
<feFlood flood-opacity="0" result="BackgroundImageFix"/>
<feColorMatrix in="SourceAlpha" type="matrix" values="0 0 0 0 0 0 0 0 0 0 0 0 0 0 0 0 0 0 127 0" result="hardAlpha"/>
<feOffset dy="2"/>
<feGaussianBlur stdDeviation="2"/>
<feComposite in2="hardAlpha" operator="out"/>
<feColorMatrix type="matrix" values="0 0 0 0 0 0 0 0 0 0 0 0 0 0 0 0 0 0 0.25 0"/>
<feBlend mode="normal" in2="BackgroundImageFix" result="effect1_dropShadow_31_5849"/>
<feBlend mode="normal" in="SourceGraphic" in2="effect1_dropShadow_31_5849" result="shape"/>
</filter>
<filter id="filter4_d_31_5849" x="7.21973" y="29.6207" width="50.6511" height="30.3375" filterUnits="userSpaceOnUse" color-interpolation-filters="sRGB">
<feFlood flood-opacity="0" result="BackgroundImageFix"/>
<feColorMatrix in="SourceAlpha" type="matrix" values="0 0 0 0 0 0 0 0 0 0 0 0 0 0 0 0 0 0 127 0" result="hardAlpha"/>
<feOffset dy="2"/>
<feGaussianBlur stdDeviation="2"/>
<feComposite in2="hardAlpha" operator="out"/>
<feColorMatrix type="matrix" values="0 0 0 0 0 0 0 0 0 0 0 0 0 0 0 0 0 0 0.25 0"/>
<feBlend mode="normal" in2="BackgroundImageFix" result="effect1_dropShadow_31_5849"/>
<feBlend mode="normal" in="SourceGraphic" in2="effect1_dropShadow_31_5849" result="shape"/>
</filter>
<filter id="filter5_d_31_5849" x="14.2856" y="16.2857" width="35.4285" height="35.4286" filterUnits="userSpaceOnUse" color-interpolation-filters="sRGB">
<feFlood flood-opacity="0" result="BackgroundImageFix"/>
<feColorMatrix in="SourceAlpha" type="matrix" values="0 0 0 0 0 0 0 0 0 0 0 0 0 0 0 0 0 0 127 0" result="hardAlpha"/>
<feOffset dy="2"/>
<feGaussianBlur stdDeviation="2"/>
<feComposite in2="hardAlpha" operator="out"/>
<feColorMatrix type="matrix" values="0 0 0 0 0 0 0 0 0 0 0 0 0 0 0 0 0 0 0.25 0"/>
<feBlend mode="normal" in2="BackgroundImageFix" result="effect1_dropShadow_31_5849"/>
<feBlend mode="normal" in="SourceGraphic" in2="effect1_dropShadow_31_5849" result="shape"/>
</filter>
<linearGradient id="paint0_linear_31_5849" x1="32" y1="0" x2="32" y2="64" gradientUnits="userSpaceOnUse">
<stop stop-color="#3BEA62"/>
<stop offset="0.5" stop-color="#009AE5"/>
<stop offset="1" stop-color="#6B57FF"/>
</linearGradient>
<linearGradient id="paint1_linear_31_5849" x1="53.7705" y1="14.0842" x2="-1.13704" y2="40.6627" gradientUnits="userSpaceOnUse">
<stop stop-color="#FC801D"/>
<stop offset="0.661458" stop-color="#6B57FF"/>
<stop offset="1" stop-color="#08C1F2"/>
</linearGradient>
<linearGradient id="paint2_linear_31_5849" x1="52.311" y1="16.9052" x2="21.3577" y2="21.0286" gradientUnits="userSpaceOnUse">
<stop stop-color="#FC801D"/>
<stop offset="1" stop-color="#6B57FF"/>
</linearGradient>
<linearGradient id="paint3_linear_31_5849" x1="31.7394" y1="33.5908" x2="34.3817" y2="22.4183" gradientUnits="userSpaceOnUse">
<stop stop-color="#07C3F2"/>
<stop offset="1" stop-color="#6B57FF"/>
</linearGradient>
<linearGradient id="paint4_linear_31_5849" x1="47.0767" y1="17.1566" x2="14.967" y2="37.6411" gradientUnits="userSpaceOnUse">
<stop stop-color="#FC801D"/>
<stop offset="0.92" stop-color="#6B57FF"/>
</linearGradient>
<linearGradient id="paint5_linear_31_5849" x1="50.903" y1="46.2812" x2="16.6308" y2="33.8972" gradientUnits="userSpaceOnUse">
<stop stop-color="#07C3F2"/>
<stop offset="1" stop-color="#6B57FF"/>
</linearGradient>
<clipPath id="clip0_31_5849">
<rect width="64" height="64" fill="white"/>
</clipPath>
</defs>
</svg>
