<svg width="64" height="64" viewBox="0 0 64 64" fill="none" xmlns="http://www.w3.org/2000/svg">
<g clip-path="url(#clip0_31_5892)">
<path d="M48 0H16C7.16344 0 0 7.16344 0 16V48C0 56.8366 7.16344 64 16 64H48C56.8366 64 64 56.8366 64 48V16C64 7.16344 56.8366 0 48 0Z" fill="url(#paint0_linear_31_5892)"/>
<g filter="url(#filter0_i_31_5892)">
<path d="M48 4H16C9.37258 4 4 9.37258 4 16V48C4 54.6274 9.37258 60 16 60H48C54.6274 60 60 54.6274 60 48V16C60 9.37258 54.6274 4 48 4Z" fill="black" fill-opacity="0.7"/>
<g filter="url(#filter1_d_31_5892)">
<path d="M52.0002 19.11V44.89C52.0002 46.16 51.2102 47.29 50.0202 47.71L41.2002 51.85L42.0002 41V23L41.2002 12.15L50.0202 16.29C51.2102 16.71 52.0002 17.84 52.0002 19.11Z" fill="#29B6F6"/>
</g>
<g filter="url(#filter2_d_31_5892)">
<path d="M16.9999 41.896L41.9999 23V13.353C41.9999 12.155 40.5179 11.595 39.7249 12.493L12.6579 37.239C11.7579 38.069 11.8089 39.506 12.7649 40.271C12.7649 40.271 14.0889 41.503 14.5679 41.845C15.3039 42.37 16.2709 42.43 16.9999 41.896Z" fill="#0277BD"/>
</g>
<g filter="url(#filter3_d_31_5892)">
<path d="M16.9999 22.104L41.9999 41V50.647C41.9999 51.845 40.5179 52.405 39.7249 51.507L12.6579 26.761C11.7579 25.931 11.8089 24.494 12.7649 23.729C12.7649 23.729 14.0889 22.497 14.5679 22.155C15.3039 21.63 16.2709 21.57 16.9999 22.104Z" fill="#0288D1"/>
</g>
</g>
</g>
<defs>
<filter id="filter0_i_31_5892" x="4" y="4" width="56" height="60" filterUnits="userSpaceOnUse" color-interpolation-filters="sRGB">
<feFlood flood-opacity="0" result="BackgroundImageFix"/>
<feBlend mode="normal" in="SourceGraphic" in2="BackgroundImageFix" result="shape"/>
<feColorMatrix in="SourceAlpha" type="matrix" values="0 0 0 0 0 0 0 0 0 0 0 0 0 0 0 0 0 0 127 0" result="hardAlpha"/>
<feOffset dy="4"/>
<feGaussianBlur stdDeviation="2"/>
<feComposite in2="hardAlpha" operator="arithmetic" k2="-1" k3="1"/>
<feColorMatrix type="matrix" values="0 0 0 0 0 0 0 0 0 0 0 0 0 0 0 0 0 0 0.25 0"/>
<feBlend mode="normal" in2="shape" result="effect1_innerShadow_31_5892"/>
</filter>
<filter id="filter1_d_31_5892" x="37.2002" y="10.15" width="18.7998" height="47.7" filterUnits="userSpaceOnUse" color-interpolation-filters="sRGB">
<feFlood flood-opacity="0" result="BackgroundImageFix"/>
<feColorMatrix in="SourceAlpha" type="matrix" values="0 0 0 0 0 0 0 0 0 0 0 0 0 0 0 0 0 0 127 0" result="hardAlpha"/>
<feOffset dy="2"/>
<feGaussianBlur stdDeviation="2"/>
<feComposite in2="hardAlpha" operator="out"/>
<feColorMatrix type="matrix" values="0 0 0 0 0 0 0 0 0 0 0 0 0 0 0 0 0 0 0.25 0"/>
<feBlend mode="normal" in2="BackgroundImageFix" result="effect1_dropShadow_31_5892"/>
<feBlend mode="normal" in="SourceGraphic" in2="effect1_dropShadow_31_5892" result="shape"/>
</filter>
<filter id="filter2_d_31_5892" x="8.01416" y="10.0504" width="37.9858" height="38.2183" filterUnits="userSpaceOnUse" color-interpolation-filters="sRGB">
<feFlood flood-opacity="0" result="BackgroundImageFix"/>
<feColorMatrix in="SourceAlpha" type="matrix" values="0 0 0 0 0 0 0 0 0 0 0 0 0 0 0 0 0 0 127 0" result="hardAlpha"/>
<feOffset dy="2"/>
<feGaussianBlur stdDeviation="2"/>
<feComposite in2="hardAlpha" operator="out"/>
<feColorMatrix type="matrix" values="0 0 0 0 0 0 0 0 0 0 0 0 0 0 0 0 0 0 0.25 0"/>
<feBlend mode="normal" in2="BackgroundImageFix" result="effect1_dropShadow_31_5892"/>
<feBlend mode="normal" in="SourceGraphic" in2="effect1_dropShadow_31_5892" result="shape"/>
</filter>
<filter id="filter3_d_31_5892" x="8.01416" y="19.7313" width="37.9858" height="38.2183" filterUnits="userSpaceOnUse" color-interpolation-filters="sRGB">
<feFlood flood-opacity="0" result="BackgroundImageFix"/>
<feColorMatrix in="SourceAlpha" type="matrix" values="0 0 0 0 0 0 0 0 0 0 0 0 0 0 0 0 0 0 127 0" result="hardAlpha"/>
<feOffset dy="2"/>
<feGaussianBlur stdDeviation="2"/>
<feComposite in2="hardAlpha" operator="out"/>
<feColorMatrix type="matrix" values="0 0 0 0 0 0 0 0 0 0 0 0 0 0 0 0 0 0 0.25 0"/>
<feBlend mode="normal" in2="BackgroundImageFix" result="effect1_dropShadow_31_5892"/>
<feBlend mode="normal" in="SourceGraphic" in2="effect1_dropShadow_31_5892" result="shape"/>
</filter>
<linearGradient id="paint0_linear_31_5892" x1="32" y1="0" x2="32" y2="64" gradientUnits="userSpaceOnUse">
<stop stop-color="#29B6F6"/>
<stop offset="0.510417" stop-color="#0288D1"/>
<stop offset="1" stop-color="#0277BD"/>
</linearGradient>
<clipPath id="clip0_31_5892">
<rect width="64" height="64" fill="white"/>
</clipPath>
</defs>
</svg>
