<svg width="64" height="64" viewBox="0 0 64 64" fill="none" xmlns="http://www.w3.org/2000/svg">
<g clip-path="url(#clip0_31_6031)">
<path d="M48 0H16C7.16344 0 0 7.16344 0 16V48C0 56.8366 7.16344 64 16 64H48C56.8366 64 64 56.8366 64 48V16C64 7.16344 56.8366 0 48 0Z" fill="url(#paint0_linear_31_6031)"/>
<path d="M48 0H16C7.16344 0 0 7.16344 0 16V48C0 56.8366 7.16344 64 16 64H48C56.8366 64 64 56.8366 64 48V16C64 7.16344 56.8366 0 48 0Z" fill="black" fill-opacity="0.9"/>
<g filter="url(#filter0_i_31_6031)">
<path d="M48 4H16C9.37258 4 4 9.37258 4 16V48C4 54.6274 9.37258 60 16 60H48C54.6274 60 60 54.6274 60 48V16C60 9.37258 54.6274 4 48 4Z" fill="black" fill-opacity="0.7"/>
<g filter="url(#filter1_diii_31_6031)">
<path d="M12.0975 13.5L27.5411 33.9077L12 50.5H15.4977L29.1038 35.9732L40.0973 50.5H52L35.6875 28.9444L50.153 13.5H46.6553L34.1247 26.8789L24.0002 13.5H12.0975ZM17.2411 16.0462H22.7092L46.8556 47.9534H41.3875L17.2411 16.0462Z" fill="white"/>
</g>
</g>
</g>
<defs>
<filter id="filter0_i_31_6031" x="4" y="4" width="56" height="60" filterUnits="userSpaceOnUse" color-interpolation-filters="sRGB">
<feFlood flood-opacity="0" result="BackgroundImageFix"/>
<feBlend mode="normal" in="SourceGraphic" in2="BackgroundImageFix" result="shape"/>
<feColorMatrix in="SourceAlpha" type="matrix" values="0 0 0 0 0 0 0 0 0 0 0 0 0 0 0 0 0 0 127 0" result="hardAlpha"/>
<feOffset dy="4"/>
<feGaussianBlur stdDeviation="2"/>
<feComposite in2="hardAlpha" operator="arithmetic" k2="-1" k3="1"/>
<feColorMatrix type="matrix" values="0 0 0 0 0 0 0 0 0 0 0 0 0 0 0 0 0 0 0.25 0"/>
<feBlend mode="normal" in2="shape" result="effect1_innerShadow_31_6031"/>
</filter>
<filter id="filter1_diii_31_6031" x="2" y="3.5" width="56" height="53" filterUnits="userSpaceOnUse" color-interpolation-filters="sRGB">
<feFlood flood-opacity="0" result="BackgroundImageFix"/>
<feColorMatrix in="SourceAlpha" type="matrix" values="0 0 0 0 0 0 0 0 0 0 0 0 0 0 0 0 0 0 127 0" result="hardAlpha"/>
<feOffset dx="-2" dy="-2"/>
<feGaussianBlur stdDeviation="4"/>
<feComposite in2="hardAlpha" operator="out"/>
<feColorMatrix type="matrix" values="0 0 0 0 1 0 0 0 0 1 0 0 0 0 1 0 0 0 0.1 0"/>
<feBlend mode="normal" in2="BackgroundImageFix" result="effect1_dropShadow_31_6031"/>
<feBlend mode="normal" in="SourceGraphic" in2="effect1_dropShadow_31_6031" result="shape"/>
<feColorMatrix in="SourceAlpha" type="matrix" values="0 0 0 0 0 0 0 0 0 0 0 0 0 0 0 0 0 0 127 0" result="hardAlpha"/>
<feOffset dx="-2" dy="2"/>
<feGaussianBlur stdDeviation="4"/>
<feComposite in2="hardAlpha" operator="arithmetic" k2="-1" k3="1"/>
<feColorMatrix type="matrix" values="0 0 0 0 1 0 0 0 0 1 0 0 0 0 1 0 0 0 0.1 0"/>
<feBlend mode="normal" in2="shape" result="effect2_innerShadow_31_6031"/>
<feColorMatrix in="SourceAlpha" type="matrix" values="0 0 0 0 0 0 0 0 0 0 0 0 0 0 0 0 0 0 127 0" result="hardAlpha"/>
<feOffset dx="2" dy="2"/>
<feGaussianBlur stdDeviation="4"/>
<feComposite in2="hardAlpha" operator="arithmetic" k2="-1" k3="1"/>
<feColorMatrix type="matrix" values="0 0 0 0 1 0 0 0 0 1 0 0 0 0 1 0 0 0 0.1 0"/>
<feBlend mode="normal" in2="effect2_innerShadow_31_6031" result="effect3_innerShadow_31_6031"/>
<feColorMatrix in="SourceAlpha" type="matrix" values="0 0 0 0 0 0 0 0 0 0 0 0 0 0 0 0 0 0 127 0" result="hardAlpha"/>
<feOffset dx="2" dy="-2"/>
<feGaussianBlur stdDeviation="4"/>
<feComposite in2="hardAlpha" operator="arithmetic" k2="-1" k3="1"/>
<feColorMatrix type="matrix" values="0 0 0 0 1 0 0 0 0 1 0 0 0 0 1 0 0 0 0.1 0"/>
<feBlend mode="normal" in2="effect3_innerShadow_31_6031" result="effect4_innerShadow_31_6031"/>
</filter>
<linearGradient id="paint0_linear_31_6031" x1="32" y1="0" x2="32" y2="64" gradientUnits="userSpaceOnUse">
<stop stop-color="white"/>
<stop offset="1" stop-color="#DFDFDF"/>
</linearGradient>
<clipPath id="clip0_31_6031">
<rect width="64" height="64" fill="white"/>
</clipPath>
</defs>
</svg>
