<svg width="64" height="64" viewBox="0 0 64 64" fill="none" xmlns="http://www.w3.org/2000/svg">
<g clip-path="url(#clip0_31_6058)">
<path d="M48 0H16C7.16344 0 0 7.16344 0 16V48C0 56.8366 7.16344 64 16 64H48C56.8366 64 64 56.8366 64 48V16C64 7.16344 56.8366 0 48 0Z" fill="url(#paint0_linear_31_6058)"/>
<g filter="url(#filter0_i_31_6058)">
<path d="M48 4H16C9.37258 4 4 9.37258 4 16V48C4 54.6274 9.37258 60 16 60H48C54.6274 60 60 54.6274 60 48V16C60 9.37258 54.6274 4 48 4Z" fill="black" fill-opacity="0.7"/>
<g filter="url(#filter1_d_31_6058)">
<path d="M51.1635 22.3727C50.7025 20.6506 49.3493 19.2973 47.6272 18.8363C44.5091 18 32 18 32 18C32 18 19.4909 18 16.3727 18.8363C14.6506 19.2973 13.2974 20.6506 12.8364 22.3727C12 25.4909 12 32.0006 12 32.0006C12 32.0006 12 38.5104 12.8364 41.6286C13.2974 43.3507 14.6506 44.704 16.3727 45.1649C19.4909 46.0013 32 46.0013 32 46.0013C32 46.0013 44.5091 46.0013 47.6272 45.1649C49.3493 44.704 50.7025 43.3507 51.1635 41.6286C52 38.5104 52 32.0006 52 32.0006C52 32.0006 51.9965 25.4909 51.1635 22.3727Z" fill="#FF0000"/>
</g>
<path d="M27.9961 38.0005L38.3879 32.0012L27.9961 26.0019V38.0005Z" fill="white"/>
</g>
</g>
<defs>
<filter id="filter0_i_31_6058" x="4" y="4" width="56" height="60" filterUnits="userSpaceOnUse" color-interpolation-filters="sRGB">
<feFlood flood-opacity="0" result="BackgroundImageFix"/>
<feBlend mode="normal" in="SourceGraphic" in2="BackgroundImageFix" result="shape"/>
<feColorMatrix in="SourceAlpha" type="matrix" values="0 0 0 0 0 0 0 0 0 0 0 0 0 0 0 0 0 0 127 0" result="hardAlpha"/>
<feOffset dy="4"/>
<feGaussianBlur stdDeviation="2"/>
<feComposite in2="hardAlpha" operator="arithmetic" k2="-1" k3="1"/>
<feColorMatrix type="matrix" values="0 0 0 0 0 0 0 0 0 0 0 0 0 0 0 0 0 0 0.25 0"/>
<feBlend mode="normal" in2="shape" result="effect1_innerShadow_31_6058"/>
</filter>
<filter id="filter1_d_31_6058" x="8" y="16" width="48" height="36.0013" filterUnits="userSpaceOnUse" color-interpolation-filters="sRGB">
<feFlood flood-opacity="0" result="BackgroundImageFix"/>
<feColorMatrix in="SourceAlpha" type="matrix" values="0 0 0 0 0 0 0 0 0 0 0 0 0 0 0 0 0 0 127 0" result="hardAlpha"/>
<feOffset dy="2"/>
<feGaussianBlur stdDeviation="2"/>
<feComposite in2="hardAlpha" operator="out"/>
<feColorMatrix type="matrix" values="0 0 0 0 0 0 0 0 0 0 0 0 0 0 0 0 0 0 0.25 0"/>
<feBlend mode="normal" in2="BackgroundImageFix" result="effect1_dropShadow_31_6058"/>
<feBlend mode="normal" in="SourceGraphic" in2="effect1_dropShadow_31_6058" result="shape"/>
</filter>
<linearGradient id="paint0_linear_31_6058" x1="32" y1="0" x2="32" y2="64" gradientUnits="userSpaceOnUse">
<stop stop-color="white"/>
<stop offset="1" stop-color="#DFDFDF"/>
</linearGradient>
<clipPath id="clip0_31_6058">
<rect width="64" height="64" fill="white"/>
</clipPath>
</defs>
</svg>
