<svg width="64" height="64" viewBox="0 0 64 64" fill="none" xmlns="http://www.w3.org/2000/svg">
<g clip-path="url(#clip0_31_6038)">
<path d="M48 0H16C7.16344 0 0 7.16344 0 16V48C0 56.8366 7.16344 64 16 64H48C56.8366 64 64 56.8366 64 48V16C64 7.16344 56.8366 0 48 0Z" fill="url(#paint0_linear_31_6038)"/>
<path d="M48 0H16C7.16344 0 0 7.16344 0 16V48C0 56.8366 7.16344 64 16 64H48C56.8366 64 64 56.8366 64 48V16C64 7.16344 56.8366 0 48 0Z" fill="url(#paint1_linear_31_6038)"/>
<g filter="url(#filter0_i_31_6038)">
<path d="M48 4H16C9.37258 4 4 9.37258 4 16V48C4 54.6274 9.37258 60 16 60H48C54.6274 60 60 54.6274 60 48V16C60 9.37258 54.6274 4 48 4Z" fill="black" fill-opacity="0.7"/>
<mask id="mask0_31_6038" style="mask-type:luminance" maskUnits="userSpaceOnUse" x="8" y="8" width="48" height="48">
<path d="M56 8H8V56H56V8Z" fill="white"/>
</mask>
<g mask="url(#mask0_31_6038)">
<g filter="url(#filter1_d_31_6038)">
<path d="M21.2571 53.865L49.728 48.992C50.764 48.8161 51.7215 48.3277 52.4725 47.5924C53.2235 46.857 53.7315 45.9099 53.929 44.8778C54.062 44.192 54.054 43.4863 53.906 42.8036C53.758 42.1209 53.473 41.4755 53.0685 40.9061C52.6635 40.3368 52.1475 39.8556 51.5515 39.4916C50.955 39.1277 50.2915 38.8885 49.6 38.7886L20.9737 34.7703C19.6951 34.5905 18.3934 34.6688 17.1455 35.0005C15.8977 35.3321 14.7289 35.9105 13.7083 36.7014C12.6877 37.4923 11.836 38.4797 11.2034 39.6053C10.5708 40.7309 10.1701 41.9718 10.0251 43.2548C9.85591 44.7443 10.0357 46.2527 10.5503 47.6606C11.0648 49.0685 11.9 50.3375 12.9897 51.367C14.0794 52.396 15.3937 53.158 16.8286 53.5915C18.2636 54.025 19.7797 54.119 21.2571 53.865Z" fill="url(#paint2_linear_31_6038)"/>
</g>
<g filter="url(#filter2_d_31_6038)">
<path d="M40.3564 12.1508L13.129 37.2571C12.1034 38.203 11.2951 39.36 10.7601 40.6485C10.225 41.937 9.97576 43.3263 10.0297 44.7204C10.0836 46.1146 10.4393 47.4804 11.0722 48.7238C11.7051 49.9672 12.6003 51.0585 13.6959 51.9225C15.6021 53.422 18.0034 54.1485 20.4213 53.957C22.8392 53.7655 25.0963 52.67 26.7427 50.889L51.8858 23.68C52.6348 22.8664 53.2108 21.9091 53.5783 20.8662C53.9463 19.8232 54.0983 18.7164 54.0253 17.6129C53.9523 16.5094 53.6553 15.4323 53.1533 14.447C52.6513 13.4616 51.9538 12.5887 51.1038 11.8811C49.5843 10.6153 47.6565 9.94474 45.6794 9.99439C43.7023 10.044 41.8106 10.8104 40.3564 12.1508Z" fill="url(#paint3_linear_31_6038)"/>
</g>
<g filter="url(#filter3_d_31_6038)">
<path d="M45.7967 48.0412L13.5269 24.8412C12.5351 24.1268 11.7157 23.1994 11.1291 22.127C10.5424 21.0546 10.2033 19.8644 10.1367 18.6439C10.07 17.4233 10.2775 16.2033 10.744 15.0735C11.2104 13.9436 11.9239 12.9325 12.8321 12.1143C14.3786 10.7217 16.3976 9.97056 18.4782 10.0139C20.5589 10.0572 22.5449 10.8917 24.0321 12.3475L52.448 40.1235C52.9455 40.61 53.34 41.1916 53.6075 41.8338C53.8755 42.4759 54.0115 43.1654 54.007 43.8612C54.003 44.5569 53.8585 45.2447 53.583 45.8835C53.307 46.5223 52.9055 47.0991 52.4025 47.5795C51.5275 48.414 50.389 48.9168 49.1827 49.0011C47.9767 49.0854 46.779 48.7459 45.7967 48.0412Z" fill="url(#paint4_linear_31_6038)"/>
</g>
<g filter="url(#filter4_d_31_6038)">
<path d="M18.2856 18.2857H45.7142V45.7143H18.2856V18.2857Z" fill="black"/>
</g>
<path d="M21.7051 40.5302H31.9908V42.2445H21.7051V40.5302Z" fill="white"/>
<path d="M24.6768 27.9223L20.7134 21.6732H23.3694L25.8288 25.8149L28.3339 21.6732H30.9122L26.9488 27.8812V31.9909H24.6768V27.9223Z" fill="white"/>
<path d="M35.4514 23.7669H32.3154V21.6732H40.8594V23.7669H37.7234V31.9909H35.4514V23.7669Z" fill="white"/>
</g>
</g>
</g>
<defs>
<filter id="filter0_i_31_6038" x="4" y="4" width="56" height="60" filterUnits="userSpaceOnUse" color-interpolation-filters="sRGB">
<feFlood flood-opacity="0" result="BackgroundImageFix"/>
<feBlend mode="normal" in="SourceGraphic" in2="BackgroundImageFix" result="shape"/>
<feColorMatrix in="SourceAlpha" type="matrix" values="0 0 0 0 0 0 0 0 0 0 0 0 0 0 0 0 0 0 127 0" result="hardAlpha"/>
<feOffset dy="4"/>
<feGaussianBlur stdDeviation="2"/>
<feComposite in2="hardAlpha" operator="arithmetic" k2="-1" k3="1"/>
<feColorMatrix type="matrix" values="0 0 0 0 0 0 0 0 0 0 0 0 0 0 0 0 0 0 0.25 0"/>
<feBlend mode="normal" in2="shape" result="effect1_innerShadow_31_6038"/>
</filter>
<filter id="filter1_d_31_6038" x="5.96338" y="32.6761" width="52.0601" height="27.3283" filterUnits="userSpaceOnUse" color-interpolation-filters="sRGB">
<feFlood flood-opacity="0" result="BackgroundImageFix"/>
<feColorMatrix in="SourceAlpha" type="matrix" values="0 0 0 0 0 0 0 0 0 0 0 0 0 0 0 0 0 0 127 0" result="hardAlpha"/>
<feOffset dy="2"/>
<feGaussianBlur stdDeviation="2"/>
<feComposite in2="hardAlpha" operator="out"/>
<feColorMatrix type="matrix" values="0 0 0 0 0 0 0 0 0 0 0 0 0 0 0 0 0 0 0.25 0"/>
<feBlend mode="normal" in2="BackgroundImageFix" result="effect1_dropShadow_31_6038"/>
<feBlend mode="normal" in="SourceGraphic" in2="effect1_dropShadow_31_6038" result="shape"/>
</filter>
<filter id="filter2_d_31_6038" x="6.02246" y="7.99182" width="52.0205" height="51.9953" filterUnits="userSpaceOnUse" color-interpolation-filters="sRGB">
<feFlood flood-opacity="0" result="BackgroundImageFix"/>
<feColorMatrix in="SourceAlpha" type="matrix" values="0 0 0 0 0 0 0 0 0 0 0 0 0 0 0 0 0 0 127 0" result="hardAlpha"/>
<feOffset dy="2"/>
<feGaussianBlur stdDeviation="2"/>
<feComposite in2="hardAlpha" operator="out"/>
<feColorMatrix type="matrix" values="0 0 0 0 0 0 0 0 0 0 0 0 0 0 0 0 0 0 0.25 0"/>
<feBlend mode="normal" in2="BackgroundImageFix" result="effect1_dropShadow_31_6038"/>
<feBlend mode="normal" in="SourceGraphic" in2="effect1_dropShadow_31_6038" result="shape"/>
</filter>
<filter id="filter3_d_31_6038" x="6.12451" y="8.01208" width="51.8828" height="47.0016" filterUnits="userSpaceOnUse" color-interpolation-filters="sRGB">
<feFlood flood-opacity="0" result="BackgroundImageFix"/>
<feColorMatrix in="SourceAlpha" type="matrix" values="0 0 0 0 0 0 0 0 0 0 0 0 0 0 0 0 0 0 127 0" result="hardAlpha"/>
<feOffset dy="2"/>
<feGaussianBlur stdDeviation="2"/>
<feComposite in2="hardAlpha" operator="out"/>
<feColorMatrix type="matrix" values="0 0 0 0 0 0 0 0 0 0 0 0 0 0 0 0 0 0 0.25 0"/>
<feBlend mode="normal" in2="BackgroundImageFix" result="effect1_dropShadow_31_6038"/>
<feBlend mode="normal" in="SourceGraphic" in2="effect1_dropShadow_31_6038" result="shape"/>
</filter>
<filter id="filter4_d_31_6038" x="14.2856" y="16.2857" width="35.4287" height="35.4286" filterUnits="userSpaceOnUse" color-interpolation-filters="sRGB">
<feFlood flood-opacity="0" result="BackgroundImageFix"/>
<feColorMatrix in="SourceAlpha" type="matrix" values="0 0 0 0 0 0 0 0 0 0 0 0 0 0 0 0 0 0 127 0" result="hardAlpha"/>
<feOffset dy="2"/>
<feGaussianBlur stdDeviation="2"/>
<feComposite in2="hardAlpha" operator="out"/>
<feColorMatrix type="matrix" values="0 0 0 0 0 0 0 0 0 0 0 0 0 0 0 0 0 0 0.25 0"/>
<feBlend mode="normal" in2="BackgroundImageFix" result="effect1_dropShadow_31_6038"/>
<feBlend mode="normal" in="SourceGraphic" in2="effect1_dropShadow_31_6038" result="shape"/>
</filter>
<linearGradient id="paint0_linear_31_6038" x1="32" y1="0" x2="32" y2="64" gradientUnits="userSpaceOnUse">
<stop stop-color="#3BEA62"/>
<stop offset="0.5" stop-color="#009AE5"/>
<stop offset="1" stop-color="#6B57FF"/>
</linearGradient>
<linearGradient id="paint1_linear_31_6038" x1="56.0125" y1="59.021" x2="8.6661" y2="20.3306" gradientUnits="userSpaceOnUse">
<stop offset="0.15" stop-color="#07C3F2"/>
<stop offset="0.53" stop-color="#6B57FF"/>
<stop offset="1" stop-color="#FF318C"/>
</linearGradient>
<linearGradient id="paint2_linear_31_6038" x1="45.92" y1="39.6298" x2="19.7485" y2="44.5623" gradientUnits="userSpaceOnUse">
<stop stop-color="#07C3F2"/>
<stop offset="1" stop-color="#6B57FF"/>
</linearGradient>
<linearGradient id="paint3_linear_31_6038" x1="45.0239" y1="19.264" x2="17.5953" y2="46.3908" gradientUnits="userSpaceOnUse">
<stop stop-color="#07C3F2"/>
<stop offset="1" stop-color="#6B57FF"/>
</linearGradient>
<linearGradient id="paint4_linear_31_6038" x1="48.5304" y1="45.9795" x2="19.1909" y2="19.0035" gradientUnits="userSpaceOnUse">
<stop offset="0.15" stop-color="#07C3F2"/>
<stop offset="0.53" stop-color="#6B57FF"/>
<stop offset="1" stop-color="#FF318C"/>
</linearGradient>
<clipPath id="clip0_31_6038">
<rect width="64" height="64" fill="white"/>
</clipPath>
</defs>
</svg>
