<svg width="42" height="42" viewBox="0 0 42 42" fill="none" xmlns="http://www.w3.org/2000/svg">
<g clip-path="url(#clip0_31_7261)">
<path d="M31.5 0H10.5C4.70101 0 0 4.70101 0 10.5V31.5C0 37.299 4.70101 42 10.5 42H31.5C37.299 42 42 37.299 42 31.5V10.5C42 4.70101 37.299 0 31.5 0Z" fill="url(#paint0_linear_31_7261)"/>
<path d="M31.5 0H10.5C4.70101 0 0 4.70101 0 10.5V31.5C0 37.299 4.70101 42 10.5 42H31.5C37.299 42 42 37.299 42 31.5V10.5C42 4.70101 37.299 0 31.5 0Z" fill="url(#paint1_linear_31_7261)"/>
<g filter="url(#filter0_i_31_7261)">
<path d="M31.5 2.625H10.5C6.15076 2.625 2.625 6.15076 2.625 10.5V31.5C2.625 35.8492 6.15076 39.375 10.5 39.375H31.5C35.8492 39.375 39.375 35.8492 39.375 31.5V10.5C39.375 6.15076 35.8492 2.625 31.5 2.625Z" fill="black" fill-opacity="0.7"/>
<mask id="mask0_31_7261" style="mask-type:luminance" maskUnits="userSpaceOnUse" x="5" y="5" width="32" height="32">
<path d="M36.75 5.25H5.25V36.75H36.75V5.25Z" fill="white"/>
</mask>
<g mask="url(#mask0_31_7261)">
<g filter="url(#filter1_d_31_7261)">
<path d="M28.6079 35.4001L35.4 17.442L29.9999 16.218L28.6079 35.4001Z" fill="#087CFA"/>
</g>
<g filter="url(#filter2_d_31_7261)">
<path d="M35.3162 29.7L28.6081 35.4L19.0352 32.9339L35.3162 29.7Z" fill="#087CFA"/>
</g>
<g filter="url(#filter3_d_31_7261)">
<path d="M10.185 19.7939L7.125 11.04L22.404 6.59998L10.185 19.7939Z" fill="#07C3F2"/>
</g>
<g filter="url(#filter4_d_31_7261)">
<path d="M31.7281 23.274L27.4411 15.957L27.5221 15.906L22.4041 6.59998L6.6001 23.667V35.4001L35.3162 29.7L31.7281 23.274Z" fill="url(#paint2_linear_31_7261)"/>
</g>
<g filter="url(#filter5_d_31_7261)">
<path d="M12 12H30V30H12V12Z" fill="black"/>
</g>
<path d="M14.2441 26.598H20.9941V27.723H14.2441V26.598Z" fill="white"/>
<path d="M16.6502 14.25H18.0002L20.8742 21.009H19.3322L18.7322 19.509H15.8822L15.2822 21.009H13.7822L16.6502 14.25ZM18.2042 18.201L17.3042 16.023L16.4042 18.201H18.2042Z" fill="white"/>
<path d="M20.6373 17.6609V17.6429C20.629 17.176 20.7154 16.7122 20.8912 16.2795C21.067 15.8469 21.3286 15.4543 21.6603 15.1255C21.9919 14.7967 22.3867 14.5384 22.8208 14.3663C23.2549 14.1941 23.7194 14.1117 24.1863 14.1239C24.6823 14.099 25.1781 14.1795 25.6409 14.3599C26.1036 14.5404 26.523 14.8168 26.8713 15.1709L25.9173 16.2719C25.4606 15.7974 24.8356 15.5215 24.1773 15.5039C23.0313 15.5039 22.2033 16.4549 22.2033 17.6219V17.6429C22.2033 18.8099 23.0103 19.7819 24.1773 19.7819C24.9543 19.7819 25.4313 19.4819 25.9773 18.9839L26.9193 19.9499C26.5747 20.3473 26.1448 20.6616 25.6617 20.8694C25.1785 21.0772 24.6547 21.1731 24.1293 21.1499C23.6688 21.1576 23.2115 21.0727 22.7846 20.9001C22.3576 20.7275 21.9697 20.4708 21.644 20.1453C21.3182 19.8198 21.0612 19.4322 20.8883 19.0054C20.7153 18.5786 20.63 18.1214 20.6373 17.6609Z" fill="white"/>
</g>
</g>
</g>
<defs>
<filter id="filter0_i_31_7261" x="2.625" y="2.625" width="36.75" height="40.75" filterUnits="userSpaceOnUse" color-interpolation-filters="sRGB">
<feFlood flood-opacity="0" result="BackgroundImageFix"/>
<feBlend mode="normal" in="SourceGraphic" in2="BackgroundImageFix" result="shape"/>
<feColorMatrix in="SourceAlpha" type="matrix" values="0 0 0 0 0 0 0 0 0 0 0 0 0 0 0 0 0 0 127 0" result="hardAlpha"/>
<feOffset dy="4"/>
<feGaussianBlur stdDeviation="2"/>
<feComposite in2="hardAlpha" operator="arithmetic" k2="-1" k3="1"/>
<feColorMatrix type="matrix" values="0 0 0 0 0 0 0 0 0 0 0 0 0 0 0 0 0 0 0.25 0"/>
<feBlend mode="normal" in2="shape" result="effect1_innerShadow_31_7261"/>
</filter>
<filter id="filter1_d_31_7261" x="24.6079" y="14.218" width="14.792" height="27.1821" filterUnits="userSpaceOnUse" color-interpolation-filters="sRGB">
<feFlood flood-opacity="0" result="BackgroundImageFix"/>
<feColorMatrix in="SourceAlpha" type="matrix" values="0 0 0 0 0 0 0 0 0 0 0 0 0 0 0 0 0 0 127 0" result="hardAlpha"/>
<feOffset dy="2"/>
<feGaussianBlur stdDeviation="2"/>
<feComposite in2="hardAlpha" operator="out"/>
<feColorMatrix type="matrix" values="0 0 0 0 0 0 0 0 0 0 0 0 0 0 0 0 0 0 0.25 0"/>
<feBlend mode="normal" in2="BackgroundImageFix" result="effect1_dropShadow_31_7261"/>
<feBlend mode="normal" in="SourceGraphic" in2="effect1_dropShadow_31_7261" result="shape"/>
</filter>
<filter id="filter2_d_31_7261" x="15.0352" y="27.7" width="24.2812" height="13.7001" filterUnits="userSpaceOnUse" color-interpolation-filters="sRGB">
<feFlood flood-opacity="0" result="BackgroundImageFix"/>
<feColorMatrix in="SourceAlpha" type="matrix" values="0 0 0 0 0 0 0 0 0 0 0 0 0 0 0 0 0 0 127 0" result="hardAlpha"/>
<feOffset dy="2"/>
<feGaussianBlur stdDeviation="2"/>
<feComposite in2="hardAlpha" operator="out"/>
<feColorMatrix type="matrix" values="0 0 0 0 0 0 0 0 0 0 0 0 0 0 0 0 0 0 0.25 0"/>
<feBlend mode="normal" in2="BackgroundImageFix" result="effect1_dropShadow_31_7261"/>
<feBlend mode="normal" in="SourceGraphic" in2="effect1_dropShadow_31_7261" result="shape"/>
</filter>
<filter id="filter3_d_31_7261" x="3.125" y="4.59998" width="23.2788" height="21.194" filterUnits="userSpaceOnUse" color-interpolation-filters="sRGB">
<feFlood flood-opacity="0" result="BackgroundImageFix"/>
<feColorMatrix in="SourceAlpha" type="matrix" values="0 0 0 0 0 0 0 0 0 0 0 0 0 0 0 0 0 0 127 0" result="hardAlpha"/>
<feOffset dy="2"/>
<feGaussianBlur stdDeviation="2"/>
<feComposite in2="hardAlpha" operator="out"/>
<feColorMatrix type="matrix" values="0 0 0 0 0 0 0 0 0 0 0 0 0 0 0 0 0 0 0.25 0"/>
<feBlend mode="normal" in2="BackgroundImageFix" result="effect1_dropShadow_31_7261"/>
<feBlend mode="normal" in="SourceGraphic" in2="effect1_dropShadow_31_7261" result="shape"/>
</filter>
<filter id="filter4_d_31_7261" x="2.6001" y="4.59998" width="36.7163" height="36.8001" filterUnits="userSpaceOnUse" color-interpolation-filters="sRGB">
<feFlood flood-opacity="0" result="BackgroundImageFix"/>
<feColorMatrix in="SourceAlpha" type="matrix" values="0 0 0 0 0 0 0 0 0 0 0 0 0 0 0 0 0 0 127 0" result="hardAlpha"/>
<feOffset dy="2"/>
<feGaussianBlur stdDeviation="2"/>
<feComposite in2="hardAlpha" operator="out"/>
<feColorMatrix type="matrix" values="0 0 0 0 0 0 0 0 0 0 0 0 0 0 0 0 0 0 0.25 0"/>
<feBlend mode="normal" in2="BackgroundImageFix" result="effect1_dropShadow_31_7261"/>
<feBlend mode="normal" in="SourceGraphic" in2="effect1_dropShadow_31_7261" result="shape"/>
</filter>
<filter id="filter5_d_31_7261" x="8" y="10" width="26" height="26" filterUnits="userSpaceOnUse" color-interpolation-filters="sRGB">
<feFlood flood-opacity="0" result="BackgroundImageFix"/>
<feColorMatrix in="SourceAlpha" type="matrix" values="0 0 0 0 0 0 0 0 0 0 0 0 0 0 0 0 0 0 127 0" result="hardAlpha"/>
<feOffset dy="2"/>
<feGaussianBlur stdDeviation="2"/>
<feComposite in2="hardAlpha" operator="out"/>
<feColorMatrix type="matrix" values="0 0 0 0 0 0 0 0 0 0 0 0 0 0 0 0 0 0 0.25 0"/>
<feBlend mode="normal" in2="BackgroundImageFix" result="effect1_dropShadow_31_7261"/>
<feBlend mode="normal" in="SourceGraphic" in2="effect1_dropShadow_31_7261" result="shape"/>
</filter>
<linearGradient id="paint0_linear_31_7261" x1="21" y1="0" x2="21" y2="42" gradientUnits="userSpaceOnUse">
<stop stop-color="#FCF84A"/>
<stop offset="0.244792" stop-color="#9AF156"/>
<stop offset="0.510417" stop-color="#7AE36F"/>
<stop offset="0.744792" stop-color="#21D789"/>
<stop offset="1" stop-color="#07C3F2"/>
</linearGradient>
<linearGradient id="paint1_linear_31_7261" x1="27.608" y1="43.3345" x2="6.82014" y2="14.2356" gradientUnits="userSpaceOnUse">
<stop offset="0.09" stop-color="#21D789"/>
<stop offset="0.48" stop-color="#07C3F2"/>
<stop offset="0.9" stop-color="#087CFA"/>
</linearGradient>
<linearGradient id="paint2_linear_31_7261" x1="25.4761" y1="36.3149" x2="11.2081" y2="16.401" gradientUnits="userSpaceOnUse">
<stop offset="0.09" stop-color="#21D789"/>
<stop offset="0.48" stop-color="#07C3F2"/>
<stop offset="0.9" stop-color="#087CFA"/>
</linearGradient>
<clipPath id="clip0_31_7261">
<rect width="42" height="42" fill="white"/>
</clipPath>
</defs>
</svg>
