<svg width="42" height="42" viewBox="0 0 42 42" fill="none" xmlns="http://www.w3.org/2000/svg">
<g clip-path="url(#clip0_31_7309)">
<path d="M31.5 0H10.5C4.70101 0 0 4.70101 0 10.5V31.5C0 37.299 4.70101 42 10.5 42H31.5C37.299 42 42 37.299 42 31.5V10.5C42 4.70101 37.299 0 31.5 0Z" fill="url(#paint0_linear_31_7309)"/>
<g filter="url(#filter0_i_31_7309)">
<path d="M31.5 2.625H10.5C6.15076 2.625 2.625 6.15076 2.625 10.5V31.5C2.625 35.8492 6.15076 39.375 10.5 39.375H31.5C35.8492 39.375 39.375 35.8492 39.375 31.5V10.5C39.375 6.15076 35.8492 2.625 31.5 2.625Z" fill="black" fill-opacity="0.7"/>
<mask id="mask0_31_7309" style="mask-type:luminance" maskUnits="userSpaceOnUse" x="6" y="6" width="30" height="30">
<path d="M6.75 6.75H35.55V35.5501H6.75V6.75Z" fill="white"/>
</mask>
<g mask="url(#mask0_31_7309)">
<g filter="url(#filter1_d_31_7309)">
<path d="M20.3617 17.0932L8.18135 14.1165L6.75 17.5029L11.1407 31.5468L22.8065 35.5498L20.3617 17.0932Z" fill="url(#paint1_linear_31_7309)"/>
</g>
<g filter="url(#filter2_d_31_7309)">
<path d="M35.55 14.9884L32.6226 9.25655L17.6853 6.75L11.1406 31.5471L22.8065 35.5501L23.4314 34.524L35.55 14.9884Z" fill="url(#paint2_linear_31_7309)"/>
</g>
<g filter="url(#filter3_d_31_7309)">
<path d="M30.2104 12.15H12.2104V30.15H30.2104V12.15Z" fill="black"/>
</g>
<path d="M24.2807 14.3458H25.6548L28.5581 21.1683H27L26.3807 19.649H23.5162L22.8968 21.1683H21.3774L24.2807 14.3458ZM25.8484 18.3329L24.9484 16.1361L24.0484 18.3329H25.8484Z" fill="white"/>
<path d="M20.194 21.3717L19.4489 20.704C18.8779 21.0717 18.1908 21.2846 17.4359 21.2846C15.3457 21.2846 13.8457 19.7265 13.8457 17.8008V17.7814C13.8457 15.8556 15.365 14.2782 17.4553 14.2782C19.5456 14.2782 21.0456 15.8363 21.0456 17.762V17.7814C21.0456 18.4975 20.8231 19.1653 20.4456 19.7265L21.1424 20.3168L20.194 21.3717ZM18.3456 19.7265L17.2425 18.7878L18.1908 17.7233L19.3037 18.7298C19.4199 18.4588 19.4875 18.1394 19.4875 17.8008V17.7814C19.4875 16.6201 18.636 15.6524 17.4359 15.6524C16.236 15.6524 15.4037 16.6008 15.4037 17.762V17.7814C15.4037 18.9427 16.2554 19.9104 17.4553 19.9104C17.7844 19.9104 18.0844 19.8523 18.3456 19.7265Z" fill="white"/>
<path d="M20.6479 26.7747H13.8979V27.8996H20.6479V26.7747Z" fill="white"/>
</g>
</g>
</g>
<defs>
<filter id="filter0_i_31_7309" x="2.625" y="2.625" width="36.75" height="40.75" filterUnits="userSpaceOnUse" color-interpolation-filters="sRGB">
<feFlood flood-opacity="0" result="BackgroundImageFix"/>
<feBlend mode="normal" in="SourceGraphic" in2="BackgroundImageFix" result="shape"/>
<feColorMatrix in="SourceAlpha" type="matrix" values="0 0 0 0 0 0 0 0 0 0 0 0 0 0 0 0 0 0 127 0" result="hardAlpha"/>
<feOffset dy="4"/>
<feGaussianBlur stdDeviation="2"/>
<feComposite in2="hardAlpha" operator="arithmetic" k2="-1" k3="1"/>
<feColorMatrix type="matrix" values="0 0 0 0 0 0 0 0 0 0 0 0 0 0 0 0 0 0 0.25 0"/>
<feBlend mode="normal" in2="shape" result="effect1_innerShadow_31_7309"/>
</filter>
<filter id="filter1_d_31_7309" x="2.75" y="12.1165" width="24.0566" height="29.4333" filterUnits="userSpaceOnUse" color-interpolation-filters="sRGB">
<feFlood flood-opacity="0" result="BackgroundImageFix"/>
<feColorMatrix in="SourceAlpha" type="matrix" values="0 0 0 0 0 0 0 0 0 0 0 0 0 0 0 0 0 0 127 0" result="hardAlpha"/>
<feOffset dy="2"/>
<feGaussianBlur stdDeviation="2"/>
<feComposite in2="hardAlpha" operator="out"/>
<feColorMatrix type="matrix" values="0 0 0 0 0 0 0 0 0 0 0 0 0 0 0 0 0 0 0.25 0"/>
<feBlend mode="normal" in2="BackgroundImageFix" result="effect1_dropShadow_31_7309"/>
<feBlend mode="normal" in="SourceGraphic" in2="effect1_dropShadow_31_7309" result="shape"/>
</filter>
<filter id="filter2_d_31_7309" x="7.14062" y="4.75" width="32.4092" height="36.8" filterUnits="userSpaceOnUse" color-interpolation-filters="sRGB">
<feFlood flood-opacity="0" result="BackgroundImageFix"/>
<feColorMatrix in="SourceAlpha" type="matrix" values="0 0 0 0 0 0 0 0 0 0 0 0 0 0 0 0 0 0 127 0" result="hardAlpha"/>
<feOffset dy="2"/>
<feGaussianBlur stdDeviation="2"/>
<feComposite in2="hardAlpha" operator="out"/>
<feColorMatrix type="matrix" values="0 0 0 0 0 0 0 0 0 0 0 0 0 0 0 0 0 0 0.25 0"/>
<feBlend mode="normal" in2="BackgroundImageFix" result="effect1_dropShadow_31_7309"/>
<feBlend mode="normal" in="SourceGraphic" in2="effect1_dropShadow_31_7309" result="shape"/>
</filter>
<filter id="filter3_d_31_7309" x="8.21045" y="10.15" width="26" height="26" filterUnits="userSpaceOnUse" color-interpolation-filters="sRGB">
<feFlood flood-opacity="0" result="BackgroundImageFix"/>
<feColorMatrix in="SourceAlpha" type="matrix" values="0 0 0 0 0 0 0 0 0 0 0 0 0 0 0 0 0 0 127 0" result="hardAlpha"/>
<feOffset dy="2"/>
<feGaussianBlur stdDeviation="2"/>
<feComposite in2="hardAlpha" operator="out"/>
<feColorMatrix type="matrix" values="0 0 0 0 0 0 0 0 0 0 0 0 0 0 0 0 0 0 0.25 0"/>
<feBlend mode="normal" in2="BackgroundImageFix" result="effect1_dropShadow_31_7309"/>
<feBlend mode="normal" in="SourceGraphic" in2="effect1_dropShadow_31_7309" result="shape"/>
</filter>
<linearGradient id="paint0_linear_31_7309" x1="21" y1="0" x2="21" y2="42" gradientUnits="userSpaceOnUse">
<stop stop-color="#3BEA62"/>
<stop offset="0.510417" stop-color="#087DF7"/>
<stop offset="1" stop-color="#6B57FF"/>
</linearGradient>
<linearGradient id="paint1_linear_31_7309" x1="17.3058" y1="30.8307" x2="13.514" y2="17.1472" gradientUnits="userSpaceOnUse">
<stop stop-color="#087CFA"/>
<stop offset="1" stop-color="#6B57FF"/>
</linearGradient>
<linearGradient id="paint2_linear_31_7309" x1="12.0994" y1="32.8689" x2="26.2166" y2="12.561" gradientUnits="userSpaceOnUse">
<stop stop-color="#087CFA"/>
<stop offset="0.387317" stop-color="#097FF6"/>
<stop offset="0.960121" stop-color="#3BEA62"/>
</linearGradient>
<clipPath id="clip0_31_7309">
<rect width="42" height="42" fill="white"/>
</clipPath>
</defs>
</svg>
