<svg width="42" height="42" viewBox="0 0 42 42" fill="none" xmlns="http://www.w3.org/2000/svg">
<g clip-path="url(#clip0_31_7345)">
<path d="M31.5 0H10.5C4.70101 0 0 4.70101 0 10.5V31.5C0 37.299 4.70101 42 10.5 42H31.5C37.299 42 42 37.299 42 31.5V10.5C42 4.70101 37.299 0 31.5 0Z" fill="url(#paint0_linear_31_7345)"/>
<g filter="url(#filter0_i_31_7345)">
<path d="M31.5 2.625H10.5C6.15076 2.625 2.625 6.15076 2.625 10.5V31.5C2.625 35.8492 6.15076 39.375 10.5 39.375H31.5C35.8492 39.375 39.375 35.8492 39.375 31.5V10.5C39.375 6.15076 35.8492 2.625 31.5 2.625Z" fill="black" fill-opacity="0.7"/>
<g filter="url(#filter1_d_31_7345)">
<path fill-rule="evenodd" clip-rule="evenodd" d="M31.3358 14.1591L31.9483 12.6511C31.9483 12.6511 31.1688 11.8134 30.2222 10.8639C29.2757 9.91439 27.2713 10.4729 27.2713 10.4729L24.9884 7.875H20.9795H16.9707L14.6878 10.4729C14.6878 10.4729 12.6834 9.91439 11.7368 10.8639C10.7903 11.8134 10.0108 12.6511 10.0108 12.6511L10.6232 14.1591L9.84375 16.3931C9.84375 16.3931 12.1363 25.1034 12.405 26.1671C12.9339 28.2615 13.2959 29.0713 14.7992 30.1325C16.3025 31.1937 19.0308 33.0366 19.4762 33.3158C19.9216 33.5954 20.4784 34.0709 20.9795 34.0709C21.4806 34.0709 22.0374 33.5954 22.4829 33.3158C22.9283 33.0366 25.6566 31.1937 27.1599 30.1325C28.6632 29.0713 29.0251 28.2615 29.5541 26.1671C29.8227 25.1034 32.1153 16.3931 32.1153 16.3931L31.3358 14.1591Z" fill="#FF5500"/>
<path fill-rule="evenodd" clip-rule="evenodd" d="M26.6307 12.1205C26.6307 12.1205 29.567 15.681 29.567 16.442C29.567 17.203 29.1976 17.4038 28.8262 17.7994C28.4549 18.195 26.8329 19.9227 26.6246 20.1445C26.4163 20.3664 25.9827 20.7028 26.2377 21.3083C26.4928 21.9138 26.8691 22.6843 26.4506 23.4657C26.0322 24.2472 25.3153 24.7688 24.856 24.6825C24.3966 24.5962 23.3178 24.0308 22.9211 23.7725C22.5244 23.5141 21.2671 22.474 21.2671 22.076C21.2671 21.678 22.5668 20.9635 22.8068 20.8011C23.047 20.6388 24.1423 20.0104 24.1647 19.7638C24.1871 19.5171 24.1785 19.4448 23.8553 18.8353C23.5321 18.2258 22.95 17.4125 23.0469 16.8714C23.1438 16.3303 24.0826 16.0489 24.7525 15.7951C25.4223 15.5414 26.7121 15.0621 26.8732 14.9876C27.0344 14.9131 26.9927 14.8421 26.5046 14.7957C26.0166 14.7492 24.6315 14.5648 24.0071 14.7394C23.3826 14.914 22.3158 15.1796 22.2294 15.3205C22.143 15.4614 22.0668 15.4661 22.1555 15.952C22.2442 16.4379 22.7011 18.7695 22.7454 19.1836C22.7898 19.5978 22.8766 19.8715 22.4314 19.9736C21.9862 20.0757 21.2368 20.253 20.9793 20.253C20.7218 20.253 19.9723 20.0757 19.5272 19.9736C19.082 19.8715 19.1687 19.5978 19.2131 19.1836C19.2575 18.7695 19.7143 16.4379 19.8031 15.952C19.8918 15.4661 19.8156 15.4614 19.7292 15.3205C19.6428 15.1796 18.5759 14.914 17.9515 14.7394C17.327 14.5648 15.942 14.7492 15.454 14.7957C14.9659 14.8421 14.9242 14.9131 15.0853 14.9876C15.2465 15.0621 16.5363 15.5414 17.2061 15.7951C17.876 16.0489 18.8148 16.3303 18.9117 16.8714C19.0085 17.4125 18.4264 18.2258 18.1033 18.8353C17.78 19.4448 17.7715 19.5171 17.7939 19.7638C17.8163 20.0104 18.9115 20.6388 19.1517 20.8011C19.3919 20.9635 20.6915 21.678 20.6915 22.076C20.6915 22.474 19.4342 23.5141 19.0375 23.7725C18.6408 24.0308 17.562 24.5962 17.1027 24.6825C16.6433 24.7688 15.9264 24.2472 15.508 23.4657C15.0895 22.6843 15.4658 21.9138 15.7208 21.3083C15.9759 20.7028 15.5423 20.3664 15.334 20.1445C15.1257 19.9227 13.5037 18.195 13.1323 17.7994C12.7609 17.4038 12.3916 17.203 12.3916 16.442C12.3916 15.681 15.3279 12.1205 15.3279 12.1205C15.3279 12.1205 17.8056 12.5952 18.1397 12.5952C18.4738 12.5952 19.1976 12.316 19.8657 12.0926C20.5339 11.8692 20.9793 11.8676 20.9793 11.8676C20.9793 11.8676 21.4247 11.8692 22.0929 12.0926C22.761 12.316 23.4849 12.5952 23.8189 12.5952C24.153 12.5952 26.6307 12.1205 26.6307 12.1205ZM24.4295 25.7402C24.6112 25.8543 24.5004 26.0695 24.3348 26.1869C24.1693 26.3043 21.9443 28.0326 21.7283 28.2236C21.5124 28.4146 21.195 28.7302 20.9793 28.7302C20.7635 28.7302 20.4462 28.4146 20.2302 28.2236C20.0143 28.0326 17.7893 26.3043 17.6238 26.1869C17.4581 26.0695 17.3473 25.8543 17.5291 25.7402C17.7109 25.6261 18.2795 25.338 19.0642 24.9307C19.8488 24.5234 20.8267 24.1772 20.9793 24.1772C21.1319 24.1772 22.1097 24.5234 22.8944 24.9307C23.679 25.338 24.2477 25.6261 24.4295 25.7402Z" fill="white"/>
<path d="M27.2712 10.473L24.9884 7.87512H20.9795H16.9706L14.6878 10.473C14.6878 10.473 12.6834 9.91452 11.7368 10.864C11.7368 10.864 14.4094 10.622 15.3281 12.1206C15.3281 12.1206 17.8058 12.5954 18.1399 12.5954C18.4739 12.5954 19.1978 12.3161 19.8659 12.0927C20.5341 11.8693 20.9795 11.8677 20.9795 11.8677C20.9795 11.8677 21.4249 11.8693 22.0931 12.0927C22.7612 12.3161 23.4851 12.5954 23.8191 12.5954C24.1532 12.5954 26.6309 12.1206 26.6309 12.1206C27.5496 10.622 30.2222 10.864 30.2222 10.864C29.2757 9.91452 27.2712 10.473 27.2712 10.473Z" fill="#FF2000"/>
<path d="M27.2712 10.473L24.9884 7.87512H20.9795H16.9706L14.6878 10.473C14.6878 10.473 12.6834 9.91452 11.7368 10.864C11.7368 10.864 14.4094 10.622 15.3281 12.1206C15.3281 12.1206 17.8058 12.5954 18.1399 12.5954C18.4739 12.5954 19.1978 12.3161 19.8659 12.0927C20.5341 11.8693 20.9795 11.8677 20.9795 11.8677C20.9795 11.8677 21.4249 11.8693 22.0931 12.0927C22.7612 12.3161 23.4851 12.5954 23.8191 12.5954C24.1532 12.5954 26.6309 12.1206 26.6309 12.1206C27.5496 10.622 30.2222 10.864 30.2222 10.864C29.2757 9.91452 27.2712 10.473 27.2712 10.473Z" fill="black" fill-opacity="0.1"/>
</g>
</g>
</g>
<defs>
<filter id="filter0_i_31_7345" x="2.625" y="2.625" width="36.75" height="40.75" filterUnits="userSpaceOnUse" color-interpolation-filters="sRGB">
<feFlood flood-opacity="0" result="BackgroundImageFix"/>
<feBlend mode="normal" in="SourceGraphic" in2="BackgroundImageFix" result="shape"/>
<feColorMatrix in="SourceAlpha" type="matrix" values="0 0 0 0 0 0 0 0 0 0 0 0 0 0 0 0 0 0 127 0" result="hardAlpha"/>
<feOffset dy="4"/>
<feGaussianBlur stdDeviation="2"/>
<feComposite in2="hardAlpha" operator="arithmetic" k2="-1" k3="1"/>
<feColorMatrix type="matrix" values="0 0 0 0 0 0 0 0 0 0 0 0 0 0 0 0 0 0 0.25 0"/>
<feBlend mode="normal" in2="shape" result="effect1_innerShadow_31_7345"/>
</filter>
<filter id="filter1_d_31_7345" x="5.84375" y="5.875" width="30.2715" height="34.1959" filterUnits="userSpaceOnUse" color-interpolation-filters="sRGB">
<feFlood flood-opacity="0" result="BackgroundImageFix"/>
<feColorMatrix in="SourceAlpha" type="matrix" values="0 0 0 0 0 0 0 0 0 0 0 0 0 0 0 0 0 0 127 0" result="hardAlpha"/>
<feOffset dy="2"/>
<feGaussianBlur stdDeviation="2"/>
<feComposite in2="hardAlpha" operator="out"/>
<feColorMatrix type="matrix" values="0 0 0 0 0 0 0 0 0 0 0 0 0 0 0 0 0 0 0.25 0"/>
<feBlend mode="normal" in2="BackgroundImageFix" result="effect1_dropShadow_31_7345"/>
<feBlend mode="normal" in="SourceGraphic" in2="effect1_dropShadow_31_7345" result="shape"/>
</filter>
<linearGradient id="paint0_linear_31_7345" x1="0" y1="2129.63" x2="4200" y2="2129.63" gradientUnits="userSpaceOnUse">
<stop stop-color="#FF5500"/>
<stop offset="0.409877" stop-color="#FF5500"/>
<stop offset="0.581981" stop-color="#FF2000"/>
<stop offset="1" stop-color="#FF2000"/>
</linearGradient>
<clipPath id="clip0_31_7345">
<rect width="42" height="42" fill="white"/>
</clipPath>
</defs>
</svg>
