<svg width="42" height="42" viewBox="0 0 42 42" fill="none" xmlns="http://www.w3.org/2000/svg">
<g clip-path="url(#clip0_31_7368)">
<path d="M31.5 0H10.5C4.70101 0 0 4.70101 0 10.5V31.5C0 37.299 4.70101 42 10.5 42H31.5C37.299 42 42 37.299 42 31.5V10.5C42 4.70101 37.299 0 31.5 0Z" fill="url(#paint0_linear_31_7368)"/>
<g filter="url(#filter0_i_31_7368)">
<path d="M31.5 2.625H10.5C6.15076 2.625 2.625 6.15076 2.625 10.5V31.5C2.625 35.8492 6.15076 39.375 10.5 39.375H31.5C35.8492 39.375 39.375 35.8492 39.375 31.5V10.5C39.375 6.15076 35.8492 2.625 31.5 2.625Z" fill="black" fill-opacity="0.7"/>
<mask id="mask0_31_7368" style="mask-type:luminance" maskUnits="userSpaceOnUse" x="7" y="7" width="28" height="28">
<path d="M34.125 7.875H7.875V34.125H34.125V7.875Z" fill="white"/>
</mask>
<g mask="url(#mask0_31_7368)">
<g filter="url(#filter1_d_31_7368)">
<path d="M21.0001 21.0001L26.6836 24.2812L21.0001 34.125C28.2489 34.125 34.1251 28.2488 34.1251 21.0001C34.1251 18.6087 33.4823 16.3686 32.3649 14.4375H21L21.0001 21.0001Z" fill="url(#paint1_linear_31_7368)"/>
<path d="M21 7.875C16.142 7.875 11.9038 10.5161 9.63428 14.4391L15.3165 24.2813L21 21.0001V14.4375H32.3649C30.095 10.5156 25.8573 7.875 21 7.875Z" fill="url(#paint2_linear_31_7368)"/>
<path d="M7.87507 21.0001C7.87507 28.2488 13.7511 34.125 21 34.125L26.6835 24.2813L21 21.0001L15.3166 24.2813L9.63437 14.4391C8.5175 16.3697 7.87507 18.6091 7.87507 21.0001Z" fill="url(#paint3_linear_31_7368)"/>
<path d="M27.5627 21.0001C27.5627 24.6244 24.6244 27.5626 21.0001 27.5626C17.3757 27.5626 14.4375 24.6244 14.4375 21.0001C14.4375 17.3757 17.3757 14.4375 21.0001 14.4375C24.6244 14.4375 27.5627 17.3757 27.5627 21.0001Z" fill="white"/>
<path d="M26.3322 21.0001C26.3322 23.9449 23.9449 26.3321 21.0001 26.3321C18.0553 26.3321 15.668 23.9449 15.668 21.0001C15.668 18.0553 18.0553 15.668 21.0001 15.668C23.9449 15.668 26.3322 18.0553 26.3322 21.0001Z" fill="url(#paint4_linear_31_7368)"/>
</g>
</g>
</g>
</g>
<defs>
<filter id="filter0_i_31_7368" x="2.625" y="2.625" width="36.75" height="40.75" filterUnits="userSpaceOnUse" color-interpolation-filters="sRGB">
<feFlood flood-opacity="0" result="BackgroundImageFix"/>
<feBlend mode="normal" in="SourceGraphic" in2="BackgroundImageFix" result="shape"/>
<feColorMatrix in="SourceAlpha" type="matrix" values="0 0 0 0 0 0 0 0 0 0 0 0 0 0 0 0 0 0 127 0" result="hardAlpha"/>
<feOffset dy="4"/>
<feGaussianBlur stdDeviation="2"/>
<feComposite in2="hardAlpha" operator="arithmetic" k2="-1" k3="1"/>
<feColorMatrix type="matrix" values="0 0 0 0 0 0 0 0 0 0 0 0 0 0 0 0 0 0 0.25 0"/>
<feBlend mode="normal" in2="shape" result="effect1_innerShadow_31_7368"/>
</filter>
<filter id="filter1_d_31_7368" x="3.875" y="5.875" width="34.25" height="34.25" filterUnits="userSpaceOnUse" color-interpolation-filters="sRGB">
<feFlood flood-opacity="0" result="BackgroundImageFix"/>
<feColorMatrix in="SourceAlpha" type="matrix" values="0 0 0 0 0 0 0 0 0 0 0 0 0 0 0 0 0 0 127 0" result="hardAlpha"/>
<feOffset dy="2"/>
<feGaussianBlur stdDeviation="2"/>
<feComposite in2="hardAlpha" operator="out"/>
<feColorMatrix type="matrix" values="0 0 0 0 0 0 0 0 0 0 0 0 0 0 0 0 0 0 0.25 0"/>
<feBlend mode="normal" in2="BackgroundImageFix" result="effect1_dropShadow_31_7368"/>
<feBlend mode="normal" in="SourceGraphic" in2="effect1_dropShadow_31_7368" result="shape"/>
</filter>
<linearGradient id="paint0_linear_31_7368" x1="42" y1="0" x2="0" y2="42" gradientUnits="userSpaceOnUse">
<stop stop-color="#1971E5"/>
<stop offset="0.536458" stop-color="#4C8CF4"/>
<stop offset="1" stop-color="#9FC2FA"/>
</linearGradient>
<linearGradient id="paint1_linear_31_7368" x1="27.5906" y1="14.4104" x2="27.5625" y2="34.125" gradientUnits="userSpaceOnUse">
<stop stop-color="#AFCCFB"/>
<stop offset="1" stop-color="#8BB5F8"/>
</linearGradient>
<linearGradient id="paint2_linear_31_7368" x1="19.0965" y1="8.07496" x2="20.1814" y2="25.7127" gradientUnits="userSpaceOnUse">
<stop stop-color="#1972E7"/>
<stop offset="1" stop-color="#1969D5"/>
</linearGradient>
<linearGradient id="paint3_linear_31_7368" x1="17.2792" y1="14.4391" x2="17.2792" y2="34.125" gradientUnits="userSpaceOnUse">
<stop stop-color="#659CF6"/>
<stop offset="1" stop-color="#4285F4"/>
</linearGradient>
<linearGradient id="paint4_linear_31_7368" x1="20.9457" y1="15.6882" x2="21.0001" y2="26.3321" gradientUnits="userSpaceOnUse">
<stop stop-color="#3680F0"/>
<stop offset="1" stop-color="#2678EC"/>
</linearGradient>
<clipPath id="clip0_31_7368">
<rect width="42" height="42" fill="white"/>
</clipPath>
</defs>
</svg>
