<svg width="42" height="42" viewBox="0 0 42 42" fill="none" xmlns="http://www.w3.org/2000/svg">
<g clip-path="url(#clip0_31_7400)">
<path d="M31.5 0H10.5C4.70101 0 0 4.70101 0 10.5V31.5C0 37.299 4.70101 42 10.5 42H31.5C37.299 42 42 37.299 42 31.5V10.5C42 4.70101 37.299 0 31.5 0Z" fill="url(#paint0_linear_31_7400)"/>
<g filter="url(#filter0_i_31_7400)">
<path d="M31.5 2.625H10.5C6.15076 2.625 2.625 6.15076 2.625 10.5V31.5C2.625 35.8492 6.15076 39.375 10.5 39.375H31.5C35.8492 39.375 39.375 35.8492 39.375 31.5V10.5C39.375 6.15076 35.8492 2.625 31.5 2.625Z" fill="black" fill-opacity="0.7"/>
<mask id="mask0_31_7400" style="mask-type:luminance" maskUnits="userSpaceOnUse" x="7" y="7" width="28" height="28">
<path d="M34.125 7.875H7.875V34.125H34.125V7.875Z" fill="white"/>
</mask>
<g mask="url(#mask0_31_7400)">
<g filter="url(#filter1_d_31_7400)">
<path d="M30.1112 12.4992C28.412 11.7042 26.5952 11.1264 24.6957 10.7974C24.4624 11.2191 24.1898 11.7864 24.002 12.2377C21.9827 11.934 19.9821 11.934 18 12.2377C17.8121 11.7864 17.5334 11.2191 17.2981 10.7974C15.3965 11.1264 13.5775 11.7063 11.8783 12.5034C8.45102 17.6825 7.52194 22.733 7.98646 27.7118C10.2596 29.4093 12.4626 30.4406 14.6284 31.1154C15.1632 30.3794 15.6401 29.597 16.051 28.7725C15.2685 28.4752 14.519 28.1083 13.8108 27.6823C13.9987 27.5431 14.1825 27.3976 14.36 27.2478C18.6793 29.2681 23.3722 29.2681 27.6399 27.2478C27.8195 27.3976 28.0032 27.5431 28.1891 27.6823C27.4788 28.1104 26.7273 28.4773 25.9448 28.7746C26.3557 29.597 26.8305 30.3815 27.3673 31.1174C29.5352 30.4426 31.7403 29.4115 34.0134 27.7118C34.5585 21.9401 33.0822 16.936 30.1112 12.4992ZM16.6394 24.6499C15.3428 24.6499 14.2795 23.4394 14.2795 21.9654C14.2795 20.4914 15.3201 19.2789 16.6394 19.2789C17.9587 19.2789 19.022 20.4893 18.9993 21.9654C19.0014 23.4394 17.9587 24.6499 16.6394 24.6499ZM25.3605 24.6499C24.0639 24.6499 23.0006 23.4394 23.0006 21.9654C23.0006 20.4914 24.0412 19.2789 25.3605 19.2789C26.6798 19.2789 27.7431 20.4893 27.7204 21.9654C27.7204 23.4394 26.6798 24.6499 25.3605 24.6499Z" fill="#5865F2"/>
</g>
</g>
</g>
</g>
<defs>
<filter id="filter0_i_31_7400" x="2.625" y="2.625" width="36.75" height="40.75" filterUnits="userSpaceOnUse" color-interpolation-filters="sRGB">
<feFlood flood-opacity="0" result="BackgroundImageFix"/>
<feBlend mode="normal" in="SourceGraphic" in2="BackgroundImageFix" result="shape"/>
<feColorMatrix in="SourceAlpha" type="matrix" values="0 0 0 0 0 0 0 0 0 0 0 0 0 0 0 0 0 0 127 0" result="hardAlpha"/>
<feOffset dy="4"/>
<feGaussianBlur stdDeviation="2"/>
<feComposite in2="hardAlpha" operator="arithmetic" k2="-1" k3="1"/>
<feColorMatrix type="matrix" values="0 0 0 0 0 0 0 0 0 0 0 0 0 0 0 0 0 0 0.25 0"/>
<feBlend mode="normal" in2="shape" result="effect1_innerShadow_31_7400"/>
</filter>
<filter id="filter1_d_31_7400" x="3.875" y="8.79736" width="34.25" height="28.3201" filterUnits="userSpaceOnUse" color-interpolation-filters="sRGB">
<feFlood flood-opacity="0" result="BackgroundImageFix"/>
<feColorMatrix in="SourceAlpha" type="matrix" values="0 0 0 0 0 0 0 0 0 0 0 0 0 0 0 0 0 0 127 0" result="hardAlpha"/>
<feOffset dy="2"/>
<feGaussianBlur stdDeviation="2"/>
<feComposite in2="hardAlpha" operator="out"/>
<feColorMatrix type="matrix" values="0 0 0 0 0 0 0 0 0 0 0 0 0 0 0 0 0 0 0.25 0"/>
<feBlend mode="normal" in2="BackgroundImageFix" result="effect1_dropShadow_31_7400"/>
<feBlend mode="normal" in="SourceGraphic" in2="effect1_dropShadow_31_7400" result="shape"/>
</filter>
<linearGradient id="paint0_linear_31_7400" x1="21" y1="0" x2="21" y2="42" gradientUnits="userSpaceOnUse">
<stop stop-color="#5865F2"/>
<stop offset="1" stop-color="#424BAE"/>
</linearGradient>
<clipPath id="clip0_31_7400">
<rect width="42" height="42" fill="white"/>
</clipPath>
</defs>
</svg>
