<svg width="42" height="42" viewBox="0 0 42 42" fill="none" xmlns="http://www.w3.org/2000/svg">
<g clip-path="url(#clip0_31_7410)">
<path d="M31.5 0H10.5C4.70101 0 0 4.70101 0 10.5V31.5C0 37.299 4.70101 42 10.5 42H31.5C37.299 42 42 37.299 42 31.5V10.5C42 4.70101 37.299 0 31.5 0Z" fill="url(#paint0_linear_31_7410)"/>
<path d="M31.5 0H10.5C4.70101 0 0 4.70101 0 10.5V31.5C0 37.299 4.70101 42 10.5 42H31.5C37.299 42 42 37.299 42 31.5V10.5C42 4.70101 37.299 0 31.5 0Z" fill="url(#paint1_linear_31_7410)"/>
<g filter="url(#filter0_i_31_7410)">
<path d="M31.5 2.625H10.5C6.15076 2.625 2.625 6.15076 2.625 10.5V31.5C2.625 35.8492 6.15076 39.375 10.5 39.375H31.5C35.8492 39.375 39.375 35.8492 39.375 31.5V10.5C39.375 6.15076 35.8492 2.625 31.5 2.625Z" fill="black" fill-opacity="0.7"/>
<mask id="mask0_31_7410" style="mask-type:luminance" maskUnits="userSpaceOnUse" x="5" y="5" width="32" height="32">
<path d="M36.75 5.25H5.25V36.75H36.75V5.25Z" fill="white"/>
</mask>
<g mask="url(#mask0_31_7410)">
<g filter="url(#filter1_d_31_7410)">
<path d="M24.2101 6.59998L6.6001 8.58297V17.637L11.0161 32.3369L33.1591 26.7239L24.2101 6.59998Z" fill="url(#paint2_linear_31_7410)"/>
</g>
<g filter="url(#filter2_d_31_7410)">
<path d="M33.732 15.7379L26.7931 12.4139L17.0581 29.9399L19.7041 33.5281L26.4481 35.4L32.9402 31.305L35.4002 23.595L33.732 15.7379Z" fill="url(#paint3_linear_31_7410)"/>
</g>
<g filter="url(#filter3_d_31_7410)">
<path d="M12 11.9999H30V30H12V11.9999Z" fill="black"/>
</g>
<path d="M14.2441 26.598H20.9941V27.723H14.2441V26.598Z" fill="white"/>
<path d="M14.25 14.226H16.89C19.017 14.226 20.49 15.687 20.49 17.592V17.613C20.49 19.518 19.02 20.997 16.89 20.997H14.25V14.226ZM15.75 15.57V19.65H16.902C17.1725 19.6659 17.4434 19.6247 17.6969 19.5289C17.9504 19.4332 18.1809 19.2851 18.3733 19.0944C18.5658 18.9036 18.7159 18.6744 18.8139 18.4218C18.9119 18.1691 18.9555 17.8987 18.942 17.628V17.61C18.9557 17.3383 18.9124 17.0668 18.8148 16.8129C18.7172 16.559 18.5674 16.3284 18.3753 16.1359C18.183 15.9435 17.9526 15.7934 17.6989 15.6954C17.4452 15.5974 17.1737 15.5537 16.902 15.567L15.75 15.57Z" fill="white"/>
<path d="M21.1954 17.661V17.6429C21.1871 17.1755 21.2737 16.7112 21.4498 16.2781C21.626 15.8451 21.8882 15.4522 22.2204 15.1233C22.5527 14.7944 22.9482 14.5363 23.383 14.3645C23.8179 14.1927 24.283 14.1109 24.7504 14.124C25.246 14.0993 25.7412 14.1799 26.2035 14.3603C26.6657 14.5408 27.0845 14.8171 27.4324 15.1709L26.4784 16.272C26.0217 15.7974 25.3967 15.5216 24.7384 15.504C23.5924 15.504 22.7674 16.455 22.7674 17.6219V17.6429C22.7674 18.81 23.5714 19.782 24.7384 19.782C25.5184 19.782 25.9924 19.482 26.5384 18.984L27.4744 19.95C27.1303 20.3478 26.7005 20.6625 26.2172 20.8704C25.734 21.0782 25.2099 21.1738 24.6844 21.1499C24.2242 21.1573 23.7672 21.072 23.3406 20.8992C22.914 20.7265 22.5265 20.4697 22.201 20.1443C21.8756 19.8188 21.6188 19.4313 21.4461 19.0047C21.2734 18.5781 21.1881 18.1212 21.1954 17.661Z" fill="white"/>
</g>
</g>
</g>
<defs>
<filter id="filter0_i_31_7410" x="2.625" y="2.625" width="36.75" height="40.75" filterUnits="userSpaceOnUse" color-interpolation-filters="sRGB">
<feFlood flood-opacity="0" result="BackgroundImageFix"/>
<feBlend mode="normal" in="SourceGraphic" in2="BackgroundImageFix" result="shape"/>
<feColorMatrix in="SourceAlpha" type="matrix" values="0 0 0 0 0 0 0 0 0 0 0 0 0 0 0 0 0 0 127 0" result="hardAlpha"/>
<feOffset dy="4"/>
<feGaussianBlur stdDeviation="2"/>
<feComposite in2="hardAlpha" operator="arithmetic" k2="-1" k3="1"/>
<feColorMatrix type="matrix" values="0 0 0 0 0 0 0 0 0 0 0 0 0 0 0 0 0 0 0.25 0"/>
<feBlend mode="normal" in2="shape" result="effect1_innerShadow_31_7410"/>
</filter>
<filter id="filter1_d_31_7410" x="2.6001" y="4.59998" width="34.5591" height="33.737" filterUnits="userSpaceOnUse" color-interpolation-filters="sRGB">
<feFlood flood-opacity="0" result="BackgroundImageFix"/>
<feColorMatrix in="SourceAlpha" type="matrix" values="0 0 0 0 0 0 0 0 0 0 0 0 0 0 0 0 0 0 127 0" result="hardAlpha"/>
<feOffset dy="2"/>
<feGaussianBlur stdDeviation="2"/>
<feComposite in2="hardAlpha" operator="out"/>
<feColorMatrix type="matrix" values="0 0 0 0 0 0 0 0 0 0 0 0 0 0 0 0 0 0 0.25 0"/>
<feBlend mode="normal" in2="BackgroundImageFix" result="effect1_dropShadow_31_7410"/>
<feBlend mode="normal" in="SourceGraphic" in2="effect1_dropShadow_31_7410" result="shape"/>
</filter>
<filter id="filter2_d_31_7410" x="13.0581" y="10.4139" width="26.3423" height="30.9861" filterUnits="userSpaceOnUse" color-interpolation-filters="sRGB">
<feFlood flood-opacity="0" result="BackgroundImageFix"/>
<feColorMatrix in="SourceAlpha" type="matrix" values="0 0 0 0 0 0 0 0 0 0 0 0 0 0 0 0 0 0 127 0" result="hardAlpha"/>
<feOffset dy="2"/>
<feGaussianBlur stdDeviation="2"/>
<feComposite in2="hardAlpha" operator="out"/>
<feColorMatrix type="matrix" values="0 0 0 0 0 0 0 0 0 0 0 0 0 0 0 0 0 0 0.25 0"/>
<feBlend mode="normal" in2="BackgroundImageFix" result="effect1_dropShadow_31_7410"/>
<feBlend mode="normal" in="SourceGraphic" in2="effect1_dropShadow_31_7410" result="shape"/>
</filter>
<filter id="filter3_d_31_7410" x="8" y="9.99994" width="26" height="26" filterUnits="userSpaceOnUse" color-interpolation-filters="sRGB">
<feFlood flood-opacity="0" result="BackgroundImageFix"/>
<feColorMatrix in="SourceAlpha" type="matrix" values="0 0 0 0 0 0 0 0 0 0 0 0 0 0 0 0 0 0 127 0" result="hardAlpha"/>
<feOffset dy="2"/>
<feGaussianBlur stdDeviation="2"/>
<feComposite in2="hardAlpha" operator="out"/>
<feColorMatrix type="matrix" values="0 0 0 0 0 0 0 0 0 0 0 0 0 0 0 0 0 0 0.25 0"/>
<feBlend mode="normal" in2="BackgroundImageFix" result="effect1_dropShadow_31_7410"/>
<feBlend mode="normal" in="SourceGraphic" in2="effect1_dropShadow_31_7410" result="shape"/>
</filter>
<linearGradient id="paint0_linear_31_7410" x1="21" y1="0" x2="21" y2="42" gradientUnits="userSpaceOnUse">
<stop stop-color="#3BEA62"/>
<stop offset="0.510417" stop-color="#087DF7"/>
<stop offset="1" stop-color="#6B57FF"/>
</linearGradient>
<linearGradient id="paint1_linear_31_7410" x1="24.105" y1="37.3541" x2="14.7995" y2="3.78902" gradientUnits="userSpaceOnUse">
<stop offset="0.05" stop-color="#6B57FF"/>
<stop offset="0.12" stop-color="#7556FE"/>
<stop offset="0.24" stop-color="#8F53FB"/>
<stop offset="0.4" stop-color="#BA4DF5"/>
<stop offset="0.58" stop-color="#F446EE"/>
<stop offset="0.61" stop-color="#FF45ED"/>
<stop offset="0.69" stop-color="#FF3BBE"/>
<stop offset="0.77" stop-color="#FF318C"/>
<stop offset="0.99" stop-color="#FC801D"/>
</linearGradient>
<linearGradient id="paint2_linear_31_7410" x1="21.8431" y1="29.49" x2="16.2931" y2="8.83195" gradientUnits="userSpaceOnUse">
<stop offset="0.05" stop-color="#6B57FF"/>
<stop offset="0.12" stop-color="#7556FE"/>
<stop offset="0.24" stop-color="#8F53FB"/>
<stop offset="0.4" stop-color="#BA4DF5"/>
<stop offset="0.58" stop-color="#F446EE"/>
<stop offset="0.61" stop-color="#FF45ED"/>
<stop offset="0.69" stop-color="#FF3BBE"/>
<stop offset="0.77" stop-color="#FF318C"/>
<stop offset="0.99" stop-color="#FC801D"/>
</linearGradient>
<linearGradient id="paint3_linear_31_7410" x1="34.5031" y1="26.676" x2="23.6701" y2="23.1089" gradientUnits="userSpaceOnUse">
<stop offset="0.03" stop-color="#6B57FF"/>
<stop offset="0.39" stop-color="#FF45ED"/>
<stop offset="0.49" stop-color="#FF4DD1"/>
<stop offset="0.7" stop-color="#FE6189"/>
<stop offset="1" stop-color="#FC801D"/>
</linearGradient>
<clipPath id="clip0_31_7410">
<rect width="42" height="42" fill="white"/>
</clipPath>
</defs>
</svg>
