<svg width="42" height="42" viewBox="0 0 42 42" fill="none" xmlns="http://www.w3.org/2000/svg">
<g clip-path="url(#clip0_31_7448)">
<path d="M31.5 0H10.5C4.70101 0 0 4.70101 0 10.5V31.5C0 37.299 4.70101 42 10.5 42H31.5C37.299 42 42 37.299 42 31.5V10.5C42 4.70101 37.299 0 31.5 0Z" fill="url(#paint0_linear_31_7448)"/>
<path d="M31.5 0H10.5C4.70101 0 0 4.70101 0 10.5V31.5C0 37.299 4.70101 42 10.5 42H31.5C37.299 42 42 37.299 42 31.5V10.5C42 4.70101 37.299 0 31.5 0Z" fill="url(#paint1_linear_31_7448)"/>
<g filter="url(#filter0_i_31_7448)">
<path d="M31.5 2.625H10.5C6.15076 2.625 2.625 6.15076 2.625 10.5V31.5C2.625 35.8492 6.15076 39.375 10.5 39.375H31.5C35.8492 39.375 39.375 35.8492 39.375 31.5V10.5C39.375 6.15076 35.8492 2.625 31.5 2.625Z" fill="black" fill-opacity="0.7"/>
<mask id="mask0_31_7448" style="mask-type:luminance" maskUnits="userSpaceOnUse" x="5" y="5" width="32" height="32">
<path d="M36.75 5.25H5.25V36.75H36.75V5.25Z" fill="white"/>
</mask>
<g mask="url(#mask0_31_7448)">
<g filter="url(#filter1_d_31_7448)">
<path d="M26.2231 27.276L6.6001 23.352L12.3961 35.364L26.8711 32.841L26.2231 27.276Z" fill="url(#paint2_linear_31_7448)"/>
</g>
<g filter="url(#filter2_d_31_7448)">
<path d="M35.4002 19.452L27.4501 11.256L6.6001 15.651V23.352L32.3581 28.5001L35.4002 19.452Z" fill="url(#paint3_linear_31_7448)"/>
</g>
<path d="M35.4001 19.452L22.899 6.56403L13.104 9.52801L16.311 19.284L32.358 28.5L35.4001 19.452Z" fill="url(#paint4_linear_31_7448)"/>
<g filter="url(#filter3_d_31_7448)">
<path d="M33.1531 14.616L32.019 6.56403H27.723H22.899L13.104 9.52801L16.311 19.284L33.1531 14.616Z" fill="url(#paint5_linear_31_7448)"/>
</g>
<g filter="url(#filter4_d_31_7448)">
<path d="M12 12H30V30H12V12Z" fill="black"/>
</g>
<path d="M14.2441 26.5981H20.9941V27.7231H14.2441V26.5981Z" fill="white"/>
<path d="M14.25 14.226H16.89C19.017 14.226 20.49 15.687 20.49 17.592V17.613C20.49 19.518 19.02 20.997 16.89 20.997H14.25V14.226ZM15.75 15.57V19.65H16.902C17.1725 19.6659 17.4434 19.6247 17.6969 19.5289C17.9504 19.4332 18.1809 19.2851 18.3733 19.0944C18.5658 18.9036 18.7159 18.6744 18.8139 18.4218C18.9119 18.1691 18.9555 17.8987 18.942 17.628V17.61C18.9557 17.3383 18.9124 17.0668 18.8148 16.8129C18.7172 16.559 18.5674 16.3284 18.3753 16.1359C18.183 15.9435 17.9526 15.7934 17.6989 15.6954C17.4452 15.5974 17.1737 15.5537 16.902 15.567L15.75 15.57Z" fill="white"/>
<path d="M21.5763 14.226H24.3513C25.9713 14.226 26.9493 15.186 26.9493 16.575V16.593C26.9493 18.165 25.7283 18.993 24.2043 18.993H23.0703V21.03H21.5703L21.5763 14.226ZM24.2523 17.652C24.9993 17.652 25.4523 17.205 25.4523 16.623V16.602C25.4523 15.933 24.9873 15.576 24.2523 15.576H23.0703V17.652H24.2523Z" fill="white"/>
</g>
</g>
</g>
<defs>
<filter id="filter0_i_31_7448" x="2.625" y="2.625" width="36.75" height="40.75" filterUnits="userSpaceOnUse" color-interpolation-filters="sRGB">
<feFlood flood-opacity="0" result="BackgroundImageFix"/>
<feBlend mode="normal" in="SourceGraphic" in2="BackgroundImageFix" result="shape"/>
<feColorMatrix in="SourceAlpha" type="matrix" values="0 0 0 0 0 0 0 0 0 0 0 0 0 0 0 0 0 0 127 0" result="hardAlpha"/>
<feOffset dy="4"/>
<feGaussianBlur stdDeviation="2"/>
<feComposite in2="hardAlpha" operator="arithmetic" k2="-1" k3="1"/>
<feColorMatrix type="matrix" values="0 0 0 0 0 0 0 0 0 0 0 0 0 0 0 0 0 0 0.25 0"/>
<feBlend mode="normal" in2="shape" result="effect1_innerShadow_31_7448"/>
</filter>
<filter id="filter1_d_31_7448" x="2.6001" y="21.352" width="28.271" height="20.012" filterUnits="userSpaceOnUse" color-interpolation-filters="sRGB">
<feFlood flood-opacity="0" result="BackgroundImageFix"/>
<feColorMatrix in="SourceAlpha" type="matrix" values="0 0 0 0 0 0 0 0 0 0 0 0 0 0 0 0 0 0 127 0" result="hardAlpha"/>
<feOffset dy="2"/>
<feGaussianBlur stdDeviation="2"/>
<feComposite in2="hardAlpha" operator="out"/>
<feColorMatrix type="matrix" values="0 0 0 0 0 0 0 0 0 0 0 0 0 0 0 0 0 0 0.25 0"/>
<feBlend mode="normal" in2="BackgroundImageFix" result="effect1_dropShadow_31_7448"/>
<feBlend mode="normal" in="SourceGraphic" in2="effect1_dropShadow_31_7448" result="shape"/>
</filter>
<filter id="filter2_d_31_7448" x="2.6001" y="9.25604" width="36.8003" height="25.244" filterUnits="userSpaceOnUse" color-interpolation-filters="sRGB">
<feFlood flood-opacity="0" result="BackgroundImageFix"/>
<feColorMatrix in="SourceAlpha" type="matrix" values="0 0 0 0 0 0 0 0 0 0 0 0 0 0 0 0 0 0 127 0" result="hardAlpha"/>
<feOffset dy="2"/>
<feGaussianBlur stdDeviation="2"/>
<feComposite in2="hardAlpha" operator="out"/>
<feColorMatrix type="matrix" values="0 0 0 0 0 0 0 0 0 0 0 0 0 0 0 0 0 0 0.25 0"/>
<feBlend mode="normal" in2="BackgroundImageFix" result="effect1_dropShadow_31_7448"/>
<feBlend mode="normal" in="SourceGraphic" in2="effect1_dropShadow_31_7448" result="shape"/>
</filter>
<filter id="filter3_d_31_7448" x="9.104" y="4.56403" width="28.0493" height="20.72" filterUnits="userSpaceOnUse" color-interpolation-filters="sRGB">
<feFlood flood-opacity="0" result="BackgroundImageFix"/>
<feColorMatrix in="SourceAlpha" type="matrix" values="0 0 0 0 0 0 0 0 0 0 0 0 0 0 0 0 0 0 127 0" result="hardAlpha"/>
<feOffset dy="2"/>
<feGaussianBlur stdDeviation="2"/>
<feComposite in2="hardAlpha" operator="out"/>
<feColorMatrix type="matrix" values="0 0 0 0 0 0 0 0 0 0 0 0 0 0 0 0 0 0 0.25 0"/>
<feBlend mode="normal" in2="BackgroundImageFix" result="effect1_dropShadow_31_7448"/>
<feBlend mode="normal" in="SourceGraphic" in2="effect1_dropShadow_31_7448" result="shape"/>
</filter>
<filter id="filter4_d_31_7448" x="8" y="10" width="26" height="26" filterUnits="userSpaceOnUse" color-interpolation-filters="sRGB">
<feFlood flood-opacity="0" result="BackgroundImageFix"/>
<feColorMatrix in="SourceAlpha" type="matrix" values="0 0 0 0 0 0 0 0 0 0 0 0 0 0 0 0 0 0 127 0" result="hardAlpha"/>
<feOffset dy="2"/>
<feGaussianBlur stdDeviation="2"/>
<feComposite in2="hardAlpha" operator="out"/>
<feColorMatrix type="matrix" values="0 0 0 0 0 0 0 0 0 0 0 0 0 0 0 0 0 0 0.25 0"/>
<feBlend mode="normal" in2="BackgroundImageFix" result="effect1_dropShadow_31_7448"/>
<feBlend mode="normal" in="SourceGraphic" in2="effect1_dropShadow_31_7448" result="shape"/>
</filter>
<linearGradient id="paint0_linear_31_7448" x1="21" y1="0" x2="21" y2="42" gradientUnits="userSpaceOnUse">
<stop stop-color="#3BEA62"/>
<stop offset="0.510417" stop-color="#087DF7"/>
<stop offset="1" stop-color="#6B57FF"/>
</linearGradient>
<linearGradient id="paint1_linear_31_7448" x1="6.00443" y1="-7.16435" x2="48.844" y2="18.7498" gradientUnits="userSpaceOnUse">
<stop offset="0.1" stop-color="#FF45ED"/>
<stop offset="0.11" stop-color="#F846EE"/>
<stop offset="0.28" stop-color="#AC4FF7"/>
<stop offset="0.41" stop-color="#7D55FD"/>
<stop offset="0.47" stop-color="#6B57FF"/>
<stop offset="0.48" stop-color="#655DFE"/>
<stop offset="0.57" stop-color="#4482FA"/>
<stop offset="0.66" stop-color="#299EF6"/>
<stop offset="0.76" stop-color="#16B3F4"/>
<stop offset="0.85" stop-color="#0BBFF2"/>
<stop offset="0.94" stop-color="#07C3F2"/>
</linearGradient>
<linearGradient id="paint2_linear_31_7448" x1="9.4981" y1="21.303" x2="23.3281" y2="35.4211" gradientUnits="userSpaceOnUse">
<stop offset="0.1" stop-color="#FF45ED"/>
<stop offset="0.11" stop-color="#F846EE"/>
<stop offset="0.28" stop-color="#AC4FF7"/>
<stop offset="0.41" stop-color="#7D55FD"/>
<stop offset="0.47" stop-color="#6B57FF"/>
<stop offset="0.48" stop-color="#655DFE"/>
<stop offset="0.57" stop-color="#4482FA"/>
<stop offset="0.66" stop-color="#299EF6"/>
<stop offset="0.76" stop-color="#16B3F4"/>
<stop offset="0.85" stop-color="#0BBFF2"/>
<stop offset="0.94" stop-color="#07C3F2"/>
</linearGradient>
<linearGradient id="paint3_linear_31_7448" x1="10.5361" y1="29.532" x2="20.6341" y2="21.1171" gradientUnits="userSpaceOnUse">
<stop offset="0.04" stop-color="#FF45ED"/>
<stop offset="0.05" stop-color="#FE45ED"/>
<stop offset="0.2" stop-color="#D14BF3"/>
<stop offset="0.36" stop-color="#AC4FF7"/>
<stop offset="0.51" stop-color="#9053FB"/>
<stop offset="0.67" stop-color="#7B55FD"/>
<stop offset="0.82" stop-color="#6F57FF"/>
<stop offset="0.97" stop-color="#6B57FF"/>
</linearGradient>
<linearGradient id="paint4_linear_31_7448" x1="22.998" y1="13.527" x2="29.787" y2="27.402" gradientUnits="userSpaceOnUse">
<stop offset="0.2" stop-color="#FF45ED"/>
<stop offset="0.29" stop-color="#F646EE"/>
<stop offset="0.43" stop-color="#DD49F1"/>
<stop offset="0.61" stop-color="#B64EF6"/>
<stop offset="0.82" stop-color="#7F55FD"/>
<stop offset="0.89" stop-color="#6B57FF"/>
</linearGradient>
<linearGradient id="paint5_linear_31_7448" x1="14.778" y1="14.094" x2="31.833" y2="9.96002" gradientUnits="userSpaceOnUse">
<stop offset="0.1" stop-color="#FF45ED"/>
<stop offset="0.17" stop-color="#F64AED"/>
<stop offset="0.29" stop-color="#DD56EE"/>
<stop offset="0.44" stop-color="#B56AEE"/>
<stop offset="0.62" stop-color="#7E87F0"/>
<stop offset="0.81" stop-color="#38AAF1"/>
<stop offset="0.94" stop-color="#07C3F2"/>
</linearGradient>
<clipPath id="clip0_31_7448">
<rect width="42" height="42" fill="white"/>
</clipPath>
</defs>
</svg>
