<svg width="42" height="42" viewBox="0 0 42 42" fill="none" xmlns="http://www.w3.org/2000/svg">
<g clip-path="url(#clip0_31_7507)">
<path d="M31.5 0H10.5C4.70101 0 0 4.70101 0 10.5V31.5C0 37.299 4.70101 42 10.5 42H31.5C37.299 42 42 37.299 42 31.5V10.5C42 4.70101 37.299 0 31.5 0Z" fill="url(#paint0_linear_31_7507)"/>
<g filter="url(#filter0_i_31_7507)">
<path d="M31.5 2.625H10.5C6.15076 2.625 2.625 6.15076 2.625 10.5V31.5C2.625 35.8492 6.15076 39.375 10.5 39.375H31.5C35.8492 39.375 39.375 35.8492 39.375 31.5V10.5C39.375 6.15076 35.8492 2.625 31.5 2.625Z" fill="black" fill-opacity="0.7"/>
<g filter="url(#filter1_d_31_7507)">
<path d="M9.84372 10.4999C8.66289 10.4999 7.875 11.289 7.875 12.4687V29.531C7.875 30.7105 8.66801 31.4997 9.84372 31.4997H32.156C32.8702 31.4997 34.1247 30.7123 34.1247 29.531V12.4687C34.1247 11.2873 33.3342 10.4999 32.156 10.4999H9.84372ZM15.0937 18.3748C16.181 18.3748 17.0624 19.2562 17.0624 20.3436C17.0624 21.4309 16.181 22.3123 15.0937 22.3123C14.0063 22.3123 13.1249 21.4309 13.1249 20.3436C13.1249 19.2562 14.0063 18.3748 15.0937 18.3748ZM26.906 18.3748C27.9933 18.3748 28.8747 19.2562 28.8747 20.3436C28.8747 21.4309 27.9933 22.3123 26.906 22.3123C25.8187 22.3123 24.9373 21.4309 24.9373 20.3436C24.9373 19.2562 25.8187 18.3748 26.906 18.3748Z" fill="#141414"/>
<path d="M9.84277 13.7964L9.84281 24.9526C9.84281 25.6085 10.4991 26.2651 11.1553 26.2651H30.8428C31.4993 26.2651 32.1553 25.6117 32.1553 24.9526V13.7964C32.1553 13.141 31.502 12.4839 30.8428 12.4839H11.1553C10.4982 12.4839 9.84277 13.1376 9.84277 13.7964ZM15.0929 18.3902C16.1802 18.3902 17.0616 19.2716 17.0616 20.3589C17.0616 21.4462 16.1802 22.3277 15.0929 22.3277C14.0055 22.3277 13.1241 21.4462 13.1241 20.3589C13.1241 19.2716 14.0055 18.3902 15.0929 18.3902ZM26.9054 18.3902C27.9927 18.3902 28.8741 19.2716 28.8741 20.3589C28.8741 21.4462 27.9927 22.3277 26.9054 22.3277C25.818 22.3277 24.9366 21.4462 24.9366 20.3589C24.9366 19.2716 25.818 18.3902 26.9054 18.3902Z" fill="#58BEB1"/>
<path d="M9.84375 31.5165L12.4687 26.9227H29.5312L32.1562 31.5165H9.84375Z" fill="#3F3F3F"/>
<path d="M15.0942 30.1999C15.8191 30.1999 16.4067 29.6123 16.4067 28.8874C16.4067 28.1626 15.8191 27.5749 15.0942 27.5749C14.3693 27.5749 13.7817 28.1626 13.7817 28.8874C13.7817 29.6123 14.3693 30.1999 15.0942 30.1999Z" fill="#141414"/>
<path d="M26.9058 30.1999C27.6307 30.1999 28.2183 29.6123 28.2183 28.8874C28.2183 28.1626 27.6307 27.5749 26.9058 27.5749C26.1809 27.5749 25.5933 28.1626 25.5933 28.8874C25.5933 29.6123 26.1809 30.1999 26.9058 30.1999Z" fill="#141414"/>
<path d="M15.0944 17.726C13.6497 17.726 12.4692 18.9082 12.4692 20.3491C12.4692 21.7936 13.6474 22.9741 15.0944 22.9741H26.9069C28.3474 22.9741 29.5318 21.7947 29.5318 20.3529V20.3479C29.5318 18.9061 28.3475 17.7227 26.9069 17.723L15.0944 17.726ZM15.0944 18.3803C16.1817 18.3803 17.0632 19.2618 17.0632 20.3491C17.0632 21.4364 16.1817 22.3178 15.0944 22.3178C14.0071 22.3178 13.1256 21.4364 13.1256 20.3491C13.1256 19.2618 14.0071 18.3803 15.0944 18.3803ZM26.9069 18.3803C27.9942 18.3803 28.8757 19.2618 28.8757 20.3491C28.8757 21.4364 27.9942 22.3178 26.9069 22.3178C25.8196 22.3178 24.9382 21.4364 24.9382 20.3491C24.9382 19.2618 25.8196 18.3803 26.9069 18.3803Z" fill="#141414"/>
<path d="M24.2812 19.0405H17.7188V21.6654H24.2812V19.0405Z" fill="#DBE2E3"/>
</g>
</g>
</g>
<defs>
<filter id="filter0_i_31_7507" x="2.625" y="2.625" width="36.75" height="40.75" filterUnits="userSpaceOnUse" color-interpolation-filters="sRGB">
<feFlood flood-opacity="0" result="BackgroundImageFix"/>
<feBlend mode="normal" in="SourceGraphic" in2="BackgroundImageFix" result="shape"/>
<feColorMatrix in="SourceAlpha" type="matrix" values="0 0 0 0 0 0 0 0 0 0 0 0 0 0 0 0 0 0 127 0" result="hardAlpha"/>
<feOffset dy="4"/>
<feGaussianBlur stdDeviation="2"/>
<feComposite in2="hardAlpha" operator="arithmetic" k2="-1" k3="1"/>
<feColorMatrix type="matrix" values="0 0 0 0 0 0 0 0 0 0 0 0 0 0 0 0 0 0 0.25 0"/>
<feBlend mode="normal" in2="shape" result="effect1_innerShadow_31_7507"/>
</filter>
<filter id="filter1_d_31_7507" x="3.875" y="8.49994" width="34.2495" height="29.0166" filterUnits="userSpaceOnUse" color-interpolation-filters="sRGB">
<feFlood flood-opacity="0" result="BackgroundImageFix"/>
<feColorMatrix in="SourceAlpha" type="matrix" values="0 0 0 0 0 0 0 0 0 0 0 0 0 0 0 0 0 0 127 0" result="hardAlpha"/>
<feOffset dy="2"/>
<feGaussianBlur stdDeviation="2"/>
<feComposite in2="hardAlpha" operator="out"/>
<feColorMatrix type="matrix" values="0 0 0 0 0 0 0 0 0 0 0 0 0 0 0 0 0 0 0.25 0"/>
<feBlend mode="normal" in2="BackgroundImageFix" result="effect1_dropShadow_31_7507"/>
<feBlend mode="normal" in="SourceGraphic" in2="effect1_dropShadow_31_7507" result="shape"/>
</filter>
<linearGradient id="paint0_linear_31_7507" x1="20.8723" y1="42.0322" x2="20.8723" y2="-0.0272027" gradientUnits="userSpaceOnUse">
<stop stop-color="#2CA0B9"/>
<stop offset="1" stop-color="#87DEAA"/>
</linearGradient>
<clipPath id="clip0_31_7507">
<rect width="42" height="42" fill="white"/>
</clipPath>
</defs>
</svg>
