<svg width="42" height="42" viewBox="0 0 42 42" fill="none" xmlns="http://www.w3.org/2000/svg">
<g clip-path="url(#clip0_31_7519)">
<path d="M31.5 0H10.5C4.70101 0 0 4.70101 0 10.5V31.5C0 37.299 4.70101 42 10.5 42H31.5C37.299 42 42 37.299 42 31.5V10.5C42 4.70101 37.299 0 31.5 0Z" fill="url(#paint0_linear_31_7519)"/>
<g filter="url(#filter0_i_31_7519)">
<path d="M31.5 2.625H10.5C6.15076 2.625 2.625 6.15076 2.625 10.5V31.5C2.625 35.8492 6.15076 39.375 10.5 39.375H31.5C35.8492 39.375 39.375 35.8492 39.375 31.5V10.5C39.375 6.15076 35.8492 2.625 31.5 2.625Z" fill="black" fill-opacity="0.7"/>
<g filter="url(#filter1_d_31_7519)">
<path d="M19.9506 7.875C19.9429 7.875 18.3582 9.43901 16.4299 11.3486L12.9224 14.8222L13.4824 15.3833L14.0424 15.9433L10.9592 18.9958L7.875 22.0505L9.87646 24.0717C11.0358 25.2423 12.1958 26.4122 13.3567 27.5814L14.8342 29.0677L15.3899 28.5252C15.6961 28.2267 15.9531 27.9806 15.963 27.9806C15.9717 27.9806 17.3476 29.363 19.0187 31.0517L22.0603 34.124L22.2649 33.9248C22.5164 33.6787 27.741 28.511 28.5176 27.7389L29.0863 27.1745L28.5373 26.6134C28.2354 26.305 27.9904 26.0447 27.9948 26.0338C27.9981 26.0239 29.3772 24.6557 31.0593 22.99C32.7415 21.3254 34.1217 19.9539 34.125 19.944C34.1306 19.9309 30.1691 15.9148 27.4458 13.1707L27.1789 12.906L26.6266 13.4584C26.3214 13.7624 26.0611 14.0063 26.0469 14.0019C26.0327 13.9965 24.6579 12.6162 22.9922 10.9341C21.9828 9.90997 20.9689 8.89025 19.9506 7.875ZM17.9622 15.9323C18.0618 15.9739 26.6583 20.9721 26.6648 20.9929C26.6681 21.0071 24.717 22.1478 22.3283 23.5303C20.8734 24.3747 19.4166 25.2158 17.9579 26.0535C17.9371 26.06 17.9294 24.6688 17.9294 20.9907C17.9294 16.944 17.9371 15.9225 17.9622 15.9323Z" fill="white"/>
</g>
</g>
</g>
<defs>
<filter id="filter0_i_31_7519" x="2.625" y="2.625" width="36.75" height="40.75" filterUnits="userSpaceOnUse" color-interpolation-filters="sRGB">
<feFlood flood-opacity="0" result="BackgroundImageFix"/>
<feBlend mode="normal" in="SourceGraphic" in2="BackgroundImageFix" result="shape"/>
<feColorMatrix in="SourceAlpha" type="matrix" values="0 0 0 0 0 0 0 0 0 0 0 0 0 0 0 0 0 0 127 0" result="hardAlpha"/>
<feOffset dy="4"/>
<feGaussianBlur stdDeviation="2"/>
<feComposite in2="hardAlpha" operator="arithmetic" k2="-1" k3="1"/>
<feColorMatrix type="matrix" values="0 0 0 0 0 0 0 0 0 0 0 0 0 0 0 0 0 0 0.25 0"/>
<feBlend mode="normal" in2="shape" result="effect1_innerShadow_31_7519"/>
</filter>
<filter id="filter1_d_31_7519" x="3.875" y="5.875" width="34.25" height="34.249" filterUnits="userSpaceOnUse" color-interpolation-filters="sRGB">
<feFlood flood-opacity="0" result="BackgroundImageFix"/>
<feColorMatrix in="SourceAlpha" type="matrix" values="0 0 0 0 0 0 0 0 0 0 0 0 0 0 0 0 0 0 127 0" result="hardAlpha"/>
<feOffset dy="2"/>
<feGaussianBlur stdDeviation="2"/>
<feComposite in2="hardAlpha" operator="out"/>
<feColorMatrix type="matrix" values="0 0 0 0 0 0 0 0 0 0 0 0 0 0 0 0 0 0 0.25 0"/>
<feBlend mode="normal" in2="BackgroundImageFix" result="effect1_dropShadow_31_7519"/>
<feBlend mode="normal" in="SourceGraphic" in2="effect1_dropShadow_31_7519" result="shape"/>
</filter>
<linearGradient id="paint0_linear_31_7519" x1="469.967" y1="572.45" x2="412.624" y2="573.412" gradientUnits="userSpaceOnUse">
<stop stop-color="#FCFCFC"/>
<stop offset="1" stop-color="#D0D6DC"/>
</linearGradient>
<clipPath id="clip0_31_7519">
<rect width="42" height="42" fill="white"/>
</clipPath>
</defs>
</svg>
