<svg width="42" height="42" viewBox="0 0 42 42" fill="none" xmlns="http://www.w3.org/2000/svg">
<g clip-path="url(#clip0_31_7539)">
<path d="M31.5 0H10.5C4.70101 0 0 4.70101 0 10.5V31.5C0 37.299 4.70101 42 10.5 42H31.5C37.299 42 42 37.299 42 31.5V10.5C42 4.70101 37.299 0 31.5 0Z" fill="url(#paint0_linear_31_7539)"/>
<g filter="url(#filter0_i_31_7539)">
<path d="M31.5 2.625H10.5C6.15076 2.625 2.625 6.15076 2.625 10.5V31.5C2.625 35.8492 6.15076 39.375 10.5 39.375H31.5C35.8492 39.375 39.375 35.8492 39.375 31.5V10.5C39.375 6.15076 35.8492 2.625 31.5 2.625Z" fill="black" fill-opacity="0.7"/>
<g filter="url(#filter1_d_31_7539)">
<path d="M32.6575 16.7595C32.1108 15.4534 31.0019 14.0432 30.1335 13.5974C30.7527 14.7881 31.1825 16.0668 31.4076 17.3881L31.4099 17.409C29.9874 13.8892 27.5761 12.4676 25.6056 9.37645C25.5059 9.22013 25.4062 9.06348 25.3092 8.89811C25.2537 8.80367 25.2092 8.71856 25.1706 8.64023C25.0889 8.48313 25.0259 8.31706 24.9829 8.14545C24.983 8.13755 24.9801 8.12987 24.9749 8.12393C24.9696 8.11799 24.9623 8.11418 24.9544 8.11323C24.9466 8.1111 24.9384 8.1111 24.9307 8.11323C24.929 8.11323 24.9265 8.11612 24.9245 8.11678C24.9226 8.11743 24.9184 8.12032 24.9154 8.1216L24.9203 8.11323C21.7601 9.95054 20.6871 13.3512 20.5898 15.0531C19.3273 15.139 18.1202 15.6008 17.126 16.3782C17.0223 16.291 16.9139 16.2094 16.8014 16.1339C16.5147 15.1375 16.5025 14.083 16.766 13.0804C15.6054 13.6386 14.5741 14.43 13.7375 15.4044H13.7317C13.233 14.7769 13.2681 12.7075 13.2967 12.2752C13.1492 12.3341 13.0084 12.4083 12.8766 12.4967C12.4364 12.8086 12.0249 13.1586 11.6469 13.5426C11.2162 13.9763 10.8228 14.445 10.4708 14.9438C9.66198 16.0822 9.08826 17.368 8.78274 18.7277L8.76584 18.8102C8.74215 18.9201 8.65677 19.4707 8.64217 19.5903C8.64217 19.5996 8.64023 19.6083 8.63925 19.6177C8.5291 20.1861 8.46088 20.7617 8.43506 21.3399V21.4044C8.4406 24.5305 9.62632 27.5411 11.758 29.8416C13.8898 32.1422 16.8127 33.5655 19.9498 33.831C23.0868 34.0961 26.2101 33.1842 28.703 31.2747C31.1958 29.3652 32.8772 26.5972 33.4153 23.5169C33.4363 23.3558 33.4533 23.1962 33.4724 23.0334C33.7313 20.9067 33.4507 18.7493 32.6562 16.7576L32.6575 16.7595ZM18.1564 26.5392C18.2151 26.5672 18.2703 26.5975 18.3307 26.6242L18.3394 26.6297C18.2784 26.6007 18.2174 26.5705 18.1564 26.5392ZM31.4102 17.4126V17.4006L31.4125 17.4139L31.4102 17.4126Z" fill="url(#paint1_linear_31_7539)"/>
</g>
<path d="M32.6573 16.7595C32.1106 15.4534 31.0017 14.0432 30.1333 13.5974C30.7526 14.7881 31.1824 16.0668 31.4075 17.3881V17.4L31.4098 17.4132C32.3797 20.1689 32.2394 23.1901 31.0183 25.8455C29.5763 28.9177 26.0872 32.0665 20.6237 31.9118C14.7219 31.7458 9.52143 27.3959 8.5508 21.7003C8.37388 20.8019 8.5508 20.3465 8.63976 19.6164C8.51842 20.1835 8.45069 20.7606 8.4375 21.3402V21.4047C8.44305 24.5309 9.62876 27.5414 11.7605 29.8419C13.8922 32.1425 16.8152 33.5659 19.9522 33.8313C23.0893 34.0964 26.2125 33.1846 28.7054 31.275C31.1983 29.3655 32.8797 26.5975 33.4175 23.5173C33.4388 23.3561 33.4558 23.1965 33.4749 23.0338C33.7338 20.907 33.4532 18.7496 32.6586 16.7579L32.6573 16.7595Z" fill="url(#paint2_radial_31_7539)"/>
<path d="M26.5412 18.2262C26.5685 18.2452 26.5938 18.2642 26.6195 18.2832C26.3034 17.7268 25.91 17.2173 25.4508 16.7699C21.539 12.8857 24.4259 8.3505 24.9126 8.11842L24.9174 8.11133C21.7572 9.94863 20.6843 13.3493 20.5869 15.0512C20.7337 15.0412 20.8791 15.0289 21.0291 15.0289C22.1503 15.0311 23.2509 15.328 24.2191 15.8895C25.1873 16.4509 25.9885 17.2569 26.5412 18.2255V18.2262Z" fill="#FF980E"/>
<path d="M21.0358 19.003C21.0151 19.3137 19.9094 20.3855 19.5228 20.3855C15.9453 20.3855 15.3643 22.5344 15.3643 22.5344C15.5227 24.344 16.7926 25.8352 18.3278 26.6217C18.3979 26.6578 18.469 26.6903 18.5401 26.7222C18.6632 26.7764 18.7864 26.8265 18.9095 26.8724C19.4364 27.0576 19.9882 27.1633 20.5466 27.1861C26.8184 27.4781 28.0325 19.7401 23.5069 17.4935C24.5745 17.3556 25.6555 17.6162 26.5406 18.2249C25.9878 17.2562 25.1866 16.4502 24.2184 15.8888C23.2502 15.3273 22.1496 15.0304 21.0284 15.0283C20.879 15.0283 20.7329 15.0405 20.5862 15.0505C19.3237 15.1364 18.1166 15.5982 17.1224 16.3756C17.3143 16.5368 17.5308 16.7521 17.9869 17.1985C18.8407 18.0337 21.0303 18.8989 21.0352 19.0004L21.0358 19.003Z" fill="#6B3DD7"/>
<path d="M16.5366 15.9634C16.6385 16.0278 16.7226 16.0839 16.7963 16.1345C16.5096 15.1382 16.4974 14.0837 16.7609 13.0811C15.6003 13.6393 14.569 14.4306 13.7324 15.4051C13.7938 15.4035 15.6188 15.3709 16.5366 15.9634Z" fill="#FF7139"/>
<path d="M32.6573 16.7595C32.1106 15.4534 31.0017 14.0432 30.1333 13.5974C30.7526 14.7881 31.1824 16.0668 31.4075 17.3881V17.4L31.4098 17.4132C32.3797 20.1689 32.2394 23.1901 31.0183 25.8455C29.5763 28.9176 26.0872 32.0665 20.6237 31.9118C14.7219 31.7458 9.52143 27.3959 8.5508 21.7003C8.37388 20.8019 8.5508 20.3465 8.63976 19.6164C8.51842 20.1835 8.45069 20.7606 8.4375 21.3402V21.4047C8.44305 24.5309 9.62876 27.5414 11.7605 29.8419C13.8922 32.1425 16.8152 33.5659 19.9522 33.8313C23.0893 34.0964 26.2125 33.1846 28.7054 31.275C31.1983 29.3655 32.8797 26.5975 33.4175 23.5173C33.4388 23.3561 33.4558 23.1965 33.4749 23.0338C33.7338 20.907 33.4532 18.7496 32.6586 16.7579L32.6573 16.7595Z" fill="#FF3647"/>
<path d="M32.6573 16.7595C32.1106 15.4534 31.0017 14.0432 30.1333 13.5974C30.7526 14.7881 31.1824 16.0668 31.4075 17.3881V17.4L31.4098 17.4132C32.3797 20.1689 32.2394 23.1901 31.0183 25.8455C29.5763 28.9176 26.0872 32.0665 20.6237 31.9118C14.7219 31.7458 9.52143 27.3959 8.5508 21.7003C8.37388 20.8019 8.5508 20.3465 8.63976 19.6164C8.51842 20.1835 8.45069 20.7606 8.4375 21.3402V21.4047C8.44305 24.5309 9.62876 27.5414 11.7605 29.8419C13.8922 32.1425 16.8152 33.5659 19.9522 33.8313C23.0893 34.0964 26.2125 33.1846 28.7054 31.275C31.1983 29.3655 32.8797 26.5975 33.4175 23.5173C33.4388 23.3561 33.4558 23.1965 33.4749 23.0338C33.7338 20.907 33.4532 18.7496 32.6586 16.7579L32.6573 16.7595Z" fill="black" fill-opacity="0.2"/>
<path d="M32.6573 16.7595C32.1106 15.4534 31.0017 14.0432 30.1333 13.5974C30.7526 14.7881 31.1824 16.0668 31.4075 17.3881V17.4L31.4098 17.4132C32.3797 20.1689 32.2394 23.1901 31.0183 25.8455C29.5763 28.9176 26.0872 32.0665 20.6237 31.9118C14.7219 31.7458 9.52143 27.3959 8.5508 21.7003C8.37388 20.8019 8.5508 20.3465 8.63976 19.6164C8.51842 20.1835 8.45069 20.7606 8.4375 21.3402V21.4047C8.44305 24.5309 9.62876 27.5414 11.7605 29.8419C13.8922 32.1425 16.8152 33.5659 19.9522 33.8313C23.0893 34.0964 26.2125 33.1846 28.7054 31.275C31.1983 29.3655 32.8797 26.5975 33.4175 23.5173C33.4388 23.3561 33.4558 23.1965 33.4749 23.0338C33.7338 20.907 33.4532 18.7496 32.6586 16.7579L32.6573 16.7595Z" fill="#FF5634"/>
<path d="M8.54867 21.7009C9.51963 27.3966 14.7198 31.7481 20.6215 31.9125C26.0851 32.0659 29.5748 28.9167 31.0161 25.8461C32.2373 23.1908 32.3776 20.1695 31.4076 17.4139V17.4019C31.4076 17.3926 31.4057 17.3871 31.4076 17.39L31.4099 17.411C31.8563 20.3046 30.374 23.1066 28.0565 25.0051L28.0494 25.0213C23.5338 28.6733 19.213 27.2241 18.3398 26.6329C18.2787 26.6039 18.2177 26.5737 18.1567 26.5424C15.5243 25.293 14.4364 22.9129 14.6702 20.8693C14.0453 20.8784 13.4311 20.7075 12.9022 20.3771C12.3732 20.0467 11.952 19.571 11.6898 19.0078C12.3808 18.5875 13.1688 18.3498 13.9786 18.3176C14.7883 18.2853 15.5929 18.4594 16.3157 18.8234C17.8055 19.4949 19.5007 19.5611 21.039 19.0078C21.0342 18.9063 18.8445 18.0408 17.9908 17.2059C17.5347 16.7595 17.3181 16.5445 17.1263 16.383C17.0226 16.2958 16.9143 16.2143 16.8017 16.1387C16.727 16.0881 16.6429 16.0333 16.542 15.9675C15.6242 15.3751 13.7992 15.4077 13.7388 15.4093H13.733C13.2343 14.7817 13.2694 12.7123 13.298 12.28C13.1505 12.3389 13.0096 12.4131 12.8779 12.5015C12.4377 12.8134 12.0262 13.1634 11.6482 13.5474C11.2159 13.9799 10.8209 14.4475 10.4672 14.9454C9.65839 16.0838 9.0847 17.3696 8.77915 18.7293C8.77298 18.7548 8.32598 20.6952 8.54638 21.7015L8.54867 21.7009Z" fill="#FF5634"/>
<path d="M25.4504 16.7692C25.9098 17.2171 26.3032 17.7272 26.6191 18.2842C26.6883 18.3361 26.7529 18.3877 26.8077 18.4376C29.6602 21.0485 28.1656 24.7392 28.0543 25.0003C30.3715 23.1047 31.8524 20.3007 31.4077 17.4061C29.9845 13.883 27.5706 12.4615 25.6033 9.37032C25.5037 9.214 25.404 9.05735 25.307 8.89198C25.2515 8.79755 25.207 8.71246 25.1683 8.63411C25.0866 8.477 25.0237 8.31094 24.9807 8.13933C24.9808 8.13142 24.9779 8.12377 24.9726 8.1178C24.9674 8.11186 24.9601 8.10806 24.9521 8.1071C24.9444 8.105 24.9362 8.105 24.9285 8.1071C24.9268 8.1071 24.9242 8.10999 24.9223 8.11065C24.9204 8.11131 24.9161 8.11419 24.9132 8.11547C24.4266 8.34467 21.5403 12.8828 25.4521 16.7637L25.4504 16.7692Z" fill="#FFF44F"/>
<path d="M26.8077 18.4389C26.7529 18.389 26.6883 18.3374 26.6191 18.2855C26.5935 18.2665 26.5682 18.2474 26.5409 18.2284C25.6559 17.6198 24.5748 17.3591 23.5073 17.4971C28.0326 19.7437 26.8185 27.4798 20.547 27.1897C19.9886 27.1669 19.4367 27.0611 18.9099 26.876C18.7867 26.8302 18.6636 26.7802 18.5405 26.7258C18.4694 26.6936 18.3982 26.6614 18.3281 26.6253L18.3369 26.6307C19.2114 27.2235 23.5309 28.6717 28.0465 25.0191L28.0537 25.0029C28.1663 24.7419 29.6609 21.0511 26.8071 18.4402L26.8077 18.4389Z" fill="#FF980E"/>
<path d="M15.3647 22.5326C15.3647 22.5326 15.9455 20.3836 19.5232 20.3836C19.9099 20.3836 21.0165 19.3118 21.0363 19.001C19.498 19.5543 17.8028 19.4881 16.313 18.8167C15.5902 18.4527 14.7856 18.2785 13.9758 18.3108C13.166 18.3431 12.3781 18.5807 11.687 19.001C11.9493 19.5643 12.3704 20.0399 12.8994 20.3703C13.4284 20.7007 14.0426 20.8717 14.6674 20.8625C14.4343 22.9052 15.5218 25.285 18.1539 26.5356C18.2127 26.5637 18.2679 26.594 18.3283 26.6207C16.7918 25.8326 15.5232 24.3421 15.3647 22.5335V22.5326Z" fill="#FF980E"/>
</g>
</g>
<defs>
<filter id="filter0_i_31_7539" x="2.625" y="2.625" width="36.75" height="40.75" filterUnits="userSpaceOnUse" color-interpolation-filters="sRGB">
<feFlood flood-opacity="0" result="BackgroundImageFix"/>
<feBlend mode="normal" in="SourceGraphic" in2="BackgroundImageFix" result="shape"/>
<feColorMatrix in="SourceAlpha" type="matrix" values="0 0 0 0 0 0 0 0 0 0 0 0 0 0 0 0 0 0 127 0" result="hardAlpha"/>
<feOffset dy="4"/>
<feGaussianBlur stdDeviation="2"/>
<feComposite in2="hardAlpha" operator="arithmetic" k2="-1" k3="1"/>
<feColorMatrix type="matrix" values="0 0 0 0 0 0 0 0 0 0 0 0 0 0 0 0 0 0 0.25 0"/>
<feBlend mode="normal" in2="shape" result="effect1_innerShadow_31_7539"/>
</filter>
<filter id="filter1_d_31_7539" x="4.43506" y="6.11163" width="33.1309" height="33.7644" filterUnits="userSpaceOnUse" color-interpolation-filters="sRGB">
<feFlood flood-opacity="0" result="BackgroundImageFix"/>
<feColorMatrix in="SourceAlpha" type="matrix" values="0 0 0 0 0 0 0 0 0 0 0 0 0 0 0 0 0 0 127 0" result="hardAlpha"/>
<feOffset dy="2"/>
<feGaussianBlur stdDeviation="2"/>
<feComposite in2="hardAlpha" operator="out"/>
<feColorMatrix type="matrix" values="0 0 0 0 0 0 0 0 0 0 0 0 0 0 0 0 0 0 0.25 0"/>
<feBlend mode="normal" in2="BackgroundImageFix" result="effect1_dropShadow_31_7539"/>
<feBlend mode="normal" in="SourceGraphic" in2="effect1_dropShadow_31_7539" result="shape"/>
</filter>
<linearGradient id="paint0_linear_31_7539" x1="42" y1="0" x2="1.38415" y2="43.2984" gradientUnits="userSpaceOnUse">
<stop offset="0.169646" stop-color="#FF8B16"/>
<stop offset="0.35725" stop-color="#FF672A"/>
<stop offset="0.597842" stop-color="#FF3647"/>
<stop offset="0.825545" stop-color="#E31587"/>
</linearGradient>
<linearGradient id="paint1_linear_31_7539" x1="30.9921" y1="12.1037" x2="10.2474" y2="32.2612" gradientUnits="userSpaceOnUse">
<stop offset="0.048" stop-color="#FFF44F"/>
<stop offset="0.111" stop-color="#FFE847"/>
<stop offset="0.225" stop-color="#FFC830"/>
<stop offset="0.368" stop-color="#FF980E"/>
<stop offset="0.401" stop-color="#FF8B16"/>
<stop offset="0.462" stop-color="#FF672A"/>
<stop offset="0.534" stop-color="#FF3647"/>
<stop offset="0.705" stop-color="#E31587"/>
</linearGradient>
<radialGradient id="paint2_radial_31_7539" cx="0" cy="0" r="1" gradientUnits="userSpaceOnUse" gradientTransform="translate(30.1837 11.0123) scale(26.2299 26.0446)">
<stop offset="0.129" stop-color="#FFBD4F"/>
<stop offset="0.186" stop-color="#FFAC31"/>
<stop offset="0.247" stop-color="#FF9D17"/>
<stop offset="0.283" stop-color="#FF980E"/>
<stop offset="0.403" stop-color="#FF563B"/>
<stop offset="0.467" stop-color="#FF3750"/>
<stop offset="0.71" stop-color="#F5156C"/>
<stop offset="0.782" stop-color="#EB0878"/>
<stop offset="0.86" stop-color="#E50080"/>
</radialGradient>
<clipPath id="clip0_31_7539">
<rect width="42" height="42" fill="white"/>
</clipPath>
</defs>
</svg>
