<svg width="42" height="42" viewBox="0 0 42 42" fill="none" xmlns="http://www.w3.org/2000/svg">
<g clip-path="url(#clip0_31_7564)">
<path d="M31.5 0H10.5C4.70101 0 0 4.70101 0 10.5V31.5C0 37.299 4.70101 42 10.5 42H31.5C37.299 42 42 37.299 42 31.5V10.5C42 4.70101 37.299 0 31.5 0Z" fill="url(#paint0_linear_31_7564)"/>
<path d="M31.5 0H10.5C4.70101 0 0 4.70101 0 10.5V31.5C0 37.299 4.70101 42 10.5 42H31.5C37.299 42 42 37.299 42 31.5V10.5C42 4.70101 37.299 0 31.5 0Z" fill="url(#paint1_linear_31_7564)"/>
<g filter="url(#filter0_i_31_7564)">
<path d="M31.5 2.625H10.5C6.15076 2.625 2.625 6.15076 2.625 10.5V31.5C2.625 35.8492 6.15076 39.375 10.5 39.375H31.5C35.8492 39.375 39.375 35.8492 39.375 31.5V10.5C39.375 6.15076 35.8492 2.625 31.5 2.625Z" fill="black" fill-opacity="0.7"/>
<mask id="mask0_31_7564" style="mask-type:luminance" maskUnits="userSpaceOnUse" x="5" y="5" width="32" height="32">
<path d="M36.75 5.25H5.25V36.75H36.75V5.25Z" fill="white"/>
</mask>
<g mask="url(#mask0_31_7564)">
<path fill-rule="evenodd" clip-rule="evenodd" d="M32.4023 26.209C32.4023 26.893 32.0926 27.5704 31.4907 28.2024C30.8888 28.8343 30.0066 29.4086 28.8945 29.8923C27.7824 30.376 26.4621 30.7597 25.009 31.0215C23.556 31.2832 21.9986 31.418 20.4258 31.418C18.853 31.418 17.2956 31.2832 15.8426 31.0215C14.3895 30.7597 13.0692 30.376 11.9571 29.8923C10.845 29.4086 9.96276 28.8343 9.36088 28.2024C8.759 27.5704 8.44922 26.893 8.44922 26.209C8.44922 25.5249 8.759 24.8476 9.36088 24.2156C9.96276 23.5836 10.845 23.0094 11.9571 22.5257C13.0692 22.042 14.3895 21.6583 15.8426 21.3965C17.2956 21.1347 18.853 21 20.4258 21C21.9986 21 23.556 21.1347 25.009 21.3965C26.4621 21.6583 27.7824 22.042 28.8945 22.5257C30.0066 23.0094 30.8888 23.5836 31.4907 24.2156C32.0926 24.8476 32.4023 25.5249 32.4023 26.209Z" fill="url(#paint2_radial_31_7564)"/>
<path fill-rule="evenodd" clip-rule="evenodd" d="M12.0585 13.432C12.0585 13.432 13.9449 17.322 18.358 17.2123C27.6062 16.9803 29.2279 12.1559 29.46 11.4598C29.692 10.7638 30.047 10.8692 30.1291 11.5125C33.1452 38.8907 9.19669 27.1439 8.34619 22.4808C13.1026 21.0887 11.9425 18.4205 11.9425 18.4205L12.0585 13.432Z" fill="#857C63" stroke="#2E3436" stroke-width="2" stroke-miterlimit="10"/>
<path fill-rule="evenodd" clip-rule="evenodd" d="M15.5781 24.9808C20.0005 25.8653 22.2526 25.0452 23.5707 24.0274C23.2227 23.5779 22.6281 23.0848 22.6281 23.0848C22.6281 23.0848 24.1725 23.514 24.7163 24.216C25.2585 24.9159 24.9176 25.3471 24.7757 26.2427C24.4598 25.4561 23.8701 25.1611 23.7903 24.8486C22.6049 26.4872 19.6517 26.4191 15.5781 24.9808Z" fill="url(#paint3_linear_31_7564)"/>
<path fill-rule="evenodd" clip-rule="evenodd" d="M16.8731 19.2905C16.8731 19.641 16.8042 19.988 16.6702 20.3118C16.5361 20.6356 16.3396 20.9298 16.0918 21.1777C15.844 21.4255 15.5499 21.6221 15.2261 21.7562C14.9023 21.8904 14.5553 21.9594 14.2048 21.9594C13.8544 21.9594 13.5074 21.8904 13.1836 21.7562C12.8599 21.6221 12.5657 21.4255 12.3179 21.1777C12.0701 20.9298 11.8736 20.6356 11.7395 20.3118C11.6055 19.988 11.5365 19.641 11.5366 19.2905C11.5365 18.9401 11.6055 18.593 11.7395 18.2692C11.8736 17.9454 12.0701 17.6512 12.3179 17.4034C12.5657 17.1555 12.8599 16.9589 13.1836 16.8248C13.5074 16.6907 13.8544 16.6216 14.2048 16.6216C14.5553 16.6216 14.9023 16.6907 15.2261 16.8248C15.5499 16.9589 15.844 17.1555 16.0918 17.4034C16.3396 17.6512 16.5361 17.9454 16.6702 18.2692C16.8042 18.593 16.8731 18.9401 16.8731 19.2905Z" fill="#DBDBD7" stroke="#888A85" stroke-width="2" stroke-miterlimit="10"/>
<path fill-rule="evenodd" clip-rule="evenodd" d="M11.5576 20.2958C12.1786 21.1567 12.5314 22.1575 12.5383 23.078C12.5451 23.9986 12.2056 24.7635 11.5942 25.2046C10.9829 25.6456 10.1499 25.7266 9.2785 25.4297C8.40707 25.1329 7.56864 24.4825 6.9476 23.6216C6.32656 22.7608 5.97379 21.76 5.9669 20.8394C5.96004 19.9189 6.29962 19.1539 6.91095 18.7129C7.52228 18.2719 8.35529 18.1909 9.22669 18.4877C10.0981 18.7846 10.9365 19.435 11.5576 20.2958Z" fill="url(#paint4_radial_31_7564)" stroke="black" stroke-width="2" stroke-miterlimit="10"/>
<path fill-rule="evenodd" clip-rule="evenodd" d="M16.1133 19.6858C16.1134 19.8546 16.0802 20.0217 16.0156 20.1776C15.9511 20.3335 15.8565 20.4752 15.7372 20.5945C15.6179 20.7138 15.4762 20.8085 15.3203 20.8731C15.1645 20.9377 14.9974 20.9709 14.8287 20.9709C14.6599 20.9709 14.4928 20.9377 14.3369 20.8731C14.181 20.8085 14.0394 20.7138 13.9201 20.5945C13.8008 20.4752 13.7062 20.3335 13.6416 20.1776C13.5771 20.0217 13.5439 19.8546 13.5439 19.6858C13.5439 19.5171 13.5771 19.35 13.6416 19.1941C13.7062 19.0382 13.8008 18.8965 13.9201 18.7772C14.0394 18.6578 14.181 18.5632 14.3369 18.4986C14.4928 18.434 14.6599 18.4008 14.8287 18.4008C14.9974 18.4008 15.1645 18.434 15.3203 18.4986C15.4762 18.5632 15.6179 18.6578 15.7372 18.7772C15.8565 18.8965 15.9511 19.0382 16.0156 19.1941C16.0802 19.35 16.1134 19.5171 16.1133 19.6858Z" fill="#2E3436" stroke="black" stroke-width="2" stroke-miterlimit="10"/>
<path opacity="0.280899" fill-rule="evenodd" clip-rule="evenodd" d="M7.14356 19.2992C6.72429 19.6132 6.50329 20.1446 6.52321 20.8656C6.54313 21.5866 6.82768 22.4694 7.41171 23.2492C7.99574 24.0289 8.76289 24.5503 9.4492 24.7722C10.1355 24.9941 10.7076 24.9314 11.1268 24.6174C11.5461 24.3034 11.7679 23.7467 11.7513 23.0223C11.7347 22.298 11.4579 21.4332 10.8751 20.6551C10.2923 19.8771 9.54039 19.3682 8.84991 19.1485C8.15947 18.9289 7.56284 18.9852 7.14356 19.2992Z" stroke="url(#paint5_linear_31_7564)" stroke-width="2" stroke-miterlimit="10"/>
<path fill-rule="evenodd" clip-rule="evenodd" d="M9.07847 20.5086C9.07854 20.6914 9.04855 20.8725 8.99027 21.0414C8.93196 21.2104 8.84652 21.3639 8.7388 21.4932C8.63107 21.6225 8.50317 21.7251 8.3624 21.795C8.22164 21.865 8.07077 21.901 7.91839 21.901C7.76604 21.901 7.61513 21.865 7.47437 21.795C7.3336 21.7251 7.2057 21.6225 7.09798 21.4932C6.99025 21.3639 6.90481 21.2104 6.84653 21.0414C6.78823 20.8725 6.75827 20.6914 6.7583 20.5086C6.75827 20.3257 6.78823 20.1447 6.84653 19.9757C6.90481 19.8068 6.99025 19.6533 7.09798 19.524C7.2057 19.3947 7.3336 19.2921 7.47437 19.2221C7.61513 19.1522 7.76604 19.1161 7.91839 19.1161C8.07077 19.1161 8.22164 19.1522 8.3624 19.2221C8.50317 19.2921 8.63107 19.3947 8.7388 19.524C8.84652 19.6533 8.93196 19.8068 8.99027 19.9757C9.04855 20.1447 9.07854 20.3257 9.07847 20.5086Z" fill="white"/>
<path fill-rule="evenodd" clip-rule="evenodd" d="M15.2237 19.0929C15.2237 19.3288 15.1299 19.555 14.9631 19.7218C14.7963 19.8886 14.5701 19.9823 14.3342 19.9823C14.0984 19.9823 13.8721 19.8886 13.7053 19.7218C13.5385 19.555 13.4448 19.3288 13.4448 19.0929C13.4448 18.857 13.5385 18.6308 13.7053 18.464C13.8721 18.2972 14.0984 18.2035 14.3342 18.2035C14.5701 18.2035 14.7963 18.2972 14.9631 18.464C15.1299 18.6308 15.2237 18.857 15.2237 19.0929Z" fill="white"/>
<path fill-rule="evenodd" clip-rule="evenodd" d="M22.8475 19.5805C22.8476 19.9919 22.7667 20.3993 22.6093 20.7794C22.452 21.1596 22.2213 21.505 21.9304 21.7959C21.6395 22.0868 21.2942 22.3176 20.9141 22.4751C20.534 22.6325 20.1267 22.7136 19.7153 22.7136C19.3039 22.7136 18.8965 22.6325 18.5164 22.4751C18.1364 22.3176 17.791 22.0868 17.5001 21.7959C17.2093 21.505 16.9786 21.1596 16.8212 20.7794C16.6639 20.3993 16.5829 19.9919 16.583 19.5805C16.5829 19.1691 16.6639 18.7617 16.8212 18.3816C16.9786 18.0015 17.2093 17.6561 17.5001 17.3652C17.791 17.0743 18.1364 16.8435 18.5164 16.686C18.8965 16.5286 19.3039 16.4475 19.7153 16.4475C20.1267 16.4475 20.534 16.5286 20.9141 16.686C21.2942 16.8435 21.6395 17.0743 21.9304 17.3652C22.2213 17.6561 22.452 18.0015 22.6093 18.3816C22.7667 18.7617 22.8476 19.1691 22.8475 19.5805Z" fill="#DBDBD7" stroke="#888A85" stroke-width="2" stroke-miterlimit="10"/>
<path fill-rule="evenodd" clip-rule="evenodd" d="M21.9557 20.0446C21.9558 20.2427 21.9168 20.4388 21.841 20.6218C21.7653 20.8049 21.6542 20.9712 21.5142 21.1113C21.3741 21.2513 21.2078 21.3625 21.0248 21.4383C20.8418 21.5141 20.6457 21.5532 20.4476 21.5532C20.2495 21.5532 20.0533 21.5141 19.8703 21.4383C19.6873 21.3625 19.5211 21.2513 19.381 21.1113C19.241 20.9712 19.1299 20.8049 19.0541 20.6218C18.9784 20.4388 18.9394 20.2427 18.9395 20.0446C18.9394 19.8465 18.9784 19.6503 19.0541 19.4673C19.1299 19.2843 19.241 19.118 19.381 18.9779C19.5211 18.8378 19.6873 18.7267 19.8703 18.6508C20.0533 18.575 20.2495 18.536 20.4476 18.536C20.6457 18.536 20.8418 18.575 21.0248 18.6508C21.2078 18.7267 21.3741 18.8378 21.5142 18.9779C21.6542 19.118 21.7653 19.2843 21.841 19.4673C21.9168 19.6503 21.9558 19.8465 21.9557 20.0446Z" fill="#2E3436" stroke="black" stroke-width="2" stroke-miterlimit="10"/>
<path fill-rule="evenodd" clip-rule="evenodd" d="M20.9114 19.3485C20.9114 19.6254 20.8014 19.891 20.6056 20.0868C20.4098 20.2826 20.1442 20.3926 19.8673 20.3926C19.5904 20.3926 19.3248 20.2826 19.1291 20.0868C18.9333 19.891 18.8232 19.6254 18.8232 19.3485C18.8232 19.0716 18.9333 18.806 19.1291 18.6103C19.3248 18.4144 19.5904 18.3044 19.8673 18.3044C20.1442 18.3044 20.4098 18.4144 20.6056 18.6103C20.8014 18.806 20.9114 19.0716 20.9114 19.3485Z" fill="white"/>
<path d="M29.2601 28.935L29.8681 27.7243C27.6064 26.0697 23.4372 24.8657 23.4372 24.8657C22.7146 24.5291 22.4865 25.1783 22.9869 25.6003C22.9869 25.6003 26.5524 28.1564 29.2601 28.935Z" fill="url(#paint6_linear_31_7564)" stroke="#673907" stroke-width="2" stroke-linecap="round"/>
<path d="M32.1598 30.0509L32.4852 29.3305L29.9602 27.7129L29.7589 27.6957L29.6719 27.4171C29.3051 27.6467 28.7721 28.5 28.9134 28.9797L29.1861 28.8766L29.3339 29.0194L32.1598 30.0509Z" fill="url(#paint7_linear_31_7564)" stroke="#888A85" stroke-width="2" stroke-linecap="round"/>
<path d="M30.5234 28.6844L32.1999 29.4042" stroke="white" stroke-width="2" stroke-linecap="round" stroke-linejoin="round"/>
<path d="M35.8296 33.1104C35.0424 30.4384 34.7631 28.3168 32.706 28.5056C31.0482 28.6577 30.9321 31.0331 32.6452 31.6885C34.2956 32.3199 35.8296 33.1104 35.8296 33.1104Z" fill="url(#paint8_radial_31_7564)"/>
<path opacity="0.527778" d="M32.8292 28.7221C32.9162 28.6964 33.0074 28.6882 33.0973 28.6978C33.1876 28.7074 33.2748 28.7346 33.3546 28.778C33.4343 28.8213 33.5045 28.88 33.5613 28.9505C33.6184 29.021 33.6607 29.102 33.6863 29.189C33.7119 29.276 33.7204 29.3671 33.7106 29.4572C33.7011 29.5473 33.6738 29.6347 33.6305 29.7143C33.5869 29.7939 33.5285 29.8641 33.4579 29.9211C33.3874 29.978 33.3063 30.0205 33.2194 30.0461C33.1324 30.0717 33.0412 30.08 32.951 30.0703C32.8611 30.0608 32.7736 30.0335 32.694 29.9901C32.6144 29.9468 32.5441 29.8882 32.4872 29.8177C32.4302 29.7471 32.3877 29.6661 32.3621 29.5791C32.3365 29.4922 32.3283 29.4011 32.3379 29.3109C32.3475 29.2208 32.3748 29.1334 32.4182 29.0538C32.4615 28.9743 32.5202 28.904 32.5907 28.8471C32.6612 28.7902 32.7423 28.7477 32.8292 28.7221Z" fill="white"/>
<path d="M29.82 27.74C29.8787 27.7227 29.9402 27.7172 30.001 27.7236C30.0618 27.7301 30.1208 27.7485 30.1745 27.7777C30.2282 27.807 30.2756 27.8465 30.314 27.8941C30.3525 27.9417 30.3811 27.9964 30.3984 28.0551C30.4157 28.1137 30.4212 28.1752 30.4147 28.2361C30.4083 28.2969 30.3899 28.3558 30.3606 28.4095C30.3313 28.4632 30.2918 28.5106 30.2441 28.549C30.1966 28.5874 30.1419 28.6161 30.0832 28.6333C30.0245 28.6506 29.963 28.6562 29.9022 28.6498C29.8414 28.6433 29.7824 28.6249 29.7287 28.5956C29.675 28.5664 29.6276 28.5268 29.5892 28.4793C29.5508 28.4316 29.5221 28.377 29.5048 28.3183C29.4875 28.2596 29.482 28.1982 29.4885 28.1373C29.4949 28.0765 29.5133 28.0176 29.5426 27.9639C29.5719 27.9102 29.6115 27.8627 29.6591 27.8244C29.7066 27.7859 29.7613 27.7573 29.82 27.74Z" fill="white"/>
<path opacity="0.427778" d="M34.8412 31.5116C34.8412 31.5116 34.5846 30.5523 34.0189 30.0531C33.8184 29.8765 34.0708 29.6163 34.2598 29.8448C34.668 30.3384 34.8412 31.5116 34.8412 31.5116Z" fill="url(#paint9_linear_31_7564)"/>
<path fill-rule="evenodd" clip-rule="evenodd" d="M20.3462 26.0771C21.3289 26.171 22.2163 25.8984 22.5853 25.766C22.6497 25.4015 22.9374 24.7021 23.928 24.656L23.58 24.0469C23.58 24.0469 22.2894 24.9315 20.9117 25.1925L20.3462 26.0771Z" fill="url(#paint10_linear_31_7564)"/>
</g>
</g>
</g>
<defs>
<filter id="filter0_i_31_7564" x="2.625" y="2.625" width="36.75" height="40.75" filterUnits="userSpaceOnUse" color-interpolation-filters="sRGB">
<feFlood flood-opacity="0" result="BackgroundImageFix"/>
<feBlend mode="normal" in="SourceGraphic" in2="BackgroundImageFix" result="shape"/>
<feColorMatrix in="SourceAlpha" type="matrix" values="0 0 0 0 0 0 0 0 0 0 0 0 0 0 0 0 0 0 127 0" result="hardAlpha"/>
<feOffset dy="4"/>
<feGaussianBlur stdDeviation="2"/>
<feComposite in2="hardAlpha" operator="arithmetic" k2="-1" k3="1"/>
<feColorMatrix type="matrix" values="0 0 0 0 0 0 0 0 0 0 0 0 0 0 0 0 0 0 0.25 0"/>
<feBlend mode="normal" in2="shape" result="effect1_innerShadow_31_7564"/>
</filter>
<linearGradient id="paint0_linear_31_7564" x1="20.8723" y1="42.0322" x2="20.8723" y2="-0.0272027" gradientUnits="userSpaceOnUse">
<stop stop-color="#2CA0B9"/>
<stop offset="1" stop-color="#87DEAA"/>
</linearGradient>
<linearGradient id="paint1_linear_31_7564" x1="21" y1="0" x2="21" y2="42" gradientUnits="userSpaceOnUse">
<stop stop-color="#857C63"/>
<stop offset="1" stop-color="#3E382D"/>
</linearGradient>
<radialGradient id="paint2_radial_31_7564" cx="0" cy="0" r="1" gradientUnits="userSpaceOnUse" gradientTransform="translate(20.4258 26.209) scale(11.9766 5.20898)">
<stop/>
<stop offset="1" stop-opacity="0"/>
</radialGradient>
<linearGradient id="paint3_linear_31_7564" x1="23.9622" y1="23.9067" x2="16.6536" y2="25.3568" gradientUnits="userSpaceOnUse">
<stop/>
<stop offset="1" stop-opacity="0"/>
</linearGradient>
<radialGradient id="paint4_radial_31_7564" cx="0" cy="0" r="1" gradientUnits="userSpaceOnUse" gradientTransform="translate(8.18617 20.5642) rotate(-30) scale(2.91954 3.40758)">
<stop stop-color="#5B676B"/>
<stop offset="1" stop-color="#141718"/>
</radialGradient>
<linearGradient id="paint5_linear_31_7564" x1="7.72914" y1="19.8496" x2="10.7897" y2="24.2868" gradientUnits="userSpaceOnUse">
<stop stop-color="white"/>
<stop offset="1" stop-color="white" stop-opacity="0"/>
</linearGradient>
<linearGradient id="paint6_linear_31_7564" x1="27.7982" y1="26.2857" x2="26.435" y2="29.2631" gradientUnits="userSpaceOnUse">
<stop stop-color="#6E3D09"/>
<stop offset="0.242424" stop-color="#EA8113"/>
<stop offset="0.621212" stop-color="#5C3307"/>
<stop offset="1" stop-color="#E07C12"/>
</linearGradient>
<linearGradient id="paint7_linear_31_7564" x1="30.7198" y1="29.5193" x2="31.3193" y2="28.3099" gradientUnits="userSpaceOnUse">
<stop stop-color="#BDBDBD"/>
<stop offset="0.333333" stop-color="#E2E2E2"/>
<stop offset="0.666667" stop-color="#A3A3A3"/>
<stop offset="1" stop-color="#DDDDDD"/>
</linearGradient>
<radialGradient id="paint8_radial_31_7564" cx="0" cy="0" r="1" gradientUnits="userSpaceOnUse" gradientTransform="translate(32.2149 30.2221) rotate(-106.415) scale(3.17921 3.09824)">
<stop stop-color="#696969"/>
<stop offset="1"/>
</radialGradient>
<linearGradient id="paint9_linear_31_7564" x1="34.097" y1="29.5872" x2="34.8648" y2="31.0103" gradientUnits="userSpaceOnUse">
<stop stop-color="white"/>
<stop offset="1" stop-color="white" stop-opacity="0"/>
</linearGradient>
<linearGradient id="paint10_linear_31_7564" x1="22.4199" y1="25.294" x2="21.2163" y2="25.5841" gradientUnits="userSpaceOnUse">
<stop/>
<stop offset="1" stop-opacity="0"/>
</linearGradient>
<clipPath id="clip0_31_7564">
<rect width="42" height="42" fill="white"/>
</clipPath>
</defs>
</svg>
