<svg width="42" height="42" viewBox="0 0 42 42" fill="none" xmlns="http://www.w3.org/2000/svg">
<g clip-path="url(#clip0_31_7593)">
<path d="M31.5 0H10.5C4.70101 0 0 4.70101 0 10.5V31.5C0 37.299 4.70101 42 10.5 42H31.5C37.299 42 42 37.299 42 31.5V10.5C42 4.70101 37.299 0 31.5 0Z" fill="url(#paint0_linear_31_7593)"/>
<g filter="url(#filter0_i_31_7593)">
<path d="M31.5 2.625H10.5C6.15076 2.625 2.625 6.15076 2.625 10.5V31.5C2.625 35.8492 6.15076 39.375 10.5 39.375H31.5C35.8492 39.375 39.375 35.8492 39.375 31.5V10.5C39.375 6.15076 35.8492 2.625 31.5 2.625Z" fill="black" fill-opacity="0.7"/>
<path d="M21 8.90039C27.7956 8.90039 33.3047 14.4095 33.3047 21.2051C33.3047 28.0007 27.7956 33.5098 21 33.5098C14.2044 33.5098 8.69531 28.0007 8.69531 21.2051C8.69531 14.4095 14.2044 8.90039 21 8.90039Z" fill="url(#paint1_linear_31_7593)"/>
<path d="M21 8.90039C14.2044 8.90039 8.69531 14.4095 8.69531 21.2051C8.69531 28.0007 14.2044 33.5098 21 33.5098V8.90039Z" fill="url(#paint2_linear_31_7593)"/>
<path d="M33.3047 20.7949C33.3047 27.5905 27.7956 33.0996 21 33.0996C14.2044 33.0996 8.69531 27.5905 8.69531 20.7949C8.69531 13.9993 14.2044 8.49023 21 8.49023C27.7956 8.49023 33.3047 13.9993 33.3047 20.7949Z" fill="#40A1C8"/>
<path d="M13.6178 21C13.6435 23.8535 14.209 26.6124 15.2248 28.8442C14.4165 29.2576 13.7316 29.7551 13.2021 30.3126C10.4047 28.0215 8.75686 24.6153 8.69678 21H13.6178Z" fill="#49BBB0"/>
<path d="M20.9998 27.5625V33.0996C20.077 33.0996 19.1565 32.9956 18.2569 32.7896C17.0673 31.9573 16.0227 30.597 15.2256 28.8442C16.8462 28.0159 18.8898 27.5625 20.9998 27.5625Z" fill="#378BDE"/>
<path d="M28.3822 21C28.3565 23.8535 27.791 26.6124 26.7744 28.8442C27.5835 29.2576 28.2676 29.7551 28.7971 30.3126C31.5945 28.0215 33.2425 24.6153 33.3032 21H28.3822Z" fill="#266EC6"/>
<path d="M21 21V33.0996C21.9229 33.0996 22.8433 32.9956 23.7429 32.7896C26.5059 30.855 28.3347 26.207 28.382 21H21Z" fill="#378BDE"/>
<path d="M21 27.5625V33.0996C21.9229 33.0996 22.8433 32.9956 23.7429 32.7896C24.9325 31.9573 25.9772 30.597 26.7742 28.8442C25.1536 28.0159 23.1101 27.5625 21 27.5625Z" fill="#266EC6"/>
<path d="M26.775 28.8442C25.9771 30.597 24.9325 31.9565 23.7437 32.7896C25.5966 32.3658 27.3269 31.5175 28.7977 30.3126C28.2682 29.7551 27.5833 29.2576 26.775 28.8442Z" fill="#1E62B5"/>
<path d="M21 8.49023C14.2044 8.49023 8.69531 13.9993 8.69531 20.7949C8.69531 20.863 8.6961 20.9319 8.69692 21H21V8.49023Z" fill="#53D795"/>
<path d="M18.257 8.79944C16.4033 9.224 14.6729 10.0715 13.2021 11.2764C13.7316 11.8348 14.4166 12.3314 15.2257 12.7456C16.0236 10.992 17.0682 9.63255 18.257 8.79944Z" fill="#72E99A"/>
<path d="M21 8.49023C20.0771 8.49023 19.1575 8.59438 18.2571 8.79946C15.4549 10.7621 13.6172 15.5126 13.6172 20.7949C13.6172 20.863 13.6172 20.9319 13.618 21H21V8.49023Z" fill="#49BBB0"/>
<path d="M20.9998 8.49023C20.077 8.49023 19.1573 8.59438 18.2569 8.79946C17.0681 9.63257 16.0235 10.992 15.2256 12.7456C16.847 13.5739 18.8898 14.0273 20.9998 14.0273V8.49023Z" fill="#53D795"/>
<path d="M21 8.49023C27.7956 8.49023 33.3047 13.9993 33.3047 20.7949C33.3047 20.863 33.304 20.9319 33.303 21H21V8.49023Z" fill="#378BDE"/>
<path d="M23.7432 8.79944C25.5969 9.224 27.3272 10.0715 28.798 11.2764C28.2685 11.8348 27.5836 12.3314 26.7753 12.7448C25.9766 10.992 24.932 9.63255 23.7432 8.79944Z" fill="#40A1C8"/>
<path d="M21 8.49023C21.9229 8.49023 22.8433 8.59438 23.7429 8.79946C26.5451 10.7621 28.3828 15.5126 28.3828 20.7949C28.3828 20.863 28.3828 20.9319 28.382 21H21V8.49023Z" fill="#40A1C8"/>
<path d="M21 8.49023C21.9229 8.49023 22.8433 8.59438 23.7429 8.79946C24.9317 9.63257 25.9763 10.992 26.7742 12.7448C25.1528 13.5739 23.1101 14.0273 21 14.0273V8.49023Z" fill="#49BBB0"/>
</g>
</g>
<defs>
<filter id="filter0_i_31_7593" x="2.625" y="2.625" width="36.75" height="40.75" filterUnits="userSpaceOnUse" color-interpolation-filters="sRGB">
<feFlood flood-opacity="0" result="BackgroundImageFix"/>
<feBlend mode="normal" in="SourceGraphic" in2="BackgroundImageFix" result="shape"/>
<feColorMatrix in="SourceAlpha" type="matrix" values="0 0 0 0 0 0 0 0 0 0 0 0 0 0 0 0 0 0 127 0" result="hardAlpha"/>
<feOffset dy="4"/>
<feGaussianBlur stdDeviation="2"/>
<feComposite in2="hardAlpha" operator="arithmetic" k2="-1" k3="1"/>
<feColorMatrix type="matrix" values="0 0 0 0 0 0 0 0 0 0 0 0 0 0 0 0 0 0 0.25 0"/>
<feBlend mode="normal" in2="shape" result="effect1_innerShadow_31_7593"/>
</filter>
<linearGradient id="paint0_linear_31_7593" x1="21" y1="0" x2="21" y2="42" gradientUnits="userSpaceOnUse">
<stop stop-color="#72E99A"/>
<stop offset="0.3" stop-color="#49BBB0"/>
<stop offset="0.614" stop-color="#378BDE"/>
<stop offset="1" stop-color="#1E62B5"/>
</linearGradient>
<linearGradient id="paint1_linear_31_7593" x1="27.9727" y1="30.8437" x2="30.0234" y2="30.8437" gradientUnits="userSpaceOnUse">
<stop stop-color="#16529C"/>
<stop offset="1" stop-color="#236AC0"/>
</linearGradient>
<linearGradient id="paint2_linear_31_7593" x1="19.7695" y1="32.4844" x2="10.7461" y2="32.4844" gradientUnits="userSpaceOnUse">
<stop stop-color="#2166BB"/>
<stop offset="1" stop-color="#89EDA9"/>
</linearGradient>
<clipPath id="clip0_31_7593">
<rect width="42" height="42" fill="white"/>
</clipPath>
</defs>
</svg>
