<svg width="42" height="42" viewBox="0 0 42 42" fill="none" xmlns="http://www.w3.org/2000/svg">
<g clip-path="url(#clip0_31_7614)">
<path d="M31.5 0H10.5C4.70101 0 0 4.70101 0 10.5V31.5C0 37.299 4.70101 42 10.5 42H31.5C37.299 42 42 37.299 42 31.5V10.5C42 4.70101 37.299 0 31.5 0Z" fill="url(#paint0_linear_31_7614)"/>
<g filter="url(#filter0_i_31_7614)">
<path d="M31.5 2.625H10.5C6.15076 2.625 2.625 6.15076 2.625 10.5V31.5C2.625 35.8492 6.15076 39.375 10.5 39.375H31.5C35.8492 39.375 39.375 35.8492 39.375 31.5V10.5C39.375 6.15076 35.8492 2.625 31.5 2.625Z" fill="black" fill-opacity="0.7"/>
<mask id="mask0_31_7614" style="mask-type:luminance" maskUnits="userSpaceOnUse" x="5" y="5" width="32" height="32">
<path d="M36.75 5.25H5.25V36.75H36.75V5.25Z" fill="white"/>
</mask>
<g mask="url(#mask0_31_7614)">
<g filter="url(#filter1_d_31_7614)">
<path d="M31.9682 17.739L35.4004 25.35L29.5262 35.4001L25.9082 26.616L31.9682 17.739Z" fill="url(#paint1_linear_31_7614)"/>
</g>
<g filter="url(#filter2_d_31_7614)">
<path d="M25.9083 26.616L29.5263 35.4L20.4243 32.271L25.9083 26.616Z" fill="#B74AF7"/>
</g>
<g filter="url(#filter3_d_31_7614)">
<path d="M26.8891 14.7329L25.0231 6.59998H14.6761L6.6001 18.9539L8.93707 24.63L6.6001 29.8109L23.3251 15.582L26.8891 14.7329Z" fill="url(#paint2_linear_31_7614)"/>
</g>
<g filter="url(#filter4_d_31_7614)">
<path d="M35.4002 12.714L23.3251 15.582L6.6001 29.811L17.3881 35.4001L25.9081 26.616L35.4002 12.714Z" fill="url(#paint3_linear_31_7614)"/>
</g>
<g filter="url(#filter5_d_31_7614)">
<path d="M12 11.9999H30V30H12V11.9999Z" fill="black"/>
</g>
<path d="M13.689 26.6249H20.439V27.7499H13.689V26.6249Z" fill="white"/>
<path d="M13.1822 18.0929V18.0719C13.1804 17.5637 13.2804 17.0603 13.4762 16.5913C13.672 16.1222 13.9597 15.6972 14.3223 15.341C14.6848 14.9849 15.115 14.7048 15.5874 14.5175C16.0599 14.3301 16.565 14.2391 17.0732 14.2499C18.1418 14.1936 19.1899 14.5588 19.9922 15.267L18.9632 16.5089C18.4414 16.0101 17.7439 15.7373 17.0222 15.75C15.8221 15.75 14.8892 16.8 14.8892 18.06V18.081C14.8892 19.4399 15.8221 20.4359 17.1391 20.4359C17.6854 20.452 18.2228 20.2956 18.6752 19.9889V18.921H17.0312V17.5109H20.2502V20.7329C19.3703 21.4961 18.2439 21.9149 17.0792 21.9119C14.7721 21.9119 13.1822 20.2889 13.1822 18.0929Z" fill="white"/>
<path d="M20.9399 18.093V18.072C20.9417 17.5591 21.0463 17.0518 21.2474 16.58C21.4486 16.1082 21.7423 15.6816 22.1112 15.3253C22.4801 14.9689 22.9167 14.6902 23.3952 14.5055C23.8737 14.3208 24.3843 14.2339 24.8969 14.25C27.1859 14.25 28.8299 15.957 28.8299 18.066V18.087C28.8306 18.6011 28.7279 19.1101 28.528 19.5838C28.328 20.0575 28.035 20.4861 27.6661 20.8443C27.2973 21.2025 26.8603 21.4829 26.3809 21.6689C25.9016 21.8549 25.3898 21.9426 24.8759 21.927C22.5839 21.912 20.9399 20.205 20.9399 18.093ZM27.1229 18.093V18.072C27.1322 17.7709 27.0809 17.471 26.9722 17.19C26.8635 16.909 26.6995 16.6527 26.49 16.4362C26.2805 16.2197 26.0297 16.0475 25.7525 15.9296C25.4753 15.8117 25.1772 15.7506 24.8759 15.75C24.5769 15.749 24.2808 15.8084 24.0054 15.9246C23.7299 16.0408 23.4808 16.2115 23.2729 16.4264C23.065 16.6413 22.9027 16.896 22.7956 17.1751C22.6886 17.4543 22.639 17.7522 22.6499 18.051V18.072C22.6395 18.3742 22.6899 18.6755 22.7982 18.9579C22.9065 19.2403 23.0705 19.498 23.2804 19.7157C23.4903 19.9335 23.7418 20.1068 24.02 20.2253C24.2983 20.3439 24.5975 20.4053 24.9 20.406C25.1997 20.4067 25.4965 20.3466 25.7725 20.2294C26.0484 20.1123 26.2978 19.9405 26.5055 19.7243C26.7132 19.5082 26.875 19.2522 26.9811 18.9718C27.0873 18.6915 27.1355 18.3925 27.1229 18.093Z" fill="white"/>
</g>
</g>
</g>
<defs>
<filter id="filter0_i_31_7614" x="2.625" y="2.625" width="36.75" height="40.75" filterUnits="userSpaceOnUse" color-interpolation-filters="sRGB">
<feFlood flood-opacity="0" result="BackgroundImageFix"/>
<feBlend mode="normal" in="SourceGraphic" in2="BackgroundImageFix" result="shape"/>
<feColorMatrix in="SourceAlpha" type="matrix" values="0 0 0 0 0 0 0 0 0 0 0 0 0 0 0 0 0 0 127 0" result="hardAlpha"/>
<feOffset dy="4"/>
<feGaussianBlur stdDeviation="2"/>
<feComposite in2="hardAlpha" operator="arithmetic" k2="-1" k3="1"/>
<feColorMatrix type="matrix" values="0 0 0 0 0 0 0 0 0 0 0 0 0 0 0 0 0 0 0.25 0"/>
<feBlend mode="normal" in2="shape" result="effect1_innerShadow_31_7614"/>
</filter>
<filter id="filter1_d_31_7614" x="21.9082" y="15.739" width="17.4922" height="25.6611" filterUnits="userSpaceOnUse" color-interpolation-filters="sRGB">
<feFlood flood-opacity="0" result="BackgroundImageFix"/>
<feColorMatrix in="SourceAlpha" type="matrix" values="0 0 0 0 0 0 0 0 0 0 0 0 0 0 0 0 0 0 127 0" result="hardAlpha"/>
<feOffset dy="2"/>
<feGaussianBlur stdDeviation="2"/>
<feComposite in2="hardAlpha" operator="out"/>
<feColorMatrix type="matrix" values="0 0 0 0 0 0 0 0 0 0 0 0 0 0 0 0 0 0 0.25 0"/>
<feBlend mode="normal" in2="BackgroundImageFix" result="effect1_dropShadow_31_7614"/>
<feBlend mode="normal" in="SourceGraphic" in2="effect1_dropShadow_31_7614" result="shape"/>
</filter>
<filter id="filter2_d_31_7614" x="16.4243" y="24.616" width="17.1021" height="16.7841" filterUnits="userSpaceOnUse" color-interpolation-filters="sRGB">
<feFlood flood-opacity="0" result="BackgroundImageFix"/>
<feColorMatrix in="SourceAlpha" type="matrix" values="0 0 0 0 0 0 0 0 0 0 0 0 0 0 0 0 0 0 127 0" result="hardAlpha"/>
<feOffset dy="2"/>
<feGaussianBlur stdDeviation="2"/>
<feComposite in2="hardAlpha" operator="out"/>
<feColorMatrix type="matrix" values="0 0 0 0 0 0 0 0 0 0 0 0 0 0 0 0 0 0 0.25 0"/>
<feBlend mode="normal" in2="BackgroundImageFix" result="effect1_dropShadow_31_7614"/>
<feBlend mode="normal" in="SourceGraphic" in2="effect1_dropShadow_31_7614" result="shape"/>
</filter>
<filter id="filter3_d_31_7614" x="2.6001" y="4.59998" width="28.2891" height="31.211" filterUnits="userSpaceOnUse" color-interpolation-filters="sRGB">
<feFlood flood-opacity="0" result="BackgroundImageFix"/>
<feColorMatrix in="SourceAlpha" type="matrix" values="0 0 0 0 0 0 0 0 0 0 0 0 0 0 0 0 0 0 127 0" result="hardAlpha"/>
<feOffset dy="2"/>
<feGaussianBlur stdDeviation="2"/>
<feComposite in2="hardAlpha" operator="out"/>
<feColorMatrix type="matrix" values="0 0 0 0 0 0 0 0 0 0 0 0 0 0 0 0 0 0 0.25 0"/>
<feBlend mode="normal" in2="BackgroundImageFix" result="effect1_dropShadow_31_7614"/>
<feBlend mode="normal" in="SourceGraphic" in2="effect1_dropShadow_31_7614" result="shape"/>
</filter>
<filter id="filter4_d_31_7614" x="2.6001" y="10.714" width="36.8003" height="30.6861" filterUnits="userSpaceOnUse" color-interpolation-filters="sRGB">
<feFlood flood-opacity="0" result="BackgroundImageFix"/>
<feColorMatrix in="SourceAlpha" type="matrix" values="0 0 0 0 0 0 0 0 0 0 0 0 0 0 0 0 0 0 127 0" result="hardAlpha"/>
<feOffset dy="2"/>
<feGaussianBlur stdDeviation="2"/>
<feComposite in2="hardAlpha" operator="out"/>
<feColorMatrix type="matrix" values="0 0 0 0 0 0 0 0 0 0 0 0 0 0 0 0 0 0 0.25 0"/>
<feBlend mode="normal" in2="BackgroundImageFix" result="effect1_dropShadow_31_7614"/>
<feBlend mode="normal" in="SourceGraphic" in2="effect1_dropShadow_31_7614" result="shape"/>
</filter>
<filter id="filter5_d_31_7614" x="8" y="9.99994" width="26" height="26" filterUnits="userSpaceOnUse" color-interpolation-filters="sRGB">
<feFlood flood-opacity="0" result="BackgroundImageFix"/>
<feColorMatrix in="SourceAlpha" type="matrix" values="0 0 0 0 0 0 0 0 0 0 0 0 0 0 0 0 0 0 127 0" result="hardAlpha"/>
<feOffset dy="2"/>
<feGaussianBlur stdDeviation="2"/>
<feComposite in2="hardAlpha" operator="out"/>
<feColorMatrix type="matrix" values="0 0 0 0 0 0 0 0 0 0 0 0 0 0 0 0 0 0 0.25 0"/>
<feBlend mode="normal" in2="BackgroundImageFix" result="effect1_dropShadow_31_7614"/>
<feBlend mode="normal" in="SourceGraphic" in2="effect1_dropShadow_31_7614" result="shape"/>
</filter>
<linearGradient id="paint0_linear_31_7614" x1="21" y1="0" x2="21" y2="42" gradientUnits="userSpaceOnUse">
<stop stop-color="#3BEA62"/>
<stop offset="0.510417" stop-color="#087CFA"/>
<stop offset="1" stop-color="#B74AF7"/>
</linearGradient>
<linearGradient id="paint1_linear_31_7614" x1="34.9594" y1="23.004" x2="23.7122" y2="32.523" gradientUnits="userSpaceOnUse">
<stop stop-color="#087CFA"/>
<stop offset="0.02" stop-color="#0D7BFA"/>
<stop offset="0.37" stop-color="#5566F9"/>
<stop offset="0.66" stop-color="#8A57F8"/>
<stop offset="0.88" stop-color="#AB4EF7"/>
<stop offset="1" stop-color="#B74AF7"/>
</linearGradient>
<linearGradient id="paint2_linear_31_7614" x1="16.5121" y1="15.528" x2="23.3491" y2="7.74897" gradientUnits="userSpaceOnUse">
<stop stop-color="#087CFA"/>
<stop offset="0.02" stop-color="#0D7BFA"/>
<stop offset="0.37" stop-color="#5566F9"/>
<stop offset="0.66" stop-color="#8A57F8"/>
<stop offset="0.88" stop-color="#AB4EF7"/>
<stop offset="1" stop-color="#B74AF7"/>
</linearGradient>
<linearGradient id="paint3_linear_31_7614" x1="10.6021" y1="31.758" x2="31.3771" y2="18.408" gradientUnits="userSpaceOnUse">
<stop stop-color="#087CFA"/>
<stop offset="0.1" stop-color="#1598D3"/>
<stop offset="0.22" stop-color="#23B6AA"/>
<stop offset="0.35" stop-color="#2DCC8B"/>
<stop offset="0.46" stop-color="#35DD74"/>
<stop offset="0.57" stop-color="#39E767"/>
<stop offset="0.67" stop-color="#3BEA62"/>
</linearGradient>
<clipPath id="clip0_31_7614">
<rect width="42" height="42" fill="white"/>
</clipPath>
</defs>
</svg>
