<svg width="42" height="42" viewBox="0 0 42 42" fill="none" xmlns="http://www.w3.org/2000/svg">
<g clip-path="url(#clip0_31_7635)">
<path d="M31.5 0H10.5C4.70101 0 0 4.70101 0 10.5V31.5C0 37.299 4.70101 42 10.5 42H31.5C37.299 42 42 37.299 42 31.5V10.5C42 4.70101 37.299 0 31.5 0Z" fill="#FF0045"/>
<path d="M31.5 0H10.5C4.70101 0 0 4.70101 0 10.5V31.5C0 37.299 4.70101 42 10.5 42H31.5C37.299 42 42 37.299 42 31.5V10.5C42 4.70101 37.299 0 31.5 0Z" fill="url(#paint0_radial_31_7635)"/>
<path d="M31.5 0H10.5C4.70101 0 0 4.70101 0 10.5V31.5C0 37.299 4.70101 42 10.5 42H31.5C37.299 42 42 37.299 42 31.5V10.5C42 4.70101 37.299 0 31.5 0Z" fill="url(#paint1_radial_31_7635)"/>
<g filter="url(#filter0_i_31_7635)">
<path d="M31.5 2.625H10.5C6.15076 2.625 2.625 6.15076 2.625 10.5V31.5C2.625 35.8492 6.15076 39.375 10.5 39.375H31.5C35.8492 39.375 39.375 35.8492 39.375 31.5V10.5C39.375 6.15076 35.8492 2.625 31.5 2.625Z" fill="black" fill-opacity="0.7"/>
<mask id="mask0_31_7635" style="mask-type:luminance" maskUnits="userSpaceOnUse" x="7" y="7" width="28" height="28">
<path d="M34.125 7.875H7.875V34.125H34.125V7.875Z" fill="white"/>
</mask>
<g mask="url(#mask0_31_7635)">
<g filter="url(#filter1_d_31_7635)">
<path d="M21 10.2408C24.5044 10.2408 24.92 10.2539 26.3047 10.3173C29.8616 10.4792 31.523 12.1669 31.6848 15.6975C31.7483 17.0811 31.7603 17.4967 31.7603 21.0011C31.7603 24.5066 31.7472 24.9211 31.6848 26.3047C31.5219 29.832 29.8649 31.523 26.3047 31.6848C24.92 31.7483 24.5066 31.7614 21 31.7614C17.4956 31.7614 17.08 31.7483 15.6964 31.6848C12.1308 31.5219 10.4781 29.8266 10.3163 26.3036C10.2528 24.92 10.2397 24.5055 10.2397 21C10.2397 17.4956 10.2539 17.0811 10.3163 15.6964C10.4792 12.1669 12.1363 10.4781 15.6964 10.3163C17.0811 10.2539 17.4956 10.2408 21 10.2408ZM21 7.875C17.4355 7.875 16.9892 7.89032 15.5892 7.95375C10.8226 8.17251 8.17359 10.8172 7.95483 15.5881C7.89032 16.9892 7.875 17.4355 7.875 21C7.875 24.5645 7.89032 25.0119 7.95375 26.4119C8.17251 31.1784 10.8172 33.8274 15.5881 34.0463C16.9892 34.1096 17.4355 34.125 21 34.125C24.5645 34.125 25.0119 34.1096 26.4119 34.0463C31.1741 33.8274 33.8297 31.1828 34.0453 26.4119C34.1096 25.0119 34.125 24.5645 34.125 21C34.125 17.4355 34.1096 16.9892 34.0463 15.5892C33.832 10.827 31.1839 8.17359 26.413 7.95483C25.0119 7.89032 24.5645 7.875 21 7.875ZM21 14.2603C17.278 14.2603 14.2603 17.278 14.2603 21C14.2603 24.722 17.278 27.7408 21 27.7408C24.722 27.7408 27.7397 24.7231 27.7397 21C27.7397 17.278 24.722 14.2603 21 14.2603ZM21 25.375C18.5839 25.375 16.625 23.4172 16.625 21C16.625 18.5839 18.5839 16.625 21 16.625C23.4161 16.625 25.375 18.5839 25.375 21C25.375 23.4172 23.4161 25.375 21 25.375ZM28.0066 12.4195C27.1359 12.4195 26.4305 13.125 26.4305 13.9945C26.4305 14.8641 27.1359 15.5695 28.0066 15.5695C28.8761 15.5695 29.5805 14.8641 29.5805 13.9945C29.5805 13.125 28.8761 12.4195 28.0066 12.4195Z" fill="white"/>
<path d="M21 10.2408C24.5044 10.2408 24.92 10.2539 26.3047 10.3173C29.8616 10.4792 31.523 12.1669 31.6848 15.6975C31.7483 17.0811 31.7603 17.4967 31.7603 21.0011C31.7603 24.5066 31.7472 24.9211 31.6848 26.3047C31.5219 29.832 29.8649 31.523 26.3047 31.6848C24.92 31.7483 24.5066 31.7614 21 31.7614C17.4956 31.7614 17.08 31.7483 15.6964 31.6848C12.1308 31.5219 10.4781 29.8266 10.3163 26.3036C10.2528 24.92 10.2397 24.5055 10.2397 21C10.2397 17.4956 10.2539 17.0811 10.3163 15.6964C10.4792 12.1669 12.1363 10.4781 15.6964 10.3163C17.0811 10.2539 17.4956 10.2408 21 10.2408ZM21 7.875C17.4355 7.875 16.9892 7.89032 15.5892 7.95375C10.8226 8.17251 8.17359 10.8172 7.95483 15.5881C7.89032 16.9892 7.875 17.4355 7.875 21C7.875 24.5645 7.89032 25.0119 7.95375 26.4119C8.17251 31.1784 10.8172 33.8274 15.5881 34.0463C16.9892 34.1096 17.4355 34.125 21 34.125C24.5645 34.125 25.0119 34.1096 26.4119 34.0463C31.1741 33.8274 33.8297 31.1828 34.0453 26.4119C34.1096 25.0119 34.125 24.5645 34.125 21C34.125 17.4355 34.1096 16.9892 34.0463 15.5892C33.832 10.827 31.1839 8.17359 26.413 7.95483C25.0119 7.89032 24.5645 7.875 21 7.875ZM21 14.2603C17.278 14.2603 14.2603 17.278 14.2603 21C14.2603 24.722 17.278 27.7408 21 27.7408C24.722 27.7408 27.7397 24.7231 27.7397 21C27.7397 17.278 24.722 14.2603 21 14.2603ZM21 25.375C18.5839 25.375 16.625 23.4172 16.625 21C16.625 18.5839 18.5839 16.625 21 16.625C23.4161 16.625 25.375 18.5839 25.375 21C25.375 23.4172 23.4161 25.375 21 25.375ZM28.0066 12.4195C27.1359 12.4195 26.4305 13.125 26.4305 13.9945C26.4305 14.8641 27.1359 15.5695 28.0066 15.5695C28.8761 15.5695 29.5805 14.8641 29.5805 13.9945C29.5805 13.125 28.8761 12.4195 28.0066 12.4195Z" fill="#FF0045"/>
<path d="M21 10.2408C24.5044 10.2408 24.92 10.2539 26.3047 10.3173C29.8616 10.4792 31.523 12.1669 31.6848 15.6975C31.7483 17.0811 31.7603 17.4967 31.7603 21.0011C31.7603 24.5066 31.7472 24.9211 31.6848 26.3047C31.5219 29.832 29.8649 31.523 26.3047 31.6848C24.92 31.7483 24.5066 31.7614 21 31.7614C17.4956 31.7614 17.08 31.7483 15.6964 31.6848C12.1308 31.5219 10.4781 29.8266 10.3163 26.3036C10.2528 24.92 10.2397 24.5055 10.2397 21C10.2397 17.4956 10.2539 17.0811 10.3163 15.6964C10.4792 12.1669 12.1363 10.4781 15.6964 10.3163C17.0811 10.2539 17.4956 10.2408 21 10.2408ZM21 7.875C17.4355 7.875 16.9892 7.89032 15.5892 7.95375C10.8226 8.17251 8.17359 10.8172 7.95483 15.5881C7.89032 16.9892 7.875 17.4355 7.875 21C7.875 24.5645 7.89032 25.0119 7.95375 26.4119C8.17251 31.1784 10.8172 33.8274 15.5881 34.0463C16.9892 34.1096 17.4355 34.125 21 34.125C24.5645 34.125 25.0119 34.1096 26.4119 34.0463C31.1741 33.8274 33.8297 31.1828 34.0453 26.4119C34.1096 25.0119 34.125 24.5645 34.125 21C34.125 17.4355 34.1096 16.9892 34.0463 15.5892C33.832 10.827 31.1839 8.17359 26.413 7.95483C25.0119 7.89032 24.5645 7.875 21 7.875ZM21 14.2603C17.278 14.2603 14.2603 17.278 14.2603 21C14.2603 24.722 17.278 27.7408 21 27.7408C24.722 27.7408 27.7397 24.7231 27.7397 21C27.7397 17.278 24.722 14.2603 21 14.2603ZM21 25.375C18.5839 25.375 16.625 23.4172 16.625 21C16.625 18.5839 18.5839 16.625 21 16.625C23.4161 16.625 25.375 18.5839 25.375 21C25.375 23.4172 23.4161 25.375 21 25.375ZM28.0066 12.4195C27.1359 12.4195 26.4305 13.125 26.4305 13.9945C26.4305 14.8641 27.1359 15.5695 28.0066 15.5695C28.8761 15.5695 29.5805 14.8641 29.5805 13.9945C29.5805 13.125 28.8761 12.4195 28.0066 12.4195Z" fill="url(#paint2_radial_31_7635)"/>
<path d="M21 10.2408C24.5044 10.2408 24.92 10.2539 26.3047 10.3173C29.8616 10.4792 31.523 12.1669 31.6848 15.6975C31.7483 17.0811 31.7603 17.4967 31.7603 21.0011C31.7603 24.5066 31.7472 24.9211 31.6848 26.3047C31.5219 29.832 29.8649 31.523 26.3047 31.6848C24.92 31.7483 24.5066 31.7614 21 31.7614C17.4956 31.7614 17.08 31.7483 15.6964 31.6848C12.1308 31.5219 10.4781 29.8266 10.3163 26.3036C10.2528 24.92 10.2397 24.5055 10.2397 21C10.2397 17.4956 10.2539 17.0811 10.3163 15.6964C10.4792 12.1669 12.1363 10.4781 15.6964 10.3163C17.0811 10.2539 17.4956 10.2408 21 10.2408ZM21 7.875C17.4355 7.875 16.9892 7.89032 15.5892 7.95375C10.8226 8.17251 8.17359 10.8172 7.95483 15.5881C7.89032 16.9892 7.875 17.4355 7.875 21C7.875 24.5645 7.89032 25.0119 7.95375 26.4119C8.17251 31.1784 10.8172 33.8274 15.5881 34.0463C16.9892 34.1096 17.4355 34.125 21 34.125C24.5645 34.125 25.0119 34.1096 26.4119 34.0463C31.1741 33.8274 33.8297 31.1828 34.0453 26.4119C34.1096 25.0119 34.125 24.5645 34.125 21C34.125 17.4355 34.1096 16.9892 34.0463 15.5892C33.832 10.827 31.1839 8.17359 26.413 7.95483C25.0119 7.89032 24.5645 7.875 21 7.875ZM21 14.2603C17.278 14.2603 14.2603 17.278 14.2603 21C14.2603 24.722 17.278 27.7408 21 27.7408C24.722 27.7408 27.7397 24.7231 27.7397 21C27.7397 17.278 24.722 14.2603 21 14.2603ZM21 25.375C18.5839 25.375 16.625 23.4172 16.625 21C16.625 18.5839 18.5839 16.625 21 16.625C23.4161 16.625 25.375 18.5839 25.375 21C25.375 23.4172 23.4161 25.375 21 25.375ZM28.0066 12.4195C27.1359 12.4195 26.4305 13.125 26.4305 13.9945C26.4305 14.8641 27.1359 15.5695 28.0066 15.5695C28.8761 15.5695 29.5805 14.8641 29.5805 13.9945C29.5805 13.125 28.8761 12.4195 28.0066 12.4195Z" fill="url(#paint3_radial_31_7635)"/>
</g>
</g>
</g>
</g>
<defs>
<filter id="filter0_i_31_7635" x="2.625" y="2.625" width="36.75" height="40.75" filterUnits="userSpaceOnUse" color-interpolation-filters="sRGB">
<feFlood flood-opacity="0" result="BackgroundImageFix"/>
<feBlend mode="normal" in="SourceGraphic" in2="BackgroundImageFix" result="shape"/>
<feColorMatrix in="SourceAlpha" type="matrix" values="0 0 0 0 0 0 0 0 0 0 0 0 0 0 0 0 0 0 127 0" result="hardAlpha"/>
<feOffset dy="4"/>
<feGaussianBlur stdDeviation="2"/>
<feComposite in2="hardAlpha" operator="arithmetic" k2="-1" k3="1"/>
<feColorMatrix type="matrix" values="0 0 0 0 0 0 0 0 0 0 0 0 0 0 0 0 0 0 0.25 0"/>
<feBlend mode="normal" in2="shape" result="effect1_innerShadow_31_7635"/>
</filter>
<filter id="filter1_d_31_7635" x="3.875" y="5.875" width="34.25" height="34.25" filterUnits="userSpaceOnUse" color-interpolation-filters="sRGB">
<feFlood flood-opacity="0" result="BackgroundImageFix"/>
<feColorMatrix in="SourceAlpha" type="matrix" values="0 0 0 0 0 0 0 0 0 0 0 0 0 0 0 0 0 0 127 0" result="hardAlpha"/>
<feOffset dy="2"/>
<feGaussianBlur stdDeviation="2"/>
<feComposite in2="hardAlpha" operator="out"/>
<feColorMatrix type="matrix" values="0 0 0 0 0 0 0 0 0 0 0 0 0 0 0 0 0 0 0.25 0"/>
<feBlend mode="normal" in2="BackgroundImageFix" result="effect1_dropShadow_31_7635"/>
<feBlend mode="normal" in="SourceGraphic" in2="effect1_dropShadow_31_7635" result="shape"/>
</filter>
<radialGradient id="paint0_radial_31_7635" cx="0" cy="0" r="1" gradientUnits="userSpaceOnUse" gradientTransform="translate(42) rotate(135) scale(59.3969)">
<stop stop-color="#B000FF"/>
<stop offset="1" stop-color="#DFDFDF" stop-opacity="0"/>
</radialGradient>
<radialGradient id="paint1_radial_31_7635" cx="0" cy="0" r="1" gradientUnits="userSpaceOnUse" gradientTransform="translate(-1.25169e-06 42) rotate(-63.4349) scale(46.9573)">
<stop stop-color="#FFB000"/>
<stop offset="1" stop-color="#DFDFDF" stop-opacity="0"/>
</radialGradient>
<radialGradient id="paint2_radial_31_7635" cx="0" cy="0" r="1" gradientUnits="userSpaceOnUse" gradientTransform="translate(34.125 7.875) rotate(135) scale(37.1231)">
<stop stop-color="#B000FF"/>
<stop offset="1" stop-color="#DFDFDF" stop-opacity="0"/>
</radialGradient>
<radialGradient id="paint3_radial_31_7635" cx="0" cy="0" r="1" gradientUnits="userSpaceOnUse" gradientTransform="translate(7.875 34.125) rotate(-63.4349) scale(29.3484)">
<stop stop-color="#FFB000"/>
<stop offset="1" stop-color="#DFDFDF" stop-opacity="0"/>
</radialGradient>
<clipPath id="clip0_31_7635">
<rect width="42" height="42" fill="white"/>
</clipPath>
</defs>
</svg>
