<svg width="42" height="42" viewBox="0 0 42 42" fill="none" xmlns="http://www.w3.org/2000/svg">
<g clip-path="url(#clip0_31_7658)">
<path d="M31.5 0H10.5C4.70101 0 0 4.70101 0 10.5V31.5C0 37.299 4.70101 42 10.5 42H31.5C37.299 42 42 37.299 42 31.5V10.5C42 4.70101 37.299 0 31.5 0Z" fill="url(#paint0_linear_31_7658)"/>
<g filter="url(#filter0_i_31_7658)">
<path d="M31.5 2.625H10.5C6.15076 2.625 2.625 6.15076 2.625 10.5V31.5C2.625 35.8492 6.15076 39.375 10.5 39.375H31.5C35.8492 39.375 39.375 35.8492 39.375 31.5V10.5C39.375 6.15076 35.8492 2.625 31.5 2.625Z" fill="black" fill-opacity="0.7"/>
<mask id="mask0_31_7658" style="mask-type:luminance" maskUnits="userSpaceOnUse" x="5" y="5" width="32" height="32">
<path d="M36.75 5.25H5.25V36.75H36.75V5.25Z" fill="white"/>
</mask>
<g mask="url(#mask0_31_7658)">
<path d="M11.0309 26.913L6.79492 23.568L9.28792 18.951L13.0349 20.205L11.0309 26.913Z" fill="#FC801D"/>
<g filter="url(#filter1_d_31_7658)">
<path d="M35.271 14.277L34.7523 30.957L23.6582 35.4001L17.6162 31.5L35.271 14.277Z" fill="#087CFA"/>
</g>
<g filter="url(#filter2_d_31_7658)">
<path d="M35.2711 14.277L29.781 19.632L22.731 10.983L26.211 7.07098L35.2711 14.277Z" fill="#7557B2"/>
</g>
<g filter="url(#filter3_d_31_7658)">
<path fill-rule="evenodd" clip-rule="evenodd" d="M6.47119 18.0089L13.0352 20.205L29.7812 19.632L20.0672 7.71298L10.6412 6.59998L6.47119 18.0089Z" fill="url(#paint1_linear_31_7658)"/>
</g>
<g filter="url(#filter4_d_31_7658)">
<path d="M8.79346 34.689L17.6164 31.5L29.7814 19.632L13.0355 20.205L10.6415 28.218L8.79346 34.689Z" fill="#FF318C"/>
</g>
<g filter="url(#filter5_d_31_7658)">
<path d="M12 11.9999H30V30H12V11.9999Z" fill="black"/>
</g>
<path d="M14.2441 26.598H20.9941V27.723H14.2441V26.598Z" fill="white"/>
<path d="M17.6134 15.486V14.256H14.2563V15.486H15.1984V19.734H14.2563V20.964H17.6134V19.734H16.6744V15.486H17.6134Z" fill="white"/>
<path d="M20.8322 21.06C20.3747 21.0748 19.9211 20.9715 19.5152 20.76C19.1817 20.5805 18.8846 20.3404 18.6392 20.052L19.5661 19.017C19.7355 19.2081 19.9315 19.3738 20.1481 19.509C20.3417 19.629 20.5654 19.6914 20.7932 19.689C20.9149 19.6948 21.0366 19.6746 21.1499 19.6296C21.2632 19.5846 21.3656 19.5158 21.4501 19.428C21.6309 19.1837 21.7162 18.8818 21.6902 18.579V14.25H23.1902V18.645C23.1969 19.001 23.141 19.3553 23.0251 19.692C22.9265 19.9718 22.7652 20.2254 22.5536 20.4334C22.342 20.6414 22.0857 20.7982 21.8042 20.892C21.4845 21.0002 21.1486 21.053 20.8112 21.048" fill="white"/>
</g>
</g>
</g>
<defs>
<filter id="filter0_i_31_7658" x="2.625" y="2.625" width="36.75" height="40.75" filterUnits="userSpaceOnUse" color-interpolation-filters="sRGB">
<feFlood flood-opacity="0" result="BackgroundImageFix"/>
<feBlend mode="normal" in="SourceGraphic" in2="BackgroundImageFix" result="shape"/>
<feColorMatrix in="SourceAlpha" type="matrix" values="0 0 0 0 0 0 0 0 0 0 0 0 0 0 0 0 0 0 127 0" result="hardAlpha"/>
<feOffset dy="4"/>
<feGaussianBlur stdDeviation="2"/>
<feComposite in2="hardAlpha" operator="arithmetic" k2="-1" k3="1"/>
<feColorMatrix type="matrix" values="0 0 0 0 0 0 0 0 0 0 0 0 0 0 0 0 0 0 0.25 0"/>
<feBlend mode="normal" in2="shape" result="effect1_innerShadow_31_7658"/>
</filter>
<filter id="filter1_d_31_7658" x="13.6162" y="12.277" width="25.6548" height="29.1231" filterUnits="userSpaceOnUse" color-interpolation-filters="sRGB">
<feFlood flood-opacity="0" result="BackgroundImageFix"/>
<feColorMatrix in="SourceAlpha" type="matrix" values="0 0 0 0 0 0 0 0 0 0 0 0 0 0 0 0 0 0 127 0" result="hardAlpha"/>
<feOffset dy="2"/>
<feGaussianBlur stdDeviation="2"/>
<feComposite in2="hardAlpha" operator="out"/>
<feColorMatrix type="matrix" values="0 0 0 0 0 0 0 0 0 0 0 0 0 0 0 0 0 0 0.25 0"/>
<feBlend mode="normal" in2="BackgroundImageFix" result="effect1_dropShadow_31_7658"/>
<feBlend mode="normal" in="SourceGraphic" in2="effect1_dropShadow_31_7658" result="shape"/>
</filter>
<filter id="filter2_d_31_7658" x="18.731" y="5.07098" width="20.54" height="20.561" filterUnits="userSpaceOnUse" color-interpolation-filters="sRGB">
<feFlood flood-opacity="0" result="BackgroundImageFix"/>
<feColorMatrix in="SourceAlpha" type="matrix" values="0 0 0 0 0 0 0 0 0 0 0 0 0 0 0 0 0 0 127 0" result="hardAlpha"/>
<feOffset dy="2"/>
<feGaussianBlur stdDeviation="2"/>
<feComposite in2="hardAlpha" operator="out"/>
<feColorMatrix type="matrix" values="0 0 0 0 0 0 0 0 0 0 0 0 0 0 0 0 0 0 0.25 0"/>
<feBlend mode="normal" in2="BackgroundImageFix" result="effect1_dropShadow_31_7658"/>
<feBlend mode="normal" in="SourceGraphic" in2="effect1_dropShadow_31_7658" result="shape"/>
</filter>
<filter id="filter3_d_31_7658" x="2.47119" y="4.59998" width="31.3101" height="21.605" filterUnits="userSpaceOnUse" color-interpolation-filters="sRGB">
<feFlood flood-opacity="0" result="BackgroundImageFix"/>
<feColorMatrix in="SourceAlpha" type="matrix" values="0 0 0 0 0 0 0 0 0 0 0 0 0 0 0 0 0 0 127 0" result="hardAlpha"/>
<feOffset dy="2"/>
<feGaussianBlur stdDeviation="2"/>
<feComposite in2="hardAlpha" operator="out"/>
<feColorMatrix type="matrix" values="0 0 0 0 0 0 0 0 0 0 0 0 0 0 0 0 0 0 0.25 0"/>
<feBlend mode="normal" in2="BackgroundImageFix" result="effect1_dropShadow_31_7658"/>
<feBlend mode="normal" in="SourceGraphic" in2="effect1_dropShadow_31_7658" result="shape"/>
</filter>
<filter id="filter4_d_31_7658" x="4.79346" y="17.632" width="28.9878" height="23.0571" filterUnits="userSpaceOnUse" color-interpolation-filters="sRGB">
<feFlood flood-opacity="0" result="BackgroundImageFix"/>
<feColorMatrix in="SourceAlpha" type="matrix" values="0 0 0 0 0 0 0 0 0 0 0 0 0 0 0 0 0 0 127 0" result="hardAlpha"/>
<feOffset dy="2"/>
<feGaussianBlur stdDeviation="2"/>
<feComposite in2="hardAlpha" operator="out"/>
<feColorMatrix type="matrix" values="0 0 0 0 0 0 0 0 0 0 0 0 0 0 0 0 0 0 0.25 0"/>
<feBlend mode="normal" in2="BackgroundImageFix" result="effect1_dropShadow_31_7658"/>
<feBlend mode="normal" in="SourceGraphic" in2="effect1_dropShadow_31_7658" result="shape"/>
</filter>
<filter id="filter5_d_31_7658" x="8" y="9.99994" width="26" height="26" filterUnits="userSpaceOnUse" color-interpolation-filters="sRGB">
<feFlood flood-opacity="0" result="BackgroundImageFix"/>
<feColorMatrix in="SourceAlpha" type="matrix" values="0 0 0 0 0 0 0 0 0 0 0 0 0 0 0 0 0 0 127 0" result="hardAlpha"/>
<feOffset dy="2"/>
<feGaussianBlur stdDeviation="2"/>
<feComposite in2="hardAlpha" operator="out"/>
<feColorMatrix type="matrix" values="0 0 0 0 0 0 0 0 0 0 0 0 0 0 0 0 0 0 0.25 0"/>
<feBlend mode="normal" in2="BackgroundImageFix" result="effect1_dropShadow_31_7658"/>
<feBlend mode="normal" in="SourceGraphic" in2="effect1_dropShadow_31_7658" result="shape"/>
</filter>
<linearGradient id="paint0_linear_31_7658" x1="21" y1="0" x2="21" y2="42" gradientUnits="userSpaceOnUse">
<stop stop-color="#FC801D"/>
<stop offset="0.244792" stop-color="#FE285B"/>
<stop offset="0.510417" stop-color="#FF318C"/>
<stop offset="0.744792" stop-color="#7557B2"/>
<stop offset="1" stop-color="#087CFA"/>
</linearGradient>
<linearGradient id="paint1_linear_31_7658" x1="10.8662" y1="13.233" x2="28.8902" y2="43.047" gradientUnits="userSpaceOnUse">
<stop stop-color="#FE2857"/>
<stop offset="0.08" stop-color="#FE295F"/>
<stop offset="0.21" stop-color="#FF2D76"/>
<stop offset="0.3" stop-color="#FF318C"/>
<stop offset="0.429456" stop-color="#EA3896"/>
<stop offset="0.55" stop-color="#B248AE"/>
<stop offset="0.79" stop-color="#5A63D6"/>
<stop offset="1" stop-color="#087CFA"/>
</linearGradient>
<clipPath id="clip0_31_7658">
<rect width="42" height="42" fill="white"/>
</clipPath>
</defs>
</svg>
