<svg width="42" height="42" viewBox="0 0 42 42" fill="none" xmlns="http://www.w3.org/2000/svg">
<g clip-path="url(#clip0_31_7814)">
<path d="M31.5 0H10.5C4.70101 0 0 4.70101 0 10.5V31.5C0 37.299 4.70101 42 10.5 42H31.5C37.299 42 42 37.299 42 31.5V10.5C42 4.70101 37.299 0 31.5 0Z" fill="url(#paint0_linear_31_7814)"/>
<g filter="url(#filter0_i_31_7814)">
<path d="M31.5 2.625H10.5C6.15076 2.625 2.625 6.15076 2.625 10.5V31.5C2.625 35.8492 6.15076 39.375 10.5 39.375H31.5C35.8492 39.375 39.375 35.8492 39.375 31.5V10.5C39.375 6.15076 35.8492 2.625 31.5 2.625Z" fill="black" fill-opacity="0.7"/>
<g filter="url(#filter1_d_31_7814)">
<path fill-rule="evenodd" clip-rule="evenodd" d="M20.6719 7.875H12.1406C10.6909 7.875 9.51562 9.05025 9.51562 10.5V31.5C9.51562 32.9497 10.6909 34.125 12.1406 34.125H29.8594C31.3091 34.125 32.4844 32.9497 32.4844 31.5V19.6875L20.6719 7.875Z" fill="url(#paint1_linear_31_7814)"/>
</g>
<g filter="url(#filter2_d_31_7814)">
<path d="M32.4844 10.5C32.4844 9.05025 31.3091 7.875 29.8594 7.875H24.6094L32.4844 15.75V10.5Z" fill="#97989A"/>
</g>
<path d="M12.7969 22.9688H29.2031M12.7969 25.5938H29.2031M12.7969 28.2188H25.9219" stroke="white" stroke-width="4" stroke-linecap="round" stroke-linejoin="round"/>
<path d="M14.1094 19.0312H13.125C12.9438 19.0312 12.7969 18.8843 12.7969 18.7031V14.1094C12.7969 13.9282 12.9438 13.7812 13.125 13.7812H20.3438C20.525 13.7812 20.6719 13.9282 20.6719 14.1094V18.7031C20.6719 18.8843 20.525 19.0312 20.3438 19.0312H17.7188M14.1094 19.0312L14.9295 17.9378C15.0246 17.811 15.1968 17.7703 15.3387 17.8412L17.7188 19.0312M14.1094 19.0312H17.7188" stroke="white" stroke-opacity="0.7" stroke-width="4" stroke-linecap="round" stroke-linejoin="round"/>
<path d="M17.0625 17.0625C17.4249 17.0625 17.7188 16.7687 17.7188 16.4062C17.7188 16.0438 17.4249 15.75 17.0625 15.75C16.7001 15.75 16.4062 16.0438 16.4062 16.4062C16.4062 16.7687 16.7001 17.0625 17.0625 17.0625Z" fill="white" fill-opacity="0.7"/>
</g>
</g>
<defs>
<filter id="filter0_i_31_7814" x="2.625" y="2.625" width="36.75" height="40.75" filterUnits="userSpaceOnUse" color-interpolation-filters="sRGB">
<feFlood flood-opacity="0" result="BackgroundImageFix"/>
<feBlend mode="normal" in="SourceGraphic" in2="BackgroundImageFix" result="shape"/>
<feColorMatrix in="SourceAlpha" type="matrix" values="0 0 0 0 0 0 0 0 0 0 0 0 0 0 0 0 0 0 127 0" result="hardAlpha"/>
<feOffset dy="4"/>
<feGaussianBlur stdDeviation="2"/>
<feComposite in2="hardAlpha" operator="arithmetic" k2="-1" k3="1"/>
<feColorMatrix type="matrix" values="0 0 0 0 0 0 0 0 0 0 0 0 0 0 0 0 0 0 0.25 0"/>
<feBlend mode="normal" in2="shape" result="effect1_innerShadow_31_7814"/>
</filter>
<filter id="filter1_d_31_7814" x="5.51562" y="5.875" width="30.9688" height="34.25" filterUnits="userSpaceOnUse" color-interpolation-filters="sRGB">
<feFlood flood-opacity="0" result="BackgroundImageFix"/>
<feColorMatrix in="SourceAlpha" type="matrix" values="0 0 0 0 0 0 0 0 0 0 0 0 0 0 0 0 0 0 127 0" result="hardAlpha"/>
<feOffset dy="2"/>
<feGaussianBlur stdDeviation="2"/>
<feComposite in2="hardAlpha" operator="out"/>
<feColorMatrix type="matrix" values="0 0 0 0 0 0 0 0 0 0 0 0 0 0 0 0 0 0 0.25 0"/>
<feBlend mode="normal" in2="BackgroundImageFix" result="effect1_dropShadow_31_7814"/>
<feBlend mode="normal" in="SourceGraphic" in2="effect1_dropShadow_31_7814" result="shape"/>
</filter>
<filter id="filter2_d_31_7814" x="20.6094" y="5.875" width="15.875" height="15.875" filterUnits="userSpaceOnUse" color-interpolation-filters="sRGB">
<feFlood flood-opacity="0" result="BackgroundImageFix"/>
<feColorMatrix in="SourceAlpha" type="matrix" values="0 0 0 0 0 0 0 0 0 0 0 0 0 0 0 0 0 0 127 0" result="hardAlpha"/>
<feOffset dy="2"/>
<feGaussianBlur stdDeviation="2"/>
<feComposite in2="hardAlpha" operator="out"/>
<feColorMatrix type="matrix" values="0 0 0 0 0 0 0 0 0 0 0 0 0 0 0 0 0 0 0.25 0"/>
<feBlend mode="normal" in2="BackgroundImageFix" result="effect1_dropShadow_31_7814"/>
<feBlend mode="normal" in="SourceGraphic" in2="effect1_dropShadow_31_7814" result="shape"/>
</filter>
<linearGradient id="paint0_linear_31_7814" x1="42" y1="0" x2="0" y2="42" gradientUnits="userSpaceOnUse">
<stop stop-color="#1FCAF8"/>
<stop offset="1" stop-color="#0D44B1"/>
</linearGradient>
<linearGradient id="paint1_linear_31_7814" x1="32.4844" y1="7.875" x2="6.23438" y2="34.125" gradientUnits="userSpaceOnUse">
<stop stop-color="#1FCAF8"/>
<stop offset="1" stop-color="#0D44B1"/>
</linearGradient>
<clipPath id="clip0_31_7814">
<rect width="42" height="42" fill="white"/>
</clipPath>
</defs>
</svg>
