<svg width="42" height="42" viewBox="0 0 42 42" fill="none" xmlns="http://www.w3.org/2000/svg">
<g clip-path="url(#clip0_31_7788)">
<path d="M31.5 0H10.5C4.70101 0 0 4.70101 0 10.5V31.5C0 37.299 4.70101 42 10.5 42H31.5C37.299 42 42 37.299 42 31.5V10.5C42 4.70101 37.299 0 31.5 0Z" fill="url(#paint0_linear_31_7788)"/>
<g filter="url(#filter0_i_31_7788)">
<path d="M31.5 2.625H10.5C6.15076 2.625 2.625 6.15076 2.625 10.5V31.5C2.625 35.8492 6.15076 39.375 10.5 39.375H31.5C35.8492 39.375 39.375 35.8492 39.375 31.5V10.5C39.375 6.15076 35.8492 2.625 31.5 2.625Z" fill="black" fill-opacity="0.7"/>
<g filter="url(#filter1_d_31_7788)">
<path fill-rule="evenodd" clip-rule="evenodd" d="M22.3125 7.875H10.5C9.05025 7.875 7.875 9.05025 7.875 10.5V31.5C7.875 32.9497 9.05025 34.125 10.5 34.125H31.5C32.9497 34.125 34.125 32.9497 34.125 31.5V19.6875L22.3125 7.875Z" fill="url(#paint1_linear_31_7788)"/>
</g>
<g filter="url(#filter2_d_31_7788)">
<path d="M34.1248 10.5C34.1248 9.05025 32.9498 7.875 31.5 7.875H26.25L34.1248 15.75V10.5Z" fill="#97989A"/>
</g>
<path d="M14.4375 24.2812H15.75L17.0625 26.9062L19.6875 19.0312H27.5625" stroke="white" stroke-width="4" stroke-linecap="round" stroke-linejoin="round"/>
<path d="M26.25 26.25L22.3125 22.3125M26.25 22.3125L24.2812 24.2812L22.3125 26.25" stroke="white" stroke-width="4" stroke-linecap="round" stroke-linejoin="round"/>
</g>
</g>
<defs>
<filter id="filter0_i_31_7788" x="2.625" y="2.625" width="36.75" height="40.75" filterUnits="userSpaceOnUse" color-interpolation-filters="sRGB">
<feFlood flood-opacity="0" result="BackgroundImageFix"/>
<feBlend mode="normal" in="SourceGraphic" in2="BackgroundImageFix" result="shape"/>
<feColorMatrix in="SourceAlpha" type="matrix" values="0 0 0 0 0 0 0 0 0 0 0 0 0 0 0 0 0 0 127 0" result="hardAlpha"/>
<feOffset dy="4"/>
<feGaussianBlur stdDeviation="2"/>
<feComposite in2="hardAlpha" operator="arithmetic" k2="-1" k3="1"/>
<feColorMatrix type="matrix" values="0 0 0 0 0 0 0 0 0 0 0 0 0 0 0 0 0 0 0.25 0"/>
<feBlend mode="normal" in2="shape" result="effect1_innerShadow_31_7788"/>
</filter>
<filter id="filter1_d_31_7788" x="3.875" y="5.875" width="34.25" height="34.25" filterUnits="userSpaceOnUse" color-interpolation-filters="sRGB">
<feFlood flood-opacity="0" result="BackgroundImageFix"/>
<feColorMatrix in="SourceAlpha" type="matrix" values="0 0 0 0 0 0 0 0 0 0 0 0 0 0 0 0 0 0 127 0" result="hardAlpha"/>
<feOffset dy="2"/>
<feGaussianBlur stdDeviation="2"/>
<feComposite in2="hardAlpha" operator="out"/>
<feColorMatrix type="matrix" values="0 0 0 0 0 0 0 0 0 0 0 0 0 0 0 0 0 0 0.25 0"/>
<feBlend mode="normal" in2="BackgroundImageFix" result="effect1_dropShadow_31_7788"/>
<feBlend mode="normal" in="SourceGraphic" in2="effect1_dropShadow_31_7788" result="shape"/>
</filter>
<filter id="filter2_d_31_7788" x="22.25" y="5.875" width="15.875" height="15.875" filterUnits="userSpaceOnUse" color-interpolation-filters="sRGB">
<feFlood flood-opacity="0" result="BackgroundImageFix"/>
<feColorMatrix in="SourceAlpha" type="matrix" values="0 0 0 0 0 0 0 0 0 0 0 0 0 0 0 0 0 0 127 0" result="hardAlpha"/>
<feOffset dy="2"/>
<feGaussianBlur stdDeviation="2"/>
<feComposite in2="hardAlpha" operator="out"/>
<feColorMatrix type="matrix" values="0 0 0 0 0 0 0 0 0 0 0 0 0 0 0 0 0 0 0.25 0"/>
<feBlend mode="normal" in2="BackgroundImageFix" result="effect1_dropShadow_31_7788"/>
<feBlend mode="normal" in="SourceGraphic" in2="effect1_dropShadow_31_7788" result="shape"/>
</filter>
<linearGradient id="paint0_linear_31_7788" x1="42" y1="0" x2="0" y2="42" gradientUnits="userSpaceOnUse">
<stop stop-color="#FF5291"/>
<stop offset="1" stop-color="#C8031F"/>
</linearGradient>
<linearGradient id="paint1_linear_31_7788" x1="34.125" y1="7.875" x2="15.225" y2="33.075" gradientUnits="userSpaceOnUse">
<stop stop-color="#FF5291"/>
<stop offset="1" stop-color="#C8031F"/>
</linearGradient>
<clipPath id="clip0_31_7788">
<rect width="42" height="42" fill="white"/>
</clipPath>
</defs>
</svg>
