<svg width="42" height="42" viewBox="0 0 42 42" fill="none" xmlns="http://www.w3.org/2000/svg">
<g clip-path="url(#clip0_31_7751)">
<path d="M31.5 0H10.5C4.70101 0 0 4.70101 0 10.5V31.5C0 37.299 4.70101 42 10.5 42H31.5C37.299 42 42 37.299 42 31.5V10.5C42 4.70101 37.299 0 31.5 0Z" fill="url(#paint0_linear_31_7751)"/>
<g filter="url(#filter0_i_31_7751)">
<path d="M31.5 2.625H10.5C6.15076 2.625 2.625 6.15076 2.625 10.5V31.5C2.625 35.8492 6.15076 39.375 10.5 39.375H31.5C35.8492 39.375 39.375 35.8492 39.375 31.5V10.5C39.375 6.15076 35.8492 2.625 31.5 2.625Z" fill="black" fill-opacity="0.7"/>
<g filter="url(#filter1_d_31_7751)">
<path fill-rule="evenodd" clip-rule="evenodd" d="M22.3125 7.875H10.5C9.05025 7.875 7.875 9.05025 7.875 10.5V31.5C7.875 32.9497 9.05025 34.125 10.5 34.125H31.5C32.9497 34.125 34.125 32.9497 34.125 31.5V19.6875L22.3125 7.875Z" fill="url(#paint1_linear_31_7751)"/>
</g>
<g filter="url(#filter2_d_31_7751)">
<path d="M22.3125 17.0625C22.3125 18.5123 23.4878 19.6875 24.9375 19.6875H34.1249L22.3125 7.875V17.0625Z" fill="#FAFAFA"/>
</g>
<g filter="url(#filter3_d_31_7751)">
<path d="M34.1248 10.5C34.1248 9.05025 32.9498 7.875 31.5 7.875H26.25L34.1248 15.75V10.5Z" fill="#97989A"/>
</g>
<mask id="mask0_31_7751" style="mask-type:luminance" maskUnits="userSpaceOnUse" x="10" y="21" width="22" height="11">
<path d="M30.8438 21H11.1562C10.7938 21 10.5 21.2938 10.5 21.6562V30.8438C10.5 31.2062 10.7938 31.5 11.1562 31.5H30.8438C31.2062 31.5 31.5 31.2062 31.5 30.8438V21.6562C31.5 21.2938 31.2062 21 30.8438 21Z" fill="white"/>
</mask>
<g mask="url(#mask0_31_7751)">
<path d="M15.75 23.625H10.5V31.5H15.75V23.625Z" fill="#24AFEA"/>
<path d="M15.75 23.625H10.5V31.5H15.75V23.625Z" fill="url(#paint2_linear_31_7751)"/>
<path d="M21 21H15.75V31.5H21V21Z" fill="#F8883C"/>
<path d="M21 21H15.75V31.5H21V21Z" fill="url(#paint3_linear_31_7751)"/>
<path d="M26.25 26.25H21V31.5H26.25V26.25Z" fill="#F0CD49"/>
<path d="M26.25 26.25H21V31.5H26.25V26.25Z" fill="url(#paint4_linear_31_7751)"/>
<path d="M31.5 23.625H26.25V31.5H31.5V23.625Z" fill="#5BDD4B"/>
<path d="M31.5 23.625H26.25V31.5H31.5V23.625Z" fill="url(#paint5_linear_31_7751)"/>
</g>
</g>
</g>
<defs>
<filter id="filter0_i_31_7751" x="2.625" y="2.625" width="36.75" height="40.75" filterUnits="userSpaceOnUse" color-interpolation-filters="sRGB">
<feFlood flood-opacity="0" result="BackgroundImageFix"/>
<feBlend mode="normal" in="SourceGraphic" in2="BackgroundImageFix" result="shape"/>
<feColorMatrix in="SourceAlpha" type="matrix" values="0 0 0 0 0 0 0 0 0 0 0 0 0 0 0 0 0 0 127 0" result="hardAlpha"/>
<feOffset dy="4"/>
<feGaussianBlur stdDeviation="2"/>
<feComposite in2="hardAlpha" operator="arithmetic" k2="-1" k3="1"/>
<feColorMatrix type="matrix" values="0 0 0 0 0 0 0 0 0 0 0 0 0 0 0 0 0 0 0.25 0"/>
<feBlend mode="normal" in2="shape" result="effect1_innerShadow_31_7751"/>
</filter>
<filter id="filter1_d_31_7751" x="3.875" y="5.875" width="34.25" height="34.25" filterUnits="userSpaceOnUse" color-interpolation-filters="sRGB">
<feFlood flood-opacity="0" result="BackgroundImageFix"/>
<feColorMatrix in="SourceAlpha" type="matrix" values="0 0 0 0 0 0 0 0 0 0 0 0 0 0 0 0 0 0 127 0" result="hardAlpha"/>
<feOffset dy="2"/>
<feGaussianBlur stdDeviation="2"/>
<feComposite in2="hardAlpha" operator="out"/>
<feColorMatrix type="matrix" values="0 0 0 0 0 0 0 0 0 0 0 0 0 0 0 0 0 0 0.25 0"/>
<feBlend mode="normal" in2="BackgroundImageFix" result="effect1_dropShadow_31_7751"/>
<feBlend mode="normal" in="SourceGraphic" in2="effect1_dropShadow_31_7751" result="shape"/>
</filter>
<filter id="filter2_d_31_7751" x="18.3125" y="5.875" width="19.8125" height="19.8125" filterUnits="userSpaceOnUse" color-interpolation-filters="sRGB">
<feFlood flood-opacity="0" result="BackgroundImageFix"/>
<feColorMatrix in="SourceAlpha" type="matrix" values="0 0 0 0 0 0 0 0 0 0 0 0 0 0 0 0 0 0 127 0" result="hardAlpha"/>
<feOffset dy="2"/>
<feGaussianBlur stdDeviation="2"/>
<feComposite in2="hardAlpha" operator="out"/>
<feColorMatrix type="matrix" values="0 0 0 0 0 0 0 0 0 0 0 0 0 0 0 0 0 0 0.25 0"/>
<feBlend mode="normal" in2="BackgroundImageFix" result="effect1_dropShadow_31_7751"/>
<feBlend mode="normal" in="SourceGraphic" in2="effect1_dropShadow_31_7751" result="shape"/>
</filter>
<filter id="filter3_d_31_7751" x="22.25" y="5.875" width="15.875" height="15.875" filterUnits="userSpaceOnUse" color-interpolation-filters="sRGB">
<feFlood flood-opacity="0" result="BackgroundImageFix"/>
<feColorMatrix in="SourceAlpha" type="matrix" values="0 0 0 0 0 0 0 0 0 0 0 0 0 0 0 0 0 0 127 0" result="hardAlpha"/>
<feOffset dy="2"/>
<feGaussianBlur stdDeviation="2"/>
<feComposite in2="hardAlpha" operator="out"/>
<feColorMatrix type="matrix" values="0 0 0 0 0 0 0 0 0 0 0 0 0 0 0 0 0 0 0.25 0"/>
<feBlend mode="normal" in2="BackgroundImageFix" result="effect1_dropShadow_31_7751"/>
<feBlend mode="normal" in="SourceGraphic" in2="effect1_dropShadow_31_7751" result="shape"/>
</filter>
<linearGradient id="paint0_linear_31_7751" x1="42" y1="0" x2="0" y2="42" gradientUnits="userSpaceOnUse">
<stop stop-color="#97989A"/>
<stop offset="1" stop-color="#505050"/>
</linearGradient>
<linearGradient id="paint1_linear_31_7751" x1="21" y1="7.875" x2="21" y2="34.125" gradientUnits="userSpaceOnUse">
<stop stop-color="#FAFAFA"/>
<stop offset="1" stop-color="#D5D5D5"/>
</linearGradient>
<linearGradient id="paint2_linear_31_7751" x1="13.125" y1="23.625" x2="13.125" y2="31.5" gradientUnits="userSpaceOnUse">
<stop stop-opacity="0"/>
<stop offset="1" stop-opacity="0.2"/>
</linearGradient>
<linearGradient id="paint3_linear_31_7751" x1="18.375" y1="21" x2="18.375" y2="31.5" gradientUnits="userSpaceOnUse">
<stop stop-opacity="0"/>
<stop offset="1" stop-opacity="0.2"/>
</linearGradient>
<linearGradient id="paint4_linear_31_7751" x1="23.625" y1="26.25" x2="23.625" y2="31.5" gradientUnits="userSpaceOnUse">
<stop stop-opacity="0"/>
<stop offset="1" stop-opacity="0.2"/>
</linearGradient>
<linearGradient id="paint5_linear_31_7751" x1="28.875" y1="23.625" x2="28.875" y2="31.5" gradientUnits="userSpaceOnUse">
<stop stop-opacity="0"/>
<stop offset="1" stop-opacity="0.2"/>
</linearGradient>
<clipPath id="clip0_31_7751">
<rect width="42" height="42" fill="white"/>
</clipPath>
</defs>
</svg>
