<svg width="42" height="42" viewBox="0 0 42 42" fill="none" xmlns="http://www.w3.org/2000/svg">
<g clip-path="url(#clip0_31_7731)">
<path d="M31.5 0H10.5C4.70101 0 0 4.70101 0 10.5V31.5C0 37.299 4.70101 42 10.5 42H31.5C37.299 42 42 37.299 42 31.5V10.5C42 4.70101 37.299 0 31.5 0Z" fill="url(#paint0_linear_31_7731)"/>
<g filter="url(#filter0_i_31_7731)">
<path d="M31.5 2.625H10.5C6.15076 2.625 2.625 6.15076 2.625 10.5V31.5C2.625 35.8492 6.15076 39.375 10.5 39.375H31.5C35.8492 39.375 39.375 35.8492 39.375 31.5V10.5C39.375 6.15076 35.8492 2.625 31.5 2.625Z" fill="black" fill-opacity="0.7"/>
<g filter="url(#filter1_d_31_7731)">
<path fill-rule="evenodd" clip-rule="evenodd" d="M22.3125 9.51562H10.5C9.05025 9.51562 7.875 10.6909 7.875 12.1406V29.8594C7.875 31.3091 9.05025 32.4844 10.5 32.4844H31.5C32.9497 32.4844 34.125 31.3091 34.125 29.8594V21.3281L22.3125 9.51562Z" fill="url(#paint1_linear_31_7731)"/>
</g>
<path d="M13.125 25.2656V27.2344C13.125 27.9592 13.7126 28.5469 14.4375 28.5469H18.375M13.125 25.2656H18.375M13.125 25.2656V21.9844M18.375 28.5469V25.2656M18.375 28.5469H23.625M18.375 25.2656H23.625M18.375 25.2656V21.9844M13.125 21.9844H18.375M13.125 21.9844V20.0156C13.125 19.2908 13.7126 18.7031 14.4375 18.7031H18.375M23.625 25.2656V28.5469M23.625 25.2656H28.875M23.625 25.2656V21.9844M18.375 21.9844H23.625M18.375 21.9844V18.7031M23.625 28.5469H27.5625C28.2874 28.5469 28.875 27.9592 28.875 27.2344V25.2656M28.875 25.2656V21.9844M23.625 21.9844H28.875M23.625 21.9844V18.7031M28.875 21.9844V20.0156C28.875 19.2908 28.2874 18.7031 27.5625 18.7031H23.625M18.375 18.7031H23.625" stroke="white" stroke-width="4"/>
<g filter="url(#filter2_d_31_7731)">
<path d="M34.1248 12.1406C34.1248 10.6909 32.9498 9.51562 31.5 9.51562H26.25L34.1248 17.3906V12.1406Z" fill="#97989A"/>
</g>
</g>
</g>
<defs>
<filter id="filter0_i_31_7731" x="2.625" y="2.625" width="36.75" height="40.75" filterUnits="userSpaceOnUse" color-interpolation-filters="sRGB">
<feFlood flood-opacity="0" result="BackgroundImageFix"/>
<feBlend mode="normal" in="SourceGraphic" in2="BackgroundImageFix" result="shape"/>
<feColorMatrix in="SourceAlpha" type="matrix" values="0 0 0 0 0 0 0 0 0 0 0 0 0 0 0 0 0 0 127 0" result="hardAlpha"/>
<feOffset dy="4"/>
<feGaussianBlur stdDeviation="2"/>
<feComposite in2="hardAlpha" operator="arithmetic" k2="-1" k3="1"/>
<feColorMatrix type="matrix" values="0 0 0 0 0 0 0 0 0 0 0 0 0 0 0 0 0 0 0.25 0"/>
<feBlend mode="normal" in2="shape" result="effect1_innerShadow_31_7731"/>
</filter>
<filter id="filter1_d_31_7731" x="3.875" y="7.51562" width="34.25" height="30.9688" filterUnits="userSpaceOnUse" color-interpolation-filters="sRGB">
<feFlood flood-opacity="0" result="BackgroundImageFix"/>
<feColorMatrix in="SourceAlpha" type="matrix" values="0 0 0 0 0 0 0 0 0 0 0 0 0 0 0 0 0 0 127 0" result="hardAlpha"/>
<feOffset dy="2"/>
<feGaussianBlur stdDeviation="2"/>
<feComposite in2="hardAlpha" operator="out"/>
<feColorMatrix type="matrix" values="0 0 0 0 0 0 0 0 0 0 0 0 0 0 0 0 0 0 0.25 0"/>
<feBlend mode="normal" in2="BackgroundImageFix" result="effect1_dropShadow_31_7731"/>
<feBlend mode="normal" in="SourceGraphic" in2="effect1_dropShadow_31_7731" result="shape"/>
</filter>
<filter id="filter2_d_31_7731" x="22.25" y="7.51562" width="15.875" height="15.875" filterUnits="userSpaceOnUse" color-interpolation-filters="sRGB">
<feFlood flood-opacity="0" result="BackgroundImageFix"/>
<feColorMatrix in="SourceAlpha" type="matrix" values="0 0 0 0 0 0 0 0 0 0 0 0 0 0 0 0 0 0 127 0" result="hardAlpha"/>
<feOffset dy="2"/>
<feGaussianBlur stdDeviation="2"/>
<feComposite in2="hardAlpha" operator="out"/>
<feColorMatrix type="matrix" values="0 0 0 0 0 0 0 0 0 0 0 0 0 0 0 0 0 0 0.25 0"/>
<feBlend mode="normal" in2="BackgroundImageFix" result="effect1_dropShadow_31_7731"/>
<feBlend mode="normal" in="SourceGraphic" in2="effect1_dropShadow_31_7731" result="shape"/>
</filter>
<linearGradient id="paint0_linear_31_7731" x1="42" y1="0" x2="0" y2="42" gradientUnits="userSpaceOnUse">
<stop stop-color="#75EA53"/>
<stop offset="1" stop-color="#068540"/>
</linearGradient>
<linearGradient id="paint1_linear_31_7731" x1="34.125" y1="9.51562" x2="7.875" y2="35.7656" gradientUnits="userSpaceOnUse">
<stop stop-color="#75EA53"/>
<stop offset="1" stop-color="#068540"/>
</linearGradient>
<clipPath id="clip0_31_7731">
<rect width="42" height="42" fill="white"/>
</clipPath>
</defs>
</svg>
