<svg width="42" height="42" viewBox="0 0 42 42" fill="none" xmlns="http://www.w3.org/2000/svg">
<g clip-path="url(#clip0_31_7773)">
<path d="M31.5 0H10.5C4.70101 0 0 4.70101 0 10.5V31.5C0 37.299 4.70101 42 10.5 42H31.5C37.299 42 42 37.299 42 31.5V10.5C42 4.70101 37.299 0 31.5 0Z" fill="url(#paint0_linear_31_7773)"/>
<g filter="url(#filter0_i_31_7773)">
<path d="M31.5 2.625H10.5C6.15076 2.625 2.625 6.15076 2.625 10.5V31.5C2.625 35.8492 6.15076 39.375 10.5 39.375H31.5C35.8492 39.375 39.375 35.8492 39.375 31.5V10.5C39.375 6.15076 35.8492 2.625 31.5 2.625Z" fill="black" fill-opacity="0.7"/>
<g filter="url(#filter1_d_31_7773)">
<path fill-rule="evenodd" clip-rule="evenodd" d="M22.3125 11.1562H10.5C9.05025 11.1562 7.875 12.3315 7.875 13.7812V28.2188C7.875 29.6685 9.05025 30.8438 10.5 30.8438H31.5C32.9497 30.8438 34.125 29.6685 34.125 28.2188V22.9688L22.3125 11.1562Z" fill="url(#paint1_linear_31_7773)"/>
</g>
<g filter="url(#filter2_d_31_7773)">
<path d="M34.1248 13.7812C34.1248 12.3315 32.9498 11.1562 31.5 11.1562H26.25L34.1248 19.0312V13.7812Z" fill="#97989A"/>
</g>
<path fill-rule="evenodd" clip-rule="evenodd" d="M25.5938 14.4375H13.4531C13.0907 14.4375 12.7969 14.7313 12.7969 15.0938C12.7969 15.4562 13.0907 15.75 13.4531 15.75H26.9062L25.5938 14.4375Z" fill="white"/>
<path d="M11.1562 21C11.1562 20.6376 10.8624 20.3438 10.5 20.3438C10.1376 20.3438 9.84375 20.6376 9.84375 21C9.84375 21.3624 10.1376 21.6562 10.5 21.6562C10.8624 21.6562 11.1562 21.3624 11.1562 21Z" fill="white"/>
<path d="M24.9375 20.3438H13.125C12.7626 20.3438 12.4688 20.6376 12.4688 21C12.4688 21.3624 12.7626 21.6562 13.125 21.6562H24.9375C25.2999 21.6562 25.5938 21.3624 25.5938 21C25.5938 20.6376 25.2999 20.3438 24.9375 20.3438Z" fill="white"/>
<path d="M11.1562 23.625C11.1562 23.2626 10.8624 22.9688 10.5 22.9688C10.1376 22.9688 9.84375 23.2626 9.84375 23.625C9.84375 23.9874 10.1376 24.2812 10.5 24.2812C10.8624 24.2812 11.1562 23.9874 11.1562 23.625Z" fill="white"/>
<path d="M22.3125 22.9688H13.125C12.7626 22.9688 12.4688 23.2626 12.4688 23.625C12.4688 23.9874 12.7626 24.2812 13.125 24.2812H22.3125C22.6749 24.2812 22.9688 23.9874 22.9688 23.625C22.9688 23.2626 22.6749 22.9688 22.3125 22.9688Z" fill="white"/>
<path d="M11.1562 26.25C11.1562 25.8876 10.8624 25.5938 10.5 25.5938C10.1376 25.5938 9.84375 25.8876 9.84375 26.25C9.84375 26.6124 10.1376 26.9062 10.5 26.9062C10.8624 26.9062 11.1562 26.6124 11.1562 26.25Z" fill="white"/>
<path d="M23.9531 25.5938H13.125C12.7626 25.5938 12.4688 25.8876 12.4688 26.25C12.4688 26.6124 12.7626 26.9062 13.125 26.9062H23.9531C24.3156 26.9062 24.6094 26.6124 24.6094 26.25C24.6094 25.8876 24.3156 25.5938 23.9531 25.5938Z" fill="white"/>
</g>
</g>
<defs>
<filter id="filter0_i_31_7773" x="2.625" y="2.625" width="36.75" height="40.75" filterUnits="userSpaceOnUse" color-interpolation-filters="sRGB">
<feFlood flood-opacity="0" result="BackgroundImageFix"/>
<feBlend mode="normal" in="SourceGraphic" in2="BackgroundImageFix" result="shape"/>
<feColorMatrix in="SourceAlpha" type="matrix" values="0 0 0 0 0 0 0 0 0 0 0 0 0 0 0 0 0 0 127 0" result="hardAlpha"/>
<feOffset dy="4"/>
<feGaussianBlur stdDeviation="2"/>
<feComposite in2="hardAlpha" operator="arithmetic" k2="-1" k3="1"/>
<feColorMatrix type="matrix" values="0 0 0 0 0 0 0 0 0 0 0 0 0 0 0 0 0 0 0.25 0"/>
<feBlend mode="normal" in2="shape" result="effect1_innerShadow_31_7773"/>
</filter>
<filter id="filter1_d_31_7773" x="3.875" y="9.15625" width="34.25" height="27.6875" filterUnits="userSpaceOnUse" color-interpolation-filters="sRGB">
<feFlood flood-opacity="0" result="BackgroundImageFix"/>
<feColorMatrix in="SourceAlpha" type="matrix" values="0 0 0 0 0 0 0 0 0 0 0 0 0 0 0 0 0 0 127 0" result="hardAlpha"/>
<feOffset dy="2"/>
<feGaussianBlur stdDeviation="2"/>
<feComposite in2="hardAlpha" operator="out"/>
<feColorMatrix type="matrix" values="0 0 0 0 0 0 0 0 0 0 0 0 0 0 0 0 0 0 0.25 0"/>
<feBlend mode="normal" in2="BackgroundImageFix" result="effect1_dropShadow_31_7773"/>
<feBlend mode="normal" in="SourceGraphic" in2="effect1_dropShadow_31_7773" result="shape"/>
</filter>
<filter id="filter2_d_31_7773" x="22.25" y="9.15625" width="15.875" height="15.875" filterUnits="userSpaceOnUse" color-interpolation-filters="sRGB">
<feFlood flood-opacity="0" result="BackgroundImageFix"/>
<feColorMatrix in="SourceAlpha" type="matrix" values="0 0 0 0 0 0 0 0 0 0 0 0 0 0 0 0 0 0 127 0" result="hardAlpha"/>
<feOffset dy="2"/>
<feGaussianBlur stdDeviation="2"/>
<feComposite in2="hardAlpha" operator="out"/>
<feColorMatrix type="matrix" values="0 0 0 0 0 0 0 0 0 0 0 0 0 0 0 0 0 0 0.25 0"/>
<feBlend mode="normal" in2="BackgroundImageFix" result="effect1_dropShadow_31_7773"/>
<feBlend mode="normal" in="SourceGraphic" in2="effect1_dropShadow_31_7773" result="shape"/>
</filter>
<linearGradient id="paint0_linear_31_7773" x1="42" y1="0" x2="0" y2="42" gradientUnits="userSpaceOnUse">
<stop stop-color="#F79740"/>
<stop offset="1" stop-color="#D21E10"/>
</linearGradient>
<linearGradient id="paint1_linear_31_7773" x1="34.125" y1="11.1562" x2="15.225" y2="36.3562" gradientUnits="userSpaceOnUse">
<stop stop-color="#F79740"/>
<stop offset="1" stop-color="#D21E10"/>
</linearGradient>
<clipPath id="clip0_31_7773">
<rect width="42" height="42" fill="white"/>
</clipPath>
</defs>
</svg>
