<svg width="42" height="42" viewBox="0 0 42 42" fill="none" xmlns="http://www.w3.org/2000/svg">
<g clip-path="url(#clip0_31_7857)">
<path d="M31.5 0H10.5C4.70101 0 0 4.70101 0 10.5V31.5C0 37.299 4.70101 42 10.5 42H31.5C37.299 42 42 37.299 42 31.5V10.5C42 4.70101 37.299 0 31.5 0Z" fill="url(#paint0_linear_31_7857)"/>
<g filter="url(#filter0_i_31_7857)">
<path d="M31.5 2.625H10.5C6.15076 2.625 2.625 6.15076 2.625 10.5V31.5C2.625 35.8492 6.15076 39.375 10.5 39.375H31.5C35.8492 39.375 39.375 35.8492 39.375 31.5V10.5C39.375 6.15076 35.8492 2.625 31.5 2.625Z" fill="black" fill-opacity="0.7"/>
<mask id="mask0_31_7857" style="mask-type:luminance" maskUnits="userSpaceOnUse" x="5" y="7" width="32" height="28">
<path d="M36.75 7.54688H5.25V34.4531H36.75V7.54688Z" fill="white"/>
</mask>
<g mask="url(#mask0_31_7857)">
<g filter="url(#filter1_d_31_7857)">
<path d="M9.87866 11.0652C11.0203 15.115 10.5145 20.1824 34.5517 12.5136L35.8264 24.1688C36.0522 26.2321 34.4434 28.0611 32.2194 28.2697C26.4405 17.2598 13.2753 18.7872 7.54657 26.8213L6.27161 15.166C6.04589 13.1027 7.65462 11.2737 9.87866 11.0652Z" fill="#08A7E6"/>
<path d="M9.87844 11.0652L30.1294 9.16578C32.3534 8.95719 34.3257 10.4503 34.5511 12.5136C22.2751 15.5261 21.4449 23.6767 32.2192 28.2697L11.9682 30.1691C9.74423 30.3777 7.77207 28.8845 7.54639 26.8213C21.652 22.3875 20.0101 16.2593 9.87844 11.0652Z" fill="#322374"/>
<path d="M32.6193 11.0325H9.40746C8.3041 11.0325 7.40967 11.9246 7.40967 13.0249V26.6886C7.40967 27.7889 8.3041 28.681 9.40746 28.681H32.6193C33.7227 28.681 34.6172 27.7889 34.6172 26.6886V13.0249C34.6172 11.9246 33.7227 11.0325 32.6193 11.0325Z" fill="white"/>
<path d="M27.0386 28.6713C27.0387 27.7045 27.4238 26.7773 28.1092 26.0935C28.7946 25.4098 29.7242 25.0255 30.6937 25.025C31.6631 25.0246 32.5931 25.4081 33.279 26.0913C33.9651 26.7744 34.351 27.7013 34.352 28.6681C34.3529 29.635 33.969 30.5626 33.2842 31.2472C32.5997 31.9317 31.6706 32.3171 30.7011 32.3187C29.7317 32.3202 28.8013 31.9378 28.1145 31.2555C27.4277 30.5731 27.0407 29.6467 27.0386 28.6798" fill="white"/>
<path d="M27.0386 28.6713C27.0387 27.7045 27.4238 26.7773 28.1092 26.0935C28.7946 25.4098 29.7242 25.0255 30.6937 25.025C31.6631 25.0246 32.5931 25.4081 33.279 26.0913C33.9651 26.7744 34.351 27.7013 34.352 28.6681C34.3529 29.635 33.969 30.5626 33.2842 31.2472C32.5997 31.9317 31.6706 32.3171 30.7011 32.3187C29.7317 32.3202 28.8013 31.9378 28.1145 31.2555C27.4277 30.5731 27.0407 29.6467 27.0386 28.6798" stroke="#322374" stroke-width="2.66667" stroke-linecap="round" stroke-linejoin="round"/>
<path fill-rule="evenodd" clip-rule="evenodd" d="M29.1998 26.3097L33.5235 28.7992L29.1919 31.1564L29.1998 26.3097Z" fill="black"/>
</g>
</g>
</g>
</g>
<defs>
<filter id="filter0_i_31_7857" x="2.625" y="2.625" width="36.75" height="40.75" filterUnits="userSpaceOnUse" color-interpolation-filters="sRGB">
<feFlood flood-opacity="0" result="BackgroundImageFix"/>
<feBlend mode="normal" in="SourceGraphic" in2="BackgroundImageFix" result="shape"/>
<feColorMatrix in="SourceAlpha" type="matrix" values="0 0 0 0 0 0 0 0 0 0 0 0 0 0 0 0 0 0 127 0" result="hardAlpha"/>
<feOffset dy="4"/>
<feGaussianBlur stdDeviation="2"/>
<feComposite in2="hardAlpha" operator="arithmetic" k2="-1" k3="1"/>
<feColorMatrix type="matrix" values="0 0 0 0 0 0 0 0 0 0 0 0 0 0 0 0 0 0 0.25 0"/>
<feBlend mode="normal" in2="shape" result="effect1_innerShadow_31_7857"/>
</filter>
<filter id="filter1_d_31_7857" x="2.25049" y="7.14633" width="37.5972" height="32.5057" filterUnits="userSpaceOnUse" color-interpolation-filters="sRGB">
<feFlood flood-opacity="0" result="BackgroundImageFix"/>
<feColorMatrix in="SourceAlpha" type="matrix" values="0 0 0 0 0 0 0 0 0 0 0 0 0 0 0 0 0 0 127 0" result="hardAlpha"/>
<feOffset dy="2"/>
<feGaussianBlur stdDeviation="2"/>
<feComposite in2="hardAlpha" operator="out"/>
<feColorMatrix type="matrix" values="0 0 0 0 0 0 0 0 0 0 0 0 0 0 0 0 0 0 0.25 0"/>
<feBlend mode="normal" in2="BackgroundImageFix" result="effect1_dropShadow_31_7857"/>
<feBlend mode="normal" in="SourceGraphic" in2="effect1_dropShadow_31_7857" result="shape"/>
</filter>
<linearGradient id="paint0_linear_31_7857" x1="8.69531" y1="32.4844" x2="41.5072" y2="6.72564" gradientUnits="userSpaceOnUse">
<stop stop-color="#322374"/>
<stop offset="1" stop-color="#08A7E6"/>
</linearGradient>
<clipPath id="clip0_31_7857">
<rect width="42" height="42" fill="white"/>
</clipPath>
</defs>
</svg>
