<svg width="42" height="42" viewBox="0 0 42 42" fill="none" xmlns="http://www.w3.org/2000/svg">
<g clip-path="url(#clip0_31_7872)">
<path d="M31.5 0H10.5C4.70101 0 0 4.70101 0 10.5V31.5C0 37.299 4.70101 42 10.5 42H31.5C37.299 42 42 37.299 42 31.5V10.5C42 4.70101 37.299 0 31.5 0Z" fill="url(#paint0_linear_31_7872)"/>
<g filter="url(#filter0_i_31_7872)">
<path d="M31.5 2.625H10.5C6.15076 2.625 2.625 6.15076 2.625 10.5V31.5C2.625 35.8492 6.15076 39.375 10.5 39.375H31.5C35.8492 39.375 39.375 35.8492 39.375 31.5V10.5C39.375 6.15076 35.8492 2.625 31.5 2.625Z" fill="black" fill-opacity="0.7"/>
<mask id="mask0_31_7872" style="mask-type:luminance" maskUnits="userSpaceOnUse" x="7" y="7" width="28" height="28">
<path d="M34.125 7.875H7.875V34.125H34.125V7.875Z" fill="white"/>
</mask>
<g mask="url(#mask0_31_7872)">
<path d="M9.45446 9.00662L23.9794 7.93378C25.7636 7.78075 26.2219 7.88391 27.3438 8.6995L31.9804 11.9658C32.745 12.5275 32.9995 12.6806 32.9995 13.2922V31.206C32.9995 32.3287 32.592 32.9929 31.1648 33.0942L14.2976 34.1157C13.2266 34.1666 12.7166 34.0133 12.1556 33.2987L8.74125 28.8587C8.12884 28.0415 7.875 27.4299 7.875 26.7149V10.7916C7.875 9.87366 8.28266 9.10821 9.45446 9.00662Z" fill="white"/>
<g filter="url(#filter1_d_31_7872)">
<path fill-rule="evenodd" clip-rule="evenodd" d="M23.9794 7.93405L9.45446 9.00688C8.28266 9.10821 7.875 9.87392 7.875 10.7916V26.7149C7.875 27.4297 8.12884 28.0413 8.74125 28.8587L12.1556 33.2983C12.7166 34.0133 13.2266 34.1666 14.2976 34.1157L31.1651 33.0946C32.5912 32.9929 32.9999 32.3287 32.9999 31.2062V13.2925C32.9999 12.7123 32.7708 12.5451 32.0961 12.05L27.3438 8.6995C26.2222 7.88391 25.7636 7.78101 23.9794 7.93405ZM14.679 12.9992C13.3017 13.0919 12.9893 13.1129 12.207 12.4769L10.2183 10.895C10.0162 10.6903 10.1178 10.4349 10.627 10.384L24.5902 9.36362C25.7628 9.26125 26.3734 9.66996 26.832 10.027L29.2267 11.7621C29.3291 11.8138 29.5838 12.1191 29.2774 12.1191L14.8575 12.9872L14.679 12.9992ZM13.0733 31.0532V15.8458C13.0733 15.1817 13.2772 14.8753 13.8878 14.8239L30.45 13.8542C31.0118 13.8035 31.2656 14.1605 31.2656 14.8236V29.9297C31.2656 30.5938 31.1632 31.1556 30.2463 31.2062L14.3973 32.125C13.4804 32.1757 13.0733 31.8704 13.0733 31.0532ZM28.7183 16.6611C28.8199 17.1205 28.7183 17.5799 28.2589 17.6324L27.495 17.7838V29.0117C26.8317 29.3687 26.2211 29.5727 25.7108 29.5727C24.8952 29.5727 24.6915 29.3173 24.0807 28.5524L19.0853 20.6931V28.297L20.6656 28.6547C20.6656 28.6547 20.6656 29.5735 19.3906 29.5735L15.8757 29.7775C15.7734 29.5727 15.8757 29.0627 16.2319 28.9611L17.1499 28.7065V18.6527L15.876 18.5495C15.7736 18.0902 16.0282 17.4268 16.7422 17.3754L20.5136 17.1215L25.7111 25.0824V18.0395L24.3862 17.8873C24.2839 17.3247 24.6915 16.916 25.2008 16.8661L28.7183 16.6611Z" fill="black"/>
</g>
</g>
</g>
</g>
<defs>
<filter id="filter0_i_31_7872" x="2.625" y="2.625" width="36.75" height="40.75" filterUnits="userSpaceOnUse" color-interpolation-filters="sRGB">
<feFlood flood-opacity="0" result="BackgroundImageFix"/>
<feBlend mode="normal" in="SourceGraphic" in2="BackgroundImageFix" result="shape"/>
<feColorMatrix in="SourceAlpha" type="matrix" values="0 0 0 0 0 0 0 0 0 0 0 0 0 0 0 0 0 0 127 0" result="hardAlpha"/>
<feOffset dy="4"/>
<feGaussianBlur stdDeviation="2"/>
<feComposite in2="hardAlpha" operator="arithmetic" k2="-1" k3="1"/>
<feColorMatrix type="matrix" values="0 0 0 0 0 0 0 0 0 0 0 0 0 0 0 0 0 0 0.25 0"/>
<feBlend mode="normal" in2="shape" result="effect1_innerShadow_31_7872"/>
</filter>
<filter id="filter1_d_31_7872" x="3.875" y="5.87436" width="33.125" height="34.2502" filterUnits="userSpaceOnUse" color-interpolation-filters="sRGB">
<feFlood flood-opacity="0" result="BackgroundImageFix"/>
<feColorMatrix in="SourceAlpha" type="matrix" values="0 0 0 0 0 0 0 0 0 0 0 0 0 0 0 0 0 0 127 0" result="hardAlpha"/>
<feOffset dy="2"/>
<feGaussianBlur stdDeviation="2"/>
<feComposite in2="hardAlpha" operator="out"/>
<feColorMatrix type="matrix" values="0 0 0 0 0 0 0 0 0 0 0 0 0 0 0 0 0 0 0.25 0"/>
<feBlend mode="normal" in2="BackgroundImageFix" result="effect1_dropShadow_31_7872"/>
<feBlend mode="normal" in="SourceGraphic" in2="effect1_dropShadow_31_7872" result="shape"/>
</filter>
<linearGradient id="paint0_linear_31_7872" x1="21" y1="0" x2="21" y2="42" gradientUnits="userSpaceOnUse">
<stop stop-color="white"/>
<stop offset="1" stop-color="#DFDFDF"/>
</linearGradient>
<clipPath id="clip0_31_7872">
<rect width="42" height="42" fill="white"/>
</clipPath>
</defs>
</svg>
