<svg width="42" height="42" viewBox="0 0 42 42" fill="none" xmlns="http://www.w3.org/2000/svg">
<g clip-path="url(#clip0_31_7901)">
<path d="M31.5 0H10.5C4.70101 0 0 4.70101 0 10.5V31.5C0 37.299 4.70101 42 10.5 42H31.5C37.299 42 42 37.299 42 31.5V10.5C42 4.70101 37.299 0 31.5 0Z" fill="url(#paint0_linear_31_7901)"/>
<g filter="url(#filter0_i_31_7901)">
<path d="M31.5 2.625H10.5C6.15076 2.625 2.625 6.15076 2.625 10.5V31.5C2.625 35.8492 6.15076 39.375 10.5 39.375H31.5C35.8492 39.375 39.375 35.8492 39.375 31.5V10.5C39.375 6.15076 35.8492 2.625 31.5 2.625Z" fill="black" fill-opacity="0.7"/>
<g filter="url(#filter1_d_31_7901)">
<path d="M20.9997 7.87559C13.7512 7.87559 7.875 13.7518 7.875 21.0003C7.875 28.0391 13.4164 33.7838 20.3747 34.1099C20.5823 34.1198 20.7903 34.125 20.9999 34.125C24.3603 34.125 27.4248 32.8617 29.7468 30.785C28.2083 31.8054 26.4097 32.3924 24.4874 32.3924C21.3618 32.3924 18.5626 30.8419 16.68 28.3967C15.2287 26.6836 14.2887 24.1512 14.2247 21.3093V20.6912C14.2887 17.8493 15.2286 15.3164 16.6796 13.6037C18.5625 11.1586 21.3617 9.60803 24.487 9.60803C26.4098 9.60803 28.2088 10.1951 29.7474 11.216C27.4367 9.14898 24.3907 7.88806 21.0491 7.87566C21.0325 7.87566 21.0161 7.875 20.9995 7.875L20.9997 7.87559Z" fill="#FF1B2D"/>
<path d="M16.6797 13.6045C17.8841 12.1826 19.4396 11.3252 21.139 11.3252C24.9601 11.3252 28.057 15.6572 28.057 21.0009C28.057 26.3446 24.9598 30.6766 21.139 30.6766C19.4396 30.6766 17.8841 29.8196 16.68 28.3976C18.5626 30.8428 21.3616 32.3934 24.4875 32.3934C26.4098 32.3934 28.2086 31.8063 29.7469 30.786C32.4333 28.3827 34.1249 24.8895 34.1249 21.001C34.1249 17.113 32.4337 13.62 29.7479 11.217C28.209 10.196 26.41 9.60892 24.4875 9.60892C21.3619 9.60892 18.5623 11.1593 16.6797 13.6045Z" fill="#B10000"/>
</g>
</g>
</g>
<defs>
<filter id="filter0_i_31_7901" x="2.625" y="2.625" width="36.75" height="40.75" filterUnits="userSpaceOnUse" color-interpolation-filters="sRGB">
<feFlood flood-opacity="0" result="BackgroundImageFix"/>
<feBlend mode="normal" in="SourceGraphic" in2="BackgroundImageFix" result="shape"/>
<feColorMatrix in="SourceAlpha" type="matrix" values="0 0 0 0 0 0 0 0 0 0 0 0 0 0 0 0 0 0 127 0" result="hardAlpha"/>
<feOffset dy="4"/>
<feGaussianBlur stdDeviation="2"/>
<feComposite in2="hardAlpha" operator="arithmetic" k2="-1" k3="1"/>
<feColorMatrix type="matrix" values="0 0 0 0 0 0 0 0 0 0 0 0 0 0 0 0 0 0 0.25 0"/>
<feBlend mode="normal" in2="shape" result="effect1_innerShadow_31_7901"/>
</filter>
<filter id="filter1_d_31_7901" x="3.875" y="5.875" width="34.25" height="34.25" filterUnits="userSpaceOnUse" color-interpolation-filters="sRGB">
<feFlood flood-opacity="0" result="BackgroundImageFix"/>
<feColorMatrix in="SourceAlpha" type="matrix" values="0 0 0 0 0 0 0 0 0 0 0 0 0 0 0 0 0 0 127 0" result="hardAlpha"/>
<feOffset dy="2"/>
<feGaussianBlur stdDeviation="2"/>
<feComposite in2="hardAlpha" operator="out"/>
<feColorMatrix type="matrix" values="0 0 0 0 0 0 0 0 0 0 0 0 0 0 0 0 0 0 0.25 0"/>
<feBlend mode="normal" in2="BackgroundImageFix" result="effect1_dropShadow_31_7901"/>
<feBlend mode="normal" in="SourceGraphic" in2="effect1_dropShadow_31_7901" result="shape"/>
</filter>
<linearGradient id="paint0_linear_31_7901" x1="21" y1="0" x2="21" y2="42" gradientUnits="userSpaceOnUse">
<stop stop-color="#FF1B2D"/>
<stop offset="0.3" stop-color="#FF1B2D"/>
<stop offset="0.614" stop-color="#FF1B2D"/>
<stop offset="1" stop-color="#A70014"/>
</linearGradient>
<clipPath id="clip0_31_7901">
<rect width="42" height="42" fill="white"/>
</clipPath>
</defs>
</svg>
