<svg width="42" height="42" viewBox="0 0 42 42" fill="none" xmlns="http://www.w3.org/2000/svg">
<g clip-path="url(#clip0_31_7908)">
<path d="M31.5 0H10.5C4.70101 0 0 4.70101 0 10.5V31.5C0 37.299 4.70101 42 10.5 42H31.5C37.299 42 42 37.299 42 31.5V10.5C42 4.70101 37.299 0 31.5 0Z" fill="url(#paint0_linear_31_7908)"/>
<path d="M31.5 0H10.5C4.70101 0 0 4.70101 0 10.5V31.5C0 37.299 4.70101 42 10.5 42H31.5C37.299 42 42 37.299 42 31.5V10.5C42 4.70101 37.299 0 31.5 0Z" fill="url(#paint1_linear_31_7908)"/>
<g filter="url(#filter0_i_31_7908)">
<path d="M31.5 2.625H10.5C6.15076 2.625 2.625 6.15076 2.625 10.5V31.5C2.625 35.8492 6.15076 39.375 10.5 39.375H31.5C35.8492 39.375 39.375 35.8492 39.375 31.5V10.5C39.375 6.15076 35.8492 2.625 31.5 2.625Z" fill="black" fill-opacity="0.7"/>
<mask id="mask0_31_7908" style="mask-type:luminance" maskUnits="userSpaceOnUse" x="5" y="5" width="32" height="32">
<path d="M36.75 5.25H5.25V36.75H36.75V5.25Z" fill="white"/>
</mask>
<g mask="url(#mask0_31_7908)">
<g filter="url(#filter1_d_31_7908)">
<path d="M22.6479 11.813L21.6874 8.90979L17.2294 11.0646L11.3281 11.5853L12.1381 21.7103L20.5077 20.3096L22.6479 11.813Z" fill="url(#paint2_linear_31_7908)"/>
</g>
<g filter="url(#filter2_d_31_7908)">
<path d="M14.6938 14.3973L6.75 12.3098L9.49545 28.7971L24.2881 28.6531L14.6938 14.3973Z" fill="url(#paint3_linear_31_7908)"/>
</g>
<g filter="url(#filter3_d_31_7908)">
<path d="M25.6188 21.4209L22.2051 15.5774L25.9081 12.2217L31.8022 9.80957L35.5501 19.1234L30.1525 24.4843L25.6188 21.4209Z" fill="url(#paint4_linear_31_7908)"/>
</g>
<g filter="url(#filter4_d_31_7908)">
<path d="M30.1547 18.9995L28.2798 15.1724L13.5776 18.1265L15.0878 32.1649L24.7939 35.5501L35.5499 29.1119L30.1547 18.9995Z" fill="url(#paint5_linear_31_7908)"/>
</g>
<g filter="url(#filter5_d_31_7908)">
<path d="M22.552 19.6852L13.5776 18.1264L24.532 8.45975L31.802 9.80955L27.2963 14.3046L28.3376 15.2302L22.552 19.6852Z" fill="url(#paint6_linear_31_7908)"/>
</g>
<g filter="url(#filter6_d_31_7908)">
<path d="M21.6873 8.90975L11.6629 6.75L6.75 12.3098L14.708 14.4254L21.6873 8.90975Z" fill="url(#paint7_linear_31_7908)"/>
</g>
<g filter="url(#filter7_d_31_7908)">
<path d="M30.1499 12.15H12.1499V30.15H30.1499V12.15Z" fill="black"/>
</g>
<path d="M21.1499 26.775H14.3999V27.9H21.1499V26.775Z" fill="white"/>
<path d="M20.293 20.256L21.1735 19.2021C21.7824 19.7045 22.4214 20.024 23.1939 20.024C23.8043 20.024 24.1715 19.7824 24.1714 19.3849V19.3659C24.1714 18.9891 23.9393 18.7952 22.8075 18.5059C21.4436 18.1577 20.563 17.7795 20.5629 16.4362V16.4156C20.5628 15.1884 21.5499 14.3745 22.9328 14.3745C23.8458 14.3598 24.7354 14.6646 25.4476 15.2361L24.6735 16.3584C24.0742 15.9419 23.4845 15.6907 22.9138 15.6907C22.3431 15.6907 22.0428 15.9514 22.0428 16.2804V16.2995C22.0428 16.7446 22.3337 16.8909 23.5037 17.1897C24.8771 17.5473 25.6513 18.0417 25.6513 19.2212V19.2403C25.6514 20.5851 24.6262 21.3386 23.1654 21.3386C22.1075 21.3425 21.0851 20.9572 20.293 20.256Z" fill="white"/>
<path d="M14.4204 14.4774H17.1749C18.7828 14.4774 19.7555 15.4308 19.7555 16.8077V16.827C19.7555 18.387 18.5421 19.1961 17.0302 19.1961H15.9034V21.2183H14.4204V14.4774ZM17.0783 17.8767C17.8199 17.8767 18.2533 17.4338 18.2533 16.8559V16.8366C18.2533 16.1722 17.7911 15.816 17.0494 15.816H15.9034V17.8767H17.0783Z" fill="white"/>
</g>
</g>
</g>
<defs>
<filter id="filter0_i_31_7908" x="2.625" y="2.625" width="36.75" height="40.75" filterUnits="userSpaceOnUse" color-interpolation-filters="sRGB">
<feFlood flood-opacity="0" result="BackgroundImageFix"/>
<feBlend mode="normal" in="SourceGraphic" in2="BackgroundImageFix" result="shape"/>
<feColorMatrix in="SourceAlpha" type="matrix" values="0 0 0 0 0 0 0 0 0 0 0 0 0 0 0 0 0 0 127 0" result="hardAlpha"/>
<feOffset dy="4"/>
<feGaussianBlur stdDeviation="2"/>
<feComposite in2="hardAlpha" operator="arithmetic" k2="-1" k3="1"/>
<feColorMatrix type="matrix" values="0 0 0 0 0 0 0 0 0 0 0 0 0 0 0 0 0 0 0.25 0"/>
<feBlend mode="normal" in2="shape" result="effect1_innerShadow_31_7908"/>
</filter>
<filter id="filter1_d_31_7908" x="7.32812" y="6.90979" width="19.3198" height="20.8005" filterUnits="userSpaceOnUse" color-interpolation-filters="sRGB">
<feFlood flood-opacity="0" result="BackgroundImageFix"/>
<feColorMatrix in="SourceAlpha" type="matrix" values="0 0 0 0 0 0 0 0 0 0 0 0 0 0 0 0 0 0 127 0" result="hardAlpha"/>
<feOffset dy="2"/>
<feGaussianBlur stdDeviation="2"/>
<feComposite in2="hardAlpha" operator="out"/>
<feColorMatrix type="matrix" values="0 0 0 0 0 0 0 0 0 0 0 0 0 0 0 0 0 0 0.25 0"/>
<feBlend mode="normal" in2="BackgroundImageFix" result="effect1_dropShadow_31_7908"/>
<feBlend mode="normal" in="SourceGraphic" in2="effect1_dropShadow_31_7908" result="shape"/>
</filter>
<filter id="filter2_d_31_7908" x="2.75" y="10.3098" width="25.5381" height="24.4873" filterUnits="userSpaceOnUse" color-interpolation-filters="sRGB">
<feFlood flood-opacity="0" result="BackgroundImageFix"/>
<feColorMatrix in="SourceAlpha" type="matrix" values="0 0 0 0 0 0 0 0 0 0 0 0 0 0 0 0 0 0 127 0" result="hardAlpha"/>
<feOffset dy="2"/>
<feGaussianBlur stdDeviation="2"/>
<feComposite in2="hardAlpha" operator="out"/>
<feColorMatrix type="matrix" values="0 0 0 0 0 0 0 0 0 0 0 0 0 0 0 0 0 0 0.25 0"/>
<feBlend mode="normal" in2="BackgroundImageFix" result="effect1_dropShadow_31_7908"/>
<feBlend mode="normal" in="SourceGraphic" in2="effect1_dropShadow_31_7908" result="shape"/>
</filter>
<filter id="filter3_d_31_7908" x="18.2051" y="7.80957" width="21.3452" height="22.6747" filterUnits="userSpaceOnUse" color-interpolation-filters="sRGB">
<feFlood flood-opacity="0" result="BackgroundImageFix"/>
<feColorMatrix in="SourceAlpha" type="matrix" values="0 0 0 0 0 0 0 0 0 0 0 0 0 0 0 0 0 0 127 0" result="hardAlpha"/>
<feOffset dy="2"/>
<feGaussianBlur stdDeviation="2"/>
<feComposite in2="hardAlpha" operator="out"/>
<feColorMatrix type="matrix" values="0 0 0 0 0 0 0 0 0 0 0 0 0 0 0 0 0 0 0.25 0"/>
<feBlend mode="normal" in2="BackgroundImageFix" result="effect1_dropShadow_31_7908"/>
<feBlend mode="normal" in="SourceGraphic" in2="effect1_dropShadow_31_7908" result="shape"/>
</filter>
<filter id="filter4_d_31_7908" x="9.57764" y="13.1724" width="29.9722" height="28.3777" filterUnits="userSpaceOnUse" color-interpolation-filters="sRGB">
<feFlood flood-opacity="0" result="BackgroundImageFix"/>
<feColorMatrix in="SourceAlpha" type="matrix" values="0 0 0 0 0 0 0 0 0 0 0 0 0 0 0 0 0 0 127 0" result="hardAlpha"/>
<feOffset dy="2"/>
<feGaussianBlur stdDeviation="2"/>
<feComposite in2="hardAlpha" operator="out"/>
<feColorMatrix type="matrix" values="0 0 0 0 0 0 0 0 0 0 0 0 0 0 0 0 0 0 0.25 0"/>
<feBlend mode="normal" in2="BackgroundImageFix" result="effect1_dropShadow_31_7908"/>
<feBlend mode="normal" in="SourceGraphic" in2="effect1_dropShadow_31_7908" result="shape"/>
</filter>
<filter id="filter5_d_31_7908" x="9.57764" y="6.45975" width="26.2241" height="19.2255" filterUnits="userSpaceOnUse" color-interpolation-filters="sRGB">
<feFlood flood-opacity="0" result="BackgroundImageFix"/>
<feColorMatrix in="SourceAlpha" type="matrix" values="0 0 0 0 0 0 0 0 0 0 0 0 0 0 0 0 0 0 127 0" result="hardAlpha"/>
<feOffset dy="2"/>
<feGaussianBlur stdDeviation="2"/>
<feComposite in2="hardAlpha" operator="out"/>
<feColorMatrix type="matrix" values="0 0 0 0 0 0 0 0 0 0 0 0 0 0 0 0 0 0 0.25 0"/>
<feBlend mode="normal" in2="BackgroundImageFix" result="effect1_dropShadow_31_7908"/>
<feBlend mode="normal" in="SourceGraphic" in2="effect1_dropShadow_31_7908" result="shape"/>
</filter>
<filter id="filter6_d_31_7908" x="2.75" y="4.75" width="22.9375" height="15.6754" filterUnits="userSpaceOnUse" color-interpolation-filters="sRGB">
<feFlood flood-opacity="0" result="BackgroundImageFix"/>
<feColorMatrix in="SourceAlpha" type="matrix" values="0 0 0 0 0 0 0 0 0 0 0 0 0 0 0 0 0 0 127 0" result="hardAlpha"/>
<feOffset dy="2"/>
<feGaussianBlur stdDeviation="2"/>
<feComposite in2="hardAlpha" operator="out"/>
<feColorMatrix type="matrix" values="0 0 0 0 0 0 0 0 0 0 0 0 0 0 0 0 0 0 0.25 0"/>
<feBlend mode="normal" in2="BackgroundImageFix" result="effect1_dropShadow_31_7908"/>
<feBlend mode="normal" in="SourceGraphic" in2="effect1_dropShadow_31_7908" result="shape"/>
</filter>
<filter id="filter7_d_31_7908" x="8.1499" y="10.15" width="26" height="26" filterUnits="userSpaceOnUse" color-interpolation-filters="sRGB">
<feFlood flood-opacity="0" result="BackgroundImageFix"/>
<feColorMatrix in="SourceAlpha" type="matrix" values="0 0 0 0 0 0 0 0 0 0 0 0 0 0 0 0 0 0 127 0" result="hardAlpha"/>
<feOffset dy="2"/>
<feGaussianBlur stdDeviation="2"/>
<feComposite in2="hardAlpha" operator="out"/>
<feColorMatrix type="matrix" values="0 0 0 0 0 0 0 0 0 0 0 0 0 0 0 0 0 0 0.25 0"/>
<feBlend mode="normal" in2="BackgroundImageFix" result="effect1_dropShadow_31_7908"/>
<feBlend mode="normal" in="SourceGraphic" in2="effect1_dropShadow_31_7908" result="shape"/>
</filter>
<linearGradient id="paint0_linear_31_7908" x1="21" y1="0" x2="21" y2="42" gradientUnits="userSpaceOnUse">
<stop stop-color="#3BEA62"/>
<stop offset="0.510417" stop-color="#087CFA"/>
<stop offset="1" stop-color="#B74AF7"/>
</linearGradient>
<linearGradient id="paint1_linear_31_7908" x1="7.12648" y1="40.3098" x2="32.6162" y2="8.65768" gradientUnits="userSpaceOnUse">
<stop offset="0.01613" stop-color="#6B57FF"/>
<stop offset="0.42357" stop-color="#B74AF7"/>
<stop offset="0.74587" stop-color="#FF318C"/>
</linearGradient>
<linearGradient id="paint2_linear_31_7908" x1="12.06" y1="23.3562" x2="20.1923" y2="7.73851" gradientUnits="userSpaceOnUse">
<stop stop-color="#AF1DF5"/>
<stop offset="0.2116" stop-color="#BC20E4"/>
<stop offset="0.62822" stop-color="#DD29B8"/>
<stop offset="1" stop-color="#FF318C"/>
</linearGradient>
<linearGradient id="paint3_linear_31_7908" x1="9.72583" y1="28.1336" x2="19.5832" y2="15.113" gradientUnits="userSpaceOnUse">
<stop offset="0.01613" stop-color="#6B57FF"/>
<stop offset="0.42357" stop-color="#B74AF7"/>
<stop offset="0.74587" stop-color="#FF318C"/>
</linearGradient>
<linearGradient id="paint4_linear_31_7908" x1="32.0285" y1="24.6192" x2="26.5663" y2="11.6554" gradientUnits="userSpaceOnUse">
<stop stop-color="#293896"/>
<stop offset="0.07538" stop-color="#3B3AA2"/>
<stop offset="0.2871" stop-color="#6740C0"/>
<stop offset="0.49127" stop-color="#8A44D8"/>
<stop offset="0.68315" stop-color="#A347E9"/>
<stop offset="0.85788" stop-color="#B249F3"/>
<stop offset="1" stop-color="#B74AF7"/>
</linearGradient>
<linearGradient id="paint5_linear_31_7908" x1="27.5519" y1="32.2697" x2="18.471" y2="18.9593" gradientUnits="userSpaceOnUse">
<stop offset="0.01613" stop-color="#6B57FF"/>
<stop offset="0.78291" stop-color="#B74AF7"/>
</linearGradient>
<linearGradient id="paint6_linear_31_7908" x1="24.7995" y1="25.1251" x2="21.791" y2="9.2144" gradientUnits="userSpaceOnUse">
<stop offset="0.01613" stop-color="#6B57FF"/>
<stop offset="0.63699" stop-color="#B74AF7"/>
</linearGradient>
<linearGradient id="paint7_linear_31_7908" x1="10.0267" y1="18.2173" x2="14.7131" y2="9.71231" gradientUnits="userSpaceOnUse">
<stop stop-color="#AF1DF5"/>
<stop offset="0.2116" stop-color="#BC20E4"/>
<stop offset="0.62822" stop-color="#DD29B8"/>
<stop offset="1" stop-color="#FF318C"/>
</linearGradient>
<clipPath id="clip0_31_7908">
<rect width="42" height="42" fill="white"/>
</clipPath>
</defs>
</svg>
