<svg width="42" height="42" viewBox="0 0 42 42" fill="none" xmlns="http://www.w3.org/2000/svg">
<g clip-path="url(#clip0_31_7940)">
<path d="M31.5 0H10.5C4.70101 0 0 4.70101 0 10.5V31.5C0 37.299 4.70101 42 10.5 42H31.5C37.299 42 42 37.299 42 31.5V10.5C42 4.70101 37.299 0 31.5 0Z" fill="url(#paint0_linear_31_7940)"/>
<path d="M31.5 0H10.5C4.70101 0 0 4.70101 0 10.5V31.5C0 37.299 4.70101 42 10.5 42H31.5C37.299 42 42 37.299 42 31.5V10.5C42 4.70101 37.299 0 31.5 0Z" fill="url(#paint1_linear_31_7940)"/>
<g filter="url(#filter0_i_31_7940)">
<path d="M31.5 2.625H10.5C6.15076 2.625 2.625 6.15076 2.625 10.5V31.5C2.625 35.8492 6.15076 39.375 10.5 39.375H31.5C35.8492 39.375 39.375 35.8492 39.375 31.5V10.5C39.375 6.15076 35.8492 2.625 31.5 2.625Z" fill="black" fill-opacity="0.7"/>
<mask id="mask0_31_7940" style="mask-type:luminance" maskUnits="userSpaceOnUse" x="5" y="5" width="32" height="32">
<path d="M36.75 5.25H5.25V36.75H36.75V5.25Z" fill="white"/>
</mask>
<g mask="url(#mask0_31_7940)">
<g filter="url(#filter1_d_31_7940)">
<path d="M35.0933 28.4256L35.5501 15.9288L27.6103 14.1351L20.8594 18.6534L23.9971 27.933L35.094 28.4256H35.0933Z" fill="url(#paint2_linear_31_7940)"/>
</g>
<g filter="url(#filter2_d_31_7940)">
<path d="M33.3349 21.7338L35.5501 15.9288L27.7384 12.4932L20.8594 18.6537L33.3349 21.7338Z" fill="url(#paint3_linear_31_7940)"/>
</g>
<g filter="url(#filter3_d_31_7940)">
<path d="M25.1745 35.2501L35.0933 28.4256L11.2383 17.8311L6.75 30.6039L25.1745 35.2501Z" fill="url(#paint4_linear_31_7940)"/>
</g>
<g filter="url(#filter4_d_31_7940)">
<path d="M6.75 17.4594L22.6248 29.5572L33.3349 21.7338L21.1653 8.2377L10.5747 6.45001L6.75 17.4594Z" fill="url(#paint5_linear_31_7940)"/>
</g>
<g filter="url(#filter5_d_31_7940)">
<path d="M30.1499 11.85H12.1499V29.85H30.1499V11.85Z" fill="black"/>
</g>
<path d="M14.229 14.0742H17.0046C18.6252 14.0742 19.6053 15.0351 19.6053 16.4229V16.4421C19.6053 18.0141 18.3825 18.8298 16.8588 18.8298H15.7233V20.8677H14.229V14.0742ZM16.9074 17.5002C17.6544 17.5002 18.0915 17.0535 18.0915 16.4712V16.452C18.0915 15.7821 17.6256 15.423 16.8783 15.423H15.7233V17.5002H16.9074Z" fill="white"/>
<path d="M18.7695 19.9455L19.711 18.8976C20.0992 19.3245 20.4775 19.5768 20.9529 19.5768C21.5157 19.5768 21.8649 19.2372 21.8649 18.4512V14.0742H23.3986V18.519C23.3986 19.3245 23.1657 19.926 22.7581 20.334C22.5202 20.551 22.2416 20.7185 21.9384 20.8268C21.6351 20.935 21.3135 20.9819 20.992 20.9646C20.5683 20.9755 20.1478 20.8893 19.7626 20.7127C19.3774 20.5361 19.0377 20.2737 18.7695 19.9455Z" fill="white"/>
<path d="M21.1499 26.475H14.3999V27.6H21.1499V26.475Z" fill="white"/>
</g>
</g>
</g>
<defs>
<filter id="filter0_i_31_7940" x="2.625" y="2.625" width="36.75" height="40.75" filterUnits="userSpaceOnUse" color-interpolation-filters="sRGB">
<feFlood flood-opacity="0" result="BackgroundImageFix"/>
<feBlend mode="normal" in="SourceGraphic" in2="BackgroundImageFix" result="shape"/>
<feColorMatrix in="SourceAlpha" type="matrix" values="0 0 0 0 0 0 0 0 0 0 0 0 0 0 0 0 0 0 127 0" result="hardAlpha"/>
<feOffset dy="4"/>
<feGaussianBlur stdDeviation="2"/>
<feComposite in2="hardAlpha" operator="arithmetic" k2="-1" k3="1"/>
<feColorMatrix type="matrix" values="0 0 0 0 0 0 0 0 0 0 0 0 0 0 0 0 0 0 0.25 0"/>
<feBlend mode="normal" in2="shape" result="effect1_innerShadow_31_7940"/>
</filter>
<filter id="filter1_d_31_7940" x="16.8594" y="12.1351" width="22.6909" height="22.2905" filterUnits="userSpaceOnUse" color-interpolation-filters="sRGB">
<feFlood flood-opacity="0" result="BackgroundImageFix"/>
<feColorMatrix in="SourceAlpha" type="matrix" values="0 0 0 0 0 0 0 0 0 0 0 0 0 0 0 0 0 0 127 0" result="hardAlpha"/>
<feOffset dy="2"/>
<feGaussianBlur stdDeviation="2"/>
<feComposite in2="hardAlpha" operator="out"/>
<feColorMatrix type="matrix" values="0 0 0 0 0 0 0 0 0 0 0 0 0 0 0 0 0 0 0.25 0"/>
<feBlend mode="normal" in2="BackgroundImageFix" result="effect1_dropShadow_31_7940"/>
<feBlend mode="normal" in="SourceGraphic" in2="effect1_dropShadow_31_7940" result="shape"/>
</filter>
<filter id="filter2_d_31_7940" x="16.8594" y="10.4932" width="22.6909" height="17.2406" filterUnits="userSpaceOnUse" color-interpolation-filters="sRGB">
<feFlood flood-opacity="0" result="BackgroundImageFix"/>
<feColorMatrix in="SourceAlpha" type="matrix" values="0 0 0 0 0 0 0 0 0 0 0 0 0 0 0 0 0 0 127 0" result="hardAlpha"/>
<feOffset dy="2"/>
<feGaussianBlur stdDeviation="2"/>
<feComposite in2="hardAlpha" operator="out"/>
<feColorMatrix type="matrix" values="0 0 0 0 0 0 0 0 0 0 0 0 0 0 0 0 0 0 0.25 0"/>
<feBlend mode="normal" in2="BackgroundImageFix" result="effect1_dropShadow_31_7940"/>
<feBlend mode="normal" in="SourceGraphic" in2="effect1_dropShadow_31_7940" result="shape"/>
</filter>
<filter id="filter3_d_31_7940" x="2.75" y="15.8311" width="36.3433" height="25.419" filterUnits="userSpaceOnUse" color-interpolation-filters="sRGB">
<feFlood flood-opacity="0" result="BackgroundImageFix"/>
<feColorMatrix in="SourceAlpha" type="matrix" values="0 0 0 0 0 0 0 0 0 0 0 0 0 0 0 0 0 0 127 0" result="hardAlpha"/>
<feOffset dy="2"/>
<feGaussianBlur stdDeviation="2"/>
<feComposite in2="hardAlpha" operator="out"/>
<feColorMatrix type="matrix" values="0 0 0 0 0 0 0 0 0 0 0 0 0 0 0 0 0 0 0.25 0"/>
<feBlend mode="normal" in2="BackgroundImageFix" result="effect1_dropShadow_31_7940"/>
<feBlend mode="normal" in="SourceGraphic" in2="effect1_dropShadow_31_7940" result="shape"/>
</filter>
<filter id="filter4_d_31_7940" x="2.75" y="4.45001" width="34.585" height="31.1072" filterUnits="userSpaceOnUse" color-interpolation-filters="sRGB">
<feFlood flood-opacity="0" result="BackgroundImageFix"/>
<feColorMatrix in="SourceAlpha" type="matrix" values="0 0 0 0 0 0 0 0 0 0 0 0 0 0 0 0 0 0 127 0" result="hardAlpha"/>
<feOffset dy="2"/>
<feGaussianBlur stdDeviation="2"/>
<feComposite in2="hardAlpha" operator="out"/>
<feColorMatrix type="matrix" values="0 0 0 0 0 0 0 0 0 0 0 0 0 0 0 0 0 0 0.25 0"/>
<feBlend mode="normal" in2="BackgroundImageFix" result="effect1_dropShadow_31_7940"/>
<feBlend mode="normal" in="SourceGraphic" in2="effect1_dropShadow_31_7940" result="shape"/>
</filter>
<filter id="filter5_d_31_7940" x="8.1499" y="9.84999" width="26" height="26" filterUnits="userSpaceOnUse" color-interpolation-filters="sRGB">
<feFlood flood-opacity="0" result="BackgroundImageFix"/>
<feColorMatrix in="SourceAlpha" type="matrix" values="0 0 0 0 0 0 0 0 0 0 0 0 0 0 0 0 0 0 127 0" result="hardAlpha"/>
<feOffset dy="2"/>
<feGaussianBlur stdDeviation="2"/>
<feComposite in2="hardAlpha" operator="out"/>
<feColorMatrix type="matrix" values="0 0 0 0 0 0 0 0 0 0 0 0 0 0 0 0 0 0 0.25 0"/>
<feBlend mode="normal" in2="BackgroundImageFix" result="effect1_dropShadow_31_7940"/>
<feBlend mode="normal" in="SourceGraphic" in2="effect1_dropShadow_31_7940" result="shape"/>
</filter>
<linearGradient id="paint0_linear_31_7940" x1="21" y1="0" x2="21" y2="42" gradientUnits="userSpaceOnUse">
<stop stop-color="#3BEA62"/>
<stop offset="0.510417" stop-color="#087CFA"/>
<stop offset="1" stop-color="#B74AF7"/>
</linearGradient>
<linearGradient id="paint1_linear_31_7940" x1="12.8826" y1="36.5236" x2="30.2094" y2="9.92444" gradientUnits="userSpaceOnUse">
<stop stop-color="#6B57FF"/>
<stop offset="0.461429" stop-color="#FF318C"/>
<stop offset="1" stop-color="#FDB60D"/>
</linearGradient>
<linearGradient id="paint2_linear_31_7940" x1="31.3456" y1="26.4726" x2="27.1729" y2="14.4186" gradientUnits="userSpaceOnUse">
<stop offset="0.001" stop-color="#FF318C"/>
<stop offset="1" stop-color="#FC801D"/>
</linearGradient>
<linearGradient id="paint3_linear_31_7940" x1="32.431" y1="13.4196" x2="28.7695" y2="18.0696" gradientUnits="userSpaceOnUse">
<stop stop-color="#FF318C"/>
<stop offset="0.781" stop-color="#FC801D"/>
</linearGradient>
<linearGradient id="paint4_linear_31_7940" x1="30.9153" y1="32.127" x2="9.9021" y2="24.5448" gradientUnits="userSpaceOnUse">
<stop offset="0.017" stop-color="#FF318C"/>
<stop offset="0.811" stop-color="#6B57FF"/>
</linearGradient>
<linearGradient id="paint5_linear_31_7940" x1="14.9043" y1="26.5443" x2="23.841" y2="10.7604" gradientUnits="userSpaceOnUse">
<stop offset="0.33" stop-color="#FF318C"/>
<stop offset="0.942" stop-color="#FDB60D"/>
</linearGradient>
<clipPath id="clip0_31_7940">
<rect width="42" height="42" fill="white"/>
</clipPath>
</defs>
</svg>
