<svg width="42" height="42" viewBox="0 0 42 42" fill="none" xmlns="http://www.w3.org/2000/svg">
<g clip-path="url(#clip0_31_7962)">
<path d="M31.5 0H10.5C4.70101 0 0 4.70101 0 10.5V31.5C0 37.299 4.70101 42 10.5 42H31.5C37.299 42 42 37.299 42 31.5V10.5C42 4.70101 37.299 0 31.5 0Z" fill="url(#paint0_linear_31_7962)"/>
<g filter="url(#filter0_i_31_7962)">
<path d="M31.5 2.625H10.5C6.15076 2.625 2.625 6.15076 2.625 10.5V31.5C2.625 35.8492 6.15076 39.375 10.5 39.375H31.5C35.8492 39.375 39.375 35.8492 39.375 31.5V10.5C39.375 6.15076 35.8492 2.625 31.5 2.625Z" fill="black" fill-opacity="0.7"/>
<mask id="mask0_31_7962" style="mask-type:luminance" maskUnits="userSpaceOnUse" x="5" y="5" width="32" height="32">
<path d="M36.75 5.25H5.25V36.75H36.75V5.25Z" fill="white"/>
</mask>
<g mask="url(#mask0_31_7962)">
<g filter="url(#filter1_d_31_7962)">
<g filter="url(#filter2_d_31_7962)">
<path d="M26.7933 11.145L35.2085 18.144L32.1783 24.309L27.1053 22.902H22.7163L26.7933 11.145Z" fill="#07C3F2"/>
</g>
<g filter="url(#filter3_d_31_7962)">
<path d="M18.3151 15.69L16.6861 24.309L16.5301 27.237L12.4231 29.016L6.6001 29.643L8.36708 11.022L18.9181 6.60001L25.4191 10.863L18.3151 15.69Z" fill="#21D789"/>
</g>
<g filter="url(#filter4_d_31_7962)">
<path d="M18.3151 15.69L19.1071 32.298L16.4761 35.4001L6.6001 29.643L14.7091 17.559L18.3151 15.69Z" fill="#7AE46F"/>
</g>
<g filter="url(#filter5_d_31_7962)">
<path d="M29.1811 14.478H19.2031L28.0201 6.60001L29.1811 14.478Z" fill="#9AF156"/>
</g>
<g filter="url(#filter6_d_31_7962)">
<path d="M35.4 32.364L26.6159 35.3459L14.9189 32.052L18.3149 15.69L19.6709 14.478L26.793 13.809L26.1479 20.961L31.812 18.765L35.4 32.364Z" fill="#FCF84A"/>
</g>
<g filter="url(#filter7_d_31_7962)">
<path d="M12 12H30V30H12V12Z" fill="black"/>
</g>
<path d="M14.2441 26.598H20.9941V27.723H14.2441V26.598Z" fill="white"/>
<path d="M14.25 14.25H17.01C18.618 14.25 19.593 15.204 19.593 16.581V16.599C19.593 18.159 18.378 18.969 16.866 18.969H15.75V20.991H14.25V14.25ZM16.908 17.649C17.649 17.649 18.084 17.208 18.084 16.629V16.611C18.084 15.945 17.622 15.588 16.884 15.588H15.75V17.649H16.908Z" fill="white"/>
<path d="M20.3971 17.643V17.625C20.3884 17.1625 20.4735 16.7031 20.6474 16.2745C20.8212 15.8458 21.0801 15.4569 21.4084 15.1311C21.7367 14.8053 22.1277 14.5494 22.5577 14.3789C22.9876 14.2084 23.4477 14.1268 23.9101 14.139C24.4013 14.1142 24.8923 14.1938 25.3505 14.3728C25.8087 14.5517 26.2237 14.8258 26.5681 15.177L25.6261 16.266C25.1727 15.7965 24.5535 15.523 23.9011 15.504C22.7641 15.504 21.9451 16.449 21.9451 17.604V17.625C21.9451 18.78 22.7461 19.743 23.9011 19.743C24.6721 19.743 25.1431 19.443 25.6741 18.954L26.6161 19.905C26.2768 20.3016 25.8517 20.6158 25.373 20.8237C24.8943 21.0316 24.3745 21.1278 23.8531 21.105C23.3968 21.1119 22.9438 21.027 22.521 20.8554C22.0982 20.6838 21.7142 20.4289 21.3918 20.106C21.0694 19.783 20.8153 19.3986 20.6444 18.9755C20.4735 18.5524 20.3894 18.0992 20.3971 17.643Z" fill="white"/>
</g>
</g>
</g>
</g>
<defs>
<filter id="filter0_i_31_7962" x="2.625" y="2.625" width="36.75" height="40.75" filterUnits="userSpaceOnUse" color-interpolation-filters="sRGB">
<feFlood flood-opacity="0" result="BackgroundImageFix"/>
<feBlend mode="normal" in="SourceGraphic" in2="BackgroundImageFix" result="shape"/>
<feColorMatrix in="SourceAlpha" type="matrix" values="0 0 0 0 0 0 0 0 0 0 0 0 0 0 0 0 0 0 127 0" result="hardAlpha"/>
<feOffset dy="4"/>
<feGaussianBlur stdDeviation="2"/>
<feComposite in2="hardAlpha" operator="arithmetic" k2="-1" k3="1"/>
<feColorMatrix type="matrix" values="0 0 0 0 0 0 0 0 0 0 0 0 0 0 0 0 0 0 0.25 0"/>
<feBlend mode="normal" in2="shape" result="effect1_innerShadow_31_7962"/>
</filter>
<filter id="filter1_d_31_7962" x="2.6001" y="4.60001" width="36.7998" height="36.8001" filterUnits="userSpaceOnUse" color-interpolation-filters="sRGB">
<feFlood flood-opacity="0" result="BackgroundImageFix"/>
<feColorMatrix in="SourceAlpha" type="matrix" values="0 0 0 0 0 0 0 0 0 0 0 0 0 0 0 0 0 0 127 0" result="hardAlpha"/>
<feOffset dy="2"/>
<feGaussianBlur stdDeviation="2"/>
<feComposite in2="hardAlpha" operator="out"/>
<feColorMatrix type="matrix" values="0 0 0 0 0 0 0 0 0 0 0 0 0 0 0 0 0 0 0.25 0"/>
<feBlend mode="normal" in2="BackgroundImageFix" result="effect1_dropShadow_31_7962"/>
<feBlend mode="normal" in="SourceGraphic" in2="effect1_dropShadow_31_7962" result="shape"/>
</filter>
<filter id="filter2_d_31_7962" x="18.7163" y="9.14499" width="20.4922" height="21.164" filterUnits="userSpaceOnUse" color-interpolation-filters="sRGB">
<feFlood flood-opacity="0" result="BackgroundImageFix"/>
<feColorMatrix in="SourceAlpha" type="matrix" values="0 0 0 0 0 0 0 0 0 0 0 0 0 0 0 0 0 0 127 0" result="hardAlpha"/>
<feOffset dy="2"/>
<feGaussianBlur stdDeviation="2"/>
<feComposite in2="hardAlpha" operator="out"/>
<feColorMatrix type="matrix" values="0 0 0 0 0 0 0 0 0 0 0 0 0 0 0 0 0 0 0.25 0"/>
<feBlend mode="normal" in2="BackgroundImageFix" result="effect1_dropShadow_31_7962"/>
<feBlend mode="normal" in="SourceGraphic" in2="effect1_dropShadow_31_7962" result="shape"/>
</filter>
<filter id="filter3_d_31_7962" x="2.6001" y="4.60001" width="26.8188" height="31.043" filterUnits="userSpaceOnUse" color-interpolation-filters="sRGB">
<feFlood flood-opacity="0" result="BackgroundImageFix"/>
<feColorMatrix in="SourceAlpha" type="matrix" values="0 0 0 0 0 0 0 0 0 0 0 0 0 0 0 0 0 0 127 0" result="hardAlpha"/>
<feOffset dy="2"/>
<feGaussianBlur stdDeviation="2"/>
<feComposite in2="hardAlpha" operator="out"/>
<feColorMatrix type="matrix" values="0 0 0 0 0 0 0 0 0 0 0 0 0 0 0 0 0 0 0.25 0"/>
<feBlend mode="normal" in2="BackgroundImageFix" result="effect1_dropShadow_31_7962"/>
<feBlend mode="normal" in="SourceGraphic" in2="effect1_dropShadow_31_7962" result="shape"/>
</filter>
<filter id="filter4_d_31_7962" x="2.6001" y="13.69" width="20.5068" height="27.7101" filterUnits="userSpaceOnUse" color-interpolation-filters="sRGB">
<feFlood flood-opacity="0" result="BackgroundImageFix"/>
<feColorMatrix in="SourceAlpha" type="matrix" values="0 0 0 0 0 0 0 0 0 0 0 0 0 0 0 0 0 0 127 0" result="hardAlpha"/>
<feOffset dy="2"/>
<feGaussianBlur stdDeviation="2"/>
<feComposite in2="hardAlpha" operator="out"/>
<feColorMatrix type="matrix" values="0 0 0 0 0 0 0 0 0 0 0 0 0 0 0 0 0 0 0.25 0"/>
<feBlend mode="normal" in2="BackgroundImageFix" result="effect1_dropShadow_31_7962"/>
<feBlend mode="normal" in="SourceGraphic" in2="effect1_dropShadow_31_7962" result="shape"/>
</filter>
<filter id="filter5_d_31_7962" x="15.2031" y="4.60001" width="17.978" height="15.878" filterUnits="userSpaceOnUse" color-interpolation-filters="sRGB">
<feFlood flood-opacity="0" result="BackgroundImageFix"/>
<feColorMatrix in="SourceAlpha" type="matrix" values="0 0 0 0 0 0 0 0 0 0 0 0 0 0 0 0 0 0 127 0" result="hardAlpha"/>
<feOffset dy="2"/>
<feGaussianBlur stdDeviation="2"/>
<feComposite in2="hardAlpha" operator="out"/>
<feColorMatrix type="matrix" values="0 0 0 0 0 0 0 0 0 0 0 0 0 0 0 0 0 0 0.25 0"/>
<feBlend mode="normal" in2="BackgroundImageFix" result="effect1_dropShadow_31_7962"/>
<feBlend mode="normal" in="SourceGraphic" in2="effect1_dropShadow_31_7962" result="shape"/>
</filter>
<filter id="filter6_d_31_7962" x="10.9189" y="11.809" width="28.481" height="29.5369" filterUnits="userSpaceOnUse" color-interpolation-filters="sRGB">
<feFlood flood-opacity="0" result="BackgroundImageFix"/>
<feColorMatrix in="SourceAlpha" type="matrix" values="0 0 0 0 0 0 0 0 0 0 0 0 0 0 0 0 0 0 127 0" result="hardAlpha"/>
<feOffset dy="2"/>
<feGaussianBlur stdDeviation="2"/>
<feComposite in2="hardAlpha" operator="out"/>
<feColorMatrix type="matrix" values="0 0 0 0 0 0 0 0 0 0 0 0 0 0 0 0 0 0 0.25 0"/>
<feBlend mode="normal" in2="BackgroundImageFix" result="effect1_dropShadow_31_7962"/>
<feBlend mode="normal" in="SourceGraphic" in2="effect1_dropShadow_31_7962" result="shape"/>
</filter>
<filter id="filter7_d_31_7962" x="8" y="9.99998" width="26" height="26" filterUnits="userSpaceOnUse" color-interpolation-filters="sRGB">
<feFlood flood-opacity="0" result="BackgroundImageFix"/>
<feColorMatrix in="SourceAlpha" type="matrix" values="0 0 0 0 0 0 0 0 0 0 0 0 0 0 0 0 0 0 127 0" result="hardAlpha"/>
<feOffset dy="2"/>
<feGaussianBlur stdDeviation="2"/>
<feComposite in2="hardAlpha" operator="out"/>
<feColorMatrix type="matrix" values="0 0 0 0 0 0 0 0 0 0 0 0 0 0 0 0 0 0 0.25 0"/>
<feBlend mode="normal" in2="BackgroundImageFix" result="effect1_dropShadow_31_7962"/>
<feBlend mode="normal" in="SourceGraphic" in2="effect1_dropShadow_31_7962" result="shape"/>
</filter>
<linearGradient id="paint0_linear_31_7962" x1="21" y1="0" x2="21" y2="42" gradientUnits="userSpaceOnUse">
<stop stop-color="#FCF84A"/>
<stop offset="0.244792" stop-color="#9AF156"/>
<stop offset="0.510417" stop-color="#7AE36F"/>
<stop offset="0.744792" stop-color="#21D789"/>
<stop offset="1" stop-color="#07C3F2"/>
</linearGradient>
<clipPath id="clip0_31_7962">
<rect width="42" height="42" fill="white"/>
</clipPath>
</defs>
</svg>
