<svg width="42" height="42" viewBox="0 0 42 42" fill="none" xmlns="http://www.w3.org/2000/svg">
<g clip-path="url(#clip0_31_8005)">
<path d="M31.5 0H10.5C4.70101 0 0 4.70101 0 10.5V31.5C0 37.299 4.70101 42 10.5 42H31.5C37.299 42 42 37.299 42 31.5V10.5C42 4.70101 37.299 0 31.5 0Z" fill="url(#paint0_linear_31_8005)"/>
<path d="M31.5 0H10.5C4.70101 0 0 4.70101 0 10.5V31.5C0 37.299 4.70101 42 10.5 42H31.5C37.299 42 42 37.299 42 31.5V10.5C42 4.70101 37.299 0 31.5 0Z" fill="url(#paint1_linear_31_8005)"/>
<g filter="url(#filter0_i_31_8005)">
<path d="M31.5 2.625H10.5C6.15076 2.625 2.625 6.15076 2.625 10.5V31.5C2.625 35.8492 6.15076 39.375 10.5 39.375H31.5C35.8492 39.375 39.375 35.8492 39.375 31.5V10.5C39.375 6.15076 35.8492 2.625 31.5 2.625Z" fill="black" fill-opacity="0.7"/>
<mask id="mask0_31_8005" style="mask-type:luminance" maskUnits="userSpaceOnUse" x="5" y="5" width="32" height="32">
<path d="M36.5859 5.08594H5.08594V36.5859H36.5859V5.08594Z" fill="white"/>
</mask>
<g mask="url(#mask0_31_8005)">
<g filter="url(#filter1_d_31_8005)">
<path d="M27.4988 12.8619L17.2898 25.7619L14.9858 35.194H30.4838L35.2359 15.8829L27.4988 12.8619Z" fill="url(#paint2_linear_31_8005)"/>
</g>
<g filter="url(#filter2_d_31_8005)">
<path d="M26.59 6.39394H11.215L6.43604 25.7619H29.314L26.59 6.39394Z" fill="url(#paint3_linear_31_8005)"/>
</g>
<g filter="url(#filter3_d_31_8005)">
<path d="M27.3908 11.8719L26.5898 6.39394L24.8618 11.8719H27.3908Z" fill="url(#paint4_linear_31_8005)"/>
</g>
<g filter="url(#filter4_d_31_8005)">
<path d="M11.8359 11.8359H29.836V29.8359H11.8359V11.8359Z" fill="black"/>
</g>
<g filter="url(#filter5_d_31_8005)">
<path d="M14.0801 26.434H20.8301V27.559H14.0801V26.434Z" fill="white"/>
<path d="M21.4479 19.39H20.7129V18.154H21.6609L21.9009 16.72H21.0519V15.481H22.1139L22.3569 14.068H23.6349L23.3859 15.481H24.7959L25.0389 14.0709H26.3139L26.0739 15.481H26.8089V16.72H25.8609L25.6179 18.154H26.4699V19.39H25.4049L25.1529 20.842H23.8779L24.1269 19.39H22.7259L22.4859 20.842H21.1959L21.4479 19.39ZM24.3399 18.154L24.5859 16.72H23.1789L22.9389 18.154H24.3399Z" fill="white"/>
<path d="M14.0859 14.068H17.1879C17.5462 14.0445 17.9055 14.0932 18.2446 14.2112C18.5837 14.3292 18.8956 14.5141 19.1619 14.755C19.3582 14.9604 19.5106 15.2035 19.6101 15.4696C19.7096 15.7357 19.7542 16.0192 19.7409 16.3029V16.321C19.7643 16.8008 19.6224 17.2741 19.339 17.6619C19.0672 18.0099 18.702 18.2732 18.2859 18.421L19.9389 20.8389H18.199L16.798 18.7599H15.5859V20.8389H14.0859V14.068ZM17.086 17.3679C17.3952 17.3834 17.699 17.2829 17.9379 17.086C18.0355 16.9987 18.113 16.8913 18.1648 16.7711C18.2166 16.6509 18.2416 16.5208 18.2379 16.3899V16.372C18.2491 16.2358 18.2277 16.099 18.1756 15.9728C18.1234 15.8465 18.0419 15.7345 17.9379 15.6459C17.6865 15.4703 17.3831 15.3847 17.0769 15.4029H15.5859V17.3559L17.086 17.3679Z" fill="white"/>
</g>
</g>
</g>
</g>
<defs>
<filter id="filter0_i_31_8005" x="2.625" y="2.625" width="36.75" height="40.75" filterUnits="userSpaceOnUse" color-interpolation-filters="sRGB">
<feFlood flood-opacity="0" result="BackgroundImageFix"/>
<feBlend mode="normal" in="SourceGraphic" in2="BackgroundImageFix" result="shape"/>
<feColorMatrix in="SourceAlpha" type="matrix" values="0 0 0 0 0 0 0 0 0 0 0 0 0 0 0 0 0 0 127 0" result="hardAlpha"/>
<feOffset dy="4"/>
<feGaussianBlur stdDeviation="2"/>
<feComposite in2="hardAlpha" operator="arithmetic" k2="-1" k3="1"/>
<feColorMatrix type="matrix" values="0 0 0 0 0 0 0 0 0 0 0 0 0 0 0 0 0 0 0.25 0"/>
<feBlend mode="normal" in2="shape" result="effect1_innerShadow_31_8005"/>
</filter>
<filter id="filter1_d_31_8005" x="11.3287" y="11.0333" width="27.5643" height="29.6464" filterUnits="userSpaceOnUse" color-interpolation-filters="sRGB">
<feFlood flood-opacity="0" result="BackgroundImageFix"/>
<feColorMatrix in="SourceAlpha" type="matrix" values="0 0 0 0 0 0 0 0 0 0 0 0 0 0 0 0 0 0 127 0" result="hardAlpha"/>
<feOffset dy="1.82857"/>
<feGaussianBlur stdDeviation="1.82857"/>
<feComposite in2="hardAlpha" operator="out"/>
<feColorMatrix type="matrix" values="0 0 0 0 0 0 0 0 0 0 0 0 0 0 0 0 0 0 0.25 0"/>
<feBlend mode="normal" in2="BackgroundImageFix" result="effect1_dropShadow_31_8005"/>
<feBlend mode="normal" in="SourceGraphic" in2="effect1_dropShadow_31_8005" result="shape"/>
</filter>
<filter id="filter2_d_31_8005" x="2.7789" y="4.56537" width="30.1922" height="26.6823" filterUnits="userSpaceOnUse" color-interpolation-filters="sRGB">
<feFlood flood-opacity="0" result="BackgroundImageFix"/>
<feColorMatrix in="SourceAlpha" type="matrix" values="0 0 0 0 0 0 0 0 0 0 0 0 0 0 0 0 0 0 127 0" result="hardAlpha"/>
<feOffset dy="1.82857"/>
<feGaussianBlur stdDeviation="1.82857"/>
<feComposite in2="hardAlpha" operator="out"/>
<feColorMatrix type="matrix" values="0 0 0 0 0 0 0 0 0 0 0 0 0 0 0 0 0 0 0.25 0"/>
<feBlend mode="normal" in2="BackgroundImageFix" result="effect1_dropShadow_31_8005"/>
<feBlend mode="normal" in="SourceGraphic" in2="effect1_dropShadow_31_8005" result="shape"/>
</filter>
<filter id="filter3_d_31_8005" x="21.2047" y="4.56537" width="9.84309" height="12.7923" filterUnits="userSpaceOnUse" color-interpolation-filters="sRGB">
<feFlood flood-opacity="0" result="BackgroundImageFix"/>
<feColorMatrix in="SourceAlpha" type="matrix" values="0 0 0 0 0 0 0 0 0 0 0 0 0 0 0 0 0 0 127 0" result="hardAlpha"/>
<feOffset dy="1.82857"/>
<feGaussianBlur stdDeviation="1.82857"/>
<feComposite in2="hardAlpha" operator="out"/>
<feColorMatrix type="matrix" values="0 0 0 0 0 0 0 0 0 0 0 0 0 0 0 0 0 0 0.25 0"/>
<feBlend mode="normal" in2="BackgroundImageFix" result="effect1_dropShadow_31_8005"/>
<feBlend mode="normal" in="SourceGraphic" in2="effect1_dropShadow_31_8005" result="shape"/>
</filter>
<filter id="filter4_d_31_8005" x="8.1788" y="10.0074" width="25.3143" height="25.3143" filterUnits="userSpaceOnUse" color-interpolation-filters="sRGB">
<feFlood flood-opacity="0" result="BackgroundImageFix"/>
<feColorMatrix in="SourceAlpha" type="matrix" values="0 0 0 0 0 0 0 0 0 0 0 0 0 0 0 0 0 0 127 0" result="hardAlpha"/>
<feOffset dy="1.82857"/>
<feGaussianBlur stdDeviation="1.82857"/>
<feComposite in2="hardAlpha" operator="out"/>
<feColorMatrix type="matrix" values="0 0 0 0 0 0 0 0 0 0 0 0 0 0 0 0 0 0 0.25 0"/>
<feBlend mode="normal" in2="BackgroundImageFix" result="effect1_dropShadow_31_8005"/>
<feBlend mode="normal" in="SourceGraphic" in2="effect1_dropShadow_31_8005" result="shape"/>
</filter>
<filter id="filter5_d_31_8005" x="10.4229" y="12.2337" width="20.0433" height="20.811" filterUnits="userSpaceOnUse" color-interpolation-filters="sRGB">
<feFlood flood-opacity="0" result="BackgroundImageFix"/>
<feColorMatrix in="SourceAlpha" type="matrix" values="0 0 0 0 0 0 0 0 0 0 0 0 0 0 0 0 0 0 127 0" result="hardAlpha"/>
<feOffset dy="1.82857"/>
<feGaussianBlur stdDeviation="1.82857"/>
<feComposite in2="hardAlpha" operator="out"/>
<feColorMatrix type="matrix" values="0 0 0 0 0 0 0 0 0 0 0 0 0 0 0 0 0 0 0.25 0"/>
<feBlend mode="normal" in2="BackgroundImageFix" result="effect1_dropShadow_31_8005"/>
<feBlend mode="normal" in="SourceGraphic" in2="effect1_dropShadow_31_8005" result="shape"/>
</filter>
<linearGradient id="paint0_linear_31_8005" x1="21" y1="0" x2="21" y2="42" gradientUnits="userSpaceOnUse">
<stop stop-color="#3BEA62"/>
<stop offset="0.510417" stop-color="#087CFA"/>
<stop offset="1" stop-color="#B74AF7"/>
</linearGradient>
<linearGradient id="paint1_linear_31_8005" x1="11.6604" y1="42.1129" x2="34.1194" y2="6.01978" gradientUnits="userSpaceOnUse">
<stop offset="0.02" stop-color="#FF45ED"/>
<stop offset="0.4" stop-color="#DD1265"/>
<stop offset="1" stop-color="#FDB60D"/>
</linearGradient>
<linearGradient id="paint2_linear_31_8005" x1="20.6078" y1="35.2541" x2="33.028" y2="17.1549" gradientUnits="userSpaceOnUse">
<stop offset="0.02" stop-color="#FF45ED"/>
<stop offset="0.4" stop-color="#DD1265"/>
<stop offset="1" stop-color="#FDB60D"/>
</linearGradient>
<linearGradient id="paint3_linear_31_8005" x1="7.18902" y1="28.3749" x2="26.524" y2="10.1889" gradientUnits="userSpaceOnUse">
<stop offset="0.02" stop-color="#FF45ED"/>
<stop offset="0.66" stop-color="#DD1265"/>
</linearGradient>
<linearGradient id="paint4_linear_31_8005" x1="26.0198" y1="5.71295" x2="26.2178" y2="17.1399" gradientUnits="userSpaceOnUse">
<stop stop-color="#DD1265"/>
<stop offset="0.06" stop-color="#DF1961"/>
<stop offset="0.7" stop-color="#F46330"/>
<stop offset="1" stop-color="#FC801D"/>
</linearGradient>
<clipPath id="clip0_31_8005">
<rect width="42" height="42" fill="white"/>
</clipPath>
</defs>
</svg>
