<svg width="42" height="42" viewBox="0 0 42 42" fill="none" xmlns="http://www.w3.org/2000/svg">
<g clip-path="url(#clip0_31_8047)">
<path d="M31.5 0H10.5C4.70101 0 0 4.70101 0 10.5V31.5C0 37.299 4.70101 42 10.5 42H31.5C37.299 42 42 37.299 42 31.5V10.5C42 4.70101 37.299 0 31.5 0Z" fill="url(#paint0_linear_31_8047)"/>
<g filter="url(#filter0_i_31_8047)">
<path d="M31.5 2.625H10.5C6.15076 2.625 2.625 6.15076 2.625 10.5V31.5C2.625 35.8492 6.15076 39.375 10.5 39.375H31.5C35.8492 39.375 39.375 35.8492 39.375 31.5V10.5C39.375 6.15076 35.8492 2.625 31.5 2.625Z" fill="black" fill-opacity="0.7"/>
<g filter="url(#filter1_d_31_8047)">
<path d="M17.6316 9.54647L17.4675 9.30024C16.7372 8.20483 15.5078 7.54688 14.1913 7.54688H11.4844C9.30976 7.54688 7.54688 9.30976 7.54688 11.4844V30.5156C7.54688 32.6902 9.30976 34.4531 11.4844 34.4531H30.5156C32.6902 34.4531 34.4531 32.6902 34.4531 30.5156V16.4062C34.4531 14.2316 32.6902 12.4688 30.5156 12.4688H23.0919C20.8978 12.4688 18.8487 11.3722 17.6316 9.54647ZM17.6316 9.54647L18.7237 8.81843" stroke="url(#paint1_linear_31_8047)" stroke-width="3"/>
</g>
<g filter="url(#filter2_d_31_8047)">
<path fill-rule="evenodd" clip-rule="evenodd" d="M17.726 23.0987C18.0156 24.7645 19.5314 26.0384 21.3519 26.0384H27.1676C28.1821 26.0384 29.1066 25.7388 29.7709 25.0166C30.4275 24.3022 30.7987 23.3173 30.8437 22.168V22.1412C30.8437 21.0344 30.3878 19.9153 29.5607 19.168C28.7617 18.4458 27.6982 18.0478 26.5665 18.0478H23.2576V17.5402C23.2576 17.3384 23.1321 17.178 22.964 17.1053C22.8263 17.0455 22.6605 17.0444 22.5111 17.1271L20.3491 18.3233C20.017 18.5067 20.017 18.9651 20.3491 19.1484L22.5111 20.3441C22.6605 20.4268 22.8263 20.4257 22.964 20.3659C23.1321 20.2932 23.2576 20.1333 23.2576 19.9315V19.5151H26.5665C27.3054 19.5151 27.9953 19.8689 28.509 20.3329C29.0232 20.7974 29.3074 21.4346 29.3115 22.1278C29.2467 23.6722 28.4062 24.5711 27.1676 24.5711H21.3519C20.3147 24.5711 19.4462 23.8617 19.2501 22.9226C19.201 22.6884 18.9891 22.5179 18.7399 22.5179H18.238C17.9163 22.5179 17.673 22.7952 17.726 23.0987Z" fill="#8B00E7"/>
<path d="M15.4335 28.546C14.3017 28.546 13.2382 28.1485 12.4392 27.4263C11.6121 26.6784 11.1562 25.5599 11.1562 24.4531V24.4257C11.2012 23.277 11.5724 22.2916 12.2291 21.5772C12.8933 20.8555 13.8178 20.5554 14.8323 20.5554H20.6481C22.4685 20.5554 23.9844 21.8293 24.2739 23.495C24.327 23.7991 24.0836 24.0764 23.762 24.0764H23.26C23.0108 24.0764 22.7989 23.9059 22.7499 23.6717C22.5538 22.7326 21.6852 22.0227 20.6481 22.0227H14.8323C13.5937 22.0227 12.7532 22.9221 12.6884 24.466C12.6925 25.1597 12.9768 25.7964 13.491 26.2609C14.0046 26.7254 14.6945 27.0786 15.4335 27.0786H18.7423V26.6628C18.7423 26.3118 19.1211 26.087 19.4445 26.2279C19.4597 26.2346 19.4743 26.2419 19.4889 26.2497L21.6508 27.4454C21.9829 27.6287 21.9829 28.0876 21.6508 28.271L19.5968 29.4068C19.5968 29.4068 19.4597 29.4817 19.4445 29.4884C19.1211 29.6299 18.7423 29.4046 18.7423 29.0541V28.546H15.4335Z" fill="#D404FF"/>
</g>
</g>
</g>
<defs>
<filter id="filter0_i_31_8047" x="2.625" y="2.625" width="36.75" height="40.75" filterUnits="userSpaceOnUse" color-interpolation-filters="sRGB">
<feFlood flood-opacity="0" result="BackgroundImageFix"/>
<feBlend mode="normal" in="SourceGraphic" in2="BackgroundImageFix" result="shape"/>
<feColorMatrix in="SourceAlpha" type="matrix" values="0 0 0 0 0 0 0 0 0 0 0 0 0 0 0 0 0 0 127 0" result="hardAlpha"/>
<feOffset dy="4"/>
<feGaussianBlur stdDeviation="2"/>
<feComposite in2="hardAlpha" operator="arithmetic" k2="-1" k3="1"/>
<feColorMatrix type="matrix" values="0 0 0 0 0 0 0 0 0 0 0 0 0 0 0 0 0 0 0.25 0"/>
<feBlend mode="normal" in2="shape" result="effect1_innerShadow_31_8047"/>
</filter>
<filter id="filter1_d_31_8047" x="2.04688" y="4.04688" width="37.9062" height="37.9062" filterUnits="userSpaceOnUse" color-interpolation-filters="sRGB">
<feFlood flood-opacity="0" result="BackgroundImageFix"/>
<feColorMatrix in="SourceAlpha" type="matrix" values="0 0 0 0 0 0 0 0 0 0 0 0 0 0 0 0 0 0 127 0" result="hardAlpha"/>
<feOffset dy="2"/>
<feGaussianBlur stdDeviation="2"/>
<feComposite in2="hardAlpha" operator="out"/>
<feColorMatrix type="matrix" values="0 0 0 0 0 0 0 0 0 0 0 0 0 0 0 0 0 0 0.25 0"/>
<feBlend mode="normal" in2="BackgroundImageFix" result="effect1_dropShadow_31_8047"/>
<feBlend mode="normal" in="SourceGraphic" in2="effect1_dropShadow_31_8047" result="shape"/>
</filter>
<filter id="filter2_d_31_8047" x="7.15625" y="15.0625" width="27.6875" height="20.4688" filterUnits="userSpaceOnUse" color-interpolation-filters="sRGB">
<feFlood flood-opacity="0" result="BackgroundImageFix"/>
<feColorMatrix in="SourceAlpha" type="matrix" values="0 0 0 0 0 0 0 0 0 0 0 0 0 0 0 0 0 0 127 0" result="hardAlpha"/>
<feOffset dy="2"/>
<feGaussianBlur stdDeviation="2"/>
<feComposite in2="hardAlpha" operator="out"/>
<feColorMatrix type="matrix" values="0 0 0 0 0 0 0 0 0 0 0 0 0 0 0 0 0 0 0.25 0"/>
<feBlend mode="normal" in2="BackgroundImageFix" result="effect1_dropShadow_31_8047"/>
<feBlend mode="normal" in="SourceGraphic" in2="effect1_dropShadow_31_8047" result="shape"/>
</filter>
<linearGradient id="paint0_linear_31_8047" x1="21" y1="0" x2="21" y2="42" gradientUnits="userSpaceOnUse">
<stop stop-color="#CB02C5"/>
<stop offset="0.244792" stop-color="#C101DA"/>
<stop offset="0.510417" stop-color="#B600F0"/>
<stop offset="0.744792" stop-color="#8900D9"/>
<stop offset="1" stop-color="#5800BF"/>
</linearGradient>
<linearGradient id="paint1_linear_31_8047" x1="21" y1="6.23437" x2="21" y2="35.7656" gradientUnits="userSpaceOnUse">
<stop stop-color="#C301D5"/>
<stop offset="0.505208" stop-color="#B600EF"/>
<stop offset="1" stop-color="#8100D4"/>
</linearGradient>
<clipPath id="clip0_31_8047">
<rect width="42" height="42" fill="white"/>
</clipPath>
</defs>
</svg>
