<svg width="42" height="42" viewBox="0 0 42 42" fill="none" xmlns="http://www.w3.org/2000/svg">
<g clip-path="url(#clip0_31_8165)">
<path d="M31.5 0H10.5C4.70101 0 0 4.70101 0 10.5V31.5C0 37.299 4.70101 42 10.5 42H31.5C37.299 42 42 37.299 42 31.5V10.5C42 4.70101 37.299 0 31.5 0Z" fill="url(#paint0_linear_31_8165)"/>
<g filter="url(#filter0_i_31_8165)">
<path d="M31.5 2.625H10.5C6.15076 2.625 2.625 6.15076 2.625 10.5V31.5C2.625 35.8492 6.15076 39.375 10.5 39.375H31.5C35.8492 39.375 39.375 35.8492 39.375 31.5V10.5C39.375 6.15076 35.8492 2.625 31.5 2.625Z" fill="black" fill-opacity="0.7"/>
<path fill-rule="evenodd" clip-rule="evenodd" d="M14.968 9.7548C14.5996 9.3913 14.1028 9.1875 13.5853 9.1875H8.53125C7.44394 9.1875 6.5625 10.0689 6.5625 11.1562V30.8438C6.5625 31.9311 7.44394 32.8125 8.53125 32.8125H33.4688C34.5562 32.8125 35.4375 31.9311 35.4375 30.8438V14.4375C35.4375 13.3502 34.5562 12.4688 33.4688 12.4688H18.5265C18.0089 12.4688 17.5122 12.265 17.1438 11.9015L14.968 9.7548Z" fill="#5739A8"/>
<path d="M32.4954 14.1094H9.50439C8.96074 14.1094 8.52002 14.5501 8.52002 15.0938V27.2344C8.52002 27.778 8.96074 28.2188 9.50439 28.2188H32.4954C33.039 28.2188 33.4798 27.778 33.4798 27.2344V15.0938C33.4798 14.5501 33.039 14.1094 32.4954 14.1094Z" fill="#FAFAFA"/>
<g filter="url(#filter1_d_31_8165)">
<path d="M6.5625 17.7188C6.5625 16.6314 7.44394 15.75 8.53125 15.75H33.4688C34.5562 15.75 35.4375 16.6314 35.4375 17.7188V30.8438C35.4375 31.9311 34.5562 32.8125 33.4688 32.8125H8.53125C7.44394 32.8125 6.5625 31.9311 6.5625 30.8438V17.7188Z" fill="#7962E7"/>
</g>
</g>
</g>
<defs>
<filter id="filter0_i_31_8165" x="2.625" y="2.625" width="36.75" height="40.75" filterUnits="userSpaceOnUse" color-interpolation-filters="sRGB">
<feFlood flood-opacity="0" result="BackgroundImageFix"/>
<feBlend mode="normal" in="SourceGraphic" in2="BackgroundImageFix" result="shape"/>
<feColorMatrix in="SourceAlpha" type="matrix" values="0 0 0 0 0 0 0 0 0 0 0 0 0 0 0 0 0 0 127 0" result="hardAlpha"/>
<feOffset dy="4"/>
<feGaussianBlur stdDeviation="2"/>
<feComposite in2="hardAlpha" operator="arithmetic" k2="-1" k3="1"/>
<feColorMatrix type="matrix" values="0 0 0 0 0 0 0 0 0 0 0 0 0 0 0 0 0 0 0.25 0"/>
<feBlend mode="normal" in2="shape" result="effect1_innerShadow_31_8165"/>
</filter>
<filter id="filter1_d_31_8165" x="3.5625" y="14.25" width="34.875" height="23.0625" filterUnits="userSpaceOnUse" color-interpolation-filters="sRGB">
<feFlood flood-opacity="0" result="BackgroundImageFix"/>
<feColorMatrix in="SourceAlpha" type="matrix" values="0 0 0 0 0 0 0 0 0 0 0 0 0 0 0 0 0 0 127 0" result="hardAlpha"/>
<feOffset dy="1.5"/>
<feGaussianBlur stdDeviation="1.5"/>
<feComposite in2="hardAlpha" operator="out"/>
<feColorMatrix type="matrix" values="0 0 0 0 0 0 0 0 0 0 0 0 0 0 0 0 0 0 0.25 0"/>
<feBlend mode="normal" in2="BackgroundImageFix" result="effect1_dropShadow_31_8165"/>
<feBlend mode="normal" in="SourceGraphic" in2="effect1_dropShadow_31_8165" result="shape"/>
</filter>
<linearGradient id="paint0_linear_31_8165" x1="42" y1="0" x2="0" y2="42" gradientUnits="userSpaceOnUse">
<stop stop-color="#6653C3"/>
<stop offset="1" stop-color="#5638A5"/>
</linearGradient>
<clipPath id="clip0_31_8165">
<rect width="42" height="42" fill="white"/>
</clipPath>
</defs>
</svg>
