<svg width="42" height="42" viewBox="0 0 42 42" fill="none" xmlns="http://www.w3.org/2000/svg">
<g clip-path="url(#clip0_31_8202)">
<path d="M31.5 0H10.5C4.70101 0 0 4.70101 0 10.5V31.5C0 37.299 4.70101 42 10.5 42H31.5C37.299 42 42 37.299 42 31.5V10.5C42 4.70101 37.299 0 31.5 0Z" fill="url(#paint0_linear_31_8202)"/>
<g filter="url(#filter0_i_31_8202)">
<path d="M31.5 2.625H10.5C6.15076 2.625 2.625 6.15076 2.625 10.5V31.5C2.625 35.8492 6.15076 39.375 10.5 39.375H31.5C35.8492 39.375 39.375 35.8492 39.375 31.5V10.5C39.375 6.15076 35.8492 2.625 31.5 2.625Z" fill="black" fill-opacity="0.7"/>
<g filter="url(#filter1_d_31_8202)">
<path d="M9.84375 11.8125C9.84375 8.91299 12.1942 6.5625 15.0938 6.5625H26.9062C29.8058 6.5625 32.1562 8.91299 32.1562 11.8125V30.1875C32.1562 33.0871 29.8058 35.4375 26.9062 35.4375H15.0938C12.1942 35.4375 9.84375 33.0871 9.84375 30.1875V11.8125Z" fill="#7962E7"/>
</g>
<path d="M9.84375 13.125H32.1562V30.1875C32.1562 33.0871 29.8058 35.4375 26.9062 35.4375H15.0938C12.1942 35.4375 9.84375 33.0871 9.84375 30.1875V13.125Z" fill="#FAFAFA"/>
<path d="M20.3438 21H13.7812C13.0564 21 12.4688 21.5876 12.4688 22.3125C12.4688 23.0374 13.0564 23.625 13.7812 23.625H20.3438C21.0686 23.625 21.6562 23.0374 21.6562 22.3125C21.6562 21.5876 21.0686 21 20.3438 21Z" fill="#222222"/>
<path d="M28.2188 15.75H13.7812C13.0564 15.75 12.4688 16.3376 12.4688 17.0625C12.4688 17.7874 13.0564 18.375 13.7812 18.375H28.2188C28.9436 18.375 29.5312 17.7874 29.5312 17.0625C29.5312 16.3376 28.9436 15.75 28.2188 15.75Z" fill="#222222"/>
</g>
</g>
<defs>
<filter id="filter0_i_31_8202" x="2.625" y="2.625" width="36.75" height="40.75" filterUnits="userSpaceOnUse" color-interpolation-filters="sRGB">
<feFlood flood-opacity="0" result="BackgroundImageFix"/>
<feBlend mode="normal" in="SourceGraphic" in2="BackgroundImageFix" result="shape"/>
<feColorMatrix in="SourceAlpha" type="matrix" values="0 0 0 0 0 0 0 0 0 0 0 0 0 0 0 0 0 0 127 0" result="hardAlpha"/>
<feOffset dy="4"/>
<feGaussianBlur stdDeviation="2"/>
<feComposite in2="hardAlpha" operator="arithmetic" k2="-1" k3="1"/>
<feColorMatrix type="matrix" values="0 0 0 0 0 0 0 0 0 0 0 0 0 0 0 0 0 0 0.25 0"/>
<feBlend mode="normal" in2="shape" result="effect1_innerShadow_31_8202"/>
</filter>
<filter id="filter1_d_31_8202" x="5.84375" y="4.5625" width="30.3125" height="36.875" filterUnits="userSpaceOnUse" color-interpolation-filters="sRGB">
<feFlood flood-opacity="0" result="BackgroundImageFix"/>
<feColorMatrix in="SourceAlpha" type="matrix" values="0 0 0 0 0 0 0 0 0 0 0 0 0 0 0 0 0 0 127 0" result="hardAlpha"/>
<feOffset dy="2"/>
<feGaussianBlur stdDeviation="2"/>
<feComposite in2="hardAlpha" operator="out"/>
<feColorMatrix type="matrix" values="0 0 0 0 0 0 0 0 0 0 0 0 0 0 0 0 0 0 0.25 0"/>
<feBlend mode="normal" in2="BackgroundImageFix" result="effect1_dropShadow_31_8202"/>
<feBlend mode="normal" in="SourceGraphic" in2="effect1_dropShadow_31_8202" result="shape"/>
</filter>
<linearGradient id="paint0_linear_31_8202" x1="42" y1="0" x2="0" y2="42" gradientUnits="userSpaceOnUse">
<stop stop-color="#6653C3"/>
<stop offset="1" stop-color="#5638A5"/>
</linearGradient>
<clipPath id="clip0_31_8202">
<rect width="42" height="42" fill="white"/>
</clipPath>
</defs>
</svg>
