<svg width="42" height="42" viewBox="0 0 42 42" fill="none" xmlns="http://www.w3.org/2000/svg">
<g clip-path="url(#clip0_31_8211)">
<path d="M31.5 0H10.5C4.70101 0 0 4.70101 0 10.5V31.5C0 37.299 4.70101 42 10.5 42H31.5C37.299 42 42 37.299 42 31.5V10.5C42 4.70101 37.299 0 31.5 0Z" fill="url(#paint0_linear_31_8211)"/>
<path d="M31.5 0H10.5C4.70101 0 0 4.70101 0 10.5V31.5C0 37.299 4.70101 42 10.5 42H31.5C37.299 42 42 37.299 42 31.5V10.5C42 4.70101 37.299 0 31.5 0Z" fill="black" fill-opacity="0.9"/>
<g filter="url(#filter0_i_31_8211)">
<path d="M31.5 2.625H10.5C6.15076 2.625 2.625 6.15076 2.625 10.5V31.5C2.625 35.8492 6.15076 39.375 10.5 39.375H31.5C35.8492 39.375 39.375 35.8492 39.375 31.5V10.5C39.375 6.15076 35.8492 2.625 31.5 2.625Z" fill="black" fill-opacity="0.7"/>
<path d="M27.2258 20.0414C27.1127 19.9872 26.9979 19.935 26.8815 19.8851C26.6789 16.1517 24.6389 14.0143 21.2136 13.9925C21.198 13.9924 21.1826 13.9924 21.1671 13.9924C19.1183 13.9924 17.4143 14.8669 16.3655 16.4583L18.2494 17.7506C19.0328 16.5619 20.2624 16.3085 21.168 16.3085C21.1785 16.3085 21.189 16.3085 21.1993 16.3086C22.3272 16.3158 23.1782 16.6437 23.7291 17.2832C24.1299 17.7487 24.398 18.3921 24.5308 19.204C23.5308 19.0341 22.4494 18.9818 21.2933 19.0481C18.0366 19.2357 15.9429 21.1351 16.0836 23.7743C16.1549 25.113 16.8218 26.2648 17.9615 27.0171C18.925 27.6531 20.1659 27.9642 21.4556 27.8938C23.1588 27.8004 24.4949 27.1506 25.4271 25.9623C26.135 25.06 26.5828 23.8906 26.7805 22.4172C27.5922 22.9071 28.1937 23.5517 28.526 24.3266C29.0909 25.6439 29.1238 27.8086 27.3576 29.5733C25.81 31.1194 23.9499 31.7882 21.1386 31.8089C18.0201 31.7857 15.6617 30.7856 14.1283 28.8363C12.6924 27.011 11.9503 24.3745 11.9226 21C11.9503 17.6255 12.6924 14.989 14.1283 13.1637C15.6617 11.2143 18.0201 10.2143 21.1385 10.1911C24.2796 10.2144 26.6792 11.2193 28.2713 13.1781C29.0519 14.1386 29.6405 15.3465 30.0285 16.7549L32.2361 16.1659C31.7658 14.4323 31.0257 12.9385 30.0187 11.6996C27.9776 9.18842 24.9925 7.90168 21.1462 7.875H21.1308C17.2924 7.90158 14.3407 9.19321 12.3578 11.714C10.5932 13.9571 9.68302 17.0783 9.65244 20.9908L9.65234 21L9.65244 21.0092C9.68302 24.9217 10.5932 28.0429 12.3578 30.2861C14.3407 32.8068 17.2924 34.0984 21.1308 34.125H21.1462C24.5588 34.1014 26.9642 33.2079 28.9458 31.2281C31.5384 28.6379 31.4604 25.3913 30.6059 23.3982C29.9928 21.9689 28.824 20.8081 27.2258 20.0414ZM21.3337 25.5811C19.9063 25.6614 18.4235 25.0207 18.3503 23.6485C18.2961 22.631 19.0745 21.4957 21.4213 21.3605C21.69 21.345 21.9537 21.3374 22.2128 21.3374C23.0653 21.3374 23.8628 21.4202 24.5878 21.5787C24.3174 24.9559 22.7311 25.5043 21.3337 25.5811Z" fill="white"/>
</g>
</g>
<defs>
<filter id="filter0_i_31_8211" x="2.625" y="2.625" width="36.75" height="40.75" filterUnits="userSpaceOnUse" color-interpolation-filters="sRGB">
<feFlood flood-opacity="0" result="BackgroundImageFix"/>
<feBlend mode="normal" in="SourceGraphic" in2="BackgroundImageFix" result="shape"/>
<feColorMatrix in="SourceAlpha" type="matrix" values="0 0 0 0 0 0 0 0 0 0 0 0 0 0 0 0 0 0 127 0" result="hardAlpha"/>
<feOffset dy="4"/>
<feGaussianBlur stdDeviation="2"/>
<feComposite in2="hardAlpha" operator="arithmetic" k2="-1" k3="1"/>
<feColorMatrix type="matrix" values="0 0 0 0 0 0 0 0 0 0 0 0 0 0 0 0 0 0 0.25 0"/>
<feBlend mode="normal" in2="shape" result="effect1_innerShadow_31_8211"/>
</filter>
<linearGradient id="paint0_linear_31_8211" x1="21" y1="0" x2="21" y2="42" gradientUnits="userSpaceOnUse">
<stop stop-color="white"/>
<stop offset="1" stop-color="#DFDFDF"/>
</linearGradient>
<clipPath id="clip0_31_8211">
<rect width="42" height="42" fill="white"/>
</clipPath>
</defs>
</svg>
