<svg width="42" height="42" viewBox="0 0 42 42" fill="none" xmlns="http://www.w3.org/2000/svg">
<g clip-path="url(#clip0_31_8217)">
<path d="M31.5 0H10.5C4.70101 0 0 4.70101 0 10.5V31.5C0 37.299 4.70101 42 10.5 42H31.5C37.299 42 42 37.299 42 31.5V10.5C42 4.70101 37.299 0 31.5 0Z" fill="url(#paint0_linear_31_8217)"/>
<path d="M31.5 0H10.5C4.70101 0 0 4.70101 0 10.5V31.5C0 37.299 4.70101 42 10.5 42H31.5C37.299 42 42 37.299 42 31.5V10.5C42 4.70101 37.299 0 31.5 0Z" fill="url(#paint1_linear_31_8217)"/>
<g filter="url(#filter0_i_31_8217)">
<path d="M31.5 2.625H10.5C6.15076 2.625 2.625 6.15076 2.625 10.5V31.5C2.625 35.8492 6.15076 39.375 10.5 39.375H31.5C35.8492 39.375 39.375 35.8492 39.375 31.5V10.5C39.375 6.15076 35.8492 2.625 31.5 2.625Z" fill="black" fill-opacity="0.7"/>
<path d="M21 33.6125C27.9656 33.6125 33.6125 27.9656 33.6125 21C33.6125 14.0344 27.9656 8.3877 21 8.3877C14.0344 8.3877 8.3877 14.0344 8.3877 21C8.3877 27.9656 14.0344 33.6125 21 33.6125Z" fill="#F2E4FF"/>
<path fill-rule="evenodd" clip-rule="evenodd" d="M21.0269 31.7379V30.1468C26.0668 30.1323 30.1476 26.0431 30.1476 20.9996C30.1476 15.9565 26.0668 11.8674 21.0269 11.8528V10.2617C26.9454 10.2767 31.7383 15.0778 31.7383 20.9996C31.7383 26.9218 26.9454 31.7233 21.0269 31.7379ZM21.0269 26.169C23.8696 26.1541 26.1705 23.8463 26.1705 20.9996C26.1705 18.1534 23.8696 15.8456 21.0269 15.8306V14.2399C24.7486 14.2545 27.7615 17.2747 27.7615 20.9996C27.7615 24.7249 24.7486 27.7451 21.0269 27.7597V26.169ZM21.0269 18.217C22.5518 18.2316 23.7841 19.4712 23.7841 20.9996C23.7841 22.5285 22.5518 23.7681 21.0269 23.7826V18.217ZM7.875 20.9996C7.875 28.2487 13.7509 34.125 21 34.125C28.2487 34.125 34.125 28.2487 34.125 20.9996C34.125 13.7509 28.2487 7.875 21 7.875C13.7509 7.875 7.875 13.7509 7.875 20.9996Z" fill="#941AD0"/>
<g filter="url(#filter1_d_31_8217)">
<path d="M21 9.3618C14.4592 9.3618 9.15674 14.6413 9.15674 21.1538C9.15674 27.6664 14.4592 32.9457 21 32.9457V9.3618Z" fill="black"/>
</g>
<path d="M21 7.875C13.7513 7.875 7.875 13.7513 7.875 21C7.875 28.2487 13.7513 34.125 21 34.125V7.875Z" fill="#8116B6"/>
</g>
</g>
<defs>
<filter id="filter0_i_31_8217" x="2.625" y="2.625" width="36.75" height="40.75" filterUnits="userSpaceOnUse" color-interpolation-filters="sRGB">
<feFlood flood-opacity="0" result="BackgroundImageFix"/>
<feBlend mode="normal" in="SourceGraphic" in2="BackgroundImageFix" result="shape"/>
<feColorMatrix in="SourceAlpha" type="matrix" values="0 0 0 0 0 0 0 0 0 0 0 0 0 0 0 0 0 0 127 0" result="hardAlpha"/>
<feOffset dy="4"/>
<feGaussianBlur stdDeviation="2"/>
<feComposite in2="hardAlpha" operator="arithmetic" k2="-1" k3="1"/>
<feColorMatrix type="matrix" values="0 0 0 0 0 0 0 0 0 0 0 0 0 0 0 0 0 0 0.25 0"/>
<feBlend mode="normal" in2="shape" result="effect1_innerShadow_31_8217"/>
</filter>
<filter id="filter1_d_31_8217" x="4.78174" y="6.2368" width="18.0933" height="29.8339" filterUnits="userSpaceOnUse" color-interpolation-filters="sRGB">
<feFlood flood-opacity="0" result="BackgroundImageFix"/>
<feColorMatrix in="SourceAlpha" type="matrix" values="0 0 0 0 0 0 0 0 0 0 0 0 0 0 0 0 0 0 127 0" result="hardAlpha"/>
<feOffset dx="-1.25"/>
<feGaussianBlur stdDeviation="1.5625"/>
<feColorMatrix type="matrix" values="0 0 0 0 0.25098 0 0 0 0 0.25098 0 0 0 0 0.25098 0 0 0 0.2 0"/>
<feBlend mode="normal" in2="BackgroundImageFix" result="effect1_dropShadow_31_8217"/>
<feBlend mode="normal" in="SourceGraphic" in2="effect1_dropShadow_31_8217" result="shape"/>
</filter>
<linearGradient id="paint0_linear_31_8217" x1="63.0656" y1="-11.6096" x2="-9.30553" y2="41.9826" gradientUnits="userSpaceOnUse">
<stop stop-color="#D446FF"/>
<stop offset="1" stop-color="#A0D8FF"/>
</linearGradient>
<linearGradient id="paint1_linear_31_8217" x1="21" y1="0" x2="21" y2="42" gradientUnits="userSpaceOnUse">
<stop stop-color="#951AD1"/>
<stop offset="1" stop-color="#6C1397"/>
</linearGradient>
<clipPath id="clip0_31_8217">
<rect width="42" height="42" fill="white"/>
</clipPath>
</defs>
</svg>
