<svg width="42" height="42" viewBox="0 0 42 42" fill="none" xmlns="http://www.w3.org/2000/svg">
<g clip-path="url(#clip0_31_8239)">
<path d="M31.5 0H10.5C4.70101 0 0 4.70101 0 10.5V31.5C0 37.299 4.70101 42 10.5 42H31.5C37.299 42 42 37.299 42 31.5V10.5C42 4.70101 37.299 0 31.5 0Z" fill="url(#paint0_linear_31_8239)"/>
<path d="M31.5 0H10.5C4.70101 0 0 4.70101 0 10.5V31.5C0 37.299 4.70101 42 10.5 42H31.5C37.299 42 42 37.299 42 31.5V10.5C42 4.70101 37.299 0 31.5 0Z" fill="url(#paint1_linear_31_8239)"/>
<g filter="url(#filter0_i_31_8239)">
<path d="M31.5 2.625H10.5C6.15076 2.625 2.625 6.15076 2.625 10.5V31.5C2.625 35.8492 6.15076 39.375 10.5 39.375H31.5C35.8492 39.375 39.375 35.8492 39.375 31.5V10.5C39.375 6.15076 35.8492 2.625 31.5 2.625Z" fill="black" fill-opacity="0.7"/>
<mask id="mask0_31_8239" style="mask-type:luminance" maskUnits="userSpaceOnUse" x="5" y="5" width="32" height="32">
<path d="M36.75 5.25H5.25V36.75H36.75V5.25Z" fill="white"/>
</mask>
<g mask="url(#mask0_31_8239)">
<g filter="url(#filter1_d_31_8239)">
<path d="M30.8909 16.617L11.5979 18.687C10.4508 18.8094 9.2998 18.4933 8.37606 17.8022C7.45232 17.111 6.82426 16.0961 6.6179 14.961C6.50942 14.3615 6.52199 13.7465 6.65485 13.1519C6.78774 12.5575 7.03823 11.9955 7.39159 11.4993C7.74495 11.0031 8.19405 10.5826 8.71242 10.2626C9.23079 9.94259 9.80793 9.72954 10.4099 9.63602L29.5859 6.65701C30.3278 6.54167 31.0861 6.59414 31.805 6.81054C32.5239 7.02697 33.1851 7.40182 33.74 7.90753C34.2949 8.41323 34.7296 9.0369 35.0115 9.73269C35.2937 10.4285 35.4161 11.1786 35.3698 11.928C35.2986 13.1131 34.8094 14.2345 33.9894 15.0929C33.1694 15.9514 32.0714 16.4914 30.8909 16.617Z" fill="url(#paint2_linear_31_8239)"/>
</g>
<g filter="url(#filter2_d_31_8239)">
<path d="M23.7599 33.4021L7.88092 17.358C7.42955 16.9018 7.07928 16.3556 6.8529 15.7551C6.62653 15.1545 6.52914 14.513 6.56707 13.8723C6.60501 13.2317 6.77737 12.6061 7.07301 12.0365C7.36862 11.4669 7.78087 10.9658 8.28291 10.566C9.04379 9.96126 9.9778 9.61509 10.949 9.57788C11.9202 9.54064 12.878 9.81429 13.6829 10.359L32.3759 23.031C33.2429 23.6195 33.9619 24.4012 34.476 25.3144C34.9899 26.2277 35.2852 27.2477 35.3384 28.2944C35.3915 29.341 35.2012 30.3857 34.7825 31.3464C34.3638 32.3071 33.7279 33.1577 32.925 33.831C31.622 34.9224 29.9564 35.4838 28.2587 35.4044C26.561 35.325 24.9552 34.6103 23.7599 33.4021Z" fill="url(#paint3_linear_31_8239)"/>
</g>
<g filter="url(#filter3_d_31_8239)">
<path d="M27.348 7.58399L8.79604 21.45C8.40429 21.7423 8.07728 22.1124 7.83549 22.5371C7.59372 22.9619 7.44243 23.432 7.39114 23.9181C7.33985 24.4041 7.3897 24.8955 7.53752 25.3613C7.68534 25.8272 7.92792 26.2575 8.25004 26.625C8.78672 27.2354 9.51709 27.6425 10.3185 27.778C11.1199 27.9135 11.9435 27.7691 12.651 27.369L32.8171 15.969C33.4681 15.6015 34.0289 15.0933 34.4584 14.4813C34.8879 13.8694 35.175 13.1692 35.2994 12.432C35.4234 11.6948 35.3814 10.9392 35.1763 10.2203C34.9709 9.50146 34.6077 8.83749 34.1132 8.27699C33.2781 7.33353 32.119 6.73854 30.8658 6.61015C29.6126 6.48179 28.3569 6.8294 27.348 7.58399Z" fill="url(#paint4_linear_31_8239)"/>
</g>
<g filter="url(#filter4_d_31_8239)">
<path d="M25.7998 34.821L9.44981 27.477C8.96494 27.261 8.53523 26.9381 8.19283 26.5325C7.85044 26.1269 7.60424 25.6491 7.47263 25.1349C7.34105 24.6207 7.3275 24.0834 7.43299 23.5632C7.53849 23.0429 7.7603 22.5534 8.0818 22.131C8.43164 21.6744 8.888 21.3104 9.41093 21.071C9.9339 20.8314 10.5076 20.7236 11.0818 20.757L28.9828 21.858C30.0485 21.9231 31.0837 22.2387 32.0044 22.7794C32.9249 23.32 33.7052 24.0704 34.281 24.9694C34.8569 25.8683 35.2126 26.8906 35.3189 27.9529C35.4252 29.0153 35.2792 30.0877 34.8927 31.083C34.5593 31.9397 34.0556 32.7198 33.4118 33.3759C32.7679 34.0322 31.9974 34.5506 31.1472 34.9004C30.2969 35.2498 29.3846 35.4231 28.4654 35.4093C27.5462 35.3958 26.6393 35.1957 25.7998 34.821Z" fill="url(#paint5_linear_31_8239)"/>
</g>
<g filter="url(#filter5_d_31_8239)">
<path d="M12 12H30V30H12V12Z" fill="black"/>
</g>
<path d="M14.2437 26.598H20.9936V27.723H14.2437V26.598Z" fill="white"/>
<path d="M14.25 18.099V14.223H15.75V18.06C15.75 19.164 16.302 19.734 17.214 19.734C18.126 19.734 18.675 19.182 18.675 18.108V14.223H20.175V18.048C20.175 20.103 19.023 21.111 17.202 21.111C15.381 21.111 14.25 20.094 14.25 18.099Z" fill="white"/>
<path d="M21.5281 14.223H24.3001C25.9171 14.223 26.895 15.183 26.895 16.569V16.587C26.895 18.156 25.6741 18.969 24.1531 18.969H23.0191V21.003H21.519L21.5281 14.223ZM24.2011 17.643C24.948 17.643 25.383 17.196 25.383 16.617V16.596C25.383 15.93 24.9181 15.57 24.1831 15.57H23.0191V17.643H24.2011Z" fill="white"/>
</g>
</g>
</g>
<defs>
<filter id="filter0_i_31_8239" x="2.625" y="2.625" width="36.75" height="40.75" filterUnits="userSpaceOnUse" color-interpolation-filters="sRGB">
<feFlood flood-opacity="0" result="BackgroundImageFix"/>
<feBlend mode="normal" in="SourceGraphic" in2="BackgroundImageFix" result="shape"/>
<feColorMatrix in="SourceAlpha" type="matrix" values="0 0 0 0 0 0 0 0 0 0 0 0 0 0 0 0 0 0 127 0" result="hardAlpha"/>
<feOffset dy="4"/>
<feGaussianBlur stdDeviation="2"/>
<feComposite in2="hardAlpha" operator="arithmetic" k2="-1" k3="1"/>
<feColorMatrix type="matrix" values="0 0 0 0 0 0 0 0 0 0 0 0 0 0 0 0 0 0 0.25 0"/>
<feBlend mode="normal" in2="shape" result="effect1_innerShadow_31_8239"/>
</filter>
<filter id="filter1_d_31_8239" x="2.54492" y="4.5974" width="36.8345" height="20.1154" filterUnits="userSpaceOnUse" color-interpolation-filters="sRGB">
<feFlood flood-opacity="0" result="BackgroundImageFix"/>
<feColorMatrix in="SourceAlpha" type="matrix" values="0 0 0 0 0 0 0 0 0 0 0 0 0 0 0 0 0 0 127 0" result="hardAlpha"/>
<feOffset dy="2"/>
<feGaussianBlur stdDeviation="2"/>
<feComposite in2="hardAlpha" operator="out"/>
<feColorMatrix type="matrix" values="0 0 0 0 0 0 0 0 0 0 0 0 0 0 0 0 0 0 0.25 0"/>
<feBlend mode="normal" in2="BackgroundImageFix" result="effect1_dropShadow_31_8239"/>
<feBlend mode="normal" in="SourceGraphic" in2="effect1_dropShadow_31_8239" result="shape"/>
</filter>
<filter id="filter2_d_31_8239" x="2.55908" y="7.57452" width="36.7881" height="33.8372" filterUnits="userSpaceOnUse" color-interpolation-filters="sRGB">
<feFlood flood-opacity="0" result="BackgroundImageFix"/>
<feColorMatrix in="SourceAlpha" type="matrix" values="0 0 0 0 0 0 0 0 0 0 0 0 0 0 0 0 0 0 127 0" result="hardAlpha"/>
<feOffset dy="2"/>
<feGaussianBlur stdDeviation="2"/>
<feComposite in2="hardAlpha" operator="out"/>
<feColorMatrix type="matrix" values="0 0 0 0 0 0 0 0 0 0 0 0 0 0 0 0 0 0 0.25 0"/>
<feBlend mode="normal" in2="BackgroundImageFix" result="effect1_dropShadow_31_8239"/>
<feBlend mode="normal" in="SourceGraphic" in2="effect1_dropShadow_31_8239" result="shape"/>
</filter>
<filter id="filter3_d_31_8239" x="3.37158" y="4.58401" width="35.9976" height="29.2435" filterUnits="userSpaceOnUse" color-interpolation-filters="sRGB">
<feFlood flood-opacity="0" result="BackgroundImageFix"/>
<feColorMatrix in="SourceAlpha" type="matrix" values="0 0 0 0 0 0 0 0 0 0 0 0 0 0 0 0 0 0 127 0" result="hardAlpha"/>
<feOffset dy="2"/>
<feGaussianBlur stdDeviation="2"/>
<feComposite in2="hardAlpha" operator="out"/>
<feColorMatrix type="matrix" values="0 0 0 0 0 0 0 0 0 0 0 0 0 0 0 0 0 0 0.25 0"/>
<feBlend mode="normal" in2="BackgroundImageFix" result="effect1_dropShadow_31_8239"/>
<feBlend mode="normal" in="SourceGraphic" in2="effect1_dropShadow_31_8239" result="shape"/>
</filter>
<filter id="filter4_d_31_8239" x="3.36279" y="18.7511" width="35.9897" height="22.659" filterUnits="userSpaceOnUse" color-interpolation-filters="sRGB">
<feFlood flood-opacity="0" result="BackgroundImageFix"/>
<feColorMatrix in="SourceAlpha" type="matrix" values="0 0 0 0 0 0 0 0 0 0 0 0 0 0 0 0 0 0 127 0" result="hardAlpha"/>
<feOffset dy="2"/>
<feGaussianBlur stdDeviation="2"/>
<feComposite in2="hardAlpha" operator="out"/>
<feColorMatrix type="matrix" values="0 0 0 0 0 0 0 0 0 0 0 0 0 0 0 0 0 0 0.25 0"/>
<feBlend mode="normal" in2="BackgroundImageFix" result="effect1_dropShadow_31_8239"/>
<feBlend mode="normal" in="SourceGraphic" in2="effect1_dropShadow_31_8239" result="shape"/>
</filter>
<filter id="filter5_d_31_8239" x="8" y="10" width="26" height="26" filterUnits="userSpaceOnUse" color-interpolation-filters="sRGB">
<feFlood flood-opacity="0" result="BackgroundImageFix"/>
<feColorMatrix in="SourceAlpha" type="matrix" values="0 0 0 0 0 0 0 0 0 0 0 0 0 0 0 0 0 0 127 0" result="hardAlpha"/>
<feOffset dy="2"/>
<feGaussianBlur stdDeviation="2"/>
<feComposite in2="hardAlpha" operator="out"/>
<feColorMatrix type="matrix" values="0 0 0 0 0 0 0 0 0 0 0 0 0 0 0 0 0 0 0.25 0"/>
<feBlend mode="normal" in2="BackgroundImageFix" result="effect1_dropShadow_31_8239"/>
<feBlend mode="normal" in="SourceGraphic" in2="effect1_dropShadow_31_8239" result="shape"/>
</filter>
<linearGradient id="paint0_linear_31_8239" x1="21" y1="0" x2="21" y2="42" gradientUnits="userSpaceOnUse">
<stop stop-color="#3BEA62"/>
<stop offset="0.5" stop-color="#009AE5"/>
<stop offset="1" stop-color="#6B57FF"/>
</linearGradient>
<linearGradient id="paint1_linear_31_8239" x1="35.2869" y1="9.24279" x2="-0.746179" y2="26.6849" gradientUnits="userSpaceOnUse">
<stop stop-color="#FC801D"/>
<stop offset="0.661458" stop-color="#6B57FF"/>
<stop offset="1" stop-color="#08C1F2"/>
</linearGradient>
<linearGradient id="paint2_linear_31_8239" x1="34.329" y1="11.094" x2="14.0159" y2="13.8" gradientUnits="userSpaceOnUse">
<stop stop-color="#FC801D"/>
<stop offset="1" stop-color="#6B57FF"/>
</linearGradient>
<linearGradient id="paint3_linear_31_8239" x1="20.8289" y1="22.044" x2="22.5629" y2="14.712" gradientUnits="userSpaceOnUse">
<stop stop-color="#07C3F2"/>
<stop offset="1" stop-color="#6B57FF"/>
</linearGradient>
<linearGradient id="paint4_linear_31_8239" x1="30.894" y1="11.259" x2="9.82205" y2="24.702" gradientUnits="userSpaceOnUse">
<stop stop-color="#FC801D"/>
<stop offset="0.92" stop-color="#6B57FF"/>
</linearGradient>
<linearGradient id="paint5_linear_31_8239" x1="33.4049" y1="30.372" x2="10.9138" y2="22.245" gradientUnits="userSpaceOnUse">
<stop stop-color="#07C3F2"/>
<stop offset="1" stop-color="#6B57FF"/>
</linearGradient>
<clipPath id="clip0_31_8239">
<rect width="42" height="42" fill="white"/>
</clipPath>
</defs>
</svg>
