<svg width="42" height="42" viewBox="0 0 42 42" fill="none" xmlns="http://www.w3.org/2000/svg">
<g clip-path="url(#clip0_31_8261)">
<path d="M31.5 0H10.5C4.70101 0 0 4.70101 0 10.5V31.5C0 37.299 4.70101 42 10.5 42H31.5C37.299 42 42 37.299 42 31.5V10.5C42 4.70101 37.299 0 31.5 0Z" fill="url(#paint0_linear_31_8261)"/>
<g filter="url(#filter0_i_31_8261)">
<path d="M31.5 2.625H10.5C6.15076 2.625 2.625 6.15076 2.625 10.5V31.5C2.625 35.8492 6.15076 39.375 10.5 39.375H31.5C35.8492 39.375 39.375 35.8492 39.375 31.5V10.5C39.375 6.15076 35.8492 2.625 31.5 2.625Z" fill="black" fill-opacity="0.7"/>
<g filter="url(#filter1_d_31_8261)">
<path d="M30.2779 11.721C25.1561 6.59302 16.8458 6.59302 11.7163 11.721C6.59456 16.849 6.59456 25.1588 11.7163 30.279C16.8381 35.407 25.1484 35.407 30.2779 30.279C35.4073 25.1511 35.4073 16.8413 30.2779 11.721ZM29.4923 17.7526C27.3281 21.5136 25.1638 25.2746 22.9996 29.0434C22.5991 29.7461 22.0138 30.1632 21.2128 30.225C20.3193 30.2867 19.6108 29.9083 19.1564 29.136C17.7854 26.7806 16.4299 24.4097 15.0744 22.0465C14.2502 20.61 13.4184 19.1736 12.5943 17.7294C11.7625 16.2775 12.7022 14.5089 14.3658 14.424C15.2438 14.3777 15.9215 14.787 16.3683 15.5515C16.9767 16.5941 17.5775 17.6521 18.1859 18.7024C18.6249 19.4593 19.0485 20.2239 19.4953 20.9653C20.1422 22.0542 21.0972 22.6643 22.368 22.7415C24.1626 22.8496 25.8339 21.5445 26.0495 19.6369C26.065 19.4979 26.0726 19.3512 26.0804 19.2817C26.0726 18.6639 25.9571 18.1387 25.7107 17.6521C25.0406 16.3084 25.7569 14.8024 27.2126 14.4781C28.3986 14.2155 29.6309 15.0881 29.785 16.2929C29.862 16.8103 29.7542 17.2969 29.4923 17.7526Z" fill="white"/>
</g>
</g>
</g>
<defs>
<filter id="filter0_i_31_8261" x="2.625" y="2.625" width="36.75" height="40.75" filterUnits="userSpaceOnUse" color-interpolation-filters="sRGB">
<feFlood flood-opacity="0" result="BackgroundImageFix"/>
<feBlend mode="normal" in="SourceGraphic" in2="BackgroundImageFix" result="shape"/>
<feColorMatrix in="SourceAlpha" type="matrix" values="0 0 0 0 0 0 0 0 0 0 0 0 0 0 0 0 0 0 127 0" result="hardAlpha"/>
<feOffset dy="4"/>
<feGaussianBlur stdDeviation="2"/>
<feComposite in2="hardAlpha" operator="arithmetic" k2="-1" k3="1"/>
<feColorMatrix type="matrix" values="0 0 0 0 0 0 0 0 0 0 0 0 0 0 0 0 0 0 0.25 0"/>
<feBlend mode="normal" in2="shape" result="effect1_innerShadow_31_8261"/>
</filter>
<filter id="filter1_d_31_8261" x="3.875" y="5.87502" width="34.25" height="34.25" filterUnits="userSpaceOnUse" color-interpolation-filters="sRGB">
<feFlood flood-opacity="0" result="BackgroundImageFix"/>
<feColorMatrix in="SourceAlpha" type="matrix" values="0 0 0 0 0 0 0 0 0 0 0 0 0 0 0 0 0 0 127 0" result="hardAlpha"/>
<feOffset dy="2"/>
<feGaussianBlur stdDeviation="2"/>
<feComposite in2="hardAlpha" operator="out"/>
<feColorMatrix type="matrix" values="0 0 0 0 0 0 0 0 0 0 0 0 0 0 0 0 0 0 0.25 0"/>
<feBlend mode="normal" in2="BackgroundImageFix" result="effect1_dropShadow_31_8261"/>
<feBlend mode="normal" in="SourceGraphic" in2="effect1_dropShadow_31_8261" result="shape"/>
</filter>
<linearGradient id="paint0_linear_31_8261" x1="42" y1="0" x2="0" y2="42" gradientUnits="userSpaceOnUse">
<stop stop-color="#EF3939"/>
<stop offset="1" stop-color="#BF2E2E"/>
</linearGradient>
<clipPath id="clip0_31_8261">
<rect width="42" height="42" fill="white"/>
</clipPath>
</defs>
</svg>
