<svg width="42" height="42" viewBox="0 0 42 42" fill="none" xmlns="http://www.w3.org/2000/svg">
<g clip-path="url(#clip0_31_8267)">
<path d="M31.5 0H10.5C4.70101 0 0 4.70101 0 10.5V31.5C0 37.299 4.70101 42 10.5 42H31.5C37.299 42 42 37.299 42 31.5V10.5C42 4.70101 37.299 0 31.5 0Z" fill="url(#paint0_linear_31_8267)"/>
<path d="M31.5 0H10.5C4.70101 0 0 4.70101 0 10.5V31.5C0 37.299 4.70101 42 10.5 42H31.5C37.299 42 42 37.299 42 31.5V10.5C42 4.70101 37.299 0 31.5 0Z" fill="url(#paint1_linear_31_8267)"/>
<g filter="url(#filter0_i_31_8267)">
<path d="M31.5 2.625H10.5C6.15076 2.625 2.625 6.15076 2.625 10.5V31.5C2.625 35.8492 6.15076 39.375 10.5 39.375H31.5C35.8492 39.375 39.375 35.8492 39.375 31.5V10.5C39.375 6.15076 35.8492 2.625 31.5 2.625Z" fill="black" fill-opacity="0.7"/>
<mask id="mask0_31_8267" style="mask-type:luminance" maskUnits="userSpaceOnUse" x="10" y="9" width="22" height="24">
<path d="M31.1719 9.51562H10.8281V32.4844H31.1719V9.51562Z" fill="white"/>
</mask>
<g mask="url(#mask0_31_8267)">
<g filter="url(#filter1_d_31_8267)">
<path fill-rule="evenodd" clip-rule="evenodd" d="M11.3786 30.8428C11.3786 30.8428 11.0554 31.1904 10.9699 31.4726C10.9101 31.6698 10.8868 31.9638 10.9947 32.1395C11.0738 32.2685 11.1775 32.3989 11.3291 32.3989C17.9197 32.3998 25.2082 32.4095 30.3362 32.4236C30.5098 32.4241 30.8391 32.3937 30.9741 32.2013C31.1117 32.0052 31.1083 31.568 31.0113 31.3491C30.9091 31.1186 30.4291 31.0157 30.4291 31.0157L11.3786 30.8428Z" fill="#B54D00"/>
<path fill-rule="evenodd" clip-rule="evenodd" d="M13.8072 23.91C13.506 23.91 13.1934 24.1413 13.1062 24.4294L11.0022 31.3783C10.915 31.6663 11.0868 31.8988 11.3879 31.8988H30.7905C31.0199 31.8988 31.1514 31.7224 31.0849 31.5029L28.9047 24.3059C28.8383 24.0864 28.6006 23.91 28.3712 23.91H13.8072Z" fill="#E26400"/>
<path fill-rule="evenodd" clip-rule="evenodd" d="M20.9967 9.59382C20.4962 9.58883 20.2018 9.62591 19.9066 9.84713C19.7719 9.94813 19.6654 10.188 19.6018 10.3606L14.4653 27.2664C14.4653 27.2664 14.5851 28.0303 15.3117 28.7248C15.8016 29.1929 16.7306 29.5398 17.3142 29.6659C18.8121 29.9896 20.0132 30.0669 21.3717 30.0463C22.767 30.0253 24.161 29.7518 25.5027 29.369C27.5036 28.7981 27.5674 27.1962 27.5674 27.1962L22.2843 10.0463C22.2625 9.97569 22.2096 9.92362 22.1677 9.88398C21.8538 9.58739 21.3783 9.59766 20.9967 9.59382Z" fill="url(#paint2_linear_31_8267)"/>
<path fill-rule="evenodd" clip-rule="evenodd" d="M20.9967 9.59382C20.4962 9.58883 20.2018 9.62591 19.9066 9.84713C19.7719 9.94813 19.6654 10.188 19.6018 10.3606L14.4653 27.2664C14.4653 27.2664 14.6912 28.7286 16.509 29.4413C17.7672 29.9346 19.0659 30.0001 21.0868 30.0217C23.3374 30.0457 24.2542 29.8255 25.7252 29.3137C26.4177 29.0728 26.7766 28.7596 27.1051 28.4123C27.58 27.91 27.5674 27.1962 27.5674 27.1962L22.2843 10.0463C22.2486 9.98159 22.2096 9.92362 22.1677 9.88398C21.8538 9.58739 21.3783 9.59766 20.9967 9.59382Z" fill="#F48200"/>
<path fill-rule="evenodd" clip-rule="evenodd" d="M16.3409 21.095L15.1665 24.9602C16.5908 26.157 18.6811 26.9129 21.0108 26.9129C23.351 26.9129 25.4489 26.1503 26.8735 24.9441L25.691 21.1042C24.6024 21.9702 22.9153 22.5261 21.0212 22.5261C19.1208 22.5261 17.4292 21.9659 16.3409 21.095Z" fill="#EAECED"/>
<path fill-rule="evenodd" clip-rule="evenodd" d="M23.1298 12.7924C22.5756 12.9778 21.8182 13.0929 20.982 13.0929C20.1593 13.0929 19.4124 12.9817 18.8606 12.8016L17.6216 16.8809C18.4545 17.3155 19.6741 17.5902 21.0339 17.5902C22.3669 17.5902 23.5661 17.3272 24.3978 16.9074L23.1298 12.7924Z" fill="#EAECED"/>
</g>
</g>
</g>
</g>
<defs>
<filter id="filter0_i_31_8267" x="2.625" y="2.625" width="36.75" height="40.75" filterUnits="userSpaceOnUse" color-interpolation-filters="sRGB">
<feFlood flood-opacity="0" result="BackgroundImageFix"/>
<feBlend mode="normal" in="SourceGraphic" in2="BackgroundImageFix" result="shape"/>
<feColorMatrix in="SourceAlpha" type="matrix" values="0 0 0 0 0 0 0 0 0 0 0 0 0 0 0 0 0 0 127 0" result="hardAlpha"/>
<feOffset dy="4"/>
<feGaussianBlur stdDeviation="2"/>
<feComposite in2="hardAlpha" operator="arithmetic" k2="-1" k3="1"/>
<feColorMatrix type="matrix" values="0 0 0 0 0 0 0 0 0 0 0 0 0 0 0 0 0 0 0.25 0"/>
<feBlend mode="normal" in2="shape" result="effect1_innerShadow_31_8267"/>
</filter>
<filter id="filter1_d_31_8267" x="6.91943" y="7.5934" width="28.1826" height="30.8302" filterUnits="userSpaceOnUse" color-interpolation-filters="sRGB">
<feFlood flood-opacity="0" result="BackgroundImageFix"/>
<feColorMatrix in="SourceAlpha" type="matrix" values="0 0 0 0 0 0 0 0 0 0 0 0 0 0 0 0 0 0 127 0" result="hardAlpha"/>
<feOffset dy="2"/>
<feGaussianBlur stdDeviation="2"/>
<feComposite in2="hardAlpha" operator="out"/>
<feColorMatrix type="matrix" values="0 0 0 0 0 0 0 0 0 0 0 0 0 0 0 0 0 0 0.25 0"/>
<feBlend mode="normal" in2="BackgroundImageFix" result="effect1_dropShadow_31_8267"/>
<feBlend mode="normal" in="SourceGraphic" in2="effect1_dropShadow_31_8267" result="shape"/>
</filter>
<linearGradient id="paint0_linear_31_8267" x1="21" y1="0" x2="21" y2="42" gradientUnits="userSpaceOnUse">
<stop stop-color="#CB02C5"/>
<stop offset="1" stop-color="#5800BF"/>
</linearGradient>
<linearGradient id="paint1_linear_31_8267" x1="2.82537e-07" y1="24.1172" x2="41.0461" y2="13.7709" gradientUnits="userSpaceOnUse">
<stop stop-color="#F48200"/>
<stop offset="0.494068" stop-color="#F48200"/>
<stop offset="1" stop-color="#CC5F00"/>
</linearGradient>
<linearGradient id="paint2_linear_31_8267" x1="16.8927" y1="18.4941" x2="17.9556" y2="18.7425" gradientUnits="userSpaceOnUse">
<stop stop-color="#9B4400"/>
<stop offset="1" stop-color="#E56300"/>
</linearGradient>
<clipPath id="clip0_31_8267">
<rect width="42" height="42" fill="white"/>
</clipPath>
</defs>
</svg>
