<svg width="42" height="42" viewBox="0 0 42 42" fill="none" xmlns="http://www.w3.org/2000/svg">
<g clip-path="url(#clip0_31_8292)">
<path d="M31.5 0H10.5C4.70101 0 0 4.70101 0 10.5V31.5C0 37.299 4.70101 42 10.5 42H31.5C37.299 42 42 37.299 42 31.5V10.5C42 4.70101 37.299 0 31.5 0Z" fill="url(#paint0_linear_31_8292)"/>
<g filter="url(#filter0_i_31_8292)">
<path d="M31.5 2.625H10.5C6.15076 2.625 2.625 6.15076 2.625 10.5V31.5C2.625 35.8492 6.15076 39.375 10.5 39.375H31.5C35.8492 39.375 39.375 35.8492 39.375 31.5V10.5C39.375 6.15076 35.8492 2.625 31.5 2.625Z" fill="black" fill-opacity="0.7"/>
<g filter="url(#filter1_d_31_8292)">
<path d="M21.1298 8.22849C20.9213 8.26593 20.7223 8.34402 20.5441 8.45824C19.7951 8.93934 19.579 9.93546 20.0616 10.6826C22.7152 14.7945 23.3415 17.896 23.0699 20.6139C21.9717 25.8189 19.5842 26.8746 17.4978 26.8746C15.4607 26.8746 16.0063 23.5203 17.5374 22.5386C18.4514 21.9674 19.6222 21.5962 20.5208 21.5962C21.4111 21.5963 22.1329 20.8763 22.1331 19.9879C22.1329 19.0995 21.4111 18.3794 20.5208 18.3796C19.4714 18.3796 18.4417 18.6001 17.4808 18.9756C17.677 18.0488 17.7496 17.0471 17.4958 15.9821C17.1105 14.3653 16.001 12.8207 14.0748 11.3236C13.7375 11.0611 13.3095 10.9431 12.8851 10.9956C12.4607 11.0481 12.0747 11.2667 11.8118 11.6033C11.2652 12.3047 11.3918 13.3155 12.0947 13.861C13.6639 15.0806 14.1822 15.9832 14.3593 16.7263C14.5364 17.4694 14.3941 18.2665 14.0382 19.3619C13.5831 20.838 13.055 22.1557 12.8235 23.4193C12.7096 24.0413 12.6999 24.7183 12.6704 25.2591C11.5405 24.157 11.098 22.7018 11.098 20.5756C11.0978 19.6872 10.3759 18.9672 9.48567 18.9673C8.59606 18.9681 7.87523 19.6879 7.875 20.5756C7.875 23.4795 8.72379 26.2427 10.9982 28.0861C13.0573 30.049 18.2933 29.3235 18.2933 32.4745C18.2933 33.3641 19.5944 33.7969 20.4845 33.7969C21.3975 33.7969 22.5465 33.1862 22.5465 32.4745C22.5465 28.8992 26.3121 26.7263 32.511 26.7359C33.4012 26.737 34.1237 26.0176 34.125 25.1292C34.1266 24.2408 33.4064 23.5192 32.516 23.5175C32.0921 23.517 31.6788 23.5316 31.2714 23.5558C31.9645 21.9248 32.2719 20.1292 32.2082 18.1898C32.1789 17.3019 31.434 16.6057 30.5442 16.6347C29.6537 16.6635 28.9558 17.4077 28.9852 18.2963C29.069 20.8356 28.974 23.1032 27.0833 24.2984C26.5457 24.6382 25.9206 24.9327 25.3279 24.9327C25.788 23.6804 26.1356 22.3585 26.278 20.9336C26.3688 20.0243 26.3784 18.944 26.2746 18.1049C26.1138 16.8045 25.9195 15.33 26.4128 14.2192C26.8559 13.2626 27.8488 12.862 29.3063 12.862C30.1959 12.8612 30.9167 12.1414 30.917 11.2537C30.9175 10.3653 30.1966 9.64448 29.3063 9.64369C27.1402 9.64369 25.4982 10.7845 24.5674 12.1627C24.0807 11.1224 23.4881 10.0506 22.7721 8.94108C22.5407 8.58267 22.1762 8.33057 21.7588 8.24014C21.5519 8.19508 21.3382 8.19111 21.1298 8.22849Z" fill="#808080"/>
<path d="M21.1298 8.22849C20.9213 8.26593 20.7223 8.34402 20.5441 8.45824C19.7951 8.93934 19.579 9.93546 20.0616 10.6826C22.7152 14.7945 23.3415 17.896 23.0699 20.6139C21.9717 25.8189 19.5842 26.8746 17.4978 26.8746C15.4607 26.8746 16.0063 23.5203 17.5374 22.5386C18.4514 21.9674 19.6222 21.5962 20.5208 21.5962C21.4111 21.5963 22.1329 20.8763 22.1331 19.9879C22.1329 19.0995 21.4111 18.3794 20.5208 18.3796C19.4714 18.3796 18.4417 18.6001 17.4808 18.9756C17.677 18.0488 17.7496 17.0471 17.4958 15.9821C17.1105 14.3653 16.001 12.8207 14.0748 11.3236C13.7375 11.0611 13.3095 10.9431 12.8851 10.9956C12.4607 11.0481 12.0747 11.2667 11.8118 11.6033C11.2652 12.3047 11.3918 13.3155 12.0947 13.861C13.6639 15.0806 14.1822 15.9832 14.3593 16.7263C14.5364 17.4694 14.3941 18.2665 14.0382 19.3619C13.5831 20.838 13.055 22.1557 12.8235 23.4193C12.7096 24.0413 12.6999 24.7183 12.6704 25.2591C11.5405 24.157 11.098 22.7018 11.098 20.5756C11.0978 19.6872 10.3759 18.9672 9.48567 18.9673C8.59606 18.9681 7.87523 19.6879 7.875 20.5756C7.875 23.4795 8.72379 26.2427 10.9982 28.0861C13.0573 30.049 18.2933 29.3235 18.2933 32.4745C18.2933 33.3641 19.5944 33.7969 20.4845 33.7969C21.3975 33.7969 22.5465 33.1862 22.5465 32.4745C22.5465 28.8992 26.3121 26.7263 32.511 26.7359C33.4012 26.737 34.1237 26.0176 34.125 25.1292C34.1266 24.2408 33.4064 23.5192 32.516 23.5175C32.0921 23.517 31.6788 23.5316 31.2714 23.5558C31.9645 21.9248 32.2719 20.1292 32.2082 18.1898C32.1789 17.3019 31.434 16.6057 30.5442 16.6347C29.6537 16.6635 28.9558 17.4077 28.9852 18.2963C29.069 20.8356 28.974 23.1032 27.0833 24.2984C26.5457 24.6382 25.9206 24.9327 25.3279 24.9327C25.788 23.6804 26.1356 22.3585 26.278 20.9336C26.3688 20.0243 26.3784 18.944 26.2746 18.1049C26.1138 16.8045 25.9195 15.33 26.4128 14.2192C26.8559 13.2626 27.8488 12.862 29.3063 12.862C30.1959 12.8612 30.9167 12.1414 30.917 11.2537C30.9175 10.3653 30.1966 9.64448 29.3063 9.64369C27.1402 9.64369 25.4982 10.7845 24.5674 12.1627C24.0807 11.1224 23.4881 10.0506 22.7721 8.94108C22.5407 8.58267 22.1762 8.33057 21.7588 8.24014C21.5519 8.19508 21.3382 8.19111 21.1298 8.22849Z" fill="url(#paint1_linear_31_8292)"/>
</g>
</g>
</g>
<defs>
<filter id="filter0_i_31_8292" x="2.625" y="2.625" width="36.75" height="40.75" filterUnits="userSpaceOnUse" color-interpolation-filters="sRGB">
<feFlood flood-opacity="0" result="BackgroundImageFix"/>
<feBlend mode="normal" in="SourceGraphic" in2="BackgroundImageFix" result="shape"/>
<feColorMatrix in="SourceAlpha" type="matrix" values="0 0 0 0 0 0 0 0 0 0 0 0 0 0 0 0 0 0 127 0" result="hardAlpha"/>
<feOffset dy="4"/>
<feGaussianBlur stdDeviation="2"/>
<feComposite in2="hardAlpha" operator="arithmetic" k2="-1" k3="1"/>
<feColorMatrix type="matrix" values="0 0 0 0 0 0 0 0 0 0 0 0 0 0 0 0 0 0 0.25 0"/>
<feBlend mode="normal" in2="shape" result="effect1_innerShadow_31_8292"/>
</filter>
<filter id="filter1_d_31_8292" x="3.875" y="6.20312" width="34.25" height="33.5938" filterUnits="userSpaceOnUse" color-interpolation-filters="sRGB">
<feFlood flood-opacity="0" result="BackgroundImageFix"/>
<feColorMatrix in="SourceAlpha" type="matrix" values="0 0 0 0 0 0 0 0 0 0 0 0 0 0 0 0 0 0 127 0" result="hardAlpha"/>
<feOffset dy="2"/>
<feGaussianBlur stdDeviation="2"/>
<feComposite in2="hardAlpha" operator="out"/>
<feColorMatrix type="matrix" values="0 0 0 0 0 0 0 0 0 0 0 0 0 0 0 0 0 0 0.25 0"/>
<feBlend mode="normal" in2="BackgroundImageFix" result="effect1_dropShadow_31_8292"/>
<feBlend mode="normal" in="SourceGraphic" in2="effect1_dropShadow_31_8292" result="shape"/>
</filter>
<linearGradient id="paint0_linear_31_8292" x1="4.32429e-05" y1="21" x2="42" y2="21" gradientUnits="userSpaceOnUse">
<stop stop-color="#0066FF"/>
<stop offset="1" stop-color="#00CCFF"/>
</linearGradient>
<linearGradient id="paint1_linear_31_8292" x1="7.87503" y1="21" x2="34.125" y2="21" gradientUnits="userSpaceOnUse">
<stop stop-color="#0066FF"/>
<stop offset="1" stop-color="#00CCFF"/>
</linearGradient>
<clipPath id="clip0_31_8292">
<rect width="42" height="42" fill="white"/>
</clipPath>
</defs>
</svg>
