<svg width="42" height="42" viewBox="0 0 42 42" fill="none" xmlns="http://www.w3.org/2000/svg">
<g clip-path="url(#clip0_31_8310)">
<path d="M31.5 0H10.5C4.70101 0 0 4.70101 0 10.5V31.5C0 37.299 4.70101 42 10.5 42H31.5C37.299 42 42 37.299 42 31.5V10.5C42 4.70101 37.299 0 31.5 0Z" fill="url(#paint0_linear_31_8310)"/>
<g filter="url(#filter0_i_31_8310)">
<path d="M31.5 2.625H10.5C6.15076 2.625 2.625 6.15076 2.625 10.5V31.5C2.625 35.8492 6.15076 39.375 10.5 39.375H31.5C35.8492 39.375 39.375 35.8492 39.375 31.5V10.5C39.375 6.15076 35.8492 2.625 31.5 2.625Z" fill="black" fill-opacity="0.7"/>
<path d="M28.793 27.2959C28.4922 27.2002 28.2188 27.0293 28.0274 26.831C27.7539 26.5371 26.127 23.584 26.127 23.372C26.127 23.2558 26.1543 23.2011 26.2158 23.2285C26.2773 23.249 26.4688 22.8867 26.8105 22.0937C27.3848 20.788 27.3984 20.7744 27.8769 21.1367C29.1826 22.1347 30.3447 22.6474 31.5615 22.75C32.0742 22.7978 32.2109 22.8593 32.2109 23.0508C32.2109 23.1191 32.4276 22.8121 32.4549 22.8257C32.4891 22.8326 31.9443 24.0898 31.4727 25.1426C30.666 26.9609 30.6045 27.0771 30.3721 27.1865C30.0986 27.3232 29.0869 27.3916 28.793 27.2959Z" fill="url(#paint1_linear_31_8310)"/>
<path d="M11.7098 27.2412C11.409 27.1182 11.4022 27.1113 10.9852 26.1611C10.7528 25.6348 10.4383 24.917 10.2811 24.5752L9.85693 23.5803L10.3221 23.9531C10.6434 23.96 11.368 23.7891 12.1473 23.5156C12.3729 23.4404 12.7215 23.3311 12.9198 23.2695C13.1659 23.1943 13.2752 23.1328 13.2752 23.0508C13.2752 22.9824 13.3436 22.9141 13.4325 22.8936C13.5145 22.8731 13.87 22.7363 14.2186 22.5791C14.5672 22.4219 14.8954 22.2988 14.9501 22.2988C15.0048 22.2988 15.0526 22.2715 15.0526 22.2305C15.0526 22.1963 15.0936 22.1621 15.1415 22.1621C15.1893 22.1621 15.4413 22.6698 15.4628 22.7158C15.7329 23.296 15.7841 23.3994 15.8797 23.249C15.9207 23.1807 15.9413 23.2148 15.9413 23.3516C15.9413 23.584 14.3348 26.4482 13.9999 26.7969C13.6376 27.1865 13.3163 27.3096 12.6258 27.3369C12.161 27.3506 11.9354 27.3301 11.7098 27.2412Z" fill="url(#paint2_linear_31_8310)"/>
<path d="M28.8613 27.2891C28.8613 27.2549 28.7725 27.2207 28.6562 27.2207C28.4854 27.2207 28.4512 27.1934 28.4512 27.0498C28.4512 26.8994 28.4238 26.8789 28.2119 26.8789C27.9795 26.8789 27.9727 26.8721 27.9727 26.626V26.373L28.2324 26.6191C28.5127 26.8926 28.7861 27.043 29.1211 27.1182C29.4219 27.1797 29.415 27.3574 29.1006 27.3574C28.9707 27.3574 28.8613 27.3301 28.8613 27.2891Z" fill="url(#paint3_radial_31_8310)"/>
<path d="M29.2529 27.1815C29.2513 27.1293 29.7116 27.1416 29.8798 27.084C30.0194 27.0362 30.2558 26.9405 30.3994 26.8379C30.6865 26.6465 30.7412 26.6602 30.6797 26.9131C30.6455 27.0362 30.5908 27.084 30.4678 27.084C30.3652 27.084 30.2968 27.125 30.2968 27.1797C30.2968 27.2823 30.0918 27.3574 29.8046 27.3574C29.6816 27.3574 29.255 27.2498 29.2529 27.1815Z" fill="url(#paint4_radial_31_8310)"/>
<path d="M21.3008 25.7441C21.1367 25.4502 21.0205 25.3135 20.959 25.334C20.8906 25.3613 20.8633 25.3135 20.8633 25.1904C20.8633 24.8691 22.3809 22.251 23.3652 20.8769C23.9121 20.1113 24.0078 20.0088 24.1992 19.9883C24.3838 19.9678 24.418 19.9951 24.459 20.1523C24.4863 20.2549 24.4795 20.3779 24.4453 20.4258C23.8437 21.2666 23.3926 21.9707 23.3926 22.0527C23.3926 22.1074 23.331 22.2715 23.2627 22.415C23.0439 22.8389 21.9707 25.4981 21.9092 25.7715C21.8887 25.8535 21.8477 25.9219 21.8135 25.9219C21.7793 25.9219 22.085 26.8901 22.085 26.9653C22.085 27.2319 21.5469 26.1885 21.3008 25.7441Z" fill="url(#paint5_radial_31_8310)"/>
<path d="M27.4941 25.8877C27.4941 25.5937 27.5899 25.5801 27.7334 25.8535C27.8701 26.1133 27.8633 26.1269 27.665 26.1269C27.5147 26.1269 27.4941 26.0996 27.4941 25.8877Z" fill="url(#paint6_radial_31_8310)"/>
<path d="M27.1523 25.2725C27.1523 24.9785 27.2473 24.9743 27.3909 25.2477C27.5276 25.5075 27.7484 25.8157 27.5501 25.8157C27.3998 25.8157 27.1523 25.4844 27.1523 25.2725Z" fill="url(#paint7_radial_31_8310)"/>
<path d="M26.8107 24.6573C26.8107 24.4658 26.7834 24.418 26.6808 24.418C26.5373 24.418 26.4689 24.2881 26.4689 24.001C26.4689 23.8506 26.4347 23.8028 26.3322 23.8028C26.2502 23.8028 26.1818 23.7412 26.1544 23.6387C26.0998 23.4131 26.0826 23.1719 26.1861 23.203C26.2837 23.2324 27.1525 24.7803 27.1525 24.8555C27.1525 24.876 27.0773 24.8965 26.9816 24.8965C26.8312 24.8965 26.8107 24.8692 26.8107 24.6573Z" fill="url(#paint8_radial_31_8310)"/>
<path d="M28.5879 27.2207C28.5879 27.1865 28.5264 27.1523 28.4512 27.1523C28.376 27.1523 28.3145 27.1045 28.3145 27.0498C28.3145 26.9951 28.2666 26.9473 28.2051 26.9473C28.0342 26.9473 27.9043 26.7695 27.9043 26.5439C27.9043 26.291 27.9574 26.2819 28.1026 26.4893C28.2237 26.6622 28.6358 26.9883 28.8818 27.0498C29.1553 27.1181 29.1143 27.2891 28.8271 27.2891C28.6973 27.2891 28.5879 27.2617 28.5879 27.2207Z" fill="url(#paint9_radial_31_8310)"/>
<path d="M21.6401 26.2103C21.5581 26.0189 21.4991 25.792 21.5948 25.7305C21.629 25.7031 21.6768 25.6211 21.7041 25.5459C21.7793 25.2656 22.8252 22.6817 23.0371 22.2373C23.0987 22.1074 23.1534 21.9502 23.1534 21.8887C23.1602 21.834 23.3242 21.54 23.5225 21.2392C23.7208 20.9385 23.8028 20.7881 23.7071 20.8975C23.6114 21.0137 23.3037 21.4443 23.0371 21.8682C22.7637 22.292 22.5176 22.6338 22.4903 22.6406C22.4561 22.6406 22.4356 22.5312 22.4356 22.4014C22.4356 22.1963 22.4561 22.1621 22.6065 22.1621C22.7364 22.1621 22.7842 22.1143 22.8389 21.9092C22.8799 21.7656 22.9141 21.5947 22.9141 21.5332C22.9141 21.4648 22.9483 21.4102 22.9893 21.4102C23.0987 21.4102 23.2491 21.1982 23.2559 21.0547C23.2559 20.9863 23.2901 20.9316 23.3242 20.9316C23.3653 20.9316 23.3926 20.8906 23.3926 20.8359C23.3926 20.7812 23.4405 20.7266 23.4952 20.6992C23.5498 20.6787 23.5977 20.6172 23.5977 20.5625C23.5977 20.5146 23.6455 20.4531 23.7002 20.4258C23.7549 20.4053 23.8028 20.3574 23.8028 20.3233C23.8028 20.2412 24.1856 19.8379 24.2608 19.8379C24.336 19.8379 24.6807 20.527 24.7371 20.659C24.7597 20.7117 24.5957 20.6582 24.5684 20.6582C24.5411 20.6582 24.4659 20.7607 24.4112 20.8838C24.3496 21 24.0215 21.6563 23.6797 22.333C23.3379 23.0098 23.0371 23.6592 23.0098 23.7686C22.9483 24.0283 22.4903 25.1836 22.2442 25.6963C21.9776 26.25 21.8751 26.4004 21.7451 26.4004C21.6836 26.4004 21.6812 26.2923 21.6401 26.2103Z" fill="url(#paint10_radial_31_8310)"/>
<path d="M27.2207 25.4092C27.2207 25.1153 27.2891 25.1084 27.4463 25.3682C27.5967 25.6279 27.5967 25.6485 27.3916 25.6485C27.2412 25.6485 27.2207 25.6211 27.2207 25.4092Z" fill="url(#paint11_radial_31_8310)"/>
<path d="M26.8789 24.7939C26.8789 24.5 26.9553 24.4885 27.1045 24.7529C27.3894 25.2578 27.3193 25.1505 27.0498 25.0332C26.9119 24.9732 26.8789 25.0058 26.8789 24.7939Z" fill="url(#paint12_radial_31_8310)"/>
<path d="M10.2128 24.2334C10.124 24.1309 9.91891 23.7549 9.75485 23.3857L9.35693 22.4425L9.79587 22.6885C10.6162 22.5928 14.0957 20.918 14.0957 20.624C14.0957 20.5488 14.3459 20.258 14.38 20.3127C14.3937 20.3264 14.663 20.8975 14.8818 21.3965C15.13 21.9587 15.2357 22.2791 15.3027 22.4196C15.3551 22.5294 15.2694 22.5648 15.1894 22.5381C15.1211 22.5176 14.8135 22.6133 14.499 22.75C14.1845 22.8867 13.8154 23.044 13.6855 23.0986L13.4463 23.1943L13.7539 23.1602C14.1572 23.1192 13.9931 23.2148 13.289 23.4267C13.0019 23.5088 12.5781 23.6455 12.3525 23.7275C11.915 23.8779 10.7119 24.2129 10.541 24.2334C10.4863 24.2402 10.4248 24.2812 10.4043 24.3291C10.3838 24.3838 10.3154 24.3428 10.2128 24.2334Z" fill="url(#paint13_linear_31_8310)"/>
<path d="M9.72076 23.0371C9.72076 22.9687 9.67975 22.9141 9.63191 22.9141C9.54988 22.9141 9.39743 22.5759 9.07613 21.8239C9.06248 21.7966 9.3653 21.8067 9.6866 21.6904C10.8145 21.2803 11.8057 20.7402 12.7628 20.0156C13.3438 19.5644 13.4806 19.4414 13.4806 19.332C13.4806 19.2705 13.5284 19.2227 13.5831 19.2227C13.6378 19.2227 13.6856 19.1953 13.6856 19.1543C13.6856 19.1201 13.7266 19.0859 13.7745 19.0859C13.8633 19.0859 14.4649 20.4053 14.5333 20.7608C14.5743 20.9453 14.5675 20.9521 14.4854 20.8496C14.3692 20.7061 14.3009 20.6924 14.3009 20.8223C14.3009 21.082 11.6417 22.415 10.1993 22.8731C9.99422 22.9414 9.80279 23.0303 9.77546 23.0781C9.74127 23.126 9.72076 23.1123 9.72076 23.0371Z" fill="url(#paint14_linear_31_8310)"/>
<path d="M13.207 27.0977C13.207 27.0703 13.2959 26.9951 13.4053 26.9267C13.5078 26.8652 13.7129 26.7012 13.8496 26.5576L14.0957 26.3047V26.5303C14.0957 26.7695 13.9658 26.9473 13.7949 26.9473C13.7334 26.9473 13.6855 26.9951 13.6855 27.0498C13.6855 27.1182 13.6104 27.1523 13.4463 27.1523C13.3164 27.1523 13.207 27.125 13.207 27.0977Z" fill="url(#paint15_linear_31_8310)"/>
<path d="M8.92089 21.5195L8.64746 20.8975L8.83203 20.8564C9.43358 20.7266 10.7529 20.0361 11.5049 19.4551C12.0039 19.0723 12.9336 18.1358 12.9336 18.0195C12.9336 17.9648 12.9678 17.9238 13.0019 17.9238C13.043 17.9238 13.0703 17.876 13.0703 17.8213C13.0703 17.7666 13.1115 17.7223 13.1592 17.7187C13.1848 17.7169 13.2316 17.743 13.3065 17.8844C13.4437 18.1436 13.6689 18.6697 13.9135 19.2705C13.9238 19.2958 14.0495 19.5714 14.0837 19.6603C14.1179 19.7492 14 19.6328 13.959 19.6328C13.918 19.6328 13.8906 19.585 13.8906 19.5303C13.8906 19.4756 13.8428 19.4278 13.7881 19.4278C13.7334 19.4278 13.6856 19.4756 13.6856 19.5371C13.6856 19.6465 13.5488 19.7695 12.9678 20.2207C12.0859 20.8906 10.958 21.5195 10.1035 21.8203C9.91212 21.8887 9.66603 21.9844 9.5498 22.0254C9.44044 22.0733 9.31054 22.1211 9.26952 22.1279C9.2285 22.1416 9.0713 21.8682 8.92089 21.5195Z" fill="url(#paint16_linear_31_8310)"/>
<path d="M25.8945 32.1357C25.1631 31.9649 24.5137 31.4522 24.0693 30.6934C23.6865 30.0371 23.6797 30.0234 23.9258 30.0234C24.0351 30.0234 24.3427 29.9209 24.5957 29.8047C25.1289 29.5586 25.8057 29.4766 26.2158 29.6065C26.4961 29.7021 27.1933 30.3242 27.6309 30.8643L27.9385 31.2539L28.3144 31.2129L29.3849 29.7426C29.4992 29.6132 29.0918 30.5577 28.4648 31.4111C27.8769 32.0195 26.7627 32.3408 25.8945 32.1357Z" fill="url(#paint17_radial_31_8310)"/>
<path d="M28.793 27.2207C28.793 27.0771 28.8613 27.0566 29.1211 27.125C29.3672 27.1934 29.3057 27.3574 29.0322 27.3574C28.8408 27.3574 28.793 27.3301 28.793 27.2207Z" fill="url(#paint18_radial_31_8310)"/>
<path d="M21.7793 26.6191C21.5742 26.2363 21.5742 26.2295 21.6973 26.0996C21.8818 25.9014 22.6816 24.0899 22.8047 23.584C22.8799 23.2627 24.2471 20.5283 24.3769 20.4395C24.4316 20.3985 24.4316 20.3848 24.3769 20.3848C24.3359 20.3848 24.3017 20.3369 24.3017 20.2822C24.3017 20.0772 24.4658 20.1865 24.6777 20.542C24.8828 20.877 24.917 21.1367 24.7597 21.1367C24.664 21.1367 23.2695 24.0215 23.2217 24.3154C23.1465 24.7734 23.0439 25.0332 22.5927 25.9561C22.3603 26.4414 23.9633 30.5062 23.9872 30.5476C24.0913 30.7277 21.9775 26.9815 21.7793 26.6191Z" fill="url(#paint19_radial_31_8310)"/>
<path d="M28.1094 26.8037V26.5986L28.3145 26.7422C28.6152 26.9541 28.6221 27.0156 28.3555 27.0156C28.1299 27.0156 28.1094 27.002 28.1094 26.8037Z" fill="url(#paint20_radial_31_8310)"/>
<path d="M30.3813 26.8586C30.3813 26.8381 30.543 26.7763 30.6729 26.6396L30.9161 26.3814L30.796 26.667C30.7208 26.8515 30.6456 26.9473 30.5567 26.9473C30.4883 26.9473 30.3813 26.8723 30.3813 26.8586Z" fill="url(#paint21_radial_31_8310)"/>
<path d="M27.5625 26.0244C27.5625 25.7236 27.624 25.7236 27.8223 26.0244L27.9679 26.2909L27.7676 26.2637C27.5762 26.2637 27.5625 26.2432 27.5625 26.0244Z" fill="url(#paint22_radial_31_8310)"/>
<path d="M26.6055 24.3154C26.6055 24.0146 26.667 24.0146 26.8652 24.3154L27.018 24.5792L26.8105 24.5547C26.6192 24.5547 26.6055 24.5342 26.6055 24.3154Z" fill="url(#paint23_radial_31_8310)"/>
<path d="M26.2637 23.7002C26.2637 23.3994 26.3252 23.3994 26.5234 23.7002L26.7011 24.0154L26.4688 23.9395C26.2774 23.9395 26.2637 23.919 26.2637 23.7002Z" fill="url(#paint24_radial_31_8310)"/>
<path d="M14.5401 20.959C14.4786 20.8633 14.4444 20.7676 14.4581 20.7471C14.4786 20.7266 14.547 20.8086 14.6085 20.9248C14.7383 21.1846 14.7042 21.2051 14.5401 20.959Z" fill="url(#paint25_linear_31_8310)"/>
<path d="M13.1865 31.001C13.1592 30.9805 13.1387 30.8711 13.1387 30.7617C13.1387 30.5908 13.1592 30.5703 13.3779 30.5703C13.6035 30.5703 13.6172 30.584 13.6172 30.8096C13.6172 31.0283 13.5967 31.0488 13.4258 31.0488C13.3164 31.0488 13.207 31.0283 13.1865 31.001Z" fill="#00B0E7"/>
<path d="M8.79115 21.1436C8.81848 21.1094 8.79154 21.0986 8.75633 21.0879C8.69084 21.068 8.19101 19.9533 8.25519 19.919C8.2757 19.8985 9.03038 19.6055 9.54994 19.4072C9.66613 19.3594 9.76867 19.3047 9.78917 19.2842C9.80968 19.2569 10.0216 19.0928 10.2677 18.9082C11.1154 18.2861 12.0382 17.2949 12.1407 16.8985C12.2365 16.5088 12.2911 16.5019 12.6193 16.8232C12.9474 17.1514 13.2687 17.6846 13.3234 17.999C13.3439 18.1563 13.3302 18.1904 13.2482 18.1563C13.1798 18.1289 13.1388 18.1494 13.1388 18.2178C13.1388 18.3408 12.2228 19.2637 11.7101 19.6601C11.1632 20.084 10.3908 20.5283 9.74133 20.8018C9.3927 20.9453 9.17394 21.0752 9.17394 21.1367C9.17394 21.2256 9.16711 21.2256 9.10559 21.1367C9.06457 21.0752 9.01673 21.0615 8.98937 21.1026C8.92102 21.1914 8.74327 21.2324 8.79115 21.1436Z" fill="url(#paint26_linear_31_8310)"/>
<path d="M14.8272 32.1426C14.4922 32.0537 13.8906 31.7461 13.8906 31.6641C13.8906 31.623 14 31.5957 14.1299 31.5957C14.2598 31.5957 14.3691 31.6162 14.3691 31.6504C14.3691 31.6777 14.6699 31.6914 15.0322 31.6846C15.5039 31.6709 15.75 31.6914 15.8936 31.7666C16.0098 31.8213 16.1397 31.8691 16.1943 31.8691C16.3242 31.8691 16.3037 32.0537 16.167 32.1084C15.9619 32.1836 15.1006 32.2109 14.8272 32.1426Z" fill="url(#paint27_linear_31_8310)"/>
<path d="M28.1094 31.5615C28.1094 31.4863 28.0615 31.4658 27.9522 31.4932C27.8223 31.5273 27.7334 31.459 27.4326 31.0899C26.9678 30.5156 26.3594 29.9619 26.0586 29.832C25.9219 29.7774 25.7031 29.75 25.5391 29.7705C25.2109 29.8047 24.4453 30.1396 24.2539 30.3379C24.1035 30.4814 23.9531 30.5225 23.9668 30.4062C23.9668 30.3652 23.9463 30.3242 23.9121 30.3174C23.8574 30.3037 23.6592 29.9756 23.0303 28.8476L22.7705 28.3828H22.9824C23.1191 28.3828 23.1875 28.417 23.1875 28.4854C23.1875 28.5947 23.2969 28.6289 23.3379 28.5332C23.3515 28.5059 23.6182 28.2666 23.9395 28.0137C24.4932 27.5557 24.5137 27.5351 24.4932 27.2822C24.4795 27.0224 24.4795 27.0156 24.7051 27.0156C24.917 27.0156 24.958 27.0635 25.3066 27.6035C25.5117 27.9317 25.8877 28.3828 26.1338 28.6221C26.7012 29.1553 27.0771 29.2988 27.6924 29.2305C27.9863 29.1963 28.1094 29.21 28.1094 29.2647C28.1094 29.3057 28.1436 29.3398 28.1914 29.3398C28.2324 29.3398 28.417 29.4629 28.5947 29.6133C28.7793 29.7637 28.9912 29.8867 29.0869 29.8867C29.1758 29.8867 29.3106 29.9027 29.3311 29.9232C29.2199 30.1327 28.7863 31.0339 28.4514 31.3825C28.0822 31.779 28.1094 31.7256 28.1094 31.5615Z" fill="url(#paint28_radial_31_8310)"/>
<path d="M22.162 27.2822C21.9159 26.8584 21.8681 26.6192 21.9979 26.5029C22.162 26.3526 22.9208 24.6299 22.9892 24.2539C23.0302 24.0352 23.1943 23.584 23.3583 23.2559C23.5155 22.9209 23.6317 22.6338 23.6112 22.6133C23.5907 22.5928 23.6112 22.5723 23.6523 22.5723C23.7001 22.5723 23.7275 22.5518 23.7206 22.5244C23.6933 22.4492 24.4564 20.8624 24.6068 20.6983C24.7299 20.5685 24.7528 20.7129 24.9579 21.041C25.163 21.3692 25.163 21.376 25.04 21.5811C24.746 22.0664 24.2743 22.9277 23.9394 23.5977C23.6386 24.1924 23.577 24.3701 23.5907 24.6436C23.6044 25.0059 23.454 25.5049 23.0985 26.2773C22.9687 26.5645 22.8388 26.8926 22.8114 27.002C22.7909 27.1182 22.7226 27.2481 22.6679 27.2959C22.6132 27.3369 22.5722 27.4463 22.5722 27.5352C22.5722 27.8154 22.4013 27.7129 22.162 27.2822Z" fill="url(#paint29_radial_31_8310)"/>
<path d="M29.6886 27.2549C29.7022 27.1865 29.7911 27.1182 29.88 27.1045C29.9757 27.0908 30.0851 27.0498 30.1261 27.0156C30.1739 26.9814 30.2286 26.9678 30.2491 26.9951C30.2765 27.0156 30.297 27.0019 30.297 26.9609C30.297 26.9131 30.3312 26.8789 30.3722 26.8789C30.42 26.8789 30.4839 26.8134 30.5431 26.7627C30.6663 26.6571 30.6319 26.6602 30.6388 26.8652C30.6438 27.0156 30.5978 27.1045 30.5226 27.1318C30.4542 27.1592 30.379 27.207 30.3585 27.2412C30.3312 27.2754 30.1671 27.3232 29.9893 27.3437C29.7091 27.3711 29.6681 27.3643 29.6886 27.2549Z" fill="url(#paint30_radial_31_8310)"/>
<path d="M27.8358 26.667C27.8358 26.626 27.7879 26.5508 27.7332 26.4961C27.6307 26.3867 27.5897 25.9219 27.6854 25.9219C27.7264 25.9219 27.8495 26.0928 28.1366 26.5576L28.2459 26.7422H28.0409C27.9315 26.7422 27.8358 26.708 27.8358 26.667Z" fill="url(#paint31_radial_31_8310)"/>
<path d="M27.2891 25.5459C27.2891 25.2451 27.3506 25.2451 27.5488 25.5459L27.7158 25.8271L27.4941 25.7852C27.3027 25.7852 27.2891 25.7647 27.2891 25.5459Z" fill="url(#paint32_radial_31_8310)"/>
<path d="M26.9473 24.9307C26.9473 24.7393 26.9199 24.6914 26.8106 24.6914C26.7012 24.6914 26.6738 24.6436 26.6738 24.4522C26.6738 24.3223 26.6943 24.2129 26.7148 24.2129C26.7764 24.2129 27.0088 24.5137 27.0156 24.5889C27.0156 24.6299 27.0908 24.7734 27.1865 24.917L27.3826 25.2323L27.1523 25.1699C26.9609 25.1699 26.9473 25.1494 26.9473 24.9307Z" fill="url(#paint33_radial_31_8310)"/>
<path d="M26.332 23.8369C26.332 23.5567 26.3662 23.543 26.5439 23.7549C26.7149 23.9668 26.708 24.0762 26.5029 24.0762C26.3525 24.0762 26.332 24.0488 26.332 23.8369Z" fill="url(#paint34_radial_31_8310)"/>
<path d="M27.7402 26.4961C27.7197 26.4346 27.6992 26.2978 27.6992 26.1885C27.6992 26.0381 27.665 25.9902 27.5625 25.9902C27.4531 25.9902 27.4258 25.9424 27.4258 25.7441C27.4258 25.5254 27.4395 25.5049 27.5351 25.5869C27.5967 25.6348 27.6924 25.792 27.7471 25.9356C27.8017 26.0791 27.7906 26.2054 27.8316 26.2054C27.8657 26.2054 27.959 26.2295 27.9385 26.2637C27.918 26.3047 27.9248 26.332 27.959 26.332C27.9932 26.332 28.041 26.3936 28.0615 26.4688C28.0889 26.5781 28.0615 26.6055 27.9385 26.6055C27.8496 26.6055 27.7607 26.5576 27.7402 26.4961Z" fill="url(#paint35_radial_31_8310)"/>
<path d="M27.084 25.1221C27.084 24.8828 27.0908 24.876 27.2139 24.9922C27.2822 25.0605 27.3409 25.1745 27.3779 25.2451C27.4272 25.3391 27.3779 25.375 27.248 25.375C27.1045 25.375 27.084 25.3408 27.084 25.1221Z" fill="url(#paint36_radial_31_8310)"/>
<path d="M26.7422 24.5068C26.7422 24.2607 26.7422 24.2607 26.8652 24.3906C26.9336 24.459 27.0088 24.5752 27.0361 24.6436C27.0703 24.7324 27.043 24.7598 26.9131 24.7598C26.7627 24.7598 26.7422 24.7324 26.7422 24.5068Z" fill="url(#paint37_radial_31_8310)"/>
<path d="M26.4004 23.8916C26.4004 23.6455 26.4004 23.6455 26.5234 23.7754C26.5918 23.8438 26.667 23.96 26.6943 24.0283C26.7285 24.1172 26.7012 24.1445 26.5713 24.1445C26.4209 24.1445 26.4004 24.1172 26.4004 23.8916Z" fill="url(#paint38_radial_31_8310)"/>
<path d="M26.0587 23.3242C26.0587 23.1397 25.9486 22.8524 26.1817 23.1853C26.2204 23.2407 26.2908 23.3592 26.3413 23.4196C26.3686 23.5153 26.3458 23.5293 26.2227 23.5293C26.086 23.5293 26.0587 23.4951 26.0587 23.3242Z" fill="url(#paint39_radial_31_8310)"/>
<path d="M31.9783 23.4267C31.9578 23.3721 31.9578 23.2832 31.9783 23.2354C32.033 23.0781 31.8621 23.0029 31.3563 22.9551C30.1395 22.8525 28.9774 22.3398 27.6717 21.3418L27.3983 21.1299L27.1659 21.4922C27.0428 21.6904 26.9471 21.8203 26.9608 21.7793C26.9744 21.7383 27.3162 20.9453 27.7332 20.0156C28.3279 18.6689 28.5057 18.334 28.6082 18.334C28.6834 18.334 28.9227 18.5322 29.1483 18.7783C29.702 19.3731 30.4402 19.8584 31.1375 20.084C31.6502 20.2549 31.7869 20.2685 32.6688 20.2617L33.6396 20.248L33.5165 20.542C32.8672 22.0391 32.2586 23.3584 32.1766 23.4336C32.0604 23.5567 32.0262 23.5567 31.9783 23.4267Z" fill="url(#paint40_linear_31_8310)"/>
<path d="M9.19334 20.343C9.15915 20.2952 8.47003 20.3355 8.44269 20.356C8.40388 20.3636 8.34363 20.2709 8.25743 19.9973C8.21022 19.8473 7.96097 19.2179 8.0389 19.1971C8.0851 19.1848 8.05639 19.2808 8.04031 19.2317C8.01026 19.1397 8.06666 19.2907 8.06 19.2061C8.02699 18.7873 8.27174 18.0044 8.31112 17.9676C8.48069 17.8087 8.96891 18.4707 8.96891 18.3682C8.96891 18.3203 9.11932 18.1836 9.29703 18.0674C9.66617 17.835 10.0695 17.459 10.4318 17.0147C10.6095 16.8027 10.6847 16.6318 10.7189 16.3652L10.6836 16.0619C10.8029 15.9697 11.4355 16.0867 11.3933 16.1213C11.1649 16.0145 11.7144 16.2176 12.0724 16.4063C12.1874 16.4669 12.3574 16.5812 12.423 16.642C12.5658 16.7745 12.5104 16.8501 12.4074 16.9531C12.3596 17.001 12.3322 17.0762 12.3596 17.1103C12.4142 17.1992 11.8058 17.9443 11.3137 18.4023C10.4797 19.168 10.2541 19.3662 10.3088 19.2773C10.3634 19.1816 10.1652 19.3115 10.0285 19.4619C9.9943 19.4961 9.87811 19.5645 9.78239 19.5986C8.77751 19.9883 9.50077 20.2896 9.48708 20.3785C9.46657 20.4605 9.23436 20.4113 9.19334 20.343Z" fill="url(#paint41_linear_31_8310)"/>
<path d="M15.9754 32.0879C15.9002 32.0742 15.8045 32.0332 15.7635 31.999C15.6541 31.9102 14.8475 31.8623 14.6082 31.9307C14.2459 32.0332 13.5418 31.5478 13.1316 30.919L12.9717 30.5519L13.2274 30.4473C13.3846 30.3516 13.658 30.1533 13.8289 30.0098C14.0067 29.8662 14.1844 29.75 14.2254 29.75C14.2664 29.75 14.3006 29.7021 14.3006 29.6475C14.3006 29.5723 14.3758 29.5449 14.5945 29.5449C15.2986 29.5449 16.1258 28.8818 16.8299 27.7539C17.1717 27.207 17.2264 27.1523 17.4246 27.1523C17.5408 27.1523 17.6502 27.1934 17.6707 27.2412C17.7186 27.3642 17.657 29.0117 17.5682 29.7979C17.4861 30.5498 17.5271 30.707 17.8006 30.707C17.9168 30.707 17.91 30.7344 17.7254 31.001C17.2879 31.6436 16.4197 32.1836 15.9754 32.0879Z" fill="url(#paint42_linear_31_8310)"/>
<path d="M29.0664 30.1943C29.0664 30.1123 29.0391 30.0986 28.9502 30.1533C28.8613 30.2012 28.752 30.1465 28.458 29.8799C28.2529 29.6953 28.041 29.5449 27.9932 29.5449C27.9453 29.5449 27.9043 29.5244 27.9043 29.4971C27.9043 29.4629 27.7197 29.4561 27.4941 29.4629C26.9814 29.4971 26.5029 29.3399 26.1543 29.0322L25.8877 28.7998L26.1338 28.793C26.2705 28.793 26.3936 28.8135 26.4209 28.834C26.4756 28.8955 27.3369 28.8887 27.6924 28.8272C27.8564 28.7998 28.2051 28.7041 28.4649 28.6084C28.7315 28.5195 29.1895 28.4238 29.4902 28.4033L30.0757 28.2379L29.9346 28.5947C29.3467 29.9756 29.0664 30.4883 29.0664 30.1943Z" fill="url(#paint43_radial_31_8310)"/>
<path d="M23.1192 28.9297C23.0645 28.8955 23.044 28.8613 23.0782 28.8613C23.1192 28.8613 23.0851 28.8135 23.0099 28.7588C22.9415 28.7041 22.9142 28.6563 22.9484 28.6563C22.9894 28.6563 22.9894 28.6357 22.9415 28.6016C22.8116 28.5127 22.3605 27.6377 22.3331 27.419C22.3126 27.2549 22.34 27.1729 22.4288 27.1045C22.504 27.0566 22.5792 26.9199 22.6066 26.8037C22.6339 26.6875 22.7638 26.3594 22.8937 26.0723C23.256 25.2793 23.379 24.8623 23.3448 24.5342C23.3175 24.2949 23.3653 24.1377 23.6319 23.5977C24.1241 22.5859 24.8506 21.047 24.9326 21.047C24.9736 21.047 25.1563 21.376 25.2657 21.5811C25.4503 21.916 25.5926 22.0745 25.4968 22.1839C25.408 22.2933 24.5001 23.584 24.295 24.0078C24.0763 24.4795 23.9327 24.9443 23.9669 25.1016C23.9806 25.2041 24.2062 25.6485 24.4591 26.0996C24.712 26.5439 24.9855 27.0361 25.0607 27.1797C25.1427 27.3301 25.2521 27.5078 25.3136 27.5762C25.3751 27.6445 25.464 27.7881 25.5187 27.8906C25.5734 27.9932 25.6554 28.1025 25.6964 28.1299C25.7442 28.1572 25.7853 28.294 25.7853 28.4307C25.7853 28.6768 25.7853 28.6768 25.6417 28.5469C25.5597 28.4785 25.3409 28.1709 25.1427 27.877C24.8077 27.3574 24.7941 27.3438 24.7599 27.542C24.7325 27.6992 24.589 27.8564 24.1446 28.2119C23.8233 28.4717 23.4952 28.752 23.4132 28.8408C23.2423 29.0186 23.256 29.0186 23.1192 28.9297Z" fill="url(#paint44_radial_31_8310)"/>
<path d="M28.9502 27.3779C28.7656 27.3506 28.7246 27.3164 28.7246 27.1865C28.7246 27.0361 28.7451 27.0225 28.9024 27.084C28.998 27.125 29.2578 27.1523 29.4766 27.1523C29.6953 27.1523 29.9551 27.125 30.0508 27.084C30.208 27.0293 30.2285 27.0361 30.2285 27.1797C30.2285 27.3164 30.1875 27.3437 29.9141 27.3848C29.5859 27.4258 29.3398 27.4258 28.9502 27.3779Z" fill="url(#paint45_radial_31_8310)"/>
<path d="M28.1777 26.8789C28.1777 26.6944 28.1572 26.6738 27.9727 26.6738C27.7813 26.6738 27.7676 26.6533 27.7676 26.4346C27.7676 26.1338 27.8291 26.1338 28.0274 26.4346C28.1094 26.5645 28.2871 26.7422 28.417 26.8242C28.7178 27.0225 28.7178 27.084 28.417 27.084C28.1982 27.084 28.1777 27.0703 28.1777 26.8789Z" fill="url(#paint46_radial_31_8310)"/>
<path d="M13.959 26.4961C13.959 26.4141 14.1914 26.0586 14.2461 26.0586C14.2734 26.0586 14.3008 26.168 14.3008 26.2979C14.3008 26.5098 14.2803 26.5371 14.1299 26.5371C14.0342 26.5371 13.959 26.5166 13.959 26.4961Z" fill="#00B2F7"/>
<path d="M27.3984 25.9492C27.3779 25.8877 27.3574 25.751 27.3574 25.6416C27.3574 25.4912 27.3232 25.4434 27.2276 25.4434C27.084 25.4434 27.0156 25.3135 27.0156 25.0264C27.0156 24.876 26.9815 24.8281 26.8789 24.8281C26.7695 24.8281 26.7422 24.7803 26.7422 24.5889C26.7422 24.459 26.7695 24.3496 26.7969 24.3496C26.8516 24.3496 27.7676 25.9287 27.7676 26.0176C27.7676 26.1133 27.4395 26.0518 27.3984 25.9492Z" fill="url(#paint47_radial_31_8310)"/>
<path d="M26.4004 23.9736C26.4004 23.6797 26.4687 23.6729 26.626 23.9326C26.7764 24.1924 26.7764 24.2129 26.5713 24.2129C26.4209 24.2129 26.4004 24.1856 26.4004 23.9736Z" fill="url(#paint48_radial_31_8310)"/>
<path d="M26.0586 23.3447L26.0654 23.085L26.2295 23.2764C26.4482 23.5224 26.4414 23.5977 26.2295 23.5977C26.0791 23.5977 26.0586 23.5703 26.0586 23.3447Z" fill="url(#paint49_radial_31_8310)"/>
<path d="M13.2615 18.1836C13.1111 18.0332 13.1111 17.9922 13.2341 17.9922C13.282 17.9922 13.3435 18.0605 13.364 18.1426C13.4187 18.334 13.4051 18.3408 13.2615 18.1836Z" fill="url(#paint50_linear_31_8310)"/>
<path d="M13.9726 26.4346C14.1709 26.1338 14.2324 26.1338 14.2324 26.4346C14.2324 26.6533 14.2187 26.6738 14.0273 26.6738H13.8223L13.9726 26.4346Z" fill="#00C8E6"/>
<path d="M15.3945 24.042C15.3945 23.9463 15.6133 23.5977 15.668 23.5977C15.709 23.5977 15.7363 23.707 15.7363 23.8369C15.7363 24.0488 15.7158 24.0762 15.5654 24.0762C15.4697 24.0762 15.3945 24.0625 15.3945 24.042Z" fill="#00C8E6"/>
<path d="M8.02502 19.2551C7.88688 18.079 8.50894 16.8721 9.46106 16.3447C9.90364 16.0996 10.9699 15.9413 11.0113 16.0719C11.0318 16.1198 11.0455 16.262 11.1002 16.2415C11.2711 16.1732 11.2316 16.2149 11.0675 16.4336C10.9718 16.5566 10.9103 16.6934 10.9308 16.7344C10.9923 16.9053 10.1105 17.8623 9.54992 18.2383C9.36535 18.3682 9.20814 18.5049 9.20814 18.5527C9.20814 18.6553 9.15482 19.2739 9.10012 19.1918C9.07279 19.1508 9.16102 19.2687 9.0995 19.3234C9.01747 19.3849 8.0474 19.4452 8.02502 19.2551Z" fill="url(#paint51_linear_31_8310)"/>
<path d="M17.3702 30.7959C17.3087 30.6865 17.3019 30.4814 17.3429 30.0439C17.3771 29.7158 17.4044 29.0527 17.4113 28.5742C17.4181 28.0957 17.4386 27.6787 17.4659 27.6582C17.5411 27.5762 17.5206 27.4942 17.4249 27.4942C17.3771 27.4942 17.1583 27.7676 16.9464 28.0957C16.2902 29.1279 15.4767 29.75 14.7999 29.75C14.5675 29.75 14.5197 29.7705 14.547 29.8526C14.5743 29.9209 14.547 29.9551 14.4718 29.9551C14.4103 29.9551 14.212 30.0713 14.0343 30.2148C13.8634 30.3584 13.6241 30.5361 13.5011 30.6045C13.3849 30.6729 13.3028 30.7685 13.3233 30.8164C13.3507 30.8848 13.3233 30.8916 13.1866 30.8232C13.0636 30.7685 12.9269 30.543 12.674 29.9824L11.8174 27.918C13.0532 28.1185 14.6483 28.0082 14.6483 28.0082C15.1883 27.9193 14.7717 27.5646 15.2776 27.7355C15.8518 27.9338 15.1249 28.4017 15.6171 28.0736C15.7675 27.9711 15.9634 28.0038 16.0318 27.9628C16.107 27.9286 16.216 28.1151 16.216 28.074C16.216 28.033 16.4651 28.2451 16.5267 28.1973C16.7181 28.0401 16.796 27.7608 17.8966 25.8809C18.4845 24.8692 19.2433 23.5908 19.5851 23.0303C20.1866 22.0664 20.2208 22.0254 20.4327 22.0254C20.6446 22.0254 20.6583 22.0391 20.6583 22.251C20.6583 22.3672 20.5763 22.5928 20.4874 22.7432C20.3917 22.8935 20.3165 23.085 20.3165 23.167C20.3165 23.2422 20.2413 23.4746 20.1456 23.6797C20.0499 23.8779 19.9747 24.1035 19.9747 24.1787C19.9747 24.2539 19.9269 24.4111 19.8653 24.5205C19.6671 24.8897 19.2159 26.2158 18.9288 27.2549C18.7101 28.0547 18.6486 28.4101 18.6417 28.8613L18.6349 29.4424L18.2042 30.2012C17.8487 30.8232 17.7462 30.9531 17.6163 30.9531C17.5206 30.9531 17.4181 30.8916 17.3702 30.7959Z" fill="url(#paint52_linear_31_8310)"/>
<path d="M26.1064 28.9707C25.7168 28.6768 25.2383 28.0273 24.6093 26.9336C23.9053 25.6963 23.7207 25.334 23.6933 25.0947C23.6728 24.917 23.8779 24.2539 24.0898 23.8027C24.3632 23.2422 25.122 21.8887 25.2109 21.8135C25.3339 21.7109 25.3544 21.7383 25.6416 22.2373C25.792 22.5176 25.9422 22.7181 25.8806 22.7455C25.7917 22.7728 25.0332 23.9326 25.0332 24.0625C25.0332 24.0967 24.9238 24.3564 24.7939 24.6299C24.664 24.9101 24.5273 25.3203 24.4931 25.5459C24.4316 25.9219 24.4385 25.9834 24.6093 26.332C24.7119 26.5371 24.8349 26.7422 24.8828 26.7969C24.9238 26.8447 24.9648 26.9336 24.9648 26.9814C24.9648 27.0703 25.3476 27.2207 25.5664 27.2207C25.6074 27.2207 25.6484 27.248 25.6484 27.2822C25.6484 27.3096 25.915 27.2822 26.25 27.2139C26.5781 27.1455 27.1455 27.0635 27.5215 27.043C28.0752 27.0019 28.205 26.9746 28.2255 26.8789C28.2529 26.7763 28.272 26.8495 28.6357 26.9678C29.2686 27.1737 30.1151 27.2107 30.666 26.749C30.8583 26.5878 30.8567 26.5558 30.2968 27.7881C29.921 28.6153 29.75 28.8887 29.75 28.6494C29.75 28.5537 29.2099 28.6357 28.622 28.834C27.9248 29.0596 27.3847 29.1553 27.0361 29.1006C26.8515 29.0732 26.7422 29.0801 26.7695 29.1211C26.79 29.1553 26.7148 29.1826 26.6054 29.1894C26.4756 29.1894 26.291 29.1142 26.1064 28.9707Z" fill="url(#paint53_radial_31_8310)"/>
<path d="M27.6102 26.3662C27.5487 26.2295 27.494 26.0312 27.494 25.9219C27.494 25.7646 27.4598 25.7168 27.3641 25.7168C27.2206 25.7168 27.1522 25.5869 27.1522 25.2998C27.1522 25.1494 27.118 25.1016 27.0223 25.1016C26.8787 25.1016 26.8104 24.9717 26.8104 24.6846C26.8104 24.5342 26.7762 24.4863 26.6805 24.4863C26.5369 24.4863 26.4686 24.3565 26.4686 24.0693C26.4686 23.9189 26.4344 23.8711 26.3387 23.8711C26.2703 23.8711 26.1883 23.8233 26.1678 23.7617C26.1063 23.6045 26.12 23.2559 26.1815 23.2559C26.2157 23.2559 26.6532 24.0078 27.1659 24.9307C28.0819 26.5713 28.0955 26.6055 27.911 26.6055C27.7674 26.6055 27.6991 26.5508 27.6102 26.3662Z" fill="url(#paint54_radial_31_8310)"/>
<path d="M15.4763 23.8916C15.7156 23.3857 15.8045 23.3379 15.8045 23.7002C15.8045 23.9121 15.784 23.9394 15.6268 23.9394C15.531 23.9394 15.4627 23.9189 15.4763 23.8916Z" fill="#00BFF9"/>
<path d="M24.8416 27.2754C24.657 26.9609 24.3973 26.5166 24.2742 26.2842C24.0486 25.874 24.0486 25.8604 24.1717 25.7305C24.24 25.6484 24.2742 25.5596 24.2537 25.5254C24.2059 25.4434 24.4314 24.7256 24.6434 24.3018C24.7459 24.1035 24.8279 23.9121 24.8279 23.8711C24.8279 23.7344 25.5457 22.3057 25.6141 22.3057C25.6551 22.2988 25.7644 22.4492 25.8602 22.627C27.8357 26.2432 28.1639 26.7627 28.656 27.0156C28.786 27.0908 28.868 27.1455 28.827 27.1523C28.7928 27.1523 28.8065 27.1865 28.8611 27.2275C28.9363 27.2822 28.9158 27.2891 28.7586 27.2481C28.3143 27.1387 27.0633 27.2686 25.9559 27.5283C25.5867 27.6172 25.5389 27.6104 25.4637 27.5147C25.4158 27.4531 25.3543 27.4189 25.3338 27.4463C25.3064 27.4736 25.2381 27.4531 25.1834 27.4053C25.0945 27.3369 25.0877 27.3438 25.1356 27.4258C25.1971 27.5283 25.2518 27.836 25.2039 27.836C25.1902 27.836 25.0262 27.583 24.8416 27.2754Z" fill="url(#paint55_radial_31_8310)"/>
<path d="M11.9629 27.3779C11.8125 27.3574 11.7715 27.3096 11.7715 27.1865C11.7715 27.0361 11.7852 27.0293 11.9766 27.0976C12.0928 27.1318 12.4004 27.1523 12.6533 27.1387C13.0361 27.1182 13.1865 27.0703 13.4736 26.8994L13.8223 26.6807V26.8789C13.8223 27.0156 13.7881 27.084 13.7197 27.084C13.665 27.084 13.6172 27.1113 13.6172 27.1523C13.6172 27.3301 12.5918 27.4736 11.9629 27.3779Z" fill="url(#paint56_linear_31_8310)"/>
<path d="M29.0597 27.2959C29.1075 27.2617 29.1212 27.2207 29.0938 27.207C29.0597 27.1865 29.0733 27.1865 29.1212 27.2002C29.1759 27.207 29.2579 27.2207 29.3126 27.2207C29.3673 27.2207 29.4083 27.2549 29.4083 27.2891C29.4083 27.3301 29.3058 27.3574 29.1896 27.3574C29.0323 27.3574 28.9913 27.3369 29.0597 27.2959Z" fill="url(#paint57_radial_31_8310)"/>
<path d="M33.3387 20.6651C33.4138 20.5352 33.1815 20.4941 32.3475 20.4805C31.6229 20.4736 31.411 20.4463 30.9325 20.2891C30.2284 20.0635 29.497 19.5781 28.9433 18.9834L28.5331 18.5391L28.3895 18.7236L28.1899 19.0492L28.3075 18.7373C28.5331 18.1084 29.0185 17.2061 29.3056 16.9053C29.914 16.2559 30.871 15.9278 31.7187 16.0781C33.2156 16.3379 34.2617 17.7666 33.9949 19.2021C33.906 19.6807 33.5986 20.4531 33.4959 20.4531C33.4548 20.4531 33.4414 20.4941 33.4617 20.5488C33.4824 20.6035 33.4548 20.6651 33.4004 20.6856C33.3456 20.7061 33.3183 20.6992 33.3387 20.6651Z" fill="url(#paint58_linear_31_8310)"/>
<path d="M15.6679 28.5127C15.497 28.4854 14.8544 28.4375 14.2323 28.417C13.6103 28.3965 12.9061 28.3418 12.6601 28.294C12.414 28.2529 12.1815 28.2256 12.1337 28.2324C12.0858 28.2461 12.0175 28.1846 11.9765 28.1025C11.9286 28.0274 12.0744 28.4309 12.0454 28.4289C11.9969 28.4255 11.2742 26.7874 11.2354 26.7181C11.2321 26.7122 11.3954 26.7832 11.6005 26.9131C12.0858 27.2002 12.5302 27.2686 13.0224 27.125C13.6444 26.9473 13.9042 26.6328 14.8954 24.8965C15.9003 23.1191 16.0097 22.9688 16.0097 23.3516C16.0097 23.6045 15.9413 23.7344 15.7977 23.7344C15.6952 23.7344 15.6679 23.7822 15.6679 23.9736C15.6679 24.1377 15.6337 24.2129 15.5653 24.2129C15.5106 24.2129 15.4628 24.2744 15.4628 24.3428C15.4628 24.5479 15.3876 24.6914 15.2851 24.6914C15.2304 24.6914 15.1894 24.7529 15.1894 24.8213C15.1894 25.0264 15.1142 25.1699 15.0116 25.1699C14.9569 25.1699 14.9159 25.2314 14.9159 25.2998C14.9159 25.5049 14.8407 25.6484 14.7382 25.6484C14.6835 25.6484 14.6425 25.7168 14.6425 25.8125C14.6425 25.9629 14.6698 25.9766 15.244 26.0176C15.5722 26.0449 16.1327 26.1064 16.4882 26.1611C16.8505 26.2158 17.2607 26.2432 17.3974 26.2158C17.6298 26.1817 17.6776 26.1338 18.0673 25.4502C18.2997 25.0537 18.5116 24.7119 18.539 24.6914C18.5663 24.6709 18.6073 24.5889 18.6347 24.5068C18.662 24.418 18.7167 24.3496 18.7509 24.3496C18.7851 24.3496 18.8124 24.3086 18.8124 24.2539C18.8124 24.1992 18.8534 24.1104 18.9081 24.0625C18.956 24.0078 19.0243 23.8984 19.0448 23.8164C19.0722 23.7344 19.1269 23.666 19.161 23.666C19.1952 23.666 19.2226 23.625 19.2226 23.5703C19.2226 23.5156 19.2636 23.4267 19.3183 23.3789C19.3661 23.3242 19.4345 23.2148 19.455 23.1328C19.4823 23.0508 19.537 22.9824 19.5712 22.9824C19.6054 22.9824 19.6327 22.9346 19.6327 22.8799C19.6327 22.8252 19.6669 22.7774 19.7011 22.7774C19.7421 22.7774 19.7694 22.7363 19.7694 22.6816C19.7694 22.6269 19.8105 22.5381 19.8583 22.4902C19.8993 22.4424 19.995 22.2852 20.0702 22.1484C20.1386 22.0117 20.2548 21.834 20.3232 21.7588C20.3984 21.6836 20.453 21.5879 20.453 21.5469C20.453 21.5127 20.4872 21.4785 20.5214 21.4785C20.5624 21.4785 20.5898 21.4307 20.5898 21.376C20.5898 21.3213 20.6239 21.2734 20.6581 21.2734C20.6991 21.2734 20.7265 21.2256 20.7265 21.1709C20.7265 21.1162 20.7606 21.0683 20.7948 21.0683C20.8358 21.0683 20.8632 21.0205 20.8632 20.9658C20.8632 20.9111 20.8974 20.8633 20.9316 20.8633C20.9726 20.8633 20.9999 20.8154 20.9999 20.7607C20.9999 20.6992 21.0478 20.6377 21.1024 20.6172C21.1571 20.5898 21.205 20.5351 21.205 20.4805C21.205 20.4258 21.2392 20.3848 21.2733 20.3848C21.3144 20.3848 21.3417 20.3369 21.3417 20.2822C21.3417 20.2207 21.3896 20.1592 21.4443 20.1387C21.4989 20.1113 21.5468 20.0566 21.5468 20.0019C21.5468 19.9473 21.581 19.9063 21.6151 19.9063C21.6562 19.9063 21.6835 19.8652 21.6835 19.8105C21.6835 19.7558 21.7382 19.667 21.8065 19.6192C21.8681 19.5713 21.9638 19.4551 22.0116 19.3594C22.2236 18.9629 22.5038 18.7441 22.8114 18.7441C22.9755 18.7441 23.037 18.7852 23.1054 18.9424C23.2284 19.2226 23.5429 19.3594 23.8573 19.2773C24.0009 19.2432 24.2401 19.1953 24.4042 19.1748C24.6845 19.1338 24.6913 19.1406 24.6913 19.3389C24.6913 19.4551 24.6008 19.6474 24.5461 19.6884C24.3889 19.8183 23.1669 21.5264 22.7294 22.2305C22.5038 22.5859 22.0253 23.4062 21.6698 24.042C19.8993 27.207 18.5153 29.7452 18.4196 29.7452C18.3923 29.7452 17.8933 28.0616 17.9275 27.9796C17.9617 27.8908 18.4227 27.4129 18.3954 27.3377C18.3475 27.2078 17.6822 27.619 17.8189 27.4413C17.8736 27.3798 18.782 25.7005 18.8299 25.4886C18.8777 25.2903 19.5486 23.701 20.0134 22.8465C20.3005 22.3064 21.8202 21.8613 21.8202 21.8203C21.8202 21.7861 21.8544 21.752 21.8886 21.752C21.9296 21.752 21.957 21.6904 21.957 21.6152C21.957 21.54 21.9843 21.4785 22.0185 21.4785C22.0936 21.4785 22.5722 20.5078 22.5722 20.3574C22.5722 20.2959 22.6063 20.248 22.6474 20.248C22.6884 20.248 22.7021 20.1865 22.6747 20.1113C22.6474 20.0361 22.661 19.9746 22.7021 19.9746C22.7431 19.9746 22.7773 19.9131 22.7773 19.8311C22.7773 19.6055 23.2631 19.9569 23.3923 20.0066C23.4812 20.0408 23.4576 22.3713 23.096 20.0763C23.0772 19.9568 22.7255 20.4112 22.6981 20.336C22.6639 20.2335 23.4226 20.3879 23.0808 20.8048C22.0485 22.0626 20.1112 22.5723 18.2655 25.751C16.8642 28.1572 16.6523 28.4717 16.4814 28.4307C16.413 28.4101 16.3515 28.4238 16.3515 28.4648C16.3515 28.499 16.3241 28.5059 16.2831 28.4854C16.2489 28.4648 16.2148 28.4785 16.2148 28.5127C16.2148 28.5947 16.1122 28.5947 15.6679 28.5127Z" fill="url(#paint59_linear_31_8310)"/>
<path d="M15.6473 18.7373C15.326 18.5664 14.9295 18.1699 14.7245 17.7939C14.709 17.8041 14.5179 17.3597 14.5439 17.3426L15.3465 17.5137H16.1258L16.0711 17.8418C16.0438 18.0195 16.0165 18.3271 16.0165 18.5254C16.0096 18.7168 15.9891 18.8808 15.9618 18.8808C15.9276 18.874 15.7909 18.8125 15.6473 18.7373Z" fill="url(#paint60_linear_31_8310)"/>
<path d="M13.7608 26.7285C13.8907 26.5986 14.3829 25.8193 14.8546 24.9922C16.7481 21.7041 18.2384 19.1611 18.5597 18.6758C18.9356 18.1084 20.2413 16.7685 20.7403 16.4267L21.2743 16.1031L21.0685 16.3994C21.0685 16.5088 20.9591 16.7959 20.8292 17.042C20.5558 17.5684 20.3644 18.293 20.4259 18.6143C20.4942 18.956 20.713 19.3252 20.9386 19.455C21.1368 19.5713 21.1505 19.5713 21.5675 19.3662C22.0938 19.1064 22.2374 19.0176 22.3536 18.8672C22.4083 18.792 22.5313 18.7441 22.6817 18.7441C22.9005 18.7441 22.9142 18.7578 22.9073 18.9697C22.9005 19.0859 22.8868 19.1338 22.8663 19.0654C22.8526 19.0039 22.8116 18.9492 22.7843 18.9492C22.504 18.9492 20.7403 21.5332 18.9151 24.5889C17.7462 26.5576 17.5206 26.9199 17.6163 26.6601C17.6847 26.4892 17.5958 26.373 17.4796 26.4687C17.4044 26.5302 17.2267 26.5234 16.7481 26.4414C16.044 26.3252 14.9845 26.1953 14.6905 26.1953C14.5606 26.1953 14.4239 26.2773 14.2325 26.4892C14.0821 26.6465 13.9386 26.7763 13.9044 26.7763C13.877 26.7832 13.7814 26.8242 13.6925 26.872C13.5626 26.9404 13.5831 26.9131 13.7608 26.7285Z" fill="url(#paint61_linear_31_8310)"/>
<path d="M21.4784 24.2129C21.5536 24.0625 21.6356 23.9395 21.6493 23.9395C21.6698 23.9395 21.622 24.0625 21.5467 24.2129C21.4715 24.3633 21.3895 24.4863 21.3759 24.4863C21.3553 24.4863 21.4032 24.3633 21.4784 24.2129Z" fill="url(#paint62_linear_31_8310)"/>
<path d="M21.8202 23.5976C21.8954 23.4473 21.9774 23.3242 21.9911 23.3242C22.0116 23.3242 21.9637 23.4473 21.8885 23.5976C21.8133 23.7481 21.7313 23.8711 21.7177 23.8711C21.6971 23.8711 21.745 23.7481 21.8202 23.5976Z" fill="url(#paint63_linear_31_8310)"/>
<path d="M22.1007 23.1054C22.258 22.8115 22.9415 21.7178 23.1671 21.4033C23.2902 21.2256 23.3927 21.0684 23.3927 21.041C23.3927 21.0137 23.5158 20.8291 23.6661 20.6309C23.8165 20.4326 23.9396 20.2138 23.9396 20.1523C23.9396 20.0908 23.9738 20.0566 24.0079 20.0772C24.0695 20.1182 24.1037 20.0088 24.0968 19.79C24.09 19.7422 24.1242 19.7012 24.1583 19.7012C24.254 19.7012 24.4181 19.5166 24.3703 19.4687C24.3019 19.4004 24.1993 19.4209 24.2472 19.4961C24.2745 19.5371 24.2062 19.5439 24.0695 19.5166C23.9191 19.4892 23.8644 19.4961 23.8917 19.5508C23.9259 19.5918 23.8917 19.6055 23.8029 19.585C23.6251 19.5371 23.6251 19.3594 23.8029 19.3594C23.8781 19.3594 23.9396 19.332 23.9396 19.291C23.9396 19.2568 23.9738 19.2226 24.0148 19.2226C24.0558 19.2226 24.2677 19.1406 24.4864 19.0449C24.7052 18.9492 25.5008 18.5656 25.5374 18.5232C25.64 18.4044 26.525 17.5748 24.9854 19.1736C24.922 19.2394 24.3026 19.9944 24.2223 20.0821C23.9693 20.3586 24.2251 20.0137 24.2198 20.0293C24.213 20.0566 24.0148 20.3369 23.7755 20.6582C23.2697 21.3418 22.7775 22.0664 22.3741 22.7637C22.2101 23.0303 22.0665 23.2559 22.0529 23.2559C22.0324 23.2559 22.0597 23.1875 22.1007 23.1054Z" fill="url(#paint64_linear_31_8310)"/>
<path d="M15.962 17.835C16.003 17.7256 15.3536 17.6846 15.2169 17.794C15.1417 17.8555 15.1212 17.8486 15.1212 17.7803C15.1212 17.7051 15.1075 17.7051 15.0665 17.7666C15.0186 17.835 14.9708 17.835 14.8272 17.7666C14.5948 17.6641 14.4143 17.1919 14.4376 16.6182C14.476 15.6735 15.132 15.1254 15.5681 15.0868C15.8858 15.0586 16.1637 15.084 16.3686 15.3131C16.5735 15.5422 16.6318 15.6274 16.6251 15.9414C16.6198 16.1874 16.5636 16.4268 16.4268 16.7276C16.3175 16.9668 16.1876 17.3291 16.1329 17.541C16.0851 17.7529 16.0167 17.9238 15.9893 17.9238C15.9552 17.9238 15.9415 17.8828 15.962 17.835Z" fill="url(#paint65_linear_31_8310)"/>
<path d="M18.1424 16.4746C17.9783 16.2764 17.8348 15.5449 17.8348 14.916C17.828 14.2051 17.9305 13.6308 18.1492 13.1045C18.3133 12.7012 18.8602 11.8398 18.9559 11.8398C18.9901 11.8398 19.0174 11.9492 19.0174 12.0791C19.0174 12.2773 18.9901 12.3183 18.867 12.3183C18.7508 12.3183 18.7371 12.3389 18.7987 12.4004C18.8465 12.4483 18.8807 12.5371 18.8807 12.6055C18.8807 12.9131 20.2479 13.5557 21.1639 13.6787C21.6834 13.7539 21.7108 13.7471 21.9979 13.583C22.1551 13.4873 22.3807 13.4121 22.4969 13.4121C22.6951 13.4121 22.7088 13.3916 22.7088 13.1729C22.7088 13.0156 22.743 12.9336 22.8045 12.9336C22.8524 12.9336 22.9139 12.8447 22.9412 12.7285C22.9754 12.5576 23.0096 12.5234 23.1873 12.5234C23.2967 12.5234 23.2319 11.8191 23.2319 11.8532C23.5314 11.8167 23.0753 13.0784 22.3652 13.5425C22.2831 13.5766 22.7364 13.4505 22.7228 13.5188C22.6749 13.6829 21.9227 14.1777 21.2869 14.4375C19.8924 15.0186 18.8465 15.709 18.4705 16.3174C18.3133 16.5771 18.2518 16.6045 18.1424 16.4746Z" fill="url(#paint66_linear_31_8310)"/>
<path d="M22.8457 19.0517C22.8457 18.9287 22.7022 18.9151 22.5859 19.0312C22.5244 19.0928 22.5039 19.0654 22.5039 18.8945C22.5039 18.6895 22.5176 18.6758 22.7432 18.6758C22.9688 18.6758 22.9824 18.6895 22.9824 18.9151C22.9824 19.0449 22.9551 19.1543 22.9141 19.1543C22.8799 19.1543 22.8457 19.1064 22.8457 19.0517Z" fill="#59E9FE"/>
<path d="M21.1025 13.9111C20.7675 13.8633 20.2753 13.7471 20.0087 13.6514C19.3525 13.4121 18.6962 12.9883 18.6621 12.7832C18.6484 12.6943 18.6074 12.626 18.5595 12.626C18.5185 12.626 18.4486 12.7722 18.4212 12.7449C18.3944 12.7109 18.4363 12.5323 18.4638 12.5234C18.4913 12.5145 18.5193 12.492 18.5117 12.4619C18.504 12.4318 18.5808 12.3274 18.6416 12.2226C18.7119 12.1013 18.7936 12.0033 18.8124 11.9834C18.8681 11.9245 19.0585 11.7031 19.1816 11.7031C19.25 11.7031 19.4345 11.7988 19.6054 11.915C20.0908 12.2432 20.747 12.5234 21.2187 12.5986C21.5947 12.6602 21.7314 12.6465 22.3193 12.4892C22.6816 12.3936 23.0576 12.3184 23.1533 12.3184C23.3036 12.3184 23.3242 12.3457 23.3242 12.5645C23.3242 12.708 23.2968 12.79 23.2558 12.7627C23.2216 12.7422 23.1875 12.7422 23.1806 12.7764C23.1806 12.8037 23.167 12.8994 23.1601 12.9883C23.1464 13.0771 22.9755 13.3096 22.7773 13.501C22.5791 13.6992 22.4355 13.8017 22.4628 13.7334C22.5038 13.6172 22.4902 13.6172 22.2783 13.7471C21.8955 13.9863 21.7519 14.0068 21.1025 13.9111Z" fill="url(#paint67_linear_31_8310)"/>
<path d="M25.8193 12.0449C25.0605 11.6689 24.9195 10.5714 25.6006 10.0557C25.8202 9.88926 26.3926 9.6898 26.5606 9.82761C26.7315 10.0054 26.6807 10.1016 27.1045 10.0811C27.1031 10.0693 27.4296 10.3219 27.4599 10.5684C27.8496 11.5869 26.7968 12.5303 25.8193 12.0449Z" fill="url(#paint68_linear_31_8310)"/>
<path d="M20.9111 12.7969C20.5282 12.7285 19.8378 12.4209 19.3867 12.1064C19.1201 11.9219 19.0449 11.9014 18.9423 11.9697C18.6689 12.1338 18.833 11.9014 19.2431 11.5322C19.831 10.999 20.6171 10.6162 21.246 10.5615C22.4697 10.459 23.2336 11.193 23.3801 12.2216C23.412 12.4452 23.2479 13.002 23.1115 13.0851C22.9752 13.1682 22.993 13.046 22.993 13.005C22.993 12.9708 23.0768 12.8326 23.0426 12.8872C22.9879 12.9693 23.1191 12.8584 23.1191 12.7217V12.544L22.497 12.7012C21.8544 12.8721 21.4853 12.8926 20.9111 12.7969Z" fill="url(#paint69_linear_31_8310)"/>
<path d="M27.3302 10.5615C27.3029 10.5274 27.0363 10.5069 26.7424 10.5069C26.257 10.5069 26.1955 10.4932 26.0246 10.3223C25.922 10.2129 25.7717 10.1309 25.6965 10.1309C25.4914 10.1309 25.6691 9.95315 25.9767 9.85061C26.3117 9.74121 26.5441 9.7549 26.8586 9.91213C27.1662 10.0762 27.3507 10.2608 27.3917 10.4658C27.4191 10.623 27.4122 10.6367 27.3302 10.5615Z" fill="url(#paint70_linear_31_8310)"/>
<path d="M23.0647 19.3594C22.9759 19.2774 22.8733 19.1338 22.8391 19.0381C22.7844 18.8945 22.4442 19.0666 22.3622 19.1349C22.2733 19.2102 22.5725 19.0039 22.5725 18.8398C22.5725 18.6826 22.7093 18.4912 23.2014 17.9649C24.0559 17.0488 24.4251 16.7617 24.76 16.7617C24.9993 16.7617 25.0198 16.7754 25.0608 17.0215C25.1633 17.6504 25.0335 18.5322 24.8011 18.7647C24.7464 18.8125 24.719 18.9355 24.7395 19.0244C24.7669 19.1748 24.7327 19.2158 24.4729 19.3184C24.3089 19.3867 23.9671 19.4551 23.7005 19.4756C23.2766 19.5029 23.2014 19.4893 23.0647 19.3594Z" fill="url(#paint71_linear_31_8310)"/>
<path d="M24.5273 19.209C24.5615 19.1611 24.541 19.1475 24.4658 19.1748C24.3975 19.2021 24.3701 19.1885 24.3838 19.1338C24.4043 19.086 24.4317 18.9697 24.4453 18.8604C24.4658 18.7578 24.5273 18.6279 24.582 18.5664C24.8076 18.3408 24.9922 17.3769 24.8213 17.2676C24.7803 17.2471 24.7598 17.165 24.7803 17.0967C24.8008 17.0215 24.7871 16.9668 24.7598 16.9668C24.6367 16.9668 24.0078 17.5274 23.4063 18.1699L22.7773 18.8467V18.6006C22.7773 18.3203 22.8799 18.1973 23.0986 18.1973C23.2217 18.1973 23.2559 18.1631 23.2559 18.0059C23.2559 17.8691 23.3516 17.7188 23.6182 17.459C23.8164 17.2608 23.9941 17.1035 24.0146 17.1035C24.0351 17.1035 24.1924 16.9736 24.3633 16.8164C25.0195 16.208 25.9424 15.7842 26.7969 15.7022C27.2549 15.6543 27.2891 15.6611 27.4531 15.8252C27.6514 16.0234 27.7334 16.2764 27.6719 16.5156C27.6514 16.6113 27.3779 16.9121 27.0703 17.1856C26.7559 17.459 26.1816 17.999 25.7852 18.3818C25.3818 18.7715 24.9512 19.1201 24.8008 19.1816C24.4863 19.3115 24.4658 19.3115 24.5273 19.209Z" fill="url(#paint72_linear_31_8310)"/>
<path d="M20.8701 19.708C20.5898 19.6328 20.3164 19.2158 20.2548 18.7852C20.1523 18.0127 20.4531 16.9668 20.959 16.3652C21.3281 15.9346 22.7363 15.2578 23.7412 15.0254C25.2041 14.6904 26.5302 14.9024 27.2412 15.5859C27.5488 15.8799 27.6992 16.1397 27.6992 16.3789C27.6992 16.5566 27.542 16.7617 27.4052 16.7617C27.3574 16.7549 27.3916 16.7002 27.4804 16.6318C27.665 16.4678 27.6718 16.2832 27.4941 16.0781C27.3847 15.9483 27.2959 15.9209 26.9814 15.9278C25.9013 15.9346 24.5888 16.7754 23.2422 18.3135C22.5722 19.0723 21.998 19.5234 21.4922 19.6738C21.1572 19.7764 21.1162 19.7764 20.8701 19.708Z" fill="url(#paint73_linear_31_8310)"/>
</g>
</g>
<defs>
<filter id="filter0_i_31_8310" x="2.625" y="2.625" width="36.75" height="40.75" filterUnits="userSpaceOnUse" color-interpolation-filters="sRGB">
<feFlood flood-opacity="0" result="BackgroundImageFix"/>
<feBlend mode="normal" in="SourceGraphic" in2="BackgroundImageFix" result="shape"/>
<feColorMatrix in="SourceAlpha" type="matrix" values="0 0 0 0 0 0 0 0 0 0 0 0 0 0 0 0 0 0 127 0" result="hardAlpha"/>
<feOffset dy="4"/>
<feGaussianBlur stdDeviation="2"/>
<feComposite in2="hardAlpha" operator="arithmetic" k2="-1" k3="1"/>
<feColorMatrix type="matrix" values="0 0 0 0 0 0 0 0 0 0 0 0 0 0 0 0 0 0 0.25 0"/>
<feBlend mode="normal" in2="shape" result="effect1_innerShadow_31_8310"/>
</filter>
<linearGradient id="paint0_linear_31_8310" x1="0" y1="0" x2="49.7684" y2="28.3742" gradientUnits="userSpaceOnUse">
<stop stop-color="#00CCE6"/>
<stop offset="1" stop-color="#0082E7"/>
</linearGradient>
<linearGradient id="paint1_linear_31_8310" x1="12.9841" y1="12.6103" x2="14.3905" y2="10.1892" gradientUnits="userSpaceOnUse">
<stop stop-color="#1964E7"/>
<stop offset="1" stop-color="#6884F2"/>
</linearGradient>
<linearGradient id="paint2_linear_31_8310" x1="8.19531" y1="10.207" x2="9.60165" y2="12.6281" gradientUnits="userSpaceOnUse">
<stop stop-color="#00CCE6"/>
<stop offset="1" stop-color="#0082E7"/>
</linearGradient>
<radialGradient id="paint3_radial_31_8310" cx="0" cy="0" r="1" gradientUnits="userSpaceOnUse" gradientTransform="translate(13.358 12.2543) scale(2.04722)">
<stop offset="0.23" stop-color="#00CDFF"/>
<stop offset="0.49" stop-color="#00BCFA"/>
<stop offset="0.77" stop-color="#00ABF8"/>
<stop offset="1" stop-color="#0098F7"/>
</radialGradient>
<radialGradient id="paint4_radial_31_8310" cx="0" cy="0" r="1" gradientUnits="userSpaceOnUse" gradientTransform="translate(13.358 12.2543) scale(2.04722)">
<stop offset="0.23" stop-color="#00CDFF"/>
<stop offset="0.49" stop-color="#00BCFA"/>
<stop offset="0.77" stop-color="#00ABF8"/>
<stop offset="1" stop-color="#0098F7"/>
</radialGradient>
<radialGradient id="paint5_radial_31_8310" cx="0" cy="0" r="1" gradientUnits="userSpaceOnUse" gradientTransform="translate(13.358 12.2543) scale(2.04722)">
<stop offset="0.23" stop-color="#00CDFF"/>
<stop offset="0.49" stop-color="#00BCFA"/>
<stop offset="0.77" stop-color="#00ABF8"/>
<stop offset="1" stop-color="#0098F7"/>
</radialGradient>
<radialGradient id="paint6_radial_31_8310" cx="0" cy="0" r="1" gradientUnits="userSpaceOnUse" gradientTransform="translate(13.3579 12.2542) scale(2.04723 2.04722)">
<stop offset="0.23" stop-color="#00CDFF"/>
<stop offset="0.49" stop-color="#00BCFA"/>
<stop offset="0.77" stop-color="#00ABF8"/>
<stop offset="1" stop-color="#0098F7"/>
</radialGradient>
<radialGradient id="paint7_radial_31_8310" cx="0" cy="0" r="1" gradientUnits="userSpaceOnUse" gradientTransform="translate(13.3579 12.2543) scale(2.04722 2.04722)">
<stop offset="0.23" stop-color="#00CDFF"/>
<stop offset="0.49" stop-color="#00BCFA"/>
<stop offset="0.77" stop-color="#00ABF8"/>
<stop offset="1" stop-color="#0098F7"/>
</radialGradient>
<radialGradient id="paint8_radial_31_8310" cx="0" cy="0" r="1" gradientUnits="userSpaceOnUse" gradientTransform="translate(13.3582 12.2543) scale(2.04722 2.04722)">
<stop offset="0.23" stop-color="#00CDFF"/>
<stop offset="0.49" stop-color="#00BCFA"/>
<stop offset="0.77" stop-color="#00ABF8"/>
<stop offset="1" stop-color="#0098F7"/>
</radialGradient>
<radialGradient id="paint9_radial_31_8310" cx="0" cy="0" r="1" gradientUnits="userSpaceOnUse" gradientTransform="translate(13.358 12.2542) scale(2.04722)">
<stop offset="0.23" stop-color="#00CDFF"/>
<stop offset="0.49" stop-color="#00BCFA"/>
<stop offset="0.77" stop-color="#00ABF8"/>
<stop offset="1" stop-color="#0098F7"/>
</radialGradient>
<radialGradient id="paint10_radial_31_8310" cx="0" cy="0" r="1" gradientUnits="userSpaceOnUse" gradientTransform="translate(13.358 12.2543) scale(2.04722)">
<stop offset="0.23" stop-color="#00CDFF"/>
<stop offset="0.49" stop-color="#00BCFA"/>
<stop offset="0.77" stop-color="#00ABF8"/>
<stop offset="1" stop-color="#0098F7"/>
</radialGradient>
<radialGradient id="paint11_radial_31_8310" cx="0" cy="0" r="1" gradientUnits="userSpaceOnUse" gradientTransform="translate(13.358 12.2543) scale(2.04722 2.04722)">
<stop offset="0.23" stop-color="#00CDFF"/>
<stop offset="0.49" stop-color="#00BCFA"/>
<stop offset="0.77" stop-color="#00ABF8"/>
<stop offset="1" stop-color="#0098F7"/>
</radialGradient>
<radialGradient id="paint12_radial_31_8310" cx="0" cy="0" r="1" gradientUnits="userSpaceOnUse" gradientTransform="translate(13.358 12.2543) scale(2.04722 2.04722)">
<stop offset="0.23" stop-color="#00CDFF"/>
<stop offset="0.49" stop-color="#00BCFA"/>
<stop offset="0.77" stop-color="#00ABF8"/>
<stop offset="1" stop-color="#0098F7"/>
</radialGradient>
<linearGradient id="paint13_linear_31_8310" x1="8.1954" y1="10.207" x2="9.60175" y2="12.6281" gradientUnits="userSpaceOnUse">
<stop stop-color="#00CCE6"/>
<stop offset="1" stop-color="#0082E7"/>
</linearGradient>
<linearGradient id="paint14_linear_31_8310" x1="8.19551" y1="10.207" x2="9.60185" y2="12.6281" gradientUnits="userSpaceOnUse">
<stop stop-color="#00CCE6"/>
<stop offset="1" stop-color="#0082E7"/>
</linearGradient>
<linearGradient id="paint15_linear_31_8310" x1="9.86882" y1="10.9725" x2="11.293" y2="13.4292" gradientUnits="userSpaceOnUse">
<stop stop-color="#0CF4FF"/>
<stop offset="0.28" stop-color="#04EEFE"/>
<stop offset="1" stop-color="#00B1F7"/>
</linearGradient>
<linearGradient id="paint16_linear_31_8310" x1="8.19544" y1="10.207" x2="9.60178" y2="12.6281" gradientUnits="userSpaceOnUse">
<stop stop-color="#00CCE6"/>
<stop offset="1" stop-color="#0082E7"/>
</linearGradient>
<radialGradient id="paint17_radial_31_8310" cx="0" cy="0" r="1" gradientUnits="userSpaceOnUse" gradientTransform="translate(13.358 12.2543) scale(2.04722)">
<stop offset="0.23" stop-color="#00CDFF"/>
<stop offset="0.49" stop-color="#00BCFA"/>
<stop offset="0.77" stop-color="#00ABF8"/>
<stop offset="1" stop-color="#0098F7"/>
</radialGradient>
<radialGradient id="paint18_radial_31_8310" cx="0" cy="0" r="1" gradientUnits="userSpaceOnUse" gradientTransform="translate(13.358 12.2543) scale(2.04722 2.04722)">
<stop offset="0.23" stop-color="#00CDFF"/>
<stop offset="0.49" stop-color="#00BCFA"/>
<stop offset="0.77" stop-color="#00ABF8"/>
<stop offset="1" stop-color="#0098F7"/>
</radialGradient>
<radialGradient id="paint19_radial_31_8310" cx="0" cy="0" r="1" gradientUnits="userSpaceOnUse" gradientTransform="translate(13.358 12.2543) scale(2.04722)">
<stop offset="0.23" stop-color="#00CDFF"/>
<stop offset="0.49" stop-color="#00BCFA"/>
<stop offset="0.77" stop-color="#00ABF8"/>
<stop offset="1" stop-color="#0098F7"/>
</radialGradient>
<radialGradient id="paint20_radial_31_8310" cx="0" cy="0" r="1" gradientUnits="userSpaceOnUse" gradientTransform="translate(13.358 12.2543) scale(2.04722)">
<stop offset="0.23" stop-color="#00CDFF"/>
<stop offset="0.49" stop-color="#00BCFA"/>
<stop offset="0.77" stop-color="#00ABF8"/>
<stop offset="1" stop-color="#0098F7"/>
</radialGradient>
<radialGradient id="paint21_radial_31_8310" cx="0" cy="0" r="1" gradientUnits="userSpaceOnUse" gradientTransform="translate(13.358 12.2542) scale(2.04723)">
<stop offset="0.23" stop-color="#00CDFF"/>
<stop offset="0.49" stop-color="#00BCFA"/>
<stop offset="0.77" stop-color="#00ABF8"/>
<stop offset="1" stop-color="#0098F7"/>
</radialGradient>
<radialGradient id="paint22_radial_31_8310" cx="0" cy="0" r="1" gradientUnits="userSpaceOnUse" gradientTransform="translate(13.358 12.2542) scale(2.04723 2.04723)">
<stop offset="0.23" stop-color="#00CDFF"/>
<stop offset="0.49" stop-color="#00BCFA"/>
<stop offset="0.77" stop-color="#00ABF8"/>
<stop offset="1" stop-color="#0098F7"/>
</radialGradient>
<radialGradient id="paint23_radial_31_8310" cx="0" cy="0" r="1" gradientUnits="userSpaceOnUse" gradientTransform="translate(13.358 12.2543) scale(2.04721 2.04722)">
<stop offset="0.23" stop-color="#00CDFF"/>
<stop offset="0.49" stop-color="#00BCFA"/>
<stop offset="0.77" stop-color="#00ABF8"/>
<stop offset="1" stop-color="#0098F7"/>
</radialGradient>
<radialGradient id="paint24_radial_31_8310" cx="0" cy="0" r="1" gradientUnits="userSpaceOnUse" gradientTransform="translate(13.358 12.2543) scale(2.04723 2.04721)">
<stop offset="0.23" stop-color="#00CDFF"/>
<stop offset="0.49" stop-color="#00BCFA"/>
<stop offset="0.77" stop-color="#00ABF8"/>
<stop offset="1" stop-color="#0098F7"/>
</radialGradient>
<linearGradient id="paint25_linear_31_8310" x1="8.19552" y1="10.2071" x2="9.60187" y2="12.6281" gradientUnits="userSpaceOnUse">
<stop stop-color="#00CCE6"/>
<stop offset="1" stop-color="#0082E7"/>
</linearGradient>
<linearGradient id="paint26_linear_31_8310" x1="8.19554" y1="10.2071" x2="9.60191" y2="12.6281" gradientUnits="userSpaceOnUse">
<stop stop-color="#00CCE6"/>
<stop offset="1" stop-color="#0082E7"/>
</linearGradient>
<linearGradient id="paint27_linear_31_8310" x1="9.86883" y1="10.9726" x2="11.293" y2="13.4292" gradientUnits="userSpaceOnUse">
<stop stop-color="#0CF4FF"/>
<stop offset="0.28" stop-color="#04EEFE"/>
<stop offset="1" stop-color="#00B1F7"/>
</linearGradient>
<radialGradient id="paint28_radial_31_8310" cx="0" cy="0" r="1" gradientUnits="userSpaceOnUse" gradientTransform="translate(13.358 12.2543) scale(2.04722)">
<stop offset="0.23" stop-color="#00CDFF"/>
<stop offset="0.49" stop-color="#00BCFA"/>
<stop offset="0.77" stop-color="#00ABF8"/>
<stop offset="1" stop-color="#0098F7"/>
</radialGradient>
<radialGradient id="paint29_radial_31_8310" cx="0" cy="0" r="1" gradientUnits="userSpaceOnUse" gradientTransform="translate(13.3579 12.2543) scale(2.04722)">
<stop offset="0.23" stop-color="#00CDFF"/>
<stop offset="0.49" stop-color="#00BCFA"/>
<stop offset="0.77" stop-color="#00ABF8"/>
<stop offset="1" stop-color="#0098F7"/>
</radialGradient>
<radialGradient id="paint30_radial_31_8310" cx="0" cy="0" r="1" gradientUnits="userSpaceOnUse" gradientTransform="translate(13.3581 12.2543) scale(2.04722)">
<stop offset="0.23" stop-color="#00CDFF"/>
<stop offset="0.49" stop-color="#00BCFA"/>
<stop offset="0.77" stop-color="#00ABF8"/>
<stop offset="1" stop-color="#0098F7"/>
</radialGradient>
<radialGradient id="paint31_radial_31_8310" cx="0" cy="0" r="1" gradientUnits="userSpaceOnUse" gradientTransform="translate(13.3578 12.2543) scale(2.04722 2.04722)">
<stop offset="0.23" stop-color="#00CDFF"/>
<stop offset="0.49" stop-color="#00BCFA"/>
<stop offset="0.77" stop-color="#00ABF8"/>
<stop offset="1" stop-color="#0098F7"/>
</radialGradient>
<radialGradient id="paint32_radial_31_8310" cx="0" cy="0" r="1" gradientUnits="userSpaceOnUse" gradientTransform="translate(13.3579 12.2542) scale(2.04723 2.04723)">
<stop offset="0.23" stop-color="#00CDFF"/>
<stop offset="0.49" stop-color="#00BCFA"/>
<stop offset="0.77" stop-color="#00ABF8"/>
<stop offset="1" stop-color="#0098F7"/>
</radialGradient>
<radialGradient id="paint33_radial_31_8310" cx="0" cy="0" r="1" gradientUnits="userSpaceOnUse" gradientTransform="translate(13.358 12.2543) scale(2.04723 2.04722)">
<stop offset="0.23" stop-color="#00CDFF"/>
<stop offset="0.49" stop-color="#00BCFA"/>
<stop offset="0.77" stop-color="#00ABF8"/>
<stop offset="1" stop-color="#0098F7"/>
</radialGradient>
<radialGradient id="paint34_radial_31_8310" cx="0" cy="0" r="1" gradientUnits="userSpaceOnUse" gradientTransform="translate(13.358 12.2543) scale(2.04722 2.04722)">
<stop offset="0.23" stop-color="#00CDFF"/>
<stop offset="0.49" stop-color="#00BCFA"/>
<stop offset="0.77" stop-color="#00ABF8"/>
<stop offset="1" stop-color="#0098F7"/>
</radialGradient>
<radialGradient id="paint35_radial_31_8310" cx="0" cy="0" r="1" gradientUnits="userSpaceOnUse" gradientTransform="translate(13.358 12.2543) scale(2.04722 2.04722)">
<stop offset="0.23" stop-color="#00CDFF"/>
<stop offset="0.49" stop-color="#00BCFA"/>
<stop offset="0.77" stop-color="#00ABF8"/>
<stop offset="1" stop-color="#0098F7"/>
</radialGradient>
<radialGradient id="paint36_radial_31_8310" cx="0" cy="0" r="1" gradientUnits="userSpaceOnUse" gradientTransform="translate(13.358 12.2543) scale(2.04722 2.04722)">
<stop offset="0.23" stop-color="#00CDFF"/>
<stop offset="0.49" stop-color="#00BCFA"/>
<stop offset="0.77" stop-color="#00ABF8"/>
<stop offset="1" stop-color="#0098F7"/>
</radialGradient>
<radialGradient id="paint37_radial_31_8310" cx="0" cy="0" r="1" gradientUnits="userSpaceOnUse" gradientTransform="translate(13.3581 12.2543) scale(2.04721 2.04722)">
<stop offset="0.23" stop-color="#00CDFF"/>
<stop offset="0.49" stop-color="#00BCFA"/>
<stop offset="0.77" stop-color="#00ABF8"/>
<stop offset="1" stop-color="#0098F7"/>
</radialGradient>
<radialGradient id="paint38_radial_31_8310" cx="0" cy="0" r="1" gradientUnits="userSpaceOnUse" gradientTransform="translate(13.358 12.2543) scale(2.04721 2.04722)">
<stop offset="0.23" stop-color="#00CDFF"/>
<stop offset="0.49" stop-color="#00BCFA"/>
<stop offset="0.77" stop-color="#00ABF8"/>
<stop offset="1" stop-color="#0098F7"/>
</radialGradient>
<radialGradient id="paint39_radial_31_8310" cx="0" cy="0" r="1" gradientUnits="userSpaceOnUse" gradientTransform="translate(13.3581 12.2543) scale(2.04723 2.04721)">
<stop offset="0.23" stop-color="#00CDFF"/>
<stop offset="0.49" stop-color="#00BCFA"/>
<stop offset="0.77" stop-color="#00ABF8"/>
<stop offset="1" stop-color="#0098F7"/>
</radialGradient>
<linearGradient id="paint40_linear_31_8310" x1="12.984" y1="12.6103" x2="14.3903" y2="10.1893" gradientUnits="userSpaceOnUse">
<stop stop-color="#1964E7"/>
<stop offset="1" stop-color="#6884F2"/>
</linearGradient>
<linearGradient id="paint41_linear_31_8310" x1="8.19562" y1="10.2071" x2="9.60196" y2="12.6281" gradientUnits="userSpaceOnUse">
<stop stop-color="#00CCE6"/>
<stop offset="1" stop-color="#0082E7"/>
</linearGradient>
<linearGradient id="paint42_linear_31_8310" x1="9.86863" y1="10.9725" x2="11.2928" y2="13.4292" gradientUnits="userSpaceOnUse">
<stop stop-color="#0CF4FF"/>
<stop offset="0.28" stop-color="#04EEFE"/>
<stop offset="1" stop-color="#00B1F7"/>
</linearGradient>
<radialGradient id="paint43_radial_31_8310" cx="0" cy="0" r="1" gradientUnits="userSpaceOnUse" gradientTransform="translate(13.358 12.2543) scale(2.04722 2.04722)">
<stop offset="0.23" stop-color="#00CDFF"/>
<stop offset="0.49" stop-color="#00BCFA"/>
<stop offset="0.77" stop-color="#00ABF8"/>
<stop offset="1" stop-color="#0098F7"/>
</radialGradient>
<radialGradient id="paint44_radial_31_8310" cx="0" cy="0" r="1" gradientUnits="userSpaceOnUse" gradientTransform="translate(13.3581 12.2543) scale(2.04722)">
<stop offset="0.23" stop-color="#00CDFF"/>
<stop offset="0.49" stop-color="#00BCFA"/>
<stop offset="0.77" stop-color="#00ABF8"/>
<stop offset="1" stop-color="#0098F7"/>
</radialGradient>
<radialGradient id="paint45_radial_31_8310" cx="0" cy="0" r="1" gradientUnits="userSpaceOnUse" gradientTransform="translate(13.358 12.2543) scale(2.04722 2.04721)">
<stop offset="0.23" stop-color="#00CDFF"/>
<stop offset="0.49" stop-color="#00BCFA"/>
<stop offset="0.77" stop-color="#00ABF8"/>
<stop offset="1" stop-color="#0098F7"/>
</radialGradient>
<radialGradient id="paint46_radial_31_8310" cx="0" cy="0" r="1" gradientUnits="userSpaceOnUse" gradientTransform="translate(13.358 12.2543) scale(2.04722)">
<stop offset="0.23" stop-color="#00CDFF"/>
<stop offset="0.49" stop-color="#00BCFA"/>
<stop offset="0.77" stop-color="#00ABF8"/>
<stop offset="1" stop-color="#0098F7"/>
</radialGradient>
<radialGradient id="paint47_radial_31_8310" cx="0" cy="0" r="1" gradientUnits="userSpaceOnUse" gradientTransform="translate(13.358 12.2543) scale(2.04722 2.04722)">
<stop offset="0.23" stop-color="#00CDFF"/>
<stop offset="0.49" stop-color="#00BCFA"/>
<stop offset="0.77" stop-color="#00ABF8"/>
<stop offset="1" stop-color="#0098F7"/>
</radialGradient>
<radialGradient id="paint48_radial_31_8310" cx="0" cy="0" r="1" gradientUnits="userSpaceOnUse" gradientTransform="translate(13.358 12.2543) scale(2.04722 2.04722)">
<stop offset="0.23" stop-color="#00CDFF"/>
<stop offset="0.49" stop-color="#00BCFA"/>
<stop offset="0.77" stop-color="#00ABF8"/>
<stop offset="1" stop-color="#0098F7"/>
</radialGradient>
<radialGradient id="paint49_radial_31_8310" cx="0" cy="0" r="1" gradientUnits="userSpaceOnUse" gradientTransform="translate(13.3579 12.2543) scale(2.04723 2.04722)">
<stop offset="0.23" stop-color="#00CDFF"/>
<stop offset="0.49" stop-color="#00BCFA"/>
<stop offset="0.77" stop-color="#00ABF8"/>
<stop offset="1" stop-color="#0098F7"/>
</radialGradient>
<linearGradient id="paint50_linear_31_8310" x1="8.19522" y1="10.2071" x2="9.60156" y2="12.6281" gradientUnits="userSpaceOnUse">
<stop stop-color="#00CCE6"/>
<stop offset="1" stop-color="#0082E7"/>
</linearGradient>
<linearGradient id="paint51_linear_31_8310" x1="8.19555" y1="10.2071" x2="9.60193" y2="12.6281" gradientUnits="userSpaceOnUse">
<stop stop-color="#00CCE6"/>
<stop offset="1" stop-color="#0082E7"/>
</linearGradient>
<linearGradient id="paint52_linear_31_8310" x1="9.86894" y1="10.9725" x2="11.2931" y2="13.4292" gradientUnits="userSpaceOnUse">
<stop stop-color="#0CF4FF"/>
<stop offset="0.28" stop-color="#04EEFE"/>
<stop offset="1" stop-color="#00B1F7"/>
</linearGradient>
<radialGradient id="paint53_radial_31_8310" cx="0" cy="0" r="1" gradientUnits="userSpaceOnUse" gradientTransform="translate(13.358 12.2543) scale(2.04722)">
<stop offset="0.23" stop-color="#00CDFF"/>
<stop offset="0.49" stop-color="#00BCFA"/>
<stop offset="0.77" stop-color="#00ABF8"/>
<stop offset="1" stop-color="#0098F7"/>
</radialGradient>
<radialGradient id="paint54_radial_31_8310" cx="0" cy="0" r="1" gradientUnits="userSpaceOnUse" gradientTransform="translate(13.3578 12.2543) scale(2.04722)">
<stop offset="0.23" stop-color="#00CDFF"/>
<stop offset="0.49" stop-color="#00BCFA"/>
<stop offset="0.77" stop-color="#00ABF8"/>
<stop offset="1" stop-color="#0098F7"/>
</radialGradient>
<radialGradient id="paint55_radial_31_8310" cx="0" cy="0" r="1" gradientUnits="userSpaceOnUse" gradientTransform="translate(13.3578 12.2543) scale(2.04722 2.04722)">
<stop offset="0.23" stop-color="#00CDFF"/>
<stop offset="0.49" stop-color="#00BCFA"/>
<stop offset="0.77" stop-color="#00ABF8"/>
<stop offset="1" stop-color="#0098F7"/>
</radialGradient>
<linearGradient id="paint56_linear_31_8310" x1="9.86882" y1="10.9726" x2="11.293" y2="13.4292" gradientUnits="userSpaceOnUse">
<stop stop-color="#0CF4FF"/>
<stop offset="0.28" stop-color="#04EEFE"/>
<stop offset="1" stop-color="#00B1F7"/>
</linearGradient>
<radialGradient id="paint57_radial_31_8310" cx="0" cy="0" r="1" gradientUnits="userSpaceOnUse" gradientTransform="translate(13.3581 12.2543) scale(2.04723 2.04722)">
<stop offset="0.23" stop-color="#00CDFF"/>
<stop offset="0.49" stop-color="#00BCFA"/>
<stop offset="0.77" stop-color="#00ABF8"/>
<stop offset="1" stop-color="#0098F7"/>
</radialGradient>
<linearGradient id="paint58_linear_31_8310" x1="12.984" y1="12.6103" x2="14.3904" y2="10.1892" gradientUnits="userSpaceOnUse">
<stop stop-color="#1964E7"/>
<stop offset="1" stop-color="#6884F2"/>
</linearGradient>
<linearGradient id="paint59_linear_31_8310" x1="9.86873" y1="10.9725" x2="11.2929" y2="13.4292" gradientUnits="userSpaceOnUse">
<stop stop-color="#0CF4FF"/>
<stop offset="0.28" stop-color="#04EEFE"/>
<stop offset="1" stop-color="#00B1F7"/>
</linearGradient>
<linearGradient id="paint60_linear_31_8310" x1="9.86867" y1="9.81541" x2="9.86867" y2="10.6521" gradientUnits="userSpaceOnUse">
<stop stop-color="#40FAFD"/>
<stop offset="1" stop-color="#00E0FF"/>
</linearGradient>
<linearGradient id="paint61_linear_31_8310" x1="9.86892" y1="10.9725" x2="11.293" y2="13.4292" gradientUnits="userSpaceOnUse">
<stop stop-color="#0CF4FF"/>
<stop offset="0.28" stop-color="#04EEFE"/>
<stop offset="1" stop-color="#00B1F7"/>
</linearGradient>
<linearGradient id="paint62_linear_31_8310" x1="9.86861" y1="10.9725" x2="11.2928" y2="13.4292" gradientUnits="userSpaceOnUse">
<stop stop-color="#0CF4FF"/>
<stop offset="0.28" stop-color="#04EEFE"/>
<stop offset="1" stop-color="#00B1F7"/>
</linearGradient>
<linearGradient id="paint63_linear_31_8310" x1="9.86873" y1="10.9725" x2="11.2929" y2="13.4292" gradientUnits="userSpaceOnUse">
<stop stop-color="#0CF4FF"/>
<stop offset="0.28" stop-color="#04EEFE"/>
<stop offset="1" stop-color="#00B1F7"/>
</linearGradient>
<linearGradient id="paint64_linear_31_8310" x1="9.86894" y1="10.9725" x2="11.2931" y2="13.4292" gradientUnits="userSpaceOnUse">
<stop stop-color="#0CF4FF"/>
<stop offset="0.28" stop-color="#04EEFE"/>
<stop offset="1" stop-color="#00B1F7"/>
</linearGradient>
<linearGradient id="paint65_linear_31_8310" x1="9.86889" y1="9.8154" x2="9.86889" y2="10.6521" gradientUnits="userSpaceOnUse">
<stop stop-color="#40FAFD"/>
<stop offset="1" stop-color="#00E0FF"/>
</linearGradient>
<linearGradient id="paint66_linear_31_8310" x1="11.186" y1="8.64049" x2="11.186" y2="10.0468" gradientUnits="userSpaceOnUse">
<stop stop-color="#8EF6FD"/>
<stop offset="1" stop-color="#2BE8FF"/>
</linearGradient>
<linearGradient id="paint67_linear_31_8310" x1="11.1861" y1="8.64047" x2="11.1861" y2="10.0468" gradientUnits="userSpaceOnUse">
<stop stop-color="#8EF6FD"/>
<stop offset="1" stop-color="#2BE8FF"/>
</linearGradient>
<linearGradient id="paint68_linear_31_8310" x1="12.6815" y1="8.42684" x2="12.6815" y2="8.90751" gradientUnits="userSpaceOnUse">
<stop stop-color="#92EEFE"/>
<stop offset="1" stop-color="#59E5FE"/>
</linearGradient>
<linearGradient id="paint69_linear_31_8310" x1="11.1861" y1="8.64049" x2="11.1861" y2="10.0468" gradientUnits="userSpaceOnUse">
<stop stop-color="#8EF6FD"/>
<stop offset="1" stop-color="#2BE8FF"/>
</linearGradient>
<linearGradient id="paint70_linear_31_8310" x1="12.6817" y1="8.42688" x2="12.6817" y2="8.90751" gradientUnits="userSpaceOnUse">
<stop stop-color="#92EEFE"/>
<stop offset="1" stop-color="#59E5FE"/>
</linearGradient>
<linearGradient id="paint71_linear_31_8310" x1="11.7739" y1="9.83323" x2="12.3079" y2="10.7411" gradientUnits="userSpaceOnUse">
<stop stop-color="#A6FEFF"/>
<stop offset="0.53" stop-color="#BFFDFE"/>
<stop offset="1" stop-color="#97EDFF"/>
</linearGradient>
<linearGradient id="paint72_linear_31_8310" x1="11.7736" y1="9.83322" x2="12.3077" y2="10.7411" gradientUnits="userSpaceOnUse">
<stop stop-color="#A6FEFF"/>
<stop offset="0.53" stop-color="#BFFDFE"/>
<stop offset="1" stop-color="#97EDFF"/>
</linearGradient>
<linearGradient id="paint73_linear_31_8310" x1="11.7736" y1="9.83322" x2="12.3077" y2="10.7411" gradientUnits="userSpaceOnUse">
<stop stop-color="#A6FEFF"/>
<stop offset="0.53" stop-color="#BFFDFE"/>
<stop offset="1" stop-color="#97EDFF"/>
</linearGradient>
<clipPath id="clip0_31_8310">
<rect width="42" height="42" fill="white"/>
</clipPath>
</defs>
</svg>
