<svg width="42" height="42" viewBox="0 0 42 42" fill="none" xmlns="http://www.w3.org/2000/svg">
<g clip-path="url(#clip0_31_8393)">
<path d="M31.5 0H10.5C4.70101 0 0 4.70101 0 10.5V31.5C0 37.299 4.70101 42 10.5 42H31.5C37.299 42 42 37.299 42 31.5V10.5C42 4.70101 37.299 0 31.5 0Z" fill="url(#paint0_linear_31_8393)"/>
<path d="M31.5 0H10.5C4.70101 0 0 4.70101 0 10.5V31.5C0 37.299 4.70101 42 10.5 42H31.5C37.299 42 42 37.299 42 31.5V10.5C42 4.70101 37.299 0 31.5 0Z" fill="url(#paint1_linear_31_8393)"/>
<g filter="url(#filter0_i_31_8393)">
<path d="M31.5 2.625H10.5C6.15076 2.625 2.625 6.15076 2.625 10.5V31.5C2.625 35.8492 6.15076 39.375 10.5 39.375H31.5C35.8492 39.375 39.375 35.8492 39.375 31.5V10.5C39.375 6.15076 35.8492 2.625 31.5 2.625Z" fill="black" fill-opacity="0.7"/>
<mask id="mask0_31_8393" style="mask-type:luminance" maskUnits="userSpaceOnUse" x="5" y="5" width="32" height="32">
<path d="M36.75 5.25H5.25V36.75H36.75V5.25Z" fill="white"/>
</mask>
<g mask="url(#mask0_31_8393)">
<g filter="url(#filter1_d_31_8393)">
<path d="M10.4821 32.628L6.6001 9.61799L13.7791 6.63901L18.3631 9.363L22.5631 7.09799L31.3141 10.458L26.4061 35.4001L10.4821 32.628Z" fill="url(#paint2_linear_31_8393)"/>
</g>
<g filter="url(#filter2_d_31_8393)">
<path d="M35.4004 16.353L31.6833 7.17298L24.9393 6.60001L14.5293 16.602L17.3313 29.493L22.5633 33.162L35.4004 25.545L32.2503 19.638L35.4004 16.353Z" fill="url(#paint3_linear_31_8393)"/>
</g>
<g filter="url(#filter3_d_31_8393)">
<path d="M29.6313 14.985L32.2503 19.638L35.4004 16.353L33.0874 10.635L29.6313 14.985Z" fill="url(#paint4_linear_31_8393)"/>
</g>
<g filter="url(#filter4_d_31_8393)">
<path d="M12 12H30V30H12V12Z" fill="black"/>
</g>
<path d="M14.2441 26.598H20.9942V27.723H14.2441V26.598Z" fill="white"/>
<path d="M20.6344 14.241L19.6294 18.18L18.4804 14.241H17.3374L16.1854 18.18L15.1834 14.241H13.6084L15.5374 20.994H16.8034L17.9074 17.085L18.9994 20.994H20.2804L22.2064 14.241H20.6344Z" fill="white"/>
<path d="M22.4883 20.031L23.3673 18.978C23.9194 19.4879 24.6379 19.78 25.3893 19.8C25.9893 19.8 26.3673 19.56 26.3673 19.161V19.143C26.3673 18.765 26.1333 18.573 25.0023 18.282C23.6373 17.934 22.7583 17.556 22.7583 16.212V16.191C22.7583 14.964 23.7453 14.151 25.1283 14.151C26.0412 14.1348 26.9309 14.4396 27.6423 15.012L26.8683 16.134C26.3625 15.7383 25.7483 15.506 25.1073 15.468C24.5373 15.468 24.2373 15.729 24.2373 16.068V16.089C24.2373 16.533 24.5373 16.689 25.6983 16.989C27.0723 17.349 27.8463 17.841 27.8463 19.023V19.041C27.8463 20.385 26.8203 21.141 25.3593 21.141C24.3017 21.1452 23.2796 20.7596 22.4883 20.058" fill="white"/>
</g>
</g>
</g>
<defs>
<filter id="filter0_i_31_8393" x="2.625" y="2.625" width="36.75" height="40.75" filterUnits="userSpaceOnUse" color-interpolation-filters="sRGB">
<feFlood flood-opacity="0" result="BackgroundImageFix"/>
<feBlend mode="normal" in="SourceGraphic" in2="BackgroundImageFix" result="shape"/>
<feColorMatrix in="SourceAlpha" type="matrix" values="0 0 0 0 0 0 0 0 0 0 0 0 0 0 0 0 0 0 127 0" result="hardAlpha"/>
<feOffset dy="4"/>
<feGaussianBlur stdDeviation="2"/>
<feComposite in2="hardAlpha" operator="arithmetic" k2="-1" k3="1"/>
<feColorMatrix type="matrix" values="0 0 0 0 0 0 0 0 0 0 0 0 0 0 0 0 0 0 0.25 0"/>
<feBlend mode="normal" in2="shape" result="effect1_innerShadow_31_8393"/>
</filter>
<filter id="filter1_d_31_8393" x="2.6001" y="4.63901" width="32.7139" height="36.7611" filterUnits="userSpaceOnUse" color-interpolation-filters="sRGB">
<feFlood flood-opacity="0" result="BackgroundImageFix"/>
<feColorMatrix in="SourceAlpha" type="matrix" values="0 0 0 0 0 0 0 0 0 0 0 0 0 0 0 0 0 0 127 0" result="hardAlpha"/>
<feOffset dy="2"/>
<feGaussianBlur stdDeviation="2"/>
<feComposite in2="hardAlpha" operator="out"/>
<feColorMatrix type="matrix" values="0 0 0 0 0 0 0 0 0 0 0 0 0 0 0 0 0 0 0.25 0"/>
<feBlend mode="normal" in2="BackgroundImageFix" result="effect1_dropShadow_31_8393"/>
<feBlend mode="normal" in="SourceGraphic" in2="effect1_dropShadow_31_8393" result="shape"/>
</filter>
<filter id="filter2_d_31_8393" x="10.5293" y="4.60001" width="28.8711" height="34.562" filterUnits="userSpaceOnUse" color-interpolation-filters="sRGB">
<feFlood flood-opacity="0" result="BackgroundImageFix"/>
<feColorMatrix in="SourceAlpha" type="matrix" values="0 0 0 0 0 0 0 0 0 0 0 0 0 0 0 0 0 0 127 0" result="hardAlpha"/>
<feOffset dy="2"/>
<feGaussianBlur stdDeviation="2"/>
<feComposite in2="hardAlpha" operator="out"/>
<feColorMatrix type="matrix" values="0 0 0 0 0 0 0 0 0 0 0 0 0 0 0 0 0 0 0.25 0"/>
<feBlend mode="normal" in2="BackgroundImageFix" result="effect1_dropShadow_31_8393"/>
<feBlend mode="normal" in="SourceGraphic" in2="effect1_dropShadow_31_8393" result="shape"/>
</filter>
<filter id="filter3_d_31_8393" x="25.6313" y="8.63498" width="13.769" height="17.003" filterUnits="userSpaceOnUse" color-interpolation-filters="sRGB">
<feFlood flood-opacity="0" result="BackgroundImageFix"/>
<feColorMatrix in="SourceAlpha" type="matrix" values="0 0 0 0 0 0 0 0 0 0 0 0 0 0 0 0 0 0 127 0" result="hardAlpha"/>
<feOffset dy="2"/>
<feGaussianBlur stdDeviation="2"/>
<feComposite in2="hardAlpha" operator="out"/>
<feColorMatrix type="matrix" values="0 0 0 0 0 0 0 0 0 0 0 0 0 0 0 0 0 0 0.25 0"/>
<feBlend mode="normal" in2="BackgroundImageFix" result="effect1_dropShadow_31_8393"/>
<feBlend mode="normal" in="SourceGraphic" in2="effect1_dropShadow_31_8393" result="shape"/>
</filter>
<filter id="filter4_d_31_8393" x="8" y="10" width="26" height="26" filterUnits="userSpaceOnUse" color-interpolation-filters="sRGB">
<feFlood flood-opacity="0" result="BackgroundImageFix"/>
<feColorMatrix in="SourceAlpha" type="matrix" values="0 0 0 0 0 0 0 0 0 0 0 0 0 0 0 0 0 0 127 0" result="hardAlpha"/>
<feOffset dy="2"/>
<feGaussianBlur stdDeviation="2"/>
<feComposite in2="hardAlpha" operator="out"/>
<feColorMatrix type="matrix" values="0 0 0 0 0 0 0 0 0 0 0 0 0 0 0 0 0 0 0.25 0"/>
<feBlend mode="normal" in2="BackgroundImageFix" result="effect1_dropShadow_31_8393"/>
<feBlend mode="normal" in="SourceGraphic" in2="effect1_dropShadow_31_8393" result="shape"/>
</filter>
<linearGradient id="paint0_linear_31_8393" x1="21" y1="0" x2="21" y2="42" gradientUnits="userSpaceOnUse">
<stop stop-color="#3BEA62"/>
<stop offset="0.5" stop-color="#009AE5"/>
<stop offset="1" stop-color="#6B57FF"/>
</linearGradient>
<linearGradient id="paint1_linear_31_8393" x1="17.528" y1="0.819233" x2="27.0576" y2="40.7505" gradientUnits="userSpaceOnUse">
<stop offset="0.28" stop-color="#07C3F2"/>
<stop offset="0.94" stop-color="#087CFA"/>
</linearGradient>
<linearGradient id="paint2_linear_31_8393" x1="16.9141" y1="7.2" x2="24.3661" y2="34.0321" gradientUnits="userSpaceOnUse">
<stop offset="0.28" stop-color="#07C3F2"/>
<stop offset="0.94" stop-color="#087CFA"/>
</linearGradient>
<linearGradient id="paint3_linear_31_8393" x1="19.2393" y1="10.605" x2="31.8483" y2="29.094" gradientUnits="userSpaceOnUse">
<stop offset="0.14" stop-color="#FCF84A"/>
<stop offset="0.37" stop-color="#07C3F2"/>
</linearGradient>
<linearGradient id="paint4_linear_31_8393" x1="31.7313" y1="12.891" x2="33.3873" y2="18.756" gradientUnits="userSpaceOnUse">
<stop offset="0.28" stop-color="#07C3F2"/>
<stop offset="0.94" stop-color="#087CFA"/>
</linearGradient>
<clipPath id="clip0_31_8393">
<rect width="42" height="42" fill="white"/>
</clipPath>
</defs>
</svg>
