<svg width="128" height="128" viewBox="0 0 128 128" fill="none" xmlns="http://www.w3.org/2000/svg">
<rect width="128" height="128" rx="32" fill="url(#paint0_linear_165_54)"/>
<rect width="128" height="128" rx="32" fill="black" fill-opacity="0.9"/>
<g filter="url(#filter0_i_165_54)">
<rect x="8" y="8" width="112" height="112" rx="24" fill="black" fill-opacity="0.7"/>
<path d="M82.9738 61.0785C82.6292 60.9133 82.2792 60.7543 81.9247 60.6021C81.3072 49.2242 75.0901 42.7104 64.6509 42.6437C64.6036 42.6435 64.5565 42.6435 64.5092 42.6435C58.2652 42.6435 53.0722 45.3087 49.8759 50.1586L55.6172 54.097C58.0049 50.4743 61.7522 49.702 64.512 49.702C64.5439 49.702 64.5759 49.702 64.6074 49.7023C68.0447 49.7242 70.6384 50.7236 72.3172 52.6725C73.5388 54.0914 74.3559 56.0521 74.7605 58.5266C71.713 58.0086 68.4172 57.8494 64.8938 58.0514C54.9687 58.6231 48.588 64.4116 49.0166 72.455C49.234 76.535 51.2666 80.045 54.7397 82.3379C57.6761 84.2762 61.458 85.2242 65.3885 85.0096C70.5792 84.725 74.6513 82.7446 77.4922 79.1233C79.6497 76.3733 81.0142 72.8096 81.6167 68.3192C84.0905 69.8121 85.9238 71.7767 86.9363 74.1383C88.658 78.1529 88.7584 84.75 83.3755 90.1283C78.6592 94.84 72.9901 96.8783 64.4224 96.9413C54.9185 96.8708 47.7308 93.8229 43.0576 87.8821C38.6815 82.3192 36.42 74.2842 36.3356 64C36.42 53.7157 38.6815 45.6807 43.0576 40.1178C47.7308 34.177 54.9184 31.1292 64.4222 31.0585C73.9951 31.1297 81.308 34.1922 86.1601 40.1617C88.5392 43.089 90.333 46.7703 91.5155 51.0626L98.2434 49.2676C96.8101 43.9842 94.5547 39.4315 91.4855 35.6558C85.2651 28.0028 76.1676 24.0813 64.4457 24H64.3988C52.7007 24.081 43.7051 28.0174 37.6619 35.6997C32.2842 42.536 29.5102 52.0482 29.417 63.9719L29.4167 64L29.417 64.0281C29.5102 75.9517 32.2842 85.4642 37.6619 92.3004C43.7051 99.9825 52.7007 103.919 64.3988 104H64.4457C74.8459 103.928 82.1767 101.205 88.2159 95.1713C96.1172 87.2775 95.8792 77.3829 93.2751 71.3087C91.4067 66.9529 87.8447 63.4151 82.9738 61.0785ZM65.017 77.9613C60.667 78.2063 56.1477 76.2537 55.9249 72.0717C55.7597 68.9708 58.1317 65.5108 65.2839 65.0987C66.103 65.0514 66.9067 65.0283 67.6963 65.0283C70.2942 65.0283 72.7247 65.2807 74.9342 65.7637C74.1101 76.0562 69.2759 77.7275 65.017 77.9613Z" fill="white"/>
</g>
<defs>
<filter id="filter0_i_165_54" x="8" y="8" width="112" height="116" filterUnits="userSpaceOnUse" color-interpolation-filters="sRGB">
<feFlood flood-opacity="0" result="BackgroundImageFix"/>
<feBlend mode="normal" in="SourceGraphic" in2="BackgroundImageFix" result="shape"/>
<feColorMatrix in="SourceAlpha" type="matrix" values="0 0 0 0 0 0 0 0 0 0 0 0 0 0 0 0 0 0 127 0" result="hardAlpha"/>
<feOffset dy="4"/>
<feGaussianBlur stdDeviation="2"/>
<feComposite in2="hardAlpha" operator="arithmetic" k2="-1" k3="1"/>
<feColorMatrix type="matrix" values="0 0 0 0 0 0 0 0 0 0 0 0 0 0 0 0 0 0 0.25 0"/>
<feBlend mode="normal" in2="shape" result="effect1_innerShadow_165_54"/>
</filter>
<linearGradient id="paint0_linear_165_54" x1="64" y1="0" x2="64" y2="128" gradientUnits="userSpaceOnUse">
<stop stop-color="white"/>
<stop offset="1" stop-color="#DFDFDF"/>
</linearGradient>
</defs>
</svg>
