<svg width="128" height="128" viewBox="0 0 128 128" fill="none" xmlns="http://www.w3.org/2000/svg">
<rect y="16" width="128" height="96" rx="8" fill="#462E86"/>
<path d="M0 66H62V112H8C3.58172 112 0 108.418 0 104V66Z" fill="#7962E7"/>
<g filter="url(#filter0_d_103_633)">
<rect x="15" y="77" width="32" height="24" rx="2" fill="#2C2C2C"/>
<rect x="15" y="77" width="32" height="3" fill="#222222"/>
</g>
<path d="M66 66H128V104C128 108.418 124.418 112 120 112H66V66Z" fill="#7962E7"/>
<g filter="url(#filter1_d_103_633)">
<rect x="81" y="77" width="32" height="24" rx="2" fill="#2C2C2C"/>
<rect x="81" y="77" width="32" height="3" fill="#222222"/>
</g>
<path d="M66 16H120C124.418 16 128 19.5817 128 24V62H66V16Z" fill="#7962E7"/>
<g filter="url(#filter2_d_103_633)">
<rect x="81" y="27" width="32" height="24" rx="2" fill="#2C2C2C"/>
<rect x="81" y="27" width="32" height="3" fill="#222222"/>
</g>
<path d="M0 24C0 19.5817 3.58172 16 8 16H62V62H0V24Z" fill="#7962E7"/>
<g filter="url(#filter3_d_103_633)">
<rect x="15" y="27" width="32" height="24" rx="2" fill="#2C2C2C"/>
<rect x="15" y="27" width="32" height="3" fill="#222222"/>
</g>
<defs>
<filter id="filter0_d_103_633" x="13" y="76" width="36" height="28" filterUnits="userSpaceOnUse" color-interpolation-filters="sRGB">
<feFlood flood-opacity="0" result="BackgroundImageFix"/>
<feColorMatrix in="SourceAlpha" type="matrix" values="0 0 0 0 0 0 0 0 0 0 0 0 0 0 0 0 0 0 127 0" result="hardAlpha"/>
<feOffset dy="1"/>
<feGaussianBlur stdDeviation="1"/>
<feComposite in2="hardAlpha" operator="out"/>
<feColorMatrix type="matrix" values="0 0 0 0 0 0 0 0 0 0 0 0 0 0 0 0 0 0 0.25 0"/>
<feBlend mode="normal" in2="BackgroundImageFix" result="effect1_dropShadow_103_633"/>
<feBlend mode="normal" in="SourceGraphic" in2="effect1_dropShadow_103_633" result="shape"/>
</filter>
<filter id="filter1_d_103_633" x="79" y="76" width="36" height="28" filterUnits="userSpaceOnUse" color-interpolation-filters="sRGB">
<feFlood flood-opacity="0" result="BackgroundImageFix"/>
<feColorMatrix in="SourceAlpha" type="matrix" values="0 0 0 0 0 0 0 0 0 0 0 0 0 0 0 0 0 0 127 0" result="hardAlpha"/>
<feOffset dy="1"/>
<feGaussianBlur stdDeviation="1"/>
<feComposite in2="hardAlpha" operator="out"/>
<feColorMatrix type="matrix" values="0 0 0 0 0 0 0 0 0 0 0 0 0 0 0 0 0 0 0.25 0"/>
<feBlend mode="normal" in2="BackgroundImageFix" result="effect1_dropShadow_103_633"/>
<feBlend mode="normal" in="SourceGraphic" in2="effect1_dropShadow_103_633" result="shape"/>
</filter>
<filter id="filter2_d_103_633" x="79" y="26" width="36" height="28" filterUnits="userSpaceOnUse" color-interpolation-filters="sRGB">
<feFlood flood-opacity="0" result="BackgroundImageFix"/>
<feColorMatrix in="SourceAlpha" type="matrix" values="0 0 0 0 0 0 0 0 0 0 0 0 0 0 0 0 0 0 127 0" result="hardAlpha"/>
<feOffset dy="1"/>
<feGaussianBlur stdDeviation="1"/>
<feComposite in2="hardAlpha" operator="out"/>
<feColorMatrix type="matrix" values="0 0 0 0 0 0 0 0 0 0 0 0 0 0 0 0 0 0 0.25 0"/>
<feBlend mode="normal" in2="BackgroundImageFix" result="effect1_dropShadow_103_633"/>
<feBlend mode="normal" in="SourceGraphic" in2="effect1_dropShadow_103_633" result="shape"/>
</filter>
<filter id="filter3_d_103_633" x="13" y="26" width="36" height="28" filterUnits="userSpaceOnUse" color-interpolation-filters="sRGB">
<feFlood flood-opacity="0" result="BackgroundImageFix"/>
<feColorMatrix in="SourceAlpha" type="matrix" values="0 0 0 0 0 0 0 0 0 0 0 0 0 0 0 0 0 0 127 0" result="hardAlpha"/>
<feOffset dy="1"/>
<feGaussianBlur stdDeviation="1"/>
<feComposite in2="hardAlpha" operator="out"/>
<feColorMatrix type="matrix" values="0 0 0 0 0 0 0 0 0 0 0 0 0 0 0 0 0 0 0.25 0"/>
<feBlend mode="normal" in2="BackgroundImageFix" result="effect1_dropShadow_103_633"/>
<feBlend mode="normal" in="SourceGraphic" in2="effect1_dropShadow_103_633" result="shape"/>
</filter>
</defs>
</svg>
