<svg width="128" height="128" viewBox="0 0 128 128" fill="none" xmlns="http://www.w3.org/2000/svg">
<rect y="16" width="128" height="96" rx="8" fill="#7962E7"/>
<rect x="88" y="72" width="32" height="32" rx="16" fill="#462E86"/>
<mask id="mask0_104_650" style="mask-type:alpha" maskUnits="userSpaceOnUse" x="92" y="76" width="24" height="24">
<rect x="92" y="76" width="24" height="24" fill="#D9D9D9"/>
</mask>
<g mask="url(#mask0_104_650)">
<path d="M104 97C103.717 97 103.479 96.9042 103.288 96.7125C103.096 96.5208 103 96.2833 103 96V92C103 91.7167 103.096 91.4792 103.288 91.2875C103.479 91.0958 103.717 91 104 91C104.283 91 104.521 91.0958 104.713 91.2875C104.904 91.4792 105 91.7167 105 92V93H112C112.283 93 112.521 93.0958 112.712 93.2875C112.904 93.4792 113 93.7167 113 94C113 94.2833 112.904 94.5208 112.712 94.7125C112.521 94.9042 112.283 95 112 95H105V96C105 96.2833 104.904 96.5208 104.713 96.7125C104.521 96.9042 104.283 97 104 97ZM96 95C95.7167 95 95.4792 94.9042 95.2875 94.7125C95.0958 94.5208 95 94.2833 95 94C95 93.7167 95.0958 93.4792 95.2875 93.2875C95.4792 93.0958 95.7167 93 96 93H100C100.283 93 100.521 93.0958 100.713 93.2875C100.904 93.4792 101 93.7167 101 94C101 94.2833 100.904 94.5208 100.713 94.7125C100.521 94.9042 100.283 95 100 95H96ZM100 91C99.7167 91 99.4792 90.9042 99.2875 90.7125C99.0958 90.5208 99 90.2833 99 90V89H96C95.7167 89 95.4792 88.9042 95.2875 88.7125C95.0958 88.5208 95 88.2833 95 88C95 87.7167 95.0958 87.4792 95.2875 87.2875C95.4792 87.0958 95.7167 87 96 87H99V86C99 85.7167 99.0958 85.4792 99.2875 85.2875C99.4792 85.0958 99.7167 85 100 85C100.283 85 100.521 85.0958 100.713 85.2875C100.904 85.4792 101 85.7167 101 86V90C101 90.2833 100.904 90.5208 100.713 90.7125C100.521 90.9042 100.283 91 100 91ZM104 89C103.717 89 103.479 88.9042 103.288 88.7125C103.096 88.5208 103 88.2833 103 88C103 87.7167 103.096 87.4792 103.288 87.2875C103.479 87.0958 103.717 87 104 87H112C112.283 87 112.521 87.0958 112.712 87.2875C112.904 87.4792 113 87.7167 113 88C113 88.2833 112.904 88.5208 112.712 88.7125C112.521 88.9042 112.283 89 112 89H104ZM108 85C107.717 85 107.479 84.9042 107.288 84.7125C107.096 84.5208 107 84.2833 107 84V80C107 79.7167 107.096 79.4792 107.288 79.2875C107.479 79.0958 107.717 79 108 79C108.283 79 108.521 79.0958 108.713 79.2875C108.904 79.4792 109 79.7167 109 80V81H112C112.283 81 112.521 81.0958 112.712 81.2875C112.904 81.4792 113 81.7167 113 82C113 82.2833 112.904 82.5208 112.712 82.7125C112.521 82.9042 112.283 83 112 83H109V84C109 84.2833 108.904 84.5208 108.713 84.7125C108.521 84.9042 108.283 85 108 85ZM96 83C95.7167 83 95.4792 82.9042 95.2875 82.7125C95.0958 82.5208 95 82.2833 95 82C95 81.7167 95.0958 81.4792 95.2875 81.2875C95.4792 81.0958 95.7167 81 96 81H104C104.283 81 104.521 81.0958 104.713 81.2875C104.904 81.4792 105 81.7167 105 82C105 82.2833 104.904 82.5208 104.713 82.7125C104.521 82.9042 104.283 83 104 83H96Z" fill="#FAFAFA"/>
</g>
<rect x="8" y="32" width="20" height="20" rx="4" fill="#462E86"/>
<rect x="8" y="58" width="20" height="20" rx="4" fill="#462E86"/>
<rect x="8" y="84" width="20" height="20" rx="4" fill="#462E86"/>
<rect x="38" y="32" width="20" height="20" rx="4" fill="#462E86"/>
<rect x="38" y="58" width="20" height="20" rx="4" fill="#462E86"/>
<rect x="51" y="22" width="25" height="4" rx="2" fill="#462E86"/>
</svg>
