<svg xmlns="http://www.w3.org/2000/svg" width="128" height="128" fill="none"><rect width="128" height="128" fill="url(#a)" rx="32"/><rect width="128" height="128" fill="url(#b)" rx="32"/><g filter="url(#c)"><rect width="112" height="112" x="8" y="8" fill="#000" fill-opacity=".7" rx="24"/><g clip-path="url(#d)"><g filter="url(#e)"><path fill="#087CFA" d="m87.186 107.886 20.7-54.73-16.457-3.73z"/></g><g filter="url(#f)"><path fill="#087CFA" d="m107.63 90.514-20.444 17.372-29.175-7.516z"/></g><g filter="url(#g)"><path fill="#07C3F2" d="m31.04 60.325-9.326-26.68 46.565-13.53z"/></g><g filter="url(#h)"><path fill="url(#i)" d="M96.695 70.93 83.63 48.63l.246-.155-15.597-28.36-48.165 52.013v35.758l87.516-17.372z"/></g><g filter="url(#j)"><path fill="#000" d="M36.572 36.571h54.857V91.43H36.572z"/></g><path fill="#fff" d="M43.41 81.06h20.572v3.43H43.41zm7.333-37.631h4.114l8.759 20.598h-4.7l-1.828-4.571h-8.686l-1.828 4.571h-4.572zm4.736 12.04-2.743-6.637-2.743 6.638zm7.415-1.645v-.055A10.543 10.543 0 0 1 73.71 43.045a10.73 10.73 0 0 1 8.183 3.19l-2.908 3.356a7.64 7.64 0 0 0-5.303-2.34c-3.492 0-6.016 2.898-6.016 6.454v.064c0 3.557 2.46 6.519 6.016 6.519 2.368 0 3.822-.914 5.486-2.432l2.87 2.944a10.63 10.63 0 0 1-8.502 3.657 10.467 10.467 0 0 1-10.642-10.633"/></g></g><defs><filter id="c" width="112" height="116" x="8" y="8" color-interpolation-filters="sRGB" filterUnits="userSpaceOnUse"><feFlood flood-opacity="0" result="BackgroundImageFix"/><feBlend in="SourceGraphic" in2="BackgroundImageFix" result="shape"/><feColorMatrix in="SourceAlpha" result="hardAlpha" values="0 0 0 0 0 0 0 0 0 0 0 0 0 0 0 0 0 0 127 0"/><feOffset dy="4"/><feGaussianBlur stdDeviation="2"/><feComposite in2="hardAlpha" k2="-1" k3="1" operator="arithmetic"/><feColorMatrix values="0 0 0 0 0 0 0 0 0 0 0 0 0 0 0 0 0 0 0.25 0"/><feBlend in2="shape" result="effect1_innerShadow_141_44"/></filter><filter id="e" width="28.7" height="66.46" x="83.186" y="47.426" color-interpolation-filters="sRGB" filterUnits="userSpaceOnUse"><feFlood flood-opacity="0" result="BackgroundImageFix"/><feColorMatrix in="SourceAlpha" result="hardAlpha" values="0 0 0 0 0 0 0 0 0 0 0 0 0 0 0 0 0 0 127 0"/><feOffset dy="2"/><feGaussianBlur stdDeviation="2"/><feComposite in2="hardAlpha" operator="out"/><feColorMatrix values="0 0 0 0 0 0 0 0 0 0 0 0 0 0 0 0 0 0 0.25 0"/><feBlend in2="BackgroundImageFix" result="effect1_dropShadow_141_44"/><feBlend in="SourceGraphic" in2="effect1_dropShadow_141_44" result="shape"/></filter><filter id="f" width="57.618" height="25.372" x="54.011" y="88.514" color-interpolation-filters="sRGB" filterUnits="userSpaceOnUse"><feFlood flood-opacity="0" result="BackgroundImageFix"/><feColorMatrix in="SourceAlpha" result="hardAlpha" values="0 0 0 0 0 0 0 0 0 0 0 0 0 0 0 0 0 0 127 0"/><feOffset dy="2"/><feGaussianBlur stdDeviation="2"/><feComposite in2="hardAlpha" operator="out"/><feColorMatrix values="0 0 0 0 0 0 0 0 0 0 0 0 0 0 0 0 0 0 0.25 0"/><feBlend in2="BackgroundImageFix" result="effect1_dropShadow_141_44"/><feBlend in="SourceGraphic" in2="effect1_dropShadow_141_44" result="shape"/></filter><filter id="g" width="54.565" height="48.21" x="17.714" y="18.114" color-interpolation-filters="sRGB" filterUnits="userSpaceOnUse"><feFlood flood-opacity="0" result="BackgroundImageFix"/><feColorMatrix in="SourceAlpha" result="hardAlpha" values="0 0 0 0 0 0 0 0 0 0 0 0 0 0 0 0 0 0 127 0"/><feOffset dy="2"/><feGaussianBlur stdDeviation="2"/><feComposite in2="hardAlpha" operator="out"/><feColorMatrix values="0 0 0 0 0 0 0 0 0 0 0 0 0 0 0 0 0 0 0.25 0"/><feBlend in2="BackgroundImageFix" result="effect1_dropShadow_141_44"/><feBlend in="SourceGraphic" in2="effect1_dropShadow_141_44" result="shape"/></filter><filter id="h" width="95.515" height="95.772" x="16.114" y="18.114" color-interpolation-filters="sRGB" filterUnits="userSpaceOnUse"><feFlood flood-opacity="0" result="BackgroundImageFix"/><feColorMatrix in="SourceAlpha" result="hardAlpha" values="0 0 0 0 0 0 0 0 0 0 0 0 0 0 0 0 0 0 127 0"/><feOffset dy="2"/><feGaussianBlur stdDeviation="2"/><feComposite in2="hardAlpha" operator="out"/><feColorMatrix values="0 0 0 0 0 0 0 0 0 0 0 0 0 0 0 0 0 0 0.25 0"/><feBlend in2="BackgroundImageFix" result="effect1_dropShadow_141_44"/><feBlend in="SourceGraphic" in2="effect1_dropShadow_141_44" result="shape"/></filter><filter id="j" width="62.857" height="62.857" x="32.572" y="34.571" color-interpolation-filters="sRGB" filterUnits="userSpaceOnUse"><feFlood flood-opacity="0" result="BackgroundImageFix"/><feColorMatrix in="SourceAlpha" result="hardAlpha" values="0 0 0 0 0 0 0 0 0 0 0 0 0 0 0 0 0 0 127 0"/><feOffset dy="2"/><feGaussianBlur stdDeviation="2"/><feComposite in2="hardAlpha" operator="out"/><feColorMatrix values="0 0 0 0 0 0 0 0 0 0 0 0 0 0 0 0 0 0 0.25 0"/><feBlend in2="BackgroundImageFix" result="effect1_dropShadow_141_44"/><feBlend in="SourceGraphic" in2="effect1_dropShadow_141_44" result="shape"/></filter><linearGradient id="a" x1="64" x2="64" y1="0" y2="128" gradientUnits="userSpaceOnUse"><stop stop-color="#FCF84A"/><stop offset=".245" stop-color="#9AF156"/><stop offset=".51" stop-color="#7AE36F"/><stop offset=".745" stop-color="#21D789"/><stop offset="1" stop-color="#07C3F2"/></linearGradient><linearGradient id="b" x1="84.139" x2="20.785" y1="132.067" y2="43.385" gradientUnits="userSpaceOnUse"><stop offset=".09" stop-color="#21D789"/><stop offset=".48" stop-color="#07C3F2"/><stop offset=".9" stop-color="#087CFA"/></linearGradient><linearGradient id="i" x1="77.641" x2="34.158" y1="110.674" y2="49.984" gradientUnits="userSpaceOnUse"><stop offset=".09" stop-color="#21D789"/><stop offset=".48" stop-color="#07C3F2"/><stop offset=".9" stop-color="#087CFA"/></linearGradient><clipPath id="d"><path fill="#fff" d="M16 16h96v96H16z"/></clipPath></defs></svg>