<svg xmlns="http://www.w3.org/2000/svg" width="128" height="128" fill="none"><rect width="128" height="128" fill="url(#a)" rx="32"/><g filter="url(#b)"><rect width="112" height="112" x="8" y="8" fill="#000" fill-opacity=".7" rx="24"/><mask id="c" width="89" height="89" x="20" y="20" maskUnits="userSpaceOnUse" style="mask-type:luminance"><path fill="#fff" d="M20.572 20.571h87.771v87.772H20.572z"/></mask><g mask="url(#c)"><g filter="url(#d)"><path fill="url(#e)" d="M62.055 52.094 24.934 43.02 20.57 53.342l13.382 42.8 35.552 12.2z"/></g><g filter="url(#f)"><path fill="url(#g)" d="M108.343 45.679 99.422 28.21l-45.524-7.639-19.945 75.572 35.553 12.2 1.904-3.127z"/></g><g filter="url(#h)"><path fill="#000" d="M92.07 37.029H37.212v54.857H92.07z"/></g><path fill="#fff" d="M73.999 43.72h4.188l8.847 20.793h-4.748l-1.888-4.63h-8.73l-1.887 4.63h-4.63zm4.777 12.151-2.742-6.695-2.743 6.695zm-17.232 9.262-2.27-2.035c-1.741 1.12-3.835 1.77-6.135 1.77-6.37 0-10.942-4.75-10.942-10.618v-.06c0-5.868 4.63-10.676 11-10.676 6.371 0 10.942 4.749 10.942 10.618v.059a10.6 10.6 0 0 1-1.828 5.928l2.123 1.799zm-5.633-5.014-3.362-2.861 2.89-3.244 3.392 3.067c.354-.826.56-1.8.56-2.831v-.06c0-3.538-2.595-6.488-6.252-6.488-3.658 0-6.194 2.89-6.194 6.43v.059c0 3.539 2.596 6.488 6.253 6.488 1.002 0 1.917-.177 2.713-.56M62.927 81.6H42.356v3.427h20.57z"/></g></g><defs><filter id="b" width="112" height="116" x="8" y="8" color-interpolation-filters="sRGB" filterUnits="userSpaceOnUse"><feFlood flood-opacity="0" result="BackgroundImageFix"/><feBlend in="SourceGraphic" in2="BackgroundImageFix" result="shape"/><feColorMatrix in="SourceAlpha" result="hardAlpha" values="0 0 0 0 0 0 0 0 0 0 0 0 0 0 0 0 0 0 127 0"/><feOffset dy="4"/><feGaussianBlur stdDeviation="2"/><feComposite in2="hardAlpha" k2="-1" k3="1" operator="arithmetic"/><feColorMatrix values="0 0 0 0 0 0 0 0 0 0 0 0 0 0 0 0 0 0 0.25 0"/><feBlend in2="shape" result="effect1_innerShadow_141_69"/></filter><filter id="d" width="56.934" height="73.321" x="16.572" y="41.021" color-interpolation-filters="sRGB" filterUnits="userSpaceOnUse"><feFlood flood-opacity="0" result="BackgroundImageFix"/><feColorMatrix in="SourceAlpha" result="hardAlpha" values="0 0 0 0 0 0 0 0 0 0 0 0 0 0 0 0 0 0 127 0"/><feOffset dy="2"/><feGaussianBlur stdDeviation="2"/><feComposite in2="hardAlpha" operator="out"/><feColorMatrix values="0 0 0 0 0 0 0 0 0 0 0 0 0 0 0 0 0 0 0.25 0"/><feBlend in2="BackgroundImageFix" result="effect1_dropShadow_141_69"/><feBlend in="SourceGraphic" in2="effect1_dropShadow_141_69" result="shape"/></filter><filter id="f" width="82.39" height="95.772" x="29.953" y="18.571" color-interpolation-filters="sRGB" filterUnits="userSpaceOnUse"><feFlood flood-opacity="0" result="BackgroundImageFix"/><feColorMatrix in="SourceAlpha" result="hardAlpha" values="0 0 0 0 0 0 0 0 0 0 0 0 0 0 0 0 0 0 127 0"/><feOffset dy="2"/><feGaussianBlur stdDeviation="2"/><feComposite in2="hardAlpha" operator="out"/><feColorMatrix values="0 0 0 0 0 0 0 0 0 0 0 0 0 0 0 0 0 0 0.25 0"/><feBlend in2="BackgroundImageFix" result="effect1_dropShadow_141_69"/><feBlend in="SourceGraphic" in2="effect1_dropShadow_141_69" result="shape"/></filter><filter id="h" width="62.857" height="62.857" x="33.212" y="35.029" color-interpolation-filters="sRGB" filterUnits="userSpaceOnUse"><feFlood flood-opacity="0" result="BackgroundImageFix"/><feColorMatrix in="SourceAlpha" result="hardAlpha" values="0 0 0 0 0 0 0 0 0 0 0 0 0 0 0 0 0 0 127 0"/><feOffset dy="2"/><feGaussianBlur stdDeviation="2"/><feComposite in2="hardAlpha" operator="out"/><feColorMatrix values="0 0 0 0 0 0 0 0 0 0 0 0 0 0 0 0 0 0 0.25 0"/><feBlend in2="BackgroundImageFix" result="effect1_dropShadow_141_69"/><feBlend in="SourceGraphic" in2="effect1_dropShadow_141_69" result="shape"/></filter><linearGradient id="a" x1="64" x2="64" y1="0" y2="128" gradientUnits="userSpaceOnUse"><stop stop-color="#3BEA62"/><stop offset=".51" stop-color="#087DF7"/><stop offset="1" stop-color="#6B57FF"/></linearGradient><linearGradient id="e" x1="52.742" x2="41.186" y1="93.96" y2="52.258" gradientUnits="userSpaceOnUse"><stop stop-color="#087CFA"/><stop offset="1" stop-color="#6B57FF"/></linearGradient><linearGradient id="g" x1="36.875" x2="79.898" y1="100.172" y2="38.281" gradientUnits="userSpaceOnUse"><stop stop-color="#087CFA"/><stop offset=".387" stop-color="#097FF6"/><stop offset=".96" stop-color="#3BEA62"/></linearGradient></defs></svg>