<svg xmlns="http://www.w3.org/2000/svg" width="128" height="128" fill="none"><rect width="128" height="128" fill="url(#a)" rx="32"/><g filter="url(#b)"><rect width="112" height="112" x="8" y="8" fill="#000" fill-opacity=".7" rx="24"/><g clip-path="url(#c)"><g filter="url(#d)"><path fill="#F3E517" fill-rule="evenodd" d="M61.867 47.891c-1.72 4.307-3.378 11.434-5.38 3.235-1.501-5.823-4.709 3.65-7.042 5.273-4.705 3.577-7.308 8.617-9.398 14.016-5.533-4.705-3.458 2.846-3.797 6.539.302 5.536-.6 11.589.445 16.805 4.392 3.826 7.568 9.865 14.102 9.787 4.47 1.553 3.91-5.205 7.963.403 3.73 5.112 6.032 2.123 8.467-.391 3.557 5.445 4.647-6.516 7.648-1.151 4.638 1.805 8.797 2.664 9.558-3.458.952-4.834 9.265-4.933 7.317-10.745-.272-6.03.54-12.492-.398-18.258-3.148-2.457-5.577-8.13-9.164-8.625-4.439 2.154-2.728-7.342-4.555-10.137-.597-7.34-2.17-4.021-3.878 1.012-.946 7.246-4.921 3.792-6.952-.95-1.806-1.52-3.865-9.543-4.936-3.355" clip-rule="evenodd"/></g><mask id="e" width="52" height="55" x="38" y="48" maskUnits="userSpaceOnUse" style="mask-type:luminance"><path fill="#fff" d="m38.5 86.704 1.5 1.5 2.25 7.5.75-9 2.25 11.25v-14.25l1.5 3.75 2.25 10.5v-14.25l1.5 1.5 2.25 12.75L55 80.704l4.962 19.44.288-11.94 1.5-4.5 1.5 18.75 4.5-18.75 1.5 15.75 3.75-16.5 3.75 18 .75-13.5 2.25-4.5.75 17.25 3.75-16.5 2.25 7.5.75-6.75 2.25 4.5v-14.25l-2.25 6-.75-12.75-1.5 9.75-1.5-3-.75-10.5L79 78.454l-.75-3-2.25-22.5-2.25 19.5-1.5 6-3-20.25-3 17.25-1.5 4.5L64 48.975l-4.5 34.729-4.5-31.5-2.25 27-1.5-3-1.5-18-.75 18-2.25 5.25-1.5-18-1.5 14.25-2.25-3.75v10.5l-3-11.25z"/></mask><g mask="url(#e)"><path fill="#FF7901" fill-rule="evenodd" d="M37 103.204v-54.75h54v54.75z" clip-rule="evenodd"/><g filter="url(#f)"><path fill="#FF0101" fill-rule="evenodd" d="m37.75 76.204 6 3.75 2.25-6.75 3.75 4.5 4.5-7.5 1.5 9 1.5-6 2.25 4.5.75-4.5s2.25 6 2.25 5.25 3-11.25 3-11.25l3 9.75 4.5-9 2.25 9.75 3.75-6.75 2.25 6.75 3.75-3.75 4.5 4.5v6l-3 2.25-4.5-1.5-3-1.5-.75 7.5-1.5-7.5-3 6.75-4.5-6.75-1.5 6.75-3-4.5-3.75 9.75-2.25-11.25-4.5 2.25-3-4.5-1.5 7.5-3-3.75-3 3.75-1.5-2.25-4.5.75z" clip-rule="evenodd"/></g></g><g filter="url(#g)"><path fill="#07C" d="M64 21.36c-9.947 0-19.019 3.106-25.71 8.32-6.693 5.215-11.04 12.676-11.04 20.977v3C20.606 57.023 16 65.854 16 76.204c0 13.248 7.537 24 17.25 24V50.657c0-6.216 3.217-11.937 8.742-16.242S55.32 27.36 64 27.36c8.682 0 16.483 2.75 22.008 7.055S94.75 44.44 94.75 50.657v49.547c9.713 0 17.25-10.752 17.25-24 0-10.35-4.606-19.18-11.25-22.547v-3c0-8.3-4.347-15.762-11.04-20.976-6.691-5.215-15.763-8.32-25.71-8.32M35.5 52.954v47.25c1.5 0 3-.75 3.75-2.25v-43.5c-.75-.75-2.25-1.5-3.75-1.5m57 0c-1.5 0-3 .75-3.75 1.5v43.5c.75 1.5 2.25 2.25 3.75 2.25z"/></g></g></g><defs><filter id="b" width="112" height="116" x="8" y="8" color-interpolation-filters="sRGB" filterUnits="userSpaceOnUse"><feFlood flood-opacity="0" result="BackgroundImageFix"/><feBlend in="SourceGraphic" in2="BackgroundImageFix" result="shape"/><feColorMatrix in="SourceAlpha" result="hardAlpha" values="0 0 0 0 0 0 0 0 0 0 0 0 0 0 0 0 0 0 127 0"/><feOffset dy="4"/><feGaussianBlur stdDeviation="2"/><feComposite in2="hardAlpha" k2="-1" k3="1" operator="arithmetic"/><feColorMatrix values="0 0 0 0 0 0 0 0 0 0 0 0 0 0 0 0 0 0 0.25 0"/><feBlend in2="shape" result="effect1_innerShadow_98_89"/></filter><filter id="d" width="63.905" height="69.165" x="32.139" y="43.579" color-interpolation-filters="sRGB" filterUnits="userSpaceOnUse"><feFlood flood-opacity="0" result="BackgroundImageFix"/><feColorMatrix in="SourceAlpha" result="hardAlpha" values="0 0 0 0 0 0 0 0 0 0 0 0 0 0 0 0 0 0 127 0"/><feOffset dy="2"/><feGaussianBlur stdDeviation="2"/><feComposite in2="hardAlpha" operator="out"/><feColorMatrix values="0 0 0 0 0 0 0 0 0 0 0 0 0 0 0 0 0 0 0.25 0"/><feBlend in2="BackgroundImageFix" result="effect1_dropShadow_98_89"/><feBlend in="SourceGraphic" in2="effect1_dropShadow_98_89" result="shape"/></filter><filter id="f" width="59.75" height="36.5" x="33.75" y="65.204" color-interpolation-filters="sRGB" filterUnits="userSpaceOnUse"><feFlood flood-opacity="0" result="BackgroundImageFix"/><feColorMatrix in="SourceAlpha" result="hardAlpha" values="0 0 0 0 0 0 0 0 0 0 0 0 0 0 0 0 0 0 127 0"/><feOffset dy="2"/><feGaussianBlur stdDeviation="2"/><feComposite in2="hardAlpha" operator="out"/><feColorMatrix values="0 0 0 0 0 0 0 0 0 0 0 0 0 0 0 0 0 0 0.25 0"/><feBlend in2="BackgroundImageFix" result="effect1_dropShadow_98_89"/><feBlend in="SourceGraphic" in2="effect1_dropShadow_98_89" result="shape"/></filter><filter id="g" width="104" height="86.844" x="12" y="19.36" color-interpolation-filters="sRGB" filterUnits="userSpaceOnUse"><feFlood flood-opacity="0" result="BackgroundImageFix"/><feColorMatrix in="SourceAlpha" result="hardAlpha" values="0 0 0 0 0 0 0 0 0 0 0 0 0 0 0 0 0 0 127 0"/><feOffset dy="2"/><feGaussianBlur stdDeviation="2"/><feComposite in2="hardAlpha" operator="out"/><feColorMatrix values="0 0 0 0 0 0 0 0 0 0 0 0 0 0 0 0 0 0 0.25 0"/><feBlend in2="BackgroundImageFix" result="effect1_dropShadow_98_89"/><feBlend in="SourceGraphic" in2="effect1_dropShadow_98_89" result="shape"/></filter><linearGradient id="a" x1="64" x2="64" y1="0" y2="128" gradientUnits="userSpaceOnUse"><stop stop-color="#07C"/><stop offset="1" stop-color="#04C"/></linearGradient><clipPath id="c"><path fill="#fff" d="M16 16h96v96H16z"/></clipPath></defs></svg>