<svg xmlns="http://www.w3.org/2000/svg" width="128" height="128" fill="none"><rect width="128" height="128" fill="url(#a)" rx="32"/><g filter="url(#b)"><rect width="112" height="112" x="8" y="8" fill="#000" fill-opacity=".7" rx="24"/><g filter="url(#c)"><path fill="#F50" fill-rule="evenodd" d="m95.5 43.152 1.866-4.596s-2.376-2.553-5.26-5.447-8.994-1.192-8.994-1.192L76.155 24H51.72l-6.957 7.917s-6.109-1.702-8.994 1.192a247 247 0 0 0-5.26 5.447l1.867 4.596L30 49.96s6.987 26.545 7.806 29.787c1.612 6.383 2.715 8.851 7.296 12.085s12.897 8.851 14.254 9.702c1.358.852 3.054 2.301 4.582 2.301 1.527 0 3.224-1.449 4.581-2.301 1.358-.851 9.672-6.468 14.254-9.702s5.685-5.702 7.297-12.085c.818-3.242 7.805-29.787 7.805-29.787z" clip-rule="evenodd"/><path fill="#fff" fill-rule="evenodd" d="M81.161 36.939s8.949 10.85 8.949 13.17-1.126 2.931-2.258 4.137l-6.71 7.147c-.635.676-1.956 1.701-1.179 3.547.778 1.845 1.924 4.193.65 6.575-1.276 2.381-3.46 3.97-4.86 3.708-1.4-.263-4.689-1.986-5.897-2.774-1.21-.787-5.041-3.957-5.041-5.17s3.96-3.39 4.692-3.885 4.07-2.41 4.138-3.161c.069-.752.043-.973-.942-2.83s-2.76-4.336-2.464-5.986c.295-1.648 3.156-2.506 5.198-3.28 2.041-.773 5.972-2.233 6.463-2.46.491-.228.364-.444-1.123-.585-1.488-.142-5.709-.704-7.612-.172s-5.154 1.342-5.418 1.771c-.263.43-.495.444-.225 1.925.27 1.48 1.663 8.586 1.798 9.848s.4 2.097-.957 2.408-3.64.851-4.425.851-3.07-.54-4.426-.851-1.092-1.145-.957-2.408 1.528-8.367 1.798-9.848.038-1.496-.225-1.925c-.264-.43-3.515-1.239-5.418-1.77-1.903-.533-6.124.03-7.611.17-1.488.142-1.615.358-1.124.586s4.422 1.687 6.463 2.46c2.042.774 4.903 1.632 5.198 3.28.295 1.65-1.479 4.128-2.463 5.986-.986 1.857-1.012 2.078-.943 2.83.068.751 3.406 2.666 4.138 3.16.732.496 4.692 2.673 4.692 3.886s-3.831 4.383-5.04 5.17c-1.21.788-4.497 2.511-5.897 2.774s-3.585-1.327-4.86-3.708-.128-4.73.649-6.575c.777-1.846-.544-2.87-1.18-3.547l-6.709-7.147c-1.132-1.206-2.257-1.818-2.257-4.137 0-2.32 8.948-13.17 8.948-13.17s7.551 1.447 8.57 1.447c1.018 0 3.224-.852 5.26-1.532 2.036-.681 3.394-.686 3.394-.686s1.357.005 3.393.686c2.037.68 4.243 1.532 5.26 1.532 1.019 0 8.57-1.447 8.57-1.447m-6.709 41.507c.554.348.216 1.004-.288 1.362-.505.357-7.285 5.625-7.944 6.207s-1.625 1.544-2.282 1.544c-.658 0-1.625-.962-2.283-1.544s-7.44-5.85-7.944-6.207c-.505-.358-.842-1.014-.288-1.362.554-.347 2.287-1.225 4.678-2.467 2.391-1.24 5.371-2.296 5.837-2.296s3.445 1.055 5.836 2.296c2.391 1.242 4.124 2.12 4.679 2.467" clip-rule="evenodd"/><path fill="#FF2000" d="M83.112 31.918 76.155 24H51.72l-6.957 7.918s-6.109-1.703-8.994 1.191c0 0 8.145-.738 10.945 3.83 0 0 7.551 1.447 8.57 1.447 1.017 0 3.224-.852 5.26-1.532 2.036-.681 3.394-.686 3.394-.686s1.357.005 3.393.686c2.037.68 4.242 1.532 5.26 1.532 1.019 0 8.57-1.447 8.57-1.447 2.8-4.568 10.945-3.83 10.945-3.83-2.885-2.894-8.994-1.192-8.994-1.192"/><path fill="#000" fill-opacity=".1" d="M83.112 31.918 76.155 24H51.72l-6.957 7.918s-6.109-1.703-8.994 1.191c0 0 8.145-.738 10.945 3.83 0 0 7.551 1.447 8.57 1.447 1.017 0 3.224-.852 5.26-1.532 2.036-.681 3.394-.686 3.394-.686s1.357.005 3.393.686c2.037.68 4.242 1.532 5.26 1.532 1.019 0 8.57-1.447 8.57-1.447 2.8-4.568 10.945-3.83 10.945-3.83-2.885-2.894-8.994-1.192-8.994-1.192"/></g></g><defs><filter id="b" width="112" height="116" x="8" y="8" color-interpolation-filters="sRGB" filterUnits="userSpaceOnUse"><feFlood flood-opacity="0" result="BackgroundImageFix"/><feBlend in="SourceGraphic" in2="BackgroundImageFix" result="shape"/><feColorMatrix in="SourceAlpha" result="hardAlpha" values="0 0 0 0 0 0 0 0 0 0 0 0 0 0 0 0 0 0 127 0"/><feOffset dy="4"/><feGaussianBlur stdDeviation="2"/><feComposite in2="hardAlpha" k2="-1" k3="1" operator="arithmetic"/><feColorMatrix values="0 0 0 0 0 0 0 0 0 0 0 0 0 0 0 0 0 0 0.25 0"/><feBlend in2="shape" result="effect1_innerShadow_112_56"/></filter><filter id="c" width="75.875" height="87.835" x="26" y="22" color-interpolation-filters="sRGB" filterUnits="userSpaceOnUse"><feFlood flood-opacity="0" result="BackgroundImageFix"/><feColorMatrix in="SourceAlpha" result="hardAlpha" values="0 0 0 0 0 0 0 0 0 0 0 0 0 0 0 0 0 0 127 0"/><feOffset dy="2"/><feGaussianBlur stdDeviation="2"/><feComposite in2="hardAlpha" operator="out"/><feColorMatrix values="0 0 0 0 0 0 0 0 0 0 0 0 0 0 0 0 0 0 0.25 0"/><feBlend in2="BackgroundImageFix" result="effect1_dropShadow_112_56"/><feBlend in="SourceGraphic" in2="effect1_dropShadow_112_56" result="shape"/></filter><linearGradient id="a" x1="0" x2="12800" y1="6490.31" y2="6490.31" gradientUnits="userSpaceOnUse"><stop stop-color="#F50"/><stop offset=".41" stop-color="#F50"/><stop offset=".582" stop-color="#FF2000"/><stop offset="1" stop-color="#FF2000"/></linearGradient></defs></svg>