<svg xmlns="http://www.w3.org/2000/svg" width="128" height="128" fill="none"><rect width="128" height="128" fill="url(#a)" rx="32"/><g filter="url(#b)"><rect width="112" height="112" x="8" y="8" fill="#000" fill-opacity=".7" rx="24"/><g clip-path="url(#c)" filter="url(#d)"><path fill="url(#e)" d="m64 64 17.321 10-17.32 30C86.09 104 104 86.092 104 64a39.8 39.8 0 0 0-5.364-20H64z"/><path fill="url(#f)" d="M64 24c-14.806 0-27.722 8.05-34.639 20.005L46.68 74 64 64V44h34.636C91.718 32.047 78.803 24 64 24"/><path fill="url(#g)" d="M24 64c0 22.092 17.908 40 40 40l17.321-30-17.32-10-17.322 10-17.317-29.995A39.8 39.8 0 0 0 24 64"/><path fill="#fff" d="M84 64c0 11.046-8.954 20-20 20s-20-8.954-20-20 8.955-20 20-20 20 8.955 20 20"/><path fill="url(#h)" d="M80.25 64c0 8.975-7.275 16.25-16.25 16.25S47.75 72.975 47.75 64 55.026 47.75 64 47.75 80.25 55.026 80.25 64"/></g></g><defs><linearGradient id="a" x1="128" x2="0" y1="0" y2="128" gradientUnits="userSpaceOnUse"><stop stop-color="#1971E5"/><stop offset=".536" stop-color="#4C8CF4"/><stop offset="1" stop-color="#9FC2FA"/></linearGradient><linearGradient id="e" x1="84.085" x2="84" y1="43.918" y2="104" gradientUnits="userSpaceOnUse"><stop stop-color="#AFCCFB"/><stop offset="1" stop-color="#8BB5F8"/></linearGradient><linearGradient id="f" x1="58.199" x2="61.505" y1="24.609" y2="78.363" gradientUnits="userSpaceOnUse"><stop stop-color="#1972E7"/><stop offset="1" stop-color="#1969D5"/></linearGradient><linearGradient id="g" x1="52.66" x2="52.66" y1="44.005" y2="104" gradientUnits="userSpaceOnUse"><stop stop-color="#659CF6"/><stop offset="1" stop-color="#4285F4"/></linearGradient><linearGradient id="h" x1="63.834" x2="64" y1="47.812" y2="80.25" gradientUnits="userSpaceOnUse"><stop stop-color="#3680F0"/><stop offset="1" stop-color="#2678EC"/></linearGradient><filter id="b" width="112" height="116" x="8" y="8" color-interpolation-filters="sRGB" filterUnits="userSpaceOnUse"><feFlood flood-opacity="0" result="BackgroundImageFix"/><feBlend in="SourceGraphic" in2="BackgroundImageFix" result="shape"/><feColorMatrix in="SourceAlpha" result="hardAlpha" values="0 0 0 0 0 0 0 0 0 0 0 0 0 0 0 0 0 0 127 0"/><feOffset dy="4"/><feGaussianBlur stdDeviation="2"/><feComposite in2="hardAlpha" k2="-1" k3="1" operator="arithmetic"/><feColorMatrix values="0 0 0 0 0 0 0 0 0 0 0 0 0 0 0 0 0 0 0.25 0"/><feBlend in2="shape" result="effect1_innerShadow_112_40"/></filter><filter id="d" width="88" height="88" x="20" y="22" color-interpolation-filters="sRGB" filterUnits="userSpaceOnUse"><feFlood flood-opacity="0" result="BackgroundImageFix"/><feColorMatrix in="SourceAlpha" result="hardAlpha" values="0 0 0 0 0 0 0 0 0 0 0 0 0 0 0 0 0 0 127 0"/><feOffset dy="2"/><feGaussianBlur stdDeviation="2"/><feComposite in2="hardAlpha" operator="out"/><feColorMatrix values="0 0 0 0 0 0 0 0 0 0 0 0 0 0 0 0 0 0 0.25 0"/><feBlend in2="BackgroundImageFix" result="effect1_dropShadow_112_40"/><feBlend in="SourceGraphic" in2="effect1_dropShadow_112_40" result="shape"/></filter><clipPath id="c"><path fill="#fff" d="M24 24h80v80H24z"/></clipPath></defs></svg>