<svg xmlns="http://www.w3.org/2000/svg" width="128" height="128" fill="none"><rect width="128" height="128" fill="url(#a)" rx="32"/><rect width="128" height="128" fill="url(#b)" rx="32"/><g filter="url(#c)"><rect width="112" height="112" x="8" y="8" fill="#000" fill-opacity=".7" rx="24"/><g clip-path="url(#d)" filter="url(#e)"><path fill="url(#f)" d="M63.995 43.999H98.63a39.99 39.99 0 0 0-69.273.005l17.318 29.995.015-.004a19.975 19.975 0 0 1 17.305-29.996"/><path fill="url(#g)" d="m81.324 73.996-17.317 29.995a39.987 39.987 0 0 0 39.995-39.997 40 40 0 0 0-5.363-19.998H64.004l-.005.016a19.976 19.976 0 0 1 17.325 29.984"/><path fill="url(#h)" d="M46.68 74.005 29.364 44.01A39.99 39.99 0 0 0 64.004 104l17.318-29.995-.011-.011a19.975 19.975 0 0 1-34.63.011"/><path fill="#fff" d="M64 84c11.046 0 20-8.954 20-20s-8.954-20-20-20-20 8.954-20 20 8.954 20 20 20"/><path fill="#1A73E8" d="M64 79.833c8.745 0 15.833-7.088 15.833-15.833S72.745 48.167 64 48.167c-8.744 0-15.833 7.088-15.833 15.833S55.256 79.833 64 79.833"/></g></g><defs><linearGradient id="b" x1="128" x2="0" y1="0" y2="128" gradientUnits="userSpaceOnUse"><stop stop-color="#1971E5"/><stop offset=".536" stop-color="#4C8CF4"/><stop offset="1" stop-color="#9FC2FA"/></linearGradient><linearGradient id="f" x1="94.309" x2="59.673" y1="41.503" y2="101.495" gradientUnits="userSpaceOnUse"><stop stop-color="#D93025"/><stop offset="1" stop-color="#EA4335"/></linearGradient><linearGradient id="g" x1="100.91" x2="31.636" y1="48.999" y2="48.999" gradientUnits="userSpaceOnUse"><stop stop-color="#FCC934"/><stop offset="1" stop-color="#FBBC04"/></linearGradient><linearGradient id="h" x1="68.33" x2="33.693" y1="101.503" y2="41.51" gradientUnits="userSpaceOnUse"><stop stop-color="#1E8E3E"/><stop offset="1" stop-color="#34A853"/></linearGradient><filter id="c" width="112" height="116" x="8" y="8" color-interpolation-filters="sRGB" filterUnits="userSpaceOnUse"><feFlood flood-opacity="0" result="BackgroundImageFix"/><feBlend in="SourceGraphic" in2="BackgroundImageFix" result="shape"/><feColorMatrix in="SourceAlpha" result="hardAlpha" values="0 0 0 0 0 0 0 0 0 0 0 0 0 0 0 0 0 0 127 0"/><feOffset dy="4"/><feGaussianBlur stdDeviation="2"/><feComposite in2="hardAlpha" k2="-1" k3="1" operator="arithmetic"/><feColorMatrix values="0 0 0 0 0 0 0 0 0 0 0 0 0 0 0 0 0 0 0.25 0"/><feBlend in2="shape" result="effect1_innerShadow_112_27"/></filter><filter id="e" width="88" height="88" x="20" y="22" color-interpolation-filters="sRGB" filterUnits="userSpaceOnUse"><feFlood flood-opacity="0" result="BackgroundImageFix"/><feColorMatrix in="SourceAlpha" result="hardAlpha" values="0 0 0 0 0 0 0 0 0 0 0 0 0 0 0 0 0 0 127 0"/><feOffset dy="2"/><feGaussianBlur stdDeviation="2"/><feComposite in2="hardAlpha" operator="out"/><feColorMatrix values="0 0 0 0 0 0 0 0 0 0 0 0 0 0 0 0 0 0 0.25 0"/><feBlend in2="BackgroundImageFix" result="effect1_dropShadow_112_27"/><feBlend in="SourceGraphic" in2="effect1_dropShadow_112_27" result="shape"/></filter><radialGradient id="a" cx="0" cy="0" r="1" gradientTransform="rotate(135 18.745 45.255)scale(90.5097)" gradientUnits="userSpaceOnUse"><stop offset=".14" stop-color="#1A73E8"/><stop offset=".373" stop-color="#DB3327"/><stop offset=".638" stop-color="#FCC72D"/><stop offset=".896" stop-color="#209140"/></radialGradient><clipPath id="d"><path fill="#fff" d="M24 24h80v80H24z"/></clipPath></defs></svg>