<svg xmlns="http://www.w3.org/2000/svg" width="128" height="128" fill="none"><rect width="128" height="128" fill="url(#a)" rx="32"/><rect width="128" height="128" fill="url(#b)" rx="32"/><g filter="url(#c)"><rect width="112" height="112" x="8" y="8" fill="#000" fill-opacity=".7" rx="24"/><g clip-path="url(#d)"><g filter="url(#e)"><path fill="url(#f)" d="m73.783 20.114-53.669 6.044V53.75l13.458 44.8 67.484-17.106z"/></g><g filter="url(#g)"><path fill="url(#h)" d="m102.802 47.963-21.147-10.13-29.669 53.413 8.064 10.935 20.554 5.705 19.785-12.48 7.497-23.497z"/></g><g filter="url(#i)"><path fill="#000" d="M36.572 36.571h54.857V91.43H36.572z"/></g><path fill="#fff" d="M43.41 81.06h20.572v3.43H43.41zm.019-37.704h8.045c6.483 0 10.972 4.452 10.972 10.258v.064c0 5.806-4.48 10.313-10.972 10.313H43.43zM48 47.451v12.434h3.511a5.88 5.88 0 0 0 6.217-6.163v-.054a5.934 5.934 0 0 0-6.217-6.227zm16.594 6.373v-.055A10.544 10.544 0 0 1 75.43 43.045a10.72 10.72 0 0 1 8.173 3.19l-2.907 3.356a7.64 7.64 0 0 0-5.303-2.34c-3.492 0-6.007 2.898-6.007 6.454v.064c0 3.557 2.45 6.519 6.007 6.519 2.377 0 3.822-.914 5.486-2.432L83.73 60.8a10.6 10.6 0 0 1-8.502 3.657 10.467 10.467 0 0 1-10.634-10.633"/></g></g><defs><linearGradient id="a" x1="64" x2="64" y1="0" y2="128" gradientUnits="userSpaceOnUse"><stop stop-color="#3BEA62"/><stop offset=".51" stop-color="#087DF7"/><stop offset="1" stop-color="#6B57FF"/></linearGradient><linearGradient id="b" x1="73.463" x2="45.103" y1="113.841" y2="11.547" gradientUnits="userSpaceOnUse"><stop offset=".05" stop-color="#6B57FF"/><stop offset=".12" stop-color="#7556FE"/><stop offset=".24" stop-color="#8F53FB"/><stop offset=".4" stop-color="#BA4DF5"/><stop offset=".58" stop-color="#F446EE"/><stop offset=".61" stop-color="#FF45ED"/><stop offset=".69" stop-color="#FF3BBE"/><stop offset=".77" stop-color="#FF318C"/><stop offset=".99" stop-color="#FC801D"/></linearGradient><linearGradient id="f" x1="66.569" x2="49.655" y1="89.874" y2="26.916" gradientUnits="userSpaceOnUse"><stop offset=".05" stop-color="#6B57FF"/><stop offset=".12" stop-color="#7556FE"/><stop offset=".24" stop-color="#8F53FB"/><stop offset=".4" stop-color="#BA4DF5"/><stop offset=".58" stop-color="#F446EE"/><stop offset=".61" stop-color="#FF45ED"/><stop offset=".69" stop-color="#FF3BBE"/><stop offset=".77" stop-color="#FF318C"/><stop offset=".99" stop-color="#FC801D"/></linearGradient><linearGradient id="h" x1="105.152" x2="72.137" y1="81.298" y2="70.427" gradientUnits="userSpaceOnUse"><stop offset=".03" stop-color="#6B57FF"/><stop offset=".39" stop-color="#FF45ED"/><stop offset=".49" stop-color="#FF4DD1"/><stop offset=".7" stop-color="#FE6189"/><stop offset="1" stop-color="#FC801D"/></linearGradient><filter id="c" width="112" height="116" x="8" y="8" color-interpolation-filters="sRGB" filterUnits="userSpaceOnUse"><feFlood flood-opacity="0" result="BackgroundImageFix"/><feBlend in="SourceGraphic" in2="BackgroundImageFix" result="shape"/><feColorMatrix in="SourceAlpha" result="hardAlpha" values="0 0 0 0 0 0 0 0 0 0 0 0 0 0 0 0 0 0 127 0"/><feOffset dy="4"/><feGaussianBlur stdDeviation="2"/><feComposite in2="hardAlpha" k2="-1" k3="1" operator="arithmetic"/><feColorMatrix values="0 0 0 0 0 0 0 0 0 0 0 0 0 0 0 0 0 0 0.25 0"/><feBlend in2="shape" result="effect1_innerShadow_141_94"/></filter><filter id="e" width="88.942" height="86.436" x="16.114" y="18.114" color-interpolation-filters="sRGB" filterUnits="userSpaceOnUse"><feFlood flood-opacity="0" result="BackgroundImageFix"/><feColorMatrix in="SourceAlpha" result="hardAlpha" values="0 0 0 0 0 0 0 0 0 0 0 0 0 0 0 0 0 0 127 0"/><feOffset dy="2"/><feGaussianBlur stdDeviation="2"/><feComposite in2="hardAlpha" operator="out"/><feColorMatrix values="0 0 0 0 0 0 0 0 0 0 0 0 0 0 0 0 0 0 0.25 0"/><feBlend in2="BackgroundImageFix" result="effect1_dropShadow_141_94"/><feBlend in="SourceGraphic" in2="effect1_dropShadow_141_94" result="shape"/></filter><filter id="g" width="63.899" height="78.053" x="47.986" y="35.833" color-interpolation-filters="sRGB" filterUnits="userSpaceOnUse"><feFlood flood-opacity="0" result="BackgroundImageFix"/><feColorMatrix in="SourceAlpha" result="hardAlpha" values="0 0 0 0 0 0 0 0 0 0 0 0 0 0 0 0 0 0 127 0"/><feOffset dy="2"/><feGaussianBlur stdDeviation="2"/><feComposite in2="hardAlpha" operator="out"/><feColorMatrix values="0 0 0 0 0 0 0 0 0 0 0 0 0 0 0 0 0 0 0.25 0"/><feBlend in2="BackgroundImageFix" result="effect1_dropShadow_141_94"/><feBlend in="SourceGraphic" in2="effect1_dropShadow_141_94" result="shape"/></filter><filter id="i" width="62.857" height="62.857" x="32.572" y="34.571" color-interpolation-filters="sRGB" filterUnits="userSpaceOnUse"><feFlood flood-opacity="0" result="BackgroundImageFix"/><feColorMatrix in="SourceAlpha" result="hardAlpha" values="0 0 0 0 0 0 0 0 0 0 0 0 0 0 0 0 0 0 127 0"/><feOffset dy="2"/><feGaussianBlur stdDeviation="2"/><feComposite in2="hardAlpha" operator="out"/><feColorMatrix values="0 0 0 0 0 0 0 0 0 0 0 0 0 0 0 0 0 0 0.25 0"/><feBlend in2="BackgroundImageFix" result="effect1_dropShadow_141_94"/><feBlend in="SourceGraphic" in2="effect1_dropShadow_141_94" result="shape"/></filter><clipPath id="d"><path fill="#fff" d="M16 16h96v96H16z"/></clipPath></defs></svg>