<svg xmlns="http://www.w3.org/2000/svg" width="128" height="128" fill="none"><rect width="128" height="128" fill="url(#a)" rx="32"/><rect width="128" height="128" fill="url(#b)" rx="32"/><g filter="url(#c)"><rect width="112" height="112" x="8" y="8" fill="#000" fill-opacity=".7" rx="24"/><g clip-path="url(#d)"><g filter="url(#e)"><path fill="url(#f)" d="M30.117 101.797 20.114 67.319 82.25 84.453l-6.628 23.433z"/></g><g filter="url(#g)"><path fill="url(#h)" d="m49.554 20.224 23.37 6.692 26.404-6.802 5.23 36.206-59.42-19.749z"/></g><g filter="url(#i)"><path fill="url(#j)" d="m107.886 77.934-3.328-21.614-53.76-17.865-30.574 6.555-.11 22.309L82.25 84.453z"/></g><g filter="url(#k)"><path fill="#000" d="M36.572 36.571h54.857V91.43H36.572z"/></g><path fill="#fff" d="M43.41 81.06h20.572v3.43H43.41zm.019-37.704h8.045c6.483 0 10.972 4.452 10.972 10.258v.064c0 5.806-4.48 10.313-10.972 10.313H43.43zM48 47.451v12.434h3.511a5.88 5.88 0 0 0 6.217-6.163v-.054a5.934 5.934 0 0 0-6.217-6.227zm16.01-4.086h4.89l5.432 8.731 5.421-8.722h4.892v20.635h-4.517l.01-13.476-5.806 8.813h-.128l-5.742-8.722V64h-4.453z"/></g></g><defs><linearGradient id="a" x1="64" x2="64" y1="0" y2="128" gradientUnits="userSpaceOnUse"><stop stop-color="#3BEA62"/><stop offset=".51" stop-color="#087DF7"/><stop offset="1" stop-color="#6B57FF"/></linearGradient><linearGradient id="b" x1="85.891" x2="12.896" y1="158.545" y2="31.091" gradientUnits="userSpaceOnUse"><stop stop-color="#6B57FF"/><stop offset=".14" stop-color="#8953FB"/><stop offset=".44" stop-color="#D64AF2"/><stop offset=".59" stop-color="#FF45ED"/><stop offset=".97" stop-color="#FDB60D"/></linearGradient><linearGradient id="f" x1="43.63" x2="58.642" y1="44.297" y2="107.109" gradientUnits="userSpaceOnUse"><stop stop-color="#6B57FF"/><stop offset=".13" stop-color="#9A51F9"/><stop offset=".27" stop-color="#C64CF4"/><stop offset=".39" stop-color="#E548F0"/><stop offset=".5" stop-color="#F846EE"/><stop offset=".57" stop-color="#FF45ED"/><stop offset=".63" stop-color="#FF57C9"/><stop offset=".81" stop-color="#FE8A65"/><stop offset=".94" stop-color="#FDAA26"/><stop offset="1" stop-color="#FDB60D"/></linearGradient><linearGradient id="h" x1="85.01" x2="70.117" y1="64.96" y2="22.281" gradientUnits="userSpaceOnUse"><stop stop-color="#6B57FF"/><stop offset=".14" stop-color="#8953FB"/><stop offset=".44" stop-color="#D64AF2"/><stop offset=".59" stop-color="#FF45ED"/><stop offset=".97" stop-color="#FDB60D"/></linearGradient><linearGradient id="j" x1="53.157" x2="65.518" y1="87.323" y2="58.011" gradientUnits="userSpaceOnUse"><stop offset=".12" stop-color="#FF45ED"/><stop offset=".2" stop-color="#DF49F1"/><stop offset=".3" stop-color="#BC4DF5"/><stop offset=".42" stop-color="#9E51F9"/><stop offset=".53" stop-color="#8854FC"/><stop offset=".66" stop-color="#7855FD"/><stop offset=".81" stop-color="#6E57FF"/><stop offset="1" stop-color="#6B57FF"/></linearGradient><filter id="c" width="112" height="116" x="8" y="8" color-interpolation-filters="sRGB" filterUnits="userSpaceOnUse"><feFlood flood-opacity="0" result="BackgroundImageFix"/><feBlend in="SourceGraphic" in2="BackgroundImageFix" result="shape"/><feColorMatrix in="SourceAlpha" result="hardAlpha" values="0 0 0 0 0 0 0 0 0 0 0 0 0 0 0 0 0 0 127 0"/><feOffset dy="4"/><feGaussianBlur stdDeviation="2"/><feComposite in2="hardAlpha" k2="-1" k3="1" operator="arithmetic"/><feColorMatrix values="0 0 0 0 0 0 0 0 0 0 0 0 0 0 0 0 0 0 0.25 0"/><feBlend in2="shape" result="effect1_innerShadow_141_117"/></filter><filter id="e" width="70.135" height="48.567" x="16.114" y="65.319" color-interpolation-filters="sRGB" filterUnits="userSpaceOnUse"><feFlood flood-opacity="0" result="BackgroundImageFix"/><feColorMatrix in="SourceAlpha" result="hardAlpha" values="0 0 0 0 0 0 0 0 0 0 0 0 0 0 0 0 0 0 127 0"/><feOffset dy="2"/><feGaussianBlur stdDeviation="2"/><feComposite in2="hardAlpha" operator="out"/><feColorMatrix values="0 0 0 0 0 0 0 0 0 0 0 0 0 0 0 0 0 0 0.25 0"/><feBlend in2="BackgroundImageFix" result="effect1_dropShadow_141_117"/><feBlend in="SourceGraphic" in2="effect1_dropShadow_141_117" result="shape"/></filter><filter id="g" width="67.419" height="44.206" x="41.138" y="18.114" color-interpolation-filters="sRGB" filterUnits="userSpaceOnUse"><feFlood flood-opacity="0" result="BackgroundImageFix"/><feColorMatrix in="SourceAlpha" result="hardAlpha" values="0 0 0 0 0 0 0 0 0 0 0 0 0 0 0 0 0 0 127 0"/><feOffset dy="2"/><feGaussianBlur stdDeviation="2"/><feComposite in2="hardAlpha" operator="out"/><feColorMatrix values="0 0 0 0 0 0 0 0 0 0 0 0 0 0 0 0 0 0 0.25 0"/><feBlend in2="BackgroundImageFix" result="effect1_dropShadow_141_117"/><feBlend in="SourceGraphic" in2="effect1_dropShadow_141_117" result="shape"/></filter><filter id="i" width="95.772" height="53.998" x="16.114" y="36.455" color-interpolation-filters="sRGB" filterUnits="userSpaceOnUse"><feFlood flood-opacity="0" result="BackgroundImageFix"/><feColorMatrix in="SourceAlpha" result="hardAlpha" values="0 0 0 0 0 0 0 0 0 0 0 0 0 0 0 0 0 0 127 0"/><feOffset dy="2"/><feGaussianBlur stdDeviation="2"/><feComposite in2="hardAlpha" operator="out"/><feColorMatrix values="0 0 0 0 0 0 0 0 0 0 0 0 0 0 0 0 0 0 0.25 0"/><feBlend in2="BackgroundImageFix" result="effect1_dropShadow_141_117"/><feBlend in="SourceGraphic" in2="effect1_dropShadow_141_117" result="shape"/></filter><filter id="k" width="62.857" height="62.857" x="32.572" y="34.571" color-interpolation-filters="sRGB" filterUnits="userSpaceOnUse"><feFlood flood-opacity="0" result="BackgroundImageFix"/><feColorMatrix in="SourceAlpha" result="hardAlpha" values="0 0 0 0 0 0 0 0 0 0 0 0 0 0 0 0 0 0 127 0"/><feOffset dy="2"/><feGaussianBlur stdDeviation="2"/><feComposite in2="hardAlpha" operator="out"/><feColorMatrix values="0 0 0 0 0 0 0 0 0 0 0 0 0 0 0 0 0 0 0.25 0"/><feBlend in2="BackgroundImageFix" result="effect1_dropShadow_141_117"/><feBlend in="SourceGraphic" in2="effect1_dropShadow_141_117" result="shape"/></filter><clipPath id="d"><path fill="#fff" d="M16 16h96v96H16z"/></clipPath></defs></svg>