<svg xmlns="http://www.w3.org/2000/svg" width="128" height="128" fill="none"><rect width="128" height="128" fill="url(#a)" rx="32"/><rect width="128" height="128" fill="url(#b)" rx="32"/><g filter="url(#c)"><rect width="112" height="112" x="8" y="8" fill="#000" fill-opacity=".7" rx="24"/><g clip-path="url(#d)"><g filter="url(#e)"><path fill="url(#f)" d="M79.918 83.127 20.114 71.168l17.664 36.608 44.115-7.689z"/></g><g filter="url(#g)"><path fill="url(#h)" d="M107.886 59.282 83.657 34.304 20.114 47.698v23.47l78.5 15.69z"/></g><path fill="url(#i)" d="M107.886 59.282 69.788 20.005l-29.852 9.033L49.71 58.77l48.905 28.087z"/><g filter="url(#j)"><path fill="url(#k)" d="m101.038 44.544-3.456-24.54H69.787l-29.851 9.034L49.71 58.77z"/></g><g filter="url(#l)"><path fill="#000" d="M36.572 36.571h54.857V91.43H36.572z"/></g><path fill="#fff" d="M43.41 81.06h20.572v3.43H43.41zm.019-37.704h8.045c6.483 0 10.972 4.452 10.972 10.258v.064c0 5.806-4.48 10.313-10.972 10.313H43.43zM48 47.451v12.434h3.511a5.88 5.88 0 0 0 6.217-6.163v-.054a5.934 5.934 0 0 0-6.217-6.227zm17.756-4.095h8.457c4.937 0 7.917 2.925 7.917 7.158v.055c0 4.791-3.72 7.314-8.365 7.314h-3.456v6.208h-4.572zm8.155 10.44c2.277 0 3.657-1.362 3.657-3.135v-.064c0-2.04-1.417-3.127-3.657-3.127h-3.602v6.327z"/></g></g><defs><linearGradient id="a" x1="64" x2="64" y1="0" y2="128" gradientUnits="userSpaceOnUse"><stop stop-color="#3BEA62"/><stop offset=".51" stop-color="#087DF7"/><stop offset="1" stop-color="#6B57FF"/></linearGradient><linearGradient id="b" x1="18.299" x2="148.858" y1="-21.834" y2="57.142" gradientUnits="userSpaceOnUse"><stop offset=".1" stop-color="#FF45ED"/><stop offset=".11" stop-color="#F846EE"/><stop offset=".28" stop-color="#AC4FF7"/><stop offset=".41" stop-color="#7D55FD"/><stop offset=".47" stop-color="#6B57FF"/><stop offset=".48" stop-color="#655DFE"/><stop offset=".57" stop-color="#4482FA"/><stop offset=".66" stop-color="#299EF6"/><stop offset=".76" stop-color="#16B3F4"/><stop offset=".85" stop-color="#0BBFF2"/><stop offset=".94" stop-color="#07C3F2"/></linearGradient><linearGradient id="f" x1="28.946" x2="71.095" y1="64.923" y2="107.95" gradientUnits="userSpaceOnUse"><stop offset=".1" stop-color="#FF45ED"/><stop offset=".11" stop-color="#F846EE"/><stop offset=".28" stop-color="#AC4FF7"/><stop offset=".41" stop-color="#7D55FD"/><stop offset=".47" stop-color="#6B57FF"/><stop offset=".48" stop-color="#655DFE"/><stop offset=".57" stop-color="#4482FA"/><stop offset=".66" stop-color="#299EF6"/><stop offset=".76" stop-color="#16B3F4"/><stop offset=".85" stop-color="#0BBFF2"/><stop offset=".94" stop-color="#07C3F2"/></linearGradient><linearGradient id="h" x1="32.11" x2="62.885" y1="90.002" y2="64.357" gradientUnits="userSpaceOnUse"><stop offset=".04" stop-color="#FF45ED"/><stop offset=".05" stop-color="#FE45ED"/><stop offset=".2" stop-color="#D14BF3"/><stop offset=".36" stop-color="#AC4FF7"/><stop offset=".51" stop-color="#9053FB"/><stop offset=".67" stop-color="#7B55FD"/><stop offset=".82" stop-color="#6F57FF"/><stop offset=".97" stop-color="#6B57FF"/></linearGradient><linearGradient id="i" x1="70.089" x2="90.779" y1="41.225" y2="83.511" gradientUnits="userSpaceOnUse"><stop offset=".2" stop-color="#FF45ED"/><stop offset=".29" stop-color="#F646EE"/><stop offset=".43" stop-color="#DD49F1"/><stop offset=".61" stop-color="#B64EF6"/><stop offset=".82" stop-color="#7F55FD"/><stop offset=".89" stop-color="#6B57FF"/></linearGradient><linearGradient id="k" x1="45.038" x2="97.015" y1="42.953" y2="30.354" gradientUnits="userSpaceOnUse"><stop offset=".1" stop-color="#FF45ED"/><stop offset=".17" stop-color="#F64AED"/><stop offset=".29" stop-color="#DD56EE"/><stop offset=".44" stop-color="#B56AEE"/><stop offset=".62" stop-color="#7E87F0"/><stop offset=".81" stop-color="#38AAF1"/><stop offset=".94" stop-color="#07C3F2"/></linearGradient><filter id="c" width="112" height="116" x="8" y="8" color-interpolation-filters="sRGB" filterUnits="userSpaceOnUse"><feFlood flood-opacity="0" result="BackgroundImageFix"/><feBlend in="SourceGraphic" in2="BackgroundImageFix" result="shape"/><feColorMatrix in="SourceAlpha" result="hardAlpha" values="0 0 0 0 0 0 0 0 0 0 0 0 0 0 0 0 0 0 127 0"/><feOffset dy="4"/><feGaussianBlur stdDeviation="2"/><feComposite in2="hardAlpha" k2="-1" k3="1" operator="arithmetic"/><feColorMatrix values="0 0 0 0 0 0 0 0 0 0 0 0 0 0 0 0 0 0 0.25 0"/><feBlend in2="shape" result="effect1_innerShadow_141_156"/></filter><filter id="e" width="69.778" height="44.608" x="16.114" y="69.168" color-interpolation-filters="sRGB" filterUnits="userSpaceOnUse"><feFlood flood-opacity="0" result="BackgroundImageFix"/><feColorMatrix in="SourceAlpha" result="hardAlpha" values="0 0 0 0 0 0 0 0 0 0 0 0 0 0 0 0 0 0 127 0"/><feOffset dy="2"/><feGaussianBlur stdDeviation="2"/><feComposite in2="hardAlpha" operator="out"/><feColorMatrix values="0 0 0 0 0 0 0 0 0 0 0 0 0 0 0 0 0 0 0.25 0"/><feBlend in2="BackgroundImageFix" result="effect1_dropShadow_141_156"/><feBlend in="SourceGraphic" in2="effect1_dropShadow_141_156" result="shape"/></filter><filter id="g" width="95.772" height="60.553" x="16.114" y="32.304" color-interpolation-filters="sRGB" filterUnits="userSpaceOnUse"><feFlood flood-opacity="0" result="BackgroundImageFix"/><feColorMatrix in="SourceAlpha" result="hardAlpha" values="0 0 0 0 0 0 0 0 0 0 0 0 0 0 0 0 0 0 127 0"/><feOffset dy="2"/><feGaussianBlur stdDeviation="2"/><feComposite in2="hardAlpha" operator="out"/><feColorMatrix values="0 0 0 0 0 0 0 0 0 0 0 0 0 0 0 0 0 0 0.25 0"/><feBlend in2="BackgroundImageFix" result="effect1_dropShadow_141_156"/><feBlend in="SourceGraphic" in2="effect1_dropShadow_141_156" result="shape"/></filter><filter id="j" width="69.102" height="46.766" x="35.936" y="18.005" color-interpolation-filters="sRGB" filterUnits="userSpaceOnUse"><feFlood flood-opacity="0" result="BackgroundImageFix"/><feColorMatrix in="SourceAlpha" result="hardAlpha" values="0 0 0 0 0 0 0 0 0 0 0 0 0 0 0 0 0 0 127 0"/><feOffset dy="2"/><feGaussianBlur stdDeviation="2"/><feComposite in2="hardAlpha" operator="out"/><feColorMatrix values="0 0 0 0 0 0 0 0 0 0 0 0 0 0 0 0 0 0 0.25 0"/><feBlend in2="BackgroundImageFix" result="effect1_dropShadow_141_156"/><feBlend in="SourceGraphic" in2="effect1_dropShadow_141_156" result="shape"/></filter><filter id="l" width="62.857" height="62.857" x="32.572" y="34.571" color-interpolation-filters="sRGB" filterUnits="userSpaceOnUse"><feFlood flood-opacity="0" result="BackgroundImageFix"/><feColorMatrix in="SourceAlpha" result="hardAlpha" values="0 0 0 0 0 0 0 0 0 0 0 0 0 0 0 0 0 0 127 0"/><feOffset dy="2"/><feGaussianBlur stdDeviation="2"/><feComposite in2="hardAlpha" operator="out"/><feColorMatrix values="0 0 0 0 0 0 0 0 0 0 0 0 0 0 0 0 0 0 0.25 0"/><feBlend in2="BackgroundImageFix" result="effect1_dropShadow_141_156"/><feBlend in="SourceGraphic" in2="effect1_dropShadow_141_156" result="shape"/></filter><clipPath id="d"><path fill="#fff" d="M16 16h96v96H16z"/></clipPath></defs></svg>