<svg xmlns="http://www.w3.org/2000/svg" width="128" height="128" fill="none"><rect width="128" height="128" fill="url(#a)" rx="32"/><rect width="128" height="128" fill="url(#b)" rx="32"/><g filter="url(#c)"><rect width="112" height="112" x="8" y="8" fill="#000" fill-opacity=".7" rx="24"/><g clip-path="url(#d)"><g filter="url(#e)"><path fill="url(#f)" d="m104.512 40.21-29.54-20.096-54.858 38.958 13.897 48.814 59.96-12.16z"/></g><g filter="url(#g)"><path fill="url(#h)" d="m104.512 40.21-29.54-20.096-7.27 19.712V80.01h40.183z"/></g><g filter="url(#i)"><path fill="#000" d="M36.571 36.571h54.857V91.43H36.571z"/></g><path fill="#fff" d="M43.41 81.06h20.572v3.43H43.41zm.018-37.705h8.046c6.482 0 10.971 4.453 10.971 10.259v.064c0 5.805-4.48 10.313-10.971 10.313h-8.046zM48 47.451v12.435h3.51a5.877 5.877 0 0 0 6.218-6.163v-.054a5.93 5.93 0 0 0-6.218-6.227zm22.94.064h-6.282v-4.187h17.106v4.197l-6.28-.01v16.467h-4.545z"/></g></g><defs><linearGradient id="a" x1="64" x2="64" y1="0" y2="128" gradientUnits="userSpaceOnUse"><stop stop-color="#3BEA62"/><stop offset=".51" stop-color="#087DF7"/><stop offset="1" stop-color="#6B57FF"/></linearGradient><linearGradient id="b" x1="-2.538" x2="126.829" y1="79.973" y2="45.267" gradientUnits="userSpaceOnUse"><stop offset=".12" stop-color="#6B57FF"/><stop offset=".54" stop-color="#FF45ED"/><stop offset=".85" stop-color="#DD1265"/></linearGradient><linearGradient id="f" x1="18.441" x2="104.174" y1="74.953" y2="52.837" gradientUnits="userSpaceOnUse"><stop offset=".12" stop-color="#6B57FF"/><stop offset=".54" stop-color="#FF45ED"/><stop offset=".85" stop-color="#DD1265"/></linearGradient><linearGradient id="h" x1="77.687" x2="104.951" y1="68.9" y2="31.524" gradientUnits="userSpaceOnUse"><stop offset=".19" stop-color="#DD1265"/><stop offset=".29" stop-color="#DE146A"/><stop offset=".41" stop-color="#E21977"/><stop offset=".53" stop-color="#E7218E"/><stop offset=".66" stop-color="#EF2DAD"/><stop offset=".79" stop-color="#F93CD5"/><stop offset=".85" stop-color="#FF45ED"/></linearGradient><filter id="c" width="112" height="116" x="8" y="8" color-interpolation-filters="sRGB" filterUnits="userSpaceOnUse"><feFlood flood-opacity="0" result="BackgroundImageFix"/><feBlend in="SourceGraphic" in2="BackgroundImageFix" result="shape"/><feColorMatrix in="SourceAlpha" result="hardAlpha" values="0 0 0 0 0 0 0 0 0 0 0 0 0 0 0 0 0 0 127 0"/><feOffset dy="4"/><feGaussianBlur stdDeviation="2"/><feComposite in2="hardAlpha" k2="-1" k3="1" operator="arithmetic"/><feColorMatrix values="0 0 0 0 0 0 0 0 0 0 0 0 0 0 0 0 0 0 0.25 0"/><feBlend in2="shape" result="effect1_innerShadow_141_169"/></filter><filter id="e" width="92.398" height="95.772" x="16.114" y="18.114" color-interpolation-filters="sRGB" filterUnits="userSpaceOnUse"><feFlood flood-opacity="0" result="BackgroundImageFix"/><feColorMatrix in="SourceAlpha" result="hardAlpha" values="0 0 0 0 0 0 0 0 0 0 0 0 0 0 0 0 0 0 127 0"/><feOffset dy="2"/><feGaussianBlur stdDeviation="2"/><feComposite in2="hardAlpha" operator="out"/><feColorMatrix values="0 0 0 0 0 0 0 0 0 0 0 0 0 0 0 0 0 0 0.25 0"/><feBlend in2="BackgroundImageFix" result="effect1_dropShadow_141_169"/><feBlend in="SourceGraphic" in2="effect1_dropShadow_141_169" result="shape"/></filter><filter id="g" width="48.183" height="67.895" x="63.703" y="18.114" color-interpolation-filters="sRGB" filterUnits="userSpaceOnUse"><feFlood flood-opacity="0" result="BackgroundImageFix"/><feColorMatrix in="SourceAlpha" result="hardAlpha" values="0 0 0 0 0 0 0 0 0 0 0 0 0 0 0 0 0 0 127 0"/><feOffset dy="2"/><feGaussianBlur stdDeviation="2"/><feComposite in2="hardAlpha" operator="out"/><feColorMatrix values="0 0 0 0 0 0 0 0 0 0 0 0 0 0 0 0 0 0 0.25 0"/><feBlend in2="BackgroundImageFix" result="effect1_dropShadow_141_169"/><feBlend in="SourceGraphic" in2="effect1_dropShadow_141_169" result="shape"/></filter><filter id="i" width="62.857" height="62.857" x="32.571" y="34.571" color-interpolation-filters="sRGB" filterUnits="userSpaceOnUse"><feFlood flood-opacity="0" result="BackgroundImageFix"/><feColorMatrix in="SourceAlpha" result="hardAlpha" values="0 0 0 0 0 0 0 0 0 0 0 0 0 0 0 0 0 0 127 0"/><feOffset dy="2"/><feGaussianBlur stdDeviation="2"/><feComposite in2="hardAlpha" operator="out"/><feColorMatrix values="0 0 0 0 0 0 0 0 0 0 0 0 0 0 0 0 0 0 0.25 0"/><feBlend in2="BackgroundImageFix" result="effect1_dropShadow_141_169"/><feBlend in="SourceGraphic" in2="effect1_dropShadow_141_169" result="shape"/></filter><clipPath id="d"><path fill="#fff" d="M16 16h96v96H16z"/></clipPath></defs></svg>