<svg xmlns="http://www.w3.org/2000/svg" width="128" height="128" fill="none"><rect width="128" height="128" fill="url(#a)" rx="32"/><g filter="url(#b)"><rect width="112" height="112" x="8" y="8" fill="#000" fill-opacity=".7" rx="24"/><g filter="url(#c)"><path fill="url(#d)" fill-rule="evenodd" d="M54 30c4-6 12-6 12-6s.415.853 0 2c3.477-1.561 8 0 8 0s-.634 1.335-2 2c3.446 1.259 6 4 6 4s-.634 1.21-2 2c3.415.321 6 4 6 4s-.906 1.554-2 2c2.844 1.227 4 1.643 4 4s-6 6-6 6-3.5-9.004-6-12-4.927-4.626-8-6-10-2-10-2" clip-rule="evenodd"/><path fill="url(#e)" fill-rule="evenodd" d="M66 34s0 12-6 16-18 6-26 10-10 10-10 10 8-4 12-4 10 2 10 2 4-4 10-4 12 2 12 2l2-22z" clip-rule="evenodd"/><path fill="url(#f)" fill-rule="evenodd" d="M68 40s.375 7-5.625 11-21.442 6.479-29 10.625C27.843 64.66 24 70 24 70s8-4 12-4 10 2 10 2 4-4 10-4 12 2 12 2l2-22z" clip-rule="evenodd"/><path fill="url(#g)" fill-rule="evenodd" d="M62 27.25C60 27.5 60 30 60 30l6 12c4 8 2 26-12 34 0 0 .954.467 2.473 1.05C50.315 82.098 41.165 88 32 88h35.469c2.527-2.635 4.696-5.59 6.59-8.516.113-.808.504-2.609 1.941-5.484 2-4 4-12 4-12s2 0 4 2c1.67 1.67-6.073 11.277-8.785 14.54 1.677-.556 3.3-1.353 4.785-2.54 10-8 4.508-28.428-4-38-8-9-12-11-14-10.75" clip-rule="evenodd"/><path fill="url(#h)" fill-rule="evenodd" d="m64 28-3 4 5 10c.917 1.835 1.501 4.21 1.715 6.855L78 42z" clip-rule="evenodd" opacity=".2"/><path fill="#2980B9" fill-rule="evenodd" d="M65.542 72.69c-3.89 4.854-3.685 5.415-9.144 9.51q-.047.032-.093.066l5.566 5.48c20.051-16.751 3.67-15.056 3.67-15.056M54.656 83.453C52.392 85.06 49.89 86.64 47.2 88h12.078z" clip-rule="evenodd"/><path fill="url(#i)" fill-rule="evenodd" d="M56.473 77.05C50.315 82.098 41.165 88 32 88h35.469c2.734-2.851 5.065-6.078 7.062-9.234 1.921-.555-19.577-2.299-18.058-1.715" clip-rule="evenodd" opacity=".2"/><path fill="url(#j)" d="M32 88v16h64V88z"/><path fill="url(#k)" d="M32 92v8h10v-8zm12 0v8h12v-8zm14 0v8h12v-8zm14 0v8h12v-8zm14 0v8h10v-8z"/><path fill="url(#l)" fill-rule="evenodd" d="M90 30c-2 0-2 6-8 12s-8 6-8 6 6 4 6 12c6 4 6 12 6 12l8-22-2-16z" clip-rule="evenodd"/><path fill="url(#m)" fill-rule="evenodd" d="M90 30c-2 0-2 6-8 12s-8 6-8 6 6 4 6 12-4 14-4 14l18-24-2-16z" clip-rule="evenodd"/><path fill="url(#n)" fill-rule="evenodd" d="M90 30c-4 27-14.625 28.75-15.875 36.5C72.851 74.398 76 74 76 74l18-24-2-16z" clip-rule="evenodd"/><path fill="url(#o)" fill-rule="evenodd" d="M90 30c2 0 8 12 6 30S84 82 84 82s-14-2-18-2-6 2-6 2-6-4-14-4-18 8-18 8 2-8 14-12 31.598-.318 38-8c20-24 8-36 10-36" clip-rule="evenodd"/><path fill="url(#p)" fill-rule="evenodd" d="M60 38c-4.243 1.414-10 0-12 2l-2 2s-2-4 0-6 6-2 8-6 8-4 10-2c4 4 2 8-4 10" clip-rule="evenodd"/><path fill="url(#q)" fill-rule="evenodd" d="M62.375 51c-6 4-21.442 6.479-29 10.625C27.843 64.66 24 70 24 70s8-4 12-4 10 2 10 2 22.375-21 16.375-17" clip-rule="evenodd"/></g></g><defs><linearGradient id="a" x1="128" x2="64" y1="-8556.77" y2="-8556.77" gradientUnits="userSpaceOnUse"><stop stop-color="#2F3943"/><stop offset="1" stop-color="#808C9B"/></linearGradient><linearGradient id="d" x1="80.516" x2="80" y1="44.601" y2="24" gradientUnits="userSpaceOnUse"><stop stop-color="#197CF1"/><stop offset="1" stop-color="#21C9FB"/></linearGradient><linearGradient id="e" x1="68.283" x2="31.109" y1="42.454" y2="64.551" gradientUnits="userSpaceOnUse"><stop stop-color="#197CF1"/><stop offset="1" stop-color="#21C9FB"/></linearGradient><linearGradient id="f" x1="60.5" x2="70.375" y1="53.875" y2="63.75" gradientUnits="userSpaceOnUse"><stop stop-color="#18222A"/><stop offset="1" stop-color="#566069"/></linearGradient><linearGradient id="g" x1="-753.143" x2="-753.143" y1="74" y2="22" gradientUnits="userSpaceOnUse"><stop stop-color="#2F3943"/><stop offset="1" stop-color="#808C9B"/></linearGradient><linearGradient id="h" x1="62" x2="70" y1="34" y2="46" gradientUnits="userSpaceOnUse"><stop/><stop offset="1" stop-opacity="0"/></linearGradient><linearGradient id="i" x1="54" x2="66" y1="78" y2="90" gradientUnits="userSpaceOnUse"><stop/><stop offset="1" stop-opacity="0"/></linearGradient><linearGradient id="j" x1="96" x2="64" y1="-981.596" y2="-981.596" gradientUnits="userSpaceOnUse"><stop stop-color="#2F3943"/><stop offset="1" stop-color="#808C9B"/></linearGradient><linearGradient id="k" x1="96" x2="64" y1="18" y2="18" gradientUnits="userSpaceOnUse"><stop stop-color="#197CF1"/><stop offset="1" stop-color="#21C9FB"/></linearGradient><linearGradient id="l" x1="-753.143" x2="-753.143" y1="74" y2="22" gradientUnits="userSpaceOnUse"><stop stop-color="#2F3943"/><stop offset="1" stop-color="#808C9B"/></linearGradient><linearGradient id="m" x1="90" x2="76" y1="30" y2="50" gradientUnits="userSpaceOnUse"><stop stop-color="#18222A"/><stop offset="1" stop-color="#18222A" stop-opacity="0"/></linearGradient><linearGradient id="n" x1="88.75" x2="96.563" y1="35.625" y2="43.437" gradientUnits="userSpaceOnUse"><stop stop-color="#18222A"/><stop offset="1" stop-color="#18222A" stop-opacity="0"/></linearGradient><linearGradient id="o" x1="94" x2="70" y1="72" y2="55" gradientUnits="userSpaceOnUse"><stop stop-color="#197CF1"/><stop offset="1" stop-color="#21C9FB"/></linearGradient><linearGradient id="p" x1="-753.143" x2="-753.143" y1="42" y2="20" gradientUnits="userSpaceOnUse"><stop stop-color="#2F3943"/><stop offset="1" stop-color="#808C9B"/></linearGradient><linearGradient id="q" x1="47" x2="57.313" y1="55" y2="65.312" gradientUnits="userSpaceOnUse"><stop stop-color="#18222A"/><stop offset="1" stop-color="#566069"/></linearGradient><filter id="b" width="112" height="116" x="8" y="8" color-interpolation-filters="sRGB" filterUnits="userSpaceOnUse"><feFlood flood-opacity="0" result="BackgroundImageFix"/><feBlend in="SourceGraphic" in2="BackgroundImageFix" result="shape"/><feColorMatrix in="SourceAlpha" result="hardAlpha" values="0 0 0 0 0 0 0 0 0 0 0 0 0 0 0 0 0 0 127 0"/><feOffset dy="4"/><feGaussianBlur stdDeviation="2"/><feComposite in2="hardAlpha" k2="-1" k3="1" operator="arithmetic"/><feColorMatrix values="0 0 0 0 0 0 0 0 0 0 0 0 0 0 0 0 0 0 0.25 0"/><feBlend in2="shape" result="effect1_innerShadow_98_112"/></filter><filter id="c" width="80.403" height="88" x="20" y="22" color-interpolation-filters="sRGB" filterUnits="userSpaceOnUse"><feFlood flood-opacity="0" result="BackgroundImageFix"/><feColorMatrix in="SourceAlpha" result="hardAlpha" values="0 0 0 0 0 0 0 0 0 0 0 0 0 0 0 0 0 0 127 0"/><feOffset dy="2"/><feGaussianBlur stdDeviation="2"/><feComposite in2="hardAlpha" operator="out"/><feColorMatrix values="0 0 0 0 0 0 0 0 0 0 0 0 0 0 0 0 0 0 0.25 0"/><feBlend in2="BackgroundImageFix" result="effect1_dropShadow_98_112"/><feBlend in="SourceGraphic" in2="effect1_dropShadow_98_112" result="shape"/></filter></defs></svg>