<svg xmlns="http://www.w3.org/2000/svg" width="128" height="128" fill="none"><rect width="128" height="128" fill="url(#a)" rx="32"/><g filter="url(#b)"><rect width="112" height="112" x="8" y="8" fill="#000" fill-opacity=".7" rx="24"/><g filter="url(#c)"><path fill="#fff" d="M60.802 24c-.023 0-4.853 4.767-10.73 10.586l-10.69 10.587 1.707 1.71 1.707 1.706-9.396 9.303-9.4 9.31 6.1 6.16q5.3 5.35 10.606 10.696l4.503 4.53 1.693-1.654c.934-.91 1.717-1.66 1.747-1.66.027 0 4.22 4.213 9.313 9.36l9.27 9.363.623-.607c.766-.75 16.69-16.5 19.056-18.853l1.733-1.72-1.673-1.71c-.92-.94-1.667-1.733-1.654-1.766.01-.03 4.214-4.2 9.34-9.276 5.127-5.073 9.333-9.253 9.343-9.283.017-.04-12.056-12.28-20.356-20.643l-.813-.806-1.683 1.683c-.93.927-1.724 1.67-1.767 1.657-.043-.017-4.233-4.224-9.31-9.35A1501 1501 0 0 0 60.801 24m-6.06 24.556c.303.126 26.502 15.359 26.522 15.422.01.044-5.936 3.52-13.216 7.733a3333 3333 0 0 1-13.32 7.69c-.063.02-.086-4.22-.086-15.43 0-12.332.023-15.445.1-15.415"/></g></g><defs><filter id="b" width="112" height="116" x="8" y="8" color-interpolation-filters="sRGB" filterUnits="userSpaceOnUse"><feFlood flood-opacity="0" result="BackgroundImageFix"/><feBlend in="SourceGraphic" in2="BackgroundImageFix" result="shape"/><feColorMatrix in="SourceAlpha" result="hardAlpha" values="0 0 0 0 0 0 0 0 0 0 0 0 0 0 0 0 0 0 127 0"/><feOffset dy="4"/><feGaussianBlur stdDeviation="2"/><feComposite in2="hardAlpha" k2="-1" k3="1" operator="arithmetic"/><feColorMatrix values="0 0 0 0 0 0 0 0 0 0 0 0 0 0 0 0 0 0 0.25 0"/><feBlend in2="shape" result="effect1_innerShadow_98_258"/></filter><filter id="c" width="88" height="87.997" x="20" y="22" color-interpolation-filters="sRGB" filterUnits="userSpaceOnUse"><feFlood flood-opacity="0" result="BackgroundImageFix"/><feColorMatrix in="SourceAlpha" result="hardAlpha" values="0 0 0 0 0 0 0 0 0 0 0 0 0 0 0 0 0 0 127 0"/><feOffset dy="2"/><feGaussianBlur stdDeviation="2"/><feComposite in2="hardAlpha" operator="out"/><feColorMatrix values="0 0 0 0 0 0 0 0 0 0 0 0 0 0 0 0 0 0 0.25 0"/><feBlend in2="BackgroundImageFix" result="effect1_dropShadow_98_258"/><feBlend in="SourceGraphic" in2="effect1_dropShadow_98_258" result="shape"/></filter><linearGradient id="a" x1="1432.28" x2="1257.52" y1="1744.61" y2="1747.54" gradientUnits="userSpaceOnUse"><stop stop-color="#FCFCFC"/><stop offset="1" stop-color="#D0D6DC"/></linearGradient></defs></svg>