<svg xmlns="http://www.w3.org/2000/svg" width="128" height="128" fill="none"><rect width="128" height="128" fill="url(#a)" rx="32"/><g filter="url(#b)"><rect width="112" height="112" x="8" y="8" fill="#000" fill-opacity=".7" rx="24"/><path fill="url(#c)" d="M64.45 102.884c21.787 0 39.449-17.659 39.449-39.442S86.237 24 64.449 24C42.662 24 25 41.659 25 63.442s17.662 39.442 39.45 39.442"/><path fill="url(#d)" d="M94.478 54.414 59.972 39.442l-17.316.968 9.423 9.52-16.705 22.36 3.112 3.152 3.726 6-.922 13.882q.774.566 1.573 1.094l46.775-2.68.007.008a39.44 39.44 0 0 0 14.23-29.808z" opacity=".4"/><path fill="url(#e)" fill-rule="evenodd" d="M38.782 102.002s12.328-43.926 60.316-38.34c0 0-30.498-18.436-60.105 6.418-8.746 20.624-.21 31.922-.21 31.922" clip-rule="evenodd"/><path fill="url(#f)" fill-rule="evenodd" d="M42.453 96.446s12.862-31.58 47.198-32.134c-26.1 6.474.044 29.428.044 29.428s-20.645 19.046-47.242 2.706" clip-rule="evenodd"/><path fill="url(#g)" fill-rule="evenodd" d="M35.29 72.238s25.693-28.776 64.06-8.894c-.686-5.408-5.225-11.512-13.359-13.256-1.8-.872-14.988-21.626-43.335-9.68 8.72.692 12.462 1.936 12.675 2.88-15.082-2.64-19.552 19.212-20.041 28.95" clip-rule="evenodd"/><path fill="#202020" fill-rule="evenodd" d="M72.138 47.826s6.573-2.396 7.43 4.734c-6.483.62-7.43-4.734-7.43-4.734" clip-rule="evenodd"/><path fill="#FDD664" fill-rule="evenodd" d="M38.61 102.142s11.237-37.324 48.81-38.77c0 0-30.489-5.664-52.022 29.068-.118 4.914 3.213 9.704 3.213 9.704z" clip-rule="evenodd"/><path fill="url(#h)" fill-rule="evenodd" d="M42.686 40.412s9.373.556 12.718 2.9c1.397-.294 2.585-1.268 2.784-2.594-1.198-.506-12.17-1.414-15.5-.306z" clip-rule="evenodd"/><path fill="#FDD664" fill-rule="evenodd" d="M42.686 40.412s9.373.556 12.718 2.9c1.397-.294 2.585-1.268 2.784-2.594-1.198-.506-12.17-1.414-15.5-.306zm-7.312 31.876s11.734-14.35 35.418-16.064c0 0-32.245 1.484-34.948 10.754-.754 2.23-.47 5.31-.47 5.31" clip-rule="evenodd"/></g><defs><linearGradient id="a" x1="192.2" x2="-28.36" y1="-35.382" y2="127.947" gradientUnits="userSpaceOnUse"><stop stop-color="#D446FF"/><stop offset="1" stop-color="#A0D8FF"/></linearGradient><linearGradient id="c" x1="143.472" x2="7.537" y1="2.195" y2="102.876" gradientUnits="userSpaceOnUse"><stop stop-color="#D446FF"/><stop offset="1" stop-color="#A0D8FF"/></linearGradient><linearGradient id="d" x1="63.919" x2="103.915" y1="63.442" y2="102.906" gradientUnits="userSpaceOnUse"><stop stop-color="#292C2F"/><stop offset="1" stop-opacity="0"/></linearGradient><linearGradient id="e" x1="61.827" x2="89.723" y1="66.456" y2="44.878" gradientUnits="userSpaceOnUse"><stop stop-color="#fff"/><stop offset="1" stop-color="#DADADA"/></linearGradient><linearGradient id="f" x1="67.15" x2="48.99" y1="91.655" y2="64.252" gradientUnits="userSpaceOnUse"><stop stop-color="#fff"/><stop offset="1" stop-color="#DADADA"/></linearGradient><linearGradient id="g" x1="98.506" x2="68.731" y1="41.331" y2="64.922" gradientUnits="userSpaceOnUse"><stop stop-color="#D0D0D0"/><stop offset="1" stop-color="#fff"/></linearGradient><linearGradient id="h" x1="57.523" x2="51.324" y1="39.967" y2="48.521" gradientUnits="userSpaceOnUse"><stop stop-color="#FFDC68"/><stop offset="1" stop-color="#CE4300"/></linearGradient><filter id="b" width="112" height="116" x="8" y="8" color-interpolation-filters="sRGB" filterUnits="userSpaceOnUse"><feFlood flood-opacity="0" result="BackgroundImageFix"/><feBlend in="SourceGraphic" in2="BackgroundImageFix" result="shape"/><feColorMatrix in="SourceAlpha" result="hardAlpha" values="0 0 0 0 0 0 0 0 0 0 0 0 0 0 0 0 0 0 127 0"/><feOffset dy="4"/><feGaussianBlur stdDeviation="2"/><feComposite in2="hardAlpha" k2="-1" k3="1" operator="arithmetic"/><feColorMatrix values="0 0 0 0 0 0 0 0 0 0 0 0 0 0 0 0 0 0 0.25 0"/><feBlend in2="shape" result="effect1_innerShadow_112_173"/></filter></defs></svg>