<svg xmlns="http://www.w3.org/2000/svg" width="128" height="128" fill="none"><rect width="128" height="128" fill="url(#a)" rx="32"/><rect width="128" height="128" fill="url(#b)" rx="32"/><g filter="url(#c)"><rect width="112" height="112" x="8" y="8" fill="#000" fill-opacity=".7" rx="24"/><g clip-path="url(#d)"><path fill="url(#e)" fill-rule="evenodd" d="M98.75 79.875c0 2.085-.944 4.149-2.778 6.075s-4.523 3.676-7.913 5.15c-3.389 1.474-7.413 2.644-11.841 3.442-4.428.797-9.175 1.208-13.968 1.208s-9.54-.41-13.968-1.208-8.452-1.968-11.841-3.442c-3.39-1.474-6.078-3.224-7.913-5.15s-2.778-3.99-2.778-6.075.944-4.15 2.778-6.075c1.835-1.926 4.523-3.676 7.913-5.15 3.389-1.475 7.413-2.644 11.841-3.442C52.71 64.411 57.457 64 62.25 64s9.54.41 13.968 1.208 8.452 1.968 11.841 3.442c3.39 1.474 6.078 3.224 7.913 5.15s2.778 3.99 2.778 6.075" clip-rule="evenodd"/><path fill="#857C63" fill-rule="evenodd" stroke="#2E3436" stroke-miterlimit="10" stroke-width="2" d="M36.749 40.936s5.749 11.855 19.198 11.52c28.185-.707 33.128-15.41 33.835-17.53.707-2.122 1.789-1.8 2.039.16 9.192 83.438-63.794 47.638-66.386 33.427 14.496-4.243 10.96-12.374 10.96-12.374z" clip-rule="evenodd"/><path fill="url(#f)" fill-rule="evenodd" d="M47.476 76.132c13.478 2.696 20.341.196 24.358-2.906-1.06-1.37-2.872-2.872-2.872-2.872s4.706 1.308 6.364 3.447c1.652 2.133.613 3.448.18 6.177-.962-2.397-2.76-3.296-3.002-4.249-3.613 4.994-12.613 4.787-25.028.403" clip-rule="evenodd"/><path fill="#DBDBD7" fill-rule="evenodd" stroke="#888A85" stroke-miterlimit="10" stroke-width="2" d="M51.422 58.79a8.133 8.133 0 0 1-11.244 7.515 8.132 8.132 0 0 1-2.639-13.266 8.13 8.13 0 0 1 13.883 5.751Z" clip-rule="evenodd"/><path fill="url(#g)" fill-rule="evenodd" stroke="#000" stroke-miterlimit="10" stroke-width="2" d="M35.223 61.854c1.892 2.624 2.967 5.674 2.988 8.48s-1.014 5.136-2.877 6.48-4.402 1.59-7.057.686-5.211-2.887-7.104-5.51c-1.893-2.624-2.968-5.674-2.989-8.48s1.014-5.136 2.877-6.48 4.402-1.591 7.058-.686 5.21 2.886 7.104 5.51Z" clip-rule="evenodd"/><path fill="#2E3436" fill-rule="evenodd" stroke="#000" stroke-miterlimit="10" stroke-width="2" d="M49.106 59.995a3.914 3.914 0 1 1-7.83 0 3.914 3.914 0 0 1 7.533-1.499c.196.475.298.985.297 1.499Z" clip-rule="evenodd"/><path stroke="url(#h)" stroke-miterlimit="10" stroke-width="2" d="M21.77 58.817c-1.277.957-1.95 2.576-1.89 4.773.06 2.198.928 4.888 2.708 7.265s4.118 3.965 6.21 4.641 3.834.486 5.112-.471c1.278-.958 1.954-2.654 1.903-4.862-.05-2.207-.894-4.843-2.67-7.214s-4.068-3.922-6.172-4.591c-2.104-.67-3.923-.498-5.2.459Z" clip-rule="evenodd" opacity=".281"/><path fill="#fff" fill-rule="evenodd" d="M27.668 62.503c0 .557-.091 1.109-.27 1.623a4.4 4.4 0 0 1-.765 1.377 3.6 3.6 0 0 1-1.148.92 3 3 0 0 1-1.353.323c-.464 0-.924-.11-1.353-.323a3.6 3.6 0 0 1-1.147-.92 4.4 4.4 0 0 1-.766-1.377 5 5 0 0 1-.27-1.624c0-.557.092-1.108.27-1.623a4.4 4.4 0 0 1 .766-1.377 3.6 3.6 0 0 1 1.147-.92 3 3 0 0 1 1.353-.323c.465 0 .924.11 1.353.323a3.6 3.6 0 0 1 1.148.92c.328.394.588.862.766 1.377.177.515.269 1.066.269 1.624m18.728-4.315a2.71 2.71 0 1 1-5.421 0 2.71 2.71 0 0 1 5.42 0" clip-rule="evenodd"/><path fill="#DBDBD7" fill-rule="evenodd" stroke="#888A85" stroke-miterlimit="10" stroke-width="2" d="M69.63 59.674a9.546 9.546 0 1 1-18.366-3.654 9.544 9.544 0 0 1 12.473-5.167 9.55 9.55 0 0 1 5.892 8.821Z" clip-rule="evenodd"/><path fill="#2E3436" fill-rule="evenodd" stroke="#000" stroke-miterlimit="10" stroke-width="2" d="M66.912 61.088a4.596 4.596 0 1 1-8.843-1.759 4.597 4.597 0 0 1 8.843 1.76Z" clip-rule="evenodd"/><path fill="#fff" fill-rule="evenodd" d="M63.73 58.967a3.182 3.182 0 1 1-6.364 0 3.182 3.182 0 0 1 6.364 0" clip-rule="evenodd"/><path fill="url(#i)" stroke="#673907" stroke-linecap="round" stroke-width="2" d="m89.174 88.183 1.852-3.69c-6.892-5.043-19.598-8.712-19.598-8.712-2.203-1.026-2.898.953-1.373 2.24 0 0 10.867 7.79 19.119 10.162Z"/><path fill="url(#j)" stroke="#888A85" stroke-linecap="round" stroke-width="2" d="m98.01 91.584.992-2.196-7.695-4.93-.613-.052-.266-.85c-1.117.7-2.742 3.301-2.311 4.763l.831-.314.45.435z"/><path stroke="#fff" stroke-linecap="round" stroke-linejoin="round" stroke-width="2" d="m93.024 87.42 5.109 2.193"/><path fill="url(#k)" d="M109.194 100.908c-2.399-8.143-3.25-14.609-9.52-14.034-5.052.464-5.406 7.703-.185 9.7 5.03 1.925 9.705 4.334 9.705 4.334"/><path fill="#fff" d="M100.05 87.534a2.102 2.102 0 0 1 2.686 2.24 2.1 2.1 0 0 1-3.098 1.625 2.102 2.102 0 0 1 .412-3.865" opacity=".528"/><path fill="#fff" d="M90.88 84.541a1.418 1.418 0 1 1 .803 2.72 1.418 1.418 0 0 1-.803-2.72"/><path fill="url(#l)" d="M106.182 96.036s-.782-2.924-2.506-4.445c-.611-.539.158-1.332.734-.635 1.244 1.504 1.772 5.08 1.772 5.08" opacity=".428"/><path fill="url(#m)" fill-rule="evenodd" d="M62.006 79.473c2.995.286 5.7-.544 6.824-.948.197-1.11 1.073-3.243 4.092-3.383l-1.06-1.856s-3.934 2.696-8.132 3.491z" clip-rule="evenodd"/></g></g><defs><linearGradient id="a" x1="63.611" x2="63.611" y1="128.098" y2="-.083" gradientUnits="userSpaceOnUse"><stop stop-color="#2CA0B9"/><stop offset="1" stop-color="#87DEAA"/></linearGradient><linearGradient id="b" x1="64" x2="64" y1="0" y2="128" gradientUnits="userSpaceOnUse"><stop stop-color="#857C63"/><stop offset="1" stop-color="#3E382D"/></linearGradient><linearGradient id="f" x1="73.028" x2="50.754" y1="72.859" y2="77.278" gradientUnits="userSpaceOnUse"><stop/><stop offset="1" stop-opacity="0"/></linearGradient><linearGradient id="h" x1="23.555" x2="32.883" y1="60.494" y2="74.017" gradientUnits="userSpaceOnUse"><stop stop-color="#fff"/><stop offset="1" stop-color="#fff" stop-opacity="0"/></linearGradient><linearGradient id="i" x1="84.718" x2="80.564" y1="80.109" y2="89.183" gradientUnits="userSpaceOnUse"><stop stop-color="#6E3D09"/><stop offset=".242" stop-color="#EA8113"/><stop offset=".621" stop-color="#5C3307"/><stop offset="1" stop-color="#E07C12"/></linearGradient><linearGradient id="j" x1="93.622" x2="95.449" y1="89.964" y2="86.278" gradientUnits="userSpaceOnUse"><stop stop-color="#BDBDBD"/><stop offset=".333" stop-color="#E2E2E2"/><stop offset=".667" stop-color="#A3A3A3"/><stop offset="1" stop-color="#DDD"/></linearGradient><linearGradient id="l" x1="103.914" x2="106.254" y1="90.171" y2="94.508" gradientUnits="userSpaceOnUse"><stop stop-color="#fff"/><stop offset="1" stop-color="#fff" stop-opacity="0"/></linearGradient><linearGradient id="m" x1="68.326" x2="64.658" y1="77.087" y2="77.971" gradientUnits="userSpaceOnUse"><stop/><stop offset="1" stop-opacity="0"/></linearGradient><radialGradient id="e" cx="0" cy="0" r="1" gradientTransform="matrix(36.5 0 0 15.875 62.25 79.875)" gradientUnits="userSpaceOnUse"><stop/><stop offset="1" stop-opacity="0"/></radialGradient><radialGradient id="g" cx="0" cy="0" r="1" gradientTransform="rotate(-30 129.421 -15.217)scale(8.89766 10.385)" gradientUnits="userSpaceOnUse"><stop stop-color="#5B676B"/><stop offset="1" stop-color="#141718"/></radialGradient><radialGradient id="k" cx="0" cy="0" r="1" gradientTransform="matrix(-2.73805 -9.2941 9.0574 -2.66831 98.178 92.106)" gradientUnits="userSpaceOnUse"><stop stop-color="#696969"/><stop offset="1"/></radialGradient><clipPath id="d"><path fill="#fff" d="M16 16h96v96H16z"/></clipPath><filter id="c" width="112" height="116" x="8" y="8" color-interpolation-filters="sRGB" filterUnits="userSpaceOnUse"><feFlood flood-opacity="0" result="BackgroundImageFix"/><feBlend in="SourceGraphic" in2="BackgroundImageFix" result="shape"/><feColorMatrix in="SourceAlpha" result="hardAlpha" values="0 0 0 0 0 0 0 0 0 0 0 0 0 0 0 0 0 0 127 0"/><feOffset dy="4"/><feGaussianBlur stdDeviation="2"/><feComposite in2="hardAlpha" k2="-1" k3="1" operator="arithmetic"/><feColorMatrix values="0 0 0 0 0 0 0 0 0 0 0 0 0 0 0 0 0 0 0.25 0"/><feBlend in2="shape" result="effect1_innerShadow_146_26"/></filter></defs></svg>