<svg xmlns="http://www.w3.org/2000/svg" width="128" height="128" fill="none"><rect width="128" height="128" fill="url(#a)" rx="32"/><g filter="url(#b)"><rect width="112" height="112" x="8" y="8" fill="#000" fill-opacity=".7" rx="24"/><path fill="url(#c)" d="M64 27.125c20.71 0 37.5 16.79 37.5 37.5s-16.79 37.5-37.5 37.5-37.5-16.79-37.5-37.5 16.79-37.5 37.5-37.5"/><path fill="url(#d)" d="M64 27.125c-20.71 0-37.5 16.79-37.5 37.5s16.79 37.5 37.5 37.5z"/><path fill="#40A1C8" d="M101.5 63.375c0 20.71-16.79 37.5-37.5 37.5s-37.5-16.79-37.5-37.5 16.79-37.5 37.5-37.5 37.5 16.79 37.5 37.5"/><path fill="#49BBB0" d="M41.502 64c.079 8.696 1.802 17.105 4.898 23.906-2.463 1.26-4.55 2.776-6.165 4.475A37.5 37.5 0 0 1 26.505 64z"/><path fill="#378BDE" d="M64 84v16.875c-2.812 0-5.618-.317-8.36-.945-3.625-2.536-6.809-6.682-9.238-12.024C51.342 85.382 57.57 84 64 84"/><path fill="#266EC6" d="M86.498 64c-.079 8.696-1.802 17.105-4.9 23.906 2.466 1.26 4.55 2.776 6.164 4.475A37.5 37.5 0 0 0 101.495 64z"/><path fill="#378BDE" d="M64 64v36.875c2.813 0 5.618-.317 8.36-.945C80.78 94.034 86.352 79.87 86.497 64z"/><path fill="#266EC6" d="M64 84v16.875c2.813 0 5.618-.317 8.36-.945 3.625-2.536 6.808-6.682 9.238-12.024C76.658 85.382 70.43 84 64 84"/><path fill="#1E62B5" d="M81.6 87.906c-2.431 5.342-5.615 9.485-9.238 12.024a37.5 37.5 0 0 0 15.403-7.549c-1.614-1.699-3.701-3.215-6.165-4.475"/><path fill="#53D795" d="M64 25.875c-20.71 0-37.5 16.79-37.5 37.5q0 .313.005.625H64z"/><path fill="#72E99A" d="M55.64 26.817a37.5 37.5 0 0 0-15.405 7.55c1.614 1.7 3.702 3.215 6.167 4.477 2.432-5.345 5.616-9.488 9.239-12.027"/><path fill="#49BBB0" d="M64 25.875c-2.812 0-5.615.317-8.36.942C47.1 32.8 41.5 47.277 41.5 63.375q0 .313.002.625H64z"/><path fill="#53D795" d="M64 25.875c-2.812 0-5.615.317-8.36.942-3.622 2.54-6.806 6.682-9.238 12.027C51.344 41.368 57.57 42.75 64 42.75z"/><path fill="#378BDE" d="M64 25.875c20.71 0 37.5 16.79 37.5 37.5q0 .313-.005.625H64z"/><path fill="#40A1C8" d="M72.36 26.817a37.5 37.5 0 0 1 15.405 7.55c-1.614 1.7-3.701 3.215-6.165 4.474-2.434-5.342-5.618-9.485-9.24-12.024"/><path fill="#40A1C8" d="M64 25.875c2.813 0 5.618.317 8.36.942C80.9 32.8 86.5 47.277 86.5 63.375q0 .313-.002.625H64z"/><path fill="#49BBB0" d="M64 25.875c2.813 0 5.618.317 8.36.942 3.622 2.54 6.806 6.682 9.238 12.024C76.656 41.368 70.43 42.75 64 42.75z"/></g><defs><linearGradient id="a" x1="64" x2="64" y1="0" y2="128" gradientUnits="userSpaceOnUse"><stop stop-color="#72E99A"/><stop offset=".3" stop-color="#49BBB0"/><stop offset=".614" stop-color="#378BDE"/><stop offset="1" stop-color="#1E62B5"/></linearGradient><linearGradient id="c" x1="85.25" x2="91.5" y1="94" y2="94" gradientUnits="userSpaceOnUse"><stop stop-color="#16529C"/><stop offset="1" stop-color="#236AC0"/></linearGradient><linearGradient id="d" x1="60.25" x2="32.75" y1="99" y2="99" gradientUnits="userSpaceOnUse"><stop stop-color="#2166BB"/><stop offset="1" stop-color="#89EDA9"/></linearGradient><filter id="b" width="112" height="116" x="8" y="8" color-interpolation-filters="sRGB" filterUnits="userSpaceOnUse"><feFlood flood-opacity="0" result="BackgroundImageFix"/><feBlend in="SourceGraphic" in2="BackgroundImageFix" result="shape"/><feColorMatrix in="SourceAlpha" result="hardAlpha" values="0 0 0 0 0 0 0 0 0 0 0 0 0 0 0 0 0 0 127 0"/><feOffset dy="4"/><feGaussianBlur stdDeviation="2"/><feComposite in2="hardAlpha" k2="-1" k3="1" operator="arithmetic"/><feColorMatrix values="0 0 0 0 0 0 0 0 0 0 0 0 0 0 0 0 0 0 0.25 0"/><feBlend in2="shape" result="effect1_innerShadow_112_121"/></filter></defs></svg>