<svg xmlns="http://www.w3.org/2000/svg" width="128" height="128" fill="none"><rect width="128" height="128" fill="url(#a)" rx="32"/><g filter="url(#b)"><rect width="112" height="112" x="8" y="8" fill="#000" fill-opacity=".7" rx="24"/><g clip-path="url(#c)"><g filter="url(#d)"><path fill="url(#e)" d="m97.426 54.062 10.46 23.195-17.902 30.629-11.026-26.77z"/></g><g filter="url(#f)"><path fill="#B74AF7" d="m78.958 81.116 11.026 26.77-27.74-9.536z"/></g><g filter="url(#g)"><path fill="url(#h)" d="M81.947 44.9 76.26 20.115H44.727l-24.613 37.65 7.122 17.299-7.122 15.79 50.972-43.365z"/></g><g filter="url(#i)"><path fill="url(#j)" d="m107.886 38.747-36.8 8.741-50.972 43.365 32.878 17.033 25.966-26.77z"/></g><g filter="url(#k)"><path fill="#000" d="M36.571 36.571h54.857V91.43H36.571z"/></g><path fill="#fff" d="M41.72 81.143h20.57v3.428H41.72zM40.174 55.14v-.063a11.61 11.61 0 0 1 11.858-11.648c3.257-.172 6.451.94 8.896 3.099l-3.136 3.785A8.35 8.35 0 0 0 51.877 48c-3.657 0-6.5 3.2-6.5 7.04v.064c0 4.142 2.843 7.177 6.856 7.177a7.93 7.93 0 0 0 4.682-1.362v-3.255h-5.01v-4.297h9.81v9.82a14.7 14.7 0 0 1-9.665 3.592c-7.03 0-11.876-4.946-11.876-11.638m23.643-.001v-.063a11.693 11.693 0 0 1 12.06-11.648c6.976 0 11.986 5.202 11.986 11.63v.063a11.69 11.69 0 0 1-12.05 11.703c-6.985-.046-11.996-5.248-11.996-11.684m18.844 0v-.063A6.867 6.867 0 0 0 75.813 48a6.766 6.766 0 0 0-6.784 7.013v.064a6.875 6.875 0 0 0 6.857 7.113 6.765 6.765 0 0 0 6.775-7.05"/></g></g><defs><filter id="b" width="112" height="116" x="8" y="8" color-interpolation-filters="sRGB" filterUnits="userSpaceOnUse"><feFlood flood-opacity="0" result="BackgroundImageFix"/><feBlend in="SourceGraphic" in2="BackgroundImageFix" result="shape"/><feColorMatrix in="SourceAlpha" result="hardAlpha" values="0 0 0 0 0 0 0 0 0 0 0 0 0 0 0 0 0 0 127 0"/><feOffset dy="4"/><feGaussianBlur stdDeviation="2"/><feComposite in2="hardAlpha" k2="-1" k3="1" operator="arithmetic"/><feColorMatrix values="0 0 0 0 0 0 0 0 0 0 0 0 0 0 0 0 0 0 0.25 0"/><feBlend in2="shape" result="effect1_innerShadow_141_193"/></filter><filter id="d" width="36.928" height="61.824" x="74.957" y="52.062" color-interpolation-filters="sRGB" filterUnits="userSpaceOnUse"><feFlood flood-opacity="0" result="BackgroundImageFix"/><feColorMatrix in="SourceAlpha" result="hardAlpha" values="0 0 0 0 0 0 0 0 0 0 0 0 0 0 0 0 0 0 127 0"/><feOffset dy="2"/><feGaussianBlur stdDeviation="2"/><feComposite in2="hardAlpha" operator="out"/><feColorMatrix values="0 0 0 0 0 0 0 0 0 0 0 0 0 0 0 0 0 0 0.25 0"/><feBlend in2="BackgroundImageFix" result="effect1_dropShadow_141_193"/><feBlend in="SourceGraphic" in2="effect1_dropShadow_141_193" result="shape"/></filter><filter id="f" width="35.739" height="34.77" x="58.245" y="79.115" color-interpolation-filters="sRGB" filterUnits="userSpaceOnUse"><feFlood flood-opacity="0" result="BackgroundImageFix"/><feColorMatrix in="SourceAlpha" result="hardAlpha" values="0 0 0 0 0 0 0 0 0 0 0 0 0 0 0 0 0 0 127 0"/><feOffset dy="2"/><feGaussianBlur stdDeviation="2"/><feComposite in2="hardAlpha" operator="out"/><feColorMatrix values="0 0 0 0 0 0 0 0 0 0 0 0 0 0 0 0 0 0 0.25 0"/><feBlend in2="BackgroundImageFix" result="effect1_dropShadow_141_193"/><feBlend in="SourceGraphic" in2="effect1_dropShadow_141_193" result="shape"/></filter><filter id="g" width="69.833" height="78.738" x="16.114" y="18.114" color-interpolation-filters="sRGB" filterUnits="userSpaceOnUse"><feFlood flood-opacity="0" result="BackgroundImageFix"/><feColorMatrix in="SourceAlpha" result="hardAlpha" values="0 0 0 0 0 0 0 0 0 0 0 0 0 0 0 0 0 0 127 0"/><feOffset dy="2"/><feGaussianBlur stdDeviation="2"/><feComposite in2="hardAlpha" operator="out"/><feColorMatrix values="0 0 0 0 0 0 0 0 0 0 0 0 0 0 0 0 0 0 0.25 0"/><feBlend in2="BackgroundImageFix" result="effect1_dropShadow_141_193"/><feBlend in="SourceGraphic" in2="effect1_dropShadow_141_193" result="shape"/></filter><filter id="i" width="95.772" height="77.138" x="16.114" y="36.747" color-interpolation-filters="sRGB" filterUnits="userSpaceOnUse"><feFlood flood-opacity="0" result="BackgroundImageFix"/><feColorMatrix in="SourceAlpha" result="hardAlpha" values="0 0 0 0 0 0 0 0 0 0 0 0 0 0 0 0 0 0 127 0"/><feOffset dy="2"/><feGaussianBlur stdDeviation="2"/><feComposite in2="hardAlpha" operator="out"/><feColorMatrix values="0 0 0 0 0 0 0 0 0 0 0 0 0 0 0 0 0 0 0.25 0"/><feBlend in2="BackgroundImageFix" result="effect1_dropShadow_141_193"/><feBlend in="SourceGraphic" in2="effect1_dropShadow_141_193" result="shape"/></filter><filter id="k" width="62.857" height="62.857" x="32.571" y="34.571" color-interpolation-filters="sRGB" filterUnits="userSpaceOnUse"><feFlood flood-opacity="0" result="BackgroundImageFix"/><feColorMatrix in="SourceAlpha" result="hardAlpha" values="0 0 0 0 0 0 0 0 0 0 0 0 0 0 0 0 0 0 127 0"/><feOffset dy="2"/><feGaussianBlur stdDeviation="2"/><feComposite in2="hardAlpha" operator="out"/><feColorMatrix values="0 0 0 0 0 0 0 0 0 0 0 0 0 0 0 0 0 0 0.25 0"/><feBlend in2="BackgroundImageFix" result="effect1_dropShadow_141_193"/><feBlend in="SourceGraphic" in2="effect1_dropShadow_141_193" result="shape"/></filter><linearGradient id="a" x1="64" x2="64" y1="0" y2="128" gradientUnits="userSpaceOnUse"><stop stop-color="#3BEA62"/><stop offset=".51" stop-color="#087CFA"/><stop offset="1" stop-color="#B74AF7"/></linearGradient><linearGradient id="e" x1="106.542" x2="72.265" y1="70.108" y2="99.118" gradientUnits="userSpaceOnUse"><stop stop-color="#087CFA"/><stop offset=".02" stop-color="#0D7BFA"/><stop offset=".37" stop-color="#5566F9"/><stop offset=".66" stop-color="#8A57F8"/><stop offset=".88" stop-color="#AB4EF7"/><stop offset="1" stop-color="#B74AF7"/></linearGradient><linearGradient id="h" x1="50.322" x2="71.159" y1="47.323" y2="23.616" gradientUnits="userSpaceOnUse"><stop stop-color="#087CFA"/><stop offset=".02" stop-color="#0D7BFA"/><stop offset=".37" stop-color="#5566F9"/><stop offset=".66" stop-color="#8A57F8"/><stop offset=".88" stop-color="#AB4EF7"/><stop offset="1" stop-color="#B74AF7"/></linearGradient><linearGradient id="j" x1="32.311" x2="95.625" y1="96.786" y2="56.101" gradientUnits="userSpaceOnUse"><stop stop-color="#087CFA"/><stop offset=".1" stop-color="#1598D3"/><stop offset=".22" stop-color="#23B6AA"/><stop offset=".35" stop-color="#2DCC8B"/><stop offset=".46" stop-color="#35DD74"/><stop offset=".57" stop-color="#39E767"/><stop offset=".67" stop-color="#3BEA62"/></linearGradient><clipPath id="c"><path fill="#fff" d="M16 16h96v96H16z"/></clipPath></defs></svg>