<svg xmlns="http://www.w3.org/2000/svg" width="128" height="128" fill="none"><rect width="128" height="128" fill="#FF0045" rx="32"/><rect width="128" height="128" fill="url(#a)" rx="32"/><rect width="128" height="128" fill="url(#b)" rx="32"/><g filter="url(#c)"><rect width="112" height="112" x="8" y="8" fill="#000" fill-opacity=".7" rx="24"/><g clip-path="url(#d)" filter="url(#e)"><path fill="#fff" d="M64 31.21c10.68 0 11.947.04 16.167.233 10.84.494 15.903 5.637 16.396 16.397.194 4.217.23 5.483.23 16.163 0 10.684-.04 11.947-.23 16.164-.496 10.75-5.546 15.903-16.396 16.396-4.22.194-5.48.234-16.167.234-10.68 0-11.947-.04-16.163-.234-10.867-.496-15.904-5.663-16.397-16.4-.193-4.216-.233-5.48-.233-16.163 0-10.68.043-11.943.233-16.163.497-10.757 5.547-15.904 16.397-16.397 4.22-.19 5.483-.23 16.163-.23M64 24c-10.863 0-12.223.047-16.49.24-14.527.667-22.6 8.727-23.267 23.267C24.047 51.777 24 53.137 24 64s.047 12.227.24 16.493c.667 14.527 8.727 22.6 23.267 23.267 4.27.193 5.63.24 16.493.24s12.227-.047 16.493-.24c14.514-.667 22.607-8.727 23.264-23.267.196-4.266.243-5.63.243-16.493s-.047-12.223-.24-16.49c-.653-14.513-8.723-22.6-23.263-23.267C76.227 24.047 74.863 24 64 24m0 19.46c-11.343 0-20.54 9.197-20.54 20.54S52.657 84.543 64 84.543 84.54 75.347 84.54 64c0-11.343-9.197-20.54-20.54-20.54m0 33.873c-7.363 0-13.333-5.966-13.333-13.333 0-7.363 5.97-13.333 13.333-13.333S77.333 56.637 77.333 64c0 7.367-5.97 13.333-13.333 13.333M85.353 37.85a4.8 4.8 0 0 0-4.803 4.8c0 2.65 2.15 4.8 4.803 4.8 2.65 0 4.797-2.15 4.797-4.8s-2.147-4.8-4.797-4.8"/><path fill="#FF0045" d="M64 31.21c10.68 0 11.947.04 16.167.233 10.84.494 15.903 5.637 16.396 16.397.194 4.217.23 5.483.23 16.163 0 10.684-.04 11.947-.23 16.164-.496 10.75-5.546 15.903-16.396 16.396-4.22.194-5.48.234-16.167.234-10.68 0-11.947-.04-16.163-.234-10.867-.496-15.904-5.663-16.397-16.4-.193-4.216-.233-5.48-.233-16.163 0-10.68.043-11.943.233-16.163.497-10.757 5.547-15.904 16.397-16.397 4.22-.19 5.483-.23 16.163-.23M64 24c-10.863 0-12.223.047-16.49.24-14.527.667-22.6 8.727-23.267 23.267C24.047 51.777 24 53.137 24 64s.047 12.227.24 16.493c.667 14.527 8.727 22.6 23.267 23.267 4.27.193 5.63.24 16.493.24s12.227-.047 16.493-.24c14.514-.667 22.607-8.727 23.264-23.267.196-4.266.243-5.63.243-16.493s-.047-12.223-.24-16.49c-.653-14.513-8.723-22.6-23.263-23.267C76.227 24.047 74.863 24 64 24m0 19.46c-11.343 0-20.54 9.197-20.54 20.54S52.657 84.543 64 84.543 84.54 75.347 84.54 64c0-11.343-9.197-20.54-20.54-20.54m0 33.873c-7.363 0-13.333-5.966-13.333-13.333 0-7.363 5.97-13.333 13.333-13.333S77.333 56.637 77.333 64c0 7.367-5.97 13.333-13.333 13.333M85.353 37.85a4.8 4.8 0 0 0-4.803 4.8c0 2.65 2.15 4.8 4.803 4.8 2.65 0 4.797-2.15 4.797-4.8s-2.147-4.8-4.797-4.8"/><path fill="url(#f)" d="M64 31.21c10.68 0 11.947.04 16.167.233 10.84.494 15.903 5.637 16.396 16.397.194 4.217.23 5.483.23 16.163 0 10.684-.04 11.947-.23 16.164-.496 10.75-5.546 15.903-16.396 16.396-4.22.194-5.48.234-16.167.234-10.68 0-11.947-.04-16.163-.234-10.867-.496-15.904-5.663-16.397-16.4-.193-4.216-.233-5.48-.233-16.163 0-10.68.043-11.943.233-16.163.497-10.757 5.547-15.904 16.397-16.397 4.22-.19 5.483-.23 16.163-.23M64 24c-10.863 0-12.223.047-16.49.24-14.527.667-22.6 8.727-23.267 23.267C24.047 51.777 24 53.137 24 64s.047 12.227.24 16.493c.667 14.527 8.727 22.6 23.267 23.267 4.27.193 5.63.24 16.493.24s12.227-.047 16.493-.24c14.514-.667 22.607-8.727 23.264-23.267.196-4.266.243-5.63.243-16.493s-.047-12.223-.24-16.49c-.653-14.513-8.723-22.6-23.263-23.267C76.227 24.047 74.863 24 64 24m0 19.46c-11.343 0-20.54 9.197-20.54 20.54S52.657 84.543 64 84.543 84.54 75.347 84.54 64c0-11.343-9.197-20.54-20.54-20.54m0 33.873c-7.363 0-13.333-5.966-13.333-13.333 0-7.363 5.97-13.333 13.333-13.333S77.333 56.637 77.333 64c0 7.367-5.97 13.333-13.333 13.333M85.353 37.85a4.8 4.8 0 0 0-4.803 4.8c0 2.65 2.15 4.8 4.803 4.8 2.65 0 4.797-2.15 4.797-4.8s-2.147-4.8-4.797-4.8"/><path fill="url(#g)" d="M64 31.21c10.68 0 11.947.04 16.167.233 10.84.494 15.903 5.637 16.396 16.397.194 4.217.23 5.483.23 16.163 0 10.684-.04 11.947-.23 16.164-.496 10.75-5.546 15.903-16.396 16.396-4.22.194-5.48.234-16.167.234-10.68 0-11.947-.04-16.163-.234-10.867-.496-15.904-5.663-16.397-16.4-.193-4.216-.233-5.48-.233-16.163 0-10.68.043-11.943.233-16.163.497-10.757 5.547-15.904 16.397-16.397 4.22-.19 5.483-.23 16.163-.23M64 24c-10.863 0-12.223.047-16.49.24-14.527.667-22.6 8.727-23.267 23.267C24.047 51.777 24 53.137 24 64s.047 12.227.24 16.493c.667 14.527 8.727 22.6 23.267 23.267 4.27.193 5.63.24 16.493.24s12.227-.047 16.493-.24c14.514-.667 22.607-8.727 23.264-23.267.196-4.266.243-5.63.243-16.493s-.047-12.223-.24-16.49c-.653-14.513-8.723-22.6-23.263-23.267C76.227 24.047 74.863 24 64 24m0 19.46c-11.343 0-20.54 9.197-20.54 20.54S52.657 84.543 64 84.543 84.54 75.347 84.54 64c0-11.343-9.197-20.54-20.54-20.54m0 33.873c-7.363 0-13.333-5.966-13.333-13.333 0-7.363 5.97-13.333 13.333-13.333S77.333 56.637 77.333 64c0 7.367-5.97 13.333-13.333 13.333M85.353 37.85a4.8 4.8 0 0 0-4.803 4.8c0 2.65 2.15 4.8 4.803 4.8 2.65 0 4.797-2.15 4.797-4.8s-2.147-4.8-4.797-4.8"/></g></g><defs><radialGradient id="a" cx="0" cy="0" r="1" gradientTransform="rotate(135 64 26.51)scale(181.019)" gradientUnits="userSpaceOnUse"><stop stop-color="#B000FF"/><stop offset="1" stop-color="#DFDFDF" stop-opacity="0"/></radialGradient><radialGradient id="b" cx="0" cy="0" r="1" gradientTransform="rotate(-63.435 103.554 64)scale(143.108)" gradientUnits="userSpaceOnUse"><stop stop-color="#FFB000"/><stop offset="1" stop-color="#DFDFDF" stop-opacity="0"/></radialGradient><radialGradient id="f" cx="0" cy="0" r="1" gradientTransform="rotate(135 47.03 33.54)scale(113.137)" gradientUnits="userSpaceOnUse"><stop stop-color="#B000FF"/><stop offset="1" stop-color="#DFDFDF" stop-opacity="0"/></radialGradient><radialGradient id="g" cx="0" cy="0" r="1" gradientTransform="rotate(-63.435 96.138 32.584)scale(89.4427)" gradientUnits="userSpaceOnUse"><stop stop-color="#FFB000"/><stop offset="1" stop-color="#DFDFDF" stop-opacity="0"/></radialGradient><filter id="c" width="112" height="116" x="8" y="8" color-interpolation-filters="sRGB" filterUnits="userSpaceOnUse"><feFlood flood-opacity="0" result="BackgroundImageFix"/><feBlend in="SourceGraphic" in2="BackgroundImageFix" result="shape"/><feColorMatrix in="SourceAlpha" result="hardAlpha" values="0 0 0 0 0 0 0 0 0 0 0 0 0 0 0 0 0 0 127 0"/><feOffset dy="4"/><feGaussianBlur stdDeviation="2"/><feComposite in2="hardAlpha" k2="-1" k3="1" operator="arithmetic"/><feColorMatrix values="0 0 0 0 0 0 0 0 0 0 0 0 0 0 0 0 0 0 0.25 0"/><feBlend in2="shape" result="effect1_innerShadow_165_59"/></filter><filter id="e" width="88" height="88" x="20" y="22" color-interpolation-filters="sRGB" filterUnits="userSpaceOnUse"><feFlood flood-opacity="0" result="BackgroundImageFix"/><feColorMatrix in="SourceAlpha" result="hardAlpha" values="0 0 0 0 0 0 0 0 0 0 0 0 0 0 0 0 0 0 127 0"/><feOffset dy="2"/><feGaussianBlur stdDeviation="2"/><feComposite in2="hardAlpha" operator="out"/><feColorMatrix values="0 0 0 0 0 0 0 0 0 0 0 0 0 0 0 0 0 0 0.25 0"/><feBlend in2="BackgroundImageFix" result="effect1_dropShadow_165_59"/><feBlend in="SourceGraphic" in2="effect1_dropShadow_165_59" result="shape"/></filter><clipPath id="d"><path fill="#fff" d="M24 24h80v80H24z"/></clipPath></defs></svg>