<svg xmlns="http://www.w3.org/2000/svg" width="128" height="128" fill="none"><rect width="128" height="128" fill="url(#a)" rx="32"/><g filter="url(#b)"><rect width="112" height="112" x="8" y="8" fill="#000" fill-opacity=".7" rx="24"/><g clip-path="url(#c)"><path fill="#FC801D" d="m33.618 82.02-12.91-10.194 7.598-14.07 11.42 3.821z"/><g filter="url(#d)"><path fill="#087CFA" d="m107.492 43.51-1.581 50.835-33.81 13.541L53.686 96z"/></g><g filter="url(#e)"><path fill="#7557B2" d="M107.493 43.51 90.761 59.83 69.275 33.473 79.881 21.55z"/></g><g filter="url(#f)"><path fill="url(#g)" fill-rule="evenodd" d="m19.721 54.885 20.005 6.692 51.035-1.746-29.604-36.325-28.727-3.392z" clip-rule="evenodd"/></g><g filter="url(#h)"><path fill="#FF318C" d="M26.798 105.719 53.687 96l37.074-36.17-51.035 1.747-7.296 24.42z"/></g><g filter="url(#i)"><path fill="#000" d="M36.572 36.571h54.857V91.43H36.572z"/></g><path fill="#fff" d="M43.41 81.06h20.572v3.43H43.41zm10.268-33.864v-3.75H43.447v3.75h2.87v12.946h-2.87v3.748h10.23v-3.748h-2.86V47.196zm9.81 16.987a8.1 8.1 0 0 1-4.014-.914 9.3 9.3 0 0 1-2.67-2.158l2.826-3.154a8.1 8.1 0 0 0 1.773 1.499 3.66 3.66 0 0 0 1.966.549 2.6 2.6 0 0 0 2.002-.796 3.8 3.8 0 0 0 .732-2.587V43.429h4.571v13.394a9.3 9.3 0 0 1-.503 3.19 5.93 5.93 0 0 1-3.72 3.658c-.975.33-1.998.49-3.027.475"/></g></g><defs><filter id="b" width="112" height="116" x="8" y="8" color-interpolation-filters="sRGB" filterUnits="userSpaceOnUse"><feFlood flood-opacity="0" result="BackgroundImageFix"/><feBlend in="SourceGraphic" in2="BackgroundImageFix" result="shape"/><feColorMatrix in="SourceAlpha" result="hardAlpha" values="0 0 0 0 0 0 0 0 0 0 0 0 0 0 0 0 0 0 127 0"/><feOffset dy="4"/><feGaussianBlur stdDeviation="2"/><feComposite in2="hardAlpha" k2="-1" k3="1" operator="arithmetic"/><feColorMatrix values="0 0 0 0 0 0 0 0 0 0 0 0 0 0 0 0 0 0 0.25 0"/><feBlend in2="shape" result="effect1_innerShadow_141_2"/></filter><filter id="d" width="61.806" height="72.375" x="49.687" y="41.511" color-interpolation-filters="sRGB" filterUnits="userSpaceOnUse"><feFlood flood-opacity="0" result="BackgroundImageFix"/><feColorMatrix in="SourceAlpha" result="hardAlpha" values="0 0 0 0 0 0 0 0 0 0 0 0 0 0 0 0 0 0 127 0"/><feOffset dy="2"/><feGaussianBlur stdDeviation="2"/><feComposite in2="hardAlpha" operator="out"/><feColorMatrix values="0 0 0 0 0 0 0 0 0 0 0 0 0 0 0 0 0 0 0.25 0"/><feBlend in2="BackgroundImageFix" result="effect1_dropShadow_141_2"/><feBlend in="SourceGraphic" in2="effect1_dropShadow_141_2" result="shape"/></filter><filter id="e" width="46.217" height="46.281" x="65.275" y="19.55" color-interpolation-filters="sRGB" filterUnits="userSpaceOnUse"><feFlood flood-opacity="0" result="BackgroundImageFix"/><feColorMatrix in="SourceAlpha" result="hardAlpha" values="0 0 0 0 0 0 0 0 0 0 0 0 0 0 0 0 0 0 127 0"/><feOffset dy="2"/><feGaussianBlur stdDeviation="2"/><feComposite in2="hardAlpha" operator="out"/><feColorMatrix values="0 0 0 0 0 0 0 0 0 0 0 0 0 0 0 0 0 0 0.25 0"/><feBlend in2="BackgroundImageFix" result="effect1_dropShadow_141_2"/><feBlend in="SourceGraphic" in2="effect1_dropShadow_141_2" result="shape"/></filter><filter id="f" width="79.04" height="93.605" x="15.721" y="18.114" color-interpolation-filters="sRGB" filterUnits="userSpaceOnUse"><feFlood flood-opacity="0" result="BackgroundImageFix"/><feColorMatrix in="SourceAlpha" result="hardAlpha" values="0 0 0 0 0 0 0 0 0 0 0 0 0 0 0 0 0 0 127 0"/><feOffset dy="2"/><feGaussianBlur stdDeviation="2"/><feComposite in2="hardAlpha" operator="out"/><feColorMatrix values="0 0 0 0 0 0 0 0 0 0 0 0 0 0 0 0 0 0 0.25 0"/><feBlend in2="BackgroundImageFix" result="effect1_dropShadow_141_2"/><feBlend in="SourceGraphic" in2="effect1_dropShadow_141_2" result="shape"/></filter><filter id="h" width="71.963" height="53.888" x="22.798" y="57.831" color-interpolation-filters="sRGB" filterUnits="userSpaceOnUse"><feFlood flood-opacity="0" result="BackgroundImageFix"/><feColorMatrix in="SourceAlpha" result="hardAlpha" values="0 0 0 0 0 0 0 0 0 0 0 0 0 0 0 0 0 0 127 0"/><feOffset dy="2"/><feGaussianBlur stdDeviation="2"/><feComposite in2="hardAlpha" operator="out"/><feColorMatrix values="0 0 0 0 0 0 0 0 0 0 0 0 0 0 0 0 0 0 0.25 0"/><feBlend in2="BackgroundImageFix" result="effect1_dropShadow_141_2"/><feBlend in="SourceGraphic" in2="effect1_dropShadow_141_2" result="shape"/></filter><filter id="i" width="62.857" height="62.857" x="32.572" y="34.571" color-interpolation-filters="sRGB" filterUnits="userSpaceOnUse"><feFlood flood-opacity="0" result="BackgroundImageFix"/><feColorMatrix in="SourceAlpha" result="hardAlpha" values="0 0 0 0 0 0 0 0 0 0 0 0 0 0 0 0 0 0 127 0"/><feOffset dy="2"/><feGaussianBlur stdDeviation="2"/><feComposite in2="hardAlpha" operator="out"/><feColorMatrix values="0 0 0 0 0 0 0 0 0 0 0 0 0 0 0 0 0 0 0.25 0"/><feBlend in2="BackgroundImageFix" result="effect1_dropShadow_141_2"/><feBlend in="SourceGraphic" in2="effect1_dropShadow_141_2" result="shape"/></filter><linearGradient id="a" x1="64" x2="64" y1="0" y2="128" gradientUnits="userSpaceOnUse"><stop stop-color="#FC801D"/><stop offset=".245" stop-color="#FE285B"/><stop offset=".51" stop-color="#FF318C"/><stop offset=".745" stop-color="#7557B2"/><stop offset="1" stop-color="#087CFA"/></linearGradient><linearGradient id="g" x1="33.115" x2="88.046" y1="40.329" y2="131.191" gradientUnits="userSpaceOnUse"><stop stop-color="#FE2857"/><stop offset=".08" stop-color="#FE295F"/><stop offset=".21" stop-color="#FF2D76"/><stop offset=".3" stop-color="#FF318C"/><stop offset=".429" stop-color="#EA3896"/><stop offset=".55" stop-color="#B248AE"/><stop offset=".79" stop-color="#5A63D6"/><stop offset="1" stop-color="#087CFA"/></linearGradient><clipPath id="c"><path fill="#fff" d="M16 16h96v96H16z"/></clipPath></defs></svg>