<svg xmlns="http://www.w3.org/2000/svg" width="128" height="128" fill="none"><rect width="128" height="128" fill="url(#a)" rx="32"/><rect width="128" height="128" fill="url(#b)" rx="32"/><g filter="url(#c)"><rect width="112" height="112" x="8" y="8" fill="#000" fill-opacity=".7" rx="24"/><g filter="url(#d)"><path fill="url(#e)" d="M51.561 77.888c1.64 3.288 23.265 3.254 24.886 0 1.62-3.25-9.104-22.767-12.442-22.771-3.34 0-14.084 19.482-12.444 22.77"/></g><g filter="url(#f)"><path fill="url(#g)" d="M26.509 94.606c4.936 9.912 70.11 9.798 74.992 0S74.061 26 64.006 26c-10.059 0-42.434 58.694-37.497 68.606m12.932-8.6c-3.235-6.495 17.98-44.952 24.569-44.952 6.59 0 27.769 38.527 24.568 44.951-3.199 6.425-45.902 6.495-49.137 0"/></g></g><defs><linearGradient id="a" x1="1432.28" x2="1257.52" y1="1744.61" y2="1747.54" gradientUnits="userSpaceOnUse"><stop stop-color="#FCFCFC"/><stop offset="1" stop-color="#D0D6DC"/></linearGradient><linearGradient id="b" x1="22.433" x2="128.564" y1="52.258" y2="113.531" gradientUnits="userSpaceOnUse"><stop stop-color="#AA5CC3"/><stop offset="1" stop-color="#00A4DC"/></linearGradient><linearGradient id="e" x1="39.319" x2="102.333" y1="57.027" y2="93.409" gradientUnits="userSpaceOnUse"><stop stop-color="#AA5CC3"/><stop offset="1" stop-color="#00A4DC"/></linearGradient><linearGradient id="g" x1="39.319" x2="102.334" y1="57.027" y2="93.409" gradientUnits="userSpaceOnUse"><stop stop-color="#AA5CC3"/><stop offset="1" stop-color="#00A4DC"/></linearGradient><filter id="c" width="112" height="116" x="8" y="8" color-interpolation-filters="sRGB" filterUnits="userSpaceOnUse"><feFlood flood-opacity="0" result="BackgroundImageFix"/><feBlend in="SourceGraphic" in2="BackgroundImageFix" result="shape"/><feColorMatrix in="SourceAlpha" result="hardAlpha" values="0 0 0 0 0 0 0 0 0 0 0 0 0 0 0 0 0 0 127 0"/><feOffset dy="4"/><feGaussianBlur stdDeviation="2"/><feComposite in2="hardAlpha" k2="-1" k3="1" operator="arithmetic"/><feColorMatrix values="0 0 0 0 0 0 0 0 0 0 0 0 0 0 0 0 0 0 0.25 0"/><feBlend in2="shape" result="effect1_innerShadow_98_243"/></filter><filter id="d" width="33.221" height="33.224" x="47.392" y="53.117" color-interpolation-filters="sRGB" filterUnits="userSpaceOnUse"><feFlood flood-opacity="0" result="BackgroundImageFix"/><feColorMatrix in="SourceAlpha" result="hardAlpha" values="0 0 0 0 0 0 0 0 0 0 0 0 0 0 0 0 0 0 127 0"/><feOffset dy="2"/><feGaussianBlur stdDeviation="2"/><feComposite in2="hardAlpha" operator="out"/><feColorMatrix values="0 0 0 0 0 0 0 0 0 0 0 0 0 0 0 0 0 0 0.25 0"/><feBlend in2="BackgroundImageFix" result="effect1_dropShadow_98_243"/><feBlend in="SourceGraphic" in2="effect1_dropShadow_98_243" result="shape"/></filter><filter id="f" width="84" height="83.998" x="22" y="24" color-interpolation-filters="sRGB" filterUnits="userSpaceOnUse"><feFlood flood-opacity="0" result="BackgroundImageFix"/><feColorMatrix in="SourceAlpha" result="hardAlpha" values="0 0 0 0 0 0 0 0 0 0 0 0 0 0 0 0 0 0 127 0"/><feOffset dy="2"/><feGaussianBlur stdDeviation="2"/><feComposite in2="hardAlpha" operator="out"/><feColorMatrix values="0 0 0 0 0 0 0 0 0 0 0 0 0 0 0 0 0 0 0.25 0"/><feBlend in2="BackgroundImageFix" result="effect1_dropShadow_98_243"/><feBlend in="SourceGraphic" in2="effect1_dropShadow_98_243" result="shape"/></filter></defs></svg>