<svg xmlns="http://www.w3.org/2000/svg" width="128" height="128" fill="none"><rect width="128" height="128" fill="url(#a)" rx="32"/><g filter="url(#b)"><rect width="112" height="112" x="8" y="8" fill="#000" fill-opacity=".7" rx="24"/><g clip-path="url(#c)" filter="url(#d)"><path fill="url(#e)" d="M66 46a18 18 0 1 1-36 0 18 18 0 0 1 36 0"/><path fill="url(#f)" d="M63.848 25.156c-9.714 0-19.428 3.722-26.872 11.164-14.886 14.886-14.886 38.856 0 53.742s38.856 14.886 53.742 0 14.886-38.856 0-53.742c-7.442-7.442-17.156-11.164-26.87-11.164"/><path fill="url(#g)" fill-rule="evenodd" d="m36.89 39.898 8.624-13.408 25.298 24.946c-12.88-4.274-15.274-4.358-33.294-3.286z" clip-rule="evenodd" opacity=".4"/><path fill="url(#h)" d="M40 21.062c-3.242 0-6.486.998-6 2.938 2 8 4 56 2 60-1.334 2.666-6 2-6 10 0 5.734 5.646 16 10 16 3.934-.016 10-10.266 10-16 0-8-4.666-7.334-6-10-2-4 0-52 2-60 .486-1.94-2.758-2.938-6-2.938m-1 2V26l2.25-2.876 1.812.376-2.376 2.876 2.376 3-1.812.562L39 26.75v2.876l-1.75.25v-6.688z"/><path fill="url(#i)" d="M66 46a18 18 0 1 1-36 0 18 18 0 0 1 36 0"/><path fill="url(#j)" d="M83.983 63.507A20.47 20.47 0 0 1 63.509 83.98a20.475 20.475 0 0 1-20.473-20.472 20.47 20.47 0 0 1 20.473-20.471 20.474 20.474 0 0 1 20.474 20.471"/><path fill="url(#k)" d="M58.1 72.06V54.434l15.1 8.692z"/><path fill="url(#l)" d="M62.85 52.36c-1.956.102-3.832.78-5.514 1.766.648 1.822 1.678 1.726 3.108.894 3.618-1.318 7.774.014 10.266 2.866 1.836-1.02 1.218-2.192-.218-3.12a11.34 11.34 0 0 0-7.642-2.406m-10 7.46c-1.738 4.588.042 9.988 3.858 12.926 1.642-1.374.806-2.32-.46-3.506-2.118-2.638-2.446-6.412-1.124-9.456-.77.084-2.276-1.57-2.274.036m21.038 2.744c-2.142-.258-.874 2.33-1.596 3.628-.56 2.164-2.088 3.982-3.93 5.236.664 1.996 1.752 1.742 2.914.386 2.554-2.338 3.77-5.93 3.494-9.382l-.882.134M59.632 72.88c-1.108 2 1.964 1.828 3.314 2.056 1.244.046 2.474-.126 3.676-.436.036-2.384-1.58-1.914-3.374-1.704-1.054.498-3.63-1.582-3.616.084" opacity=".052"/><path fill="url(#m)" d="M49.864 54.04c-1.692 2.342-2.648 5.118-3.072 7.962 2.69.94 3.534-.332 3.9-2.74 1.832-5.372 7.204-8.912 12.782-9.136.526-3.05-1.39-3.426-3.782-2.634-3.942.908-7.476 3.248-9.828 6.548m-.682 18.378c3.66 6.238 11.506 9.19 18.406 7.524-.058-3.156-1.918-3.072-4.45-2.714-4.986-.008-9.624-3.122-11.896-7.452-.616.96-3.908 1.162-2.06 2.642m22.606-21.614c-2.278 2.22 1.866 3.156 2.688 5.186 1.966 2.644 2.64 6.08 2.378 9.352 2.908 1.084 3.622-.402 3.138-2.988-.324-5.094-3.322-9.812-7.542-12.688l-.664 1.136m-1.34 25.904c1.274 3.122 3.914-.566 5.424-1.902 1.202-1.386 2.144-2.956 2.9-4.622-2.704-2.246-3.658.046-5.076 2.296-.404 1.672-5.172 2.704-3.246 4.23" opacity=".052"/><path fill="url(#n)" d="M44.08 86.66c.236.118 4.266 1.436 4.284 7.36.018 5.744-5.68 14-8.568 14.02-3.14.018-8.492-8.278-8.568-14.02-.074-5.48 4.048-7.206 4.284-7.36 2.918-1.676 5.788-1.696 8.568 0"/><path fill="#fff" d="M40 21.062c-3.242 0-6.486.998-6 2.938 2 8 4 56 2 60-.388 1.024.318.088.75-.25 1.876-5.024.662-51.85-1.312-59.75-.45-1.8 2.322-2.742 5.312-2.876-.254-.012-.494-.062-.75-.062" opacity=".36"/></g></g><defs><linearGradient id="a" x1="1432.28" x2="1257.52" y1="1744.61" y2="1747.54" gradientUnits="userSpaceOnUse"><stop stop-color="#FCFCFC"/><stop offset="1" stop-color="#D0D6DC"/></linearGradient><linearGradient id="e" x1="787.22" x2="835.64" y1="1060.48" y2="1062.54" gradientUnits="userSpaceOnUse"><stop stop-color="#fff"/><stop offset="1" stop-color="#DFE1E3"/></linearGradient><linearGradient id="f" x1="877.02" x2="773.16" y1="1061.98" y2="1063.72" gradientUnits="userSpaceOnUse"><stop stop-color="#FCFCFC"/><stop offset="1" stop-color="#E9EAEB"/></linearGradient><linearGradient id="g" x1="32.388" x2="49.416" y1="57.738" y2="58.858" gradientUnits="userSpaceOnUse"><stop/><stop offset="1" stop-opacity="0"/></linearGradient><linearGradient id="h" x1="40" x2="39.75" y1="19.172" y2="106.62" gradientUnits="userSpaceOnUse"><stop stop-color="#E0E0E0"/><stop offset=".125" stop-color="silver"/><stop offset=".66" stop-color="#9B9B9B"/><stop offset=".732" stop-color="#B3B3B3"/><stop offset="1" stop-color="#B1B1B1"/></linearGradient><linearGradient id="i" x1="792.68" x2="820.06" y1="1060.36" y2="1063.4" gradientUnits="userSpaceOnUse"><stop stop-color="#fff"/><stop offset="1" stop-color="#EFF0F1"/></linearGradient><linearGradient id="j" x1="49.046" x2="81.504" y1="49.011" y2="84.724" gradientUnits="userSpaceOnUse"><stop stop-color="#491309"/><stop offset="1" stop-color="#B6642D"/></linearGradient><linearGradient id="k" x1="48.592" x2="77.266" y1="47.742" y2="78.02" gradientUnits="userSpaceOnUse"><stop stop-color="#FEE3A8"/><stop offset="1" stop-color="#FCDD99" stop-opacity="0"/></linearGradient><linearGradient id="n" x1="42.494" x2="33.784" y1="100.02" y2="85.774" gradientUnits="userSpaceOnUse"><stop stop-color="#D6D6D6"/><stop offset="1" stop-color="#7A7A7A"/></linearGradient><radialGradient id="l" cx="0" cy="0" r="1" gradientTransform="translate(63.496 63.64)scale(11.314)" gradientUnits="userSpaceOnUse"><stop stop-color="#FCDD99"/><stop offset="1" stop-color="#FCDD99" stop-opacity="0"/></radialGradient><radialGradient id="m" cx="0" cy="0" r="1" gradientTransform="translate(63.462 63.77)scale(16.67)" gradientUnits="userSpaceOnUse"><stop stop-color="#FCDD99"/><stop offset="1" stop-color="#FCDD99" stop-opacity="0"/></radialGradient><filter id="b" width="112" height="116" x="8" y="8" color-interpolation-filters="sRGB" filterUnits="userSpaceOnUse"><feFlood flood-opacity="0" result="BackgroundImageFix"/><feBlend in="SourceGraphic" in2="BackgroundImageFix" result="shape"/><feColorMatrix in="SourceAlpha" result="hardAlpha" values="0 0 0 0 0 0 0 0 0 0 0 0 0 0 0 0 0 0 127 0"/><feOffset dy="4"/><feGaussianBlur stdDeviation="2"/><feComposite in2="hardAlpha" k2="-1" k3="1" operator="arithmetic"/><feColorMatrix values="0 0 0 0 0 0 0 0 0 0 0 0 0 0 0 0 0 0 0.25 0"/><feBlend in2="shape" result="effect1_innerShadow_98_190"/></filter><filter id="d" width="84.071" height="96.938" x="21.811" y="19.062" color-interpolation-filters="sRGB" filterUnits="userSpaceOnUse"><feFlood flood-opacity="0" result="BackgroundImageFix"/><feColorMatrix in="SourceAlpha" result="hardAlpha" values="0 0 0 0 0 0 0 0 0 0 0 0 0 0 0 0 0 0 127 0"/><feOffset dy="2"/><feGaussianBlur stdDeviation="2"/><feComposite in2="hardAlpha" operator="out"/><feColorMatrix values="0 0 0 0 0 0 0 0 0 0 0 0 0 0 0 0 0 0 0.25 0"/><feBlend in2="BackgroundImageFix" result="effect1_dropShadow_98_190"/><feBlend in="SourceGraphic" in2="effect1_dropShadow_98_190" result="shape"/></filter><clipPath id="c"><path fill="#fff" d="M16 16h96v96H16z"/></clipPath></defs></svg>