<svg xmlns="http://www.w3.org/2000/svg" width="128" height="128" fill="none"><rect width="128" height="128" fill="url(#a)" rx="32"/><g filter="url(#b)"><rect width="112" height="112" x="8" y="8" fill="#000" fill-opacity=".7" rx="24"/><g filter="url(#c)"><path fill="url(#d)" fill-rule="evenodd" d="M68 24H32a8 8 0 0 0-8 8v64a8 8 0 0 0 8 8h64a8 8 0 0 0 8-8V60z" clip-rule="evenodd"/></g><g filter="url(#e)"><path fill="#FAFAFA" d="M68 52a8 8 0 0 0 8 8h28L68 24z"/></g><g filter="url(#f)"><path fill="#97989A" d="M104 32a8 8 0 0 0-8-8H80l24 24z"/></g><mask id="g" width="40" height="40" x="44" y="60" maskUnits="userSpaceOnUse" style="mask-type:alpha"><path fill="#D9D9D9" d="M44 60h40v40H44z"/></mask><g fill-rule="evenodd" clip-rule="evenodd" mask="url(#g)"><path fill="url(#h)" d="M62.333 93.333h3.292l.583-4.416a9.3 9.3 0 0 0 2.396-.98 10 10 0 0 0 2.021-1.562l4.125 1.708 1.625-2.833-3.583-2.708q.208-.584.291-1.23a10.2 10.2 0 0 0 0-2.624 6 6 0 0 0-.291-1.23l3.583-2.708-1.625-2.833-4.125 1.75a9.3 9.3 0 0 0-2.02-1.605 9.4 9.4 0 0 0-2.397-.979l-.541-4.416h-3.292l-.583 4.416a9.4 9.4 0 0 0-2.396.98q-1.104.645-2.021 1.562l-4.125-1.708-1.625 2.833 3.583 2.667a7 7 0 0 0-.291 1.25q-.084.624-.084 1.333 0 .667.084 1.292.083.624.291 1.25l-3.583 2.708 1.625 2.833 4.125-1.75a9.3 9.3 0 0 0 2.02 1.605 9.3 9.3 0 0 0 2.397.979zm5.875-9.208q-1.709 1.708-4.125 1.708-2.458 0-4.145-1.708Q58.249 82.417 58.25 80q0-2.417 1.688-4.125 1.686-1.708 4.145-1.708 2.416 0 4.125 1.708T69.917 80t-1.709 4.125"/><path fill="url(#i)" d="M59.792 96.25q.458.417 1.083.417h6.25q.626 0 1.083-.417a1.66 1.66 0 0 0 .542-1.042l.5-3.875a8 8 0 0 0 1-.5q.5-.29.958-.625l3.542 1.5q.583.25 1.188.042.604-.208.937-.75l3.083-5.333q.333-.541.209-1.167a1.6 1.6 0 0 0-.625-1l-3.125-2.375q.083-.291.083-.562v-1.126q0-.27-.042-.562l3.125-2.375a1.6 1.6 0 0 0 .625-1A1.57 1.57 0 0 0 80 74.333l-3.083-5.375A1.64 1.64 0 0 0 76 68.23a1.62 1.62 0 0 0-1.167.063l-3.625 1.5q-.458-.333-.937-.625a6.3 6.3 0 0 0-1.021-.5l-.5-3.875a1.66 1.66 0 0 0-.542-1.042 1.56 1.56 0 0 0-1.083-.417h-6.25q-.626 0-1.083.417a1.66 1.66 0 0 0-.542 1.042l-.5 3.875a8 8 0 0 0-1 .5q-.5.292-.958.625l-3.625-1.5A1.62 1.62 0 0 0 52 68.229a1.64 1.64 0 0 0-.917.73L48 74.332q-.334.542-.208 1.167a1.6 1.6 0 0 0 .625 1l3.125 2.375a4 4 0 0 0-.042.563v1.124q0 .272.042.563L48.417 83.5a1.6 1.6 0 0 0-.625 1q-.125.626.208 1.167l3.083 5.375q.334.54.917.729.584.187 1.167-.063l3.625-1.5q.458.334.937.625.48.293 1.021.5l.5 3.875q.084.625.542 1.042m5.833-2.917h-3.292l-.541-4.416a9.3 9.3 0 0 1-2.396-.98 9.3 9.3 0 0 1-2.021-1.604l-4.125 1.75-1.625-2.833 3.583-2.708a7 7 0 0 1-.291-1.25A10 10 0 0 1 54.833 80q0-.709.084-1.333.083-.626.291-1.25l-3.583-2.667 1.625-2.833 4.125 1.708a10 10 0 0 1 2.02-1.562 9.4 9.4 0 0 1 2.397-.98l.583-4.416h3.292l.541 4.416a9.4 9.4 0 0 1 2.396.98q1.104.645 2.021 1.604l4.125-1.75 1.625 2.833-3.583 2.708q.208.584.291 1.23a10.2 10.2 0 0 1 0 2.624q-.083.646-.291 1.23l3.583 2.708-1.625 2.833-4.125-1.708a10 10 0 0 1-2.02 1.563 9.3 9.3 0 0 1-2.397.979z"/></g></g><defs><linearGradient id="a" x1="128" x2="0" y1="0" y2="128" gradientUnits="userSpaceOnUse"><stop stop-color="#97989A"/><stop offset="1" stop-color="#505050"/></linearGradient><linearGradient id="d" x1="64" x2="64" y1="24" y2="104" gradientUnits="userSpaceOnUse"><stop stop-color="#FAFAFA"/><stop offset="1" stop-color="#D5D5D5"/></linearGradient><linearGradient id="h" x1="64" x2="64" y1="63.333" y2="96.667" gradientUnits="userSpaceOnUse"><stop stop-color="#34C8FF"/><stop offset="1" stop-color="#2192E1"/></linearGradient><linearGradient id="i" x1="64" x2="64" y1="63.333" y2="96.667" gradientUnits="userSpaceOnUse"><stop stop-color="#34C8FF"/><stop offset="1" stop-color="#2192E1"/></linearGradient><filter id="b" width="112" height="116" x="8" y="8" color-interpolation-filters="sRGB" filterUnits="userSpaceOnUse"><feFlood flood-opacity="0" result="BackgroundImageFix"/><feBlend in="SourceGraphic" in2="BackgroundImageFix" result="shape"/><feColorMatrix in="SourceAlpha" result="hardAlpha" values="0 0 0 0 0 0 0 0 0 0 0 0 0 0 0 0 0 0 127 0"/><feOffset dy="4"/><feGaussianBlur stdDeviation="2"/><feComposite in2="hardAlpha" k2="-1" k3="1" operator="arithmetic"/><feColorMatrix values="0 0 0 0 0 0 0 0 0 0 0 0 0 0 0 0 0 0 0.25 0"/><feBlend in2="shape" result="effect1_innerShadow_89_676"/></filter><filter id="c" width="88" height="88" x="20" y="22" color-interpolation-filters="sRGB" filterUnits="userSpaceOnUse"><feFlood flood-opacity="0" result="BackgroundImageFix"/><feColorMatrix in="SourceAlpha" result="hardAlpha" values="0 0 0 0 0 0 0 0 0 0 0 0 0 0 0 0 0 0 127 0"/><feOffset dy="2"/><feGaussianBlur stdDeviation="2"/><feComposite in2="hardAlpha" operator="out"/><feColorMatrix values="0 0 0 0 0 0 0 0 0 0 0 0 0 0 0 0 0 0 0.25 0"/><feBlend in2="BackgroundImageFix" result="effect1_dropShadow_89_676"/><feBlend in="SourceGraphic" in2="effect1_dropShadow_89_676" result="shape"/></filter><filter id="e" width="44" height="44" x="64.001" y="22" color-interpolation-filters="sRGB" filterUnits="userSpaceOnUse"><feFlood flood-opacity="0" result="BackgroundImageFix"/><feColorMatrix in="SourceAlpha" result="hardAlpha" values="0 0 0 0 0 0 0 0 0 0 0 0 0 0 0 0 0 0 127 0"/><feOffset dy="2"/><feGaussianBlur stdDeviation="2"/><feComposite in2="hardAlpha" operator="out"/><feColorMatrix values="0 0 0 0 0 0 0 0 0 0 0 0 0 0 0 0 0 0 0.25 0"/><feBlend in2="BackgroundImageFix" result="effect1_dropShadow_89_676"/><feBlend in="SourceGraphic" in2="effect1_dropShadow_89_676" result="shape"/></filter><filter id="f" width="32" height="32" x="76.001" y="22" color-interpolation-filters="sRGB" filterUnits="userSpaceOnUse"><feFlood flood-opacity="0" result="BackgroundImageFix"/><feColorMatrix in="SourceAlpha" result="hardAlpha" values="0 0 0 0 0 0 0 0 0 0 0 0 0 0 0 0 0 0 127 0"/><feOffset dy="2"/><feGaussianBlur stdDeviation="2"/><feComposite in2="hardAlpha" operator="out"/><feColorMatrix values="0 0 0 0 0 0 0 0 0 0 0 0 0 0 0 0 0 0 0.25 0"/><feBlend in2="BackgroundImageFix" result="effect1_dropShadow_89_676"/><feBlend in="SourceGraphic" in2="effect1_dropShadow_89_676" result="shape"/></filter></defs></svg>