<svg xmlns="http://www.w3.org/2000/svg" width="128" height="128" fill="none"><rect width="128" height="128" fill="url(#a)" rx="32"/><g filter="url(#b)"><rect width="112" height="112" x="8" y="8" fill="#000" fill-opacity=".7" rx="24"/><g filter="url(#c)"><path fill="url(#d)" fill-rule="evenodd" d="M68 29H32a8 8 0 0 0-8 8v54a8 8 0 0 0 8 8h64a8 8 0 0 0 8-8V65z" clip-rule="evenodd"/></g><path stroke="#fff" stroke-width="4" d="M40 77v6a4 4 0 0 0 4 4h12M40 77h16m-16 0V67m16 10v10m0-10h16m-16 0V67m0 20h16m0-10v10m0-10h16m-16 0V67m0 20h12a4 4 0 0 0 4-4v-6m0 0V67m-48 0h16m-16 0v-6a4 4 0 0 1 4-4h12m0 10h16m-16 0V57m16 10h16m-16 0V57m16 10v-6a4 4 0 0 0-4-4H72m-16 0h16"/><g filter="url(#e)"><path fill="#97989A" d="M104 37a8 8 0 0 0-8-8H80l24 24z"/></g></g><defs><filter id="b" width="112" height="116" x="8" y="8" color-interpolation-filters="sRGB" filterUnits="userSpaceOnUse"><feFlood flood-opacity="0" result="BackgroundImageFix"/><feBlend in="SourceGraphic" in2="BackgroundImageFix" result="shape"/><feColorMatrix in="SourceAlpha" result="hardAlpha" values="0 0 0 0 0 0 0 0 0 0 0 0 0 0 0 0 0 0 127 0"/><feOffset dy="4"/><feGaussianBlur stdDeviation="2"/><feComposite in2="hardAlpha" k2="-1" k3="1" operator="arithmetic"/><feColorMatrix values="0 0 0 0 0 0 0 0 0 0 0 0 0 0 0 0 0 0 0.25 0"/><feBlend in2="shape" result="effect1_innerShadow_89_647"/></filter><filter id="c" width="88" height="78" x="20" y="27" color-interpolation-filters="sRGB" filterUnits="userSpaceOnUse"><feFlood flood-opacity="0" result="BackgroundImageFix"/><feColorMatrix in="SourceAlpha" result="hardAlpha" values="0 0 0 0 0 0 0 0 0 0 0 0 0 0 0 0 0 0 127 0"/><feOffset dy="2"/><feGaussianBlur stdDeviation="2"/><feComposite in2="hardAlpha" operator="out"/><feColorMatrix values="0 0 0 0 0 0 0 0 0 0 0 0 0 0 0 0 0 0 0.25 0"/><feBlend in2="BackgroundImageFix" result="effect1_dropShadow_89_647"/><feBlend in="SourceGraphic" in2="effect1_dropShadow_89_647" result="shape"/></filter><filter id="e" width="32" height="32" x="76.001" y="27" color-interpolation-filters="sRGB" filterUnits="userSpaceOnUse"><feFlood flood-opacity="0" result="BackgroundImageFix"/><feColorMatrix in="SourceAlpha" result="hardAlpha" values="0 0 0 0 0 0 0 0 0 0 0 0 0 0 0 0 0 0 127 0"/><feOffset dy="2"/><feGaussianBlur stdDeviation="2"/><feComposite in2="hardAlpha" operator="out"/><feColorMatrix values="0 0 0 0 0 0 0 0 0 0 0 0 0 0 0 0 0 0 0.25 0"/><feBlend in2="BackgroundImageFix" result="effect1_dropShadow_89_647"/><feBlend in="SourceGraphic" in2="effect1_dropShadow_89_647" result="shape"/></filter><linearGradient id="a" x1="128" x2="0" y1="0" y2="128" gradientUnits="userSpaceOnUse"><stop stop-color="#75EA53"/><stop offset="1" stop-color="#068540"/></linearGradient><linearGradient id="d" x1="104" x2="24" y1="29" y2="109" gradientUnits="userSpaceOnUse"><stop stop-color="#75EA53"/><stop offset="1" stop-color="#068540"/></linearGradient></defs></svg>