<svg xmlns="http://www.w3.org/2000/svg" width="128" height="128" fill="none"><rect width="128" height="128" fill="url(#a)" rx="32"/><g filter="url(#b)"><rect width="112" height="112" x="8" y="8" fill="#000" fill-opacity=".7" rx="24"/><g filter="url(#c)"><path fill="url(#d)" fill-rule="evenodd" d="M63 24H37a8 8 0 0 0-8 8v64a8 8 0 0 0 8 8h54a8 8 0 0 0 8-8V60z" clip-rule="evenodd"/></g><g filter="url(#e)"><path fill="#97989A" d="M99 32a8 8 0 0 0-8-8H75l24 24z"/></g><path stroke="#fff" stroke-linecap="round" stroke-linejoin="round" stroke-width="4" d="M39 70h50m-50 8h50m-50 8h40"/><path stroke="#fff" stroke-linecap="round" stroke-linejoin="round" stroke-opacity=".7" stroke-width="4" d="M43 58h-3a1 1 0 0 1-1-1V43a1 1 0 0 1 1-1h22a1 1 0 0 1 1 1v14a1 1 0 0 1-1 1h-8m-11 0 2.5-3.332a1 1 0 0 1 1.246-.295L54 58m-11 0h11"/><circle cx="52" cy="50" r="2" fill="#fff" fill-opacity=".7"/></g><defs><filter id="b" width="112" height="116" x="8" y="8" color-interpolation-filters="sRGB" filterUnits="userSpaceOnUse"><feFlood flood-opacity="0" result="BackgroundImageFix"/><feBlend in="SourceGraphic" in2="BackgroundImageFix" result="shape"/><feColorMatrix in="SourceAlpha" result="hardAlpha" values="0 0 0 0 0 0 0 0 0 0 0 0 0 0 0 0 0 0 127 0"/><feOffset dy="4"/><feGaussianBlur stdDeviation="2"/><feComposite in2="hardAlpha" k2="-1" k3="1" operator="arithmetic"/><feColorMatrix values="0 0 0 0 0 0 0 0 0 0 0 0 0 0 0 0 0 0 0.25 0"/><feBlend in2="shape" result="effect1_innerShadow_89_638"/></filter><filter id="c" width="78" height="88" x="25" y="22" color-interpolation-filters="sRGB" filterUnits="userSpaceOnUse"><feFlood flood-opacity="0" result="BackgroundImageFix"/><feColorMatrix in="SourceAlpha" result="hardAlpha" values="0 0 0 0 0 0 0 0 0 0 0 0 0 0 0 0 0 0 127 0"/><feOffset dy="2"/><feGaussianBlur stdDeviation="2"/><feComposite in2="hardAlpha" operator="out"/><feColorMatrix values="0 0 0 0 0 0 0 0 0 0 0 0 0 0 0 0 0 0 0.25 0"/><feBlend in2="BackgroundImageFix" result="effect1_dropShadow_89_638"/><feBlend in="SourceGraphic" in2="effect1_dropShadow_89_638" result="shape"/></filter><filter id="e" width="32" height="32" x="71.001" y="22" color-interpolation-filters="sRGB" filterUnits="userSpaceOnUse"><feFlood flood-opacity="0" result="BackgroundImageFix"/><feColorMatrix in="SourceAlpha" result="hardAlpha" values="0 0 0 0 0 0 0 0 0 0 0 0 0 0 0 0 0 0 127 0"/><feOffset dy="2"/><feGaussianBlur stdDeviation="2"/><feComposite in2="hardAlpha" operator="out"/><feColorMatrix values="0 0 0 0 0 0 0 0 0 0 0 0 0 0 0 0 0 0 0.25 0"/><feBlend in2="BackgroundImageFix" result="effect1_dropShadow_89_638"/><feBlend in="SourceGraphic" in2="effect1_dropShadow_89_638" result="shape"/></filter><linearGradient id="a" x1="128" x2="0" y1="0" y2="128" gradientUnits="userSpaceOnUse"><stop stop-color="#1FCAF8"/><stop offset="1" stop-color="#0D44B1"/></linearGradient><linearGradient id="d" x1="99" x2="19" y1="24" y2="104" gradientUnits="userSpaceOnUse"><stop stop-color="#1FCAF8"/><stop offset="1" stop-color="#0D44B1"/></linearGradient></defs></svg>