<svg xmlns="http://www.w3.org/2000/svg" width="128" height="128" fill="none"><rect width="128" height="128" fill="url(#a)" rx="32"/><g filter="url(#b)"><rect width="112" height="112" x="8" y="8" fill="#000" fill-opacity=".7" rx="24"/><g filter="url(#c)"><path fill="url(#d)" fill-rule="evenodd" d="M68 24H32a8 8 0 0 0-8 8v64a8 8 0 0 0 8 8h64a8 8 0 0 0 8-8V60z" clip-rule="evenodd"/></g><g filter="url(#e)"><path fill="#97989A" d="M104 32a8 8 0 0 0-8-8H80l24 24z"/></g><path fill="#fff" d="M88 78c0 4.418-10.745 8-24 8s-24-3.582-24-8v8c0 4.418 10.745 8 24 8s24-3.582 24-8z"/><path fill="#fff" d="M88 67c0 4.418-10.745 8-24 8s-24-3.582-24-8v8c0 4.418 10.745 8 24 8s24-3.582 24-8z"/><path fill="#fff" d="M88 56c0 4.418-10.745 8-24 8s-24-3.582-24-8v8c0 4.418 10.745 8 24 8s24-3.582 24-8z"/><path fill="#E6E6E6" d="M64 64c13.255 0 24-3.582 24-8s-10.745-8-24-8-24 3.582-24 8 10.745 8 24 8"/></g><defs><filter id="b" width="112" height="116" x="8" y="8" color-interpolation-filters="sRGB" filterUnits="userSpaceOnUse"><feFlood flood-opacity="0" result="BackgroundImageFix"/><feBlend in="SourceGraphic" in2="BackgroundImageFix" result="shape"/><feColorMatrix in="SourceAlpha" result="hardAlpha" values="0 0 0 0 0 0 0 0 0 0 0 0 0 0 0 0 0 0 127 0"/><feOffset dy="4"/><feGaussianBlur stdDeviation="2"/><feComposite in2="hardAlpha" k2="-1" k3="1" operator="arithmetic"/><feColorMatrix values="0 0 0 0 0 0 0 0 0 0 0 0 0 0 0 0 0 0 0.25 0"/><feBlend in2="shape" result="effect1_innerShadow_89_1215"/></filter><filter id="c" width="88" height="88" x="20" y="22" color-interpolation-filters="sRGB" filterUnits="userSpaceOnUse"><feFlood flood-opacity="0" result="BackgroundImageFix"/><feColorMatrix in="SourceAlpha" result="hardAlpha" values="0 0 0 0 0 0 0 0 0 0 0 0 0 0 0 0 0 0 127 0"/><feOffset dy="2"/><feGaussianBlur stdDeviation="2"/><feComposite in2="hardAlpha" operator="out"/><feColorMatrix values="0 0 0 0 0 0 0 0 0 0 0 0 0 0 0 0 0 0 0.25 0"/><feBlend in2="BackgroundImageFix" result="effect1_dropShadow_89_1215"/><feBlend in="SourceGraphic" in2="effect1_dropShadow_89_1215" result="shape"/></filter><filter id="e" width="32" height="32" x="76.001" y="22" color-interpolation-filters="sRGB" filterUnits="userSpaceOnUse"><feFlood flood-opacity="0" result="BackgroundImageFix"/><feColorMatrix in="SourceAlpha" result="hardAlpha" values="0 0 0 0 0 0 0 0 0 0 0 0 0 0 0 0 0 0 127 0"/><feOffset dy="2"/><feGaussianBlur stdDeviation="2"/><feComposite in2="hardAlpha" operator="out"/><feColorMatrix values="0 0 0 0 0 0 0 0 0 0 0 0 0 0 0 0 0 0 0.25 0"/><feBlend in2="BackgroundImageFix" result="effect1_dropShadow_89_1215"/><feBlend in="SourceGraphic" in2="effect1_dropShadow_89_1215" result="shape"/></filter><linearGradient id="a" x1="128" x2="0" y1="0" y2="128" gradientUnits="userSpaceOnUse"><stop stop-color="#F353FB"/><stop offset="1" stop-color="#7C26AD"/></linearGradient><linearGradient id="d" x1="104" x2="24" y1="24" y2="104" gradientUnits="userSpaceOnUse"><stop stop-color="#F353FB"/><stop offset="1" stop-color="#7C26AD"/></linearGradient></defs></svg>