<svg xmlns="http://www.w3.org/2000/svg" width="128" height="128" fill="none"><rect width="128" height="128" fill="url(#a)" rx="32"/><g filter="url(#b)"><rect width="112" height="112" x="8" y="8" fill="#000" fill-opacity=".7" rx="24"/><g filter="url(#c)"><path fill="url(#d)" fill-rule="evenodd" d="M68 34H32a8 8 0 0 0-8 8v44a8 8 0 0 0 8 8h64a8 8 0 0 0 8-8V70z" clip-rule="evenodd"/></g><g filter="url(#e)"><path fill="#97989A" d="M104 42a8 8 0 0 0-8-8H80l24 24z"/></g><path fill="#fff" fill-rule="evenodd" d="M78 44H41a2 2 0 1 0 0 4h41z" clip-rule="evenodd"/><rect width="4" height="4" x="30" y="62" fill="#fff" rx="2"/><rect width="40" height="4" x="38" y="62" fill="#fff" rx="2"/><rect width="4" height="4" x="30" y="70" fill="#fff" rx="2"/><rect width="32" height="4" x="38" y="70" fill="#fff" rx="2"/><rect width="4" height="4" x="30" y="78" fill="#fff" rx="2"/><rect width="37" height="4" x="38" y="78" fill="#fff" rx="2"/></g><defs><filter id="b" width="112" height="116" x="8" y="8" color-interpolation-filters="sRGB" filterUnits="userSpaceOnUse"><feFlood flood-opacity="0" result="BackgroundImageFix"/><feBlend in="SourceGraphic" in2="BackgroundImageFix" result="shape"/><feColorMatrix in="SourceAlpha" result="hardAlpha" values="0 0 0 0 0 0 0 0 0 0 0 0 0 0 0 0 0 0 127 0"/><feOffset dy="4"/><feGaussianBlur stdDeviation="2"/><feComposite in2="hardAlpha" k2="-1" k3="1" operator="arithmetic"/><feColorMatrix values="0 0 0 0 0 0 0 0 0 0 0 0 0 0 0 0 0 0 0.25 0"/><feBlend in2="shape" result="effect1_innerShadow_89_694"/></filter><filter id="c" width="88" height="68" x="20" y="32" color-interpolation-filters="sRGB" filterUnits="userSpaceOnUse"><feFlood flood-opacity="0" result="BackgroundImageFix"/><feColorMatrix in="SourceAlpha" result="hardAlpha" values="0 0 0 0 0 0 0 0 0 0 0 0 0 0 0 0 0 0 127 0"/><feOffset dy="2"/><feGaussianBlur stdDeviation="2"/><feComposite in2="hardAlpha" operator="out"/><feColorMatrix values="0 0 0 0 0 0 0 0 0 0 0 0 0 0 0 0 0 0 0.25 0"/><feBlend in2="BackgroundImageFix" result="effect1_dropShadow_89_694"/><feBlend in="SourceGraphic" in2="effect1_dropShadow_89_694" result="shape"/></filter><filter id="e" width="32" height="32" x="76.001" y="32" color-interpolation-filters="sRGB" filterUnits="userSpaceOnUse"><feFlood flood-opacity="0" result="BackgroundImageFix"/><feColorMatrix in="SourceAlpha" result="hardAlpha" values="0 0 0 0 0 0 0 0 0 0 0 0 0 0 0 0 0 0 127 0"/><feOffset dy="2"/><feGaussianBlur stdDeviation="2"/><feComposite in2="hardAlpha" operator="out"/><feColorMatrix values="0 0 0 0 0 0 0 0 0 0 0 0 0 0 0 0 0 0 0.25 0"/><feBlend in2="BackgroundImageFix" result="effect1_dropShadow_89_694"/><feBlend in="SourceGraphic" in2="effect1_dropShadow_89_694" result="shape"/></filter><linearGradient id="a" x1="128" x2="0" y1="0" y2="128" gradientUnits="userSpaceOnUse"><stop stop-color="#F79740"/><stop offset="1" stop-color="#D21E10"/></linearGradient><linearGradient id="d" x1="104" x2="46.4" y1="34" y2="110.8" gradientUnits="userSpaceOnUse"><stop stop-color="#F79740"/><stop offset="1" stop-color="#D21E10"/></linearGradient></defs></svg>