<svg xmlns="http://www.w3.org/2000/svg" width="128" height="128" fill="none"><rect width="128" height="128" fill="url(#a)" rx="32"/><g filter="url(#b)"><rect width="112" height="112" x="8" y="8" fill="#000" fill-opacity=".7" rx="24"/><g clip-path="url(#c)" filter="url(#d)"><path fill="#08A7E6" d="M30.107 33.722c3.48 12.343 1.938 27.786 75.194 4.415l3.885 35.52c.688 6.288-4.215 11.863-10.993 12.498C80.581 52.601 40.46 57.256 23 81.741l-3.886-35.52c-.688-6.289 4.215-11.863 10.993-12.499"/><path fill="#322374" d="m30.107 33.722 61.717-5.788c6.778-.636 12.789 3.915 13.476 10.203-37.413 9.18-39.943 34.02-7.107 48.018l-61.717 5.789C29.698 92.58 23.688 88.029 23 81.74c42.988-13.512 37.985-32.189 7.107-48.019"/><path fill="#fff" d="M99.412 33.623h-70.74c-3.363 0-6.09 2.719-6.09 6.072v41.642c0 3.353 2.727 6.072 6.09 6.072h70.74c3.363 0 6.089-2.719 6.089-6.072V39.695c0-3.353-2.726-6.072-6.089-6.072"/><path fill="#fff" d="M82.404 87.38c0-2.947 1.174-5.773 3.263-7.857a11.16 11.16 0 0 1 7.876-3.256 11.16 11.16 0 0 1 7.879 3.25 11.1 11.1 0 0 1 3.27 7.853 11.1 11.1 0 0 1-3.254 7.86 11.16 11.16 0 0 1-7.872 3.265 11.16 11.16 0 0 1-7.883-3.24 11.1 11.1 0 0 1-3.28-7.85"/><path stroke="#322374" stroke-linecap="round" stroke-linejoin="round" stroke-miterlimit="0" stroke-width="2.667" d="M82.404 87.38c0-2.947 1.174-5.773 3.263-7.857a11.16 11.16 0 0 1 7.876-3.256 11.16 11.16 0 0 1 7.879 3.25 11.1 11.1 0 0 1 3.27 7.853 11.1 11.1 0 0 1-3.254 7.86 11.16 11.16 0 0 1-7.872 3.265 11.16 11.16 0 0 1-7.883-3.24 11.1 11.1 0 0 1-3.28-7.85"/><path fill="#000" fill-rule="evenodd" d="m88.991 80.182 13.177 7.587-13.201 7.184z" clip-rule="evenodd"/></g></g><defs><filter id="b" width="112" height="116" x="8" y="8" color-interpolation-filters="sRGB" filterUnits="userSpaceOnUse"><feFlood flood-opacity="0" result="BackgroundImageFix"/><feBlend in="SourceGraphic" in2="BackgroundImageFix" result="shape"/><feColorMatrix in="SourceAlpha" result="hardAlpha" values="0 0 0 0 0 0 0 0 0 0 0 0 0 0 0 0 0 0 127 0"/><feOffset dy="4"/><feGaussianBlur stdDeviation="2"/><feComposite in2="hardAlpha" k2="-1" k3="1" operator="arithmetic"/><feColorMatrix values="0 0 0 0 0 0 0 0 0 0 0 0 0 0 0 0 0 0 0.25 0"/><feBlend in2="shape" result="effect1_innerShadow_98_287"/></filter><filter id="d" width="98.201" height="79.954" x="15.05" y="25.875" color-interpolation-filters="sRGB" filterUnits="userSpaceOnUse"><feFlood flood-opacity="0" result="BackgroundImageFix"/><feColorMatrix in="SourceAlpha" result="hardAlpha" values="0 0 0 0 0 0 0 0 0 0 0 0 0 0 0 0 0 0 127 0"/><feOffset dy="2"/><feGaussianBlur stdDeviation="2"/><feComposite in2="hardAlpha" operator="out"/><feColorMatrix values="0 0 0 0 0 0 0 0 0 0 0 0 0 0 0 0 0 0 0.25 0"/><feBlend in2="BackgroundImageFix" result="effect1_dropShadow_98_287"/><feBlend in="SourceGraphic" in2="effect1_dropShadow_98_287" result="shape"/></filter><linearGradient id="a" x1="26.5" x2="126.498" y1="99" y2="20.497" gradientUnits="userSpaceOnUse"><stop stop-color="#322374"/><stop offset="1" stop-color="#08A7E6"/></linearGradient><clipPath id="c"><path fill="#fff" d="M16 23h96v82H16z"/></clipPath></defs></svg>