<svg xmlns="http://www.w3.org/2000/svg" width="128" height="128" fill="none"><rect width="48" height="88" x="80" y="20" fill="#604029" rx="8"/><rect width="32" height="32" x="88" y="68" fill="#111" rx="16"/><rect width="24" height="24" x="92" y="72" fill="#777" rx="12"/><circle cx="104" cy="84" r="4" fill="#111"/><rect width="32" height="32" x="88" y="28" fill="#111" rx="16"/><rect width="24" height="24" x="92" y="32" fill="#777" rx="12"/><circle cx="104" cy="44" r="4" fill="#111"/><rect width="48" height="88" y="20" fill="#604029" rx="8"/><rect width="32" height="32" x="8" y="68" fill="#111" rx="16"/><rect width="24" height="24" x="12" y="72" fill="#777" rx="12"/><circle cx="24" cy="84" r="4" fill="#111"/><rect width="32" height="32" x="8" y="28" fill="#111" rx="16"/><rect width="24" height="24" x="12" y="32" fill="#777" rx="12"/><circle cx="24" cy="44" r="4" fill="#111"/></svg>