<svg xmlns="http://www.w3.org/2000/svg" width="128" height="128" fill="none"><rect width="128" height="128" fill="url(#a)" rx="32"/><g filter="url(#b)"><rect width="112" height="112" x="8" y="8" fill="#000" fill-opacity=".7" rx="24"/><g clip-path="url(#c)"><path fill="#fff" d="m28.814 27.45 44.266-3.27c5.438-.466 6.834-.151 10.254 2.334l14.13 9.955c2.33 1.712 3.106 2.178 3.106 4.042v54.594c0 3.422-1.242 5.446-5.592 5.755l-51.404 3.113c-3.264.155-4.819-.312-6.528-2.49L26.64 87.952c-1.866-2.49-2.64-4.355-2.64-6.534V32.89c0-2.797 1.242-5.13 4.814-5.44"/><g filter="url(#d)"><path fill="#000" fill-rule="evenodd" d="m73.08 24.181-44.266 3.27C25.242 27.76 24 30.093 24 32.89v48.527c0 2.178.774 4.042 2.64 6.534l10.406 13.53c1.71 2.179 3.264 2.646 6.528 2.491l51.405-3.112c4.347-.31 5.592-2.334 5.592-5.755V40.512c0-1.768-.698-2.278-2.754-3.787l-14.483-10.21c-3.419-2.486-4.816-2.8-10.254-2.335zM44.736 39.618c-4.198.282-5.15.346-7.534-1.592l-6.06-4.82c-.616-.625-.307-1.403 1.245-1.558l42.555-3.11c3.573-.312 5.434.934 6.832 2.022l7.298 5.288c.312.157 1.088 1.088.154 1.088L45.28 39.58zM39.842 94.64V48.293c0-2.024.622-2.957 2.483-3.114L92.8 42.224c1.712-.155 2.486.933 2.486 2.954v46.038c0 2.024-.312 3.736-3.107 3.89l-48.301 2.8c-2.795.154-4.035-.776-4.035-3.266m47.68-43.862c.31 1.4 0 2.8-1.4 2.96l-2.328.462v34.218c-2.021 1.088-3.882 1.71-5.437 1.71-2.486 0-3.107-.779-4.968-3.11L58.165 63.066V86.24l4.816 1.09s0 2.8-3.886 2.8l-10.712.622c-.312-.624 0-2.179 1.086-2.488l2.797-.776v-30.64l-3.882-.315c-.312-1.4.464-3.421 2.64-3.578l11.494-.774 15.84 24.262V54.979l-4.038-.464c-.312-1.715.93-2.96 2.482-3.112z" clip-rule="evenodd"/></g></g></g><defs><filter id="b" width="112" height="116" x="8" y="8" color-interpolation-filters="sRGB" filterUnits="userSpaceOnUse"><feFlood flood-opacity="0" result="BackgroundImageFix"/><feBlend in="SourceGraphic" in2="BackgroundImageFix" result="shape"/><feColorMatrix in="SourceAlpha" result="hardAlpha" values="0 0 0 0 0 0 0 0 0 0 0 0 0 0 0 0 0 0 127 0"/><feOffset dy="4"/><feGaussianBlur stdDeviation="2"/><feComposite in2="hardAlpha" k2="-1" k3="1" operator="arithmetic"/><feColorMatrix values="0 0 0 0 0 0 0 0 0 0 0 0 0 0 0 0 0 0 0.25 0"/><feBlend in2="shape" result="effect1_innerShadow_165_16"/></filter><filter id="d" width="84.571" height="88.001" x="20" y="21.999" color-interpolation-filters="sRGB" filterUnits="userSpaceOnUse"><feFlood flood-opacity="0" result="BackgroundImageFix"/><feColorMatrix in="SourceAlpha" result="hardAlpha" values="0 0 0 0 0 0 0 0 0 0 0 0 0 0 0 0 0 0 127 0"/><feOffset dy="2"/><feGaussianBlur stdDeviation="2"/><feComposite in2="hardAlpha" operator="out"/><feColorMatrix values="0 0 0 0 0 0 0 0 0 0 0 0 0 0 0 0 0 0 0.25 0"/><feBlend in2="BackgroundImageFix" result="effect1_dropShadow_165_16"/><feBlend in="SourceGraphic" in2="effect1_dropShadow_165_16" result="shape"/></filter><linearGradient id="a" x1="64" x2="64" y1="0" y2="128" gradientUnits="userSpaceOnUse"><stop stop-color="#fff"/><stop offset="1" stop-color="#DFDFDF"/></linearGradient><clipPath id="c"><path fill="#fff" d="M24 24h80v80H24z"/></clipPath></defs></svg>