<svg xmlns="http://www.w3.org/2000/svg" width="128" height="128" fill="none"><rect width="128" height="128" fill="url(#a)" rx="32"/><g filter="url(#b)"><rect width="112" height="112" x="8" y="8" fill="#000" fill-opacity=".7" rx="24"/><g clip-path="url(#c)" filter="url(#d)"><path fill="#6C31E3" d="M87.65 105.144c-.59 4.38-4.876 7.802-9.135 6.62-6.07-1.672-13.097-4.279-19.42-4.765l-9.69-.736a6.4 6.4 0 0 1-4.132-1.923L28.574 87.146a6.39 6.39 0 0 1-1.246-7.07s10.325-22.69 10.709-23.87c.383-1.18 1.79-11.47 2.624-17a6.4 6.4 0 0 1 2.047-3.798L62.46 17.64a6.395 6.395 0 0 1 9.3.799l16.595 21.077c.939 1.193 1.42 2.675 1.427 4.193.019 3.993.348 12.192 2.556 17.472 2.148 5.137 6.09 10.684 8.151 13.414.791 1.047.912 2.464.244 3.594-1.454 2.461-4.327 7.188-8.395 13.252-2.804 4.181-4.103 9.35-4.689 13.703"/><path fill="url(#e)" d="M47.072 105.64c7.755-15.743 7.538-27.022 4.239-35.071-3.037-7.407-8.685-12.08-13.138-14.979q-.141.631-.405 1.22l-10.44 23.266a6.39 6.39 0 0 0 1.246 7.07l16.698 17.194c.524.54 1.134.978 1.8 1.3"/><path fill="url(#f)" d="M78.517 111.762c4.258 1.181 8.544-2.24 9.134-6.62.507-3.771 1.55-8.153 3.642-11.975-4.8-10.332-10.604-15.69-16.967-18.065-6.735-2.513-14.096-1.685-21.555.127 1.668 7.587.67 17.497-5.69 30.41.724.35 1.514.564 2.33.622 0 0 4.589.386 10.046.773 5.458.386 13.58 3.208 19.06 4.728"/><path fill="url(#g)" d="M68.175 73.686c2.096.219 4.15.67 6.149 1.416 6.364 2.375 12.17 7.733 16.97 18.064q.483-.886 1.046-1.725c4.067-6.064 6.94-10.79 8.394-13.252.668-1.13.546-2.547-.244-3.594-2.06-2.73-6.003-8.277-8.15-13.413-2.209-5.281-2.538-13.48-2.557-17.473-.007-1.518-.489-3-1.427-4.193L71.762 18.44a6 6 0 0 0-.275-.327c1.217 3.99 1.135 7.2.384 10.118-.697 2.706-1.968 5.16-3.31 7.752h-.001c-.45.87-.909 1.755-1.356 2.67-1.782 3.644-3.39 7.768-3.627 13.298-.238 5.53.896 12.466 4.599 21.736"/><path fill="url(#h)" d="M68.173 73.686c-3.703-9.27-4.837-16.206-4.6-21.736s1.847-9.654 3.628-13.299c.448-.915.906-1.8 1.357-2.67 1.342-2.592 2.614-5.046 3.31-7.751.751-2.919.834-6.13-.385-10.121a6.395 6.395 0 0 0-9.022-.469L42.707 35.408a6.4 6.4 0 0 0-2.046 3.799l-2.405 15.94q-.033.222-.082.441c4.452 2.9 10.101 7.572 13.138 14.98a28 28 0 0 1 1.453 4.66c5.245-1.273 10.442-2.06 15.408-1.542"/><path fill="url(#i)" fill-rule="evenodd" d="M63.613 51.586c-.239 5.485.446 11.778 4.141 21.028l-1.16-.104c-3.315-9.653-4.037-14.602-3.795-20.164.241-5.564 2.04-9.843 3.831-13.493.454-.924 1.513-2.66 1.966-3.531 1.341-2.58 2.234-3.943 3-6.3 1.072-3.296.84-4.856.718-6.41.85 5.615-2.378 10.497-4.819 15.469-1.778 3.621-3.645 8.021-3.883 13.505" clip-rule="evenodd"/><path fill="url(#j)" fill-rule="evenodd" d="M52.403 70.977c.439 1.013.852 1.831 1.114 3.085l-.969.218c-.402-1.464-.714-2.506-1.271-3.762-3.337-7.872-8.692-11.921-13.068-14.891 5.286 2.844 10.711 7.295 14.194 15.35" clip-rule="evenodd"/><path fill="url(#k)" fill-rule="evenodd" d="M53.573 75.053c1.85 8.604-.214 19.535-6.292 30.161 5.08-10.53 7.544-20.645 5.492-29.99z" clip-rule="evenodd"/><path fill="url(#l)" fill-rule="evenodd" d="M74.554 74.279c9.966 3.73 13.803 11.919 16.672 18.75-3.543-7.153-8.468-15.053-17.03-17.985-6.515-2.232-12.017-1.967-21.423.168l-.21-.933c9.983-2.274 15.202-2.54 21.99 0" clip-rule="evenodd"/></g></g><defs><radialGradient id="e" cx="0" cy="0" r="1" gradientTransform="matrix(-10.99143 -42.2754 28.17228 -7.32468 46.238 104.086)" gradientUnits="userSpaceOnUse"><stop stop-color="#fff" stop-opacity=".4"/><stop offset="1" stop-opacity=".1"/></radialGradient><radialGradient id="f" cx="0" cy="0" r="1" gradientTransform="matrix(-18.04813 -30.56275 35.09224 -20.72292 78.833 111.998)" gradientUnits="userSpaceOnUse"><stop stop-color="#fff" stop-opacity=".3"/><stop offset="1" stop-opacity=".25"/></radialGradient><radialGradient id="g" cx="0" cy="0" r="1" gradientTransform="rotate(-82.485 90.85 -4.538)scale(71.6783 52.9564)" gradientUnits="userSpaceOnUse"><stop stop-color="#fff" stop-opacity=".55"/><stop offset="1" stop-color="#fff" stop-opacity=".05"/></radialGradient><radialGradient id="h" cx="0" cy="0" r="1" gradientTransform="matrix(13.01712 -59.80924 40.78852 8.87738 48.856 73.54)" gradientUnits="userSpaceOnUse"><stop stop-color="#fff" stop-opacity=".83"/><stop offset="1" stop-color="#fff" stop-opacity=".4"/></radialGradient><radialGradient id="i" cx="0" cy="0" r="1" gradientTransform="matrix(-6.74994 31.125 -20.98881 -4.55175 74.092 40)" gradientUnits="userSpaceOnUse"><stop stop-color="#fff" stop-opacity="0"/><stop offset="1" stop-color="#fff" stop-opacity=".17"/></radialGradient><radialGradient id="j" cx="0" cy="0" r="1" gradientTransform="rotate(45.324 -50.169 72.67)scale(23.4675 49.9836)" gradientUnits="userSpaceOnUse"><stop stop-color="#fff" stop-opacity=".2"/><stop offset="1" stop-color="#fff" stop-opacity=".44"/></radialGradient><radialGradient id="k" cx="0" cy="0" r="1" gradientTransform="matrix(4.68073 27.1042 -57.55723 9.9398 54.497 68.355)" gradientUnits="userSpaceOnUse"><stop stop-color="#fff" stop-opacity=".25"/><stop offset="1" stop-color="#fff" stop-opacity=".3"/></radialGradient><radialGradient id="l" cx="0" cy="0" r="1" gradientTransform="rotate(-152.297 56.68 34.19)scale(41.9116 131.893)" gradientUnits="userSpaceOnUse"><stop stop-color="#fff" stop-opacity=".21"/><stop offset=".467" stop-color="#fff" stop-opacity=".19"/><stop offset="1" stop-color="#fff" stop-opacity=".29"/></radialGradient><filter id="b" width="112" height="116" x="8" y="8" color-interpolation-filters="sRGB" filterUnits="userSpaceOnUse"><feFlood flood-opacity="0" result="BackgroundImageFix"/><feBlend in="SourceGraphic" in2="BackgroundImageFix" result="shape"/><feColorMatrix in="SourceAlpha" result="hardAlpha" values="0 0 0 0 0 0 0 0 0 0 0 0 0 0 0 0 0 0 127 0"/><feOffset dy="4"/><feGaussianBlur stdDeviation="2"/><feComposite in2="hardAlpha" k2="-1" k3="1" operator="arithmetic"/><feColorMatrix values="0 0 0 0 0 0 0 0 0 0 0 0 0 0 0 0 0 0 0.25 0"/><feBlend in2="shape" result="effect1_innerShadow_145_11"/></filter><filter id="d" width="82.4" height="104" x="22.767" y="14" color-interpolation-filters="sRGB" filterUnits="userSpaceOnUse"><feFlood flood-opacity="0" result="BackgroundImageFix"/><feColorMatrix in="SourceAlpha" result="hardAlpha" values="0 0 0 0 0 0 0 0 0 0 0 0 0 0 0 0 0 0 127 0"/><feOffset dy="2"/><feGaussianBlur stdDeviation="2"/><feComposite in2="hardAlpha" operator="out"/><feColorMatrix values="0 0 0 0 0 0 0 0 0 0 0 0 0 0 0 0 0 0 0.25 0"/><feBlend in2="BackgroundImageFix" result="effect1_dropShadow_145_11"/><feBlend in="SourceGraphic" in2="effect1_dropShadow_145_11" result="shape"/></filter><linearGradient id="a" x1="64" x2="64" y1="128" y2="0" gradientUnits="userSpaceOnUse"><stop stop-color="#5125AA"/><stop offset="1" stop-color="#8976DD"/><stop offset="1" stop-color="#7842E5"/></linearGradient><clipPath id="c"><path fill="#fff" d="M16 16h96v96H16z"/></clipPath></defs></svg>