<svg xmlns="http://www.w3.org/2000/svg" width="128" height="128" fill="none"><rect width="128" height="128" fill="url(#a)" rx="32"/><g filter="url(#b)"><rect width="112" height="112" x="8" y="8" fill="#000" fill-opacity=".7" rx="24"/><path fill="#5739A8" fill-rule="evenodd" d="M45.617 29.729A6 6 0 0 0 41.403 28H26a6 6 0 0 0-6 6v60a6 6 0 0 0 6 6h76a6 6 0 0 0 6-6V44a6 6 0 0 0-6-6H56.462a6 6 0 0 1-4.214-1.729z" clip-rule="evenodd"/><rect width="76.068" height="43" x="25.966" y="43" fill="#FAFAFA" rx="3"/><g filter="url(#c)"><path fill="#7962E7" d="M20 54a6 6 0 0 1 6-6h76a6 6 0 0 1 6 6v40a6 6 0 0 1-6 6H26a6 6 0 0 1-6-6z"/></g></g><defs><filter id="b" width="112" height="116" x="8" y="8" color-interpolation-filters="sRGB" filterUnits="userSpaceOnUse"><feFlood flood-opacity="0" result="BackgroundImageFix"/><feBlend in="SourceGraphic" in2="BackgroundImageFix" result="shape"/><feColorMatrix in="SourceAlpha" result="hardAlpha" values="0 0 0 0 0 0 0 0 0 0 0 0 0 0 0 0 0 0 127 0"/><feOffset dy="4"/><feGaussianBlur stdDeviation="2"/><feComposite in2="hardAlpha" k2="-1" k3="1" operator="arithmetic"/><feColorMatrix values="0 0 0 0 0 0 0 0 0 0 0 0 0 0 0 0 0 0 0.25 0"/><feBlend in2="shape" result="effect1_innerShadow_94_3115"/></filter><filter id="c" width="94" height="58" x="17" y="46.5" color-interpolation-filters="sRGB" filterUnits="userSpaceOnUse"><feFlood flood-opacity="0" result="BackgroundImageFix"/><feColorMatrix in="SourceAlpha" result="hardAlpha" values="0 0 0 0 0 0 0 0 0 0 0 0 0 0 0 0 0 0 127 0"/><feOffset dy="1.5"/><feGaussianBlur stdDeviation="1.5"/><feComposite in2="hardAlpha" operator="out"/><feColorMatrix values="0 0 0 0 0 0 0 0 0 0 0 0 0 0 0 0 0 0 0.25 0"/><feBlend in2="BackgroundImageFix" result="effect1_dropShadow_94_3115"/><feBlend in="SourceGraphic" in2="effect1_dropShadow_94_3115" result="shape"/></filter><linearGradient id="a" x1="128" x2="0" y1="0" y2="128" gradientUnits="userSpaceOnUse"><stop stop-color="#6653C3"/><stop offset="1" stop-color="#5638A5"/></linearGradient></defs></svg>