<svg xmlns="http://www.w3.org/2000/svg" width="128" height="128" fill="none"><rect width="128" height="96" y="16" fill="#7962E7" rx="8"/><path fill="#462E86" d="M0 24a8 8 0 0 1 8-8h112a8 8 0 0 1 8 8zM0 52a4 4 0 0 1 4-4h4a4 4 0 0 1 4 4v32a4 4 0 0 1-4 4H4a4 4 0 0 1-4-4z"/><g filter="url(#a)"><rect width="64" height="48" x="32" y="44" fill="#2C2C2C" rx="4"/><path fill="#222" d="M32 44h64v6H32z"/></g><defs><filter id="a" width="72" height="56" x="28" y="42" color-interpolation-filters="sRGB" filterUnits="userSpaceOnUse"><feFlood flood-opacity="0" result="BackgroundImageFix"/><feColorMatrix in="SourceAlpha" result="hardAlpha" values="0 0 0 0 0 0 0 0 0 0 0 0 0 0 0 0 0 0 127 0"/><feOffset dy="2"/><feGaussianBlur stdDeviation="2"/><feComposite in2="hardAlpha" operator="out"/><feColorMatrix values="0 0 0 0 0 0 0 0 0 0 0 0 0 0 0 0 0 0 0.25 0"/><feBlend in2="BackgroundImageFix" result="effect1_dropShadow_100_517"/><feBlend in="SourceGraphic" in2="effect1_dropShadow_100_517" result="shape"/></filter></defs></svg>