<svg xmlns="http://www.w3.org/2000/svg" width="128" height="128" fill="none"><rect width="128" height="128" fill="url(#a)" rx="32"/><g filter="url(#b)"><rect width="112" height="112" x="8" y="8" fill="#000" fill-opacity=".7" rx="24"/><g filter="url(#c)"><path stroke="#8B00E7" stroke-linecap="round" stroke-linejoin="round" stroke-width="8" d="M40 96h24m24 0H64m0 0V80"/></g><g filter="url(#d)"><path stroke="#D404FF" stroke-linecap="round" stroke-linejoin="round" stroke-width="8" d="M32 80h64a8 8 0 0 0 8-8V40a8 8 0 0 0-8-8H32a8 8 0 0 0-8 8v32a8 8 0 0 0 8 8" shape-rendering="crispEdges"/></g></g><defs><filter id="b" width="112" height="116" x="8" y="8" color-interpolation-filters="sRGB" filterUnits="userSpaceOnUse"><feFlood flood-opacity="0" result="BackgroundImageFix"/><feBlend in="SourceGraphic" in2="BackgroundImageFix" result="shape"/><feColorMatrix in="SourceAlpha" result="hardAlpha" values="0 0 0 0 0 0 0 0 0 0 0 0 0 0 0 0 0 0 127 0"/><feOffset dy="4"/><feGaussianBlur stdDeviation="2"/><feComposite in2="hardAlpha" k2="-1" k3="1" operator="arithmetic"/><feColorMatrix values="0 0 0 0 0 0 0 0 0 0 0 0 0 0 0 0 0 0 0.25 0"/><feBlend in2="shape" result="effect1_innerShadow_46_303"/></filter><filter id="c" width="64" height="32" x="32" y="74" color-interpolation-filters="sRGB" filterUnits="userSpaceOnUse"><feFlood flood-opacity="0" result="BackgroundImageFix"/><feColorMatrix in="SourceAlpha" result="hardAlpha" values="0 0 0 0 0 0 0 0 0 0 0 0 0 0 0 0 0 0 127 0"/><feOffset dy="2"/><feGaussianBlur stdDeviation="2"/><feComposite in2="hardAlpha" operator="out"/><feColorMatrix values="0 0 0 0 0 0 0 0 0 0 0 0 0 0 0 0 0 0 0.25 0"/><feBlend in2="BackgroundImageFix" result="effect1_dropShadow_46_303"/><feBlend in="SourceGraphic" in2="effect1_dropShadow_46_303" result="shape"/></filter><filter id="d" width="96" height="64" x="16" y="26" color-interpolation-filters="sRGB" filterUnits="userSpaceOnUse"><feFlood flood-opacity="0" result="BackgroundImageFix"/><feColorMatrix in="SourceAlpha" result="hardAlpha" values="0 0 0 0 0 0 0 0 0 0 0 0 0 0 0 0 0 0 127 0"/><feOffset dy="2"/><feGaussianBlur stdDeviation="2"/><feComposite in2="hardAlpha" operator="out"/><feColorMatrix values="0 0 0 0 0 0 0 0 0 0 0 0 0 0 0 0 0 0 0.25 0"/><feBlend in2="BackgroundImageFix" result="effect1_dropShadow_46_303"/><feBlend in="SourceGraphic" in2="effect1_dropShadow_46_303" result="shape"/></filter><linearGradient id="a" x1="64" x2="64" y1="0" y2="128" gradientUnits="userSpaceOnUse"><stop stop-color="#CB02C5"/><stop offset=".245" stop-color="#C101DA"/><stop offset=".51" stop-color="#B600F0"/><stop offset=".745" stop-color="#8900D9"/><stop offset="1" stop-color="#5800BF"/></linearGradient></defs></svg>