<svg xmlns="http://www.w3.org/2000/svg" width="128" height="128" fill="none"><rect width="128" height="96" y="16" fill="#7962E7" rx="8"/><path fill="#222" fill-rule="evenodd" d="M52 91q-1.274 0-2.138-.862Q49 89.274 49 88V76q0-1.274.862-2.138Q50.726 73 52 73t2.138.862T55 76v3h3v6h-3v3q0 1.275-.862 2.138Q53.275 91 52 91m-24-6q-1.275 0-2.137-.862Q25 83.275 25 82t.863-2.138Q26.725 79 28 79h12q1.275 0 2.138.862Q43 80.726 43 82t-.862 2.138Q41.275 85 40 85zm12-12q-1.275 0-2.138-.862Q37 71.275 37 70v-3h-9q-1.275 0-2.137-.862Q25 65.274 25 64t.863-2.138Q26.725 61 28 61h9v-3q0-1.274.862-2.138Q38.726 55 40 55t2.138.862T43 58v12q0 1.275-.862 2.138Q41.275 73 40 73m12-6q-1.274 0-2.138-.862Q49 65.274 49 64t.862-2.138Q50.726 61 52 61h23.25l-6 6zm12-12q-1.274 0-2.138-.862Q61 53.275 61 52V40q0-1.275.862-2.138Q62.726 37 64 37t2.138.862Q67 38.726 67 40v3h9q1.275 0 2.138.862Q79 44.726 79 46t-.862 2.138T76 49h-9v3q0 1.275-.862 2.138Q65.274 55 64 55m-36-6q-1.275 0-2.137-.862Q25 47.275 25 46t.863-2.138T28 43h24q1.275 0 2.138.862Q55 44.726 55 46t-.862 2.138T52 49z" clip-rule="evenodd"/><path fill="#222" d="M70 85h4.2l14.4-14.325-4.275-4.275L70 80.8zm-3 6q-1.274 0-2.138-.862Q64 89.274 64 88v-7.275a5.92 5.92 0 0 1 1.725-4.2l22.875-22.8q.825-.825 1.95-1.275t2.325-.45 2.287.45a6.1 6.1 0 0 1 1.988 1.35l4.125 4.2q.9.825 1.313 1.913Q103 61 103 62.2q0 1.125-.412 2.25a5.55 5.55 0 0 1-1.313 2.025l-22.8 22.8a5.92 5.92 0 0 1-4.2 1.725z"/></svg>