<svg xmlns="http://www.w3.org/2000/svg" width="128" height="128" fill="none"><rect width="128" height="80" y="24" fill="#CCC" rx="8"/><rect width="16" height="16" x="12" y="34" fill="#2C2C2C" rx="4"/><rect width="16" height="16" x="34" y="34" fill="#2C2C2C" rx="4"/><rect width="16" height="16" x="56" y="34" fill="#2C2C2C" rx="4"/><rect width="16" height="16" x="78" y="34" fill="#2C2C2C" rx="4"/><rect width="16" height="16" x="100" y="34" fill="#2C2C2C" rx="4"/><rect width="16" height="16" x="12" y="56" fill="#2C2C2C" rx="4"/><rect width="16" height="16" x="34" y="56" fill="#2C2C2C" rx="4"/><rect width="16" height="16" x="56" y="56" fill="#2C2C2C" rx="4"/><rect width="16" height="16" x="78" y="56" fill="#2C2C2C" rx="4"/><rect width="16" height="16" x="100" y="56" fill="#2C2C2C" rx="4"/><rect width="16" height="16" x="12" y="78" fill="#2C2C2C" rx="4"/><rect width="60" height="16" x="34" y="78" fill="#2C2C2C" rx="4"/><rect width="16" height="16" x="100" y="78" fill="#2C2C2C" rx="4"/></svg>