<svg xmlns="http://www.w3.org/2000/svg" width="128" height="128" fill="none"><rect width="128" height="128" fill="#888" rx="32"/><rect width="112" height="112" x="8" y="8" fill="#000" fill-opacity=".7" rx="24"/><mask id="a" width="72" height="72" x="28" y="28" maskUnits="userSpaceOnUse" style="mask-type:alpha"><path fill="#D9D9D9" d="M28 28h72v72H28z"/></mask><g mask="url(#a)"><path fill="#FAFAFA" d="M64 91q-1.274 0-2.138-.862Q61 89.274 61 88V76q0-1.274.862-2.138Q62.726 73 64 73t2.138.862Q67 74.726 67 76v3h21q1.275 0 2.138.862Q91 80.726 91 82t-.862 2.138Q89.274 85 88 85H67v3q0 1.275-.862 2.138Q65.274 91 64 91m-24-6q-1.275 0-2.138-.862Q37 83.275 37 82t.862-2.138Q38.726 79 40 79h12q1.275 0 2.138.862Q55 80.726 55 82t-.862 2.138Q53.275 85 52 85zm12-12q-1.274 0-2.138-.862Q49 71.275 49 70v-3h-9q-1.275 0-2.138-.862Q37 65.274 37 64t.862-2.138Q38.726 61 40 61h9v-3q0-1.274.862-2.138Q50.726 55 52 55t2.138.862T55 58v12q0 1.275-.862 2.138Q53.275 73 52 73m12-6q-1.274 0-2.138-.862Q61 65.274 61 64t.862-2.138Q62.726 61 64 61h24q1.275 0 2.138.862Q91 62.726 91 64t-.862 2.138Q89.274 67 88 67zm12-12q-1.274 0-2.138-.862Q73 53.275 73 52V40q0-1.275.862-2.138Q74.726 37 76 37t2.138.862Q79 38.726 79 40v3h9q1.275 0 2.138.862Q91 44.726 91 46t-.862 2.138Q89.274 49 88 49h-9v3q0 1.275-.862 2.138Q77.275 55 76 55m-36-6q-1.275 0-2.138-.862Q37 47.275 37 46t.862-2.138T40 43h24q1.275 0 2.138.862Q67 44.726 67 46t-.862 2.138Q65.274 49 64 49z"/></g></svg>