<svg xmlns="http://www.w3.org/2000/svg" width="128" height="128" fill="none"><rect width="128" height="96" y="16" fill="#7962E7" rx="8"/><g filter="url(#a)"><rect width="64" height="48" x="32" y="40" fill="#2C2C2C" rx="4"/><path fill="#222" d="M32 40h64v6H32z"/><mask id="b" width="36" height="36" x="46" y="49" maskUnits="userSpaceOnUse" style="mask-type:alpha"><path fill="#D9D9D9" d="M46 49h36v36H46z"/></mask><g mask="url(#b)"><path fill="#FAFAFA" d="M64 80.5q-.637 0-1.069-.431A1.45 1.45 0 0 1 62.5 79v-6q0-.637.431-1.069A1.45 1.45 0 0 1 64 71.5q.637 0 1.069.431.43.432.431 1.069v1.5H76q.637 0 1.069.431.43.432.431 1.069 0 .637-.431 1.069A1.45 1.45 0 0 1 76 77.5H65.5V79q0 .637-.431 1.069A1.45 1.45 0 0 1 64 80.5m-12-3q-.637 0-1.069-.431A1.45 1.45 0 0 1 50.5 76q0-.637.431-1.069A1.45 1.45 0 0 1 52 74.5h6q.637 0 1.069.431.43.432.431 1.069 0 .637-.431 1.069A1.45 1.45 0 0 1 58 77.5zm6-6q-.637 0-1.069-.431A1.45 1.45 0 0 1 56.5 70v-1.5H52q-.637 0-1.069-.431A1.45 1.45 0 0 1 50.5 67q0-.637.431-1.069A1.45 1.45 0 0 1 52 65.5h4.5V64q0-.637.431-1.069A1.45 1.45 0 0 1 58 62.5q.637 0 1.069.431.43.432.431 1.069v6q0 .637-.431 1.069A1.45 1.45 0 0 1 58 71.5m6-3q-.637 0-1.069-.431A1.45 1.45 0 0 1 62.5 67q0-.637.431-1.069A1.45 1.45 0 0 1 64 65.5h12q.637 0 1.069.431.43.432.431 1.069 0 .637-.431 1.069A1.45 1.45 0 0 1 76 68.5zm6-6q-.637 0-1.069-.431A1.45 1.45 0 0 1 68.5 61v-6q0-.637.431-1.069A1.45 1.45 0 0 1 70 53.5q.637 0 1.069.431.43.432.431 1.069v1.5H76q.637 0 1.069.431.43.432.431 1.069 0 .637-.431 1.069A1.45 1.45 0 0 1 76 59.5h-4.5V61q0 .637-.431 1.069A1.45 1.45 0 0 1 70 62.5m-18-3q-.637 0-1.069-.431A1.45 1.45 0 0 1 50.5 58q0-.637.431-1.069A1.45 1.45 0 0 1 52 56.5h12q.637 0 1.069.431.43.432.431 1.069 0 .637-.431 1.069A1.45 1.45 0 0 1 64 59.5z"/></g></g><defs><filter id="a" width="72" height="56" x="28" y="38" color-interpolation-filters="sRGB" filterUnits="userSpaceOnUse"><feFlood flood-opacity="0" result="BackgroundImageFix"/><feColorMatrix in="SourceAlpha" result="hardAlpha" values="0 0 0 0 0 0 0 0 0 0 0 0 0 0 0 0 0 0 127 0"/><feOffset dy="2"/><feGaussianBlur stdDeviation="2"/><feComposite in2="hardAlpha" operator="out"/><feColorMatrix values="0 0 0 0 0 0 0 0 0 0 0 0 0 0 0 0 0 0 0.25 0"/><feBlend in2="BackgroundImageFix" result="effect1_dropShadow_102_622"/><feBlend in="SourceGraphic" in2="effect1_dropShadow_102_622" result="shape"/></filter></defs></svg>