<svg xmlns="http://www.w3.org/2000/svg" width="128" height="128" fill="none"><rect width="128" height="96" y="16" fill="#462E86" rx="8"/><path fill="#7962E7" d="M0 66h62v46H8a8 8 0 0 1-8-8z"/><g filter="url(#a)"><rect width="32" height="24" x="15" y="77" fill="#2C2C2C" rx="2"/><path fill="#222" d="M15 77h32v3H15z"/></g><path fill="#7962E7" d="M66 66h62v38a8 8 0 0 1-8 8H66z"/><g filter="url(#b)"><rect width="32" height="24" x="81" y="77" fill="#2C2C2C" rx="2"/><path fill="#222" d="M81 77h32v3H81z"/></g><path fill="#7962E7" d="M66 16h54a8 8 0 0 1 8 8v38H66z"/><g filter="url(#c)"><rect width="32" height="24" x="81" y="27" fill="#2C2C2C" rx="2"/><path fill="#222" d="M81 27h32v3H81z"/></g><path fill="#7962E7" d="M0 24a8 8 0 0 1 8-8h54v46H0z"/><g filter="url(#d)"><rect width="32" height="24" x="15" y="27" fill="#2C2C2C" rx="2"/><path fill="#222" d="M15 27h32v3H15z"/></g><defs><filter id="a" width="36" height="28" x="13" y="76" color-interpolation-filters="sRGB" filterUnits="userSpaceOnUse"><feFlood flood-opacity="0" result="BackgroundImageFix"/><feColorMatrix in="SourceAlpha" result="hardAlpha" values="0 0 0 0 0 0 0 0 0 0 0 0 0 0 0 0 0 0 127 0"/><feOffset dy="1"/><feGaussianBlur stdDeviation="1"/><feComposite in2="hardAlpha" operator="out"/><feColorMatrix values="0 0 0 0 0 0 0 0 0 0 0 0 0 0 0 0 0 0 0.25 0"/><feBlend in2="BackgroundImageFix" result="effect1_dropShadow_103_633"/><feBlend in="SourceGraphic" in2="effect1_dropShadow_103_633" result="shape"/></filter><filter id="b" width="36" height="28" x="79" y="76" color-interpolation-filters="sRGB" filterUnits="userSpaceOnUse"><feFlood flood-opacity="0" result="BackgroundImageFix"/><feColorMatrix in="SourceAlpha" result="hardAlpha" values="0 0 0 0 0 0 0 0 0 0 0 0 0 0 0 0 0 0 127 0"/><feOffset dy="1"/><feGaussianBlur stdDeviation="1"/><feComposite in2="hardAlpha" operator="out"/><feColorMatrix values="0 0 0 0 0 0 0 0 0 0 0 0 0 0 0 0 0 0 0.25 0"/><feBlend in2="BackgroundImageFix" result="effect1_dropShadow_103_633"/><feBlend in="SourceGraphic" in2="effect1_dropShadow_103_633" result="shape"/></filter><filter id="c" width="36" height="28" x="79" y="26" color-interpolation-filters="sRGB" filterUnits="userSpaceOnUse"><feFlood flood-opacity="0" result="BackgroundImageFix"/><feColorMatrix in="SourceAlpha" result="hardAlpha" values="0 0 0 0 0 0 0 0 0 0 0 0 0 0 0 0 0 0 127 0"/><feOffset dy="1"/><feGaussianBlur stdDeviation="1"/><feComposite in2="hardAlpha" operator="out"/><feColorMatrix values="0 0 0 0 0 0 0 0 0 0 0 0 0 0 0 0 0 0 0.25 0"/><feBlend in2="BackgroundImageFix" result="effect1_dropShadow_103_633"/><feBlend in="SourceGraphic" in2="effect1_dropShadow_103_633" result="shape"/></filter><filter id="d" width="36" height="28" x="13" y="26" color-interpolation-filters="sRGB" filterUnits="userSpaceOnUse"><feFlood flood-opacity="0" result="BackgroundImageFix"/><feColorMatrix in="SourceAlpha" result="hardAlpha" values="0 0 0 0 0 0 0 0 0 0 0 0 0 0 0 0 0 0 127 0"/><feOffset dy="1"/><feGaussianBlur stdDeviation="1"/><feComposite in2="hardAlpha" operator="out"/><feColorMatrix values="0 0 0 0 0 0 0 0 0 0 0 0 0 0 0 0 0 0 0.25 0"/><feBlend in2="BackgroundImageFix" result="effect1_dropShadow_103_633"/><feBlend in="SourceGraphic" in2="effect1_dropShadow_103_633" result="shape"/></filter></defs></svg>