<svg xmlns="http://www.w3.org/2000/svg" width="128" height="128" fill="none"><rect width="128" height="128" fill="url(#a)" rx="32"/><rect width="128" height="128" fill="url(#b)" rx="32"/><g filter="url(#c)"><rect width="112" height="112" x="8" y="8" fill="#000" fill-opacity=".7" rx="24"/><g clip-path="url(#d)"><g filter="url(#e)"><path fill="url(#f)" d="m69.022 36.001-2.927-8.847-13.586 6.567-17.985 1.586 2.468 30.858L62.5 61.896z"/></g><g filter="url(#g)"><path fill="url(#h)" d="m44.781 43.878-24.21-6.363 8.367 50.248 45.083-.44z"/></g><g filter="url(#i)"><path fill="url(#j)" d="M78.076 65.283 67.672 47.474l11.286-10.227 17.963-7.351 11.422 28.385-16.45 16.338z"/></g><g filter="url(#k)"><path fill="url(#l)" d="M91.9 57.903 86.188 46.24 41.38 55.242l4.602 42.784 29.58 10.317 32.781-19.621z"/></g><g filter="url(#m)"><path fill="url(#n)" d="m68.73 59.993-27.35-4.75 33.385-29.46 22.156 4.113-13.732 13.699 3.174 2.821z"/></g><g filter="url(#o)"><path fill="url(#p)" d="M66.095 27.154 35.543 20.57 20.57 37.515l24.253 6.448z"/></g><g filter="url(#q)"><path fill="#000" d="M91.886 37.029H37.029v54.857h54.857z"/></g><path fill="#fff" d="M64.457 81.6H43.886v3.428h20.571zm-2.611-19.867 2.683-3.212c1.856 1.53 3.803 2.504 6.158 2.504 1.86 0 2.979-.736 2.979-1.947v-.058c0-1.148-.708-1.74-4.157-2.621-4.156-1.061-6.84-2.214-6.84-6.308v-.063c-.001-3.74 3.007-6.22 7.222-6.22a11.94 11.94 0 0 1 7.664 2.626l-2.359 3.42c-1.826-1.27-3.624-2.035-5.363-2.035s-2.655.795-2.654 1.798v.058c0 1.356.886 1.802 4.452 2.713 4.185 1.09 6.545 2.596 6.545 6.19v.06c0 4.098-3.124 6.394-7.576 6.394a13.13 13.13 0 0 1-8.754-3.3m-17.898-17.61h8.394c4.9 0 7.865 2.905 7.865 7.101v.06c0 4.753-3.698 7.22-8.306 7.22h-3.434v6.162h-4.52zm8.1 10.36c2.26 0 3.58-1.35 3.58-3.112v-.058c0-2.025-1.408-3.11-3.668-3.11h-3.493v6.28z"/></g></g><defs><linearGradient id="a" x1="64" x2="64" y1="0" y2="128" gradientUnits="userSpaceOnUse"><stop stop-color="#3BEA62"/><stop offset=".51" stop-color="#087CFA"/><stop offset="1" stop-color="#B74AF7"/></linearGradient><linearGradient id="b" x1="21.719" x2="99.402" y1="122.849" y2="26.385" gradientUnits="userSpaceOnUse"><stop offset=".016" stop-color="#6B57FF"/><stop offset=".424" stop-color="#B74AF7"/><stop offset=".746" stop-color="#FF318C"/></linearGradient><linearGradient id="f" x1="36.754" x2="61.538" y1="71.181" y2="23.584" gradientUnits="userSpaceOnUse"><stop stop-color="#AF1DF5"/><stop offset=".212" stop-color="#BC20E4"/><stop offset=".628" stop-color="#DD29B8"/><stop offset="1" stop-color="#FF318C"/></linearGradient><linearGradient id="h" x1="29.64" x2="59.682" y1="85.74" y2="46.059" gradientUnits="userSpaceOnUse"><stop offset=".016" stop-color="#6B57FF"/><stop offset=".424" stop-color="#B74AF7"/><stop offset=".746" stop-color="#FF318C"/></linearGradient><linearGradient id="j" x1="97.611" x2="80.964" y1="75.03" y2="35.521" gradientUnits="userSpaceOnUse"><stop stop-color="#293896"/><stop offset=".075" stop-color="#3B3AA2"/><stop offset=".287" stop-color="#6740C0"/><stop offset=".491" stop-color="#8A44D8"/><stop offset=".683" stop-color="#A347E9"/><stop offset=".858" stop-color="#B249F3"/><stop offset="1" stop-color="#B74AF7"/></linearGradient><linearGradient id="l" x1="83.968" x2="56.293" y1="98.346" y2="57.781" gradientUnits="userSpaceOnUse"><stop offset=".016" stop-color="#6B57FF"/><stop offset=".783" stop-color="#B74AF7"/></linearGradient><linearGradient id="n" x1="75.58" x2="66.411" y1="76.572" y2="28.082" gradientUnits="userSpaceOnUse"><stop offset=".016" stop-color="#6B57FF"/><stop offset=".637" stop-color="#B74AF7"/></linearGradient><linearGradient id="p" x1="30.558" x2="44.84" y1="55.519" y2="29.599" gradientUnits="userSpaceOnUse"><stop stop-color="#AF1DF5"/><stop offset=".212" stop-color="#BC20E4"/><stop offset=".628" stop-color="#DD29B8"/><stop offset="1" stop-color="#FF318C"/></linearGradient><filter id="c" width="112" height="116" x="8" y="8" color-interpolation-filters="sRGB" filterUnits="userSpaceOnUse"><feFlood flood-opacity="0" result="BackgroundImageFix"/><feBlend in="SourceGraphic" in2="BackgroundImageFix" result="shape"/><feColorMatrix in="SourceAlpha" result="hardAlpha" values="0 0 0 0 0 0 0 0 0 0 0 0 0 0 0 0 0 0 127 0"/><feOffset dy="4"/><feGaussianBlur stdDeviation="2"/><feComposite in2="hardAlpha" k2="-1" k3="1" operator="arithmetic"/><feColorMatrix values="0 0 0 0 0 0 0 0 0 0 0 0 0 0 0 0 0 0 0.25 0"/><feBlend in2="shape" result="effect1_innerShadow_141_205"/></filter><filter id="e" width="42.498" height="47.011" x="30.524" y="25.154" color-interpolation-filters="sRGB" filterUnits="userSpaceOnUse"><feFlood flood-opacity="0" result="BackgroundImageFix"/><feColorMatrix in="SourceAlpha" result="hardAlpha" values="0 0 0 0 0 0 0 0 0 0 0 0 0 0 0 0 0 0 127 0"/><feOffset dy="2"/><feGaussianBlur stdDeviation="2"/><feComposite in2="hardAlpha" operator="out"/><feColorMatrix values="0 0 0 0 0 0 0 0 0 0 0 0 0 0 0 0 0 0 0.25 0"/><feBlend in2="BackgroundImageFix" result="effect1_dropShadow_141_205"/><feBlend in="SourceGraphic" in2="effect1_dropShadow_141_205" result="shape"/></filter><filter id="g" width="61.449" height="58.247" x="16.571" y="35.515" color-interpolation-filters="sRGB" filterUnits="userSpaceOnUse"><feFlood flood-opacity="0" result="BackgroundImageFix"/><feColorMatrix in="SourceAlpha" result="hardAlpha" values="0 0 0 0 0 0 0 0 0 0 0 0 0 0 0 0 0 0 127 0"/><feOffset dy="2"/><feGaussianBlur stdDeviation="2"/><feComposite in2="hardAlpha" operator="out"/><feColorMatrix values="0 0 0 0 0 0 0 0 0 0 0 0 0 0 0 0 0 0 0.25 0"/><feBlend in2="BackgroundImageFix" result="effect1_dropShadow_141_205"/><feBlend in="SourceGraphic" in2="effect1_dropShadow_141_205" result="shape"/></filter><filter id="i" width="48.67" height="52.723" x="63.672" y="27.896" color-interpolation-filters="sRGB" filterUnits="userSpaceOnUse"><feFlood flood-opacity="0" result="BackgroundImageFix"/><feColorMatrix in="SourceAlpha" result="hardAlpha" values="0 0 0 0 0 0 0 0 0 0 0 0 0 0 0 0 0 0 127 0"/><feOffset dy="2"/><feGaussianBlur stdDeviation="2"/><feComposite in2="hardAlpha" operator="out"/><feColorMatrix values="0 0 0 0 0 0 0 0 0 0 0 0 0 0 0 0 0 0 0.25 0"/><feBlend in2="BackgroundImageFix" result="effect1_dropShadow_141_205"/><feBlend in="SourceGraphic" in2="effect1_dropShadow_141_205" result="shape"/></filter><filter id="k" width="74.963" height="70.103" x="37.38" y="44.24" color-interpolation-filters="sRGB" filterUnits="userSpaceOnUse"><feFlood flood-opacity="0" result="BackgroundImageFix"/><feColorMatrix in="SourceAlpha" result="hardAlpha" values="0 0 0 0 0 0 0 0 0 0 0 0 0 0 0 0 0 0 127 0"/><feOffset dy="2"/><feGaussianBlur stdDeviation="2"/><feComposite in2="hardAlpha" operator="out"/><feColorMatrix values="0 0 0 0 0 0 0 0 0 0 0 0 0 0 0 0 0 0 0.25 0"/><feBlend in2="BackgroundImageFix" result="effect1_dropShadow_141_205"/><feBlend in="SourceGraphic" in2="effect1_dropShadow_141_205" result="shape"/></filter><filter id="m" width="63.541" height="42.211" x="37.38" y="23.782" color-interpolation-filters="sRGB" filterUnits="userSpaceOnUse"><feFlood flood-opacity="0" result="BackgroundImageFix"/><feColorMatrix in="SourceAlpha" result="hardAlpha" values="0 0 0 0 0 0 0 0 0 0 0 0 0 0 0 0 0 0 127 0"/><feOffset dy="2"/><feGaussianBlur stdDeviation="2"/><feComposite in2="hardAlpha" operator="out"/><feColorMatrix values="0 0 0 0 0 0 0 0 0 0 0 0 0 0 0 0 0 0 0.25 0"/><feBlend in2="BackgroundImageFix" result="effect1_dropShadow_141_205"/><feBlend in="SourceGraphic" in2="effect1_dropShadow_141_205" result="shape"/></filter><filter id="o" width="53.523" height="31.392" x="16.571" y="18.571" color-interpolation-filters="sRGB" filterUnits="userSpaceOnUse"><feFlood flood-opacity="0" result="BackgroundImageFix"/><feColorMatrix in="SourceAlpha" result="hardAlpha" values="0 0 0 0 0 0 0 0 0 0 0 0 0 0 0 0 0 0 127 0"/><feOffset dy="2"/><feGaussianBlur stdDeviation="2"/><feComposite in2="hardAlpha" operator="out"/><feColorMatrix values="0 0 0 0 0 0 0 0 0 0 0 0 0 0 0 0 0 0 0.25 0"/><feBlend in2="BackgroundImageFix" result="effect1_dropShadow_141_205"/><feBlend in="SourceGraphic" in2="effect1_dropShadow_141_205" result="shape"/></filter><filter id="q" width="62.857" height="62.857" x="33.029" y="35.029" color-interpolation-filters="sRGB" filterUnits="userSpaceOnUse"><feFlood flood-opacity="0" result="BackgroundImageFix"/><feColorMatrix in="SourceAlpha" result="hardAlpha" values="0 0 0 0 0 0 0 0 0 0 0 0 0 0 0 0 0 0 127 0"/><feOffset dy="2"/><feGaussianBlur stdDeviation="2"/><feComposite in2="hardAlpha" operator="out"/><feColorMatrix values="0 0 0 0 0 0 0 0 0 0 0 0 0 0 0 0 0 0 0.25 0"/><feBlend in2="BackgroundImageFix" result="effect1_dropShadow_141_205"/><feBlend in="SourceGraphic" in2="effect1_dropShadow_141_205" result="shape"/></filter><clipPath id="d"><path fill="#fff" d="M16 16h96v96H16z"/></clipPath></defs></svg>