<svg xmlns="http://www.w3.org/2000/svg" width="128" height="128" fill="none"><rect width="128" height="128" fill="url(#a)" rx="32"/><rect width="128" height="128" fill="url(#b)" rx="32"/><g filter="url(#c)"><rect width="112" height="112" x="8" y="8" fill="#000" fill-opacity=".7" rx="24"/><g clip-path="url(#d)"><g filter="url(#e)"><path fill="url(#f)" d="m106.951 86.63 1.392-38.085-24.198-5.467-20.574 13.77 9.563 28.281 33.819 1.501z"/></g><g filter="url(#g)"><path fill="url(#h)" d="m101.592 66.236 6.751-17.691-23.807-10.47L63.57 56.849z"/></g><g filter="url(#i)"><path fill="url(#j)" d="m76.722 107.429 30.229-20.799L34.25 54.342 20.57 93.27z"/></g><g filter="url(#k)"><path fill="url(#l)" d="m20.571 53.21 48.38 36.87 32.641-23.844-37.088-41.13-32.277-5.449z"/></g><g filter="url(#m)"><path fill="#000" d="M91.886 36.114H37.029v54.857h54.857z"/></g><path fill="#fff" d="M43.365 42.893h8.459c4.939 0 7.926 2.928 7.926 7.158v.058c0 4.791-3.727 7.277-8.37 7.277h-3.461v6.21h-4.554zm8.163 10.441c2.276 0 3.608-1.361 3.608-3.136v-.059c0-2.041-1.42-3.136-3.697-3.136h-3.52v6.331zm5.674 7.452 2.87-3.193c1.182 1.3 2.335 2.07 3.784 2.07 1.715 0 2.78-1.035 2.78-3.43v-13.34h4.674v13.546c0 2.455-.71 4.288-1.952 5.531a7.4 7.4 0 0 1-5.383 1.922 8.47 8.47 0 0 1-6.773-3.106m7.255 19.9H43.886v3.428h20.571z"/></g></g><defs><linearGradient id="a" x1="64" x2="64" y1="0" y2="128" gradientUnits="userSpaceOnUse"><stop stop-color="#3BEA62"/><stop offset=".51" stop-color="#087CFA"/><stop offset="1" stop-color="#B74AF7"/></linearGradient><linearGradient id="b" x1="39.261" x2="92.067" y1="111.31" y2="30.246" gradientUnits="userSpaceOnUse"><stop stop-color="#6B57FF"/><stop offset=".461" stop-color="#FF318C"/><stop offset="1" stop-color="#FDB60D"/></linearGradient><linearGradient id="f" x1="95.529" x2="82.812" y1="80.678" y2="43.942" gradientUnits="userSpaceOnUse"><stop offset=".001" stop-color="#FF318C"/><stop offset="1" stop-color="#FC801D"/></linearGradient><linearGradient id="h" x1="98.837" x2="87.678" y1="40.898" y2="55.069" gradientUnits="userSpaceOnUse"><stop stop-color="#FF318C"/><stop offset=".781" stop-color="#FC801D"/></linearGradient><linearGradient id="j" x1="94.218" x2="30.178" y1="97.911" y2="74.803" gradientUnits="userSpaceOnUse"><stop offset=".017" stop-color="#FF318C"/><stop offset=".811" stop-color="#6B57FF"/></linearGradient><linearGradient id="l" x1="45.422" x2="72.658" y1="80.897" y2="32.794" gradientUnits="userSpaceOnUse"><stop offset=".33" stop-color="#FF318C"/><stop offset=".942" stop-color="#FDB60D"/></linearGradient><filter id="c" width="112" height="116" x="8" y="8" color-interpolation-filters="sRGB" filterUnits="userSpaceOnUse"><feFlood flood-opacity="0" result="BackgroundImageFix"/><feBlend in="SourceGraphic" in2="BackgroundImageFix" result="shape"/><feColorMatrix in="SourceAlpha" result="hardAlpha" values="0 0 0 0 0 0 0 0 0 0 0 0 0 0 0 0 0 0 127 0"/><feOffset dy="4"/><feGaussianBlur stdDeviation="2"/><feComposite in2="hardAlpha" k2="-1" k3="1" operator="arithmetic"/><feColorMatrix values="0 0 0 0 0 0 0 0 0 0 0 0 0 0 0 0 0 0 0.25 0"/><feBlend in2="shape" result="effect1_innerShadow_141_230"/></filter><filter id="e" width="52.772" height="51.552" x="59.571" y="41.078" color-interpolation-filters="sRGB" filterUnits="userSpaceOnUse"><feFlood flood-opacity="0" result="BackgroundImageFix"/><feColorMatrix in="SourceAlpha" result="hardAlpha" values="0 0 0 0 0 0 0 0 0 0 0 0 0 0 0 0 0 0 127 0"/><feOffset dy="2"/><feGaussianBlur stdDeviation="2"/><feComposite in2="hardAlpha" operator="out"/><feColorMatrix values="0 0 0 0 0 0 0 0 0 0 0 0 0 0 0 0 0 0 0.25 0"/><feBlend in2="BackgroundImageFix" result="effect1_dropShadow_141_230"/><feBlend in="SourceGraphic" in2="effect1_dropShadow_141_230" result="shape"/></filter><filter id="g" width="52.772" height="36.162" x="59.571" y="36.075" color-interpolation-filters="sRGB" filterUnits="userSpaceOnUse"><feFlood flood-opacity="0" result="BackgroundImageFix"/><feColorMatrix in="SourceAlpha" result="hardAlpha" values="0 0 0 0 0 0 0 0 0 0 0 0 0 0 0 0 0 0 127 0"/><feOffset dy="2"/><feGaussianBlur stdDeviation="2"/><feComposite in2="hardAlpha" operator="out"/><feColorMatrix values="0 0 0 0 0 0 0 0 0 0 0 0 0 0 0 0 0 0 0.25 0"/><feBlend in2="BackgroundImageFix" result="effect1_dropShadow_141_230"/><feBlend in="SourceGraphic" in2="effect1_dropShadow_141_230" result="shape"/></filter><filter id="i" width="94.38" height="61.086" x="16.571" y="52.342" color-interpolation-filters="sRGB" filterUnits="userSpaceOnUse"><feFlood flood-opacity="0" result="BackgroundImageFix"/><feColorMatrix in="SourceAlpha" result="hardAlpha" values="0 0 0 0 0 0 0 0 0 0 0 0 0 0 0 0 0 0 127 0"/><feOffset dy="2"/><feGaussianBlur stdDeviation="2"/><feComposite in2="hardAlpha" operator="out"/><feColorMatrix values="0 0 0 0 0 0 0 0 0 0 0 0 0 0 0 0 0 0 0.25 0"/><feBlend in2="BackgroundImageFix" result="effect1_dropShadow_141_230"/><feBlend in="SourceGraphic" in2="effect1_dropShadow_141_230" result="shape"/></filter><filter id="k" width="89.02" height="78.422" x="16.571" y="17.657" color-interpolation-filters="sRGB" filterUnits="userSpaceOnUse"><feFlood flood-opacity="0" result="BackgroundImageFix"/><feColorMatrix in="SourceAlpha" result="hardAlpha" values="0 0 0 0 0 0 0 0 0 0 0 0 0 0 0 0 0 0 127 0"/><feOffset dy="2"/><feGaussianBlur stdDeviation="2"/><feComposite in2="hardAlpha" operator="out"/><feColorMatrix values="0 0 0 0 0 0 0 0 0 0 0 0 0 0 0 0 0 0 0.25 0"/><feBlend in2="BackgroundImageFix" result="effect1_dropShadow_141_230"/><feBlend in="SourceGraphic" in2="effect1_dropShadow_141_230" result="shape"/></filter><filter id="m" width="62.857" height="62.857" x="33.029" y="34.114" color-interpolation-filters="sRGB" filterUnits="userSpaceOnUse"><feFlood flood-opacity="0" result="BackgroundImageFix"/><feColorMatrix in="SourceAlpha" result="hardAlpha" values="0 0 0 0 0 0 0 0 0 0 0 0 0 0 0 0 0 0 127 0"/><feOffset dy="2"/><feGaussianBlur stdDeviation="2"/><feComposite in2="hardAlpha" operator="out"/><feColorMatrix values="0 0 0 0 0 0 0 0 0 0 0 0 0 0 0 0 0 0 0.25 0"/><feBlend in2="BackgroundImageFix" result="effect1_dropShadow_141_230"/><feBlend in="SourceGraphic" in2="effect1_dropShadow_141_230" result="shape"/></filter><clipPath id="d"><path fill="#fff" d="M16 16h96v96H16z"/></clipPath></defs></svg>