<svg xmlns="http://www.w3.org/2000/svg" width="128" height="128" fill="none"><rect width="128" height="128" fill="url(#a)" rx="32"/><g filter="url(#b)"><rect width="112" height="112" x="8" y="8" fill="#000" fill-opacity=".7" rx="24"/><g clip-path="url(#c)" filter="url(#d)"><g filter="url(#e)"><path fill="#07C3F2" d="m81.655 33.966 25.646 21.33-9.235 18.789-15.46-4.288H69.23z"/></g><g filter="url(#f)"><path fill="#21D789" d="m55.817 47.817-4.965 26.268-.475 8.923-12.516 5.422-17.747 1.91L25.5 33.59l32.156-13.476 19.812 12.992z"/></g><g filter="url(#g)"><path fill="#7AE46F" d="m55.817 47.817 2.414 50.615-8.019 9.454-30.098-17.545 24.713-36.828z"/></g><g filter="url(#h)"><path fill="#9AF156" d="M88.933 44.123h-30.41l26.871-24.009z"/></g><g filter="url(#i)"><path fill="#FCF84A" d="m107.886 98.633-26.77 9.088-35.648-10.039 10.35-49.865 4.132-3.693 21.705-2.04-1.966 21.797 17.262-6.692z"/></g><g filter="url(#j)"><path fill="#000" d="M36.572 36.571h54.857V91.43H36.572z"/></g><path fill="#fff" d="M43.41 81.06h20.572v3.43H43.41zm.019-37.631h8.411c4.9 0 7.872 2.907 7.872 7.104v.054c0 4.755-3.703 7.223-8.31 7.223H48v6.163h-4.57zm8.1 10.358c2.259 0 3.584-1.344 3.584-3.108v-.055c0-2.03-1.408-3.118-3.657-3.118H48v6.281zm10.634-.017v-.056A10.43 10.43 0 0 1 72.869 43.09a10.6 10.6 0 0 1 8.1 3.164l-2.87 3.319a7.62 7.62 0 0 0-5.258-2.323c-3.465 0-5.96 2.88-5.96 6.4v.064c0 3.52 2.44 6.455 5.96 6.455 2.35 0 3.785-.914 5.404-2.404l2.87 2.898a10.48 10.48 0 0 1-8.42 3.657 10.376 10.376 0 0 1-10.532-10.55"/></g></g><defs><filter id="b" width="112" height="116" x="8" y="8" color-interpolation-filters="sRGB" filterUnits="userSpaceOnUse"><feFlood flood-opacity="0" result="BackgroundImageFix"/><feBlend in="SourceGraphic" in2="BackgroundImageFix" result="shape"/><feColorMatrix in="SourceAlpha" result="hardAlpha" values="0 0 0 0 0 0 0 0 0 0 0 0 0 0 0 0 0 0 127 0"/><feOffset dy="4"/><feGaussianBlur stdDeviation="2"/><feComposite in2="hardAlpha" k2="-1" k3="1" operator="arithmetic"/><feColorMatrix values="0 0 0 0 0 0 0 0 0 0 0 0 0 0 0 0 0 0 0.25 0"/><feBlend in2="shape" result="effect1_innerShadow_141_18"/></filter><filter id="d" width="104" height="104" x="12" y="14" color-interpolation-filters="sRGB" filterUnits="userSpaceOnUse"><feFlood flood-opacity="0" result="BackgroundImageFix"/><feColorMatrix in="SourceAlpha" result="hardAlpha" values="0 0 0 0 0 0 0 0 0 0 0 0 0 0 0 0 0 0 127 0"/><feOffset dy="2"/><feGaussianBlur stdDeviation="2"/><feComposite in2="hardAlpha" operator="out"/><feColorMatrix values="0 0 0 0 0 0 0 0 0 0 0 0 0 0 0 0 0 0 0.25 0"/><feBlend in2="BackgroundImageFix" result="effect1_dropShadow_141_18"/><feBlend in="SourceGraphic" in2="effect1_dropShadow_141_18" result="shape"/></filter><filter id="e" width="46.071" height="48.119" x="65.23" y="31.966" color-interpolation-filters="sRGB" filterUnits="userSpaceOnUse"><feFlood flood-opacity="0" result="BackgroundImageFix"/><feColorMatrix in="SourceAlpha" result="hardAlpha" values="0 0 0 0 0 0 0 0 0 0 0 0 0 0 0 0 0 0 127 0"/><feOffset dy="2"/><feGaussianBlur stdDeviation="2"/><feComposite in2="hardAlpha" operator="out"/><feColorMatrix values="0 0 0 0 0 0 0 0 0 0 0 0 0 0 0 0 0 0 0.25 0"/><feBlend in2="BackgroundImageFix" result="effect1_dropShadow_141_18"/><feBlend in="SourceGraphic" in2="effect1_dropShadow_141_18" result="shape"/></filter><filter id="f" width="65.353" height="78.226" x="16.114" y="18.114" color-interpolation-filters="sRGB" filterUnits="userSpaceOnUse"><feFlood flood-opacity="0" result="BackgroundImageFix"/><feColorMatrix in="SourceAlpha" result="hardAlpha" values="0 0 0 0 0 0 0 0 0 0 0 0 0 0 0 0 0 0 127 0"/><feOffset dy="2"/><feGaussianBlur stdDeviation="2"/><feComposite in2="hardAlpha" operator="out"/><feColorMatrix values="0 0 0 0 0 0 0 0 0 0 0 0 0 0 0 0 0 0 0.25 0"/><feBlend in2="BackgroundImageFix" result="effect1_dropShadow_141_18"/><feBlend in="SourceGraphic" in2="effect1_dropShadow_141_18" result="shape"/></filter><filter id="g" width="46.117" height="68.069" x="16.114" y="45.817" color-interpolation-filters="sRGB" filterUnits="userSpaceOnUse"><feFlood flood-opacity="0" result="BackgroundImageFix"/><feColorMatrix in="SourceAlpha" result="hardAlpha" values="0 0 0 0 0 0 0 0 0 0 0 0 0 0 0 0 0 0 127 0"/><feOffset dy="2"/><feGaussianBlur stdDeviation="2"/><feComposite in2="hardAlpha" operator="out"/><feColorMatrix values="0 0 0 0 0 0 0 0 0 0 0 0 0 0 0 0 0 0 0.25 0"/><feBlend in2="BackgroundImageFix" result="effect1_dropShadow_141_18"/><feBlend in="SourceGraphic" in2="effect1_dropShadow_141_18" result="shape"/></filter><filter id="h" width="38.409" height="32.009" x="54.523" y="18.114" color-interpolation-filters="sRGB" filterUnits="userSpaceOnUse"><feFlood flood-opacity="0" result="BackgroundImageFix"/><feColorMatrix in="SourceAlpha" result="hardAlpha" values="0 0 0 0 0 0 0 0 0 0 0 0 0 0 0 0 0 0 127 0"/><feOffset dy="2"/><feGaussianBlur stdDeviation="2"/><feComposite in2="hardAlpha" operator="out"/><feColorMatrix values="0 0 0 0 0 0 0 0 0 0 0 0 0 0 0 0 0 0 0.25 0"/><feBlend in2="BackgroundImageFix" result="effect1_dropShadow_141_18"/><feBlend in="SourceGraphic" in2="effect1_dropShadow_141_18" result="shape"/></filter><filter id="i" width="70.418" height="73.637" x="41.468" y="40.085" color-interpolation-filters="sRGB" filterUnits="userSpaceOnUse"><feFlood flood-opacity="0" result="BackgroundImageFix"/><feColorMatrix in="SourceAlpha" result="hardAlpha" values="0 0 0 0 0 0 0 0 0 0 0 0 0 0 0 0 0 0 127 0"/><feOffset dy="2"/><feGaussianBlur stdDeviation="2"/><feComposite in2="hardAlpha" operator="out"/><feColorMatrix values="0 0 0 0 0 0 0 0 0 0 0 0 0 0 0 0 0 0 0.25 0"/><feBlend in2="BackgroundImageFix" result="effect1_dropShadow_141_18"/><feBlend in="SourceGraphic" in2="effect1_dropShadow_141_18" result="shape"/></filter><filter id="j" width="62.857" height="62.857" x="32.572" y="34.571" color-interpolation-filters="sRGB" filterUnits="userSpaceOnUse"><feFlood flood-opacity="0" result="BackgroundImageFix"/><feColorMatrix in="SourceAlpha" result="hardAlpha" values="0 0 0 0 0 0 0 0 0 0 0 0 0 0 0 0 0 0 127 0"/><feOffset dy="2"/><feGaussianBlur stdDeviation="2"/><feComposite in2="hardAlpha" operator="out"/><feColorMatrix values="0 0 0 0 0 0 0 0 0 0 0 0 0 0 0 0 0 0 0.25 0"/><feBlend in2="BackgroundImageFix" result="effect1_dropShadow_141_18"/><feBlend in="SourceGraphic" in2="effect1_dropShadow_141_18" result="shape"/></filter><linearGradient id="a" x1="64" x2="64" y1="0" y2="128" gradientUnits="userSpaceOnUse"><stop stop-color="#FCF84A"/><stop offset=".245" stop-color="#9AF156"/><stop offset=".51" stop-color="#7AE36F"/><stop offset=".745" stop-color="#21D789"/><stop offset="1" stop-color="#07C3F2"/></linearGradient><clipPath id="c"><path fill="#fff" d="M16 16h96v96H16z"/></clipPath></defs></svg>