<svg xmlns="http://www.w3.org/2000/svg" width="128" height="128" fill="none"><rect width="128" height="128" fill="url(#a)" rx="32"/><rect width="128" height="128" fill="url(#b)" rx="32"/><g filter="url(#c)"><rect width="112" height="112" x="8" y="8" fill="#000" fill-opacity=".7" rx="24"/><g clip-path="url(#d)"><g filter="url(#e)"><path fill="url(#f)" d="m80.5 57.797-46.297 9.705a28 28 0 0 0-3.578.795 18.17 18.17 0 0 0-9.255 6.353c-13.822 17.955 1.005 41.422 22.2 36.75l50.79-7.358a21.2 21.2 0 0 0 13.073-9c13.095-19.552-3.863-44.01-26.933-37.245"/></g><g filter="url(#g)"><path fill="url(#h)" d="M55.053 22.113c-5.708-5.25-14.093-7.688-23.505-4.936a19.34 19.34 0 0 0-9.84 6.75c-9.458 12.323-6.293 27.038 3.195 34.636L75.43 100.75a24.24 24.24 0 0 0 18.93 3.262 21.2 21.2 0 0 0 13.073-9c7.8-11.602 4.942-25.012-3.525-32.512z"/></g><g filter="url(#i)"><path fill="url(#j)" d="M38.005 16.113a32.6 32.6 0 0 0-6.458 1.064 19.34 19.34 0 0 0-9.84 6.75C7 43 22.75 67.976 45.31 63.004l60.547-22.838a6.96 6.96 0 0 0 4.29-2.94c3.75-5.655-.082-12.548-6.24-12.585L40.517 16c-.9 0-1.74.052-2.512.113"/></g><g filter="url(#k)"><path fill="#000" d="M34 34h60v60H34z"/></g><path fill="#fff" d="M41.5 82.75H64v3.75H41.5zM61 64.608l-2.475-2.25a12.24 12.24 0 0 1-6.667 1.92C44.935 64.315 40 59.155 40 52.75c0-6.382 5.032-11.61 12-11.61s11.895 5.16 11.895 11.542v.068c-.008 2.297-.7 4.54-1.988 6.443l2.31 1.957zm-6.127-5.453-3.623-3.113 3.142-3.525 3.683 3.338a7.8 7.8 0 0 0 .585-3.105 6.824 6.824 0 0 0-6.802-7.057c-3.975 0-6.75 3.142-6.75 6.99v.067a6.82 6.82 0 0 0 6.795 7.05 6.7 6.7 0 0 0 2.97-.645M67.653 41.5h8.46c7.05 0 11.925 4.845 11.925 11.16v.09c0 6.315-4.875 11.25-11.925 11.25h-8.46zm4.935 4.5v13.5h3.525c4.035 0 6.75-2.73 6.75-6.705v-.045a6.45 6.45 0 0 0-6.75-6.75z"/></g></g><defs><linearGradient id="a" x1="64" x2="64" y1="0" y2="128" gradientUnits="userSpaceOnUse"><stop stop-color="#3BEA62"/><stop offset=".51" stop-color="#087CFA"/><stop offset="1" stop-color="#B74AF7"/></linearGradient><linearGradient id="b" x1="39.261" x2="92.067" y1="111.31" y2="30.246" gradientUnits="userSpaceOnUse"><stop stop-color="#6B57FF"/><stop offset=".461" stop-color="#FF318C"/><stop offset="1" stop-color="#FDB60D"/></linearGradient><linearGradient id="f" x1="14.043" x2="92.388" y1="91.382" y2="80.117" gradientUnits="userSpaceOnUse"><stop offset=".18" stop-color="#FC801D"/><stop offset=".63" stop-color="#FF318C"/></linearGradient><linearGradient id="h" x1="2.613" x2="114.033" y1="14.822" y2="97.63" gradientUnits="userSpaceOnUse"><stop stop-color="#FF318C"/><stop offset=".4" stop-color="#B74AF7"/><stop offset=".87" stop-color="#FF318C"/></linearGradient><linearGradient id="j" x1="-10.332" x2="113.23" y1="51.513" y2="22.532" gradientUnits="userSpaceOnUse"><stop stop-color="#FF318C"/><stop offset=".2" stop-color="#D73BAB"/><stop offset=".51" stop-color="#9D4AD8"/><stop offset=".75" stop-color="#7953F4"/><stop offset=".87" stop-color="#6B57FF"/></linearGradient><filter id="c" width="112" height="116" x="8" y="8" color-interpolation-filters="sRGB" filterUnits="userSpaceOnUse"><feFlood flood-opacity="0" result="BackgroundImageFix"/><feBlend in="SourceGraphic" in2="BackgroundImageFix" result="shape"/><feColorMatrix in="SourceAlpha" result="hardAlpha" values="0 0 0 0 0 0 0 0 0 0 0 0 0 0 0 0 0 0 127 0"/><feOffset dy="4"/><feGaussianBlur stdDeviation="2"/><feComposite in2="hardAlpha" k2="-1" k3="1" operator="arithmetic"/><feColorMatrix values="0 0 0 0 0 0 0 0 0 0 0 0 0 0 0 0 0 0 0.25 0"/><feBlend in2="shape" result="effect1_innerShadow_141_254"/></filter><filter id="e" width="103.998" height="63.355" x="12.001" y="54.647" color-interpolation-filters="sRGB" filterUnits="userSpaceOnUse"><feFlood flood-opacity="0" result="BackgroundImageFix"/><feColorMatrix in="SourceAlpha" result="hardAlpha" values="0 0 0 0 0 0 0 0 0 0 0 0 0 0 0 0 0 0 127 0"/><feOffset dy="2"/><feGaussianBlur stdDeviation="2"/><feComposite in2="hardAlpha" operator="out"/><feColorMatrix values="0 0 0 0 0 0 0 0 0 0 0 0 0 0 0 0 0 0 0.25 0"/><feBlend in2="BackgroundImageFix" result="effect1_dropShadow_141_254"/><feBlend in="SourceGraphic" in2="effect1_dropShadow_141_254" result="shape"/></filter><filter id="g" width="103.997" height="96.655" x="12.004" y="14.034" color-interpolation-filters="sRGB" filterUnits="userSpaceOnUse"><feFlood flood-opacity="0" result="BackgroundImageFix"/><feColorMatrix in="SourceAlpha" result="hardAlpha" values="0 0 0 0 0 0 0 0 0 0 0 0 0 0 0 0 0 0 127 0"/><feOffset dy="2"/><feGaussianBlur stdDeviation="2"/><feComposite in2="hardAlpha" operator="out"/><feColorMatrix values="0 0 0 0 0 0 0 0 0 0 0 0 0 0 0 0 0 0 0.25 0"/><feBlend in2="BackgroundImageFix" result="effect1_dropShadow_141_254"/><feBlend in="SourceGraphic" in2="effect1_dropShadow_141_254" result="shape"/></filter><filter id="i" width="103.64" height="55.644" x="11.99" y="14" color-interpolation-filters="sRGB" filterUnits="userSpaceOnUse"><feFlood flood-opacity="0" result="BackgroundImageFix"/><feColorMatrix in="SourceAlpha" result="hardAlpha" values="0 0 0 0 0 0 0 0 0 0 0 0 0 0 0 0 0 0 127 0"/><feOffset dy="2"/><feGaussianBlur stdDeviation="2"/><feComposite in2="hardAlpha" operator="out"/><feColorMatrix values="0 0 0 0 0 0 0 0 0 0 0 0 0 0 0 0 0 0 0.25 0"/><feBlend in2="BackgroundImageFix" result="effect1_dropShadow_141_254"/><feBlend in="SourceGraphic" in2="effect1_dropShadow_141_254" result="shape"/></filter><filter id="k" width="68" height="68" x="30" y="32" color-interpolation-filters="sRGB" filterUnits="userSpaceOnUse"><feFlood flood-opacity="0" result="BackgroundImageFix"/><feColorMatrix in="SourceAlpha" result="hardAlpha" values="0 0 0 0 0 0 0 0 0 0 0 0 0 0 0 0 0 0 127 0"/><feOffset dy="2"/><feGaussianBlur stdDeviation="2"/><feComposite in2="hardAlpha" operator="out"/><feColorMatrix values="0 0 0 0 0 0 0 0 0 0 0 0 0 0 0 0 0 0 0.25 0"/><feBlend in2="BackgroundImageFix" result="effect1_dropShadow_141_254"/><feBlend in="SourceGraphic" in2="effect1_dropShadow_141_254" result="shape"/></filter><clipPath id="d"><path fill="#fff" d="M16 16h96v96H16z"/></clipPath></defs></svg>