<svg xmlns="http://www.w3.org/2000/svg" width="128" height="128" fill="none"><rect width="128" height="128" fill="url(#a)" rx="32"/><rect width="128" height="128" fill="url(#b)" rx="32"/><g filter="url(#c)"><rect width="112" height="112" x="8" y="8" fill="#000" fill-opacity=".7" rx="24"/><g clip-path="url(#d)"><g filter="url(#e)"><path fill="url(#f)" d="m43.803 39.67-2.578 45.944-6.629 22.162-14.482-58.852z"/></g><g filter="url(#g)"><path fill="url(#h)" d="m43.804 39.67 2.66-19.665 35.365 87.771H34.597l6.628-22.162z"/></g><g filter="url(#i)"><path fill="url(#j)" d="M64.32 79.022h43.566L93.321 20.004H46.464z"/></g><g filter="url(#k)"><path fill="#000" d="M36.572 36.571h54.857V91.43H36.572z"/></g><path fill="#fff" d="M43.41 81.06h20.572v3.43H43.41zm.019-37.686h9.399a8.15 8.15 0 0 1 6.006 2.093 6.4 6.4 0 0 1 1.774 4.718v.064a6.48 6.48 0 0 1-1.225 4.078 7.1 7.1 0 0 1-3.154 2.313l5.037 7.37h-5.302l-4.307-6.337H47.91v6.336h-4.48zm9.143 10.057a3.8 3.8 0 0 0 2.541-.86 2.74 2.74 0 0 0 .915-2.12v-.056a2.65 2.65 0 0 0-.915-2.212 4.16 4.16 0 0 0-2.624-.731h-4.562v5.942zm23.003-3.246h-4.718v-4.16h4.681v-4.644h4.28v4.644h4.754v4.16h-4.718v4.645h-4.28zM66.624 61.44h-4.672v-4.16h4.672v-4.645h4.279v4.645h4.672v4.16h-4.672v4.645h-4.279z"/></g></g><defs><linearGradient id="a" x1="64" x2="64" y1="0" y2="128" gradientUnits="userSpaceOnUse"><stop stop-color="#3BEA62"/><stop offset=".51" stop-color="#087CFA"/><stop offset="1" stop-color="#B74AF7"/></linearGradient><linearGradient id="b" x1="11.718" x2="133.395" y1="-5.255" y2="134.359" gradientUnits="userSpaceOnUse"><stop offset=".18" stop-color="#FDB60D"/><stop offset=".49" stop-color="#FF45ED"/><stop offset=".82" stop-color="#DD1265"/></linearGradient><linearGradient id="f" x1="26.542" x2="53.12" y1="41.701" y2="108.928" gradientUnits="userSpaceOnUse"><stop offset=".22" stop-color="#DD1265"/><stop offset=".74" stop-color="#FF45ED"/><stop offset="1" stop-color="#FDB60D"/></linearGradient><linearGradient id="h" x1="85.669" x2="20.672" y1="111.899" y2="42.761" gradientUnits="userSpaceOnUse"><stop offset=".11" stop-color="#FDB60D"/><stop offset=".51" stop-color="#FF45ED"/><stop offset=".76" stop-color="#FF45ED"/><stop offset="1" stop-color="#FDB60D"/></linearGradient><linearGradient id="j" x1="52.087" x2="107.84" y1="17.582" y2="84.16" gradientUnits="userSpaceOnUse"><stop offset=".18" stop-color="#FDB60D"/><stop offset=".49" stop-color="#FF45ED"/><stop offset=".82" stop-color="#DD1265"/></linearGradient><filter id="c" width="112" height="116" x="8" y="8" color-interpolation-filters="sRGB" filterUnits="userSpaceOnUse"><feFlood flood-opacity="0" result="BackgroundImageFix"/><feBlend in="SourceGraphic" in2="BackgroundImageFix" result="shape"/><feColorMatrix in="SourceAlpha" result="hardAlpha" values="0 0 0 0 0 0 0 0 0 0 0 0 0 0 0 0 0 0 127 0"/><feOffset dy="4"/><feGaussianBlur stdDeviation="2"/><feComposite in2="hardAlpha" k2="-1" k3="1" operator="arithmetic"/><feColorMatrix values="0 0 0 0 0 0 0 0 0 0 0 0 0 0 0 0 0 0 0.25 0"/><feBlend in2="shape" result="effect1_innerShadow_141_298"/></filter><filter id="e" width="31.689" height="76.105" x="16.114" y="37.671" color-interpolation-filters="sRGB" filterUnits="userSpaceOnUse"><feFlood flood-opacity="0" result="BackgroundImageFix"/><feColorMatrix in="SourceAlpha" result="hardAlpha" values="0 0 0 0 0 0 0 0 0 0 0 0 0 0 0 0 0 0 127 0"/><feOffset dy="2"/><feGaussianBlur stdDeviation="2"/><feComposite in2="hardAlpha" operator="out"/><feColorMatrix values="0 0 0 0 0 0 0 0 0 0 0 0 0 0 0 0 0 0 0.25 0"/><feBlend in2="BackgroundImageFix" result="effect1_dropShadow_141_298"/><feBlend in="SourceGraphic" in2="effect1_dropShadow_141_298" result="shape"/></filter><filter id="g" width="55.232" height="95.772" x="30.597" y="18.005" color-interpolation-filters="sRGB" filterUnits="userSpaceOnUse"><feFlood flood-opacity="0" result="BackgroundImageFix"/><feColorMatrix in="SourceAlpha" result="hardAlpha" values="0 0 0 0 0 0 0 0 0 0 0 0 0 0 0 0 0 0 127 0"/><feOffset dy="2"/><feGaussianBlur stdDeviation="2"/><feComposite in2="hardAlpha" operator="out"/><feColorMatrix values="0 0 0 0 0 0 0 0 0 0 0 0 0 0 0 0 0 0 0.25 0"/><feBlend in2="BackgroundImageFix" result="effect1_dropShadow_141_298"/><feBlend in="SourceGraphic" in2="effect1_dropShadow_141_298" result="shape"/></filter><filter id="i" width="69.422" height="67.017" x="42.464" y="18.005" color-interpolation-filters="sRGB" filterUnits="userSpaceOnUse"><feFlood flood-opacity="0" result="BackgroundImageFix"/><feColorMatrix in="SourceAlpha" result="hardAlpha" values="0 0 0 0 0 0 0 0 0 0 0 0 0 0 0 0 0 0 127 0"/><feOffset dy="2"/><feGaussianBlur stdDeviation="2"/><feComposite in2="hardAlpha" operator="out"/><feColorMatrix values="0 0 0 0 0 0 0 0 0 0 0 0 0 0 0 0 0 0 0.25 0"/><feBlend in2="BackgroundImageFix" result="effect1_dropShadow_141_298"/><feBlend in="SourceGraphic" in2="effect1_dropShadow_141_298" result="shape"/></filter><filter id="k" width="62.857" height="62.857" x="32.572" y="34.571" color-interpolation-filters="sRGB" filterUnits="userSpaceOnUse"><feFlood flood-opacity="0" result="BackgroundImageFix"/><feColorMatrix in="SourceAlpha" result="hardAlpha" values="0 0 0 0 0 0 0 0 0 0 0 0 0 0 0 0 0 0 127 0"/><feOffset dy="2"/><feGaussianBlur stdDeviation="2"/><feComposite in2="hardAlpha" operator="out"/><feColorMatrix values="0 0 0 0 0 0 0 0 0 0 0 0 0 0 0 0 0 0 0.25 0"/><feBlend in2="BackgroundImageFix" result="effect1_dropShadow_141_298"/><feBlend in="SourceGraphic" in2="effect1_dropShadow_141_298" result="shape"/></filter><clipPath id="d"><path fill="#fff" d="M16 16h96v96H16z"/></clipPath></defs></svg>