<svg xmlns="http://www.w3.org/2000/svg" width="128" height="128" fill="none"><rect width="128" height="128" fill="url(#a)" rx="32"/><rect width="128" height="128" fill="url(#b)" rx="32"/><g filter="url(#c)"><rect width="112" height="112" x="8" y="8" fill="#000" fill-opacity=".7" rx="24"/><g clip-path="url(#d)"><g filter="url(#e)"><path fill="url(#f)" d="M83.806 39.198 52.693 78.513l-7.022 28.745h47.232l14.483-58.853z"/></g><g filter="url(#g)"><path fill="url(#h)" d="M81.036 19.486H34.179L19.614 78.513h69.724z"/></g><g filter="url(#i)"><path fill="url(#j)" d="m83.477 36.181-2.44-16.695-5.267 16.695z"/></g><g filter="url(#k)"><path fill="#000" d="M36.072 36.071h54.857V90.93H36.072z"/></g><g fill="#fff" filter="url(#l)"><path d="M42.91 80.56h20.572v3.43H42.91zm22.455-21.467h-2.24v-3.767h2.89l.73-4.37h-2.587V47.18h3.237l.74-4.306h3.895l-.758 4.306h4.297l.74-4.297h3.886l-.731 4.297h2.24v3.776h-2.89l-.74 4.37h2.596v3.767h-3.245l-.768 4.425H72.77l.759-4.425h-4.27l-.731 4.425h-3.932zm8.814-3.767.75-4.37H70.64l-.732 4.37zm-31.25-12.452h9.453a8.17 8.17 0 0 1 6.016 2.093 6.4 6.4 0 0 1 1.765 4.718v.055a6.4 6.4 0 0 1-1.225 4.087 7.1 7.1 0 0 1-3.21 2.313l5.038 7.37h-5.302l-4.27-6.337H47.5v6.336h-4.57zm9.143 10.057a3.8 3.8 0 0 0 2.596-.86 2.74 2.74 0 0 0 .914-2.12v-.056a2.62 2.62 0 0 0-.914-2.212 4.15 4.15 0 0 0-2.624-.74H47.5v5.951z"/></g></g></g><defs><filter id="c" width="112" height="116" x="8" y="8" color-interpolation-filters="sRGB" filterUnits="userSpaceOnUse"><feFlood flood-opacity="0" result="BackgroundImageFix"/><feBlend in="SourceGraphic" in2="BackgroundImageFix" result="shape"/><feColorMatrix in="SourceAlpha" result="hardAlpha" values="0 0 0 0 0 0 0 0 0 0 0 0 0 0 0 0 0 0 127 0"/><feOffset dy="4"/><feGaussianBlur stdDeviation="2"/><feComposite in2="hardAlpha" k2="-1" k3="1" operator="arithmetic"/><feColorMatrix values="0 0 0 0 0 0 0 0 0 0 0 0 0 0 0 0 0 0 0.25 0"/><feBlend in2="shape" result="effect1_innerShadow_141_276"/></filter><filter id="e" width="69.029" height="75.374" x="42.014" y="37.37" color-interpolation-filters="sRGB" filterUnits="userSpaceOnUse"><feFlood flood-opacity="0" result="BackgroundImageFix"/><feColorMatrix in="SourceAlpha" result="hardAlpha" values="0 0 0 0 0 0 0 0 0 0 0 0 0 0 0 0 0 0 127 0"/><feOffset dy="1.829"/><feGaussianBlur stdDeviation="1.829"/><feComposite in2="hardAlpha" operator="out"/><feColorMatrix values="0 0 0 0 0 0 0 0 0 0 0 0 0 0 0 0 0 0 0.25 0"/><feBlend in2="BackgroundImageFix" result="effect1_dropShadow_141_276"/><feBlend in="SourceGraphic" in2="effect1_dropShadow_141_276" result="shape"/></filter><filter id="g" width="77.038" height="66.341" x="15.957" y="17.658" color-interpolation-filters="sRGB" filterUnits="userSpaceOnUse"><feFlood flood-opacity="0" result="BackgroundImageFix"/><feColorMatrix in="SourceAlpha" result="hardAlpha" values="0 0 0 0 0 0 0 0 0 0 0 0 0 0 0 0 0 0 127 0"/><feOffset dy="1.829"/><feGaussianBlur stdDeviation="1.829"/><feComposite in2="hardAlpha" operator="out"/><feColorMatrix values="0 0 0 0 0 0 0 0 0 0 0 0 0 0 0 0 0 0 0.25 0"/><feBlend in2="BackgroundImageFix" result="effect1_dropShadow_141_276"/><feBlend in="SourceGraphic" in2="effect1_dropShadow_141_276" result="shape"/></filter><filter id="i" width="15.022" height="24.009" x="72.113" y="17.658" color-interpolation-filters="sRGB" filterUnits="userSpaceOnUse"><feFlood flood-opacity="0" result="BackgroundImageFix"/><feColorMatrix in="SourceAlpha" result="hardAlpha" values="0 0 0 0 0 0 0 0 0 0 0 0 0 0 0 0 0 0 127 0"/><feOffset dy="1.829"/><feGaussianBlur stdDeviation="1.829"/><feComposite in2="hardAlpha" operator="out"/><feColorMatrix values="0 0 0 0 0 0 0 0 0 0 0 0 0 0 0 0 0 0 0.25 0"/><feBlend in2="BackgroundImageFix" result="effect1_dropShadow_141_276"/><feBlend in="SourceGraphic" in2="effect1_dropShadow_141_276" result="shape"/></filter><filter id="k" width="62.172" height="62.172" x="32.414" y="34.243" color-interpolation-filters="sRGB" filterUnits="userSpaceOnUse"><feFlood flood-opacity="0" result="BackgroundImageFix"/><feColorMatrix in="SourceAlpha" result="hardAlpha" values="0 0 0 0 0 0 0 0 0 0 0 0 0 0 0 0 0 0 127 0"/><feOffset dy="1.829"/><feGaussianBlur stdDeviation="1.829"/><feComposite in2="hardAlpha" operator="out"/><feColorMatrix values="0 0 0 0 0 0 0 0 0 0 0 0 0 0 0 0 0 0 0.25 0"/><feBlend in2="BackgroundImageFix" result="effect1_dropShadow_141_276"/><feBlend in="SourceGraphic" in2="effect1_dropShadow_141_276" result="shape"/></filter><filter id="l" width="46.108" height="48.447" x="39.253" y="41.028" color-interpolation-filters="sRGB" filterUnits="userSpaceOnUse"><feFlood flood-opacity="0" result="BackgroundImageFix"/><feColorMatrix in="SourceAlpha" result="hardAlpha" values="0 0 0 0 0 0 0 0 0 0 0 0 0 0 0 0 0 0 127 0"/><feOffset dy="1.829"/><feGaussianBlur stdDeviation="1.829"/><feComposite in2="hardAlpha" operator="out"/><feColorMatrix values="0 0 0 0 0 0 0 0 0 0 0 0 0 0 0 0 0 0 0.25 0"/><feBlend in2="BackgroundImageFix" result="effect1_dropShadow_141_276"/><feBlend in="SourceGraphic" in2="effect1_dropShadow_141_276" result="shape"/></filter><linearGradient id="a" x1="64" x2="64" y1="0" y2="128" gradientUnits="userSpaceOnUse"><stop stop-color="#3BEA62"/><stop offset=".51" stop-color="#087CFA"/><stop offset="1" stop-color="#B74AF7"/></linearGradient><linearGradient id="b" x1="35.537" x2="103.983" y1="128.344" y2="18.346" gradientUnits="userSpaceOnUse"><stop offset=".02" stop-color="#FF45ED"/><stop offset=".4" stop-color="#DD1265"/><stop offset="1" stop-color="#FDB60D"/></linearGradient><linearGradient id="f" x1="62.805" x2="100.657" y1="107.441" y2="52.282" gradientUnits="userSpaceOnUse"><stop offset=".02" stop-color="#FF45ED"/><stop offset=".4" stop-color="#DD1265"/><stop offset="1" stop-color="#FDB60D"/></linearGradient><linearGradient id="h" x1="21.909" x2="80.835" y1="86.476" y2="31.052" gradientUnits="userSpaceOnUse"><stop offset=".02" stop-color="#FF45ED"/><stop offset=".66" stop-color="#DD1265"/></linearGradient><linearGradient id="j" x1="79.299" x2="79.902" y1="17.411" y2="52.236" gradientUnits="userSpaceOnUse"><stop stop-color="#DD1265"/><stop offset=".06" stop-color="#DF1961"/><stop offset=".7" stop-color="#F46330"/><stop offset="1" stop-color="#FC801D"/></linearGradient><clipPath id="d"><path fill="#fff" d="M15.5 15.5h96v96h-96z"/></clipPath></defs></svg>