<svg xmlns="http://www.w3.org/2000/svg" width="128" height="128" fill="none"><rect width="128" height="128" fill="url(#a)" rx="32"/><g filter="url(#b)"><rect width="112" height="112" x="8" y="8" fill="#000" fill-opacity=".7" rx="24"/><g filter="url(#c)"><path stroke="url(#d)" stroke-linecap="round" stroke-linejoin="round" stroke-width="8" d="m64 104 32.985-18.848A4 4 0 0 0 99 81.679V44m-35 60L31.015 85.152A4 4 0 0 1 29 81.679V44m35 60V64M29 44l35 20M29 44l17.5-10M99 44 65.985 25.134a4 4 0 0 0-3.97 0L46.5 34M99 44 81.5 54M64 64l17.5-10m-35-20 35 20" shape-rendering="crispEdges"/></g></g><defs><linearGradient id="a" x1="64" x2="64" y1="0" y2="128" gradientUnits="userSpaceOnUse"><stop stop-color="#CB02C5"/><stop offset=".245" stop-color="#C101DA"/><stop offset=".51" stop-color="#B600F0"/><stop offset=".745" stop-color="#8900D9"/><stop offset="1" stop-color="#5800BF"/></linearGradient><linearGradient id="d" x1="64" x2="64" y1="24" y2="104" gradientUnits="userSpaceOnUse"><stop stop-color="#C301D5"/><stop offset=".505" stop-color="#B600EF"/><stop offset="1" stop-color="#8100D4"/></linearGradient><filter id="b" width="112" height="116" x="8" y="8" color-interpolation-filters="sRGB" filterUnits="userSpaceOnUse"><feFlood flood-opacity="0" result="BackgroundImageFix"/><feBlend in="SourceGraphic" in2="BackgroundImageFix" result="shape"/><feColorMatrix in="SourceAlpha" result="hardAlpha" values="0 0 0 0 0 0 0 0 0 0 0 0 0 0 0 0 0 0 127 0"/><feOffset dy="4"/><feGaussianBlur stdDeviation="2"/><feComposite in2="hardAlpha" k2="-1" k3="1" operator="arithmetic"/><feColorMatrix values="0 0 0 0 0 0 0 0 0 0 0 0 0 0 0 0 0 0 0.25 0"/><feBlend in2="shape" result="effect1_innerShadow_66_79"/></filter><filter id="c" width="86" height="95.393" x="21" y="18.607" color-interpolation-filters="sRGB" filterUnits="userSpaceOnUse"><feFlood flood-opacity="0" result="BackgroundImageFix"/><feColorMatrix in="SourceAlpha" result="hardAlpha" values="0 0 0 0 0 0 0 0 0 0 0 0 0 0 0 0 0 0 127 0"/><feOffset dy="2"/><feGaussianBlur stdDeviation="2"/><feComposite in2="hardAlpha" operator="out"/><feColorMatrix values="0 0 0 0 0 0 0 0 0 0 0 0 0 0 0 0 0 0 0.25 0"/><feBlend in2="BackgroundImageFix" result="effect1_dropShadow_66_79"/><feBlend in="SourceGraphic" in2="effect1_dropShadow_66_79" result="shape"/></filter></defs></svg>