<svg xmlns="http://www.w3.org/2000/svg" width="128" height="128" fill="none"><rect width="128" height="128" fill="url(#a)" rx="32"/><g filter="url(#b)"><rect width="112" height="112" x="8" y="8" fill="#000" fill-opacity=".7" rx="24"/><g filter="url(#c)"><path stroke="url(#d)" stroke-width="8" d="M43.25 23a12 12 0 0 1 9.984 5.344l.5.75 3.329-2.219-3.329 2.219A20 20 0 0 0 70.375 38H93c6.627 0 12 5.373 12 12v43c0 6.627-5.373 12-12 12H35c-6.627 0-12-5.373-12-12V35c0-6.627 5.373-12 12-12z" shape-rendering="crispEdges"/></g><g filter="url(#e)"><path fill="#8B00E7" fill-rule="evenodd" d="M54.023 70.396c.882 5.077 5.502 8.96 11.05 8.96h17.724c3.091 0 5.91-.914 7.934-3.115 2-2.177 3.132-5.179 3.269-8.681v-.082c0-3.373-1.39-6.784-3.91-9.061-2.435-2.201-5.676-3.414-9.125-3.414H70.88v-1.547c0-.615-.382-1.104-.894-1.326a1.55 1.55 0 0 0-1.38.067l-6.59 3.646a1.42 1.42 0 0 0 0 2.514l6.59 3.644c.455.252.96.249 1.38.066.512-.221.894-.708.894-1.323v-1.27h10.085c2.252 0 4.354 1.079 5.92 2.493a7.35 7.35 0 0 1 2.446 5.47c-.198 4.707-2.76 7.446-6.534 7.446H65.073c-3.161 0-5.808-2.161-6.406-5.023a1.575 1.575 0 0 0-1.555-1.234h-1.53c-.98 0-1.721.845-1.56 1.77" clip-rule="evenodd"/><path fill="#D404FF" d="M47.035 86.997c-3.449 0-6.69-1.211-9.125-3.412-2.52-2.28-3.91-5.688-3.91-9.061v-.084c.137-3.5 1.268-6.504 3.27-8.681 2.024-2.2 4.841-3.114 7.933-3.114h17.724c5.548 0 10.168 3.882 11.05 8.959.162.927-.58 1.772-1.56 1.772h-1.53c-.759 0-1.405-.52-1.554-1.234-.598-2.862-3.245-5.025-6.406-5.025H45.203c-3.775 0-6.336 2.74-6.534 7.446a7.34 7.34 0 0 0 2.446 5.47c1.566 1.416 3.668 2.492 5.92 2.492H57.12v-1.267c0-1.07 1.154-1.755 2.14-1.325q.068.03.135.066l6.588 3.644a1.422 1.422 0 0 1 0 2.516l-6.26 3.462s-.417.228-.464.249c-.985.43-2.14-.256-2.14-1.324v-1.549z"/></g></g><defs><filter id="b" width="112" height="116" x="8" y="8" color-interpolation-filters="sRGB" filterUnits="userSpaceOnUse"><feFlood flood-opacity="0" result="BackgroundImageFix"/><feBlend in="SourceGraphic" in2="BackgroundImageFix" result="shape"/><feColorMatrix in="SourceAlpha" result="hardAlpha" values="0 0 0 0 0 0 0 0 0 0 0 0 0 0 0 0 0 0 127 0"/><feOffset dy="4"/><feGaussianBlur stdDeviation="2"/><feComposite in2="hardAlpha" k2="-1" k3="1" operator="arithmetic"/><feColorMatrix values="0 0 0 0 0 0 0 0 0 0 0 0 0 0 0 0 0 0 0.25 0"/><feBlend in2="shape" result="effect1_innerShadow_66_80"/></filter><filter id="c" width="98" height="98" x="15" y="17" color-interpolation-filters="sRGB" filterUnits="userSpaceOnUse"><feFlood flood-opacity="0" result="BackgroundImageFix"/><feColorMatrix in="SourceAlpha" result="hardAlpha" values="0 0 0 0 0 0 0 0 0 0 0 0 0 0 0 0 0 0 127 0"/><feOffset dy="2"/><feGaussianBlur stdDeviation="2"/><feComposite in2="hardAlpha" operator="out"/><feColorMatrix values="0 0 0 0 0 0 0 0 0 0 0 0 0 0 0 0 0 0 0.25 0"/><feBlend in2="BackgroundImageFix" result="effect1_dropShadow_66_80"/><feBlend in="SourceGraphic" in2="effect1_dropShadow_66_80" result="shape"/></filter><filter id="e" width="68" height="46" x="30" y="50" color-interpolation-filters="sRGB" filterUnits="userSpaceOnUse"><feFlood flood-opacity="0" result="BackgroundImageFix"/><feColorMatrix in="SourceAlpha" result="hardAlpha" values="0 0 0 0 0 0 0 0 0 0 0 0 0 0 0 0 0 0 127 0"/><feOffset dy="2"/><feGaussianBlur stdDeviation="2"/><feComposite in2="hardAlpha" operator="out"/><feColorMatrix values="0 0 0 0 0 0 0 0 0 0 0 0 0 0 0 0 0 0 0.25 0"/><feBlend in2="BackgroundImageFix" result="effect1_dropShadow_66_80"/><feBlend in="SourceGraphic" in2="effect1_dropShadow_66_80" result="shape"/></filter><linearGradient id="a" x1="64" x2="64" y1="0" y2="128" gradientUnits="userSpaceOnUse"><stop stop-color="#CB02C5"/><stop offset=".245" stop-color="#C101DA"/><stop offset=".51" stop-color="#B600F0"/><stop offset=".745" stop-color="#8900D9"/><stop offset="1" stop-color="#5800BF"/></linearGradient><linearGradient id="d" x1="64" x2="64" y1="19" y2="109" gradientUnits="userSpaceOnUse"><stop stop-color="#C301D5"/><stop offset=".505" stop-color="#B600EF"/><stop offset="1" stop-color="#8100D4"/></linearGradient></defs></svg>