<svg xmlns="http://www.w3.org/2000/svg" width="128" height="128" fill="none"><rect width="128" height="128" fill="url(#a)" rx="32"/><g filter="url(#b)"><rect width="112" height="112" x="8" y="8" fill="#000" fill-opacity=".7" rx="24"/><g clip-path="url(#c)"><g filter="url(#d)"><path fill="url(#e)" d="M107.386 53.653 45.854 19.505l41.198 61.21 8.466-5.549z"/></g><g filter="url(#f)"><path fill="url(#g)" d="M82.837 39.729 75.13 20.885 58.078 37.671l6.976 60.91 16.522 8.695 25.81-15.077z"/></g><g filter="url(#h)"><path fill="url(#i)" d="m45.854 19.505-26.24 17.673 9.756 60.279 25.16 9.673 32.522-26.414z"/></g><g filter="url(#j)"><path fill="#000" d="M36.072 36.071h54.857V90.93H36.072z"/></g><path fill="#fff" d="M42.91 80.56h20.572v3.43H42.91zm.019-37.705h9.417a8.23 8.23 0 0 1 6.007 2.094 6.47 6.47 0 0 1 1.773 4.718v.055a6.4 6.4 0 0 1-4.425 6.4l5.047 7.369h-5.312L51.02 56.89H47.5v6.6h-4.57zm9.143 10.058c2.212 0 3.483-1.18 3.483-2.917v-.055c0-1.947-1.353-2.953-3.566-2.953H47.5v5.925zm11.821-10.058h8.046c6.482 0 10.972 4.453 10.972 10.259v.064c0 5.805-4.48 10.313-10.972 10.313h-8.046zm4.572 4.096v12.435h3.51a5.88 5.88 0 0 0 6.218-6.163v-.054a5.934 5.934 0 0 0-6.217-6.227z"/></g></g><defs><filter id="b" width="112" height="116" x="8" y="8" color-interpolation-filters="sRGB" filterUnits="userSpaceOnUse"><feFlood flood-opacity="0" result="BackgroundImageFix"/><feBlend in="SourceGraphic" in2="BackgroundImageFix" result="shape"/><feColorMatrix in="SourceAlpha" result="hardAlpha" values="0 0 0 0 0 0 0 0 0 0 0 0 0 0 0 0 0 0 127 0"/><feOffset dy="4"/><feGaussianBlur stdDeviation="2"/><feComposite in2="hardAlpha" k2="-1" k3="1" operator="arithmetic"/><feColorMatrix values="0 0 0 0 0 0 0 0 0 0 0 0 0 0 0 0 0 0 0.25 0"/><feBlend in2="shape" result="effect1_innerShadow_141_321"/></filter><filter id="d" width="69.531" height="69.211" x="41.854" y="17.505" color-interpolation-filters="sRGB" filterUnits="userSpaceOnUse"><feFlood flood-opacity="0" result="BackgroundImageFix"/><feColorMatrix in="SourceAlpha" result="hardAlpha" values="0 0 0 0 0 0 0 0 0 0 0 0 0 0 0 0 0 0 127 0"/><feOffset dy="2"/><feGaussianBlur stdDeviation="2"/><feComposite in2="hardAlpha" operator="out"/><feColorMatrix values="0 0 0 0 0 0 0 0 0 0 0 0 0 0 0 0 0 0 0.25 0"/><feBlend in2="BackgroundImageFix" result="effect1_dropShadow_141_321"/><feBlend in="SourceGraphic" in2="effect1_dropShadow_141_321" result="shape"/></filter><filter id="f" width="57.307" height="94.391" x="54.078" y="18.885" color-interpolation-filters="sRGB" filterUnits="userSpaceOnUse"><feFlood flood-opacity="0" result="BackgroundImageFix"/><feColorMatrix in="SourceAlpha" result="hardAlpha" values="0 0 0 0 0 0 0 0 0 0 0 0 0 0 0 0 0 0 127 0"/><feOffset dy="2"/><feGaussianBlur stdDeviation="2"/><feComposite in2="hardAlpha" operator="out"/><feColorMatrix values="0 0 0 0 0 0 0 0 0 0 0 0 0 0 0 0 0 0 0.25 0"/><feBlend in2="BackgroundImageFix" result="effect1_dropShadow_141_321"/><feBlend in="SourceGraphic" in2="effect1_dropShadow_141_321" result="shape"/></filter><filter id="h" width="75.438" height="95.625" x="15.614" y="17.505" color-interpolation-filters="sRGB" filterUnits="userSpaceOnUse"><feFlood flood-opacity="0" result="BackgroundImageFix"/><feColorMatrix in="SourceAlpha" result="hardAlpha" values="0 0 0 0 0 0 0 0 0 0 0 0 0 0 0 0 0 0 127 0"/><feOffset dy="2"/><feGaussianBlur stdDeviation="2"/><feComposite in2="hardAlpha" operator="out"/><feColorMatrix values="0 0 0 0 0 0 0 0 0 0 0 0 0 0 0 0 0 0 0.25 0"/><feBlend in2="BackgroundImageFix" result="effect1_dropShadow_141_321"/><feBlend in="SourceGraphic" in2="effect1_dropShadow_141_321" result="shape"/></filter><filter id="j" width="62.857" height="62.857" x="32.072" y="34.071" color-interpolation-filters="sRGB" filterUnits="userSpaceOnUse"><feFlood flood-opacity="0" result="BackgroundImageFix"/><feColorMatrix in="SourceAlpha" result="hardAlpha" values="0 0 0 0 0 0 0 0 0 0 0 0 0 0 0 0 0 0 127 0"/><feOffset dy="2"/><feGaussianBlur stdDeviation="2"/><feComposite in2="hardAlpha" operator="out"/><feColorMatrix values="0 0 0 0 0 0 0 0 0 0 0 0 0 0 0 0 0 0 0.25 0"/><feBlend in2="BackgroundImageFix" result="effect1_dropShadow_141_321"/><feBlend in="SourceGraphic" in2="effect1_dropShadow_141_321" result="shape"/></filter><linearGradient id="a" x1="64" x2="64" y1="0" y2="128" gradientUnits="userSpaceOnUse"><stop stop-color="#087CFA"/><stop offset=".318" stop-color="#963597"/><stop offset=".672" stop-color="#DD1265"/><stop offset="1" stop-color="#ED6438"/></linearGradient><linearGradient id="e" x1="101.745" x2="34.087" y1="69.781" y2="30.96" gradientUnits="userSpaceOnUse"><stop stop-color="#DD1265"/><stop offset=".48" stop-color="#DD1265"/><stop offset=".94" stop-color="#FDB60D"/></linearGradient><linearGradient id="g" x1="61.516" x2="88.332" y1="27.166" y2="101.223" gradientUnits="userSpaceOnUse"><stop offset=".14" stop-color="#087CFA"/><stop offset=".48" stop-color="#DD1265"/><stop offset=".96" stop-color="#087CFA"/></linearGradient><linearGradient id="i" x1="41.429" x2="61.233" y1="29.452" y2="99.852" gradientUnits="userSpaceOnUse"><stop offset=".28" stop-color="#DD1265"/><stop offset=".97" stop-color="#FDB60D"/></linearGradient><clipPath id="c"><path fill="#fff" d="M15.5 15.5h96v96h-96z"/></clipPath></defs></svg>