<svg xmlns="http://www.w3.org/2000/svg" width="128" height="128" fill="none"><rect width="128" height="128" fill="url(#a)" rx="32"/><rect width="128" height="128" fill="url(#b)" rx="32"/><g filter="url(#c)"><rect width="112" height="112" x="8" y="8" fill="#000" fill-opacity=".7" rx="24"/><g clip-path="url(#d)"><g filter="url(#e)"><path fill="url(#f)" d="M92.197 20.114 67.08 29.111l-19.794-8.997-6.519 16.42h-4.215V85.01l60.956.53 9.463-48.274z"/></g><g filter="url(#g)"><path fill="url(#h)" d="M91.447 51.611 51.337 27.84l40.11 47.013z"/></g><g filter="url(#i)"><path fill="url(#j)" d="m55.735 105.6 32.804-4.37-5.092-9.792h8V74.853L51.328 27.767 19.2 35.657l.037 46.08 18.468 26.149 17.93-2.277.082-.009z"/></g><g filter="url(#k)"><path fill="#000" d="M36.572 36.571h54.857V91.43H36.572z"/></g><path fill="#fff" d="M43.41 81.06h20.572v3.43H43.41zm20.325-37.659h4.891l5.422 8.722 5.422-8.722h4.891v20.617h-4.507V50.56l-5.806 8.805h-.119l-5.742-8.714v13.367h-4.452zm-20.306.028h9.417q3.913 0 5.998 2.084a6.4 6.4 0 0 1 1.764 4.709v.064a6.4 6.4 0 0 1-1.225 4.068 7.1 7.1 0 0 1-3.19 2.313l5.037 7.315h-5.303l-4.27-6.318h-3.74v6.327H43.43zm9.143 9.974a3.77 3.77 0 0 0 2.532-.832 2.74 2.74 0 0 0 .914-2.12v-.056a2.6 2.6 0 0 0-.914-2.203 4.14 4.14 0 0 0-2.615-.74h-4.553v5.915z"/></g></g><defs><linearGradient id="a" x1="64" x2="64" y1="0" y2="128" gradientUnits="userSpaceOnUse"><stop stop-color="#087CFA"/><stop offset=".318" stop-color="#963597"/><stop offset=".672" stop-color="#DD1265"/><stop offset="1" stop-color="#ED6438"/></linearGradient><linearGradient id="b" x1=".68" x2="88.216" y1="10.239" y2="133.63" gradientUnits="userSpaceOnUse"><stop stop-color="#6B57FF"/><stop offset=".3" stop-color="#FE2857"/><stop offset=".63" stop-color="#FE2857"/><stop offset=".64" stop-color="#FE3052"/><stop offset=".7" stop-color="#FD533B"/><stop offset=".76" stop-color="#FC6C2A"/><stop offset=".81" stop-color="#FC7B20"/><stop offset=".85" stop-color="#FC801D"/></linearGradient><linearGradient id="f" x1="75.474" x2="64.375" y1="70.885" y2="41.764" gradientUnits="userSpaceOnUse"><stop stop-color="#FE2857"/><stop offset=".06" stop-color="#FE3052"/><stop offset=".33" stop-color="#FD533B"/><stop offset=".58" stop-color="#FC6C2A"/><stop offset=".81" stop-color="#FC7B20"/><stop offset="1" stop-color="#FC801D"/></linearGradient><linearGradient id="h" x1="54.336" x2="71.47" y1="29.211" y2="44.919" gradientUnits="userSpaceOnUse"><stop stop-color="#6B57FF"/><stop offset="1" stop-color="#FE2857"/></linearGradient><linearGradient id="j" x1="19.584" x2="76.004" y1="34.176" y2="105.893" gradientUnits="userSpaceOnUse"><stop stop-color="#6B57FF"/><stop offset=".3" stop-color="#FE2857"/><stop offset=".63" stop-color="#FE2857"/><stop offset=".64" stop-color="#FE3052"/><stop offset=".7" stop-color="#FD533B"/><stop offset=".76" stop-color="#FC6C2A"/><stop offset=".81" stop-color="#FC7B20"/><stop offset=".85" stop-color="#FC801D"/></linearGradient><filter id="c" width="112" height="116" x="8" y="8" color-interpolation-filters="sRGB" filterUnits="userSpaceOnUse"><feFlood flood-opacity="0" result="BackgroundImageFix"/><feBlend in="SourceGraphic" in2="BackgroundImageFix" result="shape"/><feColorMatrix in="SourceAlpha" result="hardAlpha" values="0 0 0 0 0 0 0 0 0 0 0 0 0 0 0 0 0 0 127 0"/><feOffset dy="4"/><feGaussianBlur stdDeviation="2"/><feComposite in2="hardAlpha" k2="-1" k3="1" operator="arithmetic"/><feColorMatrix values="0 0 0 0 0 0 0 0 0 0 0 0 0 0 0 0 0 0 0.25 0"/><feBlend in2="shape" result="effect1_innerShadow_141_369"/></filter><filter id="e" width="78.418" height="73.426" x="32.553" y="18.114" color-interpolation-filters="sRGB" filterUnits="userSpaceOnUse"><feFlood flood-opacity="0" result="BackgroundImageFix"/><feColorMatrix in="SourceAlpha" result="hardAlpha" values="0 0 0 0 0 0 0 0 0 0 0 0 0 0 0 0 0 0 127 0"/><feOffset dy="2"/><feGaussianBlur stdDeviation="2"/><feComposite in2="hardAlpha" operator="out"/><feColorMatrix values="0 0 0 0 0 0 0 0 0 0 0 0 0 0 0 0 0 0 0.25 0"/><feBlend in2="BackgroundImageFix" result="effect1_dropShadow_141_369"/><feBlend in="SourceGraphic" in2="effect1_dropShadow_141_369" result="shape"/></filter><filter id="g" width="48.11" height="55.013" x="47.337" y="25.84" color-interpolation-filters="sRGB" filterUnits="userSpaceOnUse"><feFlood flood-opacity="0" result="BackgroundImageFix"/><feColorMatrix in="SourceAlpha" result="hardAlpha" values="0 0 0 0 0 0 0 0 0 0 0 0 0 0 0 0 0 0 127 0"/><feOffset dy="2"/><feGaussianBlur stdDeviation="2"/><feComposite in2="hardAlpha" operator="out"/><feColorMatrix values="0 0 0 0 0 0 0 0 0 0 0 0 0 0 0 0 0 0 0.25 0"/><feBlend in2="BackgroundImageFix" result="effect1_dropShadow_141_369"/><feBlend in="SourceGraphic" in2="effect1_dropShadow_141_369" result="shape"/></filter><filter id="i" width="80.247" height="88.119" x="15.2" y="25.767" color-interpolation-filters="sRGB" filterUnits="userSpaceOnUse"><feFlood flood-opacity="0" result="BackgroundImageFix"/><feColorMatrix in="SourceAlpha" result="hardAlpha" values="0 0 0 0 0 0 0 0 0 0 0 0 0 0 0 0 0 0 127 0"/><feOffset dy="2"/><feGaussianBlur stdDeviation="2"/><feComposite in2="hardAlpha" operator="out"/><feColorMatrix values="0 0 0 0 0 0 0 0 0 0 0 0 0 0 0 0 0 0 0.25 0"/><feBlend in2="BackgroundImageFix" result="effect1_dropShadow_141_369"/><feBlend in="SourceGraphic" in2="effect1_dropShadow_141_369" result="shape"/></filter><filter id="k" width="62.857" height="62.857" x="32.572" y="34.571" color-interpolation-filters="sRGB" filterUnits="userSpaceOnUse"><feFlood flood-opacity="0" result="BackgroundImageFix"/><feColorMatrix in="SourceAlpha" result="hardAlpha" values="0 0 0 0 0 0 0 0 0 0 0 0 0 0 0 0 0 0 127 0"/><feOffset dy="2"/><feGaussianBlur stdDeviation="2"/><feComposite in2="hardAlpha" operator="out"/><feColorMatrix values="0 0 0 0 0 0 0 0 0 0 0 0 0 0 0 0 0 0 0.25 0"/><feBlend in2="BackgroundImageFix" result="effect1_dropShadow_141_369"/><feBlend in="SourceGraphic" in2="effect1_dropShadow_141_369" result="shape"/></filter><clipPath id="d"><path fill="#fff" d="M16 16h96v96H16z"/></clipPath></defs></svg>