<svg xmlns="http://www.w3.org/2000/svg" width="128" height="128" fill="none"><rect width="128" height="128" fill="url(#a)" rx="32"/><g filter="url(#b)"><rect width="112" height="112" x="8" y="8" fill="#000" fill-opacity=".7" rx="24"/><g filter="url(#c)"><path fill="url(#d)" d="M94.69 64.183c0-.938-.693-1.478-1.543-1.21l-58.498 18.55c-.852.27-1.543 1.25-1.543 2.186v18.959c0 .937.691 1.48 1.543 1.209L93.147 85.33c.85-.27 1.543-1.251 1.543-2.189z"/><path fill="#FF9800" d="M33.106 63.579c0 .937.691 1.918 1.543 2.188l58.506 18.551c.852.27 1.543-.272 1.543-1.207V64.15c0-.936-.69-1.917-1.543-2.187L34.65 43.413c-.852-.27-1.543.27-1.543 1.208z"/><path fill="#FF9800" d="M94.69 25.226c0-.938-.693-1.48-1.543-1.21L34.649 42.564c-.852.27-1.543 1.25-1.543 2.188v18.959c0 .937.691 1.478 1.543 1.21l58.498-18.55c.85-.27 1.543-1.25 1.543-2.187z"/></g></g><defs><linearGradient id="a" x1="64" x2="64" y1="128" y2="0" gradientUnits="userSpaceOnUse"><stop stop-color="#D06F00"/><stop offset="1" stop-color="#FF9800"/></linearGradient><linearGradient id="d" x1="3427.41" x2="3685.7" y1="2471.25" y2="1607.6" gradientUnits="userSpaceOnUse"><stop stop-color="#FF9700"/><stop offset=".53" stop-color="#F48E00"/><stop offset="1" stop-color="#D06F00"/></linearGradient><filter id="b" width="112" height="116" x="8" y="8" color-interpolation-filters="sRGB" filterUnits="userSpaceOnUse"><feFlood flood-opacity="0" result="BackgroundImageFix"/><feBlend in="SourceGraphic" in2="BackgroundImageFix" result="shape"/><feColorMatrix in="SourceAlpha" result="hardAlpha" values="0 0 0 0 0 0 0 0 0 0 0 0 0 0 0 0 0 0 127 0"/><feOffset dy="4"/><feGaussianBlur stdDeviation="2"/><feComposite in2="hardAlpha" k2="-1" k3="1" operator="arithmetic"/><feColorMatrix values="0 0 0 0 0 0 0 0 0 0 0 0 0 0 0 0 0 0 0.25 0"/><feBlend in2="shape" result="effect1_innerShadow_141_810"/></filter><filter id="c" width="68.266" height="86.674" x="29.769" y="22.278" color-interpolation-filters="sRGB" filterUnits="userSpaceOnUse"><feFlood flood-opacity="0" result="BackgroundImageFix"/><feColorMatrix in="SourceAlpha" result="hardAlpha" values="0 0 0 0 0 0 0 0 0 0 0 0 0 0 0 0 0 0 127 0"/><feOffset dy="1.669"/><feGaussianBlur stdDeviation="1.669"/><feComposite in2="hardAlpha" operator="out"/><feColorMatrix values="0 0 0 0 0 0 0 0 0 0 0 0 0 0 0 0 0 0 0.25 0"/><feBlend in2="BackgroundImageFix" result="effect1_dropShadow_141_810"/><feBlend in="SourceGraphic" in2="effect1_dropShadow_141_810" result="shape"/></filter></defs></svg>