<svg xmlns="http://www.w3.org/2000/svg" width="128" height="128" fill="none"><rect width="128" height="128" fill="url(#a)" rx="32"/><g filter="url(#b)"><rect width="112" height="112" x="8" y="8" fill="#000" fill-opacity=".7" rx="24"/><g clip-path="url(#c)"><g filter="url(#d)"><path fill="url(#e)" d="M42.46 96.018 24.063 47.644a20.24 20.24 0 0 1 18.359-27.438A20.23 20.23 0 0 1 62.17 34.139l16.101 49.18c3.246 9.92-32.174 22.281-35.813 12.7"/></g><g filter="url(#f)"><path fill="url(#g)" d="M97.655 80.667 52.57 105.051a21.8 21.8 0 0 1-17.363 1.476 21.82 21.82 0 0 1-12.9-11.716 21.85 21.85 0 0 1 11.74-29.257l47.543-19.2a18.92 18.92 0 0 1 22.446 6.51 18.98 18.98 0 0 1 3.103 15.346 19 19 0 0 1-9.485 12.457"/></g><g filter="url(#h)"><path fill="url(#i)" d="m80.622 81.088-46.556-22.5a20.26 20.26 0 0 1-5.485-32.567 20.19 20.19 0 0 1 23.917-3.456l45.44 24.685a19.036 19.036 0 0 1 7.735 25.6 18.98 18.98 0 0 1-25.051 8.238"/></g><g filter="url(#j)"><path fill="url(#k)" d="M32.988 105.902a22.032 22.032 0 0 1-7.845-34.076L64.53 24.23a10.97 10.97 0 0 1 12.974-3.018 11.017 11.017 0 0 1 5.86 13.715L62.83 93.193a21.94 21.94 0 0 1-29.842 12.709"/></g><g filter="url(#l)"><path fill="#000" d="M36.572 36.571h54.857V91.43H36.572z"/></g><path fill="#fff" d="M43.41 81.06h20.572v3.43H43.41zm5.532-33.526H42.66v-4.188h17.097v4.188h-6.281v16.448h-4.535zm12.525 6.189v-.054a10.477 10.477 0 0 1 10.761-10.67 10.64 10.64 0 0 1 8.138 3.172l-2.89 3.328a7.63 7.63 0 0 0-5.284-2.331c-3.474 0-5.98 2.89-5.98 6.4v.064c0 3.538 2.45 6.482 5.98 6.482 2.359 0 3.803-.914 5.43-2.413l2.89 2.916a10.56 10.56 0 0 1-8.466 3.657 10.415 10.415 0 0 1-10.579-10.55"/></g></g><defs><filter id="b" width="112" height="116" x="8" y="8" color-interpolation-filters="sRGB" filterUnits="userSpaceOnUse"><feFlood flood-opacity="0" result="BackgroundImageFix"/><feBlend in="SourceGraphic" in2="BackgroundImageFix" result="shape"/><feColorMatrix in="SourceAlpha" result="hardAlpha" values="0 0 0 0 0 0 0 0 0 0 0 0 0 0 0 0 0 0 127 0"/><feOffset dy="4"/><feGaussianBlur stdDeviation="2"/><feComposite in2="hardAlpha" k2="-1" k3="1" operator="arithmetic"/><feColorMatrix values="0 0 0 0 0 0 0 0 0 0 0 0 0 0 0 0 0 0 0.25 0"/><feBlend in2="shape" result="effect1_innerShadow_141_394"/></filter><filter id="d" width="63.743" height="87.273" x="18.739" y="18.199" color-interpolation-filters="sRGB" filterUnits="userSpaceOnUse"><feFlood flood-opacity="0" result="BackgroundImageFix"/><feColorMatrix in="SourceAlpha" result="hardAlpha" values="0 0 0 0 0 0 0 0 0 0 0 0 0 0 0 0 0 0 127 0"/><feOffset dy="2"/><feGaussianBlur stdDeviation="2"/><feComposite in2="hardAlpha" operator="out"/><feColorMatrix values="0 0 0 0 0 0 0 0 0 0 0 0 0 0 0 0 0 0 0.25 0"/><feBlend in2="BackgroundImageFix" result="effect1_dropShadow_141_394"/><feBlend in="SourceGraphic" in2="effect1_dropShadow_141_394" result="shape"/></filter><filter id="f" width="95.248" height="70.698" x="16.372" y="42.98" color-interpolation-filters="sRGB" filterUnits="userSpaceOnUse"><feFlood flood-opacity="0" result="BackgroundImageFix"/><feColorMatrix in="SourceAlpha" result="hardAlpha" values="0 0 0 0 0 0 0 0 0 0 0 0 0 0 0 0 0 0 127 0"/><feOffset dy="2"/><feGaussianBlur stdDeviation="2"/><feComposite in2="hardAlpha" operator="out"/><feColorMatrix values="0 0 0 0 0 0 0 0 0 0 0 0 0 0 0 0 0 0 0.25 0"/><feBlend in2="BackgroundImageFix" result="effect1_dropShadow_141_394"/><feBlend in="SourceGraphic" in2="effect1_dropShadow_141_394" result="shape"/></filter><filter id="h" width="93.233" height="70.869" x="18.639" y="18.111" color-interpolation-filters="sRGB" filterUnits="userSpaceOnUse"><feFlood flood-opacity="0" result="BackgroundImageFix"/><feColorMatrix in="SourceAlpha" result="hardAlpha" values="0 0 0 0 0 0 0 0 0 0 0 0 0 0 0 0 0 0 127 0"/><feOffset dy="2"/><feGaussianBlur stdDeviation="2"/><feComposite in2="hardAlpha" operator="out"/><feColorMatrix values="0 0 0 0 0 0 0 0 0 0 0 0 0 0 0 0 0 0 0.25 0"/><feBlend in2="BackgroundImageFix" result="effect1_dropShadow_141_394"/><feBlend in="SourceGraphic" in2="effect1_dropShadow_141_394" result="shape"/></filter><filter id="j" width="71.894" height="95.65" x="16.1" y="18.241" color-interpolation-filters="sRGB" filterUnits="userSpaceOnUse"><feFlood flood-opacity="0" result="BackgroundImageFix"/><feColorMatrix in="SourceAlpha" result="hardAlpha" values="0 0 0 0 0 0 0 0 0 0 0 0 0 0 0 0 0 0 127 0"/><feOffset dy="2"/><feGaussianBlur stdDeviation="2"/><feComposite in2="hardAlpha" operator="out"/><feColorMatrix values="0 0 0 0 0 0 0 0 0 0 0 0 0 0 0 0 0 0 0.25 0"/><feBlend in2="BackgroundImageFix" result="effect1_dropShadow_141_394"/><feBlend in="SourceGraphic" in2="effect1_dropShadow_141_394" result="shape"/></filter><filter id="l" width="62.857" height="62.857" x="32.572" y="34.571" color-interpolation-filters="sRGB" filterUnits="userSpaceOnUse"><feFlood flood-opacity="0" result="BackgroundImageFix"/><feColorMatrix in="SourceAlpha" result="hardAlpha" values="0 0 0 0 0 0 0 0 0 0 0 0 0 0 0 0 0 0 127 0"/><feOffset dy="2"/><feGaussianBlur stdDeviation="2"/><feComposite in2="hardAlpha" operator="out"/><feColorMatrix values="0 0 0 0 0 0 0 0 0 0 0 0 0 0 0 0 0 0 0.25 0"/><feBlend in2="BackgroundImageFix" result="effect1_dropShadow_141_394"/><feBlend in="SourceGraphic" in2="effect1_dropShadow_141_394" result="shape"/></filter><linearGradient id="a" x1="64" x2="64" y1="0" y2="128" gradientUnits="userSpaceOnUse"><stop stop-color="#3BEA62"/><stop offset=".5" stop-color="#009AE5"/><stop offset="1" stop-color="#6B57FF"/></linearGradient><linearGradient id="e" x1="54.153" x2="46.647" y1="73.573" y2="51.355" gradientUnits="userSpaceOnUse"><stop stop-color="#07C3F2"/><stop offset="1" stop-color="#6B57FF"/></linearGradient><linearGradient id="g" x1="51.593" x2="78.491" y1="81.106" y2="67.602" gradientUnits="userSpaceOnUse"><stop stop-color="#07C3F2"/><stop offset="1" stop-color="#009AE5"/></linearGradient><linearGradient id="i" x1="85.696" x2="41.189" y1="67.895" y2="34.295" gradientUnits="userSpaceOnUse"><stop stop-color="#009AE5"/><stop offset="1" stop-color="#6B57FF"/></linearGradient><linearGradient id="k" x1="39.58" x2="69.897" y1="90.999" y2="29.257" gradientUnits="userSpaceOnUse"><stop offset=".3" stop-color="#07C3F2"/><stop offset=".6" stop-color="#3BEA62"/></linearGradient><clipPath id="c"><path fill="#fff" d="M16 16h96v96H16z"/></clipPath></defs></svg>