<svg xmlns="http://www.w3.org/2000/svg" width="128" height="128" fill="none"><rect width="128" height="128" fill="url(#a)" rx="32"/><rect width="128" height="128" fill="#000" fill-opacity=".9" rx="32"/><g filter="url(#b)"><rect width="112" height="112" x="8" y="8" fill="#000" fill-opacity=".7" rx="24"/><path fill="#fff" d="M82.974 61.079a28 28 0 0 0-1.05-.477c-.617-11.378-6.834-17.892-17.273-17.958h-.142c-6.244 0-11.437 2.665-14.633 7.515l5.741 3.938c2.388-3.623 6.135-4.395 8.895-4.395h.095c3.438.022 6.031 1.022 7.71 2.97 1.222 1.42 2.039 3.38 2.444 5.855-3.048-.518-6.344-.678-9.867-.476-9.925.572-16.306 6.36-15.877 14.404.217 4.08 2.25 7.59 5.723 9.883 2.936 1.938 6.718 2.886 10.648 2.672 5.191-.285 9.263-2.265 12.104-5.887 2.158-2.75 3.522-6.313 4.125-10.804 2.474 1.493 4.307 3.458 5.32 5.82 1.721 4.014 1.821 10.611-3.561 15.99-4.717 4.711-10.386 6.75-18.954 6.812-9.503-.07-16.691-3.118-21.364-9.059C38.682 82.32 36.42 74.284 36.336 64c.084-10.284 2.346-18.32 6.722-23.882 4.673-5.941 11.86-8.989 21.364-9.06 9.573.072 16.886 3.134 21.738 9.104 2.38 2.927 4.173 6.608 5.356 10.9l6.727-1.794c-1.433-5.284-3.688-9.836-6.757-13.612C85.266 28.003 76.168 24.08 64.446 24h-.047c-11.698.081-20.694 4.017-26.737 11.7-5.378 6.836-8.152 16.348-8.245 28.272v.056c.093 11.924 2.867 21.436 8.245 28.272 6.043 7.683 15.038 11.62 26.737 11.7h.047c10.4-.072 17.73-2.795 23.77-8.829 7.901-7.894 7.663-17.788 5.06-23.862-1.87-4.356-5.431-7.894-10.302-10.23M65.017 77.96c-4.35.245-8.87-1.707-9.092-5.89-.165-3.1 2.207-6.56 9.359-6.972q1.229-.071 2.412-.07c2.598 0 5.029.252 7.238.735-.824 10.292-5.658 11.964-9.917 12.197"/></g><defs><linearGradient id="a" x1="64" x2="64" y1="0" y2="128" gradientUnits="userSpaceOnUse"><stop stop-color="#fff"/><stop offset="1" stop-color="#DFDFDF"/></linearGradient><filter id="b" width="112" height="116" x="8" y="8" color-interpolation-filters="sRGB" filterUnits="userSpaceOnUse"><feFlood flood-opacity="0" result="BackgroundImageFix"/><feBlend in="SourceGraphic" in2="BackgroundImageFix" result="shape"/><feColorMatrix in="SourceAlpha" result="hardAlpha" values="0 0 0 0 0 0 0 0 0 0 0 0 0 0 0 0 0 0 127 0"/><feOffset dy="4"/><feGaussianBlur stdDeviation="2"/><feComposite in2="hardAlpha" k2="-1" k3="1" operator="arithmetic"/><feColorMatrix values="0 0 0 0 0 0 0 0 0 0 0 0 0 0 0 0 0 0 0.25 0"/><feBlend in2="shape" result="effect1_innerShadow_165_54"/></filter></defs></svg>