<svg xmlns="http://www.w3.org/2000/svg" width="128" height="128" fill="none"><rect width="128" height="128" fill="url(#a)" rx="32"/><rect width="128" height="128" fill="url(#b)" rx="32"/><g filter="url(#c)"><rect width="112" height="112" x="8" y="8" fill="#000" fill-opacity=".7" rx="24"/><path fill="#F2E4FF" d="M64 102.438c21.228 0 38.438-17.21 38.438-38.438S85.228 25.563 64 25.563 25.563 42.772 25.563 64 42.772 102.438 64 102.438"/><path fill="#941AD0" fill-rule="evenodd" d="M64.082 96.725v-4.849c15.36-.044 27.796-12.507 27.796-27.877S79.442 36.167 64.082 36.123v-4.85C82.12 31.32 96.726 45.953 96.726 64c0 18.048-14.607 32.682-32.644 32.726m0-16.972c8.663-.045 15.676-7.079 15.676-15.754s-7.013-15.71-15.676-15.754v-4.848c11.342.044 20.525 9.249 20.525 20.6 0 11.354-9.183 20.559-20.525 20.603zm0-24.234c4.647.044 8.403 3.822 8.403 8.48a8.483 8.483 0 0 1-8.403 8.481zM24 63.999C24 86.09 41.908 104 64 104s40-17.909 40-40.001S86.091 24 64 24 24 41.908 24 63.999" clip-rule="evenodd"/><g filter="url(#d)"><path fill="#000" d="M64 28.531c-19.934 0-36.094 16.09-36.094 35.938S44.066 100.406 64 100.406z"/></g><path fill="#8116B6" d="M64 24c-22.091 0-40 17.909-40 40s17.909 40 40 40z"/></g><defs><linearGradient id="a" x1="192.2" x2="-28.36" y1="-35.382" y2="127.947" gradientUnits="userSpaceOnUse"><stop stop-color="#D446FF"/><stop offset="1" stop-color="#A0D8FF"/></linearGradient><linearGradient id="b" x1="64" x2="64" y1="0" y2="128" gradientUnits="userSpaceOnUse"><stop stop-color="#951AD1"/><stop offset="1" stop-color="#6C1397"/></linearGradient><filter id="c" width="112" height="116" x="8" y="8" color-interpolation-filters="sRGB" filterUnits="userSpaceOnUse"><feFlood flood-opacity="0" result="BackgroundImageFix"/><feBlend in="SourceGraphic" in2="BackgroundImageFix" result="shape"/><feColorMatrix in="SourceAlpha" result="hardAlpha" values="0 0 0 0 0 0 0 0 0 0 0 0 0 0 0 0 0 0 127 0"/><feOffset dy="4"/><feGaussianBlur stdDeviation="2"/><feComposite in2="hardAlpha" k2="-1" k3="1" operator="arithmetic"/><feColorMatrix values="0 0 0 0 0 0 0 0 0 0 0 0 0 0 0 0 0 0 0.25 0"/><feBlend in2="shape" result="effect1_innerShadow_112_234"/></filter><filter id="d" width="42.344" height="78.125" x="23.531" y="25.406" color-interpolation-filters="sRGB" filterUnits="userSpaceOnUse"><feFlood flood-opacity="0" result="BackgroundImageFix"/><feColorMatrix in="SourceAlpha" result="hardAlpha" values="0 0 0 0 0 0 0 0 0 0 0 0 0 0 0 0 0 0 127 0"/><feOffset dx="-1.25"/><feGaussianBlur stdDeviation="1.563"/><feColorMatrix values="0 0 0 0 0.25098 0 0 0 0 0.25098 0 0 0 0 0.25098 0 0 0 0.2 0"/><feBlend in2="BackgroundImageFix" result="effect1_dropShadow_112_234"/><feBlend in="SourceGraphic" in2="effect1_dropShadow_112_234" result="shape"/></filter></defs></svg>