<svg xmlns="http://www.w3.org/2000/svg" width="128" height="128" fill="none"><rect width="128" height="128" fill="#D3B9FF" rx="32"/><rect width="128" height="128" fill="url(#a)" rx="32"/><rect width="128" height="128" fill="url(#b)" rx="32"/><g filter="url(#c)"><rect width="112" height="112" x="8" y="8" fill="#000" fill-opacity=".7" rx="24"/><g filter="url(#d)"><path fill="#C10080" d="m26.5 55 21-9v25.5C47.5 80.611 54.887 88 64 88s16.5-7.388 16.5-16.5V31l21-9v54c0 16.568-13.431 29.999-30 29.999h-15c-16.568 0-30-13.431-30-30z"/><path fill="#8B00E7" d="m26.5 55 21-9v25.5C47.5 80.611 54.887 88 64 88s16.5-7.388 16.5-16.5V31l21-9v54c0 16.568-13.431 29.999-30 29.999h-15c-16.568 0-30-13.431-30-30z"/></g><g filter="url(#e)"><path fill="#D3B9FF" d="M56.5 105.999h15c16.569 0 30-13.431 30-30V61c-3-13.5-8.065-19.707-21-27v37.5c0 17.397-20.103 31.298-37.5 31.298A29.86 29.86 0 0 0 56.5 106"/><path fill="#D404FF" d="M56.5 105.999h15c16.569 0 30-13.431 30-30V61c-3-13.5-8.065-19.707-21-27v37.5c0 17.397-20.103 31.298-37.5 31.298A29.86 29.86 0 0 0 56.5 106"/></g></g><defs><filter id="c" width="112" height="114" x="8" y="8" color-interpolation-filters="sRGB" filterUnits="userSpaceOnUse"><feFlood flood-opacity="0" result="BackgroundImageFix"/><feBlend in="SourceGraphic" in2="BackgroundImageFix" result="shape"/><feColorMatrix in="SourceAlpha" result="hardAlpha" values="0 0 0 0 0 0 0 0 0 0 0 0 0 0 0 0 0 0 127 0"/><feOffset dy="2"/><feGaussianBlur stdDeviation="2"/><feComposite in2="hardAlpha" k2="-1" k3="1" operator="arithmetic"/><feColorMatrix values="0 0 0 0 0 0 0 0 0 0 0 0 0 0 0 0 0 0 0.25 0"/><feBlend in2="shape" result="effect1_innerShadow_9_1992"/></filter><filter id="d" width="83" height="92" x="22.5" y="19.999" color-interpolation-filters="sRGB" filterUnits="userSpaceOnUse"><feFlood flood-opacity="0" result="BackgroundImageFix"/><feColorMatrix in="SourceAlpha" result="hardAlpha" values="0 0 0 0 0 0 0 0 0 0 0 0 0 0 0 0 0 0 127 0"/><feOffset dy="2"/><feGaussianBlur stdDeviation="2"/><feComposite in2="hardAlpha" operator="out"/><feColorMatrix values="0 0 0 0 0 0 0 0 0 0 0 0 0 0 0 0 0 0 0.25 0"/><feBlend in2="BackgroundImageFix" result="effect1_dropShadow_9_1992"/><feBlend in="SourceGraphic" in2="effect1_dropShadow_9_1992" result="shape"/></filter><filter id="e" width="66.5" height="80" x="39" y="31.999" color-interpolation-filters="sRGB" filterUnits="userSpaceOnUse"><feFlood flood-opacity="0" result="BackgroundImageFix"/><feColorMatrix in="SourceAlpha" result="hardAlpha" values="0 0 0 0 0 0 0 0 0 0 0 0 0 0 0 0 0 0 127 0"/><feOffset dy="2"/><feGaussianBlur stdDeviation="2"/><feComposite in2="hardAlpha" operator="out"/><feColorMatrix values="0 0 0 0 0 0 0 0 0 0 0 0 0 0 0 0 0 0 0.25 0"/><feBlend in2="BackgroundImageFix" result="effect1_dropShadow_9_1992"/><feBlend in="SourceGraphic" in2="effect1_dropShadow_9_1992" result="shape"/></filter><linearGradient id="a" x1="64" x2="64" y1="0" y2="128" gradientUnits="userSpaceOnUse"><stop stop-color="#CB02C5"/><stop offset=".245" stop-color="#C101DA"/><stop offset=".51" stop-color="#B600F0"/><stop offset=".745" stop-color="#8900D9"/><stop offset="1" stop-color="#5800BF"/></linearGradient><linearGradient id="b" x1="64" x2="64" y1="0" y2="128" gradientUnits="userSpaceOnUse"><stop offset=".125" stop-color="#CB02C5"/><stop offset=".333" stop-color="#C101DA"/><stop offset=".635" stop-color="#B600F0"/><stop offset=".865" stop-color="#8900D9"/></linearGradient></defs></svg>