<svg xmlns="http://www.w3.org/2000/svg" width="128" height="128" fill="none"><rect width="128" height="128" fill="url(#a)" rx="32"/><rect width="128" height="128" fill="url(#b)" rx="32"/><g filter="url(#c)"><rect width="112" height="112" x="8" y="8" fill="#000" fill-opacity=".7" rx="24"/><g clip-path="url(#d)"><g filter="url(#e)"><path fill="url(#f)" d="m94.144 50.642-58.798 6.309A13.925 13.925 0 0 1 20.17 45.595a13.917 13.917 0 0 1 11.557-16.228l58.44-9.079a15.306 15.306 0 0 1 17.628 16.064 15.29 15.29 0 0 1-13.65 14.29"/></g><g filter="url(#g)"><path fill="url(#h)" d="M72.411 101.797 24.018 52.901a13.935 13.935 0 0 1 1.225-20.7 13.915 13.915 0 0 1 16.458-.63L98.67 70.19a20.66 20.66 0 0 1 9.028 16.04 20.66 20.66 0 0 1-7.355 16.874 20.645 20.645 0 0 1-27.932-1.307"/></g><g filter="url(#i)"><path fill="url(#j)" d="M83.346 23.113 26.807 65.371a10.8 10.8 0 0 0-1.664 15.772 10.79 10.79 0 0 0 13.413 2.267l61.458-34.743a15.3 15.3 0 0 0 7.19-17.52 15.3 15.3 0 0 0-3.24-5.922 15.3 15.3 0 0 0-20.618-2.112"/></g><g filter="url(#k)"><path fill="url(#l)" d="m78.629 106.121-49.83-22.382a10.725 10.725 0 0 1-4.168-16.292 10.73 10.73 0 0 1 9.143-4.188l54.555 3.356a20.673 20.673 0 0 1 18.011 28.114 20.69 20.69 0 0 1-27.711 11.392"/></g><g filter="url(#m)"><path fill="#000" d="M36.571 36.571h54.857V91.43H36.571z"/></g><path fill="#fff" d="M43.41 81.06h20.572v3.43H43.41zm.018-25.901V43.346H48V55.04c0 3.365 1.682 5.102 4.461 5.102s4.453-1.683 4.453-4.956v-11.84h4.571v11.658c0 6.262-3.51 9.334-9.06 9.334s-8.997-3.1-8.997-9.18m22.181-11.812h8.448c4.928 0 7.909 2.926 7.909 7.15v.055c0 4.782-3.722 7.26-8.357 7.26h-3.456v6.198h-4.571zm8.146 10.423c2.277 0 3.603-1.362 3.603-3.127v-.064c0-2.03-1.418-3.126-3.658-3.126h-3.547v6.317z"/></g></g><defs><linearGradient id="a" x1="64" x2="64" y1="0" y2="128" gradientUnits="userSpaceOnUse"><stop stop-color="#3BEA62"/><stop offset=".5" stop-color="#009AE5"/><stop offset="1" stop-color="#6B57FF"/></linearGradient><linearGradient id="b" x1="107.541" x2="-2.274" y1="28.169" y2="81.326" gradientUnits="userSpaceOnUse"><stop stop-color="#FC801D"/><stop offset=".661" stop-color="#6B57FF"/><stop offset="1" stop-color="#08C1F2"/></linearGradient><linearGradient id="f" x1="104.622" x2="42.715" y1="33.81" y2="42.057" gradientUnits="userSpaceOnUse"><stop stop-color="#FC801D"/><stop offset="1" stop-color="#6B57FF"/></linearGradient><linearGradient id="h" x1="63.479" x2="68.763" y1="67.182" y2="44.837" gradientUnits="userSpaceOnUse"><stop stop-color="#07C3F2"/><stop offset="1" stop-color="#6B57FF"/></linearGradient><linearGradient id="j" x1="94.153" x2="29.934" y1="34.313" y2="75.282" gradientUnits="userSpaceOnUse"><stop stop-color="#FC801D"/><stop offset=".92" stop-color="#6B57FF"/></linearGradient><linearGradient id="l" x1="101.806" x2="33.262" y1="92.562" y2="67.794" gradientUnits="userSpaceOnUse"><stop stop-color="#07C3F2"/><stop offset="1" stop-color="#6B57FF"/></linearGradient><filter id="c" width="112" height="116" x="8" y="8" color-interpolation-filters="sRGB" filterUnits="userSpaceOnUse"><feFlood flood-opacity="0" result="BackgroundImageFix"/><feBlend in="SourceGraphic" in2="BackgroundImageFix" result="shape"/><feColorMatrix in="SourceAlpha" result="hardAlpha" values="0 0 0 0 0 0 0 0 0 0 0 0 0 0 0 0 0 0 127 0"/><feOffset dy="4"/><feGaussianBlur stdDeviation="2"/><feComposite in2="hardAlpha" k2="-1" k3="1" operator="arithmetic"/><feColorMatrix values="0 0 0 0 0 0 0 0 0 0 0 0 0 0 0 0 0 0 0.25 0"/><feBlend in2="shape" result="effect1_innerShadow_141_427"/></filter><filter id="e" width="95.876" height="44.923" x="15.947" y="18.106" color-interpolation-filters="sRGB" filterUnits="userSpaceOnUse"><feFlood flood-opacity="0" result="BackgroundImageFix"/><feColorMatrix in="SourceAlpha" result="hardAlpha" values="0 0 0 0 0 0 0 0 0 0 0 0 0 0 0 0 0 0 127 0"/><feOffset dy="2"/><feGaussianBlur stdDeviation="2"/><feComposite in2="hardAlpha" operator="out"/><feColorMatrix values="0 0 0 0 0 0 0 0 0 0 0 0 0 0 0 0 0 0 0.25 0"/><feBlend in2="BackgroundImageFix" result="effect1_dropShadow_141_427"/><feBlend in="SourceGraphic" in2="effect1_dropShadow_141_427" result="shape"/></filter><filter id="g" width="95.735" height="86.742" x="15.99" y="27.179" color-interpolation-filters="sRGB" filterUnits="userSpaceOnUse"><feFlood flood-opacity="0" result="BackgroundImageFix"/><feColorMatrix in="SourceAlpha" result="hardAlpha" values="0 0 0 0 0 0 0 0 0 0 0 0 0 0 0 0 0 0 127 0"/><feOffset dy="2"/><feGaussianBlur stdDeviation="2"/><feComposite in2="hardAlpha" operator="out"/><feColorMatrix values="0 0 0 0 0 0 0 0 0 0 0 0 0 0 0 0 0 0 0.25 0"/><feBlend in2="BackgroundImageFix" result="effect1_dropShadow_141_427"/><feBlend in="SourceGraphic" in2="effect1_dropShadow_141_427" result="shape"/></filter><filter id="i" width="93.326" height="72.742" x="18.466" y="18.066" color-interpolation-filters="sRGB" filterUnits="userSpaceOnUse"><feFlood flood-opacity="0" result="BackgroundImageFix"/><feColorMatrix in="SourceAlpha" result="hardAlpha" values="0 0 0 0 0 0 0 0 0 0 0 0 0 0 0 0 0 0 127 0"/><feOffset dy="2"/><feGaussianBlur stdDeviation="2"/><feComposite in2="hardAlpha" operator="out"/><feColorMatrix values="0 0 0 0 0 0 0 0 0 0 0 0 0 0 0 0 0 0 0.25 0"/><feBlend in2="BackgroundImageFix" result="effect1_dropShadow_141_427"/><feBlend in="SourceGraphic" in2="effect1_dropShadow_141_427" result="shape"/></filter><filter id="k" width="93.302" height="52.675" x="18.439" y="61.241" color-interpolation-filters="sRGB" filterUnits="userSpaceOnUse"><feFlood flood-opacity="0" result="BackgroundImageFix"/><feColorMatrix in="SourceAlpha" result="hardAlpha" values="0 0 0 0 0 0 0 0 0 0 0 0 0 0 0 0 0 0 127 0"/><feOffset dy="2"/><feGaussianBlur stdDeviation="2"/><feComposite in2="hardAlpha" operator="out"/><feColorMatrix values="0 0 0 0 0 0 0 0 0 0 0 0 0 0 0 0 0 0 0.25 0"/><feBlend in2="BackgroundImageFix" result="effect1_dropShadow_141_427"/><feBlend in="SourceGraphic" in2="effect1_dropShadow_141_427" result="shape"/></filter><filter id="m" width="62.857" height="62.857" x="32.571" y="34.571" color-interpolation-filters="sRGB" filterUnits="userSpaceOnUse"><feFlood flood-opacity="0" result="BackgroundImageFix"/><feColorMatrix in="SourceAlpha" result="hardAlpha" values="0 0 0 0 0 0 0 0 0 0 0 0 0 0 0 0 0 0 127 0"/><feOffset dy="2"/><feGaussianBlur stdDeviation="2"/><feComposite in2="hardAlpha" operator="out"/><feColorMatrix values="0 0 0 0 0 0 0 0 0 0 0 0 0 0 0 0 0 0 0.25 0"/><feBlend in2="BackgroundImageFix" result="effect1_dropShadow_141_427"/><feBlend in="SourceGraphic" in2="effect1_dropShadow_141_427" result="shape"/></filter><clipPath id="d"><path fill="#fff" d="M16 16h96v96H16z"/></clipPath></defs></svg>