<svg xmlns="http://www.w3.org/2000/svg" width="128" height="128" fill="none"><rect width="128" height="128" fill="url(#a)" rx="32"/><g filter="url(#b)"><rect width="112" height="112" x="8" y="8" fill="#000" fill-opacity=".7" rx="24"/><g filter="url(#c)"><path fill="#fff" d="M92.276 35.721c-15.61-15.628-40.936-15.628-56.57 0-15.608 15.628-15.608 40.953 0 56.558 15.61 15.628 40.937 15.628 56.57 0 15.632-15.628 15.632-40.953 0-56.558M89.88 54.103c-6.595 11.462-13.191 22.924-19.787 34.41-1.22 2.142-3.004 3.413-5.446 3.601-2.722.188-4.882-.965-6.267-3.318-4.178-7.179-8.309-14.405-12.44-21.607-2.512-4.378-5.047-8.755-7.558-13.157-2.535-4.424.328-9.814 5.398-10.073 2.676-.141 4.742 1.106 6.103 3.436 1.855 3.177 3.685 6.402 5.54 9.603 1.338 2.307 2.629 4.637 3.99 6.896 1.972 3.319 4.882 5.178 8.755 5.413 5.47.33 10.563-3.648 11.22-9.461.047-.424.07-.871.094-1.083-.023-1.883-.376-3.483-1.127-4.966-2.042-4.095.141-8.685 4.578-9.673 3.614-.8 7.37 1.859 7.84 5.53.234 1.577-.095 3.06-.893 4.449"/></g></g><defs><filter id="b" width="112" height="116" x="8" y="8" color-interpolation-filters="sRGB" filterUnits="userSpaceOnUse"><feFlood flood-opacity="0" result="BackgroundImageFix"/><feBlend in="SourceGraphic" in2="BackgroundImageFix" result="shape"/><feColorMatrix in="SourceAlpha" result="hardAlpha" values="0 0 0 0 0 0 0 0 0 0 0 0 0 0 0 0 0 0 127 0"/><feOffset dy="4"/><feGaussianBlur stdDeviation="2"/><feComposite in2="hardAlpha" k2="-1" k3="1" operator="arithmetic"/><feColorMatrix values="0 0 0 0 0 0 0 0 0 0 0 0 0 0 0 0 0 0 0.25 0"/><feBlend in2="shape" result="effect1_innerShadow_112_75"/></filter><filter id="c" width="88" height="88" x="20" y="22" color-interpolation-filters="sRGB" filterUnits="userSpaceOnUse"><feFlood flood-opacity="0" result="BackgroundImageFix"/><feColorMatrix in="SourceAlpha" result="hardAlpha" values="0 0 0 0 0 0 0 0 0 0 0 0 0 0 0 0 0 0 127 0"/><feOffset dy="2"/><feGaussianBlur stdDeviation="2"/><feComposite in2="hardAlpha" operator="out"/><feColorMatrix values="0 0 0 0 0 0 0 0 0 0 0 0 0 0 0 0 0 0 0.25 0"/><feBlend in2="BackgroundImageFix" result="effect1_dropShadow_112_75"/><feBlend in="SourceGraphic" in2="effect1_dropShadow_112_75" result="shape"/></filter><linearGradient id="a" x1="128" x2="0" y1="0" y2="128" gradientUnits="userSpaceOnUse"><stop stop-color="#EF3939"/><stop offset="1" stop-color="#BF2E2E"/></linearGradient></defs></svg>