<svg xmlns="http://www.w3.org/2000/svg" width="128" height="128" fill="none"><rect width="128" height="128" fill="url(#a)" rx="32"/><rect width="128" height="128" fill="url(#b)" rx="32"/><g filter="url(#c)"><rect width="112" height="112" x="8" y="8" fill="#000" fill-opacity=".7" rx="24"/><g fill-rule="evenodd" clip-path="url(#d)" clip-rule="evenodd" filter="url(#e)"><path fill="#B54D00" d="M34.678 93.997s-.985 1.06-1.246 1.92c-.182.6-.253 1.497.076 2.032.241.393.557.79 1.02.79 20.085.003 42.297.033 57.926.076.529.001 1.532-.091 1.944-.678.419-.597.409-1.93.113-2.597-.311-.702-1.774-1.016-1.774-1.016z"/><path fill="#E26400" d="M42.08 72.869c-.918 0-1.871.705-2.137 1.582L33.531 95.63c-.266.878.258 1.586 1.175 1.586h59.132c.7 0 1.1-.537.897-1.206l-6.644-21.934c-.203-.669-.927-1.206-1.626-1.206z"/><path fill="url(#f)" d="M63.99 29.238c-1.525-.015-2.422.098-3.322.772-.41.308-.735 1.039-.929 1.565L44.085 83.098s.365 2.328 2.58 4.444c1.493 1.427 4.324 2.484 6.103 2.868 4.565.987 8.225 1.222 12.365 1.16 4.253-.064 8.501-.898 12.59-2.064 6.098-1.74 6.292-6.622 6.292-6.622l-16.1-52.267c-.067-.215-.228-.374-.356-.494-.956-.904-2.406-.873-3.568-.885"/><path fill="#F48200" d="M63.99 29.238c-1.525-.015-2.422.098-3.322.772-.41.308-.735 1.039-.929 1.565L44.085 83.098s.689 4.456 6.229 6.628c3.834 1.503 7.792 1.703 13.951 1.769 6.859.073 9.653-.598 14.136-2.158 2.11-.734 3.205-1.689 4.206-2.747 1.447-1.53 1.408-3.706 1.408-3.706l-16.1-52.267a2 2 0 0 0-.356-.494c-.956-.904-2.406-.873-3.568-.885"/><path fill="#EAECED" d="m49.8 64.29-3.578 11.78c4.34 3.647 10.71 5.95 17.81 5.95 7.133 0 13.526-2.324 17.868-6l-3.604-11.702c-3.317 2.639-8.459 4.333-14.232 4.333-5.791 0-10.947-1.707-14.263-4.361M70.49 38.986c-1.688.565-3.997.916-6.545.916-2.507 0-4.784-.339-6.465-.888l-3.776 12.433c2.538 1.324 6.255 2.161 10.4 2.161 4.062 0 7.716-.801 10.25-2.08z"/></g></g><defs><linearGradient id="a" x1="64" x2="64" y1="0" y2="128" gradientUnits="userSpaceOnUse"><stop stop-color="#CB02C5"/><stop offset="1" stop-color="#5800BF"/></linearGradient><linearGradient id="b" x1="0" x2="125.093" y1="73.5" y2="41.968" gradientUnits="userSpaceOnUse"><stop stop-color="#F48200"/><stop offset=".494" stop-color="#F48200"/><stop offset="1" stop-color="#CC5F00"/></linearGradient><linearGradient id="f" x1="51.483" x2="54.722" y1="56.363" y2="57.12" gradientUnits="userSpaceOnUse"><stop stop-color="#9B4400"/><stop offset="1" stop-color="#E56300"/></linearGradient><filter id="c" width="112" height="116" x="8" y="8" color-interpolation-filters="sRGB" filterUnits="userSpaceOnUse"><feFlood flood-opacity="0" result="BackgroundImageFix"/><feBlend in="SourceGraphic" in2="BackgroundImageFix" result="shape"/><feColorMatrix in="SourceAlpha" result="hardAlpha" values="0 0 0 0 0 0 0 0 0 0 0 0 0 0 0 0 0 0 127 0"/><feOffset dy="4"/><feGaussianBlur stdDeviation="2"/><feComposite in2="hardAlpha" k2="-1" k3="1" operator="arithmetic"/><feColorMatrix values="0 0 0 0 0 0 0 0 0 0 0 0 0 0 0 0 0 0 0.25 0"/><feBlend in2="shape" result="effect1_innerShadow_66_81"/></filter><filter id="e" width="70" height="78" x="29" y="27" color-interpolation-filters="sRGB" filterUnits="userSpaceOnUse"><feFlood flood-opacity="0" result="BackgroundImageFix"/><feColorMatrix in="SourceAlpha" result="hardAlpha" values="0 0 0 0 0 0 0 0 0 0 0 0 0 0 0 0 0 0 127 0"/><feOffset dy="2"/><feGaussianBlur stdDeviation="2"/><feComposite in2="hardAlpha" operator="out"/><feColorMatrix values="0 0 0 0 0 0 0 0 0 0 0 0 0 0 0 0 0 0 0.25 0"/><feBlend in2="BackgroundImageFix" result="effect1_dropShadow_66_81"/><feBlend in="SourceGraphic" in2="effect1_dropShadow_66_81" result="shape"/></filter><clipPath id="d"><path fill="#fff" d="M33 29h62v70H33z"/></clipPath></defs></svg>