<svg xmlns="http://www.w3.org/2000/svg" width="128" height="128" fill="none"><rect width="128" height="128" fill="url(#a)" rx="32"/><rect width="128" height="128" fill="url(#b)" rx="32"/><rect width="128" height="128" fill="url(#c)" rx="32"/><g filter="url(#d)"><rect width="112" height="112" x="8" y="8" fill="#000" fill-opacity=".7" rx="24"/><g filter="url(#e)"><path fill="gray" d="M64.396 25.077a4.897 4.897 0 0 0-3.256 7.48c8.087 12.53 9.996 21.983 9.168 30.266-3.347 15.863-10.623 19.08-16.981 19.08-6.209 0-4.546-10.222.12-13.214 2.786-1.74 6.354-2.872 9.093-2.872a4.91 4.91 0 0 0 4.913-4.901c0-2.708-2.2-4.902-4.913-4.902-3.199 0-6.337.672-9.265 1.816.598-2.824.82-5.877.046-9.123-1.175-4.927-4.556-9.634-10.426-14.197a4.92 4.92 0 0 0-6.897.852 4.896 4.896 0 0 0 .862 6.88c4.782 3.718 6.362 6.469 6.902 8.733s.106 4.694-.979 8.033c-1.387 4.498-2.996 8.514-3.702 12.365-.347 1.896-.377 3.96-.466 5.607-3.444-3.359-4.793-7.794-4.793-14.273 0-2.708-2.2-4.902-4.913-4.902A4.91 4.91 0 0 0 24 62.707c0 8.85 2.587 17.27 9.518 22.889 6.276 5.982 22.233 3.771 22.233 13.374 0 2.711 3.965 4.03 6.678 4.03 2.782 0 6.284-1.861 6.284-4.03 0-10.896 11.476-17.518 30.368-17.49A4.91 4.91 0 0 0 104 76.585a4.91 4.91 0 0 0-4.904-4.912 62 62 0 0 0-3.793.117c2.113-4.97 3.05-10.443 2.855-16.354a4.91 4.91 0 0 0-5.07-4.739 4.91 4.91 0 0 0-4.752 5.064c.255 7.74-.034 14.65-5.796 18.292-1.639 1.036-3.544 1.933-5.35 1.933 1.402-3.816 2.461-7.845 2.895-12.187.277-2.772.306-6.064-.01-8.621-.49-3.963-1.082-8.457.421-11.842 1.35-2.916 4.377-4.137 8.818-4.137a4.91 4.91 0 0 0 4.91-4.901 4.91 4.91 0 0 0-4.91-4.907c-6.601 0-11.605 3.477-14.442 7.677-1.483-3.17-3.29-6.437-5.471-9.818a4.92 4.92 0 0 0-5.005-2.172"/><path fill="url(#f)" d="M64.396 25.077a4.897 4.897 0 0 0-3.256 7.48c8.087 12.53 9.996 21.983 9.168 30.266-3.347 15.863-10.623 19.08-16.981 19.08-6.209 0-4.546-10.222.12-13.214 2.786-1.74 6.354-2.872 9.093-2.872a4.91 4.91 0 0 0 4.913-4.901c0-2.708-2.2-4.902-4.913-4.902-3.199 0-6.337.672-9.265 1.816.598-2.824.82-5.877.046-9.123-1.175-4.927-4.556-9.634-10.426-14.197a4.92 4.92 0 0 0-6.897.852 4.896 4.896 0 0 0 .862 6.88c4.782 3.718 6.362 6.469 6.902 8.733s.106 4.694-.979 8.033c-1.387 4.498-2.996 8.514-3.702 12.365-.347 1.896-.377 3.96-.466 5.607-3.444-3.359-4.793-7.794-4.793-14.273 0-2.708-2.2-4.902-4.913-4.902A4.91 4.91 0 0 0 24 62.707c0 8.85 2.587 17.27 9.518 22.889 6.276 5.982 22.233 3.771 22.233 13.374 0 2.711 3.965 4.03 6.678 4.03 2.782 0 6.284-1.861 6.284-4.03 0-10.896 11.476-17.518 30.368-17.49A4.91 4.91 0 0 0 104 76.585a4.91 4.91 0 0 0-4.904-4.912 62 62 0 0 0-3.793.117c2.113-4.97 3.05-10.443 2.855-16.354a4.91 4.91 0 0 0-5.07-4.739 4.91 4.91 0 0 0-4.752 5.064c.255 7.74-.034 14.65-5.796 18.292-1.639 1.036-3.544 1.933-5.35 1.933 1.402-3.816 2.461-7.845 2.895-12.187.277-2.772.306-6.064-.01-8.621-.49-3.963-1.082-8.457.421-11.842 1.35-2.916 4.377-4.137 8.818-4.137a4.91 4.91 0 0 0 4.91-4.901 4.91 4.91 0 0 0-4.91-4.907c-6.601 0-11.605 3.477-14.442 7.677-1.483-3.17-3.29-6.437-5.471-9.818a4.92 4.92 0 0 0-5.005-2.172"/><path fill="url(#g)" d="M64.396 25.077a4.897 4.897 0 0 0-3.256 7.48c8.087 12.53 9.996 21.983 9.168 30.266-3.347 15.863-10.623 19.08-16.981 19.08-6.209 0-4.546-10.222.12-13.214 2.786-1.74 6.354-2.872 9.093-2.872a4.91 4.91 0 0 0 4.913-4.901c0-2.708-2.2-4.902-4.913-4.902-3.199 0-6.337.672-9.265 1.816.598-2.824.82-5.877.046-9.123-1.175-4.927-4.556-9.634-10.426-14.197a4.92 4.92 0 0 0-6.897.852 4.896 4.896 0 0 0 .862 6.88c4.782 3.718 6.362 6.469 6.902 8.733s.106 4.694-.979 8.033c-1.387 4.498-2.996 8.514-3.702 12.365-.347 1.896-.377 3.96-.466 5.607-3.444-3.359-4.793-7.794-4.793-14.273 0-2.708-2.2-4.902-4.913-4.902A4.91 4.91 0 0 0 24 62.707c0 8.85 2.587 17.27 9.518 22.889 6.276 5.982 22.233 3.771 22.233 13.374 0 2.711 3.965 4.03 6.678 4.03 2.782 0 6.284-1.861 6.284-4.03 0-10.896 11.476-17.518 30.368-17.49A4.91 4.91 0 0 0 104 76.585a4.91 4.91 0 0 0-4.904-4.912 62 62 0 0 0-3.793.117c2.113-4.97 3.05-10.443 2.855-16.354a4.91 4.91 0 0 0-5.07-4.739 4.91 4.91 0 0 0-4.752 5.064c.255 7.74-.034 14.65-5.796 18.292-1.639 1.036-3.544 1.933-5.35 1.933 1.402-3.816 2.461-7.845 2.895-12.187.277-2.772.306-6.064-.01-8.621-.49-3.963-1.082-8.457.421-11.842 1.35-2.916 4.377-4.137 8.818-4.137a4.91 4.91 0 0 0 4.91-4.901 4.91 4.91 0 0 0-4.91-4.907c-6.601 0-11.605 3.477-14.442 7.677-1.483-3.17-3.29-6.437-5.471-9.818a4.92 4.92 0 0 0-5.005-2.172"/><path fill="url(#h)" d="M64.396 25.077a4.897 4.897 0 0 0-3.256 7.48c8.087 12.53 9.996 21.983 9.168 30.266-3.347 15.863-10.623 19.08-16.981 19.08-6.209 0-4.546-10.222.12-13.214 2.786-1.74 6.354-2.872 9.093-2.872a4.91 4.91 0 0 0 4.913-4.901c0-2.708-2.2-4.902-4.913-4.902-3.199 0-6.337.672-9.265 1.816.598-2.824.82-5.877.046-9.123-1.175-4.927-4.556-9.634-10.426-14.197a4.92 4.92 0 0 0-6.897.852 4.896 4.896 0 0 0 .862 6.88c4.782 3.718 6.362 6.469 6.902 8.733s.106 4.694-.979 8.033c-1.387 4.498-2.996 8.514-3.702 12.365-.347 1.896-.377 3.96-.466 5.607-3.444-3.359-4.793-7.794-4.793-14.273 0-2.708-2.2-4.902-4.913-4.902A4.91 4.91 0 0 0 24 62.707c0 8.85 2.587 17.27 9.518 22.889 6.276 5.982 22.233 3.771 22.233 13.374 0 2.711 3.965 4.03 6.678 4.03 2.782 0 6.284-1.861 6.284-4.03 0-10.896 11.476-17.518 30.368-17.49A4.91 4.91 0 0 0 104 76.585a4.91 4.91 0 0 0-4.904-4.912 62 62 0 0 0-3.793.117c2.113-4.97 3.05-10.443 2.855-16.354a4.91 4.91 0 0 0-5.07-4.739 4.91 4.91 0 0 0-4.752 5.064c.255 7.74-.034 14.65-5.796 18.292-1.639 1.036-3.544 1.933-5.35 1.933 1.402-3.816 2.461-7.845 2.895-12.187.277-2.772.306-6.064-.01-8.621-.49-3.963-1.082-8.457.421-11.842 1.35-2.916 4.377-4.137 8.818-4.137a4.91 4.91 0 0 0 4.91-4.901 4.91 4.91 0 0 0-4.91-4.907c-6.601 0-11.605 3.477-14.442 7.677-1.483-3.17-3.29-6.437-5.471-9.818a4.92 4.92 0 0 0-5.005-2.172"/></g></g><defs><linearGradient id="a" x1="0" x2="128" y1="64" y2="64" gradientUnits="userSpaceOnUse"><stop stop-color="#06F"/><stop offset="1" stop-color="#0CF"/></linearGradient><linearGradient id="b" x1="0" x2="128" y1="64" y2="64" gradientUnits="userSpaceOnUse"><stop stop-color="#8A0"/><stop offset="1" stop-color="#FC0"/></linearGradient><linearGradient id="c" x1="0" x2="128" y1="64" y2="64" gradientUnits="userSpaceOnUse"><stop stop-color="#37C871"/><stop offset="1" stop-color="#217844"/></linearGradient><linearGradient id="f" x1="24" x2="104" y1="64" y2="64" gradientUnits="userSpaceOnUse"><stop stop-color="#06F"/><stop offset="1" stop-color="#0CF"/></linearGradient><linearGradient id="g" x1="24" x2="104" y1="64" y2="64" gradientUnits="userSpaceOnUse"><stop stop-color="#8A0"/><stop offset="1" stop-color="#FC0"/></linearGradient><linearGradient id="h" x1="24" x2="104" y1="64" y2="64" gradientUnits="userSpaceOnUse"><stop stop-color="#37C871"/><stop offset="1" stop-color="#217844"/></linearGradient><filter id="d" width="112" height="116" x="8" y="8" color-interpolation-filters="sRGB" filterUnits="userSpaceOnUse"><feFlood flood-opacity="0" result="BackgroundImageFix"/><feBlend in="SourceGraphic" in2="BackgroundImageFix" result="shape"/><feColorMatrix in="SourceAlpha" result="hardAlpha" values="0 0 0 0 0 0 0 0 0 0 0 0 0 0 0 0 0 0 127 0"/><feOffset dy="4"/><feGaussianBlur stdDeviation="2"/><feComposite in2="hardAlpha" k2="-1" k3="1" operator="arithmetic"/><feColorMatrix values="0 0 0 0 0 0 0 0 0 0 0 0 0 0 0 0 0 0 0.25 0"/><feBlend in2="shape" result="effect1_innerShadow_143_2"/></filter><filter id="e" width="88" height="86" x="20" y="23" color-interpolation-filters="sRGB" filterUnits="userSpaceOnUse"><feFlood flood-opacity="0" result="BackgroundImageFix"/><feColorMatrix in="SourceAlpha" result="hardAlpha" values="0 0 0 0 0 0 0 0 0 0 0 0 0 0 0 0 0 0 127 0"/><feOffset dy="2"/><feGaussianBlur stdDeviation="2"/><feComposite in2="hardAlpha" operator="out"/><feColorMatrix values="0 0 0 0 0 0 0 0 0 0 0 0 0 0 0 0 0 0 0.25 0"/><feBlend in2="BackgroundImageFix" result="effect1_dropShadow_143_2"/><feBlend in="SourceGraphic" in2="effect1_dropShadow_143_2" result="shape"/></filter></defs></svg>