<svg xmlns="http://www.w3.org/2000/svg" width="128" height="128" fill="none"><rect width="128" height="128" fill="url(#a)" rx="32"/><g filter="url(#b)"><rect width="112" height="112" x="8" y="8" fill="#000" fill-opacity=".7" rx="24"/><g filter="url(#c)"><path fill="#29B6F6" d="M104 38.22v51.56c0 2.54-1.58 4.8-3.96 5.64L82.4 103.7 84 82V46l-1.6-21.7 17.64 8.28c2.38.84 3.96 3.1 3.96 5.64"/></g><g filter="url(#d)"><path fill="#0277BD" d="M34 83.792 84 46V26.706c0-2.396-2.964-3.516-4.55-1.72L25.316 74.478a4 4 0 0 0 .214 6.064s2.648 2.464 3.606 3.148c1.472 1.05 3.406 1.17 4.864.102"/></g><g filter="url(#e)"><path fill="#0288D1" d="M34 44.208 84 82v19.294c0 2.396-2.964 3.516-4.55 1.72L25.316 53.522a4 4 0 0 1 .214-6.064s2.648-2.464 3.606-3.148c1.472-1.05 3.406-1.17 4.864-.102"/></g></g><defs><filter id="b" width="112" height="116" x="8" y="8" color-interpolation-filters="sRGB" filterUnits="userSpaceOnUse"><feFlood flood-opacity="0" result="BackgroundImageFix"/><feBlend in="SourceGraphic" in2="BackgroundImageFix" result="shape"/><feColorMatrix in="SourceAlpha" result="hardAlpha" values="0 0 0 0 0 0 0 0 0 0 0 0 0 0 0 0 0 0 127 0"/><feOffset dy="4"/><feGaussianBlur stdDeviation="2"/><feComposite in2="hardAlpha" k2="-1" k3="1" operator="arithmetic"/><feColorMatrix values="0 0 0 0 0 0 0 0 0 0 0 0 0 0 0 0 0 0 0.25 0"/><feBlend in2="shape" result="effect1_innerShadow_141_490"/></filter><filter id="c" width="29.6" height="87.4" x="78.4" y="22.3" color-interpolation-filters="sRGB" filterUnits="userSpaceOnUse"><feFlood flood-opacity="0" result="BackgroundImageFix"/><feColorMatrix in="SourceAlpha" result="hardAlpha" values="0 0 0 0 0 0 0 0 0 0 0 0 0 0 0 0 0 0 127 0"/><feOffset dy="2"/><feGaussianBlur stdDeviation="2"/><feComposite in2="hardAlpha" operator="out"/><feColorMatrix values="0 0 0 0 0 0 0 0 0 0 0 0 0 0 0 0 0 0 0.25 0"/><feBlend in2="BackgroundImageFix" result="effect1_dropShadow_141_490"/><feBlend in="SourceGraphic" in2="effect1_dropShadow_141_490" result="shape"/></filter><filter id="d" width="67.971" height="68.436" x="20.029" y="22.101" color-interpolation-filters="sRGB" filterUnits="userSpaceOnUse"><feFlood flood-opacity="0" result="BackgroundImageFix"/><feColorMatrix in="SourceAlpha" result="hardAlpha" values="0 0 0 0 0 0 0 0 0 0 0 0 0 0 0 0 0 0 127 0"/><feOffset dy="2"/><feGaussianBlur stdDeviation="2"/><feComposite in2="hardAlpha" operator="out"/><feColorMatrix values="0 0 0 0 0 0 0 0 0 0 0 0 0 0 0 0 0 0 0.25 0"/><feBlend in2="BackgroundImageFix" result="effect1_dropShadow_141_490"/><feBlend in="SourceGraphic" in2="effect1_dropShadow_141_490" result="shape"/></filter><filter id="e" width="67.971" height="68.436" x="20.029" y="41.462" color-interpolation-filters="sRGB" filterUnits="userSpaceOnUse"><feFlood flood-opacity="0" result="BackgroundImageFix"/><feColorMatrix in="SourceAlpha" result="hardAlpha" values="0 0 0 0 0 0 0 0 0 0 0 0 0 0 0 0 0 0 127 0"/><feOffset dy="2"/><feGaussianBlur stdDeviation="2"/><feComposite in2="hardAlpha" operator="out"/><feColorMatrix values="0 0 0 0 0 0 0 0 0 0 0 0 0 0 0 0 0 0 0.25 0"/><feBlend in2="BackgroundImageFix" result="effect1_dropShadow_141_490"/><feBlend in="SourceGraphic" in2="effect1_dropShadow_141_490" result="shape"/></filter><linearGradient id="a" x1="64" x2="64" y1="0" y2="128" gradientUnits="userSpaceOnUse"><stop stop-color="#29B6F6"/><stop offset=".51" stop-color="#0288D1"/><stop offset="1" stop-color="#0277BD"/></linearGradient></defs></svg>