<svg xmlns="http://www.w3.org/2000/svg" width="128" height="128" fill="none"><rect width="128" height="128" fill="url(#a)" rx="32"/><rect width="128" height="128" fill="url(#b)" rx="32"/><g filter="url(#c)"><rect width="112" height="112" x="8" y="8" fill="#000" fill-opacity=".7" rx="24"/><g clip-path="url(#d)"><g filter="url(#e)"><path fill="url(#f)" d="m31.945 99.438-11.83-70.126 21.878-9.079 13.97 8.302 12.8-6.903 26.67 10.24-14.958 76.014z"/></g><g filter="url(#g)"><path fill="url(#h)" d="M107.886 49.838 96.558 21.86l-20.554-1.746L44.28 50.596l8.54 39.287 15.944 11.182 39.123-23.214-9.6-18.002z"/></g><g filter="url(#i)"><path fill="url(#j)" d="m90.304 45.669 7.982 14.18 9.6-10.011-7.049-17.427z"/></g><g filter="url(#k)"><path fill="#000" d="M36.571 36.571h54.857V91.43H36.571z"/></g><path fill="#fff" d="M43.41 81.06h20.572v3.43H43.411zm19.475-37.659-3.063 12.005L56.32 43.4h-3.483l-3.511 12.005L46.272 43.4h-4.8l5.879 20.58h3.858l3.365-11.912 3.328 11.913h3.904l5.87-20.58zm5.65 17.646 2.679-3.21a9.45 9.45 0 0 0 6.162 2.506c1.829 0 2.98-.732 2.98-1.948v-.054c0-1.152-.712-1.738-4.16-2.624-4.16-1.061-6.838-2.213-6.838-6.309v-.064c0-3.74 3.008-6.217 7.223-6.217 2.782-.05 5.494.88 7.662 2.624l-2.36 3.42a9.64 9.64 0 0 0-5.366-2.03c-1.737 0-2.652.795-2.652 1.828v.064c0 1.353.915 1.829 4.453 2.743 4.187 1.097 6.546 2.597 6.546 6.199v.055c0 4.096-3.127 6.4-7.58 6.4a13.1 13.1 0 0 1-8.749-3.3"/></g></g><defs><linearGradient id="a" x1="64" x2="64" y1="0" y2="128" gradientUnits="userSpaceOnUse"><stop stop-color="#3BEA62"/><stop offset=".5" stop-color="#009AE5"/><stop offset="1" stop-color="#6B57FF"/></linearGradient><linearGradient id="b" x1="53.419" x2="82.461" y1="2.497" y2="124.192" gradientUnits="userSpaceOnUse"><stop offset=".28" stop-color="#07C3F2"/><stop offset=".94" stop-color="#087CFA"/></linearGradient><linearGradient id="f" x1="51.547" x2="74.258" y1="21.943" y2="103.717" gradientUnits="userSpaceOnUse"><stop offset=".28" stop-color="#07C3F2"/><stop offset=".94" stop-color="#087CFA"/></linearGradient><linearGradient id="h" x1="58.633" x2="97.061" y1="32.32" y2="88.667" gradientUnits="userSpaceOnUse"><stop offset=".14" stop-color="#FCF84A"/><stop offset=".37" stop-color="#07C3F2"/></linearGradient><linearGradient id="j" x1="96.704" x2="101.751" y1="39.287" y2="57.161" gradientUnits="userSpaceOnUse"><stop offset=".28" stop-color="#07C3F2"/><stop offset=".94" stop-color="#087CFA"/></linearGradient><filter id="c" width="112" height="116" x="8" y="8" color-interpolation-filters="sRGB" filterUnits="userSpaceOnUse"><feFlood flood-opacity="0" result="BackgroundImageFix"/><feBlend in="SourceGraphic" in2="BackgroundImageFix" result="shape"/><feColorMatrix in="SourceAlpha" result="hardAlpha" values="0 0 0 0 0 0 0 0 0 0 0 0 0 0 0 0 0 0 127 0"/><feOffset dy="4"/><feGaussianBlur stdDeviation="2"/><feComposite in2="hardAlpha" k2="-1" k3="1" operator="arithmetic"/><feColorMatrix values="0 0 0 0 0 0 0 0 0 0 0 0 0 0 0 0 0 0 0.25 0"/><feBlend in2="shape" result="effect1_innerShadow_141_441"/></filter><filter id="e" width="83.319" height="95.653" x="16.114" y="18.233" color-interpolation-filters="sRGB" filterUnits="userSpaceOnUse"><feFlood flood-opacity="0" result="BackgroundImageFix"/><feColorMatrix in="SourceAlpha" result="hardAlpha" values="0 0 0 0 0 0 0 0 0 0 0 0 0 0 0 0 0 0 127 0"/><feOffset dy="2"/><feGaussianBlur stdDeviation="2"/><feComposite in2="hardAlpha" operator="out"/><feColorMatrix values="0 0 0 0 0 0 0 0 0 0 0 0 0 0 0 0 0 0 0.25 0"/><feBlend in2="BackgroundImageFix" result="effect1_dropShadow_141_441"/><feBlend in="SourceGraphic" in2="effect1_dropShadow_141_441" result="shape"/></filter><filter id="g" width="71.607" height="88.951" x="40.279" y="18.114" color-interpolation-filters="sRGB" filterUnits="userSpaceOnUse"><feFlood flood-opacity="0" result="BackgroundImageFix"/><feColorMatrix in="SourceAlpha" result="hardAlpha" values="0 0 0 0 0 0 0 0 0 0 0 0 0 0 0 0 0 0 127 0"/><feOffset dy="2"/><feGaussianBlur stdDeviation="2"/><feComposite in2="hardAlpha" operator="out"/><feColorMatrix values="0 0 0 0 0 0 0 0 0 0 0 0 0 0 0 0 0 0 0.25 0"/><feBlend in2="BackgroundImageFix" result="effect1_dropShadow_141_441"/><feBlend in="SourceGraphic" in2="effect1_dropShadow_141_441" result="shape"/></filter><filter id="i" width="25.581" height="35.438" x="86.304" y="30.411" color-interpolation-filters="sRGB" filterUnits="userSpaceOnUse"><feFlood flood-opacity="0" result="BackgroundImageFix"/><feColorMatrix in="SourceAlpha" result="hardAlpha" values="0 0 0 0 0 0 0 0 0 0 0 0 0 0 0 0 0 0 127 0"/><feOffset dy="2"/><feGaussianBlur stdDeviation="2"/><feComposite in2="hardAlpha" operator="out"/><feColorMatrix values="0 0 0 0 0 0 0 0 0 0 0 0 0 0 0 0 0 0 0.25 0"/><feBlend in2="BackgroundImageFix" result="effect1_dropShadow_141_441"/><feBlend in="SourceGraphic" in2="effect1_dropShadow_141_441" result="shape"/></filter><filter id="k" width="62.857" height="62.857" x="32.571" y="34.571" color-interpolation-filters="sRGB" filterUnits="userSpaceOnUse"><feFlood flood-opacity="0" result="BackgroundImageFix"/><feColorMatrix in="SourceAlpha" result="hardAlpha" values="0 0 0 0 0 0 0 0 0 0 0 0 0 0 0 0 0 0 127 0"/><feOffset dy="2"/><feGaussianBlur stdDeviation="2"/><feComposite in2="hardAlpha" operator="out"/><feColorMatrix values="0 0 0 0 0 0 0 0 0 0 0 0 0 0 0 0 0 0 0.25 0"/><feBlend in2="BackgroundImageFix" result="effect1_dropShadow_141_441"/><feBlend in="SourceGraphic" in2="effect1_dropShadow_141_441" result="shape"/></filter><clipPath id="d"><path fill="#fff" d="M16 16h96v96H16z"/></clipPath></defs></svg>