<svg xmlns="http://www.w3.org/2000/svg" width="128" height="128" fill="none"><rect width="128" height="128" fill="url(#a)" rx="32"/><rect width="128" height="128" fill="url(#b)" rx="32"/><g filter="url(#c)"><rect width="112" height="112" x="8" y="8" fill="#000" fill-opacity=".7" rx="24"/><g clip-path="url(#d)"><g filter="url(#e)"><path fill="url(#f)" d="m42.514 107.73 56.942-9.746a10.315 10.315 0 0 0 8.402-8.228 10.3 10.3 0 0 0-1.721-7.944 10.33 10.33 0 0 0-6.937-4.235l-57.253-8.036A19.327 19.327 0 0 0 20.05 86.51a19.318 19.318 0 0 0 22.464 21.22"/></g><g filter="url(#g)"><path fill="url(#h)" d="M80.713 24.302 26.26 74.514a19.29 19.29 0 0 0 1.133 29.331 19.293 19.293 0 0 0 26.094-2.067l50.286-54.418a16.3 16.3 0 0 0 4.279-12.134A16.32 16.32 0 0 0 91.36 19.989a16.3 16.3 0 0 0-10.646 4.313"/></g><g filter="url(#i)"><path fill="url(#j)" d="m91.593 96.082-64.54-46.4a16.375 16.375 0 0 1-1.389-25.453 16.366 16.366 0 0 1 22.4.466l56.832 55.552a10.35 10.35 0 0 1 2.27 11.52 10.378 10.378 0 0 1-15.573 4.315"/></g><g filter="url(#k)"><path fill="#000" d="M36.571 36.571h54.857V91.43H36.571z"/></g><path fill="#fff" d="M43.41 81.06h20.572v3.43H43.41zm5.943-25.215-7.927-12.499h5.312l4.92 8.284 5.01-8.284h5.156l-7.927 12.416v8.22h-4.544zm21.55-8.311H64.63v-4.188h17.088v4.188h-6.272v16.448h-4.544z"/></g></g><defs><linearGradient id="a" x1="64" x2="64" y1="0" y2="128" gradientUnits="userSpaceOnUse"><stop stop-color="#3BEA62"/><stop offset=".5" stop-color="#009AE5"/><stop offset="1" stop-color="#6B57FF"/></linearGradient><linearGradient id="b" x1="112.025" x2="17.332" y1="118.042" y2="40.661" gradientUnits="userSpaceOnUse"><stop offset=".15" stop-color="#07C3F2"/><stop offset=".53" stop-color="#6B57FF"/><stop offset="1" stop-color="#FF318C"/></linearGradient><linearGradient id="f" x1="91.84" x2="39.497" y1="79.26" y2="89.125" gradientUnits="userSpaceOnUse"><stop stop-color="#07C3F2"/><stop offset="1" stop-color="#6B57FF"/></linearGradient><linearGradient id="h" x1="90.048" x2="35.191" y1="38.528" y2="92.782" gradientUnits="userSpaceOnUse"><stop stop-color="#07C3F2"/><stop offset="1" stop-color="#6B57FF"/></linearGradient><linearGradient id="j" x1="97.061" x2="38.382" y1="91.959" y2="38.007" gradientUnits="userSpaceOnUse"><stop offset=".15" stop-color="#07C3F2"/><stop offset=".53" stop-color="#6B57FF"/><stop offset="1" stop-color="#FF318C"/></linearGradient><filter id="c" width="112" height="116" x="8" y="8" color-interpolation-filters="sRGB" filterUnits="userSpaceOnUse"><feFlood flood-opacity="0" result="BackgroundImageFix"/><feBlend in="SourceGraphic" in2="BackgroundImageFix" result="shape"/><feColorMatrix in="SourceAlpha" result="hardAlpha" values="0 0 0 0 0 0 0 0 0 0 0 0 0 0 0 0 0 0 127 0"/><feOffset dy="4"/><feGaussianBlur stdDeviation="2"/><feComposite in2="hardAlpha" k2="-1" k3="1" operator="arithmetic"/><feColorMatrix values="0 0 0 0 0 0 0 0 0 0 0 0 0 0 0 0 0 0 0.25 0"/><feBlend in2="shape" result="effect1_innerShadow_141_464"/></filter><filter id="e" width="96.12" height="46.657" x="15.927" y="67.352" color-interpolation-filters="sRGB" filterUnits="userSpaceOnUse"><feFlood flood-opacity="0" result="BackgroundImageFix"/><feColorMatrix in="SourceAlpha" result="hardAlpha" values="0 0 0 0 0 0 0 0 0 0 0 0 0 0 0 0 0 0 127 0"/><feOffset dy="2"/><feGaussianBlur stdDeviation="2"/><feComposite in2="hardAlpha" operator="out"/><feColorMatrix values="0 0 0 0 0 0 0 0 0 0 0 0 0 0 0 0 0 0 0.25 0"/><feBlend in2="BackgroundImageFix" result="effect1_dropShadow_141_464"/><feBlend in="SourceGraphic" in2="effect1_dropShadow_141_464" result="shape"/></filter><filter id="g" width="96.041" height="95.991" x="16.045" y="17.984" color-interpolation-filters="sRGB" filterUnits="userSpaceOnUse"><feFlood flood-opacity="0" result="BackgroundImageFix"/><feColorMatrix in="SourceAlpha" result="hardAlpha" values="0 0 0 0 0 0 0 0 0 0 0 0 0 0 0 0 0 0 127 0"/><feOffset dy="2"/><feGaussianBlur stdDeviation="2"/><feComposite in2="hardAlpha" operator="out"/><feColorMatrix values="0 0 0 0 0 0 0 0 0 0 0 0 0 0 0 0 0 0 0.25 0"/><feBlend in2="BackgroundImageFix" result="effect1_dropShadow_141_464"/><feBlend in="SourceGraphic" in2="effect1_dropShadow_141_464" result="shape"/></filter><filter id="i" width="95.765" height="86.003" x="16.249" y="18.024" color-interpolation-filters="sRGB" filterUnits="userSpaceOnUse"><feFlood flood-opacity="0" result="BackgroundImageFix"/><feColorMatrix in="SourceAlpha" result="hardAlpha" values="0 0 0 0 0 0 0 0 0 0 0 0 0 0 0 0 0 0 127 0"/><feOffset dy="2"/><feGaussianBlur stdDeviation="2"/><feComposite in2="hardAlpha" operator="out"/><feColorMatrix values="0 0 0 0 0 0 0 0 0 0 0 0 0 0 0 0 0 0 0.25 0"/><feBlend in2="BackgroundImageFix" result="effect1_dropShadow_141_464"/><feBlend in="SourceGraphic" in2="effect1_dropShadow_141_464" result="shape"/></filter><filter id="k" width="62.857" height="62.857" x="32.571" y="34.571" color-interpolation-filters="sRGB" filterUnits="userSpaceOnUse"><feFlood flood-opacity="0" result="BackgroundImageFix"/><feColorMatrix in="SourceAlpha" result="hardAlpha" values="0 0 0 0 0 0 0 0 0 0 0 0 0 0 0 0 0 0 127 0"/><feOffset dy="2"/><feGaussianBlur stdDeviation="2"/><feComposite in2="hardAlpha" operator="out"/><feColorMatrix values="0 0 0 0 0 0 0 0 0 0 0 0 0 0 0 0 0 0 0.25 0"/><feBlend in2="BackgroundImageFix" result="effect1_dropShadow_141_464"/><feBlend in="SourceGraphic" in2="effect1_dropShadow_141_464" result="shape"/></filter><clipPath id="d"><path fill="#fff" d="M16 16h96v96H16z"/></clipPath></defs></svg>