<svg width="128" height="128" viewBox="0 0 128 128" fill="none" xmlns="http://www.w3.org/2000/svg">
<rect width="128" height="128" rx="64" fill="#462E86"/>
<path d="M61 101C61 102.657 59.6569 104 58 104C56.3431 104 55 102.657 55 101V54H37C35.3431 54 34 52.6569 34 51C34 49.3431 35.3431 48 37 48H91C92.6569 48 94 49.3431 94 51C94 52.6569 92.6569 54 91 54H73V101C73 102.657 71.6569 104 70 104C68.3431 104 67 102.657 67 101V82C67 80.3431 65.6569 79 64 79C62.3431 79 61 80.3431 61 82V101Z" fill="#FAFAFA"/>
<path d="M73 33C73 37.9706 68.9706 42 64 42C59.0294 42 55 37.9706 55 33C55 28.0294 59.0294 24 64 24C68.9706 24 73 28.0294 73 33Z" fill="#FAFAFA"/>
</svg>
