<svg width="128" height="128" viewBox="0 0 128 128" fill="none" xmlns="http://www.w3.org/2000/svg">
<path d="M22 108.8L64 67.2L106 108.8V80L64 38.4L22 80V108.8Z" fill="#7962E7"/>
<path fill-rule="evenodd" clip-rule="evenodd" d="M86.6153 54.4C86.6153 69.3883 84.0954 82.9608 80.019 92.8H47.9808C43.9044 82.9608 41.3845 69.3883 41.3845 54.4C41.3845 43.8236 44.1871 33.9522 47.8191 25.6H80.1808C83.8127 33.9522 86.6153 43.8236 86.6153 54.4Z" fill="#CCCCCC"/>
<path d="M64.0001 0C64.0001 0 54.5046 10.2262 47.8192 25.6H80.1809C73.4956 10.2262 64.0001 0 64.0001 0Z" fill="#7962E7"/>
<path d="M80.154 99.2C80.154 115.106 64.0001 128 64.0001 128C64.0001 128 47.8463 115.106 47.8463 99.2L47.8462 92.8H80.154V99.2Z" fill="#FF7C19"/>
<path d="M73.6924 97.4545C73.6924 109.022 64.0001 118.4 64.0001 118.4C64.0001 118.4 54.3078 109.022 54.3078 97.4545L54.3077 92.8H73.6924V97.4545Z" fill="#FFE113"/>
<path d="M67.2308 94.5454C67.2308 98.8834 64.0001 102.4 64.0001 102.4C64.0001 102.4 60.7693 98.8834 60.7693 94.5454L60.7693 92.8H67.2308V94.5454Z" fill="#E6461D"/>
</svg>
