<svg width="128" height="128" viewBox="0 0 128 128" fill="none" xmlns="http://www.w3.org/2000/svg">
<rect width="128" height="128" rx="32" fill="url(#paint0_linear_141_810)"/>
<g filter="url(#filter0_i_141_810)">
<rect x="8" y="8" width="112" height="112" rx="24" fill="black" fill-opacity="0.7"/>
<g clip-path="url(#clip0_141_810)">
<g filter="url(#filter1_d_141_810)">
<path d="M100.806 64.2297C100.806 63.1059 99.9758 62.4579 98.9565 62.7798L28.8379 85.0145C27.8166 85.3386 26.988 86.5137 26.988 87.6355V110.36C26.988 111.484 27.8166 112.134 28.8379 111.81L98.9565 89.5776C99.9758 89.2535 100.806 88.0784 100.806 86.9546V64.2297Z" fill="url(#paint1_linear_141_810)"/>
<path d="M26.988 63.5058C26.988 64.6296 27.8166 65.8047 28.8379 66.1288L98.9668 88.3655C99.9881 88.6895 100.817 88.0394 100.817 86.9177V64.1908C100.817 63.069 99.9881 61.8939 98.9668 61.5699L28.8379 39.3331C27.8166 39.0091 26.988 39.6571 26.988 40.781V63.5058Z" fill="#FF9800"/>
<path d="M100.806 17.5332C100.806 16.4094 99.9758 15.7593 98.9565 16.0833L28.8379 38.316C27.8166 38.64 26.988 39.8151 26.988 40.9389V63.6638C26.988 64.7876 27.8166 65.4356 28.8379 65.1137L98.9565 42.879C99.9758 42.5549 100.806 41.3798 100.806 40.2581V17.5332Z" fill="#FF9800"/>
</g>
</g>
</g>
<defs>
<filter id="filter0_i_141_810" x="8" y="8" width="112" height="116" filterUnits="userSpaceOnUse" color-interpolation-filters="sRGB">
<feFlood flood-opacity="0" result="BackgroundImageFix"/>
<feBlend mode="normal" in="SourceGraphic" in2="BackgroundImageFix" result="shape"/>
<feColorMatrix in="SourceAlpha" type="matrix" values="0 0 0 0 0 0 0 0 0 0 0 0 0 0 0 0 0 0 127 0" result="hardAlpha"/>
<feOffset dy="4"/>
<feGaussianBlur stdDeviation="2"/>
<feComposite in2="hardAlpha" operator="arithmetic" k2="-1" k3="1"/>
<feColorMatrix type="matrix" values="0 0 0 0 0 0 0 0 0 0 0 0 0 0 0 0 0 0 0.25 0"/>
<feBlend mode="normal" in2="shape" result="effect1_innerShadow_141_810"/>
</filter>
<filter id="filter1_d_141_810" x="22.988" y="14" width="81.8286" height="103.894" filterUnits="userSpaceOnUse" color-interpolation-filters="sRGB">
<feFlood flood-opacity="0" result="BackgroundImageFix"/>
<feColorMatrix in="SourceAlpha" type="matrix" values="0 0 0 0 0 0 0 0 0 0 0 0 0 0 0 0 0 0 127 0" result="hardAlpha"/>
<feOffset dy="2"/>
<feGaussianBlur stdDeviation="2"/>
<feComposite in2="hardAlpha" operator="out"/>
<feColorMatrix type="matrix" values="0 0 0 0 0 0 0 0 0 0 0 0 0 0 0 0 0 0 0.25 0"/>
<feBlend mode="normal" in2="BackgroundImageFix" result="effect1_dropShadow_141_810"/>
<feBlend mode="normal" in="SourceGraphic" in2="effect1_dropShadow_141_810" result="shape"/>
</filter>
<linearGradient id="paint0_linear_141_810" x1="64" y1="128" x2="64" y2="-4.3164e-07" gradientUnits="userSpaceOnUse">
<stop stop-color="#D06F00"/>
<stop offset="1" stop-color="#FF9800"/>
</linearGradient>
<linearGradient id="paint1_linear_141_810" x1="4095.64" y1="2949.51" x2="4405.24" y2="1914.28" gradientUnits="userSpaceOnUse">
<stop stop-color="#FF9700"/>
<stop offset="0.53" stop-color="#F48E00"/>
<stop offset="1" stop-color="#D06F00"/>
</linearGradient>
<clipPath id="clip0_141_810">
<rect width="96" height="96" fill="white" transform="translate(16 16)"/>
</clipPath>
</defs>
</svg>
