<svg width="128" height="128" viewBox="0 0 128 128" fill="none" xmlns="http://www.w3.org/2000/svg">
<rect width="128" height="128" rx="32" fill="url(#paint0_linear_141_810)"/>
<g filter="url(#filter0_i_141_810)">
<rect x="8" y="8" width="112" height="112" rx="24" fill="black" fill-opacity="0.7"/>
<g filter="url(#filter1_d_141_810)">
<path d="M94.6898 64.1829C94.6898 63.2453 93.9969 62.7047 93.1466 62.9733L34.6494 81.5228C33.7974 81.7931 33.1062 82.7735 33.1062 83.7093V102.668C33.1062 103.605 33.7974 104.148 34.6494 103.877L93.1466 85.3295C93.9969 85.0592 94.6898 84.0789 94.6898 83.1413V64.1829Z" fill="url(#paint1_linear_141_810)"/>
<path d="M33.1062 63.5789C33.1062 64.5165 33.7974 65.4968 34.6494 65.7672L93.1551 84.3184C94.0071 84.5887 94.6983 84.0463 94.6983 83.1105V64.1504C94.6983 63.2145 94.0071 62.2342 93.1551 61.9639L34.6494 43.4126C33.7974 43.1423 33.1062 43.683 33.1062 44.6205V63.5789Z" fill="#FF9800"/>
<path d="M94.6898 25.2259C94.6898 24.2883 93.9969 23.7459 93.1466 24.0163L34.6494 42.5641C33.7974 42.8344 33.1062 43.8147 33.1062 44.7523V63.7107C33.1062 64.6482 33.7974 65.1889 34.6494 64.9203L93.1466 46.3708C93.9969 46.1005 94.6898 45.1201 94.6898 44.1843V25.2259Z" fill="#FF9800"/>
</g>
</g>
<defs>
<filter id="filter0_i_141_810" x="8" y="8" width="112" height="116" filterUnits="userSpaceOnUse" color-interpolation-filters="sRGB">
<feFlood flood-opacity="0" result="BackgroundImageFix"/>
<feBlend mode="normal" in="SourceGraphic" in2="BackgroundImageFix" result="shape"/>
<feColorMatrix in="SourceAlpha" type="matrix" values="0 0 0 0 0 0 0 0 0 0 0 0 0 0 0 0 0 0 127 0" result="hardAlpha"/>
<feOffset dy="4"/>
<feGaussianBlur stdDeviation="2"/>
<feComposite in2="hardAlpha" operator="arithmetic" k2="-1" k3="1"/>
<feColorMatrix type="matrix" values="0 0 0 0 0 0 0 0 0 0 0 0 0 0 0 0 0 0 0.25 0"/>
<feBlend mode="normal" in2="shape" result="effect1_innerShadow_141_810"/>
</filter>
<filter id="filter1_d_141_810" x="29.7692" y="22.2783" width="68.2661" height="86.6741" filterUnits="userSpaceOnUse" color-interpolation-filters="sRGB">
<feFlood flood-opacity="0" result="BackgroundImageFix"/>
<feColorMatrix in="SourceAlpha" type="matrix" values="0 0 0 0 0 0 0 0 0 0 0 0 0 0 0 0 0 0 127 0" result="hardAlpha"/>
<feOffset dy="1.66852"/>
<feGaussianBlur stdDeviation="1.66852"/>
<feComposite in2="hardAlpha" operator="out"/>
<feColorMatrix type="matrix" values="0 0 0 0 0 0 0 0 0 0 0 0 0 0 0 0 0 0 0.25 0"/>
<feBlend mode="normal" in2="BackgroundImageFix" result="effect1_dropShadow_141_810"/>
<feBlend mode="normal" in="SourceGraphic" in2="effect1_dropShadow_141_810" result="shape"/>
</filter>
<linearGradient id="paint0_linear_141_810" x1="64" y1="128" x2="64" y2="-4.3164e-07" gradientUnits="userSpaceOnUse">
<stop stop-color="#D06F00"/>
<stop offset="1" stop-color="#FF9800"/>
</linearGradient>
<linearGradient id="paint1_linear_141_810" x1="3427.41" y1="2471.25" x2="3685.7" y2="1607.6" gradientUnits="userSpaceOnUse">
<stop stop-color="#FF9700"/>
<stop offset="0.53" stop-color="#F48E00"/>
<stop offset="1" stop-color="#D06F00"/>
</linearGradient>
</defs>
</svg>
