<svg width="128" height="128" viewBox="0 0 128 128" fill="none" xmlns="http://www.w3.org/2000/svg">
<rect width="128" height="128" rx="32" fill="url(#paint0_linear_141_490)"/>
<g filter="url(#filter0_i_141_490)">
<rect x="8" y="8" width="112" height="112" rx="24" fill="black" fill-opacity="0.7"/>
<g filter="url(#filter1_d_141_490)">
<path d="M104 38.22V89.78C104 92.32 102.42 94.58 100.04 95.42L82.3999 103.7L83.9999 82V46L82.3999 24.3L100.04 32.58C102.42 33.42 104 35.68 104 38.22Z" fill="#29B6F6"/>
</g>
<g filter="url(#filter2_d_141_490)">
<path d="M34.0001 83.7919L84.0001 45.9999V26.7059C84.0001 24.3099 81.0361 23.1899 79.4501 24.9859L25.3161 74.4779C23.5161 76.1379 23.6181 79.0119 25.5301 80.5419C25.5301 80.5419 28.1781 83.0059 29.1361 83.6899C30.6081 84.7399 32.5421 84.8599 34.0001 83.7919Z" fill="#0277BD"/>
</g>
<g filter="url(#filter3_d_141_490)">
<path d="M34.0001 44.208L84.0001 82V101.294C84.0001 103.69 81.0361 104.81 79.4501 103.014L25.3161 53.522C23.5161 51.862 23.6181 48.988 25.5301 47.458C25.5301 47.458 28.1781 44.994 29.1361 44.31C30.6081 43.26 32.5421 43.14 34.0001 44.208Z" fill="#0288D1"/>
</g>
</g>
<defs>
<filter id="filter0_i_141_490" x="8" y="8" width="112" height="116" filterUnits="userSpaceOnUse" color-interpolation-filters="sRGB">
<feFlood flood-opacity="0" result="BackgroundImageFix"/>
<feBlend mode="normal" in="SourceGraphic" in2="BackgroundImageFix" result="shape"/>
<feColorMatrix in="SourceAlpha" type="matrix" values="0 0 0 0 0 0 0 0 0 0 0 0 0 0 0 0 0 0 127 0" result="hardAlpha"/>
<feOffset dy="4"/>
<feGaussianBlur stdDeviation="2"/>
<feComposite in2="hardAlpha" operator="arithmetic" k2="-1" k3="1"/>
<feColorMatrix type="matrix" values="0 0 0 0 0 0 0 0 0 0 0 0 0 0 0 0 0 0 0.25 0"/>
<feBlend mode="normal" in2="shape" result="effect1_innerShadow_141_490"/>
</filter>
<filter id="filter1_d_141_490" x="78.3999" y="22.3" width="29.6001" height="87.4" filterUnits="userSpaceOnUse" color-interpolation-filters="sRGB">
<feFlood flood-opacity="0" result="BackgroundImageFix"/>
<feColorMatrix in="SourceAlpha" type="matrix" values="0 0 0 0 0 0 0 0 0 0 0 0 0 0 0 0 0 0 127 0" result="hardAlpha"/>
<feOffset dy="2"/>
<feGaussianBlur stdDeviation="2"/>
<feComposite in2="hardAlpha" operator="out"/>
<feColorMatrix type="matrix" values="0 0 0 0 0 0 0 0 0 0 0 0 0 0 0 0 0 0 0.25 0"/>
<feBlend mode="normal" in2="BackgroundImageFix" result="effect1_dropShadow_141_490"/>
<feBlend mode="normal" in="SourceGraphic" in2="effect1_dropShadow_141_490" result="shape"/>
</filter>
<filter id="filter2_d_141_490" x="20.0286" y="22.1008" width="67.9714" height="68.4365" filterUnits="userSpaceOnUse" color-interpolation-filters="sRGB">
<feFlood flood-opacity="0" result="BackgroundImageFix"/>
<feColorMatrix in="SourceAlpha" type="matrix" values="0 0 0 0 0 0 0 0 0 0 0 0 0 0 0 0 0 0 127 0" result="hardAlpha"/>
<feOffset dy="2"/>
<feGaussianBlur stdDeviation="2"/>
<feComposite in2="hardAlpha" operator="out"/>
<feColorMatrix type="matrix" values="0 0 0 0 0 0 0 0 0 0 0 0 0 0 0 0 0 0 0.25 0"/>
<feBlend mode="normal" in2="BackgroundImageFix" result="effect1_dropShadow_141_490"/>
<feBlend mode="normal" in="SourceGraphic" in2="effect1_dropShadow_141_490" result="shape"/>
</filter>
<filter id="filter3_d_141_490" x="20.0286" y="41.4625" width="67.9714" height="68.4365" filterUnits="userSpaceOnUse" color-interpolation-filters="sRGB">
<feFlood flood-opacity="0" result="BackgroundImageFix"/>
<feColorMatrix in="SourceAlpha" type="matrix" values="0 0 0 0 0 0 0 0 0 0 0 0 0 0 0 0 0 0 127 0" result="hardAlpha"/>
<feOffset dy="2"/>
<feGaussianBlur stdDeviation="2"/>
<feComposite in2="hardAlpha" operator="out"/>
<feColorMatrix type="matrix" values="0 0 0 0 0 0 0 0 0 0 0 0 0 0 0 0 0 0 0.25 0"/>
<feBlend mode="normal" in2="BackgroundImageFix" result="effect1_dropShadow_141_490"/>
<feBlend mode="normal" in="SourceGraphic" in2="effect1_dropShadow_141_490" result="shape"/>
</filter>
<linearGradient id="paint0_linear_141_490" x1="64" y1="0" x2="64" y2="128" gradientUnits="userSpaceOnUse">
<stop stop-color="#29B6F6"/>
<stop offset="0.510417" stop-color="#0288D1"/>
<stop offset="1" stop-color="#0277BD"/>
</linearGradient>
</defs>
</svg>
