<svg width="128" height="128" viewBox="0 0 128 128" fill="none" xmlns="http://www.w3.org/2000/svg">
<rect width="128" height="128" rx="32" fill="url(#paint0_linear_143_2)"/>
<rect width="128" height="128" rx="32" fill="url(#paint1_linear_143_2)"/>
<rect width="128" height="128" rx="32" fill="url(#paint2_linear_143_2)"/>
<g filter="url(#filter0_i_143_2)">
<rect x="8" y="8" width="112" height="112" rx="24" fill="black" fill-opacity="0.7"/>
<g filter="url(#filter1_d_143_2)">
<path d="M64.3956 25.0773C63.7602 25.1914 63.1537 25.4294 62.6106 25.7775C60.3278 27.2437 59.6692 30.2795 61.14 32.5565C69.2274 45.0879 71.1359 54.5401 70.3083 62.8233C66.9613 78.6861 59.6851 81.9037 53.3267 81.9037C47.1184 81.9037 48.7811 71.681 53.4473 68.689C56.2327 66.9482 59.801 65.817 62.5396 65.817C65.2528 65.8174 67.4527 63.623 67.4534 60.9155C67.4527 58.2079 65.2528 56.0135 62.5396 56.0139C59.3413 56.0139 56.2033 56.6859 53.2749 57.8304C53.8727 55.0059 54.0941 51.9531 53.3205 48.7073C52.1462 43.7799 48.765 39.0726 42.8945 34.51C41.8667 33.71 40.5624 33.3504 39.2688 33.5104C37.9755 33.6704 36.799 34.3367 35.998 35.3624C34.3319 37.4999 34.7179 40.5805 36.86 42.2429C41.6425 45.9599 43.2219 48.7107 43.7617 50.9754C44.3014 53.24 43.8676 55.6694 42.783 59.0076C41.3961 63.5063 39.7867 67.522 39.0811 71.3731C38.7339 73.2686 38.7044 75.3321 38.6146 76.98C35.1709 73.6213 33.8225 69.1864 33.8225 62.7066C33.8218 59.9991 31.6219 57.8047 28.9087 57.8051C26.1975 57.8076 24.0007 60.0011 24 62.7066C24 71.5567 26.5868 79.9777 33.5183 85.5958C39.7937 91.578 55.751 89.367 55.751 98.9698C55.751 101.681 59.7162 103 62.4291 103C65.2114 103 68.713 101.139 68.713 98.9698C68.713 88.0737 80.1891 81.4517 99.0811 81.4807C101.794 81.4841 103.996 79.2917 104 76.5842C104.005 73.8767 101.81 71.6777 99.0963 71.6725C97.8045 71.6708 96.545 71.7155 95.3032 71.7892C97.4156 66.8183 98.3523 61.3462 98.1582 55.4355C98.0691 52.7295 95.7989 50.6078 93.0872 50.6963C90.3732 50.7839 88.2463 53.0519 88.3357 55.7602C88.5911 63.4991 88.3016 70.4097 82.5395 74.0523C80.9011 75.088 78.996 75.9855 77.1897 75.9855C78.5919 72.1687 79.6513 68.1401 80.0852 63.7976C80.362 61.0265 80.3913 57.734 80.075 55.1767C79.5848 51.2137 78.9929 46.7199 80.4961 43.3347C81.8464 40.4194 84.8725 39.1984 89.3144 39.1984C92.0256 39.1959 94.2224 37.0024 94.2231 34.2969C94.2248 31.5894 92.0276 29.3927 89.3144 29.3903C82.7129 29.3903 77.7087 32.867 74.8722 37.0673C73.3887 33.8968 71.5828 30.6303 69.4006 27.249C68.6955 26.1567 67.5847 25.3884 66.3123 25.1128C65.6819 24.9755 65.0306 24.9634 64.3956 25.0773Z" fill="#808080"/>
<path d="M64.3956 25.0773C63.7602 25.1914 63.1537 25.4294 62.6106 25.7775C60.3278 27.2437 59.6692 30.2795 61.14 32.5565C69.2274 45.0879 71.1359 54.5401 70.3083 62.8233C66.9613 78.6861 59.6851 81.9037 53.3267 81.9037C47.1184 81.9037 48.7811 71.681 53.4473 68.689C56.2327 66.9482 59.801 65.817 62.5396 65.817C65.2528 65.8174 67.4527 63.623 67.4534 60.9155C67.4527 58.2079 65.2528 56.0135 62.5396 56.0139C59.3413 56.0139 56.2033 56.6859 53.2749 57.8304C53.8727 55.0059 54.0941 51.9531 53.3205 48.7073C52.1462 43.7799 48.765 39.0726 42.8945 34.51C41.8667 33.71 40.5624 33.3504 39.2688 33.5104C37.9755 33.6704 36.799 34.3367 35.998 35.3624C34.3319 37.4999 34.7179 40.5805 36.86 42.2429C41.6425 45.9599 43.2219 48.7107 43.7617 50.9754C44.3014 53.24 43.8676 55.6694 42.783 59.0076C41.3961 63.5063 39.7867 67.522 39.0811 71.3731C38.7339 73.2686 38.7044 75.3321 38.6146 76.98C35.1709 73.6213 33.8225 69.1864 33.8225 62.7066C33.8218 59.9991 31.6219 57.8047 28.9087 57.8051C26.1975 57.8076 24.0007 60.0011 24 62.7066C24 71.5567 26.5868 79.9777 33.5183 85.5958C39.7937 91.578 55.751 89.367 55.751 98.9698C55.751 101.681 59.7162 103 62.4291 103C65.2114 103 68.713 101.139 68.713 98.9698C68.713 88.0737 80.1891 81.4517 99.0811 81.4807C101.794 81.4841 103.996 79.2917 104 76.5842C104.005 73.8767 101.81 71.6777 99.0963 71.6725C97.8045 71.6708 96.545 71.7155 95.3032 71.7892C97.4156 66.8183 98.3523 61.3462 98.1582 55.4355C98.0691 52.7295 95.7989 50.6078 93.0872 50.6963C90.3732 50.7839 88.2463 53.0519 88.3357 55.7602C88.5911 63.4991 88.3016 70.4097 82.5395 74.0523C80.9011 75.088 78.996 75.9855 77.1897 75.9855C78.5919 72.1687 79.6513 68.1401 80.0852 63.7976C80.362 61.0265 80.3913 57.734 80.075 55.1767C79.5848 51.2137 78.9929 46.7199 80.4961 43.3347C81.8464 40.4194 84.8725 39.1984 89.3144 39.1984C92.0256 39.1959 94.2224 37.0024 94.2231 34.2969C94.2248 31.5894 92.0276 29.3927 89.3144 29.3903C82.7129 29.3903 77.7087 32.867 74.8722 37.0673C73.3887 33.8968 71.5828 30.6303 69.4006 27.249C68.6955 26.1567 67.5847 25.3884 66.3123 25.1128C65.6819 24.9755 65.0306 24.9634 64.3956 25.0773Z" fill="url(#paint3_linear_143_2)"/>
<path d="M64.3956 25.0773C63.7602 25.1914 63.1537 25.4294 62.6106 25.7775C60.3278 27.2437 59.6692 30.2795 61.14 32.5565C69.2274 45.0879 71.1359 54.5401 70.3083 62.8233C66.9613 78.6861 59.6851 81.9037 53.3267 81.9037C47.1184 81.9037 48.7811 71.681 53.4473 68.689C56.2327 66.9482 59.801 65.817 62.5396 65.817C65.2528 65.8174 67.4527 63.623 67.4534 60.9155C67.4527 58.2079 65.2528 56.0135 62.5396 56.0139C59.3413 56.0139 56.2033 56.6859 53.2749 57.8304C53.8727 55.0059 54.0941 51.9531 53.3205 48.7073C52.1462 43.7799 48.765 39.0726 42.8945 34.51C41.8667 33.71 40.5624 33.3504 39.2688 33.5104C37.9755 33.6704 36.799 34.3367 35.998 35.3624C34.3319 37.4999 34.7179 40.5805 36.86 42.2429C41.6425 45.9599 43.2219 48.7107 43.7617 50.9754C44.3014 53.24 43.8676 55.6694 42.783 59.0076C41.3961 63.5063 39.7867 67.522 39.0811 71.3731C38.7339 73.2686 38.7044 75.3321 38.6146 76.98C35.1709 73.6213 33.8225 69.1864 33.8225 62.7066C33.8218 59.9991 31.6219 57.8047 28.9087 57.8051C26.1975 57.8076 24.0007 60.0011 24 62.7066C24 71.5567 26.5868 79.9777 33.5183 85.5958C39.7937 91.578 55.751 89.367 55.751 98.9698C55.751 101.681 59.7162 103 62.4291 103C65.2114 103 68.713 101.139 68.713 98.9698C68.713 88.0737 80.1891 81.4517 99.0811 81.4807C101.794 81.4841 103.996 79.2917 104 76.5842C104.005 73.8767 101.81 71.6777 99.0963 71.6725C97.8045 71.6708 96.545 71.7155 95.3032 71.7892C97.4156 66.8183 98.3523 61.3462 98.1582 55.4355C98.0691 52.7295 95.7989 50.6078 93.0872 50.6963C90.3732 50.7839 88.2463 53.0519 88.3357 55.7602C88.5911 63.4991 88.3016 70.4097 82.5395 74.0523C80.9011 75.088 78.996 75.9855 77.1897 75.9855C78.5919 72.1687 79.6513 68.1401 80.0852 63.7976C80.362 61.0265 80.3913 57.734 80.075 55.1767C79.5848 51.2137 78.9929 46.7199 80.4961 43.3347C81.8464 40.4194 84.8725 39.1984 89.3144 39.1984C92.0256 39.1959 94.2224 37.0024 94.2231 34.2969C94.2248 31.5894 92.0276 29.3927 89.3144 29.3903C82.7129 29.3903 77.7087 32.867 74.8722 37.0673C73.3887 33.8968 71.5828 30.6303 69.4006 27.249C68.6955 26.1567 67.5847 25.3884 66.3123 25.1128C65.6819 24.9755 65.0306 24.9634 64.3956 25.0773Z" fill="url(#paint4_linear_143_2)"/>
<path d="M64.3956 25.0773C63.7602 25.1914 63.1537 25.4294 62.6106 25.7775C60.3278 27.2437 59.6692 30.2795 61.14 32.5565C69.2274 45.0879 71.1359 54.5401 70.3083 62.8233C66.9613 78.6861 59.6851 81.9037 53.3267 81.9037C47.1184 81.9037 48.7811 71.681 53.4473 68.689C56.2327 66.9482 59.801 65.817 62.5396 65.817C65.2528 65.8174 67.4527 63.623 67.4534 60.9155C67.4527 58.2079 65.2528 56.0135 62.5396 56.0139C59.3413 56.0139 56.2033 56.6859 53.2749 57.8304C53.8727 55.0059 54.0941 51.9531 53.3205 48.7073C52.1462 43.7799 48.765 39.0726 42.8945 34.51C41.8667 33.71 40.5624 33.3504 39.2688 33.5104C37.9755 33.6704 36.799 34.3367 35.998 35.3624C34.3319 37.4999 34.7179 40.5805 36.86 42.2429C41.6425 45.9599 43.2219 48.7107 43.7617 50.9754C44.3014 53.24 43.8676 55.6694 42.783 59.0076C41.3961 63.5063 39.7867 67.522 39.0811 71.3731C38.7339 73.2686 38.7044 75.3321 38.6146 76.98C35.1709 73.6213 33.8225 69.1864 33.8225 62.7066C33.8218 59.9991 31.6219 57.8047 28.9087 57.8051C26.1975 57.8076 24.0007 60.0011 24 62.7066C24 71.5567 26.5868 79.9777 33.5183 85.5958C39.7937 91.578 55.751 89.367 55.751 98.9698C55.751 101.681 59.7162 103 62.4291 103C65.2114 103 68.713 101.139 68.713 98.9698C68.713 88.0737 80.1891 81.4517 99.0811 81.4807C101.794 81.4841 103.996 79.2917 104 76.5842C104.005 73.8767 101.81 71.6777 99.0963 71.6725C97.8045 71.6708 96.545 71.7155 95.3032 71.7892C97.4156 66.8183 98.3523 61.3462 98.1582 55.4355C98.0691 52.7295 95.7989 50.6078 93.0872 50.6963C90.3732 50.7839 88.2463 53.0519 88.3357 55.7602C88.5911 63.4991 88.3016 70.4097 82.5395 74.0523C80.9011 75.088 78.996 75.9855 77.1897 75.9855C78.5919 72.1687 79.6513 68.1401 80.0852 63.7976C80.362 61.0265 80.3913 57.734 80.075 55.1767C79.5848 51.2137 78.9929 46.7199 80.4961 43.3347C81.8464 40.4194 84.8725 39.1984 89.3144 39.1984C92.0256 39.1959 94.2224 37.0024 94.2231 34.2969C94.2248 31.5894 92.0276 29.3927 89.3144 29.3903C82.7129 29.3903 77.7087 32.867 74.8722 37.0673C73.3887 33.8968 71.5828 30.6303 69.4006 27.249C68.6955 26.1567 67.5847 25.3884 66.3123 25.1128C65.6819 24.9755 65.0306 24.9634 64.3956 25.0773Z" fill="url(#paint5_linear_143_2)"/>
</g>
</g>
<defs>
<filter id="filter0_i_143_2" x="8" y="8" width="112" height="116" filterUnits="userSpaceOnUse" color-interpolation-filters="sRGB">
<feFlood flood-opacity="0" result="BackgroundImageFix"/>
<feBlend mode="normal" in="SourceGraphic" in2="BackgroundImageFix" result="shape"/>
<feColorMatrix in="SourceAlpha" type="matrix" values="0 0 0 0 0 0 0 0 0 0 0 0 0 0 0 0 0 0 127 0" result="hardAlpha"/>
<feOffset dy="4"/>
<feGaussianBlur stdDeviation="2"/>
<feComposite in2="hardAlpha" operator="arithmetic" k2="-1" k3="1"/>
<feColorMatrix type="matrix" values="0 0 0 0 0 0 0 0 0 0 0 0 0 0 0 0 0 0 0.25 0"/>
<feBlend mode="normal" in2="shape" result="effect1_innerShadow_143_2"/>
</filter>
<filter id="filter1_d_143_2" x="20" y="23" width="88" height="86" filterUnits="userSpaceOnUse" color-interpolation-filters="sRGB">
<feFlood flood-opacity="0" result="BackgroundImageFix"/>
<feColorMatrix in="SourceAlpha" type="matrix" values="0 0 0 0 0 0 0 0 0 0 0 0 0 0 0 0 0 0 127 0" result="hardAlpha"/>
<feOffset dy="2"/>
<feGaussianBlur stdDeviation="2"/>
<feComposite in2="hardAlpha" operator="out"/>
<feColorMatrix type="matrix" values="0 0 0 0 0 0 0 0 0 0 0 0 0 0 0 0 0 0 0.25 0"/>
<feBlend mode="normal" in2="BackgroundImageFix" result="effect1_dropShadow_143_2"/>
<feBlend mode="normal" in="SourceGraphic" in2="effect1_dropShadow_143_2" result="shape"/>
</filter>
<linearGradient id="paint0_linear_143_2" x1="0.000131788" y1="64" x2="128" y2="64" gradientUnits="userSpaceOnUse">
<stop stop-color="#0066FF"/>
<stop offset="1" stop-color="#00CCFF"/>
</linearGradient>
<linearGradient id="paint1_linear_143_2" x1="-1.5209e-05" y1="63.9998" x2="128" y2="63.9998" gradientUnits="userSpaceOnUse">
<stop stop-color="#88AA00"/>
<stop offset="1" stop-color="#FFCC00"/>
</linearGradient>
<linearGradient id="paint2_linear_143_2" x1="-0.000297709" y1="63.9998" x2="128" y2="63.9998" gradientUnits="userSpaceOnUse">
<stop stop-color="#37C871"/>
<stop offset="1" stop-color="#217844"/>
</linearGradient>
<linearGradient id="paint3_linear_143_2" x1="24.0001" y1="64" x2="104" y2="64" gradientUnits="userSpaceOnUse">
<stop stop-color="#0066FF"/>
<stop offset="1" stop-color="#00CCFF"/>
</linearGradient>
<linearGradient id="paint4_linear_143_2" x1="24" y1="63.9999" x2="104" y2="63.9999" gradientUnits="userSpaceOnUse">
<stop stop-color="#88AA00"/>
<stop offset="1" stop-color="#FFCC00"/>
</linearGradient>
<linearGradient id="paint5_linear_143_2" x1="23.9998" y1="63.9999" x2="104" y2="63.9999" gradientUnits="userSpaceOnUse">
<stop stop-color="#37C871"/>
<stop offset="1" stop-color="#217844"/>
</linearGradient>
</defs>
</svg>
