<svg width="128" height="128" viewBox="0 0 128 128" fill="none" xmlns="http://www.w3.org/2000/svg">
<rect width="128" height="128" rx="32" fill="url(#paint0_linear_66_80)"/>
<g filter="url(#filter0_i_66_80)">
<rect x="8" y="8" width="112" height="112" rx="24" fill="black" fill-opacity="0.7"/>
<g filter="url(#filter1_d_66_80)">
<path d="M43.2496 23C47.2618 23 51.0086 25.0052 53.2342 28.3436L53.7344 29.094L57.0626 26.8752L53.7344 29.094C57.4438 34.658 63.6884 38 70.3754 38H93C99.6274 38 105 43.3726 105 50V93C105 99.6274 99.6274 105 93 105H35C28.3726 105 23 99.6274 23 93V35C23 28.3726 28.3726 23 35 23H43.2496Z" stroke="url(#paint1_linear_66_80)" stroke-width="8" shape-rendering="crispEdges"/>
</g>
<g filter="url(#filter2_d_66_80)">
<path fill-rule="evenodd" clip-rule="evenodd" d="M54.0225 70.3961C54.9048 75.4727 59.5245 79.3551 65.0726 79.3551H82.7969C85.8885 79.3551 88.7062 78.442 90.7305 76.241C92.7317 74.0639 93.863 71.0622 94 67.5597V67.4779C94 64.1049 92.6107 60.6943 90.0901 58.4167C87.6549 56.2157 84.4139 55.0027 80.9647 55.0027H70.8805V53.4559C70.8805 52.8409 70.4981 52.352 69.9858 52.1305C69.566 51.9483 69.0608 51.9449 68.6054 52.197L62.0166 55.8426C61.0044 56.4014 61.0044 57.7983 62.0166 58.357L68.6054 62.001C69.0608 62.2531 69.566 62.2497 69.9858 62.0674C70.4981 61.8459 70.8805 61.3587 70.8805 60.7437V59.4746H80.9647C83.2167 59.4746 85.3193 60.5529 86.8847 61.9669C88.4518 63.3825 89.3181 65.3246 89.3306 67.437C89.1331 72.144 86.5716 74.8833 82.7969 74.8833H65.0726C61.9117 74.8833 59.2648 72.7215 58.6671 69.8595C58.5176 69.1457 57.8719 68.6261 57.1124 68.6261H55.5826C54.6024 68.6261 53.8607 69.4711 54.0225 70.3961Z" fill="#8B00E7"/>
<path d="M47.0353 86.9973C43.5861 86.9973 40.3451 85.786 37.9099 83.585C35.3893 81.3057 34 77.8969 34 74.5238V74.4403C34.137 70.9395 35.2683 67.9362 37.2695 65.759C39.2938 63.5597 42.1115 62.6449 45.2031 62.6449H62.9274C68.4755 62.6449 73.0952 66.5273 73.9775 71.6039C74.1393 72.5307 73.3976 73.3756 72.4174 73.3756H70.8876C70.1281 73.3756 69.4824 72.856 69.3329 72.1422C68.7353 69.2803 66.0883 67.1167 62.9274 67.1167H45.2031C41.4284 67.1167 38.8669 69.8578 38.6694 74.563C38.6819 76.6771 39.5482 78.6175 41.1153 80.0331C42.6807 81.4488 44.7833 82.5254 47.0353 82.5254H57.1195V81.258C57.1195 80.1882 58.2739 79.5033 59.2594 79.9326C59.3057 79.9531 59.3501 79.9752 59.3946 79.9991L65.9834 83.643C66.9956 84.2017 66.9956 85.6004 65.9834 86.1591L59.7237 89.6208C59.7237 89.6208 59.3057 89.849 59.2594 89.8695C58.2739 90.3005 57.1195 89.6139 57.1195 88.5458V86.9973H47.0353Z" fill="#D404FF"/>
</g>
</g>
<defs>
<filter id="filter0_i_66_80" x="8" y="8" width="112" height="116" filterUnits="userSpaceOnUse" color-interpolation-filters="sRGB">
<feFlood flood-opacity="0" result="BackgroundImageFix"/>
<feBlend mode="normal" in="SourceGraphic" in2="BackgroundImageFix" result="shape"/>
<feColorMatrix in="SourceAlpha" type="matrix" values="0 0 0 0 0 0 0 0 0 0 0 0 0 0 0 0 0 0 127 0" result="hardAlpha"/>
<feOffset dy="4"/>
<feGaussianBlur stdDeviation="2"/>
<feComposite in2="hardAlpha" operator="arithmetic" k2="-1" k3="1"/>
<feColorMatrix type="matrix" values="0 0 0 0 0 0 0 0 0 0 0 0 0 0 0 0 0 0 0.25 0"/>
<feBlend mode="normal" in2="shape" result="effect1_innerShadow_66_80"/>
</filter>
<filter id="filter1_d_66_80" x="15" y="17" width="98" height="98" filterUnits="userSpaceOnUse" color-interpolation-filters="sRGB">
<feFlood flood-opacity="0" result="BackgroundImageFix"/>
<feColorMatrix in="SourceAlpha" type="matrix" values="0 0 0 0 0 0 0 0 0 0 0 0 0 0 0 0 0 0 127 0" result="hardAlpha"/>
<feOffset dy="2"/>
<feGaussianBlur stdDeviation="2"/>
<feComposite in2="hardAlpha" operator="out"/>
<feColorMatrix type="matrix" values="0 0 0 0 0 0 0 0 0 0 0 0 0 0 0 0 0 0 0.25 0"/>
<feBlend mode="normal" in2="BackgroundImageFix" result="effect1_dropShadow_66_80"/>
<feBlend mode="normal" in="SourceGraphic" in2="effect1_dropShadow_66_80" result="shape"/>
</filter>
<filter id="filter2_d_66_80" x="30" y="50" width="68" height="46" filterUnits="userSpaceOnUse" color-interpolation-filters="sRGB">
<feFlood flood-opacity="0" result="BackgroundImageFix"/>
<feColorMatrix in="SourceAlpha" type="matrix" values="0 0 0 0 0 0 0 0 0 0 0 0 0 0 0 0 0 0 127 0" result="hardAlpha"/>
<feOffset dy="2"/>
<feGaussianBlur stdDeviation="2"/>
<feComposite in2="hardAlpha" operator="out"/>
<feColorMatrix type="matrix" values="0 0 0 0 0 0 0 0 0 0 0 0 0 0 0 0 0 0 0.25 0"/>
<feBlend mode="normal" in2="BackgroundImageFix" result="effect1_dropShadow_66_80"/>
<feBlend mode="normal" in="SourceGraphic" in2="effect1_dropShadow_66_80" result="shape"/>
</filter>
<linearGradient id="paint0_linear_66_80" x1="64" y1="0" x2="64" y2="128" gradientUnits="userSpaceOnUse">
<stop stop-color="#CB02C5"/>
<stop offset="0.244792" stop-color="#C101DA"/>
<stop offset="0.510417" stop-color="#B600F0"/>
<stop offset="0.744792" stop-color="#8900D9"/>
<stop offset="1" stop-color="#5800BF"/>
</linearGradient>
<linearGradient id="paint1_linear_66_80" x1="64" y1="19" x2="64" y2="109" gradientUnits="userSpaceOnUse">
<stop stop-color="#C301D5"/>
<stop offset="0.505208" stop-color="#B600EF"/>
<stop offset="1" stop-color="#8100D4"/>
</linearGradient>
</defs>
</svg>
