<svg width="128" height="128" viewBox="0 0 128 128" fill="none" xmlns="http://www.w3.org/2000/svg">
<rect width="128" height="128" rx="32" fill="#D3B9FF"/>
<rect width="128" height="128" rx="32" fill="url(#paint0_linear_9_1992)"/>
<rect width="128" height="128" rx="32" fill="url(#paint1_linear_9_1992)"/>
<g filter="url(#filter0_i_9_1992)">
<rect x="8" y="8" width="112" height="112" rx="24" fill="black" fill-opacity="0.7"/>
<g filter="url(#filter1_d_9_1992)">
<path d="M26.5 54.9994L47.5 45.9994V71.4994C47.5 80.6121 54.8873 87.9994 64 87.9994C73.1127 87.9994 80.5 80.6121 80.5 71.4994V30.9994L101.5 21.9994V75.9994C101.5 92.5679 88.0685 105.999 71.5 105.999H56.5C39.9315 105.999 26.5 92.5679 26.5 75.9994V54.9994Z" fill="#C10080"/>
<path d="M26.5 54.9994L47.5 45.9994V71.4994C47.5 80.6121 54.8873 87.9994 64 87.9994C73.1127 87.9994 80.5 80.6121 80.5 71.4994V30.9994L101.5 21.9994V75.9994C101.5 92.5679 88.0685 105.999 71.5 105.999H56.5C39.9315 105.999 26.5 92.5679 26.5 75.9994V54.9994Z" fill="#8B00E7"/>
</g>
<g filter="url(#filter2_d_9_1992)">
<path d="M56.5 105.999H71.5C88.0685 105.999 101.5 92.5679 101.5 75.9994V60.9994C98.5 47.4994 93.4352 41.2921 80.5 33.9994V71.4994C80.5 88.8964 60.397 102.797 43 102.797C47.0578 104.846 51.6442 105.999 56.5 105.999Z" fill="#D3B9FF"/>
<path d="M56.5 105.999H71.5C88.0685 105.999 101.5 92.5679 101.5 75.9994V60.9994C98.5 47.4994 93.4352 41.2921 80.5 33.9994V71.4994C80.5 88.8964 60.397 102.797 43 102.797C47.0578 104.846 51.6442 105.999 56.5 105.999Z" fill="#D404FF"/>
</g>
</g>
<defs>
<filter id="filter0_i_9_1992" x="8" y="8" width="112" height="114" filterUnits="userSpaceOnUse" color-interpolation-filters="sRGB">
<feFlood flood-opacity="0" result="BackgroundImageFix"/>
<feBlend mode="normal" in="SourceGraphic" in2="BackgroundImageFix" result="shape"/>
<feColorMatrix in="SourceAlpha" type="matrix" values="0 0 0 0 0 0 0 0 0 0 0 0 0 0 0 0 0 0 127 0" result="hardAlpha"/>
<feOffset dy="2"/>
<feGaussianBlur stdDeviation="2"/>
<feComposite in2="hardAlpha" operator="arithmetic" k2="-1" k3="1"/>
<feColorMatrix type="matrix" values="0 0 0 0 0 0 0 0 0 0 0 0 0 0 0 0 0 0 0.25 0"/>
<feBlend mode="normal" in2="shape" result="effect1_innerShadow_9_1992"/>
</filter>
<filter id="filter1_d_9_1992" x="22.5" y="19.9994" width="83" height="92" filterUnits="userSpaceOnUse" color-interpolation-filters="sRGB">
<feFlood flood-opacity="0" result="BackgroundImageFix"/>
<feColorMatrix in="SourceAlpha" type="matrix" values="0 0 0 0 0 0 0 0 0 0 0 0 0 0 0 0 0 0 127 0" result="hardAlpha"/>
<feOffset dy="2"/>
<feGaussianBlur stdDeviation="2"/>
<feComposite in2="hardAlpha" operator="out"/>
<feColorMatrix type="matrix" values="0 0 0 0 0 0 0 0 0 0 0 0 0 0 0 0 0 0 0.25 0"/>
<feBlend mode="normal" in2="BackgroundImageFix" result="effect1_dropShadow_9_1992"/>
<feBlend mode="normal" in="SourceGraphic" in2="effect1_dropShadow_9_1992" result="shape"/>
</filter>
<filter id="filter2_d_9_1992" x="39" y="31.9994" width="66.5" height="80" filterUnits="userSpaceOnUse" color-interpolation-filters="sRGB">
<feFlood flood-opacity="0" result="BackgroundImageFix"/>
<feColorMatrix in="SourceAlpha" type="matrix" values="0 0 0 0 0 0 0 0 0 0 0 0 0 0 0 0 0 0 127 0" result="hardAlpha"/>
<feOffset dy="2"/>
<feGaussianBlur stdDeviation="2"/>
<feComposite in2="hardAlpha" operator="out"/>
<feColorMatrix type="matrix" values="0 0 0 0 0 0 0 0 0 0 0 0 0 0 0 0 0 0 0.25 0"/>
<feBlend mode="normal" in2="BackgroundImageFix" result="effect1_dropShadow_9_1992"/>
<feBlend mode="normal" in="SourceGraphic" in2="effect1_dropShadow_9_1992" result="shape"/>
</filter>
<linearGradient id="paint0_linear_9_1992" x1="64" y1="0" x2="64" y2="128" gradientUnits="userSpaceOnUse">
<stop stop-color="#CB02C5"/>
<stop offset="0.244792" stop-color="#C101DA"/>
<stop offset="0.510417" stop-color="#B600F0"/>
<stop offset="0.744792" stop-color="#8900D9"/>
<stop offset="1" stop-color="#5800BF"/>
</linearGradient>
<linearGradient id="paint1_linear_9_1992" x1="64" y1="0" x2="64" y2="128" gradientUnits="userSpaceOnUse">
<stop offset="0.125" stop-color="#CB02C5"/>
<stop offset="0.333333" stop-color="#C101DA"/>
<stop offset="0.635417" stop-color="#B600F0"/>
<stop offset="0.864583" stop-color="#8900D9"/>
</linearGradient>
</defs>
</svg>
