<svg width="128" height="128" viewBox="0 0 128 128" fill="none" xmlns="http://www.w3.org/2000/svg">
<rect y="24" width="128" height="80" rx="8" fill="#CCCCCC"/>
<rect x="12" y="34" width="16" height="16" rx="4" fill="#2C2C2C"/>
<rect x="34" y="34" width="16" height="16" rx="4" fill="#2C2C2C"/>
<rect x="56" y="34" width="16" height="16" rx="4" fill="#2C2C2C"/>
<rect x="78" y="34" width="16" height="16" rx="4" fill="#2C2C2C"/>
<rect x="100" y="34" width="16" height="16" rx="4" fill="#2C2C2C"/>
<rect x="12" y="56" width="16" height="16" rx="4" fill="#2C2C2C"/>
<rect x="34" y="56" width="16" height="16" rx="4" fill="#2C2C2C"/>
<rect x="56" y="56" width="16" height="16" rx="4" fill="#2C2C2C"/>
<rect x="78" y="56" width="16" height="16" rx="4" fill="#2C2C2C"/>
<rect x="100" y="56" width="16" height="16" rx="4" fill="#2C2C2C"/>
<rect x="12" y="78" width="16" height="16" rx="4" fill="#2C2C2C"/>
<rect x="34" y="78" width="60" height="16" rx="4" fill="#2C2C2C"/>
<rect x="100" y="78" width="16" height="16" rx="4" fill="#2C2C2C"/>
</svg>
