<svg width="128" height="128" viewBox="0 0 128 128" fill="none" xmlns="http://www.w3.org/2000/svg">
<path d="M21 64C21 46.3269 35.3269 32 53 32H75C92.6731 32 107 46.3269 107 64V96H21V64Z" fill="#444444"/>
<path d="M29 96H41V122C41 125.314 38.3137 128 35 128C31.6863 128 29 125.314 29 122V96Z" fill="#CCCCCC"/>
<path d="M87 96H99V122C99 125.314 96.3137 128 93 128C89.6863 128 87 125.314 87 122V96Z" fill="#CCCCCC"/>
<path d="M58 6C58 2.68629 60.6863 0 64 0C67.3137 0 70 2.68629 70 6V32H58V6Z" fill="#333333"/>
</svg>
