<svg width="128" height="128" viewBox="0 0 128 128" fill="none" xmlns="http://www.w3.org/2000/svg">
<rect width="128" height="128" rx="32" fill="url(#paint0_linear_112_173)"/>
<g filter="url(#filter0_i_112_173)">
<rect x="8" y="8" width="112" height="112" rx="24" fill="black" fill-opacity="0.7"/>
<path d="M64.4494 102.884C86.2367 102.884 103.899 85.2252 103.899 63.442C103.899 41.6588 86.2367 24 64.4494 24C42.6621 24 25 41.6588 25 63.442C25 85.2252 42.6621 102.884 64.4494 102.884Z" fill="url(#paint1_linear_112_173)"/>
<path opacity="0.4" d="M94.4781 54.414L59.972 39.442L42.6557 40.41L52.0785 49.93L35.374 72.29L38.486 75.442L42.2117 81.442L41.2902 95.324C41.8056 95.7015 42.33 96.0662 42.8629 96.418L89.6375 93.738L89.6454 93.746C98.5215 86.37 103.721 75.478 103.875 63.938L94.4781 54.414Z" fill="url(#paint2_linear_112_173)"/>
<path fill-rule="evenodd" clip-rule="evenodd" d="M38.7822 102.002C38.7822 102.002 51.1098 58.076 99.098 63.662C99.098 63.662 68.5997 45.226 38.9934 70.08C30.2474 90.704 38.7822 102.002 38.7822 102.002Z" fill="url(#paint3_linear_112_173)"/>
<path fill-rule="evenodd" clip-rule="evenodd" d="M42.4526 96.446C42.4526 96.446 55.315 64.866 89.6515 64.312C63.5518 70.786 89.6949 93.74 89.6949 93.74C89.6949 93.74 69.0496 112.786 42.4526 96.446Z" fill="url(#paint4_linear_112_173)"/>
<path fill-rule="evenodd" clip-rule="evenodd" d="M35.2896 72.238C35.2896 72.238 60.9827 43.462 99.3507 63.344C98.664 57.936 94.1253 51.832 85.9911 50.088C84.1914 49.216 71.0034 28.462 42.6561 40.408C51.3764 41.1 55.1179 42.344 55.331 43.288C40.2486 40.648 35.7789 62.5 35.2896 72.238Z" fill="url(#paint5_linear_112_173)"/>
<path fill-rule="evenodd" clip-rule="evenodd" d="M72.1377 47.826C72.1377 47.826 78.711 45.43 79.5674 52.56C73.0849 53.18 72.1377 47.826 72.1377 47.826Z" fill="#202020"/>
<path fill-rule="evenodd" clip-rule="evenodd" d="M38.6107 102.142C38.6107 102.142 49.847 64.818 87.4198 63.372C87.4198 63.372 56.9314 57.708 35.3981 92.44C35.2797 97.354 38.6107 102.144 38.6107 102.144V102.142Z" fill="#FDD664"/>
<path fill-rule="evenodd" clip-rule="evenodd" d="M42.6855 40.412C42.6855 40.412 52.059 40.968 55.4038 43.312C56.801 43.018 57.989 42.044 58.1883 40.718C56.9904 40.212 46.0186 39.304 42.6875 40.412H42.6855Z" fill="url(#paint6_linear_112_173)"/>
<path fill-rule="evenodd" clip-rule="evenodd" d="M42.6855 40.412C42.6855 40.412 52.059 40.968 55.4038 43.312C56.801 43.018 57.989 42.044 58.1883 40.718C56.9904 40.212 46.0186 39.304 42.6875 40.412H42.6855Z" fill="#FDD664"/>
<path fill-rule="evenodd" clip-rule="evenodd" d="M35.3743 72.288C35.3743 72.288 47.1079 57.938 70.7921 56.224C70.7921 56.224 38.5474 57.708 35.8439 66.978C35.0901 69.208 35.3743 72.288 35.3743 72.288Z" fill="#FDD664"/>
</g>
<defs>
<filter id="filter0_i_112_173" x="8" y="8" width="112" height="116" filterUnits="userSpaceOnUse" color-interpolation-filters="sRGB">
<feFlood flood-opacity="0" result="BackgroundImageFix"/>
<feBlend mode="normal" in="SourceGraphic" in2="BackgroundImageFix" result="shape"/>
<feColorMatrix in="SourceAlpha" type="matrix" values="0 0 0 0 0 0 0 0 0 0 0 0 0 0 0 0 0 0 127 0" result="hardAlpha"/>
<feOffset dy="4"/>
<feGaussianBlur stdDeviation="2"/>
<feComposite in2="hardAlpha" operator="arithmetic" k2="-1" k3="1"/>
<feColorMatrix type="matrix" values="0 0 0 0 0 0 0 0 0 0 0 0 0 0 0 0 0 0 0.25 0"/>
<feBlend mode="normal" in2="shape" result="effect1_innerShadow_112_173"/>
</filter>
<linearGradient id="paint0_linear_112_173" x1="192.2" y1="-35.3815" x2="-28.3597" y2="127.947" gradientUnits="userSpaceOnUse">
<stop stop-color="#D446FF"/>
<stop offset="1" stop-color="#A0D8FF"/>
</linearGradient>
<linearGradient id="paint1_linear_112_173" x1="143.472" y1="2.19506" x2="7.53732" y2="102.876" gradientUnits="userSpaceOnUse">
<stop stop-color="#D446FF"/>
<stop offset="1" stop-color="#A0D8FF"/>
</linearGradient>
<linearGradient id="paint2_linear_112_173" x1="63.9187" y1="63.442" x2="103.915" y2="102.906" gradientUnits="userSpaceOnUse">
<stop stop-color="#292C2F"/>
<stop offset="1" stop-opacity="0"/>
</linearGradient>
<linearGradient id="paint3_linear_112_173" x1="61.8274" y1="66.4562" x2="89.7231" y2="44.8782" gradientUnits="userSpaceOnUse">
<stop stop-color="white"/>
<stop offset="1" stop-color="#DADADA"/>
</linearGradient>
<linearGradient id="paint4_linear_112_173" x1="67.1498" y1="91.6546" x2="48.99" y2="64.2522" gradientUnits="userSpaceOnUse">
<stop stop-color="white"/>
<stop offset="1" stop-color="#DADADA"/>
</linearGradient>
<linearGradient id="paint5_linear_112_173" x1="98.5062" y1="41.3306" x2="68.7305" y2="64.9219" gradientUnits="userSpaceOnUse">
<stop stop-color="#D0D0D0"/>
<stop offset="1" stop-color="white"/>
</linearGradient>
<linearGradient id="paint6_linear_112_173" x1="57.5233" y1="39.9665" x2="51.3244" y2="48.5207" gradientUnits="userSpaceOnUse">
<stop stop-color="#FFDC68"/>
<stop offset="1" stop-color="#CE4300"/>
</linearGradient>
</defs>
</svg>
