<svg width="128" height="128" viewBox="0 0 128 128" fill="none" xmlns="http://www.w3.org/2000/svg">
<rect x="80" y="20" width="48" height="88" rx="8" fill="#604029"/>
<rect x="88" y="68" width="32" height="32" rx="16" fill="#111111"/>
<rect x="92" y="72" width="24" height="24" rx="12" fill="#777777"/>
<circle cx="104" cy="84" r="4" fill="#111111"/>
<rect x="88" y="28" width="32" height="32" rx="16" fill="#111111"/>
<rect x="92" y="32" width="24" height="24" rx="12" fill="#777777"/>
<circle cx="104" cy="44" r="4" fill="#111111"/>
<rect y="20" width="48" height="88" rx="8" fill="#604029"/>
<rect x="8" y="68" width="32" height="32" rx="16" fill="#111111"/>
<rect x="12" y="72" width="24" height="24" rx="12" fill="#777777"/>
<circle cx="24" cy="84" r="4" fill="#111111"/>
<rect x="8" y="28" width="32" height="32" rx="16" fill="#111111"/>
<rect x="12" y="32" width="24" height="24" rx="12" fill="#777777"/>
<circle cx="24" cy="44" r="4" fill="#111111"/>
</svg>
