<svg width="128" height="128" viewBox="0 0 128 128" fill="none" xmlns="http://www.w3.org/2000/svg">
<rect width="128" height="128" rx="32" fill="url(#paint0_linear_89_638)"/>
<g filter="url(#filter0_i_89_638)">
<rect x="8" y="8" width="112" height="112" rx="24" fill="black" fill-opacity="0.7"/>
<g filter="url(#filter1_d_89_638)">
<path fill-rule="evenodd" clip-rule="evenodd" d="M63 24H37C32.5817 24 29 27.5817 29 32V96C29 100.418 32.5817 104 37 104H91C95.4183 104 99 100.418 99 96V60L63 24Z" fill="url(#paint1_linear_89_638)"/>
</g>
<g filter="url(#filter2_d_89_638)">
<path d="M99.0005 32C99.0005 27.5817 95.4188 24 91.0005 24L75.0005 24L99.0005 48V32Z" fill="#97989A"/>
</g>
<path d="M39 70H89M39 78H89M39 86H79" stroke="white" stroke-width="4" stroke-linecap="round" stroke-linejoin="round"/>
<path d="M43 58H40C39.4477 58 39 57.5523 39 57V43C39 42.4477 39.4477 42 40 42H62C62.5523 42 63 42.4477 63 43V57C63 57.5523 62.5523 58 62 58H54M43 58L45.4993 54.6677C45.7892 54.281 46.3142 54.1571 46.7465 54.3732L54 58M43 58H54" stroke="white" stroke-opacity="0.7" stroke-width="4" stroke-linecap="round" stroke-linejoin="round"/>
<circle cx="52" cy="50" r="2" fill="white" fill-opacity="0.7"/>
</g>
<defs>
<filter id="filter0_i_89_638" x="8" y="8" width="112" height="116" filterUnits="userSpaceOnUse" color-interpolation-filters="sRGB">
<feFlood flood-opacity="0" result="BackgroundImageFix"/>
<feBlend mode="normal" in="SourceGraphic" in2="BackgroundImageFix" result="shape"/>
<feColorMatrix in="SourceAlpha" type="matrix" values="0 0 0 0 0 0 0 0 0 0 0 0 0 0 0 0 0 0 127 0" result="hardAlpha"/>
<feOffset dy="4"/>
<feGaussianBlur stdDeviation="2"/>
<feComposite in2="hardAlpha" operator="arithmetic" k2="-1" k3="1"/>
<feColorMatrix type="matrix" values="0 0 0 0 0 0 0 0 0 0 0 0 0 0 0 0 0 0 0.25 0"/>
<feBlend mode="normal" in2="shape" result="effect1_innerShadow_89_638"/>
</filter>
<filter id="filter1_d_89_638" x="25" y="22" width="78" height="88" filterUnits="userSpaceOnUse" color-interpolation-filters="sRGB">
<feFlood flood-opacity="0" result="BackgroundImageFix"/>
<feColorMatrix in="SourceAlpha" type="matrix" values="0 0 0 0 0 0 0 0 0 0 0 0 0 0 0 0 0 0 127 0" result="hardAlpha"/>
<feOffset dy="2"/>
<feGaussianBlur stdDeviation="2"/>
<feComposite in2="hardAlpha" operator="out"/>
<feColorMatrix type="matrix" values="0 0 0 0 0 0 0 0 0 0 0 0 0 0 0 0 0 0 0.25 0"/>
<feBlend mode="normal" in2="BackgroundImageFix" result="effect1_dropShadow_89_638"/>
<feBlend mode="normal" in="SourceGraphic" in2="effect1_dropShadow_89_638" result="shape"/>
</filter>
<filter id="filter2_d_89_638" x="71.0005" y="22" width="32" height="32" filterUnits="userSpaceOnUse" color-interpolation-filters="sRGB">
<feFlood flood-opacity="0" result="BackgroundImageFix"/>
<feColorMatrix in="SourceAlpha" type="matrix" values="0 0 0 0 0 0 0 0 0 0 0 0 0 0 0 0 0 0 127 0" result="hardAlpha"/>
<feOffset dy="2"/>
<feGaussianBlur stdDeviation="2"/>
<feComposite in2="hardAlpha" operator="out"/>
<feColorMatrix type="matrix" values="0 0 0 0 0 0 0 0 0 0 0 0 0 0 0 0 0 0 0.25 0"/>
<feBlend mode="normal" in2="BackgroundImageFix" result="effect1_dropShadow_89_638"/>
<feBlend mode="normal" in="SourceGraphic" in2="effect1_dropShadow_89_638" result="shape"/>
</filter>
<linearGradient id="paint0_linear_89_638" x1="128" y1="0" x2="0" y2="128" gradientUnits="userSpaceOnUse">
<stop stop-color="#1FCAF8"/>
<stop offset="1" stop-color="#0D44B1"/>
</linearGradient>
<linearGradient id="paint1_linear_89_638" x1="99" y1="24" x2="19" y2="104" gradientUnits="userSpaceOnUse">
<stop stop-color="#1FCAF8"/>
<stop offset="1" stop-color="#0D44B1"/>
</linearGradient>
</defs>
</svg>
