<svg width="128" height="128" viewBox="0 0 128 128" fill="none" xmlns="http://www.w3.org/2000/svg">
<rect width="128" height="128" rx="32" fill="url(#paint0_linear_89_676)"/>
<g filter="url(#filter0_i_89_676)">
<rect x="8" y="8" width="112" height="112" rx="24" fill="black" fill-opacity="0.7"/>
<g filter="url(#filter1_d_89_676)">
<path fill-rule="evenodd" clip-rule="evenodd" d="M68 24H32C27.5817 24 24 27.5817 24 32V96C24 100.418 27.5817 104 32 104H96C100.418 104 104 100.418 104 96V60L68 24Z" fill="url(#paint1_linear_89_676)"/>
</g>
<g filter="url(#filter2_d_89_676)">
<path d="M68.0005 52C68.0005 56.4183 71.5822 60 76.0005 60L104 60L68.0005 24L68.0005 52Z" fill="#FAFAFA"/>
</g>
<g filter="url(#filter3_d_89_676)">
<path d="M104 32C104 27.5817 100.419 24 96.0005 24L80.0005 24L104 48V32Z" fill="#97989A"/>
</g>
<mask id="mask0_89_676" style="mask-type:alpha" maskUnits="userSpaceOnUse" x="44" y="60" width="40" height="40">
<rect x="44" y="60" width="40" height="40" fill="#D9D9D9"/>
</mask>
<g mask="url(#mask0_89_676)">
<path fill-rule="evenodd" clip-rule="evenodd" d="M62.3333 93.3333H65.625L66.2083 88.9167C67.0694 88.6945 67.868 88.3681 68.6042 87.9375C69.3403 87.507 70.0139 86.9861 70.625 86.375L74.75 88.0833L76.375 85.25L72.7917 82.5417C72.9305 82.1528 73.0278 81.7431 73.0833 81.3125C73.1389 80.882 73.1667 80.4445 73.1667 80C73.1667 79.5556 73.1389 79.1181 73.0833 78.6875C73.0278 78.257 72.9305 77.8472 72.7917 77.4583L76.375 74.75L74.75 71.9167L70.625 73.6667C70.0139 73.0278 69.3403 72.4931 68.6042 72.0625C67.868 71.632 67.0694 71.3056 66.2083 71.0833L65.6667 66.6667H62.375L61.7917 71.0833C60.9305 71.3056 60.1319 71.632 59.3958 72.0625C58.6597 72.4931 57.9861 73.0139 57.375 73.625L53.25 71.9167L51.625 74.75L55.2083 77.4167C55.0694 77.8333 54.9722 78.25 54.9167 78.6667C54.8611 79.0833 54.8333 79.5278 54.8333 80C54.8333 80.4445 54.8611 80.875 54.9167 81.2917C54.9722 81.7083 55.0694 82.125 55.2083 82.5417L51.625 85.25L53.25 88.0833L57.375 86.3333C57.9861 86.9722 58.6597 87.507 59.3958 87.9375C60.1319 88.3681 60.9305 88.6945 61.7917 88.9167L62.3333 93.3333ZM68.2083 84.125C67.0694 85.2639 65.6944 85.8333 64.0833 85.8333C62.4444 85.8333 61.0625 85.2639 59.9375 84.125C58.8125 82.9861 58.25 81.6111 58.25 80C58.25 78.3889 58.8125 77.0139 59.9375 75.875C61.0625 74.7361 62.4444 74.1667 64.0833 74.1667C65.6944 74.1667 67.0694 74.7361 68.2083 75.875C69.3472 77.0139 69.9167 78.3889 69.9167 80C69.9167 81.6111 69.3472 82.9861 68.2083 84.125Z" fill="url(#paint2_linear_89_676)"/>
<path fill-rule="evenodd" clip-rule="evenodd" d="M59.7917 96.25C60.0972 96.5278 60.4583 96.6667 60.875 96.6667H67.125C67.5417 96.6667 67.9028 96.5278 68.2083 96.25C68.5139 95.9722 68.6944 95.625 68.75 95.2083L69.25 91.3333C69.5833 91.1945 69.9167 91.0278 70.25 90.8333C70.5833 90.6389 70.9028 90.4306 71.2083 90.2083L74.75 91.7083C75.1389 91.875 75.5347 91.8889 75.9375 91.75C76.3403 91.6111 76.6528 91.3611 76.875 91L79.9583 85.6667C80.1805 85.3056 80.25 84.9167 80.1667 84.5C80.0833 84.0833 79.875 83.75 79.5417 83.5L76.4167 81.125C76.4722 80.9306 76.5 80.7431 76.5 80.5625V79.4375C76.5 79.257 76.4861 79.0695 76.4583 78.875L79.5833 76.5C79.9167 76.25 80.125 75.9167 80.2083 75.5C80.2917 75.0833 80.2222 74.6945 80 74.3333L76.9167 68.9583C76.6944 68.5972 76.3889 68.3542 76 68.2292C75.6111 68.1042 75.2222 68.125 74.8333 68.2917L71.2083 69.7917C70.9028 69.5695 70.5903 69.3611 70.2708 69.1667C69.9514 68.9722 69.6111 68.8056 69.25 68.6667L68.75 64.7917C68.6944 64.375 68.5139 64.0278 68.2083 63.75C67.9028 63.4722 67.5417 63.3333 67.125 63.3333H60.875C60.4583 63.3333 60.0972 63.4722 59.7917 63.75C59.4861 64.0278 59.3055 64.375 59.25 64.7917L58.75 68.6667C58.4167 68.8056 58.0833 68.9722 57.75 69.1667C57.4167 69.3611 57.0972 69.5695 56.7917 69.7917L53.1667 68.2917C52.7778 68.125 52.3889 68.1042 52 68.2292C51.6111 68.3542 51.3055 68.5972 51.0833 68.9583L48 74.3333C47.7778 74.6945 47.7083 75.0833 47.7917 75.5C47.875 75.9167 48.0833 76.25 48.4167 76.5L51.5417 78.875C51.5139 79.0695 51.5 79.257 51.5 79.4375V80.5625C51.5 80.7431 51.5139 80.9306 51.5417 81.125L48.4167 83.5C48.0833 83.75 47.875 84.0833 47.7917 84.5C47.7083 84.9167 47.7778 85.3056 48 85.6667L51.0833 91.0417C51.3055 91.4028 51.6111 91.6458 52 91.7708C52.3889 91.8958 52.7778 91.875 53.1667 91.7083L56.7917 90.2083C57.0972 90.4306 57.4097 90.6389 57.7292 90.8333C58.0486 91.0278 58.3889 91.1945 58.75 91.3333L59.25 95.2083C59.3055 95.625 59.4861 95.9722 59.7917 96.25ZM65.625 93.3333H62.3333L61.7917 88.9167C60.9305 88.6945 60.1319 88.3681 59.3958 87.9375C58.6597 87.507 57.9861 86.9722 57.375 86.3333L53.25 88.0833L51.625 85.25L55.2083 82.5417C55.0694 82.125 54.9722 81.7083 54.9167 81.2917C54.8611 80.875 54.8333 80.4445 54.8333 80C54.8333 79.5278 54.8611 79.0833 54.9167 78.6667C54.9722 78.25 55.0694 77.8333 55.2083 77.4167L51.625 74.75L53.25 71.9167L57.375 73.625C57.9861 73.0139 58.6597 72.4931 59.3958 72.0625C60.1319 71.632 60.9305 71.3056 61.7917 71.0833L62.375 66.6667H65.6667L66.2083 71.0833C67.0694 71.3056 67.868 71.632 68.6042 72.0625C69.3403 72.4931 70.0139 73.0278 70.625 73.6667L74.75 71.9167L76.375 74.75L72.7917 77.4583C72.9305 77.8472 73.0278 78.257 73.0833 78.6875C73.1389 79.1181 73.1667 79.5556 73.1667 80C73.1667 80.4445 73.1389 80.882 73.0833 81.3125C73.0278 81.7431 72.9305 82.1528 72.7917 82.5417L76.375 85.25L74.75 88.0833L70.625 86.375C70.0139 86.9861 69.3403 87.507 68.6042 87.9375C67.868 88.3681 67.0694 88.6945 66.2083 88.9167L65.625 93.3333Z" fill="url(#paint3_linear_89_676)"/>
</g>
</g>
<defs>
<filter id="filter0_i_89_676" x="8" y="8" width="112" height="116" filterUnits="userSpaceOnUse" color-interpolation-filters="sRGB">
<feFlood flood-opacity="0" result="BackgroundImageFix"/>
<feBlend mode="normal" in="SourceGraphic" in2="BackgroundImageFix" result="shape"/>
<feColorMatrix in="SourceAlpha" type="matrix" values="0 0 0 0 0 0 0 0 0 0 0 0 0 0 0 0 0 0 127 0" result="hardAlpha"/>
<feOffset dy="4"/>
<feGaussianBlur stdDeviation="2"/>
<feComposite in2="hardAlpha" operator="arithmetic" k2="-1" k3="1"/>
<feColorMatrix type="matrix" values="0 0 0 0 0 0 0 0 0 0 0 0 0 0 0 0 0 0 0.25 0"/>
<feBlend mode="normal" in2="shape" result="effect1_innerShadow_89_676"/>
</filter>
<filter id="filter1_d_89_676" x="20" y="22" width="88" height="88" filterUnits="userSpaceOnUse" color-interpolation-filters="sRGB">
<feFlood flood-opacity="0" result="BackgroundImageFix"/>
<feColorMatrix in="SourceAlpha" type="matrix" values="0 0 0 0 0 0 0 0 0 0 0 0 0 0 0 0 0 0 127 0" result="hardAlpha"/>
<feOffset dy="2"/>
<feGaussianBlur stdDeviation="2"/>
<feComposite in2="hardAlpha" operator="out"/>
<feColorMatrix type="matrix" values="0 0 0 0 0 0 0 0 0 0 0 0 0 0 0 0 0 0 0.25 0"/>
<feBlend mode="normal" in2="BackgroundImageFix" result="effect1_dropShadow_89_676"/>
<feBlend mode="normal" in="SourceGraphic" in2="effect1_dropShadow_89_676" result="shape"/>
</filter>
<filter id="filter2_d_89_676" x="64.0005" y="22" width="44" height="44" filterUnits="userSpaceOnUse" color-interpolation-filters="sRGB">
<feFlood flood-opacity="0" result="BackgroundImageFix"/>
<feColorMatrix in="SourceAlpha" type="matrix" values="0 0 0 0 0 0 0 0 0 0 0 0 0 0 0 0 0 0 127 0" result="hardAlpha"/>
<feOffset dy="2"/>
<feGaussianBlur stdDeviation="2"/>
<feComposite in2="hardAlpha" operator="out"/>
<feColorMatrix type="matrix" values="0 0 0 0 0 0 0 0 0 0 0 0 0 0 0 0 0 0 0.25 0"/>
<feBlend mode="normal" in2="BackgroundImageFix" result="effect1_dropShadow_89_676"/>
<feBlend mode="normal" in="SourceGraphic" in2="effect1_dropShadow_89_676" result="shape"/>
</filter>
<filter id="filter3_d_89_676" x="76.0005" y="22" width="32" height="32" filterUnits="userSpaceOnUse" color-interpolation-filters="sRGB">
<feFlood flood-opacity="0" result="BackgroundImageFix"/>
<feColorMatrix in="SourceAlpha" type="matrix" values="0 0 0 0 0 0 0 0 0 0 0 0 0 0 0 0 0 0 127 0" result="hardAlpha"/>
<feOffset dy="2"/>
<feGaussianBlur stdDeviation="2"/>
<feComposite in2="hardAlpha" operator="out"/>
<feColorMatrix type="matrix" values="0 0 0 0 0 0 0 0 0 0 0 0 0 0 0 0 0 0 0.25 0"/>
<feBlend mode="normal" in2="BackgroundImageFix" result="effect1_dropShadow_89_676"/>
<feBlend mode="normal" in="SourceGraphic" in2="effect1_dropShadow_89_676" result="shape"/>
</filter>
<linearGradient id="paint0_linear_89_676" x1="128" y1="0" x2="0" y2="128" gradientUnits="userSpaceOnUse">
<stop stop-color="#97989A"/>
<stop offset="1" stop-color="#505050"/>
</linearGradient>
<linearGradient id="paint1_linear_89_676" x1="64" y1="24" x2="64" y2="104" gradientUnits="userSpaceOnUse">
<stop stop-color="#FAFAFA"/>
<stop offset="1" stop-color="#D5D5D5"/>
</linearGradient>
<linearGradient id="paint2_linear_89_676" x1="64" y1="63.3333" x2="64" y2="96.6667" gradientUnits="userSpaceOnUse">
<stop stop-color="#34C8FF"/>
<stop offset="1" stop-color="#2192E1"/>
</linearGradient>
<linearGradient id="paint3_linear_89_676" x1="64" y1="63.3333" x2="64" y2="96.6667" gradientUnits="userSpaceOnUse">
<stop stop-color="#34C8FF"/>
<stop offset="1" stop-color="#2192E1"/>
</linearGradient>
</defs>
</svg>
