<svg width="128" height="128" viewBox="0 0 128 128" fill="none" xmlns="http://www.w3.org/2000/svg">
<rect width="128" height="128" rx="32" fill="url(#paint0_linear_89_694)"/>
<g filter="url(#filter0_i_89_694)">
<rect x="8" y="8" width="112" height="112" rx="24" fill="black" fill-opacity="0.7"/>
<g filter="url(#filter1_d_89_694)">
<path fill-rule="evenodd" clip-rule="evenodd" d="M68 34H32C27.5817 34 24 37.5817 24 42V86C24 90.4183 27.5817 94 32 94H96C100.418 94 104 90.4183 104 86V70L68 34Z" fill="url(#paint1_linear_89_694)"/>
</g>
<g filter="url(#filter2_d_89_694)">
<path d="M104 42C104 37.5817 100.419 34 96.0005 34H80.0005L104 58V42Z" fill="#97989A"/>
</g>
<path fill-rule="evenodd" clip-rule="evenodd" d="M78 44H41C39.8954 44 39 44.8954 39 46C39 47.1046 39.8954 48 41 48H82L78 44Z" fill="white"/>
<rect x="30" y="62" width="4" height="4" rx="2" fill="white"/>
<rect x="38" y="62" width="40" height="4" rx="2" fill="white"/>
<rect x="30" y="70" width="4" height="4" rx="2" fill="white"/>
<rect x="38" y="70" width="32" height="4" rx="2" fill="white"/>
<rect x="30" y="78" width="4" height="4" rx="2" fill="white"/>
<rect x="38" y="78" width="37" height="4" rx="2" fill="white"/>
</g>
<defs>
<filter id="filter0_i_89_694" x="8" y="8" width="112" height="116" filterUnits="userSpaceOnUse" color-interpolation-filters="sRGB">
<feFlood flood-opacity="0" result="BackgroundImageFix"/>
<feBlend mode="normal" in="SourceGraphic" in2="BackgroundImageFix" result="shape"/>
<feColorMatrix in="SourceAlpha" type="matrix" values="0 0 0 0 0 0 0 0 0 0 0 0 0 0 0 0 0 0 127 0" result="hardAlpha"/>
<feOffset dy="4"/>
<feGaussianBlur stdDeviation="2"/>
<feComposite in2="hardAlpha" operator="arithmetic" k2="-1" k3="1"/>
<feColorMatrix type="matrix" values="0 0 0 0 0 0 0 0 0 0 0 0 0 0 0 0 0 0 0.25 0"/>
<feBlend mode="normal" in2="shape" result="effect1_innerShadow_89_694"/>
</filter>
<filter id="filter1_d_89_694" x="20" y="32" width="88" height="68" filterUnits="userSpaceOnUse" color-interpolation-filters="sRGB">
<feFlood flood-opacity="0" result="BackgroundImageFix"/>
<feColorMatrix in="SourceAlpha" type="matrix" values="0 0 0 0 0 0 0 0 0 0 0 0 0 0 0 0 0 0 127 0" result="hardAlpha"/>
<feOffset dy="2"/>
<feGaussianBlur stdDeviation="2"/>
<feComposite in2="hardAlpha" operator="out"/>
<feColorMatrix type="matrix" values="0 0 0 0 0 0 0 0 0 0 0 0 0 0 0 0 0 0 0.25 0"/>
<feBlend mode="normal" in2="BackgroundImageFix" result="effect1_dropShadow_89_694"/>
<feBlend mode="normal" in="SourceGraphic" in2="effect1_dropShadow_89_694" result="shape"/>
</filter>
<filter id="filter2_d_89_694" x="76.0005" y="32" width="32" height="32" filterUnits="userSpaceOnUse" color-interpolation-filters="sRGB">
<feFlood flood-opacity="0" result="BackgroundImageFix"/>
<feColorMatrix in="SourceAlpha" type="matrix" values="0 0 0 0 0 0 0 0 0 0 0 0 0 0 0 0 0 0 127 0" result="hardAlpha"/>
<feOffset dy="2"/>
<feGaussianBlur stdDeviation="2"/>
<feComposite in2="hardAlpha" operator="out"/>
<feColorMatrix type="matrix" values="0 0 0 0 0 0 0 0 0 0 0 0 0 0 0 0 0 0 0.25 0"/>
<feBlend mode="normal" in2="BackgroundImageFix" result="effect1_dropShadow_89_694"/>
<feBlend mode="normal" in="SourceGraphic" in2="effect1_dropShadow_89_694" result="shape"/>
</filter>
<linearGradient id="paint0_linear_89_694" x1="128" y1="0" x2="0" y2="128" gradientUnits="userSpaceOnUse">
<stop stop-color="#F79740"/>
<stop offset="1" stop-color="#D21E10"/>
</linearGradient>
<linearGradient id="paint1_linear_89_694" x1="104" y1="34" x2="46.4" y2="110.8" gradientUnits="userSpaceOnUse">
<stop stop-color="#F79740"/>
<stop offset="1" stop-color="#D21E10"/>
</linearGradient>
</defs>
</svg>
