<svg width="128" height="128" viewBox="0 0 128 128" fill="none" xmlns="http://www.w3.org/2000/svg">
<rect width="128" height="128" rx="32" fill="url(#paint0_linear_89_1193)"/>
<g filter="url(#filter0_i_89_1193)">
<rect x="8" y="8" width="112" height="112" rx="24" fill="black" fill-opacity="0.7"/>
<g filter="url(#filter1_d_89_1193)">
<path fill-rule="evenodd" clip-rule="evenodd" d="M68 24H32C27.5817 24 24 27.5817 24 32V96C24 100.418 27.5817 104 32 104H96C100.418 104 104 100.418 104 96V60L68 24Z" fill="url(#paint1_linear_89_1193)"/>
</g>
<g filter="url(#filter2_d_89_1193)">
<path d="M104 32C104 27.5817 100.419 24 96.0005 24L80.0005 24L104 48V32Z" fill="#97989A"/>
</g>
<path d="M44 74H48L52 82L60 58H84" stroke="white" stroke-width="4" stroke-linecap="round" stroke-linejoin="round"/>
<path d="M80 80L68 68M80 68L74 74L68 80" stroke="white" stroke-width="4" stroke-linecap="round" stroke-linejoin="round"/>
</g>
<defs>
<filter id="filter0_i_89_1193" x="8" y="8" width="112" height="116" filterUnits="userSpaceOnUse" color-interpolation-filters="sRGB">
<feFlood flood-opacity="0" result="BackgroundImageFix"/>
<feBlend mode="normal" in="SourceGraphic" in2="BackgroundImageFix" result="shape"/>
<feColorMatrix in="SourceAlpha" type="matrix" values="0 0 0 0 0 0 0 0 0 0 0 0 0 0 0 0 0 0 127 0" result="hardAlpha"/>
<feOffset dy="4"/>
<feGaussianBlur stdDeviation="2"/>
<feComposite in2="hardAlpha" operator="arithmetic" k2="-1" k3="1"/>
<feColorMatrix type="matrix" values="0 0 0 0 0 0 0 0 0 0 0 0 0 0 0 0 0 0 0.25 0"/>
<feBlend mode="normal" in2="shape" result="effect1_innerShadow_89_1193"/>
</filter>
<filter id="filter1_d_89_1193" x="20" y="22" width="88" height="88" filterUnits="userSpaceOnUse" color-interpolation-filters="sRGB">
<feFlood flood-opacity="0" result="BackgroundImageFix"/>
<feColorMatrix in="SourceAlpha" type="matrix" values="0 0 0 0 0 0 0 0 0 0 0 0 0 0 0 0 0 0 127 0" result="hardAlpha"/>
<feOffset dy="2"/>
<feGaussianBlur stdDeviation="2"/>
<feComposite in2="hardAlpha" operator="out"/>
<feColorMatrix type="matrix" values="0 0 0 0 0 0 0 0 0 0 0 0 0 0 0 0 0 0 0.25 0"/>
<feBlend mode="normal" in2="BackgroundImageFix" result="effect1_dropShadow_89_1193"/>
<feBlend mode="normal" in="SourceGraphic" in2="effect1_dropShadow_89_1193" result="shape"/>
</filter>
<filter id="filter2_d_89_1193" x="76.0005" y="22" width="32" height="32" filterUnits="userSpaceOnUse" color-interpolation-filters="sRGB">
<feFlood flood-opacity="0" result="BackgroundImageFix"/>
<feColorMatrix in="SourceAlpha" type="matrix" values="0 0 0 0 0 0 0 0 0 0 0 0 0 0 0 0 0 0 127 0" result="hardAlpha"/>
<feOffset dy="2"/>
<feGaussianBlur stdDeviation="2"/>
<feComposite in2="hardAlpha" operator="out"/>
<feColorMatrix type="matrix" values="0 0 0 0 0 0 0 0 0 0 0 0 0 0 0 0 0 0 0.25 0"/>
<feBlend mode="normal" in2="BackgroundImageFix" result="effect1_dropShadow_89_1193"/>
<feBlend mode="normal" in="SourceGraphic" in2="effect1_dropShadow_89_1193" result="shape"/>
</filter>
<linearGradient id="paint0_linear_89_1193" x1="128" y1="0" x2="0" y2="128" gradientUnits="userSpaceOnUse">
<stop stop-color="#FF5291"/>
<stop offset="1" stop-color="#C8031F"/>
</linearGradient>
<linearGradient id="paint1_linear_89_1193" x1="104" y1="24" x2="46.4" y2="100.8" gradientUnits="userSpaceOnUse">
<stop stop-color="#FF5291"/>
<stop offset="1" stop-color="#C8031F"/>
</linearGradient>
</defs>
</svg>
