<svg width="128" height="128" viewBox="0 0 128 128" fill="none" xmlns="http://www.w3.org/2000/svg">
<rect width="128" height="128" rx="32" fill="url(#paint0_linear_152_5)"/>
<g filter="url(#filter0_i_152_5)">
<rect x="8" y="8" width="112" height="112" rx="24" fill="black" fill-opacity="0.7"/>
<g clip-path="url(#clip0_152_5)">
<g filter="url(#filter1_d_152_5)">
<path d="M91.7676 38.0927C86.5891 35.6698 81.0519 33.9089 75.263 32.9062C74.552 34.1916 73.7214 35.9205 73.1488 37.2958C66.995 36.3703 60.8978 36.3703 54.8572 37.2958C54.2846 35.9205 53.4352 34.1916 52.7179 32.9062C46.9227 33.9089 41.3792 35.6762 36.2006 38.1055C25.7555 53.8895 22.924 69.2815 24.3397 84.4549C31.2675 89.6284 37.9814 92.7712 44.5819 94.8277C46.2116 92.5847 47.6651 90.2004 48.9173 87.6876C46.5325 86.7814 44.2484 85.6632 42.0902 84.365C42.6628 83.9408 43.2229 83.4973 43.7639 83.041C56.9273 89.1979 71.2297 89.1979 84.2358 83.041C84.7832 83.4973 85.3432 83.9408 85.9095 84.365C83.7449 85.6696 81.4546 86.7878 79.0699 87.6941C80.322 90.2004 81.7692 92.5912 83.4052 94.834C90.0121 92.7775 96.7322 89.6349 103.66 84.4549C105.321 66.8651 100.822 51.6145 91.7676 38.0927ZM50.7106 75.1234C46.7591 75.1234 43.5185 71.4344 43.5185 66.9422C43.5185 62.4499 46.6899 58.7546 50.7106 58.7546C54.7314 58.7546 57.9719 62.4434 57.9027 66.9422C57.9089 71.4344 54.7314 75.1234 50.7106 75.1234ZM77.2891 75.1234C73.3376 75.1234 70.0971 71.4344 70.0971 66.9422C70.0971 62.4499 73.2683 58.7546 77.2891 58.7546C81.3098 58.7546 84.5504 62.4434 84.4812 66.9422C84.4812 71.4344 81.3098 75.1234 77.2891 75.1234Z" fill="#5865F2"/>
</g>
</g>
</g>
<defs>
<filter id="filter0_i_152_5" x="8" y="8" width="112" height="116" filterUnits="userSpaceOnUse" color-interpolation-filters="sRGB">
<feFlood flood-opacity="0" result="BackgroundImageFix"/>
<feBlend mode="normal" in="SourceGraphic" in2="BackgroundImageFix" result="shape"/>
<feColorMatrix in="SourceAlpha" type="matrix" values="0 0 0 0 0 0 0 0 0 0 0 0 0 0 0 0 0 0 127 0" result="hardAlpha"/>
<feOffset dy="4"/>
<feGaussianBlur stdDeviation="2"/>
<feComposite in2="hardAlpha" operator="arithmetic" k2="-1" k3="1"/>
<feColorMatrix type="matrix" values="0 0 0 0 0 0 0 0 0 0 0 0 0 0 0 0 0 0 0.25 0"/>
<feBlend mode="normal" in2="shape" result="effect1_innerShadow_152_5"/>
</filter>
<filter id="filter1_d_152_5" x="20" y="30.9062" width="88" height="69.9277" filterUnits="userSpaceOnUse" color-interpolation-filters="sRGB">
<feFlood flood-opacity="0" result="BackgroundImageFix"/>
<feColorMatrix in="SourceAlpha" type="matrix" values="0 0 0 0 0 0 0 0 0 0 0 0 0 0 0 0 0 0 127 0" result="hardAlpha"/>
<feOffset dy="2"/>
<feGaussianBlur stdDeviation="2"/>
<feComposite in2="hardAlpha" operator="out"/>
<feColorMatrix type="matrix" values="0 0 0 0 0 0 0 0 0 0 0 0 0 0 0 0 0 0 0.25 0"/>
<feBlend mode="normal" in2="BackgroundImageFix" result="effect1_dropShadow_152_5"/>
<feBlend mode="normal" in="SourceGraphic" in2="effect1_dropShadow_152_5" result="shape"/>
</filter>
<linearGradient id="paint0_linear_152_5" x1="64" y1="0" x2="64" y2="128" gradientUnits="userSpaceOnUse">
<stop stop-color="#5865F2"/>
<stop offset="1" stop-color="#424BAE"/>
</linearGradient>
<clipPath id="clip0_152_5">
<rect width="80" height="80" fill="white" transform="translate(24 24)"/>
</clipPath>
</defs>
</svg>
