<svg width="128" height="128" viewBox="0 0 128 128" fill="none" xmlns="http://www.w3.org/2000/svg">
<rect width="128" height="128" rx="32" fill="url(#paint0_linear_141_117)"/>
<rect width="128" height="128" rx="32" fill="url(#paint1_linear_141_117)"/>
<g filter="url(#filter0_i_141_117)">
<rect x="8" y="8" width="112" height="112" rx="24" fill="black" fill-opacity="0.7"/>
<g clip-path="url(#clip0_141_117)">
<g filter="url(#filter1_d_141_117)">
<path d="M30.1165 101.797L20.1143 67.3188L82.2491 84.4526L75.6205 107.886L30.1165 101.797Z" fill="url(#paint2_linear_141_117)"/>
</g>
<g filter="url(#filter2_d_141_117)">
<path d="M49.5542 20.224L72.9233 26.9165L99.3279 20.1143L104.558 56.32L45.1382 36.5714L49.5542 20.224Z" fill="url(#paint3_linear_141_117)"/>
</g>
<g filter="url(#filter3_d_141_117)">
<path d="M107.886 77.9337L104.558 56.32L50.7977 38.4548L20.224 45.0103L20.1143 67.3188L82.2491 84.4526L107.886 77.9337Z" fill="url(#paint4_linear_141_117)"/>
</g>
<g filter="url(#filter4_d_141_117)">
<path d="M36.5715 36.5714H91.4287V91.4286H36.5715V36.5714Z" fill="black"/>
</g>
<path d="M43.4104 81.0607H63.9818V84.4892H43.4104V81.0607Z" fill="white"/>
<path d="M43.4287 43.3555H51.4744C57.9567 43.3555 62.4459 47.808 62.4459 53.6138V53.6778C62.4459 59.4835 57.9659 63.9909 51.4744 63.9909H43.4287V43.3555ZM48.0001 47.4515V59.8858H51.511C52.3354 59.9343 53.1609 59.8086 53.9335 59.5168C54.7061 59.2251 55.4086 58.7738 55.9951 58.1924C56.5817 57.611 57.0392 56.9126 57.3378 56.1426C57.6364 55.3726 57.7694 54.5483 57.7281 53.7235V53.6686C57.77 52.8407 57.6379 52.0132 57.3404 51.2394C57.0429 50.4657 56.5866 49.7628 56.0009 49.1762C55.4151 48.5896 54.7129 48.1322 53.9396 47.8336C53.1663 47.535 52.339 47.4017 51.511 47.4423L48.0001 47.4515Z" fill="white"/>
<path d="M64.0093 43.3646H68.9007L74.3316 52.0961L79.7533 43.3738H84.6447V64.0092H80.1281L80.1373 50.5326L74.3316 59.3463H74.2036L68.4619 50.6241V64.0001H64.0093V43.3646Z" fill="white"/>
</g>
</g>
<defs>
<filter id="filter0_i_141_117" x="8" y="8" width="112" height="116" filterUnits="userSpaceOnUse" color-interpolation-filters="sRGB">
<feFlood flood-opacity="0" result="BackgroundImageFix"/>
<feBlend mode="normal" in="SourceGraphic" in2="BackgroundImageFix" result="shape"/>
<feColorMatrix in="SourceAlpha" type="matrix" values="0 0 0 0 0 0 0 0 0 0 0 0 0 0 0 0 0 0 127 0" result="hardAlpha"/>
<feOffset dy="4"/>
<feGaussianBlur stdDeviation="2"/>
<feComposite in2="hardAlpha" operator="arithmetic" k2="-1" k3="1"/>
<feColorMatrix type="matrix" values="0 0 0 0 0 0 0 0 0 0 0 0 0 0 0 0 0 0 0.25 0"/>
<feBlend mode="normal" in2="shape" result="effect1_innerShadow_141_117"/>
</filter>
<filter id="filter1_d_141_117" x="16.1143" y="65.3188" width="70.1348" height="48.5669" filterUnits="userSpaceOnUse" color-interpolation-filters="sRGB">
<feFlood flood-opacity="0" result="BackgroundImageFix"/>
<feColorMatrix in="SourceAlpha" type="matrix" values="0 0 0 0 0 0 0 0 0 0 0 0 0 0 0 0 0 0 127 0" result="hardAlpha"/>
<feOffset dy="2"/>
<feGaussianBlur stdDeviation="2"/>
<feComposite in2="hardAlpha" operator="out"/>
<feColorMatrix type="matrix" values="0 0 0 0 0 0 0 0 0 0 0 0 0 0 0 0 0 0 0.25 0"/>
<feBlend mode="normal" in2="BackgroundImageFix" result="effect1_dropShadow_141_117"/>
<feBlend mode="normal" in="SourceGraphic" in2="effect1_dropShadow_141_117" result="shape"/>
</filter>
<filter id="filter2_d_141_117" x="41.1382" y="18.1143" width="67.4194" height="44.2057" filterUnits="userSpaceOnUse" color-interpolation-filters="sRGB">
<feFlood flood-opacity="0" result="BackgroundImageFix"/>
<feColorMatrix in="SourceAlpha" type="matrix" values="0 0 0 0 0 0 0 0 0 0 0 0 0 0 0 0 0 0 127 0" result="hardAlpha"/>
<feOffset dy="2"/>
<feGaussianBlur stdDeviation="2"/>
<feComposite in2="hardAlpha" operator="out"/>
<feColorMatrix type="matrix" values="0 0 0 0 0 0 0 0 0 0 0 0 0 0 0 0 0 0 0.25 0"/>
<feBlend mode="normal" in2="BackgroundImageFix" result="effect1_dropShadow_141_117"/>
<feBlend mode="normal" in="SourceGraphic" in2="effect1_dropShadow_141_117" result="shape"/>
</filter>
<filter id="filter3_d_141_117" x="16.1143" y="36.4548" width="95.7715" height="53.9977" filterUnits="userSpaceOnUse" color-interpolation-filters="sRGB">
<feFlood flood-opacity="0" result="BackgroundImageFix"/>
<feColorMatrix in="SourceAlpha" type="matrix" values="0 0 0 0 0 0 0 0 0 0 0 0 0 0 0 0 0 0 127 0" result="hardAlpha"/>
<feOffset dy="2"/>
<feGaussianBlur stdDeviation="2"/>
<feComposite in2="hardAlpha" operator="out"/>
<feColorMatrix type="matrix" values="0 0 0 0 0 0 0 0 0 0 0 0 0 0 0 0 0 0 0.25 0"/>
<feBlend mode="normal" in2="BackgroundImageFix" result="effect1_dropShadow_141_117"/>
<feBlend mode="normal" in="SourceGraphic" in2="effect1_dropShadow_141_117" result="shape"/>
</filter>
<filter id="filter4_d_141_117" x="32.5715" y="34.5714" width="62.8572" height="62.8572" filterUnits="userSpaceOnUse" color-interpolation-filters="sRGB">
<feFlood flood-opacity="0" result="BackgroundImageFix"/>
<feColorMatrix in="SourceAlpha" type="matrix" values="0 0 0 0 0 0 0 0 0 0 0 0 0 0 0 0 0 0 127 0" result="hardAlpha"/>
<feOffset dy="2"/>
<feGaussianBlur stdDeviation="2"/>
<feComposite in2="hardAlpha" operator="out"/>
<feColorMatrix type="matrix" values="0 0 0 0 0 0 0 0 0 0 0 0 0 0 0 0 0 0 0.25 0"/>
<feBlend mode="normal" in2="BackgroundImageFix" result="effect1_dropShadow_141_117"/>
<feBlend mode="normal" in="SourceGraphic" in2="effect1_dropShadow_141_117" result="shape"/>
</filter>
<linearGradient id="paint0_linear_141_117" x1="64" y1="0" x2="64" y2="128" gradientUnits="userSpaceOnUse">
<stop stop-color="#3BEA62"/>
<stop offset="0.510417" stop-color="#087DF7"/>
<stop offset="1" stop-color="#6B57FF"/>
</linearGradient>
<linearGradient id="paint1_linear_141_117" x1="85.8914" y1="158.545" x2="12.896" y2="31.0915" gradientUnits="userSpaceOnUse">
<stop stop-color="#6B57FF"/>
<stop offset="0.14" stop-color="#8953FB"/>
<stop offset="0.44" stop-color="#D64AF2"/>
<stop offset="0.59" stop-color="#FF45ED"/>
<stop offset="0.97" stop-color="#FDB60D"/>
</linearGradient>
<linearGradient id="paint2_linear_141_117" x1="43.6297" y1="44.2971" x2="58.6423" y2="107.109" gradientUnits="userSpaceOnUse">
<stop stop-color="#6B57FF"/>
<stop offset="0.13" stop-color="#9A51F9"/>
<stop offset="0.27" stop-color="#C64CF4"/>
<stop offset="0.39" stop-color="#E548F0"/>
<stop offset="0.5" stop-color="#F846EE"/>
<stop offset="0.57" stop-color="#FF45ED"/>
<stop offset="0.63" stop-color="#FF57C9"/>
<stop offset="0.81" stop-color="#FE8A65"/>
<stop offset="0.94" stop-color="#FDAA26"/>
<stop offset="1" stop-color="#FDB60D"/>
</linearGradient>
<linearGradient id="paint3_linear_141_117" x1="85.0102" y1="64.96" x2="70.1165" y2="22.2811" gradientUnits="userSpaceOnUse">
<stop stop-color="#6B57FF"/>
<stop offset="0.14" stop-color="#8953FB"/>
<stop offset="0.44" stop-color="#D64AF2"/>
<stop offset="0.59" stop-color="#FF45ED"/>
<stop offset="0.97" stop-color="#FDB60D"/>
</linearGradient>
<linearGradient id="paint4_linear_141_117" x1="53.1565" y1="87.3234" x2="65.5177" y2="58.0114" gradientUnits="userSpaceOnUse">
<stop offset="0.12" stop-color="#FF45ED"/>
<stop offset="0.2" stop-color="#DF49F1"/>
<stop offset="0.3" stop-color="#BC4DF5"/>
<stop offset="0.42" stop-color="#9E51F9"/>
<stop offset="0.53" stop-color="#8854FC"/>
<stop offset="0.66" stop-color="#7855FD"/>
<stop offset="0.81" stop-color="#6E57FF"/>
<stop offset="1" stop-color="#6B57FF"/>
</linearGradient>
<clipPath id="clip0_141_117">
<rect width="96" height="96" fill="white" transform="translate(16 16)"/>
</clipPath>
</defs>
</svg>
