<svg width="128" height="128" viewBox="0 0 128 128" fill="none" xmlns="http://www.w3.org/2000/svg">
<rect width="128" height="128" rx="32" fill="url(#paint0_linear_112_121)"/>
<g filter="url(#filter0_i_112_121)">
<rect x="8" y="8" width="112" height="112" rx="24" fill="black" fill-opacity="0.7"/>
<path d="M64 27.125C84.7104 27.125 101.5 43.9146 101.5 64.625C101.5 85.3354 84.7104 102.125 64 102.125C43.2896 102.125 26.5 85.3354 26.5 64.625C26.5 43.9146 43.2896 27.125 64 27.125Z" fill="url(#paint1_linear_112_121)"/>
<path d="M64 27.125C43.2896 27.125 26.5 43.9146 26.5 64.625C26.5 85.3354 43.2896 102.125 64 102.125V27.125Z" fill="url(#paint2_linear_112_121)"/>
<path d="M101.5 63.375C101.5 84.0854 84.7104 100.875 64 100.875C43.2896 100.875 26.5 84.0854 26.5 63.375C26.5 42.6646 43.2896 25.875 64 25.875C84.7104 25.875 101.5 42.6646 101.5 63.375Z" fill="#40A1C8"/>
<path d="M41.5024 64C41.5806 72.6963 43.3042 81.1045 46.3999 87.9062C43.9365 89.166 41.8491 90.6821 40.2354 92.3813C31.71 85.3989 26.688 75.0181 26.5049 64H41.5024Z" fill="#49BBB0"/>
<path d="M64 84V100.875C61.1875 100.875 58.3823 100.558 55.6406 99.9302C52.0151 97.3936 48.8315 93.248 46.4023 87.9062C51.3413 85.3818 57.5693 84 64 84Z" fill="#378BDE"/>
<path d="M86.4976 64C86.4194 72.6963 84.6958 81.1045 81.5977 87.9062C84.0635 89.166 86.1484 90.6821 87.7622 92.3813C96.2876 85.3989 101.31 75.0181 101.495 64H86.4976Z" fill="#266EC6"/>
<path d="M64 64V100.875C66.8125 100.875 69.6177 100.558 72.3594 99.9302C80.7798 94.0342 86.3535 79.8691 86.4976 64H64Z" fill="#378BDE"/>
<path d="M64 84V100.875C66.8125 100.875 69.6177 100.558 72.3594 99.9302C75.9849 97.3936 79.1685 93.248 81.5977 87.9062C76.6587 85.3818 70.4307 84 64 84Z" fill="#266EC6"/>
<path d="M81.6001 87.9062C79.1685 93.248 75.9849 97.3911 72.3618 99.9302C78.0088 98.6387 83.2822 96.0532 87.7646 92.3813C86.1509 90.6821 84.0635 89.166 81.6001 87.9062Z" fill="#1E62B5"/>
<path d="M64 25.875C43.2896 25.875 26.5 42.6646 26.5 63.375C26.5 63.5825 26.5024 63.7925 26.5049 64H64V25.875Z" fill="#53D795"/>
<path d="M55.6406 26.8174C49.9912 28.1113 44.7178 30.6943 40.2354 34.3662C41.8491 36.0679 43.9365 37.5815 46.4023 38.8438C48.834 33.4995 52.0176 29.3564 55.6406 26.8174Z" fill="#72E99A"/>
<path d="M64 25.875C61.1875 25.875 58.3848 26.1924 55.6406 26.8174C47.1006 32.7988 41.5 47.2764 41.5 63.375C41.5 63.5825 41.5 63.7925 41.5024 64H64V25.875Z" fill="#49BBB0"/>
<path d="M64 25.875C61.1875 25.875 58.3848 26.1924 55.6406 26.8174C52.0176 29.3564 48.834 33.4995 46.4023 38.8438C51.3438 41.3682 57.5693 42.75 64 42.75V25.875Z" fill="#53D795"/>
<path d="M64 25.875C84.7104 25.875 101.5 42.6646 101.5 63.375C101.5 63.5825 101.498 63.7925 101.495 64H64V25.875Z" fill="#378BDE"/>
<path d="M72.3594 26.8174C78.0088 28.1113 83.2822 30.6943 87.7646 34.3662C86.1509 36.0679 84.0635 37.5815 81.6001 38.8413C79.166 33.4995 75.9824 29.3564 72.3594 26.8174Z" fill="#40A1C8"/>
<path d="M64 25.875C66.8125 25.875 69.6177 26.1924 72.3594 26.8174C80.8994 32.7988 86.5 47.2764 86.5 63.375C86.5 63.5825 86.5 63.7925 86.4976 64H64V25.875Z" fill="#40A1C8"/>
<path d="M64 25.875C66.8125 25.875 69.6177 26.1924 72.3594 26.8174C75.9824 29.3564 79.166 33.4995 81.5977 38.8413C76.6562 41.3682 70.4307 42.75 64 42.75V25.875Z" fill="#49BBB0"/>
</g>
<defs>
<filter id="filter0_i_112_121" x="8" y="8" width="112" height="116" filterUnits="userSpaceOnUse" color-interpolation-filters="sRGB">
<feFlood flood-opacity="0" result="BackgroundImageFix"/>
<feBlend mode="normal" in="SourceGraphic" in2="BackgroundImageFix" result="shape"/>
<feColorMatrix in="SourceAlpha" type="matrix" values="0 0 0 0 0 0 0 0 0 0 0 0 0 0 0 0 0 0 127 0" result="hardAlpha"/>
<feOffset dy="4"/>
<feGaussianBlur stdDeviation="2"/>
<feComposite in2="hardAlpha" operator="arithmetic" k2="-1" k3="1"/>
<feColorMatrix type="matrix" values="0 0 0 0 0 0 0 0 0 0 0 0 0 0 0 0 0 0 0.25 0"/>
<feBlend mode="normal" in2="shape" result="effect1_innerShadow_112_121"/>
</filter>
<linearGradient id="paint0_linear_112_121" x1="64" y1="0" x2="64" y2="128" gradientUnits="userSpaceOnUse">
<stop stop-color="#72E99A"/>
<stop offset="0.3" stop-color="#49BBB0"/>
<stop offset="0.614" stop-color="#378BDE"/>
<stop offset="1" stop-color="#1E62B5"/>
</linearGradient>
<linearGradient id="paint1_linear_112_121" x1="85.25" y1="94" x2="91.5" y2="94" gradientUnits="userSpaceOnUse">
<stop stop-color="#16529C"/>
<stop offset="1" stop-color="#236AC0"/>
</linearGradient>
<linearGradient id="paint2_linear_112_121" x1="60.25" y1="99" x2="32.75" y2="99" gradientUnits="userSpaceOnUse">
<stop stop-color="#2166BB"/>
<stop offset="1" stop-color="#89EDA9"/>
</linearGradient>
</defs>
</svg>
