<svg width="128" height="128" viewBox="0 0 128 128" fill="none" xmlns="http://www.w3.org/2000/svg">
<rect width="128" height="128" rx="32" fill="url(#paint0_linear_89_658)"/>
<g filter="url(#filter0_i_89_658)">
<rect x="8" y="8" width="112" height="112" rx="24" fill="black" fill-opacity="0.7"/>
<g filter="url(#filter1_d_89_658)">
<path fill-rule="evenodd" clip-rule="evenodd" d="M68 24H32C27.5817 24 24 27.5817 24 32V96C24 100.418 27.5817 104 32 104H96C100.418 104 104 100.418 104 96V60L68 24Z" fill="url(#paint1_linear_89_658)"/>
</g>
<g filter="url(#filter2_d_89_658)">
<path d="M104 32C104 27.5817 100.419 24 96.0005 24L80.0005 24L104 48V32Z" fill="#97989A"/>
</g>
<circle cx="46" cy="76" r="16" fill="#FAFAFA"/>
<rect x="72" y="70" width="24" height="24" rx="2" stroke="white" stroke-width="4"/>
<path d="M76.263 98H51.737C50.1396 98 49.1869 96.2197 50.0729 94.8906L62.3359 76.4962C63.1275 75.3087 64.8725 75.3087 65.6641 76.4961L77.9271 94.8906C78.8131 96.2197 77.8604 98 76.263 98Z" fill="#F9E285"/>
</g>
<defs>
<filter id="filter0_i_89_658" x="8" y="8" width="112" height="116" filterUnits="userSpaceOnUse" color-interpolation-filters="sRGB">
<feFlood flood-opacity="0" result="BackgroundImageFix"/>
<feBlend mode="normal" in="SourceGraphic" in2="BackgroundImageFix" result="shape"/>
<feColorMatrix in="SourceAlpha" type="matrix" values="0 0 0 0 0 0 0 0 0 0 0 0 0 0 0 0 0 0 127 0" result="hardAlpha"/>
<feOffset dy="4"/>
<feGaussianBlur stdDeviation="2"/>
<feComposite in2="hardAlpha" operator="arithmetic" k2="-1" k3="1"/>
<feColorMatrix type="matrix" values="0 0 0 0 0 0 0 0 0 0 0 0 0 0 0 0 0 0 0.25 0"/>
<feBlend mode="normal" in2="shape" result="effect1_innerShadow_89_658"/>
</filter>
<filter id="filter1_d_89_658" x="20" y="22" width="88" height="88" filterUnits="userSpaceOnUse" color-interpolation-filters="sRGB">
<feFlood flood-opacity="0" result="BackgroundImageFix"/>
<feColorMatrix in="SourceAlpha" type="matrix" values="0 0 0 0 0 0 0 0 0 0 0 0 0 0 0 0 0 0 127 0" result="hardAlpha"/>
<feOffset dy="2"/>
<feGaussianBlur stdDeviation="2"/>
<feComposite in2="hardAlpha" operator="out"/>
<feColorMatrix type="matrix" values="0 0 0 0 0 0 0 0 0 0 0 0 0 0 0 0 0 0 0.25 0"/>
<feBlend mode="normal" in2="BackgroundImageFix" result="effect1_dropShadow_89_658"/>
<feBlend mode="normal" in="SourceGraphic" in2="effect1_dropShadow_89_658" result="shape"/>
</filter>
<filter id="filter2_d_89_658" x="76.0005" y="22" width="32" height="32" filterUnits="userSpaceOnUse" color-interpolation-filters="sRGB">
<feFlood flood-opacity="0" result="BackgroundImageFix"/>
<feColorMatrix in="SourceAlpha" type="matrix" values="0 0 0 0 0 0 0 0 0 0 0 0 0 0 0 0 0 0 127 0" result="hardAlpha"/>
<feOffset dy="2"/>
<feGaussianBlur stdDeviation="2"/>
<feComposite in2="hardAlpha" operator="out"/>
<feColorMatrix type="matrix" values="0 0 0 0 0 0 0 0 0 0 0 0 0 0 0 0 0 0 0.25 0"/>
<feBlend mode="normal" in2="BackgroundImageFix" result="effect1_dropShadow_89_658"/>
<feBlend mode="normal" in="SourceGraphic" in2="effect1_dropShadow_89_658" result="shape"/>
</filter>
<linearGradient id="paint0_linear_89_658" x1="128" y1="0" x2="0" y2="128" gradientUnits="userSpaceOnUse">
<stop stop-color="#FFFE4F"/>
<stop offset="1" stop-color="#CE7732"/>
</linearGradient>
<linearGradient id="paint1_linear_89_658" x1="104" y1="24" x2="24" y2="104" gradientUnits="userSpaceOnUse">
<stop stop-color="#FFFE4F"/>
<stop offset="1" stop-color="#CE7732"/>
</linearGradient>
</defs>
</svg>
