<svg width="128" height="128" viewBox="0 0 128 128" fill="none" xmlns="http://www.w3.org/2000/svg">
<rect width="128" height="128" rx="32" fill="url(#paint0_linear_145_11)"/>
<g filter="url(#filter0_i_145_11)">
<rect x="8" y="8" width="112" height="112" rx="24" fill="black" fill-opacity="0.7"/>
<g clip-path="url(#clip0_145_11)">
<g filter="url(#filter1_d_145_11)">
<path d="M87.65 105.144C87.0603 109.524 82.7741 112.946 78.5146 111.764C72.4454 110.092 65.4182 107.485 59.0951 106.999C58.2615 106.935 49.4042 106.263 49.4042 106.263C47.8375 106.151 46.3669 105.467 45.2727 104.34L28.5743 87.1464C26.7494 85.2677 26.2554 82.4657 27.3278 80.0763C27.3278 80.0763 37.6531 57.3865 38.0366 56.2066C38.4201 55.0266 39.8275 44.7354 40.6615 39.2069C40.8825 37.7418 41.6059 36.3987 42.7077 35.4078L62.4613 17.6403C65.2095 15.1685 69.4754 15.5348 71.7617 18.4389L88.3557 39.516C89.2946 40.709 89.7758 42.1914 89.7828 43.7092C89.8018 47.7025 90.1314 55.9009 92.3394 61.1814C94.4875 66.3178 98.4296 71.8649 100.49 74.5945C101.281 75.6421 101.402 77.0587 100.734 78.1886C99.2797 80.6503 96.4068 85.3767 92.3394 91.4409C89.5353 95.6222 88.236 100.791 87.65 105.144Z" fill="#6C31E3"/>
<path d="M47.072 105.64C54.8267 89.8966 54.6104 78.618 51.3106 70.5689C48.2737 63.1619 42.6255 58.4899 38.1735 55.5905C38.0797 56.0093 37.9438 56.4183 37.7677 56.8108L27.3275 80.0763C26.2552 82.4658 26.7492 85.2677 28.574 87.1465L45.2724 104.34C45.7963 104.88 46.4064 105.318 47.072 105.64Z" fill="url(#paint1_radial_145_11)"/>
<path d="M78.5167 111.762C82.7753 112.943 87.061 109.522 87.6506 105.142C88.1584 101.371 89.2007 96.9889 91.2927 93.1665C86.4929 82.8348 80.6888 77.4769 74.326 75.1022C67.5908 72.5886 60.2297 73.4173 52.7713 75.2286C54.4386 82.8162 53.4406 92.7259 47.0808 105.639C47.805 105.989 48.5947 106.203 49.4105 106.261C49.4105 106.261 53.9997 106.647 59.4574 107.034C64.9151 107.42 73.0368 110.242 78.5167 111.762Z" fill="url(#paint2_radial_145_11)"/>
<path d="M68.1754 73.6861C70.2709 73.905 72.3248 74.3566 74.3238 75.1024C80.6878 77.4773 86.4932 82.8354 91.2937 93.1662C91.6164 92.5765 91.9645 91.9999 92.3395 91.4409C96.4066 85.3767 99.2796 80.6503 100.734 78.1887C101.402 77.0587 101.28 75.6422 100.49 74.5945C98.4295 71.865 94.4873 66.3178 92.3395 61.1815C90.1312 55.901 89.8017 47.7025 89.7829 43.7093C89.7757 42.1914 89.2945 40.709 88.3556 39.5161L71.7616 18.4389C71.673 18.3262 71.5811 18.2173 71.4866 18.1123C72.7042 22.1025 72.6217 25.3124 71.8706 28.2304C71.1742 30.9355 69.903 33.3897 68.5602 35.9821L68.56 35.9825C68.1095 36.8519 67.6513 37.7369 67.2037 38.6523C65.4222 42.2964 63.8137 46.4203 63.5765 51.9501C63.3391 57.4802 64.4727 64.4163 68.1759 73.6858L68.1754 73.6861Z" fill="url(#paint3_radial_145_11)"/>
<path d="M68.1733 73.6858C64.4704 64.4165 63.3362 57.4802 63.5736 51.9499C63.8111 46.4195 65.4196 42.2957 67.2013 38.6513C67.649 37.7358 68.1074 36.8508 68.5579 35.9811C69.9004 33.3887 71.1716 30.9347 71.8679 28.2299C72.6191 25.3112 72.7016 22.1004 71.4829 18.1086C69.1419 15.5104 65.1008 15.2655 62.4606 17.6403L42.707 35.4078C41.6052 36.3987 40.8818 37.7418 40.6608 39.2069L38.2561 55.1474C38.2338 55.2953 38.2062 55.4423 38.1736 55.5883C42.6258 58.4878 48.275 63.1603 51.3121 70.5681C51.9053 72.0152 52.3989 73.566 52.7645 75.2289C58.0098 73.9551 63.2073 73.1674 68.1733 73.6858Z" fill="url(#paint4_radial_145_11)"/>
<path fill-rule="evenodd" clip-rule="evenodd" d="M63.6125 51.5856C63.3744 57.0714 64.0592 63.3643 67.7543 72.6144L66.594 72.5097C63.2788 62.857 62.5573 57.9079 62.7987 52.3462C63.0403 46.7819 64.8382 42.503 66.63 38.8532C67.0837 37.9288 68.1426 36.193 68.5956 35.3217C69.9372 32.742 70.8301 31.3792 71.5967 29.0212C72.668 25.7264 72.4362 24.1659 72.3141 22.6129C73.1647 28.2269 69.9362 33.1086 67.4954 38.0806C65.7174 41.7025 63.8504 46.1024 63.6125 51.5856Z" fill="url(#paint5_radial_145_11)"/>
<path fill-rule="evenodd" clip-rule="evenodd" d="M52.4032 70.9768C52.8415 71.9902 53.2555 72.8085 53.5169 74.0624L52.5485 74.2801C52.1457 72.8159 51.8344 71.7743 51.2768 70.5183C47.94 62.6462 42.585 58.597 38.2087 55.627C43.4947 58.4708 48.9201 62.922 52.4032 70.9768Z" fill="url(#paint6_radial_145_11)"/>
<path fill-rule="evenodd" clip-rule="evenodd" d="M53.5731 75.053C55.4221 83.6572 53.3594 94.5882 47.2808 105.214C52.3617 94.6833 54.8248 84.5693 52.7734 75.2245L53.5731 75.053Z" fill="url(#paint7_radial_145_11)"/>
<path fill-rule="evenodd" clip-rule="evenodd" d="M74.5535 74.279C84.5198 78.0086 88.3573 86.1979 91.2257 93.0292C87.6831 85.8758 82.7581 77.9759 74.1959 75.0437C67.681 72.8124 62.1789 73.077 52.7729 75.2117L52.5632 74.279C62.5458 72.0046 67.765 71.7386 74.5535 74.279Z" fill="url(#paint8_radial_145_11)"/>
</g>
</g>
</g>
<defs>
<filter id="filter0_i_145_11" x="8" y="8" width="112" height="116" filterUnits="userSpaceOnUse" color-interpolation-filters="sRGB">
<feFlood flood-opacity="0" result="BackgroundImageFix"/>
<feBlend mode="normal" in="SourceGraphic" in2="BackgroundImageFix" result="shape"/>
<feColorMatrix in="SourceAlpha" type="matrix" values="0 0 0 0 0 0 0 0 0 0 0 0 0 0 0 0 0 0 127 0" result="hardAlpha"/>
<feOffset dy="4"/>
<feGaussianBlur stdDeviation="2"/>
<feComposite in2="hardAlpha" operator="arithmetic" k2="-1" k3="1"/>
<feColorMatrix type="matrix" values="0 0 0 0 0 0 0 0 0 0 0 0 0 0 0 0 0 0 0.25 0"/>
<feBlend mode="normal" in2="shape" result="effect1_innerShadow_145_11"/>
</filter>
<filter id="filter1_d_145_11" x="22.7671" y="14" width="82.4004" height="104" filterUnits="userSpaceOnUse" color-interpolation-filters="sRGB">
<feFlood flood-opacity="0" result="BackgroundImageFix"/>
<feColorMatrix in="SourceAlpha" type="matrix" values="0 0 0 0 0 0 0 0 0 0 0 0 0 0 0 0 0 0 127 0" result="hardAlpha"/>
<feOffset dy="2"/>
<feGaussianBlur stdDeviation="2"/>
<feComposite in2="hardAlpha" operator="out"/>
<feColorMatrix type="matrix" values="0 0 0 0 0 0 0 0 0 0 0 0 0 0 0 0 0 0 0.25 0"/>
<feBlend mode="normal" in2="BackgroundImageFix" result="effect1_dropShadow_145_11"/>
<feBlend mode="normal" in="SourceGraphic" in2="effect1_dropShadow_145_11" result="shape"/>
</filter>
<linearGradient id="paint0_linear_145_11" x1="64" y1="128" x2="64" y2="-4.3164e-07" gradientUnits="userSpaceOnUse">
<stop stop-color="#5125AA"/>
<stop offset="1" stop-color="#8976DD"/>
<stop offset="1" stop-color="#7842E5"/>
</linearGradient>
<radialGradient id="paint1_radial_145_11" cx="0" cy="0" r="1" gradientUnits="userSpaceOnUse" gradientTransform="translate(46.238 104.086) rotate(-104.574) scale(43.6809 29.1089)">
<stop stop-color="white" stop-opacity="0.4"/>
<stop offset="1" stop-opacity="0.1"/>
</radialGradient>
<radialGradient id="paint2_radial_145_11" cx="0" cy="0" r="1" gradientUnits="userSpaceOnUse" gradientTransform="translate(78.8331 111.998) rotate(-120.563) scale(35.4939 40.7542)">
<stop stop-color="white" stop-opacity="0.3"/>
<stop offset="1" stop-opacity="0.25"/>
</radialGradient>
<radialGradient id="paint3_radial_145_11" cx="0" cy="0" r="1" gradientUnits="userSpaceOnUse" gradientTransform="translate(83.4672 86.1251) rotate(-82.4846) scale(71.6783 52.9564)">
<stop stop-color="white" stop-opacity="0.55"/>
<stop offset="1" stop-color="white" stop-opacity="0.05"/>
</radialGradient>
<radialGradient id="paint4_radial_145_11" cx="0" cy="0" r="1" gradientUnits="userSpaceOnUse" gradientTransform="translate(48.8556 73.5407) rotate(-77.7214) scale(61.2094 41.7434)">
<stop stop-color="white" stop-opacity="0.83"/>
<stop offset="1" stop-color="white" stop-opacity="0.4"/>
</radialGradient>
<radialGradient id="paint5_radial_145_11" cx="0" cy="0" r="1" gradientUnits="userSpaceOnUse" gradientTransform="translate(74.0923 40) rotate(102.236) scale(31.8485 21.4767)">
<stop stop-color="white" stop-opacity="0"/>
<stop offset="1" stop-color="white" stop-opacity="0.17"/>
</radialGradient>
<radialGradient id="paint6_radial_145_11" cx="0" cy="0" r="1" gradientUnits="userSpaceOnUse" gradientTransform="translate(36.7794 57.25) rotate(45.3237) scale(23.4675 49.9836)">
<stop stop-color="white" stop-opacity="0.2"/>
<stop offset="1" stop-color="white" stop-opacity="0.44"/>
</radialGradient>
<radialGradient id="paint7_radial_145_11" cx="0" cy="0" r="1" gradientUnits="userSpaceOnUse" gradientTransform="translate(54.4967 68.3545) rotate(80.2016) scale(27.5054 58.4092)">
<stop stop-color="white" stop-opacity="0.25"/>
<stop offset="1" stop-color="white" stop-opacity="0.3"/>
</radialGradient>
<radialGradient id="paint8_radial_145_11" cx="0" cy="0" r="1" gradientUnits="userSpaceOnUse" gradientTransform="translate(90.9674 90.8123) rotate(-152.297) scale(41.9116 131.893)">
<stop stop-color="white" stop-opacity="0.21"/>
<stop offset="0.46738" stop-color="white" stop-opacity="0.19"/>
<stop offset="1" stop-color="white" stop-opacity="0.29"/>
</radialGradient>
<clipPath id="clip0_145_11">
<rect width="96" height="96" fill="white" transform="translate(16 16)"/>
</clipPath>
</defs>
</svg>
