<svg width="128" height="128" viewBox="0 0 128 128" fill="none" xmlns="http://www.w3.org/2000/svg">
<rect width="128" height="128" rx="32" fill="url(#paint0_linear_141_205)"/>
<rect width="128" height="128" rx="32" fill="url(#paint1_linear_141_205)"/>
<g filter="url(#filter0_i_141_205)">
<rect x="8" y="8" width="112" height="112" rx="24" fill="black" fill-opacity="0.7"/>
<g clip-path="url(#clip0_141_205)">
<g filter="url(#filter1_d_141_205)">
<path d="M69.0222 36.0014L66.0949 27.1536L52.5088 33.7207L34.5239 35.3074L36.9925 66.1646L62.4997 61.896L69.0222 36.0014Z" fill="url(#paint2_linear_141_205)"/>
</g>
<g filter="url(#filter2_d_141_205)">
<path d="M44.7811 43.8775L20.5713 37.5154L28.9384 87.7625L74.0206 87.3236L44.7811 43.8775Z" fill="url(#paint3_linear_141_205)"/>
</g>
<g filter="url(#filter3_d_141_205)">
<path d="M78.076 65.2827L67.6724 47.474L78.9578 37.2472L96.9208 29.8958L108.343 58.2808L91.8932 74.6187L78.076 65.2827Z" fill="url(#paint4_linear_141_205)"/>
</g>
<g filter="url(#filter4_d_141_205)">
<path d="M91.9006 57.9031L86.1866 46.2397L41.3799 55.2425L45.9824 98.0263L75.5627 108.343L108.343 88.7218L91.9006 57.9031Z" fill="url(#paint5_linear_141_205)"/>
</g>
<g filter="url(#filter5_d_141_205)">
<path d="M68.7303 59.9931L41.3799 55.2425L74.7646 25.7821L96.9207 29.8958L83.1893 43.5949L86.3627 46.416L68.7303 59.9931Z" fill="url(#paint6_linear_141_205)"/>
</g>
<g filter="url(#filter6_d_141_205)">
<path d="M66.0945 27.1535L35.5438 20.5714L20.5713 37.5154L44.8243 43.9631L66.0945 27.1535Z" fill="url(#paint7_linear_141_205)"/>
</g>
<g filter="url(#filter7_d_141_205)">
<path d="M91.886 37.0286H37.0288V91.8857H91.886V37.0286Z" fill="black"/>
</g>
<path d="M64.4572 81.6H43.8857V85.0285H64.4572V81.6Z" fill="white"/>
<path d="M61.8457 61.7327L64.5292 58.5208C66.3848 60.0517 68.3323 61.0254 70.6867 61.0254C72.547 61.0254 73.6659 60.2891 73.6658 59.0779V59.0198C73.6657 57.8716 72.9584 57.2806 69.5091 56.3989C65.3525 55.3379 62.6686 54.185 62.6683 50.0914V50.0284C62.668 46.2885 65.6762 43.8081 69.8909 43.8081C72.6735 43.7633 75.3844 44.692 77.555 46.4338L75.196 49.8541C73.3696 48.5848 71.5722 47.8193 69.8331 47.8193C68.0938 47.8193 67.1784 48.6138 67.1785 49.6166V49.6748C67.1786 51.0312 68.0651 51.4769 71.6307 52.3876C75.8163 53.4776 78.1757 54.9843 78.1759 58.5789V58.6371C78.1762 62.7355 75.0518 65.0318 70.5997 65.0318C67.3757 65.0438 64.2599 63.8696 61.8457 61.7327Z" fill="white"/>
<path d="M43.9478 44.1215H52.3424C57.2427 44.1215 60.2072 47.0272 60.2072 51.2234V51.2821C60.2072 56.0365 56.5091 58.5022 51.9014 58.5022H48.4674V64.6651H43.9478V44.1215ZM52.0481 54.4813C54.3083 54.4813 55.6289 53.1316 55.6289 51.3702V51.3115C55.6289 49.2867 54.2204 48.2011 51.9601 48.2011H48.4674V54.4813H52.0481Z" fill="white"/>
</g>
</g>
<defs>
<filter id="filter0_i_141_205" x="8" y="8" width="112" height="116" filterUnits="userSpaceOnUse" color-interpolation-filters="sRGB">
<feFlood flood-opacity="0" result="BackgroundImageFix"/>
<feBlend mode="normal" in="SourceGraphic" in2="BackgroundImageFix" result="shape"/>
<feColorMatrix in="SourceAlpha" type="matrix" values="0 0 0 0 0 0 0 0 0 0 0 0 0 0 0 0 0 0 127 0" result="hardAlpha"/>
<feOffset dy="4"/>
<feGaussianBlur stdDeviation="2"/>
<feComposite in2="hardAlpha" operator="arithmetic" k2="-1" k3="1"/>
<feColorMatrix type="matrix" values="0 0 0 0 0 0 0 0 0 0 0 0 0 0 0 0 0 0 0.25 0"/>
<feBlend mode="normal" in2="shape" result="effect1_innerShadow_141_205"/>
</filter>
<filter id="filter1_d_141_205" x="30.5239" y="25.1536" width="42.498" height="47.011" filterUnits="userSpaceOnUse" color-interpolation-filters="sRGB">
<feFlood flood-opacity="0" result="BackgroundImageFix"/>
<feColorMatrix in="SourceAlpha" type="matrix" values="0 0 0 0 0 0 0 0 0 0 0 0 0 0 0 0 0 0 127 0" result="hardAlpha"/>
<feOffset dy="2"/>
<feGaussianBlur stdDeviation="2"/>
<feComposite in2="hardAlpha" operator="out"/>
<feColorMatrix type="matrix" values="0 0 0 0 0 0 0 0 0 0 0 0 0 0 0 0 0 0 0.25 0"/>
<feBlend mode="normal" in2="BackgroundImageFix" result="effect1_dropShadow_141_205"/>
<feBlend mode="normal" in="SourceGraphic" in2="effect1_dropShadow_141_205" result="shape"/>
</filter>
<filter id="filter2_d_141_205" x="16.5713" y="35.5154" width="61.4492" height="58.247" filterUnits="userSpaceOnUse" color-interpolation-filters="sRGB">
<feFlood flood-opacity="0" result="BackgroundImageFix"/>
<feColorMatrix in="SourceAlpha" type="matrix" values="0 0 0 0 0 0 0 0 0 0 0 0 0 0 0 0 0 0 127 0" result="hardAlpha"/>
<feOffset dy="2"/>
<feGaussianBlur stdDeviation="2"/>
<feComposite in2="hardAlpha" operator="out"/>
<feColorMatrix type="matrix" values="0 0 0 0 0 0 0 0 0 0 0 0 0 0 0 0 0 0 0.25 0"/>
<feBlend mode="normal" in2="BackgroundImageFix" result="effect1_dropShadow_141_205"/>
<feBlend mode="normal" in="SourceGraphic" in2="effect1_dropShadow_141_205" result="shape"/>
</filter>
<filter id="filter3_d_141_205" x="63.6724" y="27.8958" width="48.6704" height="52.7229" filterUnits="userSpaceOnUse" color-interpolation-filters="sRGB">
<feFlood flood-opacity="0" result="BackgroundImageFix"/>
<feColorMatrix in="SourceAlpha" type="matrix" values="0 0 0 0 0 0 0 0 0 0 0 0 0 0 0 0 0 0 127 0" result="hardAlpha"/>
<feOffset dy="2"/>
<feGaussianBlur stdDeviation="2"/>
<feComposite in2="hardAlpha" operator="out"/>
<feColorMatrix type="matrix" values="0 0 0 0 0 0 0 0 0 0 0 0 0 0 0 0 0 0 0.25 0"/>
<feBlend mode="normal" in2="BackgroundImageFix" result="effect1_dropShadow_141_205"/>
<feBlend mode="normal" in="SourceGraphic" in2="effect1_dropShadow_141_205" result="shape"/>
</filter>
<filter id="filter4_d_141_205" x="37.3799" y="44.2397" width="74.9629" height="70.1031" filterUnits="userSpaceOnUse" color-interpolation-filters="sRGB">
<feFlood flood-opacity="0" result="BackgroundImageFix"/>
<feColorMatrix in="SourceAlpha" type="matrix" values="0 0 0 0 0 0 0 0 0 0 0 0 0 0 0 0 0 0 127 0" result="hardAlpha"/>
<feOffset dy="2"/>
<feGaussianBlur stdDeviation="2"/>
<feComposite in2="hardAlpha" operator="out"/>
<feColorMatrix type="matrix" values="0 0 0 0 0 0 0 0 0 0 0 0 0 0 0 0 0 0 0.25 0"/>
<feBlend mode="normal" in2="BackgroundImageFix" result="effect1_dropShadow_141_205"/>
<feBlend mode="normal" in="SourceGraphic" in2="effect1_dropShadow_141_205" result="shape"/>
</filter>
<filter id="filter5_d_141_205" x="37.3799" y="23.7821" width="63.541" height="42.2111" filterUnits="userSpaceOnUse" color-interpolation-filters="sRGB">
<feFlood flood-opacity="0" result="BackgroundImageFix"/>
<feColorMatrix in="SourceAlpha" type="matrix" values="0 0 0 0 0 0 0 0 0 0 0 0 0 0 0 0 0 0 127 0" result="hardAlpha"/>
<feOffset dy="2"/>
<feGaussianBlur stdDeviation="2"/>
<feComposite in2="hardAlpha" operator="out"/>
<feColorMatrix type="matrix" values="0 0 0 0 0 0 0 0 0 0 0 0 0 0 0 0 0 0 0.25 0"/>
<feBlend mode="normal" in2="BackgroundImageFix" result="effect1_dropShadow_141_205"/>
<feBlend mode="normal" in="SourceGraphic" in2="effect1_dropShadow_141_205" result="shape"/>
</filter>
<filter id="filter6_d_141_205" x="16.5713" y="18.5714" width="53.5234" height="31.3917" filterUnits="userSpaceOnUse" color-interpolation-filters="sRGB">
<feFlood flood-opacity="0" result="BackgroundImageFix"/>
<feColorMatrix in="SourceAlpha" type="matrix" values="0 0 0 0 0 0 0 0 0 0 0 0 0 0 0 0 0 0 127 0" result="hardAlpha"/>
<feOffset dy="2"/>
<feGaussianBlur stdDeviation="2"/>
<feComposite in2="hardAlpha" operator="out"/>
<feColorMatrix type="matrix" values="0 0 0 0 0 0 0 0 0 0 0 0 0 0 0 0 0 0 0.25 0"/>
<feBlend mode="normal" in2="BackgroundImageFix" result="effect1_dropShadow_141_205"/>
<feBlend mode="normal" in="SourceGraphic" in2="effect1_dropShadow_141_205" result="shape"/>
</filter>
<filter id="filter7_d_141_205" x="33.0288" y="35.0286" width="62.8569" height="62.8572" filterUnits="userSpaceOnUse" color-interpolation-filters="sRGB">
<feFlood flood-opacity="0" result="BackgroundImageFix"/>
<feColorMatrix in="SourceAlpha" type="matrix" values="0 0 0 0 0 0 0 0 0 0 0 0 0 0 0 0 0 0 127 0" result="hardAlpha"/>
<feOffset dy="2"/>
<feGaussianBlur stdDeviation="2"/>
<feComposite in2="hardAlpha" operator="out"/>
<feColorMatrix type="matrix" values="0 0 0 0 0 0 0 0 0 0 0 0 0 0 0 0 0 0 0.25 0"/>
<feBlend mode="normal" in2="BackgroundImageFix" result="effect1_dropShadow_141_205"/>
<feBlend mode="normal" in="SourceGraphic" in2="effect1_dropShadow_141_205" result="shape"/>
</filter>
<linearGradient id="paint0_linear_141_205" x1="64" y1="0" x2="64" y2="128" gradientUnits="userSpaceOnUse">
<stop stop-color="#3BEA62"/>
<stop offset="0.510417" stop-color="#087CFA"/>
<stop offset="1" stop-color="#B74AF7"/>
</linearGradient>
<linearGradient id="paint1_linear_141_205" x1="21.7188" y1="122.849" x2="99.4019" y2="26.3853" gradientUnits="userSpaceOnUse">
<stop offset="0.01613" stop-color="#6B57FF"/>
<stop offset="0.42357" stop-color="#B74AF7"/>
<stop offset="0.74587" stop-color="#FF318C"/>
</linearGradient>
<linearGradient id="paint2_linear_141_205" x1="36.7544" y1="71.1807" x2="61.5385" y2="23.584" gradientUnits="userSpaceOnUse">
<stop stop-color="#AF1DF5"/>
<stop offset="0.2116" stop-color="#BC20E4"/>
<stop offset="0.62822" stop-color="#DD29B8"/>
<stop offset="1" stop-color="#FF318C"/>
</linearGradient>
<linearGradient id="paint3_linear_141_205" x1="29.6405" y1="85.7404" x2="59.682" y2="46.0586" gradientUnits="userSpaceOnUse">
<stop offset="0.01613" stop-color="#6B57FF"/>
<stop offset="0.42357" stop-color="#B74AF7"/>
<stop offset="0.74587" stop-color="#FF318C"/>
</linearGradient>
<linearGradient id="paint4_linear_141_205" x1="97.6105" y1="75.0298" x2="80.9636" y2="35.5213" gradientUnits="userSpaceOnUse">
<stop stop-color="#293896"/>
<stop offset="0.07538" stop-color="#3B3AA2"/>
<stop offset="0.2871" stop-color="#6740C0"/>
<stop offset="0.49127" stop-color="#8A44D8"/>
<stop offset="0.68315" stop-color="#A347E9"/>
<stop offset="0.85788" stop-color="#B249F3"/>
<stop offset="1" stop-color="#B74AF7"/>
</linearGradient>
<linearGradient id="paint5_linear_141_205" x1="83.968" y1="98.3456" x2="56.2929" y2="57.7807" gradientUnits="userSpaceOnUse">
<stop offset="0.01613" stop-color="#6B57FF"/>
<stop offset="0.78291" stop-color="#B74AF7"/>
</linearGradient>
<linearGradient id="paint6_linear_141_205" x1="75.5799" y1="76.5718" x2="66.411" y2="28.082" gradientUnits="userSpaceOnUse">
<stop offset="0.01613" stop-color="#6B57FF"/>
<stop offset="0.63699" stop-color="#B74AF7"/>
</linearGradient>
<linearGradient id="paint7_linear_141_205" x1="30.5575" y1="55.5193" x2="44.8399" y2="29.5994" gradientUnits="userSpaceOnUse">
<stop stop-color="#AF1DF5"/>
<stop offset="0.2116" stop-color="#BC20E4"/>
<stop offset="0.62822" stop-color="#DD29B8"/>
<stop offset="1" stop-color="#FF318C"/>
</linearGradient>
<clipPath id="clip0_141_205">
<rect width="96" height="96" fill="white" transform="translate(16 16)"/>
</clipPath>
</defs>
</svg>
