<svg width="128" height="128" viewBox="0 0 128 128" fill="none" xmlns="http://www.w3.org/2000/svg">
<rect width="128" height="128" rx="32" fill="url(#paint0_linear_141_18)"/>
<g filter="url(#filter0_i_141_18)">
<rect x="8" y="8" width="112" height="112" rx="24" fill="black" fill-opacity="0.7"/>
<g clip-path="url(#clip0_141_18)" filter="url(#filter1_d_141_18)">
<g filter="url(#filter2_d_141_18)">
<path d="M81.6549 33.9657L107.301 55.296L98.0663 74.0846L82.6057 69.7966H69.2297L81.6549 33.9657Z" fill="#07C3F2"/>
</g>
<g filter="url(#filter3_d_141_18)">
<path d="M55.8171 47.8171L50.8525 74.0845L50.3771 83.008L37.8605 88.4297L20.1143 90.3405L25.4994 33.5908L57.6548 20.1143L77.4674 33.1063L55.8171 47.8171Z" fill="#21D789"/>
</g>
<g filter="url(#filter4_d_141_18)">
<path d="M55.8171 47.8171L58.2308 98.432L50.2125 107.886L20.1143 90.3406L44.8274 53.5131L55.8171 47.8171Z" fill="#7AE46F"/>
</g>
<g filter="url(#filter5_d_141_18)">
<path d="M88.9326 44.1234H58.5234L85.3943 20.1143L88.9326 44.1234Z" fill="#9AF156"/>
</g>
<g filter="url(#filter6_d_141_18)">
<path d="M107.886 98.6332L81.1155 107.721L45.4675 97.6823L55.8172 47.8172L59.9498 44.1235L81.655 42.0846L79.6892 63.8812L96.951 57.1886L107.886 98.6332Z" fill="#FCF84A"/>
</g>
<g filter="url(#filter7_d_141_18)">
<path d="M36.5715 36.5714H91.4287V91.4286H36.5715V36.5714Z" fill="black"/>
</g>
<path d="M43.4104 81.0605H63.9818V84.4891H43.4104V81.0605Z" fill="white"/>
<path d="M43.4287 43.4286H51.8401C56.7407 43.4286 59.7121 46.336 59.7121 50.5326V50.5874C59.7121 55.3417 56.0093 57.8103 51.4013 57.8103H48.0001V63.9726H43.4287V43.4286ZM51.5293 53.7874C53.7876 53.7874 55.1133 52.4434 55.1133 50.6789V50.624C55.1133 48.5943 53.7053 47.5063 51.4561 47.5063H48.0001V53.7874H51.5293Z" fill="white"/>
<path d="M62.1625 53.7692V53.7143C62.136 52.3049 62.3955 50.9047 62.9253 49.5984C63.455 48.2921 64.244 47.1066 65.2446 46.1137C66.2452 45.1208 67.4367 44.341 68.7471 43.8213C70.0575 43.3017 71.4596 43.053 72.8688 43.0903C74.3659 43.0146 75.8621 43.2574 77.2585 43.8027C78.6549 44.3481 79.9197 45.1835 80.9693 46.2537L78.0985 49.5726C76.7166 48.1416 74.8298 47.3081 72.8413 47.2503C69.3762 47.2503 66.8802 50.1303 66.8802 53.6503V53.7143C66.8802 57.2343 69.3213 60.1692 72.8413 60.1692C75.191 60.1692 76.6265 59.2549 78.2448 57.7646L81.1156 60.6629C80.0817 61.8716 78.7862 62.8291 77.3272 63.4628C75.8682 64.0964 74.2841 64.3896 72.695 64.32C71.3045 64.341 69.924 64.0824 68.6354 63.5593C67.3468 63.0363 66.1765 62.2596 65.194 61.2754C64.2115 60.2912 63.4369 59.1196 62.9161 57.8301C62.3953 56.5406 62.139 55.1596 62.1625 53.7692Z" fill="white"/>
</g>
</g>
<defs>
<filter id="filter0_i_141_18" x="8" y="8" width="112" height="116" filterUnits="userSpaceOnUse" color-interpolation-filters="sRGB">
<feFlood flood-opacity="0" result="BackgroundImageFix"/>
<feBlend mode="normal" in="SourceGraphic" in2="BackgroundImageFix" result="shape"/>
<feColorMatrix in="SourceAlpha" type="matrix" values="0 0 0 0 0 0 0 0 0 0 0 0 0 0 0 0 0 0 127 0" result="hardAlpha"/>
<feOffset dy="4"/>
<feGaussianBlur stdDeviation="2"/>
<feComposite in2="hardAlpha" operator="arithmetic" k2="-1" k3="1"/>
<feColorMatrix type="matrix" values="0 0 0 0 0 0 0 0 0 0 0 0 0 0 0 0 0 0 0.25 0"/>
<feBlend mode="normal" in2="shape" result="effect1_innerShadow_141_18"/>
</filter>
<filter id="filter1_d_141_18" x="12" y="14" width="104" height="104" filterUnits="userSpaceOnUse" color-interpolation-filters="sRGB">
<feFlood flood-opacity="0" result="BackgroundImageFix"/>
<feColorMatrix in="SourceAlpha" type="matrix" values="0 0 0 0 0 0 0 0 0 0 0 0 0 0 0 0 0 0 127 0" result="hardAlpha"/>
<feOffset dy="2"/>
<feGaussianBlur stdDeviation="2"/>
<feComposite in2="hardAlpha" operator="out"/>
<feColorMatrix type="matrix" values="0 0 0 0 0 0 0 0 0 0 0 0 0 0 0 0 0 0 0.25 0"/>
<feBlend mode="normal" in2="BackgroundImageFix" result="effect1_dropShadow_141_18"/>
<feBlend mode="normal" in="SourceGraphic" in2="effect1_dropShadow_141_18" result="shape"/>
</filter>
<filter id="filter2_d_141_18" x="65.2297" y="31.9657" width="46.0708" height="48.1189" filterUnits="userSpaceOnUse" color-interpolation-filters="sRGB">
<feFlood flood-opacity="0" result="BackgroundImageFix"/>
<feColorMatrix in="SourceAlpha" type="matrix" values="0 0 0 0 0 0 0 0 0 0 0 0 0 0 0 0 0 0 127 0" result="hardAlpha"/>
<feOffset dy="2"/>
<feGaussianBlur stdDeviation="2"/>
<feComposite in2="hardAlpha" operator="out"/>
<feColorMatrix type="matrix" values="0 0 0 0 0 0 0 0 0 0 0 0 0 0 0 0 0 0 0.25 0"/>
<feBlend mode="normal" in2="BackgroundImageFix" result="effect1_dropShadow_141_18"/>
<feBlend mode="normal" in="SourceGraphic" in2="effect1_dropShadow_141_18" result="shape"/>
</filter>
<filter id="filter3_d_141_18" x="16.1143" y="18.1143" width="65.353" height="78.2263" filterUnits="userSpaceOnUse" color-interpolation-filters="sRGB">
<feFlood flood-opacity="0" result="BackgroundImageFix"/>
<feColorMatrix in="SourceAlpha" type="matrix" values="0 0 0 0 0 0 0 0 0 0 0 0 0 0 0 0 0 0 127 0" result="hardAlpha"/>
<feOffset dy="2"/>
<feGaussianBlur stdDeviation="2"/>
<feComposite in2="hardAlpha" operator="out"/>
<feColorMatrix type="matrix" values="0 0 0 0 0 0 0 0 0 0 0 0 0 0 0 0 0 0 0.25 0"/>
<feBlend mode="normal" in2="BackgroundImageFix" result="effect1_dropShadow_141_18"/>
<feBlend mode="normal" in="SourceGraphic" in2="effect1_dropShadow_141_18" result="shape"/>
</filter>
<filter id="filter4_d_141_18" x="16.1143" y="45.8171" width="46.1165" height="68.0686" filterUnits="userSpaceOnUse" color-interpolation-filters="sRGB">
<feFlood flood-opacity="0" result="BackgroundImageFix"/>
<feColorMatrix in="SourceAlpha" type="matrix" values="0 0 0 0 0 0 0 0 0 0 0 0 0 0 0 0 0 0 127 0" result="hardAlpha"/>
<feOffset dy="2"/>
<feGaussianBlur stdDeviation="2"/>
<feComposite in2="hardAlpha" operator="out"/>
<feColorMatrix type="matrix" values="0 0 0 0 0 0 0 0 0 0 0 0 0 0 0 0 0 0 0.25 0"/>
<feBlend mode="normal" in2="BackgroundImageFix" result="effect1_dropShadow_141_18"/>
<feBlend mode="normal" in="SourceGraphic" in2="effect1_dropShadow_141_18" result="shape"/>
</filter>
<filter id="filter5_d_141_18" x="54.5234" y="18.1143" width="38.4092" height="32.0092" filterUnits="userSpaceOnUse" color-interpolation-filters="sRGB">
<feFlood flood-opacity="0" result="BackgroundImageFix"/>
<feColorMatrix in="SourceAlpha" type="matrix" values="0 0 0 0 0 0 0 0 0 0 0 0 0 0 0 0 0 0 127 0" result="hardAlpha"/>
<feOffset dy="2"/>
<feGaussianBlur stdDeviation="2"/>
<feComposite in2="hardAlpha" operator="out"/>
<feColorMatrix type="matrix" values="0 0 0 0 0 0 0 0 0 0 0 0 0 0 0 0 0 0 0.25 0"/>
<feBlend mode="normal" in2="BackgroundImageFix" result="effect1_dropShadow_141_18"/>
<feBlend mode="normal" in="SourceGraphic" in2="effect1_dropShadow_141_18" result="shape"/>
</filter>
<filter id="filter6_d_141_18" x="41.4675" y="40.0846" width="70.4182" height="73.6366" filterUnits="userSpaceOnUse" color-interpolation-filters="sRGB">
<feFlood flood-opacity="0" result="BackgroundImageFix"/>
<feColorMatrix in="SourceAlpha" type="matrix" values="0 0 0 0 0 0 0 0 0 0 0 0 0 0 0 0 0 0 127 0" result="hardAlpha"/>
<feOffset dy="2"/>
<feGaussianBlur stdDeviation="2"/>
<feComposite in2="hardAlpha" operator="out"/>
<feColorMatrix type="matrix" values="0 0 0 0 0 0 0 0 0 0 0 0 0 0 0 0 0 0 0.25 0"/>
<feBlend mode="normal" in2="BackgroundImageFix" result="effect1_dropShadow_141_18"/>
<feBlend mode="normal" in="SourceGraphic" in2="effect1_dropShadow_141_18" result="shape"/>
</filter>
<filter id="filter7_d_141_18" x="32.5715" y="34.5714" width="62.8572" height="62.8572" filterUnits="userSpaceOnUse" color-interpolation-filters="sRGB">
<feFlood flood-opacity="0" result="BackgroundImageFix"/>
<feColorMatrix in="SourceAlpha" type="matrix" values="0 0 0 0 0 0 0 0 0 0 0 0 0 0 0 0 0 0 127 0" result="hardAlpha"/>
<feOffset dy="2"/>
<feGaussianBlur stdDeviation="2"/>
<feComposite in2="hardAlpha" operator="out"/>
<feColorMatrix type="matrix" values="0 0 0 0 0 0 0 0 0 0 0 0 0 0 0 0 0 0 0.25 0"/>
<feBlend mode="normal" in2="BackgroundImageFix" result="effect1_dropShadow_141_18"/>
<feBlend mode="normal" in="SourceGraphic" in2="effect1_dropShadow_141_18" result="shape"/>
</filter>
<linearGradient id="paint0_linear_141_18" x1="64" y1="0" x2="64" y2="128" gradientUnits="userSpaceOnUse">
<stop stop-color="#FCF84A"/>
<stop offset="0.244792" stop-color="#9AF156"/>
<stop offset="0.510417" stop-color="#7AE36F"/>
<stop offset="0.744792" stop-color="#21D789"/>
<stop offset="1" stop-color="#07C3F2"/>
</linearGradient>
<clipPath id="clip0_141_18">
<rect width="96" height="96" fill="white" transform="translate(16 16)"/>
</clipPath>
</defs>
</svg>
