<svg width="128" height="128" viewBox="0 0 128 128" fill="none" xmlns="http://www.w3.org/2000/svg">
<rect width="128" height="128" rx="32" fill="url(#paint0_linear_141_369)"/>
<rect width="128" height="128" rx="32" fill="url(#paint1_linear_141_369)"/>
<g filter="url(#filter0_i_141_369)">
<rect x="8" y="8" width="112" height="112" rx="24" fill="black" fill-opacity="0.7"/>
<g clip-path="url(#clip0_141_369)">
<g filter="url(#filter1_d_141_369)">
<path d="M92.1966 20.1143L67.0812 29.1108L47.2869 20.1143L40.7681 36.5348H36.5532V85.0103L97.5086 85.5405L106.972 37.2663L92.1966 20.1143Z" fill="url(#paint2_linear_141_369)"/>
</g>
<g filter="url(#filter2_d_141_369)">
<path d="M91.4469 51.6114L51.3372 27.84L91.4469 74.8525V51.6114Z" fill="url(#paint3_linear_141_369)"/>
</g>
<g filter="url(#filter3_d_141_369)">
<path d="M55.7348 105.6L88.5394 101.23L83.4468 91.4377H91.4468V74.8526L51.328 27.7668L19.2 35.6571L19.2365 81.7371L37.7051 107.886L55.6342 105.609L55.7165 105.6H55.7348Z" fill="url(#paint4_linear_141_369)"/>
</g>
<g filter="url(#filter4_d_141_369)">
<path d="M36.5715 36.5714H91.4287V91.4286H36.5715V36.5714Z" fill="black"/>
</g>
<path d="M43.4104 81.0605H63.9818V84.4891H43.4104V81.0605Z" fill="white"/>
<path d="M63.7349 43.4011H68.6263L74.048 52.1234L79.4697 43.4011H84.3611V64.0183H79.8537V50.56L74.048 59.3646H73.9292L68.1874 50.6514V64.0183H63.7349V43.4011Z" fill="white"/>
<path d="M43.4287 43.4286H52.8459C55.4546 43.4286 57.4539 44.1234 58.8436 45.5132C59.4404 46.1382 59.9044 46.8776 60.2076 47.6869C60.5109 48.4961 60.6472 49.3584 60.6081 50.2217V50.2857C60.675 51.7419 60.2428 53.1772 59.383 54.3543C58.5599 55.4119 57.4533 56.2141 56.1921 56.6674L61.2299 63.9817H55.927L51.6573 57.664H47.9179V63.9909H43.4287V43.4286ZM52.5716 53.4034C53.489 53.4441 54.3896 53.1482 55.1041 52.5714C55.4016 52.3056 55.6375 51.9782 55.7954 51.6118C55.9534 51.2455 56.0295 50.8491 56.0184 50.4503V50.3954C56.0525 49.9819 55.9873 49.5662 55.8283 49.183C55.6692 48.7997 55.421 48.46 55.1041 48.192C54.3406 47.6581 53.4194 47.3972 52.4893 47.4514H47.9361V53.3669L52.5716 53.4034Z" fill="white"/>
</g>
</g>
<defs>
<filter id="filter0_i_141_369" x="8" y="8" width="112" height="116" filterUnits="userSpaceOnUse" color-interpolation-filters="sRGB">
<feFlood flood-opacity="0" result="BackgroundImageFix"/>
<feBlend mode="normal" in="SourceGraphic" in2="BackgroundImageFix" result="shape"/>
<feColorMatrix in="SourceAlpha" type="matrix" values="0 0 0 0 0 0 0 0 0 0 0 0 0 0 0 0 0 0 127 0" result="hardAlpha"/>
<feOffset dy="4"/>
<feGaussianBlur stdDeviation="2"/>
<feComposite in2="hardAlpha" operator="arithmetic" k2="-1" k3="1"/>
<feColorMatrix type="matrix" values="0 0 0 0 0 0 0 0 0 0 0 0 0 0 0 0 0 0 0.25 0"/>
<feBlend mode="normal" in2="shape" result="effect1_innerShadow_141_369"/>
</filter>
<filter id="filter1_d_141_369" x="32.5532" y="18.1143" width="78.4182" height="73.4263" filterUnits="userSpaceOnUse" color-interpolation-filters="sRGB">
<feFlood flood-opacity="0" result="BackgroundImageFix"/>
<feColorMatrix in="SourceAlpha" type="matrix" values="0 0 0 0 0 0 0 0 0 0 0 0 0 0 0 0 0 0 127 0" result="hardAlpha"/>
<feOffset dy="2"/>
<feGaussianBlur stdDeviation="2"/>
<feComposite in2="hardAlpha" operator="out"/>
<feColorMatrix type="matrix" values="0 0 0 0 0 0 0 0 0 0 0 0 0 0 0 0 0 0 0.25 0"/>
<feBlend mode="normal" in2="BackgroundImageFix" result="effect1_dropShadow_141_369"/>
<feBlend mode="normal" in="SourceGraphic" in2="effect1_dropShadow_141_369" result="shape"/>
</filter>
<filter id="filter2_d_141_369" x="47.3372" y="25.84" width="48.1096" height="55.0126" filterUnits="userSpaceOnUse" color-interpolation-filters="sRGB">
<feFlood flood-opacity="0" result="BackgroundImageFix"/>
<feColorMatrix in="SourceAlpha" type="matrix" values="0 0 0 0 0 0 0 0 0 0 0 0 0 0 0 0 0 0 127 0" result="hardAlpha"/>
<feOffset dy="2"/>
<feGaussianBlur stdDeviation="2"/>
<feComposite in2="hardAlpha" operator="out"/>
<feColorMatrix type="matrix" values="0 0 0 0 0 0 0 0 0 0 0 0 0 0 0 0 0 0 0.25 0"/>
<feBlend mode="normal" in2="BackgroundImageFix" result="effect1_dropShadow_141_369"/>
<feBlend mode="normal" in="SourceGraphic" in2="effect1_dropShadow_141_369" result="shape"/>
</filter>
<filter id="filter3_d_141_369" x="15.2" y="25.7668" width="80.2468" height="88.1189" filterUnits="userSpaceOnUse" color-interpolation-filters="sRGB">
<feFlood flood-opacity="0" result="BackgroundImageFix"/>
<feColorMatrix in="SourceAlpha" type="matrix" values="0 0 0 0 0 0 0 0 0 0 0 0 0 0 0 0 0 0 127 0" result="hardAlpha"/>
<feOffset dy="2"/>
<feGaussianBlur stdDeviation="2"/>
<feComposite in2="hardAlpha" operator="out"/>
<feColorMatrix type="matrix" values="0 0 0 0 0 0 0 0 0 0 0 0 0 0 0 0 0 0 0.25 0"/>
<feBlend mode="normal" in2="BackgroundImageFix" result="effect1_dropShadow_141_369"/>
<feBlend mode="normal" in="SourceGraphic" in2="effect1_dropShadow_141_369" result="shape"/>
</filter>
<filter id="filter4_d_141_369" x="32.5715" y="34.5714" width="62.8572" height="62.8572" filterUnits="userSpaceOnUse" color-interpolation-filters="sRGB">
<feFlood flood-opacity="0" result="BackgroundImageFix"/>
<feColorMatrix in="SourceAlpha" type="matrix" values="0 0 0 0 0 0 0 0 0 0 0 0 0 0 0 0 0 0 127 0" result="hardAlpha"/>
<feOffset dy="2"/>
<feGaussianBlur stdDeviation="2"/>
<feComposite in2="hardAlpha" operator="out"/>
<feColorMatrix type="matrix" values="0 0 0 0 0 0 0 0 0 0 0 0 0 0 0 0 0 0 0.25 0"/>
<feBlend mode="normal" in2="BackgroundImageFix" result="effect1_dropShadow_141_369"/>
<feBlend mode="normal" in="SourceGraphic" in2="effect1_dropShadow_141_369" result="shape"/>
</filter>
<linearGradient id="paint0_linear_141_369" x1="64" y1="0" x2="64" y2="128" gradientUnits="userSpaceOnUse">
<stop stop-color="#087CFA"/>
<stop offset="0.317708" stop-color="#963597"/>
<stop offset="0.671875" stop-color="#DD1265"/>
<stop offset="1" stop-color="#ED6438"/>
</linearGradient>
<linearGradient id="paint1_linear_141_369" x1="0.680334" y1="10.2394" x2="88.2159" y2="133.63" gradientUnits="userSpaceOnUse">
<stop stop-color="#6B57FF"/>
<stop offset="0.3" stop-color="#FE2857"/>
<stop offset="0.63" stop-color="#FE2857"/>
<stop offset="0.64" stop-color="#FE3052"/>
<stop offset="0.7" stop-color="#FD533B"/>
<stop offset="0.76" stop-color="#FC6C2A"/>
<stop offset="0.81" stop-color="#FC7B20"/>
<stop offset="0.85" stop-color="#FC801D"/>
</linearGradient>
<linearGradient id="paint2_linear_141_369" x1="75.4744" y1="70.8845" x2="64.3749" y2="41.7645" gradientUnits="userSpaceOnUse">
<stop stop-color="#FE2857"/>
<stop offset="0.06" stop-color="#FE3052"/>
<stop offset="0.33" stop-color="#FD533B"/>
<stop offset="0.58" stop-color="#FC6C2A"/>
<stop offset="0.81" stop-color="#FC7B20"/>
<stop offset="1" stop-color="#FC801D"/>
</linearGradient>
<linearGradient id="paint3_linear_141_369" x1="54.336" y1="29.2114" x2="71.4697" y2="44.9188" gradientUnits="userSpaceOnUse">
<stop stop-color="#6B57FF"/>
<stop offset="1" stop-color="#FE2857"/>
</linearGradient>
<linearGradient id="paint4_linear_141_369" x1="19.584" y1="34.176" x2="76.0045" y2="105.893" gradientUnits="userSpaceOnUse">
<stop stop-color="#6B57FF"/>
<stop offset="0.3" stop-color="#FE2857"/>
<stop offset="0.63" stop-color="#FE2857"/>
<stop offset="0.64" stop-color="#FE3052"/>
<stop offset="0.7" stop-color="#FD533B"/>
<stop offset="0.76" stop-color="#FC6C2A"/>
<stop offset="0.81" stop-color="#FC7B20"/>
<stop offset="0.85" stop-color="#FC801D"/>
</linearGradient>
<clipPath id="clip0_141_369">
<rect width="96" height="96" fill="white" transform="translate(16 16)"/>
</clipPath>
</defs>
</svg>
