<svg width="128" height="128" viewBox="0 0 128 128" fill="none" xmlns="http://www.w3.org/2000/svg">
<rect width="128" height="128" rx="32" fill="url(#paint0_linear_112_315)"/>
<g filter="url(#filter0_i_112_315)">
<rect x="8" y="8" width="112" height="112" rx="24" fill="black" fill-opacity="0.7"/>
<path d="M87.75 83.1875C86.8333 82.8958 86 82.375 85.4167 81.7708C84.5833 80.875 79.625 71.875 79.625 71.2291C79.625 70.875 79.7083 70.7083 79.8958 70.7916C80.0833 70.8541 80.6667 69.75 81.7083 67.3333C83.4583 63.3541 83.5 63.3125 84.9583 64.4166C88.9375 67.4583 92.4792 69.0208 96.1875 69.3333C97.75 69.4791 98.1667 69.6666 98.1667 70.25C98.1667 70.4583 98.8269 69.5225 98.9102 69.5641C99.0144 69.585 97.3542 73.4166 95.9167 76.625C93.4583 82.1666 93.2708 82.5208 92.5625 82.8541C91.7292 83.2708 88.6458 83.4791 87.75 83.1875Z" fill="url(#paint1_linear_112_315)"/>
<path d="M35.6874 83.0209C34.7707 82.6459 34.7499 82.625 33.4791 79.7292C32.7707 78.125 31.8124 75.9375 31.3332 74.8959L30.0405 71.8638L31.4582 73C32.4374 73.0209 34.6457 72.5 37.0207 71.6667C37.7082 71.4375 38.7707 71.1042 39.3749 70.9167C40.1249 70.6875 40.4582 70.5 40.4582 70.25C40.4582 70.0417 40.6666 69.8334 40.9374 69.7709C41.1874 69.7084 42.2707 69.2917 43.3332 68.8125C44.3957 68.3334 45.3957 67.9584 45.5624 67.9584C45.7291 67.9584 45.8749 67.875 45.8749 67.75C45.8749 67.6459 45.9999 67.5417 46.1457 67.5417C46.2916 67.5417 47.0595 69.0888 47.1249 69.2292C47.9482 70.9973 48.1041 71.3125 48.3957 70.8542C48.5207 70.6459 48.5832 70.75 48.5832 71.1667C48.5832 71.875 43.6874 80.6042 42.6666 81.6667C41.5624 82.8542 40.5832 83.2292 38.4791 83.3125C37.0624 83.3542 36.3749 83.2917 35.6874 83.0209Z" fill="url(#paint2_linear_112_315)"/>
<path d="M87.9583 83.1667C87.9583 83.0625 87.6875 82.9583 87.3333 82.9583C86.8125 82.9583 86.7083 82.875 86.7083 82.4375C86.7083 81.9792 86.625 81.9167 85.9792 81.9167C85.2708 81.9167 85.25 81.8958 85.25 81.1458V80.375L86.0417 81.125C86.8958 81.9583 87.7292 82.4167 88.75 82.6458C89.6667 82.8333 89.6458 83.375 88.6875 83.375C88.2917 83.375 87.9583 83.2917 87.9583 83.1667Z" fill="url(#paint3_radial_112_315)"/>
<path d="M89.1519 82.8388C89.1469 82.6796 90.5496 82.7173 91.0625 82.5417C91.4879 82.3961 92.2083 82.1042 92.6458 81.7917C93.5208 81.2084 93.6875 81.25 93.5 82.0209C93.3958 82.3959 93.2292 82.5417 92.8542 82.5417C92.5417 82.5417 92.3333 82.6667 92.3333 82.8334C92.3333 83.1459 91.7083 83.375 90.8333 83.375C90.4583 83.375 89.1583 83.0471 89.1519 82.8388Z" fill="url(#paint4_radial_112_315)"/>
<path d="M64.9168 78.4584C64.4168 77.5625 64.0627 77.1459 63.8752 77.2084C63.6668 77.2917 63.5835 77.1459 63.5835 76.7709C63.5835 75.7917 68.2085 67.8125 71.2085 63.625C72.8752 61.2917 73.1668 60.9792 73.7502 60.9167C74.3127 60.8542 74.4168 60.9375 74.5418 61.4167C74.6252 61.7292 74.6043 62.1042 74.5002 62.25C72.6668 64.8125 71.2918 66.9584 71.2918 67.2084C71.2918 67.375 71.1043 67.875 70.896 68.3125C70.2293 69.6042 66.9585 77.7084 66.771 78.5417C66.7085 78.7917 66.5835 79 66.4793 79C66.3752 79 67.3068 81.9509 67.3068 82.18C67.3068 82.9925 65.6668 79.8125 64.9168 78.4584Z" fill="url(#paint5_radial_112_315)"/>
<path d="M83.7915 78.8958C83.7915 78 84.0832 77.9583 84.5207 78.7917C84.9373 79.5833 84.9165 79.625 84.3123 79.625C83.854 79.625 83.7915 79.5417 83.7915 78.8958Z" fill="url(#paint6_radial_112_315)"/>
<path d="M82.75 77.0209C82.75 76.125 83.0394 76.1121 83.4769 76.9454C83.8935 77.7371 84.5665 78.6765 83.9623 78.6765C83.504 78.6765 82.75 77.6667 82.75 77.0209Z" fill="url(#paint7_radial_112_315)"/>
<path d="M81.7081 75.1459C81.7081 74.5625 81.6248 74.4167 81.3123 74.4167C80.8748 74.4167 80.6665 74.0209 80.6665 73.1459C80.6665 72.6875 80.5623 72.5417 80.2498 72.5417C79.9998 72.5417 79.7915 72.3542 79.7081 72.0417C79.5415 71.3542 79.4892 70.6192 79.8046 70.714C80.1019 70.8034 82.7498 75.5209 82.7498 75.75C82.7498 75.8125 82.5206 75.875 82.229 75.875C81.7706 75.875 81.7081 75.7917 81.7081 75.1459Z" fill="url(#paint8_radial_112_315)"/>
<path d="M87.1248 82.9583C87.1248 82.8542 86.9373 82.75 86.7082 82.75C86.479 82.75 86.2915 82.6042 86.2915 82.4375C86.2915 82.2708 86.1457 82.125 85.9582 82.125C85.4373 82.125 85.0415 81.5833 85.0415 80.8958C85.0415 80.125 85.2032 80.0971 85.6457 80.7292C86.0148 81.2563 87.2707 82.25 88.0207 82.4375C88.854 82.6458 88.729 83.1667 87.854 83.1667C87.4582 83.1667 87.1248 83.0833 87.1248 82.9583Z" fill="url(#paint9_radial_112_315)"/>
<path d="M65.9508 79.8789C65.7008 79.2956 65.5208 78.6041 65.8125 78.4166C65.9167 78.3333 66.0625 78.0833 66.1458 77.8541C66.375 77 69.5625 69.125 70.2083 67.7708C70.3958 67.375 70.5625 66.8958 70.5625 66.7083C70.5833 66.5416 71.0833 65.6458 71.6875 64.7291C72.2917 63.8125 72.5417 63.3541 72.25 63.6875C71.9583 64.0416 71.0208 65.3541 70.2083 66.6458C69.375 67.9375 68.625 68.9791 68.5417 69C68.4375 69 68.375 68.6666 68.375 68.2708C68.375 67.6458 68.4375 67.5416 68.8958 67.5416C69.2917 67.5416 69.4375 67.3958 69.6042 66.7708C69.7292 66.3333 69.8333 65.8125 69.8333 65.625C69.8333 65.4166 69.9375 65.25 70.0625 65.25C70.3958 65.25 70.8542 64.6041 70.875 64.1666C70.875 63.9583 70.9792 63.7916 71.0833 63.7916C71.2083 63.7916 71.2917 63.6666 71.2917 63.5C71.2917 63.3333 71.4375 63.1666 71.6042 63.0833C71.7708 63.0208 71.9167 62.8333 71.9167 62.6666C71.9167 62.5208 72.0625 62.3333 72.2292 62.25C72.3958 62.1875 72.5417 62.0416 72.5417 61.9375C72.5417 61.6875 73.7083 60.4583 73.9375 60.4583C74.1667 60.4583 75.2171 62.5583 75.3892 62.9606C75.4579 63.1214 74.9583 62.9583 74.875 62.9583C74.7917 62.9583 74.5625 63.2708 74.3958 63.6458C74.2083 64 73.2083 66 72.1667 68.0625C71.125 70.125 70.2083 72.1041 70.125 72.4375C69.9375 73.2291 68.5417 76.75 67.7917 78.3125C66.9792 80 66.6667 80.4583 66.2708 80.4583C66.0833 80.4583 66.0758 80.1289 65.9508 79.8789Z" fill="url(#paint10_radial_112_315)"/>
<path d="M82.9585 77.4375C82.9585 76.5417 83.1668 76.5209 83.646 77.3125C84.1043 78.1042 84.1043 78.1667 83.4793 78.1667C83.021 78.1667 82.9585 78.0834 82.9585 77.4375Z" fill="url(#paint11_radial_112_315)"/>
<path d="M81.9165 75.5625C81.9165 74.6667 82.1492 74.6317 82.604 75.4375C83.4723 76.9761 83.2586 76.6492 82.4373 76.2917C82.0171 76.1088 81.9165 76.2083 81.9165 75.5625Z" fill="url(#paint12_radial_112_315)"/>
<path d="M31.1251 73.8542C30.8543 73.5417 30.2293 72.3958 29.7293 71.2708L28.5166 68.3963L29.8543 69.1458C32.3543 68.8542 42.9585 63.75 42.9585 62.8542C42.9585 62.625 43.721 61.7388 43.8251 61.9054C43.8668 61.9471 44.6876 63.6875 45.3543 65.2084C46.1106 66.9217 46.4329 67.8981 46.637 68.3263C46.7966 68.6611 46.5354 68.7688 46.2918 68.6875C46.0835 68.625 45.146 68.9167 44.1876 69.3334C43.2293 69.75 42.1043 70.2292 41.7085 70.3958L40.9793 70.6875L41.9168 70.5834C43.146 70.4584 42.646 70.75 40.5001 71.3958C39.6251 71.6458 38.3335 72.0625 37.646 72.3125C36.3126 72.7708 32.646 73.7917 32.1251 73.8542C31.9585 73.875 31.771 74 31.7085 74.1458C31.646 74.3125 31.4376 74.1875 31.1251 73.8542Z" fill="url(#paint13_linear_112_315)"/>
<path d="M29.6251 70.2084C29.6251 70 29.5001 69.8334 29.3543 69.8334C29.1043 69.8334 28.6397 68.8027 27.6605 66.5111C27.6189 66.4277 28.5418 66.4584 29.521 66.1042C32.9585 64.8542 35.9793 63.2084 38.896 61C40.6668 59.625 41.0835 59.25 41.0835 58.9167C41.0835 58.7292 41.2293 58.5834 41.396 58.5834C41.5626 58.5834 41.7085 58.5 41.7085 58.375C41.7085 58.2709 41.8335 58.1667 41.9793 58.1667C42.2501 58.1667 44.0835 62.1875 44.2918 63.2709C44.4168 63.8334 44.396 63.8542 44.146 63.5417C43.7918 63.1042 43.5835 63.0625 43.5835 63.4584C43.5835 64.25 35.4793 68.3125 31.0835 69.7084C30.4585 69.9167 29.8751 70.1875 29.7918 70.3334C29.6876 70.4792 29.6251 70.4375 29.6251 70.2084Z" fill="url(#paint14_linear_112_315)"/>
<path d="M40.25 82.5834C40.25 82.5 40.5208 82.2709 40.8542 82.0625C41.1667 81.875 41.7917 81.375 42.2083 80.9375L42.9583 80.1667V80.8542C42.9583 81.5834 42.5625 82.125 42.0417 82.125C41.8542 82.125 41.7083 82.2709 41.7083 82.4375C41.7083 82.6459 41.4792 82.75 40.9792 82.75C40.5833 82.75 40.25 82.6667 40.25 82.5834Z" fill="url(#paint15_linear_112_315)"/>
<path d="M27.1873 65.5834L26.354 63.6875L26.9165 63.5625C28.7498 63.1667 32.7707 61.0625 35.0623 59.2917C36.5832 58.125 39.4165 55.2709 39.4165 54.9167C39.4165 54.75 39.5207 54.625 39.6248 54.625C39.7498 54.625 39.8332 54.4792 39.8332 54.3125C39.8332 54.1459 39.9586 54.0107 40.104 54C40.1821 53.9944 40.3246 54.0738 40.553 54.505C40.9711 55.2948 41.6575 56.8982 42.4028 58.7292C42.4342 58.8063 42.8173 59.6463 42.9215 59.9171C43.0257 60.1879 42.6665 59.8334 42.5415 59.8334C42.4165 59.8334 42.3332 59.6875 42.3332 59.5209C42.3332 59.3542 42.1873 59.2084 42.0207 59.2084C41.854 59.2084 41.7082 59.3542 41.7082 59.5417C41.7082 59.875 41.2915 60.25 39.5207 61.625C36.8332 63.6667 33.3957 65.5834 30.7915 66.5C30.2082 66.7084 29.4582 67 29.104 67.125C28.7707 67.2709 28.3748 67.4167 28.2498 67.4375C28.1248 67.4792 27.6457 66.6459 27.1873 65.5834Z" fill="url(#paint16_linear_112_315)"/>
<path d="M78.9166 97.9375C76.6874 97.4167 74.7083 95.8542 73.3541 93.5417C72.1874 91.5417 72.1666 91.5 72.9166 91.5C73.2499 91.5 74.1874 91.1875 74.9583 90.8333C76.5833 90.0833 78.6458 89.8333 79.8958 90.2292C80.7499 90.5208 82.8749 92.4167 84.2083 94.0625L85.1458 95.25L86.2916 95.125L89.5539 90.6442C89.9024 90.2496 88.6608 93.1281 86.7499 95.7292C84.9583 97.5833 81.5624 98.5625 78.9166 97.9375Z" fill="url(#paint17_radial_112_315)"/>
<path d="M87.75 82.9583C87.75 82.5208 87.9583 82.4583 88.75 82.6667C89.5 82.875 89.3125 83.375 88.4792 83.375C87.8958 83.375 87.75 83.2917 87.75 82.9583Z" fill="url(#paint18_radial_112_315)"/>
<path d="M66.3751 81.125C65.7501 79.9583 65.7501 79.9375 66.1251 79.5417C66.6876 78.9375 69.1251 73.4167 69.5001 71.875C69.7292 70.8958 73.8959 62.5625 74.2917 62.2917C74.4584 62.1667 74.4584 62.125 74.2917 62.125C74.1667 62.125 74.0626 61.9792 74.0626 61.8125C74.0626 61.1875 74.5626 61.5208 75.2084 62.6042C75.8334 63.625 75.9376 64.4167 75.4584 64.4167C75.1667 64.4167 70.9167 73.2083 70.7709 74.1042C70.5417 75.5 70.2292 76.2917 68.8542 79.1042C68.1459 80.5833 73.0311 92.9712 73.104 93.0975C73.4213 93.6462 66.9792 82.2292 66.3751 81.125Z" fill="url(#paint19_radial_112_315)"/>
<path d="M85.6665 81.6875V81.0625L86.2915 81.5C87.2082 82.1458 87.229 82.3333 86.4165 82.3333C85.729 82.3333 85.6665 82.2917 85.6665 81.6875Z" fill="url(#paint20_radial_112_315)"/>
<path d="M92.5908 81.8548C92.5908 81.7923 93.0835 81.6041 93.4794 81.1875L94.2206 80.4004L93.8544 81.2708C93.6252 81.8333 93.396 82.125 93.1252 82.125C92.9169 82.125 92.5908 81.8964 92.5908 81.8548Z" fill="url(#paint21_radial_112_315)"/>
<path d="M84 79.3125C84 78.3958 84.1875 78.3958 84.7917 79.3125L85.2356 80.1246L84.625 80.0417C84.0417 80.0417 84 79.9792 84 79.3125Z" fill="url(#paint22_radial_112_315)"/>
<path d="M81.0835 74.1042C81.0835 73.1875 81.271 73.1875 81.8752 74.1042L82.3408 74.9079L81.7085 74.8334C81.1252 74.8334 81.0835 74.7709 81.0835 74.1042Z" fill="url(#paint23_radial_112_315)"/>
<path d="M80.0415 72.2292C80.0415 71.3125 80.229 71.3125 80.8332 72.2292L81.3746 73.1898L80.6665 72.9584C80.0832 72.9584 80.0415 72.8959 80.0415 72.2292Z" fill="url(#paint24_radial_112_315)"/>
<path d="M44.3123 63.875C44.1248 63.5834 44.0207 63.2917 44.0623 63.2292C44.1248 63.1667 44.3332 63.4167 44.5207 63.7709C44.9165 64.5625 44.8123 64.625 44.3123 63.875Z" fill="url(#paint25_linear_112_315)"/>
<path d="M40.1873 94.4792C40.104 94.4167 40.0415 94.0834 40.0415 93.75C40.0415 93.2292 40.104 93.1667 40.7707 93.1667C41.4582 93.1667 41.4998 93.2084 41.4998 93.8959C41.4998 94.5625 41.4373 94.625 40.9165 94.625C40.5832 94.625 40.2498 94.5625 40.1873 94.4792Z" fill="#00B0E7"/>
<path d="M26.7918 64.4375C26.8751 64.3333 26.793 64.3006 26.6857 64.2679C26.4861 64.2073 24.9628 60.81 25.1584 60.7056C25.2209 60.6431 27.5209 59.75 29.1043 59.1458C29.4584 59 29.7709 58.8333 29.8334 58.7708C29.8959 58.6875 30.5418 58.1875 31.2918 57.625C33.8751 55.7291 36.6876 52.7083 37.0001 51.5C37.2918 50.3125 37.4584 50.2916 38.4584 51.2708C39.4584 52.2708 40.4376 53.8958 40.6043 54.8542C40.6668 55.3333 40.6251 55.4375 40.3751 55.3333C40.1668 55.25 40.0418 55.3125 40.0418 55.5208C40.0418 55.8958 37.2501 58.7083 35.6876 59.9166C34.0209 61.2083 31.6668 62.5625 29.6876 63.3958C28.6251 63.8333 27.9584 64.2292 27.9584 64.4167C27.9584 64.6875 27.9376 64.6875 27.7501 64.4167C27.6251 64.2292 27.4793 64.1875 27.3959 64.3125C27.1876 64.5833 26.6459 64.7083 26.7918 64.4375Z" fill="url(#paint26_linear_112_315)"/>
<path d="M45.1877 97.9584C44.1668 97.6875 42.3335 96.75 42.3335 96.5C42.3335 96.375 42.6668 96.2917 43.0627 96.2917C43.4585 96.2917 43.7918 96.3542 43.7918 96.4584C43.7918 96.5417 44.7085 96.5834 45.8127 96.5625C47.2502 96.5209 48.0002 96.5834 48.4377 96.8125C48.7918 96.9792 49.1877 97.125 49.3543 97.125C49.7502 97.125 49.6877 97.6875 49.271 97.8542C48.646 98.0834 46.021 98.1667 45.1877 97.9584Z" fill="url(#paint27_linear_112_315)"/>
<path d="M85.6668 96.1875C85.6668 95.9583 85.521 95.8958 85.1877 95.9791C84.7918 96.0833 84.521 95.875 83.6043 94.75C82.1877 93 80.3335 91.3125 79.4168 90.9166C79.0002 90.75 78.3335 90.6666 77.8335 90.7291C76.8335 90.8333 74.5002 91.8541 73.9168 92.4583C73.4585 92.8958 73.0002 93.0208 73.0418 92.6666C73.0418 92.5416 72.9793 92.4166 72.8752 92.3958C72.7085 92.3541 72.1043 91.3541 70.1877 87.9166L69.396 86.5H70.0418C70.4585 86.5 70.6668 86.6041 70.6668 86.8125C70.6668 87.1458 71.0002 87.25 71.1252 86.9583C71.1668 86.875 71.9793 86.1458 72.9585 85.375C74.646 83.9791 74.7085 83.9166 74.646 83.1458C74.6043 82.3541 74.6043 82.3333 75.2918 82.3333C75.9377 82.3333 76.0627 82.4791 77.1252 84.125C77.7502 85.125 78.896 86.5 79.646 87.2291C81.3752 88.8541 82.521 89.2916 84.396 89.0833C85.2918 88.9791 85.6668 89.0208 85.6668 89.1875C85.6668 89.3125 85.771 89.4166 85.9168 89.4166C86.0418 89.4166 86.6043 89.7916 87.146 90.25C87.7085 90.7083 88.3543 91.0833 88.646 91.0833C88.9168 91.0833 89.3277 91.1319 89.3902 91.1944C89.0512 91.8331 87.73 94.5794 86.7091 95.6419C85.5841 96.8502 85.6668 96.6875 85.6668 96.1875Z" fill="url(#paint28_radial_112_315)"/>
<path d="M67.5416 83.1458C66.7916 81.8542 66.6458 81.125 67.0416 80.7708C67.5416 80.3125 69.8541 75.0625 70.0625 73.9167C70.1875 73.25 70.6875 71.875 71.1875 70.875C71.6666 69.8542 72.0208 68.9792 71.9583 68.9167C71.8958 68.8542 71.9583 68.7917 72.0833 68.7917C72.2291 68.7917 72.3125 68.7292 72.2916 68.6458C72.2083 68.4167 74.5341 63.5806 74.9925 63.0806C75.3675 62.6848 75.4375 63.125 76.0625 64.125C76.6875 65.125 76.6875 65.1458 76.3125 65.7708C75.4166 67.25 73.9791 69.875 72.9583 71.9167C72.0416 73.7292 71.8541 74.2708 71.8958 75.1042C71.9375 76.2083 71.4791 77.7292 70.3958 80.0833C70 80.9583 69.6041 81.9583 69.5208 82.2917C69.4583 82.6458 69.25 83.0417 69.0833 83.1875C68.9166 83.3125 68.7916 83.6458 68.7916 83.9167C68.7916 84.7708 68.2708 84.4583 67.5416 83.1458Z" fill="url(#paint29_radial_112_315)"/>
<path d="M90.4791 83.0625C90.5207 82.8541 90.7916 82.6458 91.0624 82.6041C91.3541 82.5625 91.6874 82.4375 91.8124 82.3333C91.9582 82.2291 92.1249 82.1875 92.1874 82.2708C92.2707 82.3333 92.3332 82.2916 92.3332 82.1666C92.3332 82.0208 92.4374 81.9166 92.5624 81.9166C92.7082 81.9166 92.9028 81.7171 93.0832 81.5625C93.4587 81.2406 93.3541 81.25 93.3749 81.875C93.3901 82.3331 93.2499 82.6041 93.0207 82.6875C92.8124 82.7708 92.5832 82.9166 92.5207 83.0208C92.4374 83.125 91.9374 83.2708 91.3957 83.3333C90.5416 83.4166 90.4166 83.3958 90.4791 83.0625Z" fill="url(#paint30_radial_112_315)"/>
<path d="M84.8335 81.2708C84.8335 81.1458 84.6877 80.9167 84.521 80.75C84.2085 80.4167 84.0835 79 84.3752 79C84.5002 79 84.8752 79.5208 85.7502 80.9375L86.0835 81.5H85.4585C85.1252 81.5 84.8335 81.3958 84.8335 81.2708Z" fill="url(#paint31_radial_112_315)"/>
<path d="M83.1665 77.8542C83.1665 76.9375 83.354 76.9375 83.9582 77.8542L84.4669 78.7113L83.7915 78.5834C83.2082 78.5834 83.1665 78.5209 83.1665 77.8542Z" fill="url(#paint32_radial_112_315)"/>
<path d="M82.1248 75.9792C82.1248 75.3959 82.0415 75.25 81.7082 75.25C81.3748 75.25 81.2915 75.1042 81.2915 74.5209C81.2915 74.125 81.354 73.7917 81.4165 73.7917C81.604 73.7917 82.3123 74.7084 82.3332 74.9375C82.3332 75.0625 82.5623 75.5 82.854 75.9375L83.4515 76.8986L82.7498 76.7084C82.1665 76.7084 82.1248 76.6459 82.1248 75.9792Z" fill="url(#paint33_radial_112_315)"/>
<path d="M80.25 72.6458C80.25 71.7917 80.3542 71.75 80.8958 72.3958C81.4167 73.0417 81.3958 73.375 80.7708 73.375C80.3125 73.375 80.25 73.2917 80.25 72.6458Z" fill="url(#paint34_radial_112_315)"/>
<path d="M84.5418 80.75C84.4793 80.5625 84.4168 80.1458 84.4168 79.8125C84.4168 79.3542 84.3127 79.2083 84.0002 79.2083C83.6668 79.2083 83.5835 79.0625 83.5835 78.4583C83.5835 77.7917 83.6252 77.7292 83.9168 77.9792C84.1043 78.125 84.396 78.6042 84.5627 79.0417C84.7293 79.4792 84.6952 79.8642 84.8202 79.8642C84.9243 79.8642 85.2085 79.9375 85.146 80.0417C85.0835 80.1667 85.1043 80.25 85.2085 80.25C85.3127 80.25 85.4585 80.4375 85.521 80.6667C85.6043 81 85.521 81.0833 85.146 81.0833C84.8752 81.0833 84.6043 80.9375 84.5418 80.75Z" fill="url(#paint35_radial_112_315)"/>
<path d="M82.5415 76.5625C82.5415 75.8333 82.5623 75.8125 82.9373 76.1667C83.1457 76.375 83.3244 76.7223 83.4373 76.9375C83.5875 77.224 83.4373 77.3333 83.0415 77.3333C82.604 77.3333 82.5415 77.2292 82.5415 76.5625Z" fill="url(#paint36_radial_112_315)"/>
<path d="M81.5 74.6875C81.5 73.9375 81.5 73.9375 81.875 74.3333C82.0833 74.5417 82.3125 74.8958 82.3958 75.1042C82.5 75.375 82.4167 75.4583 82.0208 75.4583C81.5625 75.4583 81.5 75.375 81.5 74.6875Z" fill="url(#paint37_radial_112_315)"/>
<path d="M80.4585 72.8125C80.4585 72.0625 80.4585 72.0625 80.8335 72.4583C81.0418 72.6667 81.271 73.0208 81.3543 73.2292C81.4585 73.5 81.3752 73.5833 80.9793 73.5833C80.521 73.5833 80.4585 73.5 80.4585 72.8125Z" fill="url(#paint38_radial_112_315)"/>
<path d="M79.4165 71.0834C79.4165 70.5209 79.0811 69.6454 79.7913 70.66C79.9095 70.8288 80.1238 71.19 80.2778 71.374C80.3611 71.6656 80.2915 71.7084 79.9165 71.7084C79.4999 71.7084 79.4165 71.6042 79.4165 71.0834Z" fill="url(#paint39_radial_112_315)"/>
<path d="M97.4582 71.3958C97.3957 71.2292 97.3957 70.9583 97.4582 70.8125C97.6249 70.3333 97.1041 70.1042 95.5624 69.9583C91.8541 69.6458 88.3124 68.0833 84.3332 65.0417L83.4999 64.3958L82.7916 65.5C82.4166 66.1042 82.1249 66.5 82.1666 66.375C82.2082 66.25 83.2499 63.8333 84.5207 61C86.3332 56.8958 86.8749 55.875 87.1874 55.875C87.4166 55.875 88.1457 56.4792 88.8332 57.2292C90.5207 59.0417 92.7707 60.5208 94.8957 61.2083C96.4582 61.7292 96.8749 61.7708 99.5624 61.75L102.521 61.7083L102.146 62.6042C100.167 67.1667 98.3124 71.1875 98.0624 71.4167C97.7082 71.7917 97.6041 71.7917 97.4582 71.3958Z" fill="url(#paint40_linear_112_315)"/>
<path d="M28.0171 61.9977C27.9129 61.8519 25.8127 61.9748 25.7294 62.0373C25.6111 62.0604 25.4275 61.7781 25.1648 60.9442C25.0209 60.4871 24.2613 58.5687 24.4988 58.5054C24.6396 58.4679 24.5521 58.7606 24.5031 58.611C24.4115 58.3306 24.5834 58.7908 24.5631 58.5329C24.4625 57.2564 25.2084 54.8706 25.3284 54.7583C25.8452 54.274 27.3331 56.2917 27.3331 55.9792C27.3331 55.8333 27.7915 55.4167 28.3331 55.0625C29.4581 54.3542 30.6873 53.2083 31.7915 51.8542C32.3331 51.2083 32.5623 50.6875 32.6665 49.875L32.5588 48.9506C32.9225 48.6694 34.8504 49.0262 34.7217 49.1317C34.0256 48.806 35.7004 49.425 36.7915 50C37.1419 50.1848 37.66 50.5331 37.86 50.7185C38.2952 51.1223 38.1263 51.3527 37.8123 51.6667C37.6665 51.8125 37.5831 52.0417 37.6665 52.1458C37.8331 52.4167 35.979 54.6875 34.479 56.0833C31.9373 58.4167 31.2498 59.0208 31.4165 58.75C31.5831 58.4583 30.979 58.8542 30.5623 59.3125C30.4581 59.4167 30.104 59.625 29.8123 59.7292C26.7498 60.9167 28.954 61.835 28.9123 62.1058C28.8498 62.3558 28.1421 62.206 28.0171 61.9977Z" fill="url(#paint41_linear_112_315)"/>
<path d="M48.6874 97.7917C48.4582 97.75 48.1665 97.625 48.0415 97.5208C47.7082 97.25 45.2499 97.1042 44.5207 97.3125C43.4165 97.625 41.2707 96.1458 40.0207 94.2292L39.5332 93.1106L40.3124 92.7917C40.7915 92.5 41.6249 91.8958 42.1457 91.4583C42.6874 91.0208 43.229 90.6667 43.354 90.6667C43.479 90.6667 43.5832 90.5208 43.5832 90.3542C43.5832 90.125 43.8124 90.0417 44.479 90.0417C46.6249 90.0417 49.1457 88.0208 51.2915 84.5833C52.3332 82.9167 52.4999 82.75 53.104 82.75C53.4582 82.75 53.7915 82.875 53.854 83.0208C53.9999 83.3958 53.8124 88.4167 53.5415 90.8125C53.2915 93.1042 53.4165 93.5833 54.2499 93.5833C54.604 93.5833 54.5832 93.6667 54.0207 94.4792C52.6874 96.4375 50.0415 98.0833 48.6874 97.7917Z" fill="url(#paint42_linear_112_315)"/>
<path d="M88.5835 92.0208C88.5835 91.7708 88.5002 91.7292 88.2293 91.8958C87.9585 92.0417 87.6252 91.875 86.7293 91.0625C86.1043 90.5 85.4585 90.0417 85.3127 90.0417C85.1668 90.0417 85.0418 89.9792 85.0418 89.8958C85.0418 89.7917 84.4793 89.7708 83.7918 89.7917C82.2293 89.8958 80.771 89.4167 79.7085 88.4792L78.896 87.7708L79.646 87.75C80.0627 87.75 80.4377 87.8125 80.521 87.875C80.6877 88.0625 83.3127 88.0417 84.396 87.8542C84.896 87.7708 85.9585 87.4792 86.7502 87.1875C87.5627 86.9167 88.9585 86.625 89.8752 86.5625L91.6595 86.0583L91.2293 87.1458C89.4377 91.3542 88.5835 92.9167 88.5835 92.0208Z" fill="url(#paint43_radial_112_315)"/>
<path d="M70.4585 88.1667C70.2918 88.0625 70.2293 87.9583 70.3335 87.9583C70.4585 87.9583 70.3543 87.8125 70.1252 87.6458C69.9168 87.4792 69.8335 87.3333 69.9377 87.3333C70.0627 87.3333 70.0627 87.2708 69.9168 87.1667C69.521 86.8958 68.146 84.2292 68.0627 83.5625C68.0002 83.0625 68.0835 82.8125 68.3543 82.6042C68.5835 82.4583 68.8127 82.0417 68.896 81.6875C68.9793 81.3333 69.3752 80.3333 69.771 79.4583C70.8752 77.0417 71.2502 75.7708 71.146 74.7708C71.0627 74.0417 71.2085 73.5625 72.021 71.9167C73.521 68.8333 75.735 64.1431 75.985 64.1431C76.11 64.1431 76.6668 65.1458 77.0002 65.7708C77.5627 66.7917 77.9962 67.2746 77.7045 67.6079C77.4337 67.9413 74.6668 71.875 74.0418 73.1667C73.3752 74.6042 72.9377 76.0208 73.0418 76.5C73.0835 76.8125 73.771 78.1667 74.5418 79.5417C75.3127 80.8958 76.146 82.3958 76.3752 82.8333C76.6252 83.2917 76.9585 83.8333 77.146 84.0417C77.3335 84.25 77.6043 84.6875 77.771 85C77.9377 85.3125 78.1877 85.6458 78.3127 85.7292C78.4585 85.8125 78.5835 86.2292 78.5835 86.6458C78.5835 87.3958 78.5835 87.3958 78.146 87C77.896 86.7917 77.2293 85.8542 76.6252 84.9583C75.6043 83.375 75.5627 83.3333 75.4585 83.9375C75.3752 84.4167 74.9377 84.8958 73.5835 85.9792C72.6043 86.7708 71.6043 87.625 71.3543 87.8958C70.8335 88.4375 70.8752 88.4375 70.4585 88.1667Z" fill="url(#paint44_radial_112_315)"/>
<path d="M88.229 83.4375C87.6665 83.3542 87.5415 83.25 87.5415 82.8542C87.5415 82.3958 87.604 82.3542 88.0832 82.5417C88.3748 82.6667 89.1665 82.75 89.8332 82.75C90.4998 82.75 91.2915 82.6667 91.5832 82.5417C92.0623 82.375 92.1248 82.3958 92.1248 82.8333C92.1248 83.25 91.9998 83.3333 91.1665 83.4583C90.1665 83.5833 89.4165 83.5833 88.229 83.4375Z" fill="url(#paint45_radial_112_315)"/>
<path d="M85.875 81.9167C85.875 81.3542 85.8125 81.2917 85.25 81.2917C84.6667 81.2917 84.625 81.2292 84.625 80.5625C84.625 79.6458 84.8125 79.6458 85.4167 80.5625C85.6667 80.9583 86.2083 81.5 86.6042 81.75C87.5208 82.3542 87.5208 82.5417 86.6042 82.5417C85.9375 82.5417 85.875 82.5 85.875 81.9167Z" fill="url(#paint46_radial_112_315)"/>
<path d="M42.5415 80.75C42.5415 80.5 43.2498 79.4167 43.4165 79.4167C43.4998 79.4167 43.5832 79.75 43.5832 80.1459C43.5832 80.7917 43.5207 80.875 43.0623 80.875C42.7707 80.875 42.5415 80.8125 42.5415 80.75Z" fill="#00B2F7"/>
<path d="M83.5 79.0833C83.4375 78.8958 83.375 78.4791 83.375 78.1458C83.375 77.6875 83.2708 77.5416 82.9792 77.5416C82.5417 77.5416 82.3333 77.1458 82.3333 76.2708C82.3333 75.8125 82.2292 75.6666 81.9167 75.6666C81.5833 75.6666 81.5 75.5208 81.5 74.9375C81.5 74.5416 81.5833 74.2083 81.6667 74.2083C81.8333 74.2083 84.625 79.0208 84.625 79.2916C84.625 79.5833 83.625 79.3958 83.5 79.0833Z" fill="url(#paint47_radial_112_315)"/>
<path d="M80.4585 73.0625C80.4585 72.1667 80.6668 72.1459 81.146 72.9375C81.6043 73.7292 81.6043 73.7917 80.9793 73.7917C80.521 73.7917 80.4585 73.7084 80.4585 73.0625Z" fill="url(#paint48_radial_112_315)"/>
<path d="M79.4165 71.1459L79.4373 70.3542L79.9373 70.9375C80.604 71.6875 80.5832 71.9167 79.9373 71.9167C79.479 71.9167 79.4165 71.8334 79.4165 71.1459Z" fill="url(#paint49_radial_112_315)"/>
<path d="M40.4165 55.4166C39.9581 54.9583 39.9581 54.8333 40.3331 54.8333C40.479 54.8333 40.6665 55.0416 40.729 55.2916C40.8956 55.875 40.854 55.8958 40.4165 55.4166Z" fill="url(#paint50_linear_112_315)"/>
<path d="M42.5833 80.5625C43.1875 79.6458 43.375 79.6458 43.375 80.5625C43.375 81.2292 43.3333 81.2917 42.75 81.2917H42.125L42.5833 80.5625Z" fill="#00C8E6"/>
<path d="M46.9165 73.2709C46.9165 72.9792 47.5832 71.9167 47.7498 71.9167C47.8748 71.9167 47.9582 72.25 47.9582 72.6459C47.9582 73.2917 47.8957 73.375 47.4373 73.375C47.1457 73.375 46.9165 73.3334 46.9165 73.2709Z" fill="#00C8E6"/>
<path d="M24.4568 58.6821C24.0358 55.0979 25.9316 51.4198 28.8333 49.8125C30.1821 49.0654 33.4318 48.5831 33.5577 48.981C33.6202 49.1269 33.6621 49.5604 33.8287 49.4979C34.3496 49.2896 34.2291 49.4167 33.7291 50.0833C33.4375 50.4583 33.25 50.875 33.3125 51C33.5 51.5208 30.8125 54.4375 29.1041 55.5833C28.5416 55.9792 28.0625 56.3958 28.0625 56.5417C28.0625 56.8542 27.9 58.7394 27.7333 58.4894C27.65 58.3644 27.9189 58.7237 27.7314 58.8904C27.4814 59.0779 24.525 59.2615 24.4568 58.6821Z" fill="url(#paint51_linear_112_315)"/>
<path d="M52.9376 93.8542C52.7501 93.5208 52.7292 92.8958 52.8542 91.5625C52.9584 90.5625 53.0417 88.5417 53.0626 87.0833C53.0834 85.625 53.1459 84.3542 53.2292 84.2917C53.4584 84.0417 53.3959 83.7917 53.1042 83.7917C52.9584 83.7917 52.2917 84.625 51.6459 85.625C49.6459 88.7708 47.1667 90.6667 45.1042 90.6667C44.3959 90.6667 44.2501 90.7292 44.3334 90.9792C44.4167 91.1875 44.3334 91.2917 44.1042 91.2917C43.9167 91.2917 43.3126 91.6458 42.7709 92.0833C42.2501 92.5208 41.5209 93.0625 41.1459 93.2708C40.7917 93.4792 40.5417 93.7708 40.6042 93.9167C40.6876 94.125 40.6042 94.1458 40.1876 93.9375C39.8126 93.7708 39.3959 93.0833 38.6251 91.375L36.0146 85.0833C39.7809 85.6946 44.6421 85.3583 44.6421 85.3583C46.288 85.0875 45.0182 84.0065 46.5599 84.5273C48.3099 85.1315 46.0946 86.5577 47.5946 85.5577C48.053 85.2452 48.6501 85.345 48.8584 85.22C49.0876 85.1158 49.4199 85.684 49.4199 85.559C49.4199 85.434 50.1792 86.0804 50.3667 85.9346C50.9501 85.4554 51.1876 84.6042 54.5417 78.875C56.3334 75.7917 58.6459 71.8958 59.6876 70.1875C61.5209 67.25 61.6251 67.125 62.2709 67.125C62.9167 67.125 62.9584 67.1667 62.9584 67.8125C62.9584 68.1667 62.7084 68.8542 62.4376 69.3125C62.1459 69.7708 61.9167 70.3542 61.9167 70.6042C61.9167 70.8333 61.6876 71.5417 61.3959 72.1667C61.1042 72.7708 60.8751 73.4583 60.8751 73.6875C60.8751 73.9167 60.7292 74.3958 60.5417 74.7292C59.9376 75.8542 58.5626 79.8958 57.6876 83.0625C57.0209 85.5 56.8334 86.5833 56.8126 87.9583L56.7917 89.7292L55.4792 92.0417C54.3959 93.9375 54.0834 94.3333 53.6876 94.3333C53.3959 94.3333 53.0834 94.1458 52.9376 93.8542Z" fill="url(#paint52_linear_112_315)"/>
<path d="M79.5626 88.2916C78.3751 87.3958 76.9168 85.4166 75.0001 82.0833C72.8543 78.3125 72.2918 77.2083 72.2084 76.4791C72.1459 75.9375 72.7709 73.9166 73.4168 72.5416C74.2501 70.8333 76.5626 66.7083 76.8334 66.4791C77.2084 66.1666 77.2709 66.25 78.1459 67.7708C78.6043 68.625 79.062 69.2362 78.8745 69.3196C78.6036 69.4029 76.2918 72.9375 76.2918 73.3333C76.2918 73.4375 75.9584 74.2291 75.5626 75.0625C75.1668 75.9166 74.7501 77.1666 74.6459 77.8541C74.4584 79 74.4793 79.1875 75.0001 80.25C75.3126 80.875 75.6876 81.5 75.8334 81.6666C75.9584 81.8125 76.0834 82.0833 76.0834 82.2291C76.0834 82.5 77.2501 82.9583 77.9168 82.9583C78.0418 82.9583 78.1668 83.0416 78.1668 83.1458C78.1668 83.2291 78.9793 83.1458 80.0001 82.9375C81.0001 82.7291 82.7293 82.4791 83.8751 82.4166C85.5626 82.2916 85.9584 82.2083 86.0209 81.9166C86.1043 81.6041 86.1626 81.8269 87.2709 82.1875C89.1997 82.8152 91.7795 82.9277 93.4584 81.5208C94.0447 81.0296 94.0397 80.9319 92.3334 84.6875C91.188 87.2085 90.6668 88.0416 90.6668 87.3125C90.6668 87.0208 89.0209 87.2708 87.2293 87.875C85.1043 88.5625 83.4584 88.8541 82.3959 88.6875C81.8334 88.6041 81.5001 88.625 81.5834 88.75C81.6459 88.8541 81.4168 88.9375 81.0834 88.9583C80.6876 88.9583 80.1251 88.7291 79.5626 88.2916Z" fill="url(#paint53_radial_112_315)"/>
<path d="M84.1458 80.3542C83.9583 79.9375 83.7916 79.3333 83.7916 79C83.7916 78.5208 83.6874 78.375 83.3958 78.375C82.9583 78.375 82.7499 77.9792 82.7499 77.1042C82.7499 76.6458 82.6458 76.5 82.3541 76.5C81.9166 76.5 81.7083 76.1042 81.7083 75.2292C81.7083 74.7708 81.6041 74.625 81.3124 74.625C80.8749 74.625 80.6666 74.2292 80.6666 73.3542C80.6666 72.8958 80.5624 72.75 80.2708 72.75C80.0624 72.75 79.8124 72.6042 79.7499 72.4167C79.5624 71.9375 79.6041 70.875 79.7916 70.875C79.8958 70.875 81.2291 73.1667 82.7916 75.9792C85.5833 80.9792 85.6249 81.0833 85.0624 81.0833C84.6249 81.0833 84.4166 80.9167 84.1458 80.3542Z" fill="url(#paint54_radial_112_315)"/>
<path d="M47.1664 72.8125C47.8956 71.2708 48.1664 71.125 48.1664 72.2292C48.1664 72.875 48.1039 72.9583 47.6248 72.9583C47.3331 72.9583 47.1248 72.8958 47.1664 72.8125Z" fill="#00BFF9"/>
<path d="M75.7081 83.125C75.1456 82.1667 74.354 80.8125 73.979 80.1042C73.2915 78.8542 73.2915 78.8125 73.6665 78.4167C73.8748 78.1667 73.979 77.8959 73.9165 77.7917C73.7706 77.5417 74.4581 75.3542 75.104 74.0625C75.4165 73.4584 75.6665 72.875 75.6665 72.75C75.6665 72.3334 77.854 67.9792 78.0623 67.9792C78.1873 67.9584 78.5206 68.4167 78.8123 68.9584C84.8331 79.9792 85.8331 81.5625 87.3331 82.3334C87.729 82.5625 87.979 82.7292 87.854 82.75C87.7498 82.75 87.7915 82.8542 87.9581 82.9792C88.1873 83.1459 88.1248 83.1667 87.6456 83.0417C86.2915 82.7084 82.479 83.1042 79.104 83.8959C77.979 84.1667 77.8331 84.1459 77.604 83.8542C77.4581 83.6667 77.2706 83.5625 77.2081 83.6459C77.1248 83.7292 76.9165 83.6667 76.7498 83.5209C76.479 83.3125 76.4581 83.3334 76.604 83.5834C76.7915 83.8959 76.9581 84.8334 76.8123 84.8334C76.7706 84.8334 76.2706 84.0625 75.7081 83.125Z" fill="url(#paint55_radial_112_315)"/>
<path d="M36.4583 83.4375C36 83.375 35.875 83.2292 35.875 82.8542C35.875 82.3958 35.9167 82.375 36.5 82.5833C36.8542 82.6875 37.7917 82.75 38.5625 82.7083C39.7292 82.6458 40.1875 82.5 41.0625 81.9792L42.125 81.3125V81.9167C42.125 82.3333 42.0208 82.5417 41.8125 82.5417C41.6458 82.5417 41.5 82.625 41.5 82.75C41.5 83.2917 38.375 83.7292 36.4583 83.4375Z" fill="url(#paint56_linear_112_315)"/>
<path d="M88.5624 83.1875C88.7082 83.0834 88.7499 82.9584 88.6665 82.9167C88.5624 82.8542 88.604 82.8542 88.7499 82.8959C88.9165 82.9167 89.1665 82.9584 89.3332 82.9584C89.4999 82.9584 89.6249 83.0625 89.6249 83.1667C89.6249 83.2917 89.3124 83.375 88.9582 83.375C88.479 83.375 88.354 83.3125 88.5624 83.1875Z" fill="url(#paint57_radial_112_315)"/>
<path d="M101.604 62.9792C101.833 62.5833 101.125 62.4583 98.5834 62.4167C96.3751 62.3958 95.7293 62.3125 94.2709 61.8333C92.1251 61.1458 89.8959 59.6667 88.2084 57.8542L86.9584 56.5L86.5209 57.0625L85.9126 58.0548L86.2709 57.1042C86.9584 55.1875 88.4376 52.4375 89.3126 51.5208C91.1668 49.5417 94.0834 48.5417 96.6668 49C101.229 49.7917 104.417 54.1458 103.604 58.5208C103.333 59.9792 102.396 62.3333 102.083 62.3333C101.958 62.3333 101.917 62.4583 101.979 62.625C102.042 62.7917 101.958 62.9792 101.792 63.0417C101.625 63.1042 101.542 63.0833 101.604 62.9792Z" fill="url(#paint58_linear_112_315)"/>
<path d="M47.7499 86.8958C47.2291 86.8125 45.2707 86.6667 43.3749 86.6042C41.4791 86.5417 39.3332 86.375 38.5832 86.2292C37.8332 86.1042 37.1249 86.0208 36.9791 86.0417C36.8332 86.0833 36.6249 85.8958 36.4999 85.6458C36.3541 85.4167 36.7982 86.6465 36.7101 86.6404C36.5622 86.6302 34.3595 81.6379 34.2414 81.4267C34.2312 81.4085 34.7291 81.625 35.3541 82.0208C36.8332 82.8958 38.1874 83.1042 39.6874 82.6667C41.5832 82.125 42.3749 81.1667 45.3957 75.875C48.4582 70.4583 48.7916 70 48.7916 71.1667C48.7916 71.9375 48.5832 72.3333 48.1457 72.3333C47.8332 72.3333 47.7499 72.4792 47.7499 73.0625C47.7499 73.5625 47.6457 73.7917 47.4374 73.7917C47.2707 73.7917 47.1249 73.9792 47.1249 74.1875C47.1249 74.8125 46.8957 75.25 46.5832 75.25C46.4166 75.25 46.2916 75.4375 46.2916 75.6458C46.2916 76.2708 46.0624 76.7083 45.7499 76.7083C45.5832 76.7083 45.4582 76.8958 45.4582 77.1042C45.4582 77.7292 45.2291 78.1667 44.9166 78.1667C44.7499 78.1667 44.6249 78.375 44.6249 78.6667C44.6249 79.125 44.7082 79.1667 46.4582 79.2917C47.4582 79.375 49.1666 79.5625 50.2499 79.7292C51.3541 79.8958 52.6041 79.9792 53.0207 79.8958C53.7291 79.7917 53.8749 79.6458 55.0624 77.5625C55.7707 76.3542 56.4166 75.3125 56.4999 75.25C56.5832 75.1875 56.7082 74.9375 56.7916 74.6875C56.8749 74.4167 57.0416 74.2083 57.1457 74.2083C57.2499 74.2083 57.3332 74.0833 57.3332 73.9167C57.3332 73.75 57.4582 73.4792 57.6249 73.3333C57.7707 73.1667 57.9791 72.8333 58.0416 72.5833C58.1249 72.3333 58.2916 72.125 58.3957 72.125C58.4999 72.125 58.5832 72 58.5832 71.8333C58.5832 71.6667 58.7082 71.3958 58.8749 71.25C59.0207 71.0833 59.2291 70.75 59.2916 70.5C59.3749 70.25 59.5416 70.0417 59.6457 70.0417C59.7499 70.0417 59.8332 69.8958 59.8332 69.7292C59.8332 69.5625 59.9374 69.4167 60.0416 69.4167C60.1666 69.4167 60.2499 69.2917 60.2499 69.125C60.2499 68.9583 60.3749 68.6875 60.5207 68.5417C60.6457 68.3958 60.9374 67.9167 61.1666 67.5C61.3749 67.0833 61.7291 66.5417 61.9374 66.3125C62.1666 66.0833 62.3332 65.7917 62.3332 65.6667C62.3332 65.5625 62.4374 65.4583 62.5416 65.4583C62.6666 65.4583 62.7499 65.3125 62.7499 65.1458C62.7499 64.9792 62.8541 64.8333 62.9582 64.8333C63.0832 64.8333 63.1666 64.6875 63.1666 64.5208C63.1666 64.3542 63.2707 64.2083 63.3749 64.2083C63.4999 64.2083 63.5832 64.0625 63.5832 63.8958C63.5832 63.7292 63.6874 63.5833 63.7916 63.5833C63.9166 63.5833 63.9999 63.4375 63.9999 63.2708C63.9999 63.0833 64.1457 62.8958 64.3124 62.8333C64.4791 62.75 64.6249 62.5833 64.6249 62.4167C64.6249 62.25 64.7291 62.125 64.8332 62.125C64.9582 62.125 65.0416 61.9792 65.0416 61.8125C65.0416 61.625 65.1874 61.4375 65.3541 61.375C65.5207 61.2917 65.6666 61.125 65.6666 60.9583C65.6666 60.7917 65.7707 60.6667 65.8749 60.6667C65.9999 60.6667 66.0832 60.5417 66.0832 60.375C66.0832 60.2083 66.2499 59.9375 66.4582 59.7917C66.6457 59.6458 66.9374 59.2917 67.0832 59C67.7291 57.7917 68.5832 57.125 69.5207 57.125C70.0207 57.125 70.2082 57.25 70.4166 57.7292C70.7916 58.5833 71.7499 59 72.7082 58.75C73.1457 58.6458 73.8749 58.5 74.3749 58.4375C75.2291 58.3125 75.2499 58.3333 75.2499 58.9375C75.2499 59.2917 74.9741 59.8777 74.8074 60.0027C74.3282 60.3985 70.6041 65.6042 69.2707 67.75C68.5832 68.8333 67.1249 71.3333 66.0416 73.2708C60.6457 82.9167 56.4278 90.6519 56.1362 90.6519C56.0528 90.6519 54.5322 85.5212 54.6364 85.2712C54.7405 85.0004 56.1455 83.544 56.0622 83.3148C55.9164 82.919 53.8889 84.1723 54.3055 83.6306C54.4722 83.4431 57.2405 78.3252 57.3864 77.6794C57.5322 77.0752 59.5768 72.2315 60.9934 69.6273C61.8684 67.9815 66.4999 66.625 66.4999 66.5C66.4999 66.3958 66.6041 66.2917 66.7082 66.2917C66.8332 66.2917 66.9166 66.1042 66.9166 65.875C66.9166 65.6458 66.9999 65.4583 67.1041 65.4583C67.3332 65.4583 68.7916 62.5 68.7916 62.0417C68.7916 61.8542 68.8957 61.7083 69.0207 61.7083C69.1457 61.7083 69.1874 61.5208 69.1041 61.2917C69.0207 61.0625 69.0624 60.875 69.1874 60.875C69.3124 60.875 69.4166 60.6875 69.4166 60.4375C69.4166 59.75 70.8972 60.821 71.2909 60.9725C71.5618 61.0767 71.4901 68.1792 70.388 61.185C70.3307 60.8208 69.2587 62.2056 69.1753 61.9765C69.0712 61.664 71.3832 62.1344 70.3416 63.4052C67.1957 67.2385 61.2916 68.7917 55.6666 78.4792C51.3957 85.8125 50.7499 86.7708 50.2291 86.6458C50.0207 86.5833 49.8332 86.625 49.8332 86.75C49.8332 86.8542 49.7499 86.875 49.6249 86.8125C49.5207 86.75 49.4166 86.7917 49.4166 86.8958C49.4166 87.1458 49.1041 87.1458 47.7499 86.8958Z" fill="url(#paint59_linear_112_315)"/>
<path d="M47.6875 57.1041C46.7083 56.5833 45.5 55.375 44.875 54.2291C44.8279 54.2602 44.2456 52.9056 44.3248 52.8535L46.7708 53.375H49.1458L48.9791 54.375C48.8958 54.9166 48.8125 55.8541 48.8125 56.4583C48.7916 57.0416 48.7291 57.5416 48.6458 57.5416C48.5416 57.5208 48.125 57.3333 47.6875 57.1041Z" fill="url(#paint60_linear_112_315)"/>
<path d="M41.9377 81.4583C42.3335 81.0625 43.8335 78.6875 45.271 76.1666C51.0418 66.1458 55.5835 58.3958 56.5627 56.9166C57.7085 55.1875 61.6877 51.1041 63.2085 50.0625L64.8358 49.0762L64.2085 49.9791C64.2085 50.3125 63.8752 51.1875 63.4793 51.9375C62.646 53.5417 62.0627 55.75 62.2502 56.7292C62.4585 57.7708 63.1252 58.8958 63.8127 59.2916C64.4168 59.6458 64.4585 59.6458 65.7293 59.0208C67.3335 58.2292 67.771 57.9583 68.1252 57.5C68.2918 57.2708 68.6668 57.125 69.1252 57.125C69.7918 57.125 69.8335 57.1667 69.8127 57.8125C69.7918 58.1667 69.7502 58.3125 69.6877 58.1041C69.646 57.9166 69.521 57.75 69.4377 57.75C68.5835 57.75 63.2085 65.625 57.646 74.9375C54.0835 80.9375 53.396 82.0416 53.6877 81.25C53.896 80.7291 53.6252 80.375 53.271 80.6666C53.0418 80.8541 52.5002 80.8333 51.0418 80.5833C48.896 80.2292 45.6668 79.8333 44.771 79.8333C44.3752 79.8333 43.9585 80.0833 43.3752 80.7291C42.9168 81.2083 42.4793 81.6041 42.3752 81.6041C42.2918 81.625 42.0002 81.75 41.7293 81.8958C41.3335 82.1041 41.396 82.0208 41.9377 81.4583Z" fill="url(#paint61_linear_112_315)"/>
<path d="M65.4584 73.7916C65.6875 73.3333 65.9375 72.9583 65.9792 72.9583C66.0417 72.9583 65.8959 73.3333 65.6667 73.7916C65.4375 74.25 65.1875 74.625 65.1459 74.625C65.0834 74.625 65.2292 74.25 65.4584 73.7916Z" fill="url(#paint62_linear_112_315)"/>
<path d="M66.4999 71.9166C66.729 71.4583 66.979 71.0833 67.0207 71.0833C67.0832 71.0833 66.9374 71.4583 66.7082 71.9166C66.479 72.375 66.229 72.75 66.1874 72.75C66.1249 72.75 66.2707 72.375 66.4999 71.9166Z" fill="url(#paint63_linear_112_315)"/>
<path d="M67.3541 70.4166C67.8333 69.5208 69.9166 66.1875 70.6041 65.2291C70.9791 64.6875 71.2916 64.2083 71.2916 64.125C71.2916 64.0416 71.6666 63.4791 72.1249 62.875C72.5833 62.2708 72.9583 61.6041 72.9583 61.4166C72.9583 61.2291 73.0624 61.125 73.1666 61.1875C73.3541 61.3125 73.4583 60.9791 73.4374 60.3125C73.4166 60.1666 73.5208 60.0416 73.6249 60.0416C73.9166 60.0416 74.4166 59.4791 74.2708 59.3333C74.0624 59.125 73.7499 59.1875 73.8958 59.4166C73.9791 59.5416 73.7708 59.5625 73.3541 59.4791C72.8958 59.3958 72.7291 59.4166 72.8124 59.5833C72.9166 59.7083 72.8124 59.75 72.5416 59.6875C71.9999 59.5416 71.9999 59 72.5416 59C72.7708 59 72.9583 58.9166 72.9583 58.7916C72.9583 58.6875 73.0624 58.5833 73.1874 58.5833C73.3124 58.5833 73.9583 58.3333 74.6249 58.0416C75.2916 57.75 77.7162 56.581 77.8278 56.4516C78.1406 56.0896 80.8376 53.5614 76.1454 58.4337C75.9522 58.6343 74.0645 60.9354 73.8199 61.2025C73.0487 62.0452 73.8283 60.9941 73.8124 61.0416C73.7916 61.125 73.1874 61.9791 72.4583 62.9583C70.9166 65.0416 69.4166 67.25 68.1874 69.375C67.6874 70.1875 67.2499 70.875 67.2083 70.875C67.1458 70.875 67.2291 70.6666 67.3541 70.4166Z" fill="url(#paint64_linear_112_315)"/>
<path d="M48.6457 54.3542C48.7707 54.0208 46.7915 53.8958 46.3748 54.2292C46.1457 54.4167 46.0832 54.3958 46.0832 54.1875C46.0832 53.9583 46.0415 53.9583 45.9165 54.1458C45.7707 54.3542 45.6248 54.3542 45.1873 54.1458C44.479 53.8333 43.9288 52.3944 43.9998 50.6458C44.1169 47.7667 46.1161 46.0965 47.4453 45.9788C48.4134 45.8929 49.2605 45.9704 49.8848 46.6685C50.5092 47.3667 50.6869 47.6263 50.6665 48.5833C50.6505 49.3331 50.479 50.0625 50.0623 50.9792C49.729 51.7083 49.3332 52.8125 49.1665 53.4583C49.0207 54.1042 48.8123 54.625 48.729 54.625C48.6248 54.625 48.5832 54.5 48.6457 54.3542Z" fill="url(#paint65_linear_112_315)"/>
<path d="M55.2915 50.2083C54.7915 49.6041 54.354 47.375 54.354 45.4583C54.3332 43.2916 54.6457 41.5416 55.3123 39.9375C55.8123 38.7083 57.479 36.0833 57.7707 36.0833C57.8748 36.0833 57.9582 36.4166 57.9582 36.8125C57.9582 37.4166 57.8748 37.5416 57.4998 37.5416C57.1457 37.5416 57.104 37.6041 57.2915 37.7916C57.4373 37.9375 57.5415 38.2083 57.5415 38.4166C57.5415 39.3541 61.7082 41.3125 64.4998 41.6875C66.0832 41.9166 66.1665 41.8958 67.0415 41.3958C67.5207 41.1041 68.2082 40.875 68.5623 40.875C69.1665 40.875 69.2082 40.8125 69.2082 40.1458C69.2082 39.6666 69.3123 39.4166 69.4998 39.4166C69.6457 39.4166 69.8332 39.1458 69.9165 38.7916C70.0207 38.2708 70.1248 38.1666 70.6665 38.1666C70.9998 38.1666 70.8023 36.02 70.8023 36.1241C71.715 36.0129 70.325 39.8579 68.1609 41.2723C67.9109 41.3764 69.2923 40.9919 69.2507 41.2002C69.1048 41.7002 66.8123 43.2083 64.8748 44C60.6248 45.7708 57.4373 47.875 56.2915 49.7291C55.8123 50.5208 55.6248 50.6041 55.2915 50.2083Z" fill="url(#paint66_linear_112_315)"/>
<path d="M69.6252 58.0625C69.6252 57.6875 69.1877 57.6459 68.8335 58C68.646 58.1875 68.5835 58.1042 68.5835 57.5834C68.5835 56.9584 68.6252 56.9167 69.3127 56.9167C70.0002 56.9167 70.0418 56.9584 70.0418 57.6459C70.0418 58.0417 69.9585 58.375 69.8335 58.375C69.7293 58.375 69.6252 58.2292 69.6252 58.0625Z" fill="#59E9FE"/>
<path d="M64.3125 42.3959C63.2917 42.25 61.7917 41.8959 60.9792 41.6042C58.9792 40.875 56.9792 39.5834 56.875 38.9584C56.8333 38.6875 56.7083 38.4792 56.5625 38.4792C56.4375 38.4792 56.2244 38.9248 56.141 38.8415C56.0592 38.7379 56.1871 38.1938 56.2708 38.1667C56.3546 38.1396 56.44 38.0709 56.4167 37.9792C56.3933 37.8875 56.6275 37.5692 56.8125 37.25C57.0269 36.8802 57.276 36.5815 57.3333 36.5209C57.5029 36.3413 58.0833 35.6667 58.4583 35.6667C58.6667 35.6667 59.2292 35.9584 59.75 36.3125C61.2292 37.3125 63.2292 38.1667 64.6667 38.3959C65.8125 38.5834 66.2292 38.5417 68.0208 38.0625C69.125 37.7709 70.2708 37.5417 70.5625 37.5417C71.0208 37.5417 71.0833 37.625 71.0833 38.2917C71.0833 38.7292 71 38.9792 70.875 38.8959C70.7708 38.8334 70.6667 38.8334 70.6458 38.9375C70.6458 39.0209 70.6042 39.3125 70.5833 39.5834C70.5417 39.8542 70.0208 40.5625 69.4167 41.1459C68.8125 41.75 68.375 42.0625 68.4583 41.8542C68.5833 41.5 68.5417 41.5 67.8958 41.8959C66.7292 42.625 66.2917 42.6875 64.3125 42.3959Z" fill="url(#paint67_linear_112_315)"/>
<path d="M78.6874 36.7083C76.3749 35.5625 75.9453 32.2175 78.0208 30.6458C78.6903 30.1387 80.4345 29.5308 80.9466 29.9508C81.4674 30.4925 81.3126 30.7858 82.6043 30.7233C82.5999 30.6873 83.5951 31.4571 83.6874 32.2083C84.8749 35.3125 81.6666 38.1875 78.6874 36.7083Z" fill="url(#paint68_linear_112_315)"/>
<path d="M63.7294 39C62.5627 38.7917 60.4586 37.8542 59.0836 36.8958C58.2711 36.3333 58.0419 36.2708 57.7294 36.4792C56.8961 36.9792 57.3961 36.2708 58.6461 35.1458C60.4377 33.5208 62.8336 32.3542 64.7502 32.1875C68.4794 31.875 70.8077 34.1119 71.2542 37.2469C71.3513 37.9281 70.8511 39.625 70.4356 39.8783C70.0202 40.1317 70.0742 39.7592 70.0742 39.6342C70.0742 39.53 70.3296 39.1088 70.2254 39.2754C70.0588 39.5254 70.4586 39.1875 70.4586 38.7708V38.2292L68.5627 38.7083C66.6044 39.2292 65.4794 39.2917 63.7294 39Z" fill="url(#paint69_linear_112_315)"/>
<path d="M83.2914 32.1875C83.2081 32.0834 82.3956 32.0209 81.4998 32.0209C80.0206 32.0209 79.8331 31.9792 79.3123 31.4584C78.9998 31.125 78.5415 30.875 78.3123 30.875C77.6873 30.875 78.2289 30.3334 79.1664 30.0209C80.1873 29.6875 80.8956 29.7292 81.854 30.2084C82.7915 30.7084 83.3539 31.2709 83.4789 31.8959C83.5623 32.375 83.5414 32.4167 83.2914 32.1875Z" fill="url(#paint70_linear_112_315)"/>
<path d="M70.2919 59C70.0211 58.75 69.7086 58.3125 69.6044 58.0208C69.4377 57.5833 68.4009 58.1077 68.1509 58.316C67.88 58.5452 68.7919 57.9166 68.7919 57.4166C68.7919 56.9375 69.2086 56.3541 70.7086 54.75C73.3127 51.9583 74.4377 51.0833 75.4586 51.0833C76.1877 51.0833 76.2502 51.125 76.3752 51.875C76.6877 53.7916 76.2919 56.4791 75.5836 57.1875C75.4169 57.3333 75.3336 57.7083 75.3961 57.9791C75.4794 58.4375 75.3752 58.5625 74.5836 58.875C74.0836 59.0833 73.0419 59.2916 72.2294 59.3541C70.9377 59.4375 70.7086 59.3958 70.2919 59Z" fill="url(#paint71_linear_112_315)"/>
<path d="M74.7498 58.5417C74.854 58.3958 74.7915 58.3542 74.5623 58.4375C74.354 58.5208 74.2707 58.4792 74.3123 58.3125C74.3748 58.1667 74.4582 57.8125 74.4998 57.4792C74.5623 57.1667 74.7498 56.7708 74.9165 56.5833C75.604 55.8958 76.1665 52.9583 75.6457 52.625C75.5207 52.5625 75.4582 52.3125 75.5207 52.1042C75.5832 51.875 75.5415 51.7083 75.4582 51.7083C75.0832 51.7083 73.1665 53.4167 71.3332 55.375L69.4165 57.4375V56.6875C69.4165 55.8333 69.729 55.4583 70.3957 55.4583C70.7707 55.4583 70.8748 55.3542 70.8748 54.875C70.8748 54.4583 71.1665 54 71.979 53.2083C72.5832 52.6042 73.1248 52.125 73.1873 52.125C73.2498 52.125 73.729 51.7292 74.2498 51.25C76.2498 49.3958 79.0623 48.1042 81.6665 47.8542C83.0623 47.7083 83.1665 47.7292 83.6665 48.2292C84.2707 48.8333 84.5207 49.6042 84.3332 50.3333C84.2707 50.625 83.4373 51.5417 82.4998 52.375C81.5415 53.2083 79.7915 54.8542 78.5832 56.0208C77.354 57.2083 76.0415 58.2708 75.5832 58.4583C74.6248 58.8542 74.5623 58.8542 74.7498 58.5417Z" fill="url(#paint72_linear_112_315)"/>
<path d="M63.6043 60.0625C62.7502 59.8333 61.9168 58.5625 61.7293 57.25C61.4168 54.8958 62.3335 51.7083 63.8752 49.875C65.0002 48.5625 69.2918 46.5 72.3543 45.7917C76.8127 44.7708 80.8543 45.4167 83.021 47.5C83.9585 48.3958 84.4168 49.1875 84.4168 49.9167C84.4168 50.4583 83.9377 51.0833 83.521 51.0833C83.3752 51.0625 83.4793 50.8958 83.7502 50.6875C84.3127 50.1875 84.3335 49.625 83.7918 49C83.4585 48.6042 83.1877 48.5208 82.2293 48.5417C78.9377 48.5625 74.9377 51.125 70.8335 55.8125C68.7918 58.125 67.0418 59.5 65.5002 59.9583C64.4793 60.2708 64.3543 60.2708 63.6043 60.0625Z" fill="url(#paint73_linear_112_315)"/>
</g>
<defs>
<filter id="filter0_i_112_315" x="8" y="8" width="112" height="116" filterUnits="userSpaceOnUse" color-interpolation-filters="sRGB">
<feFlood flood-opacity="0" result="BackgroundImageFix"/>
<feBlend mode="normal" in="SourceGraphic" in2="BackgroundImageFix" result="shape"/>
<feColorMatrix in="SourceAlpha" type="matrix" values="0 0 0 0 0 0 0 0 0 0 0 0 0 0 0 0 0 0 127 0" result="hardAlpha"/>
<feOffset dy="4"/>
<feGaussianBlur stdDeviation="2"/>
<feComposite in2="hardAlpha" operator="arithmetic" k2="-1" k3="1"/>
<feColorMatrix type="matrix" values="0 0 0 0 0 0 0 0 0 0 0 0 0 0 0 0 0 0 0.25 0"/>
<feBlend mode="normal" in2="shape" result="effect1_innerShadow_112_315"/>
</filter>
<linearGradient id="paint0_linear_112_315" x1="0" y1="0" x2="151.675" y2="86.4737" gradientUnits="userSpaceOnUse">
<stop stop-color="#00CCE6"/>
<stop offset="1" stop-color="#0082E7"/>
</linearGradient>
<linearGradient id="paint1_linear_112_315" x1="39.5707" y1="38.4314" x2="43.8568" y2="31.0529" gradientUnits="userSpaceOnUse">
<stop stop-color="#1964E7"/>
<stop offset="1" stop-color="#6884F2"/>
</linearGradient>
<linearGradient id="paint2_linear_112_315" x1="24.9765" y1="31.1072" x2="29.2625" y2="38.4857" gradientUnits="userSpaceOnUse">
<stop stop-color="#00CCE6"/>
<stop offset="1" stop-color="#0082E7"/>
</linearGradient>
<radialGradient id="paint3_radial_112_315" cx="0" cy="0" r="1" gradientUnits="userSpaceOnUse" gradientTransform="translate(40.7101 37.3464) scale(6.23915)">
<stop offset="0.23" stop-color="#00CDFF"/>
<stop offset="0.49" stop-color="#00BCFA"/>
<stop offset="0.77" stop-color="#00ABF8"/>
<stop offset="1" stop-color="#0098F7"/>
</radialGradient>
<radialGradient id="paint4_radial_112_315" cx="0" cy="0" r="1" gradientUnits="userSpaceOnUse" gradientTransform="translate(40.7101 37.3464) scale(6.23915 6.23915)">
<stop offset="0.23" stop-color="#00CDFF"/>
<stop offset="0.49" stop-color="#00BCFA"/>
<stop offset="0.77" stop-color="#00ABF8"/>
<stop offset="1" stop-color="#0098F7"/>
</radialGradient>
<radialGradient id="paint5_radial_112_315" cx="0" cy="0" r="1" gradientUnits="userSpaceOnUse" gradientTransform="translate(40.7102 37.3464) scale(6.23915)">
<stop offset="0.23" stop-color="#00CDFF"/>
<stop offset="0.49" stop-color="#00BCFA"/>
<stop offset="0.77" stop-color="#00ABF8"/>
<stop offset="1" stop-color="#0098F7"/>
</radialGradient>
<radialGradient id="paint6_radial_112_315" cx="0" cy="0" r="1" gradientUnits="userSpaceOnUse" gradientTransform="translate(40.7099 37.3463) scale(6.23915)">
<stop offset="0.23" stop-color="#00CDFF"/>
<stop offset="0.49" stop-color="#00BCFA"/>
<stop offset="0.77" stop-color="#00ABF8"/>
<stop offset="1" stop-color="#0098F7"/>
</radialGradient>
<radialGradient id="paint7_radial_112_315" cx="0" cy="0" r="1" gradientUnits="userSpaceOnUse" gradientTransform="translate(40.71 37.3464) scale(6.23915 6.23914)">
<stop offset="0.23" stop-color="#00CDFF"/>
<stop offset="0.49" stop-color="#00BCFA"/>
<stop offset="0.77" stop-color="#00ABF8"/>
<stop offset="1" stop-color="#0098F7"/>
</radialGradient>
<radialGradient id="paint8_radial_112_315" cx="0" cy="0" r="1" gradientUnits="userSpaceOnUse" gradientTransform="translate(40.7099 37.3464) scale(6.23915 6.23915)">
<stop offset="0.23" stop-color="#00CDFF"/>
<stop offset="0.49" stop-color="#00BCFA"/>
<stop offset="0.77" stop-color="#00ABF8"/>
<stop offset="1" stop-color="#0098F7"/>
</radialGradient>
<radialGradient id="paint9_radial_112_315" cx="0" cy="0" r="1" gradientUnits="userSpaceOnUse" gradientTransform="translate(40.7099 37.3463) scale(6.23915 6.23915)">
<stop offset="0.23" stop-color="#00CDFF"/>
<stop offset="0.49" stop-color="#00BCFA"/>
<stop offset="0.77" stop-color="#00ABF8"/>
<stop offset="1" stop-color="#0098F7"/>
</radialGradient>
<radialGradient id="paint10_radial_112_315" cx="0" cy="0" r="1" gradientUnits="userSpaceOnUse" gradientTransform="translate(40.7101 37.3463) scale(6.23915)">
<stop offset="0.23" stop-color="#00CDFF"/>
<stop offset="0.49" stop-color="#00BCFA"/>
<stop offset="0.77" stop-color="#00ABF8"/>
<stop offset="1" stop-color="#0098F7"/>
</radialGradient>
<radialGradient id="paint11_radial_112_315" cx="0" cy="0" r="1" gradientUnits="userSpaceOnUse" gradientTransform="translate(40.7103 37.3464) scale(6.23914 6.23915)">
<stop offset="0.23" stop-color="#00CDFF"/>
<stop offset="0.49" stop-color="#00BCFA"/>
<stop offset="0.77" stop-color="#00ABF8"/>
<stop offset="1" stop-color="#0098F7"/>
</radialGradient>
<radialGradient id="paint12_radial_112_315" cx="0" cy="0" r="1" gradientUnits="userSpaceOnUse" gradientTransform="translate(40.71 37.3464) scale(6.23914 6.23915)">
<stop offset="0.23" stop-color="#00CDFF"/>
<stop offset="0.49" stop-color="#00BCFA"/>
<stop offset="0.77" stop-color="#00ABF8"/>
<stop offset="1" stop-color="#0098F7"/>
</radialGradient>
<linearGradient id="paint13_linear_112_315" x1="24.9767" y1="31.1072" x2="29.2627" y2="38.4857" gradientUnits="userSpaceOnUse">
<stop stop-color="#00CCE6"/>
<stop offset="1" stop-color="#0082E7"/>
</linearGradient>
<linearGradient id="paint14_linear_112_315" x1="24.9767" y1="31.1072" x2="29.2627" y2="38.4857" gradientUnits="userSpaceOnUse">
<stop stop-color="#00CCE6"/>
<stop offset="1" stop-color="#0082E7"/>
</linearGradient>
<linearGradient id="paint15_linear_112_315" x1="30.0764" y1="33.4401" x2="34.4167" y2="40.9271" gradientUnits="userSpaceOnUse">
<stop stop-color="#0CF4FF"/>
<stop offset="0.28" stop-color="#04EEFE"/>
<stop offset="1" stop-color="#00B1F7"/>
</linearGradient>
<linearGradient id="paint16_linear_112_315" x1="24.9764" y1="31.1072" x2="29.2624" y2="38.4857" gradientUnits="userSpaceOnUse">
<stop stop-color="#00CCE6"/>
<stop offset="1" stop-color="#0082E7"/>
</linearGradient>
<radialGradient id="paint17_radial_112_315" cx="0" cy="0" r="1" gradientUnits="userSpaceOnUse" gradientTransform="translate(40.71 37.3464) scale(6.23915)">
<stop offset="0.23" stop-color="#00CDFF"/>
<stop offset="0.49" stop-color="#00BCFA"/>
<stop offset="0.77" stop-color="#00ABF8"/>
<stop offset="1" stop-color="#0098F7"/>
</radialGradient>
<radialGradient id="paint18_radial_112_315" cx="0" cy="0" r="1" gradientUnits="userSpaceOnUse" gradientTransform="translate(40.7101 37.3464) scale(6.23914)">
<stop offset="0.23" stop-color="#00CDFF"/>
<stop offset="0.49" stop-color="#00BCFA"/>
<stop offset="0.77" stop-color="#00ABF8"/>
<stop offset="1" stop-color="#0098F7"/>
</radialGradient>
<radialGradient id="paint19_radial_112_315" cx="0" cy="0" r="1" gradientUnits="userSpaceOnUse" gradientTransform="translate(40.7101 37.3463) scale(6.23915 6.23915)">
<stop offset="0.23" stop-color="#00CDFF"/>
<stop offset="0.49" stop-color="#00BCFA"/>
<stop offset="0.77" stop-color="#00ABF8"/>
<stop offset="1" stop-color="#0098F7"/>
</radialGradient>
<radialGradient id="paint20_radial_112_315" cx="0" cy="0" r="1" gradientUnits="userSpaceOnUse" gradientTransform="translate(40.7099 37.3463) scale(6.23915 6.23916)">
<stop offset="0.23" stop-color="#00CDFF"/>
<stop offset="0.49" stop-color="#00BCFA"/>
<stop offset="0.77" stop-color="#00ABF8"/>
<stop offset="1" stop-color="#0098F7"/>
</radialGradient>
<radialGradient id="paint21_radial_112_315" cx="0" cy="0" r="1" gradientUnits="userSpaceOnUse" gradientTransform="translate(40.7101 37.3463) scale(6.23917 6.23916)">
<stop offset="0.23" stop-color="#00CDFF"/>
<stop offset="0.49" stop-color="#00BCFA"/>
<stop offset="0.77" stop-color="#00ABF8"/>
<stop offset="1" stop-color="#0098F7"/>
</radialGradient>
<radialGradient id="paint22_radial_112_315" cx="0" cy="0" r="1" gradientUnits="userSpaceOnUse" gradientTransform="translate(40.7101 37.3463) scale(6.23915 6.23916)">
<stop offset="0.23" stop-color="#00CDFF"/>
<stop offset="0.49" stop-color="#00BCFA"/>
<stop offset="0.77" stop-color="#00ABF8"/>
<stop offset="1" stop-color="#0098F7"/>
</radialGradient>
<radialGradient id="paint23_radial_112_315" cx="0" cy="0" r="1" gradientUnits="userSpaceOnUse" gradientTransform="translate(40.7102 37.3464) scale(6.23915 6.23915)">
<stop offset="0.23" stop-color="#00CDFF"/>
<stop offset="0.49" stop-color="#00BCFA"/>
<stop offset="0.77" stop-color="#00ABF8"/>
<stop offset="1" stop-color="#0098F7"/>
</radialGradient>
<radialGradient id="paint24_radial_112_315" cx="0" cy="0" r="1" gradientUnits="userSpaceOnUse" gradientTransform="translate(40.71 37.3464) scale(6.23914 6.23914)">
<stop offset="0.23" stop-color="#00CDFF"/>
<stop offset="0.49" stop-color="#00BCFA"/>
<stop offset="0.77" stop-color="#00ABF8"/>
<stop offset="1" stop-color="#0098F7"/>
</radialGradient>
<linearGradient id="paint25_linear_112_315" x1="24.9764" y1="31.1073" x2="29.2624" y2="38.4858" gradientUnits="userSpaceOnUse">
<stop stop-color="#00CCE6"/>
<stop offset="1" stop-color="#0082E7"/>
</linearGradient>
<linearGradient id="paint26_linear_112_315" x1="24.9766" y1="31.1072" x2="29.2627" y2="38.4857" gradientUnits="userSpaceOnUse">
<stop stop-color="#00CCE6"/>
<stop offset="1" stop-color="#0082E7"/>
</linearGradient>
<linearGradient id="paint27_linear_112_315" x1="30.0766" y1="33.4401" x2="34.4168" y2="40.9271" gradientUnits="userSpaceOnUse">
<stop stop-color="#0CF4FF"/>
<stop offset="0.28" stop-color="#04EEFE"/>
<stop offset="1" stop-color="#00B1F7"/>
</linearGradient>
<radialGradient id="paint28_radial_112_315" cx="0" cy="0" r="1" gradientUnits="userSpaceOnUse" gradientTransform="translate(40.7102 37.3463) scale(6.23915)">
<stop offset="0.23" stop-color="#00CDFF"/>
<stop offset="0.49" stop-color="#00BCFA"/>
<stop offset="0.77" stop-color="#00ABF8"/>
<stop offset="1" stop-color="#0098F7"/>
</radialGradient>
<radialGradient id="paint29_radial_112_315" cx="0" cy="0" r="1" gradientUnits="userSpaceOnUse" gradientTransform="translate(40.71 37.3463) scale(6.23915)">
<stop offset="0.23" stop-color="#00CDFF"/>
<stop offset="0.49" stop-color="#00BCFA"/>
<stop offset="0.77" stop-color="#00ABF8"/>
<stop offset="1" stop-color="#0098F7"/>
</radialGradient>
<radialGradient id="paint30_radial_112_315" cx="0" cy="0" r="1" gradientUnits="userSpaceOnUse" gradientTransform="translate(40.71 37.3463) scale(6.23915 6.23915)">
<stop offset="0.23" stop-color="#00CDFF"/>
<stop offset="0.49" stop-color="#00BCFA"/>
<stop offset="0.77" stop-color="#00ABF8"/>
<stop offset="1" stop-color="#0098F7"/>
</radialGradient>
<radialGradient id="paint31_radial_112_315" cx="0" cy="0" r="1" gradientUnits="userSpaceOnUse" gradientTransform="translate(40.7102 37.3464) scale(6.23915 6.23915)">
<stop offset="0.23" stop-color="#00CDFF"/>
<stop offset="0.49" stop-color="#00BCFA"/>
<stop offset="0.77" stop-color="#00ABF8"/>
<stop offset="1" stop-color="#0098F7"/>
</radialGradient>
<radialGradient id="paint32_radial_112_315" cx="0" cy="0" r="1" gradientUnits="userSpaceOnUse" gradientTransform="translate(40.7099 37.3463) scale(6.23915 6.23916)">
<stop offset="0.23" stop-color="#00CDFF"/>
<stop offset="0.49" stop-color="#00BCFA"/>
<stop offset="0.77" stop-color="#00ABF8"/>
<stop offset="1" stop-color="#0098F7"/>
</radialGradient>
<radialGradient id="paint33_radial_112_315" cx="0" cy="0" r="1" gradientUnits="userSpaceOnUse" gradientTransform="translate(40.7099 37.3464) scale(6.23916 6.23915)">
<stop offset="0.23" stop-color="#00CDFF"/>
<stop offset="0.49" stop-color="#00BCFA"/>
<stop offset="0.77" stop-color="#00ABF8"/>
<stop offset="1" stop-color="#0098F7"/>
</radialGradient>
<radialGradient id="paint34_radial_112_315" cx="0" cy="0" r="1" gradientUnits="userSpaceOnUse" gradientTransform="translate(40.71 37.3464) scale(6.23915 6.23915)">
<stop offset="0.23" stop-color="#00CDFF"/>
<stop offset="0.49" stop-color="#00BCFA"/>
<stop offset="0.77" stop-color="#00ABF8"/>
<stop offset="1" stop-color="#0098F7"/>
</radialGradient>
<radialGradient id="paint35_radial_112_315" cx="0" cy="0" r="1" gradientUnits="userSpaceOnUse" gradientTransform="translate(40.7103 37.3464) scale(6.23914 6.23915)">
<stop offset="0.23" stop-color="#00CDFF"/>
<stop offset="0.49" stop-color="#00BCFA"/>
<stop offset="0.77" stop-color="#00ABF8"/>
<stop offset="1" stop-color="#0098F7"/>
</radialGradient>
<radialGradient id="paint36_radial_112_315" cx="0" cy="0" r="1" gradientUnits="userSpaceOnUse" gradientTransform="translate(40.71 37.3463) scale(6.23913 6.23915)">
<stop offset="0.23" stop-color="#00CDFF"/>
<stop offset="0.49" stop-color="#00BCFA"/>
<stop offset="0.77" stop-color="#00ABF8"/>
<stop offset="1" stop-color="#0098F7"/>
</radialGradient>
<radialGradient id="paint37_radial_112_315" cx="0" cy="0" r="1" gradientUnits="userSpaceOnUse" gradientTransform="translate(40.7102 37.3464) scale(6.23914 6.23914)">
<stop offset="0.23" stop-color="#00CDFF"/>
<stop offset="0.49" stop-color="#00BCFA"/>
<stop offset="0.77" stop-color="#00ABF8"/>
<stop offset="1" stop-color="#0098F7"/>
</radialGradient>
<radialGradient id="paint38_radial_112_315" cx="0" cy="0" r="1" gradientUnits="userSpaceOnUse" gradientTransform="translate(40.7103 37.3464) scale(6.23914 6.23914)">
<stop offset="0.23" stop-color="#00CDFF"/>
<stop offset="0.49" stop-color="#00BCFA"/>
<stop offset="0.77" stop-color="#00ABF8"/>
<stop offset="1" stop-color="#0098F7"/>
</radialGradient>
<radialGradient id="paint39_radial_112_315" cx="0" cy="0" r="1" gradientUnits="userSpaceOnUse" gradientTransform="translate(40.71 37.3464) scale(6.23914 6.23915)">
<stop offset="0.23" stop-color="#00CDFF"/>
<stop offset="0.49" stop-color="#00BCFA"/>
<stop offset="0.77" stop-color="#00ABF8"/>
<stop offset="1" stop-color="#0098F7"/>
</radialGradient>
<linearGradient id="paint40_linear_112_315" x1="39.5707" y1="38.4314" x2="43.8567" y2="31.053" gradientUnits="userSpaceOnUse">
<stop stop-color="#1964E7"/>
<stop offset="1" stop-color="#6884F2"/>
</linearGradient>
<linearGradient id="paint41_linear_112_315" x1="24.9764" y1="31.1072" x2="29.2624" y2="38.4857" gradientUnits="userSpaceOnUse">
<stop stop-color="#00CCE6"/>
<stop offset="1" stop-color="#0082E7"/>
</linearGradient>
<linearGradient id="paint42_linear_112_315" x1="30.0763" y1="33.4401" x2="34.4165" y2="40.9271" gradientUnits="userSpaceOnUse">
<stop stop-color="#0CF4FF"/>
<stop offset="0.28" stop-color="#04EEFE"/>
<stop offset="1" stop-color="#00B1F7"/>
</linearGradient>
<radialGradient id="paint43_radial_112_315" cx="0" cy="0" r="1" gradientUnits="userSpaceOnUse" gradientTransform="translate(40.7102 37.3464) scale(6.23915 6.23915)">
<stop offset="0.23" stop-color="#00CDFF"/>
<stop offset="0.49" stop-color="#00BCFA"/>
<stop offset="0.77" stop-color="#00ABF8"/>
<stop offset="1" stop-color="#0098F7"/>
</radialGradient>
<radialGradient id="paint44_radial_112_315" cx="0" cy="0" r="1" gradientUnits="userSpaceOnUse" gradientTransform="translate(40.7102 37.3464) scale(6.23915)">
<stop offset="0.23" stop-color="#00CDFF"/>
<stop offset="0.49" stop-color="#00BCFA"/>
<stop offset="0.77" stop-color="#00ABF8"/>
<stop offset="1" stop-color="#0098F7"/>
</radialGradient>
<radialGradient id="paint45_radial_112_315" cx="0" cy="0" r="1" gradientUnits="userSpaceOnUse" gradientTransform="translate(40.7099 37.3464) scale(6.23915 6.23914)">
<stop offset="0.23" stop-color="#00CDFF"/>
<stop offset="0.49" stop-color="#00BCFA"/>
<stop offset="0.77" stop-color="#00ABF8"/>
<stop offset="1" stop-color="#0098F7"/>
</radialGradient>
<radialGradient id="paint46_radial_112_315" cx="0" cy="0" r="1" gradientUnits="userSpaceOnUse" gradientTransform="translate(40.7101 37.3464) scale(6.23915)">
<stop offset="0.23" stop-color="#00CDFF"/>
<stop offset="0.49" stop-color="#00BCFA"/>
<stop offset="0.77" stop-color="#00ABF8"/>
<stop offset="1" stop-color="#0098F7"/>
</radialGradient>
<radialGradient id="paint47_radial_112_315" cx="0" cy="0" r="1" gradientUnits="userSpaceOnUse" gradientTransform="translate(40.7101 37.3463) scale(6.23915 6.23915)">
<stop offset="0.23" stop-color="#00CDFF"/>
<stop offset="0.49" stop-color="#00BCFA"/>
<stop offset="0.77" stop-color="#00ABF8"/>
<stop offset="1" stop-color="#0098F7"/>
</radialGradient>
<radialGradient id="paint48_radial_112_315" cx="0" cy="0" r="1" gradientUnits="userSpaceOnUse" gradientTransform="translate(40.7103 37.3464) scale(6.23914 6.23915)">
<stop offset="0.23" stop-color="#00CDFF"/>
<stop offset="0.49" stop-color="#00BCFA"/>
<stop offset="0.77" stop-color="#00ABF8"/>
<stop offset="1" stop-color="#0098F7"/>
</radialGradient>
<radialGradient id="paint49_radial_112_315" cx="0" cy="0" r="1" gradientUnits="userSpaceOnUse" gradientTransform="translate(40.7099 37.3464) scale(6.23915)">
<stop offset="0.23" stop-color="#00CDFF"/>
<stop offset="0.49" stop-color="#00BCFA"/>
<stop offset="0.77" stop-color="#00ABF8"/>
<stop offset="1" stop-color="#0098F7"/>
</radialGradient>
<linearGradient id="paint50_linear_112_315" x1="24.9764" y1="31.1072" x2="29.2624" y2="38.4857" gradientUnits="userSpaceOnUse">
<stop stop-color="#00CCE6"/>
<stop offset="1" stop-color="#0082E7"/>
</linearGradient>
<linearGradient id="paint51_linear_112_315" x1="24.9765" y1="31.1072" x2="29.2626" y2="38.4857" gradientUnits="userSpaceOnUse">
<stop stop-color="#00CCE6"/>
<stop offset="1" stop-color="#0082E7"/>
</linearGradient>
<linearGradient id="paint52_linear_112_315" x1="30.0765" y1="33.4401" x2="34.4167" y2="40.9271" gradientUnits="userSpaceOnUse">
<stop stop-color="#0CF4FF"/>
<stop offset="0.28" stop-color="#04EEFE"/>
<stop offset="1" stop-color="#00B1F7"/>
</linearGradient>
<radialGradient id="paint53_radial_112_315" cx="0" cy="0" r="1" gradientUnits="userSpaceOnUse" gradientTransform="translate(40.7102 37.3463) scale(6.23915)">
<stop offset="0.23" stop-color="#00CDFF"/>
<stop offset="0.49" stop-color="#00BCFA"/>
<stop offset="0.77" stop-color="#00ABF8"/>
<stop offset="1" stop-color="#0098F7"/>
</radialGradient>
<radialGradient id="paint54_radial_112_315" cx="0" cy="0" r="1" gradientUnits="userSpaceOnUse" gradientTransform="translate(40.71 37.3464) scale(6.23915 6.23915)">
<stop offset="0.23" stop-color="#00CDFF"/>
<stop offset="0.49" stop-color="#00BCFA"/>
<stop offset="0.77" stop-color="#00ABF8"/>
<stop offset="1" stop-color="#0098F7"/>
</radialGradient>
<radialGradient id="paint55_radial_112_315" cx="0" cy="0" r="1" gradientUnits="userSpaceOnUse" gradientTransform="translate(40.7099 37.3464) scale(6.23915 6.23915)">
<stop offset="0.23" stop-color="#00CDFF"/>
<stop offset="0.49" stop-color="#00BCFA"/>
<stop offset="0.77" stop-color="#00ABF8"/>
<stop offset="1" stop-color="#0098F7"/>
</radialGradient>
<linearGradient id="paint56_linear_112_315" x1="30.0764" y1="33.4402" x2="34.4167" y2="40.9272" gradientUnits="userSpaceOnUse">
<stop stop-color="#0CF4FF"/>
<stop offset="0.28" stop-color="#04EEFE"/>
<stop offset="1" stop-color="#00B1F7"/>
</linearGradient>
<radialGradient id="paint57_radial_112_315" cx="0" cy="0" r="1" gradientUnits="userSpaceOnUse" gradientTransform="translate(40.7099 37.3464) scale(6.23916 6.23914)">
<stop offset="0.23" stop-color="#00CDFF"/>
<stop offset="0.49" stop-color="#00BCFA"/>
<stop offset="0.77" stop-color="#00ABF8"/>
<stop offset="1" stop-color="#0098F7"/>
</radialGradient>
<linearGradient id="paint58_linear_112_315" x1="39.5708" y1="38.4314" x2="43.8569" y2="31.0529" gradientUnits="userSpaceOnUse">
<stop stop-color="#1964E7"/>
<stop offset="1" stop-color="#6884F2"/>
</linearGradient>
<linearGradient id="paint59_linear_112_315" x1="30.0763" y1="33.4401" x2="34.4166" y2="40.9271" gradientUnits="userSpaceOnUse">
<stop stop-color="#0CF4FF"/>
<stop offset="0.28" stop-color="#04EEFE"/>
<stop offset="1" stop-color="#00B1F7"/>
</linearGradient>
<linearGradient id="paint60_linear_112_315" x1="30.0764" y1="29.9136" x2="30.0764" y2="32.4635" gradientUnits="userSpaceOnUse">
<stop stop-color="#40FAFD"/>
<stop offset="1" stop-color="#00E0FF"/>
</linearGradient>
<linearGradient id="paint61_linear_112_315" x1="30.0766" y1="33.4401" x2="34.4168" y2="40.9271" gradientUnits="userSpaceOnUse">
<stop stop-color="#0CF4FF"/>
<stop offset="0.28" stop-color="#04EEFE"/>
<stop offset="1" stop-color="#00B1F7"/>
</linearGradient>
<linearGradient id="paint62_linear_112_315" x1="30.0764" y1="33.4401" x2="34.4167" y2="40.9271" gradientUnits="userSpaceOnUse">
<stop stop-color="#0CF4FF"/>
<stop offset="0.28" stop-color="#04EEFE"/>
<stop offset="1" stop-color="#00B1F7"/>
</linearGradient>
<linearGradient id="paint63_linear_112_315" x1="30.0763" y1="33.4401" x2="34.4165" y2="40.9271" gradientUnits="userSpaceOnUse">
<stop stop-color="#0CF4FF"/>
<stop offset="0.28" stop-color="#04EEFE"/>
<stop offset="1" stop-color="#00B1F7"/>
</linearGradient>
<linearGradient id="paint64_linear_112_315" x1="30.0763" y1="33.4401" x2="34.4166" y2="40.9271" gradientUnits="userSpaceOnUse">
<stop stop-color="#0CF4FF"/>
<stop offset="0.28" stop-color="#04EEFE"/>
<stop offset="1" stop-color="#00B1F7"/>
</linearGradient>
<linearGradient id="paint65_linear_112_315" x1="30.0762" y1="29.9136" x2="30.0762" y2="32.4635" gradientUnits="userSpaceOnUse">
<stop stop-color="#40FAFD"/>
<stop offset="1" stop-color="#00E0FF"/>
</linearGradient>
<linearGradient id="paint66_linear_112_315" x1="34.091" y1="26.3329" x2="34.091" y2="30.6189" gradientUnits="userSpaceOnUse">
<stop stop-color="#8EF6FD"/>
<stop offset="1" stop-color="#2BE8FF"/>
</linearGradient>
<linearGradient id="paint67_linear_112_315" x1="34.0911" y1="26.3329" x2="34.0911" y2="30.6189" gradientUnits="userSpaceOnUse">
<stop stop-color="#8EF6FD"/>
<stop offset="1" stop-color="#2BE8FF"/>
</linearGradient>
<linearGradient id="paint68_linear_112_315" x1="38.6484" y1="25.6818" x2="38.6484" y2="27.1467" gradientUnits="userSpaceOnUse">
<stop stop-color="#92EEFE"/>
<stop offset="1" stop-color="#59E5FE"/>
</linearGradient>
<linearGradient id="paint69_linear_112_315" x1="34.0914" y1="26.3329" x2="34.0914" y2="30.6189" gradientUnits="userSpaceOnUse">
<stop stop-color="#8EF6FD"/>
<stop offset="1" stop-color="#2BE8FF"/>
</linearGradient>
<linearGradient id="paint70_linear_112_315" x1="38.6482" y1="25.6819" x2="38.6482" y2="27.1467" gradientUnits="userSpaceOnUse">
<stop stop-color="#92EEFE"/>
<stop offset="1" stop-color="#59E5FE"/>
</linearGradient>
<linearGradient id="paint71_linear_112_315" x1="35.8817" y1="29.9679" x2="37.5093" y2="32.7348" gradientUnits="userSpaceOnUse">
<stop stop-color="#A6FEFF"/>
<stop offset="0.53" stop-color="#BFFDFE"/>
<stop offset="1" stop-color="#97EDFF"/>
</linearGradient>
<linearGradient id="paint72_linear_112_315" x1="35.8813" y1="29.9679" x2="37.509" y2="32.7348" gradientUnits="userSpaceOnUse">
<stop stop-color="#A6FEFF"/>
<stop offset="0.53" stop-color="#BFFDFE"/>
<stop offset="1" stop-color="#97EDFF"/>
</linearGradient>
<linearGradient id="paint73_linear_112_315" x1="35.8817" y1="29.9679" x2="37.5093" y2="32.7348" gradientUnits="userSpaceOnUse">
<stop stop-color="#A6FEFF"/>
<stop offset="0.53" stop-color="#BFFDFE"/>
<stop offset="1" stop-color="#97EDFF"/>
</linearGradient>
</defs>
</svg>
