<svg width="128" height="128" viewBox="0 0 128 128" fill="none" xmlns="http://www.w3.org/2000/svg">
<rect width="128" height="128" rx="32" fill="url(#paint0_linear_141_441)"/>
<rect width="128" height="128" rx="32" fill="url(#paint1_linear_141_441)"/>
<g filter="url(#filter0_i_141_441)">
<rect x="8" y="8" width="112" height="112" rx="24" fill="black" fill-opacity="0.7"/>
<g clip-path="url(#clip0_141_441)">
<g filter="url(#filter1_d_141_441)">
<path d="M31.9451 99.4377L20.1143 29.312L41.9931 20.2332L55.9634 28.5349L68.7634 21.632L95.4331 31.872L80.4754 107.886L31.9451 99.4377Z" fill="url(#paint2_linear_141_441)"/>
</g>
<g filter="url(#filter2_d_141_441)">
<path d="M107.886 49.8377L96.5577 21.8605L76.0045 20.1143L44.2788 50.5965L52.8182 89.8834L68.7634 101.065L107.886 77.8514L98.2857 59.8491L107.886 49.8377Z" fill="url(#paint3_linear_141_441)"/>
</g>
<g filter="url(#filter3_d_141_441)">
<path d="M90.3042 45.6685L98.2859 59.8491L107.886 49.8377L100.837 32.4114L90.3042 45.6685Z" fill="url(#paint4_linear_141_441)"/>
</g>
<g filter="url(#filter4_d_141_441)">
<path d="M36.5713 36.5714H91.4284V91.4286H36.5713V36.5714Z" fill="black"/>
</g>
<path d="M43.4106 81.0605H63.9821V84.4891H43.4106V81.0605Z" fill="white"/>
<path d="M62.8847 43.4011L59.8219 55.4057L56.3202 43.4011H52.8367L49.3259 55.4057L46.2722 43.4011H41.4722L47.351 63.9817H51.2093L54.5739 52.0686L57.9019 63.9817H61.8059L67.6756 43.4011H62.8847Z" fill="white"/>
<path d="M68.5352 61.0469L71.214 57.8377C72.8968 59.3917 75.0865 60.2819 77.3763 60.3429C79.2049 60.3429 80.3569 59.6114 80.3569 58.3954V58.3406C80.3569 57.1886 79.6437 56.6034 76.1969 55.7166C72.0369 54.656 69.358 53.504 69.358 49.408V49.344C69.358 45.6046 72.366 43.1269 76.5809 43.1269C79.3632 43.0776 82.0746 44.0063 84.2426 45.7509L81.8837 49.1703C80.3424 47.9645 78.4704 47.2565 76.5169 47.1406C74.7797 47.1406 73.8654 47.936 73.8654 48.9691V49.0331C73.8654 50.3863 74.7797 50.8617 78.318 51.776C82.5054 52.8731 84.8643 54.3726 84.8643 57.9749V58.0297C84.8643 62.1257 81.7374 64.4297 77.2849 64.4297C74.0617 64.4424 70.9469 63.2674 68.5352 61.1291" fill="white"/>
</g>
</g>
<defs>
<filter id="filter0_i_141_441" x="8" y="8" width="112" height="116" filterUnits="userSpaceOnUse" color-interpolation-filters="sRGB">
<feFlood flood-opacity="0" result="BackgroundImageFix"/>
<feBlend mode="normal" in="SourceGraphic" in2="BackgroundImageFix" result="shape"/>
<feColorMatrix in="SourceAlpha" type="matrix" values="0 0 0 0 0 0 0 0 0 0 0 0 0 0 0 0 0 0 127 0" result="hardAlpha"/>
<feOffset dy="4"/>
<feGaussianBlur stdDeviation="2"/>
<feComposite in2="hardAlpha" operator="arithmetic" k2="-1" k3="1"/>
<feColorMatrix type="matrix" values="0 0 0 0 0 0 0 0 0 0 0 0 0 0 0 0 0 0 0.25 0"/>
<feBlend mode="normal" in2="shape" result="effect1_innerShadow_141_441"/>
</filter>
<filter id="filter1_d_141_441" x="16.1143" y="18.2332" width="83.3188" height="95.6526" filterUnits="userSpaceOnUse" color-interpolation-filters="sRGB">
<feFlood flood-opacity="0" result="BackgroundImageFix"/>
<feColorMatrix in="SourceAlpha" type="matrix" values="0 0 0 0 0 0 0 0 0 0 0 0 0 0 0 0 0 0 127 0" result="hardAlpha"/>
<feOffset dy="2"/>
<feGaussianBlur stdDeviation="2"/>
<feComposite in2="hardAlpha" operator="out"/>
<feColorMatrix type="matrix" values="0 0 0 0 0 0 0 0 0 0 0 0 0 0 0 0 0 0 0.25 0"/>
<feBlend mode="normal" in2="BackgroundImageFix" result="effect1_dropShadow_141_441"/>
<feBlend mode="normal" in="SourceGraphic" in2="effect1_dropShadow_141_441" result="shape"/>
</filter>
<filter id="filter2_d_141_441" x="40.2788" y="18.1143" width="71.6069" height="88.9508" filterUnits="userSpaceOnUse" color-interpolation-filters="sRGB">
<feFlood flood-opacity="0" result="BackgroundImageFix"/>
<feColorMatrix in="SourceAlpha" type="matrix" values="0 0 0 0 0 0 0 0 0 0 0 0 0 0 0 0 0 0 127 0" result="hardAlpha"/>
<feOffset dy="2"/>
<feGaussianBlur stdDeviation="2"/>
<feComposite in2="hardAlpha" operator="out"/>
<feColorMatrix type="matrix" values="0 0 0 0 0 0 0 0 0 0 0 0 0 0 0 0 0 0 0.25 0"/>
<feBlend mode="normal" in2="BackgroundImageFix" result="effect1_dropShadow_141_441"/>
<feBlend mode="normal" in="SourceGraphic" in2="effect1_dropShadow_141_441" result="shape"/>
</filter>
<filter id="filter3_d_141_441" x="86.3042" y="30.4114" width="25.5815" height="35.4377" filterUnits="userSpaceOnUse" color-interpolation-filters="sRGB">
<feFlood flood-opacity="0" result="BackgroundImageFix"/>
<feColorMatrix in="SourceAlpha" type="matrix" values="0 0 0 0 0 0 0 0 0 0 0 0 0 0 0 0 0 0 127 0" result="hardAlpha"/>
<feOffset dy="2"/>
<feGaussianBlur stdDeviation="2"/>
<feComposite in2="hardAlpha" operator="out"/>
<feColorMatrix type="matrix" values="0 0 0 0 0 0 0 0 0 0 0 0 0 0 0 0 0 0 0.25 0"/>
<feBlend mode="normal" in2="BackgroundImageFix" result="effect1_dropShadow_141_441"/>
<feBlend mode="normal" in="SourceGraphic" in2="effect1_dropShadow_141_441" result="shape"/>
</filter>
<filter id="filter4_d_141_441" x="32.5713" y="34.5714" width="62.8569" height="62.8572" filterUnits="userSpaceOnUse" color-interpolation-filters="sRGB">
<feFlood flood-opacity="0" result="BackgroundImageFix"/>
<feColorMatrix in="SourceAlpha" type="matrix" values="0 0 0 0 0 0 0 0 0 0 0 0 0 0 0 0 0 0 127 0" result="hardAlpha"/>
<feOffset dy="2"/>
<feGaussianBlur stdDeviation="2"/>
<feComposite in2="hardAlpha" operator="out"/>
<feColorMatrix type="matrix" values="0 0 0 0 0 0 0 0 0 0 0 0 0 0 0 0 0 0 0.25 0"/>
<feBlend mode="normal" in2="BackgroundImageFix" result="effect1_dropShadow_141_441"/>
<feBlend mode="normal" in="SourceGraphic" in2="effect1_dropShadow_141_441" result="shape"/>
</filter>
<linearGradient id="paint0_linear_141_441" x1="64" y1="0" x2="64" y2="128" gradientUnits="userSpaceOnUse">
<stop stop-color="#3BEA62"/>
<stop offset="0.5" stop-color="#009AE5"/>
<stop offset="1" stop-color="#6B57FF"/>
</linearGradient>
<linearGradient id="paint1_linear_141_441" x1="53.4188" y1="2.49671" x2="82.4611" y2="124.192" gradientUnits="userSpaceOnUse">
<stop offset="0.28" stop-color="#07C3F2"/>
<stop offset="0.94" stop-color="#087CFA"/>
</linearGradient>
<linearGradient id="paint2_linear_141_441" x1="51.5474" y1="21.9429" x2="74.2583" y2="103.717" gradientUnits="userSpaceOnUse">
<stop offset="0.28" stop-color="#07C3F2"/>
<stop offset="0.94" stop-color="#087CFA"/>
</linearGradient>
<linearGradient id="paint3_linear_141_441" x1="58.6331" y1="32.32" x2="97.0605" y2="88.6674" gradientUnits="userSpaceOnUse">
<stop offset="0.14" stop-color="#FCF84A"/>
<stop offset="0.37" stop-color="#07C3F2"/>
</linearGradient>
<linearGradient id="paint4_linear_141_441" x1="96.7042" y1="39.2868" x2="101.751" y2="57.1611" gradientUnits="userSpaceOnUse">
<stop offset="0.28" stop-color="#07C3F2"/>
<stop offset="0.94" stop-color="#087CFA"/>
</linearGradient>
<clipPath id="clip0_141_441">
<rect width="96" height="96" fill="white" transform="translate(16 16)"/>
</clipPath>
</defs>
</svg>
