<svg width="128" height="128" viewBox="0 0 128 128" fill="none" xmlns="http://www.w3.org/2000/svg">
<path fill-rule="evenodd" clip-rule="evenodd" d="M37.0544 14.3395C35.5544 12.8414 33.5211 12 31.4012 12H8C3.58172 12 0 15.5817 0 20V108C0 112.418 3.58172 116 8 116H120C124.418 116 128 112.418 128 108V33C128 28.5817 124.418 25 120 25H51.0395C48.9195 25 46.8863 24.1586 45.3863 22.6605L37.0544 14.3395Z" fill="#5739A8"/>
<rect x="8.67828" y="33.6667" width="110.644" height="60" rx="4" fill="#FAFAFA"/>
<rect x="8.67828" y="33.6667" width="110.644" height="60" rx="4" fill="url(#paint0_linear_101_552)"/>
<rect x="8.67828" y="33.6667" width="110.644" height="60" rx="4" fill="black" fill-opacity="0.2"/>
<rect x="8.67828" y="40.8889" width="110.644" height="60" rx="4" fill="#FAFAFA"/>
<rect x="8.67828" y="40.8889" width="110.644" height="60" rx="4" fill="url(#paint1_linear_101_552)"/>
<rect x="8.67828" y="40.8889" width="110.644" height="60" rx="4" fill="black" fill-opacity="0.1"/>
<rect x="8.67828" y="48.1111" width="110.644" height="60" rx="4" fill="#FAFAFA"/>
<rect x="8.67828" y="48.1111" width="110.644" height="60" rx="4" fill="url(#paint2_linear_101_552)"/>
<path d="M0 64C0 59.5817 3.58172 56 8 56H120C124.418 56 128 59.5817 128 64V108C128 112.418 124.418 116 120 116H8C3.58172 116 0 112.418 0 108V64Z" fill="#7962E7"/>
<mask id="mask0_101_552" style="mask-type:alpha" maskUnits="userSpaceOnUse" x="40" y="62" width="48" height="48">
<rect x="40" y="62" width="48" height="48" fill="#D9D9D9"/>
</mask>
<g mask="url(#mask0_101_552)">
<path d="M64 104C63.4333 104 62.9583 103.808 62.575 103.425C62.1917 103.042 62 102.567 62 102V94C62 93.4333 62.1917 92.9583 62.575 92.575C62.9583 92.1917 63.4333 92 64 92C64.5667 92 65.0417 92.1917 65.425 92.575C65.8083 92.9583 66 93.4333 66 94V96H80C80.5667 96 81.0417 96.1917 81.425 96.575C81.8083 96.9583 82 97.4333 82 98C82 98.5667 81.8083 99.0417 81.425 99.425C81.0417 99.8083 80.5667 100 80 100H66V102C66 102.567 65.8083 103.042 65.425 103.425C65.0417 103.808 64.5667 104 64 104ZM48 100C47.4333 100 46.9583 99.8083 46.575 99.425C46.1917 99.0417 46 98.5667 46 98C46 97.4333 46.1917 96.9583 46.575 96.575C46.9583 96.1917 47.4333 96 48 96H56C56.5667 96 57.0417 96.1917 57.425 96.575C57.8083 96.9583 58 97.4333 58 98C58 98.5667 57.8083 99.0417 57.425 99.425C57.0417 99.8083 56.5667 100 56 100H48ZM56 92C55.4333 92 54.9583 91.8083 54.575 91.425C54.1917 91.0417 54 90.5667 54 90V88H48C47.4333 88 46.9583 87.8083 46.575 87.425C46.1917 87.0417 46 86.5667 46 86C46 85.4333 46.1917 84.9583 46.575 84.575C46.9583 84.1917 47.4333 84 48 84H54V82C54 81.4333 54.1917 80.9583 54.575 80.575C54.9583 80.1917 55.4333 80 56 80C56.5667 80 57.0417 80.1917 57.425 80.575C57.8083 80.9583 58 81.4333 58 82V90C58 90.5667 57.8083 91.0417 57.425 91.425C57.0417 91.8083 56.5667 92 56 92ZM64 88C63.4333 88 62.9583 87.8083 62.575 87.425C62.1917 87.0417 62 86.5667 62 86C62 85.4333 62.1917 84.9583 62.575 84.575C62.9583 84.1917 63.4333 84 64 84H80C80.5667 84 81.0417 84.1917 81.425 84.575C81.8083 84.9583 82 85.4333 82 86C82 86.5667 81.8083 87.0417 81.425 87.425C81.0417 87.8083 80.5667 88 80 88H64ZM72 80C71.4333 80 70.9583 79.8083 70.575 79.425C70.1917 79.0417 70 78.5667 70 78V70C70 69.4333 70.1917 68.9583 70.575 68.575C70.9583 68.1917 71.4333 68 72 68C72.5667 68 73.0417 68.1917 73.425 68.575C73.8083 68.9583 74 69.4333 74 70V72H80C80.5667 72 81.0417 72.1917 81.425 72.575C81.8083 72.9583 82 73.4333 82 74C82 74.5667 81.8083 75.0417 81.425 75.425C81.0417 75.8083 80.5667 76 80 76H74V78C74 78.5667 73.8083 79.0417 73.425 79.425C73.0417 79.8083 72.5667 80 72 80ZM48 76C47.4333 76 46.9583 75.8083 46.575 75.425C46.1917 75.0417 46 74.5667 46 74C46 73.4333 46.1917 72.9583 46.575 72.575C46.9583 72.1917 47.4333 72 48 72H64C64.5667 72 65.0417 72.1917 65.425 72.575C65.8083 72.9583 66 73.4333 66 74C66 74.5667 65.8083 75.0417 65.425 75.425C65.0417 75.8083 64.5667 76 64 76H48Z" fill="#FAFAFA"/>
</g>
<defs>
<linearGradient id="paint0_linear_101_552" x1="64.0003" y1="33.6667" x2="64.0003" y2="93.6667" gradientUnits="userSpaceOnUse">
<stop stop-opacity="0"/>
<stop offset="1" stop-opacity="0.2"/>
</linearGradient>
<linearGradient id="paint1_linear_101_552" x1="64.0003" y1="40.8889" x2="64.0003" y2="100.889" gradientUnits="userSpaceOnUse">
<stop stop-opacity="0"/>
<stop offset="1" stop-opacity="0.2"/>
</linearGradient>
<linearGradient id="paint2_linear_101_552" x1="64.0003" y1="48.1111" x2="64.0003" y2="108.111" gradientUnits="userSpaceOnUse">
<stop stop-opacity="0"/>
<stop offset="1" stop-opacity="0.2"/>
</linearGradient>
</defs>
</svg>
