<svg width="128" height="128" viewBox="0 0 128 128" fill="none" xmlns="http://www.w3.org/2000/svg">
<rect y="16" width="128" height="96" rx="8" fill="#7962E7"/>
<path d="M52.3281 61.9297L60.2031 74.0938C61.6094 76.25 62.7734 77.6328 63.6953 78.2422C64.6172 78.8359 65.8281 79.1328 67.3281 79.1328L67.0703 80H53.5234L53.7344 79.1328C54.8125 79.0234 55.5703 78.7656 56.0078 78.3594C56.4609 77.9531 56.6875 77.4922 56.6875 76.9766C56.6875 76.5078 56.6094 76.0547 56.4531 75.6172C56.3281 75.3047 55.875 74.5391 55.0938 73.3203L48.6484 63.2188L45.5312 73.7422C45.0156 75.4297 44.7578 76.5625 44.7578 77.1406C44.7578 77.7344 44.9766 78.1875 45.4141 78.5C45.8516 78.8125 46.9297 79.0234 48.6484 79.1328L48.2734 80H35.7109L36.0156 79.1328C37.2344 79.1016 38.0547 78.9922 38.4766 78.8047C39.1016 78.5234 39.5625 78.1641 39.8594 77.7266C40.2656 77.0859 40.7656 75.7578 41.3594 73.7422L46.9609 54.5469C47.3828 53.0781 47.5938 51.8984 47.5938 51.0078C47.5938 50.3828 47.3906 49.9062 46.9844 49.5781C46.5938 49.25 45.8203 49.0859 44.6641 49.0859H44.1953L44.4766 48.2188H56.4062L56.1719 49.0859C55.1875 49.0703 54.4531 49.1797 53.9688 49.4141C53.2969 49.7422 52.8047 50.1641 52.4922 50.6797C52.1797 51.1953 51.7188 52.4844 51.1094 54.5469L48.6484 62.7031L59.9453 54.1953C61.4453 53.0703 62.4297 52.1797 62.8984 51.5234C63.1797 51.1172 63.3203 50.75 63.3203 50.4219C63.3203 50.1406 63.1719 49.8672 62.875 49.6016C62.5938 49.3359 62.1562 49.1641 61.5625 49.0859L61.7969 48.2188H71.9688L71.7578 49.0859C70.6484 49.2734 69.7109 49.5234 68.9453 49.8359C68.1953 50.1328 67.4219 50.5469 66.625 51.0781C66.3906 51.2344 64.8672 52.3906 62.0547 54.5469L52.3281 61.9297ZM70.0469 60.2422L76.8203 58.7891C77.3047 59.9453 77.6953 61.125 77.9922 62.3281C78.4141 64.0938 78.7578 66.1875 79.0234 68.6094C79.1484 69.8281 79.3203 72.4062 79.5391 76.3438C81.4922 74.1875 82.6562 72.8516 83.0312 72.3359C85.0938 69.5391 86.2812 67.8984 86.5938 67.4141C87.1094 66.5859 87.4688 65.8594 87.6719 65.2344C87.8438 64.7656 87.9297 64.3203 87.9297 63.8984C87.9297 63.4922 87.5625 63.0234 86.8281 62.4922C86.1094 61.9609 85.75 61.3672 85.75 60.7109C85.75 60.2109 85.9453 59.7656 86.3359 59.375C86.7422 58.9844 87.2188 58.7891 87.7656 58.7891C88.4219 58.7891 89 59.0625 89.5 59.6094C90 60.1406 90.25 60.8047 90.25 61.6016C90.25 62.3984 90.125 63.1641 89.875 63.8984C89.4688 65.0859 88.7109 66.5391 87.6016 68.2578C86.4922 69.9609 84.7031 72.25 82.2344 75.125C81.9219 75.4844 80.1875 77.2969 77.0312 80.5625H76.1641C75.7891 70.6719 75.0078 64.5 73.8203 62.0469C73.4297 61.25 72.7812 60.8516 71.875 60.8516C71.4844 60.8516 70.9297 60.9219 70.2109 61.0625L70.0469 60.2422Z" fill="white"/>
</svg>
