<svg width="128" height="128" viewBox="0 0 128 128" fill="none" xmlns="http://www.w3.org/2000/svg">
<path d="M0 24C0 19.5817 3.58172 16 8 16H120C124.418 16 128 19.5817 128 24V96C128 100.418 124.418 104 120 104H104H88H8C3.58172 104 0 100.418 0 96V24Z" fill="#7962E7"/>
<path d="M96 112L104 104H88L96 112Z" fill="#7962E7"/>
<rect x="8" y="24" width="32" height="32" rx="16" fill="#462E86"/>
<path d="M22 32C22 30.8954 22.8954 30 24 30C25.1046 30 26 30.8954 26 32C26 33.1046 25.1046 34 24 34C22.8954 34 22 33.1046 22 32Z" fill="white"/>
<path d="M22 40C22 38.8954 22.8954 38 24 38C25.1046 38 26 38.8954 26 40V48C26 49.1046 25.1046 50 24 50C22.8954 50 22 49.1046 22 48V40Z" fill="white"/>
</svg>
