<svg width="128" height="128" viewBox="0 0 128 128" fill="none" xmlns="http://www.w3.org/2000/svg">
<rect width="128" height="128" rx="32" fill="#888888"/>
<rect x="8" y="8" width="112" height="112" rx="24" fill="black" fill-opacity="0.7"/>
<mask id="mask0_105_701" style="mask-type:alpha" maskUnits="userSpaceOnUse" x="28" y="28" width="72" height="72">
<rect x="28" y="28" width="72" height="72" fill="#D9D9D9"/>
</mask>
<g mask="url(#mask0_105_701)">
<path d="M64 91C63.15 91 62.4375 90.7125 61.8625 90.1375C61.2875 89.5625 61 88.85 61 88V76C61 75.15 61.2875 74.4375 61.8625 73.8625C62.4375 73.2875 63.15 73 64 73C64.85 73 65.5625 73.2875 66.1375 73.8625C66.7125 74.4375 67 75.15 67 76V79H88C88.85 79 89.5625 79.2875 90.1375 79.8625C90.7125 80.4375 91 81.15 91 82C91 82.85 90.7125 83.5625 90.1375 84.1375C89.5625 84.7125 88.85 85 88 85H67V88C67 88.85 66.7125 89.5625 66.1375 90.1375C65.5625 90.7125 64.85 91 64 91ZM40 85C39.15 85 38.4375 84.7125 37.8625 84.1375C37.2875 83.5625 37 82.85 37 82C37 81.15 37.2875 80.4375 37.8625 79.8625C38.4375 79.2875 39.15 79 40 79H52C52.85 79 53.5625 79.2875 54.1375 79.8625C54.7125 80.4375 55 81.15 55 82C55 82.85 54.7125 83.5625 54.1375 84.1375C53.5625 84.7125 52.85 85 52 85H40ZM52 73C51.15 73 50.4375 72.7125 49.8625 72.1375C49.2875 71.5625 49 70.85 49 70V67H40C39.15 67 38.4375 66.7125 37.8625 66.1375C37.2875 65.5625 37 64.85 37 64C37 63.15 37.2875 62.4375 37.8625 61.8625C38.4375 61.2875 39.15 61 40 61H49V58C49 57.15 49.2875 56.4375 49.8625 55.8625C50.4375 55.2875 51.15 55 52 55C52.85 55 53.5625 55.2875 54.1375 55.8625C54.7125 56.4375 55 57.15 55 58V70C55 70.85 54.7125 71.5625 54.1375 72.1375C53.5625 72.7125 52.85 73 52 73ZM64 67C63.15 67 62.4375 66.7125 61.8625 66.1375C61.2875 65.5625 61 64.85 61 64C61 63.15 61.2875 62.4375 61.8625 61.8625C62.4375 61.2875 63.15 61 64 61H88C88.85 61 89.5625 61.2875 90.1375 61.8625C90.7125 62.4375 91 63.15 91 64C91 64.85 90.7125 65.5625 90.1375 66.1375C89.5625 66.7125 88.85 67 88 67H64ZM76 55C75.15 55 74.4375 54.7125 73.8625 54.1375C73.2875 53.5625 73 52.85 73 52V40C73 39.15 73.2875 38.4375 73.8625 37.8625C74.4375 37.2875 75.15 37 76 37C76.85 37 77.5625 37.2875 78.1375 37.8625C78.7125 38.4375 79 39.15 79 40V43H88C88.85 43 89.5625 43.2875 90.1375 43.8625C90.7125 44.4375 91 45.15 91 46C91 46.85 90.7125 47.5625 90.1375 48.1375C89.5625 48.7125 88.85 49 88 49H79V52C79 52.85 78.7125 53.5625 78.1375 54.1375C77.5625 54.7125 76.85 55 76 55ZM40 49C39.15 49 38.4375 48.7125 37.8625 48.1375C37.2875 47.5625 37 46.85 37 46C37 45.15 37.2875 44.4375 37.8625 43.8625C38.4375 43.2875 39.15 43 40 43H64C64.85 43 65.5625 43.2875 66.1375 43.8625C66.7125 44.4375 67 45.15 67 46C67 46.85 66.7125 47.5625 66.1375 48.1375C65.5625 48.7125 64.85 49 64 49H40Z" fill="#FAFAFA"/>
</g>
</svg>
