<svg width="128" height="128" viewBox="0 0 128 128" fill="none" xmlns="http://www.w3.org/2000/svg">
<g clip-path="url(#clip0_101_598)">
<g filter="url(#filter0_d_101_598)">
<path d="M0 16C0 7.16344 7.16344 0 16 0H112C120.837 0 128 7.16344 128 16V112C128 120.837 120.837 128 112 128H16C7.16344 128 0 120.837 0 112V16Z" fill="#7962E7"/>
</g>
<path d="M0 26.6667H128V112C128 120.837 120.837 128 112 128H16C7.16344 128 0 120.837 0 112V26.6667Z" fill="#FAFAFA"/>
<mask id="mask0_101_598" style="mask-type:alpha" maskUnits="userSpaceOnUse" x="28" y="41" width="72" height="72">
<rect x="28" y="41" width="72" height="72" fill="#D9D9D9"/>
</mask>
<g mask="url(#mask0_101_598)">
<path d="M64 104C63.15 104 62.4375 103.712 61.8625 103.137C61.2875 102.562 61 101.85 61 101V89C61 88.15 61.2875 87.4375 61.8625 86.8625C62.4375 86.2875 63.15 86 64 86C64.85 86 65.5625 86.2875 66.1375 86.8625C66.7125 87.4375 67 88.15 67 89V92H88C88.85 92 89.5625 92.2875 90.1375 92.8625C90.7125 93.4375 91 94.15 91 95C91 95.85 90.7125 96.5625 90.1375 97.1375C89.5625 97.7125 88.85 98 88 98H67V101C67 101.85 66.7125 102.562 66.1375 103.137C65.5625 103.712 64.85 104 64 104ZM40 98C39.15 98 38.4375 97.7125 37.8625 97.1375C37.2875 96.5625 37 95.85 37 95C37 94.15 37.2875 93.4375 37.8625 92.8625C38.4375 92.2875 39.15 92 40 92H52C52.85 92 53.5625 92.2875 54.1375 92.8625C54.7125 93.4375 55 94.15 55 95C55 95.85 54.7125 96.5625 54.1375 97.1375C53.5625 97.7125 52.85 98 52 98H40ZM52 86C51.15 86 50.4375 85.7125 49.8625 85.1375C49.2875 84.5625 49 83.85 49 83V80H40C39.15 80 38.4375 79.7125 37.8625 79.1375C37.2875 78.5625 37 77.85 37 77C37 76.15 37.2875 75.4375 37.8625 74.8625C38.4375 74.2875 39.15 74 40 74H49V71C49 70.15 49.2875 69.4375 49.8625 68.8625C50.4375 68.2875 51.15 68 52 68C52.85 68 53.5625 68.2875 54.1375 68.8625C54.7125 69.4375 55 70.15 55 71V83C55 83.85 54.7125 84.5625 54.1375 85.1375C53.5625 85.7125 52.85 86 52 86ZM64 80C63.15 80 62.4375 79.7125 61.8625 79.1375C61.2875 78.5625 61 77.85 61 77C61 76.15 61.2875 75.4375 61.8625 74.8625C62.4375 74.2875 63.15 74 64 74H88C88.85 74 89.5625 74.2875 90.1375 74.8625C90.7125 75.4375 91 76.15 91 77C91 77.85 90.7125 78.5625 90.1375 79.1375C89.5625 79.7125 88.85 80 88 80H64ZM76 68C75.15 68 74.4375 67.7125 73.8625 67.1375C73.2875 66.5625 73 65.85 73 65V53C73 52.15 73.2875 51.4375 73.8625 50.8625C74.4375 50.2875 75.15 50 76 50C76.85 50 77.5625 50.2875 78.1375 50.8625C78.7125 51.4375 79 52.15 79 53V56H88C88.85 56 89.5625 56.2875 90.1375 56.8625C90.7125 57.4375 91 58.15 91 59C91 59.85 90.7125 60.5625 90.1375 61.1375C89.5625 61.7125 88.85 62 88 62H79V65C79 65.85 78.7125 66.5625 78.1375 67.1375C77.5625 67.7125 76.85 68 76 68ZM40 62C39.15 62 38.4375 61.7125 37.8625 61.1375C37.2875 60.5625 37 59.85 37 59C37 58.15 37.2875 57.4375 37.8625 56.8625C38.4375 56.2875 39.15 56 40 56H64C64.85 56 65.5625 56.2875 66.1375 56.8625C66.7125 57.4375 67 58.15 67 59C67 59.85 66.7125 60.5625 66.1375 61.1375C65.5625 61.7125 64.85 62 64 62H40Z" fill="#222222"/>
</g>
</g>
<defs>
<filter id="filter0_d_101_598" x="-4" y="-2" width="136" height="136" filterUnits="userSpaceOnUse" color-interpolation-filters="sRGB">
<feFlood flood-opacity="0" result="BackgroundImageFix"/>
<feColorMatrix in="SourceAlpha" type="matrix" values="0 0 0 0 0 0 0 0 0 0 0 0 0 0 0 0 0 0 127 0" result="hardAlpha"/>
<feOffset dy="2"/>
<feGaussianBlur stdDeviation="2"/>
<feComposite in2="hardAlpha" operator="out"/>
<feColorMatrix type="matrix" values="0 0 0 0 0 0 0 0 0 0 0 0 0 0 0 0 0 0 0.25 0"/>
<feBlend mode="normal" in2="BackgroundImageFix" result="effect1_dropShadow_101_598"/>
<feBlend mode="normal" in="SourceGraphic" in2="effect1_dropShadow_101_598" result="shape"/>
</filter>
<clipPath id="clip0_101_598">
<rect width="128" height="128" fill="white"/>
</clipPath>
</defs>
</svg>
