<svg width="128" height="128" viewBox="0 0 128 128" fill="none" xmlns="http://www.w3.org/2000/svg">
<rect y="16" width="128" height="96" rx="8" fill="#7962E7"/>
<g filter="url(#filter0_d_102_622)">
<rect x="32" y="40" width="64" height="48" rx="4" fill="#2C2C2C"/>
<rect x="32" y="40" width="64" height="6" fill="#222222"/>
<mask id="mask0_102_622" style="mask-type:alpha" maskUnits="userSpaceOnUse" x="46" y="49" width="36" height="36">
<rect x="46" y="49" width="36" height="36" fill="#D9D9D9"/>
</mask>
<g mask="url(#mask0_102_622)">
<path d="M64 80.5C63.575 80.5 63.2188 80.3562 62.9313 80.0687C62.6438 79.7812 62.5 79.425 62.5 79V73C62.5 72.575 62.6438 72.2188 62.9313 71.9313C63.2188 71.6438 63.575 71.5 64 71.5C64.425 71.5 64.7813 71.6438 65.0688 71.9313C65.3563 72.2188 65.5 72.575 65.5 73V74.5H76C76.425 74.5 76.7812 74.6438 77.0687 74.9313C77.3562 75.2188 77.5 75.575 77.5 76C77.5 76.425 77.3562 76.7812 77.0687 77.0688C76.7812 77.3563 76.425 77.5 76 77.5H65.5V79C65.5 79.425 65.3563 79.7812 65.0688 80.0687C64.7813 80.3562 64.425 80.5 64 80.5ZM52 77.5C51.575 77.5 51.2188 77.3563 50.9312 77.0688C50.6437 76.7812 50.5 76.425 50.5 76C50.5 75.575 50.6437 75.2188 50.9312 74.9313C51.2188 74.6438 51.575 74.5 52 74.5H58C58.425 74.5 58.7812 74.6438 59.0688 74.9313C59.3562 75.2188 59.5 75.575 59.5 76C59.5 76.425 59.3562 76.7812 59.0688 77.0688C58.7812 77.3563 58.425 77.5 58 77.5H52ZM58 71.5C57.575 71.5 57.2188 71.3563 56.9312 71.0688C56.6437 70.7812 56.5 70.425 56.5 70V68.5H52C51.575 68.5 51.2188 68.3563 50.9312 68.0688C50.6437 67.7813 50.5 67.425 50.5 67C50.5 66.575 50.6437 66.2188 50.9312 65.9313C51.2188 65.6438 51.575 65.5 52 65.5H56.5V64C56.5 63.575 56.6437 63.2188 56.9312 62.9312C57.2188 62.6438 57.575 62.5 58 62.5C58.425 62.5 58.7812 62.6438 59.0688 62.9312C59.3562 63.2188 59.5 63.575 59.5 64V70C59.5 70.425 59.3562 70.7812 59.0688 71.0688C58.7812 71.3563 58.425 71.5 58 71.5ZM64 68.5C63.575 68.5 63.2188 68.3563 62.9313 68.0688C62.6438 67.7813 62.5 67.425 62.5 67C62.5 66.575 62.6438 66.2188 62.9313 65.9313C63.2188 65.6438 63.575 65.5 64 65.5H76C76.425 65.5 76.7812 65.6438 77.0687 65.9313C77.3562 66.2188 77.5 66.575 77.5 67C77.5 67.425 77.3562 67.7813 77.0687 68.0688C76.7812 68.3563 76.425 68.5 76 68.5H64ZM70 62.5C69.575 62.5 69.2188 62.3562 68.9313 62.0688C68.6438 61.7812 68.5 61.425 68.5 61V55C68.5 54.575 68.6438 54.2188 68.9313 53.9312C69.2188 53.6437 69.575 53.5 70 53.5C70.425 53.5 70.7812 53.6437 71.0688 53.9312C71.3563 54.2188 71.5 54.575 71.5 55V56.5H76C76.425 56.5 76.7812 56.6438 77.0687 56.9313C77.3562 57.2188 77.5 57.575 77.5 58C77.5 58.425 77.3562 58.7812 77.0687 59.0688C76.7812 59.3563 76.425 59.5 76 59.5H71.5V61C71.5 61.425 71.3563 61.7812 71.0688 62.0688C70.7812 62.3562 70.425 62.5 70 62.5ZM52 59.5C51.575 59.5 51.2188 59.3563 50.9312 59.0688C50.6437 58.7812 50.5 58.425 50.5 58C50.5 57.575 50.6437 57.2188 50.9312 56.9313C51.2188 56.6438 51.575 56.5 52 56.5H64C64.425 56.5 64.7813 56.6438 65.0688 56.9313C65.3563 57.2188 65.5 57.575 65.5 58C65.5 58.425 65.3563 58.7812 65.0688 59.0688C64.7813 59.3563 64.425 59.5 64 59.5H52Z" fill="#FAFAFA"/>
</g>
</g>
<defs>
<filter id="filter0_d_102_622" x="28" y="38" width="72" height="56" filterUnits="userSpaceOnUse" color-interpolation-filters="sRGB">
<feFlood flood-opacity="0" result="BackgroundImageFix"/>
<feColorMatrix in="SourceAlpha" type="matrix" values="0 0 0 0 0 0 0 0 0 0 0 0 0 0 0 0 0 0 127 0" result="hardAlpha"/>
<feOffset dy="2"/>
<feGaussianBlur stdDeviation="2"/>
<feComposite in2="hardAlpha" operator="out"/>
<feColorMatrix type="matrix" values="0 0 0 0 0 0 0 0 0 0 0 0 0 0 0 0 0 0 0.25 0"/>
<feBlend mode="normal" in2="BackgroundImageFix" result="effect1_dropShadow_102_622"/>
<feBlend mode="normal" in="SourceGraphic" in2="effect1_dropShadow_102_622" result="shape"/>
</filter>
</defs>
</svg>
