<svg width="16" height="16" viewBox="0 0 16 16" fill="none" xmlns="http://www.w3.org/2000/svg">
<g clip-path="url(#clip0_32_13320)">
<path d="M12 0H4C1.79086 0 0 1.79086 0 4V12C0 14.2091 1.79086 16 4 16H12C14.2091 16 16 14.2091 16 12V4C16 1.79086 14.2091 0 12 0Z" fill="url(#paint0_linear_32_13320)"/>
<g filter="url(#filter0_i_32_13320)">
<path d="M12 1H4C2.34315 1 1 2.34315 1 4V12C1 13.6569 2.34315 15 4 15H12C13.6569 15 15 13.6569 15 12V4C15 2.34315 13.6569 1 12 1Z" fill="black" fill-opacity="0.7"/>
<g filter="url(#filter1_d_32_13320)">
<path fill-rule="evenodd" clip-rule="evenodd" d="M11.9375 5.39394L12.1708 4.81946C12.1708 4.81946 11.8738 4.50032 11.5132 4.13861C11.1526 3.77691 10.389 3.98968 10.389 3.98968L9.5194 3H7.9922H6.46501L5.59536 3.98968C5.59536 3.98968 4.83176 3.77691 4.47118 4.13861C4.11059 4.50032 3.81364 4.81946 3.81364 4.81946L4.04695 5.39394L3.75 6.245C3.75 6.245 4.62336 9.56319 4.72571 9.9684C4.92721 10.7663 5.06509 11.0748 5.63777 11.479C6.21047 11.8833 7.24981 12.5854 7.4195 12.6917C7.58919 12.7982 7.8013 12.9794 7.9922 12.9794C8.1831 12.9794 8.39521 12.7982 8.5649 12.6917C8.73459 12.5854 9.77393 11.8833 10.3466 11.479C10.9193 11.0748 11.0572 10.7663 11.2587 9.9684C11.361 9.56319 12.2344 6.245 12.2344 6.245L11.9375 5.39394Z" fill="#FF5500"/>
<path fill-rule="evenodd" clip-rule="evenodd" d="M10.1451 4.61736C10.1451 4.61736 11.2637 5.97375 11.2637 6.26365C11.2637 6.55353 11.123 6.63005 10.9815 6.78075C10.84 6.93145 10.2221 7.58962 10.1428 7.67413C10.0634 7.75866 9.89825 7.88681 9.99542 8.11747C10.0926 8.34813 10.2359 8.64165 10.0765 8.93935C9.9171 9.23705 9.64402 9.43575 9.46903 9.4029C9.29403 9.37002 8.88307 9.1546 8.73194 9.0562C8.58082 8.95778 8.10183 8.56153 8.10183 8.40992C8.10183 8.25832 8.59695 7.98611 8.68842 7.92426C8.77992 7.86243 9.19714 7.62305 9.20569 7.52908C9.21422 7.43511 9.21097 7.40756 9.08784 7.17538C8.96472 6.9432 8.74297 6.63336 8.77988 6.42721C8.81679 6.22108 9.1744 6.1139 9.42962 6.01721C9.68478 5.92056 10.1761 5.73798 10.2375 5.7096C10.2989 5.6812 10.283 5.65415 10.0971 5.63647C9.91117 5.61878 9.38353 5.54853 9.14564 5.61505C8.90775 5.68156 8.50135 5.78275 8.46844 5.83641C8.43552 5.89007 8.40648 5.89187 8.44029 6.07698C8.47408 6.26208 8.64814 7.1503 8.66502 7.30807C8.68193 7.46583 8.71498 7.57013 8.54539 7.60902C8.37579 7.64792 8.0903 7.71545 7.9922 7.71545C7.8941 7.71545 7.6086 7.64792 7.43903 7.60902C7.26942 7.57013 7.30247 7.46583 7.31938 7.30807C7.33628 7.1503 7.51032 6.26208 7.54413 6.07698C7.57792 5.89187 7.54888 5.89007 7.51598 5.83641C7.48305 5.78275 7.07663 5.68156 6.83875 5.61505C6.60087 5.54853 6.07325 5.61878 5.88732 5.63647C5.70138 5.65415 5.68552 5.6812 5.74689 5.7096C5.80828 5.73798 6.29963 5.92056 6.5548 6.01721C6.80999 6.1139 7.16763 6.22108 7.20454 6.42721C7.24144 6.63336 7.01968 6.9432 6.89658 7.17538C6.77344 7.40756 6.77018 7.43511 6.77873 7.52908C6.78725 7.62305 7.20449 7.86243 7.29598 7.92426C7.38747 7.98611 7.88257 8.25832 7.88257 8.40992C7.88257 8.56153 7.4036 8.95778 7.25248 9.0562C7.10134 9.1546 6.69038 9.37002 6.51539 9.4029C6.3404 9.43575 6.0673 9.23705 5.90789 8.93935C5.74849 8.64165 5.89183 8.34813 5.98898 8.11747C6.08614 7.88681 5.92098 7.75866 5.8416 7.67413C5.76228 7.58962 5.14435 6.93145 5.00288 6.78075C4.8614 6.63005 4.7207 6.55353 4.7207 6.26365C4.7207 5.97375 5.83929 4.61736 5.83929 4.61736C5.83929 4.61736 6.78318 4.79821 6.91044 4.79821C7.03772 4.79821 7.31345 4.69183 7.56799 4.60672C7.82252 4.52162 7.9922 4.521 7.9922 4.521C7.9922 4.521 8.16189 4.52162 8.41643 4.60672C8.67097 4.69183 8.9467 4.79821 9.07397 4.79821C9.20124 4.79821 10.1451 4.61736 10.1451 4.61736ZM9.30657 9.8058C9.3758 9.84928 9.33357 9.93127 9.2705 9.97598C9.20743 10.0207 8.35982 10.6791 8.27755 10.7519C8.19528 10.8246 8.07439 10.9448 7.9922 10.9448C7.91002 10.9448 7.7891 10.8246 7.70685 10.7519C7.62458 10.6791 6.77698 10.0207 6.7139 9.97598C6.65082 9.93127 6.6086 9.84928 6.67784 9.8058C6.74709 9.76233 6.96373 9.65261 7.26265 9.49743C7.56154 9.34228 7.93407 9.21037 7.9922 9.21037C8.05034 9.21037 8.42285 9.34228 8.72178 9.49743C9.02068 9.65261 9.23732 9.76233 9.30657 9.8058Z" fill="white"/>
<path d="M10.3886 3.9898L9.51892 3.00012H7.99173H6.46454L5.59489 3.9898C5.59489 3.9898 4.83129 3.77704 4.4707 4.13874C4.4707 4.13874 5.48883 4.04655 5.83882 4.61746C5.83882 4.61746 6.7827 4.79831 6.90997 4.79831C7.03723 4.79831 7.31298 4.69192 7.5675 4.60682C7.82204 4.52171 7.99173 4.5211 7.99173 4.5211C7.99173 4.5211 8.16142 4.52171 8.41595 4.60682C8.67048 4.69192 8.94623 4.79831 9.07349 4.79831C9.20075 4.79831 10.1446 4.61746 10.1446 4.61746C10.4946 4.04655 11.5128 4.13874 11.5128 4.13874C11.1522 3.77704 10.3886 3.9898 10.3886 3.9898Z" fill="#FF2000"/>
<path d="M10.3886 3.9898L9.51892 3.00012H7.99173H6.46454L5.59489 3.9898C5.59489 3.9898 4.83129 3.77704 4.4707 4.13874C4.4707 4.13874 5.48883 4.04655 5.83882 4.61746C5.83882 4.61746 6.7827 4.79831 6.90997 4.79831C7.03723 4.79831 7.31298 4.69192 7.5675 4.60682C7.82204 4.52171 7.99173 4.5211 7.99173 4.5211C7.99173 4.5211 8.16142 4.52171 8.41595 4.60682C8.67048 4.69192 8.94623 4.79831 9.07349 4.79831C9.20075 4.79831 10.1446 4.61746 10.1446 4.61746C10.4946 4.04655 11.5128 4.13874 11.5128 4.13874C11.1522 3.77704 10.3886 3.9898 10.3886 3.9898Z" fill="black" fill-opacity="0.1"/>
</g>
</g>
</g>
<defs>
<filter id="filter0_i_32_13320" x="1" y="1" width="14" height="18" filterUnits="userSpaceOnUse" color-interpolation-filters="sRGB">
<feFlood flood-opacity="0" result="BackgroundImageFix"/>
<feBlend mode="normal" in="SourceGraphic" in2="BackgroundImageFix" result="shape"/>
<feColorMatrix in="SourceAlpha" type="matrix" values="0 0 0 0 0 0 0 0 0 0 0 0 0 0 0 0 0 0 127 0" result="hardAlpha"/>
<feOffset dy="4"/>
<feGaussianBlur stdDeviation="2"/>
<feComposite in2="hardAlpha" operator="arithmetic" k2="-1" k3="1"/>
<feColorMatrix type="matrix" values="0 0 0 0 0 0 0 0 0 0 0 0 0 0 0 0 0 0 0.25 0"/>
<feBlend mode="normal" in2="shape" result="effect1_innerShadow_32_13320"/>
</filter>
<filter id="filter1_d_32_13320" x="-0.25" y="1" width="16.4844" height="17.9794" filterUnits="userSpaceOnUse" color-interpolation-filters="sRGB">
<feFlood flood-opacity="0" result="BackgroundImageFix"/>
<feColorMatrix in="SourceAlpha" type="matrix" values="0 0 0 0 0 0 0 0 0 0 0 0 0 0 0 0 0 0 127 0" result="hardAlpha"/>
<feOffset dy="2"/>
<feGaussianBlur stdDeviation="2"/>
<feComposite in2="hardAlpha" operator="out"/>
<feColorMatrix type="matrix" values="0 0 0 0 0 0 0 0 0 0 0 0 0 0 0 0 0 0 0.25 0"/>
<feBlend mode="normal" in2="BackgroundImageFix" result="effect1_dropShadow_32_13320"/>
<feBlend mode="normal" in="SourceGraphic" in2="effect1_dropShadow_32_13320" result="shape"/>
</filter>
<linearGradient id="paint0_linear_32_13320" x1="0" y1="811.289" x2="1600" y2="811.289" gradientUnits="userSpaceOnUse">
<stop stop-color="#FF5500"/>
<stop offset="0.409877" stop-color="#FF5500"/>
<stop offset="0.581981" stop-color="#FF2000"/>
<stop offset="1" stop-color="#FF2000"/>
</linearGradient>
<clipPath id="clip0_32_13320">
<rect width="16" height="16" fill="white"/>
</clipPath>
</defs>
</svg>
