<svg width="16" height="16" viewBox="0 0 16 16" fill="none" xmlns="http://www.w3.org/2000/svg">
<g clip-path="url(#clip0_32_13403)">
<path d="M12 0H4C1.79086 0 0 1.79086 0 4V12C0 14.2091 1.79086 16 4 16H12C14.2091 16 16 14.2091 16 12V4C16 1.79086 14.2091 0 12 0Z" fill="url(#paint0_linear_32_13403)"/>
<path d="M12 0H4C1.79086 0 0 1.79086 0 4V12C0 14.2091 1.79086 16 4 16H12C14.2091 16 16 14.2091 16 12V4C16 1.79086 14.2091 0 12 0Z" fill="url(#paint1_linear_32_13403)"/>
<g filter="url(#filter0_i_32_13403)">
<path d="M12 1H4C2.34315 1 1 2.34315 1 4V12C1 13.6569 2.34315 15 4 15H12C13.6569 15 15 13.6569 15 12V4C15 2.34315 13.6569 1 12 1Z" fill="black" fill-opacity="0.7"/>
<mask id="mask0_32_13403" style="mask-type:luminance" maskUnits="userSpaceOnUse" x="2" y="2" width="12" height="12">
<path d="M14 2H2V14H14V2Z" fill="white"/>
</mask>
<g mask="url(#mask0_32_13403)">
<g filter="url(#filter1_d_32_13403)">
<path d="M3.76492 12.7246L2.51465 8.41486L10.2815 10.5566L9.45292 13.4858L3.76492 12.7246Z" fill="url(#paint2_linear_32_13403)"/>
</g>
<g filter="url(#filter2_d_32_13403)">
<path d="M6.19458 2.52799L9.11572 3.36456L12.4163 2.51428L13.0701 7.03999L5.64258 4.57142L6.19458 2.52799Z" fill="url(#paint3_linear_32_13403)"/>
</g>
<g filter="url(#filter3_d_32_13403)">
<path d="M13.4861 9.74169L13.0701 7.03997L6.35007 4.80682L2.52836 5.62626L2.51465 8.41482L10.2815 10.5565L13.4861 9.74169Z" fill="url(#paint4_linear_32_13403)"/>
</g>
<g filter="url(#filter4_d_32_13403)">
<path d="M4.57227 4.57141H11.4294V11.4286H4.57227V4.57141Z" fill="black"/>
</g>
<path d="M5.42676 10.1326H7.99818V10.5611H5.42676V10.1326Z" fill="white"/>
<path d="M5.42871 5.41943H6.43442C7.24471 5.41943 7.80586 5.976 7.80586 6.70172V6.70972C7.80586 7.43543 7.24586 7.99886 6.43442 7.99886H5.42871V5.41943ZM6.00014 5.93143V7.48572H6.439C6.54205 7.49178 6.64524 7.47607 6.74181 7.4396C6.83839 7.40313 6.9262 7.34672 6.99951 7.27405C7.07284 7.20137 7.13002 7.11407 7.16735 7.01782C7.20467 6.92157 7.2213 6.81853 7.21614 6.71543V6.70857C7.22137 6.60508 7.20486 6.50165 7.16767 6.40492C7.13049 6.30821 7.07345 6.22035 7.00024 6.14702C6.92701 6.0737 6.83924 6.01652 6.74257 5.9792C6.64591 5.94187 6.5425 5.92521 6.439 5.93028L6.00014 5.93143Z" fill="white"/>
<path d="M8.00195 5.42059H8.61338L9.29224 6.51203L9.96995 5.42174H10.5814V8.00117H10.0168L10.018 6.31659L9.29224 7.41831H9.27624L8.55853 6.32803V8.00003H8.00195V5.42059Z" fill="white"/>
</g>
</g>
</g>
<defs>
<filter id="filter0_i_32_13403" x="1" y="1" width="14" height="18" filterUnits="userSpaceOnUse" color-interpolation-filters="sRGB">
<feFlood flood-opacity="0" result="BackgroundImageFix"/>
<feBlend mode="normal" in="SourceGraphic" in2="BackgroundImageFix" result="shape"/>
<feColorMatrix in="SourceAlpha" type="matrix" values="0 0 0 0 0 0 0 0 0 0 0 0 0 0 0 0 0 0 127 0" result="hardAlpha"/>
<feOffset dy="4"/>
<feGaussianBlur stdDeviation="2"/>
<feComposite in2="hardAlpha" operator="arithmetic" k2="-1" k3="1"/>
<feColorMatrix type="matrix" values="0 0 0 0 0 0 0 0 0 0 0 0 0 0 0 0 0 0 0.25 0"/>
<feBlend mode="normal" in2="shape" result="effect1_innerShadow_32_13403"/>
</filter>
<filter id="filter1_d_32_13403" x="-1.48535" y="6.41486" width="15.7666" height="13.0709" filterUnits="userSpaceOnUse" color-interpolation-filters="sRGB">
<feFlood flood-opacity="0" result="BackgroundImageFix"/>
<feColorMatrix in="SourceAlpha" type="matrix" values="0 0 0 0 0 0 0 0 0 0 0 0 0 0 0 0 0 0 127 0" result="hardAlpha"/>
<feOffset dy="2"/>
<feGaussianBlur stdDeviation="2"/>
<feComposite in2="hardAlpha" operator="out"/>
<feColorMatrix type="matrix" values="0 0 0 0 0 0 0 0 0 0 0 0 0 0 0 0 0 0 0.25 0"/>
<feBlend mode="normal" in2="BackgroundImageFix" result="effect1_dropShadow_32_13403"/>
<feBlend mode="normal" in="SourceGraphic" in2="effect1_dropShadow_32_13403" result="shape"/>
</filter>
<filter id="filter2_d_32_13403" x="1.64258" y="0.514282" width="15.4277" height="12.5257" filterUnits="userSpaceOnUse" color-interpolation-filters="sRGB">
<feFlood flood-opacity="0" result="BackgroundImageFix"/>
<feColorMatrix in="SourceAlpha" type="matrix" values="0 0 0 0 0 0 0 0 0 0 0 0 0 0 0 0 0 0 127 0" result="hardAlpha"/>
<feOffset dy="2"/>
<feGaussianBlur stdDeviation="2"/>
<feComposite in2="hardAlpha" operator="out"/>
<feColorMatrix type="matrix" values="0 0 0 0 0 0 0 0 0 0 0 0 0 0 0 0 0 0 0.25 0"/>
<feBlend mode="normal" in2="BackgroundImageFix" result="effect1_dropShadow_32_13403"/>
<feBlend mode="normal" in="SourceGraphic" in2="effect1_dropShadow_32_13403" result="shape"/>
</filter>
<filter id="filter3_d_32_13403" x="-1.48535" y="2.80682" width="18.9717" height="13.7497" filterUnits="userSpaceOnUse" color-interpolation-filters="sRGB">
<feFlood flood-opacity="0" result="BackgroundImageFix"/>
<feColorMatrix in="SourceAlpha" type="matrix" values="0 0 0 0 0 0 0 0 0 0 0 0 0 0 0 0 0 0 127 0" result="hardAlpha"/>
<feOffset dy="2"/>
<feGaussianBlur stdDeviation="2"/>
<feComposite in2="hardAlpha" operator="out"/>
<feColorMatrix type="matrix" values="0 0 0 0 0 0 0 0 0 0 0 0 0 0 0 0 0 0 0.25 0"/>
<feBlend mode="normal" in2="BackgroundImageFix" result="effect1_dropShadow_32_13403"/>
<feBlend mode="normal" in="SourceGraphic" in2="effect1_dropShadow_32_13403" result="shape"/>
</filter>
<filter id="filter4_d_32_13403" x="0.572266" y="2.57141" width="14.8574" height="14.8572" filterUnits="userSpaceOnUse" color-interpolation-filters="sRGB">
<feFlood flood-opacity="0" result="BackgroundImageFix"/>
<feColorMatrix in="SourceAlpha" type="matrix" values="0 0 0 0 0 0 0 0 0 0 0 0 0 0 0 0 0 0 127 0" result="hardAlpha"/>
<feOffset dy="2"/>
<feGaussianBlur stdDeviation="2"/>
<feComposite in2="hardAlpha" operator="out"/>
<feColorMatrix type="matrix" values="0 0 0 0 0 0 0 0 0 0 0 0 0 0 0 0 0 0 0.25 0"/>
<feBlend mode="normal" in2="BackgroundImageFix" result="effect1_dropShadow_32_13403"/>
<feBlend mode="normal" in="SourceGraphic" in2="effect1_dropShadow_32_13403" result="shape"/>
</filter>
<linearGradient id="paint0_linear_32_13403" x1="8" y1="0" x2="8" y2="16" gradientUnits="userSpaceOnUse">
<stop stop-color="#3BEA62"/>
<stop offset="0.510417" stop-color="#087DF7"/>
<stop offset="1" stop-color="#6B57FF"/>
</linearGradient>
<linearGradient id="paint1_linear_32_13403" x1="10.7364" y1="19.8181" x2="1.612" y2="3.88644" gradientUnits="userSpaceOnUse">
<stop stop-color="#6B57FF"/>
<stop offset="0.14" stop-color="#8953FB"/>
<stop offset="0.44" stop-color="#D64AF2"/>
<stop offset="0.59" stop-color="#FF45ED"/>
<stop offset="0.97" stop-color="#FDB60D"/>
</linearGradient>
<linearGradient id="paint2_linear_32_13403" x1="5.45407" y1="5.53714" x2="7.33065" y2="13.3886" gradientUnits="userSpaceOnUse">
<stop stop-color="#6B57FF"/>
<stop offset="0.13" stop-color="#9A51F9"/>
<stop offset="0.27" stop-color="#C64CF4"/>
<stop offset="0.39" stop-color="#E548F0"/>
<stop offset="0.5" stop-color="#F846EE"/>
<stop offset="0.57" stop-color="#FF45ED"/>
<stop offset="0.63" stop-color="#FF57C9"/>
<stop offset="0.81" stop-color="#FE8A65"/>
<stop offset="0.94" stop-color="#FDAA26"/>
<stop offset="1" stop-color="#FDB60D"/>
</linearGradient>
<linearGradient id="paint3_linear_32_13403" x1="10.6266" y1="8.11999" x2="8.76487" y2="2.78513" gradientUnits="userSpaceOnUse">
<stop stop-color="#6B57FF"/>
<stop offset="0.14" stop-color="#8953FB"/>
<stop offset="0.44" stop-color="#D64AF2"/>
<stop offset="0.59" stop-color="#FF45ED"/>
<stop offset="0.97" stop-color="#FDB60D"/>
</linearGradient>
<linearGradient id="paint4_linear_32_13403" x1="6.64492" y1="10.9154" x2="8.19007" y2="7.2514" gradientUnits="userSpaceOnUse">
<stop offset="0.12" stop-color="#FF45ED"/>
<stop offset="0.2" stop-color="#DF49F1"/>
<stop offset="0.3" stop-color="#BC4DF5"/>
<stop offset="0.42" stop-color="#9E51F9"/>
<stop offset="0.53" stop-color="#8854FC"/>
<stop offset="0.66" stop-color="#7855FD"/>
<stop offset="0.81" stop-color="#6E57FF"/>
<stop offset="1" stop-color="#6B57FF"/>
</linearGradient>
<clipPath id="clip0_32_13403">
<rect width="16" height="16" fill="white"/>
</clipPath>
</defs>
</svg>
