<svg width="16" height="16" viewBox="0 0 16 16" fill="none" xmlns="http://www.w3.org/2000/svg">
<g clip-path="url(#clip0_32_13462)">
<path d="M12 0H4C1.79086 0 0 1.79086 0 4V12C0 14.2091 1.79086 16 4 16H12C14.2091 16 16 14.2091 16 12V4C16 1.79086 14.2091 0 12 0Z" fill="url(#paint0_linear_32_13462)"/>
<g filter="url(#filter0_i_32_13462)">
<path d="M12 1H4C2.34315 1 1 2.34315 1 4V12C1 13.6569 2.34315 15 4 15H12C13.6569 15 15 13.6569 15 12V4C15 2.34315 13.6569 1 12 1Z" fill="black" fill-opacity="0.7"/>
<g filter="url(#filter1_d_32_13462)">
<path fill-rule="evenodd" clip-rule="evenodd" d="M6.75 3.75C7.25 3 8.25 3 8.25 3C8.25 3 8.3019 3.10659 8.25 3.25C8.68457 3.05481 9.25 3.25 9.25 3.25C9.25 3.25 9.1708 3.41686 9 3.5C9.43076 3.65736 9.75 4 9.75 4C9.75 4 9.6708 4.15124 9.5 4.25C9.92685 4.29017 10.25 4.75 10.25 4.75C10.25 4.75 10.1367 4.94431 10 5C10.3555 5.15334 10.5 5.20536 10.5 5.49999C10.5 5.79463 9.75 6.24999 9.75 6.24999C9.75 6.24999 9.31259 5.12454 9 4.75C8.68741 4.37546 8.38415 4.17175 8 4C7.61585 3.82825 6.75 3.75 6.75 3.75Z" fill="url(#paint1_linear_32_13462)"/>
<path fill-rule="evenodd" clip-rule="evenodd" d="M8.25 4.25C8.25 4.25 8.25 5.74999 7.5 6.24999C6.75 6.74999 5.25 6.99999 4.25 7.49999C3.25 7.99999 3 8.74999 3 8.74999C3 8.74999 4 8.24999 4.5 8.24999C5 8.24999 5.75 8.49999 5.75 8.49999C5.75 8.49999 6.25 7.99999 7 7.99999C7.75 7.99999 8.5 8.24999 8.5 8.24999L8.75 5.49999L8.25 4.25Z" fill="url(#paint2_linear_32_13462)"/>
<path fill-rule="evenodd" clip-rule="evenodd" d="M8.5 5C8.5 5 8.54688 5.87499 7.79688 6.37499C7.04688 6.87499 5.11661 7.18485 4.17188 7.70311C3.48041 8.08245 3 8.74999 3 8.74999C3 8.74999 4 8.24999 4.5 8.24999C5 8.24999 5.75 8.49999 5.75 8.49999C5.75 8.49999 6.25 7.99999 7 7.99999C7.75 7.99999 8.5 8.24999 8.5 8.24999L8.75 5.49999L8.5 5Z" fill="url(#paint3_linear_32_13462)"/>
<path fill-rule="evenodd" clip-rule="evenodd" d="M7.75 3.40626C7.5 3.43751 7.5 3.75001 7.5 3.75001L8.25 5.25001C8.75 6.25001 8.5 8.50001 6.75 9.50001C6.75 9.50001 6.86922 9.55841 7.05909 9.63136C6.28935 10.2621 5.14566 11 4 11H8.4336C8.74954 10.6706 9.02065 10.3012 9.25733 9.93556C9.27154 9.83448 9.32031 9.60938 9.5 9.25001C9.75 8.75001 10 7.75001 10 7.75001C10 7.75001 10.25 7.75001 10.5 8.00001C10.7088 8.20885 9.74089 9.40958 9.40185 9.8174C9.61156 9.748 9.81449 9.64842 10 9.50001C11.25 8.50001 10.5635 5.94645 9.5 4.75001C8.5 3.62501 8 3.37501 7.75 3.40626Z" fill="url(#paint4_linear_32_13462)"/>
<path opacity="0.2" fill-rule="evenodd" clip-rule="evenodd" d="M8 3.5L7.625 4L8.25 5.25C8.36468 5.47936 8.43764 5.77622 8.46435 6.10694L9.75 5.25L8 3.5Z" fill="url(#paint5_linear_32_13462)"/>
<path fill-rule="evenodd" clip-rule="evenodd" d="M8.19224 9.0862C7.70596 9.69306 7.73163 9.76317 7.04931 10.2749C7.04559 10.2777 7.04134 10.2804 7.03759 10.2832L7.73339 10.9683C10.2398 8.87436 8.19224 9.0862 8.19224 9.0862ZM6.83154 10.4316C6.54853 10.6323 6.23559 10.8299 5.89941 11H7.40918L6.83154 10.4316Z" fill="#2980B9"/>
<path opacity="0.2" fill-rule="evenodd" clip-rule="evenodd" d="M7.05909 9.63131C6.28935 10.2621 5.14568 11 4 11H8.4336C8.7754 10.6436 9.0667 10.2402 9.3164 9.84566C9.55654 9.77639 6.86923 9.55836 7.05909 9.63131Z" fill="url(#paint6_linear_32_13462)"/>
<path d="M4 11V13H12V11H4Z" fill="url(#paint7_linear_32_13462)"/>
<path d="M4 11.5V12.5H5.25V11.5H4ZM5.5 11.5V12.5H7V11.5H5.5ZM7.25 11.5V12.5H8.75V11.5H7.25ZM9 11.5V12.5H10.5V11.5H9ZM10.75 11.5V12.5H12V11.5H10.75Z" fill="url(#paint8_linear_32_13462)"/>
<path fill-rule="evenodd" clip-rule="evenodd" d="M11.25 3.75C11 3.75 11 4.49999 10.25 5.24999C9.5 5.99999 9.25 5.99999 9.25 5.99999C9.25 5.99999 10 6.49999 10 7.49999C10.75 7.99999 10.75 8.99999 10.75 8.99999L11.75 6.24999L11.5 4.25L11.25 3.75Z" fill="url(#paint9_linear_32_13462)"/>
<path fill-rule="evenodd" clip-rule="evenodd" d="M11.25 3.75C11 3.75 11 4.49999 10.25 5.24999C9.5 5.99999 9.25 5.99999 9.25 5.99999C9.25 5.99999 10 6.49999 10 7.49999C10 8.49999 9.5 9.24999 9.5 9.24999L11.75 6.24999L11.5 4.25L11.25 3.75Z" fill="url(#paint10_linear_32_13462)"/>
<path fill-rule="evenodd" clip-rule="evenodd" d="M11.2498 3.75C10.7498 7.125 9.42172 7.34374 9.26547 8.31249C9.10623 9.29974 9.49985 9.24999 9.49985 9.24999L11.7498 6.24999L11.4998 4.25L11.2498 3.75Z" fill="url(#paint11_linear_32_13462)"/>
<path fill-rule="evenodd" clip-rule="evenodd" d="M11.25 3.75C11.5 3.75 12.25 5.24999 12 7.49999C11.75 9.74999 10.5 10.25 10.5 10.25C10.5 10.25 8.75 9.99999 8.25 9.99999C7.75 9.99999 7.5 10.25 7.5 10.25C7.5 10.25 6.75 9.74999 5.75 9.74999C4.75 9.74999 3.5 10.75 3.5 10.75C3.5 10.75 3.75 9.74999 5.25 9.24999C6.75 8.74999 9.19978 9.21027 10 8.24999C12.5 5.24999 11 3.75 11.25 3.75Z" fill="url(#paint12_linear_32_13462)"/>
<path fill-rule="evenodd" clip-rule="evenodd" d="M7.49978 4.75003C6.96945 4.9268 6.24978 4.75003 5.99978 5.00003L5.74978 5.25002C5.74978 5.25002 5.49978 4.75003 5.74978 4.50003C5.99978 4.25003 6.49978 4.25003 6.74978 3.75003C6.99978 3.25003 7.74978 3.25003 7.99978 3.50003C8.49978 4.00003 8.24978 4.50003 7.49978 4.75003Z" fill="url(#paint13_linear_32_13462)"/>
<path fill-rule="evenodd" clip-rule="evenodd" d="M7.79688 6.37497C7.04688 6.87497 5.11661 7.18482 4.17188 7.7031C3.48041 8.08242 3 8.74997 3 8.74997C3 8.74997 4 8.24997 4.5 8.24997C5 8.24997 5.75 8.49997 5.75 8.49997C5.75 8.49997 8.54688 5.87497 7.79688 6.37497Z" fill="url(#paint14_linear_32_13462)"/>
</g>
</g>
</g>
<defs>
<filter id="filter0_i_32_13462" x="1" y="1" width="14" height="18" filterUnits="userSpaceOnUse" color-interpolation-filters="sRGB">
<feFlood flood-opacity="0" result="BackgroundImageFix"/>
<feBlend mode="normal" in="SourceGraphic" in2="BackgroundImageFix" result="shape"/>
<feColorMatrix in="SourceAlpha" type="matrix" values="0 0 0 0 0 0 0 0 0 0 0 0 0 0 0 0 0 0 127 0" result="hardAlpha"/>
<feOffset dy="4"/>
<feGaussianBlur stdDeviation="2"/>
<feComposite in2="hardAlpha" operator="arithmetic" k2="-1" k3="1"/>
<feColorMatrix type="matrix" values="0 0 0 0 0 0 0 0 0 0 0 0 0 0 0 0 0 0 0.25 0"/>
<feBlend mode="normal" in2="shape" result="effect1_innerShadow_32_13462"/>
</filter>
<filter id="filter1_d_32_13462" x="-1" y="1" width="17.0508" height="18" filterUnits="userSpaceOnUse" color-interpolation-filters="sRGB">
<feFlood flood-opacity="0" result="BackgroundImageFix"/>
<feColorMatrix in="SourceAlpha" type="matrix" values="0 0 0 0 0 0 0 0 0 0 0 0 0 0 0 0 0 0 127 0" result="hardAlpha"/>
<feOffset dy="2"/>
<feGaussianBlur stdDeviation="2"/>
<feComposite in2="hardAlpha" operator="out"/>
<feColorMatrix type="matrix" values="0 0 0 0 0 0 0 0 0 0 0 0 0 0 0 0 0 0 0.25 0"/>
<feBlend mode="normal" in2="BackgroundImageFix" result="effect1_dropShadow_32_13462"/>
<feBlend mode="normal" in="SourceGraphic" in2="effect1_dropShadow_32_13462" result="shape"/>
</filter>
<linearGradient id="paint0_linear_32_13462" x1="16" y1="-1069.6" x2="8" y2="-1069.6" gradientUnits="userSpaceOnUse">
<stop stop-color="#2F3943"/>
<stop offset="1" stop-color="#808C9B"/>
</linearGradient>
<linearGradient id="paint1_linear_32_13462" x1="10.0646" y1="5.57516" x2="10" y2="3" gradientUnits="userSpaceOnUse">
<stop stop-color="#197CF1"/>
<stop offset="1" stop-color="#21C9FB"/>
</linearGradient>
<linearGradient id="paint2_linear_32_13462" x1="8.53533" y1="5.30675" x2="3.88865" y2="8.06889" gradientUnits="userSpaceOnUse">
<stop stop-color="#197CF1"/>
<stop offset="1" stop-color="#21C9FB"/>
</linearGradient>
<linearGradient id="paint3_linear_32_13462" x1="7.5625" y1="6.73436" x2="8.79688" y2="7.96874" gradientUnits="userSpaceOnUse">
<stop stop-color="#18222A"/>
<stop offset="1" stop-color="#566069"/>
</linearGradient>
<linearGradient id="paint4_linear_32_13462" x1="-94.1429" y1="9.25" x2="-94.1429" y2="2.75001" gradientUnits="userSpaceOnUse">
<stop stop-color="#2F3943"/>
<stop offset="1" stop-color="#808C9B"/>
</linearGradient>
<linearGradient id="paint5_linear_32_13462" x1="7.75" y1="4.25" x2="8.75" y2="5.75" gradientUnits="userSpaceOnUse">
<stop/>
<stop offset="1" stop-opacity="0"/>
</linearGradient>
<linearGradient id="paint6_linear_32_13462" x1="6.75" y1="9.74996" x2="8.25" y2="11.25" gradientUnits="userSpaceOnUse">
<stop/>
<stop offset="1" stop-opacity="0"/>
</linearGradient>
<linearGradient id="paint7_linear_32_13462" x1="12" y1="-122.699" x2="8" y2="-122.699" gradientUnits="userSpaceOnUse">
<stop stop-color="#2F3943"/>
<stop offset="1" stop-color="#808C9B"/>
</linearGradient>
<linearGradient id="paint8_linear_32_13462" x1="12" y1="2.25" x2="8" y2="2.25" gradientUnits="userSpaceOnUse">
<stop stop-color="#197CF1"/>
<stop offset="1" stop-color="#21C9FB"/>
</linearGradient>
<linearGradient id="paint9_linear_32_13462" x1="-94.1429" y1="9.24999" x2="-94.1429" y2="2.75" gradientUnits="userSpaceOnUse">
<stop stop-color="#2F3943"/>
<stop offset="1" stop-color="#808C9B"/>
</linearGradient>
<linearGradient id="paint10_linear_32_13462" x1="11.25" y1="3.75" x2="9.5" y2="6.24999" gradientUnits="userSpaceOnUse">
<stop stop-color="#18222A"/>
<stop offset="1" stop-color="#18222A" stop-opacity="0"/>
</linearGradient>
<linearGradient id="paint11_linear_32_13462" x1="11.0936" y1="4.45313" x2="12.0702" y2="5.42968" gradientUnits="userSpaceOnUse">
<stop stop-color="#18222A"/>
<stop offset="1" stop-color="#18222A" stop-opacity="0"/>
</linearGradient>
<linearGradient id="paint12_linear_32_13462" x1="11.75" y1="8.99999" x2="8.75" y2="6.87499" gradientUnits="userSpaceOnUse">
<stop stop-color="#197CF1"/>
<stop offset="1" stop-color="#21C9FB"/>
</linearGradient>
<linearGradient id="paint13_linear_32_13462" x1="-94.1431" y1="5.25002" x2="-94.1431" y2="2.50003" gradientUnits="userSpaceOnUse">
<stop stop-color="#2F3943"/>
<stop offset="1" stop-color="#808C9B"/>
</linearGradient>
<linearGradient id="paint14_linear_32_13462" x1="5.875" y1="6.87496" x2="7.16406" y2="8.16402" gradientUnits="userSpaceOnUse">
<stop stop-color="#18222A"/>
<stop offset="1" stop-color="#566069"/>
</linearGradient>
<clipPath id="clip0_32_13462">
<rect width="16" height="16" fill="white"/>
</clipPath>
</defs>
</svg>
