<svg width="16" height="16" viewBox="0 0 16 16" fill="none" xmlns="http://www.w3.org/2000/svg">
<g clip-path="url(#clip0_32_13482)">
<path d="M12 0H4C1.79086 0 0 1.79086 0 4V12C0 14.2091 1.79086 16 4 16H12C14.2091 16 16 14.2091 16 12V4C16 1.79086 14.2091 0 12 0Z" fill="url(#paint0_linear_32_13482)"/>
<g filter="url(#filter0_i_32_13482)">
<path d="M12 1H4C2.34315 1 1 2.34315 1 4V12C1 13.6569 2.34315 15 4 15H12C13.6569 15 15 13.6569 15 12V4C15 2.34315 13.6569 1 12 1Z" fill="black" fill-opacity="0.7"/>
<g filter="url(#filter1_d_32_13482)">
<path d="M3.74999 4C3.30015 4 3 4.30061 3 4.74999V11.2499C3 11.6993 3.3021 11.9999 3.74999 11.9999H12.2499C12.522 11.9999 12.9999 11.6999 12.9999 11.2499V4.74999C12.9999 4.29994 12.6987 4 12.2499 4H3.74999ZM5.74996 6.99996C6.16419 6.99996 6.49995 7.33572 6.49995 7.74995C6.49995 8.16417 6.16419 8.49994 5.74996 8.49994C5.33575 8.49994 4.99998 8.16417 4.99998 7.74995C4.99998 7.33572 5.33575 6.99996 5.74996 6.99996ZM10.2499 6.99996C10.6641 6.99996 10.9999 7.33572 10.9999 7.74995C10.9999 8.16417 10.6641 8.49994 10.2499 8.49994C9.83569 8.49994 9.49991 8.16417 9.49991 7.74995C9.49991 7.33572 9.83569 6.99996 10.2499 6.99996Z" fill="#141414"/>
<path d="M3.75 5.2558L3.75001 9.50579C3.75001 9.75565 4.00004 10.0058 4.25 10.0058H11.75C12.0001 10.0058 12.25 9.75689 12.25 9.50579V5.2558C12.25 5.00612 12.0011 4.7558 11.75 4.7558H4.25C3.99969 4.7558 3.75 5.00484 3.75 5.2558ZM5.75004 7.00581C6.16425 7.00581 6.50004 7.3416 6.50004 7.75581C6.50004 8.17002 6.16425 8.50582 5.75004 8.50582C5.33581 8.50582 5.00004 8.17002 5.00004 7.75581C5.00004 7.3416 5.33581 7.00581 5.75004 7.00581ZM10.25 7.00581C10.6642 7.00581 11 7.3416 11 7.75581C11 8.17002 10.6642 8.50582 10.25 8.50582C9.83581 8.50582 9.50004 8.17002 9.50004 7.75581C9.50004 7.3416 9.83581 7.00581 10.25 7.00581Z" fill="#58BEB1"/>
<path d="M3.75 12.0063L4.74997 10.2563H11.25L12.25 12.0063H3.75Z" fill="#3F3F3F"/>
<path d="M5.75 11.5048C6.02614 11.5048 6.25 11.2809 6.25 11.0048C6.25 10.7286 6.02614 10.5048 5.75 10.5048C5.47385 10.5048 5.25 10.7286 5.25 11.0048C5.25 11.2809 5.47385 11.5048 5.75 11.5048Z" fill="#141414"/>
<path d="M10.25 11.5048C10.5261 11.5048 10.75 11.2809 10.75 11.0048C10.75 10.7286 10.5261 10.5048 10.25 10.5048C9.97386 10.5048 9.75 10.7286 9.75 11.0048C9.75 11.2809 9.97386 11.5048 10.25 11.5048Z" fill="#141414"/>
<path d="M5.75006 6.75281C5.1997 6.75281 4.75 7.20316 4.75 7.7521C4.75 8.30236 5.19884 8.75207 5.75006 8.75207H10.2501C10.7988 8.75207 11.25 8.3028 11.25 7.75351V7.75162C11.25 7.20236 10.7989 6.75156 10.2501 6.75165L5.75006 6.75281ZM5.75006 7.00207C6.16427 7.00207 6.50006 7.33786 6.50006 7.75207C6.50006 8.16629 6.16427 8.50207 5.75006 8.50207C5.33584 8.50207 5.00005 8.16629 5.00005 7.75207C5.00005 7.33786 5.33584 7.00207 5.75006 7.00207ZM10.2501 7.00207C10.6643 7.00207 11.0001 7.33786 11.0001 7.75207C11.0001 8.16629 10.6643 8.50207 10.2501 8.50207C9.83584 8.50207 9.50006 8.16629 9.50006 7.75207C9.50006 7.33786 9.83584 7.00207 10.2501 7.00207Z" fill="#141414"/>
<path d="M9.24998 7.25354H6.75V8.2535H9.24998V7.25354Z" fill="#DBE2E3"/>
</g>
</g>
</g>
<defs>
<filter id="filter0_i_32_13482" x="1" y="1" width="14" height="18" filterUnits="userSpaceOnUse" color-interpolation-filters="sRGB">
<feFlood flood-opacity="0" result="BackgroundImageFix"/>
<feBlend mode="normal" in="SourceGraphic" in2="BackgroundImageFix" result="shape"/>
<feColorMatrix in="SourceAlpha" type="matrix" values="0 0 0 0 0 0 0 0 0 0 0 0 0 0 0 0 0 0 127 0" result="hardAlpha"/>
<feOffset dy="4"/>
<feGaussianBlur stdDeviation="2"/>
<feComposite in2="hardAlpha" operator="arithmetic" k2="-1" k3="1"/>
<feColorMatrix type="matrix" values="0 0 0 0 0 0 0 0 0 0 0 0 0 0 0 0 0 0 0.25 0"/>
<feBlend mode="normal" in2="shape" result="effect1_innerShadow_32_13482"/>
</filter>
<filter id="filter1_d_32_13482" x="-1" y="2" width="18" height="16.0063" filterUnits="userSpaceOnUse" color-interpolation-filters="sRGB">
<feFlood flood-opacity="0" result="BackgroundImageFix"/>
<feColorMatrix in="SourceAlpha" type="matrix" values="0 0 0 0 0 0 0 0 0 0 0 0 0 0 0 0 0 0 127 0" result="hardAlpha"/>
<feOffset dy="2"/>
<feGaussianBlur stdDeviation="2"/>
<feComposite in2="hardAlpha" operator="out"/>
<feColorMatrix type="matrix" values="0 0 0 0 0 0 0 0 0 0 0 0 0 0 0 0 0 0 0.25 0"/>
<feBlend mode="normal" in2="BackgroundImageFix" result="effect1_dropShadow_32_13482"/>
<feBlend mode="normal" in="SourceGraphic" in2="effect1_dropShadow_32_13482" result="shape"/>
</filter>
<linearGradient id="paint0_linear_32_13482" x1="7.95135" y1="16.0123" x2="7.95135" y2="-0.0103629" gradientUnits="userSpaceOnUse">
<stop stop-color="#2CA0B9"/>
<stop offset="1" stop-color="#87DEAA"/>
</linearGradient>
<clipPath id="clip0_32_13482">
<rect width="16" height="16" fill="white"/>
</clipPath>
</defs>
</svg>
