<svg width="16" height="16" viewBox="0 0 16 16" fill="none" xmlns="http://www.w3.org/2000/svg">
<g clip-path="url(#clip0_32_13494)">
<path d="M12 0H4C1.79086 0 0 1.79086 0 4V12C0 14.2091 1.79086 16 4 16H12C14.2091 16 16 14.2091 16 12V4C16 1.79086 14.2091 0 12 0Z" fill="url(#paint0_linear_32_13494)"/>
<g filter="url(#filter0_i_32_13494)">
<path d="M12 1H4C2.34315 1 1 2.34315 1 4V12C1 13.6569 2.34315 15 4 15H12C13.6569 15 15 13.6569 15 12V4C15 2.34315 13.6569 1 12 1Z" fill="black" fill-opacity="0.7"/>
<g filter="url(#filter1_d_32_13494)">
<path d="M7.60022 3C7.59731 3 6.99359 3.59581 6.25903 4.32327L4.92284 5.64656L5.13616 5.8603L5.34949 6.07362L4.17495 7.23649L3 8.40019L3.76246 9.17016C4.2041 9.61612 4.64603 10.0618 5.08825 10.5072L5.65114 11.0734L5.8628 10.8667C5.97946 10.753 6.07737 10.6593 6.08112 10.6593C6.08445 10.6593 6.6086 11.1859 7.24524 11.8292L8.40394 12.9996L8.48185 12.9237C8.57769 12.83 10.568 10.8613 10.8638 10.5672L11.0805 10.3522L10.8713 10.1384C10.7563 10.021 10.663 9.9218 10.6647 9.91762C10.6659 9.91387 11.1913 9.39265 11.8321 8.75809C12.4729 8.12395 12.9988 7.60147 13 7.59772C13.0021 7.59272 11.493 6.06279 10.4555 5.01741L10.3539 4.91659L10.1434 5.127C10.0272 5.24282 9.92804 5.33574 9.92262 5.33407C9.91721 5.33199 9.39349 4.80617 8.75893 4.16536C8.3744 3.77522 7.98816 3.38676 7.60022 3ZM6.84275 6.06945C6.88068 6.08529 10.1555 7.98937 10.158 7.99729C10.1593 8.00271 9.41599 8.43727 8.50603 8.96391C7.95179 9.2856 7.3968 9.606 6.84109 9.92512C6.83317 9.92762 6.83025 9.39765 6.83025 7.99646C6.83025 6.45485 6.83318 6.0657 6.84275 6.06945Z" fill="white"/>
</g>
</g>
</g>
<defs>
<filter id="filter0_i_32_13494" x="1" y="1" width="14" height="18" filterUnits="userSpaceOnUse" color-interpolation-filters="sRGB">
<feFlood flood-opacity="0" result="BackgroundImageFix"/>
<feBlend mode="normal" in="SourceGraphic" in2="BackgroundImageFix" result="shape"/>
<feColorMatrix in="SourceAlpha" type="matrix" values="0 0 0 0 0 0 0 0 0 0 0 0 0 0 0 0 0 0 127 0" result="hardAlpha"/>
<feOffset dy="4"/>
<feGaussianBlur stdDeviation="2"/>
<feComposite in2="hardAlpha" operator="arithmetic" k2="-1" k3="1"/>
<feColorMatrix type="matrix" values="0 0 0 0 0 0 0 0 0 0 0 0 0 0 0 0 0 0 0.25 0"/>
<feBlend mode="normal" in2="shape" result="effect1_innerShadow_32_13494"/>
</filter>
<filter id="filter1_d_32_13494" x="-1" y="1" width="18" height="17.9996" filterUnits="userSpaceOnUse" color-interpolation-filters="sRGB">
<feFlood flood-opacity="0" result="BackgroundImageFix"/>
<feColorMatrix in="SourceAlpha" type="matrix" values="0 0 0 0 0 0 0 0 0 0 0 0 0 0 0 0 0 0 127 0" result="hardAlpha"/>
<feOffset dy="2"/>
<feGaussianBlur stdDeviation="2"/>
<feComposite in2="hardAlpha" operator="out"/>
<feColorMatrix type="matrix" values="0 0 0 0 0 0 0 0 0 0 0 0 0 0 0 0 0 0 0.25 0"/>
<feBlend mode="normal" in2="BackgroundImageFix" result="effect1_dropShadow_32_13494"/>
<feBlend mode="normal" in="SourceGraphic" in2="effect1_dropShadow_32_13494" result="shape"/>
</filter>
<linearGradient id="paint0_linear_32_13494" x1="179.035" y1="218.076" x2="157.19" y2="218.443" gradientUnits="userSpaceOnUse">
<stop stop-color="#FCFCFC"/>
<stop offset="1" stop-color="#D0D6DC"/>
</linearGradient>
<clipPath id="clip0_32_13494">
<rect width="16" height="16" fill="white"/>
</clipPath>
</defs>
</svg>
