<svg width="16" height="16" viewBox="0 0 16 16" fill="none" xmlns="http://www.w3.org/2000/svg">
<g clip-path="url(#clip0_32_13500)">
<path d="M12 0H4C1.79086 0 0 1.79086 0 4V12C0 14.2091 1.79086 16 4 16H12C14.2091 16 16 14.2091 16 12V4C16 1.79086 14.2091 0 12 0Z" fill="url(#paint0_linear_32_13500)"/>
<g filter="url(#filter0_i_32_13500)">
<path d="M12 1H4C2.34315 1 1 2.34315 1 4V12C1 13.6569 2.34315 15 4 15H12C13.6569 15 15 13.6569 15 12V4C15 2.34315 13.6569 1 12 1Z" fill="black" fill-opacity="0.7"/>
<path d="M8.05618 12.8605C10.7796 12.8605 12.9874 10.6532 12.9874 7.93025C12.9874 5.20735 10.7796 3 8.05618 3C5.33276 3 3.125 5.20735 3.125 7.93025C3.125 10.6532 5.33276 12.8605 8.05618 12.8605Z" fill="url(#paint1_linear_32_13500)"/>
<path opacity="0.4" d="M11.8099 6.80174L7.49662 4.93024L5.33209 5.05124L6.50994 6.24124L4.42188 9.03624L4.81087 9.43024L5.27659 10.1802L5.1614 11.9155C5.22582 11.9627 5.29137 12.0083 5.35799 12.0522L11.2048 11.7172L11.2058 11.7182C12.3153 10.7962 12.9652 9.43474 12.9845 7.99224L11.8099 6.80174Z" fill="url(#paint2_linear_32_13500)"/>
<path fill-rule="evenodd" clip-rule="evenodd" d="M4.84729 12.7502C4.84729 12.7502 6.38824 7.25949 12.3868 7.95774C12.3868 7.95774 8.57448 5.65324 4.87369 8.75999C3.78044 11.338 4.84729 12.7502 4.84729 12.7502Z" fill="url(#paint3_linear_32_13500)"/>
<path fill-rule="evenodd" clip-rule="evenodd" d="M5.30664 12.0558C5.30664 12.0558 6.91444 8.10825 11.2065 8.039C7.94404 8.84825 11.2119 11.7175 11.2119 11.7175C11.2119 11.7175 8.63127 14.0983 5.30664 12.0558Z" fill="url(#paint4_linear_32_13500)"/>
<path fill-rule="evenodd" clip-rule="evenodd" d="M4.41113 9.02975C4.41113 9.02975 7.62277 5.43275 12.4188 7.918C12.3329 7.242 11.7656 6.479 10.7488 6.261C10.5239 6.152 8.87536 3.55775 5.33195 5.051C6.42198 5.1375 6.88967 5.293 6.91631 5.411C5.03101 5.081 4.4723 7.8125 4.41113 9.02975Z" fill="url(#paint5_linear_32_13500)"/>
<path fill-rule="evenodd" clip-rule="evenodd" d="M9.01758 5.97826C9.01758 5.97826 9.83924 5.67876 9.94629 6.57001C9.13598 6.64751 9.01758 5.97826 9.01758 5.97826Z" fill="#202020"/>
<path fill-rule="evenodd" clip-rule="evenodd" d="M4.82676 12.7677C4.82676 12.7677 6.2313 8.10224 10.9279 7.92149C10.9279 7.92149 7.11685 7.21349 4.42519 11.555C4.41039 12.1692 4.82676 12.768 4.82676 12.768V12.7677Z" fill="#FDD664"/>
<path fill-rule="evenodd" clip-rule="evenodd" d="M5.33594 5.0515C5.33594 5.0515 6.50762 5.121 6.92572 5.414C7.10037 5.37725 7.24887 5.2555 7.27379 5.08975C7.12405 5.0265 5.75257 4.913 5.33619 5.0515H5.33594Z" fill="url(#paint6_linear_32_13500)"/>
<path fill-rule="evenodd" clip-rule="evenodd" d="M5.33594 5.0515C5.33594 5.0515 6.50762 5.121 6.92572 5.414C7.10037 5.37725 7.24887 5.2555 7.27379 5.08975C7.12405 5.0265 5.75257 4.913 5.33619 5.0515H5.33594Z" fill="#FDD664"/>
<path fill-rule="evenodd" clip-rule="evenodd" d="M4.4216 9.03602C4.4216 9.03602 5.8883 7.24227 8.84883 7.02802C8.84883 7.02802 4.81824 7.21351 4.4803 8.37226C4.38608 8.65101 4.4216 9.03602 4.4216 9.03602Z" fill="#FDD664"/>
</g>
</g>
<defs>
<filter id="filter0_i_32_13500" x="1" y="1" width="14" height="18" filterUnits="userSpaceOnUse" color-interpolation-filters="sRGB">
<feFlood flood-opacity="0" result="BackgroundImageFix"/>
<feBlend mode="normal" in="SourceGraphic" in2="BackgroundImageFix" result="shape"/>
<feColorMatrix in="SourceAlpha" type="matrix" values="0 0 0 0 0 0 0 0 0 0 0 0 0 0 0 0 0 0 127 0" result="hardAlpha"/>
<feOffset dy="4"/>
<feGaussianBlur stdDeviation="2"/>
<feComposite in2="hardAlpha" operator="arithmetic" k2="-1" k3="1"/>
<feColorMatrix type="matrix" values="0 0 0 0 0 0 0 0 0 0 0 0 0 0 0 0 0 0 0.25 0"/>
<feBlend mode="normal" in2="shape" result="effect1_innerShadow_32_13500"/>
</filter>
<linearGradient id="paint0_linear_32_13500" x1="24.025" y1="-4.42269" x2="-3.54496" y2="15.9934" gradientUnits="userSpaceOnUse">
<stop stop-color="#D446FF"/>
<stop offset="1" stop-color="#A0D8FF"/>
</linearGradient>
<linearGradient id="paint1_linear_32_13500" x1="17.934" y1="0.274383" x2="0.942166" y2="12.8595" gradientUnits="userSpaceOnUse">
<stop stop-color="#D446FF"/>
<stop offset="1" stop-color="#A0D8FF"/>
</linearGradient>
<linearGradient id="paint2_linear_32_13500" x1="7.98996" y1="7.93024" x2="12.9895" y2="12.8632" gradientUnits="userSpaceOnUse">
<stop stop-color="#292C2F"/>
<stop offset="1" stop-opacity="0"/>
</linearGradient>
<linearGradient id="paint3_linear_32_13500" x1="7.72794" y1="8.30702" x2="11.2149" y2="5.60977" gradientUnits="userSpaceOnUse">
<stop stop-color="white"/>
<stop offset="1" stop-color="#DADADA"/>
</linearGradient>
<linearGradient id="paint4_linear_32_13500" x1="8.39379" y1="11.4568" x2="6.12382" y2="8.03153" gradientUnits="userSpaceOnUse">
<stop stop-color="white"/>
<stop offset="1" stop-color="#DADADA"/>
</linearGradient>
<linearGradient id="paint5_linear_32_13500" x1="12.3132" y1="5.16633" x2="8.59124" y2="8.11524" gradientUnits="userSpaceOnUse">
<stop stop-color="#D0D0D0"/>
<stop offset="1" stop-color="white"/>
</linearGradient>
<linearGradient id="paint6_linear_32_13500" x1="7.19066" y1="4.99581" x2="6.4158" y2="6.06508" gradientUnits="userSpaceOnUse">
<stop stop-color="#FFDC68"/>
<stop offset="1" stop-color="#CE4300"/>
</linearGradient>
<clipPath id="clip0_32_13500">
<rect width="16" height="16" fill="white"/>
</clipPath>
</defs>
</svg>
