<svg width="16" height="16" viewBox="0 0 16 16" fill="none" xmlns="http://www.w3.org/2000/svg">
<g clip-path="url(#clip0_32_13514)">
<path d="M12 0H4C1.79086 0 0 1.79086 0 4V12C0 14.2091 1.79086 16 4 16H12C14.2091 16 16 14.2091 16 12V4C16 1.79086 14.2091 0 12 0Z" fill="url(#paint0_linear_32_13514)"/>
<g filter="url(#filter0_i_32_13514)">
<path d="M12 1H4C2.34315 1 1 2.34315 1 4V12C1 13.6569 2.34315 15 4 15H12C13.6569 15 15 13.6569 15 12V4C15 2.34315 13.6569 1 12 1Z" fill="black" fill-opacity="0.7"/>
<g filter="url(#filter1_d_32_13514)">
<path d="M12.4405 6.38458C12.2322 5.88702 11.8098 5.3498 11.479 5.17997C11.7149 5.63356 11.8786 6.12068 11.9644 6.62403L11.9652 6.63201C11.4233 5.29111 10.5047 4.74958 9.75404 3.57198C9.71608 3.51243 9.6781 3.45276 9.64113 3.38976C9.61999 3.35378 9.60304 3.32136 9.58833 3.29152C9.5572 3.23167 9.5332 3.16841 9.51684 3.10303C9.51686 3.10002 9.51577 3.0971 9.51377 3.09483C9.51175 3.09257 9.50898 3.09112 9.50597 3.09076C9.503 3.08995 9.49989 3.08995 9.49694 3.09076C9.49632 3.09076 9.49533 3.09186 9.49459 3.09211C9.49384 3.09236 9.49224 3.09346 9.49113 3.09395L9.49298 3.09076C8.28908 3.79068 7.88035 5.08616 7.84325 5.73451C7.3623 5.76726 6.90245 5.94317 6.52372 6.23932C6.48422 6.2061 6.44294 6.17502 6.40005 6.14625C6.29085 5.76667 6.28619 5.36497 6.38657 4.98301C5.94444 5.19567 5.55159 5.49715 5.23288 5.86836H5.23065C5.04069 5.62928 5.05405 4.84095 5.06494 4.67627C5.00874 4.6987 4.9551 4.72697 4.90492 4.76063C4.73722 4.87947 4.58045 5.01281 4.43645 5.1591C4.27237 5.3243 4.12249 5.50285 3.9884 5.69288C3.68029 6.12655 3.46173 6.61638 3.34534 7.13437L3.3389 7.1658C3.32988 7.20767 3.29735 7.41741 3.29179 7.46296C3.29179 7.46652 3.29105 7.46983 3.29068 7.4734C3.24872 7.68993 3.22273 7.90921 3.21289 8.12948V8.15405C3.215 9.34497 3.6667 10.4918 4.47879 11.3682C5.29089 12.2446 6.40438 12.7869 7.59945 12.888C8.79452 12.989 9.98433 12.6416 10.934 11.9142C11.8837 11.1867 12.5242 10.1323 12.7292 8.95883C12.7372 8.89745 12.7437 8.83666 12.7509 8.77465C12.8495 7.96445 12.7427 7.14258 12.44 6.38385L12.4405 6.38458ZM6.91624 10.1102C6.93863 10.1208 6.95964 10.1324 6.98265 10.1426L6.98599 10.1447C6.96274 10.1336 6.93949 10.1221 6.91624 10.1102ZM11.9653 6.63337V6.62882L11.9662 6.63386L11.9653 6.63337Z" fill="url(#paint1_linear_32_13514)"/>
</g>
<path d="M12.4405 6.38461C12.2322 5.88704 11.8098 5.34982 11.4789 5.17999C11.7148 5.63358 11.8786 6.12071 11.9643 6.62406V6.62859L11.9652 6.63363C12.3347 7.68341 12.2813 8.83436 11.8161 9.84593C11.2667 11.0163 9.93755 12.2159 7.85623 12.1569C5.60794 12.0937 3.62679 10.4366 3.25703 8.26679C3.18963 7.92457 3.25703 7.75106 3.29092 7.47293C3.24469 7.68897 3.21889 7.90883 3.21387 8.12963V8.15419C3.21598 9.34512 3.66768 10.492 4.47977 11.3684C5.29187 12.2448 6.40535 12.787 7.60043 12.8881C8.7955 12.9891 9.9853 12.6418 10.935 11.9143C11.8846 11.1869 12.5252 10.1324 12.73 8.95898C12.7382 8.89758 12.7447 8.83681 12.7519 8.77479C12.8505 7.96458 12.7437 7.14273 12.441 6.38399L12.4405 6.38461Z" fill="url(#paint2_radial_32_13514)"/>
<path d="M10.1111 6.9433C10.1215 6.95055 10.1311 6.95779 10.1409 6.96504C10.0205 6.75305 9.87062 6.55898 9.69569 6.38851C8.20549 4.90885 9.30526 3.18114 9.49065 3.09273L9.4925 3.09003C8.2886 3.78995 7.87987 5.08543 7.84277 5.73378C7.89867 5.72998 7.95407 5.7253 8.01121 5.7253C8.43834 5.72613 8.85764 5.83924 9.22646 6.05313C9.5953 6.26701 9.90051 6.57406 10.1111 6.94305V6.9433Z" fill="#FF980E"/>
<path d="M8.01314 7.23921C8.00523 7.35759 7.58401 7.76587 7.43673 7.76587C6.0739 7.76587 5.85254 8.58454 5.85254 8.58454C5.91289 9.2739 6.39668 9.84195 6.9815 10.1416C7.00821 10.1553 7.0353 10.1677 7.06238 10.1799C7.10929 10.2005 7.1562 10.2196 7.20311 10.2371C7.40383 10.3076 7.61404 10.3479 7.82678 10.3566C10.216 10.4678 10.6786 7.52004 8.9545 6.66416C9.36119 6.61162 9.77303 6.71091 10.1102 6.94279C9.8996 6.57379 9.59438 6.26674 9.22555 6.05285C8.85671 5.83896 8.43743 5.72585 8.01029 5.72504C7.9534 5.72504 7.89775 5.7297 7.84186 5.73351C7.36091 5.76625 6.90106 5.94216 6.52233 6.23831C6.59541 6.29971 6.6779 6.38174 6.85165 6.55181C7.1769 6.86996 8.01104 7.19955 8.01289 7.23822L8.01314 7.23921Z" fill="#6B3DD7"/>
<path d="M6.2997 6.0813C6.33852 6.10586 6.37055 6.12723 6.39862 6.1465C6.28942 5.76694 6.28477 5.36524 6.38515 4.98328C5.94302 5.19593 5.55016 5.4974 5.23145 5.86863C5.25482 5.868 5.95008 5.8556 6.2997 6.0813Z" fill="#FF7139"/>
<path d="M12.4405 6.38461C12.2322 5.88704 11.8098 5.34982 11.4789 5.17999C11.7148 5.63358 11.8786 6.12071 11.9643 6.62406V6.62859L11.9652 6.63363C12.3347 7.68341 12.2813 8.83436 11.8161 9.84592C11.2667 11.0163 9.93755 12.2158 7.85623 12.1569C5.60794 12.0937 3.62679 10.4366 3.25703 8.26679C3.18963 7.92457 3.25703 7.75106 3.29092 7.47293C3.24469 7.68897 3.21889 7.90883 3.21387 8.12963V8.15419C3.21598 9.34512 3.66768 10.492 4.47977 11.3684C5.29187 12.2448 6.40535 12.787 7.60043 12.8881C8.7955 12.9891 9.9853 12.6418 10.935 11.9143C11.8846 11.1869 12.5252 10.1324 12.73 8.95898C12.7382 8.89758 12.7447 8.83681 12.7519 8.77479C12.8505 7.96458 12.7437 7.14272 12.441 6.38399L12.4405 6.38461Z" fill="#FF3647"/>
<path d="M12.4405 6.38461C12.2322 5.88704 11.8098 5.34982 11.4789 5.17999C11.7148 5.63358 11.8786 6.12071 11.9643 6.62406V6.62859L11.9652 6.63363C12.3347 7.68341 12.2813 8.83436 11.8161 9.84592C11.2667 11.0163 9.93755 12.2158 7.85623 12.1569C5.60794 12.0937 3.62679 10.4366 3.25703 8.26679C3.18963 7.92457 3.25703 7.75106 3.29092 7.47293C3.24469 7.68897 3.21889 7.90883 3.21387 8.12963V8.15419C3.21598 9.34512 3.66768 10.492 4.47977 11.3684C5.29187 12.2448 6.40535 12.787 7.60043 12.8881C8.7955 12.9891 9.9853 12.6418 10.935 11.9143C11.8846 11.1869 12.5252 10.1324 12.73 8.95898C12.7382 8.89758 12.7447 8.83681 12.7519 8.77479C12.8505 7.96458 12.7437 7.14272 12.441 6.38399L12.4405 6.38461Z" fill="black" fill-opacity="0.2"/>
<path d="M12.4405 6.38461C12.2322 5.88704 11.8098 5.34982 11.4789 5.17999C11.7148 5.63358 11.8786 6.12071 11.9643 6.62406V6.62859L11.9652 6.63363C12.3347 7.68341 12.2813 8.83436 11.8161 9.84592C11.2667 11.0163 9.93755 12.2158 7.85623 12.1569C5.60794 12.0937 3.62679 10.4366 3.25703 8.26679C3.18963 7.92457 3.25703 7.75106 3.29092 7.47293C3.24469 7.68897 3.21889 7.90883 3.21387 8.12963V8.15419C3.21598 9.34512 3.66768 10.492 4.47977 11.3684C5.29187 12.2448 6.40535 12.787 7.60043 12.8881C8.7955 12.9891 9.9853 12.6418 10.935 11.9143C11.8846 11.1869 12.5252 10.1324 12.73 8.95898C12.7382 8.89758 12.7447 8.83681 12.7519 8.77479C12.8505 7.96458 12.7437 7.14272 12.441 6.38399L12.4405 6.38461Z" fill="#FF5634"/>
<path d="M3.25655 8.26701C3.62643 10.4368 5.60746 12.0945 7.85573 12.1571C9.93707 12.2156 11.2665 11.0159 11.8156 9.84614C12.2808 8.83458 12.3342 7.68363 11.9647 6.63385V6.6293C11.9647 6.62574 11.964 6.62365 11.9647 6.62476L11.9656 6.63274C12.1356 7.73506 11.571 8.80251 10.6881 9.52576L10.6854 9.53191C8.96516 10.9232 7.31914 10.3711 6.98648 10.1459C6.96323 10.1348 6.93998 10.1233 6.91673 10.1114C5.91391 9.63542 5.49949 8.72871 5.58854 7.9502C5.35049 7.95369 5.11653 7.88855 4.91502 7.76269C4.7135 7.63683 4.55306 7.45563 4.45315 7.24106C4.71641 7.08094 5.01658 6.9904 5.32507 6.97811C5.63356 6.96581 5.94007 7.03216 6.21541 7.17083C6.78296 7.42661 7.42876 7.45183 8.01477 7.24106C8.01292 7.20239 7.17878 6.87268 6.85353 6.55464C6.67978 6.38458 6.59729 6.30268 6.52421 6.24115C6.48471 6.20793 6.44343 6.17686 6.40054 6.14808C6.37209 6.12879 6.34007 6.10791 6.30161 6.08286C5.952 5.85718 5.25674 5.86958 5.23373 5.87019H5.23151C5.04156 5.63111 5.05492 4.84278 5.06579 4.6781C5.00961 4.70053 4.95596 4.7288 4.90577 4.76246C4.73808 4.8813 4.58132 5.01464 4.43732 5.16093C4.27263 5.32566 4.12214 5.5038 3.98742 5.69349C3.6793 6.12715 3.46075 6.61699 3.34435 7.13496C3.342 7.14466 3.17171 7.88389 3.25567 8.26725L3.25655 8.26701Z" fill="#FF5634"/>
<path d="M9.69582 6.38828C9.87081 6.55892 10.0207 6.75322 10.141 6.96541C10.1674 6.98518 10.192 7.00483 10.2129 7.02386C11.2995 8.01849 10.7302 9.42448 10.6878 9.52394C11.5705 8.80179 12.1347 7.73361 11.9652 6.63092C11.4231 5.28878 10.5035 4.74725 9.75407 3.56965C9.71611 3.5101 9.67815 3.45043 9.64117 3.38743C9.62002 3.35145 9.60307 3.31904 9.58836 3.28919C9.55724 3.22934 9.53325 3.16608 9.51689 3.1007C9.5169 3.09769 9.51581 3.09478 9.5138 3.0925C9.5118 3.09024 9.50901 3.08879 9.506 3.08843C9.50305 3.08763 9.49992 3.08763 9.49697 3.08843C9.49635 3.08843 9.49536 3.08953 9.49462 3.08978C9.49389 3.09003 9.49227 3.09113 9.49116 3.09162C9.30579 3.17893 8.20625 4.90774 9.69645 6.38619L9.69582 6.38828Z" fill="#FFF44F"/>
<path d="M10.2127 7.02434C10.1918 7.00531 10.1672 6.98566 10.1409 6.96589C10.1311 6.95864 10.1215 6.95139 10.1111 6.94416C9.77396 6.71228 9.36211 6.61299 8.95542 6.66553C10.6793 7.52141 10.2168 10.4685 7.8277 10.358C7.61497 10.3493 7.40475 10.309 7.20403 10.2385C7.15712 10.221 7.11022 10.202 7.06331 10.1813C7.03622 10.169 7.00913 10.1567 6.98242 10.1429L6.98576 10.145C7.31892 10.3708 8.96445 10.9226 10.6847 9.53105L10.6874 9.52492C10.7303 9.42546 11.2997 8.01946 10.2125 7.02483L10.2127 7.02434Z" fill="#FF980E"/>
<path d="M5.85319 8.58385C5.85319 8.58385 6.07442 7.76519 7.43736 7.76519C7.58466 7.76519 8.00624 7.35689 8.01379 7.23851C7.42776 7.44929 6.78196 7.42408 6.21442 7.16828C5.93907 7.02961 5.63256 6.96328 5.32407 6.97556C5.01559 6.98786 4.71542 7.07839 4.45215 7.23851C4.55206 7.45309 4.7125 7.63428 4.91402 7.76015C5.11554 7.88601 5.3495 7.95114 5.58755 7.94765C5.49875 8.7258 5.91304 9.63239 6.91574 10.1088C6.93812 10.1195 6.95915 10.1311 6.98215 10.1413C6.39682 9.84101 5.91354 9.27321 5.85319 8.58423V8.58385Z" fill="#FF980E"/>
</g>
</g>
<defs>
<filter id="filter0_i_32_13514" x="1" y="1" width="14" height="18" filterUnits="userSpaceOnUse" color-interpolation-filters="sRGB">
<feFlood flood-opacity="0" result="BackgroundImageFix"/>
<feBlend mode="normal" in="SourceGraphic" in2="BackgroundImageFix" result="shape"/>
<feColorMatrix in="SourceAlpha" type="matrix" values="0 0 0 0 0 0 0 0 0 0 0 0 0 0 0 0 0 0 127 0" result="hardAlpha"/>
<feOffset dy="4"/>
<feGaussianBlur stdDeviation="2"/>
<feComposite in2="hardAlpha" operator="arithmetic" k2="-1" k3="1"/>
<feColorMatrix type="matrix" values="0 0 0 0 0 0 0 0 0 0 0 0 0 0 0 0 0 0 0.25 0"/>
<feBlend mode="normal" in2="shape" result="effect1_innerShadow_32_13514"/>
</filter>
<filter id="filter1_d_32_13514" x="-0.787109" y="1.09015" width="17.5732" height="17.815" filterUnits="userSpaceOnUse" color-interpolation-filters="sRGB">
<feFlood flood-opacity="0" result="BackgroundImageFix"/>
<feColorMatrix in="SourceAlpha" type="matrix" values="0 0 0 0 0 0 0 0 0 0 0 0 0 0 0 0 0 0 127 0" result="hardAlpha"/>
<feOffset dy="2"/>
<feGaussianBlur stdDeviation="2"/>
<feComposite in2="hardAlpha" operator="out"/>
<feColorMatrix type="matrix" values="0 0 0 0 0 0 0 0 0 0 0 0 0 0 0 0 0 0 0.25 0"/>
<feBlend mode="normal" in2="BackgroundImageFix" result="effect1_dropShadow_32_13514"/>
<feBlend mode="normal" in="SourceGraphic" in2="effect1_dropShadow_32_13514" result="shape"/>
</filter>
<linearGradient id="paint0_linear_32_13514" x1="16" y1="0" x2="0.527294" y2="16.4946" gradientUnits="userSpaceOnUse">
<stop offset="0.169646" stop-color="#FF8B16"/>
<stop offset="0.35725" stop-color="#FF672A"/>
<stop offset="0.597842" stop-color="#FF3647"/>
<stop offset="0.825545" stop-color="#E31587"/>
</linearGradient>
<linearGradient id="paint1_linear_32_13514" x1="11.8061" y1="4.61093" x2="3.90332" y2="12.29" gradientUnits="userSpaceOnUse">
<stop offset="0.048" stop-color="#FFF44F"/>
<stop offset="0.111" stop-color="#FFE847"/>
<stop offset="0.225" stop-color="#FFC830"/>
<stop offset="0.368" stop-color="#FF980E"/>
<stop offset="0.401" stop-color="#FF8B16"/>
<stop offset="0.462" stop-color="#FF672A"/>
<stop offset="0.534" stop-color="#FF3647"/>
<stop offset="0.705" stop-color="#E31587"/>
</linearGradient>
<radialGradient id="paint2_radial_32_13514" cx="0" cy="0" r="1" gradientUnits="userSpaceOnUse" gradientTransform="translate(11.4981 4.19518) scale(9.99234 9.92176)">
<stop offset="0.129" stop-color="#FFBD4F"/>
<stop offset="0.186" stop-color="#FFAC31"/>
<stop offset="0.247" stop-color="#FF9D17"/>
<stop offset="0.283" stop-color="#FF980E"/>
<stop offset="0.403" stop-color="#FF563B"/>
<stop offset="0.467" stop-color="#FF3750"/>
<stop offset="0.71" stop-color="#F5156C"/>
<stop offset="0.782" stop-color="#EB0878"/>
<stop offset="0.86" stop-color="#E50080"/>
</radialGradient>
<clipPath id="clip0_32_13514">
<rect width="16" height="16" fill="white"/>
</clipPath>
</defs>
</svg>
