<svg width="16" height="16" viewBox="0 0 16 16" fill="none" xmlns="http://www.w3.org/2000/svg">
<g clip-path="url(#clip0_32_13539)">
<path d="M12 0H4C1.79086 0 0 1.79086 0 4V12C0 14.2091 1.79086 16 4 16H12C14.2091 16 16 14.2091 16 12V4C16 1.79086 14.2091 0 12 0Z" fill="url(#paint0_linear_32_13539)"/>
<path d="M12 0H4C1.79086 0 0 1.79086 0 4V12C0 14.2091 1.79086 16 4 16H12C14.2091 16 16 14.2091 16 12V4C16 1.79086 14.2091 0 12 0Z" fill="url(#paint1_linear_32_13539)"/>
<g filter="url(#filter0_i_32_13539)">
<path d="M12 1H4C2.34315 1 1 2.34315 1 4V12C1 13.6569 2.34315 15 4 15H12C13.6569 15 15 13.6569 15 12V4C15 2.34315 13.6569 1 12 1Z" fill="black" fill-opacity="0.7"/>
<mask id="mask0_32_13539" style="mask-type:luminance" maskUnits="userSpaceOnUse" x="2" y="2" width="12" height="12">
<path d="M14 2H2V14H14V2Z" fill="white"/>
</mask>
<g mask="url(#mask0_32_13539)">
<path fill-rule="evenodd" clip-rule="evenodd" d="M12.3438 9.98438C12.3438 10.245 12.2257 10.503 11.9965 10.7438C11.7672 10.9845 11.4311 11.2033 11.0074 11.3875C10.5838 11.5718 10.0808 11.718 9.52724 11.8177C8.9737 11.9174 8.3804 11.9688 7.78125 11.9688C7.1821 11.9688 6.5888 11.9174 6.03526 11.8177C5.48171 11.718 4.97874 11.5718 4.55508 11.3875C4.13141 11.2033 3.79534 10.9845 3.56605 10.7438C3.33676 10.503 3.21875 10.245 3.21875 9.98438C3.21875 9.72377 3.33676 9.46574 3.56605 9.22499C3.79534 8.98422 4.13141 8.76547 4.55508 8.58121C4.97874 8.39694 5.48171 8.25077 6.03526 8.15105C6.5888 8.05132 7.1821 8 7.78125 8C8.3804 8 8.9737 8.05132 9.52724 8.15105C10.0808 8.25077 10.5838 8.39694 11.0074 8.58121C11.4311 8.76547 11.7672 8.98422 11.9965 9.22499C12.2257 9.46574 12.3438 9.72377 12.3438 9.98438Z" fill="url(#paint2_radial_32_13539)"/>
<path fill-rule="evenodd" clip-rule="evenodd" d="M4.5939 5.11699C4.5939 5.11699 5.31253 6.59889 6.99371 6.55709C10.5168 6.46871 11.1346 4.63086 11.223 4.36568C11.3114 4.10052 11.4467 4.14068 11.4779 4.38576C12.6269 14.8155 3.50369 10.3405 3.17969 8.56413C4.99164 8.03381 4.5497 7.01734 4.5497 7.01734L4.5939 5.11699Z" fill="#857C63" stroke="#2E3436" stroke-width="2" stroke-miterlimit="10"/>
<path fill-rule="evenodd" clip-rule="evenodd" d="M5.93457 9.51653C7.6193 9.85349 8.47724 9.54105 8.97936 9.15333C8.84678 8.98208 8.62028 8.79425 8.62028 8.79425C8.62028 8.79425 9.20861 8.95774 9.41578 9.22515C9.62234 9.49179 9.49248 9.65608 9.43842 9.99724C9.31807 9.69759 9.09342 9.58521 9.06301 9.46615C8.61145 10.0904 7.4864 10.0645 5.93457 9.51653Z" fill="url(#paint3_linear_32_13539)"/>
<path fill-rule="evenodd" clip-rule="evenodd" d="M6.42845 7.3488C6.42847 7.48232 6.40221 7.61452 6.35115 7.73787C6.30007 7.86123 6.22521 7.97331 6.13082 8.06773C6.03642 8.16214 5.92436 8.23703 5.80102 8.28813C5.67768 8.33923 5.54548 8.36553 5.41197 8.36553C5.27847 8.36553 5.14627 8.33923 5.02293 8.28813C4.8996 8.23703 4.78752 8.16214 4.69313 8.06773C4.59875 7.97331 4.52388 7.86123 4.47281 7.73787C4.42175 7.61452 4.39547 7.48232 4.39551 7.3488C4.39547 7.2153 4.42175 7.08309 4.47281 6.95974C4.52388 6.83639 4.59875 6.7243 4.69313 6.62989C4.78752 6.53548 4.8996 6.46058 5.02293 6.40949C5.14627 6.35839 5.27847 6.33209 5.41197 6.33209C5.54548 6.33209 5.67768 6.35839 5.80102 6.40949C5.92436 6.46058 6.03642 6.53548 6.13082 6.62989C6.22521 6.7243 6.30007 6.83639 6.35115 6.95974C6.40221 7.08309 6.42847 7.2153 6.42845 7.3488Z" fill="#DBDBD7" stroke="#888A85" stroke-width="2" stroke-miterlimit="10"/>
<path fill-rule="evenodd" clip-rule="evenodd" d="M4.40326 7.73174C4.63985 8.05969 4.77424 8.44094 4.77685 8.79163C4.77948 9.14233 4.65011 9.43373 4.41723 9.60174C4.18434 9.76975 3.867 9.8006 3.53504 9.68752C3.20306 9.57443 2.88366 9.32667 2.64708 8.99872C2.41049 8.67078 2.2761 8.28953 2.27348 7.93883C2.27086 7.58814 2.40023 7.29674 2.63311 7.12873C2.866 6.96072 3.18334 6.92985 3.5153 7.04294C3.84726 7.15603 4.16668 7.4038 4.40326 7.73174Z" fill="url(#paint4_radial_32_13539)" stroke="black" stroke-width="2" stroke-miterlimit="10"/>
<path fill-rule="evenodd" clip-rule="evenodd" d="M6.13897 7.49938C6.13899 7.56366 6.12634 7.62731 6.10176 7.68671C6.07717 7.7461 6.04113 7.80008 5.99568 7.84554C5.95023 7.891 5.89627 7.92706 5.83688 7.95166C5.77749 7.97626 5.71384 7.98894 5.64957 7.98894C5.58528 7.98894 5.52163 7.97626 5.46224 7.95166C5.40286 7.92706 5.34889 7.891 5.30344 7.84554C5.25799 7.80008 5.22196 7.7461 5.19737 7.68671C5.17278 7.62731 5.16013 7.56366 5.16016 7.49938C5.16013 7.4351 5.17278 7.37144 5.19737 7.31205C5.22196 7.25265 5.25799 7.19868 5.30344 7.15323C5.34889 7.10776 5.40286 7.0717 5.46224 7.04709C5.52163 7.02249 5.58528 7.00983 5.64957 7.00983C5.71384 7.00983 5.77749 7.02249 5.83688 7.04709C5.89627 7.0717 5.95023 7.10776 5.99568 7.15323C6.04113 7.19868 6.07717 7.25265 6.10176 7.31205C6.12634 7.37144 6.13899 7.4351 6.13897 7.49938Z" fill="#2E3436" stroke="black" stroke-width="2" stroke-miterlimit="10"/>
<path opacity="0.280899" fill-rule="evenodd" clip-rule="evenodd" d="M2.72215 7.35211C2.56242 7.47175 2.47824 7.67416 2.48582 7.94884C2.49341 8.22351 2.60181 8.55981 2.8243 8.85688C3.04679 9.15393 3.33904 9.35254 3.60049 9.43706C3.86195 9.52159 4.07986 9.49774 4.23959 9.3781C4.39931 9.25846 4.4838 9.04639 4.47749 8.77044C4.47116 8.4945 4.3657 8.16508 4.14369 7.86866C3.92169 7.57226 3.63522 7.3784 3.37219 7.29473C3.10916 7.21105 2.88187 7.23249 2.72215 7.35211Z" stroke="url(#paint5_linear_32_13539)" stroke-width="2" stroke-miterlimit="10"/>
<path fill-rule="evenodd" clip-rule="evenodd" d="M3.45907 7.81286C3.4591 7.88252 3.44767 7.9515 3.42547 8.01585C3.40326 8.08021 3.37071 8.13868 3.32967 8.18795C3.28863 8.23721 3.23991 8.27629 3.18628 8.30294C3.13266 8.3296 3.07518 8.34332 3.01713 8.34332C2.9591 8.34332 2.90161 8.3296 2.84798 8.30294C2.79436 8.27629 2.74563 8.23721 2.7046 8.18795C2.66356 8.13868 2.63101 8.08021 2.60881 8.01585C2.5866 7.9515 2.57518 7.88252 2.5752 7.81286C2.57518 7.74321 2.5866 7.67423 2.60881 7.60987C2.63101 7.54552 2.66356 7.48703 2.7046 7.43778C2.74563 7.38852 2.79436 7.34945 2.84798 7.32278C2.90161 7.29613 2.9591 7.28241 3.01713 7.28241C3.07518 7.28241 3.13266 7.29613 3.18628 7.32278C3.23991 7.34945 3.28863 7.38852 3.32967 7.43778C3.37071 7.48703 3.40326 7.54552 3.42547 7.60987C3.44767 7.67423 3.4591 7.74321 3.45907 7.81286Z" fill="white"/>
<path fill-rule="evenodd" clip-rule="evenodd" d="M5.79972 7.27351C5.79972 7.36337 5.76402 7.44956 5.70047 7.51309C5.63693 7.57663 5.55076 7.61233 5.4609 7.61233C5.37103 7.61233 5.28485 7.57663 5.22131 7.51309C5.15777 7.44956 5.12207 7.36337 5.12207 7.27351C5.12207 7.18364 5.15777 7.09747 5.22131 7.03393C5.28485 6.97038 5.37103 6.93469 5.4609 6.93469C5.55076 6.93469 5.63693 6.97038 5.70047 7.03393C5.76402 7.09747 5.79972 7.18364 5.79972 7.27351Z" fill="white"/>
<path fill-rule="evenodd" clip-rule="evenodd" d="M8.70387 7.45928C8.70391 7.61601 8.67307 7.77121 8.61312 7.91601C8.55317 8.06082 8.46529 8.1924 8.35448 8.30322C8.24367 8.41406 8.11212 8.50198 7.96733 8.56197C7.82253 8.62195 7.66735 8.65282 7.51062 8.65282C7.35391 8.65282 7.19872 8.62195 7.05392 8.56197C6.90913 8.50198 6.77758 8.41406 6.66677 8.30322C6.55596 8.1924 6.46808 8.06082 6.40813 7.91601C6.34818 7.77121 6.31735 7.61601 6.31738 7.45928C6.31735 7.30256 6.34818 7.14736 6.40813 7.00256C6.46808 6.85775 6.55596 6.72617 6.66677 6.61535C6.77758 6.50451 6.90913 6.41658 7.05392 6.3566C7.19872 6.29662 7.35391 6.26575 7.51062 6.26575C7.66735 6.26575 7.82253 6.29662 7.96733 6.3566C8.11212 6.41658 8.24367 6.50451 8.35448 6.61535C8.46529 6.72617 8.55317 6.85775 8.61312 7.00256C8.67307 7.14736 8.70391 7.30256 8.70387 7.45928Z" fill="#DBDBD7" stroke="#888A85" stroke-width="2" stroke-miterlimit="10"/>
<path fill-rule="evenodd" clip-rule="evenodd" d="M8.36487 7.63603C8.3649 7.71149 8.35005 7.78622 8.32118 7.85594C8.29232 7.92567 8.25001 7.98902 8.19666 8.04239C8.14331 8.09575 8.07996 8.13809 8.01025 8.16698C7.94053 8.19585 7.86581 8.21073 7.79035 8.21073C7.71488 8.21073 7.64016 8.19585 7.57045 8.16698C7.50073 8.13809 7.4374 8.09575 7.38403 8.04239C7.33068 7.98902 7.28837 7.92567 7.25951 7.85594C7.23065 7.78622 7.2158 7.71149 7.21582 7.63603C7.2158 7.56057 7.23065 7.48584 7.25951 7.41612C7.28837 7.34639 7.33068 7.28304 7.38403 7.22967C7.4374 7.1763 7.50073 7.13397 7.57045 7.10508C7.64016 7.0762 7.71488 7.06134 7.79035 7.06134C7.86581 7.06134 7.94053 7.0762 8.01025 7.10508C8.07996 7.13397 8.14331 7.1763 8.19666 7.22967C8.25001 7.28304 8.29232 7.34639 8.32118 7.41612C8.35005 7.48584 8.3649 7.56057 8.36487 7.63603Z" fill="#2E3436" stroke="black" stroke-width="2" stroke-miterlimit="10"/>
<path fill-rule="evenodd" clip-rule="evenodd" d="M7.9664 7.37089C7.9664 7.47638 7.92449 7.57754 7.8499 7.65214C7.77531 7.72673 7.67414 7.76864 7.56865 7.76864C7.46316 7.76864 7.36199 7.72673 7.2874 7.65214C7.21281 7.57754 7.1709 7.47638 7.1709 7.37089C7.1709 7.26541 7.21281 7.16423 7.2874 7.08964C7.36199 7.01504 7.46316 6.97314 7.56865 6.97314C7.67414 6.97314 7.77531 7.01504 7.8499 7.08964C7.92449 7.16423 7.9664 7.26541 7.9664 7.37089Z" fill="white"/>
<path d="M11.1472 11.0229L11.3788 10.5617C10.5172 9.93132 8.92899 9.47268 8.92899 9.47268C8.65369 9.34444 8.5668 9.59175 8.75743 9.75253C8.75743 9.75253 10.1157 10.7263 11.1472 11.0229Z" fill="url(#paint6_linear_32_13539)" stroke="#673907" stroke-width="2" stroke-linecap="round"/>
<path d="M12.2514 11.448L12.3754 11.1736L11.4135 10.5573L11.3368 10.5508L11.3037 10.4446C11.1639 10.5321 10.9609 10.8572 11.0147 11.0399L11.1186 11.0007L11.1749 11.055L12.2514 11.448Z" fill="url(#paint7_linear_32_13539)" stroke="#888A85" stroke-width="2" stroke-linecap="round"/>
<path d="M11.6279 10.9274L12.2666 11.2016" stroke="white" stroke-width="2" stroke-linecap="round" stroke-linejoin="round"/>
<path d="M13.6492 12.6135C13.3493 11.5956 13.243 10.7874 12.4593 10.8593C11.8277 10.9173 11.7835 11.8222 12.4361 12.0719C13.0648 12.3124 13.6492 12.6135 13.6492 12.6135Z" fill="url(#paint8_radial_32_13539)"/>
<path opacity="0.527778" d="M12.507 10.9418C12.5402 10.932 12.5749 10.9288 12.6092 10.9325C12.6435 10.9362 12.6768 10.9465 12.7072 10.9631C12.7375 10.9796 12.7643 11.0019 12.7859 11.0288C12.8077 11.0556 12.8238 11.0865 12.8335 11.1196C12.8433 11.1528 12.8465 11.1875 12.8428 11.2218C12.8392 11.2561 12.8288 11.2894 12.8123 11.3197C12.7957 11.3501 12.7734 11.3768 12.7465 11.3985C12.7197 11.4202 12.6888 11.4364 12.6557 11.4461C12.6225 11.4559 12.5878 11.459 12.5534 11.4554C12.5192 11.4517 12.4858 11.4414 12.4555 11.4248C12.4252 11.4083 12.3984 11.386 12.3767 11.3591C12.355 11.3323 12.3388 11.3014 12.3291 11.2683C12.3193 11.2351 12.3162 11.2004 12.3198 11.1661C12.3235 11.1317 12.3339 11.0985 12.3504 11.0681C12.367 11.0378 12.3893 11.0111 12.4162 10.9894C12.443 10.9677 12.4739 10.9515 12.507 10.9418Z" fill="white"/>
<path d="M11.3607 10.5677C11.3831 10.5611 11.4065 10.559 11.4297 10.5614C11.4528 10.5639 11.4753 10.5709 11.4957 10.582C11.5162 10.5932 11.5343 10.6082 11.5489 10.6264C11.5635 10.6445 11.5745 10.6653 11.581 10.6877C11.5876 10.71 11.5897 10.7335 11.5873 10.7566C11.5848 10.7798 11.5778 10.8022 11.5666 10.8227C11.5555 10.8432 11.5404 10.8612 11.5223 10.8759C11.5042 10.8905 11.4833 10.9014 11.461 10.908C11.4386 10.9146 11.4152 10.9167 11.392 10.9142C11.3689 10.9118 11.3464 10.9048 11.3259 10.8936C11.3055 10.8825 11.2874 10.8674 11.2728 10.8493C11.2581 10.8311 11.2472 10.8103 11.2406 10.788C11.234 10.7656 11.2319 10.7422 11.2344 10.719C11.2369 10.6959 11.2439 10.6734 11.255 10.6529C11.2662 10.6325 11.2813 10.6144 11.2994 10.5998C11.3175 10.5852 11.3384 10.5742 11.3607 10.5677Z" fill="white"/>
<path opacity="0.427778" d="M13.2729 12.0045C13.2729 12.0045 13.1752 11.639 12.9597 11.4489C12.8833 11.3816 12.9794 11.2825 13.0514 11.3695C13.2069 11.5575 13.2729 12.0045 13.2729 12.0045Z" fill="url(#paint9_linear_32_13539)"/>
<path fill-rule="evenodd" clip-rule="evenodd" d="M7.75098 9.93417C8.12533 9.96994 8.46339 9.8661 8.60395 9.81565C8.62851 9.6768 8.73809 9.41034 9.11548 9.39278L8.98289 9.16077C8.98289 9.16077 8.49124 9.49774 7.96643 9.59718L7.75098 9.93417Z" fill="url(#paint10_linear_32_13539)"/>
</g>
</g>
</g>
<defs>
<filter id="filter0_i_32_13539" x="1" y="1" width="14" height="18" filterUnits="userSpaceOnUse" color-interpolation-filters="sRGB">
<feFlood flood-opacity="0" result="BackgroundImageFix"/>
<feBlend mode="normal" in="SourceGraphic" in2="BackgroundImageFix" result="shape"/>
<feColorMatrix in="SourceAlpha" type="matrix" values="0 0 0 0 0 0 0 0 0 0 0 0 0 0 0 0 0 0 127 0" result="hardAlpha"/>
<feOffset dy="4"/>
<feGaussianBlur stdDeviation="2"/>
<feComposite in2="hardAlpha" operator="arithmetic" k2="-1" k3="1"/>
<feColorMatrix type="matrix" values="0 0 0 0 0 0 0 0 0 0 0 0 0 0 0 0 0 0 0.25 0"/>
<feBlend mode="normal" in2="shape" result="effect1_innerShadow_32_13539"/>
</filter>
<linearGradient id="paint0_linear_32_13539" x1="7.95135" y1="16.0123" x2="7.95135" y2="-0.0103629" gradientUnits="userSpaceOnUse">
<stop stop-color="#2CA0B9"/>
<stop offset="1" stop-color="#87DEAA"/>
</linearGradient>
<linearGradient id="paint1_linear_32_13539" x1="8" y1="0" x2="8" y2="16" gradientUnits="userSpaceOnUse">
<stop stop-color="#857C63"/>
<stop offset="1" stop-color="#3E382D"/>
</linearGradient>
<radialGradient id="paint2_radial_32_13539" cx="0" cy="0" r="1" gradientUnits="userSpaceOnUse" gradientTransform="translate(7.78125 9.98438) scale(4.5625 1.98438)">
<stop/>
<stop offset="1" stop-opacity="0"/>
</radialGradient>
<linearGradient id="paint3_linear_32_13539" x1="9.12852" y1="9.10734" x2="6.34428" y2="9.65978" gradientUnits="userSpaceOnUse">
<stop/>
<stop offset="1" stop-opacity="0"/>
</linearGradient>
<radialGradient id="paint4_radial_32_13539" cx="0" cy="0" r="1" gradientUnits="userSpaceOnUse" gradientTransform="translate(3.11891 7.83398) rotate(-30) scale(1.11221 1.29812)">
<stop stop-color="#5B676B"/>
<stop offset="1" stop-color="#141718"/>
</radialGradient>
<linearGradient id="paint5_linear_32_13539" x1="2.94522" y1="7.56179" x2="4.11116" y2="9.25214" gradientUnits="userSpaceOnUse">
<stop stop-color="white"/>
<stop offset="1" stop-color="white" stop-opacity="0"/>
</linearGradient>
<linearGradient id="paint6_linear_32_13539" x1="10.5903" y1="10.0136" x2="10.071" y2="11.1479" gradientUnits="userSpaceOnUse">
<stop stop-color="#6E3D09"/>
<stop offset="0.242424" stop-color="#EA8113"/>
<stop offset="0.621212" stop-color="#5C3307"/>
<stop offset="1" stop-color="#E07C12"/>
</linearGradient>
<linearGradient id="paint7_linear_32_13539" x1="11.7029" y1="11.2455" x2="11.9313" y2="10.7848" gradientUnits="userSpaceOnUse">
<stop stop-color="#BDBDBD"/>
<stop offset="0.333333" stop-color="#E2E2E2"/>
<stop offset="0.666667" stop-color="#A3A3A3"/>
<stop offset="1" stop-color="#DDDDDD"/>
</linearGradient>
<radialGradient id="paint8_radial_32_13539" cx="0" cy="0" r="1" gradientUnits="userSpaceOnUse" gradientTransform="translate(12.2722 11.5132) rotate(-106.415) scale(1.21113 1.18028)">
<stop stop-color="#696969"/>
<stop offset="1"/>
</radialGradient>
<linearGradient id="paint9_linear_32_13539" x1="12.9894" y1="11.2714" x2="13.2819" y2="11.8135" gradientUnits="userSpaceOnUse">
<stop stop-color="white"/>
<stop offset="1" stop-color="white" stop-opacity="0"/>
</linearGradient>
<linearGradient id="paint10_linear_32_13539" x1="8.54095" y1="9.63585" x2="8.08244" y2="9.74634" gradientUnits="userSpaceOnUse">
<stop/>
<stop offset="1" stop-opacity="0"/>
</linearGradient>
<clipPath id="clip0_32_13539">
<rect width="16" height="16" fill="white"/>
</clipPath>
</defs>
</svg>
