<svg width="16" height="16" viewBox="0 0 16 16" fill="none" xmlns="http://www.w3.org/2000/svg">
<g clip-path="url(#clip0_32_13568)">
<path d="M12 0H4C1.79086 0 0 1.79086 0 4V12C0 14.2091 1.79086 16 4 16H12C14.2091 16 16 14.2091 16 12V4C16 1.79086 14.2091 0 12 0Z" fill="url(#paint0_linear_32_13568)"/>
<g filter="url(#filter0_i_32_13568)">
<path d="M12 1H4C2.34315 1 1 2.34315 1 4V12C1 13.6569 2.34315 15 4 15H12C13.6569 15 15 13.6569 15 12V4C15 2.34315 13.6569 1 12 1Z" fill="black" fill-opacity="0.7"/>
<path d="M8 3.39062C10.5888 3.39062 12.6875 5.48933 12.6875 8.07812C12.6875 10.6669 10.5888 12.7656 8 12.7656C5.4112 12.7656 3.3125 10.6669 3.3125 8.07812C3.3125 5.48933 5.4112 3.39062 8 3.39062Z" fill="url(#paint1_linear_32_13568)"/>
<path d="M8 3.39062C5.4112 3.39062 3.3125 5.48933 3.3125 8.07812C3.3125 10.6669 5.4112 12.7656 8 12.7656V3.39062Z" fill="url(#paint2_linear_32_13568)"/>
<path d="M12.6875 7.92188C12.6875 10.5107 10.5888 12.6094 8 12.6094C5.4112 12.6094 3.3125 10.5107 3.3125 7.92188C3.3125 5.33308 5.4112 3.23438 8 3.23438C10.5888 3.23438 12.6875 5.33308 12.6875 7.92188Z" fill="#40A1C8"/>
<path d="M5.18816 8C5.19794 9.08704 5.41339 10.1381 5.80035 10.9883C5.49243 11.1457 5.2315 11.3353 5.02979 11.5477C3.96411 10.6749 3.33636 9.37726 3.31348 8H5.18816Z" fill="#49BBB0"/>
<path d="M7.99952 10.5V12.6094C7.64795 12.6094 7.2973 12.5697 6.95459 12.4913C6.5014 12.1742 6.10345 11.656 5.7998 10.9883C6.41718 10.6727 7.19568 10.5 7.99952 10.5Z" fill="#378BDE"/>
<path d="M10.8127 8C10.8029 9.08704 10.5875 10.1381 10.2002 10.9883C10.5084 11.1457 10.769 11.3353 10.9708 11.5477C12.0364 10.6749 12.6642 9.37726 12.6874 8H10.8127Z" fill="#266EC6"/>
<path d="M8 8V12.6094C8.35156 12.6094 8.70221 12.5697 9.04492 12.4913C10.0975 11.7543 10.7942 9.98364 10.8122 8H8Z" fill="#378BDE"/>
<path d="M8 10.5V12.6094C8.35156 12.6094 8.70221 12.5697 9.04492 12.4913C9.49811 12.1742 9.89606 11.656 10.1997 10.9883C9.58234 10.6727 8.80384 10.5 8 10.5Z" fill="#266EC6"/>
<path d="M10.1997 10.9883C9.89576 11.656 9.49781 12.1739 9.04492 12.4913C9.7508 12.3298 10.41 12.0067 10.9703 11.5477C10.7686 11.3353 10.5076 11.1458 10.1997 10.9883Z" fill="#1E62B5"/>
<path d="M8 3.23438C5.4112 3.23438 3.3125 5.33308 3.3125 7.92188C3.3125 7.94781 3.3128 7.97406 3.31311 8H8V3.23438Z" fill="#53D795"/>
<path d="M6.95495 3.35217C6.24877 3.51391 5.5896 3.83679 5.0293 4.29577C5.23101 4.50849 5.49193 4.69769 5.80016 4.85547C6.10412 4.18744 6.50207 3.66955 6.95495 3.35217Z" fill="#72E99A"/>
<path d="M8 3.23438C7.64844 3.23438 7.2981 3.27405 6.95507 3.35217C5.88757 4.09985 5.1875 5.90955 5.1875 7.92188C5.1875 7.94781 5.1875 7.97406 5.1878 8H8V3.23438Z" fill="#49BBB0"/>
<path d="M7.99952 3.23438C7.64795 3.23438 7.29762 3.27405 6.95459 3.35217C6.50172 3.66955 6.10377 4.18744 5.7998 4.85547C6.41749 5.17102 7.19568 5.34375 7.99952 5.34375V3.23438Z" fill="#53D795"/>
<path d="M8 3.23438C10.5888 3.23438 12.6875 5.33308 12.6875 7.92188C12.6875 7.94781 12.6873 7.97406 12.6869 8H8V3.23438Z" fill="#378BDE"/>
<path d="M9.04492 3.35217C9.7511 3.51391 10.4103 3.83679 10.9706 4.29577C10.7689 4.50849 10.5079 4.69769 10.2 4.85516C9.89575 4.18744 9.4978 3.66955 9.04492 3.35217Z" fill="#40A1C8"/>
<path d="M8 3.23438C8.35156 3.23438 8.70221 3.27405 9.04492 3.35217C10.1124 4.09985 10.8125 5.90955 10.8125 7.92188C10.8125 7.94781 10.8125 7.97406 10.8122 8H8V3.23438Z" fill="#40A1C8"/>
<path d="M8 3.23438C8.35156 3.23438 8.70221 3.27405 9.04492 3.35217C9.4978 3.66955 9.89575 4.18744 10.1997 4.85516C9.58203 5.17103 8.80384 5.34375 8 5.34375V3.23438Z" fill="#49BBB0"/>
</g>
</g>
<defs>
<filter id="filter0_i_32_13568" x="1" y="1" width="14" height="18" filterUnits="userSpaceOnUse" color-interpolation-filters="sRGB">
<feFlood flood-opacity="0" result="BackgroundImageFix"/>
<feBlend mode="normal" in="SourceGraphic" in2="BackgroundImageFix" result="shape"/>
<feColorMatrix in="SourceAlpha" type="matrix" values="0 0 0 0 0 0 0 0 0 0 0 0 0 0 0 0 0 0 127 0" result="hardAlpha"/>
<feOffset dy="4"/>
<feGaussianBlur stdDeviation="2"/>
<feComposite in2="hardAlpha" operator="arithmetic" k2="-1" k3="1"/>
<feColorMatrix type="matrix" values="0 0 0 0 0 0 0 0 0 0 0 0 0 0 0 0 0 0 0.25 0"/>
<feBlend mode="normal" in2="shape" result="effect1_innerShadow_32_13568"/>
</filter>
<linearGradient id="paint0_linear_32_13568" x1="8" y1="0" x2="8" y2="16" gradientUnits="userSpaceOnUse">
<stop stop-color="#72E99A"/>
<stop offset="0.3" stop-color="#49BBB0"/>
<stop offset="0.614" stop-color="#378BDE"/>
<stop offset="1" stop-color="#1E62B5"/>
</linearGradient>
<linearGradient id="paint1_linear_32_13568" x1="10.6562" y1="11.75" x2="11.4375" y2="11.75" gradientUnits="userSpaceOnUse">
<stop stop-color="#16529C"/>
<stop offset="1" stop-color="#236AC0"/>
</linearGradient>
<linearGradient id="paint2_linear_32_13568" x1="7.53125" y1="12.375" x2="4.09375" y2="12.375" gradientUnits="userSpaceOnUse">
<stop stop-color="#2166BB"/>
<stop offset="1" stop-color="#89EDA9"/>
</linearGradient>
<clipPath id="clip0_32_13568">
<rect width="16" height="16" fill="white"/>
</clipPath>
</defs>
</svg>
