<svg width="16" height="16" viewBox="0 0 16 16" fill="none" xmlns="http://www.w3.org/2000/svg">
<g clip-path="url(#clip0_32_13610)">
<path d="M12 0H4C1.79086 0 0 1.79086 0 4V12C0 14.2091 1.79086 16 4 16H12C14.2091 16 16 14.2091 16 12V4C16 1.79086 14.2091 0 12 0Z" fill="#FF0045"/>
<path d="M12 0H4C1.79086 0 0 1.79086 0 4V12C0 14.2091 1.79086 16 4 16H12C14.2091 16 16 14.2091 16 12V4C16 1.79086 14.2091 0 12 0Z" fill="url(#paint0_radial_32_13610)"/>
<path d="M12 0H4C1.79086 0 0 1.79086 0 4V12C0 14.2091 1.79086 16 4 16H12C14.2091 16 16 14.2091 16 12V4C16 1.79086 14.2091 0 12 0Z" fill="url(#paint1_radial_32_13610)"/>
<g filter="url(#filter0_i_32_13610)">
<path d="M12 1H4C2.34315 1 1 2.34315 1 4V12C1 13.6569 2.34315 15 4 15H12C13.6569 15 15 13.6569 15 12V4C15 2.34315 13.6569 1 12 1Z" fill="black" fill-opacity="0.7"/>
<mask id="mask0_32_13610" style="mask-type:luminance" maskUnits="userSpaceOnUse" x="3" y="3" width="10" height="10">
<path d="M13 3H3V13H13V3Z" fill="white"/>
</mask>
<g mask="url(#mask0_32_13610)">
<g filter="url(#filter1_d_32_13610)">
<path d="M8 3.90125C9.335 3.90125 9.49334 3.90625 10.0208 3.93041C11.3758 3.99209 12.0088 4.635 12.0704 5.98C12.0946 6.50709 12.0992 6.66541 12.0992 8.00041C12.0992 9.33584 12.0942 9.49375 12.0704 10.0208C12.0083 11.3646 11.3771 12.0088 10.0208 12.0704C9.49334 12.0946 9.33584 12.0996 8 12.0996C6.665 12.0996 6.50666 12.0946 5.97959 12.0704C4.62125 12.0083 3.99166 11.3625 3.93 10.0204C3.90584 9.49334 3.90084 9.33541 3.90084 8C3.90084 6.665 3.90625 6.50709 3.93 5.97959C3.99209 4.635 4.62334 3.99166 5.97959 3.93C6.50709 3.90625 6.665 3.90125 8 3.90125ZM8 3C6.64209 3 6.47209 3.00584 5.93875 3.03C4.12291 3.11334 3.11375 4.12084 3.03041 5.93834C3.00584 6.47209 3 6.64209 3 8C3 9.35791 3.00584 9.52834 3.03 10.0617C3.11334 11.8775 4.12084 12.8866 5.93834 12.97C6.47209 12.9941 6.64209 13 8 13C9.35791 13 9.52834 12.9941 10.0617 12.97C11.8758 12.8866 12.8875 11.8792 12.9696 10.0617C12.9941 9.52834 13 9.35791 13 8C13 6.64209 12.9941 6.47209 12.97 5.93875C12.8884 4.12459 11.8796 3.11375 10.0621 3.03041C9.52834 3.00584 9.35791 3 8 3ZM8 5.4325C6.58209 5.4325 5.4325 6.58209 5.4325 8C5.4325 9.41791 6.58209 10.5679 8 10.5679C9.41791 10.5679 10.5675 9.41834 10.5675 8C10.5675 6.58209 9.41791 5.4325 8 5.4325ZM8 9.66666C7.07959 9.66666 6.33334 8.92084 6.33334 8C6.33334 7.07959 7.07959 6.33334 8 6.33334C8.92041 6.33334 9.66666 7.07959 9.66666 8C9.66666 8.92084 8.92041 9.66666 8 9.66666ZM10.6692 4.73125C10.3375 4.73125 10.0688 5 10.0688 5.33125C10.0688 5.6625 10.3375 5.93125 10.6692 5.93125C11.0004 5.93125 11.2688 5.6625 11.2688 5.33125C11.2688 5 11.0004 4.73125 10.6692 4.73125Z" fill="white"/>
<path d="M8 3.90125C9.335 3.90125 9.49334 3.90625 10.0208 3.93041C11.3758 3.99209 12.0088 4.635 12.0704 5.98C12.0946 6.50709 12.0992 6.66541 12.0992 8.00041C12.0992 9.33584 12.0942 9.49375 12.0704 10.0208C12.0083 11.3646 11.3771 12.0088 10.0208 12.0704C9.49334 12.0946 9.33584 12.0996 8 12.0996C6.665 12.0996 6.50666 12.0946 5.97959 12.0704C4.62125 12.0083 3.99166 11.3625 3.93 10.0204C3.90584 9.49334 3.90084 9.33541 3.90084 8C3.90084 6.665 3.90625 6.50709 3.93 5.97959C3.99209 4.635 4.62334 3.99166 5.97959 3.93C6.50709 3.90625 6.665 3.90125 8 3.90125ZM8 3C6.64209 3 6.47209 3.00584 5.93875 3.03C4.12291 3.11334 3.11375 4.12084 3.03041 5.93834C3.00584 6.47209 3 6.64209 3 8C3 9.35791 3.00584 9.52834 3.03 10.0617C3.11334 11.8775 4.12084 12.8866 5.93834 12.97C6.47209 12.9941 6.64209 13 8 13C9.35791 13 9.52834 12.9941 10.0617 12.97C11.8758 12.8866 12.8875 11.8792 12.9696 10.0617C12.9941 9.52834 13 9.35791 13 8C13 6.64209 12.9941 6.47209 12.97 5.93875C12.8884 4.12459 11.8796 3.11375 10.0621 3.03041C9.52834 3.00584 9.35791 3 8 3ZM8 5.4325C6.58209 5.4325 5.4325 6.58209 5.4325 8C5.4325 9.41791 6.58209 10.5679 8 10.5679C9.41791 10.5679 10.5675 9.41834 10.5675 8C10.5675 6.58209 9.41791 5.4325 8 5.4325ZM8 9.66666C7.07959 9.66666 6.33334 8.92084 6.33334 8C6.33334 7.07959 7.07959 6.33334 8 6.33334C8.92041 6.33334 9.66666 7.07959 9.66666 8C9.66666 8.92084 8.92041 9.66666 8 9.66666ZM10.6692 4.73125C10.3375 4.73125 10.0688 5 10.0688 5.33125C10.0688 5.6625 10.3375 5.93125 10.6692 5.93125C11.0004 5.93125 11.2688 5.6625 11.2688 5.33125C11.2688 5 11.0004 4.73125 10.6692 4.73125Z" fill="#FF0045"/>
<path d="M8 3.90125C9.335 3.90125 9.49334 3.90625 10.0208 3.93041C11.3758 3.99209 12.0088 4.635 12.0704 5.98C12.0946 6.50709 12.0992 6.66541 12.0992 8.00041C12.0992 9.33584 12.0942 9.49375 12.0704 10.0208C12.0083 11.3646 11.3771 12.0088 10.0208 12.0704C9.49334 12.0946 9.33584 12.0996 8 12.0996C6.665 12.0996 6.50666 12.0946 5.97959 12.0704C4.62125 12.0083 3.99166 11.3625 3.93 10.0204C3.90584 9.49334 3.90084 9.33541 3.90084 8C3.90084 6.665 3.90625 6.50709 3.93 5.97959C3.99209 4.635 4.62334 3.99166 5.97959 3.93C6.50709 3.90625 6.665 3.90125 8 3.90125ZM8 3C6.64209 3 6.47209 3.00584 5.93875 3.03C4.12291 3.11334 3.11375 4.12084 3.03041 5.93834C3.00584 6.47209 3 6.64209 3 8C3 9.35791 3.00584 9.52834 3.03 10.0617C3.11334 11.8775 4.12084 12.8866 5.93834 12.97C6.47209 12.9941 6.64209 13 8 13C9.35791 13 9.52834 12.9941 10.0617 12.97C11.8758 12.8866 12.8875 11.8792 12.9696 10.0617C12.9941 9.52834 13 9.35791 13 8C13 6.64209 12.9941 6.47209 12.97 5.93875C12.8884 4.12459 11.8796 3.11375 10.0621 3.03041C9.52834 3.00584 9.35791 3 8 3ZM8 5.4325C6.58209 5.4325 5.4325 6.58209 5.4325 8C5.4325 9.41791 6.58209 10.5679 8 10.5679C9.41791 10.5679 10.5675 9.41834 10.5675 8C10.5675 6.58209 9.41791 5.4325 8 5.4325ZM8 9.66666C7.07959 9.66666 6.33334 8.92084 6.33334 8C6.33334 7.07959 7.07959 6.33334 8 6.33334C8.92041 6.33334 9.66666 7.07959 9.66666 8C9.66666 8.92084 8.92041 9.66666 8 9.66666ZM10.6692 4.73125C10.3375 4.73125 10.0688 5 10.0688 5.33125C10.0688 5.6625 10.3375 5.93125 10.6692 5.93125C11.0004 5.93125 11.2688 5.6625 11.2688 5.33125C11.2688 5 11.0004 4.73125 10.6692 4.73125Z" fill="url(#paint2_radial_32_13610)"/>
<path d="M8 3.90125C9.335 3.90125 9.49334 3.90625 10.0208 3.93041C11.3758 3.99209 12.0088 4.635 12.0704 5.98C12.0946 6.50709 12.0992 6.66541 12.0992 8.00041C12.0992 9.33584 12.0942 9.49375 12.0704 10.0208C12.0083 11.3646 11.3771 12.0088 10.0208 12.0704C9.49334 12.0946 9.33584 12.0996 8 12.0996C6.665 12.0996 6.50666 12.0946 5.97959 12.0704C4.62125 12.0083 3.99166 11.3625 3.93 10.0204C3.90584 9.49334 3.90084 9.33541 3.90084 8C3.90084 6.665 3.90625 6.50709 3.93 5.97959C3.99209 4.635 4.62334 3.99166 5.97959 3.93C6.50709 3.90625 6.665 3.90125 8 3.90125ZM8 3C6.64209 3 6.47209 3.00584 5.93875 3.03C4.12291 3.11334 3.11375 4.12084 3.03041 5.93834C3.00584 6.47209 3 6.64209 3 8C3 9.35791 3.00584 9.52834 3.03 10.0617C3.11334 11.8775 4.12084 12.8866 5.93834 12.97C6.47209 12.9941 6.64209 13 8 13C9.35791 13 9.52834 12.9941 10.0617 12.97C11.8758 12.8866 12.8875 11.8792 12.9696 10.0617C12.9941 9.52834 13 9.35791 13 8C13 6.64209 12.9941 6.47209 12.97 5.93875C12.8884 4.12459 11.8796 3.11375 10.0621 3.03041C9.52834 3.00584 9.35791 3 8 3ZM8 5.4325C6.58209 5.4325 5.4325 6.58209 5.4325 8C5.4325 9.41791 6.58209 10.5679 8 10.5679C9.41791 10.5679 10.5675 9.41834 10.5675 8C10.5675 6.58209 9.41791 5.4325 8 5.4325ZM8 9.66666C7.07959 9.66666 6.33334 8.92084 6.33334 8C6.33334 7.07959 7.07959 6.33334 8 6.33334C8.92041 6.33334 9.66666 7.07959 9.66666 8C9.66666 8.92084 8.92041 9.66666 8 9.66666ZM10.6692 4.73125C10.3375 4.73125 10.0688 5 10.0688 5.33125C10.0688 5.6625 10.3375 5.93125 10.6692 5.93125C11.0004 5.93125 11.2688 5.6625 11.2688 5.33125C11.2688 5 11.0004 4.73125 10.6692 4.73125Z" fill="url(#paint3_radial_32_13610)"/>
</g>
</g>
</g>
</g>
<defs>
<filter id="filter0_i_32_13610" x="1" y="1" width="14" height="18" filterUnits="userSpaceOnUse" color-interpolation-filters="sRGB">
<feFlood flood-opacity="0" result="BackgroundImageFix"/>
<feBlend mode="normal" in="SourceGraphic" in2="BackgroundImageFix" result="shape"/>
<feColorMatrix in="SourceAlpha" type="matrix" values="0 0 0 0 0 0 0 0 0 0 0 0 0 0 0 0 0 0 127 0" result="hardAlpha"/>
<feOffset dy="4"/>
<feGaussianBlur stdDeviation="2"/>
<feComposite in2="hardAlpha" operator="arithmetic" k2="-1" k3="1"/>
<feColorMatrix type="matrix" values="0 0 0 0 0 0 0 0 0 0 0 0 0 0 0 0 0 0 0.25 0"/>
<feBlend mode="normal" in2="shape" result="effect1_innerShadow_32_13610"/>
</filter>
<filter id="filter1_d_32_13610" x="-1" y="1" width="18" height="18" filterUnits="userSpaceOnUse" color-interpolation-filters="sRGB">
<feFlood flood-opacity="0" result="BackgroundImageFix"/>
<feColorMatrix in="SourceAlpha" type="matrix" values="0 0 0 0 0 0 0 0 0 0 0 0 0 0 0 0 0 0 127 0" result="hardAlpha"/>
<feOffset dy="2"/>
<feGaussianBlur stdDeviation="2"/>
<feComposite in2="hardAlpha" operator="out"/>
<feColorMatrix type="matrix" values="0 0 0 0 0 0 0 0 0 0 0 0 0 0 0 0 0 0 0.25 0"/>
<feBlend mode="normal" in2="BackgroundImageFix" result="effect1_dropShadow_32_13610"/>
<feBlend mode="normal" in="SourceGraphic" in2="effect1_dropShadow_32_13610" result="shape"/>
</filter>
<radialGradient id="paint0_radial_32_13610" cx="0" cy="0" r="1" gradientUnits="userSpaceOnUse" gradientTransform="translate(16) rotate(135) scale(22.6274)">
<stop stop-color="#B000FF"/>
<stop offset="1" stop-color="#DFDFDF" stop-opacity="0"/>
</radialGradient>
<radialGradient id="paint1_radial_32_13610" cx="0" cy="0" r="1" gradientUnits="userSpaceOnUse" gradientTransform="translate(-4.76836e-07 16) rotate(-63.4349) scale(17.8885)">
<stop stop-color="#FFB000"/>
<stop offset="1" stop-color="#DFDFDF" stop-opacity="0"/>
</radialGradient>
<radialGradient id="paint2_radial_32_13610" cx="0" cy="0" r="1" gradientUnits="userSpaceOnUse" gradientTransform="translate(13 3) rotate(135) scale(14.1421)">
<stop stop-color="#B000FF"/>
<stop offset="1" stop-color="#DFDFDF" stop-opacity="0"/>
</radialGradient>
<radialGradient id="paint3_radial_32_13610" cx="0" cy="0" r="1" gradientUnits="userSpaceOnUse" gradientTransform="translate(3 13) rotate(-63.4349) scale(11.1803)">
<stop stop-color="#FFB000"/>
<stop offset="1" stop-color="#DFDFDF" stop-opacity="0"/>
</radialGradient>
<clipPath id="clip0_32_13610">
<rect width="16" height="16" fill="white"/>
</clipPath>
</defs>
</svg>
