<svg width="16" height="16" viewBox="0 0 16 16" fill="none" xmlns="http://www.w3.org/2000/svg">
<g clip-path="url(#clip0_32_13655)">
<path d="M12 0H4C1.79086 0 0 1.79086 0 4V12C0 14.2091 1.79086 16 4 16H12C14.2091 16 16 14.2091 16 12V4C16 1.79086 14.2091 0 12 0Z" fill="url(#paint0_linear_32_13655)"/>
<path d="M12 0H4C1.79086 0 0 1.79086 0 4V12C0 14.2091 1.79086 16 4 16H12C14.2091 16 16 14.2091 16 12V4C16 1.79086 14.2091 0 12 0Z" fill="url(#paint1_linear_32_13655)"/>
<g filter="url(#filter0_i_32_13655)">
<path d="M12 1H4C2.34315 1 1 2.34315 1 4V12C1 13.6569 2.34315 15 4 15H12C13.6569 15 15 13.6569 15 12V4C15 2.34315 13.6569 1 12 1Z" fill="black" fill-opacity="0.7"/>
<g filter="url(#filter1_d_32_13655)">
<path d="M6.44498 9.73596C6.65001 10.147 9.35307 10.1427 9.55573 9.73596C9.75815 9.32969 8.41768 6.89012 8.00047 6.88965C7.58303 6.88965 6.23994 9.32494 6.44498 9.73596Z" fill="url(#paint2_linear_32_13655)"/>
</g>
<g filter="url(#filter2_d_32_13655)">
<path d="M3.31357 11.8258C3.93059 13.0648 12.0773 13.0505 12.6876 11.8258C13.298 10.601 9.25756 3.25 8.00072 3.25C6.7434 3.25 2.69655 10.5868 3.31357 11.8258ZM4.93012 10.7507C4.52575 9.93884 7.17771 5.1317 8.0012 5.1317C8.82491 5.1317 11.4724 9.94764 11.0723 10.7507C10.6724 11.5537 5.3345 11.5625 4.93012 10.7507Z" fill="url(#paint3_linear_32_13655)"/>
</g>
</g>
</g>
<defs>
<filter id="filter0_i_32_13655" x="1" y="1" width="14" height="18" filterUnits="userSpaceOnUse" color-interpolation-filters="sRGB">
<feFlood flood-opacity="0" result="BackgroundImageFix"/>
<feBlend mode="normal" in="SourceGraphic" in2="BackgroundImageFix" result="shape"/>
<feColorMatrix in="SourceAlpha" type="matrix" values="0 0 0 0 0 0 0 0 0 0 0 0 0 0 0 0 0 0 127 0" result="hardAlpha"/>
<feOffset dy="4"/>
<feGaussianBlur stdDeviation="2"/>
<feComposite in2="hardAlpha" operator="arithmetic" k2="-1" k3="1"/>
<feColorMatrix type="matrix" values="0 0 0 0 0 0 0 0 0 0 0 0 0 0 0 0 0 0 0.25 0"/>
<feBlend mode="normal" in2="shape" result="effect1_innerShadow_32_13655"/>
</filter>
<filter id="filter1_d_32_13655" x="2.42383" y="4.88965" width="11.1523" height="11.153" filterUnits="userSpaceOnUse" color-interpolation-filters="sRGB">
<feFlood flood-opacity="0" result="BackgroundImageFix"/>
<feColorMatrix in="SourceAlpha" type="matrix" values="0 0 0 0 0 0 0 0 0 0 0 0 0 0 0 0 0 0 127 0" result="hardAlpha"/>
<feOffset dy="2"/>
<feGaussianBlur stdDeviation="2"/>
<feComposite in2="hardAlpha" operator="out"/>
<feColorMatrix type="matrix" values="0 0 0 0 0 0 0 0 0 0 0 0 0 0 0 0 0 0 0.25 0"/>
<feBlend mode="normal" in2="BackgroundImageFix" result="effect1_dropShadow_32_13655"/>
<feBlend mode="normal" in="SourceGraphic" in2="effect1_dropShadow_32_13655" result="shape"/>
</filter>
<filter id="filter2_d_32_13655" x="-0.75" y="1.25" width="17.5" height="17.4997" filterUnits="userSpaceOnUse" color-interpolation-filters="sRGB">
<feFlood flood-opacity="0" result="BackgroundImageFix"/>
<feColorMatrix in="SourceAlpha" type="matrix" values="0 0 0 0 0 0 0 0 0 0 0 0 0 0 0 0 0 0 127 0" result="hardAlpha"/>
<feOffset dy="2"/>
<feGaussianBlur stdDeviation="2"/>
<feComposite in2="hardAlpha" operator="out"/>
<feColorMatrix type="matrix" values="0 0 0 0 0 0 0 0 0 0 0 0 0 0 0 0 0 0 0.25 0"/>
<feBlend mode="normal" in2="BackgroundImageFix" result="effect1_dropShadow_32_13655"/>
<feBlend mode="normal" in="SourceGraphic" in2="effect1_dropShadow_32_13655" result="shape"/>
</filter>
<linearGradient id="paint0_linear_32_13655" x1="179.035" y1="218.076" x2="157.19" y2="218.443" gradientUnits="userSpaceOnUse">
<stop stop-color="#FCFCFC"/>
<stop offset="1" stop-color="#D0D6DC"/>
</linearGradient>
<linearGradient id="paint1_linear_32_13655" x1="2.80408" y1="6.53225" x2="16.0705" y2="14.1914" gradientUnits="userSpaceOnUse">
<stop stop-color="#AA5CC3"/>
<stop offset="1" stop-color="#00A4DC"/>
</linearGradient>
<linearGradient id="paint2_linear_32_13655" x1="4.91466" y1="7.12842" x2="12.7914" y2="11.6761" gradientUnits="userSpaceOnUse">
<stop stop-color="#AA5CC3"/>
<stop offset="1" stop-color="#00A4DC"/>
</linearGradient>
<linearGradient id="paint3_linear_32_13655" x1="4.91492" y1="7.1284" x2="12.7917" y2="11.6761" gradientUnits="userSpaceOnUse">
<stop stop-color="#AA5CC3"/>
<stop offset="1" stop-color="#00A4DC"/>
</linearGradient>
<clipPath id="clip0_32_13655">
<rect width="16" height="16" fill="white"/>
</clipPath>
</defs>
</svg>
