<svg width="16" height="16" viewBox="0 0 16 16" fill="none" xmlns="http://www.w3.org/2000/svg">
<g clip-path="url(#clip0_32_13664)">
<path d="M12 0H4C1.79086 0 0 1.79086 0 4V12C0 14.2091 1.79086 16 4 16H12C14.2091 16 16 14.2091 16 12V4C16 1.79086 14.2091 0 12 0Z" fill="url(#paint0_linear_32_13664)"/>
<g filter="url(#filter0_i_32_13664)">
<path d="M12 1H4C2.34315 1 1 2.34315 1 4V12C1 13.6569 2.34315 15 4 15H12C13.6569 15 15 13.6569 15 12V4C15 2.34315 13.6569 1 12 1Z" fill="black" fill-opacity="0.7"/>
<mask id="mask0_32_13664" style="mask-type:luminance" maskUnits="userSpaceOnUse" x="2" y="2" width="12" height="12">
<path d="M14 2H2V14H14V2Z" fill="white"/>
</mask>
<g mask="url(#mask0_32_13664)">
<g filter="url(#filter1_d_32_13664)">
<path d="M8.25 5.75C8.25 6.34674 8.01295 6.91904 7.59099 7.34099C7.16904 7.76295 6.59674 8 6 8C5.40326 8 4.83096 7.76295 4.40901 7.34099C3.98705 6.91904 3.75 6.34674 3.75 5.75C3.75 5.15326 3.98705 4.58096 4.40901 4.15901C4.83096 3.73705 5.40326 3.5 6 3.5C6.59674 3.5 7.16904 3.73705 7.59099 4.15901C8.01295 4.58096 8.25 5.15326 8.25 5.75Z" fill="url(#paint1_linear_32_13664)"/>
<path d="M7.98112 3.14453C6.76687 3.14453 5.55262 3.60978 4.62212 4.54003C2.76137 6.40078 2.76137 9.39703 4.62212 11.2578C6.48287 13.1185 9.47913 13.1185 11.3399 11.2578C13.2006 9.39703 13.2006 6.40078 11.3399 4.54003C10.4096 3.60978 9.19537 3.14453 7.98112 3.14453Z" fill="url(#paint2_linear_32_13664)"/>
<path opacity="0.4" fill-rule="evenodd" clip-rule="evenodd" d="M4.61133 4.98728L5.68933 3.31128L8.85158 6.42953C7.24158 5.89528 6.94233 5.88478 4.68983 6.01878L4.61133 4.98728Z" fill="url(#paint3_linear_32_13664)"/>
<path d="M5 2.63275C4.59475 2.63275 4.18925 2.7575 4.25 3C4.5 4 4.75 10 4.5 10.5C4.33325 10.8333 3.75 10.75 3.75 11.75C3.75 12.4668 4.45575 13.75 5 13.75C5.49175 13.748 6.25 12.4668 6.25 11.75C6.25 10.75 5.66675 10.8333 5.5 10.5C5.25 10 5.5 4 5.75 3C5.81075 2.7575 5.40525 2.63275 5 2.63275ZM4.875 2.88275V3.25L5.15625 2.8905L5.38275 2.9375L5.08575 3.297L5.38275 3.672L5.15625 3.74225L4.875 3.34375V3.70325L4.65625 3.7345V2.8985L4.875 2.88275Z" fill="url(#paint4_linear_32_13664)"/>
<path d="M8.25 5.75C8.25 6.34674 8.01295 6.91904 7.59099 7.34099C7.16904 7.76295 6.59674 8 6 8C5.40326 8 4.83096 7.76295 4.40901 7.34099C3.98705 6.91904 3.75 6.34674 3.75 5.75C3.75 5.15326 3.98705 4.58096 4.40901 4.15901C4.83096 3.73705 5.40326 3.5 6 3.5C6.59674 3.5 7.16904 3.73705 7.59099 4.15901C8.01295 4.58096 8.25 5.15326 8.25 5.75Z" fill="url(#paint5_linear_32_13664)"/>
<path d="M10.4983 7.93841C10.4983 8.61708 10.2286 9.26796 9.74869 9.74786C9.26876 10.2277 8.61782 10.4974 7.93907 10.4974C7.26033 10.4974 6.6094 10.2277 6.12946 9.74786C5.64951 9.26796 5.37988 8.61708 5.37988 7.93841C5.37988 7.25973 5.64951 6.60886 6.12946 6.12896C6.6094 5.64906 7.26033 5.37946 7.93907 5.37946C8.61782 5.37946 9.26876 5.64906 9.74869 6.12896C10.2286 6.60886 10.4983 7.25973 10.4983 7.93841Z" fill="url(#paint6_linear_32_13664)"/>
<path d="M7.2627 9.00751V6.80426L9.1502 7.89076L7.2627 9.00751Z" fill="url(#paint7_linear_32_13664)"/>
<path opacity="0.052" d="M7.85599 6.54499C7.61149 6.55774 7.37699 6.64249 7.16674 6.76574C7.24774 6.99349 7.37649 6.98149 7.55524 6.87749C8.00749 6.71274 8.52699 6.87924 8.83849 7.23574C9.06799 7.10824 8.99074 6.96174 8.81124 6.84574C8.54174 6.63374 8.19924 6.52474 7.85599 6.54499ZM6.60599 7.47749C6.38874 8.05099 6.61124 8.726 7.08824 9.09325C7.29349 8.9215 7.18899 8.80324 7.03074 8.65499C6.76599 8.32524 6.72499 7.85349 6.89024 7.47299C6.79399 7.48349 6.60574 7.27674 6.60599 7.47749ZM9.23574 7.82049C8.96799 7.78824 9.12649 8.11175 9.03624 8.274C8.96624 8.5445 8.77524 8.77175 8.54499 8.9285C8.62799 9.178 8.76399 9.14625 8.90924 8.97675C9.22849 8.6845 9.38049 8.23549 9.34599 7.80399C9.30924 7.80949 9.27249 7.815 9.23574 7.82075M7.45374 9.10999C7.31524 9.35999 7.69924 9.33849 7.86799 9.36699C8.02349 9.37274 8.17724 9.35125 8.32749 9.3125C8.33199 9.0145 8.12999 9.07324 7.90574 9.09949C7.77399 9.16174 7.45199 8.90174 7.45374 9.10999Z" fill="url(#paint8_radial_32_13664)"/>
<path opacity="0.052" d="M6.23361 6.755C6.02211 7.04775 5.90261 7.39475 5.84961 7.75025C6.18586 7.86775 6.29136 7.70875 6.33711 7.40775C6.56611 6.73625 7.23761 6.29375 7.93486 6.26575C8.00061 5.8845 7.76111 5.8375 7.46211 5.9365C6.96936 6.05 6.52761 6.3425 6.23361 6.755ZM6.14836 9.05225C6.60586 9.832 7.58661 10.201 8.44911 9.99275C8.44186 9.59825 8.20936 9.60875 7.89286 9.6535C7.26961 9.6525 6.68986 9.26325 6.40586 8.722C6.32886 8.842 5.91736 8.86725 6.14836 9.05225ZM8.97411 6.3505C8.68936 6.628 9.20736 6.745 9.31011 6.99875C9.55586 7.32925 9.64011 7.75875 9.60736 8.16775C9.97086 8.30325 10.0601 8.1175 9.99961 7.79425C9.95911 7.1575 9.58436 6.56775 9.05686 6.20825C9.02911 6.2555 9.00161 6.303 8.97386 6.35025M8.80636 9.58825C8.96561 9.9785 9.29561 9.5175 9.48436 9.3505C9.63461 9.17725 9.75236 8.981 9.84686 8.77275C9.50886 8.492 9.38961 8.7785 9.21236 9.05975C9.16186 9.26875 8.56586 9.39775 8.80661 9.5885" fill="url(#paint9_radial_32_13664)"/>
<path d="M5.50994 10.8325C5.53944 10.8473 6.04319 11.012 6.04544 11.7525C6.04769 12.4705 5.33544 13.5025 4.97444 13.505C4.58194 13.5073 3.91294 12.4703 3.90344 11.7525C3.89419 11.0675 4.40944 10.8518 4.43894 10.8325C4.80369 10.623 5.16244 10.6205 5.50994 10.8325Z" fill="url(#paint10_linear_32_13664)"/>
<path opacity="0.36" d="M5.00021 2.63275C4.59496 2.63275 4.18946 2.7575 4.25021 3C4.50021 4 4.75021 10 4.50021 10.5C4.45171 10.628 4.53996 10.511 4.59396 10.4688C4.82846 9.84075 4.67671 3.9875 4.42996 3C4.37371 2.775 4.72021 2.65725 5.09396 2.6405C5.06221 2.639 5.03221 2.63275 5.00021 2.63275Z" fill="white"/>
</g>
</g>
</g>
</g>
<defs>
<filter id="filter0_i_32_13664" x="1" y="1" width="14" height="18" filterUnits="userSpaceOnUse" color-interpolation-filters="sRGB">
<feFlood flood-opacity="0" result="BackgroundImageFix"/>
<feBlend mode="normal" in="SourceGraphic" in2="BackgroundImageFix" result="shape"/>
<feColorMatrix in="SourceAlpha" type="matrix" values="0 0 0 0 0 0 0 0 0 0 0 0 0 0 0 0 0 0 127 0" result="hardAlpha"/>
<feOffset dy="4"/>
<feGaussianBlur stdDeviation="2"/>
<feComposite in2="hardAlpha" operator="arithmetic" k2="-1" k3="1"/>
<feColorMatrix type="matrix" values="0 0 0 0 0 0 0 0 0 0 0 0 0 0 0 0 0 0 0.25 0"/>
<feBlend mode="normal" in2="shape" result="effect1_innerShadow_32_13664"/>
</filter>
<filter id="filter1_d_32_13664" x="-0.773438" y="0.632751" width="17.5088" height="19.1172" filterUnits="userSpaceOnUse" color-interpolation-filters="sRGB">
<feFlood flood-opacity="0" result="BackgroundImageFix"/>
<feColorMatrix in="SourceAlpha" type="matrix" values="0 0 0 0 0 0 0 0 0 0 0 0 0 0 0 0 0 0 127 0" result="hardAlpha"/>
<feOffset dy="2"/>
<feGaussianBlur stdDeviation="2"/>
<feComposite in2="hardAlpha" operator="out"/>
<feColorMatrix type="matrix" values="0 0 0 0 0 0 0 0 0 0 0 0 0 0 0 0 0 0 0.25 0"/>
<feBlend mode="normal" in2="BackgroundImageFix" result="effect1_dropShadow_32_13664"/>
<feBlend mode="normal" in="SourceGraphic" in2="effect1_dropShadow_32_13664" result="shape"/>
</filter>
<linearGradient id="paint0_linear_32_13664" x1="179.035" y1="218.076" x2="157.19" y2="218.443" gradientUnits="userSpaceOnUse">
<stop stop-color="#FCFCFC"/>
<stop offset="1" stop-color="#D0D6DC"/>
</linearGradient>
<linearGradient id="paint1_linear_32_13664" x1="98.4025" y1="132.56" x2="104.455" y2="132.818" gradientUnits="userSpaceOnUse">
<stop stop-color="white"/>
<stop offset="1" stop-color="#DFE1E3"/>
</linearGradient>
<linearGradient id="paint2_linear_32_13664" x1="109.628" y1="132.748" x2="96.6451" y2="132.965" gradientUnits="userSpaceOnUse">
<stop stop-color="#FCFCFC"/>
<stop offset="1" stop-color="#E9EAEB"/>
</linearGradient>
<linearGradient id="paint3_linear_32_13664" x1="4.04858" y1="7.21728" x2="6.17708" y2="7.35728" gradientUnits="userSpaceOnUse">
<stop/>
<stop offset="1" stop-opacity="0"/>
</linearGradient>
<linearGradient id="paint4_linear_32_13664" x1="5" y1="2.3965" x2="4.96875" y2="13.3275" gradientUnits="userSpaceOnUse">
<stop stop-color="#E0E0E0"/>
<stop offset="0.125" stop-color="#C0C0C0"/>
<stop offset="0.66" stop-color="#9B9B9B"/>
<stop offset="0.732" stop-color="#B3B3B3"/>
<stop offset="1" stop-color="#B1B1B1"/>
</linearGradient>
<linearGradient id="paint5_linear_32_13664" x1="99.085" y1="132.545" x2="102.507" y2="132.925" gradientUnits="userSpaceOnUse">
<stop stop-color="white"/>
<stop offset="1" stop-color="#EFF0F1"/>
</linearGradient>
<linearGradient id="paint6_linear_32_13664" x1="6.13115" y1="6.12638" x2="10.1885" y2="10.5904" gradientUnits="userSpaceOnUse">
<stop stop-color="#491309"/>
<stop offset="1" stop-color="#B6642D"/>
</linearGradient>
<linearGradient id="paint7_linear_32_13664" x1="6.0742" y1="5.96776" x2="9.65845" y2="9.75251" gradientUnits="userSpaceOnUse">
<stop stop-color="#FEE3A8"/>
<stop offset="1" stop-color="#FCDD99" stop-opacity="0"/>
</linearGradient>
<radialGradient id="paint8_radial_32_13664" cx="0" cy="0" r="1" gradientUnits="userSpaceOnUse" gradientTransform="translate(7.93674 7.95499) scale(1.41425)">
<stop stop-color="#FCDD99"/>
<stop offset="1" stop-color="#FCDD99" stop-opacity="0"/>
</radialGradient>
<radialGradient id="paint9_radial_32_13664" cx="0" cy="0" r="1" gradientUnits="userSpaceOnUse" gradientTransform="translate(7.93336 7.97125) scale(2.08375)">
<stop stop-color="#FCDD99"/>
<stop offset="1" stop-color="#FCDD99" stop-opacity="0"/>
</radialGradient>
<linearGradient id="paint10_linear_32_13664" x1="5.31169" y1="12.5025" x2="4.22294" y2="10.7218" gradientUnits="userSpaceOnUse">
<stop stop-color="#D6D6D6"/>
<stop offset="1" stop-color="#7A7A7A"/>
</linearGradient>
<clipPath id="clip0_32_13664">
<rect width="16" height="16" fill="white"/>
</clipPath>
</defs>
</svg>
