<svg width="16" height="16" viewBox="0 0 16 16" fill="none" xmlns="http://www.w3.org/2000/svg">
<g clip-path="url(#clip0_32_13763)">
<path d="M12 0H4C1.79086 0 0 1.79086 0 4V12C0 14.2091 1.79086 16 4 16H12C14.2091 16 16 14.2091 16 12V4C16 1.79086 14.2091 0 12 0Z" fill="url(#paint0_linear_32_13763)"/>
<g filter="url(#filter0_i_32_13763)">
<path d="M12 1H4C2.34315 1 1 2.34315 1 4V12C1 13.6569 2.34315 15 4 15H12C13.6569 15 15 13.6569 15 12V4C15 2.34315 13.6569 1 12 1Z" fill="black" fill-opacity="0.7"/>
<g filter="url(#filter1_d_32_13763)">
<path fill-rule="evenodd" clip-rule="evenodd" d="M8.5 3H4C3.44771 3 3 3.44771 3 4V12C3 12.5523 3.44771 13 4 13H12C12.5523 13 13 12.5523 13 12V7.5L8.5 3Z" fill="url(#paint1_linear_32_13763)"/>
</g>
<g filter="url(#filter2_d_32_13763)">
<path d="M12.9999 4C12.9999 3.44771 12.5523 3 12 3H10L12.9999 6V4Z" fill="#97989A"/>
</g>
<path d="M5.5 9.25H6L6.5 10.25L7.5 7.25H10.5" stroke="white" stroke-width="4" stroke-linecap="round" stroke-linejoin="round"/>
<path d="M10 10L8.5 8.5M10 8.5L9.25 9.25L8.5 10" stroke="white" stroke-width="4" stroke-linecap="round" stroke-linejoin="round"/>
</g>
</g>
<defs>
<filter id="filter0_i_32_13763" x="1" y="1" width="14" height="18" filterUnits="userSpaceOnUse" color-interpolation-filters="sRGB">
<feFlood flood-opacity="0" result="BackgroundImageFix"/>
<feBlend mode="normal" in="SourceGraphic" in2="BackgroundImageFix" result="shape"/>
<feColorMatrix in="SourceAlpha" type="matrix" values="0 0 0 0 0 0 0 0 0 0 0 0 0 0 0 0 0 0 127 0" result="hardAlpha"/>
<feOffset dy="4"/>
<feGaussianBlur stdDeviation="2"/>
<feComposite in2="hardAlpha" operator="arithmetic" k2="-1" k3="1"/>
<feColorMatrix type="matrix" values="0 0 0 0 0 0 0 0 0 0 0 0 0 0 0 0 0 0 0.25 0"/>
<feBlend mode="normal" in2="shape" result="effect1_innerShadow_32_13763"/>
</filter>
<filter id="filter1_d_32_13763" x="-1" y="1" width="18" height="18" filterUnits="userSpaceOnUse" color-interpolation-filters="sRGB">
<feFlood flood-opacity="0" result="BackgroundImageFix"/>
<feColorMatrix in="SourceAlpha" type="matrix" values="0 0 0 0 0 0 0 0 0 0 0 0 0 0 0 0 0 0 127 0" result="hardAlpha"/>
<feOffset dy="2"/>
<feGaussianBlur stdDeviation="2"/>
<feComposite in2="hardAlpha" operator="out"/>
<feColorMatrix type="matrix" values="0 0 0 0 0 0 0 0 0 0 0 0 0 0 0 0 0 0 0.25 0"/>
<feBlend mode="normal" in2="BackgroundImageFix" result="effect1_dropShadow_32_13763"/>
<feBlend mode="normal" in="SourceGraphic" in2="effect1_dropShadow_32_13763" result="shape"/>
</filter>
<filter id="filter2_d_32_13763" x="6" y="1" width="11" height="11" filterUnits="userSpaceOnUse" color-interpolation-filters="sRGB">
<feFlood flood-opacity="0" result="BackgroundImageFix"/>
<feColorMatrix in="SourceAlpha" type="matrix" values="0 0 0 0 0 0 0 0 0 0 0 0 0 0 0 0 0 0 127 0" result="hardAlpha"/>
<feOffset dy="2"/>
<feGaussianBlur stdDeviation="2"/>
<feComposite in2="hardAlpha" operator="out"/>
<feColorMatrix type="matrix" values="0 0 0 0 0 0 0 0 0 0 0 0 0 0 0 0 0 0 0.25 0"/>
<feBlend mode="normal" in2="BackgroundImageFix" result="effect1_dropShadow_32_13763"/>
<feBlend mode="normal" in="SourceGraphic" in2="effect1_dropShadow_32_13763" result="shape"/>
</filter>
<linearGradient id="paint0_linear_32_13763" x1="16" y1="0" x2="0" y2="16" gradientUnits="userSpaceOnUse">
<stop stop-color="#FF5291"/>
<stop offset="1" stop-color="#C8031F"/>
</linearGradient>
<linearGradient id="paint1_linear_32_13763" x1="13" y1="3" x2="5.8" y2="12.6" gradientUnits="userSpaceOnUse">
<stop stop-color="#FF5291"/>
<stop offset="1" stop-color="#C8031F"/>
</linearGradient>
<clipPath id="clip0_32_13763">
<rect width="16" height="16" fill="white"/>
</clipPath>
</defs>
</svg>
