<svg width="16" height="16" viewBox="0 0 16 16" fill="none" xmlns="http://www.w3.org/2000/svg">
<g clip-path="url(#clip0_32_13726)">
<path d="M12 0H4C1.79086 0 0 1.79086 0 4V12C0 14.2091 1.79086 16 4 16H12C14.2091 16 16 14.2091 16 12V4C16 1.79086 14.2091 0 12 0Z" fill="url(#paint0_linear_32_13726)"/>
<g filter="url(#filter0_i_32_13726)">
<path d="M12 1H4C2.34315 1 1 2.34315 1 4V12C1 13.6569 2.34315 15 4 15H12C13.6569 15 15 13.6569 15 12V4C15 2.34315 13.6569 1 12 1Z" fill="black" fill-opacity="0.7"/>
<g filter="url(#filter1_d_32_13726)">
<path fill-rule="evenodd" clip-rule="evenodd" d="M8.5 3H4C3.44771 3 3 3.44771 3 4V12C3 12.5523 3.44771 13 4 13H12C12.5523 13 13 12.5523 13 12V7.5L8.5 3Z" fill="url(#paint1_linear_32_13726)"/>
</g>
<g filter="url(#filter2_d_32_13726)">
<path d="M8.5 6.5C8.5 7.05229 8.94772 7.5 9.5 7.5H13L8.5 3V6.5Z" fill="#FAFAFA"/>
</g>
<g filter="url(#filter3_d_32_13726)">
<path d="M12.9999 4C12.9999 3.44771 12.5523 3 12 3H10L12.9999 6V4Z" fill="#97989A"/>
</g>
<mask id="mask0_32_13726" style="mask-type:luminance" maskUnits="userSpaceOnUse" x="4" y="8" width="8" height="4">
<path d="M11.75 8H4.25C4.11193 8 4 8.11193 4 8.25V11.75C4 11.8881 4.11193 12 4.25 12H11.75C11.8881 12 12 11.8881 12 11.75V8.25C12 8.11193 11.8881 8 11.75 8Z" fill="white"/>
</mask>
<g mask="url(#mask0_32_13726)">
<path d="M6 9H4V12H6V9Z" fill="#24AFEA"/>
<path d="M6 9H4V12H6V9Z" fill="url(#paint2_linear_32_13726)"/>
<path d="M8 8H6V12H8V8Z" fill="#F8883C"/>
<path d="M8 8H6V12H8V8Z" fill="url(#paint3_linear_32_13726)"/>
<path d="M10 10H8V12H10V10Z" fill="#F0CD49"/>
<path d="M10 10H8V12H10V10Z" fill="url(#paint4_linear_32_13726)"/>
<path d="M12 9H10V12H12V9Z" fill="#5BDD4B"/>
<path d="M12 9H10V12H12V9Z" fill="url(#paint5_linear_32_13726)"/>
</g>
</g>
</g>
<defs>
<filter id="filter0_i_32_13726" x="1" y="1" width="14" height="18" filterUnits="userSpaceOnUse" color-interpolation-filters="sRGB">
<feFlood flood-opacity="0" result="BackgroundImageFix"/>
<feBlend mode="normal" in="SourceGraphic" in2="BackgroundImageFix" result="shape"/>
<feColorMatrix in="SourceAlpha" type="matrix" values="0 0 0 0 0 0 0 0 0 0 0 0 0 0 0 0 0 0 127 0" result="hardAlpha"/>
<feOffset dy="4"/>
<feGaussianBlur stdDeviation="2"/>
<feComposite in2="hardAlpha" operator="arithmetic" k2="-1" k3="1"/>
<feColorMatrix type="matrix" values="0 0 0 0 0 0 0 0 0 0 0 0 0 0 0 0 0 0 0.25 0"/>
<feBlend mode="normal" in2="shape" result="effect1_innerShadow_32_13726"/>
</filter>
<filter id="filter1_d_32_13726" x="-1" y="1" width="18" height="18" filterUnits="userSpaceOnUse" color-interpolation-filters="sRGB">
<feFlood flood-opacity="0" result="BackgroundImageFix"/>
<feColorMatrix in="SourceAlpha" type="matrix" values="0 0 0 0 0 0 0 0 0 0 0 0 0 0 0 0 0 0 127 0" result="hardAlpha"/>
<feOffset dy="2"/>
<feGaussianBlur stdDeviation="2"/>
<feComposite in2="hardAlpha" operator="out"/>
<feColorMatrix type="matrix" values="0 0 0 0 0 0 0 0 0 0 0 0 0 0 0 0 0 0 0.25 0"/>
<feBlend mode="normal" in2="BackgroundImageFix" result="effect1_dropShadow_32_13726"/>
<feBlend mode="normal" in="SourceGraphic" in2="effect1_dropShadow_32_13726" result="shape"/>
</filter>
<filter id="filter2_d_32_13726" x="4.5" y="1" width="12.5" height="12.5" filterUnits="userSpaceOnUse" color-interpolation-filters="sRGB">
<feFlood flood-opacity="0" result="BackgroundImageFix"/>
<feColorMatrix in="SourceAlpha" type="matrix" values="0 0 0 0 0 0 0 0 0 0 0 0 0 0 0 0 0 0 127 0" result="hardAlpha"/>
<feOffset dy="2"/>
<feGaussianBlur stdDeviation="2"/>
<feComposite in2="hardAlpha" operator="out"/>
<feColorMatrix type="matrix" values="0 0 0 0 0 0 0 0 0 0 0 0 0 0 0 0 0 0 0.25 0"/>
<feBlend mode="normal" in2="BackgroundImageFix" result="effect1_dropShadow_32_13726"/>
<feBlend mode="normal" in="SourceGraphic" in2="effect1_dropShadow_32_13726" result="shape"/>
</filter>
<filter id="filter3_d_32_13726" x="6" y="1" width="11" height="11" filterUnits="userSpaceOnUse" color-interpolation-filters="sRGB">
<feFlood flood-opacity="0" result="BackgroundImageFix"/>
<feColorMatrix in="SourceAlpha" type="matrix" values="0 0 0 0 0 0 0 0 0 0 0 0 0 0 0 0 0 0 127 0" result="hardAlpha"/>
<feOffset dy="2"/>
<feGaussianBlur stdDeviation="2"/>
<feComposite in2="hardAlpha" operator="out"/>
<feColorMatrix type="matrix" values="0 0 0 0 0 0 0 0 0 0 0 0 0 0 0 0 0 0 0.25 0"/>
<feBlend mode="normal" in2="BackgroundImageFix" result="effect1_dropShadow_32_13726"/>
<feBlend mode="normal" in="SourceGraphic" in2="effect1_dropShadow_32_13726" result="shape"/>
</filter>
<linearGradient id="paint0_linear_32_13726" x1="16" y1="0" x2="0" y2="16" gradientUnits="userSpaceOnUse">
<stop stop-color="#97989A"/>
<stop offset="1" stop-color="#505050"/>
</linearGradient>
<linearGradient id="paint1_linear_32_13726" x1="8" y1="3" x2="8" y2="13" gradientUnits="userSpaceOnUse">
<stop stop-color="#FAFAFA"/>
<stop offset="1" stop-color="#D5D5D5"/>
</linearGradient>
<linearGradient id="paint2_linear_32_13726" x1="5" y1="9" x2="5" y2="12" gradientUnits="userSpaceOnUse">
<stop stop-opacity="0"/>
<stop offset="1" stop-opacity="0.2"/>
</linearGradient>
<linearGradient id="paint3_linear_32_13726" x1="7" y1="8" x2="7" y2="12" gradientUnits="userSpaceOnUse">
<stop stop-opacity="0"/>
<stop offset="1" stop-opacity="0.2"/>
</linearGradient>
<linearGradient id="paint4_linear_32_13726" x1="9" y1="10" x2="9" y2="12" gradientUnits="userSpaceOnUse">
<stop stop-opacity="0"/>
<stop offset="1" stop-opacity="0.2"/>
</linearGradient>
<linearGradient id="paint5_linear_32_13726" x1="11" y1="9" x2="11" y2="12" gradientUnits="userSpaceOnUse">
<stop stop-opacity="0"/>
<stop offset="1" stop-opacity="0.2"/>
</linearGradient>
<clipPath id="clip0_32_13726">
<rect width="16" height="16" fill="white"/>
</clipPath>
</defs>
</svg>
