<svg width="16" height="16" viewBox="0 0 16 16" fill="none" xmlns="http://www.w3.org/2000/svg">
<g clip-path="url(#clip0_32_13706)">
<path d="M12 0H4C1.79086 0 0 1.79086 0 4V12C0 14.2091 1.79086 16 4 16H12C14.2091 16 16 14.2091 16 12V4C16 1.79086 14.2091 0 12 0Z" fill="url(#paint0_linear_32_13706)"/>
<g filter="url(#filter0_i_32_13706)">
<path d="M12 1H4C2.34315 1 1 2.34315 1 4V12C1 13.6569 2.34315 15 4 15H12C13.6569 15 15 13.6569 15 12V4C15 2.34315 13.6569 1 12 1Z" fill="black" fill-opacity="0.7"/>
<g filter="url(#filter1_d_32_13706)">
<path fill-rule="evenodd" clip-rule="evenodd" d="M8.5 3.625H4C3.44771 3.625 3 4.07271 3 4.625V11.375C3 11.9273 3.44771 12.375 4 12.375H12C12.5523 12.375 13 11.9273 13 11.375V8.125L8.5 3.625Z" fill="url(#paint1_linear_32_13706)"/>
</g>
<path d="M5 9.625V10.375C5 10.6511 5.22386 10.875 5.5 10.875H7M5 9.625H7M5 9.625V8.375M7 10.875V9.625M7 10.875H9M7 9.625H9M7 9.625V8.375M5 8.375H7M5 8.375V7.625C5 7.34886 5.22386 7.125 5.5 7.125H7M9 9.625V10.875M9 9.625H11M9 9.625V8.375M7 8.375H9M7 8.375V7.125M9 10.875H10.5C10.7761 10.875 11 10.6511 11 10.375V9.625M11 9.625V8.375M9 8.375H11M9 8.375V7.125M11 8.375V7.625C11 7.34886 10.7761 7.125 10.5 7.125H9M7 7.125H9" stroke="white" stroke-width="4"/>
<g filter="url(#filter2_d_32_13706)">
<path d="M12.9999 4.625C12.9999 4.07271 12.5523 3.625 12 3.625H10L12.9999 6.625V4.625Z" fill="#97989A"/>
</g>
</g>
</g>
<defs>
<filter id="filter0_i_32_13706" x="1" y="1" width="14" height="18" filterUnits="userSpaceOnUse" color-interpolation-filters="sRGB">
<feFlood flood-opacity="0" result="BackgroundImageFix"/>
<feBlend mode="normal" in="SourceGraphic" in2="BackgroundImageFix" result="shape"/>
<feColorMatrix in="SourceAlpha" type="matrix" values="0 0 0 0 0 0 0 0 0 0 0 0 0 0 0 0 0 0 127 0" result="hardAlpha"/>
<feOffset dy="4"/>
<feGaussianBlur stdDeviation="2"/>
<feComposite in2="hardAlpha" operator="arithmetic" k2="-1" k3="1"/>
<feColorMatrix type="matrix" values="0 0 0 0 0 0 0 0 0 0 0 0 0 0 0 0 0 0 0.25 0"/>
<feBlend mode="normal" in2="shape" result="effect1_innerShadow_32_13706"/>
</filter>
<filter id="filter1_d_32_13706" x="-1" y="1.625" width="18" height="16.75" filterUnits="userSpaceOnUse" color-interpolation-filters="sRGB">
<feFlood flood-opacity="0" result="BackgroundImageFix"/>
<feColorMatrix in="SourceAlpha" type="matrix" values="0 0 0 0 0 0 0 0 0 0 0 0 0 0 0 0 0 0 127 0" result="hardAlpha"/>
<feOffset dy="2"/>
<feGaussianBlur stdDeviation="2"/>
<feComposite in2="hardAlpha" operator="out"/>
<feColorMatrix type="matrix" values="0 0 0 0 0 0 0 0 0 0 0 0 0 0 0 0 0 0 0.25 0"/>
<feBlend mode="normal" in2="BackgroundImageFix" result="effect1_dropShadow_32_13706"/>
<feBlend mode="normal" in="SourceGraphic" in2="effect1_dropShadow_32_13706" result="shape"/>
</filter>
<filter id="filter2_d_32_13706" x="6" y="1.625" width="11" height="11" filterUnits="userSpaceOnUse" color-interpolation-filters="sRGB">
<feFlood flood-opacity="0" result="BackgroundImageFix"/>
<feColorMatrix in="SourceAlpha" type="matrix" values="0 0 0 0 0 0 0 0 0 0 0 0 0 0 0 0 0 0 127 0" result="hardAlpha"/>
<feOffset dy="2"/>
<feGaussianBlur stdDeviation="2"/>
<feComposite in2="hardAlpha" operator="out"/>
<feColorMatrix type="matrix" values="0 0 0 0 0 0 0 0 0 0 0 0 0 0 0 0 0 0 0.25 0"/>
<feBlend mode="normal" in2="BackgroundImageFix" result="effect1_dropShadow_32_13706"/>
<feBlend mode="normal" in="SourceGraphic" in2="effect1_dropShadow_32_13706" result="shape"/>
</filter>
<linearGradient id="paint0_linear_32_13706" x1="16" y1="0" x2="0" y2="16" gradientUnits="userSpaceOnUse">
<stop stop-color="#75EA53"/>
<stop offset="1" stop-color="#068540"/>
</linearGradient>
<linearGradient id="paint1_linear_32_13706" x1="13" y1="3.625" x2="3" y2="13.625" gradientUnits="userSpaceOnUse">
<stop stop-color="#75EA53"/>
<stop offset="1" stop-color="#068540"/>
</linearGradient>
<clipPath id="clip0_32_13706">
<rect width="16" height="16" fill="white"/>
</clipPath>
</defs>
</svg>
