<svg width="16" height="16" viewBox="0 0 16 16" fill="none" xmlns="http://www.w3.org/2000/svg">
<g clip-path="url(#clip0_32_13832)">
<path d="M12 0H4C1.79086 0 0 1.79086 0 4V12C0 14.2091 1.79086 16 4 16H12C14.2091 16 16 14.2091 16 12V4C16 1.79086 14.2091 0 12 0Z" fill="url(#paint0_linear_32_13832)"/>
<g filter="url(#filter0_i_32_13832)">
<path d="M12 1H4C2.34315 1 1 2.34315 1 4V12C1 13.6569 2.34315 15 4 15H12C13.6569 15 15 13.6569 15 12V4C15 2.34315 13.6569 1 12 1Z" fill="black" fill-opacity="0.7"/>
<mask id="mask0_32_13832" style="mask-type:luminance" maskUnits="userSpaceOnUse" x="2" y="2" width="12" height="12">
<path d="M14 2.875H2V13.125H14V2.875Z" fill="white"/>
</mask>
<g mask="url(#mask0_32_13832)">
<g filter="url(#filter1_d_32_13832)">
<path d="M3.76302 4.2153C4.19794 5.7581 4.00524 7.68854 13.1623 4.76709L13.6479 9.20718C13.7339 9.99319 13.121 10.69 12.2738 10.7694C10.0723 6.57516 5.05697 7.15704 2.87461 10.2176L2.38891 5.77754C2.30292 4.99153 2.91577 4.29476 3.76302 4.2153Z" fill="#08A7E6"/>
<path d="M3.7634 4.2153L11.4781 3.49172C12.3253 3.41226 13.0767 3.98107 13.1625 4.76708C8.48594 5.91471 8.16966 9.01971 12.2742 10.7694L4.55951 11.493C3.71227 11.5724 2.96097 11.0036 2.875 10.2176C8.24856 8.52858 7.6231 6.19401 3.7634 4.2153Z" fill="#322374"/>
<path d="M12.4259 4.20288H3.58333C3.163 4.20288 2.82227 4.54271 2.82227 4.96189V10.1671C2.82227 10.5863 3.163 10.9261 3.58333 10.9261H12.4259C12.8463 10.9261 13.187 10.5863 13.187 10.1671V4.96189C13.187 4.54271 12.8463 4.20288 12.4259 4.20288Z" fill="white"/>
<path d="M10.2998 10.9224C10.2999 10.5541 10.4466 10.2009 10.7077 9.94038C10.9688 9.6799 11.3229 9.53349 11.6922 9.53333C12.0615 9.53316 12.4158 9.67927 12.6771 9.93951C12.9385 10.1998 13.0855 10.5529 13.0859 10.9212C13.0862 11.2895 12.94 11.6429 12.6791 11.9037C12.4183 12.1644 12.0644 12.3113 11.6951 12.3119C11.3258 12.3125 10.9713 12.1668 10.7097 11.9068C10.448 11.6469 10.3006 11.2939 10.2998 10.9256" fill="white"/>
<path d="M10.2998 10.9224C10.2999 10.5541 10.4466 10.2009 10.7077 9.94038C10.9688 9.6799 11.3229 9.53349 11.6922 9.53333C12.0615 9.53316 12.4158 9.67927 12.6771 9.93951C12.9385 10.1998 13.0855 10.5529 13.0859 10.9212C13.0862 11.2895 12.94 11.6429 12.6791 11.9037C12.4183 12.1644 12.0644 12.3113 11.6951 12.3119C11.3258 12.3125 10.9713 12.1668 10.7097 11.9068C10.448 11.6469 10.3006 11.2939 10.2998 10.9256" stroke="#322374" stroke-width="2.66667" stroke-linecap="round" stroke-linejoin="round"/>
<path fill-rule="evenodd" clip-rule="evenodd" d="M11.1231 10.0227L12.7702 10.9711L11.1201 11.8691L11.1231 10.0227Z" fill="black"/>
</g>
</g>
</g>
</g>
<defs>
<filter id="filter0_i_32_13832" x="1" y="1" width="14" height="18" filterUnits="userSpaceOnUse" color-interpolation-filters="sRGB">
<feFlood flood-opacity="0" result="BackgroundImageFix"/>
<feBlend mode="normal" in="SourceGraphic" in2="BackgroundImageFix" result="shape"/>
<feColorMatrix in="SourceAlpha" type="matrix" values="0 0 0 0 0 0 0 0 0 0 0 0 0 0 0 0 0 0 127 0" result="hardAlpha"/>
<feOffset dy="4"/>
<feGaussianBlur stdDeviation="2"/>
<feComposite in2="hardAlpha" operator="arithmetic" k2="-1" k3="1"/>
<feColorMatrix type="matrix" values="0 0 0 0 0 0 0 0 0 0 0 0 0 0 0 0 0 0 0.25 0"/>
<feBlend mode="normal" in2="shape" result="effect1_innerShadow_32_13832"/>
</filter>
<filter id="filter1_d_32_13832" x="-1.61914" y="1.48431" width="20.0381" height="18.1609" filterUnits="userSpaceOnUse" color-interpolation-filters="sRGB">
<feFlood flood-opacity="0" result="BackgroundImageFix"/>
<feColorMatrix in="SourceAlpha" type="matrix" values="0 0 0 0 0 0 0 0 0 0 0 0 0 0 0 0 0 0 127 0" result="hardAlpha"/>
<feOffset dy="2"/>
<feGaussianBlur stdDeviation="2"/>
<feComposite in2="hardAlpha" operator="out"/>
<feColorMatrix type="matrix" values="0 0 0 0 0 0 0 0 0 0 0 0 0 0 0 0 0 0 0.25 0"/>
<feBlend mode="normal" in2="BackgroundImageFix" result="effect1_dropShadow_32_13832"/>
<feBlend mode="normal" in="SourceGraphic" in2="effect1_dropShadow_32_13832" result="shape"/>
</filter>
<linearGradient id="paint0_linear_32_13832" x1="3.3125" y1="12.375" x2="15.8122" y2="2.56215" gradientUnits="userSpaceOnUse">
<stop stop-color="#322374"/>
<stop offset="1" stop-color="#08A7E6"/>
</linearGradient>
<clipPath id="clip0_32_13832">
<rect width="16" height="16" fill="white"/>
</clipPath>
</defs>
</svg>
