<svg width="16" height="16" viewBox="0 0 16 16" fill="none" xmlns="http://www.w3.org/2000/svg">
<g clip-path="url(#clip0_32_13847)">
<path d="M12 0H4C1.79086 0 0 1.79086 0 4V12C0 14.2091 1.79086 16 4 16H12C14.2091 16 16 14.2091 16 12V4C16 1.79086 14.2091 0 12 0Z" fill="url(#paint0_linear_32_13847)"/>
<g filter="url(#filter0_i_32_13847)">
<path d="M12 1H4C2.34315 1 1 2.34315 1 4V12C1 13.6569 2.34315 15 4 15H12C13.6569 15 15 13.6569 15 12V4C15 2.34315 13.6569 1 12 1Z" fill="black" fill-opacity="0.7"/>
<mask id="mask0_32_13847" style="mask-type:luminance" maskUnits="userSpaceOnUse" x="3" y="3" width="10" height="10">
<path d="M13 3H3V13H13V3Z" fill="white"/>
</mask>
<g mask="url(#mask0_32_13847)">
<path d="M3.6017 3.43093L9.135 3.02223C9.8147 2.96393 9.9893 3.00323 10.4167 3.31393L12.183 4.55823C12.4743 4.77223 12.5712 4.83053 12.5712 5.06353V11.8878C12.5712 12.3155 12.416 12.5685 11.8723 12.6072L5.4467 12.9963C5.0387 13.0157 4.8444 12.9573 4.6307 12.685L3.33 10.9936C3.0967 10.6823 3 10.4493 3 10.1769V4.11093C3 3.76123 3.1553 3.46963 3.6017 3.43093Z" fill="white"/>
<g filter="url(#filter1_d_32_13847)">
<path fill-rule="evenodd" clip-rule="evenodd" d="M9.135 3.02233L3.6017 3.43103C3.1553 3.46963 3 3.76133 3 4.11093V10.1769C3 10.4492 3.0967 10.6822 3.33 10.9936L4.6307 12.6849C4.8444 12.9573 5.0387 13.0157 5.4467 12.9963L11.8724 12.6073C12.4157 12.5685 12.5714 12.3155 12.5714 11.8879V5.06363C12.5714 4.84263 12.4841 4.77893 12.2271 4.59033L10.4167 3.31393C9.9894 3.00323 9.8147 2.96403 9.135 3.02233ZM5.592 4.95193C5.0673 4.98723 4.9483 4.99523 4.6503 4.75293L3.8927 4.15033C3.8157 4.07233 3.8544 3.97503 4.0484 3.95563L9.3677 3.56693C9.8144 3.52793 10.047 3.68363 10.2217 3.81963L11.134 4.48063C11.173 4.50033 11.27 4.61663 11.1533 4.61663L5.66 4.94733L5.592 4.95193ZM4.9803 11.8296V6.03633C4.9803 5.78333 5.058 5.66663 5.2906 5.64703L11.6 5.27763C11.814 5.25833 11.9107 5.39433 11.9107 5.64693V11.4016C11.9107 11.6546 11.8717 11.8686 11.5224 11.8879L5.4847 12.2379C5.1354 12.2572 4.9803 12.1409 4.9803 11.8296ZM10.9403 6.34693C10.979 6.52193 10.9403 6.69693 10.7653 6.71693L10.4743 6.77463V11.0519C10.2216 11.1879 9.989 11.2656 9.7946 11.2656C9.4839 11.2656 9.4063 11.1683 9.1736 10.8769L7.2706 7.88293V10.7796L7.8726 10.9159C7.8726 10.9159 7.8726 11.2659 7.3869 11.2659L6.0479 11.3436C6.0089 11.2656 6.0479 11.0713 6.1836 11.0326L6.5333 10.9356V7.10563L6.048 7.06633C6.009 6.89133 6.106 6.63863 6.378 6.61903L7.8147 6.52233L9.7947 9.55503V6.87203L9.29 6.81403C9.251 6.59973 9.4063 6.44403 9.6003 6.42503L10.9403 6.34693Z" fill="black"/>
</g>
</g>
</g>
</g>
<defs>
<filter id="filter0_i_32_13847" x="1" y="1" width="14" height="18" filterUnits="userSpaceOnUse" color-interpolation-filters="sRGB">
<feFlood flood-opacity="0" result="BackgroundImageFix"/>
<feBlend mode="normal" in="SourceGraphic" in2="BackgroundImageFix" result="shape"/>
<feColorMatrix in="SourceAlpha" type="matrix" values="0 0 0 0 0 0 0 0 0 0 0 0 0 0 0 0 0 0 127 0" result="hardAlpha"/>
<feOffset dy="4"/>
<feGaussianBlur stdDeviation="2"/>
<feComposite in2="hardAlpha" operator="arithmetic" k2="-1" k3="1"/>
<feColorMatrix type="matrix" values="0 0 0 0 0 0 0 0 0 0 0 0 0 0 0 0 0 0 0.25 0"/>
<feBlend mode="normal" in2="shape" result="effect1_innerShadow_32_13847"/>
</filter>
<filter id="filter1_d_32_13847" x="-1" y="0.999603" width="17.5713" height="18.0001" filterUnits="userSpaceOnUse" color-interpolation-filters="sRGB">
<feFlood flood-opacity="0" result="BackgroundImageFix"/>
<feColorMatrix in="SourceAlpha" type="matrix" values="0 0 0 0 0 0 0 0 0 0 0 0 0 0 0 0 0 0 127 0" result="hardAlpha"/>
<feOffset dy="2"/>
<feGaussianBlur stdDeviation="2"/>
<feComposite in2="hardAlpha" operator="out"/>
<feColorMatrix type="matrix" values="0 0 0 0 0 0 0 0 0 0 0 0 0 0 0 0 0 0 0.25 0"/>
<feBlend mode="normal" in2="BackgroundImageFix" result="effect1_dropShadow_32_13847"/>
<feBlend mode="normal" in="SourceGraphic" in2="effect1_dropShadow_32_13847" result="shape"/>
</filter>
<linearGradient id="paint0_linear_32_13847" x1="8" y1="0" x2="8" y2="16" gradientUnits="userSpaceOnUse">
<stop stop-color="white"/>
<stop offset="1" stop-color="#DFDFDF"/>
</linearGradient>
<clipPath id="clip0_32_13847">
<rect width="16" height="16" fill="white"/>
</clipPath>
</defs>
</svg>
