<svg width="16" height="16" viewBox="0 0 16 16" fill="none" xmlns="http://www.w3.org/2000/svg">
<g clip-path="url(#clip0_32_13858)">
<path d="M12 0H4C1.79086 0 0 1.79086 0 4V12C0 14.2091 1.79086 16 4 16H12C14.2091 16 16 14.2091 16 12V4C16 1.79086 14.2091 0 12 0Z" fill="url(#paint0_linear_32_13858)"/>
<g filter="url(#filter0_i_32_13858)">
<path d="M12 1H4C2.34315 1 1 2.34315 1 4V12C1 13.6569 2.34315 15 4 15H12C13.6569 15 15 13.6569 15 12V4C15 2.34315 13.6569 1 12 1Z" fill="black" fill-opacity="0.7"/>
<mask id="mask0_32_13858" style="mask-type:luminance" maskUnits="userSpaceOnUse" x="2" y="2" width="12" height="12">
<path d="M14 2H2V14H14V2Z" fill="white"/>
</mask>
<g mask="url(#mask0_32_13858)">
<g filter="url(#filter1_d_32_13858)">
<path d="M10.956 13.143C10.8823 13.6905 10.3466 14.1183 9.81411 13.9705C9.05546 13.7615 8.17706 13.4357 7.38668 13.3749C7.28248 13.3669 6.17531 13.2829 6.17531 13.2829C5.97948 13.2689 5.79565 13.1834 5.65888 13.0425L3.57158 10.8933C3.34346 10.6585 3.28171 10.3082 3.41576 10.0096C3.41576 10.0096 4.70643 7.17334 4.75436 7.02585C4.8023 6.87835 4.97823 5.59195 5.08248 4.90089C5.1101 4.71775 5.20053 4.54987 5.33825 4.426L7.80745 2.20507C8.15098 1.89609 8.68421 1.94188 8.97 2.30489L11.0443 4.93953C11.1616 5.08865 11.2218 5.27395 11.2226 5.46368C11.225 5.96284 11.2662 6.98764 11.5422 7.6477C11.8107 8.28975 12.3035 8.98314 12.561 9.32434C12.6599 9.45529 12.675 9.63237 12.5915 9.7736C12.4098 10.0813 12.0506 10.6721 11.5422 11.4301C11.1917 11.9528 11.0293 12.5989 10.956 13.143Z" fill="#6C31E3"/>
<path d="M5.88382 13.205C6.85315 11.2371 6.82612 9.82726 6.41364 8.82112C6.03403 7.89525 5.328 7.31125 4.7715 6.94882C4.75978 7.00117 4.74279 7.0523 4.72078 7.10136L3.41575 10.0095C3.28172 10.3082 3.34347 10.6585 3.57157 10.8933L5.65887 13.0425C5.72435 13.11 5.80062 13.1648 5.88382 13.205Z" fill="url(#paint1_radial_32_13858)"/>
<path d="M9.81425 13.9703C10.3466 14.1179 10.8823 13.6902 10.956 13.1427C11.0195 12.6714 11.1498 12.1236 11.4113 11.6458C10.8113 10.3543 10.0858 9.68461 9.29042 9.38778C8.44852 9.07358 7.52838 9.17716 6.59608 9.40357C6.80449 10.352 6.67974 11.5907 5.88477 13.2049C5.97529 13.2486 6.074 13.2754 6.17598 13.2826C6.17598 13.2826 6.74963 13.3309 7.43184 13.3792C8.11405 13.4275 9.12927 13.7803 9.81425 13.9703Z" fill="url(#paint2_radial_32_13858)"/>
<path d="M8.52198 9.21076C8.78392 9.23813 9.04066 9.29458 9.29053 9.3878C10.086 9.68466 10.8117 10.3544 11.4118 11.6458C11.4521 11.5721 11.4956 11.5 11.5425 11.4301C12.0509 10.6721 12.41 10.0813 12.5918 9.77359C12.6753 9.63234 12.6601 9.45528 12.5613 9.32431C12.3037 8.98313 11.811 8.28973 11.5425 7.64769C11.2665 6.98763 11.2253 5.96281 11.2229 5.46366C11.222 5.27393 11.1619 5.08863 11.0445 4.93951L8.97026 2.30486C8.95918 2.29078 8.9477 2.27716 8.93588 2.26404C9.08808 2.76281 9.07777 3.16405 8.98388 3.5288C8.89683 3.86694 8.73793 4.17371 8.57008 4.49776C8.51377 4.60644 8.45647 4.71711 8.40052 4.83154C8.17783 5.28705 7.97677 5.80254 7.94712 6.49376C7.91745 7.18503 8.05908 8.05208 8.52198 9.21076Z" fill="url(#paint3_radial_32_13858)"/>
<path d="M8.52145 9.21072C8.05858 8.05206 7.91681 7.18503 7.94648 6.49374C7.97617 5.80244 8.17723 5.28696 8.39995 4.83141C8.45591 4.71698 8.51321 4.60635 8.56952 4.49764C8.73733 4.17359 8.89623 3.86684 8.98327 3.52874C9.07717 3.1639 9.08748 2.76255 8.93515 2.26358C8.64252 1.9388 8.13738 1.90819 7.80736 2.20504L5.33816 4.42598C5.20043 4.54984 5.11001 4.71773 5.08238 4.90086L4.7818 6.89342C4.77901 6.91191 4.77556 6.93029 4.77148 6.94854C5.32801 7.31097 6.03416 7.89504 6.4138 8.82101C6.48795 9.0019 6.54965 9.19575 6.59535 9.40361C7.25101 9.24439 7.9007 9.14592 8.52145 9.21072Z" fill="url(#paint4_radial_32_13858)"/>
<path fill-rule="evenodd" clip-rule="evenodd" d="M7.95178 6.44819C7.92201 7.13391 8.00761 7.92052 8.4695 9.07679L8.32446 9.0637C7.91006 7.85711 7.81988 7.23847 7.85005 6.54326C7.88025 5.84772 8.10499 5.31286 8.32896 4.85664C8.38568 4.74109 8.51804 4.52411 8.57466 4.4152C8.74236 4.09274 8.85398 3.92239 8.9498 3.62764C9.08371 3.21579 9.05474 3.02072 9.03948 2.8266C9.1458 3.52835 8.74224 4.13856 8.43714 4.76006C8.21489 5.2128 7.98151 5.76279 7.95178 6.44819Z" fill="url(#paint5_radial_32_13858)"/>
<path fill-rule="evenodd" clip-rule="evenodd" d="M6.55068 8.87209C6.60547 8.99877 6.65722 9.10106 6.68989 9.25779L6.56884 9.28501C6.51849 9.10198 6.47958 8.97178 6.40988 8.81478C5.99278 7.83077 5.3234 7.32462 4.77637 6.95337C5.43712 7.30884 6.11529 7.86524 6.55068 8.87209Z" fill="url(#paint6_radial_32_13858)"/>
<path fill-rule="evenodd" clip-rule="evenodd" d="M6.69669 9.38162C6.92782 10.4571 6.66998 11.8235 5.91016 13.1517C6.54527 11.8354 6.85316 10.5712 6.59673 9.40306L6.69669 9.38162Z" fill="url(#paint7_radial_32_13858)"/>
<path fill-rule="evenodd" clip-rule="evenodd" d="M9.3191 9.28489C10.5649 9.75109 11.0446 10.7747 11.4031 11.6287C10.9603 10.7345 10.3447 9.747 9.2744 9.38047C8.46004 9.10156 7.77227 9.13464 6.59652 9.40147L6.57031 9.28489C7.81814 9.00059 8.47054 8.96734 9.3191 9.28489Z" fill="url(#paint8_radial_32_13858)"/>
</g>
</g>
</g>
</g>
<defs>
<filter id="filter0_i_32_13858" x="1" y="1" width="14" height="18" filterUnits="userSpaceOnUse" color-interpolation-filters="sRGB">
<feFlood flood-opacity="0" result="BackgroundImageFix"/>
<feBlend mode="normal" in="SourceGraphic" in2="BackgroundImageFix" result="shape"/>
<feColorMatrix in="SourceAlpha" type="matrix" values="0 0 0 0 0 0 0 0 0 0 0 0 0 0 0 0 0 0 127 0" result="hardAlpha"/>
<feOffset dy="4"/>
<feGaussianBlur stdDeviation="2"/>
<feComposite in2="hardAlpha" operator="arithmetic" k2="-1" k3="1"/>
<feColorMatrix type="matrix" values="0 0 0 0 0 0 0 0 0 0 0 0 0 0 0 0 0 0 0.25 0"/>
<feBlend mode="normal" in2="shape" result="effect1_innerShadow_32_13858"/>
</filter>
<filter id="filter1_d_32_13858" x="-0.654297" y="0" width="17.2998" height="20" filterUnits="userSpaceOnUse" color-interpolation-filters="sRGB">
<feFlood flood-opacity="0" result="BackgroundImageFix"/>
<feColorMatrix in="SourceAlpha" type="matrix" values="0 0 0 0 0 0 0 0 0 0 0 0 0 0 0 0 0 0 127 0" result="hardAlpha"/>
<feOffset dy="2"/>
<feGaussianBlur stdDeviation="2"/>
<feComposite in2="hardAlpha" operator="out"/>
<feColorMatrix type="matrix" values="0 0 0 0 0 0 0 0 0 0 0 0 0 0 0 0 0 0 0.25 0"/>
<feBlend mode="normal" in2="BackgroundImageFix" result="effect1_dropShadow_32_13858"/>
<feBlend mode="normal" in="SourceGraphic" in2="effect1_dropShadow_32_13858" result="shape"/>
</filter>
<linearGradient id="paint0_linear_32_13858" x1="8" y1="16" x2="8" y2="0" gradientUnits="userSpaceOnUse">
<stop stop-color="#5125AA"/>
<stop offset="1" stop-color="#7842E5"/>
</linearGradient>
<radialGradient id="paint1_radial_32_13858" cx="0" cy="0" r="1" gradientUnits="userSpaceOnUse" gradientTransform="translate(5.77957 13.0108) rotate(-104.574) scale(5.46011 3.63861)">
<stop stop-color="white" stop-opacity="0.4"/>
<stop offset="1" stop-opacity="0.1"/>
</radialGradient>
<radialGradient id="paint2_radial_32_13858" cx="0" cy="0" r="1" gradientUnits="userSpaceOnUse" gradientTransform="translate(9.8538 13.9997) rotate(-120.563) scale(4.43674 5.09428)">
<stop stop-color="white" stop-opacity="0.3"/>
<stop offset="1" stop-opacity="0.25"/>
</radialGradient>
<radialGradient id="paint3_radial_32_13858" cx="0" cy="0" r="1" gradientUnits="userSpaceOnUse" gradientTransform="translate(10.4335 10.7656) rotate(-82.4846) scale(8.95979 6.61955)">
<stop stop-color="white" stop-opacity="0.55"/>
<stop offset="1" stop-color="white" stop-opacity="0.05"/>
</radialGradient>
<radialGradient id="paint4_radial_32_13858" cx="0" cy="0" r="1" gradientUnits="userSpaceOnUse" gradientTransform="translate(6.10673 9.19259) rotate(-77.7214) scale(7.65117 5.21792)">
<stop stop-color="white" stop-opacity="0.83"/>
<stop offset="1" stop-color="white" stop-opacity="0.4"/>
</radialGradient>
<radialGradient id="paint5_radial_32_13858" cx="0" cy="0" r="1" gradientUnits="userSpaceOnUse" gradientTransform="translate(9.26175 4.99999) rotate(102.236) scale(3.98106 2.68459)">
<stop stop-color="white" stop-opacity="0"/>
<stop offset="1" stop-color="white" stop-opacity="0.17"/>
</radialGradient>
<radialGradient id="paint6_radial_32_13858" cx="0" cy="0" r="1" gradientUnits="userSpaceOnUse" gradientTransform="translate(4.5977 7.15624) rotate(45.3237) scale(2.93344 6.24795)">
<stop stop-color="white" stop-opacity="0.2"/>
<stop offset="1" stop-color="white" stop-opacity="0.44"/>
</radialGradient>
<radialGradient id="paint7_radial_32_13858" cx="0" cy="0" r="1" gradientUnits="userSpaceOnUse" gradientTransform="translate(6.81214 8.54431) rotate(80.2016) scale(3.43817 7.30115)">
<stop stop-color="white" stop-opacity="0.25"/>
<stop offset="1" stop-color="white" stop-opacity="0.3"/>
</radialGradient>
<radialGradient id="paint8_radial_32_13858" cx="0" cy="0" r="1" gradientUnits="userSpaceOnUse" gradientTransform="translate(11.3708 11.3515) rotate(-152.297) scale(5.23895 16.4866)">
<stop stop-color="white" stop-opacity="0.21"/>
<stop offset="0.46738" stop-color="white" stop-opacity="0.19"/>
<stop offset="1" stop-color="white" stop-opacity="0.29"/>
</radialGradient>
<clipPath id="clip0_32_13858">
<rect width="16" height="16" fill="white"/>
</clipPath>
</defs>
</svg>
