<svg width="16" height="16" viewBox="0 0 16 16" fill="none" xmlns="http://www.w3.org/2000/svg">
<g clip-path="url(#clip0_32_13876)">
<path d="M12 0H4C1.79086 0 0 1.79086 0 4V12C0 14.2091 1.79086 16 4 16H12C14.2091 16 16 14.2091 16 12V4C16 1.79086 14.2091 0 12 0Z" fill="url(#paint0_linear_32_13876)"/>
<g filter="url(#filter0_i_32_13876)">
<path d="M12 1H4C2.34315 1 1 2.34315 1 4V12C1 13.6569 2.34315 15 4 15H12C13.6569 15 15 13.6569 15 12V4C15 2.34315 13.6569 1 12 1Z" fill="black" fill-opacity="0.7"/>
<g filter="url(#filter1_d_32_13876)">
<path d="M7.9999 3.00023C5.23855 3.00023 3 5.23876 3 8.00012C3 10.6816 5.11101 12.87 7.76178 12.9943C7.84089 12.998 7.92011 13 7.99998 13C9.2801 13 10.4475 12.5187 11.3321 11.7276C10.746 12.1163 10.0608 12.34 9.32854 12.34C8.13784 12.34 7.07146 11.7493 6.35428 10.8178C5.8014 10.1652 5.44331 9.20047 5.41893 8.11781V7.88236C5.4433 6.79974 5.80139 5.83484 6.35413 5.18237C7.07144 4.25089 8.13778 3.6602 9.32839 3.6602C10.0609 3.6602 10.7462 3.88385 11.3323 4.27278C10.4521 3.48533 9.2917 3.00498 8.01871 3.00025C8.01236 3.00025 8.00615 3 7.9998 3L7.9999 3.00023Z" fill="#FF1B2D"/>
<path d="M6.35449 5.18265C6.81333 4.64098 7.40589 4.31435 8.05329 4.31435C9.50892 4.31435 10.6887 5.96463 10.6887 8.00033C10.6887 10.036 9.50883 11.6863 8.05329 11.6863C7.40589 11.6863 6.81333 11.3598 6.35462 10.8181C7.07179 11.7496 8.13808 12.3403 9.32888 12.3403C10.0612 12.3403 10.7464 12.1167 11.3325 11.728C12.3559 10.8124 13.0003 9.48168 13.0003 8.00037C13.0003 6.51923 12.356 5.18856 11.3328 4.27311C10.7466 3.88417 10.0613 3.66052 9.32889 3.66052C8.1382 3.66052 7.07169 4.25116 6.35449 5.18265Z" fill="#B10000"/>
</g>
</g>
</g>
<defs>
<filter id="filter0_i_32_13876" x="1" y="1" width="14" height="18" filterUnits="userSpaceOnUse" color-interpolation-filters="sRGB">
<feFlood flood-opacity="0" result="BackgroundImageFix"/>
<feBlend mode="normal" in="SourceGraphic" in2="BackgroundImageFix" result="shape"/>
<feColorMatrix in="SourceAlpha" type="matrix" values="0 0 0 0 0 0 0 0 0 0 0 0 0 0 0 0 0 0 127 0" result="hardAlpha"/>
<feOffset dy="4"/>
<feGaussianBlur stdDeviation="2"/>
<feComposite in2="hardAlpha" operator="arithmetic" k2="-1" k3="1"/>
<feColorMatrix type="matrix" values="0 0 0 0 0 0 0 0 0 0 0 0 0 0 0 0 0 0 0.25 0"/>
<feBlend mode="normal" in2="shape" result="effect1_innerShadow_32_13876"/>
</filter>
<filter id="filter1_d_32_13876" x="-1" y="1" width="18" height="18" filterUnits="userSpaceOnUse" color-interpolation-filters="sRGB">
<feFlood flood-opacity="0" result="BackgroundImageFix"/>
<feColorMatrix in="SourceAlpha" type="matrix" values="0 0 0 0 0 0 0 0 0 0 0 0 0 0 0 0 0 0 127 0" result="hardAlpha"/>
<feOffset dy="2"/>
<feGaussianBlur stdDeviation="2"/>
<feComposite in2="hardAlpha" operator="out"/>
<feColorMatrix type="matrix" values="0 0 0 0 0 0 0 0 0 0 0 0 0 0 0 0 0 0 0.25 0"/>
<feBlend mode="normal" in2="BackgroundImageFix" result="effect1_dropShadow_32_13876"/>
<feBlend mode="normal" in="SourceGraphic" in2="effect1_dropShadow_32_13876" result="shape"/>
</filter>
<linearGradient id="paint0_linear_32_13876" x1="8" y1="0" x2="8" y2="16" gradientUnits="userSpaceOnUse">
<stop stop-color="#FF1B2D"/>
<stop offset="0.3" stop-color="#FF1B2D"/>
<stop offset="0.614" stop-color="#FF1B2D"/>
<stop offset="1" stop-color="#A70014"/>
</linearGradient>
<clipPath id="clip0_32_13876">
<rect width="16" height="16" fill="white"/>
</clipPath>
</defs>
</svg>
