<svg width="16" height="16" viewBox="0 0 16 16" fill="none" xmlns="http://www.w3.org/2000/svg">
<g clip-path="url(#clip0_32_13909)">
<path d="M12 0H4C1.79086 0 0 1.79086 0 4V12C0 14.2091 1.79086 16 4 16H12C14.2091 16 16 14.2091 16 12V4C16 1.79086 14.2091 0 12 0Z" fill="url(#paint0_linear_32_13909)"/>
<g filter="url(#filter0_i_32_13909)">
<path d="M12 1H4C2.34315 1 1 2.34315 1 4V12C1 13.6569 2.34315 15 4 15H12C13.6569 15 15 13.6569 15 12V4C15 2.34315 13.6569 1 12 1Z" fill="black" fill-opacity="0.7"/>
<g filter="url(#filter1_d_32_13909)">
<path d="M5.72852 3.37888H8.40733L11.3633 8L8.40733 12.6211H5.72852L8.68445 8L5.72852 3.37888Z" fill="#F9BE03"/>
</g>
</g>
</g>
<defs>
<filter id="filter0_i_32_13909" x="1" y="1" width="14" height="18" filterUnits="userSpaceOnUse" color-interpolation-filters="sRGB">
<feFlood flood-opacity="0" result="BackgroundImageFix"/>
<feBlend mode="normal" in="SourceGraphic" in2="BackgroundImageFix" result="shape"/>
<feColorMatrix in="SourceAlpha" type="matrix" values="0 0 0 0 0 0 0 0 0 0 0 0 0 0 0 0 0 0 127 0" result="hardAlpha"/>
<feOffset dy="4"/>
<feGaussianBlur stdDeviation="2"/>
<feComposite in2="hardAlpha" operator="arithmetic" k2="-1" k3="1"/>
<feColorMatrix type="matrix" values="0 0 0 0 0 0 0 0 0 0 0 0 0 0 0 0 0 0 0.25 0"/>
<feBlend mode="normal" in2="shape" result="effect1_innerShadow_32_13909"/>
</filter>
<filter id="filter1_d_32_13909" x="1.72852" y="1.37888" width="13.6348" height="17.2422" filterUnits="userSpaceOnUse" color-interpolation-filters="sRGB">
<feFlood flood-opacity="0" result="BackgroundImageFix"/>
<feColorMatrix in="SourceAlpha" type="matrix" values="0 0 0 0 0 0 0 0 0 0 0 0 0 0 0 0 0 0 127 0" result="hardAlpha"/>
<feOffset dy="2"/>
<feGaussianBlur stdDeviation="2"/>
<feComposite in2="hardAlpha" operator="out"/>
<feColorMatrix type="matrix" values="0 0 0 0 0 0 0 0 0 0 0 0 0 0 0 0 0 0 0.25 0"/>
<feBlend mode="normal" in2="BackgroundImageFix" result="effect1_dropShadow_32_13909"/>
<feBlend mode="normal" in="SourceGraphic" in2="effect1_dropShadow_32_13909" result="shape"/>
</filter>
<linearGradient id="paint0_linear_32_13909" x1="-0.5348" y1="7.95884" x2="16" y2="7.95884" gradientUnits="userSpaceOnUse">
<stop stop-color="#F9BE03"/>
<stop offset="0.520833" stop-color="#D19217"/>
<stop offset="1" stop-color="#CC7C19"/>
</linearGradient>
<clipPath id="clip0_32_13909">
<rect width="16" height="16" fill="white"/>
</clipPath>
</defs>
</svg>
