<svg width="16" height="16" viewBox="0 0 16 16" fill="none" xmlns="http://www.w3.org/2000/svg">
<g clip-path="url(#clip0_32_13915)">
<path d="M12 0H4C1.79086 0 0 1.79086 0 4V12C0 14.2091 1.79086 16 4 16H12C14.2091 16 16 14.2091 16 12V4C16 1.79086 14.2091 0 12 0Z" fill="url(#paint0_linear_32_13915)"/>
<path d="M12 0H4C1.79086 0 0 1.79086 0 4V12C0 14.2091 1.79086 16 4 16H12C14.2091 16 16 14.2091 16 12V4C16 1.79086 14.2091 0 12 0Z" fill="url(#paint1_linear_32_13915)"/>
<g filter="url(#filter0_i_32_13915)">
<path d="M12 1H4C2.34315 1 1 2.34315 1 4V12C1 13.6569 2.34315 15 4 15H12C13.6569 15 15 13.6569 15 12V4C15 2.34315 13.6569 1 12 1Z" fill="black" fill-opacity="0.7"/>
<mask id="mask0_32_13915" style="mask-type:luminance" maskUnits="userSpaceOnUse" x="2" y="2" width="12" height="12">
<path d="M14 2H2V14H14V2Z" fill="white"/>
</mask>
<g mask="url(#mask0_32_13915)">
<g filter="url(#filter1_d_32_13915)">
<path d="M13.3688 10.8288L13.5428 6.06811L10.5181 5.3848L7.94629 7.10605L9.1416 10.6411L13.369 10.8288H13.3688Z" fill="url(#paint2_linear_32_13915)"/>
</g>
<g filter="url(#filter2_d_32_13915)">
<path d="M12.6989 8.27956L13.5428 6.06812L10.5669 4.75932L7.94629 7.10619L12.6989 8.27956Z" fill="url(#paint3_linear_32_13915)"/>
</g>
<g filter="url(#filter3_d_32_13915)">
<path d="M9.59014 13.4286L13.3688 10.8288L4.28111 6.7928L2.57129 11.6586L9.59014 13.4286Z" fill="url(#paint4_linear_32_13915)"/>
</g>
<g filter="url(#filter4_d_32_13915)">
<path d="M2.57129 6.6512L8.61883 11.2599L12.6989 8.27955L8.06283 3.13818L4.02831 2.45715L2.57129 6.6512Z" fill="url(#paint5_linear_32_13915)"/>
</g>
<g filter="url(#filter5_d_32_13915)">
<path d="M11.4861 4.5143H4.62891V11.3714H11.4861V4.5143Z" fill="black"/>
</g>
<path d="M5.4209 5.3616H6.47827C7.09565 5.3616 7.46902 5.72767 7.46902 6.25635V6.26367C7.46902 6.86252 7.00319 7.17327 6.42274 7.17327H5.99016V7.9496H5.4209V5.3616ZM6.44125 6.66675C6.72582 6.66675 6.89234 6.49658 6.89234 6.27475V6.26744C6.89234 6.01224 6.71485 5.87544 6.43016 5.87544H5.99016V6.66675H6.44125Z" fill="white"/>
<path d="M7.15039 7.59829L7.50903 7.19909C7.65692 7.36172 7.80103 7.45784 7.98217 7.45784C8.19657 7.45784 8.32959 7.32847 8.32959 7.02904V5.3616H8.91383V7.05487C8.91383 7.36172 8.82514 7.59086 8.66983 7.74629C8.57922 7.82895 8.47308 7.89276 8.35757 7.93401C8.24205 7.97525 8.1195 7.9931 7.99703 7.98652C7.83564 7.99068 7.67544 7.95785 7.5287 7.89057C7.38195 7.82328 7.25255 7.7233 7.15039 7.59829Z" fill="white"/>
<path d="M8.05679 10.0857H5.48535V10.5143H8.05679V10.0857Z" fill="white"/>
</g>
</g>
</g>
<defs>
<filter id="filter0_i_32_13915" x="1" y="1" width="14" height="18" filterUnits="userSpaceOnUse" color-interpolation-filters="sRGB">
<feFlood flood-opacity="0" result="BackgroundImageFix"/>
<feBlend mode="normal" in="SourceGraphic" in2="BackgroundImageFix" result="shape"/>
<feColorMatrix in="SourceAlpha" type="matrix" values="0 0 0 0 0 0 0 0 0 0 0 0 0 0 0 0 0 0 127 0" result="hardAlpha"/>
<feOffset dy="4"/>
<feGaussianBlur stdDeviation="2"/>
<feComposite in2="hardAlpha" operator="arithmetic" k2="-1" k3="1"/>
<feColorMatrix type="matrix" values="0 0 0 0 0 0 0 0 0 0 0 0 0 0 0 0 0 0 0.25 0"/>
<feBlend mode="normal" in2="shape" result="effect1_innerShadow_32_13915"/>
</filter>
<filter id="filter1_d_32_13915" x="3.94629" y="3.3848" width="13.5967" height="13.444" filterUnits="userSpaceOnUse" color-interpolation-filters="sRGB">
<feFlood flood-opacity="0" result="BackgroundImageFix"/>
<feColorMatrix in="SourceAlpha" type="matrix" values="0 0 0 0 0 0 0 0 0 0 0 0 0 0 0 0 0 0 127 0" result="hardAlpha"/>
<feOffset dy="2"/>
<feGaussianBlur stdDeviation="2"/>
<feComposite in2="hardAlpha" operator="out"/>
<feColorMatrix type="matrix" values="0 0 0 0 0 0 0 0 0 0 0 0 0 0 0 0 0 0 0.25 0"/>
<feBlend mode="normal" in2="BackgroundImageFix" result="effect1_dropShadow_32_13915"/>
<feBlend mode="normal" in="SourceGraphic" in2="effect1_dropShadow_32_13915" result="shape"/>
</filter>
<filter id="filter2_d_32_13915" x="3.94629" y="2.75932" width="13.5967" height="11.5202" filterUnits="userSpaceOnUse" color-interpolation-filters="sRGB">
<feFlood flood-opacity="0" result="BackgroundImageFix"/>
<feColorMatrix in="SourceAlpha" type="matrix" values="0 0 0 0 0 0 0 0 0 0 0 0 0 0 0 0 0 0 127 0" result="hardAlpha"/>
<feOffset dy="2"/>
<feGaussianBlur stdDeviation="2"/>
<feComposite in2="hardAlpha" operator="out"/>
<feColorMatrix type="matrix" values="0 0 0 0 0 0 0 0 0 0 0 0 0 0 0 0 0 0 0.25 0"/>
<feBlend mode="normal" in2="BackgroundImageFix" result="effect1_dropShadow_32_13915"/>
<feBlend mode="normal" in="SourceGraphic" in2="effect1_dropShadow_32_13915" result="shape"/>
</filter>
<filter id="filter3_d_32_13915" x="-1.42871" y="4.7928" width="18.7979" height="14.6358" filterUnits="userSpaceOnUse" color-interpolation-filters="sRGB">
<feFlood flood-opacity="0" result="BackgroundImageFix"/>
<feColorMatrix in="SourceAlpha" type="matrix" values="0 0 0 0 0 0 0 0 0 0 0 0 0 0 0 0 0 0 127 0" result="hardAlpha"/>
<feOffset dy="2"/>
<feGaussianBlur stdDeviation="2"/>
<feComposite in2="hardAlpha" operator="out"/>
<feColorMatrix type="matrix" values="0 0 0 0 0 0 0 0 0 0 0 0 0 0 0 0 0 0 0.25 0"/>
<feBlend mode="normal" in2="BackgroundImageFix" result="effect1_dropShadow_32_13915"/>
<feBlend mode="normal" in="SourceGraphic" in2="effect1_dropShadow_32_13915" result="shape"/>
</filter>
<filter id="filter4_d_32_13915" x="-1.42871" y="0.457153" width="18.1279" height="16.8027" filterUnits="userSpaceOnUse" color-interpolation-filters="sRGB">
<feFlood flood-opacity="0" result="BackgroundImageFix"/>
<feColorMatrix in="SourceAlpha" type="matrix" values="0 0 0 0 0 0 0 0 0 0 0 0 0 0 0 0 0 0 127 0" result="hardAlpha"/>
<feOffset dy="2"/>
<feGaussianBlur stdDeviation="2"/>
<feComposite in2="hardAlpha" operator="out"/>
<feColorMatrix type="matrix" values="0 0 0 0 0 0 0 0 0 0 0 0 0 0 0 0 0 0 0.25 0"/>
<feBlend mode="normal" in2="BackgroundImageFix" result="effect1_dropShadow_32_13915"/>
<feBlend mode="normal" in="SourceGraphic" in2="effect1_dropShadow_32_13915" result="shape"/>
</filter>
<filter id="filter5_d_32_13915" x="0.628906" y="2.5143" width="14.8574" height="14.8571" filterUnits="userSpaceOnUse" color-interpolation-filters="sRGB">
<feFlood flood-opacity="0" result="BackgroundImageFix"/>
<feColorMatrix in="SourceAlpha" type="matrix" values="0 0 0 0 0 0 0 0 0 0 0 0 0 0 0 0 0 0 127 0" result="hardAlpha"/>
<feOffset dy="2"/>
<feGaussianBlur stdDeviation="2"/>
<feComposite in2="hardAlpha" operator="out"/>
<feColorMatrix type="matrix" values="0 0 0 0 0 0 0 0 0 0 0 0 0 0 0 0 0 0 0.25 0"/>
<feBlend mode="normal" in2="BackgroundImageFix" result="effect1_dropShadow_32_13915"/>
<feBlend mode="normal" in="SourceGraphic" in2="effect1_dropShadow_32_13915" result="shape"/>
</filter>
<linearGradient id="paint0_linear_32_13915" x1="8" y1="0" x2="8" y2="16" gradientUnits="userSpaceOnUse">
<stop stop-color="#3BEA62"/>
<stop offset="0.510417" stop-color="#087CFA"/>
<stop offset="1" stop-color="#B74AF7"/>
</linearGradient>
<linearGradient id="paint1_linear_32_13915" x1="4.90765" y1="13.9138" x2="11.5083" y2="3.78074" gradientUnits="userSpaceOnUse">
<stop stop-color="#6B57FF"/>
<stop offset="0.461429" stop-color="#FF318C"/>
<stop offset="1" stop-color="#FDB60D"/>
</linearGradient>
<linearGradient id="paint2_linear_32_13915" x1="11.941" y1="10.0848" x2="10.3514" y2="5.4928" gradientUnits="userSpaceOnUse">
<stop offset="0.001" stop-color="#FF318C"/>
<stop offset="1" stop-color="#FC801D"/>
</linearGradient>
<linearGradient id="paint3_linear_32_13915" x1="12.3545" y1="5.11224" x2="10.9597" y2="6.88367" gradientUnits="userSpaceOnUse">
<stop stop-color="#FF318C"/>
<stop offset="0.781" stop-color="#FC801D"/>
</linearGradient>
<linearGradient id="paint4_linear_32_13915" x1="11.7771" y1="12.2389" x2="3.77209" y2="9.3504" gradientUnits="userSpaceOnUse">
<stop offset="0.017" stop-color="#FF318C"/>
<stop offset="0.811" stop-color="#6B57FF"/>
</linearGradient>
<linearGradient id="paint5_linear_32_13915" x1="5.67769" y1="10.1121" x2="9.08214" y2="4.0992" gradientUnits="userSpaceOnUse">
<stop offset="0.33" stop-color="#FF318C"/>
<stop offset="0.942" stop-color="#FDB60D"/>
</linearGradient>
<clipPath id="clip0_32_13915">
<rect width="16" height="16" fill="white"/>
</clipPath>
</defs>
</svg>
