<svg width="16" height="16" viewBox="0 0 16 16" fill="none" xmlns="http://www.w3.org/2000/svg">
<g clip-path="url(#clip0_32_13937)">
<path d="M12 0H4C1.79086 0 0 1.79086 0 4V12C0 14.2091 1.79086 16 4 16H12C14.2091 16 16 14.2091 16 12V4C16 1.79086 14.2091 0 12 0Z" fill="url(#paint0_linear_32_13937)"/>
<g filter="url(#filter0_i_32_13937)">
<path d="M12 1H4C2.34315 1 1 2.34315 1 4V12C1 13.6569 2.34315 15 4 15H12C13.6569 15 15 13.6569 15 12V4C15 2.34315 13.6569 1 12 1Z" fill="black" fill-opacity="0.7"/>
<mask id="mask0_32_13937" style="mask-type:luminance" maskUnits="userSpaceOnUse" x="2" y="2" width="12" height="12">
<path d="M14 2H2V14H14V2Z" fill="white"/>
</mask>
<g mask="url(#mask0_32_13937)">
<g filter="url(#filter1_d_32_13937)">
<g filter="url(#filter2_d_32_13937)">
<path d="M10.2074 4.24571L13.4132 6.912L12.2589 9.26058L10.3263 8.72458H8.6543L10.2074 4.24571Z" fill="#07C3F2"/>
</g>
<g filter="url(#filter3_d_32_13937)">
<path d="M6.9775 5.97713L6.35692 9.26056L6.2975 10.376L4.73292 11.0537L2.51465 11.2926L3.18779 4.19884L7.20721 2.51428L9.68379 4.13828L6.9775 5.97713Z" fill="#21D789"/>
</g>
<g filter="url(#filter4_d_32_13937)">
<path d="M6.9775 5.97713L7.27921 12.304L6.27692 13.4857L2.51465 11.2926L5.60379 6.68913L6.9775 5.97713Z" fill="#7AE46F"/>
</g>
<g filter="url(#filter5_d_32_13937)">
<path d="M11.1166 5.51542H7.31543L10.6743 2.51428L11.1166 5.51542Z" fill="#9AF156"/>
</g>
<g filter="url(#filter6_d_32_13937)">
<path d="M13.4859 12.3291L10.1396 13.4651L5.68359 12.2103L6.97731 5.97715L7.49388 5.51544L10.207 5.26057L9.96131 7.98515L12.119 7.14857L13.4859 12.3291Z" fill="#FCF84A"/>
</g>
<g filter="url(#filter7_d_32_13937)">
<path d="M4.57227 4.57143H11.4294V11.4286H4.57227V4.57143Z" fill="black"/>
</g>
<path d="M5.42676 10.1326H7.99818V10.5611H5.42676V10.1326Z" fill="white"/>
<path d="M5.42871 5.42857H6.48014C7.09271 5.42857 7.46414 5.792 7.46414 6.31657V6.32342C7.46414 6.91771 7.00129 7.22629 6.42529 7.22629H6.00014V7.99657H5.42871V5.42857ZM6.44129 6.72342C6.72357 6.72342 6.88929 6.55542 6.88929 6.33486V6.328C6.88929 6.07429 6.71329 5.93829 6.43214 5.93829H6.00014V6.72342H6.44129Z" fill="white"/>
<path d="M7.77074 6.72115V6.71429C7.76743 6.53811 7.79986 6.36309 7.86609 6.1998C7.9323 6.03651 8.03093 5.88833 8.156 5.76421C8.28108 5.6401 8.43001 5.54263 8.59381 5.47766C8.75761 5.41271 8.93288 5.38163 9.10903 5.38629C9.29616 5.37683 9.48319 5.40718 9.65774 5.47534C9.83229 5.54351 9.99039 5.64794 10.1216 5.78171L9.76274 6.19658C9.59 6.0177 9.35415 5.91351 9.10559 5.90629C8.67245 5.90629 8.36045 6.26629 8.36045 6.70629V6.71429C8.36045 7.15429 8.66559 7.52115 9.10559 7.52115C9.3993 7.52115 9.57874 7.40686 9.78103 7.22058L10.1399 7.58286C10.0106 7.73395 9.8487 7.85364 9.66633 7.93285C9.48395 8.01205 9.28594 8.0487 9.0873 8.04C8.91349 8.04263 8.74093 8.0103 8.57985 7.94491C8.41878 7.87954 8.27249 7.78245 8.14968 7.65943C8.02686 7.5364 7.93004 7.38995 7.86494 7.22876C7.79984 7.06758 7.7678 6.89495 7.77074 6.72115Z" fill="white"/>
</g>
</g>
</g>
</g>
<defs>
<filter id="filter0_i_32_13937" x="1" y="1" width="14" height="18" filterUnits="userSpaceOnUse" color-interpolation-filters="sRGB">
<feFlood flood-opacity="0" result="BackgroundImageFix"/>
<feBlend mode="normal" in="SourceGraphic" in2="BackgroundImageFix" result="shape"/>
<feColorMatrix in="SourceAlpha" type="matrix" values="0 0 0 0 0 0 0 0 0 0 0 0 0 0 0 0 0 0 127 0" result="hardAlpha"/>
<feOffset dy="4"/>
<feGaussianBlur stdDeviation="2"/>
<feComposite in2="hardAlpha" operator="arithmetic" k2="-1" k3="1"/>
<feColorMatrix type="matrix" values="0 0 0 0 0 0 0 0 0 0 0 0 0 0 0 0 0 0 0.25 0"/>
<feBlend mode="normal" in2="shape" result="effect1_innerShadow_32_13937"/>
</filter>
<filter id="filter1_d_32_13937" x="-1.48535" y="0.514282" width="18.9717" height="18.9715" filterUnits="userSpaceOnUse" color-interpolation-filters="sRGB">
<feFlood flood-opacity="0" result="BackgroundImageFix"/>
<feColorMatrix in="SourceAlpha" type="matrix" values="0 0 0 0 0 0 0 0 0 0 0 0 0 0 0 0 0 0 127 0" result="hardAlpha"/>
<feOffset dy="2"/>
<feGaussianBlur stdDeviation="2"/>
<feComposite in2="hardAlpha" operator="out"/>
<feColorMatrix type="matrix" values="0 0 0 0 0 0 0 0 0 0 0 0 0 0 0 0 0 0 0.25 0"/>
<feBlend mode="normal" in2="BackgroundImageFix" result="effect1_dropShadow_32_13937"/>
<feBlend mode="normal" in="SourceGraphic" in2="effect1_dropShadow_32_13937" result="shape"/>
</filter>
<filter id="filter2_d_32_13937" x="4.6543" y="2.24571" width="12.7588" height="13.0149" filterUnits="userSpaceOnUse" color-interpolation-filters="sRGB">
<feFlood flood-opacity="0" result="BackgroundImageFix"/>
<feColorMatrix in="SourceAlpha" type="matrix" values="0 0 0 0 0 0 0 0 0 0 0 0 0 0 0 0 0 0 127 0" result="hardAlpha"/>
<feOffset dy="2"/>
<feGaussianBlur stdDeviation="2"/>
<feComposite in2="hardAlpha" operator="out"/>
<feColorMatrix type="matrix" values="0 0 0 0 0 0 0 0 0 0 0 0 0 0 0 0 0 0 0.25 0"/>
<feBlend mode="normal" in2="BackgroundImageFix" result="effect1_dropShadow_32_13937"/>
<feBlend mode="normal" in="SourceGraphic" in2="effect1_dropShadow_32_13937" result="shape"/>
</filter>
<filter id="filter3_d_32_13937" x="-1.48535" y="0.514282" width="15.1689" height="16.7783" filterUnits="userSpaceOnUse" color-interpolation-filters="sRGB">
<feFlood flood-opacity="0" result="BackgroundImageFix"/>
<feColorMatrix in="SourceAlpha" type="matrix" values="0 0 0 0 0 0 0 0 0 0 0 0 0 0 0 0 0 0 127 0" result="hardAlpha"/>
<feOffset dy="2"/>
<feGaussianBlur stdDeviation="2"/>
<feComposite in2="hardAlpha" operator="out"/>
<feColorMatrix type="matrix" values="0 0 0 0 0 0 0 0 0 0 0 0 0 0 0 0 0 0 0.25 0"/>
<feBlend mode="normal" in2="BackgroundImageFix" result="effect1_dropShadow_32_13937"/>
<feBlend mode="normal" in="SourceGraphic" in2="effect1_dropShadow_32_13937" result="shape"/>
</filter>
<filter id="filter4_d_32_13937" x="-1.48535" y="3.97713" width="12.7646" height="15.5086" filterUnits="userSpaceOnUse" color-interpolation-filters="sRGB">
<feFlood flood-opacity="0" result="BackgroundImageFix"/>
<feColorMatrix in="SourceAlpha" type="matrix" values="0 0 0 0 0 0 0 0 0 0 0 0 0 0 0 0 0 0 127 0" result="hardAlpha"/>
<feOffset dy="2"/>
<feGaussianBlur stdDeviation="2"/>
<feComposite in2="hardAlpha" operator="out"/>
<feColorMatrix type="matrix" values="0 0 0 0 0 0 0 0 0 0 0 0 0 0 0 0 0 0 0.25 0"/>
<feBlend mode="normal" in2="BackgroundImageFix" result="effect1_dropShadow_32_13937"/>
<feBlend mode="normal" in="SourceGraphic" in2="effect1_dropShadow_32_13937" result="shape"/>
</filter>
<filter id="filter5_d_32_13937" x="3.31543" y="0.514282" width="11.8008" height="11.0011" filterUnits="userSpaceOnUse" color-interpolation-filters="sRGB">
<feFlood flood-opacity="0" result="BackgroundImageFix"/>
<feColorMatrix in="SourceAlpha" type="matrix" values="0 0 0 0 0 0 0 0 0 0 0 0 0 0 0 0 0 0 127 0" result="hardAlpha"/>
<feOffset dy="2"/>
<feGaussianBlur stdDeviation="2"/>
<feComposite in2="hardAlpha" operator="out"/>
<feColorMatrix type="matrix" values="0 0 0 0 0 0 0 0 0 0 0 0 0 0 0 0 0 0 0.25 0"/>
<feBlend mode="normal" in2="BackgroundImageFix" result="effect1_dropShadow_32_13937"/>
<feBlend mode="normal" in="SourceGraphic" in2="effect1_dropShadow_32_13937" result="shape"/>
</filter>
<filter id="filter6_d_32_13937" x="1.68359" y="3.26057" width="15.8027" height="16.2045" filterUnits="userSpaceOnUse" color-interpolation-filters="sRGB">
<feFlood flood-opacity="0" result="BackgroundImageFix"/>
<feColorMatrix in="SourceAlpha" type="matrix" values="0 0 0 0 0 0 0 0 0 0 0 0 0 0 0 0 0 0 127 0" result="hardAlpha"/>
<feOffset dy="2"/>
<feGaussianBlur stdDeviation="2"/>
<feComposite in2="hardAlpha" operator="out"/>
<feColorMatrix type="matrix" values="0 0 0 0 0 0 0 0 0 0 0 0 0 0 0 0 0 0 0.25 0"/>
<feBlend mode="normal" in2="BackgroundImageFix" result="effect1_dropShadow_32_13937"/>
<feBlend mode="normal" in="SourceGraphic" in2="effect1_dropShadow_32_13937" result="shape"/>
</filter>
<filter id="filter7_d_32_13937" x="0.572266" y="2.57143" width="14.8574" height="14.8571" filterUnits="userSpaceOnUse" color-interpolation-filters="sRGB">
<feFlood flood-opacity="0" result="BackgroundImageFix"/>
<feColorMatrix in="SourceAlpha" type="matrix" values="0 0 0 0 0 0 0 0 0 0 0 0 0 0 0 0 0 0 127 0" result="hardAlpha"/>
<feOffset dy="2"/>
<feGaussianBlur stdDeviation="2"/>
<feComposite in2="hardAlpha" operator="out"/>
<feColorMatrix type="matrix" values="0 0 0 0 0 0 0 0 0 0 0 0 0 0 0 0 0 0 0.25 0"/>
<feBlend mode="normal" in2="BackgroundImageFix" result="effect1_dropShadow_32_13937"/>
<feBlend mode="normal" in="SourceGraphic" in2="effect1_dropShadow_32_13937" result="shape"/>
</filter>
<linearGradient id="paint0_linear_32_13937" x1="8" y1="0" x2="8" y2="16" gradientUnits="userSpaceOnUse">
<stop stop-color="#FCF84A"/>
<stop offset="0.244792" stop-color="#9AF156"/>
<stop offset="0.510417" stop-color="#7AE36F"/>
<stop offset="0.744792" stop-color="#21D789"/>
<stop offset="1" stop-color="#07C3F2"/>
</linearGradient>
<clipPath id="clip0_32_13937">
<rect width="16" height="16" fill="white"/>
</clipPath>
</defs>
</svg>
