<svg width="16" height="16" viewBox="0 0 16 16" fill="none" xmlns="http://www.w3.org/2000/svg">
<g clip-path="url(#clip0_32_14022)">
<path d="M12 0H4C1.79086 0 0 1.79086 0 4V12C0 14.2091 1.79086 16 4 16H12C14.2091 16 16 14.2091 16 12V4C16 1.79086 14.2091 0 12 0Z" fill="url(#paint0_linear_32_14022)"/>
<g filter="url(#filter0_i_32_14022)">
<path d="M12 1H4C2.34315 1 1 2.34315 1 4V12C1 13.6569 2.34315 15 4 15H12C13.6569 15 15 13.6569 15 12V4C15 2.34315 13.6569 1 12 1Z" fill="black" fill-opacity="0.7"/>
<g filter="url(#filter1_d_32_14022)">
<path d="M6.7168 3.63675L6.65427 3.54295C6.37607 3.12565 5.90772 2.875 5.4062 2.875H4.375C3.54658 2.875 2.875 3.54658 2.875 4.375V11.625C2.875 12.4534 3.54658 13.125 4.375 13.125H11.625C12.4534 13.125 13.125 12.4534 13.125 11.625V6.25C13.125 5.42158 12.4534 4.75 11.625 4.75H8.79692C7.96105 4.75 7.18048 4.33225 6.7168 3.63675ZM6.7168 3.63675L7.13282 3.3594" stroke="url(#paint1_linear_32_14022)" stroke-width="2"/>
</g>
<g filter="url(#filter2_d_32_14022)">
<path fill-rule="evenodd" clip-rule="evenodd" d="M6.75278 8.79951C6.86307 9.43408 7.44053 9.91938 8.13404 9.91938H10.3496C10.736 9.91938 11.0882 9.80525 11.3413 9.53012C11.5914 9.25798 11.7328 8.88277 11.75 8.44496V8.43473C11.75 8.01311 11.5763 7.58678 11.2612 7.30208C10.9568 7.02696 10.5517 6.87533 10.1206 6.87533H8.86003V6.68198C8.86003 6.60511 8.81223 6.544 8.74819 6.51631C8.69572 6.49353 8.63257 6.49311 8.57564 6.52462L7.75204 6.98032C7.62552 7.05017 7.62552 7.22478 7.75204 7.29462L8.57564 7.75012C8.63257 7.78163 8.69572 7.78121 8.74819 7.75842C8.81223 7.73073 8.86003 7.66983 8.86003 7.59296V7.43432H10.1206C10.4021 7.43432 10.6649 7.56911 10.8606 7.74586C11.0564 7.92281 11.1647 8.16557 11.1663 8.42962C11.1416 9.018 10.8214 9.36041 10.3496 9.36041H8.13404C7.73893 9.36041 7.40807 9.09018 7.33335 8.73243C7.31467 8.64321 7.23395 8.57826 7.13902 8.57826H6.94779C6.82527 8.57826 6.73255 8.68388 6.75278 8.79951Z" fill="#8B00E7"/>
<path d="M5.87941 10.8747C5.44826 10.8747 5.04314 10.7232 4.73874 10.4481C4.42366 10.1632 4.25 9.73711 4.25 9.31548V9.30504C4.26712 8.86744 4.40854 8.49202 4.65869 8.21987C4.91173 7.94496 5.26394 7.83061 5.65039 7.83061H7.86592C8.55944 7.83061 9.1369 8.31591 9.24719 8.95049C9.26741 9.06634 9.1747 9.17195 9.05217 9.17195H8.86095C8.76601 9.17195 8.6853 9.107 8.66661 9.01777C8.59191 8.66004 8.26104 8.38959 7.86592 8.38959H5.65039C5.17855 8.38959 4.85836 8.73223 4.83367 9.32038C4.83524 9.58464 4.94352 9.82719 5.13941 10.0041C5.33509 10.1811 5.59791 10.3157 5.87941 10.3157H7.13994V10.1573C7.13994 10.0235 7.28424 9.93791 7.40742 9.99158C7.41321 9.99414 7.41876 9.9969 7.42432 9.99989L8.24792 10.4554C8.37445 10.5252 8.37445 10.7001 8.24792 10.7699L7.46546 11.2026C7.46546 11.2026 7.41321 11.2311 7.40742 11.2337C7.28424 11.2876 7.13994 11.2017 7.13994 11.0682V10.8747H5.87941Z" fill="#D404FF"/>
</g>
</g>
</g>
<defs>
<filter id="filter0_i_32_14022" x="1" y="1" width="14" height="18" filterUnits="userSpaceOnUse" color-interpolation-filters="sRGB">
<feFlood flood-opacity="0" result="BackgroundImageFix"/>
<feBlend mode="normal" in="SourceGraphic" in2="BackgroundImageFix" result="shape"/>
<feColorMatrix in="SourceAlpha" type="matrix" values="0 0 0 0 0 0 0 0 0 0 0 0 0 0 0 0 0 0 127 0" result="hardAlpha"/>
<feOffset dy="4"/>
<feGaussianBlur stdDeviation="2"/>
<feComposite in2="hardAlpha" operator="arithmetic" k2="-1" k3="1"/>
<feColorMatrix type="matrix" values="0 0 0 0 0 0 0 0 0 0 0 0 0 0 0 0 0 0 0.25 0"/>
<feBlend mode="normal" in2="shape" result="effect1_innerShadow_32_14022"/>
</filter>
<filter id="filter1_d_32_14022" x="-2.125" y="-0.125" width="20.25" height="20.25" filterUnits="userSpaceOnUse" color-interpolation-filters="sRGB">
<feFlood flood-opacity="0" result="BackgroundImageFix"/>
<feColorMatrix in="SourceAlpha" type="matrix" values="0 0 0 0 0 0 0 0 0 0 0 0 0 0 0 0 0 0 127 0" result="hardAlpha"/>
<feOffset dy="2"/>
<feGaussianBlur stdDeviation="2"/>
<feComposite in2="hardAlpha" operator="out"/>
<feColorMatrix type="matrix" values="0 0 0 0 0 0 0 0 0 0 0 0 0 0 0 0 0 0 0.25 0"/>
<feBlend mode="normal" in2="BackgroundImageFix" result="effect1_dropShadow_32_14022"/>
<feBlend mode="normal" in="SourceGraphic" in2="effect1_dropShadow_32_14022" result="shape"/>
</filter>
<filter id="filter2_d_32_14022" x="0.25" y="4.5" width="15.5" height="12.75" filterUnits="userSpaceOnUse" color-interpolation-filters="sRGB">
<feFlood flood-opacity="0" result="BackgroundImageFix"/>
<feColorMatrix in="SourceAlpha" type="matrix" values="0 0 0 0 0 0 0 0 0 0 0 0 0 0 0 0 0 0 127 0" result="hardAlpha"/>
<feOffset dy="2"/>
<feGaussianBlur stdDeviation="2"/>
<feComposite in2="hardAlpha" operator="out"/>
<feColorMatrix type="matrix" values="0 0 0 0 0 0 0 0 0 0 0 0 0 0 0 0 0 0 0.25 0"/>
<feBlend mode="normal" in2="BackgroundImageFix" result="effect1_dropShadow_32_14022"/>
<feBlend mode="normal" in="SourceGraphic" in2="effect1_dropShadow_32_14022" result="shape"/>
</filter>
<linearGradient id="paint0_linear_32_14022" x1="8" y1="0" x2="8" y2="16" gradientUnits="userSpaceOnUse">
<stop stop-color="#CB02C5"/>
<stop offset="0.244792" stop-color="#C101DA"/>
<stop offset="0.510417" stop-color="#B600F0"/>
<stop offset="0.744792" stop-color="#8900D9"/>
<stop offset="1" stop-color="#5800BF"/>
</linearGradient>
<linearGradient id="paint1_linear_32_14022" x1="8" y1="2.375" x2="8" y2="13.625" gradientUnits="userSpaceOnUse">
<stop stop-color="#C301D5"/>
<stop offset="0.505208" stop-color="#B600EF"/>
<stop offset="1" stop-color="#8100D4"/>
</linearGradient>
<clipPath id="clip0_32_14022">
<rect width="16" height="16" fill="white"/>
</clipPath>
</defs>
</svg>
