<svg width="16" height="16" viewBox="0 0 16 16" fill="none" xmlns="http://www.w3.org/2000/svg">
<g clip-path="url(#clip0_32_14113)">
<path d="M12 0H4C1.79086 0 0 1.79086 0 4V12C0 14.2091 1.79086 16 4 16H12C14.2091 16 16 14.2091 16 12V4C16 1.79086 14.2091 0 12 0Z" fill="url(#paint0_linear_32_14113)"/>
<g filter="url(#filter0_i_32_14113)">
<path d="M12 1H4C2.34315 1 1 2.34315 1 4V12C1 13.6569 2.34315 15 4 15H12C13.6569 15 15 13.6569 15 12V4C15 2.34315 13.6569 1 12 1Z" fill="black" fill-opacity="0.7"/>
<g filter="url(#filter1_d_32_14113)">
<path d="M5 3.75H4C3.17157 3.75 2.5 4.42157 2.5 5.25V10.75C2.5 11.5784 3.17157 12.25 4 12.25H5C5.82843 12.25 6.5 11.5784 6.5 10.75V5.25C6.5 4.42157 5.82843 3.75 5 3.75Z" fill="#115C77"/>
<g style="mix-blend-mode:overlay">
<path d="M5 3.75H4C3.17157 3.75 2.5 4.42157 2.5 5.25V10.75C2.5 11.5784 3.17157 12.25 4 12.25H5C5.82843 12.25 6.5 11.5784 6.5 10.75V5.25C6.5 4.42157 5.82843 3.75 5 3.75Z" fill="white" fill-opacity="0.5"/>
</g>
<path d="M5 4.25H4C3.44772 4.25 3 4.69772 3 5.25V10.75C3 11.3023 3.44772 11.75 4 11.75H5C5.55228 11.75 6 11.3023 6 10.75V5.25C6 4.69772 5.55228 4.25 5 4.25Z" stroke="#111111" stroke-width="2"/>
</g>
<g filter="url(#filter2_d_32_14113)">
<path d="M11.875 3.75H9C8.17157 3.75 7.5 4.42157 7.5 5.25V10.75C7.5 11.5784 8.17157 12.25 9 12.25H11.875C12.7034 12.25 13.375 11.5784 13.375 10.75V5.25C13.375 4.42157 12.7034 3.75 11.875 3.75Z" fill="#115C77"/>
<g style="mix-blend-mode:overlay">
<path d="M11.875 3.75H9C8.17157 3.75 7.5 4.42157 7.5 5.25V10.75C7.5 11.5784 8.17157 12.25 9 12.25H11.875C12.7034 12.25 13.375 11.5784 13.375 10.75V5.25C13.375 4.42157 12.7034 3.75 11.875 3.75Z" fill="white" fill-opacity="0.5"/>
</g>
<path d="M11.875 4.25H9C8.44772 4.25 8 4.69772 8 5.25V10.75C8 11.3023 8.44772 11.75 9 11.75H11.875C12.4273 11.75 12.875 11.3023 12.875 10.75V5.25C12.875 4.69772 12.4273 4.25 11.875 4.25Z" stroke="#111111" stroke-width="2"/>
</g>
</g>
</g>
<defs>
<filter id="filter0_i_32_14113" x="1" y="1" width="14" height="18" filterUnits="userSpaceOnUse" color-interpolation-filters="sRGB">
<feFlood flood-opacity="0" result="BackgroundImageFix"/>
<feBlend mode="normal" in="SourceGraphic" in2="BackgroundImageFix" result="shape"/>
<feColorMatrix in="SourceAlpha" type="matrix" values="0 0 0 0 0 0 0 0 0 0 0 0 0 0 0 0 0 0 127 0" result="hardAlpha"/>
<feOffset dy="4"/>
<feGaussianBlur stdDeviation="2"/>
<feComposite in2="hardAlpha" operator="arithmetic" k2="-1" k3="1"/>
<feColorMatrix type="matrix" values="0 0 0 0 0 0 0 0 0 0 0 0 0 0 0 0 0 0 0.25 0"/>
<feBlend mode="normal" in2="shape" result="effect1_innerShadow_32_14113"/>
</filter>
<filter id="filter1_d_32_14113" x="-2" y="1.25" width="13" height="17.5" filterUnits="userSpaceOnUse" color-interpolation-filters="sRGB">
<feFlood flood-opacity="0" result="BackgroundImageFix"/>
<feColorMatrix in="SourceAlpha" type="matrix" values="0 0 0 0 0 0 0 0 0 0 0 0 0 0 0 0 0 0 127 0" result="hardAlpha"/>
<feOffset dy="2"/>
<feGaussianBlur stdDeviation="2"/>
<feComposite in2="hardAlpha" operator="out"/>
<feColorMatrix type="matrix" values="0 0 0 0 0 0 0 0 0 0 0 0 0 0 0 0 0 0 0.25 0"/>
<feBlend mode="normal" in2="BackgroundImageFix" result="effect1_dropShadow_32_14113"/>
<feBlend mode="normal" in="SourceGraphic" in2="effect1_dropShadow_32_14113" result="shape"/>
</filter>
<filter id="filter2_d_32_14113" x="3" y="1.25" width="14.875" height="17.5" filterUnits="userSpaceOnUse" color-interpolation-filters="sRGB">
<feFlood flood-opacity="0" result="BackgroundImageFix"/>
<feColorMatrix in="SourceAlpha" type="matrix" values="0 0 0 0 0 0 0 0 0 0 0 0 0 0 0 0 0 0 127 0" result="hardAlpha"/>
<feOffset dy="2"/>
<feGaussianBlur stdDeviation="2"/>
<feComposite in2="hardAlpha" operator="out"/>
<feColorMatrix type="matrix" values="0 0 0 0 0 0 0 0 0 0 0 0 0 0 0 0 0 0 0.25 0"/>
<feBlend mode="normal" in2="BackgroundImageFix" result="effect1_dropShadow_32_14113"/>
<feBlend mode="normal" in="SourceGraphic" in2="effect1_dropShadow_32_14113" result="shape"/>
</filter>
<linearGradient id="paint0_linear_32_14113" x1="8" y1="0" x2="8" y2="16" gradientUnits="userSpaceOnUse">
<stop stop-color="#1FA2D1"/>
<stop offset="1" stop-color="#115C77"/>
</linearGradient>
<clipPath id="clip0_32_14113">
<rect width="16" height="16" fill="white"/>
</clipPath>
</defs>
</svg>
