<svg width="16" height="16" viewBox="0 0 16 16" fill="none" xmlns="http://www.w3.org/2000/svg">
<g clip-path="url(#clip0_32_14140)">
<path d="M12 0H4C1.79086 0 0 1.79086 0 4V12C0 14.2091 1.79086 16 4 16H12C14.2091 16 16 14.2091 16 12V4C16 1.79086 14.2091 0 12 0Z" fill="url(#paint0_linear_32_14140)"/>
<g filter="url(#filter0_i_32_14140)">
<path d="M12 1H4C2.34315 1 1 2.34315 1 4V12C1 13.6569 2.34315 15 4 15H12C13.6569 15 15 13.6569 15 12V4C15 2.34315 13.6569 1 12 1Z" fill="black" fill-opacity="0.7"/>
<path fill-rule="evenodd" clip-rule="evenodd" d="M5.70209 3.71611C5.56174 3.57764 5.37251 3.5 5.17535 3.5H3.25C2.83579 3.5 2.5 3.83579 2.5 4.25V11.75C2.5 12.1642 2.83579 12.5 3.25 12.5H12.75C13.1642 12.5 13.5 12.1642 13.5 11.75V5.5C13.5 5.08579 13.1642 4.75 12.75 4.75H7.0577C6.86054 4.75 6.67131 4.67236 6.53096 4.53389L5.70209 3.71611Z" fill="#5739A8"/>
<path d="M12.3796 5.375H3.62109C3.41399 5.375 3.24609 5.54289 3.24609 5.75V10.375C3.24609 10.5821 3.41399 10.75 3.62109 10.75H12.3796C12.5867 10.75 12.7546 10.5821 12.7546 10.375V5.75C12.7546 5.54289 12.5867 5.375 12.3796 5.375Z" fill="#FAFAFA"/>
<g filter="url(#filter1_d_32_14140)">
<path d="M2.5 6.75C2.5 6.33579 2.83579 6 3.25 6H12.75C13.1642 6 13.5 6.33579 13.5 6.75V11.75C13.5 12.1642 13.1642 12.5 12.75 12.5H3.25C2.83579 12.5 2.5 12.1642 2.5 11.75V6.75Z" fill="#7962E7"/>
</g>
</g>
</g>
<defs>
<filter id="filter0_i_32_14140" x="1" y="1" width="14" height="18" filterUnits="userSpaceOnUse" color-interpolation-filters="sRGB">
<feFlood flood-opacity="0" result="BackgroundImageFix"/>
<feBlend mode="normal" in="SourceGraphic" in2="BackgroundImageFix" result="shape"/>
<feColorMatrix in="SourceAlpha" type="matrix" values="0 0 0 0 0 0 0 0 0 0 0 0 0 0 0 0 0 0 127 0" result="hardAlpha"/>
<feOffset dy="4"/>
<feGaussianBlur stdDeviation="2"/>
<feComposite in2="hardAlpha" operator="arithmetic" k2="-1" k3="1"/>
<feColorMatrix type="matrix" values="0 0 0 0 0 0 0 0 0 0 0 0 0 0 0 0 0 0 0.25 0"/>
<feBlend mode="normal" in2="shape" result="effect1_innerShadow_32_14140"/>
</filter>
<filter id="filter1_d_32_14140" x="-0.5" y="4.5" width="17" height="12.5" filterUnits="userSpaceOnUse" color-interpolation-filters="sRGB">
<feFlood flood-opacity="0" result="BackgroundImageFix"/>
<feColorMatrix in="SourceAlpha" type="matrix" values="0 0 0 0 0 0 0 0 0 0 0 0 0 0 0 0 0 0 127 0" result="hardAlpha"/>
<feOffset dy="1.5"/>
<feGaussianBlur stdDeviation="1.5"/>
<feComposite in2="hardAlpha" operator="out"/>
<feColorMatrix type="matrix" values="0 0 0 0 0 0 0 0 0 0 0 0 0 0 0 0 0 0 0.25 0"/>
<feBlend mode="normal" in2="BackgroundImageFix" result="effect1_dropShadow_32_14140"/>
<feBlend mode="normal" in="SourceGraphic" in2="effect1_dropShadow_32_14140" result="shape"/>
</filter>
<linearGradient id="paint0_linear_32_14140" x1="16" y1="0" x2="0" y2="16" gradientUnits="userSpaceOnUse">
<stop stop-color="#6653C3"/>
<stop offset="1" stop-color="#5638A5"/>
</linearGradient>
<clipPath id="clip0_32_14140">
<rect width="16" height="16" fill="white"/>
</clipPath>
</defs>
</svg>
