<svg width="16" height="16" viewBox="0 0 16 16" fill="none" xmlns="http://www.w3.org/2000/svg">
<g clip-path="url(#clip0_32_14186)">
<path d="M12 0H4C1.79086 0 0 1.79086 0 4V12C0 14.2091 1.79086 16 4 16H12C14.2091 16 16 14.2091 16 12V4C16 1.79086 14.2091 0 12 0Z" fill="url(#paint0_linear_32_14186)"/>
<path d="M12 0H4C1.79086 0 0 1.79086 0 4V12C0 14.2091 1.79086 16 4 16H12C14.2091 16 16 14.2091 16 12V4C16 1.79086 14.2091 0 12 0Z" fill="black" fill-opacity="0.9"/>
<g filter="url(#filter0_i_32_14186)">
<path d="M12 1H4C2.34315 1 1 2.34315 1 4V12C1 13.6569 2.34315 15 4 15H12C13.6569 15 15 13.6569 15 12V4C15 2.34315 13.6569 1 12 1Z" fill="black" fill-opacity="0.7"/>
<path d="M10.3714 7.63481C10.3283 7.61416 10.2846 7.59429 10.2403 7.57526C10.1631 6.15303 9.38593 5.3388 8.08103 5.33046C8.07512 5.33044 8.06923 5.33044 8.06332 5.33044C7.28282 5.33044 6.6337 5.66359 6.23416 6.26982L6.95182 6.76213C7.25028 6.30929 7.7187 6.21275 8.06367 6.21275C8.06766 6.21275 8.07166 6.21275 8.07559 6.21279C8.50526 6.21553 8.82947 6.34045 9.03932 6.58406C9.19202 6.76143 9.29416 7.00651 9.34473 7.31582C8.96379 7.25107 8.55182 7.23117 8.11139 7.25642C6.87076 7.32789 6.07317 8.05145 6.12675 9.05688C6.15392 9.56688 6.408 10.0056 6.84213 10.2922C7.20918 10.5345 7.68192 10.653 8.17323 10.6262C8.82207 10.5906 9.33108 10.3431 9.6862 9.89041C9.95588 9.54666 10.1264 9.1012 10.2018 8.5399C10.511 8.72651 10.7401 8.97209 10.8667 9.26729C11.0819 9.76911 11.0945 10.5938 10.4216 11.266C9.83207 11.855 9.12343 12.1098 8.05247 12.1177C6.86448 12.1088 5.96602 11.7279 5.38187 10.9853C4.83486 10.2899 4.55217 9.28552 4.54162 8C4.55217 6.71446 4.83486 5.71009 5.38187 5.01473C5.96602 4.27213 6.86447 3.89115 8.05245 3.88231C9.24906 3.89121 10.1632 4.27403 10.7697 5.02021C11.0671 5.38613 11.2913 5.84629 11.4391 6.38282L12.2801 6.15845C12.1009 5.49803 11.819 4.92894 11.4354 4.45697C10.6578 3.50035 9.52062 3.01016 8.05538 3H8.04952C6.58726 3.01013 5.46281 3.50217 4.70741 4.46246C4.0352 5.317 3.68845 6.50603 3.6768 7.99649L3.67676 8L3.6768 8.00351C3.68845 9.49396 4.0352 10.683 4.70741 11.5375C5.46281 12.4978 6.58726 12.9899 8.04952 13H8.05538C9.35541 12.991 10.2718 12.6506 11.0267 11.8964C12.0143 10.9097 11.9846 9.67286 11.6591 8.91359C11.4255 8.36911 10.9803 7.92689 10.3714 7.63481ZM8.12679 9.74516C7.58304 9.77579 7.01813 9.53171 6.99028 9.00896C6.96963 8.62135 7.26613 8.18885 8.16016 8.13734C8.26254 8.13143 8.36301 8.12854 8.46171 8.12854C8.78644 8.12854 9.09026 8.16009 9.36644 8.22046C9.26343 9.50703 8.65916 9.71594 8.12679 9.74516Z" fill="white"/>
</g>
</g>
<defs>
<filter id="filter0_i_32_14186" x="1" y="1" width="14" height="18" filterUnits="userSpaceOnUse" color-interpolation-filters="sRGB">
<feFlood flood-opacity="0" result="BackgroundImageFix"/>
<feBlend mode="normal" in="SourceGraphic" in2="BackgroundImageFix" result="shape"/>
<feColorMatrix in="SourceAlpha" type="matrix" values="0 0 0 0 0 0 0 0 0 0 0 0 0 0 0 0 0 0 127 0" result="hardAlpha"/>
<feOffset dy="4"/>
<feGaussianBlur stdDeviation="2"/>
<feComposite in2="hardAlpha" operator="arithmetic" k2="-1" k3="1"/>
<feColorMatrix type="matrix" values="0 0 0 0 0 0 0 0 0 0 0 0 0 0 0 0 0 0 0.25 0"/>
<feBlend mode="normal" in2="shape" result="effect1_innerShadow_32_14186"/>
</filter>
<linearGradient id="paint0_linear_32_14186" x1="8" y1="0" x2="8" y2="16" gradientUnits="userSpaceOnUse">
<stop stop-color="white"/>
<stop offset="1" stop-color="#DFDFDF"/>
</linearGradient>
<clipPath id="clip0_32_14186">
<rect width="16" height="16" fill="white"/>
</clipPath>
</defs>
</svg>
