<svg width="16" height="16" viewBox="0 0 16 16" fill="none" xmlns="http://www.w3.org/2000/svg">
<g clip-path="url(#clip0_32_14192)">
<path d="M12 0H4C1.79086 0 0 1.79086 0 4V12C0 14.2091 1.79086 16 4 16H12C14.2091 16 16 14.2091 16 12V4C16 1.79086 14.2091 0 12 0Z" fill="url(#paint0_linear_32_14192)"/>
<path d="M12 0H4C1.79086 0 0 1.79086 0 4V12C0 14.2091 1.79086 16 4 16H12C14.2091 16 16 14.2091 16 12V4C16 1.79086 14.2091 0 12 0Z" fill="url(#paint1_linear_32_14192)"/>
<g filter="url(#filter0_i_32_14192)">
<path d="M12 1H4C2.34315 1 1 2.34315 1 4V12C1 13.6569 2.34315 15 4 15H12C13.6569 15 15 13.6569 15 12V4C15 2.34315 13.6569 1 12 1Z" fill="black" fill-opacity="0.7"/>
<path d="M8 12.8048C10.6535 12.8048 12.8048 10.6535 12.8048 8C12.8048 5.34645 10.6535 3.19531 8 3.19531C5.34645 3.19531 3.19531 5.34645 3.19531 8C3.19531 10.6535 5.34645 12.8048 8 12.8048Z" fill="#F2E4FF"/>
<path fill-rule="evenodd" clip-rule="evenodd" d="M8.01026 12.0906V11.4845C9.9302 11.479 11.4848 9.92119 11.4848 7.99986C11.4848 6.07868 9.9302 4.5209 8.01026 4.51536V3.90924C10.2649 3.91492 12.0908 5.74394 12.0908 7.99986C12.0908 10.2559 10.2649 12.0851 8.01026 12.0906ZM8.01026 9.96915C9.09317 9.96346 9.9697 9.0843 9.9697 7.99986C9.9697 6.91556 9.09317 6.0364 8.01026 6.03071V5.42474C9.42804 5.43029 10.5758 6.58084 10.5758 7.99986C10.5758 9.41903 9.42804 10.5696 8.01026 10.5751V9.96915ZM8.01026 6.93981C8.59115 6.94536 9.0606 7.41759 9.0606 7.99986C9.0606 8.58228 8.59115 9.0545 8.01026 9.06004V6.93981ZM3 7.99986C3 10.7614 5.23845 13 8 13C10.7614 13 13 10.7614 13 7.99986C13 5.23845 10.7614 3 8 3C5.23845 3 3 5.23845 3 7.99986Z" fill="#941AD0"/>
<g filter="url(#filter1_d_32_14192)">
<path d="M8.00001 3.56641C5.50826 3.56641 3.48828 5.57763 3.48828 8.05861C3.48828 10.5396 5.50826 12.5508 8.00001 12.5508V3.56641Z" fill="black"/>
</g>
<path d="M8 3C5.23857 3 3 5.23857 3 8C3 10.7614 5.23857 13 8 13V3Z" fill="#8116B6"/>
</g>
</g>
<defs>
<filter id="filter0_i_32_14192" x="1" y="1" width="14" height="18" filterUnits="userSpaceOnUse" color-interpolation-filters="sRGB">
<feFlood flood-opacity="0" result="BackgroundImageFix"/>
<feBlend mode="normal" in="SourceGraphic" in2="BackgroundImageFix" result="shape"/>
<feColorMatrix in="SourceAlpha" type="matrix" values="0 0 0 0 0 0 0 0 0 0 0 0 0 0 0 0 0 0 127 0" result="hardAlpha"/>
<feOffset dy="4"/>
<feGaussianBlur stdDeviation="2"/>
<feComposite in2="hardAlpha" operator="arithmetic" k2="-1" k3="1"/>
<feColorMatrix type="matrix" values="0 0 0 0 0 0 0 0 0 0 0 0 0 0 0 0 0 0 0.25 0"/>
<feBlend mode="normal" in2="shape" result="effect1_innerShadow_32_14192"/>
</filter>
<filter id="filter1_d_32_14192" x="-0.886719" y="0.441406" width="10.7617" height="15.2343" filterUnits="userSpaceOnUse" color-interpolation-filters="sRGB">
<feFlood flood-opacity="0" result="BackgroundImageFix"/>
<feColorMatrix in="SourceAlpha" type="matrix" values="0 0 0 0 0 0 0 0 0 0 0 0 0 0 0 0 0 0 127 0" result="hardAlpha"/>
<feOffset dx="-1.25"/>
<feGaussianBlur stdDeviation="1.5625"/>
<feColorMatrix type="matrix" values="0 0 0 0 0.25098 0 0 0 0 0.25098 0 0 0 0 0.25098 0 0 0 0.2 0"/>
<feBlend mode="normal" in2="BackgroundImageFix" result="effect1_dropShadow_32_14192"/>
<feBlend mode="normal" in="SourceGraphic" in2="effect1_dropShadow_32_14192" result="shape"/>
</filter>
<linearGradient id="paint0_linear_32_14192" x1="24.025" y1="-4.42269" x2="-3.54496" y2="15.9934" gradientUnits="userSpaceOnUse">
<stop stop-color="#D446FF"/>
<stop offset="1" stop-color="#A0D8FF"/>
</linearGradient>
<linearGradient id="paint1_linear_32_14192" x1="8" y1="0" x2="8" y2="16" gradientUnits="userSpaceOnUse">
<stop stop-color="#951AD1"/>
<stop offset="1" stop-color="#6C1397"/>
</linearGradient>
<clipPath id="clip0_32_14192">
<rect width="16" height="16" fill="white"/>
</clipPath>
</defs>
</svg>
