<svg width="16" height="16" viewBox="0 0 16 16" fill="none" xmlns="http://www.w3.org/2000/svg">
<g clip-path="url(#clip0_32_14202)">
<path d="M12 0H4C1.79086 0 0 1.79086 0 4V12C0 14.2091 1.79086 16 4 16H12C14.2091 16 16 14.2091 16 12V4C16 1.79086 14.2091 0 12 0Z" fill="#D3B9FF"/>
<path d="M12 0H4C1.79086 0 0 1.79086 0 4V12C0 14.2091 1.79086 16 4 16H12C14.2091 16 16 14.2091 16 12V4C16 1.79086 14.2091 0 12 0Z" fill="url(#paint0_linear_32_14202)"/>
<path d="M12 0H4C1.79086 0 0 1.79086 0 4V12C0 14.2091 1.79086 16 4 16H12C14.2091 16 16 14.2091 16 12V4C16 1.79086 14.2091 0 12 0Z" fill="url(#paint1_linear_32_14202)"/>
<g filter="url(#filter0_i_32_14202)">
<path d="M12 1H4C2.34315 1 1 2.34315 1 4V12C1 13.6569 2.34315 15 4 15H12C13.6569 15 15 13.6569 15 12V4C15 2.34315 13.6569 1 12 1Z" fill="black" fill-opacity="0.7"/>
<g filter="url(#filter1_d_32_14202)">
<path d="M3.3125 6.87492L5.9375 5.74992V8.93742C5.9375 10.0765 6.86091 10.9999 8 10.9999C9.13909 10.9999 10.0625 10.0765 10.0625 8.93742V3.87492L12.6875 2.74992V9.49992C12.6875 11.571 11.0086 13.2499 8.9375 13.2499H7.0625C4.99144 13.2499 3.3125 11.571 3.3125 9.49992V6.87492Z" fill="#C10080"/>
<path d="M3.3125 6.87492L5.9375 5.74992V8.93742C5.9375 10.0765 6.86091 10.9999 8 10.9999C9.13909 10.9999 10.0625 10.0765 10.0625 8.93742V3.87492L12.6875 2.74992V9.49992C12.6875 11.571 11.0086 13.2499 8.9375 13.2499H7.0625C4.99144 13.2499 3.3125 11.571 3.3125 9.49992V6.87492Z" fill="#8B00E7"/>
</g>
<g filter="url(#filter2_d_32_14202)">
<path d="M7.0625 13.2499H8.9375C11.0086 13.2499 12.6875 11.571 12.6875 9.49992V7.62492C12.3125 5.93742 11.6794 5.16151 10.0625 4.24992V8.93742C10.0625 11.112 7.54962 12.8496 5.375 12.8496C5.88222 13.1057 6.45552 13.2499 7.0625 13.2499Z" fill="#D3B9FF"/>
<path d="M7.0625 13.2499H8.9375C11.0086 13.2499 12.6875 11.571 12.6875 9.49992V7.62492C12.3125 5.93742 11.6794 5.16151 10.0625 4.24992V8.93742C10.0625 11.112 7.54962 12.8496 5.375 12.8496C5.88222 13.1057 6.45552 13.2499 7.0625 13.2499Z" fill="#D404FF"/>
</g>
</g>
</g>
<defs>
<filter id="filter0_i_32_14202" x="1" y="1" width="14" height="16" filterUnits="userSpaceOnUse" color-interpolation-filters="sRGB">
<feFlood flood-opacity="0" result="BackgroundImageFix"/>
<feBlend mode="normal" in="SourceGraphic" in2="BackgroundImageFix" result="shape"/>
<feColorMatrix in="SourceAlpha" type="matrix" values="0 0 0 0 0 0 0 0 0 0 0 0 0 0 0 0 0 0 127 0" result="hardAlpha"/>
<feOffset dy="2"/>
<feGaussianBlur stdDeviation="2"/>
<feComposite in2="hardAlpha" operator="arithmetic" k2="-1" k3="1"/>
<feColorMatrix type="matrix" values="0 0 0 0 0 0 0 0 0 0 0 0 0 0 0 0 0 0 0.25 0"/>
<feBlend mode="normal" in2="shape" result="effect1_innerShadow_32_14202"/>
</filter>
<filter id="filter1_d_32_14202" x="-0.6875" y="0.749924" width="17.375" height="18.5" filterUnits="userSpaceOnUse" color-interpolation-filters="sRGB">
<feFlood flood-opacity="0" result="BackgroundImageFix"/>
<feColorMatrix in="SourceAlpha" type="matrix" values="0 0 0 0 0 0 0 0 0 0 0 0 0 0 0 0 0 0 127 0" result="hardAlpha"/>
<feOffset dy="2"/>
<feGaussianBlur stdDeviation="2"/>
<feComposite in2="hardAlpha" operator="out"/>
<feColorMatrix type="matrix" values="0 0 0 0 0 0 0 0 0 0 0 0 0 0 0 0 0 0 0.25 0"/>
<feBlend mode="normal" in2="BackgroundImageFix" result="effect1_dropShadow_32_14202"/>
<feBlend mode="normal" in="SourceGraphic" in2="effect1_dropShadow_32_14202" result="shape"/>
</filter>
<filter id="filter2_d_32_14202" x="1.375" y="2.24992" width="15.3125" height="17" filterUnits="userSpaceOnUse" color-interpolation-filters="sRGB">
<feFlood flood-opacity="0" result="BackgroundImageFix"/>
<feColorMatrix in="SourceAlpha" type="matrix" values="0 0 0 0 0 0 0 0 0 0 0 0 0 0 0 0 0 0 127 0" result="hardAlpha"/>
<feOffset dy="2"/>
<feGaussianBlur stdDeviation="2"/>
<feComposite in2="hardAlpha" operator="out"/>
<feColorMatrix type="matrix" values="0 0 0 0 0 0 0 0 0 0 0 0 0 0 0 0 0 0 0.25 0"/>
<feBlend mode="normal" in2="BackgroundImageFix" result="effect1_dropShadow_32_14202"/>
<feBlend mode="normal" in="SourceGraphic" in2="effect1_dropShadow_32_14202" result="shape"/>
</filter>
<linearGradient id="paint0_linear_32_14202" x1="8" y1="0" x2="8" y2="16" gradientUnits="userSpaceOnUse">
<stop stop-color="#CB02C5"/>
<stop offset="0.244792" stop-color="#C101DA"/>
<stop offset="0.510417" stop-color="#B600F0"/>
<stop offset="0.744792" stop-color="#8900D9"/>
<stop offset="1" stop-color="#5800BF"/>
</linearGradient>
<linearGradient id="paint1_linear_32_14202" x1="8" y1="0" x2="8" y2="16" gradientUnits="userSpaceOnUse">
<stop offset="0.125" stop-color="#CB02C5"/>
<stop offset="0.333333" stop-color="#C101DA"/>
<stop offset="0.635417" stop-color="#B600F0"/>
<stop offset="0.864583" stop-color="#8900D9"/>
</linearGradient>
<clipPath id="clip0_32_14202">
<rect width="16" height="16" fill="white"/>
</clipPath>
</defs>
</svg>
