<svg width="16" height="16" viewBox="0 0 16 16" fill="none" xmlns="http://www.w3.org/2000/svg">
<g clip-path="url(#clip0_32_14214)">
<path d="M12 0H4C1.79086 0 0 1.79086 0 4V12C0 14.2091 1.79086 16 4 16H12C14.2091 16 16 14.2091 16 12V4C16 1.79086 14.2091 0 12 0Z" fill="url(#paint0_linear_32_14214)"/>
<path d="M12 0H4C1.79086 0 0 1.79086 0 4V12C0 14.2091 1.79086 16 4 16H12C14.2091 16 16 14.2091 16 12V4C16 1.79086 14.2091 0 12 0Z" fill="url(#paint1_linear_32_14214)"/>
<g filter="url(#filter0_i_32_14214)">
<path d="M12 1H4C2.34315 1 1 2.34315 1 4V12C1 13.6569 2.34315 15 4 15H12C13.6569 15 15 13.6569 15 12V4C15 2.34315 13.6569 1 12 1Z" fill="black" fill-opacity="0.7"/>
<mask id="mask0_32_14214" style="mask-type:luminance" maskUnits="userSpaceOnUse" x="2" y="2" width="12" height="12">
<path d="M14 2H2V14H14V2Z" fill="white"/>
</mask>
<g mask="url(#mask0_32_14214)">
<g filter="url(#filter1_d_32_14214)">
<path d="M11.7678 6.33029L4.41812 7.11886C3.9811 7.16548 3.54264 7.04506 3.19074 6.78178C2.83884 6.51849 2.59958 6.13183 2.52097 5.69943C2.47964 5.47106 2.48443 5.23675 2.53504 5.01026C2.58567 4.78379 2.68109 4.56971 2.8157 4.38068C2.95032 4.19165 3.1214 4.03145 3.31888 3.90955C3.51635 3.78765 3.73622 3.70649 3.96554 3.67086L11.2707 2.536C11.5533 2.49206 11.8422 2.51205 12.116 2.59449C12.3899 2.67694 12.6418 2.81974 12.8532 3.01239C13.0646 3.20504 13.2302 3.44263 13.3376 3.70769C13.4451 3.97275 13.4917 4.25853 13.4741 4.544C13.4469 4.99545 13.2606 5.42265 12.9482 5.74969C12.6358 6.07673 12.2176 6.28245 11.7678 6.33029Z" fill="url(#paint2_linear_32_14214)"/>
</g>
<g filter="url(#filter2_d_32_14214)">
<path d="M9.05074 12.7246L3.0016 6.61257C2.82965 6.43876 2.69622 6.2307 2.60998 6.00192C2.52374 5.77313 2.48664 5.52876 2.50109 5.2847C2.51554 5.04063 2.5812 4.80233 2.69383 4.58532C2.80644 4.36832 2.96349 4.17745 3.15474 4.02513C3.4446 3.79476 3.80042 3.66288 4.1704 3.64871C4.54039 3.63452 4.90524 3.73877 5.21189 3.94628L12.333 8.77371C12.6633 8.99791 12.9372 9.29567 13.1331 9.64358C13.3288 9.9915 13.4413 10.3801 13.4616 10.7788C13.4818 11.1775 13.4093 11.5755 13.2498 11.9415C13.0903 12.3075 12.8481 12.6315 12.5422 12.888C12.0458 13.3037 11.4113 13.5176 10.7646 13.4874C10.1178 13.4571 9.5061 13.1849 9.05074 12.7246Z" fill="url(#paint3_linear_32_14214)"/>
</g>
<g filter="url(#filter3_d_32_14214)">
<path d="M10.4177 2.88914L3.35027 8.17143C3.20103 8.28276 3.07646 8.42376 2.98434 8.58556C2.89224 8.74738 2.83461 8.92649 2.81507 9.11165C2.79553 9.2968 2.81452 9.484 2.87083 9.66146C2.92714 9.83894 3.01956 10.0028 3.14227 10.1429C3.34672 10.3754 3.62496 10.5305 3.93026 10.5821C4.23556 10.6337 4.54932 10.5787 4.81884 10.4263L12.5011 6.08343C12.7491 5.94344 12.9628 5.74981 13.1264 5.5167C13.29 5.28357 13.3994 5.01685 13.4468 4.73601C13.494 4.45517 13.478 4.16731 13.3999 3.89345C13.3216 3.6196 13.1833 3.36666 12.9949 3.15314C12.6768 2.79372 12.2352 2.56706 11.7578 2.51815C11.2804 2.46925 10.802 2.60167 10.4177 2.88914Z" fill="url(#paint4_linear_32_14214)"/>
</g>
<g filter="url(#filter4_d_32_14214)">
<path d="M9.82832 13.2651L3.59974 10.4674C3.41503 10.3851 3.25133 10.2621 3.12089 10.1076C2.99046 9.95311 2.89667 9.7711 2.84653 9.5752C2.79641 9.3793 2.79124 9.17461 2.83143 8.97644C2.87162 8.77826 2.95612 8.59175 3.07859 8.43085C3.21187 8.25691 3.38572 8.11826 3.58493 8.02703C3.78416 7.93578 4.00269 7.89471 4.22146 7.90743L11.0409 8.32685C11.4469 8.35164 11.8412 8.4719 12.192 8.67786C12.5426 8.88383 12.8399 9.16966 13.0593 9.51214C13.2786 9.8546 13.4141 10.244 13.4546 10.6487C13.4951 11.0534 13.4395 11.462 13.2923 11.8411C13.1653 12.1675 12.9734 12.4647 12.7281 12.7146C12.4828 12.9646 12.1893 13.1621 11.8654 13.2954C11.5415 13.4285 11.1939 13.4945 10.8438 13.4893C10.4936 13.4841 10.1481 13.4079 9.82832 13.2651Z" fill="url(#paint5_linear_32_14214)"/>
</g>
<g filter="url(#filter5_d_32_14214)">
<path d="M4.57129 4.57143H11.4284V11.4286H4.57129V4.57143Z" fill="black"/>
</g>
<path d="M5.42578 10.1326H7.99721V10.5611H5.42578V10.1326Z" fill="white"/>
<path d="M5.42871 6.89486V5.41829H6.00015V6.88C6.00015 7.30058 6.21042 7.51771 6.55786 7.51771C6.90529 7.51771 7.11442 7.30744 7.11442 6.89829V5.41829H7.68586V6.87544C7.68586 7.65829 7.247 8.04229 6.55329 8.04229C5.85957 8.04229 5.42871 7.65486 5.42871 6.89486Z" fill="white"/>
<path d="M8.2007 5.41829H9.2567C9.8727 5.41829 10.2453 5.784 10.2453 6.312V6.31886C10.2453 6.91658 9.78013 7.22629 9.2007 7.22629H8.7687V8.00115H8.19727L8.2007 5.41829ZM9.21899 6.72115C9.50355 6.72115 9.66927 6.55086 9.66927 6.33029V6.32229C9.66927 6.06858 9.49213 5.93144 9.21213 5.93144H8.7687V6.72115H9.21899Z" fill="white"/>
</g>
</g>
</g>
<defs>
<filter id="filter0_i_32_14214" x="1" y="1" width="14" height="18" filterUnits="userSpaceOnUse" color-interpolation-filters="sRGB">
<feFlood flood-opacity="0" result="BackgroundImageFix"/>
<feBlend mode="normal" in="SourceGraphic" in2="BackgroundImageFix" result="shape"/>
<feColorMatrix in="SourceAlpha" type="matrix" values="0 0 0 0 0 0 0 0 0 0 0 0 0 0 0 0 0 0 127 0" result="hardAlpha"/>
<feOffset dy="4"/>
<feGaussianBlur stdDeviation="2"/>
<feComposite in2="hardAlpha" operator="arithmetic" k2="-1" k3="1"/>
<feColorMatrix type="matrix" values="0 0 0 0 0 0 0 0 0 0 0 0 0 0 0 0 0 0 0.25 0"/>
<feBlend mode="normal" in2="shape" result="effect1_innerShadow_32_14214"/>
</filter>
<filter id="filter1_d_32_14214" x="-1.50684" y="0.51329" width="18.9844" height="12.6154" filterUnits="userSpaceOnUse" color-interpolation-filters="sRGB">
<feFlood flood-opacity="0" result="BackgroundImageFix"/>
<feColorMatrix in="SourceAlpha" type="matrix" values="0 0 0 0 0 0 0 0 0 0 0 0 0 0 0 0 0 0 127 0" result="hardAlpha"/>
<feOffset dy="2"/>
<feGaussianBlur stdDeviation="2"/>
<feComposite in2="hardAlpha" operator="out"/>
<feColorMatrix type="matrix" values="0 0 0 0 0 0 0 0 0 0 0 0 0 0 0 0 0 0 0.25 0"/>
<feBlend mode="normal" in2="BackgroundImageFix" result="effect1_dropShadow_32_14214"/>
<feBlend mode="normal" in="SourceGraphic" in2="effect1_dropShadow_32_14214" result="shape"/>
</filter>
<filter id="filter2_d_32_14214" x="-1.50195" y="1.64743" width="18.9668" height="17.8428" filterUnits="userSpaceOnUse" color-interpolation-filters="sRGB">
<feFlood flood-opacity="0" result="BackgroundImageFix"/>
<feColorMatrix in="SourceAlpha" type="matrix" values="0 0 0 0 0 0 0 0 0 0 0 0 0 0 0 0 0 0 127 0" result="hardAlpha"/>
<feOffset dy="2"/>
<feGaussianBlur stdDeviation="2"/>
<feComposite in2="hardAlpha" operator="out"/>
<feColorMatrix type="matrix" values="0 0 0 0 0 0 0 0 0 0 0 0 0 0 0 0 0 0 0.25 0"/>
<feBlend mode="normal" in2="BackgroundImageFix" result="effect1_dropShadow_32_14214"/>
<feBlend mode="normal" in="SourceGraphic" in2="effect1_dropShadow_32_14214" result="shape"/>
</filter>
<filter id="filter3_d_32_14214" x="-1.19238" y="0.508194" width="18.666" height="16.0928" filterUnits="userSpaceOnUse" color-interpolation-filters="sRGB">
<feFlood flood-opacity="0" result="BackgroundImageFix"/>
<feColorMatrix in="SourceAlpha" type="matrix" values="0 0 0 0 0 0 0 0 0 0 0 0 0 0 0 0 0 0 127 0" result="hardAlpha"/>
<feOffset dy="2"/>
<feGaussianBlur stdDeviation="2"/>
<feComposite in2="hardAlpha" operator="out"/>
<feColorMatrix type="matrix" values="0 0 0 0 0 0 0 0 0 0 0 0 0 0 0 0 0 0 0.25 0"/>
<feBlend mode="normal" in2="BackgroundImageFix" result="effect1_dropShadow_32_14214"/>
<feBlend mode="normal" in="SourceGraphic" in2="effect1_dropShadow_32_14214" result="shape"/>
</filter>
<filter id="filter4_d_32_14214" x="-1.19531" y="5.90517" width="18.6631" height="13.5844" filterUnits="userSpaceOnUse" color-interpolation-filters="sRGB">
<feFlood flood-opacity="0" result="BackgroundImageFix"/>
<feColorMatrix in="SourceAlpha" type="matrix" values="0 0 0 0 0 0 0 0 0 0 0 0 0 0 0 0 0 0 127 0" result="hardAlpha"/>
<feOffset dy="2"/>
<feGaussianBlur stdDeviation="2"/>
<feComposite in2="hardAlpha" operator="out"/>
<feColorMatrix type="matrix" values="0 0 0 0 0 0 0 0 0 0 0 0 0 0 0 0 0 0 0.25 0"/>
<feBlend mode="normal" in2="BackgroundImageFix" result="effect1_dropShadow_32_14214"/>
<feBlend mode="normal" in="SourceGraphic" in2="effect1_dropShadow_32_14214" result="shape"/>
</filter>
<filter id="filter5_d_32_14214" x="0.571289" y="2.57143" width="14.8574" height="14.8571" filterUnits="userSpaceOnUse" color-interpolation-filters="sRGB">
<feFlood flood-opacity="0" result="BackgroundImageFix"/>
<feColorMatrix in="SourceAlpha" type="matrix" values="0 0 0 0 0 0 0 0 0 0 0 0 0 0 0 0 0 0 127 0" result="hardAlpha"/>
<feOffset dy="2"/>
<feGaussianBlur stdDeviation="2"/>
<feComposite in2="hardAlpha" operator="out"/>
<feColorMatrix type="matrix" values="0 0 0 0 0 0 0 0 0 0 0 0 0 0 0 0 0 0 0.25 0"/>
<feBlend mode="normal" in2="BackgroundImageFix" result="effect1_dropShadow_32_14214"/>
<feBlend mode="normal" in="SourceGraphic" in2="effect1_dropShadow_32_14214" result="shape"/>
</filter>
<linearGradient id="paint0_linear_32_14214" x1="8" y1="0" x2="8" y2="16" gradientUnits="userSpaceOnUse">
<stop stop-color="#3BEA62"/>
<stop offset="0.5" stop-color="#009AE5"/>
<stop offset="1" stop-color="#6B57FF"/>
</linearGradient>
<linearGradient id="paint1_linear_32_14214" x1="13.4426" y1="3.52106" x2="-0.284259" y2="10.1657" gradientUnits="userSpaceOnUse">
<stop stop-color="#FC801D"/>
<stop offset="0.661458" stop-color="#6B57FF"/>
<stop offset="1" stop-color="#08C1F2"/>
</linearGradient>
<linearGradient id="paint2_linear_32_14214" x1="13.0776" y1="4.22629" x2="5.33925" y2="5.25714" gradientUnits="userSpaceOnUse">
<stop stop-color="#FC801D"/>
<stop offset="1" stop-color="#6B57FF"/>
</linearGradient>
<linearGradient id="paint3_linear_32_14214" x1="7.93418" y1="8.39771" x2="8.59474" y2="5.60457" gradientUnits="userSpaceOnUse">
<stop stop-color="#07C3F2"/>
<stop offset="1" stop-color="#6B57FF"/>
</linearGradient>
<linearGradient id="paint4_linear_32_14214" x1="11.7686" y1="4.28914" x2="3.74113" y2="9.41029" gradientUnits="userSpaceOnUse">
<stop stop-color="#FC801D"/>
<stop offset="0.92" stop-color="#6B57FF"/>
</linearGradient>
<linearGradient id="paint5_linear_32_14214" x1="12.7255" y1="11.5703" x2="4.15746" y2="8.47429" gradientUnits="userSpaceOnUse">
<stop stop-color="#07C3F2"/>
<stop offset="1" stop-color="#6B57FF"/>
</linearGradient>
<clipPath id="clip0_32_14214">
<rect width="16" height="16" fill="white"/>
</clipPath>
</defs>
</svg>
