<svg width="16" height="16" viewBox="0 0 16 16" fill="none" xmlns="http://www.w3.org/2000/svg">
<g clip-path="url(#clip0_32_14242)">
<path d="M12 0H4C1.79086 0 0 1.79086 0 4V12C0 14.2091 1.79086 16 4 16H12C14.2091 16 16 14.2091 16 12V4C16 1.79086 14.2091 0 12 0Z" fill="url(#paint0_linear_32_14242)"/>
<path d="M12 0H4C1.79086 0 0 1.79086 0 4V12C0 14.2091 1.79086 16 4 16H12C14.2091 16 16 14.2091 16 12V4C16 1.79086 14.2091 0 12 0Z" fill="url(#paint1_linear_32_14242)"/>
<g filter="url(#filter0_i_32_14242)">
<path d="M12 1H4C2.34315 1 1 2.34315 1 4V12C1 13.6569 2.34315 15 4 15H12C13.6569 15 15 13.6569 15 12V4C15 2.34315 13.6569 1 12 1Z" fill="black" fill-opacity="0.7"/>
<mask id="mask0_32_14242" style="mask-type:luminance" maskUnits="userSpaceOnUse" x="4" y="3" width="8" height="10">
<path d="M11.875 3.625H4.125V12.375H11.875V3.625Z" fill="white"/>
</mask>
<g mask="url(#mask0_32_14242)">
<g filter="url(#filter1_d_32_14242)">
<path fill-rule="evenodd" clip-rule="evenodd" d="M4.33509 11.7496C4.33509 11.7496 4.21194 11.8821 4.17938 11.9896C4.15662 12.0647 4.14773 12.1767 4.18882 12.2436C4.21896 12.2928 4.25847 12.3424 4.31622 12.3424C6.82691 12.3428 9.60348 12.3465 11.557 12.3519C11.6232 12.352 11.7486 12.3405 11.8 12.2672C11.8525 12.1925 11.8512 12.0259 11.8142 11.9425C11.7753 11.8547 11.5924 11.8155 11.5924 11.8155L4.33509 11.7496Z" fill="#B54D00"/>
<path fill-rule="evenodd" clip-rule="evenodd" d="M5.25982 9.1086C5.14511 9.1086 5.02602 9.19671 4.99278 9.30645L4.19126 11.9536C4.15803 12.0634 4.22348 12.1519 4.3382 12.1519H11.7297C11.8171 12.1519 11.8672 12.0847 11.8418 12.0011L11.0113 9.2594C10.986 9.1758 10.8954 9.1086 10.808 9.1086H5.25982Z" fill="#E26400"/>
<path fill-rule="evenodd" clip-rule="evenodd" d="M7.99889 3.65479C7.80823 3.65289 7.69607 3.66702 7.58362 3.75129C7.53228 3.78977 7.49173 3.88113 7.46748 3.94692L5.51074 10.3872C5.51074 10.3872 5.55638 10.6782 5.83318 10.9428C6.01979 11.1211 6.37369 11.2532 6.59602 11.3013C7.16664 11.4246 7.62423 11.4541 8.14173 11.4462C8.67329 11.4382 9.20434 11.334 9.71544 11.1882C10.4777 10.9707 10.502 10.3605 10.502 10.3605L8.48939 3.82718C8.4811 3.80027 8.46094 3.78043 8.44497 3.76533C8.3254 3.65234 8.14424 3.65625 7.99889 3.65479Z" fill="url(#paint2_linear_32_14242)"/>
<path fill-rule="evenodd" clip-rule="evenodd" d="M7.99889 3.65479C7.80823 3.65289 7.69607 3.66702 7.58362 3.75129C7.53228 3.78977 7.49173 3.88113 7.46748 3.94692L5.51074 10.3872C5.51074 10.3872 5.59679 10.9442 6.28927 11.2157C6.76859 11.4037 7.26334 11.4286 8.0332 11.4368C8.89057 11.446 9.23983 11.3621 9.80023 11.1671C10.064 11.0754 10.2008 10.956 10.3259 10.8237C10.5068 10.6324 10.502 10.3605 10.502 10.3605L8.48939 3.82718C8.47579 3.80252 8.46094 3.78043 8.44497 3.76533C8.3254 3.65234 8.14424 3.65625 7.99889 3.65479Z" fill="#F48200"/>
<path fill-rule="evenodd" clip-rule="evenodd" d="M6.22571 8.03619L5.77832 9.50864C6.32091 9.96459 7.11721 10.2525 8.00471 10.2525C8.89623 10.2525 9.69541 9.96203 10.2381 9.50251L9.78767 8.03971C9.37296 8.36959 8.73023 8.58139 8.00867 8.58139C7.28472 8.58139 6.64028 8.36796 6.22571 8.03619Z" fill="#EAECED"/>
<path fill-rule="evenodd" clip-rule="evenodd" d="M8.81128 4.87329C8.60013 4.94393 8.31162 4.98777 7.99304 4.98777C7.67964 4.98777 7.3951 4.94542 7.18492 4.87679L6.71289 6.43083C7.03018 6.59639 7.49479 6.70103 8.01283 6.70103C8.52064 6.70103 8.97748 6.60083 9.29429 6.44092L8.81128 4.87329Z" fill="#EAECED"/>
</g>
</g>
</g>
</g>
<defs>
<filter id="filter0_i_32_14242" x="1" y="1" width="14" height="18" filterUnits="userSpaceOnUse" color-interpolation-filters="sRGB">
<feFlood flood-opacity="0" result="BackgroundImageFix"/>
<feBlend mode="normal" in="SourceGraphic" in2="BackgroundImageFix" result="shape"/>
<feColorMatrix in="SourceAlpha" type="matrix" values="0 0 0 0 0 0 0 0 0 0 0 0 0 0 0 0 0 0 127 0" result="hardAlpha"/>
<feOffset dy="4"/>
<feGaussianBlur stdDeviation="2"/>
<feComposite in2="hardAlpha" operator="arithmetic" k2="-1" k3="1"/>
<feColorMatrix type="matrix" values="0 0 0 0 0 0 0 0 0 0 0 0 0 0 0 0 0 0 0.25 0"/>
<feBlend mode="normal" in2="shape" result="effect1_innerShadow_32_14242"/>
</filter>
<filter id="filter1_d_32_14242" x="0.160156" y="1.65463" width="15.6885" height="16.6972" filterUnits="userSpaceOnUse" color-interpolation-filters="sRGB">
<feFlood flood-opacity="0" result="BackgroundImageFix"/>
<feColorMatrix in="SourceAlpha" type="matrix" values="0 0 0 0 0 0 0 0 0 0 0 0 0 0 0 0 0 0 127 0" result="hardAlpha"/>
<feOffset dy="2"/>
<feGaussianBlur stdDeviation="2"/>
<feComposite in2="hardAlpha" operator="out"/>
<feColorMatrix type="matrix" values="0 0 0 0 0 0 0 0 0 0 0 0 0 0 0 0 0 0 0.25 0"/>
<feBlend mode="normal" in2="BackgroundImageFix" result="effect1_dropShadow_32_14242"/>
<feBlend mode="normal" in="SourceGraphic" in2="effect1_dropShadow_32_14242" result="shape"/>
</filter>
<linearGradient id="paint0_linear_32_14242" x1="8" y1="0" x2="8" y2="16" gradientUnits="userSpaceOnUse">
<stop stop-color="#CB02C5"/>
<stop offset="1" stop-color="#5800BF"/>
</linearGradient>
<linearGradient id="paint1_linear_32_14242" x1="1.07633e-07" y1="9.1875" x2="15.6366" y2="5.24605" gradientUnits="userSpaceOnUse">
<stop stop-color="#F48200"/>
<stop offset="0.494068" stop-color="#F48200"/>
<stop offset="1" stop-color="#CC5F00"/>
</linearGradient>
<linearGradient id="paint2_linear_32_14242" x1="6.43545" y1="7.04539" x2="6.84035" y2="7.14002" gradientUnits="userSpaceOnUse">
<stop stop-color="#9B4400"/>
<stop offset="1" stop-color="#E56300"/>
</linearGradient>
<clipPath id="clip0_32_14242">
<rect width="16" height="16" fill="white"/>
</clipPath>
</defs>
</svg>
