<svg width="16" height="16" viewBox="0 0 16 16" fill="none" xmlns="http://www.w3.org/2000/svg">
<g clip-path="url(#clip0_32_14257)">
<path d="M12 0H4C1.79086 0 0 1.79086 0 4V12C0 14.2091 1.79086 16 4 16H12C14.2091 16 16 14.2091 16 12V4C16 1.79086 14.2091 0 12 0Z" fill="url(#paint0_linear_32_14257)"/>
<g filter="url(#filter0_i_32_14257)">
<path d="M12 1H4C2.34315 1 1 2.34315 1 4V12C1 13.6569 2.34315 15 4 15H12C13.6569 15 15 13.6569 15 12V4C15 2.34315 13.6569 1 12 1Z" fill="black" fill-opacity="0.7"/>
<g filter="url(#filter1_d_32_14257)">
<path d="M12.9998 4.77751V11.2225C12.9998 11.54 12.8023 11.8225 12.5048 11.9275L10.2998 12.9625L10.4998 10.25V5.75001L10.2998 3.03751L12.5048 4.07251C12.8023 4.17751 12.9998 4.46001 12.9998 4.77751Z" fill="#29B6F6"/>
</g>
<g filter="url(#filter2_d_32_14257)">
<path d="M4.25035 10.474L10.5003 5.74999V3.33824C10.5003 3.03874 10.1298 2.89874 9.9316 3.12324L3.16485 9.30974C2.93985 9.51724 2.9526 9.87649 3.1916 10.0677C3.1916 10.0677 3.5226 10.3757 3.64235 10.4612C3.82635 10.5925 4.0681 10.6075 4.25035 10.474Z" fill="#0277BD"/>
</g>
<g filter="url(#filter3_d_32_14257)">
<path d="M4.25035 5.52599L10.5003 10.25V12.6617C10.5003 12.9612 10.1298 13.1012 9.9316 12.8767L3.16485 6.69024C2.93985 6.48274 2.9526 6.12349 3.1916 5.93224C3.1916 5.93224 3.5226 5.62424 3.64235 5.53874C3.82635 5.40749 4.0681 5.39249 4.25035 5.52599Z" fill="#0288D1"/>
</g>
</g>
</g>
<defs>
<filter id="filter0_i_32_14257" x="1" y="1" width="14" height="18" filterUnits="userSpaceOnUse" color-interpolation-filters="sRGB">
<feFlood flood-opacity="0" result="BackgroundImageFix"/>
<feBlend mode="normal" in="SourceGraphic" in2="BackgroundImageFix" result="shape"/>
<feColorMatrix in="SourceAlpha" type="matrix" values="0 0 0 0 0 0 0 0 0 0 0 0 0 0 0 0 0 0 127 0" result="hardAlpha"/>
<feOffset dy="4"/>
<feGaussianBlur stdDeviation="2"/>
<feComposite in2="hardAlpha" operator="arithmetic" k2="-1" k3="1"/>
<feColorMatrix type="matrix" values="0 0 0 0 0 0 0 0 0 0 0 0 0 0 0 0 0 0 0.25 0"/>
<feBlend mode="normal" in2="shape" result="effect1_innerShadow_32_14257"/>
</filter>
<filter id="filter1_d_32_14257" x="6.2998" y="1.03751" width="10.7002" height="17.925" filterUnits="userSpaceOnUse" color-interpolation-filters="sRGB">
<feFlood flood-opacity="0" result="BackgroundImageFix"/>
<feColorMatrix in="SourceAlpha" type="matrix" values="0 0 0 0 0 0 0 0 0 0 0 0 0 0 0 0 0 0 127 0" result="hardAlpha"/>
<feOffset dy="2"/>
<feGaussianBlur stdDeviation="2"/>
<feComposite in2="hardAlpha" operator="out"/>
<feColorMatrix type="matrix" values="0 0 0 0 0 0 0 0 0 0 0 0 0 0 0 0 0 0 0.25 0"/>
<feBlend mode="normal" in2="BackgroundImageFix" result="effect1_dropShadow_32_14257"/>
<feBlend mode="normal" in="SourceGraphic" in2="effect1_dropShadow_32_14257" result="shape"/>
</filter>
<filter id="filter2_d_32_14257" x="-0.996094" y="1.0126" width="15.4961" height="15.5546" filterUnits="userSpaceOnUse" color-interpolation-filters="sRGB">
<feFlood flood-opacity="0" result="BackgroundImageFix"/>
<feColorMatrix in="SourceAlpha" type="matrix" values="0 0 0 0 0 0 0 0 0 0 0 0 0 0 0 0 0 0 127 0" result="hardAlpha"/>
<feOffset dy="2"/>
<feGaussianBlur stdDeviation="2"/>
<feComposite in2="hardAlpha" operator="out"/>
<feColorMatrix type="matrix" values="0 0 0 0 0 0 0 0 0 0 0 0 0 0 0 0 0 0 0.25 0"/>
<feBlend mode="normal" in2="BackgroundImageFix" result="effect1_dropShadow_32_14257"/>
<feBlend mode="normal" in="SourceGraphic" in2="effect1_dropShadow_32_14257" result="shape"/>
</filter>
<filter id="filter3_d_32_14257" x="-0.996094" y="3.43282" width="15.4961" height="15.5546" filterUnits="userSpaceOnUse" color-interpolation-filters="sRGB">
<feFlood flood-opacity="0" result="BackgroundImageFix"/>
<feColorMatrix in="SourceAlpha" type="matrix" values="0 0 0 0 0 0 0 0 0 0 0 0 0 0 0 0 0 0 127 0" result="hardAlpha"/>
<feOffset dy="2"/>
<feGaussianBlur stdDeviation="2"/>
<feComposite in2="hardAlpha" operator="out"/>
<feColorMatrix type="matrix" values="0 0 0 0 0 0 0 0 0 0 0 0 0 0 0 0 0 0 0.25 0"/>
<feBlend mode="normal" in2="BackgroundImageFix" result="effect1_dropShadow_32_14257"/>
<feBlend mode="normal" in="SourceGraphic" in2="effect1_dropShadow_32_14257" result="shape"/>
</filter>
<linearGradient id="paint0_linear_32_14257" x1="8" y1="0" x2="8" y2="16" gradientUnits="userSpaceOnUse">
<stop stop-color="#29B6F6"/>
<stop offset="0.510417" stop-color="#0288D1"/>
<stop offset="1" stop-color="#0277BD"/>
</linearGradient>
<clipPath id="clip0_32_14257">
<rect width="16" height="16" fill="white"/>
</clipPath>
</defs>
</svg>
