<svg width="16" height="16" viewBox="0 0 16 16" fill="none" xmlns="http://www.w3.org/2000/svg">
<g clip-path="url(#clip0_32_14285)">
<path d="M12 0H4C1.79086 0 0 1.79086 0 4V12C0 14.2091 1.79086 16 4 16H12C14.2091 16 16 14.2091 16 12V4C16 1.79086 14.2091 0 12 0Z" fill="url(#paint0_linear_32_14285)"/>
<g filter="url(#filter0_i_32_14285)">
<path d="M12 1H4C2.34315 1 1 2.34315 1 4V12C1 13.6569 2.34315 15 4 15H12C13.6569 15 15 13.6569 15 12V4C15 2.34315 13.6569 1 12 1Z" fill="black" fill-opacity="0.7"/>
<path d="M10.9687 10.3984C10.8542 10.362 10.75 10.2969 10.6771 10.2213C10.5729 10.1094 9.95312 8.98436 9.95312 8.90362C9.95312 8.85936 9.96354 8.83852 9.98697 8.84894C10.0104 8.85675 10.0833 8.71874 10.2135 8.41665C10.4323 7.91925 10.4375 7.91405 10.6198 8.05206C11.1172 8.43227 11.5599 8.62759 12.0234 8.66665C12.2187 8.68487 12.2708 8.70831 12.2708 8.78124C12.2708 8.80727 12.3534 8.6903 12.3638 8.6955C12.3768 8.69811 12.1693 9.17706 11.9896 9.57811C11.6823 10.2708 11.6588 10.3151 11.5703 10.3567C11.4661 10.4088 11.0807 10.4349 10.9687 10.3984Z" fill="url(#paint1_linear_32_14285)"/>
<path d="M4.46075 10.3776C4.34616 10.3307 4.34356 10.3281 4.18471 9.96616C4.09616 9.76563 3.97637 9.49219 3.91647 9.36199L3.75488 8.98298L3.9321 9.12501C4.0545 9.12762 4.33053 9.06251 4.62741 8.95834C4.71335 8.92969 4.84616 8.88803 4.92168 8.86459C5.01543 8.83594 5.0571 8.81251 5.0571 8.78126C5.0571 8.75522 5.08315 8.72918 5.117 8.72137C5.14825 8.71356 5.28366 8.66147 5.41647 8.60157C5.54928 8.54168 5.67428 8.49481 5.69512 8.49481C5.71596 8.49481 5.73418 8.48438 5.73418 8.46876C5.73418 8.45574 5.74981 8.44272 5.76803 8.44272C5.78627 8.44272 5.88226 8.63611 5.89043 8.65366C5.99335 8.87467 6.01283 8.91407 6.04928 8.85678C6.06491 8.83074 6.07272 8.84376 6.07272 8.89584C6.07272 8.98438 5.46075 10.0755 5.33315 10.2083C5.19512 10.3568 5.07272 10.4037 4.80971 10.4141C4.63262 10.4193 4.54668 10.4115 4.46075 10.3776Z" fill="url(#paint2_linear_32_14285)"/>
<path d="M10.9948 10.3958C10.9948 10.3828 10.9609 10.3698 10.9167 10.3698C10.8516 10.3698 10.8385 10.3594 10.8385 10.3047C10.8385 10.2474 10.8281 10.2396 10.7474 10.2396C10.6589 10.2396 10.6562 10.237 10.6562 10.1432V10.0469L10.7552 10.1406C10.862 10.2448 10.9662 10.3021 11.0938 10.3307C11.2083 10.3542 11.2057 10.4219 11.0859 10.4219C11.0365 10.4219 10.9948 10.4115 10.9948 10.3958Z" fill="url(#paint3_radial_32_14285)"/>
<path d="M11.1436 10.3548C11.1429 10.3349 11.3183 10.3397 11.3824 10.3177C11.4356 10.2995 11.5256 10.263 11.5803 10.224C11.6897 10.151 11.7105 10.1562 11.6871 10.2526C11.674 10.2995 11.6532 10.3177 11.6063 10.3177C11.5673 10.3177 11.5412 10.3333 11.5412 10.3542C11.5412 10.3932 11.4631 10.4219 11.3537 10.4219C11.3069 10.4219 11.1444 10.3809 11.1436 10.3548Z" fill="url(#paint4_radial_32_14285)"/>
<path d="M8.1149 9.80728C8.0524 9.6953 8.00814 9.64322 7.9847 9.65103C7.95865 9.66145 7.94824 9.64322 7.94824 9.59635C7.94824 9.47395 8.52637 8.47655 8.90137 7.95311C9.10971 7.66145 9.14615 7.62238 9.21908 7.61457C9.28939 7.60676 9.3024 7.61717 9.31803 7.67707C9.32845 7.71613 9.32584 7.76301 9.31283 7.78123C9.08365 8.10155 8.91178 8.36978 8.91178 8.40103C8.91178 8.42186 8.88834 8.48436 8.86231 8.53905C8.77897 8.70051 8.37012 9.71353 8.34668 9.8177C8.33887 9.84895 8.32324 9.87498 8.31022 9.87498C8.2972 9.87498 8.41365 10.2438 8.41365 10.2725C8.41365 10.374 8.20865 9.97655 8.1149 9.80728Z" fill="url(#paint5_radial_32_14285)"/>
<path d="M10.4736 9.86197C10.4736 9.74999 10.5101 9.74478 10.5648 9.84896C10.6169 9.94791 10.6143 9.95312 10.5387 9.95312C10.4814 9.95312 10.4736 9.94271 10.4736 9.86197Z" fill="url(#paint6_radial_32_14285)"/>
<path d="M10.3438 9.62761C10.3438 9.51562 10.3799 9.51401 10.4346 9.61817C10.4867 9.71713 10.5708 9.83456 10.4953 9.83456C10.438 9.83456 10.3438 9.70833 10.3438 9.62761Z" fill="url(#paint7_radial_32_14285)"/>
<path d="M10.2139 9.39325C10.2139 9.32033 10.2035 9.3021 10.1644 9.3021C10.1097 9.3021 10.0837 9.25263 10.0837 9.14325C10.0837 9.08595 10.0707 9.06773 10.0316 9.06773C10.0003 9.06773 9.9743 9.04429 9.96388 9.00523C9.94305 8.91929 9.93651 8.82741 9.97594 8.83926C10.0131 8.85044 10.3441 9.44013 10.3441 9.46876C10.3441 9.47658 10.3154 9.48439 10.279 9.48439C10.2217 9.48439 10.2139 9.47398 10.2139 9.39325Z" fill="url(#paint8_radial_32_14285)"/>
<path d="M10.8903 10.3698C10.8903 10.3568 10.8669 10.3438 10.8382 10.3438C10.8096 10.3438 10.7861 10.3255 10.7861 10.3047C10.7861 10.2839 10.7679 10.2656 10.7445 10.2656C10.6794 10.2656 10.6299 10.1979 10.6299 10.112C10.6299 10.0156 10.6501 10.0121 10.7054 10.0912C10.7515 10.157 10.9085 10.2813 11.0023 10.3047C11.1064 10.3307 11.0908 10.3958 10.9814 10.3958C10.932 10.3958 10.8903 10.3854 10.8903 10.3698Z" fill="url(#paint9_radial_32_14285)"/>
<path d="M8.2441 9.98486C8.21285 9.91194 8.19035 9.82551 8.22681 9.80207C8.23984 9.79166 8.25806 9.76041 8.26847 9.73176C8.29712 9.62499 8.69556 8.64062 8.77629 8.47134C8.79972 8.42187 8.82056 8.36197 8.82056 8.33853C8.82316 8.31769 8.88566 8.20572 8.96119 8.09113C9.03671 7.97656 9.06796 7.91926 9.0315 7.96093C8.99504 8.00519 8.87785 8.16926 8.77629 8.33072C8.67212 8.49218 8.57837 8.62238 8.56796 8.62499C8.55494 8.62499 8.54712 8.58332 8.54712 8.53384C8.54712 8.45572 8.55494 8.44269 8.61222 8.44269C8.66171 8.44269 8.67994 8.42447 8.70077 8.34634C8.7164 8.29166 8.72941 8.22656 8.72941 8.20312C8.72941 8.17707 8.74244 8.15624 8.75806 8.15624C8.79972 8.15624 8.85702 8.07551 8.85962 8.02082C8.85962 7.99478 8.87265 7.97394 8.88566 7.97394C8.90129 7.97394 8.91171 7.95832 8.91171 7.93749C8.91171 7.91666 8.92994 7.89582 8.95077 7.88541C8.9716 7.87759 8.98984 7.85416 8.98984 7.83332C8.98984 7.81509 9.00806 7.79166 9.0289 7.78124C9.04972 7.77343 9.06796 7.75519 9.06796 7.74218C9.06796 7.71093 9.21379 7.55728 9.24244 7.55728C9.27109 7.55728 9.40239 7.81978 9.4239 7.87007C9.43249 7.89017 9.37004 7.86978 9.35962 7.86978C9.34921 7.86978 9.32056 7.90884 9.29972 7.95572C9.27629 7.99999 9.15129 8.24999 9.02109 8.50781C8.89087 8.76562 8.77629 9.01301 8.76587 9.05468C8.74244 9.15363 8.56796 9.59374 8.47421 9.78906C8.37265 9.99999 8.33359 10.0573 8.2841 10.0573C8.26066 10.0573 8.25972 10.0161 8.2441 9.98486Z" fill="url(#paint10_radial_32_14285)"/>
<path d="M10.3701 9.67968C10.3701 9.5677 10.3962 9.5651 10.4561 9.66405C10.5133 9.76302 10.5133 9.77083 10.4352 9.77083C10.3779 9.77083 10.3701 9.76042 10.3701 9.67968Z" fill="url(#paint11_radial_32_14285)"/>
<path d="M10.2393 9.44533C10.2393 9.33335 10.2683 9.32898 10.3252 9.4297C10.4337 9.62203 10.407 9.58116 10.3044 9.53648C10.2518 9.51361 10.2393 9.52605 10.2393 9.44533Z" fill="url(#paint12_radial_32_14285)"/>
<path d="M3.89052 9.23179C3.85667 9.19272 3.77854 9.04948 3.71604 8.90886L3.56445 8.54955L3.73167 8.64323C4.04417 8.60678 5.36969 7.96876 5.36969 7.85678C5.36969 7.82813 5.465 7.71736 5.47802 7.73818C5.48323 7.7434 5.58583 7.96095 5.66917 8.15106C5.7637 8.36522 5.80399 8.48727 5.8295 8.5408C5.84945 8.58265 5.8168 8.59611 5.78635 8.58595C5.76032 8.57813 5.64313 8.6146 5.52333 8.66668C5.40354 8.71876 5.26292 8.77866 5.21344 8.79948L5.12229 8.83595L5.23948 8.82293C5.39313 8.80731 5.33063 8.84376 5.06239 8.92448C4.95302 8.95573 4.79157 9.00782 4.70563 9.03907C4.53895 9.09636 4.08063 9.22397 4.01552 9.23179C3.99469 9.23439 3.97125 9.25001 3.96344 9.26823C3.95563 9.28907 3.92958 9.27345 3.89052 9.23179Z" fill="url(#paint13_linear_32_14285)"/>
<path d="M3.70278 8.77606C3.70278 8.75001 3.68715 8.72918 3.66893 8.72918C3.63768 8.72918 3.5796 8.60034 3.4572 8.31389C3.452 8.30347 3.56736 8.30731 3.68976 8.26303C4.11945 8.10678 4.49705 7.90106 4.86164 7.62501C5.08299 7.45313 5.13508 7.40626 5.13508 7.36459C5.13508 7.34116 5.1533 7.32293 5.17414 7.32293C5.19496 7.32293 5.2132 7.31251 5.2132 7.29688C5.2132 7.28387 5.22883 7.27084 5.24705 7.27084C5.2809 7.27084 5.51008 7.77344 5.53611 7.90887C5.55174 7.97918 5.54914 7.98178 5.51789 7.94272C5.47361 7.88803 5.44758 7.88282 5.44758 7.93231C5.44758 8.03126 4.43455 8.53907 3.88508 8.71356C3.80695 8.73959 3.73403 8.77344 3.72361 8.79168C3.71059 8.80991 3.70278 8.80469 3.70278 8.77606Z" fill="url(#paint14_linear_32_14285)"/>
<path d="M5.03125 10.3229C5.03125 10.3125 5.0651 10.2839 5.10677 10.2578C5.14584 10.2344 5.22396 10.1719 5.27604 10.1172L5.36979 10.0208V10.1068C5.36979 10.1979 5.32031 10.2656 5.25521 10.2656C5.23177 10.2656 5.21354 10.2839 5.21354 10.3047C5.21354 10.3307 5.1849 10.3438 5.1224 10.3438C5.07291 10.3438 5.03125 10.3333 5.03125 10.3229Z" fill="url(#paint15_linear_32_14285)"/>
<path d="M3.39811 8.19793L3.29395 7.96094L3.36426 7.94532C3.59342 7.89584 4.09603 7.63282 4.38248 7.41147C4.5726 7.26563 4.92676 6.90887 4.92676 6.86459C4.92676 6.84375 4.93978 6.82813 4.9528 6.82813C4.96842 6.82813 4.97884 6.8099 4.97884 6.78907C4.97884 6.76824 4.99452 6.75134 5.0127 6.75C5.02246 6.7493 5.04027 6.75923 5.06882 6.81313C5.12108 6.91185 5.20688 7.11228 5.30005 7.34115C5.30397 7.35079 5.35186 7.45579 5.36488 7.48964C5.37791 7.52349 5.33301 7.47918 5.31738 7.47918C5.30176 7.47918 5.29134 7.46094 5.29134 7.44012C5.29134 7.41928 5.27311 7.40105 5.25228 7.40105C5.23144 7.40105 5.21322 7.41928 5.21322 7.44272C5.21322 7.48438 5.16113 7.53125 4.93978 7.70313C4.60384 7.95834 4.17416 8.19793 3.84863 8.3125C3.77572 8.33855 3.68197 8.375 3.6377 8.39063C3.59603 8.40887 3.54655 8.42709 3.53092 8.42969C3.5153 8.4349 3.45541 8.33074 3.39811 8.19793Z" fill="url(#paint16_linear_32_14285)"/>
<path d="M9.86458 12.2422C9.58593 12.1771 9.33854 11.9818 9.16926 11.6927C9.02343 11.4427 9.02083 11.4375 9.11458 11.4375C9.15624 11.4375 9.27343 11.3984 9.36979 11.3542C9.57291 11.2604 9.83073 11.2292 9.98698 11.2786C10.0937 11.3151 10.3594 11.5521 10.526 11.7578L10.6432 11.9062L10.7865 11.8906L11.1942 11.3305C11.2378 11.2812 11.0826 11.641 10.8437 11.9661C10.6198 12.1979 10.1953 12.3203 9.86458 12.2422Z" fill="url(#paint17_radial_32_14285)"/>
<path d="M10.9688 10.3698C10.9688 10.3151 10.9948 10.3073 11.0937 10.3333C11.1875 10.3594 11.1641 10.4219 11.0599 10.4219C10.987 10.4219 10.9688 10.4115 10.9688 10.3698Z" fill="url(#paint18_radial_32_14285)"/>
<path d="M8.29664 10.1406C8.21851 9.99477 8.21851 9.99217 8.26539 9.9427C8.3357 9.86717 8.64039 9.17707 8.68726 8.98436C8.7159 8.86196 9.23674 7.8203 9.28621 7.78645C9.30705 7.77082 9.30705 7.76561 9.28621 7.76561C9.27059 7.76561 9.25758 7.74738 9.25758 7.72655C9.25758 7.64842 9.32008 7.69008 9.4008 7.82551C9.47893 7.95311 9.49195 8.05207 9.43205 8.05207C9.39559 8.05207 8.86434 9.15102 8.84611 9.26301C8.81746 9.43748 8.7784 9.53645 8.60653 9.88801C8.51799 10.0729 9.12864 11.6214 9.13775 11.6372C9.17741 11.7058 8.37215 10.2786 8.29664 10.1406Z" fill="url(#paint19_radial_32_14285)"/>
<path d="M10.708 10.2109V10.1328L10.7861 10.1875C10.9007 10.2682 10.9033 10.2917 10.8018 10.2917C10.7158 10.2917 10.708 10.2865 10.708 10.2109Z" fill="url(#paint20_radial_32_14285)"/>
<path d="M11.5742 10.2318C11.5742 10.224 11.6358 10.2005 11.6853 10.1484L11.7779 10.05L11.7322 10.1588C11.7035 10.2292 11.6749 10.2656 11.641 10.2656C11.615 10.2656 11.5742 10.237 11.5742 10.2318Z" fill="url(#paint21_radial_32_14285)"/>
<path d="M10.5 9.91407C10.5 9.79948 10.5234 9.79948 10.599 9.91407L10.6545 10.0156L10.5781 10.0052C10.5052 10.0052 10.5 9.9974 10.5 9.91407Z" fill="url(#paint22_radial_32_14285)"/>
<path d="M10.1357 9.26303C10.1357 9.14845 10.1592 9.14845 10.2347 9.26303L10.2929 9.3635L10.2139 9.35418C10.141 9.35418 10.1357 9.34637 10.1357 9.26303Z" fill="url(#paint23_radial_32_14285)"/>
<path d="M10.0049 9.02866C10.0049 8.91407 10.0283 8.91407 10.1038 9.02866L10.1715 9.14873L10.083 9.11981C10.0101 9.11981 10.0049 9.112 10.0049 9.02866Z" fill="url(#paint24_radial_32_14285)"/>
<path d="M5.53922 7.98439C5.51579 7.94794 5.50277 7.91148 5.50797 7.90367C5.51579 7.89585 5.54184 7.9271 5.56527 7.97138C5.61475 8.07033 5.60172 8.07814 5.53922 7.98439Z" fill="url(#paint25_linear_32_14285)"/>
<path d="M5.02311 11.8099C5.0127 11.8021 5.00488 11.7604 5.00488 11.7188C5.00488 11.6537 5.0127 11.6458 5.09603 11.6458C5.18197 11.6458 5.18717 11.6511 5.18717 11.737C5.18717 11.8203 5.17936 11.8281 5.11426 11.8281C5.0726 11.8281 5.03092 11.8203 5.02311 11.8099Z" fill="#00B0E7"/>
<path d="M3.34892 8.05467C3.35933 8.04165 3.34907 8.03756 3.33565 8.03347C3.3107 8.0259 3.12029 7.60124 3.14474 7.58819C3.15255 7.58037 3.44005 7.46874 3.63798 7.39321C3.68224 7.37499 3.7213 7.35415 3.72912 7.34634C3.73693 7.33592 3.81767 7.27342 3.91142 7.20311C4.23433 6.96612 4.58589 6.58852 4.62495 6.43749C4.66142 6.28905 4.68224 6.28644 4.80724 6.40884C4.93224 6.53384 5.05464 6.73696 5.07548 6.85676C5.08329 6.91665 5.07808 6.92967 5.04683 6.91665C5.02079 6.90624 5.00517 6.91405 5.00517 6.94009C5.00517 6.98696 4.6562 7.33852 4.46089 7.48956C4.25255 7.65102 3.95829 7.8203 3.71089 7.92446C3.57808 7.97915 3.49474 8.02864 3.49474 8.05207C3.49474 8.08592 3.49214 8.08592 3.4687 8.05207C3.45308 8.02864 3.43485 8.02342 3.42443 8.03905C3.39839 8.0729 3.33068 8.08852 3.34892 8.05467Z" fill="url(#paint26_linear_32_14285)"/>
<path d="M5.64877 12.2448C5.52115 12.2109 5.29199 12.0938 5.29199 12.0625C5.29199 12.0469 5.33365 12.0365 5.38314 12.0365C5.43262 12.0365 5.47428 12.0443 5.47428 12.0573C5.47428 12.0677 5.58887 12.0729 5.72689 12.0703C5.90658 12.0651 6.00033 12.0729 6.05502 12.1016C6.09928 12.1224 6.14877 12.1406 6.16959 12.1406C6.21908 12.1406 6.21127 12.2109 6.15918 12.2318C6.08105 12.2604 5.75293 12.2708 5.64877 12.2448Z" fill="url(#paint27_linear_32_14285)"/>
<path d="M10.7087 12.0234C10.7087 11.9948 10.6904 11.987 10.6488 11.9974C10.5993 12.0104 10.5654 11.9844 10.4508 11.8437C10.2738 11.625 10.042 11.4141 9.9274 11.3646C9.87533 11.3437 9.79199 11.3333 9.72949 11.3411C9.60449 11.3542 9.31283 11.4818 9.2399 11.5573C9.18262 11.612 9.12533 11.6276 9.13053 11.5833C9.13053 11.5677 9.12272 11.5521 9.1097 11.5495C9.08887 11.5443 9.01334 11.4193 8.77377 10.9896L8.6748 10.8125H8.75553C8.80762 10.8125 8.83365 10.8255 8.83365 10.8516C8.83365 10.8932 8.87533 10.9062 8.89095 10.8698C8.89615 10.8594 8.99772 10.7682 9.12012 10.6719C9.33105 10.4974 9.33887 10.4896 9.33105 10.3932C9.32584 10.2943 9.32584 10.2917 9.41178 10.2917C9.49252 10.2917 9.50814 10.3099 9.64095 10.5156C9.71908 10.6406 9.8623 10.8125 9.95605 10.9036C10.1722 11.1068 10.3154 11.1614 10.5498 11.1354C10.6618 11.1224 10.7087 11.1276 10.7087 11.1484C10.7087 11.1641 10.7217 11.1771 10.7399 11.1771C10.7555 11.1771 10.8258 11.2239 10.8936 11.2812C10.9639 11.3385 11.0446 11.3854 11.0811 11.3854C11.1149 11.3854 11.1663 11.3915 11.1741 11.3993C11.1317 11.4791 10.9666 11.8224 10.8389 11.9552C10.6983 12.1063 10.7087 12.0859 10.7087 12.0234Z" fill="url(#paint28_radial_32_14285)"/>
<path d="M8.44276 10.3932C8.34901 10.2318 8.33079 10.1406 8.38026 10.0963C8.44276 10.039 8.73182 9.3828 8.75787 9.23957C8.7735 9.15623 8.836 8.98436 8.8985 8.85936C8.95839 8.73176 9.00266 8.62238 8.99485 8.61457C8.98704 8.60676 8.99485 8.59895 9.01047 8.59895C9.0287 8.59895 9.03913 8.59113 9.03651 8.58071C9.0261 8.55207 9.31682 7.94756 9.37412 7.88506C9.421 7.83558 9.42975 7.89061 9.50787 8.01561C9.586 8.14061 9.586 8.14321 9.53912 8.22133C9.42714 8.40623 9.24745 8.73436 9.11985 8.98957C9.00526 9.21613 8.98182 9.28383 8.98704 9.38801C8.99225 9.52602 8.93495 9.71613 8.79954 10.0104C8.75006 10.1198 8.70057 10.2448 8.69016 10.2864C8.68235 10.3307 8.65631 10.3802 8.63547 10.3984C8.61464 10.414 8.59901 10.4557 8.59901 10.4896C8.59901 10.5963 8.53391 10.5573 8.44276 10.3932Z" fill="url(#paint29_radial_32_14285)"/>
<path d="M11.3103 10.3828C11.3155 10.3568 11.3494 10.3307 11.3832 10.3255C11.4197 10.3203 11.4613 10.3047 11.477 10.2917C11.4952 10.2786 11.516 10.2734 11.5238 10.2839C11.5343 10.2917 11.5421 10.2865 11.5421 10.2708C11.5421 10.2526 11.5551 10.2396 11.5707 10.2396C11.5889 10.2396 11.6133 10.2146 11.6358 10.1953C11.6828 10.1551 11.6697 10.1563 11.6723 10.2344C11.6742 10.2916 11.6567 10.3255 11.628 10.3359C11.602 10.3464 11.5733 10.3646 11.5655 10.3776C11.5551 10.3906 11.4926 10.4089 11.4249 10.4167C11.3181 10.4271 11.3025 10.4245 11.3103 10.3828Z" fill="url(#paint30_radial_32_14285)"/>
<path d="M10.6042 10.1588C10.6042 10.1432 10.586 10.1146 10.5652 10.0938C10.5261 10.0521 10.5105 9.875 10.547 9.875C10.5626 9.875 10.6095 9.9401 10.7188 10.1172L10.7605 10.1875H10.6824C10.6407 10.1875 10.6042 10.1745 10.6042 10.1588Z" fill="url(#paint31_radial_32_14285)"/>
<path d="M10.3955 9.73178C10.3955 9.6172 10.4189 9.6172 10.4945 9.73178L10.5581 9.83892L10.4736 9.82293C10.4007 9.82293 10.3955 9.81512 10.3955 9.73178Z" fill="url(#paint32_radial_32_14285)"/>
<path d="M10.2653 9.49741C10.2653 9.42449 10.2549 9.40626 10.2132 9.40626C10.1715 9.40626 10.1611 9.38803 10.1611 9.31512C10.1611 9.26563 10.1689 9.22397 10.1768 9.22397C10.2002 9.22397 10.2887 9.33856 10.2913 9.36719C10.2913 9.38282 10.32 9.43751 10.3564 9.49219L10.4311 9.61233L10.3434 9.58856C10.2705 9.58856 10.2653 9.58074 10.2653 9.49741Z" fill="url(#paint33_radial_32_14285)"/>
<path d="M10.0312 9.08074C10.0312 8.97398 10.0443 8.96877 10.112 9.04949C10.1771 9.13023 10.1745 9.17189 10.0963 9.17189C10.0391 9.17189 10.0312 9.16148 10.0312 9.08074Z" fill="url(#paint34_radial_32_14285)"/>
<path d="M10.568 10.0937C10.5602 10.0703 10.5524 10.0182 10.5524 9.97656C10.5524 9.91927 10.5394 9.90104 10.5003 9.90104C10.4587 9.90104 10.4482 9.88281 10.4482 9.80729C10.4482 9.72396 10.4535 9.71615 10.4899 9.7474C10.5133 9.76562 10.5498 9.82552 10.5706 9.88021C10.5915 9.9349 10.5872 9.98302 10.6028 9.98302C10.6158 9.98302 10.6514 9.99219 10.6436 10.0052C10.6357 10.0208 10.6383 10.0312 10.6514 10.0312C10.6644 10.0312 10.6826 10.0547 10.6904 10.0833C10.7008 10.125 10.6904 10.1354 10.6436 10.1354C10.6097 10.1354 10.5758 10.1172 10.568 10.0937Z" fill="url(#paint35_radial_32_14285)"/>
<path d="M10.3174 9.57033C10.3174 9.47918 10.32 9.47658 10.3669 9.52085C10.3929 9.54689 10.4152 9.5903 10.4294 9.6172C10.4481 9.65301 10.4294 9.66668 10.3799 9.66668C10.3252 9.66668 10.3174 9.65366 10.3174 9.57033Z" fill="url(#paint36_radial_32_14285)"/>
<path d="M10.1875 9.33594C10.1875 9.24219 10.1875 9.24219 10.2344 9.29167C10.2604 9.31772 10.2891 9.36198 10.2995 9.38803C10.3125 9.42188 10.3021 9.43229 10.2526 9.43229C10.1953 9.43229 10.1875 9.42188 10.1875 9.33594Z" fill="url(#paint37_radial_32_14285)"/>
<path d="M10.0576 9.10157C10.0576 9.00782 10.0576 9.00782 10.1045 9.05729C10.1305 9.08334 10.1592 9.1276 10.1696 9.15365C10.1826 9.1875 10.1722 9.19792 10.1227 9.19792C10.0654 9.19792 10.0576 9.1875 10.0576 9.10157Z" fill="url(#paint38_radial_32_14285)"/>
<path d="M9.92688 8.88543C9.92688 8.81511 9.88496 8.70568 9.97373 8.8325C9.98851 8.8536 10.0153 8.89875 10.0345 8.92175C10.045 8.9582 10.0363 8.96355 9.98938 8.96355C9.93731 8.96355 9.92688 8.95053 9.92688 8.88543Z" fill="url(#paint39_radial_32_14285)"/>
<path d="M12.1825 8.92447C12.1746 8.90365 12.1746 8.86979 12.1825 8.85156C12.2033 8.79166 12.1382 8.76302 11.9455 8.74479C11.4819 8.70572 11.0392 8.51041 10.5418 8.13021L10.4377 8.04947L10.3491 8.1875C10.3023 8.26303 10.2658 8.3125 10.271 8.29688C10.2762 8.28125 10.4064 7.97916 10.5653 7.625C10.7918 7.11198 10.8595 6.98438 10.8986 6.98438C10.9273 6.98438 11.0184 7.0599 11.1043 7.15365C11.3153 7.38021 11.5965 7.5651 11.8621 7.65104C12.0575 7.71615 12.1095 7.72135 12.4455 7.71875L12.8153 7.71354L12.7684 7.82552C12.5211 8.39584 12.2892 8.89844 12.258 8.92709C12.2137 8.97396 12.2007 8.97396 12.1825 8.92447Z" fill="url(#paint40_linear_32_14285)"/>
<path d="M3.50213 7.7497C3.48911 7.73147 3.22658 7.74683 3.21617 7.75465C3.20138 7.75753 3.17843 7.72225 3.1456 7.61801C3.12761 7.56087 3.03266 7.32107 3.06235 7.31316C3.07995 7.30847 3.06901 7.34506 3.06288 7.32636C3.05143 7.29131 3.07292 7.34883 3.07038 7.3166C3.05781 7.15703 3.15105 6.85881 3.16605 6.84477C3.23065 6.78423 3.41663 7.03645 3.41663 6.99738C3.41663 6.97915 3.47393 6.92707 3.54163 6.8828C3.68226 6.79426 3.83591 6.65102 3.97393 6.48176C4.04163 6.40102 4.07028 6.33592 4.08331 6.23436L4.06985 6.11881C4.11531 6.08366 4.3563 6.12826 4.34021 6.14145C4.2532 6.10073 4.46255 6.17811 4.59893 6.24998C4.64273 6.27308 4.7075 6.31662 4.7325 6.3398C4.7869 6.39027 4.76578 6.41907 4.72653 6.45832C4.70831 6.47655 4.69788 6.5052 4.70831 6.51821C4.72913 6.55207 4.49737 6.83592 4.30987 7.0104C3.99216 7.30207 3.90622 7.37758 3.92706 7.34373C3.94788 7.30727 3.87237 7.35676 3.82028 7.41405C3.80726 7.42707 3.763 7.45311 3.72653 7.46613C3.34372 7.61457 3.61925 7.72936 3.61403 7.76321C3.60622 7.79446 3.51776 7.77573 3.50213 7.7497Z" fill="url(#paint41_linear_32_14285)"/>
<path d="M6.08568 12.224C6.05703 12.2188 6.02057 12.2031 6.00494 12.1901C5.96328 12.1562 5.65599 12.138 5.56484 12.1641C5.42682 12.2031 5.15859 12.0182 5.00234 11.7787L4.94141 11.6388L5.03881 11.599C5.09869 11.5625 5.20287 11.487 5.26797 11.4323C5.33568 11.3776 5.40338 11.3333 5.41901 11.3333C5.43463 11.3333 5.44766 11.3151 5.44766 11.2943C5.44766 11.2656 5.47631 11.2552 5.55963 11.2552C5.82787 11.2552 6.14297 11.0026 6.41119 10.5729C6.54141 10.3646 6.56224 10.3438 6.63776 10.3438C6.68203 10.3438 6.72369 10.3594 6.73151 10.3776C6.74974 10.4245 6.72631 11.0521 6.69244 11.3516C6.66119 11.638 6.67682 11.6979 6.78099 11.6979C6.82526 11.6979 6.82266 11.7083 6.75234 11.8099C6.58568 12.0547 6.25494 12.2604 6.08568 12.224Z" fill="url(#paint42_linear_32_14285)"/>
<path d="M11.0732 11.5026C11.0732 11.4714 11.0628 11.4662 11.029 11.487C10.9951 11.5052 10.9535 11.4844 10.8415 11.3828C10.7633 11.3125 10.6826 11.2552 10.6644 11.2552C10.6462 11.2552 10.6305 11.2474 10.6305 11.237C10.6305 11.224 10.5602 11.2214 10.4743 11.224C10.279 11.237 10.0967 11.1771 9.96387 11.0599L9.8623 10.9714L9.95605 10.9688C10.0081 10.9688 10.055 10.9766 10.0654 10.9844C10.0863 11.0078 10.4144 11.0052 10.5498 10.9818C10.6123 10.9714 10.7451 10.9349 10.8441 10.8984C10.9456 10.8646 11.1201 10.8281 11.2347 10.8203L11.4577 10.7573L11.404 10.8932C11.18 11.4193 11.0732 11.6146 11.0732 11.5026Z" fill="url(#paint43_radial_32_14285)"/>
<path d="M8.8078 11.0208C8.78696 11.0078 8.77915 10.9948 8.79217 10.9948C8.8078 10.9948 8.79477 10.9766 8.76613 10.9557C8.74008 10.9349 8.72967 10.9167 8.7427 10.9167C8.75832 10.9167 8.75832 10.9088 8.74008 10.8958C8.69061 10.862 8.51873 10.5286 8.50832 10.4453C8.50051 10.3828 8.51092 10.3516 8.54477 10.3255C8.57342 10.3073 8.60207 10.2552 8.61249 10.2109C8.6229 10.1667 8.67239 10.0417 8.72186 9.93228C8.85989 9.63021 8.90676 9.47135 8.89374 9.34635C8.88332 9.25521 8.90155 9.19531 9.00311 8.98958C9.19061 8.60416 9.46736 8.01788 9.49861 8.01788C9.51423 8.01788 9.58383 8.14322 9.62551 8.22135C9.69582 8.34896 9.75001 8.40932 9.71355 8.45098C9.6797 8.49266 9.33383 8.98437 9.25571 9.14583C9.17238 9.32552 9.1177 9.5026 9.13071 9.5625C9.13592 9.60156 9.22186 9.77083 9.31821 9.94271C9.41457 10.112 9.51873 10.2995 9.54738 10.3542C9.57863 10.4115 9.6203 10.4792 9.64374 10.5052C9.66717 10.5312 9.70102 10.5859 9.72186 10.625C9.7427 10.6641 9.77395 10.7057 9.78957 10.7161C9.8078 10.7266 9.82342 10.7786 9.82342 10.8307C9.82342 10.9245 9.82342 10.9245 9.76874 10.875C9.73749 10.849 9.65415 10.7318 9.57863 10.6198C9.45102 10.4219 9.44582 10.4167 9.4328 10.4922C9.42239 10.5521 9.3677 10.612 9.19842 10.7474C9.07602 10.8463 8.95102 10.9531 8.91977 10.987C8.85467 11.0547 8.85989 11.0547 8.8078 11.0208Z" fill="url(#paint44_radial_32_14285)"/>
<path d="M11.0283 10.4297C10.958 10.4193 10.9424 10.4062 10.9424 10.3568C10.9424 10.2995 10.9502 10.2943 11.0101 10.3177C11.0465 10.3333 11.1455 10.3437 11.2288 10.3437C11.3122 10.3437 11.4111 10.3333 11.4476 10.3177C11.5075 10.2969 11.5153 10.2995 11.5153 10.3542C11.5153 10.4062 11.4997 10.4167 11.3955 10.4323C11.2705 10.4479 11.1768 10.4479 11.0283 10.4297Z" fill="url(#paint45_radial_32_14285)"/>
<path d="M10.7344 10.2396C10.7344 10.1693 10.7266 10.1615 10.6562 10.1615C10.5833 10.1615 10.5781 10.1537 10.5781 10.0703C10.5781 9.95573 10.6016 9.95573 10.6771 10.0703C10.7083 10.1198 10.776 10.1875 10.8255 10.2188C10.9401 10.2943 10.9401 10.3177 10.8255 10.3177C10.7422 10.3177 10.7344 10.3125 10.7344 10.2396Z" fill="url(#paint46_radial_32_14285)"/>
<path d="M5.31738 10.0938C5.31738 10.0625 5.40592 9.92709 5.42676 9.92709C5.43717 9.92709 5.4476 9.96876 5.4476 10.0182C5.4476 10.099 5.43978 10.1094 5.38248 10.1094C5.34603 10.1094 5.31738 10.1016 5.31738 10.0938Z" fill="#00B2F7"/>
<path d="M10.4375 9.88541C10.4297 9.86197 10.4219 9.80988 10.4219 9.76822C10.4219 9.71093 10.4089 9.69269 10.3724 9.69269C10.3177 9.69269 10.2917 9.64322 10.2917 9.53384C10.2917 9.47656 10.2787 9.45832 10.2396 9.45832C10.1979 9.45832 10.1875 9.44009 10.1875 9.36718C10.1875 9.31769 10.1979 9.27603 10.2083 9.27603C10.2292 9.27603 10.5781 9.87759 10.5781 9.91144C10.5781 9.94791 10.4531 9.92447 10.4375 9.88541Z" fill="url(#paint47_radial_32_14285)"/>
<path d="M10.0576 9.1328C10.0576 9.02083 10.0837 9.01823 10.1436 9.11718C10.2008 9.21614 10.2008 9.22395 10.1227 9.22395C10.0654 9.22395 10.0576 9.21354 10.0576 9.1328Z" fill="url(#paint48_radial_32_14285)"/>
<path d="M9.92676 8.89324L9.92936 8.79428L9.99186 8.86719C10.0752 8.96094 10.0726 8.98959 9.99186 8.98959C9.93457 8.98959 9.92676 8.97918 9.92676 8.89324Z" fill="url(#paint49_radial_32_14285)"/>
<path d="M5.05219 6.92707C4.99489 6.86978 4.99489 6.85416 5.04176 6.85416C5.06 6.85416 5.08344 6.88019 5.09125 6.91144C5.11208 6.98437 5.10688 6.98697 5.05219 6.92707Z" fill="url(#paint50_linear_32_14285)"/>
<path d="M5.32291 10.0703C5.39844 9.95573 5.42188 9.95573 5.42188 10.0703C5.42188 10.1537 5.41666 10.1615 5.34375 10.1615H5.26562L5.32291 10.0703Z" fill="#00C8E6"/>
<path d="M5.86426 9.15887C5.86426 9.12241 5.9476 8.98959 5.96842 8.98959C5.98405 8.98959 5.99447 9.03126 5.99447 9.08074C5.99447 9.16147 5.98666 9.17188 5.92936 9.17188C5.89291 9.17188 5.86426 9.16668 5.86426 9.15887Z" fill="#00C8E6"/>
<path d="M3.0571 7.33525C3.00448 6.88723 3.24145 6.42746 3.60417 6.22655C3.77277 6.13316 4.17898 6.07288 4.19472 6.12261C4.20253 6.14085 4.20777 6.19504 4.22859 6.18723C4.2937 6.16119 4.27864 6.17708 4.21614 6.2604C4.17969 6.30728 4.15625 6.35936 4.16407 6.37499C4.1875 6.44009 3.85157 6.80468 3.63802 6.9479C3.5677 6.99739 3.50782 7.04946 3.50782 7.0677C3.50782 7.10676 3.4875 7.34241 3.46667 7.31116C3.45625 7.29554 3.48987 7.34045 3.46643 7.36129C3.43518 7.38473 3.06563 7.40768 3.0571 7.33525Z" fill="url(#paint51_linear_32_14285)"/>
<path d="M6.61733 11.7318C6.59389 11.6901 6.59128 11.612 6.6069 11.4453C6.61993 11.3203 6.63034 11.0677 6.63295 10.8854C6.63555 10.7031 6.64337 10.5443 6.65378 10.5365C6.68243 10.5052 6.67462 10.474 6.63815 10.474C6.61993 10.474 6.53659 10.5781 6.45587 10.7031C6.20587 11.0963 5.89597 11.3333 5.63815 11.3333C5.54962 11.3333 5.53139 11.3412 5.5418 11.3724C5.55222 11.3984 5.5418 11.4115 5.51315 11.4115C5.48972 11.4115 5.4142 11.4557 5.34649 11.5104C5.28139 11.5651 5.19024 11.6328 5.14337 11.6588C5.09909 11.6849 5.06784 11.7214 5.07565 11.7396C5.08608 11.7656 5.07565 11.7682 5.02358 11.7422C4.9767 11.7213 4.92462 11.6354 4.82827 11.4219L4.50195 10.6354C4.97274 10.7118 5.58039 10.6698 5.58039 10.6698C5.78613 10.6359 5.6274 10.5008 5.82012 10.5659C6.03887 10.6414 5.76195 10.8197 5.94945 10.6947C6.00675 10.6557 6.08139 10.6681 6.10743 10.6525C6.13608 10.6395 6.17762 10.7105 6.17762 10.6949C6.17762 10.6792 6.27253 10.76 6.29597 10.7418C6.36889 10.6819 6.39858 10.5755 6.81784 9.85937C7.0418 9.47396 7.33087 8.98697 7.46108 8.77344C7.69024 8.40625 7.70327 8.39062 7.78399 8.39062C7.86472 8.39062 7.86993 8.39584 7.86993 8.47656C7.86993 8.52084 7.83868 8.60677 7.80483 8.66406C7.76837 8.72135 7.73972 8.79428 7.73972 8.82553C7.73972 8.85416 7.71108 8.94271 7.67462 9.02084C7.63815 9.09635 7.60952 9.18229 7.60952 9.21094C7.60952 9.23959 7.59128 9.29948 7.56784 9.34115C7.49233 9.48178 7.32045 9.98697 7.21108 10.3828C7.12774 10.6875 7.1043 10.8229 7.1017 10.9948L7.09909 11.2162L6.93503 11.5052C6.79962 11.7422 6.76055 11.7917 6.71108 11.7917C6.67462 11.7917 6.63555 11.7682 6.61733 11.7318Z" fill="url(#paint52_linear_32_14285)"/>
<path d="M9.94521 11.0365C9.79677 10.9245 9.61448 10.6771 9.37489 10.2604C9.10667 9.78907 9.03636 9.65104 9.02593 9.55989C9.01812 9.49219 9.09624 9.23958 9.17698 9.0677C9.28114 8.85417 9.57021 8.33854 9.60406 8.30989C9.65093 8.27083 9.65874 8.28125 9.76812 8.47135C9.82542 8.57813 9.88263 8.65453 9.85919 8.66495C9.82533 8.67537 9.53636 9.11719 9.53636 9.16667C9.53636 9.17969 9.49468 9.27864 9.44521 9.38282C9.39573 9.48958 9.34364 9.64583 9.33062 9.73177C9.30718 9.875 9.30979 9.89844 9.37489 10.0313C9.41396 10.1094 9.46083 10.1875 9.47906 10.2083C9.49468 10.2266 9.51031 10.2604 9.51031 10.2786C9.51031 10.3125 9.65614 10.3698 9.73948 10.3698C9.75511 10.3698 9.77073 10.3802 9.77073 10.3932C9.77073 10.4036 9.87229 10.3932 9.99989 10.3672C10.1249 10.3411 10.341 10.3099 10.4843 10.3021C10.6952 10.2865 10.7447 10.276 10.7525 10.2396C10.7629 10.2005 10.7702 10.2284 10.9087 10.2734C11.1498 10.3519 11.4723 10.366 11.6822 10.1901C11.7555 10.1287 11.7548 10.1165 11.5416 10.5859C11.3984 10.9011 11.3332 11.0052 11.3332 10.9141C11.3332 10.8776 11.1275 10.9089 10.9035 10.9844C10.6379 11.0703 10.4322 11.1068 10.2994 11.0859C10.2291 11.0755 10.1874 11.0781 10.1978 11.0938C10.2056 11.1068 10.177 11.1172 10.1353 11.1198C10.0858 11.1198 10.0155 11.0911 9.94521 11.0365Z" fill="url(#paint53_radial_32_14285)"/>
<path d="M10.5178 10.0443C10.4944 9.99219 10.4735 9.91666 10.4735 9.875C10.4735 9.8151 10.4605 9.79688 10.424 9.79688C10.3694 9.79688 10.3433 9.7474 10.3433 9.63803C10.3433 9.58073 10.3303 9.5625 10.2938 9.5625C10.2392 9.5625 10.2131 9.51303 10.2131 9.40365C10.2131 9.34635 10.2001 9.32812 10.1636 9.32812C10.1089 9.32812 10.0829 9.27865 10.0829 9.16928C10.0829 9.11198 10.0699 9.09375 10.0334 9.09375C10.0074 9.09375 9.97612 9.07553 9.96831 9.05209C9.94487 8.99219 9.95009 8.85938 9.97353 8.85938C9.98655 8.85938 10.1532 9.14584 10.3485 9.4974C10.6975 10.1224 10.7027 10.1354 10.6324 10.1354C10.5777 10.1354 10.5516 10.1146 10.5178 10.0443Z" fill="url(#paint54_radial_32_14285)"/>
<path d="M5.89617 9.10156C5.98732 8.90885 6.02117 8.89063 6.02117 9.02865C6.02117 9.10938 6.01336 9.11979 5.95347 9.11979C5.91701 9.11979 5.89097 9.11198 5.89617 9.10156Z" fill="#00BFF9"/>
<path d="M9.46332 10.3906C9.39301 10.2708 9.29406 10.1016 9.24719 10.013C9.16125 9.85677 9.16125 9.85156 9.20812 9.80209C9.23416 9.77084 9.24719 9.73699 9.23937 9.72396C9.22114 9.69271 9.30707 9.41927 9.38781 9.25781C9.42687 9.1823 9.45812 9.10937 9.45812 9.09375C9.45812 9.04167 9.73156 8.4974 9.7576 8.4974C9.77323 8.4948 9.81489 8.55209 9.85135 8.6198C10.604 9.9974 10.7289 10.1953 10.9164 10.2917C10.9659 10.3203 10.9972 10.3411 10.9816 10.3437C10.9685 10.3437 10.9737 10.3568 10.9946 10.3724C11.0232 10.3932 11.0154 10.3958 10.9555 10.3802C10.7862 10.3385 10.3097 10.388 9.88781 10.487C9.74719 10.5208 9.72895 10.5182 9.70031 10.4818C9.68207 10.4583 9.65864 10.4453 9.65082 10.4557C9.64041 10.4661 9.61438 10.4583 9.59354 10.4401C9.55969 10.4141 9.55707 10.4167 9.57531 10.4479C9.59875 10.487 9.61958 10.6042 9.60135 10.6042C9.59614 10.6042 9.53364 10.5078 9.46332 10.3906Z" fill="url(#paint55_radial_32_14285)"/>
<path d="M4.55729 10.4297C4.5 10.4219 4.48438 10.4037 4.48438 10.3568C4.48438 10.2995 4.48959 10.2969 4.5625 10.3229C4.60678 10.3359 4.72396 10.3437 4.82031 10.3385C4.96615 10.3307 5.02344 10.3125 5.13281 10.2474L5.26562 10.1641V10.2396C5.26562 10.2917 5.2526 10.3177 5.22656 10.3177C5.20572 10.3177 5.1875 10.3281 5.1875 10.3438C5.1875 10.4115 4.79688 10.4662 4.55729 10.4297Z" fill="url(#paint56_linear_32_14285)"/>
<path d="M11.0707 10.3985C11.089 10.3854 11.0942 10.3698 11.0837 10.3646C11.0707 10.3568 11.0759 10.3568 11.0942 10.362C11.115 10.3646 11.1462 10.3698 11.1671 10.3698C11.1879 10.3698 11.2035 10.3828 11.2035 10.3959C11.2035 10.4115 11.1645 10.4219 11.1202 10.4219C11.0603 10.4219 11.0447 10.4141 11.0707 10.3985Z" fill="url(#paint57_radial_32_14285)"/>
<path d="M12.7007 7.87241C12.7293 7.82292 12.6408 7.8073 12.3231 7.8021C12.0471 7.79949 11.9663 7.78907 11.784 7.72917C11.5158 7.64324 11.2372 7.45835 11.0262 7.23179L10.87 7.06251L10.8153 7.13282L10.7393 7.25686L10.784 7.13804C10.87 6.89845 11.0549 6.5547 11.1643 6.44011C11.396 6.19272 11.7606 6.06772 12.0835 6.12501C12.6538 6.22397 13.0523 6.76824 12.9507 7.31511C12.9168 7.49741 12.7997 7.79167 12.7606 7.79167C12.7449 7.79167 12.7398 7.8073 12.7476 7.82814C12.7554 7.84897 12.7449 7.87241 12.7242 7.88022C12.7033 7.88804 12.6929 7.88542 12.7007 7.87241Z" fill="url(#paint58_linear_32_14285)"/>
<path d="M5.96886 10.862C5.90376 10.8516 5.65896 10.8333 5.42198 10.8255C5.18501 10.8177 4.91677 10.7969 4.82302 10.7787C4.72927 10.763 4.64073 10.7526 4.6225 10.7552C4.60427 10.7604 4.57823 10.737 4.56261 10.7057C4.54438 10.6771 4.59989 10.8308 4.58888 10.8301C4.57039 10.8288 4.29506 10.2047 4.28029 10.1783C4.27902 10.1761 4.34125 10.2031 4.41938 10.2526C4.60427 10.362 4.77354 10.388 4.96104 10.3333C5.19802 10.2656 5.29698 10.1458 5.67458 9.48438C6.05739 8.80729 6.09907 8.75 6.09907 8.89584C6.09907 8.99219 6.07302 9.04166 6.01833 9.04166C5.97927 9.04166 5.96886 9.0599 5.96886 9.13281C5.96886 9.19531 5.95583 9.22396 5.92979 9.22396C5.90896 9.22396 5.89073 9.2474 5.89073 9.27344C5.89073 9.35156 5.86208 9.40625 5.82302 9.40625C5.80219 9.40625 5.78657 9.42969 5.78657 9.45572C5.78657 9.53385 5.75792 9.58854 5.71886 9.58854C5.69802 9.58854 5.68239 9.61198 5.68239 9.63803C5.68239 9.71615 5.65375 9.77084 5.61469 9.77084C5.59385 9.77084 5.57823 9.79688 5.57823 9.83334C5.57823 9.89063 5.58864 9.89584 5.80739 9.91146C5.93239 9.92188 6.14594 9.94531 6.28136 9.96615C6.41938 9.98698 6.57563 9.9974 6.6277 9.98697C6.71625 9.97396 6.73448 9.95573 6.88292 9.69531C6.97146 9.54428 7.05219 9.41406 7.06261 9.40625C7.07302 9.39844 7.08864 9.36719 7.09907 9.33594C7.10948 9.30209 7.13032 9.27604 7.14333 9.27604C7.15635 9.27604 7.16677 9.26041 7.16677 9.23959C7.16677 9.21875 7.18239 9.1849 7.20323 9.16666C7.22146 9.14584 7.2475 9.10416 7.25532 9.07291C7.26573 9.04166 7.28657 9.01562 7.29958 9.01562C7.3126 9.01562 7.32302 9 7.32302 8.97916C7.32302 8.95834 7.33864 8.92447 7.35948 8.90625C7.37771 8.88541 7.40375 8.84375 7.41157 8.8125C7.42198 8.78125 7.44282 8.75521 7.45583 8.75521C7.46885 8.75521 7.47927 8.73698 7.47927 8.71615C7.47927 8.69531 7.49229 8.67709 7.50532 8.67709C7.52094 8.67709 7.53136 8.66146 7.53136 8.64062C7.53136 8.61979 7.54698 8.58594 7.5652 8.56771C7.58083 8.54948 7.61729 8.48959 7.64594 8.4375C7.67198 8.38541 7.71626 8.31771 7.74229 8.28906C7.77094 8.26041 7.79177 8.22396 7.79177 8.20834C7.79177 8.19531 7.80479 8.18229 7.81782 8.18229C7.83344 8.18229 7.84386 8.16406 7.84386 8.14322C7.84386 8.1224 7.85688 8.10416 7.86989 8.10416C7.88552 8.10416 7.89594 8.08594 7.89594 8.0651C7.89594 8.04427 7.90896 8.02604 7.92198 8.02604C7.93761 8.02604 7.94802 8.00781 7.94802 7.98698C7.94802 7.96615 7.96104 7.94791 7.97407 7.94791C7.98969 7.94791 8.00011 7.92969 8.00011 7.90885C8.00011 7.88541 8.01833 7.86198 8.03917 7.85416C8.06001 7.84375 8.07823 7.82291 8.07823 7.80209C8.07823 7.78125 8.09125 7.76562 8.10427 7.76562C8.11989 7.76562 8.13032 7.7474 8.13032 7.72656C8.13032 7.70312 8.14854 7.67969 8.16938 7.67188C8.19021 7.66146 8.20844 7.64063 8.20844 7.61979C8.20844 7.59896 8.22146 7.58334 8.23448 7.58334C8.25011 7.58334 8.26052 7.56771 8.26052 7.54688C8.26052 7.52604 8.28135 7.49219 8.30739 7.47396C8.33083 7.45572 8.36729 7.41146 8.38552 7.375C8.46625 7.22396 8.57302 7.14062 8.6902 7.14062C8.7527 7.14062 8.77614 7.15625 8.80219 7.21615C8.84907 7.32291 8.96885 7.375 9.08864 7.34375C9.14333 7.33073 9.23448 7.3125 9.29698 7.30469C9.40375 7.28906 9.40635 7.29166 9.40635 7.36719C9.40635 7.41146 9.37188 7.48471 9.35104 7.50034C9.29114 7.54981 8.82563 8.20052 8.65895 8.46875C8.57302 8.60416 8.39073 8.91666 8.25532 9.15885C7.58083 10.3646 7.05359 11.3315 7.01714 11.3315C7.00672 11.3315 6.81664 10.6902 6.82967 10.6589C6.84268 10.6251 7.0183 10.443 7.00789 10.4143C6.98967 10.3649 6.73623 10.5215 6.78831 10.4538C6.80914 10.4304 7.15518 9.79065 7.17342 9.70992C7.19164 9.6344 7.44722 9.02894 7.62429 8.70341C7.73367 8.49769 8.3126 8.32812 8.3126 8.3125C8.3126 8.29948 8.32563 8.28646 8.33864 8.28646C8.35427 8.28646 8.36469 8.26303 8.36469 8.23438C8.36469 8.20572 8.37511 8.18229 8.38813 8.18229C8.41677 8.18229 8.59907 7.8125 8.59907 7.75521C8.59907 7.73177 8.61208 7.71354 8.6277 7.71354C8.64333 7.71354 8.64854 7.6901 8.63813 7.66146C8.62771 7.63281 8.63292 7.60938 8.64854 7.60938C8.66417 7.60938 8.67719 7.58594 8.67719 7.55469C8.67719 7.46875 8.86227 7.60262 8.91148 7.62156C8.94534 7.63459 8.93638 8.5224 8.79862 7.64813C8.79145 7.6026 8.65745 7.7757 8.64703 7.74706C8.63402 7.708 8.92302 7.7668 8.79282 7.92565C8.39958 8.40481 7.66157 8.59896 6.95844 9.8099C6.42458 10.7266 6.34385 10.8463 6.27875 10.8307C6.2527 10.8229 6.22927 10.8281 6.22927 10.8438C6.22927 10.8568 6.21886 10.8594 6.20323 10.8516C6.19021 10.8438 6.17719 10.849 6.17719 10.862C6.17719 10.8932 6.13813 10.8932 5.96886 10.862Z" fill="url(#paint59_linear_32_14285)"/>
<path d="M5.9613 7.13801C5.8389 7.07291 5.68786 6.92188 5.60974 6.77864C5.60385 6.78253 5.53106 6.6132 5.54096 6.60669L5.84671 6.67188H6.14359L6.12275 6.79688C6.11234 6.86458 6.10193 6.98176 6.10193 7.05729C6.09931 7.1302 6.0915 7.1927 6.08109 7.1927C6.06806 7.1901 6.01599 7.16666 5.9613 7.13801Z" fill="url(#paint60_linear_32_14285)"/>
<path d="M5.24246 10.1823C5.29193 10.1328 5.47943 9.83593 5.65912 9.52082C6.38047 8.26822 6.94818 7.29947 7.07058 7.11457C7.21381 6.89843 7.71121 6.38801 7.90131 6.25781L8.10472 6.13452L8.02631 6.24738C8.02631 6.28906 7.98465 6.39843 7.93516 6.49218C7.831 6.69271 7.75808 6.96875 7.78152 7.09115C7.80756 7.22135 7.8909 7.36197 7.97683 7.41145C8.05235 7.45572 8.05756 7.45572 8.21641 7.3776C8.41693 7.27865 8.47162 7.24478 8.5159 7.1875C8.53672 7.15885 8.5836 7.14062 8.6409 7.14062C8.72422 7.14062 8.72943 7.14583 8.72683 7.22656C8.72422 7.27083 8.71902 7.28906 8.71121 7.26301C8.706 7.23957 8.69037 7.21875 8.67996 7.21875C8.57318 7.21875 7.90131 8.20312 7.206 9.36718C6.76068 10.1172 6.67475 10.2552 6.71121 10.1562C6.73725 10.0911 6.7034 10.0469 6.65912 10.0833C6.63047 10.1068 6.56277 10.1042 6.38047 10.0729C6.11225 10.0286 5.7086 9.97916 5.59662 9.97916C5.54715 9.97916 5.49506 10.0104 5.42215 10.0911C5.36485 10.151 5.31016 10.2005 5.29715 10.2005C5.28672 10.2031 5.25027 10.2187 5.21641 10.237C5.16693 10.263 5.17475 10.2526 5.24246 10.1823Z" fill="url(#paint61_linear_32_14285)"/>
<path d="M8.18248 9.22394C8.21112 9.16666 8.24237 9.11978 8.24758 9.11978C8.25539 9.11978 8.23717 9.16666 8.20852 9.22394C8.17987 9.28124 8.14862 9.32812 8.14342 9.32812C8.1356 9.32812 8.15383 9.28124 8.18248 9.22394Z" fill="url(#paint62_linear_32_14285)"/>
<path d="M8.31236 8.98957C8.341 8.93228 8.37225 8.88541 8.37746 8.88541C8.38527 8.88541 8.36705 8.93228 8.3384 8.98957C8.30975 9.04687 8.2785 9.09374 8.2733 9.09374C8.26549 9.09374 8.28371 9.04687 8.31236 8.98957Z" fill="url(#paint63_linear_32_14285)"/>
<path d="M8.41932 8.80208C8.47922 8.6901 8.73963 8.27344 8.82557 8.15364C8.87245 8.08594 8.91151 8.02604 8.91151 8.01563C8.91151 8.0052 8.95838 7.93489 9.01567 7.85938C9.07297 7.78385 9.11984 7.70051 9.11984 7.67708C9.11984 7.65364 9.13286 7.64063 9.14588 7.64844C9.16932 7.66406 9.18235 7.62239 9.17973 7.53906C9.17713 7.52083 9.19016 7.5052 9.20317 7.5052C9.23963 7.5052 9.30213 7.43489 9.28391 7.41666C9.25786 7.39063 9.21879 7.39844 9.23703 7.42708C9.24744 7.4427 9.22141 7.44531 9.16932 7.43489C9.11203 7.42448 9.0912 7.42708 9.10161 7.44791C9.11463 7.46354 9.10161 7.46875 9.06776 7.46094C9.00005 7.4427 9.00005 7.375 9.06776 7.375C9.09641 7.375 9.11984 7.36458 9.11984 7.34895C9.11984 7.33594 9.13286 7.32291 9.14848 7.32291C9.16411 7.32291 9.24485 7.29166 9.32817 7.2552C9.41151 7.21875 9.71458 7.07263 9.72853 7.05645C9.76763 7.0112 10.1048 6.69518 9.51823 7.30421C9.49408 7.32929 9.25812 7.61693 9.22755 7.65031C9.13115 7.75565 9.2286 7.62426 9.22661 7.6302C9.22401 7.64063 9.14848 7.74739 9.05734 7.86979C8.86463 8.1302 8.67713 8.40625 8.52348 8.67188C8.46098 8.77344 8.40629 8.85938 8.40109 8.85938C8.39328 8.85938 8.4037 8.83333 8.41932 8.80208Z" fill="url(#paint64_linear_32_14285)"/>
<path d="M6.08053 6.79427C6.09616 6.75259 5.84876 6.73697 5.79667 6.77864C5.76803 6.80208 5.76022 6.79947 5.76022 6.77343C5.76022 6.74478 5.75501 6.74478 5.73938 6.76822C5.72116 6.79427 5.70292 6.79427 5.64823 6.76822C5.5597 6.72915 5.49092 6.54929 5.4998 6.33072C5.51443 5.97083 5.76433 5.76205 5.93048 5.74734C6.0515 5.7366 6.15738 5.74629 6.23542 5.83355C6.31347 5.92083 6.33568 5.95328 6.33313 6.0729C6.33113 6.16663 6.3097 6.2578 6.25761 6.37239C6.21595 6.46353 6.16647 6.60155 6.14563 6.68228C6.12741 6.76302 6.10136 6.82812 6.09095 6.82812C6.07792 6.82812 6.07272 6.81249 6.08053 6.79427Z" fill="url(#paint65_linear_32_14285)"/>
<path d="M6.91125 6.27603C6.84875 6.20051 6.79407 5.92187 6.79407 5.68228C6.79147 5.41144 6.83053 5.19269 6.91385 4.99218C6.97635 4.83853 7.18469 4.51041 7.22115 4.51041C7.23417 4.51041 7.24459 4.55207 7.24459 4.60156C7.24459 4.67707 7.23417 4.69269 7.18729 4.69269C7.14303 4.69269 7.13782 4.70051 7.16125 4.72394C7.17948 4.74218 7.1925 4.77603 7.1925 4.80207C7.1925 4.91926 7.71334 5.16406 8.06229 5.21093C8.26022 5.23957 8.27063 5.23697 8.38 5.17447C8.4399 5.13801 8.52584 5.10937 8.5701 5.10937C8.64563 5.10937 8.65084 5.10156 8.65084 5.01822C8.65084 4.95832 8.66385 4.92707 8.68729 4.92707C8.70553 4.92707 8.72897 4.89322 8.73938 4.84894C8.7524 4.78384 8.76542 4.77082 8.83313 4.77082C8.87479 4.77082 8.8501 4.50249 8.8501 4.51551C8.96419 4.50161 8.79044 4.98223 8.51993 5.15903C8.48868 5.17204 8.66135 5.12398 8.65615 5.15002C8.63792 5.21252 8.35135 5.40103 8.10917 5.49999C7.57792 5.72134 7.17948 5.98437 7.03625 6.21613C6.97635 6.31509 6.95292 6.32551 6.91125 6.27603Z" fill="url(#paint66_linear_32_14285)"/>
<path d="M8.70345 7.25782C8.70345 7.21094 8.64877 7.20574 8.60449 7.25001C8.58105 7.27344 8.57324 7.26303 8.57324 7.19793C8.57324 7.11981 8.57845 7.11459 8.66439 7.11459C8.75033 7.11459 8.75553 7.11981 8.75553 7.20574C8.75553 7.25522 8.74512 7.29688 8.72949 7.29688C8.71647 7.29688 8.70345 7.27866 8.70345 7.25782Z" fill="#59E9FE"/>
<path d="M8.03937 5.29949C7.91177 5.28126 7.72427 5.23699 7.62271 5.20053C7.37271 5.10938 7.12271 4.94793 7.10968 4.86981C7.10447 4.83594 7.08884 4.80991 7.07062 4.80991C7.05499 4.80991 7.02836 4.86561 7.01793 4.85519C7.00771 4.84224 7.02369 4.77423 7.03416 4.77084C7.04463 4.76746 7.05531 4.75887 7.05239 4.74741C7.04947 4.73594 7.07874 4.69616 7.10187 4.65626C7.12867 4.61003 7.15981 4.57269 7.16697 4.56512C7.18817 4.54267 7.26072 4.45834 7.30759 4.45834C7.33364 4.45834 7.40396 4.49481 7.46906 4.53907C7.65396 4.66407 7.90396 4.77084 8.08364 4.79949C8.22687 4.82293 8.27896 4.81772 8.50291 4.75782C8.64093 4.72137 8.78416 4.69272 8.82062 4.69272C8.87791 4.69272 8.88572 4.70313 8.88572 4.78647C8.88572 4.84116 8.87531 4.87241 8.85968 4.86199C8.84666 4.85418 8.83364 4.85418 8.83103 4.86719C8.83103 4.87762 8.82583 4.91407 8.82322 4.94793C8.81802 4.98178 8.75291 5.07032 8.67739 5.14324C8.60187 5.21876 8.54718 5.25782 8.55759 5.23178C8.57322 5.18751 8.56802 5.18751 8.48728 5.23699C8.34146 5.32813 8.28677 5.33594 8.03937 5.29949Z" fill="url(#paint67_linear_32_14285)"/>
<path d="M9.8355 4.58853C9.54644 4.44531 9.49274 4.02718 9.75218 3.83072C9.83586 3.76733 10.0539 3.69134 10.1179 3.74384C10.183 3.81156 10.1637 3.84822 10.3251 3.84041C10.3246 3.83591 10.449 3.93213 10.4605 4.02603C10.6089 4.41406 10.2079 4.77343 9.8355 4.58853Z" fill="url(#paint68_linear_32_14285)"/>
<path d="M7.96635 4.87501C7.82052 4.84897 7.5575 4.73178 7.38563 4.61198C7.28407 4.54167 7.25542 4.53386 7.21635 4.55991C7.11219 4.62241 7.17469 4.53386 7.33094 4.39323C7.55489 4.19011 7.85438 4.04428 8.09395 4.02345C8.5601 3.98438 8.85114 4.264 8.90696 4.65587C8.91909 4.74102 8.85657 4.95313 8.80463 4.9848C8.7527 5.01647 8.75946 4.96991 8.75946 4.95428C8.75946 4.94126 8.79138 4.88861 8.77836 4.90943C8.75753 4.94068 8.80751 4.89845 8.80751 4.84636V4.77866L8.57052 4.83855C8.32573 4.90366 8.1851 4.91147 7.96635 4.87501Z" fill="url(#paint69_linear_32_14285)"/>
<path d="M10.4118 4.02345C10.4014 4.01044 10.2998 4.00263 10.1878 4.00263C10.0029 4.00263 9.9795 3.99741 9.9144 3.93231C9.87534 3.89064 9.81805 3.85939 9.7894 3.85939C9.71128 3.85939 9.77898 3.79169 9.89617 3.75263C10.0238 3.71095 10.1123 3.71616 10.2321 3.77606C10.3493 3.83856 10.4196 3.90888 10.4352 3.987C10.4457 4.04689 10.443 4.0521 10.4118 4.02345Z" fill="url(#paint70_linear_32_14285)"/>
<path d="M8.78661 7.37499C8.75276 7.34374 8.71369 7.28906 8.70067 7.25259C8.67983 7.19791 8.55023 7.26346 8.51898 7.28949C8.48512 7.31814 8.59911 7.23957 8.59911 7.17707C8.59911 7.11718 8.65119 7.04426 8.83869 6.84374C9.16421 6.49478 9.30483 6.38541 9.43244 6.38541C9.52358 6.38541 9.53139 6.39062 9.54702 6.48437C9.58608 6.72394 9.53661 7.05988 9.44807 7.14843C9.42723 7.16666 9.41682 7.21353 9.42463 7.24738C9.43504 7.30468 9.42202 7.32031 9.32307 7.35937C9.26057 7.38541 9.13036 7.41144 9.02879 7.41926C8.86733 7.42968 8.83869 7.42447 8.78661 7.37499Z" fill="url(#paint71_linear_32_14285)"/>
<path d="M9.34342 7.3177C9.35645 7.29947 9.34863 7.29427 9.31998 7.30468C9.29395 7.31509 9.28353 7.30989 9.28873 7.28905C9.29655 7.27083 9.30697 7.22655 9.31217 7.18489C9.31998 7.14583 9.34342 7.09634 9.36426 7.0729C9.4502 6.98697 9.52051 6.61978 9.45541 6.57812C9.43978 6.5703 9.43197 6.53905 9.43978 6.51302C9.4476 6.48437 9.44238 6.46353 9.43197 6.46353C9.3851 6.46353 9.14551 6.67708 8.91635 6.92187L8.67676 7.17968V7.08593C8.67676 6.97915 8.71582 6.93228 8.79916 6.93228C8.84603 6.93228 8.85905 6.91927 8.85905 6.85937C8.85905 6.80728 8.89551 6.74999 8.99707 6.65103C9.0726 6.57552 9.1403 6.51562 9.14811 6.51562C9.15592 6.51562 9.21582 6.46614 9.28092 6.40624C9.53092 6.17447 9.88248 6.01302 10.208 5.98177C10.3825 5.96353 10.3955 5.96614 10.458 6.02864C10.5335 6.10415 10.5648 6.20052 10.5413 6.29165C10.5335 6.32812 10.4294 6.4427 10.3122 6.54687C10.1924 6.65103 9.97363 6.85677 9.8226 7.00259C9.66895 7.15103 9.50488 7.28384 9.4476 7.30728C9.3278 7.35677 9.31998 7.35677 9.34342 7.3177Z" fill="url(#paint72_linear_32_14285)"/>
<path d="M7.95097 7.50781C7.84421 7.47916 7.74003 7.32031 7.7166 7.15625C7.67753 6.86197 7.79212 6.46354 7.98483 6.23437C8.12546 6.07031 8.66191 5.8125 9.04472 5.72396C9.60202 5.59635 10.1072 5.67709 10.3781 5.9375C10.4952 6.04947 10.5525 6.14844 10.5525 6.23959C10.5525 6.30729 10.4926 6.38541 10.4406 6.38541C10.4223 6.38281 10.4353 6.36197 10.4692 6.33594C10.5395 6.27344 10.5421 6.20312 10.4744 6.125C10.4327 6.07552 10.3989 6.0651 10.2791 6.06771C9.86765 6.07031 9.36765 6.39062 8.85462 6.97656C8.59941 7.26562 8.38066 7.4375 8.18796 7.49479C8.06035 7.53385 8.04472 7.53385 7.95097 7.50781Z" fill="url(#paint73_linear_32_14285)"/>
</g>
</g>
<defs>
<filter id="filter0_i_32_14285" x="1" y="1" width="14" height="18" filterUnits="userSpaceOnUse" color-interpolation-filters="sRGB">
<feFlood flood-opacity="0" result="BackgroundImageFix"/>
<feBlend mode="normal" in="SourceGraphic" in2="BackgroundImageFix" result="shape"/>
<feColorMatrix in="SourceAlpha" type="matrix" values="0 0 0 0 0 0 0 0 0 0 0 0 0 0 0 0 0 0 127 0" result="hardAlpha"/>
<feOffset dy="4"/>
<feGaussianBlur stdDeviation="2"/>
<feComposite in2="hardAlpha" operator="arithmetic" k2="-1" k3="1"/>
<feColorMatrix type="matrix" values="0 0 0 0 0 0 0 0 0 0 0 0 0 0 0 0 0 0 0.25 0"/>
<feBlend mode="normal" in2="shape" result="effect1_innerShadow_32_14285"/>
</filter>
<linearGradient id="paint0_linear_32_14285" x1="0" y1="0" x2="18.9594" y2="10.8092" gradientUnits="userSpaceOnUse">
<stop stop-color="#00CCE6"/>
<stop offset="1" stop-color="#0082E7"/>
</linearGradient>
<linearGradient id="paint1_linear_32_14285" x1="4.94634" y1="4.80391" x2="5.4821" y2="3.8816" gradientUnits="userSpaceOnUse">
<stop stop-color="#1964E7"/>
<stop offset="1" stop-color="#6884F2"/>
</linearGradient>
<linearGradient id="paint2_linear_32_14285" x1="3.12188" y1="3.88841" x2="3.65763" y2="4.81072" gradientUnits="userSpaceOnUse">
<stop stop-color="#00CCE6"/>
<stop offset="1" stop-color="#0082E7"/>
</linearGradient>
<radialGradient id="paint3_radial_32_14285" cx="0" cy="0" r="1" gradientUnits="userSpaceOnUse" gradientTransform="translate(5.08876 4.6683) scale(0.779894)">
<stop offset="0.23" stop-color="#00CDFF"/>
<stop offset="0.49" stop-color="#00BCFA"/>
<stop offset="0.77" stop-color="#00ABF8"/>
<stop offset="1" stop-color="#0098F7"/>
</radialGradient>
<radialGradient id="paint4_radial_32_14285" cx="0" cy="0" r="1" gradientUnits="userSpaceOnUse" gradientTransform="translate(5.08833 4.66829) scale(0.779893)">
<stop offset="0.23" stop-color="#00CDFF"/>
<stop offset="0.49" stop-color="#00BCFA"/>
<stop offset="0.77" stop-color="#00ABF8"/>
<stop offset="1" stop-color="#0098F7"/>
</radialGradient>
<radialGradient id="paint5_radial_32_14285" cx="0" cy="0" r="1" gradientUnits="userSpaceOnUse" gradientTransform="translate(5.08908 4.66828) scale(0.779894)">
<stop offset="0.23" stop-color="#00CDFF"/>
<stop offset="0.49" stop-color="#00BCFA"/>
<stop offset="0.77" stop-color="#00ABF8"/>
<stop offset="1" stop-color="#0098F7"/>
</radialGradient>
<radialGradient id="paint6_radial_32_14285" cx="0" cy="0" r="1" gradientUnits="userSpaceOnUse" gradientTransform="translate(5.08841 4.66828) scale(0.779896 0.779894)">
<stop offset="0.23" stop-color="#00CDFF"/>
<stop offset="0.49" stop-color="#00BCFA"/>
<stop offset="0.77" stop-color="#00ABF8"/>
<stop offset="1" stop-color="#0098F7"/>
</radialGradient>
<radialGradient id="paint7_radial_32_14285" cx="0" cy="0" r="1" gradientUnits="userSpaceOnUse" gradientTransform="translate(5.08874 4.66829) scale(0.779895 0.779893)">
<stop offset="0.23" stop-color="#00CDFF"/>
<stop offset="0.49" stop-color="#00BCFA"/>
<stop offset="0.77" stop-color="#00ABF8"/>
<stop offset="1" stop-color="#0098F7"/>
</radialGradient>
<radialGradient id="paint8_radial_32_14285" cx="0" cy="0" r="1" gradientUnits="userSpaceOnUse" gradientTransform="translate(5.0891 4.66831) scale(0.779894)">
<stop offset="0.23" stop-color="#00CDFF"/>
<stop offset="0.49" stop-color="#00BCFA"/>
<stop offset="0.77" stop-color="#00ABF8"/>
<stop offset="1" stop-color="#0098F7"/>
</radialGradient>
<radialGradient id="paint9_radial_32_14285" cx="0" cy="0" r="1" gradientUnits="userSpaceOnUse" gradientTransform="translate(5.08843 4.66829) scale(0.779894)">
<stop offset="0.23" stop-color="#00CDFF"/>
<stop offset="0.49" stop-color="#00BCFA"/>
<stop offset="0.77" stop-color="#00ABF8"/>
<stop offset="1" stop-color="#0098F7"/>
</radialGradient>
<radialGradient id="paint10_radial_32_14285" cx="0" cy="0" r="1" gradientUnits="userSpaceOnUse" gradientTransform="translate(5.08901 4.66828) scale(0.779894)">
<stop offset="0.23" stop-color="#00CDFF"/>
<stop offset="0.49" stop-color="#00BCFA"/>
<stop offset="0.77" stop-color="#00ABF8"/>
<stop offset="1" stop-color="#0098F7"/>
</radialGradient>
<radialGradient id="paint11_radial_32_14285" cx="0" cy="0" r="1" gradientUnits="userSpaceOnUse" gradientTransform="translate(5.0891 4.66828) scale(0.779892 0.779895)">
<stop offset="0.23" stop-color="#00CDFF"/>
<stop offset="0.49" stop-color="#00BCFA"/>
<stop offset="0.77" stop-color="#00ABF8"/>
<stop offset="1" stop-color="#0098F7"/>
</radialGradient>
<radialGradient id="paint12_radial_32_14285" cx="0" cy="0" r="1" gradientUnits="userSpaceOnUse" gradientTransform="translate(5.08844 4.66831) scale(0.779894)">
<stop offset="0.23" stop-color="#00CDFF"/>
<stop offset="0.49" stop-color="#00BCFA"/>
<stop offset="0.77" stop-color="#00ABF8"/>
<stop offset="1" stop-color="#0098F7"/>
</radialGradient>
<linearGradient id="paint13_linear_32_14285" x1="3.12197" y1="3.88841" x2="3.65772" y2="4.81072" gradientUnits="userSpaceOnUse">
<stop stop-color="#00CCE6"/>
<stop offset="1" stop-color="#0082E7"/>
</linearGradient>
<linearGradient id="paint14_linear_32_14285" x1="3.12173" y1="3.88841" x2="3.65748" y2="4.81072" gradientUnits="userSpaceOnUse">
<stop stop-color="#00CCE6"/>
<stop offset="1" stop-color="#0082E7"/>
</linearGradient>
<linearGradient id="paint15_linear_32_14285" x1="3.75955" y1="4.18002" x2="4.30209" y2="5.1159" gradientUnits="userSpaceOnUse">
<stop stop-color="#0CF4FF"/>
<stop offset="0.28" stop-color="#04EEFE"/>
<stop offset="1" stop-color="#00B1F7"/>
</linearGradient>
<linearGradient id="paint16_linear_32_14285" x1="3.12175" y1="3.8884" x2="3.6575" y2="4.81072" gradientUnits="userSpaceOnUse">
<stop stop-color="#00CCE6"/>
<stop offset="1" stop-color="#0082E7"/>
</linearGradient>
<radialGradient id="paint17_radial_32_14285" cx="0" cy="0" r="1" gradientUnits="userSpaceOnUse" gradientTransform="translate(5.08875 4.66829) scale(0.779894)">
<stop offset="0.23" stop-color="#00CDFF"/>
<stop offset="0.49" stop-color="#00BCFA"/>
<stop offset="0.77" stop-color="#00ABF8"/>
<stop offset="1" stop-color="#0098F7"/>
</radialGradient>
<radialGradient id="paint18_radial_32_14285" cx="0" cy="0" r="1" gradientUnits="userSpaceOnUse" gradientTransform="translate(5.08876 4.6683) scale(0.779893 0.779892)">
<stop offset="0.23" stop-color="#00CDFF"/>
<stop offset="0.49" stop-color="#00BCFA"/>
<stop offset="0.77" stop-color="#00ABF8"/>
<stop offset="1" stop-color="#0098F7"/>
</radialGradient>
<radialGradient id="paint19_radial_32_14285" cx="0" cy="0" r="1" gradientUnits="userSpaceOnUse" gradientTransform="translate(5.08851 4.66827) scale(0.779894)">
<stop offset="0.23" stop-color="#00CDFF"/>
<stop offset="0.49" stop-color="#00BCFA"/>
<stop offset="0.77" stop-color="#00ABF8"/>
<stop offset="1" stop-color="#0098F7"/>
</radialGradient>
<radialGradient id="paint20_radial_32_14285" cx="0" cy="0" r="1" gradientUnits="userSpaceOnUse" gradientTransform="translate(5.08843 4.6683) scale(0.779894)">
<stop offset="0.23" stop-color="#00CDFF"/>
<stop offset="0.49" stop-color="#00BCFA"/>
<stop offset="0.77" stop-color="#00ABF8"/>
<stop offset="1" stop-color="#0098F7"/>
</radialGradient>
<radialGradient id="paint21_radial_32_14285" cx="0" cy="0" r="1" gradientUnits="userSpaceOnUse" gradientTransform="translate(5.08914 4.66828) scale(0.779896)">
<stop offset="0.23" stop-color="#00CDFF"/>
<stop offset="0.49" stop-color="#00BCFA"/>
<stop offset="0.77" stop-color="#00ABF8"/>
<stop offset="1" stop-color="#0098F7"/>
</radialGradient>
<radialGradient id="paint22_radial_32_14285" cx="0" cy="0" r="1" gradientUnits="userSpaceOnUse" gradientTransform="translate(5.08875 4.66828) scale(0.779896)">
<stop offset="0.23" stop-color="#00CDFF"/>
<stop offset="0.49" stop-color="#00BCFA"/>
<stop offset="0.77" stop-color="#00ABF8"/>
<stop offset="1" stop-color="#0098F7"/>
</radialGradient>
<radialGradient id="paint23_radial_32_14285" cx="0" cy="0" r="1" gradientUnits="userSpaceOnUse" gradientTransform="translate(5.0891 4.66832) scale(0.77989 0.779892)">
<stop offset="0.23" stop-color="#00CDFF"/>
<stop offset="0.49" stop-color="#00BCFA"/>
<stop offset="0.77" stop-color="#00ABF8"/>
<stop offset="1" stop-color="#0098F7"/>
</radialGradient>
<radialGradient id="paint24_radial_32_14285" cx="0" cy="0" r="1" gradientUnits="userSpaceOnUse" gradientTransform="translate(5.08842 4.66832) scale(0.779897 0.77989)">
<stop offset="0.23" stop-color="#00CDFF"/>
<stop offset="0.49" stop-color="#00BCFA"/>
<stop offset="0.77" stop-color="#00ABF8"/>
<stop offset="1" stop-color="#0098F7"/>
</radialGradient>
<linearGradient id="paint25_linear_32_14285" x1="3.12224" y1="3.88842" x2="3.65799" y2="4.81073" gradientUnits="userSpaceOnUse">
<stop stop-color="#00CCE6"/>
<stop offset="1" stop-color="#0082E7"/>
</linearGradient>
<linearGradient id="paint26_linear_32_14285" x1="3.12202" y1="3.88839" x2="3.65778" y2="4.8107" gradientUnits="userSpaceOnUse">
<stop stop-color="#00CCE6"/>
<stop offset="1" stop-color="#0082E7"/>
</linearGradient>
<linearGradient id="paint27_linear_32_14285" x1="3.75988" y1="4.18003" x2="4.3024" y2="5.11591" gradientUnits="userSpaceOnUse">
<stop stop-color="#0CF4FF"/>
<stop offset="0.28" stop-color="#04EEFE"/>
<stop offset="1" stop-color="#00B1F7"/>
</linearGradient>
<radialGradient id="paint28_radial_32_14285" cx="0" cy="0" r="1" gradientUnits="userSpaceOnUse" gradientTransform="translate(5.08908 4.66828) scale(0.779894)">
<stop offset="0.23" stop-color="#00CDFF"/>
<stop offset="0.49" stop-color="#00BCFA"/>
<stop offset="0.77" stop-color="#00ABF8"/>
<stop offset="1" stop-color="#0098F7"/>
</radialGradient>
<radialGradient id="paint29_radial_32_14285" cx="0" cy="0" r="1" gradientUnits="userSpaceOnUse" gradientTransform="translate(5.08881 4.66827) scale(0.779894)">
<stop offset="0.23" stop-color="#00CDFF"/>
<stop offset="0.49" stop-color="#00BCFA"/>
<stop offset="0.77" stop-color="#00ABF8"/>
<stop offset="1" stop-color="#0098F7"/>
</radialGradient>
<radialGradient id="paint30_radial_32_14285" cx="0" cy="0" r="1" gradientUnits="userSpaceOnUse" gradientTransform="translate(5.08918 4.6683) scale(0.779893)">
<stop offset="0.23" stop-color="#00CDFF"/>
<stop offset="0.49" stop-color="#00BCFA"/>
<stop offset="0.77" stop-color="#00ABF8"/>
<stop offset="1" stop-color="#0098F7"/>
</radialGradient>
<radialGradient id="paint31_radial_32_14285" cx="0" cy="0" r="1" gradientUnits="userSpaceOnUse" gradientTransform="translate(5.08883 4.6683) scale(0.779895 0.779894)">
<stop offset="0.23" stop-color="#00CDFF"/>
<stop offset="0.49" stop-color="#00BCFA"/>
<stop offset="0.77" stop-color="#00ABF8"/>
<stop offset="1" stop-color="#0098F7"/>
</radialGradient>
<radialGradient id="paint32_radial_32_14285" cx="0" cy="0" r="1" gradientUnits="userSpaceOnUse" gradientTransform="translate(5.0884 4.66829) scale(0.779898 0.779896)">
<stop offset="0.23" stop-color="#00CDFF"/>
<stop offset="0.49" stop-color="#00BCFA"/>
<stop offset="0.77" stop-color="#00ABF8"/>
<stop offset="1" stop-color="#0098F7"/>
</radialGradient>
<radialGradient id="paint33_radial_32_14285" cx="0" cy="0" r="1" gradientUnits="userSpaceOnUse" gradientTransform="translate(5.08842 4.66831) scale(0.779896 0.779893)">
<stop offset="0.23" stop-color="#00CDFF"/>
<stop offset="0.49" stop-color="#00BCFA"/>
<stop offset="0.77" stop-color="#00ABF8"/>
<stop offset="1" stop-color="#0098F7"/>
</radialGradient>
<radialGradient id="paint34_radial_32_14285" cx="0" cy="0" r="1" gradientUnits="userSpaceOnUse" gradientTransform="translate(5.08876 4.66831) scale(0.779892 0.779895)">
<stop offset="0.23" stop-color="#00CDFF"/>
<stop offset="0.49" stop-color="#00BCFA"/>
<stop offset="0.77" stop-color="#00ABF8"/>
<stop offset="1" stop-color="#0098F7"/>
</radialGradient>
<radialGradient id="paint35_radial_32_14285" cx="0" cy="0" r="1" gradientUnits="userSpaceOnUse" gradientTransform="translate(5.08909 4.6683) scale(0.779892)">
<stop offset="0.23" stop-color="#00CDFF"/>
<stop offset="0.49" stop-color="#00BCFA"/>
<stop offset="0.77" stop-color="#00ABF8"/>
<stop offset="1" stop-color="#0098F7"/>
</radialGradient>
<radialGradient id="paint36_radial_32_14285" cx="0" cy="0" r="1" gradientUnits="userSpaceOnUse" gradientTransform="translate(5.08842 4.66832) scale(0.779895 0.779892)">
<stop offset="0.23" stop-color="#00CDFF"/>
<stop offset="0.49" stop-color="#00BCFA"/>
<stop offset="0.77" stop-color="#00ABF8"/>
<stop offset="1" stop-color="#0098F7"/>
</radialGradient>
<radialGradient id="paint37_radial_32_14285" cx="0" cy="0" r="1" gradientUnits="userSpaceOnUse" gradientTransform="translate(5.08879 4.66831) scale(0.779891 0.779892)">
<stop offset="0.23" stop-color="#00CDFF"/>
<stop offset="0.49" stop-color="#00BCFA"/>
<stop offset="0.77" stop-color="#00ABF8"/>
<stop offset="1" stop-color="#0098F7"/>
</radialGradient>
<radialGradient id="paint38_radial_32_14285" cx="0" cy="0" r="1" gradientUnits="userSpaceOnUse" gradientTransform="translate(5.0891 4.66831) scale(0.779891 0.779892)">
<stop offset="0.23" stop-color="#00CDFF"/>
<stop offset="0.49" stop-color="#00BCFA"/>
<stop offset="0.77" stop-color="#00ABF8"/>
<stop offset="1" stop-color="#0098F7"/>
</radialGradient>
<radialGradient id="paint39_radial_32_14285" cx="0" cy="0" r="1" gradientUnits="userSpaceOnUse" gradientTransform="translate(5.08855 4.66831) scale(0.779895 0.779891)">
<stop offset="0.23" stop-color="#00CDFF"/>
<stop offset="0.49" stop-color="#00BCFA"/>
<stop offset="0.77" stop-color="#00ABF8"/>
<stop offset="1" stop-color="#0098F7"/>
</radialGradient>
<linearGradient id="paint40_linear_32_14285" x1="4.94652" y1="4.80392" x2="5.48227" y2="3.88162" gradientUnits="userSpaceOnUse">
<stop stop-color="#1964E7"/>
<stop offset="1" stop-color="#6884F2"/>
</linearGradient>
<linearGradient id="paint41_linear_32_14285" x1="3.12205" y1="3.88838" x2="3.6578" y2="4.8107" gradientUnits="userSpaceOnUse">
<stop stop-color="#00CCE6"/>
<stop offset="1" stop-color="#0082E7"/>
</linearGradient>
<linearGradient id="paint42_linear_32_14285" x1="3.75929" y1="4.18001" x2="4.30182" y2="5.11589" gradientUnits="userSpaceOnUse">
<stop stop-color="#0CF4FF"/>
<stop offset="0.28" stop-color="#04EEFE"/>
<stop offset="1" stop-color="#00B1F7"/>
</linearGradient>
<radialGradient id="paint43_radial_32_14285" cx="0" cy="0" r="1" gradientUnits="userSpaceOnUse" gradientTransform="translate(5.08908 4.6683) scale(0.779894)">
<stop offset="0.23" stop-color="#00CDFF"/>
<stop offset="0.49" stop-color="#00BCFA"/>
<stop offset="0.77" stop-color="#00ABF8"/>
<stop offset="1" stop-color="#0098F7"/>
</radialGradient>
<radialGradient id="paint44_radial_32_14285" cx="0" cy="0" r="1" gradientUnits="userSpaceOnUse" gradientTransform="translate(5.08926 4.6683) scale(0.779894)">
<stop offset="0.23" stop-color="#00CDFF"/>
<stop offset="0.49" stop-color="#00BCFA"/>
<stop offset="0.77" stop-color="#00ABF8"/>
<stop offset="1" stop-color="#0098F7"/>
</radialGradient>
<radialGradient id="paint45_radial_32_14285" cx="0" cy="0" r="1" gradientUnits="userSpaceOnUse" gradientTransform="translate(5.08843 4.66832) scale(0.779895 0.77989)">
<stop offset="0.23" stop-color="#00CDFF"/>
<stop offset="0.49" stop-color="#00BCFA"/>
<stop offset="0.77" stop-color="#00ABF8"/>
<stop offset="1" stop-color="#0098F7"/>
</radialGradient>
<radialGradient id="paint46_radial_32_14285" cx="0" cy="0" r="1" gradientUnits="userSpaceOnUse" gradientTransform="translate(5.08876 4.6683) scale(0.779894)">
<stop offset="0.23" stop-color="#00CDFF"/>
<stop offset="0.49" stop-color="#00BCFA"/>
<stop offset="0.77" stop-color="#00ABF8"/>
<stop offset="1" stop-color="#0098F7"/>
</radialGradient>
<radialGradient id="paint47_radial_32_14285" cx="0" cy="0" r="1" gradientUnits="userSpaceOnUse" gradientTransform="translate(5.08876 4.66828) scale(0.779894)">
<stop offset="0.23" stop-color="#00CDFF"/>
<stop offset="0.49" stop-color="#00BCFA"/>
<stop offset="0.77" stop-color="#00ABF8"/>
<stop offset="1" stop-color="#0098F7"/>
</radialGradient>
<radialGradient id="paint48_radial_32_14285" cx="0" cy="0" r="1" gradientUnits="userSpaceOnUse" gradientTransform="translate(5.0891 4.66828) scale(0.779892 0.779895)">
<stop offset="0.23" stop-color="#00CDFF"/>
<stop offset="0.49" stop-color="#00BCFA"/>
<stop offset="0.77" stop-color="#00ABF8"/>
<stop offset="1" stop-color="#0098F7"/>
</radialGradient>
<radialGradient id="paint49_radial_32_14285" cx="0" cy="0" r="1" gradientUnits="userSpaceOnUse" gradientTransform="translate(5.08841 4.66831) scale(0.779898 0.779894)">
<stop offset="0.23" stop-color="#00CDFF"/>
<stop offset="0.49" stop-color="#00BCFA"/>
<stop offset="0.77" stop-color="#00ABF8"/>
<stop offset="1" stop-color="#0098F7"/>
</radialGradient>
<linearGradient id="paint50_linear_32_14285" x1="3.12218" y1="3.8884" x2="3.65792" y2="4.81071" gradientUnits="userSpaceOnUse">
<stop stop-color="#00CCE6"/>
<stop offset="1" stop-color="#0082E7"/>
</linearGradient>
<linearGradient id="paint51_linear_32_14285" x1="3.12207" y1="3.88839" x2="3.65783" y2="4.8107" gradientUnits="userSpaceOnUse">
<stop stop-color="#00CCE6"/>
<stop offset="1" stop-color="#0082E7"/>
</linearGradient>
<linearGradient id="paint52_linear_32_14285" x1="3.75969" y1="4.18001" x2="4.30222" y2="5.11589" gradientUnits="userSpaceOnUse">
<stop stop-color="#0CF4FF"/>
<stop offset="0.28" stop-color="#04EEFE"/>
<stop offset="1" stop-color="#00B1F7"/>
</linearGradient>
<radialGradient id="paint53_radial_32_14285" cx="0" cy="0" r="1" gradientUnits="userSpaceOnUse" gradientTransform="translate(5.08866 4.66829) scale(0.779894)">
<stop offset="0.23" stop-color="#00CDFF"/>
<stop offset="0.49" stop-color="#00BCFA"/>
<stop offset="0.77" stop-color="#00ABF8"/>
<stop offset="1" stop-color="#0098F7"/>
</radialGradient>
<radialGradient id="paint54_radial_32_14285" cx="0" cy="0" r="1" gradientUnits="userSpaceOnUse" gradientTransform="translate(5.08833 4.6683) scale(0.779894)">
<stop offset="0.23" stop-color="#00CDFF"/>
<stop offset="0.49" stop-color="#00BCFA"/>
<stop offset="0.77" stop-color="#00ABF8"/>
<stop offset="1" stop-color="#0098F7"/>
</radialGradient>
<radialGradient id="paint55_radial_32_14285" cx="0" cy="0" r="1" gradientUnits="userSpaceOnUse" gradientTransform="translate(5.08855 4.6683) scale(0.779894)">
<stop offset="0.23" stop-color="#00CDFF"/>
<stop offset="0.49" stop-color="#00BCFA"/>
<stop offset="0.77" stop-color="#00ABF8"/>
<stop offset="1" stop-color="#0098F7"/>
</radialGradient>
<linearGradient id="paint56_linear_32_14285" x1="3.75955" y1="4.18002" x2="4.30209" y2="5.1159" gradientUnits="userSpaceOnUse">
<stop stop-color="#0CF4FF"/>
<stop offset="0.28" stop-color="#04EEFE"/>
<stop offset="1" stop-color="#00B1F7"/>
</linearGradient>
<radialGradient id="paint57_radial_32_14285" cx="0" cy="0" r="1" gradientUnits="userSpaceOnUse" gradientTransform="translate(5.08916 4.66831) scale(0.779895 0.779894)">
<stop offset="0.23" stop-color="#00CDFF"/>
<stop offset="0.49" stop-color="#00BCFA"/>
<stop offset="0.77" stop-color="#00ABF8"/>
<stop offset="1" stop-color="#0098F7"/>
</radialGradient>
<linearGradient id="paint58_linear_32_14285" x1="4.94653" y1="4.80394" x2="5.4823" y2="3.88162" gradientUnits="userSpaceOnUse">
<stop stop-color="#1964E7"/>
<stop offset="1" stop-color="#6884F2"/>
</linearGradient>
<linearGradient id="paint59_linear_32_14285" x1="3.75966" y1="4.18001" x2="4.30219" y2="5.11589" gradientUnits="userSpaceOnUse">
<stop stop-color="#0CF4FF"/>
<stop offset="0.28" stop-color="#04EEFE"/>
<stop offset="1" stop-color="#00B1F7"/>
</linearGradient>
<linearGradient id="paint60_linear_32_14285" x1="3.75991" y1="3.7392" x2="3.75991" y2="4.05794" gradientUnits="userSpaceOnUse">
<stop stop-color="#40FAFD"/>
<stop offset="1" stop-color="#00E0FF"/>
</linearGradient>
<linearGradient id="paint61_linear_32_14285" x1="3.75982" y1="4.18001" x2="4.30235" y2="5.11588" gradientUnits="userSpaceOnUse">
<stop stop-color="#0CF4FF"/>
<stop offset="0.28" stop-color="#04EEFE"/>
<stop offset="1" stop-color="#00B1F7"/>
</linearGradient>
<linearGradient id="paint62_linear_32_14285" x1="3.7597" y1="4.18" x2="4.30224" y2="5.11588" gradientUnits="userSpaceOnUse">
<stop stop-color="#0CF4FF"/>
<stop offset="0.28" stop-color="#04EEFE"/>
<stop offset="1" stop-color="#00B1F7"/>
</linearGradient>
<linearGradient id="paint63_linear_32_14285" x1="3.75942" y1="4.18" x2="4.30195" y2="5.11587" gradientUnits="userSpaceOnUse">
<stop stop-color="#0CF4FF"/>
<stop offset="0.28" stop-color="#04EEFE"/>
<stop offset="1" stop-color="#00B1F7"/>
</linearGradient>
<linearGradient id="paint64_linear_32_14285" x1="3.7596" y1="4.18001" x2="4.30213" y2="5.11589" gradientUnits="userSpaceOnUse">
<stop stop-color="#0CF4FF"/>
<stop offset="0.28" stop-color="#04EEFE"/>
<stop offset="1" stop-color="#00B1F7"/>
</linearGradient>
<linearGradient id="paint65_linear_32_14285" x1="3.75935" y1="3.73919" x2="3.75935" y2="4.05793" gradientUnits="userSpaceOnUse">
<stop stop-color="#40FAFD"/>
<stop offset="1" stop-color="#00E0FF"/>
</linearGradient>
<linearGradient id="paint66_linear_32_14285" x1="4.26119" y1="3.29161" x2="4.26119" y2="3.82736" gradientUnits="userSpaceOnUse">
<stop stop-color="#8EF6FD"/>
<stop offset="1" stop-color="#2BE8FF"/>
</linearGradient>
<linearGradient id="paint67_linear_32_14285" x1="4.26169" y1="3.29162" x2="4.26169" y2="3.82737" gradientUnits="userSpaceOnUse">
<stop stop-color="#8EF6FD"/>
<stop offset="1" stop-color="#2BE8FF"/>
</linearGradient>
<linearGradient id="paint68_linear_32_14285" x1="4.83063" y1="3.21022" x2="4.83063" y2="3.39333" gradientUnits="userSpaceOnUse">
<stop stop-color="#92EEFE"/>
<stop offset="1" stop-color="#59E5FE"/>
</linearGradient>
<linearGradient id="paint69_linear_32_14285" x1="4.2616" y1="3.29162" x2="4.2616" y2="3.82737" gradientUnits="userSpaceOnUse">
<stop stop-color="#8EF6FD"/>
<stop offset="1" stop-color="#2BE8FF"/>
</linearGradient>
<linearGradient id="paint70_linear_32_14285" x1="4.83139" y1="3.21025" x2="4.83139" y2="3.39335" gradientUnits="userSpaceOnUse">
<stop stop-color="#92EEFE"/>
<stop offset="1" stop-color="#59E5FE"/>
</linearGradient>
<linearGradient id="paint71_linear_32_14285" x1="4.48533" y1="3.74598" x2="4.68878" y2="4.09184" gradientUnits="userSpaceOnUse">
<stop stop-color="#A6FEFF"/>
<stop offset="0.53" stop-color="#BFFDFE"/>
<stop offset="1" stop-color="#97EDFF"/>
</linearGradient>
<linearGradient id="paint72_linear_32_14285" x1="4.48486" y1="3.74598" x2="4.68832" y2="4.09184" gradientUnits="userSpaceOnUse">
<stop stop-color="#A6FEFF"/>
<stop offset="0.53" stop-color="#BFFDFE"/>
<stop offset="1" stop-color="#97EDFF"/>
</linearGradient>
<linearGradient id="paint73_linear_32_14285" x1="4.48565" y1="3.74599" x2="4.6891" y2="4.09185" gradientUnits="userSpaceOnUse">
<stop stop-color="#A6FEFF"/>
<stop offset="0.53" stop-color="#BFFDFE"/>
<stop offset="1" stop-color="#97EDFF"/>
</linearGradient>
<clipPath id="clip0_32_14285">
<rect width="16" height="16" fill="white"/>
</clipPath>
</defs>
</svg>
