<svg width="16" height="16" viewBox="0 0 16 16" fill="none" xmlns="http://www.w3.org/2000/svg">
<g clip-path="url(#clip0_32_14368)">
<path d="M12 0H4C1.79086 0 0 1.79086 0 4V12C0 14.2091 1.79086 16 4 16H12C14.2091 16 16 14.2091 16 12V4C16 1.79086 14.2091 0 12 0Z" fill="url(#paint0_linear_32_14368)"/>
<path d="M12 0H4C1.79086 0 0 1.79086 0 4V12C0 14.2091 1.79086 16 4 16H12C14.2091 16 16 14.2091 16 12V4C16 1.79086 14.2091 0 12 0Z" fill="url(#paint1_linear_32_14368)"/>
<g filter="url(#filter0_i_32_14368)">
<path d="M12 1H4C2.34315 1 1 2.34315 1 4V12C1 13.6569 2.34315 15 4 15H12C13.6569 15 15 13.6569 15 12V4C15 2.34315 13.6569 1 12 1Z" fill="black" fill-opacity="0.7"/>
<mask id="mask0_32_14368" style="mask-type:luminance" maskUnits="userSpaceOnUse" x="2" y="2" width="12" height="12">
<path d="M14 2H2V14H14V2Z" fill="white"/>
</mask>
<g mask="url(#mask0_32_14368)">
<g filter="url(#filter1_d_32_14368)">
<path d="M3.9935 12.4297L2.51465 3.66399L5.2495 2.52914L6.99579 3.56686L8.59579 2.70399L11.9295 3.98399L10.0598 13.4857L3.9935 12.4297Z" fill="url(#paint2_linear_32_14368)"/>
</g>
<g filter="url(#filter2_d_32_14368)">
<path d="M13.4861 6.22971L12.07 2.73256L9.50087 2.51428L5.53516 6.32456L6.60258 11.2354L8.59573 12.6331L13.4861 9.73142L12.286 7.48113L13.4861 6.22971Z" fill="url(#paint3_linear_32_14368)"/>
</g>
<g filter="url(#filter3_d_32_14368)">
<path d="M11.2881 5.70856L12.2858 7.48113L13.4858 6.22971L12.6047 4.05142L11.2881 5.70856Z" fill="url(#paint4_linear_32_14368)"/>
</g>
<g filter="url(#filter4_d_32_14368)">
<path d="M4.57129 4.57141H11.4284V11.4286H4.57129V4.57141Z" fill="black"/>
</g>
<path d="M5.42676 10.1326H7.9982V10.5611H5.42676V10.1326Z" fill="white"/>
<path d="M7.86113 5.42514L7.47828 6.92572L7.04057 5.42514H6.60513L6.16628 6.92572L5.78457 5.42514H5.18457L5.91942 7.99772H6.40171L6.82228 6.50858L7.23828 7.99772H7.72628L8.46 5.42514H7.86113Z" fill="white"/>
<path d="M8.56738 7.63086L8.90223 7.22971C9.11258 7.42396 9.38629 7.53523 9.67252 7.54286C9.90109 7.54286 10.0451 7.45142 10.0451 7.29942V7.29257C10.0451 7.14857 9.95594 7.07542 9.52509 6.96457C9.0051 6.832 8.67023 6.688 8.67023 6.176V6.168C8.67023 5.70057 9.04623 5.39086 9.5731 5.39086C9.92088 5.3847 10.2598 5.50078 10.5308 5.71886L10.2359 6.14628C10.0433 5.99556 9.80928 5.90706 9.56509 5.89257C9.34794 5.89257 9.23366 5.992 9.23366 6.12113V6.12913C9.23366 6.29828 9.34795 6.35771 9.79023 6.472C10.3137 6.60913 10.6085 6.79657 10.6085 7.24686V7.25371C10.6085 7.76571 10.2177 8.05371 9.66109 8.05371C9.25819 8.0553 8.86885 7.90842 8.56738 7.64113" fill="white"/>
</g>
</g>
</g>
<defs>
<filter id="filter0_i_32_14368" x="1" y="1" width="14" height="18" filterUnits="userSpaceOnUse" color-interpolation-filters="sRGB">
<feFlood flood-opacity="0" result="BackgroundImageFix"/>
<feBlend mode="normal" in="SourceGraphic" in2="BackgroundImageFix" result="shape"/>
<feColorMatrix in="SourceAlpha" type="matrix" values="0 0 0 0 0 0 0 0 0 0 0 0 0 0 0 0 0 0 127 0" result="hardAlpha"/>
<feOffset dy="4"/>
<feGaussianBlur stdDeviation="2"/>
<feComposite in2="hardAlpha" operator="arithmetic" k2="-1" k3="1"/>
<feColorMatrix type="matrix" values="0 0 0 0 0 0 0 0 0 0 0 0 0 0 0 0 0 0 0.25 0"/>
<feBlend mode="normal" in2="shape" result="effect1_innerShadow_32_14368"/>
</filter>
<filter id="filter1_d_32_14368" x="-1.48535" y="0.529144" width="17.415" height="18.9566" filterUnits="userSpaceOnUse" color-interpolation-filters="sRGB">
<feFlood flood-opacity="0" result="BackgroundImageFix"/>
<feColorMatrix in="SourceAlpha" type="matrix" values="0 0 0 0 0 0 0 0 0 0 0 0 0 0 0 0 0 0 127 0" result="hardAlpha"/>
<feOffset dy="2"/>
<feGaussianBlur stdDeviation="2"/>
<feComposite in2="hardAlpha" operator="out"/>
<feColorMatrix type="matrix" values="0 0 0 0 0 0 0 0 0 0 0 0 0 0 0 0 0 0 0.25 0"/>
<feBlend mode="normal" in2="BackgroundImageFix" result="effect1_dropShadow_32_14368"/>
<feBlend mode="normal" in="SourceGraphic" in2="effect1_dropShadow_32_14368" result="shape"/>
</filter>
<filter id="filter2_d_32_14368" x="1.53516" y="0.514282" width="15.9512" height="18.1188" filterUnits="userSpaceOnUse" color-interpolation-filters="sRGB">
<feFlood flood-opacity="0" result="BackgroundImageFix"/>
<feColorMatrix in="SourceAlpha" type="matrix" values="0 0 0 0 0 0 0 0 0 0 0 0 0 0 0 0 0 0 127 0" result="hardAlpha"/>
<feOffset dy="2"/>
<feGaussianBlur stdDeviation="2"/>
<feComposite in2="hardAlpha" operator="out"/>
<feColorMatrix type="matrix" values="0 0 0 0 0 0 0 0 0 0 0 0 0 0 0 0 0 0 0.25 0"/>
<feBlend mode="normal" in2="BackgroundImageFix" result="effect1_dropShadow_32_14368"/>
<feBlend mode="normal" in="SourceGraphic" in2="effect1_dropShadow_32_14368" result="shape"/>
</filter>
<filter id="filter3_d_32_14368" x="7.28809" y="2.05142" width="10.1973" height="11.4297" filterUnits="userSpaceOnUse" color-interpolation-filters="sRGB">
<feFlood flood-opacity="0" result="BackgroundImageFix"/>
<feColorMatrix in="SourceAlpha" type="matrix" values="0 0 0 0 0 0 0 0 0 0 0 0 0 0 0 0 0 0 127 0" result="hardAlpha"/>
<feOffset dy="2"/>
<feGaussianBlur stdDeviation="2"/>
<feComposite in2="hardAlpha" operator="out"/>
<feColorMatrix type="matrix" values="0 0 0 0 0 0 0 0 0 0 0 0 0 0 0 0 0 0 0.25 0"/>
<feBlend mode="normal" in2="BackgroundImageFix" result="effect1_dropShadow_32_14368"/>
<feBlend mode="normal" in="SourceGraphic" in2="effect1_dropShadow_32_14368" result="shape"/>
</filter>
<filter id="filter4_d_32_14368" x="0.571289" y="2.57141" width="14.8574" height="14.8571" filterUnits="userSpaceOnUse" color-interpolation-filters="sRGB">
<feFlood flood-opacity="0" result="BackgroundImageFix"/>
<feColorMatrix in="SourceAlpha" type="matrix" values="0 0 0 0 0 0 0 0 0 0 0 0 0 0 0 0 0 0 127 0" result="hardAlpha"/>
<feOffset dy="2"/>
<feGaussianBlur stdDeviation="2"/>
<feComposite in2="hardAlpha" operator="out"/>
<feColorMatrix type="matrix" values="0 0 0 0 0 0 0 0 0 0 0 0 0 0 0 0 0 0 0.25 0"/>
<feBlend mode="normal" in2="BackgroundImageFix" result="effect1_dropShadow_32_14368"/>
<feBlend mode="normal" in="SourceGraphic" in2="effect1_dropShadow_32_14368" result="shape"/>
</filter>
<linearGradient id="paint0_linear_32_14368" x1="8" y1="0" x2="8" y2="16" gradientUnits="userSpaceOnUse">
<stop stop-color="#3BEA62"/>
<stop offset="0.5" stop-color="#009AE5"/>
<stop offset="1" stop-color="#6B57FF"/>
</linearGradient>
<linearGradient id="paint1_linear_32_14368" x1="6.67735" y1="0.312089" x2="10.3076" y2="15.524" gradientUnits="userSpaceOnUse">
<stop offset="0.28" stop-color="#07C3F2"/>
<stop offset="0.94" stop-color="#087CFA"/>
</linearGradient>
<linearGradient id="paint2_linear_32_14368" x1="6.44379" y1="2.74286" x2="9.28265" y2="12.9646" gradientUnits="userSpaceOnUse">
<stop offset="0.28" stop-color="#07C3F2"/>
<stop offset="0.94" stop-color="#087CFA"/>
</linearGradient>
<linearGradient id="paint3_linear_32_14368" x1="7.32944" y1="4.03999" x2="12.1329" y2="11.0834" gradientUnits="userSpaceOnUse">
<stop offset="0.14" stop-color="#FCF84A"/>
<stop offset="0.37" stop-color="#07C3F2"/>
</linearGradient>
<linearGradient id="paint4_linear_32_14368" x1="12.0881" y1="4.91085" x2="12.7189" y2="7.14513" gradientUnits="userSpaceOnUse">
<stop offset="0.28" stop-color="#07C3F2"/>
<stop offset="0.94" stop-color="#087CFA"/>
</linearGradient>
<clipPath id="clip0_32_14368">
<rect width="16" height="16" fill="white"/>
</clipPath>
</defs>
</svg>
