<svg width="16" height="16" viewBox="0 0 16 16" fill="none" xmlns="http://www.w3.org/2000/svg">
<g clip-path="url(#clip0_32_14403)">
<path d="M12 0H4C1.79086 0 0 1.79086 0 4V12C0 14.2091 1.79086 16 4 16H12C14.2091 16 16 14.2091 16 12V4C16 1.79086 14.2091 0 12 0Z" fill="url(#paint0_linear_32_14403)"/>
<path d="M12 0H4C1.79086 0 0 1.79086 0 4V12C0 14.2091 1.79086 16 4 16H12C14.2091 16 16 14.2091 16 12V4C16 1.79086 14.2091 0 12 0Z" fill="url(#paint1_linear_32_14403)"/>
<g filter="url(#filter0_i_32_14403)">
<path d="M12 1H4C2.34315 1 1 2.34315 1 4V12C1 13.6569 2.34315 15 4 15H12C13.6569 15 15 13.6569 15 12V4C15 2.34315 13.6569 1 12 1Z" fill="black" fill-opacity="0.7"/>
<mask id="mask0_32_14403" style="mask-type:luminance" maskUnits="userSpaceOnUse" x="2" y="2" width="12" height="12">
<path d="M14 2H2V14H14V2Z" fill="white"/>
</mask>
<g mask="url(#mask0_32_14403)">
<g filter="url(#filter1_d_32_14403)">
<path d="M5.31464 13.4663L12.4324 12.248C12.6914 12.204 12.9307 12.0819 13.1185 11.8981C13.3062 11.7143 13.4332 11.4775 13.4826 11.2194C13.5159 11.048 13.5139 10.8716 13.4769 10.7009C13.4399 10.5302 13.3686 10.3689 13.2675 10.2265C13.1662 10.0842 13.0372 9.9639 12.8882 9.8729C12.7391 9.78191 12.5732 9.72211 12.4004 9.69715L5.24378 8.69258C4.92413 8.64763 4.59872 8.66719 4.28674 8.75011C3.97478 8.83303 3.68259 8.97761 3.42744 9.17535C3.17229 9.37308 2.95936 9.61993 2.80121 9.90133C2.64306 10.1827 2.54289 10.493 2.50664 10.8137C2.46434 11.1861 2.50929 11.5632 2.63793 11.9151C2.76657 12.2671 2.97536 12.5844 3.24778 12.8418C3.52021 13.099 3.84878 13.2895 4.20752 13.3979C4.56626 13.5062 4.94529 13.5298 5.31464 13.4663Z" fill="url(#paint2_linear_32_14403)"/>
</g>
<g filter="url(#filter2_d_32_14403)">
<path d="M10.0893 3.03771L3.2825 9.31429C3.02608 9.55075 2.82402 9.84001 2.69026 10.1621C2.55648 10.4843 2.49418 10.8316 2.50766 11.1801C2.52113 11.5286 2.61006 11.8701 2.7683 12.1809C2.92652 12.4918 3.15031 12.7646 3.42421 12.9806C3.90077 13.3555 4.5011 13.5371 5.10557 13.4892C5.71005 13.4414 6.27431 13.1675 6.68592 12.7222L12.9717 5.92C13.1589 5.71661 13.3029 5.47729 13.3948 5.21655C13.4868 4.95581 13.5248 4.6791 13.5066 4.40322C13.4883 4.12735 13.4141 3.85807 13.2886 3.61175C13.1631 3.36541 12.9887 3.14717 12.7762 2.97029C12.3963 2.65382 11.9144 2.48619 11.4201 2.4986C10.9258 2.511 10.4529 2.7026 10.0893 3.03771Z" fill="url(#paint3_linear_32_14403)"/>
</g>
<g filter="url(#filter3_d_32_14403)">
<path d="M11.4493 12.0103L3.38186 6.21029C3.1339 6.03169 2.92906 5.79984 2.7824 5.53174C2.63572 5.26364 2.55096 4.9661 2.5343 4.66096C2.51763 4.35583 2.56951 4.05083 2.68612 3.76836C2.80272 3.48589 2.9811 3.23311 3.20815 3.02858C3.59477 2.68041 4.09952 2.49264 4.61968 2.50346C5.13986 2.51429 5.63636 2.72291 6.00815 3.08686L13.1121 10.0309C13.2365 10.1525 13.3351 10.2979 13.402 10.4584C13.469 10.619 13.503 10.7914 13.5019 10.9653C13.5009 11.1392 13.4647 11.3112 13.3959 11.4709C13.3269 11.6306 13.2265 11.7748 13.1007 11.8949C12.882 12.1035 12.5974 12.2292 12.2958 12.2503C11.9943 12.2714 11.6949 12.1865 11.4493 12.0103Z" fill="url(#paint4_linear_32_14403)"/>
</g>
<g filter="url(#filter4_d_32_14403)">
<path d="M4.57227 4.57141H11.4294V11.4286H4.57227V4.57141Z" fill="black"/>
</g>
<path d="M5.42676 10.1326H7.99818V10.5611H5.42676V10.1326Z" fill="white"/>
<path d="M6.16956 6.98056L5.17871 5.41827H5.84271L6.45756 6.4537L7.08385 5.41827H7.72842L6.73756 6.97027V7.9977H6.16956V6.98056Z" fill="white"/>
<path d="M8.8631 5.9417H8.0791V5.41827H10.2151V5.9417H9.4311V7.9977H8.8631V5.9417Z" fill="white"/>
</g>
</g>
</g>
<defs>
<filter id="filter0_i_32_14403" x="1" y="1" width="14" height="18" filterUnits="userSpaceOnUse" color-interpolation-filters="sRGB">
<feFlood flood-opacity="0" result="BackgroundImageFix"/>
<feBlend mode="normal" in="SourceGraphic" in2="BackgroundImageFix" result="shape"/>
<feColorMatrix in="SourceAlpha" type="matrix" values="0 0 0 0 0 0 0 0 0 0 0 0 0 0 0 0 0 0 127 0" result="hardAlpha"/>
<feOffset dy="4"/>
<feGaussianBlur stdDeviation="2"/>
<feComposite in2="hardAlpha" operator="arithmetic" k2="-1" k3="1"/>
<feColorMatrix type="matrix" values="0 0 0 0 0 0 0 0 0 0 0 0 0 0 0 0 0 0 0.25 0"/>
<feBlend mode="normal" in2="shape" result="effect1_innerShadow_32_14403"/>
</filter>
<filter id="filter1_d_32_14403" x="-1.50879" y="6.66904" width="19.0146" height="12.8321" filterUnits="userSpaceOnUse" color-interpolation-filters="sRGB">
<feFlood flood-opacity="0" result="BackgroundImageFix"/>
<feColorMatrix in="SourceAlpha" type="matrix" values="0 0 0 0 0 0 0 0 0 0 0 0 0 0 0 0 0 0 127 0" result="hardAlpha"/>
<feOffset dy="2"/>
<feGaussianBlur stdDeviation="2"/>
<feComposite in2="hardAlpha" operator="out"/>
<feColorMatrix type="matrix" values="0 0 0 0 0 0 0 0 0 0 0 0 0 0 0 0 0 0 0.25 0"/>
<feBlend mode="normal" in2="BackgroundImageFix" result="effect1_dropShadow_32_14403"/>
<feBlend mode="normal" in="SourceGraphic" in2="effect1_dropShadow_32_14403" result="shape"/>
</filter>
<filter id="filter2_d_32_14403" x="-1.49414" y="0.497955" width="19.0049" height="18.9988" filterUnits="userSpaceOnUse" color-interpolation-filters="sRGB">
<feFlood flood-opacity="0" result="BackgroundImageFix"/>
<feColorMatrix in="SourceAlpha" type="matrix" values="0 0 0 0 0 0 0 0 0 0 0 0 0 0 0 0 0 0 127 0" result="hardAlpha"/>
<feOffset dy="2"/>
<feGaussianBlur stdDeviation="2"/>
<feComposite in2="hardAlpha" operator="out"/>
<feColorMatrix type="matrix" values="0 0 0 0 0 0 0 0 0 0 0 0 0 0 0 0 0 0 0.25 0"/>
<feBlend mode="normal" in2="BackgroundImageFix" result="effect1_dropShadow_32_14403"/>
<feBlend mode="normal" in="SourceGraphic" in2="effect1_dropShadow_32_14403" result="shape"/>
</filter>
<filter id="filter3_d_32_14403" x="-1.46875" y="0.503021" width="18.9707" height="17.7504" filterUnits="userSpaceOnUse" color-interpolation-filters="sRGB">
<feFlood flood-opacity="0" result="BackgroundImageFix"/>
<feColorMatrix in="SourceAlpha" type="matrix" values="0 0 0 0 0 0 0 0 0 0 0 0 0 0 0 0 0 0 127 0" result="hardAlpha"/>
<feOffset dy="2"/>
<feGaussianBlur stdDeviation="2"/>
<feComposite in2="hardAlpha" operator="out"/>
<feColorMatrix type="matrix" values="0 0 0 0 0 0 0 0 0 0 0 0 0 0 0 0 0 0 0.25 0"/>
<feBlend mode="normal" in2="BackgroundImageFix" result="effect1_dropShadow_32_14403"/>
<feBlend mode="normal" in="SourceGraphic" in2="effect1_dropShadow_32_14403" result="shape"/>
</filter>
<filter id="filter4_d_32_14403" x="0.572266" y="2.57141" width="14.8574" height="14.8571" filterUnits="userSpaceOnUse" color-interpolation-filters="sRGB">
<feFlood flood-opacity="0" result="BackgroundImageFix"/>
<feColorMatrix in="SourceAlpha" type="matrix" values="0 0 0 0 0 0 0 0 0 0 0 0 0 0 0 0 0 0 127 0" result="hardAlpha"/>
<feOffset dy="2"/>
<feGaussianBlur stdDeviation="2"/>
<feComposite in2="hardAlpha" operator="out"/>
<feColorMatrix type="matrix" values="0 0 0 0 0 0 0 0 0 0 0 0 0 0 0 0 0 0 0.25 0"/>
<feBlend mode="normal" in2="BackgroundImageFix" result="effect1_dropShadow_32_14403"/>
<feBlend mode="normal" in="SourceGraphic" in2="effect1_dropShadow_32_14403" result="shape"/>
</filter>
<linearGradient id="paint0_linear_32_14403" x1="8" y1="0" x2="8" y2="16" gradientUnits="userSpaceOnUse">
<stop stop-color="#3BEA62"/>
<stop offset="0.5" stop-color="#009AE5"/>
<stop offset="1" stop-color="#6B57FF"/>
</linearGradient>
<linearGradient id="paint1_linear_32_14403" x1="14.0031" y1="14.7553" x2="2.16653" y2="5.08265" gradientUnits="userSpaceOnUse">
<stop offset="0.15" stop-color="#07C3F2"/>
<stop offset="0.53" stop-color="#6B57FF"/>
<stop offset="1" stop-color="#FF318C"/>
</linearGradient>
<linearGradient id="paint2_linear_32_14403" x1="11.4804" y1="9.90744" x2="4.93749" y2="11.1406" gradientUnits="userSpaceOnUse">
<stop stop-color="#07C3F2"/>
<stop offset="1" stop-color="#6B57FF"/>
</linearGradient>
<linearGradient id="paint3_linear_32_14403" x1="11.2562" y1="4.816" x2="4.39907" y2="11.5977" gradientUnits="userSpaceOnUse">
<stop stop-color="#07C3F2"/>
<stop offset="1" stop-color="#6B57FF"/>
</linearGradient>
<linearGradient id="paint4_linear_32_14403" x1="12.1327" y1="11.4949" x2="4.79786" y2="4.75086" gradientUnits="userSpaceOnUse">
<stop offset="0.15" stop-color="#07C3F2"/>
<stop offset="0.53" stop-color="#6B57FF"/>
<stop offset="1" stop-color="#FF318C"/>
</linearGradient>
<clipPath id="clip0_32_14403">
<rect width="16" height="16" fill="white"/>
</clipPath>
</defs>
</svg>
