<svg width="16" height="16" viewBox="0 0 16 16" fill="none" xmlns="http://www.w3.org/2000/svg">
<g clip-path="url(#clip0_32_14423)">
<path d="M12 0H4C1.79086 0 0 1.79086 0 4V12C0 14.2091 1.79086 16 4 16H12C14.2091 16 16 14.2091 16 12V4C16 1.79086 14.2091 0 12 0Z" fill="url(#paint0_linear_32_14423)"/>
<g filter="url(#filter0_i_32_14423)">
<path d="M12 1H4C2.34315 1 1 2.34315 1 4V12C1 13.6569 2.34315 15 4 15H12C13.6569 15 15 13.6569 15 12V4C15 2.34315 13.6569 1 12 1Z" fill="black" fill-opacity="0.7"/>
<g filter="url(#filter1_d_32_14423)">
<path d="M12.7909 5.59319C12.6756 5.16266 12.3373 4.82434 11.9068 4.70909C11.1273 4.5 7.99999 4.5 7.99999 4.5C7.99999 4.5 4.87274 4.5 4.09319 4.70909C3.66266 4.82434 3.32434 5.16266 3.20909 5.59319C3 6.37274 3 8.00016 3 8.00016C3 8.00016 3 9.6276 3.20909 10.4071C3.32434 10.8377 3.66266 11.176 4.09319 11.2912C4.87274 11.5003 7.99999 11.5003 7.99999 11.5003C7.99999 11.5003 11.1273 11.5003 11.9068 11.2912C12.3373 11.176 12.6756 10.8377 12.7909 10.4071C13 9.6276 13 8.00016 13 8.00016C13 8.00016 12.9991 6.37274 12.7909 5.59319Z" fill="#FF0000"/>
</g>
<path d="M6.99902 9.50012L9.59699 8.0003L6.99902 6.50046V9.50012Z" fill="white"/>
</g>
</g>
<defs>
<filter id="filter0_i_32_14423" x="1" y="1" width="14" height="18" filterUnits="userSpaceOnUse" color-interpolation-filters="sRGB">
<feFlood flood-opacity="0" result="BackgroundImageFix"/>
<feBlend mode="normal" in="SourceGraphic" in2="BackgroundImageFix" result="shape"/>
<feColorMatrix in="SourceAlpha" type="matrix" values="0 0 0 0 0 0 0 0 0 0 0 0 0 0 0 0 0 0 127 0" result="hardAlpha"/>
<feOffset dy="4"/>
<feGaussianBlur stdDeviation="2"/>
<feComposite in2="hardAlpha" operator="arithmetic" k2="-1" k3="1"/>
<feColorMatrix type="matrix" values="0 0 0 0 0 0 0 0 0 0 0 0 0 0 0 0 0 0 0.25 0"/>
<feBlend mode="normal" in2="shape" result="effect1_innerShadow_32_14423"/>
</filter>
<filter id="filter1_d_32_14423" x="-1" y="2.5" width="18" height="15.0003" filterUnits="userSpaceOnUse" color-interpolation-filters="sRGB">
<feFlood flood-opacity="0" result="BackgroundImageFix"/>
<feColorMatrix in="SourceAlpha" type="matrix" values="0 0 0 0 0 0 0 0 0 0 0 0 0 0 0 0 0 0 127 0" result="hardAlpha"/>
<feOffset dy="2"/>
<feGaussianBlur stdDeviation="2"/>
<feComposite in2="hardAlpha" operator="out"/>
<feColorMatrix type="matrix" values="0 0 0 0 0 0 0 0 0 0 0 0 0 0 0 0 0 0 0.25 0"/>
<feBlend mode="normal" in2="BackgroundImageFix" result="effect1_dropShadow_32_14423"/>
<feBlend mode="normal" in="SourceGraphic" in2="effect1_dropShadow_32_14423" result="shape"/>
</filter>
<linearGradient id="paint0_linear_32_14423" x1="8" y1="0" x2="8" y2="16" gradientUnits="userSpaceOnUse">
<stop stop-color="white"/>
<stop offset="1" stop-color="#DFDFDF"/>
</linearGradient>
<clipPath id="clip0_32_14423">
<rect width="16" height="16" fill="white"/>
</clipPath>
</defs>
</svg>
