<svg width="128" height="128" viewBox="0 0 128 128" fill="none" xmlns="http://www.w3.org/2000/svg">
<rect width="128" height="128" rx="32" fill="url(#paint0_linear_94_3115)"/>
<g filter="url(#filter0_i_94_3115)">
<rect x="8" y="8" width="112" height="112" rx="24" fill="black" fill-opacity="0.7"/>
<path fill-rule="evenodd" clip-rule="evenodd" d="M45.6167 29.7289C44.4939 28.6211 42.9801 28 41.4028 28H26C22.6863 28 20 30.6863 20 34V94C20 97.3137 22.6863 100 26 100H102C105.314 100 108 97.3137 108 94V44C108 40.6863 105.314 38 102 38H56.4616C54.8843 38 53.3705 37.3789 52.2477 36.2711L45.6167 29.7289Z" fill="#5739A8"/>
<rect x="25.9663" y="43" width="76.0678" height="43" rx="3" fill="#FAFAFA"/>
<g filter="url(#filter1_d_94_3115)">
<path d="M20 54C20 50.6863 22.6863 48 26 48H102C105.314 48 108 50.6863 108 54V94C108 97.3137 105.314 100 102 100H26C22.6863 100 20 97.3137 20 94V54Z" fill="#7962E7"/>
</g>
</g>
<defs>
<filter id="filter0_i_94_3115" x="8" y="8" width="112" height="116" filterUnits="userSpaceOnUse" color-interpolation-filters="sRGB">
<feFlood flood-opacity="0" result="BackgroundImageFix"/>
<feBlend mode="normal" in="SourceGraphic" in2="BackgroundImageFix" result="shape"/>
<feColorMatrix in="SourceAlpha" type="matrix" values="0 0 0 0 0 0 0 0 0 0 0 0 0 0 0 0 0 0 127 0" result="hardAlpha"/>
<feOffset dy="4"/>
<feGaussianBlur stdDeviation="2"/>
<feComposite in2="hardAlpha" operator="arithmetic" k2="-1" k3="1"/>
<feColorMatrix type="matrix" values="0 0 0 0 0 0 0 0 0 0 0 0 0 0 0 0 0 0 0.25 0"/>
<feBlend mode="normal" in2="shape" result="effect1_innerShadow_94_3115"/>
</filter>
<filter id="filter1_d_94_3115" x="17" y="46.5" width="94" height="58" filterUnits="userSpaceOnUse" color-interpolation-filters="sRGB">
<feFlood flood-opacity="0" result="BackgroundImageFix"/>
<feColorMatrix in="SourceAlpha" type="matrix" values="0 0 0 0 0 0 0 0 0 0 0 0 0 0 0 0 0 0 127 0" result="hardAlpha"/>
<feOffset dy="1.5"/>
<feGaussianBlur stdDeviation="1.5"/>
<feComposite in2="hardAlpha" operator="out"/>
<feColorMatrix type="matrix" values="0 0 0 0 0 0 0 0 0 0 0 0 0 0 0 0 0 0 0.25 0"/>
<feBlend mode="normal" in2="BackgroundImageFix" result="effect1_dropShadow_94_3115"/>
<feBlend mode="normal" in="SourceGraphic" in2="effect1_dropShadow_94_3115" result="shape"/>
</filter>
<linearGradient id="paint0_linear_94_3115" x1="128" y1="0" x2="0" y2="128" gradientUnits="userSpaceOnUse">
<stop stop-color="#6653C3"/>
<stop offset="1" stop-color="#5638A5"/>
</linearGradient>
</defs>
</svg>
