<svg width="128" height="128" viewBox="0 0 128 128" fill="none" xmlns="http://www.w3.org/2000/svg">
<rect width="128" height="128" rx="32" fill="url(#paint0_linear_101_585)"/>
<g filter="url(#filter0_i_101_585)">
<rect x="8" y="8" width="112" height="112" rx="24" fill="black" fill-opacity="0.7"/>
<g filter="url(#filter1_d_101_585)">
<path d="M30 36C30 27.1634 37.1634 20 46 20H82C90.8366 20 98 27.1634 98 36V92C98 100.837 90.8366 108 82 108H46C37.1634 108 30 100.837 30 92V36Z" fill="#7962E7"/>
</g>
<path d="M30 40H98V92C98 100.837 90.8366 108 82 108H46C37.1634 108 30 100.837 30 92V40Z" fill="#FAFAFA"/>
<rect x="38" y="64" width="28" height="8" rx="4" fill="#222222"/>
<rect x="38" y="48" width="52" height="8" rx="4" fill="#222222"/>
</g>
<defs>
<filter id="filter0_i_101_585" x="8" y="8" width="112" height="116" filterUnits="userSpaceOnUse" color-interpolation-filters="sRGB">
<feFlood flood-opacity="0" result="BackgroundImageFix"/>
<feBlend mode="normal" in="SourceGraphic" in2="BackgroundImageFix" result="shape"/>
<feColorMatrix in="SourceAlpha" type="matrix" values="0 0 0 0 0 0 0 0 0 0 0 0 0 0 0 0 0 0 127 0" result="hardAlpha"/>
<feOffset dy="4"/>
<feGaussianBlur stdDeviation="2"/>
<feComposite in2="hardAlpha" operator="arithmetic" k2="-1" k3="1"/>
<feColorMatrix type="matrix" values="0 0 0 0 0 0 0 0 0 0 0 0 0 0 0 0 0 0 0.25 0"/>
<feBlend mode="normal" in2="shape" result="effect1_innerShadow_101_585"/>
</filter>
<filter id="filter1_d_101_585" x="26" y="18" width="76" height="96" filterUnits="userSpaceOnUse" color-interpolation-filters="sRGB">
<feFlood flood-opacity="0" result="BackgroundImageFix"/>
<feColorMatrix in="SourceAlpha" type="matrix" values="0 0 0 0 0 0 0 0 0 0 0 0 0 0 0 0 0 0 127 0" result="hardAlpha"/>
<feOffset dy="2"/>
<feGaussianBlur stdDeviation="2"/>
<feComposite in2="hardAlpha" operator="out"/>
<feColorMatrix type="matrix" values="0 0 0 0 0 0 0 0 0 0 0 0 0 0 0 0 0 0 0.25 0"/>
<feBlend mode="normal" in2="BackgroundImageFix" result="effect1_dropShadow_101_585"/>
<feBlend mode="normal" in="SourceGraphic" in2="effect1_dropShadow_101_585" result="shape"/>
</filter>
<linearGradient id="paint0_linear_101_585" x1="128" y1="0" x2="0" y2="128" gradientUnits="userSpaceOnUse">
<stop stop-color="#6653C3"/>
<stop offset="1" stop-color="#5638A5"/>
</linearGradient>
</defs>
</svg>
