<svg width="128" height="128" viewBox="0 0 128 128" fill="none" xmlns="http://www.w3.org/2000/svg">
<rect width="128" height="128" rx="32" fill="url(#paint0_linear_165_16)"/>
<g filter="url(#filter0_i_165_16)">
<rect x="8" y="8" width="112" height="112" rx="24" fill="black" fill-opacity="0.7"/>
<g clip-path="url(#clip0_165_16)">
<path d="M28.8136 27.4501L73.08 24.1805C78.5176 23.7141 79.9144 24.0285 83.3336 26.5141L97.464 36.4685C99.7944 38.1805 100.57 38.6469 100.57 40.5109V95.1053C100.57 98.5269 99.328 100.551 94.9784 100.86L43.5736 103.973C40.3096 104.128 38.7552 103.661 37.0456 101.483L26.64 87.9517C24.7736 85.4613 24 83.5973 24 81.4181V32.8901C24 30.0925 25.2424 27.7597 28.8136 27.4501Z" fill="white"/>
<path fill-rule="evenodd" clip-rule="evenodd" d="M73.08 24.1813L28.8136 27.4509C25.2424 27.7597 24 30.0933 24 32.8901V81.4181C24 83.5965 24.7736 85.4605 26.64 87.9517L37.0456 101.482C38.7552 103.661 40.3096 104.128 43.5736 103.973L94.9792 100.861C99.3256 100.551 100.571 98.5269 100.571 95.1061V40.5117C100.571 38.7437 99.8728 38.2341 97.8168 36.7253L83.3336 26.5141C79.9152 24.0285 78.5176 23.7141 73.08 24.1805V24.1813ZM44.736 39.6181C40.5384 39.9005 39.5864 39.9645 37.2024 38.0261L31.1416 33.2053C30.5256 32.5813 30.8352 31.8029 32.3872 31.6477L74.9416 28.5381C78.5152 28.2261 80.376 29.4717 81.7736 30.5597L89.072 35.8477C89.384 36.0053 90.16 36.9357 89.2264 36.9357L45.28 39.5813L44.736 39.6181ZM39.8424 94.6397V48.2933C39.8424 46.2693 40.464 45.3357 42.3248 45.1789L92.8 42.2237C94.512 42.0693 95.2856 43.1573 95.2856 45.1781V91.2157C95.2856 93.2397 94.9736 94.9517 92.1792 95.1061L43.8776 97.9061C41.0832 98.0605 39.8432 97.1301 39.8432 94.6397H39.8424ZM87.5224 50.7781C87.832 52.1781 87.5224 53.5781 86.1224 53.7381L83.7944 54.1997V88.4181C81.7728 89.5061 79.912 90.1277 78.3568 90.1277C75.8712 90.1277 75.2504 89.3493 73.3888 87.0181L58.1648 63.0661V86.2397L62.9808 87.3301C62.9808 87.3301 62.9808 90.1301 59.0952 90.1301L48.3832 90.7517C48.0712 90.1277 48.3832 88.5733 49.4688 88.2637L52.2664 87.4877V56.8477L48.384 56.5333C48.072 55.1333 48.848 53.1117 51.024 52.9549L62.5176 52.1813L78.3576 76.4429V54.9789L74.32 54.5149C74.008 52.8005 75.2504 51.5549 76.8024 51.4029L87.5224 50.7781Z" fill="black"/>
</g>
</g>
<defs>
<filter id="filter0_i_165_16" x="8" y="8" width="112" height="116" filterUnits="userSpaceOnUse" color-interpolation-filters="sRGB">
<feFlood flood-opacity="0" result="BackgroundImageFix"/>
<feBlend mode="normal" in="SourceGraphic" in2="BackgroundImageFix" result="shape"/>
<feColorMatrix in="SourceAlpha" type="matrix" values="0 0 0 0 0 0 0 0 0 0 0 0 0 0 0 0 0 0 127 0" result="hardAlpha"/>
<feOffset dy="4"/>
<feGaussianBlur stdDeviation="2"/>
<feComposite in2="hardAlpha" operator="arithmetic" k2="-1" k3="1"/>
<feColorMatrix type="matrix" values="0 0 0 0 0 0 0 0 0 0 0 0 0 0 0 0 0 0 0.25 0"/>
<feBlend mode="normal" in2="shape" result="effect1_innerShadow_165_16"/>
</filter>
<linearGradient id="paint0_linear_165_16" x1="64" y1="0" x2="64" y2="128" gradientUnits="userSpaceOnUse">
<stop stop-color="white"/>
<stop offset="1" stop-color="#DFDFDF"/>
</linearGradient>
<clipPath id="clip0_165_16">
<rect width="80" height="80" fill="white" transform="translate(24 24)"/>
</clipPath>
</defs>
</svg>
