<svg width="18" height="18" viewBox="0 0 18 18" fill="none" xmlns="http://www.w3.org/2000/svg">
<g clip-path="url(#clip0_32_12041)">
<path d="M13.5 0H4.5C2.01472 0 0 2.01472 0 4.5V13.5C0 15.9853 2.01472 18 4.5 18H13.5C15.9853 18 18 15.9853 18 13.5V4.5C18 2.01472 15.9853 0 13.5 0Z" fill="url(#paint0_linear_32_12041)"/>
<path d="M13.5 0H4.5C2.01472 0 0 2.01472 0 4.5V13.5C0 15.9853 2.01472 18 4.5 18H13.5C15.9853 18 18 15.9853 18 13.5V4.5C18 2.01472 15.9853 0 13.5 0Z" fill="url(#paint1_linear_32_12041)"/>
<g filter="url(#filter0_i_32_12041)">
<path d="M13.5 1.125H4.5C2.63604 1.125 1.125 2.63604 1.125 4.5V13.5C1.125 15.364 2.63604 16.875 4.5 16.875H13.5C15.364 16.875 16.875 15.364 16.875 13.5V4.5C16.875 2.63604 15.364 1.125 13.5 1.125Z" fill="black" fill-opacity="0.7"/>
<mask id="mask0_32_12041" style="mask-type:luminance" maskUnits="userSpaceOnUse" x="2" y="2" width="14" height="14">
<path d="M15.75 2.25H2.25V15.75H15.75V2.25Z" fill="white"/>
</mask>
<g mask="url(#mask0_32_12041)">
<g filter="url(#filter1_d_32_12041)">
<path d="M12.2598 15.1715L15.1707 7.47513L12.8563 6.95056L12.2598 15.1715Z" fill="#087CFA"/>
</g>
<g filter="url(#filter2_d_32_12041)">
<path d="M15.1348 12.7286L12.2599 15.1715L8.15723 14.1146L15.1348 12.7286Z" fill="#087CFA"/>
</g>
<g filter="url(#filter3_d_32_12041)">
<path d="M4.36416 8.48317L3.05273 4.73147L9.60087 2.82861L4.36416 8.48317Z" fill="#07C3F2"/>
</g>
<g filter="url(#filter4_d_32_12041)">
<path d="M13.5973 9.97461L11.76 6.83875L11.7947 6.81689L9.60126 2.82861L2.82812 10.143V15.1715L15.135 12.7286L13.5973 9.97461Z" fill="url(#paint2_linear_32_12041)"/>
</g>
<g filter="url(#filter5_d_32_12041)">
<path d="M5.14258 5.14294H12.8569V12.8572H5.14258V5.14294Z" fill="black"/>
</g>
<path d="M6.10449 11.3992H8.99735V11.8813H6.10449V11.3992Z" fill="white"/>
<path d="M7.1354 6.10718H7.71397L8.94568 9.00388H8.28482L8.02768 8.36103H6.80625L6.5491 9.00388H5.90625L7.1354 6.10718ZM7.8014 7.80046L7.41568 6.86703L7.02997 7.80046H7.8014Z" fill="white"/>
<path d="M8.84398 7.56901V7.56129C8.84045 7.36118 8.87746 7.16243 8.95281 6.977C9.02816 6.79157 9.14028 6.62333 9.28241 6.4824C9.42454 6.34148 9.59372 6.2308 9.77978 6.15703C9.96583 6.08325 10.1649 6.04792 10.365 6.05316C10.5776 6.0425 10.79 6.07698 10.9884 6.15431C11.1867 6.23166 11.3664 6.3501 11.5157 6.50187L11.1068 6.97373C10.9111 6.77036 10.6433 6.65214 10.3611 6.64459C9.86998 6.64459 9.51513 7.05216 9.51513 7.55229V7.56129C9.51513 8.06144 9.86098 8.47801 10.3611 8.47801C10.6941 8.47801 10.8986 8.34944 11.1326 8.13601L11.5363 8.55001C11.3886 8.72031 11.2044 8.85503 10.9973 8.94409C10.7902 9.03315 10.5657 9.07424 10.3406 9.06429C10.1432 9.0676 9.94724 9.03119 9.76426 8.95722C9.58128 8.88327 9.41504 8.77327 9.27543 8.63377C9.13582 8.49427 9.02567 8.32814 8.95156 8.14521C8.87744 7.9623 8.84086 7.76635 8.84398 7.56901Z" fill="white"/>
</g>
</g>
</g>
<defs>
<filter id="filter0_i_32_12041" x="1.125" y="1.125" width="15.75" height="19.75" filterUnits="userSpaceOnUse" color-interpolation-filters="sRGB">
<feFlood flood-opacity="0" result="BackgroundImageFix"/>
<feBlend mode="normal" in="SourceGraphic" in2="BackgroundImageFix" result="shape"/>
<feColorMatrix in="SourceAlpha" type="matrix" values="0 0 0 0 0 0 0 0 0 0 0 0 0 0 0 0 0 0 127 0" result="hardAlpha"/>
<feOffset dy="4"/>
<feGaussianBlur stdDeviation="2"/>
<feComposite in2="hardAlpha" operator="arithmetic" k2="-1" k3="1"/>
<feColorMatrix type="matrix" values="0 0 0 0 0 0 0 0 0 0 0 0 0 0 0 0 0 0 0.25 0"/>
<feBlend mode="normal" in2="shape" result="effect1_innerShadow_32_12041"/>
</filter>
<filter id="filter1_d_32_12041" x="8.25977" y="4.95056" width="10.9111" height="16.2209" filterUnits="userSpaceOnUse" color-interpolation-filters="sRGB">
<feFlood flood-opacity="0" result="BackgroundImageFix"/>
<feColorMatrix in="SourceAlpha" type="matrix" values="0 0 0 0 0 0 0 0 0 0 0 0 0 0 0 0 0 0 127 0" result="hardAlpha"/>
<feOffset dy="2"/>
<feGaussianBlur stdDeviation="2"/>
<feComposite in2="hardAlpha" operator="out"/>
<feColorMatrix type="matrix" values="0 0 0 0 0 0 0 0 0 0 0 0 0 0 0 0 0 0 0.25 0"/>
<feBlend mode="normal" in2="BackgroundImageFix" result="effect1_dropShadow_32_12041"/>
<feBlend mode="normal" in="SourceGraphic" in2="effect1_dropShadow_32_12041" result="shape"/>
</filter>
<filter id="filter2_d_32_12041" x="4.15723" y="10.7286" width="14.9775" height="10.4429" filterUnits="userSpaceOnUse" color-interpolation-filters="sRGB">
<feFlood flood-opacity="0" result="BackgroundImageFix"/>
<feColorMatrix in="SourceAlpha" type="matrix" values="0 0 0 0 0 0 0 0 0 0 0 0 0 0 0 0 0 0 127 0" result="hardAlpha"/>
<feOffset dy="2"/>
<feGaussianBlur stdDeviation="2"/>
<feComposite in2="hardAlpha" operator="out"/>
<feColorMatrix type="matrix" values="0 0 0 0 0 0 0 0 0 0 0 0 0 0 0 0 0 0 0.25 0"/>
<feBlend mode="normal" in2="BackgroundImageFix" result="effect1_dropShadow_32_12041"/>
<feBlend mode="normal" in="SourceGraphic" in2="effect1_dropShadow_32_12041" result="shape"/>
</filter>
<filter id="filter3_d_32_12041" x="-0.947266" y="0.828613" width="14.5479" height="13.6545" filterUnits="userSpaceOnUse" color-interpolation-filters="sRGB">
<feFlood flood-opacity="0" result="BackgroundImageFix"/>
<feColorMatrix in="SourceAlpha" type="matrix" values="0 0 0 0 0 0 0 0 0 0 0 0 0 0 0 0 0 0 127 0" result="hardAlpha"/>
<feOffset dy="2"/>
<feGaussianBlur stdDeviation="2"/>
<feComposite in2="hardAlpha" operator="out"/>
<feColorMatrix type="matrix" values="0 0 0 0 0 0 0 0 0 0 0 0 0 0 0 0 0 0 0.25 0"/>
<feBlend mode="normal" in2="BackgroundImageFix" result="effect1_dropShadow_32_12041"/>
<feBlend mode="normal" in="SourceGraphic" in2="effect1_dropShadow_32_12041" result="shape"/>
</filter>
<filter id="filter4_d_32_12041" x="-1.17188" y="0.828613" width="20.3066" height="20.3429" filterUnits="userSpaceOnUse" color-interpolation-filters="sRGB">
<feFlood flood-opacity="0" result="BackgroundImageFix"/>
<feColorMatrix in="SourceAlpha" type="matrix" values="0 0 0 0 0 0 0 0 0 0 0 0 0 0 0 0 0 0 127 0" result="hardAlpha"/>
<feOffset dy="2"/>
<feGaussianBlur stdDeviation="2"/>
<feComposite in2="hardAlpha" operator="out"/>
<feColorMatrix type="matrix" values="0 0 0 0 0 0 0 0 0 0 0 0 0 0 0 0 0 0 0.25 0"/>
<feBlend mode="normal" in2="BackgroundImageFix" result="effect1_dropShadow_32_12041"/>
<feBlend mode="normal" in="SourceGraphic" in2="effect1_dropShadow_32_12041" result="shape"/>
</filter>
<filter id="filter5_d_32_12041" x="1.14258" y="3.14294" width="15.7139" height="15.7142" filterUnits="userSpaceOnUse" color-interpolation-filters="sRGB">
<feFlood flood-opacity="0" result="BackgroundImageFix"/>
<feColorMatrix in="SourceAlpha" type="matrix" values="0 0 0 0 0 0 0 0 0 0 0 0 0 0 0 0 0 0 127 0" result="hardAlpha"/>
<feOffset dy="2"/>
<feGaussianBlur stdDeviation="2"/>
<feComposite in2="hardAlpha" operator="out"/>
<feColorMatrix type="matrix" values="0 0 0 0 0 0 0 0 0 0 0 0 0 0 0 0 0 0 0.25 0"/>
<feBlend mode="normal" in2="BackgroundImageFix" result="effect1_dropShadow_32_12041"/>
<feBlend mode="normal" in="SourceGraphic" in2="effect1_dropShadow_32_12041" result="shape"/>
</filter>
<linearGradient id="paint0_linear_32_12041" x1="9" y1="0" x2="9" y2="18" gradientUnits="userSpaceOnUse">
<stop stop-color="#FCF84A"/>
<stop offset="0.244792" stop-color="#9AF156"/>
<stop offset="0.510417" stop-color="#7AE36F"/>
<stop offset="0.744792" stop-color="#21D789"/>
<stop offset="1" stop-color="#07C3F2"/>
</linearGradient>
<linearGradient id="paint1_linear_32_12041" x1="11.832" y1="18.5719" x2="2.92292" y2="6.10099" gradientUnits="userSpaceOnUse">
<stop offset="0.09" stop-color="#21D789"/>
<stop offset="0.48" stop-color="#07C3F2"/>
<stop offset="0.9" stop-color="#087CFA"/>
</linearGradient>
<linearGradient id="paint2_linear_32_12041" x1="10.9178" y1="15.5636" x2="4.80298" y2="7.02904" gradientUnits="userSpaceOnUse">
<stop offset="0.09" stop-color="#21D789"/>
<stop offset="0.48" stop-color="#07C3F2"/>
<stop offset="0.9" stop-color="#087CFA"/>
</linearGradient>
<clipPath id="clip0_32_12041">
<rect width="18" height="18" fill="white"/>
</clipPath>
</defs>
</svg>
