<svg width="18" height="18" viewBox="0 0 18 18" fill="none" xmlns="http://www.w3.org/2000/svg">
<g clip-path="url(#clip0_32_12089)">
<path d="M13.5 0H4.5C2.01472 0 0 2.01472 0 4.5V13.5C0 15.9853 2.01472 18 4.5 18H13.5C15.9853 18 18 15.9853 18 13.5V4.5C18 2.01472 15.9853 0 13.5 0Z" fill="url(#paint0_linear_32_12089)"/>
<g filter="url(#filter0_i_32_12089)">
<path d="M13.5 1.125H4.5C2.63604 1.125 1.125 2.63604 1.125 4.5V13.5C1.125 15.364 2.63604 16.875 4.5 16.875H13.5C15.364 16.875 16.875 15.364 16.875 13.5V4.5C16.875 2.63604 15.364 1.125 13.5 1.125Z" fill="black" fill-opacity="0.7"/>
<mask id="mask0_32_12089" style="mask-type:luminance" maskUnits="userSpaceOnUse" x="2" y="2" width="14" height="14">
<path d="M2.89258 2.89282H15.2354V15.2357H2.89258V2.89282Z" fill="white"/>
</mask>
<g mask="url(#mask0_32_12089)">
<g filter="url(#filter1_d_32_12089)">
<path d="M8.72617 7.32557L3.50601 6.0498L2.89258 7.50114L4.77429 13.52L9.77392 15.2355L8.72617 7.32557Z" fill="url(#paint1_linear_32_12089)"/>
</g>
<g filter="url(#filter2_d_32_12089)">
<path d="M15.2356 6.42355L13.981 3.96706L7.57926 2.89282L4.77441 13.5201L9.77405 15.2357L10.0419 14.796L15.2356 6.42355Z" fill="url(#paint2_linear_32_12089)"/>
</g>
<g filter="url(#filter3_d_32_12089)">
<path d="M12.9467 5.20715H5.23242V12.9214H12.9467V5.20715Z" fill="black"/>
</g>
<path d="M10.4054 6.14819H10.9943L12.2385 9.07212H11.5708L11.3054 8.42099H10.0777L9.81228 9.07212H9.16113L10.4054 6.14819ZM11.0772 7.85693L10.6916 6.91544L10.3058 7.85693H11.0772Z" fill="white"/>
<path d="M8.65431 9.15921L8.33496 8.87304C8.09023 9.03063 7.79578 9.12188 7.47227 9.12188C6.57643 9.12188 5.93359 8.45413 5.93359 7.62881V7.62051C5.93359 6.79517 6.58473 6.11914 7.48058 6.11914C8.37642 6.11914 9.01927 6.78688 9.01927 7.61221V7.62051C9.01927 7.92742 8.92389 8.21359 8.76214 8.45413L9.06074 8.70713L8.65431 9.15921ZM7.86214 8.45413L7.38934 8.05185L7.79578 7.59563L8.27274 8.02696C8.32252 7.91084 8.35153 7.77396 8.35153 7.62881V7.62051C8.35153 7.12282 7.98656 6.70808 7.47227 6.70808C6.95799 6.70808 6.60132 7.11454 6.60132 7.61221V7.62051C6.60132 8.11821 6.9663 8.53295 7.48058 8.53295C7.62159 8.53295 7.75016 8.50805 7.86214 8.45413Z" fill="white"/>
<path d="M8.84888 11.4749H5.95605V11.957H8.84888V11.4749Z" fill="white"/>
</g>
</g>
</g>
<defs>
<filter id="filter0_i_32_12089" x="1.125" y="1.125" width="15.75" height="19.75" filterUnits="userSpaceOnUse" color-interpolation-filters="sRGB">
<feFlood flood-opacity="0" result="BackgroundImageFix"/>
<feBlend mode="normal" in="SourceGraphic" in2="BackgroundImageFix" result="shape"/>
<feColorMatrix in="SourceAlpha" type="matrix" values="0 0 0 0 0 0 0 0 0 0 0 0 0 0 0 0 0 0 127 0" result="hardAlpha"/>
<feOffset dy="4"/>
<feGaussianBlur stdDeviation="2"/>
<feComposite in2="hardAlpha" operator="arithmetic" k2="-1" k3="1"/>
<feColorMatrix type="matrix" values="0 0 0 0 0 0 0 0 0 0 0 0 0 0 0 0 0 0 0.25 0"/>
<feBlend mode="normal" in2="shape" result="effect1_innerShadow_32_12089"/>
</filter>
<filter id="filter1_d_32_12089" x="-1.10742" y="4.0498" width="14.8809" height="17.1857" filterUnits="userSpaceOnUse" color-interpolation-filters="sRGB">
<feFlood flood-opacity="0" result="BackgroundImageFix"/>
<feColorMatrix in="SourceAlpha" type="matrix" values="0 0 0 0 0 0 0 0 0 0 0 0 0 0 0 0 0 0 127 0" result="hardAlpha"/>
<feOffset dy="2"/>
<feGaussianBlur stdDeviation="2"/>
<feComposite in2="hardAlpha" operator="out"/>
<feColorMatrix type="matrix" values="0 0 0 0 0 0 0 0 0 0 0 0 0 0 0 0 0 0 0.25 0"/>
<feBlend mode="normal" in2="BackgroundImageFix" result="effect1_dropShadow_32_12089"/>
<feBlend mode="normal" in="SourceGraphic" in2="effect1_dropShadow_32_12089" result="shape"/>
</filter>
<filter id="filter2_d_32_12089" x="0.774414" y="0.892822" width="18.4609" height="20.3429" filterUnits="userSpaceOnUse" color-interpolation-filters="sRGB">
<feFlood flood-opacity="0" result="BackgroundImageFix"/>
<feColorMatrix in="SourceAlpha" type="matrix" values="0 0 0 0 0 0 0 0 0 0 0 0 0 0 0 0 0 0 127 0" result="hardAlpha"/>
<feOffset dy="2"/>
<feGaussianBlur stdDeviation="2"/>
<feComposite in2="hardAlpha" operator="out"/>
<feColorMatrix type="matrix" values="0 0 0 0 0 0 0 0 0 0 0 0 0 0 0 0 0 0 0.25 0"/>
<feBlend mode="normal" in2="BackgroundImageFix" result="effect1_dropShadow_32_12089"/>
<feBlend mode="normal" in="SourceGraphic" in2="effect1_dropShadow_32_12089" result="shape"/>
</filter>
<filter id="filter3_d_32_12089" x="1.23242" y="3.20715" width="15.7139" height="15.7142" filterUnits="userSpaceOnUse" color-interpolation-filters="sRGB">
<feFlood flood-opacity="0" result="BackgroundImageFix"/>
<feColorMatrix in="SourceAlpha" type="matrix" values="0 0 0 0 0 0 0 0 0 0 0 0 0 0 0 0 0 0 127 0" result="hardAlpha"/>
<feOffset dy="2"/>
<feGaussianBlur stdDeviation="2"/>
<feComposite in2="hardAlpha" operator="out"/>
<feColorMatrix type="matrix" values="0 0 0 0 0 0 0 0 0 0 0 0 0 0 0 0 0 0 0.25 0"/>
<feBlend mode="normal" in2="BackgroundImageFix" result="effect1_dropShadow_32_12089"/>
<feBlend mode="normal" in="SourceGraphic" in2="effect1_dropShadow_32_12089" result="shape"/>
</filter>
<linearGradient id="paint0_linear_32_12089" x1="9" y1="0" x2="9" y2="18" gradientUnits="userSpaceOnUse">
<stop stop-color="#3BEA62"/>
<stop offset="0.510417" stop-color="#087DF7"/>
<stop offset="1" stop-color="#6B57FF"/>
</linearGradient>
<linearGradient id="paint1_linear_32_12089" x1="7.41651" y1="13.213" x2="5.79145" y2="7.3487" gradientUnits="userSpaceOnUse">
<stop stop-color="#087CFA"/>
<stop offset="1" stop-color="#6B57FF"/>
</linearGradient>
<linearGradient id="paint2_linear_32_12089" x1="5.18533" y1="14.0867" x2="11.2355" y2="5.38325" gradientUnits="userSpaceOnUse">
<stop stop-color="#087CFA"/>
<stop offset="0.387317" stop-color="#097FF6"/>
<stop offset="0.960121" stop-color="#3BEA62"/>
</linearGradient>
<clipPath id="clip0_32_12089">
<rect width="18" height="18" fill="white"/>
</clipPath>
</defs>
</svg>
