<svg width="18" height="18" viewBox="0 0 18 18" fill="none" xmlns="http://www.w3.org/2000/svg">
<g clip-path="url(#clip0_32_12106)">
<path d="M13.5 0H4.5C2.01472 0 0 2.01472 0 4.5V13.5C0 15.9853 2.01472 18 4.5 18H13.5C15.9853 18 18 15.9853 18 13.5V4.5C18 2.01472 15.9853 0 13.5 0Z" fill="url(#paint0_linear_32_12106)"/>
<g filter="url(#filter0_i_32_12106)">
<path d="M13.5 1.125H4.5C2.63604 1.125 1.125 2.63604 1.125 4.5V13.5C1.125 15.364 2.63604 16.875 4.5 16.875H13.5C15.364 16.875 16.875 15.364 16.875 13.5V4.5C16.875 2.63604 15.364 1.125 13.5 1.125Z" fill="black" fill-opacity="0.7"/>
<mask id="mask0_32_12106" style="mask-type:luminance" maskUnits="userSpaceOnUse" x="2" y="2" width="14" height="14">
<path d="M15.75 2.25H2.25V15.75H15.75V2.25Z" fill="white"/>
</mask>
<g mask="url(#mask0_32_12106)">
<g filter="url(#filter1_d_32_12106)">
<path fill-rule="evenodd" clip-rule="evenodd" d="M8.70002 6.73471C8.45802 7.34034 8.22495 8.34256 7.94344 7.18959C7.73234 6.37066 7.28124 7.70277 6.95319 7.93112C6.29156 8.43406 5.92539 9.14278 5.63154 9.90206C4.85341 9.24042 5.14527 10.3023 5.0976 10.8216C5.14001 11.6001 5.01317 12.4513 5.16022 13.1848C5.77772 13.7228 6.22439 14.5721 7.14325 14.5611C7.77178 14.7795 7.69306 13.8292 8.26299 14.6178C8.78746 15.3367 9.11136 14.9164 9.45373 14.5628C9.954 15.3285 10.1072 13.6465 10.5292 14.401C11.1815 14.6548 11.7663 14.7756 11.8733 13.9147C12.0073 13.2348 13.1762 13.221 12.9023 12.4037C12.8641 11.5556 12.9782 10.647 12.8463 9.83615C12.4035 9.49062 12.062 8.69273 11.5576 8.62326C10.9335 8.92614 11.1739 7.59075 10.9171 7.19769C10.8331 6.16558 10.612 6.63226 10.3717 7.34005C10.2387 8.359 9.67967 7.87326 9.39412 7.20638C9.14011 6.99282 8.85064 5.86445 8.70002 6.73471Z" fill="#F3E517"/>
</g>
<mask id="mask1_32_12106" style="mask-type:luminance" maskUnits="userSpaceOnUse" x="5" y="6" width="8" height="9">
<path d="M5.41406 12.1928L5.625 12.4037L5.94141 13.4584L6.04688 12.1928L6.36328 13.7748V11.7709L6.57422 12.2982L6.89062 13.7748V11.7709L7.10156 11.9818L7.41797 13.7748L7.73438 11.349L8.43213 14.0828L8.47266 12.4037L8.68359 11.7709L8.89453 14.4076L9.52734 11.7709L9.73828 13.9857L10.2656 11.6654L10.793 14.1967L10.8984 12.2982L11.2148 11.6654L11.3203 14.0912L11.8477 11.7709L12.1641 12.8256L12.2695 11.8764L12.5859 12.5092V10.5053L12.2695 11.349L12.1641 9.55606L11.9531 10.9272L11.7422 10.5053L11.6367 9.02872L11.1094 11.0326L11.0039 10.6107L10.6875 7.44668L10.3711 10.1889L10.1602 11.0326L9.73828 8.18496L9.31641 10.6107L9.10547 11.2436L9 6.88721L8.36719 11.7709L7.73438 7.34121L7.41797 11.1381L7.20703 10.7162L6.99609 8.18496L6.89062 10.7162L6.57422 11.4545L6.36328 8.92325L6.15234 10.9272L5.83594 10.3998V11.8764L5.41406 10.2943V12.1928Z" fill="white"/>
</mask>
<g mask="url(#mask1_32_12106)">
<path fill-rule="evenodd" clip-rule="evenodd" d="M5.20312 14.5131V6.81384H12.7969V14.5131H5.20312Z" fill="#FF7901"/>
<g filter="url(#filter2_d_32_12106)">
<path fill-rule="evenodd" clip-rule="evenodd" d="M5.30859 10.7162L6.15234 11.2435L6.46875 10.2943L6.99609 10.9271L7.62891 9.87244L7.83984 11.1381L8.05078 10.2943L8.36719 10.9271L8.47266 10.2943C8.47266 10.2943 8.78906 11.1381 8.78906 11.0326C8.78906 10.9271 9.21094 9.45056 9.21094 9.45056L9.63281 10.8217L10.2656 9.55603L10.582 10.9271L11.1094 9.97791L11.4258 10.9271L11.9531 10.3998L12.5859 11.0326V11.8763L12.1641 12.1927L11.5312 11.9818L11.1094 11.7709L11.0039 12.8256L10.793 11.7709L10.3711 12.7201L9.73828 11.7709L9.52734 12.7201L9.10547 12.0873L8.57812 13.4584L8.26172 11.8763L7.62891 12.1927L7.20703 11.5599L6.99609 12.6146L6.57422 12.0873L6.15234 12.6146L5.94141 12.2982L5.30859 12.4037V10.7162Z" fill="#FF0101"/>
</g>
</g>
<g filter="url(#filter3_d_32_12106)">
<path d="M9 3.00378C7.60116 3.00378 6.32545 3.44051 5.3844 4.17384C4.44334 4.90716 3.83203 5.9564 3.83203 7.12366V7.54554C2.8977 8.01894 2.25 9.26073 2.25 10.7162C2.25 12.5792 3.3099 14.0912 4.67578 14.0912V7.12366C4.67578 6.24952 5.12823 5.44502 5.90515 4.8396C6.68208 4.23418 7.77916 3.84753 9 3.84753C10.2208 3.84753 11.3179 4.23418 12.0948 4.8396C12.8718 5.44502 13.3242 6.24952 13.3242 7.12366V14.0912C14.6901 14.0912 15.75 12.5792 15.75 10.7162C15.75 9.26073 15.1023 8.01894 14.168 7.54554V7.12366C14.168 5.9564 13.5567 4.90716 12.6156 4.17384C11.6745 3.44051 10.3988 3.00378 9 3.00378ZM4.99219 7.44666V14.0912C5.20312 14.0912 5.41406 13.9857 5.51953 13.7748V7.6576C5.41406 7.55213 5.20312 7.44666 4.99219 7.44666ZM13.0078 7.44666C12.7969 7.44666 12.5859 7.55213 12.4805 7.6576V13.7748C12.5859 13.9857 12.7969 14.0912 13.0078 14.0912V7.44666Z" fill="#0077CC"/>
</g>
</g>
</g>
</g>
<defs>
<filter id="filter0_i_32_12106" x="1.125" y="1.125" width="15.75" height="19.75" filterUnits="userSpaceOnUse" color-interpolation-filters="sRGB">
<feFlood flood-opacity="0" result="BackgroundImageFix"/>
<feBlend mode="normal" in="SourceGraphic" in2="BackgroundImageFix" result="shape"/>
<feColorMatrix in="SourceAlpha" type="matrix" values="0 0 0 0 0 0 0 0 0 0 0 0 0 0 0 0 0 0 127 0" result="hardAlpha"/>
<feOffset dy="4"/>
<feGaussianBlur stdDeviation="2"/>
<feComposite in2="hardAlpha" operator="arithmetic" k2="-1" k3="1"/>
<feColorMatrix type="matrix" values="0 0 0 0 0 0 0 0 0 0 0 0 0 0 0 0 0 0 0.25 0"/>
<feBlend mode="normal" in2="shape" result="effect1_innerShadow_32_12106"/>
</filter>
<filter id="filter1_d_32_12106" x="1.08203" y="4.40955" width="15.8613" height="16.6013" filterUnits="userSpaceOnUse" color-interpolation-filters="sRGB">
<feFlood flood-opacity="0" result="BackgroundImageFix"/>
<feColorMatrix in="SourceAlpha" type="matrix" values="0 0 0 0 0 0 0 0 0 0 0 0 0 0 0 0 0 0 127 0" result="hardAlpha"/>
<feOffset dy="2"/>
<feGaussianBlur stdDeviation="2"/>
<feComposite in2="hardAlpha" operator="out"/>
<feColorMatrix type="matrix" values="0 0 0 0 0 0 0 0 0 0 0 0 0 0 0 0 0 0 0.25 0"/>
<feBlend mode="normal" in2="BackgroundImageFix" result="effect1_dropShadow_32_12106"/>
<feBlend mode="normal" in="SourceGraphic" in2="effect1_dropShadow_32_12106" result="shape"/>
</filter>
<filter id="filter2_d_32_12106" x="1.30859" y="7.45056" width="15.2773" height="12.0078" filterUnits="userSpaceOnUse" color-interpolation-filters="sRGB">
<feFlood flood-opacity="0" result="BackgroundImageFix"/>
<feColorMatrix in="SourceAlpha" type="matrix" values="0 0 0 0 0 0 0 0 0 0 0 0 0 0 0 0 0 0 127 0" result="hardAlpha"/>
<feOffset dy="2"/>
<feGaussianBlur stdDeviation="2"/>
<feComposite in2="hardAlpha" operator="out"/>
<feColorMatrix type="matrix" values="0 0 0 0 0 0 0 0 0 0 0 0 0 0 0 0 0 0 0.25 0"/>
<feBlend mode="normal" in2="BackgroundImageFix" result="effect1_dropShadow_32_12106"/>
<feBlend mode="normal" in="SourceGraphic" in2="effect1_dropShadow_32_12106" result="shape"/>
</filter>
<filter id="filter3_d_32_12106" x="-1.75" y="1.00378" width="21.5" height="19.0874" filterUnits="userSpaceOnUse" color-interpolation-filters="sRGB">
<feFlood flood-opacity="0" result="BackgroundImageFix"/>
<feColorMatrix in="SourceAlpha" type="matrix" values="0 0 0 0 0 0 0 0 0 0 0 0 0 0 0 0 0 0 127 0" result="hardAlpha"/>
<feOffset dy="2"/>
<feGaussianBlur stdDeviation="2"/>
<feComposite in2="hardAlpha" operator="out"/>
<feColorMatrix type="matrix" values="0 0 0 0 0 0 0 0 0 0 0 0 0 0 0 0 0 0 0.25 0"/>
<feBlend mode="normal" in2="BackgroundImageFix" result="effect1_dropShadow_32_12106"/>
<feBlend mode="normal" in="SourceGraphic" in2="effect1_dropShadow_32_12106" result="shape"/>
</filter>
<linearGradient id="paint0_linear_32_12106" x1="9" y1="0" x2="9" y2="18" gradientUnits="userSpaceOnUse">
<stop stop-color="#0077CC"/>
<stop offset="1" stop-color="#0044CC"/>
</linearGradient>
<clipPath id="clip0_32_12106">
<rect width="18" height="18" fill="white"/>
</clipPath>
</defs>
</svg>
