<svg width="18" height="18" viewBox="0 0 18 18" fill="none" xmlns="http://www.w3.org/2000/svg">
<g clip-path="url(#clip0_32_12125)">
<path d="M13.5 0H4.5C2.01472 0 0 2.01472 0 4.5V13.5C0 15.9853 2.01472 18 4.5 18H13.5C15.9853 18 18 15.9853 18 13.5V4.5C18 2.01472 15.9853 0 13.5 0Z" fill="url(#paint0_linear_32_12125)"/>
<g filter="url(#filter0_i_32_12125)">
<path d="M13.5 1.125H4.5C2.63604 1.125 1.125 2.63604 1.125 4.5V13.5C1.125 15.364 2.63604 16.875 4.5 16.875H13.5C15.364 16.875 16.875 15.364 16.875 13.5V4.5C16.875 2.63604 15.364 1.125 13.5 1.125Z" fill="black" fill-opacity="0.7"/>
<g filter="url(#filter1_d_32_12125)">
<path fill-rule="evenodd" clip-rule="evenodd" d="M13.4296 6.06818L13.6921 5.4219C13.6921 5.4219 13.358 5.06287 12.9524 4.65594C12.5467 4.24903 11.6877 4.48838 11.6877 4.48838L10.7093 3.375H8.99122H7.27314L6.29478 4.48838C6.29478 4.48838 5.43573 4.24903 5.03007 4.65594C4.62441 5.06287 4.29034 5.4219 4.29034 5.4219L4.55282 6.06818L4.21875 7.02562C4.21875 7.02562 5.20128 10.7586 5.31643 11.2145C5.54311 12.1121 5.69822 12.4591 6.3425 12.9139C6.98678 13.3687 8.15604 14.1585 8.34694 14.2782C8.53784 14.398 8.77646 14.6018 8.99122 14.6018C9.20599 14.6018 9.44461 14.398 9.63551 14.2782C9.82641 14.1585 10.9957 13.3687 11.64 12.9139C12.2842 12.4591 12.4393 12.1121 12.666 11.2145C12.7812 10.7586 13.7637 7.02562 13.7637 7.02562L13.4296 6.06818Z" fill="#FF5500"/>
<path fill-rule="evenodd" clip-rule="evenodd" d="M11.413 5.19447C11.413 5.19447 12.6714 6.7204 12.6714 7.04654C12.6714 7.37266 12.5131 7.45874 12.354 7.62828C12.1948 7.79782 11.4997 8.53826 11.4104 8.63334C11.3211 8.72843 11.1353 8.8726 11.2446 9.13209C11.3539 9.39159 11.5152 9.72179 11.3359 10.0567C11.1565 10.3916 10.8493 10.6152 10.6524 10.5782C10.4555 10.5412 9.99321 10.2989 9.82319 10.1882C9.65317 10.0774 9.11431 9.63166 9.11431 9.4611C9.11431 9.29055 9.67133 8.98431 9.77422 8.91473C9.87716 8.84518 10.3465 8.57587 10.3562 8.47016C10.3657 8.36444 10.3621 8.33344 10.2236 8.07225C10.0851 7.81103 9.83559 7.46247 9.87712 7.23055C9.91865 6.99866 10.321 6.87807 10.6081 6.7693C10.8951 6.66057 11.4479 6.45517 11.5169 6.42323C11.586 6.39128 11.5682 6.36085 11.359 6.34097C11.1498 6.32107 10.5562 6.24204 10.2886 6.31687C10.021 6.39169 9.56378 6.50553 9.52675 6.5659C9.48971 6.62627 9.45704 6.62829 9.49508 6.83655C9.53309 7.04478 9.72891 8.04402 9.7479 8.22152C9.76693 8.399 9.80411 8.51634 9.61332 8.56009C9.42252 8.60385 9.10135 8.67982 8.99098 8.67982C8.88062 8.67982 8.55943 8.60385 8.36866 8.56009C8.17785 8.51634 8.21503 8.399 8.23406 8.22152C8.25307 8.04402 8.44886 7.04478 8.4869 6.83655C8.52491 6.62829 8.49224 6.62627 8.45523 6.5659C8.41819 6.50553 7.96096 6.39169 7.69335 6.31687C7.42573 6.24204 6.83217 6.32107 6.62299 6.34097C6.41381 6.36085 6.39596 6.39128 6.46501 6.42323C6.53407 6.45517 7.08684 6.66057 7.37391 6.7693C7.661 6.87807 8.06334 6.99866 8.10486 7.23055C8.14638 7.46247 7.89689 7.81103 7.75841 8.07225C7.61988 8.33344 7.61621 8.36444 7.62583 8.47016C7.63542 8.57587 8.10481 8.84518 8.20773 8.91473C8.31066 8.98431 8.86764 9.29055 8.86764 9.4611C8.86764 9.63166 8.32881 10.0774 8.15879 10.1882C7.98876 10.2989 7.52643 10.5412 7.32957 10.5782C7.13271 10.6152 6.82547 10.3916 6.64613 10.0567C6.46681 9.72179 6.62806 9.39159 6.73736 9.13209C6.84666 8.8726 6.66086 8.72843 6.57156 8.63334C6.48232 8.53826 5.78715 7.79782 5.62799 7.62828C5.46883 7.45874 5.31055 7.37266 5.31055 7.04654C5.31055 6.7204 6.56896 5.19447 6.56896 5.19447C6.56896 5.19447 7.63083 5.39792 7.774 5.39792C7.91719 5.39792 8.22739 5.27825 8.51375 5.1825C8.80009 5.08676 8.99098 5.08606 8.99098 5.08606C8.99098 5.08606 9.18188 5.08676 9.46824 5.1825C9.75459 5.27825 10.0648 5.39792 10.208 5.39792C10.3512 5.39792 11.413 5.19447 11.413 5.19447ZM10.4696 11.0315C10.5475 11.0804 10.5 11.1726 10.4291 11.2229C10.3581 11.2732 9.40455 12.0139 9.312 12.0958C9.21944 12.1777 9.08345 12.3129 8.99098 12.3129C8.89852 12.3129 8.7625 12.1777 8.66997 12.0958C8.57741 12.0139 7.62386 11.2732 7.5529 11.2229C7.48192 11.1726 7.43443 11.0804 7.51233 11.0315C7.59023 10.9826 7.83395 10.8591 8.17024 10.6846C8.50649 10.51 8.92558 10.3616 8.99098 10.3616C9.05639 10.3616 9.47547 10.51 9.81176 10.6846C10.148 10.8591 10.3917 10.9826 10.4696 11.0315Z" fill="white"/>
<path d="M11.6879 4.48851L10.7095 3.37512H8.99143H7.27334L6.29498 4.48851C6.29498 4.48851 5.43593 4.24915 5.03027 4.65606C5.03027 4.65606 6.17566 4.55235 6.5694 5.19463C6.5694 5.19463 7.63127 5.39808 7.77444 5.39808C7.91761 5.39808 8.22783 5.2784 8.51417 5.18266C8.80053 5.08691 8.99143 5.08622 8.99143 5.08622C8.99143 5.08622 9.18232 5.08691 9.46868 5.18266C9.75502 5.2784 10.0652 5.39808 10.2084 5.39808C10.3516 5.39808 11.4135 5.19463 11.4135 5.19463C11.8072 4.55235 12.9526 4.65606 12.9526 4.65606C12.5469 4.24915 11.6879 4.48851 11.6879 4.48851Z" fill="#FF2000"/>
<path d="M11.6879 4.48851L10.7095 3.37512H8.99143H7.27334L6.29498 4.48851C6.29498 4.48851 5.43593 4.24915 5.03027 4.65606C5.03027 4.65606 6.17566 4.55235 6.5694 5.19463C6.5694 5.19463 7.63127 5.39808 7.77444 5.39808C7.91761 5.39808 8.22783 5.2784 8.51417 5.18266C8.80053 5.08691 8.99143 5.08622 8.99143 5.08622C8.99143 5.08622 9.18232 5.08691 9.46868 5.18266C9.75502 5.2784 10.0652 5.39808 10.2084 5.39808C10.3516 5.39808 11.4135 5.19463 11.4135 5.19463C11.8072 4.55235 12.9526 4.65606 12.9526 4.65606C12.5469 4.24915 11.6879 4.48851 11.6879 4.48851Z" fill="black" fill-opacity="0.1"/>
</g>
</g>
</g>
<defs>
<filter id="filter0_i_32_12125" x="1.125" y="1.125" width="15.75" height="19.75" filterUnits="userSpaceOnUse" color-interpolation-filters="sRGB">
<feFlood flood-opacity="0" result="BackgroundImageFix"/>
<feBlend mode="normal" in="SourceGraphic" in2="BackgroundImageFix" result="shape"/>
<feColorMatrix in="SourceAlpha" type="matrix" values="0 0 0 0 0 0 0 0 0 0 0 0 0 0 0 0 0 0 127 0" result="hardAlpha"/>
<feOffset dy="4"/>
<feGaussianBlur stdDeviation="2"/>
<feComposite in2="hardAlpha" operator="arithmetic" k2="-1" k3="1"/>
<feColorMatrix type="matrix" values="0 0 0 0 0 0 0 0 0 0 0 0 0 0 0 0 0 0 0.25 0"/>
<feBlend mode="normal" in2="shape" result="effect1_innerShadow_32_12125"/>
</filter>
<filter id="filter1_d_32_12125" x="0.21875" y="1.375" width="17.5449" height="19.2268" filterUnits="userSpaceOnUse" color-interpolation-filters="sRGB">
<feFlood flood-opacity="0" result="BackgroundImageFix"/>
<feColorMatrix in="SourceAlpha" type="matrix" values="0 0 0 0 0 0 0 0 0 0 0 0 0 0 0 0 0 0 127 0" result="hardAlpha"/>
<feOffset dy="2"/>
<feGaussianBlur stdDeviation="2"/>
<feComposite in2="hardAlpha" operator="out"/>
<feColorMatrix type="matrix" values="0 0 0 0 0 0 0 0 0 0 0 0 0 0 0 0 0 0 0.25 0"/>
<feBlend mode="normal" in2="BackgroundImageFix" result="effect1_dropShadow_32_12125"/>
<feBlend mode="normal" in="SourceGraphic" in2="effect1_dropShadow_32_12125" result="shape"/>
</filter>
<linearGradient id="paint0_linear_32_12125" x1="0" y1="912.7" x2="1800" y2="912.7" gradientUnits="userSpaceOnUse">
<stop stop-color="#FF5500"/>
<stop offset="0.409877" stop-color="#FF5500"/>
<stop offset="0.581981" stop-color="#FF2000"/>
<stop offset="1" stop-color="#FF2000"/>
</linearGradient>
<clipPath id="clip0_32_12125">
<rect width="18" height="18" fill="white"/>
</clipPath>
</defs>
</svg>
