<svg width="18" height="18" viewBox="0 0 18 18" fill="none" xmlns="http://www.w3.org/2000/svg">
<g clip-path="url(#clip0_32_12134)">
<path d="M13.5 0H4.5C2.01472 0 0 2.01472 0 4.5V13.5C0 15.9853 2.01472 18 4.5 18H13.5C15.9853 18 18 15.9853 18 13.5V4.5C18 2.01472 15.9853 0 13.5 0Z" fill="url(#paint0_radial_32_12134)"/>
<path d="M13.5 0H4.5C2.01472 0 0 2.01472 0 4.5V13.5C0 15.9853 2.01472 18 4.5 18H13.5C15.9853 18 18 15.9853 18 13.5V4.5C18 2.01472 15.9853 0 13.5 0Z" fill="url(#paint1_linear_32_12134)"/>
<g filter="url(#filter0_i_32_12134)">
<path d="M13.5 1.125H4.5C2.63604 1.125 1.125 2.63604 1.125 4.5V13.5C1.125 15.364 2.63604 16.875 4.5 16.875H13.5C15.364 16.875 16.875 15.364 16.875 13.5V4.5C16.875 2.63604 15.364 1.125 13.5 1.125Z" fill="black" fill-opacity="0.7"/>
<mask id="mask0_32_12134" style="mask-type:luminance" maskUnits="userSpaceOnUse" x="3" y="3" width="12" height="12">
<path d="M14.625 3.375H3.375V14.625H14.625V3.375Z" fill="white"/>
</mask>
<g mask="url(#mask0_32_12134)">
<g filter="url(#filter1_d_32_12134)">
<path d="M8.99986 6.18701H13.8705C13.3769 5.33187 12.6669 4.62174 11.8119 4.12804C10.9568 3.63433 9.98684 3.37446 8.99948 3.37451C8.01214 3.37458 7.04221 3.63461 6.18722 4.12843C5.33223 4.62226 4.62235 5.33249 4.12891 6.1877L6.56421 10.4058L6.56637 10.4052C6.31865 9.978 6.18791 9.49304 6.18736 8.9992C6.1868 8.50536 6.31644 8.0201 6.56322 7.59235C6.80999 7.16458 7.16518 6.80945 7.59296 6.56272C8.02075 6.31599 8.50601 6.18641 8.99986 6.18701Z" fill="url(#paint2_linear_32_12134)"/>
<path d="M11.4363 10.4057L9.00101 14.6238C9.98837 14.6239 10.9583 14.3642 11.8134 13.8705C12.6685 13.3768 13.3786 12.6668 13.8722 11.8116C14.3658 10.9565 14.6257 9.98655 14.6254 8.9992C14.6252 8.01185 14.3651 7.04194 13.8712 6.18701L9.00059 6.18703L9 6.18918C9.49383 6.18824 9.9792 6.3175 10.4072 6.56393C10.8351 6.81037 11.1905 7.16527 11.4376 7.59287C11.6846 8.02045 11.8146 8.50562 11.8144 8.99947C11.8142 9.4933 11.6838 9.97836 11.4363 10.4057Z" fill="url(#paint3_linear_32_12134)"/>
<path d="M6.5651 10.407L4.1298 6.18896C3.63601 7.04396 3.376 8.01391 3.37598 9.00125C3.37593 9.98861 3.63585 10.9586 4.12959 11.8136C4.62332 12.6686 5.33348 13.3786 6.18863 13.8721C7.04379 14.3656 8.01382 14.6253 9.00117 14.6251L11.4365 10.407L11.4349 10.4054C11.1888 10.8335 10.8342 11.1892 10.4068 11.4366C9.97938 11.684 9.4943 11.8144 9.00047 11.8146C8.50664 11.8147 8.02148 11.6847 7.59391 11.4376C7.16635 11.1905 6.81149 10.835 6.5651 10.407Z" fill="url(#paint4_linear_32_12134)"/>
<path d="M9 11.8125C10.5533 11.8125 11.8125 10.5533 11.8125 9C11.8125 7.4467 10.5533 6.1875 9 6.1875C7.4467 6.1875 6.1875 7.4467 6.1875 9C6.1875 10.5533 7.4467 11.8125 9 11.8125Z" fill="white"/>
<path d="M9.00001 11.2266C10.2297 11.2266 11.2266 10.2297 11.2266 9C11.2266 7.7703 10.2297 6.77344 9.00001 6.77344C7.77031 6.77344 6.77344 7.7703 6.77344 9C6.77344 10.2297 7.77031 11.2266 9.00001 11.2266Z" fill="#1A73E8"/>
</g>
</g>
</g>
</g>
<defs>
<filter id="filter0_i_32_12134" x="1.125" y="1.125" width="15.75" height="19.75" filterUnits="userSpaceOnUse" color-interpolation-filters="sRGB">
<feFlood flood-opacity="0" result="BackgroundImageFix"/>
<feBlend mode="normal" in="SourceGraphic" in2="BackgroundImageFix" result="shape"/>
<feColorMatrix in="SourceAlpha" type="matrix" values="0 0 0 0 0 0 0 0 0 0 0 0 0 0 0 0 0 0 127 0" result="hardAlpha"/>
<feOffset dy="4"/>
<feGaussianBlur stdDeviation="2"/>
<feComposite in2="hardAlpha" operator="arithmetic" k2="-1" k3="1"/>
<feColorMatrix type="matrix" values="0 0 0 0 0 0 0 0 0 0 0 0 0 0 0 0 0 0 0.25 0"/>
<feBlend mode="normal" in2="shape" result="effect1_innerShadow_32_12134"/>
</filter>
<filter id="filter1_d_32_12134" x="-0.624023" y="1.37451" width="19.249" height="19.2505" filterUnits="userSpaceOnUse" color-interpolation-filters="sRGB">
<feFlood flood-opacity="0" result="BackgroundImageFix"/>
<feColorMatrix in="SourceAlpha" type="matrix" values="0 0 0 0 0 0 0 0 0 0 0 0 0 0 0 0 0 0 127 0" result="hardAlpha"/>
<feOffset dy="2"/>
<feGaussianBlur stdDeviation="2"/>
<feComposite in2="hardAlpha" operator="out"/>
<feColorMatrix type="matrix" values="0 0 0 0 0 0 0 0 0 0 0 0 0 0 0 0 0 0 0.25 0"/>
<feBlend mode="normal" in2="BackgroundImageFix" result="effect1_dropShadow_32_12134"/>
<feBlend mode="normal" in="SourceGraphic" in2="effect1_dropShadow_32_12134" result="shape"/>
</filter>
<radialGradient id="paint0_radial_32_12134" cx="0" cy="0" r="1" gradientUnits="userSpaceOnUse" gradientTransform="translate(9 9) rotate(135) scale(12.7279)">
<stop offset="0.140003" stop-color="#1A73E8"/>
<stop offset="0.373259" stop-color="#DB3327"/>
<stop offset="0.638316" stop-color="#FCC72D"/>
<stop offset="0.896201" stop-color="#209140"/>
</radialGradient>
<linearGradient id="paint1_linear_32_12134" x1="18" y1="0" x2="0" y2="18" gradientUnits="userSpaceOnUse">
<stop stop-color="#1971E5"/>
<stop offset="0.536458" stop-color="#4C8CF4"/>
<stop offset="1" stop-color="#9FC2FA"/>
</linearGradient>
<linearGradient id="paint2_linear_32_12134" x1="13.2628" y1="5.83601" x2="8.39206" y2="14.2724" gradientUnits="userSpaceOnUse">
<stop stop-color="#D93025"/>
<stop offset="1" stop-color="#EA4335"/>
</linearGradient>
<linearGradient id="paint3_linear_32_12134" x1="14.1906" y1="6.8905" x2="4.44897" y2="6.89049" gradientUnits="userSpaceOnUse">
<stop stop-color="#FCC934"/>
<stop offset="1" stop-color="#FBBC04"/>
</linearGradient>
<linearGradient id="paint4_linear_32_12134" x1="9.6095" y1="14.2739" x2="4.73873" y2="5.8374" gradientUnits="userSpaceOnUse">
<stop stop-color="#1E8E3E"/>
<stop offset="1" stop-color="#34A853"/>
</linearGradient>
<clipPath id="clip0_32_12134">
<rect width="18" height="18" fill="white"/>
</clipPath>
</defs>
</svg>
