<svg width="18" height="18" viewBox="0 0 18 18" fill="none" xmlns="http://www.w3.org/2000/svg">
<g clip-path="url(#clip0_32_12148)">
<path d="M13.5 0H4.5C2.01472 0 0 2.01472 0 4.5V13.5C0 15.9853 2.01472 18 4.5 18H13.5C15.9853 18 18 15.9853 18 13.5V4.5C18 2.01472 15.9853 0 13.5 0Z" fill="url(#paint0_linear_32_12148)"/>
<g filter="url(#filter0_i_32_12148)">
<path d="M13.5 1.125H4.5C2.63604 1.125 1.125 2.63604 1.125 4.5V13.5C1.125 15.364 2.63604 16.875 4.5 16.875H13.5C15.364 16.875 16.875 15.364 16.875 13.5V4.5C16.875 2.63604 15.364 1.125 13.5 1.125Z" fill="black" fill-opacity="0.7"/>
<mask id="mask0_32_12148" style="mask-type:luminance" maskUnits="userSpaceOnUse" x="3" y="3" width="12" height="12">
<path d="M14.625 3.375H3.375V14.625H14.625V3.375Z" fill="white"/>
</mask>
<g mask="url(#mask0_32_12148)">
<g filter="url(#filter1_d_32_12148)">
<path d="M9.00006 9.00003L11.4358 10.4062L9.00006 14.625C12.1067 14.625 14.625 12.1066 14.625 9.00003C14.625 7.97515 14.3495 7.01513 13.8707 6.1875H9L9.00006 9.00003Z" fill="url(#paint1_linear_32_12148)"/>
<path d="M8.99992 3.375C6.91794 3.375 5.10155 4.50692 4.12891 6.18819L6.56417 10.4063L8.99992 9.00004V6.18751H13.8706C12.8978 4.50667 11.0816 3.375 8.99992 3.375Z" fill="url(#paint2_linear_32_12148)"/>
<path d="M3.37503 9.00008C3.37503 12.1067 5.89333 14.625 9.00001 14.625L11.4358 10.4063L9.00001 9.00008L6.56426 10.4063L4.12902 6.18823C3.65036 7.01563 3.37503 7.97538 3.37503 9.00008Z" fill="url(#paint3_linear_32_12148)"/>
<path d="M11.8126 9.00003C11.8126 10.5533 10.5533 11.8125 9.00003 11.8125C7.44673 11.8125 6.1875 10.5533 6.1875 9.00003C6.1875 7.44673 7.44673 6.1875 9.00003 6.1875C10.5533 6.1875 11.8126 7.44673 11.8126 9.00003Z" fill="white"/>
<path d="M11.2852 9.00003C11.2852 10.2621 10.2621 11.2852 9.00003 11.2852C7.73797 11.2852 6.71484 10.2621 6.71484 9.00003C6.71484 7.73797 7.73797 6.71484 9.00003 6.71484C10.2621 6.71484 11.2852 7.73797 11.2852 9.00003Z" fill="url(#paint4_linear_32_12148)"/>
</g>
</g>
</g>
</g>
<defs>
<filter id="filter0_i_32_12148" x="1.125" y="1.125" width="15.75" height="19.75" filterUnits="userSpaceOnUse" color-interpolation-filters="sRGB">
<feFlood flood-opacity="0" result="BackgroundImageFix"/>
<feBlend mode="normal" in="SourceGraphic" in2="BackgroundImageFix" result="shape"/>
<feColorMatrix in="SourceAlpha" type="matrix" values="0 0 0 0 0 0 0 0 0 0 0 0 0 0 0 0 0 0 127 0" result="hardAlpha"/>
<feOffset dy="4"/>
<feGaussianBlur stdDeviation="2"/>
<feComposite in2="hardAlpha" operator="arithmetic" k2="-1" k3="1"/>
<feColorMatrix type="matrix" values="0 0 0 0 0 0 0 0 0 0 0 0 0 0 0 0 0 0 0.25 0"/>
<feBlend mode="normal" in2="shape" result="effect1_innerShadow_32_12148"/>
</filter>
<filter id="filter1_d_32_12148" x="-0.625" y="1.375" width="19.25" height="19.2501" filterUnits="userSpaceOnUse" color-interpolation-filters="sRGB">
<feFlood flood-opacity="0" result="BackgroundImageFix"/>
<feColorMatrix in="SourceAlpha" type="matrix" values="0 0 0 0 0 0 0 0 0 0 0 0 0 0 0 0 0 0 127 0" result="hardAlpha"/>
<feOffset dy="2"/>
<feGaussianBlur stdDeviation="2"/>
<feComposite in2="hardAlpha" operator="out"/>
<feColorMatrix type="matrix" values="0 0 0 0 0 0 0 0 0 0 0 0 0 0 0 0 0 0 0.25 0"/>
<feBlend mode="normal" in2="BackgroundImageFix" result="effect1_dropShadow_32_12148"/>
<feBlend mode="normal" in="SourceGraphic" in2="effect1_dropShadow_32_12148" result="shape"/>
</filter>
<linearGradient id="paint0_linear_32_12148" x1="18" y1="0" x2="0" y2="18" gradientUnits="userSpaceOnUse">
<stop stop-color="#1971E5"/>
<stop offset="0.536458" stop-color="#4C8CF4"/>
<stop offset="1" stop-color="#9FC2FA"/>
</linearGradient>
<linearGradient id="paint1_linear_32_12148" x1="11.8245" y1="6.1759" x2="11.8125" y2="14.625" gradientUnits="userSpaceOnUse">
<stop stop-color="#AFCCFB"/>
<stop offset="1" stop-color="#8BB5F8"/>
</linearGradient>
<linearGradient id="paint2_linear_32_12148" x1="8.18415" y1="3.4607" x2="8.64909" y2="11.0197" gradientUnits="userSpaceOnUse">
<stop stop-color="#1972E7"/>
<stop offset="1" stop-color="#1969D5"/>
</linearGradient>
<linearGradient id="paint3_linear_32_12148" x1="7.40538" y1="6.18823" x2="7.40538" y2="14.625" gradientUnits="userSpaceOnUse">
<stop stop-color="#659CF6"/>
<stop offset="1" stop-color="#4285F4"/>
</linearGradient>
<linearGradient id="paint4_linear_32_12148" x1="8.97673" y1="6.72353" x2="9.00003" y2="11.2852" gradientUnits="userSpaceOnUse">
<stop stop-color="#3680F0"/>
<stop offset="1" stop-color="#2678EC"/>
</linearGradient>
<clipPath id="clip0_32_12148">
<rect width="18" height="18" fill="white"/>
</clipPath>
</defs>
</svg>
