<svg width="18" height="18" viewBox="0 0 18 18" fill="none" xmlns="http://www.w3.org/2000/svg">
<g clip-path="url(#clip0_32_12180)">
<path d="M13.5 0H4.5C2.01472 0 0 2.01472 0 4.5V13.5C0 15.9853 2.01472 18 4.5 18H13.5C15.9853 18 18 15.9853 18 13.5V4.5C18 2.01472 15.9853 0 13.5 0Z" fill="url(#paint0_linear_32_12180)"/>
<g filter="url(#filter0_i_32_12180)">
<path d="M13.5 1.125H4.5C2.63604 1.125 1.125 2.63604 1.125 4.5V13.5C1.125 15.364 2.63604 16.875 4.5 16.875H13.5C15.364 16.875 16.875 15.364 16.875 13.5V4.5C16.875 2.63604 15.364 1.125 13.5 1.125Z" fill="black" fill-opacity="0.7"/>
<mask id="mask0_32_12180" style="mask-type:luminance" maskUnits="userSpaceOnUse" x="3" y="3" width="12" height="12">
<path d="M14.625 3.375H3.375V14.625H14.625V3.375Z" fill="white"/>
</mask>
<g mask="url(#mask0_32_12180)">
<g filter="url(#filter1_d_32_12180)">
<path d="M12.9048 5.35679C12.1766 5.01607 11.3979 4.76845 10.5839 4.62744C10.4839 4.8082 10.3671 5.05133 10.2866 5.24473C9.42117 5.11458 8.56375 5.11458 7.71429 5.24473C7.63377 5.05133 7.51433 4.8082 7.41345 4.62744C6.5985 4.76845 5.81895 5.01697 5.09071 5.35859C3.62187 7.57822 3.22369 9.74272 3.42277 11.8765C4.39699 12.604 5.34113 13.046 6.26933 13.3352C6.49851 13.0197 6.7029 12.6844 6.879 12.3311C6.54363 12.2036 6.22243 12.0464 5.91893 11.8638C5.99946 11.8042 6.07822 11.7418 6.1543 11.6776C8.0054 12.5435 10.0167 12.5435 11.8457 11.6776C11.9226 11.7418 12.0014 11.8042 12.081 11.8638C11.7766 12.0473 11.4546 12.2045 11.1192 12.332C11.2953 12.6844 11.4988 13.0206 11.7289 13.336C12.658 13.0468 13.603 12.6049 14.5772 11.8765C14.8108 9.40291 14.1781 7.2583 12.9048 5.35679ZM7.13118 10.5642C6.5755 10.5642 6.11979 10.0455 6.11979 9.41375C6.11979 8.78202 6.56577 8.26237 7.13118 8.26237C7.6966 8.26237 8.1523 8.78111 8.14257 9.41375C8.14344 10.0455 7.6966 10.5642 7.13118 10.5642ZM10.8688 10.5642C10.3131 10.5642 9.85741 10.0455 9.85741 9.41375C9.85741 8.78202 10.3034 8.26237 10.8688 8.26237C11.4342 8.26237 11.8899 8.78111 11.8802 9.41375C11.8802 10.0455 11.4342 10.5642 10.8688 10.5642Z" fill="#5865F2"/>
</g>
</g>
</g>
</g>
<defs>
<filter id="filter0_i_32_12180" x="1.125" y="1.125" width="15.75" height="19.75" filterUnits="userSpaceOnUse" color-interpolation-filters="sRGB">
<feFlood flood-opacity="0" result="BackgroundImageFix"/>
<feBlend mode="normal" in="SourceGraphic" in2="BackgroundImageFix" result="shape"/>
<feColorMatrix in="SourceAlpha" type="matrix" values="0 0 0 0 0 0 0 0 0 0 0 0 0 0 0 0 0 0 127 0" result="hardAlpha"/>
<feOffset dy="4"/>
<feGaussianBlur stdDeviation="2"/>
<feComposite in2="hardAlpha" operator="arithmetic" k2="-1" k3="1"/>
<feColorMatrix type="matrix" values="0 0 0 0 0 0 0 0 0 0 0 0 0 0 0 0 0 0 0.25 0"/>
<feBlend mode="normal" in2="shape" result="effect1_innerShadow_32_12180"/>
</filter>
<filter id="filter1_d_32_12180" x="-0.625" y="2.62744" width="19.25" height="16.7086" filterUnits="userSpaceOnUse" color-interpolation-filters="sRGB">
<feFlood flood-opacity="0" result="BackgroundImageFix"/>
<feColorMatrix in="SourceAlpha" type="matrix" values="0 0 0 0 0 0 0 0 0 0 0 0 0 0 0 0 0 0 127 0" result="hardAlpha"/>
<feOffset dy="2"/>
<feGaussianBlur stdDeviation="2"/>
<feComposite in2="hardAlpha" operator="out"/>
<feColorMatrix type="matrix" values="0 0 0 0 0 0 0 0 0 0 0 0 0 0 0 0 0 0 0.25 0"/>
<feBlend mode="normal" in2="BackgroundImageFix" result="effect1_dropShadow_32_12180"/>
<feBlend mode="normal" in="SourceGraphic" in2="effect1_dropShadow_32_12180" result="shape"/>
</filter>
<linearGradient id="paint0_linear_32_12180" x1="9" y1="0" x2="9" y2="18" gradientUnits="userSpaceOnUse">
<stop stop-color="#5865F2"/>
<stop offset="1" stop-color="#424BAE"/>
</linearGradient>
<clipPath id="clip0_32_12180">
<rect width="18" height="18" fill="white"/>
</clipPath>
</defs>
</svg>
