<svg width="18" height="18" viewBox="0 0 18 18" fill="none" xmlns="http://www.w3.org/2000/svg">
<g clip-path="url(#clip0_32_12249)">
<path d="M13.5 0H4.5C2.01472 0 0 2.01472 0 4.5V13.5C0 15.9853 2.01472 18 4.5 18H13.5C15.9853 18 18 15.9853 18 13.5V4.5C18 2.01472 15.9853 0 13.5 0Z" fill="url(#paint0_linear_32_12249)"/>
<path d="M13.5 0H4.5C2.01472 0 0 2.01472 0 4.5V13.5C0 15.9853 2.01472 18 4.5 18H13.5C15.9853 18 18 15.9853 18 13.5V4.5C18 2.01472 15.9853 0 13.5 0Z" fill="url(#paint1_linear_32_12249)"/>
<g filter="url(#filter0_i_32_12249)">
<path d="M13.5 1.125H4.5C2.63604 1.125 1.125 2.63604 1.125 4.5V13.5C1.125 15.364 2.63604 16.875 4.5 16.875H13.5C15.364 16.875 16.875 15.364 16.875 13.5V4.5C16.875 2.63604 15.364 1.125 13.5 1.125Z" fill="black" fill-opacity="0.7"/>
<mask id="mask0_32_12249" style="mask-type:luminance" maskUnits="userSpaceOnUse" x="2" y="2" width="14" height="14">
<path d="M15.75 2.25H2.25V15.75H15.75V2.25Z" fill="white"/>
</mask>
<g mask="url(#mask0_32_12249)">
<g filter="url(#filter1_d_32_12249)">
<path d="M14.6966 5.65455L10.5424 2.82855L2.82812 8.30698L4.7824 15.1714L13.2141 13.4614L14.6966 5.65455Z" fill="url(#paint2_linear_32_12249)"/>
</g>
<g filter="url(#filter2_d_32_12249)">
<path d="M14.6968 5.65455L10.5427 2.82855L9.52051 5.60055V11.2513H15.1712L14.6968 5.65455Z" fill="url(#paint3_linear_32_12249)"/>
</g>
<g filter="url(#filter3_d_32_12249)">
<path d="M5.14258 5.14282H12.8569V12.8571H5.14258V5.14282Z" fill="black"/>
</g>
<path d="M6.10449 11.3991H8.99735V11.8813H6.10449V11.3991Z" fill="white"/>
<path d="M6.10645 6.0968H7.23787C8.14945 6.0968 8.78074 6.72295 8.78074 7.53938V7.54838C8.78074 8.3648 8.15074 8.99867 7.23787 8.99867H6.10645V6.0968ZM6.74931 6.6728V8.42138H7.24302C7.35896 8.42821 7.47504 8.41053 7.58368 8.3695C7.69233 8.32848 7.79112 8.26501 7.8736 8.18325C7.95609 8.1015 8.02042 8.00328 8.06241 7.895C8.1044 7.78672 8.12311 7.6708 8.1173 7.5548V7.5471C8.12319 7.43067 8.10463 7.3143 8.06278 7.20549C8.02094 7.09667 7.95678 6.99784 7.87441 6.91535C7.79203 6.83286 7.69329 6.76854 7.58454 6.72655C7.4758 6.68454 7.35946 6.6658 7.24302 6.67152L6.74931 6.6728Z" fill="white"/>
<path d="M9.97508 6.68181H9.0918V6.09296H11.4974V6.6831L10.6141 6.68181V8.99738H9.97508V6.68181Z" fill="white"/>
</g>
</g>
</g>
<defs>
<filter id="filter0_i_32_12249" x="1.125" y="1.125" width="15.75" height="19.75" filterUnits="userSpaceOnUse" color-interpolation-filters="sRGB">
<feFlood flood-opacity="0" result="BackgroundImageFix"/>
<feBlend mode="normal" in="SourceGraphic" in2="BackgroundImageFix" result="shape"/>
<feColorMatrix in="SourceAlpha" type="matrix" values="0 0 0 0 0 0 0 0 0 0 0 0 0 0 0 0 0 0 127 0" result="hardAlpha"/>
<feOffset dy="4"/>
<feGaussianBlur stdDeviation="2"/>
<feComposite in2="hardAlpha" operator="arithmetic" k2="-1" k3="1"/>
<feColorMatrix type="matrix" values="0 0 0 0 0 0 0 0 0 0 0 0 0 0 0 0 0 0 0.25 0"/>
<feBlend mode="normal" in2="shape" result="effect1_innerShadow_32_12249"/>
</filter>
<filter id="filter1_d_32_12249" x="-1.17188" y="0.828552" width="19.8682" height="20.3429" filterUnits="userSpaceOnUse" color-interpolation-filters="sRGB">
<feFlood flood-opacity="0" result="BackgroundImageFix"/>
<feColorMatrix in="SourceAlpha" type="matrix" values="0 0 0 0 0 0 0 0 0 0 0 0 0 0 0 0 0 0 127 0" result="hardAlpha"/>
<feOffset dy="2"/>
<feGaussianBlur stdDeviation="2"/>
<feComposite in2="hardAlpha" operator="out"/>
<feColorMatrix type="matrix" values="0 0 0 0 0 0 0 0 0 0 0 0 0 0 0 0 0 0 0.25 0"/>
<feBlend mode="normal" in2="BackgroundImageFix" result="effect1_dropShadow_32_12249"/>
<feBlend mode="normal" in="SourceGraphic" in2="effect1_dropShadow_32_12249" result="shape"/>
</filter>
<filter id="filter2_d_32_12249" x="5.52051" y="0.828552" width="13.6504" height="16.4227" filterUnits="userSpaceOnUse" color-interpolation-filters="sRGB">
<feFlood flood-opacity="0" result="BackgroundImageFix"/>
<feColorMatrix in="SourceAlpha" type="matrix" values="0 0 0 0 0 0 0 0 0 0 0 0 0 0 0 0 0 0 127 0" result="hardAlpha"/>
<feOffset dy="2"/>
<feGaussianBlur stdDeviation="2"/>
<feComposite in2="hardAlpha" operator="out"/>
<feColorMatrix type="matrix" values="0 0 0 0 0 0 0 0 0 0 0 0 0 0 0 0 0 0 0.25 0"/>
<feBlend mode="normal" in2="BackgroundImageFix" result="effect1_dropShadow_32_12249"/>
<feBlend mode="normal" in="SourceGraphic" in2="effect1_dropShadow_32_12249" result="shape"/>
</filter>
<filter id="filter3_d_32_12249" x="1.14258" y="3.14282" width="15.7139" height="15.7143" filterUnits="userSpaceOnUse" color-interpolation-filters="sRGB">
<feFlood flood-opacity="0" result="BackgroundImageFix"/>
<feColorMatrix in="SourceAlpha" type="matrix" values="0 0 0 0 0 0 0 0 0 0 0 0 0 0 0 0 0 0 127 0" result="hardAlpha"/>
<feOffset dy="2"/>
<feGaussianBlur stdDeviation="2"/>
<feComposite in2="hardAlpha" operator="out"/>
<feColorMatrix type="matrix" values="0 0 0 0 0 0 0 0 0 0 0 0 0 0 0 0 0 0 0.25 0"/>
<feBlend mode="normal" in2="BackgroundImageFix" result="effect1_dropShadow_32_12249"/>
<feBlend mode="normal" in="SourceGraphic" in2="effect1_dropShadow_32_12249" result="shape"/>
</filter>
<linearGradient id="paint0_linear_32_12249" x1="9" y1="0" x2="9" y2="18" gradientUnits="userSpaceOnUse">
<stop stop-color="#3BEA62"/>
<stop offset="0.510417" stop-color="#087DF7"/>
<stop offset="1" stop-color="#6B57FF"/>
</linearGradient>
<linearGradient id="paint1_linear_32_12249" x1="-0.356841" y1="11.2462" x2="17.8353" y2="6.3656" gradientUnits="userSpaceOnUse">
<stop offset="0.12" stop-color="#6B57FF"/>
<stop offset="0.54" stop-color="#FF45ED"/>
<stop offset="0.85" stop-color="#DD1265"/>
</linearGradient>
<linearGradient id="paint2_linear_32_12249" x1="2.59283" y1="10.5403" x2="14.649" y2="7.43011" gradientUnits="userSpaceOnUse">
<stop offset="0.12" stop-color="#6B57FF"/>
<stop offset="0.54" stop-color="#FF45ED"/>
<stop offset="0.85" stop-color="#DD1265"/>
</linearGradient>
<linearGradient id="paint3_linear_32_12249" x1="10.9245" y1="9.68911" x2="14.7586" y2="4.43311" gradientUnits="userSpaceOnUse">
<stop offset="0.19" stop-color="#DD1265"/>
<stop offset="0.29" stop-color="#DE146A"/>
<stop offset="0.41" stop-color="#E21977"/>
<stop offset="0.53" stop-color="#E7218E"/>
<stop offset="0.66" stop-color="#EF2DAD"/>
<stop offset="0.79" stop-color="#F93CD5"/>
<stop offset="0.85" stop-color="#FF45ED"/>
</linearGradient>
<clipPath id="clip0_32_12249">
<rect width="18" height="18" fill="white"/>
</clipPath>
</defs>
</svg>
