<svg width="18" height="18" viewBox="0 0 18 18" fill="none" xmlns="http://www.w3.org/2000/svg">
<g clip-path="url(#clip0_32_12267)">
<path d="M13.5 0H4.5C2.01472 0 0 2.01472 0 4.5V13.5C0 15.9853 2.01472 18 4.5 18H13.5C15.9853 18 18 15.9853 18 13.5V4.5C18 2.01472 15.9853 0 13.5 0Z" fill="url(#paint0_linear_32_12267)"/>
<g filter="url(#filter0_i_32_12267)">
<path d="M13.5 1.125H4.5C2.63604 1.125 1.125 2.63604 1.125 4.5V13.5C1.125 15.364 2.63604 16.875 4.5 16.875H13.5C15.364 16.875 16.875 15.364 16.875 13.5V4.5C16.875 2.63604 15.364 1.125 13.5 1.125Z" fill="black" fill-opacity="0.7"/>
<g filter="url(#filter1_d_32_12267)">
<path fill-rule="evenodd" clip-rule="evenodd" d="M7.59375 4.21875C8.15625 3.375 9.28125 3.375 9.28125 3.375C9.28125 3.375 9.33964 3.49491 9.28125 3.65625C9.77015 3.43666 10.4062 3.65625 10.4062 3.65625C10.4062 3.65625 10.3172 3.84397 10.125 3.9375C10.6096 4.11453 10.9688 4.5 10.9688 4.5C10.9688 4.5 10.8797 4.67014 10.6875 4.78125C11.1677 4.82645 11.5312 5.34375 11.5312 5.34375C11.5312 5.34375 11.4038 5.56235 11.25 5.625C11.6499 5.7975 11.8125 5.85603 11.8125 6.18749C11.8125 6.51895 10.9688 7.03124 10.9688 7.03124C10.9688 7.03124 10.4767 5.7651 10.125 5.34375C9.77334 4.9224 9.43217 4.69322 9 4.5C8.56783 4.30678 7.59375 4.21875 7.59375 4.21875Z" fill="url(#paint1_linear_32_12267)"/>
<path fill-rule="evenodd" clip-rule="evenodd" d="M9.28125 4.78125C9.28125 4.78125 9.28125 6.46874 8.4375 7.03124C7.59375 7.59374 5.90625 7.87499 4.78125 8.43749C3.65625 8.99999 3.375 9.84374 3.375 9.84374C3.375 9.84374 4.5 9.28124 5.0625 9.28124C5.625 9.28124 6.46875 9.56249 6.46875 9.56249C6.46875 9.56249 7.03125 8.99999 7.875 8.99999C8.71875 8.99999 9.5625 9.28124 9.5625 9.28124L9.84375 6.18749L9.28125 4.78125Z" fill="url(#paint2_linear_32_12267)"/>
<path fill-rule="evenodd" clip-rule="evenodd" d="M9.5625 5.625C9.5625 5.625 9.61523 6.60936 8.77148 7.17186C7.92773 7.73436 5.75619 8.08296 4.69336 8.666C3.91546 9.09276 3.375 9.84374 3.375 9.84374C3.375 9.84374 4.5 9.28124 5.0625 9.28124C5.625 9.28124 6.46875 9.56249 6.46875 9.56249C6.46875 9.56249 7.03125 8.99999 7.875 8.99999C8.71875 8.99999 9.5625 9.28124 9.5625 9.28124L9.84375 6.18749L9.5625 5.625Z" fill="url(#paint3_linear_32_12267)"/>
<path fill-rule="evenodd" clip-rule="evenodd" d="M8.71875 3.83205C8.4375 3.8672 8.4375 4.21877 8.4375 4.21877L9.28125 5.90627C9.84375 7.03127 9.5625 9.56252 7.59375 10.6875C7.59375 10.6875 7.72788 10.7532 7.94147 10.8353C7.07552 11.5449 5.78887 12.375 4.5 12.375H9.4878C9.84323 12.0044 10.1482 11.5889 10.4145 11.1775C10.4305 11.0638 10.4854 10.8106 10.6875 10.4063C10.9688 9.84377 11.25 8.71877 11.25 8.71877C11.25 8.71877 11.5312 8.71877 11.8125 9.00002C12.0474 9.23496 10.9585 10.5858 10.5771 11.0446C10.813 10.9665 11.0413 10.8545 11.25 10.6875C12.6562 9.56252 11.8839 6.68976 10.6875 5.34377C9.5625 4.07814 9 3.79689 8.71875 3.83205Z" fill="url(#paint4_linear_32_12267)"/>
<path opacity="0.2" fill-rule="evenodd" clip-rule="evenodd" d="M9 3.9375L8.57812 4.5L9.28125 5.90625C9.41026 6.16428 9.49234 6.49825 9.52239 6.8703L10.9688 5.90625L9 3.9375Z" fill="url(#paint5_linear_32_12267)"/>
<path fill-rule="evenodd" clip-rule="evenodd" d="M9.21712 10.222C8.67006 10.9047 8.69893 10.9836 7.93133 11.5593C7.92714 11.5624 7.92236 11.5654 7.91814 11.5686L8.70092 12.3393C11.5206 9.98364 9.21712 10.222 9.21712 10.222ZM7.68634 11.7356C7.36795 11.9614 7.01589 12.1836 6.6377 12.375H8.33618L7.68634 11.7356Z" fill="#2980B9"/>
<path opacity="0.2" fill-rule="evenodd" clip-rule="evenodd" d="M7.94147 10.8352C7.07552 11.5449 5.78888 12.375 4.5 12.375H9.4878C9.87233 11.974 10.2 11.5203 10.481 11.0764C10.7511 10.9985 7.72788 10.7532 7.94147 10.8352Z" fill="url(#paint6_linear_32_12267)"/>
<path d="M4.5 12.375V14.625H13.5V12.375H4.5Z" fill="url(#paint7_linear_32_12267)"/>
<path d="M4.5 12.9375V14.0625H5.90625V12.9375H4.5ZM6.1875 12.9375V14.0625H7.875V12.9375H6.1875ZM8.15625 12.9375V14.0625H9.84375V12.9375H8.15625ZM10.125 12.9375V14.0625H11.8125V12.9375H10.125ZM12.0938 12.9375V14.0625H13.5V12.9375H12.0938Z" fill="url(#paint8_linear_32_12267)"/>
<path fill-rule="evenodd" clip-rule="evenodd" d="M12.6562 4.21875C12.375 4.21875 12.375 5.06249 11.5312 5.90624C10.6875 6.74999 10.4062 6.74999 10.4062 6.74999C10.4062 6.74999 11.25 7.31249 11.25 8.43749C12.0938 8.99999 12.0938 10.125 12.0938 10.125L13.2188 7.03124L12.9375 4.78125L12.6562 4.21875Z" fill="url(#paint9_linear_32_12267)"/>
<path fill-rule="evenodd" clip-rule="evenodd" d="M12.6562 4.21875C12.375 4.21875 12.375 5.06249 11.5312 5.90624C10.6875 6.74999 10.4062 6.74999 10.4062 6.74999C10.4062 6.74999 11.25 7.31249 11.25 8.43749C11.25 9.56249 10.6875 10.4062 10.6875 10.4062L13.2188 7.03124L12.9375 4.78125L12.6562 4.21875Z" fill="url(#paint10_linear_32_12267)"/>
<path fill-rule="evenodd" clip-rule="evenodd" d="M12.656 4.21875C12.0935 8.01563 10.5993 8.26171 10.4235 9.35155C10.2444 10.4622 10.6872 10.4062 10.6872 10.4062L13.2185 7.03124L12.9372 4.78125L12.656 4.21875Z" fill="url(#paint11_linear_32_12267)"/>
<path fill-rule="evenodd" clip-rule="evenodd" d="M12.6563 4.21875C12.9375 4.21875 13.7813 5.90624 13.5 8.43749C13.2188 10.9687 11.8125 11.5312 11.8125 11.5312C11.8125 11.5312 9.84375 11.25 9.28125 11.25C8.71875 11.25 8.4375 11.5312 8.4375 11.5312C8.4375 11.5312 7.59375 10.9687 6.46875 10.9687C5.34375 10.9687 3.9375 12.0937 3.9375 12.0937C3.9375 12.0937 4.21875 10.9687 5.90625 10.4062C7.59375 9.84374 10.3497 10.3616 11.25 9.28124C14.0625 5.90624 12.375 4.21875 12.6563 4.21875Z" fill="url(#paint12_linear_32_12267)"/>
<path fill-rule="evenodd" clip-rule="evenodd" d="M8.4375 5.34374C7.84087 5.54261 7.03125 5.34374 6.75 5.62499L6.46875 5.90622C6.46875 5.90622 6.1875 5.34374 6.46875 5.06249C6.75 4.78124 7.3125 4.78124 7.59375 4.21874C7.875 3.65624 8.71875 3.65624 9 3.93749C9.5625 4.49999 9.28125 5.06249 8.4375 5.34374Z" fill="url(#paint13_linear_32_12267)"/>
<path fill-rule="evenodd" clip-rule="evenodd" d="M8.77148 7.17189C7.92773 7.73439 5.75619 8.08297 4.69336 8.66603C3.91546 9.09277 3.375 9.84377 3.375 9.84377C3.375 9.84377 4.5 9.28127 5.0625 9.28127C5.625 9.28127 6.46875 9.56252 6.46875 9.56252C6.46875 9.56252 9.61523 6.60939 8.77148 7.17189Z" fill="url(#paint14_linear_32_12267)"/>
</g>
</g>
</g>
<defs>
<filter id="filter0_i_32_12267" x="1.125" y="1.125" width="15.75" height="19.75" filterUnits="userSpaceOnUse" color-interpolation-filters="sRGB">
<feFlood flood-opacity="0" result="BackgroundImageFix"/>
<feBlend mode="normal" in="SourceGraphic" in2="BackgroundImageFix" result="shape"/>
<feColorMatrix in="SourceAlpha" type="matrix" values="0 0 0 0 0 0 0 0 0 0 0 0 0 0 0 0 0 0 127 0" result="hardAlpha"/>
<feOffset dy="4"/>
<feGaussianBlur stdDeviation="2"/>
<feComposite in2="hardAlpha" operator="arithmetic" k2="-1" k3="1"/>
<feColorMatrix type="matrix" values="0 0 0 0 0 0 0 0 0 0 0 0 0 0 0 0 0 0 0.25 0"/>
<feBlend mode="normal" in2="shape" result="effect1_innerShadow_32_12267"/>
</filter>
<filter id="filter1_d_32_12267" x="-0.625" y="1.375" width="18.1816" height="19.25" filterUnits="userSpaceOnUse" color-interpolation-filters="sRGB">
<feFlood flood-opacity="0" result="BackgroundImageFix"/>
<feColorMatrix in="SourceAlpha" type="matrix" values="0 0 0 0 0 0 0 0 0 0 0 0 0 0 0 0 0 0 127 0" result="hardAlpha"/>
<feOffset dy="2"/>
<feGaussianBlur stdDeviation="2"/>
<feComposite in2="hardAlpha" operator="out"/>
<feColorMatrix type="matrix" values="0 0 0 0 0 0 0 0 0 0 0 0 0 0 0 0 0 0 0.25 0"/>
<feBlend mode="normal" in2="BackgroundImageFix" result="effect1_dropShadow_32_12267"/>
<feBlend mode="normal" in="SourceGraphic" in2="effect1_dropShadow_32_12267" result="shape"/>
</filter>
<linearGradient id="paint0_linear_32_12267" x1="18" y1="-1203.3" x2="9" y2="-1203.3" gradientUnits="userSpaceOnUse">
<stop stop-color="#2F3943"/>
<stop offset="1" stop-color="#808C9B"/>
</linearGradient>
<linearGradient id="paint1_linear_32_12267" x1="11.3226" y1="6.27206" x2="11.25" y2="3.375" gradientUnits="userSpaceOnUse">
<stop stop-color="#197CF1"/>
<stop offset="1" stop-color="#21C9FB"/>
</linearGradient>
<linearGradient id="paint2_linear_32_12267" x1="9.60224" y1="5.97009" x2="4.37473" y2="9.0775" gradientUnits="userSpaceOnUse">
<stop stop-color="#197CF1"/>
<stop offset="1" stop-color="#21C9FB"/>
</linearGradient>
<linearGradient id="paint3_linear_32_12267" x1="8.50781" y1="7.57616" x2="9.89648" y2="8.96483" gradientUnits="userSpaceOnUse">
<stop stop-color="#18222A"/>
<stop offset="1" stop-color="#566069"/>
</linearGradient>
<linearGradient id="paint4_linear_32_12267" x1="-105.911" y1="10.4063" x2="-105.911" y2="3.09377" gradientUnits="userSpaceOnUse">
<stop stop-color="#2F3943"/>
<stop offset="1" stop-color="#808C9B"/>
</linearGradient>
<linearGradient id="paint5_linear_32_12267" x1="8.71875" y1="4.78125" x2="9.84375" y2="6.46875" gradientUnits="userSpaceOnUse">
<stop/>
<stop offset="1" stop-opacity="0"/>
</linearGradient>
<linearGradient id="paint6_linear_32_12267" x1="7.59375" y1="10.9687" x2="9.28125" y2="12.6562" gradientUnits="userSpaceOnUse">
<stop/>
<stop offset="1" stop-opacity="0"/>
</linearGradient>
<linearGradient id="paint7_linear_32_12267" x1="13.5" y1="-138.037" x2="9" y2="-138.037" gradientUnits="userSpaceOnUse">
<stop stop-color="#2F3943"/>
<stop offset="1" stop-color="#808C9B"/>
</linearGradient>
<linearGradient id="paint8_linear_32_12267" x1="13.5" y1="2.53125" x2="9" y2="2.53125" gradientUnits="userSpaceOnUse">
<stop stop-color="#197CF1"/>
<stop offset="1" stop-color="#21C9FB"/>
</linearGradient>
<linearGradient id="paint9_linear_32_12267" x1="-105.911" y1="10.4062" x2="-105.911" y2="3.09375" gradientUnits="userSpaceOnUse">
<stop stop-color="#2F3943"/>
<stop offset="1" stop-color="#808C9B"/>
</linearGradient>
<linearGradient id="paint10_linear_32_12267" x1="12.6562" y1="4.21875" x2="10.6875" y2="7.03124" gradientUnits="userSpaceOnUse">
<stop stop-color="#18222A"/>
<stop offset="1" stop-color="#18222A" stop-opacity="0"/>
</linearGradient>
<linearGradient id="paint11_linear_32_12267" x1="12.4802" y1="5.00977" x2="13.5788" y2="6.10838" gradientUnits="userSpaceOnUse">
<stop stop-color="#18222A"/>
<stop offset="1" stop-color="#18222A" stop-opacity="0"/>
</linearGradient>
<linearGradient id="paint12_linear_32_12267" x1="13.2188" y1="10.125" x2="9.84375" y2="7.73436" gradientUnits="userSpaceOnUse">
<stop stop-color="#197CF1"/>
<stop offset="1" stop-color="#21C9FB"/>
</linearGradient>
<linearGradient id="paint13_linear_32_12267" x1="-105.911" y1="5.90622" x2="-105.911" y2="2.81249" gradientUnits="userSpaceOnUse">
<stop stop-color="#2F3943"/>
<stop offset="1" stop-color="#808C9B"/>
</linearGradient>
<linearGradient id="paint14_linear_32_12267" x1="6.60937" y1="7.73438" x2="8.05957" y2="9.18457" gradientUnits="userSpaceOnUse">
<stop stop-color="#18222A"/>
<stop offset="1" stop-color="#566069"/>
</linearGradient>
<clipPath id="clip0_32_12267">
<rect width="18" height="18" fill="white"/>
</clipPath>
</defs>
</svg>
