<svg width="18" height="18" viewBox="0 0 18 18" fill="none" xmlns="http://www.w3.org/2000/svg">
<g clip-path="url(#clip0_32_12287)">
<path d="M13.5 0H4.5C2.01472 0 0 2.01472 0 4.5V13.5C0 15.9853 2.01472 18 4.5 18H13.5C15.9853 18 18 15.9853 18 13.5V4.5C18 2.01472 15.9853 0 13.5 0Z" fill="url(#paint0_linear_32_12287)"/>
<g filter="url(#filter0_i_32_12287)">
<path d="M13.5 1.125H4.5C2.63604 1.125 1.125 2.63604 1.125 4.5V13.5C1.125 15.364 2.63604 16.875 4.5 16.875H13.5C15.364 16.875 16.875 15.364 16.875 13.5V4.5C16.875 2.63604 15.364 1.125 13.5 1.125Z" fill="black" fill-opacity="0.7"/>
<g filter="url(#filter1_d_32_12287)">
<path d="M4.21874 4.5C3.71267 4.5 3.375 4.83819 3.375 5.34374V12.6562C3.375 13.1617 3.71486 13.4999 4.21874 13.4999H13.7811C14.0872 13.4999 14.6249 13.1624 14.6249 12.6562V5.34374C14.6249 4.83743 14.2861 4.5 13.7811 4.5H4.21874ZM6.46871 7.87496C6.93471 7.87496 7.31244 8.25269 7.31244 8.71869C7.31244 9.1847 6.93471 9.56243 6.46871 9.56243C6.00272 9.56243 5.62497 9.1847 5.62497 8.71869C5.62497 8.25269 6.00272 7.87496 6.46871 7.87496ZM11.5312 7.87496C11.9971 7.87496 12.3749 8.25269 12.3749 8.71869C12.3749 9.1847 11.9971 9.56243 11.5312 9.56243C11.0651 9.56243 10.6874 9.1847 10.6874 8.71869C10.6874 8.25269 11.0651 7.87496 11.5312 7.87496Z" fill="#141414"/>
<path d="M4.21875 5.91278L4.21876 10.694C4.21876 10.9751 4.50004 11.2565 4.78125 11.2565H13.2188C13.5001 11.2565 13.7812 10.9765 13.7812 10.694V5.91278C13.7812 5.6319 13.5013 5.35028 13.2188 5.35028H4.78125C4.49965 5.35028 4.21875 5.63045 4.21875 5.91278ZM6.46879 7.88154C6.93478 7.88154 7.31254 8.25931 7.31254 8.72529C7.31254 9.19128 6.93478 9.56906 6.46879 9.56906C6.00279 9.56906 5.62504 9.19128 5.62504 8.72529C5.62504 8.25931 6.00279 7.88154 6.46879 7.88154ZM11.5313 7.88154C11.9973 7.88154 12.375 8.25931 12.375 8.72529C12.375 9.19128 11.9973 9.56906 11.5313 9.56906C11.0653 9.56906 10.6875 9.19128 10.6875 8.72529C10.6875 8.25931 11.0653 7.88154 11.5313 7.88154Z" fill="#58BEB1"/>
<path d="M4.21875 13.5071L5.34372 11.5383H12.6562L13.7812 13.5071H4.21875Z" fill="#3F3F3F"/>
<path d="M6.46875 12.9428C6.7794 12.9428 7.03125 12.691 7.03125 12.3803C7.03125 12.0697 6.7794 11.8178 6.46875 11.8178C6.15808 11.8178 5.90625 12.0697 5.90625 12.3803C5.90625 12.691 6.15808 12.9428 6.46875 12.9428Z" fill="#141414"/>
<path d="M11.5312 12.9428C11.8419 12.9428 12.0938 12.691 12.0938 12.3803C12.0938 12.0697 11.8419 11.8178 11.5312 11.8178C11.2206 11.8178 10.9688 12.0697 10.9688 12.3803C10.9688 12.691 11.2206 12.9428 11.5312 12.9428Z" fill="#141414"/>
<path d="M6.46882 7.59689C5.84966 7.59689 5.34375 8.10353 5.34375 8.72109C5.34375 9.34013 5.84869 9.84606 6.46882 9.84606H11.5313C12.1487 9.84606 12.6563 9.34062 12.6563 8.72268V8.72055C12.6563 8.10263 12.1487 7.59548 11.5313 7.59558L6.46882 7.59689ZM6.46882 7.87731C6.93481 7.87731 7.31257 8.25507 7.31257 8.72106C7.31257 9.18705 6.93481 9.56481 6.46882 9.56481C6.00282 9.56481 5.62506 9.18705 5.62506 8.72106C5.62506 8.25507 6.00282 7.87731 6.46882 7.87731ZM11.5313 7.87731C11.9973 7.87731 12.3751 8.25507 12.3751 8.72106C12.3751 9.18705 11.9973 9.56481 11.5313 9.56481C11.0653 9.56481 10.6876 9.18705 10.6876 8.72106C10.6876 8.25507 11.0653 7.87731 11.5313 7.87731Z" fill="#141414"/>
<path d="M10.4062 8.16028H7.59375V9.28524H10.4062V8.16028Z" fill="#DBE2E3"/>
</g>
</g>
</g>
<defs>
<filter id="filter0_i_32_12287" x="1.125" y="1.125" width="15.75" height="19.75" filterUnits="userSpaceOnUse" color-interpolation-filters="sRGB">
<feFlood flood-opacity="0" result="BackgroundImageFix"/>
<feBlend mode="normal" in="SourceGraphic" in2="BackgroundImageFix" result="shape"/>
<feColorMatrix in="SourceAlpha" type="matrix" values="0 0 0 0 0 0 0 0 0 0 0 0 0 0 0 0 0 0 127 0" result="hardAlpha"/>
<feOffset dy="4"/>
<feGaussianBlur stdDeviation="2"/>
<feComposite in2="hardAlpha" operator="arithmetic" k2="-1" k3="1"/>
<feColorMatrix type="matrix" values="0 0 0 0 0 0 0 0 0 0 0 0 0 0 0 0 0 0 0.25 0"/>
<feBlend mode="normal" in2="shape" result="effect1_innerShadow_32_12287"/>
</filter>
<filter id="filter1_d_32_12287" x="-0.625" y="2.5" width="19.25" height="17.0071" filterUnits="userSpaceOnUse" color-interpolation-filters="sRGB">
<feFlood flood-opacity="0" result="BackgroundImageFix"/>
<feColorMatrix in="SourceAlpha" type="matrix" values="0 0 0 0 0 0 0 0 0 0 0 0 0 0 0 0 0 0 127 0" result="hardAlpha"/>
<feOffset dy="2"/>
<feGaussianBlur stdDeviation="2"/>
<feComposite in2="hardAlpha" operator="out"/>
<feColorMatrix type="matrix" values="0 0 0 0 0 0 0 0 0 0 0 0 0 0 0 0 0 0 0.25 0"/>
<feBlend mode="normal" in2="BackgroundImageFix" result="effect1_dropShadow_32_12287"/>
<feBlend mode="normal" in="SourceGraphic" in2="effect1_dropShadow_32_12287" result="shape"/>
</filter>
<linearGradient id="paint0_linear_32_12287" x1="8.94527" y1="18.0138" x2="8.94527" y2="-0.0116583" gradientUnits="userSpaceOnUse">
<stop stop-color="#2CA0B9"/>
<stop offset="1" stop-color="#87DEAA"/>
</linearGradient>
<clipPath id="clip0_32_12287">
<rect width="18" height="18" fill="white"/>
</clipPath>
</defs>
</svg>
