<svg width="18" height="18" viewBox="0 0 18 18" fill="none" xmlns="http://www.w3.org/2000/svg">
<g clip-path="url(#clip0_32_12319)">
<path d="M13.5 0H4.5C2.01472 0 0 2.01472 0 4.5V13.5C0 15.9853 2.01472 18 4.5 18H13.5C15.9853 18 18 15.9853 18 13.5V4.5C18 2.01472 15.9853 0 13.5 0Z" fill="url(#paint0_linear_32_12319)"/>
<g filter="url(#filter0_i_32_12319)">
<path d="M13.5 1.125H4.5C2.63604 1.125 1.125 2.63604 1.125 4.5V13.5C1.125 15.364 2.63604 16.875 4.5 16.875H13.5C15.364 16.875 16.875 15.364 16.875 13.5V4.5C16.875 2.63604 15.364 1.125 13.5 1.125Z" fill="black" fill-opacity="0.7"/>
<g filter="url(#filter1_d_32_12319)">
<path d="M13.9963 7.18268C13.762 6.62292 13.2867 6.01854 12.9146 5.82749C13.1799 6.33778 13.3641 6.88579 13.4606 7.45206L13.4616 7.46103C12.8519 5.95252 11.8185 5.3433 10.974 4.0185C10.9313 3.95151 10.8886 3.88438 10.847 3.8135C10.8232 3.77303 10.8042 3.73655 10.7876 3.70298C10.7526 3.63565 10.7256 3.56448 10.7072 3.49094C10.7072 3.48755 10.706 3.48426 10.7037 3.48171C10.7015 3.47916 10.6983 3.47753 10.6949 3.47713C10.6916 3.47621 10.6881 3.47621 10.6848 3.47713C10.6841 3.47713 10.683 3.47836 10.6821 3.47864C10.6813 3.47893 10.6795 3.48016 10.6783 3.48071L10.6803 3.47713C9.32595 4.26454 8.86613 5.72195 8.82439 6.45134C8.28332 6.48819 7.76599 6.68609 7.33991 7.01926C7.29548 6.98188 7.24904 6.94692 7.20079 6.91455C7.07794 6.48753 7.0727 6.03562 7.18562 5.60591C6.68823 5.84515 6.24627 6.18431 5.88772 6.60193H5.88522C5.67151 6.33297 5.68654 5.44609 5.69879 5.26083C5.63557 5.28606 5.57522 5.31786 5.51876 5.35574C5.3301 5.48943 5.15374 5.63943 4.99174 5.80401C4.80714 5.98986 4.63853 6.19072 4.48769 6.40452C4.14106 6.89239 3.89518 7.44345 3.76424 8.02619L3.757 8.06154C3.74685 8.10865 3.71025 8.34461 3.704 8.39585C3.704 8.39986 3.70317 8.40359 3.70275 8.40759C3.65554 8.6512 3.6263 8.89788 3.61523 9.14569V9.17332C3.61761 10.5131 4.12577 11.8033 5.03937 12.7893C5.95298 13.7752 7.20566 14.3853 8.55012 14.499C9.89456 14.6126 11.2331 14.2218 12.3015 13.4035C13.3699 12.5851 14.0904 11.3988 14.321 10.0787C14.33 10.0096 14.3374 9.94126 14.3455 9.8715C14.4565 8.96002 14.3362 8.03543 13.9957 7.18185L13.9963 7.18268ZM7.7815 11.374C7.80669 11.386 7.83033 11.399 7.85622 11.4104L7.85997 11.4128C7.83382 11.4003 7.80766 11.3874 7.7815 11.374ZM13.4617 7.46257V7.45745L13.4627 7.46311L13.4617 7.46257Z" fill="url(#paint1_linear_32_12319)"/>
</g>
<path d="M13.9961 7.18264C13.7618 6.62288 13.2866 6.01851 12.9144 5.82745C13.1798 6.33774 13.364 6.88575 13.4605 7.45202V7.45713L13.4615 7.4628C13.8772 8.64379 13.817 9.93861 13.2937 11.0766C12.6757 12.3933 11.1804 13.7428 8.83887 13.6765C6.30955 13.6053 4.08075 11.7411 3.66477 9.3001C3.58894 8.9151 3.66477 8.7199 3.70289 8.40701C3.65089 8.65005 3.62186 8.8974 3.61621 9.1458V9.17343C3.61859 10.5132 4.12675 11.8034 5.04035 12.7894C5.95396 13.7754 7.20663 14.3854 8.55109 14.4991C9.89555 14.6127 11.2341 14.222 12.3025 13.4036C13.3708 12.5852 14.0914 11.3989 14.3219 10.0788C14.331 10.0097 14.3384 9.94137 14.3465 9.8716C14.4575 8.96011 14.3372 8.03553 13.9967 7.18195L13.9961 7.18264Z" fill="url(#paint2_radial_32_12319)"/>
<path d="M11.3751 7.81125C11.3868 7.81941 11.3976 7.82755 11.4086 7.83571C11.2732 7.59722 11.1046 7.37889 10.9078 7.18712C9.23129 5.5225 10.4685 3.57882 10.6771 3.47936L10.6792 3.47632C9.3248 4.26373 8.86498 5.72114 8.82324 6.45054C8.88613 6.44626 8.94846 6.441 9.01273 6.441C9.49325 6.44193 9.96496 6.56918 10.3799 6.80981C10.7948 7.05043 11.1382 7.39586 11.3751 7.81097V7.81125Z" fill="#FF980E"/>
<path d="M9.01564 8.14412C9.00673 8.27729 8.53287 8.73662 8.36717 8.73662C6.83399 8.73662 6.58496 9.65761 6.58496 9.65761C6.65285 10.4331 7.19712 11.0722 7.85504 11.4093C7.8851 11.4247 7.91557 11.4387 7.94603 11.4524C7.9988 11.4756 8.05158 11.497 8.10436 11.5167C8.33016 11.5961 8.56665 11.6414 8.80598 11.6512C11.4939 11.7763 12.0142 8.46005 10.0747 7.49719C10.5322 7.43808 10.9955 7.54978 11.3748 7.81064C11.1379 7.39552 10.7945 7.05009 10.3796 6.80946C9.96466 6.56884 9.49296 6.44159 9.01243 6.44067C8.94843 6.44067 8.88583 6.44592 8.82295 6.45021C8.28188 6.48704 7.76455 6.68494 7.33847 7.01811C7.4207 7.08718 7.51349 7.17946 7.70896 7.3708C8.07487 7.72871 9.01327 8.0995 9.01536 8.14301L9.01564 8.14412Z" fill="#6B3DD7"/>
<path d="M7.08752 6.84148C7.1312 6.86911 7.16723 6.89315 7.19881 6.91483C7.07596 6.48782 7.07073 6.03591 7.18365 5.6062C6.68626 5.84543 6.24429 6.18459 5.88574 6.60222C5.91204 6.60152 6.69421 6.58757 7.08752 6.84148Z" fill="#FF7139"/>
<path d="M13.9961 7.18264C13.7618 6.62288 13.2866 6.01851 12.9144 5.82745C13.1798 6.33774 13.364 6.88575 13.4605 7.45202V7.45713L13.4615 7.4628C13.8772 8.64379 13.817 9.93861 13.2937 11.0766C12.6757 12.3933 11.1804 13.7428 8.83887 13.6765C6.30955 13.6053 4.08075 11.7411 3.66477 9.3001C3.58894 8.9151 3.66477 8.7199 3.70289 8.40701C3.65089 8.65005 3.62186 8.8974 3.61621 9.1458V9.17343C3.61859 10.5132 4.12675 11.8034 5.04035 12.7894C5.95396 13.7753 7.20663 14.3854 8.55109 14.4991C9.89555 14.6127 11.2341 14.222 12.3025 13.4036C13.3708 12.5852 14.0914 11.3989 14.3219 10.0788C14.331 10.0097 14.3384 9.94137 14.3465 9.8716C14.4575 8.96011 14.3372 8.03552 13.9967 7.18195L13.9961 7.18264Z" fill="#FF3647"/>
<path d="M13.9961 7.18264C13.7618 6.62288 13.2866 6.01851 12.9144 5.82745C13.1798 6.33774 13.364 6.88575 13.4605 7.45202V7.45713L13.4615 7.4628C13.8772 8.64379 13.817 9.93861 13.2937 11.0766C12.6757 12.3933 11.1804 13.7428 8.83887 13.6765C6.30955 13.6053 4.08075 11.7411 3.66477 9.3001C3.58894 8.9151 3.66477 8.7199 3.70289 8.40701C3.65089 8.65005 3.62186 8.8974 3.61621 9.1458V9.17343C3.61859 10.5132 4.12675 11.8034 5.04035 12.7894C5.95396 13.7753 7.20663 14.3854 8.55109 14.4991C9.89555 14.6127 11.2341 14.222 12.3025 13.4036C13.3708 12.5852 14.0914 11.3989 14.3219 10.0788C14.331 10.0097 14.3384 9.94137 14.3465 9.8716C14.4575 8.96011 14.3372 8.03552 13.9967 7.18195L13.9961 7.18264Z" fill="black" fill-opacity="0.2"/>
<path d="M13.9961 7.18264C13.7618 6.62288 13.2866 6.01851 12.9144 5.82745C13.1798 6.33774 13.364 6.88575 13.4605 7.45202V7.45713L13.4615 7.4628C13.8772 8.64379 13.817 9.93861 13.2937 11.0766C12.6757 12.3933 11.1804 13.7428 8.83887 13.6765C6.30955 13.6053 4.08075 11.7411 3.66477 9.3001C3.58894 8.9151 3.66477 8.7199 3.70289 8.40701C3.65089 8.65005 3.62186 8.8974 3.61621 9.1458V9.17343C3.61859 10.5132 4.12675 11.8034 5.04035 12.7894C5.95396 13.7753 7.20663 14.3854 8.55109 14.4991C9.89555 14.6127 11.2341 14.222 12.3025 13.4036C13.3708 12.5852 14.0914 11.3989 14.3219 10.0788C14.331 10.0097 14.3384 9.94137 14.3465 9.8716C14.4575 8.96011 14.3372 8.03552 13.9967 7.18195L13.9961 7.18264Z" fill="#FF5634"/>
<path d="M3.66386 9.3004C4.07998 11.7414 6.30863 13.6063 8.83794 13.6768C11.1794 13.7425 12.675 12.3929 13.2928 11.0769C13.8161 9.93891 13.8762 8.64409 13.4606 7.4631V7.45798C13.4606 7.45397 13.4597 7.45162 13.4606 7.45287L13.4615 7.46185C13.6528 8.70196 13.0176 9.90284 12.0244 10.7165L12.0213 10.7234C10.086 12.2886 8.23428 11.6675 7.86004 11.4141C7.83388 11.4017 7.80772 11.3888 7.78157 11.3753C6.65339 10.8399 6.18718 9.81982 6.28736 8.94399C6.01955 8.94791 5.75634 8.87463 5.52964 8.73304C5.30293 8.59144 5.12243 8.38759 5.01003 8.14621C5.3062 7.96607 5.6439 7.86422 5.99095 7.85039C6.338 7.83655 6.68282 7.9112 6.99258 8.06719C7.63107 8.35495 8.3576 8.38332 9.01686 8.14621C9.01478 8.1027 8.07637 7.73177 7.71047 7.37398C7.515 7.18266 7.4222 7.09052 7.33998 7.02131C7.29554 6.98393 7.24911 6.94899 7.20086 6.9166C7.16885 6.8949 7.13282 6.87142 7.08955 6.84324C6.69624 6.58934 5.91408 6.60329 5.88819 6.60398H5.88569C5.672 6.33502 5.68703 5.44814 5.69926 5.26288C5.63605 5.28811 5.5757 5.31992 5.51924 5.35779C5.33059 5.49148 5.15423 5.64148 4.99223 5.80606C4.80696 5.99139 4.63766 6.19179 4.48609 6.40519C4.13945 6.89306 3.89358 7.44413 3.76263 8.02685C3.75999 8.03776 3.56842 8.86939 3.66287 9.30067L3.66386 9.3004Z" fill="#FF5634"/>
<path d="M10.9072 7.18682C11.1041 7.37879 11.2727 7.59738 11.4081 7.83609C11.4377 7.85834 11.4654 7.88044 11.4889 7.90184C12.7114 9.02081 12.0708 10.6025 12.0231 10.7144C13.0162 9.90202 13.6509 8.70031 13.4603 7.45979C12.8504 5.94988 11.8158 5.34067 10.9727 4.01587C10.93 3.94888 10.8873 3.88174 10.8457 3.81087C10.8219 3.77039 10.8028 3.73393 10.7863 3.70035C10.7513 3.63302 10.7243 3.56185 10.7059 3.4883C10.7059 3.48491 10.7047 3.48163 10.7024 3.47908C10.7002 3.47653 10.697 3.4749 10.6936 3.47449C10.6903 3.47359 10.6868 3.47359 10.6835 3.47449C10.6828 3.47449 10.6817 3.47573 10.6808 3.47601C10.68 3.47629 10.6782 3.47753 10.6769 3.47808C10.4684 3.5763 9.23142 5.52122 10.9079 7.18447L10.9072 7.18682Z" fill="#FFF44F"/>
<path d="M11.4886 7.90239C11.4651 7.88098 11.4374 7.85887 11.4078 7.83664C11.3968 7.82848 11.3859 7.82033 11.3743 7.81218C10.995 7.55132 10.5316 7.43963 10.0741 7.49873C12.0135 8.46159 11.4932 11.777 8.80543 11.6527C8.56611 11.6429 8.32961 11.5976 8.10381 11.5183C8.05103 11.4987 7.99827 11.4772 7.94549 11.4539C7.91502 11.4401 7.88454 11.4263 7.85449 11.4108L7.85825 11.4132C8.23305 11.6672 10.0843 12.2879 12.0195 10.7224L12.0226 10.7155C12.0709 10.6036 12.7114 9.0219 11.4883 7.90294L11.4886 7.90239Z" fill="#FF980E"/>
<path d="M6.58496 9.65683C6.58496 9.65683 6.83385 8.73584 8.36715 8.73584C8.53287 8.73584 9.00714 8.2765 9.01563 8.14333C8.35635 8.38045 7.62983 8.35209 6.99135 8.06431C6.68158 7.90832 6.33675 7.83369 5.9897 7.84751C5.64266 7.86135 5.30497 7.96319 5.00879 8.14333C5.12119 8.38473 5.30168 8.58856 5.5284 8.73017C5.7551 8.87177 6.01831 8.94503 6.28611 8.94111C6.18621 9.81653 6.65229 10.8364 7.78032 11.3724C7.80551 11.3845 7.82916 11.3974 7.85504 11.4089C7.19655 11.0711 6.65285 10.4324 6.58496 9.65726V9.65683Z" fill="#FF980E"/>
</g>
</g>
<defs>
<filter id="filter0_i_32_12319" x="1.125" y="1.125" width="15.75" height="19.75" filterUnits="userSpaceOnUse" color-interpolation-filters="sRGB">
<feFlood flood-opacity="0" result="BackgroundImageFix"/>
<feBlend mode="normal" in="SourceGraphic" in2="BackgroundImageFix" result="shape"/>
<feColorMatrix in="SourceAlpha" type="matrix" values="0 0 0 0 0 0 0 0 0 0 0 0 0 0 0 0 0 0 127 0" result="hardAlpha"/>
<feOffset dy="4"/>
<feGaussianBlur stdDeviation="2"/>
<feComposite in2="hardAlpha" operator="arithmetic" k2="-1" k3="1"/>
<feColorMatrix type="matrix" values="0 0 0 0 0 0 0 0 0 0 0 0 0 0 0 0 0 0 0.25 0"/>
<feBlend mode="normal" in2="shape" result="effect1_innerShadow_32_12319"/>
</filter>
<filter id="filter1_d_32_12319" x="-0.384766" y="1.47644" width="18.7705" height="19.0419" filterUnits="userSpaceOnUse" color-interpolation-filters="sRGB">
<feFlood flood-opacity="0" result="BackgroundImageFix"/>
<feColorMatrix in="SourceAlpha" type="matrix" values="0 0 0 0 0 0 0 0 0 0 0 0 0 0 0 0 0 0 127 0" result="hardAlpha"/>
<feOffset dy="2"/>
<feGaussianBlur stdDeviation="2"/>
<feComposite in2="hardAlpha" operator="out"/>
<feColorMatrix type="matrix" values="0 0 0 0 0 0 0 0 0 0 0 0 0 0 0 0 0 0 0.25 0"/>
<feBlend mode="normal" in2="BackgroundImageFix" result="effect1_dropShadow_32_12319"/>
<feBlend mode="normal" in="SourceGraphic" in2="effect1_dropShadow_32_12319" result="shape"/>
</filter>
<linearGradient id="paint0_linear_32_12319" x1="18" y1="0" x2="0.593206" y2="18.5565" gradientUnits="userSpaceOnUse">
<stop offset="0.169646" stop-color="#FF8B16"/>
<stop offset="0.35725" stop-color="#FF672A"/>
<stop offset="0.597842" stop-color="#FF3647"/>
<stop offset="0.825545" stop-color="#E31587"/>
</linearGradient>
<linearGradient id="paint1_linear_32_12319" x1="13.2825" y1="5.18732" x2="4.39196" y2="13.8263" gradientUnits="userSpaceOnUse">
<stop offset="0.048" stop-color="#FFF44F"/>
<stop offset="0.111" stop-color="#FFE847"/>
<stop offset="0.225" stop-color="#FFC830"/>
<stop offset="0.368" stop-color="#FF980E"/>
<stop offset="0.401" stop-color="#FF8B16"/>
<stop offset="0.462" stop-color="#FF672A"/>
<stop offset="0.534" stop-color="#FF3647"/>
<stop offset="0.705" stop-color="#E31587"/>
</linearGradient>
<radialGradient id="paint2_radial_32_12319" cx="0" cy="0" r="1" gradientUnits="userSpaceOnUse" gradientTransform="translate(12.936 4.71954) scale(11.2414 11.162)">
<stop offset="0.129" stop-color="#FFBD4F"/>
<stop offset="0.186" stop-color="#FFAC31"/>
<stop offset="0.247" stop-color="#FF9D17"/>
<stop offset="0.283" stop-color="#FF980E"/>
<stop offset="0.403" stop-color="#FF563B"/>
<stop offset="0.467" stop-color="#FF3750"/>
<stop offset="0.71" stop-color="#F5156C"/>
<stop offset="0.782" stop-color="#EB0878"/>
<stop offset="0.86" stop-color="#E50080"/>
</radialGradient>
<clipPath id="clip0_32_12319">
<rect width="18" height="18" fill="white"/>
</clipPath>
</defs>
</svg>
