<svg width="18" height="18" viewBox="0 0 18 18" fill="none" xmlns="http://www.w3.org/2000/svg">
<g clip-path="url(#clip0_32_12394)">
<path d="M13.5 0H4.5C2.01472 0 0 2.01472 0 4.5V13.5C0 15.9853 2.01472 18 4.5 18H13.5C15.9853 18 18 15.9853 18 13.5V4.5C18 2.01472 15.9853 0 13.5 0Z" fill="url(#paint0_linear_32_12394)"/>
<g filter="url(#filter0_i_32_12394)">
<path d="M13.5 1.125H4.5C2.63604 1.125 1.125 2.63604 1.125 4.5V13.5C1.125 15.364 2.63604 16.875 4.5 16.875H13.5C15.364 16.875 16.875 15.364 16.875 13.5V4.5C16.875 2.63604 15.364 1.125 13.5 1.125Z" fill="black" fill-opacity="0.7"/>
<mask id="mask0_32_12394" style="mask-type:luminance" maskUnits="userSpaceOnUse" x="2" y="2" width="14" height="14">
<path d="M15.75 2.25H2.25V15.75H15.75V2.25Z" fill="white"/>
</mask>
<g mask="url(#mask0_32_12394)">
<g filter="url(#filter1_d_32_12394)">
<path d="M13.6997 7.60242L15.1706 10.8643L12.6531 15.1714L11.1025 11.4068L13.6997 7.60242Z" fill="url(#paint1_linear_32_12394)"/>
</g>
<g filter="url(#filter2_d_32_12394)">
<path d="M11.1032 11.4069L12.6538 15.1715L8.75293 13.8304L11.1032 11.4069Z" fill="#B74AF7"/>
</g>
<g filter="url(#filter3_d_32_12394)">
<path d="M11.5234 6.31411L10.7237 2.82855H6.28926L2.82812 8.12311L3.82968 10.5557L2.82812 12.7761L9.99598 6.67798L11.5234 6.31411Z" fill="url(#paint2_linear_32_12394)"/>
</g>
<g filter="url(#filter4_d_32_12394)">
<path d="M15.171 5.44885L9.99598 6.678L2.82812 12.7761L7.45155 15.1715L11.103 11.4069L15.171 5.44885Z" fill="url(#paint3_linear_32_12394)"/>
</g>
<g filter="url(#filter5_d_32_12394)">
<path d="M5.14258 5.14282H12.8569V12.8571H5.14258V5.14282Z" fill="black"/>
</g>
<path d="M5.86621 11.4107H8.75908V11.8929H5.86621V11.4107Z" fill="white"/>
<path d="M5.64942 7.7541V7.7451C5.64869 7.52729 5.69154 7.31153 5.77545 7.11053C5.85936 6.90952 5.98265 6.72734 6.13804 6.57471C6.29343 6.42208 6.47779 6.30207 6.68026 6.22177C6.88273 6.14146 7.09922 6.10248 7.317 6.1071C7.77498 6.08297 8.22415 6.23946 8.568 6.54297L8.127 7.07525C7.9034 6.86144 7.60445 6.74454 7.29514 6.74997C6.78085 6.74997 6.381 7.19997 6.381 7.73997V7.74897C6.381 8.3314 6.78085 8.75825 7.34528 8.75825C7.57939 8.76513 7.8097 8.6981 8.00357 8.56668V8.10897H7.299V7.50468H8.67857V8.88553C8.30147 9.2126 7.81873 9.39209 7.31957 9.39082C6.33085 9.39082 5.64942 8.69525 5.64942 7.7541Z" fill="white"/>
<path d="M8.97363 7.75413V7.74513C8.97438 7.52532 9.0192 7.3079 9.10541 7.10571C9.19163 6.90352 9.31752 6.72066 9.47561 6.56796C9.63371 6.41525 9.82083 6.29579 10.0259 6.21665C10.2309 6.13749 10.4498 6.10025 10.6695 6.10713C11.6505 6.10713 12.3551 6.8387 12.3551 7.74255V7.75155C12.3553 7.9719 12.3113 8.19005 12.2256 8.39304C12.14 8.59605 12.0144 8.77976 11.8563 8.93327C11.6982 9.08679 11.5109 9.20695 11.3055 9.28667C11.1001 9.36638 10.8807 9.40398 10.6605 9.39726C9.67821 9.39083 8.97363 8.65926 8.97363 7.75413ZM11.6235 7.75413V7.74513C11.6274 7.61608 11.6055 7.48755 11.5589 7.36713C11.5123 7.24671 11.442 7.13687 11.3522 7.04408C11.2625 6.9513 11.155 6.87747 11.0362 6.82696C10.9173 6.77643 10.7896 6.75026 10.6605 6.74998C10.5323 6.74955 10.4054 6.77501 10.2874 6.82482C10.1693 6.87463 10.0626 6.94778 9.97346 7.03988C9.88438 7.13198 9.81481 7.24111 9.76892 7.36076C9.72305 7.4804 9.70182 7.60807 9.70649 7.73613V7.74513C9.702 7.87466 9.72361 8.00378 9.77003 8.1248C9.81645 8.24582 9.88673 8.35627 9.97668 8.44959C10.0666 8.54291 10.1744 8.61717 10.2937 8.66799C10.4129 8.71882 10.5412 8.74514 10.6708 8.74541C10.7993 8.7457 10.9264 8.71995 11.0447 8.66975C11.163 8.61953 11.2698 8.5459 11.3589 8.45327C11.4479 8.36063 11.5172 8.25093 11.5627 8.13078C11.6082 8.01061 11.6289 7.88249 11.6235 7.75413Z" fill="white"/>
</g>
</g>
</g>
<defs>
<filter id="filter0_i_32_12394" x="1.125" y="1.125" width="15.75" height="19.75" filterUnits="userSpaceOnUse" color-interpolation-filters="sRGB">
<feFlood flood-opacity="0" result="BackgroundImageFix"/>
<feBlend mode="normal" in="SourceGraphic" in2="BackgroundImageFix" result="shape"/>
<feColorMatrix in="SourceAlpha" type="matrix" values="0 0 0 0 0 0 0 0 0 0 0 0 0 0 0 0 0 0 127 0" result="hardAlpha"/>
<feOffset dy="4"/>
<feGaussianBlur stdDeviation="2"/>
<feComposite in2="hardAlpha" operator="arithmetic" k2="-1" k3="1"/>
<feColorMatrix type="matrix" values="0 0 0 0 0 0 0 0 0 0 0 0 0 0 0 0 0 0 0.25 0"/>
<feBlend mode="normal" in2="shape" result="effect1_innerShadow_32_12394"/>
</filter>
<filter id="filter1_d_32_12394" x="7.10254" y="5.60242" width="12.0684" height="15.569" filterUnits="userSpaceOnUse" color-interpolation-filters="sRGB">
<feFlood flood-opacity="0" result="BackgroundImageFix"/>
<feColorMatrix in="SourceAlpha" type="matrix" values="0 0 0 0 0 0 0 0 0 0 0 0 0 0 0 0 0 0 127 0" result="hardAlpha"/>
<feOffset dy="2"/>
<feGaussianBlur stdDeviation="2"/>
<feComposite in2="hardAlpha" operator="out"/>
<feColorMatrix type="matrix" values="0 0 0 0 0 0 0 0 0 0 0 0 0 0 0 0 0 0 0.25 0"/>
<feBlend mode="normal" in2="BackgroundImageFix" result="effect1_dropShadow_32_12394"/>
<feBlend mode="normal" in="SourceGraphic" in2="effect1_dropShadow_32_12394" result="shape"/>
</filter>
<filter id="filter2_d_32_12394" x="4.75293" y="9.40686" width="11.9004" height="11.7646" filterUnits="userSpaceOnUse" color-interpolation-filters="sRGB">
<feFlood flood-opacity="0" result="BackgroundImageFix"/>
<feColorMatrix in="SourceAlpha" type="matrix" values="0 0 0 0 0 0 0 0 0 0 0 0 0 0 0 0 0 0 127 0" result="hardAlpha"/>
<feOffset dy="2"/>
<feGaussianBlur stdDeviation="2"/>
<feComposite in2="hardAlpha" operator="out"/>
<feColorMatrix type="matrix" values="0 0 0 0 0 0 0 0 0 0 0 0 0 0 0 0 0 0 0.25 0"/>
<feBlend mode="normal" in2="BackgroundImageFix" result="effect1_dropShadow_32_12394"/>
<feBlend mode="normal" in="SourceGraphic" in2="effect1_dropShadow_32_12394" result="shape"/>
</filter>
<filter id="filter3_d_32_12394" x="-1.17188" y="0.828552" width="16.6953" height="17.9476" filterUnits="userSpaceOnUse" color-interpolation-filters="sRGB">
<feFlood flood-opacity="0" result="BackgroundImageFix"/>
<feColorMatrix in="SourceAlpha" type="matrix" values="0 0 0 0 0 0 0 0 0 0 0 0 0 0 0 0 0 0 127 0" result="hardAlpha"/>
<feOffset dy="2"/>
<feGaussianBlur stdDeviation="2"/>
<feComposite in2="hardAlpha" operator="out"/>
<feColorMatrix type="matrix" values="0 0 0 0 0 0 0 0 0 0 0 0 0 0 0 0 0 0 0.25 0"/>
<feBlend mode="normal" in2="BackgroundImageFix" result="effect1_dropShadow_32_12394"/>
<feBlend mode="normal" in="SourceGraphic" in2="effect1_dropShadow_32_12394" result="shape"/>
</filter>
<filter id="filter4_d_32_12394" x="-1.17188" y="3.44885" width="20.3428" height="17.7226" filterUnits="userSpaceOnUse" color-interpolation-filters="sRGB">
<feFlood flood-opacity="0" result="BackgroundImageFix"/>
<feColorMatrix in="SourceAlpha" type="matrix" values="0 0 0 0 0 0 0 0 0 0 0 0 0 0 0 0 0 0 127 0" result="hardAlpha"/>
<feOffset dy="2"/>
<feGaussianBlur stdDeviation="2"/>
<feComposite in2="hardAlpha" operator="out"/>
<feColorMatrix type="matrix" values="0 0 0 0 0 0 0 0 0 0 0 0 0 0 0 0 0 0 0.25 0"/>
<feBlend mode="normal" in2="BackgroundImageFix" result="effect1_dropShadow_32_12394"/>
<feBlend mode="normal" in="SourceGraphic" in2="effect1_dropShadow_32_12394" result="shape"/>
</filter>
<filter id="filter5_d_32_12394" x="1.14258" y="3.14282" width="15.7139" height="15.7143" filterUnits="userSpaceOnUse" color-interpolation-filters="sRGB">
<feFlood flood-opacity="0" result="BackgroundImageFix"/>
<feColorMatrix in="SourceAlpha" type="matrix" values="0 0 0 0 0 0 0 0 0 0 0 0 0 0 0 0 0 0 127 0" result="hardAlpha"/>
<feOffset dy="2"/>
<feGaussianBlur stdDeviation="2"/>
<feComposite in2="hardAlpha" operator="out"/>
<feColorMatrix type="matrix" values="0 0 0 0 0 0 0 0 0 0 0 0 0 0 0 0 0 0 0.25 0"/>
<feBlend mode="normal" in2="BackgroundImageFix" result="effect1_dropShadow_32_12394"/>
<feBlend mode="normal" in="SourceGraphic" in2="effect1_dropShadow_32_12394" result="shape"/>
</filter>
<linearGradient id="paint0_linear_32_12394" x1="9" y1="0" x2="9" y2="18" gradientUnits="userSpaceOnUse">
<stop stop-color="#3BEA62"/>
<stop offset="0.510417" stop-color="#087CFA"/>
<stop offset="1" stop-color="#B74AF7"/>
</linearGradient>
<linearGradient id="paint1_linear_32_12394" x1="14.9816" y1="9.85884" x2="10.1614" y2="13.9384" gradientUnits="userSpaceOnUse">
<stop stop-color="#087CFA"/>
<stop offset="0.02" stop-color="#0D7BFA"/>
<stop offset="0.37" stop-color="#5566F9"/>
<stop offset="0.66" stop-color="#8A57F8"/>
<stop offset="0.88" stop-color="#AB4EF7"/>
<stop offset="1" stop-color="#B74AF7"/>
</linearGradient>
<linearGradient id="paint2_linear_32_12394" x1="7.07613" y1="6.65483" x2="10.0063" y2="3.32098" gradientUnits="userSpaceOnUse">
<stop stop-color="#087CFA"/>
<stop offset="0.02" stop-color="#0D7BFA"/>
<stop offset="0.37" stop-color="#5566F9"/>
<stop offset="0.66" stop-color="#8A57F8"/>
<stop offset="0.88" stop-color="#AB4EF7"/>
<stop offset="1" stop-color="#B74AF7"/>
</linearGradient>
<linearGradient id="paint3_linear_32_12394" x1="4.54326" y1="13.6106" x2="13.4468" y2="7.88915" gradientUnits="userSpaceOnUse">
<stop stop-color="#087CFA"/>
<stop offset="0.1" stop-color="#1598D3"/>
<stop offset="0.22" stop-color="#23B6AA"/>
<stop offset="0.35" stop-color="#2DCC8B"/>
<stop offset="0.46" stop-color="#35DD74"/>
<stop offset="0.57" stop-color="#39E767"/>
<stop offset="0.67" stop-color="#3BEA62"/>
</linearGradient>
<clipPath id="clip0_32_12394">
<rect width="18" height="18" fill="white"/>
</clipPath>
</defs>
</svg>
