<svg width="18" height="18" viewBox="0 0 18 18" fill="none" xmlns="http://www.w3.org/2000/svg">
<g clip-path="url(#clip0_32_12415)">
<path d="M13.5 0H4.5C2.01472 0 0 2.01472 0 4.5V13.5C0 15.9853 2.01472 18 4.5 18H13.5C15.9853 18 18 15.9853 18 13.5V4.5C18 2.01472 15.9853 0 13.5 0Z" fill="#FF0045"/>
<path d="M13.5 0H4.5C2.01472 0 0 2.01472 0 4.5V13.5C0 15.9853 2.01472 18 4.5 18H13.5C15.9853 18 18 15.9853 18 13.5V4.5C18 2.01472 15.9853 0 13.5 0Z" fill="url(#paint0_radial_32_12415)"/>
<path d="M13.5 0H4.5C2.01472 0 0 2.01472 0 4.5V13.5C0 15.9853 2.01472 18 4.5 18H13.5C15.9853 18 18 15.9853 18 13.5V4.5C18 2.01472 15.9853 0 13.5 0Z" fill="url(#paint1_radial_32_12415)"/>
<g filter="url(#filter0_i_32_12415)">
<path d="M13.5 1.125H4.5C2.63604 1.125 1.125 2.63604 1.125 4.5V13.5C1.125 15.364 2.63604 16.875 4.5 16.875H13.5C15.364 16.875 16.875 15.364 16.875 13.5V4.5C16.875 2.63604 15.364 1.125 13.5 1.125Z" fill="black" fill-opacity="0.7"/>
<mask id="mask0_32_12415" style="mask-type:luminance" maskUnits="userSpaceOnUse" x="3" y="3" width="12" height="12">
<path d="M14.625 3.375H3.375V14.625H14.625V3.375Z" fill="white"/>
</mask>
<g mask="url(#mask0_32_12415)">
<g filter="url(#filter1_d_32_12415)">
<path d="M9 4.38891C10.5019 4.38891 10.68 4.39453 11.2734 4.42171C12.7978 4.4911 13.5098 5.21437 13.5792 6.7275C13.6064 7.32047 13.6116 7.49859 13.6116 9.00046C13.6116 10.5028 13.6059 10.6805 13.5792 11.2734C13.5094 12.7852 12.7992 13.5098 11.2734 13.5792C10.68 13.6064 10.5028 13.612 9 13.612C7.49812 13.612 7.32 13.6064 6.72704 13.5792C5.19891 13.5094 4.49062 12.7828 4.42125 11.273C4.39407 10.68 4.38844 10.5023 4.38844 9C4.38844 7.49812 4.39453 7.32047 4.42125 6.72704C4.4911 5.21438 5.20125 4.49062 6.72704 4.42125C7.32047 4.39453 7.49812 4.38891 9 4.38891ZM9 3.375C7.47235 3.375 7.2811 3.38157 6.68109 3.40875C4.63828 3.5025 3.50297 4.63594 3.40921 6.68063C3.38157 7.2811 3.375 7.47235 3.375 9C3.375 10.5277 3.38157 10.7194 3.40875 11.3194C3.5025 13.3622 4.63594 14.4975 6.68063 14.5913C7.2811 14.6184 7.47235 14.625 9 14.625C10.5277 14.625 10.7194 14.6184 11.3194 14.5913C13.3603 14.4975 14.4984 13.3641 14.5908 11.3194C14.6184 10.7194 14.625 10.5277 14.625 9C14.625 7.47235 14.6184 7.2811 14.5913 6.68109C14.4994 4.64016 13.3645 3.50297 11.3198 3.40921C10.7194 3.38157 10.5277 3.375 9 3.375ZM9 6.11156C7.40485 6.11156 6.11156 7.40485 6.11156 9C6.11156 10.5952 7.40485 11.8889 9 11.8889C10.5952 11.8889 11.8884 10.5956 11.8884 9C11.8884 7.40485 10.5952 6.11156 9 6.11156ZM9 10.875C7.96454 10.875 7.125 10.0359 7.125 9C7.125 7.96454 7.96454 7.125 9 7.125C10.0355 7.125 10.875 7.96454 10.875 9C10.875 10.0359 10.0355 10.875 9 10.875ZM12.0028 5.32266C11.6297 5.32266 11.3273 5.625 11.3273 5.99766C11.3273 6.37031 11.6297 6.67266 12.0028 6.67266C12.3755 6.67266 12.6773 6.37031 12.6773 5.99766C12.6773 5.625 12.3755 5.32266 12.0028 5.32266Z" fill="white"/>
<path d="M9 4.38891C10.5019 4.38891 10.68 4.39453 11.2734 4.42171C12.7978 4.4911 13.5098 5.21437 13.5792 6.7275C13.6064 7.32047 13.6116 7.49859 13.6116 9.00046C13.6116 10.5028 13.6059 10.6805 13.5792 11.2734C13.5094 12.7852 12.7992 13.5098 11.2734 13.5792C10.68 13.6064 10.5028 13.612 9 13.612C7.49812 13.612 7.32 13.6064 6.72704 13.5792C5.19891 13.5094 4.49062 12.7828 4.42125 11.273C4.39407 10.68 4.38844 10.5023 4.38844 9C4.38844 7.49812 4.39453 7.32047 4.42125 6.72704C4.4911 5.21438 5.20125 4.49062 6.72704 4.42125C7.32047 4.39453 7.49812 4.38891 9 4.38891ZM9 3.375C7.47235 3.375 7.2811 3.38157 6.68109 3.40875C4.63828 3.5025 3.50297 4.63594 3.40921 6.68063C3.38157 7.2811 3.375 7.47235 3.375 9C3.375 10.5277 3.38157 10.7194 3.40875 11.3194C3.5025 13.3622 4.63594 14.4975 6.68063 14.5913C7.2811 14.6184 7.47235 14.625 9 14.625C10.5277 14.625 10.7194 14.6184 11.3194 14.5913C13.3603 14.4975 14.4984 13.3641 14.5908 11.3194C14.6184 10.7194 14.625 10.5277 14.625 9C14.625 7.47235 14.6184 7.2811 14.5913 6.68109C14.4994 4.64016 13.3645 3.50297 11.3198 3.40921C10.7194 3.38157 10.5277 3.375 9 3.375ZM9 6.11156C7.40485 6.11156 6.11156 7.40485 6.11156 9C6.11156 10.5952 7.40485 11.8889 9 11.8889C10.5952 11.8889 11.8884 10.5956 11.8884 9C11.8884 7.40485 10.5952 6.11156 9 6.11156ZM9 10.875C7.96454 10.875 7.125 10.0359 7.125 9C7.125 7.96454 7.96454 7.125 9 7.125C10.0355 7.125 10.875 7.96454 10.875 9C10.875 10.0359 10.0355 10.875 9 10.875ZM12.0028 5.32266C11.6297 5.32266 11.3273 5.625 11.3273 5.99766C11.3273 6.37031 11.6297 6.67266 12.0028 6.67266C12.3755 6.67266 12.6773 6.37031 12.6773 5.99766C12.6773 5.625 12.3755 5.32266 12.0028 5.32266Z" fill="#FF0045"/>
<path d="M9 4.38891C10.5019 4.38891 10.68 4.39453 11.2734 4.42171C12.7978 4.4911 13.5098 5.21437 13.5792 6.7275C13.6064 7.32047 13.6116 7.49859 13.6116 9.00046C13.6116 10.5028 13.6059 10.6805 13.5792 11.2734C13.5094 12.7852 12.7992 13.5098 11.2734 13.5792C10.68 13.6064 10.5028 13.612 9 13.612C7.49812 13.612 7.32 13.6064 6.72704 13.5792C5.19891 13.5094 4.49062 12.7828 4.42125 11.273C4.39407 10.68 4.38844 10.5023 4.38844 9C4.38844 7.49812 4.39453 7.32047 4.42125 6.72704C4.4911 5.21438 5.20125 4.49062 6.72704 4.42125C7.32047 4.39453 7.49812 4.38891 9 4.38891ZM9 3.375C7.47235 3.375 7.2811 3.38157 6.68109 3.40875C4.63828 3.5025 3.50297 4.63594 3.40921 6.68063C3.38157 7.2811 3.375 7.47235 3.375 9C3.375 10.5277 3.38157 10.7194 3.40875 11.3194C3.5025 13.3622 4.63594 14.4975 6.68063 14.5913C7.2811 14.6184 7.47235 14.625 9 14.625C10.5277 14.625 10.7194 14.6184 11.3194 14.5913C13.3603 14.4975 14.4984 13.3641 14.5908 11.3194C14.6184 10.7194 14.625 10.5277 14.625 9C14.625 7.47235 14.6184 7.2811 14.5913 6.68109C14.4994 4.64016 13.3645 3.50297 11.3198 3.40921C10.7194 3.38157 10.5277 3.375 9 3.375ZM9 6.11156C7.40485 6.11156 6.11156 7.40485 6.11156 9C6.11156 10.5952 7.40485 11.8889 9 11.8889C10.5952 11.8889 11.8884 10.5956 11.8884 9C11.8884 7.40485 10.5952 6.11156 9 6.11156ZM9 10.875C7.96454 10.875 7.125 10.0359 7.125 9C7.125 7.96454 7.96454 7.125 9 7.125C10.0355 7.125 10.875 7.96454 10.875 9C10.875 10.0359 10.0355 10.875 9 10.875ZM12.0028 5.32266C11.6297 5.32266 11.3273 5.625 11.3273 5.99766C11.3273 6.37031 11.6297 6.67266 12.0028 6.67266C12.3755 6.67266 12.6773 6.37031 12.6773 5.99766C12.6773 5.625 12.3755 5.32266 12.0028 5.32266Z" fill="url(#paint2_radial_32_12415)"/>
<path d="M9 4.38891C10.5019 4.38891 10.68 4.39453 11.2734 4.42171C12.7978 4.4911 13.5098 5.21437 13.5792 6.7275C13.6064 7.32047 13.6116 7.49859 13.6116 9.00046C13.6116 10.5028 13.6059 10.6805 13.5792 11.2734C13.5094 12.7852 12.7992 13.5098 11.2734 13.5792C10.68 13.6064 10.5028 13.612 9 13.612C7.49812 13.612 7.32 13.6064 6.72704 13.5792C5.19891 13.5094 4.49062 12.7828 4.42125 11.273C4.39407 10.68 4.38844 10.5023 4.38844 9C4.38844 7.49812 4.39453 7.32047 4.42125 6.72704C4.4911 5.21438 5.20125 4.49062 6.72704 4.42125C7.32047 4.39453 7.49812 4.38891 9 4.38891ZM9 3.375C7.47235 3.375 7.2811 3.38157 6.68109 3.40875C4.63828 3.5025 3.50297 4.63594 3.40921 6.68063C3.38157 7.2811 3.375 7.47235 3.375 9C3.375 10.5277 3.38157 10.7194 3.40875 11.3194C3.5025 13.3622 4.63594 14.4975 6.68063 14.5913C7.2811 14.6184 7.47235 14.625 9 14.625C10.5277 14.625 10.7194 14.6184 11.3194 14.5913C13.3603 14.4975 14.4984 13.3641 14.5908 11.3194C14.6184 10.7194 14.625 10.5277 14.625 9C14.625 7.47235 14.6184 7.2811 14.5913 6.68109C14.4994 4.64016 13.3645 3.50297 11.3198 3.40921C10.7194 3.38157 10.5277 3.375 9 3.375ZM9 6.11156C7.40485 6.11156 6.11156 7.40485 6.11156 9C6.11156 10.5952 7.40485 11.8889 9 11.8889C10.5952 11.8889 11.8884 10.5956 11.8884 9C11.8884 7.40485 10.5952 6.11156 9 6.11156ZM9 10.875C7.96454 10.875 7.125 10.0359 7.125 9C7.125 7.96454 7.96454 7.125 9 7.125C10.0355 7.125 10.875 7.96454 10.875 9C10.875 10.0359 10.0355 10.875 9 10.875ZM12.0028 5.32266C11.6297 5.32266 11.3273 5.625 11.3273 5.99766C11.3273 6.37031 11.6297 6.67266 12.0028 6.67266C12.3755 6.67266 12.6773 6.37031 12.6773 5.99766C12.6773 5.625 12.3755 5.32266 12.0028 5.32266Z" fill="url(#paint3_radial_32_12415)"/>
</g>
</g>
</g>
</g>
<defs>
<filter id="filter0_i_32_12415" x="1.125" y="1.125" width="15.75" height="19.75" filterUnits="userSpaceOnUse" color-interpolation-filters="sRGB">
<feFlood flood-opacity="0" result="BackgroundImageFix"/>
<feBlend mode="normal" in="SourceGraphic" in2="BackgroundImageFix" result="shape"/>
<feColorMatrix in="SourceAlpha" type="matrix" values="0 0 0 0 0 0 0 0 0 0 0 0 0 0 0 0 0 0 127 0" result="hardAlpha"/>
<feOffset dy="4"/>
<feGaussianBlur stdDeviation="2"/>
<feComposite in2="hardAlpha" operator="arithmetic" k2="-1" k3="1"/>
<feColorMatrix type="matrix" values="0 0 0 0 0 0 0 0 0 0 0 0 0 0 0 0 0 0 0.25 0"/>
<feBlend mode="normal" in2="shape" result="effect1_innerShadow_32_12415"/>
</filter>
<filter id="filter1_d_32_12415" x="-0.625" y="1.375" width="19.25" height="19.25" filterUnits="userSpaceOnUse" color-interpolation-filters="sRGB">
<feFlood flood-opacity="0" result="BackgroundImageFix"/>
<feColorMatrix in="SourceAlpha" type="matrix" values="0 0 0 0 0 0 0 0 0 0 0 0 0 0 0 0 0 0 127 0" result="hardAlpha"/>
<feOffset dy="2"/>
<feGaussianBlur stdDeviation="2"/>
<feComposite in2="hardAlpha" operator="out"/>
<feColorMatrix type="matrix" values="0 0 0 0 0 0 0 0 0 0 0 0 0 0 0 0 0 0 0.25 0"/>
<feBlend mode="normal" in2="BackgroundImageFix" result="effect1_dropShadow_32_12415"/>
<feBlend mode="normal" in="SourceGraphic" in2="effect1_dropShadow_32_12415" result="shape"/>
</filter>
<radialGradient id="paint0_radial_32_12415" cx="0" cy="0" r="1" gradientUnits="userSpaceOnUse" gradientTransform="translate(18) rotate(135) scale(25.4558)">
<stop stop-color="#B000FF"/>
<stop offset="1" stop-color="#DFDFDF" stop-opacity="0"/>
</radialGradient>
<radialGradient id="paint1_radial_32_12415" cx="0" cy="0" r="1" gradientUnits="userSpaceOnUse" gradientTransform="translate(-5.3644e-07 18) rotate(-63.4349) scale(20.1246)">
<stop stop-color="#FFB000"/>
<stop offset="1" stop-color="#DFDFDF" stop-opacity="0"/>
</radialGradient>
<radialGradient id="paint2_radial_32_12415" cx="0" cy="0" r="1" gradientUnits="userSpaceOnUse" gradientTransform="translate(14.625 3.375) rotate(135) scale(15.9099)">
<stop stop-color="#B000FF"/>
<stop offset="1" stop-color="#DFDFDF" stop-opacity="0"/>
</radialGradient>
<radialGradient id="paint3_radial_32_12415" cx="0" cy="0" r="1" gradientUnits="userSpaceOnUse" gradientTransform="translate(3.375 14.625) rotate(-63.4349) scale(12.5779)">
<stop stop-color="#FFB000"/>
<stop offset="1" stop-color="#DFDFDF" stop-opacity="0"/>
</radialGradient>
<clipPath id="clip0_32_12415">
<rect width="18" height="18" fill="white"/>
</clipPath>
</defs>
</svg>
