<svg width="18" height="18" viewBox="0 0 18 18" fill="none" xmlns="http://www.w3.org/2000/svg">
<g clip-path="url(#clip0_32_12460)">
<path d="M13.5 0H4.5C2.01472 0 0 2.01472 0 4.5V13.5C0 15.9853 2.01472 18 4.5 18H13.5C15.9853 18 18 15.9853 18 13.5V4.5C18 2.01472 15.9853 0 13.5 0Z" fill="url(#paint0_linear_32_12460)"/>
<path d="M13.5 0H4.5C2.01472 0 0 2.01472 0 4.5V13.5C0 15.9853 2.01472 18 4.5 18H13.5C15.9853 18 18 15.9853 18 13.5V4.5C18 2.01472 15.9853 0 13.5 0Z" fill="url(#paint1_linear_32_12460)"/>
<g filter="url(#filter0_i_32_12460)">
<path d="M13.5 1.125H4.5C2.63604 1.125 1.125 2.63604 1.125 4.5V13.5C1.125 15.364 2.63604 16.875 4.5 16.875H13.5C15.364 16.875 16.875 15.364 16.875 13.5V4.5C16.875 2.63604 15.364 1.125 13.5 1.125Z" fill="black" fill-opacity="0.7"/>
<g filter="url(#filter1_d_32_12460)">
<path d="M7.25036 10.953C7.48102 11.4154 10.522 11.4106 10.7499 10.953C10.9777 10.4959 9.46964 7.75139 9.00028 7.75085C8.53066 7.75085 7.01969 10.4906 7.25036 10.953Z" fill="url(#paint2_linear_32_12460)"/>
</g>
<g filter="url(#filter2_d_32_12460)">
<path d="M3.72777 13.304C4.42191 14.6978 13.5869 14.6818 14.2736 13.304C14.9602 11.9261 10.4148 3.65625 9.00081 3.65625C7.58632 3.65625 3.03362 11.9101 3.72777 13.304ZM5.54639 12.0945C5.09147 11.1812 8.07492 5.77316 9.00135 5.77316C9.92802 5.77316 12.9064 11.1911 12.4563 12.0945C12.0065 12.998 6.00131 13.0078 5.54639 12.0945Z" fill="url(#paint3_linear_32_12460)"/>
</g>
</g>
</g>
<defs>
<filter id="filter0_i_32_12460" x="1.125" y="1.125" width="15.75" height="19.75" filterUnits="userSpaceOnUse" color-interpolation-filters="sRGB">
<feFlood flood-opacity="0" result="BackgroundImageFix"/>
<feBlend mode="normal" in="SourceGraphic" in2="BackgroundImageFix" result="shape"/>
<feColorMatrix in="SourceAlpha" type="matrix" values="0 0 0 0 0 0 0 0 0 0 0 0 0 0 0 0 0 0 127 0" result="hardAlpha"/>
<feOffset dy="4"/>
<feGaussianBlur stdDeviation="2"/>
<feComposite in2="hardAlpha" operator="arithmetic" k2="-1" k3="1"/>
<feColorMatrix type="matrix" values="0 0 0 0 0 0 0 0 0 0 0 0 0 0 0 0 0 0 0.25 0"/>
<feBlend mode="normal" in2="shape" result="effect1_innerShadow_32_12460"/>
</filter>
<filter id="filter1_d_32_12460" x="3.22656" y="5.75085" width="11.5469" height="11.5471" filterUnits="userSpaceOnUse" color-interpolation-filters="sRGB">
<feFlood flood-opacity="0" result="BackgroundImageFix"/>
<feColorMatrix in="SourceAlpha" type="matrix" values="0 0 0 0 0 0 0 0 0 0 0 0 0 0 0 0 0 0 127 0" result="hardAlpha"/>
<feOffset dy="2"/>
<feGaussianBlur stdDeviation="2"/>
<feComposite in2="hardAlpha" operator="out"/>
<feColorMatrix type="matrix" values="0 0 0 0 0 0 0 0 0 0 0 0 0 0 0 0 0 0 0.25 0"/>
<feBlend mode="normal" in2="BackgroundImageFix" result="effect1_dropShadow_32_12460"/>
<feBlend mode="normal" in="SourceGraphic" in2="effect1_dropShadow_32_12460" result="shape"/>
</filter>
<filter id="filter2_d_32_12460" x="-0.34375" y="1.65625" width="18.6875" height="18.6871" filterUnits="userSpaceOnUse" color-interpolation-filters="sRGB">
<feFlood flood-opacity="0" result="BackgroundImageFix"/>
<feColorMatrix in="SourceAlpha" type="matrix" values="0 0 0 0 0 0 0 0 0 0 0 0 0 0 0 0 0 0 127 0" result="hardAlpha"/>
<feOffset dy="2"/>
<feGaussianBlur stdDeviation="2"/>
<feComposite in2="hardAlpha" operator="out"/>
<feColorMatrix type="matrix" values="0 0 0 0 0 0 0 0 0 0 0 0 0 0 0 0 0 0 0.25 0"/>
<feBlend mode="normal" in2="BackgroundImageFix" result="effect1_dropShadow_32_12460"/>
<feBlend mode="normal" in="SourceGraphic" in2="effect1_dropShadow_32_12460" result="shape"/>
</filter>
<linearGradient id="paint0_linear_32_12460" x1="201.414" y1="245.336" x2="176.839" y2="245.748" gradientUnits="userSpaceOnUse">
<stop stop-color="#FCFCFC"/>
<stop offset="1" stop-color="#D0D6DC"/>
</linearGradient>
<linearGradient id="paint1_linear_32_12460" x1="3.15458" y1="7.34878" x2="18.0793" y2="15.9653" gradientUnits="userSpaceOnUse">
<stop stop-color="#AA5CC3"/>
<stop offset="1" stop-color="#00A4DC"/>
</linearGradient>
<linearGradient id="paint2_linear_32_12460" x1="5.52875" y1="8.01948" x2="14.3901" y2="13.1356" gradientUnits="userSpaceOnUse">
<stop stop-color="#AA5CC3"/>
<stop offset="1" stop-color="#00A4DC"/>
</linearGradient>
<linearGradient id="paint3_linear_32_12460" x1="5.52929" y1="8.01945" x2="14.3907" y2="13.1356" gradientUnits="userSpaceOnUse">
<stop stop-color="#AA5CC3"/>
<stop offset="1" stop-color="#00A4DC"/>
</linearGradient>
<clipPath id="clip0_32_12460">
<rect width="18" height="18" fill="white"/>
</clipPath>
</defs>
</svg>
