<svg width="18" height="18" viewBox="0 0 18 18" fill="none" xmlns="http://www.w3.org/2000/svg">
<g clip-path="url(#clip0_32_12469)">
<path d="M13.5 0H4.5C2.01472 0 0 2.01472 0 4.5V13.5C0 15.9853 2.01472 18 4.5 18H13.5C15.9853 18 18 15.9853 18 13.5V4.5C18 2.01472 15.9853 0 13.5 0Z" fill="url(#paint0_linear_32_12469)"/>
<g filter="url(#filter0_i_32_12469)">
<path d="M13.5 1.125H4.5C2.63604 1.125 1.125 2.63604 1.125 4.5V13.5C1.125 15.364 2.63604 16.875 4.5 16.875H13.5C15.364 16.875 16.875 15.364 16.875 13.5V4.5C16.875 2.63604 15.364 1.125 13.5 1.125Z" fill="black" fill-opacity="0.7"/>
<mask id="mask0_32_12469" style="mask-type:luminance" maskUnits="userSpaceOnUse" x="2" y="2" width="14" height="14">
<path d="M15.75 2.25H2.25V15.75H15.75V2.25Z" fill="white"/>
</mask>
<g mask="url(#mask0_32_12469)">
<g filter="url(#filter1_d_32_12469)">
<path d="M9.28125 6.46875C9.28125 7.14008 9.01457 7.78392 8.53986 8.25861C8.06517 8.73332 7.42133 9 6.75 9C6.07867 9 5.43483 8.73332 4.96014 8.25861C4.48543 7.78392 4.21875 7.14008 4.21875 6.46875C4.21875 5.79742 4.48543 5.15358 4.96014 4.67889C5.43483 4.20418 6.07867 3.9375 6.75 3.9375C7.42133 3.9375 8.06517 4.20418 8.53986 4.67889C9.01457 5.15358 9.28125 5.79742 9.28125 6.46875Z" fill="url(#paint1_linear_32_12469)"/>
<path d="M8.97877 3.5376C7.61273 3.5376 6.2467 4.061 5.19989 5.10754C3.10655 7.20088 3.10655 10.5717 5.19989 12.665C7.29323 14.7583 10.664 14.7583 12.7574 12.665C14.8507 10.5717 14.8507 7.20088 12.7574 5.10754C11.7108 4.061 10.3448 3.5376 8.97877 3.5376Z" fill="url(#paint2_linear_32_12469)"/>
<path opacity="0.4" fill-rule="evenodd" clip-rule="evenodd" d="M5.1875 5.61066L6.40025 3.72516L9.95778 7.23319C8.14653 6.63216 7.80987 6.62035 5.27581 6.7711L5.1875 5.61066Z" fill="url(#paint3_linear_32_12469)"/>
<path d="M5.625 2.96185C5.16909 2.96185 4.71291 3.1022 4.78125 3.37501C5.0625 4.50001 5.34375 11.25 5.0625 11.8125C4.87491 12.1874 4.21875 12.0938 4.21875 13.2188C4.21875 14.0251 5.01272 15.4688 5.625 15.4688C6.17822 15.4665 7.03125 14.0251 7.03125 13.2188C7.03125 12.0938 6.37509 12.1874 6.1875 11.8125C5.90625 11.25 6.1875 4.50001 6.46875 3.37501C6.53709 3.1022 6.08091 2.96185 5.625 2.96185ZM5.48438 3.2431V3.65626L5.80078 3.25182L6.05559 3.3047L5.72147 3.70913L6.05559 4.13101L5.80078 4.21004L5.48438 3.76173V4.16617L5.23828 4.20132V3.26082L5.48438 3.2431Z" fill="url(#paint4_linear_32_12469)"/>
<path d="M9.28125 6.46875C9.28125 7.14008 9.01457 7.78392 8.53986 8.25861C8.06517 8.73332 7.42133 9 6.75 9C6.07867 9 5.43483 8.73332 4.96014 8.25861C4.48543 7.78392 4.21875 7.14008 4.21875 6.46875C4.21875 5.79742 4.48543 5.15358 4.96014 4.67889C5.43483 4.20418 6.07867 3.9375 6.75 3.9375C7.42133 3.9375 8.06517 4.20418 8.53986 4.67889C9.01457 5.15358 9.28125 5.79742 9.28125 6.46875Z" fill="url(#paint5_linear_32_12469)"/>
<path d="M11.8099 8.9307C11.8099 9.69421 11.5066 10.4264 10.9667 10.9663C10.4267 11.5062 9.69444 11.8095 8.93084 11.8095C8.16726 11.8095 7.43496 11.5062 6.89503 10.9663C6.35509 10.4264 6.05176 9.69421 6.05176 8.9307C6.05176 8.16719 6.35509 7.43495 6.89503 6.89507C7.43496 6.35518 8.16726 6.05188 8.93084 6.05188C9.69444 6.05188 10.4267 6.35518 10.9667 6.89507C11.5066 7.43495 11.8099 8.16719 11.8099 8.9307Z" fill="url(#paint6_linear_32_12469)"/>
<path d="M8.1709 10.1334V7.65479L10.2943 8.8771L8.1709 10.1334Z" fill="url(#paint7_linear_32_12469)"/>
<path opacity="0.052" d="M8.83811 7.36316C8.56305 7.37751 8.29924 7.47285 8.06271 7.61151C8.15383 7.86773 8.29868 7.85423 8.49977 7.73723C9.00855 7.55188 9.59299 7.7392 9.94343 8.14026C10.2016 7.99682 10.1147 7.83201 9.91277 7.70151C9.60958 7.46301 9.22427 7.34038 8.83811 7.36316ZM7.43186 8.41223C7.18746 9.05741 7.43777 9.81679 7.9744 10.2299C8.2053 10.0367 8.08774 9.9037 7.90971 9.73691C7.61186 9.36595 7.56574 8.83523 7.75165 8.40716C7.64336 8.41898 7.43158 8.18638 7.43186 8.41223ZM10.3903 8.7981C10.0891 8.76182 10.2674 9.12576 10.1659 9.30829C10.0871 9.6126 9.87227 9.86826 9.61324 10.0446C9.70661 10.3253 9.85961 10.2896 10.023 10.0989C10.3822 9.7701 10.5532 9.26498 10.5144 8.77954C10.473 8.78573 10.4317 8.79192 10.3903 8.79838M8.38558 10.2488C8.22977 10.53 8.66177 10.5059 8.85161 10.5379C9.02655 10.5444 9.19952 10.5202 9.36855 10.4766C9.37361 10.1414 9.14636 10.2074 8.89408 10.237C8.74586 10.307 8.38361 10.0145 8.38558 10.2488Z" fill="url(#paint8_radial_32_12469)"/>
<path opacity="0.052" d="M7.01208 7.59941C6.77414 7.92875 6.6397 8.31913 6.58008 8.71907C6.95836 8.85125 7.07705 8.67238 7.12852 8.33375C7.38614 7.57832 8.14158 7.0805 8.92598 7.049C8.99995 6.6201 8.73052 6.56722 8.39414 6.6786C7.8398 6.80628 7.34283 7.13535 7.01208 7.59941ZM6.91617 10.1838C7.43086 11.061 8.5342 11.4762 9.50452 11.2419C9.49636 10.7981 9.2348 10.8099 8.87873 10.8602C8.17758 10.8591 7.52536 10.4212 7.20586 9.81228C7.11923 9.94728 6.6563 9.97569 6.91617 10.1838ZM10.0951 7.14435C9.7748 7.45653 10.3575 7.58816 10.4731 7.87363C10.7496 8.24544 10.8444 8.72863 10.8075 9.18875C11.2165 9.34119 11.3169 9.13222 11.2488 8.76857C11.2033 8.05222 10.7817 7.38875 10.1882 6.98432C10.157 7.03747 10.1261 7.09091 10.0949 7.14406M9.90642 10.7868C10.0856 11.2258 10.4568 10.7072 10.6692 10.5193C10.8382 10.3244 10.9707 10.1037 11.077 9.86938C10.6967 9.55353 10.5626 9.87585 10.3632 10.1923C10.3064 10.4274 9.63586 10.5725 9.9067 10.7871" fill="url(#paint9_radial_32_12469)"/>
<path d="M6.19905 12.1865C6.23224 12.2031 6.79896 12.3885 6.80149 13.2215C6.80402 14.0293 6.00274 15.1903 5.59662 15.1931C5.15505 15.1956 4.40243 14.029 4.39174 13.2215C4.38133 12.4509 4.96099 12.2082 4.99418 12.1865C5.40452 11.9509 5.80812 11.948 6.19905 12.1865Z" fill="url(#paint10_linear_32_12469)"/>
<path opacity="0.36" d="M5.625 2.96185C5.16909 2.96185 4.7129 3.1022 4.78125 3.37501C5.0625 4.50001 5.34375 11.25 5.0625 11.8125C5.00793 11.9565 5.10721 11.8249 5.16796 11.7774C5.43178 11.0709 5.26106 4.48595 4.98346 3.37501C4.92018 3.12188 5.31 2.98942 5.73046 2.97057C5.69475 2.96888 5.661 2.96185 5.625 2.96185Z" fill="white"/>
</g>
</g>
</g>
</g>
<defs>
<filter id="filter0_i_32_12469" x="1.125" y="1.125" width="15.75" height="19.75" filterUnits="userSpaceOnUse" color-interpolation-filters="sRGB">
<feFlood flood-opacity="0" result="BackgroundImageFix"/>
<feBlend mode="normal" in="SourceGraphic" in2="BackgroundImageFix" result="shape"/>
<feColorMatrix in="SourceAlpha" type="matrix" values="0 0 0 0 0 0 0 0 0 0 0 0 0 0 0 0 0 0 127 0" result="hardAlpha"/>
<feOffset dy="4"/>
<feGaussianBlur stdDeviation="2"/>
<feComposite in2="hardAlpha" operator="arithmetic" k2="-1" k3="1"/>
<feColorMatrix type="matrix" values="0 0 0 0 0 0 0 0 0 0 0 0 0 0 0 0 0 0 0.25 0"/>
<feBlend mode="normal" in2="shape" result="effect1_innerShadow_32_12469"/>
</filter>
<filter id="filter1_d_32_12469" x="-0.370117" y="0.961853" width="18.6973" height="20.5069" filterUnits="userSpaceOnUse" color-interpolation-filters="sRGB">
<feFlood flood-opacity="0" result="BackgroundImageFix"/>
<feColorMatrix in="SourceAlpha" type="matrix" values="0 0 0 0 0 0 0 0 0 0 0 0 0 0 0 0 0 0 127 0" result="hardAlpha"/>
<feOffset dy="2"/>
<feGaussianBlur stdDeviation="2"/>
<feComposite in2="hardAlpha" operator="out"/>
<feColorMatrix type="matrix" values="0 0 0 0 0 0 0 0 0 0 0 0 0 0 0 0 0 0 0.25 0"/>
<feBlend mode="normal" in2="BackgroundImageFix" result="effect1_dropShadow_32_12469"/>
<feBlend mode="normal" in="SourceGraphic" in2="effect1_dropShadow_32_12469" result="shape"/>
</filter>
<linearGradient id="paint0_linear_32_12469" x1="201.414" y1="245.336" x2="176.839" y2="245.748" gradientUnits="userSpaceOnUse">
<stop stop-color="#FCFCFC"/>
<stop offset="1" stop-color="#D0D6DC"/>
</linearGradient>
<linearGradient id="paint1_linear_32_12469" x1="110.703" y1="149.13" x2="117.512" y2="149.42" gradientUnits="userSpaceOnUse">
<stop stop-color="white"/>
<stop offset="1" stop-color="#DFE1E3"/>
</linearGradient>
<linearGradient id="paint2_linear_32_12469" x1="123.331" y1="149.341" x2="108.726" y2="149.586" gradientUnits="userSpaceOnUse">
<stop stop-color="#FCFCFC"/>
<stop offset="1" stop-color="#E9EAEB"/>
</linearGradient>
<linearGradient id="paint3_linear_32_12469" x1="4.55441" y1="8.11941" x2="6.94897" y2="8.27691" gradientUnits="userSpaceOnUse">
<stop/>
<stop offset="1" stop-opacity="0"/>
</linearGradient>
<linearGradient id="paint4_linear_32_12469" x1="5.625" y1="2.69607" x2="5.58984" y2="14.9934" gradientUnits="userSpaceOnUse">
<stop stop-color="#E0E0E0"/>
<stop offset="0.125" stop-color="#C0C0C0"/>
<stop offset="0.66" stop-color="#9B9B9B"/>
<stop offset="0.732" stop-color="#B3B3B3"/>
<stop offset="1" stop-color="#B1B1B1"/>
</linearGradient>
<linearGradient id="paint5_linear_32_12469" x1="111.471" y1="149.113" x2="115.321" y2="149.541" gradientUnits="userSpaceOnUse">
<stop stop-color="white"/>
<stop offset="1" stop-color="#EFF0F1"/>
</linearGradient>
<linearGradient id="paint6_linear_32_12469" x1="6.89693" y1="6.89217" x2="11.4614" y2="11.9142" gradientUnits="userSpaceOnUse">
<stop stop-color="#491309"/>
<stop offset="1" stop-color="#B6642D"/>
</linearGradient>
<linearGradient id="paint7_linear_32_12469" x1="6.83384" y1="6.71372" x2="10.8661" y2="10.9716" gradientUnits="userSpaceOnUse">
<stop stop-color="#FEE3A8"/>
<stop offset="1" stop-color="#FCDD99" stop-opacity="0"/>
</linearGradient>
<radialGradient id="paint8_radial_32_12469" cx="0" cy="0" r="1" gradientUnits="userSpaceOnUse" gradientTransform="translate(8.92896 8.94941) scale(1.59103)">
<stop stop-color="#FCDD99"/>
<stop offset="1" stop-color="#FCDD99" stop-opacity="0"/>
</radialGradient>
<radialGradient id="paint9_radial_32_12469" cx="0" cy="0" r="1" gradientUnits="userSpaceOnUse" gradientTransform="translate(8.9243 8.96769) scale(2.34422)">
<stop stop-color="#FCDD99"/>
<stop offset="1" stop-color="#FCDD99" stop-opacity="0"/>
</radialGradient>
<linearGradient id="paint10_linear_32_12469" x1="5.97602" y1="14.0653" x2="4.75118" y2="12.062" gradientUnits="userSpaceOnUse">
<stop stop-color="#D6D6D6"/>
<stop offset="1" stop-color="#7A7A7A"/>
</linearGradient>
<clipPath id="clip0_32_12469">
<rect width="18" height="18" fill="white"/>
</clipPath>
</defs>
</svg>
