<svg width="18" height="18" viewBox="0 0 18 18" fill="none" xmlns="http://www.w3.org/2000/svg">
<g clip-path="url(#clip0_32_12520)">
<path d="M13.5 0H4.5C2.01472 0 0 2.01472 0 4.5V13.5C0 15.9853 2.01472 18 4.5 18H13.5C15.9853 18 18 15.9853 18 13.5V4.5C18 2.01472 15.9853 0 13.5 0Z" fill="url(#paint0_linear_32_12520)"/>
<g filter="url(#filter0_i_32_12520)">
<path d="M13.5 1.125H4.5C2.63604 1.125 1.125 2.63604 1.125 4.5V13.5C1.125 15.364 2.63604 16.875 4.5 16.875H13.5C15.364 16.875 16.875 15.364 16.875 13.5V4.5C16.875 2.63604 15.364 1.125 13.5 1.125Z" fill="black" fill-opacity="0.7"/>
<g filter="url(#filter1_d_32_12520)">
<path fill-rule="evenodd" clip-rule="evenodd" d="M9.5625 3.375H4.5C3.87868 3.375 3.375 3.87868 3.375 4.5V13.5C3.375 14.1213 3.87868 14.625 4.5 14.625H13.5C14.1213 14.625 14.625 14.1213 14.625 13.5V8.4375L9.5625 3.375Z" fill="url(#paint1_linear_32_12520)"/>
</g>
<g filter="url(#filter2_d_32_12520)">
<path d="M14.6249 4.5C14.6249 3.87868 14.1214 3.375 13.5 3.375H11.25L14.6249 6.75V4.5Z" fill="#97989A"/>
</g>
<path d="M6.46875 12.9375C7.71139 12.9375 8.71875 11.9301 8.71875 10.6875C8.71875 9.44486 7.71139 8.4375 6.46875 8.4375C5.22611 8.4375 4.21875 9.44486 4.21875 10.6875C4.21875 11.9301 5.22611 12.9375 6.46875 12.9375Z" fill="#FAFAFA"/>
<path d="M13.2188 9.84375H10.4062C10.2509 9.84375 10.125 9.96967 10.125 10.125V12.9375C10.125 13.0928 10.2509 13.2188 10.4062 13.2188H13.2188C13.3741 13.2188 13.5 13.0928 13.5 12.9375V10.125C13.5 9.96967 13.3741 9.84375 13.2188 9.84375Z" stroke="white" stroke-width="4"/>
<path d="M10.7248 13.7812H7.27586C7.05122 13.7812 6.91725 13.5309 7.04185 13.344L8.76633 10.7573C8.87765 10.5903 9.12304 10.5903 9.23436 10.7573L10.9588 13.344C11.0834 13.5309 10.9495 13.7812 10.7248 13.7812Z" fill="#F9E285"/>
</g>
</g>
<defs>
<filter id="filter0_i_32_12520" x="1.125" y="1.125" width="15.75" height="19.75" filterUnits="userSpaceOnUse" color-interpolation-filters="sRGB">
<feFlood flood-opacity="0" result="BackgroundImageFix"/>
<feBlend mode="normal" in="SourceGraphic" in2="BackgroundImageFix" result="shape"/>
<feColorMatrix in="SourceAlpha" type="matrix" values="0 0 0 0 0 0 0 0 0 0 0 0 0 0 0 0 0 0 127 0" result="hardAlpha"/>
<feOffset dy="4"/>
<feGaussianBlur stdDeviation="2"/>
<feComposite in2="hardAlpha" operator="arithmetic" k2="-1" k3="1"/>
<feColorMatrix type="matrix" values="0 0 0 0 0 0 0 0 0 0 0 0 0 0 0 0 0 0 0.25 0"/>
<feBlend mode="normal" in2="shape" result="effect1_innerShadow_32_12520"/>
</filter>
<filter id="filter1_d_32_12520" x="-0.625" y="1.375" width="19.25" height="19.25" filterUnits="userSpaceOnUse" color-interpolation-filters="sRGB">
<feFlood flood-opacity="0" result="BackgroundImageFix"/>
<feColorMatrix in="SourceAlpha" type="matrix" values="0 0 0 0 0 0 0 0 0 0 0 0 0 0 0 0 0 0 127 0" result="hardAlpha"/>
<feOffset dy="2"/>
<feGaussianBlur stdDeviation="2"/>
<feComposite in2="hardAlpha" operator="out"/>
<feColorMatrix type="matrix" values="0 0 0 0 0 0 0 0 0 0 0 0 0 0 0 0 0 0 0.25 0"/>
<feBlend mode="normal" in2="BackgroundImageFix" result="effect1_dropShadow_32_12520"/>
<feBlend mode="normal" in="SourceGraphic" in2="effect1_dropShadow_32_12520" result="shape"/>
</filter>
<filter id="filter2_d_32_12520" x="7.25" y="1.375" width="11.375" height="11.375" filterUnits="userSpaceOnUse" color-interpolation-filters="sRGB">
<feFlood flood-opacity="0" result="BackgroundImageFix"/>
<feColorMatrix in="SourceAlpha" type="matrix" values="0 0 0 0 0 0 0 0 0 0 0 0 0 0 0 0 0 0 127 0" result="hardAlpha"/>
<feOffset dy="2"/>
<feGaussianBlur stdDeviation="2"/>
<feComposite in2="hardAlpha" operator="out"/>
<feColorMatrix type="matrix" values="0 0 0 0 0 0 0 0 0 0 0 0 0 0 0 0 0 0 0.25 0"/>
<feBlend mode="normal" in2="BackgroundImageFix" result="effect1_dropShadow_32_12520"/>
<feBlend mode="normal" in="SourceGraphic" in2="effect1_dropShadow_32_12520" result="shape"/>
</filter>
<linearGradient id="paint0_linear_32_12520" x1="18" y1="0" x2="0" y2="18" gradientUnits="userSpaceOnUse">
<stop stop-color="#FFFE4F"/>
<stop offset="1" stop-color="#CE7732"/>
</linearGradient>
<linearGradient id="paint1_linear_32_12520" x1="14.625" y1="3.375" x2="3.375" y2="14.625" gradientUnits="userSpaceOnUse">
<stop stop-color="#FFFE4F"/>
<stop offset="1" stop-color="#CE7732"/>
</linearGradient>
<clipPath id="clip0_32_12520">
<rect width="18" height="18" fill="white"/>
</clipPath>
</defs>
</svg>
