<svg width="18" height="18" viewBox="0 0 18 18" fill="none" xmlns="http://www.w3.org/2000/svg">
<g clip-path="url(#clip0_32_12553)">
<path d="M13.5 0H4.5C2.01472 0 0 2.01472 0 4.5V13.5C0 15.9853 2.01472 18 4.5 18H13.5C15.9853 18 18 15.9853 18 13.5V4.5C18 2.01472 15.9853 0 13.5 0Z" fill="url(#paint0_linear_32_12553)"/>
<g filter="url(#filter0_i_32_12553)">
<path d="M13.5 1.125H4.5C2.63604 1.125 1.125 2.63604 1.125 4.5V13.5C1.125 15.364 2.63604 16.875 4.5 16.875H13.5C15.364 16.875 16.875 15.364 16.875 13.5V4.5C16.875 2.63604 15.364 1.125 13.5 1.125Z" fill="black" fill-opacity="0.7"/>
<g filter="url(#filter1_d_32_12553)">
<path fill-rule="evenodd" clip-rule="evenodd" d="M9.5625 4.78125H4.5C3.87868 4.78125 3.375 5.28493 3.375 5.90625V12.0938C3.375 12.7151 3.87868 13.2188 4.5 13.2188H13.5C14.1213 13.2188 14.625 12.7151 14.625 12.0938V9.84375L9.5625 4.78125Z" fill="url(#paint1_linear_32_12553)"/>
</g>
<g filter="url(#filter2_d_32_12553)">
<path d="M14.6249 5.90625C14.6249 5.28493 14.1214 4.78125 13.5 4.78125H11.25L14.6249 8.15625V5.90625Z" fill="#97989A"/>
</g>
<path fill-rule="evenodd" clip-rule="evenodd" d="M10.9688 6.1875H5.76562C5.61029 6.1875 5.48438 6.31342 5.48438 6.46875C5.48438 6.62408 5.61029 6.75 5.76562 6.75H11.5312L10.9688 6.1875Z" fill="white"/>
<path d="M4.78125 9C4.78125 8.84467 4.65533 8.71875 4.5 8.71875C4.34467 8.71875 4.21875 8.84467 4.21875 9C4.21875 9.15533 4.34467 9.28125 4.5 9.28125C4.65533 9.28125 4.78125 9.15533 4.78125 9Z" fill="white"/>
<path d="M10.6875 8.71875H5.625C5.46967 8.71875 5.34375 8.84467 5.34375 9C5.34375 9.15533 5.46967 9.28125 5.625 9.28125H10.6875C10.8428 9.28125 10.9688 9.15533 10.9688 9C10.9688 8.84467 10.8428 8.71875 10.6875 8.71875Z" fill="white"/>
<path d="M4.78125 10.125C4.78125 9.96967 4.65533 9.84375 4.5 9.84375C4.34467 9.84375 4.21875 9.96967 4.21875 10.125C4.21875 10.2803 4.34467 10.4062 4.5 10.4062C4.65533 10.4062 4.78125 10.2803 4.78125 10.125Z" fill="white"/>
<path d="M9.5625 9.84375H5.625C5.46967 9.84375 5.34375 9.96967 5.34375 10.125C5.34375 10.2803 5.46967 10.4062 5.625 10.4062H9.5625C9.71783 10.4062 9.84375 10.2803 9.84375 10.125C9.84375 9.96967 9.71783 9.84375 9.5625 9.84375Z" fill="white"/>
<path d="M4.78125 11.25C4.78125 11.0947 4.65533 10.9688 4.5 10.9688C4.34467 10.9688 4.21875 11.0947 4.21875 11.25C4.21875 11.4053 4.34467 11.5312 4.5 11.5312C4.65533 11.5312 4.78125 11.4053 4.78125 11.25Z" fill="white"/>
<path d="M10.2656 10.9688H5.625C5.46967 10.9688 5.34375 11.0947 5.34375 11.25C5.34375 11.4053 5.46967 11.5312 5.625 11.5312H10.2656C10.421 11.5312 10.5469 11.4053 10.5469 11.25C10.5469 11.0947 10.421 10.9688 10.2656 10.9688Z" fill="white"/>
</g>
</g>
<defs>
<filter id="filter0_i_32_12553" x="1.125" y="1.125" width="15.75" height="19.75" filterUnits="userSpaceOnUse" color-interpolation-filters="sRGB">
<feFlood flood-opacity="0" result="BackgroundImageFix"/>
<feBlend mode="normal" in="SourceGraphic" in2="BackgroundImageFix" result="shape"/>
<feColorMatrix in="SourceAlpha" type="matrix" values="0 0 0 0 0 0 0 0 0 0 0 0 0 0 0 0 0 0 127 0" result="hardAlpha"/>
<feOffset dy="4"/>
<feGaussianBlur stdDeviation="2"/>
<feComposite in2="hardAlpha" operator="arithmetic" k2="-1" k3="1"/>
<feColorMatrix type="matrix" values="0 0 0 0 0 0 0 0 0 0 0 0 0 0 0 0 0 0 0.25 0"/>
<feBlend mode="normal" in2="shape" result="effect1_innerShadow_32_12553"/>
</filter>
<filter id="filter1_d_32_12553" x="-0.625" y="2.78125" width="19.25" height="16.4375" filterUnits="userSpaceOnUse" color-interpolation-filters="sRGB">
<feFlood flood-opacity="0" result="BackgroundImageFix"/>
<feColorMatrix in="SourceAlpha" type="matrix" values="0 0 0 0 0 0 0 0 0 0 0 0 0 0 0 0 0 0 127 0" result="hardAlpha"/>
<feOffset dy="2"/>
<feGaussianBlur stdDeviation="2"/>
<feComposite in2="hardAlpha" operator="out"/>
<feColorMatrix type="matrix" values="0 0 0 0 0 0 0 0 0 0 0 0 0 0 0 0 0 0 0.25 0"/>
<feBlend mode="normal" in2="BackgroundImageFix" result="effect1_dropShadow_32_12553"/>
<feBlend mode="normal" in="SourceGraphic" in2="effect1_dropShadow_32_12553" result="shape"/>
</filter>
<filter id="filter2_d_32_12553" x="7.25" y="2.78125" width="11.375" height="11.375" filterUnits="userSpaceOnUse" color-interpolation-filters="sRGB">
<feFlood flood-opacity="0" result="BackgroundImageFix"/>
<feColorMatrix in="SourceAlpha" type="matrix" values="0 0 0 0 0 0 0 0 0 0 0 0 0 0 0 0 0 0 127 0" result="hardAlpha"/>
<feOffset dy="2"/>
<feGaussianBlur stdDeviation="2"/>
<feComposite in2="hardAlpha" operator="out"/>
<feColorMatrix type="matrix" values="0 0 0 0 0 0 0 0 0 0 0 0 0 0 0 0 0 0 0.25 0"/>
<feBlend mode="normal" in2="BackgroundImageFix" result="effect1_dropShadow_32_12553"/>
<feBlend mode="normal" in="SourceGraphic" in2="effect1_dropShadow_32_12553" result="shape"/>
</filter>
<linearGradient id="paint0_linear_32_12553" x1="18" y1="0" x2="0" y2="18" gradientUnits="userSpaceOnUse">
<stop stop-color="#F79740"/>
<stop offset="1" stop-color="#D21E10"/>
</linearGradient>
<linearGradient id="paint1_linear_32_12553" x1="14.625" y1="4.78125" x2="6.525" y2="15.5812" gradientUnits="userSpaceOnUse">
<stop stop-color="#F79740"/>
<stop offset="1" stop-color="#D21E10"/>
</linearGradient>
<clipPath id="clip0_32_12553">
<rect width="18" height="18" fill="white"/>
</clipPath>
</defs>
</svg>
