<svg width="18" height="18" viewBox="0 0 18 18" fill="none" xmlns="http://www.w3.org/2000/svg">
<g clip-path="url(#clip0_32_12531)">
<path d="M13.5 0H4.5C2.01472 0 0 2.01472 0 4.5V13.5C0 15.9853 2.01472 18 4.5 18H13.5C15.9853 18 18 15.9853 18 13.5V4.5C18 2.01472 15.9853 0 13.5 0Z" fill="url(#paint0_linear_32_12531)"/>
<g filter="url(#filter0_i_32_12531)">
<path d="M13.5 1.125H4.5C2.63604 1.125 1.125 2.63604 1.125 4.5V13.5C1.125 15.364 2.63604 16.875 4.5 16.875H13.5C15.364 16.875 16.875 15.364 16.875 13.5V4.5C16.875 2.63604 15.364 1.125 13.5 1.125Z" fill="black" fill-opacity="0.7"/>
<g filter="url(#filter1_d_32_12531)">
<path fill-rule="evenodd" clip-rule="evenodd" d="M9.5625 3.375H4.5C3.87868 3.375 3.375 3.87868 3.375 4.5V13.5C3.375 14.1213 3.87868 14.625 4.5 14.625H13.5C14.1213 14.625 14.625 14.1213 14.625 13.5V8.4375L9.5625 3.375Z" fill="url(#paint1_linear_32_12531)"/>
</g>
<g filter="url(#filter2_d_32_12531)">
<path d="M9.5625 7.3125C9.5625 7.93382 10.0662 8.4375 10.6875 8.4375H14.625L9.5625 3.375V7.3125Z" fill="#FAFAFA"/>
</g>
<g filter="url(#filter3_d_32_12531)">
<path d="M14.6249 4.5C14.6249 3.87868 14.1214 3.375 13.5 3.375H11.25L14.6249 6.75V4.5Z" fill="#97989A"/>
</g>
<mask id="mask0_32_12531" style="mask-type:luminance" maskUnits="userSpaceOnUse" x="4" y="9" width="10" height="5">
<path d="M13.2188 9H4.78125C4.62592 9 4.5 9.12592 4.5 9.28125V13.2188C4.5 13.3741 4.62592 13.5 4.78125 13.5H13.2188C13.3741 13.5 13.5 13.3741 13.5 13.2188V9.28125C13.5 9.12592 13.3741 9 13.2188 9Z" fill="white"/>
</mask>
<g mask="url(#mask0_32_12531)">
<path d="M6.75 10.125H4.5V13.5H6.75V10.125Z" fill="#24AFEA"/>
<path d="M6.75 10.125H4.5V13.5H6.75V10.125Z" fill="url(#paint2_linear_32_12531)"/>
<path d="M9 9H6.75V13.5H9V9Z" fill="#F8883C"/>
<path d="M9 9H6.75V13.5H9V9Z" fill="url(#paint3_linear_32_12531)"/>
<path d="M11.25 11.25H9V13.5H11.25V11.25Z" fill="#F0CD49"/>
<path d="M11.25 11.25H9V13.5H11.25V11.25Z" fill="url(#paint4_linear_32_12531)"/>
<path d="M13.5 10.125H11.25V13.5H13.5V10.125Z" fill="#5BDD4B"/>
<path d="M13.5 10.125H11.25V13.5H13.5V10.125Z" fill="url(#paint5_linear_32_12531)"/>
</g>
</g>
</g>
<defs>
<filter id="filter0_i_32_12531" x="1.125" y="1.125" width="15.75" height="19.75" filterUnits="userSpaceOnUse" color-interpolation-filters="sRGB">
<feFlood flood-opacity="0" result="BackgroundImageFix"/>
<feBlend mode="normal" in="SourceGraphic" in2="BackgroundImageFix" result="shape"/>
<feColorMatrix in="SourceAlpha" type="matrix" values="0 0 0 0 0 0 0 0 0 0 0 0 0 0 0 0 0 0 127 0" result="hardAlpha"/>
<feOffset dy="4"/>
<feGaussianBlur stdDeviation="2"/>
<feComposite in2="hardAlpha" operator="arithmetic" k2="-1" k3="1"/>
<feColorMatrix type="matrix" values="0 0 0 0 0 0 0 0 0 0 0 0 0 0 0 0 0 0 0.25 0"/>
<feBlend mode="normal" in2="shape" result="effect1_innerShadow_32_12531"/>
</filter>
<filter id="filter1_d_32_12531" x="-0.625" y="1.375" width="19.25" height="19.25" filterUnits="userSpaceOnUse" color-interpolation-filters="sRGB">
<feFlood flood-opacity="0" result="BackgroundImageFix"/>
<feColorMatrix in="SourceAlpha" type="matrix" values="0 0 0 0 0 0 0 0 0 0 0 0 0 0 0 0 0 0 127 0" result="hardAlpha"/>
<feOffset dy="2"/>
<feGaussianBlur stdDeviation="2"/>
<feComposite in2="hardAlpha" operator="out"/>
<feColorMatrix type="matrix" values="0 0 0 0 0 0 0 0 0 0 0 0 0 0 0 0 0 0 0.25 0"/>
<feBlend mode="normal" in2="BackgroundImageFix" result="effect1_dropShadow_32_12531"/>
<feBlend mode="normal" in="SourceGraphic" in2="effect1_dropShadow_32_12531" result="shape"/>
</filter>
<filter id="filter2_d_32_12531" x="5.5625" y="1.375" width="13.0625" height="13.0625" filterUnits="userSpaceOnUse" color-interpolation-filters="sRGB">
<feFlood flood-opacity="0" result="BackgroundImageFix"/>
<feColorMatrix in="SourceAlpha" type="matrix" values="0 0 0 0 0 0 0 0 0 0 0 0 0 0 0 0 0 0 127 0" result="hardAlpha"/>
<feOffset dy="2"/>
<feGaussianBlur stdDeviation="2"/>
<feComposite in2="hardAlpha" operator="out"/>
<feColorMatrix type="matrix" values="0 0 0 0 0 0 0 0 0 0 0 0 0 0 0 0 0 0 0.25 0"/>
<feBlend mode="normal" in2="BackgroundImageFix" result="effect1_dropShadow_32_12531"/>
<feBlend mode="normal" in="SourceGraphic" in2="effect1_dropShadow_32_12531" result="shape"/>
</filter>
<filter id="filter3_d_32_12531" x="7.25" y="1.375" width="11.375" height="11.375" filterUnits="userSpaceOnUse" color-interpolation-filters="sRGB">
<feFlood flood-opacity="0" result="BackgroundImageFix"/>
<feColorMatrix in="SourceAlpha" type="matrix" values="0 0 0 0 0 0 0 0 0 0 0 0 0 0 0 0 0 0 127 0" result="hardAlpha"/>
<feOffset dy="2"/>
<feGaussianBlur stdDeviation="2"/>
<feComposite in2="hardAlpha" operator="out"/>
<feColorMatrix type="matrix" values="0 0 0 0 0 0 0 0 0 0 0 0 0 0 0 0 0 0 0.25 0"/>
<feBlend mode="normal" in2="BackgroundImageFix" result="effect1_dropShadow_32_12531"/>
<feBlend mode="normal" in="SourceGraphic" in2="effect1_dropShadow_32_12531" result="shape"/>
</filter>
<linearGradient id="paint0_linear_32_12531" x1="18" y1="0" x2="0" y2="18" gradientUnits="userSpaceOnUse">
<stop stop-color="#97989A"/>
<stop offset="1" stop-color="#505050"/>
</linearGradient>
<linearGradient id="paint1_linear_32_12531" x1="9" y1="3.375" x2="9" y2="14.625" gradientUnits="userSpaceOnUse">
<stop stop-color="#FAFAFA"/>
<stop offset="1" stop-color="#D5D5D5"/>
</linearGradient>
<linearGradient id="paint2_linear_32_12531" x1="5.625" y1="10.125" x2="5.625" y2="13.5" gradientUnits="userSpaceOnUse">
<stop stop-opacity="0"/>
<stop offset="1" stop-opacity="0.2"/>
</linearGradient>
<linearGradient id="paint3_linear_32_12531" x1="7.875" y1="9" x2="7.875" y2="13.5" gradientUnits="userSpaceOnUse">
<stop stop-opacity="0"/>
<stop offset="1" stop-opacity="0.2"/>
</linearGradient>
<linearGradient id="paint4_linear_32_12531" x1="10.125" y1="11.25" x2="10.125" y2="13.5" gradientUnits="userSpaceOnUse">
<stop stop-opacity="0"/>
<stop offset="1" stop-opacity="0.2"/>
</linearGradient>
<linearGradient id="paint5_linear_32_12531" x1="12.375" y1="10.125" x2="12.375" y2="13.5" gradientUnits="userSpaceOnUse">
<stop stop-opacity="0"/>
<stop offset="1" stop-opacity="0.2"/>
</linearGradient>
<clipPath id="clip0_32_12531">
<rect width="18" height="18" fill="white"/>
</clipPath>
</defs>
</svg>
