<svg width="18" height="18" viewBox="0 0 18 18" fill="none" xmlns="http://www.w3.org/2000/svg">
<g clip-path="url(#clip0_32_12594)">
<path d="M13.5 0H4.5C2.01472 0 0 2.01472 0 4.5V13.5C0 15.9853 2.01472 18 4.5 18H13.5C15.9853 18 18 15.9853 18 13.5V4.5C18 2.01472 15.9853 0 13.5 0Z" fill="url(#paint0_linear_32_12594)"/>
<g filter="url(#filter0_i_32_12594)">
<path d="M13.5 1.125H4.5C2.63604 1.125 1.125 2.63604 1.125 4.5V13.5C1.125 15.364 2.63604 16.875 4.5 16.875H13.5C15.364 16.875 16.875 15.364 16.875 13.5V4.5C16.875 2.63604 15.364 1.125 13.5 1.125Z" fill="black" fill-opacity="0.7"/>
<g filter="url(#filter1_d_32_12594)">
<path fill-rule="evenodd" clip-rule="evenodd" d="M8.85938 3.375H5.20312C4.5818 3.375 4.07812 3.87868 4.07812 4.5V13.5C4.07812 14.1213 4.5818 14.625 5.20312 14.625H12.7969C13.4182 14.625 13.9219 14.1213 13.9219 13.5V8.4375L8.85938 3.375Z" fill="url(#paint1_linear_32_12594)"/>
</g>
<g filter="url(#filter2_d_32_12594)">
<path d="M13.9219 4.5C13.9219 3.87868 13.4182 3.375 12.7969 3.375H10.5469L13.9219 6.75V4.5Z" fill="#97989A"/>
</g>
<path d="M5.48438 9.84375H12.5156M5.48438 10.9688H12.5156M5.48438 12.0938H11.1094" stroke="white" stroke-width="4" stroke-linecap="round" stroke-linejoin="round"/>
<path d="M6.04688 8.15625H5.625C5.54733 8.15625 5.48438 8.09329 5.48438 8.01562V6.04688C5.48438 5.96921 5.54733 5.90625 5.625 5.90625H8.71875C8.79642 5.90625 8.85938 5.96921 8.85938 6.04688V8.01562C8.85938 8.09329 8.79642 8.15625 8.71875 8.15625H7.59375M6.04688 8.15625L6.39834 7.68765C6.43911 7.63327 6.51293 7.61584 6.57373 7.64623L7.59375 8.15625M6.04688 8.15625H7.59375" stroke="white" stroke-opacity="0.7" stroke-width="4" stroke-linecap="round" stroke-linejoin="round"/>
<path d="M7.3125 7.3125C7.46783 7.3125 7.59375 7.18658 7.59375 7.03125C7.59375 6.87592 7.46783 6.75 7.3125 6.75C7.15717 6.75 7.03125 6.87592 7.03125 7.03125C7.03125 7.18658 7.15717 7.3125 7.3125 7.3125Z" fill="white" fill-opacity="0.7"/>
</g>
</g>
<defs>
<filter id="filter0_i_32_12594" x="1.125" y="1.125" width="15.75" height="19.75" filterUnits="userSpaceOnUse" color-interpolation-filters="sRGB">
<feFlood flood-opacity="0" result="BackgroundImageFix"/>
<feBlend mode="normal" in="SourceGraphic" in2="BackgroundImageFix" result="shape"/>
<feColorMatrix in="SourceAlpha" type="matrix" values="0 0 0 0 0 0 0 0 0 0 0 0 0 0 0 0 0 0 127 0" result="hardAlpha"/>
<feOffset dy="4"/>
<feGaussianBlur stdDeviation="2"/>
<feComposite in2="hardAlpha" operator="arithmetic" k2="-1" k3="1"/>
<feColorMatrix type="matrix" values="0 0 0 0 0 0 0 0 0 0 0 0 0 0 0 0 0 0 0.25 0"/>
<feBlend mode="normal" in2="shape" result="effect1_innerShadow_32_12594"/>
</filter>
<filter id="filter1_d_32_12594" x="0.078125" y="1.375" width="17.8438" height="19.25" filterUnits="userSpaceOnUse" color-interpolation-filters="sRGB">
<feFlood flood-opacity="0" result="BackgroundImageFix"/>
<feColorMatrix in="SourceAlpha" type="matrix" values="0 0 0 0 0 0 0 0 0 0 0 0 0 0 0 0 0 0 127 0" result="hardAlpha"/>
<feOffset dy="2"/>
<feGaussianBlur stdDeviation="2"/>
<feComposite in2="hardAlpha" operator="out"/>
<feColorMatrix type="matrix" values="0 0 0 0 0 0 0 0 0 0 0 0 0 0 0 0 0 0 0.25 0"/>
<feBlend mode="normal" in2="BackgroundImageFix" result="effect1_dropShadow_32_12594"/>
<feBlend mode="normal" in="SourceGraphic" in2="effect1_dropShadow_32_12594" result="shape"/>
</filter>
<filter id="filter2_d_32_12594" x="6.54688" y="1.375" width="11.375" height="11.375" filterUnits="userSpaceOnUse" color-interpolation-filters="sRGB">
<feFlood flood-opacity="0" result="BackgroundImageFix"/>
<feColorMatrix in="SourceAlpha" type="matrix" values="0 0 0 0 0 0 0 0 0 0 0 0 0 0 0 0 0 0 127 0" result="hardAlpha"/>
<feOffset dy="2"/>
<feGaussianBlur stdDeviation="2"/>
<feComposite in2="hardAlpha" operator="out"/>
<feColorMatrix type="matrix" values="0 0 0 0 0 0 0 0 0 0 0 0 0 0 0 0 0 0 0.25 0"/>
<feBlend mode="normal" in2="BackgroundImageFix" result="effect1_dropShadow_32_12594"/>
<feBlend mode="normal" in="SourceGraphic" in2="effect1_dropShadow_32_12594" result="shape"/>
</filter>
<linearGradient id="paint0_linear_32_12594" x1="18" y1="0" x2="0" y2="18" gradientUnits="userSpaceOnUse">
<stop stop-color="#1FCAF8"/>
<stop offset="1" stop-color="#0D44B1"/>
</linearGradient>
<linearGradient id="paint1_linear_32_12594" x1="13.9219" y1="3.375" x2="2.67188" y2="14.625" gradientUnits="userSpaceOnUse">
<stop stop-color="#1FCAF8"/>
<stop offset="1" stop-color="#0D44B1"/>
</linearGradient>
<clipPath id="clip0_32_12594">
<rect width="18" height="18" fill="white"/>
</clipPath>
</defs>
</svg>
