<svg width="18" height="18" viewBox="0 0 18 18" fill="none" xmlns="http://www.w3.org/2000/svg">
<g clip-path="url(#clip0_32_12578)">
<path d="M13.5 0H4.5C2.01472 0 0 2.01472 0 4.5V13.5C0 15.9853 2.01472 18 4.5 18H13.5C15.9853 18 18 15.9853 18 13.5V4.5C18 2.01472 15.9853 0 13.5 0Z" fill="url(#paint0_linear_32_12578)"/>
<g filter="url(#filter0_i_32_12578)">
<path d="M13.5 1.125H4.5C2.63604 1.125 1.125 2.63604 1.125 4.5V13.5C1.125 15.364 2.63604 16.875 4.5 16.875H13.5C15.364 16.875 16.875 15.364 16.875 13.5V4.5C16.875 2.63604 15.364 1.125 13.5 1.125Z" fill="black" fill-opacity="0.7"/>
<g filter="url(#filter1_d_32_12578)">
<path fill-rule="evenodd" clip-rule="evenodd" d="M9.5625 3.375H4.5C3.87868 3.375 3.375 3.87868 3.375 4.5V13.5C3.375 14.1213 3.87868 14.625 4.5 14.625H13.5C14.1213 14.625 14.625 14.1213 14.625 13.5V8.4375L9.5625 3.375Z" fill="url(#paint1_linear_32_12578)"/>
</g>
<g filter="url(#filter2_d_32_12578)">
<path d="M9.5625 7.3125C9.5625 7.93382 10.0662 8.4375 10.6875 8.4375H14.6249L9.5625 3.375V7.3125Z" fill="#FAFAFA"/>
</g>
<g filter="url(#filter3_d_32_12578)">
<path d="M14.6249 4.5C14.6249 3.87868 14.1214 3.375 13.5 3.375H11.25L14.6249 6.75V4.5Z" fill="#97989A"/>
</g>
<mask id="mask0_32_12578" style="mask-type:alpha" maskUnits="userSpaceOnUse" x="6" y="8" width="6" height="7">
<path d="M11.8125 8.4375H6.1875V14.0625H11.8125V8.4375Z" fill="#D9D9D9"/>
</mask>
<g mask="url(#mask0_32_12578)">
<path fill-rule="evenodd" clip-rule="evenodd" d="M8.76562 13.125H9.22852L9.31054 12.5039C9.43163 12.4727 9.54394 12.4268 9.64747 12.3662C9.75098 12.3057 9.8457 12.2324 9.93164 12.1465L10.5117 12.3867L10.7402 11.9883L10.2363 11.6074C10.2559 11.5527 10.2695 11.4951 10.2773 11.4346C10.2852 11.374 10.2891 11.3125 10.2891 11.25C10.2891 11.1875 10.2852 11.126 10.2773 11.0654C10.2695 11.0049 10.2559 10.9473 10.2363 10.8926L10.7402 10.5117L10.5117 10.1133L9.93164 10.3594C9.8457 10.2695 9.75098 10.1943 9.64747 10.1338C9.54394 10.0732 9.43163 10.0273 9.31054 9.99608L9.23438 9.375H8.77148L8.68946 9.99608C8.56835 10.0273 8.45605 10.0732 8.35253 10.1338C8.24902 10.1943 8.1543 10.2676 8.06836 10.3535L7.48828 10.1133L7.25977 10.5117L7.76367 10.8867C7.74413 10.9453 7.73047 11.0039 7.72266 11.0625C7.71484 11.1211 7.71093 11.1836 7.71093 11.25C7.71093 11.3125 7.71484 11.373 7.72266 11.4316C7.73047 11.4902 7.74413 11.5488 7.76367 11.6074L7.25977 11.9883L7.48828 12.3867L8.06836 12.1406C8.1543 12.2305 8.24902 12.3057 8.35253 12.3662C8.45605 12.4268 8.56835 12.4727 8.68946 12.5039L8.76562 13.125ZM9.59179 11.8301C9.43163 11.9902 9.23827 12.0703 9.01171 12.0703C8.78124 12.0703 8.58691 11.9902 8.42871 11.8301C8.27051 11.6699 8.19141 11.4766 8.19141 11.25C8.19141 11.0234 8.27051 10.8301 8.42871 10.6699C8.58691 10.5098 8.78124 10.4297 9.01171 10.4297C9.23827 10.4297 9.43163 10.5098 9.59179 10.6699C9.75195 10.8301 9.83204 11.0234 9.83204 11.25C9.83204 11.4766 9.75195 11.6699 9.59179 11.8301Z" fill="url(#paint2_linear_32_12578)"/>
<path fill-rule="evenodd" clip-rule="evenodd" d="M8.40812 13.5352C8.45108 13.5742 8.50186 13.5938 8.56046 13.5938H9.43936C9.49796 13.5938 9.54874 13.5742 9.5917 13.5352C9.63468 13.4961 9.66006 13.4473 9.66788 13.3887L9.73819 12.8437C9.78506 12.8242 9.83195 12.8008 9.87882 12.7734C9.92569 12.7461 9.97062 12.7168 10.0136 12.6855L10.5116 12.8965C10.5663 12.9199 10.622 12.9219 10.6786 12.9023C10.7353 12.8828 10.7792 12.8477 10.8105 12.7969L11.244 12.0469C11.2753 11.9961 11.2851 11.9414 11.2734 11.8828C11.2616 11.8242 11.2323 11.7773 11.1855 11.7422L10.746 11.4082C10.7538 11.3809 10.7577 11.3545 10.7577 11.3291V11.1709C10.7577 11.1455 10.7558 11.1192 10.7519 11.0918L11.1913 10.7578C11.2382 10.7227 11.2675 10.6758 11.2792 10.6172C11.2909 10.5586 11.2812 10.5039 11.2499 10.4531L10.8163 9.69727C10.7851 9.64649 10.7421 9.61231 10.6874 9.59474C10.6327 9.57716 10.578 9.58008 10.5233 9.60353L10.0136 9.81446C9.97062 9.78322 9.92667 9.75391 9.88174 9.72657C9.83683 9.69922 9.78897 9.67579 9.73819 9.65626L9.66788 9.11134C9.66006 9.05274 9.63468 9.00391 9.5917 8.96485C9.54874 8.92578 9.49796 8.90625 9.43936 8.90625H8.56046C8.50186 8.90625 8.45108 8.92578 8.40812 8.96485C8.36514 9.00391 8.33975 9.05274 8.33194 9.11134L8.26163 9.65626C8.21476 9.67579 8.16788 9.69922 8.121 9.72657C8.07413 9.75391 8.0292 9.78322 7.98624 9.81446L7.47648 9.60353C7.42179 9.58008 7.3671 9.57716 7.31241 9.59474C7.25772 9.61231 7.21475 9.64649 7.1835 9.69727L6.74991 10.4531C6.71866 10.5039 6.70889 10.5586 6.72062 10.6172C6.73233 10.6758 6.76162 10.7227 6.80851 10.7578L7.24796 11.0918C7.24405 11.1192 7.2421 11.1455 7.2421 11.1709V11.3291C7.2421 11.3545 7.24405 11.3809 7.24796 11.4082L6.80851 11.7422C6.76162 11.7773 6.73233 11.8242 6.72062 11.8828C6.70889 11.9414 6.71866 11.9961 6.74991 12.0469L7.1835 12.8027C7.21475 12.8535 7.25772 12.8877 7.31241 12.9053C7.3671 12.9229 7.42179 12.9199 7.47648 12.8965L7.98624 12.6855C8.0292 12.7168 8.07315 12.7461 8.11808 12.7734C8.163 12.8008 8.21085 12.8242 8.26163 12.8437L8.33194 13.3887C8.33975 13.4473 8.36514 13.4961 8.40812 13.5352ZM9.22843 13.125H8.76553L8.68937 12.5039C8.56826 12.4727 8.45596 12.4268 8.35245 12.3662C8.24893 12.3057 8.15421 12.2305 8.06827 12.1406L7.48819 12.3867L7.25968 11.9883L7.76358 11.6074C7.74405 11.5488 7.73038 11.4902 7.72257 11.4316C7.71475 11.3731 7.71084 11.3125 7.71084 11.25C7.71084 11.1836 7.71475 11.1211 7.72257 11.0625C7.73038 11.0039 7.74405 10.9453 7.76358 10.8867L7.25968 10.5117L7.48819 10.1133L8.06827 10.3535C8.15421 10.2676 8.24893 10.1943 8.35245 10.1338C8.45596 10.0733 8.56826 10.0274 8.68937 9.99609L8.7714 9.37501H9.23429L9.31045 9.99609C9.43155 10.0274 9.54385 10.0733 9.64738 10.1338C9.75089 10.1943 9.84562 10.2695 9.93155 10.3594L10.5116 10.1133L10.7401 10.5117L10.2362 10.8926C10.2558 10.9473 10.2694 11.0049 10.2772 11.0654C10.2851 11.126 10.289 11.1875 10.289 11.25C10.289 11.3125 10.2851 11.374 10.2772 11.4346C10.2694 11.4951 10.2558 11.5527 10.2362 11.6074L10.7401 11.9883L10.5116 12.3867L9.93155 12.1465C9.84562 12.2324 9.75089 12.3057 9.64738 12.3662C9.54385 12.4268 9.43155 12.4727 9.31045 12.5039L9.22843 13.125Z" fill="url(#paint3_linear_32_12578)"/>
</g>
</g>
</g>
<defs>
<filter id="filter0_i_32_12578" x="1.125" y="1.125" width="15.75" height="19.75" filterUnits="userSpaceOnUse" color-interpolation-filters="sRGB">
<feFlood flood-opacity="0" result="BackgroundImageFix"/>
<feBlend mode="normal" in="SourceGraphic" in2="BackgroundImageFix" result="shape"/>
<feColorMatrix in="SourceAlpha" type="matrix" values="0 0 0 0 0 0 0 0 0 0 0 0 0 0 0 0 0 0 127 0" result="hardAlpha"/>
<feOffset dy="4"/>
<feGaussianBlur stdDeviation="2"/>
<feComposite in2="hardAlpha" operator="arithmetic" k2="-1" k3="1"/>
<feColorMatrix type="matrix" values="0 0 0 0 0 0 0 0 0 0 0 0 0 0 0 0 0 0 0.25 0"/>
<feBlend mode="normal" in2="shape" result="effect1_innerShadow_32_12578"/>
</filter>
<filter id="filter1_d_32_12578" x="-0.625" y="1.375" width="19.25" height="19.25" filterUnits="userSpaceOnUse" color-interpolation-filters="sRGB">
<feFlood flood-opacity="0" result="BackgroundImageFix"/>
<feColorMatrix in="SourceAlpha" type="matrix" values="0 0 0 0 0 0 0 0 0 0 0 0 0 0 0 0 0 0 127 0" result="hardAlpha"/>
<feOffset dy="2"/>
<feGaussianBlur stdDeviation="2"/>
<feComposite in2="hardAlpha" operator="out"/>
<feColorMatrix type="matrix" values="0 0 0 0 0 0 0 0 0 0 0 0 0 0 0 0 0 0 0.25 0"/>
<feBlend mode="normal" in2="BackgroundImageFix" result="effect1_dropShadow_32_12578"/>
<feBlend mode="normal" in="SourceGraphic" in2="effect1_dropShadow_32_12578" result="shape"/>
</filter>
<filter id="filter2_d_32_12578" x="5.5625" y="1.375" width="13.0625" height="13.0625" filterUnits="userSpaceOnUse" color-interpolation-filters="sRGB">
<feFlood flood-opacity="0" result="BackgroundImageFix"/>
<feColorMatrix in="SourceAlpha" type="matrix" values="0 0 0 0 0 0 0 0 0 0 0 0 0 0 0 0 0 0 127 0" result="hardAlpha"/>
<feOffset dy="2"/>
<feGaussianBlur stdDeviation="2"/>
<feComposite in2="hardAlpha" operator="out"/>
<feColorMatrix type="matrix" values="0 0 0 0 0 0 0 0 0 0 0 0 0 0 0 0 0 0 0.25 0"/>
<feBlend mode="normal" in2="BackgroundImageFix" result="effect1_dropShadow_32_12578"/>
<feBlend mode="normal" in="SourceGraphic" in2="effect1_dropShadow_32_12578" result="shape"/>
</filter>
<filter id="filter3_d_32_12578" x="7.25" y="1.375" width="11.375" height="11.375" filterUnits="userSpaceOnUse" color-interpolation-filters="sRGB">
<feFlood flood-opacity="0" result="BackgroundImageFix"/>
<feColorMatrix in="SourceAlpha" type="matrix" values="0 0 0 0 0 0 0 0 0 0 0 0 0 0 0 0 0 0 127 0" result="hardAlpha"/>
<feOffset dy="2"/>
<feGaussianBlur stdDeviation="2"/>
<feComposite in2="hardAlpha" operator="out"/>
<feColorMatrix type="matrix" values="0 0 0 0 0 0 0 0 0 0 0 0 0 0 0 0 0 0 0.25 0"/>
<feBlend mode="normal" in2="BackgroundImageFix" result="effect1_dropShadow_32_12578"/>
<feBlend mode="normal" in="SourceGraphic" in2="effect1_dropShadow_32_12578" result="shape"/>
</filter>
<linearGradient id="paint0_linear_32_12578" x1="18" y1="0" x2="0" y2="18" gradientUnits="userSpaceOnUse">
<stop stop-color="#97989A"/>
<stop offset="1" stop-color="#505050"/>
</linearGradient>
<linearGradient id="paint1_linear_32_12578" x1="9" y1="3.375" x2="9" y2="14.625" gradientUnits="userSpaceOnUse">
<stop stop-color="#FAFAFA"/>
<stop offset="1" stop-color="#D5D5D5"/>
</linearGradient>
<linearGradient id="paint2_linear_32_12578" x1="9" y1="8.90624" x2="9" y2="13.5937" gradientUnits="userSpaceOnUse">
<stop stop-color="#34C8FF"/>
<stop offset="1" stop-color="#2192E1"/>
</linearGradient>
<linearGradient id="paint3_linear_32_12578" x1="8.99991" y1="8.90625" x2="8.99991" y2="13.5938" gradientUnits="userSpaceOnUse">
<stop stop-color="#34C8FF"/>
<stop offset="1" stop-color="#2192E1"/>
</linearGradient>
<clipPath id="clip0_32_12578">
<rect width="18" height="18" fill="white"/>
</clipPath>
</defs>
</svg>
