<svg width="18" height="18" viewBox="0 0 18 18" fill="none" xmlns="http://www.w3.org/2000/svg">
<g clip-path="url(#clip0_32_12637)">
<path d="M13.5 0H4.5C2.01472 0 0 2.01472 0 4.5V13.5C0 15.9853 2.01472 18 4.5 18H13.5C15.9853 18 18 15.9853 18 13.5V4.5C18 2.01472 15.9853 0 13.5 0Z" fill="url(#paint0_linear_32_12637)"/>
<g filter="url(#filter0_i_32_12637)">
<path d="M13.5 1.125H4.5C2.63604 1.125 1.125 2.63604 1.125 4.5V13.5C1.125 15.364 2.63604 16.875 4.5 16.875H13.5C15.364 16.875 16.875 15.364 16.875 13.5V4.5C16.875 2.63604 15.364 1.125 13.5 1.125Z" fill="black" fill-opacity="0.7"/>
<mask id="mask0_32_12637" style="mask-type:luminance" maskUnits="userSpaceOnUse" x="2" y="3" width="14" height="12">
<path d="M15.75 3.23438H2.25V14.7656H15.75V3.23438Z" fill="white"/>
</mask>
<g mask="url(#mask0_32_12637)">
<g filter="url(#filter1_d_32_12637)">
<path d="M4.23364 4.74222C4.72293 6.47787 4.50614 8.64961 14.8078 5.36298L15.3541 10.3581C15.4509 11.2423 14.7614 12.0262 13.8083 12.1156C11.3316 7.39706 5.68933 8.05167 3.23418 11.4948L2.68776 6.49973C2.59103 5.61547 3.28048 4.83161 4.23364 4.74222Z" fill="#08A7E6"/>
<path d="M4.23383 4.74222L12.9128 3.92819C13.866 3.8388 14.7112 4.47871 14.8078 5.36298C9.54668 6.65406 9.19087 10.1472 13.8084 12.1156L5.12945 12.9296C4.17631 13.019 3.3311 12.3791 3.23438 11.4948C9.27963 9.59466 8.57599 6.96827 4.23383 4.74222Z" fill="#322374"/>
<path d="M13.9799 4.72824H4.03198C3.55911 4.72824 3.17578 5.11054 3.17578 5.58213V11.438C3.17578 11.9096 3.55911 12.2919 4.03198 12.2919H13.9799C14.4528 12.2919 14.8362 11.9096 14.8362 11.438V5.58213C14.8362 5.11054 14.4528 4.72824 13.9799 4.72824Z" fill="white"/>
<path d="M11.5879 12.2877C11.5879 11.8734 11.753 11.476 12.0467 11.1829C12.3405 10.8899 12.7389 10.7252 13.1544 10.725C13.5698 10.7248 13.9684 10.8892 14.2624 11.182C14.5564 11.4747 14.7218 11.872 14.7222 12.2863C14.7226 12.7007 14.5581 13.0983 14.2646 13.3916C13.9712 13.685 13.573 13.8502 13.1576 13.8509C12.7421 13.8515 12.3433 13.6876 12.049 13.3952C11.7547 13.1027 11.5888 12.7057 11.5879 12.2914" fill="white"/>
<path d="M11.5879 12.2877C11.5879 11.8734 11.753 11.476 12.0467 11.1829C12.3405 10.8899 12.7389 10.7252 13.1544 10.725C13.5698 10.7248 13.9684 10.8892 14.2624 11.182C14.5564 11.4747 14.7218 11.872 14.7222 12.2863C14.7226 12.7007 14.5581 13.0983 14.2646 13.3916C13.9712 13.685 13.573 13.8502 13.1576 13.8509C12.7421 13.8515 12.3433 13.6876 12.049 13.3952C11.7547 13.1027 11.5888 12.7057 11.5879 12.2914" stroke="#322374" stroke-width="2.66667" stroke-linecap="round" stroke-linejoin="round"/>
<path fill-rule="evenodd" clip-rule="evenodd" d="M12.5141 11.2756L14.3671 12.3425L12.5107 13.3527L12.5141 11.2756Z" fill="black"/>
</g>
</g>
</g>
</g>
<defs>
<filter id="filter0_i_32_12637" x="1.125" y="1.125" width="15.75" height="19.75" filterUnits="userSpaceOnUse" color-interpolation-filters="sRGB">
<feFlood flood-opacity="0" result="BackgroundImageFix"/>
<feBlend mode="normal" in="SourceGraphic" in2="BackgroundImageFix" result="shape"/>
<feColorMatrix in="SourceAlpha" type="matrix" values="0 0 0 0 0 0 0 0 0 0 0 0 0 0 0 0 0 0 127 0" result="hardAlpha"/>
<feOffset dy="4"/>
<feGaussianBlur stdDeviation="2"/>
<feComposite in2="hardAlpha" operator="arithmetic" k2="-1" k3="1"/>
<feColorMatrix type="matrix" values="0 0 0 0 0 0 0 0 0 0 0 0 0 0 0 0 0 0 0.25 0"/>
<feBlend mode="normal" in2="shape" result="effect1_innerShadow_32_12637"/>
</filter>
<filter id="filter1_d_32_12637" x="-1.32129" y="1.91986" width="21.377" height="19.2643" filterUnits="userSpaceOnUse" color-interpolation-filters="sRGB">
<feFlood flood-opacity="0" result="BackgroundImageFix"/>
<feColorMatrix in="SourceAlpha" type="matrix" values="0 0 0 0 0 0 0 0 0 0 0 0 0 0 0 0 0 0 127 0" result="hardAlpha"/>
<feOffset dy="2"/>
<feGaussianBlur stdDeviation="2"/>
<feComposite in2="hardAlpha" operator="out"/>
<feColorMatrix type="matrix" values="0 0 0 0 0 0 0 0 0 0 0 0 0 0 0 0 0 0 0.25 0"/>
<feBlend mode="normal" in2="BackgroundImageFix" result="effect1_dropShadow_32_12637"/>
<feBlend mode="normal" in="SourceGraphic" in2="effect1_dropShadow_32_12637" result="shape"/>
</filter>
<linearGradient id="paint0_linear_32_12637" x1="3.72656" y1="13.9219" x2="17.7888" y2="2.88242" gradientUnits="userSpaceOnUse">
<stop stop-color="#322374"/>
<stop offset="1" stop-color="#08A7E6"/>
</linearGradient>
<clipPath id="clip0_32_12637">
<rect width="18" height="18" fill="white"/>
</clipPath>
</defs>
</svg>
