<svg width="18" height="18" viewBox="0 0 18 18" fill="none" xmlns="http://www.w3.org/2000/svg">
<g clip-path="url(#clip0_32_12652)">
<path d="M13.5 0H4.5C2.01472 0 0 2.01472 0 4.5V13.5C0 15.9853 2.01472 18 4.5 18H13.5C15.9853 18 18 15.9853 18 13.5V4.5C18 2.01472 15.9853 0 13.5 0Z" fill="url(#paint0_linear_32_12652)"/>
<g filter="url(#filter0_i_32_12652)">
<path d="M13.5 1.125H4.5C2.63604 1.125 1.125 2.63604 1.125 4.5V13.5C1.125 15.364 2.63604 16.875 4.5 16.875H13.5C15.364 16.875 16.875 15.364 16.875 13.5V4.5C16.875 2.63604 15.364 1.125 13.5 1.125Z" fill="black" fill-opacity="0.7"/>
<mask id="mask0_32_12652" style="mask-type:luminance" maskUnits="userSpaceOnUse" x="3" y="3" width="12" height="12">
<path d="M14.625 3.375H3.375V14.625H14.625V3.375Z" fill="white"/>
</mask>
<g mask="url(#mask0_32_12652)">
<path d="M4.05191 3.85986L10.2769 3.40007C11.0415 3.33448 11.238 3.3787 11.7188 3.72823L13.7059 5.12807C14.0336 5.36882 14.1427 5.43441 14.1427 5.69653V13.3739C14.1427 13.855 13.968 14.1397 13.3563 14.1831L6.12754 14.6209C5.66854 14.6427 5.44995 14.577 5.20954 14.2707L3.74625 12.3679C3.48379 12.0177 3.375 11.7556 3.375 11.4491V4.62486C3.375 4.23145 3.54971 3.9034 4.05191 3.85986Z" fill="white"/>
<g filter="url(#filter1_d_32_12652)">
<path fill-rule="evenodd" clip-rule="evenodd" d="M10.2769 3.40018L4.05191 3.85997C3.54971 3.9034 3.375 4.23156 3.375 4.62486V11.4491C3.375 11.7554 3.48379 12.0176 3.74625 12.3679L5.20954 14.2706C5.44995 14.577 5.66854 14.6427 6.12754 14.6209L13.3565 14.1833C13.9677 14.1397 14.1428 13.855 14.1428 13.374V5.69665C14.1428 5.44802 14.0446 5.37636 13.7555 5.16418L11.7188 3.72823C11.2381 3.3787 11.0415 3.3346 10.2769 3.40018ZM6.291 5.57098C5.70071 5.6107 5.56684 5.6197 5.23159 5.34711L4.37929 4.66918C4.29266 4.58143 4.3362 4.47197 4.55445 4.45015L10.5387 4.01286C11.0412 3.96898 11.3029 4.14415 11.4994 4.29715L12.5257 5.04077C12.5696 5.06293 12.6788 5.19377 12.5475 5.19377L6.3675 5.56581L6.291 5.57098ZM5.60284 13.3084V6.79093C5.60284 6.50631 5.69025 6.37502 5.95192 6.35297L13.05 5.9374C13.2908 5.91568 13.3995 6.06868 13.3995 6.35286V12.8269C13.3995 13.1115 13.3557 13.3523 12.9627 13.374L6.17029 13.7677C5.77733 13.7894 5.60284 13.6586 5.60284 13.3084ZM12.3078 7.14036C12.3514 7.33723 12.3078 7.53411 12.111 7.55661L11.7836 7.62152V12.4335C11.4993 12.5865 11.2376 12.6739 11.0189 12.6739C10.6694 12.6739 10.5821 12.5644 10.3203 12.2366L8.17942 8.86836V12.1271L8.85668 12.2805C8.85668 12.2805 8.85667 12.6742 8.31026 12.6742L6.80389 12.7616C6.76001 12.6739 6.80389 12.4553 6.95655 12.4118L7.34996 12.3026V7.9939L6.804 7.94968C6.76012 7.75281 6.86925 7.46852 7.17525 7.44647L8.79154 7.33768L11.019 10.7495V7.7311L10.4512 7.66585C10.4074 7.42476 10.5821 7.2496 10.8003 7.22822L12.3078 7.14036Z" fill="black"/>
</g>
</g>
</g>
</g>
<defs>
<filter id="filter0_i_32_12652" x="1.125" y="1.125" width="15.75" height="19.75" filterUnits="userSpaceOnUse" color-interpolation-filters="sRGB">
<feFlood flood-opacity="0" result="BackgroundImageFix"/>
<feBlend mode="normal" in="SourceGraphic" in2="BackgroundImageFix" result="shape"/>
<feColorMatrix in="SourceAlpha" type="matrix" values="0 0 0 0 0 0 0 0 0 0 0 0 0 0 0 0 0 0 127 0" result="hardAlpha"/>
<feOffset dy="4"/>
<feGaussianBlur stdDeviation="2"/>
<feComposite in2="hardAlpha" operator="arithmetic" k2="-1" k3="1"/>
<feColorMatrix type="matrix" values="0 0 0 0 0 0 0 0 0 0 0 0 0 0 0 0 0 0 0.25 0"/>
<feBlend mode="normal" in2="shape" result="effect1_innerShadow_32_12652"/>
</filter>
<filter id="filter1_d_32_12652" x="-0.625" y="1.3746" width="18.7676" height="19.2501" filterUnits="userSpaceOnUse" color-interpolation-filters="sRGB">
<feFlood flood-opacity="0" result="BackgroundImageFix"/>
<feColorMatrix in="SourceAlpha" type="matrix" values="0 0 0 0 0 0 0 0 0 0 0 0 0 0 0 0 0 0 127 0" result="hardAlpha"/>
<feOffset dy="2"/>
<feGaussianBlur stdDeviation="2"/>
<feComposite in2="hardAlpha" operator="out"/>
<feColorMatrix type="matrix" values="0 0 0 0 0 0 0 0 0 0 0 0 0 0 0 0 0 0 0.25 0"/>
<feBlend mode="normal" in2="BackgroundImageFix" result="effect1_dropShadow_32_12652"/>
<feBlend mode="normal" in="SourceGraphic" in2="effect1_dropShadow_32_12652" result="shape"/>
</filter>
<linearGradient id="paint0_linear_32_12652" x1="9" y1="0" x2="9" y2="18" gradientUnits="userSpaceOnUse">
<stop stop-color="white"/>
<stop offset="1" stop-color="#DFDFDF"/>
</linearGradient>
<clipPath id="clip0_32_12652">
<rect width="18" height="18" fill="white"/>
</clipPath>
</defs>
</svg>
