<svg width="18" height="18" viewBox="0 0 18 18" fill="none" xmlns="http://www.w3.org/2000/svg">
<g clip-path="url(#clip0_32_12681)">
<path d="M13.5 0H4.5C2.01472 0 0 2.01472 0 4.5V13.5C0 15.9853 2.01472 18 4.5 18H13.5C15.9853 18 18 15.9853 18 13.5V4.5C18 2.01472 15.9853 0 13.5 0Z" fill="url(#paint0_linear_32_12681)"/>
<g filter="url(#filter0_i_32_12681)">
<path d="M13.5 1.125H4.5C2.63604 1.125 1.125 2.63604 1.125 4.5V13.5C1.125 15.364 2.63604 16.875 4.5 16.875H13.5C15.364 16.875 16.875 15.364 16.875 13.5V4.5C16.875 2.63604 15.364 1.125 13.5 1.125Z" fill="black" fill-opacity="0.7"/>
<g filter="url(#filter1_d_32_12681)">
<path d="M8.99989 3.37525C5.89337 3.37525 3.375 5.89361 3.375 9.00014C3.375 12.0168 5.74989 14.4788 8.732 14.6185C8.821 14.6228 8.91013 14.625 8.99997 14.625C10.4401 14.625 11.7535 14.0836 12.7486 13.1936C12.0893 13.6309 11.3184 13.8825 10.4946 13.8825C9.15507 13.8825 7.9554 13.2179 7.14856 12.17C6.52658 11.4358 6.12373 10.3505 6.09629 9.13254V8.86766C6.12371 7.6497 6.52656 6.56419 7.14839 5.83017C7.95537 4.78225 9.155 4.11773 10.4944 4.11773C11.3185 4.11773 12.0895 4.36933 12.7489 4.80687C11.7586 3.92099 10.4532 3.3806 9.02105 3.37528C9.01391 3.37528 9.00692 3.375 8.99978 3.375L8.99989 3.37525Z" fill="#FF1B2D"/>
<path d="M7.14844 5.83049C7.66463 5.22112 8.33126 4.85366 9.05959 4.85366C10.6972 4.85366 12.0244 6.71023 12.0244 9.00039C12.0244 11.2906 10.6971 13.1471 9.05959 13.1471C8.33126 13.1471 7.66463 12.7798 7.14858 12.1704C7.9554 13.2183 9.15497 13.8829 10.4946 13.8829C11.3185 13.8829 12.0894 13.6313 12.7487 13.194C13.9 12.164 14.625 10.6669 14.625 9.00043C14.625 7.33415 13.9001 5.83715 12.7491 4.80726C12.0896 4.36971 11.3186 4.1181 10.4946 4.1181C9.15511 4.1181 7.95529 4.78257 7.14844 5.83049Z" fill="#B10000"/>
</g>
</g>
</g>
<defs>
<filter id="filter0_i_32_12681" x="1.125" y="1.125" width="15.75" height="19.75" filterUnits="userSpaceOnUse" color-interpolation-filters="sRGB">
<feFlood flood-opacity="0" result="BackgroundImageFix"/>
<feBlend mode="normal" in="SourceGraphic" in2="BackgroundImageFix" result="shape"/>
<feColorMatrix in="SourceAlpha" type="matrix" values="0 0 0 0 0 0 0 0 0 0 0 0 0 0 0 0 0 0 127 0" result="hardAlpha"/>
<feOffset dy="4"/>
<feGaussianBlur stdDeviation="2"/>
<feComposite in2="hardAlpha" operator="arithmetic" k2="-1" k3="1"/>
<feColorMatrix type="matrix" values="0 0 0 0 0 0 0 0 0 0 0 0 0 0 0 0 0 0 0.25 0"/>
<feBlend mode="normal" in2="shape" result="effect1_innerShadow_32_12681"/>
</filter>
<filter id="filter1_d_32_12681" x="-0.625" y="1.375" width="19.25" height="19.25" filterUnits="userSpaceOnUse" color-interpolation-filters="sRGB">
<feFlood flood-opacity="0" result="BackgroundImageFix"/>
<feColorMatrix in="SourceAlpha" type="matrix" values="0 0 0 0 0 0 0 0 0 0 0 0 0 0 0 0 0 0 127 0" result="hardAlpha"/>
<feOffset dy="2"/>
<feGaussianBlur stdDeviation="2"/>
<feComposite in2="hardAlpha" operator="out"/>
<feColorMatrix type="matrix" values="0 0 0 0 0 0 0 0 0 0 0 0 0 0 0 0 0 0 0.25 0"/>
<feBlend mode="normal" in2="BackgroundImageFix" result="effect1_dropShadow_32_12681"/>
<feBlend mode="normal" in="SourceGraphic" in2="effect1_dropShadow_32_12681" result="shape"/>
</filter>
<linearGradient id="paint0_linear_32_12681" x1="9" y1="0" x2="9" y2="18" gradientUnits="userSpaceOnUse">
<stop stop-color="#FF1B2D"/>
<stop offset="0.3" stop-color="#FF1B2D"/>
<stop offset="0.614" stop-color="#FF1B2D"/>
<stop offset="1" stop-color="#A70014"/>
</linearGradient>
<clipPath id="clip0_32_12681">
<rect width="18" height="18" fill="white"/>
</clipPath>
</defs>
</svg>
