<svg width="18" height="18" viewBox="0 0 18 18" fill="none" xmlns="http://www.w3.org/2000/svg">
<g clip-path="url(#clip0_32_12720)">
<path d="M13.5 0H4.5C2.01472 0 0 2.01472 0 4.5V13.5C0 15.9853 2.01472 18 4.5 18H13.5C15.9853 18 18 15.9853 18 13.5V4.5C18 2.01472 15.9853 0 13.5 0Z" fill="url(#paint0_linear_32_12720)"/>
<path d="M13.5 0H4.5C2.01472 0 0 2.01472 0 4.5V13.5C0 15.9853 2.01472 18 4.5 18H13.5C15.9853 18 18 15.9853 18 13.5V4.5C18 2.01472 15.9853 0 13.5 0Z" fill="url(#paint1_linear_32_12720)"/>
<g filter="url(#filter0_i_32_12720)">
<path d="M13.5 1.125H4.5C2.63604 1.125 1.125 2.63604 1.125 4.5V13.5C1.125 15.364 2.63604 16.875 4.5 16.875H13.5C15.364 16.875 16.875 15.364 16.875 13.5V4.5C16.875 2.63604 15.364 1.125 13.5 1.125Z" fill="black" fill-opacity="0.7"/>
<mask id="mask0_32_12720" style="mask-type:luminance" maskUnits="userSpaceOnUse" x="2" y="2" width="14" height="14">
<path d="M15.75 2.25H2.25V15.75H15.75V2.25Z" fill="white"/>
</mask>
<g mask="url(#mask0_32_12720)">
<g filter="url(#filter1_d_32_12720)">
<path d="M15.0397 12.1824L15.2355 6.82663L11.8327 6.05791L8.93945 7.99431L10.2842 11.9713L15.04 12.1824H15.0397Z" fill="url(#paint2_linear_32_12720)"/>
</g>
<g filter="url(#filter2_d_32_12720)">
<path d="M14.2861 9.3145L15.2355 6.82663L11.8876 5.35423L8.93945 7.99445L14.2861 9.3145Z" fill="url(#paint3_linear_32_12720)"/>
</g>
<g filter="url(#filter3_d_32_12720)">
<path d="M10.7888 15.1072L15.0397 12.1824L4.81613 7.64191L2.89258 13.116L10.7888 15.1072Z" fill="url(#paint4_linear_32_12720)"/>
</g>
<g filter="url(#filter4_d_32_12720)">
<path d="M2.89258 7.4826L9.69606 12.6674L14.2861 9.3145L9.07056 3.53045L4.53173 2.7643L2.89258 7.4826Z" fill="url(#paint5_linear_32_12720)"/>
</g>
<g filter="url(#filter5_d_32_12720)">
<path d="M12.9213 5.07858H5.20703V12.7929H12.9213V5.07858Z" fill="black"/>
</g>
<path d="M6.09766 6.0318H7.2872C7.98175 6.0318 8.4018 6.44362 8.4018 7.03839V7.04662C8.4018 7.72033 7.87773 8.06992 7.22472 8.06992H6.73808V8.9433H6.09766V6.0318ZM7.24555 7.50009C7.5657 7.50009 7.75302 7.30865 7.75302 7.05909V7.05087C7.75302 6.76377 7.55335 6.60987 7.23308 6.60987H6.73808V7.50009H7.24555Z" fill="white"/>
<path d="M8.04395 8.54807L8.44741 8.09897C8.61379 8.28193 8.77591 8.39007 8.97969 8.39007C9.22089 8.39007 9.37054 8.24452 9.37054 7.90767V6.0318H10.0278V7.93672C10.0278 8.28193 9.92804 8.53972 9.75331 8.71457C9.65137 8.80757 9.53197 8.87936 9.40202 8.92576C9.27207 8.97216 9.1342 8.99224 8.99641 8.98483C8.81485 8.98951 8.63463 8.95258 8.46955 8.87688C8.30445 8.80118 8.15888 8.68871 8.04395 8.54807Z" fill="white"/>
<path d="M9.06377 11.3464H6.1709V11.8286H9.06377V11.3464Z" fill="white"/>
</g>
</g>
</g>
<defs>
<filter id="filter0_i_32_12720" x="1.125" y="1.125" width="15.75" height="19.75" filterUnits="userSpaceOnUse" color-interpolation-filters="sRGB">
<feFlood flood-opacity="0" result="BackgroundImageFix"/>
<feBlend mode="normal" in="SourceGraphic" in2="BackgroundImageFix" result="shape"/>
<feColorMatrix in="SourceAlpha" type="matrix" values="0 0 0 0 0 0 0 0 0 0 0 0 0 0 0 0 0 0 127 0" result="hardAlpha"/>
<feOffset dy="4"/>
<feGaussianBlur stdDeviation="2"/>
<feComposite in2="hardAlpha" operator="arithmetic" k2="-1" k3="1"/>
<feColorMatrix type="matrix" values="0 0 0 0 0 0 0 0 0 0 0 0 0 0 0 0 0 0 0.25 0"/>
<feBlend mode="normal" in2="shape" result="effect1_innerShadow_32_12720"/>
</filter>
<filter id="filter1_d_32_12720" x="4.93945" y="4.05791" width="14.2959" height="14.1245" filterUnits="userSpaceOnUse" color-interpolation-filters="sRGB">
<feFlood flood-opacity="0" result="BackgroundImageFix"/>
<feColorMatrix in="SourceAlpha" type="matrix" values="0 0 0 0 0 0 0 0 0 0 0 0 0 0 0 0 0 0 127 0" result="hardAlpha"/>
<feOffset dy="2"/>
<feGaussianBlur stdDeviation="2"/>
<feComposite in2="hardAlpha" operator="out"/>
<feColorMatrix type="matrix" values="0 0 0 0 0 0 0 0 0 0 0 0 0 0 0 0 0 0 0.25 0"/>
<feBlend mode="normal" in2="BackgroundImageFix" result="effect1_dropShadow_32_12720"/>
<feBlend mode="normal" in="SourceGraphic" in2="effect1_dropShadow_32_12720" result="shape"/>
</filter>
<filter id="filter2_d_32_12720" x="4.93945" y="3.35423" width="14.2959" height="11.9603" filterUnits="userSpaceOnUse" color-interpolation-filters="sRGB">
<feFlood flood-opacity="0" result="BackgroundImageFix"/>
<feColorMatrix in="SourceAlpha" type="matrix" values="0 0 0 0 0 0 0 0 0 0 0 0 0 0 0 0 0 0 127 0" result="hardAlpha"/>
<feOffset dy="2"/>
<feGaussianBlur stdDeviation="2"/>
<feComposite in2="hardAlpha" operator="out"/>
<feColorMatrix type="matrix" values="0 0 0 0 0 0 0 0 0 0 0 0 0 0 0 0 0 0 0.25 0"/>
<feBlend mode="normal" in2="BackgroundImageFix" result="effect1_dropShadow_32_12720"/>
<feBlend mode="normal" in="SourceGraphic" in2="effect1_dropShadow_32_12720" result="shape"/>
</filter>
<filter id="filter3_d_32_12720" x="-1.10742" y="5.64191" width="20.1475" height="15.4653" filterUnits="userSpaceOnUse" color-interpolation-filters="sRGB">
<feFlood flood-opacity="0" result="BackgroundImageFix"/>
<feColorMatrix in="SourceAlpha" type="matrix" values="0 0 0 0 0 0 0 0 0 0 0 0 0 0 0 0 0 0 127 0" result="hardAlpha"/>
<feOffset dy="2"/>
<feGaussianBlur stdDeviation="2"/>
<feComposite in2="hardAlpha" operator="out"/>
<feColorMatrix type="matrix" values="0 0 0 0 0 0 0 0 0 0 0 0 0 0 0 0 0 0 0.25 0"/>
<feBlend mode="normal" in2="BackgroundImageFix" result="effect1_dropShadow_32_12720"/>
<feBlend mode="normal" in="SourceGraphic" in2="effect1_dropShadow_32_12720" result="shape"/>
</filter>
<filter id="filter4_d_32_12720" x="-1.10742" y="0.764297" width="19.3936" height="17.9031" filterUnits="userSpaceOnUse" color-interpolation-filters="sRGB">
<feFlood flood-opacity="0" result="BackgroundImageFix"/>
<feColorMatrix in="SourceAlpha" type="matrix" values="0 0 0 0 0 0 0 0 0 0 0 0 0 0 0 0 0 0 127 0" result="hardAlpha"/>
<feOffset dy="2"/>
<feGaussianBlur stdDeviation="2"/>
<feComposite in2="hardAlpha" operator="out"/>
<feColorMatrix type="matrix" values="0 0 0 0 0 0 0 0 0 0 0 0 0 0 0 0 0 0 0.25 0"/>
<feBlend mode="normal" in2="BackgroundImageFix" result="effect1_dropShadow_32_12720"/>
<feBlend mode="normal" in="SourceGraphic" in2="effect1_dropShadow_32_12720" result="shape"/>
</filter>
<filter id="filter5_d_32_12720" x="1.20703" y="3.07858" width="15.7139" height="15.7143" filterUnits="userSpaceOnUse" color-interpolation-filters="sRGB">
<feFlood flood-opacity="0" result="BackgroundImageFix"/>
<feColorMatrix in="SourceAlpha" type="matrix" values="0 0 0 0 0 0 0 0 0 0 0 0 0 0 0 0 0 0 127 0" result="hardAlpha"/>
<feOffset dy="2"/>
<feGaussianBlur stdDeviation="2"/>
<feComposite in2="hardAlpha" operator="out"/>
<feColorMatrix type="matrix" values="0 0 0 0 0 0 0 0 0 0 0 0 0 0 0 0 0 0 0.25 0"/>
<feBlend mode="normal" in2="BackgroundImageFix" result="effect1_dropShadow_32_12720"/>
<feBlend mode="normal" in="SourceGraphic" in2="effect1_dropShadow_32_12720" result="shape"/>
</filter>
<linearGradient id="paint0_linear_32_12720" x1="9" y1="0" x2="9" y2="18" gradientUnits="userSpaceOnUse">
<stop stop-color="#3BEA62"/>
<stop offset="0.510417" stop-color="#087CFA"/>
<stop offset="1" stop-color="#B74AF7"/>
</linearGradient>
<linearGradient id="paint1_linear_32_12720" x1="5.52111" y1="15.653" x2="12.9469" y2="4.25333" gradientUnits="userSpaceOnUse">
<stop stop-color="#6B57FF"/>
<stop offset="0.461429" stop-color="#FF318C"/>
<stop offset="1" stop-color="#FDB60D"/>
</linearGradient>
<linearGradient id="paint2_linear_32_12720" x1="13.4335" y1="11.3454" x2="11.6452" y2="6.17941" gradientUnits="userSpaceOnUse">
<stop offset="0.001" stop-color="#FF318C"/>
<stop offset="1" stop-color="#FC801D"/>
</linearGradient>
<linearGradient id="paint3_linear_32_12720" x1="13.8987" y1="5.75126" x2="12.3295" y2="7.74413" gradientUnits="userSpaceOnUse">
<stop stop-color="#FF318C"/>
<stop offset="0.781" stop-color="#FC801D"/>
</linearGradient>
<linearGradient id="paint4_linear_32_12720" x1="13.2491" y1="13.7687" x2="4.24348" y2="10.5192" gradientUnits="userSpaceOnUse">
<stop offset="0.017" stop-color="#FF318C"/>
<stop offset="0.811" stop-color="#6B57FF"/>
</linearGradient>
<linearGradient id="paint5_linear_32_12720" x1="6.38728" y1="11.3761" x2="10.2173" y2="4.6116" gradientUnits="userSpaceOnUse">
<stop offset="0.33" stop-color="#FF318C"/>
<stop offset="0.942" stop-color="#FDB60D"/>
</linearGradient>
<clipPath id="clip0_32_12720">
<rect width="18" height="18" fill="white"/>
</clipPath>
</defs>
</svg>
