<svg width="18" height="18" viewBox="0 0 18 18" fill="none" xmlns="http://www.w3.org/2000/svg">
<g clip-path="url(#clip0_32_12742)">
<path d="M13.5 0H4.5C2.01472 0 0 2.01472 0 4.5V13.5C0 15.9853 2.01472 18 4.5 18H13.5C15.9853 18 18 15.9853 18 13.5V4.5C18 2.01472 15.9853 0 13.5 0Z" fill="url(#paint0_linear_32_12742)"/>
<g filter="url(#filter0_i_32_12742)">
<path d="M13.5 1.125H4.5C2.63604 1.125 1.125 2.63604 1.125 4.5V13.5C1.125 15.364 2.63604 16.875 4.5 16.875H13.5C15.364 16.875 16.875 15.364 16.875 13.5V4.5C16.875 2.63604 15.364 1.125 13.5 1.125Z" fill="black" fill-opacity="0.7"/>
<mask id="mask0_32_12742" style="mask-type:luminance" maskUnits="userSpaceOnUse" x="2" y="2" width="14" height="14">
<path d="M15.75 2.25H2.25V15.75H15.75V2.25Z" fill="white"/>
</mask>
<g mask="url(#mask0_32_12742)">
<g filter="url(#filter1_d_32_12742)">
<g filter="url(#filter2_d_32_12742)">
<path d="M11.4826 4.77641L15.0891 7.77599L13.7905 10.4181L11.6164 9.81513H9.73535L11.4826 4.77641Z" fill="#07C3F2"/>
</g>
<g filter="url(#filter3_d_32_12742)">
<path d="M7.84883 6.72427L7.15068 10.4181L7.08383 11.673L5.32368 12.4354L2.82812 12.7041L3.5854 4.7237L8.10726 2.82857L10.8934 4.65557L7.84883 6.72427Z" fill="#21D789"/>
</g>
<g filter="url(#filter4_d_32_12742)">
<path d="M7.84883 6.72427L8.18826 13.842L7.06068 15.1715L2.82812 12.7041L6.3034 7.52527L7.84883 6.72427Z" fill="#7AE46F"/>
</g>
<g filter="url(#filter5_d_32_12742)">
<path d="M12.5058 6.20485H8.22949L12.0082 2.82857L12.5058 6.20485Z" fill="#9AF156"/>
</g>
<g filter="url(#filter6_d_32_12742)">
<path d="M15.1712 13.8703L11.4066 15.1483L6.39355 13.7366L7.84898 6.72428L8.43013 6.20486L11.4824 5.91814L11.206 8.98328L13.6334 8.04214L15.1712 13.8703Z" fill="#FCF84A"/>
</g>
<g filter="url(#filter7_d_32_12742)">
<path d="M5.14258 5.14285H12.8569V12.8571H5.14258V5.14285Z" fill="black"/>
</g>
<path d="M6.10449 11.3991H8.99735V11.8813H6.10449V11.3991Z" fill="white"/>
<path d="M6.10645 6.10715H7.2893C7.97844 6.10715 8.3963 6.516 8.3963 7.10615V7.11385C8.3963 7.78243 7.87559 8.12957 7.22759 8.12957H6.7493V8.99615H6.10645V6.10715ZM7.24559 7.56385C7.56317 7.56385 7.74959 7.37485 7.74959 7.12672V7.119C7.74959 6.83357 7.55159 6.68057 7.2353 6.68057H6.7493V7.56385H7.24559Z" fill="white"/>
<path d="M8.74147 7.56128V7.55356C8.73774 7.35537 8.77424 7.15846 8.84874 6.97477C8.92323 6.79107 9.03418 6.62436 9.17489 6.48473C9.3156 6.3451 9.48315 6.23544 9.66743 6.16236C9.8517 6.08929 10.0489 6.05432 10.247 6.05956C10.4576 6.04892 10.668 6.08306 10.8643 6.15975C11.0607 6.23644 11.2386 6.35392 11.3862 6.50442L10.9825 6.97114C10.7881 6.7699 10.5228 6.65269 10.2432 6.64456C9.7559 6.64456 9.4049 7.04956 9.4049 7.54456V7.55356C9.4049 8.04856 9.74818 8.46128 10.2432 8.46128C10.5736 8.46128 10.7755 8.33271 11.003 8.12314L11.4068 8.53071C11.2614 8.70068 11.0792 8.83533 10.874 8.92445C10.6688 9.01355 10.4461 9.05478 10.2226 9.04499C10.0271 9.04794 9.83293 9.01158 9.65172 8.93802C9.47051 8.86447 9.30594 8.75525 9.16778 8.61684C9.02961 8.47844 8.92068 8.31368 8.84745 8.13235C8.77421 7.95101 8.73817 7.75681 8.74147 7.56128Z" fill="white"/>
</g>
</g>
</g>
</g>
<defs>
<filter id="filter0_i_32_12742" x="1.125" y="1.125" width="15.75" height="19.75" filterUnits="userSpaceOnUse" color-interpolation-filters="sRGB">
<feFlood flood-opacity="0" result="BackgroundImageFix"/>
<feBlend mode="normal" in="SourceGraphic" in2="BackgroundImageFix" result="shape"/>
<feColorMatrix in="SourceAlpha" type="matrix" values="0 0 0 0 0 0 0 0 0 0 0 0 0 0 0 0 0 0 127 0" result="hardAlpha"/>
<feOffset dy="4"/>
<feGaussianBlur stdDeviation="2"/>
<feComposite in2="hardAlpha" operator="arithmetic" k2="-1" k3="1"/>
<feColorMatrix type="matrix" values="0 0 0 0 0 0 0 0 0 0 0 0 0 0 0 0 0 0 0.25 0"/>
<feBlend mode="normal" in2="shape" result="effect1_innerShadow_32_12742"/>
</filter>
<filter id="filter1_d_32_12742" x="-1.17188" y="0.828568" width="20.3428" height="20.3429" filterUnits="userSpaceOnUse" color-interpolation-filters="sRGB">
<feFlood flood-opacity="0" result="BackgroundImageFix"/>
<feColorMatrix in="SourceAlpha" type="matrix" values="0 0 0 0 0 0 0 0 0 0 0 0 0 0 0 0 0 0 127 0" result="hardAlpha"/>
<feOffset dy="2"/>
<feGaussianBlur stdDeviation="2"/>
<feComposite in2="hardAlpha" operator="out"/>
<feColorMatrix type="matrix" values="0 0 0 0 0 0 0 0 0 0 0 0 0 0 0 0 0 0 0.25 0"/>
<feBlend mode="normal" in2="BackgroundImageFix" result="effect1_dropShadow_32_12742"/>
<feBlend mode="normal" in="SourceGraphic" in2="effect1_dropShadow_32_12742" result="shape"/>
</filter>
<filter id="filter2_d_32_12742" x="5.73535" y="2.77641" width="13.3535" height="13.6417" filterUnits="userSpaceOnUse" color-interpolation-filters="sRGB">
<feFlood flood-opacity="0" result="BackgroundImageFix"/>
<feColorMatrix in="SourceAlpha" type="matrix" values="0 0 0 0 0 0 0 0 0 0 0 0 0 0 0 0 0 0 127 0" result="hardAlpha"/>
<feOffset dy="2"/>
<feGaussianBlur stdDeviation="2"/>
<feComposite in2="hardAlpha" operator="out"/>
<feColorMatrix type="matrix" values="0 0 0 0 0 0 0 0 0 0 0 0 0 0 0 0 0 0 0.25 0"/>
<feBlend mode="normal" in2="BackgroundImageFix" result="effect1_dropShadow_32_12742"/>
<feBlend mode="normal" in="SourceGraphic" in2="effect1_dropShadow_32_12742" result="shape"/>
</filter>
<filter id="filter3_d_32_12742" x="-1.17188" y="0.828568" width="16.0654" height="17.8756" filterUnits="userSpaceOnUse" color-interpolation-filters="sRGB">
<feFlood flood-opacity="0" result="BackgroundImageFix"/>
<feColorMatrix in="SourceAlpha" type="matrix" values="0 0 0 0 0 0 0 0 0 0 0 0 0 0 0 0 0 0 127 0" result="hardAlpha"/>
<feOffset dy="2"/>
<feGaussianBlur stdDeviation="2"/>
<feComposite in2="hardAlpha" operator="out"/>
<feColorMatrix type="matrix" values="0 0 0 0 0 0 0 0 0 0 0 0 0 0 0 0 0 0 0.25 0"/>
<feBlend mode="normal" in2="BackgroundImageFix" result="effect1_dropShadow_32_12742"/>
<feBlend mode="normal" in="SourceGraphic" in2="effect1_dropShadow_32_12742" result="shape"/>
</filter>
<filter id="filter4_d_32_12742" x="-1.17188" y="4.72427" width="13.3604" height="16.4472" filterUnits="userSpaceOnUse" color-interpolation-filters="sRGB">
<feFlood flood-opacity="0" result="BackgroundImageFix"/>
<feColorMatrix in="SourceAlpha" type="matrix" values="0 0 0 0 0 0 0 0 0 0 0 0 0 0 0 0 0 0 127 0" result="hardAlpha"/>
<feOffset dy="2"/>
<feGaussianBlur stdDeviation="2"/>
<feComposite in2="hardAlpha" operator="out"/>
<feColorMatrix type="matrix" values="0 0 0 0 0 0 0 0 0 0 0 0 0 0 0 0 0 0 0.25 0"/>
<feBlend mode="normal" in2="BackgroundImageFix" result="effect1_dropShadow_32_12742"/>
<feBlend mode="normal" in="SourceGraphic" in2="effect1_dropShadow_32_12742" result="shape"/>
</filter>
<filter id="filter5_d_32_12742" x="4.22949" y="0.828568" width="12.2764" height="11.3763" filterUnits="userSpaceOnUse" color-interpolation-filters="sRGB">
<feFlood flood-opacity="0" result="BackgroundImageFix"/>
<feColorMatrix in="SourceAlpha" type="matrix" values="0 0 0 0 0 0 0 0 0 0 0 0 0 0 0 0 0 0 127 0" result="hardAlpha"/>
<feOffset dy="2"/>
<feGaussianBlur stdDeviation="2"/>
<feComposite in2="hardAlpha" operator="out"/>
<feColorMatrix type="matrix" values="0 0 0 0 0 0 0 0 0 0 0 0 0 0 0 0 0 0 0.25 0"/>
<feBlend mode="normal" in2="BackgroundImageFix" result="effect1_dropShadow_32_12742"/>
<feBlend mode="normal" in="SourceGraphic" in2="effect1_dropShadow_32_12742" result="shape"/>
</filter>
<filter id="filter6_d_32_12742" x="2.39355" y="3.91814" width="16.7773" height="17.2301" filterUnits="userSpaceOnUse" color-interpolation-filters="sRGB">
<feFlood flood-opacity="0" result="BackgroundImageFix"/>
<feColorMatrix in="SourceAlpha" type="matrix" values="0 0 0 0 0 0 0 0 0 0 0 0 0 0 0 0 0 0 127 0" result="hardAlpha"/>
<feOffset dy="2"/>
<feGaussianBlur stdDeviation="2"/>
<feComposite in2="hardAlpha" operator="out"/>
<feColorMatrix type="matrix" values="0 0 0 0 0 0 0 0 0 0 0 0 0 0 0 0 0 0 0.25 0"/>
<feBlend mode="normal" in2="BackgroundImageFix" result="effect1_dropShadow_32_12742"/>
<feBlend mode="normal" in="SourceGraphic" in2="effect1_dropShadow_32_12742" result="shape"/>
</filter>
<filter id="filter7_d_32_12742" x="1.14258" y="3.14285" width="15.7139" height="15.7143" filterUnits="userSpaceOnUse" color-interpolation-filters="sRGB">
<feFlood flood-opacity="0" result="BackgroundImageFix"/>
<feColorMatrix in="SourceAlpha" type="matrix" values="0 0 0 0 0 0 0 0 0 0 0 0 0 0 0 0 0 0 127 0" result="hardAlpha"/>
<feOffset dy="2"/>
<feGaussianBlur stdDeviation="2"/>
<feComposite in2="hardAlpha" operator="out"/>
<feColorMatrix type="matrix" values="0 0 0 0 0 0 0 0 0 0 0 0 0 0 0 0 0 0 0.25 0"/>
<feBlend mode="normal" in2="BackgroundImageFix" result="effect1_dropShadow_32_12742"/>
<feBlend mode="normal" in="SourceGraphic" in2="effect1_dropShadow_32_12742" result="shape"/>
</filter>
<linearGradient id="paint0_linear_32_12742" x1="9" y1="0" x2="9" y2="18" gradientUnits="userSpaceOnUse">
<stop stop-color="#FCF84A"/>
<stop offset="0.244792" stop-color="#9AF156"/>
<stop offset="0.510417" stop-color="#7AE36F"/>
<stop offset="0.744792" stop-color="#21D789"/>
<stop offset="1" stop-color="#07C3F2"/>
</linearGradient>
<clipPath id="clip0_32_12742">
<rect width="18" height="18" fill="white"/>
</clipPath>
</defs>
</svg>
