<svg width="18" height="18" viewBox="0 0 18 18" fill="none" xmlns="http://www.w3.org/2000/svg">
<g clip-path="url(#clip0_32_12765)">
<path d="M13.5 0H4.5C2.01472 0 0 2.01472 0 4.5V13.5C0 15.9853 2.01472 18 4.5 18H13.5C15.9853 18 18 15.9853 18 13.5V4.5C18 2.01472 15.9853 0 13.5 0Z" fill="url(#paint0_linear_32_12765)"/>
<path d="M13.5 0H4.5C2.01472 0 0 2.01472 0 4.5V13.5C0 15.9853 2.01472 18 4.5 18H13.5C15.9853 18 18 15.9853 18 13.5V4.5C18 2.01472 15.9853 0 13.5 0Z" fill="url(#paint1_linear_32_12765)"/>
<g filter="url(#filter0_i_32_12765)">
<path d="M13.5 1.125H4.5C2.63604 1.125 1.125 2.63604 1.125 4.5V13.5C1.125 15.364 2.63604 16.875 4.5 16.875H13.5C15.364 16.875 16.875 15.364 16.875 13.5V4.5C16.875 2.63604 15.364 1.125 13.5 1.125Z" fill="black" fill-opacity="0.7"/>
<mask id="mask0_32_12765" style="mask-type:luminance" maskUnits="userSpaceOnUse" x="2" y="2" width="14" height="14">
<path d="M15.75 2.25H2.25V15.75H15.75V2.25Z" fill="white"/>
</mask>
<g mask="url(#mask0_32_12765)">
<g filter="url(#filter1_d_32_12765)">
<path d="M11.3202 8.12775L4.8096 9.49252C4.63963 9.51875 4.47158 9.5561 4.30651 9.60432C3.78928 9.75729 3.33371 10.07 3.00503 10.4976C1.06123 13.0226 3.14636 16.3226 6.12689 15.6656L13.2692 14.6309C14.0227 14.4629 14.6817 14.0092 15.1076 13.3653C16.9491 10.6158 14.5644 7.17643 11.3202 8.12775Z" fill="url(#paint2_linear_32_12765)"/>
</g>
<g filter="url(#filter2_d_32_12765)">
<path d="M7.74119 3.10957C6.93857 2.37129 5.75943 2.02852 4.4358 2.41559C3.88604 2.57825 3.40174 2.91048 3.05205 3.36481C1.72209 5.09766 2.16717 7.16696 3.50135 8.23536L10.6068 14.168C10.9958 14.4218 11.4326 14.5934 11.8904 14.6723C12.3482 14.7511 12.8172 14.7357 13.2688 14.6267C14.0223 14.4586 14.6812 14.005 15.1072 13.3611C16.2041 11.7295 15.8022 9.84375 14.6115 8.78907L7.74119 3.10957Z" fill="url(#paint3_linear_32_12765)"/>
</g>
<g filter="url(#filter3_d_32_12765)">
<path d="M5.34391 2.26582C5.03695 2.28516 4.73272 2.33533 4.43582 2.41559C3.88606 2.57826 3.40175 2.91047 3.05207 3.3648C0.983823 6.04688 3.19867 9.55898 6.37117 8.85973L14.8856 5.6482C15.1327 5.59353 15.3488 5.44535 15.4889 5.23477C16.0162 4.43953 15.4773 3.47027 14.6114 3.465L5.69723 2.25C5.57066 2.25 5.45254 2.25738 5.34391 2.26582Z" fill="url(#paint4_linear_32_12765)"/>
</g>
<g filter="url(#filter4_d_32_12765)">
<path d="M4.78125 4.78125H13.2188V13.2188H4.78125V4.78125Z" fill="black"/>
</g>
<path d="M5.83594 11.6367H9V12.1641H5.83594V11.6367Z" fill="white"/>
<path d="M8.57812 9.08543L8.23008 8.76902C7.95012 8.94757 7.6245 9.04134 7.29246 9.03902C6.31898 9.04429 5.625 8.31867 5.625 7.41797C5.625 6.52043 6.3327 5.78531 7.3125 5.78531C8.2923 5.78531 8.98523 6.51093 8.98523 7.40847V7.41797C8.98418 7.74102 8.88688 8.05645 8.70574 8.32394L9.03059 8.59922L8.57812 9.08543ZM7.71645 8.31867L7.20703 7.88097L7.64895 7.38527L8.1668 7.85461C8.22375 7.7162 8.25175 7.5676 8.24906 7.41797C8.25345 7.28948 8.23196 7.16141 8.18589 7.04137C8.13983 6.92133 8.0701 6.81179 7.98088 6.71921C7.89165 6.62664 7.78473 6.55294 7.66648 6.50248C7.54822 6.45204 7.42103 6.42586 7.29246 6.4255C6.73348 6.4255 6.34324 6.86742 6.34324 7.40847V7.41797C6.33887 7.54633 6.36031 7.67425 6.40633 7.79417C6.45235 7.91406 6.52199 8.02351 6.61112 8.11599C6.70025 8.20845 6.80704 8.28208 6.92518 8.33248C7.0433 8.38288 7.17036 8.40902 7.29879 8.40937C7.44313 8.41158 7.58603 8.38054 7.71645 8.31867Z" fill="white"/>
<path d="M9.51367 5.83594H10.7034C11.6948 5.83594 12.3803 6.51727 12.3803 7.40531V7.41797C12.3803 8.30602 11.6948 9 10.7034 9H9.51367V5.83594ZM10.2077 6.46875V8.36719H10.7034C11.2708 8.36719 11.6526 7.98328 11.6526 7.4243V7.41797C11.6586 7.29172 11.6382 7.1656 11.5926 7.04772C11.547 6.92982 11.4773 6.82276 11.3879 6.73338C11.2986 6.64401 11.1915 6.5743 11.0736 6.52873C10.9557 6.48316 10.8296 6.46273 10.7034 6.46875H10.2077Z" fill="white"/>
</g>
</g>
</g>
<defs>
<filter id="filter0_i_32_12765" x="1.125" y="1.125" width="15.75" height="19.75" filterUnits="userSpaceOnUse" color-interpolation-filters="sRGB">
<feFlood flood-opacity="0" result="BackgroundImageFix"/>
<feBlend mode="normal" in="SourceGraphic" in2="BackgroundImageFix" result="shape"/>
<feColorMatrix in="SourceAlpha" type="matrix" values="0 0 0 0 0 0 0 0 0 0 0 0 0 0 0 0 0 0 127 0" result="hardAlpha"/>
<feOffset dy="4"/>
<feGaussianBlur stdDeviation="2"/>
<feComposite in2="hardAlpha" operator="arithmetic" k2="-1" k3="1"/>
<feColorMatrix type="matrix" values="0 0 0 0 0 0 0 0 0 0 0 0 0 0 0 0 0 0 0.25 0"/>
<feBlend mode="normal" in2="shape" result="effect1_innerShadow_32_12765"/>
</filter>
<filter id="filter1_d_32_12765" x="-1.75" y="5.966" width="21.5" height="15.7844" filterUnits="userSpaceOnUse" color-interpolation-filters="sRGB">
<feFlood flood-opacity="0" result="BackgroundImageFix"/>
<feColorMatrix in="SourceAlpha" type="matrix" values="0 0 0 0 0 0 0 0 0 0 0 0 0 0 0 0 0 0 127 0" result="hardAlpha"/>
<feOffset dy="2"/>
<feGaussianBlur stdDeviation="2"/>
<feComposite in2="hardAlpha" operator="out"/>
<feColorMatrix type="matrix" values="0 0 0 0 0 0 0 0 0 0 0 0 0 0 0 0 0 0 0.25 0"/>
<feBlend mode="normal" in2="BackgroundImageFix" result="effect1_dropShadow_32_12765"/>
<feBlend mode="normal" in="SourceGraphic" in2="effect1_dropShadow_32_12765" result="shape"/>
</filter>
<filter id="filter2_d_32_12765" x="-1.75" y="0.254745" width="21.5" height="20.467" filterUnits="userSpaceOnUse" color-interpolation-filters="sRGB">
<feFlood flood-opacity="0" result="BackgroundImageFix"/>
<feColorMatrix in="SourceAlpha" type="matrix" values="0 0 0 0 0 0 0 0 0 0 0 0 0 0 0 0 0 0 127 0" result="hardAlpha"/>
<feOffset dy="2"/>
<feGaussianBlur stdDeviation="2"/>
<feComposite in2="hardAlpha" operator="out"/>
<feColorMatrix type="matrix" values="0 0 0 0 0 0 0 0 0 0 0 0 0 0 0 0 0 0 0.25 0"/>
<feBlend mode="normal" in2="BackgroundImageFix" result="effect1_dropShadow_32_12765"/>
<feBlend mode="normal" in="SourceGraphic" in2="effect1_dropShadow_32_12765" result="shape"/>
</filter>
<filter id="filter3_d_32_12765" x="-1.75195" y="0.25" width="21.4492" height="14.6999" filterUnits="userSpaceOnUse" color-interpolation-filters="sRGB">
<feFlood flood-opacity="0" result="BackgroundImageFix"/>
<feColorMatrix in="SourceAlpha" type="matrix" values="0 0 0 0 0 0 0 0 0 0 0 0 0 0 0 0 0 0 127 0" result="hardAlpha"/>
<feOffset dy="2"/>
<feGaussianBlur stdDeviation="2"/>
<feComposite in2="hardAlpha" operator="out"/>
<feColorMatrix type="matrix" values="0 0 0 0 0 0 0 0 0 0 0 0 0 0 0 0 0 0 0.25 0"/>
<feBlend mode="normal" in2="BackgroundImageFix" result="effect1_dropShadow_32_12765"/>
<feBlend mode="normal" in="SourceGraphic" in2="effect1_dropShadow_32_12765" result="shape"/>
</filter>
<filter id="filter4_d_32_12765" x="0.78125" y="2.78125" width="16.4375" height="16.4375" filterUnits="userSpaceOnUse" color-interpolation-filters="sRGB">
<feFlood flood-opacity="0" result="BackgroundImageFix"/>
<feColorMatrix in="SourceAlpha" type="matrix" values="0 0 0 0 0 0 0 0 0 0 0 0 0 0 0 0 0 0 127 0" result="hardAlpha"/>
<feOffset dy="2"/>
<feGaussianBlur stdDeviation="2"/>
<feComposite in2="hardAlpha" operator="out"/>
<feColorMatrix type="matrix" values="0 0 0 0 0 0 0 0 0 0 0 0 0 0 0 0 0 0 0.25 0"/>
<feBlend mode="normal" in2="BackgroundImageFix" result="effect1_dropShadow_32_12765"/>
<feBlend mode="normal" in="SourceGraphic" in2="effect1_dropShadow_32_12765" result="shape"/>
</filter>
<linearGradient id="paint0_linear_32_12765" x1="9" y1="0" x2="9" y2="18" gradientUnits="userSpaceOnUse">
<stop stop-color="#3BEA62"/>
<stop offset="0.510417" stop-color="#087CFA"/>
<stop offset="1" stop-color="#B74AF7"/>
</linearGradient>
<linearGradient id="paint1_linear_32_12765" x1="5.52111" y1="15.653" x2="12.9469" y2="4.25333" gradientUnits="userSpaceOnUse">
<stop stop-color="#6B57FF"/>
<stop offset="0.461429" stop-color="#FF318C"/>
<stop offset="1" stop-color="#FDB60D"/>
</linearGradient>
<linearGradient id="paint2_linear_32_12765" x1="1.9746" y1="12.8506" x2="12.9919" y2="11.2665" gradientUnits="userSpaceOnUse">
<stop offset="0.18" stop-color="#FC801D"/>
<stop offset="0.63" stop-color="#FF318C"/>
</linearGradient>
<linearGradient id="paint3_linear_32_12765" x1="0.366817" y1="2.08442" x2="16.0353" y2="13.7292" gradientUnits="userSpaceOnUse">
<stop stop-color="#FF318C"/>
<stop offset="0.4" stop-color="#B74AF7"/>
<stop offset="0.87" stop-color="#FF318C"/>
</linearGradient>
<linearGradient id="paint4_linear_32_12765" x1="-1.45356" y1="7.24395" x2="15.9224" y2="3.16863" gradientUnits="userSpaceOnUse">
<stop stop-color="#FF318C"/>
<stop offset="0.2" stop-color="#D73BAB"/>
<stop offset="0.51" stop-color="#9D4AD8"/>
<stop offset="0.75" stop-color="#7953F4"/>
<stop offset="0.87" stop-color="#6B57FF"/>
</linearGradient>
<clipPath id="clip0_32_12765">
<rect width="18" height="18" fill="white"/>
</clipPath>
</defs>
</svg>
