<svg width="18" height="18" viewBox="0 0 18 18" fill="none" xmlns="http://www.w3.org/2000/svg">
<g clip-path="url(#clip0_32_12842)">
<path d="M13.5 0H4.5C2.01472 0 0 2.01472 0 4.5V13.5C0 15.9853 2.01472 18 4.5 18H13.5C15.9853 18 18 15.9853 18 13.5V4.5C18 2.01472 15.9853 0 13.5 0Z" fill="url(#paint0_linear_32_12842)"/>
<g filter="url(#filter0_i_32_12842)">
<path d="M13.5 1.125H4.5C2.63604 1.125 1.125 2.63604 1.125 4.5V13.5C1.125 15.364 2.63604 16.875 4.5 16.875H13.5C15.364 16.875 16.875 15.364 16.875 13.5V4.5C16.875 2.63604 15.364 1.125 13.5 1.125Z" fill="black" fill-opacity="0.7"/>
<g filter="url(#filter1_d_32_12842)">
<path d="M5.625 13.5H9M9 13.5H12.375M9 13.5V11.25" stroke="#8B00E7" stroke-width="2" stroke-linecap="round" stroke-linejoin="round"/>
</g>
<g filter="url(#filter2_d_32_12842)">
<path d="M4.5 11.25H13.5C14.1213 11.25 14.625 10.7463 14.625 10.125V5.625C14.625 5.00368 14.1213 4.5 13.5 4.5H4.5C3.87868 4.5 3.375 5.00368 3.375 5.625V10.125C3.375 10.7463 3.87868 11.25 4.5 11.25Z" stroke="#D404FF" stroke-width="2" stroke-linecap="round" stroke-linejoin="round"/>
</g>
</g>
</g>
<defs>
<filter id="filter0_i_32_12842" x="1.125" y="1.125" width="15.75" height="19.75" filterUnits="userSpaceOnUse" color-interpolation-filters="sRGB">
<feFlood flood-opacity="0" result="BackgroundImageFix"/>
<feBlend mode="normal" in="SourceGraphic" in2="BackgroundImageFix" result="shape"/>
<feColorMatrix in="SourceAlpha" type="matrix" values="0 0 0 0 0 0 0 0 0 0 0 0 0 0 0 0 0 0 127 0" result="hardAlpha"/>
<feOffset dy="4"/>
<feGaussianBlur stdDeviation="2"/>
<feComposite in2="hardAlpha" operator="arithmetic" k2="-1" k3="1"/>
<feColorMatrix type="matrix" values="0 0 0 0 0 0 0 0 0 0 0 0 0 0 0 0 0 0 0.25 0"/>
<feBlend mode="normal" in2="shape" result="effect1_innerShadow_32_12842"/>
</filter>
<filter id="filter1_d_32_12842" x="0.625" y="8.25" width="16.75" height="12.25" filterUnits="userSpaceOnUse" color-interpolation-filters="sRGB">
<feFlood flood-opacity="0" result="BackgroundImageFix"/>
<feColorMatrix in="SourceAlpha" type="matrix" values="0 0 0 0 0 0 0 0 0 0 0 0 0 0 0 0 0 0 127 0" result="hardAlpha"/>
<feOffset dy="2"/>
<feGaussianBlur stdDeviation="2"/>
<feComposite in2="hardAlpha" operator="out"/>
<feColorMatrix type="matrix" values="0 0 0 0 0 0 0 0 0 0 0 0 0 0 0 0 0 0 0.25 0"/>
<feBlend mode="normal" in2="BackgroundImageFix" result="effect1_dropShadow_32_12842"/>
<feBlend mode="normal" in="SourceGraphic" in2="effect1_dropShadow_32_12842" result="shape"/>
</filter>
<filter id="filter2_d_32_12842" x="-1.625" y="1.5" width="21.25" height="16.75" filterUnits="userSpaceOnUse" color-interpolation-filters="sRGB">
<feFlood flood-opacity="0" result="BackgroundImageFix"/>
<feColorMatrix in="SourceAlpha" type="matrix" values="0 0 0 0 0 0 0 0 0 0 0 0 0 0 0 0 0 0 127 0" result="hardAlpha"/>
<feOffset dy="2"/>
<feGaussianBlur stdDeviation="2"/>
<feComposite in2="hardAlpha" operator="out"/>
<feColorMatrix type="matrix" values="0 0 0 0 0 0 0 0 0 0 0 0 0 0 0 0 0 0 0.25 0"/>
<feBlend mode="normal" in2="BackgroundImageFix" result="effect1_dropShadow_32_12842"/>
<feBlend mode="normal" in="SourceGraphic" in2="effect1_dropShadow_32_12842" result="shape"/>
</filter>
<linearGradient id="paint0_linear_32_12842" x1="9" y1="0" x2="9" y2="18" gradientUnits="userSpaceOnUse">
<stop stop-color="#CB02C5"/>
<stop offset="0.244792" stop-color="#C101DA"/>
<stop offset="0.510417" stop-color="#B600F0"/>
<stop offset="0.744792" stop-color="#8900D9"/>
<stop offset="1" stop-color="#5800BF"/>
</linearGradient>
<clipPath id="clip0_32_12842">
<rect width="18" height="18" fill="white"/>
</clipPath>
</defs>
</svg>
