<svg width="18" height="18" viewBox="0 0 18 18" fill="none" xmlns="http://www.w3.org/2000/svg">
<g clip-path="url(#clip0_32_12869)">
<path d="M13.5 0H4.5C2.01472 0 0 2.01472 0 4.5V13.5C0 15.9853 2.01472 18 4.5 18H13.5C15.9853 18 18 15.9853 18 13.5V4.5C18 2.01472 15.9853 0 13.5 0Z" fill="url(#paint0_linear_32_12869)"/>
<path d="M13.5 0H4.5C2.01472 0 0 2.01472 0 4.5V13.5C0 15.9853 2.01472 18 4.5 18H13.5C15.9853 18 18 15.9853 18 13.5V4.5C18 2.01472 15.9853 0 13.5 0Z" fill="url(#paint1_linear_32_12869)"/>
<path d="M13.5 0H4.5C2.01472 0 0 2.01472 0 4.5V13.5C0 15.9853 2.01472 18 4.5 18H13.5C15.9853 18 18 15.9853 18 13.5V4.5C18 2.01472 15.9853 0 13.5 0Z" fill="url(#paint2_linear_32_12869)"/>
<g filter="url(#filter0_i_32_12869)">
<path d="M13.5 1.125H4.5C2.63604 1.125 1.125 2.63604 1.125 4.5V13.5C1.125 15.364 2.63604 16.875 4.5 16.875H13.5C15.364 16.875 16.875 15.364 16.875 13.5V4.5C16.875 2.63604 15.364 1.125 13.5 1.125Z" fill="black" fill-opacity="0.7"/>
<mask id="mask0_32_12869" style="mask-type:luminance" maskUnits="userSpaceOnUse" x="2" y="2" width="14" height="14">
<path d="M15.75 2.25H2.25V15.75H15.75V2.25Z" fill="white"/>
</mask>
<g mask="url(#mask0_32_12869)">
<g filter="url(#filter1_d_32_12869)">
<path d="M11.931 13.0563L6.95496 15.75L2.25 12.9952L10.8984 9.76361L11.931 13.0563Z" fill="url(#paint3_linear_32_12869)"/>
</g>
<g filter="url(#filter2_d_32_12869)">
<path d="M9.95871 2.25L7.25449 10.272L4.56293 8.76902L2.25 12.9952L6.56895 12.3054L12.0491 11.3382L15.75 10.5093V5.47523L9.95871 2.25Z" fill="url(#paint4_linear_32_12869)"/>
</g>
<g filter="url(#filter3_d_32_12869)">
<path d="M8.36719 6.92648L4.76438 5.88973L4.46484 2.25L7.49602 3.52406L9.95977 2.25L8.36719 6.92648Z" fill="#087CFA"/>
</g>
<g filter="url(#filter4_d_32_12869)">
<path d="M8.47273 6.71555L7.49609 3.52406L9.95984 2.25L8.47273 6.71555Z" fill="url(#paint5_linear_32_12869)"/>
</g>
<g filter="url(#filter5_d_32_12869)">
<path d="M11.5407 10.0895L4.46801 2.25L2.25 7.30617L8.4948 12.7009L11.5407 10.0895Z" fill="url(#paint6_linear_32_12869)"/>
</g>
<g filter="url(#filter6_d_32_12869)">
<path d="M15.75 10.5093L11.6367 11.4585L11.7939 10.7803L15.75 5.47525V10.5093Z" fill="url(#paint7_linear_32_12869)"/>
</g>
<g filter="url(#filter7_d_32_12869)">
<path d="M13.5893 15.75L8.49512 12.702L11.5411 10.0895L13.5893 15.75Z" fill="url(#paint8_linear_32_12869)"/>
</g>
<g filter="url(#filter8_d_32_12869)">
<path d="M13.2188 4.78125H4.78125V13.2188H13.2188V4.78125Z" fill="black"/>
</g>
<path d="M9 11.6367H5.83594V12.1641H9V11.6367Z" fill="white"/>
<path d="M5.8125 5.83594H7.25953C7.66242 5.83594 7.97461 5.94879 8.18238 6.15234C8.27363 6.24874 8.34471 6.36241 8.39144 6.48665C8.43817 6.61089 8.4596 6.74322 8.45449 6.87586V6.89062C8.46456 7.10612 8.40353 7.31894 8.28081 7.49637C8.15808 7.67378 7.98047 7.80595 7.77527 7.87254L8.54941 9H7.73414L7.05492 7.98645H6.50859V9H5.8125V5.83594ZM7.21418 7.36945C7.55379 7.36945 7.74785 7.18805 7.74785 6.92121V6.91277C7.74785 6.6143 7.53691 6.46031 7.20152 6.46031H6.50859V7.36945H7.21418Z" fill="white"/>
<path d="M9.08398 5.83594H11.495V6.46875H9.78113V7.1427H11.2914V7.77551H9.78113V9H9.08398V5.83594Z" fill="white"/>
</g>
</g>
</g>
<defs>
<filter id="filter0_i_32_12869" x="1.125" y="1.125" width="15.75" height="19.75" filterUnits="userSpaceOnUse" color-interpolation-filters="sRGB">
<feFlood flood-opacity="0" result="BackgroundImageFix"/>
<feBlend mode="normal" in="SourceGraphic" in2="BackgroundImageFix" result="shape"/>
<feColorMatrix in="SourceAlpha" type="matrix" values="0 0 0 0 0 0 0 0 0 0 0 0 0 0 0 0 0 0 127 0" result="hardAlpha"/>
<feOffset dy="4"/>
<feGaussianBlur stdDeviation="2"/>
<feComposite in2="hardAlpha" operator="arithmetic" k2="-1" k3="1"/>
<feColorMatrix type="matrix" values="0 0 0 0 0 0 0 0 0 0 0 0 0 0 0 0 0 0 0.25 0"/>
<feBlend mode="normal" in2="shape" result="effect1_innerShadow_32_12869"/>
</filter>
<filter id="filter1_d_32_12869" x="-1.75" y="7.76361" width="17.6807" height="13.9864" filterUnits="userSpaceOnUse" color-interpolation-filters="sRGB">
<feFlood flood-opacity="0" result="BackgroundImageFix"/>
<feColorMatrix in="SourceAlpha" type="matrix" values="0 0 0 0 0 0 0 0 0 0 0 0 0 0 0 0 0 0 127 0" result="hardAlpha"/>
<feOffset dy="2"/>
<feGaussianBlur stdDeviation="2"/>
<feComposite in2="hardAlpha" operator="out"/>
<feColorMatrix type="matrix" values="0 0 0 0 0 0 0 0 0 0 0 0 0 0 0 0 0 0 0.25 0"/>
<feBlend mode="normal" in2="BackgroundImageFix" result="effect1_dropShadow_32_12869"/>
<feBlend mode="normal" in="SourceGraphic" in2="effect1_dropShadow_32_12869" result="shape"/>
</filter>
<filter id="filter2_d_32_12869" x="-1.75" y="0.25" width="21.5" height="18.7452" filterUnits="userSpaceOnUse" color-interpolation-filters="sRGB">
<feFlood flood-opacity="0" result="BackgroundImageFix"/>
<feColorMatrix in="SourceAlpha" type="matrix" values="0 0 0 0 0 0 0 0 0 0 0 0 0 0 0 0 0 0 127 0" result="hardAlpha"/>
<feOffset dy="2"/>
<feGaussianBlur stdDeviation="2"/>
<feComposite in2="hardAlpha" operator="out"/>
<feColorMatrix type="matrix" values="0 0 0 0 0 0 0 0 0 0 0 0 0 0 0 0 0 0 0.25 0"/>
<feBlend mode="normal" in2="BackgroundImageFix" result="effect1_dropShadow_32_12869"/>
<feBlend mode="normal" in="SourceGraphic" in2="effect1_dropShadow_32_12869" result="shape"/>
</filter>
<filter id="filter3_d_32_12869" x="0.464844" y="0.25" width="13.4951" height="12.6765" filterUnits="userSpaceOnUse" color-interpolation-filters="sRGB">
<feFlood flood-opacity="0" result="BackgroundImageFix"/>
<feColorMatrix in="SourceAlpha" type="matrix" values="0 0 0 0 0 0 0 0 0 0 0 0 0 0 0 0 0 0 127 0" result="hardAlpha"/>
<feOffset dy="2"/>
<feGaussianBlur stdDeviation="2"/>
<feComposite in2="hardAlpha" operator="out"/>
<feColorMatrix type="matrix" values="0 0 0 0 0 0 0 0 0 0 0 0 0 0 0 0 0 0 0.25 0"/>
<feBlend mode="normal" in2="BackgroundImageFix" result="effect1_dropShadow_32_12869"/>
<feBlend mode="normal" in="SourceGraphic" in2="effect1_dropShadow_32_12869" result="shape"/>
</filter>
<filter id="filter4_d_32_12869" x="3.49609" y="0.25" width="10.4639" height="12.4655" filterUnits="userSpaceOnUse" color-interpolation-filters="sRGB">
<feFlood flood-opacity="0" result="BackgroundImageFix"/>
<feColorMatrix in="SourceAlpha" type="matrix" values="0 0 0 0 0 0 0 0 0 0 0 0 0 0 0 0 0 0 127 0" result="hardAlpha"/>
<feOffset dy="2"/>
<feGaussianBlur stdDeviation="2"/>
<feComposite in2="hardAlpha" operator="out"/>
<feColorMatrix type="matrix" values="0 0 0 0 0 0 0 0 0 0 0 0 0 0 0 0 0 0 0.25 0"/>
<feBlend mode="normal" in2="BackgroundImageFix" result="effect1_dropShadow_32_12869"/>
<feBlend mode="normal" in="SourceGraphic" in2="effect1_dropShadow_32_12869" result="shape"/>
</filter>
<filter id="filter5_d_32_12869" x="-1.75" y="0.25" width="17.291" height="18.4509" filterUnits="userSpaceOnUse" color-interpolation-filters="sRGB">
<feFlood flood-opacity="0" result="BackgroundImageFix"/>
<feColorMatrix in="SourceAlpha" type="matrix" values="0 0 0 0 0 0 0 0 0 0 0 0 0 0 0 0 0 0 127 0" result="hardAlpha"/>
<feOffset dy="2"/>
<feGaussianBlur stdDeviation="2"/>
<feComposite in2="hardAlpha" operator="out"/>
<feColorMatrix type="matrix" values="0 0 0 0 0 0 0 0 0 0 0 0 0 0 0 0 0 0 0.25 0"/>
<feBlend mode="normal" in2="BackgroundImageFix" result="effect1_dropShadow_32_12869"/>
<feBlend mode="normal" in="SourceGraphic" in2="effect1_dropShadow_32_12869" result="shape"/>
</filter>
<filter id="filter6_d_32_12869" x="7.63672" y="3.47525" width="12.1133" height="13.9832" filterUnits="userSpaceOnUse" color-interpolation-filters="sRGB">
<feFlood flood-opacity="0" result="BackgroundImageFix"/>
<feColorMatrix in="SourceAlpha" type="matrix" values="0 0 0 0 0 0 0 0 0 0 0 0 0 0 0 0 0 0 127 0" result="hardAlpha"/>
<feOffset dy="2"/>
<feGaussianBlur stdDeviation="2"/>
<feComposite in2="hardAlpha" operator="out"/>
<feColorMatrix type="matrix" values="0 0 0 0 0 0 0 0 0 0 0 0 0 0 0 0 0 0 0.25 0"/>
<feBlend mode="normal" in2="BackgroundImageFix" result="effect1_dropShadow_32_12869"/>
<feBlend mode="normal" in="SourceGraphic" in2="effect1_dropShadow_32_12869" result="shape"/>
</filter>
<filter id="filter7_d_32_12869" x="4.49512" y="8.08951" width="13.0938" height="13.6605" filterUnits="userSpaceOnUse" color-interpolation-filters="sRGB">
<feFlood flood-opacity="0" result="BackgroundImageFix"/>
<feColorMatrix in="SourceAlpha" type="matrix" values="0 0 0 0 0 0 0 0 0 0 0 0 0 0 0 0 0 0 127 0" result="hardAlpha"/>
<feOffset dy="2"/>
<feGaussianBlur stdDeviation="2"/>
<feComposite in2="hardAlpha" operator="out"/>
<feColorMatrix type="matrix" values="0 0 0 0 0 0 0 0 0 0 0 0 0 0 0 0 0 0 0.25 0"/>
<feBlend mode="normal" in2="BackgroundImageFix" result="effect1_dropShadow_32_12869"/>
<feBlend mode="normal" in="SourceGraphic" in2="effect1_dropShadow_32_12869" result="shape"/>
</filter>
<filter id="filter8_d_32_12869" x="0.78125" y="2.78125" width="16.4375" height="16.4375" filterUnits="userSpaceOnUse" color-interpolation-filters="sRGB">
<feFlood flood-opacity="0" result="BackgroundImageFix"/>
<feColorMatrix in="SourceAlpha" type="matrix" values="0 0 0 0 0 0 0 0 0 0 0 0 0 0 0 0 0 0 127 0" result="hardAlpha"/>
<feOffset dy="2"/>
<feGaussianBlur stdDeviation="2"/>
<feComposite in2="hardAlpha" operator="out"/>
<feColorMatrix type="matrix" values="0 0 0 0 0 0 0 0 0 0 0 0 0 0 0 0 0 0 0.25 0"/>
<feBlend mode="normal" in2="BackgroundImageFix" result="effect1_dropShadow_32_12869"/>
<feBlend mode="normal" in="SourceGraphic" in2="effect1_dropShadow_32_12869" result="shape"/>
</filter>
<linearGradient id="paint0_linear_32_12869" x1="9" y1="0" x2="9" y2="18" gradientUnits="userSpaceOnUse">
<stop stop-color="#087CFA"/>
<stop offset="0.317708" stop-color="#963597"/>
<stop offset="0.671875" stop-color="#DD1265"/>
<stop offset="1" stop-color="#ED6438"/>
</linearGradient>
<linearGradient id="paint1_linear_32_12869" x1="5.67034" y1="1.02089" x2="8.79379" y2="12.9911" gradientUnits="userSpaceOnUse">
<stop stop-color="#087CFA"/>
<stop offset="0.33" stop-color="#903ACA"/>
<stop offset="0.6" stop-color="#DD1265"/>
</linearGradient>
<linearGradient id="paint2_linear_32_12869" x1="17.9702" y1="19.308" x2="6.15126" y2="1.73739" gradientUnits="userSpaceOnUse">
<stop offset="0.125" stop-color="#FDB60D"/>
<stop offset="0.348958" stop-color="#DD1265"/>
<stop offset="0.661458" stop-color="#9338C6"/>
<stop offset="1" stop-color="#087CFA"/>
</linearGradient>
<linearGradient id="paint3_linear_32_12869" x1="5.49844" y1="10.2593" x2="9.70664" y2="14.6353" gradientUnits="userSpaceOnUse">
<stop offset="0.01" stop-color="#087CFA"/>
<stop offset="0.49" stop-color="#903ACA"/>
<stop offset="0.93" stop-color="#DD1265"/>
</linearGradient>
<linearGradient id="paint4_linear_32_12869" x1="10.3922" y1="9.22465" x2="13.3748" y2="3.96598" gradientUnits="userSpaceOnUse">
<stop offset="0.59" stop-color="#087CFA"/>
<stop offset="0.99" stop-color="#0093FF"/>
</linearGradient>
<linearGradient id="paint5_linear_32_12869" x1="8.08566" y1="2.24473" x2="10.2973" y2="6.63117" gradientUnits="userSpaceOnUse">
<stop offset="0.21" stop-color="#087CFA"/>
<stop offset="0.7" stop-color="#DD1265"/>
</linearGradient>
<linearGradient id="paint6_linear_32_12869" x1="5.17676" y1="2.84273" x2="7.18277" y2="9.67711" gradientUnits="userSpaceOnUse">
<stop stop-color="#087CFA"/>
<stop offset="0.33" stop-color="#903ACA"/>
<stop offset="0.6" stop-color="#DD1265"/>
</linearGradient>
<linearGradient id="paint7_linear_32_12869" x1="17.9892" y1="5.4415" x2="11.8719" y2="12.4088" gradientUnits="userSpaceOnUse">
<stop offset="0.21" stop-color="#087CFA"/>
<stop offset="0.56" stop-color="#903ACA"/>
<stop offset="0.84" stop-color="#DD1265"/>
</linearGradient>
<linearGradient id="paint8_linear_32_12869" x1="13.5808" y1="16.1613" x2="9.73226" y2="11.0124" gradientUnits="userSpaceOnUse">
<stop offset="0.31" stop-color="#FDB60D"/>
<stop offset="1" stop-color="#DD1265"/>
</linearGradient>
<clipPath id="clip0_32_12869">
<rect width="18" height="18" fill="white"/>
</clipPath>
</defs>
</svg>
