<svg width="18" height="18" viewBox="0 0 18 18" fill="none" xmlns="http://www.w3.org/2000/svg">
<g clip-path="url(#clip0_32_12850)">
<path d="M13.5 0H4.5C2.01472 0 0 2.01472 0 4.5V13.5C0 15.9853 2.01472 18 4.5 18H13.5C15.9853 18 18 15.9853 18 13.5V4.5C18 2.01472 15.9853 0 13.5 0Z" fill="url(#paint0_linear_32_12850)"/>
<g filter="url(#filter0_i_32_12850)">
<path d="M13.5 1.125H4.5C2.63604 1.125 1.125 2.63604 1.125 4.5V13.5C1.125 15.364 2.63604 16.875 4.5 16.875H13.5C15.364 16.875 16.875 15.364 16.875 13.5V4.5C16.875 2.63604 15.364 1.125 13.5 1.125Z" fill="black" fill-opacity="0.7"/>
<mask id="mask0_32_12850" style="mask-type:luminance" maskUnits="userSpaceOnUse" x="2" y="2" width="14" height="14">
<path d="M15.6797 2.17969H2.17969V15.6797H15.6797V2.17969Z" fill="white"/>
</mask>
<g mask="url(#mask0_32_12850)">
<g filter="url(#filter1_d_32_12850)">
<path d="M15.1012 7.54496L6.44824 2.74281L12.2417 11.3507L13.4322 10.5702L15.1012 7.54496Z" fill="url(#paint1_linear_32_12850)"/>
</g>
<g filter="url(#filter2_d_32_12850)">
<path d="M11.6487 5.58683L10.5648 2.93697L8.16699 5.29754L9.14799 13.863L11.4713 15.0857L15.1009 12.9655L11.6487 5.58683Z" fill="url(#paint2_linear_32_12850)"/>
</g>
<g filter="url(#filter3_d_32_12850)">
<path d="M6.44781 2.74281L2.75781 5.22811L4.12967 13.7048L7.66795 15.0651L12.2412 11.3507L6.44781 2.74281Z" fill="url(#paint3_linear_32_12850)"/>
</g>
<g filter="url(#filter4_d_32_12850)">
<path d="M5.07227 5.07254H12.7866V12.7868H5.07227V5.07254Z" fill="black"/>
</g>
<path d="M6.03418 11.3288H8.92703V11.811H6.03418V11.3288Z" fill="white"/>
<path d="M6.03613 6.02654H7.36043C7.51371 6.0171 7.66735 6.03827 7.81238 6.08882C7.95741 6.13938 8.09092 6.21828 8.20513 6.32097C8.28896 6.40925 8.35422 6.51345 8.39707 6.6274C8.43992 6.74136 8.45947 6.86275 8.45456 6.98439V6.99211C8.46414 7.18966 8.40838 7.38485 8.29589 7.54754C8.18342 7.71021 8.02048 7.83131 7.83228 7.89211L8.54199 8.92839H7.79499L7.17399 8.00011H6.67899V8.92839H6.03613V6.02654ZM7.32185 7.44082C7.63299 7.44082 7.81171 7.27497 7.81171 7.03069V7.02297C7.81171 6.74911 7.62143 6.60769 7.31028 6.60769H6.67899V7.44082H7.32185Z" fill="white"/>
<path d="M8.98438 6.02652H10.1158C11.0274 6.02652 11.6587 6.65267 11.6587 7.46909V7.47809C11.6587 8.29452 11.0287 8.92839 10.1158 8.92839H8.98438V6.02652ZM9.62723 6.60252V8.35109H10.1209C10.2369 8.35793 10.353 8.34025 10.4616 8.29922C10.5703 8.2582 10.669 8.19473 10.7515 8.11297C10.834 8.03121 10.8984 7.933 10.9403 7.82472C10.9823 7.71644 11.001 7.60052 10.9952 7.48452V7.47681C11.0011 7.36039 10.9825 7.24402 10.9407 7.13521C10.8989 7.02639 10.8347 6.92756 10.7523 6.84507C10.67 6.76258 10.5712 6.69826 10.4625 6.65627C10.3537 6.61426 10.2374 6.59552 10.1209 6.60124L9.62723 6.60252Z" fill="white"/>
</g>
</g>
</g>
<defs>
<filter id="filter0_i_32_12850" x="1.125" y="1.125" width="15.75" height="19.75" filterUnits="userSpaceOnUse" color-interpolation-filters="sRGB">
<feFlood flood-opacity="0" result="BackgroundImageFix"/>
<feBlend mode="normal" in="SourceGraphic" in2="BackgroundImageFix" result="shape"/>
<feColorMatrix in="SourceAlpha" type="matrix" values="0 0 0 0 0 0 0 0 0 0 0 0 0 0 0 0 0 0 127 0" result="hardAlpha"/>
<feOffset dy="4"/>
<feGaussianBlur stdDeviation="2"/>
<feComposite in2="hardAlpha" operator="arithmetic" k2="-1" k3="1"/>
<feColorMatrix type="matrix" values="0 0 0 0 0 0 0 0 0 0 0 0 0 0 0 0 0 0 0.25 0"/>
<feBlend mode="normal" in2="shape" result="effect1_innerShadow_32_12850"/>
</filter>
<filter id="filter1_d_32_12850" x="2.44824" y="0.742813" width="16.6533" height="16.6078" filterUnits="userSpaceOnUse" color-interpolation-filters="sRGB">
<feFlood flood-opacity="0" result="BackgroundImageFix"/>
<feColorMatrix in="SourceAlpha" type="matrix" values="0 0 0 0 0 0 0 0 0 0 0 0 0 0 0 0 0 0 127 0" result="hardAlpha"/>
<feOffset dy="2"/>
<feGaussianBlur stdDeviation="2"/>
<feComposite in2="hardAlpha" operator="out"/>
<feColorMatrix type="matrix" values="0 0 0 0 0 0 0 0 0 0 0 0 0 0 0 0 0 0 0.25 0"/>
<feBlend mode="normal" in2="BackgroundImageFix" result="effect1_dropShadow_32_12850"/>
<feBlend mode="normal" in="SourceGraphic" in2="effect1_dropShadow_32_12850" result="shape"/>
</filter>
<filter id="filter2_d_32_12850" x="4.16699" y="0.936966" width="14.9336" height="20.1487" filterUnits="userSpaceOnUse" color-interpolation-filters="sRGB">
<feFlood flood-opacity="0" result="BackgroundImageFix"/>
<feColorMatrix in="SourceAlpha" type="matrix" values="0 0 0 0 0 0 0 0 0 0 0 0 0 0 0 0 0 0 127 0" result="hardAlpha"/>
<feOffset dy="2"/>
<feGaussianBlur stdDeviation="2"/>
<feComposite in2="hardAlpha" operator="out"/>
<feColorMatrix type="matrix" values="0 0 0 0 0 0 0 0 0 0 0 0 0 0 0 0 0 0 0.25 0"/>
<feBlend mode="normal" in2="BackgroundImageFix" result="effect1_dropShadow_32_12850"/>
<feBlend mode="normal" in="SourceGraphic" in2="effect1_dropShadow_32_12850" result="shape"/>
</filter>
<filter id="filter3_d_32_12850" x="-1.24219" y="0.742813" width="17.4834" height="20.3223" filterUnits="userSpaceOnUse" color-interpolation-filters="sRGB">
<feFlood flood-opacity="0" result="BackgroundImageFix"/>
<feColorMatrix in="SourceAlpha" type="matrix" values="0 0 0 0 0 0 0 0 0 0 0 0 0 0 0 0 0 0 127 0" result="hardAlpha"/>
<feOffset dy="2"/>
<feGaussianBlur stdDeviation="2"/>
<feComposite in2="hardAlpha" operator="out"/>
<feColorMatrix type="matrix" values="0 0 0 0 0 0 0 0 0 0 0 0 0 0 0 0 0 0 0.25 0"/>
<feBlend mode="normal" in2="BackgroundImageFix" result="effect1_dropShadow_32_12850"/>
<feBlend mode="normal" in="SourceGraphic" in2="effect1_dropShadow_32_12850" result="shape"/>
</filter>
<filter id="filter4_d_32_12850" x="1.07227" y="3.07254" width="15.7139" height="15.7143" filterUnits="userSpaceOnUse" color-interpolation-filters="sRGB">
<feFlood flood-opacity="0" result="BackgroundImageFix"/>
<feColorMatrix in="SourceAlpha" type="matrix" values="0 0 0 0 0 0 0 0 0 0 0 0 0 0 0 0 0 0 127 0" result="hardAlpha"/>
<feOffset dy="2"/>
<feGaussianBlur stdDeviation="2"/>
<feComposite in2="hardAlpha" operator="out"/>
<feColorMatrix type="matrix" values="0 0 0 0 0 0 0 0 0 0 0 0 0 0 0 0 0 0 0.25 0"/>
<feBlend mode="normal" in2="BackgroundImageFix" result="effect1_dropShadow_32_12850"/>
<feBlend mode="normal" in="SourceGraphic" in2="effect1_dropShadow_32_12850" result="shape"/>
</filter>
<linearGradient id="paint0_linear_32_12850" x1="9" y1="0" x2="9" y2="18" gradientUnits="userSpaceOnUse">
<stop stop-color="#087CFA"/>
<stop offset="0.317708" stop-color="#963597"/>
<stop offset="0.671875" stop-color="#DD1265"/>
<stop offset="1" stop-color="#ED6438"/>
</linearGradient>
<linearGradient id="paint1_linear_32_12850" x1="14.3079" y1="9.81296" x2="4.79354" y2="4.35381" gradientUnits="userSpaceOnUse">
<stop stop-color="#DD1265"/>
<stop offset="0.48" stop-color="#DD1265"/>
<stop offset="0.94" stop-color="#FDB60D"/>
</linearGradient>
<linearGradient id="paint2_linear_32_12850" x1="8.65042" y1="3.82026" x2="12.4214" y2="14.2345" gradientUnits="userSpaceOnUse">
<stop offset="0.14" stop-color="#087CFA"/>
<stop offset="0.48" stop-color="#DD1265"/>
<stop offset="0.96" stop-color="#087CFA"/>
</linearGradient>
<linearGradient id="paint3_linear_32_12850" x1="5.82552" y1="4.14167" x2="8.61037" y2="14.0417" gradientUnits="userSpaceOnUse">
<stop offset="0.28" stop-color="#DD1265"/>
<stop offset="0.97" stop-color="#FDB60D"/>
</linearGradient>
<clipPath id="clip0_32_12850">
<rect width="18" height="18" fill="white"/>
</clipPath>
</defs>
</svg>
