<svg width="18" height="18" viewBox="0 0 18 18" fill="none" xmlns="http://www.w3.org/2000/svg">
<g clip-path="url(#clip0_32_12898)">
<path d="M13.5 0H4.5C2.01472 0 0 2.01472 0 4.5V13.5C0 15.9853 2.01472 18 4.5 18H13.5C15.9853 18 18 15.9853 18 13.5V4.5C18 2.01472 15.9853 0 13.5 0Z" fill="url(#paint0_linear_32_12898)"/>
<path d="M13.5 0H4.5C2.01472 0 0 2.01472 0 4.5V13.5C0 15.9853 2.01472 18 4.5 18H13.5C15.9853 18 18 15.9853 18 13.5V4.5C18 2.01472 15.9853 0 13.5 0Z" fill="url(#paint1_linear_32_12898)"/>
<g filter="url(#filter0_i_32_12898)">
<path d="M13.5 1.125H4.5C2.63604 1.125 1.125 2.63604 1.125 4.5V13.5C1.125 15.364 2.63604 16.875 4.5 16.875H13.5C15.364 16.875 16.875 15.364 16.875 13.5V4.5C16.875 2.63604 15.364 1.125 13.5 1.125Z" fill="black" fill-opacity="0.7"/>
<mask id="mask0_32_12898" style="mask-type:luminance" maskUnits="userSpaceOnUse" x="2" y="2" width="14" height="14">
<path d="M15.75 2.25H2.25V15.75H15.75V2.25Z" fill="white"/>
</mask>
<g mask="url(#mask0_32_12898)">
<g filter="url(#filter1_d_32_12898)">
<path d="M12.9655 2.82857L9.43363 4.09371L6.65005 2.82857L5.73335 5.13771H5.14062V11.9546L13.7125 12.0291L15.0433 5.24057L12.9655 2.82857Z" fill="url(#paint2_linear_32_12898)"/>
</g>
<g filter="url(#filter2_d_32_12898)">
<path d="M12.8602 7.25785L7.21973 3.915L12.8602 10.5261V7.25785Z" fill="url(#paint3_linear_32_12898)"/>
</g>
<g filter="url(#filter3_d_32_12898)">
<path d="M7.8379 14.85L12.451 14.2355L11.7349 12.8584H12.8599V10.5261L7.2182 3.90471L2.7002 5.01428L2.70533 11.4943L5.30248 15.1715L7.82375 14.8513L7.83533 14.85H7.8379Z" fill="url(#paint4_linear_32_12898)"/>
</g>
<g filter="url(#filter4_d_32_12898)">
<path d="M5.14258 5.14285H12.8569V12.8571H5.14258V5.14285Z" fill="black"/>
</g>
<path d="M6.10449 11.3991H8.99735V11.8813H6.10449V11.3991Z" fill="white"/>
<path d="M8.96289 6.10328H9.65074L10.4132 7.32985L11.1756 6.10328H11.8634V9.00257H11.2296V7.11L10.4132 8.34815H10.3965L9.58902 7.12285V9.00257H8.96289V6.10328Z" fill="white"/>
<path d="M6.10742 6.10715H7.43172C7.79856 6.10715 8.07972 6.20485 8.27514 6.40029C8.35907 6.48818 8.42432 6.59216 8.46695 6.70597C8.50961 6.81976 8.52877 6.94103 8.52328 7.06243V7.07143C8.53268 7.27621 8.4719 7.47804 8.351 7.64357C8.23525 7.7923 8.07963 7.90511 7.90228 7.96885L8.61072 8.99743H7.865L7.26457 8.109H6.73872V8.99872H6.10742V6.10715ZM7.39314 7.50985C7.52215 7.51558 7.6488 7.47397 7.74927 7.39285C7.79111 7.35548 7.82428 7.30943 7.84649 7.25791C7.86871 7.2064 7.87941 7.15065 7.87785 7.09457V7.08685C7.88264 7.02871 7.87348 6.97025 7.85112 6.91636C7.82874 6.86246 7.79384 6.81469 7.74927 6.777C7.64191 6.70192 7.51236 6.66523 7.38157 6.67285H6.74128V7.50472L7.39314 7.50985Z" fill="white"/>
</g>
</g>
</g>
<defs>
<filter id="filter0_i_32_12898" x="1.125" y="1.125" width="15.75" height="19.75" filterUnits="userSpaceOnUse" color-interpolation-filters="sRGB">
<feFlood flood-opacity="0" result="BackgroundImageFix"/>
<feBlend mode="normal" in="SourceGraphic" in2="BackgroundImageFix" result="shape"/>
<feColorMatrix in="SourceAlpha" type="matrix" values="0 0 0 0 0 0 0 0 0 0 0 0 0 0 0 0 0 0 127 0" result="hardAlpha"/>
<feOffset dy="4"/>
<feGaussianBlur stdDeviation="2"/>
<feComposite in2="hardAlpha" operator="arithmetic" k2="-1" k3="1"/>
<feColorMatrix type="matrix" values="0 0 0 0 0 0 0 0 0 0 0 0 0 0 0 0 0 0 0.25 0"/>
<feBlend mode="normal" in2="shape" result="effect1_innerShadow_32_12898"/>
</filter>
<filter id="filter1_d_32_12898" x="1.14062" y="0.828573" width="17.9023" height="17.2006" filterUnits="userSpaceOnUse" color-interpolation-filters="sRGB">
<feFlood flood-opacity="0" result="BackgroundImageFix"/>
<feColorMatrix in="SourceAlpha" type="matrix" values="0 0 0 0 0 0 0 0 0 0 0 0 0 0 0 0 0 0 127 0" result="hardAlpha"/>
<feOffset dy="2"/>
<feGaussianBlur stdDeviation="2"/>
<feComposite in2="hardAlpha" operator="out"/>
<feColorMatrix type="matrix" values="0 0 0 0 0 0 0 0 0 0 0 0 0 0 0 0 0 0 0.25 0"/>
<feBlend mode="normal" in2="BackgroundImageFix" result="effect1_dropShadow_32_12898"/>
<feBlend mode="normal" in="SourceGraphic" in2="effect1_dropShadow_32_12898" result="shape"/>
</filter>
<filter id="filter2_d_32_12898" x="3.21973" y="1.915" width="13.6406" height="14.6111" filterUnits="userSpaceOnUse" color-interpolation-filters="sRGB">
<feFlood flood-opacity="0" result="BackgroundImageFix"/>
<feColorMatrix in="SourceAlpha" type="matrix" values="0 0 0 0 0 0 0 0 0 0 0 0 0 0 0 0 0 0 127 0" result="hardAlpha"/>
<feOffset dy="2"/>
<feGaussianBlur stdDeviation="2"/>
<feComposite in2="hardAlpha" operator="out"/>
<feColorMatrix type="matrix" values="0 0 0 0 0 0 0 0 0 0 0 0 0 0 0 0 0 0 0.25 0"/>
<feBlend mode="normal" in2="BackgroundImageFix" result="effect1_dropShadow_32_12898"/>
<feBlend mode="normal" in="SourceGraphic" in2="effect1_dropShadow_32_12898" result="shape"/>
</filter>
<filter id="filter3_d_32_12898" x="-1.2998" y="1.90471" width="18.1602" height="19.2668" filterUnits="userSpaceOnUse" color-interpolation-filters="sRGB">
<feFlood flood-opacity="0" result="BackgroundImageFix"/>
<feColorMatrix in="SourceAlpha" type="matrix" values="0 0 0 0 0 0 0 0 0 0 0 0 0 0 0 0 0 0 127 0" result="hardAlpha"/>
<feOffset dy="2"/>
<feGaussianBlur stdDeviation="2"/>
<feComposite in2="hardAlpha" operator="out"/>
<feColorMatrix type="matrix" values="0 0 0 0 0 0 0 0 0 0 0 0 0 0 0 0 0 0 0.25 0"/>
<feBlend mode="normal" in2="BackgroundImageFix" result="effect1_dropShadow_32_12898"/>
<feBlend mode="normal" in="SourceGraphic" in2="effect1_dropShadow_32_12898" result="shape"/>
</filter>
<filter id="filter4_d_32_12898" x="1.14258" y="3.14285" width="15.7139" height="15.7143" filterUnits="userSpaceOnUse" color-interpolation-filters="sRGB">
<feFlood flood-opacity="0" result="BackgroundImageFix"/>
<feColorMatrix in="SourceAlpha" type="matrix" values="0 0 0 0 0 0 0 0 0 0 0 0 0 0 0 0 0 0 127 0" result="hardAlpha"/>
<feOffset dy="2"/>
<feGaussianBlur stdDeviation="2"/>
<feComposite in2="hardAlpha" operator="out"/>
<feColorMatrix type="matrix" values="0 0 0 0 0 0 0 0 0 0 0 0 0 0 0 0 0 0 0.25 0"/>
<feBlend mode="normal" in2="BackgroundImageFix" result="effect1_dropShadow_32_12898"/>
<feBlend mode="normal" in="SourceGraphic" in2="effect1_dropShadow_32_12898" result="shape"/>
</filter>
<linearGradient id="paint0_linear_32_12898" x1="9" y1="0" x2="9" y2="18" gradientUnits="userSpaceOnUse">
<stop stop-color="#087CFA"/>
<stop offset="0.317708" stop-color="#963597"/>
<stop offset="0.671875" stop-color="#DD1265"/>
<stop offset="1" stop-color="#ED6438"/>
</linearGradient>
<linearGradient id="paint1_linear_32_12898" x1="0.0956719" y1="1.43992" x2="12.4054" y2="18.7917" gradientUnits="userSpaceOnUse">
<stop stop-color="#6B57FF"/>
<stop offset="0.3" stop-color="#FE2857"/>
<stop offset="0.63" stop-color="#FE2857"/>
<stop offset="0.64" stop-color="#FE3052"/>
<stop offset="0.7" stop-color="#FD533B"/>
<stop offset="0.76" stop-color="#FC6C2A"/>
<stop offset="0.81" stop-color="#FC7B20"/>
<stop offset="0.85" stop-color="#FC801D"/>
</linearGradient>
<linearGradient id="paint2_linear_32_12898" x1="10.6139" y1="9.96813" x2="9.05305" y2="5.87313" gradientUnits="userSpaceOnUse">
<stop stop-color="#FE2857"/>
<stop offset="0.06" stop-color="#FE3052"/>
<stop offset="0.33" stop-color="#FD533B"/>
<stop offset="0.58" stop-color="#FC6C2A"/>
<stop offset="0.81" stop-color="#FC7B20"/>
<stop offset="1" stop-color="#FC801D"/>
</linearGradient>
<linearGradient id="paint3_linear_32_12898" x1="7.64143" y1="4.10785" x2="10.0509" y2="6.31671" gradientUnits="userSpaceOnUse">
<stop stop-color="#6B57FF"/>
<stop offset="1" stop-color="#FE2857"/>
</linearGradient>
<linearGradient id="paint4_linear_32_12898" x1="2.7542" y1="4.806" x2="10.6883" y2="14.8912" gradientUnits="userSpaceOnUse">
<stop stop-color="#6B57FF"/>
<stop offset="0.3" stop-color="#FE2857"/>
<stop offset="0.63" stop-color="#FE2857"/>
<stop offset="0.64" stop-color="#FE3052"/>
<stop offset="0.7" stop-color="#FD533B"/>
<stop offset="0.76" stop-color="#FC6C2A"/>
<stop offset="0.81" stop-color="#FC7B20"/>
<stop offset="0.85" stop-color="#FC801D"/>
</linearGradient>
<clipPath id="clip0_32_12898">
<rect width="18" height="18" fill="white"/>
</clipPath>
</defs>
</svg>
