<svg width="18" height="18" viewBox="0 0 18 18" fill="none" xmlns="http://www.w3.org/2000/svg">
<g clip-path="url(#clip0_32_12937)">
<path d="M13.5 0H4.5C2.01472 0 0 2.01472 0 4.5V13.5C0 15.9853 2.01472 18 4.5 18H13.5C15.9853 18 18 15.9853 18 13.5V4.5C18 2.01472 15.9853 0 13.5 0Z" fill="url(#paint0_linear_32_12937)"/>
<g filter="url(#filter0_i_32_12937)">
<path d="M13.5 1.125H4.5C2.63604 1.125 1.125 2.63604 1.125 4.5V13.5C1.125 15.364 2.63604 16.875 4.5 16.875H13.5C15.364 16.875 16.875 15.364 16.875 13.5V4.5C16.875 2.63604 15.364 1.125 13.5 1.125Z" fill="black" fill-opacity="0.7"/>
<g filter="url(#filter1_d_32_12937)">
<path d="M13.3155 9.02572C13.3155 8.89387 13.218 8.81785 13.0985 8.85562L4.87229 11.4641C4.75247 11.5022 4.65527 11.64 4.65527 11.7716V14.4377C4.65527 14.5695 4.75247 14.6458 4.87229 14.6077L13.0985 11.9995C13.218 11.9615 13.3155 11.8236 13.3155 11.6917V9.02572Z" fill="url(#paint1_linear_32_12937)"/>
<path d="M4.65527 8.94078C4.65527 9.07263 4.75247 9.21049 4.87229 9.24851L13.0997 11.8573C13.2195 11.8953 13.3167 11.819 13.3167 11.6874V9.02115C13.3167 8.88954 13.2195 8.75169 13.0997 8.71367L4.87229 6.1049C4.75247 6.06689 4.65527 6.14292 4.65527 6.27476V8.94078Z" fill="#FF9800"/>
<path d="M13.3155 3.54739C13.3155 3.41554 13.218 3.33927 13.0985 3.37729L4.87229 5.98558C4.75247 6.02359 4.65527 6.16144 4.65527 6.29329V8.95932C4.65527 9.09115 4.75247 9.16719 4.87229 9.12942L13.0985 6.52089C13.218 6.48288 13.3155 6.34501 13.3155 6.21342V3.54739Z" fill="#FF9800"/>
</g>
</g>
</g>
<defs>
<filter id="filter0_i_32_12937" x="1.125" y="1.125" width="15.75" height="19.75" filterUnits="userSpaceOnUse" color-interpolation-filters="sRGB">
<feFlood flood-opacity="0" result="BackgroundImageFix"/>
<feBlend mode="normal" in="SourceGraphic" in2="BackgroundImageFix" result="shape"/>
<feColorMatrix in="SourceAlpha" type="matrix" values="0 0 0 0 0 0 0 0 0 0 0 0 0 0 0 0 0 0 127 0" result="hardAlpha"/>
<feOffset dy="4"/>
<feGaussianBlur stdDeviation="2"/>
<feComposite in2="hardAlpha" operator="arithmetic" k2="-1" k3="1"/>
<feColorMatrix type="matrix" values="0 0 0 0 0 0 0 0 0 0 0 0 0 0 0 0 0 0 0.25 0"/>
<feBlend mode="normal" in2="shape" result="effect1_innerShadow_32_12937"/>
</filter>
<filter id="filter1_d_32_12937" x="1.31823" y="1.699" width="15.3352" height="17.9241" filterUnits="userSpaceOnUse" color-interpolation-filters="sRGB">
<feFlood flood-opacity="0" result="BackgroundImageFix"/>
<feColorMatrix in="SourceAlpha" type="matrix" values="0 0 0 0 0 0 0 0 0 0 0 0 0 0 0 0 0 0 127 0" result="hardAlpha"/>
<feOffset dy="1.66852"/>
<feGaussianBlur stdDeviation="1.66852"/>
<feComposite in2="hardAlpha" operator="out"/>
<feColorMatrix type="matrix" values="0 0 0 0 0 0 0 0 0 0 0 0 0 0 0 0 0 0 0.25 0"/>
<feBlend mode="normal" in2="BackgroundImageFix" result="effect1_dropShadow_32_12937"/>
<feBlend mode="normal" in="SourceGraphic" in2="effect1_dropShadow_32_12937" result="shape"/>
</filter>
<linearGradient id="paint0_linear_32_12937" x1="9" y1="18" x2="9" y2="0" gradientUnits="userSpaceOnUse">
<stop stop-color="#D06F00"/>
<stop offset="1" stop-color="#FF9800"/>
</linearGradient>
<linearGradient id="paint1_linear_32_12937" x1="481.979" y1="347.52" x2="518.301" y2="226.069" gradientUnits="userSpaceOnUse">
<stop stop-color="#FF9700"/>
<stop offset="0.53" stop-color="#F48E00"/>
<stop offset="1" stop-color="#D06F00"/>
</linearGradient>
<clipPath id="clip0_32_12937">
<rect width="18" height="18" fill="white"/>
</clipPath>
</defs>
</svg>
