<svg width="18" height="18" viewBox="0 0 18 18" fill="none" xmlns="http://www.w3.org/2000/svg">
<g clip-path="url(#clip0_32_12945)">
<path d="M13.5 0H4.5C2.01472 0 0 2.01472 0 4.5V13.5C0 15.9853 2.01472 18 4.5 18H13.5C15.9853 18 18 15.9853 18 13.5V4.5C18 2.01472 15.9853 0 13.5 0Z" fill="url(#paint0_linear_32_12945)"/>
<g filter="url(#filter0_i_32_12945)">
<path d="M13.5 1.125H4.5C2.63604 1.125 1.125 2.63604 1.125 4.5V13.5C1.125 15.364 2.63604 16.875 4.5 16.875H13.5C15.364 16.875 16.875 15.364 16.875 13.5V4.5C16.875 2.63604 15.364 1.125 13.5 1.125Z" fill="black" fill-opacity="0.7"/>
<path fill-rule="evenodd" clip-rule="evenodd" d="M6.41485 4.18063C6.25695 4.02484 6.04408 3.9375 5.82227 3.9375H3.65625C3.19026 3.9375 2.8125 4.31526 2.8125 4.78125V13.2188C2.8125 13.6847 3.19026 14.0625 3.65625 14.0625H14.3438C14.8098 14.0625 15.1875 13.6847 15.1875 13.2188V6.1875C15.1875 5.72151 14.8098 5.34375 14.3438 5.34375H7.93991C7.7181 5.34375 7.50523 5.25641 7.34733 5.10062L6.41485 4.18063Z" fill="#5739A8"/>
<path d="M13.9265 6.04688H4.07324C3.84025 6.04688 3.65137 6.23575 3.65137 6.46875V11.6719C3.65137 11.9049 3.84025 12.0938 4.07324 12.0938H13.9265C14.1595 12.0938 14.3484 11.9049 14.3484 11.6719V6.46875C14.3484 6.23575 14.1595 6.04688 13.9265 6.04688Z" fill="#FAFAFA"/>
<g filter="url(#filter1_d_32_12945)">
<path d="M2.8125 7.59375C2.8125 7.12776 3.19026 6.75 3.65625 6.75H14.3438C14.8098 6.75 15.1875 7.12776 15.1875 7.59375V13.2188C15.1875 13.6847 14.8098 14.0625 14.3438 14.0625H3.65625C3.19026 14.0625 2.8125 13.6847 2.8125 13.2188V7.59375Z" fill="#7962E7"/>
</g>
</g>
</g>
<defs>
<filter id="filter0_i_32_12945" x="1.125" y="1.125" width="15.75" height="19.75" filterUnits="userSpaceOnUse" color-interpolation-filters="sRGB">
<feFlood flood-opacity="0" result="BackgroundImageFix"/>
<feBlend mode="normal" in="SourceGraphic" in2="BackgroundImageFix" result="shape"/>
<feColorMatrix in="SourceAlpha" type="matrix" values="0 0 0 0 0 0 0 0 0 0 0 0 0 0 0 0 0 0 127 0" result="hardAlpha"/>
<feOffset dy="4"/>
<feGaussianBlur stdDeviation="2"/>
<feComposite in2="hardAlpha" operator="arithmetic" k2="-1" k3="1"/>
<feColorMatrix type="matrix" values="0 0 0 0 0 0 0 0 0 0 0 0 0 0 0 0 0 0 0.25 0"/>
<feBlend mode="normal" in2="shape" result="effect1_innerShadow_32_12945"/>
</filter>
<filter id="filter1_d_32_12945" x="-0.1875" y="5.25" width="18.375" height="13.3125" filterUnits="userSpaceOnUse" color-interpolation-filters="sRGB">
<feFlood flood-opacity="0" result="BackgroundImageFix"/>
<feColorMatrix in="SourceAlpha" type="matrix" values="0 0 0 0 0 0 0 0 0 0 0 0 0 0 0 0 0 0 127 0" result="hardAlpha"/>
<feOffset dy="1.5"/>
<feGaussianBlur stdDeviation="1.5"/>
<feComposite in2="hardAlpha" operator="out"/>
<feColorMatrix type="matrix" values="0 0 0 0 0 0 0 0 0 0 0 0 0 0 0 0 0 0 0.25 0"/>
<feBlend mode="normal" in2="BackgroundImageFix" result="effect1_dropShadow_32_12945"/>
<feBlend mode="normal" in="SourceGraphic" in2="effect1_dropShadow_32_12945" result="shape"/>
</filter>
<linearGradient id="paint0_linear_32_12945" x1="18" y1="0" x2="0" y2="18" gradientUnits="userSpaceOnUse">
<stop stop-color="#6653C3"/>
<stop offset="1" stop-color="#5638A5"/>
</linearGradient>
<clipPath id="clip0_32_12945">
<rect width="18" height="18" fill="white"/>
</clipPath>
</defs>
</svg>
