<svg width="18" height="18" viewBox="0 0 18 18" fill="none" xmlns="http://www.w3.org/2000/svg">
<g clip-path="url(#clip0_32_12982)">
<path d="M13.5 0H4.5C2.01472 0 0 2.01472 0 4.5V13.5C0 15.9853 2.01472 18 4.5 18H13.5C15.9853 18 18 15.9853 18 13.5V4.5C18 2.01472 15.9853 0 13.5 0Z" fill="url(#paint0_linear_32_12982)"/>
<g filter="url(#filter0_i_32_12982)">
<path d="M13.5 1.125H4.5C2.63604 1.125 1.125 2.63604 1.125 4.5V13.5C1.125 15.364 2.63604 16.875 4.5 16.875H13.5C15.364 16.875 16.875 15.364 16.875 13.5V4.5C16.875 2.63604 15.364 1.125 13.5 1.125Z" fill="black" fill-opacity="0.7"/>
<g filter="url(#filter1_d_32_12982)">
<path d="M4.21875 5.0625C4.21875 3.81985 5.2261 2.8125 6.46875 2.8125H11.5312C12.7739 2.8125 13.7812 3.81985 13.7812 5.0625V12.9375C13.7812 14.1802 12.7739 15.1875 11.5312 15.1875H6.46875C5.2261 15.1875 4.21875 14.1802 4.21875 12.9375V5.0625Z" fill="#7962E7"/>
</g>
<path d="M4.21875 5.625H13.7812V12.9375C13.7812 14.1802 12.7739 15.1875 11.5312 15.1875H6.46875C5.2261 15.1875 4.21875 14.1802 4.21875 12.9375V5.625Z" fill="#FAFAFA"/>
<path d="M8.71875 9H5.90625C5.59559 9 5.34375 9.25184 5.34375 9.5625C5.34375 9.87316 5.59559 10.125 5.90625 10.125H8.71875C9.02941 10.125 9.28125 9.87316 9.28125 9.5625C9.28125 9.25184 9.02941 9 8.71875 9Z" fill="#222222"/>
<path d="M12.0938 6.75H5.90625C5.59559 6.75 5.34375 7.00184 5.34375 7.3125C5.34375 7.62316 5.59559 7.875 5.90625 7.875H12.0938C12.4044 7.875 12.6562 7.62316 12.6562 7.3125C12.6562 7.00184 12.4044 6.75 12.0938 6.75Z" fill="#222222"/>
</g>
</g>
<defs>
<filter id="filter0_i_32_12982" x="1.125" y="1.125" width="15.75" height="19.75" filterUnits="userSpaceOnUse" color-interpolation-filters="sRGB">
<feFlood flood-opacity="0" result="BackgroundImageFix"/>
<feBlend mode="normal" in="SourceGraphic" in2="BackgroundImageFix" result="shape"/>
<feColorMatrix in="SourceAlpha" type="matrix" values="0 0 0 0 0 0 0 0 0 0 0 0 0 0 0 0 0 0 127 0" result="hardAlpha"/>
<feOffset dy="4"/>
<feGaussianBlur stdDeviation="2"/>
<feComposite in2="hardAlpha" operator="arithmetic" k2="-1" k3="1"/>
<feColorMatrix type="matrix" values="0 0 0 0 0 0 0 0 0 0 0 0 0 0 0 0 0 0 0.25 0"/>
<feBlend mode="normal" in2="shape" result="effect1_innerShadow_32_12982"/>
</filter>
<filter id="filter1_d_32_12982" x="0.21875" y="0.8125" width="17.5625" height="20.375" filterUnits="userSpaceOnUse" color-interpolation-filters="sRGB">
<feFlood flood-opacity="0" result="BackgroundImageFix"/>
<feColorMatrix in="SourceAlpha" type="matrix" values="0 0 0 0 0 0 0 0 0 0 0 0 0 0 0 0 0 0 127 0" result="hardAlpha"/>
<feOffset dy="2"/>
<feGaussianBlur stdDeviation="2"/>
<feComposite in2="hardAlpha" operator="out"/>
<feColorMatrix type="matrix" values="0 0 0 0 0 0 0 0 0 0 0 0 0 0 0 0 0 0 0.25 0"/>
<feBlend mode="normal" in2="BackgroundImageFix" result="effect1_dropShadow_32_12982"/>
<feBlend mode="normal" in="SourceGraphic" in2="effect1_dropShadow_32_12982" result="shape"/>
</filter>
<linearGradient id="paint0_linear_32_12982" x1="18" y1="0" x2="0" y2="18" gradientUnits="userSpaceOnUse">
<stop stop-color="#6653C3"/>
<stop offset="1" stop-color="#5638A5"/>
</linearGradient>
<clipPath id="clip0_32_12982">
<rect width="18" height="18" fill="white"/>
</clipPath>
</defs>
</svg>
