<svg width="18" height="18" viewBox="0 0 18 18" fill="none" xmlns="http://www.w3.org/2000/svg">
<g clip-path="url(#clip0_32_12991)">
<path d="M13.5 0H4.5C2.01472 0 0 2.01472 0 4.5V13.5C0 15.9853 2.01472 18 4.5 18H13.5C15.9853 18 18 15.9853 18 13.5V4.5C18 2.01472 15.9853 0 13.5 0Z" fill="url(#paint0_linear_32_12991)"/>
<path d="M13.5 0H4.5C2.01472 0 0 2.01472 0 4.5V13.5C0 15.9853 2.01472 18 4.5 18H13.5C15.9853 18 18 15.9853 18 13.5V4.5C18 2.01472 15.9853 0 13.5 0Z" fill="black" fill-opacity="0.9"/>
<g filter="url(#filter0_i_32_12991)">
<path d="M13.5 1.125H4.5C2.63604 1.125 1.125 2.63604 1.125 4.5V13.5C1.125 15.364 2.63604 16.875 4.5 16.875H13.5C15.364 16.875 16.875 15.364 16.875 13.5V4.5C16.875 2.63604 15.364 1.125 13.5 1.125Z" fill="black" fill-opacity="0.7"/>
<path d="M11.6682 8.58916C11.6197 8.56593 11.5705 8.54357 11.5207 8.52217C11.4338 6.92215 10.5595 6.00615 9.09153 5.99677C9.08488 5.99674 9.07825 5.99674 9.0716 5.99674C8.19354 5.99674 7.46327 6.37154 7.01379 7.05355L7.82116 7.60739C8.15693 7.09795 8.6839 6.98934 9.072 6.98934C9.07648 6.98934 9.08098 6.98934 9.08541 6.98939C9.56878 6.99247 9.93352 7.13301 10.1696 7.40707C10.3414 7.6066 10.4563 7.88233 10.5132 8.2303C10.0846 8.15746 9.62116 8.13507 9.12569 8.16348C7.72997 8.24387 6.83268 9.05788 6.89295 10.189C6.92353 10.7627 7.20936 11.2563 7.69777 11.5788C8.1107 11.8513 8.64253 11.9847 9.19525 11.9545C9.92519 11.9145 10.4978 11.636 10.8973 11.1267C11.2007 10.74 11.3926 10.2388 11.4773 9.60739C11.8252 9.81733 12.083 10.0936 12.2254 10.4257C12.4675 10.9903 12.4816 11.918 11.7247 12.6743C11.0614 13.3369 10.2642 13.6235 9.0594 13.6324C7.72291 13.6225 6.71214 13.1938 6.05497 12.3584C5.43958 11.5761 5.12156 10.4462 5.10969 9C5.12156 7.55377 5.43958 6.42385 6.05497 5.64157C6.71214 4.80614 7.7229 4.37754 9.05937 4.3676C10.4056 4.37761 11.4339 4.80828 12.1163 5.64774C12.4508 6.05939 12.7031 6.57707 12.8694 7.18068L13.8155 6.92826C13.6139 6.18528 13.2967 5.54505 12.8651 5.0141C11.9904 3.93789 10.7111 3.38643 9.06267 3.375H9.05608C7.41103 3.38639 6.14602 3.93995 5.2962 5.02027C4.53996 5.98162 4.14987 7.31928 4.13676 8.99605L4.13672 9L4.13676 9.00395C4.14987 10.6807 4.53996 12.0184 5.2962 12.9797C6.14602 14.06 7.41103 14.6136 9.05608 14.625H9.06267C10.5252 14.6149 11.5561 14.232 12.4054 13.3835C13.5165 12.2734 13.483 10.882 13.1168 10.0278C12.8541 9.41525 12.3532 8.91775 11.6682 8.58916ZM9.14301 10.9633C8.53129 10.9978 7.89577 10.7232 7.86443 10.1351C7.8412 9.69902 8.17476 9.21246 9.18054 9.1545C9.29573 9.14785 9.40875 9.1446 9.51979 9.1446C9.88512 9.1446 10.2269 9.1801 10.5376 9.24802C10.4217 10.6954 9.74192 10.9304 9.14301 10.9633Z" fill="white"/>
</g>
</g>
<defs>
<filter id="filter0_i_32_12991" x="1.125" y="1.125" width="15.75" height="19.75" filterUnits="userSpaceOnUse" color-interpolation-filters="sRGB">
<feFlood flood-opacity="0" result="BackgroundImageFix"/>
<feBlend mode="normal" in="SourceGraphic" in2="BackgroundImageFix" result="shape"/>
<feColorMatrix in="SourceAlpha" type="matrix" values="0 0 0 0 0 0 0 0 0 0 0 0 0 0 0 0 0 0 127 0" result="hardAlpha"/>
<feOffset dy="4"/>
<feGaussianBlur stdDeviation="2"/>
<feComposite in2="hardAlpha" operator="arithmetic" k2="-1" k3="1"/>
<feColorMatrix type="matrix" values="0 0 0 0 0 0 0 0 0 0 0 0 0 0 0 0 0 0 0.25 0"/>
<feBlend mode="normal" in2="shape" result="effect1_innerShadow_32_12991"/>
</filter>
<linearGradient id="paint0_linear_32_12991" x1="9" y1="0" x2="9" y2="18" gradientUnits="userSpaceOnUse">
<stop stop-color="white"/>
<stop offset="1" stop-color="#DFDFDF"/>
</linearGradient>
<clipPath id="clip0_32_12991">
<rect width="18" height="18" fill="white"/>
</clipPath>
</defs>
</svg>
