<svg width="18" height="18" viewBox="0 0 18 18" fill="none" xmlns="http://www.w3.org/2000/svg">
<g clip-path="url(#clip0_32_12997)">
<path d="M13.5 0H4.5C2.01472 0 0 2.01472 0 4.5V13.5C0 15.9853 2.01472 18 4.5 18H13.5C15.9853 18 18 15.9853 18 13.5V4.5C18 2.01472 15.9853 0 13.5 0Z" fill="url(#paint0_linear_32_12997)"/>
<path d="M13.5 0H4.5C2.01472 0 0 2.01472 0 4.5V13.5C0 15.9853 2.01472 18 4.5 18H13.5C15.9853 18 18 15.9853 18 13.5V4.5C18 2.01472 15.9853 0 13.5 0Z" fill="url(#paint1_linear_32_12997)"/>
<g filter="url(#filter0_i_32_12997)">
<path d="M13.5 1.125H4.5C2.63604 1.125 1.125 2.63604 1.125 4.5V13.5C1.125 15.364 2.63604 16.875 4.5 16.875H13.5C15.364 16.875 16.875 15.364 16.875 13.5V4.5C16.875 2.63604 15.364 1.125 13.5 1.125Z" fill="black" fill-opacity="0.7"/>
<path d="M9 14.4053C11.9852 14.4053 14.4053 11.9852 14.4053 9C14.4053 6.01476 11.9852 3.59473 9 3.59473C6.01476 3.59473 3.59473 6.01476 3.59473 9C3.59473 11.9852 6.01476 14.4053 9 14.4053Z" fill="#F2E4FF"/>
<path fill-rule="evenodd" clip-rule="evenodd" d="M9.01155 13.602V12.9201C11.1715 12.9138 12.9204 11.1613 12.9204 8.99985C12.9204 6.83851 11.1715 5.08601 9.01155 5.07978V4.39789C11.548 4.40429 13.6021 6.46193 13.6021 8.99985C13.6021 11.5379 11.548 13.5957 9.01155 13.602ZM9.01155 11.2153C10.2298 11.2089 11.2159 10.2198 11.2159 8.99985C11.2159 7.78001 10.2298 6.79095 9.01155 6.78455V6.10283C10.6065 6.10907 11.8978 7.40344 11.8978 8.99985C11.8978 10.5964 10.6065 11.8908 9.01155 11.897V11.2153ZM9.01155 7.80729C9.66504 7.81353 10.1932 8.34479 10.1932 8.99985C10.1932 9.65506 9.66504 10.1863 9.01155 10.1925V7.80729ZM3.375 8.99985C3.375 12.1066 5.89326 14.625 9 14.625C12.1066 14.625 14.625 12.1066 14.625 8.99985C14.625 5.89326 12.1066 3.375 9 3.375C5.89326 3.375 3.375 5.89326 3.375 8.99985Z" fill="#941AD0"/>
<g filter="url(#filter1_d_32_12997)">
<path d="M8.99952 4.01221C6.1963 4.01221 3.92383 6.27484 3.92383 9.06593C3.92383 11.857 6.1963 14.1196 8.99952 14.1196V4.01221Z" fill="black"/>
</g>
<path d="M9 3.375C5.8934 3.375 3.375 5.8934 3.375 9C3.375 12.1066 5.8934 14.625 9 14.625V3.375Z" fill="#8116B6"/>
</g>
</g>
<defs>
<filter id="filter0_i_32_12997" x="1.125" y="1.125" width="15.75" height="19.75" filterUnits="userSpaceOnUse" color-interpolation-filters="sRGB">
<feFlood flood-opacity="0" result="BackgroundImageFix"/>
<feBlend mode="normal" in="SourceGraphic" in2="BackgroundImageFix" result="shape"/>
<feColorMatrix in="SourceAlpha" type="matrix" values="0 0 0 0 0 0 0 0 0 0 0 0 0 0 0 0 0 0 127 0" result="hardAlpha"/>
<feOffset dy="4"/>
<feGaussianBlur stdDeviation="2"/>
<feComposite in2="hardAlpha" operator="arithmetic" k2="-1" k3="1"/>
<feColorMatrix type="matrix" values="0 0 0 0 0 0 0 0 0 0 0 0 0 0 0 0 0 0 0.25 0"/>
<feBlend mode="normal" in2="shape" result="effect1_innerShadow_32_12997"/>
</filter>
<filter id="filter1_d_32_12997" x="-0.451172" y="0.887207" width="11.3262" height="16.3574" filterUnits="userSpaceOnUse" color-interpolation-filters="sRGB">
<feFlood flood-opacity="0" result="BackgroundImageFix"/>
<feColorMatrix in="SourceAlpha" type="matrix" values="0 0 0 0 0 0 0 0 0 0 0 0 0 0 0 0 0 0 127 0" result="hardAlpha"/>
<feOffset dx="-1.25"/>
<feGaussianBlur stdDeviation="1.5625"/>
<feColorMatrix type="matrix" values="0 0 0 0 0.25098 0 0 0 0 0.25098 0 0 0 0 0.25098 0 0 0 0.2 0"/>
<feBlend mode="normal" in2="BackgroundImageFix" result="effect1_dropShadow_32_12997"/>
<feBlend mode="normal" in="SourceGraphic" in2="effect1_dropShadow_32_12997" result="shape"/>
</filter>
<linearGradient id="paint0_linear_32_12997" x1="27.0281" y1="-4.97552" x2="-3.98808" y2="17.9925" gradientUnits="userSpaceOnUse">
<stop stop-color="#D446FF"/>
<stop offset="1" stop-color="#A0D8FF"/>
</linearGradient>
<linearGradient id="paint1_linear_32_12997" x1="9" y1="0" x2="9" y2="18" gradientUnits="userSpaceOnUse">
<stop stop-color="#951AD1"/>
<stop offset="1" stop-color="#6C1397"/>
</linearGradient>
<clipPath id="clip0_32_12997">
<rect width="18" height="18" fill="white"/>
</clipPath>
</defs>
</svg>
