<svg width="18" height="18" viewBox="0 0 18 18" fill="none" xmlns="http://www.w3.org/2000/svg">
<g clip-path="url(#clip0_32_13007)">
<path d="M13.5 0H4.5C2.01472 0 0 2.01472 0 4.5V13.5C0 15.9853 2.01472 18 4.5 18H13.5C15.9853 18 18 15.9853 18 13.5V4.5C18 2.01472 15.9853 0 13.5 0Z" fill="#D3B9FF"/>
<path d="M13.5 0H4.5C2.01472 0 0 2.01472 0 4.5V13.5C0 15.9853 2.01472 18 4.5 18H13.5C15.9853 18 18 15.9853 18 13.5V4.5C18 2.01472 15.9853 0 13.5 0Z" fill="url(#paint0_linear_32_13007)"/>
<path d="M13.5 0H4.5C2.01472 0 0 2.01472 0 4.5V13.5C0 15.9853 2.01472 18 4.5 18H13.5C15.9853 18 18 15.9853 18 13.5V4.5C18 2.01472 15.9853 0 13.5 0Z" fill="url(#paint1_linear_32_13007)"/>
<g filter="url(#filter0_i_32_13007)">
<path d="M13.5 1.125H4.5C2.63604 1.125 1.125 2.63604 1.125 4.5V13.5C1.125 15.364 2.63604 16.875 4.5 16.875H13.5C15.364 16.875 16.875 15.364 16.875 13.5V4.5C16.875 2.63604 15.364 1.125 13.5 1.125Z" fill="black" fill-opacity="0.7"/>
<g filter="url(#filter1_d_32_13007)">
<path d="M3.72656 7.73428L6.67969 6.46866V10.0546C6.67969 11.3361 7.71853 12.3749 9 12.3749C10.2815 12.3749 11.3203 11.3361 11.3203 10.0546V4.35928L14.2734 3.09366V10.6874C14.2734 13.0174 12.3846 14.9061 10.0547 14.9061H7.94531C5.61537 14.9061 3.72656 13.0174 3.72656 10.6874V7.73428Z" fill="#C10080"/>
<path d="M3.72656 7.73428L6.67969 6.46866V10.0546C6.67969 11.3361 7.71853 12.3749 9 12.3749C10.2815 12.3749 11.3203 11.3361 11.3203 10.0546V4.35928L14.2734 3.09366V10.6874C14.2734 13.0174 12.3846 14.9061 10.0547 14.9061H7.94531C5.61537 14.9061 3.72656 13.0174 3.72656 10.6874V7.73428Z" fill="#8B00E7"/>
</g>
<g filter="url(#filter2_d_32_13007)">
<path d="M7.94531 14.9061H10.0547C12.3846 14.9061 14.2734 13.0174 14.2734 10.6874V8.57803C13.8516 6.6796 13.1393 5.80669 11.3203 4.78116V10.0546C11.3203 12.501 8.49333 14.4558 6.04688 14.4558C6.6175 14.744 7.26247 14.9061 7.94531 14.9061Z" fill="#D3B9FF"/>
<path d="M7.94531 14.9061H10.0547C12.3846 14.9061 14.2734 13.0174 14.2734 10.6874V8.57803C13.8516 6.6796 13.1393 5.80669 11.3203 4.78116V10.0546C11.3203 12.501 8.49333 14.4558 6.04688 14.4558C6.6175 14.744 7.26247 14.9061 7.94531 14.9061Z" fill="#D404FF"/>
</g>
</g>
</g>
<defs>
<filter id="filter0_i_32_13007" x="1.125" y="1.125" width="15.75" height="17.75" filterUnits="userSpaceOnUse" color-interpolation-filters="sRGB">
<feFlood flood-opacity="0" result="BackgroundImageFix"/>
<feBlend mode="normal" in="SourceGraphic" in2="BackgroundImageFix" result="shape"/>
<feColorMatrix in="SourceAlpha" type="matrix" values="0 0 0 0 0 0 0 0 0 0 0 0 0 0 0 0 0 0 127 0" result="hardAlpha"/>
<feOffset dy="2"/>
<feGaussianBlur stdDeviation="2"/>
<feComposite in2="hardAlpha" operator="arithmetic" k2="-1" k3="1"/>
<feColorMatrix type="matrix" values="0 0 0 0 0 0 0 0 0 0 0 0 0 0 0 0 0 0 0.25 0"/>
<feBlend mode="normal" in2="shape" result="effect1_innerShadow_32_13007"/>
</filter>
<filter id="filter1_d_32_13007" x="-0.273438" y="1.09366" width="18.5469" height="19.8124" filterUnits="userSpaceOnUse" color-interpolation-filters="sRGB">
<feFlood flood-opacity="0" result="BackgroundImageFix"/>
<feColorMatrix in="SourceAlpha" type="matrix" values="0 0 0 0 0 0 0 0 0 0 0 0 0 0 0 0 0 0 127 0" result="hardAlpha"/>
<feOffset dy="2"/>
<feGaussianBlur stdDeviation="2"/>
<feComposite in2="hardAlpha" operator="out"/>
<feColorMatrix type="matrix" values="0 0 0 0 0 0 0 0 0 0 0 0 0 0 0 0 0 0 0.25 0"/>
<feBlend mode="normal" in2="BackgroundImageFix" result="effect1_dropShadow_32_13007"/>
<feBlend mode="normal" in="SourceGraphic" in2="effect1_dropShadow_32_13007" result="shape"/>
</filter>
<filter id="filter2_d_32_13007" x="2.04688" y="2.78116" width="16.2266" height="18.1249" filterUnits="userSpaceOnUse" color-interpolation-filters="sRGB">
<feFlood flood-opacity="0" result="BackgroundImageFix"/>
<feColorMatrix in="SourceAlpha" type="matrix" values="0 0 0 0 0 0 0 0 0 0 0 0 0 0 0 0 0 0 127 0" result="hardAlpha"/>
<feOffset dy="2"/>
<feGaussianBlur stdDeviation="2"/>
<feComposite in2="hardAlpha" operator="out"/>
<feColorMatrix type="matrix" values="0 0 0 0 0 0 0 0 0 0 0 0 0 0 0 0 0 0 0.25 0"/>
<feBlend mode="normal" in2="BackgroundImageFix" result="effect1_dropShadow_32_13007"/>
<feBlend mode="normal" in="SourceGraphic" in2="effect1_dropShadow_32_13007" result="shape"/>
</filter>
<linearGradient id="paint0_linear_32_13007" x1="9" y1="0" x2="9" y2="18" gradientUnits="userSpaceOnUse">
<stop stop-color="#CB02C5"/>
<stop offset="0.244792" stop-color="#C101DA"/>
<stop offset="0.510417" stop-color="#B600F0"/>
<stop offset="0.744792" stop-color="#8900D9"/>
<stop offset="1" stop-color="#5800BF"/>
</linearGradient>
<linearGradient id="paint1_linear_32_13007" x1="9" y1="0" x2="9" y2="18" gradientUnits="userSpaceOnUse">
<stop offset="0.125" stop-color="#CB02C5"/>
<stop offset="0.333333" stop-color="#C101DA"/>
<stop offset="0.635417" stop-color="#B600F0"/>
<stop offset="0.864583" stop-color="#8900D9"/>
</linearGradient>
<clipPath id="clip0_32_13007">
<rect width="18" height="18" fill="white"/>
</clipPath>
</defs>
</svg>
