<svg width="18" height="18" viewBox="0 0 18 18" fill="none" xmlns="http://www.w3.org/2000/svg">
<g clip-path="url(#clip0_32_13079)">
<path d="M13.5 0H4.5C2.01472 0 0 2.01472 0 4.5V13.5C0 15.9853 2.01472 18 4.5 18H13.5C15.9853 18 18 15.9853 18 13.5V4.5C18 2.01472 15.9853 0 13.5 0Z" fill="url(#paint0_linear_32_13079)"/>
<path d="M13.5 0H4.5C2.01472 0 0 2.01472 0 4.5V13.5C0 15.9853 2.01472 18 4.5 18H13.5C15.9853 18 18 15.9853 18 13.5V4.5C18 2.01472 15.9853 0 13.5 0Z" fill="url(#paint1_linear_32_13079)"/>
<path d="M13.5 0H4.5C2.01472 0 0 2.01472 0 4.5V13.5C0 15.9853 2.01472 18 4.5 18H13.5C15.9853 18 18 15.9853 18 13.5V4.5C18 2.01472 15.9853 0 13.5 0Z" fill="url(#paint2_linear_32_13079)"/>
<g filter="url(#filter0_i_32_13079)">
<path d="M13.5 1.125H4.5C2.63604 1.125 1.125 2.63604 1.125 4.5V13.5C1.125 15.364 2.63604 16.875 4.5 16.875H13.5C15.364 16.875 16.875 15.364 16.875 13.5V4.5C16.875 2.63604 15.364 1.125 13.5 1.125Z" fill="black" fill-opacity="0.7"/>
<g filter="url(#filter1_d_32_13079)">
<path d="M9.05563 3.52649C8.96628 3.54254 8.88099 3.57601 8.80462 3.62496C8.4836 3.83114 8.39098 4.25805 8.59781 4.57826C9.7351 6.34048 10.0035 7.6697 9.8871 8.83453C9.41643 11.0652 8.39322 11.5177 7.49907 11.5177C6.62603 11.5177 6.85984 10.0801 7.51603 9.65939C7.90772 9.41459 8.40952 9.25551 8.79463 9.25551C9.17618 9.25557 9.48554 8.94698 9.48563 8.56624C9.48554 8.18548 9.17618 7.8769 8.79463 7.87695C8.34487 7.87695 7.90359 7.97145 7.49178 8.1324C7.57585 7.7352 7.60698 7.3059 7.4982 6.84946C7.33306 6.15655 6.85758 5.49458 6.03204 4.85297C5.88751 4.74047 5.70409 4.6899 5.52218 4.7124C5.3403 4.7349 5.17486 4.8286 5.06222 4.97284C4.82792 5.27342 4.8822 5.70663 5.18344 5.94041C5.85598 6.46311 6.07808 6.84994 6.15399 7.16841C6.22988 7.48687 6.16888 7.82851 6.01636 8.29794C5.82133 8.93057 5.595 9.49528 5.49578 10.0368C5.44695 10.3034 5.44281 10.5936 5.43018 10.8253C4.94591 10.353 4.75629 9.72934 4.75629 8.81811C4.75619 8.43737 4.44683 8.12878 4.06529 8.12884C3.68402 8.12919 3.3751 8.43765 3.375 8.81811C3.375 10.0627 3.73877 11.2469 4.71351 12.0369C5.59599 12.8782 7.83998 12.5672 7.83998 13.9176C7.83998 14.2989 8.39759 14.4844 8.77909 14.4844C9.17035 14.4844 9.66277 14.2227 9.66277 13.9176C9.66277 12.3854 11.2766 11.4541 13.9333 11.4582C14.3148 11.4587 14.6244 11.1504 14.625 10.7697C14.6257 10.3889 14.317 10.0797 13.9354 10.0789C13.7538 10.0787 13.5766 10.085 13.402 10.0954C13.6991 9.39632 13.8308 8.62681 13.8035 7.79562C13.791 7.41509 13.4717 7.11672 13.0904 7.12917C12.7087 7.14149 12.4096 7.46042 12.4222 7.84128C12.4581 8.92956 12.4174 9.90136 11.6071 10.4136C11.3767 10.5592 11.1088 10.6855 10.8548 10.6855C11.052 10.1487 11.201 9.5822 11.262 8.97154C11.3009 8.58185 11.305 8.11884 11.2605 7.75922C11.1916 7.20193 11.1084 6.56999 11.3198 6.09394C11.5097 5.68398 11.9352 5.51227 12.5598 5.51227C12.9411 5.51192 13.25 5.20346 13.2501 4.823C13.2504 4.44226 12.9414 4.13335 12.5598 4.13301C11.6315 4.13301 10.9278 4.62192 10.5289 5.21259C10.3203 4.76674 10.0663 4.30739 9.75946 3.83189C9.6603 3.67829 9.5041 3.57024 9.32517 3.53149C9.23652 3.51218 9.14493 3.51048 9.05563 3.52649Z" fill="#808080"/>
<path d="M9.05563 3.52649C8.96628 3.54254 8.88099 3.57601 8.80462 3.62496C8.4836 3.83114 8.39098 4.25805 8.59781 4.57826C9.7351 6.34048 10.0035 7.6697 9.8871 8.83453C9.41643 11.0652 8.39322 11.5177 7.49907 11.5177C6.62603 11.5177 6.85984 10.0801 7.51603 9.65939C7.90772 9.41459 8.40952 9.25551 8.79463 9.25551C9.17618 9.25557 9.48554 8.94698 9.48563 8.56624C9.48554 8.18548 9.17618 7.8769 8.79463 7.87695C8.34487 7.87695 7.90359 7.97145 7.49178 8.1324C7.57585 7.7352 7.60698 7.3059 7.4982 6.84946C7.33306 6.15655 6.85758 5.49458 6.03204 4.85297C5.88751 4.74047 5.70409 4.6899 5.52218 4.7124C5.3403 4.7349 5.17486 4.8286 5.06222 4.97284C4.82792 5.27342 4.8822 5.70663 5.18344 5.94041C5.85598 6.46311 6.07808 6.84994 6.15399 7.16841C6.22988 7.48687 6.16888 7.82851 6.01636 8.29794C5.82133 8.93057 5.595 9.49528 5.49578 10.0368C5.44695 10.3034 5.44281 10.5936 5.43018 10.8253C4.94591 10.353 4.75629 9.72934 4.75629 8.81811C4.75619 8.43737 4.44683 8.12878 4.06529 8.12884C3.68402 8.12919 3.3751 8.43765 3.375 8.81811C3.375 10.0627 3.73877 11.2469 4.71351 12.0369C5.59599 12.8782 7.83998 12.5672 7.83998 13.9176C7.83998 14.2989 8.39759 14.4844 8.77909 14.4844C9.17035 14.4844 9.66277 14.2227 9.66277 13.9176C9.66277 12.3854 11.2766 11.4541 13.9333 11.4582C14.3148 11.4587 14.6244 11.1504 14.625 10.7697C14.6257 10.3889 14.317 10.0797 13.9354 10.0789C13.7538 10.0787 13.5766 10.085 13.402 10.0954C13.6991 9.39632 13.8308 8.62681 13.8035 7.79562C13.791 7.41509 13.4717 7.11672 13.0904 7.12917C12.7087 7.14149 12.4096 7.46042 12.4222 7.84128C12.4581 8.92956 12.4174 9.90136 11.6071 10.4136C11.3767 10.5592 11.1088 10.6855 10.8548 10.6855C11.052 10.1487 11.201 9.5822 11.262 8.97154C11.3009 8.58185 11.305 8.11884 11.2605 7.75922C11.1916 7.20193 11.1084 6.56999 11.3198 6.09394C11.5097 5.68398 11.9352 5.51227 12.5598 5.51227C12.9411 5.51192 13.25 5.20346 13.2501 4.823C13.2504 4.44226 12.9414 4.13335 12.5598 4.13301C11.6315 4.13301 10.9278 4.62192 10.5289 5.21259C10.3203 4.76674 10.0663 4.30739 9.75946 3.83189C9.6603 3.67829 9.5041 3.57024 9.32517 3.53149C9.23652 3.51218 9.14493 3.51048 9.05563 3.52649Z" fill="url(#paint3_linear_32_13079)"/>
<path d="M9.05563 3.52649C8.96628 3.54254 8.88099 3.57601 8.80462 3.62496C8.4836 3.83114 8.39098 4.25805 8.59781 4.57826C9.7351 6.34048 10.0035 7.6697 9.8871 8.83453C9.41643 11.0652 8.39322 11.5177 7.49907 11.5177C6.62603 11.5177 6.85984 10.0801 7.51603 9.65939C7.90772 9.41459 8.40952 9.25551 8.79463 9.25551C9.17618 9.25557 9.48554 8.94698 9.48563 8.56624C9.48554 8.18548 9.17618 7.8769 8.79463 7.87695C8.34487 7.87695 7.90359 7.97145 7.49178 8.1324C7.57585 7.7352 7.60698 7.3059 7.4982 6.84946C7.33306 6.15655 6.85758 5.49458 6.03204 4.85297C5.88751 4.74047 5.70409 4.6899 5.52218 4.7124C5.3403 4.7349 5.17486 4.8286 5.06222 4.97284C4.82792 5.27342 4.8822 5.70663 5.18344 5.94041C5.85598 6.46311 6.07808 6.84994 6.15399 7.16841C6.22988 7.48687 6.16888 7.82851 6.01636 8.29794C5.82133 8.93057 5.595 9.49528 5.49578 10.0368C5.44695 10.3034 5.44281 10.5936 5.43018 10.8253C4.94591 10.353 4.75629 9.72934 4.75629 8.81811C4.75619 8.43737 4.44683 8.12878 4.06529 8.12884C3.68402 8.12919 3.3751 8.43765 3.375 8.81811C3.375 10.0627 3.73877 11.2469 4.71351 12.0369C5.59599 12.8782 7.83998 12.5672 7.83998 13.9176C7.83998 14.2989 8.39759 14.4844 8.77909 14.4844C9.17035 14.4844 9.66277 14.2227 9.66277 13.9176C9.66277 12.3854 11.2766 11.4541 13.9333 11.4582C14.3148 11.4587 14.6244 11.1504 14.625 10.7697C14.6257 10.3889 14.317 10.0797 13.9354 10.0789C13.7538 10.0787 13.5766 10.085 13.402 10.0954C13.6991 9.39632 13.8308 8.62681 13.8035 7.79562C13.791 7.41509 13.4717 7.11672 13.0904 7.12917C12.7087 7.14149 12.4096 7.46042 12.4222 7.84128C12.4581 8.92956 12.4174 9.90136 11.6071 10.4136C11.3767 10.5592 11.1088 10.6855 10.8548 10.6855C11.052 10.1487 11.201 9.5822 11.262 8.97154C11.3009 8.58185 11.305 8.11884 11.2605 7.75922C11.1916 7.20193 11.1084 6.56999 11.3198 6.09394C11.5097 5.68398 11.9352 5.51227 12.5598 5.51227C12.9411 5.51192 13.25 5.20346 13.2501 4.823C13.2504 4.44226 12.9414 4.13335 12.5598 4.13301C11.6315 4.13301 10.9278 4.62192 10.5289 5.21259C10.3203 4.76674 10.0663 4.30739 9.75946 3.83189C9.6603 3.67829 9.5041 3.57024 9.32517 3.53149C9.23652 3.51218 9.14493 3.51048 9.05563 3.52649Z" fill="url(#paint4_linear_32_13079)"/>
<path d="M9.05563 3.52649C8.96628 3.54254 8.88099 3.57601 8.80462 3.62496C8.4836 3.83114 8.39098 4.25805 8.59781 4.57826C9.7351 6.34048 10.0035 7.6697 9.8871 8.83453C9.41643 11.0652 8.39322 11.5177 7.49907 11.5177C6.62603 11.5177 6.85984 10.0801 7.51603 9.65939C7.90772 9.41459 8.40952 9.25551 8.79463 9.25551C9.17618 9.25557 9.48554 8.94698 9.48563 8.56624C9.48554 8.18548 9.17618 7.8769 8.79463 7.87695C8.34487 7.87695 7.90359 7.97145 7.49178 8.1324C7.57585 7.7352 7.60698 7.3059 7.4982 6.84946C7.33306 6.15655 6.85758 5.49458 6.03204 4.85297C5.88751 4.74047 5.70409 4.6899 5.52218 4.7124C5.3403 4.7349 5.17486 4.8286 5.06222 4.97284C4.82792 5.27342 4.8822 5.70663 5.18344 5.94041C5.85598 6.46311 6.07808 6.84994 6.15399 7.16841C6.22988 7.48687 6.16888 7.82851 6.01636 8.29794C5.82133 8.93057 5.595 9.49528 5.49578 10.0368C5.44695 10.3034 5.44281 10.5936 5.43018 10.8253C4.94591 10.353 4.75629 9.72934 4.75629 8.81811C4.75619 8.43737 4.44683 8.12878 4.06529 8.12884C3.68402 8.12919 3.3751 8.43765 3.375 8.81811C3.375 10.0627 3.73877 11.2469 4.71351 12.0369C5.59599 12.8782 7.83998 12.5672 7.83998 13.9176C7.83998 14.2989 8.39759 14.4844 8.77909 14.4844C9.17035 14.4844 9.66277 14.2227 9.66277 13.9176C9.66277 12.3854 11.2766 11.4541 13.9333 11.4582C14.3148 11.4587 14.6244 11.1504 14.625 10.7697C14.6257 10.3889 14.317 10.0797 13.9354 10.0789C13.7538 10.0787 13.5766 10.085 13.402 10.0954C13.6991 9.39632 13.8308 8.62681 13.8035 7.79562C13.791 7.41509 13.4717 7.11672 13.0904 7.12917C12.7087 7.14149 12.4096 7.46042 12.4222 7.84128C12.4581 8.92956 12.4174 9.90136 11.6071 10.4136C11.3767 10.5592 11.1088 10.6855 10.8548 10.6855C11.052 10.1487 11.201 9.5822 11.262 8.97154C11.3009 8.58185 11.305 8.11884 11.2605 7.75922C11.1916 7.20193 11.1084 6.56999 11.3198 6.09394C11.5097 5.68398 11.9352 5.51227 12.5598 5.51227C12.9411 5.51192 13.25 5.20346 13.2501 4.823C13.2504 4.44226 12.9414 4.13335 12.5598 4.13301C11.6315 4.13301 10.9278 4.62192 10.5289 5.21259C10.3203 4.76674 10.0663 4.30739 9.75946 3.83189C9.6603 3.67829 9.5041 3.57024 9.32517 3.53149C9.23652 3.51218 9.14493 3.51048 9.05563 3.52649Z" fill="url(#paint5_linear_32_13079)"/>
</g>
</g>
</g>
<defs>
<filter id="filter0_i_32_13079" x="1.125" y="1.125" width="15.75" height="19.75" filterUnits="userSpaceOnUse" color-interpolation-filters="sRGB">
<feFlood flood-opacity="0" result="BackgroundImageFix"/>
<feBlend mode="normal" in="SourceGraphic" in2="BackgroundImageFix" result="shape"/>
<feColorMatrix in="SourceAlpha" type="matrix" values="0 0 0 0 0 0 0 0 0 0 0 0 0 0 0 0 0 0 127 0" result="hardAlpha"/>
<feOffset dy="4"/>
<feGaussianBlur stdDeviation="2"/>
<feComposite in2="hardAlpha" operator="arithmetic" k2="-1" k3="1"/>
<feColorMatrix type="matrix" values="0 0 0 0 0 0 0 0 0 0 0 0 0 0 0 0 0 0 0.25 0"/>
<feBlend mode="normal" in2="shape" result="effect1_innerShadow_32_13079"/>
</filter>
<filter id="filter1_d_32_13079" x="-0.625" y="1.51562" width="19.25" height="18.9688" filterUnits="userSpaceOnUse" color-interpolation-filters="sRGB">
<feFlood flood-opacity="0" result="BackgroundImageFix"/>
<feColorMatrix in="SourceAlpha" type="matrix" values="0 0 0 0 0 0 0 0 0 0 0 0 0 0 0 0 0 0 127 0" result="hardAlpha"/>
<feOffset dy="2"/>
<feGaussianBlur stdDeviation="2"/>
<feComposite in2="hardAlpha" operator="out"/>
<feColorMatrix type="matrix" values="0 0 0 0 0 0 0 0 0 0 0 0 0 0 0 0 0 0 0.25 0"/>
<feBlend mode="normal" in2="BackgroundImageFix" result="effect1_dropShadow_32_13079"/>
<feBlend mode="normal" in="SourceGraphic" in2="effect1_dropShadow_32_13079" result="shape"/>
</filter>
<linearGradient id="paint0_linear_32_13079" x1="1.85327e-05" y1="9" x2="18" y2="9" gradientUnits="userSpaceOnUse">
<stop stop-color="#0066FF"/>
<stop offset="1" stop-color="#00CCFF"/>
</linearGradient>
<linearGradient id="paint1_linear_32_13079" x1="-2.13877e-06" y1="8.99997" x2="18" y2="8.99997" gradientUnits="userSpaceOnUse">
<stop stop-color="#88AA00"/>
<stop offset="1" stop-color="#FFCC00"/>
</linearGradient>
<linearGradient id="paint2_linear_32_13079" x1="-4.18653e-05" y1="8.99997" x2="18" y2="8.99997" gradientUnits="userSpaceOnUse">
<stop stop-color="#37C871"/>
<stop offset="1" stop-color="#217844"/>
</linearGradient>
<linearGradient id="paint3_linear_32_13079" x1="3.37501" y1="9" x2="14.625" y2="9" gradientUnits="userSpaceOnUse">
<stop stop-color="#0066FF"/>
<stop offset="1" stop-color="#00CCFF"/>
</linearGradient>
<linearGradient id="paint4_linear_32_13079" x1="3.375" y1="8.99998" x2="14.625" y2="8.99998" gradientUnits="userSpaceOnUse">
<stop stop-color="#88AA00"/>
<stop offset="1" stop-color="#FFCC00"/>
</linearGradient>
<linearGradient id="paint5_linear_32_13079" x1="3.37497" y1="8.99998" x2="14.625" y2="8.99998" gradientUnits="userSpaceOnUse">
<stop stop-color="#37C871"/>
<stop offset="1" stop-color="#217844"/>
</linearGradient>
<clipPath id="clip0_32_13079">
<rect width="18" height="18" fill="white"/>
</clipPath>
</defs>
</svg>
