<svg width="18" height="18" viewBox="0 0 18 18" fill="none" xmlns="http://www.w3.org/2000/svg">
<g clip-path="url(#clip0_32_13173)">
<path d="M13.5 0H4.5C2.01472 0 0 2.01472 0 4.5V13.5C0 15.9853 2.01472 18 4.5 18H13.5C15.9853 18 18 15.9853 18 13.5V4.5C18 2.01472 15.9853 0 13.5 0Z" fill="url(#paint0_linear_32_13173)"/>
<path d="M13.5 0H4.5C2.01472 0 0 2.01472 0 4.5V13.5C0 15.9853 2.01472 18 4.5 18H13.5C15.9853 18 18 15.9853 18 13.5V4.5C18 2.01472 15.9853 0 13.5 0Z" fill="url(#paint1_linear_32_13173)"/>
<g filter="url(#filter0_i_32_13173)">
<path d="M13.5 1.125H4.5C2.63604 1.125 1.125 2.63604 1.125 4.5V13.5C1.125 15.364 2.63604 16.875 4.5 16.875H13.5C15.364 16.875 16.875 15.364 16.875 13.5V4.5C16.875 2.63604 15.364 1.125 13.5 1.125Z" fill="black" fill-opacity="0.7"/>
<mask id="mask0_32_13173" style="mask-type:luminance" maskUnits="userSpaceOnUse" x="2" y="2" width="14" height="14">
<path d="M15.75 2.25H2.25V15.75H15.75V2.25Z" fill="white"/>
</mask>
<g mask="url(#mask0_32_13173)">
<g filter="url(#filter1_d_32_13173)">
<path d="M4.49183 13.9834L2.82812 4.12201L5.90483 2.84531L7.8694 4.01273L9.6694 3.04201L13.4198 4.48201L11.3164 15.1715L4.49183 13.9834Z" fill="url(#paint2_linear_32_13173)"/>
</g>
<g filter="url(#filter2_d_32_13173)">
<path d="M15.1713 7.00844L13.5783 3.07414L10.688 2.82858L6.22656 7.11514L7.42742 12.6399L9.66971 14.2123L15.1713 10.9479L13.8213 8.41629L15.1713 7.00844Z" fill="url(#paint3_linear_32_13173)"/>
</g>
<g filter="url(#filter3_d_32_13173)">
<path d="M12.6982 6.42214L13.8207 8.41629L15.1707 7.00843L14.1794 4.55786L12.6982 6.42214Z" fill="url(#paint4_linear_32_13173)"/>
</g>
<g filter="url(#filter4_d_32_13173)">
<path d="M5.14258 5.14285H12.8569V12.8571H5.14258V5.14285Z" fill="black"/>
</g>
<path d="M6.10449 11.3991H8.99736V11.8813H6.10449V11.3991Z" fill="white"/>
<path d="M8.84316 6.1033L8.41246 7.79145L7.92003 6.1033H7.43016L6.93646 7.79145L6.50703 6.1033H5.83203L6.65874 8.99745H7.20131L7.67446 7.32217L8.14246 8.99745H8.69146L9.51688 6.1033H8.84316Z" fill="white"/>
<path d="M9.6377 8.58472L10.0144 8.13342C10.251 8.35195 10.559 8.47714 10.881 8.48572C11.1381 8.48572 11.3001 8.38285 11.3001 8.21185V8.20414C11.3001 8.04214 11.1998 7.95985 10.7151 7.83514C10.1301 7.686 9.7534 7.524 9.7534 6.948V6.939C9.7534 6.41314 10.1764 6.06472 10.7691 6.06472C11.1604 6.05778 11.5417 6.18838 11.8465 6.43372L11.5148 6.91457C11.2981 6.745 11.0348 6.64544 10.7601 6.62914C10.5158 6.62914 10.3873 6.741 10.3873 6.88628V6.89528C10.3873 7.08557 10.5158 7.15242 11.0134 7.281C11.6023 7.43528 11.934 7.64614 11.934 8.15272V8.16042C11.934 8.73642 11.4943 9.06042 10.8681 9.06042C10.4149 9.06221 9.97684 8.89697 9.6377 8.59628" fill="white"/>
</g>
</g>
</g>
<defs>
<filter id="filter0_i_32_13173" x="1.125" y="1.125" width="15.75" height="19.75" filterUnits="userSpaceOnUse" color-interpolation-filters="sRGB">
<feFlood flood-opacity="0" result="BackgroundImageFix"/>
<feBlend mode="normal" in="SourceGraphic" in2="BackgroundImageFix" result="shape"/>
<feColorMatrix in="SourceAlpha" type="matrix" values="0 0 0 0 0 0 0 0 0 0 0 0 0 0 0 0 0 0 127 0" result="hardAlpha"/>
<feOffset dy="4"/>
<feGaussianBlur stdDeviation="2"/>
<feComposite in2="hardAlpha" operator="arithmetic" k2="-1" k3="1"/>
<feColorMatrix type="matrix" values="0 0 0 0 0 0 0 0 0 0 0 0 0 0 0 0 0 0 0.25 0"/>
<feBlend mode="normal" in2="shape" result="effect1_innerShadow_32_13173"/>
</filter>
<filter id="filter1_d_32_13173" x="-1.17188" y="0.845306" width="18.5918" height="20.3262" filterUnits="userSpaceOnUse" color-interpolation-filters="sRGB">
<feFlood flood-opacity="0" result="BackgroundImageFix"/>
<feColorMatrix in="SourceAlpha" type="matrix" values="0 0 0 0 0 0 0 0 0 0 0 0 0 0 0 0 0 0 127 0" result="hardAlpha"/>
<feOffset dy="2"/>
<feGaussianBlur stdDeviation="2"/>
<feComposite in2="hardAlpha" operator="out"/>
<feColorMatrix type="matrix" values="0 0 0 0 0 0 0 0 0 0 0 0 0 0 0 0 0 0 0.25 0"/>
<feBlend mode="normal" in2="BackgroundImageFix" result="effect1_dropShadow_32_13173"/>
<feBlend mode="normal" in="SourceGraphic" in2="effect1_dropShadow_32_13173" result="shape"/>
</filter>
<filter id="filter2_d_32_13173" x="2.22656" y="0.828583" width="16.9443" height="19.3837" filterUnits="userSpaceOnUse" color-interpolation-filters="sRGB">
<feFlood flood-opacity="0" result="BackgroundImageFix"/>
<feColorMatrix in="SourceAlpha" type="matrix" values="0 0 0 0 0 0 0 0 0 0 0 0 0 0 0 0 0 0 127 0" result="hardAlpha"/>
<feOffset dy="2"/>
<feGaussianBlur stdDeviation="2"/>
<feComposite in2="hardAlpha" operator="out"/>
<feColorMatrix type="matrix" values="0 0 0 0 0 0 0 0 0 0 0 0 0 0 0 0 0 0 0.25 0"/>
<feBlend mode="normal" in2="BackgroundImageFix" result="effect1_dropShadow_32_13173"/>
<feBlend mode="normal" in="SourceGraphic" in2="effect1_dropShadow_32_13173" result="shape"/>
</filter>
<filter id="filter3_d_32_13173" x="8.69824" y="2.55786" width="10.4727" height="11.8584" filterUnits="userSpaceOnUse" color-interpolation-filters="sRGB">
<feFlood flood-opacity="0" result="BackgroundImageFix"/>
<feColorMatrix in="SourceAlpha" type="matrix" values="0 0 0 0 0 0 0 0 0 0 0 0 0 0 0 0 0 0 127 0" result="hardAlpha"/>
<feOffset dy="2"/>
<feGaussianBlur stdDeviation="2"/>
<feComposite in2="hardAlpha" operator="out"/>
<feColorMatrix type="matrix" values="0 0 0 0 0 0 0 0 0 0 0 0 0 0 0 0 0 0 0.25 0"/>
<feBlend mode="normal" in2="BackgroundImageFix" result="effect1_dropShadow_32_13173"/>
<feBlend mode="normal" in="SourceGraphic" in2="effect1_dropShadow_32_13173" result="shape"/>
</filter>
<filter id="filter4_d_32_13173" x="1.14258" y="3.14285" width="15.7139" height="15.7143" filterUnits="userSpaceOnUse" color-interpolation-filters="sRGB">
<feFlood flood-opacity="0" result="BackgroundImageFix"/>
<feColorMatrix in="SourceAlpha" type="matrix" values="0 0 0 0 0 0 0 0 0 0 0 0 0 0 0 0 0 0 127 0" result="hardAlpha"/>
<feOffset dy="2"/>
<feGaussianBlur stdDeviation="2"/>
<feComposite in2="hardAlpha" operator="out"/>
<feColorMatrix type="matrix" values="0 0 0 0 0 0 0 0 0 0 0 0 0 0 0 0 0 0 0.25 0"/>
<feBlend mode="normal" in2="BackgroundImageFix" result="effect1_dropShadow_32_13173"/>
<feBlend mode="normal" in="SourceGraphic" in2="effect1_dropShadow_32_13173" result="shape"/>
</filter>
<linearGradient id="paint0_linear_32_13173" x1="9" y1="0" x2="9" y2="18" gradientUnits="userSpaceOnUse">
<stop stop-color="#3BEA62"/>
<stop offset="0.5" stop-color="#009AE5"/>
<stop offset="1" stop-color="#6B57FF"/>
</linearGradient>
<linearGradient id="paint1_linear_32_13173" x1="7.51202" y1="0.3511" x2="11.5961" y2="17.4645" gradientUnits="userSpaceOnUse">
<stop offset="0.28" stop-color="#07C3F2"/>
<stop offset="0.94" stop-color="#087CFA"/>
</linearGradient>
<linearGradient id="paint2_linear_32_13173" x1="7.2484" y1="3.08573" x2="10.4421" y2="14.5852" gradientUnits="userSpaceOnUse">
<stop offset="0.28" stop-color="#07C3F2"/>
<stop offset="0.94" stop-color="#087CFA"/>
</linearGradient>
<linearGradient id="paint3_linear_32_13173" x1="8.24514" y1="4.54501" x2="13.649" y2="12.4689" gradientUnits="userSpaceOnUse">
<stop offset="0.14" stop-color="#FCF84A"/>
<stop offset="0.37" stop-color="#07C3F2"/>
</linearGradient>
<linearGradient id="paint4_linear_32_13173" x1="13.5982" y1="5.52471" x2="14.3079" y2="8.03829" gradientUnits="userSpaceOnUse">
<stop offset="0.28" stop-color="#07C3F2"/>
<stop offset="0.94" stop-color="#087CFA"/>
</linearGradient>
<clipPath id="clip0_32_13173">
<rect width="18" height="18" fill="white"/>
</clipPath>
</defs>
</svg>
