<svg width="18" height="18" viewBox="0 0 18 18" fill="none" xmlns="http://www.w3.org/2000/svg">
<g clip-path="url(#clip0_32_13228)">
<path d="M13.5 0H4.5C2.01472 0 0 2.01472 0 4.5V13.5C0 15.9853 2.01472 18 4.5 18H13.5C15.9853 18 18 15.9853 18 13.5V4.5C18 2.01472 15.9853 0 13.5 0Z" fill="url(#paint0_linear_32_13228)"/>
<g filter="url(#filter0_i_32_13228)">
<path d="M13.5 1.125H4.5C2.63604 1.125 1.125 2.63604 1.125 4.5V13.5C1.125 15.364 2.63604 16.875 4.5 16.875H13.5C15.364 16.875 16.875 15.364 16.875 13.5V4.5C16.875 2.63604 15.364 1.125 13.5 1.125Z" fill="black" fill-opacity="0.7"/>
<g filter="url(#filter1_d_32_13228)">
<path d="M14.3897 6.29234C14.2601 5.808 13.8795 5.42738 13.3952 5.29772C12.5182 5.0625 8.99999 5.0625 8.99999 5.0625C8.99999 5.0625 5.48183 5.0625 4.60484 5.29772C4.1205 5.42738 3.73988 5.808 3.61022 6.29234C3.375 7.16933 3.375 9.00018 3.375 9.00018C3.375 9.00018 3.375 10.831 3.61022 11.708C3.73988 12.1924 4.1205 12.573 4.60484 12.7026C5.48183 12.9379 8.99999 12.9379 8.99999 12.9379C8.99999 12.9379 12.5182 12.9379 13.3952 12.7026C13.8795 12.573 14.2601 12.1924 14.3897 11.708C14.625 10.831 14.625 9.00018 14.625 9.00018C14.625 9.00018 14.624 7.16933 14.3897 6.29234Z" fill="#FF0000"/>
</g>
<path d="M7.87402 10.6876L10.7967 9.00034L7.87402 7.31302V10.6876Z" fill="white"/>
</g>
</g>
<defs>
<filter id="filter0_i_32_13228" x="1.125" y="1.125" width="15.75" height="19.75" filterUnits="userSpaceOnUse" color-interpolation-filters="sRGB">
<feFlood flood-opacity="0" result="BackgroundImageFix"/>
<feBlend mode="normal" in="SourceGraphic" in2="BackgroundImageFix" result="shape"/>
<feColorMatrix in="SourceAlpha" type="matrix" values="0 0 0 0 0 0 0 0 0 0 0 0 0 0 0 0 0 0 127 0" result="hardAlpha"/>
<feOffset dy="4"/>
<feGaussianBlur stdDeviation="2"/>
<feComposite in2="hardAlpha" operator="arithmetic" k2="-1" k3="1"/>
<feColorMatrix type="matrix" values="0 0 0 0 0 0 0 0 0 0 0 0 0 0 0 0 0 0 0.25 0"/>
<feBlend mode="normal" in2="shape" result="effect1_innerShadow_32_13228"/>
</filter>
<filter id="filter1_d_32_13228" x="-0.625" y="3.0625" width="19.25" height="15.8754" filterUnits="userSpaceOnUse" color-interpolation-filters="sRGB">
<feFlood flood-opacity="0" result="BackgroundImageFix"/>
<feColorMatrix in="SourceAlpha" type="matrix" values="0 0 0 0 0 0 0 0 0 0 0 0 0 0 0 0 0 0 127 0" result="hardAlpha"/>
<feOffset dy="2"/>
<feGaussianBlur stdDeviation="2"/>
<feComposite in2="hardAlpha" operator="out"/>
<feColorMatrix type="matrix" values="0 0 0 0 0 0 0 0 0 0 0 0 0 0 0 0 0 0 0.25 0"/>
<feBlend mode="normal" in2="BackgroundImageFix" result="effect1_dropShadow_32_13228"/>
<feBlend mode="normal" in="SourceGraphic" in2="effect1_dropShadow_32_13228" result="shape"/>
</filter>
<linearGradient id="paint0_linear_32_13228" x1="9" y1="0" x2="9" y2="18" gradientUnits="userSpaceOnUse">
<stop stop-color="white"/>
<stop offset="1" stop-color="#DFDFDF"/>
</linearGradient>
<clipPath id="clip0_32_13228">
<rect width="18" height="18" fill="white"/>
</clipPath>
</defs>
</svg>
