<svg xmlns="http://www.w3.org/2000/svg" width="128" height="128" fill="none" viewBox="0 0 128 128"><rect width="128" height="128" fill="url(#paint0_linear_1_2)" rx="32"/><g filter="url(#filter0_i_1_2)"><rect width="112" height="112" x="8" y="8" fill="#000" fill-opacity=".7" rx="24"/><g filter="url(#filter1_d_1_2)"><path fill="#C10080" d="M27 55L48 46V71.5C48 80.6127 55.3873 88 64.5 88C73.6127 88 81 80.6127 81 71.5V31L102 22V76C102 92.5685 88.5685 106 72 106H57C40.4315 106 27 92.5685 27 76V55Z"/><path fill="#8B00E7" d="M27 55L48 46V71.5C48 80.6127 55.3873 88 64.5 88C73.6127 88 81 80.6127 81 71.5V31L102 22V76C102 92.5685 88.5685 106 72 106H57C40.4315 106 27 92.5685 27 76V55Z"/></g><g filter="url(#filter2_d_1_2)"><path fill="#D3B9FF" d="M57 106H72C88.5685 106 102 92.5685 102 76V61C99 47.5 93.9352 41.2927 81 34V71.5C81 88.8969 60.897 102.798 43.5 102.798C47.5578 104.846 52.1442 106 57 106Z"/><path fill="#D404FF" d="M57 106H72C88.5685 106 102 92.5685 102 76V61C99 47.5 93.9352 41.2927 81 34V71.5C81 88.8969 60.897 102.798 43.5 102.798C47.5578 104.846 52.1442 106 57 106Z"/></g></g><defs><filter id="filter0_i_1_2" width="112" height="116" x="8" y="8" color-interpolation-filters="sRGB" filterUnits="userSpaceOnUse"><feFlood flood-opacity="0" result="BackgroundImageFix"/><feBlend in="SourceGraphic" in2="BackgroundImageFix" mode="normal" result="shape"/><feColorMatrix in="SourceAlpha" result="hardAlpha" type="matrix" values="0 0 0 0 0 0 0 0 0 0 0 0 0 0 0 0 0 0 127 0"/><feOffset dy="4"/><feGaussianBlur stdDeviation="2"/><feComposite in2="hardAlpha" k2="-1" k3="1" operator="arithmetic"/><feColorMatrix type="matrix" values="0 0 0 0 0 0 0 0 0 0 0 0 0 0 0 0 0 0 0.25 0"/><feBlend in2="shape" mode="normal" result="effect1_innerShadow_1_2"/></filter><filter id="filter1_d_1_2" width="83" height="92" x="23" y="20" color-interpolation-filters="sRGB" filterUnits="userSpaceOnUse"><feFlood flood-opacity="0" result="BackgroundImageFix"/><feColorMatrix in="SourceAlpha" result="hardAlpha" type="matrix" values="0 0 0 0 0 0 0 0 0 0 0 0 0 0 0 0 0 0 127 0"/><feOffset dy="2"/><feGaussianBlur stdDeviation="2"/><feComposite in2="hardAlpha" operator="out"/><feColorMatrix type="matrix" values="0 0 0 0 0 0 0 0 0 0 0 0 0 0 0 0 0 0 0.25 0"/><feBlend in2="BackgroundImageFix" mode="normal" result="effect1_dropShadow_1_2"/><feBlend in="SourceGraphic" in2="effect1_dropShadow_1_2" mode="normal" result="shape"/></filter><filter id="filter2_d_1_2" width="83" height="80" x="23" y="32" color-interpolation-filters="sRGB" filterUnits="userSpaceOnUse"><feFlood flood-opacity="0" result="BackgroundImageFix"/><feColorMatrix in="SourceAlpha" result="hardAlpha" type="matrix" values="0 0 0 0 0 0 0 0 0 0 0 0 0 0 0 0 0 0 127 0"/><feOffset dy="2"/><feGaussianBlur stdDeviation="2"/><feComposite in2="hardAlpha" operator="out"/><feColorMatrix type="matrix" values="0 0 0 0 0 0 0 0 0 0 0 0 0 0 0 0 0 0 0.25 0"/><feBlend in2="BackgroundImageFix" mode="normal" result="effect1_dropShadow_1_2"/><feBlend in="SourceGraphic" in2="effect1_dropShadow_1_2" mode="normal" result="shape"/></filter><linearGradient id="paint0_linear_1_2" x1="64" x2="64" y1="0" y2="128" gradientUnits="userSpaceOnUse"><stop stop-color="#CB02C5"/><stop offset=".245" stop-color="#C101DA"/><stop offset=".51" stop-color="#B600F0"/><stop offset=".745" stop-color="#8900D9"/><stop offset="1" stop-color="#5800BF"/></linearGradient></defs></svg>