<svg width="128" height="128" viewBox="0 0 128 128" fill="none" xmlns="http://www.w3.org/2000/svg">
<rect width="128" height="128" rx="32" fill="url(#paint0_linear_146_26)"/>
<rect width="128" height="128" rx="32" fill="url(#paint1_linear_146_26)"/>
<g filter="url(#filter0_i_146_26)">
<rect x="8" y="8" width="112" height="112" rx="24" fill="black" fill-opacity="0.7"/>
<g clip-path="url(#clip0_146_26)">
<path fill-rule="evenodd" clip-rule="evenodd" d="M98.75 79.875C98.75 81.9597 97.8059 84.024 95.9716 85.9501C94.1373 87.8761 91.4487 89.6262 88.0594 91.1003C84.6701 92.5744 80.6463 93.7438 76.2179 94.5416C71.7896 95.3393 67.0432 95.75 62.25 95.75C57.4568 95.75 52.7104 95.3393 48.2821 94.5416C43.8537 93.7438 39.8299 92.5744 36.4406 91.1003C33.0513 89.6262 30.3627 87.8761 28.5284 85.9501C26.6941 84.024 25.75 81.9597 25.75 79.875C25.75 77.7902 26.6941 75.7259 28.5284 73.7999C30.3627 71.8738 33.0513 70.1238 36.4406 68.6497C39.8299 67.1755 43.8537 66.0062 48.2821 65.2084C52.7104 64.4106 57.4568 64 62.25 64C67.0432 64 71.7896 64.4106 76.2179 65.2084C80.6463 66.0062 84.6701 67.1755 88.0594 68.6497C91.4487 70.1238 94.1373 71.8738 95.9716 73.7999C97.8059 75.7259 98.75 77.7902 98.75 79.875Z" fill="url(#paint2_radial_146_26)"/>
<path fill-rule="evenodd" clip-rule="evenodd" d="M36.7488 40.9358C36.7488 40.9358 42.4978 52.791 55.9473 52.4566C84.1323 51.7495 89.0747 37.0467 89.7818 34.9253C90.4889 32.804 91.5708 33.1253 91.821 35.0859C101.013 118.524 28.0271 82.7242 25.4351 68.5129C39.9307 64.2703 36.3952 56.1386 36.3952 56.1386L36.7488 40.9358Z" fill="url(#paint3_radial_146_26)" stroke="#2E3436" stroke-width="2" stroke-miterlimit="10"/>
<path fill-rule="evenodd" clip-rule="evenodd" d="M47.4761 76.1321C60.9539 78.8278 67.8175 76.3283 71.8344 73.2265C70.7738 71.8565 68.9618 70.3539 68.9618 70.3539C68.9618 70.3539 73.6684 71.6618 75.3258 73.8011C76.9783 75.9342 75.9394 77.2485 75.5069 79.9778C74.5441 77.5806 72.7469 76.6816 72.5036 75.7291C68.8911 80.723 59.8907 80.5155 47.4761 76.1321Z" fill="url(#paint4_linear_146_26)"/>
<path opacity="0.185393" fill-rule="evenodd" clip-rule="evenodd" d="M89.938 39.6875C88.814 41.5413 87.125 43.7538 84.563 45.875C79.2992 50.2331 70.4619 54.1997 56.0005 54.5625C47.5517 54.7726 42.095 50.6942 38.7505 47.0625L38.5005 56C38.7727 56.8376 39.3314 58.781 38.3755 61.4375C37.3469 64.2961 34.0665 67.2202 28.438 69.4375C28.9386 70.4816 29.429 71.5247 30.938 73C32.9939 75.0099 35.8521 77.1761 39.2505 79.125C46.0474 83.0228 54.8537 86.1114 63.063 86.25C71.2723 86.3886 78.7772 83.7809 83.938 76.25C88.6955 69.3076 91.3029 57.5541 89.938 39.6875Z" stroke="url(#paint5_linear_146_26)" stroke-width="2" stroke-miterlimit="10"/>
<path fill-rule="evenodd" clip-rule="evenodd" d="M51.4217 58.7902C51.4219 59.8583 51.2118 60.9159 50.8033 61.9027C50.3947 62.8896 49.7958 63.7862 49.0407 64.5416C48.2855 65.2969 47.389 65.896 46.4023 66.3048C45.4156 66.7136 44.358 66.924 43.2899 66.924C42.2219 66.924 41.1643 66.7136 40.1776 66.3048C39.1909 65.896 38.2943 65.2969 37.5392 64.5416C36.7841 63.7862 36.1852 62.8896 35.7766 61.9027C35.3681 60.9159 35.1579 59.8583 35.1582 58.7902C35.1579 57.7222 35.3681 56.6645 35.7766 55.6777C36.1852 54.6909 36.7841 53.7942 37.5392 53.0389C38.2943 52.2836 39.1909 51.6844 40.1776 51.2757C41.1643 50.8669 42.2219 50.6565 43.2899 50.6565C44.358 50.6565 45.4156 50.8669 46.4023 51.2757C47.389 51.6844 48.2855 52.2836 49.0407 53.0389C49.7958 53.7942 50.3947 54.6909 50.8033 55.6777C51.2118 56.6645 51.4219 57.7222 51.4217 58.7902Z" fill="url(#paint6_radial_146_26)" stroke="#888A85" stroke-width="2" stroke-miterlimit="10"/>
<path fill-rule="evenodd" clip-rule="evenodd" d="M35.2226 61.854C37.1153 64.4776 38.1904 67.5276 38.2113 70.3331C38.2323 73.1387 37.1974 75.4699 35.3343 76.814C33.4712 78.1581 30.9325 78.4049 28.2768 77.5002C25.621 76.5955 23.0658 74.6134 21.1731 71.9898C19.2804 69.3663 18.2053 66.3163 18.1843 63.5107C18.1634 60.7052 19.1983 58.374 21.0614 57.0299C22.9245 55.6858 25.4632 55.4389 28.1189 56.3436C30.7746 57.2483 33.3299 59.2305 35.2226 61.854Z" fill="url(#paint7_radial_146_26)" stroke="black" stroke-width="2" stroke-miterlimit="10"/>
<path fill-rule="evenodd" clip-rule="evenodd" d="M49.1064 59.9949C49.1066 60.5092 49.0054 61.0184 48.8087 61.4936C48.612 61.9687 48.3237 62.4005 47.9601 62.7642C47.5965 63.1279 47.1648 63.4164 46.6897 63.6132C46.2146 63.81 45.7054 63.9114 45.1912 63.9114C44.6769 63.9114 44.1677 63.81 43.6926 63.6132C43.2175 63.4164 42.7858 63.1279 42.4222 62.7642C42.0586 62.4005 41.7703 61.9687 41.5736 61.4936C41.3769 61.0184 41.2757 60.5092 41.2759 59.9949C41.2757 59.4807 41.3769 58.9714 41.5736 58.4963C41.7703 58.0211 42.0586 57.5893 42.4222 57.2257C42.7858 56.862 43.2175 56.5735 43.6926 56.3766C44.1677 56.1798 44.6769 56.0785 45.1912 56.0785C45.7054 56.0785 46.2146 56.1798 46.6897 56.3766C47.1648 56.5735 47.5965 56.862 47.9601 57.2257C48.3237 57.5893 48.612 58.0211 48.8087 58.4963C49.0054 58.9714 49.1066 59.4807 49.1064 59.9949Z" fill="#2E3436" stroke="black" stroke-width="2" stroke-miterlimit="10"/>
<path opacity="0.280899" fill-rule="evenodd" clip-rule="evenodd" d="M21.7706 58.8167C20.4928 59.7738 19.8193 61.3931 19.88 63.5905C19.9407 65.7879 20.8079 68.4783 22.5878 70.8548C24.3677 73.2312 26.7057 74.8201 28.7973 75.4963C30.889 76.1725 32.6323 75.9817 33.9101 75.0246C35.1879 74.0675 35.8638 72.3709 35.8133 70.1633C35.7627 67.9558 34.919 65.3204 33.1429 62.9491C31.3669 60.5779 29.0752 59.027 26.9709 58.3576C24.8667 57.6882 23.0484 57.8597 21.7706 58.8167Z" stroke="url(#paint8_linear_146_26)" stroke-width="2" stroke-miterlimit="10"/>
<path fill-rule="evenodd" clip-rule="evenodd" d="M27.6677 62.5025C27.6679 63.0598 27.5765 63.6116 27.3989 64.1264C27.2212 64.6413 26.9608 65.1091 26.6325 65.5032C26.3042 65.8973 25.9144 66.2099 25.4854 66.4231C25.0564 66.6364 24.5966 66.7462 24.1322 66.7462C23.6678 66.7462 23.208 66.6364 22.779 66.4231C22.35 66.2099 21.9602 65.8973 21.6319 65.5032C21.3036 65.1091 21.0432 64.6413 20.8656 64.1264C20.6879 63.6116 20.5966 63.0598 20.5967 62.5025C20.5966 61.9453 20.6879 61.3935 20.8656 60.8786C21.0432 60.3638 21.3036 59.8959 21.6319 59.5019C21.9602 59.1078 22.35 58.7952 22.779 58.5819C23.208 58.3687 23.6678 58.2589 24.1322 58.2589C24.5966 58.2589 25.0564 58.3687 25.4854 58.5819C25.9144 58.7952 26.3042 59.1078 26.6325 59.5019C26.9608 59.8959 27.2212 60.3638 27.3989 60.8786C27.5765 61.3935 27.6679 61.9453 27.6677 62.5025Z" fill="white"/>
<path fill-rule="evenodd" clip-rule="evenodd" d="M46.3958 58.1878C46.3958 58.9067 46.1102 59.5962 45.6018 60.1045C45.0935 60.6128 44.4041 60.8984 43.6852 60.8984C42.9663 60.8984 42.2768 60.6128 41.7685 60.1045C41.2602 59.5962 40.9746 58.9067 40.9746 58.1878C40.9746 57.4689 41.2602 56.7795 41.7685 56.2712C42.2768 55.7628 42.9663 55.4773 43.6852 55.4773C44.4041 55.4773 45.0935 55.7628 45.6018 56.2712C46.1102 56.7795 46.3958 57.4689 46.3958 58.1878Z" fill="white"/>
<path fill-rule="evenodd" clip-rule="evenodd" d="M69.6295 59.6741C69.6298 60.9279 69.3831 62.1695 68.9035 63.3279C68.4239 64.4864 67.7209 65.539 66.8344 66.4256C65.9479 67.3123 64.8955 68.0157 63.7372 68.4956C62.5788 68.9754 61.3373 69.2224 60.0835 69.2224C58.8298 69.2224 57.5883 68.9754 56.4299 68.4956C55.2716 68.0157 54.2192 67.3123 53.3327 66.4256C52.4462 65.539 51.7432 64.4864 51.2636 63.3279C50.784 62.1695 50.5373 60.9279 50.5376 59.6741C50.5373 58.4203 50.784 57.1787 51.2636 56.0203C51.7432 54.8618 52.4462 53.8092 53.3327 52.9226C54.2192 52.0359 55.2716 51.3325 56.4299 50.8526C57.5883 50.3728 58.8298 50.1258 60.0835 50.1258C61.3373 50.1258 62.5788 50.3728 63.7372 50.8526C64.8955 51.3325 65.9479 52.0359 66.8344 52.9226C67.7209 53.8092 68.4239 54.8618 68.9035 56.0203C69.3831 57.1787 69.6298 58.4203 69.6295 59.6741Z" fill="url(#paint9_radial_146_26)" stroke="#888A85" stroke-width="2" stroke-miterlimit="10"/>
<path fill-rule="evenodd" clip-rule="evenodd" d="M66.9121 61.0883C66.9123 61.692 66.7935 62.2898 66.5626 62.8476C66.3317 63.4054 65.9932 63.9122 65.5664 64.3392C65.1396 64.7661 64.6328 65.1048 64.0751 65.3359C63.5174 65.5669 62.9196 65.6859 62.3159 65.6859C61.7122 65.6859 61.1144 65.5669 60.5567 65.3359C59.999 65.1048 59.4923 64.7661 59.0654 64.3392C58.6386 63.9122 58.3001 63.4054 58.0692 62.8476C57.8383 62.2898 57.7195 61.692 57.7197 61.0883C57.7195 60.4846 57.8383 59.8868 58.0692 59.329C58.3001 58.7712 58.6386 58.2644 59.0654 57.8374C59.4923 57.4105 59.999 57.0718 60.5567 56.8407C61.1144 56.6097 61.7122 56.4908 62.3159 56.4908C62.9196 56.4908 63.5174 56.6097 64.0751 56.8407C64.6328 57.0718 65.1396 57.4105 65.5664 57.8374C65.9932 58.2644 66.3317 58.7712 66.5626 59.329C66.7935 59.8868 66.9123 60.4846 66.9121 61.0883Z" fill="#2E3436" stroke="black" stroke-width="2" stroke-miterlimit="10"/>
<path fill-rule="evenodd" clip-rule="evenodd" d="M63.7302 58.967C63.7302 59.8109 63.3949 60.6202 62.7982 61.217C62.2015 61.8137 61.3921 62.149 60.5482 62.149C59.7043 62.149 58.8949 61.8137 58.2982 61.217C57.7015 60.6202 57.3662 59.8109 57.3662 58.967C57.3662 58.1231 57.7015 57.3137 58.2982 56.717C58.8949 56.1202 59.7043 55.785 60.5482 55.785C61.3921 55.785 62.2015 56.1202 62.7982 56.717C63.3949 57.3137 63.7302 58.1231 63.7302 58.967Z" fill="white"/>
<path d="M89.1737 88.1829L91.0265 84.4931C84.1338 79.4504 71.4278 75.7813 71.4278 75.7813C69.2254 74.7554 68.5303 76.7339 70.0554 78.0201C70.0554 78.0201 80.9216 85.8101 89.1737 88.1829Z" fill="url(#paint10_linear_146_26)" stroke="#673907" stroke-width="2" stroke-linecap="round"/>
<path d="M98.0106 91.5839L99.0024 89.3882L91.3073 84.4583L90.6938 84.406L90.4285 83.5568C89.3107 84.2568 87.6863 86.8572 88.117 88.3192L88.9481 88.0049L89.3983 88.44L98.0106 91.5839Z" fill="url(#paint11_linear_146_26)" stroke="#888A85" stroke-width="2" stroke-linecap="round"/>
<path d="M93.0237 87.4192L98.1328 89.6129" stroke="white" stroke-width="2" stroke-linecap="round" stroke-linejoin="round"/>
<path d="M109.194 100.908C106.795 92.7648 105.944 86.299 99.6745 86.8743C94.6222 87.338 94.2685 94.5771 99.4893 96.5747C104.519 98.499 109.194 100.908 109.194 100.908Z" fill="url(#paint12_radial_146_26)"/>
<path opacity="0.527778" d="M100.05 87.534C100.315 87.4559 100.593 87.4307 100.867 87.46C101.142 87.4892 101.408 87.5722 101.651 87.7044C101.894 87.8365 102.108 88.0152 102.281 88.2301C102.455 88.445 102.584 88.692 102.662 88.957C102.74 89.222 102.766 89.4998 102.736 89.7744C102.707 90.0491 102.624 90.3153 102.492 90.5579C102.359 90.8004 102.181 91.0146 101.966 91.1881C101.751 91.3615 101.504 91.491 101.239 91.569C100.974 91.6471 100.696 91.6723 100.421 91.643C100.147 91.6138 99.8804 91.5308 99.6378 91.3986C99.3952 91.2665 99.181 91.0878 99.0075 90.8729C98.8339 90.658 98.7044 90.411 98.6264 90.146C98.5483 89.881 98.5232 89.6033 98.5525 89.3286C98.5818 89.0539 98.6649 88.7877 98.7972 88.5451C98.9294 88.3026 99.1081 88.0884 99.323 87.9149C99.538 87.7415 99.7851 87.612 100.05 87.534Z" fill="white"/>
<path d="M90.8799 84.5412C91.0587 84.4884 91.2461 84.4715 91.4315 84.4912C91.6168 84.5109 91.7965 84.5669 91.9602 84.6561C92.1238 84.7453 92.2684 84.8658 92.3855 85.0108C92.5026 85.1558 92.5899 85.3225 92.6426 85.5013C92.6953 85.6801 92.7122 85.8675 92.6924 86.0529C92.6727 86.2382 92.6166 86.4178 92.5274 86.5815C92.4382 86.7452 92.3176 86.8896 92.1725 87.0067C92.0275 87.1238 91.8608 87.2111 91.682 87.2637C91.5032 87.3164 91.3158 87.3334 91.1304 87.3137C90.9451 87.294 90.7654 87.2379 90.6017 87.1488C90.4381 87.0596 90.2935 86.9391 90.1764 86.7941C90.0593 86.649 89.972 86.4824 89.9193 86.3036C89.8666 86.1248 89.8497 85.9374 89.8695 85.752C89.8892 85.5667 89.9453 85.387 90.0345 85.2234C90.1237 85.0597 90.2443 84.9152 90.3894 84.7982C90.5344 84.6811 90.7011 84.5938 90.8799 84.5412Z" fill="white"/>
<path opacity="0.427778" d="M106.182 96.0355C106.182 96.0355 105.4 93.112 103.676 91.5906C103.065 91.0523 103.834 90.2594 104.41 90.9558C105.654 92.4599 106.182 96.0355 106.182 96.0355Z" fill="url(#paint13_linear_146_26)"/>
<path fill-rule="evenodd" clip-rule="evenodd" d="M62.0063 79.4731C65.0011 79.7593 67.7056 78.9286 68.8301 78.525C69.0266 77.4142 69.9032 75.2825 72.9223 75.142L71.8616 73.2859C71.8616 73.2859 67.9284 75.9817 63.7299 76.7772L62.0063 79.4731Z" fill="url(#paint14_linear_146_26)"/>
</g>
</g>
<defs>
<filter id="filter0_i_146_26" x="8" y="8" width="112" height="116" filterUnits="userSpaceOnUse" color-interpolation-filters="sRGB">
<feFlood flood-opacity="0" result="BackgroundImageFix"/>
<feBlend mode="normal" in="SourceGraphic" in2="BackgroundImageFix" result="shape"/>
<feColorMatrix in="SourceAlpha" type="matrix" values="0 0 0 0 0 0 0 0 0 0 0 0 0 0 0 0 0 0 127 0" result="hardAlpha"/>
<feOffset dy="4"/>
<feGaussianBlur stdDeviation="2"/>
<feComposite in2="hardAlpha" operator="arithmetic" k2="-1" k3="1"/>
<feColorMatrix type="matrix" values="0 0 0 0 0 0 0 0 0 0 0 0 0 0 0 0 0 0 0.25 0"/>
<feBlend mode="normal" in2="shape" result="effect1_innerShadow_146_26"/>
</filter>
<linearGradient id="paint0_linear_146_26" x1="63.6108" y1="128.098" x2="63.6108" y2="-0.0829033" gradientUnits="userSpaceOnUse">
<stop stop-color="#2CA0B9"/>
<stop offset="1" stop-color="#87DEAA"/>
</linearGradient>
<linearGradient id="paint1_linear_146_26" x1="64" y1="0" x2="64" y2="128" gradientUnits="userSpaceOnUse">
<stop stop-color="#857C63"/>
<stop offset="1" stop-color="#3E382D"/>
</linearGradient>
<radialGradient id="paint2_radial_146_26" cx="0" cy="0" r="1" gradientUnits="userSpaceOnUse" gradientTransform="translate(62.25 79.875) scale(36.5 15.875)">
<stop/>
<stop offset="1" stop-opacity="0"/>
</radialGradient>
<radialGradient id="paint3_radial_146_26" cx="0" cy="0" r="1" gradientUnits="userSpaceOnUse" gradientTransform="translate(49.1153 60.6) scale(68.1771 49.8682)">
<stop stop-color="#857C63"/>
<stop offset="1" stop-color="#221F19"/>
</radialGradient>
<linearGradient id="paint4_linear_146_26" x1="73.0277" y1="72.8586" x2="50.7538" y2="77.2781" gradientUnits="userSpaceOnUse">
<stop/>
<stop offset="1" stop-opacity="0"/>
</linearGradient>
<linearGradient id="paint5_linear_146_26" x1="45.938" y1="54.2214" x2="95.0496" y2="109.971" gradientUnits="userSpaceOnUse">
<stop stop-color="white"/>
<stop offset="1" stop-color="white" stop-opacity="0"/>
</linearGradient>
<radialGradient id="paint6_radial_146_26" cx="0" cy="0" r="1" gradientUnits="userSpaceOnUse" gradientTransform="translate(43.2899 53.0679) scale(11.8448 11.8447)">
<stop stop-color="white"/>
<stop offset="1" stop-color="#B9B9B0"/>
</radialGradient>
<radialGradient id="paint7_radial_146_26" cx="0" cy="0" r="1" gradientUnits="userSpaceOnUse" gradientTransform="translate(24.9478 62.6719) rotate(-30) scale(8.89766 10.385)">
<stop stop-color="#5B676B"/>
<stop offset="1" stop-color="#141718"/>
</radialGradient>
<linearGradient id="paint8_linear_146_26" x1="23.5552" y1="60.4941" x2="32.8827" y2="74.0169" gradientUnits="userSpaceOnUse">
<stop stop-color="white"/>
<stop offset="1" stop-color="white" stop-opacity="0"/>
</linearGradient>
<radialGradient id="paint9_radial_146_26" cx="0" cy="0" r="1" gradientUnits="userSpaceOnUse" gradientTransform="translate(60.0835 52.9566) scale(13.9047 13.9047)">
<stop stop-color="white"/>
<stop offset="1" stop-color="#B9B9B0"/>
</radialGradient>
<linearGradient id="paint10_linear_146_26" x1="84.7184" y1="80.1088" x2="80.5637" y2="89.1829" gradientUnits="userSpaceOnUse">
<stop stop-color="#6E3D09"/>
<stop offset="0.242424" stop-color="#EA8113"/>
<stop offset="0.621212" stop-color="#5C3307"/>
<stop offset="1" stop-color="#E07C12"/>
</linearGradient>
<linearGradient id="paint11_linear_146_26" x1="93.6222" y1="89.9637" x2="95.4492" y2="86.2778" gradientUnits="userSpaceOnUse">
<stop stop-color="#BDBDBD"/>
<stop offset="0.333333" stop-color="#E2E2E2"/>
<stop offset="0.666667" stop-color="#A3A3A3"/>
<stop offset="1" stop-color="#DDDDDD"/>
</linearGradient>
<radialGradient id="paint12_radial_146_26" cx="0" cy="0" r="1" gradientUnits="userSpaceOnUse" gradientTransform="translate(98.178 92.1055) rotate(-106.415) scale(9.68903 9.44226)">
<stop stop-color="#696969"/>
<stop offset="1"/>
</radialGradient>
<linearGradient id="paint13_linear_146_26" x1="103.914" y1="90.1708" x2="106.254" y2="94.5076" gradientUnits="userSpaceOnUse">
<stop stop-color="white"/>
<stop offset="1" stop-color="white" stop-opacity="0"/>
</linearGradient>
<linearGradient id="paint14_linear_146_26" x1="68.3261" y1="77.0866" x2="64.658" y2="77.9705" gradientUnits="userSpaceOnUse">
<stop/>
<stop offset="1" stop-opacity="0"/>
</linearGradient>
<clipPath id="clip0_146_26">
<rect width="96" height="96" fill="white" transform="translate(16 16)"/>
</clipPath>
</defs>
</svg>
